<?xml version="1.0" encoding="UTF-8" standalone="no"?>
<!DOCTYPE svg PUBLIC "-//W3C//DTD SVG 1.1//EN"
 "http://www.w3.org/Graphics/SVG/1.1/DTD/svg11.dtd">
<!-- Generated by graphviz version 2.43.0 (0)
 -->
<!-- Title: G Pages: 1 -->
<svg width="1466pt" height="1040pt"
 viewBox="0.00 0.00 1466.00 1040.00" xmlns="http://www.w3.org/2000/svg" xmlns:xlink="http://www.w3.org/1999/xlink">
<g id="graph0" class="graph" transform="scale(1 1) rotate(0) translate(4 1036)">
<title>G</title>
<polygon fill="white" stroke="transparent" points="-4,4 -4,-1036 1462,-1036 1462,4 -4,4"/>
<!-- http://spdx.org/rdf/terms#SpdxItem -->
<g id="node1" class="node">
<title>http://spdx.org/rdf/terms#SpdxItem</title>
<ellipse fill="none" stroke="#1f77b4" cx="446.15" cy="-1015.76" rx="87.86" ry="16.03"/>
<text text-anchor="middle" x="446.15" y="-1012.06" font-family="Times,serif" font-size="14.00">spdx:SpdxItem</text>
</g>
<!-- http://w3id.org/oseg/ont/ods#Dataset -->
<g id="node2" class="node">
<title>http://w3id.org/oseg/ont/ods#Dataset</title>
<ellipse fill="none" stroke="#1f77b4" cx="279" cy="-997.07" rx="71.34" ry="16.03"/>
<text text-anchor="middle" x="279" y="-993.37" font-family="Times,serif" font-size="14.00">ods:Dataset</text>
</g>
<!-- http://schema.org/DefinedTerm -->
<g id="node3" class="node">
<title>http://schema.org/DefinedTerm</title>
<ellipse fill="none" stroke="#1f77b4" cx="881.25" cy="-296.63" rx="118.17" ry="16.03"/>
<text text-anchor="middle" x="881.25" y="-292.93" font-family="Times,serif" font-size="14.00">schema:DefinedTerm</text>
</g>
<!-- http://schema.org/DefinedTermSet -->
<g id="node4" class="node">
<title>http://schema.org/DefinedTermSet</title>
<ellipse fill="none" stroke="#1f77b4" cx="247.13" cy="-645.27" rx="116.85" ry="16.03"/>
<text text-anchor="middle" x="247.13" y="-641.57" font-family="Times,serif" font-size="14.00">schema:DefinedTer...</text>
</g>
<!-- http://w3id.org/oseg/ont/okhimg#slotPhotoThingMain -->
<g id="node5" class="node">
<title>http://w3id.org/oseg/ont/okhimg#slotPhotoThingMain</title>
<ellipse fill="none" stroke="#e377c2" cx="1335.96" cy="-161.43" rx="114.6" ry="16.03"/>
<text text-anchor="middle" x="1335.96" y="-157.73" font-family="Times,serif" font-size="14.00">okhimg:slotPhotoT...</text>
</g>
<!-- http://w3id.org/oseg/ont/okhimg#slotPhotoThingMain&#45;&gt;http://schema.org/DefinedTerm -->
<g id="edge1" class="edge">
<title>http://w3id.org/oseg/ont/okhimg#slotPhotoThingMain&#45;&gt;http://schema.org/DefinedTerm</title>
<path fill="none" stroke="black" d="M1286.43,-176.16C1202.23,-201.19 1031.53,-251.95 940.9,-278.9"/>
<polygon fill="black" stroke="black" points="939.65,-275.62 931.06,-281.82 941.64,-282.33 939.65,-275.62"/>
<text text-anchor="middle" x="1109.17" y="-216.33" font-family="Times,serif" font-size="14.00">a</text>
</g>
<!-- http://w3id.org/oseg/ont/okhimg#slotModelFromBack -->
<g id="node6" class="node">
<title>http://w3id.org/oseg/ont/okhimg#slotModelFromBack</title>
<ellipse fill="none" stroke="#e377c2" cx="1221.11" cy="-97.59" rx="116.85" ry="16.03"/>
<text text-anchor="middle" x="1221.11" y="-93.89" font-family="Times,serif" font-size="14.00">okhimg:slotModelF...</text>
</g>
<!-- http://w3id.org/oseg/ont/okhimg#slotModelFromBack&#45;&gt;http://schema.org/DefinedTerm -->
<g id="edge2" class="edge">
<title>http://w3id.org/oseg/ont/okhimg#slotModelFromBack&#45;&gt;http://schema.org/DefinedTerm</title>
<path fill="none" stroke="black" d="M1193.88,-113.55C1132.97,-149.21 985.77,-235.42 917.34,-275.5"/>
<polygon fill="black" stroke="black" points="915.47,-272.53 908.61,-280.61 919.01,-278.57 915.47,-272.53"/>
<text text-anchor="middle" x="1051.11" y="-198.32" font-family="Times,serif" font-size="14.00">a</text>
</g>
<!-- http://w3id.org/oseg/ont/okhimg#slotOrganizationLogo -->
<g id="node7" class="node">
<title>http://w3id.org/oseg/ont/okhimg#slotOrganizationLogo</title>
<ellipse fill="none" stroke="#e377c2" cx="1171.39" cy="-498.92" rx="114.6" ry="16.03"/>
<text text-anchor="middle" x="1171.39" y="-495.22" font-family="Times,serif" font-size="14.00">okhimg:slotOrgani...</text>
</g>
<!-- http://w3id.org/oseg/ont/okhimg#slotOrganizationLogo&#45;&gt;http://schema.org/DefinedTerm -->
<g id="edge3" class="edge">
<title>http://w3id.org/oseg/ont/okhimg#slotOrganizationLogo&#45;&gt;http://schema.org/DefinedTerm</title>
<path fill="none" stroke="black" d="M1148.14,-482.71C1096.34,-446.59 971.4,-359.49 912.7,-318.57"/>
<polygon fill="black" stroke="black" points="914.41,-315.49 904.21,-312.64 910.41,-321.23 914.41,-315.49"/>
<text text-anchor="middle" x="1025.92" y="-404.44" font-family="Times,serif" font-size="14.00">a</text>
</g>
<!-- http://w3id.org/oseg/ont/okhimg#slotOrganizationLogoBw -->
<g id="node8" class="node">
<title>http://w3id.org/oseg/ont/okhimg#slotOrganizationLogoBw</title>
<ellipse fill="none" stroke="#e377c2" cx="926.81" cy="-498.92" rx="114.6" ry="16.03"/>
<text text-anchor="middle" x="926.81" y="-495.22" font-family="Times,serif" font-size="14.00">okhimg:slotOrgani...</text>
</g>
<!-- http://w3id.org/oseg/ont/okhimg#slotOrganizationLogo&#45;&gt;http://w3id.org/oseg/ont/okhimg#slotOrganizationLogoBw -->
<g id="edge41" class="edge">
<title>http://w3id.org/oseg/ont/okhimg#slotOrganizationLogo&#45;&gt;http://w3id.org/oseg/ont/okhimg#slotOrganizationLogoBw</title>
<path fill="none" stroke="black" d="M1066.96,-492.24C1058.46,-492.17 1049.85,-492.16 1041.3,-492.18"/>
<polygon fill="black" stroke="black" points="1041.26,-488.68 1031.28,-492.24 1041.3,-495.68 1041.26,-488.68"/>
<text text-anchor="middle" x="1040.38" y="-481.01" font-family="Times,serif" font-size="14.00">seeAlso</text>
</g>
<!-- http://w3id.org/oseg/ont/okhimg#slotOrganizationLogoBw&#45;&gt;http://schema.org/DefinedTerm -->
<g id="edge4" class="edge">
<title>http://w3id.org/oseg/ont/okhimg#slotOrganizationLogoBw&#45;&gt;http://schema.org/DefinedTerm</title>
<path fill="none" stroke="black" d="M923.08,-482.37C915.18,-447.31 896.72,-365.34 887.18,-322.99"/>
<polygon fill="black" stroke="black" points="890.57,-322.12 884.96,-313.13 883.75,-323.66 890.57,-322.12"/>
<text text-anchor="middle" x="900.63" y="-406.48" font-family="Times,serif" font-size="14.00">a</text>
</g>
<!-- http://w3id.org/oseg/ont/okhimg#slotOrganizationLogoBw&#45;&gt;http://w3id.org/oseg/ont/okhimg#slotOrganizationLogo -->
<g id="edge34" class="edge">
<title>http://w3id.org/oseg/ont/okhimg#slotOrganizationLogoBw&#45;&gt;http://w3id.org/oseg/ont/okhimg#slotOrganizationLogo</title>
<path fill="none" stroke="black" d="M1031.24,-505.61C1039.74,-505.67 1048.34,-505.69 1056.9,-505.66"/>
<polygon fill="black" stroke="black" points="1056.94,-509.16 1066.92,-505.61 1056.9,-502.16 1056.94,-509.16"/>
<text text-anchor="middle" x="1071.57" y="-509.43" font-family="Times,serif" font-size="14.00">seeAlso</text>
</g>
<!-- http://w3id.org/oseg/ont/okhimg#tagArt -->
<g id="node9" class="node">
<title>http://w3id.org/oseg/ont/okhimg#tagArt</title>
<ellipse fill="none" stroke="#e377c2" cx="487.98" cy="-518.14" rx="84.29" ry="16.03"/>
<text text-anchor="middle" x="487.98" y="-514.44" font-family="Times,serif" font-size="14.00">okhimg:tagArt</text>
</g>
<!-- http://w3id.org/oseg/ont/okhimg#tagArt&#45;&gt;http://schema.org/DefinedTerm -->
<g id="edge5" class="edge">
<title>http://w3id.org/oseg/ont/okhimg#tagArt&#45;&gt;http://schema.org/DefinedTerm</title>
<path fill="none" stroke="black" d="M515.32,-502.74C584.28,-463.9 765.39,-361.89 843.97,-317.63"/>
<polygon fill="black" stroke="black" points="846.04,-320.48 853.04,-312.52 842.6,-314.38 846.04,-320.48"/>
<text text-anchor="middle" x="675.15" y="-398.99" font-family="Times,serif" font-size="14.00">a</text>
</g>
<!-- http://w3id.org/oseg/ont/okhimg#slotIconMain -->
<g id="node10" class="node">
<title>http://w3id.org/oseg/ont/okhimg#slotIconMain</title>
<ellipse fill="none" stroke="#e377c2" cx="476.5" cy="-477.22" rx="117.26" ry="16.03"/>
<text text-anchor="middle" x="476.5" y="-473.52" font-family="Times,serif" font-size="14.00">okhimg:slotIconMain</text>
</g>
<!-- http://w3id.org/oseg/ont/okhimg#slotIconMain&#45;&gt;http://schema.org/DefinedTerm -->
<g id="edge47" class="edge">
<title>http://w3id.org/oseg/ont/okhimg#slotIconMain&#45;&gt;http://schema.org/DefinedTerm</title>
<path fill="none" stroke="black" d="M511.36,-461.67C584.88,-428.87 755.72,-352.64 836.89,-316.43"/>
<polygon fill="black" stroke="black" points="838.62,-319.48 846.33,-312.21 835.77,-313.09 838.62,-319.48"/>
<text text-anchor="middle" x="669.62" y="-377.85" font-family="Times,serif" font-size="14.00">a</text>
</g>
<!-- http://w3id.org/oseg/ont/okhimg#slotIconMainBw -->
<g id="node32" class="node">
<title>http://w3id.org/oseg/ont/okhimg#slotIconMainBw</title>
<ellipse fill="none" stroke="#e377c2" cx="642.99" cy="-433.89" rx="117.26" ry="16.03"/>
<text text-anchor="middle" x="642.99" y="-430.19" font-family="Times,serif" font-size="14.00">okhimg:slotIconMa...</text>
</g>
<!-- http://w3id.org/oseg/ont/okhimg#slotIconMain&#45;&gt;http://w3id.org/oseg/ont/okhimg#slotIconMainBw -->
<g id="edge32" class="edge">
<title>http://w3id.org/oseg/ont/okhimg#slotIconMain&#45;&gt;http://w3id.org/oseg/ont/okhimg#slotIconMainBw</title>
<path fill="none" stroke="black" d="M551.7,-464.58C567.01,-460.73 582.69,-456.47 596.64,-452.34"/>
<polygon fill="black" stroke="black" points="597.91,-455.61 606.46,-449.36 595.88,-448.91 597.91,-455.61"/>
<text text-anchor="middle" x="601.67" y="-462.26" font-family="Times,serif" font-size="14.00">seeAlso</text>
</g>
<!-- http://spdx.org/licenses/AGPL&#45;3.0&#45;or&#45;later -->
<g id="node11" class="node">
<title>http://spdx.org/licenses/AGPL&#45;3.0&#45;or&#45;later</title>
<ellipse fill="none" stroke="#e377c2" cx="111.9" cy="-830.01" rx="111.95" ry="16.03"/>
<text text-anchor="middle" x="111.9" y="-826.31" font-family="Times,serif" font-size="14.00">spdxl:AGPL&#45;3.0&#45;or...</text>
</g>
<!-- http://w3id.org/oseg/ont/okhimg#tagScreenshot -->
<g id="node12" class="node">
<title>http://w3id.org/oseg/ont/okhimg#tagScreenshot</title>
<ellipse fill="none" stroke="#e377c2" cx="1332.75" cy="-256.53" rx="125.32" ry="16.03"/>
<text text-anchor="middle" x="1332.75" y="-252.83" font-family="Times,serif" font-size="14.00">okhimg:tagScreenshot</text>
</g>
<!-- http://w3id.org/oseg/ont/okhimg#tagScreenshot&#45;&gt;http://schema.org/DefinedTerm -->
<g id="edge7" class="edge">
<title>http://w3id.org/oseg/ont/okhimg#tagScreenshot&#45;&gt;http://schema.org/DefinedTerm</title>
<path fill="none" stroke="black" d="M1229.17,-265.73C1157.93,-272.06 1063.46,-280.45 990.94,-286.89"/>
<polygon fill="black" stroke="black" points="990.51,-283.41 980.86,-287.79 991.13,-290.39 990.51,-283.41"/>
<text text-anchor="middle" x="1105.55" y="-280.11" font-family="Times,serif" font-size="14.00">a</text>
</g>
<!-- http://w3id.org/oseg/ont/okhimg#tags -->
<g id="node13" class="node">
<title>http://w3id.org/oseg/ont/okhimg#tags</title>
<ellipse fill="none" stroke="#e377c2" cx="511.6" cy="-688.59" rx="73.58" ry="16.03"/>
<text text-anchor="middle" x="511.6" y="-684.89" font-family="Times,serif" font-size="14.00">okhimg:tags</text>
</g>
<!-- http://w3id.org/oseg/ont/okhimg#tags&#45;&gt;http://schema.org/DefinedTermSet -->
<g id="edge9" class="edge">
<title>http://w3id.org/oseg/ont/okhimg#tags&#45;&gt;http://schema.org/DefinedTermSet</title>
<path fill="none" stroke="black" d="M452.25,-678.87C417.16,-673.12 372.11,-665.74 333.17,-659.36"/>
<polygon fill="black" stroke="black" points="333.32,-655.84 322.89,-657.68 332.19,-662.75 333.32,-655.84"/>
<text text-anchor="middle" x="388.21" y="-672.92" font-family="Times,serif" font-size="14.00">a</text>
</g>
<!-- http://w3id.org/oseg/ont/okhimg#tags&#45;&gt;http://w3id.org/oseg/ont/okhimg#tagArt -->
<g id="edge25" class="edge">
<title>http://w3id.org/oseg/ont/okhimg#tags&#45;&gt;http://w3id.org/oseg/ont/okhimg#tagArt</title>
<path fill="none" stroke="black" d="M509.33,-672.25C505.24,-642.72 496.59,-580.25 491.64,-544.58"/>
<polygon fill="black" stroke="black" points="495.08,-543.86 490.24,-534.44 488.14,-544.82 495.08,-543.86"/>
<text text-anchor="middle" x="412.99" y="-612.21" font-family="Times,serif" font-size="14.00">schema:hasDefinedTerm</text>
</g>
<!-- http://w3id.org/oseg/ont/okhimg#slots -->
<g id="node14" class="node">
<title>http://w3id.org/oseg/ont/okhimg#slots</title>
<ellipse fill="none" stroke="#e377c2" cx="447.64" cy="-647.83" rx="75.82" ry="16.03"/>
<text text-anchor="middle" x="447.64" y="-644.13" font-family="Times,serif" font-size="14.00">okhimg:slots</text>
</g>
<!-- http://w3id.org/oseg/ont/okhimg#slots&#45;&gt;http://schema.org/DefinedTermSet -->
<g id="edge13" class="edge">
<title>http://w3id.org/oseg/ont/okhimg#slots&#45;&gt;http://schema.org/DefinedTermSet</title>
<path fill="none" stroke="black" d="M371.83,-646.86C371.74,-646.86 371.66,-646.86 371.57,-646.86"/>
<polygon fill="black" stroke="black" points="373.49,-643.38 363.44,-646.75 373.4,-650.38 373.49,-643.38"/>
<text text-anchor="middle" x="367.2" y="-650.66" font-family="Times,serif" font-size="14.00">a</text>
</g>
<!-- http://w3id.org/oseg/ont/okhimg#slots&#45;&gt;http://w3id.org/oseg/ont/okhimg#slotIconMain -->
<g id="edge6" class="edge">
<title>http://w3id.org/oseg/ont/okhimg#slots&#45;&gt;http://w3id.org/oseg/ont/okhimg#slotIconMain</title>
<path fill="none" stroke="black" d="M450.4,-631.47C455.4,-601.92 465.98,-539.39 472.02,-503.69"/>
<polygon fill="black" stroke="black" points="475.53,-503.98 473.74,-493.53 468.62,-502.81 475.53,-503.98"/>
<text text-anchor="middle" x="373.71" y="-571.38" font-family="Times,serif" font-size="14.00">schema:hasDefinedTerm</text>
</g>
<!-- http://w3id.org/oseg/ont/okhimg#tagBw -->
<g id="node15" class="node">
<title>http://w3id.org/oseg/ont/okhimg#tagBw</title>
<ellipse fill="none" stroke="#e377c2" cx="633.77" cy="-344.55" rx="84.29" ry="16.03"/>
<text text-anchor="middle" x="633.77" y="-340.85" font-family="Times,serif" font-size="14.00">okhimg:tagBw</text>
</g>
<!-- http://w3id.org/oseg/ont/okhimg#tagBw&#45;&gt;http://schema.org/DefinedTerm -->
<g id="edge10" class="edge">
<title>http://w3id.org/oseg/ont/okhimg#tagBw&#45;&gt;http://schema.org/DefinedTerm</title>
<path fill="none" stroke="black" d="M693.36,-333.01C726.17,-326.66 767.31,-318.69 802.71,-311.84"/>
<polygon fill="black" stroke="black" points="803.39,-315.27 812.54,-309.94 802.05,-308.4 803.39,-315.27"/>
<text text-anchor="middle" x="743.54" y="-326.22" font-family="Times,serif" font-size="14.00">a</text>
</g>
<!-- http://w3id.org/oseg/ont/okhimg#slotModel3D -->
<g id="node16" class="node">
<title>http://w3id.org/oseg/ont/okhimg#slotModel3D</title>
<ellipse fill="none" stroke="#e377c2" cx="563.75" cy="-298.06" rx="115.93" ry="16.03"/>
<text text-anchor="middle" x="563.75" y="-294.36" font-family="Times,serif" font-size="14.00">okhimg:slotModel3D</text>
</g>
<!-- http://w3id.org/oseg/ont/okhimg#slotModel3D&#45;&gt;http://schema.org/DefinedTerm -->
<g id="edge12" class="edge">
<title>http://w3id.org/oseg/ont/okhimg#slotModel3D&#45;&gt;http://schema.org/DefinedTerm</title>
<path fill="none" stroke="black" d="M679.72,-297.54C703.51,-297.43 728.69,-297.32 752.89,-297.21"/>
<polygon fill="black" stroke="black" points="753.21,-300.71 763.19,-297.16 753.18,-293.71 753.21,-300.71"/>
<text text-anchor="middle" x="711.8" y="-301.17" font-family="Times,serif" font-size="14.00">a</text>
</g>
<!-- http://w3id.org/oseg/ont/okhimg#tagPhoto -->
<g id="node17" class="node">
<title>http://w3id.org/oseg/ont/okhimg#tagPhoto</title>
<ellipse fill="none" stroke="#e377c2" cx="1038.24" cy="-458.36" rx="97.66" ry="16.03"/>
<text text-anchor="middle" x="1038.24" y="-454.66" font-family="Times,serif" font-size="14.00">okhimg:tagPhoto</text>
</g>
<!-- http://w3id.org/oseg/ont/okhimg#tagPhoto&#45;&gt;http://schema.org/DefinedTerm -->
<g id="edge14" class="edge">
<title>http://w3id.org/oseg/ont/okhimg#tagPhoto&#45;&gt;http://schema.org/DefinedTerm</title>
<path fill="none" stroke="black" d="M1022.62,-442.26C994.9,-413.71 937.01,-354.07 904.56,-320.65"/>
<polygon fill="black" stroke="black" points="906.75,-317.89 897.28,-313.15 901.73,-322.76 906.75,-317.89"/>
<text text-anchor="middle" x="959.09" y="-385.26" font-family="Times,serif" font-size="14.00">a</text>
</g>
<!-- http://w3id.org/oseg/ont/okhimg -->
<g id="node18" class="node">
<title>http://w3id.org/oseg/ont/okhimg</title>
<ellipse fill="none" stroke="#e377c2" cx="345.15" cy="-827.06" rx="70.01" ry="16.03"/>
<text text-anchor="middle" x="345.15" y="-823.36" font-family="Times,serif" font-size="14.00">ns1:okhimg</text>
</g>
<!-- http://w3id.org/oseg/ont/okhimg&#45;&gt;http://spdx.org/rdf/terms#SpdxItem -->
<g id="edge49" class="edge">
<title>http://w3id.org/oseg/ont/okhimg&#45;&gt;http://spdx.org/rdf/terms#SpdxItem</title>
<path fill="none" stroke="black" d="M353.94,-843.47C371.59,-876.45 411.48,-950.97 432.54,-990.31"/>
<polygon fill="black" stroke="black" points="429.66,-992.35 437.46,-999.51 435.83,-989.04 429.66,-992.35"/>
<text text-anchor="middle" x="388.74" y="-920.69" font-family="Times,serif" font-size="14.00">a</text>
</g>
<!-- http://w3id.org/oseg/ont/okhimg&#45;&gt;http://w3id.org/oseg/ont/ods#Dataset -->
<g id="edge15" class="edge">
<title>http://w3id.org/oseg/ont/okhimg&#45;&gt;http://w3id.org/oseg/ont/ods#Dataset</title>
<path fill="none" stroke="black" d="M338.81,-843.36C327.3,-872.94 302.9,-935.66 289.08,-971.16"/>
<polygon fill="black" stroke="black" points="285.69,-970.23 285.32,-980.82 292.21,-972.77 285.69,-970.23"/>
<text text-anchor="middle" x="309.45" y="-911.06" font-family="Times,serif" font-size="14.00">a</text>
</g>
<!-- http://w3id.org/oseg/ont/okhimg&#45;&gt;http://spdx.org/licenses/AGPL&#45;3.0&#45;or&#45;later -->
<g id="edge8" class="edge">
<title>http://w3id.org/oseg/ont/okhimg&#45;&gt;http://spdx.org/licenses/AGPL&#45;3.0&#45;or&#45;later</title>
<path fill="none" stroke="black" d="M275.17,-827.94C261.99,-828.11 247.87,-828.29 233.64,-828.47"/>
<polygon fill="black" stroke="black" points="233.23,-824.97 223.28,-828.6 233.32,-831.97 233.23,-824.97"/>
<text text-anchor="middle" x="254.41" y="-817.01" font-family="Times,serif" font-size="14.00">spdx:licenseDeclared</text>
</g>
<!-- http://w3id.org/oseg/ont/okhimg&#45;&gt;http://w3id.org/oseg/ont/okhimg#tags -->
<g id="edge33" class="edge">
<title>http://w3id.org/oseg/ont/okhimg&#45;&gt;http://w3id.org/oseg/ont/okhimg#tags</title>
<path fill="none" stroke="black" d="M364.25,-811.17C393.77,-786.62 450.6,-739.34 484.4,-711.21"/>
<polygon fill="black" stroke="black" points="487.02,-713.59 492.47,-704.5 482.55,-708.21 487.02,-713.59"/>
<text text-anchor="middle" x="359.32" y="-764.99" font-family="Times,serif" font-size="14.00">void:rootResource</text>
</g>
<!-- http://w3id.org/oseg/ont/okhimg&#45;&gt;http://w3id.org/oseg/ont/okhimg#slots -->
<g id="edge11" class="edge">
<title>http://w3id.org/oseg/ont/okhimg&#45;&gt;http://w3id.org/oseg/ont/okhimg#slots</title>
<path fill="none" stroke="black" d="M354.43,-810.84C372.37,-779.46 411.94,-710.26 433.29,-672.91"/>
<polygon fill="black" stroke="black" points="436.38,-674.56 438.31,-664.15 430.31,-671.09 436.38,-674.56"/>
<text text-anchor="middle" x="328.86" y="-745.67" font-family="Times,serif" font-size="14.00">void:rootResource</text>
</g>
<!-- http://id.loc.gov/vocabulary/iso639&#45;1/en -->
<g id="node23" class="node">
<title>http://id.loc.gov/vocabulary/iso639&#45;1/en</title>
<ellipse fill="none" stroke="#e377c2" cx="356.15" cy="-956.52" rx="45.01" ry="16.03"/>
<text text-anchor="middle" x="356.15" y="-952.82" font-family="Times,serif" font-size="14.00">ns2:en</text>
</g>
<!-- http://w3id.org/oseg/ont/okhimg&#45;&gt;http://id.loc.gov/vocabulary/iso639&#45;1/en -->
<g id="edge19" class="edge">
<title>http://w3id.org/oseg/ont/okhimg&#45;&gt;http://id.loc.gov/vocabulary/iso639&#45;1/en</title>
<path fill="none" stroke="black" d="M346.54,-843.45C348.4,-865.24 351.69,-904.01 353.9,-929.99"/>
<polygon fill="black" stroke="black" points="350.44,-930.58 354.77,-940.25 357.41,-929.99 350.44,-930.58"/>
<text text-anchor="middle" x="414.72" y="-890.52" font-family="Times,serif" font-size="14.00">dcterms:language</text>
</g>
<!-- http://w3id.org/oseg/ont/oseg&#45;profiles#robinVobruba -->
<g id="node24" class="node">
<title>http://w3id.org/oseg/ont/oseg&#45;profiles#robinVobruba</title>
<ellipse fill="none" stroke="#e377c2" cx="120.98" cy="-903.17" rx="113.69" ry="16.03"/>
<text text-anchor="middle" x="120.98" y="-899.47" font-family="Times,serif" font-size="14.00">osegprof:robinVob...</text>
</g>
<!-- http://w3id.org/oseg/ont/okhimg&#45;&gt;http://w3id.org/oseg/ont/oseg&#45;profiles#robinVobruba -->
<g id="edge21" class="edge">
<title>http://w3id.org/oseg/ont/okhimg&#45;&gt;http://w3id.org/oseg/ont/oseg&#45;profiles#robinVobruba</title>
<path fill="none" stroke="black" d="M294.4,-838.28C254.18,-850.35 198.75,-869.27 161.47,-883.7"/>
<polygon fill="black" stroke="black" points="159.96,-880.54 151.94,-887.46 162.52,-887.05 159.96,-880.54"/>
<text text-anchor="middle" x="172.44" y="-864.79" font-family="Times,serif" font-size="14.00">schema:creator</text>
</g>
<!-- http://w3id.org/oseg/ont/okhimg&#45;&gt;http://w3id.org/oseg/ont/oseg&#45;profiles#robinVobruba -->
<g id="edge30" class="edge">
<title>http://w3id.org/oseg/ont/okhimg&#45;&gt;http://w3id.org/oseg/ont/oseg&#45;profiles#robinVobruba</title>
<path fill="none" stroke="black" d="M316,-842.04C284.36,-854.83 232.74,-872.87 190.54,-886.15"/>
<polygon fill="black" stroke="black" points="189.38,-882.85 180.87,-889.17 191.46,-889.53 189.38,-882.85"/>
<text text-anchor="middle" x="310.77" y="-867.9" font-family="Times,serif" font-size="14.00">dcterms:creator</text>
</g>
<!-- http://w3id.org/oseg/ont/0.1.0/okhimg -->
<g id="node38" class="node">
<title>http://w3id.org/oseg/ont/0.1.0/okhimg</title>
<ellipse fill="none" stroke="#e377c2" cx="160.13" cy="-771.97" rx="70.01" ry="16.03"/>
<text text-anchor="middle" x="160.13" y="-768.27" font-family="Times,serif" font-size="14.00">ns3:okhimg</text>
</g>
<!-- http://w3id.org/oseg/ont/okhimg&#45;&gt;http://w3id.org/oseg/ont/0.1.0/okhimg -->
<g id="edge40" class="edge">
<title>http://w3id.org/oseg/ont/okhimg&#45;&gt;http://w3id.org/oseg/ont/0.1.0/okhimg</title>
<path fill="none" stroke="black" d="M301.77,-814.14C275.21,-806.23 241.04,-796.06 212.91,-787.68"/>
<polygon fill="black" stroke="black" points="213.82,-784.3 203.24,-784.8 211.82,-791.01 213.82,-784.3"/>
<text text-anchor="middle" x="308.84" y="-789.71" font-family="Times,serif" font-size="14.00">owl:versionIRI</text>
</g>
<!-- http://w3id.org/oseg/ont/oseg&#45;profiles#Iopa -->
<g id="node41" class="node">
<title>http://w3id.org/oseg/ont/oseg&#45;profiles#Iopa</title>
<ellipse fill="none" stroke="#e377c2" cx="219.44" cy="-943.76" rx="80.72" ry="16.03"/>
<text text-anchor="middle" x="219.44" y="-940.06" font-family="Times,serif" font-size="14.00">osegprof:Iopa</text>
</g>
<!-- http://w3id.org/oseg/ont/okhimg&#45;&gt;http://w3id.org/oseg/ont/oseg&#45;profiles#Iopa -->
<g id="edge46" class="edge">
<title>http://w3id.org/oseg/ont/okhimg&#45;&gt;http://w3id.org/oseg/ont/oseg&#45;profiles#Iopa</title>
<path fill="none" stroke="black" d="M327.94,-843.04C306.33,-863.09 269.13,-897.63 244.4,-920.59"/>
<polygon fill="black" stroke="black" points="241.8,-918.23 236.85,-927.6 246.56,-923.36 241.8,-918.23"/>
<text text-anchor="middle" x="351.67" y="-885.61" font-family="Times,serif" font-size="14.00">dcterms:publisher</text>
</g>
<!-- http://w3id.org/oseg/ont/okhimg#slotPhotoPackaging -->
<g id="node19" class="node">
<title>http://w3id.org/oseg/ont/okhimg#slotPhotoPackaging</title>
<ellipse fill="none" stroke="#e377c2" cx="648.47" cy="-61.86" rx="113.69" ry="16.03"/>
<text text-anchor="middle" x="648.47" y="-58.16" font-family="Times,serif" font-size="14.00">okhimg:slotPhotoP...</text>
</g>
<!-- http://w3id.org/oseg/ont/okhimg#slotPhotoPackaging&#45;&gt;http://schema.org/DefinedTerm -->
<g id="edge16" class="edge">
<title>http://w3id.org/oseg/ont/okhimg#slotPhotoPackaging&#45;&gt;http://schema.org/DefinedTerm</title>
<path fill="none" stroke="black" d="M664.47,-78C704.83,-118.71 810.94,-225.73 858.09,-273.28"/>
<polygon fill="black" stroke="black" points="855.61,-275.75 865.13,-280.38 860.58,-270.82 855.61,-275.75"/>
<text text-anchor="middle" x="756.78" y="-179.44" font-family="Times,serif" font-size="14.00">a</text>
</g>
<!-- http://w3id.org/oseg/ont/okhimg#slotSocial -->
<g id="node20" class="node">
<title>http://w3id.org/oseg/ont/okhimg#slotSocial</title>
<ellipse fill="none" stroke="#e377c2" cx="703.06" cy="-490.32" rx="101.23" ry="16.03"/>
<text text-anchor="middle" x="703.06" y="-486.62" font-family="Times,serif" font-size="14.00">okhimg:slotSocial</text>
</g>
<!-- http://w3id.org/oseg/ont/okhimg#slotSocial&#45;&gt;http://schema.org/DefinedTerm -->
<g id="edge17" class="edge">
<title>http://w3id.org/oseg/ont/okhimg#slotSocial&#45;&gt;http://schema.org/DefinedTerm</title>
<path fill="none" stroke="black" d="M717.94,-474.14C749.39,-439.96 822.7,-360.27 859.44,-320.34"/>
<polygon fill="black" stroke="black" points="862.08,-322.63 866.28,-312.9 856.93,-317.89 862.08,-322.63"/>
<text text-anchor="middle" x="784.19" y="-401.04" font-family="Times,serif" font-size="14.00">a</text>
</g>
<!-- http://w3id.org/oseg/ont/okhimg#tagDiagram -->
<g id="node21" class="node">
<title>http://w3id.org/oseg/ont/okhimg#tagDiagram</title>
<ellipse fill="none" stroke="#e377c2" cx="885.69" cy="-16.5" rx="111.95" ry="16.03"/>
<text text-anchor="middle" x="885.69" y="-12.8" font-family="Times,serif" font-size="14.00">okhimg:tagDiagram</text>
</g>
<!-- http://w3id.org/oseg/ont/okhimg#tagDiagram&#45;&gt;http://schema.org/DefinedTerm -->
<g id="edge18" class="edge">
<title>http://w3id.org/oseg/ont/okhimg#tagDiagram&#45;&gt;http://schema.org/DefinedTerm</title>
<path fill="none" stroke="black" d="M885.43,-32.77C884.69,-79.28 882.57,-213.13 881.66,-270.27"/>
<polygon fill="black" stroke="black" points="878.16,-270.26 881.51,-280.32 885.16,-270.37 878.16,-270.26"/>
<text text-anchor="middle" x="879.05" y="-155.32" font-family="Times,serif" font-size="14.00">a</text>
</g>
<!-- http://w3id.org/oseg/ont/okhimg#slotLogo -->
<g id="node22" class="node">
<title>http://w3id.org/oseg/ont/okhimg#slotLogo</title>
<ellipse fill="none" stroke="#e377c2" cx="1145.62" cy="-340.78" rx="94.51" ry="16.03"/>
<text text-anchor="middle" x="1145.62" y="-337.08" font-family="Times,serif" font-size="14.00">okhimg:slotLogo</text>
</g>
<!-- http://w3id.org/oseg/ont/okhimg#slotLogo&#45;&gt;http://schema.org/DefinedTerm -->
<g id="edge28" class="edge">
<title>http://w3id.org/oseg/ont/okhimg#slotLogo&#45;&gt;http://schema.org/DefinedTerm</title>
<path fill="none" stroke="black" d="M1077.54,-329.41C1043.69,-323.76 1002.45,-316.87 966.53,-310.87"/>
<polygon fill="black" stroke="black" points="966.99,-307.4 956.55,-309.21 965.83,-314.31 966.99,-307.4"/>
<text text-anchor="middle" x="1017.53" y="-323.94" font-family="Times,serif" font-size="14.00">a</text>
</g>
<!-- http://w3id.org/oseg/ont/okhimg#slotLogoBw -->
<g id="node26" class="node">
<title>http://w3id.org/oseg/ont/okhimg#slotLogoBw</title>
<ellipse fill="none" stroke="#e377c2" cx="1269.79" cy="-300.25" rx="111.03" ry="16.03"/>
<text text-anchor="middle" x="1269.79" y="-296.55" font-family="Times,serif" font-size="14.00">okhimg:slotLogoBw</text>
</g>
<!-- http://w3id.org/oseg/ont/okhimg#slotLogo&#45;&gt;http://w3id.org/oseg/ont/okhimg#slotLogoBw -->
<g id="edge44" class="edge">
<title>http://w3id.org/oseg/ont/okhimg#slotLogo&#45;&gt;http://w3id.org/oseg/ont/okhimg#slotLogoBw</title>
<path fill="none" stroke="black" d="M1206.16,-328.11C1214.58,-325.41 1223.03,-322.53 1230.91,-319.66"/>
<polygon fill="black" stroke="black" points="1232.39,-322.84 1240.53,-316.05 1229.94,-316.29 1232.39,-322.84"/>
<text text-anchor="middle" x="1246.03" y="-327.68" font-family="Times,serif" font-size="14.00">seeAlso</text>
</g>
<!-- http://w3id.org/oseg/ont/okhimg#slotModelMain -->
<g id="node25" class="node">
<title>http://w3id.org/oseg/ont/okhimg#slotModelMain</title>
<ellipse fill="none" stroke="#e377c2" cx="1298.11" cy="-381.33" rx="127.06" ry="16.03"/>
<text text-anchor="middle" x="1298.11" y="-377.63" font-family="Times,serif" font-size="14.00">okhimg:slotModelMain</text>
</g>
<!-- http://w3id.org/oseg/ont/okhimg#slotModelMain&#45;&gt;http://schema.org/DefinedTerm -->
<g id="edge22" class="edge">
<title>http://w3id.org/oseg/ont/okhimg#slotModelMain&#45;&gt;http://schema.org/DefinedTerm</title>
<path fill="none" stroke="black" d="M1230.21,-367.54C1155.58,-352.37 1035.96,-328.07 957.99,-312.23"/>
<polygon fill="black" stroke="black" points="958.24,-308.71 947.74,-310.14 956.85,-315.57 958.24,-308.71"/>
<text text-anchor="middle" x="1089.6" y="-343.68" font-family="Times,serif" font-size="14.00">a</text>
</g>
<!-- http://w3id.org/oseg/ont/okhimg#slotLogoBw&#45;&gt;http://schema.org/DefinedTerm -->
<g id="edge23" class="edge">
<title>http://w3id.org/oseg/ont/okhimg#slotLogoBw&#45;&gt;http://schema.org/DefinedTerm</title>
<path fill="none" stroke="black" d="M1158.97,-299.22C1112.38,-298.78 1057.88,-298.28 1009.55,-297.83"/>
<polygon fill="black" stroke="black" points="1009.37,-294.33 999.34,-297.73 1009.31,-301.33 1009.37,-294.33"/>
<text text-anchor="middle" x="1079.76" y="-302.32" font-family="Times,serif" font-size="14.00">a</text>
</g>
<!-- http://w3id.org/oseg/ont/okhimg#slotLogoBw&#45;&gt;http://w3id.org/oseg/ont/okhimg#slotLogo -->
<g id="edge20" class="edge">
<title>http://w3id.org/oseg/ont/okhimg#slotLogoBw&#45;&gt;http://w3id.org/oseg/ont/okhimg#slotLogo</title>
<path fill="none" stroke="black" d="M1206.7,-313.74C1198.85,-316.29 1191.03,-318.98 1183.72,-321.65"/>
<polygon fill="black" stroke="black" points="1182.26,-318.47 1174.14,-325.27 1184.73,-325.02 1182.26,-318.47"/>
<text text-anchor="middle" x="1167.71" y="-321.5" font-family="Times,serif" font-size="14.00">seeAlso</text>
</g>
<!-- http://w3id.org/oseg/ont/okhimg#slotModelFromRight -->
<g id="node27" class="node">
<title>http://w3id.org/oseg/ont/okhimg#slotModelFromRight</title>
<ellipse fill="none" stroke="#e377c2" cx="581.07" cy="-233.79" rx="116.85" ry="16.03"/>
<text text-anchor="middle" x="581.07" y="-230.09" font-family="Times,serif" font-size="14.00">okhimg:slotModelF...</text>
</g>
<!-- http://w3id.org/oseg/ont/okhimg#slotModelFromRight&#45;&gt;http://schema.org/DefinedTerm -->
<g id="edge24" class="edge">
<title>http://w3id.org/oseg/ont/okhimg#slotModelFromRight&#45;&gt;http://schema.org/DefinedTerm</title>
<path fill="none" stroke="black" d="M645.83,-247.35C693,-257.22 756.99,-270.62 806.36,-280.95"/>
<polygon fill="black" stroke="black" points="805.83,-284.42 816.34,-283.04 807.27,-277.57 805.83,-284.42"/>
<text text-anchor="middle" x="721.6" y="-267.95" font-family="Times,serif" font-size="14.00">a</text>
</g>
<!-- http://w3id.org/oseg/ont/okhimg#slotSymbol -->
<g id="node28" class="node">
<title>http://w3id.org/oseg/ont/okhimg#slotSymbol</title>
<ellipse fill="none" stroke="#e377c2" cx="1102.52" cy="-57.05" rx="108.38" ry="16.03"/>
<text text-anchor="middle" x="1102.52" y="-53.35" font-family="Times,serif" font-size="14.00">okhimg:slotSymbol</text>
</g>
<!-- http://w3id.org/oseg/ont/okhimg#slotSymbol&#45;&gt;http://schema.org/DefinedTerm -->
<g id="edge26" class="edge">
<title>http://w3id.org/oseg/ont/okhimg#slotSymbol&#45;&gt;http://schema.org/DefinedTerm</title>
<path fill="none" stroke="black" d="M1087.31,-73.52C1048.93,-115.08 948.01,-224.35 903.21,-272.85"/>
<polygon fill="black" stroke="black" points="900.48,-270.65 896.27,-280.37 905.63,-275.4 900.48,-270.65"/>
<text text-anchor="middle" x="990.76" y="-176.99" font-family="Times,serif" font-size="14.00">a</text>
</g>
<!-- http://w3id.org/oseg/ont/okhimg#tagLogo -->
<g id="node29" class="node">
<title>http://w3id.org/oseg/ont/okhimg#tagLogo</title>
<ellipse fill="none" stroke="#e377c2" cx="1000.56" cy="-97.58" rx="92.76" ry="16.03"/>
<text text-anchor="middle" x="1000.56" y="-93.88" font-family="Times,serif" font-size="14.00">okhimg:tagLogo</text>
</g>
<!-- http://w3id.org/oseg/ont/okhimg#tagLogo&#45;&gt;http://schema.org/DefinedTerm -->
<g id="edge27" class="edge">
<title>http://w3id.org/oseg/ont/okhimg#tagLogo&#45;&gt;http://schema.org/DefinedTerm</title>
<path fill="none" stroke="black" d="M990.79,-113.87C969.94,-148.66 920.95,-230.4 896.16,-271.75"/>
<polygon fill="black" stroke="black" points="893.12,-270.02 890.98,-280.4 899.12,-273.62 893.12,-270.02"/>
<text text-anchor="middle" x="938.98" y="-196.61" font-family="Times,serif" font-size="14.00">a</text>
</g>
<!-- http://w3id.org/oseg/ont/okhimg#tagModel -->
<g id="node30" class="node">
<title>http://w3id.org/oseg/ont/okhimg#tagModel</title>
<ellipse fill="none" stroke="#e377c2" cx="1053.27" cy="-539.48" rx="99.9" ry="16.03"/>
<text text-anchor="middle" x="1053.27" y="-535.78" font-family="Times,serif" font-size="14.00">okhimg:tagModel</text>
</g>
<!-- http://w3id.org/oseg/ont/okhimg#tagModel&#45;&gt;http://schema.org/DefinedTerm -->
<g id="edge29" class="edge">
<title>http://w3id.org/oseg/ont/okhimg#tagModel&#45;&gt;http://schema.org/DefinedTerm</title>
<path fill="none" stroke="black" d="M1041.72,-523.17C1012.15,-481.43 933.63,-370.59 898.58,-321.1"/>
<polygon fill="black" stroke="black" points="901.39,-319.01 892.75,-312.87 895.67,-323.06 901.39,-319.01"/>
<text text-anchor="middle" x="965.65" y="-425.93" font-family="Times,serif" font-size="14.00">a</text>
</g>
<!-- http://w3id.org/oseg/ont/okhimg#slotModelFromFront -->
<g id="node31" class="node">
<title>http://w3id.org/oseg/ont/okhimg#slotModelFromFront</title>
<ellipse fill="none" stroke="#e377c2" cx="554.89" cy="-180.02" rx="116.85" ry="16.03"/>
<text text-anchor="middle" x="554.89" y="-176.32" font-family="Times,serif" font-size="14.00">okhimg:slotModelF...</text>
</g>
<!-- http://w3id.org/oseg/ont/okhimg#slotModelFromFront&#45;&gt;http://schema.org/DefinedTerm -->
<g id="edge31" class="edge">
<title>http://w3id.org/oseg/ont/okhimg#slotModelFromFront&#45;&gt;http://schema.org/DefinedTerm</title>
<path fill="none" stroke="black" d="M597.56,-195.26C657.05,-216.52 764.83,-255.03 829.04,-277.98"/>
<polygon fill="black" stroke="black" points="827.98,-281.32 838.57,-281.38 830.33,-274.72 827.98,-281.32"/>
<text text-anchor="middle" x="708.8" y="-240.42" font-family="Times,serif" font-size="14.00">a</text>
</g>
<!-- http://w3id.org/oseg/ont/okhimg#slotIconMainBw&#45;&gt;http://schema.org/DefinedTerm -->
<g id="edge42" class="edge">
<title>http://w3id.org/oseg/ont/okhimg#slotIconMainBw&#45;&gt;http://schema.org/DefinedTerm</title>
<path fill="none" stroke="black" d="M670.79,-417.88C713.92,-393.03 796.96,-345.19 844.83,-317.61"/>
<polygon fill="black" stroke="black" points="846.71,-320.57 853.63,-312.55 843.21,-314.5 846.71,-320.57"/>
<text text-anchor="middle" x="753.31" y="-371.54" font-family="Times,serif" font-size="14.00">a</text>
</g>
<!-- http://w3id.org/oseg/ont/okhimg#slotIconMainBw&#45;&gt;http://w3id.org/oseg/ont/okhimg#slotIconMain -->
<g id="edge48" class="edge">
<title>http://w3id.org/oseg/ont/okhimg#slotIconMainBw&#45;&gt;http://w3id.org/oseg/ont/okhimg#slotIconMain</title>
<path fill="none" stroke="black" d="M567.79,-446.53C552.48,-450.38 536.8,-454.65 522.85,-458.78"/>
<polygon fill="black" stroke="black" points="521.58,-455.5 513.03,-461.75 523.61,-462.2 521.58,-455.5"/>
<text text-anchor="middle" x="517.82" y="-441.45" font-family="Times,serif" font-size="14.00">seeAlso</text>
</g>
<!-- http://w3id.org/oseg/ont/okhimg#tagColor -->
<g id="node33" class="node">
<title>http://w3id.org/oseg/ont/okhimg#tagColor</title>
<ellipse fill="none" stroke="#e377c2" cx="804.39" cy="-102.43" rx="95.42" ry="16.03"/>
<text text-anchor="middle" x="804.39" y="-98.73" font-family="Times,serif" font-size="14.00">okhimg:tagColor</text>
</g>
<!-- http://w3id.org/oseg/ont/okhimg#tagColor&#45;&gt;http://schema.org/DefinedTerm -->
<g id="edge35" class="edge">
<title>http://w3id.org/oseg/ont/okhimg#tagColor&#45;&gt;http://schema.org/DefinedTerm</title>
<path fill="none" stroke="black" d="M810.94,-118.98C824.36,-152.89 855.05,-230.45 871.08,-270.94"/>
<polygon fill="black" stroke="black" points="867.88,-272.38 874.82,-280.39 874.39,-269.81 867.88,-272.38"/>
<text text-anchor="middle" x="836.51" y="-198.76" font-family="Times,serif" font-size="14.00">a</text>
</g>
<!-- http://w3id.org/oseg/ont/okhimg#slotModelFromBelow -->
<g id="node34" class="node">
<title>http://w3id.org/oseg/ont/okhimg#slotModelFromBelow</title>
<ellipse fill="none" stroke="#e377c2" cx="1080.15" cy="-243.22" rx="116.85" ry="16.03"/>
<text text-anchor="middle" x="1080.15" y="-239.52" font-family="Times,serif" font-size="14.00">okhimg:slotModelF...</text>
</g>
<!-- http://w3id.org/oseg/ont/okhimg#slotModelFromBelow&#45;&gt;http://schema.org/DefinedTerm -->
<g id="edge36" class="edge">
<title>http://w3id.org/oseg/ont/okhimg#slotModelFromBelow&#45;&gt;http://schema.org/DefinedTerm</title>
<path fill="none" stroke="black" d="M1026.32,-257.67C1001.33,-264.39 971.43,-272.42 945.28,-279.44"/>
<polygon fill="black" stroke="black" points="944.21,-276.1 935.46,-282.07 946.03,-282.86 944.21,-276.1"/>
<text text-anchor="middle" x="981.3" y="-272.36" font-family="Times,serif" font-size="14.00">a</text>
</g>
<!-- http://w3id.org/oseg/ont/okhimg#slotModelFromAbove -->
<g id="node35" class="node">
<title>http://w3id.org/oseg/ont/okhimg#slotModelFromAbove</title>
<ellipse fill="none" stroke="#e377c2" cx="1218.94" cy="-202.66" rx="116.85" ry="16.03"/>
<text text-anchor="middle" x="1218.94" y="-198.96" font-family="Times,serif" font-size="14.00">okhimg:slotModelF...</text>
</g>
<!-- http://w3id.org/oseg/ont/okhimg#slotModelFromAbove&#45;&gt;http://schema.org/DefinedTerm -->
<g id="edge37" class="edge">
<title>http://w3id.org/oseg/ont/okhimg#slotModelFromAbove&#45;&gt;http://schema.org/DefinedTerm</title>
<path fill="none" stroke="black" d="M1166.55,-217.24C1106.41,-233.98 1007.83,-261.41 943.74,-279.24"/>
<polygon fill="black" stroke="black" points="942.46,-275.97 933.76,-282.02 944.34,-282.71 942.46,-275.97"/>
<text text-anchor="middle" x="1050.64" y="-252.04" font-family="Times,serif" font-size="14.00">a</text>
</g>
<!-- http://w3id.org/oseg/ont/okhimg#tagDrawing -->
<g id="node36" class="node">
<title>http://w3id.org/oseg/ont/okhimg#tagDrawing</title>
<ellipse fill="none" stroke="#e377c2" cx="1255.71" cy="-421.89" rx="111.95" ry="16.03"/>
<text text-anchor="middle" x="1255.71" y="-418.19" font-family="Times,serif" font-size="14.00">okhimg:tagDrawing</text>
</g>
<!-- http://w3id.org/oseg/ont/okhimg#tagDrawing&#45;&gt;http://schema.org/DefinedTerm -->
<g id="edge38" class="edge">
<title>http://w3id.org/oseg/ont/okhimg#tagDrawing&#45;&gt;http://schema.org/DefinedTerm</title>
<path fill="none" stroke="black" d="M1210.91,-406.9C1142.08,-383.88 1010.47,-339.86 936.05,-314.97"/>
<polygon fill="black" stroke="black" points="936.98,-311.59 926.39,-311.73 934.76,-318.22 936.98,-311.59"/>
<text text-anchor="middle" x="1068.98" y="-364.74" font-family="Times,serif" font-size="14.00">a</text>
</g>
<!-- http://w3id.org/oseg/ont/okhimg#slotModelFromLeft -->
<g id="node37" class="node">
<title>http://w3id.org/oseg/ont/okhimg#slotModelFromLeft</title>
<ellipse fill="none" stroke="#e377c2" cx="581.62" cy="-117.15" rx="116.85" ry="16.03"/>
<text text-anchor="middle" x="581.62" y="-113.45" font-family="Times,serif" font-size="14.00">okhimg:slotModelF...</text>
</g>
<!-- http://w3id.org/oseg/ont/okhimg#slotModelFromLeft&#45;&gt;http://schema.org/DefinedTerm -->
<g id="edge39" class="edge">
<title>http://w3id.org/oseg/ont/okhimg#slotModelFromLeft&#45;&gt;http://schema.org/DefinedTerm</title>
<path fill="none" stroke="black" d="M608.21,-133.08C662.29,-165.47 785.12,-239.05 845.87,-275.44"/>
<polygon fill="black" stroke="black" points="844.34,-278.6 854.72,-280.74 847.94,-272.6 844.34,-278.6"/>
<text text-anchor="middle" x="722.54" y="-208.06" font-family="Times,serif" font-size="14.00">a</text>
</g>
<!-- http://w3id.org/oseg/ont/okhimg#tagGray -->
<g id="node39" class="node">
<title>http://w3id.org/oseg/ont/okhimg#tagGray</title>
<ellipse fill="none" stroke="#e377c2" cx="1120.58" cy="-138.13" rx="92.76" ry="16.03"/>
<text text-anchor="middle" x="1120.58" y="-134.43" font-family="Times,serif" font-size="14.00">okhimg:tagGray</text>
</g>
<!-- http://w3id.org/oseg/ont/okhimg#tagGray&#45;&gt;http://schema.org/DefinedTerm -->
<g id="edge43" class="edge">
<title>http://w3id.org/oseg/ont/okhimg#tagGray&#45;&gt;http://schema.org/DefinedTerm</title>
<path fill="none" stroke="black" d="M1096.76,-153.91C1053.68,-182.44 962.79,-242.63 913.94,-274.98"/>
<polygon fill="black" stroke="black" points="911.73,-272.24 905.33,-280.68 915.6,-278.08 911.73,-272.24"/>
<text text-anchor="middle" x="1000.85" y="-203.24" font-family="Times,serif" font-size="14.00">a</text>
</g>
<!-- http://w3id.org/oseg/ont/okhimg#tagIcon -->
<g id="node40" class="node">
<title>http://w3id.org/oseg/ont/okhimg#tagIcon</title>
<ellipse fill="none" stroke="#e377c2" cx="778.62" cy="-157.7" rx="89.61" ry="16.03"/>
<text text-anchor="middle" x="778.62" y="-154" font-family="Times,serif" font-size="14.00">okhimg:tagIcon</text>
</g>
<!-- http://w3id.org/oseg/ont/okhimg#tagIcon&#45;&gt;http://schema.org/DefinedTerm -->
<g id="edge45" class="edge">
<title>http://w3id.org/oseg/ont/okhimg#tagIcon&#45;&gt;http://schema.org/DefinedTerm</title>
<path fill="none" stroke="black" d="M790.6,-173.91C808.42,-198.04 842.07,-243.6 862.98,-271.91"/>
<polygon fill="black" stroke="black" points="860.27,-274.13 869.03,-280.1 865.91,-269.97 860.27,-274.13"/>
<text text-anchor="middle" x="822.29" y="-226.71" font-family="Times,serif" font-size="14.00">a</text>
</g>
</g>
</svg>
