<?xml version="1.0" encoding="UTF-8" standalone="no"?>
<!DOCTYPE svg PUBLIC "-//W3C//DTD SVG 1.1//EN"
 "http://www.w3.org/Graphics/SVG/1.1/DTD/svg11.dtd">
<!-- Generated by graphviz version 2.43.0 (0)
 -->
<!-- Title: G Pages: 1 -->
<svg width="2034pt" height="1720pt"
 viewBox="0.00 0.00 2034.00 1720.00" xmlns="http://www.w3.org/2000/svg" xmlns:xlink="http://www.w3.org/1999/xlink">
<g id="graph0" class="graph" transform="scale(1 1) rotate(0) translate(4 1716)">
<title>G</title>
<polygon fill="white" stroke="transparent" points="-4,4 -4,-1716 2030,-1716 2030,4 -4,4"/>
<!-- https://w3id.org/oseg/ont/otrl#OTRL -->
<g id="node1" class="node">
<title>https://w3id.org/oseg/ont/otrl#OTRL</title>
<ellipse fill="none" stroke="#e377c2" cx="783.29" cy="-1139.49" rx="60.62" ry="16.03"/>
<text text-anchor="middle" x="783.29" y="-1135.79" font-family="Times,serif" font-size="14.00">otrl:OTRL</text>
</g>
<!-- https://w3id.org/oseg/ont/otrl#ODRL3Star -->
<g id="node2" class="node">
<title>https://w3id.org/oseg/ont/otrl#ODRL3Star</title>
<ellipse fill="none" stroke="#e377c2" cx="1057.49" cy="-432.77" rx="90.52" ry="16.03"/>
<text text-anchor="middle" x="1057.49" y="-429.07" font-family="Times,serif" font-size="14.00">otrl:ODRL3Star</text>
</g>
<!-- https://w3id.org/oseg/ont/otrl#ODRL -->
<g id="node12" class="node">
<title>https://w3id.org/oseg/ont/otrl#ODRL</title>
<ellipse fill="none" stroke="#e377c2" cx="1041.31" cy="-709.62" rx="62.87" ry="16.03"/>
<text text-anchor="middle" x="1041.31" y="-705.92" font-family="Times,serif" font-size="14.00">otrl:ODRL</text>
</g>
<!-- https://w3id.org/oseg/ont/otrl#ODRL3Star&#45;&gt;https://w3id.org/oseg/ont/otrl#ODRL -->
<g id="edge34" class="edge">
<title>https://w3id.org/oseg/ont/otrl#ODRL3Star&#45;&gt;https://w3id.org/oseg/ont/otrl#ODRL</title>
<path fill="none" stroke="black" d="M1056.53,-449.26C1053.83,-495.42 1046.18,-626.27 1042.87,-682.92"/>
<polygon fill="black" stroke="black" points="1039.36,-683.03 1042.27,-693.21 1046.35,-683.44 1039.36,-683.03"/>
</g>
<!-- https://w3id.org/oseg/ont/otrl#OTRL3 -->
<g id="node3" class="node">
<title>https://w3id.org/oseg/ont/otrl#OTRL3</title>
<ellipse fill="none" stroke="#e377c2" cx="556.86" cy="-1058.3" rx="67.35" ry="16.03"/>
<text text-anchor="middle" x="556.86" y="-1054.6" font-family="Times,serif" font-size="14.00">otrl:OTRL3</text>
</g>
<!-- https://w3id.org/oseg/ont/otrl#OTRL3&#45;&gt;https://w3id.org/oseg/ont/otrl#OTRL -->
<g id="edge16" class="edge">
<title>https://w3id.org/oseg/ont/otrl#OTRL3&#45;&gt;https://w3id.org/oseg/ont/otrl#OTRL</title>
<path fill="none" stroke="black" d="M594.5,-1071.8C633.7,-1085.85 695.15,-1107.89 737.22,-1122.98"/>
<polygon fill="black" stroke="black" points="736.08,-1126.29 746.68,-1126.37 738.45,-1119.7 736.08,-1126.29"/>
</g>
<!-- https://w3id.org/oseg/ont/otrl#OTRL4 -->
<g id="node4" class="node">
<title>https://w3id.org/oseg/ont/otrl#OTRL4</title>
<ellipse fill="none" stroke="#e377c2" cx="844.02" cy="-1331.1" rx="67.35" ry="16.03"/>
<text text-anchor="middle" x="844.02" y="-1327.4" font-family="Times,serif" font-size="14.00">otrl:OTRL4</text>
</g>
<!-- https://w3id.org/oseg/ont/otrl#OTRL4&#45;&gt;https://w3id.org/oseg/ont/otrl#OTRL -->
<g id="edge1" class="edge">
<title>https://w3id.org/oseg/ont/otrl#OTRL4&#45;&gt;https://w3id.org/oseg/ont/otrl#OTRL</title>
<path fill="none" stroke="black" d="M838.84,-1314.77C828.29,-1281.47 804.21,-1205.5 791.5,-1165.4"/>
<polygon fill="black" stroke="black" points="794.81,-1164.26 788.45,-1155.79 788.14,-1166.38 794.81,-1164.26"/>
</g>
<!-- https://w3id.org/oseg/ont/otrl#ODRL2 -->
<g id="node5" class="node">
<title>https://w3id.org/oseg/ont/otrl#ODRL2</title>
<ellipse fill="none" stroke="#e377c2" cx="962.78" cy="-999.37" rx="69.09" ry="16.03"/>
<text text-anchor="middle" x="962.78" y="-995.67" font-family="Times,serif" font-size="14.00">otrl:ODRL2</text>
</g>
<!-- https://w3id.org/oseg/ont/otrl#ODRL2&#45;&gt;https://w3id.org/oseg/ont/otrl#ODRL -->
<g id="edge42" class="edge">
<title>https://w3id.org/oseg/ont/otrl#ODRL2&#45;&gt;https://w3id.org/oseg/ont/otrl#ODRL</title>
<path fill="none" stroke="black" d="M967.22,-982.96C980.24,-934.95 1018.32,-794.45 1034.21,-735.8"/>
<polygon fill="black" stroke="black" points="1037.67,-736.41 1036.91,-725.84 1030.92,-734.58 1037.67,-736.41"/>
</g>
<!-- https://w3id.org/oseg/ont/otrl#OTRL6 -->
<g id="node6" class="node">
<title>https://w3id.org/oseg/ont/otrl#OTRL6</title>
<ellipse fill="none" stroke="#e377c2" cx="575.98" cy="-1253.15" rx="67.35" ry="16.03"/>
<text text-anchor="middle" x="575.98" y="-1249.45" font-family="Times,serif" font-size="14.00">otrl:OTRL6</text>
</g>
<!-- https://w3id.org/oseg/ont/otrl#OTRL6&#45;&gt;https://w3id.org/oseg/ont/otrl#OTRL -->
<g id="edge31" class="edge">
<title>https://w3id.org/oseg/ont/otrl#OTRL6&#45;&gt;https://w3id.org/oseg/ont/otrl#OTRL</title>
<path fill="none" stroke="black" d="M603.51,-1238.06C640.58,-1217.73 706.59,-1181.54 747.48,-1159.13"/>
<polygon fill="black" stroke="black" points="749.22,-1162.16 756.3,-1154.29 745.85,-1156.03 749.22,-1162.16"/>
</g>
<!-- https://w3id.org/oseg/ont/otrl#ODRL3 -->
<g id="node7" class="node">
<title>https://w3id.org/oseg/ont/otrl#ODRL3</title>
<ellipse fill="none" stroke="#e377c2" cx="1274.85" cy="-659.58" rx="69.09" ry="16.03"/>
<text text-anchor="middle" x="1274.85" y="-655.88" font-family="Times,serif" font-size="14.00">otrl:ODRL3</text>
</g>
<!-- https://w3id.org/oseg/ont/otrl#ODRL3&#45;&gt;https://w3id.org/oseg/ont/otrl#ODRL -->
<g id="edge37" class="edge">
<title>https://w3id.org/oseg/ont/otrl#ODRL3&#45;&gt;https://w3id.org/oseg/ont/otrl#ODRL</title>
<path fill="none" stroke="black" d="M1223.6,-670.56C1187.11,-678.38 1138.01,-688.9 1099.96,-697.05"/>
<polygon fill="black" stroke="black" points="1099.09,-693.66 1090.04,-699.17 1100.56,-700.5 1099.09,-693.66"/>
</g>
<!-- https://w3id.org/oseg/ont/otrl#OTRL2 -->
<g id="node8" class="node">
<title>https://w3id.org/oseg/ont/otrl#OTRL2</title>
<ellipse fill="none" stroke="#e377c2" cx="993.06" cy="-1282.89" rx="67.35" ry="16.03"/>
<text text-anchor="middle" x="993.06" y="-1279.19" font-family="Times,serif" font-size="14.00">otrl:OTRL2</text>
</g>
<!-- https://w3id.org/oseg/ont/otrl#OTRL2&#45;&gt;https://w3id.org/oseg/ont/otrl#OTRL -->
<g id="edge45" class="edge">
<title>https://w3id.org/oseg/ont/otrl#OTRL2&#45;&gt;https://w3id.org/oseg/ont/otrl#OTRL</title>
<path fill="none" stroke="black" d="M970.61,-1267.54C932.84,-1241.72 856.53,-1189.56 813.89,-1160.41"/>
<polygon fill="black" stroke="black" points="815.81,-1157.48 805.57,-1154.73 811.86,-1163.26 815.81,-1157.48"/>
</g>
<!-- https://w3id.org/oseg/ont/otrl#ODRL1 -->
<g id="node9" class="node">
<title>https://w3id.org/oseg/ont/otrl#ODRL1</title>
<ellipse fill="none" stroke="#e377c2" cx="863.46" cy="-709.37" rx="69.09" ry="16.03"/>
<text text-anchor="middle" x="863.46" y="-705.67" font-family="Times,serif" font-size="14.00">otrl:ODRL1</text>
</g>
<!-- https://w3id.org/oseg/ont/otrl#ODRL1&#45;&gt;https://w3id.org/oseg/ont/otrl#ODRL -->
<g id="edge30" class="edge">
<title>https://w3id.org/oseg/ont/otrl#ODRL1&#45;&gt;https://w3id.org/oseg/ont/otrl#ODRL</title>
<path fill="none" stroke="black" d="M932.99,-709.46C944.52,-709.48 956.5,-709.5 968.12,-709.51"/>
<polygon fill="black" stroke="black" points="968.21,-713.01 978.21,-709.53 968.22,-706.01 968.21,-713.01"/>
</g>
<!-- https://w3id.org/oseg/ont/otrl#OTRL1 -->
<g id="node10" class="node">
<title>https://w3id.org/oseg/ont/otrl#OTRL1</title>
<ellipse fill="none" stroke="#e377c2" cx="678.78" cy="-1361.59" rx="67.35" ry="16.03"/>
<text text-anchor="middle" x="678.78" y="-1357.89" font-family="Times,serif" font-size="14.00">otrl:OTRL1</text>
</g>
<!-- https://w3id.org/oseg/ont/otrl#OTRL1&#45;&gt;https://w3id.org/oseg/ont/otrl#OTRL -->
<g id="edge46" class="edge">
<title>https://w3id.org/oseg/ont/otrl#OTRL1&#45;&gt;https://w3id.org/oseg/ont/otrl#OTRL</title>
<path fill="none" stroke="black" d="M686.47,-1345.26C704.47,-1307 749.5,-1211.3 771.21,-1165.16"/>
<polygon fill="black" stroke="black" points="774.5,-1166.39 775.59,-1155.85 768.17,-1163.41 774.5,-1166.39"/>
</g>
<!-- https://w3id.org/oseg/ont/otrl#ODRL4 -->
<g id="node11" class="node">
<title>https://w3id.org/oseg/ont/otrl#ODRL4</title>
<ellipse fill="none" stroke="#e377c2" cx="1188.34" cy="-504.71" rx="69.09" ry="16.03"/>
<text text-anchor="middle" x="1188.34" y="-501.01" font-family="Times,serif" font-size="14.00">otrl:ODRL4</text>
</g>
<!-- https://w3id.org/oseg/ont/otrl#ODRL4&#45;&gt;https://w3id.org/oseg/ont/otrl#ODRL -->
<g id="edge26" class="edge">
<title>https://w3id.org/oseg/ont/otrl#ODRL4&#45;&gt;https://w3id.org/oseg/ont/otrl#ODRL</title>
<path fill="none" stroke="black" d="M1176.8,-520.79C1151.14,-556.55 1089.22,-642.85 1058.78,-685.26"/>
<polygon fill="black" stroke="black" points="1055.78,-683.45 1052.79,-693.61 1061.47,-687.53 1055.78,-683.45"/>
</g>
<!-- https://w3id.org/oseg/ont/otrl#OTRL5 -->
<g id="node13" class="node">
<title>https://w3id.org/oseg/ont/otrl#OTRL5</title>
<ellipse fill="none" stroke="#e377c2" cx="1035.28" cy="-1198.69" rx="67.35" ry="16.03"/>
<text text-anchor="middle" x="1035.28" y="-1194.99" font-family="Times,serif" font-size="14.00">otrl:OTRL5</text>
</g>
<!-- https://w3id.org/oseg/ont/otrl#OTRL5&#45;&gt;https://w3id.org/oseg/ont/otrl#OTRL -->
<g id="edge17" class="edge">
<title>https://w3id.org/oseg/ont/otrl#OTRL5&#45;&gt;https://w3id.org/oseg/ont/otrl#OTRL</title>
<path fill="none" stroke="black" d="M986.99,-1187.34C944.74,-1177.42 883.37,-1163 839.04,-1152.59"/>
<polygon fill="black" stroke="black" points="839.82,-1149.18 829.29,-1150.3 838.22,-1155.99 839.82,-1149.18"/>
</g>
<!-- https://w3id.org/oseg/ont/otrl#goal -->
<g id="node14" class="node">
<title>https://w3id.org/oseg/ont/otrl#goal</title>
<ellipse fill="none" stroke="#e377c2" cx="938.82" cy="-925.1" rx="54.39" ry="16.03"/>
<text text-anchor="middle" x="938.82" y="-921.4" font-family="Times,serif" font-size="14.00">otrl:goal</text>
</g>
<!-- https://w3id.org/oseg/ont/otrl#goal&#45;&gt;https://w3id.org/oseg/ont/otrl#OTRL -->
<g id="edge15" class="edge">
<title>https://w3id.org/oseg/ont/otrl#goal&#45;&gt;https://w3id.org/oseg/ont/otrl#OTRL</title>
<path fill="none" stroke="black" d="M927.13,-941.22C900.04,-978.56 832.85,-1071.17 800.82,-1115.33"/>
<polygon fill="black" stroke="black" points="797.94,-1113.34 794.9,-1123.49 803.61,-1117.45 797.94,-1113.34"/>
<text text-anchor="middle" x="777.97" y="-1017.07" font-family="Times,serif" font-size="14.00">schema:domainIncludes</text>
</g>
<!-- https://w3id.org/oseg/ont/otrl#goal&#45;&gt;https://w3id.org/oseg/ont/otrl#ODRL -->
<g id="edge8" class="edge">
<title>https://w3id.org/oseg/ont/otrl#goal&#45;&gt;https://w3id.org/oseg/ont/otrl#ODRL</title>
<path fill="none" stroke="black" d="M946.53,-908.9C964.22,-871.7 1007.88,-779.9 1029.2,-735.07"/>
<polygon fill="black" stroke="black" points="1032.38,-736.53 1033.52,-726 1026.06,-733.53 1032.38,-736.53"/>
<text text-anchor="middle" x="901.86" y="-825.79" font-family="Times,serif" font-size="14.00">schema:domainIncludes</text>
</g>
<!-- http://schema.org/Text -->
<g id="node17" class="node">
<title>http://schema.org/Text</title>
<ellipse fill="none" stroke="#e377c2" cx="1101.77" cy="-839.12" rx="74.91" ry="16.03"/>
<text text-anchor="middle" x="1101.77" y="-835.42" font-family="Times,serif" font-size="14.00">schema:Text</text>
</g>
<!-- https://w3id.org/oseg/ont/otrl#goal&#45;&gt;http://schema.org/Text -->
<g id="edge51" class="edge">
<title>https://w3id.org/oseg/ont/otrl#goal&#45;&gt;http://schema.org/Text</title>
<path fill="none" stroke="black" d="M965.73,-910.9C992.6,-896.72 1034.12,-874.81 1064.23,-858.93"/>
<polygon fill="black" stroke="black" points="1065.97,-861.97 1073.18,-854.21 1062.7,-855.78 1065.97,-861.97"/>
<text text-anchor="middle" x="993.98" y="-888.72" font-family="Times,serif" font-size="14.00">range</text>
</g>
<!-- https://orcid.org/0000&#45;0002&#45;1611&#45;7129 -->
<g id="node15" class="node">
<title>https://orcid.org/0000&#45;0002&#45;1611&#45;7129</title>
<ellipse fill="none" stroke="#e377c2" cx="1725.16" cy="-1047.4" rx="113.69" ry="16.03"/>
<text text-anchor="middle" x="1725.16" y="-1043.7" font-family="Times,serif" font-size="14.00">orcid:0000&#45;0002&#45;1...</text>
</g>
<!-- https://www.gnu.org/licenses/gpl&#45;3.0.txt -->
<g id="node16" class="node">
<title>https://www.gnu.org/licenses/gpl&#45;3.0.txt</title>
<ellipse fill="none" stroke="#e377c2" cx="1940.07" cy="-1078.32" rx="85.62" ry="16.03"/>
<text text-anchor="middle" x="1940.07" y="-1074.62" font-family="Times,serif" font-size="14.00">ns1:gpl&#45;3.0.txt</text>
</g>
<!-- https://w3id.org/oseg/ont/otrl#exitCriteria -->
<g id="node18" class="node">
<title>https://w3id.org/oseg/ont/otrl#exitCriteria</title>
<ellipse fill="none" stroke="#e377c2" cx="858.93" cy="-880.81" rx="91.43" ry="16.03"/>
<text text-anchor="middle" x="858.93" y="-877.11" font-family="Times,serif" font-size="14.00">otrl:exitCriteria</text>
</g>
<!-- https://w3id.org/oseg/ont/otrl#exitCriteria&#45;&gt;https://w3id.org/oseg/ont/otrl#OTRL -->
<g id="edge32" class="edge">
<title>https://w3id.org/oseg/ont/otrl#exitCriteria&#45;&gt;https://w3id.org/oseg/ont/otrl#OTRL</title>
<path fill="none" stroke="black" d="M854.09,-897.38C841.28,-941.19 806.45,-1060.29 790.93,-1113.36"/>
<polygon fill="black" stroke="black" points="787.54,-1112.48 788.09,-1123.06 794.26,-1114.44 787.54,-1112.48"/>
<text text-anchor="middle" x="736.51" y="-994.17" font-family="Times,serif" font-size="14.00">schema:domainIncludes</text>
</g>
<!-- https://w3id.org/oseg/ont/otrl#exitCriteria&#45;&gt;https://w3id.org/oseg/ont/otrl#ODRL -->
<g id="edge18" class="edge">
<title>https://w3id.org/oseg/ont/otrl#exitCriteria&#45;&gt;https://w3id.org/oseg/ont/otrl#ODRL</title>
<path fill="none" stroke="black" d="M876.09,-864.7C908.71,-834.09 979.73,-767.41 1017.15,-732.3"/>
<polygon fill="black" stroke="black" points="1019.7,-734.7 1024.59,-725.31 1014.91,-729.6 1019.7,-734.7"/>
<text text-anchor="middle" x="860.62" y="-802.3" font-family="Times,serif" font-size="14.00">schema:domainIncludes</text>
</g>
<!-- https://w3id.org/oseg/ont/otrl#exitCriteria&#45;&gt;http://schema.org/Text -->
<g id="edge9" class="edge">
<title>https://w3id.org/oseg/ont/otrl#exitCriteria&#45;&gt;http://schema.org/Text</title>
<path fill="none" stroke="black" d="M924.65,-869.53C958,-863.8 998.51,-856.85 1032.37,-851.03"/>
<polygon fill="black" stroke="black" points="1033.38,-854.41 1042.64,-849.27 1032.2,-847.51 1033.38,-854.41"/>
<text text-anchor="middle" x="957.51" y="-849.08" font-family="Times,serif" font-size="14.00">range</text>
</g>
<!-- https://w3id.org/oseg/ont/1.1.0/otrl -->
<g id="node19" class="node">
<title>https://w3id.org/oseg/ont/1.1.0/otrl</title>
<ellipse fill="none" stroke="#e377c2" cx="1769.24" cy="-960.4" rx="50.82" ry="16.03"/>
<text text-anchor="middle" x="1769.24" y="-956.7" font-family="Times,serif" font-size="14.00">ns2:otrl</text>
</g>
<!-- https://w3id.org/oseg/ont/otrl#Odrl4 -->
<g id="node20" class="node">
<title>https://w3id.org/oseg/ont/otrl#Odrl4</title>
<ellipse fill="none" stroke="#e377c2" cx="1341.34" cy="-300.34" rx="61.54" ry="16.03"/>
<text text-anchor="middle" x="1341.34" y="-296.64" font-family="Times,serif" font-size="14.00">otrl:Odrl4</text>
</g>
<!-- https://w3id.org/oseg/ont/otrl#Odrl4&#45;&gt;https://w3id.org/oseg/ont/otrl#ODRL4 -->
<g id="edge6" class="edge">
<title>https://w3id.org/oseg/ont/otrl#Odrl4&#45;&gt;https://w3id.org/oseg/ont/otrl#ODRL4</title>
<path fill="none" stroke="black" d="M1324.52,-316.05C1293.73,-351.38 1229.54,-436.92 1201.58,-479.65"/>
<polygon fill="black" stroke="black" points="1198.48,-478.02 1196.04,-488.33 1204.38,-481.79 1198.48,-478.02"/>
<text text-anchor="middle" x="1220.55" y="-401.65" font-family="Times,serif" font-size="14.00">owl:sameAs</text>
</g>
<!-- https://w3id.org/oseg/ont/otrl#Odrl4&#45;&gt;https://w3id.org/oseg/ont/otrl#ODRL4 -->
<g id="edge38" class="edge">
<title>https://w3id.org/oseg/ont/otrl#Odrl4&#45;&gt;https://w3id.org/oseg/ont/otrl#ODRL4</title>
<path fill="none" stroke="black" d="M1333.73,-316.57C1311.48,-352.55 1247.37,-438.8 1212.08,-480.89"/>
<polygon fill="black" stroke="black" points="1209.25,-478.81 1205.42,-488.69 1214.57,-483.36 1209.25,-478.81"/>
<text text-anchor="middle" x="1352.9" y="-402.53" font-family="Times,serif" font-size="14.00">schema:supersededBy</text>
</g>
<!-- https://w3id.org/oseg/ont/otrl -->
<g id="node21" class="node">
<title>https://w3id.org/oseg/ont/otrl</title>
<ellipse fill="none" stroke="#e377c2" cx="1770.18" cy="-1001.01" rx="50.82" ry="16.03"/>
<text text-anchor="middle" x="1770.18" y="-997.31" font-family="Times,serif" font-size="14.00">ns3:otrl</text>
</g>
<!-- https://w3id.org/oseg/ont/otrl&#45;&gt;https://orcid.org/0000&#45;0002&#45;1611&#45;7129 -->
<g id="edge5" class="edge">
<title>https://w3id.org/oseg/ont/otrl&#45;&gt;https://orcid.org/0000&#45;0002&#45;1611&#45;7129</title>
<path fill="none" stroke="black" d="M1754.94,-1016.72C1752.69,-1019.03 1750.34,-1021.46 1747.98,-1023.89"/>
<polygon fill="black" stroke="black" points="1745.45,-1021.47 1741,-1031.08 1750.48,-1026.34 1745.45,-1021.47"/>
<text text-anchor="middle" x="1808.96" y="-1024.1" font-family="Times,serif" font-size="14.00">dcterms:creator</text>
</g>
<!-- https://w3id.org/oseg/ont/otrl&#45;&gt;https://www.gnu.org/licenses/gpl&#45;3.0.txt -->
<g id="edge7" class="edge">
<title>https://w3id.org/oseg/ont/otrl&#45;&gt;https://www.gnu.org/licenses/gpl&#45;3.0.txt</title>
<path fill="none" stroke="black" d="M1791.45,-1015.98C1814.97,-1028.81 1853.72,-1046.97 1885.76,-1060.5"/>
<polygon fill="black" stroke="black" points="1884.46,-1063.74 1895.03,-1064.35 1887.15,-1057.28 1884.46,-1063.74"/>
<text text-anchor="middle" x="1895.11" y="-1042.04" font-family="Times,serif" font-size="14.00">dcterms:license</text>
</g>
<!-- https://w3id.org/oseg/ont/otrl&#45;&gt;https://www.gnu.org/licenses/gpl&#45;3.0.txt -->
<g id="edge24" class="edge">
<title>https://w3id.org/oseg/ont/otrl&#45;&gt;https://www.gnu.org/licenses/gpl&#45;3.0.txt</title>
<path fill="none" stroke="black" d="M1808.12,-1012.11C1838.13,-1024.08 1879.53,-1042.94 1907.93,-1057.6"/>
<polygon fill="black" stroke="black" points="1906.54,-1060.82 1917.02,-1062.39 1909.81,-1054.63 1906.54,-1060.82"/>
<text text-anchor="middle" x="1893.02" y="-1023.65" font-family="Times,serif" font-size="14.00">cc:license</text>
</g>
<!-- https://w3id.org/oseg/ont/otrl&#45;&gt;https://w3id.org/oseg/ont/1.1.0/otrl -->
<g id="edge13" class="edge">
<title>https://w3id.org/oseg/ont/otrl&#45;&gt;https://w3id.org/oseg/ont/1.1.0/otrl</title>
<path fill="none" stroke="black" d="M1769.8,-984.49C1769.79,-984.33 1769.79,-984.17 1769.79,-984.01"/>
<polygon fill="black" stroke="black" points="1773.35,-986.69 1769.62,-976.77 1766.35,-986.85 1773.35,-986.69"/>
<text text-anchor="middle" x="1718.29" y="-973.05" font-family="Times,serif" font-size="14.00">owl:versionIRI</text>
</g>
<!-- http://id.loc.gov/vocabulary/iso639&#45;1/en -->
<g id="node22" class="node">
<title>http://id.loc.gov/vocabulary/iso639&#45;1/en</title>
<ellipse fill="none" stroke="#e377c2" cx="1859.22" cy="-862.25" rx="45.01" ry="16.03"/>
<text text-anchor="middle" x="1859.22" y="-858.55" font-family="Times,serif" font-size="14.00">ns4:en</text>
</g>
<!-- https://w3id.org/oseg/ont/otrl&#45;&gt;http://id.loc.gov/vocabulary/iso639&#45;1/en -->
<g id="edge33" class="edge">
<title>https://w3id.org/oseg/ont/otrl&#45;&gt;http://id.loc.gov/vocabulary/iso639&#45;1/en</title>
<path fill="none" stroke="black" d="M1780.57,-984.82C1796.05,-960.7 1825.29,-915.12 1843.43,-886.86"/>
<polygon fill="black" stroke="black" points="1846.44,-888.65 1848.9,-878.34 1840.55,-884.87 1846.44,-888.65"/>
<text text-anchor="middle" x="1747.5" y="-924.64" font-family="Times,serif" font-size="14.00">dcterms:language</text>
</g>
<!-- https://orcid.org/0009&#45;0004&#45;3559&#45;6542 -->
<g id="node23" class="node">
<title>https://orcid.org/0009&#45;0004&#45;3559&#45;6542</title>
<ellipse fill="none" stroke="#e377c2" cx="1524.3" cy="-1003.02" rx="113.69" ry="16.03"/>
<text text-anchor="middle" x="1524.3" y="-999.32" font-family="Times,serif" font-size="14.00">orcid:0009&#45;0004&#45;3...</text>
</g>
<!-- https://w3id.org/oseg/ont/otrl&#45;&gt;https://orcid.org/0009&#45;0004&#45;3559&#45;6542 -->
<g id="edge41" class="edge">
<title>https://w3id.org/oseg/ont/otrl&#45;&gt;https://orcid.org/0009&#45;0004&#45;3559&#45;6542</title>
<path fill="none" stroke="black" d="M1719.23,-1001.43C1698.37,-1001.6 1673.24,-1001.8 1648.06,-1002.01"/>
<polygon fill="black" stroke="black" points="1648.01,-998.51 1638.04,-1002.09 1648.07,-1005.51 1648.01,-998.51"/>
<text text-anchor="middle" x="1654.89" y="-990.52" font-family="Times,serif" font-size="14.00">dcterms:creator</text>
</g>
<!-- https://w3id.org/oseg/ont/otrl#Otrl6 -->
<g id="node24" class="node">
<title>https://w3id.org/oseg/ont/otrl#Otrl6</title>
<ellipse fill="none" stroke="black" cx="241.77" cy="-1420.1" rx="194.41" ry="16.03"/>
<text text-anchor="middle" x="241.77" y="-1416.4" font-family="Times,serif" font-size="14.00">https://w3id.org/oseg/ont/otrl#Otrl6</text>
</g>
<!-- https://w3id.org/oseg/ont/otrl#Otrl6&#45;&gt;https://w3id.org/oseg/ont/otrl#OTRL6 -->
<g id="edge2" class="edge">
<title>https://w3id.org/oseg/ont/otrl#Otrl6&#45;&gt;https://w3id.org/oseg/ont/otrl#OTRL6</title>
<path fill="none" stroke="black" d="M283.79,-1404.22C351.72,-1373.65 484.05,-1307.43 544.52,-1273.62"/>
<polygon fill="black" stroke="black" points="546.26,-1276.65 553.24,-1268.68 542.81,-1270.56 546.26,-1276.65"/>
<text text-anchor="middle" x="334.16" y="-1342.72" font-family="Times,serif" font-size="14.00">schema:supersededBy</text>
</g>
<!-- https://w3id.org/oseg/ont/otrl#Otrl6&#45;&gt;https://w3id.org/oseg/ont/otrl#OTRL6 -->
<g id="edge28" class="edge">
<title>https://w3id.org/oseg/ont/otrl#Otrl6&#45;&gt;https://w3id.org/oseg/ont/otrl#OTRL6</title>
<path fill="none" stroke="black" d="M265.74,-1403.87C320.9,-1372.32 457.48,-1303.74 529.64,-1270.99"/>
<polygon fill="black" stroke="black" points="531.27,-1274.09 538.95,-1266.8 528.4,-1267.71 531.27,-1274.09"/>
<text text-anchor="middle" x="355.19" y="-1326.23" font-family="Times,serif" font-size="14.00">owl:sameAs</text>
</g>
<!-- https://w3id.org/oseg/ont/otrl#Odrl -->
<g id="node25" class="node">
<title>https://w3id.org/oseg/ont/otrl#Odrl</title>
<ellipse fill="none" stroke="black" cx="759.38" cy="-452.63" rx="190.42" ry="16.03"/>
<text text-anchor="middle" x="759.38" y="-448.93" font-family="Times,serif" font-size="14.00">https://w3id.org/oseg/ont/otrl#Odrl</text>
</g>
<!-- https://w3id.org/oseg/ont/otrl#Odrl&#45;&gt;https://w3id.org/oseg/ont/otrl#ODRL -->
<g id="edge3" class="edge">
<title>https://w3id.org/oseg/ont/otrl#Odrl&#45;&gt;https://w3id.org/oseg/ont/otrl#ODRL</title>
<path fill="none" stroke="black" d="M772.34,-468.85C814.86,-513.45 950.13,-637.17 1011.1,-687.76"/>
<polygon fill="black" stroke="black" points="1008.89,-690.48 1018.84,-694.12 1013.33,-685.07 1008.89,-690.48"/>
<text text-anchor="middle" x="811.72" y="-582.11" font-family="Times,serif" font-size="14.00">schema:supersededBy</text>
</g>
<!-- https://w3id.org/oseg/ont/otrl#Odrl&#45;&gt;https://w3id.org/oseg/ont/otrl#ODRL -->
<g id="edge29" class="edge">
<title>https://w3id.org/oseg/ont/otrl#Odrl&#45;&gt;https://w3id.org/oseg/ont/otrl#ODRL</title>
<path fill="none" stroke="black" d="M783.11,-469.15C837.65,-513.54 970.74,-634.81 1021.39,-686.22"/>
<polygon fill="black" stroke="black" points="1019.04,-688.82 1028.52,-693.56 1024.06,-683.95 1019.04,-688.82"/>
<text text-anchor="middle" x="859.75" y="-566.49" font-family="Times,serif" font-size="14.00">owl:sameAs</text>
</g>
<!-- https://w3id.org/oseg/ont/otrl#Otrl1 -->
<g id="node26" class="node">
<title>https://w3id.org/oseg/ont/otrl#Otrl1</title>
<ellipse fill="none" stroke="black" cx="524.53" cy="-1695.77" rx="194.41" ry="16.03"/>
<text text-anchor="middle" x="524.53" y="-1692.07" font-family="Times,serif" font-size="14.00">https://w3id.org/oseg/ont/otrl#Otrl1</text>
</g>
<!-- https://w3id.org/oseg/ont/otrl#Otrl1&#45;&gt;https://w3id.org/oseg/ont/otrl#OTRL1 -->
<g id="edge4" class="edge">
<title>https://w3id.org/oseg/ont/otrl#Otrl1&#45;&gt;https://w3id.org/oseg/ont/otrl#OTRL1</title>
<path fill="none" stroke="black" d="M535.79,-1679.17C565.7,-1625.07 644.93,-1453.79 670.8,-1387.82"/>
<polygon fill="black" stroke="black" points="674.19,-1388.76 674.48,-1378.17 667.64,-1386.27 674.19,-1388.76"/>
<text text-anchor="middle" x="560.79" y="-1537.29" font-family="Times,serif" font-size="14.00">owl:sameAs</text>
</g>
<!-- https://w3id.org/oseg/ont/otrl#Otrl1&#45;&gt;https://w3id.org/oseg/ont/otrl#OTRL1 -->
<g id="edge36" class="edge">
<title>https://w3id.org/oseg/ont/otrl#Otrl1&#45;&gt;https://w3id.org/oseg/ont/otrl#OTRL1</title>
<path fill="none" stroke="black" d="M528.81,-1679.27C548.73,-1624.99 628.29,-1451.95 662.9,-1386.74"/>
<polygon fill="black" stroke="black" points="665.99,-1388.39 667.67,-1377.93 659.83,-1385.06 665.99,-1388.39"/>
<text text-anchor="middle" x="515.85" y="-1521.81" font-family="Times,serif" font-size="14.00">schema:supersededBy</text>
</g>
<!-- https://w3id.org/oseg/ont/otrl#Otrl -->
<g id="node27" class="node">
<title>https://w3id.org/oseg/ont/otrl#Otrl</title>
<ellipse fill="none" stroke="black" cx="430.97" cy="-1165.28" rx="188.18" ry="16.03"/>
<text text-anchor="middle" x="430.97" y="-1161.58" font-family="Times,serif" font-size="14.00">https://w3id.org/oseg/ont/otrl#Otrl</text>
</g>
<!-- https://w3id.org/oseg/ont/otrl#Otrl&#45;&gt;https://w3id.org/oseg/ont/otrl#OTRL -->
<g id="edge10" class="edge">
<title>https://w3id.org/oseg/ont/otrl#Otrl&#45;&gt;https://w3id.org/oseg/ont/otrl#OTRL</title>
<path fill="none" stroke="black" d="M605.81,-1159.25C647.39,-1156.22 689.06,-1152.69 721.56,-1149.32"/>
<polygon fill="black" stroke="black" points="722.21,-1152.77 731.78,-1148.23 721.47,-1145.81 722.21,-1152.77"/>
<text text-anchor="middle" x="663.69" y="-1143.08" font-family="Times,serif" font-size="14.00">owl:sameAs</text>
</g>
<!-- https://w3id.org/oseg/ont/otrl#Otrl&#45;&gt;https://w3id.org/oseg/ont/otrl#OTRL -->
<g id="edge40" class="edge">
<title>https://w3id.org/oseg/ont/otrl#Otrl&#45;&gt;https://w3id.org/oseg/ont/otrl#OTRL</title>
<path fill="none" stroke="black" d="M532.89,-1151.61C590.44,-1146.48 660.93,-1141.54 712.44,-1139.14"/>
<polygon fill="black" stroke="black" points="712.64,-1142.63 722.48,-1138.69 712.33,-1135.64 712.64,-1142.63"/>
<text text-anchor="middle" x="542.67" y="-1134.18" font-family="Times,serif" font-size="14.00">schema:supersededBy</text>
</g>
<!-- https://w3id.org/oseg/ont/otrl#Otrl3 -->
<g id="node28" class="node">
<title>https://w3id.org/oseg/ont/otrl#Otrl3</title>
<ellipse fill="none" stroke="black" cx="194.95" cy="-949.28" rx="194.41" ry="16.03"/>
<text text-anchor="middle" x="194.95" y="-945.58" font-family="Times,serif" font-size="14.00">https://w3id.org/oseg/ont/otrl#Otrl3</text>
</g>
<!-- https://w3id.org/oseg/ont/otrl#Otrl3&#45;&gt;https://w3id.org/oseg/ont/otrl#OTRL3 -->
<g id="edge11" class="edge">
<title>https://w3id.org/oseg/ont/otrl#Otrl3&#45;&gt;https://w3id.org/oseg/ont/otrl#OTRL3</title>
<path fill="none" stroke="black" d="M232.76,-965.25C295.17,-987.04 420.27,-1025 495.49,-1045.21"/>
<polygon fill="black" stroke="black" points="494.74,-1048.63 505.31,-1047.82 496.54,-1041.87 494.74,-1048.63"/>
<text text-anchor="middle" x="321.62" y="-1009.03" font-family="Times,serif" font-size="14.00">owl:sameAs</text>
</g>
<!-- https://w3id.org/oseg/ont/otrl#Otrl3&#45;&gt;https://w3id.org/oseg/ont/otrl#OTRL3 -->
<g id="edge27" class="edge">
<title>https://w3id.org/oseg/ont/otrl#Otrl3&#45;&gt;https://w3id.org/oseg/ont/otrl#OTRL3</title>
<path fill="none" stroke="black" d="M264.15,-964.49C338,-984.61 452.63,-1019.42 514.25,-1040.66"/>
<polygon fill="black" stroke="black" points="513.43,-1044.09 524.03,-1044.08 515.74,-1037.48 513.43,-1044.09"/>
<text text-anchor="middle" x="309.2" y="-991.38" font-family="Times,serif" font-size="14.00">schema:supersededBy</text>
</g>
<!-- https://w3id.org/oseg/ont/otrl#Odrl3Star -->
<g id="node29" class="node">
<title>https://w3id.org/oseg/ont/otrl#Odrl3Star</title>
<ellipse fill="none" stroke="black" cx="1035.05" cy="-16.18" rx="218.49" ry="16.03"/>
<text text-anchor="middle" x="1035.05" y="-12.48" font-family="Times,serif" font-size="14.00">https://w3id.org/oseg/ont/otrl#Odrl3Star</text>
</g>
<!-- https://w3id.org/oseg/ont/otrl#Odrl3Star&#45;&gt;https://w3id.org/oseg/ont/otrl#ODRL3Star -->
<g id="edge12" class="edge">
<title>https://w3id.org/oseg/ont/otrl#Odrl3Star&#45;&gt;https://w3id.org/oseg/ont/otrl#ODRL3Star</title>
<path fill="none" stroke="black" d="M1033.1,-32.66C1031.55,-96.43 1043.76,-327.33 1052.53,-406.17"/>
<polygon fill="black" stroke="black" points="1049.07,-406.75 1053.74,-416.26 1056.02,-405.91 1049.07,-406.75"/>
<text text-anchor="middle" x="962.81" y="-223.22" font-family="Times,serif" font-size="14.00">schema:supersededBy</text>
</g>
<!-- https://w3id.org/oseg/ont/otrl#Odrl3Star&#45;&gt;https://w3id.org/oseg/ont/otrl#ODRL3Star -->
<g id="edge19" class="edge">
<title>https://w3id.org/oseg/ont/otrl#Odrl3Star&#45;&gt;https://w3id.org/oseg/ont/otrl#ODRL3Star</title>
<path fill="none" stroke="black" d="M1038.79,-32.61C1047.2,-96.37 1059.88,-327.73 1059.57,-406.38"/>
<polygon fill="black" stroke="black" points="1056.07,-406.39 1059.44,-416.44 1063.07,-406.48 1056.07,-406.39"/>
<text text-anchor="middle" x="1091.68" y="-223.3" font-family="Times,serif" font-size="14.00">owl:sameAs</text>
</g>
<!-- https://w3id.org/oseg/ont/otrl#Otrl2 -->
<g id="node30" class="node">
<title>https://w3id.org/oseg/ont/otrl#Otrl2</title>
<ellipse fill="none" stroke="black" cx="1209.5" cy="-1579.55" rx="194.41" ry="16.03"/>
<text text-anchor="middle" x="1209.5" y="-1575.85" font-family="Times,serif" font-size="14.00">https://w3id.org/oseg/ont/otrl#Otrl2</text>
</g>
<!-- https://w3id.org/oseg/ont/otrl#Otrl2&#45;&gt;https://w3id.org/oseg/ont/otrl#OTRL2 -->
<g id="edge14" class="edge">
<title>https://w3id.org/oseg/ont/otrl#Otrl2&#45;&gt;https://w3id.org/oseg/ont/otrl#OTRL2</title>
<path fill="none" stroke="black" d="M1201.31,-1562.98C1170.54,-1513.21 1063,-1365.3 1015.6,-1306.91"/>
<polygon fill="black" stroke="black" points="1018.12,-1304.46 1009.06,-1298.97 1012.72,-1308.91 1018.12,-1304.46"/>
<text text-anchor="middle" x="1065.96" y="-1423.75" font-family="Times,serif" font-size="14.00">owl:sameAs</text>
</g>
<!-- https://w3id.org/oseg/ont/otrl#Otrl2&#45;&gt;https://w3id.org/oseg/ont/otrl#OTRL2 -->
<g id="edge43" class="edge">
<title>https://w3id.org/oseg/ont/otrl#Otrl2&#45;&gt;https://w3id.org/oseg/ont/otrl#OTRL2</title>
<path fill="none" stroke="black" d="M1193.15,-1563.05C1151.86,-1513.65 1044.87,-1367.19 1006.68,-1308.03"/>
<polygon fill="black" stroke="black" points="1009.47,-1305.89 1001.16,-1299.31 1003.55,-1309.63 1009.47,-1305.89"/>
<text text-anchor="middle" x="1019.91" y="-1439.34" font-family="Times,serif" font-size="14.00">schema:supersededBy</text>
</g>
<!-- https://w3id.org/oseg/ont/otrl#Odrl2 -->
<g id="node31" class="node">
<title>https://w3id.org/oseg/ont/otrl#Odrl2</title>
<ellipse fill="none" stroke="black" cx="940.61" cy="-1053.46" rx="196.65" ry="16.03"/>
<text text-anchor="middle" x="940.61" y="-1049.76" font-family="Times,serif" font-size="14.00">https://w3id.org/oseg/ont/otrl#Odrl2</text>
</g>
<!-- https://w3id.org/oseg/ont/otrl#Odrl2&#45;&gt;https://w3id.org/oseg/ont/otrl#ODRL2 -->
<g id="edge20" class="edge">
<title>https://w3id.org/oseg/ont/otrl#Odrl2&#45;&gt;https://w3id.org/oseg/ont/otrl#ODRL2</title>
<path fill="none" stroke="black" d="M954.35,-1036.99C956.15,-1033.3 957.88,-1029.29 959.38,-1025.32"/>
<polygon fill="black" stroke="black" points="962.74,-1026.29 962.57,-1015.69 956.1,-1024.08 962.74,-1026.29"/>
<text text-anchor="middle" x="1036.86" y="-1019.95" font-family="Times,serif" font-size="14.00">schema:supersededBy</text>
</g>
<!-- https://w3id.org/oseg/ont/otrl#Odrl2&#45;&gt;https://w3id.org/oseg/ont/otrl#ODRL2 -->
<g id="edge35" class="edge">
<title>https://w3id.org/oseg/ont/otrl#Odrl2&#45;&gt;https://w3id.org/oseg/ont/otrl#ODRL2</title>
<path fill="none" stroke="black" d="M940.86,-1036.96C941.94,-1033.13 943.39,-1028.97 945.04,-1024.85"/>
<polygon fill="black" stroke="black" points="948.33,-1026.08 949.19,-1015.52 941.93,-1023.23 948.33,-1026.08"/>
<text text-anchor="middle" x="900.45" y="-1019.71" font-family="Times,serif" font-size="14.00">owl:sameAs</text>
</g>
<!-- https://w3id.org/oseg/ont/otrl#Odrl1 -->
<g id="node32" class="node">
<title>https://w3id.org/oseg/ont/otrl#Odrl1</title>
<ellipse fill="none" stroke="black" cx="736.82" cy="-663.76" rx="196.65" ry="16.03"/>
<text text-anchor="middle" x="736.82" y="-660.06" font-family="Times,serif" font-size="14.00">https://w3id.org/oseg/ont/otrl#Odrl1</text>
</g>
<!-- https://w3id.org/oseg/ont/otrl#Odrl1&#45;&gt;https://w3id.org/oseg/ont/otrl#ODRL1 -->
<g id="edge21" class="edge">
<title>https://w3id.org/oseg/ont/otrl#Odrl1&#45;&gt;https://w3id.org/oseg/ont/otrl#ODRL1</title>
<path fill="none" stroke="black" d="M764.54,-679.93C775.95,-684.8 789.63,-690.04 803.14,-694.79"/>
<polygon fill="black" stroke="black" points="802.31,-698.21 812.9,-698.15 804.58,-691.59 802.31,-698.21"/>
<text text-anchor="middle" x="703.84" y="-691.16" font-family="Times,serif" font-size="14.00">schema:supersededBy</text>
</g>
<!-- https://w3id.org/oseg/ont/otrl#Odrl1&#45;&gt;https://w3id.org/oseg/ont/otrl#ODRL1 -->
<g id="edge47" class="edge">
<title>https://w3id.org/oseg/ont/otrl#Odrl1&#45;&gt;https://w3id.org/oseg/ont/otrl#ODRL1</title>
<path fill="none" stroke="black" d="M799.83,-679.28C809.73,-682.81 819.63,-686.57 828.59,-690.21"/>
<polygon fill="black" stroke="black" points="827.3,-693.47 837.88,-694.11 830.01,-687.02 827.3,-693.47"/>
<text text-anchor="middle" x="856.71" y="-688.55" font-family="Times,serif" font-size="14.00">owl:sameAs</text>
</g>
<!-- https://w3id.org/oseg/ont/otrl#Odrl3 -->
<g id="node33" class="node">
<title>https://w3id.org/oseg/ont/otrl#Odrl3</title>
<ellipse fill="none" stroke="black" cx="1646.15" cy="-602.59" rx="196.65" ry="16.03"/>
<text text-anchor="middle" x="1646.15" y="-598.89" font-family="Times,serif" font-size="14.00">https://w3id.org/oseg/ont/otrl#Odrl3</text>
</g>
<!-- https://w3id.org/oseg/ont/otrl#Odrl3&#45;&gt;https://w3id.org/oseg/ont/otrl#ODRL3 -->
<g id="edge22" class="edge">
<title>https://w3id.org/oseg/ont/otrl#Odrl3&#45;&gt;https://w3id.org/oseg/ont/otrl#ODRL3</title>
<path fill="none" stroke="black" d="M1521.8,-615.2C1457.72,-624.29 1382.66,-636.25 1332.26,-645.64"/>
<polygon fill="black" stroke="black" points="1331.38,-642.25 1322.21,-647.54 1332.68,-649.12 1331.38,-642.25"/>
<text text-anchor="middle" x="1384.53" y="-619.22" font-family="Times,serif" font-size="14.00">owl:sameAs</text>
</g>
<!-- https://w3id.org/oseg/ont/otrl#Odrl3&#45;&gt;https://w3id.org/oseg/ont/otrl#ODRL3 -->
<g id="edge39" class="edge">
<title>https://w3id.org/oseg/ont/otrl#Odrl3&#45;&gt;https://w3id.org/oseg/ont/otrl#ODRL3</title>
<path fill="none" stroke="black" d="M1581,-617.96C1516.96,-629.65 1419.23,-644.73 1351.49,-653.45"/>
<polygon fill="black" stroke="black" points="1350.78,-650.01 1341.3,-654.74 1351.66,-656.95 1350.78,-650.01"/>
<text text-anchor="middle" x="1546.24" y="-639.5" font-family="Times,serif" font-size="14.00">schema:supersededBy</text>
</g>
<!-- https://w3id.org/oseg/ont/otrl#Odrl5 -->
<g id="node34" class="node">
<title>https://w3id.org/oseg/ont/otrl#Odrl5</title>
<ellipse fill="none" stroke="black" cx="1562.55" cy="-28.01" rx="196.65" ry="16.03"/>
<text text-anchor="middle" x="1562.55" y="-24.31" font-family="Times,serif" font-size="14.00">https://w3id.org/oseg/ont/otrl#Odrl5</text>
</g>
<!-- https://w3id.org/oseg/ont/otrl#Odrl5&#45;&gt;https://w3id.org/oseg/ont/otrl#Odrl4 -->
<g id="edge23" class="edge">
<title>https://w3id.org/oseg/ont/otrl#Odrl5&#45;&gt;https://w3id.org/oseg/ont/otrl#Odrl4</title>
<path fill="none" stroke="black" d="M1544.52,-44.44C1501.79,-90.6 1395.65,-221.13 1356.23,-275.83"/>
<polygon fill="black" stroke="black" points="1353.2,-274.05 1350.29,-284.23 1358.92,-278.09 1353.2,-274.05"/>
<text text-anchor="middle" x="1370.38" y="-163.94" font-family="Times,serif" font-size="14.00">schema:supersededBy</text>
</g>
<!-- https://w3id.org/oseg/ont/otrl#Odrl5&#45;&gt;https://w3id.org/oseg/ont/otrl#Odrl4 -->
<g id="edge48" class="edge">
<title>https://w3id.org/oseg/ont/otrl#Odrl5&#45;&gt;https://w3id.org/oseg/ont/otrl#Odrl4</title>
<path fill="none" stroke="black" d="M1553.47,-44.3C1521.42,-90.67 1414.38,-222.95 1365.67,-277"/>
<polygon fill="black" stroke="black" points="1362.81,-274.93 1358.65,-284.68 1367.98,-279.66 1362.81,-274.93"/>
<text text-anchor="middle" x="1502.07" y="-164.45" font-family="Times,serif" font-size="14.00">owl:sameAs</text>
</g>
<!-- https://w3id.org/oseg/ont/otrl#Otrl5 -->
<g id="node35" class="node">
<title>https://w3id.org/oseg/ont/otrl#Otrl5</title>
<ellipse fill="none" stroke="black" cx="1388.62" cy="-1285.85" rx="194.41" ry="16.03"/>
<text text-anchor="middle" x="1388.62" y="-1282.15" font-family="Times,serif" font-size="14.00">https://w3id.org/oseg/ont/otrl#Otrl5</text>
</g>
<!-- https://w3id.org/oseg/ont/otrl#Otrl5&#45;&gt;https://w3id.org/oseg/ont/otrl#OTRL5 -->
<g id="edge25" class="edge">
<title>https://w3id.org/oseg/ont/otrl#Otrl5&#45;&gt;https://w3id.org/oseg/ont/otrl#OTRL5</title>
<path fill="none" stroke="black" d="M1343.92,-1269.96C1282.93,-1252.38 1173.16,-1225.07 1102.3,-1209.67"/>
<polygon fill="black" stroke="black" points="1102.65,-1206.16 1092.14,-1207.48 1101.18,-1213.01 1102.65,-1206.16"/>
<text text-anchor="middle" x="1143.11" y="-1228.61" font-family="Times,serif" font-size="14.00">schema:supersededBy</text>
</g>
<!-- https://w3id.org/oseg/ont/otrl#Otrl5&#45;&gt;https://w3id.org/oseg/ont/otrl#OTRL5 -->
<g id="edge49" class="edge">
<title>https://w3id.org/oseg/ont/otrl#Otrl5&#45;&gt;https://w3id.org/oseg/ont/otrl#OTRL5</title>
<path fill="none" stroke="black" d="M1304.83,-1271.16C1235.21,-1255.57 1138.71,-1231.41 1082.04,-1215.16"/>
<polygon fill="black" stroke="black" points="1082.86,-1211.76 1072.28,-1212.33 1080.91,-1218.48 1082.86,-1211.76"/>
<text text-anchor="middle" x="1150.94" y="-1246.96" font-family="Times,serif" font-size="14.00">owl:sameAs</text>
</g>
<!-- https://w3id.org/oseg/ont/otrl#Otrl4 -->
<g id="node36" class="node">
<title>https://w3id.org/oseg/ont/otrl#Otrl4</title>
<ellipse fill="none" stroke="black" cx="962.98" cy="-1373.28" rx="194.41" ry="16.03"/>
<text text-anchor="middle" x="962.98" y="-1369.58" font-family="Times,serif" font-size="14.00">https://w3id.org/oseg/ont/otrl#Otrl4</text>
</g>
<!-- https://w3id.org/oseg/ont/otrl#Otrl4&#45;&gt;https://w3id.org/oseg/ont/otrl#OTRL4 -->
<g id="edge44" class="edge">
<title>https://w3id.org/oseg/ont/otrl#Otrl4&#45;&gt;https://w3id.org/oseg/ont/otrl#OTRL4</title>
<path fill="none" stroke="black" d="M935.25,-1357.15C925.86,-1353.21 914.98,-1349.07 904.08,-1345.24"/>
<polygon fill="black" stroke="black" points="905.12,-1341.89 894.53,-1341.96 902.85,-1348.52 905.12,-1341.89"/>
<text text-anchor="middle" x="962.16" y="-1339.99" font-family="Times,serif" font-size="14.00">owl:sameAs</text>
</g>
<!-- https://w3id.org/oseg/ont/otrl#Otrl4&#45;&gt;https://w3id.org/oseg/ont/otrl#OTRL4 -->
<g id="edge50" class="edge">
<title>https://w3id.org/oseg/ont/otrl#Otrl4&#45;&gt;https://w3id.org/oseg/ont/otrl#OTRL4</title>
<path fill="none" stroke="black" d="M899.15,-1357.81C892.24,-1355.33 885.41,-1352.75 879.03,-1350.21"/>
<polygon fill="black" stroke="black" points="880.01,-1346.83 869.43,-1346.25 877.34,-1353.3 880.01,-1346.83"/>
<text text-anchor="middle" x="809.09" y="-1342.81" font-family="Times,serif" font-size="14.00">schema:supersededBy</text>
</g>
</g>
</svg>
