<?xml version="1.0" encoding="UTF-8" standalone="no"?>
<!DOCTYPE svg PUBLIC "-//W3C//DTD SVG 1.1//EN"
 "http://www.w3.org/Graphics/SVG/1.1/DTD/svg11.dtd">
<!-- Generated by graphviz version 2.43.0 (0)
 -->
<!-- Title: G Pages: 1 -->
<svg width="1456pt" height="1548pt"
 viewBox="0.00 0.00 1455.84 1547.78" xmlns="http://www.w3.org/2000/svg" xmlns:xlink="http://www.w3.org/1999/xlink">
<g id="graph0" class="graph" transform="scale(1 1) rotate(0) translate(4 1543.78)">
<title>G</title>
<polygon fill="white" stroke="transparent" points="-4,4 -4,-1543.78 1451.84,-1543.78 1451.84,4 -4,4"/>
<!-- http://w3id.org/oseg/ont/okh#FileUrl -->
<g id="node1" class="node">
<title>http://w3id.org/oseg/ont/okh#FileUrl</title>
<ellipse fill="none" stroke="#1f77b4" cx="466.82" cy="-1453.52" rx="68.68" ry="16.03"/>
<text text-anchor="middle" x="466.82" y="-1449.82" font-family="Times,serif" font-size="14.00">okh:FileUrl</text>
</g>
<!-- http://schema.org/URL -->
<g id="node3" class="node">
<title>http://schema.org/URL</title>
<ellipse fill="none" stroke="#e377c2" cx="892.63" cy="-1504.52" rx="75.82" ry="16.03"/>
<text text-anchor="middle" x="892.63" y="-1500.82" font-family="Times,serif" font-size="14.00">schema:URL</text>
</g>
<!-- http://w3id.org/oseg/ont/okh#FileUrl&#45;&gt;http://schema.org/URL -->
<g id="edge35" class="edge">
<title>http://w3id.org/oseg/ont/okh#FileUrl&#45;&gt;http://schema.org/URL</title>
<path fill="none" stroke="black" d="M528.54,-1460.83C604.35,-1469.95 734,-1485.55 816.13,-1495.43"/>
<polygon fill="black" stroke="black" points="815.8,-1498.92 826.15,-1496.64 816.64,-1491.97 815.8,-1498.92"/>
</g>
<!-- http://w3id.org/oseg/ont/okh#ComponentReference -->
<g id="node8" class="node">
<title>http://w3id.org/oseg/ont/okh#ComponentReference</title>
<ellipse fill="none" stroke="#e377c2" cx="892.63" cy="-1453.52" rx="123.07" ry="16.03"/>
<text text-anchor="middle" x="892.63" y="-1449.82" font-family="Times,serif" font-size="14.00">okh:ComponentRefe...</text>
</g>
<!-- http://w3id.org/oseg/ont/okh#FileUrl&#45;&gt;http://w3id.org/oseg/ont/okh#ComponentReference -->
<g id="edge6" class="edge">
<title>http://w3id.org/oseg/ont/okh#FileUrl&#45;&gt;http://w3id.org/oseg/ont/okh#ComponentReference</title>
<path fill="none" stroke="black" d="M535.44,-1453.52C595.49,-1453.52 684.96,-1453.52 759.2,-1453.52"/>
<polygon fill="black" stroke="black" points="759.57,-1457.02 769.57,-1453.52 759.57,-1450.02 759.57,-1457.02"/>
</g>
<!-- http://w3id.org/oseg/ont/okh#File -->
<g id="node13" class="node">
<title>http://w3id.org/oseg/ont/okh#File</title>
<ellipse fill="none" stroke="#e377c2" cx="1329.76" cy="-829.52" rx="52.15" ry="16.03"/>
<text text-anchor="middle" x="1329.76" y="-825.82" font-family="Times,serif" font-size="14.00">okh:File</text>
</g>
<!-- http://w3id.org/oseg/ont/okh#FileUrl&#45;&gt;http://w3id.org/oseg/ont/okh#File -->
<g id="edge5" class="edge">
<title>http://w3id.org/oseg/ont/okh#FileUrl&#45;&gt;http://w3id.org/oseg/ont/okh#File</title>
<path fill="none" stroke="black" d="M475.68,-1437.08C505.35,-1376.74 616.63,-1165.12 769.6,-1052.52 863.13,-983.66 941.04,-1053.52 1015.67,-964.52 1046.37,-927.9 998.71,-891.1 1033.67,-858.52 1050.39,-842.93 1186.01,-835.01 1267.45,-831.63"/>
<polygon fill="black" stroke="black" points="1267.74,-835.12 1277.59,-831.22 1267.46,-828.12 1267.74,-835.12"/>
<text text-anchor="middle" x="892.63" y="-1056.32" font-family="Times,serif" font-size="14.00">schema:supersededBy</text>
</g>
<!-- http://www.w3.org/2002/07/owl#DatatypeProperty -->
<g id="node2" class="node">
<title>http://www.w3.org/2002/07/owl#DatatypeProperty</title>
<ellipse fill="none" stroke="#1f77b4" cx="892.63" cy="-640.52" rx="123.07" ry="16.03"/>
<text text-anchor="middle" x="892.63" y="-636.82" font-family="Times,serif" font-size="14.00">owl:DatatypeProperty</text>
</g>
<!-- http://w3id.org/oseg/ont/okh#Reference -->
<g id="node4" class="node">
<title>http://w3id.org/oseg/ont/okh#Reference</title>
<ellipse fill="none" stroke="#e377c2" cx="1329.76" cy="-1523.52" rx="84.29" ry="16.03"/>
<text text-anchor="middle" x="1329.76" y="-1519.82" font-family="Times,serif" font-size="14.00">okh:Reference</text>
</g>
<!-- http://www.w3.org/2002/07/owl#ObjectProperty -->
<g id="node5" class="node">
<title>http://www.w3.org/2002/07/owl#ObjectProperty</title>
<ellipse fill="none" stroke="#1f77b4" cx="1329.76" cy="-713.52" rx="109.7" ry="16.03"/>
<text text-anchor="middle" x="1329.76" y="-709.82" font-family="Times,serif" font-size="14.00">owl:ObjectProperty</text>
</g>
<!-- http://www.w3.org/2004/02/skos/core#Concept -->
<g id="node6" class="node">
<title>http://www.w3.org/2004/02/skos/core#Concept</title>
<ellipse fill="none" stroke="#1f77b4" cx="1329.76" cy="-978.52" rx="78.48" ry="16.03"/>
<text text-anchor="middle" x="1329.76" y="-974.82" font-family="Times,serif" font-size="14.00">skos:Concept</text>
</g>
<!-- http://w3id.org/oseg/ont/okh#Mass -->
<g id="node7" class="node">
<title>http://w3id.org/oseg/ont/okh#Mass</title>
<ellipse fill="none" stroke="#e377c2" cx="892.63" cy="-740.52" rx="59.29" ry="16.03"/>
<text text-anchor="middle" x="892.63" y="-736.82" font-family="Times,serif" font-size="14.00">okh:Mass</text>
</g>
<!-- http://w3id.org/oseg/ont/okh#Mass&#45;&gt;http://www.w3.org/2004/02/skos/core#Concept -->
<g id="edge26" class="edge">
<title>http://w3id.org/oseg/ont/okh#Mass&#45;&gt;http://www.w3.org/2004/02/skos/core#Concept</title>
<path fill="none" stroke="black" d="M951.89,-739.28C974.82,-741.91 999.48,-749.18 1015.67,-766.52 1054.56,-808.2 993.4,-853.17 1033.67,-893.52 1059.04,-918.95 1159.21,-906.37 1193.67,-916.52 1228.65,-926.83 1266.18,-944.65 1292.78,-958.55"/>
<polygon fill="black" stroke="black" points="1291.24,-961.69 1301.72,-963.28 1294.52,-955.51 1291.24,-961.69"/>
<text text-anchor="middle" x="1113.67" y="-920.32" font-family="Times,serif" font-size="14.00">a</text>
</g>
<!-- http://w3id.org/oseg/ont/okhmetaPhysicalTag -->
<g id="node33" class="node">
<title>http://w3id.org/oseg/ont/okhmetaPhysicalTag</title>
<ellipse fill="none" stroke="#e377c2" cx="1329.76" cy="-548.52" rx="118.17" ry="16.03"/>
<text text-anchor="middle" x="1329.76" y="-544.82" font-family="Times,serif" font-size="14.00">okhmeta:PhysicalTag</text>
</g>
<!-- http://w3id.org/oseg/ont/okh#Mass&#45;&gt;http://w3id.org/oseg/ont/okhmetaPhysicalTag -->
<g id="edge37" class="edge">
<title>http://w3id.org/oseg/ont/okh#Mass&#45;&gt;http://w3id.org/oseg/ont/okhmetaPhysicalTag</title>
<path fill="none" stroke="black" d="M930.15,-727.86C958.19,-716.17 995.43,-695.96 1015.67,-665.52 1044.56,-622.08 994.11,-583.53 1033.67,-549.52 1100.73,-491.86 1211.54,-511.51 1276.6,-530.43"/>
<polygon fill="black" stroke="black" points="1275.66,-533.8 1286.24,-533.32 1277.67,-527.1 1275.66,-533.8"/>
<text text-anchor="middle" x="1113.67" y="-553.32" font-family="Times,serif" font-size="14.00">okhmeta:hasMetaTag</text>
</g>
<!-- http://w3id.org/oseg/ont/okhmetaTransportationTag -->
<g id="node39" class="node">
<title>http://w3id.org/oseg/ont/okhmetaTransportationTag</title>
<ellipse fill="none" stroke="#e377c2" cx="1329.76" cy="-662.52" rx="118.17" ry="16.03"/>
<text text-anchor="middle" x="1329.76" y="-658.82" font-family="Times,serif" font-size="14.00">okhmeta:Transport...</text>
</g>
<!-- http://w3id.org/oseg/ont/okh#Mass&#45;&gt;http://w3id.org/oseg/ont/okhmetaTransportationTag -->
<g id="edge52" class="edge">
<title>http://w3id.org/oseg/ont/okh#Mass&#45;&gt;http://w3id.org/oseg/ont/okhmetaTransportationTag</title>
<path fill="none" stroke="black" d="M913.59,-725.28C939.58,-706.48 987.2,-675.54 1033.67,-663.52 1098.12,-646.85 1173.17,-646.85 1231.46,-650.89"/>
<polygon fill="black" stroke="black" points="1231.54,-654.4 1241.77,-651.65 1232.06,-647.42 1231.54,-654.4"/>
<text text-anchor="middle" x="1113.67" y="-667.32" font-family="Times,serif" font-size="14.00">okhmeta:hasMetaTag</text>
</g>
<!-- http://w3id.org/oseg/ont/okh#ComponentReference&#45;&gt;http://w3id.org/oseg/ont/okh#Reference -->
<g id="edge13" class="edge">
<title>http://w3id.org/oseg/ont/okh#ComponentReference&#45;&gt;http://w3id.org/oseg/ont/okh#Reference</title>
<path fill="none" stroke="black" d="M960.94,-1467.09C978.78,-1470.9 998,-1475.19 1015.67,-1479.52 1023.73,-1481.5 1025.53,-1482.86 1033.67,-1484.52 1103.79,-1498.82 1184.4,-1509.06 1243.63,-1515.45"/>
<polygon fill="black" stroke="black" points="1243.38,-1518.94 1253.69,-1516.52 1244.12,-1511.98 1243.38,-1518.94"/>
</g>
<!-- http://w3id.org/oseg/ont/okh#ComponentReference&#45;&gt;http://www.w3.org/2004/02/skos/core#Concept -->
<g id="edge33" class="edge">
<title>http://w3id.org/oseg/ont/okh#ComponentReference&#45;&gt;http://www.w3.org/2004/02/skos/core#Concept</title>
<path fill="none" stroke="black" d="M989.18,-1443.41C1074.34,-1433.94 1186.64,-1420.14 1193.67,-1412.52 1218.34,-1385.77 1196.08,-1118.4 1211.67,-1085.52 1229.23,-1048.47 1265.97,-1018.33 1293.64,-999.58"/>
<polygon fill="black" stroke="black" points="1295.84,-1002.33 1302.27,-993.91 1291.99,-996.48 1295.84,-1002.33"/>
<text text-anchor="middle" x="1113.67" y="-1441.32" font-family="Times,serif" font-size="14.00">a</text>
</g>
<!-- http://w3id.org/oseg/ont/okhmetaPartsTag -->
<g id="node10" class="node">
<title>http://w3id.org/oseg/ont/okhmetaPartsTag</title>
<ellipse fill="none" stroke="#e377c2" cx="1329.76" cy="-1472.52" rx="103.48" ry="16.03"/>
<text text-anchor="middle" x="1329.76" y="-1468.82" font-family="Times,serif" font-size="14.00">okhmeta:PartsTag</text>
</g>
<!-- http://w3id.org/oseg/ont/okh#ComponentReference&#45;&gt;http://w3id.org/oseg/ont/okhmetaPartsTag -->
<g id="edge2" class="edge">
<title>http://w3id.org/oseg/ont/okh#ComponentReference&#45;&gt;http://w3id.org/oseg/ont/okhmetaPartsTag</title>
<path fill="none" stroke="black" d="M1009.67,-1458.59C1074.9,-1461.44 1155.84,-1464.97 1219.88,-1467.77"/>
<polygon fill="black" stroke="black" points="1219.86,-1471.27 1230.01,-1468.21 1220.17,-1464.28 1219.86,-1471.27"/>
<text text-anchor="middle" x="1113.67" y="-1469.32" font-family="Times,serif" font-size="14.00">okhmeta:hasMetaTag</text>
</g>
<!-- http://schema.org/url -->
<g id="node9" class="node">
<title>http://schema.org/url</title>
<ellipse fill="none" stroke="#e377c2" cx="1329.76" cy="-136.52" rx="67.35" ry="16.03"/>
<text text-anchor="middle" x="1329.76" y="-132.82" font-family="Times,serif" font-size="14.00">schema:url</text>
</g>
<!-- http://w3id.org/oseg/ont/okh#Module -->
<g id="node11" class="node">
<title>http://w3id.org/oseg/ont/okh#Module</title>
<ellipse fill="none" stroke="#e377c2" cx="1329.76" cy="-1332.52" rx="70.92" ry="16.03"/>
<text text-anchor="middle" x="1329.76" y="-1328.82" font-family="Times,serif" font-size="14.00">okh:Module</text>
</g>
<!-- http://w3id.org/oseg/ont/okh#url -->
<g id="node12" class="node">
<title>http://w3id.org/oseg/ont/okh#url</title>
<ellipse fill="none" stroke="#e377c2" cx="1329.76" cy="-85.52" rx="47.25" ry="16.03"/>
<text text-anchor="middle" x="1329.76" y="-81.82" font-family="Times,serif" font-size="14.00">okh:url</text>
</g>
<!-- http://www.w3.org/2001/XMLSchema#string -->
<g id="node14" class="node">
<title>http://www.w3.org/2001/XMLSchema#string</title>
<ellipse fill="none" stroke="#e377c2" cx="892.63" cy="-343.52" rx="62.87" ry="16.03"/>
<text text-anchor="middle" x="892.63" y="-339.82" font-family="Times,serif" font-size="14.00">xsd:string</text>
</g>
<!-- http://w3id.org/oseg/ont/okh#value -->
<g id="node15" class="node">
<title>http://w3id.org/oseg/ont/okh#value</title>
<ellipse fill="none" stroke="#e377c2" cx="466.82" cy="-779.52" rx="60.21" ry="16.03"/>
<text text-anchor="middle" x="466.82" y="-775.82" font-family="Times,serif" font-size="14.00">okh:value</text>
</g>
<!-- http://w3id.org/oseg/ont/okh#value&#45;&gt;http://www.w3.org/2002/07/owl#DatatypeProperty -->
<g id="edge8" class="edge">
<title>http://w3id.org/oseg/ont/okh#value&#45;&gt;http://www.w3.org/2002/07/owl#DatatypeProperty</title>
<path fill="none" stroke="black" d="M486.12,-764.03C509.11,-745.51 550.54,-715.19 591.6,-700.52 659.03,-676.43 681.43,-695.85 751.6,-681.52 780.32,-675.65 811.68,-666.71 837.44,-658.68"/>
<polygon fill="black" stroke="black" points="838.54,-662 847.02,-655.65 836.43,-655.33 838.54,-662"/>
<text text-anchor="middle" x="671.6" y="-704.32" font-family="Times,serif" font-size="14.00">a</text>
</g>
<!-- http://w3id.org/oseg/ont/okh#value&#45;&gt;http://w3id.org/oseg/ont/okh#Mass -->
<g id="edge17" class="edge">
<title>http://w3id.org/oseg/ont/okh#value&#45;&gt;http://w3id.org/oseg/ont/okh#Mass</title>
<path fill="none" stroke="black" d="M525.5,-775.79C582.88,-771.9 673.41,-765.29 751.6,-757.52 776.86,-755.01 804.64,-751.74 828.74,-748.75"/>
<polygon fill="black" stroke="black" points="829.34,-752.2 838.83,-747.48 828.47,-745.25 829.34,-752.2"/>
<text text-anchor="middle" x="671.6" y="-775.32" font-family="Times,serif" font-size="14.00">dcam:domainIncludes</text>
</g>
<!-- http://w3id.org/oseg/ont/okh#hasMass -->
<g id="node16" class="node">
<title>http://w3id.org/oseg/ont/okh#hasMass</title>
<ellipse fill="none" stroke="#e377c2" cx="892.63" cy="-791.52" rx="77.15" ry="16.03"/>
<text text-anchor="middle" x="892.63" y="-787.82" font-family="Times,serif" font-size="14.00">okh:hasMass</text>
</g>
<!-- http://w3id.org/oseg/ont/okh#value&#45;&gt;http://w3id.org/oseg/ont/okh#hasMass -->
<g id="edge9" class="edge">
<title>http://w3id.org/oseg/ont/okh#value&#45;&gt;http://w3id.org/oseg/ont/okh#hasMass</title>
<path fill="none" stroke="black" d="M519.17,-787.66C541.38,-790.79 567.7,-793.98 591.6,-795.52 664.45,-800.21 747.45,-798.57 807.66,-796.12"/>
<polygon fill="black" stroke="black" points="808.03,-799.61 817.88,-795.69 807.74,-792.61 808.03,-799.61"/>
<text text-anchor="middle" x="671.6" y="-802.32" font-family="Times,serif" font-size="14.00">schema:supersededBy</text>
</g>
<!-- http://w3id.org/oseg/ont/okh#width -->
<g id="node17" class="node">
<title>http://w3id.org/oseg/ont/okh#width</title>
<ellipse fill="none" stroke="#e377c2" cx="892.63" cy="-292.52" rx="61.54" ry="16.03"/>
<text text-anchor="middle" x="892.63" y="-288.82" font-family="Times,serif" font-size="14.00">okh:width</text>
</g>
<!-- http://w3id.org/oseg/ont/okh#license -->
<g id="node18" class="node">
<title>http://w3id.org/oseg/ont/okh#license</title>
<ellipse fill="none" stroke="#e377c2" cx="1329.76" cy="-1180.52" rx="67.76" ry="16.03"/>
<text text-anchor="middle" x="1329.76" y="-1176.82" font-family="Times,serif" font-size="14.00">okh:license</text>
</g>
<!-- http://w3id.org/oseg/ont/okh#installationGuide -->
<g id="node19" class="node">
<title>http://w3id.org/oseg/ont/okh#installationGuide</title>
<ellipse fill="none" stroke="#e377c2" cx="466.82" cy="-893.52" rx="106.55" ry="16.03"/>
<text text-anchor="middle" x="466.82" y="-889.82" font-family="Times,serif" font-size="14.00">okh:installationG...</text>
</g>
<!-- http://w3id.org/oseg/ont/okh#installationGuide&#45;&gt;http://www.w3.org/2002/07/owl#DatatypeProperty -->
<g id="edge36" class="edge">
<title>http://w3id.org/oseg/ont/okh#installationGuide&#45;&gt;http://www.w3.org/2002/07/owl#DatatypeProperty</title>
<path fill="none" stroke="black" d="M544.94,-882.34C619.09,-869.97 723.9,-847.74 751.6,-817.52 782.7,-783.58 743.71,-753.59 769.6,-715.52 786.66,-690.43 815.18,-672.22 840.36,-660.03"/>
<polygon fill="black" stroke="black" points="841.86,-663.19 849.46,-655.81 838.91,-656.84 841.86,-663.19"/>
<text text-anchor="middle" x="671.6" y="-878.32" font-family="Times,serif" font-size="14.00">a</text>
</g>
<!-- http://w3id.org/oseg/ont/okh#installationGuide&#45;&gt;http://www.w3.org/2004/02/skos/core#Concept -->
<g id="edge14" class="edge">
<title>http://w3id.org/oseg/ont/okh#installationGuide&#45;&gt;http://www.w3.org/2004/02/skos/core#Concept</title>
<path fill="none" stroke="black" d="M539.7,-905.46C556.68,-908.03 574.75,-910.56 591.6,-912.52 858.23,-943.57 926.74,-932.12 1193.67,-960.52 1213.59,-962.64 1235.12,-965.33 1255.01,-967.98"/>
<polygon fill="black" stroke="black" points="1254.55,-971.45 1264.93,-969.31 1255.49,-964.51 1254.55,-971.45"/>
<text text-anchor="middle" x="892.63" y="-949.32" font-family="Times,serif" font-size="14.00">a</text>
</g>
<!-- http://w3id.org/oseg/ont/okh#Software -->
<g id="node24" class="node">
<title>http://w3id.org/oseg/ont/okh#Software</title>
<ellipse fill="none" stroke="#e377c2" cx="892.63" cy="-893.52" rx="78.48" ry="16.03"/>
<text text-anchor="middle" x="892.63" y="-889.82" font-family="Times,serif" font-size="14.00">okh:Software</text>
</g>
<!-- http://w3id.org/oseg/ont/okh#installationGuide&#45;&gt;http://w3id.org/oseg/ont/okh#Software -->
<g id="edge20" class="edge">
<title>http://w3id.org/oseg/ont/okh#installationGuide&#45;&gt;http://w3id.org/oseg/ont/okh#Software</title>
<path fill="none" stroke="black" d="M573.67,-893.52C644.68,-893.52 737.1,-893.52 803.98,-893.52"/>
<polygon fill="black" stroke="black" points="804.08,-897.02 814.08,-893.52 804.08,-890.02 804.08,-897.02"/>
<text text-anchor="middle" x="671.6" y="-897.32" font-family="Times,serif" font-size="14.00">dcam:domainIncludes</text>
</g>
<!-- http://w3id.org/oseg/ont/okh#alternativeLicense -->
<g id="node20" class="node">
<title>http://w3id.org/oseg/ont/okh#alternativeLicense</title>
<ellipse fill="none" stroke="#e377c2" cx="892.63" cy="-1092.52" rx="107.46" ry="16.03"/>
<text text-anchor="middle" x="892.63" y="-1088.82" font-family="Times,serif" font-size="14.00">okh:alternativeLi...</text>
</g>
<!-- http://w3id.org/oseg/ont/okh#alternativeLicense&#45;&gt;http://www.w3.org/2002/07/owl#ObjectProperty -->
<g id="edge15" class="edge">
<title>http://w3id.org/oseg/ont/okh#alternativeLicense&#45;&gt;http://www.w3.org/2002/07/owl#ObjectProperty</title>
<path fill="none" stroke="black" d="M935.95,-1077.59C963.67,-1065.43 997.93,-1045.34 1015.67,-1015.52 1047.09,-962.69 990.7,-783.47 1033.67,-739.52 1046.33,-726.56 1134.47,-719.99 1211.16,-716.7"/>
<polygon fill="black" stroke="black" points="1211.56,-720.19 1221.41,-716.28 1211.27,-713.2 1211.56,-720.19"/>
<text text-anchor="middle" x="1113.67" y="-743.32" font-family="Times,serif" font-size="14.00">a</text>
</g>
<!-- http://w3id.org/oseg/ont/okh#alternativeLicense&#45;&gt;http://www.w3.org/2004/02/skos/core#Concept -->
<g id="edge29" class="edge">
<title>http://w3id.org/oseg/ont/okh#alternativeLicense&#45;&gt;http://www.w3.org/2004/02/skos/core#Concept</title>
<path fill="none" stroke="black" d="M928.27,-1077.11C954.88,-1063.87 991.12,-1042.63 1015.67,-1015.52 1027.67,-1002.26 1018.47,-988.95 1033.67,-979.52 1068.54,-957.89 1175.34,-962.94 1250.38,-969.75"/>
<polygon fill="black" stroke="black" points="1250.47,-973.27 1260.75,-970.72 1251.12,-966.3 1250.47,-973.27"/>
<text text-anchor="middle" x="1113.67" y="-983.32" font-family="Times,serif" font-size="14.00">a</text>
</g>
<!-- http://w3id.org/oseg/ont/okh#alternativeLicense&#45;&gt;http://w3id.org/oseg/ont/okh#Module -->
<g id="edge3" class="edge">
<title>http://w3id.org/oseg/ont/okh#alternativeLicense&#45;&gt;http://w3id.org/oseg/ont/okh#Module</title>
<path fill="none" stroke="black" d="M927.63,-1107.99C955.94,-1122.72 994.85,-1147.68 1015.67,-1181.52 1041.62,-1223.72 998.22,-1256.92 1033.67,-1291.52 1041.58,-1299.24 1170.66,-1314.95 1255.45,-1324.52"/>
<polygon fill="black" stroke="black" points="1255.23,-1328.02 1265.56,-1325.66 1256.01,-1321.06 1255.23,-1328.02"/>
<text text-anchor="middle" x="1113.67" y="-1320.32" font-family="Times,serif" font-size="14.00">dcam:domainIncludes</text>
</g>
<!-- http://w3id.org/oseg/ont/okh#alternativeLicense&#45;&gt;http://w3id.org/oseg/ont/okh#File -->
<g id="edge30" class="edge">
<title>http://w3id.org/oseg/ont/okh#alternativeLicense&#45;&gt;http://w3id.org/oseg/ont/okh#File</title>
<path fill="none" stroke="black" d="M934.78,-1077.5C962.33,-1065.21 996.88,-1044.99 1015.67,-1015.52 1049.62,-962.25 988.8,-919 1033.67,-874.52 1059.1,-849.31 1158.29,-861.02 1193.67,-855.52 1220.94,-851.28 1251.13,-845.57 1276.03,-840.58"/>
<polygon fill="black" stroke="black" points="1276.89,-843.98 1286,-838.57 1275.51,-837.12 1276.89,-843.98"/>
<text text-anchor="middle" x="1113.67" y="-878.32" font-family="Times,serif" font-size="14.00">dcam:rangeIncludes</text>
</g>
<!-- http://w3id.org/oseg/ont/okh#alternativeLicense&#45;&gt;http://w3id.org/oseg/ont/okh#license -->
<g id="edge44" class="edge">
<title>http://w3id.org/oseg/ont/okh#alternativeLicense&#45;&gt;http://w3id.org/oseg/ont/okh#license</title>
<path fill="none" stroke="black" d="M926.82,-1108.07C954.72,-1120.47 995.97,-1137.24 1033.67,-1146.52 1074.32,-1156.53 1182.1,-1167.52 1255.51,-1174.22"/>
<polygon fill="black" stroke="black" points="1255.36,-1177.72 1265.63,-1175.13 1255.99,-1170.75 1255.36,-1177.72"/>
<text text-anchor="middle" x="1113.67" y="-1172.32" font-family="Times,serif" font-size="14.00">schema:supersededBy</text>
</g>
<!-- http://schema.org/license -->
<g id="node27" class="node">
<title>http://schema.org/license</title>
<ellipse fill="none" stroke="#e377c2" cx="1329.76" cy="-1110.52" rx="88.28" ry="16.03"/>
<text text-anchor="middle" x="1329.76" y="-1106.82" font-family="Times,serif" font-size="14.00">schema:license</text>
</g>
<!-- http://w3id.org/oseg/ont/okh#alternativeLicense&#45;&gt;http://schema.org/license -->
<g id="edge23" class="edge">
<title>http://w3id.org/oseg/ont/okh#alternativeLicense&#45;&gt;http://schema.org/license</title>
<path fill="none" stroke="black" d="M998.57,-1089.74C1056.22,-1089.01 1128.95,-1089.36 1193.67,-1093.52 1212.08,-1094.7 1231.82,-1096.75 1250.37,-1099.01"/>
<polygon fill="black" stroke="black" points="1250.18,-1102.52 1260.53,-1100.29 1251.05,-1095.57 1250.18,-1102.52"/>
<text text-anchor="middle" x="1113.67" y="-1097.32" font-family="Times,serif" font-size="14.00">skos:closeMatch</text>
</g>
<!-- http://w3id.org/oseg/ont/okhmetaLegalTag -->
<g id="node35" class="node">
<title>http://w3id.org/oseg/ont/okhmetaLegalTag</title>
<ellipse fill="none" stroke="#e377c2" cx="1329.76" cy="-1262.52" rx="103.89" ry="16.03"/>
<text text-anchor="middle" x="1329.76" y="-1258.82" font-family="Times,serif" font-size="14.00">okhmeta:LegalTag</text>
</g>
<!-- http://w3id.org/oseg/ont/okh#alternativeLicense&#45;&gt;http://w3id.org/oseg/ont/okhmetaLegalTag -->
<g id="edge39" class="edge">
<title>http://w3id.org/oseg/ont/okh#alternativeLicense&#45;&gt;http://w3id.org/oseg/ont/okhmetaLegalTag</title>
<path fill="none" stroke="black" d="M922.6,-1108.2C949.46,-1123.9 989.16,-1150.19 1015.67,-1181.52 1027.22,-1195.18 1019.19,-1207.01 1033.67,-1217.52 1091.85,-1259.77 1122.59,-1230.66 1193.67,-1241.52 1210.44,-1244.08 1228.37,-1246.85 1245.52,-1249.51"/>
<polygon fill="black" stroke="black" points="1245.08,-1252.98 1255.5,-1251.06 1246.16,-1246.07 1245.08,-1252.98"/>
<text text-anchor="middle" x="1113.67" y="-1245.32" font-family="Times,serif" font-size="14.00">okhmeta:hasMetaTag</text>
</g>
<!-- http://w3id.org/oseg/ont/okh#Dimensions -->
<g id="node21" class="node">
<title>http://w3id.org/oseg/ont/okh#Dimensions</title>
<ellipse fill="none" stroke="#e377c2" cx="892.63" cy="-539.52" rx="91.85" ry="16.03"/>
<text text-anchor="middle" x="892.63" y="-535.82" font-family="Times,serif" font-size="14.00">okh:Dimensions</text>
</g>
<!-- http://w3id.org/oseg/ont/okh#okhvOrig -->
<g id="node22" class="node">
<title>http://w3id.org/oseg/ont/okh#okhvOrig</title>
<ellipse fill="none" stroke="#e377c2" cx="892.63" cy="-139.52" rx="79.39" ry="16.03"/>
<text text-anchor="middle" x="892.63" y="-135.82" font-family="Times,serif" font-size="14.00">okh:okhvOrig</text>
</g>
<!-- http://w3id.org/oseg/ont/okh#openSCAD -->
<g id="node23" class="node">
<title>http://w3id.org/oseg/ont/okh#openSCAD</title>
<ellipse fill="none" stroke="#e377c2" cx="466.82" cy="-412.52" rx="86.03" ry="16.03"/>
<text text-anchor="middle" x="466.82" y="-408.82" font-family="Times,serif" font-size="14.00">okh:openSCAD</text>
</g>
<!-- http://w3id.org/oseg/ont/okh#openSCAD&#45;&gt;http://www.w3.org/2002/07/owl#DatatypeProperty -->
<g id="edge28" class="edge">
<title>http://w3id.org/oseg/ont/okh#openSCAD&#45;&gt;http://www.w3.org/2002/07/owl#DatatypeProperty</title>
<path fill="none" stroke="black" d="M477.7,-428.7C496.11,-457.25 538.65,-516.02 591.6,-542.52 655.63,-574.57 683.53,-539.27 751.6,-561.52 792.06,-574.75 834,-600.25 861.31,-618.71"/>
<polygon fill="black" stroke="black" points="859.42,-621.65 869.64,-624.43 863.38,-615.88 859.42,-621.65"/>
<text text-anchor="middle" x="671.6" y="-565.32" font-family="Times,serif" font-size="14.00">a</text>
</g>
<!-- http://w3id.org/oseg/ont/okh#openSCAD&#45;&gt;http://www.w3.org/2001/XMLSchema#string -->
<g id="edge7" class="edge">
<title>http://w3id.org/oseg/ont/okh#openSCAD&#45;&gt;http://www.w3.org/2001/XMLSchema#string</title>
<path fill="none" stroke="black" d="M491.74,-396.82C515.83,-381.98 554.62,-360.66 591.6,-351.52 669.46,-332.28 762.17,-333.28 823.71,-337.14"/>
<polygon fill="black" stroke="black" points="823.48,-340.64 833.69,-337.81 823.95,-333.65 823.48,-340.64"/>
<text text-anchor="middle" x="671.6" y="-355.32" font-family="Times,serif" font-size="14.00">dcam:rangeIncludes</text>
</g>
<!-- http://w3id.org/oseg/ont/okh#openSCAD&#45;&gt;http://w3id.org/oseg/ont/okh#width -->
<g id="edge10" class="edge">
<title>http://w3id.org/oseg/ont/okh#openSCAD&#45;&gt;http://w3id.org/oseg/ont/okh#width</title>
<path fill="none" stroke="black" d="M482.36,-396.46C503.78,-374.04 546.21,-334.11 591.6,-316.52 667.17,-287.23 761.32,-284.62 823.78,-287.12"/>
<polygon fill="black" stroke="black" points="823.76,-290.62 833.91,-287.58 824.08,-283.63 823.76,-290.62"/>
<text text-anchor="middle" x="671.6" y="-320.32" font-family="Times,serif" font-size="14.00">schema:supersededBy</text>
</g>
<!-- http://w3id.org/oseg/ont/okh#openSCAD&#45;&gt;http://w3id.org/oseg/ont/okh#Dimensions -->
<g id="edge50" class="edge">
<title>http://w3id.org/oseg/ont/okh#openSCAD&#45;&gt;http://w3id.org/oseg/ont/okh#Dimensions</title>
<path fill="none" stroke="black" d="M538.61,-421.67C621.11,-432.41 746.85,-449.08 751.6,-451.52 761.94,-456.83 760.43,-463.36 769.6,-470.52 794.42,-489.93 825.35,-507.35 849.85,-519.84"/>
<polygon fill="black" stroke="black" points="848.4,-523.02 858.91,-524.37 851.53,-516.76 848.4,-523.02"/>
<text text-anchor="middle" x="671.6" y="-455.32" font-family="Times,serif" font-size="14.00">dcam:domainIncludes</text>
</g>
<!-- http://w3id.org/oseg/ont/okh#depth -->
<g id="node31" class="node">
<title>http://w3id.org/oseg/ont/okh#depth</title>
<ellipse fill="none" stroke="#e377c2" cx="892.63" cy="-394.52" rx="62.45" ry="16.03"/>
<text text-anchor="middle" x="892.63" y="-390.82" font-family="Times,serif" font-size="14.00">okh:depth</text>
</g>
<!-- http://w3id.org/oseg/ont/okh#openSCAD&#45;&gt;http://w3id.org/oseg/ont/okh#depth -->
<g id="edge32" class="edge">
<title>http://w3id.org/oseg/ont/okh#openSCAD&#45;&gt;http://w3id.org/oseg/ont/okh#depth</title>
<path fill="none" stroke="black" d="M505.92,-398C530.07,-389.58 562.19,-379.82 591.6,-375.52 674.22,-363.43 770.76,-373.88 831.55,-383.41"/>
<polygon fill="black" stroke="black" points="831.3,-386.91 841.73,-385.05 832.42,-380 831.3,-386.91"/>
<text text-anchor="middle" x="671.6" y="-379.32" font-family="Times,serif" font-size="14.00">schema:supersededBy</text>
</g>
<!-- http://w3id.org/oseg/ont/okh#height -->
<g id="node40" class="node">
<title>http://w3id.org/oseg/ont/okh#height</title>
<ellipse fill="none" stroke="#e377c2" cx="892.63" cy="-445.52" rx="65.11" ry="16.03"/>
<text text-anchor="middle" x="892.63" y="-441.82" font-family="Times,serif" font-size="14.00">okh:height</text>
</g>
<!-- http://w3id.org/oseg/ont/okh#openSCAD&#45;&gt;http://w3id.org/oseg/ont/okh#height -->
<g id="edge53" class="edge">
<title>http://w3id.org/oseg/ont/okh#openSCAD&#45;&gt;http://w3id.org/oseg/ont/okh#height</title>
<path fill="none" stroke="black" d="M546.36,-406.15C603.64,-403.11 682.92,-402.25 751.6,-413.52 759.92,-414.89 761.46,-417.3 769.6,-419.52 789.08,-424.83 810.57,-429.72 830.01,-433.79"/>
<polygon fill="black" stroke="black" points="829.46,-437.25 839.96,-435.84 830.88,-430.4 829.46,-437.25"/>
<text text-anchor="middle" x="671.6" y="-417.32" font-family="Times,serif" font-size="14.00">schema:supersededBy</text>
</g>
<!-- http://w3id.org/oseg/ont/okh#permaURL -->
<g id="node25" class="node">
<title>http://w3id.org/oseg/ont/okh#permaURL</title>
<ellipse fill="none" stroke="#e377c2" cx="892.63" cy="-842.52" rx="87.86" ry="16.03"/>
<text text-anchor="middle" x="892.63" y="-838.82" font-family="Times,serif" font-size="14.00">okh:permaURL</text>
</g>
<!-- http://w3id.org/oseg/ont/okh#permaURL&#45;&gt;http://www.w3.org/2002/07/owl#ObjectProperty -->
<g id="edge21" class="edge">
<title>http://w3id.org/oseg/ont/okh#permaURL&#45;&gt;http://www.w3.org/2002/07/owl#ObjectProperty</title>
<path fill="none" stroke="black" d="M977.71,-838.45C991.99,-834.17 1005.47,-827.3 1015.67,-816.52 1051.24,-778.95 994.36,-735.15 1033.67,-701.52 1065.31,-674.44 1175.63,-686.56 1252.02,-699.04"/>
<polygon fill="black" stroke="black" points="1251.66,-702.53 1262.1,-700.72 1252.81,-695.62 1251.66,-702.53"/>
<text text-anchor="middle" x="1113.67" y="-705.32" font-family="Times,serif" font-size="14.00">a</text>
</g>
<!-- http://w3id.org/oseg/ont/okh#permaURL&#45;&gt;http://w3id.org/oseg/ont/okh#File -->
<g id="edge42" class="edge">
<title>http://w3id.org/oseg/ont/okh#permaURL&#45;&gt;http://w3id.org/oseg/ont/okh#File</title>
<path fill="none" stroke="black" d="M947.15,-829.72C973.1,-824.15 1004.83,-818.27 1033.67,-815.52 1116.08,-807.65 1211.88,-815.27 1271.42,-821.97"/>
<polygon fill="black" stroke="black" points="1271.05,-825.45 1281.38,-823.13 1271.85,-818.5 1271.05,-825.45"/>
<text text-anchor="middle" x="1113.67" y="-819.32" font-family="Times,serif" font-size="14.00">dcam:domainIncludes</text>
</g>
<!-- http://w3id.org/oseg/ont/okh#relatedTsdc -->
<g id="node26" class="node">
<title>http://w3id.org/oseg/ont/okh#relatedTsdc</title>
<ellipse fill="none" stroke="#e377c2" cx="892.63" cy="-37.52" rx="91.85" ry="16.03"/>
<text text-anchor="middle" x="892.63" y="-33.82" font-family="Times,serif" font-size="14.00">okh:relatedTsdc</text>
</g>
<!-- http://w3id.org/oseg/ont/okh#relatedTsdc&#45;&gt;http://www.w3.org/2002/07/owl#ObjectProperty -->
<g id="edge22" class="edge">
<title>http://w3id.org/oseg/ont/okh#relatedTsdc&#45;&gt;http://www.w3.org/2002/07/owl#ObjectProperty</title>
<path fill="none" stroke="black" d="M981.86,-41.64C994.86,-46.08 1006.82,-52.99 1015.67,-63.52 1051.48,-106.18 995.93,-523.55 1033.67,-564.52 1082.18,-617.2 1141.7,-534.25 1193.67,-583.52 1227.71,-615.8 1179.29,-653.58 1211.67,-687.52 1216.5,-692.58 1222.07,-696.76 1228.12,-700.21"/>
<polygon fill="black" stroke="black" points="1226.77,-703.44 1237.28,-704.74 1229.87,-697.17 1226.77,-703.44"/>
<text text-anchor="middle" x="1113.67" y="-587.32" font-family="Times,serif" font-size="14.00">a</text>
</g>
<!-- http://w3id.org/oseg/ont/okh#tsdc -->
<g id="node36" class="node">
<title>http://w3id.org/oseg/ont/okh#tsdc</title>
<ellipse fill="none" stroke="#e377c2" cx="1329.76" cy="-19.52" rx="54.39" ry="16.03"/>
<text text-anchor="middle" x="1329.76" y="-15.82" font-family="Times,serif" font-size="14.00">okh:tsdc</text>
</g>
<!-- http://w3id.org/oseg/ont/okh#relatedTsdc&#45;&gt;http://w3id.org/oseg/ont/okh#tsdc -->
<g id="edge40" class="edge">
<title>http://w3id.org/oseg/ont/okh#relatedTsdc&#45;&gt;http://w3id.org/oseg/ont/okh#tsdc</title>
<path fill="none" stroke="black" d="M940.47,-23.62C967.45,-16.33 1002.16,-8.18 1033.67,-4.52 1115.79,5.03 1211.48,-3.39 1271.09,-10.94"/>
<polygon fill="black" stroke="black" points="1270.7,-14.42 1281.07,-12.24 1271.6,-7.48 1270.7,-14.42"/>
<text text-anchor="middle" x="1113.67" y="-8.32" font-family="Times,serif" font-size="14.00">schema:supersededBy</text>
</g>
<!-- http://w3id.org/oseg/ont/okh#relatedTsdc&#45;&gt;http://w3id.org/oseg/ont/okh#tsdc -->
<g id="edge56" class="edge">
<title>http://w3id.org/oseg/ont/okh#relatedTsdc&#45;&gt;http://w3id.org/oseg/ont/okh#tsdc</title>
<path fill="none" stroke="black" d="M982.21,-33.86C1066.34,-30.38 1190.74,-25.23 1265.37,-22.14"/>
<polygon fill="black" stroke="black" points="1265.71,-25.63 1275.56,-21.72 1265.42,-18.64 1265.71,-25.63"/>
<text text-anchor="middle" x="1113.67" y="-36.32" font-family="Times,serif" font-size="14.00">owl:sameAs</text>
</g>
<!-- http://w3id.org/oseg/ont/okh#spdxLicense -->
<g id="node28" class="node">
<title>http://w3id.org/oseg/ont/okh#spdxLicense</title>
<ellipse fill="none" stroke="#e377c2" cx="892.63" cy="-1206.52" rx="94.51" ry="16.03"/>
<text text-anchor="middle" x="892.63" y="-1202.82" font-family="Times,serif" font-size="14.00">okh:spdxLicense</text>
</g>
<!-- http://w3id.org/oseg/ont/okh#spdxLicense&#45;&gt;http://www.w3.org/2002/07/owl#ObjectProperty -->
<g id="edge25" class="edge">
<title>http://w3id.org/oseg/ont/okh#spdxLicense&#45;&gt;http://www.w3.org/2002/07/owl#ObjectProperty</title>
<path fill="none" stroke="black" d="M926.99,-1191.3C955.29,-1176.57 994.56,-1151.49 1015.67,-1117.52 1040.43,-1077.68 999.63,-1045.8 1033.67,-1013.52 1085.63,-964.25 1143.64,-1045.75 1193.67,-994.52 1223.3,-964.18 1191.25,-841.69 1211.67,-804.52 1228.71,-773.5 1261.21,-749.56 1287.65,-734.03"/>
<polygon fill="black" stroke="black" points="1289.38,-737.07 1296.35,-729.09 1285.93,-730.98 1289.38,-737.07"/>
<text text-anchor="middle" x="1113.67" y="-1017.32" font-family="Times,serif" font-size="14.00">a</text>
</g>
<!-- http://w3id.org/oseg/ont/okh#spdxLicense&#45;&gt;http://www.w3.org/2004/02/skos/core#Concept -->
<g id="edge41" class="edge">
<title>http://w3id.org/oseg/ont/okh#spdxLicense&#45;&gt;http://www.w3.org/2004/02/skos/core#Concept</title>
<path fill="none" stroke="black" d="M923.83,-1191.11C951.18,-1175.78 990.89,-1149.9 1015.67,-1117.52 1029.26,-1099.76 1016.84,-1085.25 1033.67,-1070.52 1088.66,-1022.37 1123.99,-1054.59 1193.67,-1032.52 1225.41,-1022.47 1260.27,-1008.45 1286.63,-997.22"/>
<polygon fill="black" stroke="black" points="1288.14,-1000.38 1295.94,-993.22 1285.37,-993.95 1288.14,-1000.38"/>
<text text-anchor="middle" x="1113.67" y="-1074.32" font-family="Times,serif" font-size="14.00">a</text>
</g>
<!-- http://w3id.org/oseg/ont/okh#spdxLicense&#45;&gt;http://w3id.org/oseg/ont/okh#Module -->
<g id="edge24" class="edge">
<title>http://w3id.org/oseg/ont/okh#spdxLicense&#45;&gt;http://w3id.org/oseg/ont/okh#Module</title>
<path fill="none" stroke="black" d="M904.72,-1222.93C925.77,-1252.4 974.69,-1313.36 1033.67,-1336.52 1111.03,-1366.89 1208.84,-1357.17 1270.11,-1345.97"/>
<polygon fill="black" stroke="black" points="1270.83,-1349.39 1280,-1344.09 1269.52,-1342.52 1270.83,-1349.39"/>
<text text-anchor="middle" x="1113.67" y="-1360.32" font-family="Times,serif" font-size="14.00">dcam:domainIncludes</text>
</g>
<!-- http://w3id.org/oseg/ont/okh#spdxLicense&#45;&gt;http://w3id.org/oseg/ont/okh#license -->
<g id="edge12" class="edge">
<title>http://w3id.org/oseg/ont/okh#spdxLicense&#45;&gt;http://w3id.org/oseg/ont/okh#license</title>
<path fill="none" stroke="black" d="M982.47,-1201.21C1062.24,-1196.45 1178.05,-1189.53 1253.38,-1185.02"/>
<polygon fill="black" stroke="black" points="1253.96,-1188.5 1263.74,-1184.41 1253.55,-1181.51 1253.96,-1188.5"/>
<text text-anchor="middle" x="1113.67" y="-1202.32" font-family="Times,serif" font-size="14.00">schema:supersededBy</text>
</g>
<!-- http://w3id.org/oseg/ont/okh#spdxLicense&#45;&gt;http://schema.org/license -->
<g id="edge51" class="edge">
<title>http://w3id.org/oseg/ont/okh#spdxLicense&#45;&gt;http://schema.org/license</title>
<path fill="none" stroke="black" d="M914.55,-1190.62C940.77,-1171.7 987.87,-1140.97 1033.67,-1127.52 1069.39,-1117.03 1159.43,-1112.97 1230.73,-1111.42"/>
<polygon fill="black" stroke="black" points="1231.18,-1114.91 1241.11,-1111.21 1231.04,-1107.91 1231.18,-1114.91"/>
<text text-anchor="middle" x="1113.67" y="-1131.32" font-family="Times,serif" font-size="14.00">skos:closeMatch</text>
</g>
<!-- http://spdx.org/rdf/terms#ListedLicense -->
<g id="node30" class="node">
<title>http://spdx.org/rdf/terms#ListedLicense</title>
<ellipse fill="none" stroke="#e377c2" cx="1329.76" cy="-1396.52" rx="108.38" ry="16.03"/>
<text text-anchor="middle" x="1329.76" y="-1392.82" font-family="Times,serif" font-size="14.00">spdx:ListedLicense</text>
</g>
<!-- http://w3id.org/oseg/ont/okh#spdxLicense&#45;&gt;http://spdx.org/rdf/terms#ListedLicense -->
<g id="edge31" class="edge">
<title>http://w3id.org/oseg/ont/okh#spdxLicense&#45;&gt;http://spdx.org/rdf/terms#ListedLicense</title>
<path fill="none" stroke="black" d="M901.51,-1222.92C919.37,-1258.02 966.65,-1340.04 1033.67,-1374.52 1064.15,-1390.2 1143.02,-1395.51 1211.57,-1397"/>
<polygon fill="black" stroke="black" points="1211.53,-1400.5 1221.6,-1397.2 1211.67,-1393.5 1211.53,-1400.5"/>
<text text-anchor="middle" x="1113.67" y="-1399.32" font-family="Times,serif" font-size="14.00">dcam:rangeIncludes</text>
</g>
<!-- http://w3id.org/oseg/ont/okh#spdxLicense&#45;&gt;http://w3id.org/oseg/ont/okhmetaLegalTag -->
<g id="edge49" class="edge">
<title>http://w3id.org/oseg/ont/okh#spdxLicense&#45;&gt;http://w3id.org/oseg/ont/okhmetaLegalTag</title>
<path fill="none" stroke="black" d="M924.1,-1221.97C951.85,-1235.14 994.37,-1253.07 1033.67,-1260.52 1097.53,-1272.63 1170.58,-1273.23 1228.02,-1270.75"/>
<polygon fill="black" stroke="black" points="1228.36,-1274.24 1238.19,-1270.27 1228.04,-1267.25 1228.36,-1274.24"/>
<text text-anchor="middle" x="1113.67" y="-1276.32" font-family="Times,serif" font-size="14.00">okhmeta:hasMetaTag</text>
</g>
<!-- http://w3id.org/oseg/ont/okh#fileUrl -->
<g id="node29" class="node">
<title>http://w3id.org/oseg/ont/okh#fileUrl</title>
<ellipse fill="none" stroke="#e377c2" cx="892.63" cy="-88.52" rx="65.11" ry="16.03"/>
<text text-anchor="middle" x="892.63" y="-84.82" font-family="Times,serif" font-size="14.00">okh:fileUrl</text>
</g>
<!-- http://w3id.org/oseg/ont/okh#fileUrl&#45;&gt;http://www.w3.org/2002/07/owl#ObjectProperty -->
<g id="edge27" class="edge">
<title>http://w3id.org/oseg/ont/okh#fileUrl&#45;&gt;http://www.w3.org/2002/07/owl#ObjectProperty</title>
<path fill="none" stroke="black" d="M957.55,-87.06C979.19,-90.04 1001.45,-97.6 1015.67,-114.52 1050.58,-156.06 998,-561.63 1033.67,-602.52 1081.12,-656.93 1139.35,-582.97 1193.67,-630.52 1213.66,-648.02 1192.08,-669.57 1211.67,-687.52 1217.16,-692.55 1223.4,-696.68 1230.07,-700.07"/>
<polygon fill="black" stroke="black" points="1228.85,-703.36 1239.41,-704.24 1231.7,-696.96 1228.85,-703.36"/>
<text text-anchor="middle" x="1113.67" y="-634.32" font-family="Times,serif" font-size="14.00">a</text>
</g>
<!-- http://w3id.org/oseg/ont/okh#fileUrl&#45;&gt;http://schema.org/url -->
<g id="edge1" class="edge">
<title>http://w3id.org/oseg/ont/okh#fileUrl&#45;&gt;http://schema.org/url</title>
<path fill="none" stroke="black" d="M949.45,-96.57C975.08,-100.15 1005.89,-104.27 1033.67,-107.52 1109.43,-116.38 1196.35,-124.7 1256.13,-130.14"/>
<polygon fill="black" stroke="black" points="1255.95,-133.63 1266.22,-131.05 1256.58,-126.66 1255.95,-133.63"/>
<text text-anchor="middle" x="1113.67" y="-128.32" font-family="Times,serif" font-size="14.00">subPropertyOf</text>
</g>
<!-- http://w3id.org/oseg/ont/okh#fileUrl&#45;&gt;http://w3id.org/oseg/ont/okh#url -->
<g id="edge4" class="edge">
<title>http://w3id.org/oseg/ont/okh#fileUrl&#45;&gt;http://w3id.org/oseg/ont/okh#url</title>
<path fill="none" stroke="black" d="M957.84,-88.08C1042.85,-87.49 1191.43,-86.47 1272.34,-85.91"/>
<polygon fill="black" stroke="black" points="1272.36,-89.41 1282.34,-85.84 1272.31,-82.41 1272.36,-89.41"/>
<text text-anchor="middle" x="1113.67" y="-92.32" font-family="Times,serif" font-size="14.00">schema:supersededBy</text>
</g>
<!-- http://w3id.org/oseg/ont/okh#fileUrl&#45;&gt;http://w3id.org/oseg/ont/okh#File -->
<g id="edge11" class="edge">
<title>http://w3id.org/oseg/ont/okh#fileUrl&#45;&gt;http://w3id.org/oseg/ont/okh#File</title>
<path fill="none" stroke="black" d="M957.63,-87C979.28,-89.97 1001.53,-97.54 1015.67,-114.52 1061.2,-169.18 988.94,-699.2 1033.67,-754.52 1079.69,-811.44 1122.75,-775.43 1193.67,-793.52 1222.32,-800.83 1254.29,-809.33 1279.94,-816.24"/>
<polygon fill="black" stroke="black" points="1279.23,-819.68 1289.8,-818.9 1281.05,-812.92 1279.23,-819.68"/>
<text text-anchor="middle" x="1113.67" y="-797.32" font-family="Times,serif" font-size="14.00">dcam:domainIncludes</text>
</g>
<!-- http://w3id.org/oseg/ont/okh#openScad -->
<g id="node32" class="node">
<title>http://w3id.org/oseg/ont/okh#openScad</title>
<ellipse fill="none" stroke="#e377c2" cx="82.02" cy="-450.52" rx="82.05" ry="16.03"/>
<text text-anchor="middle" x="82.02" y="-446.82" font-family="Times,serif" font-size="14.00">okh:openScad</text>
</g>
<!-- http://w3id.org/oseg/ont/okh#openScad&#45;&gt;http://www.w3.org/2002/07/owl#DatatypeProperty -->
<g id="edge34" class="edge">
<title>http://w3id.org/oseg/ont/okh#openScad&#45;&gt;http://www.w3.org/2002/07/owl#DatatypeProperty</title>
<path fill="none" stroke="black" d="M98.64,-466.47C138.08,-505.51 246.68,-605.49 360.05,-643.52 515.17,-695.56 710.37,-674.08 815.75,-655.96"/>
<polygon fill="black" stroke="black" points="816.42,-659.39 825.67,-654.22 815.21,-652.5 816.42,-659.39"/>
<text text-anchor="middle" x="466.82" y="-680.32" font-family="Times,serif" font-size="14.00">a</text>
</g>
<!-- http://w3id.org/oseg/ont/okh#openScad&#45;&gt;http://w3id.org/oseg/ont/okh#openSCAD -->
<g id="edge19" class="edge">
<title>http://w3id.org/oseg/ont/okh#openScad&#45;&gt;http://w3id.org/oseg/ont/okh#openSCAD</title>
<path fill="none" stroke="black" d="M114.32,-435.57C133.41,-427.28 158.58,-417.8 182.05,-413.52 247.07,-401.65 321.87,-401.95 378.34,-404.92"/>
<polygon fill="black" stroke="black" points="378.49,-408.43 388.67,-405.5 378.88,-401.44 378.49,-408.43"/>
<text text-anchor="middle" x="262.05" y="-417.32" font-family="Times,serif" font-size="14.00">schema:supersededBy</text>
</g>
<!-- http://w3id.org/oseg/ont/okh#openScad&#45;&gt;http://w3id.org/oseg/ont/okh#openSCAD -->
<g id="edge48" class="edge">
<title>http://w3id.org/oseg/ont/okh#openScad&#45;&gt;http://w3id.org/oseg/ont/okh#openSCAD</title>
<path fill="none" stroke="black" d="M159.33,-444.92C210.97,-440.92 280.68,-435.09 342.05,-428.52 356.4,-426.98 371.67,-425.16 386.4,-423.31"/>
<polygon fill="black" stroke="black" points="387.02,-426.76 396.49,-422.03 386.13,-419.82 387.02,-426.76"/>
<text text-anchor="middle" x="262.05" y="-447.32" font-family="Times,serif" font-size="14.00">owl:sameAs</text>
</g>
<!-- http://w3id.org/oseg/ont/okh#okhv -->
<g id="node34" class="node">
<title>http://w3id.org/oseg/ont/okh#okhv</title>
<ellipse fill="none" stroke="#e377c2" cx="892.63" cy="-190.52" rx="56.64" ry="16.03"/>
<text text-anchor="middle" x="892.63" y="-186.82" font-family="Times,serif" font-size="14.00">okh:okhv</text>
</g>
<!-- http://w3id.org/oseg/ont/okh#okhvStored -->
<g id="node37" class="node">
<title>http://w3id.org/oseg/ont/okh#okhvStored</title>
<ellipse fill="none" stroke="#e377c2" cx="892.63" cy="-241.52" rx="90.52" ry="16.03"/>
<text text-anchor="middle" x="892.63" y="-237.82" font-family="Times,serif" font-size="14.00">okh:okhvStored</text>
</g>
<!-- http://w3id.org/oseg/ont/okh#unit -->
<g id="node38" class="node">
<title>http://w3id.org/oseg/ont/okh#unit</title>
<ellipse fill="none" stroke="#e377c2" cx="466.82" cy="-618.52" rx="53.07" ry="16.03"/>
<text text-anchor="middle" x="466.82" y="-614.82" font-family="Times,serif" font-size="14.00">okh:unit</text>
</g>
<!-- http://w3id.org/oseg/ont/okh#unit&#45;&gt;http://www.w3.org/2002/07/owl#DatatypeProperty -->
<g id="edge47" class="edge">
<title>http://w3id.org/oseg/ont/okh#unit&#45;&gt;http://www.w3.org/2002/07/owl#DatatypeProperty</title>
<path fill="none" stroke="black" d="M519.37,-621.2C580.57,-624.37 684.74,-629.78 767.35,-634.07"/>
<polygon fill="black" stroke="black" points="767.4,-637.58 777.57,-634.6 767.77,-630.59 767.4,-637.58"/>
<text text-anchor="middle" x="671.6" y="-637.32" font-family="Times,serif" font-size="14.00">a</text>
</g>
<!-- http://w3id.org/oseg/ont/okh#unit&#45;&gt;http://w3id.org/oseg/ont/okh#Mass -->
<g id="edge45" class="edge">
<title>http://w3id.org/oseg/ont/okh#unit&#45;&gt;http://w3id.org/oseg/ont/okh#Mass</title>
<path fill="none" stroke="black" d="M518.59,-622.19C538.15,-626.09 559.22,-633.74 573.6,-648.52 596.29,-671.86 566.62,-698.64 591.6,-719.52 608.93,-734.01 739.9,-738.5 822.98,-739.9"/>
<polygon fill="black" stroke="black" points="823.06,-743.4 833.11,-740.06 823.17,-736.4 823.06,-743.4"/>
<text text-anchor="middle" x="671.6" y="-742.32" font-family="Times,serif" font-size="14.00">dcam:domainIncludes</text>
</g>
<!-- http://w3id.org/oseg/ont/okh#unit&#45;&gt;http://w3id.org/oseg/ont/okh#Dimensions -->
<g id="edge16" class="edge">
<title>http://w3id.org/oseg/ont/okh#unit&#45;&gt;http://w3id.org/oseg/ont/okh#Dimensions</title>
<path fill="none" stroke="black" d="M517.94,-614.13C574.95,-608.6 670.64,-597.69 751.6,-580.52 780.93,-574.3 813.08,-565.06 839.17,-556.93"/>
<polygon fill="black" stroke="black" points="840.36,-560.23 848.85,-553.88 838.26,-553.55 840.36,-560.23"/>
<text text-anchor="middle" x="671.6" y="-609.32" font-family="Times,serif" font-size="14.00">dcam:domainIncludes</text>
</g>
<!-- http://w3id.org/oseg/ont/okh#okhvOriginal -->
<g id="node41" class="node">
<title>http://w3id.org/oseg/ont/okh#okhvOriginal</title>
<ellipse fill="none" stroke="#e377c2" cx="466.82" cy="-253.52" rx="97.66" ry="16.03"/>
<text text-anchor="middle" x="466.82" y="-249.82" font-family="Times,serif" font-size="14.00">okh:okhvOriginal</text>
</g>
<!-- http://w3id.org/oseg/ont/okh#okhvOriginal&#45;&gt;http://www.w3.org/2002/07/owl#DatatypeProperty -->
<g id="edge54" class="edge">
<title>http://w3id.org/oseg/ont/okh#okhvOriginal&#45;&gt;http://www.w3.org/2002/07/owl#DatatypeProperty</title>
<path fill="none" stroke="black" d="M485.43,-269.79C509.63,-293.26 552.55,-339.15 573.6,-387.52 594.59,-435.76 553.76,-467.96 591.6,-504.52 643.1,-554.28 694.06,-480.89 751.6,-523.52 767.59,-535.37 756.57,-549.48 769.6,-564.52 790.41,-588.55 820.71,-607.48 845.92,-620.44"/>
<polygon fill="black" stroke="black" points="844.44,-623.61 854.95,-624.94 847.56,-617.34 844.44,-623.61"/>
<text text-anchor="middle" x="671.6" y="-527.32" font-family="Times,serif" font-size="14.00">a</text>
</g>
<!-- http://w3id.org/oseg/ont/okh#okhvOriginal&#45;&gt;http://w3id.org/oseg/ont/okh#okhv -->
<g id="edge38" class="edge">
<title>http://w3id.org/oseg/ont/okh#okhvOriginal&#45;&gt;http://w3id.org/oseg/ont/okh#okhv</title>
<path fill="none" stroke="black" d="M525.25,-240.4C546.07,-235.93 569.83,-231.14 591.6,-227.52 673.08,-213.96 767.78,-203.09 828.65,-196.72"/>
<polygon fill="black" stroke="black" points="829.28,-200.18 838.86,-195.67 828.56,-193.22 829.28,-200.18"/>
<text text-anchor="middle" x="671.6" y="-231.32" font-family="Times,serif" font-size="14.00">subPropertyOf</text>
</g>
<!-- http://w3id.org/oseg/ont/okh#okhvOriginal&#45;&gt;http://w3id.org/oseg/ont/okh#okhvStored -->
<g id="edge46" class="edge">
<title>http://w3id.org/oseg/ont/okh#okhvOriginal&#45;&gt;http://w3id.org/oseg/ont/okh#okhvStored</title>
<path fill="none" stroke="black" d="M563.2,-250.82C631.71,-248.88 723.82,-246.27 793.05,-244.31"/>
<polygon fill="black" stroke="black" points="793.2,-247.81 803.1,-244.03 793,-240.81 793.2,-247.81"/>
<text text-anchor="middle" x="671.6" y="-254.32" font-family="Times,serif" font-size="14.00">seeAlso</text>
</g>
<!-- http://w3id.org/oseg/ont/okh#okhvPresent -->
<g id="node42" class="node">
<title>http://w3id.org/oseg/ont/okh#okhvPresent</title>
<ellipse fill="none" stroke="#e377c2" cx="466.82" cy="-177.52" rx="96.33" ry="16.03"/>
<text text-anchor="middle" x="466.82" y="-173.82" font-family="Times,serif" font-size="14.00">okh:okhvPresent</text>
</g>
<!-- http://w3id.org/oseg/ont/okh#okhvPresent&#45;&gt;http://www.w3.org/2002/07/owl#DatatypeProperty -->
<g id="edge55" class="edge">
<title>http://w3id.org/oseg/ont/okh#okhvPresent&#45;&gt;http://www.w3.org/2002/07/owl#DatatypeProperty</title>
<path fill="none" stroke="black" d="M521.39,-191.03C541,-198.74 561.36,-210.58 573.6,-228.52 603.48,-272.34 554.9,-428.22 591.6,-466.52 641.14,-518.23 698.35,-437.63 751.6,-485.52 778.37,-509.6 748.7,-535.19 769.6,-564.52 787.52,-589.69 816.65,-608.29 841.95,-620.78"/>
<polygon fill="black" stroke="black" points="840.54,-623.99 851.07,-625.11 843.54,-617.66 840.54,-623.99"/>
<text text-anchor="middle" x="671.6" y="-489.32" font-family="Times,serif" font-size="14.00">a</text>
</g>
<!-- http://w3id.org/oseg/ont/okh#okhvPresent&#45;&gt;http://w3id.org/oseg/ont/okh#okhvOrig -->
<g id="edge18" class="edge">
<title>http://w3id.org/oseg/ont/okh#okhvPresent&#45;&gt;http://w3id.org/oseg/ont/okh#okhvOrig</title>
<path fill="none" stroke="black" d="M533.18,-165.7C551.98,-162.64 572.56,-159.62 591.6,-157.52 662.94,-149.64 744.23,-145.03 804.18,-142.45"/>
<polygon fill="black" stroke="black" points="804.52,-145.94 814.37,-142.02 804.23,-138.95 804.52,-145.94"/>
<text text-anchor="middle" x="671.6" y="-161.32" font-family="Times,serif" font-size="14.00">seeAlso</text>
</g>
<!-- http://w3id.org/oseg/ont/okh#okhvPresent&#45;&gt;http://w3id.org/oseg/ont/okh#okhv -->
<g id="edge43" class="edge">
<title>http://w3id.org/oseg/ont/okh#okhvPresent&#45;&gt;http://w3id.org/oseg/ont/okh#okhv</title>
<path fill="none" stroke="black" d="M562.78,-175.91C617.93,-175.47 688.72,-175.72 751.6,-178.52 776.98,-179.65 804.88,-181.85 829.05,-184.05"/>
<polygon fill="black" stroke="black" points="828.88,-187.55 839.16,-185 829.53,-180.58 828.88,-187.55"/>
<text text-anchor="middle" x="671.6" y="-182.32" font-family="Times,serif" font-size="14.00">subPropertyOf</text>
</g>
</g>
</svg>
