<?xml version="1.0" encoding="UTF-8" standalone="no"?>
<!DOCTYPE svg PUBLIC "-//W3C//DTD SVG 1.1//EN"
 "http://www.w3.org/Graphics/SVG/1.1/DTD/svg11.dtd">
<!-- Generated by graphviz version 2.43.0 (0)
 -->
<!-- Title: G Pages: 1 -->
<svg width="1102pt" height="1695pt"
 viewBox="0.00 0.00 1101.94 1694.53" xmlns="http://www.w3.org/2000/svg" xmlns:xlink="http://www.w3.org/1999/xlink">
<g id="graph0" class="graph" transform="scale(1 1) rotate(0) translate(4 1690.53)">
<title>G</title>
<polygon fill="white" stroke="transparent" points="-4,4 -4,-1690.53 1097.94,-1690.53 1097.94,4 -4,4"/>
<!-- http://www.w3.org/2002/07/owl#Ontology -->
<g id="node1" class="node">
<title>http://www.w3.org/2002/07/owl#Ontology</title>
<ellipse fill="none" stroke="#1f77b4" cx="558.52" cy="-331.26" rx="77.56" ry="16.03"/>
<text text-anchor="middle" x="558.52" y="-327.56" font-family="Times,serif" font-size="14.00">owl:Ontology</text>
</g>
<!-- http://www.w3.org/2004/02/skos/core#Concept -->
<g id="node2" class="node">
<title>http://www.w3.org/2004/02/skos/core#Concept</title>
<ellipse fill="none" stroke="#1f77b4" cx="984.33" cy="-1537.26" rx="78.48" ry="16.03"/>
<text text-anchor="middle" x="984.33" y="-1533.56" font-family="Times,serif" font-size="14.00">skos:Concept</text>
</g>
<!-- http://spdx.org/rdf/terms#SpdxItem -->
<g id="node3" class="node">
<title>http://spdx.org/rdf/terms#SpdxItem</title>
<ellipse fill="none" stroke="#1f77b4" cx="558.52" cy="-280.26" rx="87.86" ry="16.03"/>
<text text-anchor="middle" x="558.52" y="-276.56" font-family="Times,serif" font-size="14.00">spdx:SpdxItem</text>
</g>
<!-- http://www.w3.org/2002/07/owl#ObjectProperty -->
<g id="node4" class="node">
<title>http://www.w3.org/2002/07/owl#ObjectProperty</title>
<ellipse fill="none" stroke="#1f77b4" cx="984.33" cy="-1619.26" rx="109.7" ry="16.03"/>
<text text-anchor="middle" x="984.33" y="-1615.56" font-family="Times,serif" font-size="14.00">owl:ObjectProperty</text>
</g>
<!-- http://w3id.org/oseg/ont/okhmeta#Tag -->
<g id="node5" class="node">
<title>http://w3id.org/oseg/ont/okhmeta#Tag</title>
<ellipse fill="none" stroke="#e377c2" cx="558.52" cy="-967.26" rx="76.24" ry="16.03"/>
<text text-anchor="middle" x="558.52" y="-963.56" font-family="Times,serif" font-size="14.00">okhmeta:Tag</text>
</g>
<!-- http://w3id.org/oseg/ont/okhmeta#Tag&#45;&gt;http://www.w3.org/2004/02/skos/core#Concept -->
<g id="edge11" class="edge">
<title>http://w3id.org/oseg/ont/okhmeta#Tag&#45;&gt;http://www.w3.org/2004/02/skos/core#Concept</title>
<path fill="none" stroke="black" d="M588.38,-982.31C617.06,-999.02 659.46,-1028.92 678.73,-1068.26 699.04,-1109.71 665.34,-1449.43 696.73,-1483.26 721.09,-1509.51 821.6,-1495.36 856.73,-1502.26 881.39,-1507.11 908.28,-1514.27 930.91,-1520.85"/>
<polygon fill="black" stroke="black" points="930.07,-1524.25 940.65,-1523.72 932.05,-1517.54 930.07,-1524.25"/>
<text text-anchor="middle" x="776.73" y="-1506.06" font-family="Times,serif" font-size="14.00">a</text>
</g>
<!-- http://www.w3.org/2004/02/skos/core#Collection -->
<g id="node6" class="node">
<title>http://www.w3.org/2004/02/skos/core#Collection</title>
<ellipse fill="none" stroke="#e377c2" cx="984.33" cy="-967.26" rx="87.86" ry="16.03"/>
<text text-anchor="middle" x="984.33" y="-963.56" font-family="Times,serif" font-size="14.00">skos:Collection</text>
</g>
<!-- http://w3id.org/oseg/ont/okhmeta#Tag&#45;&gt;http://www.w3.org/2004/02/skos/core#Collection -->
<g id="edge28" class="edge">
<title>http://w3id.org/oseg/ont/okhmeta#Tag&#45;&gt;http://www.w3.org/2004/02/skos/core#Collection</title>
<path fill="none" stroke="black" d="M635.29,-967.26C705.47,-967.26 810.2,-967.26 886.44,-967.26"/>
<polygon fill="black" stroke="black" points="886.53,-970.76 896.53,-967.26 886.53,-963.76 886.53,-970.76"/>
</g>
<!-- http://w3id.org/oseg/ont/okhmeta#MetaTag -->
<g id="node7" class="node">
<title>http://w3id.org/oseg/ont/okhmeta#MetaTag</title>
<ellipse fill="none" stroke="#e377c2" cx="984.33" cy="-1090.26" rx="102.56" ry="16.03"/>
<text text-anchor="middle" x="984.33" y="-1086.56" font-family="Times,serif" font-size="14.00">okhmeta:MetaTag</text>
</g>
<!-- http://w3id.org/oseg/ont/okhmeta#Tag&#45;&gt;http://w3id.org/oseg/ont/okhmeta#MetaTag -->
<g id="edge14" class="edge">
<title>http://w3id.org/oseg/ont/okhmeta#Tag&#45;&gt;http://w3id.org/oseg/ont/okhmeta#MetaTag</title>
<path fill="none" stroke="black" d="M628.48,-973.87C709.58,-981.91 835.89,-995.39 856.73,-1003.26 895.73,-1018 934.31,-1047.18 958.44,-1067.67"/>
<polygon fill="black" stroke="black" points="956.2,-1070.36 966.05,-1074.25 960.77,-1065.06 956.2,-1070.36"/>
<text text-anchor="middle" x="776.73" y="-1007.06" font-family="Times,serif" font-size="14.00">okhmeta:hasMetaTag</text>
</g>
<!-- http://w3id.org/oseg/ont/okhmeta#MetaTag&#45;&gt;http://w3id.org/oseg/ont/okhmeta#Tag -->
<g id="edge24" class="edge">
<title>http://w3id.org/oseg/ont/okhmeta#MetaTag&#45;&gt;http://w3id.org/oseg/ont/okhmeta#Tag</title>
<path fill="none" stroke="black" d="M926.47,-1076.76C855.77,-1059.84 739.24,-1031.46 696.73,-1018.26 665.5,-1008.57 630.99,-995.73 604.4,-985.36"/>
<polygon fill="black" stroke="black" points="605.56,-982.06 594.98,-981.66 603.01,-988.58 605.56,-982.06"/>
<text text-anchor="middle" x="776.73" y="-1063.06" font-family="Times,serif" font-size="14.00">a</text>
</g>
<!-- http://w3id.org/oseg/ont/okhmeta#MetaTag&#45;&gt;http://w3id.org/oseg/ont/okhmeta#MetaTag -->
<g id="edge34" class="edge">
<title>http://w3id.org/oseg/ont/okhmeta#MetaTag&#45;&gt;http://w3id.org/oseg/ont/okhmeta#MetaTag</title>
<path fill="none" stroke="black" d="M948.43,-1105.77C939.78,-1115.38 951.74,-1124.53 984.33,-1124.53 1004.7,-1124.53 1017.02,-1120.95 1021.27,-1115.93"/>
<polygon fill="black" stroke="black" points="1024.73,-1115.36 1020.23,-1105.77 1017.77,-1116.07 1024.73,-1115.36"/>
<text text-anchor="middle" x="984.33" y="-1128.33" font-family="Times,serif" font-size="14.00">okhmeta:hasMetaTag</text>
</g>
<!-- http://spdx.org/licenses/GPL&#45;3.0&#45;or&#45;later -->
<g id="node8" class="node">
<title>http://spdx.org/licenses/GPL&#45;3.0&#45;or&#45;later</title>
<ellipse fill="none" stroke="#e377c2" cx="558.52" cy="-229.26" rx="108.79" ry="16.03"/>
<text text-anchor="middle" x="558.52" y="-225.56" font-family="Times,serif" font-size="14.00">spdxl:GPL&#45;3.0&#45;or&#45;...</text>
</g>
<!-- http://w3id.org/oseg/ont/okhmeta#DevelopmentTag -->
<g id="node9" class="node">
<title>http://w3id.org/oseg/ont/okhmeta#DevelopmentTag</title>
<ellipse fill="none" stroke="#e377c2" cx="125.16" cy="-1206.26" rx="124.4" ry="16.03"/>
<text text-anchor="middle" x="125.16" y="-1202.56" font-family="Times,serif" font-size="14.00">okhmeta:Developme...</text>
</g>
<!-- http://w3id.org/oseg/ont/okhmeta#DevelopmentTag&#45;&gt;http://w3id.org/oseg/ont/okhmeta#Tag -->
<g id="edge31" class="edge">
<title>http://w3id.org/oseg/ont/okhmeta#DevelopmentTag&#45;&gt;http://w3id.org/oseg/ont/okhmeta#Tag</title>
<path fill="none" stroke="black" d="M202.94,-1193.47C220.92,-1186.95 238.3,-1177.11 250.32,-1162.26 288.95,-1114.53 225.32,-1069.11 268.32,-1025.26 292.24,-1000.87 386.83,-1009.05 420.32,-1002.26 447.32,-996.79 476.97,-989.4 501.78,-982.83"/>
<polygon fill="black" stroke="black" points="502.98,-986.13 511.74,-980.16 501.17,-979.36 502.98,-986.13"/>
<text text-anchor="middle" x="344.32" y="-1029.06" font-family="Times,serif" font-size="14.00">a</text>
</g>
<!-- http://w3id.org/oseg/ont/okhmeta#DevelopmentTag&#45;&gt;http://w3id.org/oseg/ont/okhmeta#MetaTag -->
<g id="edge7" class="edge">
<title>http://w3id.org/oseg/ont/okhmeta#DevelopmentTag&#45;&gt;http://w3id.org/oseg/ont/okhmeta#MetaTag</title>
<path fill="none" stroke="black" d="M207.86,-1218.43C316.34,-1232.32 513.45,-1249.69 678.73,-1221.26 761.01,-1207.11 780.44,-1195.16 856.73,-1161.26 889.34,-1146.77 924.61,-1126.59 949.62,-1111.44"/>
<polygon fill="black" stroke="black" points="951.64,-1114.31 958.35,-1106.11 947.99,-1108.34 951.64,-1114.31"/>
<text text-anchor="middle" x="558.52" y="-1240.06" font-family="Times,serif" font-size="14.00">okhmeta:hasMetaTag</text>
</g>
<!-- http://w3id.org/oseg/ont/oseg&#45;profiles#robinVobruba -->
<g id="node10" class="node">
<title>http://w3id.org/oseg/ont/oseg&#45;profiles#robinVobruba</title>
<ellipse fill="none" stroke="#e377c2" cx="558.52" cy="-175.26" rx="113.69" ry="16.03"/>
<text text-anchor="middle" x="558.52" y="-171.56" font-family="Times,serif" font-size="14.00">osegprof:robinVob...</text>
</g>
<!-- http://w3id.org/oseg/ont/okhmeta -->
<g id="node11" class="node">
<title>http://w3id.org/oseg/ont/okhmeta</title>
<ellipse fill="none" stroke="#e377c2" cx="125.16" cy="-173.26" rx="76.24" ry="16.03"/>
<text text-anchor="middle" x="125.16" y="-169.56" font-family="Times,serif" font-size="14.00">ns1:okhmeta</text>
</g>
<!-- http://w3id.org/oseg/ont/okhmeta&#45;&gt;http://www.w3.org/2002/07/owl#Ontology -->
<g id="edge38" class="edge">
<title>http://w3id.org/oseg/ont/okhmeta&#45;&gt;http://www.w3.org/2002/07/owl#Ontology</title>
<path fill="none" stroke="black" d="M141.48,-189.42C165.82,-214.03 215.98,-260.42 268.32,-283.26 332.92,-311.46 412.26,-323.19 471.49,-328.03"/>
<polygon fill="black" stroke="black" points="471.32,-331.53 481.56,-328.8 471.86,-324.55 471.32,-331.53"/>
<text text-anchor="middle" x="344.32" y="-326.06" font-family="Times,serif" font-size="14.00">a</text>
</g>
<!-- http://w3id.org/oseg/ont/okhmeta&#45;&gt;http://spdx.org/rdf/terms#SpdxItem -->
<g id="edge35" class="edge">
<title>http://w3id.org/oseg/ont/okhmeta&#45;&gt;http://spdx.org/rdf/terms#SpdxItem</title>
<path fill="none" stroke="black" d="M156.49,-188.24C184.78,-201.64 228.5,-220.86 268.32,-232.26 335.13,-251.4 412.95,-263.78 471.03,-271.16"/>
<polygon fill="black" stroke="black" points="470.91,-274.68 481.27,-272.44 471.78,-267.73 470.91,-274.68"/>
<text text-anchor="middle" x="344.32" y="-268.06" font-family="Times,serif" font-size="14.00">a</text>
</g>
<!-- http://w3id.org/oseg/ont/okhmeta&#45;&gt;http://spdx.org/licenses/GPL&#45;3.0&#45;or&#45;later -->
<g id="edge30" class="edge">
<title>http://w3id.org/oseg/ont/okhmeta&#45;&gt;http://spdx.org/licenses/GPL&#45;3.0&#45;or&#45;later</title>
<path fill="none" stroke="black" d="M187.68,-182.71C212.68,-186.46 241.86,-190.71 268.32,-194.26 332.63,-202.9 405.11,-211.67 461.43,-218.27"/>
<polygon fill="black" stroke="black" points="461.06,-221.75 471.4,-219.44 461.87,-214.8 461.06,-221.75"/>
<text text-anchor="middle" x="344.32" y="-217.06" font-family="Times,serif" font-size="14.00">spdx:licenseDeclared</text>
</g>
<!-- http://w3id.org/oseg/ont/okhmeta&#45;&gt;http://w3id.org/oseg/ont/oseg&#45;profiles#robinVobruba -->
<g id="edge5" class="edge">
<title>http://w3id.org/oseg/ont/okhmeta&#45;&gt;http://w3id.org/oseg/ont/oseg&#45;profiles#robinVobruba</title>
<path fill="none" stroke="black" d="M201.79,-173.61C265.95,-173.91 359.23,-174.34 434.17,-174.69"/>
<polygon fill="black" stroke="black" points="434.61,-178.19 444.62,-174.74 434.64,-171.19 434.61,-178.19"/>
<text text-anchor="middle" x="344.32" y="-179.06" font-family="Times,serif" font-size="14.00">dcterms:creator</text>
</g>
<!-- http://w3id.org/oseg/ont/okhmeta&#45;&gt;http://w3id.org/oseg/ont/oseg&#45;profiles#robinVobruba -->
<g id="edge32" class="edge">
<title>http://w3id.org/oseg/ont/okhmeta&#45;&gt;http://w3id.org/oseg/ont/oseg&#45;profiles#robinVobruba</title>
<path fill="none" stroke="black" d="M187.57,-163.77C212.56,-160.36 241.75,-156.94 268.32,-155.26 335.74,-151.01 352.94,-150.38 420.32,-155.26 438.24,-156.56 457.39,-158.81 475.51,-161.33"/>
<polygon fill="black" stroke="black" points="475.07,-164.8 485.46,-162.76 476.06,-157.87 475.07,-164.8"/>
<text text-anchor="middle" x="344.32" y="-159.06" font-family="Times,serif" font-size="14.00">schema:creator</text>
</g>
<!-- http://w3id.org/oseg/ont/1.1.0/okh&#45;meta -->
<g id="node25" class="node">
<title>http://w3id.org/oseg/ont/1.1.0/okh&#45;meta</title>
<ellipse fill="none" stroke="#e377c2" cx="558.52" cy="-118.26" rx="79.81" ry="16.03"/>
<text text-anchor="middle" x="558.52" y="-114.56" font-family="Times,serif" font-size="14.00">ns2:okh&#45;meta</text>
</g>
<!-- http://w3id.org/oseg/ont/okhmeta&#45;&gt;http://w3id.org/oseg/ont/1.1.0/okh&#45;meta -->
<g id="edge44" class="edge">
<title>http://w3id.org/oseg/ont/okhmeta&#45;&gt;http://w3id.org/oseg/ont/1.1.0/okh&#45;meta</title>
<path fill="none" stroke="black" d="M166.06,-159.46C194.26,-150.34 233.15,-139.05 268.32,-133.26 334.77,-122.33 410.87,-118.73 468.32,-117.79"/>
<polygon fill="black" stroke="black" points="468.51,-121.28 478.46,-117.64 468.41,-114.28 468.51,-121.28"/>
<text text-anchor="middle" x="344.32" y="-137.06" font-family="Times,serif" font-size="14.00">owl:versionIRI</text>
</g>
<!-- http://w3id.org/oseg/ont/oseg&#45;profiles#Iopa -->
<g id="node27" class="node">
<title>http://w3id.org/oseg/ont/oseg&#45;profiles#Iopa</title>
<ellipse fill="none" stroke="#e377c2" cx="558.52" cy="-67.26" rx="80.72" ry="16.03"/>
<text text-anchor="middle" x="558.52" y="-63.56" font-family="Times,serif" font-size="14.00">osegprof:Iopa</text>
</g>
<!-- http://w3id.org/oseg/ont/okhmeta&#45;&gt;http://w3id.org/oseg/ont/oseg&#45;profiles#Iopa -->
<g id="edge46" class="edge">
<title>http://w3id.org/oseg/ont/okhmeta&#45;&gt;http://w3id.org/oseg/ont/oseg&#45;profiles#Iopa</title>
<path fill="none" stroke="black" d="M149.68,-157.8C176.99,-140.66 223.97,-113.69 268.32,-100.26 333.34,-80.58 409.82,-72.47 467.79,-69.2"/>
<polygon fill="black" stroke="black" points="468.23,-72.68 478.03,-68.67 467.86,-65.69 468.23,-72.68"/>
<text text-anchor="middle" x="344.32" y="-104.06" font-family="Times,serif" font-size="14.00">dcterms:publisher</text>
</g>
<!-- http://id.loc.gov/vocabulary/iso639&#45;1/en -->
<g id="node28" class="node">
<title>http://id.loc.gov/vocabulary/iso639&#45;1/en</title>
<ellipse fill="none" stroke="#e377c2" cx="558.52" cy="-16.26" rx="45.01" ry="16.03"/>
<text text-anchor="middle" x="558.52" y="-12.56" font-family="Times,serif" font-size="14.00">ns3:en</text>
</g>
<!-- http://w3id.org/oseg/ont/okhmeta&#45;&gt;http://id.loc.gov/vocabulary/iso639&#45;1/en -->
<g id="edge26" class="edge">
<title>http://w3id.org/oseg/ont/okhmeta&#45;&gt;http://id.loc.gov/vocabulary/iso639&#45;1/en</title>
<path fill="none" stroke="black" d="M139.56,-157.26C162.76,-130.81 213.21,-78.46 268.32,-54.26 345.02,-20.58 443.36,-14.56 503.34,-14.52"/>
<polygon fill="black" stroke="black" points="503.34,-18.02 513.36,-14.57 503.37,-11.02 503.34,-18.02"/>
<text text-anchor="middle" x="344.32" y="-58.06" font-family="Times,serif" font-size="14.00">dcterms:language</text>
</g>
<!-- http://w3id.org/oseg/ont/okhmeta#PhysicalTag -->
<g id="node12" class="node">
<title>http://w3id.org/oseg/ont/okhmeta#PhysicalTag</title>
<ellipse fill="none" stroke="#e377c2" cx="125.16" cy="-578.26" rx="118.17" ry="16.03"/>
<text text-anchor="middle" x="125.16" y="-574.56" font-family="Times,serif" font-size="14.00">okhmeta:PhysicalTag</text>
</g>
<!-- http://w3id.org/oseg/ont/okhmeta#PhysicalTag&#45;&gt;http://w3id.org/oseg/ont/okhmeta#Tag -->
<g id="edge36" class="edge">
<title>http://w3id.org/oseg/ont/okhmeta#PhysicalTag&#45;&gt;http://w3id.org/oseg/ont/okhmeta#Tag</title>
<path fill="none" stroke="black" d="M163.77,-593.65C190,-605.62 224.73,-624.08 250.32,-647.26 260.73,-656.7 256.3,-665.98 268.32,-673.26 326.54,-708.55 372.57,-643.73 420.32,-692.26 446.34,-718.71 421.54,-825.17 438.32,-858.26 457.44,-896.01 495.44,-927.13 523.41,-946.32"/>
<polygon fill="black" stroke="black" points="521.48,-949.24 531.74,-951.88 525.37,-943.42 521.48,-949.24"/>
<text text-anchor="middle" x="344.32" y="-696.06" font-family="Times,serif" font-size="14.00">a</text>
</g>
<!-- http://w3id.org/oseg/ont/okhmeta#PhysicalTag&#45;&gt;http://w3id.org/oseg/ont/okhmeta#MetaTag -->
<g id="edge29" class="edge">
<title>http://w3id.org/oseg/ont/okhmeta#PhysicalTag&#45;&gt;http://w3id.org/oseg/ont/okhmeta#MetaTag</title>
<path fill="none" stroke="black" d="M151.21,-562.13C178.75,-545.23 224.88,-519.37 268.32,-506.26 393.53,-468.49 770.94,-419.55 856.73,-518.26 891.3,-558.05 852.41,-944.52 874.73,-992.26 890.03,-1024.99 921.85,-1051.6 947.11,-1068.79"/>
<polygon fill="black" stroke="black" points="945.46,-1071.89 955.74,-1074.47 949.31,-1066.05 945.46,-1071.89"/>
<text text-anchor="middle" x="558.52" y="-477.06" font-family="Times,serif" font-size="14.00">okhmeta:hasMetaTag</text>
</g>
<!-- http://w3id.org/oseg/ont/okhmeta#MakingTag -->
<g id="node13" class="node">
<title>http://w3id.org/oseg/ont/okhmeta#MakingTag</title>
<ellipse fill="none" stroke="#e377c2" cx="125.16" cy="-1426.26" rx="113.69" ry="16.03"/>
<text text-anchor="middle" x="125.16" y="-1422.56" font-family="Times,serif" font-size="14.00">okhmeta:MakingTag</text>
</g>
<!-- http://w3id.org/oseg/ont/okhmeta#MakingTag&#45;&gt;http://w3id.org/oseg/ont/okhmeta#Tag -->
<g id="edge6" class="edge">
<title>http://w3id.org/oseg/ont/okhmeta#MakingTag&#45;&gt;http://w3id.org/oseg/ont/okhmeta#Tag</title>
<path fill="none" stroke="black" d="M213.15,-1415.91C290.19,-1404.78 394.34,-1384.25 420.32,-1352.26 460.19,-1303.18 409.92,-1124.77 438.32,-1068.26 456.06,-1032.94 492.23,-1005.11 520.1,-987.68"/>
<polygon fill="black" stroke="black" points="522.09,-990.57 528.82,-982.39 518.46,-984.58 522.09,-990.57"/>
<text text-anchor="middle" x="344.32" y="-1409.06" font-family="Times,serif" font-size="14.00">a</text>
</g>
<!-- http://w3id.org/oseg/ont/okhmeta#MakingTag&#45;&gt;http://w3id.org/oseg/ont/okhmeta#MetaTag -->
<g id="edge37" class="edge">
<title>http://w3id.org/oseg/ont/okhmeta#MakingTag&#45;&gt;http://w3id.org/oseg/ont/okhmeta#MetaTag</title>
<path fill="none" stroke="black" d="M190.94,-1439.59C331.08,-1464.37 665.2,-1500.96 856.73,-1334.26 926.16,-1273.84 962.83,-1165.99 976.7,-1116.45"/>
<polygon fill="black" stroke="black" points="980.15,-1117.1 979.38,-1106.53 973.39,-1115.27 980.15,-1117.1"/>
<text text-anchor="middle" x="558.52" y="-1464.06" font-family="Times,serif" font-size="14.00">okhmeta:hasMetaTag</text>
</g>
<!-- http://w3id.org/oseg/ont/okhmeta#PartsTag -->
<g id="node14" class="node">
<title>http://w3id.org/oseg/ont/okhmeta#PartsTag</title>
<ellipse fill="none" stroke="#e377c2" cx="125.16" cy="-806.26" rx="103.48" ry="16.03"/>
<text text-anchor="middle" x="125.16" y="-802.56" font-family="Times,serif" font-size="14.00">okhmeta:PartsTag</text>
</g>
<!-- http://w3id.org/oseg/ont/okhmeta#PartsTag&#45;&gt;http://w3id.org/oseg/ont/okhmeta#Tag -->
<g id="edge9" class="edge">
<title>http://w3id.org/oseg/ont/okhmeta#PartsTag&#45;&gt;http://w3id.org/oseg/ont/okhmeta#Tag</title>
<path fill="none" stroke="black" d="M227.32,-803.62C286.06,-805.69 360.11,-814.63 420.32,-842.26 422.01,-843.04 493.15,-908.2 532.31,-944.12"/>
<polygon fill="black" stroke="black" points="530.41,-947.12 540.14,-951.3 535.14,-941.96 530.41,-947.12"/>
<text text-anchor="middle" x="344.32" y="-846.06" font-family="Times,serif" font-size="14.00">a</text>
</g>
<!-- http://w3id.org/oseg/ont/okhmeta#PartsTag&#45;&gt;http://w3id.org/oseg/ont/okhmeta#MetaTag -->
<g id="edge20" class="edge">
<title>http://w3id.org/oseg/ont/okhmeta#PartsTag&#45;&gt;http://w3id.org/oseg/ont/okhmeta#MetaTag</title>
<path fill="none" stroke="black" d="M208.1,-796.49C224.21,-790.89 239.46,-782.32 250.32,-769.26 274.46,-740.22 240.23,-625.52 268.32,-600.26 318.55,-555.09 355.8,-580.23 420.32,-600.26 532.71,-635.17 792.15,-801.88 856.73,-900.26 879.6,-935.09 854.21,-956 874.73,-992.26 892.74,-1024.1 924.86,-1051.13 949.51,-1068.69"/>
<polygon fill="black" stroke="black" points="947.67,-1071.67 957.89,-1074.49 951.66,-1065.92 947.67,-1071.67"/>
<text text-anchor="middle" x="558.52" y="-742.06" font-family="Times,serif" font-size="14.00">okhmeta:hasMetaTag</text>
</g>
<!-- http://w3id.org/oseg/ont/okhmeta#TransportationTag -->
<g id="node15" class="node">
<title>http://w3id.org/oseg/ont/okhmeta#TransportationTag</title>
<ellipse fill="none" stroke="#e377c2" cx="125.16" cy="-672.26" rx="118.17" ry="16.03"/>
<text text-anchor="middle" x="125.16" y="-668.56" font-family="Times,serif" font-size="14.00">okhmeta:Transport...</text>
</g>
<!-- http://w3id.org/oseg/ont/okhmeta#TransportationTag&#45;&gt;http://w3id.org/oseg/ont/okhmeta#Tag -->
<g id="edge10" class="edge">
<title>http://w3id.org/oseg/ont/okhmeta#TransportationTag&#45;&gt;http://w3id.org/oseg/ont/okhmeta#Tag</title>
<path fill="none" stroke="black" d="M174.14,-687.11C201.52,-695.15 236.6,-704.75 268.32,-711.26 301.72,-718.12 396.15,-708.21 420.32,-732.26 460.41,-772.17 411.89,-808.25 438.32,-858.26 458.05,-895.63 495.86,-926.77 523.62,-946.07"/>
<polygon fill="black" stroke="black" points="522.01,-949.21 532.25,-951.92 525.93,-943.41 522.01,-949.21"/>
<text text-anchor="middle" x="344.32" y="-736.06" font-family="Times,serif" font-size="14.00">a</text>
</g>
<!-- http://w3id.org/oseg/ont/okhmeta#TransportationTag&#45;&gt;http://w3id.org/oseg/ont/okhmeta#MetaTag -->
<g id="edge1" class="edge">
<title>http://w3id.org/oseg/ont/okhmeta#TransportationTag&#45;&gt;http://w3id.org/oseg/ont/okhmeta#MetaTag</title>
<path fill="none" stroke="black" d="M169.48,-657.12C195.99,-645.9 228.83,-628.2 250.32,-603.26 265.19,-586 250.14,-569 268.32,-555.26 372.87,-476.26 776.04,-491 856.73,-594.26 883.99,-629.14 855.84,-952.23 874.73,-992.26 890.15,-1024.93 921.96,-1051.55 947.18,-1068.76"/>
<polygon fill="black" stroke="black" points="945.52,-1071.85 955.8,-1074.44 949.38,-1066.01 945.52,-1071.85"/>
<text text-anchor="middle" x="558.52" y="-522.06" font-family="Times,serif" font-size="14.00">okhmeta:hasMetaTag</text>
</g>
<!-- http://w3id.org/oseg/ont/okhmeta#LegalTag -->
<g id="node16" class="node">
<title>http://w3id.org/oseg/ont/okhmeta#LegalTag</title>
<ellipse fill="none" stroke="#e377c2" cx="125.16" cy="-1374.26" rx="103.89" ry="16.03"/>
<text text-anchor="middle" x="125.16" y="-1370.56" font-family="Times,serif" font-size="14.00">okhmeta:LegalTag</text>
</g>
<!-- http://w3id.org/oseg/ont/okhmeta#LegalTag&#45;&gt;http://w3id.org/oseg/ont/okhmeta#Tag -->
<g id="edge15" class="edge">
<title>http://w3id.org/oseg/ont/okhmeta#LegalTag&#45;&gt;http://w3id.org/oseg/ont/okhmeta#Tag</title>
<path fill="none" stroke="black" d="M208.33,-1364.42C223.07,-1360.3 237.73,-1354.47 250.32,-1346.26 356.78,-1276.81 359.64,-1227.96 420.32,-1116.26 431.19,-1096.24 425.2,-1086.89 438.32,-1068.26 461.46,-1035.38 497.77,-1006.71 524.24,-988.41"/>
<polygon fill="black" stroke="black" points="526.49,-991.11 532.81,-982.6 522.57,-985.31 526.49,-991.11"/>
<text text-anchor="middle" x="344.32" y="-1337.06" font-family="Times,serif" font-size="14.00">a</text>
</g>
<!-- http://w3id.org/oseg/ont/okhmeta#LegalTag&#45;&gt;http://w3id.org/oseg/ont/okhmeta#MetaTag -->
<g id="edge4" class="edge">
<title>http://w3id.org/oseg/ont/okhmeta#LegalTag&#45;&gt;http://w3id.org/oseg/ont/okhmeta#MetaTag</title>
<path fill="none" stroke="black" d="M223.48,-1379.58C334.64,-1383.63 521.48,-1384.21 678.73,-1354.26 761.17,-1338.56 791.19,-1343.67 856.73,-1291.26 916.82,-1243.22 956.56,-1158.47 973.7,-1116.01"/>
<polygon fill="black" stroke="black" points="976.98,-1117.25 977.39,-1106.66 970.47,-1114.68 976.98,-1117.25"/>
<text text-anchor="middle" x="558.52" y="-1382.06" font-family="Times,serif" font-size="14.00">okhmeta:hasMetaTag</text>
</g>
<!-- http://w3id.org/oseg/ont/okhmeta#hasMetaTag -->
<g id="node17" class="node">
<title>http://w3id.org/oseg/ont/okhmeta#hasMetaTag</title>
<ellipse fill="none" stroke="#e377c2" cx="558.52" cy="-1581.26" rx="120.42" ry="16.03"/>
<text text-anchor="middle" x="558.52" y="-1577.56" font-family="Times,serif" font-size="14.00">okhmeta:hasMetaTag</text>
</g>
<!-- http://w3id.org/oseg/ont/okhmeta#hasMetaTag&#45;&gt;http://www.w3.org/2004/02/skos/core#Concept -->
<g id="edge48" class="edge">
<title>http://w3id.org/oseg/ont/okhmeta#hasMetaTag&#45;&gt;http://www.w3.org/2004/02/skos/core#Concept</title>
<path fill="none" stroke="black" d="M671.27,-1575.59C727.11,-1572.1 795.63,-1566.82 856.73,-1559.26 876.25,-1556.85 897.33,-1553.49 916.59,-1550.12"/>
<polygon fill="black" stroke="black" points="917.24,-1553.56 926.48,-1548.37 916.02,-1546.67 917.24,-1553.56"/>
<text text-anchor="middle" x="776.73" y="-1577.06" font-family="Times,serif" font-size="14.00">a</text>
</g>
<!-- http://w3id.org/oseg/ont/okhmeta#hasMetaTag&#45;&gt;http://www.w3.org/2002/07/owl#ObjectProperty -->
<g id="edge16" class="edge">
<title>http://w3id.org/oseg/ont/okhmeta#hasMetaTag&#45;&gt;http://www.w3.org/2002/07/owl#ObjectProperty</title>
<path fill="none" stroke="black" d="M648.41,-1592.15C664.48,-1593.97 681.1,-1595.75 696.73,-1597.26 755.18,-1602.91 820.45,-1608.02 873.92,-1611.88"/>
<polygon fill="black" stroke="black" points="873.88,-1615.39 884.1,-1612.61 874.38,-1608.41 873.88,-1615.39"/>
<text text-anchor="middle" x="776.73" y="-1614.06" font-family="Times,serif" font-size="14.00">a</text>
</g>
<!-- http://w3id.org/oseg/ont/okhmeta#hasMetaTag&#45;&gt;http://w3id.org/oseg/ont/okhmeta#MetaTag -->
<g id="edge2" class="edge">
<title>http://w3id.org/oseg/ont/okhmeta#hasMetaTag&#45;&gt;http://w3id.org/oseg/ont/okhmeta#MetaTag</title>
<path fill="none" stroke="black" d="M573.65,-1564.92C596.63,-1539.54 644.79,-1491.2 696.73,-1468.26 762.45,-1439.24 801.12,-1490.74 856.73,-1445.26 960.61,-1360.31 979.3,-1183.64 982.63,-1116.73"/>
<polygon fill="black" stroke="black" points="986.13,-1116.74 983.05,-1106.6 979.14,-1116.45 986.13,-1116.74"/>
<text text-anchor="middle" x="776.73" y="-1472.06" font-family="Times,serif" font-size="14.00">okhmeta:hasMetaTag</text>
</g>
<!-- http://w3id.org/oseg/ont/okhmeta#hasMetaTag&#45;&gt;http://w3id.org/oseg/ont/okhmeta#MetaTag -->
<g id="edge3" class="edge">
<title>http://w3id.org/oseg/ont/okhmeta#hasMetaTag&#45;&gt;http://w3id.org/oseg/ont/okhmeta#MetaTag</title>
<path fill="none" stroke="black" d="M603.21,-1566.11C629.93,-1557.37 664.96,-1546.85 696.73,-1540.26 731.79,-1533 829.38,-1544.37 856.73,-1521.26 920.57,-1467.32 966.26,-1201.59 979.44,-1116.51"/>
<polygon fill="black" stroke="black" points="982.9,-1117.03 980.95,-1106.62 975.98,-1115.98 982.9,-1117.03"/>
<text text-anchor="middle" x="776.73" y="-1544.06" font-family="Times,serif" font-size="14.00">schema:rangeIncludes</text>
</g>
<!-- http://www.w3.org/2004/02/skos/core#member -->
<g id="node22" class="node">
<title>http://www.w3.org/2004/02/skos/core#member</title>
<ellipse fill="none" stroke="#e377c2" cx="984.33" cy="-1670.26" rx="79.39" ry="16.03"/>
<text text-anchor="middle" x="984.33" y="-1666.56" font-family="Times,serif" font-size="14.00">skos:member</text>
</g>
<!-- http://w3id.org/oseg/ont/okhmeta#hasMetaTag&#45;&gt;http://www.w3.org/2004/02/skos/core#member -->
<g id="edge23" class="edge">
<title>http://w3id.org/oseg/ont/okhmeta#hasMetaTag&#45;&gt;http://www.w3.org/2004/02/skos/core#member</title>
<path fill="none" stroke="black" d="M597.37,-1596.74C624.59,-1607.32 662.41,-1620.89 696.73,-1629.26 764.68,-1645.84 843.43,-1656.51 901.17,-1662.8"/>
<polygon fill="black" stroke="black" points="901.03,-1666.3 911.34,-1663.88 901.77,-1659.34 901.03,-1666.3"/>
<text text-anchor="middle" x="776.73" y="-1660.06" font-family="Times,serif" font-size="14.00">subPropertyOf</text>
</g>
<!-- http://w3id.org/oseg/ont/okhmeta#AcademicTag -->
<g id="node18" class="node">
<title>http://w3id.org/oseg/ont/okhmeta#AcademicTag</title>
<ellipse fill="none" stroke="#e377c2" cx="125.16" cy="-1321.26" rx="124.4" ry="16.03"/>
<text text-anchor="middle" x="125.16" y="-1317.56" font-family="Times,serif" font-size="14.00">okhmeta:AcademicTag</text>
</g>
<!-- http://w3id.org/oseg/ont/okhmeta#AcademicTag&#45;&gt;http://w3id.org/oseg/ont/okhmeta#Tag -->
<g id="edge17" class="edge">
<title>http://w3id.org/oseg/ont/okhmeta#AcademicTag&#45;&gt;http://w3id.org/oseg/ont/okhmeta#Tag</title>
<path fill="none" stroke="black" d="M222.64,-1311.07C233.16,-1306.39 242.76,-1299.98 250.32,-1291.26 278.09,-1259.21 239.17,-1132.08 268.32,-1101.26 315.26,-1051.62 357.8,-1105.82 420.32,-1078.26 444.87,-1067.44 500.06,-1019.46 532.46,-990.24"/>
<polygon fill="black" stroke="black" points="535.12,-992.56 540.18,-983.25 530.42,-987.37 535.12,-992.56"/>
<text text-anchor="middle" x="344.32" y="-1105.06" font-family="Times,serif" font-size="14.00">a</text>
</g>
<!-- http://w3id.org/oseg/ont/okhmeta#AcademicTag&#45;&gt;http://w3id.org/oseg/ont/okhmeta#MetaTag -->
<g id="edge25" class="edge">
<title>http://w3id.org/oseg/ont/okhmeta#AcademicTag&#45;&gt;http://w3id.org/oseg/ont/okhmeta#MetaTag</title>
<path fill="none" stroke="black" d="M229.06,-1330.25C340.84,-1337.6 524.14,-1342.55 678.73,-1313.26 761.78,-1297.53 788.16,-1295.69 856.73,-1246.26 906.65,-1210.28 947.89,-1149.81 968.71,-1115.69"/>
<polygon fill="black" stroke="black" points="971.89,-1117.18 974.03,-1106.8 965.89,-1113.59 971.89,-1117.18"/>
<text text-anchor="middle" x="558.52" y="-1339.06" font-family="Times,serif" font-size="14.00">okhmeta:hasMetaTag</text>
</g>
<!-- http://w3id.org/oseg/ont/okhmeta#BasicTag -->
<g id="node19" class="node">
<title>http://w3id.org/oseg/ont/okhmeta#BasicTag</title>
<ellipse fill="none" stroke="#e377c2" cx="125.16" cy="-866.26" rx="103.48" ry="16.03"/>
<text text-anchor="middle" x="125.16" y="-862.56" font-family="Times,serif" font-size="14.00">okhmeta:BasicTag</text>
</g>
<!-- http://w3id.org/oseg/ont/okhmeta#BasicTag&#45;&gt;http://w3id.org/oseg/ont/okhmeta#Tag -->
<g id="edge18" class="edge">
<title>http://w3id.org/oseg/ont/okhmeta#BasicTag&#45;&gt;http://w3id.org/oseg/ont/okhmeta#Tag</title>
<path fill="none" stroke="black" d="M220.99,-860.16C279.69,-859.19 355.88,-863.08 420.32,-883.26 462.16,-896.37 504.29,-925 530.61,-945.18"/>
<polygon fill="black" stroke="black" points="528.55,-948 538.58,-951.4 532.86,-942.49 528.55,-948"/>
<text text-anchor="middle" x="344.32" y="-887.06" font-family="Times,serif" font-size="14.00">a</text>
</g>
<!-- http://w3id.org/oseg/ont/okhmeta#BasicTag&#45;&gt;http://w3id.org/oseg/ont/okhmeta#MetaTag -->
<g id="edge12" class="edge">
<title>http://w3id.org/oseg/ont/okhmeta#BasicTag&#45;&gt;http://w3id.org/oseg/ont/okhmeta#MetaTag</title>
<path fill="none" stroke="black" d="M208.62,-856.61C267.79,-851.42 349.28,-847.81 420.32,-857.26 619.72,-883.79 680.32,-880.6 856.73,-977.26 859.65,-978.86 921.61,-1034.58 957.75,-1067.17"/>
<polygon fill="black" stroke="black" points="955.7,-1070.03 965.47,-1074.13 960.39,-1064.83 955.7,-1070.03"/>
<text text-anchor="middle" x="558.52" y="-902.06" font-family="Times,serif" font-size="14.00">okhmeta:hasMetaTag</text>
</g>
<!-- http://w3id.org/oseg/ont/okhmeta#IdentificationTag -->
<g id="node20" class="node">
<title>http://w3id.org/oseg/ont/okhmeta#IdentificationTag</title>
<ellipse fill="none" stroke="#e377c2" cx="125.16" cy="-388.26" rx="109.7" ry="16.03"/>
<text text-anchor="middle" x="125.16" y="-384.56" font-family="Times,serif" font-size="14.00">okhmeta:Identific...</text>
</g>
<!-- http://w3id.org/oseg/ont/okhmeta#IdentificationTag&#45;&gt;http://w3id.org/oseg/ont/okhmeta#Tag -->
<g id="edge19" class="edge">
<title>http://w3id.org/oseg/ont/okhmeta#IdentificationTag&#45;&gt;http://w3id.org/oseg/ont/okhmeta#Tag</title>
<path fill="none" stroke="black" d="M206.58,-399.19C221.8,-403.39 237.08,-409.21 250.32,-417.26 349.69,-477.73 376.03,-508.7 420.32,-616.26 461.38,-715.99 391.19,-761.25 438.32,-858.26 456.8,-896.33 494.91,-927.39 523.09,-946.48"/>
<polygon fill="black" stroke="black" points="521.21,-949.43 531.48,-952.01 525.06,-943.58 521.21,-949.43"/>
<text text-anchor="middle" x="344.32" y="-620.06" font-family="Times,serif" font-size="14.00">a</text>
</g>
<!-- http://w3id.org/oseg/ont/okhmeta#IdentificationTag&#45;&gt;http://w3id.org/oseg/ont/okhmeta#MetaTag -->
<g id="edge13" class="edge">
<title>http://w3id.org/oseg/ont/okhmeta#IdentificationTag&#45;&gt;http://w3id.org/oseg/ont/okhmeta#MetaTag</title>
<path fill="none" stroke="black" d="M228.09,-382.59C419.03,-373.09 815.14,-359.14 856.73,-404.26 878.88,-428.29 861,-962.61 874.73,-992.26 889.91,-1025.04 921.74,-1051.65 947.04,-1068.82"/>
<polygon fill="black" stroke="black" points="945.4,-1071.93 955.68,-1074.5 949.25,-1066.08 945.4,-1071.93"/>
<text text-anchor="middle" x="558.52" y="-379.06" font-family="Times,serif" font-size="14.00">okhmeta:hasMetaTag</text>
</g>
<!-- http://w3id.org/oseg/ont/okhmeta#ExtendedInfoTag -->
<g id="node21" class="node">
<title>http://w3id.org/oseg/ont/okhmeta#ExtendedInfoTag</title>
<ellipse fill="none" stroke="#e377c2" cx="125.16" cy="-1050.26" rx="120.42" ry="16.03"/>
<text text-anchor="middle" x="125.16" y="-1046.56" font-family="Times,serif" font-size="14.00">okhmeta:ExtendedI...</text>
</g>
<!-- http://w3id.org/oseg/ont/okhmeta#ExtendedInfoTag&#45;&gt;http://w3id.org/oseg/ont/okhmeta#Tag -->
<g id="edge22" class="edge">
<title>http://w3id.org/oseg/ont/okhmeta#ExtendedInfoTag&#45;&gt;http://w3id.org/oseg/ont/okhmeta#Tag</title>
<path fill="none" stroke="black" d="M141.77,-1034.02C166.12,-1010 215.82,-966.01 268.32,-949.26 346.47,-924.33 442.4,-938.46 501.75,-952.01"/>
<polygon fill="black" stroke="black" points="501.14,-955.46 511.68,-954.35 502.75,-948.65 501.14,-955.46"/>
<text text-anchor="middle" x="344.32" y="-953.06" font-family="Times,serif" font-size="14.00">a</text>
</g>
<!-- http://w3id.org/oseg/ont/okhmeta#ExtendedInfoTag&#45;&gt;http://w3id.org/oseg/ont/okhmeta#MetaTag -->
<g id="edge33" class="edge">
<title>http://w3id.org/oseg/ont/okhmeta#ExtendedInfoTag&#45;&gt;http://w3id.org/oseg/ont/okhmeta#MetaTag</title>
<path fill="none" stroke="black" d="M177.94,-1064.97C203.12,-1074.6 231.87,-1089.69 250.32,-1112.26 269.82,-1136.14 243.85,-1160.5 268.32,-1179.26 321.92,-1220.37 359.89,-1209.48 420.32,-1179.26 432.24,-1173.3 426.76,-1161.92 438.32,-1155.26 443.18,-1152.46 736.34,-1118.55 890.62,-1100.86"/>
<polygon fill="black" stroke="black" points="891.04,-1104.33 900.58,-1099.72 890.25,-1097.38 891.04,-1104.33"/>
<text text-anchor="middle" x="558.52" y="-1159.06" font-family="Times,serif" font-size="14.00">okhmeta:hasMetaTag</text>
</g>
<!-- http://w3id.org/oseg/ont/okhmeta#DocumentationTag -->
<g id="node23" class="node">
<title>http://w3id.org/oseg/ont/okhmeta#DocumentationTag</title>
<ellipse fill="none" stroke="#e377c2" cx="125.16" cy="-442.26" rx="125.32" ry="16.03"/>
<text text-anchor="middle" x="125.16" y="-438.56" font-family="Times,serif" font-size="14.00">okhmeta:Documenta...</text>
</g>
<!-- http://w3id.org/oseg/ont/okhmeta#DocumentationTag&#45;&gt;http://w3id.org/oseg/ont/okhmeta#Tag -->
<g id="edge42" class="edge">
<title>http://w3id.org/oseg/ont/okhmeta#DocumentationTag&#45;&gt;http://w3id.org/oseg/ont/okhmeta#Tag</title>
<path fill="none" stroke="black" d="M152.17,-458.24C180.82,-477.24 226.03,-511.7 250.32,-553.26 269.14,-585.48 240.75,-610.12 268.32,-635.26 318.61,-681.15 373.06,-605.26 420.32,-654.26 451.91,-687.02 418.15,-817.47 438.32,-858.26 457.07,-896.2 495.13,-927.28 523.22,-946.41"/>
<polygon fill="black" stroke="black" points="521.32,-949.35 531.59,-951.96 525.19,-943.52 521.32,-949.35"/>
<text text-anchor="middle" x="344.32" y="-658.06" font-family="Times,serif" font-size="14.00">a</text>
</g>
<!-- http://w3id.org/oseg/ont/okhmeta#DocumentationTag&#45;&gt;http://w3id.org/oseg/ont/okhmeta#MetaTag -->
<g id="edge39" class="edge">
<title>http://w3id.org/oseg/ont/okhmeta#DocumentationTag&#45;&gt;http://w3id.org/oseg/ont/okhmeta#MetaTag</title>
<path fill="none" stroke="black" d="M209.81,-430.28C382.91,-407.62 771.41,-368.52 856.73,-460.26 897.01,-503.57 849.79,-938.63 874.73,-992.26 889.96,-1025.02 921.79,-1051.63 947.07,-1068.81"/>
<polygon fill="black" stroke="black" points="945.43,-1071.91 955.71,-1074.49 949.28,-1066.07 945.43,-1071.91"/>
<text text-anchor="middle" x="558.52" y="-412.06" font-family="Times,serif" font-size="14.00">okhmeta:hasMetaTag</text>
</g>
<!-- http://w3id.org/oseg/ont/okhmeta#DataGatheringTag -->
<g id="node24" class="node">
<title>http://w3id.org/oseg/ont/okhmeta#DataGatheringTag</title>
<ellipse fill="none" stroke="#e377c2" cx="125.16" cy="-928.26" rx="122.16" ry="16.03"/>
<text text-anchor="middle" x="125.16" y="-924.56" font-family="Times,serif" font-size="14.00">okhmeta:DataGathe...</text>
</g>
<!-- http://w3id.org/oseg/ont/okhmeta#DataGatheringTag&#45;&gt;http://w3id.org/oseg/ont/okhmeta#Tag -->
<g id="edge43" class="edge">
<title>http://w3id.org/oseg/ont/okhmeta#DataGatheringTag&#45;&gt;http://w3id.org/oseg/ont/okhmeta#Tag</title>
<path fill="none" stroke="black" d="M193.99,-914.81C254.03,-905.15 343.77,-896.24 420.32,-911.26 455.77,-918.22 493.62,-934.4 520.57,-947.59"/>
<polygon fill="black" stroke="black" points="519.11,-950.77 529.62,-952.11 522.24,-944.51 519.11,-950.77"/>
<text text-anchor="middle" x="344.32" y="-915.06" font-family="Times,serif" font-size="14.00">a</text>
</g>
<!-- http://w3id.org/oseg/ont/okhmeta#DataGatheringTag&#45;&gt;http://w3id.org/oseg/ont/okhmeta#MetaTag -->
<g id="edge40" class="edge">
<title>http://w3id.org/oseg/ont/okhmeta#DataGatheringTag&#45;&gt;http://w3id.org/oseg/ont/okhmeta#MetaTag</title>
<path fill="none" stroke="black" d="M158.15,-944.03C187.29,-960.19 228.93,-988.18 250.32,-1025.26 279.24,-1075.41 224.65,-1116.26 268.32,-1154.26 293.8,-1176.44 392.55,-1173.5 420.32,-1154.26 439.04,-1141.29 419.78,-1119.51 438.32,-1106.26 472.68,-1081.69 724.16,-1083.61 873.23,-1087.02"/>
<polygon fill="black" stroke="black" points="873.26,-1090.52 883.34,-1087.26 873.43,-1083.52 873.26,-1090.52"/>
<text text-anchor="middle" x="558.52" y="-1110.06" font-family="Times,serif" font-size="14.00">okhmeta:hasMetaTag</text>
</g>
<!-- http://w3id.org/oseg/ont/okhmeta#HistoryTag -->
<g id="node26" class="node">
<title>http://w3id.org/oseg/ont/okhmeta#HistoryTag</title>
<ellipse fill="none" stroke="#e377c2" cx="125.16" cy="-744.26" rx="113.69" ry="16.03"/>
<text text-anchor="middle" x="125.16" y="-740.56" font-family="Times,serif" font-size="14.00">okhmeta:HistoryTag</text>
</g>
<!-- http://w3id.org/oseg/ont/okhmeta#HistoryTag&#45;&gt;http://w3id.org/oseg/ont/okhmeta#Tag -->
<g id="edge45" class="edge">
<title>http://w3id.org/oseg/ont/okhmeta#HistoryTag&#45;&gt;http://w3id.org/oseg/ont/okhmeta#Tag</title>
<path fill="none" stroke="black" d="M235.69,-748.24C307.71,-753.13 393.42,-764.01 420.32,-788.26 444.17,-809.78 421.78,-830.73 438.32,-858.26 460.21,-894.71 497.97,-926.21 525.14,-945.85"/>
<polygon fill="black" stroke="black" points="523.36,-948.88 533.55,-951.8 527.41,-943.16 523.36,-948.88"/>
<text text-anchor="middle" x="344.32" y="-792.06" font-family="Times,serif" font-size="14.00">a</text>
</g>
<!-- http://w3id.org/oseg/ont/okhmeta#HistoryTag&#45;&gt;http://w3id.org/oseg/ont/okhmeta#MetaTag -->
<g id="edge41" class="edge">
<title>http://w3id.org/oseg/ont/okhmeta#HistoryTag&#45;&gt;http://w3id.org/oseg/ont/okhmeta#MetaTag</title>
<path fill="none" stroke="black" d="M197.04,-731.56C217.03,-724.61 236.95,-713.87 250.32,-697.26 284.68,-654.57 226.83,-611.08 268.32,-575.26 303.43,-544.95 609.63,-559.98 678.73,-589.26 778.05,-631.35 809.87,-657.1 856.73,-754.26 902.81,-849.81 828.01,-897.03 874.73,-992.26 890.64,-1024.69 922.4,-1051.34 947.48,-1068.62"/>
<polygon fill="black" stroke="black" points="945.77,-1071.69 956.03,-1074.33 949.66,-1065.87 945.77,-1071.69"/>
<text text-anchor="middle" x="558.52" y="-593.06" font-family="Times,serif" font-size="14.00">okhmeta:hasMetaTag</text>
</g>
<!-- http://w3id.org/oseg/ont/okhmeta#QualityTag -->
<g id="node29" class="node">
<title>http://w3id.org/oseg/ont/okhmeta#QualityTag</title>
<ellipse fill="none" stroke="#e377c2" cx="125.16" cy="-1137.26" rx="113.27" ry="16.03"/>
<text text-anchor="middle" x="125.16" y="-1133.56" font-family="Times,serif" font-size="14.00">okhmeta:QualityTag</text>
</g>
<!-- http://w3id.org/oseg/ont/okhmeta#QualityTag&#45;&gt;http://w3id.org/oseg/ont/okhmeta#Tag -->
<g id="edge27" class="edge">
<title>http://w3id.org/oseg/ont/okhmeta#QualityTag&#45;&gt;http://w3id.org/oseg/ont/okhmeta#Tag</title>
<path fill="none" stroke="black" d="M178.83,-1122.9C204.09,-1113.38 232.64,-1098.29 250.32,-1075.26 274.62,-1043.6 238.28,-1013.56 268.32,-987.26 283.43,-974.03 392.2,-969.52 471.91,-968.01"/>
<polygon fill="black" stroke="black" points="472.04,-971.51 481.97,-967.83 471.91,-964.51 472.04,-971.51"/>
<text text-anchor="middle" x="344.32" y="-991.06" font-family="Times,serif" font-size="14.00">a</text>
</g>
<!-- http://w3id.org/oseg/ont/okhmeta#QualityTag&#45;&gt;http://w3id.org/oseg/ont/okhmeta#MetaTag -->
<g id="edge21" class="edge">
<title>http://w3id.org/oseg/ont/okhmeta#QualityTag&#45;&gt;http://w3id.org/oseg/ont/okhmeta#MetaTag</title>
<path fill="none" stroke="black" d="M186.02,-1150.99C207.59,-1157.79 231.29,-1167.57 250.32,-1181.26 260.85,-1188.84 256.65,-1198.58 268.32,-1204.26 329.05,-1233.85 352.9,-1208.68 420.32,-1204.26 616.85,-1191.39 666.43,-1178.03 856.73,-1127.26 879.56,-1121.17 904.56,-1113.98 926.27,-1107.56"/>
<polygon fill="black" stroke="black" points="927.4,-1110.88 935.99,-1104.68 925.41,-1104.17 927.4,-1110.88"/>
<text text-anchor="middle" x="558.52" y="-1206.06" font-family="Times,serif" font-size="14.00">okhmeta:hasMetaTag</text>
</g>
<!-- http://w3id.org/oseg/ont/okhmeta#DataTag -->
<g id="node30" class="node">
<title>http://w3id.org/oseg/ont/okhmeta#DataTag</title>
<ellipse fill="none" stroke="#e377c2" cx="125.16" cy="-1266.26" rx="100.32" ry="16.03"/>
<text text-anchor="middle" x="125.16" y="-1262.56" font-family="Times,serif" font-size="14.00">okhmeta:DataTag</text>
</g>
<!-- http://w3id.org/oseg/ont/okhmeta#DataTag&#45;&gt;http://w3id.org/oseg/ont/okhmeta#Tag -->
<g id="edge47" class="edge">
<title>http://w3id.org/oseg/ont/okhmeta#DataTag&#45;&gt;http://w3id.org/oseg/ont/okhmeta#Tag</title>
<path fill="none" stroke="black" d="M209.61,-1257.32C225.14,-1251.97 239.77,-1243.75 250.32,-1231.26 298.77,-1173.9 216.38,-1117.5 268.32,-1063.26 291.94,-1038.59 387.88,-1051 420.32,-1040.26 458.52,-1027.62 498.78,-1004.93 525.73,-988.19"/>
<polygon fill="black" stroke="black" points="527.75,-991.06 534.34,-982.77 524.01,-985.14 527.75,-991.06"/>
<text text-anchor="middle" x="344.32" y="-1067.06" font-family="Times,serif" font-size="14.00">a</text>
</g>
<!-- http://w3id.org/oseg/ont/okhmeta#DataTag&#45;&gt;http://w3id.org/oseg/ont/okhmeta#MetaTag -->
<g id="edge8" class="edge">
<title>http://w3id.org/oseg/ont/okhmeta#DataTag&#45;&gt;http://w3id.org/oseg/ont/okhmeta#MetaTag</title>
<path fill="none" stroke="black" d="M195.16,-1277.94C331.38,-1297.37 640.34,-1323.3 856.73,-1203.26 899.04,-1179.79 939.17,-1139.93 962.5,-1114.37"/>
<polygon fill="black" stroke="black" points="965.39,-1116.39 969.47,-1106.61 960.18,-1111.71 965.39,-1116.39"/>
<text text-anchor="middle" x="558.52" y="-1298.06" font-family="Times,serif" font-size="14.00">okhmeta:hasMetaTag</text>
</g>
</g>
</svg>
