<?xml version="1.0" encoding="UTF-8" standalone="no"?>
<!DOCTYPE svg PUBLIC "-//W3C//DTD SVG 1.1//EN"
 "http://www.w3.org/Graphics/SVG/1.1/DTD/svg11.dtd">
<!-- Generated by graphviz version 2.43.0 (0)
 -->
<!-- Title: G Pages: 1 -->
<svg width="1096pt" height="1657pt"
 viewBox="0.00 0.00 1095.94 1656.62" xmlns="http://www.w3.org/2000/svg" xmlns:xlink="http://www.w3.org/1999/xlink">
<g id="graph0" class="graph" transform="scale(1 1) rotate(0) translate(4 1652.62)">
<title>G</title>
<polygon fill="white" stroke="transparent" points="-4,4 -4,-1652.62 1091.94,-1652.62 1091.94,4 -4,4"/>
<!-- http://www.w3.org/2004/02/skos/core#Collection -->
<g id="node1" class="node">
<title>http://www.w3.org/2004/02/skos/core#Collection</title>
<ellipse fill="none" stroke="#e377c2" cx="978.33" cy="-652.36" rx="87.86" ry="16.03"/>
<text text-anchor="middle" x="978.33" y="-648.66" font-family="Times,serif" font-size="14.00">skos:Collection</text>
</g>
<!-- http://spdx.org/rdf/terms#SpdxItem -->
<g id="node2" class="node">
<title>http://spdx.org/rdf/terms#SpdxItem</title>
<ellipse fill="none" stroke="#1f77b4" cx="558.52" cy="-1632.36" rx="87.86" ry="16.03"/>
<text text-anchor="middle" x="558.52" y="-1628.66" font-family="Times,serif" font-size="14.00">spdx:SpdxItem</text>
</g>
<!-- http://www.w3.org/2002/07/owl#ObjectProperty -->
<g id="node3" class="node">
<title>http://www.w3.org/2002/07/owl#ObjectProperty</title>
<ellipse fill="none" stroke="#1f77b4" cx="978.33" cy="-1364.36" rx="109.7" ry="16.03"/>
<text text-anchor="middle" x="978.33" y="-1360.66" font-family="Times,serif" font-size="14.00">owl:ObjectProperty</text>
</g>
<!-- http://www.w3.org/2004/02/skos/core#Concept -->
<g id="node4" class="node">
<title>http://www.w3.org/2004/02/skos/core#Concept</title>
<ellipse fill="none" stroke="#1f77b4" cx="978.33" cy="-1230.36" rx="78.48" ry="16.03"/>
<text text-anchor="middle" x="978.33" y="-1226.66" font-family="Times,serif" font-size="14.00">skos:Concept</text>
</g>
<!-- http://w3id.org/oseg/ont/okhmeta#Tag -->
<g id="node5" class="node">
<title>http://w3id.org/oseg/ont/okhmeta#Tag</title>
<ellipse fill="none" stroke="#e377c2" cx="558.52" cy="-652.36" rx="76.24" ry="16.03"/>
<text text-anchor="middle" x="558.52" y="-648.66" font-family="Times,serif" font-size="14.00">okhmeta:Tag</text>
</g>
<!-- http://w3id.org/oseg/ont/okhmeta#Tag&#45;&gt;http://www.w3.org/2004/02/skos/core#Collection -->
<g id="edge4" class="edge">
<title>http://w3id.org/oseg/ont/okhmeta#Tag&#45;&gt;http://www.w3.org/2004/02/skos/core#Collection</title>
<path fill="none" stroke="black" d="M635.19,-652.36C703.8,-652.36 805.33,-652.36 879.97,-652.36"/>
<polygon fill="black" stroke="black" points="880.32,-655.86 890.32,-652.36 880.32,-648.86 880.32,-655.86"/>
</g>
<!-- http://w3id.org/oseg/ont/okhmeta#Tag&#45;&gt;http://www.w3.org/2004/02/skos/core#Concept -->
<g id="edge2" class="edge">
<title>http://w3id.org/oseg/ont/okhmeta#Tag&#45;&gt;http://www.w3.org/2004/02/skos/core#Concept</title>
<path fill="none" stroke="black" d="M585.81,-667.7C614.51,-686.09 659,-719.83 678.73,-762.36 698.16,-804.23 665.42,-1143.45 696.73,-1177.36 720.13,-1202.69 816.89,-1189.76 850.73,-1196.36 874.96,-1201.08 901.38,-1207.91 923.79,-1214.2"/>
<polygon fill="black" stroke="black" points="922.87,-1217.58 933.45,-1216.95 924.79,-1210.85 922.87,-1217.58"/>
<text text-anchor="middle" x="773.73" y="-1200.16" font-family="Times,serif" font-size="14.00">a</text>
</g>
<!-- http://w3id.org/oseg/ont/okhmeta#MetaTag -->
<g id="node7" class="node">
<title>http://w3id.org/oseg/ont/okhmeta#MetaTag</title>
<ellipse fill="none" stroke="#e377c2" cx="978.33" cy="-784.36" rx="102.56" ry="16.03"/>
<text text-anchor="middle" x="978.33" y="-780.66" font-family="Times,serif" font-size="14.00">okhmeta:MetaTag</text>
</g>
<!-- http://w3id.org/oseg/ont/okhmeta#Tag&#45;&gt;http://w3id.org/oseg/ont/okhmeta#MetaTag -->
<g id="edge28" class="edge">
<title>http://w3id.org/oseg/ont/okhmeta#Tag&#45;&gt;http://w3id.org/oseg/ont/okhmeta#MetaTag</title>
<path fill="none" stroke="black" d="M589.75,-667.26C617.19,-680.38 659,-699.36 696.73,-712.36 735.82,-725.82 840.44,-751.69 910.3,-768.48"/>
<polygon fill="black" stroke="black" points="909.8,-771.96 920.34,-770.89 911.43,-765.15 909.8,-771.96"/>
<text text-anchor="middle" x="773.73" y="-757.16" font-family="Times,serif" font-size="14.00">okhmeta:hasMetaTag</text>
</g>
<!-- http://www.w3.org/2002/07/owl#Ontology -->
<g id="node6" class="node">
<title>http://www.w3.org/2002/07/owl#Ontology</title>
<ellipse fill="none" stroke="#1f77b4" cx="558.52" cy="-1581.36" rx="77.56" ry="16.03"/>
<text text-anchor="middle" x="558.52" y="-1577.66" font-family="Times,serif" font-size="14.00">owl:Ontology</text>
</g>
<!-- http://w3id.org/oseg/ont/okhmeta#MetaTag&#45;&gt;http://w3id.org/oseg/ont/okhmeta#Tag -->
<g id="edge16" class="edge">
<title>http://w3id.org/oseg/ont/okhmeta#MetaTag&#45;&gt;http://w3id.org/oseg/ont/okhmeta#Tag</title>
<path fill="none" stroke="black" d="M959.56,-768.22C936.36,-748.12 893.62,-714.37 850.73,-697.36 813.04,-682.4 710.34,-668.71 637.61,-660.46"/>
<polygon fill="black" stroke="black" points="637.89,-656.97 627.56,-659.33 637.11,-663.92 637.89,-656.97"/>
<text text-anchor="middle" x="773.73" y="-701.16" font-family="Times,serif" font-size="14.00">a</text>
</g>
<!-- http://w3id.org/oseg/ont/okhmeta#MetaTag&#45;&gt;http://w3id.org/oseg/ont/okhmeta#MetaTag -->
<g id="edge18" class="edge">
<title>http://w3id.org/oseg/ont/okhmeta#MetaTag&#45;&gt;http://w3id.org/oseg/ont/okhmeta#MetaTag</title>
<path fill="none" stroke="black" d="M942.78,-799.86C934.21,-809.48 946.06,-818.62 978.33,-818.62 998.5,-818.62 1010.7,-815.05 1014.91,-810.02"/>
<polygon fill="black" stroke="black" points="1018.37,-809.46 1013.88,-799.86 1011.41,-810.17 1018.37,-809.46"/>
<text text-anchor="middle" x="978.33" y="-822.42" font-family="Times,serif" font-size="14.00">okhmeta:hasMetaTag</text>
</g>
<!-- http://w3id.org/oseg/ont/oseg&#45;profiles#robinVobruba -->
<g id="node8" class="node">
<title>http://w3id.org/oseg/ont/oseg&#45;profiles#robinVobruba</title>
<ellipse fill="none" stroke="#e377c2" cx="558.52" cy="-1530.36" rx="113.69" ry="16.03"/>
<text text-anchor="middle" x="558.52" y="-1526.66" font-family="Times,serif" font-size="14.00">osegprof:robinVob...</text>
</g>
<!-- http://w3id.org/oseg/ont/okhmeta#DataGatheringTag -->
<g id="node9" class="node">
<title>http://w3id.org/oseg/ont/okhmeta#DataGatheringTag</title>
<ellipse fill="none" stroke="#e377c2" cx="125.16" cy="-900.36" rx="122.16" ry="16.03"/>
<text text-anchor="middle" x="125.16" y="-896.66" font-family="Times,serif" font-size="14.00">okhmeta:DataGathe...</text>
</g>
<!-- http://w3id.org/oseg/ont/okhmeta#DataGatheringTag&#45;&gt;http://w3id.org/oseg/ont/okhmeta#Tag -->
<g id="edge26" class="edge">
<title>http://w3id.org/oseg/ont/okhmeta#DataGatheringTag&#45;&gt;http://w3id.org/oseg/ont/okhmeta#Tag</title>
<path fill="none" stroke="black" d="M202.62,-887.68C220.71,-881.16 238.23,-871.29 250.32,-856.36 288.95,-808.62 225.32,-763.21 268.32,-719.36 292.24,-694.97 387.06,-704.16 420.32,-696.36 450.55,-689.27 483.73,-678.71 509.88,-669.71"/>
<polygon fill="black" stroke="black" points="511.25,-672.94 519.54,-666.35 508.95,-666.33 511.25,-672.94"/>
<text text-anchor="middle" x="344.32" y="-723.16" font-family="Times,serif" font-size="14.00">a</text>
</g>
<!-- http://w3id.org/oseg/ont/okhmeta#DataGatheringTag&#45;&gt;http://w3id.org/oseg/ont/okhmeta#MetaTag -->
<g id="edge42" class="edge">
<title>http://w3id.org/oseg/ont/okhmeta#DataGatheringTag&#45;&gt;http://w3id.org/oseg/ont/okhmeta#MetaTag</title>
<path fill="none" stroke="black" d="M202.31,-913.07C223.61,-916.08 246.81,-918.85 268.32,-920.36 341.2,-925.46 674.82,-916.06 678.73,-915.36 780.92,-897.03 889.94,-837.73 943.56,-805.57"/>
<polygon fill="black" stroke="black" points="945.56,-808.45 952.3,-800.28 941.93,-802.47 945.56,-808.45"/>
<text text-anchor="middle" x="558.52" y="-925.16" font-family="Times,serif" font-size="14.00">okhmeta:hasMetaTag</text>
</g>
<!-- http://w3id.org/oseg/ont/oseg&#45;profiles#Iopa -->
<g id="node10" class="node">
<title>http://w3id.org/oseg/ont/oseg&#45;profiles#Iopa</title>
<ellipse fill="none" stroke="#e377c2" cx="558.52" cy="-1479.36" rx="80.72" ry="16.03"/>
<text text-anchor="middle" x="558.52" y="-1475.66" font-family="Times,serif" font-size="14.00">osegprof:Iopa</text>
</g>
<!-- http://w3id.org/oseg/ont/okhmeta#AcademicTag -->
<g id="node11" class="node">
<title>http://w3id.org/oseg/ont/okhmeta#AcademicTag</title>
<ellipse fill="none" stroke="#e377c2" cx="125.16" cy="-310.36" rx="124.4" ry="16.03"/>
<text text-anchor="middle" x="125.16" y="-306.66" font-family="Times,serif" font-size="14.00">okhmeta:AcademicTag</text>
</g>
<!-- http://w3id.org/oseg/ont/okhmeta#AcademicTag&#45;&gt;http://w3id.org/oseg/ont/okhmeta#Tag -->
<g id="edge3" class="edge">
<title>http://w3id.org/oseg/ont/okhmeta#AcademicTag&#45;&gt;http://w3id.org/oseg/ont/okhmeta#Tag</title>
<path fill="none" stroke="black" d="M171.05,-325.57C194.93,-334.11 224.6,-345.43 250.32,-357.36 258.62,-361.21 259.63,-364.49 268.32,-367.36 300.67,-378.04 396.49,-363 420.32,-387.36 446.11,-413.73 420.93,-519.83 438.32,-552.36 456.87,-587.08 492.93,-614.68 520.55,-632.01"/>
<polygon fill="black" stroke="black" points="518.83,-635.06 529.19,-637.27 522.47,-629.08 518.83,-635.06"/>
<text text-anchor="middle" x="344.32" y="-391.16" font-family="Times,serif" font-size="14.00">a</text>
</g>
<!-- http://w3id.org/oseg/ont/okhmeta#AcademicTag&#45;&gt;http://w3id.org/oseg/ont/okhmeta#MetaTag -->
<g id="edge34" class="edge">
<title>http://w3id.org/oseg/ont/okhmeta#AcademicTag&#45;&gt;http://w3id.org/oseg/ont/okhmeta#MetaTag</title>
<path fill="none" stroke="black" d="M162.38,-294.73C188.43,-282.46 223.54,-263.74 250.32,-241.36 260.01,-233.26 257.49,-225.87 268.32,-219.36 425.19,-125.06 495.85,-177.93 678.73,-185.36 755.37,-188.47 797.69,-143.96 850.73,-199.36 887.49,-237.75 847.29,-628.73 868.73,-677.36 884.56,-713.26 918.47,-743.46 944.22,-762.53"/>
<polygon fill="black" stroke="black" points="942.44,-765.56 952.6,-768.56 946.53,-759.88 942.44,-765.56"/>
<text text-anchor="middle" x="558.52" y="-189.16" font-family="Times,serif" font-size="14.00">okhmeta:hasMetaTag</text>
</g>
<!-- http://w3id.org/oseg/ont/okhmeta#MakingTag -->
<g id="node12" class="node">
<title>http://w3id.org/oseg/ont/okhmeta#MakingTag</title>
<ellipse fill="none" stroke="#e377c2" cx="125.16" cy="-1120.36" rx="113.69" ry="16.03"/>
<text text-anchor="middle" x="125.16" y="-1116.66" font-family="Times,serif" font-size="14.00">okhmeta:MakingTag</text>
</g>
<!-- http://w3id.org/oseg/ont/okhmeta#MakingTag&#45;&gt;http://w3id.org/oseg/ont/okhmeta#Tag -->
<g id="edge5" class="edge">
<title>http://w3id.org/oseg/ont/okhmeta#MakingTag&#45;&gt;http://w3id.org/oseg/ont/okhmeta#Tag</title>
<path fill="none" stroke="black" d="M214.23,-1110.14C291.13,-1099.24 394.4,-1079.1 420.32,-1047.36 460.46,-998.21 411.04,-819.66 438.32,-762.36 456.64,-723.88 494.96,-692.45 523.23,-673.19"/>
<polygon fill="black" stroke="black" points="525.25,-676.05 531.65,-667.6 521.38,-670.21 525.25,-676.05"/>
<text text-anchor="middle" x="344.32" y="-1105.16" font-family="Times,serif" font-size="14.00">a</text>
</g>
<!-- http://w3id.org/oseg/ont/okhmeta#MakingTag&#45;&gt;http://w3id.org/oseg/ont/okhmeta#MetaTag -->
<g id="edge35" class="edge">
<title>http://w3id.org/oseg/ont/okhmeta#MakingTag&#45;&gt;http://w3id.org/oseg/ont/okhmeta#MetaTag</title>
<path fill="none" stroke="black" d="M190.3,-1133.74C329.45,-1158.73 661.7,-1195.98 850.73,-1029.36 920,-968.31 956.75,-860.2 970.67,-810.58"/>
<polygon fill="black" stroke="black" points="974.12,-811.22 973.37,-800.65 967.37,-809.38 974.12,-811.22"/>
<text text-anchor="middle" x="558.52" y="-1160.16" font-family="Times,serif" font-size="14.00">okhmeta:hasMetaTag</text>
</g>
<!-- http://w3id.org/oseg/ont/okhmeta#BasicTag -->
<g id="node13" class="node">
<title>http://w3id.org/oseg/ont/okhmeta#BasicTag</title>
<ellipse fill="none" stroke="#e377c2" cx="125.16" cy="-500.36" rx="103.48" ry="16.03"/>
<text text-anchor="middle" x="125.16" y="-496.66" font-family="Times,serif" font-size="14.00">okhmeta:BasicTag</text>
</g>
<!-- http://w3id.org/oseg/ont/okhmeta#BasicTag&#45;&gt;http://w3id.org/oseg/ont/okhmeta#Tag -->
<g id="edge30" class="edge">
<title>http://w3id.org/oseg/ont/okhmeta#BasicTag&#45;&gt;http://w3id.org/oseg/ont/okhmeta#Tag</title>
<path fill="none" stroke="black" d="M228.57,-500.17C286.89,-503.38 360.09,-513.15 420.32,-539.36 426.74,-542.15 493.08,-597.84 531.11,-629.97"/>
<polygon fill="black" stroke="black" points="528.87,-632.66 538.76,-636.45 533.39,-627.32 528.87,-632.66"/>
<text text-anchor="middle" x="344.32" y="-543.16" font-family="Times,serif" font-size="14.00">a</text>
</g>
<!-- http://w3id.org/oseg/ont/okhmeta#BasicTag&#45;&gt;http://w3id.org/oseg/ont/okhmeta#MetaTag -->
<g id="edge32" class="edge">
<title>http://w3id.org/oseg/ont/okhmeta#BasicTag&#45;&gt;http://w3id.org/oseg/ont/okhmeta#MetaTag</title>
<path fill="none" stroke="black" d="M215.2,-492.33C228.58,-487.41 241,-480.1 250.32,-469.36 275.93,-439.82 239.29,-320.55 268.32,-294.36 318.47,-249.1 355.9,-274.01 420.32,-294.36 531.73,-329.55 785.84,-499.19 850.73,-596.36 871.21,-627.03 850.87,-645.1 868.73,-677.36 887.86,-711.89 921.56,-742.5 946.36,-762.04"/>
<polygon fill="black" stroke="black" points="944.34,-764.9 954.4,-768.24 948.61,-759.36 944.34,-764.9"/>
<text text-anchor="middle" x="558.52" y="-442.16" font-family="Times,serif" font-size="14.00">okhmeta:hasMetaTag</text>
</g>
<!-- http://w3id.org/oseg/ont/okhmeta#IdentificationTag -->
<g id="node14" class="node">
<title>http://w3id.org/oseg/ont/okhmeta#IdentificationTag</title>
<ellipse fill="none" stroke="#e377c2" cx="125.16" cy="-382.36" rx="109.7" ry="16.03"/>
<text text-anchor="middle" x="125.16" y="-378.66" font-family="Times,serif" font-size="14.00">okhmeta:Identific...</text>
</g>
<!-- http://w3id.org/oseg/ont/okhmeta#IdentificationTag&#45;&gt;http://w3id.org/oseg/ont/okhmeta#Tag -->
<g id="edge7" class="edge">
<title>http://w3id.org/oseg/ont/okhmeta#IdentificationTag&#45;&gt;http://w3id.org/oseg/ont/okhmeta#Tag</title>
<path fill="none" stroke="black" d="M199.69,-394.34C286.5,-408.53 419.34,-430.37 420.32,-431.36 458.43,-470.14 411.76,-504.91 438.32,-552.36 457.6,-586.82 493.73,-614.53 521.18,-631.96"/>
<polygon fill="black" stroke="black" points="519.41,-634.98 529.75,-637.26 523.09,-629.03 519.41,-634.98"/>
<text text-anchor="middle" x="344.32" y="-435.16" font-family="Times,serif" font-size="14.00">a</text>
</g>
<!-- http://w3id.org/oseg/ont/okhmeta#IdentificationTag&#45;&gt;http://w3id.org/oseg/ont/okhmeta#MetaTag -->
<g id="edge36" class="edge">
<title>http://w3id.org/oseg/ont/okhmeta#IdentificationTag&#45;&gt;http://w3id.org/oseg/ont/okhmeta#MetaTag</title>
<path fill="none" stroke="black" d="M194.85,-369.74C215.34,-362.78 236.1,-352.01 250.32,-335.36 275.95,-305.32 238.75,-274.53 268.32,-248.36 325.09,-198.12 362.57,-237.47 438.32,-234.36 623.02,-226.77 737.92,-141.92 850.73,-288.36 877.14,-322.64 851.11,-637.84 868.73,-677.36 884.71,-713.19 918.6,-743.41 944.3,-762.49"/>
<polygon fill="black" stroke="black" points="942.51,-765.51 952.67,-768.53 946.61,-759.84 942.51,-765.51"/>
<text text-anchor="middle" x="558.52" y="-238.16" font-family="Times,serif" font-size="14.00">okhmeta:hasMetaTag</text>
</g>
<!-- http://spdx.org/licenses/GPL&#45;3.0&#45;or&#45;later -->
<g id="node15" class="node">
<title>http://spdx.org/licenses/GPL&#45;3.0&#45;or&#45;later</title>
<ellipse fill="none" stroke="#e377c2" cx="558.52" cy="-1428.36" rx="108.79" ry="16.03"/>
<text text-anchor="middle" x="558.52" y="-1424.66" font-family="Times,serif" font-size="14.00">spdxl:GPL&#45;3.0&#45;or&#45;...</text>
</g>
<!-- http://www.w3.org/2004/02/skos/core#member -->
<g id="node16" class="node">
<title>http://www.w3.org/2004/02/skos/core#member</title>
<ellipse fill="none" stroke="#e377c2" cx="978.33" cy="-1313.36" rx="79.39" ry="16.03"/>
<text text-anchor="middle" x="978.33" y="-1309.66" font-family="Times,serif" font-size="14.00">skos:member</text>
</g>
<!-- http://id.loc.gov/vocabulary/iso639&#45;1/en -->
<g id="node17" class="node">
<title>http://id.loc.gov/vocabulary/iso639&#45;1/en</title>
<ellipse fill="none" stroke="#e377c2" cx="558.52" cy="-1377.36" rx="45.01" ry="16.03"/>
<text text-anchor="middle" x="558.52" y="-1373.66" font-family="Times,serif" font-size="14.00">ns1:en</text>
</g>
<!-- http://w3id.org/oseg/ont/okhmeta#LegalTag -->
<g id="node18" class="node">
<title>http://w3id.org/oseg/ont/okhmeta#LegalTag</title>
<ellipse fill="none" stroke="#e377c2" cx="125.16" cy="-1068.36" rx="103.89" ry="16.03"/>
<text text-anchor="middle" x="125.16" y="-1064.66" font-family="Times,serif" font-size="14.00">okhmeta:LegalTag</text>
</g>
<!-- http://w3id.org/oseg/ont/okhmeta#LegalTag&#45;&gt;http://w3id.org/oseg/ont/okhmeta#Tag -->
<g id="edge10" class="edge">
<title>http://w3id.org/oseg/ont/okhmeta#LegalTag&#45;&gt;http://w3id.org/oseg/ont/okhmeta#Tag</title>
<path fill="none" stroke="black" d="M208.33,-1058.52C223.07,-1054.39 237.73,-1048.57 250.32,-1040.36 356.78,-970.91 359.64,-922.06 420.32,-810.36 431.19,-790.34 425.6,-781.26 438.32,-762.36 462.29,-726.73 500,-694.51 526.58,-674.29"/>
<polygon fill="black" stroke="black" points="528.87,-676.95 534.78,-668.16 524.68,-671.34 528.87,-676.95"/>
<text text-anchor="middle" x="344.32" y="-1032.16" font-family="Times,serif" font-size="14.00">a</text>
</g>
<!-- http://w3id.org/oseg/ont/okhmeta#LegalTag&#45;&gt;http://w3id.org/oseg/ont/okhmeta#MetaTag -->
<g id="edge23" class="edge">
<title>http://w3id.org/oseg/ont/okhmeta#LegalTag&#45;&gt;http://w3id.org/oseg/ont/okhmeta#MetaTag</title>
<path fill="none" stroke="black" d="M223.99,-1073.49C335.22,-1077.28 521.75,-1077.45 678.73,-1047.36 758.39,-1032.09 787.45,-1037.1 850.73,-986.36 910.97,-938.06 950.64,-852.89 967.73,-810.23"/>
<polygon fill="black" stroke="black" points="971.03,-811.42 971.41,-800.83 964.51,-808.87 971.03,-811.42"/>
<text text-anchor="middle" x="558.52" y="-1077.16" font-family="Times,serif" font-size="14.00">okhmeta:hasMetaTag</text>
</g>
<!-- http://w3id.org/oseg/ont/okhmeta#ExtendedInfoTag -->
<g id="node19" class="node">
<title>http://w3id.org/oseg/ont/okhmeta#ExtendedInfoTag</title>
<ellipse fill="none" stroke="#e377c2" cx="125.16" cy="-1015.36" rx="120.42" ry="16.03"/>
<text text-anchor="middle" x="125.16" y="-1011.66" font-family="Times,serif" font-size="14.00">okhmeta:ExtendedI...</text>
</g>
<!-- http://w3id.org/oseg/ont/okhmeta#ExtendedInfoTag&#45;&gt;http://w3id.org/oseg/ont/okhmeta#Tag -->
<g id="edge11" class="edge">
<title>http://w3id.org/oseg/ont/okhmeta#ExtendedInfoTag&#45;&gt;http://w3id.org/oseg/ont/okhmeta#Tag</title>
<path fill="none" stroke="black" d="M221.73,-1005.57C232.6,-1000.85 242.55,-994.32 250.32,-985.36 278.09,-953.31 239.17,-826.17 268.32,-795.36 315.26,-745.72 358.34,-801.11 420.32,-772.36 445.96,-760.46 502.65,-706.72 534.55,-675.33"/>
<polygon fill="black" stroke="black" points="537.07,-677.77 541.72,-668.25 532.15,-672.79 537.07,-677.77"/>
<text text-anchor="middle" x="344.32" y="-799.16" font-family="Times,serif" font-size="14.00">a</text>
</g>
<!-- http://w3id.org/oseg/ont/okhmeta#ExtendedInfoTag&#45;&gt;http://w3id.org/oseg/ont/okhmeta#MetaTag -->
<g id="edge38" class="edge">
<title>http://w3id.org/oseg/ont/okhmeta#ExtendedInfoTag&#45;&gt;http://w3id.org/oseg/ont/okhmeta#MetaTag</title>
<path fill="none" stroke="black" d="M228.55,-1023.73C340.27,-1030.49 523.89,-1034.68 678.73,-1005.36 758.87,-990.18 784.55,-989.03 850.73,-941.36 900.86,-905.26 942.02,-844.36 962.77,-809.98"/>
<polygon fill="black" stroke="black" points="965.98,-811.42 968.07,-801.03 959.96,-807.85 965.98,-811.42"/>
<text text-anchor="middle" x="558.52" y="-1032.16" font-family="Times,serif" font-size="14.00">okhmeta:hasMetaTag</text>
</g>
<!-- http://w3id.org/oseg/ont/okhmeta#hasMetaTag -->
<g id="node20" class="node">
<title>http://w3id.org/oseg/ont/okhmeta#hasMetaTag</title>
<ellipse fill="none" stroke="#e377c2" cx="558.52" cy="-1275.36" rx="120.42" ry="16.03"/>
<text text-anchor="middle" x="558.52" y="-1271.66" font-family="Times,serif" font-size="14.00">okhmeta:hasMetaTag</text>
</g>
<!-- http://w3id.org/oseg/ont/okhmeta#hasMetaTag&#45;&gt;http://www.w3.org/2002/07/owl#ObjectProperty -->
<g id="edge12" class="edge">
<title>http://w3id.org/oseg/ont/okhmeta#hasMetaTag&#45;&gt;http://www.w3.org/2002/07/owl#ObjectProperty</title>
<path fill="none" stroke="black" d="M645.29,-1286.72C657.02,-1290.34 668.53,-1295.1 678.73,-1301.36 689.5,-1307.96 685.74,-1317.14 696.73,-1323.36 745.74,-1351.1 806.97,-1362.24 859.71,-1366.07"/>
<polygon fill="black" stroke="black" points="859.6,-1369.57 869.8,-1366.72 860.05,-1362.58 859.6,-1369.57"/>
<text text-anchor="middle" x="773.73" y="-1369.16" font-family="Times,serif" font-size="14.00">a</text>
</g>
<!-- http://w3id.org/oseg/ont/okhmeta#hasMetaTag&#45;&gt;http://www.w3.org/2004/02/skos/core#Concept -->
<g id="edge39" class="edge">
<title>http://w3id.org/oseg/ont/okhmeta#hasMetaTag&#45;&gt;http://www.w3.org/2004/02/skos/core#Concept</title>
<path fill="none" stroke="black" d="M671.46,-1269.64C725.73,-1266.17 791.77,-1260.92 850.73,-1253.36 870.64,-1250.81 892.17,-1247.21 911.72,-1243.62"/>
<polygon fill="black" stroke="black" points="912.56,-1247.03 921.75,-1241.75 911.28,-1240.15 912.56,-1247.03"/>
<text text-anchor="middle" x="773.73" y="-1272.16" font-family="Times,serif" font-size="14.00">a</text>
</g>
<!-- http://w3id.org/oseg/ont/okhmeta#hasMetaTag&#45;&gt;http://w3id.org/oseg/ont/okhmeta#MetaTag -->
<g id="edge6" class="edge">
<title>http://w3id.org/oseg/ont/okhmeta#hasMetaTag&#45;&gt;http://w3id.org/oseg/ont/okhmeta#MetaTag</title>
<path fill="none" stroke="black" d="M603.22,-1260.26C629.94,-1251.54 664.98,-1241.01 696.73,-1234.36 730.48,-1227.29 824.45,-1237.68 850.73,-1215.36 914.44,-1161.27 960.22,-895.63 973.43,-810.6"/>
<polygon fill="black" stroke="black" points="976.89,-811.12 974.94,-800.71 969.97,-810.06 976.89,-811.12"/>
<text text-anchor="middle" x="773.73" y="-1238.16" font-family="Times,serif" font-size="14.00">okhmeta:hasMetaTag</text>
</g>
<!-- http://w3id.org/oseg/ont/okhmeta#hasMetaTag&#45;&gt;http://w3id.org/oseg/ont/okhmeta#MetaTag -->
<g id="edge46" class="edge">
<title>http://w3id.org/oseg/ont/okhmeta#hasMetaTag&#45;&gt;http://w3id.org/oseg/ont/okhmeta#MetaTag</title>
<path fill="none" stroke="black" d="M573.67,-1259.05C596.67,-1233.72 644.85,-1185.44 696.73,-1162.36 759.96,-1134.23 797.28,-1183.32 850.73,-1139.36 954.38,-1054.12 973.21,-877.62 976.6,-810.79"/>
<polygon fill="black" stroke="black" points="980.1,-810.82 977.04,-800.68 973.11,-810.52 980.1,-810.82"/>
<text text-anchor="middle" x="773.73" y="-1166.16" font-family="Times,serif" font-size="14.00">dcam:rangeIncludes</text>
</g>
<!-- http://w3id.org/oseg/ont/okhmeta#hasMetaTag&#45;&gt;http://www.w3.org/2004/02/skos/core#member -->
<g id="edge9" class="edge">
<title>http://w3id.org/oseg/ont/okhmeta#hasMetaTag&#45;&gt;http://www.w3.org/2004/02/skos/core#member</title>
<path fill="none" stroke="black" d="M648.41,-1286.22C664.48,-1288.04 681.1,-1289.84 696.73,-1291.36 762.43,-1297.76 836.93,-1303.53 892.65,-1307.56"/>
<polygon fill="black" stroke="black" points="892.6,-1311.06 902.83,-1308.29 893.1,-1304.08 892.6,-1311.06"/>
<text text-anchor="middle" x="773.73" y="-1308.16" font-family="Times,serif" font-size="14.00">subPropertyOf</text>
</g>
<!-- http://w3id.org/oseg/ont/okhmeta#DevelopmentTag -->
<g id="node21" class="node">
<title>http://w3id.org/oseg/ont/okhmeta#DevelopmentTag</title>
<ellipse fill="none" stroke="#e377c2" cx="125.16" cy="-560.36" rx="124.4" ry="16.03"/>
<text text-anchor="middle" x="125.16" y="-556.66" font-family="Times,serif" font-size="14.00">okhmeta:Developme...</text>
</g>
<!-- http://w3id.org/oseg/ont/okhmeta#DevelopmentTag&#45;&gt;http://w3id.org/oseg/ont/okhmeta#Tag -->
<g id="edge13" class="edge">
<title>http://w3id.org/oseg/ont/okhmeta#DevelopmentTag&#45;&gt;http://w3id.org/oseg/ont/okhmeta#Tag</title>
<path fill="none" stroke="black" d="M247.59,-557.4C301.39,-558.93 364.9,-564.69 420.32,-580.36 459.16,-591.34 499.6,-614.18 526.43,-631.21"/>
<polygon fill="black" stroke="black" points="524.68,-634.25 534.98,-636.74 528.48,-628.37 524.68,-634.25"/>
<text text-anchor="middle" x="344.32" y="-584.16" font-family="Times,serif" font-size="14.00">a</text>
</g>
<!-- http://w3id.org/oseg/ont/okhmeta#DevelopmentTag&#45;&gt;http://w3id.org/oseg/ont/okhmeta#MetaTag -->
<g id="edge27" class="edge">
<title>http://w3id.org/oseg/ont/okhmeta#DevelopmentTag&#45;&gt;http://w3id.org/oseg/ont/okhmeta#MetaTag</title>
<path fill="none" stroke="black" d="M231.55,-551.85C380.07,-544.83 654.7,-550.52 850.73,-664.36 873.79,-677.75 925.02,-729.49 954.76,-760.49"/>
<polygon fill="black" stroke="black" points="952.39,-763.08 961.83,-767.89 957.45,-758.24 952.39,-763.08"/>
<text text-anchor="middle" x="558.52" y="-598.16" font-family="Times,serif" font-size="14.00">okhmeta:hasMetaTag</text>
</g>
<!-- http://w3id.org/oseg/ont/1.1.0/okh&#45;meta -->
<g id="node22" class="node">
<title>http://w3id.org/oseg/ont/1.1.0/okh&#45;meta</title>
<ellipse fill="none" stroke="#e377c2" cx="558.52" cy="-1326.36" rx="79.81" ry="16.03"/>
<text text-anchor="middle" x="558.52" y="-1322.66" font-family="Times,serif" font-size="14.00">ns2:okh&#45;meta</text>
</g>
<!-- http://w3id.org/oseg/ont/okhmeta#PartsTag -->
<g id="node23" class="node">
<title>http://w3id.org/oseg/ont/okhmeta#PartsTag</title>
<ellipse fill="none" stroke="#e377c2" cx="125.16" cy="-80.36" rx="103.48" ry="16.03"/>
<text text-anchor="middle" x="125.16" y="-76.66" font-family="Times,serif" font-size="14.00">okhmeta:PartsTag</text>
</g>
<!-- http://w3id.org/oseg/ont/okhmeta#PartsTag&#45;&gt;http://w3id.org/oseg/ont/okhmeta#Tag -->
<g id="edge17" class="edge">
<title>http://w3id.org/oseg/ont/okhmeta#PartsTag&#45;&gt;http://w3id.org/oseg/ont/okhmeta#Tag</title>
<path fill="none" stroke="black" d="M161.12,-95.71C225.52,-126.09 361.66,-200.58 420.32,-310.36 471.14,-405.48 389.13,-456.37 438.32,-552.36 456.21,-587.29 492.19,-614.78 519.96,-632.02"/>
<polygon fill="black" stroke="black" points="518.28,-635.1 528.65,-637.26 521.89,-629.1 518.28,-635.1"/>
<text text-anchor="middle" x="344.32" y="-314.16" font-family="Times,serif" font-size="14.00">a</text>
</g>
<!-- http://w3id.org/oseg/ont/okhmeta#PartsTag&#45;&gt;http://w3id.org/oseg/ont/okhmeta#MetaTag -->
<g id="edge19" class="edge">
<title>http://w3id.org/oseg/ont/okhmeta#PartsTag&#45;&gt;http://w3id.org/oseg/ont/okhmeta#MetaTag</title>
<path fill="none" stroke="black" d="M167.73,-65.45C292.91,-23.53 668.77,80.14 850.73,-114.36 872.11,-137.21 856.19,-648.69 868.73,-677.36 884.46,-713.31 918.39,-743.5 944.17,-762.55"/>
<polygon fill="black" stroke="black" points="942.39,-765.59 952.56,-768.58 946.48,-759.9 942.39,-765.59"/>
<text text-anchor="middle" x="558.52" y="-19.16" font-family="Times,serif" font-size="14.00">okhmeta:hasMetaTag</text>
</g>
<!-- http://w3id.org/oseg/ont/okhmeta#HistoryTag -->
<g id="node24" class="node">
<title>http://w3id.org/oseg/ont/okhmeta#HistoryTag</title>
<ellipse fill="none" stroke="#e377c2" cx="125.16" cy="-744.36" rx="113.69" ry="16.03"/>
<text text-anchor="middle" x="125.16" y="-740.66" font-family="Times,serif" font-size="14.00">okhmeta:HistoryTag</text>
</g>
<!-- http://w3id.org/oseg/ont/okhmeta#HistoryTag&#45;&gt;http://w3id.org/oseg/ont/okhmeta#Tag -->
<g id="edge40" class="edge">
<title>http://w3id.org/oseg/ont/okhmeta#HistoryTag&#45;&gt;http://w3id.org/oseg/ont/okhmeta#Tag</title>
<path fill="none" stroke="black" d="M141.77,-728.12C166.12,-704.09 215.82,-660.11 268.32,-643.36 343.75,-619.29 435.94,-628.27 495.65,-638.73"/>
<polygon fill="black" stroke="black" points="495.21,-642.21 505.68,-640.56 496.46,-635.32 495.21,-642.21"/>
<text text-anchor="middle" x="344.32" y="-647.16" font-family="Times,serif" font-size="14.00">a</text>
</g>
<!-- http://w3id.org/oseg/ont/okhmeta#HistoryTag&#45;&gt;http://w3id.org/oseg/ont/okhmeta#MetaTag -->
<g id="edge44" class="edge">
<title>http://w3id.org/oseg/ont/okhmeta#HistoryTag&#45;&gt;http://w3id.org/oseg/ont/okhmeta#MetaTag</title>
<path fill="none" stroke="black" d="M177.31,-758.83C202.65,-768.45 231.72,-783.6 250.32,-806.36 269.82,-830.24 243.85,-854.6 268.32,-873.36 321.92,-914.47 359.89,-903.57 420.32,-873.36 432.24,-867.4 426.77,-856.03 438.32,-849.36 447.87,-843.84 731.67,-811.64 883.53,-794.73"/>
<polygon fill="black" stroke="black" points="884.23,-798.17 893.79,-793.58 883.46,-791.21 884.23,-798.17"/>
<text text-anchor="middle" x="558.52" y="-853.16" font-family="Times,serif" font-size="14.00">okhmeta:hasMetaTag</text>
</g>
<!-- http://w3id.org/oseg/ont/okhmeta#PhysicalTag -->
<g id="node25" class="node">
<title>http://w3id.org/oseg/ont/okhmeta#PhysicalTag</title>
<ellipse fill="none" stroke="#e377c2" cx="125.16" cy="-216.36" rx="118.17" ry="16.03"/>
<text text-anchor="middle" x="125.16" y="-212.66" font-family="Times,serif" font-size="14.00">okhmeta:PhysicalTag</text>
</g>
<!-- http://w3id.org/oseg/ont/okhmeta#PhysicalTag&#45;&gt;http://w3id.org/oseg/ont/okhmeta#Tag -->
<g id="edge41" class="edge">
<title>http://w3id.org/oseg/ont/okhmeta#PhysicalTag&#45;&gt;http://w3id.org/oseg/ont/okhmeta#Tag</title>
<path fill="none" stroke="black" d="M168.93,-231.6C195.39,-242.9 228.38,-260.65 250.32,-285.36 264.34,-301.16 251.54,-316.52 268.32,-329.36 322.37,-370.75 373.06,-299.35 420.32,-348.36 451.91,-381.12 417.28,-512 438.32,-552.36 456.51,-587.27 492.62,-614.84 520.35,-632.11"/>
<polygon fill="black" stroke="black" points="518.66,-635.18 529.03,-637.36 522.28,-629.19 518.66,-635.18"/>
<text text-anchor="middle" x="344.32" y="-352.16" font-family="Times,serif" font-size="14.00">a</text>
</g>
<!-- http://w3id.org/oseg/ont/okhmeta#PhysicalTag&#45;&gt;http://w3id.org/oseg/ont/okhmeta#MetaTag -->
<g id="edge8" class="edge">
<title>http://w3id.org/oseg/ont/okhmeta#PhysicalTag&#45;&gt;http://w3id.org/oseg/ont/okhmeta#MetaTag</title>
<path fill="none" stroke="black" d="M158.94,-200.69C187.23,-187.9 229.55,-170.5 268.32,-161.36 394.3,-131.66 763.78,-72.48 850.73,-168.36 888.75,-210.28 845.96,-625.55 868.73,-677.36 884.52,-713.28 918.44,-743.48 944.2,-762.54"/>
<polygon fill="black" stroke="black" points="942.42,-765.57 952.58,-768.57 946.51,-759.89 942.42,-765.57"/>
<text text-anchor="middle" x="558.52" y="-135.16" font-family="Times,serif" font-size="14.00">okhmeta:hasMetaTag</text>
</g>
<!-- http://w3id.org/oseg/ont/okhmeta#TransportationTag -->
<g id="node26" class="node">
<title>http://w3id.org/oseg/ont/okhmeta#TransportationTag</title>
<ellipse fill="none" stroke="#e377c2" cx="125.16" cy="-622.36" rx="118.17" ry="16.03"/>
<text text-anchor="middle" x="125.16" y="-618.66" font-family="Times,serif" font-size="14.00">okhmeta:Transport...</text>
</g>
<!-- http://w3id.org/oseg/ont/okhmeta#TransportationTag&#45;&gt;http://w3id.org/oseg/ont/okhmeta#Tag -->
<g id="edge20" class="edge">
<title>http://w3id.org/oseg/ont/okhmeta#TransportationTag&#45;&gt;http://w3id.org/oseg/ont/okhmeta#Tag</title>
<path fill="none" stroke="black" d="M197.36,-609.46C257.23,-600.7 344.88,-592.8 420.32,-605.36 453.17,-610.83 488.69,-623.19 515.37,-633.87"/>
<polygon fill="black" stroke="black" points="514.19,-637.17 524.77,-637.71 516.84,-630.69 514.19,-637.17"/>
<text text-anchor="middle" x="344.32" y="-609.16" font-family="Times,serif" font-size="14.00">a</text>
</g>
<!-- http://w3id.org/oseg/ont/okhmeta#TransportationTag&#45;&gt;http://w3id.org/oseg/ont/okhmeta#MetaTag -->
<g id="edge47" class="edge">
<title>http://w3id.org/oseg/ont/okhmeta#TransportationTag&#45;&gt;http://w3id.org/oseg/ont/okhmeta#MetaTag</title>
<path fill="none" stroke="black" d="M158.15,-638.12C187.29,-654.28 228.93,-682.28 250.32,-719.36 279.24,-769.51 224.65,-810.36 268.32,-848.36 293.8,-870.53 392.62,-867.69 420.32,-848.36 439.34,-835.08 419.48,-812.9 438.32,-799.36 472.17,-775.02 719.96,-777.29 867.52,-780.93"/>
<polygon fill="black" stroke="black" points="867.44,-784.42 877.53,-781.18 867.62,-777.43 867.44,-784.42"/>
<text text-anchor="middle" x="558.52" y="-803.16" font-family="Times,serif" font-size="14.00">okhmeta:hasMetaTag</text>
</g>
<!-- http://w3id.org/oseg/ont/okhmeta#DocumentationTag -->
<g id="node27" class="node">
<title>http://w3id.org/oseg/ont/okhmeta#DocumentationTag</title>
<ellipse fill="none" stroke="#e377c2" cx="125.16" cy="-444.36" rx="125.32" ry="16.03"/>
<text text-anchor="middle" x="125.16" y="-440.66" font-family="Times,serif" font-size="14.00">okhmeta:Documenta...</text>
</g>
<!-- http://w3id.org/oseg/ont/okhmeta#DocumentationTag&#45;&gt;http://w3id.org/oseg/ont/okhmeta#Tag -->
<g id="edge43" class="edge">
<title>http://w3id.org/oseg/ont/okhmeta#DocumentationTag&#45;&gt;http://w3id.org/oseg/ont/okhmeta#Tag</title>
<path fill="none" stroke="black" d="M247.22,-447.97C316.52,-452.52 394.66,-462.7 420.32,-485.36 443.43,-505.77 421.74,-526.36 438.32,-552.36 459.58,-585.72 495.53,-613.63 522.4,-631.42"/>
<polygon fill="black" stroke="black" points="520.83,-634.57 531.13,-637.06 524.63,-628.69 520.83,-634.57"/>
<text text-anchor="middle" x="344.32" y="-489.16" font-family="Times,serif" font-size="14.00">a</text>
</g>
<!-- http://w3id.org/oseg/ont/okhmeta#DocumentationTag&#45;&gt;http://w3id.org/oseg/ont/okhmeta#MetaTag -->
<g id="edge24" class="edge">
<title>http://w3id.org/oseg/ont/okhmeta#DocumentationTag&#45;&gt;http://w3id.org/oseg/ont/okhmeta#MetaTag</title>
<path fill="none" stroke="black" d="M212.65,-432.64C226.99,-427.07 240.4,-419 250.32,-407.36 290.42,-360.27 221.84,-310.17 268.32,-269.36 303.45,-238.51 609.68,-253.15 678.73,-283.36 776.35,-326.06 805.38,-353.94 850.73,-450.36 893.81,-541.94 825.99,-585.62 868.73,-677.36 885.3,-712.93 919.1,-743.18 944.61,-762.35"/>
<polygon fill="black" stroke="black" points="942.77,-765.34 952.91,-768.42 946.91,-759.69 942.77,-765.34"/>
<text text-anchor="middle" x="558.52" y="-287.16" font-family="Times,serif" font-size="14.00">okhmeta:hasMetaTag</text>
</g>
<!-- http://w3id.org/oseg/ont/okhmeta#QualityTag -->
<g id="node28" class="node">
<title>http://w3id.org/oseg/ont/okhmeta#QualityTag</title>
<ellipse fill="none" stroke="#e377c2" cx="125.16" cy="-831.36" rx="113.27" ry="16.03"/>
<text text-anchor="middle" x="125.16" y="-827.66" font-family="Times,serif" font-size="14.00">okhmeta:QualityTag</text>
</g>
<!-- http://w3id.org/oseg/ont/okhmeta#QualityTag&#45;&gt;http://w3id.org/oseg/ont/okhmeta#Tag -->
<g id="edge21" class="edge">
<title>http://w3id.org/oseg/ont/okhmeta#QualityTag&#45;&gt;http://w3id.org/oseg/ont/okhmeta#Tag</title>
<path fill="none" stroke="black" d="M178.83,-816.99C204.09,-807.47 232.64,-792.39 250.32,-769.36 274.62,-737.69 238.69,-708.11 268.32,-681.36 283.36,-667.78 393.38,-659.82 473.28,-655.78"/>
<polygon fill="black" stroke="black" points="473.54,-659.27 483.35,-655.28 473.19,-652.28 473.54,-659.27"/>
<text text-anchor="middle" x="344.32" y="-685.16" font-family="Times,serif" font-size="14.00">a</text>
</g>
<!-- http://w3id.org/oseg/ont/okhmeta#QualityTag&#45;&gt;http://w3id.org/oseg/ont/okhmeta#MetaTag -->
<g id="edge1" class="edge">
<title>http://w3id.org/oseg/ont/okhmeta#QualityTag&#45;&gt;http://w3id.org/oseg/ont/okhmeta#MetaTag</title>
<path fill="none" stroke="black" d="M186.02,-845.08C207.59,-851.89 231.29,-861.67 250.32,-875.36 260.85,-882.94 256.65,-892.67 268.32,-898.36 329.05,-927.95 352.9,-902.77 420.32,-898.36 614.23,-885.66 663.17,-872.19 850.73,-821.36 873.44,-815.2 898.32,-808.03 919.97,-801.64"/>
<polygon fill="black" stroke="black" points="921.07,-804.97 929.67,-798.77 919.08,-798.26 921.07,-804.97"/>
<text text-anchor="middle" x="558.52" y="-901.16" font-family="Times,serif" font-size="14.00">okhmeta:hasMetaTag</text>
</g>
<!-- http://w3id.org/oseg/ont/okhmeta -->
<g id="node29" class="node">
<title>http://w3id.org/oseg/ont/okhmeta</title>
<ellipse fill="none" stroke="#e377c2" cx="125.16" cy="-1486.36" rx="76.24" ry="16.03"/>
<text text-anchor="middle" x="125.16" y="-1482.66" font-family="Times,serif" font-size="14.00">ns3:okhmeta</text>
</g>
<!-- http://w3id.org/oseg/ont/okhmeta&#45;&gt;http://spdx.org/rdf/terms#SpdxItem -->
<g id="edge22" class="edge">
<title>http://w3id.org/oseg/ont/okhmeta&#45;&gt;http://spdx.org/rdf/terms#SpdxItem</title>
<path fill="none" stroke="black" d="M141.49,-1502.26C165.85,-1526.44 216.02,-1571.89 268.32,-1593.36 329.22,-1618.37 402.81,-1628.04 460.52,-1631.49"/>
<polygon fill="black" stroke="black" points="460.56,-1635 470.73,-1632.05 460.94,-1628.01 460.56,-1635"/>
<text text-anchor="middle" x="344.32" y="-1631.16" font-family="Times,serif" font-size="14.00">a</text>
</g>
<!-- http://w3id.org/oseg/ont/okhmeta&#45;&gt;http://www.w3.org/2002/07/owl#Ontology -->
<g id="edge45" class="edge">
<title>http://w3id.org/oseg/ont/okhmeta&#45;&gt;http://www.w3.org/2002/07/owl#Ontology</title>
<path fill="none" stroke="black" d="M152.98,-1501.55C180.88,-1516.58 226.26,-1538.95 268.32,-1550.36 334.87,-1568.41 412.7,-1576.03 470.86,-1579.2"/>
<polygon fill="black" stroke="black" points="470.94,-1582.71 481.11,-1579.73 471.3,-1575.72 470.94,-1582.71"/>
<text text-anchor="middle" x="344.32" y="-1578.16" font-family="Times,serif" font-size="14.00">a</text>
</g>
<!-- http://w3id.org/oseg/ont/okhmeta&#45;&gt;http://w3id.org/oseg/ont/oseg&#45;profiles#robinVobruba -->
<g id="edge25" class="edge">
<title>http://w3id.org/oseg/ont/okhmeta&#45;&gt;http://w3id.org/oseg/ont/oseg&#45;profiles#robinVobruba</title>
<path fill="none" stroke="black" d="M169.88,-1499.65C197.76,-1507.5 234.82,-1516.77 268.32,-1521.36 322.79,-1528.83 383.55,-1531.56 435.26,-1532.23"/>
<polygon fill="black" stroke="black" points="435.44,-1535.73 445.48,-1532.34 435.52,-1528.73 435.44,-1535.73"/>
<text text-anchor="middle" x="344.32" y="-1535.16" font-family="Times,serif" font-size="14.00">schema:creator</text>
</g>
<!-- http://w3id.org/oseg/ont/okhmeta&#45;&gt;http://w3id.org/oseg/ont/oseg&#45;profiles#robinVobruba -->
<g id="edge37" class="edge">
<title>http://w3id.org/oseg/ont/okhmeta&#45;&gt;http://w3id.org/oseg/ont/oseg&#45;profiles#robinVobruba</title>
<path fill="none" stroke="black" d="M201.39,-1487.41C260.99,-1488.98 346.25,-1492.84 420.32,-1502.36 442.9,-1505.26 467.32,-1509.79 489.22,-1514.36"/>
<polygon fill="black" stroke="black" points="488.57,-1517.8 499.08,-1516.46 490.03,-1510.96 488.57,-1517.8"/>
<text text-anchor="middle" x="344.32" y="-1506.16" font-family="Times,serif" font-size="14.00">dcterms:creator</text>
</g>
<!-- http://w3id.org/oseg/ont/okhmeta&#45;&gt;http://w3id.org/oseg/ont/oseg&#45;profiles#Iopa -->
<g id="edge29" class="edge">
<title>http://w3id.org/oseg/ont/okhmeta&#45;&gt;http://w3id.org/oseg/ont/oseg&#45;profiles#Iopa</title>
<path fill="none" stroke="black" d="M187.57,-1476.87C212.56,-1473.45 241.75,-1470.03 268.32,-1468.36 335.74,-1464.11 352.81,-1465.66 420.32,-1468.36 438.06,-1469.07 457.07,-1470.29 475.11,-1471.68"/>
<polygon fill="black" stroke="black" points="475.07,-1475.18 485.31,-1472.48 475.62,-1468.2 475.07,-1475.18"/>
<text text-anchor="middle" x="344.32" y="-1472.16" font-family="Times,serif" font-size="14.00">dcterms:publisher</text>
</g>
<!-- http://w3id.org/oseg/ont/okhmeta&#45;&gt;http://spdx.org/licenses/GPL&#45;3.0&#45;or&#45;later -->
<g id="edge31" class="edge">
<title>http://w3id.org/oseg/ont/okhmeta&#45;&gt;http://spdx.org/licenses/GPL&#45;3.0&#45;or&#45;later</title>
<path fill="none" stroke="black" d="M166.39,-1472.57C194.57,-1463.52 233.31,-1452.3 268.32,-1446.36 324.23,-1436.86 386.98,-1432.24 439.71,-1430.04"/>
<polygon fill="black" stroke="black" points="439.92,-1433.53 449.77,-1429.64 439.64,-1426.54 439.92,-1433.53"/>
<text text-anchor="middle" x="344.32" y="-1450.16" font-family="Times,serif" font-size="14.00">spdx:licenseDeclared</text>
</g>
<!-- http://w3id.org/oseg/ont/okhmeta&#45;&gt;http://id.loc.gov/vocabulary/iso639&#45;1/en -->
<g id="edge33" class="edge">
<title>http://w3id.org/oseg/ont/okhmeta&#45;&gt;http://id.loc.gov/vocabulary/iso639&#45;1/en</title>
<path fill="none" stroke="black" d="M149.13,-1470.8C176.32,-1453.22 223.55,-1425.27 268.32,-1411.36 347.45,-1386.77 443.81,-1379.73 502.89,-1377.85"/>
<polygon fill="black" stroke="black" points="503.22,-1381.34 513.12,-1377.56 503.03,-1374.34 503.22,-1381.34"/>
<text text-anchor="middle" x="344.32" y="-1415.16" font-family="Times,serif" font-size="14.00">dcterms:language</text>
</g>
<!-- http://w3id.org/oseg/ont/okhmeta&#45;&gt;http://w3id.org/oseg/ont/1.1.0/okh&#45;meta -->
<g id="edge14" class="edge">
<title>http://w3id.org/oseg/ont/okhmeta&#45;&gt;http://w3id.org/oseg/ont/1.1.0/okh&#45;meta</title>
<path fill="none" stroke="black" d="M139.47,-1469.95C162.53,-1442.82 212.78,-1389.15 268.32,-1364.36 331.48,-1336.16 409.58,-1327.23 468.69,-1325.04"/>
<polygon fill="black" stroke="black" points="468.87,-1328.54 478.75,-1324.73 468.65,-1321.54 468.87,-1328.54"/>
<text text-anchor="middle" x="344.32" y="-1368.16" font-family="Times,serif" font-size="14.00">owl:versionIRI</text>
</g>
<!-- http://w3id.org/oseg/ont/okhmeta#DataTag -->
<g id="node30" class="node">
<title>http://w3id.org/oseg/ont/okhmeta#DataTag</title>
<ellipse fill="none" stroke="#e377c2" cx="125.16" cy="-960.36" rx="100.32" ry="16.03"/>
<text text-anchor="middle" x="125.16" y="-956.66" font-family="Times,serif" font-size="14.00">okhmeta:DataTag</text>
</g>
<!-- http://w3id.org/oseg/ont/okhmeta#DataTag&#45;&gt;http://w3id.org/oseg/ont/okhmeta#Tag -->
<g id="edge48" class="edge">
<title>http://w3id.org/oseg/ont/okhmeta#DataTag&#45;&gt;http://w3id.org/oseg/ont/okhmeta#Tag</title>
<path fill="none" stroke="black" d="M209.61,-951.42C225.14,-946.06 239.77,-937.85 250.32,-925.36 298.77,-867.99 216.38,-811.6 268.32,-757.36 315.57,-708.01 356,-757.43 420.32,-734.36 460.62,-719.9 502.19,-693.08 528.85,-674.06"/>
<polygon fill="black" stroke="black" points="530.92,-676.88 536.96,-668.18 526.81,-671.21 530.92,-676.88"/>
<text text-anchor="middle" x="344.32" y="-761.16" font-family="Times,serif" font-size="14.00">a</text>
</g>
<!-- http://w3id.org/oseg/ont/okhmeta#DataTag&#45;&gt;http://w3id.org/oseg/ont/okhmeta#MetaTag -->
<g id="edge15" class="edge">
<title>http://w3id.org/oseg/ont/okhmeta#DataTag&#45;&gt;http://w3id.org/oseg/ont/okhmeta#MetaTag</title>
<path fill="none" stroke="black" d="M197.33,-971.67C333.27,-989.68 635.45,-1012.16 850.73,-898.36 894.1,-875.44 934.41,-834.37 957.42,-808.29"/>
<polygon fill="black" stroke="black" points="960.09,-810.56 963.99,-800.71 954.8,-805.97 960.09,-810.56"/>
<text text-anchor="middle" x="558.52" y="-990.16" font-family="Times,serif" font-size="14.00">okhmeta:hasMetaTag</text>
</g>
</g>
</svg>
