<?xml version="1.0" encoding="UTF-8" standalone="no"?>
<!DOCTYPE svg PUBLIC "-//W3C//DTD SVG 1.1//EN"
 "http://www.w3.org/Graphics/SVG/1.1/DTD/svg11.dtd">
<!-- Generated by graphviz version 2.43.0 (0)
 -->
<!-- Title: G Pages: 1 -->
<svg width="1257pt" height="967pt"
 viewBox="0.00 0.00 1257.00 967.00" xmlns="http://www.w3.org/2000/svg" xmlns:xlink="http://www.w3.org/1999/xlink">
<g id="graph0" class="graph" transform="scale(1 1) rotate(0) translate(4 963)">
<title>G</title>
<polygon fill="white" stroke="transparent" points="-4,4 -4,-963 1253,-963 1253,4 -4,4"/>
<!-- http://w3id.org/oseg/ont/otrl#OTRL -->
<g id="node1" class="node">
<title>http://w3id.org/oseg/ont/otrl#OTRL</title>
<ellipse fill="none" stroke="#e377c2" cx="262.13" cy="-211.56" rx="60.62" ry="16.03"/>
<text text-anchor="middle" x="262.13" y="-207.86" font-family="Times,serif" font-size="14.00">otrl:OTRL</text>
</g>
<!-- http://w3id.org/oseg/ont/otrl#ODRL -->
<g id="node2" class="node">
<title>http://w3id.org/oseg/ont/otrl#ODRL</title>
<ellipse fill="none" stroke="#e377c2" cx="660.15" cy="-318.24" rx="62.87" ry="16.03"/>
<text text-anchor="middle" x="660.15" y="-314.54" font-family="Times,serif" font-size="14.00">otrl:ODRL</text>
</g>
<!-- http://spdx.org/rdf/terms#SpdxItem -->
<g id="node3" class="node">
<title>http://spdx.org/rdf/terms#SpdxItem</title>
<ellipse fill="none" stroke="#1f77b4" cx="872" cy="-909.69" rx="87.86" ry="16.03"/>
<text text-anchor="middle" x="872" y="-905.99" font-family="Times,serif" font-size="14.00">spdx:SpdxItem</text>
</g>
<!-- http://w3id.org/oseg/ont/otrl#OTRL2 -->
<g id="node4" class="node">
<title>http://w3id.org/oseg/ont/otrl#OTRL2</title>
<ellipse fill="none" stroke="#e377c2" cx="67.51" cy="-177.24" rx="67.35" ry="16.03"/>
<text text-anchor="middle" x="67.51" y="-173.54" font-family="Times,serif" font-size="14.00">otrl:OTRL2</text>
</g>
<!-- http://w3id.org/oseg/ont/otrl#OTRL2&#45;&gt;http://w3id.org/oseg/ont/otrl#OTRL -->
<g id="edge1" class="edge">
<title>http://w3id.org/oseg/ont/otrl#OTRL2&#45;&gt;http://w3id.org/oseg/ont/otrl#OTRL</title>
<path fill="none" stroke="black" d="M121.98,-186.85C146.7,-191.21 176.03,-196.38 201.45,-200.86"/>
<polygon fill="black" stroke="black" points="200.89,-204.32 211.35,-202.61 202.11,-197.42 200.89,-204.32"/>
<text text-anchor="middle" x="157.21" y="-197.65" font-family="Times,serif" font-size="14.00">a</text>
</g>
<!-- http://w3id.org/oseg/ont/otrl#exitCriteria -->
<g id="node5" class="node">
<title>http://w3id.org/oseg/ont/otrl#exitCriteria</title>
<ellipse fill="none" stroke="#e377c2" cx="469.26" cy="-306.22" rx="91.43" ry="16.03"/>
<text text-anchor="middle" x="469.26" y="-302.52" font-family="Times,serif" font-size="14.00">otrl:exitCriteria</text>
</g>
<!-- http://w3id.org/oseg/ont/otrl#exitCriteria&#45;&gt;http://w3id.org/oseg/ont/otrl#OTRL -->
<g id="edge17" class="edge">
<title>http://w3id.org/oseg/ont/otrl#exitCriteria&#45;&gt;http://w3id.org/oseg/ont/otrl#OTRL</title>
<path fill="none" stroke="black" d="M435.98,-291.01C399.61,-274.39 341.34,-247.76 302.41,-229.97"/>
<polygon fill="black" stroke="black" points="303.51,-226.62 292.96,-225.65 300.6,-232.99 303.51,-226.62"/>
<text text-anchor="middle" x="447.2" y="-249.29" font-family="Times,serif" font-size="14.00">dcam:domainIncludes</text>
</g>
<!-- http://w3id.org/oseg/ont/otrl#exitCriteria&#45;&gt;http://w3id.org/oseg/ont/otrl#ODRL -->
<g id="edge20" class="edge">
<title>http://w3id.org/oseg/ont/otrl#exitCriteria&#45;&gt;http://w3id.org/oseg/ont/otrl#ODRL</title>
<path fill="none" stroke="black" d="M555.49,-311.65C566.58,-312.35 577.82,-313.06 588.63,-313.74"/>
<polygon fill="black" stroke="black" points="588.65,-317.25 598.85,-314.38 589.09,-310.26 588.65,-317.25"/>
<text text-anchor="middle" x="650.06" y="-301.49" font-family="Times,serif" font-size="14.00">dcam:domainIncludes</text>
</g>
<!-- http://www.w3.org/1999/02/22&#45;rdf&#45;syntax&#45;ns#langString -->
<g id="node6" class="node">
<title>http://www.w3.org/1999/02/22&#45;rdf&#45;syntax&#45;ns#langString</title>
<ellipse fill="none" stroke="#e377c2" cx="326.83" cy="-265.02" rx="83.38" ry="16.03"/>
<text text-anchor="middle" x="326.83" y="-261.32" font-family="Times,serif" font-size="14.00">rdf:langString</text>
</g>
<!-- http://w3id.org/oseg/ont/otrl#exitCriteria&#45;&gt;http://www.w3.org/1999/02/22&#45;rdf&#45;syntax&#45;ns#langString -->
<g id="edge19" class="edge">
<title>http://w3id.org/oseg/ont/otrl#exitCriteria&#45;&gt;http://www.w3.org/1999/02/22&#45;rdf&#45;syntax&#45;ns#langString</title>
<path fill="none" stroke="black" d="M421.04,-292.27C408.94,-288.77 395.85,-284.98 383.39,-281.38"/>
<polygon fill="black" stroke="black" points="384.13,-277.95 373.55,-278.53 382.19,-284.68 384.13,-277.95"/>
<text text-anchor="middle" x="423.21" y="-275.62" font-family="Times,serif" font-size="14.00">range</text>
</g>
<!-- http://w3id.org/oseg/ont/oseg&#45;profiles#robinVobruba -->
<g id="node7" class="node">
<title>http://w3id.org/oseg/ont/oseg&#45;profiles#robinVobruba</title>
<ellipse fill="none" stroke="#e377c2" cx="1050.53" cy="-827" rx="113.69" ry="16.03"/>
<text text-anchor="middle" x="1050.53" y="-823.3" font-family="Times,serif" font-size="14.00">osegprof:robinVob...</text>
</g>
<!-- http://spdx.org/licenses/GPL&#45;3.0&#45;or&#45;later -->
<g id="node8" class="node">
<title>http://spdx.org/licenses/GPL&#45;3.0&#45;or&#45;later</title>
<ellipse fill="none" stroke="#e377c2" cx="835" cy="-673.59" rx="108.79" ry="16.03"/>
<text text-anchor="middle" x="835" y="-669.89" font-family="Times,serif" font-size="14.00">spdxl:GPL&#45;3.0&#45;or&#45;...</text>
</g>
<!-- http://w3id.org/oseg/ont/otrl#ODRL2 -->
<g id="node9" class="node">
<title>http://w3id.org/oseg/ont/otrl#ODRL2</title>
<ellipse fill="none" stroke="#e377c2" cx="720.23" cy="-506.94" rx="69.09" ry="16.03"/>
<text text-anchor="middle" x="720.23" y="-503.24" font-family="Times,serif" font-size="14.00">otrl:ODRL2</text>
</g>
<!-- http://w3id.org/oseg/ont/otrl#ODRL2&#45;&gt;http://w3id.org/oseg/ont/otrl#ODRL -->
<g id="edge6" class="edge">
<title>http://w3id.org/oseg/ont/otrl#ODRL2&#45;&gt;http://w3id.org/oseg/ont/otrl#ODRL</title>
<path fill="none" stroke="black" d="M715,-490.53C704.55,-457.68 680.98,-383.66 668.41,-344.19"/>
<polygon fill="black" stroke="black" points="671.69,-342.95 665.32,-334.49 665.02,-345.08 671.69,-342.95"/>
<text text-anchor="middle" x="687.21" y="-421.16" font-family="Times,serif" font-size="14.00">a</text>
</g>
<!-- http://w3id.org/oseg/ont/1.1.0/otrl -->
<g id="node10" class="node">
<title>http://w3id.org/oseg/ont/1.1.0/otrl</title>
<ellipse fill="none" stroke="#e377c2" cx="1103.81" cy="-942.94" rx="50.82" ry="16.03"/>
<text text-anchor="middle" x="1103.81" y="-939.24" font-family="Times,serif" font-size="14.00">ns1:otrl</text>
</g>
<!-- http://id.loc.gov/vocabulary/iso639&#45;1/en -->
<g id="node11" class="node">
<title>http://id.loc.gov/vocabulary/iso639&#45;1/en</title>
<ellipse fill="none" stroke="#e377c2" cx="1203.77" cy="-763.62" rx="45.01" ry="16.03"/>
<text text-anchor="middle" x="1203.77" y="-759.92" font-family="Times,serif" font-size="14.00">ns2:en</text>
</g>
<!-- http://w3id.org/oseg/ont/otrl#OTRL4 -->
<g id="node12" class="node">
<title>http://w3id.org/oseg/ont/otrl#OTRL4</title>
<ellipse fill="none" stroke="#e377c2" cx="167.75" cy="-377.11" rx="67.35" ry="16.03"/>
<text text-anchor="middle" x="167.75" y="-373.41" font-family="Times,serif" font-size="14.00">otrl:OTRL4</text>
</g>
<!-- http://w3id.org/oseg/ont/otrl#OTRL4&#45;&gt;http://w3id.org/oseg/ont/otrl#OTRL -->
<g id="edge7" class="edge">
<title>http://w3id.org/oseg/ont/otrl#OTRL4&#45;&gt;http://w3id.org/oseg/ont/otrl#OTRL</title>
<path fill="none" stroke="black" d="M176.97,-360.93C193.42,-332.08 227.94,-271.53 247.6,-237.04"/>
<polygon fill="black" stroke="black" points="250.82,-238.47 252.73,-228.05 244.74,-235 250.82,-238.47"/>
<text text-anchor="middle" x="207.79" y="-302.79" font-family="Times,serif" font-size="14.00">a</text>
</g>
<!-- http://w3id.org/oseg/ont/otrl -->
<g id="node13" class="node">
<title>http://w3id.org/oseg/ont/otrl</title>
<ellipse fill="none" stroke="#e377c2" cx="1037.65" cy="-786.43" rx="50.82" ry="16.03"/>
<text text-anchor="middle" x="1037.65" y="-782.73" font-family="Times,serif" font-size="14.00">ns3:otrl</text>
</g>
<!-- http://w3id.org/oseg/ont/otrl&#45;&gt;http://spdx.org/rdf/terms#SpdxItem -->
<g id="edge12" class="edge">
<title>http://w3id.org/oseg/ont/otrl&#45;&gt;http://spdx.org/rdf/terms#SpdxItem</title>
<path fill="none" stroke="black" d="M1017.34,-801.54C988.4,-823.08 935.09,-862.74 901.71,-887.59"/>
<polygon fill="black" stroke="black" points="899.2,-885.09 893.27,-893.87 903.38,-890.71 899.2,-885.09"/>
<text text-anchor="middle" x="955.03" y="-848.36" font-family="Times,serif" font-size="14.00">a</text>
</g>
<!-- http://w3id.org/oseg/ont/otrl&#45;&gt;http://w3id.org/oseg/ont/oseg&#45;profiles#robinVobruba -->
<g id="edge4" class="edge">
<title>http://w3id.org/oseg/ont/otrl&#45;&gt;http://w3id.org/oseg/ont/oseg&#45;profiles#robinVobruba</title>
<path fill="none" stroke="black" d="M1036.1,-803.05C1036.13,-803.2 1036.17,-803.36 1036.21,-803.52"/>
<polygon fill="black" stroke="black" points="1032.13,-802.05 1038.29,-810.66 1038.85,-800.08 1032.13,-802.05"/>
<text text-anchor="middle" x="978.65" y="-792.08" font-family="Times,serif" font-size="14.00">dcterms:creator</text>
</g>
<!-- http://w3id.org/oseg/ont/otrl&#45;&gt;http://w3id.org/oseg/ont/oseg&#45;profiles#robinVobruba -->
<g id="edge16" class="edge">
<title>http://w3id.org/oseg/ont/otrl&#45;&gt;http://w3id.org/oseg/ont/oseg&#45;profiles#robinVobruba</title>
<path fill="none" stroke="black" d="M1049.74,-802.31C1049.77,-802.4 1049.8,-802.48 1049.82,-802.56"/>
<polygon fill="black" stroke="black" points="1045.98,-801.87 1052.12,-810.5 1052.7,-799.92 1045.98,-801.87"/>
<text text-anchor="middle" x="1105.28" y="-791.24" font-family="Times,serif" font-size="14.00">schema:creator</text>
</g>
<!-- http://w3id.org/oseg/ont/otrl&#45;&gt;http://spdx.org/licenses/GPL&#45;3.0&#45;or&#45;later -->
<g id="edge5" class="edge">
<title>http://w3id.org/oseg/ont/otrl&#45;&gt;http://spdx.org/licenses/GPL&#45;3.0&#45;or&#45;later</title>
<path fill="none" stroke="black" d="M1011.99,-772.14C976.64,-752.46 912.75,-716.88 872.17,-694.29"/>
<polygon fill="black" stroke="black" points="873.83,-691.2 863.39,-689.4 870.42,-697.32 873.83,-691.2"/>
<text text-anchor="middle" x="866.08" y="-737.01" font-family="Times,serif" font-size="14.00">spdx:licenseDeclared</text>
</g>
<!-- http://w3id.org/oseg/ont/otrl&#45;&gt;http://w3id.org/oseg/ont/1.1.0/otrl -->
<g id="edge14" class="edge">
<title>http://w3id.org/oseg/ont/otrl&#45;&gt;http://w3id.org/oseg/ont/1.1.0/otrl</title>
<path fill="none" stroke="black" d="M1044.49,-802.59C1055.97,-829.77 1079.25,-884.84 1092.99,-917.33"/>
<polygon fill="black" stroke="black" points="1089.8,-918.78 1096.92,-926.63 1096.25,-916.06 1089.8,-918.78"/>
<text text-anchor="middle" x="1017.24" y="-863.76" font-family="Times,serif" font-size="14.00">owl:versionIRI</text>
</g>
<!-- http://w3id.org/oseg/ont/otrl&#45;&gt;http://id.loc.gov/vocabulary/iso639&#45;1/en -->
<g id="edge15" class="edge">
<title>http://w3id.org/oseg/ont/otrl&#45;&gt;http://id.loc.gov/vocabulary/iso639&#45;1/en</title>
<path fill="none" stroke="black" d="M1084.81,-779.95C1105.5,-777.11 1129.87,-773.77 1151.15,-770.85"/>
<polygon fill="black" stroke="black" points="1151.89,-774.28 1161.32,-769.45 1150.94,-767.34 1151.89,-774.28"/>
<text text-anchor="middle" x="1085.73" y="-764.2" font-family="Times,serif" font-size="14.00">dcterms:language</text>
</g>
<!-- http://w3id.org/oseg/ont/oseg&#45;profiles#martinHaeuer -->
<g id="node15" class="node">
<title>http://w3id.org/oseg/ont/oseg&#45;profiles#martinHaeuer</title>
<ellipse fill="none" stroke="#e377c2" cx="1068.24" cy="-544.39" rx="116.85" ry="16.03"/>
<text text-anchor="middle" x="1068.24" y="-540.69" font-family="Times,serif" font-size="14.00">osegprof:martinHa...</text>
</g>
<!-- http://w3id.org/oseg/ont/otrl&#45;&gt;http://w3id.org/oseg/ont/oseg&#45;profiles#martinHaeuer -->
<g id="edge8" class="edge">
<title>http://w3id.org/oseg/ont/otrl&#45;&gt;http://w3id.org/oseg/ont/oseg&#45;profiles#martinHaeuer</title>
<path fill="none" stroke="black" d="M1043.36,-770.25C1052.45,-729.34 1066.33,-621.49 1069.29,-571.07"/>
<polygon fill="black" stroke="black" points="1072.79,-571.1 1069.76,-560.95 1065.8,-570.78 1072.79,-571.1"/>
<text text-anchor="middle" x="1000.83" y="-674.46" font-family="Times,serif" font-size="14.00">schema:creator</text>
</g>
<!-- http://w3id.org/oseg/ont/otrl&#45;&gt;http://w3id.org/oseg/ont/oseg&#45;profiles#martinHaeuer -->
<g id="edge25" class="edge">
<title>http://w3id.org/oseg/ont/otrl&#45;&gt;http://w3id.org/oseg/ont/oseg&#45;profiles#martinHaeuer</title>
<path fill="none" stroke="black" d="M1036.13,-770.1C1037.35,-729.04 1050.68,-621.21 1060.41,-570.92"/>
<polygon fill="black" stroke="black" points="1063.89,-571.33 1062.48,-560.83 1057.04,-569.92 1063.89,-571.33"/>
<text text-anchor="middle" x="1105.77" y="-659.31" font-family="Times,serif" font-size="14.00">dcterms:creator</text>
</g>
<!-- http://w3id.org/oseg/ont/oseg&#45;profiles#Iopa -->
<g id="node16" class="node">
<title>http://w3id.org/oseg/ont/oseg&#45;profiles#Iopa</title>
<ellipse fill="none" stroke="#e377c2" cx="1056.44" cy="-739.32" rx="80.72" ry="16.03"/>
<text text-anchor="middle" x="1056.44" y="-735.62" font-family="Times,serif" font-size="14.00">osegprof:Iopa</text>
</g>
<!-- http://w3id.org/oseg/ont/otrl&#45;&gt;http://w3id.org/oseg/ont/oseg&#45;profiles#Iopa -->
<g id="edge9" class="edge">
<title>http://w3id.org/oseg/ont/otrl&#45;&gt;http://w3id.org/oseg/ont/oseg&#45;profiles#Iopa</title>
<path fill="none" stroke="black" d="M1044.12,-770.22C1044.76,-768.61 1045.42,-766.94 1046.09,-765.27"/>
<polygon fill="black" stroke="black" points="1049.44,-766.3 1049.9,-755.72 1042.94,-763.71 1049.44,-766.3"/>
<text text-anchor="middle" x="979.6" y="-756.54" font-family="Times,serif" font-size="14.00">dcterms:publisher</text>
</g>
<!-- http://w3id.org/oseg/ont/otrl#OTRL5 -->
<g id="node14" class="node">
<title>http://w3id.org/oseg/ont/otrl#OTRL5</title>
<ellipse fill="none" stroke="#e377c2" cx="239.83" cy="-162.24" rx="67.35" ry="16.03"/>
<text text-anchor="middle" x="239.83" y="-158.54" font-family="Times,serif" font-size="14.00">otrl:OTRL5</text>
</g>
<!-- http://w3id.org/oseg/ont/otrl#OTRL5&#45;&gt;http://w3id.org/oseg/ont/otrl#OTRL -->
<g id="edge18" class="edge">
<title>http://w3id.org/oseg/ont/otrl#OTRL5&#45;&gt;http://w3id.org/oseg/ont/otrl#OTRL</title>
<path fill="none" stroke="black" d="M247.26,-178.66C248.36,-181.1 249.52,-183.66 250.68,-186.23"/>
<polygon fill="black" stroke="black" points="247.5,-187.71 254.81,-195.38 253.88,-184.82 247.5,-187.71"/>
<text text-anchor="middle" x="244.47" y="-186.24" font-family="Times,serif" font-size="14.00">a</text>
</g>
<!-- http://w3id.org/oseg/ont/otrl#ODRL3Star -->
<g id="node17" class="node">
<title>http://w3id.org/oseg/ont/otrl#ODRL3Star</title>
<ellipse fill="none" stroke="#e377c2" cx="808.6" cy="-164.29" rx="90.52" ry="16.03"/>
<text text-anchor="middle" x="808.6" y="-160.59" font-family="Times,serif" font-size="14.00">otrl:ODRL3Star</text>
</g>
<!-- http://w3id.org/oseg/ont/otrl#ODRL3Star&#45;&gt;http://w3id.org/oseg/ont/otrl#ODRL -->
<g id="edge10" class="edge">
<title>http://w3id.org/oseg/ont/otrl#ODRL3Star&#45;&gt;http://w3id.org/oseg/ont/otrl#ODRL</title>
<path fill="none" stroke="black" d="M793,-180.48C766.64,-207.8 713.23,-263.2 682.77,-294.79"/>
<polygon fill="black" stroke="black" points="679.97,-292.65 675.55,-302.27 685.01,-297.51 679.97,-292.65"/>
<text text-anchor="middle" x="733.38" y="-241.43" font-family="Times,serif" font-size="14.00">a</text>
</g>
<!-- http://w3id.org/oseg/ont/otrl#OTRL6 -->
<g id="node18" class="node">
<title>http://w3id.org/oseg/ont/otrl#OTRL6</title>
<ellipse fill="none" stroke="#e377c2" cx="119.8" cy="-72.78" rx="67.35" ry="16.03"/>
<text text-anchor="middle" x="119.8" y="-69.08" font-family="Times,serif" font-size="14.00">otrl:OTRL6</text>
</g>
<!-- http://w3id.org/oseg/ont/otrl#OTRL6&#45;&gt;http://w3id.org/oseg/ont/otrl#OTRL -->
<g id="edge11" class="edge">
<title>http://w3id.org/oseg/ont/otrl#OTRL6&#45;&gt;http://w3id.org/oseg/ont/otrl#OTRL</title>
<path fill="none" stroke="black" d="M136.13,-88.7C161.33,-113.27 209.81,-160.55 238.74,-188.75"/>
<polygon fill="black" stroke="black" points="236.39,-191.35 245.99,-195.83 241.28,-186.34 236.39,-191.35"/>
<text text-anchor="middle" x="182.93" y="-127.53" font-family="Times,serif" font-size="14.00">a</text>
</g>
<!-- http://w3id.org/oseg/ont/otrl#OTRL3 -->
<g id="node19" class="node">
<title>http://w3id.org/oseg/ont/otrl#OTRL3</title>
<ellipse fill="none" stroke="#e377c2" cx="236.74" cy="-16.37" rx="67.35" ry="16.03"/>
<text text-anchor="middle" x="236.74" y="-12.67" font-family="Times,serif" font-size="14.00">otrl:OTRL3</text>
</g>
<!-- http://w3id.org/oseg/ont/otrl#OTRL3&#45;&gt;http://w3id.org/oseg/ont/otrl#OTRL -->
<g id="edge21" class="edge">
<title>http://w3id.org/oseg/ont/otrl#OTRL3&#45;&gt;http://w3id.org/oseg/ont/otrl#OTRL</title>
<path fill="none" stroke="black" d="M238.87,-32.68C243.25,-66.41 253.35,-144.1 258.69,-185.11"/>
<polygon fill="black" stroke="black" points="255.23,-185.7 260,-195.16 262.18,-184.8 255.23,-185.7"/>
<text text-anchor="middle" x="244.28" y="-112.69" font-family="Times,serif" font-size="14.00">a</text>
</g>
<!-- http://w3id.org/oseg/ont/otrl#OTRL1 -->
<g id="node20" class="node">
<title>http://w3id.org/oseg/ont/otrl#OTRL1</title>
<ellipse fill="none" stroke="#e377c2" cx="83.69" cy="-289.86" rx="67.35" ry="16.03"/>
<text text-anchor="middle" x="83.69" y="-286.16" font-family="Times,serif" font-size="14.00">otrl:OTRL1</text>
</g>
<!-- http://w3id.org/oseg/ont/otrl#OTRL1&#45;&gt;http://w3id.org/oseg/ont/otrl#OTRL -->
<g id="edge22" class="edge">
<title>http://w3id.org/oseg/ont/otrl#OTRL1&#45;&gt;http://w3id.org/oseg/ont/otrl#OTRL</title>
<path fill="none" stroke="black" d="M116.41,-275.49C145.78,-262.61 189,-243.65 220.75,-229.72"/>
<polygon fill="black" stroke="black" points="222.46,-232.79 230.21,-225.57 219.64,-226.38 222.46,-232.79"/>
<text text-anchor="middle" x="164.08" y="-256.41" font-family="Times,serif" font-size="14.00">a</text>
</g>
<!-- http://w3id.org/oseg/ont/otrl#ODRL3 -->
<g id="node21" class="node">
<title>http://w3id.org/oseg/ont/otrl#ODRL3</title>
<ellipse fill="none" stroke="#e377c2" cx="851.45" cy="-294.05" rx="69.09" ry="16.03"/>
<text text-anchor="middle" x="851.45" y="-290.35" font-family="Times,serif" font-size="14.00">otrl:ODRL3</text>
</g>
<!-- http://w3id.org/oseg/ont/otrl#ODRL3&#45;&gt;http://w3id.org/oseg/ont/otrl#ODRL -->
<g id="edge23" class="edge">
<title>http://w3id.org/oseg/ont/otrl#ODRL3&#45;&gt;http://w3id.org/oseg/ont/otrl#ODRL</title>
<path fill="none" stroke="black" d="M790.4,-301.77C770.1,-304.34 747.4,-307.21 726.71,-309.82"/>
<polygon fill="black" stroke="black" points="726.21,-306.36 716.73,-311.09 727.09,-313.3 726.21,-306.36"/>
<text text-anchor="middle" x="754.05" y="-309.6" font-family="Times,serif" font-size="14.00">a</text>
</g>
<!-- http://w3id.org/oseg/ont/otrl#ODRL4 -->
<g id="node22" class="node">
<title>http://w3id.org/oseg/ont/otrl#ODRL4</title>
<ellipse fill="none" stroke="#e377c2" cx="828.07" cy="-419.96" rx="69.09" ry="16.03"/>
<text text-anchor="middle" x="828.07" y="-416.26" font-family="Times,serif" font-size="14.00">otrl:ODRL4</text>
</g>
<!-- http://w3id.org/oseg/ont/otrl#ODRL4&#45;&gt;http://w3id.org/oseg/ont/otrl#ODRL -->
<g id="edge24" class="edge">
<title>http://w3id.org/oseg/ont/otrl#ODRL4&#45;&gt;http://w3id.org/oseg/ont/otrl#ODRL</title>
<path fill="none" stroke="black" d="M802.93,-404.73C773.83,-387.1 725.78,-357.99 693.56,-338.48"/>
<polygon fill="black" stroke="black" points="695.28,-335.43 684.92,-333.24 691.66,-341.42 695.28,-335.43"/>
<text text-anchor="middle" x="743.74" y="-375.4" font-family="Times,serif" font-size="14.00">a</text>
</g>
<!-- http://w3id.org/oseg/ont/otrl#ODRL1 -->
<g id="node23" class="node">
<title>http://w3id.org/oseg/ont/otrl#ODRL1</title>
<ellipse fill="none" stroke="#e377c2" cx="644.92" cy="-358.89" rx="69.09" ry="16.03"/>
<text text-anchor="middle" x="644.92" y="-355.19" font-family="Times,serif" font-size="14.00">otrl:ODRL1</text>
</g>
<!-- http://w3id.org/oseg/ont/otrl#ODRL1&#45;&gt;http://w3id.org/oseg/ont/otrl#ODRL -->
<g id="edge13" class="edge">
<title>http://w3id.org/oseg/ont/otrl#ODRL1&#45;&gt;http://w3id.org/oseg/ont/otrl#ODRL</title>
<path fill="none" stroke="black" d="M651.12,-342.36C651.18,-342.2 651.24,-342.04 651.3,-341.88"/>
<polygon fill="black" stroke="black" points="653.78,-345.22 654.01,-334.63 647.23,-342.76 653.78,-345.22"/>
<text text-anchor="middle" x="646.71" y="-330.92" font-family="Times,serif" font-size="14.00">a</text>
</g>
<!-- http://w3id.org/oseg/ont/otrl#goal -->
<g id="node24" class="node">
<title>http://w3id.org/oseg/ont/otrl#goal</title>
<ellipse fill="none" stroke="#e377c2" cx="475.54" cy="-224.4" rx="54.39" ry="16.03"/>
<text text-anchor="middle" x="475.54" y="-220.7" font-family="Times,serif" font-size="14.00">otrl:goal</text>
</g>
<!-- http://w3id.org/oseg/ont/otrl#goal&#45;&gt;http://w3id.org/oseg/ont/otrl#OTRL -->
<g id="edge26" class="edge">
<title>http://w3id.org/oseg/ont/otrl#goal&#45;&gt;http://w3id.org/oseg/ont/otrl#OTRL</title>
<path fill="none" stroke="black" d="M421.96,-221.18C394.68,-219.54 361.18,-217.52 331.91,-215.76"/>
<polygon fill="black" stroke="black" points="331.94,-212.25 321.75,-215.15 331.52,-219.24 331.94,-212.25"/>
<text text-anchor="middle" x="415.94" y="-207.27" font-family="Times,serif" font-size="14.00">dcam:domainIncludes</text>
</g>
<!-- http://w3id.org/oseg/ont/otrl#goal&#45;&gt;http://w3id.org/oseg/ont/otrl#ODRL -->
<g id="edge2" class="edge">
<title>http://w3id.org/oseg/ont/otrl#goal&#45;&gt;http://w3id.org/oseg/ont/otrl#ODRL</title>
<path fill="none" stroke="black" d="M503.18,-238.45C534.85,-254.55 586.93,-281.02 622.34,-299.02"/>
<polygon fill="black" stroke="black" points="620.91,-302.22 631.41,-303.63 624.08,-295.98 620.91,-302.22"/>
<text text-anchor="middle" x="640.76" y="-272.54" font-family="Times,serif" font-size="14.00">dcam:domainIncludes</text>
</g>
<!-- http://w3id.org/oseg/ont/otrl#goal&#45;&gt;http://www.w3.org/1999/02/22&#45;rdf&#45;syntax&#45;ns#langString -->
<g id="edge3" class="edge">
<title>http://w3id.org/oseg/ont/otrl#goal&#45;&gt;http://www.w3.org/1999/02/22&#45;rdf&#45;syntax&#45;ns#langString</title>
<path fill="none" stroke="black" d="M435.3,-235.39C419.84,-239.61 401.86,-244.52 385.05,-249.12"/>
<polygon fill="black" stroke="black" points="384.03,-245.77 375.31,-251.78 385.88,-252.52 384.03,-245.77"/>
<text text-anchor="middle" x="389.17" y="-231.05" font-family="Times,serif" font-size="14.00">range</text>
</g>
</g>
</svg>
