<?xml version="1.0" encoding="UTF-8" standalone="no"?>
<!DOCTYPE svg PUBLIC "-//W3C//DTD SVG 1.1//EN"
 "http://www.w3.org/Graphics/SVG/1.1/DTD/svg11.dtd">
<!-- Generated by graphviz version 2.43.0 (0)
 -->
<!-- Title: G Pages: 1 -->
<svg width="2709pt" height="1038pt"
 viewBox="0.00 0.00 2709.14 1038.00" xmlns="http://www.w3.org/2000/svg" xmlns:xlink="http://www.w3.org/1999/xlink">
<g id="graph0" class="graph" transform="scale(1 1) rotate(0) translate(8.14 1034)">
<title>G</title>
<polygon fill="white" stroke="transparent" points="-8.14,4 -8.14,-1034 2701,-1034 2701,4 -8.14,4"/>
<!-- http://w3id.org/oseg/ont/okh#ComponentReference -->
<g id="node1" class="node">
<title>http://w3id.org/oseg/ont/okh#ComponentReference</title>
<ellipse fill="none" stroke="#e377c2" cx="816.61" cy="-727.17" rx="123.07" ry="16.03"/>
<text text-anchor="middle" x="816.61" y="-723.47" font-family="Times,serif" font-size="14.00">okh:ComponentRefe...</text>
</g>
<!-- http://w3id.org/oseg/ont/okh#Reference -->
<g id="node4" class="node">
<title>http://w3id.org/oseg/ont/okh#Reference</title>
<ellipse fill="none" stroke="#e377c2" cx="690.98" cy="-1014.11" rx="84.29" ry="16.03"/>
<text text-anchor="middle" x="690.98" y="-1010.41" font-family="Times,serif" font-size="14.00">okh:Reference</text>
</g>
<!-- http://w3id.org/oseg/ont/okh#ComponentReference&#45;&gt;http://w3id.org/oseg/ont/okh#Reference -->
<g id="edge16" class="edge">
<title>http://w3id.org/oseg/ont/okh#ComponentReference&#45;&gt;http://w3id.org/oseg/ont/okh#Reference</title>
<path fill="none" stroke="black" d="M809.5,-743.42C788.64,-791.05 727.54,-930.6 702.2,-988.49"/>
<polygon fill="black" stroke="black" points="698.98,-987.12 698.17,-997.68 705.39,-989.92 698.98,-987.12"/>
</g>
<!-- http://www.w3.org/2004/02/skos/core#Concept -->
<g id="node6" class="node">
<title>http://www.w3.org/2004/02/skos/core#Concept</title>
<ellipse fill="none" stroke="#1f77b4" cx="1134.09" cy="-568.6" rx="78.48" ry="16.03"/>
<text text-anchor="middle" x="1134.09" y="-564.9" font-family="Times,serif" font-size="14.00">skos:Concept</text>
</g>
<!-- http://w3id.org/oseg/ont/okh#ComponentReference&#45;&gt;http://www.w3.org/2004/02/skos/core#Concept -->
<g id="edge8" class="edge">
<title>http://w3id.org/oseg/ont/okh#ComponentReference&#45;&gt;http://www.w3.org/2004/02/skos/core#Concept</title>
<path fill="none" stroke="black" d="M848.21,-711.39C906.55,-682.25 1030.97,-620.11 1094.7,-588.28"/>
<polygon fill="black" stroke="black" points="1096.63,-591.22 1104.02,-583.63 1093.51,-584.96 1096.63,-591.22"/>
<text text-anchor="middle" x="966.96" y="-653.63" font-family="Times,serif" font-size="14.00">a</text>
</g>
<!-- http://w3id.org/oseg/ont/okhmetaPartsTag -->
<g id="node34" class="node">
<title>http://w3id.org/oseg/ont/okhmetaPartsTag</title>
<ellipse fill="none" stroke="#e377c2" cx="780.99" cy="-769.7" rx="103.48" ry="16.03"/>
<text text-anchor="middle" x="780.99" y="-766" font-family="Times,serif" font-size="14.00">okhmeta:PartsTag</text>
</g>
<!-- http://w3id.org/oseg/ont/okh#ComponentReference&#45;&gt;http://w3id.org/oseg/ont/okhmetaPartsTag -->
<g id="edge37" class="edge">
<title>http://w3id.org/oseg/ont/okh#ComponentReference&#45;&gt;http://w3id.org/oseg/ont/okhmetaPartsTag</title>
<path fill="none" stroke="black" d="M802.94,-743.49C802.34,-744.21 801.74,-744.93 801.12,-745.66"/>
<polygon fill="black" stroke="black" points="798.31,-743.58 794.57,-753.49 803.67,-748.07 798.31,-743.58"/>
<text text-anchor="middle" x="879.03" y="-748.38" font-family="Times,serif" font-size="14.00">okhmeta:hasMetaTag</text>
</g>
<!-- http://schema.org/URL -->
<g id="node2" class="node">
<title>http://schema.org/URL</title>
<ellipse fill="none" stroke="#e377c2" cx="315.14" cy="-790.45" rx="75.82" ry="16.03"/>
<text text-anchor="middle" x="315.14" y="-786.75" font-family="Times,serif" font-size="14.00">schema:URL</text>
</g>
<!-- http://w3id.org/oseg/ont/okh#FileUrl -->
<g id="node3" class="node">
<title>http://w3id.org/oseg/ont/okh#FileUrl</title>
<ellipse fill="none" stroke="#1f77b4" cx="506.78" cy="-658.71" rx="68.68" ry="16.03"/>
<text text-anchor="middle" x="506.78" y="-655.01" font-family="Times,serif" font-size="14.00">okh:FileUrl</text>
</g>
<!-- http://w3id.org/oseg/ont/okh#FileUrl&#45;&gt;http://w3id.org/oseg/ont/okh#ComponentReference -->
<g id="edge20" class="edge">
<title>http://w3id.org/oseg/ont/okh#FileUrl&#45;&gt;http://w3id.org/oseg/ont/okh#ComponentReference</title>
<path fill="none" stroke="black" d="M557.25,-669.86C607.72,-681.01 685.87,-698.28 743.2,-710.95"/>
<polygon fill="black" stroke="black" points="742.77,-714.44 753.29,-713.18 744.28,-707.6 742.77,-714.44"/>
</g>
<!-- http://w3id.org/oseg/ont/okh#FileUrl&#45;&gt;http://schema.org/URL -->
<g id="edge36" class="edge">
<title>http://w3id.org/oseg/ont/okh#FileUrl&#45;&gt;http://schema.org/URL</title>
<path fill="none" stroke="black" d="M484.04,-674.34C449.75,-697.91 384.72,-742.61 346.12,-769.15"/>
<polygon fill="black" stroke="black" points="344.1,-766.29 337.84,-774.84 348.07,-772.06 344.1,-766.29"/>
</g>
<!-- http://w3id.org/oseg/ont/okh#File -->
<g id="node9" class="node">
<title>http://w3id.org/oseg/ont/okh#File</title>
<ellipse fill="none" stroke="#e377c2" cx="507.12" cy="-440.92" rx="52.15" ry="16.03"/>
<text text-anchor="middle" x="507.12" y="-437.22" font-family="Times,serif" font-size="14.00">okh:File</text>
</g>
<!-- http://w3id.org/oseg/ont/okh#FileUrl&#45;&gt;http://w3id.org/oseg/ont/okh#File -->
<g id="edge3" class="edge">
<title>http://w3id.org/oseg/ont/okh#FileUrl&#45;&gt;http://w3id.org/oseg/ont/okh#File</title>
<path fill="none" stroke="black" d="M506.8,-642.34C506.86,-604.97 507,-513.11 507.08,-467.5"/>
<polygon fill="black" stroke="black" points="510.58,-467.48 507.09,-457.48 503.58,-467.47 510.58,-467.48"/>
<text text-anchor="middle" x="426.94" y="-558.72" font-family="Times,serif" font-size="14.00">schema:supersededBy</text>
</g>
<!-- http://w3id.org/oseg/ont/okh#Mass -->
<g id="node5" class="node">
<title>http://w3id.org/oseg/ont/okh#Mass</title>
<ellipse fill="none" stroke="#e377c2" cx="1471.09" cy="-671.36" rx="59.29" ry="16.03"/>
<text text-anchor="middle" x="1471.09" y="-667.66" font-family="Times,serif" font-size="14.00">okh:Mass</text>
</g>
<!-- http://w3id.org/oseg/ont/okh#Mass&#45;&gt;http://www.w3.org/2004/02/skos/core#Concept -->
<g id="edge6" class="edge">
<title>http://w3id.org/oseg/ont/okh#Mass&#45;&gt;http://www.w3.org/2004/02/skos/core#Concept</title>
<path fill="none" stroke="black" d="M1431.11,-659.17C1370.62,-640.73 1255.73,-605.69 1187.94,-585.02"/>
<polygon fill="black" stroke="black" points="1188.88,-581.65 1178.29,-582.08 1186.84,-588.34 1188.88,-581.65"/>
<text text-anchor="middle" x="1305.03" y="-625.9" font-family="Times,serif" font-size="14.00">a</text>
</g>
<!-- http://w3id.org/oseg/ont/okhmetaPhysicalTag -->
<g id="node25" class="node">
<title>http://w3id.org/oseg/ont/okhmetaPhysicalTag</title>
<ellipse fill="none" stroke="#e377c2" cx="1657.94" cy="-857.77" rx="118.17" ry="16.03"/>
<text text-anchor="middle" x="1657.94" y="-854.07" font-family="Times,serif" font-size="14.00">okhmeta:PhysicalTag</text>
</g>
<!-- http://w3id.org/oseg/ont/okh#Mass&#45;&gt;http://w3id.org/oseg/ont/okhmetaPhysicalTag -->
<g id="edge21" class="edge">
<title>http://w3id.org/oseg/ont/okh#Mass&#45;&gt;http://w3id.org/oseg/ont/okhmetaPhysicalTag</title>
<path fill="none" stroke="black" d="M1487.02,-687.26C1520.04,-720.19 1596.04,-796.02 1634.6,-834.48"/>
<polygon fill="black" stroke="black" points="1632.24,-837.07 1641.79,-841.66 1637.18,-832.11 1632.24,-837.07"/>
<text text-anchor="middle" x="1483.81" y="-764.67" font-family="Times,serif" font-size="14.00">okhmeta:hasMetaTag</text>
</g>
<!-- http://w3id.org/oseg/ont/okhmetaTransportationTag -->
<g id="node30" class="node">
<title>http://w3id.org/oseg/ont/okhmetaTransportationTag</title>
<ellipse fill="none" stroke="#e377c2" cx="1715.91" cy="-741.63" rx="118.17" ry="16.03"/>
<text text-anchor="middle" x="1715.91" y="-737.93" font-family="Times,serif" font-size="14.00">okhmeta:Transport...</text>
</g>
<!-- http://w3id.org/oseg/ont/okh#Mass&#45;&gt;http://w3id.org/oseg/ont/okhmetaTransportationTag -->
<g id="edge28" class="edge">
<title>http://w3id.org/oseg/ont/okh#Mass&#45;&gt;http://w3id.org/oseg/ont/okhmetaTransportationTag</title>
<path fill="none" stroke="black" d="M1512.35,-683.2C1551.37,-694.4 1610.41,-711.35 1654.88,-724.11"/>
<polygon fill="black" stroke="black" points="1654.13,-727.54 1664.7,-726.93 1656.06,-720.81 1654.13,-727.54"/>
<text text-anchor="middle" x="1506.61" y="-707.46" font-family="Times,serif" font-size="14.00">okhmeta:hasMetaTag</text>
</g>
<!-- http://w3id.org/oseg/ont/okh#url -->
<g id="node7" class="node">
<title>http://w3id.org/oseg/ont/okh#url</title>
<ellipse fill="none" stroke="#e377c2" cx="60.38" cy="-408.82" rx="47.25" ry="16.03"/>
<text text-anchor="middle" x="60.38" y="-405.12" font-family="Times,serif" font-size="14.00">okh:url</text>
</g>
<!-- http://w3id.org/oseg/ont/okh#alternativeLicense -->
<g id="node8" class="node">
<title>http://w3id.org/oseg/ont/okh#alternativeLicense</title>
<ellipse fill="none" stroke="#e377c2" cx="821.95" cy="-427.97" rx="107.46" ry="16.03"/>
<text text-anchor="middle" x="821.95" y="-424.27" font-family="Times,serif" font-size="14.00">okh:alternativeLi...</text>
</g>
<!-- http://w3id.org/oseg/ont/okh#alternativeLicense&#45;&gt;http://www.w3.org/2004/02/skos/core#Concept -->
<g id="edge2" class="edge">
<title>http://w3id.org/oseg/ont/okh#alternativeLicense&#45;&gt;http://www.w3.org/2004/02/skos/core#Concept</title>
<path fill="none" stroke="black" d="M856.25,-443.42C913.79,-469.35 1029.59,-521.52 1091.98,-549.63"/>
<polygon fill="black" stroke="black" points="1090.6,-552.85 1101.15,-553.76 1093.47,-546.46 1090.6,-552.85"/>
<text text-anchor="middle" x="969.62" y="-500.33" font-family="Times,serif" font-size="14.00">a</text>
</g>
<!-- http://w3id.org/oseg/ont/okh#alternativeLicense&#45;&gt;http://w3id.org/oseg/ont/okh#File -->
<g id="edge26" class="edge">
<title>http://w3id.org/oseg/ont/okh#alternativeLicense&#45;&gt;http://w3id.org/oseg/ont/okh#File</title>
<path fill="none" stroke="black" d="M717.99,-432.24C668.85,-434.27 611.82,-436.61 569.46,-438.35"/>
<polygon fill="black" stroke="black" points="569.15,-434.86 559.3,-438.77 569.44,-441.86 569.15,-434.86"/>
<text text-anchor="middle" x="643.73" y="-424.1" font-family="Times,serif" font-size="14.00">dcam:rangeIncludes</text>
</g>
<!-- http://schema.org/license -->
<g id="node16" class="node">
<title>http://schema.org/license</title>
<ellipse fill="none" stroke="#e377c2" cx="801.83" cy="-142.22" rx="88.28" ry="16.03"/>
<text text-anchor="middle" x="801.83" y="-138.52" font-family="Times,serif" font-size="14.00">schema:license</text>
</g>
<!-- http://w3id.org/oseg/ont/okh#alternativeLicense&#45;&gt;http://schema.org/license -->
<g id="edge35" class="edge">
<title>http://w3id.org/oseg/ont/okh#alternativeLicense&#45;&gt;http://schema.org/license</title>
<path fill="none" stroke="black" d="M820.78,-411.37C817.43,-363.81 807.78,-226.75 803.69,-168.7"/>
<polygon fill="black" stroke="black" points="807.17,-168.23 802.98,-158.5 800.19,-168.73 807.17,-168.23"/>
<text text-anchor="middle" x="753.24" y="-293.83" font-family="Times,serif" font-size="14.00">skos:closeMatch</text>
</g>
<!-- http://w3id.org/oseg/ont/okh#license -->
<g id="node22" class="node">
<title>http://w3id.org/oseg/ont/okh#license</title>
<ellipse fill="none" stroke="#e377c2" cx="657.38" cy="-339.93" rx="67.76" ry="16.03"/>
<text text-anchor="middle" x="657.38" y="-336.23" font-family="Times,serif" font-size="14.00">okh:license</text>
</g>
<!-- http://w3id.org/oseg/ont/okh#alternativeLicense&#45;&gt;http://w3id.org/oseg/ont/okh#license -->
<g id="edge39" class="edge">
<title>http://w3id.org/oseg/ont/okh#alternativeLicense&#45;&gt;http://w3id.org/oseg/ont/okh#license</title>
<path fill="none" stroke="black" d="M792.53,-412.23C765.08,-397.55 724.03,-375.58 694.37,-359.72"/>
<polygon fill="black" stroke="black" points="695.65,-356.43 685.18,-354.8 692.34,-362.6 695.65,-356.43"/>
<text text-anchor="middle" x="663.45" y="-389.77" font-family="Times,serif" font-size="14.00">schema:supersededBy</text>
</g>
<!-- http://w3id.org/oseg/ont/okhmetaLegalTag -->
<g id="node23" class="node">
<title>http://w3id.org/oseg/ont/okhmetaLegalTag</title>
<ellipse fill="none" stroke="#e377c2" cx="1005.64" cy="-268.08" rx="103.89" ry="16.03"/>
<text text-anchor="middle" x="1005.64" y="-264.38" font-family="Times,serif" font-size="14.00">okhmeta:LegalTag</text>
</g>
<!-- http://w3id.org/oseg/ont/okh#alternativeLicense&#45;&gt;http://w3id.org/oseg/ont/okhmetaLegalTag -->
<g id="edge30" class="edge">
<title>http://w3id.org/oseg/ont/okh#alternativeLicense&#45;&gt;http://w3id.org/oseg/ont/okhmetaLegalTag</title>
<path fill="none" stroke="black" d="M840.58,-411.76C873.39,-383.19 941.6,-323.83 979.25,-291.05"/>
<polygon fill="black" stroke="black" points="982,-293.3 987.24,-284.1 977.4,-288.02 982,-293.3"/>
<text text-anchor="middle" x="832.91" y="-355.21" font-family="Times,serif" font-size="14.00">okhmeta:hasMetaTag</text>
</g>
<!-- http://w3id.org/oseg/ont/okh#Module -->
<g id="node29" class="node">
<title>http://w3id.org/oseg/ont/okh#Module</title>
<ellipse fill="none" stroke="#e377c2" cx="813.62" cy="-382.57" rx="70.92" ry="16.03"/>
<text text-anchor="middle" x="813.62" y="-378.87" font-family="Times,serif" font-size="14.00">okh:Module</text>
</g>
<!-- http://w3id.org/oseg/ont/okh#alternativeLicense&#45;&gt;http://w3id.org/oseg/ont/okh#Module -->
<g id="edge25" class="edge">
<title>http://w3id.org/oseg/ont/okh#alternativeLicense&#45;&gt;http://w3id.org/oseg/ont/okh#Module</title>
<path fill="none" stroke="black" d="M818.94,-411.58C818.8,-410.82 818.66,-410.04 818.52,-409.26"/>
<polygon fill="black" stroke="black" points="821.9,-408.29 816.65,-399.09 815.01,-409.55 821.9,-408.29"/>
<text text-anchor="middle" x="896.73" y="-399.22" font-family="Times,serif" font-size="14.00">dcam:domainIncludes</text>
</g>
<!-- http://w3id.org/oseg/ont/okh#relatedTsdc -->
<g id="node10" class="node">
<title>http://w3id.org/oseg/ont/okh#relatedTsdc</title>
<ellipse fill="none" stroke="#e377c2" cx="1469.61" cy="-146.33" rx="91.85" ry="16.03"/>
<text text-anchor="middle" x="1469.61" y="-142.63" font-family="Times,serif" font-size="14.00">okh:relatedTsdc</text>
</g>
<!-- http://w3id.org/oseg/ont/okh#tsdc -->
<g id="node17" class="node">
<title>http://w3id.org/oseg/ont/okh#tsdc</title>
<ellipse fill="none" stroke="#e377c2" cx="1628.66" cy="-122.56" rx="54.39" ry="16.03"/>
<text text-anchor="middle" x="1628.66" y="-118.86" font-family="Times,serif" font-size="14.00">okh:tsdc</text>
</g>
<!-- http://w3id.org/oseg/ont/okh#relatedTsdc&#45;&gt;http://w3id.org/oseg/ont/okh#tsdc -->
<g id="edge11" class="edge">
<title>http://w3id.org/oseg/ont/okh#relatedTsdc&#45;&gt;http://w3id.org/oseg/ont/okh#tsdc</title>
<path fill="none" stroke="black" d="M1555.25,-140.34C1563.91,-139.01 1572.46,-137.58 1580.51,-136.12"/>
<polygon fill="black" stroke="black" points="1581.22,-139.54 1590.39,-134.25 1579.92,-132.67 1581.22,-139.54"/>
<text text-anchor="middle" x="1610.38" y="-142.03" font-family="Times,serif" font-size="14.00">owl:sameAs</text>
</g>
<!-- http://w3id.org/oseg/ont/okh#relatedTsdc&#45;&gt;http://w3id.org/oseg/ont/okh#tsdc -->
<g id="edge32" class="edge">
<title>http://w3id.org/oseg/ont/okh#relatedTsdc&#45;&gt;http://w3id.org/oseg/ont/okh#tsdc</title>
<path fill="none" stroke="black" d="M1519,-132.55C1533.28,-129.98 1549.08,-127.52 1564.14,-125.5"/>
<polygon fill="black" stroke="black" points="1564.95,-128.93 1574.42,-124.18 1564.06,-121.98 1564.95,-128.93"/>
<text text-anchor="middle" x="1461.57" y="-117.83" font-family="Times,serif" font-size="14.00">schema:supersededBy</text>
</g>
<!-- http://w3id.org/oseg/ont/okh#permaURL -->
<g id="node11" class="node">
<title>http://w3id.org/oseg/ont/okh#permaURL</title>
<ellipse fill="none" stroke="#e377c2" cx="356.46" cy="-260.86" rx="87.86" ry="16.03"/>
<text text-anchor="middle" x="356.46" y="-257.16" font-family="Times,serif" font-size="14.00">okh:permaURL</text>
</g>
<!-- http://w3id.org/oseg/ont/okh#permaURL&#45;&gt;http://w3id.org/oseg/ont/okh#File -->
<g id="edge38" class="edge">
<title>http://w3id.org/oseg/ont/okh#permaURL&#45;&gt;http://w3id.org/oseg/ont/okh#File</title>
<path fill="none" stroke="black" d="M370.1,-277.16C396.83,-309.11 456.22,-380.09 487.3,-417.23"/>
<polygon fill="black" stroke="black" points="484.73,-419.62 493.84,-425.04 490.1,-415.13 484.73,-419.62"/>
<text text-anchor="middle" x="350.7" y="-350.99" font-family="Times,serif" font-size="14.00">dcam:domainIncludes</text>
</g>
<!-- http://w3id.org/oseg/ont/okh#openSCAD -->
<g id="node12" class="node">
<title>http://w3id.org/oseg/ont/okh#openSCAD</title>
<ellipse fill="none" stroke="#e377c2" cx="2350.71" cy="-496.91" rx="86.03" ry="16.03"/>
<text text-anchor="middle" x="2350.71" y="-493.21" font-family="Times,serif" font-size="14.00">okh:openSCAD</text>
</g>
<!-- http://w3id.org/oseg/ont/okh#Dimensions -->
<g id="node18" class="node">
<title>http://w3id.org/oseg/ont/okh#Dimensions</title>
<ellipse fill="none" stroke="#e377c2" cx="2026.36" cy="-554.54" rx="91.85" ry="16.03"/>
<text text-anchor="middle" x="2026.36" y="-550.84" font-family="Times,serif" font-size="14.00">okh:Dimensions</text>
</g>
<!-- http://w3id.org/oseg/ont/okh#openSCAD&#45;&gt;http://w3id.org/oseg/ont/okh#Dimensions -->
<g id="edge13" class="edge">
<title>http://w3id.org/oseg/ont/okh#openSCAD&#45;&gt;http://w3id.org/oseg/ont/okh#Dimensions</title>
<path fill="none" stroke="black" d="M2287.79,-508.09C2234.43,-517.57 2157.79,-531.18 2101.28,-541.23"/>
<polygon fill="black" stroke="black" points="2100.56,-537.8 2091.33,-542.99 2101.78,-544.69 2100.56,-537.8"/>
<text text-anchor="middle" x="2116.53" y="-513.46" font-family="Times,serif" font-size="14.00">dcam:domainIncludes</text>
</g>
<!-- http://w3id.org/oseg/ont/okh#depth -->
<g id="node21" class="node">
<title>http://w3id.org/oseg/ont/okh#depth</title>
<ellipse fill="none" stroke="#e377c2" cx="2581" cy="-564.37" rx="62.45" ry="16.03"/>
<text text-anchor="middle" x="2581" y="-560.67" font-family="Times,serif" font-size="14.00">okh:depth</text>
</g>
<!-- http://w3id.org/oseg/ont/okh#openSCAD&#45;&gt;http://w3id.org/oseg/ont/okh#depth -->
<g id="edge17" class="edge">
<title>http://w3id.org/oseg/ont/okh#openSCAD&#45;&gt;http://w3id.org/oseg/ont/okh#depth</title>
<path fill="none" stroke="black" d="M2397.59,-510.64C2435.9,-521.87 2489.99,-537.71 2529.5,-549.29"/>
<polygon fill="black" stroke="black" points="2528.63,-552.68 2539.22,-552.13 2530.6,-545.96 2528.63,-552.68"/>
<text text-anchor="middle" x="2383.55" y="-533.77" font-family="Times,serif" font-size="14.00">schema:supersededBy</text>
</g>
<!-- http://www.w3.org/2001/XMLSchema#string -->
<g id="node28" class="node">
<title>http://www.w3.org/2001/XMLSchema#string</title>
<ellipse fill="none" stroke="#e377c2" cx="2538.89" cy="-347.77" rx="62.87" ry="16.03"/>
<text text-anchor="middle" x="2538.89" y="-344.07" font-family="Times,serif" font-size="14.00">xsd:string</text>
</g>
<!-- http://w3id.org/oseg/ont/okh#openSCAD&#45;&gt;http://www.w3.org/2001/XMLSchema#string -->
<g id="edge23" class="edge">
<title>http://w3id.org/oseg/ont/okh#openSCAD&#45;&gt;http://www.w3.org/2001/XMLSchema#string</title>
<path fill="none" stroke="black" d="M2370.85,-480.95C2404.61,-454.19 2472.69,-400.24 2511.02,-369.86"/>
<polygon fill="black" stroke="black" points="2513.52,-372.35 2519.18,-363.4 2509.17,-366.86 2513.52,-372.35"/>
<text text-anchor="middle" x="2368.44" y="-429.21" font-family="Times,serif" font-size="14.00">dcam:rangeIncludes</text>
</g>
<!-- http://w3id.org/oseg/ont/okh#height -->
<g id="node32" class="node">
<title>http://w3id.org/oseg/ont/okh#height</title>
<ellipse fill="none" stroke="#e377c2" cx="2430.83" cy="-274.95" rx="65.11" ry="16.03"/>
<text text-anchor="middle" x="2430.83" y="-271.25" font-family="Times,serif" font-size="14.00">okh:height</text>
</g>
<!-- http://w3id.org/oseg/ont/okh#openSCAD&#45;&gt;http://w3id.org/oseg/ont/okh#height -->
<g id="edge33" class="edge">
<title>http://w3id.org/oseg/ont/okh#openSCAD&#45;&gt;http://w3id.org/oseg/ont/okh#height</title>
<path fill="none" stroke="black" d="M2356.6,-480.59C2370.38,-442.43 2404.78,-347.11 2421.46,-300.9"/>
<polygon fill="black" stroke="black" points="2424.82,-301.89 2424.93,-291.3 2418.24,-299.52 2424.82,-301.89"/>
<text text-anchor="middle" x="2309.03" y="-394.54" font-family="Times,serif" font-size="14.00">schema:supersededBy</text>
</g>
<!-- http://w3id.org/oseg/ont/okh#width -->
<g id="node38" class="node">
<title>http://w3id.org/oseg/ont/okh#width</title>
<ellipse fill="none" stroke="#e377c2" cx="2506.55" cy="-670.33" rx="61.54" ry="16.03"/>
<text text-anchor="middle" x="2506.55" y="-666.63" font-family="Times,serif" font-size="14.00">okh:width</text>
</g>
<!-- http://w3id.org/oseg/ont/okh#openSCAD&#45;&gt;http://w3id.org/oseg/ont/okh#width -->
<g id="edge42" class="edge">
<title>http://w3id.org/oseg/ont/okh#openSCAD&#45;&gt;http://w3id.org/oseg/ont/okh#width</title>
<path fill="none" stroke="black" d="M2365.37,-513.22C2393.13,-544.11 2453.43,-611.22 2485.5,-646.91"/>
<polygon fill="black" stroke="black" points="2482.98,-649.34 2492.27,-654.44 2488.19,-644.66 2482.98,-649.34"/>
<text text-anchor="middle" x="2345.44" y="-583.87" font-family="Times,serif" font-size="14.00">schema:supersededBy</text>
</g>
<!-- http://w3id.org/oseg/ont/okh#okhv -->
<g id="node13" class="node">
<title>http://w3id.org/oseg/ont/okh#okhv</title>
<ellipse fill="none" stroke="#e377c2" cx="1434.11" cy="-418.52" rx="56.64" ry="16.03"/>
<text text-anchor="middle" x="1434.11" y="-414.82" font-family="Times,serif" font-size="14.00">okh:okhv</text>
</g>
<!-- http://w3id.org/oseg/ont/okh#Software -->
<g id="node14" class="node">
<title>http://w3id.org/oseg/ont/okh#Software</title>
<ellipse fill="none" stroke="#e377c2" cx="1064.87" cy="-771.83" rx="78.48" ry="16.03"/>
<text text-anchor="middle" x="1064.87" y="-768.13" font-family="Times,serif" font-size="14.00">okh:Software</text>
</g>
<!-- http://w3id.org/oseg/ont/okh#okhvStored -->
<g id="node15" class="node">
<title>http://w3id.org/oseg/ont/okh#okhvStored</title>
<ellipse fill="none" stroke="#e377c2" cx="1697.35" cy="-418.9" rx="90.52" ry="16.03"/>
<text text-anchor="middle" x="1697.35" y="-415.2" font-family="Times,serif" font-size="14.00">okh:okhvStored</text>
</g>
<!-- http://w3id.org/oseg/ont/okh#okhvOrig -->
<g id="node19" class="node">
<title>http://w3id.org/oseg/ont/okh#okhvOrig</title>
<ellipse fill="none" stroke="#e377c2" cx="1535.77" cy="-334" rx="79.39" ry="16.03"/>
<text text-anchor="middle" x="1535.77" y="-330.3" font-family="Times,serif" font-size="14.00">okh:okhvOrig</text>
</g>
<!-- http://w3id.org/oseg/ont/okh#installationGuide -->
<g id="node20" class="node">
<title>http://w3id.org/oseg/ont/okh#installationGuide</title>
<ellipse fill="none" stroke="#e377c2" cx="1088.07" cy="-728.62" rx="106.55" ry="16.03"/>
<text text-anchor="middle" x="1088.07" y="-724.92" font-family="Times,serif" font-size="14.00">okh:installationG...</text>
</g>
<!-- http://w3id.org/oseg/ont/okh#installationGuide&#45;&gt;http://www.w3.org/2004/02/skos/core#Concept -->
<g id="edge15" class="edge">
<title>http://w3id.org/oseg/ont/okh#installationGuide&#45;&gt;http://www.w3.org/2004/02/skos/core#Concept</title>
<path fill="none" stroke="black" d="M1092.82,-712.09C1100.78,-684.43 1116.87,-628.49 1126.44,-595.22"/>
<polygon fill="black" stroke="black" points="1129.9,-595.85 1129.3,-585.27 1123.17,-593.92 1129.9,-595.85"/>
<text text-anchor="middle" x="1105.13" y="-657.46" font-family="Times,serif" font-size="14.00">a</text>
</g>
<!-- http://w3id.org/oseg/ont/okh#installationGuide&#45;&gt;http://w3id.org/oseg/ont/okh#Software -->
<g id="edge7" class="edge">
<title>http://w3id.org/oseg/ont/okh#installationGuide&#45;&gt;http://w3id.org/oseg/ont/okh#Software</title>
<path fill="none" stroke="black" d="M1079.17,-745.2C1078.88,-745.74 1078.59,-746.28 1078.3,-746.82"/>
<polygon fill="black" stroke="black" points="1075.2,-745.18 1073.56,-755.65 1081.37,-748.49 1075.2,-745.18"/>
<text text-anchor="middle" x="1156.73" y="-749.81" font-family="Times,serif" font-size="14.00">dcam:domainIncludes</text>
</g>
<!-- http://w3id.org/oseg/ont/okh#okhvPresent -->
<g id="node24" class="node">
<title>http://w3id.org/oseg/ont/okh#okhvPresent</title>
<ellipse fill="none" stroke="#e377c2" cx="1495.36" cy="-377.24" rx="96.33" ry="16.03"/>
<text text-anchor="middle" x="1495.36" y="-373.54" font-family="Times,serif" font-size="14.00">okh:okhvPresent</text>
</g>
<!-- http://w3id.org/oseg/ont/okh#okhvPresent&#45;&gt;http://w3id.org/oseg/ont/okh#okhv -->
<g id="edge12" class="edge">
<title>http://w3id.org/oseg/ont/okh#okhvPresent&#45;&gt;http://w3id.org/oseg/ont/okh#okhv</title>
<path fill="none" stroke="black" d="M1471.86,-393.08C1469.67,-394.55 1467.44,-396.06 1465.2,-397.57"/>
<polygon fill="black" stroke="black" points="1462.99,-394.84 1456.65,-403.33 1466.9,-400.64 1462.99,-394.84"/>
<text text-anchor="middle" x="1521.53" y="-399.12" font-family="Times,serif" font-size="14.00">subPropertyOf</text>
</g>
<!-- http://w3id.org/oseg/ont/okh#okhvPresent&#45;&gt;http://w3id.org/oseg/ont/okh#okhvOrig -->
<g id="edge14" class="edge">
<title>http://w3id.org/oseg/ont/okh#okhvPresent&#45;&gt;http://w3id.org/oseg/ont/okh#okhvOrig</title>
<path fill="none" stroke="black" d="M1510.41,-361.13C1511.45,-360.02 1512.51,-358.89 1513.57,-357.75"/>
<polygon fill="black" stroke="black" points="1516.31,-359.95 1520.58,-350.25 1511.19,-355.17 1516.31,-359.95"/>
<text text-anchor="middle" x="1484.49" y="-348.24" font-family="Times,serif" font-size="14.00">seeAlso</text>
</g>
<!-- http://w3id.org/oseg/ont/okh#fileUrl -->
<g id="node26" class="node">
<title>http://w3id.org/oseg/ont/okh#fileUrl</title>
<ellipse fill="none" stroke="#e377c2" cx="256.01" cy="-388.01" rx="65.11" ry="16.03"/>
<text text-anchor="middle" x="256.01" y="-384.31" font-family="Times,serif" font-size="14.00">okh:fileUrl</text>
</g>
<!-- http://w3id.org/oseg/ont/okh#fileUrl&#45;&gt;http://w3id.org/oseg/ont/okh#url -->
<g id="edge1" class="edge">
<title>http://w3id.org/oseg/ont/okh#fileUrl&#45;&gt;http://w3id.org/oseg/ont/okh#url</title>
<path fill="none" stroke="black" d="M195.98,-394.39C170.41,-397.12 140.78,-400.27 115.74,-402.93"/>
<polygon fill="black" stroke="black" points="115.25,-399.47 105.68,-404 115.99,-406.43 115.25,-399.47"/>
<text text-anchor="middle" x="75.86" y="-387.46" font-family="Times,serif" font-size="14.00">schema:supersededBy</text>
</g>
<!-- http://w3id.org/oseg/ont/okh#fileUrl&#45;&gt;http://w3id.org/oseg/ont/okh#File -->
<g id="edge44" class="edge">
<title>http://w3id.org/oseg/ont/okh#fileUrl&#45;&gt;http://w3id.org/oseg/ont/okh#File</title>
<path fill="none" stroke="black" d="M305.92,-398.52C348.64,-407.53 410.01,-420.45 453.71,-429.66"/>
<polygon fill="black" stroke="black" points="453.08,-433.11 463.59,-431.74 454.52,-426.26 453.08,-433.11"/>
<text text-anchor="middle" x="301.81" y="-417.89" font-family="Times,serif" font-size="14.00">dcam:domainIncludes</text>
</g>
<!-- http://schema.org/url -->
<g id="node40" class="node">
<title>http://schema.org/url</title>
<ellipse fill="none" stroke="#e377c2" cx="66.96" cy="-273.69" rx="67.35" ry="16.03"/>
<text text-anchor="middle" x="66.96" y="-269.99" font-family="Times,serif" font-size="14.00">schema:url</text>
</g>
<!-- http://w3id.org/oseg/ont/okh#fileUrl&#45;&gt;http://schema.org/url -->
<g id="edge29" class="edge">
<title>http://w3id.org/oseg/ont/okh#fileUrl&#45;&gt;http://schema.org/url</title>
<path fill="none" stroke="black" d="M230.9,-372.83C197.57,-352.67 138.57,-316.99 101.18,-294.38"/>
<polygon fill="black" stroke="black" points="102.54,-291.11 92.17,-288.93 98.92,-297.1 102.54,-291.11"/>
<text text-anchor="middle" x="113.04" y="-337.41" font-family="Times,serif" font-size="14.00">subPropertyOf</text>
</g>
<!-- http://w3id.org/oseg/ont/okh#spdxLicense -->
<g id="node27" class="node">
<title>http://w3id.org/oseg/ont/okh#spdxLicense</title>
<ellipse fill="none" stroke="#e377c2" cx="959.89" cy="-314.09" rx="94.51" ry="16.03"/>
<text text-anchor="middle" x="959.89" y="-310.39" font-family="Times,serif" font-size="14.00">okh:spdxLicense</text>
</g>
<!-- http://w3id.org/oseg/ont/okh#spdxLicense&#45;&gt;http://www.w3.org/2004/02/skos/core#Concept -->
<g id="edge22" class="edge">
<title>http://w3id.org/oseg/ont/okh#spdxLicense&#45;&gt;http://www.w3.org/2004/02/skos/core#Concept</title>
<path fill="none" stroke="black" d="M971.05,-330.4C1000.73,-373.77 1081.76,-492.14 1117.16,-543.87"/>
<polygon fill="black" stroke="black" points="1114.49,-546.16 1123.02,-552.43 1120.26,-542.2 1114.49,-546.16"/>
<text text-anchor="middle" x="1039.61" y="-440.93" font-family="Times,serif" font-size="14.00">a</text>
</g>
<!-- http://w3id.org/oseg/ont/okh#spdxLicense&#45;&gt;http://schema.org/license -->
<g id="edge10" class="edge">
<title>http://w3id.org/oseg/ont/okh#spdxLicense&#45;&gt;http://schema.org/license</title>
<path fill="none" stroke="black" d="M945.02,-297.92C917.01,-267.47 856.33,-201.48 823.68,-165.97"/>
<polygon fill="black" stroke="black" points="826.12,-163.46 816.78,-158.47 820.97,-168.2 826.12,-163.46"/>
<text text-anchor="middle" x="825.35" y="-235.75" font-family="Times,serif" font-size="14.00">skos:closeMatch</text>
</g>
<!-- http://w3id.org/oseg/ont/okh#spdxLicense&#45;&gt;http://w3id.org/oseg/ont/okh#license -->
<g id="edge18" class="edge">
<title>http://w3id.org/oseg/ont/okh#spdxLicense&#45;&gt;http://w3id.org/oseg/ont/okh#license</title>
<path fill="none" stroke="black" d="M874.82,-321.36C829.84,-325.2 775.14,-329.87 731.86,-333.57"/>
<polygon fill="black" stroke="black" points="731.34,-330.1 721.68,-334.44 731.94,-337.08 731.34,-330.1"/>
<text text-anchor="middle" x="763.34" y="-316.27" font-family="Times,serif" font-size="14.00">schema:supersededBy</text>
</g>
<!-- http://w3id.org/oseg/ont/okh#spdxLicense&#45;&gt;http://w3id.org/oseg/ont/okhmetaLegalTag -->
<g id="edge19" class="edge">
<title>http://w3id.org/oseg/ont/okh#spdxLicense&#45;&gt;http://w3id.org/oseg/ont/okhmetaLegalTag</title>
<path fill="none" stroke="black" d="M975.89,-298C977.97,-295.91 980.13,-293.74 982.29,-291.56"/>
<polygon fill="black" stroke="black" points="985,-293.8 989.57,-284.24 980.04,-288.87 985,-293.8"/>
<text text-anchor="middle" x="902.09" y="-283.58" font-family="Times,serif" font-size="14.00">okhmeta:hasMetaTag</text>
</g>
<!-- http://w3id.org/oseg/ont/okh#spdxLicense&#45;&gt;http://w3id.org/oseg/ont/okh#Module -->
<g id="edge43" class="edge">
<title>http://w3id.org/oseg/ont/okh#spdxLicense&#45;&gt;http://w3id.org/oseg/ont/okh#Module</title>
<path fill="none" stroke="black" d="M927.06,-329.46C905.45,-339.58 877,-352.9 854,-363.66"/>
<polygon fill="black" stroke="black" points="852.41,-360.54 844.83,-367.95 855.37,-366.88 852.41,-360.54"/>
<text text-anchor="middle" x="812.53" y="-335.36" font-family="Times,serif" font-size="14.00">dcam:domainIncludes</text>
</g>
<!-- http://spdx.org/rdf/terms#ListedLicense -->
<g id="node33" class="node">
<title>http://spdx.org/rdf/terms#ListedLicense</title>
<ellipse fill="none" stroke="#e377c2" cx="1040.24" cy="-16.73" rx="108.38" ry="16.03"/>
<text text-anchor="middle" x="1040.24" y="-13.03" font-family="Times,serif" font-size="14.00">spdx:ListedLicense</text>
</g>
<!-- http://w3id.org/oseg/ont/okh#spdxLicense&#45;&gt;http://spdx.org/rdf/terms#ListedLicense -->
<g id="edge34" class="edge">
<title>http://w3id.org/oseg/ont/okh#spdxLicense&#45;&gt;http://spdx.org/rdf/terms#ListedLicense</title>
<path fill="none" stroke="black" d="M964.32,-297.68C977.57,-248.64 1016.97,-102.86 1033.16,-42.92"/>
<polygon fill="black" stroke="black" points="1036.59,-43.65 1035.82,-33.09 1029.83,-41.83 1036.59,-43.65"/>
<text text-anchor="middle" x="926.24" y="-174.1" font-family="Times,serif" font-size="14.00">dcam:rangeIncludes</text>
</g>
<!-- http://w3id.org/oseg/ont/okh#value -->
<g id="node31" class="node">
<title>http://w3id.org/oseg/ont/okh#value</title>
<ellipse fill="none" stroke="#e377c2" cx="1495.64" cy="-898.44" rx="60.21" ry="16.03"/>
<text text-anchor="middle" x="1495.64" y="-894.74" font-family="Times,serif" font-size="14.00">okh:value</text>
</g>
<!-- http://w3id.org/oseg/ont/okh#value&#45;&gt;http://w3id.org/oseg/ont/okh#Mass -->
<g id="edge27" class="edge">
<title>http://w3id.org/oseg/ont/okh#value&#45;&gt;http://w3id.org/oseg/ont/okh#Mass</title>
<path fill="none" stroke="black" d="M1493.87,-882.11C1489.68,-843.33 1479.1,-745.43 1473.97,-697.97"/>
<polygon fill="black" stroke="black" points="1477.43,-697.42 1472.88,-687.85 1470.47,-698.17 1477.43,-697.42"/>
<text text-anchor="middle" x="1405.92" y="-793.84" font-family="Times,serif" font-size="14.00">dcam:domainIncludes</text>
</g>
<!-- http://w3id.org/oseg/ont/okh#hasMass -->
<g id="node37" class="node">
<title>http://w3id.org/oseg/ont/okh#hasMass</title>
<ellipse fill="none" stroke="#e377c2" cx="1501.24" cy="-943.67" rx="77.15" ry="16.03"/>
<text text-anchor="middle" x="1501.24" y="-939.97" font-family="Times,serif" font-size="14.00">okh:hasMass</text>
</g>
<!-- http://w3id.org/oseg/ont/okh#value&#45;&gt;http://w3id.org/oseg/ont/okh#hasMass -->
<g id="edge41" class="edge">
<title>http://w3id.org/oseg/ont/okh#value&#45;&gt;http://w3id.org/oseg/ont/okh#hasMass</title>
<path fill="none" stroke="black" d="M1497.66,-914.77C1497.76,-915.53 1497.85,-916.3 1497.95,-917.07"/>
<polygon fill="black" stroke="black" points="1494.5,-917.72 1499.2,-927.21 1501.45,-916.86 1494.5,-917.72"/>
<text text-anchor="middle" x="1417.8" y="-919.72" font-family="Times,serif" font-size="14.00">schema:supersededBy</text>
</g>
<!-- http://w3id.org/oseg/ont/okh#unit -->
<g id="node35" class="node">
<title>http://w3id.org/oseg/ont/okh#unit</title>
<ellipse fill="none" stroke="#e377c2" cx="1724.65" cy="-607.06" rx="53.07" ry="16.03"/>
<text text-anchor="middle" x="1724.65" y="-603.36" font-family="Times,serif" font-size="14.00">okh:unit</text>
</g>
<!-- http://w3id.org/oseg/ont/okh#unit&#45;&gt;http://w3id.org/oseg/ont/okh#Mass -->
<g id="edge40" class="edge">
<title>http://w3id.org/oseg/ont/okh#unit&#45;&gt;http://w3id.org/oseg/ont/okh#Mass</title>
<path fill="none" stroke="black" d="M1683.63,-617.46C1640.45,-628.41 1572.28,-645.7 1524.83,-657.74"/>
<polygon fill="black" stroke="black" points="1523.87,-654.37 1515.03,-660.22 1525.59,-661.15 1523.87,-654.37"/>
<text text-anchor="middle" x="1526.23" y="-641.4" font-family="Times,serif" font-size="14.00">dcam:domainIncludes</text>
</g>
<!-- http://w3id.org/oseg/ont/okh#unit&#45;&gt;http://w3id.org/oseg/ont/okh#Dimensions -->
<g id="edge24" class="edge">
<title>http://w3id.org/oseg/ont/okh#unit&#45;&gt;http://w3id.org/oseg/ont/okh#Dimensions</title>
<path fill="none" stroke="black" d="M1770.8,-599.02C1818.61,-590.7 1894.1,-577.56 1950.66,-567.71"/>
<polygon fill="black" stroke="black" points="1951.38,-571.14 1960.63,-565.98 1950.18,-564.25 1951.38,-571.14"/>
<text text-anchor="middle" x="1782.73" y="-572.17" font-family="Times,serif" font-size="14.00">dcam:domainIncludes</text>
</g>
<!-- http://w3id.org/oseg/ont/okh#openScad -->
<g id="node36" class="node">
<title>http://w3id.org/oseg/ont/okh#openScad</title>
<ellipse fill="none" stroke="#e377c2" cx="2615.46" cy="-444.97" rx="82.05" ry="16.03"/>
<text text-anchor="middle" x="2615.46" y="-441.27" font-family="Times,serif" font-size="14.00">okh:openScad</text>
</g>
<!-- http://w3id.org/oseg/ont/okh#openScad&#45;&gt;http://w3id.org/oseg/ont/okh#openSCAD -->
<g id="edge4" class="edge">
<title>http://w3id.org/oseg/ont/okh#openScad&#45;&gt;http://w3id.org/oseg/ont/okh#openSCAD</title>
<path fill="none" stroke="black" d="M2543.7,-452.88C2500,-460.37 2445.06,-471.3 2404.99,-480.54"/>
<polygon fill="black" stroke="black" points="2404.07,-477.16 2395.14,-482.85 2405.67,-483.98 2404.07,-477.16"/>
<text text-anchor="middle" x="2431.84" y="-455.51" font-family="Times,serif" font-size="14.00">owl:sameAs</text>
</g>
<!-- http://w3id.org/oseg/ont/okh#openScad&#45;&gt;http://w3id.org/oseg/ont/okh#openSCAD -->
<g id="edge31" class="edge">
<title>http://w3id.org/oseg/ont/okh#openScad&#45;&gt;http://w3id.org/oseg/ont/okh#openSCAD</title>
<path fill="none" stroke="black" d="M2571.85,-458.83C2534.74,-467.72 2480.38,-478.76 2434.84,-486.84"/>
<polygon fill="black" stroke="black" points="2434.22,-483.39 2424.97,-488.56 2435.42,-490.29 2434.22,-483.39"/>
<text text-anchor="middle" x="2583.35" y="-476.63" font-family="Times,serif" font-size="14.00">schema:supersededBy</text>
</g>
<!-- http://w3id.org/oseg/ont/okh#okhvOriginal -->
<g id="node39" class="node">
<title>http://w3id.org/oseg/ont/okh#okhvOriginal</title>
<ellipse fill="none" stroke="#e377c2" cx="1618.51" cy="-459.5" rx="97.66" ry="16.03"/>
<text text-anchor="middle" x="1618.51" y="-455.8" font-family="Times,serif" font-size="14.00">okh:okhvOriginal</text>
</g>
<!-- http://w3id.org/oseg/ont/okh#okhvOriginal&#45;&gt;http://w3id.org/oseg/ont/okh#okhv -->
<g id="edge5" class="edge">
<title>http://w3id.org/oseg/ont/okh#okhvOriginal&#45;&gt;http://w3id.org/oseg/ont/okh#okhv</title>
<path fill="none" stroke="black" d="M1559.91,-446.48C1537.23,-441.44 1511.41,-435.7 1489.09,-430.74"/>
<polygon fill="black" stroke="black" points="1489.62,-427.27 1479.1,-428.52 1488.1,-434.1 1489.62,-427.27"/>
<text text-anchor="middle" x="1551" y="-427.41" font-family="Times,serif" font-size="14.00">subPropertyOf</text>
</g>
<!-- http://w3id.org/oseg/ont/okh#okhvOriginal&#45;&gt;http://w3id.org/oseg/ont/okh#okhvStored -->
<g id="edge9" class="edge">
<title>http://w3id.org/oseg/ont/okh#okhvOriginal&#45;&gt;http://w3id.org/oseg/ont/okh#okhvStored</title>
<path fill="none" stroke="black" d="M1648.76,-443.92C1651.9,-442.31 1655.12,-440.65 1658.33,-439"/>
<polygon fill="black" stroke="black" points="1660.02,-442.06 1667.3,-434.37 1656.81,-435.84 1660.02,-442.06"/>
<text text-anchor="middle" x="1681.05" y="-430.26" font-family="Times,serif" font-size="14.00">seeAlso</text>
</g>
</g>
</svg>
