<?xml version="1.0" encoding="UTF-8" standalone="no"?>
<!DOCTYPE svg PUBLIC "-//W3C//DTD SVG 1.1//EN"
 "http://www.w3.org/Graphics/SVG/1.1/DTD/svg11.dtd">
<!-- Generated by graphviz version 2.43.0 (0)
 -->
<!-- Title: G Pages: 1 -->
<svg width="2487pt" height="1398pt"
 viewBox="0.00 0.00 2487.00 1398.00" xmlns="http://www.w3.org/2000/svg" xmlns:xlink="http://www.w3.org/1999/xlink">
<g id="graph0" class="graph" transform="scale(1 1) rotate(0) translate(4 1394)">
<title>G</title>
<polygon fill="white" stroke="transparent" points="-4,4 -4,-1394 2483,-1394 2483,4 -4,4"/>
<!-- http://www.w3.org/2004/02/skos/core#Concept -->
<g id="node1" class="node">
<title>http://www.w3.org/2004/02/skos/core#Concept</title>
<ellipse fill="none" stroke="#1f77b4" cx="1504.38" cy="-700.1" rx="78.48" ry="16.03"/>
<text text-anchor="middle" x="1504.38" y="-696.4" font-family="Times,serif" font-size="14.00">skos:Concept</text>
</g>
<!-- http://w3id.org/oseg/ont/okh#Reference -->
<g id="node2" class="node">
<title>http://w3id.org/oseg/ont/okh#Reference</title>
<ellipse fill="none" stroke="#e377c2" cx="2035.99" cy="-596.42" rx="84.29" ry="16.03"/>
<text text-anchor="middle" x="2035.99" y="-592.72" font-family="Times,serif" font-size="14.00">okh:Reference</text>
</g>
<!-- http://schema.org/URL -->
<g id="node3" class="node">
<title>http://schema.org/URL</title>
<ellipse fill="none" stroke="#e377c2" cx="1754.16" cy="-222.28" rx="75.82" ry="16.03"/>
<text text-anchor="middle" x="1754.16" y="-218.58" font-family="Times,serif" font-size="14.00">schema:URL</text>
</g>
<!-- http://w3id.org/oseg/ont/okh#ComponentReference -->
<g id="node4" class="node">
<title>http://w3id.org/oseg/ont/okh#ComponentReference</title>
<ellipse fill="none" stroke="#e377c2" cx="1759.32" cy="-483.31" rx="123.07" ry="16.03"/>
<text text-anchor="middle" x="1759.32" y="-479.61" font-family="Times,serif" font-size="14.00">okh:ComponentRefe...</text>
</g>
<!-- http://w3id.org/oseg/ont/okh#ComponentReference&#45;&gt;http://www.w3.org/2004/02/skos/core#Concept -->
<g id="edge36" class="edge">
<title>http://w3id.org/oseg/ont/okh#ComponentReference&#45;&gt;http://www.w3.org/2004/02/skos/core#Concept</title>
<path fill="none" stroke="black" d="M1740.16,-499.6C1695.09,-537.93 1582.31,-633.83 1530.79,-677.64"/>
<polygon fill="black" stroke="black" points="1528.42,-675.06 1523.07,-684.21 1532.96,-680.39 1528.42,-675.06"/>
<text text-anchor="middle" x="1630.98" y="-592.42" font-family="Times,serif" font-size="14.00">a</text>
</g>
<!-- http://w3id.org/oseg/ont/okh#ComponentReference&#45;&gt;http://w3id.org/oseg/ont/okh#Reference -->
<g id="edge37" class="edge">
<title>http://w3id.org/oseg/ont/okh#ComponentReference&#45;&gt;http://w3id.org/oseg/ont/okh#Reference</title>
<path fill="none" stroke="black" d="M1797.21,-498.8C1847.61,-519.4 1936.6,-555.79 1990.55,-577.84"/>
<polygon fill="black" stroke="black" points="1989.29,-581.11 1999.87,-581.65 1991.94,-574.63 1989.29,-581.11"/>
</g>
<!-- http://w3id.org/oseg/ont/okhmetaPartsTag -->
<g id="node11" class="node">
<title>http://w3id.org/oseg/ont/okhmetaPartsTag</title>
<ellipse fill="none" stroke="#e377c2" cx="1902.48" cy="-179.8" rx="103.48" ry="16.03"/>
<text text-anchor="middle" x="1902.48" y="-176.1" font-family="Times,serif" font-size="14.00">okhmeta:PartsTag</text>
</g>
<!-- http://w3id.org/oseg/ont/okh#ComponentReference&#45;&gt;http://w3id.org/oseg/ont/okhmetaPartsTag -->
<g id="edge4" class="edge">
<title>http://w3id.org/oseg/ont/okh#ComponentReference&#45;&gt;http://w3id.org/oseg/ont/okhmetaPartsTag</title>
<path fill="none" stroke="black" d="M1767.02,-466.99C1790.56,-417.07 1861.76,-266.13 1890.37,-205.46"/>
<polygon fill="black" stroke="black" points="1893.64,-206.73 1894.74,-196.2 1887.31,-203.75 1893.64,-206.73"/>
<text text-anchor="middle" x="1751.69" y="-340.02" font-family="Times,serif" font-size="14.00">okhmeta:hasMetaTag</text>
</g>
<!-- http://w3id.org/oseg/ont/okh#Mass -->
<g id="node5" class="node">
<title>http://w3id.org/oseg/ont/okh#Mass</title>
<ellipse fill="none" stroke="#e377c2" cx="1156.64" cy="-688.51" rx="59.29" ry="16.03"/>
<text text-anchor="middle" x="1156.64" y="-684.81" font-family="Times,serif" font-size="14.00">okh:Mass</text>
</g>
<!-- http://w3id.org/oseg/ont/okh#Mass&#45;&gt;http://www.w3.org/2004/02/skos/core#Concept -->
<g id="edge23" class="edge">
<title>http://w3id.org/oseg/ont/okh#Mass&#45;&gt;http://www.w3.org/2004/02/skos/core#Concept</title>
<path fill="none" stroke="black" d="M1215.63,-690.48C1270.69,-692.31 1353.59,-695.07 1416.45,-697.17"/>
<polygon fill="black" stroke="black" points="1416.65,-700.68 1426.76,-697.51 1416.88,-693.68 1416.65,-700.68"/>
<text text-anchor="middle" x="1311.54" y="-697.62" font-family="Times,serif" font-size="14.00">a</text>
</g>
<!-- http://w3id.org/oseg/ont/okhmetaPhysicalTag -->
<g id="node19" class="node">
<title>http://w3id.org/oseg/ont/okhmetaPhysicalTag</title>
<ellipse fill="none" stroke="#e377c2" cx="937.81" cy="-853.51" rx="118.17" ry="16.03"/>
<text text-anchor="middle" x="937.81" y="-849.81" font-family="Times,serif" font-size="14.00">okhmeta:PhysicalTag</text>
</g>
<!-- http://w3id.org/oseg/ont/okh#Mass&#45;&gt;http://w3id.org/oseg/ont/okhmetaPhysicalTag -->
<g id="edge13" class="edge">
<title>http://w3id.org/oseg/ont/okh#Mass&#45;&gt;http://w3id.org/oseg/ont/okhmetaPhysicalTag</title>
<path fill="none" stroke="black" d="M1136.05,-704.03C1097.07,-733.43 1012.36,-797.29 967.33,-831.24"/>
<polygon fill="black" stroke="black" points="965.02,-828.6 959.15,-837.42 969.24,-834.19 965.02,-828.6"/>
<text text-anchor="middle" x="974.69" y="-771.44" font-family="Times,serif" font-size="14.00">okhmeta:hasMetaTag</text>
</g>
<!-- http://w3id.org/oseg/ont/okhmetaTransportationTag -->
<g id="node20" class="node">
<title>http://w3id.org/oseg/ont/okhmetaTransportationTag</title>
<ellipse fill="none" stroke="#e377c2" cx="893.08" cy="-726.04" rx="118.17" ry="16.03"/>
<text text-anchor="middle" x="893.08" y="-722.34" font-family="Times,serif" font-size="14.00">okhmeta:Transport...</text>
</g>
<!-- http://w3id.org/oseg/ont/okh#Mass&#45;&gt;http://w3id.org/oseg/ont/okhmetaTransportationTag -->
<g id="edge15" class="edge">
<title>http://w3id.org/oseg/ont/okh#Mass&#45;&gt;http://w3id.org/oseg/ont/okhmetaTransportationTag</title>
<path fill="none" stroke="black" d="M1103.93,-696.01C1070.01,-700.85 1024.98,-707.26 985.25,-712.91"/>
<polygon fill="black" stroke="black" points="984.68,-709.46 975.27,-714.33 985.67,-716.39 984.68,-709.46"/>
<text text-anchor="middle" x="967.59" y="-693.26" font-family="Times,serif" font-size="14.00">okhmeta:hasMetaTag</text>
</g>
<!-- http://w3id.org/oseg/ont/okh#FileUrl -->
<g id="node6" class="node">
<title>http://w3id.org/oseg/ont/okh#FileUrl</title>
<ellipse fill="none" stroke="#1f77b4" cx="1832.61" cy="-436.19" rx="68.68" ry="16.03"/>
<text text-anchor="middle" x="1832.61" y="-432.49" font-family="Times,serif" font-size="14.00">okh:FileUrl</text>
</g>
<!-- http://w3id.org/oseg/ont/okh#FileUrl&#45;&gt;http://schema.org/URL -->
<g id="edge10" class="edge">
<title>http://w3id.org/oseg/ont/okh#FileUrl&#45;&gt;http://schema.org/URL</title>
<path fill="none" stroke="black" d="M1826.58,-419.76C1813.03,-382.82 1780.08,-292.96 1763.71,-248.33"/>
<polygon fill="black" stroke="black" points="1766.94,-246.95 1760.21,-238.77 1760.36,-249.36 1766.94,-246.95"/>
</g>
<!-- http://w3id.org/oseg/ont/okh#FileUrl&#45;&gt;http://w3id.org/oseg/ont/okh#ComponentReference -->
<g id="edge32" class="edge">
<title>http://w3id.org/oseg/ont/okh#FileUrl&#45;&gt;http://w3id.org/oseg/ont/okh#ComponentReference</title>
<path fill="none" stroke="black" d="M1808.61,-451.62C1803.58,-454.85 1798.19,-458.31 1792.89,-461.72"/>
<polygon fill="black" stroke="black" points="1790.64,-459.01 1784.12,-467.36 1794.43,-464.9 1790.64,-459.01"/>
</g>
<!-- http://w3id.org/oseg/ont/okh#File -->
<g id="node31" class="node">
<title>http://w3id.org/oseg/ont/okh#File</title>
<ellipse fill="none" stroke="#e377c2" cx="2048.64" cy="-516.97" rx="52.15" ry="16.03"/>
<text text-anchor="middle" x="2048.64" y="-513.27" font-family="Times,serif" font-size="14.00">okh:File</text>
</g>
<!-- http://w3id.org/oseg/ont/okh#FileUrl&#45;&gt;http://w3id.org/oseg/ont/okh#File -->
<g id="edge30" class="edge">
<title>http://w3id.org/oseg/ont/okh#FileUrl&#45;&gt;http://w3id.org/oseg/ont/okh#File</title>
<path fill="none" stroke="black" d="M1869.74,-450.08C1907.53,-464.2 1966.02,-486.07 2005.76,-500.93"/>
<polygon fill="black" stroke="black" points="2004.59,-504.23 2015.18,-504.46 2007.04,-497.67 2004.59,-504.23"/>
<text text-anchor="middle" x="2017.75" y="-479.3" font-family="Times,serif" font-size="14.00">schema:supersededBy</text>
</g>
<!-- http://w3id.org/oseg/ont/okh#okhvOrig -->
<g id="node7" class="node">
<title>http://w3id.org/oseg/ont/okh#okhvOrig</title>
<ellipse fill="none" stroke="#e377c2" cx="1508.78" cy="-1116.46" rx="79.39" ry="16.03"/>
<text text-anchor="middle" x="1508.78" y="-1112.76" font-family="Times,serif" font-size="14.00">okh:okhvOrig</text>
</g>
<!-- http://w3id.org/oseg/ont/okh#okhv -->
<g id="node8" class="node">
<title>http://w3id.org/oseg/ont/okh#okhv</title>
<ellipse fill="none" stroke="#e377c2" cx="1681.76" cy="-1292.34" rx="56.64" ry="16.03"/>
<text text-anchor="middle" x="1681.76" y="-1288.64" font-family="Times,serif" font-size="14.00">okh:okhv</text>
</g>
<!-- http://w3id.org/oseg/ont/okh#alternativeLicense -->
<g id="node9" class="node">
<title>http://w3id.org/oseg/ont/okh#alternativeLicense</title>
<ellipse fill="none" stroke="#e377c2" cx="1855.84" cy="-784.53" rx="107.46" ry="16.03"/>
<text text-anchor="middle" x="1855.84" y="-780.83" font-family="Times,serif" font-size="14.00">okh:alternativeLi...</text>
</g>
<!-- http://w3id.org/oseg/ont/okh#alternativeLicense&#45;&gt;http://www.w3.org/2004/02/skos/core#Concept -->
<g id="edge3" class="edge">
<title>http://w3id.org/oseg/ont/okh#alternativeLicense&#45;&gt;http://www.w3.org/2004/02/skos/core#Concept</title>
<path fill="none" stroke="black" d="M1798.2,-770.68C1734.11,-755.29 1631.01,-730.52 1565.54,-714.79"/>
<polygon fill="black" stroke="black" points="1566.3,-711.38 1555.76,-712.44 1564.67,-718.18 1566.3,-711.38"/>
<text text-anchor="middle" x="1677.37" y="-746.54" font-family="Times,serif" font-size="14.00">a</text>
</g>
<!-- http://w3id.org/oseg/ont/okhmetaLegalTag -->
<g id="node17" class="node">
<title>http://w3id.org/oseg/ont/okhmetaLegalTag</title>
<ellipse fill="none" stroke="#e377c2" cx="1866.03" cy="-827.53" rx="103.89" ry="16.03"/>
<text text-anchor="middle" x="1866.03" y="-823.83" font-family="Times,serif" font-size="14.00">okhmeta:LegalTag</text>
</g>
<!-- http://w3id.org/oseg/ont/okh#alternativeLicense&#45;&gt;http://w3id.org/oseg/ont/okhmetaLegalTag -->
<g id="edge11" class="edge">
<title>http://w3id.org/oseg/ont/okh#alternativeLicense&#45;&gt;http://w3id.org/oseg/ont/okhmetaLegalTag</title>
<path fill="none" stroke="black" d="M1859.75,-801.03C1859.78,-801.13 1859.8,-801.24 1859.83,-801.34"/>
<polygon fill="black" stroke="black" points="1856.44,-802.22 1862.15,-811.14 1863.25,-800.6 1856.44,-802.22"/>
<text text-anchor="middle" x="1782.79" y="-804.99" font-family="Times,serif" font-size="14.00">okhmeta:hasMetaTag</text>
</g>
<!-- http://w3id.org/oseg/ont/okh#license -->
<g id="node18" class="node">
<title>http://w3id.org/oseg/ont/okh#license</title>
<ellipse fill="none" stroke="#e377c2" cx="1964.64" cy="-1017.94" rx="67.76" ry="16.03"/>
<text text-anchor="middle" x="1964.64" y="-1014.24" font-family="Times,serif" font-size="14.00">okh:license</text>
</g>
<!-- http://w3id.org/oseg/ont/okh#alternativeLicense&#45;&gt;http://w3id.org/oseg/ont/okh#license -->
<g id="edge12" class="edge">
<title>http://w3id.org/oseg/ont/okh#alternativeLicense&#45;&gt;http://w3id.org/oseg/ont/okh#license</title>
<path fill="none" stroke="black" d="M1863.49,-800.94C1882.18,-841.04 1930.26,-944.2 1952.73,-992.41"/>
<polygon fill="black" stroke="black" points="1949.6,-993.96 1956.99,-1001.55 1955.94,-991.01 1949.6,-993.96"/>
<text text-anchor="middle" x="1988.11" y="-900.47" font-family="Times,serif" font-size="14.00">schema:supersededBy</text>
</g>
<!-- http://w3id.org/oseg/ont/okh#Module -->
<g id="node28" class="node">
<title>http://w3id.org/oseg/ont/okh#Module</title>
<ellipse fill="none" stroke="#e377c2" cx="1811.35" cy="-1054.2" rx="70.92" ry="16.03"/>
<text text-anchor="middle" x="1811.35" y="-1050.5" font-family="Times,serif" font-size="14.00">okh:Module</text>
</g>
<!-- http://w3id.org/oseg/ont/okh#alternativeLicense&#45;&gt;http://w3id.org/oseg/ont/okh#Module -->
<g id="edge22" class="edge">
<title>http://w3id.org/oseg/ont/okh#alternativeLicense&#45;&gt;http://w3id.org/oseg/ont/okh#Module</title>
<path fill="none" stroke="black" d="M1853.13,-800.99C1845.68,-846.13 1824.89,-972.14 1815.76,-1027.52"/>
<polygon fill="black" stroke="black" points="1812.27,-1027.17 1814.09,-1037.61 1819.17,-1028.31 1812.27,-1027.17"/>
<text text-anchor="middle" x="1756.44" y="-918.06" font-family="Times,serif" font-size="14.00">dcam:domainIncludes</text>
</g>
<!-- http://schema.org/license -->
<g id="node30" class="node">
<title>http://schema.org/license</title>
<ellipse fill="none" stroke="#e377c2" cx="2042.62" cy="-959.38" rx="88.28" ry="16.03"/>
<text text-anchor="middle" x="2042.62" y="-955.68" font-family="Times,serif" font-size="14.00">schema:license</text>
</g>
<!-- http://w3id.org/oseg/ont/okh#alternativeLicense&#45;&gt;http://schema.org/license -->
<g id="edge43" class="edge">
<title>http://w3id.org/oseg/ont/okh#alternativeLicense&#45;&gt;http://schema.org/license</title>
<path fill="none" stroke="black" d="M1873.08,-800.66C1906.3,-831.76 1979.29,-900.09 2017.77,-936.11"/>
<polygon fill="black" stroke="black" points="2015.73,-939 2025.43,-943.28 2020.52,-933.89 2015.73,-939"/>
<text text-anchor="middle" x="2004.42" y="-872.19" font-family="Times,serif" font-size="14.00">skos:closeMatch</text>
</g>
<!-- http://w3id.org/oseg/ont/okh#alternativeLicense&#45;&gt;http://w3id.org/oseg/ont/okh#File -->
<g id="edge27" class="edge">
<title>http://w3id.org/oseg/ont/okh#alternativeLicense&#45;&gt;http://w3id.org/oseg/ont/okh#File</title>
<path fill="none" stroke="black" d="M1867.61,-768.19C1900.29,-722.84 1992.3,-595.16 2031.07,-541.36"/>
<polygon fill="black" stroke="black" points="2034.02,-543.25 2037.03,-533.09 2028.34,-539.16 2034.02,-543.25"/>
<text text-anchor="middle" x="1876.84" y="-658.58" font-family="Times,serif" font-size="14.00">dcam:rangeIncludes</text>
</g>
<!-- http://w3id.org/oseg/ont/okh#okhvPresent -->
<g id="node10" class="node">
<title>http://w3id.org/oseg/ont/okh#okhvPresent</title>
<ellipse fill="none" stroke="#e377c2" cx="1680.18" cy="-1251.4" rx="96.33" ry="16.03"/>
<text text-anchor="middle" x="1680.18" y="-1247.7" font-family="Times,serif" font-size="14.00">okh:okhvPresent</text>
</g>
<!-- http://w3id.org/oseg/ont/okh#okhvPresent&#45;&gt;http://w3id.org/oseg/ont/okh#okhvOrig -->
<g id="edge1" class="edge">
<title>http://w3id.org/oseg/ont/okh#okhvPresent&#45;&gt;http://w3id.org/oseg/ont/okh#okhvOrig</title>
<path fill="none" stroke="black" d="M1659.85,-1235.39C1629.35,-1211.39 1571.68,-1165.98 1537.09,-1138.75"/>
<polygon fill="black" stroke="black" points="1538.84,-1135.68 1528.82,-1132.24 1534.51,-1141.18 1538.84,-1135.68"/>
<text text-anchor="middle" x="1570.97" y="-1190.87" font-family="Times,serif" font-size="14.00">seeAlso</text>
</g>
<!-- http://w3id.org/oseg/ont/okh#okhvPresent&#45;&gt;http://w3id.org/oseg/ont/okh#okhv -->
<g id="edge5" class="edge">
<title>http://w3id.org/oseg/ont/okh#okhvPresent&#45;&gt;http://w3id.org/oseg/ont/okh#okhv</title>
<path fill="none" stroke="black" d="M1680.82,-1268.05C1680.83,-1268.22 1680.84,-1268.38 1680.84,-1268.54"/>
<polygon fill="black" stroke="black" points="1677.24,-1265.98 1681.12,-1275.84 1684.24,-1265.71 1677.24,-1265.98"/>
<text text-anchor="middle" x="1627.83" y="-1272.1" font-family="Times,serif" font-size="14.00">subPropertyOf</text>
</g>
<!-- http://w3id.org/oseg/ont/okh#openScad -->
<g id="node12" class="node">
<title>http://w3id.org/oseg/ont/okh#openScad</title>
<ellipse fill="none" stroke="#e377c2" cx="274.7" cy="-16.37" rx="82.05" ry="16.03"/>
<text text-anchor="middle" x="274.7" y="-12.67" font-family="Times,serif" font-size="14.00">okh:openScad</text>
</g>
<!-- http://w3id.org/oseg/ont/okh#openSCAD -->
<g id="node16" class="node">
<title>http://w3id.org/oseg/ont/okh#openSCAD</title>
<ellipse fill="none" stroke="#e377c2" cx="301.41" cy="-266.83" rx="86.03" ry="16.03"/>
<text text-anchor="middle" x="301.41" y="-263.13" font-family="Times,serif" font-size="14.00">okh:openSCAD</text>
</g>
<!-- http://w3id.org/oseg/ont/okh#openScad&#45;&gt;http://w3id.org/oseg/ont/okh#openSCAD -->
<g id="edge14" class="edge">
<title>http://w3id.org/oseg/ont/okh#openScad&#45;&gt;http://w3id.org/oseg/ont/okh#openSCAD</title>
<path fill="none" stroke="black" d="M272.91,-32.8C273.41,-75.15 285.2,-188.37 294.16,-240.23"/>
<polygon fill="black" stroke="black" points="290.77,-241.12 296.03,-250.31 297.65,-239.84 290.77,-241.12"/>
<text text-anchor="middle" x="241.04" y="-140.31" font-family="Times,serif" font-size="14.00">owl:sameAs</text>
</g>
<!-- http://w3id.org/oseg/ont/okh#openScad&#45;&gt;http://w3id.org/oseg/ont/okh#openSCAD -->
<g id="edge16" class="edge">
<title>http://w3id.org/oseg/ont/okh#openScad&#45;&gt;http://w3id.org/oseg/ont/okh#openSCAD</title>
<path fill="none" stroke="black" d="M280.07,-32.81C288.56,-75.2 300.88,-188.45 302.93,-240.28"/>
<polygon fill="black" stroke="black" points="299.43,-240.46 303.2,-250.36 306.43,-240.26 299.43,-240.46"/>
<text text-anchor="middle" x="371.5" y="-140.35" font-family="Times,serif" font-size="14.00">schema:supersededBy</text>
</g>
<!-- http://w3id.org/oseg/ont/okh#Dimensions -->
<g id="node13" class="node">
<title>http://w3id.org/oseg/ont/okh#Dimensions</title>
<ellipse fill="none" stroke="#e377c2" cx="617.65" cy="-422.29" rx="91.85" ry="16.03"/>
<text text-anchor="middle" x="617.65" y="-418.59" font-family="Times,serif" font-size="14.00">okh:Dimensions</text>
</g>
<!-- http://w3id.org/oseg/ont/okh#tsdc -->
<g id="node14" class="node">
<title>http://w3id.org/oseg/ont/okh#tsdc</title>
<ellipse fill="none" stroke="#e377c2" cx="824.61" cy="-1140.33" rx="54.39" ry="16.03"/>
<text text-anchor="middle" x="824.61" y="-1136.63" font-family="Times,serif" font-size="14.00">okh:tsdc</text>
</g>
<!-- http://w3id.org/oseg/ont/okh#Software -->
<g id="node15" class="node">
<title>http://w3id.org/oseg/ont/okh#Software</title>
<ellipse fill="none" stroke="#e377c2" cx="1205.07" cy="-235.32" rx="78.48" ry="16.03"/>
<text text-anchor="middle" x="1205.07" y="-231.62" font-family="Times,serif" font-size="14.00">okh:Software</text>
</g>
<!-- http://w3id.org/oseg/ont/okh#openSCAD&#45;&gt;http://w3id.org/oseg/ont/okh#Dimensions -->
<g id="edge6" class="edge">
<title>http://w3id.org/oseg/ont/okh#openSCAD&#45;&gt;http://w3id.org/oseg/ont/okh#Dimensions</title>
<path fill="none" stroke="black" d="M332.31,-282.02C389.78,-310.27 513.1,-370.89 577.15,-402.38"/>
<polygon fill="black" stroke="black" points="575.64,-405.54 586.16,-406.81 578.73,-399.26 575.64,-405.54"/>
<text text-anchor="middle" x="376.73" y="-346" font-family="Times,serif" font-size="14.00">dcam:domainIncludes</text>
</g>
<!-- http://w3id.org/oseg/ont/okh#width -->
<g id="node22" class="node">
<title>http://w3id.org/oseg/ont/okh#width</title>
<ellipse fill="none" stroke="#e377c2" cx="165.2" cy="-81.79" rx="61.54" ry="16.03"/>
<text text-anchor="middle" x="165.2" y="-78.09" font-family="Times,serif" font-size="14.00">okh:width</text>
</g>
<!-- http://w3id.org/oseg/ont/okh#openSCAD&#45;&gt;http://w3id.org/oseg/ont/okh#width -->
<g id="edge17" class="edge">
<title>http://w3id.org/oseg/ont/okh#openSCAD&#45;&gt;http://w3id.org/oseg/ont/okh#width</title>
<path fill="none" stroke="black" d="M289.32,-250.41C265.33,-217.82 211.59,-144.81 183.34,-106.43"/>
<polygon fill="black" stroke="black" points="185.81,-103.89 177.06,-97.91 180.17,-108.04 185.81,-103.89"/>
<text text-anchor="middle" x="316.33" y="-182.22" font-family="Times,serif" font-size="14.00">schema:supersededBy</text>
</g>
<!-- http://w3id.org/oseg/ont/okh#depth -->
<g id="node25" class="node">
<title>http://w3id.org/oseg/ont/okh#depth</title>
<ellipse fill="none" stroke="#e377c2" cx="90.39" cy="-167.51" rx="62.45" ry="16.03"/>
<text text-anchor="middle" x="90.39" y="-163.81" font-family="Times,serif" font-size="14.00">okh:depth</text>
</g>
<!-- http://w3id.org/oseg/ont/okh#openSCAD&#45;&gt;http://w3id.org/oseg/ont/okh#depth -->
<g id="edge20" class="edge">
<title>http://w3id.org/oseg/ont/okh#openSCAD&#45;&gt;http://w3id.org/oseg/ont/okh#depth</title>
<path fill="none" stroke="black" d="M268.9,-251.53C231.55,-233.95 170.25,-205.1 130.11,-186.2"/>
<polygon fill="black" stroke="black" points="131.42,-182.95 120.88,-181.86 128.44,-189.29 131.42,-182.95"/>
<text text-anchor="middle" x="119.5" y="-222.67" font-family="Times,serif" font-size="14.00">schema:supersededBy</text>
</g>
<!-- http://www.w3.org/2001/XMLSchema#string -->
<g id="node37" class="node">
<title>http://www.w3.org/2001/XMLSchema#string</title>
<ellipse fill="none" stroke="#e377c2" cx="115.58" cy="-400.82" rx="62.87" ry="16.03"/>
<text text-anchor="middle" x="115.58" y="-397.12" font-family="Times,serif" font-size="14.00">xsd:string</text>
</g>
<!-- http://w3id.org/oseg/ont/okh#openSCAD&#45;&gt;http://www.w3.org/2001/XMLSchema#string -->
<g id="edge34" class="edge">
<title>http://w3id.org/oseg/ont/okh#openSCAD&#45;&gt;http://www.w3.org/2001/XMLSchema#string</title>
<path fill="none" stroke="black" d="M279.36,-282.72C246.07,-306.73 182.91,-352.27 145.5,-379.25"/>
<polygon fill="black" stroke="black" points="143.09,-376.67 137.02,-385.36 147.18,-382.35 143.09,-376.67"/>
<text text-anchor="middle" x="139.93" y="-334.79" font-family="Times,serif" font-size="14.00">dcam:rangeIncludes</text>
</g>
<!-- http://w3id.org/oseg/ont/okh#height -->
<g id="node40" class="node">
<title>http://w3id.org/oseg/ont/okh#height</title>
<ellipse fill="none" stroke="#e377c2" cx="65.49" cy="-280.74" rx="65.11" ry="16.03"/>
<text text-anchor="middle" x="65.49" y="-277.04" font-family="Times,serif" font-size="14.00">okh:height</text>
</g>
<!-- http://w3id.org/oseg/ont/okh#openSCAD&#45;&gt;http://w3id.org/oseg/ont/okh#height -->
<g id="edge44" class="edge">
<title>http://w3id.org/oseg/ont/okh#openSCAD&#45;&gt;http://w3id.org/oseg/ont/okh#height</title>
<path fill="none" stroke="black" d="M218.9,-271.7C192.97,-273.22 164.53,-274.9 139.25,-276.39"/>
<polygon fill="black" stroke="black" points="138.77,-272.92 128.99,-277 139.18,-279.9 138.77,-272.92"/>
<text text-anchor="middle" x="139.07" y="-262.84" font-family="Times,serif" font-size="14.00">schema:supersededBy</text>
</g>
<!-- http://w3id.org/oseg/ont/okh#permaURL -->
<g id="node21" class="node">
<title>http://w3id.org/oseg/ont/okh#permaURL</title>
<ellipse fill="none" stroke="#e377c2" cx="2275.14" cy="-528.49" rx="87.86" ry="16.03"/>
<text text-anchor="middle" x="2275.14" y="-524.79" font-family="Times,serif" font-size="14.00">okh:permaURL</text>
</g>
<!-- http://w3id.org/oseg/ont/okh#permaURL&#45;&gt;http://w3id.org/oseg/ont/okh#File -->
<g id="edge38" class="edge">
<title>http://w3id.org/oseg/ont/okh#permaURL&#45;&gt;http://w3id.org/oseg/ont/okh#File</title>
<path fill="none" stroke="black" d="M2190.48,-524.18C2163.98,-522.83 2135.25,-521.37 2110.62,-520.12"/>
<polygon fill="black" stroke="black" points="2110.5,-516.61 2100.34,-519.6 2110.15,-523.6 2110.5,-516.61"/>
<text text-anchor="middle" x="2189.55" y="-510.95" font-family="Times,serif" font-size="14.00">dcam:domainIncludes</text>
</g>
<!-- http://w3id.org/oseg/ont/okh#value -->
<g id="node23" class="node">
<title>http://w3id.org/oseg/ont/okh#value</title>
<ellipse fill="none" stroke="#e377c2" cx="1092.4" cy="-899.5" rx="60.21" ry="16.03"/>
<text text-anchor="middle" x="1092.4" y="-895.8" font-family="Times,serif" font-size="14.00">okh:value</text>
</g>
<!-- http://w3id.org/oseg/ont/okh#value&#45;&gt;http://w3id.org/oseg/ont/okh#Mass -->
<g id="edge41" class="edge">
<title>http://w3id.org/oseg/ont/okh#value&#45;&gt;http://w3id.org/oseg/ont/okh#Mass</title>
<path fill="none" stroke="black" d="M1097.44,-882.95C1108.56,-846.43 1135.25,-758.74 1148.66,-714.69"/>
<polygon fill="black" stroke="black" points="1152.05,-715.58 1151.62,-704.99 1145.36,-713.54 1152.05,-715.58"/>
<text text-anchor="middle" x="1045.05" y="-802.62" font-family="Times,serif" font-size="14.00">dcam:domainIncludes</text>
</g>
<!-- http://w3id.org/oseg/ont/okh#hasMass -->
<g id="node29" class="node">
<title>http://w3id.org/oseg/ont/okh#hasMass</title>
<ellipse fill="none" stroke="#e377c2" cx="1078.66" cy="-943.42" rx="77.15" ry="16.03"/>
<text text-anchor="middle" x="1078.66" y="-939.72" font-family="Times,serif" font-size="14.00">okh:hasMass</text>
</g>
<!-- http://w3id.org/oseg/ont/okh#value&#45;&gt;http://w3id.org/oseg/ont/okh#hasMass -->
<g id="edge25" class="edge">
<title>http://w3id.org/oseg/ont/okh#value&#45;&gt;http://w3id.org/oseg/ont/okh#hasMass</title>
<path fill="none" stroke="black" d="M1087.28,-915.86C1087.14,-916.31 1087,-916.76 1086.86,-917.22"/>
<polygon fill="black" stroke="black" points="1083.47,-916.32 1083.82,-926.91 1090.15,-918.41 1083.47,-916.32"/>
<text text-anchor="middle" x="1167.07" y="-920.34" font-family="Times,serif" font-size="14.00">schema:supersededBy</text>
</g>
<!-- http://w3id.org/oseg/ont/okh#installationGuide -->
<g id="node24" class="node">
<title>http://w3id.org/oseg/ont/okh#installationGuide</title>
<ellipse fill="none" stroke="#e377c2" cx="1348.56" cy="-465.5" rx="106.55" ry="16.03"/>
<text text-anchor="middle" x="1348.56" y="-461.8" font-family="Times,serif" font-size="14.00">okh:installationG...</text>
</g>
<!-- http://w3id.org/oseg/ont/okh#installationGuide&#45;&gt;http://www.w3.org/2004/02/skos/core#Concept -->
<g id="edge24" class="edge">
<title>http://w3id.org/oseg/ont/okh#installationGuide&#45;&gt;http://www.w3.org/2004/02/skos/core#Concept</title>
<path fill="none" stroke="black" d="M1359.52,-482C1386.46,-522.56 1456.06,-627.35 1487.97,-675.39"/>
<polygon fill="black" stroke="black" points="1485.19,-677.54 1493.64,-683.93 1491.02,-673.67 1485.19,-677.54"/>
<text text-anchor="middle" x="1419.24" y="-582.49" font-family="Times,serif" font-size="14.00">a</text>
</g>
<!-- http://w3id.org/oseg/ont/okh#installationGuide&#45;&gt;http://w3id.org/oseg/ont/okh#Software -->
<g id="edge9" class="edge">
<title>http://w3id.org/oseg/ont/okh#installationGuide&#45;&gt;http://w3id.org/oseg/ont/okh#Software</title>
<path fill="none" stroke="black" d="M1338.24,-448.95C1313.42,-409.13 1250.26,-307.81 1220.73,-260.45"/>
<polygon fill="black" stroke="black" points="1223.55,-258.36 1215.29,-251.73 1217.61,-262.06 1223.55,-258.36"/>
<text text-anchor="middle" x="1201.49" y="-358.5" font-family="Times,serif" font-size="14.00">dcam:domainIncludes</text>
</g>
<!-- http://w3id.org/oseg/ont/okh#unit -->
<g id="node26" class="node">
<title>http://w3id.org/oseg/ont/okh#unit</title>
<ellipse fill="none" stroke="#e377c2" cx="895.74" cy="-556.93" rx="53.07" ry="16.03"/>
<text text-anchor="middle" x="895.74" y="-553.23" font-family="Times,serif" font-size="14.00">okh:unit</text>
</g>
<!-- http://w3id.org/oseg/ont/okh#unit&#45;&gt;http://w3id.org/oseg/ont/okh#Mass -->
<g id="edge35" class="edge">
<title>http://w3id.org/oseg/ont/okh#unit&#45;&gt;http://w3id.org/oseg/ont/okh#Mass</title>
<path fill="none" stroke="black" d="M923.66,-571.01C970.78,-594.78 1066.13,-642.86 1119.07,-669.56"/>
<polygon fill="black" stroke="black" points="1117.62,-672.75 1128.12,-674.13 1120.77,-666.5 1117.62,-672.75"/>
<text text-anchor="middle" x="943.36" y="-624.09" font-family="Times,serif" font-size="14.00">dcam:domainIncludes</text>
</g>
<!-- http://w3id.org/oseg/ont/okh#unit&#45;&gt;http://w3id.org/oseg/ont/okh#Dimensions -->
<g id="edge18" class="edge">
<title>http://w3id.org/oseg/ont/okh#unit&#45;&gt;http://w3id.org/oseg/ont/okh#Dimensions</title>
<path fill="none" stroke="black" d="M867.28,-543.16C817.72,-519.16 715.39,-469.61 658.34,-441.99"/>
<polygon fill="black" stroke="black" points="659.77,-438.8 649.25,-437.59 656.72,-445.1 659.77,-438.8"/>
<text text-anchor="middle" x="684.81" y="-496.37" font-family="Times,serif" font-size="14.00">dcam:domainIncludes</text>
</g>
<!-- http://w3id.org/oseg/ont/okh#okhvStored -->
<g id="node27" class="node">
<title>http://w3id.org/oseg/ont/okh#okhvStored</title>
<ellipse fill="none" stroke="#e377c2" cx="1683.54" cy="-1373.84" rx="90.52" ry="16.03"/>
<text text-anchor="middle" x="1683.54" y="-1370.14" font-family="Times,serif" font-size="14.00">okh:okhvStored</text>
</g>
<!-- http://spdx.org/rdf/terms#ListedLicense -->
<g id="node32" class="node">
<title>http://spdx.org/rdf/terms#ListedLicense</title>
<ellipse fill="none" stroke="#e377c2" cx="1823.25" cy="-1188.43" rx="108.38" ry="16.03"/>
<text text-anchor="middle" x="1823.25" y="-1184.73" font-family="Times,serif" font-size="14.00">spdx:ListedLicense</text>
</g>
<!-- http://schema.org/url -->
<g id="node33" class="node">
<title>http://schema.org/url</title>
<ellipse fill="none" stroke="#e377c2" cx="2363.81" cy="-154.46" rx="67.35" ry="16.03"/>
<text text-anchor="middle" x="2363.81" y="-150.76" font-family="Times,serif" font-size="14.00">schema:url</text>
</g>
<!-- http://w3id.org/oseg/ont/okh#spdxLicense -->
<g id="node34" class="node">
<title>http://w3id.org/oseg/ont/okh#spdxLicense</title>
<ellipse fill="none" stroke="#e377c2" cx="1778.1" cy="-883.98" rx="94.51" ry="16.03"/>
<text text-anchor="middle" x="1778.1" y="-880.28" font-family="Times,serif" font-size="14.00">okh:spdxLicense</text>
</g>
<!-- http://w3id.org/oseg/ont/okh#spdxLicense&#45;&gt;http://www.w3.org/2004/02/skos/core#Concept -->
<g id="edge40" class="edge">
<title>http://w3id.org/oseg/ont/okh#spdxLicense&#45;&gt;http://www.w3.org/2004/02/skos/core#Concept</title>
<path fill="none" stroke="black" d="M1754.29,-867.98C1704.9,-834.81 1591.33,-758.51 1535.93,-721.29"/>
<polygon fill="black" stroke="black" points="1537.81,-718.34 1527.56,-715.67 1533.9,-724.15 1537.81,-718.34"/>
<text text-anchor="middle" x="1640.61" y="-798.44" font-family="Times,serif" font-size="14.00">a</text>
</g>
<!-- http://w3id.org/oseg/ont/okh#spdxLicense&#45;&gt;http://w3id.org/oseg/ont/okhmetaLegalTag -->
<g id="edge19" class="edge">
<title>http://w3id.org/oseg/ont/okh#spdxLicense&#45;&gt;http://w3id.org/oseg/ont/okhmetaLegalTag</title>
<path fill="none" stroke="black" d="M1802.6,-868.25C1811.95,-862.25 1822.78,-855.3 1832.81,-848.86"/>
<polygon fill="black" stroke="black" points="1834.84,-851.71 1841.37,-843.37 1831.06,-845.82 1834.84,-851.71"/>
<text text-anchor="middle" x="1740.7" y="-847.36" font-family="Times,serif" font-size="14.00">okhmeta:hasMetaTag</text>
</g>
<!-- http://w3id.org/oseg/ont/okh#spdxLicense&#45;&gt;http://w3id.org/oseg/ont/okh#license -->
<g id="edge39" class="edge">
<title>http://w3id.org/oseg/ont/okh#spdxLicense&#45;&gt;http://w3id.org/oseg/ont/okh#license</title>
<path fill="none" stroke="black" d="M1800.23,-899.87C1833.65,-923.87 1897.05,-969.41 1934.61,-996.38"/>
<polygon fill="black" stroke="black" points="1932.95,-999.49 1943.11,-1002.48 1937.03,-993.81 1932.95,-999.49"/>
<text text-anchor="middle" x="1787.42" y="-951.92" font-family="Times,serif" font-size="14.00">schema:supersededBy</text>
</g>
<!-- http://w3id.org/oseg/ont/okh#spdxLicense&#45;&gt;http://w3id.org/oseg/ont/okh#Module -->
<g id="edge28" class="edge">
<title>http://w3id.org/oseg/ont/okh#spdxLicense&#45;&gt;http://w3id.org/oseg/ont/okh#Module</title>
<path fill="none" stroke="black" d="M1781.29,-900.3C1787.05,-929.79 1799.24,-992.17 1806.2,-1027.8"/>
<polygon fill="black" stroke="black" points="1802.82,-1028.78 1808.18,-1037.93 1809.69,-1027.44 1802.82,-1028.78"/>
<text text-anchor="middle" x="1715.74" y="-967.85" font-family="Times,serif" font-size="14.00">dcam:domainIncludes</text>
</g>
<!-- http://w3id.org/oseg/ont/okh#spdxLicense&#45;&gt;http://schema.org/license -->
<g id="edge26" class="edge">
<title>http://w3id.org/oseg/ont/okh#spdxLicense&#45;&gt;http://schema.org/license</title>
<path fill="none" stroke="black" d="M1827.24,-897.98C1871.87,-910.71 1937.75,-929.48 1984.88,-942.92"/>
<polygon fill="black" stroke="black" points="1984.07,-946.33 1994.64,-945.7 1985.99,-939.59 1984.07,-946.33"/>
<text text-anchor="middle" x="1965.06" y="-924.25" font-family="Times,serif" font-size="14.00">skos:closeMatch</text>
</g>
<!-- http://w3id.org/oseg/ont/okh#spdxLicense&#45;&gt;http://spdx.org/rdf/terms#ListedLicense -->
<g id="edge29" class="edge">
<title>http://w3id.org/oseg/ont/okh#spdxLicense&#45;&gt;http://spdx.org/rdf/terms#ListedLicense</title>
<path fill="none" stroke="black" d="M1780.53,-900.35C1787.92,-950.22 1810.22,-1100.58 1819.32,-1161.93"/>
<polygon fill="black" stroke="black" points="1815.88,-1162.6 1820.81,-1171.98 1822.81,-1161.57 1815.88,-1162.6"/>
<text text-anchor="middle" x="1727.43" y="-1019.94" font-family="Times,serif" font-size="14.00">dcam:rangeIncludes</text>
</g>
<!-- http://w3id.org/oseg/ont/okh#relatedTsdc -->
<g id="node35" class="node">
<title>http://w3id.org/oseg/ont/okh#relatedTsdc</title>
<ellipse fill="none" stroke="#e377c2" cx="983.66" cy="-1116.56" rx="91.85" ry="16.03"/>
<text text-anchor="middle" x="983.66" y="-1112.86" font-family="Times,serif" font-size="14.00">okh:relatedTsdc</text>
</g>
<!-- http://w3id.org/oseg/ont/okh#relatedTsdc&#45;&gt;http://w3id.org/oseg/ont/okh#tsdc -->
<g id="edge7" class="edge">
<title>http://w3id.org/oseg/ont/okh#relatedTsdc&#45;&gt;http://w3id.org/oseg/ont/okh#tsdc</title>
<path fill="none" stroke="black" d="M898.02,-1122.55C889.36,-1123.88 880.81,-1125.31 872.76,-1126.77"/>
<polygon fill="black" stroke="black" points="872.05,-1123.34 862.87,-1128.64 873.35,-1130.22 872.05,-1123.34"/>
<text text-anchor="middle" x="805.39" y="-1113.46" font-family="Times,serif" font-size="14.00">schema:supersededBy</text>
</g>
<!-- http://w3id.org/oseg/ont/okh#relatedTsdc&#45;&gt;http://w3id.org/oseg/ont/okh#tsdc -->
<g id="edge8" class="edge">
<title>http://w3id.org/oseg/ont/okh#relatedTsdc&#45;&gt;http://w3id.org/oseg/ont/okh#tsdc</title>
<path fill="none" stroke="black" d="M934.27,-1130.34C919.99,-1132.91 904.19,-1135.37 889.13,-1137.39"/>
<polygon fill="black" stroke="black" points="888.32,-1133.96 878.85,-1138.71 889.21,-1140.91 888.32,-1133.96"/>
<text text-anchor="middle" x="954.2" y="-1137.66" font-family="Times,serif" font-size="14.00">owl:sameAs</text>
</g>
<!-- http://w3id.org/oseg/ont/okh#url -->
<g id="node36" class="node">
<title>http://w3id.org/oseg/ont/okh#url</title>
<ellipse fill="none" stroke="#e377c2" cx="2431.29" cy="-272.44" rx="47.25" ry="16.03"/>
<text text-anchor="middle" x="2431.29" y="-268.74" font-family="Times,serif" font-size="14.00">okh:url</text>
</g>
<!-- http://w3id.org/oseg/ont/okh#okhvOriginal -->
<g id="node38" class="node">
<title>http://w3id.org/oseg/ont/okh#okhvOriginal</title>
<ellipse fill="none" stroke="#e377c2" cx="1684.52" cy="-1333.28" rx="97.66" ry="16.03"/>
<text text-anchor="middle" x="1684.52" y="-1329.58" font-family="Times,serif" font-size="14.00">okh:okhvOriginal</text>
</g>
<!-- http://w3id.org/oseg/ont/okh#okhvOriginal&#45;&gt;http://w3id.org/oseg/ont/okh#okhv -->
<g id="edge2" class="edge">
<title>http://w3id.org/oseg/ont/okh#okhvOriginal&#45;&gt;http://w3id.org/oseg/ont/okh#okhv</title>
<path fill="none" stroke="black" d="M1683.4,-1316.63C1683.39,-1316.47 1683.38,-1316.31 1683.37,-1316.14"/>
<polygon fill="black" stroke="black" points="1687.04,-1318.59 1682.87,-1308.84 1680.05,-1319.06 1687.04,-1318.59"/>
<text text-anchor="middle" x="1736.38" y="-1305.19" font-family="Times,serif" font-size="14.00">subPropertyOf</text>
</g>
<!-- http://w3id.org/oseg/ont/okh#okhvOriginal&#45;&gt;http://w3id.org/oseg/ont/okh#okhvStored -->
<g id="edge21" class="edge">
<title>http://w3id.org/oseg/ont/okh#okhvOriginal&#45;&gt;http://w3id.org/oseg/ont/okh#okhvStored</title>
<path fill="none" stroke="black" d="M1684.12,-1349.78C1684.12,-1349.94 1684.11,-1350.09 1684.11,-1350.25"/>
<polygon fill="black" stroke="black" points="1680.68,-1347.41 1683.93,-1357.49 1687.68,-1347.58 1680.68,-1347.41"/>
<text text-anchor="middle" x="1656.61" y="-1353.82" font-family="Times,serif" font-size="14.00">seeAlso</text>
</g>
<!-- http://w3id.org/oseg/ont/okh#fileUrl -->
<g id="node39" class="node">
<title>http://w3id.org/oseg/ont/okh#fileUrl</title>
<ellipse fill="none" stroke="#e377c2" cx="2237.06" cy="-347.22" rx="65.11" ry="16.03"/>
<text text-anchor="middle" x="2237.06" y="-343.52" font-family="Times,serif" font-size="14.00">okh:fileUrl</text>
</g>
<!-- http://w3id.org/oseg/ont/okh#fileUrl&#45;&gt;http://w3id.org/oseg/ont/okh#File -->
<g id="edge42" class="edge">
<title>http://w3id.org/oseg/ont/okh#fileUrl&#45;&gt;http://w3id.org/oseg/ont/okh#File</title>
<path fill="none" stroke="black" d="M2219.33,-363.19C2185.64,-393.55 2112.26,-459.66 2073.61,-494.48"/>
<polygon fill="black" stroke="black" points="2071,-492.12 2065.91,-501.41 2075.69,-497.32 2071,-492.12"/>
<text text-anchor="middle" x="2068.47" y="-432.64" font-family="Times,serif" font-size="14.00">dcam:domainIncludes</text>
</g>
<!-- http://w3id.org/oseg/ont/okh#fileUrl&#45;&gt;http://schema.org/url -->
<g id="edge31" class="edge">
<title>http://w3id.org/oseg/ont/okh#fileUrl&#45;&gt;http://schema.org/url</title>
<path fill="none" stroke="black" d="M2247.65,-331.12C2269.83,-297.39 2321.3,-219.11 2347.64,-179.05"/>
<polygon fill="black" stroke="black" points="2350.6,-180.93 2353.17,-170.65 2344.75,-177.08 2350.6,-180.93"/>
<text text-anchor="middle" x="2244.65" y="-258.88" font-family="Times,serif" font-size="14.00">subPropertyOf</text>
</g>
<!-- http://w3id.org/oseg/ont/okh#fileUrl&#45;&gt;http://w3id.org/oseg/ont/okh#url -->
<g id="edge33" class="edge">
<title>http://w3id.org/oseg/ont/okh#fileUrl&#45;&gt;http://w3id.org/oseg/ont/okh#url</title>
<path fill="none" stroke="black" d="M2272.68,-333.51C2305.92,-320.71 2355.47,-301.63 2390.33,-288.21"/>
<polygon fill="black" stroke="black" points="2391.67,-291.45 2399.74,-284.59 2389.15,-284.92 2391.67,-291.45"/>
<text text-anchor="middle" x="2251.51" y="-314.66" font-family="Times,serif" font-size="14.00">schema:supersededBy</text>
</g>
</g>
</svg>
