<?xml version="1.0" encoding="UTF-8" standalone="no"?>
<!DOCTYPE svg PUBLIC "-//W3C//DTD SVG 1.1//EN"
 "http://www.w3.org/Graphics/SVG/1.1/DTD/svg11.dtd">
<!-- Generated by graphviz version 2.43.0 (0)
 -->
<!-- Title: G Pages: 1 -->
<svg width="2509pt" height="1616pt"
 viewBox="0.00 0.00 2509.00 1616.00" xmlns="http://www.w3.org/2000/svg" xmlns:xlink="http://www.w3.org/1999/xlink">
<g id="graph0" class="graph" transform="scale(1 1) rotate(0) translate(4 1612)">
<title>G</title>
<polygon fill="white" stroke="transparent" points="-4,4 -4,-1612 2505,-1612 2505,4 -4,4"/>
<!-- https://w3id.org/oseg/ont/otrl#ODRL3 -->
<g id="node1" class="node">
<title>https://w3id.org/oseg/ont/otrl#ODRL3</title>
<ellipse fill="none" stroke="#e377c2" cx="1173.35" cy="-453.27" rx="69.09" ry="16.03"/>
<text text-anchor="middle" x="1173.35" y="-449.57" font-family="Times,serif" font-size="14.00">otrl:ODRL3</text>
</g>
<!-- https://w3id.org/oseg/ont/otrl#ODRL -->
<g id="node5" class="node">
<title>https://w3id.org/oseg/ont/otrl#ODRL</title>
<ellipse fill="none" stroke="#e377c2" cx="1362.35" cy="-626.1" rx="62.87" ry="16.03"/>
<text text-anchor="middle" x="1362.35" y="-622.4" font-family="Times,serif" font-size="14.00">otrl:ODRL</text>
</g>
<!-- https://w3id.org/oseg/ont/otrl#ODRL3&#45;&gt;https://w3id.org/oseg/ont/otrl#ODRL -->
<g id="edge51" class="edge">
<title>https://w3id.org/oseg/ont/otrl#ODRL3&#45;&gt;https://w3id.org/oseg/ont/otrl#ODRL</title>
<path fill="none" stroke="black" d="M1190.8,-469.21C1224.49,-500.03 1298.64,-567.84 1337.49,-603.37"/>
<polygon fill="black" stroke="black" points="1335.48,-606.27 1345.22,-610.44 1340.2,-601.1 1335.48,-606.27"/>
</g>
<!-- https://w3id.org/oseg/ont/otrl#ODRL3Star -->
<g id="node2" class="node">
<title>https://w3id.org/oseg/ont/otrl#ODRL3Star</title>
<ellipse fill="none" stroke="#e377c2" cx="1630.4" cy="-778.24" rx="90.52" ry="16.03"/>
<text text-anchor="middle" x="1630.4" y="-774.54" font-family="Times,serif" font-size="14.00">otrl:ODRL3Star</text>
</g>
<!-- https://w3id.org/oseg/ont/otrl#ODRL3Star&#45;&gt;https://w3id.org/oseg/ont/otrl#ODRL -->
<g id="edge25" class="edge">
<title>https://w3id.org/oseg/ont/otrl#ODRL3Star&#45;&gt;https://w3id.org/oseg/ont/otrl#ODRL</title>
<path fill="none" stroke="black" d="M1602.72,-762.53C1553.66,-734.68 1451.53,-676.72 1397.55,-646.08"/>
<polygon fill="black" stroke="black" points="1399.11,-642.94 1388.68,-641.05 1395.65,-649.03 1399.11,-642.94"/>
</g>
<!-- https://w3id.org/oseg/ont/otrl#OTRL6 -->
<g id="node3" class="node">
<title>https://w3id.org/oseg/ont/otrl#OTRL6</title>
<ellipse fill="none" stroke="#e377c2" cx="1031.05" cy="-1128.82" rx="67.35" ry="16.03"/>
<text text-anchor="middle" x="1031.05" y="-1125.12" font-family="Times,serif" font-size="14.00">otrl:OTRL6</text>
</g>
<!-- https://w3id.org/oseg/ont/otrl#OTRL -->
<g id="node11" class="node">
<title>https://w3id.org/oseg/ont/otrl#OTRL</title>
<ellipse fill="none" stroke="#e377c2" cx="855.25" cy="-934.81" rx="60.62" ry="16.03"/>
<text text-anchor="middle" x="855.25" y="-931.11" font-family="Times,serif" font-size="14.00">otrl:OTRL</text>
</g>
<!-- https://w3id.org/oseg/ont/otrl#OTRL6&#45;&gt;https://w3id.org/oseg/ont/otrl#OTRL -->
<g id="edge11" class="edge">
<title>https://w3id.org/oseg/ont/otrl#OTRL6&#45;&gt;https://w3id.org/oseg/ont/otrl#OTRL</title>
<path fill="none" stroke="black" d="M1016.36,-1112.62C985.26,-1078.29 912.66,-998.16 876.5,-958.26"/>
<polygon fill="black" stroke="black" points="879.08,-955.9 869.77,-950.84 873.9,-960.6 879.08,-955.9"/>
</g>
<!-- https://w3id.org/oseg/ont/otrl#OTRL5 -->
<g id="node4" class="node">
<title>https://w3id.org/oseg/ont/otrl#OTRL5</title>
<ellipse fill="none" stroke="#e377c2" cx="733.51" cy="-1059.18" rx="67.35" ry="16.03"/>
<text text-anchor="middle" x="733.51" y="-1055.48" font-family="Times,serif" font-size="14.00">otrl:OTRL5</text>
</g>
<!-- https://w3id.org/oseg/ont/otrl#OTRL5&#45;&gt;https://w3id.org/oseg/ont/otrl#OTRL -->
<g id="edge17" class="edge">
<title>https://w3id.org/oseg/ont/otrl#OTRL5&#45;&gt;https://w3id.org/oseg/ont/otrl#OTRL</title>
<path fill="none" stroke="black" d="M749.18,-1043.18C770.36,-1021.54 808.28,-982.8 832.58,-957.98"/>
<polygon fill="black" stroke="black" points="835.15,-960.35 839.65,-950.76 830.15,-955.45 835.15,-960.35"/>
</g>
<!-- https://w3id.org/oseg/ont/otrl#OTRL1 -->
<g id="node6" class="node">
<title>https://w3id.org/oseg/ont/otrl#OTRL1</title>
<ellipse fill="none" stroke="#e377c2" cx="585.26" cy="-1024.36" rx="67.35" ry="16.03"/>
<text text-anchor="middle" x="585.26" y="-1020.66" font-family="Times,serif" font-size="14.00">otrl:OTRL1</text>
</g>
<!-- https://w3id.org/oseg/ont/otrl#OTRL1&#45;&gt;https://w3id.org/oseg/ont/otrl#OTRL -->
<g id="edge18" class="edge">
<title>https://w3id.org/oseg/ont/otrl#OTRL1&#45;&gt;https://w3id.org/oseg/ont/otrl#OTRL</title>
<path fill="none" stroke="black" d="M625.1,-1011.15C673.61,-995.06 755.47,-967.91 807.36,-950.7"/>
<polygon fill="black" stroke="black" points="808.61,-953.97 817,-947.5 806.41,-947.33 808.61,-953.97"/>
</g>
<!-- http://spdx.org/rdf/terms#File -->
<g id="node7" class="node">
<title>http://spdx.org/rdf/terms#File</title>
<ellipse fill="none" stroke="#1f77b4" cx="1493.11" cy="-1320.61" rx="62.45" ry="16.03"/>
<text text-anchor="middle" x="1493.11" y="-1316.91" font-family="Times,serif" font-size="14.00">spdxt:File</text>
</g>
<!-- https://w3id.org/oseg/ont/otrl#OTRL4 -->
<g id="node8" class="node">
<title>https://w3id.org/oseg/ont/otrl#OTRL4</title>
<ellipse fill="none" stroke="#e377c2" cx="588.33" cy="-877.2" rx="67.35" ry="16.03"/>
<text text-anchor="middle" x="588.33" y="-873.5" font-family="Times,serif" font-size="14.00">otrl:OTRL4</text>
</g>
<!-- https://w3id.org/oseg/ont/otrl#OTRL4&#45;&gt;https://w3id.org/oseg/ont/otrl#OTRL -->
<g id="edge16" class="edge">
<title>https://w3id.org/oseg/ont/otrl#OTRL4&#45;&gt;https://w3id.org/oseg/ont/otrl#OTRL</title>
<path fill="none" stroke="black" d="M638.53,-888.04C683.79,-897.8 750.32,-912.16 797.71,-922.39"/>
<polygon fill="black" stroke="black" points="797,-925.82 807.52,-924.51 798.48,-918.98 797,-925.82"/>
</g>
<!-- https://w3id.org/oseg/ont/otrl#ODRL4 -->
<g id="node9" class="node">
<title>https://w3id.org/oseg/ont/otrl#ODRL4</title>
<ellipse fill="none" stroke="#e377c2" cx="1679.67" cy="-566.65" rx="69.09" ry="16.03"/>
<text text-anchor="middle" x="1679.67" y="-562.95" font-family="Times,serif" font-size="14.00">otrl:ODRL4</text>
</g>
<!-- https://w3id.org/oseg/ont/otrl#ODRL4&#45;&gt;https://w3id.org/oseg/ont/otrl#ODRL -->
<g id="edge27" class="edge">
<title>https://w3id.org/oseg/ont/otrl#ODRL4&#45;&gt;https://w3id.org/oseg/ont/otrl#ODRL</title>
<path fill="none" stroke="black" d="M1625.48,-576.8C1569.34,-587.32 1481.79,-603.72 1423.28,-614.68"/>
<polygon fill="black" stroke="black" points="1422.61,-611.25 1413.42,-616.53 1423.9,-618.13 1422.61,-611.25"/>
</g>
<!-- https://w3id.org/oseg/ont/otrl#OTRL2 -->
<g id="node10" class="node">
<title>https://w3id.org/oseg/ont/otrl#OTRL2</title>
<ellipse fill="none" stroke="#e377c2" cx="789.88" cy="-1211.35" rx="67.35" ry="16.03"/>
<text text-anchor="middle" x="789.88" y="-1207.65" font-family="Times,serif" font-size="14.00">otrl:OTRL2</text>
</g>
<!-- https://w3id.org/oseg/ont/otrl#OTRL2&#45;&gt;https://w3id.org/oseg/ont/otrl#OTRL -->
<g id="edge44" class="edge">
<title>https://w3id.org/oseg/ont/otrl#OTRL2&#45;&gt;https://w3id.org/oseg/ont/otrl#OTRL</title>
<path fill="none" stroke="black" d="M793.77,-1194.88C804.7,-1148.67 835.7,-1017.53 849.03,-961.13"/>
<polygon fill="black" stroke="black" points="852.49,-961.73 851.38,-951.2 845.67,-960.12 852.49,-961.73"/>
</g>
<!-- https://w3id.org/oseg/ont/otrl#ODRL2 -->
<g id="node12" class="node">
<title>https://w3id.org/oseg/ont/otrl#ODRL2</title>
<ellipse fill="none" stroke="#e377c2" cx="1524" cy="-572.4" rx="69.09" ry="16.03"/>
<text text-anchor="middle" x="1524" y="-568.7" font-family="Times,serif" font-size="14.00">otrl:ODRL2</text>
</g>
<!-- https://w3id.org/oseg/ont/otrl#ODRL2&#45;&gt;https://w3id.org/oseg/ont/otrl#ODRL -->
<g id="edge22" class="edge">
<title>https://w3id.org/oseg/ont/otrl#ODRL2&#45;&gt;https://w3id.org/oseg/ont/otrl#ODRL</title>
<path fill="none" stroke="black" d="M1483.62,-585.81C1461.53,-593.15 1434,-602.29 1410.76,-610.01"/>
<polygon fill="black" stroke="black" points="1409.48,-606.75 1401.09,-613.23 1411.69,-613.39 1409.48,-606.75"/>
</g>
<!-- https://w3id.org/oseg/ont/otrl#OTRL3 -->
<g id="node13" class="node">
<title>https://w3id.org/oseg/ont/otrl#OTRL3</title>
<ellipse fill="none" stroke="#e377c2" cx="663.1" cy="-747.74" rx="67.35" ry="16.03"/>
<text text-anchor="middle" x="663.1" y="-744.04" font-family="Times,serif" font-size="14.00">otrl:OTRL3</text>
</g>
<!-- https://w3id.org/oseg/ont/otrl#OTRL3&#45;&gt;https://w3id.org/oseg/ont/otrl#OTRL -->
<g id="edge35" class="edge">
<title>https://w3id.org/oseg/ont/otrl#OTRL3&#45;&gt;https://w3id.org/oseg/ont/otrl#OTRL</title>
<path fill="none" stroke="black" d="M679.48,-763.69C713.52,-796.83 791.99,-873.22 831.54,-911.73"/>
<polygon fill="black" stroke="black" points="829.31,-914.44 838.91,-918.9 834.19,-909.42 829.31,-914.44"/>
</g>
<!-- https://w3id.org/oseg/ont/otrl#ODRL1 -->
<g id="node14" class="node">
<title>https://w3id.org/oseg/ont/otrl#ODRL1</title>
<ellipse fill="none" stroke="#e377c2" cx="1500.69" cy="-368.41" rx="69.09" ry="16.03"/>
<text text-anchor="middle" x="1500.69" y="-364.71" font-family="Times,serif" font-size="14.00">otrl:ODRL1</text>
</g>
<!-- https://w3id.org/oseg/ont/otrl#ODRL1&#45;&gt;https://w3id.org/oseg/ont/otrl#ODRL -->
<g id="edge7" class="edge">
<title>https://w3id.org/oseg/ont/otrl#ODRL1&#45;&gt;https://w3id.org/oseg/ont/otrl#ODRL</title>
<path fill="none" stroke="black" d="M1491.82,-384.92C1468.3,-428.74 1404.17,-548.19 1375.97,-600.73"/>
<polygon fill="black" stroke="black" points="1372.78,-599.26 1371.14,-609.72 1378.95,-602.57 1372.78,-599.26"/>
</g>
<!-- https://spdx.org/licenses/GPL&#45;3.0&#45;or&#45;later -->
<g id="node15" class="node">
<title>https://spdx.org/licenses/GPL&#45;3.0&#45;or&#45;later</title>
<ellipse fill="none" stroke="#e377c2" cx="1858.01" cy="-1462.57" rx="108.79" ry="16.03"/>
<text text-anchor="middle" x="1858.01" y="-1458.87" font-family="Times,serif" font-size="14.00">spdxl:GPL&#45;3.0&#45;or&#45;...</text>
</g>
<!-- https://w3id.org/oseg/ont/oseg&#45;profiles#robinVobruba -->
<g id="node16" class="node">
<title>https://w3id.org/oseg/ont/oseg&#45;profiles#robinVobruba</title>
<ellipse fill="none" stroke="#e377c2" cx="1659.35" cy="-1272.08" rx="113.69" ry="16.03"/>
<text text-anchor="middle" x="1659.35" y="-1268.38" font-family="Times,serif" font-size="14.00">osegprof:robinVob...</text>
</g>
<!-- https://w3id.org/oseg/ont/oseg&#45;profiles#martinHaeuer -->
<g id="node17" class="node">
<title>https://w3id.org/oseg/ont/oseg&#45;profiles#martinHaeuer</title>
<ellipse fill="none" stroke="#e377c2" cx="1682.12" cy="-1359.24" rx="116.85" ry="16.03"/>
<text text-anchor="middle" x="1682.12" y="-1355.54" font-family="Times,serif" font-size="14.00">osegprof:martinHa...</text>
</g>
<!-- https://w3id.org/oseg/ont/otrl -->
<g id="node18" class="node">
<title>https://w3id.org/oseg/ont/otrl</title>
<ellipse fill="none" stroke="#e377c2" cx="1676.54" cy="-1312.77" rx="50.82" ry="16.03"/>
<text text-anchor="middle" x="1676.54" y="-1309.07" font-family="Times,serif" font-size="14.00">ns1:otrl</text>
</g>
<!-- https://w3id.org/oseg/ont/otrl&#45;&gt;http://spdx.org/rdf/terms#File -->
<g id="edge37" class="edge">
<title>https://w3id.org/oseg/ont/otrl&#45;&gt;http://spdx.org/rdf/terms#File</title>
<path fill="none" stroke="black" d="M1625.93,-1314.93C1607.06,-1315.74 1585.27,-1316.67 1564.86,-1317.55"/>
<polygon fill="black" stroke="black" points="1564.49,-1314.06 1554.65,-1317.98 1564.79,-1321.05 1564.49,-1314.06"/>
<text text-anchor="middle" x="1590.9" y="-1320.04" font-family="Times,serif" font-size="14.00">a</text>
</g>
<!-- https://w3id.org/oseg/ont/otrl&#45;&gt;https://spdx.org/licenses/GPL&#45;3.0&#45;or&#45;later -->
<g id="edge2" class="edge">
<title>https://w3id.org/oseg/ont/otrl&#45;&gt;https://spdx.org/licenses/GPL&#45;3.0&#45;or&#45;later</title>
<path fill="none" stroke="black" d="M1694.94,-1327.96C1726.94,-1354.37 1793,-1408.91 1830.48,-1439.84"/>
<polygon fill="black" stroke="black" points="1828.53,-1442.77 1838.47,-1446.44 1832.98,-1437.37 1828.53,-1442.77"/>
<text text-anchor="middle" x="1841.71" y="-1387.7" font-family="Times,serif" font-size="14.00">spdxt:licenseDeclared</text>
</g>
<!-- https://w3id.org/oseg/ont/otrl&#45;&gt;https://w3id.org/oseg/ont/oseg&#45;profiles#robinVobruba -->
<g id="edge3" class="edge">
<title>https://w3id.org/oseg/ont/otrl&#45;&gt;https://w3id.org/oseg/ont/oseg&#45;profiles#robinVobruba</title>
<path fill="none" stroke="black" d="M1676.64,-1296.49C1676.62,-1296.41 1676.59,-1296.33 1676.56,-1296.24"/>
<polygon fill="black" stroke="black" points="1680.38,-1296.43 1673.54,-1288.35 1673.85,-1298.94 1680.38,-1296.43"/>
<text text-anchor="middle" x="1734.1" y="-1285.17" font-family="Times,serif" font-size="14.00">dcterms:creator</text>
</g>
<!-- https://w3id.org/oseg/ont/otrl&#45;&gt;https://w3id.org/oseg/ont/oseg&#45;profiles#robinVobruba -->
<g id="edge9" class="edge">
<title>https://w3id.org/oseg/ont/otrl&#45;&gt;https://w3id.org/oseg/ont/oseg&#45;profiles#robinVobruba</title>
<path fill="none" stroke="black" d="M1662.56,-1296.95C1662.52,-1296.86 1662.48,-1296.78 1662.44,-1296.69"/>
<polygon fill="black" stroke="black" points="1666.18,-1296.66 1659.32,-1288.58 1659.65,-1299.17 1666.18,-1296.66"/>
<text text-anchor="middle" x="1607" y="-1285.62" font-family="Times,serif" font-size="14.00">schema:creator</text>
</g>
<!-- https://w3id.org/oseg/ont/otrl&#45;&gt;https://w3id.org/oseg/ont/oseg&#45;profiles#martinHaeuer -->
<g id="edge4" class="edge">
<title>https://w3id.org/oseg/ont/otrl&#45;&gt;https://w3id.org/oseg/ont/oseg&#45;profiles#martinHaeuer</title>
<path fill="none" stroke="black" d="M1672.04,-1329.01C1672.07,-1330.27 1672.14,-1331.56 1672.24,-1332.87"/>
<polygon fill="black" stroke="black" points="1668.78,-1333.4 1673.56,-1342.85 1675.72,-1332.48 1668.78,-1333.4"/>
<text text-anchor="middle" x="1614.64" y="-1334.74" font-family="Times,serif" font-size="14.00">dcterms:creator</text>
</g>
<!-- https://w3id.org/oseg/ont/otrl&#45;&gt;https://w3id.org/oseg/ont/oseg&#45;profiles#martinHaeuer -->
<g id="edge10" class="edge">
<title>https://w3id.org/oseg/ont/otrl&#45;&gt;https://w3id.org/oseg/ont/oseg&#45;profiles#martinHaeuer</title>
<path fill="none" stroke="black" d="M1685.07,-1329.03C1685.32,-1330.3 1685.54,-1331.61 1685.73,-1332.92"/>
<polygon fill="black" stroke="black" points="1682.25,-1333.33 1686.62,-1342.98 1689.22,-1332.71 1682.25,-1333.33"/>
<text text-anchor="middle" x="1740.9" y="-1334.78" font-family="Times,serif" font-size="14.00">schema:creator</text>
</g>
<!-- https://w3id.org/oseg/ont/1.1.0/otrl -->
<g id="node23" class="node">
<title>https://w3id.org/oseg/ont/1.1.0/otrl</title>
<ellipse fill="none" stroke="#e377c2" cx="1613" cy="-1476.33" rx="50.82" ry="16.03"/>
<text text-anchor="middle" x="1613" y="-1472.63" font-family="Times,serif" font-size="14.00">ns2:otrl</text>
</g>
<!-- https://w3id.org/oseg/ont/otrl&#45;&gt;https://w3id.org/oseg/ont/1.1.0/otrl -->
<g id="edge36" class="edge">
<title>https://w3id.org/oseg/ont/otrl&#45;&gt;https://w3id.org/oseg/ont/1.1.0/otrl</title>
<path fill="none" stroke="black" d="M1670.22,-1329.05C1659.18,-1357.46 1636.31,-1416.31 1623.07,-1450.39"/>
<polygon fill="black" stroke="black" points="1619.66,-1449.52 1619.3,-1460.11 1626.18,-1452.06 1619.66,-1449.52"/>
<text text-anchor="middle" x="1595.15" y="-1393.52" font-family="Times,serif" font-size="14.00">owl:versionIRI</text>
</g>
<!-- https://w3id.org/oseg/ont/oseg&#45;profiles#Iopa -->
<g id="node24" class="node">
<title>https://w3id.org/oseg/ont/oseg&#45;profiles#Iopa</title>
<ellipse fill="none" stroke="#e377c2" cx="1595.42" cy="-1128.83" rx="80.72" ry="16.03"/>
<text text-anchor="middle" x="1595.42" y="-1125.13" font-family="Times,serif" font-size="14.00">osegprof:Iopa</text>
</g>
<!-- https://w3id.org/oseg/ont/otrl&#45;&gt;https://w3id.org/oseg/ont/oseg&#45;profiles#Iopa -->
<g id="edge40" class="edge">
<title>https://w3id.org/oseg/ont/otrl&#45;&gt;https://w3id.org/oseg/ont/oseg&#45;profiles#Iopa</title>
<path fill="none" stroke="black" d="M1669.34,-1296.45C1655.21,-1264.41 1623.74,-1193.06 1606.78,-1154.59"/>
<polygon fill="black" stroke="black" points="1609.84,-1152.86 1602.6,-1145.12 1603.43,-1155.68 1609.84,-1152.86"/>
<text text-anchor="middle" x="1572.56" y="-1229.32" font-family="Times,serif" font-size="14.00">dcterms:publisher</text>
</g>
<!-- http://id.loc.gov/vocabulary/iso639&#45;1/en -->
<g id="node25" class="node">
<title>http://id.loc.gov/vocabulary/iso639&#45;1/en</title>
<ellipse fill="none" stroke="#e377c2" cx="1826.57" cy="-1243.99" rx="45.01" ry="16.03"/>
<text text-anchor="middle" x="1826.57" y="-1240.29" font-family="Times,serif" font-size="14.00">ns3:en</text>
</g>
<!-- https://w3id.org/oseg/ont/otrl&#45;&gt;http://id.loc.gov/vocabulary/iso639&#45;1/en -->
<g id="edge46" class="edge">
<title>https://w3id.org/oseg/ont/otrl&#45;&gt;http://id.loc.gov/vocabulary/iso639&#45;1/en</title>
<path fill="none" stroke="black" d="M1705.82,-1299.35C1729.75,-1288.38 1763.71,-1272.81 1789.52,-1260.98"/>
<polygon fill="black" stroke="black" points="1791,-1264.15 1798.63,-1256.8 1788.08,-1257.79 1791,-1264.15"/>
<text text-anchor="middle" x="1812.17" y="-1268.96" font-family="Times,serif" font-size="14.00">dcterms:language</text>
</g>
<!-- https://w3id.org/oseg/ont/otrl#Odrl4 -->
<g id="node19" class="node">
<title>https://w3id.org/oseg/ont/otrl#Odrl4</title>
<ellipse fill="none" stroke="#e377c2" cx="1932.83" cy="-505.41" rx="61.54" ry="16.03"/>
<text text-anchor="middle" x="1932.83" y="-501.71" font-family="Times,serif" font-size="14.00">otrl:Odrl4</text>
</g>
<!-- https://w3id.org/oseg/ont/otrl#Odrl4&#45;&gt;https://w3id.org/oseg/ont/otrl#ODRL4 -->
<g id="edge41" class="edge">
<title>https://w3id.org/oseg/ont/otrl#Odrl4&#45;&gt;https://w3id.org/oseg/ont/otrl#ODRL4</title>
<path fill="none" stroke="black" d="M1878.12,-512.85C1832.67,-522.23 1768.73,-537.78 1725.82,-549.92"/>
<polygon fill="black" stroke="black" points="1724.84,-546.56 1716.2,-552.69 1726.77,-553.29 1724.84,-546.56"/>
<text text-anchor="middle" x="1759.47" y="-535.19" font-family="Times,serif" font-size="14.00">owl:sameAs</text>
</g>
<!-- https://w3id.org/oseg/ont/otrl#Odrl4&#45;&gt;https://w3id.org/oseg/ont/otrl#ODRL4 -->
<g id="edge42" class="edge">
<title>https://w3id.org/oseg/ont/otrl#Odrl4&#45;&gt;https://w3id.org/oseg/ont/otrl#ODRL4</title>
<path fill="none" stroke="black" d="M1897.97,-518.87C1859.83,-530.15 1797.69,-545.58 1749.44,-556.01"/>
<polygon fill="black" stroke="black" points="1748.42,-552.65 1739.37,-558.16 1749.88,-559.5 1748.42,-552.65"/>
<text text-anchor="middle" x="1903.7" y="-541.24" font-family="Times,serif" font-size="14.00">schema:supersededBy</text>
</g>
<!-- https://w3id.org/oseg/ont/otrl#exitCriteria -->
<g id="node20" class="node">
<title>https://w3id.org/oseg/ont/otrl#exitCriteria</title>
<ellipse fill="none" stroke="#e377c2" cx="1108.48" cy="-759.35" rx="91.43" ry="16.03"/>
<text text-anchor="middle" x="1108.48" y="-755.65" font-family="Times,serif" font-size="14.00">otrl:exitCriteria</text>
</g>
<!-- https://w3id.org/oseg/ont/otrl#exitCriteria&#45;&gt;https://w3id.org/oseg/ont/otrl#ODRL -->
<g id="edge6" class="edge">
<title>https://w3id.org/oseg/ont/otrl#exitCriteria&#45;&gt;https://w3id.org/oseg/ont/otrl#ODRL</title>
<path fill="none" stroke="black" d="M1137.85,-743.94C1184.3,-719.56 1274.62,-672.14 1325.4,-645.49"/>
<polygon fill="black" stroke="black" points="1327.17,-648.51 1334.4,-640.77 1323.92,-642.31 1327.17,-648.51"/>
<text text-anchor="middle" x="1145.63" y="-698.51" font-family="Times,serif" font-size="14.00">schema:domainIncludes</text>
</g>
<!-- https://w3id.org/oseg/ont/otrl#exitCriteria&#45;&gt;https://w3id.org/oseg/ont/otrl#OTRL -->
<g id="edge53" class="edge">
<title>https://w3id.org/oseg/ont/otrl#exitCriteria&#45;&gt;https://w3id.org/oseg/ont/otrl#OTRL</title>
<path fill="none" stroke="black" d="M1085.56,-775.23C1039.76,-806.97 936.91,-878.23 885.59,-913.8"/>
<polygon fill="black" stroke="black" points="883.44,-911.02 877.22,-919.6 887.43,-916.78 883.44,-911.02"/>
<text text-anchor="middle" x="899.57" y="-848.32" font-family="Times,serif" font-size="14.00">schema:domainIncludes</text>
</g>
<!-- http://schema.org/Text -->
<g id="node21" class="node">
<title>http://schema.org/Text</title>
<ellipse fill="none" stroke="#e377c2" cx="1278.37" cy="-941.83" rx="74.91" ry="16.03"/>
<text text-anchor="middle" x="1278.37" y="-938.13" font-family="Times,serif" font-size="14.00">schema:Text</text>
</g>
<!-- https://w3id.org/oseg/ont/otrl#exitCriteria&#45;&gt;http://schema.org/Text -->
<g id="edge43" class="edge">
<title>https://w3id.org/oseg/ont/otrl#exitCriteria&#45;&gt;http://schema.org/Text</title>
<path fill="none" stroke="black" d="M1123.56,-775.55C1153.66,-807.88 1221.31,-880.53 1256.37,-918.19"/>
<polygon fill="black" stroke="black" points="1253.95,-920.74 1263.33,-925.67 1259.08,-915.97 1253.95,-920.74"/>
<text text-anchor="middle" x="1168.96" y="-850.67" font-family="Times,serif" font-size="14.00">range</text>
</g>
<!-- https://w3id.org/oseg/ont/otrl#goal -->
<g id="node22" class="node">
<title>https://w3id.org/oseg/ont/otrl#goal</title>
<ellipse fill="none" stroke="#e377c2" cx="1133.02" cy="-811.19" rx="54.39" ry="16.03"/>
<text text-anchor="middle" x="1133.02" y="-807.49" font-family="Times,serif" font-size="14.00">otrl:goal</text>
</g>
<!-- https://w3id.org/oseg/ont/otrl#goal&#45;&gt;https://w3id.org/oseg/ont/otrl#ODRL -->
<g id="edge30" class="edge">
<title>https://w3id.org/oseg/ont/otrl#goal&#45;&gt;https://w3id.org/oseg/ont/otrl#ODRL</title>
<path fill="none" stroke="black" d="M1152.18,-795.73C1192.9,-762.86 1288.18,-685.96 1335.16,-648.04"/>
<polygon fill="black" stroke="black" points="1337.5,-650.65 1343.08,-641.65 1333.1,-645.2 1337.5,-650.65"/>
<text text-anchor="middle" x="1157.67" y="-725.68" font-family="Times,serif" font-size="14.00">schema:domainIncludes</text>
</g>
<!-- https://w3id.org/oseg/ont/otrl#goal&#45;&gt;https://w3id.org/oseg/ont/otrl#OTRL -->
<g id="edge38" class="edge">
<title>https://w3id.org/oseg/ont/otrl#goal&#45;&gt;https://w3id.org/oseg/ont/otrl#OTRL</title>
<path fill="none" stroke="black" d="M1102.5,-824.77C1052.28,-847.13 952.18,-891.67 895.97,-916.69"/>
<polygon fill="black" stroke="black" points="894.39,-913.56 886.68,-920.83 897.24,-919.96 894.39,-913.56"/>
<text text-anchor="middle" x="913.24" y="-874.53" font-family="Times,serif" font-size="14.00">schema:domainIncludes</text>
</g>
<!-- https://w3id.org/oseg/ont/otrl#goal&#45;&gt;http://schema.org/Text -->
<g id="edge26" class="edge">
<title>https://w3id.org/oseg/ont/otrl#goal&#45;&gt;http://schema.org/Text</title>
<path fill="none" stroke="black" d="M1150.27,-826.69C1175.7,-849.55 1223.43,-892.44 1252.9,-918.93"/>
<polygon fill="black" stroke="black" points="1250.92,-921.86 1260.7,-925.94 1255.6,-916.65 1250.92,-921.86"/>
<text text-anchor="middle" x="1180.58" y="-876.61" font-family="Times,serif" font-size="14.00">range</text>
</g>
<!-- https://w3id.org/oseg/ont/otrl#Odrl1 -->
<g id="node26" class="node">
<title>https://w3id.org/oseg/ont/otrl#Odrl1</title>
<ellipse fill="none" stroke="black" cx="1664.23" cy="-16.35" rx="196.65" ry="16.03"/>
<text text-anchor="middle" x="1664.23" y="-12.65" font-family="Times,serif" font-size="14.00">https://w3id.org/oseg/ont/otrl#Odrl1</text>
</g>
<!-- https://w3id.org/oseg/ont/otrl#Odrl1&#45;&gt;https://w3id.org/oseg/ont/otrl#ODRL1 -->
<g id="edge1" class="edge">
<title>https://w3id.org/oseg/ont/otrl#Odrl1&#45;&gt;https://w3id.org/oseg/ont/otrl#ODRL1</title>
<path fill="none" stroke="black" d="M1653,-32.95C1621.72,-89.39 1535.83,-273.92 1508.71,-342.48"/>
<polygon fill="black" stroke="black" points="1505.34,-341.5 1505.02,-352.09 1511.87,-344.01 1505.34,-341.5"/>
<text text-anchor="middle" x="1500.86" y="-191.52" font-family="Times,serif" font-size="14.00">schema:supersededBy</text>
</g>
<!-- https://w3id.org/oseg/ont/otrl#Odrl1&#45;&gt;https://w3id.org/oseg/ont/otrl#ODRL1 -->
<g id="edge52" class="edge">
<title>https://w3id.org/oseg/ont/otrl#Odrl1&#45;&gt;https://w3id.org/oseg/ont/otrl#ODRL1</title>
<path fill="none" stroke="black" d="M1659.88,-32.72C1638.97,-89.04 1552.98,-274.83 1516.67,-343.04"/>
<polygon fill="black" stroke="black" points="1513.38,-341.76 1511.69,-352.22 1519.53,-345.1 1513.38,-341.76"/>
<text text-anchor="middle" x="1630.77" y="-191.68" font-family="Times,serif" font-size="14.00">owl:sameAs</text>
</g>
<!-- https://w3id.org/oseg/ont/otrl#Odrl -->
<g id="node27" class="node">
<title>https://w3id.org/oseg/ont/otrl#Odrl</title>
<ellipse fill="none" stroke="black" cx="1381.17" cy="-228.69" rx="190.42" ry="16.03"/>
<text text-anchor="middle" x="1381.17" y="-224.99" font-family="Times,serif" font-size="14.00">https://w3id.org/oseg/ont/otrl#Odrl</text>
</g>
<!-- https://w3id.org/oseg/ont/otrl#Odrl&#45;&gt;https://w3id.org/oseg/ont/otrl#ODRL -->
<g id="edge5" class="edge">
<title>https://w3id.org/oseg/ont/otrl#Odrl&#45;&gt;https://w3id.org/oseg/ont/otrl#ODRL</title>
<path fill="none" stroke="black" d="M1377.47,-245.12C1369.67,-306.64 1359.17,-523.66 1360.02,-599.61"/>
<polygon fill="black" stroke="black" points="1356.53,-599.83 1360.23,-609.76 1363.53,-599.69 1356.53,-599.83"/>
<text text-anchor="middle" x="1411.25" y="-426.17" font-family="Times,serif" font-size="14.00">owl:sameAs</text>
</g>
<!-- https://w3id.org/oseg/ont/otrl#Odrl&#45;&gt;https://w3id.org/oseg/ont/otrl#ODRL -->
<g id="edge23" class="edge">
<title>https://w3id.org/oseg/ont/otrl#Odrl&#45;&gt;https://w3id.org/oseg/ont/otrl#ODRL</title>
<path fill="none" stroke="black" d="M1383.28,-245.15C1385.27,-306.63 1375.25,-523.23 1367.22,-599.38"/>
<polygon fill="black" stroke="black" points="1363.72,-599.23 1366.06,-609.56 1370.67,-600.02 1363.72,-599.23"/>
<text text-anchor="middle" x="1455.25" y="-411.06" font-family="Times,serif" font-size="14.00">schema:supersededBy</text>
</g>
<!-- https://w3id.org/oseg/ont/otrl#Otrl5 -->
<g id="node28" class="node">
<title>https://w3id.org/oseg/ont/otrl#Otrl5</title>
<ellipse fill="none" stroke="black" cx="666.74" cy="-1103.15" rx="194.41" ry="16.03"/>
<text text-anchor="middle" x="666.74" y="-1099.45" font-family="Times,serif" font-size="14.00">https://w3id.org/oseg/ont/otrl#Otrl5</text>
</g>
<!-- https://w3id.org/oseg/ont/otrl#Otrl5&#45;&gt;https://w3id.org/oseg/ont/otrl#OTRL5 -->
<g id="edge8" class="edge">
<title>https://w3id.org/oseg/ont/otrl#Otrl5&#45;&gt;https://w3id.org/oseg/ont/otrl#OTRL5</title>
<path fill="none" stroke="black" d="M703.45,-1087.06C706.32,-1085.18 709.15,-1083.24 711.87,-1081.3"/>
<polygon fill="black" stroke="black" points="714.15,-1083.96 720.05,-1075.16 709.95,-1078.36 714.15,-1083.96"/>
<text text-anchor="middle" x="665.16" y="-1072.98" font-family="Times,serif" font-size="14.00">owl:sameAs</text>
</g>
<!-- https://w3id.org/oseg/ont/otrl#Otrl5&#45;&gt;https://w3id.org/oseg/ont/otrl#OTRL5 -->
<g id="edge14" class="edge">
<title>https://w3id.org/oseg/ont/otrl#Otrl5&#45;&gt;https://w3id.org/oseg/ont/otrl#OTRL5</title>
<path fill="none" stroke="black" d="M680.64,-1086.83C683.89,-1084.27 687.51,-1081.61 691.28,-1079"/>
<polygon fill="black" stroke="black" points="693.33,-1081.83 699.73,-1073.38 689.46,-1076.01 693.33,-1081.83"/>
<text text-anchor="middle" x="765.96" y="-1071.71" font-family="Times,serif" font-size="14.00">schema:supersededBy</text>
</g>
<!-- https://w3id.org/oseg/ont/otrl#Otrl6 -->
<g id="node29" class="node">
<title>https://w3id.org/oseg/ont/otrl#Otrl6</title>
<ellipse fill="none" stroke="black" cx="1078.53" cy="-1181.27" rx="194.41" ry="16.03"/>
<text text-anchor="middle" x="1078.53" y="-1177.57" font-family="Times,serif" font-size="14.00">https://w3id.org/oseg/ont/otrl#Otrl6</text>
</g>
<!-- https://w3id.org/oseg/ont/otrl#Otrl6&#45;&gt;https://w3id.org/oseg/ont/otrl#OTRL6 -->
<g id="edge12" class="edge">
<title>https://w3id.org/oseg/ont/otrl#Otrl6&#45;&gt;https://w3id.org/oseg/ont/otrl#OTRL6</title>
<path fill="none" stroke="black" d="M1071.61,-1164.92C1068.51,-1160.66 1064.71,-1156.01 1060.68,-1151.5"/>
<polygon fill="black" stroke="black" points="1063.16,-1149.03 1053.77,-1144.14 1058.06,-1153.82 1063.16,-1149.03"/>
<text text-anchor="middle" x="1146.15" y="-1147.01" font-family="Times,serif" font-size="14.00">schema:supersededBy</text>
</g>
<!-- https://w3id.org/oseg/ont/otrl#Otrl6&#45;&gt;https://w3id.org/oseg/ont/otrl#OTRL6 -->
<g id="edge28" class="edge">
<title>https://w3id.org/oseg/ont/otrl#Otrl6&#45;&gt;https://w3id.org/oseg/ont/otrl#OTRL6</title>
<path fill="none" stroke="black" d="M1054.86,-1164.98C1051.21,-1161.23 1047.56,-1157.18 1044.23,-1153.18"/>
<polygon fill="black" stroke="black" points="1046.89,-1150.89 1037.97,-1145.17 1041.37,-1155.2 1046.89,-1150.89"/>
<text text-anchor="middle" x="1007.05" y="-1147.88" font-family="Times,serif" font-size="14.00">owl:sameAs</text>
</g>
<!-- https://w3id.org/oseg/ont/otrl#Otrl4 -->
<g id="node30" class="node">
<title>https://w3id.org/oseg/ont/otrl#Otrl4</title>
<ellipse fill="none" stroke="black" cx="194.85" cy="-821.53" rx="194.41" ry="16.03"/>
<text text-anchor="middle" x="194.85" y="-817.83" font-family="Times,serif" font-size="14.00">https://w3id.org/oseg/ont/otrl#Otrl4</text>
</g>
<!-- https://w3id.org/oseg/ont/otrl#Otrl4&#45;&gt;https://w3id.org/oseg/ont/otrl#OTRL4 -->
<g id="edge13" class="edge">
<title>https://w3id.org/oseg/ont/otrl#Otrl4&#45;&gt;https://w3id.org/oseg/ont/otrl#OTRL4</title>
<path fill="none" stroke="black" d="M264.45,-836.75C334.14,-848.5 441.05,-863.66 512.77,-871.99"/>
<polygon fill="black" stroke="black" points="512.75,-875.52 523.08,-873.17 513.55,-868.56 512.75,-875.52"/>
<text text-anchor="middle" x="346.11" y="-858.17" font-family="Times,serif" font-size="14.00">owl:sameAs</text>
</g>
<!-- https://w3id.org/oseg/ont/otrl#Otrl4&#45;&gt;https://w3id.org/oseg/ont/otrl#OTRL4 -->
<g id="edge19" class="edge">
<title>https://w3id.org/oseg/ont/otrl#Otrl4&#45;&gt;https://w3id.org/oseg/ont/otrl#OTRL4</title>
<path fill="none" stroke="black" d="M325.68,-833.59C394.97,-842.61 476.6,-854.63 530.25,-863.95"/>
<polygon fill="black" stroke="black" points="529.81,-867.43 540.26,-865.72 531.02,-860.54 529.81,-867.43"/>
<text text-anchor="middle" x="507.96" y="-837.57" font-family="Times,serif" font-size="14.00">schema:supersededBy</text>
</g>
<!-- https://w3id.org/oseg/ont/otrl#Otrl -->
<g id="node31" class="node">
<title>https://w3id.org/oseg/ont/otrl#Otrl</title>
<ellipse fill="none" stroke="black" cx="912.56" cy="-982.08" rx="188.18" ry="16.03"/>
<text text-anchor="middle" x="912.56" y="-978.38" font-family="Times,serif" font-size="14.00">https://w3id.org/oseg/ont/otrl#Otrl</text>
</g>
<!-- https://w3id.org/oseg/ont/otrl#Otrl&#45;&gt;https://w3id.org/oseg/ont/otrl#OTRL -->
<g id="edge15" class="edge">
<title>https://w3id.org/oseg/ont/otrl#Otrl&#45;&gt;https://w3id.org/oseg/ont/otrl#OTRL</title>
<path fill="none" stroke="black" d="M902.16,-965.83C898.89,-962.55 895.1,-959.08 891.12,-955.69"/>
<polygon fill="black" stroke="black" points="893.27,-952.92 883.31,-949.31 888.85,-958.35 893.27,-952.92"/>
<text text-anchor="middle" x="939.14" y="-949.56" font-family="Times,serif" font-size="14.00">owl:sameAs</text>
</g>
<!-- https://w3id.org/oseg/ont/otrl#Otrl&#45;&gt;https://w3id.org/oseg/ont/otrl#OTRL -->
<g id="edge20" class="edge">
<title>https://w3id.org/oseg/ont/otrl#Otrl&#45;&gt;https://w3id.org/oseg/ont/otrl#OTRL</title>
<path fill="none" stroke="black" d="M882.31,-965.85C879.13,-963.3 875.97,-960.63 872.99,-957.97"/>
<polygon fill="black" stroke="black" points="875.3,-955.34 865.62,-951.03 870.5,-960.43 875.3,-955.34"/>
<text text-anchor="middle" x="797.65" y="-950.71" font-family="Times,serif" font-size="14.00">schema:supersededBy</text>
</g>
<!-- https://w3id.org/oseg/ont/otrl#Odrl5 -->
<g id="node32" class="node">
<title>https://w3id.org/oseg/ont/otrl#Odrl5</title>
<ellipse fill="none" stroke="black" cx="2303.98" cy="-398.8" rx="196.65" ry="16.03"/>
<text text-anchor="middle" x="2303.98" y="-395.1" font-family="Times,serif" font-size="14.00">https://w3id.org/oseg/ont/otrl#Odrl5</text>
</g>
<!-- https://w3id.org/oseg/ont/otrl#Odrl5&#45;&gt;https://w3id.org/oseg/ont/otrl#Odrl4 -->
<g id="edge21" class="edge">
<title>https://w3id.org/oseg/ont/otrl#Odrl5&#45;&gt;https://w3id.org/oseg/ont/otrl#Odrl4</title>
<path fill="none" stroke="black" d="M2231.36,-414C2155.28,-433.77 2038.34,-467.67 1975.79,-488.32"/>
<polygon fill="black" stroke="black" points="1974.61,-485.03 1966.23,-491.52 1976.83,-491.67 1974.61,-485.03"/>
<text text-anchor="middle" x="2061.07" y="-454.96" font-family="Times,serif" font-size="14.00">owl:sameAs</text>
</g>
<!-- https://w3id.org/oseg/ont/otrl#Odrl5&#45;&gt;https://w3id.org/oseg/ont/otrl#Odrl4 -->
<g id="edge24" class="edge">
<title>https://w3id.org/oseg/ont/otrl#Odrl5&#45;&gt;https://w3id.org/oseg/ont/otrl#Odrl4</title>
<path fill="none" stroke="black" d="M2264.42,-414.76C2199.34,-436.44 2069.33,-474.01 1992.86,-493.45"/>
<polygon fill="black" stroke="black" points="1991.74,-490.13 1982.9,-495.96 1993.45,-496.92 1991.74,-490.13"/>
<text text-anchor="middle" x="2208.64" y="-457.91" font-family="Times,serif" font-size="14.00">schema:supersededBy</text>
</g>
<!-- https://w3id.org/oseg/ont/otrl#Odrl3Star -->
<g id="node33" class="node">
<title>https://w3id.org/oseg/ont/otrl#Odrl3Star</title>
<ellipse fill="none" stroke="black" cx="2008.7" cy="-984.52" rx="218.49" ry="16.03"/>
<text text-anchor="middle" x="2008.7" y="-980.82" font-family="Times,serif" font-size="14.00">https://w3id.org/oseg/ont/otrl#Odrl3Star</text>
</g>
<!-- https://w3id.org/oseg/ont/otrl#Odrl3Star&#45;&gt;https://w3id.org/oseg/ont/otrl#ODRL3Star -->
<g id="edge29" class="edge">
<title>https://w3id.org/oseg/ont/otrl#Odrl3Star&#45;&gt;https://w3id.org/oseg/ont/otrl#ODRL3Star</title>
<path fill="none" stroke="black" d="M1986.14,-968.21C1925.23,-930.49 1756.71,-838.23 1675.4,-797.68"/>
<polygon fill="black" stroke="black" points="1676.91,-794.53 1666.4,-793.23 1673.81,-800.8 1676.91,-794.53"/>
<text text-anchor="middle" x="1788.27" y="-871.75" font-family="Times,serif" font-size="14.00">owl:sameAs</text>
</g>
<!-- https://w3id.org/oseg/ont/otrl#Odrl3Star&#45;&gt;https://w3id.org/oseg/ont/otrl#ODRL3Star -->
<g id="edge32" class="edge">
<title>https://w3id.org/oseg/ont/otrl#Odrl3Star&#45;&gt;https://w3id.org/oseg/ont/otrl#ODRL3Star</title>
<path fill="none" stroke="black" d="M1970.42,-968.41C1895.13,-931.33 1729.23,-840.79 1660.8,-799.35"/>
<polygon fill="black" stroke="black" points="1662.54,-796.31 1652.18,-794.07 1658.88,-802.28 1662.54,-796.31"/>
<text text-anchor="middle" x="1735.61" y="-887.68" font-family="Times,serif" font-size="14.00">schema:supersededBy</text>
</g>
<!-- https://w3id.org/oseg/ont/otrl#Otrl3 -->
<g id="node34" class="node">
<title>https://w3id.org/oseg/ont/otrl#Otrl3</title>
<ellipse fill="none" stroke="black" cx="357.41" cy="-499.88" rx="194.41" ry="16.03"/>
<text text-anchor="middle" x="357.41" y="-496.18" font-family="Times,serif" font-size="14.00">https://w3id.org/oseg/ont/otrl#Otrl3</text>
</g>
<!-- https://w3id.org/oseg/ont/otrl#Otrl3&#45;&gt;https://w3id.org/oseg/ont/otrl#OTRL3 -->
<g id="edge31" class="edge">
<title>https://w3id.org/oseg/ont/otrl#Otrl3&#45;&gt;https://w3id.org/oseg/ont/otrl#OTRL3</title>
<path fill="none" stroke="black" d="M372.2,-516.12C418.99,-559.54 564.01,-677.53 629.94,-726.32"/>
<polygon fill="black" stroke="black" points="628.19,-729.38 638.33,-732.46 632.33,-723.73 628.19,-729.38"/>
<text text-anchor="middle" x="458.57" y="-625.02" font-family="Times,serif" font-size="14.00">owl:sameAs</text>
</g>
<!-- https://w3id.org/oseg/ont/otrl#Otrl3&#45;&gt;https://w3id.org/oseg/ont/otrl#OTRL3 -->
<g id="edge45" class="edge">
<title>https://w3id.org/oseg/ont/otrl#Otrl3&#45;&gt;https://w3id.org/oseg/ont/otrl#OTRL3</title>
<path fill="none" stroke="black" d="M383.55,-516.15C442.82,-559.21 586.23,-675.47 641.22,-725.02"/>
<polygon fill="black" stroke="black" points="638.93,-727.67 648.67,-731.83 643.65,-722.5 638.93,-727.67"/>
<text text-anchor="middle" x="432.38" y="-609.39" font-family="Times,serif" font-size="14.00">schema:supersededBy</text>
</g>
<!-- https://w3id.org/oseg/ont/otrl#Otrl2 -->
<g id="node35" class="node">
<title>https://w3id.org/oseg/ont/otrl#Otrl2</title>
<ellipse fill="none" stroke="black" cx="667.58" cy="-1591.76" rx="194.41" ry="16.03"/>
<text text-anchor="middle" x="667.58" y="-1588.06" font-family="Times,serif" font-size="14.00">https://w3id.org/oseg/ont/otrl#Otrl2</text>
</g>
<!-- https://w3id.org/oseg/ont/otrl#Otrl2&#45;&gt;https://w3id.org/oseg/ont/otrl#OTRL2 -->
<g id="edge33" class="edge">
<title>https://w3id.org/oseg/ont/otrl#Otrl2&#45;&gt;https://w3id.org/oseg/ont/otrl#OTRL2</title>
<path fill="none" stroke="black" d="M676.04,-1575.35C700.17,-1515.86 766.16,-1311.22 785.14,-1237.81"/>
<polygon fill="black" stroke="black" points="788.57,-1238.51 787.59,-1227.96 781.78,-1236.82 788.57,-1238.51"/>
<text text-anchor="middle" x="688.09" y="-1410.38" font-family="Times,serif" font-size="14.00">owl:sameAs</text>
</g>
<!-- https://w3id.org/oseg/ont/otrl#Otrl2&#45;&gt;https://w3id.org/oseg/ont/otrl#OTRL2 -->
<g id="edge47" class="edge">
<title>https://w3id.org/oseg/ont/otrl#Otrl2&#45;&gt;https://w3id.org/oseg/ont/otrl#OTRL2</title>
<path fill="none" stroke="black" d="M669.79,-1575.5C683.79,-1515.99 749.76,-1309.91 777.75,-1237.08"/>
<polygon fill="black" stroke="black" points="781.03,-1238.3 781.44,-1227.71 774.51,-1235.74 781.03,-1238.3"/>
<text text-anchor="middle" x="643.77" y="-1395.09" font-family="Times,serif" font-size="14.00">schema:supersededBy</text>
</g>
<!-- https://w3id.org/oseg/ont/otrl#Odrl3 -->
<g id="node36" class="node">
<title>https://w3id.org/oseg/ont/otrl#Odrl3</title>
<ellipse fill="none" stroke="black" cx="1135.17" cy="-412.7" rx="196.65" ry="16.03"/>
<text text-anchor="middle" x="1135.17" y="-409" font-family="Times,serif" font-size="14.00">https://w3id.org/oseg/ont/otrl#Odrl3</text>
</g>
<!-- https://w3id.org/oseg/ont/otrl#Odrl3&#45;&gt;https://w3id.org/oseg/ont/otrl#ODRL3 -->
<g id="edge34" class="edge">
<title>https://w3id.org/oseg/ont/otrl#Odrl3&#45;&gt;https://w3id.org/oseg/ont/otrl#ODRL3</title>
<path fill="none" stroke="black" d="M1142.26,-429.39C1142.47,-429.66 1142.68,-429.92 1142.89,-430.19"/>
<polygon fill="black" stroke="black" points="1140.45,-432.72 1149.67,-437.95 1145.73,-428.11 1140.45,-432.72"/>
<text text-anchor="middle" x="1100.08" y="-433.59" font-family="Times,serif" font-size="14.00">owl:sameAs</text>
</g>
<!-- https://w3id.org/oseg/ont/otrl#Odrl3&#45;&gt;https://w3id.org/oseg/ont/otrl#ODRL3 -->
<g id="edge39" class="edge">
<title>https://w3id.org/oseg/ont/otrl#Odrl3&#45;&gt;https://w3id.org/oseg/ont/otrl#ODRL3</title>
<path fill="none" stroke="black" d="M1160.07,-429.31C1160.21,-429.46 1160.35,-429.62 1160.49,-429.77"/>
<polygon fill="black" stroke="black" points="1157.31,-431.44 1166.44,-436.81 1162.66,-426.92 1157.31,-431.44"/>
<text text-anchor="middle" x="1240.28" y="-433.34" font-family="Times,serif" font-size="14.00">schema:supersededBy</text>
</g>
<!-- https://w3id.org/oseg/ont/otrl#Odrl2 -->
<g id="node37" class="node">
<title>https://w3id.org/oseg/ont/otrl#Odrl2</title>
<ellipse fill="none" stroke="black" cx="1408.68" cy="-525.25" rx="196.65" ry="16.03"/>
<text text-anchor="middle" x="1408.68" y="-521.55" font-family="Times,serif" font-size="14.00">https://w3id.org/oseg/ont/otrl#Odrl2</text>
</g>
<!-- https://w3id.org/oseg/ont/otrl#Odrl2&#45;&gt;https://w3id.org/oseg/ont/otrl#ODRL2 -->
<g id="edge48" class="edge">
<title>https://w3id.org/oseg/ont/otrl#Odrl2&#45;&gt;https://w3id.org/oseg/ont/otrl#ODRL2</title>
<path fill="none" stroke="black" d="M1432.95,-541.42C1443.17,-546.38 1455.51,-551.77 1467.77,-556.69"/>
<polygon fill="black" stroke="black" points="1466.5,-559.95 1477.09,-560.34 1469.05,-553.43 1466.5,-559.95"/>
<text text-anchor="middle" x="1407.86" y="-552.85" font-family="Times,serif" font-size="14.00">owl:sameAs</text>
</g>
<!-- https://w3id.org/oseg/ont/otrl#Odrl2&#45;&gt;https://w3id.org/oseg/ont/otrl#ODRL2 -->
<g id="edge49" class="edge">
<title>https://w3id.org/oseg/ont/otrl#Odrl2&#45;&gt;https://w3id.org/oseg/ont/otrl#ODRL2</title>
<path fill="none" stroke="black" d="M1464.84,-540.93C1474.18,-544.68 1483.57,-548.7 1492.04,-552.6"/>
<polygon fill="black" stroke="black" points="1490.62,-555.8 1501.15,-556.93 1493.62,-549.48 1490.62,-555.8"/>
<text text-anchor="middle" x="1558.44" y="-550.57" font-family="Times,serif" font-size="14.00">schema:supersededBy</text>
</g>
<!-- https://w3id.org/oseg/ont/otrl#Otrl1 -->
<g id="node38" class="node">
<title>https://w3id.org/oseg/ont/otrl#Otrl1</title>
<ellipse fill="none" stroke="black" cx="224.23" cy="-1187.87" rx="194.41" ry="16.03"/>
<text text-anchor="middle" x="224.23" y="-1184.17" font-family="Times,serif" font-size="14.00">https://w3id.org/oseg/ont/otrl#Otrl1</text>
</g>
<!-- https://w3id.org/oseg/ont/otrl#Otrl1&#45;&gt;https://w3id.org/oseg/ont/otrl#OTRL1 -->
<g id="edge50" class="edge">
<title>https://w3id.org/oseg/ont/otrl#Otrl1&#45;&gt;https://w3id.org/oseg/ont/otrl#OTRL1</title>
<path fill="none" stroke="black" d="M270.41,-1172.03C344.14,-1141.9 486.7,-1077.19 551.62,-1044.23"/>
<polygon fill="black" stroke="black" points="553.32,-1047.29 560.61,-1039.61 550.12,-1041.07 553.32,-1047.29"/>
<text text-anchor="middle" x="368.51" y="-1111.93" font-family="Times,serif" font-size="14.00">owl:sameAs</text>
</g>
<!-- https://w3id.org/oseg/ont/otrl#Otrl1&#45;&gt;https://w3id.org/oseg/ont/otrl#OTRL1 -->
<g id="edge54" class="edge">
<title>https://w3id.org/oseg/ont/otrl#Otrl1&#45;&gt;https://w3id.org/oseg/ont/otrl#OTRL1</title>
<path fill="none" stroke="black" d="M250.68,-1171.69C310.86,-1140.52 458.65,-1073.26 536.11,-1041.43"/>
<polygon fill="black" stroke="black" points="537.71,-1044.56 545.65,-1037.55 535.07,-1038.08 537.71,-1044.56"/>
<text text-anchor="middle" x="313.4" y="-1095.36" font-family="Times,serif" font-size="14.00">schema:supersededBy</text>
</g>
</g>
</svg>
