<?xml version="1.0" encoding="UTF-8" standalone="no"?>
<!DOCTYPE svg PUBLIC "-//W3C//DTD SVG 1.1//EN"
 "http://www.w3.org/Graphics/SVG/1.1/DTD/svg11.dtd">
<!-- Generated by graphviz version 2.43.0 (0)
 -->
<!-- Title: G Pages: 1 -->
<svg width="1456pt" height="1592pt"
 viewBox="0.00 0.00 1455.84 1591.53" xmlns="http://www.w3.org/2000/svg" xmlns:xlink="http://www.w3.org/1999/xlink">
<g id="graph0" class="graph" transform="scale(1 1) rotate(0) translate(4 1587.53)">
<title>G</title>
<polygon fill="white" stroke="transparent" points="-4,4 -4,-1587.53 1451.84,-1587.53 1451.84,4 -4,4"/>
<!-- http://w3id.org/oseg/ont/okh#Mass -->
<g id="node1" class="node">
<title>http://w3id.org/oseg/ont/okh#Mass</title>
<ellipse fill="none" stroke="#e377c2" cx="892.63" cy="-634.26" rx="59.29" ry="16.03"/>
<text text-anchor="middle" x="892.63" y="-630.56" font-family="Times,serif" font-size="14.00">okh:Mass</text>
</g>
<!-- http://www.w3.org/2004/02/skos/core#Concept -->
<g id="node5" class="node">
<title>http://www.w3.org/2004/02/skos/core#Concept</title>
<ellipse fill="none" stroke="#1f77b4" cx="1329.76" cy="-1030.26" rx="78.48" ry="16.03"/>
<text text-anchor="middle" x="1329.76" y="-1026.56" font-family="Times,serif" font-size="14.00">skos:Concept</text>
</g>
<!-- http://w3id.org/oseg/ont/okh#Mass&#45;&gt;http://www.w3.org/2004/02/skos/core#Concept -->
<g id="edge42" class="edge">
<title>http://w3id.org/oseg/ont/okh#Mass&#45;&gt;http://www.w3.org/2004/02/skos/core#Concept</title>
<path fill="none" stroke="black" d="M950.77,-637.66C974.51,-642.16 1000.11,-651.67 1015.67,-671.26 1053.61,-719.05 992.22,-900.48 1033.67,-945.26 1058.07,-971.62 1159.21,-958.11 1193.67,-968.26 1228.65,-978.57 1266.18,-996.4 1292.78,-1010.29"/>
<polygon fill="black" stroke="black" points="1291.24,-1013.44 1301.72,-1015.03 1294.52,-1007.25 1291.24,-1013.44"/>
<text text-anchor="middle" x="1113.67" y="-972.06" font-family="Times,serif" font-size="14.00">a</text>
</g>
<!-- http://w3id.org/oseg/ont/okhmetaTransportationTag -->
<g id="node41" class="node">
<title>http://w3id.org/oseg/ont/okhmetaTransportationTag</title>
<ellipse fill="none" stroke="#e377c2" cx="1329.76" cy="-511.26" rx="118.17" ry="16.03"/>
<text text-anchor="middle" x="1329.76" y="-507.56" font-family="Times,serif" font-size="14.00">okhmeta:Transport...</text>
</g>
<!-- http://w3id.org/oseg/ont/okh#Mass&#45;&gt;http://w3id.org/oseg/ont/okhmetaTransportationTag -->
<g id="edge52" class="edge">
<title>http://w3id.org/oseg/ont/okh#Mass&#45;&gt;http://w3id.org/oseg/ont/okhmetaTransportationTag</title>
<path fill="none" stroke="black" d="M948.46,-628.51C972.05,-623.35 998.16,-613.61 1015.67,-595.26 1036.95,-572.96 1009.75,-547.72 1033.67,-528.26 1060.56,-506.39 1141.26,-502.87 1211.48,-504.42"/>
<polygon fill="black" stroke="black" points="1211.67,-507.93 1221.75,-504.68 1211.85,-500.93 1211.67,-507.93"/>
<text text-anchor="middle" x="1113.67" y="-532.06" font-family="Times,serif" font-size="14.00">okhmeta:hasMetaTag</text>
</g>
<!-- http://w3id.org/oseg/ont/okhmetaPhysicalTag -->
<g id="node42" class="node">
<title>http://w3id.org/oseg/ont/okhmetaPhysicalTag</title>
<ellipse fill="none" stroke="#e377c2" cx="1329.76" cy="-562.26" rx="118.17" ry="16.03"/>
<text text-anchor="middle" x="1329.76" y="-558.56" font-family="Times,serif" font-size="14.00">okhmeta:PhysicalTag</text>
</g>
<!-- http://w3id.org/oseg/ont/okh#Mass&#45;&gt;http://w3id.org/oseg/ont/okhmetaPhysicalTag -->
<g id="edge30" class="edge">
<title>http://w3id.org/oseg/ont/okh#Mass&#45;&gt;http://w3id.org/oseg/ont/okhmetaPhysicalTag</title>
<path fill="none" stroke="black" d="M945.26,-626.65C968.74,-621.1 995.67,-611.56 1015.67,-595.26 1028.32,-584.95 1019.6,-571.53 1033.67,-563.26 1065.16,-544.78 1153.07,-546.57 1224.81,-551.79"/>
<polygon fill="black" stroke="black" points="1224.58,-555.28 1234.81,-552.54 1225.11,-548.3 1224.58,-555.28"/>
<text text-anchor="middle" x="1113.67" y="-567.06" font-family="Times,serif" font-size="14.00">okhmeta:hasMetaTag</text>
</g>
<!-- http://w3id.org/oseg/ont/okh#ComponentReference -->
<g id="node2" class="node">
<title>http://w3id.org/oseg/ont/okh#ComponentReference</title>
<ellipse fill="none" stroke="#e377c2" cx="892.63" cy="-1501.26" rx="123.07" ry="16.03"/>
<text text-anchor="middle" x="892.63" y="-1497.56" font-family="Times,serif" font-size="14.00">okh:ComponentRefe...</text>
</g>
<!-- http://w3id.org/oseg/ont/okh#ComponentReference&#45;&gt;http://www.w3.org/2004/02/skos/core#Concept -->
<g id="edge1" class="edge">
<title>http://w3id.org/oseg/ont/okh#ComponentReference&#45;&gt;http://www.w3.org/2004/02/skos/core#Concept</title>
<path fill="none" stroke="black" d="M988.68,-1490.99C1075.23,-1481.42 1190.11,-1468.07 1193.67,-1464.26 1218.51,-1437.68 1196.08,-1170.14 1211.67,-1137.26 1229.23,-1100.22 1265.97,-1070.07 1293.64,-1051.33"/>
<polygon fill="black" stroke="black" points="1295.84,-1054.07 1302.27,-1045.65 1291.99,-1048.22 1295.84,-1054.07"/>
<text text-anchor="middle" x="1113.67" y="-1488.06" font-family="Times,serif" font-size="14.00">a</text>
</g>
<!-- http://w3id.org/oseg/ont/okh#Reference -->
<g id="node8" class="node">
<title>http://w3id.org/oseg/ont/okh#Reference</title>
<ellipse fill="none" stroke="#e377c2" cx="1329.76" cy="-1516.26" rx="84.29" ry="16.03"/>
<text text-anchor="middle" x="1329.76" y="-1512.56" font-family="Times,serif" font-size="14.00">okh:Reference</text>
</g>
<!-- http://w3id.org/oseg/ont/okh#ComponentReference&#45;&gt;http://w3id.org/oseg/ont/okh#Reference -->
<g id="edge50" class="edge">
<title>http://w3id.org/oseg/ont/okh#ComponentReference&#45;&gt;http://w3id.org/oseg/ont/okh#Reference</title>
<path fill="none" stroke="black" d="M1011.96,-1505.34C1082.54,-1507.78 1170.87,-1510.82 1236.31,-1513.08"/>
<polygon fill="black" stroke="black" points="1236.5,-1516.59 1246.62,-1513.43 1236.74,-1509.59 1236.5,-1516.59"/>
</g>
<!-- http://w3id.org/oseg/ont/okhmetaPartsTag -->
<g id="node18" class="node">
<title>http://w3id.org/oseg/ont/okhmetaPartsTag</title>
<ellipse fill="none" stroke="#e377c2" cx="1329.76" cy="-1567.26" rx="103.48" ry="16.03"/>
<text text-anchor="middle" x="1329.76" y="-1563.56" font-family="Times,serif" font-size="14.00">okhmeta:PartsTag</text>
</g>
<!-- http://w3id.org/oseg/ont/okh#ComponentReference&#45;&gt;http://w3id.org/oseg/ont/okhmetaPartsTag -->
<g id="edge11" class="edge">
<title>http://w3id.org/oseg/ont/okh#ComponentReference&#45;&gt;http://w3id.org/oseg/ont/okhmetaPartsTag</title>
<path fill="none" stroke="black" d="M974.2,-1513.48C1051.08,-1525.15 1166.44,-1542.64 1244.52,-1554.49"/>
<polygon fill="black" stroke="black" points="1244.39,-1558.01 1254.8,-1556.05 1245.44,-1551.09 1244.39,-1558.01"/>
<text text-anchor="middle" x="1113.67" y="-1549.06" font-family="Times,serif" font-size="14.00">okhmeta:hasMetaTag</text>
</g>
<!-- http://www.w3.org/2002/07/owl#DatatypeProperty -->
<g id="node3" class="node">
<title>http://www.w3.org/2002/07/owl#DatatypeProperty</title>
<ellipse fill="none" stroke="#1f77b4" cx="892.63" cy="-441.26" rx="123.07" ry="16.03"/>
<text text-anchor="middle" x="892.63" y="-437.56" font-family="Times,serif" font-size="14.00">owl:DatatypeProperty</text>
</g>
<!-- http://www.w3.org/2002/07/owl#ObjectProperty -->
<g id="node4" class="node">
<title>http://www.w3.org/2002/07/owl#ObjectProperty</title>
<ellipse fill="none" stroke="#1f77b4" cx="1329.76" cy="-752.26" rx="109.7" ry="16.03"/>
<text text-anchor="middle" x="1329.76" y="-748.56" font-family="Times,serif" font-size="14.00">owl:ObjectProperty</text>
</g>
<!-- http://w3id.org/oseg/ont/okh#FileUrl -->
<g id="node6" class="node">
<title>http://w3id.org/oseg/ont/okh#FileUrl</title>
<ellipse fill="none" stroke="#1f77b4" cx="466.82" cy="-1089.26" rx="68.68" ry="16.03"/>
<text text-anchor="middle" x="466.82" y="-1085.56" font-family="Times,serif" font-size="14.00">okh:FileUrl</text>
</g>
<!-- http://w3id.org/oseg/ont/okh#FileUrl&#45;&gt;http://w3id.org/oseg/ont/okh#ComponentReference -->
<g id="edge38" class="edge">
<title>http://w3id.org/oseg/ont/okh#FileUrl&#45;&gt;http://w3id.org/oseg/ont/okh#ComponentReference</title>
<path fill="none" stroke="black" d="M484.18,-1105.16C549.18,-1168.36 789.51,-1401.98 867.22,-1477.53"/>
<polygon fill="black" stroke="black" points="865.03,-1480.28 874.64,-1484.74 869.91,-1475.26 865.03,-1480.28"/>
</g>
<!-- http://schema.org/URL -->
<g id="node7" class="node">
<title>http://schema.org/URL</title>
<ellipse fill="none" stroke="#e377c2" cx="892.63" cy="-1089.26" rx="75.82" ry="16.03"/>
<text text-anchor="middle" x="892.63" y="-1085.56" font-family="Times,serif" font-size="14.00">schema:URL</text>
</g>
<!-- http://w3id.org/oseg/ont/okh#FileUrl&#45;&gt;http://schema.org/URL -->
<g id="edge23" class="edge">
<title>http://w3id.org/oseg/ont/okh#FileUrl&#45;&gt;http://schema.org/URL</title>
<path fill="none" stroke="black" d="M535.44,-1089.26C609.07,-1089.26 726.93,-1089.26 806.73,-1089.26"/>
<polygon fill="black" stroke="black" points="806.75,-1092.76 816.75,-1089.26 806.75,-1085.76 806.75,-1092.76"/>
</g>
<!-- http://w3id.org/oseg/ont/okh#File -->
<g id="node12" class="node">
<title>http://w3id.org/oseg/ont/okh#File</title>
<ellipse fill="none" stroke="#e377c2" cx="1329.76" cy="-881.26" rx="52.15" ry="16.03"/>
<text text-anchor="middle" x="1329.76" y="-877.56" font-family="Times,serif" font-size="14.00">okh:File</text>
</g>
<!-- http://w3id.org/oseg/ont/okh#FileUrl&#45;&gt;http://w3id.org/oseg/ont/okh#File -->
<g id="edge12" class="edge">
<title>http://w3id.org/oseg/ont/okh#FileUrl&#45;&gt;http://w3id.org/oseg/ont/okh#File</title>
<path fill="none" stroke="black" d="M527.16,-1081.52C667.13,-1063.13 1006.89,-1017.74 1015.67,-1009.26 1047.84,-978.2 1000.78,-940.57 1033.67,-910.26 1050.48,-894.77 1186.07,-886.82 1267.48,-883.4"/>
<polygon fill="black" stroke="black" points="1267.77,-886.89 1277.62,-882.98 1267.48,-879.89 1267.77,-886.89"/>
<text text-anchor="middle" x="892.63" y="-1052.06" font-family="Times,serif" font-size="14.00">schema:supersededBy</text>
</g>
<!-- http://w3id.org/oseg/ont/okh#url -->
<g id="node9" class="node">
<title>http://w3id.org/oseg/ont/okh#url</title>
<ellipse fill="none" stroke="#e377c2" cx="1329.76" cy="-676.26" rx="47.25" ry="16.03"/>
<text text-anchor="middle" x="1329.76" y="-672.56" font-family="Times,serif" font-size="14.00">okh:url</text>
</g>
<!-- http://w3id.org/oseg/ont/okh#height -->
<g id="node10" class="node">
<title>http://w3id.org/oseg/ont/okh#height</title>
<ellipse fill="none" stroke="#e377c2" cx="892.63" cy="-280.26" rx="65.11" ry="16.03"/>
<text text-anchor="middle" x="892.63" y="-276.56" font-family="Times,serif" font-size="14.00">okh:height</text>
</g>
<!-- http://spdx.org/rdf/terms#ListedLicense -->
<g id="node11" class="node">
<title>http://spdx.org/rdf/terms#ListedLicense</title>
<ellipse fill="none" stroke="#e377c2" cx="1329.76" cy="-1448.26" rx="108.38" ry="16.03"/>
<text text-anchor="middle" x="1329.76" y="-1444.56" font-family="Times,serif" font-size="14.00">spdx:ListedLicense</text>
</g>
<!-- http://w3id.org/oseg/ont/okh#unit -->
<g id="node13" class="node">
<title>http://w3id.org/oseg/ont/okh#unit</title>
<ellipse fill="none" stroke="#e377c2" cx="466.82" cy="-596.26" rx="53.07" ry="16.03"/>
<text text-anchor="middle" x="466.82" y="-592.56" font-family="Times,serif" font-size="14.00">okh:unit</text>
</g>
<!-- http://w3id.org/oseg/ont/okh#unit&#45;&gt;http://w3id.org/oseg/ont/okh#Mass -->
<g id="edge55" class="edge">
<title>http://w3id.org/oseg/ont/okh#unit&#45;&gt;http://w3id.org/oseg/ont/okh#Mass</title>
<path fill="none" stroke="black" d="M518.1,-600.77C594.8,-607.65 741.03,-620.76 826,-628.38"/>
<polygon fill="black" stroke="black" points="825.78,-631.87 836.05,-629.28 826.4,-624.9 825.78,-631.87"/>
<text text-anchor="middle" x="671.6" y="-624.06" font-family="Times,serif" font-size="14.00">dcam:domainIncludes</text>
</g>
<!-- http://w3id.org/oseg/ont/okh#unit&#45;&gt;http://www.w3.org/2002/07/owl#DatatypeProperty -->
<g id="edge6" class="edge">
<title>http://w3id.org/oseg/ont/okh#unit&#45;&gt;http://www.w3.org/2002/07/owl#DatatypeProperty</title>
<path fill="none" stroke="black" d="M479.86,-580.29C499.94,-554.98 542.88,-506.17 591.6,-483.26 593.96,-482.15 709.3,-466.2 796.26,-454.28"/>
<polygon fill="black" stroke="black" points="796.75,-457.74 806.18,-452.92 795.8,-450.81 796.75,-457.74"/>
<text text-anchor="middle" x="671.6" y="-487.06" font-family="Times,serif" font-size="14.00">a</text>
</g>
<!-- http://w3id.org/oseg/ont/okh#Dimensions -->
<g id="node23" class="node">
<title>http://w3id.org/oseg/ont/okh#Dimensions</title>
<ellipse fill="none" stroke="#e377c2" cx="892.63" cy="-570.26" rx="91.85" ry="16.03"/>
<text text-anchor="middle" x="892.63" y="-566.56" font-family="Times,serif" font-size="14.00">okh:Dimensions</text>
</g>
<!-- http://w3id.org/oseg/ont/okh#unit&#45;&gt;http://w3id.org/oseg/ont/okh#Dimensions -->
<g id="edge17" class="edge">
<title>http://w3id.org/oseg/ont/okh#unit&#45;&gt;http://w3id.org/oseg/ont/okh#Dimensions</title>
<path fill="none" stroke="black" d="M518.94,-593.13C587.24,-588.94 709.59,-581.43 795.42,-576.17"/>
<polygon fill="black" stroke="black" points="795.67,-579.66 805.44,-575.55 795.25,-572.67 795.67,-579.66"/>
<text text-anchor="middle" x="671.6" y="-592.06" font-family="Times,serif" font-size="14.00">dcam:domainIncludes</text>
</g>
<!-- http://w3id.org/oseg/ont/okhmetaLegalTag -->
<g id="node14" class="node">
<title>http://w3id.org/oseg/ont/okhmetaLegalTag</title>
<ellipse fill="none" stroke="#e377c2" cx="1329.76" cy="-1232.26" rx="103.89" ry="16.03"/>
<text text-anchor="middle" x="1329.76" y="-1228.56" font-family="Times,serif" font-size="14.00">okhmeta:LegalTag</text>
</g>
<!-- http://w3id.org/oseg/ont/okh#license -->
<g id="node15" class="node">
<title>http://w3id.org/oseg/ont/okh#license</title>
<ellipse fill="none" stroke="#e377c2" cx="1329.76" cy="-1315.26" rx="67.76" ry="16.03"/>
<text text-anchor="middle" x="1329.76" y="-1311.56" font-family="Times,serif" font-size="14.00">okh:license</text>
</g>
<!-- http://w3id.org/oseg/ont/okh#openSCAD -->
<g id="node16" class="node">
<title>http://w3id.org/oseg/ont/okh#openSCAD</title>
<ellipse fill="none" stroke="#e377c2" cx="466.82" cy="-381.26" rx="86.03" ry="16.03"/>
<text text-anchor="middle" x="466.82" y="-377.56" font-family="Times,serif" font-size="14.00">okh:openSCAD</text>
</g>
<!-- http://w3id.org/oseg/ont/okh#openSCAD&#45;&gt;http://www.w3.org/2002/07/owl#DatatypeProperty -->
<g id="edge37" class="edge">
<title>http://w3id.org/oseg/ont/okh#openSCAD&#45;&gt;http://www.w3.org/2002/07/owl#DatatypeProperty</title>
<path fill="none" stroke="black" d="M537.54,-390.6C595,-398.36 678.62,-409.78 751.6,-420.26 767.62,-422.57 784.66,-425.07 801.14,-427.53"/>
<polygon fill="black" stroke="black" points="800.9,-431.03 811.31,-429.05 801.94,-424.11 800.9,-431.03"/>
<text text-anchor="middle" x="671.6" y="-424.06" font-family="Times,serif" font-size="14.00">a</text>
</g>
<!-- http://w3id.org/oseg/ont/okh#openSCAD&#45;&gt;http://w3id.org/oseg/ont/okh#height -->
<g id="edge3" class="edge">
<title>http://w3id.org/oseg/ont/okh#openSCAD&#45;&gt;http://w3id.org/oseg/ont/okh#height</title>
<path fill="none" stroke="black" d="M479.21,-364.93C498.66,-338.62 541.14,-287.83 591.6,-268.26 632.5,-252.4 749.34,-262.59 824.56,-271.42"/>
<polygon fill="black" stroke="black" points="824.55,-274.95 834.89,-272.66 825.38,-268 824.55,-274.95"/>
<text text-anchor="middle" x="671.6" y="-272.06" font-family="Times,serif" font-size="14.00">schema:supersededBy</text>
</g>
<!-- http://w3id.org/oseg/ont/okh#depth -->
<g id="node21" class="node">
<title>http://w3id.org/oseg/ont/okh#depth</title>
<ellipse fill="none" stroke="#e377c2" cx="892.63" cy="-229.26" rx="62.45" ry="16.03"/>
<text text-anchor="middle" x="892.63" y="-225.56" font-family="Times,serif" font-size="14.00">okh:depth</text>
</g>
<!-- http://w3id.org/oseg/ont/okh#openSCAD&#45;&gt;http://w3id.org/oseg/ont/okh#depth -->
<g id="edge15" class="edge">
<title>http://w3id.org/oseg/ont/okh#openSCAD&#45;&gt;http://w3id.org/oseg/ont/okh#depth</title>
<path fill="none" stroke="black" d="M476.34,-364.88C493.41,-334.06 535.04,-268.13 591.6,-241.26 668.21,-204.88 768.62,-209.89 831.64,-218.38"/>
<polygon fill="black" stroke="black" points="831.42,-221.89 841.81,-219.83 832.4,-214.95 831.42,-221.89"/>
<text text-anchor="middle" x="671.6" y="-245.06" font-family="Times,serif" font-size="14.00">schema:supersededBy</text>
</g>
<!-- http://w3id.org/oseg/ont/okh#openSCAD&#45;&gt;http://w3id.org/oseg/ont/okh#Dimensions -->
<g id="edge36" class="edge">
<title>http://w3id.org/oseg/ont/okh#openSCAD&#45;&gt;http://w3id.org/oseg/ont/okh#Dimensions</title>
<path fill="none" stroke="black" d="M522.97,-393.69C541.7,-400.58 561.04,-411.15 573.6,-427.26 603.78,-465.99 556,-502.44 591.6,-536.26 599.17,-543.46 713.69,-554.88 799,-562.47"/>
<polygon fill="black" stroke="black" points="798.72,-565.96 808.99,-563.36 799.34,-558.99 798.72,-565.96"/>
<text text-anchor="middle" x="671.6" y="-561.06" font-family="Times,serif" font-size="14.00">dcam:domainIncludes</text>
</g>
<!-- http://www.w3.org/2001/XMLSchema#string -->
<g id="node30" class="node">
<title>http://www.w3.org/2001/XMLSchema#string</title>
<ellipse fill="none" stroke="#e377c2" cx="892.63" cy="-178.26" rx="62.87" ry="16.03"/>
<text text-anchor="middle" x="892.63" y="-174.56" font-family="Times,serif" font-size="14.00">xsd:string</text>
</g>
<!-- http://w3id.org/oseg/ont/okh#openSCAD&#45;&gt;http://www.w3.org/2001/XMLSchema#string -->
<g id="edge33" class="edge">
<title>http://w3id.org/oseg/ont/okh#openSCAD&#45;&gt;http://www.w3.org/2001/XMLSchema#string</title>
<path fill="none" stroke="black" d="M472.91,-365.03C485.73,-327.17 523.33,-233.32 591.6,-194.26 666.27,-151.54 769.26,-157.22 833.08,-166.68"/>
<polygon fill="black" stroke="black" points="832.56,-170.14 842.98,-168.22 833.64,-163.22 832.56,-170.14"/>
<text text-anchor="middle" x="671.6" y="-198.06" font-family="Times,serif" font-size="14.00">dcam:rangeIncludes</text>
</g>
<!-- http://w3id.org/oseg/ont/okh#width -->
<g id="node34" class="node">
<title>http://w3id.org/oseg/ont/okh#width</title>
<ellipse fill="none" stroke="#e377c2" cx="892.63" cy="-381.26" rx="61.54" ry="16.03"/>
<text text-anchor="middle" x="892.63" y="-377.56" font-family="Times,serif" font-size="14.00">okh:width</text>
</g>
<!-- http://w3id.org/oseg/ont/okh#openSCAD&#45;&gt;http://w3id.org/oseg/ont/okh#width -->
<g id="edge40" class="edge">
<title>http://w3id.org/oseg/ont/okh#openSCAD&#45;&gt;http://w3id.org/oseg/ont/okh#width</title>
<path fill="none" stroke="black" d="M553.33,-381.26C631.96,-381.26 747.19,-381.26 820.8,-381.26"/>
<polygon fill="black" stroke="black" points="820.9,-384.76 830.9,-381.26 820.9,-377.76 820.9,-384.76"/>
<text text-anchor="middle" x="671.6" y="-385.06" font-family="Times,serif" font-size="14.00">schema:supersededBy</text>
</g>
<!-- http://w3id.org/oseg/ont/okh#installationGuide -->
<g id="node17" class="node">
<title>http://w3id.org/oseg/ont/okh#installationGuide</title>
<ellipse fill="none" stroke="#e377c2" cx="466.82" cy="-925.26" rx="106.55" ry="16.03"/>
<text text-anchor="middle" x="466.82" y="-921.56" font-family="Times,serif" font-size="14.00">okh:installationG...</text>
</g>
<!-- http://w3id.org/oseg/ont/okh#installationGuide&#45;&gt;http://www.w3.org/2002/07/owl#DatatypeProperty -->
<g id="edge41" class="edge">
<title>http://w3id.org/oseg/ont/okh#installationGuide&#45;&gt;http://www.w3.org/2002/07/owl#DatatypeProperty</title>
<path fill="none" stroke="black" d="M536.17,-912.86C603.38,-896.71 702.78,-861.41 751.6,-788.26 791.26,-728.84 723.11,-521.52 769.6,-467.26 773.38,-462.84 777.72,-459.06 782.45,-455.84"/>
<polygon fill="black" stroke="black" points="784.5,-458.7 791.35,-450.62 780.96,-452.66 784.5,-458.7"/>
<text text-anchor="middle" x="671.6" y="-899.06" font-family="Times,serif" font-size="14.00">a</text>
</g>
<!-- http://w3id.org/oseg/ont/okh#installationGuide&#45;&gt;http://www.w3.org/2004/02/skos/core#Concept -->
<g id="edge10" class="edge">
<title>http://w3id.org/oseg/ont/okh#installationGuide&#45;&gt;http://www.w3.org/2004/02/skos/core#Concept</title>
<path fill="none" stroke="black" d="M541.05,-937.02C557.65,-939.54 575.22,-942.1 591.6,-944.26 858.51,-979.59 926.54,-977.62 1193.67,-1011.26 1213.67,-1013.78 1235.3,-1016.73 1255.28,-1019.54"/>
<polygon fill="black" stroke="black" points="1254.85,-1023.01 1265.24,-1020.94 1255.83,-1016.08 1254.85,-1023.01"/>
<text text-anchor="middle" x="892.63" y="-994.06" font-family="Times,serif" font-size="14.00">a</text>
</g>
<!-- http://w3id.org/oseg/ont/okh#Software -->
<g id="node19" class="node">
<title>http://w3id.org/oseg/ont/okh#Software</title>
<ellipse fill="none" stroke="#e377c2" cx="892.63" cy="-925.26" rx="78.48" ry="16.03"/>
<text text-anchor="middle" x="892.63" y="-921.56" font-family="Times,serif" font-size="14.00">okh:Software</text>
</g>
<!-- http://w3id.org/oseg/ont/okh#installationGuide&#45;&gt;http://w3id.org/oseg/ont/okh#Software -->
<g id="edge13" class="edge">
<title>http://w3id.org/oseg/ont/okh#installationGuide&#45;&gt;http://w3id.org/oseg/ont/okh#Software</title>
<path fill="none" stroke="black" d="M573.67,-925.26C644.68,-925.26 737.1,-925.26 803.98,-925.26"/>
<polygon fill="black" stroke="black" points="804.08,-928.76 814.08,-925.26 804.08,-921.76 804.08,-928.76"/>
<text text-anchor="middle" x="671.6" y="-929.06" font-family="Times,serif" font-size="14.00">dcam:domainIncludes</text>
</g>
<!-- http://w3id.org/oseg/ont/okh#tsdc -->
<g id="node20" class="node">
<title>http://w3id.org/oseg/ont/okh#tsdc</title>
<ellipse fill="none" stroke="#e377c2" cx="1329.76" cy="-454.26" rx="54.39" ry="16.03"/>
<text text-anchor="middle" x="1329.76" y="-450.56" font-family="Times,serif" font-size="14.00">okh:tsdc</text>
</g>
<!-- http://schema.org/license -->
<g id="node22" class="node">
<title>http://schema.org/license</title>
<ellipse fill="none" stroke="#e377c2" cx="1329.76" cy="-1385.26" rx="88.28" ry="16.03"/>
<text text-anchor="middle" x="1329.76" y="-1381.56" font-family="Times,serif" font-size="14.00">schema:license</text>
</g>
<!-- http://w3id.org/oseg/ont/okh#okhvOriginal -->
<g id="node24" class="node">
<title>http://w3id.org/oseg/ont/okh#okhvOriginal</title>
<ellipse fill="none" stroke="#e377c2" cx="466.82" cy="-130.26" rx="97.66" ry="16.03"/>
<text text-anchor="middle" x="466.82" y="-126.56" font-family="Times,serif" font-size="14.00">okh:okhvOriginal</text>
</g>
<!-- http://w3id.org/oseg/ont/okh#okhvOriginal&#45;&gt;http://www.w3.org/2002/07/owl#DatatypeProperty -->
<g id="edge19" class="edge">
<title>http://w3id.org/oseg/ont/okh#okhvOriginal&#45;&gt;http://www.w3.org/2002/07/owl#DatatypeProperty</title>
<path fill="none" stroke="black" d="M473.58,-146.5C487.58,-183.6 527.11,-274.9 591.6,-321.26 651.2,-364.12 696.24,-314.04 751.6,-362.26 767.53,-376.14 753.86,-392.16 769.6,-406.26 778.63,-414.37 789.43,-420.6 800.82,-425.4"/>
<polygon fill="black" stroke="black" points="799.9,-428.8 810.49,-429.1 802.4,-422.26 799.9,-428.8"/>
<text text-anchor="middle" x="671.6" y="-366.06" font-family="Times,serif" font-size="14.00">a</text>
</g>
<!-- http://w3id.org/oseg/ont/okh#okhv -->
<g id="node32" class="node">
<title>http://w3id.org/oseg/ont/okh#okhv</title>
<ellipse fill="none" stroke="#e377c2" cx="892.63" cy="-73.26" rx="56.64" ry="16.03"/>
<text text-anchor="middle" x="892.63" y="-69.56" font-family="Times,serif" font-size="14.00">okh:okhv</text>
</g>
<!-- http://w3id.org/oseg/ont/okh#okhvOriginal&#45;&gt;http://w3id.org/oseg/ont/okh#okhv -->
<g id="edge35" class="edge">
<title>http://w3id.org/oseg/ont/okh#okhvOriginal&#45;&gt;http://w3id.org/oseg/ont/okh#okhv</title>
<path fill="none" stroke="black" d="M536.17,-118.75C554.18,-115.84 573.6,-112.83 591.6,-110.26 673.62,-98.58 768.58,-87.24 829.33,-80.26"/>
<polygon fill="black" stroke="black" points="829.98,-83.7 839.52,-79.09 829.18,-76.75 829.98,-83.7"/>
<text text-anchor="middle" x="671.6" y="-114.06" font-family="Times,serif" font-size="14.00">subPropertyOf</text>
</g>
<!-- http://w3id.org/oseg/ont/okh#okhvStored -->
<g id="node37" class="node">
<title>http://w3id.org/oseg/ont/okh#okhvStored</title>
<ellipse fill="none" stroke="#e377c2" cx="892.63" cy="-127.26" rx="90.52" ry="16.03"/>
<text text-anchor="middle" x="892.63" y="-123.56" font-family="Times,serif" font-size="14.00">okh:okhvStored</text>
</g>
<!-- http://w3id.org/oseg/ont/okh#okhvOriginal&#45;&gt;http://w3id.org/oseg/ont/okh#okhvStored -->
<g id="edge47" class="edge">
<title>http://w3id.org/oseg/ont/okh#okhvOriginal&#45;&gt;http://w3id.org/oseg/ont/okh#okhvStored</title>
<path fill="none" stroke="black" d="M564.52,-129.58C632.37,-129.1 722.87,-128.46 791.48,-127.97"/>
<polygon fill="black" stroke="black" points="791.89,-131.47 801.86,-127.9 791.84,-124.47 791.89,-131.47"/>
<text text-anchor="middle" x="671.6" y="-134.06" font-family="Times,serif" font-size="14.00">seeAlso</text>
</g>
<!-- http://w3id.org/oseg/ont/okh#spdxLicense -->
<g id="node25" class="node">
<title>http://w3id.org/oseg/ont/okh#spdxLicense</title>
<ellipse fill="none" stroke="#e377c2" cx="892.63" cy="-1258.26" rx="94.51" ry="16.03"/>
<text text-anchor="middle" x="892.63" y="-1254.56" font-family="Times,serif" font-size="14.00">okh:spdxLicense</text>
</g>
<!-- http://w3id.org/oseg/ont/okh#spdxLicense&#45;&gt;http://www.w3.org/2002/07/owl#ObjectProperty -->
<g id="edge21" class="edge">
<title>http://w3id.org/oseg/ont/okh#spdxLicense&#45;&gt;http://www.w3.org/2002/07/owl#ObjectProperty</title>
<path fill="none" stroke="black" d="M926.99,-1243.04C955.29,-1228.31 994.56,-1203.23 1015.67,-1169.26 1040.43,-1129.42 999.63,-1097.54 1033.67,-1065.26 1085.63,-1015.99 1143.64,-1097.5 1193.67,-1046.26 1223.3,-1015.92 1192.48,-894.09 1211.67,-856.26 1229.71,-820.71 1265.49,-791.77 1292.78,-773.52"/>
<polygon fill="black" stroke="black" points="1294.83,-776.37 1301.31,-767.98 1291.01,-770.5 1294.83,-776.37"/>
<text text-anchor="middle" x="1113.67" y="-1069.06" font-family="Times,serif" font-size="14.00">a</text>
</g>
<!-- http://w3id.org/oseg/ont/okh#spdxLicense&#45;&gt;http://www.w3.org/2004/02/skos/core#Concept -->
<g id="edge46" class="edge">
<title>http://w3id.org/oseg/ont/okh#spdxLicense&#45;&gt;http://www.w3.org/2004/02/skos/core#Concept</title>
<path fill="none" stroke="black" d="M923.88,-1242.9C951.27,-1227.59 991,-1201.73 1015.67,-1169.26 1029.45,-1151.12 1016.53,-1136.28 1033.67,-1121.26 1088.56,-1073.16 1124.02,-1106.1 1193.67,-1084.26 1225.44,-1074.31 1260.3,-1060.29 1286.66,-1049.03"/>
<polygon fill="black" stroke="black" points="1288.16,-1052.19 1295.96,-1045.02 1285.39,-1045.76 1288.16,-1052.19"/>
<text text-anchor="middle" x="1113.67" y="-1125.06" font-family="Times,serif" font-size="14.00">a</text>
</g>
<!-- http://w3id.org/oseg/ont/okh#spdxLicense&#45;&gt;http://spdx.org/rdf/terms#ListedLicense -->
<g id="edge4" class="edge">
<title>http://w3id.org/oseg/ont/okh#spdxLicense&#45;&gt;http://spdx.org/rdf/terms#ListedLicense</title>
<path fill="none" stroke="black" d="M901.51,-1274.66C919.37,-1309.77 966.65,-1391.78 1033.67,-1426.26 1064.15,-1441.94 1143.02,-1447.26 1211.57,-1448.75"/>
<polygon fill="black" stroke="black" points="1211.53,-1452.25 1221.6,-1448.94 1211.67,-1445.25 1211.53,-1452.25"/>
<text text-anchor="middle" x="1113.67" y="-1451.06" font-family="Times,serif" font-size="14.00">dcam:rangeIncludes</text>
</g>
<!-- http://w3id.org/oseg/ont/okh#spdxLicense&#45;&gt;http://w3id.org/oseg/ont/okhmetaLegalTag -->
<g id="edge7" class="edge">
<title>http://w3id.org/oseg/ont/okh#spdxLicense&#45;&gt;http://w3id.org/oseg/ont/okhmetaLegalTag</title>
<path fill="none" stroke="black" d="M982.47,-1252.95C1051.91,-1248.81 1148.66,-1243.02 1222.25,-1238.63"/>
<polygon fill="black" stroke="black" points="1222.71,-1242.11 1232.48,-1238.02 1222.29,-1235.12 1222.71,-1242.11"/>
<text text-anchor="middle" x="1113.67" y="-1253.06" font-family="Times,serif" font-size="14.00">okhmeta:hasMetaTag</text>
</g>
<!-- http://w3id.org/oseg/ont/okh#spdxLicense&#45;&gt;http://w3id.org/oseg/ont/okh#license -->
<g id="edge8" class="edge">
<title>http://w3id.org/oseg/ont/okh#spdxLicense&#45;&gt;http://w3id.org/oseg/ont/okh#license</title>
<path fill="none" stroke="black" d="M924.11,-1273.69C951.86,-1286.83 994.38,-1304.74 1033.67,-1312.26 1108.47,-1326.58 1195.9,-1325.28 1256.07,-1321.68"/>
<polygon fill="black" stroke="black" points="1256.47,-1325.16 1266.23,-1321.03 1256.03,-1318.17 1256.47,-1325.16"/>
<text text-anchor="middle" x="1113.67" y="-1327.06" font-family="Times,serif" font-size="14.00">schema:supersededBy</text>
</g>
<!-- http://w3id.org/oseg/ont/okh#spdxLicense&#45;&gt;http://schema.org/license -->
<g id="edge16" class="edge">
<title>http://w3id.org/oseg/ont/okh#spdxLicense&#45;&gt;http://schema.org/license</title>
<path fill="none" stroke="black" d="M904.72,-1274.67C925.77,-1304.14 974.69,-1365.11 1033.67,-1388.26 1108.21,-1417.53 1201.72,-1409.94 1263.26,-1399.59"/>
<polygon fill="black" stroke="black" points="1263.99,-1403.02 1273.23,-1397.84 1262.78,-1396.12 1263.99,-1403.02"/>
<text text-anchor="middle" x="1113.67" y="-1412.06" font-family="Times,serif" font-size="14.00">skos:closeMatch</text>
</g>
<!-- http://w3id.org/oseg/ont/okh#Module -->
<g id="node35" class="node">
<title>http://w3id.org/oseg/ont/okh#Module</title>
<ellipse fill="none" stroke="#e377c2" cx="1329.76" cy="-1162.26" rx="70.92" ry="16.03"/>
<text text-anchor="middle" x="1329.76" y="-1158.56" font-family="Times,serif" font-size="14.00">okh:Module</text>
</g>
<!-- http://w3id.org/oseg/ont/okh#spdxLicense&#45;&gt;http://w3id.org/oseg/ont/okh#Module -->
<g id="edge43" class="edge">
<title>http://w3id.org/oseg/ont/okh#spdxLicense&#45;&gt;http://w3id.org/oseg/ont/okh#Module</title>
<path fill="none" stroke="black" d="M914.55,-1242.37C940.77,-1223.44 987.87,-1192.71 1033.67,-1179.26 1072.46,-1167.87 1175.31,-1164.06 1248.66,-1162.82"/>
<polygon fill="black" stroke="black" points="1248.86,-1166.32 1258.8,-1162.66 1248.75,-1159.32 1248.86,-1166.32"/>
<text text-anchor="middle" x="1113.67" y="-1183.06" font-family="Times,serif" font-size="14.00">dcam:domainIncludes</text>
</g>
<!-- http://w3id.org/oseg/ont/okh#openScad -->
<g id="node26" class="node">
<title>http://w3id.org/oseg/ont/okh#openScad</title>
<ellipse fill="none" stroke="#e377c2" cx="82.02" cy="-419.26" rx="82.05" ry="16.03"/>
<text text-anchor="middle" x="82.02" y="-415.56" font-family="Times,serif" font-size="14.00">okh:openScad</text>
</g>
<!-- http://w3id.org/oseg/ont/okh#openScad&#45;&gt;http://www.w3.org/2002/07/owl#DatatypeProperty -->
<g id="edge22" class="edge">
<title>http://w3id.org/oseg/ont/okh#openScad&#45;&gt;http://www.w3.org/2002/07/owl#DatatypeProperty</title>
<path fill="none" stroke="black" d="M150.05,-428.37C160.73,-429.53 171.68,-430.56 182.05,-431.26 383.57,-444.86 617.99,-445.14 760.52,-443.59"/>
<polygon fill="black" stroke="black" points="760.67,-447.09 770.63,-443.47 760.59,-440.09 760.67,-447.09"/>
<text text-anchor="middle" x="466.82" y="-448.06" font-family="Times,serif" font-size="14.00">a</text>
</g>
<!-- http://w3id.org/oseg/ont/okh#openScad&#45;&gt;http://w3id.org/oseg/ont/okh#openSCAD -->
<g id="edge9" class="edge">
<title>http://w3id.org/oseg/ont/okh#openScad&#45;&gt;http://w3id.org/oseg/ont/okh#openSCAD</title>
<path fill="none" stroke="black" d="M159.33,-413.67C210.97,-409.66 280.68,-403.83 342.05,-397.26 356.4,-395.73 371.67,-393.91 386.4,-392.05"/>
<polygon fill="black" stroke="black" points="387.02,-395.5 396.49,-390.77 386.13,-388.56 387.02,-395.5"/>
<text text-anchor="middle" x="262.05" y="-416.06" font-family="Times,serif" font-size="14.00">schema:supersededBy</text>
</g>
<!-- http://w3id.org/oseg/ont/okh#openScad&#45;&gt;http://w3id.org/oseg/ont/okh#openSCAD -->
<g id="edge24" class="edge">
<title>http://w3id.org/oseg/ont/okh#openScad&#45;&gt;http://w3id.org/oseg/ont/okh#openSCAD</title>
<path fill="none" stroke="black" d="M111.54,-403.94C130.83,-394.46 157.23,-383.2 182.05,-378.26 249.17,-364.92 327,-366.94 384.16,-371.58"/>
<polygon fill="black" stroke="black" points="383.96,-375.07 394.22,-372.44 384.56,-368.1 383.96,-375.07"/>
<text text-anchor="middle" x="262.05" y="-382.06" font-family="Times,serif" font-size="14.00">owl:sameAs</text>
</g>
<!-- http://w3id.org/oseg/ont/okh#okhvOrig -->
<g id="node27" class="node">
<title>http://w3id.org/oseg/ont/okh#okhvOrig</title>
<ellipse fill="none" stroke="#e377c2" cx="892.63" cy="-16.26" rx="79.39" ry="16.03"/>
<text text-anchor="middle" x="892.63" y="-12.56" font-family="Times,serif" font-size="14.00">okh:okhvOrig</text>
</g>
<!-- http://w3id.org/oseg/ont/okh#fileUrl -->
<g id="node28" class="node">
<title>http://w3id.org/oseg/ont/okh#fileUrl</title>
<ellipse fill="none" stroke="#e377c2" cx="892.63" cy="-696.26" rx="65.11" ry="16.03"/>
<text text-anchor="middle" x="892.63" y="-692.56" font-family="Times,serif" font-size="14.00">okh:fileUrl</text>
</g>
<!-- http://w3id.org/oseg/ont/okh#fileUrl&#45;&gt;http://www.w3.org/2002/07/owl#ObjectProperty -->
<g id="edge29" class="edge">
<title>http://w3id.org/oseg/ont/okh#fileUrl&#45;&gt;http://www.w3.org/2002/07/owl#ObjectProperty</title>
<path fill="none" stroke="black" d="M951.75,-703.13C1012.22,-710.35 1109.63,-722.17 1193.67,-733.26 1208.69,-735.25 1224.64,-737.42 1240.12,-739.58"/>
<polygon fill="black" stroke="black" points="1239.82,-743.07 1250.21,-740.99 1240.79,-736.14 1239.82,-743.07"/>
<text text-anchor="middle" x="1113.67" y="-737.06" font-family="Times,serif" font-size="14.00">a</text>
</g>
<!-- http://w3id.org/oseg/ont/okh#fileUrl&#45;&gt;http://w3id.org/oseg/ont/okh#url -->
<g id="edge2" class="edge">
<title>http://w3id.org/oseg/ont/okh#fileUrl&#45;&gt;http://w3id.org/oseg/ont/okh#url</title>
<path fill="none" stroke="black" d="M947.33,-687.3C973.32,-683.39 1005.03,-679.25 1033.67,-677.26 1116.47,-671.53 1212.67,-672.65 1272.13,-674.25"/>
<polygon fill="black" stroke="black" points="1272.34,-677.76 1282.43,-674.54 1272.53,-670.76 1272.34,-677.76"/>
<text text-anchor="middle" x="1113.67" y="-681.06" font-family="Times,serif" font-size="14.00">schema:supersededBy</text>
</g>
<!-- http://w3id.org/oseg/ont/okh#fileUrl&#45;&gt;http://w3id.org/oseg/ont/okh#File -->
<g id="edge18" class="edge">
<title>http://w3id.org/oseg/ont/okh#fileUrl&#45;&gt;http://w3id.org/oseg/ont/okh#File</title>
<path fill="none" stroke="black" d="M956.71,-699.21C978,-703.3 1000.25,-711.46 1015.67,-727.26 1040.81,-753.04 1006.89,-782.18 1033.67,-806.26 1060.29,-830.21 1159.03,-816.21 1193.67,-825.26 1228.23,-834.3 1265.62,-850.32 1292.27,-862.92"/>
<polygon fill="black" stroke="black" points="1291.05,-866.21 1301.58,-867.39 1294.08,-859.9 1291.05,-866.21"/>
<text text-anchor="middle" x="1113.67" y="-829.06" font-family="Times,serif" font-size="14.00">dcam:domainIncludes</text>
</g>
<!-- http://schema.org/url -->
<g id="node38" class="node">
<title>http://schema.org/url</title>
<ellipse fill="none" stroke="#e377c2" cx="1329.76" cy="-613.26" rx="67.35" ry="16.03"/>
<text text-anchor="middle" x="1329.76" y="-609.56" font-family="Times,serif" font-size="14.00">schema:url</text>
</g>
<!-- http://w3id.org/oseg/ont/okh#fileUrl&#45;&gt;http://schema.org/url -->
<g id="edge48" class="edge">
<title>http://w3id.org/oseg/ont/okh#fileUrl&#45;&gt;http://schema.org/url</title>
<path fill="none" stroke="black" d="M953.08,-690.08C975.24,-684.99 999.02,-675.8 1015.67,-659.26 1034.82,-640.24 1011.94,-617.27 1033.67,-601.26 1069.22,-575.07 1190.55,-589.56 1266.11,-601.84"/>
<polygon fill="black" stroke="black" points="1265.56,-605.3 1276,-603.48 1266.7,-598.4 1265.56,-605.3"/>
<text text-anchor="middle" x="1113.67" y="-605.06" font-family="Times,serif" font-size="14.00">subPropertyOf</text>
</g>
<!-- http://w3id.org/oseg/ont/okh#alternativeLicense -->
<g id="node29" class="node">
<title>http://w3id.org/oseg/ont/okh#alternativeLicense</title>
<ellipse fill="none" stroke="#e377c2" cx="892.63" cy="-1144.26" rx="107.46" ry="16.03"/>
<text text-anchor="middle" x="892.63" y="-1140.56" font-family="Times,serif" font-size="14.00">okh:alternativeLi...</text>
</g>
<!-- http://w3id.org/oseg/ont/okh#alternativeLicense&#45;&gt;http://www.w3.org/2002/07/owl#ObjectProperty -->
<g id="edge31" class="edge">
<title>http://w3id.org/oseg/ont/okh#alternativeLicense&#45;&gt;http://www.w3.org/2002/07/owl#ObjectProperty</title>
<path fill="none" stroke="black" d="M984.91,-1135.79C996.72,-1130.99 1007.52,-1124.09 1015.67,-1114.26 1062.13,-1058.24 983.86,-840.32 1033.67,-787.26 1033.67,-787.26 1147.09,-773.81 1233.3,-763.59"/>
<polygon fill="black" stroke="black" points="1233.89,-767.04 1243.4,-762.39 1233.06,-760.09 1233.89,-767.04"/>
<text text-anchor="middle" x="1113.67" y="-791.06" font-family="Times,serif" font-size="14.00">a</text>
</g>
<!-- http://w3id.org/oseg/ont/okh#alternativeLicense&#45;&gt;http://www.w3.org/2004/02/skos/core#Concept -->
<g id="edge56" class="edge">
<title>http://w3id.org/oseg/ont/okh#alternativeLicense&#45;&gt;http://www.w3.org/2004/02/skos/core#Concept</title>
<path fill="none" stroke="black" d="M982.03,-1135.17C994.6,-1130.5 1006.39,-1123.8 1015.67,-1114.26 1041.99,-1087.21 1004.33,-1055.01 1033.67,-1031.26 1066.21,-1004.93 1177.44,-1011.81 1253.65,-1020.23"/>
<polygon fill="black" stroke="black" points="1253.36,-1023.72 1263.69,-1021.37 1254.15,-1016.76 1253.36,-1023.72"/>
<text text-anchor="middle" x="1113.67" y="-1035.06" font-family="Times,serif" font-size="14.00">a</text>
</g>
<!-- http://w3id.org/oseg/ont/okh#alternativeLicense&#45;&gt;http://w3id.org/oseg/ont/okh#File -->
<g id="edge28" class="edge">
<title>http://w3id.org/oseg/ont/okh#alternativeLicense&#45;&gt;http://w3id.org/oseg/ont/okh#File</title>
<path fill="none" stroke="black" d="M984.24,-1135.6C996.22,-1130.83 1007.24,-1123.99 1015.67,-1114.26 1042.56,-1083.2 1005.28,-959.96 1033.67,-930.26 1058.49,-904.3 1158.24,-913.22 1193.67,-907.26 1220.79,-902.71 1250.84,-896.99 1275.7,-892.08"/>
<polygon fill="black" stroke="black" points="1276.53,-895.48 1285.65,-890.1 1275.16,-888.62 1276.53,-895.48"/>
<text text-anchor="middle" x="1113.67" y="-934.06" font-family="Times,serif" font-size="14.00">dcam:rangeIncludes</text>
</g>
<!-- http://w3id.org/oseg/ont/okh#alternativeLicense&#45;&gt;http://w3id.org/oseg/ont/okhmetaLegalTag -->
<g id="edge20" class="edge">
<title>http://w3id.org/oseg/ont/okh#alternativeLicense&#45;&gt;http://w3id.org/oseg/ont/okhmetaLegalTag</title>
<path fill="none" stroke="black" d="M926.82,-1159.81C954.72,-1172.21 995.97,-1188.98 1033.67,-1198.26 1069.52,-1207.09 1157.61,-1216.68 1228.26,-1223.42"/>
<polygon fill="black" stroke="black" points="1228.27,-1226.94 1238.55,-1224.39 1228.93,-1219.97 1228.27,-1226.94"/>
<text text-anchor="middle" x="1113.67" y="-1223.06" font-family="Times,serif" font-size="14.00">okhmeta:hasMetaTag</text>
</g>
<!-- http://w3id.org/oseg/ont/okh#alternativeLicense&#45;&gt;http://w3id.org/oseg/ont/okh#license -->
<g id="edge32" class="edge">
<title>http://w3id.org/oseg/ont/okh#alternativeLicense&#45;&gt;http://w3id.org/oseg/ont/okh#license</title>
<path fill="none" stroke="black" d="M922.51,-1160.02C949.32,-1175.76 988.98,-1202.08 1015.67,-1233.26 1027.04,-1246.55 1019.49,-1258.02 1033.67,-1268.26 1092.02,-1310.4 1122.59,-1281.92 1193.67,-1293.26 1216.36,-1296.88 1241.18,-1300.91 1263.28,-1304.51"/>
<polygon fill="black" stroke="black" points="1262.8,-1307.98 1273.23,-1306.14 1263.93,-1301.07 1262.8,-1307.98"/>
<text text-anchor="middle" x="1113.67" y="-1297.06" font-family="Times,serif" font-size="14.00">schema:supersededBy</text>
</g>
<!-- http://w3id.org/oseg/ont/okh#alternativeLicense&#45;&gt;http://schema.org/license -->
<g id="edge26" class="edge">
<title>http://w3id.org/oseg/ont/okh#alternativeLicense&#45;&gt;http://schema.org/license</title>
<path fill="none" stroke="black" d="M927.62,-1159.74C955.92,-1174.48 994.83,-1199.44 1015.67,-1233.26 1041.42,-1275.07 998.62,-1307.87 1033.67,-1342.26 1041.24,-1349.69 1159.98,-1365.22 1244.5,-1375.44"/>
<polygon fill="black" stroke="black" points="1244.28,-1378.94 1254.63,-1376.66 1245.12,-1371.99 1244.28,-1378.94"/>
<text text-anchor="middle" x="1113.67" y="-1371.06" font-family="Times,serif" font-size="14.00">skos:closeMatch</text>
</g>
<!-- http://w3id.org/oseg/ont/okh#alternativeLicense&#45;&gt;http://w3id.org/oseg/ont/okh#Module -->
<g id="edge53" class="edge">
<title>http://w3id.org/oseg/ont/okh#alternativeLicense&#45;&gt;http://w3id.org/oseg/ont/okh#Module</title>
<path fill="none" stroke="black" d="M998.57,-1141.49C1056.22,-1140.75 1128.95,-1141.1 1193.67,-1145.26 1215.46,-1146.67 1239.11,-1149.27 1260.44,-1152.02"/>
<polygon fill="black" stroke="black" points="1260.02,-1155.5 1270.39,-1153.34 1260.94,-1148.56 1260.02,-1155.5"/>
<text text-anchor="middle" x="1113.67" y="-1149.06" font-family="Times,serif" font-size="14.00">dcam:domainIncludes</text>
</g>
<!-- http://w3id.org/oseg/ont/okh#permaURL -->
<g id="node31" class="node">
<title>http://w3id.org/oseg/ont/okh#permaURL</title>
<ellipse fill="none" stroke="#e377c2" cx="892.63" cy="-752.26" rx="87.86" ry="16.03"/>
<text text-anchor="middle" x="892.63" y="-748.56" font-family="Times,serif" font-size="14.00">okh:permaURL</text>
</g>
<!-- http://w3id.org/oseg/ont/okh#permaURL&#45;&gt;http://www.w3.org/2002/07/owl#ObjectProperty -->
<g id="edge34" class="edge">
<title>http://w3id.org/oseg/ont/okh#permaURL&#45;&gt;http://www.w3.org/2002/07/owl#ObjectProperty</title>
<path fill="none" stroke="black" d="M980.38,-752.26C1046.09,-752.26 1137.12,-752.26 1209.65,-752.26"/>
<polygon fill="black" stroke="black" points="1209.76,-755.76 1219.76,-752.26 1209.76,-748.76 1209.76,-755.76"/>
<text text-anchor="middle" x="1113.67" y="-756.06" font-family="Times,serif" font-size="14.00">a</text>
</g>
<!-- http://w3id.org/oseg/ont/okh#permaURL&#45;&gt;http://w3id.org/oseg/ont/okh#File -->
<g id="edge5" class="edge">
<title>http://w3id.org/oseg/ont/okh#permaURL&#45;&gt;http://w3id.org/oseg/ont/okh#File</title>
<path fill="none" stroke="black" d="M976.46,-757.18C990.93,-761.37 1004.81,-768 1015.67,-778.26 1037.76,-799.15 1010.7,-824.34 1033.67,-844.26 1038.11,-848.11 1185.54,-865.21 1270.29,-874.76"/>
<polygon fill="black" stroke="black" points="1269.97,-878.24 1280.3,-875.88 1270.75,-871.29 1269.97,-878.24"/>
<text text-anchor="middle" x="1113.67" y="-869.06" font-family="Times,serif" font-size="14.00">dcam:domainIncludes</text>
</g>
<!-- http://w3id.org/oseg/ont/okh#relatedTsdc -->
<g id="node33" class="node">
<title>http://w3id.org/oseg/ont/okh#relatedTsdc</title>
<ellipse fill="none" stroke="#e377c2" cx="892.63" cy="-492.26" rx="91.85" ry="16.03"/>
<text text-anchor="middle" x="892.63" y="-488.56" font-family="Times,serif" font-size="14.00">okh:relatedTsdc</text>
</g>
<!-- http://w3id.org/oseg/ont/okh#relatedTsdc&#45;&gt;http://www.w3.org/2002/07/owl#ObjectProperty -->
<g id="edge39" class="edge">
<title>http://w3id.org/oseg/ont/okh#relatedTsdc&#45;&gt;http://www.w3.org/2002/07/owl#ObjectProperty</title>
<path fill="none" stroke="black" d="M950.12,-505C973.46,-512.95 998.91,-525.55 1015.67,-545.26 1036.76,-570.06 1010.41,-593.49 1033.67,-616.26 1085.82,-667.33 1138.78,-605.16 1193.67,-653.26 1210.8,-668.28 1195.98,-684.74 1211.67,-701.26 1225.77,-716.12 1244.95,-726.9 1263.69,-734.6"/>
<polygon fill="black" stroke="black" points="1262.54,-737.91 1273.13,-738.25 1265.07,-731.38 1262.54,-737.91"/>
<text text-anchor="middle" x="1113.67" y="-657.06" font-family="Times,serif" font-size="14.00">a</text>
</g>
<!-- http://w3id.org/oseg/ont/okh#relatedTsdc&#45;&gt;http://w3id.org/oseg/ont/okh#tsdc -->
<g id="edge14" class="edge">
<title>http://w3id.org/oseg/ont/okh#relatedTsdc&#45;&gt;http://w3id.org/oseg/ont/okh#tsdc</title>
<path fill="none" stroke="black" d="M975.47,-485.12C1060.12,-477.72 1190.4,-466.35 1266.85,-459.67"/>
<polygon fill="black" stroke="black" points="1267.61,-463.12 1277.27,-458.76 1267,-456.14 1267.61,-463.12"/>
<text text-anchor="middle" x="1113.67" y="-484.06" font-family="Times,serif" font-size="14.00">schema:supersededBy</text>
</g>
<!-- http://w3id.org/oseg/ont/okh#relatedTsdc&#45;&gt;http://w3id.org/oseg/ont/okh#tsdc -->
<g id="edge27" class="edge">
<title>http://w3id.org/oseg/ont/okh#relatedTsdc&#45;&gt;http://w3id.org/oseg/ont/okh#tsdc</title>
<path fill="none" stroke="black" d="M969.29,-483.21C985.22,-479.39 1001.49,-473.97 1015.67,-466.26 1025.61,-460.86 1023.22,-452.59 1033.67,-448.26 1099.37,-421.05 1122.57,-446.69 1193.67,-448.26 1217.18,-448.79 1242.97,-449.82 1265.66,-450.88"/>
<polygon fill="black" stroke="black" points="1265.69,-454.39 1275.84,-451.37 1266.02,-447.39 1265.69,-454.39"/>
<text text-anchor="middle" x="1113.67" y="-452.06" font-family="Times,serif" font-size="14.00">owl:sameAs</text>
</g>
<!-- http://w3id.org/oseg/ont/okh#okhvPresent -->
<g id="node36" class="node">
<title>http://w3id.org/oseg/ont/okh#okhvPresent</title>
<ellipse fill="none" stroke="#e377c2" cx="466.82" cy="-54.26" rx="96.33" ry="16.03"/>
<text text-anchor="middle" x="466.82" y="-50.56" font-family="Times,serif" font-size="14.00">okh:okhvPresent</text>
</g>
<!-- http://w3id.org/oseg/ont/okh#okhvPresent&#45;&gt;http://www.w3.org/2002/07/owl#DatatypeProperty -->
<g id="edge44" class="edge">
<title>http://w3id.org/oseg/ont/okh#okhvPresent&#45;&gt;http://www.w3.org/2002/07/owl#DatatypeProperty</title>
<path fill="none" stroke="black" d="M520.89,-67.83C540.55,-75.56 561.08,-87.4 573.6,-105.26 596.41,-137.82 563.73,-254.91 591.6,-283.26 641.79,-334.34 699.63,-252.99 751.6,-302.26 785.64,-334.54 738.26,-371.35 769.6,-406.26 776.92,-414.43 786.01,-420.74 795.9,-425.61"/>
<polygon fill="black" stroke="black" points="794.62,-428.87 805.18,-429.69 797.44,-422.46 794.62,-428.87"/>
<text text-anchor="middle" x="671.6" y="-306.06" font-family="Times,serif" font-size="14.00">a</text>
</g>
<!-- http://w3id.org/oseg/ont/okh#okhvPresent&#45;&gt;http://w3id.org/oseg/ont/okh#okhvOrig -->
<g id="edge25" class="edge">
<title>http://w3id.org/oseg/ont/okh#okhvPresent&#45;&gt;http://w3id.org/oseg/ont/okh#okhvOrig</title>
<path fill="none" stroke="black" d="M531.23,-42.11C550.55,-38.78 571.89,-35.49 591.6,-33.26 662.78,-25.23 743.92,-20.93 803.85,-18.66"/>
<polygon fill="black" stroke="black" points="804.17,-22.15 814.04,-18.29 803.92,-15.15 804.17,-22.15"/>
<text text-anchor="middle" x="671.6" y="-37.06" font-family="Times,serif" font-size="14.00">seeAlso</text>
</g>
<!-- http://w3id.org/oseg/ont/okh#okhvPresent&#45;&gt;http://w3id.org/oseg/ont/okh#okhv -->
<g id="edge54" class="edge">
<title>http://w3id.org/oseg/ont/okh#okhvPresent&#45;&gt;http://w3id.org/oseg/ont/okh#okhv</title>
<path fill="none" stroke="black" d="M561.87,-51.67C617.17,-50.87 688.42,-51.11 751.6,-55.26 778.36,-57.02 807.83,-60.57 832.8,-64.05"/>
<polygon fill="black" stroke="black" points="832.45,-67.54 842.85,-65.48 833.44,-60.61 832.45,-67.54"/>
<text text-anchor="middle" x="671.6" y="-59.06" font-family="Times,serif" font-size="14.00">subPropertyOf</text>
</g>
<!-- http://w3id.org/oseg/ont/okh#value -->
<g id="node39" class="node">
<title>http://w3id.org/oseg/ont/okh#value</title>
<ellipse fill="none" stroke="#e377c2" cx="466.82" cy="-672.26" rx="60.21" ry="16.03"/>
<text text-anchor="middle" x="466.82" y="-668.56" font-family="Times,serif" font-size="14.00">okh:value</text>
</g>
<!-- http://w3id.org/oseg/ont/okh#value&#45;&gt;http://w3id.org/oseg/ont/okh#Mass -->
<g id="edge45" class="edge">
<title>http://w3id.org/oseg/ont/okh#value&#45;&gt;http://w3id.org/oseg/ont/okh#Mass</title>
<path fill="none" stroke="black" d="M525.49,-668.41C582.86,-664.43 673.39,-657.76 751.6,-650.26 776.64,-647.86 804.15,-644.81 828.11,-642.02"/>
<polygon fill="black" stroke="black" points="828.63,-645.48 838.15,-640.84 827.81,-638.53 828.63,-645.48"/>
<text text-anchor="middle" x="671.6" y="-666.06" font-family="Times,serif" font-size="14.00">dcam:domainIncludes</text>
</g>
<!-- http://w3id.org/oseg/ont/okh#value&#45;&gt;http://www.w3.org/2002/07/owl#DatatypeProperty -->
<g id="edge49" class="edge">
<title>http://w3id.org/oseg/ont/okh#value&#45;&gt;http://www.w3.org/2002/07/owl#DatatypeProperty</title>
<path fill="none" stroke="black" d="M511.84,-661.38C533.69,-653.73 558.55,-641.2 573.6,-621.26 601.85,-583.82 557.55,-549.54 591.6,-517.26 643.56,-467.99 691.75,-537.6 751.6,-498.26 764.91,-489.51 756.7,-476.62 769.6,-467.26 775.95,-462.66 782.94,-458.84 790.27,-455.67"/>
<polygon fill="black" stroke="black" points="791.67,-458.88 799.72,-451.99 789.13,-452.36 791.67,-458.88"/>
<text text-anchor="middle" x="671.6" y="-521.06" font-family="Times,serif" font-size="14.00">a</text>
</g>
<!-- http://w3id.org/oseg/ont/okh#hasMass -->
<g id="node40" class="node">
<title>http://w3id.org/oseg/ont/okh#hasMass</title>
<ellipse fill="none" stroke="#e377c2" cx="892.63" cy="-803.26" rx="77.15" ry="16.03"/>
<text text-anchor="middle" x="892.63" y="-799.56" font-family="Times,serif" font-size="14.00">okh:hasMass</text>
</g>
<!-- http://w3id.org/oseg/ont/okh#value&#45;&gt;http://w3id.org/oseg/ont/okh#hasMass -->
<g id="edge51" class="edge">
<title>http://w3id.org/oseg/ont/okh#value&#45;&gt;http://w3id.org/oseg/ont/okh#hasMass</title>
<path fill="none" stroke="black" d="M501.77,-685.64C557.17,-707.12 670.76,-749.66 769.6,-777.26 787.2,-782.18 806.46,-786.68 824.36,-790.5"/>
<polygon fill="black" stroke="black" points="823.65,-793.93 834.15,-792.56 825.08,-787.08 823.65,-793.93"/>
<text text-anchor="middle" x="671.6" y="-773.06" font-family="Times,serif" font-size="14.00">schema:supersededBy</text>
</g>
</g>
</svg>
