<?xml version="1.0" encoding="UTF-8" standalone="no"?>
<!DOCTYPE svg PUBLIC "-//W3C//DTD SVG 1.1//EN"
 "http://www.w3.org/Graphics/SVG/1.1/DTD/svg11.dtd">
<!-- Generated by graphviz version 2.43.0 (0)
 -->
<!-- Title: G Pages: 1 -->
<svg width="629pt" height="1216pt"
 viewBox="0.00 0.00 628.51 1216.26" xmlns="http://www.w3.org/2000/svg" xmlns:xlink="http://www.w3.org/1999/xlink">
<g id="graph0" class="graph" transform="scale(1 1) rotate(0) translate(4 1212.26)">
<title>G</title>
<polygon fill="white" stroke="transparent" points="-4,4 -4,-1212.26 624.51,-1212.26 624.51,4 -4,4"/>
<!-- http://www.w3.org/2002/07/owl#Ontology -->
<g id="node1" class="node">
<title>http://www.w3.org/2002/07/owl#Ontology</title>
<ellipse fill="none" stroke="#1f77b4" cx="497.47" cy="-397.26" rx="77.56" ry="16.03"/>
<text text-anchor="middle" x="497.47" y="-393.56" font-family="Times,serif" font-size="14.00">owl:Ontology</text>
</g>
<!-- http://www.w3.org/2002/07/owl#DatatypeProperty -->
<g id="node2" class="node">
<title>http://www.w3.org/2002/07/owl#DatatypeProperty</title>
<ellipse fill="none" stroke="#1f77b4" cx="497.47" cy="-1165.26" rx="123.07" ry="16.03"/>
<text text-anchor="middle" x="497.47" y="-1161.56" font-family="Times,serif" font-size="14.00">owl:DatatypeProperty</text>
</g>
<!-- http://w3id.org/oseg/ont/otrl#OTRL -->
<g id="node3" class="node">
<title>http://w3id.org/oseg/ont/otrl#OTRL</title>
<ellipse fill="none" stroke="#e377c2" cx="497.47" cy="-849.26" rx="60.62" ry="16.03"/>
<text text-anchor="middle" x="497.47" y="-845.56" font-family="Times,serif" font-size="14.00">otrl:OTRL</text>
</g>
<!-- http://w3id.org/oseg/ont/otrl#ODRL -->
<g id="node4" class="node">
<title>http://w3id.org/oseg/ont/otrl#ODRL</title>
<ellipse fill="none" stroke="#e377c2" cx="497.47" cy="-588.26" rx="62.87" ry="16.03"/>
<text text-anchor="middle" x="497.47" y="-584.56" font-family="Times,serif" font-size="14.00">otrl:ODRL</text>
</g>
<!-- http://spdx.org/rdf/terms#SpdxItem -->
<g id="node5" class="node">
<title>http://spdx.org/rdf/terms#SpdxItem</title>
<ellipse fill="none" stroke="#1f77b4" cx="497.47" cy="-346.26" rx="87.86" ry="16.03"/>
<text text-anchor="middle" x="497.47" y="-342.56" font-family="Times,serif" font-size="14.00">spdx:SpdxItem</text>
</g>
<!-- http://w3id.org/oseg/ont/otrl#ODRL3 -->
<g id="node6" class="node">
<title>http://w3id.org/oseg/ont/otrl#ODRL3</title>
<ellipse fill="none" stroke="#e377c2" cx="91.22" cy="-486.26" rx="69.09" ry="16.03"/>
<text text-anchor="middle" x="91.22" y="-482.56" font-family="Times,serif" font-size="14.00">otrl:ODRL3</text>
</g>
<!-- http://w3id.org/oseg/ont/otrl#ODRL3&#45;&gt;http://w3id.org/oseg/ont/otrl#ODRL -->
<g id="edge1" class="edge">
<title>http://w3id.org/oseg/ont/otrl#ODRL3&#45;&gt;http://w3id.org/oseg/ont/otrl#ODRL</title>
<path fill="none" stroke="black" d="M153.89,-493.31C207.97,-500.35 288.35,-512.95 356.43,-532.26 391.25,-542.14 429.29,-557.67 456.92,-569.88"/>
<polygon fill="black" stroke="black" points="455.68,-573.16 466.24,-574.04 458.54,-566.77 455.68,-573.16"/>
<text text-anchor="middle" x="278.43" y="-536.06" font-family="Times,serif" font-size="14.00">a</text>
</g>
<!-- http://w3id.org/oseg/ont/oseg&#45;profiles#robinVobruba -->
<g id="node7" class="node">
<title>http://w3id.org/oseg/ont/oseg&#45;profiles#robinVobruba</title>
<ellipse fill="none" stroke="#e377c2" cx="497.47" cy="-289.26" rx="113.69" ry="16.03"/>
<text text-anchor="middle" x="497.47" y="-285.56" font-family="Times,serif" font-size="14.00">osegprof:robinVob...</text>
</g>
<!-- http://w3id.org/oseg/ont/otrl#OTRL6 -->
<g id="node8" class="node">
<title>http://w3id.org/oseg/ont/otrl#OTRL6</title>
<ellipse fill="none" stroke="#e377c2" cx="91.22" cy="-1058.26" rx="67.35" ry="16.03"/>
<text text-anchor="middle" x="91.22" y="-1054.56" font-family="Times,serif" font-size="14.00">otrl:OTRL6</text>
</g>
<!-- http://w3id.org/oseg/ont/otrl#OTRL6&#45;&gt;http://w3id.org/oseg/ont/otrl#OTRL -->
<g id="edge3" class="edge">
<title>http://w3id.org/oseg/ont/otrl#OTRL6&#45;&gt;http://w3id.org/oseg/ont/otrl#OTRL</title>
<path fill="none" stroke="black" d="M158.07,-1056.09C230.95,-1053.16 340.32,-1047.04 356.43,-1036.26 370.97,-1026.54 364.91,-1015.94 374.43,-1001.26 405.76,-953 449.3,-901.8 475.02,-872.85"/>
<polygon fill="black" stroke="black" points="477.72,-875.09 481.77,-865.3 472.5,-870.42 477.72,-875.09"/>
<text text-anchor="middle" x="278.43" y="-1057.06" font-family="Times,serif" font-size="14.00">a</text>
</g>
<!-- http://w3id.org/oseg/ont/otrl#ODRL3Star -->
<g id="node9" class="node">
<title>http://w3id.org/oseg/ont/otrl#ODRL3Star</title>
<ellipse fill="none" stroke="#e377c2" cx="91.22" cy="-435.26" rx="90.52" ry="16.03"/>
<text text-anchor="middle" x="91.22" y="-431.56" font-family="Times,serif" font-size="14.00">otrl:ODRL3Star</text>
</g>
<!-- http://w3id.org/oseg/ont/otrl#ODRL3Star&#45;&gt;http://w3id.org/oseg/ont/otrl#ODRL -->
<g id="edge18" class="edge">
<title>http://w3id.org/oseg/ont/otrl#ODRL3Star&#45;&gt;http://w3id.org/oseg/ont/otrl#ODRL</title>
<path fill="none" stroke="black" d="M178.2,-439.82C231.38,-445.13 300.02,-456.58 356.43,-481.26 402.67,-501.49 447.46,-540.07 473.47,-564.96"/>
<polygon fill="black" stroke="black" points="471.31,-567.74 480.92,-572.21 476.19,-562.72 471.31,-567.74"/>
<text text-anchor="middle" x="278.43" y="-485.06" font-family="Times,serif" font-size="14.00">a</text>
</g>
<!-- http://w3id.org/oseg/ont/otrl -->
<g id="node10" class="node">
<title>http://w3id.org/oseg/ont/otrl</title>
<ellipse fill="none" stroke="#e377c2" cx="91.22" cy="-213.26" rx="50.82" ry="16.03"/>
<text text-anchor="middle" x="91.22" y="-209.56" font-family="Times,serif" font-size="14.00">ns1:otrl</text>
</g>
<!-- http://w3id.org/oseg/ont/otrl&#45;&gt;http://www.w3.org/2002/07/owl#Ontology -->
<g id="edge19" class="edge">
<title>http://w3id.org/oseg/ont/otrl&#45;&gt;http://www.w3.org/2002/07/owl#Ontology</title>
<path fill="none" stroke="black" d="M97.55,-229.5C109.65,-263.46 142.73,-341.61 200.43,-375.26 269.17,-415.36 362.68,-415.09 426.08,-408.56"/>
<polygon fill="black" stroke="black" points="426.83,-412 436.38,-407.42 426.05,-405.04 426.83,-412"/>
<text text-anchor="middle" x="278.43" y="-416.06" font-family="Times,serif" font-size="14.00">a</text>
</g>
<!-- http://w3id.org/oseg/ont/otrl&#45;&gt;http://spdx.org/rdf/terms#SpdxItem -->
<g id="edge9" class="edge">
<title>http://w3id.org/oseg/ont/otrl&#45;&gt;http://spdx.org/rdf/terms#SpdxItem</title>
<path fill="none" stroke="black" d="M102.16,-229.29C118.89,-254.63 155.3,-303.23 200.43,-324.26 267.03,-355.3 351.26,-358.59 412.83,-355.42"/>
<polygon fill="black" stroke="black" points="413.12,-358.9 422.9,-354.83 412.71,-351.92 413.12,-358.9"/>
<text text-anchor="middle" x="278.43" y="-360.06" font-family="Times,serif" font-size="14.00">a</text>
</g>
<!-- http://w3id.org/oseg/ont/otrl&#45;&gt;http://w3id.org/oseg/ont/oseg&#45;profiles#robinVobruba -->
<g id="edge2" class="edge">
<title>http://w3id.org/oseg/ont/otrl&#45;&gt;http://w3id.org/oseg/ont/oseg&#45;profiles#robinVobruba</title>
<path fill="none" stroke="black" d="M108.55,-228.88C128.42,-246.71 163.86,-274.88 200.43,-286.26 267.12,-307.02 346.42,-306.59 406.16,-301.61"/>
<polygon fill="black" stroke="black" points="406.67,-305.08 416.32,-300.71 406.05,-298.11 406.67,-305.08"/>
<text text-anchor="middle" x="278.43" y="-309.06" font-family="Times,serif" font-size="14.00">schema:creator</text>
</g>
<!-- http://w3id.org/oseg/ont/otrl&#45;&gt;http://w3id.org/oseg/ont/oseg&#45;profiles#robinVobruba -->
<g id="edge22" class="edge">
<title>http://w3id.org/oseg/ont/otrl&#45;&gt;http://w3id.org/oseg/ont/oseg&#45;profiles#robinVobruba</title>
<path fill="none" stroke="black" d="M130.08,-223.98C150.76,-229.59 176.88,-236.32 200.43,-241.26 220.71,-245.52 330.24,-263.04 410.19,-275.69"/>
<polygon fill="black" stroke="black" points="409.85,-279.18 420.27,-277.28 410.94,-272.26 409.85,-279.18"/>
<text text-anchor="middle" x="278.43" y="-271.06" font-family="Times,serif" font-size="14.00">dcterms:creator</text>
</g>
<!-- http://w3id.org/oseg/ont/oseg&#45;profiles#martinHaeuer -->
<g id="node14" class="node">
<title>http://w3id.org/oseg/ont/oseg&#45;profiles#martinHaeuer</title>
<ellipse fill="none" stroke="#e377c2" cx="497.47" cy="-226.26" rx="116.85" ry="16.03"/>
<text text-anchor="middle" x="497.47" y="-222.56" font-family="Times,serif" font-size="14.00">osegprof:martinHa...</text>
</g>
<!-- http://w3id.org/oseg/ont/otrl&#45;&gt;http://w3id.org/oseg/ont/oseg&#45;profiles#martinHaeuer -->
<g id="edge5" class="edge">
<title>http://w3id.org/oseg/ont/otrl&#45;&gt;http://w3id.org/oseg/ont/oseg&#45;profiles#martinHaeuer</title>
<path fill="none" stroke="black" d="M142.19,-214.87C199.51,-216.71 295.56,-219.8 373.21,-222.3"/>
<polygon fill="black" stroke="black" points="373.44,-225.81 383.55,-222.63 373.67,-218.81 373.44,-225.81"/>
<text text-anchor="middle" x="278.43" y="-226.06" font-family="Times,serif" font-size="14.00">schema:creator</text>
</g>
<!-- http://w3id.org/oseg/ont/otrl&#45;&gt;http://w3id.org/oseg/ont/oseg&#45;profiles#martinHaeuer -->
<g id="edge24" class="edge">
<title>http://w3id.org/oseg/ont/otrl&#45;&gt;http://w3id.org/oseg/ont/oseg&#45;profiles#martinHaeuer</title>
<path fill="none" stroke="black" d="M136.56,-205.71C156.09,-202.75 179.34,-199.72 200.43,-198.26 269.6,-193.49 287.44,-191.43 356.43,-198.26 380.29,-200.63 406.1,-205.2 428.99,-209.97"/>
<polygon fill="black" stroke="black" points="428.43,-213.43 438.94,-212.1 429.9,-206.59 428.43,-213.43"/>
<text text-anchor="middle" x="278.43" y="-202.06" font-family="Times,serif" font-size="14.00">dcterms:creator</text>
</g>
<!-- http://w3id.org/oseg/ont/oseg&#45;profiles#Iopa -->
<g id="node16" class="node">
<title>http://w3id.org/oseg/ont/oseg&#45;profiles#Iopa</title>
<ellipse fill="none" stroke="#e377c2" cx="497.47" cy="-169.26" rx="80.72" ry="16.03"/>
<text text-anchor="middle" x="497.47" y="-165.56" font-family="Times,serif" font-size="14.00">osegprof:Iopa</text>
</g>
<!-- http://w3id.org/oseg/ont/otrl&#45;&gt;http://w3id.org/oseg/ont/oseg&#45;profiles#Iopa -->
<g id="edge7" class="edge">
<title>http://w3id.org/oseg/ont/otrl&#45;&gt;http://w3id.org/oseg/ont/oseg&#45;profiles#Iopa</title>
<path fill="none" stroke="black" d="M121.84,-199.98C143.21,-191.13 173,-180.23 200.43,-175.26 270.37,-162.61 351.11,-161.87 410.58,-163.87"/>
<polygon fill="black" stroke="black" points="410.56,-167.38 420.68,-164.25 410.82,-160.38 410.56,-167.38"/>
<text text-anchor="middle" x="278.43" y="-179.06" font-family="Times,serif" font-size="14.00">dcterms:publisher</text>
</g>
<!-- http://spdx.org/licenses/GPL&#45;3.0&#45;or&#45;later -->
<g id="node20" class="node">
<title>http://spdx.org/licenses/GPL&#45;3.0&#45;or&#45;later</title>
<ellipse fill="none" stroke="#e377c2" cx="497.47" cy="-118.26" rx="108.79" ry="16.03"/>
<text text-anchor="middle" x="497.47" y="-114.56" font-family="Times,serif" font-size="14.00">spdxl:GPL&#45;3.0&#45;or&#45;...</text>
</g>
<!-- http://w3id.org/oseg/ont/otrl&#45;&gt;http://spdx.org/licenses/GPL&#45;3.0&#45;or&#45;later -->
<g id="edge25" class="edge">
<title>http://w3id.org/oseg/ont/otrl&#45;&gt;http://spdx.org/licenses/GPL&#45;3.0&#45;or&#45;later</title>
<path fill="none" stroke="black" d="M109.95,-198.09C130.31,-181.64 165.41,-156.17 200.43,-144.26 257.57,-124.84 324.3,-117.74 379.92,-115.76"/>
<polygon fill="black" stroke="black" points="380.29,-119.25 390.18,-115.44 380.07,-112.25 380.29,-119.25"/>
<text text-anchor="middle" x="278.43" y="-148.06" font-family="Times,serif" font-size="14.00">spdx:licenseDeclared</text>
</g>
<!-- http://w3id.org/oseg/ont/1.1.0/otrl -->
<g id="node21" class="node">
<title>http://w3id.org/oseg/ont/1.1.0/otrl</title>
<ellipse fill="none" stroke="#e377c2" cx="497.47" cy="-67.26" rx="50.82" ry="16.03"/>
<text text-anchor="middle" x="497.47" y="-63.56" font-family="Times,serif" font-size="14.00">ns2:otrl</text>
</g>
<!-- http://w3id.org/oseg/ont/otrl&#45;&gt;http://w3id.org/oseg/ont/1.1.0/otrl -->
<g id="edge26" class="edge">
<title>http://w3id.org/oseg/ont/otrl&#45;&gt;http://w3id.org/oseg/ont/1.1.0/otrl</title>
<path fill="none" stroke="black" d="M101.82,-197.25C118.32,-171.35 154.74,-120.9 200.43,-98.26 276.42,-60.61 376.65,-58.49 438.8,-61.82"/>
<polygon fill="black" stroke="black" points="438.63,-65.32 448.82,-62.43 439.05,-58.33 438.63,-65.32"/>
<text text-anchor="middle" x="278.43" y="-102.06" font-family="Times,serif" font-size="14.00">owl:versionIRI</text>
</g>
<!-- http://id.loc.gov/vocabulary/iso639&#45;1/en -->
<g id="node25" class="node">
<title>http://id.loc.gov/vocabulary/iso639&#45;1/en</title>
<ellipse fill="none" stroke="#e377c2" cx="497.47" cy="-16.26" rx="45.01" ry="16.03"/>
<text text-anchor="middle" x="497.47" y="-12.56" font-family="Times,serif" font-size="14.00">ns3:en</text>
</g>
<!-- http://w3id.org/oseg/ont/otrl&#45;&gt;http://id.loc.gov/vocabulary/iso639&#45;1/en -->
<g id="edge28" class="edge">
<title>http://w3id.org/oseg/ont/otrl&#45;&gt;http://id.loc.gov/vocabulary/iso639&#45;1/en</title>
<path fill="none" stroke="black" d="M97.17,-196.86C108.73,-161.71 141.13,-79.41 200.43,-43.26 276.2,2.92 383.72,-0.75 446.17,-8.14"/>
<polygon fill="black" stroke="black" points="445.81,-11.63 456.17,-9.41 446.69,-4.68 445.81,-11.63"/>
<text text-anchor="middle" x="278.43" y="-47.06" font-family="Times,serif" font-size="14.00">dcterms:language</text>
</g>
<!-- http://w3id.org/oseg/ont/otrl#OTRL3 -->
<g id="node11" class="node">
<title>http://w3id.org/oseg/ont/otrl#OTRL3</title>
<ellipse fill="none" stroke="#e377c2" cx="91.22" cy="-792.26" rx="67.35" ry="16.03"/>
<text text-anchor="middle" x="91.22" y="-788.56" font-family="Times,serif" font-size="14.00">otrl:OTRL3</text>
</g>
<!-- http://w3id.org/oseg/ont/otrl#OTRL3&#45;&gt;http://w3id.org/oseg/ont/otrl#OTRL -->
<g id="edge20" class="edge">
<title>http://w3id.org/oseg/ont/otrl#OTRL3&#45;&gt;http://w3id.org/oseg/ont/otrl#OTRL</title>
<path fill="none" stroke="black" d="M158.64,-792.62C212.35,-793.84 289.74,-797.73 356.43,-809.26 388.28,-814.77 423.23,-824.75 450.25,-833.36"/>
<polygon fill="black" stroke="black" points="449.23,-836.71 459.82,-836.46 451.39,-830.05 449.23,-836.71"/>
<text text-anchor="middle" x="278.43" y="-813.06" font-family="Times,serif" font-size="14.00">a</text>
</g>
<!-- http://w3id.org/oseg/ont/otrl#ODRL4 -->
<g id="node12" class="node">
<title>http://w3id.org/oseg/ont/otrl#ODRL4</title>
<ellipse fill="none" stroke="#e377c2" cx="91.22" cy="-639.26" rx="69.09" ry="16.03"/>
<text text-anchor="middle" x="91.22" y="-635.56" font-family="Times,serif" font-size="14.00">otrl:ODRL4</text>
</g>
<!-- http://w3id.org/oseg/ont/otrl#ODRL4&#45;&gt;http://w3id.org/oseg/ont/otrl#ODRL -->
<g id="edge4" class="edge">
<title>http://w3id.org/oseg/ont/otrl#ODRL4&#45;&gt;http://w3id.org/oseg/ont/otrl#ODRL</title>
<path fill="none" stroke="black" d="M153.64,-632.08C207.21,-625.75 287,-616.18 356.43,-607.26 381.03,-604.11 408.03,-600.48 431.7,-597.25"/>
<polygon fill="black" stroke="black" points="432.19,-600.71 441.63,-595.89 431.24,-593.78 432.19,-600.71"/>
<text text-anchor="middle" x="278.43" y="-630.06" font-family="Times,serif" font-size="14.00">a</text>
</g>
<!-- http://w3id.org/oseg/ont/otrl#OTRL4 -->
<g id="node13" class="node">
<title>http://w3id.org/oseg/ont/otrl#OTRL4</title>
<ellipse fill="none" stroke="#e377c2" cx="91.22" cy="-741.26" rx="67.35" ry="16.03"/>
<text text-anchor="middle" x="91.22" y="-737.56" font-family="Times,serif" font-size="14.00">otrl:OTRL4</text>
</g>
<!-- http://w3id.org/oseg/ont/otrl#OTRL4&#45;&gt;http://w3id.org/oseg/ont/otrl#OTRL -->
<g id="edge21" class="edge">
<title>http://w3id.org/oseg/ont/otrl#OTRL4&#45;&gt;http://w3id.org/oseg/ont/otrl#OTRL</title>
<path fill="none" stroke="black" d="M157.93,-743.62C212.24,-747.07 290.8,-755.52 356.43,-776.26 395.89,-788.73 437.5,-811.88 465.01,-828.77"/>
<polygon fill="black" stroke="black" points="463.44,-831.91 473.77,-834.24 467.14,-825.98 463.44,-831.91"/>
<text text-anchor="middle" x="278.43" y="-780.06" font-family="Times,serif" font-size="14.00">a</text>
</g>
<!-- http://w3id.org/oseg/ont/otrl#ODRL2 -->
<g id="node15" class="node">
<title>http://w3id.org/oseg/ont/otrl#ODRL2</title>
<ellipse fill="none" stroke="#e377c2" cx="91.22" cy="-588.26" rx="69.09" ry="16.03"/>
<text text-anchor="middle" x="91.22" y="-584.56" font-family="Times,serif" font-size="14.00">otrl:ODRL2</text>
</g>
<!-- http://w3id.org/oseg/ont/otrl#ODRL2&#45;&gt;http://w3id.org/oseg/ont/otrl#ODRL -->
<g id="edge6" class="edge">
<title>http://w3id.org/oseg/ont/otrl#ODRL2&#45;&gt;http://w3id.org/oseg/ont/otrl#ODRL</title>
<path fill="none" stroke="black" d="M160.79,-588.26C234.05,-588.26 349.67,-588.26 424.28,-588.26"/>
<polygon fill="black" stroke="black" points="424.53,-591.76 434.53,-588.26 424.53,-584.76 424.53,-591.76"/>
<text text-anchor="middle" x="278.43" y="-592.06" font-family="Times,serif" font-size="14.00">a</text>
</g>
<!-- http://w3id.org/oseg/ont/otrl#OTRL2 -->
<g id="node17" class="node">
<title>http://w3id.org/oseg/ont/otrl#OTRL2</title>
<ellipse fill="none" stroke="#e377c2" cx="91.22" cy="-843.26" rx="67.35" ry="16.03"/>
<text text-anchor="middle" x="91.22" y="-839.56" font-family="Times,serif" font-size="14.00">otrl:OTRL2</text>
</g>
<!-- http://w3id.org/oseg/ont/otrl#OTRL2&#45;&gt;http://w3id.org/oseg/ont/otrl#OTRL -->
<g id="edge8" class="edge">
<title>http://w3id.org/oseg/ont/otrl#OTRL2&#45;&gt;http://w3id.org/oseg/ont/otrl#OTRL</title>
<path fill="none" stroke="black" d="M150.53,-835.6C166.66,-833.81 184.2,-832.16 200.43,-831.26 269.66,-827.44 287.24,-826.83 356.43,-831.26 382.12,-832.91 410.29,-836.23 434.59,-839.58"/>
<polygon fill="black" stroke="black" points="434.36,-843.08 444.75,-841.01 435.34,-836.15 434.36,-843.08"/>
<text text-anchor="middle" x="278.43" y="-835.06" font-family="Times,serif" font-size="14.00">a</text>
</g>
<!-- http://w3id.org/oseg/ont/otrl#goal -->
<g id="node18" class="node">
<title>http://w3id.org/oseg/ont/otrl#goal</title>
<ellipse fill="none" stroke="#e377c2" cx="91.22" cy="-1153.26" rx="54.39" ry="16.03"/>
<text text-anchor="middle" x="91.22" y="-1149.56" font-family="Times,serif" font-size="14.00">otrl:goal</text>
</g>
<!-- http://w3id.org/oseg/ont/otrl#goal&#45;&gt;http://www.w3.org/2002/07/owl#DatatypeProperty -->
<g id="edge11" class="edge">
<title>http://w3id.org/oseg/ont/otrl#goal&#45;&gt;http://www.w3.org/2002/07/owl#DatatypeProperty</title>
<path fill="none" stroke="black" d="M123.77,-1166.37C145.02,-1174.46 173.91,-1184.08 200.43,-1188.26 275.04,-1200.03 361.23,-1190.79 421.29,-1180.74"/>
<polygon fill="black" stroke="black" points="422.19,-1184.14 431.45,-1178.99 421,-1177.24 422.19,-1184.14"/>
<text text-anchor="middle" x="278.43" y="-1197.06" font-family="Times,serif" font-size="14.00">a</text>
</g>
<!-- http://w3id.org/oseg/ont/otrl#goal&#45;&gt;http://w3id.org/oseg/ont/otrl#OTRL -->
<g id="edge10" class="edge">
<title>http://w3id.org/oseg/ont/otrl#goal&#45;&gt;http://w3id.org/oseg/ont/otrl#OTRL</title>
<path fill="none" stroke="black" d="M135.25,-1143.7C155.04,-1139.51 178.86,-1134.76 200.43,-1131.26 234.91,-1125.67 331.26,-1136.46 356.43,-1112.26 392.47,-1077.63 354.12,-1046.93 374.43,-1001.26 397.57,-949.26 442.98,-899.98 471.41,-872.29"/>
<polygon fill="black" stroke="black" points="474.15,-874.52 478.95,-865.07 469.31,-869.46 474.15,-874.52"/>
<text text-anchor="middle" x="278.43" y="-1135.06" font-family="Times,serif" font-size="14.00">dcam:domainIncludes</text>
</g>
<!-- http://w3id.org/oseg/ont/otrl#goal&#45;&gt;http://w3id.org/oseg/ont/otrl#ODRL -->
<g id="edge12" class="edge">
<title>http://w3id.org/oseg/ont/otrl#goal&#45;&gt;http://w3id.org/oseg/ont/otrl#ODRL</title>
<path fill="none" stroke="black" d="M113.49,-1138.31C134.54,-1124.29 168.22,-1103.94 200.43,-1093.26 233.64,-1082.26 332.47,-1097.74 356.43,-1072.26 375.36,-1052.14 366.94,-850.85 374.43,-824.26 397.76,-741.54 451.78,-654.22 479.46,-612.81"/>
<polygon fill="black" stroke="black" points="482.4,-614.7 485.1,-604.46 476.6,-610.78 482.4,-614.7"/>
<text text-anchor="middle" x="278.43" y="-1097.06" font-family="Times,serif" font-size="14.00">dcam:domainIncludes</text>
</g>
<!-- http://www.w3.org/1999/02/22&#45;rdf&#45;syntax&#45;ns#langString -->
<g id="node19" class="node">
<title>http://www.w3.org/1999/02/22&#45;rdf&#45;syntax&#45;ns#langString</title>
<ellipse fill="none" stroke="#e377c2" cx="497.47" cy="-1026.26" rx="83.38" ry="16.03"/>
<text text-anchor="middle" x="497.47" y="-1022.56" font-family="Times,serif" font-size="14.00">rdf:langString</text>
</g>
<!-- http://w3id.org/oseg/ont/otrl#goal&#45;&gt;http://www.w3.org/1999/02/22&#45;rdf&#45;syntax&#45;ns#langString -->
<g id="edge23" class="edge">
<title>http://w3id.org/oseg/ont/otrl#goal&#45;&gt;http://www.w3.org/1999/02/22&#45;rdf&#45;syntax&#45;ns#langString</title>
<path fill="none" stroke="black" d="M144.43,-1156.94C210.2,-1160.84 319.14,-1164.64 356.43,-1150.26 383.64,-1139.77 441.6,-1082.97 473.77,-1050"/>
<polygon fill="black" stroke="black" points="476.53,-1052.18 480.98,-1042.57 471.5,-1047.31 476.53,-1052.18"/>
<text text-anchor="middle" x="278.43" y="-1164.06" font-family="Times,serif" font-size="14.00">range</text>
</g>
<!-- http://w3id.org/oseg/ont/otrl#OTRL5 -->
<g id="node22" class="node">
<title>http://w3id.org/oseg/ont/otrl#OTRL5</title>
<ellipse fill="none" stroke="#e377c2" cx="91.22" cy="-894.26" rx="67.35" ry="16.03"/>
<text text-anchor="middle" x="91.22" y="-890.56" font-family="Times,serif" font-size="14.00">otrl:OTRL5</text>
</g>
<!-- http://w3id.org/oseg/ont/otrl#OTRL5&#45;&gt;http://w3id.org/oseg/ont/otrl#OTRL -->
<g id="edge13" class="edge">
<title>http://w3id.org/oseg/ont/otrl#OTRL5&#45;&gt;http://w3id.org/oseg/ont/otrl#OTRL</title>
<path fill="none" stroke="black" d="M136.93,-882.25C156.31,-877.47 179.36,-872.39 200.43,-869.26 277.26,-857.87 366.28,-852.96 426.48,-850.85"/>
<polygon fill="black" stroke="black" points="426.76,-854.34 436.63,-850.51 426.52,-847.34 426.76,-854.34"/>
<text text-anchor="middle" x="278.43" y="-873.06" font-family="Times,serif" font-size="14.00">a</text>
</g>
<!-- http://w3id.org/oseg/ont/otrl#exitCriteria -->
<g id="node23" class="node">
<title>http://w3id.org/oseg/ont/otrl#exitCriteria</title>
<ellipse fill="none" stroke="#e377c2" cx="91.22" cy="-964.26" rx="91.43" ry="16.03"/>
<text text-anchor="middle" x="91.22" y="-960.56" font-family="Times,serif" font-size="14.00">otrl:exitCriteria</text>
</g>
<!-- http://w3id.org/oseg/ont/otrl#exitCriteria&#45;&gt;http://www.w3.org/2002/07/owl#DatatypeProperty -->
<g id="edge14" class="edge">
<title>http://w3id.org/oseg/ont/otrl#exitCriteria&#45;&gt;http://www.w3.org/2002/07/owl#DatatypeProperty</title>
<path fill="none" stroke="black" d="M133.16,-978.81C153.23,-985.5 177.88,-993.09 200.43,-998.26 268.74,-1013.93 298.14,-982.37 356.43,-1021.26 369.37,-1029.89 364.66,-1039.17 374.43,-1051.26 402.73,-1086.25 441.57,-1120.72 467.77,-1142.43"/>
<polygon fill="black" stroke="black" points="465.85,-1145.39 475.8,-1149.02 470.29,-1139.97 465.85,-1145.39"/>
<text text-anchor="middle" x="278.43" y="-1025.06" font-family="Times,serif" font-size="14.00">a</text>
</g>
<!-- http://w3id.org/oseg/ont/otrl#exitCriteria&#45;&gt;http://w3id.org/oseg/ont/otrl#OTRL -->
<g id="edge15" class="edge">
<title>http://w3id.org/oseg/ont/otrl#exitCriteria&#45;&gt;http://w3id.org/oseg/ont/otrl#OTRL</title>
<path fill="none" stroke="black" d="M160.16,-953.6C237.66,-941.41 354.08,-923.04 356.43,-922.26 395.49,-909.36 436.87,-886.51 464.43,-869.8"/>
<polygon fill="black" stroke="black" points="466.54,-872.61 473.23,-864.39 462.87,-866.65 466.54,-872.61"/>
<text text-anchor="middle" x="278.43" y="-949.06" font-family="Times,serif" font-size="14.00">dcam:domainIncludes</text>
</g>
<!-- http://w3id.org/oseg/ont/otrl#exitCriteria&#45;&gt;http://w3id.org/oseg/ont/otrl#ODRL -->
<g id="edge17" class="edge">
<title>http://w3id.org/oseg/ont/otrl#exitCriteria&#45;&gt;http://w3id.org/oseg/ont/otrl#ODRL</title>
<path fill="none" stroke="black" d="M127.69,-949.22C144.82,-941.3 165.33,-930.83 182.43,-919.26 191.3,-913.27 190.68,-907.67 200.43,-903.26 264.1,-874.53 303.02,-929.27 356.43,-884.26 377.72,-866.32 363.99,-850.07 374.43,-824.26 406.75,-744.36 456.91,-655.36 481.65,-613.12"/>
<polygon fill="black" stroke="black" points="484.75,-614.75 486.81,-604.36 478.72,-611.2 484.75,-614.75"/>
<text text-anchor="middle" x="278.43" y="-907.06" font-family="Times,serif" font-size="14.00">dcam:domainIncludes</text>
</g>
<!-- http://w3id.org/oseg/ont/otrl#exitCriteria&#45;&gt;http://www.w3.org/1999/02/22&#45;rdf&#45;syntax&#45;ns#langString -->
<g id="edge27" class="edge">
<title>http://w3id.org/oseg/ont/otrl#exitCriteria&#45;&gt;http://www.w3.org/1999/02/22&#45;rdf&#45;syntax&#45;ns#langString</title>
<path fill="none" stroke="black" d="M182.14,-965.7C233.55,-967.77 299.02,-972.53 356.43,-983.26 387.72,-989.11 421.87,-999.52 448.62,-1008.63"/>
<polygon fill="black" stroke="black" points="447.53,-1011.95 458.12,-1011.91 449.82,-1005.34 447.53,-1011.95"/>
<text text-anchor="middle" x="278.43" y="-987.06" font-family="Times,serif" font-size="14.00">range</text>
</g>
<!-- http://w3id.org/oseg/ont/otrl#ODRL1 -->
<g id="node24" class="node">
<title>http://w3id.org/oseg/ont/otrl#ODRL1</title>
<ellipse fill="none" stroke="#e377c2" cx="91.22" cy="-537.26" rx="69.09" ry="16.03"/>
<text text-anchor="middle" x="91.22" y="-533.56" font-family="Times,serif" font-size="14.00">otrl:ODRL1</text>
</g>
<!-- http://w3id.org/oseg/ont/otrl#ODRL1&#45;&gt;http://w3id.org/oseg/ont/otrl#ODRL -->
<g id="edge16" class="edge">
<title>http://w3id.org/oseg/ont/otrl#ODRL1&#45;&gt;http://w3id.org/oseg/ont/otrl#ODRL</title>
<path fill="none" stroke="black" d="M153.64,-544.45C207.21,-550.78 287,-560.35 356.43,-569.26 381.03,-572.42 408.03,-576.05 431.7,-579.28"/>
<polygon fill="black" stroke="black" points="431.24,-582.75 441.63,-580.64 432.19,-575.81 431.24,-582.75"/>
<text text-anchor="middle" x="278.43" y="-573.06" font-family="Times,serif" font-size="14.00">a</text>
</g>
<!-- http://w3id.org/oseg/ont/otrl#OTRL1 -->
<g id="node26" class="node">
<title>http://w3id.org/oseg/ont/otrl#OTRL1</title>
<ellipse fill="none" stroke="#e377c2" cx="91.22" cy="-690.26" rx="67.35" ry="16.03"/>
<text text-anchor="middle" x="91.22" y="-686.56" font-family="Times,serif" font-size="14.00">otrl:OTRL1</text>
</g>
<!-- http://w3id.org/oseg/ont/otrl#OTRL1&#45;&gt;http://w3id.org/oseg/ont/otrl#OTRL -->
<g id="edge29" class="edge">
<title>http://w3id.org/oseg/ont/otrl#OTRL1&#45;&gt;http://w3id.org/oseg/ont/otrl#OTRL</title>
<path fill="none" stroke="black" d="M158.34,-689.59C213.61,-691.37 293.29,-699.48 356.43,-728.26 406.19,-750.95 451.69,-796.95 476.59,-825.24"/>
<polygon fill="black" stroke="black" points="474.16,-827.78 483.35,-833.06 479.46,-823.21 474.16,-827.78"/>
<text text-anchor="middle" x="278.43" y="-732.06" font-family="Times,serif" font-size="14.00">a</text>
</g>
</g>
</svg>
