<?xml version="1.0" encoding="UTF-8" standalone="no"?>
<!DOCTYPE svg PUBLIC "-//W3C//DTD SVG 1.1//EN"
 "http://www.w3.org/Graphics/SVG/1.1/DTD/svg11.dtd">
<!-- Generated by graphviz version 2.43.0 (0)
 -->
<!-- Title: G Pages: 1 -->
<svg width="1749pt" height="1740pt"
 viewBox="0.00 0.00 1749.48 1740.26" xmlns="http://www.w3.org/2000/svg" xmlns:xlink="http://www.w3.org/1999/xlink">
<g id="graph0" class="graph" transform="scale(1 1) rotate(0) translate(4 1736.26)">
<title>G</title>
<polygon fill="white" stroke="transparent" points="-4,4 -4,-1736.26 1745.48,-1736.26 1745.48,4 -4,4"/>
<!-- http://spdx.org/rdf/terms#SpdxItem -->
<g id="node1" class="node">
<title>http://spdx.org/rdf/terms#SpdxItem</title>
<ellipse fill="none" stroke="#1f77b4" cx="441.85" cy="-1702.26" rx="87.86" ry="16.03"/>
<text text-anchor="middle" x="441.85" y="-1698.56" font-family="Times,serif" font-size="14.00">spdx:SpdxItem</text>
</g>
<!-- http://w3id.org/oseg/ont/ods#Dataset -->
<g id="node2" class="node">
<title>http://w3id.org/oseg/ont/ods#Dataset</title>
<ellipse fill="none" stroke="#1f77b4" cx="441.85" cy="-1651.26" rx="71.34" ry="16.03"/>
<text text-anchor="middle" x="441.85" y="-1647.56" font-family="Times,serif" font-size="14.00">ods:Dataset</text>
</g>
<!-- http://schema.org/DefinedTerm -->
<g id="node3" class="node">
<title>http://schema.org/DefinedTerm</title>
<ellipse fill="none" stroke="#1f77b4" cx="1623.39" cy="-755.26" rx="118.17" ry="16.03"/>
<text text-anchor="middle" x="1623.39" y="-751.56" font-family="Times,serif" font-size="14.00">schema:DefinedTerm</text>
</g>
<!-- http://schema.org/DefinedTermSet -->
<g id="node4" class="node">
<title>http://schema.org/DefinedTermSet</title>
<ellipse fill="none" stroke="#1f77b4" cx="884.08" cy="-1404.26" rx="116.85" ry="16.03"/>
<text text-anchor="middle" x="884.08" y="-1400.56" font-family="Times,serif" font-size="14.00">schema:DefinedTer...</text>
</g>
<!-- http://w3id.org/oseg/ont/okhimg#tagDiagram -->
<g id="node5" class="node">
<title>http://w3id.org/oseg/ont/okhimg#tagDiagram</title>
<ellipse fill="none" stroke="#e377c2" cx="1333.03" cy="-1340.26" rx="111.95" ry="16.03"/>
<text text-anchor="middle" x="1333.03" y="-1336.56" font-family="Times,serif" font-size="14.00">okhimg:tagDiagram</text>
</g>
<!-- http://w3id.org/oseg/ont/okhimg#tagDiagram&#45;&gt;http://schema.org/DefinedTerm -->
<g id="edge1" class="edge">
<title>http://w3id.org/oseg/ont/okhimg#tagDiagram&#45;&gt;http://schema.org/DefinedTerm</title>
<path fill="none" stroke="black" d="M1422.39,-1330.49C1435.71,-1326.67 1448.82,-1321.44 1460.3,-1314.26 1476.97,-1303.85 1478.68,-1296.91 1487.3,-1279.26 1574.2,-1101.52 1609.54,-861.61 1619.35,-782.09"/>
<polygon fill="black" stroke="black" points="1622.85,-782.31 1620.57,-771.96 1615.9,-781.47 1622.85,-782.31"/>
<text text-anchor="middle" x="1482.8" y="-1301.06" font-family="Times,serif" font-size="14.00">a</text>
</g>
<!-- http://w3id.org/oseg/ont/okhimg -->
<g id="node6" class="node">
<title>http://w3id.org/oseg/ont/okhimg</title>
<ellipse fill="none" stroke="#e377c2" cx="70" cy="-1517.26" rx="70.01" ry="16.03"/>
<text text-anchor="middle" x="70" y="-1513.56" font-family="Times,serif" font-size="14.00">ns1:okhimg</text>
</g>
<!-- http://w3id.org/oseg/ont/okhimg&#45;&gt;http://spdx.org/rdf/terms#SpdxItem -->
<g id="edge2" class="edge">
<title>http://w3id.org/oseg/ont/okhimg&#45;&gt;http://spdx.org/rdf/terms#SpdxItem</title>
<path fill="none" stroke="black" d="M74.31,-1533.74C82.11,-1567.8 105.12,-1645.68 158.01,-1680.26 220.29,-1720.99 307.58,-1721.3 368.66,-1714.73"/>
<polygon fill="black" stroke="black" points="369.08,-1718.2 378.61,-1713.57 368.27,-1711.25 369.08,-1718.2"/>
<text text-anchor="middle" x="234.01" y="-1721.06" font-family="Times,serif" font-size="14.00">a</text>
</g>
<!-- http://w3id.org/oseg/ont/okhimg&#45;&gt;http://w3id.org/oseg/ont/ods#Dataset -->
<g id="edge6" class="edge">
<title>http://w3id.org/oseg/ont/okhimg&#45;&gt;http://w3id.org/oseg/ont/ods#Dataset</title>
<path fill="none" stroke="black" d="M78.31,-1533.76C90.62,-1559.32 118.12,-1607.78 158.01,-1629.26 223.9,-1664.75 311.23,-1665.86 371.32,-1660.9"/>
<polygon fill="black" stroke="black" points="371.83,-1664.37 381.47,-1659.98 371.2,-1657.4 371.83,-1664.37"/>
<text text-anchor="middle" x="234.01" y="-1666.06" font-family="Times,serif" font-size="14.00">a</text>
</g>
<!-- http://w3id.org/oseg/ont/oseg&#45;profiles#robinVobruba -->
<g id="node7" class="node">
<title>http://w3id.org/oseg/ont/oseg&#45;profiles#robinVobruba</title>
<ellipse fill="none" stroke="#e377c2" cx="441.85" cy="-1600.26" rx="113.69" ry="16.03"/>
<text text-anchor="middle" x="441.85" y="-1596.56" font-family="Times,serif" font-size="14.00">osegprof:robinVob...</text>
</g>
<!-- http://w3id.org/oseg/ont/okhimg&#45;&gt;http://w3id.org/oseg/ont/oseg&#45;profiles#robinVobruba -->
<g id="edge3" class="edge">
<title>http://w3id.org/oseg/ont/okhimg&#45;&gt;http://w3id.org/oseg/ont/oseg&#45;profiles#robinVobruba</title>
<path fill="none" stroke="black" d="M84.09,-1533.32C99.61,-1550.99 127.27,-1578.46 158.01,-1590.26 218.15,-1613.37 290.89,-1615.42 347.54,-1611.94"/>
<polygon fill="black" stroke="black" points="347.83,-1615.43 357.57,-1611.25 347.35,-1608.44 347.83,-1615.43"/>
<text text-anchor="middle" x="234.01" y="-1617.06" font-family="Times,serif" font-size="14.00">schema:creator</text>
</g>
<!-- http://w3id.org/oseg/ont/okhimg&#45;&gt;http://w3id.org/oseg/ont/oseg&#45;profiles#robinVobruba -->
<g id="edge17" class="edge">
<title>http://w3id.org/oseg/ont/okhimg&#45;&gt;http://w3id.org/oseg/ont/oseg&#45;profiles#robinVobruba</title>
<path fill="none" stroke="black" d="M101.76,-1531.9C118.12,-1539.1 138.78,-1547.28 158.01,-1552.26 223.91,-1569.33 242.92,-1559.66 310.01,-1571.26 330.7,-1574.84 353.06,-1579.5 373.34,-1584.03"/>
<polygon fill="black" stroke="black" points="372.59,-1587.45 383.11,-1586.24 374.13,-1580.62 372.59,-1587.45"/>
<text text-anchor="middle" x="234.01" y="-1575.06" font-family="Times,serif" font-size="14.00">dcterms:creator</text>
</g>
<!-- http://w3id.org/oseg/ont/oseg&#45;profiles#Iopa -->
<g id="node20" class="node">
<title>http://w3id.org/oseg/ont/oseg&#45;profiles#Iopa</title>
<ellipse fill="none" stroke="#e377c2" cx="441.85" cy="-1549.26" rx="80.72" ry="16.03"/>
<text text-anchor="middle" x="441.85" y="-1545.56" font-family="Times,serif" font-size="14.00">osegprof:Iopa</text>
</g>
<!-- http://w3id.org/oseg/ont/okhimg&#45;&gt;http://w3id.org/oseg/ont/oseg&#45;profiles#Iopa -->
<g id="edge19" class="edge">
<title>http://w3id.org/oseg/ont/okhimg&#45;&gt;http://w3id.org/oseg/ont/oseg&#45;profiles#Iopa</title>
<path fill="none" stroke="black" d="M136.19,-1522.58C184.25,-1526.53 251.21,-1532.11 310.01,-1537.26 325.48,-1538.62 341.98,-1540.1 357.86,-1541.55"/>
<polygon fill="black" stroke="black" points="357.91,-1545.07 368.19,-1542.5 358.55,-1538.1 357.91,-1545.07"/>
<text text-anchor="middle" x="234.01" y="-1541.06" font-family="Times,serif" font-size="14.00">dcterms:publisher</text>
</g>
<!-- http://w3id.org/oseg/ont/okhimg#slots -->
<g id="node22" class="node">
<title>http://w3id.org/oseg/ont/okhimg#slots</title>
<ellipse fill="none" stroke="#e377c2" cx="441.85" cy="-1498.26" rx="75.82" ry="16.03"/>
<text text-anchor="middle" x="441.85" y="-1494.56" font-family="Times,serif" font-size="14.00">okhimg:slots</text>
</g>
<!-- http://w3id.org/oseg/ont/okhimg&#45;&gt;http://w3id.org/oseg/ont/okhimg#slots -->
<g id="edge25" class="edge">
<title>http://w3id.org/oseg/ont/okhimg&#45;&gt;http://w3id.org/oseg/ont/okhimg#slots</title>
<path fill="none" stroke="black" d="M119.06,-1505.53C131.65,-1502.95 145.27,-1500.59 158.01,-1499.26 224.91,-1492.3 301.19,-1492.5 357.66,-1494.19"/>
<polygon fill="black" stroke="black" points="357.86,-1497.7 367.97,-1494.52 358.09,-1490.7 357.86,-1497.7"/>
<text text-anchor="middle" x="234.01" y="-1503.06" font-family="Times,serif" font-size="14.00">void:rootResource</text>
</g>
<!-- http://w3id.org/oseg/ont/0.1.0/okhimg -->
<g id="node26" class="node">
<title>http://w3id.org/oseg/ont/0.1.0/okhimg</title>
<ellipse fill="none" stroke="#e377c2" cx="441.85" cy="-1447.26" rx="70.01" ry="16.03"/>
<text text-anchor="middle" x="441.85" y="-1443.56" font-family="Times,serif" font-size="14.00">ns2:okhimg</text>
</g>
<!-- http://w3id.org/oseg/ont/okhimg&#45;&gt;http://w3id.org/oseg/ont/0.1.0/okhimg -->
<g id="edge27" class="edge">
<title>http://w3id.org/oseg/ont/okhimg&#45;&gt;http://w3id.org/oseg/ont/0.1.0/okhimg</title>
<path fill="none" stroke="black" d="M95.11,-1501.95C112.03,-1492 135.56,-1479.72 158.01,-1473.26 224.96,-1454.02 304.15,-1448.09 361.68,-1446.65"/>
<polygon fill="black" stroke="black" points="361.88,-1450.15 371.8,-1446.44 361.73,-1443.15 361.88,-1450.15"/>
<text text-anchor="middle" x="234.01" y="-1477.06" font-family="Times,serif" font-size="14.00">owl:versionIRI</text>
</g>
<!-- http://spdx.org/licenses/AGPL&#45;3.0&#45;or&#45;later -->
<g id="node29" class="node">
<title>http://spdx.org/licenses/AGPL&#45;3.0&#45;or&#45;later</title>
<ellipse fill="none" stroke="#e377c2" cx="441.85" cy="-1396.26" rx="111.95" ry="16.03"/>
<text text-anchor="middle" x="441.85" y="-1392.56" font-family="Times,serif" font-size="14.00">spdxl:AGPL&#45;3.0&#45;or...</text>
</g>
<!-- http://w3id.org/oseg/ont/okhimg&#45;&gt;http://spdx.org/licenses/AGPL&#45;3.0&#45;or&#45;later -->
<g id="edge31" class="edge">
<title>http://w3id.org/oseg/ont/okhimg&#45;&gt;http://spdx.org/licenses/AGPL&#45;3.0&#45;or&#45;later</title>
<path fill="none" stroke="black" d="M81.72,-1501C96.29,-1480.41 124.41,-1445.65 158.01,-1429.26 208.73,-1404.53 270.45,-1395.3 323.28,-1392.65"/>
<polygon fill="black" stroke="black" points="323.54,-1396.15 333.38,-1392.22 323.24,-1389.15 323.54,-1396.15"/>
<text text-anchor="middle" x="234.01" y="-1433.06" font-family="Times,serif" font-size="14.00">spdx:licenseDeclared</text>
</g>
<!-- http://id.loc.gov/vocabulary/iso639&#45;1/en -->
<g id="node39" class="node">
<title>http://id.loc.gov/vocabulary/iso639&#45;1/en</title>
<ellipse fill="none" stroke="#e377c2" cx="441.85" cy="-1345.26" rx="45.01" ry="16.03"/>
<text text-anchor="middle" x="441.85" y="-1341.56" font-family="Times,serif" font-size="14.00">ns3:en</text>
</g>
<!-- http://w3id.org/oseg/ont/okhimg&#45;&gt;http://id.loc.gov/vocabulary/iso639&#45;1/en -->
<g id="edge44" class="edge">
<title>http://w3id.org/oseg/ont/okhimg&#45;&gt;http://id.loc.gov/vocabulary/iso639&#45;1/en</title>
<path fill="none" stroke="black" d="M75.6,-1500.99C85.21,-1470.28 110.58,-1404.21 158.01,-1374.26 228.83,-1329.55 330.03,-1331.37 390.22,-1337.68"/>
<polygon fill="black" stroke="black" points="389.92,-1341.17 400.25,-1338.81 390.7,-1334.21 389.92,-1341.17"/>
<text text-anchor="middle" x="234.01" y="-1378.06" font-family="Times,serif" font-size="14.00">dcterms:language</text>
</g>
<!-- http://w3id.org/oseg/ont/okhimg#tags -->
<g id="node42" class="node">
<title>http://w3id.org/oseg/ont/okhimg#tags</title>
<ellipse fill="none" stroke="#e377c2" cx="441.85" cy="-1294.26" rx="73.58" ry="16.03"/>
<text text-anchor="middle" x="441.85" y="-1290.56" font-family="Times,serif" font-size="14.00">okhimg:tags</text>
</g>
<!-- http://w3id.org/oseg/ont/okhimg&#45;&gt;http://w3id.org/oseg/ont/okhimg#tags -->
<g id="edge20" class="edge">
<title>http://w3id.org/oseg/ont/okhimg&#45;&gt;http://w3id.org/oseg/ont/okhimg#tags</title>
<path fill="none" stroke="black" d="M72.57,-1500.75C77.29,-1461.22 95.18,-1361.11 158.01,-1316.26 221.8,-1270.72 315.58,-1273.3 377.42,-1281.77"/>
<polygon fill="black" stroke="black" points="377.04,-1285.25 387.44,-1283.23 378.05,-1278.33 377.04,-1285.25"/>
<text text-anchor="middle" x="234.01" y="-1320.06" font-family="Times,serif" font-size="14.00">void:rootResource</text>
</g>
<!-- http://w3id.org/oseg/ont/okhimg#tagScreenshot -->
<g id="node8" class="node">
<title>http://w3id.org/oseg/ont/okhimg#tagScreenshot</title>
<ellipse fill="none" stroke="#e377c2" cx="1333.03" cy="-1289.26" rx="125.32" ry="16.03"/>
<text text-anchor="middle" x="1333.03" y="-1285.56" font-family="Times,serif" font-size="14.00">okhimg:tagScreenshot</text>
</g>
<!-- http://w3id.org/oseg/ont/okhimg#tagScreenshot&#45;&gt;http://schema.org/DefinedTerm -->
<g id="edge4" class="edge">
<title>http://w3id.org/oseg/ont/okhimg#tagScreenshot&#45;&gt;http://schema.org/DefinedTerm</title>
<path fill="none" stroke="black" d="M1440.13,-1280.8C1457.58,-1275.24 1474.22,-1266.84 1487.3,-1254.26 1557.57,-1186.75 1605.83,-874.73 1618.86,-781.58"/>
<polygon fill="black" stroke="black" points="1622.34,-781.96 1620.24,-771.58 1615.4,-781.01 1622.34,-781.96"/>
<text text-anchor="middle" x="1482.8" y="-1264.06" font-family="Times,serif" font-size="14.00">a</text>
</g>
<!-- http://w3id.org/oseg/ont/okhimg#slotLogo -->
<g id="node9" class="node">
<title>http://w3id.org/oseg/ont/okhimg#slotLogo</title>
<ellipse fill="none" stroke="#e377c2" cx="884.08" cy="-1210.26" rx="94.51" ry="16.03"/>
<text text-anchor="middle" x="884.08" y="-1206.56" font-family="Times,serif" font-size="14.00">okhimg:slotLogo</text>
</g>
<!-- http://w3id.org/oseg/ont/okhimg#slotLogo&#45;&gt;http://schema.org/DefinedTerm -->
<g id="edge5" class="edge">
<title>http://w3id.org/oseg/ont/okhimg#slotLogo&#45;&gt;http://schema.org/DefinedTerm</title>
<path fill="none" stroke="black" d="M958.76,-1220.3C1094.91,-1237.3 1379.38,-1265.14 1460.3,-1213.26 1611.51,-1116.33 1623.32,-863.77 1623.01,-781.55"/>
<polygon fill="black" stroke="black" points="1626.51,-781.5 1622.91,-771.54 1619.51,-781.57 1626.51,-781.5"/>
<text text-anchor="middle" x="1333.03" y="-1247.06" font-family="Times,serif" font-size="14.00">a</text>
</g>
<!-- http://w3id.org/oseg/ont/okhimg#slotLogoBw -->
<g id="node14" class="node">
<title>http://w3id.org/oseg/ont/okhimg#slotLogoBw</title>
<ellipse fill="none" stroke="#e377c2" cx="1333.03" cy="-1188.26" rx="111.03" ry="16.03"/>
<text text-anchor="middle" x="1333.03" y="-1184.56" font-family="Times,serif" font-size="14.00">okhimg:slotLogoBw</text>
</g>
<!-- http://w3id.org/oseg/ont/okhimg#slotLogo&#45;&gt;http://w3id.org/oseg/ont/okhimg#slotLogoBw -->
<g id="edge26" class="edge">
<title>http://w3id.org/oseg/ont/okhimg#slotLogo&#45;&gt;http://w3id.org/oseg/ont/okhimg#slotLogoBw</title>
<path fill="none" stroke="black" d="M930.9,-1196.1C956.64,-1188.89 989.52,-1180.88 1019.45,-1177.26 1091.71,-1168.52 1173.99,-1171.95 1235.99,-1177.2"/>
<polygon fill="black" stroke="black" points="1235.88,-1180.7 1246.15,-1178.09 1236.49,-1173.73 1235.88,-1180.7"/>
<text text-anchor="middle" x="1103.6" y="-1181.06" font-family="Times,serif" font-size="14.00">seeAlso</text>
</g>
<!-- http://w3id.org/oseg/ont/okhimg#tagAssembly -->
<g id="node10" class="node">
<title>http://w3id.org/oseg/ont/okhimg#tagAssembly</title>
<ellipse fill="none" stroke="#e377c2" cx="1333.03" cy="-1137.26" rx="116.85" ry="16.03"/>
<text text-anchor="middle" x="1333.03" y="-1133.56" font-family="Times,serif" font-size="14.00">okhimg:tagAssembly</text>
</g>
<!-- http://w3id.org/oseg/ont/okhimg#tagAssembly&#45;&gt;http://schema.org/DefinedTerm -->
<g id="edge7" class="edge">
<title>http://w3id.org/oseg/ont/okhimg#tagAssembly&#45;&gt;http://schema.org/DefinedTerm</title>
<path fill="none" stroke="black" d="M1427.64,-1127.64C1439.33,-1123.74 1450.57,-1118.43 1460.3,-1111.26 1572.42,-1028.64 1608.93,-849.93 1619.01,-782.1"/>
<polygon fill="black" stroke="black" points="1622.53,-782.24 1620.46,-771.84 1615.6,-781.26 1622.53,-782.24"/>
<text text-anchor="middle" x="1482.8" y="-1095.06" font-family="Times,serif" font-size="14.00">a</text>
</g>
<!-- http://w3id.org/oseg/ont/okhimg#tagIcon -->
<g id="node11" class="node">
<title>http://w3id.org/oseg/ont/okhimg#tagIcon</title>
<ellipse fill="none" stroke="#e377c2" cx="1333.03" cy="-1086.26" rx="89.61" ry="16.03"/>
<text text-anchor="middle" x="1333.03" y="-1082.56" font-family="Times,serif" font-size="14.00">okhimg:tagIcon</text>
</g>
<!-- http://w3id.org/oseg/ont/okhimg#tagIcon&#45;&gt;http://schema.org/DefinedTerm -->
<g id="edge8" class="edge">
<title>http://w3id.org/oseg/ont/okhimg#tagIcon&#45;&gt;http://schema.org/DefinedTerm</title>
<path fill="none" stroke="black" d="M1415.65,-1079.82C1431.48,-1075.81 1447.2,-1069.65 1460.3,-1060.26 1558.49,-989.94 1602.51,-841.48 1616.82,-781.36"/>
<polygon fill="black" stroke="black" points="1620.25,-782.06 1619.08,-771.53 1613.43,-780.49 1620.25,-782.06"/>
<text text-anchor="middle" x="1482.8" y="-1047.06" font-family="Times,serif" font-size="14.00">a</text>
</g>
<!-- http://w3id.org/oseg/ont/okhimg#tagPhoto -->
<g id="node12" class="node">
<title>http://w3id.org/oseg/ont/okhimg#tagPhoto</title>
<ellipse fill="none" stroke="#e377c2" cx="1333.03" cy="-1035.26" rx="97.66" ry="16.03"/>
<text text-anchor="middle" x="1333.03" y="-1031.56" font-family="Times,serif" font-size="14.00">okhimg:tagPhoto</text>
</g>
<!-- http://w3id.org/oseg/ont/okhimg#tagPhoto&#45;&gt;http://schema.org/DefinedTerm -->
<g id="edge9" class="edge">
<title>http://w3id.org/oseg/ont/okhimg#tagPhoto&#45;&gt;http://schema.org/DefinedTerm</title>
<path fill="none" stroke="black" d="M1419.01,-1027.49C1433.63,-1023.51 1448.04,-1017.7 1460.3,-1009.26 1544.73,-951.14 1594.87,-833.2 1613.75,-781.05"/>
<polygon fill="black" stroke="black" points="1617.08,-782.13 1617.11,-771.54 1610.48,-779.8 1617.08,-782.13"/>
<text text-anchor="middle" x="1482.8" y="-999.06" font-family="Times,serif" font-size="14.00">a</text>
</g>
<!-- http://w3id.org/oseg/ont/okhimg#tagDrawing -->
<g id="node13" class="node">
<title>http://w3id.org/oseg/ont/okhimg#tagDrawing</title>
<ellipse fill="none" stroke="#e377c2" cx="1333.03" cy="-984.26" rx="111.95" ry="16.03"/>
<text text-anchor="middle" x="1333.03" y="-980.56" font-family="Times,serif" font-size="14.00">okhimg:tagDrawing</text>
</g>
<!-- http://w3id.org/oseg/ont/okhimg#tagDrawing&#45;&gt;http://schema.org/DefinedTerm -->
<g id="edge11" class="edge">
<title>http://w3id.org/oseg/ont/okhimg#tagDrawing&#45;&gt;http://schema.org/DefinedTerm</title>
<path fill="none" stroke="black" d="M1421.95,-974.41C1435.4,-970.61 1448.66,-965.4 1460.3,-958.26 1532.87,-913.77 1586.53,-824.55 1609.73,-780.73"/>
<polygon fill="black" stroke="black" points="1612.96,-782.1 1614.46,-771.61 1606.75,-778.87 1612.96,-782.1"/>
<text text-anchor="middle" x="1482.8" y="-947.06" font-family="Times,serif" font-size="14.00">a</text>
</g>
<!-- http://w3id.org/oseg/ont/okhimg#slotLogoBw&#45;&gt;http://schema.org/DefinedTerm -->
<g id="edge12" class="edge">
<title>http://w3id.org/oseg/ont/okhimg#slotLogoBw&#45;&gt;http://schema.org/DefinedTerm</title>
<path fill="none" stroke="black" d="M1426.19,-1179.4C1438.43,-1175.42 1450.22,-1169.89 1460.3,-1162.26 1586.96,-1066.48 1614.84,-856.22 1620.81,-781.92"/>
<polygon fill="black" stroke="black" points="1624.33,-781.81 1621.57,-771.58 1617.35,-781.3 1624.33,-781.81"/>
<text text-anchor="middle" x="1482.8" y="-1144.06" font-family="Times,serif" font-size="14.00">a</text>
</g>
<!-- http://w3id.org/oseg/ont/okhimg#slotLogoBw&#45;&gt;http://w3id.org/oseg/ont/okhimg#slotLogo -->
<g id="edge10" class="edge">
<title>http://w3id.org/oseg/ont/okhimg#slotLogoBw&#45;&gt;http://w3id.org/oseg/ont/okhimg#slotLogo</title>
<path fill="none" stroke="black" d="M1227.48,-1193.41C1154.4,-1197.01 1057.36,-1201.78 985.26,-1205.33"/>
<polygon fill="black" stroke="black" points="985.07,-1201.84 975.25,-1205.82 985.41,-1208.83 985.07,-1201.84"/>
<text text-anchor="middle" x="1103.6" y="-1207.06" font-family="Times,serif" font-size="14.00">seeAlso</text>
</g>
<!-- http://w3id.org/oseg/ont/okhimg#slotModelMain -->
<g id="node15" class="node">
<title>http://w3id.org/oseg/ont/okhimg#slotModelMain</title>
<ellipse fill="none" stroke="#e377c2" cx="1333.03" cy="-933.26" rx="127.06" ry="16.03"/>
<text text-anchor="middle" x="1333.03" y="-929.56" font-family="Times,serif" font-size="14.00">okhimg:slotModelMain</text>
</g>
<!-- http://w3id.org/oseg/ont/okhimg#slotModelMain&#45;&gt;http://schema.org/DefinedTerm -->
<g id="edge13" class="edge">
<title>http://w3id.org/oseg/ont/okhimg#slotModelMain&#45;&gt;http://schema.org/DefinedTerm</title>
<path fill="none" stroke="black" d="M1424.47,-921.84C1445.99,-916.67 1468.23,-909.17 1487.3,-898.26 1539.34,-868.53 1583.52,-812.35 1606.16,-779.97"/>
<polygon fill="black" stroke="black" points="1609.19,-781.73 1611.96,-771.51 1603.42,-777.78 1609.19,-781.73"/>
<text text-anchor="middle" x="1482.8" y="-906.06" font-family="Times,serif" font-size="14.00">a</text>
</g>
<!-- http://w3id.org/oseg/ont/okhimg#slotOrganizationLogoBw -->
<g id="node16" class="node">
<title>http://w3id.org/oseg/ont/okhimg#slotOrganizationLogoBw</title>
<ellipse fill="none" stroke="#e377c2" cx="884.08" cy="-854.26" rx="114.6" ry="16.03"/>
<text text-anchor="middle" x="884.08" y="-850.56" font-family="Times,serif" font-size="14.00">okhimg:slotOrgani...</text>
</g>
<!-- http://w3id.org/oseg/ont/okhimg#slotOrganizationLogoBw&#45;&gt;http://schema.org/DefinedTerm -->
<g id="edge46" class="edge">
<title>http://w3id.org/oseg/ont/okhimg#slotOrganizationLogoBw&#45;&gt;http://schema.org/DefinedTerm</title>
<path fill="none" stroke="black" d="M952.51,-867.32C1061.92,-885.72 1283.66,-911.39 1460.3,-857.26 1513.19,-841.06 1565.79,-802.84 1596.14,-778.06"/>
<polygon fill="black" stroke="black" points="1598.64,-780.54 1604.09,-771.46 1594.16,-775.16 1598.64,-780.54"/>
<text text-anchor="middle" x="1333.03" y="-894.06" font-family="Times,serif" font-size="14.00">a</text>
</g>
<!-- http://w3id.org/oseg/ont/okhimg#slotOrganizationLogo -->
<g id="node23" class="node">
<title>http://w3id.org/oseg/ont/okhimg#slotOrganizationLogo</title>
<ellipse fill="none" stroke="#e377c2" cx="1333.03" cy="-832.26" rx="114.6" ry="16.03"/>
<text text-anchor="middle" x="1333.03" y="-828.56" font-family="Times,serif" font-size="14.00">okhimg:slotOrgani...</text>
</g>
<!-- http://w3id.org/oseg/ont/okhimg#slotOrganizationLogoBw&#45;&gt;http://w3id.org/oseg/ont/okhimg#slotOrganizationLogo -->
<g id="edge23" class="edge">
<title>http://w3id.org/oseg/ont/okhimg#slotOrganizationLogoBw&#45;&gt;http://w3id.org/oseg/ont/okhimg#slotOrganizationLogo</title>
<path fill="none" stroke="black" d="M933.07,-839.5C958.48,-832.44 990.36,-824.78 1019.45,-821.26 1091.07,-812.6 1172.54,-815.89 1234.34,-821.06"/>
<polygon fill="black" stroke="black" points="1234.21,-824.56 1244.48,-821.94 1234.82,-817.59 1234.21,-824.56"/>
<text text-anchor="middle" x="1103.6" y="-825.06" font-family="Times,serif" font-size="14.00">seeAlso</text>
</g>
<!-- http://w3id.org/oseg/ont/okhimg#slotIconMainBw -->
<g id="node17" class="node">
<title>http://w3id.org/oseg/ont/okhimg#slotIconMainBw</title>
<ellipse fill="none" stroke="#e377c2" cx="1333.03" cy="-1441.26" rx="117.26" ry="16.03"/>
<text text-anchor="middle" x="1333.03" y="-1437.56" font-family="Times,serif" font-size="14.00">okhimg:slotIconMa...</text>
</g>
<!-- http://w3id.org/oseg/ont/okhimg#slotIconMainBw&#45;&gt;http://schema.org/DefinedTerm -->
<g id="edge15" class="edge">
<title>http://w3id.org/oseg/ont/okhimg#slotIconMainBw&#45;&gt;http://schema.org/DefinedTerm</title>
<path fill="none" stroke="black" d="M1438.8,-1434.05C1456.91,-1428.46 1474.12,-1419.71 1487.3,-1406.26 1576.95,-1314.82 1612.68,-892.86 1620.61,-782"/>
<polygon fill="black" stroke="black" points="1624.12,-781.93 1621.33,-771.71 1617.14,-781.44 1624.12,-781.93"/>
<text text-anchor="middle" x="1482.8" y="-1415.06" font-family="Times,serif" font-size="14.00">a</text>
</g>
<!-- http://w3id.org/oseg/ont/okhimg#slotIconMain -->
<g id="node25" class="node">
<title>http://w3id.org/oseg/ont/okhimg#slotIconMain</title>
<ellipse fill="none" stroke="#e377c2" cx="884.08" cy="-1481.26" rx="117.26" ry="16.03"/>
<text text-anchor="middle" x="884.08" y="-1477.56" font-family="Times,serif" font-size="14.00">okhimg:slotIconMain</text>
</g>
<!-- http://w3id.org/oseg/ont/okhimg#slotIconMainBw&#45;&gt;http://w3id.org/oseg/ont/okhimg#slotIconMain -->
<g id="edge42" class="edge">
<title>http://w3id.org/oseg/ont/okhimg#slotIconMainBw&#45;&gt;http://w3id.org/oseg/ont/okhimg#slotIconMain</title>
<path fill="none" stroke="black" d="M1247.13,-1430.15C1183.89,-1424.03 1095.67,-1420.06 1019.45,-1433.26 987.85,-1438.74 953.85,-1450.95 927.95,-1461.69"/>
<polygon fill="black" stroke="black" points="926.29,-1458.59 918.45,-1465.71 929.02,-1465.04 926.29,-1458.59"/>
<text text-anchor="middle" x="1103.6" y="-1437.06" font-family="Times,serif" font-size="14.00">seeAlso</text>
</g>
<!-- http://w3id.org/oseg/ont/okhimg#slotModel3D -->
<g id="node18" class="node">
<title>http://w3id.org/oseg/ont/okhimg#slotModel3D</title>
<ellipse fill="none" stroke="#e377c2" cx="1333.03" cy="-781.26" rx="115.93" ry="16.03"/>
<text text-anchor="middle" x="1333.03" y="-777.56" font-family="Times,serif" font-size="14.00">okhimg:slotModel3D</text>
</g>
<!-- http://w3id.org/oseg/ont/okhimg#slotModel3D&#45;&gt;http://schema.org/DefinedTerm -->
<g id="edge16" class="edge">
<title>http://w3id.org/oseg/ont/okhimg#slotModel3D&#45;&gt;http://schema.org/DefinedTerm</title>
<path fill="none" stroke="black" d="M1431.25,-772.5C1457.78,-770.11 1486.7,-767.5 1513.82,-765.05"/>
<polygon fill="black" stroke="black" points="1514.47,-768.51 1524.12,-764.12 1513.84,-761.54 1514.47,-768.51"/>
<text text-anchor="middle" x="1482.8" y="-772.06" font-family="Times,serif" font-size="14.00">a</text>
</g>
<!-- http://w3id.org/oseg/ont/okhimg#tagArt -->
<g id="node19" class="node">
<title>http://w3id.org/oseg/ont/okhimg#tagArt</title>
<ellipse fill="none" stroke="#e377c2" cx="1103.6" cy="-1348.26" rx="84.29" ry="16.03"/>
<text text-anchor="middle" x="1103.6" y="-1344.56" font-family="Times,serif" font-size="14.00">okhimg:tagArt</text>
</g>
<!-- http://w3id.org/oseg/ont/okhimg#tagArt&#45;&gt;http://schema.org/DefinedTerm -->
<g id="edge18" class="edge">
<title>http://w3id.org/oseg/ont/okhimg#tagArt&#45;&gt;http://schema.org/DefinedTerm</title>
<path fill="none" stroke="black" d="M1142.36,-1362.7C1211.06,-1386.4 1358.77,-1425.25 1460.3,-1365.26 1564.86,-1303.5 1609.87,-891.45 1620.07,-781.95"/>
<polygon fill="black" stroke="black" points="1623.57,-782.04 1620.99,-771.76 1616.6,-781.4 1623.57,-782.04"/>
<text text-anchor="middle" x="1333.03" y="-1400.06" font-family="Times,serif" font-size="14.00">a</text>
</g>
<!-- http://w3id.org/oseg/ont/okhimg#slotSocial -->
<g id="node21" class="node">
<title>http://w3id.org/oseg/ont/okhimg#slotSocial</title>
<ellipse fill="none" stroke="#e377c2" cx="1333.03" cy="-730.26" rx="101.23" ry="16.03"/>
<text text-anchor="middle" x="1333.03" y="-726.56" font-family="Times,serif" font-size="14.00">okhimg:slotSocial</text>
</g>
<!-- http://w3id.org/oseg/ont/okhimg#slotSocial&#45;&gt;http://schema.org/DefinedTerm -->
<g id="edge21" class="edge">
<title>http://w3id.org/oseg/ont/okhimg#slotSocial&#45;&gt;http://schema.org/DefinedTerm</title>
<path fill="none" stroke="black" d="M1422.5,-737.93C1451.06,-740.41 1483.07,-743.18 1512.95,-745.78"/>
<polygon fill="black" stroke="black" points="1512.74,-749.27 1523,-746.65 1513.34,-742.3 1512.74,-749.27"/>
<text text-anchor="middle" x="1482.8" y="-748.06" font-family="Times,serif" font-size="14.00">a</text>
</g>
<!-- http://w3id.org/oseg/ont/okhimg#slots&#45;&gt;http://schema.org/DefinedTermSet -->
<g id="edge22" class="edge">
<title>http://w3id.org/oseg/ont/okhimg#slots&#45;&gt;http://schema.org/DefinedTermSet</title>
<path fill="none" stroke="black" d="M495.22,-1486.71C514.3,-1482.36 536.01,-1477.26 555.7,-1472.26 563.74,-1470.22 565.62,-1469.2 573.7,-1467.26 650.94,-1448.69 739.88,-1430.96 802.52,-1419.06"/>
<polygon fill="black" stroke="black" points="803.55,-1422.43 812.73,-1417.13 802.25,-1415.55 803.55,-1422.43"/>
<text text-anchor="middle" x="661.2" y="-1471.06" font-family="Times,serif" font-size="14.00">a</text>
</g>
<!-- http://w3id.org/oseg/ont/okhimg#slots&#45;&gt;http://w3id.org/oseg/ont/okhimg#slotIconMain -->
<g id="edge45" class="edge">
<title>http://w3id.org/oseg/ont/okhimg#slots&#45;&gt;http://w3id.org/oseg/ont/okhimg#slotIconMain</title>
<path fill="none" stroke="black" d="M516.53,-1495.42C582.94,-1492.85 681.9,-1489.03 760.26,-1486.01"/>
<polygon fill="black" stroke="black" points="760.83,-1489.49 770.69,-1485.6 760.56,-1482.49 760.83,-1489.49"/>
<text text-anchor="middle" x="661.2" y="-1496.06" font-family="Times,serif" font-size="14.00">schema:hasDefinedTerm</text>
</g>
<!-- http://w3id.org/oseg/ont/okhimg#slotOrganizationLogo&#45;&gt;http://schema.org/DefinedTerm -->
<g id="edge29" class="edge">
<title>http://w3id.org/oseg/ont/okhimg#slotOrganizationLogo&#45;&gt;http://schema.org/DefinedTerm</title>
<path fill="none" stroke="black" d="M1403.13,-819.36C1421.78,-815.52 1441.89,-811.04 1460.3,-806.26 1496.89,-796.77 1537.46,-784 1568.86,-773.62"/>
<polygon fill="black" stroke="black" points="1570.33,-776.82 1578.71,-770.34 1568.12,-770.17 1570.33,-776.82"/>
<text text-anchor="middle" x="1482.8" y="-804.06" font-family="Times,serif" font-size="14.00">a</text>
</g>
<!-- http://w3id.org/oseg/ont/okhimg#slotOrganizationLogo&#45;&gt;http://w3id.org/oseg/ont/okhimg#slotOrganizationLogoBw -->
<g id="edge14" class="edge">
<title>http://w3id.org/oseg/ont/okhimg#slotOrganizationLogo&#45;&gt;http://w3id.org/oseg/ont/okhimg#slotOrganizationLogoBw</title>
<path fill="none" stroke="black" d="M1224.43,-837.56C1157.42,-840.86 1071.2,-845.1 1002.43,-848.49"/>
<polygon fill="black" stroke="black" points="1002.23,-844.99 992.42,-848.98 1002.58,-851.98 1002.23,-844.99"/>
<text text-anchor="middle" x="1103.6" y="-851.06" font-family="Times,serif" font-size="14.00">seeAlso</text>
</g>
<!-- http://w3id.org/oseg/ont/okhimg#tagModel -->
<g id="node24" class="node">
<title>http://w3id.org/oseg/ont/okhimg#tagModel</title>
<ellipse fill="none" stroke="#e377c2" cx="1333.03" cy="-679.26" rx="99.9" ry="16.03"/>
<text text-anchor="middle" x="1333.03" y="-675.56" font-family="Times,serif" font-size="14.00">okhimg:tagModel</text>
</g>
<!-- http://w3id.org/oseg/ont/okhimg#tagModel&#45;&gt;http://schema.org/DefinedTerm -->
<g id="edge50" class="edge">
<title>http://w3id.org/oseg/ont/okhimg#tagModel&#45;&gt;http://schema.org/DefinedTerm</title>
<path fill="none" stroke="black" d="M1399.19,-691.43C1418.92,-695.45 1440.57,-700.2 1460.3,-705.26 1496.47,-714.54 1536.57,-726.89 1567.83,-737"/>
<polygon fill="black" stroke="black" points="1567.06,-740.43 1577.66,-740.19 1569.23,-733.77 1567.06,-740.43"/>
<text text-anchor="middle" x="1482.8" y="-717.06" font-family="Times,serif" font-size="14.00">a</text>
</g>
<!-- http://w3id.org/oseg/ont/okhimg#slotIconMain&#45;&gt;http://schema.org/DefinedTerm -->
<g id="edge24" class="edge">
<title>http://w3id.org/oseg/ont/okhimg#slotIconMain&#45;&gt;http://schema.org/DefinedTerm</title>
<path fill="none" stroke="black" d="M941.58,-1495.56C1049.76,-1519.7 1290.45,-1557.51 1460.3,-1466.26 1585.49,-1399.01 1615.76,-902.96 1621.32,-781.87"/>
<polygon fill="black" stroke="black" points="1624.83,-781.79 1621.77,-771.65 1617.83,-781.48 1624.83,-781.79"/>
<text text-anchor="middle" x="1333.03" y="-1527.06" font-family="Times,serif" font-size="14.00">a</text>
</g>
<!-- http://w3id.org/oseg/ont/okhimg#slotIconMain&#45;&gt;http://w3id.org/oseg/ont/okhimg#slotIconMainBw -->
<g id="edge39" class="edge">
<title>http://w3id.org/oseg/ont/okhimg#slotIconMain&#45;&gt;http://w3id.org/oseg/ont/okhimg#slotIconMainBw</title>
<path fill="none" stroke="black" d="M977.58,-1471.37C991.6,-1469.94 1005.91,-1468.53 1019.45,-1467.26 1085.95,-1461.03 1160.48,-1454.81 1220.08,-1450.01"/>
<polygon fill="black" stroke="black" points="1220.58,-1453.48 1230.27,-1449.19 1220.02,-1446.5 1220.58,-1453.48"/>
<text text-anchor="middle" x="1103.6" y="-1471.06" font-family="Times,serif" font-size="14.00">seeAlso</text>
</g>
<!-- http://w3id.org/oseg/ont/okhimg#slotModelFromBelow -->
<g id="node27" class="node">
<title>http://w3id.org/oseg/ont/okhimg#slotModelFromBelow</title>
<ellipse fill="none" stroke="#e377c2" cx="1333.03" cy="-628.26" rx="116.85" ry="16.03"/>
<text text-anchor="middle" x="1333.03" y="-624.56" font-family="Times,serif" font-size="14.00">okhimg:slotModelF...</text>
</g>
<!-- http://w3id.org/oseg/ont/okhimg#slotModelFromBelow&#45;&gt;http://schema.org/DefinedTerm -->
<g id="edge28" class="edge">
<title>http://w3id.org/oseg/ont/okhimg#slotModelFromBelow&#45;&gt;http://schema.org/DefinedTerm</title>
<path fill="none" stroke="black" d="M1413.43,-640.13C1429.26,-643.74 1445.55,-648.37 1460.3,-654.26 1510.4,-674.28 1562.29,-709.65 1593.46,-732.77"/>
<polygon fill="black" stroke="black" points="1591.58,-735.74 1601.68,-738.95 1595.79,-730.14 1591.58,-735.74"/>
<text text-anchor="middle" x="1482.8" y="-669.06" font-family="Times,serif" font-size="14.00">a</text>
</g>
<!-- http://w3id.org/oseg/ont/okhimg#tagLogo -->
<g id="node28" class="node">
<title>http://w3id.org/oseg/ont/okhimg#tagLogo</title>
<ellipse fill="none" stroke="#e377c2" cx="1333.03" cy="-577.26" rx="92.76" ry="16.03"/>
<text text-anchor="middle" x="1333.03" y="-573.56" font-family="Times,serif" font-size="14.00">okhimg:tagLogo</text>
</g>
<!-- http://w3id.org/oseg/ont/okhimg#tagLogo&#45;&gt;http://schema.org/DefinedTerm -->
<g id="edge30" class="edge">
<title>http://w3id.org/oseg/ont/okhimg#tagLogo&#45;&gt;http://schema.org/DefinedTerm</title>
<path fill="none" stroke="black" d="M1411.12,-586.14C1427.94,-589.96 1445.2,-595.44 1460.3,-603.26 1521.56,-635.01 1576.34,-696.58 1603.79,-730.82"/>
<polygon fill="black" stroke="black" points="1601.22,-733.22 1610.17,-738.9 1606.72,-728.88 1601.22,-733.22"/>
<text text-anchor="middle" x="1482.8" y="-623.06" font-family="Times,serif" font-size="14.00">a</text>
</g>
<!-- http://w3id.org/oseg/ont/okhimg#slotModelFromBack -->
<g id="node30" class="node">
<title>http://w3id.org/oseg/ont/okhimg#slotModelFromBack</title>
<ellipse fill="none" stroke="#e377c2" cx="1333.03" cy="-526.26" rx="116.85" ry="16.03"/>
<text text-anchor="middle" x="1333.03" y="-522.56" font-family="Times,serif" font-size="14.00">okhimg:slotModelF...</text>
</g>
<!-- http://w3id.org/oseg/ont/okhimg#slotModelFromBack&#45;&gt;http://schema.org/DefinedTerm -->
<g id="edge32" class="edge">
<title>http://w3id.org/oseg/ont/okhimg#slotModelFromBack&#45;&gt;http://schema.org/DefinedTerm</title>
<path fill="none" stroke="black" d="M1423.6,-536.59C1436.49,-540.34 1449.14,-545.42 1460.3,-552.26 1532.87,-596.75 1586.53,-685.97 1609.73,-729.79"/>
<polygon fill="black" stroke="black" points="1606.75,-731.65 1614.46,-738.92 1612.96,-728.43 1606.75,-731.65"/>
<text text-anchor="middle" x="1482.8" y="-572.06" font-family="Times,serif" font-size="14.00">a</text>
</g>
<!-- http://w3id.org/oseg/ont/okhimg#slotModelFromRight -->
<g id="node31" class="node">
<title>http://w3id.org/oseg/ont/okhimg#slotModelFromRight</title>
<ellipse fill="none" stroke="#e377c2" cx="1333.03" cy="-475.26" rx="116.85" ry="16.03"/>
<text text-anchor="middle" x="1333.03" y="-471.56" font-family="Times,serif" font-size="14.00">okhimg:slotModelF...</text>
</g>
<!-- http://w3id.org/oseg/ont/okhimg#slotModelFromRight&#45;&gt;http://schema.org/DefinedTerm -->
<g id="edge33" class="edge">
<title>http://w3id.org/oseg/ont/okhimg#slotModelFromRight&#45;&gt;http://schema.org/DefinedTerm</title>
<path fill="none" stroke="black" d="M1426.24,-485.16C1438.34,-489.01 1450.07,-494.22 1460.3,-501.26 1544.73,-559.39 1594.87,-677.33 1613.75,-729.48"/>
<polygon fill="black" stroke="black" points="1610.48,-730.73 1617.11,-738.99 1617.08,-728.4 1610.48,-730.73"/>
<text text-anchor="middle" x="1482.8" y="-526.06" font-family="Times,serif" font-size="14.00">a</text>
</g>
<!-- http://w3id.org/oseg/ont/okhimg#slotModelFromLeft -->
<g id="node32" class="node">
<title>http://w3id.org/oseg/ont/okhimg#slotModelFromLeft</title>
<ellipse fill="none" stroke="#e377c2" cx="1333.03" cy="-424.26" rx="116.85" ry="16.03"/>
<text text-anchor="middle" x="1333.03" y="-420.56" font-family="Times,serif" font-size="14.00">okhimg:slotModelF...</text>
</g>
<!-- http://w3id.org/oseg/ont/okhimg#slotModelFromLeft&#45;&gt;http://schema.org/DefinedTerm -->
<g id="edge34" class="edge">
<title>http://w3id.org/oseg/ont/okhimg#slotModelFromLeft&#45;&gt;http://schema.org/DefinedTerm</title>
<path fill="none" stroke="black" d="M1427.2,-433.94C1439.02,-437.83 1450.42,-443.11 1460.3,-450.26 1557.93,-520.88 1602.16,-668.54 1616.67,-728.8"/>
<polygon fill="black" stroke="black" points="1613.29,-729.73 1618.97,-738.67 1620.11,-728.14 1613.29,-729.73"/>
<text text-anchor="middle" x="1482.8" y="-472.06" font-family="Times,serif" font-size="14.00">a</text>
</g>
<!-- http://w3id.org/oseg/ont/okhimg#slotPhotoThingMain -->
<g id="node33" class="node">
<title>http://w3id.org/oseg/ont/okhimg#slotPhotoThingMain</title>
<ellipse fill="none" stroke="#e377c2" cx="1333.03" cy="-373.26" rx="114.6" ry="16.03"/>
<text text-anchor="middle" x="1333.03" y="-369.56" font-family="Times,serif" font-size="14.00">okhimg:slotPhotoT...</text>
</g>
<!-- http://w3id.org/oseg/ont/okhimg#slotPhotoThingMain&#45;&gt;http://schema.org/DefinedTerm -->
<g id="edge35" class="edge">
<title>http://w3id.org/oseg/ont/okhimg#slotPhotoThingMain&#45;&gt;http://schema.org/DefinedTerm</title>
<path fill="none" stroke="black" d="M1427.05,-382.59C1438.96,-386.53 1450.43,-391.92 1460.3,-399.26 1572.07,-482.36 1608.79,-660.79 1618.97,-728.48"/>
<polygon fill="black" stroke="black" points="1615.55,-729.31 1620.43,-738.72 1622.48,-728.32 1615.55,-729.31"/>
<text text-anchor="middle" x="1482.8" y="-424.06" font-family="Times,serif" font-size="14.00">a</text>
</g>
<!-- http://w3id.org/oseg/ont/okhimg#slotSymbol -->
<g id="node34" class="node">
<title>http://w3id.org/oseg/ont/okhimg#slotSymbol</title>
<ellipse fill="none" stroke="#e377c2" cx="1333.03" cy="-322.26" rx="108.38" ry="16.03"/>
<text text-anchor="middle" x="1333.03" y="-318.56" font-family="Times,serif" font-size="14.00">okhimg:slotSymbol</text>
</g>
<!-- http://w3id.org/oseg/ont/okhimg#slotSymbol&#45;&gt;http://schema.org/DefinedTerm -->
<g id="edge36" class="edge">
<title>http://w3id.org/oseg/ont/okhimg#slotSymbol&#45;&gt;http://schema.org/DefinedTerm</title>
<path fill="none" stroke="black" d="M1425.59,-330.84C1438.06,-334.85 1450.07,-340.46 1460.3,-348.26 1586.59,-444.53 1614.7,-654.48 1620.77,-728.66"/>
<polygon fill="black" stroke="black" points="1617.31,-729.26 1621.54,-738.97 1624.29,-728.74 1617.31,-729.26"/>
<text text-anchor="middle" x="1482.8" y="-375.06" font-family="Times,serif" font-size="14.00">a</text>
</g>
<!-- http://w3id.org/oseg/ont/okhimg#tagBw -->
<g id="node35" class="node">
<title>http://w3id.org/oseg/ont/okhimg#tagBw</title>
<ellipse fill="none" stroke="#e377c2" cx="1333.03" cy="-271.26" rx="84.29" ry="16.03"/>
<text text-anchor="middle" x="1333.03" y="-267.56" font-family="Times,serif" font-size="14.00">okhimg:tagBw</text>
</g>
<!-- http://w3id.org/oseg/ont/okhimg#tagBw&#45;&gt;http://schema.org/DefinedTerm -->
<g id="edge37" class="edge">
<title>http://w3id.org/oseg/ont/okhimg#tagBw&#45;&gt;http://schema.org/DefinedTerm</title>
<path fill="none" stroke="black" d="M1413.24,-276.23C1430.04,-280.24 1446.76,-286.78 1460.3,-297.26 1601.4,-406.49 1619.99,-647.95 1622.19,-728.51"/>
<polygon fill="black" stroke="black" points="1618.7,-728.86 1622.4,-738.78 1625.7,-728.71 1618.7,-728.86"/>
<text text-anchor="middle" x="1482.8" y="-318.06" font-family="Times,serif" font-size="14.00">a</text>
</g>
<!-- http://w3id.org/oseg/ont/okhimg#tagColor -->
<g id="node36" class="node">
<title>http://w3id.org/oseg/ont/okhimg#tagColor</title>
<ellipse fill="none" stroke="#e377c2" cx="1333.03" cy="-220.26" rx="95.42" ry="16.03"/>
<text text-anchor="middle" x="1333.03" y="-216.56" font-family="Times,serif" font-size="14.00">okhimg:tagColor</text>
</g>
<!-- http://w3id.org/oseg/ont/okhimg#tagColor&#45;&gt;http://schema.org/DefinedTerm -->
<g id="edge38" class="edge">
<title>http://w3id.org/oseg/ont/okhimg#tagColor&#45;&gt;http://schema.org/DefinedTerm</title>
<path fill="none" stroke="black" d="M1419.14,-227.3C1433.83,-231.35 1448.23,-237.37 1460.3,-246.26 1480.32,-261.02 1477.75,-272.31 1487.3,-295.26 1553.66,-454.59 1601.15,-657.6 1616.8,-729.01"/>
<polygon fill="black" stroke="black" points="1613.41,-729.91 1618.96,-738.94 1620.26,-728.42 1613.41,-729.91"/>
<text text-anchor="middle" x="1482.8" y="-299.06" font-family="Times,serif" font-size="14.00">a</text>
</g>
<!-- http://w3id.org/oseg/ont/okhimg#slotModelFromFront -->
<g id="node37" class="node">
<title>http://w3id.org/oseg/ont/okhimg#slotModelFromFront</title>
<ellipse fill="none" stroke="#e377c2" cx="1333.03" cy="-169.26" rx="116.85" ry="16.03"/>
<text text-anchor="middle" x="1333.03" y="-165.56" font-family="Times,serif" font-size="14.00">okhimg:slotModelF...</text>
</g>
<!-- http://w3id.org/oseg/ont/okhimg#slotModelFromFront&#45;&gt;http://schema.org/DefinedTerm -->
<g id="edge40" class="edge">
<title>http://w3id.org/oseg/ont/okhimg#slotModelFromFront&#45;&gt;http://schema.org/DefinedTerm</title>
<path fill="none" stroke="black" d="M1428.66,-178.62C1440.06,-182.58 1450.95,-187.97 1460.3,-195.26 1482.09,-212.25 1477.69,-225.36 1487.3,-251.26 1553.28,-428.93 1601.64,-652.81 1617.12,-728.71"/>
<polygon fill="black" stroke="black" points="1613.75,-729.71 1619.16,-738.82 1620.61,-728.32 1613.75,-729.71"/>
<text text-anchor="middle" x="1482.8" y="-255.06" font-family="Times,serif" font-size="14.00">a</text>
</g>
<!-- http://w3id.org/oseg/ont/okhimg#slotModelFromAbove -->
<g id="node38" class="node">
<title>http://w3id.org/oseg/ont/okhimg#slotModelFromAbove</title>
<ellipse fill="none" stroke="#e377c2" cx="1333.03" cy="-118.26" rx="116.85" ry="16.03"/>
<text text-anchor="middle" x="1333.03" y="-114.56" font-family="Times,serif" font-size="14.00">okhimg:slotModelF...</text>
</g>
<!-- http://w3id.org/oseg/ont/okhimg#slotModelFromAbove&#45;&gt;http://schema.org/DefinedTerm -->
<g id="edge43" class="edge">
<title>http://w3id.org/oseg/ont/okhimg#slotModelFromAbove&#45;&gt;http://schema.org/DefinedTerm</title>
<path fill="none" stroke="black" d="M1429.03,-127.67C1440.3,-131.63 1451.06,-137.01 1460.3,-144.26 1482.35,-161.58 1477.94,-174.84 1487.3,-201.26 1557.14,-398.21 1603.65,-647 1617.82,-728.26"/>
<polygon fill="black" stroke="black" points="1614.46,-729.33 1619.61,-738.59 1621.35,-728.14 1614.46,-729.33"/>
<text text-anchor="middle" x="1482.8" y="-205.06" font-family="Times,serif" font-size="14.00">a</text>
</g>
<!-- http://w3id.org/oseg/ont/okhimg#slotPhotoPackaging -->
<g id="node40" class="node">
<title>http://w3id.org/oseg/ont/okhimg#slotPhotoPackaging</title>
<ellipse fill="none" stroke="#e377c2" cx="1333.03" cy="-67.26" rx="113.69" ry="16.03"/>
<text text-anchor="middle" x="1333.03" y="-63.56" font-family="Times,serif" font-size="14.00">okhimg:slotPhotoP...</text>
</g>
<!-- http://w3id.org/oseg/ont/okhimg#slotPhotoPackaging&#45;&gt;http://schema.org/DefinedTerm -->
<g id="edge47" class="edge">
<title>http://w3id.org/oseg/ont/okhimg#slotPhotoPackaging&#45;&gt;http://schema.org/DefinedTerm</title>
<path fill="none" stroke="black" d="M1428.11,-76.28C1439.72,-80.28 1450.82,-85.77 1460.3,-93.26 1482.61,-110.9 1478.15,-124.34 1487.3,-151.26 1561.13,-368.33 1605.74,-643.15 1618.54,-728.66"/>
<polygon fill="black" stroke="black" points="1615.08,-729.19 1620.01,-738.57 1622.01,-728.16 1615.08,-729.19"/>
<text text-anchor="middle" x="1482.8" y="-155.06" font-family="Times,serif" font-size="14.00">a</text>
</g>
<!-- http://w3id.org/oseg/ont/okhimg#tagGray -->
<g id="node41" class="node">
<title>http://w3id.org/oseg/ont/okhimg#tagGray</title>
<ellipse fill="none" stroke="#e377c2" cx="1333.03" cy="-16.26" rx="92.76" ry="16.03"/>
<text text-anchor="middle" x="1333.03" y="-12.56" font-family="Times,serif" font-size="14.00">okhimg:tagGray</text>
</g>
<!-- http://w3id.org/oseg/ont/okhimg#tagGray&#45;&gt;http://schema.org/DefinedTerm -->
<g id="edge48" class="edge">
<title>http://w3id.org/oseg/ont/okhimg#tagGray&#45;&gt;http://schema.org/DefinedTerm</title>
<path fill="none" stroke="black" d="M1418.94,-22.52C1433.81,-26.62 1448.33,-32.86 1460.3,-42.26 1482.35,-59.58 1478.41,-72.68 1487.3,-99.26 1566.61,-336.39 1608,-638 1619.21,-728.46"/>
<polygon fill="black" stroke="black" points="1615.77,-729.15 1620.46,-738.65 1622.72,-728.3 1615.77,-729.15"/>
<text text-anchor="middle" x="1482.8" y="-103.06" font-family="Times,serif" font-size="14.00">a</text>
</g>
<!-- http://w3id.org/oseg/ont/okhimg#tags&#45;&gt;http://schema.org/DefinedTermSet -->
<g id="edge49" class="edge">
<title>http://w3id.org/oseg/ont/okhimg#tags&#45;&gt;http://schema.org/DefinedTermSet</title>
<path fill="none" stroke="black" d="M511.16,-1299.79C527.05,-1303.71 543.01,-1310.06 555.7,-1320.26 570.26,-1331.98 558.68,-1347.13 573.7,-1358.26 603.53,-1380.39 689.84,-1392 763.74,-1398.02"/>
<polygon fill="black" stroke="black" points="763.84,-1401.54 774.08,-1398.84 764.39,-1394.56 763.84,-1401.54"/>
<text text-anchor="middle" x="661.2" y="-1399.06" font-family="Times,serif" font-size="14.00">a</text>
</g>
<!-- http://w3id.org/oseg/ont/okhimg#tags&#45;&gt;http://w3id.org/oseg/ont/okhimg#tagArt -->
<g id="edge41" class="edge">
<title>http://w3id.org/oseg/ont/okhimg#tags&#45;&gt;http://w3id.org/oseg/ont/okhimg#tagArt</title>
<path fill="none" stroke="black" d="M510.97,-1299.84C631.62,-1309.71 882.64,-1330.26 1015.6,-1341.14"/>
<polygon fill="black" stroke="black" points="1015.5,-1344.65 1025.75,-1341.97 1016.07,-1337.67 1015.5,-1344.65"/>
<text text-anchor="middle" x="661.2" y="-1323.06" font-family="Times,serif" font-size="14.00">schema:hasDefinedTerm</text>
</g>
</g>
</svg>
