<?xml version="1.0" encoding="UTF-8" standalone="no"?>
<!DOCTYPE svg PUBLIC "-//W3C//DTD SVG 1.1//EN"
 "http://www.w3.org/Graphics/SVG/1.1/DTD/svg11.dtd">
<!-- Generated by graphviz version 2.43.0 (0)
 -->
<!-- Title: G Pages: 1 -->
<svg width="1291pt" height="458pt"
 viewBox="0.00 0.00 1290.63 458.34" xmlns="http://www.w3.org/2000/svg" xmlns:xlink="http://www.w3.org/1999/xlink">
<g id="graph0" class="graph" transform="scale(1 1) rotate(0) translate(4 454.34)">
<title>G</title>
<polygon fill="white" stroke="transparent" points="-4,4 -4,-454.34 1286.63,-454.34 1286.63,4 -4,4"/>
<!-- http://spdx.org/rdf/terms#SpdxItem -->
<g id="node1" class="node">
<title>http://spdx.org/rdf/terms#SpdxItem</title>
<ellipse fill="none" stroke="#1f77b4" cx="441.85" cy="-426.34" rx="87.86" ry="16.03"/>
<text text-anchor="middle" x="441.85" y="-422.64" font-family="Times,serif" font-size="14.00">spdx:SpdxItem</text>
</g>
<!-- http://schema.org/DefinedTermSet -->
<g id="node2" class="node">
<title>http://schema.org/DefinedTermSet</title>
<ellipse fill="none" stroke="#1f77b4" cx="884.08" cy="-207.34" rx="116.85" ry="16.03"/>
<text text-anchor="middle" x="884.08" y="-203.64" font-family="Times,serif" font-size="14.00">schema:DefinedTer...</text>
</g>
<!-- http://schema.org/DefinedTerm -->
<g id="node3" class="node">
<title>http://schema.org/DefinedTerm</title>
<ellipse fill="none" stroke="#1f77b4" cx="1164.54" cy="-196.34" rx="118.17" ry="16.03"/>
<text text-anchor="middle" x="1164.54" y="-192.64" font-family="Times,serif" font-size="14.00">schema:DefinedTerm</text>
</g>
<!-- http://w3id.org/oseg/ont/ods#Dataset -->
<g id="node4" class="node">
<title>http://w3id.org/oseg/ont/ods#Dataset</title>
<ellipse fill="none" stroke="#1f77b4" cx="441.85" cy="-375.34" rx="71.34" ry="16.03"/>
<text text-anchor="middle" x="441.85" y="-371.64" font-family="Times,serif" font-size="14.00">ods:Dataset</text>
</g>
<!-- http://id.loc.gov/vocabulary/iso639&#45;1/en -->
<g id="node5" class="node">
<title>http://id.loc.gov/vocabulary/iso639&#45;1/en</title>
<ellipse fill="none" stroke="#e377c2" cx="441.85" cy="-324.34" rx="45.01" ry="16.03"/>
<text text-anchor="middle" x="441.85" y="-320.64" font-family="Times,serif" font-size="14.00">ns1:en</text>
</g>
<!-- http://w3id.org/oseg/ont/okhimg -->
<g id="node6" class="node">
<title>http://w3id.org/oseg/ont/okhimg</title>
<ellipse fill="none" stroke="#e377c2" cx="70" cy="-228.34" rx="70.01" ry="16.03"/>
<text text-anchor="middle" x="70" y="-224.64" font-family="Times,serif" font-size="14.00">ns2:okhimg</text>
</g>
<!-- http://w3id.org/oseg/ont/okhimg&#45;&gt;http://spdx.org/rdf/terms#SpdxItem -->
<g id="edge13" class="edge">
<title>http://w3id.org/oseg/ont/okhimg&#45;&gt;http://spdx.org/rdf/terms#SpdxItem</title>
<path fill="none" stroke="black" d="M74.29,-244.58C82.11,-278.6 105.25,-357.18 158.01,-393.34 216.51,-433.43 298.26,-438.95 358.83,-436.06"/>
<polygon fill="black" stroke="black" points="359.34,-439.54 369.12,-435.48 358.94,-432.55 359.34,-439.54"/>
<text text-anchor="middle" x="234.01" y="-439.14" font-family="Times,serif" font-size="14.00">a</text>
</g>
<!-- http://w3id.org/oseg/ont/okhimg&#45;&gt;http://w3id.org/oseg/ont/ods#Dataset -->
<g id="edge2" class="edge">
<title>http://w3id.org/oseg/ont/okhimg&#45;&gt;http://w3id.org/oseg/ont/ods#Dataset</title>
<path fill="none" stroke="black" d="M79.42,-244.68C92.64,-268.52 120.68,-312.3 158.01,-333.34 220.25,-368.41 301.91,-377.32 361.48,-378.4"/>
<polygon fill="black" stroke="black" points="361.55,-381.9 371.58,-378.52 361.62,-374.9 361.55,-381.9"/>
<text text-anchor="middle" x="234.01" y="-378.14" font-family="Times,serif" font-size="14.00">a</text>
</g>
<!-- http://w3id.org/oseg/ont/okhimg&#45;&gt;http://id.loc.gov/vocabulary/iso639&#45;1/en -->
<g id="edge1" class="edge">
<title>http://w3id.org/oseg/ont/okhimg&#45;&gt;http://id.loc.gov/vocabulary/iso639&#45;1/en</title>
<path fill="none" stroke="black" d="M91.26,-243.9C108.17,-256.07 133.41,-272.38 158.01,-281.34 234.18,-309.06 328.18,-318.91 386.33,-322.41"/>
<polygon fill="black" stroke="black" points="386.22,-325.91 396.4,-322.97 386.61,-318.92 386.22,-325.91"/>
<text text-anchor="middle" x="234.01" y="-318.14" font-family="Times,serif" font-size="14.00">dcterms:language</text>
</g>
<!-- http://w3id.org/oseg/ont/okhimg#tags -->
<g id="node7" class="node">
<title>http://w3id.org/oseg/ont/okhimg#tags</title>
<ellipse fill="none" stroke="#e377c2" cx="441.85" cy="-273.34" rx="73.58" ry="16.03"/>
<text text-anchor="middle" x="441.85" y="-269.64" font-family="Times,serif" font-size="14.00">okhimg:tags</text>
</g>
<!-- http://w3id.org/oseg/ont/okhimg&#45;&gt;http://w3id.org/oseg/ont/okhimg#tags -->
<g id="edge4" class="edge">
<title>http://w3id.org/oseg/ont/okhimg&#45;&gt;http://w3id.org/oseg/ont/okhimg#tags</title>
<path fill="none" stroke="black" d="M120.98,-239.65C133.06,-242.11 145.96,-244.52 158.01,-246.34 226.22,-256.62 304.32,-263.72 361.14,-268.06"/>
<polygon fill="black" stroke="black" points="360.91,-271.55 371.14,-268.81 361.43,-264.57 360.91,-271.55"/>
<text text-anchor="middle" x="234.01" y="-266.14" font-family="Times,serif" font-size="14.00">void:rootResource</text>
</g>
<!-- http://w3id.org/oseg/ont/oseg&#45;profiles#robinVobruba -->
<g id="node8" class="node">
<title>http://w3id.org/oseg/ont/oseg&#45;profiles#robinVobruba</title>
<ellipse fill="none" stroke="#e377c2" cx="441.85" cy="-222.34" rx="113.69" ry="16.03"/>
<text text-anchor="middle" x="441.85" y="-218.64" font-family="Times,serif" font-size="14.00">osegprof:robinVob...</text>
</g>
<!-- http://w3id.org/oseg/ont/okhimg&#45;&gt;http://w3id.org/oseg/ont/oseg&#45;profiles#robinVobruba -->
<g id="edge3" class="edge">
<title>http://w3id.org/oseg/ont/okhimg&#45;&gt;http://w3id.org/oseg/ont/oseg&#45;profiles#robinVobruba</title>
<path fill="none" stroke="black" d="M140.03,-227.66C187.77,-227.14 252.75,-226.35 310.01,-225.34 313.09,-225.28 316.21,-225.22 319.36,-225.16"/>
<polygon fill="black" stroke="black" points="319.57,-228.66 329.5,-224.97 319.43,-221.66 319.57,-228.66"/>
<text text-anchor="middle" x="234.01" y="-231.14" font-family="Times,serif" font-size="14.00">schema:creator</text>
</g>
<!-- http://w3id.org/oseg/ont/okhimg&#45;&gt;http://w3id.org/oseg/ont/oseg&#45;profiles#robinVobruba -->
<g id="edge14" class="edge">
<title>http://w3id.org/oseg/ont/okhimg&#45;&gt;http://w3id.org/oseg/ont/oseg&#45;profiles#robinVobruba</title>
<path fill="none" stroke="black" d="M113.09,-215.46C127.22,-211.74 143.16,-208.18 158.01,-206.34 223.14,-198.23 297.22,-202.92 353.23,-209.27"/>
<polygon fill="black" stroke="black" points="353.13,-212.78 363.47,-210.47 353.94,-205.83 353.13,-212.78"/>
<text text-anchor="middle" x="234.01" y="-210.14" font-family="Times,serif" font-size="14.00">dcterms:creator</text>
</g>
<!-- http://w3id.org/oseg/ont/oseg&#45;profiles#Iopa -->
<g id="node10" class="node">
<title>http://w3id.org/oseg/ont/oseg&#45;profiles#Iopa</title>
<ellipse fill="none" stroke="#e377c2" cx="441.85" cy="-171.34" rx="80.72" ry="16.03"/>
<text text-anchor="middle" x="441.85" y="-167.64" font-family="Times,serif" font-size="14.00">osegprof:Iopa</text>
</g>
<!-- http://w3id.org/oseg/ont/okhimg&#45;&gt;http://w3id.org/oseg/ont/oseg&#45;profiles#Iopa -->
<g id="edge6" class="edge">
<title>http://w3id.org/oseg/ont/okhimg&#45;&gt;http://w3id.org/oseg/ont/oseg&#45;profiles#Iopa</title>
<path fill="none" stroke="black" d="M93.46,-212.84C110.37,-202.1 134.58,-188.63 158.01,-182.34 223.15,-164.83 299.75,-162.93 356.79,-164.94"/>
<polygon fill="black" stroke="black" points="356.71,-168.44 366.85,-165.34 356.99,-161.44 356.71,-168.44"/>
<text text-anchor="middle" x="234.01" y="-186.14" font-family="Times,serif" font-size="14.00">dcterms:publisher</text>
</g>
<!-- http://w3id.org/oseg/ont/okhimg#slots -->
<g id="node12" class="node">
<title>http://w3id.org/oseg/ont/okhimg#slots</title>
<ellipse fill="none" stroke="#e377c2" cx="441.85" cy="-120.34" rx="75.82" ry="16.03"/>
<text text-anchor="middle" x="441.85" y="-116.64" font-family="Times,serif" font-size="14.00">okhimg:slots</text>
</g>
<!-- http://w3id.org/oseg/ont/okhimg&#45;&gt;http://w3id.org/oseg/ont/okhimg#slots -->
<g id="edge8" class="edge">
<title>http://w3id.org/oseg/ont/okhimg&#45;&gt;http://w3id.org/oseg/ont/okhimg#slots</title>
<path fill="none" stroke="black" d="M82.39,-212.17C97.27,-192.52 125.3,-160.14 158.01,-145.34 222.19,-116.29 302.87,-111.88 361.61,-113.66"/>
<polygon fill="black" stroke="black" points="361.83,-117.17 371.95,-114.04 362.09,-110.17 361.83,-117.17"/>
<text text-anchor="middle" x="234.01" y="-149.14" font-family="Times,serif" font-size="14.00">void:rootResource</text>
</g>
<!-- http://w3id.org/oseg/ont/0.1.0/okhimg -->
<g id="node13" class="node">
<title>http://w3id.org/oseg/ont/0.1.0/okhimg</title>
<ellipse fill="none" stroke="#e377c2" cx="441.85" cy="-69.34" rx="70.01" ry="16.03"/>
<text text-anchor="middle" x="441.85" y="-65.64" font-family="Times,serif" font-size="14.00">ns3:okhimg</text>
</g>
<!-- http://w3id.org/oseg/ont/okhimg&#45;&gt;http://w3id.org/oseg/ont/0.1.0/okhimg -->
<g id="edge11" class="edge">
<title>http://w3id.org/oseg/ont/okhimg&#45;&gt;http://w3id.org/oseg/ont/0.1.0/okhimg</title>
<path fill="none" stroke="black" d="M76.2,-212.09C86.52,-182.8 112.61,-121.64 158.01,-94.34 223.1,-55.18 312.3,-54.1 373.01,-59.45"/>
<polygon fill="black" stroke="black" points="372.96,-62.96 383.25,-60.44 373.63,-56 372.96,-62.96"/>
<text text-anchor="middle" x="234.01" y="-98.14" font-family="Times,serif" font-size="14.00">owl:versionIRI</text>
</g>
<!-- http://spdx.org/licenses/AGPL&#45;3.0&#45;or&#45;later -->
<g id="node14" class="node">
<title>http://spdx.org/licenses/AGPL&#45;3.0&#45;or&#45;later</title>
<ellipse fill="none" stroke="#e377c2" cx="441.85" cy="-18.34" rx="111.95" ry="16.03"/>
<text text-anchor="middle" x="441.85" y="-14.64" font-family="Times,serif" font-size="14.00">spdxl:AGPL&#45;3.0&#45;or...</text>
</g>
<!-- http://w3id.org/oseg/ont/okhimg&#45;&gt;http://spdx.org/licenses/AGPL&#45;3.0&#45;or&#45;later -->
<g id="edge15" class="edge">
<title>http://w3id.org/oseg/ont/okhimg&#45;&gt;http://spdx.org/licenses/AGPL&#45;3.0&#45;or&#45;later</title>
<path fill="none" stroke="black" d="M72.98,-211.83C78.52,-173.78 97.92,-79.97 158.01,-38.34 218.18,3.36 303.9,3.36 365.17,-3.96"/>
<polygon fill="black" stroke="black" points="364.8,-7.44 375.17,-5.25 365.7,-0.5 364.8,-7.44"/>
<text text-anchor="middle" x="234.01" y="-42.14" font-family="Times,serif" font-size="14.00">spdx:licenseDeclared</text>
</g>
<!-- http://w3id.org/oseg/ont/okhimg#tags&#45;&gt;http://schema.org/DefinedTermSet -->
<g id="edge9" class="edge">
<title>http://w3id.org/oseg/ont/okhimg#tags&#45;&gt;http://schema.org/DefinedTermSet</title>
<path fill="none" stroke="black" d="M495.23,-262.09C519.1,-257.18 547.75,-251.59 573.7,-247.34 643.18,-235.95 721.89,-225.82 782.52,-218.59"/>
<polygon fill="black" stroke="black" points="782.96,-222.07 792.48,-217.42 782.13,-215.12 782.96,-222.07"/>
<text text-anchor="middle" x="661.2" y="-251.14" font-family="Times,serif" font-size="14.00">a</text>
</g>
<!-- http://w3id.org/oseg/ont/okhimg#tagArt -->
<g id="node11" class="node">
<title>http://w3id.org/oseg/ont/okhimg#tagArt</title>
<ellipse fill="none" stroke="#e377c2" cx="884.08" cy="-264.34" rx="84.29" ry="16.03"/>
<text text-anchor="middle" x="884.08" y="-260.64" font-family="Times,serif" font-size="14.00">okhimg:tagArt</text>
</g>
<!-- http://w3id.org/oseg/ont/okhimg#tags&#45;&gt;http://w3id.org/oseg/ont/okhimg#tagArt -->
<g id="edge12" class="edge">
<title>http://w3id.org/oseg/ont/okhimg#tags&#45;&gt;http://w3id.org/oseg/ont/okhimg#tagArt</title>
<path fill="none" stroke="black" d="M515.55,-271.85C590.68,-270.31 708.23,-267.91 790.09,-266.24"/>
<polygon fill="black" stroke="black" points="790.21,-269.74 800.14,-266.03 790.07,-262.74 790.21,-269.74"/>
<text text-anchor="middle" x="661.2" y="-274.14" font-family="Times,serif" font-size="14.00">schema:hasDefinedTerm</text>
</g>
<!-- http://w3id.org/oseg/ont/okhimg#slotIconMain -->
<g id="node9" class="node">
<title>http://w3id.org/oseg/ont/okhimg#slotIconMain</title>
<ellipse fill="none" stroke="#e377c2" cx="884.08" cy="-145.34" rx="117.26" ry="16.03"/>
<text text-anchor="middle" x="884.08" y="-141.64" font-family="Times,serif" font-size="14.00">okhimg:slotIconMain</text>
</g>
<!-- http://w3id.org/oseg/ont/okhimg#slotIconMain&#45;&gt;http://schema.org/DefinedTerm -->
<g id="edge16" class="edge">
<title>http://w3id.org/oseg/ont/okhimg#slotIconMain&#45;&gt;http://schema.org/DefinedTerm</title>
<path fill="none" stroke="black" d="M955.7,-158.27C994.32,-165.34 1042.33,-174.14 1082.48,-181.49"/>
<polygon fill="black" stroke="black" points="1082.04,-184.97 1092.5,-183.33 1083.3,-178.08 1082.04,-184.97"/>
<text text-anchor="middle" x="1023.95" y="-174.14" font-family="Times,serif" font-size="14.00">a</text>
</g>
<!-- http://w3id.org/oseg/ont/okhimg#tagArt&#45;&gt;http://schema.org/DefinedTerm -->
<g id="edge7" class="edge">
<title>http://w3id.org/oseg/ont/okhimg#tagArt&#45;&gt;http://schema.org/DefinedTerm</title>
<path fill="none" stroke="black" d="M937.13,-251.63C981.9,-240.69 1046.79,-224.85 1095.64,-212.92"/>
<polygon fill="black" stroke="black" points="1096.61,-216.28 1105.49,-210.51 1094.95,-209.48 1096.61,-216.28"/>
<text text-anchor="middle" x="1023.95" y="-234.14" font-family="Times,serif" font-size="14.00">a</text>
</g>
<!-- http://w3id.org/oseg/ont/okhimg#slots&#45;&gt;http://schema.org/DefinedTermSet -->
<g id="edge10" class="edge">
<title>http://w3id.org/oseg/ont/okhimg#slots&#45;&gt;http://schema.org/DefinedTermSet</title>
<path fill="none" stroke="black" d="M500.15,-130.78C518.19,-134.8 538.01,-139.98 555.7,-146.34 564.11,-149.36 565.19,-152.56 573.7,-155.34 639.18,-176.68 715.46,-189.63 775.9,-197.26"/>
<polygon fill="black" stroke="black" points="775.48,-200.74 785.84,-198.49 776.34,-193.79 775.48,-200.74"/>
<text text-anchor="middle" x="661.2" y="-197.14" font-family="Times,serif" font-size="14.00">a</text>
</g>
<!-- http://w3id.org/oseg/ont/okhimg#slots&#45;&gt;http://w3id.org/oseg/ont/okhimg#slotIconMain -->
<g id="edge5" class="edge">
<title>http://w3id.org/oseg/ont/okhimg#slots&#45;&gt;http://w3id.org/oseg/ont/okhimg#slotIconMain</title>
<path fill="none" stroke="black" d="M515.55,-124.46C583.34,-128.31 685.68,-134.13 765.16,-138.64"/>
<polygon fill="black" stroke="black" points="765.05,-142.14 775.23,-139.21 765.44,-135.15 765.05,-142.14"/>
<text text-anchor="middle" x="661.2" y="-140.14" font-family="Times,serif" font-size="14.00">schema:hasDefinedTerm</text>
</g>
</g>
</svg>
