<?xml version="1.0" encoding="UTF-8" standalone="no"?>
<!DOCTYPE svg PUBLIC "-//W3C//DTD SVG 1.1//EN"
 "http://www.w3.org/Graphics/SVG/1.1/DTD/svg11.dtd">
<!-- Generated by graphviz version 2.43.0 (0)
 -->
<!-- Title: G Pages: 1 -->
<svg width="1807pt" height="875pt"
 viewBox="0.00 0.00 1807.00 875.00" xmlns="http://www.w3.org/2000/svg" xmlns:xlink="http://www.w3.org/1999/xlink">
<g id="graph0" class="graph" transform="scale(1 1) rotate(0) translate(4 871)">
<title>G</title>
<polygon fill="white" stroke="transparent" points="-4,4 -4,-871 1803,-871 1803,4 -4,4"/>
<!-- http://spdx.org/rdf/terms#SpdxItem -->
<g id="node1" class="node">
<title>http://spdx.org/rdf/terms#SpdxItem</title>
<ellipse fill="none" stroke="#1f77b4" cx="1511.35" cy="-16.08" rx="87.86" ry="16.03"/>
<text text-anchor="middle" x="1511.35" y="-12.38" font-family="Times,serif" font-size="14.00">spdx:SpdxItem</text>
</g>
<!-- http://schema.org/DefinedTermSet -->
<g id="node2" class="node">
<title>http://schema.org/DefinedTermSet</title>
<ellipse fill="none" stroke="#1f77b4" cx="1364.49" cy="-407.17" rx="116.85" ry="16.03"/>
<text text-anchor="middle" x="1364.49" y="-403.47" font-family="Times,serif" font-size="14.00">schema:DefinedTer...</text>
</g>
<!-- http://w3id.org/oseg/ont/ods#Dataset -->
<g id="node3" class="node">
<title>http://w3id.org/oseg/ont/ods#Dataset</title>
<ellipse fill="none" stroke="#1f77b4" cx="1519.3" cy="-97.18" rx="71.34" ry="16.03"/>
<text text-anchor="middle" x="1519.3" y="-93.48" font-family="Times,serif" font-size="14.00">ods:Dataset</text>
</g>
<!-- http://schema.org/DefinedTerm -->
<g id="node4" class="node">
<title>http://schema.org/DefinedTerm</title>
<ellipse fill="none" stroke="#1f77b4" cx="511.52" cy="-550.58" rx="118.17" ry="16.03"/>
<text text-anchor="middle" x="511.52" y="-546.88" font-family="Times,serif" font-size="14.00">schema:DefinedTerm</text>
</g>
<!-- http://w3id.org/oseg/ont/0.1.0/okhimg -->
<g id="node5" class="node">
<title>http://w3id.org/oseg/ont/0.1.0/okhimg</title>
<ellipse fill="none" stroke="#e377c2" cx="1590.79" cy="-346.14" rx="70.01" ry="16.03"/>
<text text-anchor="middle" x="1590.79" y="-342.44" font-family="Times,serif" font-size="14.00">ns1:okhimg</text>
</g>
<!-- http://w3id.org/oseg/ont/okhimg#tagDiagram -->
<g id="node6" class="node">
<title>http://w3id.org/oseg/ont/okhimg#tagDiagram</title>
<ellipse fill="none" stroke="#e377c2" cx="725.15" cy="-291.18" rx="111.95" ry="16.03"/>
<text text-anchor="middle" x="725.15" y="-287.48" font-family="Times,serif" font-size="14.00">okhimg:tagDiagram</text>
</g>
<!-- http://w3id.org/oseg/ont/okhimg#tagDiagram&#45;&gt;http://schema.org/DefinedTerm -->
<g id="edge2" class="edge">
<title>http://w3id.org/oseg/ont/okhimg#tagDiagram&#45;&gt;http://schema.org/DefinedTerm</title>
<path fill="none" stroke="black" d="M711.78,-307.41C675.37,-351.62 574.24,-474.42 531.26,-526.61"/>
<polygon fill="black" stroke="black" points="528.53,-524.41 524.88,-534.36 533.94,-528.86 528.53,-524.41"/>
<text text-anchor="middle" x="617.02" y="-405.81" font-family="Times,serif" font-size="14.00">a</text>
</g>
<!-- http://w3id.org/oseg/ont/okhimg#tagColor -->
<g id="node7" class="node">
<title>http://w3id.org/oseg/ont/okhimg#tagColor</title>
<ellipse fill="none" stroke="#e377c2" cx="578.16" cy="-250.62" rx="95.42" ry="16.03"/>
<text text-anchor="middle" x="578.16" y="-246.92" font-family="Times,serif" font-size="14.00">okhimg:tagColor</text>
</g>
<!-- http://w3id.org/oseg/ont/okhimg#tagColor&#45;&gt;http://schema.org/DefinedTerm -->
<g id="edge3" class="edge">
<title>http://w3id.org/oseg/ont/okhimg#tagColor&#45;&gt;http://schema.org/DefinedTerm</title>
<path fill="none" stroke="black" d="M574.48,-267.18C563.49,-316.65 530.82,-463.69 517.39,-524.16"/>
<polygon fill="black" stroke="black" points="513.94,-523.55 515.19,-534.07 520.77,-525.07 513.94,-523.55"/>
<text text-anchor="middle" x="541.44" y="-399.47" font-family="Times,serif" font-size="14.00">a</text>
</g>
<!-- http://w3id.org/oseg/ont/okhimg -->
<g id="node8" class="node">
<title>http://w3id.org/oseg/ont/okhimg</title>
<ellipse fill="none" stroke="#e377c2" cx="1422.87" cy="-223.19" rx="70.01" ry="16.03"/>
<text text-anchor="middle" x="1422.87" y="-219.49" font-family="Times,serif" font-size="14.00">ns2:okhimg</text>
</g>
<!-- http://w3id.org/oseg/ont/okhimg&#45;&gt;http://spdx.org/rdf/terms#SpdxItem -->
<g id="edge13" class="edge">
<title>http://w3id.org/oseg/ont/okhimg&#45;&gt;http://spdx.org/rdf/terms#SpdxItem</title>
<path fill="none" stroke="black" d="M1429.81,-206.94C1445.12,-171.11 1481.87,-85.08 1500.35,-41.83"/>
<polygon fill="black" stroke="black" points="1503.6,-43.11 1504.31,-32.54 1497.17,-40.36 1503.6,-43.11"/>
<text text-anchor="middle" x="1460.58" y="-128.18" font-family="Times,serif" font-size="14.00">a</text>
</g>
<!-- http://w3id.org/oseg/ont/okhimg&#45;&gt;http://w3id.org/oseg/ont/ods#Dataset -->
<g id="edge4" class="edge">
<title>http://w3id.org/oseg/ont/okhimg&#45;&gt;http://w3id.org/oseg/ont/ods#Dataset</title>
<path fill="none" stroke="black" d="M1435.28,-206.97C1451.91,-185.24 1481.58,-146.47 1500.84,-121.3"/>
<polygon fill="black" stroke="black" points="1503.64,-123.4 1506.94,-113.33 1498.08,-119.15 1503.64,-123.4"/>
<text text-anchor="middle" x="1463.56" y="-167.94" font-family="Times,serif" font-size="14.00">a</text>
</g>
<!-- http://w3id.org/oseg/ont/okhimg&#45;&gt;http://w3id.org/oseg/ont/0.1.0/okhimg -->
<g id="edge1" class="edge">
<title>http://w3id.org/oseg/ont/okhimg&#45;&gt;http://w3id.org/oseg/ont/0.1.0/okhimg</title>
<path fill="none" stroke="black" d="M1444.14,-238.76C1473.7,-260.41 1527.38,-299.71 1560.94,-324.29"/>
<polygon fill="black" stroke="black" points="1559.29,-327.42 1569.43,-330.5 1563.43,-321.77 1559.29,-327.42"/>
<text text-anchor="middle" x="1451.04" y="-285.32" font-family="Times,serif" font-size="14.00">owl:versionIRI</text>
</g>
<!-- http://id.loc.gov/vocabulary/iso639&#45;1/en -->
<g id="node18" class="node">
<title>http://id.loc.gov/vocabulary/iso639&#45;1/en</title>
<ellipse fill="none" stroke="#e377c2" cx="1399.68" cy="-56.65" rx="45.01" ry="16.03"/>
<text text-anchor="middle" x="1399.68" y="-52.95" font-family="Times,serif" font-size="14.00">ns3:en</text>
</g>
<!-- http://w3id.org/oseg/ont/okhimg&#45;&gt;http://id.loc.gov/vocabulary/iso639&#45;1/en -->
<g id="edge16" class="edge">
<title>http://w3id.org/oseg/ont/okhimg&#45;&gt;http://id.loc.gov/vocabulary/iso639&#45;1/en</title>
<path fill="none" stroke="black" d="M1420.6,-206.92C1416.6,-178.14 1408.23,-118.01 1403.38,-83.17"/>
<polygon fill="black" stroke="black" points="1406.84,-82.65 1401.99,-73.23 1399.91,-83.62 1406.84,-82.65"/>
<text text-anchor="middle" x="1347.49" y="-148.84" font-family="Times,serif" font-size="14.00">dcterms:language</text>
</g>
<!-- http://w3id.org/oseg/ont/oseg&#45;profiles#Iopa -->
<g id="node25" class="node">
<title>http://w3id.org/oseg/ont/oseg&#45;profiles#Iopa</title>
<ellipse fill="none" stroke="#e377c2" cx="1642.51" cy="-278.38" rx="80.72" ry="16.03"/>
<text text-anchor="middle" x="1642.51" y="-274.68" font-family="Times,serif" font-size="14.00">osegprof:Iopa</text>
</g>
<!-- http://w3id.org/oseg/ont/okhimg&#45;&gt;http://w3id.org/oseg/ont/oseg&#45;profiles#Iopa -->
<g id="edge23" class="edge">
<title>http://w3id.org/oseg/ont/okhimg&#45;&gt;http://w3id.org/oseg/ont/oseg&#45;profiles#Iopa</title>
<path fill="none" stroke="black" d="M1470.53,-235.17C1503.14,-243.36 1546.66,-254.3 1581.76,-263.12"/>
<polygon fill="black" stroke="black" points="1581.34,-266.62 1591.89,-265.66 1583.04,-259.83 1581.34,-266.62"/>
<text text-anchor="middle" x="1460.64" y="-252.94" font-family="Times,serif" font-size="14.00">dcterms:publisher</text>
</g>
<!-- http://w3id.org/oseg/ont/okhimg#tags -->
<g id="node28" class="node">
<title>http://w3id.org/oseg/ont/okhimg#tags</title>
<ellipse fill="none" stroke="#e377c2" cx="1166.52" cy="-306.19" rx="73.58" ry="16.03"/>
<text text-anchor="middle" x="1166.52" y="-302.49" font-family="Times,serif" font-size="14.00">okhimg:tags</text>
</g>
<!-- http://w3id.org/oseg/ont/okhimg&#45;&gt;http://w3id.org/oseg/ont/okhimg#tags -->
<g id="edge27" class="edge">
<title>http://w3id.org/oseg/ont/okhimg&#45;&gt;http://w3id.org/oseg/ont/okhimg#tags</title>
<path fill="none" stroke="black" d="M1381.97,-236.43C1337.4,-250.86 1266.02,-273.97 1217.75,-289.6"/>
<polygon fill="black" stroke="black" points="1216.56,-286.31 1208.12,-292.72 1218.72,-292.97 1216.56,-286.31"/>
<text text-anchor="middle" x="1234.86" y="-266.82" font-family="Times,serif" font-size="14.00">void:rootResource</text>
</g>
<!-- http://spdx.org/licenses/AGPL&#45;3.0&#45;or&#45;later -->
<g id="node30" class="node">
<title>http://spdx.org/licenses/AGPL&#45;3.0&#45;or&#45;later</title>
<ellipse fill="none" stroke="#e377c2" cx="1687.35" cy="-215.02" rx="111.95" ry="16.03"/>
<text text-anchor="middle" x="1687.35" y="-211.32" font-family="Times,serif" font-size="14.00">spdxl:AGPL&#45;3.0&#45;or...</text>
</g>
<!-- http://w3id.org/oseg/ont/okhimg&#45;&gt;http://spdx.org/licenses/AGPL&#45;3.0&#45;or&#45;later -->
<g id="edge29" class="edge">
<title>http://w3id.org/oseg/ont/okhimg&#45;&gt;http://spdx.org/licenses/AGPL&#45;3.0&#45;or&#45;later</title>
<path fill="none" stroke="black" d="M1492.36,-221.04C1515.46,-220.33 1541.9,-219.51 1567.68,-218.72"/>
<polygon fill="black" stroke="black" points="1568.02,-222.21 1577.91,-218.4 1567.81,-215.21 1568.02,-222.21"/>
<text text-anchor="middle" x="1530.02" y="-208.68" font-family="Times,serif" font-size="14.00">spdx:licenseDeclared</text>
</g>
<!-- http://w3id.org/oseg/ont/oseg&#45;profiles#robinVobruba -->
<g id="node31" class="node">
<title>http://w3id.org/oseg/ont/oseg&#45;profiles#robinVobruba</title>
<ellipse fill="none" stroke="#e377c2" cx="1683.48" cy="-137.74" rx="113.69" ry="16.03"/>
<text text-anchor="middle" x="1683.48" y="-134.04" font-family="Times,serif" font-size="14.00">osegprof:robinVob...</text>
</g>
<!-- http://w3id.org/oseg/ont/okhimg&#45;&gt;http://w3id.org/oseg/ont/oseg&#45;profiles#robinVobruba -->
<g id="edge30" class="edge">
<title>http://w3id.org/oseg/ont/okhimg&#45;&gt;http://w3id.org/oseg/ont/oseg&#45;profiles#robinVobruba</title>
<path fill="none" stroke="black" d="M1474.19,-212.08C1523.06,-197.98 1595.7,-174.08 1641.29,-157.05"/>
<polygon fill="black" stroke="black" points="1642.76,-160.23 1650.86,-153.41 1640.27,-153.69 1642.76,-160.23"/>
<text text-anchor="middle" x="1500.24" y="-188.36" font-family="Times,serif" font-size="14.00">dcterms:creator</text>
</g>
<!-- http://w3id.org/oseg/ont/okhimg&#45;&gt;http://w3id.org/oseg/ont/oseg&#45;profiles#robinVobruba -->
<g id="edge44" class="edge">
<title>http://w3id.org/oseg/ont/okhimg&#45;&gt;http://w3id.org/oseg/ont/oseg&#45;profiles#robinVobruba</title>
<path fill="none" stroke="black" d="M1453.13,-208.43C1491.99,-193.3 1560.63,-170.29 1612.91,-154.53"/>
<polygon fill="black" stroke="black" points="1614.22,-157.8 1622.8,-151.58 1612.21,-151.09 1614.22,-157.8"/>
<text text-anchor="middle" x="1588.52" y="-170.28" font-family="Times,serif" font-size="14.00">schema:creator</text>
</g>
<!-- http://w3id.org/oseg/ont/okhimg#slots -->
<g id="node32" class="node">
<title>http://w3id.org/oseg/ont/okhimg#slots</title>
<ellipse fill="none" stroke="#e377c2" cx="1201.76" cy="-350.74" rx="75.82" ry="16.03"/>
<text text-anchor="middle" x="1201.76" y="-347.04" font-family="Times,serif" font-size="14.00">okhimg:slots</text>
</g>
<!-- http://w3id.org/oseg/ont/okhimg&#45;&gt;http://w3id.org/oseg/ont/okhimg#slots -->
<g id="edge31" class="edge">
<title>http://w3id.org/oseg/ont/okhimg&#45;&gt;http://w3id.org/oseg/ont/okhimg#slots</title>
<path fill="none" stroke="black" d="M1396.64,-238.32C1356.93,-261.23 1281.5,-304.74 1237.03,-330.39"/>
<polygon fill="black" stroke="black" points="1235.22,-327.4 1228.3,-335.43 1238.72,-333.46 1235.22,-327.4"/>
<text text-anchor="middle" x="1381.83" y="-273.16" font-family="Times,serif" font-size="14.00">void:rootResource</text>
</g>
<!-- http://w3id.org/oseg/ont/okhimg#slotPhotoPackaging -->
<g id="node9" class="node">
<title>http://w3id.org/oseg/ont/okhimg#slotPhotoPackaging</title>
<ellipse fill="none" stroke="#e377c2" cx="498.56" cy="-851.08" rx="113.69" ry="16.03"/>
<text text-anchor="middle" x="498.56" y="-847.38" font-family="Times,serif" font-size="14.00">okhimg:slotPhotoP...</text>
</g>
<!-- http://w3id.org/oseg/ont/okhimg#slotPhotoPackaging&#45;&gt;http://schema.org/DefinedTerm -->
<g id="edge5" class="edge">
<title>http://w3id.org/oseg/ont/okhimg#slotPhotoPackaging&#45;&gt;http://schema.org/DefinedTerm</title>
<path fill="none" stroke="black" d="M499.28,-834.49C501.41,-785.03 507.74,-638.23 510.36,-577.42"/>
<polygon fill="black" stroke="black" points="513.87,-577.25 510.81,-567.11 506.88,-576.95 513.87,-577.25"/>
<text text-anchor="middle" x="500.32" y="-694.76" font-family="Times,serif" font-size="14.00">a</text>
</g>
<!-- http://w3id.org/oseg/ont/okhimg#tagPhoto -->
<g id="node10" class="node">
<title>http://w3id.org/oseg/ont/okhimg#tagPhoto</title>
<ellipse fill="none" stroke="#e377c2" cx="284.49" cy="-767.49" rx="97.66" ry="16.03"/>
<text text-anchor="middle" x="284.49" y="-763.79" font-family="Times,serif" font-size="14.00">okhimg:tagPhoto</text>
</g>
<!-- http://w3id.org/oseg/ont/okhimg#tagPhoto&#45;&gt;http://schema.org/DefinedTerm -->
<g id="edge6" class="edge">
<title>http://w3id.org/oseg/ont/okhimg#tagPhoto&#45;&gt;http://schema.org/DefinedTerm</title>
<path fill="none" stroke="black" d="M301.56,-751.18C341.43,-713.09 440.81,-618.13 487.09,-573.92"/>
<polygon fill="black" stroke="black" points="489.76,-576.21 494.57,-566.77 484.92,-571.15 489.76,-576.21"/>
<text text-anchor="middle" x="389.83" y="-666.35" font-family="Times,serif" font-size="14.00">a</text>
</g>
<!-- http://w3id.org/oseg/ont/okhimg#slotOrganizationLogo -->
<g id="node11" class="node">
<title>http://w3id.org/oseg/ont/okhimg#slotOrganizationLogo</title>
<ellipse fill="none" stroke="#e377c2" cx="275.46" cy="-636.96" rx="114.6" ry="16.03"/>
<text text-anchor="middle" x="275.46" y="-633.26" font-family="Times,serif" font-size="14.00">okhimg:slotOrgani...</text>
</g>
<!-- http://w3id.org/oseg/ont/okhimg#slotOrganizationLogo&#45;&gt;http://schema.org/DefinedTerm -->
<g id="edge7" class="edge">
<title>http://w3id.org/oseg/ont/okhimg#slotOrganizationLogo&#45;&gt;http://schema.org/DefinedTerm</title>
<path fill="none" stroke="black" d="M317.12,-621.72C357.11,-607.08 417.6,-584.95 460.47,-569.26"/>
<polygon fill="black" stroke="black" points="461.69,-572.54 469.88,-565.81 459.29,-565.96 461.69,-572.54"/>
<text text-anchor="middle" x="384.3" y="-599.29" font-family="Times,serif" font-size="14.00">a</text>
</g>
<!-- http://w3id.org/oseg/ont/okhimg#slotOrganizationLogoBw -->
<g id="node33" class="node">
<title>http://w3id.org/oseg/ont/okhimg#slotOrganizationLogoBw</title>
<ellipse fill="none" stroke="#e377c2" cx="162.26" cy="-596.43" rx="114.6" ry="16.03"/>
<text text-anchor="middle" x="162.26" y="-592.73" font-family="Times,serif" font-size="14.00">okhimg:slotOrgani...</text>
</g>
<!-- http://w3id.org/oseg/ont/okhimg#slotOrganizationLogo&#45;&gt;http://w3id.org/oseg/ont/okhimg#slotOrganizationLogoBw -->
<g id="edge47" class="edge">
<title>http://w3id.org/oseg/ont/okhimg#slotOrganizationLogo&#45;&gt;http://w3id.org/oseg/ont/okhimg#slotOrganizationLogoBw</title>
<path fill="none" stroke="black" d="M248.9,-621.13C243.3,-618.75 237.15,-616.3 230.78,-613.89"/>
<polygon fill="black" stroke="black" points="231.94,-610.59 221.35,-610.42 229.53,-617.16 231.94,-610.59"/>
<text text-anchor="middle" x="267.34" y="-606.31" font-family="Times,serif" font-size="14.00">seeAlso</text>
</g>
<!-- http://w3id.org/oseg/ont/okhimg#slotModelFromBack -->
<g id="node12" class="node">
<title>http://w3id.org/oseg/ont/okhimg#slotModelFromBack</title>
<ellipse fill="none" stroke="#e377c2" cx="779.67" cy="-560.53" rx="116.85" ry="16.03"/>
<text text-anchor="middle" x="779.67" y="-556.83" font-family="Times,serif" font-size="14.00">okhimg:slotModelF...</text>
</g>
<!-- http://w3id.org/oseg/ont/okhimg#slotModelFromBack&#45;&gt;http://schema.org/DefinedTerm -->
<g id="edge8" class="edge">
<title>http://w3id.org/oseg/ont/okhimg#slotModelFromBack&#45;&gt;http://schema.org/DefinedTerm</title>
<path fill="none" stroke="black" d="M666.73,-556.34C656.53,-555.96 646.17,-555.57 635.88,-555.19"/>
<polygon fill="black" stroke="black" points="635.75,-551.69 625.62,-554.81 635.49,-558.68 635.75,-551.69"/>
<text text-anchor="middle" x="646.8" y="-559.57" font-family="Times,serif" font-size="14.00">a</text>
</g>
<!-- http://w3id.org/oseg/ont/okhimg#tagDrawing -->
<g id="node13" class="node">
<title>http://w3id.org/oseg/ont/okhimg#tagDrawing</title>
<ellipse fill="none" stroke="#e377c2" cx="172.09" cy="-537.87" rx="111.95" ry="16.03"/>
<text text-anchor="middle" x="172.09" y="-534.17" font-family="Times,serif" font-size="14.00">okhimg:tagDrawing</text>
</g>
<!-- http://w3id.org/oseg/ont/okhimg#tagDrawing&#45;&gt;http://schema.org/DefinedTerm -->
<g id="edge9" class="edge">
<title>http://w3id.org/oseg/ont/okhimg#tagDrawing&#45;&gt;http://schema.org/DefinedTerm</title>
<path fill="none" stroke="black" d="M280.42,-541.93C314.42,-543.2 352.2,-544.61 387.21,-545.92"/>
<polygon fill="black" stroke="black" points="387.37,-549.43 397.49,-546.31 387.63,-542.44 387.37,-549.43"/>
<text text-anchor="middle" x="329.32" y="-547.73" font-family="Times,serif" font-size="14.00">a</text>
</g>
<!-- http://w3id.org/oseg/ont/okhimg#tagLogo -->
<g id="node14" class="node">
<title>http://w3id.org/oseg/ont/okhimg#tagLogo</title>
<ellipse fill="none" stroke="#e377c2" cx="615.34" cy="-769.95" rx="92.76" ry="16.03"/>
<text text-anchor="middle" x="615.34" y="-766.25" font-family="Times,serif" font-size="14.00">okhimg:tagLogo</text>
</g>
<!-- http://w3id.org/oseg/ont/okhimg#tagLogo&#45;&gt;http://schema.org/DefinedTerm -->
<g id="edge11" class="edge">
<title>http://w3id.org/oseg/ont/okhimg#tagLogo&#45;&gt;http://schema.org/DefinedTerm</title>
<path fill="none" stroke="black" d="M607.53,-753.46C589.57,-715.49 545.16,-621.67 523.63,-576.15"/>
<polygon fill="black" stroke="black" points="526.71,-574.5 519.27,-566.96 520.39,-577.49 526.71,-574.5"/>
<text text-anchor="middle" x="561.08" y="-668.61" font-family="Times,serif" font-size="14.00">a</text>
</g>
<!-- http://w3id.org/oseg/ont/okhimg#tagIcon -->
<g id="node15" class="node">
<title>http://w3id.org/oseg/ont/okhimg#tagIcon</title>
<ellipse fill="none" stroke="#e377c2" cx="537.37" cy="-810.51" rx="89.61" ry="16.03"/>
<text text-anchor="middle" x="537.37" y="-806.81" font-family="Times,serif" font-size="14.00">okhimg:tagIcon</text>
</g>
<!-- http://w3id.org/oseg/ont/okhimg#tagIcon&#45;&gt;http://schema.org/DefinedTerm -->
<g id="edge12" class="edge">
<title>http://w3id.org/oseg/ont/okhimg#tagIcon&#45;&gt;http://schema.org/DefinedTerm</title>
<path fill="none" stroke="black" d="M535.71,-793.86C531.34,-749.93 519.48,-630.66 514.16,-577.17"/>
<polygon fill="black" stroke="black" points="517.64,-576.7 513.16,-567.09 510.67,-577.39 517.64,-576.7"/>
<text text-anchor="middle" x="520.44" y="-689.31" font-family="Times,serif" font-size="14.00">a</text>
</g>
<!-- http://w3id.org/oseg/ont/okhimg#slotLogoBw -->
<g id="node16" class="node">
<title>http://w3id.org/oseg/ont/okhimg#slotLogoBw</title>
<ellipse fill="none" stroke="#e377c2" cx="814.57" cy="-642.87" rx="111.03" ry="16.03"/>
<text text-anchor="middle" x="814.57" y="-639.17" font-family="Times,serif" font-size="14.00">okhimg:slotLogoBw</text>
</g>
<!-- http://w3id.org/oseg/ont/okhimg#slotLogoBw&#45;&gt;http://schema.org/DefinedTerm -->
<g id="edge14" class="edge">
<title>http://w3id.org/oseg/ont/okhimg#slotLogoBw&#45;&gt;http://schema.org/DefinedTerm</title>
<path fill="none" stroke="black" d="M766.22,-628.14C712.82,-611.88 626.88,-585.71 569.81,-568.33"/>
<polygon fill="black" stroke="black" points="570.79,-564.97 560.2,-565.4 568.75,-571.66 570.79,-564.97"/>
<text text-anchor="middle" x="663.51" y="-602.03" font-family="Times,serif" font-size="14.00">a</text>
</g>
<!-- http://w3id.org/oseg/ont/okhimg#slotLogo -->
<g id="node26" class="node">
<title>http://w3id.org/oseg/ont/okhimg#slotLogo</title>
<ellipse fill="none" stroke="#e377c2" cx="706.96" cy="-683.67" rx="94.51" ry="16.03"/>
<text text-anchor="middle" x="706.96" y="-679.97" font-family="Times,serif" font-size="14.00">okhimg:slotLogo</text>
</g>
<!-- http://w3id.org/oseg/ont/okhimg#slotLogoBw&#45;&gt;http://w3id.org/oseg/ont/okhimg#slotLogo -->
<g id="edge25" class="edge">
<title>http://w3id.org/oseg/ont/okhimg#slotLogoBw&#45;&gt;http://w3id.org/oseg/ont/okhimg#slotLogo</title>
<path fill="none" stroke="black" d="M758.37,-656.95C752.53,-659.17 746.72,-661.49 741.22,-663.8"/>
<polygon fill="black" stroke="black" points="739.5,-660.73 731.73,-667.93 742.3,-667.15 739.5,-660.73"/>
<text text-anchor="middle" x="777.3" y="-664.18" font-family="Times,serif" font-size="14.00">seeAlso</text>
</g>
<!-- http://w3id.org/oseg/ont/okhimg#slotIconMainBw -->
<g id="node17" class="node">
<title>http://w3id.org/oseg/ont/okhimg#slotIconMainBw</title>
<ellipse fill="none" stroke="#e377c2" cx="724.83" cy="-440.09" rx="117.26" ry="16.03"/>
<text text-anchor="middle" x="724.83" y="-436.39" font-family="Times,serif" font-size="14.00">okhimg:slotIconMa...</text>
</g>
<!-- http://w3id.org/oseg/ont/okhimg#slotIconMainBw&#45;&gt;http://schema.org/DefinedTerm -->
<g id="edge15" class="edge">
<title>http://w3id.org/oseg/ont/okhimg#slotIconMainBw&#45;&gt;http://schema.org/DefinedTerm</title>
<path fill="none" stroke="black" d="M694.27,-455.92C656.57,-475.45 592.4,-508.68 551.01,-530.12"/>
<polygon fill="black" stroke="black" points="549.3,-527.07 542.03,-534.78 552.51,-533.28 549.3,-527.07"/>
<text text-anchor="middle" x="618.14" y="-496.82" font-family="Times,serif" font-size="14.00">a</text>
</g>
<!-- http://w3id.org/oseg/ont/okhimg#slotIconMain -->
<g id="node23" class="node">
<title>http://w3id.org/oseg/ont/okhimg#slotIconMain</title>
<ellipse fill="none" stroke="#e377c2" cx="970.82" cy="-464.52" rx="117.26" ry="16.03"/>
<text text-anchor="middle" x="970.82" y="-460.82" font-family="Times,serif" font-size="14.00">okhimg:slotIconMain</text>
</g>
<!-- http://w3id.org/oseg/ont/okhimg#slotIconMainBw&#45;&gt;http://w3id.org/oseg/ont/okhimg#slotIconMain -->
<g id="edge40" class="edge">
<title>http://w3id.org/oseg/ont/okhimg#slotIconMainBw&#45;&gt;http://w3id.org/oseg/ont/okhimg#slotIconMain</title>
<path fill="none" stroke="black" d="M794.38,-453.19C811,-455.24 829.23,-457.25 847.47,-459.05"/>
<polygon fill="black" stroke="black" points="847.3,-462.56 857.59,-460.04 847.98,-455.59 847.3,-462.56"/>
<text text-anchor="middle" x="793.42" y="-459.92" font-family="Times,serif" font-size="14.00">seeAlso</text>
</g>
<!-- http://w3id.org/oseg/ont/okhimg#tagBw -->
<g id="node19" class="node">
<title>http://w3id.org/oseg/ont/okhimg#tagBw</title>
<ellipse fill="none" stroke="#e377c2" cx="583.87" cy="-378.34" rx="84.29" ry="16.03"/>
<text text-anchor="middle" x="583.87" y="-374.64" font-family="Times,serif" font-size="14.00">okhimg:tagBw</text>
</g>
<!-- http://w3id.org/oseg/ont/okhimg#tagBw&#45;&gt;http://schema.org/DefinedTerm -->
<g id="edge17" class="edge">
<title>http://w3id.org/oseg/ont/okhimg#tagBw&#45;&gt;http://schema.org/DefinedTerm</title>
<path fill="none" stroke="black" d="M576.93,-394.85C564.29,-424.95 537.43,-488.91 522.35,-524.79"/>
<polygon fill="black" stroke="black" points="519.08,-523.54 518.44,-534.11 525.54,-526.25 519.08,-523.54"/>
<text text-anchor="middle" x="545.14" y="-463.62" font-family="Times,serif" font-size="14.00">a</text>
</g>
<!-- http://w3id.org/oseg/ont/okhimg#slotSymbol -->
<g id="node20" class="node">
<title>http://w3id.org/oseg/ont/okhimg#slotSymbol</title>
<ellipse fill="none" stroke="#e377c2" cx="249.38" cy="-381.71" rx="108.38" ry="16.03"/>
<text text-anchor="middle" x="249.38" y="-378.01" font-family="Times,serif" font-size="14.00">okhimg:slotSymbol</text>
</g>
<!-- http://w3id.org/oseg/ont/okhimg#slotSymbol&#45;&gt;http://schema.org/DefinedTerm -->
<g id="edge18" class="edge">
<title>http://w3id.org/oseg/ont/okhimg#slotSymbol&#45;&gt;http://schema.org/DefinedTerm</title>
<path fill="none" stroke="black" d="M274.04,-397.6C321.37,-428.09 424.96,-494.82 478.31,-529.18"/>
<polygon fill="black" stroke="black" points="476.43,-532.14 486.73,-534.61 480.22,-526.25 476.43,-532.14"/>
<text text-anchor="middle" x="371.67" y="-467.19" font-family="Times,serif" font-size="14.00">a</text>
</g>
<!-- http://w3id.org/oseg/ont/okhimg#slotModelMain -->
<g id="node21" class="node">
<title>http://w3id.org/oseg/ont/okhimg#slotModelMain</title>
<ellipse fill="none" stroke="#e377c2" cx="140.23" cy="-298.47" rx="127.06" ry="16.03"/>
<text text-anchor="middle" x="140.23" y="-294.77" font-family="Times,serif" font-size="14.00">okhimg:slotModelMain</text>
</g>
<!-- http://w3id.org/oseg/ont/okhimg#slotModelMain&#45;&gt;http://schema.org/DefinedTerm -->
<g id="edge19" class="edge">
<title>http://w3id.org/oseg/ont/okhimg#slotModelMain&#45;&gt;http://schema.org/DefinedTerm</title>
<path fill="none" stroke="black" d="M164.02,-314.62C228.46,-358.38 406.45,-479.23 479.55,-528.87"/>
<polygon fill="black" stroke="black" points="477.69,-531.83 487.93,-534.56 481.62,-526.04 477.69,-531.83"/>
<text text-anchor="middle" x="317.28" y="-425.54" font-family="Times,serif" font-size="14.00">a</text>
</g>
<!-- http://w3id.org/oseg/ont/okhimg#slotSocial -->
<g id="node22" class="node">
<title>http://w3id.org/oseg/ont/okhimg#slotSocial</title>
<ellipse fill="none" stroke="#e377c2" cx="398.91" cy="-291.19" rx="101.23" ry="16.03"/>
<text text-anchor="middle" x="398.91" y="-287.49" font-family="Times,serif" font-size="14.00">okhimg:slotSocial</text>
</g>
<!-- http://w3id.org/oseg/ont/okhimg#slotSocial&#45;&gt;http://schema.org/DefinedTerm -->
<g id="edge20" class="edge">
<title>http://w3id.org/oseg/ont/okhimg#slotSocial&#45;&gt;http://schema.org/DefinedTerm</title>
<path fill="none" stroke="black" d="M405.96,-307.42C424.91,-351.08 477.12,-471.33 500.24,-524.6"/>
<polygon fill="black" stroke="black" points="497.14,-526.24 504.33,-534.02 503.56,-523.46 497.14,-526.24"/>
<text text-anchor="middle" x="448.6" y="-404.81" font-family="Times,serif" font-size="14.00">a</text>
</g>
<!-- http://w3id.org/oseg/ont/okhimg#slotIconMain&#45;&gt;http://schema.org/DefinedTerm -->
<g id="edge24" class="edge">
<title>http://w3id.org/oseg/ont/okhimg#slotIconMain&#45;&gt;http://schema.org/DefinedTerm</title>
<path fill="none" stroke="black" d="M900.81,-477.64C817.51,-493.25 678.74,-519.25 591.35,-535.62"/>
<polygon fill="black" stroke="black" points="590.66,-532.19 581.48,-537.47 591.95,-539.07 590.66,-532.19"/>
<text text-anchor="middle" x="741.58" y="-510.43" font-family="Times,serif" font-size="14.00">a</text>
</g>
<!-- http://w3id.org/oseg/ont/okhimg#slotIconMain&#45;&gt;http://w3id.org/oseg/ont/okhimg#slotIconMainBw -->
<g id="edge36" class="edge">
<title>http://w3id.org/oseg/ont/okhimg#slotIconMain&#45;&gt;http://w3id.org/oseg/ont/okhimg#slotIconMainBw</title>
<path fill="none" stroke="black" d="M901.27,-451.42C884.65,-449.38 866.42,-447.37 848.18,-445.56"/>
<polygon fill="black" stroke="black" points="848.34,-442.06 838.05,-444.57 847.67,-449.03 848.34,-442.06"/>
<text text-anchor="middle" x="902.22" y="-437.29" font-family="Times,serif" font-size="14.00">seeAlso</text>
</g>
<!-- http://w3id.org/oseg/ont/okhimg#slotModelFromRight -->
<g id="node24" class="node">
<title>http://w3id.org/oseg/ont/okhimg#slotModelFromRight</title>
<ellipse fill="none" stroke="#e377c2" cx="181.43" cy="-684.34" rx="116.85" ry="16.03"/>
<text text-anchor="middle" x="181.43" y="-680.64" font-family="Times,serif" font-size="14.00">okhimg:slotModelF...</text>
</g>
<!-- http://w3id.org/oseg/ont/okhimg#slotModelFromRight&#45;&gt;http://schema.org/DefinedTerm -->
<g id="edge22" class="edge">
<title>http://w3id.org/oseg/ont/okhimg#slotModelFromRight&#45;&gt;http://schema.org/DefinedTerm</title>
<path fill="none" stroke="black" d="M219.62,-668.87C280.2,-644.32 398.18,-596.51 464.09,-569.8"/>
<polygon fill="black" stroke="black" points="465.47,-573.02 473.42,-566.02 462.84,-566.53 465.47,-573.02"/>
<text text-anchor="middle" x="337.35" y="-608.13" font-family="Times,serif" font-size="14.00">a</text>
</g>
<!-- http://w3id.org/oseg/ont/okhimg#slotLogo&#45;&gt;http://schema.org/DefinedTerm -->
<g id="edge48" class="edge">
<title>http://w3id.org/oseg/ont/okhimg#slotLogo&#45;&gt;http://schema.org/DefinedTerm</title>
<path fill="none" stroke="black" d="M683.77,-667.88C648.9,-644.13 582.84,-599.14 543.44,-572.31"/>
<polygon fill="black" stroke="black" points="545.22,-569.29 534.98,-566.55 541.28,-575.07 545.22,-569.29"/>
<text text-anchor="middle" x="609.1" y="-623.89" font-family="Times,serif" font-size="14.00">a</text>
</g>
<!-- http://w3id.org/oseg/ont/okhimg#slotLogo&#45;&gt;http://w3id.org/oseg/ont/okhimg#slotLogoBw -->
<g id="edge45" class="edge">
<title>http://w3id.org/oseg/ont/okhimg#slotLogo&#45;&gt;http://w3id.org/oseg/ont/okhimg#slotLogoBw</title>
<path fill="none" stroke="black" d="M761.26,-670.29C767.54,-667.94 773.81,-665.46 779.72,-662.98"/>
<polygon fill="black" stroke="black" points="781.51,-666.02 789.29,-658.83 778.72,-659.6 781.51,-666.02"/>
<text text-anchor="middle" x="797.99" y="-670.44" font-family="Times,serif" font-size="14.00">seeAlso</text>
</g>
<!-- http://w3id.org/oseg/ont/okhimg#slotModelFromBelow -->
<g id="node27" class="node">
<title>http://w3id.org/oseg/ont/okhimg#slotModelFromBelow</title>
<ellipse fill="none" stroke="#e377c2" cx="792.86" cy="-352.38" rx="116.85" ry="16.03"/>
<text text-anchor="middle" x="792.86" y="-348.68" font-family="Times,serif" font-size="14.00">okhimg:slotModelF...</text>
</g>
<!-- http://w3id.org/oseg/ont/okhimg#slotModelFromBelow&#45;&gt;http://schema.org/DefinedTerm -->
<g id="edge26" class="edge">
<title>http://w3id.org/oseg/ont/okhimg#slotModelFromBelow&#45;&gt;http://schema.org/DefinedTerm</title>
<path fill="none" stroke="black" d="M769.84,-368.6C719.53,-404.04 599.76,-488.41 542.74,-528.59"/>
<polygon fill="black" stroke="black" points="540.63,-525.79 534.47,-534.41 544.66,-531.51 540.63,-525.79"/>
<text text-anchor="middle" x="651.79" y="-452.39" font-family="Times,serif" font-size="14.00">a</text>
</g>
<!-- http://w3id.org/oseg/ont/okhimg#tags&#45;&gt;http://schema.org/DefinedTermSet -->
<g id="edge41" class="edge">
<title>http://w3id.org/oseg/ont/okhimg#tags&#45;&gt;http://schema.org/DefinedTermSet</title>
<path fill="none" stroke="black" d="M1196.16,-321.31C1230.26,-338.7 1286.45,-367.36 1324.43,-386.73"/>
<polygon fill="black" stroke="black" points="1323.17,-390.02 1333.67,-391.45 1326.35,-383.79 1323.17,-390.02"/>
<text text-anchor="middle" x="1255.79" y="-357.82" font-family="Times,serif" font-size="14.00">a</text>
</g>
<!-- http://w3id.org/oseg/ont/okhimg#tagArt -->
<g id="node38" class="node">
<title>http://w3id.org/oseg/ont/okhimg#tagArt</title>
<ellipse fill="none" stroke="#e377c2" cx="882.61" cy="-399.02" rx="84.29" ry="16.03"/>
<text text-anchor="middle" x="882.61" y="-395.32" font-family="Times,serif" font-size="14.00">okhimg:tagArt</text>
</g>
<!-- http://w3id.org/oseg/ont/okhimg#tags&#45;&gt;http://w3id.org/oseg/ont/okhimg#tagArt -->
<g id="edge39" class="edge">
<title>http://w3id.org/oseg/ont/okhimg#tags&#45;&gt;http://w3id.org/oseg/ont/okhimg#tagArt</title>
<path fill="none" stroke="black" d="M1125.23,-319.69C1075.04,-336.1 990.24,-363.83 935.35,-381.77"/>
<polygon fill="black" stroke="black" points="934.22,-378.46 925.8,-384.89 936.4,-385.11 934.22,-378.46"/>
<text text-anchor="middle" x="1030.29" y="-339.53" font-family="Times,serif" font-size="14.00">schema:hasDefinedTerm</text>
</g>
<!-- http://w3id.org/oseg/ont/okhimg#slotModelFromLeft -->
<g id="node29" class="node">
<title>http://w3id.org/oseg/ont/okhimg#slotModelFromLeft</title>
<ellipse fill="none" stroke="#e377c2" cx="395.13" cy="-336.65" rx="116.85" ry="16.03"/>
<text text-anchor="middle" x="395.13" y="-332.95" font-family="Times,serif" font-size="14.00">okhimg:slotModelF...</text>
</g>
<!-- http://w3id.org/oseg/ont/okhimg#slotModelFromLeft&#45;&gt;http://schema.org/DefinedTerm -->
<g id="edge28" class="edge">
<title>http://w3id.org/oseg/ont/okhimg#slotModelFromLeft&#45;&gt;http://schema.org/DefinedTerm</title>
<path fill="none" stroke="black" d="M404.07,-353.08C424.25,-390.18 473.47,-480.65 497.65,-525.09"/>
<polygon fill="black" stroke="black" points="494.7,-526.98 502.55,-534.09 500.85,-523.63 494.7,-526.98"/>
<text text-anchor="middle" x="446.36" y="-442.88" font-family="Times,serif" font-size="14.00">a</text>
</g>
<!-- http://w3id.org/oseg/ont/okhimg#slots&#45;&gt;http://schema.org/DefinedTermSet -->
<g id="edge38" class="edge">
<title>http://w3id.org/oseg/ont/okhimg#slots&#45;&gt;http://schema.org/DefinedTermSet</title>
<path fill="none" stroke="black" d="M1241.99,-364.69C1262.81,-371.91 1288.52,-380.82 1310.99,-388.62"/>
<polygon fill="black" stroke="black" points="1310.14,-392.02 1320.73,-391.99 1312.43,-385.41 1310.14,-392.02"/>
<text text-anchor="middle" x="1280.99" y="-365.45" font-family="Times,serif" font-size="14.00">a</text>
</g>
<!-- http://w3id.org/oseg/ont/okhimg#slots&#45;&gt;http://w3id.org/oseg/ont/okhimg#slotIconMain -->
<g id="edge21" class="edge">
<title>http://w3id.org/oseg/ont/okhimg#slots&#45;&gt;http://w3id.org/oseg/ont/okhimg#slotIconMain</title>
<path fill="none" stroke="black" d="M1171.09,-365.85C1130.12,-386.04 1057.38,-421.88 1011.75,-444.36"/>
<polygon fill="black" stroke="black" points="1010.15,-441.24 1002.73,-448.8 1013.24,-447.52 1010.15,-441.24"/>
<text text-anchor="middle" x="1135.17" y="-393.9" font-family="Times,serif" font-size="14.00">schema:hasDefinedTerm</text>
</g>
<!-- http://w3id.org/oseg/ont/okhimg#slotOrganizationLogoBw&#45;&gt;http://schema.org/DefinedTerm -->
<g id="edge32" class="edge">
<title>http://w3id.org/oseg/ont/okhimg#slotOrganizationLogoBw&#45;&gt;http://schema.org/DefinedTerm</title>
<path fill="none" stroke="black" d="M246.8,-585.33C297.82,-578.63 362.97,-570.08 415.87,-563.14"/>
<polygon fill="black" stroke="black" points="416.47,-566.59 425.93,-561.81 415.56,-559.65 416.47,-566.59"/>
<text text-anchor="middle" x="326.83" y="-578.03" font-family="Times,serif" font-size="14.00">a</text>
</g>
<!-- http://w3id.org/oseg/ont/okhimg#slotOrganizationLogoBw&#45;&gt;http://w3id.org/oseg/ont/okhimg#slotOrganizationLogo -->
<g id="edge10" class="edge">
<title>http://w3id.org/oseg/ont/okhimg#slotOrganizationLogoBw&#45;&gt;http://w3id.org/oseg/ont/okhimg#slotOrganizationLogo</title>
<path fill="none" stroke="black" d="M188.82,-612.26C194.42,-614.65 200.57,-617.1 206.93,-619.5"/>
<polygon fill="black" stroke="black" points="205.77,-622.81 216.36,-622.97 208.19,-616.24 205.77,-622.81"/>
<text text-anchor="middle" x="170.37" y="-619.68" font-family="Times,serif" font-size="14.00">seeAlso</text>
</g>
<!-- http://w3id.org/oseg/ont/okhimg#tagGray -->
<g id="node34" class="node">
<title>http://w3id.org/oseg/ont/okhimg#tagGray</title>
<ellipse fill="none" stroke="#e377c2" cx="464.73" cy="-726.93" rx="92.76" ry="16.03"/>
<text text-anchor="middle" x="464.73" y="-723.23" font-family="Times,serif" font-size="14.00">okhimg:tagGray</text>
</g>
<!-- http://w3id.org/oseg/ont/okhimg#tagGray&#45;&gt;http://schema.org/DefinedTerm -->
<g id="edge33" class="edge">
<title>http://w3id.org/oseg/ont/okhimg#tagGray&#45;&gt;http://schema.org/DefinedTerm</title>
<path fill="none" stroke="black" d="M469.05,-710.65C477.14,-680.15 494.66,-614.14 504.48,-577.12"/>
<polygon fill="black" stroke="black" points="507.96,-577.63 507.15,-567.07 501.2,-575.84 507.96,-577.63"/>
<text text-anchor="middle" x="482.26" y="-647.69" font-family="Times,serif" font-size="14.00">a</text>
</g>
<!-- http://w3id.org/oseg/ont/okhimg#slotModel3D -->
<g id="node35" class="node">
<title>http://w3id.org/oseg/ont/okhimg#slotModel3D</title>
<ellipse fill="none" stroke="#e377c2" cx="357.07" cy="-423.07" rx="115.93" ry="16.03"/>
<text text-anchor="middle" x="357.07" y="-419.37" font-family="Times,serif" font-size="14.00">okhimg:slotModel3D</text>
</g>
<!-- http://w3id.org/oseg/ont/okhimg#slotModel3D&#45;&gt;http://schema.org/DefinedTerm -->
<g id="edge34" class="edge">
<title>http://w3id.org/oseg/ont/okhimg#slotModel3D&#45;&gt;http://schema.org/DefinedTerm</title>
<path fill="none" stroke="black" d="M376.63,-439.22C403.75,-461.61 452.92,-502.2 483.82,-527.71"/>
<polygon fill="black" stroke="black" points="481.69,-530.49 491.63,-534.16 486.15,-525.09 481.69,-530.49"/>
<text text-anchor="middle" x="425.72" y="-487.26" font-family="Times,serif" font-size="14.00">a</text>
</g>
<!-- http://w3id.org/oseg/ont/okhimg#tagModel -->
<g id="node36" class="node">
<title>http://w3id.org/oseg/ont/okhimg#tagModel</title>
<ellipse fill="none" stroke="#e377c2" cx="339.77" cy="-808.05" rx="99.9" ry="16.03"/>
<text text-anchor="middle" x="339.77" y="-804.35" font-family="Times,serif" font-size="14.00">okhimg:tagModel</text>
</g>
<!-- http://w3id.org/oseg/ont/okhimg#tagModel&#45;&gt;http://schema.org/DefinedTerm -->
<g id="edge35" class="edge">
<title>http://w3id.org/oseg/ont/okhimg#tagModel&#45;&gt;http://schema.org/DefinedTerm</title>
<path fill="none" stroke="black" d="M350.78,-791.55C380.1,-747.59 460.25,-627.43 495.04,-575.28"/>
<polygon fill="black" stroke="black" points="497.97,-577.2 500.61,-566.94 492.15,-573.31 497.97,-577.2"/>
<text text-anchor="middle" x="418.41" y="-687.21" font-family="Times,serif" font-size="14.00">a</text>
</g>
<!-- http://w3id.org/oseg/ont/okhimg#slotModelFromAbove -->
<g id="node37" class="node">
<title>http://w3id.org/oseg/ont/okhimg#slotModelFromAbove</title>
<ellipse fill="none" stroke="#e377c2" cx="116.23" cy="-424.95" rx="116.85" ry="16.03"/>
<text text-anchor="middle" x="116.23" y="-421.25" font-family="Times,serif" font-size="14.00">okhimg:slotModelF...</text>
</g>
<!-- http://w3id.org/oseg/ont/okhimg#slotModelFromAbove&#45;&gt;http://schema.org/DefinedTerm -->
<g id="edge37" class="edge">
<title>http://w3id.org/oseg/ont/okhimg#slotModelFromAbove&#45;&gt;http://schema.org/DefinedTerm</title>
<path fill="none" stroke="black" d="M163.13,-439.86C235.99,-463.01 376.13,-507.55 454.65,-532.5"/>
<polygon fill="black" stroke="black" points="453.79,-535.9 464.38,-535.59 455.91,-529.23 453.79,-535.9"/>
<text text-anchor="middle" x="313.39" y="-489.98" font-family="Times,serif" font-size="14.00">a</text>
</g>
<!-- http://w3id.org/oseg/ont/okhimg#tagArt&#45;&gt;http://schema.org/DefinedTerm -->
<g id="edge49" class="edge">
<title>http://w3id.org/oseg/ont/okhimg#tagArt&#45;&gt;http://schema.org/DefinedTerm</title>
<path fill="none" stroke="black" d="M846.35,-413.83C778.89,-441.38 634.15,-500.49 558.99,-531.19"/>
<polygon fill="black" stroke="black" points="557.24,-528.12 549.31,-535.14 559.89,-534.6 557.24,-528.12"/>
<text text-anchor="middle" x="698.17" y="-476.31" font-family="Times,serif" font-size="14.00">a</text>
</g>
<!-- http://w3id.org/oseg/ont/okhimg#tagScreenshot -->
<g id="node39" class="node">
<title>http://w3id.org/oseg/ont/okhimg#tagScreenshot</title>
<ellipse fill="none" stroke="#e377c2" cx="841.26" cy="-757.46" rx="125.32" ry="16.03"/>
<text text-anchor="middle" x="841.26" y="-753.76" font-family="Times,serif" font-size="14.00">okhimg:tagScreenshot</text>
</g>
<!-- http://w3id.org/oseg/ont/okhimg#tagScreenshot&#45;&gt;http://schema.org/DefinedTerm -->
<g id="edge42" class="edge">
<title>http://w3id.org/oseg/ont/okhimg#tagScreenshot&#45;&gt;http://schema.org/DefinedTerm</title>
<path fill="none" stroke="black" d="M815.66,-741.4C756.84,-704.49 612.03,-613.64 545.7,-572.02"/>
<polygon fill="black" stroke="black" points="547.21,-568.84 536.88,-566.49 543.49,-574.77 547.21,-568.84"/>
<text text-anchor="middle" x="676.18" y="-645.51" font-family="Times,serif" font-size="14.00">a</text>
</g>
<!-- http://w3id.org/oseg/ont/okhimg#tagAssembly -->
<g id="node40" class="node">
<title>http://w3id.org/oseg/ont/okhimg#tagAssembly</title>
<ellipse fill="none" stroke="#e377c2" cx="199.1" cy="-479.47" rx="116.85" ry="16.03"/>
<text text-anchor="middle" x="199.1" y="-475.77" font-family="Times,serif" font-size="14.00">okhimg:tagAssembly</text>
</g>
<!-- http://w3id.org/oseg/ont/okhimg#tagAssembly&#45;&gt;http://schema.org/DefinedTerm -->
<g id="edge43" class="edge">
<title>http://w3id.org/oseg/ont/okhimg#tagAssembly&#45;&gt;http://schema.org/DefinedTerm</title>
<path fill="none" stroke="black" d="M260.08,-493.35C311.74,-505.11 385.86,-521.98 440.25,-534.36"/>
<polygon fill="black" stroke="black" points="439.63,-537.81 450.16,-536.61 441.19,-530.98 439.63,-537.81"/>
<text text-anchor="middle" x="345.66" y="-517.65" font-family="Times,serif" font-size="14.00">a</text>
</g>
<!-- http://w3id.org/oseg/ont/okhimg#slotModelFromFront -->
<g id="node41" class="node">
<title>http://w3id.org/oseg/ont/okhimg#slotModelFromFront</title>
<ellipse fill="none" stroke="#e377c2" cx="761.19" cy="-810.5" rx="116.85" ry="16.03"/>
<text text-anchor="middle" x="761.19" y="-806.8" font-family="Times,serif" font-size="14.00">okhimg:slotModelF...</text>
</g>
<!-- http://w3id.org/oseg/ont/okhimg#slotModelFromFront&#45;&gt;http://schema.org/DefinedTerm -->
<g id="edge46" class="edge">
<title>http://w3id.org/oseg/ont/okhimg#slotModelFromFront&#45;&gt;http://schema.org/DefinedTerm</title>
<path fill="none" stroke="black" d="M745.58,-794.24C702.93,-749.84 584.34,-626.38 534.28,-574.27"/>
<polygon fill="black" stroke="black" points="536.58,-571.62 527.13,-566.83 531.54,-576.47 536.58,-571.62"/>
<text text-anchor="middle" x="635.43" y="-688.05" font-family="Times,serif" font-size="14.00">a</text>
</g>
<!-- http://w3id.org/oseg/ont/okhimg#slotPhotoThingMain -->
<g id="node42" class="node">
<title>http://w3id.org/oseg/ont/okhimg#slotPhotoThingMain</title>
<ellipse fill="none" stroke="#e377c2" cx="171.07" cy="-726.88" rx="114.6" ry="16.03"/>
<text text-anchor="middle" x="171.07" y="-723.18" font-family="Times,serif" font-size="14.00">okhimg:slotPhotoT...</text>
</g>
<!-- http://w3id.org/oseg/ont/okhimg#slotPhotoThingMain&#45;&gt;http://schema.org/DefinedTerm -->
<g id="edge50" class="edge">
<title>http://w3id.org/oseg/ont/okhimg#slotPhotoThingMain&#45;&gt;http://schema.org/DefinedTerm</title>
<path fill="none" stroke="black" d="M201.58,-711.08C263.31,-679.11 402.97,-606.79 471.74,-571.18"/>
<polygon fill="black" stroke="black" points="473.68,-574.11 480.95,-566.41 470.46,-567.9 473.68,-574.11"/>
<text text-anchor="middle" x="332.16" y="-644.93" font-family="Times,serif" font-size="14.00">a</text>
</g>
</g>
</svg>
