<?xml version="1.0" encoding="UTF-8" standalone="no"?>
<!DOCTYPE svg PUBLIC "-//W3C//DTD SVG 1.1//EN"
 "http://www.w3.org/Graphics/SVG/1.1/DTD/svg11.dtd">
<!-- Generated by graphviz version 2.43.0 (0)
 -->
<!-- Title: G Pages: 1 -->
<svg width="629pt" height="1219pt"
 viewBox="0.00 0.00 628.51 1218.95" xmlns="http://www.w3.org/2000/svg" xmlns:xlink="http://www.w3.org/1999/xlink">
<g id="graph0" class="graph" transform="scale(1 1) rotate(0) translate(4 1214.95)">
<title>G</title>
<polygon fill="white" stroke="transparent" points="-4,4 -4,-1214.95 624.51,-1214.95 624.51,4 -4,4"/>
<!-- http://spdx.org/rdf/terms#SpdxItem -->
<g id="node1" class="node">
<title>http://spdx.org/rdf/terms#SpdxItem</title>
<ellipse fill="none" stroke="#1f77b4" cx="497.47" cy="-388.68" rx="87.86" ry="16.03"/>
<text text-anchor="middle" x="497.47" y="-384.98" font-family="Times,serif" font-size="14.00">spdx:SpdxItem</text>
</g>
<!-- http://w3id.org/oseg/ont/otrl#ODRL -->
<g id="node2" class="node">
<title>http://w3id.org/oseg/ont/otrl#ODRL</title>
<ellipse fill="none" stroke="#e377c2" cx="497.47" cy="-1041.68" rx="62.87" ry="16.03"/>
<text text-anchor="middle" x="497.47" y="-1037.98" font-family="Times,serif" font-size="14.00">otrl:ODRL</text>
</g>
<!-- http://www.w3.org/2002/07/owl#DatatypeProperty -->
<g id="node3" class="node">
<title>http://www.w3.org/2002/07/owl#DatatypeProperty</title>
<ellipse fill="none" stroke="#1f77b4" cx="497.47" cy="-870.68" rx="123.07" ry="16.03"/>
<text text-anchor="middle" x="497.47" y="-866.98" font-family="Times,serif" font-size="14.00">owl:DatatypeProperty</text>
</g>
<!-- http://w3id.org/oseg/ont/otrl#OTRL -->
<g id="node4" class="node">
<title>http://w3id.org/oseg/ont/otrl#OTRL</title>
<ellipse fill="none" stroke="#e377c2" cx="497.47" cy="-601.68" rx="60.62" ry="16.03"/>
<text text-anchor="middle" x="497.47" y="-597.98" font-family="Times,serif" font-size="14.00">otrl:OTRL</text>
</g>
<!-- http://www.w3.org/2002/07/owl#Ontology -->
<g id="node5" class="node">
<title>http://www.w3.org/2002/07/owl#Ontology</title>
<ellipse fill="none" stroke="#1f77b4" cx="497.47" cy="-337.68" rx="77.56" ry="16.03"/>
<text text-anchor="middle" x="497.47" y="-333.98" font-family="Times,serif" font-size="14.00">owl:Ontology</text>
</g>
<!-- http://w3id.org/oseg/ont/otrl#ODRL3 -->
<g id="node6" class="node">
<title>http://w3id.org/oseg/ont/otrl#ODRL3</title>
<ellipse fill="none" stroke="#e377c2" cx="91.22" cy="-990.68" rx="69.09" ry="16.03"/>
<text text-anchor="middle" x="91.22" y="-986.98" font-family="Times,serif" font-size="14.00">otrl:ODRL3</text>
</g>
<!-- http://w3id.org/oseg/ont/otrl#ODRL3&#45;&gt;http://w3id.org/oseg/ont/otrl#ODRL -->
<g id="edge1" class="edge">
<title>http://w3id.org/oseg/ont/otrl#ODRL3&#45;&gt;http://w3id.org/oseg/ont/otrl#ODRL</title>
<path fill="none" stroke="black" d="M153.64,-997.87C207.21,-1004.2 287,-1013.77 356.43,-1022.68 381.03,-1025.84 408.03,-1029.46 431.7,-1032.7"/>
<polygon fill="black" stroke="black" points="431.24,-1036.17 441.63,-1034.06 432.19,-1029.23 431.24,-1036.17"/>
<text text-anchor="middle" x="278.43" y="-1026.48" font-family="Times,serif" font-size="14.00">a</text>
</g>
<!-- http://w3id.org/oseg/ont/oseg&#45;profiles#robinVobruba -->
<g id="node7" class="node">
<title>http://w3id.org/oseg/ont/oseg&#45;profiles#robinVobruba</title>
<ellipse fill="none" stroke="#e377c2" cx="497.47" cy="-285.68" rx="113.69" ry="16.03"/>
<text text-anchor="middle" x="497.47" y="-281.98" font-family="Times,serif" font-size="14.00">osegprof:robinVob...</text>
</g>
<!-- http://w3id.org/oseg/ont/oseg&#45;profiles#Iopa -->
<g id="node8" class="node">
<title>http://w3id.org/oseg/ont/oseg&#45;profiles#Iopa</title>
<ellipse fill="none" stroke="#e377c2" cx="497.47" cy="-231.68" rx="80.72" ry="16.03"/>
<text text-anchor="middle" x="497.47" y="-227.98" font-family="Times,serif" font-size="14.00">osegprof:Iopa</text>
</g>
<!-- http://w3id.org/oseg/ont/otrl#exitCriteria -->
<g id="node9" class="node">
<title>http://w3id.org/oseg/ont/otrl#exitCriteria</title>
<ellipse fill="none" stroke="#e377c2" cx="91.22" cy="-873.68" rx="91.43" ry="16.03"/>
<text text-anchor="middle" x="91.22" y="-869.98" font-family="Times,serif" font-size="14.00">otrl:exitCriteria</text>
</g>
<!-- http://w3id.org/oseg/ont/otrl#exitCriteria&#45;&gt;http://w3id.org/oseg/ont/otrl#ODRL -->
<g id="edge17" class="edge">
<title>http://w3id.org/oseg/ont/otrl#exitCriteria&#45;&gt;http://w3id.org/oseg/ont/otrl#ODRL</title>
<path fill="none" stroke="black" d="M118.75,-889.44C140.31,-901.86 171.73,-919.12 200.43,-931.68 267.65,-961.1 287.69,-960.05 356.43,-985.68 389.35,-997.95 426.24,-1012.75 453.88,-1024.04"/>
<polygon fill="black" stroke="black" points="452.67,-1027.33 463.25,-1027.89 455.33,-1020.85 452.67,-1027.33"/>
<text text-anchor="middle" x="278.43" y="-989.48" font-family="Times,serif" font-size="14.00">dcam:domainIncludes</text>
</g>
<!-- http://w3id.org/oseg/ont/otrl#exitCriteria&#45;&gt;http://www.w3.org/2002/07/owl#DatatypeProperty -->
<g id="edge2" class="edge">
<title>http://w3id.org/oseg/ont/otrl#exitCriteria&#45;&gt;http://www.w3.org/2002/07/owl#DatatypeProperty</title>
<path fill="none" stroke="black" d="M131.69,-888.33C151.93,-895.07 177.17,-902.31 200.43,-905.68 269.05,-915.61 287.62,-914.15 356.43,-905.68 383.99,-902.29 413.92,-895.28 439.02,-888.42"/>
<polygon fill="black" stroke="black" points="440.05,-891.76 448.74,-885.7 438.16,-885.02 440.05,-891.76"/>
<text text-anchor="middle" x="278.43" y="-916.48" font-family="Times,serif" font-size="14.00">a</text>
</g>
<!-- http://w3id.org/oseg/ont/otrl#exitCriteria&#45;&gt;http://w3id.org/oseg/ont/otrl#OTRL -->
<g id="edge11" class="edge">
<title>http://w3id.org/oseg/ont/otrl#exitCriteria&#45;&gt;http://w3id.org/oseg/ont/otrl#OTRL</title>
<path fill="none" stroke="black" d="M126.16,-858.43C144.76,-848.69 167.09,-834.52 182.43,-816.68 195.41,-801.6 184.57,-787.7 200.43,-775.68 256.23,-733.38 294.43,-786.22 356.43,-753.68 413.31,-723.84 459.11,-661.41 481.52,-626.56"/>
<polygon fill="black" stroke="black" points="484.59,-628.25 486.96,-617.92 478.67,-624.52 484.59,-628.25"/>
<text text-anchor="middle" x="278.43" y="-779.48" font-family="Times,serif" font-size="14.00">dcam:domainIncludes</text>
</g>
<!-- http://www.w3.org/1999/02/22&#45;rdf&#45;syntax&#45;ns#langString -->
<g id="node19" class="node">
<title>http://www.w3.org/1999/02/22&#45;rdf&#45;syntax&#45;ns#langString</title>
<ellipse fill="none" stroke="#e377c2" cx="497.47" cy="-778.68" rx="83.38" ry="16.03"/>
<text text-anchor="middle" x="497.47" y="-774.98" font-family="Times,serif" font-size="14.00">rdf:langString</text>
</g>
<!-- http://w3id.org/oseg/ont/otrl#exitCriteria&#45;&gt;http://www.w3.org/1999/02/22&#45;rdf&#45;syntax&#45;ns#langString -->
<g id="edge8" class="edge">
<title>http://w3id.org/oseg/ont/otrl#exitCriteria&#45;&gt;http://www.w3.org/1999/02/22&#45;rdf&#45;syntax&#45;ns#langString</title>
<path fill="none" stroke="black" d="M152.23,-861.53C167.89,-858.5 184.78,-855.35 200.43,-852.68 269.52,-840.89 288.49,-846.87 356.43,-829.68 389.27,-821.37 425.15,-808.22 452.37,-797.36"/>
<polygon fill="black" stroke="black" points="454.02,-800.46 461.98,-793.47 451.4,-793.97 454.02,-800.46"/>
<text text-anchor="middle" x="278.43" y="-856.48" font-family="Times,serif" font-size="14.00">range</text>
</g>
<!-- http://w3id.org/oseg/ont/otrl#ODRL2 -->
<g id="node10" class="node">
<title>http://w3id.org/oseg/ont/otrl#ODRL2</title>
<ellipse fill="none" stroke="#e377c2" cx="91.22" cy="-1194.68" rx="69.09" ry="16.03"/>
<text text-anchor="middle" x="91.22" y="-1190.98" font-family="Times,serif" font-size="14.00">otrl:ODRL2</text>
</g>
<!-- http://w3id.org/oseg/ont/otrl#ODRL2&#45;&gt;http://w3id.org/oseg/ont/otrl#ODRL -->
<g id="edge18" class="edge">
<title>http://w3id.org/oseg/ont/otrl#ODRL2&#45;&gt;http://w3id.org/oseg/ont/otrl#ODRL</title>
<path fill="none" stroke="black" d="M159.63,-1191.8C214.59,-1187.4 293.19,-1176.35 356.43,-1148.68 402.67,-1128.45 447.46,-1089.87 473.47,-1064.99"/>
<polygon fill="black" stroke="black" points="476.19,-1067.22 480.92,-1057.74 471.31,-1062.2 476.19,-1067.22"/>
<text text-anchor="middle" x="278.43" y="-1190.48" font-family="Times,serif" font-size="14.00">a</text>
</g>
<!-- http://w3id.org/oseg/ont/otrl#goal -->
<g id="node11" class="node">
<title>http://w3id.org/oseg/ont/otrl#goal</title>
<ellipse fill="none" stroke="#e377c2" cx="91.22" cy="-791.68" rx="54.39" ry="16.03"/>
<text text-anchor="middle" x="91.22" y="-787.98" font-family="Times,serif" font-size="14.00">otrl:goal</text>
</g>
<!-- http://w3id.org/oseg/ont/otrl#goal&#45;&gt;http://w3id.org/oseg/ont/otrl#ODRL -->
<g id="edge27" class="edge">
<title>http://w3id.org/oseg/ont/otrl#goal&#45;&gt;http://w3id.org/oseg/ont/otrl#ODRL</title>
<path fill="none" stroke="black" d="M118.26,-805.81C136.93,-816.49 162.25,-832.09 182.43,-848.68 191.42,-856.07 190.05,-862.45 200.43,-867.68 262.81,-899.11 294.44,-854.51 356.43,-886.68 414.35,-916.73 460.03,-981.11 482.06,-1016.71"/>
<polygon fill="black" stroke="black" points="479.22,-1018.78 487.4,-1025.52 485.21,-1015.16 479.22,-1018.78"/>
<text text-anchor="middle" x="278.43" y="-890.48" font-family="Times,serif" font-size="14.00">dcam:domainIncludes</text>
</g>
<!-- http://w3id.org/oseg/ont/otrl#goal&#45;&gt;http://www.w3.org/2002/07/owl#DatatypeProperty -->
<g id="edge19" class="edge">
<title>http://w3id.org/oseg/ont/otrl#goal&#45;&gt;http://www.w3.org/2002/07/owl#DatatypeProperty</title>
<path fill="none" stroke="black" d="M145.83,-791.77C199.74,-792.92 284.88,-797.65 356.43,-814.68 390.95,-822.9 428.17,-838.11 455.55,-850.61"/>
<polygon fill="black" stroke="black" points="454.26,-853.87 464.81,-854.9 457.21,-847.51 454.26,-853.87"/>
<text text-anchor="middle" x="278.43" y="-818.48" font-family="Times,serif" font-size="14.00">a</text>
</g>
<!-- http://w3id.org/oseg/ont/otrl#goal&#45;&gt;http://w3id.org/oseg/ont/otrl#OTRL -->
<g id="edge23" class="edge">
<title>http://w3id.org/oseg/ont/otrl#goal&#45;&gt;http://w3id.org/oseg/ont/otrl#OTRL</title>
<path fill="none" stroke="black" d="M108.35,-775.98C128.3,-757.47 164.1,-727.15 200.43,-710.68 264.98,-681.43 289.93,-702.17 356.43,-677.68 395.61,-663.25 437.27,-639.42 464.87,-622.29"/>
<polygon fill="black" stroke="black" points="467.06,-625.04 473.66,-616.76 463.33,-619.12 467.06,-625.04"/>
<text text-anchor="middle" x="278.43" y="-714.48" font-family="Times,serif" font-size="14.00">dcam:domainIncludes</text>
</g>
<!-- http://w3id.org/oseg/ont/otrl#goal&#45;&gt;http://www.w3.org/1999/02/22&#45;rdf&#45;syntax&#45;ns#langString -->
<g id="edge13" class="edge">
<title>http://w3id.org/oseg/ont/otrl#goal&#45;&gt;http://www.w3.org/1999/02/22&#45;rdf&#45;syntax&#45;ns#langString</title>
<path fill="none" stroke="black" d="M114.71,-776.86C135.84,-763.89 168.84,-746 200.43,-738.68 267.98,-723.03 287.77,-729.07 356.43,-738.68 387.3,-743 420.9,-752.44 447.45,-761.06"/>
<polygon fill="black" stroke="black" points="446.67,-764.48 457.27,-764.31 448.87,-757.84 446.67,-764.48"/>
<text text-anchor="middle" x="278.43" y="-742.48" font-family="Times,serif" font-size="14.00">range</text>
</g>
<!-- http://spdx.org/licenses/GPL&#45;3.0&#45;or&#45;later -->
<g id="node12" class="node">
<title>http://spdx.org/licenses/GPL&#45;3.0&#45;or&#45;later</title>
<ellipse fill="none" stroke="#e377c2" cx="497.47" cy="-180.68" rx="108.79" ry="16.03"/>
<text text-anchor="middle" x="497.47" y="-176.98" font-family="Times,serif" font-size="14.00">spdxl:GPL&#45;3.0&#45;or&#45;...</text>
</g>
<!-- http://w3id.org/oseg/ont/otrl#OTRL4 -->
<g id="node13" class="node">
<title>http://w3id.org/oseg/ont/otrl#OTRL4</title>
<ellipse fill="none" stroke="#e377c2" cx="91.22" cy="-528.68" rx="67.35" ry="16.03"/>
<text text-anchor="middle" x="91.22" y="-524.98" font-family="Times,serif" font-size="14.00">otrl:OTRL4</text>
</g>
<!-- http://w3id.org/oseg/ont/otrl#OTRL4&#45;&gt;http://w3id.org/oseg/ont/otrl#OTRL -->
<g id="edge3" class="edge">
<title>http://w3id.org/oseg/ont/otrl#OTRL4&#45;&gt;http://w3id.org/oseg/ont/otrl#OTRL</title>
<path fill="none" stroke="black" d="M154.56,-534.15C208.36,-539.48 287.99,-548.82 356.43,-562.68 387.25,-568.92 421.24,-578.32 448.01,-586.33"/>
<polygon fill="black" stroke="black" points="447.31,-589.78 457.9,-589.33 449.34,-583.08 447.31,-589.78"/>
<text text-anchor="middle" x="278.43" y="-566.48" font-family="Times,serif" font-size="14.00">a</text>
</g>
<!-- http://w3id.org/oseg/ont/otrl -->
<g id="node14" class="node">
<title>http://w3id.org/oseg/ont/otrl</title>
<ellipse fill="none" stroke="#e377c2" cx="91.22" cy="-204.68" rx="50.82" ry="16.03"/>
<text text-anchor="middle" x="91.22" y="-200.98" font-family="Times,serif" font-size="14.00">ns1:otrl</text>
</g>
<!-- http://w3id.org/oseg/ont/otrl&#45;&gt;http://spdx.org/rdf/terms#SpdxItem -->
<g id="edge22" class="edge">
<title>http://w3id.org/oseg/ont/otrl&#45;&gt;http://spdx.org/rdf/terms#SpdxItem</title>
<path fill="none" stroke="black" d="M97.55,-220.92C109.65,-254.88 142.73,-333.03 200.43,-366.68 267.38,-405.73 357.82,-406.49 421.06,-400.48"/>
<polygon fill="black" stroke="black" points="421.77,-403.92 431.36,-399.42 421.05,-396.96 421.77,-403.92"/>
<text text-anchor="middle" x="278.43" y="-407.48" font-family="Times,serif" font-size="14.00">a</text>
</g>
<!-- http://w3id.org/oseg/ont/otrl&#45;&gt;http://www.w3.org/2002/07/owl#Ontology -->
<g id="edge21" class="edge">
<title>http://w3id.org/oseg/ont/otrl&#45;&gt;http://www.w3.org/2002/07/owl#Ontology</title>
<path fill="none" stroke="black" d="M102.16,-220.71C118.89,-246.05 155.3,-294.65 200.43,-315.68 269.57,-347.91 357.72,-350.22 419.79,-346.44"/>
<polygon fill="black" stroke="black" points="420.16,-349.93 429.9,-345.76 419.69,-342.94 420.16,-349.93"/>
<text text-anchor="middle" x="278.43" y="-351.48" font-family="Times,serif" font-size="14.00">a</text>
</g>
<!-- http://w3id.org/oseg/ont/otrl&#45;&gt;http://w3id.org/oseg/ont/oseg&#45;profiles#robinVobruba -->
<g id="edge15" class="edge">
<title>http://w3id.org/oseg/ont/otrl&#45;&gt;http://w3id.org/oseg/ont/oseg&#45;profiles#robinVobruba</title>
<path fill="none" stroke="black" d="M108.58,-220.19C128.48,-237.92 163.96,-265.99 200.43,-277.68 264.3,-298.16 339.95,-299.84 398.79,-296.57"/>
<polygon fill="black" stroke="black" points="399.06,-300.06 408.83,-295.96 398.63,-293.07 399.06,-300.06"/>
<text text-anchor="middle" x="278.43" y="-302.48" font-family="Times,serif" font-size="14.00">dcterms:creator</text>
</g>
<!-- http://w3id.org/oseg/ont/otrl&#45;&gt;http://w3id.org/oseg/ont/oseg&#45;profiles#robinVobruba -->
<g id="edge28" class="edge">
<title>http://w3id.org/oseg/ont/otrl&#45;&gt;http://w3id.org/oseg/ont/oseg&#45;profiles#robinVobruba</title>
<path fill="none" stroke="black" d="M124.92,-217.07C146.16,-224.66 174.59,-233.98 200.43,-239.68 268.64,-254.72 287.43,-247.84 356.43,-258.68 377.87,-262.05 401.03,-266.27 422.24,-270.38"/>
<polygon fill="black" stroke="black" points="421.66,-273.83 432.15,-272.31 423,-266.96 421.66,-273.83"/>
<text text-anchor="middle" x="278.43" y="-262.48" font-family="Times,serif" font-size="14.00">schema:creator</text>
</g>
<!-- http://w3id.org/oseg/ont/otrl&#45;&gt;http://w3id.org/oseg/ont/oseg&#45;profiles#Iopa -->
<g id="edge16" class="edge">
<title>http://w3id.org/oseg/ont/otrl&#45;&gt;http://w3id.org/oseg/ont/oseg&#45;profiles#Iopa</title>
<path fill="none" stroke="black" d="M141.38,-207.97C208.24,-212.43 328.88,-220.49 410.79,-225.96"/>
<polygon fill="black" stroke="black" points="410.62,-229.46 420.83,-226.63 411.08,-222.47 410.62,-229.46"/>
<text text-anchor="middle" x="278.43" y="-226.48" font-family="Times,serif" font-size="14.00">dcterms:publisher</text>
</g>
<!-- http://w3id.org/oseg/ont/otrl&#45;&gt;http://spdx.org/licenses/GPL&#45;3.0&#45;or&#45;later -->
<g id="edge20" class="edge">
<title>http://w3id.org/oseg/ont/otrl&#45;&gt;http://spdx.org/licenses/GPL&#45;3.0&#45;or&#45;later</title>
<path fill="none" stroke="black" d="M134.69,-196.16C154.57,-192.54 178.62,-188.71 200.43,-186.68 259.1,-181.24 324.58,-179.46 379,-179.17"/>
<polygon fill="black" stroke="black" points="379.05,-182.67 389.03,-179.13 379.02,-175.67 379.05,-182.67"/>
<text text-anchor="middle" x="278.43" y="-190.48" font-family="Times,serif" font-size="14.00">spdx:licenseDeclared</text>
</g>
<!-- http://w3id.org/oseg/ont/oseg&#45;profiles#martinHaeuer -->
<g id="node18" class="node">
<title>http://w3id.org/oseg/ont/oseg&#45;profiles#martinHaeuer</title>
<ellipse fill="none" stroke="#e377c2" cx="497.47" cy="-124.68" rx="116.85" ry="16.03"/>
<text text-anchor="middle" x="497.47" y="-120.98" font-family="Times,serif" font-size="14.00">osegprof:martinHa...</text>
</g>
<!-- http://w3id.org/oseg/ont/otrl&#45;&gt;http://w3id.org/oseg/ont/oseg&#45;profiles#martinHaeuer -->
<g id="edge7" class="edge">
<title>http://w3id.org/oseg/ont/otrl&#45;&gt;http://w3id.org/oseg/ont/oseg&#45;profiles#martinHaeuer</title>
<path fill="none" stroke="black" d="M120,-190.99C141.46,-181.01 172.16,-168.01 200.43,-160.68 258.35,-145.67 324.3,-136.88 379.23,-131.75"/>
<polygon fill="black" stroke="black" points="379.71,-135.22 389.35,-130.83 379.08,-128.24 379.71,-135.22"/>
<text text-anchor="middle" x="278.43" y="-164.48" font-family="Times,serif" font-size="14.00">schema:creator</text>
</g>
<!-- http://w3id.org/oseg/ont/otrl&#45;&gt;http://w3id.org/oseg/ont/oseg&#45;profiles#martinHaeuer -->
<g id="edge25" class="edge">
<title>http://w3id.org/oseg/ont/otrl&#45;&gt;http://w3id.org/oseg/ont/oseg&#45;profiles#martinHaeuer</title>
<path fill="none" stroke="black" d="M104.88,-189C123.28,-167.61 159.67,-130.29 200.43,-115.68 274.83,-89.02 366.6,-97.62 428.07,-108.74"/>
<polygon fill="black" stroke="black" points="427.57,-112.21 438.04,-110.62 428.86,-105.33 427.57,-112.21"/>
<text text-anchor="middle" x="278.43" y="-119.48" font-family="Times,serif" font-size="14.00">dcterms:creator</text>
</g>
<!-- http://id.loc.gov/vocabulary/iso639&#45;1/en -->
<g id="node22" class="node">
<title>http://id.loc.gov/vocabulary/iso639&#45;1/en</title>
<ellipse fill="none" stroke="#e377c2" cx="497.47" cy="-71.68" rx="45.01" ry="16.03"/>
<text text-anchor="middle" x="497.47" y="-67.98" font-family="Times,serif" font-size="14.00">ns2:en</text>
</g>
<!-- http://w3id.org/oseg/ont/otrl&#45;&gt;http://id.loc.gov/vocabulary/iso639&#45;1/en -->
<g id="edge26" class="edge">
<title>http://w3id.org/oseg/ont/otrl&#45;&gt;http://id.loc.gov/vocabulary/iso639&#45;1/en</title>
<path fill="none" stroke="black" d="M100.5,-188.25C115.78,-159.96 151.4,-102.89 200.43,-79.68 280.6,-41.73 387.16,-51.3 448.14,-61.57"/>
<polygon fill="black" stroke="black" points="447.79,-65.07 458.25,-63.35 449.01,-58.17 447.79,-65.07"/>
<text text-anchor="middle" x="278.43" y="-83.48" font-family="Times,serif" font-size="14.00">dcterms:language</text>
</g>
<!-- http://w3id.org/oseg/ont/1.1.0/otrl -->
<g id="node23" class="node">
<title>http://w3id.org/oseg/ont/1.1.0/otrl</title>
<ellipse fill="none" stroke="#e377c2" cx="497.47" cy="-20.68" rx="50.82" ry="16.03"/>
<text text-anchor="middle" x="497.47" y="-16.98" font-family="Times,serif" font-size="14.00">ns3:otrl</text>
</g>
<!-- http://w3id.org/oseg/ont/otrl&#45;&gt;http://w3id.org/oseg/ont/1.1.0/otrl -->
<g id="edge10" class="edge">
<title>http://w3id.org/oseg/ont/otrl&#45;&gt;http://w3id.org/oseg/ont/1.1.0/otrl</title>
<path fill="none" stroke="black" d="M96.84,-188.51C107.95,-153.04 139.79,-68.83 200.43,-33.68 276.64,10.48 383.34,1.39 445.65,-9.48"/>
<polygon fill="black" stroke="black" points="445.16,-12.95 455.63,-11.31 446.42,-6.07 445.16,-12.95"/>
<text text-anchor="middle" x="278.43" y="-37.48" font-family="Times,serif" font-size="14.00">owl:versionIRI</text>
</g>
<!-- http://w3id.org/oseg/ont/otrl#ODRL4 -->
<g id="node15" class="node">
<title>http://w3id.org/oseg/ont/otrl#ODRL4</title>
<ellipse fill="none" stroke="#e377c2" cx="91.22" cy="-1143.68" rx="69.09" ry="16.03"/>
<text text-anchor="middle" x="91.22" y="-1139.98" font-family="Times,serif" font-size="14.00">otrl:ODRL4</text>
</g>
<!-- http://w3id.org/oseg/ont/otrl#ODRL4&#45;&gt;http://w3id.org/oseg/ont/otrl#ODRL -->
<g id="edge4" class="edge">
<title>http://w3id.org/oseg/ont/otrl#ODRL4&#45;&gt;http://w3id.org/oseg/ont/otrl#ODRL</title>
<path fill="none" stroke="black" d="M154.46,-1136.97C208.55,-1130.22 288.64,-1118 356.43,-1098.68 391.55,-1088.67 429.85,-1072.71 457.5,-1060.22"/>
<polygon fill="black" stroke="black" points="459.18,-1063.31 466.82,-1055.97 456.27,-1056.94 459.18,-1063.31"/>
<text text-anchor="middle" x="278.43" y="-1133.48" font-family="Times,serif" font-size="14.00">a</text>
</g>
<!-- http://w3id.org/oseg/ont/otrl#OTRL1 -->
<g id="node16" class="node">
<title>http://w3id.org/oseg/ont/otrl#OTRL1</title>
<ellipse fill="none" stroke="#e377c2" cx="91.22" cy="-477.68" rx="67.35" ry="16.03"/>
<text text-anchor="middle" x="91.22" y="-473.98" font-family="Times,serif" font-size="14.00">otrl:OTRL1</text>
</g>
<!-- http://w3id.org/oseg/ont/otrl#OTRL1&#45;&gt;http://w3id.org/oseg/ont/otrl#OTRL -->
<g id="edge5" class="edge">
<title>http://w3id.org/oseg/ont/otrl#OTRL1&#45;&gt;http://w3id.org/oseg/ont/otrl#OTRL</title>
<path fill="none" stroke="black" d="M156.26,-481.98C210.77,-487.13 290.5,-498.21 356.43,-521.68 397.13,-536.17 439.65,-562.26 467,-580.7"/>
<polygon fill="black" stroke="black" points="465.09,-583.64 475.33,-586.39 469.05,-577.86 465.09,-583.64"/>
<text text-anchor="middle" x="278.43" y="-525.48" font-family="Times,serif" font-size="14.00">a</text>
</g>
<!-- http://w3id.org/oseg/ont/otrl#OTRL2 -->
<g id="node17" class="node">
<title>http://w3id.org/oseg/ont/otrl#OTRL2</title>
<ellipse fill="none" stroke="#e377c2" cx="91.22" cy="-426.68" rx="67.35" ry="16.03"/>
<text text-anchor="middle" x="91.22" y="-422.98" font-family="Times,serif" font-size="14.00">otrl:OTRL2</text>
</g>
<!-- http://w3id.org/oseg/ont/otrl#OTRL2&#45;&gt;http://w3id.org/oseg/ont/otrl#OTRL -->
<g id="edge6" class="edge">
<title>http://w3id.org/oseg/ont/otrl#OTRL2&#45;&gt;http://w3id.org/oseg/ont/otrl#OTRL</title>
<path fill="none" stroke="black" d="M158.47,-426.46C213.99,-428.72 293.96,-437.84 356.43,-468.68 408.65,-494.46 454.47,-546.47 478.54,-577.26"/>
<polygon fill="black" stroke="black" points="475.87,-579.54 484.74,-585.34 481.43,-575.28 475.87,-579.54"/>
<text text-anchor="middle" x="278.43" y="-472.48" font-family="Times,serif" font-size="14.00">a</text>
</g>
<!-- http://w3id.org/oseg/ont/otrl#OTRL5 -->
<g id="node20" class="node">
<title>http://w3id.org/oseg/ont/otrl#OTRL5</title>
<ellipse fill="none" stroke="#e377c2" cx="91.22" cy="-681.68" rx="67.35" ry="16.03"/>
<text text-anchor="middle" x="91.22" y="-677.98" font-family="Times,serif" font-size="14.00">otrl:OTRL5</text>
</g>
<!-- http://w3id.org/oseg/ont/otrl#OTRL5&#45;&gt;http://w3id.org/oseg/ont/otrl#OTRL -->
<g id="edge9" class="edge">
<title>http://w3id.org/oseg/ont/otrl#OTRL5&#45;&gt;http://w3id.org/oseg/ont/otrl#OTRL</title>
<path fill="none" stroke="black" d="M145.56,-672.02C163.03,-668.93 182.54,-665.57 200.43,-662.68 269.62,-651.51 287.83,-653.99 356.43,-639.68 386.72,-633.36 420.17,-624.36 446.79,-616.71"/>
<polygon fill="black" stroke="black" points="448.01,-620 456.63,-613.85 446.05,-613.27 448.01,-620"/>
<text text-anchor="middle" x="278.43" y="-666.48" font-family="Times,serif" font-size="14.00">a</text>
</g>
<!-- http://w3id.org/oseg/ont/otrl#OTRL6 -->
<g id="node21" class="node">
<title>http://w3id.org/oseg/ont/otrl#OTRL6</title>
<ellipse fill="none" stroke="#e377c2" cx="91.22" cy="-630.68" rx="67.35" ry="16.03"/>
<text text-anchor="middle" x="91.22" y="-626.98" font-family="Times,serif" font-size="14.00">otrl:OTRL6</text>
</g>
<!-- http://w3id.org/oseg/ont/otrl#OTRL6&#45;&gt;http://w3id.org/oseg/ont/otrl#OTRL -->
<g id="edge24" class="edge">
<title>http://w3id.org/oseg/ont/otrl#OTRL6&#45;&gt;http://w3id.org/oseg/ont/otrl#OTRL</title>
<path fill="none" stroke="black" d="M155.83,-626.12C229.94,-620.8 351.93,-612.05 428.05,-606.59"/>
<polygon fill="black" stroke="black" points="428.75,-610.05 438.47,-605.84 428.25,-603.07 428.75,-610.05"/>
<text text-anchor="middle" x="278.43" y="-627.48" font-family="Times,serif" font-size="14.00">a</text>
</g>
<!-- http://w3id.org/oseg/ont/otrl#ODRL3Star -->
<g id="node24" class="node">
<title>http://w3id.org/oseg/ont/otrl#ODRL3Star</title>
<ellipse fill="none" stroke="#e377c2" cx="91.22" cy="-1092.68" rx="90.52" ry="16.03"/>
<text text-anchor="middle" x="91.22" y="-1088.98" font-family="Times,serif" font-size="14.00">otrl:ODRL3Star</text>
</g>
<!-- http://w3id.org/oseg/ont/otrl#ODRL3Star&#45;&gt;http://w3id.org/oseg/ont/otrl#ODRL -->
<g id="edge12" class="edge">
<title>http://w3id.org/oseg/ont/otrl#ODRL3Star&#45;&gt;http://w3id.org/oseg/ont/otrl#ODRL</title>
<path fill="none" stroke="black" d="M167.42,-1083.86C220.31,-1077.59 292.73,-1068.86 356.43,-1060.68 381.03,-1057.52 408.03,-1053.9 431.7,-1050.67"/>
<polygon fill="black" stroke="black" points="432.19,-1054.13 441.63,-1049.31 431.24,-1047.2 432.19,-1054.13"/>
<text text-anchor="middle" x="278.43" y="-1083.48" font-family="Times,serif" font-size="14.00">a</text>
</g>
<!-- http://w3id.org/oseg/ont/otrl#ODRL1 -->
<g id="node25" class="node">
<title>http://w3id.org/oseg/ont/otrl#ODRL1</title>
<ellipse fill="none" stroke="#e377c2" cx="91.22" cy="-1041.68" rx="69.09" ry="16.03"/>
<text text-anchor="middle" x="91.22" y="-1037.98" font-family="Times,serif" font-size="14.00">otrl:ODRL1</text>
</g>
<!-- http://w3id.org/oseg/ont/otrl#ODRL1&#45;&gt;http://w3id.org/oseg/ont/otrl#ODRL -->
<g id="edge29" class="edge">
<title>http://w3id.org/oseg/ont/otrl#ODRL1&#45;&gt;http://w3id.org/oseg/ont/otrl#ODRL</title>
<path fill="none" stroke="black" d="M160.79,-1041.68C234.05,-1041.68 349.67,-1041.68 424.28,-1041.68"/>
<polygon fill="black" stroke="black" points="424.53,-1045.18 434.53,-1041.68 424.53,-1038.18 424.53,-1045.18"/>
<text text-anchor="middle" x="278.43" y="-1045.48" font-family="Times,serif" font-size="14.00">a</text>
</g>
<!-- http://w3id.org/oseg/ont/otrl#OTRL3 -->
<g id="node26" class="node">
<title>http://w3id.org/oseg/ont/otrl#OTRL3</title>
<ellipse fill="none" stroke="#e377c2" cx="91.22" cy="-579.68" rx="67.35" ry="16.03"/>
<text text-anchor="middle" x="91.22" y="-575.98" font-family="Times,serif" font-size="14.00">otrl:OTRL3</text>
</g>
<!-- http://w3id.org/oseg/ont/otrl#OTRL3&#45;&gt;http://w3id.org/oseg/ont/otrl#OTRL -->
<g id="edge14" class="edge">
<title>http://w3id.org/oseg/ont/otrl#OTRL3&#45;&gt;http://w3id.org/oseg/ont/otrl#OTRL</title>
<path fill="none" stroke="black" d="M158.52,-579.97C212,-580.55 289.13,-582.19 356.43,-586.68 381.2,-588.33 408.34,-591.03 432.08,-593.69"/>
<polygon fill="black" stroke="black" points="431.69,-597.17 442.03,-594.82 432.49,-590.21 431.69,-597.17"/>
<text text-anchor="middle" x="278.43" y="-590.48" font-family="Times,serif" font-size="14.00">a</text>
</g>
</g>
</svg>
