<?xml version="1.0" encoding="UTF-8" standalone="no"?>
<!DOCTYPE svg PUBLIC "-//W3C//DTD SVG 1.1//EN"
 "http://www.w3.org/Graphics/SVG/1.1/DTD/svg11.dtd">
<!-- Generated by graphviz version 2.43.0 (0)
 -->
<!-- Title: G Pages: 1 -->
<svg width="1749pt" height="1655pt"
 viewBox="0.00 0.00 1749.48 1655.26" xmlns="http://www.w3.org/2000/svg" xmlns:xlink="http://www.w3.org/1999/xlink">
<g id="graph0" class="graph" transform="scale(1 1) rotate(0) translate(4 1651.26)">
<title>G</title>
<polygon fill="white" stroke="transparent" points="-4,4 -4,-1651.26 1745.48,-1651.26 1745.48,4 -4,4"/>
<!-- http://spdx.org/rdf/terms#SpdxItem -->
<g id="node1" class="node">
<title>http://spdx.org/rdf/terms#SpdxItem</title>
<ellipse fill="none" stroke="#1f77b4" cx="441.85" cy="-1618.26" rx="87.86" ry="16.03"/>
<text text-anchor="middle" x="441.85" y="-1614.56" font-family="Times,serif" font-size="14.00">spdx:SpdxItem</text>
</g>
<!-- http://schema.org/DefinedTermSet -->
<g id="node2" class="node">
<title>http://schema.org/DefinedTermSet</title>
<ellipse fill="none" stroke="#1f77b4" cx="884.08" cy="-1450.26" rx="116.85" ry="16.03"/>
<text text-anchor="middle" x="884.08" y="-1446.56" font-family="Times,serif" font-size="14.00">schema:DefinedTer...</text>
</g>
<!-- http://schema.org/DefinedTerm -->
<g id="node3" class="node">
<title>http://schema.org/DefinedTerm</title>
<ellipse fill="none" stroke="#1f77b4" cx="1623.39" cy="-756.26" rx="118.17" ry="16.03"/>
<text text-anchor="middle" x="1623.39" y="-752.56" font-family="Times,serif" font-size="14.00">schema:DefinedTerm</text>
</g>
<!-- http://w3id.org/oseg/ont/ods#Dataset -->
<g id="node4" class="node">
<title>http://w3id.org/oseg/ont/ods#Dataset</title>
<ellipse fill="none" stroke="#1f77b4" cx="441.85" cy="-1567.26" rx="71.34" ry="16.03"/>
<text text-anchor="middle" x="441.85" y="-1563.56" font-family="Times,serif" font-size="14.00">ods:Dataset</text>
</g>
<!-- http://w3id.org/oseg/ont/okhimg#tags -->
<g id="node5" class="node">
<title>http://w3id.org/oseg/ont/okhimg#tags</title>
<ellipse fill="none" stroke="#e377c2" cx="441.85" cy="-1516.26" rx="73.58" ry="16.03"/>
<text text-anchor="middle" x="441.85" y="-1512.56" font-family="Times,serif" font-size="14.00">okhimg:tags</text>
</g>
<!-- http://w3id.org/oseg/ont/okhimg#tags&#45;&gt;http://schema.org/DefinedTermSet -->
<g id="edge20" class="edge">
<title>http://w3id.org/oseg/ont/okhimg#tags&#45;&gt;http://schema.org/DefinedTermSet</title>
<path fill="none" stroke="black" d="M507.36,-1508.74C523.93,-1504.88 541.16,-1499.06 555.7,-1490.26 566.21,-1483.9 562.69,-1474.74 573.7,-1469.26 641.38,-1435.58 727.94,-1433.15 792.29,-1437.8"/>
<polygon fill="black" stroke="black" points="792.17,-1441.31 802.42,-1438.61 792.73,-1434.33 792.17,-1441.31"/>
<text text-anchor="middle" x="661.2" y="-1473.06" font-family="Times,serif" font-size="14.00">a</text>
</g>
<!-- http://w3id.org/oseg/ont/okhimg#tagArt -->
<g id="node39" class="node">
<title>http://w3id.org/oseg/ont/okhimg#tagArt</title>
<ellipse fill="none" stroke="#e377c2" cx="1103.6" cy="-1502.26" rx="84.29" ry="16.03"/>
<text text-anchor="middle" x="1103.6" y="-1498.56" font-family="Times,serif" font-size="14.00">okhimg:tagArt</text>
</g>
<!-- http://w3id.org/oseg/ont/okhimg#tags&#45;&gt;http://w3id.org/oseg/ont/okhimg#tagArt -->
<g id="edge49" class="edge">
<title>http://w3id.org/oseg/ont/okhimg#tags&#45;&gt;http://w3id.org/oseg/ont/okhimg#tagArt</title>
<path fill="none" stroke="black" d="M515.34,-1514.73C635.81,-1512.17 877.06,-1507.05 1009.78,-1504.23"/>
<polygon fill="black" stroke="black" points="1010.01,-1507.73 1019.93,-1504.02 1009.86,-1500.73 1010.01,-1507.73"/>
<text text-anchor="middle" x="661.2" y="-1516.06" font-family="Times,serif" font-size="14.00">schema:hasDefinedTerm</text>
</g>
<!-- http://w3id.org/oseg/ont/okhimg#tagPhoto -->
<g id="node6" class="node">
<title>http://w3id.org/oseg/ont/okhimg#tagPhoto</title>
<ellipse fill="none" stroke="#e377c2" cx="1333.03" cy="-1340.26" rx="97.66" ry="16.03"/>
<text text-anchor="middle" x="1333.03" y="-1336.56" font-family="Times,serif" font-size="14.00">okhimg:tagPhoto</text>
</g>
<!-- http://w3id.org/oseg/ont/okhimg#tagPhoto&#45;&gt;http://schema.org/DefinedTerm -->
<g id="edge2" class="edge">
<title>http://w3id.org/oseg/ont/okhimg#tagPhoto&#45;&gt;http://schema.org/DefinedTerm</title>
<path fill="none" stroke="black" d="M1417.51,-1331.98C1432.52,-1328.07 1447.45,-1322.42 1460.3,-1314.26 1477.19,-1303.55 1478.63,-1296.29 1487.3,-1278.26 1572.76,-1100.61 1609.04,-861.99 1619.22,-782.94"/>
<polygon fill="black" stroke="black" points="1622.71,-783.22 1620.48,-772.86 1615.76,-782.35 1622.71,-783.22"/>
<text text-anchor="middle" x="1482.8" y="-1300.06" font-family="Times,serif" font-size="14.00">a</text>
</g>
<!-- http://w3id.org/oseg/ont/oseg&#45;profiles#robinVobruba -->
<g id="node7" class="node">
<title>http://w3id.org/oseg/ont/oseg&#45;profiles#robinVobruba</title>
<ellipse fill="none" stroke="#e377c2" cx="441.85" cy="-1465.26" rx="113.69" ry="16.03"/>
<text text-anchor="middle" x="441.85" y="-1461.56" font-family="Times,serif" font-size="14.00">osegprof:robinVob...</text>
</g>
<!-- http://w3id.org/oseg/ont/okhimg#slotPhotoThingMain -->
<g id="node8" class="node">
<title>http://w3id.org/oseg/ont/okhimg#slotPhotoThingMain</title>
<ellipse fill="none" stroke="#e377c2" cx="1333.03" cy="-1289.26" rx="114.6" ry="16.03"/>
<text text-anchor="middle" x="1333.03" y="-1285.56" font-family="Times,serif" font-size="14.00">okhimg:slotPhotoT...</text>
</g>
<!-- http://w3id.org/oseg/ont/okhimg#slotPhotoThingMain&#45;&gt;http://schema.org/DefinedTerm -->
<g id="edge4" class="edge">
<title>http://w3id.org/oseg/ont/okhimg#slotPhotoThingMain&#45;&gt;http://schema.org/DefinedTerm</title>
<path fill="none" stroke="black" d="M1436.18,-1281.99C1455.06,-1276.48 1473.23,-1267.78 1487.3,-1254.26 1557.46,-1186.89 1605.79,-875.49 1618.85,-782.53"/>
<polygon fill="black" stroke="black" points="1622.33,-782.93 1620.23,-772.55 1615.39,-781.97 1622.33,-782.93"/>
<text text-anchor="middle" x="1482.8" y="-1263.06" font-family="Times,serif" font-size="14.00">a</text>
</g>
<!-- http://w3id.org/oseg/ont/okhimg#slotOrganizationLogo -->
<g id="node9" class="node">
<title>http://w3id.org/oseg/ont/okhimg#slotOrganizationLogo</title>
<ellipse fill="none" stroke="#e377c2" cx="884.08" cy="-1210.26" rx="114.6" ry="16.03"/>
<text text-anchor="middle" x="884.08" y="-1206.56" font-family="Times,serif" font-size="14.00">okhimg:slotOrgani...</text>
</g>
<!-- http://w3id.org/oseg/ont/okhimg#slotOrganizationLogo&#45;&gt;http://schema.org/DefinedTerm -->
<g id="edge19" class="edge">
<title>http://w3id.org/oseg/ont/okhimg#slotOrganizationLogo&#45;&gt;http://schema.org/DefinedTerm</title>
<path fill="none" stroke="black" d="M967.71,-1221.41C1107,-1238.46 1381.12,-1264.03 1460.3,-1213.26 1610.88,-1116.74 1623.16,-865.66 1622.99,-783.05"/>
<polygon fill="black" stroke="black" points="1626.49,-782.94 1622.9,-772.97 1619.49,-783 1626.49,-782.94"/>
<text text-anchor="middle" x="1333.03" y="-1247.06" font-family="Times,serif" font-size="14.00">a</text>
</g>
<!-- http://w3id.org/oseg/ont/okhimg#slotOrganizationLogoBw -->
<g id="node27" class="node">
<title>http://w3id.org/oseg/ont/okhimg#slotOrganizationLogoBw</title>
<ellipse fill="none" stroke="#e377c2" cx="1333.03" cy="-1188.26" rx="114.6" ry="16.03"/>
<text text-anchor="middle" x="1333.03" y="-1184.56" font-family="Times,serif" font-size="14.00">okhimg:slotOrgani...</text>
</g>
<!-- http://w3id.org/oseg/ont/okhimg#slotOrganizationLogo&#45;&gt;http://w3id.org/oseg/ont/okhimg#slotOrganizationLogoBw -->
<g id="edge37" class="edge">
<title>http://w3id.org/oseg/ont/okhimg#slotOrganizationLogo&#45;&gt;http://w3id.org/oseg/ont/okhimg#slotOrganizationLogoBw</title>
<path fill="none" stroke="black" d="M933.07,-1195.5C958.48,-1188.44 990.36,-1180.78 1019.45,-1177.26 1091.07,-1168.6 1172.54,-1171.89 1234.34,-1177.06"/>
<polygon fill="black" stroke="black" points="1234.21,-1180.56 1244.48,-1177.94 1234.82,-1173.59 1234.21,-1180.56"/>
<text text-anchor="middle" x="1103.6" y="-1181.06" font-family="Times,serif" font-size="14.00">seeAlso</text>
</g>
<!-- http://w3id.org/oseg/ont/0.1.0/okhimg -->
<g id="node10" class="node">
<title>http://w3id.org/oseg/ont/0.1.0/okhimg</title>
<ellipse fill="none" stroke="#e377c2" cx="441.85" cy="-1414.26" rx="70.01" ry="16.03"/>
<text text-anchor="middle" x="441.85" y="-1410.56" font-family="Times,serif" font-size="14.00">ns1:okhimg</text>
</g>
<!-- http://w3id.org/oseg/ont/okhimg#slotSymbol -->
<g id="node11" class="node">
<title>http://w3id.org/oseg/ont/okhimg#slotSymbol</title>
<ellipse fill="none" stroke="#e377c2" cx="1333.03" cy="-1137.26" rx="108.38" ry="16.03"/>
<text text-anchor="middle" x="1333.03" y="-1133.56" font-family="Times,serif" font-size="14.00">okhimg:slotSymbol</text>
</g>
<!-- http://w3id.org/oseg/ont/okhimg#slotSymbol&#45;&gt;http://schema.org/DefinedTerm -->
<g id="edge6" class="edge">
<title>http://w3id.org/oseg/ont/okhimg#slotSymbol&#45;&gt;http://schema.org/DefinedTerm</title>
<path fill="none" stroke="black" d="M1424.71,-1128.59C1437.45,-1124.61 1449.76,-1119.03 1460.3,-1111.26 1572.16,-1028.83 1608.82,-850.64 1618.98,-783.02"/>
<polygon fill="black" stroke="black" points="1622.49,-783.19 1620.44,-772.79 1615.56,-782.2 1622.49,-783.19"/>
<text text-anchor="middle" x="1482.8" y="-1095.06" font-family="Times,serif" font-size="14.00">a</text>
</g>
<!-- http://w3id.org/oseg/ont/okhimg#tagLogo -->
<g id="node12" class="node">
<title>http://w3id.org/oseg/ont/okhimg#tagLogo</title>
<ellipse fill="none" stroke="#e377c2" cx="1333.03" cy="-1086.26" rx="92.76" ry="16.03"/>
<text text-anchor="middle" x="1333.03" y="-1082.56" font-family="Times,serif" font-size="14.00">okhimg:tagLogo</text>
</g>
<!-- http://w3id.org/oseg/ont/okhimg#tagLogo&#45;&gt;http://schema.org/DefinedTerm -->
<g id="edge8" class="edge">
<title>http://w3id.org/oseg/ont/okhimg#tagLogo&#45;&gt;http://schema.org/DefinedTerm</title>
<path fill="none" stroke="black" d="M1417.3,-1079.39C1432.57,-1075.38 1447.66,-1069.32 1460.3,-1060.26 1558.01,-990.28 1602.19,-842.87 1616.68,-782.69"/>
<polygon fill="black" stroke="black" points="1620.12,-783.37 1618.98,-772.83 1613.3,-781.78 1620.12,-783.37"/>
<text text-anchor="middle" x="1482.8" y="-1047.06" font-family="Times,serif" font-size="14.00">a</text>
</g>
<!-- http://w3id.org/oseg/ont/okhimg#slotModelMain -->
<g id="node13" class="node">
<title>http://w3id.org/oseg/ont/okhimg#slotModelMain</title>
<ellipse fill="none" stroke="#e377c2" cx="1333.03" cy="-1035.26" rx="127.06" ry="16.03"/>
<text text-anchor="middle" x="1333.03" y="-1031.56" font-family="Times,serif" font-size="14.00">okhimg:slotModelMain</text>
</g>
<!-- http://w3id.org/oseg/ont/okhimg#slotModelMain&#45;&gt;http://schema.org/DefinedTerm -->
<g id="edge9" class="edge">
<title>http://w3id.org/oseg/ont/okhimg#slotModelMain&#45;&gt;http://schema.org/DefinedTerm</title>
<path fill="none" stroke="black" d="M1428.84,-1024.49C1440.02,-1020.75 1450.8,-1015.79 1460.3,-1009.26 1544.34,-951.52 1594.54,-834.45 1613.59,-782.32"/>
<polygon fill="black" stroke="black" points="1616.92,-783.39 1616.98,-772.8 1610.33,-781.04 1616.92,-783.39"/>
<text text-anchor="middle" x="1482.8" y="-999.06" font-family="Times,serif" font-size="14.00">a</text>
</g>
<!-- http://w3id.org/oseg/ont/okhimg#tagDiagram -->
<g id="node14" class="node">
<title>http://w3id.org/oseg/ont/okhimg#tagDiagram</title>
<ellipse fill="none" stroke="#e377c2" cx="1333.03" cy="-984.26" rx="111.95" ry="16.03"/>
<text text-anchor="middle" x="1333.03" y="-980.56" font-family="Times,serif" font-size="14.00">okhimg:tagDiagram</text>
</g>
<!-- http://w3id.org/oseg/ont/okhimg#tagDiagram&#45;&gt;http://schema.org/DefinedTerm -->
<g id="edge10" class="edge">
<title>http://w3id.org/oseg/ont/okhimg#tagDiagram&#45;&gt;http://schema.org/DefinedTerm</title>
<path fill="none" stroke="black" d="M1421.94,-974.39C1435.39,-970.59 1448.66,-965.39 1460.3,-958.26 1532.7,-913.99 1586.45,-825.21 1609.69,-781.61"/>
<polygon fill="black" stroke="black" points="1612.91,-783.01 1614.44,-772.53 1606.7,-779.77 1612.91,-783.01"/>
<text text-anchor="middle" x="1482.8" y="-947.06" font-family="Times,serif" font-size="14.00">a</text>
</g>
<!-- http://w3id.org/oseg/ont/okhimg#slotModelFromAbove -->
<g id="node15" class="node">
<title>http://w3id.org/oseg/ont/okhimg#slotModelFromAbove</title>
<ellipse fill="none" stroke="#e377c2" cx="1333.03" cy="-933.26" rx="116.85" ry="16.03"/>
<text text-anchor="middle" x="1333.03" y="-929.56" font-family="Times,serif" font-size="14.00">okhimg:slotModelF...</text>
</g>
<!-- http://w3id.org/oseg/ont/okhimg#slotModelFromAbove&#45;&gt;http://schema.org/DefinedTerm -->
<g id="edge11" class="edge">
<title>http://w3id.org/oseg/ont/okhimg#slotModelFromAbove&#45;&gt;http://schema.org/DefinedTerm</title>
<path fill="none" stroke="black" d="M1419.43,-922.33C1433.54,-918.67 1447.67,-913.78 1460.3,-907.26 1521.42,-875.71 1576.25,-814.55 1603.75,-780.55"/>
<polygon fill="black" stroke="black" points="1606.65,-782.53 1610.14,-772.52 1601.17,-778.16 1606.65,-782.53"/>
<text text-anchor="middle" x="1482.8" y="-900.06" font-family="Times,serif" font-size="14.00">a</text>
</g>
<!-- http://w3id.org/oseg/ont/okhimg -->
<g id="node16" class="node">
<title>http://w3id.org/oseg/ont/okhimg</title>
<ellipse fill="none" stroke="#e377c2" cx="70" cy="-1421.26" rx="70.01" ry="16.03"/>
<text text-anchor="middle" x="70" y="-1417.56" font-family="Times,serif" font-size="14.00">ns2:okhimg</text>
</g>
<!-- http://w3id.org/oseg/ont/okhimg&#45;&gt;http://spdx.org/rdf/terms#SpdxItem -->
<g id="edge12" class="edge">
<title>http://w3id.org/oseg/ont/okhimg&#45;&gt;http://spdx.org/rdf/terms#SpdxItem</title>
<path fill="none" stroke="black" d="M73.88,-1437.76C80.99,-1473.12 103.01,-1556.01 158.01,-1593.26 219.19,-1634.7 305.7,-1636.18 366.9,-1630.29"/>
<polygon fill="black" stroke="black" points="367.3,-1633.77 376.88,-1629.25 366.57,-1626.81 367.3,-1633.77"/>
<text text-anchor="middle" x="234.01" y="-1636.06" font-family="Times,serif" font-size="14.00">a</text>
</g>
<!-- http://w3id.org/oseg/ont/okhimg&#45;&gt;http://w3id.org/oseg/ont/ods#Dataset -->
<g id="edge21" class="edge">
<title>http://w3id.org/oseg/ont/okhimg&#45;&gt;http://w3id.org/oseg/ont/ods#Dataset</title>
<path fill="none" stroke="black" d="M78.02,-1437.78C90.11,-1463.93 117.51,-1514.27 158.01,-1537.26 221.94,-1573.57 307.18,-1577.79 367.31,-1574.97"/>
<polygon fill="black" stroke="black" points="367.7,-1578.45 377.49,-1574.41 367.31,-1571.47 367.7,-1578.45"/>
<text text-anchor="middle" x="234.01" y="-1578.06" font-family="Times,serif" font-size="14.00">a</text>
</g>
<!-- http://w3id.org/oseg/ont/okhimg&#45;&gt;http://w3id.org/oseg/ont/okhimg#tags -->
<g id="edge1" class="edge">
<title>http://w3id.org/oseg/ont/okhimg&#45;&gt;http://w3id.org/oseg/ont/okhimg#tags</title>
<path fill="none" stroke="black" d="M85.91,-1437.38C101.98,-1453.59 129.16,-1477.76 158.01,-1489.26 222.74,-1515.06 302.16,-1520.61 360.35,-1520.4"/>
<polygon fill="black" stroke="black" points="360.62,-1523.9 370.59,-1520.31 360.56,-1516.9 360.62,-1523.9"/>
<text text-anchor="middle" x="234.01" y="-1522.06" font-family="Times,serif" font-size="14.00">void:rootResource</text>
</g>
<!-- http://w3id.org/oseg/ont/okhimg&#45;&gt;http://w3id.org/oseg/ont/oseg&#45;profiles#robinVobruba -->
<g id="edge3" class="edge">
<title>http://w3id.org/oseg/ont/okhimg&#45;&gt;http://w3id.org/oseg/ont/oseg&#45;profiles#robinVobruba</title>
<path fill="none" stroke="black" d="M100.39,-1436.09C116.88,-1443.64 138.09,-1452.08 158.01,-1456.26 211.76,-1467.56 272.5,-1470.71 323.89,-1470.67"/>
<polygon fill="black" stroke="black" points="324.05,-1474.17 334.03,-1470.62 324.01,-1467.17 324.05,-1474.17"/>
<text text-anchor="middle" x="234.01" y="-1474.06" font-family="Times,serif" font-size="14.00">dcterms:creator</text>
</g>
<!-- http://w3id.org/oseg/ont/okhimg&#45;&gt;http://w3id.org/oseg/ont/oseg&#45;profiles#robinVobruba -->
<g id="edge27" class="edge">
<title>http://w3id.org/oseg/ont/okhimg&#45;&gt;http://w3id.org/oseg/ont/oseg&#45;profiles#robinVobruba</title>
<path fill="none" stroke="black" d="M139.52,-1423.23C187.45,-1425.25 252.86,-1429.28 310.01,-1437.26 330.96,-1440.19 353.57,-1444.58 374.01,-1449.02"/>
<polygon fill="black" stroke="black" points="373.33,-1452.46 383.85,-1451.2 374.84,-1445.62 373.33,-1452.46"/>
<text text-anchor="middle" x="234.01" y="-1441.06" font-family="Times,serif" font-size="14.00">schema:creator</text>
</g>
<!-- http://w3id.org/oseg/ont/okhimg&#45;&gt;http://w3id.org/oseg/ont/0.1.0/okhimg -->
<g id="edge7" class="edge">
<title>http://w3id.org/oseg/ont/okhimg&#45;&gt;http://w3id.org/oseg/ont/0.1.0/okhimg</title>
<path fill="none" stroke="black" d="M119.05,-1409.5C131.65,-1406.92 145.27,-1404.57 158.01,-1403.26 229.6,-1395.93 311.85,-1400.59 369.13,-1405.92"/>
<polygon fill="black" stroke="black" points="368.88,-1409.41 379.17,-1406.88 369.55,-1402.44 368.88,-1409.41"/>
<text text-anchor="middle" x="234.01" y="-1407.06" font-family="Times,serif" font-size="14.00">owl:versionIRI</text>
</g>
<!-- http://w3id.org/oseg/ont/okhimg#slots -->
<g id="node20" class="node">
<title>http://w3id.org/oseg/ont/okhimg#slots</title>
<ellipse fill="none" stroke="#e377c2" cx="441.85" cy="-1363.26" rx="75.82" ry="16.03"/>
<text text-anchor="middle" x="441.85" y="-1359.56" font-family="Times,serif" font-size="14.00">okhimg:slots</text>
</g>
<!-- http://w3id.org/oseg/ont/okhimg&#45;&gt;http://w3id.org/oseg/ont/okhimg#slots -->
<g id="edge16" class="edge">
<title>http://w3id.org/oseg/ont/okhimg&#45;&gt;http://w3id.org/oseg/ont/okhimg#slots</title>
<path fill="none" stroke="black" d="M96.3,-1406.18C113.17,-1396.94 136.17,-1385.84 158.01,-1380.26 223.54,-1363.52 300.27,-1359.85 357.26,-1360.05"/>
<polygon fill="black" stroke="black" points="357.28,-1363.55 367.31,-1360.13 357.34,-1356.55 357.28,-1363.55"/>
<text text-anchor="middle" x="234.01" y="-1384.06" font-family="Times,serif" font-size="14.00">void:rootResource</text>
</g>
<!-- http://w3id.org/oseg/ont/oseg&#45;profiles#Iopa -->
<g id="node24" class="node">
<title>http://w3id.org/oseg/ont/oseg&#45;profiles#Iopa</title>
<ellipse fill="none" stroke="#e377c2" cx="441.85" cy="-1312.26" rx="80.72" ry="16.03"/>
<text text-anchor="middle" x="441.85" y="-1308.56" font-family="Times,serif" font-size="14.00">osegprof:Iopa</text>
</g>
<!-- http://w3id.org/oseg/ont/okhimg&#45;&gt;http://w3id.org/oseg/ont/oseg&#45;profiles#Iopa -->
<g id="edge24" class="edge">
<title>http://w3id.org/oseg/ont/okhimg&#45;&gt;http://w3id.org/oseg/ont/oseg&#45;profiles#Iopa</title>
<path fill="none" stroke="black" d="M83.09,-1405.09C98.27,-1386.16 126.2,-1355.58 158.01,-1341.26 219.79,-1313.46 296.64,-1307.14 354.63,-1307.25"/>
<polygon fill="black" stroke="black" points="354.83,-1310.75 364.86,-1307.34 354.89,-1303.75 354.83,-1310.75"/>
<text text-anchor="middle" x="234.01" y="-1345.06" font-family="Times,serif" font-size="14.00">dcterms:publisher</text>
</g>
<!-- http://spdx.org/licenses/AGPL&#45;3.0&#45;or&#45;later -->
<g id="node32" class="node">
<title>http://spdx.org/licenses/AGPL&#45;3.0&#45;or&#45;later</title>
<ellipse fill="none" stroke="#e377c2" cx="441.85" cy="-1261.26" rx="111.95" ry="16.03"/>
<text text-anchor="middle" x="441.85" y="-1257.56" font-family="Times,serif" font-size="14.00">spdxl:AGPL&#45;3.0&#45;or...</text>
</g>
<!-- http://w3id.org/oseg/ont/okhimg&#45;&gt;http://spdx.org/licenses/AGPL&#45;3.0&#45;or&#45;later -->
<g id="edge34" class="edge">
<title>http://w3id.org/oseg/ont/okhimg&#45;&gt;http://spdx.org/licenses/AGPL&#45;3.0&#45;or&#45;later</title>
<path fill="none" stroke="black" d="M76.47,-1404.84C87.07,-1375.88 113.37,-1316.23 158.01,-1289.26 213.19,-1255.93 285.72,-1249.33 343.52,-1250.85"/>
<polygon fill="black" stroke="black" points="343.65,-1254.36 353.76,-1251.21 343.89,-1247.37 343.65,-1254.36"/>
<text text-anchor="middle" x="234.01" y="-1293.06" font-family="Times,serif" font-size="14.00">spdx:licenseDeclared</text>
</g>
<!-- http://id.loc.gov/vocabulary/iso639&#45;1/en -->
<g id="node41" class="node">
<title>http://id.loc.gov/vocabulary/iso639&#45;1/en</title>
<ellipse fill="none" stroke="#e377c2" cx="441.85" cy="-1210.26" rx="45.01" ry="16.03"/>
<text text-anchor="middle" x="441.85" y="-1206.56" font-family="Times,serif" font-size="14.00">ns3:en</text>
</g>
<!-- http://w3id.org/oseg/ont/okhimg&#45;&gt;http://id.loc.gov/vocabulary/iso639&#45;1/en -->
<g id="edge46" class="edge">
<title>http://w3id.org/oseg/ont/okhimg&#45;&gt;http://id.loc.gov/vocabulary/iso639&#45;1/en</title>
<path fill="none" stroke="black" d="M72.99,-1404.77C78.55,-1366.75 97.99,-1273.01 158.01,-1231.26 227.94,-1182.62 332.51,-1190.13 392.98,-1200.11"/>
<polygon fill="black" stroke="black" points="392.56,-1203.59 403.02,-1201.86 393.76,-1196.7 392.56,-1203.59"/>
<text text-anchor="middle" x="234.01" y="-1235.06" font-family="Times,serif" font-size="14.00">dcterms:language</text>
</g>
<!-- http://w3id.org/oseg/ont/okhimg#tagIcon -->
<g id="node17" class="node">
<title>http://w3id.org/oseg/ont/okhimg#tagIcon</title>
<ellipse fill="none" stroke="#e377c2" cx="1333.03" cy="-882.26" rx="89.61" ry="16.03"/>
<text text-anchor="middle" x="1333.03" y="-878.56" font-family="Times,serif" font-size="14.00">okhimg:tagIcon</text>
</g>
<!-- http://w3id.org/oseg/ont/okhimg#tagIcon&#45;&gt;http://schema.org/DefinedTerm -->
<g id="edge13" class="edge">
<title>http://w3id.org/oseg/ont/okhimg#tagIcon&#45;&gt;http://schema.org/DefinedTerm</title>
<path fill="none" stroke="black" d="M1404.44,-872.29C1422.99,-868.45 1442.73,-863.24 1460.3,-856.26 1510.31,-836.41 1562.22,-801.4 1593.42,-778.52"/>
<polygon fill="black" stroke="black" points="1595.71,-781.18 1601.65,-772.41 1591.54,-775.56 1595.71,-781.18"/>
<text text-anchor="middle" x="1482.8" y="-852.06" font-family="Times,serif" font-size="14.00">a</text>
</g>
<!-- http://w3id.org/oseg/ont/okhimg#slotIconMainBw -->
<g id="node18" class="node">
<title>http://w3id.org/oseg/ont/okhimg#slotIconMainBw</title>
<ellipse fill="none" stroke="#e377c2" cx="1333.03" cy="-1391.26" rx="117.26" ry="16.03"/>
<text text-anchor="middle" x="1333.03" y="-1387.56" font-family="Times,serif" font-size="14.00">okhimg:slotIconMa...</text>
</g>
<!-- http://w3id.org/oseg/ont/okhimg#slotIconMainBw&#45;&gt;http://schema.org/DefinedTerm -->
<g id="edge14" class="edge">
<title>http://w3id.org/oseg/ont/okhimg#slotIconMainBw&#45;&gt;http://schema.org/DefinedTerm</title>
<path fill="none" stroke="black" d="M1428.03,-1381.61C1439.59,-1377.7 1450.7,-1372.41 1460.3,-1365.26 1480.57,-1350.19 1478.26,-1338.84 1487.3,-1315.26 1563.07,-1117.64 1605.99,-864.01 1618.5,-782.63"/>
<polygon fill="black" stroke="black" points="1621.97,-783.15 1620.01,-772.73 1615.05,-782.1 1621.97,-783.15"/>
<text text-anchor="middle" x="1482.8" y="-1346.06" font-family="Times,serif" font-size="14.00">a</text>
</g>
<!-- http://w3id.org/oseg/ont/okhimg#slotIconMain -->
<g id="node21" class="node">
<title>http://w3id.org/oseg/ont/okhimg#slotIconMain</title>
<ellipse fill="none" stroke="#e377c2" cx="884.08" cy="-1378.26" rx="117.26" ry="16.03"/>
<text text-anchor="middle" x="884.08" y="-1374.56" font-family="Times,serif" font-size="14.00">okhimg:slotIconMain</text>
</g>
<!-- http://w3id.org/oseg/ont/okhimg#slotIconMainBw&#45;&gt;http://w3id.org/oseg/ont/okhimg#slotIconMain -->
<g id="edge17" class="edge">
<title>http://w3id.org/oseg/ont/okhimg#slotIconMainBw&#45;&gt;http://w3id.org/oseg/ont/okhimg#slotIconMain</title>
<path fill="none" stroke="black" d="M1259.22,-1378.58C1236.41,-1375.16 1211.1,-1371.95 1187.75,-1370.26 1113.15,-1364.86 1094.22,-1368.04 1019.45,-1370.26 1013.32,-1370.45 1007.04,-1370.67 1000.69,-1370.94"/>
<polygon fill="black" stroke="black" points="1000.52,-1367.44 990.68,-1371.38 1000.83,-1374.44 1000.52,-1367.44"/>
<text text-anchor="middle" x="1103.6" y="-1374.06" font-family="Times,serif" font-size="14.00">seeAlso</text>
</g>
<!-- http://w3id.org/oseg/ont/okhimg#slotModelFromBelow -->
<g id="node19" class="node">
<title>http://w3id.org/oseg/ont/okhimg#slotModelFromBelow</title>
<ellipse fill="none" stroke="#e377c2" cx="1333.03" cy="-831.26" rx="116.85" ry="16.03"/>
<text text-anchor="middle" x="1333.03" y="-827.56" font-family="Times,serif" font-size="14.00">okhimg:slotModelF...</text>
</g>
<!-- http://w3id.org/oseg/ont/okhimg#slotModelFromBelow&#45;&gt;http://schema.org/DefinedTerm -->
<g id="edge15" class="edge">
<title>http://w3id.org/oseg/ont/okhimg#slotModelFromBelow&#45;&gt;http://schema.org/DefinedTerm</title>
<path fill="none" stroke="black" d="M1397.63,-817.69C1425.29,-811.54 1458,-803.94 1487.3,-796.26 1512.99,-789.54 1541.18,-781.32 1565.13,-774.09"/>
<polygon fill="black" stroke="black" points="1566.22,-777.42 1574.77,-771.17 1564.19,-770.72 1566.22,-777.42"/>
<text text-anchor="middle" x="1482.8" y="-803.06" font-family="Times,serif" font-size="14.00">a</text>
</g>
<!-- http://w3id.org/oseg/ont/okhimg#slots&#45;&gt;http://schema.org/DefinedTermSet -->
<g id="edge43" class="edge">
<title>http://w3id.org/oseg/ont/okhimg#slots&#45;&gt;http://schema.org/DefinedTermSet</title>
<path fill="none" stroke="black" d="M492.68,-1375.31C517.01,-1380.94 546.78,-1387.44 573.7,-1392.26 650.97,-1406.1 671.63,-1401.28 748.7,-1416.26 772.67,-1420.92 798.75,-1427.23 821.51,-1433.15"/>
<polygon fill="black" stroke="black" points="820.81,-1436.59 831.37,-1435.75 822.59,-1429.82 820.81,-1436.59"/>
<text text-anchor="middle" x="661.2" y="-1420.06" font-family="Times,serif" font-size="14.00">a</text>
</g>
<!-- http://w3id.org/oseg/ont/okhimg#slots&#45;&gt;http://w3id.org/oseg/ont/okhimg#slotIconMain -->
<g id="edge48" class="edge">
<title>http://w3id.org/oseg/ont/okhimg#slots&#45;&gt;http://w3id.org/oseg/ont/okhimg#slotIconMain</title>
<path fill="none" stroke="black" d="M517.03,-1365.79C583.16,-1368.04 681.28,-1371.39 759.29,-1374.05"/>
<polygon fill="black" stroke="black" points="759.56,-1377.56 769.67,-1374.4 759.8,-1370.56 759.56,-1377.56"/>
<text text-anchor="middle" x="661.2" y="-1377.06" font-family="Times,serif" font-size="14.00">schema:hasDefinedTerm</text>
</g>
<!-- http://w3id.org/oseg/ont/okhimg#slotIconMain&#45;&gt;http://schema.org/DefinedTerm -->
<g id="edge18" class="edge">
<title>http://w3id.org/oseg/ont/okhimg#slotIconMain&#45;&gt;http://schema.org/DefinedTerm</title>
<path fill="none" stroke="black" d="M939.28,-1392.66C963.61,-1398.52 992.79,-1404.74 1019.45,-1408.26 1116.59,-1421.09 1377.14,-1468.08 1460.3,-1416.26 1571.99,-1346.67 1612.1,-897.3 1620.58,-782.78"/>
<polygon fill="black" stroke="black" points="1624.07,-783 1621.3,-772.77 1617.09,-782.49 1624.07,-783"/>
<text text-anchor="middle" x="1333.03" y="-1443.06" font-family="Times,serif" font-size="14.00">a</text>
</g>
<!-- http://w3id.org/oseg/ont/okhimg#slotIconMain&#45;&gt;http://w3id.org/oseg/ont/okhimg#slotIconMainBw -->
<g id="edge47" class="edge">
<title>http://w3id.org/oseg/ont/okhimg#slotIconMain&#45;&gt;http://w3id.org/oseg/ont/okhimg#slotIconMainBw</title>
<path fill="none" stroke="black" d="M993.61,-1384.22C1002.35,-1384.61 1011.05,-1384.96 1019.45,-1385.26 1080.73,-1387.45 1148.79,-1388.87 1205.72,-1389.78"/>
<polygon fill="black" stroke="black" points="1205.8,-1393.28 1215.85,-1389.94 1205.91,-1386.28 1205.8,-1393.28"/>
<text text-anchor="middle" x="1103.6" y="-1393.06" font-family="Times,serif" font-size="14.00">seeAlso</text>
</g>
<!-- http://w3id.org/oseg/ont/okhimg#slotLogo -->
<g id="node22" class="node">
<title>http://w3id.org/oseg/ont/okhimg#slotLogo</title>
<ellipse fill="none" stroke="#e377c2" cx="884.08" cy="-752.26" rx="94.51" ry="16.03"/>
<text text-anchor="middle" x="884.08" y="-748.56" font-family="Times,serif" font-size="14.00">okhimg:slotLogo</text>
</g>
<!-- http://w3id.org/oseg/ont/okhimg#slotLogo&#45;&gt;http://schema.org/DefinedTerm -->
<g id="edge29" class="edge">
<title>http://w3id.org/oseg/ont/okhimg#slotLogo&#45;&gt;http://schema.org/DefinedTerm</title>
<path fill="none" stroke="black" d="M965.65,-760.63C983.36,-762.15 1002.02,-763.49 1019.45,-764.26 1066.61,-766.36 1409.04,-765.42 1487.3,-763.26 1492.66,-763.12 1498.13,-762.94 1503.66,-762.74"/>
<polygon fill="black" stroke="black" points="1503.8,-766.24 1513.66,-762.36 1503.53,-759.24 1503.8,-766.24"/>
<text text-anchor="middle" x="1333.03" y="-770.06" font-family="Times,serif" font-size="14.00">a</text>
</g>
<!-- http://w3id.org/oseg/ont/okhimg#slotLogoBw -->
<g id="node23" class="node">
<title>http://w3id.org/oseg/ont/okhimg#slotLogoBw</title>
<ellipse fill="none" stroke="#e377c2" cx="1333.03" cy="-730.26" rx="111.03" ry="16.03"/>
<text text-anchor="middle" x="1333.03" y="-726.56" font-family="Times,serif" font-size="14.00">okhimg:slotLogoBw</text>
</g>
<!-- http://w3id.org/oseg/ont/okhimg#slotLogo&#45;&gt;http://w3id.org/oseg/ont/okhimg#slotLogoBw -->
<g id="edge40" class="edge">
<title>http://w3id.org/oseg/ont/okhimg#slotLogo&#45;&gt;http://w3id.org/oseg/ont/okhimg#slotLogoBw</title>
<path fill="none" stroke="black" d="M930.9,-738.1C956.64,-730.89 989.52,-722.88 1019.45,-719.26 1091.71,-710.52 1173.99,-713.95 1235.99,-719.2"/>
<polygon fill="black" stroke="black" points="1235.88,-722.7 1246.15,-720.09 1236.49,-715.73 1235.88,-722.7"/>
<text text-anchor="middle" x="1103.6" y="-723.06" font-family="Times,serif" font-size="14.00">seeAlso</text>
</g>
<!-- http://w3id.org/oseg/ont/okhimg#slotLogoBw&#45;&gt;http://schema.org/DefinedTerm -->
<g id="edge23" class="edge">
<title>http://w3id.org/oseg/ont/okhimg#slotLogoBw&#45;&gt;http://schema.org/DefinedTerm</title>
<path fill="none" stroke="black" d="M1428.05,-738.74C1455.42,-741.21 1485.55,-743.93 1513.75,-746.47"/>
<polygon fill="black" stroke="black" points="1513.76,-749.98 1524.04,-747.4 1514.39,-743.01 1513.76,-749.98"/>
<text text-anchor="middle" x="1482.8" y="-748.06" font-family="Times,serif" font-size="14.00">a</text>
</g>
<!-- http://w3id.org/oseg/ont/okhimg#slotLogoBw&#45;&gt;http://w3id.org/oseg/ont/okhimg#slotLogo -->
<g id="edge22" class="edge">
<title>http://w3id.org/oseg/ont/okhimg#slotLogoBw&#45;&gt;http://w3id.org/oseg/ont/okhimg#slotLogo</title>
<path fill="none" stroke="black" d="M1227.48,-735.41C1154.4,-739.01 1057.36,-743.78 985.26,-747.33"/>
<polygon fill="black" stroke="black" points="985.07,-743.84 975.25,-747.82 985.41,-750.83 985.07,-743.84"/>
<text text-anchor="middle" x="1103.6" y="-749.06" font-family="Times,serif" font-size="14.00">seeAlso</text>
</g>
<!-- http://w3id.org/oseg/ont/okhimg#tagBw -->
<g id="node25" class="node">
<title>http://w3id.org/oseg/ont/okhimg#tagBw</title>
<ellipse fill="none" stroke="#e377c2" cx="1333.03" cy="-679.26" rx="84.29" ry="16.03"/>
<text text-anchor="middle" x="1333.03" y="-675.56" font-family="Times,serif" font-size="14.00">okhimg:tagBw</text>
</g>
<!-- http://w3id.org/oseg/ont/okhimg#tagBw&#45;&gt;http://schema.org/DefinedTerm -->
<g id="edge25" class="edge">
<title>http://w3id.org/oseg/ont/okhimg#tagBw&#45;&gt;http://schema.org/DefinedTerm</title>
<path fill="none" stroke="black" d="M1394.69,-690.45C1415.59,-694.65 1439.07,-699.75 1460.3,-705.26 1496.89,-714.76 1537.46,-727.53 1568.86,-737.91"/>
<polygon fill="black" stroke="black" points="1568.12,-741.35 1578.71,-741.19 1570.33,-734.71 1568.12,-741.35"/>
<text text-anchor="middle" x="1482.8" y="-717.06" font-family="Times,serif" font-size="14.00">a</text>
</g>
<!-- http://w3id.org/oseg/ont/okhimg#tagColor -->
<g id="node26" class="node">
<title>http://w3id.org/oseg/ont/okhimg#tagColor</title>
<ellipse fill="none" stroke="#e377c2" cx="1333.03" cy="-628.26" rx="95.42" ry="16.03"/>
<text text-anchor="middle" x="1333.03" y="-624.56" font-family="Times,serif" font-size="14.00">okhimg:tagColor</text>
</g>
<!-- http://w3id.org/oseg/ont/okhimg#tagColor&#45;&gt;http://schema.org/DefinedTerm -->
<g id="edge26" class="edge">
<title>http://w3id.org/oseg/ont/okhimg#tagColor&#45;&gt;http://schema.org/DefinedTerm</title>
<path fill="none" stroke="black" d="M1406.8,-638.62C1424.66,-642.41 1443.48,-647.5 1460.3,-654.26 1510.78,-674.56 1562.94,-710.58 1594.02,-733.93"/>
<polygon fill="black" stroke="black" points="1592.13,-736.89 1602.21,-740.16 1596.37,-731.32 1592.13,-736.89"/>
<text text-anchor="middle" x="1482.8" y="-669.06" font-family="Times,serif" font-size="14.00">a</text>
</g>
<!-- http://w3id.org/oseg/ont/okhimg#slotOrganizationLogoBw&#45;&gt;http://schema.org/DefinedTerm -->
<g id="edge28" class="edge">
<title>http://w3id.org/oseg/ont/okhimg#slotOrganizationLogoBw&#45;&gt;http://schema.org/DefinedTerm</title>
<path fill="none" stroke="black" d="M1427.49,-1178.97C1439.26,-1175.02 1450.57,-1169.62 1460.3,-1162.26 1586.69,-1066.69 1614.74,-856.96 1620.78,-782.85"/>
<polygon fill="black" stroke="black" points="1624.3,-782.77 1621.55,-772.54 1617.32,-782.25 1624.3,-782.77"/>
<text text-anchor="middle" x="1482.8" y="-1144.06" font-family="Times,serif" font-size="14.00">a</text>
</g>
<!-- http://w3id.org/oseg/ont/okhimg#slotOrganizationLogoBw&#45;&gt;http://w3id.org/oseg/ont/okhimg#slotOrganizationLogo -->
<g id="edge5" class="edge">
<title>http://w3id.org/oseg/ont/okhimg#slotOrganizationLogoBw&#45;&gt;http://w3id.org/oseg/ont/okhimg#slotOrganizationLogo</title>
<path fill="none" stroke="black" d="M1224.43,-1193.56C1157.42,-1196.86 1071.2,-1201.1 1002.43,-1204.49"/>
<polygon fill="black" stroke="black" points="1002.23,-1200.99 992.42,-1204.98 1002.58,-1207.98 1002.23,-1200.99"/>
<text text-anchor="middle" x="1103.6" y="-1207.06" font-family="Times,serif" font-size="14.00">seeAlso</text>
</g>
<!-- http://w3id.org/oseg/ont/okhimg#slotModelFromRight -->
<g id="node28" class="node">
<title>http://w3id.org/oseg/ont/okhimg#slotModelFromRight</title>
<ellipse fill="none" stroke="#e377c2" cx="1333.03" cy="-577.26" rx="116.85" ry="16.03"/>
<text text-anchor="middle" x="1333.03" y="-573.56" font-family="Times,serif" font-size="14.00">okhimg:slotModelF...</text>
</g>
<!-- http://w3id.org/oseg/ont/okhimg#slotModelFromRight&#45;&gt;http://schema.org/DefinedTerm -->
<g id="edge30" class="edge">
<title>http://w3id.org/oseg/ont/okhimg#slotModelFromRight&#45;&gt;http://schema.org/DefinedTerm</title>
<path fill="none" stroke="black" d="M1419.8,-588.22C1433.8,-591.87 1447.8,-596.75 1460.3,-603.26 1521.7,-635.21 1576.42,-697.19 1603.83,-731.65"/>
<polygon fill="black" stroke="black" points="1601.27,-734.07 1610.19,-739.79 1606.78,-729.75 1601.27,-734.07"/>
<text text-anchor="middle" x="1482.8" y="-623.06" font-family="Times,serif" font-size="14.00">a</text>
</g>
<!-- http://w3id.org/oseg/ont/okhimg#tagGray -->
<g id="node29" class="node">
<title>http://w3id.org/oseg/ont/okhimg#tagGray</title>
<ellipse fill="none" stroke="#e377c2" cx="1333.03" cy="-526.26" rx="92.76" ry="16.03"/>
<text text-anchor="middle" x="1333.03" y="-522.56" font-family="Times,serif" font-size="14.00">okhimg:tagGray</text>
</g>
<!-- http://w3id.org/oseg/ont/okhimg#tagGray&#45;&gt;http://schema.org/DefinedTerm -->
<g id="edge31" class="edge">
<title>http://w3id.org/oseg/ont/okhimg#tagGray&#45;&gt;http://schema.org/DefinedTerm</title>
<path fill="none" stroke="black" d="M1414.35,-534.09C1430.36,-537.99 1446.48,-543.76 1460.3,-552.26 1533.18,-597.07 1586.84,-687.01 1609.91,-730.94"/>
<polygon fill="black" stroke="black" points="1606.8,-732.55 1614.48,-739.84 1613.02,-729.34 1606.8,-732.55"/>
<text text-anchor="middle" x="1482.8" y="-573.06" font-family="Times,serif" font-size="14.00">a</text>
</g>
<!-- http://w3id.org/oseg/ont/okhimg#slotModelFromBack -->
<g id="node30" class="node">
<title>http://w3id.org/oseg/ont/okhimg#slotModelFromBack</title>
<ellipse fill="none" stroke="#e377c2" cx="1333.03" cy="-475.26" rx="116.85" ry="16.03"/>
<text text-anchor="middle" x="1333.03" y="-471.56" font-family="Times,serif" font-size="14.00">okhimg:slotModelF...</text>
</g>
<!-- http://w3id.org/oseg/ont/okhimg#slotModelFromBack&#45;&gt;http://schema.org/DefinedTerm -->
<g id="edge32" class="edge">
<title>http://w3id.org/oseg/ont/okhimg#slotModelFromBack&#45;&gt;http://schema.org/DefinedTerm</title>
<path fill="none" stroke="black" d="M1426.25,-485.15C1438.35,-488.99 1450.08,-494.21 1460.3,-501.26 1544.91,-559.62 1594.96,-678.03 1613.78,-730.38"/>
<polygon fill="black" stroke="black" points="1610.52,-731.65 1617.13,-739.93 1617.13,-729.33 1610.52,-731.65"/>
<text text-anchor="middle" x="1482.8" y="-526.06" font-family="Times,serif" font-size="14.00">a</text>
</g>
<!-- http://w3id.org/oseg/ont/okhimg#slotSocial -->
<g id="node31" class="node">
<title>http://w3id.org/oseg/ont/okhimg#slotSocial</title>
<ellipse fill="none" stroke="#e377c2" cx="1333.03" cy="-424.26" rx="101.23" ry="16.03"/>
<text text-anchor="middle" x="1333.03" y="-420.56" font-family="Times,serif" font-size="14.00">okhimg:slotSocial</text>
</g>
<!-- http://w3id.org/oseg/ont/okhimg#slotSocial&#45;&gt;http://schema.org/DefinedTerm -->
<g id="edge33" class="edge">
<title>http://w3id.org/oseg/ont/okhimg#slotSocial&#45;&gt;http://schema.org/DefinedTerm</title>
<path fill="none" stroke="black" d="M1421.64,-432.22C1435.43,-436.23 1448.88,-442 1460.3,-450.26 1558.41,-521.23 1602.47,-669.93 1616.81,-730.13"/>
<polygon fill="black" stroke="black" points="1613.42,-731.02 1619.07,-739.98 1620.24,-729.45 1613.42,-731.02"/>
<text text-anchor="middle" x="1482.8" y="-472.06" font-family="Times,serif" font-size="14.00">a</text>
</g>
<!-- http://w3id.org/oseg/ont/okhimg#slotPhotoPackaging -->
<g id="node33" class="node">
<title>http://w3id.org/oseg/ont/okhimg#slotPhotoPackaging</title>
<ellipse fill="none" stroke="#e377c2" cx="1333.03" cy="-373.26" rx="113.69" ry="16.03"/>
<text text-anchor="middle" x="1333.03" y="-369.56" font-family="Times,serif" font-size="14.00">okhimg:slotPhotoP...</text>
</g>
<!-- http://w3id.org/oseg/ont/okhimg#slotPhotoPackaging&#45;&gt;http://schema.org/DefinedTerm -->
<g id="edge35" class="edge">
<title>http://w3id.org/oseg/ont/okhimg#slotPhotoPackaging&#45;&gt;http://schema.org/DefinedTerm</title>
<path fill="none" stroke="black" d="M1427.05,-382.59C1438.96,-386.53 1450.43,-391.92 1460.3,-399.26 1572.33,-482.56 1608.89,-661.51 1619,-729.4"/>
<polygon fill="black" stroke="black" points="1615.59,-730.26 1620.45,-739.67 1622.52,-729.28 1615.59,-730.26"/>
<text text-anchor="middle" x="1482.8" y="-424.06" font-family="Times,serif" font-size="14.00">a</text>
</g>
<!-- http://w3id.org/oseg/ont/okhimg#tagDrawing -->
<g id="node34" class="node">
<title>http://w3id.org/oseg/ont/okhimg#tagDrawing</title>
<ellipse fill="none" stroke="#e377c2" cx="1333.03" cy="-322.26" rx="111.95" ry="16.03"/>
<text text-anchor="middle" x="1333.03" y="-318.56" font-family="Times,serif" font-size="14.00">okhimg:tagDrawing</text>
</g>
<!-- http://w3id.org/oseg/ont/okhimg#tagDrawing&#45;&gt;http://schema.org/DefinedTerm -->
<g id="edge36" class="edge">
<title>http://w3id.org/oseg/ont/okhimg#tagDrawing&#45;&gt;http://schema.org/DefinedTerm</title>
<path fill="none" stroke="black" d="M1426.57,-331.16C1438.69,-335.15 1450.34,-340.66 1460.3,-348.26 1586.86,-444.74 1614.8,-655.22 1620.8,-729.59"/>
<polygon fill="black" stroke="black" points="1617.34,-730.22 1621.56,-739.93 1624.32,-729.7 1617.34,-730.22"/>
<text text-anchor="middle" x="1482.8" y="-376.06" font-family="Times,serif" font-size="14.00">a</text>
</g>
<!-- http://w3id.org/oseg/ont/okhimg#tagScreenshot -->
<g id="node35" class="node">
<title>http://w3id.org/oseg/ont/okhimg#tagScreenshot</title>
<ellipse fill="none" stroke="#e377c2" cx="1333.03" cy="-271.26" rx="125.32" ry="16.03"/>
<text text-anchor="middle" x="1333.03" y="-267.56" font-family="Times,serif" font-size="14.00">okhimg:tagScreenshot</text>
</g>
<!-- http://w3id.org/oseg/ont/okhimg#tagScreenshot&#45;&gt;http://schema.org/DefinedTerm -->
<g id="edge38" class="edge">
<title>http://w3id.org/oseg/ont/okhimg#tagScreenshot&#45;&gt;http://schema.org/DefinedTerm</title>
<path fill="none" stroke="black" d="M1430.91,-281.42C1441.49,-285.3 1451.57,-290.45 1460.3,-297.26 1601.29,-407.2 1619.95,-648.88 1622.18,-729.5"/>
<polygon fill="black" stroke="black" points="1618.69,-729.85 1622.4,-739.77 1625.68,-729.7 1618.69,-729.85"/>
<text text-anchor="middle" x="1482.8" y="-318.06" font-family="Times,serif" font-size="14.00">a</text>
</g>
<!-- http://w3id.org/oseg/ont/okhimg#slotModelFromFront -->
<g id="node36" class="node">
<title>http://w3id.org/oseg/ont/okhimg#slotModelFromFront</title>
<ellipse fill="none" stroke="#e377c2" cx="1333.03" cy="-220.26" rx="116.85" ry="16.03"/>
<text text-anchor="middle" x="1333.03" y="-216.56" font-family="Times,serif" font-size="14.00">okhimg:slotModelF...</text>
</g>
<!-- http://w3id.org/oseg/ont/okhimg#slotModelFromFront&#45;&gt;http://schema.org/DefinedTerm -->
<g id="edge39" class="edge">
<title>http://w3id.org/oseg/ont/okhimg#slotModelFromFront&#45;&gt;http://schema.org/DefinedTerm</title>
<path fill="none" stroke="black" d="M1427.64,-229.89C1439.33,-233.79 1450.57,-239.09 1460.3,-246.26 1480.32,-261.02 1477.75,-272.31 1487.3,-295.26 1553.75,-454.93 1601.18,-658.39 1616.81,-729.95"/>
<polygon fill="black" stroke="black" points="1613.43,-730.87 1618.96,-739.9 1620.27,-729.39 1613.43,-730.87"/>
<text text-anchor="middle" x="1482.8" y="-299.06" font-family="Times,serif" font-size="14.00">a</text>
</g>
<!-- http://w3id.org/oseg/ont/okhimg#slotModel3D -->
<g id="node37" class="node">
<title>http://w3id.org/oseg/ont/okhimg#slotModel3D</title>
<ellipse fill="none" stroke="#e377c2" cx="1333.03" cy="-169.26" rx="115.93" ry="16.03"/>
<text text-anchor="middle" x="1333.03" y="-165.56" font-family="Times,serif" font-size="14.00">okhimg:slotModel3D</text>
</g>
<!-- http://w3id.org/oseg/ont/okhimg#slotModel3D&#45;&gt;http://schema.org/DefinedTerm -->
<g id="edge41" class="edge">
<title>http://w3id.org/oseg/ont/okhimg#slotModel3D&#45;&gt;http://schema.org/DefinedTerm</title>
<path fill="none" stroke="black" d="M1428.66,-178.62C1440.06,-182.58 1450.95,-187.97 1460.3,-195.26 1482.09,-212.25 1477.69,-225.36 1487.3,-251.26 1553.36,-429.28 1601.67,-653.61 1617.12,-729.66"/>
<polygon fill="black" stroke="black" points="1613.76,-730.67 1619.16,-739.78 1620.62,-729.29 1613.76,-730.67"/>
<text text-anchor="middle" x="1482.8" y="-255.06" font-family="Times,serif" font-size="14.00">a</text>
</g>
<!-- http://w3id.org/oseg/ont/okhimg#tagModel -->
<g id="node38" class="node">
<title>http://w3id.org/oseg/ont/okhimg#tagModel</title>
<ellipse fill="none" stroke="#e377c2" cx="1333.03" cy="-118.26" rx="99.9" ry="16.03"/>
<text text-anchor="middle" x="1333.03" y="-114.56" font-family="Times,serif" font-size="14.00">okhimg:tagModel</text>
</g>
<!-- http://w3id.org/oseg/ont/okhimg#tagModel&#45;&gt;http://schema.org/DefinedTerm -->
<g id="edge42" class="edge">
<title>http://w3id.org/oseg/ont/okhimg#tagModel&#45;&gt;http://schema.org/DefinedTerm</title>
<path fill="none" stroke="black" d="M1422.54,-125.56C1436.15,-129.65 1449.3,-135.62 1460.3,-144.26 1482.35,-161.58 1477.94,-174.84 1487.3,-201.26 1557.22,-398.56 1603.68,-647.8 1617.83,-729.21"/>
<polygon fill="black" stroke="black" points="1614.47,-730.3 1619.61,-739.56 1621.36,-729.11 1614.47,-730.3"/>
<text text-anchor="middle" x="1482.8" y="-205.06" font-family="Times,serif" font-size="14.00">a</text>
</g>
<!-- http://w3id.org/oseg/ont/okhimg#tagArt&#45;&gt;http://schema.org/DefinedTerm -->
<g id="edge44" class="edge">
<title>http://w3id.org/oseg/ont/okhimg#tagArt&#45;&gt;http://schema.org/DefinedTerm</title>
<path fill="none" stroke="black" d="M1159.36,-1514.48C1242.62,-1529.49 1400.54,-1543.4 1487.3,-1457.26 1585.51,-1359.77 1615.17,-899.02 1621.15,-782.89"/>
<polygon fill="black" stroke="black" points="1624.65,-782.91 1621.66,-772.75 1617.66,-782.56 1624.65,-782.91"/>
<text text-anchor="middle" x="1333.03" y="-1529.06" font-family="Times,serif" font-size="14.00">a</text>
</g>
<!-- http://w3id.org/oseg/ont/okhimg#slotModelFromLeft -->
<g id="node40" class="node">
<title>http://w3id.org/oseg/ont/okhimg#slotModelFromLeft</title>
<ellipse fill="none" stroke="#e377c2" cx="1333.03" cy="-67.26" rx="116.85" ry="16.03"/>
<text text-anchor="middle" x="1333.03" y="-63.56" font-family="Times,serif" font-size="14.00">okhimg:slotModelF...</text>
</g>
<!-- http://w3id.org/oseg/ont/okhimg#slotModelFromLeft&#45;&gt;http://schema.org/DefinedTerm -->
<g id="edge45" class="edge">
<title>http://w3id.org/oseg/ont/okhimg#slotModelFromLeft&#45;&gt;http://schema.org/DefinedTerm</title>
<path fill="none" stroke="black" d="M1429.08,-76.61C1440.34,-80.58 1451.09,-85.97 1460.3,-93.26 1482.61,-110.9 1478.15,-124.34 1487.3,-151.26 1561.21,-368.68 1605.76,-643.97 1618.55,-729.61"/>
<polygon fill="black" stroke="black" points="1615.09,-730.16 1620.02,-739.54 1622.02,-729.14 1615.09,-730.16"/>
<text text-anchor="middle" x="1482.8" y="-155.06" font-family="Times,serif" font-size="14.00">a</text>
</g>
<!-- http://w3id.org/oseg/ont/okhimg#tagAssembly -->
<g id="node42" class="node">
<title>http://w3id.org/oseg/ont/okhimg#tagAssembly</title>
<ellipse fill="none" stroke="#e377c2" cx="1333.03" cy="-16.26" rx="116.85" ry="16.03"/>
<text text-anchor="middle" x="1333.03" y="-12.56" font-family="Times,serif" font-size="14.00">okhimg:tagAssembly</text>
</g>
<!-- http://w3id.org/oseg/ont/okhimg#tagAssembly&#45;&gt;http://schema.org/DefinedTerm -->
<g id="edge50" class="edge">
<title>http://w3id.org/oseg/ont/okhimg#tagAssembly&#45;&gt;http://schema.org/DefinedTerm</title>
<path fill="none" stroke="black" d="M1429.03,-25.67C1440.3,-29.63 1451.06,-35.01 1460.3,-42.26 1482.35,-59.58 1478.42,-72.68 1487.3,-99.26 1566.77,-336.99 1608.11,-639.43 1619.25,-729.69"/>
<polygon fill="black" stroke="black" points="1615.78,-730.13 1620.46,-739.63 1622.73,-729.28 1615.78,-730.13"/>
<text text-anchor="middle" x="1482.8" y="-103.06" font-family="Times,serif" font-size="14.00">a</text>
</g>
</g>
</svg>
