<?xml version="1.0" encoding="UTF-8" standalone="no"?>
<!DOCTYPE svg PUBLIC "-//W3C//DTD SVG 1.1//EN"
 "http://www.w3.org/Graphics/SVG/1.1/DTD/svg11.dtd">
<!-- Generated by graphviz version 2.43.0 (0)
 -->
<!-- Title: G Pages: 1 -->
<svg width="992pt" height="1818pt"
 viewBox="0.00 0.00 992.00 1818.00" xmlns="http://www.w3.org/2000/svg" xmlns:xlink="http://www.w3.org/1999/xlink">
<g id="graph0" class="graph" transform="scale(1 1) rotate(0) translate(4 1814)">
<title>G</title>
<polygon fill="white" stroke="transparent" points="-4,4 -4,-1814 988,-1814 988,4 -4,4"/>
<!-- http://spdx.org/rdf/terms#SpdxItem -->
<g id="node1" class="node">
<title>http://spdx.org/rdf/terms#SpdxItem</title>
<ellipse fill="none" stroke="#1f77b4" cx="293.65" cy="-1609.16" rx="87.86" ry="16.03"/>
<text text-anchor="middle" x="293.65" y="-1605.46" font-family="Times,serif" font-size="14.00">spdx:SpdxItem</text>
</g>
<!-- http://w3id.org/oseg/ont/ods#Dataset -->
<g id="node2" class="node">
<title>http://w3id.org/oseg/ont/ods#Dataset</title>
<ellipse fill="none" stroke="#1f77b4" cx="441.67" cy="-1725.08" rx="71.34" ry="16.03"/>
<text text-anchor="middle" x="441.67" y="-1721.38" font-family="Times,serif" font-size="14.00">ods:Dataset</text>
</g>
<!-- http://schema.org/DefinedTerm -->
<g id="node3" class="node">
<title>http://schema.org/DefinedTerm</title>
<ellipse fill="none" stroke="#1f77b4" cx="497.87" cy="-375.71" rx="118.17" ry="16.03"/>
<text text-anchor="middle" x="497.87" y="-372.01" font-family="Times,serif" font-size="14.00">schema:DefinedTerm</text>
</g>
<!-- http://schema.org/DefinedTermSet -->
<g id="node4" class="node">
<title>http://schema.org/DefinedTermSet</title>
<ellipse fill="none" stroke="#1f77b4" cx="645.27" cy="-1354.45" rx="116.85" ry="16.03"/>
<text text-anchor="middle" x="645.27" y="-1350.75" font-family="Times,serif" font-size="14.00">schema:DefinedTer...</text>
</g>
<!-- http://w3id.org/oseg/ont/okhimg#tagGray -->
<g id="node5" class="node">
<title>http://w3id.org/oseg/ont/okhimg#tagGray</title>
<ellipse fill="none" stroke="#e377c2" cx="728.63" cy="-560.17" rx="92.76" ry="16.03"/>
<text text-anchor="middle" x="728.63" y="-556.47" font-family="Times,serif" font-size="14.00">okhimg:tagGray</text>
</g>
<!-- http://w3id.org/oseg/ont/okhimg#tagGray&#45;&gt;http://schema.org/DefinedTerm -->
<g id="edge1" class="edge">
<title>http://w3id.org/oseg/ont/okhimg#tagGray&#45;&gt;http://schema.org/DefinedTerm</title>
<path fill="none" stroke="black" d="M708.56,-544.12C667.39,-511.21 573.3,-436.01 526.05,-398.23"/>
<polygon fill="black" stroke="black" points="528.06,-395.36 518.07,-391.85 523.69,-400.83 528.06,-395.36"/>
<text text-anchor="middle" x="612.8" y="-459.98" font-family="Times,serif" font-size="14.00">a</text>
</g>
<!-- http://w3id.org/oseg/ont/okhimg#slotModelFromLeft -->
<g id="node6" class="node">
<title>http://w3id.org/oseg/ont/okhimg#slotModelFromLeft</title>
<ellipse fill="none" stroke="#e377c2" cx="183.09" cy="-57.21" rx="116.85" ry="16.03"/>
<text text-anchor="middle" x="183.09" y="-53.51" font-family="Times,serif" font-size="14.00">okhimg:slotModelF...</text>
</g>
<!-- http://w3id.org/oseg/ont/okhimg#slotModelFromLeft&#45;&gt;http://schema.org/DefinedTerm -->
<g id="edge2" class="edge">
<title>http://w3id.org/oseg/ont/okhimg#slotModelFromLeft&#45;&gt;http://schema.org/DefinedTerm</title>
<path fill="none" stroke="black" d="M199.13,-73.44C250.92,-125.84 413.78,-290.62 474.63,-352.2"/>
<polygon fill="black" stroke="black" points="472.34,-354.86 481.86,-359.51 477.32,-349.94 472.34,-354.86"/>
<text text-anchor="middle" x="332.38" y="-201.62" font-family="Times,serif" font-size="14.00">a</text>
</g>
<!-- http://w3id.org/oseg/ont/okhimg#tagPhoto -->
<g id="node7" class="node">
<title>http://w3id.org/oseg/ont/okhimg#tagPhoto</title>
<ellipse fill="none" stroke="#e377c2" cx="339.27" cy="-138.29" rx="97.66" ry="16.03"/>
<text text-anchor="middle" x="339.27" y="-134.59" font-family="Times,serif" font-size="14.00">okhimg:tagPhoto</text>
</g>
<!-- http://w3id.org/oseg/ont/okhimg#tagPhoto&#45;&gt;http://schema.org/DefinedTerm -->
<g id="edge3" class="edge">
<title>http://w3id.org/oseg/ont/okhimg#tagPhoto&#45;&gt;http://schema.org/DefinedTerm</title>
<path fill="none" stroke="black" d="M350.17,-154.61C377.45,-195.44 448.78,-302.23 481.3,-350.9"/>
<polygon fill="black" stroke="black" points="478.43,-352.91 486.9,-359.28 484.25,-349.02 478.43,-352.91"/>
<text text-anchor="middle" x="411.23" y="-256.55" font-family="Times,serif" font-size="14.00">a</text>
</g>
<!-- http://w3id.org/oseg/ont/okhimg#tagScreenshot -->
<g id="node8" class="node">
<title>http://w3id.org/oseg/ont/okhimg#tagScreenshot</title>
<ellipse fill="none" stroke="#e377c2" cx="125.22" cy="-259.94" rx="125.32" ry="16.03"/>
<text text-anchor="middle" x="125.22" y="-256.24" font-family="Times,serif" font-size="14.00">okhimg:tagScreenshot</text>
</g>
<!-- http://w3id.org/oseg/ont/okhimg#tagScreenshot&#45;&gt;http://schema.org/DefinedTerm -->
<g id="edge4" class="edge">
<title>http://w3id.org/oseg/ont/okhimg#tagScreenshot&#45;&gt;http://schema.org/DefinedTerm</title>
<path fill="none" stroke="black" d="M173.56,-274.96C241.93,-296.2 366.69,-334.96 439.94,-357.71"/>
<polygon fill="black" stroke="black" points="439.33,-361.19 449.92,-360.81 441.41,-354.5 439.33,-361.19"/>
<text text-anchor="middle" x="302.25" y="-320.14" font-family="Times,serif" font-size="14.00">a</text>
</g>
<!-- http://w3id.org/oseg/ont/okhimg#slotIconMain -->
<g id="node9" class="node">
<title>http://w3id.org/oseg/ont/okhimg#slotIconMain</title>
<ellipse fill="none" stroke="#e377c2" cx="623.28" cy="-815.08" rx="117.26" ry="16.03"/>
<text text-anchor="middle" x="623.28" y="-811.38" font-family="Times,serif" font-size="14.00">okhimg:slotIconMain</text>
</g>
<!-- http://w3id.org/oseg/ont/okhimg#slotIconMain&#45;&gt;http://schema.org/DefinedTerm -->
<g id="edge5" class="edge">
<title>http://w3id.org/oseg/ont/okhimg#slotIconMain&#45;&gt;http://schema.org/DefinedTerm</title>
<path fill="none" stroke="black" d="M618.59,-798.66C599.65,-732.31 528.7,-483.71 505.36,-401.95"/>
<polygon fill="black" stroke="black" points="508.63,-400.64 502.52,-391.98 501.9,-402.56 508.63,-400.64"/>
<text text-anchor="middle" x="557.48" y="-589.11" font-family="Times,serif" font-size="14.00">a</text>
</g>
<!-- http://w3id.org/oseg/ont/okhimg#slotIconMainBw -->
<g id="node14" class="node">
<title>http://w3id.org/oseg/ont/okhimg#slotIconMainBw</title>
<ellipse fill="none" stroke="#e377c2" cx="723.86" cy="-639.97" rx="117.26" ry="16.03"/>
<text text-anchor="middle" x="723.86" y="-636.27" font-family="Times,serif" font-size="14.00">okhimg:slotIconMa...</text>
</g>
<!-- http://w3id.org/oseg/ont/okhimg#slotIconMain&#45;&gt;http://w3id.org/oseg/ont/okhimg#slotIconMainBw -->
<g id="edge20" class="edge">
<title>http://w3id.org/oseg/ont/okhimg#slotIconMain&#45;&gt;http://w3id.org/oseg/ont/okhimg#slotIconMainBw</title>
<path fill="none" stroke="black" d="M637.61,-798.83C658.66,-768.33 696.65,-702.49 714.51,-665.84"/>
<polygon fill="black" stroke="black" points="717.9,-666.87 718.98,-656.33 711.56,-663.89 717.9,-666.87"/>
<text text-anchor="middle" x="648.56" y="-736.14" font-family="Times,serif" font-size="14.00">seeAlso</text>
</g>
<!-- http://w3id.org/oseg/ont/okhimg#slotOrganizationLogoBw -->
<g id="node10" class="node">
<title>http://w3id.org/oseg/ont/okhimg#slotOrganizationLogoBw</title>
<ellipse fill="none" stroke="#e377c2" cx="820.2" cy="-445.53" rx="114.6" ry="16.03"/>
<text text-anchor="middle" x="820.2" y="-441.83" font-family="Times,serif" font-size="14.00">okhimg:slotOrgani...</text>
</g>
<!-- http://w3id.org/oseg/ont/okhimg#slotOrganizationLogoBw&#45;&gt;http://schema.org/DefinedTerm -->
<g id="edge6" class="edge">
<title>http://w3id.org/oseg/ont/okhimg#slotOrganizationLogoBw&#45;&gt;http://schema.org/DefinedTerm</title>
<path fill="none" stroke="black" d="M757.29,-431.9C703.97,-420.35 627.45,-403.78 571.33,-391.62"/>
<polygon fill="black" stroke="black" points="571.97,-388.18 561.45,-389.48 570.49,-395.02 571.97,-388.18"/>
<text text-anchor="middle" x="659.81" y="-415.56" font-family="Times,serif" font-size="14.00">a</text>
</g>
<!-- http://w3id.org/oseg/ont/okhimg#slotOrganizationLogo -->
<g id="node12" class="node">
<title>http://w3id.org/oseg/ont/okhimg#slotOrganizationLogo</title>
<ellipse fill="none" stroke="#e377c2" cx="829.35" cy="-486.1" rx="114.6" ry="16.03"/>
<text text-anchor="middle" x="829.35" y="-482.4" font-family="Times,serif" font-size="14.00">okhimg:slotOrgani...</text>
</g>
<!-- http://w3id.org/oseg/ont/okhimg#slotOrganizationLogoBw&#45;&gt;http://w3id.org/oseg/ont/okhimg#slotOrganizationLogo -->
<g id="edge8" class="edge">
<title>http://w3id.org/oseg/ont/okhimg#slotOrganizationLogoBw&#45;&gt;http://w3id.org/oseg/ont/okhimg#slotOrganizationLogo</title>
<path fill="none" stroke="black" d="M817.22,-462.07C817.24,-462.23 817.27,-462.4 817.29,-462.56"/>
<polygon fill="black" stroke="black" points="813.34,-460.78 818.82,-469.85 820.19,-459.35 813.34,-460.78"/>
<text text-anchor="middle" x="789.75" y="-466.12" font-family="Times,serif" font-size="14.00">seeAlso</text>
</g>
<!-- http://spdx.org/licenses/AGPL&#45;3.0&#45;or&#45;later -->
<g id="node11" class="node">
<title>http://spdx.org/licenses/AGPL&#45;3.0&#45;or&#45;later</title>
<ellipse fill="none" stroke="#e377c2" cx="656.88" cy="-1747.85" rx="111.95" ry="16.03"/>
<text text-anchor="middle" x="656.88" y="-1744.15" font-family="Times,serif" font-size="14.00">spdxl:AGPL&#45;3.0&#45;or...</text>
</g>
<!-- http://w3id.org/oseg/ont/okhimg#slotOrganizationLogo&#45;&gt;http://schema.org/DefinedTerm -->
<g id="edge40" class="edge">
<title>http://w3id.org/oseg/ont/okhimg#slotOrganizationLogo&#45;&gt;http://schema.org/DefinedTerm</title>
<path fill="none" stroke="black" d="M784.3,-471.1C724.11,-451.05 617.53,-415.56 552.73,-393.98"/>
<polygon fill="black" stroke="black" points="553.68,-390.61 543.09,-390.77 551.47,-397.25 553.68,-390.61"/>
<text text-anchor="middle" x="664.01" y="-436.34" font-family="Times,serif" font-size="14.00">a</text>
</g>
<!-- http://w3id.org/oseg/ont/okhimg#slotOrganizationLogo&#45;&gt;http://w3id.org/oseg/ont/okhimg#slotOrganizationLogoBw -->
<g id="edge27" class="edge">
<title>http://w3id.org/oseg/ont/okhimg#slotOrganizationLogo&#45;&gt;http://w3id.org/oseg/ont/okhimg#slotOrganizationLogoBw</title>
<path fill="none" stroke="black" d="M832.33,-469.55C832.31,-469.39 832.29,-469.23 832.26,-469.07"/>
<polygon fill="black" stroke="black" points="836.21,-470.85 830.74,-461.78 829.36,-472.28 836.21,-470.85"/>
<text text-anchor="middle" x="859.8" y="-458.11" font-family="Times,serif" font-size="14.00">seeAlso</text>
</g>
<!-- http://w3id.org/oseg/ont/okhimg#tagModel -->
<g id="node13" class="node">
<title>http://w3id.org/oseg/ont/okhimg#tagModel</title>
<ellipse fill="none" stroke="#e377c2" cx="788.87" cy="-157.81" rx="99.9" ry="16.03"/>
<text text-anchor="middle" x="788.87" y="-154.11" font-family="Times,serif" font-size="14.00">okhimg:tagModel</text>
</g>
<!-- http://w3id.org/oseg/ont/okhimg#tagModel&#45;&gt;http://schema.org/DefinedTerm -->
<g id="edge9" class="edge">
<title>http://w3id.org/oseg/ont/okhimg#tagModel&#45;&gt;http://schema.org/DefinedTerm</title>
<path fill="none" stroke="black" d="M767.47,-173.84C716.18,-212.24 586.13,-309.62 527.43,-353.58"/>
<polygon fill="black" stroke="black" points="525.21,-350.87 519.3,-359.67 529.41,-356.47 525.21,-350.87"/>
<text text-anchor="middle" x="642.95" y="-267.51" font-family="Times,serif" font-size="14.00">a</text>
</g>
<!-- http://w3id.org/oseg/ont/okhimg#slotIconMainBw&#45;&gt;http://schema.org/DefinedTerm -->
<g id="edge10" class="edge">
<title>http://w3id.org/oseg/ont/okhimg#slotIconMainBw&#45;&gt;http://schema.org/DefinedTerm</title>
<path fill="none" stroke="black" d="M709.73,-623.44C671.11,-578.29 563.72,-452.7 518.43,-399.75"/>
<polygon fill="black" stroke="black" points="520.88,-397.22 511.72,-391.9 515.56,-401.77 520.88,-397.22"/>
<text text-anchor="middle" x="609.58" y="-515.4" font-family="Times,serif" font-size="14.00">a</text>
</g>
<!-- http://w3id.org/oseg/ont/okhimg#slotIconMainBw&#45;&gt;http://w3id.org/oseg/ont/okhimg#slotIconMain -->
<g id="edge14" class="edge">
<title>http://w3id.org/oseg/ont/okhimg#slotIconMainBw&#45;&gt;http://w3id.org/oseg/ont/okhimg#slotIconMain</title>
<path fill="none" stroke="black" d="M709.53,-656.22C688.48,-686.72 650.49,-752.56 632.63,-789.21"/>
<polygon fill="black" stroke="black" points="629.24,-788.18 628.15,-798.72 635.58,-791.16 629.24,-788.18"/>
<text text-anchor="middle" x="643.58" y="-711.51" font-family="Times,serif" font-size="14.00">seeAlso</text>
</g>
<!-- http://w3id.org/oseg/ont/oseg&#45;profiles#Iopa -->
<g id="node15" class="node">
<title>http://w3id.org/oseg/ont/oseg&#45;profiles#Iopa</title>
<ellipse fill="none" stroke="#e377c2" cx="711.21" cy="-1630.98" rx="80.72" ry="16.03"/>
<text text-anchor="middle" x="711.21" y="-1627.28" font-family="Times,serif" font-size="14.00">osegprof:Iopa</text>
</g>
<!-- http://w3id.org/oseg/ont/okhimg#slotSymbol -->
<g id="node16" class="node">
<title>http://w3id.org/oseg/ont/okhimg#slotSymbol</title>
<ellipse fill="none" stroke="#e377c2" cx="137.86" cy="-178.83" rx="108.38" ry="16.03"/>
<text text-anchor="middle" x="137.86" y="-175.13" font-family="Times,serif" font-size="14.00">okhimg:slotSymbol</text>
</g>
<!-- http://w3id.org/oseg/ont/okhimg#slotSymbol&#45;&gt;http://schema.org/DefinedTerm -->
<g id="edge12" class="edge">
<title>http://w3id.org/oseg/ont/okhimg#slotSymbol&#45;&gt;http://schema.org/DefinedTerm</title>
<path fill="none" stroke="black" d="M166.72,-194.61C231.36,-229.96 387.79,-315.51 460.08,-355.05"/>
<polygon fill="black" stroke="black" points="458.43,-358.13 468.88,-359.86 461.79,-351.99 458.43,-358.13"/>
<text text-anchor="middle" x="308.9" y="-278.63" font-family="Times,serif" font-size="14.00">a</text>
</g>
<!-- http://w3id.org/oseg/ont/okhimg#slotLogoBw -->
<g id="node17" class="node">
<title>http://w3id.org/oseg/ont/okhimg#slotLogoBw</title>
<ellipse fill="none" stroke="#e377c2" cx="289.33" cy="-636.03" rx="111.03" ry="16.03"/>
<text text-anchor="middle" x="289.33" y="-632.33" font-family="Times,serif" font-size="14.00">okhimg:slotLogoBw</text>
</g>
<!-- http://w3id.org/oseg/ont/okhimg#slotLogoBw&#45;&gt;http://schema.org/DefinedTerm -->
<g id="edge13" class="edge">
<title>http://w3id.org/oseg/ont/okhimg#slotLogoBw&#45;&gt;http://schema.org/DefinedTerm</title>
<path fill="none" stroke="black" d="M302.38,-619.75C337.86,-575.46 436.24,-452.65 478.35,-400.09"/>
<polygon fill="black" stroke="black" points="481.31,-401.98 484.83,-391.99 475.85,-397.61 481.31,-401.98"/>
<text text-anchor="middle" x="385.86" y="-513.72" font-family="Times,serif" font-size="14.00">a</text>
</g>
<!-- http://w3id.org/oseg/ont/okhimg#slotLogo -->
<g id="node20" class="node">
<title>http://w3id.org/oseg/ont/okhimg#slotLogo</title>
<ellipse fill="none" stroke="#e377c2" cx="503.32" cy="-617.17" rx="94.51" ry="16.03"/>
<text text-anchor="middle" x="503.32" y="-613.47" font-family="Times,serif" font-size="14.00">okhimg:slotLogo</text>
</g>
<!-- http://w3id.org/oseg/ont/okhimg#slotLogoBw&#45;&gt;http://w3id.org/oseg/ont/okhimg#slotLogo -->
<g id="edge28" class="edge">
<title>http://w3id.org/oseg/ont/okhimg#slotLogoBw&#45;&gt;http://w3id.org/oseg/ont/okhimg#slotLogo</title>
<path fill="none" stroke="black" d="M398.8,-633.16C408.99,-632.25 419.15,-631.26 428.91,-630.23"/>
<polygon fill="black" stroke="black" points="429.36,-633.7 438.92,-629.13 428.6,-626.74 429.36,-633.7"/>
<text text-anchor="middle" x="441.35" y="-635.49" font-family="Times,serif" font-size="14.00">seeAlso</text>
</g>
<!-- http://w3id.org/oseg/ont/okhimg#tagLogo -->
<g id="node18" class="node">
<title>http://w3id.org/oseg/ont/okhimg#tagLogo</title>
<ellipse fill="none" stroke="#e377c2" cx="390.57" cy="-16.63" rx="92.76" ry="16.03"/>
<text text-anchor="middle" x="390.57" y="-12.93" font-family="Times,serif" font-size="14.00">okhimg:tagLogo</text>
</g>
<!-- http://w3id.org/oseg/ont/okhimg#tagLogo&#45;&gt;http://schema.org/DefinedTerm -->
<g id="edge15" class="edge">
<title>http://w3id.org/oseg/ont/okhimg#tagLogo&#45;&gt;http://schema.org/DefinedTerm</title>
<path fill="none" stroke="black" d="M395.46,-32.99C412.47,-89.89 469.11,-279.47 490.03,-349.46"/>
<polygon fill="black" stroke="black" points="486.74,-350.68 492.96,-359.25 493.45,-348.67 486.74,-350.68"/>
<text text-anchor="middle" x="438.25" y="-195.02" font-family="Times,serif" font-size="14.00">a</text>
</g>
<!-- http://w3id.org/oseg/ont/okhimg#slots -->
<g id="node19" class="node">
<title>http://w3id.org/oseg/ont/okhimg#slots</title>
<ellipse fill="none" stroke="#e377c2" cx="605.43" cy="-1196.59" rx="75.82" ry="16.03"/>
<text text-anchor="middle" x="605.43" y="-1192.89" font-family="Times,serif" font-size="14.00">okhimg:slots</text>
</g>
<!-- http://w3id.org/oseg/ont/okhimg#slots&#45;&gt;http://schema.org/DefinedTermSet -->
<g id="edge24" class="edge">
<title>http://w3id.org/oseg/ont/okhimg#slots&#45;&gt;http://schema.org/DefinedTermSet</title>
<path fill="none" stroke="black" d="M609.55,-1212.89C616.44,-1240.19 630.36,-1295.37 638.65,-1328.2"/>
<polygon fill="black" stroke="black" points="635.28,-1329.17 641.12,-1338.01 642.07,-1327.45 635.28,-1329.17"/>
<text text-anchor="middle" x="619.6" y="-1274.34" font-family="Times,serif" font-size="14.00">a</text>
</g>
<!-- http://w3id.org/oseg/ont/okhimg#slots&#45;&gt;http://w3id.org/oseg/ont/okhimg#slotIconMain -->
<g id="edge49" class="edge">
<title>http://w3id.org/oseg/ont/okhimg#slots&#45;&gt;http://w3id.org/oseg/ont/okhimg#slotIconMain</title>
<path fill="none" stroke="black" d="M606.2,-1180.2C608.99,-1120.64 618.59,-915.38 622.03,-841.68"/>
<polygon fill="black" stroke="black" points="625.54,-841.56 622.51,-831.41 618.55,-841.24 625.54,-841.56"/>
<text text-anchor="middle" x="526.62" y="-1014.74" font-family="Times,serif" font-size="14.00">schema:hasDefinedTerm</text>
</g>
<!-- http://w3id.org/oseg/ont/okhimg#slotLogo&#45;&gt;http://schema.org/DefinedTerm -->
<g id="edge17" class="edge">
<title>http://w3id.org/oseg/ont/okhimg#slotLogo&#45;&gt;http://schema.org/DefinedTerm</title>
<path fill="none" stroke="black" d="M502.94,-600.57C502.01,-559.38 499.6,-452.17 498.47,-402.15"/>
<polygon fill="black" stroke="black" points="501.97,-402.02 498.24,-392.11 494.97,-402.18 501.97,-402.02"/>
<text text-anchor="middle" x="496.21" y="-505.16" font-family="Times,serif" font-size="14.00">a</text>
</g>
<!-- http://w3id.org/oseg/ont/okhimg#slotLogo&#45;&gt;http://w3id.org/oseg/ont/okhimg#slotLogoBw -->
<g id="edge45" class="edge">
<title>http://w3id.org/oseg/ont/okhimg#slotLogo&#45;&gt;http://w3id.org/oseg/ont/okhimg#slotLogoBw</title>
<path fill="none" stroke="black" d="M408.87,-618.76C395.84,-619.82 382.55,-621.04 369.8,-622.34"/>
<polygon fill="black" stroke="black" points="369.29,-618.88 359.71,-623.41 370.02,-625.84 369.29,-618.88"/>
<text text-anchor="middle" x="375.59" y="-609.35" font-family="Times,serif" font-size="14.00">seeAlso</text>
</g>
<!-- http://w3id.org/oseg/ont/okhimg#slotPhotoThingMain -->
<g id="node21" class="node">
<title>http://w3id.org/oseg/ont/okhimg#slotPhotoThingMain</title>
<ellipse fill="none" stroke="#e377c2" cx="244.64" cy="-591.44" rx="114.6" ry="16.03"/>
<text text-anchor="middle" x="244.64" y="-587.74" font-family="Times,serif" font-size="14.00">okhimg:slotPhotoT...</text>
</g>
<!-- http://w3id.org/oseg/ont/okhimg#slotPhotoThingMain&#45;&gt;http://schema.org/DefinedTerm -->
<g id="edge18" class="edge">
<title>http://w3id.org/oseg/ont/okhimg#slotPhotoThingMain&#45;&gt;http://schema.org/DefinedTerm</title>
<path fill="none" stroke="black" d="M263.67,-575.22C308.33,-537.18 419.92,-442.12 471.26,-398.38"/>
<polygon fill="black" stroke="black" points="473.62,-400.97 478.96,-391.82 469.08,-395.64 473.62,-400.97"/>
<text text-anchor="middle" x="362.97" y="-490.6" font-family="Times,serif" font-size="14.00">a</text>
</g>
<!-- http://w3id.org/oseg/ont/okhimg#tagDrawing -->
<g id="node22" class="node">
<title>http://w3id.org/oseg/ont/okhimg#tagDrawing</title>
<ellipse fill="none" stroke="#e377c2" cx="224.33" cy="-450.3" rx="111.95" ry="16.03"/>
<text text-anchor="middle" x="224.33" y="-446.6" font-family="Times,serif" font-size="14.00">okhimg:tagDrawing</text>
</g>
<!-- http://w3id.org/oseg/ont/okhimg#tagDrawing&#45;&gt;http://schema.org/DefinedTerm -->
<g id="edge19" class="edge">
<title>http://w3id.org/oseg/ont/okhimg#tagDrawing&#45;&gt;http://schema.org/DefinedTerm</title>
<path fill="none" stroke="black" d="M277.07,-435.92C322,-423.67 386.69,-406.03 434.44,-393.01"/>
<polygon fill="black" stroke="black" points="435.63,-396.31 444.36,-390.3 433.79,-389.56 435.63,-396.31"/>
<text text-anchor="middle" x="351.25" y="-418.26" font-family="Times,serif" font-size="14.00">a</text>
</g>
<!-- http://w3id.org/oseg/ont/okhimg#tags -->
<g id="node23" class="node">
<title>http://w3id.org/oseg/ont/okhimg#tags</title>
<ellipse fill="none" stroke="#e377c2" cx="448.06" cy="-1175.83" rx="73.58" ry="16.03"/>
<text text-anchor="middle" x="448.06" y="-1172.13" font-family="Times,serif" font-size="14.00">okhimg:tags</text>
</g>
<!-- http://w3id.org/oseg/ont/okhimg#tags&#45;&gt;http://schema.org/DefinedTermSet -->
<g id="edge21" class="edge">
<title>http://w3id.org/oseg/ont/okhimg#tags&#45;&gt;http://schema.org/DefinedTermSet</title>
<path fill="none" stroke="black" d="M465.56,-1191.68C500.47,-1223.3 578.89,-1294.33 619.62,-1331.22"/>
<polygon fill="black" stroke="black" points="617.48,-1334 627.24,-1338.12 622.18,-1328.81 617.48,-1334"/>
<text text-anchor="middle" x="538.09" y="-1265.25" font-family="Times,serif" font-size="14.00">a</text>
</g>
<!-- http://w3id.org/oseg/ont/okhimg#tagArt -->
<g id="node28" class="node">
<title>http://w3id.org/oseg/ont/okhimg#tagArt</title>
<ellipse fill="none" stroke="#e377c2" cx="413.33" cy="-809.28" rx="84.29" ry="16.03"/>
<text text-anchor="middle" x="413.33" y="-805.58" font-family="Times,serif" font-size="14.00">okhimg:tagArt</text>
</g>
<!-- http://w3id.org/oseg/ont/okhimg#tags&#45;&gt;http://w3id.org/oseg/ont/okhimg#tagArt -->
<g id="edge29" class="edge">
<title>http://w3id.org/oseg/ont/okhimg#tags&#45;&gt;http://w3id.org/oseg/ont/okhimg#tagArt</title>
<path fill="none" stroke="black" d="M446.48,-1159.13C440.98,-1101.03 422.63,-907.44 415.87,-836.04"/>
<polygon fill="black" stroke="black" points="419.31,-835.29 414.88,-825.66 412.34,-835.95 419.31,-835.29"/>
<text text-anchor="middle" x="343.67" y="-1001.38" font-family="Times,serif" font-size="14.00">schema:hasDefinedTerm</text>
</g>
<!-- http://w3id.org/oseg/ont/okhimg#slotModel3D -->
<g id="node24" class="node">
<title>http://w3id.org/oseg/ont/okhimg#slotModel3D</title>
<ellipse fill="none" stroke="#e377c2" cx="722.96" cy="-218.32" rx="115.93" ry="16.03"/>
<text text-anchor="middle" x="722.96" y="-214.62" font-family="Times,serif" font-size="14.00">okhimg:slotModel3D</text>
</g>
<!-- http://w3id.org/oseg/ont/okhimg#slotModel3D&#45;&gt;http://schema.org/DefinedTerm -->
<g id="edge22" class="edge">
<title>http://w3id.org/oseg/ont/okhimg#slotModel3D&#45;&gt;http://schema.org/DefinedTerm</title>
<path fill="none" stroke="black" d="M700.14,-234.28C659.61,-262.62 575.03,-321.76 529.13,-353.86"/>
<polygon fill="black" stroke="black" points="526.94,-351.11 520.76,-359.71 530.96,-356.85 526.94,-351.11"/>
<text text-anchor="middle" x="610.13" y="-297.87" font-family="Times,serif" font-size="14.00">a</text>
</g>
<!-- http://w3id.org/oseg/ont/okhimg#slotPhotoPackaging -->
<g id="node25" class="node">
<title>http://w3id.org/oseg/ont/okhimg#slotPhotoPackaging</title>
<ellipse fill="none" stroke="#e377c2" cx="386.35" cy="-97.74" rx="113.69" ry="16.03"/>
<text text-anchor="middle" x="386.35" y="-94.04" font-family="Times,serif" font-size="14.00">okhimg:slotPhotoP...</text>
</g>
<!-- http://w3id.org/oseg/ont/okhimg#slotPhotoPackaging&#45;&gt;http://schema.org/DefinedTerm -->
<g id="edge23" class="edge">
<title>http://w3id.org/oseg/ont/okhimg#slotPhotoPackaging&#45;&gt;http://schema.org/DefinedTerm</title>
<path fill="none" stroke="black" d="M392.99,-114.29C411.66,-160.84 464.74,-293.12 487.4,-349.61"/>
<polygon fill="black" stroke="black" points="484.29,-351.27 491.27,-359.24 490.79,-348.66 484.29,-351.27"/>
<text text-anchor="middle" x="435.7" y="-235.75" font-family="Times,serif" font-size="14.00">a</text>
</g>
<!-- http://w3id.org/oseg/ont/okhimg#slotModelFromRight -->
<g id="node26" class="node">
<title>http://w3id.org/oseg/ont/okhimg#slotModelFromRight</title>
<ellipse fill="none" stroke="#e377c2" cx="867.58" cy="-258.96" rx="116.85" ry="16.03"/>
<text text-anchor="middle" x="867.58" y="-255.26" font-family="Times,serif" font-size="14.00">okhimg:slotModelF...</text>
</g>
<!-- http://w3id.org/oseg/ont/okhimg#slotModelFromRight&#45;&gt;http://schema.org/DefinedTerm -->
<g id="edge25" class="edge">
<title>http://w3id.org/oseg/ont/okhimg#slotModelFromRight&#45;&gt;http://schema.org/DefinedTerm</title>
<path fill="none" stroke="black" d="M820.38,-273.87C752.61,-295.27 627.9,-334.65 555.01,-357.67"/>
<polygon fill="black" stroke="black" points="553.57,-354.46 545.08,-360.8 555.67,-361.13 553.57,-354.46"/>
<text text-anchor="middle" x="683.2" y="-319.57" font-family="Times,serif" font-size="14.00">a</text>
</g>
<!-- http://w3id.org/oseg/ont/okhimg#tagDiagram -->
<g id="node27" class="node">
<title>http://w3id.org/oseg/ont/okhimg#tagDiagram</title>
<ellipse fill="none" stroke="#e377c2" cx="819.75" cy="-75.16" rx="111.95" ry="16.03"/>
<text text-anchor="middle" x="819.75" y="-71.46" font-family="Times,serif" font-size="14.00">okhimg:tagDiagram</text>
</g>
<!-- http://w3id.org/oseg/ont/okhimg#tagDiagram&#45;&gt;http://schema.org/DefinedTerm -->
<g id="edge26" class="edge">
<title>http://w3id.org/oseg/ont/okhimg#tagDiagram&#45;&gt;http://schema.org/DefinedTerm</title>
<path fill="none" stroke="black" d="M802.45,-91.32C748.85,-141.37 585.45,-293.94 522.74,-352.49"/>
<polygon fill="black" stroke="black" points="520.19,-350.09 515.27,-359.47 524.96,-355.21 520.19,-350.09"/>
<text text-anchor="middle" x="658.09" y="-225.71" font-family="Times,serif" font-size="14.00">a</text>
</g>
<!-- http://w3id.org/oseg/ont/okhimg#tagArt&#45;&gt;http://schema.org/DefinedTerm -->
<g id="edge43" class="edge">
<title>http://w3id.org/oseg/ont/okhimg#tagArt&#45;&gt;http://schema.org/DefinedTerm</title>
<path fill="none" stroke="black" d="M416.54,-792.82C429.36,-727.09 476.92,-483.17 492.73,-402.1"/>
<polygon fill="black" stroke="black" points="496.18,-402.68 494.66,-392.2 489.31,-401.34 496.18,-402.68"/>
<text text-anchor="middle" x="450.14" y="-586.26" font-family="Times,serif" font-size="14.00">a</text>
</g>
<!-- http://w3id.org/oseg/ont/okhimg#tagBw -->
<g id="node29" class="node">
<title>http://w3id.org/oseg/ont/okhimg#tagBw</title>
<ellipse fill="none" stroke="#e377c2" cx="575.41" cy="-31.51" rx="84.29" ry="16.03"/>
<text text-anchor="middle" x="575.41" y="-27.81" font-family="Times,serif" font-size="14.00">okhimg:tagBw</text>
</g>
<!-- http://w3id.org/oseg/ont/okhimg#tagBw&#45;&gt;http://schema.org/DefinedTerm -->
<g id="edge30" class="edge">
<title>http://w3id.org/oseg/ont/okhimg#tagBw&#45;&gt;http://schema.org/DefinedTerm</title>
<path fill="none" stroke="black" d="M571.67,-48.11C559.21,-103.43 519.03,-281.82 503.8,-349.42"/>
<polygon fill="black" stroke="black" points="500.36,-348.75 501.58,-359.28 507.19,-350.29 500.36,-348.75"/>
<text text-anchor="middle" x="533.24" y="-202.56" font-family="Times,serif" font-size="14.00">a</text>
</g>
<!-- http://w3id.org/oseg/ont/okhimg#slotModelMain -->
<g id="node30" class="node">
<title>http://w3id.org/oseg/ont/okhimg#slotModelMain</title>
<ellipse fill="none" stroke="#e377c2" cx="853.54" cy="-338.41" rx="127.06" ry="16.03"/>
<text text-anchor="middle" x="853.54" y="-334.71" font-family="Times,serif" font-size="14.00">okhimg:slotModelMain</text>
</g>
<!-- http://w3id.org/oseg/ont/okhimg#slotModelMain&#45;&gt;http://schema.org/DefinedTerm -->
<g id="edge32" class="edge">
<title>http://w3id.org/oseg/ont/okhimg#slotModelMain&#45;&gt;http://schema.org/DefinedTerm</title>
<path fill="none" stroke="black" d="M754.94,-348.75C707.43,-353.73 650.45,-359.71 602.22,-364.77"/>
<polygon fill="black" stroke="black" points="601.65,-361.31 592.07,-365.83 602.38,-368.27 601.65,-361.31"/>
<text text-anchor="middle" x="674.08" y="-360.56" font-family="Times,serif" font-size="14.00">a</text>
</g>
<!-- http://w3id.org/oseg/ont/okhimg#slotModelFromBack -->
<g id="node31" class="node">
<title>http://w3id.org/oseg/ont/okhimg#slotModelFromBack</title>
<ellipse fill="none" stroke="#e377c2" cx="192.84" cy="-532.75" rx="116.85" ry="16.03"/>
<text text-anchor="middle" x="192.84" y="-529.05" font-family="Times,serif" font-size="14.00">okhimg:slotModelF...</text>
</g>
<!-- http://w3id.org/oseg/ont/okhimg#slotModelFromBack&#45;&gt;http://schema.org/DefinedTerm -->
<g id="edge33" class="edge">
<title>http://w3id.org/oseg/ont/okhimg#slotModelFromBack&#45;&gt;http://schema.org/DefinedTerm</title>
<path fill="none" stroke="black" d="M223.49,-516.98C279.1,-488.35 396.58,-427.86 458.22,-396.13"/>
<polygon fill="black" stroke="black" points="459.96,-399.17 467.25,-391.48 456.76,-392.94 459.96,-399.17"/>
<text text-anchor="middle" x="345.35" y="-460.35" font-family="Times,serif" font-size="14.00">a</text>
</g>
<!-- http://w3id.org/oseg/ont/okhimg -->
<g id="node32" class="node">
<title>http://w3id.org/oseg/ont/okhimg</title>
<ellipse fill="none" stroke="#e377c2" cx="511.59" cy="-1505.25" rx="70.01" ry="16.03"/>
<text text-anchor="middle" x="511.59" y="-1501.55" font-family="Times,serif" font-size="14.00">ns1:okhimg</text>
</g>
<!-- http://w3id.org/oseg/ont/okhimg&#45;&gt;http://spdx.org/rdf/terms#SpdxItem -->
<g id="edge42" class="edge">
<title>http://w3id.org/oseg/ont/okhimg&#45;&gt;http://spdx.org/rdf/terms#SpdxItem</title>
<path fill="none" stroke="black" d="M480.83,-1519.92C442.65,-1538.12 377.4,-1569.23 334.9,-1589.49"/>
<polygon fill="black" stroke="black" points="333.19,-1586.43 325.67,-1593.89 336.2,-1592.75 333.19,-1586.43"/>
<text text-anchor="middle" x="403.37" y="-1558.5" font-family="Times,serif" font-size="14.00">a</text>
</g>
<!-- http://w3id.org/oseg/ont/okhimg&#45;&gt;http://w3id.org/oseg/ont/ods#Dataset -->
<g id="edge34" class="edge">
<title>http://w3id.org/oseg/ont/okhimg&#45;&gt;http://w3id.org/oseg/ont/ods#Dataset</title>
<path fill="none" stroke="black" d="M506.34,-1521.77C494.29,-1559.66 464.58,-1653.05 450,-1698.87"/>
<polygon fill="black" stroke="black" points="446.59,-1698.07 446.89,-1708.66 453.26,-1700.19 446.59,-1698.07"/>
<text text-anchor="middle" x="473.67" y="-1614.12" font-family="Times,serif" font-size="14.00">a</text>
</g>
<!-- http://w3id.org/oseg/ont/okhimg&#45;&gt;http://spdx.org/licenses/AGPL&#45;3.0&#45;or&#45;later -->
<g id="edge7" class="edge">
<title>http://w3id.org/oseg/ont/okhimg&#45;&gt;http://spdx.org/licenses/AGPL&#45;3.0&#45;or&#45;later</title>
<path fill="none" stroke="black" d="M521.35,-1521.55C546.22,-1563.06 612.09,-1673.05 641.87,-1722.8"/>
<polygon fill="black" stroke="black" points="639.02,-1724.85 647.16,-1731.63 645.03,-1721.25 639.02,-1724.85"/>
<text text-anchor="middle" x="505.61" y="-1625.97" font-family="Times,serif" font-size="14.00">spdx:licenseDeclared</text>
</g>
<!-- http://w3id.org/oseg/ont/okhimg&#45;&gt;http://w3id.org/oseg/ont/oseg&#45;profiles#Iopa -->
<g id="edge11" class="edge">
<title>http://w3id.org/oseg/ont/okhimg&#45;&gt;http://w3id.org/oseg/ont/oseg&#45;profiles#Iopa</title>
<path fill="none" stroke="black" d="M536.07,-1520.67C571.69,-1543.1 637.91,-1584.81 677.93,-1610.02"/>
<polygon fill="black" stroke="black" points="676.21,-1613.07 686.53,-1615.44 679.94,-1607.15 676.21,-1613.07"/>
<text text-anchor="middle" x="541.5" y="-1569.14" font-family="Times,serif" font-size="14.00">dcterms:publisher</text>
</g>
<!-- http://w3id.org/oseg/ont/okhimg&#45;&gt;http://w3id.org/oseg/ont/okhimg#slots -->
<g id="edge16" class="edge">
<title>http://w3id.org/oseg/ont/okhimg&#45;&gt;http://w3id.org/oseg/ont/okhimg#slots</title>
<path fill="none" stroke="black" d="M516.64,-1488.66C532.08,-1437.88 578.77,-1284.3 597.52,-1222.64"/>
<polygon fill="black" stroke="black" points="600.92,-1223.48 600.48,-1212.89 594.22,-1221.44 600.92,-1223.48"/>
<text text-anchor="middle" x="492.08" y="-1359.45" font-family="Times,serif" font-size="14.00">void:rootResource</text>
</g>
<!-- http://w3id.org/oseg/ont/okhimg&#45;&gt;http://w3id.org/oseg/ont/okhimg#tags -->
<g id="edge31" class="edge">
<title>http://w3id.org/oseg/ont/okhimg&#45;&gt;http://w3id.org/oseg/ont/okhimg#tags</title>
<path fill="none" stroke="black" d="M508.44,-1488.91C498.2,-1435.79 465.76,-1267.58 453.15,-1202.19"/>
<polygon fill="black" stroke="black" points="456.56,-1201.42 451.23,-1192.26 449.69,-1202.75 456.56,-1201.42"/>
<text text-anchor="middle" x="415.8" y="-1334.35" font-family="Times,serif" font-size="14.00">void:rootResource</text>
</g>
<!-- http://id.loc.gov/vocabulary/iso639&#45;1/en -->
<g id="node34" class="node">
<title>http://id.loc.gov/vocabulary/iso639&#45;1/en</title>
<ellipse fill="none" stroke="#e377c2" cx="570.77" cy="-1679.37" rx="45.01" ry="16.03"/>
<text text-anchor="middle" x="570.77" y="-1675.67" font-family="Times,serif" font-size="14.00">ns2:en</text>
</g>
<!-- http://w3id.org/oseg/ont/okhimg&#45;&gt;http://id.loc.gov/vocabulary/iso639&#45;1/en -->
<g id="edge36" class="edge">
<title>http://w3id.org/oseg/ont/okhimg&#45;&gt;http://id.loc.gov/vocabulary/iso639&#45;1/en</title>
<path fill="none" stroke="black" d="M517.16,-1521.63C527.43,-1551.84 549.41,-1616.54 561.8,-1653"/>
<polygon fill="black" stroke="black" points="558.64,-1654.56 565.17,-1662.91 565.27,-1652.31 558.64,-1654.56"/>
<text text-anchor="middle" x="603.98" y="-1591.11" font-family="Times,serif" font-size="14.00">dcterms:language</text>
</g>
<!-- http://w3id.org/oseg/ont/0.1.0/okhimg -->
<g id="node35" class="node">
<title>http://w3id.org/oseg/ont/0.1.0/okhimg</title>
<ellipse fill="none" stroke="#e377c2" cx="363.38" cy="-1679.98" rx="70.01" ry="16.03"/>
<text text-anchor="middle" x="363.38" y="-1676.28" font-family="Times,serif" font-size="14.00">ns3:okhimg</text>
</g>
<!-- http://w3id.org/oseg/ont/okhimg&#45;&gt;http://w3id.org/oseg/ont/0.1.0/okhimg -->
<g id="edge37" class="edge">
<title>http://w3id.org/oseg/ont/okhimg&#45;&gt;http://w3id.org/oseg/ont/0.1.0/okhimg</title>
<path fill="none" stroke="black" d="M497.92,-1521.38C471.78,-1552.19 414.6,-1619.6 383.87,-1655.82"/>
<polygon fill="black" stroke="black" points="380.82,-1654.01 377.02,-1663.9 386.16,-1658.54 380.82,-1654.01"/>
<text text-anchor="middle" x="389.4" y="-1577.4" font-family="Times,serif" font-size="14.00">owl:versionIRI</text>
</g>
<!-- http://w3id.org/oseg/ont/oseg&#45;profiles#robinVobruba -->
<g id="node40" class="node">
<title>http://w3id.org/oseg/ont/oseg&#45;profiles#robinVobruba</title>
<ellipse fill="none" stroke="#e377c2" cx="517.96" cy="-1793.96" rx="113.69" ry="16.03"/>
<text text-anchor="middle" x="517.96" y="-1790.26" font-family="Times,serif" font-size="14.00">osegprof:robinVob...</text>
</g>
<!-- http://w3id.org/oseg/ont/okhimg&#45;&gt;http://w3id.org/oseg/ont/oseg&#45;profiles#robinVobruba -->
<g id="edge46" class="edge">
<title>http://w3id.org/oseg/ont/okhimg&#45;&gt;http://w3id.org/oseg/ont/oseg&#45;profiles#robinVobruba</title>
<path fill="none" stroke="black" d="M508.62,-1521.67C505.39,-1569.49 508.22,-1708.95 513.28,-1767.55"/>
<polygon fill="black" stroke="black" points="509.79,-1767.89 514.25,-1777.5 516.76,-1767.21 509.79,-1767.89"/>
<text text-anchor="middle" x="455.45" y="-1648.41" font-family="Times,serif" font-size="14.00">schema:creator</text>
</g>
<!-- http://w3id.org/oseg/ont/okhimg&#45;&gt;http://w3id.org/oseg/ont/oseg&#45;profiles#robinVobruba -->
<g id="edge50" class="edge">
<title>http://w3id.org/oseg/ont/okhimg&#45;&gt;http://w3id.org/oseg/ont/oseg&#45;profiles#robinVobruba</title>
<path fill="none" stroke="black" d="M515.29,-1521.53C520.62,-1569.16 523.95,-1708.6 521.48,-1767.36"/>
<polygon fill="black" stroke="black" points="517.99,-1767.19 520.95,-1777.36 524.98,-1767.56 517.99,-1767.19"/>
<text text-anchor="middle" x="575.89" y="-1648.25" font-family="Times,serif" font-size="14.00">dcterms:creator</text>
</g>
<!-- http://w3id.org/oseg/ont/okhimg#tagColor -->
<g id="node33" class="node">
<title>http://w3id.org/oseg/ont/okhimg#tagColor</title>
<ellipse fill="none" stroke="#e377c2" cx="604.45" cy="-73" rx="95.42" ry="16.03"/>
<text text-anchor="middle" x="604.45" y="-69.3" font-family="Times,serif" font-size="14.00">okhimg:tagColor</text>
</g>
<!-- http://w3id.org/oseg/ont/okhimg#tagColor&#45;&gt;http://schema.org/DefinedTerm -->
<g id="edge35" class="edge">
<title>http://w3id.org/oseg/ont/okhimg#tagColor&#45;&gt;http://schema.org/DefinedTerm</title>
<path fill="none" stroke="black" d="M598.72,-89.28C581.23,-138.96 528.41,-288.99 507.02,-349.75"/>
<polygon fill="black" stroke="black" points="503.65,-348.76 503.63,-359.36 510.26,-351.09 503.65,-348.76"/>
<text text-anchor="middle" x="548.37" y="-223.31" font-family="Times,serif" font-size="14.00">a</text>
</g>
<!-- http://w3id.org/oseg/ont/okhimg#slotSocial -->
<g id="node36" class="node">
<title>http://w3id.org/oseg/ont/okhimg#slotSocial</title>
<ellipse fill="none" stroke="#e377c2" cx="681.5" cy="-116.63" rx="101.23" ry="16.03"/>
<text text-anchor="middle" x="681.5" y="-112.93" font-family="Times,serif" font-size="14.00">okhimg:slotSocial</text>
</g>
<!-- http://w3id.org/oseg/ont/okhimg#slotSocial&#45;&gt;http://schema.org/DefinedTerm -->
<g id="edge38" class="edge">
<title>http://w3id.org/oseg/ont/okhimg#slotSocial&#45;&gt;http://schema.org/DefinedTerm</title>
<path fill="none" stroke="black" d="M670.01,-132.84C638.84,-176.82 552.5,-298.64 515.3,-351.13"/>
<polygon fill="black" stroke="black" points="512.28,-349.33 509.36,-359.51 517.99,-353.38 512.28,-349.33"/>
<text text-anchor="middle" x="588.15" y="-245.78" font-family="Times,serif" font-size="14.00">a</text>
</g>
<!-- http://w3id.org/oseg/ont/okhimg#slotModelFromBelow -->
<g id="node37" class="node">
<title>http://w3id.org/oseg/ont/okhimg#slotModelFromBelow</title>
<ellipse fill="none" stroke="#e377c2" cx="253.64" cy="-219.38" rx="116.85" ry="16.03"/>
<text text-anchor="middle" x="253.64" y="-215.68" font-family="Times,serif" font-size="14.00">okhimg:slotModelF...</text>
</g>
<!-- http://w3id.org/oseg/ont/okhimg#slotModelFromBelow&#45;&gt;http://schema.org/DefinedTerm -->
<g id="edge39" class="edge">
<title>http://w3id.org/oseg/ont/okhimg#slotModelFromBelow&#45;&gt;http://schema.org/DefinedTerm</title>
<path fill="none" stroke="black" d="M278.86,-235.52C323.13,-263.85 414.8,-322.53 464.34,-354.25"/>
<polygon fill="black" stroke="black" points="462.49,-357.21 472.79,-359.66 466.26,-351.32 462.49,-357.21"/>
<text text-anchor="middle" x="367.1" y="-298.68" font-family="Times,serif" font-size="14.00">a</text>
</g>
<!-- http://w3id.org/oseg/ont/okhimg#slotModelFromAbove -->
<g id="node38" class="node">
<title>http://w3id.org/oseg/ont/okhimg#slotModelFromAbove</title>
<ellipse fill="none" stroke="#e377c2" cx="144.99" cy="-409.74" rx="116.85" ry="16.03"/>
<text text-anchor="middle" x="144.99" y="-406.04" font-family="Times,serif" font-size="14.00">okhimg:slotModelF...</text>
</g>
<!-- http://w3id.org/oseg/ont/okhimg#slotModelFromAbove&#45;&gt;http://schema.org/DefinedTerm -->
<g id="edge41" class="edge">
<title>http://w3id.org/oseg/ont/okhimg#slotModelFromAbove&#45;&gt;http://schema.org/DefinedTerm</title>
<path fill="none" stroke="black" d="M240.95,-400.49C287.35,-396.01 343.2,-390.63 390.95,-386.02"/>
<polygon fill="black" stroke="black" points="391.4,-389.5 401.01,-385.05 390.72,-382.53 391.4,-389.5"/>
<text text-anchor="middle" x="311.45" y="-397.05" font-family="Times,serif" font-size="14.00">a</text>
</g>
<!-- http://w3id.org/oseg/ont/okhimg#slotModelFromFront -->
<g id="node39" class="node">
<title>http://w3id.org/oseg/ont/okhimg#slotModelFromFront</title>
<ellipse fill="none" stroke="#e377c2" cx="166.9" cy="-333.1" rx="116.85" ry="16.03"/>
<text text-anchor="middle" x="166.9" y="-329.4" font-family="Times,serif" font-size="14.00">okhimg:slotModelF...</text>
</g>
<!-- http://w3id.org/oseg/ont/okhimg#slotModelFromFront&#45;&gt;http://schema.org/DefinedTerm -->
<g id="edge44" class="edge">
<title>http://w3id.org/oseg/ont/okhimg#slotModelFromFront&#45;&gt;http://schema.org/DefinedTerm</title>
<path fill="none" stroke="black" d="M252.99,-344.19C298.41,-350.03 354.28,-357.23 401.18,-363.26"/>
<polygon fill="black" stroke="black" points="400.98,-366.77 411.35,-364.57 401.88,-359.82 400.98,-366.77"/>
<text text-anchor="middle" x="322.59" y="-357.52" font-family="Times,serif" font-size="14.00">a</text>
</g>
<!-- http://w3id.org/oseg/ont/okhimg#tagAssembly -->
<g id="node41" class="node">
<title>http://w3id.org/oseg/ont/okhimg#tagAssembly</title>
<ellipse fill="none" stroke="#e377c2" cx="498.78" cy="-335.05" rx="116.85" ry="16.03"/>
<text text-anchor="middle" x="498.78" y="-331.35" font-family="Times,serif" font-size="14.00">okhimg:tagAssembly</text>
</g>
<!-- http://w3id.org/oseg/ont/okhimg#tagAssembly&#45;&gt;http://schema.org/DefinedTerm -->
<g id="edge47" class="edge">
<title>http://w3id.org/oseg/ont/okhimg#tagAssembly&#45;&gt;http://schema.org/DefinedTerm</title>
<path fill="none" stroke="black" d="M498.41,-351.59C498.41,-351.75 498.4,-351.91 498.4,-352.07"/>
<polygon fill="black" stroke="black" points="494.96,-349.24 498.24,-359.32 501.96,-349.4 494.96,-349.24"/>
<text text-anchor="middle" x="493.9" y="-355.63" font-family="Times,serif" font-size="14.00">a</text>
</g>
<!-- http://w3id.org/oseg/ont/okhimg#tagIcon -->
<g id="node42" class="node">
<title>http://w3id.org/oseg/ont/okhimg#tagIcon</title>
<ellipse fill="none" stroke="#e377c2" cx="616.83" cy="-486.65" rx="89.61" ry="16.03"/>
<text text-anchor="middle" x="616.83" y="-482.95" font-family="Times,serif" font-size="14.00">okhimg:tagIcon</text>
</g>
<!-- http://w3id.org/oseg/ont/okhimg#tagIcon&#45;&gt;http://schema.org/DefinedTerm -->
<g id="edge48" class="edge">
<title>http://w3id.org/oseg/ont/okhimg#tagIcon&#45;&gt;http://schema.org/DefinedTerm</title>
<path fill="none" stroke="black" d="M599.53,-470.52C579.27,-451.62 545.55,-420.18 522.55,-398.72"/>
<polygon fill="black" stroke="black" points="524.89,-396.12 515.19,-391.86 520.12,-401.24 524.89,-396.12"/>
<text text-anchor="middle" x="556.54" y="-438.42" font-family="Times,serif" font-size="14.00">a</text>
</g>
</g>
</svg>
