<?xml version="1.0" encoding="UTF-8" standalone="no"?>
<!DOCTYPE svg PUBLIC "-//W3C//DTD SVG 1.1//EN"
 "http://www.w3.org/Graphics/SVG/1.1/DTD/svg11.dtd">
<!-- Generated by graphviz version 2.43.0 (0)
 -->
<!-- Title: G Pages: 1 -->
<svg width="1333pt" height="2195pt"
 viewBox="0.00 0.00 1333.00 2195.00" xmlns="http://www.w3.org/2000/svg" xmlns:xlink="http://www.w3.org/1999/xlink">
<g id="graph0" class="graph" transform="scale(1 1) rotate(0) translate(4 2191)">
<title>G</title>
<polygon fill="white" stroke="transparent" points="-4,4 -4,-2191 1329,-2191 1329,4 -4,4"/>
<!-- http://spdx.org/rdf/terms#SpdxItem -->
<g id="node1" class="node">
<title>http://spdx.org/rdf/terms#SpdxItem</title>
<ellipse fill="none" stroke="#1f77b4" cx="1009.53" cy="-2171.23" rx="87.86" ry="16.03"/>
<text text-anchor="middle" x="1009.53" y="-2167.53" font-family="Times,serif" font-size="14.00">spdx:SpdxItem</text>
</g>
<!-- http://schema.org/DefinedTermSet -->
<g id="node2" class="node">
<title>http://schema.org/DefinedTermSet</title>
<ellipse fill="none" stroke="#1f77b4" cx="626.25" cy="-1711.16" rx="116.85" ry="16.03"/>
<text text-anchor="middle" x="626.25" y="-1707.46" font-family="Times,serif" font-size="14.00">schema:DefinedTer...</text>
</g>
<!-- http://schema.org/DefinedTerm -->
<g id="node3" class="node">
<title>http://schema.org/DefinedTerm</title>
<ellipse fill="none" stroke="#1f77b4" cx="566.49" cy="-476.37" rx="118.17" ry="16.03"/>
<text text-anchor="middle" x="566.49" y="-472.67" font-family="Times,serif" font-size="14.00">schema:DefinedTerm</text>
</g>
<!-- http://w3id.org/oseg/ont/ods#Dataset -->
<g id="node4" class="node">
<title>http://w3id.org/oseg/ont/ods#Dataset</title>
<ellipse fill="none" stroke="#1f77b4" cx="740.63" cy="-2113.1" rx="71.34" ry="16.03"/>
<text text-anchor="middle" x="740.63" y="-2109.4" font-family="Times,serif" font-size="14.00">ods:Dataset</text>
</g>
<!-- http://w3id.org/oseg/ont/okhimg#slotIconMain -->
<g id="node5" class="node">
<title>http://w3id.org/oseg/ont/okhimg#slotIconMain</title>
<ellipse fill="none" stroke="#e377c2" cx="614.75" cy="-1031.67" rx="117.26" ry="16.03"/>
<text text-anchor="middle" x="614.75" y="-1027.97" font-family="Times,serif" font-size="14.00">okhimg:slotIconMain</text>
</g>
<!-- http://w3id.org/oseg/ont/okhimg#slotIconMain&#45;&gt;http://schema.org/DefinedTerm -->
<g id="edge46" class="edge">
<title>http://w3id.org/oseg/ont/okhimg#slotIconMain&#45;&gt;http://schema.org/DefinedTerm</title>
<path fill="none" stroke="black" d="M613.33,-1015.35C606.54,-937.12 577.26,-600.28 568.79,-502.86"/>
<polygon fill="black" stroke="black" points="572.26,-502.35 567.91,-492.69 565.29,-502.96 572.26,-502.35"/>
<text text-anchor="middle" x="586.56" y="-762.91" font-family="Times,serif" font-size="14.00">a</text>
</g>
<!-- http://w3id.org/oseg/ont/okhimg#slotIconMainBw -->
<g id="node13" class="node">
<title>http://w3id.org/oseg/ont/okhimg#slotIconMainBw</title>
<ellipse fill="none" stroke="#e377c2" cx="533.46" cy="-880.32" rx="117.26" ry="16.03"/>
<text text-anchor="middle" x="533.46" y="-876.62" font-family="Times,serif" font-size="14.00">okhimg:slotIconMa...</text>
</g>
<!-- http://w3id.org/oseg/ont/okhimg#slotIconMain&#45;&gt;http://w3id.org/oseg/ont/okhimg#slotIconMainBw -->
<g id="edge45" class="edge">
<title>http://w3id.org/oseg/ont/okhimg#slotIconMain&#45;&gt;http://w3id.org/oseg/ont/okhimg#slotIconMainBw</title>
<path fill="none" stroke="black" d="M610.64,-1015.18C599.74,-988.58 572.05,-936.22 552.83,-905.12"/>
<polygon fill="black" stroke="black" points="555.73,-903.14 547.41,-896.57 549.81,-906.89 555.73,-903.14"/>
<text text-anchor="middle" x="554.24" y="-963.95" font-family="Times,serif" font-size="14.00">seeAlso</text>
</g>
<!-- http://w3id.org/oseg/ont/okhimg#slotOrganizationLogoBw -->
<g id="node6" class="node">
<title>http://w3id.org/oseg/ont/okhimg#slotOrganizationLogoBw</title>
<ellipse fill="none" stroke="#e377c2" cx="399.94" cy="-808" rx="114.6" ry="16.03"/>
<text text-anchor="middle" x="399.94" y="-804.3" font-family="Times,serif" font-size="14.00">okhimg:slotOrgani...</text>
</g>
<!-- http://w3id.org/oseg/ont/okhimg#slotOrganizationLogoBw&#45;&gt;http://schema.org/DefinedTerm -->
<g id="edge44" class="edge">
<title>http://w3id.org/oseg/ont/okhimg#slotOrganizationLogoBw&#45;&gt;http://schema.org/DefinedTerm</title>
<path fill="none" stroke="black" d="M408.2,-791.56C435.17,-737.85 520.8,-567.34 553.57,-502.1"/>
<polygon fill="black" stroke="black" points="556.82,-503.43 558.18,-492.92 550.57,-500.29 556.82,-503.43"/>
<text text-anchor="middle" x="476.39" y="-650.63" font-family="Times,serif" font-size="14.00">a</text>
</g>
<!-- http://w3id.org/oseg/ont/okhimg#slotOrganizationLogo -->
<g id="node28" class="node">
<title>http://w3id.org/oseg/ont/okhimg#slotOrganizationLogo</title>
<ellipse fill="none" stroke="#e377c2" cx="535.56" cy="-525.71" rx="114.6" ry="16.03"/>
<text text-anchor="middle" x="535.56" y="-522.01" font-family="Times,serif" font-size="14.00">okhimg:slotOrgani...</text>
</g>
<!-- http://w3id.org/oseg/ont/okhimg#slotOrganizationLogoBw&#45;&gt;http://w3id.org/oseg/ont/okhimg#slotOrganizationLogo -->
<g id="edge47" class="edge">
<title>http://w3id.org/oseg/ont/okhimg#slotOrganizationLogoBw&#45;&gt;http://w3id.org/oseg/ont/okhimg#slotOrganizationLogo</title>
<path fill="none" stroke="black" d="M411.81,-791.44C439.09,-744.22 504.29,-608.86 527.52,-551.67"/>
<polygon fill="black" stroke="black" points="530.82,-552.84 531.23,-542.25 524.31,-550.27 530.82,-552.84"/>
<text text-anchor="middle" x="442.17" y="-675.36" font-family="Times,serif" font-size="14.00">seeAlso</text>
</g>
<!-- http://w3id.org/oseg/ont/0.1.0/okhimg -->
<g id="node7" class="node">
<title>http://w3id.org/oseg/ont/0.1.0/okhimg</title>
<ellipse fill="none" stroke="#e377c2" cx="840.1" cy="-2167.45" rx="70.01" ry="16.03"/>
<text text-anchor="middle" x="840.1" y="-2163.75" font-family="Times,serif" font-size="14.00">ns1:okhimg</text>
</g>
<!-- http://w3id.org/oseg/ont/okhimg -->
<g id="node8" class="node">
<title>http://w3id.org/oseg/ont/okhimg</title>
<ellipse fill="none" stroke="#e377c2" cx="870.22" cy="-1858.23" rx="70.01" ry="16.03"/>
<text text-anchor="middle" x="870.22" y="-1854.53" font-family="Times,serif" font-size="14.00">ns2:okhimg</text>
</g>
<!-- http://w3id.org/oseg/ont/okhimg&#45;&gt;http://spdx.org/rdf/terms#SpdxItem -->
<g id="edge36" class="edge">
<title>http://w3id.org/oseg/ont/okhimg&#45;&gt;http://spdx.org/rdf/terms#SpdxItem</title>
<path fill="none" stroke="black" d="M877.52,-1874.62C900.32,-1925.85 970.39,-2083.3 998.09,-2145.54"/>
<polygon fill="black" stroke="black" points="995.05,-2147.3 1002.31,-2155.01 1001.44,-2144.45 995.05,-2147.3"/>
<text text-anchor="middle" x="933.31" y="-2013.88" font-family="Times,serif" font-size="14.00">a</text>
</g>
<!-- http://w3id.org/oseg/ont/okhimg&#45;&gt;http://w3id.org/oseg/ont/ods#Dataset -->
<g id="edge4" class="edge">
<title>http://w3id.org/oseg/ont/okhimg&#45;&gt;http://w3id.org/oseg/ont/ods#Dataset</title>
<path fill="none" stroke="black" d="M861.92,-1874.56C839.93,-1917.81 780.06,-2035.55 753.56,-2087.68"/>
<polygon fill="black" stroke="black" points="750.28,-2086.4 748.87,-2096.9 756.52,-2089.58 750.28,-2086.4"/>
<text text-anchor="middle" x="803.24" y="-1984.92" font-family="Times,serif" font-size="14.00">a</text>
</g>
<!-- http://w3id.org/oseg/ont/okhimg&#45;&gt;http://w3id.org/oseg/ont/0.1.0/okhimg -->
<g id="edge3" class="edge">
<title>http://w3id.org/oseg/ont/okhimg&#45;&gt;http://w3id.org/oseg/ont/0.1.0/okhimg</title>
<path fill="none" stroke="black" d="M868.6,-1874.85C863.66,-1925.62 848.72,-2078.94 842.67,-2140.97"/>
<polygon fill="black" stroke="black" points="839.17,-2140.82 841.69,-2151.12 846.14,-2141.5 839.17,-2140.82"/>
<text text-anchor="middle" x="804.14" y="-2011.71" font-family="Times,serif" font-size="14.00">owl:versionIRI</text>
</g>
<!-- http://w3id.org/oseg/ont/oseg&#45;profiles#robinVobruba -->
<g id="node14" class="node">
<title>http://w3id.org/oseg/ont/oseg&#45;profiles#robinVobruba</title>
<ellipse fill="none" stroke="#e377c2" cx="1211.38" cy="-1948.01" rx="113.69" ry="16.03"/>
<text text-anchor="middle" x="1211.38" y="-1944.31" font-family="Times,serif" font-size="14.00">osegprof:robinVob...</text>
</g>
<!-- http://w3id.org/oseg/ont/okhimg&#45;&gt;http://w3id.org/oseg/ont/oseg&#45;profiles#robinVobruba -->
<g id="edge11" class="edge">
<title>http://w3id.org/oseg/ont/okhimg&#45;&gt;http://w3id.org/oseg/ont/oseg&#45;profiles#robinVobruba</title>
<path fill="none" stroke="black" d="M906.26,-1872.26C959.3,-1888.87 1059.75,-1915.79 1130.89,-1932.82"/>
<polygon fill="black" stroke="black" points="1130.18,-1936.25 1140.72,-1935.16 1131.8,-1929.44 1130.18,-1936.25"/>
<text text-anchor="middle" x="961.07" y="-1906.34" font-family="Times,serif" font-size="14.00">dcterms:creator</text>
</g>
<!-- http://w3id.org/oseg/ont/okhimg&#45;&gt;http://w3id.org/oseg/ont/oseg&#45;profiles#robinVobruba -->
<g id="edge19" class="edge">
<title>http://w3id.org/oseg/ont/okhimg&#45;&gt;http://w3id.org/oseg/ont/oseg&#45;profiles#robinVobruba</title>
<path fill="none" stroke="black" d="M927.1,-1867.88C992.72,-1882.88 1099.54,-1911.05 1161.87,-1929.84"/>
<polygon fill="black" stroke="black" points="1160.89,-1933.2 1171.48,-1932.77 1162.94,-1926.51 1160.89,-1933.2"/>
<text text-anchor="middle" x="988.99" y="-1887.66" font-family="Times,serif" font-size="14.00">schema:creator</text>
</g>
<!-- http://w3id.org/oseg/ont/okhimg#tags -->
<g id="node16" class="node">
<title>http://w3id.org/oseg/ont/okhimg#tags</title>
<ellipse fill="none" stroke="#e377c2" cx="830.93" cy="-1444.14" rx="73.58" ry="16.03"/>
<text text-anchor="middle" x="830.93" y="-1440.44" font-family="Times,serif" font-size="14.00">okhimg:tags</text>
</g>
<!-- http://w3id.org/oseg/ont/okhimg&#45;&gt;http://w3id.org/oseg/ont/okhimg#tags -->
<g id="edge15" class="edge">
<title>http://w3id.org/oseg/ont/okhimg&#45;&gt;http://w3id.org/oseg/ont/okhimg#tags</title>
<path fill="none" stroke="black" d="M868.66,-1841.74C862.63,-1778.24 840.89,-1549.16 833.45,-1470.71"/>
<polygon fill="black" stroke="black" points="836.93,-1470.3 832.5,-1460.67 829.96,-1470.96 836.93,-1470.3"/>
<text text-anchor="middle" x="786.05" y="-1660.03" font-family="Times,serif" font-size="14.00">void:rootResource</text>
</g>
<!-- http://id.loc.gov/vocabulary/iso639&#45;1/en -->
<g id="node19" class="node">
<title>http://id.loc.gov/vocabulary/iso639&#45;1/en</title>
<ellipse fill="none" stroke="#e377c2" cx="953.82" cy="-2066.59" rx="45.01" ry="16.03"/>
<text text-anchor="middle" x="953.82" y="-2062.89" font-family="Times,serif" font-size="14.00">ns3:en</text>
</g>
<!-- http://w3id.org/oseg/ont/okhimg&#45;&gt;http://id.loc.gov/vocabulary/iso639&#45;1/en -->
<g id="edge18" class="edge">
<title>http://w3id.org/oseg/ont/okhimg&#45;&gt;http://id.loc.gov/vocabulary/iso639&#45;1/en</title>
<path fill="none" stroke="black" d="M876.78,-1874.58C891.28,-1910.71 926.14,-1997.6 943.56,-2041.01"/>
<polygon fill="black" stroke="black" points="940.32,-2042.34 947.29,-2050.31 946.82,-2039.73 940.32,-2042.34"/>
<text text-anchor="middle" x="845.67" y="-1961.59" font-family="Times,serif" font-size="14.00">dcterms:language</text>
</g>
<!-- http://w3id.org/oseg/ont/okhimg#slots -->
<g id="node21" class="node">
<title>http://w3id.org/oseg/ont/okhimg#slots</title>
<ellipse fill="none" stroke="#e377c2" cx="713.1" cy="-1489.16" rx="75.82" ry="16.03"/>
<text text-anchor="middle" x="713.1" y="-1485.46" font-family="Times,serif" font-size="14.00">okhimg:slots</text>
</g>
<!-- http://w3id.org/oseg/ont/okhimg&#45;&gt;http://w3id.org/oseg/ont/okhimg#slots -->
<g id="edge21" class="edge">
<title>http://w3id.org/oseg/ont/okhimg&#45;&gt;http://w3id.org/oseg/ont/okhimg#slots</title>
<path fill="none" stroke="black" d="M863.27,-1841.89C838.53,-1783.79 754.66,-1586.78 724.24,-1515.32"/>
<polygon fill="black" stroke="black" points="727.29,-1513.55 720.15,-1505.72 720.85,-1516.29 727.29,-1513.55"/>
<text text-anchor="middle" x="728.76" y="-1682.41" font-family="Times,serif" font-size="14.00">void:rootResource</text>
</g>
<!-- http://w3id.org/oseg/ont/oseg&#45;profiles#Iopa -->
<g id="node31" class="node">
<title>http://w3id.org/oseg/ont/oseg&#45;profiles#Iopa</title>
<ellipse fill="none" stroke="#e377c2" cx="1113.58" cy="-2048.82" rx="80.72" ry="16.03"/>
<text text-anchor="middle" x="1113.58" y="-2045.12" font-family="Times,serif" font-size="14.00">osegprof:Iopa</text>
</g>
<!-- http://w3id.org/oseg/ont/okhimg&#45;&gt;http://w3id.org/oseg/ont/oseg&#45;profiles#Iopa -->
<g id="edge32" class="edge">
<title>http://w3id.org/oseg/ont/okhimg&#45;&gt;http://w3id.org/oseg/ont/oseg&#45;profiles#Iopa</title>
<path fill="none" stroke="black" d="M890.14,-1873.83C933.28,-1907.61 1035.47,-1987.65 1085.29,-2026.66"/>
<polygon fill="black" stroke="black" points="1083.36,-2029.6 1093.39,-2033.01 1087.68,-2024.08 1083.36,-2029.6"/>
<text text-anchor="middle" x="922.22" y="-1939.04" font-family="Times,serif" font-size="14.00">dcterms:publisher</text>
</g>
<!-- http://spdx.org/licenses/AGPL&#45;3.0&#45;or&#45;later -->
<g id="node41" class="node">
<title>http://spdx.org/licenses/AGPL&#45;3.0&#45;or&#45;later</title>
<ellipse fill="none" stroke="#e377c2" cx="581.81" cy="-2069.26" rx="111.95" ry="16.03"/>
<text text-anchor="middle" x="581.81" y="-2065.56" font-family="Times,serif" font-size="14.00">spdxl:AGPL&#45;3.0&#45;or...</text>
</g>
<!-- http://w3id.org/oseg/ont/okhimg&#45;&gt;http://spdx.org/licenses/AGPL&#45;3.0&#45;or&#45;later -->
<g id="edge43" class="edge">
<title>http://w3id.org/oseg/ont/okhimg&#45;&gt;http://spdx.org/licenses/AGPL&#45;3.0&#45;or&#45;later</title>
<path fill="none" stroke="black" d="M849.02,-1873.75C798.43,-1910.76 670.54,-2004.34 611.96,-2047.2"/>
<polygon fill="black" stroke="black" points="609.84,-2044.42 603.83,-2053.15 613.97,-2050.06 609.84,-2044.42"/>
<text text-anchor="middle" x="654.49" y="-1964.27" font-family="Times,serif" font-size="14.00">spdx:licenseDeclared</text>
</g>
<!-- http://w3id.org/oseg/ont/okhimg#tagArt -->
<g id="node9" class="node">
<title>http://w3id.org/oseg/ont/okhimg#tagArt</title>
<ellipse fill="none" stroke="#e377c2" cx="772.09" cy="-990.82" rx="84.29" ry="16.03"/>
<text text-anchor="middle" x="772.09" y="-987.12" font-family="Times,serif" font-size="14.00">okhimg:tagArt</text>
</g>
<!-- http://w3id.org/oseg/ont/okhimg#tagArt&#45;&gt;http://schema.org/DefinedTerm -->
<g id="edge12" class="edge">
<title>http://w3id.org/oseg/ont/okhimg#tagArt&#45;&gt;http://schema.org/DefinedTerm</title>
<path fill="none" stroke="black" d="M765.6,-974.57C735.92,-900.33 613.11,-593.03 576.7,-501.93"/>
<polygon fill="black" stroke="black" points="579.95,-500.61 572.98,-492.62 573.45,-503.21 579.95,-500.61"/>
<text text-anchor="middle" x="666.65" y="-742.05" font-family="Times,serif" font-size="14.00">a</text>
</g>
<!-- http://w3id.org/oseg/ont/okhimg#tagGray -->
<g id="node10" class="node">
<title>http://w3id.org/oseg/ont/okhimg#tagGray</title>
<ellipse fill="none" stroke="#e377c2" cx="889.99" cy="-486.08" rx="92.76" ry="16.03"/>
<text text-anchor="middle" x="889.99" y="-482.38" font-family="Times,serif" font-size="14.00">okhimg:tagGray</text>
</g>
<!-- http://w3id.org/oseg/ont/okhimg#tagGray&#45;&gt;http://schema.org/DefinedTerm -->
<g id="edge7" class="edge">
<title>http://w3id.org/oseg/ont/okhimg#tagGray&#45;&gt;http://schema.org/DefinedTerm</title>
<path fill="none" stroke="black" d="M798.59,-483.34C765.59,-482.35 727.76,-481.21 692.34,-480.15"/>
<polygon fill="black" stroke="black" points="692.02,-476.64 681.92,-479.84 691.81,-483.64 692.02,-476.64"/>
<text text-anchor="middle" x="740.96" y="-485.54" font-family="Times,serif" font-size="14.00">a</text>
</g>
<!-- http://w3id.org/oseg/ont/okhimg#slotModelFromAbove -->
<g id="node11" class="node">
<title>http://w3id.org/oseg/ont/okhimg#slotModelFromAbove</title>
<ellipse fill="none" stroke="#e377c2" cx="195.66" cy="-183.43" rx="116.85" ry="16.03"/>
<text text-anchor="middle" x="195.66" y="-179.73" font-family="Times,serif" font-size="14.00">okhimg:slotModelF...</text>
</g>
<!-- http://w3id.org/oseg/ont/okhimg#slotModelFromAbove&#45;&gt;http://schema.org/DefinedTerm -->
<g id="edge8" class="edge">
<title>http://w3id.org/oseg/ont/okhimg#slotModelFromAbove&#45;&gt;http://schema.org/DefinedTerm</title>
<path fill="none" stroke="black" d="M216.13,-199.6C278.43,-248.82 465.89,-396.91 537.9,-453.79"/>
<polygon fill="black" stroke="black" points="536.07,-456.81 546.09,-460.26 540.41,-451.31 536.07,-456.81"/>
<text text-anchor="middle" x="372.51" y="-330.49" font-family="Times,serif" font-size="14.00">a</text>
</g>
<!-- http://w3id.org/oseg/ont/okhimg#tagColor -->
<g id="node12" class="node">
<title>http://w3id.org/oseg/ont/okhimg#tagColor</title>
<ellipse fill="none" stroke="#e377c2" cx="244.16" cy="-652.65" rx="95.42" ry="16.03"/>
<text text-anchor="middle" x="244.16" y="-648.95" font-family="Times,serif" font-size="14.00">okhimg:tagColor</text>
</g>
<!-- http://w3id.org/oseg/ont/okhimg#tagColor&#45;&gt;http://schema.org/DefinedTerm -->
<g id="edge9" class="edge">
<title>http://w3id.org/oseg/ont/okhimg#tagColor&#45;&gt;http://schema.org/DefinedTerm</title>
<path fill="none" stroke="black" d="M272.76,-637.01C330.92,-605.2 462.95,-533 528.34,-497.24"/>
<polygon fill="black" stroke="black" points="530.39,-500.11 537.49,-492.24 527.03,-493.96 530.39,-500.11"/>
<text text-anchor="middle" x="396.05" y="-570.92" font-family="Times,serif" font-size="14.00">a</text>
</g>
<!-- http://w3id.org/oseg/ont/okhimg#slotIconMainBw&#45;&gt;http://schema.org/DefinedTerm -->
<g id="edge10" class="edge">
<title>http://w3id.org/oseg/ont/okhimg#slotIconMainBw&#45;&gt;http://schema.org/DefinedTerm</title>
<path fill="none" stroke="black" d="M534.79,-863.98C539.87,-801.94 557.97,-580.53 564.29,-503.24"/>
<polygon fill="black" stroke="black" points="567.81,-503.17 565.14,-492.91 560.83,-502.59 567.81,-503.17"/>
<text text-anchor="middle" x="545.04" y="-687.41" font-family="Times,serif" font-size="14.00">a</text>
</g>
<!-- http://w3id.org/oseg/ont/okhimg#slotIconMainBw&#45;&gt;http://w3id.org/oseg/ont/okhimg#slotIconMain -->
<g id="edge6" class="edge">
<title>http://w3id.org/oseg/ont/okhimg#slotIconMainBw&#45;&gt;http://w3id.org/oseg/ont/okhimg#slotIconMain</title>
<path fill="none" stroke="black" d="M537.57,-896.81C548.47,-923.41 576.16,-975.77 595.38,-1006.87"/>
<polygon fill="black" stroke="black" points="592.48,-1008.84 600.8,-1015.41 598.4,-1005.09 592.48,-1008.84"/>
<text text-anchor="middle" x="538.97" y="-940.64" font-family="Times,serif" font-size="14.00">seeAlso</text>
</g>
<!-- http://w3id.org/oseg/ont/okhimg#slotLogo -->
<g id="node15" class="node">
<title>http://w3id.org/oseg/ont/okhimg#slotLogo</title>
<ellipse fill="none" stroke="#e377c2" cx="905.15" cy="-667.48" rx="94.51" ry="16.03"/>
<text text-anchor="middle" x="905.15" y="-663.78" font-family="Times,serif" font-size="14.00">okhimg:slotLogo</text>
</g>
<!-- http://w3id.org/oseg/ont/okhimg#slotLogo&#45;&gt;http://schema.org/DefinedTerm -->
<g id="edge28" class="edge">
<title>http://w3id.org/oseg/ont/okhimg#slotLogo&#45;&gt;http://schema.org/DefinedTerm</title>
<path fill="none" stroke="black" d="M877.43,-651.84C816.66,-617.55 671.65,-535.72 603.31,-497.15"/>
<polygon fill="black" stroke="black" points="605.02,-494.1 594.59,-492.23 601.58,-500.19 605.02,-494.1"/>
<text text-anchor="middle" x="735.87" y="-578.3" font-family="Times,serif" font-size="14.00">a</text>
</g>
<!-- http://w3id.org/oseg/ont/okhimg#slotLogoBw -->
<g id="node29" class="node">
<title>http://w3id.org/oseg/ont/okhimg#slotLogoBw</title>
<ellipse fill="none" stroke="#e377c2" cx="984.38" cy="-381.84" rx="111.03" ry="16.03"/>
<text text-anchor="middle" x="984.38" y="-378.14" font-family="Times,serif" font-size="14.00">okhimg:slotLogoBw</text>
</g>
<!-- http://w3id.org/oseg/ont/okhimg#slotLogo&#45;&gt;http://w3id.org/oseg/ont/okhimg#slotLogoBw -->
<g id="edge48" class="edge">
<title>http://w3id.org/oseg/ont/okhimg#slotLogo&#45;&gt;http://w3id.org/oseg/ont/okhimg#slotLogoBw</title>
<path fill="none" stroke="black" d="M913.31,-650.97C930.86,-603.4 969.2,-465.89 981.3,-408"/>
<polygon fill="black" stroke="black" points="984.74,-408.64 983.25,-398.16 977.88,-407.29 984.74,-408.64"/>
<text text-anchor="middle" x="919.81" y="-533.28" font-family="Times,serif" font-size="14.00">seeAlso</text>
</g>
<!-- http://w3id.org/oseg/ont/okhimg#tags&#45;&gt;http://schema.org/DefinedTermSet -->
<g id="edge14" class="edge">
<title>http://w3id.org/oseg/ont/okhimg#tags&#45;&gt;http://schema.org/DefinedTermSet</title>
<path fill="none" stroke="black" d="M818.43,-1460.44C783.75,-1505.69 686.13,-1633.04 644.95,-1686.76"/>
<polygon fill="black" stroke="black" points="642.15,-1684.66 638.84,-1694.73 647.7,-1688.92 642.15,-1684.66"/>
<text text-anchor="middle" x="727.19" y="-1577.4" font-family="Times,serif" font-size="14.00">a</text>
</g>
<!-- http://w3id.org/oseg/ont/okhimg#tags&#45;&gt;http://w3id.org/oseg/ont/okhimg#tagArt -->
<g id="edge5" class="edge">
<title>http://w3id.org/oseg/ont/okhimg#tags&#45;&gt;http://w3id.org/oseg/ont/okhimg#tagArt</title>
<path fill="none" stroke="black" d="M828.8,-1427.74C820,-1359.91 786.39,-1101.01 775.51,-1017.18"/>
<polygon fill="black" stroke="black" points="778.97,-1016.66 774.22,-1007.2 772.03,-1017.57 778.97,-1016.66"/>
<text text-anchor="middle" x="714.65" y="-1226.26" font-family="Times,serif" font-size="14.00">schema:hasDefinedTerm</text>
</g>
<!-- http://w3id.org/oseg/ont/okhimg#slotSymbol -->
<g id="node17" class="node">
<title>http://w3id.org/oseg/ont/okhimg#slotSymbol</title>
<ellipse fill="none" stroke="#e377c2" cx="145.49" cy="-595.17" rx="108.38" ry="16.03"/>
<text text-anchor="middle" x="145.49" y="-591.47" font-family="Times,serif" font-size="14.00">okhimg:slotSymbol</text>
</g>
<!-- http://w3id.org/oseg/ont/okhimg#slotSymbol&#45;&gt;http://schema.org/DefinedTerm -->
<g id="edge16" class="edge">
<title>http://w3id.org/oseg/ont/okhimg#slotSymbol&#45;&gt;http://schema.org/DefinedTerm</title>
<path fill="none" stroke="black" d="M196.69,-580.72C274.29,-558.83 421.43,-517.31 504.81,-493.78"/>
<polygon fill="black" stroke="black" points="505.98,-497.09 514.66,-491 504.08,-490.35 505.98,-497.09"/>
<text text-anchor="middle" x="346.25" y="-541.05" font-family="Times,serif" font-size="14.00">a</text>
</g>
<!-- http://w3id.org/oseg/ont/okhimg#slotPhotoPackaging -->
<g id="node18" class="node">
<title>http://w3id.org/oseg/ont/okhimg#slotPhotoPackaging</title>
<ellipse fill="none" stroke="#e377c2" cx="236.56" cy="-766.79" rx="113.69" ry="16.03"/>
<text text-anchor="middle" x="236.56" y="-763.09" font-family="Times,serif" font-size="14.00">okhimg:slotPhotoP...</text>
</g>
<!-- http://w3id.org/oseg/ont/okhimg#slotPhotoPackaging&#45;&gt;http://schema.org/DefinedTerm -->
<g id="edge17" class="edge">
<title>http://w3id.org/oseg/ont/okhimg#slotPhotoPackaging&#45;&gt;http://schema.org/DefinedTerm</title>
<path fill="none" stroke="black" d="M255.25,-750.35C310.94,-701.33 475.91,-556.11 540.32,-499.41"/>
<polygon fill="black" stroke="black" points="542.82,-501.88 548.01,-492.64 538.19,-496.62 542.82,-501.88"/>
<text text-anchor="middle" x="393.28" y="-628.68" font-family="Times,serif" font-size="14.00">a</text>
</g>
<!-- http://w3id.org/oseg/ont/okhimg#slotSocial -->
<g id="node20" class="node">
<title>http://w3id.org/oseg/ont/okhimg#slotSocial</title>
<ellipse fill="none" stroke="#e377c2" cx="195.53" cy="-380.82" rx="101.23" ry="16.03"/>
<text text-anchor="middle" x="195.53" y="-377.12" font-family="Times,serif" font-size="14.00">okhimg:slotSocial</text>
</g>
<!-- http://w3id.org/oseg/ont/okhimg#slotSocial&#45;&gt;http://schema.org/DefinedTerm -->
<g id="edge20" class="edge">
<title>http://w3id.org/oseg/ont/okhimg#slotSocial&#45;&gt;http://schema.org/DefinedTerm</title>
<path fill="none" stroke="black" d="M249.47,-394.72C316.07,-411.87 429.28,-441.03 500.85,-459.47"/>
<polygon fill="black" stroke="black" points="500.11,-462.89 510.66,-461.99 501.85,-456.11 500.11,-462.89"/>
<text text-anchor="middle" x="370.66" y="-430.89" font-family="Times,serif" font-size="14.00">a</text>
</g>
<!-- http://w3id.org/oseg/ont/okhimg#slots&#45;&gt;http://schema.org/DefinedTermSet -->
<g id="edge49" class="edge">
<title>http://w3id.org/oseg/ont/okhimg#slots&#45;&gt;http://schema.org/DefinedTermSet</title>
<path fill="none" stroke="black" d="M706.71,-1505.48C691.78,-1543.65 654.48,-1638.98 636.4,-1685.21"/>
<polygon fill="black" stroke="black" points="633.03,-1684.22 632.64,-1694.81 639.55,-1686.77 633.03,-1684.22"/>
<text text-anchor="middle" x="667.06" y="-1599.15" font-family="Times,serif" font-size="14.00">a</text>
</g>
<!-- http://w3id.org/oseg/ont/okhimg#slots&#45;&gt;http://w3id.org/oseg/ont/okhimg#slotIconMain -->
<g id="edge2" class="edge">
<title>http://w3id.org/oseg/ont/okhimg#slots&#45;&gt;http://w3id.org/oseg/ont/okhimg#slotIconMain</title>
<path fill="none" stroke="black" d="M709.6,-1472.87C694.97,-1404.79 638.59,-1142.57 620.43,-1058.07"/>
<polygon fill="black" stroke="black" points="623.84,-1057.27 618.31,-1048.23 616.99,-1058.74 623.84,-1057.27"/>
<text text-anchor="middle" x="577.51" y="-1269.27" font-family="Times,serif" font-size="14.00">schema:hasDefinedTerm</text>
</g>
<!-- http://w3id.org/oseg/ont/okhimg#tagScreenshot -->
<g id="node22" class="node">
<title>http://w3id.org/oseg/ont/okhimg#tagScreenshot</title>
<ellipse fill="none" stroke="#e377c2" cx="429.78" cy="-16.29" rx="125.32" ry="16.03"/>
<text text-anchor="middle" x="429.78" y="-12.59" font-family="Times,serif" font-size="14.00">okhimg:tagScreenshot</text>
</g>
<!-- http://w3id.org/oseg/ont/okhimg#tagScreenshot&#45;&gt;http://schema.org/DefinedTerm -->
<g id="edge22" class="edge">
<title>http://w3id.org/oseg/ont/okhimg#tagScreenshot&#45;&gt;http://schema.org/DefinedTerm</title>
<path fill="none" stroke="black" d="M434.64,-32.67C455.01,-101.2 533.51,-365.38 558.68,-450.08"/>
<polygon fill="black" stroke="black" points="555.34,-451.13 561.54,-459.72 562.05,-449.13 555.34,-451.13"/>
<text text-anchor="middle" x="492.16" y="-245.17" font-family="Times,serif" font-size="14.00">a</text>
</g>
<!-- http://w3id.org/oseg/ont/okhimg#slotModel3D -->
<g id="node23" class="node">
<title>http://w3id.org/oseg/ont/okhimg#slotModel3D</title>
<ellipse fill="none" stroke="#e377c2" cx="609.23" cy="-432.72" rx="115.93" ry="16.03"/>
<text text-anchor="middle" x="609.23" y="-429.02" font-family="Times,serif" font-size="14.00">okhimg:slotModel3D</text>
</g>
<!-- http://w3id.org/oseg/ont/okhimg#slotModel3D&#45;&gt;http://schema.org/DefinedTerm -->
<g id="edge23" class="edge">
<title>http://w3id.org/oseg/ont/okhimg#slotModel3D&#45;&gt;http://schema.org/DefinedTerm</title>
<path fill="none" stroke="black" d="M593.31,-448.97C592.07,-450.24 590.81,-451.53 589.53,-452.84"/>
<polygon fill="black" stroke="black" points="586.77,-450.66 582.27,-460.25 591.77,-455.55 586.77,-450.66"/>
<text text-anchor="middle" x="586.92" y="-454.7" font-family="Times,serif" font-size="14.00">a</text>
</g>
<!-- http://w3id.org/oseg/ont/okhimg#tagDiagram -->
<g id="node24" class="node">
<title>http://w3id.org/oseg/ont/okhimg#tagDiagram</title>
<ellipse fill="none" stroke="#e377c2" cx="124.19" cy="-484.05" rx="111.95" ry="16.03"/>
<text text-anchor="middle" x="124.19" y="-480.35" font-family="Times,serif" font-size="14.00">okhimg:tagDiagram</text>
</g>
<!-- http://w3id.org/oseg/ont/okhimg#tagDiagram&#45;&gt;http://schema.org/DefinedTerm -->
<g id="edge24" class="edge">
<title>http://w3id.org/oseg/ont/okhimg#tagDiagram&#45;&gt;http://schema.org/DefinedTerm</title>
<path fill="none" stroke="black" d="M235.23,-482.12C297.17,-481.05 374.58,-479.7 438.99,-478.59"/>
<polygon fill="black" stroke="black" points="439.27,-482.08 449.21,-478.41 439.15,-475.08 439.27,-482.08"/>
<text text-anchor="middle" x="332.61" y="-484.15" font-family="Times,serif" font-size="14.00">a</text>
</g>
<!-- http://w3id.org/oseg/ont/okhimg#slotModelFromRight -->
<g id="node25" class="node">
<title>http://w3id.org/oseg/ont/okhimg#slotModelFromRight</title>
<ellipse fill="none" stroke="#e377c2" cx="817.05" cy="-794.62" rx="116.85" ry="16.03"/>
<text text-anchor="middle" x="817.05" y="-790.92" font-family="Times,serif" font-size="14.00">okhimg:slotModelF...</text>
</g>
<!-- http://w3id.org/oseg/ont/okhimg#slotModelFromRight&#45;&gt;http://schema.org/DefinedTerm -->
<g id="edge25" class="edge">
<title>http://w3id.org/oseg/ont/okhimg#slotModelFromRight&#45;&gt;http://schema.org/DefinedTerm</title>
<path fill="none" stroke="black" d="M804.28,-778.4C763.23,-726.26 634.48,-562.74 585.59,-500.63"/>
<polygon fill="black" stroke="black" points="588.17,-498.25 579.23,-492.56 582.67,-502.58 588.17,-498.25"/>
<text text-anchor="middle" x="690.43" y="-643.32" font-family="Times,serif" font-size="14.00">a</text>
</g>
<!-- http://w3id.org/oseg/ont/okhimg#slotModelFromLeft -->
<g id="node26" class="node">
<title>http://w3id.org/oseg/ont/okhimg#slotModelFromLeft</title>
<ellipse fill="none" stroke="#e377c2" cx="309.35" cy="-78.92" rx="116.85" ry="16.03"/>
<text text-anchor="middle" x="309.35" y="-75.22" font-family="Times,serif" font-size="14.00">okhimg:slotModelF...</text>
</g>
<!-- http://w3id.org/oseg/ont/okhimg#slotModelFromLeft&#45;&gt;http://schema.org/DefinedTerm -->
<g id="edge26" class="edge">
<title>http://w3id.org/oseg/ont/okhimg#slotModelFromLeft&#45;&gt;http://schema.org/DefinedTerm</title>
<path fill="none" stroke="black" d="M320.07,-95.49C360.27,-157.63 502.19,-376.98 550.36,-451.44"/>
<polygon fill="black" stroke="black" points="547.64,-453.68 556.01,-460.17 553.51,-449.87 547.64,-453.68"/>
<text text-anchor="middle" x="430.71" y="-277.27" font-family="Times,serif" font-size="14.00">a</text>
</g>
<!-- http://w3id.org/oseg/ont/okhimg#tagBw -->
<g id="node27" class="node">
<title>http://w3id.org/oseg/ont/okhimg#tagBw</title>
<ellipse fill="none" stroke="#e377c2" cx="611.97" cy="-104.58" rx="84.29" ry="16.03"/>
<text text-anchor="middle" x="611.97" y="-100.88" font-family="Times,serif" font-size="14.00">okhimg:tagBw</text>
</g>
<!-- http://w3id.org/oseg/ont/okhimg#tagBw&#45;&gt;http://schema.org/DefinedTerm -->
<g id="edge27" class="edge">
<title>http://w3id.org/oseg/ont/okhimg#tagBw&#45;&gt;http://schema.org/DefinedTerm</title>
<path fill="none" stroke="black" d="M609.96,-121.04C602.8,-179.59 578.51,-378.12 569.71,-450.07"/>
<polygon fill="black" stroke="black" points="566.22,-449.76 568.48,-460.11 573.17,-450.61 566.22,-449.76"/>
<text text-anchor="middle" x="585.33" y="-289.35" font-family="Times,serif" font-size="14.00">a</text>
</g>
<!-- http://w3id.org/oseg/ont/okhimg#slotOrganizationLogo&#45;&gt;http://schema.org/DefinedTerm -->
<g id="edge29" class="edge">
<title>http://w3id.org/oseg/ont/okhimg#slotOrganizationLogo&#45;&gt;http://schema.org/DefinedTerm</title>
<path fill="none" stroke="black" d="M545.86,-509.28C547.41,-506.81 549.04,-504.22 550.67,-501.62"/>
<polygon fill="black" stroke="black" points="553.79,-503.23 556.13,-492.9 547.85,-499.51 553.79,-503.23"/>
<text text-anchor="middle" x="543.77" y="-494.25" font-family="Times,serif" font-size="14.00">a</text>
</g>
<!-- http://w3id.org/oseg/ont/okhimg#slotOrganizationLogo&#45;&gt;http://w3id.org/oseg/ont/okhimg#slotOrganizationLogoBw -->
<g id="edge1" class="edge">
<title>http://w3id.org/oseg/ont/okhimg#slotOrganizationLogo&#45;&gt;http://w3id.org/oseg/ont/okhimg#slotOrganizationLogoBw</title>
<path fill="none" stroke="black" d="M523.7,-542.27C496.42,-589.5 431.22,-724.85 407.99,-782.04"/>
<polygon fill="black" stroke="black" points="404.69,-780.87 404.28,-791.46 411.2,-783.44 404.69,-780.87"/>
<text text-anchor="middle" x="438.34" y="-650.96" font-family="Times,serif" font-size="14.00">seeAlso</text>
</g>
<!-- http://w3id.org/oseg/ont/okhimg#slotLogoBw&#45;&gt;http://schema.org/DefinedTerm -->
<g id="edge30" class="edge">
<title>http://w3id.org/oseg/ont/okhimg#slotLogoBw&#45;&gt;http://schema.org/DefinedTerm</title>
<path fill="none" stroke="black" d="M923.61,-395.58C847.85,-412.72 718.54,-441.98 638.06,-460.18"/>
<polygon fill="black" stroke="black" points="636.99,-456.84 628.01,-462.46 638.53,-463.66 636.99,-456.84"/>
<text text-anchor="middle" x="776.34" y="-431.68" font-family="Times,serif" font-size="14.00">a</text>
</g>
<!-- http://w3id.org/oseg/ont/okhimg#slotLogoBw&#45;&gt;http://w3id.org/oseg/ont/okhimg#slotLogo -->
<g id="edge13" class="edge">
<title>http://w3id.org/oseg/ont/okhimg#slotLogoBw&#45;&gt;http://w3id.org/oseg/ont/okhimg#slotLogo</title>
<path fill="none" stroke="black" d="M976.22,-398.35C958.67,-445.92 920.32,-583.43 908.22,-641.32"/>
<polygon fill="black" stroke="black" points="904.78,-640.68 906.28,-651.16 911.65,-642.03 904.78,-640.68"/>
<text text-anchor="middle" x="914.72" y="-508.64" font-family="Times,serif" font-size="14.00">seeAlso</text>
</g>
<!-- http://w3id.org/oseg/ont/okhimg#tagIcon -->
<g id="node30" class="node">
<title>http://w3id.org/oseg/ont/okhimg#tagIcon</title>
<ellipse fill="none" stroke="#e377c2" cx="702.1" cy="-159.55" rx="89.61" ry="16.03"/>
<text text-anchor="middle" x="702.1" y="-155.85" font-family="Times,serif" font-size="14.00">okhimg:tagIcon</text>
</g>
<!-- http://w3id.org/oseg/ont/okhimg#tagIcon&#45;&gt;http://schema.org/DefinedTerm -->
<g id="edge31" class="edge">
<title>http://w3id.org/oseg/ont/okhimg#tagIcon&#45;&gt;http://schema.org/DefinedTerm</title>
<path fill="none" stroke="black" d="M695,-176.14C672.76,-228.11 604.31,-388.02 577.46,-450.75"/>
<polygon fill="black" stroke="black" points="574.24,-449.38 573.52,-459.95 580.67,-452.14 574.24,-449.38"/>
<text text-anchor="middle" x="631.73" y="-317.24" font-family="Times,serif" font-size="14.00">a</text>
</g>
<!-- http://w3id.org/oseg/ont/okhimg#slotModelMain -->
<g id="node32" class="node">
<title>http://w3id.org/oseg/ont/okhimg#slotModelMain</title>
<ellipse fill="none" stroke="#e377c2" cx="1066.97" cy="-439.51" rx="127.06" ry="16.03"/>
<text text-anchor="middle" x="1066.97" y="-435.81" font-family="Times,serif" font-size="14.00">okhimg:slotModelMain</text>
</g>
<!-- http://w3id.org/oseg/ont/okhimg#slotModelMain&#45;&gt;http://schema.org/DefinedTerm -->
<g id="edge33" class="edge">
<title>http://w3id.org/oseg/ont/okhimg#slotModelMain&#45;&gt;http://schema.org/DefinedTerm</title>
<path fill="none" stroke="black" d="M956.52,-447.64C874.72,-453.67 763.59,-461.86 680.87,-467.95"/>
<polygon fill="black" stroke="black" points="680.39,-464.47 670.67,-468.7 680.9,-471.46 680.39,-464.47"/>
<text text-anchor="middle" x="814.19" y="-446.6" font-family="Times,serif" font-size="14.00">a</text>
</g>
<!-- http://w3id.org/oseg/ont/okhimg#tagDrawing -->
<g id="node33" class="node">
<title>http://w3id.org/oseg/ont/okhimg#tagDrawing</title>
<ellipse fill="none" stroke="#e377c2" cx="403.46" cy="-140.33" rx="111.95" ry="16.03"/>
<text text-anchor="middle" x="403.46" y="-136.63" font-family="Times,serif" font-size="14.00">okhimg:tagDrawing</text>
</g>
<!-- http://w3id.org/oseg/ont/okhimg#tagDrawing&#45;&gt;http://schema.org/DefinedTerm -->
<g id="edge34" class="edge">
<title>http://w3id.org/oseg/ont/okhimg#tagDrawing&#45;&gt;http://schema.org/DefinedTerm</title>
<path fill="none" stroke="black" d="M411.54,-157C438,-211.54 522.16,-384.99 554.06,-450.76"/>
<polygon fill="black" stroke="black" points="551.03,-452.54 558.55,-460.01 557.33,-449.48 551.03,-452.54"/>
<text text-anchor="middle" x="478.3" y="-307.68" font-family="Times,serif" font-size="14.00">a</text>
</g>
<!-- http://w3id.org/oseg/ont/okhimg#slotModelFromBelow -->
<g id="node34" class="node">
<title>http://w3id.org/oseg/ont/okhimg#slotModelFromBelow</title>
<ellipse fill="none" stroke="#e377c2" cx="930.64" cy="-161.35" rx="116.85" ry="16.03"/>
<text text-anchor="middle" x="930.64" y="-157.65" font-family="Times,serif" font-size="14.00">okhimg:slotModelF...</text>
</g>
<!-- http://w3id.org/oseg/ont/okhimg#slotModelFromBelow&#45;&gt;http://schema.org/DefinedTerm -->
<g id="edge35" class="edge">
<title>http://w3id.org/oseg/ont/okhimg#slotModelFromBelow&#45;&gt;http://schema.org/DefinedTerm</title>
<path fill="none" stroke="black" d="M911.83,-177.62C851.65,-229.68 663.68,-392.29 593.38,-453.11"/>
<polygon fill="black" stroke="black" points="590.68,-450.82 585.41,-460.01 595.26,-456.11 590.68,-450.82"/>
<text text-anchor="middle" x="748.1" y="-319.17" font-family="Times,serif" font-size="14.00">a</text>
</g>
<!-- http://w3id.org/oseg/ont/okhimg#slotModelFromFront -->
<g id="node35" class="node">
<title>http://w3id.org/oseg/ont/okhimg#slotModelFromFront</title>
<ellipse fill="none" stroke="#e377c2" cx="947.4" cy="-258.27" rx="116.85" ry="16.03"/>
<text text-anchor="middle" x="947.4" y="-254.57" font-family="Times,serif" font-size="14.00">okhimg:slotModelF...</text>
</g>
<!-- http://w3id.org/oseg/ont/okhimg#slotModelFromFront&#45;&gt;http://schema.org/DefinedTerm -->
<g id="edge37" class="edge">
<title>http://w3id.org/oseg/ont/okhimg#slotModelFromFront&#45;&gt;http://schema.org/DefinedTerm</title>
<path fill="none" stroke="black" d="M919.7,-274.13C852.17,-312.8 679.04,-411.93 603.11,-455.41"/>
<polygon fill="black" stroke="black" points="601.28,-452.42 594.34,-460.43 604.76,-458.49 601.28,-452.42"/>
<text text-anchor="middle" x="756.9" y="-368.57" font-family="Times,serif" font-size="14.00">a</text>
</g>
<!-- http://w3id.org/oseg/ont/okhimg#tagPhoto -->
<g id="node36" class="node">
<title>http://w3id.org/oseg/ont/okhimg#tagPhoto</title>
<ellipse fill="none" stroke="#e377c2" cx="685.9" cy="-43.54" rx="97.66" ry="16.03"/>
<text text-anchor="middle" x="685.9" y="-39.84" font-family="Times,serif" font-size="14.00">okhimg:tagPhoto</text>
</g>
<!-- http://w3id.org/oseg/ont/okhimg#tagPhoto&#45;&gt;http://schema.org/DefinedTerm -->
<g id="edge38" class="edge">
<title>http://w3id.org/oseg/ont/okhimg#tagPhoto&#45;&gt;http://schema.org/DefinedTerm</title>
<path fill="none" stroke="black" d="M681.36,-59.98C663.26,-125.6 596.08,-369.1 573.76,-450.03"/>
<polygon fill="black" stroke="black" points="570.31,-449.35 571.03,-459.92 577.06,-451.21 570.31,-449.35"/>
<text text-anchor="middle" x="623.06" y="-258.81" font-family="Times,serif" font-size="14.00">a</text>
</g>
<!-- http://w3id.org/oseg/ont/okhimg#slotModelFromBack -->
<g id="node37" class="node">
<title>http://w3id.org/oseg/ont/okhimg#slotModelFromBack</title>
<ellipse fill="none" stroke="#e377c2" cx="252.18" cy="-242.28" rx="116.85" ry="16.03"/>
<text text-anchor="middle" x="252.18" y="-238.58" font-family="Times,serif" font-size="14.00">okhimg:slotModelF...</text>
</g>
<!-- http://w3id.org/oseg/ont/okhimg#slotModelFromBack&#45;&gt;http://schema.org/DefinedTerm -->
<g id="edge39" class="edge">
<title>http://w3id.org/oseg/ont/okhimg#slotModelFromBack&#45;&gt;http://schema.org/DefinedTerm</title>
<path fill="none" stroke="black" d="M273.78,-258.37C328.62,-299.22 473.33,-406.99 536.4,-453.96"/>
<polygon fill="black" stroke="black" points="534.62,-457.01 544.73,-460.17 538.81,-451.39 534.62,-457.01"/>
<text text-anchor="middle" x="400.59" y="-359.97" font-family="Times,serif" font-size="14.00">a</text>
</g>
<!-- http://w3id.org/oseg/ont/okhimg#tagLogo -->
<g id="node38" class="node">
<title>http://w3id.org/oseg/ont/okhimg#tagLogo</title>
<ellipse fill="none" stroke="#e377c2" cx="972.9" cy="-585.54" rx="92.76" ry="16.03"/>
<text text-anchor="middle" x="972.9" y="-581.84" font-family="Times,serif" font-size="14.00">okhimg:tagLogo</text>
</g>
<!-- http://w3id.org/oseg/ont/okhimg#tagLogo&#45;&gt;http://schema.org/DefinedTerm -->
<g id="edge40" class="edge">
<title>http://w3id.org/oseg/ont/okhimg#tagLogo&#45;&gt;http://schema.org/DefinedTerm</title>
<path fill="none" stroke="black" d="M921.84,-571.82C847.93,-551.97 711.2,-515.24 630.6,-493.59"/>
<polygon fill="black" stroke="black" points="631.14,-490.12 620.57,-490.9 629.32,-496.88 631.14,-490.12"/>
<text text-anchor="middle" x="771.72" y="-536.51" font-family="Times,serif" font-size="14.00">a</text>
</g>
<!-- http://w3id.org/oseg/ont/okhimg#slotPhotoThingMain -->
<g id="node39" class="node">
<title>http://w3id.org/oseg/ont/okhimg#slotPhotoThingMain</title>
<ellipse fill="none" stroke="#e377c2" cx="114.15" cy="-325.19" rx="114.6" ry="16.03"/>
<text text-anchor="middle" x="114.15" y="-321.49" font-family="Times,serif" font-size="14.00">okhimg:slotPhotoT...</text>
</g>
<!-- http://w3id.org/oseg/ont/okhimg#slotPhotoThingMain&#45;&gt;http://schema.org/DefinedTerm -->
<g id="edge41" class="edge">
<title>http://w3id.org/oseg/ont/okhimg#slotPhotoThingMain&#45;&gt;http://schema.org/DefinedTerm</title>
<path fill="none" stroke="black" d="M159.17,-340.24C242.72,-368.16 421.45,-427.9 511.8,-458.09"/>
<polygon fill="black" stroke="black" points="510.72,-461.42 521.31,-461.27 512.94,-454.78 510.72,-461.42"/>
<text text-anchor="middle" x="330.98" y="-402.96" font-family="Times,serif" font-size="14.00">a</text>
</g>
<!-- http://w3id.org/oseg/ont/okhimg#tagModel -->
<g id="node40" class="node">
<title>http://w3id.org/oseg/ont/okhimg#tagModel</title>
<ellipse fill="none" stroke="#e377c2" cx="828.94" cy="-105.19" rx="99.9" ry="16.03"/>
<text text-anchor="middle" x="828.94" y="-101.49" font-family="Times,serif" font-size="14.00">okhimg:tagModel</text>
</g>
<!-- http://w3id.org/oseg/ont/okhimg#tagModel&#45;&gt;http://schema.org/DefinedTerm -->
<g id="edge42" class="edge">
<title>http://w3id.org/oseg/ont/okhimg#tagModel&#45;&gt;http://schema.org/DefinedTerm</title>
<path fill="none" stroke="black" d="M817.33,-121.62C775.66,-180.55 633.54,-381.55 583.83,-451.85"/>
<polygon fill="black" stroke="black" points="580.89,-449.95 577.97,-460.14 586.6,-453.99 580.89,-449.95"/>
<text text-anchor="middle" x="696.08" y="-290.54" font-family="Times,serif" font-size="14.00">a</text>
</g>
</g>
</svg>
