<?xml version="1.0" encoding="UTF-8" standalone="no"?>
<!DOCTYPE svg PUBLIC "-//W3C//DTD SVG 1.1//EN"
 "http://www.w3.org/Graphics/SVG/1.1/DTD/svg11.dtd">
<!-- Generated by graphviz version 2.43.0 (0)
 -->
<!-- Title: G Pages: 1 -->
<svg width="1427pt" height="2163pt"
 viewBox="0.00 0.00 1427.00 2163.00" xmlns="http://www.w3.org/2000/svg" xmlns:xlink="http://www.w3.org/1999/xlink">
<g id="graph0" class="graph" transform="scale(1 1) rotate(0) translate(4 2159)">
<title>G</title>
<polygon fill="white" stroke="transparent" points="-4,4 -4,-2159 1423,-2159 1423,4 -4,4"/>
<!-- http://www.w3.org/2004/02/skos/core#Concept -->
<g id="node1" class="node">
<title>http://www.w3.org/2004/02/skos/core#Concept</title>
<ellipse fill="none" stroke="#1f77b4" cx="597.04" cy="-1030.05" rx="78.48" ry="16.03"/>
<text text-anchor="middle" x="597.04" y="-1026.35" font-family="Times,serif" font-size="14.00">skos:Concept</text>
</g>
<!-- http://w3id.org/oseg/ont/okh#FileUrl -->
<g id="node2" class="node">
<title>http://w3id.org/oseg/ont/okh#FileUrl</title>
<ellipse fill="none" stroke="#1f77b4" cx="692.98" cy="-365.88" rx="68.68" ry="16.03"/>
<text text-anchor="middle" x="692.98" y="-362.18" font-family="Times,serif" font-size="14.00">okh:FileUrl</text>
</g>
<!-- http://w3id.org/oseg/ont/okh#ComponentReference -->
<g id="node3" class="node">
<title>http://w3id.org/oseg/ont/okh#ComponentReference</title>
<ellipse fill="none" stroke="#e377c2" cx="638.32" cy="-662.14" rx="123.07" ry="16.03"/>
<text text-anchor="middle" x="638.32" y="-658.44" font-family="Times,serif" font-size="14.00">okh:ComponentRefe...</text>
</g>
<!-- http://w3id.org/oseg/ont/okh#FileUrl&#45;&gt;http://w3id.org/oseg/ont/okh#ComponentReference -->
<g id="edge41" class="edge">
<title>http://w3id.org/oseg/ont/okh#FileUrl&#45;&gt;http://w3id.org/oseg/ont/okh#ComponentReference</title>
<path fill="none" stroke="black" d="M689.97,-382.23C680.97,-430.99 654.26,-575.72 643.2,-635.67"/>
<polygon fill="black" stroke="black" points="639.7,-635.37 641.33,-645.84 646.58,-636.64 639.7,-635.37"/>
</g>
<!-- http://schema.org/URL -->
<g id="node6" class="node">
<title>http://schema.org/URL</title>
<ellipse fill="none" stroke="#e377c2" cx="827" cy="-177.22" rx="75.82" ry="16.03"/>
<text text-anchor="middle" x="827" y="-173.52" font-family="Times,serif" font-size="14.00">schema:URL</text>
</g>
<!-- http://w3id.org/oseg/ont/okh#FileUrl&#45;&gt;http://schema.org/URL -->
<g id="edge3" class="edge">
<title>http://w3id.org/oseg/ont/okh#FileUrl&#45;&gt;http://schema.org/URL</title>
<path fill="none" stroke="black" d="M704.41,-349.79C727.89,-316.74 781.7,-241 809.56,-201.77"/>
<polygon fill="black" stroke="black" points="812.48,-203.71 815.41,-193.53 806.77,-199.66 812.48,-203.71"/>
</g>
<!-- http://w3id.org/oseg/ont/okh#File -->
<g id="node7" class="node">
<title>http://w3id.org/oseg/ont/okh#File</title>
<ellipse fill="none" stroke="#e377c2" cx="491.1" cy="-431.33" rx="52.15" ry="16.03"/>
<text text-anchor="middle" x="491.1" y="-427.63" font-family="Times,serif" font-size="14.00">okh:File</text>
</g>
<!-- http://w3id.org/oseg/ont/okh#FileUrl&#45;&gt;http://w3id.org/oseg/ont/okh#File -->
<g id="edge2" class="edge">
<title>http://w3id.org/oseg/ont/okh#FileUrl&#45;&gt;http://w3id.org/oseg/ont/okh#File</title>
<path fill="none" stroke="black" d="M652.13,-379.12C618.89,-389.9 571.98,-405.11 537.36,-416.33"/>
<polygon fill="black" stroke="black" points="535.92,-413.11 527.49,-419.53 538.08,-419.77 535.92,-413.11"/>
<text text-anchor="middle" x="514.74" y="-401.52" font-family="Times,serif" font-size="14.00">schema:supersededBy</text>
</g>
<!-- http://w3id.org/oseg/ont/okh#ComponentReference&#45;&gt;http://www.w3.org/2004/02/skos/core#Concept -->
<g id="edge27" class="edge">
<title>http://w3id.org/oseg/ont/okh#ComponentReference&#45;&gt;http://www.w3.org/2004/02/skos/core#Concept</title>
<path fill="none" stroke="black" d="M636.49,-678.42C630.01,-736.23 608.05,-931.93 600.01,-1003.53"/>
<polygon fill="black" stroke="black" points="596.53,-1003.21 598.89,-1013.54 603.48,-1003.99 596.53,-1003.21"/>
<text text-anchor="middle" x="613.75" y="-844.78" font-family="Times,serif" font-size="14.00">a</text>
</g>
<!-- http://w3id.org/oseg/ont/okh#Reference -->
<g id="node4" class="node">
<title>http://w3id.org/oseg/ont/okh#Reference</title>
<ellipse fill="none" stroke="#e377c2" cx="371.88" cy="-512.71" rx="84.29" ry="16.03"/>
<text text-anchor="middle" x="371.88" y="-509.01" font-family="Times,serif" font-size="14.00">okh:Reference</text>
</g>
<!-- http://w3id.org/oseg/ont/okh#ComponentReference&#45;&gt;http://w3id.org/oseg/ont/okh#Reference -->
<g id="edge1" class="edge">
<title>http://w3id.org/oseg/ont/okh#ComponentReference&#45;&gt;http://w3id.org/oseg/ont/okh#Reference</title>
<path fill="none" stroke="black" d="M609.81,-646.15C561.07,-618.82 461.85,-563.16 408.22,-533.09"/>
<polygon fill="black" stroke="black" points="409.82,-529.97 399.39,-528.13 406.4,-536.08 409.82,-529.97"/>
</g>
<!-- http://w3id.org/oseg/ont/okhmetaPartsTag -->
<g id="node8" class="node">
<title>http://w3id.org/oseg/ont/okhmetaPartsTag</title>
<ellipse fill="none" stroke="#e377c2" cx="902.38" cy="-485.12" rx="103.48" ry="16.03"/>
<text text-anchor="middle" x="902.38" y="-481.42" font-family="Times,serif" font-size="14.00">okhmeta:PartsTag</text>
</g>
<!-- http://w3id.org/oseg/ont/okh#ComponentReference&#45;&gt;http://w3id.org/oseg/ont/okhmetaPartsTag -->
<g id="edge44" class="edge">
<title>http://w3id.org/oseg/ont/okh#ComponentReference&#45;&gt;http://w3id.org/oseg/ont/okhmetaPartsTag</title>
<path fill="none" stroke="black" d="M662.22,-646.12C709.84,-614.19 816.6,-542.63 870.27,-506.64"/>
<polygon fill="black" stroke="black" points="872.37,-509.45 878.73,-500.98 868.47,-503.64 872.37,-509.45"/>
<text text-anchor="middle" x="689.25" y="-580.18" font-family="Times,serif" font-size="14.00">okhmeta:hasMetaTag</text>
</g>
<!-- http://w3id.org/oseg/ont/okh#Mass -->
<g id="node5" class="node">
<title>http://w3id.org/oseg/ont/okh#Mass</title>
<ellipse fill="none" stroke="#e377c2" cx="523.53" cy="-1321.23" rx="59.29" ry="16.03"/>
<text text-anchor="middle" x="523.53" y="-1317.53" font-family="Times,serif" font-size="14.00">okh:Mass</text>
</g>
<!-- http://w3id.org/oseg/ont/okh#Mass&#45;&gt;http://www.w3.org/2004/02/skos/core#Concept -->
<g id="edge16" class="edge">
<title>http://w3id.org/oseg/ont/okh#Mass&#45;&gt;http://www.w3.org/2004/02/skos/core#Concept</title>
<path fill="none" stroke="black" d="M527.69,-1304.74C539.87,-1256.5 575.52,-1115.3 590.39,-1056.37"/>
<polygon fill="black" stroke="black" points="593.87,-1056.92 592.92,-1046.36 587.08,-1055.2 593.87,-1056.92"/>
<text text-anchor="middle" x="554.54" y="-1184.36" font-family="Times,serif" font-size="14.00">a</text>
</g>
<!-- http://w3id.org/oseg/ont/okhmetaPhysicalTag -->
<g id="node13" class="node">
<title>http://w3id.org/oseg/ont/okhmetaPhysicalTag</title>
<ellipse fill="none" stroke="#e377c2" cx="251.01" cy="-1347.69" rx="118.17" ry="16.03"/>
<text text-anchor="middle" x="251.01" y="-1343.99" font-family="Times,serif" font-size="14.00">okhmeta:PhysicalTag</text>
</g>
<!-- http://w3id.org/oseg/ont/okh#Mass&#45;&gt;http://w3id.org/oseg/ont/okhmetaPhysicalTag -->
<g id="edge7" class="edge">
<title>http://w3id.org/oseg/ont/okh#Mass&#45;&gt;http://w3id.org/oseg/ont/okhmetaPhysicalTag</title>
<path fill="none" stroke="black" d="M467.39,-1326.68C435.71,-1329.76 395.07,-1333.71 357.58,-1337.35"/>
<polygon fill="black" stroke="black" points="357.23,-1333.87 347.61,-1338.32 357.9,-1340.83 357.23,-1333.87"/>
<text text-anchor="middle" x="373.98" y="-1320.82" font-family="Times,serif" font-size="14.00">okhmeta:hasMetaTag</text>
</g>
<!-- http://w3id.org/oseg/ont/okhmetaTransportationTag -->
<g id="node38" class="node">
<title>http://w3id.org/oseg/ont/okhmetaTransportationTag</title>
<ellipse fill="none" stroke="#e377c2" cx="288.75" cy="-1471.4" rx="118.17" ry="16.03"/>
<text text-anchor="middle" x="288.75" y="-1467.7" font-family="Times,serif" font-size="14.00">okhmeta:Transport...</text>
</g>
<!-- http://w3id.org/oseg/ont/okh#Mass&#45;&gt;http://w3id.org/oseg/ont/okhmetaTransportationTag -->
<g id="edge37" class="edge">
<title>http://w3id.org/oseg/ont/okh#Mass&#45;&gt;http://w3id.org/oseg/ont/okhmetaTransportationTag</title>
<path fill="none" stroke="black" d="M499.72,-1336.46C457.69,-1363.34 370.23,-1419.28 322.17,-1450.02"/>
<polygon fill="black" stroke="black" points="320.21,-1447.12 313.67,-1455.46 323.98,-1453.02 320.21,-1447.12"/>
<text text-anchor="middle" x="333.95" y="-1397.04" font-family="Times,serif" font-size="14.00">okhmeta:hasMetaTag</text>
</g>
<!-- http://w3id.org/oseg/ont/okh#okhvPresent -->
<g id="node9" class="node">
<title>http://w3id.org/oseg/ont/okh#okhvPresent</title>
<ellipse fill="none" stroke="#e377c2" cx="889.24" cy="-1278.95" rx="96.33" ry="16.03"/>
<text text-anchor="middle" x="889.24" y="-1275.25" font-family="Times,serif" font-size="14.00">okh:okhvPresent</text>
</g>
<!-- http://w3id.org/oseg/ont/okh#okhv -->
<g id="node23" class="node">
<title>http://w3id.org/oseg/ont/okh#okhv</title>
<ellipse fill="none" stroke="#e377c2" cx="934.49" cy="-1237.56" rx="56.64" ry="16.03"/>
<text text-anchor="middle" x="934.49" y="-1233.86" font-family="Times,serif" font-size="14.00">okh:okhv</text>
</g>
<!-- http://w3id.org/oseg/ont/okh#okhvPresent&#45;&gt;http://w3id.org/oseg/ont/okh#okhv -->
<g id="edge33" class="edge">
<title>http://w3id.org/oseg/ont/okh#okhvPresent&#45;&gt;http://w3id.org/oseg/ont/okh#okhv</title>
<path fill="none" stroke="black" d="M906.87,-1262.83C907.84,-1261.93 908.83,-1261.03 909.83,-1260.12"/>
<polygon fill="black" stroke="black" points="912.42,-1262.49 917.43,-1253.16 907.69,-1257.33 912.42,-1262.49"/>
<text text-anchor="middle" x="855.35" y="-1250.27" font-family="Times,serif" font-size="14.00">subPropertyOf</text>
</g>
<!-- http://w3id.org/oseg/ont/okh#okhvOrig -->
<g id="node26" class="node">
<title>http://w3id.org/oseg/ont/okh#okhvOrig</title>
<ellipse fill="none" stroke="#e377c2" cx="855.85" cy="-1323.71" rx="79.39" ry="16.03"/>
<text text-anchor="middle" x="855.85" y="-1320.01" font-family="Times,serif" font-size="14.00">okh:okhvOrig</text>
</g>
<!-- http://w3id.org/oseg/ont/okh#okhvPresent&#45;&gt;http://w3id.org/oseg/ont/okh#okhvOrig -->
<g id="edge23" class="edge">
<title>http://w3id.org/oseg/ont/okh#okhvPresent&#45;&gt;http://w3id.org/oseg/ont/okh#okhvOrig</title>
<path fill="none" stroke="black" d="M877.19,-1295.11C876.16,-1296.49 875.11,-1297.9 874.05,-1299.32"/>
<polygon fill="black" stroke="black" points="871.17,-1297.32 868,-1307.43 876.79,-1301.5 871.17,-1297.32"/>
<text text-anchor="middle" x="848.12" y="-1301.02" font-family="Times,serif" font-size="14.00">seeAlso</text>
</g>
<!-- http://w3id.org/oseg/ont/okh#url -->
<g id="node10" class="node">
<title>http://w3id.org/oseg/ont/okh#url</title>
<ellipse fill="none" stroke="#e377c2" cx="326.78" cy="-16.06" rx="47.25" ry="16.03"/>
<text text-anchor="middle" x="326.78" y="-12.36" font-family="Times,serif" font-size="14.00">okh:url</text>
</g>
<!-- http://w3id.org/oseg/ont/okh#Dimensions -->
<g id="node11" class="node">
<title>http://w3id.org/oseg/ont/okh#Dimensions</title>
<ellipse fill="none" stroke="#e377c2" cx="888.09" cy="-1699.28" rx="91.85" ry="16.03"/>
<text text-anchor="middle" x="888.09" y="-1695.58" font-family="Times,serif" font-size="14.00">okh:Dimensions</text>
</g>
<!-- http://w3id.org/oseg/ont/okh#Module -->
<g id="node12" class="node">
<title>http://w3id.org/oseg/ont/okh#Module</title>
<ellipse fill="none" stroke="#e377c2" cx="275.91" cy="-773.79" rx="70.92" ry="16.03"/>
<text text-anchor="middle" x="275.91" y="-770.09" font-family="Times,serif" font-size="14.00">okh:Module</text>
</g>
<!-- http://w3id.org/oseg/ont/okh#installationGuide -->
<g id="node14" class="node">
<title>http://w3id.org/oseg/ont/okh#installationGuide</title>
<ellipse fill="none" stroke="#e377c2" cx="897.42" cy="-973.08" rx="106.55" ry="16.03"/>
<text text-anchor="middle" x="897.42" y="-969.38" font-family="Times,serif" font-size="14.00">okh:installationG...</text>
</g>
<!-- http://w3id.org/oseg/ont/okh#installationGuide&#45;&gt;http://www.w3.org/2004/02/skos/core#Concept -->
<g id="edge8" class="edge">
<title>http://w3id.org/oseg/ont/okh#installationGuide&#45;&gt;http://www.w3.org/2004/02/skos/core#Concept</title>
<path fill="none" stroke="black" d="M830.38,-985.79C781.21,-995.12 714.66,-1007.74 665.22,-1017.12"/>
<polygon fill="black" stroke="black" points="664.43,-1013.71 655.26,-1019.01 665.73,-1020.59 664.43,-1013.71"/>
<text text-anchor="middle" x="743.3" y="-1005.26" font-family="Times,serif" font-size="14.00">a</text>
</g>
<!-- http://w3id.org/oseg/ont/okh#Software -->
<g id="node36" class="node">
<title>http://w3id.org/oseg/ont/okh#Software</title>
<ellipse fill="none" stroke="#e377c2" cx="1148.51" cy="-873.22" rx="78.48" ry="16.03"/>
<text text-anchor="middle" x="1148.51" y="-869.52" font-family="Times,serif" font-size="14.00">okh:Software</text>
</g>
<!-- http://w3id.org/oseg/ont/okh#installationGuide&#45;&gt;http://w3id.org/oseg/ont/okh#Software -->
<g id="edge34" class="edge">
<title>http://w3id.org/oseg/ont/okh#installationGuide&#45;&gt;http://w3id.org/oseg/ont/okh#Software</title>
<path fill="none" stroke="black" d="M935.83,-957.8C980.68,-939.96 1054.82,-910.48 1102.65,-891.46"/>
<polygon fill="black" stroke="black" points="1104.15,-894.63 1112.14,-887.68 1101.56,-888.12 1104.15,-894.63"/>
<text text-anchor="middle" x="941.24" y="-928.43" font-family="Times,serif" font-size="14.00">dcam:domainIncludes</text>
</g>
<!-- http://w3id.org/oseg/ont/okh#width -->
<g id="node15" class="node">
<title>http://w3id.org/oseg/ont/okh#width</title>
<ellipse fill="none" stroke="#e377c2" cx="1357.12" cy="-1892.67" rx="61.54" ry="16.03"/>
<text text-anchor="middle" x="1357.12" y="-1888.97" font-family="Times,serif" font-size="14.00">okh:width</text>
</g>
<!-- http://w3id.org/oseg/ont/okh#tsdc -->
<g id="node16" class="node">
<title>http://w3id.org/oseg/ont/okh#tsdc</title>
<ellipse fill="none" stroke="#e377c2" cx="942.61" cy="-706.33" rx="54.39" ry="16.03"/>
<text text-anchor="middle" x="942.61" y="-702.63" font-family="Times,serif" font-size="14.00">okh:tsdc</text>
</g>
<!-- http://www.w3.org/2001/XMLSchema#string -->
<g id="node17" class="node">
<title>http://www.w3.org/2001/XMLSchema#string</title>
<ellipse fill="none" stroke="#e377c2" cx="1053.03" cy="-1942.85" rx="62.87" ry="16.03"/>
<text text-anchor="middle" x="1053.03" y="-1939.15" font-family="Times,serif" font-size="14.00">xsd:string</text>
</g>
<!-- http://schema.org/license -->
<g id="node18" class="node">
<title>http://schema.org/license</title>
<ellipse fill="none" stroke="#e377c2" cx="549.28" cy="-801.48" rx="88.28" ry="16.03"/>
<text text-anchor="middle" x="549.28" y="-797.78" font-family="Times,serif" font-size="14.00">schema:license</text>
</g>
<!-- http://schema.org/url -->
<g id="node19" class="node">
<title>http://schema.org/url</title>
<ellipse fill="none" stroke="#e377c2" cx="187.05" cy="-77.16" rx="67.35" ry="16.03"/>
<text text-anchor="middle" x="187.05" y="-73.46" font-family="Times,serif" font-size="14.00">schema:url</text>
</g>
<!-- http://w3id.org/oseg/ont/okh#unit -->
<g id="node20" class="node">
<title>http://w3id.org/oseg/ont/okh#unit</title>
<ellipse fill="none" stroke="#e377c2" cx="681.01" cy="-1505.13" rx="53.07" ry="16.03"/>
<text text-anchor="middle" x="681.01" y="-1501.43" font-family="Times,serif" font-size="14.00">okh:unit</text>
</g>
<!-- http://w3id.org/oseg/ont/okh#unit&#45;&gt;http://w3id.org/oseg/ont/okh#Mass -->
<g id="edge39" class="edge">
<title>http://w3id.org/oseg/ont/okh#unit&#45;&gt;http://w3id.org/oseg/ont/okh#Mass</title>
<path fill="none" stroke="black" d="M667.31,-1489.13C639.62,-1456.8 576.86,-1383.51 544.18,-1345.35"/>
<polygon fill="black" stroke="black" points="546.47,-1342.64 537.31,-1337.33 541.15,-1347.2 546.47,-1342.64"/>
<text text-anchor="middle" x="527.74" y="-1406.04" font-family="Times,serif" font-size="14.00">dcam:domainIncludes</text>
</g>
<!-- http://w3id.org/oseg/ont/okh#unit&#45;&gt;http://w3id.org/oseg/ont/okh#Dimensions -->
<g id="edge5" class="edge">
<title>http://w3id.org/oseg/ont/okh#unit&#45;&gt;http://w3id.org/oseg/ont/okh#Dimensions</title>
<path fill="none" stroke="black" d="M697.61,-1520.69C733.93,-1554.74 820.62,-1636.03 863.38,-1676.11"/>
<polygon fill="black" stroke="black" points="861.14,-1678.81 870.83,-1683.1 865.93,-1673.71 861.14,-1678.81"/>
<text text-anchor="middle" x="702.49" y="-1602.2" font-family="Times,serif" font-size="14.00">dcam:domainIncludes</text>
</g>
<!-- http://w3id.org/oseg/ont/okh#spdxLicense -->
<g id="node21" class="node">
<title>http://w3id.org/oseg/ont/okh#spdxLicense</title>
<ellipse fill="none" stroke="#e377c2" cx="432.94" cy="-855.97" rx="94.51" ry="16.03"/>
<text text-anchor="middle" x="432.94" y="-852.27" font-family="Times,serif" font-size="14.00">okh:spdxLicense</text>
</g>
<!-- http://w3id.org/oseg/ont/okh#spdxLicense&#45;&gt;http://www.w3.org/2004/02/skos/core#Concept -->
<g id="edge17" class="edge">
<title>http://w3id.org/oseg/ont/okh#spdxLicense&#45;&gt;http://www.w3.org/2004/02/skos/core#Concept</title>
<path fill="none" stroke="black" d="M448.08,-872.03C477.15,-902.87 540.86,-970.46 574.78,-1006.44"/>
<polygon fill="black" stroke="black" points="572.53,-1009.15 581.93,-1014.03 577.62,-1004.35 572.53,-1009.15"/>
<text text-anchor="middle" x="506.93" y="-943.04" font-family="Times,serif" font-size="14.00">a</text>
</g>
<!-- http://w3id.org/oseg/ont/okh#spdxLicense&#45;&gt;http://w3id.org/oseg/ont/okh#Module -->
<g id="edge6" class="edge">
<title>http://w3id.org/oseg/ont/okh#spdxLicense&#45;&gt;http://w3id.org/oseg/ont/okh#Module</title>
<path fill="none" stroke="black" d="M403.4,-840.51C377.94,-827.19 341.04,-807.87 313.48,-793.45"/>
<polygon fill="black" stroke="black" points="315.01,-790.3 304.52,-788.76 311.76,-796.5 315.01,-790.3"/>
<text text-anchor="middle" x="280.44" y="-805.78" font-family="Times,serif" font-size="14.00">dcam:domainIncludes</text>
</g>
<!-- http://w3id.org/oseg/ont/okh#spdxLicense&#45;&gt;http://schema.org/license -->
<g id="edge13" class="edge">
<title>http://w3id.org/oseg/ont/okh#spdxLicense&#45;&gt;http://schema.org/license</title>
<path fill="none" stroke="black" d="M465.66,-840.64C478.65,-834.56 493.76,-827.48 507.53,-821.03"/>
<polygon fill="black" stroke="black" points="509.23,-824.1 516.81,-816.69 506.27,-817.76 509.23,-824.1"/>
<text text-anchor="middle" x="427.59" y="-819.64" font-family="Times,serif" font-size="14.00">skos:closeMatch</text>
</g>
<!-- http://w3id.org/oseg/ont/okhmetaLegalTag -->
<g id="node29" class="node">
<title>http://w3id.org/oseg/ont/okhmetaLegalTag</title>
<ellipse fill="none" stroke="#e377c2" cx="261.16" cy="-899.54" rx="103.89" ry="16.03"/>
<text text-anchor="middle" x="261.16" y="-895.84" font-family="Times,serif" font-size="14.00">okhmeta:LegalTag</text>
</g>
<!-- http://w3id.org/oseg/ont/okh#spdxLicense&#45;&gt;http://w3id.org/oseg/ont/okhmetaLegalTag -->
<g id="edge24" class="edge">
<title>http://w3id.org/oseg/ont/okh#spdxLicense&#45;&gt;http://w3id.org/oseg/ont/okhmetaLegalTag</title>
<path fill="none" stroke="black" d="M379.53,-869.51C362.49,-873.84 343.46,-878.66 325.72,-883.16"/>
<polygon fill="black" stroke="black" points="324.85,-879.77 316.02,-885.62 326.57,-886.56 324.85,-879.77"/>
<text text-anchor="middle" x="429.63" y="-880.14" font-family="Times,serif" font-size="14.00">okhmeta:hasMetaTag</text>
</g>
<!-- http://w3id.org/oseg/ont/okh#license -->
<g id="node37" class="node">
<title>http://w3id.org/oseg/ont/okh#license</title>
<ellipse fill="none" stroke="#e377c2" cx="716.73" cy="-833.61" rx="67.76" ry="16.03"/>
<text text-anchor="middle" x="716.73" y="-829.91" font-family="Times,serif" font-size="14.00">okh:license</text>
</g>
<!-- http://w3id.org/oseg/ont/okh#spdxLicense&#45;&gt;http://w3id.org/oseg/ont/okh#license -->
<g id="edge36" class="edge">
<title>http://w3id.org/oseg/ont/okh#spdxLicense&#45;&gt;http://w3id.org/oseg/ont/okh#license</title>
<path fill="none" stroke="black" d="M519.24,-849.17C558.3,-846.09 604.02,-842.49 641.64,-839.53"/>
<polygon fill="black" stroke="black" points="642.33,-842.98 652.02,-838.71 641.78,-836.01 642.33,-842.98"/>
<text text-anchor="middle" x="540.44" y="-833.15" font-family="Times,serif" font-size="14.00">schema:supersededBy</text>
</g>
<!-- http://spdx.org/rdf/terms#ListedLicense -->
<g id="node40" class="node">
<title>http://spdx.org/rdf/terms#ListedLicense</title>
<ellipse fill="none" stroke="#e377c2" cx="108.02" cy="-839.44" rx="108.38" ry="16.03"/>
<text text-anchor="middle" x="108.02" y="-835.74" font-family="Times,serif" font-size="14.00">spdx:ListedLicense</text>
</g>
<!-- http://w3id.org/oseg/ont/okh#spdxLicense&#45;&gt;http://spdx.org/rdf/terms#ListedLicense -->
<g id="edge40" class="edge">
<title>http://w3id.org/oseg/ont/okh#spdxLicense&#45;&gt;http://spdx.org/rdf/terms#ListedLicense</title>
<path fill="none" stroke="black" d="M342,-851.34C304.44,-849.43 260.5,-847.2 220.91,-845.18"/>
<polygon fill="black" stroke="black" points="220.84,-841.68 210.67,-844.66 220.48,-848.67 220.84,-841.68"/>
<text text-anchor="middle" x="281.45" y="-837.06" font-family="Times,serif" font-size="14.00">dcam:rangeIncludes</text>
</g>
<!-- http://w3id.org/oseg/ont/okh#okhvStored -->
<g id="node22" class="node">
<title>http://w3id.org/oseg/ont/okh#okhvStored</title>
<ellipse fill="none" stroke="#e377c2" cx="1310" cy="-1256.39" rx="90.52" ry="16.03"/>
<text text-anchor="middle" x="1310" y="-1252.69" font-family="Times,serif" font-size="14.00">okh:okhvStored</text>
</g>
<!-- http://w3id.org/oseg/ont/okh#height -->
<g id="node24" class="node">
<title>http://w3id.org/oseg/ont/okh#height</title>
<ellipse fill="none" stroke="#e377c2" cx="1059.14" cy="-2121.96" rx="65.11" ry="16.03"/>
<text text-anchor="middle" x="1059.14" y="-2118.26" font-family="Times,serif" font-size="14.00">okh:height</text>
</g>
<!-- http://w3id.org/oseg/ont/okh#alternativeLicense -->
<g id="node25" class="node">
<title>http://w3id.org/oseg/ont/okh#alternativeLicense</title>
<ellipse fill="none" stroke="#e377c2" cx="518.83" cy="-743.36" rx="107.46" ry="16.03"/>
<text text-anchor="middle" x="518.83" y="-739.66" font-family="Times,serif" font-size="14.00">okh:alternativeLi...</text>
</g>
<!-- http://w3id.org/oseg/ont/okh#alternativeLicense&#45;&gt;http://www.w3.org/2004/02/skos/core#Concept -->
<g id="edge22" class="edge">
<title>http://w3id.org/oseg/ont/okh#alternativeLicense&#45;&gt;http://www.w3.org/2004/02/skos/core#Concept</title>
<path fill="none" stroke="black" d="M523.37,-760.01C536.42,-807.83 574.06,-945.81 589.89,-1003.85"/>
<polygon fill="black" stroke="black" points="586.57,-1004.99 592.58,-1013.71 593.33,-1003.14 586.57,-1004.99"/>
<text text-anchor="middle" x="552.13" y="-885.73" font-family="Times,serif" font-size="14.00">a</text>
</g>
<!-- http://w3id.org/oseg/ont/okh#alternativeLicense&#45;&gt;http://w3id.org/oseg/ont/okh#File -->
<g id="edge26" class="edge">
<title>http://w3id.org/oseg/ont/okh#alternativeLicense&#45;&gt;http://w3id.org/oseg/ont/okh#File</title>
<path fill="none" stroke="black" d="M517.38,-727.02C512.87,-676.27 499.07,-521.01 493.49,-458.16"/>
<polygon fill="black" stroke="black" points="496.95,-457.53 492.58,-447.88 489.97,-458.15 496.95,-457.53"/>
<text text-anchor="middle" x="432.93" y="-596.39" font-family="Times,serif" font-size="14.00">dcam:rangeIncludes</text>
</g>
<!-- http://w3id.org/oseg/ont/okh#alternativeLicense&#45;&gt;http://w3id.org/oseg/ont/okh#Module -->
<g id="edge19" class="edge">
<title>http://w3id.org/oseg/ont/okh#alternativeLicense&#45;&gt;http://w3id.org/oseg/ont/okh#Module</title>
<path fill="none" stroke="black" d="M435.91,-753.75C407.39,-757.32 375.71,-761.29 348.11,-764.75"/>
<polygon fill="black" stroke="black" points="347.63,-761.28 338.14,-766 348.5,-768.23 347.63,-761.28"/>
<text text-anchor="middle" x="470.01" y="-763.05" font-family="Times,serif" font-size="14.00">dcam:domainIncludes</text>
</g>
<!-- http://w3id.org/oseg/ont/okh#alternativeLicense&#45;&gt;http://schema.org/license -->
<g id="edge14" class="edge">
<title>http://w3id.org/oseg/ont/okh#alternativeLicense&#45;&gt;http://schema.org/license</title>
<path fill="none" stroke="black" d="M527.47,-759.86C530.13,-764.93 533.12,-770.64 536.01,-776.16"/>
<polygon fill="black" stroke="black" points="532.98,-777.9 540.72,-785.14 539.18,-774.66 532.98,-777.9"/>
<text text-anchor="middle" x="590.74" y="-771.81" font-family="Times,serif" font-size="14.00">skos:closeMatch</text>
</g>
<!-- http://w3id.org/oseg/ont/okh#alternativeLicense&#45;&gt;http://w3id.org/oseg/ont/okhmetaLegalTag -->
<g id="edge25" class="edge">
<title>http://w3id.org/oseg/ont/okh#alternativeLicense&#45;&gt;http://w3id.org/oseg/ont/okhmetaLegalTag</title>
<path fill="none" stroke="black" d="M492.71,-759.19C446.02,-787.49 348.28,-846.74 295.96,-878.44"/>
<polygon fill="black" stroke="black" points="294.09,-875.48 287.36,-883.66 297.72,-881.47 294.09,-875.48"/>
<text text-anchor="middle" x="317.33" y="-822.62" font-family="Times,serif" font-size="14.00">okhmeta:hasMetaTag</text>
</g>
<!-- http://w3id.org/oseg/ont/okh#alternativeLicense&#45;&gt;http://w3id.org/oseg/ont/okh#license -->
<g id="edge38" class="edge">
<title>http://w3id.org/oseg/ont/okh#alternativeLicense&#45;&gt;http://w3id.org/oseg/ont/okh#license</title>
<path fill="none" stroke="black" d="M552.85,-758.87C586.94,-774.42 639.43,-798.36 675.78,-814.93"/>
<polygon fill="black" stroke="black" points="674.57,-818.23 685.12,-819.19 677.47,-811.86 674.57,-818.23"/>
<text text-anchor="middle" x="694.32" y="-790.7" font-family="Times,serif" font-size="14.00">schema:supersededBy</text>
</g>
<!-- http://w3id.org/oseg/ont/okh#relatedTsdc -->
<g id="node27" class="node">
<title>http://w3id.org/oseg/ont/okh#relatedTsdc</title>
<ellipse fill="none" stroke="#e377c2" cx="1101.66" cy="-682.56" rx="91.85" ry="16.03"/>
<text text-anchor="middle" x="1101.66" y="-678.86" font-family="Times,serif" font-size="14.00">okh:relatedTsdc</text>
</g>
<!-- http://w3id.org/oseg/ont/okh#relatedTsdc&#45;&gt;http://w3id.org/oseg/ont/okh#tsdc -->
<g id="edge11" class="edge">
<title>http://w3id.org/oseg/ont/okh#relatedTsdc&#45;&gt;http://w3id.org/oseg/ont/okh#tsdc</title>
<path fill="none" stroke="black" d="M1016.02,-688.55C1007.36,-689.88 998.81,-691.31 990.76,-692.77"/>
<polygon fill="black" stroke="black" points="990.05,-689.34 980.87,-694.64 991.35,-696.22 990.05,-689.34"/>
<text text-anchor="middle" x="960.89" y="-679.46" font-family="Times,serif" font-size="14.00">owl:sameAs</text>
</g>
<!-- http://w3id.org/oseg/ont/okh#relatedTsdc&#45;&gt;http://w3id.org/oseg/ont/okh#tsdc -->
<g id="edge42" class="edge">
<title>http://w3id.org/oseg/ont/okh#relatedTsdc&#45;&gt;http://w3id.org/oseg/ont/okh#tsdc</title>
<path fill="none" stroke="black" d="M1052.27,-696.34C1037.99,-698.91 1022.19,-701.37 1007.13,-703.39"/>
<polygon fill="black" stroke="black" points="1006.32,-699.96 996.85,-704.71 1007.21,-706.91 1006.32,-699.96"/>
<text text-anchor="middle" x="1109.7" y="-703.66" font-family="Times,serif" font-size="14.00">schema:supersededBy</text>
</g>
<!-- http://w3id.org/oseg/ont/okh#fileUrl -->
<g id="node28" class="node">
<title>http://w3id.org/oseg/ont/okh#fileUrl</title>
<ellipse fill="none" stroke="#e377c2" cx="358.98" cy="-206.83" rx="65.11" ry="16.03"/>
<text text-anchor="middle" x="358.98" y="-203.13" font-family="Times,serif" font-size="14.00">okh:fileUrl</text>
</g>
<!-- http://w3id.org/oseg/ont/okh#fileUrl&#45;&gt;http://w3id.org/oseg/ont/okh#File -->
<g id="edge28" class="edge">
<title>http://w3id.org/oseg/ont/okh#fileUrl&#45;&gt;http://w3id.org/oseg/ont/okh#File</title>
<path fill="none" stroke="black" d="M368.48,-222.98C391.29,-261.73 449.25,-360.21 476.51,-406.53"/>
<polygon fill="black" stroke="black" points="473.6,-408.48 481.69,-415.33 479.63,-404.93 473.6,-408.48"/>
<text text-anchor="middle" x="344.5" y="-318.56" font-family="Times,serif" font-size="14.00">dcam:domainIncludes</text>
</g>
<!-- http://w3id.org/oseg/ont/okh#fileUrl&#45;&gt;http://w3id.org/oseg/ont/okh#url -->
<g id="edge4" class="edge">
<title>http://w3id.org/oseg/ont/okh#fileUrl&#45;&gt;http://w3id.org/oseg/ont/okh#url</title>
<path fill="none" stroke="black" d="M356.23,-190.57C350.68,-157.63 338.04,-82.79 331.27,-42.66"/>
<polygon fill="black" stroke="black" points="334.68,-41.83 329.56,-32.55 327.78,-43 334.68,-41.83"/>
<text text-anchor="middle" x="263.75" y="-120.41" font-family="Times,serif" font-size="14.00">schema:supersededBy</text>
</g>
<!-- http://w3id.org/oseg/ont/okh#fileUrl&#45;&gt;http://schema.org/url -->
<g id="edge15" class="edge">
<title>http://w3id.org/oseg/ont/okh#fileUrl&#45;&gt;http://schema.org/url</title>
<path fill="none" stroke="black" d="M338.24,-191.19C307.69,-168.15 250.49,-125.01 215.88,-98.91"/>
<polygon fill="black" stroke="black" points="217.69,-95.89 207.59,-92.66 213.47,-101.47 217.69,-95.89"/>
<text text-anchor="middle" x="224.06" y="-148.85" font-family="Times,serif" font-size="14.00">subPropertyOf</text>
</g>
<!-- http://w3id.org/oseg/ont/okh#permaURL -->
<g id="node30" class="node">
<title>http://w3id.org/oseg/ont/okh#permaURL</title>
<ellipse fill="none" stroke="#e377c2" cx="549.87" cy="-199.75" rx="87.86" ry="16.03"/>
<text text-anchor="middle" x="549.87" y="-196.05" font-family="Times,serif" font-size="14.00">okh:permaURL</text>
</g>
<!-- http://w3id.org/oseg/ont/okh#permaURL&#45;&gt;http://w3id.org/oseg/ont/okh#File -->
<g id="edge31" class="edge">
<title>http://w3id.org/oseg/ont/okh#permaURL&#45;&gt;http://w3id.org/oseg/ont/okh#File</title>
<path fill="none" stroke="black" d="M545.74,-216.03C535.71,-255.56 510,-356.88 497.76,-405.08"/>
<polygon fill="black" stroke="black" points="494.3,-404.51 495.23,-415.06 501.09,-406.23 494.3,-404.51"/>
<text text-anchor="middle" x="443.75" y="-299.36" font-family="Times,serif" font-size="14.00">dcam:domainIncludes</text>
</g>
<!-- http://w3id.org/oseg/ont/okh#value -->
<g id="node31" class="node">
<title>http://w3id.org/oseg/ont/okh#value</title>
<ellipse fill="none" stroke="#e377c2" cx="411.37" cy="-1529.14" rx="60.21" ry="16.03"/>
<text text-anchor="middle" x="411.37" y="-1525.44" font-family="Times,serif" font-size="14.00">okh:value</text>
</g>
<!-- http://w3id.org/oseg/ont/okh#value&#45;&gt;http://w3id.org/oseg/ont/okh#Mass -->
<g id="edge10" class="edge">
<title>http://w3id.org/oseg/ont/okh#value&#45;&gt;http://w3id.org/oseg/ont/okh#Mass</title>
<path fill="none" stroke="black" d="M420.17,-1512.83C439.66,-1476.69 486.58,-1389.71 509.9,-1346.49"/>
<polygon fill="black" stroke="black" points="513.1,-1347.93 514.77,-1337.47 506.94,-1344.61 513.1,-1347.93"/>
<text text-anchor="middle" x="387.03" y="-1433.46" font-family="Times,serif" font-size="14.00">dcam:domainIncludes</text>
</g>
<!-- http://w3id.org/oseg/ont/okh#hasMass -->
<g id="node32" class="node">
<title>http://w3id.org/oseg/ont/okh#hasMass</title>
<ellipse fill="none" stroke="#e377c2" cx="286.87" cy="-1711.32" rx="77.15" ry="16.03"/>
<text text-anchor="middle" x="286.87" y="-1707.62" font-family="Times,serif" font-size="14.00">okh:hasMass</text>
</g>
<!-- http://w3id.org/oseg/ont/okh#value&#45;&gt;http://w3id.org/oseg/ont/okh#hasMass -->
<g id="edge29" class="edge">
<title>http://w3id.org/oseg/ont/okh#value&#45;&gt;http://w3id.org/oseg/ont/okh#hasMass</title>
<path fill="none" stroke="black" d="M400.32,-1545.31C378.45,-1577.31 329.52,-1648.91 303.65,-1686.77"/>
<polygon fill="black" stroke="black" points="300.65,-1684.96 297.9,-1695.19 306.43,-1688.91 300.65,-1684.96"/>
<text text-anchor="middle" x="271.98" y="-1619.84" font-family="Times,serif" font-size="14.00">schema:supersededBy</text>
</g>
<!-- http://w3id.org/oseg/ont/okh#depth -->
<g id="node33" class="node">
<title>http://w3id.org/oseg/ont/okh#depth</title>
<ellipse fill="none" stroke="#e377c2" cx="1315.75" cy="-2034.94" rx="62.45" ry="16.03"/>
<text text-anchor="middle" x="1315.75" y="-2031.24" font-family="Times,serif" font-size="14.00">okh:depth</text>
</g>
<!-- http://w3id.org/oseg/ont/okh#openSCAD -->
<g id="node34" class="node">
<title>http://w3id.org/oseg/ont/okh#openSCAD</title>
<ellipse fill="none" stroke="#e377c2" cx="1124.84" cy="-1898.56" rx="86.03" ry="16.03"/>
<text text-anchor="middle" x="1124.84" y="-1894.86" font-family="Times,serif" font-size="14.00">okh:openSCAD</text>
</g>
<!-- http://w3id.org/oseg/ont/okh#openSCAD&#45;&gt;http://w3id.org/oseg/ont/okh#Dimensions -->
<g id="edge32" class="edge">
<title>http://w3id.org/oseg/ont/okh#openSCAD&#45;&gt;http://w3id.org/oseg/ont/okh#Dimensions</title>
<path fill="none" stroke="black" d="M1105.86,-1882.59C1063.96,-1847.32 963.4,-1762.67 915.01,-1721.94"/>
<polygon fill="black" stroke="black" points="917.06,-1719.09 907.15,-1715.33 912.55,-1724.44 917.06,-1719.09"/>
<text text-anchor="middle" x="932.44" y="-1806.06" font-family="Times,serif" font-size="14.00">dcam:domainIncludes</text>
</g>
<!-- http://w3id.org/oseg/ont/okh#openSCAD&#45;&gt;http://w3id.org/oseg/ont/okh#width -->
<g id="edge9" class="edge">
<title>http://w3id.org/oseg/ont/okh#openSCAD&#45;&gt;http://w3id.org/oseg/ont/okh#width</title>
<path fill="none" stroke="black" d="M1210.34,-1896.39C1235.13,-1895.76 1261.92,-1895.08 1285.75,-1894.48"/>
<polygon fill="black" stroke="black" points="1285.85,-1897.98 1295.76,-1894.22 1285.67,-1890.98 1285.85,-1897.98"/>
<text text-anchor="middle" x="1208.04" y="-1884.24" font-family="Times,serif" font-size="14.00">schema:supersededBy</text>
</g>
<!-- http://w3id.org/oseg/ont/okh#openSCAD&#45;&gt;http://www.w3.org/2001/XMLSchema#string -->
<g id="edge12" class="edge">
<title>http://w3id.org/oseg/ont/okh#openSCAD&#45;&gt;http://www.w3.org/2001/XMLSchema#string</title>
<path fill="none" stroke="black" d="M1099.32,-1914.3C1095.11,-1916.9 1090.69,-1919.62 1086.32,-1922.32"/>
<polygon fill="black" stroke="black" points="1084.18,-1919.52 1077.5,-1927.75 1087.85,-1925.48 1084.18,-1919.52"/>
<text text-anchor="middle" x="1165.32" y="-1922.11" font-family="Times,serif" font-size="14.00">dcam:rangeIncludes</text>
</g>
<!-- http://w3id.org/oseg/ont/okh#openSCAD&#45;&gt;http://w3id.org/oseg/ont/okh#height -->
<g id="edge21" class="edge">
<title>http://w3id.org/oseg/ont/okh#openSCAD&#45;&gt;http://w3id.org/oseg/ont/okh#height</title>
<path fill="none" stroke="black" d="M1120.01,-1914.99C1108.71,-1953.4 1080.5,-2049.33 1066.82,-2095.85"/>
<polygon fill="black" stroke="black" points="1063.44,-2094.93 1063.98,-2105.51 1070.16,-2096.9 1063.44,-2094.93"/>
<text text-anchor="middle" x="1013.41" y="-2009.22" font-family="Times,serif" font-size="14.00">schema:supersededBy</text>
</g>
<!-- http://w3id.org/oseg/ont/okh#openSCAD&#45;&gt;http://w3id.org/oseg/ont/okh#depth -->
<g id="edge30" class="edge">
<title>http://w3id.org/oseg/ont/okh#openSCAD&#45;&gt;http://w3id.org/oseg/ont/okh#depth</title>
<path fill="none" stroke="black" d="M1147.11,-1914.47C1181.5,-1939.03 1247.54,-1986.21 1285.98,-2013.68"/>
<polygon fill="black" stroke="black" points="1284.03,-2016.59 1294.21,-2019.55 1288.1,-2010.89 1284.03,-2016.59"/>
<text text-anchor="middle" x="1136.55" y="-1967.87" font-family="Times,serif" font-size="14.00">schema:supersededBy</text>
</g>
<!-- http://w3id.org/oseg/ont/okh#okhvOriginal -->
<g id="node35" class="node">
<title>http://w3id.org/oseg/ont/okh#okhvOriginal</title>
<ellipse fill="none" stroke="#e377c2" cx="1101.86" cy="-1277.84" rx="97.66" ry="16.03"/>
<text text-anchor="middle" x="1101.86" y="-1274.14" font-family="Times,serif" font-size="14.00">okh:okhvOriginal</text>
</g>
<!-- http://w3id.org/oseg/ont/okh#okhvOriginal&#45;&gt;http://w3id.org/oseg/ont/okh#okhvStored -->
<g id="edge18" class="edge">
<title>http://w3id.org/oseg/ont/okh#okhvOriginal&#45;&gt;http://w3id.org/oseg/ont/okh#okhvStored</title>
<path fill="none" stroke="black" d="M1185.02,-1269.27C1196.96,-1268.04 1209.29,-1266.77 1221.33,-1265.53"/>
<polygon fill="black" stroke="black" points="1221.78,-1269 1231.37,-1264.5 1221.06,-1262.04 1221.78,-1269"/>
<text text-anchor="middle" x="1230.68" y="-1271.2" font-family="Times,serif" font-size="14.00">seeAlso</text>
</g>
<!-- http://w3id.org/oseg/ont/okh#okhvOriginal&#45;&gt;http://w3id.org/oseg/ont/okh#okhv -->
<g id="edge20" class="edge">
<title>http://w3id.org/oseg/ont/okh#okhvOriginal&#45;&gt;http://w3id.org/oseg/ont/okh#okhv</title>
<path fill="none" stroke="black" d="M1046.13,-1264.43C1027.35,-1259.91 1006.44,-1254.88 987.85,-1250.4"/>
<polygon fill="black" stroke="black" points="988.61,-1246.98 978.07,-1248.05 986.98,-1253.79 988.61,-1246.98"/>
<text text-anchor="middle" x="1069.99" y="-1246.21" font-family="Times,serif" font-size="14.00">subPropertyOf</text>
</g>
<!-- http://w3id.org/oseg/ont/okh#openScad -->
<g id="node39" class="node">
<title>http://w3id.org/oseg/ont/okh#openScad</title>
<ellipse fill="none" stroke="#e377c2" cx="1217.17" cy="-2139.06" rx="82.05" ry="16.03"/>
<text text-anchor="middle" x="1217.17" y="-2135.36" font-family="Times,serif" font-size="14.00">okh:openScad</text>
</g>
<!-- http://w3id.org/oseg/ont/okh#openScad&#45;&gt;http://w3id.org/oseg/ont/okh#openSCAD -->
<g id="edge35" class="edge">
<title>http://w3id.org/oseg/ont/okh#openScad&#45;&gt;http://w3id.org/oseg/ont/okh#openSCAD</title>
<path fill="none" stroke="black" d="M1214.65,-2122.77C1203.13,-2081.61 1161.93,-1973.4 1139.33,-1923.9"/>
<polygon fill="black" stroke="black" points="1142.49,-1922.38 1135.07,-1914.82 1136.15,-1925.36 1142.49,-1922.38"/>
<text text-anchor="middle" x="1096.99" y="-2027.13" font-family="Times,serif" font-size="14.00">schema:supersededBy</text>
</g>
<!-- http://w3id.org/oseg/ont/okh#openScad&#45;&gt;http://w3id.org/oseg/ont/okh#openSCAD -->
<g id="edge43" class="edge">
<title>http://w3id.org/oseg/ont/okh#openScad&#45;&gt;http://w3id.org/oseg/ont/okh#openSCAD</title>
<path fill="none" stroke="black" d="M1206.89,-2122.72C1187.07,-2081.75 1145.72,-1974.58 1130.28,-1924.73"/>
<polygon fill="black" stroke="black" points="1133.6,-1923.59 1127.4,-1915 1126.89,-1925.59 1133.6,-1923.59"/>
<text text-anchor="middle" x="1211.09" y="-2012.52" font-family="Times,serif" font-size="14.00">owl:sameAs</text>
</g>
</g>
</svg>
