<?xml version="1.0" encoding="UTF-8" standalone="no"?>
<!DOCTYPE svg PUBLIC "-//W3C//DTD SVG 1.1//EN"
 "http://www.w3.org/Graphics/SVG/1.1/DTD/svg11.dtd">
<!-- Generated by graphviz version 2.43.0 (0)
 -->
<!-- Title: G Pages: 1 -->
<svg width="2070pt" height="1895pt"
 viewBox="0.00 0.00 2070.00 1895.00" xmlns="http://www.w3.org/2000/svg" xmlns:xlink="http://www.w3.org/1999/xlink">
<g id="graph0" class="graph" transform="scale(1 1) rotate(0) translate(4 1891)">
<title>G</title>
<polygon fill="white" stroke="transparent" points="-4,4 -4,-1891 2066,-1891 2066,4 -4,4"/>
<!-- https://w3id.org/oseg/ont/otrl#OTRL6 -->
<g id="node1" class="node">
<title>https://w3id.org/oseg/ont/otrl#OTRL6</title>
<ellipse fill="none" stroke="#e377c2" cx="1475.8" cy="-1214.03" rx="67.35" ry="16.03"/>
<text text-anchor="middle" x="1475.8" y="-1210.33" font-family="Times,serif" font-size="14.00">otrl:OTRL6</text>
</g>
<!-- https://w3id.org/oseg/ont/otrl#OTRL -->
<g id="node2" class="node">
<title>https://w3id.org/oseg/ont/otrl#OTRL</title>
<ellipse fill="none" stroke="#e377c2" cx="1221.46" cy="-1219.02" rx="60.62" ry="16.03"/>
<text text-anchor="middle" x="1221.46" y="-1215.32" font-family="Times,serif" font-size="14.00">otrl:OTRL</text>
</g>
<!-- https://w3id.org/oseg/ont/otrl#OTRL6&#45;&gt;https://w3id.org/oseg/ont/otrl#OTRL -->
<g id="edge52" class="edge">
<title>https://w3id.org/oseg/ont/otrl#OTRL6&#45;&gt;https://w3id.org/oseg/ont/otrl#OTRL</title>
<path fill="none" stroke="black" d="M1408.64,-1215.35C1372.86,-1216.05 1328.85,-1216.91 1292.49,-1217.63"/>
<polygon fill="black" stroke="black" points="1292.39,-1214.13 1282.46,-1217.83 1292.52,-1221.13 1292.39,-1214.13"/>
</g>
<!-- https://w3id.org/oseg/ont/otrl#ODRL -->
<g id="node3" class="node">
<title>https://w3id.org/oseg/ont/otrl#ODRL</title>
<ellipse fill="none" stroke="#e377c2" cx="810.05" cy="-788.11" rx="62.87" ry="16.03"/>
<text text-anchor="middle" x="810.05" y="-784.41" font-family="Times,serif" font-size="14.00">otrl:ODRL</text>
</g>
<!-- https://w3id.org/oseg/ont/otrl#ODRL3Star -->
<g id="node4" class="node">
<title>https://w3id.org/oseg/ont/otrl#ODRL3Star</title>
<ellipse fill="none" stroke="#e377c2" cx="1011.53" cy="-561.05" rx="90.52" ry="16.03"/>
<text text-anchor="middle" x="1011.53" y="-557.35" font-family="Times,serif" font-size="14.00">otrl:ODRL3Star</text>
</g>
<!-- https://w3id.org/oseg/ont/otrl#ODRL3Star&#45;&gt;https://w3id.org/oseg/ont/otrl#ODRL -->
<g id="edge32" class="edge">
<title>https://w3id.org/oseg/ont/otrl#ODRL3Star&#45;&gt;https://w3id.org/oseg/ont/otrl#ODRL</title>
<path fill="none" stroke="black" d="M997.04,-577.38C961.89,-617 871.96,-718.34 830.97,-764.53"/>
<polygon fill="black" stroke="black" points="828.16,-762.43 824.14,-772.23 833.4,-767.07 828.16,-762.43"/>
</g>
<!-- https://w3id.org/oseg/ont/otrl#OTRL4 -->
<g id="node5" class="node">
<title>https://w3id.org/oseg/ont/otrl#OTRL4</title>
<ellipse fill="none" stroke="#e377c2" cx="1361.66" cy="-1411.55" rx="67.35" ry="16.03"/>
<text text-anchor="middle" x="1361.66" y="-1407.85" font-family="Times,serif" font-size="14.00">otrl:OTRL4</text>
</g>
<!-- https://w3id.org/oseg/ont/otrl#OTRL4&#45;&gt;https://w3id.org/oseg/ont/otrl#OTRL -->
<g id="edge30" class="edge">
<title>https://w3id.org/oseg/ont/otrl#OTRL4&#45;&gt;https://w3id.org/oseg/ont/otrl#OTRL</title>
<path fill="none" stroke="black" d="M1349.95,-1395.47C1325.36,-1361.71 1268.25,-1283.27 1239.16,-1243.34"/>
<polygon fill="black" stroke="black" points="1241.95,-1241.22 1233.24,-1235.2 1236.29,-1245.34 1241.95,-1241.22"/>
</g>
<!-- https://w3id.org/oseg/ont/otrl#OTRL3 -->
<g id="node6" class="node">
<title>https://w3id.org/oseg/ont/otrl#OTRL3</title>
<ellipse fill="none" stroke="#e377c2" cx="1159.67" cy="-1483.63" rx="67.35" ry="16.03"/>
<text text-anchor="middle" x="1159.67" y="-1479.93" font-family="Times,serif" font-size="14.00">otrl:OTRL3</text>
</g>
<!-- https://w3id.org/oseg/ont/otrl#OTRL3&#45;&gt;https://w3id.org/oseg/ont/otrl#OTRL -->
<g id="edge42" class="edge">
<title>https://w3id.org/oseg/ont/otrl#OTRL3&#45;&gt;https://w3id.org/oseg/ont/otrl#OTRL</title>
<path fill="none" stroke="black" d="M1163.54,-1467.07C1173.94,-1422.53 1202.6,-1299.79 1215.28,-1245.48"/>
<polygon fill="black" stroke="black" points="1218.73,-1246.1 1217.6,-1235.57 1211.91,-1244.51 1218.73,-1246.1"/>
</g>
<!-- https://w3id.org/oseg/ont/otrl#OTRL1 -->
<g id="node7" class="node">
<title>https://w3id.org/oseg/ont/otrl#OTRL1</title>
<ellipse fill="none" stroke="#e377c2" cx="1064.92" cy="-1350.95" rx="67.35" ry="16.03"/>
<text text-anchor="middle" x="1064.92" y="-1347.25" font-family="Times,serif" font-size="14.00">otrl:OTRL1</text>
</g>
<!-- https://w3id.org/oseg/ont/otrl#OTRL1&#45;&gt;https://w3id.org/oseg/ont/otrl#OTRL -->
<g id="edge40" class="edge">
<title>https://w3id.org/oseg/ont/otrl#OTRL1&#45;&gt;https://w3id.org/oseg/ont/otrl#OTRL</title>
<path fill="none" stroke="black" d="M1083.49,-1335.3C1111.15,-1311.99 1163.29,-1268.05 1194.95,-1241.37"/>
<polygon fill="black" stroke="black" points="1197.52,-1243.78 1202.91,-1234.66 1193.01,-1238.42 1197.52,-1243.78"/>
</g>
<!-- https://w3id.org/oseg/ont/otrl#ODRL2 -->
<g id="node8" class="node">
<title>https://w3id.org/oseg/ont/otrl#ODRL2</title>
<ellipse fill="none" stroke="#e377c2" cx="819.14" cy="-566.17" rx="69.09" ry="16.03"/>
<text text-anchor="middle" x="819.14" y="-562.47" font-family="Times,serif" font-size="14.00">otrl:ODRL2</text>
</g>
<!-- https://w3id.org/oseg/ont/otrl#ODRL2&#45;&gt;https://w3id.org/oseg/ont/otrl#ODRL -->
<g id="edge25" class="edge">
<title>https://w3id.org/oseg/ont/otrl#ODRL2&#45;&gt;https://w3id.org/oseg/ont/otrl#ODRL</title>
<path fill="none" stroke="black" d="M818.48,-582.49C816.92,-620.49 813.04,-715.15 811.14,-761.58"/>
<polygon fill="black" stroke="black" points="807.63,-761.63 810.72,-771.77 814.63,-761.92 807.63,-761.63"/>
</g>
<!-- https://w3id.org/oseg/ont/otrl#ODRL4 -->
<g id="node9" class="node">
<title>https://w3id.org/oseg/ont/otrl#ODRL4</title>
<ellipse fill="none" stroke="#e377c2" cx="632.17" cy="-561.52" rx="69.09" ry="16.03"/>
<text text-anchor="middle" x="632.17" y="-557.82" font-family="Times,serif" font-size="14.00">otrl:ODRL4</text>
</g>
<!-- https://w3id.org/oseg/ont/otrl#ODRL4&#45;&gt;https://w3id.org/oseg/ont/otrl#ODRL -->
<g id="edge29" class="edge">
<title>https://w3id.org/oseg/ont/otrl#ODRL4&#45;&gt;https://w3id.org/oseg/ont/otrl#ODRL</title>
<path fill="none" stroke="black" d="M644.96,-577.82C675.86,-617.17 754.68,-717.58 791.09,-763.96"/>
<polygon fill="black" stroke="black" points="788.45,-766.26 797.37,-771.96 793.95,-761.93 788.45,-766.26"/>
</g>
<!-- https://w3id.org/oseg/ont/otrl#ODRL1 -->
<g id="node10" class="node">
<title>https://w3id.org/oseg/ont/otrl#ODRL1</title>
<ellipse fill="none" stroke="#e377c2" cx="586.51" cy="-913.81" rx="69.09" ry="16.03"/>
<text text-anchor="middle" x="586.51" y="-910.11" font-family="Times,serif" font-size="14.00">otrl:ODRL1</text>
</g>
<!-- https://w3id.org/oseg/ont/otrl#ODRL1&#45;&gt;https://w3id.org/oseg/ont/otrl#ODRL -->
<g id="edge47" class="edge">
<title>https://w3id.org/oseg/ont/otrl#ODRL1&#45;&gt;https://w3id.org/oseg/ont/otrl#ODRL</title>
<path fill="none" stroke="black" d="M613.48,-898.64C653.89,-875.92 730.19,-833.02 774.91,-807.87"/>
<polygon fill="black" stroke="black" points="776.68,-810.89 783.69,-802.93 773.25,-804.78 776.68,-810.89"/>
</g>
<!-- http://spdx.org/rdf/terms#File -->
<g id="node11" class="node">
<title>http://spdx.org/rdf/terms#File</title>
<ellipse fill="none" stroke="#1f77b4" cx="1475.5" cy="-378.81" rx="62.45" ry="16.03"/>
<text text-anchor="middle" x="1475.5" y="-375.11" font-family="Times,serif" font-size="14.00">spdxt:File</text>
</g>
<!-- https://w3id.org/oseg/ont/otrl#OTRL5 -->
<g id="node12" class="node">
<title>https://w3id.org/oseg/ont/otrl#OTRL5</title>
<ellipse fill="none" stroke="#e377c2" cx="1434.82" cy="-1081.39" rx="67.35" ry="16.03"/>
<text text-anchor="middle" x="1434.82" y="-1077.69" font-family="Times,serif" font-size="14.00">otrl:OTRL5</text>
</g>
<!-- https://w3id.org/oseg/ont/otrl#OTRL5&#45;&gt;https://w3id.org/oseg/ont/otrl#OTRL -->
<g id="edge20" class="edge">
<title>https://w3id.org/oseg/ont/otrl#OTRL5&#45;&gt;https://w3id.org/oseg/ont/otrl#OTRL</title>
<path fill="none" stroke="black" d="M1411.17,-1096.64C1372.7,-1121.46 1296.53,-1170.6 1253.33,-1198.47"/>
<polygon fill="black" stroke="black" points="1251.39,-1195.55 1244.89,-1203.91 1255.19,-1201.43 1251.39,-1195.55"/>
</g>
<!-- https://w3id.org/oseg/ont/otrl#ODRL3 -->
<g id="node13" class="node">
<title>https://w3id.org/oseg/ont/otrl#ODRL3</title>
<ellipse fill="none" stroke="#e377c2" cx="571.51" cy="-706.52" rx="69.09" ry="16.03"/>
<text text-anchor="middle" x="571.51" y="-702.82" font-family="Times,serif" font-size="14.00">otrl:ODRL3</text>
</g>
<!-- https://w3id.org/oseg/ont/otrl#ODRL3&#45;&gt;https://w3id.org/oseg/ont/otrl#ODRL -->
<g id="edge44" class="edge">
<title>https://w3id.org/oseg/ont/otrl#ODRL3&#45;&gt;https://w3id.org/oseg/ont/otrl#ODRL</title>
<path fill="none" stroke="black" d="M610.9,-719.99C652.36,-734.17 717.65,-756.5 762.08,-771.7"/>
<polygon fill="black" stroke="black" points="761.19,-775.1 771.79,-775.02 763.46,-768.47 761.19,-775.1"/>
</g>
<!-- https://w3id.org/oseg/ont/otrl#OTRL2 -->
<g id="node14" class="node">
<title>https://w3id.org/oseg/ont/otrl#OTRL2</title>
<ellipse fill="none" stroke="#e377c2" cx="1446.68" cy="-1338.18" rx="67.35" ry="16.03"/>
<text text-anchor="middle" x="1446.68" y="-1334.48" font-family="Times,serif" font-size="14.00">otrl:OTRL2</text>
</g>
<!-- https://w3id.org/oseg/ont/otrl#OTRL2&#45;&gt;https://w3id.org/oseg/ont/otrl#OTRL -->
<g id="edge10" class="edge">
<title>https://w3id.org/oseg/ont/otrl#OTRL2&#45;&gt;https://w3id.org/oseg/ont/otrl#OTRL</title>
<path fill="none" stroke="black" d="M1418.61,-1323.33C1378.1,-1301.9 1303.19,-1262.26 1258.28,-1238.51"/>
<polygon fill="black" stroke="black" points="1259.65,-1235.27 1249.17,-1233.69 1256.38,-1241.46 1259.65,-1235.27"/>
</g>
<!-- http://schema.org/Text -->
<g id="node15" class="node">
<title>http://schema.org/Text</title>
<ellipse fill="none" stroke="#e377c2" cx="1173.1" cy="-841.42" rx="74.91" ry="16.03"/>
<text text-anchor="middle" x="1173.1" y="-837.72" font-family="Times,serif" font-size="14.00">schema:Text</text>
</g>
<!-- https://w3id.org/oseg/ont/1.1.0/otrl -->
<g id="node16" class="node">
<title>https://w3id.org/oseg/ont/1.1.0/otrl</title>
<ellipse fill="none" stroke="#e377c2" cx="1794.19" cy="-512.34" rx="50.82" ry="16.03"/>
<text text-anchor="middle" x="1794.19" y="-508.64" font-family="Times,serif" font-size="14.00">ns1:otrl</text>
</g>
<!-- https://w3id.org/oseg/ont/otrl -->
<g id="node17" class="node">
<title>https://w3id.org/oseg/ont/otrl</title>
<ellipse fill="none" stroke="#e377c2" cx="1659.88" cy="-407.02" rx="50.82" ry="16.03"/>
<text text-anchor="middle" x="1659.88" y="-403.32" font-family="Times,serif" font-size="14.00">ns2:otrl</text>
</g>
<!-- https://w3id.org/oseg/ont/otrl&#45;&gt;http://spdx.org/rdf/terms#File -->
<g id="edge26" class="edge">
<title>https://w3id.org/oseg/ont/otrl&#45;&gt;http://spdx.org/rdf/terms#File</title>
<path fill="none" stroke="black" d="M1613.82,-399.98C1591.33,-396.53 1563.89,-392.33 1539.4,-388.59"/>
<polygon fill="black" stroke="black" points="1539.88,-385.12 1529.46,-387.07 1538.82,-392.04 1539.88,-385.12"/>
<text text-anchor="middle" x="1572.11" y="-398.08" font-family="Times,serif" font-size="14.00">a</text>
</g>
<!-- https://w3id.org/oseg/ont/otrl&#45;&gt;https://w3id.org/oseg/ont/1.1.0/otrl -->
<g id="edge8" class="edge">
<title>https://w3id.org/oseg/ont/otrl&#45;&gt;https://w3id.org/oseg/ont/1.1.0/otrl</title>
<path fill="none" stroke="black" d="M1679.12,-422.11C1702.16,-440.18 1740.9,-470.56 1766.99,-491.02"/>
<polygon fill="black" stroke="black" points="1764.96,-493.87 1774.99,-497.28 1769.28,-488.36 1764.96,-493.87"/>
<text text-anchor="middle" x="1774.56" y="-460.36" font-family="Times,serif" font-size="14.00">owl:versionIRI</text>
</g>
<!-- https://w3id.org/oseg/ont/oseg&#45;profiles#martinHaeuer -->
<g id="node19" class="node">
<title>https://w3id.org/oseg/ont/oseg&#45;profiles#martinHaeuer</title>
<ellipse fill="none" stroke="#e377c2" cx="1615.31" cy="-454.64" rx="116.85" ry="16.03"/>
<text text-anchor="middle" x="1615.31" y="-450.94" font-family="Times,serif" font-size="14.00">osegprof:martinHa...</text>
</g>
<!-- https://w3id.org/oseg/ont/otrl&#45;&gt;https://w3id.org/oseg/ont/oseg&#45;profiles#martinHaeuer -->
<g id="edge13" class="edge">
<title>https://w3id.org/oseg/ont/otrl&#45;&gt;https://w3id.org/oseg/ont/oseg&#45;profiles#martinHaeuer</title>
<path fill="none" stroke="black" d="M1637.16,-421.59C1634.33,-424.4 1631.5,-427.4 1628.86,-430.42"/>
<polygon fill="black" stroke="black" points="1626.03,-428.34 1622.4,-438.3 1631.45,-432.78 1626.03,-428.34"/>
<text text-anchor="middle" x="1690.51" y="-429.8" font-family="Times,serif" font-size="14.00">dcterms:creator</text>
</g>
<!-- https://w3id.org/oseg/ont/otrl&#45;&gt;https://w3id.org/oseg/ont/oseg&#45;profiles#martinHaeuer -->
<g id="edge16" class="edge">
<title>https://w3id.org/oseg/ont/otrl&#45;&gt;https://w3id.org/oseg/ont/oseg&#45;profiles#martinHaeuer</title>
<path fill="none" stroke="black" d="M1652.77,-423.38C1650.89,-425.86 1648.77,-428.45 1646.5,-431.04"/>
<polygon fill="black" stroke="black" points="1643.65,-428.97 1639.41,-438.68 1648.78,-433.73 1643.65,-428.97"/>
<text text-anchor="middle" x="1594.14" y="-416.01" font-family="Times,serif" font-size="14.00">schema:creator</text>
</g>
<!-- https://w3id.org/oseg/ont/oseg&#45;profiles#robinVobruba -->
<g id="node22" class="node">
<title>https://w3id.org/oseg/ont/oseg&#45;profiles#robinVobruba</title>
<ellipse fill="none" stroke="#e377c2" cx="1663.56" cy="-173.16" rx="113.69" ry="16.03"/>
<text text-anchor="middle" x="1663.56" y="-169.46" font-family="Times,serif" font-size="14.00">osegprof:robinVob...</text>
</g>
<!-- https://w3id.org/oseg/ont/otrl&#45;&gt;https://w3id.org/oseg/ont/oseg&#45;profiles#robinVobruba -->
<g id="edge33" class="edge">
<title>https://w3id.org/oseg/ont/otrl&#45;&gt;https://w3id.org/oseg/ont/oseg&#45;profiles#robinVobruba</title>
<path fill="none" stroke="black" d="M1663.8,-390.64C1668.25,-350.78 1670.13,-248.46 1667.61,-199.73"/>
<polygon fill="black" stroke="black" points="1671.1,-199.4 1666.96,-189.64 1664.11,-199.85 1671.1,-199.4"/>
<text text-anchor="middle" x="1610.21" y="-298.98" font-family="Times,serif" font-size="14.00">schema:creator</text>
</g>
<!-- https://w3id.org/oseg/ont/otrl&#45;&gt;https://w3id.org/oseg/ont/oseg&#45;profiles#robinVobruba -->
<g id="edge41" class="edge">
<title>https://w3id.org/oseg/ont/otrl&#45;&gt;https://w3id.org/oseg/ont/oseg&#45;profiles#robinVobruba</title>
<path fill="none" stroke="black" d="M1656.47,-390.52C1653.28,-350.54 1654.62,-248.22 1658.67,-199.59"/>
<polygon fill="black" stroke="black" points="1662.16,-199.82 1659.63,-189.53 1655.2,-199.15 1662.16,-199.82"/>
<text text-anchor="middle" x="1600.07" y="-283.85" font-family="Times,serif" font-size="14.00">dcterms:creator</text>
</g>
<!-- http://id.loc.gov/vocabulary/iso639&#45;1/en -->
<g id="node23" class="node">
<title>http://id.loc.gov/vocabulary/iso639&#45;1/en</title>
<ellipse fill="none" stroke="#e377c2" cx="1597.55" cy="-568.1" rx="45.01" ry="16.03"/>
<text text-anchor="middle" x="1597.55" y="-564.4" font-family="Times,serif" font-size="14.00">ns3:en</text>
</g>
<!-- https://w3id.org/oseg/ont/otrl&#45;&gt;http://id.loc.gov/vocabulary/iso639&#45;1/en -->
<g id="edge39" class="edge">
<title>https://w3id.org/oseg/ont/otrl&#45;&gt;http://id.loc.gov/vocabulary/iso639&#45;1/en</title>
<path fill="none" stroke="black" d="M1653.56,-423.35C1642.73,-451.33 1620.55,-508.65 1607.59,-542.15"/>
<polygon fill="black" stroke="black" points="1604.23,-541.14 1603.88,-551.73 1610.76,-543.66 1604.23,-541.14"/>
<text text-anchor="middle" x="1566.07" y="-486.55" font-family="Times,serif" font-size="14.00">dcterms:language</text>
</g>
<!-- https://w3id.org/oseg/ont/oseg&#45;profiles#Iopa -->
<g id="node24" class="node">
<title>https://w3id.org/oseg/ont/oseg&#45;profiles#Iopa</title>
<ellipse fill="none" stroke="#e377c2" cx="1633.77" cy="-366.44" rx="80.72" ry="16.03"/>
<text text-anchor="middle" x="1633.77" y="-362.74" font-family="Times,serif" font-size="14.00">osegprof:Iopa</text>
</g>
<!-- https://w3id.org/oseg/ont/otrl&#45;&gt;https://w3id.org/oseg/ont/oseg&#45;profiles#Iopa -->
<g id="edge46" class="edge">
<title>https://w3id.org/oseg/ont/otrl&#45;&gt;https://w3id.org/oseg/ont/oseg&#45;profiles#Iopa</title>
<path fill="none" stroke="black" d="M1649.56,-390.98C1649.5,-390.9 1649.45,-390.81 1649.39,-390.73"/>
<polygon fill="black" stroke="black" points="1652.54,-389.15 1644.18,-382.63 1646.65,-392.93 1652.54,-389.15"/>
<text text-anchor="middle" x="1714.97" y="-379.66" font-family="Times,serif" font-size="14.00">dcterms:publisher</text>
</g>
<!-- https://spdx.org/licenses/GPL&#45;3.0&#45;or&#45;later -->
<g id="node25" class="node">
<title>https://spdx.org/licenses/GPL&#45;3.0&#45;or&#45;later</title>
<ellipse fill="none" stroke="#e377c2" cx="1870.56" cy="-319.65" rx="108.79" ry="16.03"/>
<text text-anchor="middle" x="1870.56" y="-315.95" font-family="Times,serif" font-size="14.00">spdxl:GPL&#45;3.0&#45;or&#45;...</text>
</g>
<!-- https://w3id.org/oseg/ont/otrl&#45;&gt;https://spdx.org/licenses/GPL&#45;3.0&#45;or&#45;later -->
<g id="edge51" class="edge">
<title>https://w3id.org/oseg/ont/otrl&#45;&gt;https://spdx.org/licenses/GPL&#45;3.0&#45;or&#45;later</title>
<path fill="none" stroke="black" d="M1690.96,-394.13C1726.04,-379.58 1783.46,-355.77 1823.92,-338.99"/>
<polygon fill="black" stroke="black" points="1825.4,-342.17 1833.3,-335.1 1822.72,-335.7 1825.4,-342.17"/>
<text text-anchor="middle" x="1836.44" y="-355.36" font-family="Times,serif" font-size="14.00">spdxt:licenseDeclared</text>
</g>
<!-- https://w3id.org/oseg/ont/otrl#Odrl4 -->
<g id="node18" class="node">
<title>https://w3id.org/oseg/ont/otrl#Odrl4</title>
<ellipse fill="none" stroke="#e377c2" cx="513.58" cy="-328.13" rx="61.54" ry="16.03"/>
<text text-anchor="middle" x="513.58" y="-324.43" font-family="Times,serif" font-size="14.00">otrl:Odrl4</text>
</g>
<!-- https://w3id.org/oseg/ont/otrl#Odrl4&#45;&gt;https://w3id.org/oseg/ont/otrl#ODRL4 -->
<g id="edge18" class="edge">
<title>https://w3id.org/oseg/ont/otrl#Odrl4&#45;&gt;https://w3id.org/oseg/ont/otrl#ODRL4</title>
<path fill="none" stroke="black" d="M518.04,-344.69C534.12,-385.05 586.32,-488.5 614.37,-536.46"/>
<polygon fill="black" stroke="black" points="611.5,-538.49 619.64,-545.28 617.51,-534.9 611.5,-538.49"/>
<text text-anchor="middle" x="523.7" y="-444.37" font-family="Times,serif" font-size="14.00">owl:sameAs</text>
</g>
<!-- https://w3id.org/oseg/ont/otrl#Odrl4&#45;&gt;https://w3id.org/oseg/ont/otrl#ODRL4 -->
<g id="edge31" class="edge">
<title>https://w3id.org/oseg/ont/otrl#Odrl4&#45;&gt;https://w3id.org/oseg/ont/otrl#ODRL4</title>
<path fill="none" stroke="black" d="M526.08,-344.34C550.54,-384.19 602.99,-487.05 623.79,-535.54"/>
<polygon fill="black" stroke="black" points="620.66,-537.13 627.73,-545.02 627.13,-534.45 620.66,-537.13"/>
<text text-anchor="middle" x="494.94" y="-428.74" font-family="Times,serif" font-size="14.00">schema:supersededBy</text>
</g>
<!-- https://w3id.org/oseg/ont/otrl#exitCriteria -->
<g id="node20" class="node">
<title>https://w3id.org/oseg/ont/otrl#exitCriteria</title>
<ellipse fill="none" stroke="#e377c2" cx="996.36" cy="-1019.3" rx="91.43" ry="16.03"/>
<text text-anchor="middle" x="996.36" y="-1015.6" font-family="Times,serif" font-size="14.00">otrl:exitCriteria</text>
</g>
<!-- https://w3id.org/oseg/ont/otrl#exitCriteria&#45;&gt;https://w3id.org/oseg/ont/otrl#OTRL -->
<g id="edge24" class="edge">
<title>https://w3id.org/oseg/ont/otrl#exitCriteria&#45;&gt;https://w3id.org/oseg/ont/otrl#OTRL</title>
<path fill="none" stroke="black" d="M1014.4,-1035.3C1054.26,-1070.67 1149.93,-1155.56 1195.92,-1196.37"/>
<polygon fill="black" stroke="black" points="1193.84,-1199.2 1203.65,-1203.22 1198.49,-1193.96 1193.84,-1199.2"/>
<text text-anchor="middle" x="1019.16" y="-1119.63" font-family="Times,serif" font-size="14.00">schema:domainIncludes</text>
</g>
<!-- https://w3id.org/oseg/ont/otrl#exitCriteria&#45;&gt;https://w3id.org/oseg/ont/otrl#ODRL -->
<g id="edge9" class="edge">
<title>https://w3id.org/oseg/ont/otrl#exitCriteria&#45;&gt;https://w3id.org/oseg/ont/otrl#ODRL</title>
<path fill="none" stroke="black" d="M983.26,-1003.04C950.91,-962.9 867.13,-858.94 829.2,-811.88"/>
<polygon fill="black" stroke="black" points="831.89,-809.63 822.89,-804.04 826.44,-814.02 831.89,-809.63"/>
<text text-anchor="middle" x="820.23" y="-911.26" font-family="Times,serif" font-size="14.00">schema:domainIncludes</text>
</g>
<!-- https://w3id.org/oseg/ont/otrl#exitCriteria&#45;&gt;http://schema.org/Text -->
<g id="edge2" class="edge">
<title>https://w3id.org/oseg/ont/otrl#exitCriteria&#45;&gt;http://schema.org/Text</title>
<path fill="none" stroke="black" d="M1012.36,-1003.2C1043.77,-971.58 1113.63,-901.27 1150.03,-864.64"/>
<polygon fill="black" stroke="black" points="1152.7,-866.92 1157.27,-857.36 1147.74,-861.98 1152.7,-866.92"/>
<text text-anchor="middle" x="1060.2" y="-937.72" font-family="Times,serif" font-size="14.00">range</text>
</g>
<!-- https://w3id.org/oseg/ont/otrl#goal -->
<g id="node21" class="node">
<title>https://w3id.org/oseg/ont/otrl#goal</title>
<ellipse fill="none" stroke="#e377c2" cx="1041.22" cy="-977.81" rx="54.39" ry="16.03"/>
<text text-anchor="middle" x="1041.22" y="-974.11" font-family="Times,serif" font-size="14.00">otrl:goal</text>
</g>
<!-- https://w3id.org/oseg/ont/otrl#goal&#45;&gt;https://w3id.org/oseg/ont/otrl#OTRL -->
<g id="edge3" class="edge">
<title>https://w3id.org/oseg/ont/otrl#goal&#45;&gt;https://w3id.org/oseg/ont/otrl#OTRL</title>
<path fill="none" stroke="black" d="M1053.32,-994.01C1084.3,-1035.46 1166.57,-1145.56 1203.3,-1194.73"/>
<polygon fill="black" stroke="black" points="1200.62,-1196.98 1209.41,-1202.89 1206.22,-1192.79 1200.62,-1196.98"/>
<text text-anchor="middle" x="1042.31" y="-1098.17" font-family="Times,serif" font-size="14.00">schema:domainIncludes</text>
</g>
<!-- https://w3id.org/oseg/ont/otrl#goal&#45;&gt;https://w3id.org/oseg/ont/otrl#ODRL -->
<g id="edge21" class="edge">
<title>https://w3id.org/oseg/ont/otrl#goal&#45;&gt;https://w3id.org/oseg/ont/otrl#ODRL</title>
<path fill="none" stroke="black" d="M1022.3,-962.28C981.41,-928.73 884.65,-849.32 837.22,-810.4"/>
<polygon fill="black" stroke="black" points="839.18,-807.49 829.23,-803.85 834.74,-812.9 839.18,-807.49"/>
<text text-anchor="middle" x="843.76" y="-890.14" font-family="Times,serif" font-size="14.00">schema:domainIncludes</text>
</g>
<!-- https://w3id.org/oseg/ont/otrl#goal&#45;&gt;http://schema.org/Text -->
<g id="edge4" class="edge">
<title>https://w3id.org/oseg/ont/otrl#goal&#45;&gt;http://schema.org/Text</title>
<path fill="none" stroke="black" d="M1056.35,-962.16C1079.35,-938.37 1123.3,-892.93 1150.22,-865.08"/>
<polygon fill="black" stroke="black" points="1152.9,-867.35 1157.33,-857.73 1147.86,-862.48 1152.9,-867.35"/>
<text text-anchor="middle" x="1082.28" y="-917.42" font-family="Times,serif" font-size="14.00">range</text>
</g>
<!-- https://w3id.org/oseg/ont/otrl#Otrl1 -->
<g id="node26" class="node">
<title>https://w3id.org/oseg/ont/otrl#Otrl1</title>
<ellipse fill="none" stroke="black" cx="1028.76" cy="-1391.98" rx="194.41" ry="16.03"/>
<text text-anchor="middle" x="1028.76" y="-1388.28" font-family="Times,serif" font-size="14.00">https://w3id.org/oseg/ont/otrl#Otrl1</text>
</g>
<!-- https://w3id.org/oseg/ont/otrl#Otrl1&#45;&gt;https://w3id.org/oseg/ont/otrl#OTRL1 -->
<g id="edge1" class="edge">
<title>https://w3id.org/oseg/ont/otrl#Otrl1&#45;&gt;https://w3id.org/oseg/ont/otrl#OTRL1</title>
<path fill="none" stroke="black" d="M1052.33,-1375.45C1052.4,-1375.36 1052.47,-1375.28 1052.55,-1375.19"/>
<polygon fill="black" stroke="black" points="1055.36,-1377.28 1058.84,-1367.28 1049.87,-1372.93 1055.36,-1377.28"/>
<text text-anchor="middle" x="972.44" y="-1364.12" font-family="Times,serif" font-size="14.00">schema:supersededBy</text>
</g>
<!-- https://w3id.org/oseg/ont/otrl#Otrl1&#45;&gt;https://w3id.org/oseg/ont/otrl#OTRL1 -->
<g id="edge5" class="edge">
<title>https://w3id.org/oseg/ont/otrl#Otrl1&#45;&gt;https://w3id.org/oseg/ont/otrl#OTRL1</title>
<path fill="none" stroke="black" d="M1035.1,-1375.3C1035.37,-1374.93 1035.64,-1374.56 1035.92,-1374.18"/>
<polygon fill="black" stroke="black" points="1038.71,-1376.3 1042.35,-1366.36 1033.3,-1371.86 1038.71,-1376.3"/>
<text text-anchor="middle" x="1078.01" y="-1363.54" font-family="Times,serif" font-size="14.00">owl:sameAs</text>
</g>
<!-- https://w3id.org/oseg/ont/otrl#Odrl3 -->
<g id="node27" class="node">
<title>https://w3id.org/oseg/ont/otrl#Odrl3</title>
<ellipse fill="none" stroke="black" cx="196.85" cy="-572.91" rx="196.65" ry="16.03"/>
<text text-anchor="middle" x="196.85" y="-569.21" font-family="Times,serif" font-size="14.00">https://w3id.org/oseg/ont/otrl#Odrl3</text>
</g>
<!-- https://w3id.org/oseg/ont/otrl#Odrl3&#45;&gt;https://w3id.org/oseg/ont/otrl#ODRL3 -->
<g id="edge6" class="edge">
<title>https://w3id.org/oseg/ont/otrl#Odrl3&#45;&gt;https://w3id.org/oseg/ont/otrl#ODRL3</title>
<path fill="none" stroke="black" d="M229.71,-588.98C293.51,-615.15 434.77,-665.83 514.28,-691.38"/>
<polygon fill="black" stroke="black" points="513.54,-694.82 524.13,-694.52 515.66,-688.15 513.54,-694.82"/>
<text text-anchor="middle" x="329.5" y="-643.98" font-family="Times,serif" font-size="14.00">owl:sameAs</text>
</g>
<!-- https://w3id.org/oseg/ont/otrl#Odrl3&#45;&gt;https://w3id.org/oseg/ont/otrl#ODRL3 -->
<g id="edge15" class="edge">
<title>https://w3id.org/oseg/ont/otrl#Odrl3&#45;&gt;https://w3id.org/oseg/ont/otrl#ODRL3</title>
<path fill="none" stroke="black" d="M255.43,-588.49C332.6,-613.34 466.21,-661.2 532.25,-687.85"/>
<polygon fill="black" stroke="black" points="531.29,-691.24 541.87,-691.78 533.94,-684.76 531.29,-691.24"/>
<text text-anchor="middle" x="313.84" y="-626.97" font-family="Times,serif" font-size="14.00">schema:supersededBy</text>
</g>
<!-- https://w3id.org/oseg/ont/otrl#Odrl1 -->
<g id="node28" class="node">
<title>https://w3id.org/oseg/ont/otrl#Odrl1</title>
<ellipse fill="none" stroke="black" cx="215.57" cy="-1047.6" rx="196.65" ry="16.03"/>
<text text-anchor="middle" x="215.57" y="-1043.9" font-family="Times,serif" font-size="14.00">https://w3id.org/oseg/ont/otrl#Odrl1</text>
</g>
<!-- https://w3id.org/oseg/ont/otrl#Odrl1&#45;&gt;https://w3id.org/oseg/ont/otrl#ODRL1 -->
<g id="edge7" class="edge">
<title>https://w3id.org/oseg/ont/otrl#Odrl1&#45;&gt;https://w3id.org/oseg/ont/otrl#ODRL1</title>
<path fill="none" stroke="black" d="M273.61,-1031.99C350.03,-1007.09 482.31,-959.17 547.67,-932.49"/>
<polygon fill="black" stroke="black" points="549.29,-935.61 557.19,-928.56 546.61,-929.14 549.29,-935.61"/>
<text text-anchor="middle" x="330.64" y="-986.04" font-family="Times,serif" font-size="14.00">schema:supersededBy</text>
</g>
<!-- https://w3id.org/oseg/ont/otrl#Odrl1&#45;&gt;https://w3id.org/oseg/ont/otrl#ODRL1 -->
<g id="edge50" class="edge">
<title>https://w3id.org/oseg/ont/otrl#Odrl1&#45;&gt;https://w3id.org/oseg/ont/otrl#ODRL1</title>
<path fill="none" stroke="black" d="M248.08,-1031.51C311.22,-1005.32 451.08,-954.57 529.81,-928.98"/>
<polygon fill="black" stroke="black" points="531.13,-932.23 539.57,-925.84 528.98,-925.57 531.13,-932.23"/>
<text text-anchor="middle" x="346.45" y="-969.05" font-family="Times,serif" font-size="14.00">owl:sameAs</text>
</g>
<!-- https://w3id.org/oseg/ont/otrl#Otrl3 -->
<g id="node29" class="node">
<title>https://w3id.org/oseg/ont/otrl#Otrl3</title>
<ellipse fill="none" stroke="black" cx="1152.98" cy="-1871.2" rx="194.41" ry="16.03"/>
<text text-anchor="middle" x="1152.98" y="-1867.5" font-family="Times,serif" font-size="14.00">https://w3id.org/oseg/ont/otrl#Otrl3</text>
</g>
<!-- https://w3id.org/oseg/ont/otrl#Otrl3&#45;&gt;https://w3id.org/oseg/ont/otrl#OTRL3 -->
<g id="edge11" class="edge">
<title>https://w3id.org/oseg/ont/otrl#Otrl3&#45;&gt;https://w3id.org/oseg/ont/otrl#OTRL3</title>
<path fill="none" stroke="black" d="M1156.22,-1854.6C1162.08,-1794.18 1165.91,-1585.66 1162.86,-1510.72"/>
<polygon fill="black" stroke="black" points="1166.33,-1510.08 1162.33,-1500.27 1159.34,-1510.43 1166.33,-1510.08"/>
<text text-anchor="middle" x="1079.54" y="-1686.46" font-family="Times,serif" font-size="14.00">schema:supersededBy</text>
</g>
<!-- https://w3id.org/oseg/ont/otrl#Otrl3&#45;&gt;https://w3id.org/oseg/ont/otrl#OTRL3 -->
<g id="edge54" class="edge">
<title>https://w3id.org/oseg/ont/otrl#Otrl3&#45;&gt;https://w3id.org/oseg/ont/otrl#OTRL3</title>
<path fill="none" stroke="black" d="M1150.31,-1854.49C1146.54,-1793.91 1149.91,-1585.38 1155.55,-1510.59"/>
<polygon fill="black" stroke="black" points="1159.08,-1510.43 1156.44,-1500.17 1152.1,-1509.83 1159.08,-1510.43"/>
<text text-anchor="middle" x="1110.43" y="-1671.34" font-family="Times,serif" font-size="14.00">owl:sameAs</text>
</g>
<!-- https://w3id.org/oseg/ont/otrl#Odrl5 -->
<g id="node30" class="node">
<title>https://w3id.org/oseg/ont/otrl#Odrl5</title>
<ellipse fill="none" stroke="black" cx="323.75" cy="-16.13" rx="196.65" ry="16.03"/>
<text text-anchor="middle" x="323.75" y="-12.43" font-family="Times,serif" font-size="14.00">https://w3id.org/oseg/ont/otrl#Odrl5</text>
</g>
<!-- https://w3id.org/oseg/ont/otrl#Odrl5&#45;&gt;https://w3id.org/oseg/ont/otrl#Odrl4 -->
<g id="edge12" class="edge">
<title>https://w3id.org/oseg/ont/otrl#Odrl5&#45;&gt;https://w3id.org/oseg/ont/otrl#Odrl4</title>
<path fill="none" stroke="black" d="M330.25,-32.79C356.44,-84.58 452.19,-242.52 494.03,-303.66"/>
<polygon fill="black" stroke="black" points="491.22,-305.74 499.8,-311.95 496.96,-301.74 491.22,-305.74"/>
<text text-anchor="middle" x="369.64" y="-172.02" font-family="Times,serif" font-size="14.00">owl:sameAs</text>
</g>
<!-- https://w3id.org/oseg/ont/otrl#Odrl5&#45;&gt;https://w3id.org/oseg/ont/otrl#Odrl4 -->
<g id="edge19" class="edge">
<title>https://w3id.org/oseg/ont/otrl#Odrl5&#45;&gt;https://w3id.org/oseg/ont/otrl#Odrl4</title>
<path fill="none" stroke="black" d="M337.66,-32.5C373.91,-83.69 469.55,-240.63 502.48,-302.62"/>
<polygon fill="black" stroke="black" points="499.49,-304.46 507.21,-311.72 505.7,-301.23 499.49,-304.46"/>
<text text-anchor="middle" x="340.07" y="-156.36" font-family="Times,serif" font-size="14.00">schema:supersededBy</text>
</g>
<!-- https://w3id.org/oseg/ont/otrl#Odrl -->
<g id="node31" class="node">
<title>https://w3id.org/oseg/ont/otrl#Odrl</title>
<ellipse fill="none" stroke="black" cx="435.42" cy="-820.83" rx="190.42" ry="16.03"/>
<text text-anchor="middle" x="435.42" y="-817.13" font-family="Times,serif" font-size="14.00">https://w3id.org/oseg/ont/otrl#Odrl</text>
</g>
<!-- https://w3id.org/oseg/ont/otrl#Odrl&#45;&gt;https://w3id.org/oseg/ont/otrl#ODRL -->
<g id="edge14" class="edge">
<title>https://w3id.org/oseg/ont/otrl#Odrl&#45;&gt;https://w3id.org/oseg/ont/otrl#ODRL</title>
<path fill="none" stroke="black" d="M602.23,-813C654.24,-808.65 708.39,-803.4 748.36,-798.69"/>
<polygon fill="black" stroke="black" points="748.96,-802.14 758.47,-797.47 748.13,-795.19 748.96,-802.14"/>
<text text-anchor="middle" x="717.8" y="-809.64" font-family="Times,serif" font-size="14.00">owl:sameAs</text>
</g>
<!-- https://w3id.org/oseg/ont/otrl#Odrl&#45;&gt;https://w3id.org/oseg/ont/otrl#ODRL -->
<g id="edge22" class="edge">
<title>https://w3id.org/oseg/ont/otrl#Odrl&#45;&gt;https://w3id.org/oseg/ont/otrl#ODRL</title>
<path fill="none" stroke="black" d="M529.44,-806.64C593.67,-799.82 677.57,-792.66 736.84,-789.01"/>
<polygon fill="black" stroke="black" points="737.09,-792.5 746.87,-788.42 736.68,-785.52 737.09,-792.5"/>
<text text-anchor="middle" x="553.14" y="-786.63" font-family="Times,serif" font-size="14.00">schema:supersededBy</text>
</g>
<!-- https://w3id.org/oseg/ont/otrl#Otrl2 -->
<g id="node32" class="node">
<title>https://w3id.org/oseg/ont/otrl#Otrl2</title>
<ellipse fill="none" stroke="black" cx="1738.63" cy="-1605.82" rx="194.41" ry="16.03"/>
<text text-anchor="middle" x="1738.63" y="-1602.12" font-family="Times,serif" font-size="14.00">https://w3id.org/oseg/ont/otrl#Otrl2</text>
</g>
<!-- https://w3id.org/oseg/ont/otrl#Otrl2&#45;&gt;https://w3id.org/oseg/ont/otrl#OTRL2 -->
<g id="edge17" class="edge">
<title>https://w3id.org/oseg/ont/otrl#Otrl2&#45;&gt;https://w3id.org/oseg/ont/otrl#OTRL2</title>
<path fill="none" stroke="black" d="M1725.52,-1589.43C1681.65,-1543.29 1539.94,-1412.96 1477.09,-1360.43"/>
<polygon fill="black" stroke="black" points="1479.06,-1357.51 1469.12,-1353.83 1474.6,-1362.9 1479.06,-1357.51"/>
<text text-anchor="middle" x="1643.81" y="-1478.73" font-family="Times,serif" font-size="14.00">owl:sameAs</text>
</g>
<!-- https://w3id.org/oseg/ont/otrl#Otrl2&#45;&gt;https://w3id.org/oseg/ont/otrl#OTRL2 -->
<g id="edge45" class="edge">
<title>https://w3id.org/oseg/ont/otrl#Otrl2&#45;&gt;https://w3id.org/oseg/ont/otrl#OTRL2</title>
<path fill="none" stroke="black" d="M1715.13,-1589.3C1659.07,-1543.37 1518.7,-1414.74 1466.53,-1361.54"/>
<polygon fill="black" stroke="black" points="1468.96,-1359.02 1459.49,-1354.26 1463.92,-1363.88 1468.96,-1359.02"/>
<text text-anchor="middle" x="1510.83" y="-1479.22" font-family="Times,serif" font-size="14.00">schema:supersededBy</text>
</g>
<!-- https://w3id.org/oseg/ont/otrl#Otrl4 -->
<g id="node33" class="node">
<title>https://w3id.org/oseg/ont/otrl#Otrl4</title>
<ellipse fill="none" stroke="black" cx="1430.07" cy="-1460.91" rx="194.41" ry="16.03"/>
<text text-anchor="middle" x="1430.07" y="-1457.21" font-family="Times,serif" font-size="14.00">https://w3id.org/oseg/ont/otrl#Otrl4</text>
</g>
<!-- https://w3id.org/oseg/ont/otrl#Otrl4&#45;&gt;https://w3id.org/oseg/ont/otrl#OTRL4 -->
<g id="edge23" class="edge">
<title>https://w3id.org/oseg/ont/otrl#Otrl4&#45;&gt;https://w3id.org/oseg/ont/otrl#OTRL4</title>
<path fill="none" stroke="black" d="M1417.27,-1444.48C1412.66,-1440.47 1407.2,-1436.16 1401.53,-1432"/>
<polygon fill="black" stroke="black" points="1403.33,-1428.99 1393.14,-1426.08 1399.29,-1434.71 1403.33,-1428.99"/>
<text text-anchor="middle" x="1451.9" y="-1427.04" font-family="Times,serif" font-size="14.00">owl:sameAs</text>
</g>
<!-- https://w3id.org/oseg/ont/otrl#Otrl4&#45;&gt;https://w3id.org/oseg/ont/otrl#OTRL4 -->
<g id="edge34" class="edge">
<title>https://w3id.org/oseg/ont/otrl#Otrl4&#45;&gt;https://w3id.org/oseg/ont/otrl#OTRL4</title>
<path fill="none" stroke="black" d="M1396.34,-1444.84C1391.54,-1441.51 1386.72,-1437.95 1382.27,-1434.44"/>
<polygon fill="black" stroke="black" points="1384.18,-1431.48 1374.25,-1427.81 1379.73,-1436.88 1384.18,-1431.48"/>
<text text-anchor="middle" x="1309.31" y="-1428.44" font-family="Times,serif" font-size="14.00">schema:supersededBy</text>
</g>
<!-- https://w3id.org/oseg/ont/otrl#Otrl5 -->
<g id="node34" class="node">
<title>https://w3id.org/oseg/ont/otrl#Otrl5</title>
<ellipse fill="none" stroke="black" cx="1797.07" cy="-930.52" rx="194.41" ry="16.03"/>
<text text-anchor="middle" x="1797.07" y="-926.82" font-family="Times,serif" font-size="14.00">https://w3id.org/oseg/ont/otrl#Otrl5</text>
</g>
<!-- https://w3id.org/oseg/ont/otrl#Otrl5&#45;&gt;https://w3id.org/oseg/ont/otrl#OTRL5 -->
<g id="edge27" class="edge">
<title>https://w3id.org/oseg/ont/otrl#Otrl5&#45;&gt;https://w3id.org/oseg/ont/otrl#OTRL5</title>
<path fill="none" stroke="black" d="M1746.76,-946.31C1672.52,-974.21 1535.48,-1031.45 1470.62,-1061.81"/>
<polygon fill="black" stroke="black" points="1468.76,-1058.82 1461.22,-1066.27 1471.76,-1065.15 1468.76,-1058.82"/>
<text text-anchor="middle" x="1566.19" y="-1007.86" font-family="Times,serif" font-size="14.00">owl:sameAs</text>
</g>
<!-- https://w3id.org/oseg/ont/otrl#Otrl5&#45;&gt;https://w3id.org/oseg/ont/otrl#OTRL5 -->
<g id="edge36" class="edge">
<title>https://w3id.org/oseg/ont/otrl#Otrl5&#45;&gt;https://w3id.org/oseg/ont/otrl#OTRL5</title>
<path fill="none" stroke="black" d="M1768.63,-946.62C1707.77,-975.69 1564.24,-1035.79 1486.69,-1065.02"/>
<polygon fill="black" stroke="black" points="1485.25,-1061.82 1477.11,-1068.6 1487.7,-1068.38 1485.25,-1061.82"/>
<text text-anchor="middle" x="1707.66" y="-1009.62" font-family="Times,serif" font-size="14.00">schema:supersededBy</text>
</g>
<!-- https://w3id.org/oseg/ont/otrl#Otrl6 -->
<g id="node35" class="node">
<title>https://w3id.org/oseg/ont/otrl#Otrl6</title>
<ellipse fill="none" stroke="black" cx="1867.77" cy="-1270.03" rx="194.41" ry="16.03"/>
<text text-anchor="middle" x="1867.77" y="-1266.33" font-family="Times,serif" font-size="14.00">https://w3id.org/oseg/ont/otrl#Otrl6</text>
</g>
<!-- https://w3id.org/oseg/ont/otrl#Otrl6&#45;&gt;https://w3id.org/oseg/ont/otrl#OTRL6 -->
<g id="edge28" class="edge">
<title>https://w3id.org/oseg/ont/otrl#Otrl6&#45;&gt;https://w3id.org/oseg/ont/otrl#OTRL6</title>
<path fill="none" stroke="black" d="M1798.45,-1254.76C1729.14,-1242.96 1622.85,-1227.74 1551.4,-1219.33"/>
<polygon fill="black" stroke="black" points="1551.46,-1215.82 1541.12,-1218.14 1550.66,-1222.77 1551.46,-1215.82"/>
<text text-anchor="middle" x="1632.43" y="-1225.84" font-family="Times,serif" font-size="14.00">owl:sameAs</text>
</g>
<!-- https://w3id.org/oseg/ont/otrl#Otrl6&#45;&gt;https://w3id.org/oseg/ont/otrl#OTRL6 -->
<g id="edge37" class="edge">
<title>https://w3id.org/oseg/ont/otrl#Otrl6&#45;&gt;https://w3id.org/oseg/ont/otrl#OTRL6</title>
<path fill="none" stroke="black" d="M1737.71,-1257.9C1668.65,-1248.82 1587.24,-1236.71 1533.73,-1227.33"/>
<polygon fill="black" stroke="black" points="1534.2,-1223.86 1523.74,-1225.56 1532.97,-1230.75 1534.2,-1223.86"/>
<text text-anchor="middle" x="1555.72" y="-1246.42" font-family="Times,serif" font-size="14.00">schema:supersededBy</text>
</g>
<!-- https://w3id.org/oseg/ont/otrl#Odrl3Star -->
<g id="node36" class="node">
<title>https://w3id.org/oseg/ont/otrl#Odrl3Star</title>
<ellipse fill="none" stroke="black" cx="1151.43" cy="-150.69" rx="218.49" ry="16.03"/>
<text text-anchor="middle" x="1151.43" y="-146.99" font-family="Times,serif" font-size="14.00">https://w3id.org/oseg/ont/otrl#Odrl3Star</text>
</g>
<!-- https://w3id.org/oseg/ont/otrl#Odrl3Star&#45;&gt;https://w3id.org/oseg/ont/otrl#ODRL3Star -->
<g id="edge35" class="edge">
<title>https://w3id.org/oseg/ont/otrl#Odrl3Star&#45;&gt;https://w3id.org/oseg/ont/otrl#ODRL3Star</title>
<path fill="none" stroke="black" d="M1142.73,-167.11C1116.03,-230.22 1038.44,-457.27 1016.81,-534.86"/>
<polygon fill="black" stroke="black" points="1013.36,-534.22 1014.14,-544.78 1020.12,-536.04 1013.36,-534.22"/>
<text text-anchor="middle" x="1037.27" y="-354.79" font-family="Times,serif" font-size="14.00">owl:sameAs</text>
</g>
<!-- https://w3id.org/oseg/ont/otrl#Odrl3Star&#45;&gt;https://w3id.org/oseg/ont/otrl#ODRL3Star -->
<g id="edge48" class="edge">
<title>https://w3id.org/oseg/ont/otrl#Odrl3Star&#45;&gt;https://w3id.org/oseg/ont/otrl#ODRL3Star</title>
<path fill="none" stroke="black" d="M1148.76,-167.17C1132.48,-230.44 1055.24,-457.8 1024.14,-535.12"/>
<polygon fill="black" stroke="black" points="1020.81,-534.01 1020.24,-544.59 1027.28,-536.68 1020.81,-534.01"/>
<text text-anchor="middle" x="1166.45" y="-354.94" font-family="Times,serif" font-size="14.00">schema:supersededBy</text>
</g>
<!-- https://w3id.org/oseg/ont/otrl#Odrl2 -->
<g id="node37" class="node">
<title>https://w3id.org/oseg/ont/otrl#Odrl2</title>
<ellipse fill="none" stroke="black" cx="821.42" cy="-520.37" rx="196.65" ry="16.03"/>
<text text-anchor="middle" x="821.42" y="-516.67" font-family="Times,serif" font-size="14.00">https://w3id.org/oseg/ont/otrl#Odrl2</text>
</g>
<!-- https://w3id.org/oseg/ont/otrl#Odrl2&#45;&gt;https://w3id.org/oseg/ont/otrl#ODRL2 -->
<g id="edge38" class="edge">
<title>https://w3id.org/oseg/ont/otrl#Odrl2&#45;&gt;https://w3id.org/oseg/ont/otrl#ODRL2</title>
<path fill="none" stroke="black" d="M814.06,-536.84C813.95,-537.76 813.85,-538.68 813.77,-539.62"/>
<polygon fill="black" stroke="black" points="810.27,-539.57 813.47,-549.67 817.27,-539.78 810.27,-539.57"/>
<text text-anchor="middle" x="771.42" y="-542.03" font-family="Times,serif" font-size="14.00">owl:sameAs</text>
</g>
<!-- https://w3id.org/oseg/ont/otrl#Odrl2&#45;&gt;https://w3id.org/oseg/ont/otrl#ODRL2 -->
<g id="edge49" class="edge">
<title>https://w3id.org/oseg/ont/otrl#Odrl2&#45;&gt;https://w3id.org/oseg/ont/otrl#ODRL2</title>
<path fill="none" stroke="black" d="M827.09,-536.71C827.12,-537.64 827.13,-538.59 827.13,-539.54"/>
<polygon fill="black" stroke="black" points="823.62,-539.59 826.49,-549.79 830.61,-540.03 823.62,-539.59"/>
<text text-anchor="middle" x="907.11" y="-541.93" font-family="Times,serif" font-size="14.00">schema:supersededBy</text>
</g>
<!-- https://w3id.org/oseg/ont/otrl#Otrl -->
<g id="node38" class="node">
<title>https://w3id.org/oseg/ont/otrl#Otrl</title>
<ellipse fill="none" stroke="black" cx="895.65" cy="-1447.86" rx="188.18" ry="16.03"/>
<text text-anchor="middle" x="895.65" y="-1444.16" font-family="Times,serif" font-size="14.00">https://w3id.org/oseg/ont/otrl#Otrl</text>
</g>
<!-- https://w3id.org/oseg/ont/otrl#Otrl&#45;&gt;https://w3id.org/oseg/ont/otrl#OTRL -->
<g id="edge43" class="edge">
<title>https://w3id.org/oseg/ont/otrl#Otrl&#45;&gt;https://w3id.org/oseg/ont/otrl#OTRL</title>
<path fill="none" stroke="black" d="M925.42,-1431.79C989.28,-1391.51 1138.12,-1286.94 1196.96,-1241.02"/>
<polygon fill="black" stroke="black" points="1199.29,-1243.64 1204.96,-1234.69 1194.95,-1238.15 1199.29,-1243.64"/>
<text text-anchor="middle" x="1018.69" y="-1325.21" font-family="Times,serif" font-size="14.00">owl:sameAs</text>
</g>
<!-- https://w3id.org/oseg/ont/otrl#Otrl&#45;&gt;https://w3id.org/oseg/ont/otrl#OTRL -->
<g id="edge53" class="edge">
<title>https://w3id.org/oseg/ont/otrl#Otrl&#45;&gt;https://w3id.org/oseg/ont/otrl#OTRL</title>
<path fill="none" stroke="black" d="M913.09,-1431.44C964.45,-1390.32 1115.5,-1283.87 1185.35,-1239.13"/>
<polygon fill="black" stroke="black" points="1187.28,-1242.05 1193.85,-1233.73 1183.53,-1236.13 1187.28,-1242.05"/>
<text text-anchor="middle" x="1129.22" y="-1324.08" font-family="Times,serif" font-size="14.00">schema:supersededBy</text>
</g>
</g>
</svg>
