<?xml version="1.0" encoding="UTF-8" standalone="no"?>
<!DOCTYPE svg PUBLIC "-//W3C//DTD SVG 1.1//EN"
 "http://www.w3.org/Graphics/SVG/1.1/DTD/svg11.dtd">
<!-- Generated by graphviz version 2.43.0 (0)
 -->
<!-- Title: G Pages: 1 -->
<svg width="1442pt" height="989pt"
 viewBox="0.00 0.00 1442.00 989.00" xmlns="http://www.w3.org/2000/svg" xmlns:xlink="http://www.w3.org/1999/xlink">
<g id="graph0" class="graph" transform="scale(1 1) rotate(0) translate(4 985)">
<title>G</title>
<polygon fill="white" stroke="transparent" points="-4,4 -4,-985 1438,-985 1438,4 -4,4"/>
<!-- http://www.w3.org/2004/02/skos/core#Collection -->
<g id="node1" class="node">
<title>http://www.w3.org/2004/02/skos/core#Collection</title>
<ellipse fill="none" stroke="#e377c2" cx="398.75" cy="-259.69" rx="87.86" ry="16.03"/>
<text text-anchor="middle" x="398.75" y="-255.99" font-family="Times,serif" font-size="14.00">skos:Collection</text>
</g>
<!-- https://w3id.org/oseg/ont/okhmeta#MetaTag -->
<g id="node2" class="node">
<title>https://w3id.org/oseg/ont/okhmeta#MetaTag</title>
<ellipse fill="none" stroke="#e377c2" cx="397.5" cy="-340.78" rx="102.56" ry="16.03"/>
<text text-anchor="middle" x="397.5" y="-337.08" font-family="Times,serif" font-size="14.00">okhmeta:MetaTag</text>
</g>
<!-- https://w3id.org/oseg/ont/okhmeta#MetaTag&#45;&gt;https://w3id.org/oseg/ont/okhmeta#MetaTag -->
<g id="edge23" class="edge">
<title>https://w3id.org/oseg/ont/okhmeta#MetaTag&#45;&gt;https://w3id.org/oseg/ont/okhmeta#MetaTag</title>
<path fill="none" stroke="black" d="M492.49,-347C507.65,-346.09 518.03,-344.02 518.03,-340.78 518.03,-338.33 512.07,-336.55 502.58,-335.43"/>
<polygon fill="black" stroke="black" points="502.75,-331.93 492.49,-334.57 502.15,-338.91 502.75,-331.93"/>
<text text-anchor="middle" x="595.03" y="-337.08" font-family="Times,serif" font-size="14.00">okhmeta:hasMetaTag</text>
</g>
<!-- https://w3id.org/oseg/ont/okhmeta#Tag -->
<g id="node3" class="node">
<title>https://w3id.org/oseg/ont/okhmeta#Tag</title>
<ellipse fill="none" stroke="#e377c2" cx="397.36" cy="-300.22" rx="76.24" ry="16.03"/>
<text text-anchor="middle" x="397.36" y="-296.52" font-family="Times,serif" font-size="14.00">okhmeta:Tag</text>
</g>
<!-- https://w3id.org/oseg/ont/okhmeta#MetaTag&#45;&gt;https://w3id.org/oseg/ont/okhmeta#Tag -->
<g id="edge28" class="edge">
<title>https://w3id.org/oseg/ont/okhmeta#MetaTag&#45;&gt;https://w3id.org/oseg/ont/okhmeta#Tag</title>
<path fill="none" stroke="black" d="M404.09,-324.26C404.1,-324.1 404.1,-323.94 404.11,-323.78"/>
<polygon fill="black" stroke="black" points="407.63,-326.52 404.05,-316.55 400.63,-326.58 407.63,-326.52"/>
<text text-anchor="middle" x="399.6" y="-312.82" font-family="Times,serif" font-size="14.00">a</text>
</g>
<!-- https://w3id.org/oseg/ont/okhmeta#Tag&#45;&gt;http://www.w3.org/2004/02/skos/core#Collection -->
<g id="edge34" class="edge">
<title>https://w3id.org/oseg/ont/okhmeta#Tag&#45;&gt;http://www.w3.org/2004/02/skos/core#Collection</title>
<path fill="none" stroke="black" d="M397.93,-283.73C397.93,-283.58 397.94,-283.42 397.94,-283.26"/>
<polygon fill="black" stroke="black" points="401.35,-286.14 398.19,-276.03 394.35,-285.9 401.35,-286.14"/>
</g>
<!-- https://w3id.org/oseg/ont/okhmeta#Tag&#45;&gt;https://w3id.org/oseg/ont/okhmeta#MetaTag -->
<g id="edge1" class="edge">
<title>https://w3id.org/oseg/ont/okhmeta#Tag&#45;&gt;https://w3id.org/oseg/ont/okhmeta#MetaTag</title>
<path fill="none" stroke="black" d="M390.77,-316.74C390.76,-316.9 390.76,-317.06 390.75,-317.22"/>
<polygon fill="black" stroke="black" points="387.23,-314.48 390.81,-324.45 394.23,-314.42 387.23,-314.48"/>
<text text-anchor="middle" x="313.76" y="-320.78" font-family="Times,serif" font-size="14.00">okhmeta:hasMetaTag</text>
</g>
<!-- http://www.w3.org/2004/02/skos/core#Concept -->
<g id="node4" class="node">
<title>http://www.w3.org/2004/02/skos/core#Concept</title>
<ellipse fill="none" stroke="#1f77b4" cx="395.39" cy="-437.83" rx="78.48" ry="16.03"/>
<text text-anchor="middle" x="395.39" y="-434.13" font-family="Times,serif" font-size="14.00">skos:Concept</text>
</g>
<!-- https://w3id.org/oseg/ont/okhmeta#Tag&#45;&gt;http://www.w3.org/2004/02/skos/core#Concept -->
<g id="edge37" class="edge">
<title>https://w3id.org/oseg/ont/okhmeta#Tag&#45;&gt;http://www.w3.org/2004/02/skos/core#Concept</title>
<path fill="none" stroke="black" d="M397.13,-316.54C396.79,-339.93 396.17,-383.21 395.77,-411.25"/>
<polygon fill="black" stroke="black" points="392.27,-411.47 395.63,-421.52 399.27,-411.58 392.27,-411.47"/>
<text text-anchor="middle" x="391.95" y="-367.7" font-family="Times,serif" font-size="14.00">a</text>
</g>
<!-- http://spdx.org/rdf/terms#File -->
<g id="node5" class="node">
<title>http://spdx.org/rdf/terms#File</title>
<ellipse fill="none" stroke="#1f77b4" cx="982.92" cy="-964.87" rx="62.45" ry="16.03"/>
<text text-anchor="middle" x="982.92" y="-961.17" font-family="Times,serif" font-size="14.00">spdxt:File</text>
</g>
<!-- https://w3id.org/oseg/ont/okhmeta#BasicTag -->
<g id="node6" class="node">
<title>https://w3id.org/oseg/ont/okhmeta#BasicTag</title>
<ellipse fill="none" stroke="#e377c2" cx="490.01" cy="-577.96" rx="103.48" ry="16.03"/>
<text text-anchor="middle" x="490.01" y="-574.26" font-family="Times,serif" font-size="14.00">okhmeta:BasicTag</text>
</g>
<!-- https://w3id.org/oseg/ont/okhmeta#BasicTag&#45;&gt;https://w3id.org/oseg/ont/okhmeta#MetaTag -->
<g id="edge38" class="edge">
<title>https://w3id.org/oseg/ont/okhmeta#BasicTag&#45;&gt;https://w3id.org/oseg/ont/okhmeta#MetaTag</title>
<path fill="none" stroke="black" d="M483.65,-561.66C467.87,-521.21 426.82,-415.96 407.64,-366.79"/>
<polygon fill="black" stroke="black" points="410.79,-365.24 403.9,-357.2 404.27,-367.79 410.79,-365.24"/>
<text text-anchor="middle" x="368.65" y="-468.03" font-family="Times,serif" font-size="14.00">okhmeta:hasMetaTag</text>
</g>
<!-- https://w3id.org/oseg/ont/okhmeta#BasicTag&#45;&gt;https://w3id.org/oseg/ont/okhmeta#Tag -->
<g id="edge2" class="edge">
<title>https://w3id.org/oseg/ont/okhmeta#BasicTag&#45;&gt;https://w3id.org/oseg/ont/okhmeta#Tag</title>
<path fill="none" stroke="black" d="M484.49,-561.42C468.98,-514.91 424.89,-382.74 406.06,-326.3"/>
<polygon fill="black" stroke="black" points="409.34,-325.05 402.85,-316.67 402.7,-327.27 409.34,-325.05"/>
<text text-anchor="middle" x="440.78" y="-447.66" font-family="Times,serif" font-size="14.00">a</text>
</g>
<!-- https://w3id.org/oseg/ont/oseg&#45;profiles#robinVobruba -->
<g id="node7" class="node">
<title>https://w3id.org/oseg/ont/oseg&#45;profiles#robinVobruba</title>
<ellipse fill="none" stroke="#e377c2" cx="1320.18" cy="-852.15" rx="113.69" ry="16.03"/>
<text text-anchor="middle" x="1320.18" y="-848.45" font-family="Times,serif" font-size="14.00">osegprof:robinVob...</text>
</g>
<!-- https://w3id.org/oseg/ont/okhmeta#IdentificationTag -->
<g id="node8" class="node">
<title>https://w3id.org/oseg/ont/okhmeta#IdentificationTag</title>
<ellipse fill="none" stroke="#e377c2" cx="267.74" cy="-570.98" rx="109.7" ry="16.03"/>
<text text-anchor="middle" x="267.74" y="-567.28" font-family="Times,serif" font-size="14.00">okhmeta:Identific...</text>
</g>
<!-- https://w3id.org/oseg/ont/okhmeta#IdentificationTag&#45;&gt;https://w3id.org/oseg/ont/okhmeta#MetaTag -->
<g id="edge19" class="edge">
<title>https://w3id.org/oseg/ont/okhmeta#IdentificationTag&#45;&gt;https://w3id.org/oseg/ont/okhmeta#MetaTag</title>
<path fill="none" stroke="black" d="M277.07,-554.42C299.52,-514.6 356.63,-413.28 383.33,-365.91"/>
<polygon fill="black" stroke="black" points="386.39,-367.62 388.25,-357.19 380.29,-364.18 386.39,-367.62"/>
<text text-anchor="middle" x="253.2" y="-448.96" font-family="Times,serif" font-size="14.00">okhmeta:hasMetaTag</text>
</g>
<!-- https://w3id.org/oseg/ont/okhmeta#IdentificationTag&#45;&gt;https://w3id.org/oseg/ont/okhmeta#Tag -->
<g id="edge25" class="edge">
<title>https://w3id.org/oseg/ont/okhmeta#IdentificationTag&#45;&gt;https://w3id.org/oseg/ont/okhmeta#Tag</title>
<path fill="none" stroke="black" d="M275.65,-554.45C297.54,-508.74 358.97,-380.41 385.22,-325.58"/>
<polygon fill="black" stroke="black" points="388.39,-327.06 389.55,-316.53 382.08,-324.04 388.39,-327.06"/>
<text text-anchor="middle" x="334.94" y="-443.81" font-family="Times,serif" font-size="14.00">a</text>
</g>
<!-- https://w3id.org/oseg/ont/okhmeta#MakingTag -->
<g id="node9" class="node">
<title>https://w3id.org/oseg/ont/okhmeta#MakingTag</title>
<ellipse fill="none" stroke="#e377c2" cx="164.4" cy="-493.9" rx="113.69" ry="16.03"/>
<text text-anchor="middle" x="164.4" y="-490.2" font-family="Times,serif" font-size="14.00">okhmeta:MakingTag</text>
</g>
<!-- https://w3id.org/oseg/ont/okhmeta#MakingTag&#45;&gt;https://w3id.org/oseg/ont/okhmeta#MetaTag -->
<g id="edge9" class="edge">
<title>https://w3id.org/oseg/ont/okhmeta#MakingTag&#45;&gt;https://w3id.org/oseg/ont/okhmeta#MetaTag</title>
<path fill="none" stroke="black" d="M188.91,-477.81C231.07,-450.11 317.37,-393.41 364.68,-362.34"/>
<polygon fill="black" stroke="black" points="366.88,-365.08 373.32,-356.66 363.04,-359.23 366.88,-365.08"/>
<text text-anchor="middle" x="199.79" y="-423.87" font-family="Times,serif" font-size="14.00">okhmeta:hasMetaTag</text>
</g>
<!-- https://w3id.org/oseg/ont/okhmeta#MakingTag&#45;&gt;https://w3id.org/oseg/ont/okhmeta#Tag -->
<g id="edge5" class="edge">
<title>https://w3id.org/oseg/ont/okhmeta#MakingTag&#45;&gt;https://w3id.org/oseg/ont/okhmeta#Tag</title>
<path fill="none" stroke="black" d="M183.86,-477.72C225.42,-443.17 322.9,-362.13 370.4,-322.64"/>
<polygon fill="black" stroke="black" points="372.67,-325.3 378.12,-316.22 368.19,-319.92 372.67,-325.3"/>
<text text-anchor="middle" x="272.63" y="-403.98" font-family="Times,serif" font-size="14.00">a</text>
</g>
<!-- https://w3id.org/oseg/ont/okhmeta#HistoryTag -->
<g id="node10" class="node">
<title>https://w3id.org/oseg/ont/okhmeta#HistoryTag</title>
<ellipse fill="none" stroke="#e377c2" cx="666.88" cy="-212.84" rx="113.69" ry="16.03"/>
<text text-anchor="middle" x="666.88" y="-209.14" font-family="Times,serif" font-size="14.00">okhmeta:HistoryTag</text>
</g>
<!-- https://w3id.org/oseg/ont/okhmeta#HistoryTag&#45;&gt;https://w3id.org/oseg/ont/okhmeta#MetaTag -->
<g id="edge30" class="edge">
<title>https://w3id.org/oseg/ont/okhmeta#HistoryTag&#45;&gt;https://w3id.org/oseg/ont/okhmeta#MetaTag</title>
<path fill="none" stroke="black" d="M633.84,-228.53C584.94,-251.76 493.28,-295.29 439.61,-320.78"/>
<polygon fill="black" stroke="black" points="437.91,-317.71 430.38,-325.17 440.91,-324.04 437.91,-317.71"/>
<text text-anchor="middle" x="613.73" y="-278.45" font-family="Times,serif" font-size="14.00">okhmeta:hasMetaTag</text>
</g>
<!-- https://w3id.org/oseg/ont/okhmeta#HistoryTag&#45;&gt;https://w3id.org/oseg/ont/okhmeta#Tag -->
<g id="edge7" class="edge">
<title>https://w3id.org/oseg/ont/okhmeta#HistoryTag&#45;&gt;https://w3id.org/oseg/ont/okhmeta#Tag</title>
<path fill="none" stroke="black" d="M620.85,-227.76C573.21,-243.21 498.94,-267.29 449.24,-283.4"/>
<polygon fill="black" stroke="black" points="448.08,-280.1 439.65,-286.51 450.24,-286.76 448.08,-280.1"/>
<text text-anchor="middle" x="530.55" y="-259.38" font-family="Times,serif" font-size="14.00">a</text>
</g>
<!-- https://w3id.org/oseg/ont/okhmeta#hasMetaTag -->
<g id="node11" class="node">
<title>https://w3id.org/oseg/ont/okhmeta#hasMetaTag</title>
<ellipse fill="none" stroke="#e377c2" cx="396.19" cy="-397.27" rx="120.42" ry="16.03"/>
<text text-anchor="middle" x="396.19" y="-393.57" font-family="Times,serif" font-size="14.00">okhmeta:hasMetaTag</text>
</g>
<!-- https://w3id.org/oseg/ont/okhmeta#hasMetaTag&#45;&gt;https://w3id.org/oseg/ont/okhmeta#MetaTag -->
<g id="edge26" class="edge">
<title>https://w3id.org/oseg/ont/okhmeta#hasMetaTag&#45;&gt;https://w3id.org/oseg/ont/okhmeta#MetaTag</title>
<path fill="none" stroke="black" d="M402.79,-380.77C403.29,-376.61 403.57,-372.03 403.62,-367.5"/>
<polygon fill="black" stroke="black" points="407.11,-367.14 403.3,-357.25 400.12,-367.36 407.11,-367.14"/>
<text text-anchor="middle" x="483.21" y="-362.94" font-family="Times,serif" font-size="14.00">schema:rangeIncludes</text>
</g>
<!-- https://w3id.org/oseg/ont/okhmeta#hasMetaTag&#45;&gt;https://w3id.org/oseg/ont/okhmeta#MetaTag -->
<g id="edge46" class="edge">
<title>https://w3id.org/oseg/ont/okhmeta#hasMetaTag&#45;&gt;https://w3id.org/oseg/ont/okhmeta#MetaTag</title>
<path fill="none" stroke="black" d="M390.39,-380.79C390.06,-376.6 389.98,-371.99 390.14,-367.44"/>
<polygon fill="black" stroke="black" points="393.65,-367.37 390.92,-357.14 386.67,-366.84 393.65,-367.37"/>
<text text-anchor="middle" x="313.26" y="-362.91" font-family="Times,serif" font-size="14.00">okhmeta:hasMetaTag</text>
</g>
<!-- https://w3id.org/oseg/ont/okhmeta#hasMetaTag&#45;&gt;http://www.w3.org/2004/02/skos/core#Concept -->
<g id="edge33" class="edge">
<title>https://w3id.org/oseg/ont/okhmeta#hasMetaTag&#45;&gt;http://www.w3.org/2004/02/skos/core#Concept</title>
<path fill="none" stroke="black" d="M395.87,-413.77C395.86,-413.93 395.86,-414.09 395.86,-414.25"/>
<polygon fill="black" stroke="black" points="392.41,-411.41 395.72,-421.48 399.41,-411.55 392.41,-411.41"/>
<text text-anchor="middle" x="391.36" y="-417.81" font-family="Times,serif" font-size="14.00">a</text>
</g>
<!-- http://www.w3.org/2004/02/skos/core#member -->
<g id="node27" class="node">
<title>http://www.w3.org/2004/02/skos/core#member</title>
<ellipse fill="none" stroke="#e377c2" cx="383.05" cy="-722.03" rx="79.39" ry="16.03"/>
<text text-anchor="middle" x="383.05" y="-718.33" font-family="Times,serif" font-size="14.00">skos:member</text>
</g>
<!-- https://w3id.org/oseg/ont/okhmeta#hasMetaTag&#45;&gt;http://www.w3.org/2004/02/skos/core#member -->
<g id="edge21" class="edge">
<title>https://w3id.org/oseg/ont/okhmeta#hasMetaTag&#45;&gt;http://www.w3.org/2004/02/skos/core#member</title>
<path fill="none" stroke="black" d="M395.52,-413.82C393.39,-466.49 386.75,-630.5 384.13,-695.3"/>
<polygon fill="black" stroke="black" points="380.62,-695.38 383.71,-705.51 387.62,-695.66 380.62,-695.38"/>
<text text-anchor="middle" x="336.83" y="-543.36" font-family="Times,serif" font-size="14.00">subPropertyOf</text>
</g>
<!-- https://w3id.org/oseg/ont/okhmeta#PartsTag -->
<g id="node12" class="node">
<title>https://w3id.org/oseg/ont/okhmeta#PartsTag</title>
<ellipse fill="none" stroke="#e377c2" cx="122.36" cy="-282.96" rx="103.48" ry="16.03"/>
<text text-anchor="middle" x="122.36" y="-279.26" font-family="Times,serif" font-size="14.00">okhmeta:PartsTag</text>
</g>
<!-- https://w3id.org/oseg/ont/okhmeta#PartsTag&#45;&gt;https://w3id.org/oseg/ont/okhmeta#MetaTag -->
<g id="edge20" class="edge">
<title>https://w3id.org/oseg/ont/okhmeta#PartsTag&#45;&gt;https://w3id.org/oseg/ont/okhmeta#MetaTag</title>
<path fill="none" stroke="black" d="M184.45,-296.01C226.36,-304.82 281.8,-316.47 325.62,-325.68"/>
<polygon fill="black" stroke="black" points="325.13,-329.15 335.63,-327.78 326.57,-322.3 325.13,-329.15"/>
<text text-anchor="middle" x="178.03" y="-314.64" font-family="Times,serif" font-size="14.00">okhmeta:hasMetaTag</text>
</g>
<!-- https://w3id.org/oseg/ont/okhmeta#PartsTag&#45;&gt;https://w3id.org/oseg/ont/okhmeta#Tag -->
<g id="edge27" class="edge">
<title>https://w3id.org/oseg/ont/okhmeta#PartsTag&#45;&gt;https://w3id.org/oseg/ont/okhmeta#Tag</title>
<path fill="none" stroke="black" d="M218.54,-289C249.58,-290.94 283.7,-293.09 313.75,-294.97"/>
<polygon fill="black" stroke="black" points="313.58,-298.47 323.77,-295.6 314.01,-291.48 313.58,-298.47"/>
<text text-anchor="middle" x="261.65" y="-295.78" font-family="Times,serif" font-size="14.00">a</text>
</g>
<!-- https://w3id.org/oseg/ont/okhmeta#DocumentationTag -->
<g id="node13" class="node">
<title>https://w3id.org/oseg/ont/okhmeta#DocumentationTag</title>
<ellipse fill="none" stroke="#e377c2" cx="703.69" cy="-314.3" rx="125.32" ry="16.03"/>
<text text-anchor="middle" x="703.69" y="-310.6" font-family="Times,serif" font-size="14.00">okhmeta:Documenta...</text>
</g>
<!-- https://w3id.org/oseg/ont/okhmeta#DocumentationTag&#45;&gt;https://w3id.org/oseg/ont/okhmeta#MetaTag -->
<g id="edge42" class="edge">
<title>https://w3id.org/oseg/ont/okhmeta#DocumentationTag&#45;&gt;https://w3id.org/oseg/ont/okhmeta#MetaTag</title>
<path fill="none" stroke="black" d="M599.17,-323.34C566.36,-326.18 530.22,-329.3 497.71,-332.11"/>
<polygon fill="black" stroke="black" points="497.41,-328.63 487.75,-332.98 498.01,-335.6 497.41,-328.63"/>
<text text-anchor="middle" x="509.94" y="-316.53" font-family="Times,serif" font-size="14.00">okhmeta:hasMetaTag</text>
</g>
<!-- https://w3id.org/oseg/ont/okhmeta#DocumentationTag&#45;&gt;https://w3id.org/oseg/ont/okhmeta#Tag -->
<g id="edge8" class="edge">
<title>https://w3id.org/oseg/ont/okhmeta#DocumentationTag&#45;&gt;https://w3id.org/oseg/ont/okhmeta#Tag</title>
<path fill="none" stroke="black" d="M585.69,-308.87C551.32,-307.3 514.45,-305.6 482.53,-304.13"/>
<polygon fill="black" stroke="black" points="482.5,-300.63 472.35,-303.67 482.18,-307.62 482.5,-300.63"/>
<text text-anchor="middle" x="529.61" y="-295.3" font-family="Times,serif" font-size="14.00">a</text>
</g>
<!-- https://w3id.org/oseg/ont/okhmeta#DataTag -->
<g id="node14" class="node">
<title>https://w3id.org/oseg/ont/okhmeta#DataTag</title>
<ellipse fill="none" stroke="#e377c2" cx="310.63" cy="-57.43" rx="100.32" ry="16.03"/>
<text text-anchor="middle" x="310.63" y="-53.73" font-family="Times,serif" font-size="14.00">okhmeta:DataTag</text>
</g>
<!-- https://w3id.org/oseg/ont/okhmeta#DataTag&#45;&gt;https://w3id.org/oseg/ont/okhmeta#MetaTag -->
<g id="edge44" class="edge">
<title>https://w3id.org/oseg/ont/okhmeta#DataTag&#45;&gt;https://w3id.org/oseg/ont/okhmeta#MetaTag</title>
<path fill="none" stroke="black" d="M315.68,-73.89C330.13,-121.03 371.78,-256.88 389.43,-314.47"/>
<polygon fill="black" stroke="black" points="386.16,-315.74 392.44,-324.28 392.85,-313.69 386.16,-315.74"/>
<text text-anchor="middle" x="429.56" y="-182.98" font-family="Times,serif" font-size="14.00">okhmeta:hasMetaTag</text>
</g>
<!-- https://w3id.org/oseg/ont/okhmeta#DataTag&#45;&gt;https://w3id.org/oseg/ont/okhmeta#Tag -->
<g id="edge10" class="edge">
<title>https://w3id.org/oseg/ont/okhmeta#DataTag&#45;&gt;https://w3id.org/oseg/ont/okhmeta#Tag</title>
<path fill="none" stroke="black" d="M316.46,-73.73C331.24,-115.11 370.3,-224.45 388.18,-274.52"/>
<polygon fill="black" stroke="black" points="384.9,-275.74 391.56,-283.98 391.5,-273.39 384.9,-275.74"/>
<text text-anchor="middle" x="347.82" y="-177.93" font-family="Times,serif" font-size="14.00">a</text>
</g>
<!-- https://w3id.org/oseg/ont/oseg&#45;profiles#Iopa -->
<g id="node15" class="node">
<title>https://w3id.org/oseg/ont/oseg&#45;profiles#Iopa</title>
<ellipse fill="none" stroke="#e377c2" cx="1085.55" cy="-730.42" rx="80.72" ry="16.03"/>
<text text-anchor="middle" x="1085.55" y="-726.72" font-family="Times,serif" font-size="14.00">osegprof:Iopa</text>
</g>
<!-- https://w3id.org/oseg/ont/1.1.0/okh&#45;meta -->
<g id="node16" class="node">
<title>https://w3id.org/oseg/ont/1.1.0/okh&#45;meta</title>
<ellipse fill="none" stroke="#e377c2" cx="1031.98" cy="-818.98" rx="79.81" ry="16.03"/>
<text text-anchor="middle" x="1031.98" y="-815.28" font-family="Times,serif" font-size="14.00">ns1:okh&#45;meta</text>
</g>
<!-- https://w3id.org/oseg/ont/okhmeta#ExtendedInfoTag -->
<g id="node17" class="node">
<title>https://w3id.org/oseg/ont/okhmeta#ExtendedInfoTag</title>
<ellipse fill="none" stroke="#e377c2" cx="550.21" cy="-57.31" rx="120.42" ry="16.03"/>
<text text-anchor="middle" x="550.21" y="-53.61" font-family="Times,serif" font-size="14.00">okhmeta:ExtendedI...</text>
</g>
<!-- https://w3id.org/oseg/ont/okhmeta#ExtendedInfoTag&#45;&gt;https://w3id.org/oseg/ont/okhmeta#MetaTag -->
<g id="edge17" class="edge">
<title>https://w3id.org/oseg/ont/okhmeta#ExtendedInfoTag&#45;&gt;https://w3id.org/oseg/ont/okhmeta#MetaTag</title>
<path fill="none" stroke="black" d="M541.34,-73.77C515.82,-121.13 442.1,-257.97 411.29,-315.17"/>
<polygon fill="black" stroke="black" points="408.05,-313.81 406.39,-324.27 414.22,-317.13 408.05,-313.81"/>
<text text-anchor="middle" x="399.31" y="-198.27" font-family="Times,serif" font-size="14.00">okhmeta:hasMetaTag</text>
</g>
<!-- https://w3id.org/oseg/ont/okhmeta#ExtendedInfoTag&#45;&gt;https://w3id.org/oseg/ont/okhmeta#Tag -->
<g id="edge11" class="edge">
<title>https://w3id.org/oseg/ont/okhmeta#ExtendedInfoTag&#45;&gt;https://w3id.org/oseg/ont/okhmeta#Tag</title>
<path fill="none" stroke="black" d="M539.94,-73.62C513.73,-115.28 444.2,-225.78 412.95,-275.44"/>
<polygon fill="black" stroke="black" points="409.95,-273.65 407.58,-283.97 415.87,-277.37 409.95,-273.65"/>
<text text-anchor="middle" x="471.95" y="-163.33" font-family="Times,serif" font-size="14.00">a</text>
</g>
<!-- http://id.loc.gov/vocabulary/iso639&#45;1/en -->
<g id="node18" class="node">
<title>http://id.loc.gov/vocabulary/iso639&#45;1/en</title>
<ellipse fill="none" stroke="#e377c2" cx="1168.16" cy="-608.69" rx="45.01" ry="16.03"/>
<text text-anchor="middle" x="1168.16" y="-604.99" font-family="Times,serif" font-size="14.00">ns2:en</text>
</g>
<!-- https://w3id.org/oseg/ont/okhmeta -->
<g id="node19" class="node">
<title>https://w3id.org/oseg/ont/okhmeta</title>
<ellipse fill="none" stroke="#e377c2" cx="1072.6" cy="-771.05" rx="76.24" ry="16.03"/>
<text text-anchor="middle" x="1072.6" y="-767.35" font-family="Times,serif" font-size="14.00">ns3:okhmeta</text>
</g>
<!-- https://w3id.org/oseg/ont/okhmeta&#45;&gt;http://spdx.org/rdf/terms#File -->
<g id="edge13" class="edge">
<title>https://w3id.org/oseg/ont/okhmeta&#45;&gt;http://spdx.org/rdf/terms#File</title>
<path fill="none" stroke="black" d="M1065.11,-787.24C1049.51,-820.95 1013.46,-898.87 994.72,-939.37"/>
<polygon fill="black" stroke="black" points="991.48,-938.04 990.46,-948.59 997.83,-940.98 991.48,-938.04"/>
<text text-anchor="middle" x="1025.41" y="-867.11" font-family="Times,serif" font-size="14.00">a</text>
</g>
<!-- https://w3id.org/oseg/ont/okhmeta&#45;&gt;https://w3id.org/oseg/ont/oseg&#45;profiles#robinVobruba -->
<g id="edge3" class="edge">
<title>https://w3id.org/oseg/ont/okhmeta&#45;&gt;https://w3id.org/oseg/ont/oseg&#45;profiles#robinVobruba</title>
<path fill="none" stroke="black" d="M1103.49,-786.15C1139.75,-800.23 1201.02,-820.79 1249.18,-835.34"/>
<polygon fill="black" stroke="black" points="1248.35,-838.75 1258.93,-838.26 1250.36,-832.04 1248.35,-838.75"/>
<text text-anchor="middle" x="1231.84" y="-814.55" font-family="Times,serif" font-size="14.00">schema:creator</text>
</g>
<!-- https://w3id.org/oseg/ont/okhmeta&#45;&gt;https://w3id.org/oseg/ont/oseg&#45;profiles#robinVobruba -->
<g id="edge22" class="edge">
<title>https://w3id.org/oseg/ont/okhmeta&#45;&gt;https://w3id.org/oseg/ont/oseg&#45;profiles#robinVobruba</title>
<path fill="none" stroke="black" d="M1126.25,-782.72C1171.87,-795.96 1236.46,-817.23 1278.34,-832.89"/>
<polygon fill="black" stroke="black" points="1277.11,-836.16 1287.7,-836.44 1279.59,-829.62 1277.11,-836.16"/>
<text text-anchor="middle" x="1259.8" y="-796.6" font-family="Times,serif" font-size="14.00">dcterms:creator</text>
</g>
<!-- https://w3id.org/oseg/ont/okhmeta&#45;&gt;https://w3id.org/oseg/ont/oseg&#45;profiles#Iopa -->
<g id="edge31" class="edge">
<title>https://w3id.org/oseg/ont/okhmeta&#45;&gt;https://w3id.org/oseg/ont/oseg&#45;profiles#Iopa</title>
<path fill="none" stroke="black" d="M1077.87,-754.53C1077.92,-754.37 1077.97,-754.21 1078.02,-754.05"/>
<polygon fill="black" stroke="black" points="1080.63,-757.39 1080.33,-746.8 1073.96,-755.27 1080.63,-757.39"/>
<text text-anchor="middle" x="1012.45" y="-743.09" font-family="Times,serif" font-size="14.00">dcterms:publisher</text>
</g>
<!-- https://w3id.org/oseg/ont/okhmeta&#45;&gt;https://w3id.org/oseg/ont/1.1.0/okh&#45;meta -->
<g id="edge32" class="edge">
<title>https://w3id.org/oseg/ont/okhmeta&#45;&gt;https://w3id.org/oseg/ont/1.1.0/okh&#45;meta</title>
<path fill="none" stroke="black" d="M1058.85,-787.28C1056.73,-789.78 1054.51,-792.4 1052.28,-795.03"/>
<polygon fill="black" stroke="black" points="1049.51,-792.88 1045.72,-802.77 1054.85,-797.41 1049.51,-792.88"/>
<text text-anchor="middle" x="1107.07" y="-794.95" font-family="Times,serif" font-size="14.00">owl:versionIRI</text>
</g>
<!-- https://w3id.org/oseg/ont/okhmeta&#45;&gt;http://id.loc.gov/vocabulary/iso639&#45;1/en -->
<g id="edge12" class="edge">
<title>https://w3id.org/oseg/ont/okhmeta&#45;&gt;http://id.loc.gov/vocabulary/iso639&#45;1/en</title>
<path fill="none" stroke="black" d="M1082.11,-754.89C1098.86,-726.44 1133.69,-667.25 1153.52,-633.56"/>
<polygon fill="black" stroke="black" points="1156.63,-635.18 1158.69,-624.78 1150.6,-631.63 1156.63,-635.18"/>
<text text-anchor="middle" x="1053.32" y="-698.03" font-family="Times,serif" font-size="14.00">dcterms:language</text>
</g>
<!-- https://spdx.org/licenses/GPL&#45;3.0&#45;or&#45;later -->
<g id="node25" class="node">
<title>https://spdx.org/licenses/GPL&#45;3.0&#45;or&#45;later</title>
<ellipse fill="none" stroke="#e377c2" cx="848.7" cy="-644.23" rx="108.79" ry="16.03"/>
<text text-anchor="middle" x="848.7" y="-640.53" font-family="Times,serif" font-size="14.00">spdxl:GPL&#45;3.0&#45;or&#45;...</text>
</g>
<!-- https://w3id.org/oseg/ont/okhmeta&#45;&gt;https://spdx.org/licenses/GPL&#45;3.0&#45;or&#45;later -->
<g id="edge40" class="edge">
<title>https://w3id.org/oseg/ont/okhmeta&#45;&gt;https://spdx.org/licenses/GPL&#45;3.0&#45;or&#45;later</title>
<path fill="none" stroke="black" d="M1045.59,-755.75C1005.55,-733.07 930.33,-690.46 885.35,-664.99"/>
<polygon fill="black" stroke="black" points="886.94,-661.86 876.51,-659.98 883.49,-667.95 886.94,-661.86"/>
<text text-anchor="middle" x="886.47" y="-714.17" font-family="Times,serif" font-size="14.00">spdxt:licenseDeclared</text>
</g>
<!-- https://w3id.org/oseg/ont/okhmeta#LegalTag -->
<g id="node20" class="node">
<title>https://w3id.org/oseg/ont/okhmeta#LegalTag</title>
<ellipse fill="none" stroke="#e377c2" cx="126.46" cy="-387.31" rx="103.89" ry="16.03"/>
<text text-anchor="middle" x="126.46" y="-383.61" font-family="Times,serif" font-size="14.00">okhmeta:LegalTag</text>
</g>
<!-- https://w3id.org/oseg/ont/okhmeta#LegalTag&#45;&gt;https://w3id.org/oseg/ont/okhmeta#MetaTag -->
<g id="edge15" class="edge">
<title>https://w3id.org/oseg/ont/okhmeta#LegalTag&#45;&gt;https://w3id.org/oseg/ont/okhmeta#MetaTag</title>
<path fill="none" stroke="black" d="M196.61,-375.27C233.62,-368.91 279.17,-361.09 317.54,-354.51"/>
<polygon fill="black" stroke="black" points="318.38,-357.91 327.64,-352.77 317.19,-351.02 318.38,-357.91"/>
<text text-anchor="middle" x="180.08" y="-353.69" font-family="Times,serif" font-size="14.00">okhmeta:hasMetaTag</text>
</g>
<!-- https://w3id.org/oseg/ont/okhmeta#LegalTag&#45;&gt;https://w3id.org/oseg/ont/okhmeta#Tag -->
<g id="edge36" class="edge">
<title>https://w3id.org/oseg/ont/okhmeta#LegalTag&#45;&gt;https://w3id.org/oseg/ont/okhmeta#Tag</title>
<path fill="none" stroke="black" d="M172.11,-372.63C220.03,-357.23 295.25,-333.04 345.42,-316.92"/>
<polygon fill="black" stroke="black" points="346.65,-320.2 355.1,-313.81 344.51,-313.53 346.65,-320.2"/>
<text text-anchor="middle" x="263.26" y="-348.58" font-family="Times,serif" font-size="14.00">a</text>
</g>
<!-- https://w3id.org/oseg/ont/okhmeta#DevelopmentTag -->
<g id="node21" class="node">
<title>https://w3id.org/oseg/ont/okhmeta#DevelopmentTag</title>
<ellipse fill="none" stroke="#e377c2" cx="124.06" cy="-179.57" rx="124.4" ry="16.03"/>
<text text-anchor="middle" x="124.06" y="-175.87" font-family="Times,serif" font-size="14.00">okhmeta:Developme...</text>
</g>
<!-- https://w3id.org/oseg/ont/okhmeta#DevelopmentTag&#45;&gt;https://w3id.org/oseg/ont/okhmeta#MetaTag -->
<g id="edge4" class="edge">
<title>https://w3id.org/oseg/ont/okhmeta#DevelopmentTag&#45;&gt;https://w3id.org/oseg/ont/okhmeta#MetaTag</title>
<path fill="none" stroke="black" d="M151.27,-195.62C201.05,-224.96 306.71,-287.26 362.04,-319.88"/>
<polygon fill="black" stroke="black" points="360.4,-322.97 370.79,-325.04 363.95,-316.94 360.4,-322.97"/>
<text text-anchor="middle" x="179.66" y="-246.55" font-family="Times,serif" font-size="14.00">okhmeta:hasMetaTag</text>
</g>
<!-- https://w3id.org/oseg/ont/okhmeta#DevelopmentTag&#45;&gt;https://w3id.org/oseg/ont/okhmeta#Tag -->
<g id="edge14" class="edge">
<title>https://w3id.org/oseg/ont/okhmeta#DevelopmentTag&#45;&gt;https://w3id.org/oseg/ont/okhmeta#Tag</title>
<path fill="none" stroke="black" d="M159.51,-195.22C209.65,-217.35 301.14,-257.74 354.86,-281.46"/>
<polygon fill="black" stroke="black" points="353.55,-284.71 364.11,-285.54 356.38,-278.3 353.55,-284.71"/>
<text text-anchor="middle" x="252.68" y="-227.14" font-family="Times,serif" font-size="14.00">a</text>
</g>
<!-- https://w3id.org/oseg/ont/okhmeta#PhysicalTag -->
<g id="node22" class="node">
<title>https://w3id.org/oseg/ont/okhmeta#PhysicalTag</title>
<ellipse fill="none" stroke="#e377c2" cx="416.53" cy="-16.65" rx="118.17" ry="16.03"/>
<text text-anchor="middle" x="416.53" y="-12.95" font-family="Times,serif" font-size="14.00">okhmeta:PhysicalTag</text>
</g>
<!-- https://w3id.org/oseg/ont/okhmeta#PhysicalTag&#45;&gt;https://w3id.org/oseg/ont/okhmeta#MetaTag -->
<g id="edge6" class="edge">
<title>https://w3id.org/oseg/ont/okhmeta#PhysicalTag&#45;&gt;https://w3id.org/oseg/ont/okhmeta#MetaTag</title>
<path fill="none" stroke="black" d="M415.56,-33.17C412.48,-85.73 402.86,-249.43 399.06,-314.11"/>
<polygon fill="black" stroke="black" points="395.56,-314.11 398.46,-324.3 402.55,-314.52 395.56,-314.11"/>
<text text-anchor="middle" x="330.31" y="-162.44" font-family="Times,serif" font-size="14.00">okhmeta:hasMetaTag</text>
</g>
<!-- https://w3id.org/oseg/ont/okhmeta#PhysicalTag&#45;&gt;https://w3id.org/oseg/ont/okhmeta#Tag -->
<g id="edge16" class="edge">
<title>https://w3id.org/oseg/ont/okhmeta#PhysicalTag&#45;&gt;https://w3id.org/oseg/ont/okhmeta#Tag</title>
<path fill="none" stroke="black" d="M415.42,-33.13C412.24,-80.21 403.08,-215.69 399.17,-273.53"/>
<polygon fill="black" stroke="black" points="395.66,-273.49 398.48,-283.7 402.65,-273.96 395.66,-273.49"/>
<text text-anchor="middle" x="402.79" y="-142.13" font-family="Times,serif" font-size="14.00">a</text>
</g>
<!-- https://w3id.org/oseg/ont/okhmeta#AcademicTag -->
<g id="node23" class="node">
<title>https://w3id.org/oseg/ont/okhmeta#AcademicTag</title>
<ellipse fill="none" stroke="#e377c2" cx="626.03" cy="-115.97" rx="124.4" ry="16.03"/>
<text text-anchor="middle" x="626.03" y="-112.27" font-family="Times,serif" font-size="14.00">okhmeta:AcademicTag</text>
</g>
<!-- https://w3id.org/oseg/ont/okhmeta#AcademicTag&#45;&gt;https://w3id.org/oseg/ont/okhmeta#MetaTag -->
<g id="edge29" class="edge">
<title>https://w3id.org/oseg/ont/okhmeta#AcademicTag&#45;&gt;https://w3id.org/oseg/ont/okhmeta#MetaTag</title>
<path fill="none" stroke="black" d="M609.59,-132.13C569.75,-171.33 467.86,-271.56 421.33,-317.34"/>
<polygon fill="black" stroke="black" points="418.76,-314.95 414.09,-324.46 423.67,-319.94 418.76,-314.95"/>
<text text-anchor="middle" x="438.46" y="-228.54" font-family="Times,serif" font-size="14.00">okhmeta:hasMetaTag</text>
</g>
<!-- https://w3id.org/oseg/ont/okhmeta#AcademicTag&#45;&gt;https://w3id.org/oseg/ont/okhmeta#Tag -->
<g id="edge39" class="edge">
<title>https://w3id.org/oseg/ont/okhmeta#AcademicTag&#45;&gt;https://w3id.org/oseg/ont/okhmeta#Tag</title>
<path fill="none" stroke="black" d="M605.74,-132.32C564.6,-165.47 471.33,-240.62 424.81,-278.1"/>
<polygon fill="black" stroke="black" points="422.55,-275.43 416.96,-284.43 426.94,-280.88 422.55,-275.43"/>
<text text-anchor="middle" x="510.77" y="-209.01" font-family="Times,serif" font-size="14.00">a</text>
</g>
<!-- https://w3id.org/oseg/ont/okhmeta#TransportationTag -->
<g id="node24" class="node">
<title>https://w3id.org/oseg/ont/okhmeta#TransportationTag</title>
<ellipse fill="none" stroke="#e377c2" cx="673.81" cy="-423.11" rx="118.17" ry="16.03"/>
<text text-anchor="middle" x="673.81" y="-419.41" font-family="Times,serif" font-size="14.00">okhmeta:Transport...</text>
</g>
<!-- https://w3id.org/oseg/ont/okhmeta#TransportationTag&#45;&gt;https://w3id.org/oseg/ont/okhmeta#MetaTag -->
<g id="edge43" class="edge">
<title>https://w3id.org/oseg/ont/okhmeta#TransportationTag&#45;&gt;https://w3id.org/oseg/ont/okhmeta#MetaTag</title>
<path fill="none" stroke="black" d="M624.1,-408.29C576.75,-394.19 505.51,-372.96 455.58,-358.09"/>
<polygon fill="black" stroke="black" points="456.47,-354.7 445.89,-355.2 454.47,-361.41 456.47,-354.7"/>
<text text-anchor="middle" x="616.84" y="-386.99" font-family="Times,serif" font-size="14.00">okhmeta:hasMetaTag</text>
</g>
<!-- https://w3id.org/oseg/ont/okhmeta#TransportationTag&#45;&gt;https://w3id.org/oseg/ont/okhmeta#Tag -->
<g id="edge18" class="edge">
<title>https://w3id.org/oseg/ont/okhmeta#TransportationTag&#45;&gt;https://w3id.org/oseg/ont/okhmeta#Tag</title>
<path fill="none" stroke="black" d="M638.8,-407.54C588.09,-385 494.31,-343.31 439.76,-319.06"/>
<polygon fill="black" stroke="black" points="440.93,-315.75 430.37,-314.89 438.09,-322.15 440.93,-315.75"/>
<text text-anchor="middle" x="534.78" y="-352.1" font-family="Times,serif" font-size="14.00">a</text>
</g>
<!-- https://w3id.org/oseg/ont/okhmeta#DataGatheringTag -->
<g id="node26" class="node">
<title>https://w3id.org/oseg/ont/okhmeta#DataGatheringTag</title>
<ellipse fill="none" stroke="#e377c2" cx="179.78" cy="-98.44" rx="122.16" ry="16.03"/>
<text text-anchor="middle" x="179.78" y="-94.74" font-family="Times,serif" font-size="14.00">okhmeta:DataGathe...</text>
</g>
<!-- https://w3id.org/oseg/ont/okhmeta#DataGatheringTag&#45;&gt;https://w3id.org/oseg/ont/okhmeta#MetaTag -->
<g id="edge35" class="edge">
<title>https://w3id.org/oseg/ont/okhmeta#DataGatheringTag&#45;&gt;https://w3id.org/oseg/ont/okhmeta#MetaTag</title>
<path fill="none" stroke="black" d="M194.4,-114.71C231.97,-156.53 332.02,-267.89 376.11,-316.98"/>
<polygon fill="black" stroke="black" points="373.65,-319.47 382.94,-324.57 378.86,-314.8 373.65,-319.47"/>
<text text-anchor="middle" x="208.26" y="-204.65" font-family="Times,serif" font-size="14.00">okhmeta:hasMetaTag</text>
</g>
<!-- https://w3id.org/oseg/ont/okhmeta#DataGatheringTag&#45;&gt;https://w3id.org/oseg/ont/okhmeta#Tag -->
<g id="edge41" class="edge">
<title>https://w3id.org/oseg/ont/okhmeta#DataGatheringTag&#45;&gt;https://w3id.org/oseg/ont/okhmeta#Tag</title>
<path fill="none" stroke="black" d="M197.22,-114.61C235.74,-150.34 328.22,-236.1 372.68,-277.33"/>
<polygon fill="black" stroke="black" points="370.43,-280.02 380.14,-284.25 375.19,-274.88 370.43,-280.02"/>
<text text-anchor="middle" x="280.45" y="-184.77" font-family="Times,serif" font-size="14.00">a</text>
</g>
<!-- https://w3id.org/oseg/ont/okhmeta#QualityTag -->
<g id="node28" class="node">
<title>https://w3id.org/oseg/ont/okhmeta#QualityTag</title>
<ellipse fill="none" stroke="#e377c2" cx="606.07" cy="-518.7" rx="113.27" ry="16.03"/>
<text text-anchor="middle" x="606.07" y="-515" font-family="Times,serif" font-size="14.00">okhmeta:QualityTag</text>
</g>
<!-- https://w3id.org/oseg/ont/okhmeta#QualityTag&#45;&gt;https://w3id.org/oseg/ont/okhmeta#MetaTag -->
<g id="edge24" class="edge">
<title>https://w3id.org/oseg/ont/okhmeta#QualityTag&#45;&gt;https://w3id.org/oseg/ont/okhmeta#MetaTag</title>
<path fill="none" stroke="black" d="M587.2,-502.6C549.98,-470.86 467.06,-400.12 424.24,-363.59"/>
<polygon fill="black" stroke="black" points="426.36,-360.8 416.48,-356.98 421.82,-366.13 426.36,-360.8"/>
<text text-anchor="middle" x="582.72" y="-436.9" font-family="Times,serif" font-size="14.00">okhmeta:hasMetaTag</text>
</g>
<!-- https://w3id.org/oseg/ont/okhmeta#QualityTag&#45;&gt;https://w3id.org/oseg/ont/okhmeta#Tag -->
<g id="edge45" class="edge">
<title>https://w3id.org/oseg/ont/okhmeta#QualityTag&#45;&gt;https://w3id.org/oseg/ont/okhmeta#Tag</title>
<path fill="none" stroke="black" d="M590.39,-502.28C553.72,-463.9 462.3,-368.2 419.77,-323.68"/>
<polygon fill="black" stroke="black" points="422.1,-321.05 412.67,-316.24 417.04,-325.89 422.1,-321.05"/>
<text text-anchor="middle" x="500.58" y="-416.78" font-family="Times,serif" font-size="14.00">a</text>
</g>
</g>
</svg>
