<?xml version="1.0" encoding="UTF-8" standalone="no"?>
<!DOCTYPE svg PUBLIC "-//W3C//DTD SVG 1.1//EN"
 "http://www.w3.org/Graphics/SVG/1.1/DTD/svg11.dtd">
<!-- Generated by graphviz version 2.43.0 (0)
 -->
<!-- Title: G Pages: 1 -->
<svg width="2463pt" height="1835pt"
 viewBox="0.00 0.00 2463.00 1835.00" xmlns="http://www.w3.org/2000/svg" xmlns:xlink="http://www.w3.org/1999/xlink">
<g id="graph0" class="graph" transform="scale(1 1) rotate(0) translate(4 1831)">
<title>G</title>
<polygon fill="white" stroke="transparent" points="-4,4 -4,-1831 2459,-1831 2459,4 -4,4"/>
<!-- http://w3id.org/oseg/ont/otrl#OTRL -->
<g id="node1" class="node">
<title>http://w3id.org/oseg/ont/otrl#OTRL</title>
<ellipse fill="none" stroke="#e377c2" cx="886.51" cy="-540.14" rx="60.62" ry="16.03"/>
<text text-anchor="middle" x="886.51" y="-536.44" font-family="Times,serif" font-size="14.00">otrl:OTRL</text>
</g>
<!-- http://spdx.org/rdf/terms#SpdxItem -->
<g id="node2" class="node">
<title>http://spdx.org/rdf/terms#SpdxItem</title>
<ellipse fill="none" stroke="#1f77b4" cx="873.06" cy="-1590.74" rx="87.86" ry="16.03"/>
<text text-anchor="middle" x="873.06" y="-1587.04" font-family="Times,serif" font-size="14.00">spdx:SpdxItem</text>
</g>
<!-- http://w3id.org/oseg/ont/otrl#ODRL -->
<g id="node3" class="node">
<title>http://w3id.org/oseg/ont/otrl#ODRL</title>
<ellipse fill="none" stroke="#e377c2" cx="1467.28" cy="-845.14" rx="62.87" ry="16.03"/>
<text text-anchor="middle" x="1467.28" y="-841.44" font-family="Times,serif" font-size="14.00">otrl:ODRL</text>
</g>
<!-- http://w3id.org/oseg/ont/otrl#OTRL5 -->
<g id="node4" class="node">
<title>http://w3id.org/oseg/ont/otrl#OTRL5</title>
<ellipse fill="none" stroke="#e377c2" cx="763.43" cy="-698.62" rx="67.35" ry="16.03"/>
<text text-anchor="middle" x="763.43" y="-694.92" font-family="Times,serif" font-size="14.00">otrl:OTRL5</text>
</g>
<!-- http://w3id.org/oseg/ont/otrl#OTRL5&#45;&gt;http://w3id.org/oseg/ont/otrl#OTRL -->
<g id="edge1" class="edge">
<title>http://w3id.org/oseg/ont/otrl#OTRL5&#45;&gt;http://w3id.org/oseg/ont/otrl#OTRL</title>
<path fill="none" stroke="black" d="M775.91,-682.55C797.57,-654.67 842.22,-597.17 867.67,-564.4"/>
<polygon fill="black" stroke="black" points="870.63,-566.29 874,-556.25 865.1,-562 870.63,-566.29"/>
<text text-anchor="middle" x="817.29" y="-627.28" font-family="Times,serif" font-size="14.00">a</text>
</g>
<!-- http://w3id.org/oseg/ont/oseg&#45;profiles#robinVobruba -->
<g id="node5" class="node">
<title>http://w3id.org/oseg/ont/oseg&#45;profiles#robinVobruba</title>
<ellipse fill="none" stroke="#e377c2" cx="1165.64" cy="-1810.38" rx="113.69" ry="16.03"/>
<text text-anchor="middle" x="1165.64" y="-1806.68" font-family="Times,serif" font-size="14.00">osegprof:robinVob...</text>
</g>
<!-- http://w3id.org/oseg/ont/oseg&#45;profiles#Iopa -->
<g id="node6" class="node">
<title>http://w3id.org/oseg/ont/oseg&#45;profiles#Iopa</title>
<ellipse fill="none" stroke="#e377c2" cx="1074.46" cy="-1546.78" rx="80.72" ry="16.03"/>
<text text-anchor="middle" x="1074.46" y="-1543.08" font-family="Times,serif" font-size="14.00">osegprof:Iopa</text>
</g>
<!-- http://w3id.org/oseg/ont/otrl#exitCriteria -->
<g id="node7" class="node">
<title>http://w3id.org/oseg/ont/otrl#exitCriteria</title>
<ellipse fill="none" stroke="#e377c2" cx="1167.22" cy="-706.08" rx="91.43" ry="16.03"/>
<text text-anchor="middle" x="1167.22" y="-702.38" font-family="Times,serif" font-size="14.00">otrl:exitCriteria</text>
</g>
<!-- http://w3id.org/oseg/ont/otrl#exitCriteria&#45;&gt;http://w3id.org/oseg/ont/otrl#OTRL -->
<g id="edge21" class="edge">
<title>http://w3id.org/oseg/ont/otrl#exitCriteria&#45;&gt;http://w3id.org/oseg/ont/otrl#OTRL</title>
<path fill="none" stroke="black" d="M1140.81,-690.47C1089.75,-660.28 977.5,-593.93 920.77,-560.39"/>
<polygon fill="black" stroke="black" points="922.23,-557.18 911.84,-555.11 918.66,-563.21 922.23,-557.18"/>
<text text-anchor="middle" x="952.79" y="-629.23" font-family="Times,serif" font-size="14.00">dcam:domainIncludes</text>
</g>
<!-- http://w3id.org/oseg/ont/otrl#exitCriteria&#45;&gt;http://w3id.org/oseg/ont/otrl#ODRL -->
<g id="edge8" class="edge">
<title>http://w3id.org/oseg/ont/otrl#exitCriteria&#45;&gt;http://w3id.org/oseg/ont/otrl#ODRL</title>
<path fill="none" stroke="black" d="M1200.19,-721.36C1255.68,-747.08 1367.53,-798.91 1427.37,-826.65"/>
<polygon fill="black" stroke="black" points="1425.97,-829.85 1436.51,-830.88 1428.91,-823.5 1425.97,-829.85"/>
<text text-anchor="middle" x="1235.78" y="-777.8" font-family="Times,serif" font-size="14.00">dcam:domainIncludes</text>
</g>
<!-- http://www.w3.org/1999/02/22&#45;rdf&#45;syntax&#45;ns#langString -->
<g id="node22" class="node">
<title>http://www.w3.org/1999/02/22&#45;rdf&#45;syntax&#45;ns#langString</title>
<ellipse fill="none" stroke="#e377c2" cx="1360.92" cy="-500.13" rx="83.38" ry="16.03"/>
<text text-anchor="middle" x="1360.92" y="-496.43" font-family="Times,serif" font-size="14.00">rdf:langString</text>
</g>
<!-- http://w3id.org/oseg/ont/otrl#exitCriteria&#45;&gt;http://www.w3.org/1999/02/22&#45;rdf&#45;syntax&#45;ns#langString -->
<g id="edge32" class="edge">
<title>http://w3id.org/oseg/ont/otrl#exitCriteria&#45;&gt;http://www.w3.org/1999/02/22&#45;rdf&#45;syntax&#45;ns#langString</title>
<path fill="none" stroke="black" d="M1182.42,-689.92C1216.51,-653.68 1299.18,-565.78 1338.9,-523.55"/>
<polygon fill="black" stroke="black" points="1341.49,-525.9 1345.8,-516.22 1336.39,-521.11 1341.49,-525.9"/>
<text text-anchor="middle" x="1239.66" y="-610.53" font-family="Times,serif" font-size="14.00">range</text>
</g>
<!-- http://w3id.org/oseg/ont/otrl#goal -->
<g id="node8" class="node">
<title>http://w3id.org/oseg/ont/otrl#goal</title>
<ellipse fill="none" stroke="#e377c2" cx="1191.96" cy="-651.82" rx="54.39" ry="16.03"/>
<text text-anchor="middle" x="1191.96" y="-648.12" font-family="Times,serif" font-size="14.00">otrl:goal</text>
</g>
<!-- http://w3id.org/oseg/ont/otrl#goal&#45;&gt;http://w3id.org/oseg/ont/otrl#OTRL -->
<g id="edge22" class="edge">
<title>http://w3id.org/oseg/ont/otrl#goal&#45;&gt;http://w3id.org/oseg/ont/otrl#OTRL</title>
<path fill="none" stroke="black" d="M1157.22,-639.12C1101.86,-618.88 993.61,-579.3 932.1,-556.81"/>
<polygon fill="black" stroke="black" points="933.23,-553.5 922.64,-553.35 930.83,-560.07 933.23,-553.5"/>
<text text-anchor="middle" x="966.66" y="-601.76" font-family="Times,serif" font-size="14.00">dcam:domainIncludes</text>
</g>
<!-- http://w3id.org/oseg/ont/otrl#goal&#45;&gt;http://w3id.org/oseg/ont/otrl#ODRL -->
<g id="edge9" class="edge">
<title>http://w3id.org/oseg/ont/otrl#goal&#45;&gt;http://w3id.org/oseg/ont/otrl#ODRL</title>
<path fill="none" stroke="black" d="M1213.56,-666.99C1262.3,-701.21 1380.89,-784.48 1436.96,-823.85"/>
<polygon fill="black" stroke="black" points="1435.2,-826.9 1445.4,-829.78 1439.23,-821.17 1435.2,-826.9"/>
<text text-anchor="middle" x="1247.26" y="-749.22" font-family="Times,serif" font-size="14.00">dcam:domainIncludes</text>
</g>
<!-- http://w3id.org/oseg/ont/otrl#goal&#45;&gt;http://www.w3.org/1999/02/22&#45;rdf&#45;syntax&#45;ns#langString -->
<g id="edge35" class="edge">
<title>http://w3id.org/oseg/ont/otrl#goal&#45;&gt;http://www.w3.org/1999/02/22&#45;rdf&#45;syntax&#45;ns#langString</title>
<path fill="none" stroke="black" d="M1209.4,-636.16C1239.3,-609.32 1300.46,-554.42 1335.24,-523.19"/>
<polygon fill="black" stroke="black" points="1337.96,-525.45 1343.07,-516.17 1333.29,-520.24 1337.96,-525.45"/>
<text text-anchor="middle" x="1251.32" y="-583.48" font-family="Times,serif" font-size="14.00">range</text>
</g>
<!-- http://w3id.org/oseg/ont/otrl#ODRL3 -->
<g id="node9" class="node">
<title>http://w3id.org/oseg/ont/otrl#ODRL3</title>
<ellipse fill="none" stroke="#e377c2" cx="1551.58" cy="-1145.1" rx="69.09" ry="16.03"/>
<text text-anchor="middle" x="1551.58" y="-1141.4" font-family="Times,serif" font-size="14.00">otrl:ODRL3</text>
</g>
<!-- http://w3id.org/oseg/ont/otrl#ODRL3&#45;&gt;http://w3id.org/oseg/ont/otrl#ODRL -->
<g id="edge12" class="edge">
<title>http://w3id.org/oseg/ont/otrl#ODRL3&#45;&gt;http://w3id.org/oseg/ont/otrl#ODRL</title>
<path fill="none" stroke="black" d="M1546.93,-1128.55C1533.02,-1079.07 1491.7,-932.03 1474.71,-871.56"/>
<polygon fill="black" stroke="black" points="1478,-870.33 1471.92,-861.65 1471.26,-872.22 1478,-870.33"/>
<text text-anchor="middle" x="1506.32" y="-1003.86" font-family="Times,serif" font-size="14.00">a</text>
</g>
<!-- http://w3id.org/oseg/ont/oseg&#45;profiles#martinHaeuer -->
<g id="node10" class="node">
<title>http://w3id.org/oseg/ont/oseg&#45;profiles#martinHaeuer</title>
<ellipse fill="none" stroke="#e377c2" cx="1317.41" cy="-1655.38" rx="116.85" ry="16.03"/>
<text text-anchor="middle" x="1317.41" y="-1651.68" font-family="Times,serif" font-size="14.00">osegprof:martinHa...</text>
</g>
<!-- http://w3id.org/oseg/ont/otrl#OTRL1 -->
<g id="node11" class="node">
<title>http://w3id.org/oseg/ont/otrl#OTRL1</title>
<ellipse fill="none" stroke="#e377c2" cx="653.03" cy="-328.13" rx="67.35" ry="16.03"/>
<text text-anchor="middle" x="653.03" y="-324.43" font-family="Times,serif" font-size="14.00">otrl:OTRL1</text>
</g>
<!-- http://w3id.org/oseg/ont/otrl#OTRL1&#45;&gt;http://w3id.org/oseg/ont/otrl#OTRL -->
<g id="edge16" class="edge">
<title>http://w3id.org/oseg/ont/otrl#OTRL1&#45;&gt;http://w3id.org/oseg/ont/otrl#OTRL</title>
<path fill="none" stroke="black" d="M670.58,-344.07C711.59,-381.3 813.79,-474.11 861.39,-517.33"/>
<polygon fill="black" stroke="black" points="859.32,-520.18 869.08,-524.31 864.03,-514.99 859.32,-520.18"/>
<text text-anchor="middle" x="761.49" y="-434.5" font-family="Times,serif" font-size="14.00">a</text>
</g>
<!-- http://w3id.org/oseg/ont/otrl -->
<g id="node12" class="node">
<title>http://w3id.org/oseg/ont/otrl</title>
<ellipse fill="none" stroke="#e377c2" cx="1088.53" cy="-1591.57" rx="50.82" ry="16.03"/>
<text text-anchor="middle" x="1088.53" y="-1587.87" font-family="Times,serif" font-size="14.00">ns1:otrl</text>
</g>
<!-- http://w3id.org/oseg/ont/otrl&#45;&gt;http://spdx.org/rdf/terms#SpdxItem -->
<g id="edge7" class="edge">
<title>http://w3id.org/oseg/ont/otrl&#45;&gt;http://spdx.org/rdf/terms#SpdxItem</title>
<path fill="none" stroke="black" d="M1037.46,-1591.37C1017.52,-1591.3 993.95,-1591.21 970.98,-1591.12"/>
<polygon fill="black" stroke="black" points="970.85,-1587.62 960.83,-1591.08 970.82,-1594.62 970.85,-1587.62"/>
<text text-anchor="middle" x="999.72" y="-1595.04" font-family="Times,serif" font-size="14.00">a</text>
</g>
<!-- http://w3id.org/oseg/ont/otrl&#45;&gt;http://w3id.org/oseg/ont/oseg&#45;profiles#robinVobruba -->
<g id="edge2" class="edge">
<title>http://w3id.org/oseg/ont/otrl&#45;&gt;http://w3id.org/oseg/ont/oseg&#45;profiles#robinVobruba</title>
<path fill="none" stroke="black" d="M1090.49,-1608.17C1099.88,-1646.12 1132.38,-1739.31 1151.67,-1784.71"/>
<polygon fill="black" stroke="black" points="1148.48,-1786.14 1155.69,-1793.9 1154.89,-1783.33 1148.48,-1786.14"/>
<text text-anchor="middle" x="1065.58" y="-1700.24" font-family="Times,serif" font-size="14.00">schema:creator</text>
</g>
<!-- http://w3id.org/oseg/ont/otrl&#45;&gt;http://w3id.org/oseg/ont/oseg&#45;profiles#robinVobruba -->
<g id="edge34" class="edge">
<title>http://w3id.org/oseg/ont/otrl&#45;&gt;http://w3id.org/oseg/ont/oseg&#45;profiles#robinVobruba</title>
<path fill="none" stroke="black" d="M1098.36,-1607.81C1115.44,-1645.37 1148.42,-1738.37 1161.12,-1784.13"/>
<polygon fill="black" stroke="black" points="1157.77,-1785.13 1163.71,-1793.91 1164.54,-1783.35 1157.77,-1785.13"/>
<text text-anchor="middle" x="1072.24" y="-1684.77" font-family="Times,serif" font-size="14.00">dcterms:creator</text>
</g>
<!-- http://w3id.org/oseg/ont/otrl&#45;&gt;http://w3id.org/oseg/ont/oseg&#45;profiles#Iopa -->
<g id="edge3" class="edge">
<title>http://w3id.org/oseg/ont/otrl&#45;&gt;http://w3id.org/oseg/ont/oseg&#45;profiles#Iopa</title>
<path fill="none" stroke="black" d="M1083.37,-1575.14C1083.14,-1574.41 1082.91,-1573.67 1082.67,-1572.93"/>
<polygon fill="black" stroke="black" points="1085.95,-1571.69 1079.62,-1563.2 1079.27,-1573.79 1085.95,-1571.69"/>
<text text-anchor="middle" x="1148.52" y="-1562.84" font-family="Times,serif" font-size="14.00">dcterms:publisher</text>
</g>
<!-- http://w3id.org/oseg/ont/otrl&#45;&gt;http://w3id.org/oseg/ont/oseg&#45;profiles#martinHaeuer -->
<g id="edge5" class="edge">
<title>http://w3id.org/oseg/ont/otrl&#45;&gt;http://w3id.org/oseg/ont/oseg&#45;profiles#martinHaeuer</title>
<path fill="none" stroke="black" d="M1118.58,-1604.95C1148.7,-1615.22 1196.35,-1629.07 1237.46,-1639.78"/>
<polygon fill="black" stroke="black" points="1236.65,-1643.19 1247.21,-1642.29 1238.4,-1636.41 1236.65,-1643.19"/>
<text text-anchor="middle" x="1235.52" y="-1626.16" font-family="Times,serif" font-size="14.00">dcterms:creator</text>
</g>
<!-- http://w3id.org/oseg/ont/otrl&#45;&gt;http://w3id.org/oseg/ont/oseg&#45;profiles#martinHaeuer -->
<g id="edge20" class="edge">
<title>http://w3id.org/oseg/ont/otrl&#45;&gt;http://w3id.org/oseg/ont/oseg&#45;profiles#martinHaeuer</title>
<path fill="none" stroke="black" d="M1134.4,-1598.68C1174.15,-1608.04 1231.39,-1623.95 1271.23,-1636.69"/>
<polygon fill="black" stroke="black" points="1270.37,-1640.09 1280.96,-1639.86 1272.54,-1633.44 1270.37,-1640.09"/>
<text text-anchor="middle" x="1258.31" y="-1606.49" font-family="Times,serif" font-size="14.00">schema:creator</text>
</g>
<!-- http://spdx.org/licenses/GPL&#45;3.0&#45;or&#45;later -->
<g id="node14" class="node">
<title>http://spdx.org/licenses/GPL&#45;3.0&#45;or&#45;later</title>
<ellipse fill="none" stroke="#e377c2" cx="1042.87" cy="-1632.51" rx="108.79" ry="16.03"/>
<text text-anchor="middle" x="1042.87" y="-1628.81" font-family="Times,serif" font-size="14.00">spdxl:GPL&#45;3.0&#45;or&#45;...</text>
</g>
<!-- http://w3id.org/oseg/ont/otrl&#45;&gt;http://spdx.org/licenses/GPL&#45;3.0&#45;or&#45;later -->
<g id="edge11" class="edge">
<title>http://w3id.org/oseg/ont/otrl&#45;&gt;http://spdx.org/licenses/GPL&#45;3.0&#45;or&#45;later</title>
<path fill="none" stroke="black" d="M1071.27,-1607.05C1070.3,-1607.91 1069.32,-1608.79 1068.34,-1609.68"/>
<polygon fill="black" stroke="black" points="1065.87,-1607.18 1060.77,-1616.47 1070.55,-1612.39 1065.87,-1607.18"/>
<text text-anchor="middle" x="993.8" y="-1612.16" font-family="Times,serif" font-size="14.00">spdx:licenseDeclared</text>
</g>
<!-- http://w3id.org/oseg/ont/1.1.0/otrl -->
<g id="node24" class="node">
<title>http://w3id.org/oseg/ont/1.1.0/otrl</title>
<ellipse fill="none" stroke="#e377c2" cx="1017.55" cy="-1429.61" rx="50.82" ry="16.03"/>
<text text-anchor="middle" x="1017.55" y="-1425.91" font-family="Times,serif" font-size="14.00">ns2:otrl</text>
</g>
<!-- http://w3id.org/oseg/ont/otrl&#45;&gt;http://w3id.org/oseg/ont/1.1.0/otrl -->
<g id="edge38" class="edge">
<title>http://w3id.org/oseg/ont/otrl&#45;&gt;http://w3id.org/oseg/ont/1.1.0/otrl</title>
<path fill="none" stroke="black" d="M1081.46,-1575.45C1069.14,-1547.34 1043.64,-1489.14 1028.85,-1455.38"/>
<polygon fill="black" stroke="black" points="1032.02,-1453.9 1024.8,-1446.15 1025.61,-1456.71 1032.02,-1453.9"/>
<text text-anchor="middle" x="1003.65" y="-1519.21" font-family="Times,serif" font-size="14.00">owl:versionIRI</text>
</g>
<!-- http://id.loc.gov/vocabulary/iso639&#45;1/en -->
<g id="node25" class="node">
<title>http://id.loc.gov/vocabulary/iso639&#45;1/en</title>
<ellipse fill="none" stroke="#e377c2" cx="1211.74" cy="-1479.25" rx="45.01" ry="16.03"/>
<text text-anchor="middle" x="1211.74" y="-1475.55" font-family="Times,serif" font-size="14.00">ns3:en</text>
</g>
<!-- http://w3id.org/oseg/ont/otrl&#45;&gt;http://id.loc.gov/vocabulary/iso639&#45;1/en -->
<g id="edge39" class="edge">
<title>http://w3id.org/oseg/ont/otrl&#45;&gt;http://id.loc.gov/vocabulary/iso639&#45;1/en</title>
<path fill="none" stroke="black" d="M1105.4,-1576.18C1126.69,-1556.78 1163.45,-1523.27 1187.68,-1501.18"/>
<polygon fill="black" stroke="black" points="1190.04,-1503.77 1195.07,-1494.45 1185.32,-1498.6 1190.04,-1503.77"/>
<text text-anchor="middle" x="1211.04" y="-1527.48" font-family="Times,serif" font-size="14.00">dcterms:language</text>
</g>
<!-- http://w3id.org/oseg/ont/otrl#ODRL3Star -->
<g id="node13" class="node">
<title>http://w3id.org/oseg/ont/otrl#ODRL3Star</title>
<ellipse fill="none" stroke="#e377c2" cx="1280.23" cy="-1090.71" rx="90.52" ry="16.03"/>
<text text-anchor="middle" x="1280.23" y="-1087.01" font-family="Times,serif" font-size="14.00">otrl:ODRL3Star</text>
</g>
<!-- http://w3id.org/oseg/ont/otrl#ODRL3Star&#45;&gt;http://w3id.org/oseg/ont/otrl#ODRL -->
<g id="edge27" class="edge">
<title>http://w3id.org/oseg/ont/otrl#ODRL3Star&#45;&gt;http://w3id.org/oseg/ont/otrl#ODRL</title>
<path fill="none" stroke="black" d="M1292.79,-1074.21C1325.08,-1031.82 1411.08,-918.92 1448.95,-869.21"/>
<polygon fill="black" stroke="black" points="1451.74,-871.32 1455.02,-861.25 1446.18,-867.08 1451.74,-871.32"/>
<text text-anchor="middle" x="1366.37" y="-975.51" font-family="Times,serif" font-size="14.00">a</text>
</g>
<!-- http://w3id.org/oseg/ont/otrl#Odrl4 -->
<g id="node15" class="node">
<title>http://w3id.org/oseg/ont/otrl#Odrl4</title>
<ellipse fill="none" stroke="#e377c2" cx="1944.86" cy="-1225.81" rx="61.54" ry="16.03"/>
<text text-anchor="middle" x="1944.86" y="-1222.11" font-family="Times,serif" font-size="14.00">otrl:Odrl4</text>
</g>
<!-- http://w3id.org/oseg/ont/otrl#ODRL4 -->
<g id="node19" class="node">
<title>http://w3id.org/oseg/ont/otrl#ODRL4</title>
<ellipse fill="none" stroke="#e377c2" cx="1723.04" cy="-1051.11" rx="69.09" ry="16.03"/>
<text text-anchor="middle" x="1723.04" y="-1047.41" font-family="Times,serif" font-size="14.00">otrl:ODRL4</text>
</g>
<!-- http://w3id.org/oseg/ont/otrl#Odrl4&#45;&gt;http://w3id.org/oseg/ont/otrl#ODRL4 -->
<g id="edge23" class="edge">
<title>http://w3id.org/oseg/ont/otrl#Odrl4&#45;&gt;http://w3id.org/oseg/ont/otrl#ODRL4</title>
<path fill="none" stroke="black" d="M1925.17,-1210.3C1885.65,-1179.17 1796.52,-1108.98 1750.98,-1073.11"/>
<polygon fill="black" stroke="black" points="1753.02,-1070.27 1743,-1066.83 1748.69,-1075.77 1753.02,-1070.27"/>
<text text-anchor="middle" x="1758.07" y="-1145.51" font-family="Times,serif" font-size="14.00">schema:supersededBy</text>
</g>
<!-- http://w3id.org/oseg/ont/otrl#ODRL1 -->
<g id="node16" class="node">
<title>http://w3id.org/oseg/ont/otrl#ODRL1</title>
<ellipse fill="none" stroke="#e377c2" cx="1713.69" cy="-685.81" rx="69.09" ry="16.03"/>
<text text-anchor="middle" x="1713.69" y="-682.11" font-family="Times,serif" font-size="14.00">otrl:ODRL1</text>
</g>
<!-- http://w3id.org/oseg/ont/otrl#ODRL1&#45;&gt;http://w3id.org/oseg/ont/otrl#ODRL -->
<g id="edge14" class="edge">
<title>http://w3id.org/oseg/ont/otrl#ODRL1&#45;&gt;http://w3id.org/oseg/ont/otrl#ODRL</title>
<path fill="none" stroke="black" d="M1689.62,-701.37C1644.95,-730.26 1549.25,-792.14 1499.23,-824.49"/>
<polygon fill="black" stroke="black" points="1497.23,-821.61 1490.73,-829.98 1501.03,-827.49 1497.23,-821.61"/>
<text text-anchor="middle" x="1589.92" y="-766.73" font-family="Times,serif" font-size="14.00">a</text>
</g>
<!-- http://w3id.org/oseg/ont/otrl#OTRL4 -->
<g id="node17" class="node">
<title>http://w3id.org/oseg/ont/otrl#OTRL4</title>
<ellipse fill="none" stroke="#e377c2" cx="1078.01" cy="-290.83" rx="67.35" ry="16.03"/>
<text text-anchor="middle" x="1078.01" y="-287.13" font-family="Times,serif" font-size="14.00">otrl:OTRL4</text>
</g>
<!-- http://w3id.org/oseg/ont/otrl#OTRL4&#45;&gt;http://w3id.org/oseg/ont/otrl#OTRL -->
<g id="edge15" class="edge">
<title>http://w3id.org/oseg/ont/otrl#OTRL4&#45;&gt;http://w3id.org/oseg/ont/otrl#OTRL</title>
<path fill="none" stroke="black" d="M1065.45,-307.18C1032.57,-349.99 943.86,-465.47 905.08,-515.96"/>
<polygon fill="black" stroke="black" points="902.19,-513.98 898.87,-524.04 907.74,-518.25 902.19,-513.98"/>
<text text-anchor="middle" x="980.77" y="-415.37" font-family="Times,serif" font-size="14.00">a</text>
</g>
<!-- http://w3id.org/oseg/ont/otrl#OTRL3 -->
<g id="node18" class="node">
<title>http://w3id.org/oseg/ont/otrl#OTRL3</title>
<ellipse fill="none" stroke="#e377c2" cx="586.73" cy="-637.29" rx="67.35" ry="16.03"/>
<text text-anchor="middle" x="586.73" y="-633.59" font-family="Times,serif" font-size="14.00">otrl:OTRL3</text>
</g>
<!-- http://w3id.org/oseg/ont/otrl#OTRL3&#45;&gt;http://w3id.org/oseg/ont/otrl#OTRL -->
<g id="edge19" class="edge">
<title>http://w3id.org/oseg/ont/otrl#OTRL3&#45;&gt;http://w3id.org/oseg/ont/otrl#OTRL</title>
<path fill="none" stroke="black" d="M627.16,-624.18C681.85,-606.46 779.29,-574.89 837.9,-555.89"/>
<polygon fill="black" stroke="black" points="839.24,-559.14 847.67,-552.73 837.08,-552.48 839.24,-559.14"/>
<text text-anchor="middle" x="728.03" y="-593.84" font-family="Times,serif" font-size="14.00">a</text>
</g>
<!-- http://w3id.org/oseg/ont/otrl#ODRL4&#45;&gt;http://w3id.org/oseg/ont/otrl#ODRL -->
<g id="edge24" class="edge">
<title>http://w3id.org/oseg/ont/otrl#ODRL4&#45;&gt;http://w3id.org/oseg/ont/otrl#ODRL</title>
<path fill="none" stroke="black" d="M1703.4,-1035.29C1658.19,-998.89 1546.69,-909.1 1494.75,-867.26"/>
<polygon fill="black" stroke="black" points="1496.63,-864.28 1486.65,-860.74 1492.24,-869.73 1496.63,-864.28"/>
<text text-anchor="middle" x="1594.57" y="-955.08" font-family="Times,serif" font-size="14.00">a</text>
</g>
<!-- http://w3id.org/oseg/ont/otrl#OTRL6 -->
<g id="node20" class="node">
<title>http://w3id.org/oseg/ont/otrl#OTRL6</title>
<ellipse fill="none" stroke="#e377c2" cx="580.14" cy="-468.57" rx="67.35" ry="16.03"/>
<text text-anchor="middle" x="580.14" y="-464.87" font-family="Times,serif" font-size="14.00">otrl:OTRL6</text>
</g>
<!-- http://w3id.org/oseg/ont/otrl#OTRL6&#45;&gt;http://w3id.org/oseg/ont/otrl#OTRL -->
<g id="edge25" class="edge">
<title>http://w3id.org/oseg/ont/otrl#OTRL6&#45;&gt;http://w3id.org/oseg/ont/otrl#OTRL</title>
<path fill="none" stroke="black" d="M628.68,-479.91C683.6,-492.74 772.88,-513.59 830.65,-527.09"/>
<polygon fill="black" stroke="black" points="830.16,-530.57 840.7,-529.44 831.75,-523.75 830.16,-530.57"/>
<text text-anchor="middle" x="725.16" y="-507.3" font-family="Times,serif" font-size="14.00">a</text>
</g>
<!-- http://w3id.org/oseg/ont/otrl#ODRL2 -->
<g id="node21" class="node">
<title>http://w3id.org/oseg/ont/otrl#ODRL2</title>
<ellipse fill="none" stroke="#e377c2" cx="1772.12" cy="-853.64" rx="69.09" ry="16.03"/>
<text text-anchor="middle" x="1772.12" y="-849.94" font-family="Times,serif" font-size="14.00">otrl:ODRL2</text>
</g>
<!-- http://w3id.org/oseg/ont/otrl#ODRL2&#45;&gt;http://w3id.org/oseg/ont/otrl#ODRL -->
<g id="edge28" class="edge">
<title>http://w3id.org/oseg/ont/otrl#ODRL2&#45;&gt;http://w3id.org/oseg/ont/otrl#ODRL</title>
<path fill="none" stroke="black" d="M1702.95,-851.71C1654.41,-850.36 1589.61,-848.55 1540.25,-847.18"/>
<polygon fill="black" stroke="black" points="1540.06,-843.67 1529.96,-846.89 1539.86,-850.67 1540.06,-843.67"/>
<text text-anchor="middle" x="1617.1" y="-853.24" font-family="Times,serif" font-size="14.00">a</text>
</g>
<!-- http://w3id.org/oseg/ont/otrl#OTRL2 -->
<g id="node23" class="node">
<title>http://w3id.org/oseg/ont/otrl#OTRL2</title>
<ellipse fill="none" stroke="#e377c2" cx="788.84" cy="-262.82" rx="67.35" ry="16.03"/>
<text text-anchor="middle" x="788.84" y="-259.12" font-family="Times,serif" font-size="14.00">otrl:OTRL2</text>
</g>
<!-- http://w3id.org/oseg/ont/otrl#OTRL2&#45;&gt;http://w3id.org/oseg/ont/otrl#OTRL -->
<g id="edge40" class="edge">
<title>http://w3id.org/oseg/ont/otrl#OTRL2&#45;&gt;http://w3id.org/oseg/ont/otrl#OTRL</title>
<path fill="none" stroke="black" d="M794.65,-279.34C811.01,-325.77 857.49,-457.74 877.34,-514.1"/>
<polygon fill="black" stroke="black" points="874.1,-515.44 880.73,-523.71 880.7,-513.11 874.1,-515.44"/>
<text text-anchor="middle" x="831.5" y="-400.52" font-family="Times,serif" font-size="14.00">a</text>
</g>
<!-- http://w3id.org/oseg/ont/otrl#Odrl3 -->
<g id="node26" class="node">
<title>http://w3id.org/oseg/ont/otrl#Odrl3</title>
<ellipse fill="none" stroke="black" cx="1629.47" cy="-1545.74" rx="191.75" ry="16.03"/>
<text text-anchor="middle" x="1629.47" y="-1542.04" font-family="Times,serif" font-size="14.00">http://w3id.org/oseg/ont/otrl#Odrl3</text>
</g>
<!-- http://w3id.org/oseg/ont/otrl#Odrl3&#45;&gt;http://w3id.org/oseg/ont/otrl#ODRL3 -->
<g id="edge4" class="edge">
<title>http://w3id.org/oseg/ont/otrl#Odrl3&#45;&gt;http://w3id.org/oseg/ont/otrl#ODRL3</title>
<path fill="none" stroke="black" d="M1626.27,-1529.28C1614.24,-1467.39 1571.62,-1248.2 1556.75,-1171.69"/>
<polygon fill="black" stroke="black" points="1560.1,-1170.62 1554.76,-1161.47 1553.23,-1171.95 1560.1,-1170.62"/>
<text text-anchor="middle" x="1511.51" y="-1354.29" font-family="Times,serif" font-size="14.00">schema:supersededBy</text>
</g>
<!-- http://w3id.org/oseg/ont/otrl#Otrl1 -->
<g id="node27" class="node">
<title>http://w3id.org/oseg/ont/otrl#Otrl1</title>
<ellipse fill="none" stroke="black" cx="394.82" cy="-16.71" rx="189.51" ry="16.03"/>
<text text-anchor="middle" x="394.82" y="-13.01" font-family="Times,serif" font-size="14.00">http://w3id.org/oseg/ont/otrl#Otrl1</text>
</g>
<!-- http://w3id.org/oseg/ont/otrl#Otrl1&#45;&gt;http://w3id.org/oseg/ont/otrl#OTRL1 -->
<g id="edge6" class="edge">
<title>http://w3id.org/oseg/ont/otrl#Otrl1&#45;&gt;http://w3id.org/oseg/ont/otrl#OTRL1</title>
<path fill="none" stroke="black" d="M408.34,-33.02C450.95,-84.42 582.64,-243.23 633.09,-304.07"/>
<polygon fill="black" stroke="black" points="630.57,-306.52 639.65,-311.99 635.96,-302.06 630.57,-306.52"/>
<text text-anchor="middle" x="440.71" y="-172.35" font-family="Times,serif" font-size="14.00">schema:supersededBy</text>
</g>
<!-- http://w3id.org/oseg/ont/otrl#Odrl3Star -->
<g id="node28" class="node">
<title>http://w3id.org/oseg/ont/otrl#Odrl3Star</title>
<ellipse fill="none" stroke="black" cx="1242.74" cy="-1137.94" rx="213.59" ry="16.03"/>
<text text-anchor="middle" x="1242.74" y="-1134.24" font-family="Times,serif" font-size="14.00">http://w3id.org/oseg/ont/otrl#Odrl3Star</text>
</g>
<!-- http://w3id.org/oseg/ont/otrl#Odrl3Star&#45;&gt;http://w3id.org/oseg/ont/otrl#ODRL3Star -->
<g id="edge10" class="edge">
<title>http://w3id.org/oseg/ont/otrl#Odrl3Star&#45;&gt;http://w3id.org/oseg/ont/otrl#ODRL3Star</title>
<path fill="none" stroke="black" d="M1255.64,-1121.69C1257.43,-1119.44 1259.29,-1117.09 1261.16,-1114.73"/>
<polygon fill="black" stroke="black" points="1263.95,-1116.84 1267.43,-1106.83 1258.47,-1112.49 1263.95,-1116.84"/>
<text text-anchor="middle" x="1178.4" y="-1107.01" font-family="Times,serif" font-size="14.00">schema:supersededBy</text>
</g>
<!-- http://w3id.org/oseg/ont/otrl#Odrl5 -->
<g id="node29" class="node">
<title>http://w3id.org/oseg/ont/otrl#Odrl5</title>
<ellipse fill="none" stroke="black" cx="2263.26" cy="-1472.5" rx="191.75" ry="16.03"/>
<text text-anchor="middle" x="2263.26" y="-1468.8" font-family="Times,serif" font-size="14.00">http://w3id.org/oseg/ont/otrl#Odrl5</text>
</g>
<!-- http://w3id.org/oseg/ont/otrl#Odrl5&#45;&gt;http://w3id.org/oseg/ont/otrl#Odrl4 -->
<g id="edge13" class="edge">
<title>http://w3id.org/oseg/ont/otrl#Odrl5&#45;&gt;http://w3id.org/oseg/ont/otrl#Odrl4</title>
<path fill="none" stroke="black" d="M2242.37,-1456.32C2186.89,-1413.33 2035.82,-1296.28 1972.92,-1247.55"/>
<polygon fill="black" stroke="black" points="1975.05,-1244.77 1965,-1241.41 1970.76,-1250.3 1975.05,-1244.77"/>
<text text-anchor="middle" x="2027.65" y="-1355.73" font-family="Times,serif" font-size="14.00">schema:supersededBy</text>
</g>
<!-- http://w3id.org/oseg/ont/otrl#Otrl -->
<g id="node30" class="node">
<title>http://w3id.org/oseg/ont/otrl#Otrl</title>
<ellipse fill="none" stroke="black" cx="878.55" cy="-495.61" rx="183.28" ry="16.03"/>
<text text-anchor="middle" x="878.55" y="-491.91" font-family="Times,serif" font-size="14.00">http://w3id.org/oseg/ont/otrl#Otrl</text>
</g>
<!-- http://w3id.org/oseg/ont/otrl#Otrl&#45;&gt;http://w3id.org/oseg/ont/otrl#OTRL -->
<g id="edge17" class="edge">
<title>http://w3id.org/oseg/ont/otrl#Otrl&#45;&gt;http://w3id.org/oseg/ont/otrl#OTRL</title>
<path fill="none" stroke="black" d="M881.47,-511.94C881.58,-512.54 881.69,-513.15 881.8,-513.77"/>
<polygon fill="black" stroke="black" points="878.39,-514.58 883.59,-523.81 885.28,-513.35 878.39,-514.58"/>
<text text-anchor="middle" x="961.63" y="-516.65" font-family="Times,serif" font-size="14.00">schema:supersededBy</text>
</g>
<!-- http://w3id.org/oseg/ont/otrl#Odrl1 -->
<g id="node31" class="node">
<title>http://w3id.org/oseg/ont/otrl#Odrl1</title>
<ellipse fill="none" stroke="black" cx="2063.55" cy="-465.33" rx="191.75" ry="16.03"/>
<text text-anchor="middle" x="2063.55" y="-461.63" font-family="Times,serif" font-size="14.00">http://w3id.org/oseg/ont/otrl#Odrl1</text>
</g>
<!-- http://w3id.org/oseg/ont/otrl#Odrl1&#45;&gt;http://w3id.org/oseg/ont/otrl#ODRL1 -->
<g id="edge18" class="edge">
<title>http://w3id.org/oseg/ont/otrl#Odrl1&#45;&gt;http://w3id.org/oseg/ont/otrl#ODRL1</title>
<path fill="none" stroke="black" d="M2037.83,-481.54C1975.46,-520.85 1816.21,-621.2 1746.84,-664.92"/>
<polygon fill="black" stroke="black" points="1744.65,-662.16 1738.05,-670.46 1748.38,-668.08 1744.65,-662.16"/>
<text text-anchor="middle" x="1812.33" y="-577.03" font-family="Times,serif" font-size="14.00">schema:supersededBy</text>
</g>
<!-- http://w3id.org/oseg/ont/otrl#Otrl5 -->
<g id="node32" class="node">
<title>http://w3id.org/oseg/ont/otrl#Otrl5</title>
<ellipse fill="none" stroke="black" cx="733.72" cy="-739.7" rx="189.51" ry="16.03"/>
<text text-anchor="middle" x="733.72" y="-736" font-family="Times,serif" font-size="14.00">http://w3id.org/oseg/ont/otrl#Otrl5</text>
</g>
<!-- http://w3id.org/oseg/ont/otrl#Otrl5&#45;&gt;http://w3id.org/oseg/ont/otrl#OTRL5 -->
<g id="edge26" class="edge">
<title>http://w3id.org/oseg/ont/otrl#Otrl5&#45;&gt;http://w3id.org/oseg/ont/otrl#OTRL5</title>
<path fill="none" stroke="black" d="M745.47,-723.47C745.6,-723.29 745.73,-723.11 745.86,-722.93"/>
<polygon fill="black" stroke="black" points="748.75,-724.89 751.78,-714.74 743.08,-720.79 748.75,-724.89"/>
<text text-anchor="middle" x="665.66" y="-712" font-family="Times,serif" font-size="14.00">schema:supersededBy</text>
</g>
<!-- http://w3id.org/oseg/ont/otrl#Otrl3 -->
<g id="node33" class="node">
<title>http://w3id.org/oseg/ont/otrl#Otrl3</title>
<ellipse fill="none" stroke="black" cx="211.08" cy="-777.52" rx="189.51" ry="16.03"/>
<text text-anchor="middle" x="211.08" y="-773.82" font-family="Times,serif" font-size="14.00">http://w3id.org/oseg/ont/otrl#Otrl3</text>
</g>
<!-- http://w3id.org/oseg/ont/otrl#Otrl3&#45;&gt;http://w3id.org/oseg/ont/otrl#OTRL3 -->
<g id="edge29" class="edge">
<title>http://w3id.org/oseg/ont/otrl#Otrl3&#45;&gt;http://w3id.org/oseg/ont/otrl#OTRL3</title>
<path fill="none" stroke="black" d="M253.8,-761.57C324.93,-735.02 467.05,-681.96 540.46,-654.56"/>
<polygon fill="black" stroke="black" points="541.78,-657.8 549.92,-651.03 539.33,-651.25 541.78,-657.8"/>
<text text-anchor="middle" x="317.13" y="-711.86" font-family="Times,serif" font-size="14.00">schema:supersededBy</text>
</g>
<!-- http://w3id.org/oseg/ont/otrl#Otrl4 -->
<g id="node34" class="node">
<title>http://w3id.org/oseg/ont/otrl#Otrl4</title>
<ellipse fill="none" stroke="black" cx="1150.25" cy="-249.23" rx="189.51" ry="16.03"/>
<text text-anchor="middle" x="1150.25" y="-245.53" font-family="Times,serif" font-size="14.00">http://w3id.org/oseg/ont/otrl#Otrl4</text>
</g>
<!-- http://w3id.org/oseg/ont/otrl#Otrl4&#45;&gt;http://w3id.org/oseg/ont/otrl#OTRL4 -->
<g id="edge30" class="edge">
<title>http://w3id.org/oseg/ont/otrl#Otrl4&#45;&gt;http://w3id.org/oseg/ont/otrl#OTRL4</title>
<path fill="none" stroke="black" d="M1122.11,-265.43C1119.18,-267.12 1116.18,-268.85 1113.18,-270.58"/>
<polygon fill="black" stroke="black" points="1111.22,-267.67 1104.3,-275.69 1114.71,-273.73 1111.22,-267.67"/>
<text text-anchor="middle" x="1197.65" y="-271.8" font-family="Times,serif" font-size="14.00">schema:supersededBy</text>
</g>
<!-- http://w3id.org/oseg/ont/otrl#Odrl -->
<g id="node35" class="node">
<title>http://w3id.org/oseg/ont/otrl#Odrl</title>
<ellipse fill="none" stroke="black" cx="1469.32" cy="-891.5" rx="185.02" ry="16.03"/>
<text text-anchor="middle" x="1469.32" y="-887.8" font-family="Times,serif" font-size="14.00">http://w3id.org/oseg/ont/otrl#Odrl</text>
</g>
<!-- http://w3id.org/oseg/ont/otrl#Odrl&#45;&gt;http://w3id.org/oseg/ont/otrl#ODRL -->
<g id="edge31" class="edge">
<title>http://w3id.org/oseg/ont/otrl#Odrl&#45;&gt;http://w3id.org/oseg/ont/otrl#ODRL</title>
<path fill="none" stroke="black" d="M1468.6,-875.02C1468.55,-873.93 1468.5,-872.82 1468.45,-871.69"/>
<polygon fill="black" stroke="black" points="1471.94,-871.4 1468.01,-861.56 1464.95,-871.71 1471.94,-871.4"/>
<text text-anchor="middle" x="1388.53" y="-862.16" font-family="Times,serif" font-size="14.00">schema:supersededBy</text>
</g>
<!-- http://w3id.org/oseg/ont/otrl#Otrl6 -->
<g id="node36" class="node">
<title>http://w3id.org/oseg/ont/otrl#Otrl6</title>
<ellipse fill="none" stroke="black" cx="190" cy="-368.12" rx="189.51" ry="16.03"/>
<text text-anchor="middle" x="190" y="-364.42" font-family="Times,serif" font-size="14.00">http://w3id.org/oseg/ont/otrl#Otrl6</text>
</g>
<!-- http://w3id.org/oseg/ont/otrl#Otrl6&#45;&gt;http://w3id.org/oseg/ont/otrl#OTRL6 -->
<g id="edge33" class="edge">
<title>http://w3id.org/oseg/ont/otrl#Otrl6&#45;&gt;http://w3id.org/oseg/ont/otrl#OTRL6</title>
<path fill="none" stroke="black" d="M250.1,-383.6C324.82,-402.83 451.35,-435.41 524.12,-454.15"/>
<polygon fill="black" stroke="black" points="523.46,-457.59 534.02,-456.7 525.21,-450.81 523.46,-457.59"/>
<text text-anchor="middle" x="307.11" y="-422.67" font-family="Times,serif" font-size="14.00">schema:supersededBy</text>
</g>
<!-- http://w3id.org/oseg/ont/otrl#Otrl2 -->
<g id="node37" class="node">
<title>http://w3id.org/oseg/ont/otrl#Otrl2</title>
<ellipse fill="none" stroke="black" cx="742.2" cy="-217.02" rx="189.51" ry="16.03"/>
<text text-anchor="middle" x="742.2" y="-213.32" font-family="Times,serif" font-size="14.00">http://w3id.org/oseg/ont/otrl#Otrl2</text>
</g>
<!-- http://w3id.org/oseg/ont/otrl#Otrl2&#45;&gt;http://w3id.org/oseg/ont/otrl#OTRL2 -->
<g id="edge36" class="edge">
<title>http://w3id.org/oseg/ont/otrl#Otrl2&#45;&gt;http://w3id.org/oseg/ont/otrl#OTRL2</title>
<path fill="none" stroke="black" d="M758.77,-233.3C760.88,-235.37 763.08,-237.52 765.27,-239.68"/>
<polygon fill="black" stroke="black" points="763.04,-242.4 772.63,-246.9 767.95,-237.4 763.04,-242.4"/>
<text text-anchor="middle" x="682.02" y="-240.29" font-family="Times,serif" font-size="14.00">schema:supersededBy</text>
</g>
<!-- http://w3id.org/oseg/ont/otrl#Odrl2 -->
<g id="node38" class="node">
<title>http://w3id.org/oseg/ont/otrl#Odrl2</title>
<ellipse fill="none" stroke="black" cx="2172.65" cy="-852.38" rx="191.75" ry="16.03"/>
<text text-anchor="middle" x="2172.65" y="-848.68" font-family="Times,serif" font-size="14.00">http://w3id.org/oseg/ont/otrl#Odrl2</text>
</g>
<!-- http://w3id.org/oseg/ont/otrl#Odrl2&#45;&gt;http://w3id.org/oseg/ont/otrl#ODRL2 -->
<g id="edge37" class="edge">
<title>http://w3id.org/oseg/ont/otrl#Odrl2&#45;&gt;http://w3id.org/oseg/ont/otrl#ODRL2</title>
<path fill="none" stroke="black" d="M1980.89,-852.98C1935.34,-853.13 1889.2,-853.27 1851.92,-853.39"/>
<polygon fill="black" stroke="black" points="1851.64,-849.89 1841.65,-853.42 1851.66,-856.89 1851.64,-849.89"/>
<text text-anchor="middle" x="1916.41" y="-841.98" font-family="Times,serif" font-size="14.00">schema:supersededBy</text>
</g>
</g>
</svg>
