<?xml version="1.0" encoding="UTF-8" standalone="no"?>
<!DOCTYPE svg PUBLIC "-//W3C//DTD SVG 1.1//EN"
 "http://www.w3.org/Graphics/SVG/1.1/DTD/svg11.dtd">
<!-- Generated by graphviz version 2.43.0 (0)
 -->
<!-- Title: G Pages: 1 -->
<svg width="1134pt" height="1984pt"
 viewBox="0.00 0.00 1134.00 1984.00" xmlns="http://www.w3.org/2000/svg" xmlns:xlink="http://www.w3.org/1999/xlink">
<g id="graph0" class="graph" transform="scale(1 1) rotate(0) translate(4 1980)">
<title>G</title>
<polygon fill="white" stroke="transparent" points="-4,4 -4,-1980 1130,-1980 1130,4 -4,4"/>
<!-- http://spdx.org/rdf/terms#SpdxItem -->
<g id="node1" class="node">
<title>http://spdx.org/rdf/terms#SpdxItem</title>
<ellipse fill="none" stroke="#1f77b4" cx="203.05" cy="-73.27" rx="87.86" ry="16.03"/>
<text text-anchor="middle" x="203.05" y="-69.57" font-family="Times,serif" font-size="14.00">spdx:SpdxItem</text>
</g>
<!-- http://schema.org/DefinedTermSet -->
<g id="node2" class="node">
<title>http://schema.org/DefinedTermSet</title>
<ellipse fill="none" stroke="#1f77b4" cx="267.07" cy="-491.48" rx="116.85" ry="16.03"/>
<text text-anchor="middle" x="267.07" y="-487.78" font-family="Times,serif" font-size="14.00">schema:DefinedTer...</text>
</g>
<!-- http://schema.org/DefinedTerm -->
<g id="node3" class="node">
<title>http://schema.org/DefinedTerm</title>
<ellipse fill="none" stroke="#1f77b4" cx="588.59" cy="-1560.36" rx="118.17" ry="16.03"/>
<text text-anchor="middle" x="588.59" y="-1556.66" font-family="Times,serif" font-size="14.00">schema:DefinedTerm</text>
</g>
<!-- http://w3id.org/oseg/ont/ods#Dataset -->
<g id="node4" class="node">
<title>http://w3id.org/oseg/ont/ods#Dataset</title>
<ellipse fill="none" stroke="#1f77b4" cx="533.04" cy="-97.27" rx="71.34" ry="16.03"/>
<text text-anchor="middle" x="533.04" y="-93.57" font-family="Times,serif" font-size="14.00">ods:Dataset</text>
</g>
<!-- http://w3id.org/oseg/ont/okhimg#tags -->
<g id="node5" class="node">
<title>http://w3id.org/oseg/ont/okhimg#tags</title>
<ellipse fill="none" stroke="#e377c2" cx="508.71" cy="-659.51" rx="73.58" ry="16.03"/>
<text text-anchor="middle" x="508.71" y="-655.81" font-family="Times,serif" font-size="14.00">okhimg:tags</text>
</g>
<!-- http://w3id.org/oseg/ont/okhimg#tags&#45;&gt;http://schema.org/DefinedTermSet -->
<g id="edge20" class="edge">
<title>http://w3id.org/oseg/ont/okhimg#tags&#45;&gt;http://schema.org/DefinedTermSet</title>
<path fill="none" stroke="black" d="M486.41,-644C443.2,-613.96 347.99,-547.75 298.43,-513.29"/>
<polygon fill="black" stroke="black" points="300.23,-510.28 290.02,-507.44 296.24,-516.02 300.23,-510.28"/>
<text text-anchor="middle" x="387.92" y="-582.45" font-family="Times,serif" font-size="14.00">a</text>
</g>
<!-- http://w3id.org/oseg/ont/okhimg#tagArt -->
<g id="node39" class="node">
<title>http://w3id.org/oseg/ont/okhimg#tagArt</title>
<ellipse fill="none" stroke="#e377c2" cx="592.94" cy="-1062.85" rx="84.29" ry="16.03"/>
<text text-anchor="middle" x="592.94" y="-1059.15" font-family="Times,serif" font-size="14.00">okhimg:tagArt</text>
</g>
<!-- http://w3id.org/oseg/ont/okhimg#tags&#45;&gt;http://w3id.org/oseg/ont/okhimg#tagArt -->
<g id="edge49" class="edge">
<title>http://w3id.org/oseg/ont/okhimg#tags&#45;&gt;http://w3id.org/oseg/ont/okhimg#tagArt</title>
<path fill="none" stroke="black" d="M512.11,-675.82C525.08,-737.89 571.41,-959.76 587.44,-1036.51"/>
<polygon fill="black" stroke="black" points="584.02,-1037.27 589.49,-1046.34 590.88,-1035.84 584.02,-1037.27"/>
<text text-anchor="middle" x="462.28" y="-859.96" font-family="Times,serif" font-size="14.00">schema:hasDefinedTerm</text>
</g>
<!-- http://w3id.org/oseg/ont/okhimg#tagPhoto -->
<g id="node6" class="node">
<title>http://w3id.org/oseg/ont/okhimg#tagPhoto</title>
<ellipse fill="none" stroke="#e377c2" cx="742.31" cy="-1811.63" rx="97.66" ry="16.03"/>
<text text-anchor="middle" x="742.31" y="-1807.93" font-family="Times,serif" font-size="14.00">okhimg:tagPhoto</text>
</g>
<!-- http://w3id.org/oseg/ont/okhimg#tagPhoto&#45;&gt;http://schema.org/DefinedTerm -->
<g id="edge2" class="edge">
<title>http://w3id.org/oseg/ont/okhimg#tagPhoto&#45;&gt;http://schema.org/DefinedTerm</title>
<path fill="none" stroke="black" d="M732.23,-1795.14C705.94,-1752.18 635.21,-1636.57 603.88,-1585.37"/>
<polygon fill="black" stroke="black" points="606.71,-1583.29 598.51,-1576.58 600.74,-1586.94 606.71,-1583.29"/>
<text text-anchor="middle" x="663.55" y="-1694.05" font-family="Times,serif" font-size="14.00">a</text>
</g>
<!-- http://w3id.org/oseg/ont/oseg&#45;profiles#robinVobruba -->
<g id="node7" class="node">
<title>http://w3id.org/oseg/ont/oseg&#45;profiles#robinVobruba</title>
<ellipse fill="none" stroke="#e377c2" cx="114.31" cy="-166.56" rx="113.69" ry="16.03"/>
<text text-anchor="middle" x="114.31" y="-162.86" font-family="Times,serif" font-size="14.00">osegprof:robinVob...</text>
</g>
<!-- http://w3id.org/oseg/ont/okhimg#slotPhotoThingMain -->
<g id="node8" class="node">
<title>http://w3id.org/oseg/ont/okhimg#slotPhotoThingMain</title>
<ellipse fill="none" stroke="#e377c2" cx="853.42" cy="-1909.21" rx="114.6" ry="16.03"/>
<text text-anchor="middle" x="853.42" y="-1905.51" font-family="Times,serif" font-size="14.00">okhimg:slotPhotoT...</text>
</g>
<!-- http://w3id.org/oseg/ont/okhimg#slotPhotoThingMain&#45;&gt;http://schema.org/DefinedTerm -->
<g id="edge4" class="edge">
<title>http://w3id.org/oseg/ont/okhimg#slotPhotoThingMain&#45;&gt;http://schema.org/DefinedTerm</title>
<path fill="none" stroke="black" d="M841,-1892.85C798.43,-1836.77 658.21,-1652.07 607.28,-1584.99"/>
<polygon fill="black" stroke="black" points="609.81,-1582.54 600.98,-1576.69 604.24,-1586.77 609.81,-1582.54"/>
<text text-anchor="middle" x="719.64" y="-1742.72" font-family="Times,serif" font-size="14.00">a</text>
</g>
<!-- http://w3id.org/oseg/ont/okhimg#slotOrganizationLogo -->
<g id="node9" class="node">
<title>http://w3id.org/oseg/ont/okhimg#slotOrganizationLogo</title>
<ellipse fill="none" stroke="#e377c2" cx="840.38" cy="-1274.35" rx="114.6" ry="16.03"/>
<text text-anchor="middle" x="840.38" y="-1270.65" font-family="Times,serif" font-size="14.00">okhimg:slotOrgani...</text>
</g>
<!-- http://w3id.org/oseg/ont/okhimg#slotOrganizationLogo&#45;&gt;http://schema.org/DefinedTerm -->
<g id="edge19" class="edge">
<title>http://w3id.org/oseg/ont/okhimg#slotOrganizationLogo&#45;&gt;http://schema.org/DefinedTerm</title>
<path fill="none" stroke="black" d="M826.12,-1290.55C783.98,-1338.42 659.83,-1479.43 609.82,-1536.24"/>
<polygon fill="black" stroke="black" points="606.98,-1534.17 603,-1543.99 612.24,-1538.8 606.98,-1534.17"/>
<text text-anchor="middle" x="713.47" y="-1417.19" font-family="Times,serif" font-size="14.00">a</text>
</g>
<!-- http://w3id.org/oseg/ont/okhimg#slotOrganizationLogoBw -->
<g id="node27" class="node">
<title>http://w3id.org/oseg/ont/okhimg#slotOrganizationLogoBw</title>
<ellipse fill="none" stroke="#e377c2" cx="493.65" cy="-1273.89" rx="114.6" ry="16.03"/>
<text text-anchor="middle" x="493.65" y="-1270.19" font-family="Times,serif" font-size="14.00">okhimg:slotOrgani...</text>
</g>
<!-- http://w3id.org/oseg/ont/okhimg#slotOrganizationLogo&#45;&gt;http://w3id.org/oseg/ont/okhimg#slotOrganizationLogoBw -->
<g id="edge37" class="edge">
<title>http://w3id.org/oseg/ont/okhimg#slotOrganizationLogo&#45;&gt;http://w3id.org/oseg/ont/okhimg#slotOrganizationLogoBw</title>
<path fill="none" stroke="black" d="M734.94,-1267.94C695.45,-1267.3 650.38,-1267.19 609.96,-1267.63"/>
<polygon fill="black" stroke="black" points="609.75,-1264.13 599.79,-1267.75 609.83,-1271.13 609.75,-1264.13"/>
<text text-anchor="middle" x="644.95" y="-1256.59" font-family="Times,serif" font-size="14.00">seeAlso</text>
</g>
<!-- http://w3id.org/oseg/ont/0.1.0/okhimg -->
<g id="node10" class="node">
<title>http://w3id.org/oseg/ont/0.1.0/okhimg</title>
<ellipse fill="none" stroke="#e377c2" cx="479.58" cy="-49.24" rx="70.01" ry="16.03"/>
<text text-anchor="middle" x="479.58" y="-45.54" font-family="Times,serif" font-size="14.00">ns1:okhimg</text>
</g>
<!-- http://w3id.org/oseg/ont/okhimg#slotSymbol -->
<g id="node11" class="node">
<title>http://w3id.org/oseg/ont/okhimg#slotSymbol</title>
<ellipse fill="none" stroke="#e377c2" cx="471.61" cy="-1959.7" rx="108.38" ry="16.03"/>
<text text-anchor="middle" x="471.61" y="-1956" font-family="Times,serif" font-size="14.00">okhimg:slotSymbol</text>
</g>
<!-- http://w3id.org/oseg/ont/okhimg#slotSymbol&#45;&gt;http://schema.org/DefinedTerm -->
<g id="edge6" class="edge">
<title>http://w3id.org/oseg/ont/okhimg#slotSymbol&#45;&gt;http://schema.org/DefinedTerm</title>
<path fill="none" stroke="black" d="M476.41,-1943.3C494.52,-1881.49 558.75,-1662.23 580.96,-1586.4"/>
<polygon fill="black" stroke="black" points="584.35,-1587.26 583.81,-1576.68 577.64,-1585.29 584.35,-1587.26"/>
<text text-anchor="middle" x="524.19" y="-1768.65" font-family="Times,serif" font-size="14.00">a</text>
</g>
<!-- http://w3id.org/oseg/ont/okhimg#tagLogo -->
<g id="node12" class="node">
<title>http://w3id.org/oseg/ont/okhimg#tagLogo</title>
<ellipse fill="none" stroke="#e377c2" cx="533.2" cy="-1817" rx="92.76" ry="16.03"/>
<text text-anchor="middle" x="533.2" y="-1813.3" font-family="Times,serif" font-size="14.00">okhimg:tagLogo</text>
</g>
<!-- http://w3id.org/oseg/ont/okhimg#tagLogo&#45;&gt;http://schema.org/DefinedTerm -->
<g id="edge8" class="edge">
<title>http://w3id.org/oseg/ont/okhimg#tagLogo&#45;&gt;http://schema.org/DefinedTerm</title>
<path fill="none" stroke="black" d="M536.74,-1800.55C546.1,-1757.19 571.52,-1639.43 582.92,-1586.62"/>
<polygon fill="black" stroke="black" points="586.38,-1587.18 585.07,-1576.67 579.54,-1585.71 586.38,-1587.18"/>
<text text-anchor="middle" x="555.33" y="-1697.38" font-family="Times,serif" font-size="14.00">a</text>
</g>
<!-- http://w3id.org/oseg/ont/okhimg#slotModelMain -->
<g id="node13" class="node">
<title>http://w3id.org/oseg/ont/okhimg#slotModelMain</title>
<ellipse fill="none" stroke="#e377c2" cx="998.57" cy="-1666.99" rx="127.06" ry="16.03"/>
<text text-anchor="middle" x="998.57" y="-1663.29" font-family="Times,serif" font-size="14.00">okhimg:slotModelMain</text>
</g>
<!-- http://w3id.org/oseg/ont/okhimg#slotModelMain&#45;&gt;http://schema.org/DefinedTerm -->
<g id="edge9" class="edge">
<title>http://w3id.org/oseg/ont/okhimg#slotModelMain&#45;&gt;http://schema.org/DefinedTerm</title>
<path fill="none" stroke="black" d="M942.42,-1652.39C867.13,-1632.81 733.72,-1598.11 653.98,-1577.37"/>
<polygon fill="black" stroke="black" points="654.61,-1573.92 644.06,-1574.79 652.85,-1580.69 654.61,-1573.92"/>
<text text-anchor="middle" x="793.7" y="-1618.68" font-family="Times,serif" font-size="14.00">a</text>
</g>
<!-- http://w3id.org/oseg/ont/okhimg#tagDiagram -->
<g id="node14" class="node">
<title>http://w3id.org/oseg/ont/okhimg#tagDiagram</title>
<ellipse fill="none" stroke="#e377c2" cx="279.86" cy="-1806.07" rx="111.95" ry="16.03"/>
<text text-anchor="middle" x="279.86" y="-1802.37" font-family="Times,serif" font-size="14.00">okhimg:tagDiagram</text>
</g>
<!-- http://w3id.org/oseg/ont/okhimg#tagDiagram&#45;&gt;http://schema.org/DefinedTerm -->
<g id="edge10" class="edge">
<title>http://w3id.org/oseg/ont/okhimg#tagDiagram&#45;&gt;http://schema.org/DefinedTerm</title>
<path fill="none" stroke="black" d="M300.12,-1789.95C353.54,-1747.43 498.4,-1632.14 560.12,-1583.02"/>
<polygon fill="black" stroke="black" points="562.61,-1585.51 568.26,-1576.55 558.25,-1580.03 562.61,-1585.51"/>
<text text-anchor="middle" x="425.62" y="-1690.29" font-family="Times,serif" font-size="14.00">a</text>
</g>
<!-- http://w3id.org/oseg/ont/okhimg#slotModelFromAbove -->
<g id="node15" class="node">
<title>http://w3id.org/oseg/ont/okhimg#slotModelFromAbove</title>
<ellipse fill="none" stroke="#e377c2" cx="839.7" cy="-1707.53" rx="116.85" ry="16.03"/>
<text text-anchor="middle" x="839.7" y="-1703.83" font-family="Times,serif" font-size="14.00">okhimg:slotModelF...</text>
</g>
<!-- http://w3id.org/oseg/ont/okhimg#slotModelFromAbove&#45;&gt;http://schema.org/DefinedTerm -->
<g id="edge11" class="edge">
<title>http://w3id.org/oseg/ont/okhimg#slotModelFromAbove&#45;&gt;http://schema.org/DefinedTerm</title>
<path fill="none" stroke="black" d="M812.34,-1691.5C766.78,-1664.79 675.33,-1611.2 624.59,-1581.46"/>
<polygon fill="black" stroke="black" points="626.3,-1578.41 615.9,-1576.37 622.76,-1584.45 626.3,-1578.41"/>
<text text-anchor="middle" x="713.97" y="-1640.28" font-family="Times,serif" font-size="14.00">a</text>
</g>
<!-- http://w3id.org/oseg/ont/okhimg -->
<g id="node16" class="node">
<title>http://w3id.org/oseg/ont/okhimg</title>
<ellipse fill="none" stroke="#e377c2" cx="394.36" cy="-302.76" rx="70.01" ry="16.03"/>
<text text-anchor="middle" x="394.36" y="-299.06" font-family="Times,serif" font-size="14.00">ns2:okhimg</text>
</g>
<!-- http://w3id.org/oseg/ont/okhimg&#45;&gt;http://spdx.org/rdf/terms#SpdxItem -->
<g id="edge12" class="edge">
<title>http://w3id.org/oseg/ont/okhimg&#45;&gt;http://spdx.org/rdf/terms#SpdxItem</title>
<path fill="none" stroke="black" d="M380.9,-286.63C347.77,-246.88 262.08,-144.08 223,-97.2"/>
<polygon fill="black" stroke="black" points="225.58,-94.83 216.49,-89.39 220.2,-99.31 225.58,-94.83"/>
<text text-anchor="middle" x="297.45" y="-195.72" font-family="Times,serif" font-size="14.00">a</text>
</g>
<!-- http://w3id.org/oseg/ont/okhimg&#45;&gt;http://w3id.org/oseg/ont/ods#Dataset -->
<g id="edge21" class="edge">
<title>http://w3id.org/oseg/ont/okhimg&#45;&gt;http://w3id.org/oseg/ont/ods#Dataset</title>
<path fill="none" stroke="black" d="M405.24,-286.64C429.38,-250.86 487.56,-164.65 516.34,-122.01"/>
<polygon fill="black" stroke="black" points="519.32,-123.85 522.01,-113.6 513.52,-119.94 519.32,-123.85"/>
<text text-anchor="middle" x="456.29" y="-208.12" font-family="Times,serif" font-size="14.00">a</text>
</g>
<!-- http://w3id.org/oseg/ont/okhimg&#45;&gt;http://w3id.org/oseg/ont/okhimg#tags -->
<g id="edge1" class="edge">
<title>http://w3id.org/oseg/ont/okhimg&#45;&gt;http://w3id.org/oseg/ont/okhimg#tags</title>
<path fill="none" stroke="black" d="M399.57,-319.02C417.69,-375.55 478.06,-563.89 500.35,-633.42"/>
<polygon fill="black" stroke="black" points="497.08,-634.7 503.47,-643.15 503.75,-632.56 497.08,-634.7"/>
<text text-anchor="middle" x="514.96" y="-480.02" font-family="Times,serif" font-size="14.00">void:rootResource</text>
</g>
<!-- http://w3id.org/oseg/ont/okhimg&#45;&gt;http://w3id.org/oseg/ont/oseg&#45;profiles#robinVobruba -->
<g id="edge3" class="edge">
<title>http://w3id.org/oseg/ont/okhimg&#45;&gt;http://w3id.org/oseg/ont/oseg&#45;profiles#robinVobruba</title>
<path fill="none" stroke="black" d="M371.75,-287.31C327.31,-262.18 227.67,-213.25 166.19,-185.9"/>
<polygon fill="black" stroke="black" points="167.6,-182.7 157.04,-181.87 164.78,-189.1 167.6,-182.7"/>
<text text-anchor="middle" x="211.47" y="-225.4" font-family="Times,serif" font-size="14.00">dcterms:creator</text>
</g>
<!-- http://w3id.org/oseg/ont/okhimg&#45;&gt;http://w3id.org/oseg/ont/oseg&#45;profiles#robinVobruba -->
<g id="edge27" class="edge">
<title>http://w3id.org/oseg/ont/okhimg&#45;&gt;http://w3id.org/oseg/ont/oseg&#45;profiles#robinVobruba</title>
<path fill="none" stroke="black" d="M355.38,-289.09C299.69,-265.02 198.43,-215.72 146.65,-187.42"/>
<polygon fill="black" stroke="black" points="148.32,-184.35 137.88,-182.56 144.93,-190.47 148.32,-184.35"/>
<text text-anchor="middle" x="195.52" y="-242.05" font-family="Times,serif" font-size="14.00">schema:creator</text>
</g>
<!-- http://w3id.org/oseg/ont/okhimg&#45;&gt;http://w3id.org/oseg/ont/0.1.0/okhimg -->
<g id="edge7" class="edge">
<title>http://w3id.org/oseg/ont/okhimg&#45;&gt;http://w3id.org/oseg/ont/0.1.0/okhimg</title>
<path fill="none" stroke="black" d="M399.82,-286.52C414.21,-243.69 453.29,-127.42 470.84,-75.22"/>
<polygon fill="black" stroke="black" points="474.18,-76.27 474.05,-65.68 467.55,-74.04 474.18,-76.27"/>
<text text-anchor="middle" x="383.83" y="-184.67" font-family="Times,serif" font-size="14.00">owl:versionIRI</text>
</g>
<!-- http://w3id.org/oseg/ont/okhimg#slots -->
<g id="node20" class="node">
<title>http://w3id.org/oseg/ont/okhimg#slots</title>
<ellipse fill="none" stroke="#e377c2" cx="351.43" cy="-661.26" rx="75.82" ry="16.03"/>
<text text-anchor="middle" x="351.43" y="-657.56" font-family="Times,serif" font-size="14.00">okhimg:slots</text>
</g>
<!-- http://w3id.org/oseg/ont/okhimg&#45;&gt;http://w3id.org/oseg/ont/okhimg#slots -->
<g id="edge16" class="edge">
<title>http://w3id.org/oseg/ont/okhimg&#45;&gt;http://w3id.org/oseg/ont/okhimg#slots</title>
<path fill="none" stroke="black" d="M392.4,-319.1C385.61,-375.79 363.03,-564.4 354.62,-634.62"/>
<polygon fill="black" stroke="black" points="351.11,-634.49 353.4,-644.83 358.06,-635.32 351.11,-634.49"/>
<text text-anchor="middle" x="438.51" y="-465.66" font-family="Times,serif" font-size="14.00">void:rootResource</text>
</g>
<!-- http://w3id.org/oseg/ont/oseg&#45;profiles#Iopa -->
<g id="node24" class="node">
<title>http://w3id.org/oseg/ont/oseg&#45;profiles#Iopa</title>
<ellipse fill="none" stroke="#e377c2" cx="320.88" cy="-15.95" rx="80.72" ry="16.03"/>
<text text-anchor="middle" x="320.88" y="-12.25" font-family="Times,serif" font-size="14.00">osegprof:Iopa</text>
</g>
<!-- http://w3id.org/oseg/ont/okhimg&#45;&gt;http://w3id.org/oseg/ont/oseg&#45;profiles#Iopa -->
<g id="edge24" class="edge">
<title>http://w3id.org/oseg/ont/okhimg&#45;&gt;http://w3id.org/oseg/ont/oseg&#45;profiles#Iopa</title>
<path fill="none" stroke="black" d="M390.19,-286.52C378.05,-239.11 342.56,-100.58 327.62,-42.28"/>
<polygon fill="black" stroke="black" points="330.95,-41.19 325.08,-32.37 324.17,-42.93 330.95,-41.19"/>
<text text-anchor="middle" x="424.41" y="-168.2" font-family="Times,serif" font-size="14.00">dcterms:publisher</text>
</g>
<!-- http://spdx.org/licenses/AGPL&#45;3.0&#45;or&#45;later -->
<g id="node32" class="node">
<title>http://spdx.org/licenses/AGPL&#45;3.0&#45;or&#45;later</title>
<ellipse fill="none" stroke="#e377c2" cx="666.84" cy="-137.82" rx="111.95" ry="16.03"/>
<text text-anchor="middle" x="666.84" y="-134.12" font-family="Times,serif" font-size="14.00">spdxl:AGPL&#45;3.0&#45;or...</text>
</g>
<!-- http://w3id.org/oseg/ont/okhimg&#45;&gt;http://spdx.org/licenses/AGPL&#45;3.0&#45;or&#45;later -->
<g id="edge34" class="edge">
<title>http://w3id.org/oseg/ont/okhimg&#45;&gt;http://spdx.org/licenses/AGPL&#45;3.0&#45;or&#45;later</title>
<path fill="none" stroke="black" d="M419.5,-287.54C468.3,-258 575.93,-192.85 631.74,-159.07"/>
<polygon fill="black" stroke="black" points="633.81,-161.9 640.56,-153.73 630.19,-155.91 633.81,-161.9"/>
<text text-anchor="middle" x="449.62" y="-227.1" font-family="Times,serif" font-size="14.00">spdx:licenseDeclared</text>
</g>
<!-- http://id.loc.gov/vocabulary/iso639&#45;1/en -->
<g id="node41" class="node">
<title>http://id.loc.gov/vocabulary/iso639&#45;1/en</title>
<ellipse fill="none" stroke="#e377c2" cx="299.55" cy="-124.58" rx="45.01" ry="16.03"/>
<text text-anchor="middle" x="299.55" y="-120.88" font-family="Times,serif" font-size="14.00">ns3:en</text>
</g>
<!-- http://w3id.org/oseg/ont/okhimg&#45;&gt;http://id.loc.gov/vocabulary/iso639&#45;1/en -->
<g id="edge46" class="edge">
<title>http://w3id.org/oseg/ont/okhimg&#45;&gt;http://id.loc.gov/vocabulary/iso639&#45;1/en</title>
<path fill="none" stroke="black" d="M385.61,-286.32C368.98,-255.08 332.74,-186.97 313.01,-149.88"/>
<polygon fill="black" stroke="black" points="315.92,-147.91 308.14,-140.72 309.74,-151.2 315.92,-147.91"/>
<text text-anchor="middle" x="381.56" y="-206.9" font-family="Times,serif" font-size="14.00">dcterms:language</text>
</g>
<!-- http://w3id.org/oseg/ont/okhimg#tagIcon -->
<g id="node17" class="node">
<title>http://w3id.org/oseg/ont/okhimg#tagIcon</title>
<ellipse fill="none" stroke="#e377c2" cx="661.85" cy="-1233.34" rx="89.61" ry="16.03"/>
<text text-anchor="middle" x="661.85" y="-1229.64" font-family="Times,serif" font-size="14.00">okhimg:tagIcon</text>
</g>
<!-- http://w3id.org/oseg/ont/okhimg#tagIcon&#45;&gt;http://schema.org/DefinedTerm -->
<g id="edge13" class="edge">
<title>http://w3id.org/oseg/ont/okhimg#tagIcon&#45;&gt;http://schema.org/DefinedTerm</title>
<path fill="none" stroke="black" d="M658.11,-1250.01C646.21,-1303.15 609.08,-1468.88 594.53,-1533.85"/>
<polygon fill="black" stroke="black" points="591.08,-1533.21 592.31,-1543.73 597.91,-1534.74 591.08,-1533.21"/>
<text text-anchor="middle" x="621.82" y="-1395.73" font-family="Times,serif" font-size="14.00">a</text>
</g>
<!-- http://w3id.org/oseg/ont/okhimg#slotIconMainBw -->
<g id="node18" class="node">
<title>http://w3id.org/oseg/ont/okhimg#slotIconMainBw</title>
<ellipse fill="none" stroke="#e377c2" cx="283.68" cy="-1314.44" rx="117.26" ry="16.03"/>
<text text-anchor="middle" x="283.68" y="-1310.74" font-family="Times,serif" font-size="14.00">okhimg:slotIconMa...</text>
</g>
<!-- http://w3id.org/oseg/ont/okhimg#slotIconMainBw&#45;&gt;http://schema.org/DefinedTerm -->
<g id="edge14" class="edge">
<title>http://w3id.org/oseg/ont/okhimg#slotIconMainBw&#45;&gt;http://schema.org/DefinedTerm</title>
<path fill="none" stroke="black" d="M303.69,-1330.57C356.45,-1373.13 499.52,-1488.52 560.47,-1537.69"/>
<polygon fill="black" stroke="black" points="558.53,-1540.62 568.51,-1544.17 562.92,-1535.17 558.53,-1540.62"/>
<text text-anchor="middle" x="427.58" y="-1437.93" font-family="Times,serif" font-size="14.00">a</text>
</g>
<!-- http://w3id.org/oseg/ont/okhimg#slotIconMain -->
<g id="node21" class="node">
<title>http://w3id.org/oseg/ont/okhimg#slotIconMain</title>
<ellipse fill="none" stroke="#e377c2" cx="383.37" cy="-1088.47" rx="117.26" ry="16.03"/>
<text text-anchor="middle" x="383.37" y="-1084.77" font-family="Times,serif" font-size="14.00">okhimg:slotIconMain</text>
</g>
<!-- http://w3id.org/oseg/ont/okhimg#slotIconMainBw&#45;&gt;http://w3id.org/oseg/ont/okhimg#slotIconMain -->
<g id="edge17" class="edge">
<title>http://w3id.org/oseg/ont/okhimg#slotIconMainBw&#45;&gt;http://w3id.org/oseg/ont/okhimg#slotIconMain</title>
<path fill="none" stroke="black" d="M295.22,-1297.89C316.44,-1258.88 359.76,-1161.07 376.77,-1114.23"/>
<polygon fill="black" stroke="black" points="380.08,-1115.37 380.07,-1104.78 373.47,-1113.06 380.08,-1115.37"/>
<text text-anchor="middle" x="308.5" y="-1209.86" font-family="Times,serif" font-size="14.00">seeAlso</text>
</g>
<!-- http://w3id.org/oseg/ont/okhimg#slotModelFromBelow -->
<g id="node19" class="node">
<title>http://w3id.org/oseg/ont/okhimg#slotModelFromBelow</title>
<ellipse fill="none" stroke="#e377c2" cx="937.23" cy="-1764.26" rx="116.85" ry="16.03"/>
<text text-anchor="middle" x="937.23" y="-1760.56" font-family="Times,serif" font-size="14.00">okhimg:slotModelF...</text>
</g>
<!-- http://w3id.org/oseg/ont/okhimg#slotModelFromBelow&#45;&gt;http://schema.org/DefinedTerm -->
<g id="edge15" class="edge">
<title>http://w3id.org/oseg/ont/okhimg#slotModelFromBelow&#45;&gt;http://schema.org/DefinedTerm</title>
<path fill="none" stroke="black" d="M910.16,-1748.43C847.99,-1712.08 694.98,-1622.59 624.81,-1581.55"/>
<polygon fill="black" stroke="black" points="626.28,-1578.35 615.88,-1576.33 622.74,-1584.39 626.28,-1578.35"/>
<text text-anchor="middle" x="762.99" y="-1668.79" font-family="Times,serif" font-size="14.00">a</text>
</g>
<!-- http://w3id.org/oseg/ont/okhimg#slots&#45;&gt;http://schema.org/DefinedTermSet -->
<g id="edge43" class="edge">
<title>http://w3id.org/oseg/ont/okhimg#slots&#45;&gt;http://schema.org/DefinedTermSet</title>
<path fill="none" stroke="black" d="M343.34,-644.98C328.6,-615.32 297.28,-552.28 279.7,-516.91"/>
<polygon fill="black" stroke="black" points="282.72,-515.11 275.14,-507.71 276.45,-518.23 282.72,-515.11"/>
<text text-anchor="middle" x="307.02" y="-584.74" font-family="Times,serif" font-size="14.00">a</text>
</g>
<!-- http://w3id.org/oseg/ont/okhimg#slots&#45;&gt;http://w3id.org/oseg/ont/okhimg#slotIconMain -->
<g id="edge48" class="edge">
<title>http://w3id.org/oseg/ont/okhimg#slots&#45;&gt;http://w3id.org/oseg/ont/okhimg#slotIconMain</title>
<path fill="none" stroke="black" d="M352.66,-677.75C357.51,-742.63 375.32,-980.75 381.36,-1061.49"/>
<polygon fill="black" stroke="black" points="377.89,-1062.09 382.13,-1071.8 384.87,-1061.57 377.89,-1062.09"/>
<text text-anchor="middle" x="279.51" y="-873.42" font-family="Times,serif" font-size="14.00">schema:hasDefinedTerm</text>
</g>
<!-- http://w3id.org/oseg/ont/okhimg#slotIconMain&#45;&gt;http://schema.org/DefinedTerm -->
<g id="edge18" class="edge">
<title>http://w3id.org/oseg/ont/okhimg#slotIconMain&#45;&gt;http://schema.org/DefinedTerm</title>
<path fill="none" stroke="black" d="M390.44,-1104.71C420.74,-1174.39 539.89,-1448.39 577.29,-1534.39"/>
<polygon fill="black" stroke="black" points="574.14,-1535.93 581.34,-1543.7 580.56,-1533.13 574.14,-1535.93"/>
<text text-anchor="middle" x="479.37" y="-1323.35" font-family="Times,serif" font-size="14.00">a</text>
</g>
<!-- http://w3id.org/oseg/ont/okhimg#slotIconMain&#45;&gt;http://w3id.org/oseg/ont/okhimg#slotIconMainBw -->
<g id="edge47" class="edge">
<title>http://w3id.org/oseg/ont/okhimg#slotIconMain&#45;&gt;http://w3id.org/oseg/ont/okhimg#slotIconMainBw</title>
<path fill="none" stroke="black" d="M371.84,-1105.01C350.62,-1144.02 307.3,-1241.83 290.29,-1288.68"/>
<polygon fill="black" stroke="black" points="286.98,-1287.53 286.99,-1298.12 293.59,-1289.84 286.98,-1287.53"/>
<text text-anchor="middle" x="303.56" y="-1185.64" font-family="Times,serif" font-size="14.00">seeAlso</text>
</g>
<!-- http://w3id.org/oseg/ont/okhimg#slotLogo -->
<g id="node22" class="node">
<title>http://w3id.org/oseg/ont/okhimg#slotLogo</title>
<ellipse fill="none" stroke="#e377c2" cx="360.44" cy="-1413.26" rx="94.51" ry="16.03"/>
<text text-anchor="middle" x="360.44" y="-1409.56" font-family="Times,serif" font-size="14.00">okhimg:slotLogo</text>
</g>
<!-- http://w3id.org/oseg/ont/okhimg#slotLogo&#45;&gt;http://schema.org/DefinedTerm -->
<g id="edge29" class="edge">
<title>http://w3id.org/oseg/ont/okhimg#slotLogo&#45;&gt;http://schema.org/DefinedTerm</title>
<path fill="none" stroke="black" d="M384.85,-1429C425.89,-1455.46 508.75,-1508.89 555.16,-1538.81"/>
<polygon fill="black" stroke="black" points="553.35,-1541.81 563.65,-1544.29 557.15,-1535.93 553.35,-1541.81"/>
<text text-anchor="middle" x="465.5" y="-1487.7" font-family="Times,serif" font-size="14.00">a</text>
</g>
<!-- http://w3id.org/oseg/ont/okhimg#slotLogoBw -->
<g id="node23" class="node">
<title>http://w3id.org/oseg/ont/okhimg#slotLogoBw</title>
<ellipse fill="none" stroke="#e377c2" cx="275.56" cy="-1606.8" rx="111.03" ry="16.03"/>
<text text-anchor="middle" x="275.56" y="-1603.1" font-family="Times,serif" font-size="14.00">okhimg:slotLogoBw</text>
</g>
<!-- http://w3id.org/oseg/ont/okhimg#slotLogo&#45;&gt;http://w3id.org/oseg/ont/okhimg#slotLogoBw -->
<g id="edge40" class="edge">
<title>http://w3id.org/oseg/ont/okhimg#slotLogo&#45;&gt;http://w3id.org/oseg/ont/okhimg#slotLogoBw</title>
<path fill="none" stroke="black" d="M348.84,-1429.47C330.46,-1463.07 296.36,-1540.4 281.84,-1580.96"/>
<polygon fill="black" stroke="black" points="278.52,-1579.83 278.59,-1590.43 285.15,-1582.1 278.52,-1579.83"/>
<text text-anchor="middle" x="287.84" y="-1509.01" font-family="Times,serif" font-size="14.00">seeAlso</text>
</g>
<!-- http://w3id.org/oseg/ont/okhimg#slotLogoBw&#45;&gt;http://schema.org/DefinedTerm -->
<g id="edge23" class="edge">
<title>http://w3id.org/oseg/ont/okhimg#slotLogoBw&#45;&gt;http://schema.org/DefinedTerm</title>
<path fill="none" stroke="black" d="M353.75,-1595.2C397.61,-1588.7 452.53,-1580.55 498.23,-1573.77"/>
<polygon fill="black" stroke="black" points="498.76,-1577.23 508.13,-1572.3 497.73,-1570.3 498.76,-1577.23"/>
<text text-anchor="middle" x="421.49" y="-1588.29" font-family="Times,serif" font-size="14.00">a</text>
</g>
<!-- http://w3id.org/oseg/ont/okhimg#slotLogoBw&#45;&gt;http://w3id.org/oseg/ont/okhimg#slotLogo -->
<g id="edge22" class="edge">
<title>http://w3id.org/oseg/ont/okhimg#slotLogoBw&#45;&gt;http://w3id.org/oseg/ont/okhimg#slotLogo</title>
<path fill="none" stroke="black" d="M287.16,-1590.59C305.54,-1556.99 339.64,-1479.66 354.16,-1439.1"/>
<polygon fill="black" stroke="black" points="357.48,-1440.23 357.41,-1429.63 350.86,-1437.95 357.48,-1440.23"/>
<text text-anchor="middle" x="348.16" y="-1518.65" font-family="Times,serif" font-size="14.00">seeAlso</text>
</g>
<!-- http://w3id.org/oseg/ont/okhimg#tagBw -->
<g id="node25" class="node">
<title>http://w3id.org/oseg/ont/okhimg#tagBw</title>
<ellipse fill="none" stroke="#e377c2" cx="711.04" cy="-1857.69" rx="84.29" ry="16.03"/>
<text text-anchor="middle" x="711.04" y="-1853.99" font-family="Times,serif" font-size="14.00">okhimg:tagBw</text>
</g>
<!-- http://w3id.org/oseg/ont/okhimg#tagBw&#45;&gt;http://schema.org/DefinedTerm -->
<g id="edge25" class="edge">
<title>http://w3id.org/oseg/ont/okhimg#tagBw&#45;&gt;http://schema.org/DefinedTerm</title>
<path fill="none" stroke="black" d="M704.28,-1841.28C684.04,-1792.14 623.81,-1645.88 599.22,-1586.18"/>
<polygon fill="black" stroke="black" points="602.37,-1584.64 595.32,-1576.72 595.9,-1587.3 602.37,-1584.64"/>
<text text-anchor="middle" x="647.25" y="-1717.53" font-family="Times,serif" font-size="14.00">a</text>
</g>
<!-- http://w3id.org/oseg/ont/okhimg#tagColor -->
<g id="node26" class="node">
<title>http://w3id.org/oseg/ont/okhimg#tagColor</title>
<ellipse fill="none" stroke="#e377c2" cx="633.61" cy="-1919.15" rx="95.42" ry="16.03"/>
<text text-anchor="middle" x="633.61" y="-1915.45" font-family="Times,serif" font-size="14.00">okhimg:tagColor</text>
</g>
<!-- http://w3id.org/oseg/ont/okhimg#tagColor&#45;&gt;http://schema.org/DefinedTerm -->
<g id="edge26" class="edge">
<title>http://w3id.org/oseg/ont/okhimg#tagColor&#45;&gt;http://schema.org/DefinedTerm</title>
<path fill="none" stroke="black" d="M631.56,-1902.8C624.44,-1846.07 600.75,-1657.31 591.93,-1587.03"/>
<polygon fill="black" stroke="black" points="595.37,-1586.3 590.65,-1576.81 588.42,-1587.17 595.37,-1586.3"/>
<text text-anchor="middle" x="607.24" y="-1748.72" font-family="Times,serif" font-size="14.00">a</text>
</g>
<!-- http://w3id.org/oseg/ont/okhimg#slotOrganizationLogoBw&#45;&gt;http://schema.org/DefinedTerm -->
<g id="edge28" class="edge">
<title>http://w3id.org/oseg/ont/okhimg#slotOrganizationLogoBw&#45;&gt;http://schema.org/DefinedTerm</title>
<path fill="none" stroke="black" d="M499.16,-1290.53C515.03,-1338.41 560.88,-1476.76 580.03,-1534.54"/>
<polygon fill="black" stroke="black" points="576.71,-1535.64 583.18,-1544.04 583.35,-1533.44 576.71,-1535.64"/>
<text text-anchor="middle" x="535.1" y="-1416.33" font-family="Times,serif" font-size="14.00">a</text>
</g>
<!-- http://w3id.org/oseg/ont/okhimg#slotOrganizationLogoBw&#45;&gt;http://w3id.org/oseg/ont/okhimg#slotOrganizationLogo -->
<g id="edge5" class="edge">
<title>http://w3id.org/oseg/ont/okhimg#slotOrganizationLogoBw&#45;&gt;http://w3id.org/oseg/ont/okhimg#slotOrganizationLogo</title>
<path fill="none" stroke="black" d="M599.08,-1280.3C638.57,-1280.94 683.64,-1281.05 724.06,-1280.61"/>
<polygon fill="black" stroke="black" points="724.28,-1284.11 734.23,-1280.49 724.19,-1277.11 724.28,-1284.11"/>
<text text-anchor="middle" x="689.07" y="-1284.25" font-family="Times,serif" font-size="14.00">seeAlso</text>
</g>
<!-- http://w3id.org/oseg/ont/okhimg#slotModelFromRight -->
<g id="node28" class="node">
<title>http://w3id.org/oseg/ont/okhimg#slotModelFromRight</title>
<ellipse fill="none" stroke="#e377c2" cx="232.55" cy="-1744.25" rx="116.85" ry="16.03"/>
<text text-anchor="middle" x="232.55" y="-1740.55" font-family="Times,serif" font-size="14.00">okhimg:slotModelF...</text>
</g>
<!-- http://w3id.org/oseg/ont/okhimg#slotModelFromRight&#45;&gt;http://schema.org/DefinedTerm -->
<g id="edge30" class="edge">
<title>http://w3id.org/oseg/ont/okhimg#slotModelFromRight&#45;&gt;http://schema.org/DefinedTerm</title>
<path fill="none" stroke="black" d="M263.22,-1728.41C327.71,-1695.11 477.32,-1617.83 548.96,-1580.83"/>
<polygon fill="black" stroke="black" points="550.84,-1583.8 558.12,-1576.1 547.63,-1577.58 550.84,-1583.8"/>
<text text-anchor="middle" x="401.59" y="-1658.42" font-family="Times,serif" font-size="14.00">a</text>
</g>
<!-- http://w3id.org/oseg/ont/okhimg#tagGray -->
<g id="node29" class="node">
<title>http://w3id.org/oseg/ont/okhimg#tagGray</title>
<ellipse fill="none" stroke="#e377c2" cx="728.38" cy="-1347.08" rx="92.76" ry="16.03"/>
<text text-anchor="middle" x="728.38" y="-1343.38" font-family="Times,serif" font-size="14.00">okhimg:tagGray</text>
</g>
<!-- http://w3id.org/oseg/ont/okhimg#tagGray&#45;&gt;http://schema.org/DefinedTerm -->
<g id="edge31" class="edge">
<title>http://w3id.org/oseg/ont/okhimg#tagGray&#45;&gt;http://schema.org/DefinedTerm</title>
<path fill="none" stroke="black" d="M717.64,-1363.46C693.3,-1400.6 633.79,-1491.4 604.88,-1535.51"/>
<polygon fill="black" stroke="black" points="601.91,-1533.64 599.36,-1543.93 607.77,-1537.48 601.91,-1533.64"/>
<text text-anchor="middle" x="656.76" y="-1453.28" font-family="Times,serif" font-size="14.00">a</text>
</g>
<!-- http://w3id.org/oseg/ont/okhimg#slotModelFromBack -->
<g id="node30" class="node">
<title>http://w3id.org/oseg/ont/okhimg#slotModelFromBack</title>
<ellipse fill="none" stroke="#e377c2" cx="945.79" cy="-1356.31" rx="116.85" ry="16.03"/>
<text text-anchor="middle" x="945.79" y="-1352.61" font-family="Times,serif" font-size="14.00">okhimg:slotModelF...</text>
</g>
<!-- http://w3id.org/oseg/ont/okhimg#slotModelFromBack&#45;&gt;http://schema.org/DefinedTerm -->
<g id="edge32" class="edge">
<title>http://w3id.org/oseg/ont/okhimg#slotModelFromBack&#45;&gt;http://schema.org/DefinedTerm</title>
<path fill="none" stroke="black" d="M918.06,-1372.15C854.24,-1408.61 696.96,-1498.46 625.26,-1539.41"/>
<polygon fill="black" stroke="black" points="623.49,-1536.39 616.55,-1544.39 626.97,-1542.47 623.49,-1536.39"/>
<text text-anchor="middle" x="767.16" y="-1459.58" font-family="Times,serif" font-size="14.00">a</text>
</g>
<!-- http://w3id.org/oseg/ont/okhimg#slotSocial -->
<g id="node31" class="node">
<title>http://w3id.org/oseg/ont/okhimg#slotSocial</title>
<ellipse fill="none" stroke="#e377c2" cx="331.35" cy="-1852.41" rx="101.23" ry="16.03"/>
<text text-anchor="middle" x="331.35" y="-1848.71" font-family="Times,serif" font-size="14.00">okhimg:slotSocial</text>
</g>
<!-- http://w3id.org/oseg/ont/okhimg#slotSocial&#45;&gt;http://schema.org/DefinedTerm -->
<g id="edge33" class="edge">
<title>http://w3id.org/oseg/ont/okhimg#slotSocial&#45;&gt;http://schema.org/DefinedTerm</title>
<path fill="none" stroke="black" d="M345.55,-1836.29C388.4,-1787.64 516.62,-1642.07 567.47,-1584.34"/>
<polygon fill="black" stroke="black" points="570.13,-1586.61 574.12,-1576.79 564.88,-1581.98 570.13,-1586.61"/>
<text text-anchor="middle" x="452.01" y="-1714.11" font-family="Times,serif" font-size="14.00">a</text>
</g>
<!-- http://w3id.org/oseg/ont/okhimg#slotPhotoPackaging -->
<g id="node33" class="node">
<title>http://w3id.org/oseg/ont/okhimg#slotPhotoPackaging</title>
<ellipse fill="none" stroke="#e377c2" cx="192.16" cy="-1453.82" rx="113.69" ry="16.03"/>
<text text-anchor="middle" x="192.16" y="-1450.12" font-family="Times,serif" font-size="14.00">okhimg:slotPhotoP...</text>
</g>
<!-- http://w3id.org/oseg/ont/okhimg#slotPhotoPackaging&#45;&gt;http://schema.org/DefinedTerm -->
<g id="edge35" class="edge">
<title>http://w3id.org/oseg/ont/okhimg#slotPhotoPackaging&#45;&gt;http://schema.org/DefinedTerm</title>
<path fill="none" stroke="black" d="M245.63,-1468.19C318.04,-1487.65 447.11,-1522.34 524.59,-1543.16"/>
<polygon fill="black" stroke="black" points="524.14,-1546.67 534.7,-1545.88 525.96,-1539.91 524.14,-1546.67"/>
<text text-anchor="middle" x="380.61" y="-1509.48" font-family="Times,serif" font-size="14.00">a</text>
</g>
<!-- http://w3id.org/oseg/ont/okhimg#tagDrawing -->
<g id="node34" class="node">
<title>http://w3id.org/oseg/ont/okhimg#tagDrawing</title>
<ellipse fill="none" stroke="#e377c2" cx="861.2" cy="-1449.08" rx="111.95" ry="16.03"/>
<text text-anchor="middle" x="861.2" y="-1445.38" font-family="Times,serif" font-size="14.00">okhimg:tagDrawing</text>
</g>
<!-- http://w3id.org/oseg/ont/okhimg#tagDrawing&#45;&gt;http://schema.org/DefinedTerm -->
<g id="edge36" class="edge">
<title>http://w3id.org/oseg/ont/okhimg#tagDrawing&#45;&gt;http://schema.org/DefinedTerm</title>
<path fill="none" stroke="black" d="M823.58,-1464.44C774.76,-1484.37 689.56,-1519.15 636.26,-1540.9"/>
<polygon fill="black" stroke="black" points="634.63,-1537.79 626.7,-1544.81 637.28,-1544.27 634.63,-1537.79"/>
<text text-anchor="middle" x="725.42" y="-1506.47" font-family="Times,serif" font-size="14.00">a</text>
</g>
<!-- http://w3id.org/oseg/ont/okhimg#tagScreenshot -->
<g id="node35" class="node">
<title>http://w3id.org/oseg/ont/okhimg#tagScreenshot</title>
<ellipse fill="none" stroke="#e377c2" cx="980.7" cy="-1578.68" rx="125.32" ry="16.03"/>
<text text-anchor="middle" x="980.7" y="-1574.98" font-family="Times,serif" font-size="14.00">okhimg:tagScreenshot</text>
</g>
<!-- http://w3id.org/oseg/ont/okhimg#tagScreenshot&#45;&gt;http://schema.org/DefinedTerm -->
<g id="edge38" class="edge">
<title>http://w3id.org/oseg/ont/okhimg#tagScreenshot&#45;&gt;http://schema.org/DefinedTerm</title>
<path fill="none" stroke="black" d="M862.79,-1573.17C814.78,-1570.93 759.3,-1568.34 710.85,-1566.07"/>
<polygon fill="black" stroke="black" points="710.78,-1562.57 700.62,-1565.6 710.45,-1569.56 710.78,-1562.57"/>
<text text-anchor="middle" x="782.32" y="-1573.42" font-family="Times,serif" font-size="14.00">a</text>
</g>
<!-- http://w3id.org/oseg/ont/okhimg#slotModelFromFront -->
<g id="node36" class="node">
<title>http://w3id.org/oseg/ont/okhimg#slotModelFromFront</title>
<ellipse fill="none" stroke="#e377c2" cx="919.98" cy="-1852.17" rx="116.85" ry="16.03"/>
<text text-anchor="middle" x="919.98" y="-1848.47" font-family="Times,serif" font-size="14.00">okhimg:slotModelF...</text>
</g>
<!-- http://w3id.org/oseg/ont/okhimg#slotModelFromFront&#45;&gt;http://schema.org/DefinedTerm -->
<g id="edge39" class="edge">
<title>http://w3id.org/oseg/ont/okhimg#slotModelFromFront&#45;&gt;http://schema.org/DefinedTerm</title>
<path fill="none" stroke="black" d="M901.69,-1836.07C846.26,-1787.26 679.95,-1640.81 614.99,-1583.61"/>
<polygon fill="black" stroke="black" points="617.05,-1580.76 607.23,-1576.78 612.42,-1586.01 617.05,-1580.76"/>
<text text-anchor="middle" x="753.84" y="-1713.64" font-family="Times,serif" font-size="14.00">a</text>
</g>
<!-- http://w3id.org/oseg/ont/okhimg#slotModel3D -->
<g id="node37" class="node">
<title>http://w3id.org/oseg/ont/okhimg#slotModel3D</title>
<ellipse fill="none" stroke="#e377c2" cx="186.9" cy="-1546.35" rx="115.93" ry="16.03"/>
<text text-anchor="middle" x="186.9" y="-1542.65" font-family="Times,serif" font-size="14.00">okhimg:slotModel3D</text>
</g>
<!-- http://w3id.org/oseg/ont/okhimg#slotModel3D&#45;&gt;http://schema.org/DefinedTerm -->
<g id="edge41" class="edge">
<title>http://w3id.org/oseg/ont/okhimg#slotModel3D&#45;&gt;http://schema.org/DefinedTerm</title>
<path fill="none" stroke="black" d="M299.6,-1550.28C350.72,-1552.07 411.35,-1554.18 463.85,-1556.01"/>
<polygon fill="black" stroke="black" points="463.77,-1559.51 473.89,-1556.36 464.02,-1552.52 463.77,-1559.51"/>
<text text-anchor="middle" x="377.22" y="-1556.95" font-family="Times,serif" font-size="14.00">a</text>
</g>
<!-- http://w3id.org/oseg/ont/okhimg#tagModel -->
<g id="node38" class="node">
<title>http://w3id.org/oseg/ont/okhimg#tagModel</title>
<ellipse fill="none" stroke="#e377c2" cx="417.78" cy="-1892.94" rx="99.9" ry="16.03"/>
<text text-anchor="middle" x="417.78" y="-1889.24" font-family="Times,serif" font-size="14.00">okhimg:tagModel</text>
</g>
<!-- http://w3id.org/oseg/ont/okhimg#tagModel&#45;&gt;http://schema.org/DefinedTerm -->
<g id="edge42" class="edge">
<title>http://w3id.org/oseg/ont/okhimg#tagModel&#45;&gt;http://schema.org/DefinedTerm</title>
<path fill="none" stroke="black" d="M426.25,-1876.45C453.91,-1822.59 541.73,-1651.59 575.33,-1586.17"/>
<polygon fill="black" stroke="black" points="578.61,-1587.45 580.07,-1576.96 572.38,-1584.25 578.61,-1587.45"/>
<text text-anchor="middle" x="496.29" y="-1735.11" font-family="Times,serif" font-size="14.00">a</text>
</g>
<!-- http://w3id.org/oseg/ont/okhimg#tagArt&#45;&gt;http://schema.org/DefinedTerm -->
<g id="edge44" class="edge">
<title>http://w3id.org/oseg/ont/okhimg#tagArt&#45;&gt;http://schema.org/DefinedTerm</title>
<path fill="none" stroke="black" d="M592.8,-1079.13C592.17,-1151.39 589.61,-1443.66 588.82,-1533.78"/>
<polygon fill="black" stroke="black" points="585.32,-1533.94 588.73,-1543.97 592.32,-1534 585.32,-1533.94"/>
<text text-anchor="middle" x="586.31" y="-1310.25" font-family="Times,serif" font-size="14.00">a</text>
</g>
<!-- http://w3id.org/oseg/ont/okhimg#slotModelFromLeft -->
<g id="node40" class="node">
<title>http://w3id.org/oseg/ont/okhimg#slotModelFromLeft</title>
<ellipse fill="none" stroke="#e377c2" cx="984.92" cy="-1489.64" rx="116.85" ry="16.03"/>
<text text-anchor="middle" x="984.92" y="-1485.94" font-family="Times,serif" font-size="14.00">okhimg:slotModelF...</text>
</g>
<!-- http://w3id.org/oseg/ont/okhimg#slotModelFromLeft&#45;&gt;http://schema.org/DefinedTerm -->
<g id="edge45" class="edge">
<title>http://w3id.org/oseg/ont/okhimg#slotModelFromLeft&#45;&gt;http://schema.org/DefinedTerm</title>
<path fill="none" stroke="black" d="M912.69,-1502.53C844.45,-1514.71 742.19,-1532.95 670.85,-1545.69"/>
<polygon fill="black" stroke="black" points="670.22,-1542.24 660.99,-1547.44 671.45,-1549.13 670.22,-1542.24"/>
<text text-anchor="middle" x="787.27" y="-1527.91" font-family="Times,serif" font-size="14.00">a</text>
</g>
<!-- http://w3id.org/oseg/ont/okhimg#tagAssembly -->
<g id="node42" class="node">
<title>http://w3id.org/oseg/ont/okhimg#tagAssembly</title>
<ellipse fill="none" stroke="#e377c2" cx="191.24" cy="-1662.44" rx="116.85" ry="16.03"/>
<text text-anchor="middle" x="191.24" y="-1658.74" font-family="Times,serif" font-size="14.00">okhimg:tagAssembly</text>
</g>
<!-- http://w3id.org/oseg/ont/okhimg#tagAssembly&#45;&gt;http://schema.org/DefinedTerm -->
<g id="edge50" class="edge">
<title>http://w3id.org/oseg/ont/okhimg#tagAssembly&#45;&gt;http://schema.org/DefinedTerm</title>
<path fill="none" stroke="black" d="M246.91,-1648.14C319.27,-1629.55 445.47,-1597.13 522.58,-1577.32"/>
<polygon fill="black" stroke="black" points="523.84,-1580.61 532.66,-1574.73 522.1,-1573.83 523.84,-1580.61"/>
<text text-anchor="middle" x="389.24" y="-1616.53" font-family="Times,serif" font-size="14.00">a</text>
</g>
</g>
</svg>
