<?xml version="1.0" encoding="UTF-8" standalone="no"?>
<!DOCTYPE svg PUBLIC "-//W3C//DTD SVG 1.1//EN"
 "http://www.w3.org/Graphics/SVG/1.1/DTD/svg11.dtd">
<!-- Generated by graphviz version 2.43.0 (0)
 -->
<!-- Title: G Pages: 1 -->
<svg width="2841pt" height="1733pt"
 viewBox="0.00 0.00 2841.00 1733.00" xmlns="http://www.w3.org/2000/svg" xmlns:xlink="http://www.w3.org/1999/xlink">
<g id="graph0" class="graph" transform="scale(1 1) rotate(0) translate(4 1729)">
<title>G</title>
<polygon fill="white" stroke="transparent" points="-4,4 -4,-1729 2837,-1729 2837,4 -4,4"/>
<!-- http://w3id.org/oseg/ont/okh#Reference -->
<g id="node1" class="node">
<title>http://w3id.org/oseg/ont/okh#Reference</title>
<ellipse fill="none" stroke="#e377c2" cx="1221.55" cy="-1658.8" rx="84.29" ry="16.03"/>
<text text-anchor="middle" x="1221.55" y="-1655.1" font-family="Times,serif" font-size="14.00">okh:Reference</text>
</g>
<!-- http://w3id.org/oseg/ont/okh#ComponentReference -->
<g id="node2" class="node">
<title>http://w3id.org/oseg/ont/okh#ComponentReference</title>
<ellipse fill="none" stroke="#e377c2" cx="1089.88" cy="-1369.71" rx="123.07" ry="16.03"/>
<text text-anchor="middle" x="1089.88" y="-1366.01" font-family="Times,serif" font-size="14.00">okh:ComponentRefe...</text>
</g>
<!-- http://w3id.org/oseg/ont/okh#ComponentReference&#45;&gt;http://w3id.org/oseg/ont/okh#Reference -->
<g id="edge43" class="edge">
<title>http://w3id.org/oseg/ont/okh#ComponentReference&#45;&gt;http://w3id.org/oseg/ont/okh#Reference</title>
<path fill="none" stroke="black" d="M1097.34,-1386.08C1119.19,-1434.07 1183.23,-1574.66 1209.8,-1632.98"/>
<polygon fill="black" stroke="black" points="1206.69,-1634.6 1214.02,-1642.25 1213.06,-1631.7 1206.69,-1634.6"/>
</g>
<!-- http://www.w3.org/2004/02/skos/core#Concept -->
<g id="node5" class="node">
<title>http://www.w3.org/2004/02/skos/core#Concept</title>
<ellipse fill="none" stroke="#1f77b4" cx="1274.66" cy="-1017.04" rx="78.48" ry="16.03"/>
<text text-anchor="middle" x="1274.66" y="-1013.34" font-family="Times,serif" font-size="14.00">skos:Concept</text>
</g>
<!-- http://w3id.org/oseg/ont/okh#ComponentReference&#45;&gt;http://www.w3.org/2004/02/skos/core#Concept -->
<g id="edge15" class="edge">
<title>http://w3id.org/oseg/ont/okh#ComponentReference&#45;&gt;http://www.w3.org/2004/02/skos/core#Concept</title>
<path fill="none" stroke="black" d="M1098.54,-1353.17C1128.13,-1296.71 1225.29,-1111.28 1261.18,-1042.77"/>
<polygon fill="black" stroke="black" points="1264.48,-1044.03 1266.02,-1033.54 1258.27,-1040.78 1264.48,-1044.03"/>
<text text-anchor="middle" x="1175.36" y="-1201.77" font-family="Times,serif" font-size="14.00">a</text>
</g>
<!-- http://w3id.org/oseg/ont/okhmetaPartsTag -->
<g id="node14" class="node">
<title>http://w3id.org/oseg/ont/okhmetaPartsTag</title>
<ellipse fill="none" stroke="#e377c2" cx="1054.06" cy="-1708.84" rx="103.48" ry="16.03"/>
<text text-anchor="middle" x="1054.06" y="-1705.14" font-family="Times,serif" font-size="14.00">okhmeta:PartsTag</text>
</g>
<!-- http://w3id.org/oseg/ont/okh#ComponentReference&#45;&gt;http://w3id.org/oseg/ont/okhmetaPartsTag -->
<g id="edge5" class="edge">
<title>http://w3id.org/oseg/ont/okh#ComponentReference&#45;&gt;http://w3id.org/oseg/ont/okhmetaPartsTag</title>
<path fill="none" stroke="black" d="M1088.15,-1386.07C1082.42,-1440.34 1063.99,-1614.8 1056.89,-1682.06"/>
<polygon fill="black" stroke="black" points="1053.38,-1681.94 1055.81,-1692.25 1060.34,-1682.68 1053.38,-1681.94"/>
<text text-anchor="middle" x="995.52" y="-1537.86" font-family="Times,serif" font-size="14.00">okhmeta:hasMetaTag</text>
</g>
<!-- http://w3id.org/oseg/ont/okh#Mass -->
<g id="node3" class="node">
<title>http://w3id.org/oseg/ont/okh#Mass</title>
<ellipse fill="none" stroke="#e377c2" cx="1583.97" cy="-784.18" rx="59.29" ry="16.03"/>
<text text-anchor="middle" x="1583.97" y="-780.48" font-family="Times,serif" font-size="14.00">okh:Mass</text>
</g>
<!-- http://w3id.org/oseg/ont/okh#Mass&#45;&gt;http://www.w3.org/2004/02/skos/core#Concept -->
<g id="edge6" class="edge">
<title>http://w3id.org/oseg/ont/okh#Mass&#45;&gt;http://www.w3.org/2004/02/skos/core#Concept</title>
<path fill="none" stroke="black" d="M1563.2,-799.82C1509.51,-840.24 1366.03,-948.26 1303.95,-994.99"/>
<polygon fill="black" stroke="black" points="1301.64,-992.35 1295.75,-1001.16 1305.85,-997.95 1301.64,-992.35"/>
<text text-anchor="middle" x="1429.08" y="-901.21" font-family="Times,serif" font-size="14.00">a</text>
</g>
<!-- http://w3id.org/oseg/ont/okhmetaTransportationTag -->
<g id="node17" class="node">
<title>http://w3id.org/oseg/ont/okhmetaTransportationTag</title>
<ellipse fill="none" stroke="#e377c2" cx="1839.07" cy="-894.53" rx="118.17" ry="16.03"/>
<text text-anchor="middle" x="1839.07" y="-890.83" font-family="Times,serif" font-size="14.00">okhmeta:Transport...</text>
</g>
<!-- http://w3id.org/oseg/ont/okh#Mass&#45;&gt;http://w3id.org/oseg/ont/okhmetaTransportationTag -->
<g id="edge9" class="edge">
<title>http://w3id.org/oseg/ont/okh#Mass&#45;&gt;http://w3id.org/oseg/ont/okhmetaTransportationTag</title>
<path fill="none" stroke="black" d="M1615.76,-797.94C1660.56,-817.31 1742.49,-852.75 1793.68,-874.89"/>
<polygon fill="black" stroke="black" points="1792.61,-878.24 1803.18,-879 1795.39,-871.82 1792.61,-878.24"/>
<text text-anchor="middle" x="1627.72" y="-840.21" font-family="Times,serif" font-size="14.00">okhmeta:hasMetaTag</text>
</g>
<!-- http://w3id.org/oseg/ont/okhmetaPhysicalTag -->
<g id="node18" class="node">
<title>http://w3id.org/oseg/ont/okhmetaPhysicalTag</title>
<ellipse fill="none" stroke="#e377c2" cx="1469.51" cy="-531.55" rx="118.17" ry="16.03"/>
<text text-anchor="middle" x="1469.51" y="-527.85" font-family="Times,serif" font-size="14.00">okhmeta:PhysicalTag</text>
</g>
<!-- http://w3id.org/oseg/ont/okh#Mass&#45;&gt;http://w3id.org/oseg/ont/okhmetaPhysicalTag -->
<g id="edge10" class="edge">
<title>http://w3id.org/oseg/ont/okh#Mass&#45;&gt;http://w3id.org/oseg/ont/okhmetaPhysicalTag</title>
<path fill="none" stroke="black" d="M1576.64,-768C1557.26,-725.23 1504.59,-608.98 1481.09,-557.12"/>
<polygon fill="black" stroke="black" points="1484.25,-555.6 1476.93,-547.93 1477.87,-558.48 1484.25,-555.6"/>
<text text-anchor="middle" x="1451.86" y="-666.36" font-family="Times,serif" font-size="14.00">okhmeta:hasMetaTag</text>
</g>
<!-- http://w3id.org/oseg/ont/okh#FileUrl -->
<g id="node4" class="node">
<title>http://w3id.org/oseg/ont/okh#FileUrl</title>
<ellipse fill="none" stroke="#1f77b4" cx="755.22" cy="-1430.75" rx="68.68" ry="16.03"/>
<text text-anchor="middle" x="755.22" y="-1427.05" font-family="Times,serif" font-size="14.00">okh:FileUrl</text>
</g>
<!-- http://w3id.org/oseg/ont/okh#FileUrl&#45;&gt;http://w3id.org/oseg/ont/okh#ComponentReference -->
<g id="edge19" class="edge">
<title>http://w3id.org/oseg/ont/okh#FileUrl&#45;&gt;http://w3id.org/oseg/ont/okh#ComponentReference</title>
<path fill="none" stroke="black" d="M809.74,-1420.8C863.33,-1411.03 945.84,-1395.98 1007.45,-1384.74"/>
<polygon fill="black" stroke="black" points="1008.33,-1388.14 1017.54,-1382.9 1007.07,-1381.26 1008.33,-1388.14"/>
</g>
<!-- http://schema.org/URL -->
<g id="node6" class="node">
<title>http://schema.org/URL</title>
<ellipse fill="none" stroke="#e377c2" cx="631.41" cy="-1653.43" rx="75.82" ry="16.03"/>
<text text-anchor="middle" x="631.41" y="-1649.73" font-family="Times,serif" font-size="14.00">schema:URL</text>
</g>
<!-- http://w3id.org/oseg/ont/okh#FileUrl&#45;&gt;http://schema.org/URL -->
<g id="edge20" class="edge">
<title>http://w3id.org/oseg/ont/okh#FileUrl&#45;&gt;http://schema.org/URL</title>
<path fill="none" stroke="black" d="M746.12,-1447.12C724.7,-1485.65 670.99,-1582.24 645.4,-1628.27"/>
<polygon fill="black" stroke="black" points="642.33,-1626.59 640.53,-1637.03 648.45,-1629.99 642.33,-1626.59"/>
</g>
<!-- http://w3id.org/oseg/ont/okh#File -->
<g id="node9" class="node">
<title>http://w3id.org/oseg/ont/okh#File</title>
<ellipse fill="none" stroke="#e377c2" cx="577.99" cy="-1250.31" rx="52.15" ry="16.03"/>
<text text-anchor="middle" x="577.99" y="-1246.61" font-family="Times,serif" font-size="14.00">okh:File</text>
</g>
<!-- http://w3id.org/oseg/ont/okh#FileUrl&#45;&gt;http://w3id.org/oseg/ont/okh#File -->
<g id="edge17" class="edge">
<title>http://w3id.org/oseg/ont/okh#FileUrl&#45;&gt;http://w3id.org/oseg/ont/okh#File</title>
<path fill="none" stroke="black" d="M739.49,-1414.73C708.02,-1382.69 637.17,-1310.56 600.67,-1273.4"/>
<polygon fill="black" stroke="black" points="602.94,-1270.71 593.43,-1266.03 597.94,-1275.62 602.94,-1270.71"/>
<text text-anchor="middle" x="590.08" y="-1347.87" font-family="Times,serif" font-size="14.00">schema:supersededBy</text>
</g>
<!-- http://w3id.org/oseg/ont/okh#permaURL -->
<g id="node7" class="node">
<title>http://w3id.org/oseg/ont/okh#permaURL</title>
<ellipse fill="none" stroke="#e377c2" cx="356.52" cy="-1161.56" rx="87.86" ry="16.03"/>
<text text-anchor="middle" x="356.52" y="-1157.86" font-family="Times,serif" font-size="14.00">okh:permaURL</text>
</g>
<!-- http://w3id.org/oseg/ont/okh#permaURL&#45;&gt;http://w3id.org/oseg/ont/okh#File -->
<g id="edge1" class="edge">
<title>http://w3id.org/oseg/ont/okh#permaURL&#45;&gt;http://w3id.org/oseg/ont/okh#File</title>
<path fill="none" stroke="black" d="M393.59,-1176.42C433.04,-1192.22 495.3,-1217.17 536.4,-1233.64"/>
<polygon fill="black" stroke="black" points="535.26,-1236.96 545.85,-1237.43 537.87,-1230.46 535.26,-1236.96"/>
<text text-anchor="middle" x="386.99" y="-1208.83" font-family="Times,serif" font-size="14.00">dcam:domainIncludes</text>
</g>
<!-- http://w3id.org/oseg/ont/okh#installationGuide -->
<g id="node8" class="node">
<title>http://w3id.org/oseg/ont/okh#installationGuide</title>
<ellipse fill="none" stroke="#e377c2" cx="1512.78" cy="-1249.59" rx="106.55" ry="16.03"/>
<text text-anchor="middle" x="1512.78" y="-1245.89" font-family="Times,serif" font-size="14.00">okh:installationG...</text>
</g>
<!-- http://w3id.org/oseg/ont/okh#installationGuide&#45;&gt;http://www.w3.org/2004/02/skos/core#Concept -->
<g id="edge40" class="edge">
<title>http://w3id.org/oseg/ont/okh#installationGuide&#45;&gt;http://www.w3.org/2004/02/skos/core#Concept</title>
<path fill="none" stroke="black" d="M1496.03,-1233.23C1454.43,-1192.61 1346.28,-1086.99 1298.24,-1040.07"/>
<polygon fill="black" stroke="black" points="1300.67,-1037.55 1291.07,-1033.07 1295.78,-1042.56 1300.67,-1037.55"/>
<text text-anchor="middle" x="1392.64" y="-1140.45" font-family="Times,serif" font-size="14.00">a</text>
</g>
<!-- http://w3id.org/oseg/ont/okh#Software -->
<g id="node29" class="node">
<title>http://w3id.org/oseg/ont/okh#Software</title>
<ellipse fill="none" stroke="#e377c2" cx="1713.76" cy="-1457.96" rx="78.48" ry="16.03"/>
<text text-anchor="middle" x="1713.76" y="-1454.26" font-family="Times,serif" font-size="14.00">okh:Software</text>
</g>
<!-- http://w3id.org/oseg/ont/okh#installationGuide&#45;&gt;http://w3id.org/oseg/ont/okh#Software -->
<g id="edge25" class="edge">
<title>http://w3id.org/oseg/ont/okh#installationGuide&#45;&gt;http://w3id.org/oseg/ont/okh#Software</title>
<path fill="none" stroke="black" d="M1528.55,-1265.94C1564,-1302.7 1650.12,-1391.98 1691.21,-1434.58"/>
<polygon fill="black" stroke="black" points="1688.88,-1437.21 1698.34,-1441.97 1693.92,-1432.35 1688.88,-1437.21"/>
<text text-anchor="middle" x="1531.88" y="-1354.06" font-family="Times,serif" font-size="14.00">dcam:domainIncludes</text>
</g>
<!-- http://w3id.org/oseg/ont/okh#okhvStored -->
<g id="node10" class="node">
<title>http://w3id.org/oseg/ont/okh#okhvStored</title>
<ellipse fill="none" stroke="#e377c2" cx="1897.79" cy="-1216.99" rx="90.52" ry="16.03"/>
<text text-anchor="middle" x="1897.79" y="-1213.29" font-family="Times,serif" font-size="14.00">okh:okhvStored</text>
</g>
<!-- http://w3id.org/oseg/ont/okh#openSCAD -->
<g id="node11" class="node">
<title>http://w3id.org/oseg/ont/okh#openSCAD</title>
<ellipse fill="none" stroke="#e377c2" cx="2473.36" cy="-264.03" rx="86.03" ry="16.03"/>
<text text-anchor="middle" x="2473.36" y="-260.33" font-family="Times,serif" font-size="14.00">okh:openSCAD</text>
</g>
<!-- http://w3id.org/oseg/ont/okh#height -->
<g id="node13" class="node">
<title>http://w3id.org/oseg/ont/okh#height</title>
<ellipse fill="none" stroke="#e377c2" cx="2456.01" cy="-16.33" rx="65.11" ry="16.03"/>
<text text-anchor="middle" x="2456.01" y="-12.63" font-family="Times,serif" font-size="14.00">okh:height</text>
</g>
<!-- http://w3id.org/oseg/ont/okh#openSCAD&#45;&gt;http://w3id.org/oseg/ont/okh#height -->
<g id="edge4" class="edge">
<title>http://w3id.org/oseg/ont/okh#openSCAD&#45;&gt;http://w3id.org/oseg/ont/okh#height</title>
<path fill="none" stroke="black" d="M2472.2,-247.39C2469.25,-205.35 2461.49,-94.56 2457.89,-43.19"/>
<polygon fill="black" stroke="black" points="2461.36,-42.62 2457.17,-32.89 2454.37,-43.11 2461.36,-42.62"/>
<text text-anchor="middle" x="2385.04" y="-149.09" font-family="Times,serif" font-size="14.00">schema:supersededBy</text>
</g>
<!-- http://www.w3.org/2001/XMLSchema#string -->
<g id="node19" class="node">
<title>http://www.w3.org/2001/XMLSchema#string</title>
<ellipse fill="none" stroke="#e377c2" cx="2600.59" cy="-46.7" rx="62.87" ry="16.03"/>
<text text-anchor="middle" x="2600.59" y="-43" font-family="Times,serif" font-size="14.00">xsd:string</text>
</g>
<!-- http://w3id.org/oseg/ont/okh#openSCAD&#45;&gt;http://www.w3.org/2001/XMLSchema#string -->
<g id="edge11" class="edge">
<title>http://w3id.org/oseg/ont/okh#openSCAD&#45;&gt;http://www.w3.org/2001/XMLSchema#string</title>
<path fill="none" stroke="black" d="M2482.92,-247.7C2504.99,-210 2559.59,-116.74 2585.92,-71.76"/>
<polygon fill="black" stroke="black" points="2589.05,-73.33 2591.09,-62.93 2583.01,-69.79 2589.05,-73.33"/>
<text text-anchor="middle" x="2606.92" y="-163.53" font-family="Times,serif" font-size="14.00">dcam:rangeIncludes</text>
</g>
<!-- http://w3id.org/oseg/ont/okh#Dimensions -->
<g id="node25" class="node">
<title>http://w3id.org/oseg/ont/okh#Dimensions</title>
<ellipse fill="none" stroke="#e377c2" cx="2149.35" cy="-463.61" rx="91.85" ry="16.03"/>
<text text-anchor="middle" x="2149.35" y="-459.91" font-family="Times,serif" font-size="14.00">okh:Dimensions</text>
</g>
<!-- http://w3id.org/oseg/ont/okh#openSCAD&#45;&gt;http://w3id.org/oseg/ont/okh#Dimensions -->
<g id="edge18" class="edge">
<title>http://w3id.org/oseg/ont/okh#openSCAD&#45;&gt;http://w3id.org/oseg/ont/okh#Dimensions</title>
<path fill="none" stroke="black" d="M2447.94,-279.69C2390.23,-315.24 2249.3,-402.05 2183.82,-442.38"/>
<polygon fill="black" stroke="black" points="2181.78,-439.53 2175.1,-447.75 2185.45,-445.49 2181.78,-439.53"/>
<text text-anchor="middle" x="2237.88" y="-364.84" font-family="Times,serif" font-size="14.00">dcam:domainIncludes</text>
</g>
<!-- http://w3id.org/oseg/ont/okh#depth -->
<g id="node27" class="node">
<title>http://w3id.org/oseg/ont/okh#depth</title>
<ellipse fill="none" stroke="#e377c2" cx="2685.97" cy="-383.03" rx="62.45" ry="16.03"/>
<text text-anchor="middle" x="2685.97" y="-379.33" font-family="Times,serif" font-size="14.00">okh:depth</text>
</g>
<!-- http://w3id.org/oseg/ont/okh#openSCAD&#45;&gt;http://w3id.org/oseg/ont/okh#depth -->
<g id="edge22" class="edge">
<title>http://w3id.org/oseg/ont/okh#openSCAD&#45;&gt;http://w3id.org/oseg/ont/okh#depth</title>
<path fill="none" stroke="black" d="M2501.16,-279.59C2539.54,-301.07 2608.77,-339.82 2650.73,-363.31"/>
<polygon fill="black" stroke="black" points="2649.07,-366.39 2659.51,-368.22 2652.49,-360.28 2649.07,-366.39"/>
<text text-anchor="middle" x="2495.95" y="-325.25" font-family="Times,serif" font-size="14.00">schema:supersededBy</text>
</g>
<!-- http://w3id.org/oseg/ont/okh#width -->
<g id="node31" class="node">
<title>http://w3id.org/oseg/ont/okh#width</title>
<ellipse fill="none" stroke="#e377c2" cx="2685.63" cy="-133.8" rx="61.54" ry="16.03"/>
<text text-anchor="middle" x="2685.63" y="-130.1" font-family="Times,serif" font-size="14.00">okh:width</text>
</g>
<!-- http://w3id.org/oseg/ont/okh#openSCAD&#45;&gt;http://w3id.org/oseg/ont/okh#width -->
<g id="edge27" class="edge">
<title>http://w3id.org/oseg/ont/okh#openSCAD&#45;&gt;http://w3id.org/oseg/ont/okh#width</title>
<path fill="none" stroke="black" d="M2498.97,-248.32C2537.47,-224.7 2610.27,-180.04 2652.68,-154.01"/>
<polygon fill="black" stroke="black" points="2654.56,-156.97 2661.25,-148.76 2650.89,-151.01 2654.56,-156.97"/>
<text text-anchor="middle" x="2495.82" y="-204.97" font-family="Times,serif" font-size="14.00">schema:supersededBy</text>
</g>
<!-- http://w3id.org/oseg/ont/okh#alternativeLicense -->
<g id="node12" class="node">
<title>http://w3id.org/oseg/ont/okh#alternativeLicense</title>
<ellipse fill="none" stroke="#e377c2" cx="886.35" cy="-1067.05" rx="107.46" ry="16.03"/>
<text text-anchor="middle" x="886.35" y="-1063.35" font-family="Times,serif" font-size="14.00">okh:alternativeLi...</text>
</g>
<!-- http://w3id.org/oseg/ont/okh#alternativeLicense&#45;&gt;http://www.w3.org/2004/02/skos/core#Concept -->
<g id="edge34" class="edge">
<title>http://w3id.org/oseg/ont/okh#alternativeLicense&#45;&gt;http://www.w3.org/2004/02/skos/core#Concept</title>
<path fill="none" stroke="black" d="M968.23,-1056.51C1035.95,-1047.79 1131.45,-1035.49 1197.77,-1026.95"/>
<polygon fill="black" stroke="black" points="1198.27,-1030.41 1207.74,-1025.66 1197.38,-1023.47 1198.27,-1030.41"/>
<text text-anchor="middle" x="1078.5" y="-1045.53" font-family="Times,serif" font-size="14.00">a</text>
</g>
<!-- http://w3id.org/oseg/ont/okh#alternativeLicense&#45;&gt;http://w3id.org/oseg/ont/okh#File -->
<g id="edge12" class="edge">
<title>http://w3id.org/oseg/ont/okh#alternativeLicense&#45;&gt;http://w3id.org/oseg/ont/okh#File</title>
<path fill="none" stroke="black" d="M859.79,-1082.84C803.66,-1116.2 673.05,-1193.82 611.38,-1230.47"/>
<polygon fill="black" stroke="black" points="609.25,-1227.66 602.44,-1235.78 612.83,-1233.68 609.25,-1227.66"/>
<text text-anchor="middle" x="663.09" y="-1160.46" font-family="Times,serif" font-size="14.00">dcam:rangeIncludes</text>
</g>
<!-- http://w3id.org/oseg/ont/okh#Module -->
<g id="node26" class="node">
<title>http://w3id.org/oseg/ont/okh#Module</title>
<ellipse fill="none" stroke="#e377c2" cx="977.56" cy="-889.95" rx="70.92" ry="16.03"/>
<text text-anchor="middle" x="977.56" y="-886.25" font-family="Times,serif" font-size="14.00">okh:Module</text>
</g>
<!-- http://w3id.org/oseg/ont/okh#alternativeLicense&#45;&gt;http://w3id.org/oseg/ont/okh#Module -->
<g id="edge28" class="edge">
<title>http://w3id.org/oseg/ont/okh#alternativeLicense&#45;&gt;http://w3id.org/oseg/ont/okh#Module</title>
<path fill="none" stroke="black" d="M894.77,-1050.71C910.72,-1019.74 945.45,-952.31 964.46,-915.38"/>
<polygon fill="black" stroke="black" points="967.69,-916.75 969.16,-906.26 961.47,-913.54 967.69,-916.75"/>
<text text-anchor="middle" x="851.62" y="-986.84" font-family="Times,serif" font-size="14.00">dcam:domainIncludes</text>
</g>
<!-- http://w3id.org/oseg/ont/okhmetaLegalTag -->
<g id="node30" class="node">
<title>http://w3id.org/oseg/ont/okhmetaLegalTag</title>
<ellipse fill="none" stroke="#e377c2" cx="686.59" cy="-1017.42" rx="103.89" ry="16.03"/>
<text text-anchor="middle" x="686.59" y="-1013.72" font-family="Times,serif" font-size="14.00">okhmeta:LegalTag</text>
</g>
<!-- http://w3id.org/oseg/ont/okh#alternativeLicense&#45;&gt;http://w3id.org/oseg/ont/okhmetaLegalTag -->
<g id="edge26" class="edge">
<title>http://w3id.org/oseg/ont/okh#alternativeLicense&#45;&gt;http://w3id.org/oseg/ont/okhmetaLegalTag</title>
<path fill="none" stroke="black" d="M830.44,-1053.16C806.09,-1047.11 777.38,-1039.98 752.04,-1033.68"/>
<polygon fill="black" stroke="black" points="752.69,-1030.24 742.14,-1031.23 751,-1037.03 752.69,-1030.24"/>
<text text-anchor="middle" x="868.24" y="-1032.22" font-family="Times,serif" font-size="14.00">okhmeta:hasMetaTag</text>
</g>
<!-- http://w3id.org/oseg/ont/okh#license -->
<g id="node33" class="node">
<title>http://w3id.org/oseg/ont/okh#license</title>
<ellipse fill="none" stroke="#e377c2" cx="801.15" cy="-790.3" rx="67.76" ry="16.03"/>
<text text-anchor="middle" x="801.15" y="-786.6" font-family="Times,serif" font-size="14.00">okh:license</text>
</g>
<!-- http://w3id.org/oseg/ont/okh#alternativeLicense&#45;&gt;http://w3id.org/oseg/ont/okh#license -->
<g id="edge37" class="edge">
<title>http://w3id.org/oseg/ont/okh#alternativeLicense&#45;&gt;http://w3id.org/oseg/ont/okh#license</title>
<path fill="none" stroke="black" d="M881.28,-1050.57C867.01,-1004.23 826.47,-872.54 809.15,-816.29"/>
<polygon fill="black" stroke="black" points="812.49,-815.23 806.2,-806.7 805.8,-817.29 812.49,-815.23"/>
<text text-anchor="middle" x="765.21" y="-937.23" font-family="Times,serif" font-size="14.00">schema:supersededBy</text>
</g>
<!-- http://schema.org/license -->
<g id="node35" class="node">
<title>http://schema.org/license</title>
<ellipse fill="none" stroke="#e377c2" cx="691.65" cy="-842.86" rx="88.28" ry="16.03"/>
<text text-anchor="middle" x="691.65" y="-839.16" font-family="Times,serif" font-size="14.00">schema:license</text>
</g>
<!-- http://w3id.org/oseg/ont/okh#alternativeLicense&#45;&gt;http://schema.org/license -->
<g id="edge38" class="edge">
<title>http://w3id.org/oseg/ont/okh#alternativeLicense&#45;&gt;http://schema.org/license</title>
<path fill="none" stroke="black" d="M872.04,-1050.57C837.99,-1011.36 752.07,-912.42 712.36,-866.7"/>
<polygon fill="black" stroke="black" points="714.93,-864.32 705.73,-859.07 709.64,-868.91 714.93,-864.32"/>
<text text-anchor="middle" x="733.2" y="-962.44" font-family="Times,serif" font-size="14.00">skos:closeMatch</text>
</g>
<!-- http://w3id.org/oseg/ont/okh#openScad -->
<g id="node15" class="node">
<title>http://w3id.org/oseg/ont/okh#openScad</title>
<ellipse fill="none" stroke="#e377c2" cx="2750.81" cy="-246.72" rx="82.05" ry="16.03"/>
<text text-anchor="middle" x="2750.81" y="-243.02" font-family="Times,serif" font-size="14.00">okh:openScad</text>
</g>
<!-- http://w3id.org/oseg/ont/okh#openScad&#45;&gt;http://w3id.org/oseg/ont/okh#openSCAD -->
<g id="edge3" class="edge">
<title>http://w3id.org/oseg/ont/okh#openScad&#45;&gt;http://w3id.org/oseg/ont/okh#openSCAD</title>
<path fill="none" stroke="black" d="M2668.68,-245.62C2631.52,-247.2 2587.83,-249.95 2551.2,-253.02"/>
<polygon fill="black" stroke="black" points="2550.73,-249.55 2541.07,-253.89 2551.33,-256.52 2550.73,-249.55"/>
<text text-anchor="middle" x="2609.94" y="-238.12" font-family="Times,serif" font-size="14.00">owl:sameAs</text>
</g>
<!-- http://w3id.org/oseg/ont/okh#openScad&#45;&gt;http://w3id.org/oseg/ont/okh#openSCAD -->
<g id="edge24" class="edge">
<title>http://w3id.org/oseg/ont/okh#openScad&#45;&gt;http://w3id.org/oseg/ont/okh#openSCAD</title>
<path fill="none" stroke="black" d="M2685.42,-256.65C2650.91,-259.76 2607.91,-262.65 2569.66,-264.49"/>
<polygon fill="black" stroke="black" points="2569.36,-261 2559.53,-264.96 2569.68,-267.99 2569.36,-261"/>
<text text-anchor="middle" x="2707.54" y="-264.37" font-family="Times,serif" font-size="14.00">schema:supersededBy</text>
</g>
<!-- http://w3id.org/oseg/ont/okh#okhv -->
<g id="node16" class="node">
<title>http://w3id.org/oseg/ont/okh#okhv</title>
<ellipse fill="none" stroke="#e377c2" cx="2216.96" cy="-1178.19" rx="56.64" ry="16.03"/>
<text text-anchor="middle" x="2216.96" y="-1174.49" font-family="Times,serif" font-size="14.00">okh:okhv</text>
</g>
<!-- http://w3id.org/oseg/ont/okh#unit -->
<g id="node20" class="node">
<title>http://w3id.org/oseg/ont/okh#unit</title>
<ellipse fill="none" stroke="#e377c2" cx="1864.94" cy="-630.98" rx="53.07" ry="16.03"/>
<text text-anchor="middle" x="1864.94" y="-627.28" font-family="Times,serif" font-size="14.00">okh:unit</text>
</g>
<!-- http://w3id.org/oseg/ont/okh#unit&#45;&gt;http://w3id.org/oseg/ont/okh#Mass -->
<g id="edge8" class="edge">
<title>http://w3id.org/oseg/ont/okh#unit&#45;&gt;http://w3id.org/oseg/ont/okh#Mass</title>
<path fill="none" stroke="black" d="M1838.76,-645.26C1788.3,-672.77 1677.51,-733.18 1620.09,-764.49"/>
<polygon fill="black" stroke="black" points="1618.11,-761.58 1611.01,-769.44 1621.47,-767.73 1618.11,-761.58"/>
<text text-anchor="middle" x="1651.42" y="-708.67" font-family="Times,serif" font-size="14.00">dcam:domainIncludes</text>
</g>
<!-- http://w3id.org/oseg/ont/okh#unit&#45;&gt;http://w3id.org/oseg/ont/okh#Dimensions -->
<g id="edge39" class="edge">
<title>http://w3id.org/oseg/ont/okh#unit&#45;&gt;http://w3id.org/oseg/ont/okh#Dimensions</title>
<path fill="none" stroke="black" d="M1889.68,-616.42C1940.22,-586.68 2055.48,-518.86 2113.94,-484.45"/>
<polygon fill="black" stroke="black" points="2115.97,-487.32 2122.81,-479.23 2112.42,-481.28 2115.97,-487.32"/>
<text text-anchor="middle" x="1923.81" y="-554.24" font-family="Times,serif" font-size="14.00">dcam:domainIncludes</text>
</g>
<!-- http://w3id.org/oseg/ont/okh#okhvPresent -->
<g id="node21" class="node">
<title>http://w3id.org/oseg/ont/okh#okhvPresent</title>
<ellipse fill="none" stroke="#e377c2" cx="2046.97" cy="-1127.97" rx="96.33" ry="16.03"/>
<text text-anchor="middle" x="2046.97" y="-1124.27" font-family="Times,serif" font-size="14.00">okh:okhvPresent</text>
</g>
<!-- http://w3id.org/oseg/ont/okh#okhvPresent&#45;&gt;http://w3id.org/oseg/ont/okh#okhv -->
<g id="edge7" class="edge">
<title>http://w3id.org/oseg/ont/okh#okhvPresent&#45;&gt;http://w3id.org/oseg/ont/okh#okhv</title>
<path fill="none" stroke="black" d="M2094.77,-1142.09C2117.44,-1148.79 2144.5,-1156.79 2167.39,-1163.55"/>
<polygon fill="black" stroke="black" points="2166.67,-1166.99 2177.25,-1166.46 2168.65,-1160.27 2166.67,-1166.99"/>
<text text-anchor="middle" x="2184.08" y="-1141.62" font-family="Times,serif" font-size="14.00">subPropertyOf</text>
</g>
<!-- http://w3id.org/oseg/ont/okh#okhvOrig -->
<g id="node38" class="node">
<title>http://w3id.org/oseg/ont/okh#okhvOrig</title>
<ellipse fill="none" stroke="#e377c2" cx="2030.71" cy="-1173.18" rx="79.39" ry="16.03"/>
<text text-anchor="middle" x="2030.71" y="-1169.48" font-family="Times,serif" font-size="14.00">okh:okhvOrig</text>
</g>
<!-- http://w3id.org/oseg/ont/okh#okhvPresent&#45;&gt;http://w3id.org/oseg/ont/okh#okhvOrig -->
<g id="edge41" class="edge">
<title>http://w3id.org/oseg/ont/okh#okhvPresent&#45;&gt;http://w3id.org/oseg/ont/okh#okhvOrig</title>
<path fill="none" stroke="black" d="M2041.1,-1144.29C2040.78,-1145.18 2040.45,-1146.08 2040.13,-1146.98"/>
<polygon fill="black" stroke="black" points="2036.71,-1146.14 2036.62,-1156.73 2043.3,-1148.5 2036.71,-1146.14"/>
<text text-anchor="middle" x="2013.11" y="-1149.44" font-family="Times,serif" font-size="14.00">seeAlso</text>
</g>
<!-- http://w3id.org/oseg/ont/okh#fileUrl -->
<g id="node22" class="node">
<title>http://w3id.org/oseg/ont/okh#fileUrl</title>
<ellipse fill="none" stroke="#e377c2" cx="315.95" cy="-1325.75" rx="65.11" ry="16.03"/>
<text text-anchor="middle" x="315.95" y="-1322.05" font-family="Times,serif" font-size="14.00">okh:fileUrl</text>
</g>
<!-- http://w3id.org/oseg/ont/okh#fileUrl&#45;&gt;http://w3id.org/oseg/ont/okh#File -->
<g id="edge42" class="edge">
<title>http://w3id.org/oseg/ont/okh#fileUrl&#45;&gt;http://w3id.org/oseg/ont/okh#File</title>
<path fill="none" stroke="black" d="M358.63,-1313.46C405.58,-1299.94 480.85,-1278.28 529.86,-1264.17"/>
<polygon fill="black" stroke="black" points="530.95,-1267.5 539.6,-1261.37 529.02,-1260.77 530.95,-1267.5"/>
<text text-anchor="middle" x="366.25" y="-1292.61" font-family="Times,serif" font-size="14.00">dcam:domainIncludes</text>
</g>
<!-- http://w3id.org/oseg/ont/okh#url -->
<g id="node36" class="node">
<title>http://w3id.org/oseg/ont/okh#url</title>
<ellipse fill="none" stroke="#e377c2" cx="127.62" cy="-1444.7" rx="47.25" ry="16.03"/>
<text text-anchor="middle" x="127.62" y="-1441" font-family="Times,serif" font-size="14.00">okh:url</text>
</g>
<!-- http://w3id.org/oseg/ont/okh#fileUrl&#45;&gt;http://w3id.org/oseg/ont/okh#url -->
<g id="edge33" class="edge">
<title>http://w3id.org/oseg/ont/okh#fileUrl&#45;&gt;http://w3id.org/oseg/ont/okh#url</title>
<path fill="none" stroke="black" d="M291.71,-1341.05C257.78,-1362.49 196.07,-1401.46 158.76,-1425.03"/>
<polygon fill="black" stroke="black" points="156.87,-1422.08 150.29,-1430.38 160.61,-1428 156.87,-1422.08"/>
<text text-anchor="middle" x="145.24" y="-1386.84" font-family="Times,serif" font-size="14.00">schema:supersededBy</text>
</g>
<!-- http://schema.org/url -->
<g id="node39" class="node">
<title>http://schema.org/url</title>
<ellipse fill="none" stroke="#e377c2" cx="67.23" cy="-1304.17" rx="67.35" ry="16.03"/>
<text text-anchor="middle" x="67.23" y="-1300.47" font-family="Times,serif" font-size="14.00">schema:url</text>
</g>
<!-- http://w3id.org/oseg/ont/okh#fileUrl&#45;&gt;http://schema.org/url -->
<g id="edge44" class="edge">
<title>http://w3id.org/oseg/ont/okh#fileUrl&#45;&gt;http://schema.org/url</title>
<path fill="none" stroke="black" d="M254.47,-1320.41C220.02,-1317.42 176.83,-1313.68 140.62,-1310.54"/>
<polygon fill="black" stroke="black" points="140.87,-1307.05 130.6,-1309.67 140.26,-1314.02 140.87,-1307.05"/>
<text text-anchor="middle" x="197.54" y="-1304.27" font-family="Times,serif" font-size="14.00">subPropertyOf</text>
</g>
<!-- http://spdx.org/rdf/terms#ListedLicense -->
<g id="node23" class="node">
<title>http://spdx.org/rdf/terms#ListedLicense</title>
<ellipse fill="none" stroke="#e377c2" cx="1164.76" cy="-968.4" rx="108.38" ry="16.03"/>
<text text-anchor="middle" x="1164.76" y="-964.7" font-family="Times,serif" font-size="14.00">spdx:ListedLicense</text>
</g>
<!-- http://w3id.org/oseg/ont/okh#hasMass -->
<g id="node24" class="node">
<title>http://w3id.org/oseg/ont/okh#hasMass</title>
<ellipse fill="none" stroke="#e377c2" cx="1698.18" cy="-318.58" rx="77.15" ry="16.03"/>
<text text-anchor="middle" x="1698.18" y="-314.88" font-family="Times,serif" font-size="14.00">okh:hasMass</text>
</g>
<!-- http://w3id.org/oseg/ont/okh#tsdc -->
<g id="node28" class="node">
<title>http://w3id.org/oseg/ont/okh#tsdc</title>
<ellipse fill="none" stroke="#e377c2" cx="888.61" cy="-596.33" rx="54.39" ry="16.03"/>
<text text-anchor="middle" x="888.61" y="-592.63" font-family="Times,serif" font-size="14.00">okh:tsdc</text>
</g>
<!-- http://w3id.org/oseg/ont/okh#spdxLicense -->
<g id="node32" class="node">
<title>http://w3id.org/oseg/ont/okh#spdxLicense</title>
<ellipse fill="none" stroke="#e377c2" cx="951.82" cy="-935.65" rx="94.51" ry="16.03"/>
<text text-anchor="middle" x="951.82" y="-931.95" font-family="Times,serif" font-size="14.00">okh:spdxLicense</text>
</g>
<!-- http://w3id.org/oseg/ont/okh#spdxLicense&#45;&gt;http://www.w3.org/2004/02/skos/core#Concept -->
<g id="edge30" class="edge">
<title>http://w3id.org/oseg/ont/okh#spdxLicense&#45;&gt;http://www.w3.org/2004/02/skos/core#Concept</title>
<path fill="none" stroke="black" d="M1005.49,-949.18C1063.24,-963.74 1154.84,-986.84 1214.86,-1001.97"/>
<polygon fill="black" stroke="black" points="1214.03,-1005.37 1224.58,-1004.42 1215.74,-998.58 1214.03,-1005.37"/>
<text text-anchor="middle" x="1105.68" y="-979.38" font-family="Times,serif" font-size="14.00">a</text>
</g>
<!-- http://w3id.org/oseg/ont/okh#spdxLicense&#45;&gt;http://spdx.org/rdf/terms#ListedLicense -->
<g id="edge14" class="edge">
<title>http://w3id.org/oseg/ont/okh#spdxLicense&#45;&gt;http://spdx.org/rdf/terms#ListedLicense</title>
<path fill="none" stroke="black" d="M1022.43,-946.51C1040.49,-949.29 1060.11,-952.3 1078.85,-955.19"/>
<polygon fill="black" stroke="black" points="1078.44,-958.66 1088.85,-956.72 1079.5,-951.74 1078.44,-958.66"/>
<text text-anchor="middle" x="1123.14" y="-939.65" font-family="Times,serif" font-size="14.00">dcam:rangeIncludes</text>
</g>
<!-- http://w3id.org/oseg/ont/okh#spdxLicense&#45;&gt;http://w3id.org/oseg/ont/okh#Module -->
<g id="edge21" class="edge">
<title>http://w3id.org/oseg/ont/okh#spdxLicense&#45;&gt;http://w3id.org/oseg/ont/okh#Module</title>
<path fill="none" stroke="black" d="M960.96,-919.41C961.8,-917.93 962.66,-916.41 963.52,-914.87"/>
<polygon fill="black" stroke="black" points="966.58,-916.57 968.44,-906.14 960.48,-913.14 966.58,-916.57"/>
<text text-anchor="middle" x="884.24" y="-905.94" font-family="Times,serif" font-size="14.00">dcam:domainIncludes</text>
</g>
<!-- http://w3id.org/oseg/ont/okh#spdxLicense&#45;&gt;http://w3id.org/oseg/ont/okhmetaLegalTag -->
<g id="edge36" class="edge">
<title>http://w3id.org/oseg/ont/okh#spdxLicense&#45;&gt;http://w3id.org/oseg/ont/okhmetaLegalTag</title>
<path fill="none" stroke="black" d="M905.62,-949.9C860.63,-963.77 792.14,-984.88 743.75,-999.8"/>
<polygon fill="black" stroke="black" points="742.57,-996.5 734.05,-1002.79 744.64,-1003.19 742.57,-996.5"/>
<text text-anchor="middle" x="901.68" y="-963.65" font-family="Times,serif" font-size="14.00">okhmeta:hasMetaTag</text>
</g>
<!-- http://w3id.org/oseg/ont/okh#spdxLicense&#45;&gt;http://w3id.org/oseg/ont/okh#license -->
<g id="edge31" class="edge">
<title>http://w3id.org/oseg/ont/okh#spdxLicense&#45;&gt;http://w3id.org/oseg/ont/okh#license</title>
<path fill="none" stroke="black" d="M935.12,-919.54C908.42,-893.79 856.01,-843.22 825.25,-813.55"/>
<polygon fill="black" stroke="black" points="827.55,-810.91 817.93,-806.49 822.69,-815.95 827.55,-810.91"/>
<text text-anchor="middle" x="800.18" y="-870.35" font-family="Times,serif" font-size="14.00">schema:supersededBy</text>
</g>
<!-- http://w3id.org/oseg/ont/okh#spdxLicense&#45;&gt;http://schema.org/license -->
<g id="edge32" class="edge">
<title>http://w3id.org/oseg/ont/okh#spdxLicense&#45;&gt;http://schema.org/license</title>
<path fill="none" stroke="black" d="M910.59,-920.95C864.79,-904.61 790.83,-878.23 741.73,-860.72"/>
<polygon fill="black" stroke="black" points="742.85,-857.41 732.26,-857.34 740.5,-864 742.85,-857.41"/>
<text text-anchor="middle" x="767.16" y="-894.64" font-family="Times,serif" font-size="14.00">skos:closeMatch</text>
</g>
<!-- http://w3id.org/oseg/ont/okh#value -->
<g id="node34" class="node">
<title>http://w3id.org/oseg/ont/okh#value</title>
<ellipse fill="none" stroke="#e377c2" cx="1666.17" cy="-555.11" rx="60.21" ry="16.03"/>
<text text-anchor="middle" x="1666.17" y="-551.41" font-family="Times,serif" font-size="14.00">okh:value</text>
</g>
<!-- http://w3id.org/oseg/ont/okh#value&#45;&gt;http://w3id.org/oseg/ont/okh#Mass -->
<g id="edge13" class="edge">
<title>http://w3id.org/oseg/ont/okh#value&#45;&gt;http://w3id.org/oseg/ont/okh#Mass</title>
<path fill="none" stroke="black" d="M1660.26,-571.58C1646.13,-610.96 1610.31,-710.78 1593.26,-758.29"/>
<polygon fill="black" stroke="black" points="1589.91,-757.26 1589.83,-767.86 1596.5,-759.63 1589.91,-757.26"/>
<text text-anchor="middle" x="1704.76" y="-668.74" font-family="Times,serif" font-size="14.00">dcam:domainIncludes</text>
</g>
<!-- http://w3id.org/oseg/ont/okh#value&#45;&gt;http://w3id.org/oseg/ont/okh#hasMass -->
<g id="edge16" class="edge">
<title>http://w3id.org/oseg/ont/okh#value&#45;&gt;http://w3id.org/oseg/ont/okh#hasMass</title>
<path fill="none" stroke="black" d="M1668.37,-538.85C1673.8,-498.68 1687.91,-394.43 1694.58,-345.14"/>
<polygon fill="black" stroke="black" points="1698.09,-345.33 1695.96,-334.95 1691.15,-344.39 1698.09,-345.33"/>
<text text-anchor="middle" x="1601.48" y="-445.8" font-family="Times,serif" font-size="14.00">schema:supersededBy</text>
</g>
<!-- http://w3id.org/oseg/ont/okh#relatedTsdc -->
<g id="node37" class="node">
<title>http://w3id.org/oseg/ont/okh#relatedTsdc</title>
<ellipse fill="none" stroke="#e377c2" cx="1047.66" cy="-572.56" rx="91.85" ry="16.03"/>
<text text-anchor="middle" x="1047.66" y="-568.86" font-family="Times,serif" font-size="14.00">okh:relatedTsdc</text>
</g>
<!-- http://w3id.org/oseg/ont/okh#relatedTsdc&#45;&gt;http://w3id.org/oseg/ont/okh#tsdc -->
<g id="edge23" class="edge">
<title>http://w3id.org/oseg/ont/okh#relatedTsdc&#45;&gt;http://w3id.org/oseg/ont/okh#tsdc</title>
<path fill="none" stroke="black" d="M962.02,-578.55C953.36,-579.88 944.81,-581.31 936.76,-582.77"/>
<polygon fill="black" stroke="black" points="936.05,-579.34 926.87,-584.64 937.35,-586.22 936.05,-579.34"/>
<text text-anchor="middle" x="906.89" y="-569.46" font-family="Times,serif" font-size="14.00">owl:sameAs</text>
</g>
<!-- http://w3id.org/oseg/ont/okh#relatedTsdc&#45;&gt;http://w3id.org/oseg/ont/okh#tsdc -->
<g id="edge29" class="edge">
<title>http://w3id.org/oseg/ont/okh#relatedTsdc&#45;&gt;http://w3id.org/oseg/ont/okh#tsdc</title>
<path fill="none" stroke="black" d="M998.27,-586.34C983.99,-588.91 968.19,-591.37 953.13,-593.39"/>
<polygon fill="black" stroke="black" points="952.32,-589.96 942.85,-594.71 953.21,-596.91 952.32,-589.96"/>
<text text-anchor="middle" x="1055.7" y="-593.66" font-family="Times,serif" font-size="14.00">schema:supersededBy</text>
</g>
<!-- http://w3id.org/oseg/ont/okh#okhvOriginal -->
<g id="node40" class="node">
<title>http://w3id.org/oseg/ont/okh#okhvOriginal</title>
<ellipse fill="none" stroke="#e377c2" cx="2134.75" cy="-1219.24" rx="97.66" ry="16.03"/>
<text text-anchor="middle" x="2134.75" y="-1215.54" font-family="Times,serif" font-size="14.00">okh:okhvOriginal</text>
</g>
<!-- http://w3id.org/oseg/ont/okh#okhvOriginal&#45;&gt;http://w3id.org/oseg/ont/okh#okhvStored -->
<g id="edge2" class="edge">
<title>http://w3id.org/oseg/ont/okh#okhvOriginal&#45;&gt;http://w3id.org/oseg/ont/okh#okhvStored</title>
<path fill="none" stroke="black" d="M2037,-1218.31C2024.33,-1218.19 2011.32,-1218.07 1998.6,-1217.95"/>
<polygon fill="black" stroke="black" points="1998.5,-1214.45 1988.47,-1217.85 1998.43,-1221.44 1998.5,-1214.45"/>
<text text-anchor="middle" x="2017.8" y="-1206.93" font-family="Times,serif" font-size="14.00">seeAlso</text>
</g>
<!-- http://w3id.org/oseg/ont/okh#okhvOriginal&#45;&gt;http://w3id.org/oseg/ont/okh#okhv -->
<g id="edge35" class="edge">
<title>http://w3id.org/oseg/ont/okh#okhvOriginal&#45;&gt;http://w3id.org/oseg/ont/okh#okhv</title>
<path fill="none" stroke="black" d="M2165.83,-1203.72C2170.26,-1201.51 2174.85,-1199.22 2179.38,-1196.96"/>
<polygon fill="black" stroke="black" points="2181.16,-1199.98 2188.54,-1192.38 2178.03,-1193.72 2181.16,-1199.98"/>
<text text-anchor="middle" x="2119.61" y="-1189.14" font-family="Times,serif" font-size="14.00">subPropertyOf</text>
</g>
</g>
</svg>
