<?xml version="1.0" encoding="UTF-8" standalone="no"?>
<!DOCTYPE svg PUBLIC "-//W3C//DTD SVG 1.1//EN"
 "http://www.w3.org/Graphics/SVG/1.1/DTD/svg11.dtd">
<!-- Generated by graphviz version 2.43.0 (0)
 -->
<!-- Title: G Pages: 1 -->
<svg width="1317pt" height="1704pt"
 viewBox="0.00 0.00 1317.50 1704.26" xmlns="http://www.w3.org/2000/svg" xmlns:xlink="http://www.w3.org/1999/xlink">
<g id="graph0" class="graph" transform="scale(1 1) rotate(0) translate(4 1700.26)">
<title>G</title>
<polygon fill="white" stroke="transparent" points="-4,4 -4,-1700.26 1313.5,-1700.26 1313.5,4 -4,4"/>
<!-- http://schema.org/DefinedTerm -->
<g id="node1" class="node">
<title>http://schema.org/DefinedTerm</title>
<ellipse fill="none" stroke="#1f77b4" cx="1191.41" cy="-730.26" rx="118.17" ry="16.03"/>
<text text-anchor="middle" x="1191.41" y="-726.56" font-family="Times,serif" font-size="14.00">schema:DefinedTerm</text>
</g>
<!-- http://spdx.org/rdf/terms#SpdxItem -->
<g id="node2" class="node">
<title>http://spdx.org/rdf/terms#SpdxItem</title>
<ellipse fill="none" stroke="#1f77b4" cx="445.39" cy="-1540.26" rx="87.86" ry="16.03"/>
<text text-anchor="middle" x="445.39" y="-1536.56" font-family="Times,serif" font-size="14.00">spdx:SpdxItem</text>
</g>
<!-- http://schema.org/DefinedTermSet -->
<g id="node3" class="node">
<title>http://schema.org/DefinedTermSet</title>
<ellipse fill="none" stroke="#1f77b4" cx="901.05" cy="-1297.26" rx="116.85" ry="16.03"/>
<text text-anchor="middle" x="901.05" y="-1293.56" font-family="Times,serif" font-size="14.00">schema:DefinedTer...</text>
</g>
<!-- http://w3id.org/oseg/ont/ods#Dataset -->
<g id="node4" class="node">
<title>http://w3id.org/oseg/ont/ods#Dataset</title>
<ellipse fill="none" stroke="#1f77b4" cx="445.39" cy="-1489.26" rx="71.34" ry="16.03"/>
<text text-anchor="middle" x="445.39" y="-1485.56" font-family="Times,serif" font-size="14.00">ods:Dataset</text>
</g>
<!-- http://w3id.org/oseg/ont/okhimg#slotOrganizationLogoBw -->
<g id="node5" class="node">
<title>http://w3id.org/oseg/ont/okhimg#slotOrganizationLogoBw</title>
<ellipse fill="none" stroke="#e377c2" cx="445.39" cy="-1642.26" rx="114.6" ry="16.03"/>
<text text-anchor="middle" x="445.39" y="-1638.56" font-family="Times,serif" font-size="14.00">okhimg:slotOrgani...</text>
</g>
<!-- http://w3id.org/oseg/ont/okhimg#slotOrganizationLogoBw&#45;&gt;http://schema.org/DefinedTerm -->
<g id="edge43" class="edge">
<title>http://w3id.org/oseg/ont/okhimg#slotOrganizationLogoBw&#45;&gt;http://schema.org/DefinedTerm</title>
<path fill="none" stroke="black" d="M501.86,-1656.42C614.28,-1681.56 871.54,-1720.69 1028.33,-1599.26 1166.11,-1492.55 1186.99,-891.22 1189.95,-756.88"/>
<polygon fill="black" stroke="black" points="1193.45,-756.75 1190.16,-746.68 1186.45,-756.61 1193.45,-756.75"/>
<text text-anchor="middle" x="901.05" y="-1685.06" font-family="Times,serif" font-size="14.00">a</text>
</g>
<!-- http://w3id.org/oseg/ont/okhimg#slotOrganizationLogo -->
<g id="node34" class="node">
<title>http://w3id.org/oseg/ont/okhimg#slotOrganizationLogo</title>
<ellipse fill="none" stroke="#e377c2" cx="901.05" cy="-1574.26" rx="114.6" ry="16.03"/>
<text text-anchor="middle" x="901.05" y="-1570.56" font-family="Times,serif" font-size="14.00">okhimg:slotOrgani...</text>
</g>
<!-- http://w3id.org/oseg/ont/okhimg#slotOrganizationLogoBw&#45;&gt;http://w3id.org/oseg/ont/okhimg#slotOrganizationLogo -->
<g id="edge44" class="edge">
<title>http://w3id.org/oseg/ont/okhimg#slotOrganizationLogoBw&#45;&gt;http://w3id.org/oseg/ont/okhimg#slotOrganizationLogo</title>
<path fill="none" stroke="black" d="M505.37,-1628.32C528.75,-1623.11 555.94,-1617.45 580.77,-1613.26 621.67,-1606.37 722.65,-1594.34 800.18,-1585.46"/>
<polygon fill="black" stroke="black" points="800.94,-1588.89 810.48,-1584.28 800.14,-1581.94 800.94,-1588.89"/>
<text text-anchor="middle" x="668.27" y="-1617.06" font-family="Times,serif" font-size="14.00">seeAlso</text>
</g>
<!-- http://w3id.org/oseg/ont/okhimg#slotIconMainBw -->
<g id="node6" class="node">
<title>http://w3id.org/oseg/ont/okhimg#slotIconMainBw</title>
<ellipse fill="none" stroke="#e377c2" cx="445.39" cy="-1591.26" rx="117.26" ry="16.03"/>
<text text-anchor="middle" x="445.39" y="-1587.56" font-family="Times,serif" font-size="14.00">okhimg:slotIconMa...</text>
</g>
<!-- http://w3id.org/oseg/ont/okhimg#slotIconMainBw&#45;&gt;http://schema.org/DefinedTerm -->
<g id="edge2" class="edge">
<title>http://w3id.org/oseg/ont/okhimg#slotIconMainBw&#45;&gt;http://schema.org/DefinedTerm</title>
<path fill="none" stroke="black" d="M532.39,-1580.34C543.2,-1576.64 553.65,-1571.74 562.77,-1565.26 575.13,-1556.48 568.88,-1545.69 580.77,-1536.26 663.02,-1471.05 953.36,-1458.73 1028.33,-1385.26 1121.34,-1294.11 1175.05,-867.19 1187.57,-756.52"/>
<polygon fill="black" stroke="black" points="1191.05,-756.87 1188.68,-746.54 1184.09,-756.09 1191.05,-756.87"/>
<text text-anchor="middle" x="901.05" y="-1474.06" font-family="Times,serif" font-size="14.00">a</text>
</g>
<!-- http://w3id.org/oseg/ont/okhimg#slotIconMain -->
<g id="node10" class="node">
<title>http://w3id.org/oseg/ont/okhimg#slotIconMain</title>
<ellipse fill="none" stroke="#e377c2" cx="901.05" cy="-1360.26" rx="117.26" ry="16.03"/>
<text text-anchor="middle" x="901.05" y="-1356.56" font-family="Times,serif" font-size="14.00">okhimg:slotIconMain</text>
</g>
<!-- http://w3id.org/oseg/ont/okhimg#slotIconMainBw&#45;&gt;http://w3id.org/oseg/ont/okhimg#slotIconMain -->
<g id="edge32" class="edge">
<title>http://w3id.org/oseg/ont/okhimg#slotIconMainBw&#45;&gt;http://w3id.org/oseg/ont/okhimg#slotIconMain</title>
<path fill="none" stroke="black" d="M539.65,-1581.46C548.28,-1577.46 556.23,-1572.19 562.77,-1565.26 596.77,-1529.24 546.46,-1491 580.77,-1455.26 635.76,-1397.98 679.8,-1442.39 755.77,-1419.26 790.89,-1408.57 829.3,-1392.64 857.66,-1380.03"/>
<polygon fill="black" stroke="black" points="859.18,-1383.18 866.87,-1375.89 856.31,-1376.8 859.18,-1383.18"/>
<text text-anchor="middle" x="668.27" y="-1459.06" font-family="Times,serif" font-size="14.00">seeAlso</text>
</g>
<!-- http://w3id.org/oseg/ont/okhimg#slotLogoBw -->
<g id="node7" class="node">
<title>http://w3id.org/oseg/ont/okhimg#slotLogoBw</title>
<ellipse fill="none" stroke="#e377c2" cx="445.39" cy="-1081.26" rx="111.03" ry="16.03"/>
<text text-anchor="middle" x="445.39" y="-1077.56" font-family="Times,serif" font-size="14.00">okhimg:slotLogoBw</text>
</g>
<!-- http://w3id.org/oseg/ont/okhimg#slotLogoBw&#45;&gt;http://schema.org/DefinedTerm -->
<g id="edge3" class="edge">
<title>http://w3id.org/oseg/ont/okhimg#slotLogoBw&#45;&gt;http://schema.org/DefinedTerm</title>
<path fill="none" stroke="black" d="M533.88,-1091.23C544.34,-1095.09 554.29,-1100.29 562.77,-1107.26 578.13,-1119.91 564.54,-1136.74 580.77,-1148.26 624.11,-1179.04 1024.06,-1165.9 1028.33,-1163.26 1172.77,-1073.99 1189.17,-836.57 1190.51,-756.82"/>
<polygon fill="black" stroke="black" points="1194.01,-756.68 1190.61,-746.64 1187.02,-756.61 1194.01,-756.68"/>
<text text-anchor="middle" x="901.05" y="-1172.06" font-family="Times,serif" font-size="14.00">a</text>
</g>
<!-- http://w3id.org/oseg/ont/okhimg#slotLogo -->
<g id="node13" class="node">
<title>http://w3id.org/oseg/ont/okhimg#slotLogo</title>
<ellipse fill="none" stroke="#e377c2" cx="901.05" cy="-1138.26" rx="94.51" ry="16.03"/>
<text text-anchor="middle" x="901.05" y="-1134.56" font-family="Times,serif" font-size="14.00">okhimg:slotLogo</text>
</g>
<!-- http://w3id.org/oseg/ont/okhimg#slotLogoBw&#45;&gt;http://w3id.org/oseg/ont/okhimg#slotLogo -->
<g id="edge11" class="edge">
<title>http://w3id.org/oseg/ont/okhimg#slotLogoBw&#45;&gt;http://w3id.org/oseg/ont/okhimg#slotLogo</title>
<path fill="none" stroke="black" d="M506.11,-1094.92C534.92,-1101.34 566.31,-1108.08 580.77,-1110.26 653.86,-1121.31 737.08,-1128.43 800.22,-1132.73"/>
<polygon fill="black" stroke="black" points="800.37,-1136.25 810.58,-1133.42 800.83,-1129.26 800.37,-1136.25"/>
<text text-anchor="middle" x="668.27" y="-1133.06" font-family="Times,serif" font-size="14.00">seeAlso</text>
</g>
<!-- http://w3id.org/oseg/ont/okhimg#slotModelFromFront -->
<g id="node8" class="node">
<title>http://w3id.org/oseg/ont/okhimg#slotModelFromFront</title>
<ellipse fill="none" stroke="#e377c2" cx="901.05" cy="-1087.26" rx="116.85" ry="16.03"/>
<text text-anchor="middle" x="901.05" y="-1083.56" font-family="Times,serif" font-size="14.00">okhimg:slotModelF...</text>
</g>
<!-- http://w3id.org/oseg/ont/okhimg#slotModelFromFront&#45;&gt;http://schema.org/DefinedTerm -->
<g id="edge6" class="edge">
<title>http://w3id.org/oseg/ont/okhimg#slotModelFromFront&#45;&gt;http://schema.org/DefinedTerm</title>
<path fill="none" stroke="black" d="M995.66,-1077.64C1007.35,-1073.74 1018.59,-1068.43 1028.33,-1061.26 1133.01,-984.11 1173.64,-820.83 1185.94,-756.81"/>
<polygon fill="black" stroke="black" points="1189.42,-757.2 1187.79,-746.73 1182.54,-755.93 1189.42,-757.2"/>
<text text-anchor="middle" x="1050.83" y="-1046.06" font-family="Times,serif" font-size="14.00">a</text>
</g>
<!-- http://w3id.org/oseg/ont/okhimg#slotModel3D -->
<g id="node9" class="node">
<title>http://w3id.org/oseg/ont/okhimg#slotModel3D</title>
<ellipse fill="none" stroke="#e377c2" cx="901.05" cy="-1036.26" rx="115.93" ry="16.03"/>
<text text-anchor="middle" x="901.05" y="-1032.56" font-family="Times,serif" font-size="14.00">okhimg:slotModel3D</text>
</g>
<!-- http://w3id.org/oseg/ont/okhimg#slotModel3D&#45;&gt;http://schema.org/DefinedTerm -->
<g id="edge7" class="edge">
<title>http://w3id.org/oseg/ont/okhimg#slotModel3D&#45;&gt;http://schema.org/DefinedTerm</title>
<path fill="none" stroke="black" d="M994.83,-1026.61C1006.78,-1022.72 1018.32,-1017.43 1028.33,-1010.26 1118.84,-945.43 1166.36,-813.12 1183.2,-756.7"/>
<polygon fill="black" stroke="black" points="1186.66,-757.36 1186.08,-746.78 1179.93,-755.41 1186.66,-757.36"/>
<text text-anchor="middle" x="1050.83" y="-997.06" font-family="Times,serif" font-size="14.00">a</text>
</g>
<!-- http://w3id.org/oseg/ont/okhimg#slotIconMain&#45;&gt;http://schema.org/DefinedTerm -->
<g id="edge47" class="edge">
<title>http://w3id.org/oseg/ont/okhimg#slotIconMain&#45;&gt;http://schema.org/DefinedTerm</title>
<path fill="none" stroke="black" d="M983.74,-1348.57C1000.21,-1342.91 1016.18,-1334.56 1028.33,-1322.26 1110.85,-1238.69 1171.44,-860.06 1186.68,-756.51"/>
<polygon fill="black" stroke="black" points="1190.15,-756.97 1188.12,-746.57 1183.22,-755.96 1190.15,-756.97"/>
<text text-anchor="middle" x="1050.83" y="-1295.06" font-family="Times,serif" font-size="14.00">a</text>
</g>
<!-- http://w3id.org/oseg/ont/okhimg#slotIconMain&#45;&gt;http://w3id.org/oseg/ont/okhimg#slotIconMainBw -->
<g id="edge39" class="edge">
<title>http://w3id.org/oseg/ont/okhimg#slotIconMain&#45;&gt;http://w3id.org/oseg/ont/okhimg#slotIconMainBw</title>
<path fill="none" stroke="black" d="M803.61,-1369.43C712.52,-1378.54 588.64,-1392.26 580.77,-1400.26 529.02,-1452.84 611.95,-1510.28 562.77,-1565.26 558.74,-1569.76 554.13,-1573.57 549.11,-1576.79"/>
<polygon fill="black" stroke="black" points="547.35,-1573.76 540.3,-1581.68 550.75,-1579.88 547.35,-1573.76"/>
<text text-anchor="middle" x="668.27" y="-1404.06" font-family="Times,serif" font-size="14.00">seeAlso</text>
</g>
<!-- http://w3id.org/oseg/ont/oseg&#45;profiles#robinVobruba -->
<g id="node11" class="node">
<title>http://w3id.org/oseg/ont/oseg&#45;profiles#robinVobruba</title>
<ellipse fill="none" stroke="#e377c2" cx="445.39" cy="-1438.26" rx="113.69" ry="16.03"/>
<text text-anchor="middle" x="445.39" y="-1434.56" font-family="Times,serif" font-size="14.00">osegprof:robinVob...</text>
</g>
<!-- http://w3id.org/oseg/ont/0.1.0/okhimg -->
<g id="node12" class="node">
<title>http://w3id.org/oseg/ont/0.1.0/okhimg</title>
<ellipse fill="none" stroke="#e377c2" cx="445.39" cy="-1387.26" rx="70.01" ry="16.03"/>
<text text-anchor="middle" x="445.39" y="-1383.56" font-family="Times,serif" font-size="14.00">ns1:okhimg</text>
</g>
<!-- http://w3id.org/oseg/ont/okhimg#slotLogo&#45;&gt;http://schema.org/DefinedTerm -->
<g id="edge5" class="edge">
<title>http://w3id.org/oseg/ont/okhimg#slotLogo&#45;&gt;http://schema.org/DefinedTerm</title>
<path fill="none" stroke="black" d="M987.29,-1131.39C1001.96,-1127.33 1016.33,-1121.26 1028.33,-1112.26 1147.59,-1022.82 1179.95,-828.38 1187.97,-757.13"/>
<polygon fill="black" stroke="black" points="1191.5,-757.1 1189.06,-746.79 1184.54,-756.37 1191.5,-757.1"/>
<text text-anchor="middle" x="1050.83" y="-1094.06" font-family="Times,serif" font-size="14.00">a</text>
</g>
<!-- http://w3id.org/oseg/ont/okhimg#slotLogo&#45;&gt;http://w3id.org/oseg/ont/okhimg#slotLogoBw -->
<g id="edge4" class="edge">
<title>http://w3id.org/oseg/ont/okhimg#slotLogo&#45;&gt;http://w3id.org/oseg/ont/okhimg#slotLogoBw</title>
<path fill="none" stroke="black" d="M821.93,-1129.2C805.44,-1125.38 788.56,-1119.96 773.77,-1112.26 764.01,-1107.18 765.9,-1099.56 755.77,-1095.26 686.23,-1065.78 599.84,-1064.44 536.04,-1069.23"/>
<polygon fill="black" stroke="black" points="535.68,-1065.75 526,-1070.05 536.25,-1072.73 535.68,-1065.75"/>
<text text-anchor="middle" x="668.27" y="-1099.06" font-family="Times,serif" font-size="14.00">seeAlso</text>
</g>
<!-- http://w3id.org/oseg/ont/okhimg#slotPhotoThingMain -->
<g id="node14" class="node">
<title>http://w3id.org/oseg/ont/okhimg#slotPhotoThingMain</title>
<ellipse fill="none" stroke="#e377c2" cx="901.05" cy="-985.26" rx="114.6" ry="16.03"/>
<text text-anchor="middle" x="901.05" y="-981.56" font-family="Times,serif" font-size="14.00">okhimg:slotPhotoT...</text>
</g>
<!-- http://w3id.org/oseg/ont/okhimg#slotPhotoThingMain&#45;&gt;http://schema.org/DefinedTerm -->
<g id="edge12" class="edge">
<title>http://w3id.org/oseg/ont/okhimg#slotPhotoThingMain&#45;&gt;http://schema.org/DefinedTerm</title>
<path fill="none" stroke="black" d="M992.31,-975.41C1005.03,-971.59 1017.46,-966.37 1028.33,-959.26 1106.73,-908.01 1158.81,-804.52 1179.87,-756.21"/>
<polygon fill="black" stroke="black" points="1183.19,-757.35 1183.89,-746.78 1176.75,-754.6 1183.19,-757.35"/>
<text text-anchor="middle" x="1050.83" y="-949.06" font-family="Times,serif" font-size="14.00">a</text>
</g>
<!-- http://w3id.org/oseg/ont/okhimg#slotModelFromBack -->
<g id="node15" class="node">
<title>http://w3id.org/oseg/ont/okhimg#slotModelFromBack</title>
<ellipse fill="none" stroke="#e377c2" cx="901.05" cy="-934.26" rx="116.85" ry="16.03"/>
<text text-anchor="middle" x="901.05" y="-930.56" font-family="Times,serif" font-size="14.00">okhimg:slotModelF...</text>
</g>
<!-- http://w3id.org/oseg/ont/okhimg#slotModelFromBack&#45;&gt;http://schema.org/DefinedTerm -->
<g id="edge13" class="edge">
<title>http://w3id.org/oseg/ont/okhimg#slotModelFromBack&#45;&gt;http://schema.org/DefinedTerm</title>
<path fill="none" stroke="black" d="M989.91,-923.66C1003.3,-919.95 1016.56,-914.96 1028.33,-908.26 1095.24,-870.16 1149.79,-794.72 1175.11,-755.41"/>
<polygon fill="black" stroke="black" points="1178.24,-757.01 1180.63,-746.69 1172.33,-753.26 1178.24,-757.01"/>
<text text-anchor="middle" x="1050.83" y="-898.06" font-family="Times,serif" font-size="14.00">a</text>
</g>
<!-- http://w3id.org/oseg/ont/okhimg#tagModel -->
<g id="node16" class="node">
<title>http://w3id.org/oseg/ont/okhimg#tagModel</title>
<ellipse fill="none" stroke="#e377c2" cx="901.05" cy="-883.26" rx="99.9" ry="16.03"/>
<text text-anchor="middle" x="901.05" y="-879.56" font-family="Times,serif" font-size="14.00">okhimg:tagModel</text>
</g>
<!-- http://w3id.org/oseg/ont/okhimg#tagModel&#45;&gt;http://schema.org/DefinedTerm -->
<g id="edge14" class="edge">
<title>http://w3id.org/oseg/ont/okhimg#tagModel&#45;&gt;http://schema.org/DefinedTerm</title>
<path fill="none" stroke="black" d="M979.65,-873.16C996.18,-869.4 1013.19,-864.27 1028.33,-857.26 1084.3,-831.33 1138.47,-782.65 1167.83,-753.67"/>
<polygon fill="black" stroke="black" points="1170.49,-755.95 1175.09,-746.41 1165.54,-751.01 1170.49,-755.95"/>
<text text-anchor="middle" x="1050.83" y="-850.06" font-family="Times,serif" font-size="14.00">a</text>
</g>
<!-- http://w3id.org/oseg/ont/okhimg#tagArt -->
<g id="node17" class="node">
<title>http://w3id.org/oseg/ont/okhimg#tagArt</title>
<ellipse fill="none" stroke="#e377c2" cx="901.05" cy="-1239.26" rx="84.29" ry="16.03"/>
<text text-anchor="middle" x="901.05" y="-1235.56" font-family="Times,serif" font-size="14.00">okhimg:tagArt</text>
</g>
<!-- http://w3id.org/oseg/ont/okhimg#tagArt&#45;&gt;http://schema.org/DefinedTerm -->
<g id="edge15" class="edge">
<title>http://w3id.org/oseg/ont/okhimg#tagArt&#45;&gt;http://schema.org/DefinedTerm</title>
<path fill="none" stroke="black" d="M984.15,-1236.54C1009.73,-1231.82 1036.21,-1222.39 1055.33,-1204.26 1122.38,-1140.68 1172.44,-847.02 1186.45,-756.74"/>
<polygon fill="black" stroke="black" points="1189.93,-757.19 1187.98,-746.77 1183.01,-756.12 1189.93,-757.19"/>
<text text-anchor="middle" x="1050.83" y="-1213.06" font-family="Times,serif" font-size="14.00">a</text>
</g>
<!-- http://w3id.org/oseg/ont/okhimg#slots -->
<g id="node18" class="node">
<title>http://w3id.org/oseg/ont/okhimg#slots</title>
<ellipse fill="none" stroke="#e377c2" cx="445.39" cy="-1336.26" rx="75.82" ry="16.03"/>
<text text-anchor="middle" x="445.39" y="-1332.56" font-family="Times,serif" font-size="14.00">okhimg:slots</text>
</g>
<!-- http://w3id.org/oseg/ont/okhimg#slots&#45;&gt;http://schema.org/DefinedTermSet -->
<g id="edge18" class="edge">
<title>http://w3id.org/oseg/ont/okhimg#slots&#45;&gt;http://schema.org/DefinedTermSet</title>
<path fill="none" stroke="black" d="M515.43,-1330.03C536.41,-1328.16 559.53,-1326.11 580.77,-1324.26 650.46,-1318.21 728.72,-1311.58 790.32,-1306.41"/>
<polygon fill="black" stroke="black" points="790.77,-1309.89 800.45,-1305.57 790.19,-1302.91 790.77,-1309.89"/>
<text text-anchor="middle" x="668.27" y="-1328.06" font-family="Times,serif" font-size="14.00">a</text>
</g>
<!-- http://w3id.org/oseg/ont/okhimg#slots&#45;&gt;http://w3id.org/oseg/ont/okhimg#slotIconMain -->
<g id="edge8" class="edge">
<title>http://w3id.org/oseg/ont/okhimg#slots&#45;&gt;http://w3id.org/oseg/ont/okhimg#slotIconMain</title>
<path fill="none" stroke="black" d="M519.02,-1340.11C589.62,-1343.84 698.06,-1349.58 781.22,-1353.98"/>
<polygon fill="black" stroke="black" points="781.06,-1357.47 791.24,-1354.51 781.43,-1350.48 781.06,-1357.47"/>
<text text-anchor="middle" x="668.27" y="-1356.06" font-family="Times,serif" font-size="14.00">schema:hasDefinedTerm</text>
</g>
<!-- http://w3id.org/oseg/ont/okhimg#tagIcon -->
<g id="node19" class="node">
<title>http://w3id.org/oseg/ont/okhimg#tagIcon</title>
<ellipse fill="none" stroke="#e377c2" cx="901.05" cy="-832.26" rx="89.61" ry="16.03"/>
<text text-anchor="middle" x="901.05" y="-828.56" font-family="Times,serif" font-size="14.00">okhimg:tagIcon</text>
</g>
<!-- http://w3id.org/oseg/ont/okhimg#tagIcon&#45;&gt;http://schema.org/DefinedTerm -->
<g id="edge17" class="edge">
<title>http://w3id.org/oseg/ont/okhimg#tagIcon&#45;&gt;http://schema.org/DefinedTerm</title>
<path fill="none" stroke="black" d="M969.01,-821.52C988.4,-817.6 1009.42,-812.54 1028.33,-806.26 1072.62,-791.55 1120.72,-767.94 1152.93,-750.94"/>
<polygon fill="black" stroke="black" points="1154.8,-753.91 1161.98,-746.12 1151.51,-747.73 1154.8,-753.91"/>
<text text-anchor="middle" x="1050.83" y="-803.06" font-family="Times,serif" font-size="14.00">a</text>
</g>
<!-- http://w3id.org/oseg/ont/oseg&#45;profiles#Iopa -->
<g id="node20" class="node">
<title>http://w3id.org/oseg/ont/oseg&#45;profiles#Iopa</title>
<ellipse fill="none" stroke="#e377c2" cx="445.39" cy="-1285.26" rx="80.72" ry="16.03"/>
<text text-anchor="middle" x="445.39" y="-1281.56" font-family="Times,serif" font-size="14.00">osegprof:Iopa</text>
</g>
<!-- http://w3id.org/oseg/ont/okhimg#tagBw -->
<g id="node21" class="node">
<title>http://w3id.org/oseg/ont/okhimg#tagBw</title>
<ellipse fill="none" stroke="#e377c2" cx="901.05" cy="-781.26" rx="84.29" ry="16.03"/>
<text text-anchor="middle" x="901.05" y="-777.56" font-family="Times,serif" font-size="14.00">okhimg:tagBw</text>
</g>
<!-- http://w3id.org/oseg/ont/okhimg#tagBw&#45;&gt;http://schema.org/DefinedTerm -->
<g id="edge19" class="edge">
<title>http://w3id.org/oseg/ont/okhimg#tagBw&#45;&gt;http://schema.org/DefinedTerm</title>
<path fill="none" stroke="black" d="M963.91,-770.32C1006.08,-762.86 1062.37,-752.91 1108.29,-744.79"/>
<polygon fill="black" stroke="black" points="1108.98,-748.22 1118.22,-743.03 1107.76,-741.33 1108.98,-748.22"/>
<text text-anchor="middle" x="1050.83" y="-757.06" font-family="Times,serif" font-size="14.00">a</text>
</g>
<!-- http://w3id.org/oseg/ont/okhimg#slotModelMain -->
<g id="node22" class="node">
<title>http://w3id.org/oseg/ont/okhimg#slotModelMain</title>
<ellipse fill="none" stroke="#e377c2" cx="901.05" cy="-730.26" rx="127.06" ry="16.03"/>
<text text-anchor="middle" x="901.05" y="-726.56" font-family="Times,serif" font-size="14.00">okhimg:slotModelMain</text>
</g>
<!-- http://w3id.org/oseg/ont/okhimg#slotModelMain&#45;&gt;http://schema.org/DefinedTerm -->
<g id="edge21" class="edge">
<title>http://w3id.org/oseg/ont/okhimg#slotModelMain&#45;&gt;http://schema.org/DefinedTerm</title>
<path fill="none" stroke="black" d="M1028.53,-730.26C1040,-730.26 1051.62,-730.26 1063.1,-730.26"/>
<polygon fill="black" stroke="black" points="1063.14,-733.76 1073.14,-730.26 1063.14,-726.76 1063.14,-733.76"/>
<text text-anchor="middle" x="1050.83" y="-734.06" font-family="Times,serif" font-size="14.00">a</text>
</g>
<!-- http://w3id.org/oseg/ont/okhimg#tagLogo -->
<g id="node23" class="node">
<title>http://w3id.org/oseg/ont/okhimg#tagLogo</title>
<ellipse fill="none" stroke="#e377c2" cx="901.05" cy="-679.26" rx="92.76" ry="16.03"/>
<text text-anchor="middle" x="901.05" y="-675.56" font-family="Times,serif" font-size="14.00">okhimg:tagLogo</text>
</g>
<!-- http://w3id.org/oseg/ont/okhimg#tagLogo&#45;&gt;http://schema.org/DefinedTerm -->
<g id="edge23" class="edge">
<title>http://w3id.org/oseg/ont/okhimg#tagLogo&#45;&gt;http://schema.org/DefinedTerm</title>
<path fill="none" stroke="black" d="M967.12,-690.77C1008.89,-698.16 1063.5,-707.82 1108.26,-715.73"/>
<polygon fill="black" stroke="black" points="1107.78,-719.2 1118.23,-717.5 1108.99,-712.31 1107.78,-719.2"/>
<text text-anchor="middle" x="1050.83" y="-710.06" font-family="Times,serif" font-size="14.00">a</text>
</g>
<!-- http://w3id.org/oseg/ont/okhimg#slotPhotoPackaging -->
<g id="node24" class="node">
<title>http://w3id.org/oseg/ont/okhimg#slotPhotoPackaging</title>
<ellipse fill="none" stroke="#e377c2" cx="901.05" cy="-628.26" rx="113.69" ry="16.03"/>
<text text-anchor="middle" x="901.05" y="-624.56" font-family="Times,serif" font-size="14.00">okhimg:slotPhotoP...</text>
</g>
<!-- http://w3id.org/oseg/ont/okhimg#slotPhotoPackaging&#45;&gt;http://schema.org/DefinedTerm -->
<g id="edge24" class="edge">
<title>http://w3id.org/oseg/ont/okhimg#slotPhotoPackaging&#45;&gt;http://schema.org/DefinedTerm</title>
<path fill="none" stroke="black" d="M976.27,-640.51C993.56,-644.2 1011.76,-648.76 1028.33,-654.26 1072.62,-668.98 1120.72,-692.58 1152.93,-709.58"/>
<polygon fill="black" stroke="black" points="1151.51,-712.79 1161.98,-714.41 1154.8,-706.62 1151.51,-712.79"/>
<text text-anchor="middle" x="1050.83" y="-666.06" font-family="Times,serif" font-size="14.00">a</text>
</g>
<!-- http://w3id.org/oseg/ont/okhimg#slotModelFromLeft -->
<g id="node25" class="node">
<title>http://w3id.org/oseg/ont/okhimg#slotModelFromLeft</title>
<ellipse fill="none" stroke="#e377c2" cx="901.05" cy="-577.26" rx="116.85" ry="16.03"/>
<text text-anchor="middle" x="901.05" y="-573.56" font-family="Times,serif" font-size="14.00">okhimg:slotModelF...</text>
</g>
<!-- http://w3id.org/oseg/ont/okhimg#slotModelFromLeft&#45;&gt;http://schema.org/DefinedTerm -->
<g id="edge25" class="edge">
<title>http://w3id.org/oseg/ont/okhimg#slotModelFromLeft&#45;&gt;http://schema.org/DefinedTerm</title>
<path fill="none" stroke="black" d="M984.99,-588.63C999.81,-592.25 1014.82,-597.01 1028.33,-603.26 1084.3,-629.2 1138.47,-677.88 1167.83,-706.86"/>
<polygon fill="black" stroke="black" points="1165.54,-709.52 1175.09,-714.12 1170.49,-704.57 1165.54,-709.52"/>
<text text-anchor="middle" x="1050.83" y="-619.06" font-family="Times,serif" font-size="14.00">a</text>
</g>
<!-- http://w3id.org/oseg/ont/okhimg -->
<g id="node26" class="node">
<title>http://w3id.org/oseg/ont/okhimg</title>
<ellipse fill="none" stroke="#e377c2" cx="70" cy="-1355.26" rx="70.01" ry="16.03"/>
<text text-anchor="middle" x="70" y="-1351.56" font-family="Times,serif" font-size="14.00">ns2:okhimg</text>
</g>
<!-- http://w3id.org/oseg/ont/okhimg&#45;&gt;http://spdx.org/rdf/terms#SpdxItem -->
<g id="edge42" class="edge">
<title>http://w3id.org/oseg/ont/okhimg&#45;&gt;http://spdx.org/rdf/terms#SpdxItem</title>
<path fill="none" stroke="black" d="M74.31,-1371.74C82.1,-1405.81 105.1,-1483.71 158.01,-1518.26 221.48,-1559.72 310.57,-1559.7 372.46,-1552.84"/>
<polygon fill="black" stroke="black" points="373.02,-1556.3 382.54,-1551.63 372.19,-1549.35 373.02,-1556.3"/>
<text text-anchor="middle" x="234.01" y="-1559.06" font-family="Times,serif" font-size="14.00">a</text>
</g>
<!-- http://w3id.org/oseg/ont/okhimg&#45;&gt;http://w3id.org/oseg/ont/ods#Dataset -->
<g id="edge26" class="edge">
<title>http://w3id.org/oseg/ont/okhimg&#45;&gt;http://w3id.org/oseg/ont/ods#Dataset</title>
<path fill="none" stroke="black" d="M78.31,-1371.77C90.62,-1397.33 118.11,-1445.8 158.01,-1467.26 225.05,-1503.33 313.98,-1504.2 374.85,-1499.03"/>
<polygon fill="black" stroke="black" points="375.49,-1502.49 385.12,-1498.08 374.84,-1495.52 375.49,-1502.49"/>
<text text-anchor="middle" x="234.01" y="-1504.06" font-family="Times,serif" font-size="14.00">a</text>
</g>
<!-- http://w3id.org/oseg/ont/okhimg&#45;&gt;http://w3id.org/oseg/ont/oseg&#45;profiles#robinVobruba -->
<g id="edge9" class="edge">
<title>http://w3id.org/oseg/ont/okhimg&#45;&gt;http://w3id.org/oseg/ont/oseg&#45;profiles#robinVobruba</title>
<path fill="none" stroke="black" d="M84.09,-1371.32C99.61,-1388.99 127.27,-1416.46 158.01,-1428.26 219.46,-1451.85 293.88,-1453.73 351.46,-1450.04"/>
<polygon fill="black" stroke="black" points="351.91,-1453.51 361.64,-1449.31 351.42,-1446.53 351.91,-1453.51"/>
<text text-anchor="middle" x="234.01" y="-1455.06" font-family="Times,serif" font-size="14.00">schema:creator</text>
</g>
<!-- http://w3id.org/oseg/ont/okhimg&#45;&gt;http://w3id.org/oseg/ont/oseg&#45;profiles#robinVobruba -->
<g id="edge22" class="edge">
<title>http://w3id.org/oseg/ont/okhimg&#45;&gt;http://w3id.org/oseg/ont/oseg&#45;profiles#robinVobruba</title>
<path fill="none" stroke="black" d="M101.76,-1369.9C118.12,-1377.1 138.78,-1385.28 158.01,-1390.26 223.91,-1407.33 242.89,-1397.85 310.01,-1409.26 331.44,-1412.91 354.63,-1417.63 375.61,-1422.2"/>
<polygon fill="black" stroke="black" points="374.88,-1425.62 385.4,-1424.36 376.39,-1418.79 374.88,-1425.62"/>
<text text-anchor="middle" x="234.01" y="-1413.06" font-family="Times,serif" font-size="14.00">dcterms:creator</text>
</g>
<!-- http://w3id.org/oseg/ont/okhimg&#45;&gt;http://w3id.org/oseg/ont/0.1.0/okhimg -->
<g id="edge10" class="edge">
<title>http://w3id.org/oseg/ont/okhimg&#45;&gt;http://w3id.org/oseg/ont/0.1.0/okhimg</title>
<path fill="none" stroke="black" d="M136.19,-1360.62C184.24,-1364.59 251.2,-1370.18 310.01,-1375.26 329.38,-1376.94 350.32,-1378.79 369.78,-1380.53"/>
<polygon fill="black" stroke="black" points="369.53,-1384.02 379.8,-1381.42 370.15,-1377.05 369.53,-1384.02"/>
<text text-anchor="middle" x="234.01" y="-1379.06" font-family="Times,serif" font-size="14.00">owl:versionIRI</text>
</g>
<!-- http://w3id.org/oseg/ont/okhimg&#45;&gt;http://w3id.org/oseg/ont/okhimg#slots -->
<g id="edge16" class="edge">
<title>http://w3id.org/oseg/ont/okhimg&#45;&gt;http://w3id.org/oseg/ont/okhimg#slots</title>
<path fill="none" stroke="black" d="M119.06,-1343.53C131.65,-1340.95 145.27,-1338.59 158.01,-1337.26 226.23,-1330.16 304.1,-1330.42 361.4,-1332.17"/>
<polygon fill="black" stroke="black" points="361.38,-1335.68 371.49,-1332.51 361.61,-1328.68 361.38,-1335.68"/>
<text text-anchor="middle" x="234.01" y="-1341.06" font-family="Times,serif" font-size="14.00">void:rootResource</text>
</g>
<!-- http://w3id.org/oseg/ont/okhimg&#45;&gt;http://w3id.org/oseg/ont/oseg&#45;profiles#Iopa -->
<g id="edge20" class="edge">
<title>http://w3id.org/oseg/ont/okhimg&#45;&gt;http://w3id.org/oseg/ont/oseg&#45;profiles#Iopa</title>
<path fill="none" stroke="black" d="M95.11,-1339.94C112.03,-1329.99 135.55,-1317.7 158.01,-1311.26 222.18,-1292.85 297.45,-1286.58 354.71,-1284.79"/>
<polygon fill="black" stroke="black" points="354.92,-1288.29 364.83,-1284.52 354.73,-1281.29 354.92,-1288.29"/>
<text text-anchor="middle" x="234.01" y="-1315.06" font-family="Times,serif" font-size="14.00">dcterms:publisher</text>
</g>
<!-- http://id.loc.gov/vocabulary/iso639&#45;1/en -->
<g id="node27" class="node">
<title>http://id.loc.gov/vocabulary/iso639&#45;1/en</title>
<ellipse fill="none" stroke="#e377c2" cx="445.39" cy="-1234.26" rx="45.01" ry="16.03"/>
<text text-anchor="middle" x="445.39" y="-1230.56" font-family="Times,serif" font-size="14.00">ns3:en</text>
</g>
<!-- http://w3id.org/oseg/ont/okhimg&#45;&gt;http://id.loc.gov/vocabulary/iso639&#45;1/en -->
<g id="edge27" class="edge">
<title>http://w3id.org/oseg/ont/okhimg&#45;&gt;http://id.loc.gov/vocabulary/iso639&#45;1/en</title>
<path fill="none" stroke="black" d="M81.77,-1339.2C96.39,-1318.85 124.57,-1284.49 158.01,-1268.26 232.69,-1232.02 330.76,-1228.46 390.59,-1230.45"/>
<polygon fill="black" stroke="black" points="390.81,-1233.97 400.94,-1230.87 391.09,-1226.97 390.81,-1233.97"/>
<text text-anchor="middle" x="234.01" y="-1272.06" font-family="Times,serif" font-size="14.00">dcterms:language</text>
</g>
<!-- http://w3id.org/oseg/ont/okhimg#tags -->
<g id="node29" class="node">
<title>http://w3id.org/oseg/ont/okhimg#tags</title>
<ellipse fill="none" stroke="#e377c2" cx="445.39" cy="-1183.26" rx="73.58" ry="16.03"/>
<text text-anchor="middle" x="445.39" y="-1179.56" font-family="Times,serif" font-size="14.00">okhimg:tags</text>
</g>
<!-- http://w3id.org/oseg/ont/okhimg&#45;&gt;http://w3id.org/oseg/ont/okhimg#tags -->
<g id="edge29" class="edge">
<title>http://w3id.org/oseg/ont/okhimg&#45;&gt;http://w3id.org/oseg/ont/okhimg#tags</title>
<path fill="none" stroke="black" d="M75.6,-1338.98C85.21,-1308.26 110.56,-1242.18 158.01,-1212.26 222.38,-1171.68 311.49,-1169.11 373.14,-1173.7"/>
<polygon fill="black" stroke="black" points="372.92,-1177.19 383.17,-1174.53 373.49,-1170.22 372.92,-1177.19"/>
<text text-anchor="middle" x="234.01" y="-1216.06" font-family="Times,serif" font-size="14.00">void:rootResource</text>
</g>
<!-- http://spdx.org/licenses/AGPL&#45;3.0&#45;or&#45;later -->
<g id="node36" class="node">
<title>http://spdx.org/licenses/AGPL&#45;3.0&#45;or&#45;later</title>
<ellipse fill="none" stroke="#e377c2" cx="445.39" cy="-1132.26" rx="111.95" ry="16.03"/>
<text text-anchor="middle" x="445.39" y="-1128.56" font-family="Times,serif" font-size="14.00">spdxl:AGPL&#45;3.0&#45;or...</text>
</g>
<!-- http://w3id.org/oseg/ont/okhimg&#45;&gt;http://spdx.org/licenses/AGPL&#45;3.0&#45;or&#45;later -->
<g id="edge38" class="edge">
<title>http://w3id.org/oseg/ont/okhimg&#45;&gt;http://spdx.org/licenses/AGPL&#45;3.0&#45;or&#45;later</title>
<path fill="none" stroke="black" d="M72.49,-1338.95C77.07,-1299.39 94.7,-1198.33 158.01,-1153.26 218.89,-1109.92 306.66,-1110.14 368.96,-1117.76"/>
<polygon fill="black" stroke="black" points="368.75,-1121.27 379.12,-1119.1 369.66,-1114.33 368.75,-1121.27"/>
<text text-anchor="middle" x="234.01" y="-1157.06" font-family="Times,serif" font-size="14.00">spdx:licenseDeclared</text>
</g>
<!-- http://w3id.org/oseg/ont/okhimg#slotModelFromBelow -->
<g id="node28" class="node">
<title>http://w3id.org/oseg/ont/okhimg#slotModelFromBelow</title>
<ellipse fill="none" stroke="#e377c2" cx="901.05" cy="-526.26" rx="116.85" ry="16.03"/>
<text text-anchor="middle" x="901.05" y="-522.56" font-family="Times,serif" font-size="14.00">okhimg:slotModelF...</text>
</g>
<!-- http://w3id.org/oseg/ont/okhimg#slotModelFromBelow&#45;&gt;http://schema.org/DefinedTerm -->
<g id="edge28" class="edge">
<title>http://w3id.org/oseg/ont/okhimg#slotModelFromBelow&#45;&gt;http://schema.org/DefinedTerm</title>
<path fill="none" stroke="black" d="M989.91,-536.87C1003.3,-540.58 1016.56,-545.56 1028.33,-552.26 1095.24,-590.36 1149.79,-665.81 1175.11,-705.12"/>
<polygon fill="black" stroke="black" points="1172.33,-707.26 1180.63,-713.84 1178.24,-703.52 1172.33,-707.26"/>
<text text-anchor="middle" x="1050.83" y="-569.06" font-family="Times,serif" font-size="14.00">a</text>
</g>
<!-- http://w3id.org/oseg/ont/okhimg#tags&#45;&gt;http://schema.org/DefinedTermSet -->
<g id="edge31" class="edge">
<title>http://w3id.org/oseg/ont/okhimg#tags&#45;&gt;http://schema.org/DefinedTermSet</title>
<path fill="none" stroke="black" d="M514.89,-1188.6C531.78,-1192.48 548.96,-1198.86 562.77,-1209.26 576.11,-1219.32 567.18,-1232.54 580.77,-1242.26 613.67,-1265.8 710.4,-1280.25 788.85,-1288.4"/>
<polygon fill="black" stroke="black" points="788.5,-1291.88 798.8,-1289.41 789.21,-1284.92 788.5,-1291.88"/>
<text text-anchor="middle" x="668.27" y="-1288.06" font-family="Times,serif" font-size="14.00">a</text>
</g>
<!-- http://w3id.org/oseg/ont/okhimg#tags&#45;&gt;http://w3id.org/oseg/ont/okhimg#tagArt -->
<g id="edge48" class="edge">
<title>http://w3id.org/oseg/ont/okhimg#tags&#45;&gt;http://w3id.org/oseg/ont/okhimg#tagArt</title>
<path fill="none" stroke="black" d="M505.86,-1192.58C529.19,-1196.11 556.21,-1200.05 580.77,-1203.26 660.57,-1213.7 751.84,-1223.81 816.3,-1230.64"/>
<polygon fill="black" stroke="black" points="816.09,-1234.14 826.4,-1231.71 816.83,-1227.18 816.09,-1234.14"/>
<text text-anchor="middle" x="668.27" y="-1227.06" font-family="Times,serif" font-size="14.00">schema:hasDefinedTerm</text>
</g>
<!-- http://w3id.org/oseg/ont/okhimg#tagScreenshot -->
<g id="node30" class="node">
<title>http://w3id.org/oseg/ont/okhimg#tagScreenshot</title>
<ellipse fill="none" stroke="#e377c2" cx="901.05" cy="-475.26" rx="125.32" ry="16.03"/>
<text text-anchor="middle" x="901.05" y="-471.56" font-family="Times,serif" font-size="14.00">okhimg:tagScreenshot</text>
</g>
<!-- http://w3id.org/oseg/ont/okhimg#tagScreenshot&#45;&gt;http://schema.org/DefinedTerm -->
<g id="edge30" class="edge">
<title>http://w3id.org/oseg/ont/okhimg#tagScreenshot&#45;&gt;http://schema.org/DefinedTerm</title>
<path fill="none" stroke="black" d="M995.27,-486.03C1006.95,-489.76 1018.3,-494.71 1028.33,-501.26 1106.73,-552.52 1158.81,-656.01 1179.87,-704.32"/>
<polygon fill="black" stroke="black" points="1176.75,-705.92 1183.89,-713.75 1183.19,-703.18 1176.75,-705.92"/>
<text text-anchor="middle" x="1050.83" y="-523.06" font-family="Times,serif" font-size="14.00">a</text>
</g>
<!-- http://w3id.org/oseg/ont/okhimg#slotModelFromRight -->
<g id="node31" class="node">
<title>http://w3id.org/oseg/ont/okhimg#slotModelFromRight</title>
<ellipse fill="none" stroke="#e377c2" cx="901.05" cy="-424.26" rx="116.85" ry="16.03"/>
<text text-anchor="middle" x="901.05" y="-420.56" font-family="Times,serif" font-size="14.00">okhimg:slotModelF...</text>
</g>
<!-- http://w3id.org/oseg/ont/okhimg#slotModelFromRight&#45;&gt;http://schema.org/DefinedTerm -->
<g id="edge33" class="edge">
<title>http://w3id.org/oseg/ont/okhimg#slotModelFromRight&#45;&gt;http://schema.org/DefinedTerm</title>
<path fill="none" stroke="black" d="M994.77,-434.01C1006.73,-437.88 1018.28,-443.14 1028.33,-450.26 1119.15,-514.66 1166.5,-647.21 1183.25,-703.76"/>
<polygon fill="black" stroke="black" points="1179.98,-705.06 1186.11,-713.7 1186.71,-703.13 1179.98,-705.06"/>
<text text-anchor="middle" x="1050.83" y="-475.06" font-family="Times,serif" font-size="14.00">a</text>
</g>
<!-- http://w3id.org/oseg/ont/okhimg#tagPhoto -->
<g id="node32" class="node">
<title>http://w3id.org/oseg/ont/okhimg#tagPhoto</title>
<ellipse fill="none" stroke="#e377c2" cx="901.05" cy="-373.26" rx="97.66" ry="16.03"/>
<text text-anchor="middle" x="901.05" y="-369.56" font-family="Times,serif" font-size="14.00">okhimg:tagPhoto</text>
</g>
<!-- http://w3id.org/oseg/ont/okhimg#tagPhoto&#45;&gt;http://schema.org/DefinedTerm -->
<g id="edge34" class="edge">
<title>http://w3id.org/oseg/ont/okhimg#tagPhoto&#45;&gt;http://schema.org/DefinedTerm</title>
<path fill="none" stroke="black" d="M988.09,-380.66C1002.44,-384.69 1016.48,-390.62 1028.33,-399.26 1133.35,-475.96 1173.78,-639.5 1185.98,-703.66"/>
<polygon fill="black" stroke="black" points="1182.58,-704.55 1187.82,-713.76 1189.47,-703.29 1182.58,-704.55"/>
<text text-anchor="middle" x="1050.83" y="-421.06" font-family="Times,serif" font-size="14.00">a</text>
</g>
<!-- http://w3id.org/oseg/ont/okhimg#slotSocial -->
<g id="node33" class="node">
<title>http://w3id.org/oseg/ont/okhimg#slotSocial</title>
<ellipse fill="none" stroke="#e377c2" cx="901.05" cy="-322.26" rx="101.23" ry="16.03"/>
<text text-anchor="middle" x="901.05" y="-318.56" font-family="Times,serif" font-size="14.00">okhimg:slotSocial</text>
</g>
<!-- http://w3id.org/oseg/ont/okhimg#slotSocial&#45;&gt;http://schema.org/DefinedTerm -->
<g id="edge35" class="edge">
<title>http://w3id.org/oseg/ont/okhimg#slotSocial&#45;&gt;http://schema.org/DefinedTerm</title>
<path fill="none" stroke="black" d="M990.18,-330.06C1003.83,-334.09 1017.1,-339.92 1028.33,-348.26 1147.96,-437.22 1180.09,-631.96 1188.02,-703.34"/>
<polygon fill="black" stroke="black" points="1184.58,-704.12 1189.09,-713.71 1191.54,-703.4 1184.58,-704.12"/>
<text text-anchor="middle" x="1050.83" y="-373.06" font-family="Times,serif" font-size="14.00">a</text>
</g>
<!-- http://w3id.org/oseg/ont/okhimg#slotOrganizationLogo&#45;&gt;http://schema.org/DefinedTerm -->
<g id="edge36" class="edge">
<title>http://w3id.org/oseg/ont/okhimg#slotOrganizationLogo&#45;&gt;http://schema.org/DefinedTerm</title>
<path fill="none" stroke="black" d="M958.56,-1560.14C991.82,-1548.88 1031.84,-1529.66 1055.33,-1498.26 1146.35,-1376.59 1181.61,-877.73 1188.91,-756.77"/>
<polygon fill="black" stroke="black" points="1192.42,-756.76 1189.52,-746.57 1185.43,-756.35 1192.42,-756.76"/>
<text text-anchor="middle" x="1050.83" y="-1512.06" font-family="Times,serif" font-size="14.00">a</text>
</g>
<!-- http://w3id.org/oseg/ont/okhimg#slotOrganizationLogo&#45;&gt;http://w3id.org/oseg/ont/okhimg#slotOrganizationLogoBw -->
<g id="edge1" class="edge">
<title>http://w3id.org/oseg/ont/okhimg#slotOrganizationLogo&#45;&gt;http://w3id.org/oseg/ont/okhimg#slotOrganizationLogoBw</title>
<path fill="none" stroke="black" d="M852.45,-1559.5C785.76,-1541.88 663.41,-1521.11 580.77,-1575.26 564.12,-1586.17 578.13,-1603.62 562.77,-1616.26 557.11,-1620.92 550.79,-1624.79 544.09,-1627.99"/>
<polygon fill="black" stroke="black" points="542.6,-1624.83 534.77,-1631.96 545.34,-1631.27 542.6,-1624.83"/>
<text text-anchor="middle" x="668.27" y="-1579.06" font-family="Times,serif" font-size="14.00">seeAlso</text>
</g>
<!-- http://w3id.org/oseg/ont/okhimg#tagDrawing -->
<g id="node35" class="node">
<title>http://w3id.org/oseg/ont/okhimg#tagDrawing</title>
<ellipse fill="none" stroke="#e377c2" cx="901.05" cy="-271.26" rx="111.95" ry="16.03"/>
<text text-anchor="middle" x="901.05" y="-267.56" font-family="Times,serif" font-size="14.00">okhimg:tagDrawing</text>
</g>
<!-- http://w3id.org/oseg/ont/okhimg#tagDrawing&#45;&gt;http://schema.org/DefinedTerm -->
<g id="edge37" class="edge">
<title>http://w3id.org/oseg/ont/okhimg#tagDrawing&#45;&gt;http://schema.org/DefinedTerm</title>
<path fill="none" stroke="black" d="M994.59,-280.16C1006.71,-284.15 1018.36,-289.66 1028.33,-297.26 1162.48,-399.54 1185.61,-625.71 1189.59,-703.43"/>
<polygon fill="black" stroke="black" points="1186.11,-703.95 1190.05,-713.78 1193.1,-703.64 1186.11,-703.95"/>
<text text-anchor="middle" x="1050.83" y="-316.06" font-family="Times,serif" font-size="14.00">a</text>
</g>
<!-- http://w3id.org/oseg/ont/okhimg#tagColor -->
<g id="node37" class="node">
<title>http://w3id.org/oseg/ont/okhimg#tagColor</title>
<ellipse fill="none" stroke="#e377c2" cx="901.05" cy="-220.26" rx="95.42" ry="16.03"/>
<text text-anchor="middle" x="901.05" y="-216.56" font-family="Times,serif" font-size="14.00">okhimg:tagColor</text>
</g>
<!-- http://w3id.org/oseg/ont/okhimg#tagColor&#45;&gt;http://schema.org/DefinedTerm -->
<g id="edge40" class="edge">
<title>http://w3id.org/oseg/ont/okhimg#tagColor&#45;&gt;http://schema.org/DefinedTerm</title>
<path fill="none" stroke="black" d="M987.03,-227.48C1001.73,-231.5 1016.17,-237.47 1028.33,-246.26 1047.84,-260.38 1045.71,-271.18 1055.33,-293.26 1120.62,-443.24 1168.3,-634.78 1184.43,-703.91"/>
<polygon fill="black" stroke="black" points="1181.09,-704.97 1186.75,-713.93 1187.91,-703.4 1181.09,-704.97"/>
<text text-anchor="middle" x="1050.83" y="-297.06" font-family="Times,serif" font-size="14.00">a</text>
</g>
<!-- http://w3id.org/oseg/ont/okhimg#slotModelFromAbove -->
<g id="node38" class="node">
<title>http://w3id.org/oseg/ont/okhimg#slotModelFromAbove</title>
<ellipse fill="none" stroke="#e377c2" cx="901.05" cy="-169.26" rx="116.85" ry="16.03"/>
<text text-anchor="middle" x="901.05" y="-165.56" font-family="Times,serif" font-size="14.00">okhimg:slotModelF...</text>
</g>
<!-- http://w3id.org/oseg/ont/okhimg#slotModelFromAbove&#45;&gt;http://schema.org/DefinedTerm -->
<g id="edge41" class="edge">
<title>http://w3id.org/oseg/ont/okhimg#slotModelFromAbove&#45;&gt;http://schema.org/DefinedTerm</title>
<path fill="none" stroke="black" d="M996.63,-178.68C1008.03,-182.63 1018.94,-188 1028.33,-195.26 1112.28,-260.26 1171.13,-604.96 1186.46,-703.77"/>
<polygon fill="black" stroke="black" points="1183.02,-704.46 1188,-713.82 1189.94,-703.4 1183.02,-704.46"/>
<text text-anchor="middle" x="1050.83" y="-224.06" font-family="Times,serif" font-size="14.00">a</text>
</g>
<!-- http://w3id.org/oseg/ont/okhimg#slotSymbol -->
<g id="node39" class="node">
<title>http://w3id.org/oseg/ont/okhimg#slotSymbol</title>
<ellipse fill="none" stroke="#e377c2" cx="901.05" cy="-118.26" rx="108.38" ry="16.03"/>
<text text-anchor="middle" x="901.05" y="-114.56" font-family="Times,serif" font-size="14.00">okhimg:slotSymbol</text>
</g>
<!-- http://w3id.org/oseg/ont/okhimg#slotSymbol&#45;&gt;http://schema.org/DefinedTerm -->
<g id="edge45" class="edge">
<title>http://w3id.org/oseg/ont/okhimg#slotSymbol&#45;&gt;http://schema.org/DefinedTerm</title>
<path fill="none" stroke="black" d="M994.14,-126.69C1006.46,-130.72 1018.29,-136.38 1028.33,-144.26 1050.37,-161.58 1045.81,-174.89 1055.33,-201.26 1123.06,-389.04 1170.77,-625.86 1185.56,-703.96"/>
<polygon fill="black" stroke="black" points="1182.15,-704.73 1187.43,-713.91 1189.02,-703.43 1182.15,-704.73"/>
<text text-anchor="middle" x="1050.83" y="-205.06" font-family="Times,serif" font-size="14.00">a</text>
</g>
<!-- http://w3id.org/oseg/ont/okhimg#tagDiagram -->
<g id="node40" class="node">
<title>http://w3id.org/oseg/ont/okhimg#tagDiagram</title>
<ellipse fill="none" stroke="#e377c2" cx="901.05" cy="-67.26" rx="111.95" ry="16.03"/>
<text text-anchor="middle" x="901.05" y="-63.56" font-family="Times,serif" font-size="14.00">okhimg:tagDiagram</text>
</g>
<!-- http://w3id.org/oseg/ont/okhimg#tagDiagram&#45;&gt;http://schema.org/DefinedTerm -->
<g id="edge46" class="edge">
<title>http://w3id.org/oseg/ont/okhimg#tagDiagram&#45;&gt;http://schema.org/DefinedTerm</title>
<path fill="none" stroke="black" d="M995.44,-76.12C1007.29,-80.12 1018.64,-85.66 1028.33,-93.26 1050.37,-110.58 1046.09,-123.8 1055.33,-150.26 1127.67,-357.67 1172.98,-620.3 1186.3,-703.64"/>
<polygon fill="black" stroke="black" points="1182.88,-704.43 1187.9,-713.76 1189.79,-703.33 1182.88,-704.43"/>
<text text-anchor="middle" x="1050.83" y="-154.06" font-family="Times,serif" font-size="14.00">a</text>
</g>
<!-- http://w3id.org/oseg/ont/okhimg#tagGray -->
<g id="node41" class="node">
<title>http://w3id.org/oseg/ont/okhimg#tagGray</title>
<ellipse fill="none" stroke="#e377c2" cx="901.05" cy="-16.26" rx="92.76" ry="16.03"/>
<text text-anchor="middle" x="901.05" y="-12.56" font-family="Times,serif" font-size="14.00">okhimg:tagGray</text>
</g>
<!-- http://w3id.org/oseg/ont/okhimg#tagGray&#45;&gt;http://schema.org/DefinedTerm -->
<g id="edge49" class="edge">
<title>http://w3id.org/oseg/ont/okhimg#tagGray&#45;&gt;http://schema.org/DefinedTerm</title>
<path fill="none" stroke="black" d="M986.96,-22.52C1001.83,-26.62 1016.35,-32.86 1028.33,-42.26 1050.37,-59.58 1046.33,-72.71 1055.33,-99.26 1132.37,-326.69 1175.1,-615.61 1186.96,-703.63"/>
<polygon fill="black" stroke="black" points="1183.53,-704.35 1188.32,-713.8 1190.47,-703.43 1183.53,-704.35"/>
<text text-anchor="middle" x="1050.83" y="-103.06" font-family="Times,serif" font-size="14.00">a</text>
</g>
</g>
</svg>
