<?xml version="1.0" encoding="UTF-8" standalone="no"?>
<!DOCTYPE svg PUBLIC "-//W3C//DTD SVG 1.1//EN"
 "http://www.w3.org/Graphics/SVG/1.1/DTD/svg11.dtd">
<!-- Generated by graphviz version 2.43.0 (0)
 -->
<!-- Title: G Pages: 1 -->
<svg width="2023pt" height="1085pt"
 viewBox="0.00 0.00 2022.94 1084.53" xmlns="http://www.w3.org/2000/svg" xmlns:xlink="http://www.w3.org/1999/xlink">
<g id="graph0" class="graph" transform="scale(1 1) rotate(0) translate(4 1080.53)">
<title>G</title>
<polygon fill="white" stroke="transparent" points="-4,4 -4,-1080.53 2018.94,-1080.53 2018.94,4 -4,4"/>
<!-- http://www.w3.org/2002/07/owl#DatatypeProperty -->
<g id="node1" class="node">
<title>http://www.w3.org/2002/07/owl#DatatypeProperty</title>
<ellipse fill="none" stroke="#1f77b4" cx="1891.9" cy="-734.26" rx="123.07" ry="16.03"/>
<text text-anchor="middle" x="1891.9" y="-730.56" font-family="Times,serif" font-size="14.00">owl:DatatypeProperty</text>
</g>
<!-- http://w3id.org/oseg/ont/otrl#ODRL -->
<g id="node2" class="node">
<title>http://w3id.org/oseg/ont/otrl#ODRL</title>
<ellipse fill="none" stroke="#e377c2" cx="1891.9" cy="-528.26" rx="62.87" ry="16.03"/>
<text text-anchor="middle" x="1891.9" y="-524.56" font-family="Times,serif" font-size="14.00">otrl:ODRL</text>
</g>
<!-- http://w3id.org/oseg/ont/otrl#OTRL -->
<g id="node3" class="node">
<title>http://w3id.org/oseg/ont/otrl#OTRL</title>
<ellipse fill="none" stroke="#e377c2" cx="1891.9" cy="-220.26" rx="60.62" ry="16.03"/>
<text text-anchor="middle" x="1891.9" y="-216.56" font-family="Times,serif" font-size="14.00">otrl:OTRL</text>
</g>
<!-- http://www.w3.org/2002/07/owl#Ontology -->
<g id="node4" class="node">
<title>http://www.w3.org/2002/07/owl#Ontology</title>
<ellipse fill="none" stroke="#1f77b4" cx="792.8" cy="-1060.26" rx="77.56" ry="16.03"/>
<text text-anchor="middle" x="792.8" y="-1056.56" font-family="Times,serif" font-size="14.00">owl:Ontology</text>
</g>
<!-- http://spdx.org/rdf/terms#SpdxItem -->
<g id="node5" class="node">
<title>http://spdx.org/rdf/terms#SpdxItem</title>
<ellipse fill="none" stroke="#1f77b4" cx="792.8" cy="-1009.26" rx="87.86" ry="16.03"/>
<text text-anchor="middle" x="792.8" y="-1005.56" font-family="Times,serif" font-size="14.00">spdx:SpdxItem</text>
</g>
<!-- http://w3id.org/oseg/ont/otrl#ODRL2 -->
<g id="node6" class="node">
<title>http://w3id.org/oseg/ont/otrl#ODRL2</title>
<ellipse fill="none" stroke="#e377c2" cx="1387.61" cy="-628.26" rx="69.09" ry="16.03"/>
<text text-anchor="middle" x="1387.61" y="-624.56" font-family="Times,serif" font-size="14.00">otrl:ODRL2</text>
</g>
<!-- http://w3id.org/oseg/ont/otrl#ODRL2&#45;&gt;http://w3id.org/oseg/ont/otrl#ODRL -->
<g id="edge1" class="edge">
<title>http://w3id.org/oseg/ont/otrl#ODRL2&#45;&gt;http://w3id.org/oseg/ont/otrl#ODRL</title>
<path fill="none" stroke="black" d="M1456.93,-628.02C1492.86,-625.61 1536.81,-618.95 1572.87,-602.26 1582.58,-597.77 1581.16,-590.77 1590.87,-586.26 1656.03,-556.01 1680.37,-577.1 1750.87,-563.26 1780.09,-557.53 1812.35,-549.58 1838.54,-542.7"/>
<polygon fill="black" stroke="black" points="1839.49,-546.07 1848.26,-540.13 1837.69,-539.3 1839.49,-546.07"/>
<text text-anchor="middle" x="1670.87" y="-590.06" font-family="Times,serif" font-size="14.00">a</text>
</g>
<!-- http://w3id.org/oseg/ont/otrl -->
<g id="node7" class="node">
<title>http://w3id.org/oseg/ont/otrl</title>
<ellipse fill="none" stroke="#e377c2" cx="191.63" cy="-863.26" rx="50.82" ry="16.03"/>
<text text-anchor="middle" x="191.63" y="-859.56" font-family="Times,serif" font-size="14.00">ns1:otrl</text>
</g>
<!-- http://w3id.org/oseg/ont/otrl&#45;&gt;http://www.w3.org/2002/07/owl#Ontology -->
<g id="edge2" class="edge">
<title>http://w3id.org/oseg/ont/otrl&#45;&gt;http://www.w3.org/2002/07/owl#Ontology</title>
<path fill="none" stroke="black" d="M209.55,-878.52C243.3,-908.03 322.51,-972.75 401.25,-1004.26 500.35,-1043.92 623.52,-1056.05 704.73,-1059.47"/>
<polygon fill="black" stroke="black" points="704.79,-1062.97 714.92,-1059.86 705.06,-1055.98 704.79,-1062.97"/>
<text text-anchor="middle" x="481.25" y="-1048.06" font-family="Times,serif" font-size="14.00">a</text>
</g>
<!-- http://w3id.org/oseg/ont/otrl&#45;&gt;http://spdx.org/rdf/terms#SpdxItem -->
<g id="edge34" class="edge">
<title>http://w3id.org/oseg/ont/otrl&#45;&gt;http://spdx.org/rdf/terms#SpdxItem</title>
<path fill="none" stroke="black" d="M219.59,-876.92C258.67,-896.2 333.8,-931.24 401.25,-951.26 500.98,-980.86 619.71,-995.75 699.88,-1002.97"/>
<polygon fill="black" stroke="black" points="699.68,-1006.46 709.94,-1003.85 700.29,-999.49 699.68,-1006.46"/>
<text text-anchor="middle" x="481.25" y="-989.06" font-family="Times,serif" font-size="14.00">a</text>
</g>
<!-- http://id.loc.gov/vocabulary/iso639&#45;1/en -->
<g id="node8" class="node">
<title>http://id.loc.gov/vocabulary/iso639&#45;1/en</title>
<ellipse fill="none" stroke="#e377c2" cx="792.8" cy="-958.26" rx="45.01" ry="16.03"/>
<text text-anchor="middle" x="792.8" y="-954.56" font-family="Times,serif" font-size="14.00">ns2:en</text>
</g>
<!-- http://w3id.org/oseg/ont/otrl&#45;&gt;http://id.loc.gov/vocabulary/iso639&#45;1/en -->
<g id="edge3" class="edge">
<title>http://w3id.org/oseg/ont/otrl&#45;&gt;http://id.loc.gov/vocabulary/iso639&#45;1/en</title>
<path fill="none" stroke="black" d="M232,-873.35C273.77,-883.77 341.81,-899.92 401.25,-910.26 521.13,-931.12 663.26,-946.19 738.64,-953.43"/>
<polygon fill="black" stroke="black" points="738.54,-956.94 748.83,-954.4 739.2,-949.97 738.54,-956.94"/>
<text text-anchor="middle" x="481.25" y="-936.06" font-family="Times,serif" font-size="14.00">dcterms:language</text>
</g>
<!-- http://w3id.org/oseg/ont/oseg&#45;profiles#Iopa -->
<g id="node15" class="node">
<title>http://w3id.org/oseg/ont/oseg&#45;profiles#Iopa</title>
<ellipse fill="none" stroke="#e377c2" cx="792.8" cy="-907.26" rx="80.72" ry="16.03"/>
<text text-anchor="middle" x="792.8" y="-903.56" font-family="Times,serif" font-size="14.00">osegprof:Iopa</text>
</g>
<!-- http://w3id.org/oseg/ont/otrl&#45;&gt;http://w3id.org/oseg/ont/oseg&#45;profiles#Iopa -->
<g id="edge13" class="edge">
<title>http://w3id.org/oseg/ont/otrl&#45;&gt;http://w3id.org/oseg/ont/oseg&#45;profiles#Iopa</title>
<path fill="none" stroke="black" d="M240.66,-867.68C282.94,-871.5 346.15,-877.05 401.25,-881.26 505.65,-889.24 625.86,-897.03 705.02,-901.98"/>
<polygon fill="black" stroke="black" points="705.24,-905.5 715.43,-902.62 705.67,-898.51 705.24,-905.5"/>
<text text-anchor="middle" x="481.25" y="-895.06" font-family="Times,serif" font-size="14.00">dcterms:publisher</text>
</g>
<!-- http://w3id.org/oseg/ont/oseg&#45;profiles#robinVobruba -->
<g id="node21" class="node">
<title>http://w3id.org/oseg/ont/oseg&#45;profiles#robinVobruba</title>
<ellipse fill="none" stroke="#e377c2" cx="792.8" cy="-850.26" rx="113.69" ry="16.03"/>
<text text-anchor="middle" x="792.8" y="-846.56" font-family="Times,serif" font-size="14.00">osegprof:robinVob...</text>
</g>
<!-- http://w3id.org/oseg/ont/otrl&#45;&gt;http://w3id.org/oseg/ont/oseg&#45;profiles#robinVobruba -->
<g id="edge20" class="edge">
<title>http://w3id.org/oseg/ont/otrl&#45;&gt;http://w3id.org/oseg/ont/oseg&#45;profiles#robinVobruba</title>
<path fill="none" stroke="black" d="M242.72,-863.41C313.64,-863.5 447.37,-863.2 561.25,-860.26 598.32,-859.31 638.71,-857.74 675.19,-856.12"/>
<polygon fill="black" stroke="black" points="675.54,-859.61 685.37,-855.66 675.22,-852.62 675.54,-859.61"/>
<text text-anchor="middle" x="481.25" y="-866.06" font-family="Times,serif" font-size="14.00">schema:creator</text>
</g>
<!-- http://w3id.org/oseg/ont/otrl&#45;&gt;http://w3id.org/oseg/ont/oseg&#45;profiles#robinVobruba -->
<g id="edge28" class="edge">
<title>http://w3id.org/oseg/ont/otrl&#45;&gt;http://w3id.org/oseg/ont/oseg&#45;profiles#robinVobruba</title>
<path fill="none" stroke="black" d="M238.92,-856.97C281.12,-851.57 345.24,-844.21 401.25,-841.26 494.43,-836.36 600.25,-839.33 678.21,-843.12"/>
<polygon fill="black" stroke="black" points="678.38,-846.63 688.54,-843.64 678.73,-839.64 678.38,-846.63"/>
<text text-anchor="middle" x="481.25" y="-845.06" font-family="Times,serif" font-size="14.00">dcterms:creator</text>
</g>
<!-- http://w3id.org/oseg/ont/oseg&#45;profiles#martinHaeuer -->
<g id="node22" class="node">
<title>http://w3id.org/oseg/ont/oseg&#45;profiles#martinHaeuer</title>
<ellipse fill="none" stroke="#e377c2" cx="792.8" cy="-787.26" rx="116.85" ry="16.03"/>
<text text-anchor="middle" x="792.8" y="-783.56" font-family="Times,serif" font-size="14.00">osegprof:martinHa...</text>
</g>
<!-- http://w3id.org/oseg/ont/otrl&#45;&gt;http://w3id.org/oseg/ont/oseg&#45;profiles#martinHaeuer -->
<g id="edge22" class="edge">
<title>http://w3id.org/oseg/ont/otrl&#45;&gt;http://w3id.org/oseg/ont/oseg&#45;profiles#martinHaeuer</title>
<path fill="none" stroke="black" d="M232.35,-853.32C274.13,-843.24 341.91,-827.92 401.25,-819.26 491.61,-806.09 594.58,-797.93 672.09,-793.15"/>
<polygon fill="black" stroke="black" points="672.61,-796.63 682.38,-792.53 672.18,-789.64 672.61,-796.63"/>
<text text-anchor="middle" x="481.25" y="-823.06" font-family="Times,serif" font-size="14.00">schema:creator</text>
</g>
<!-- http://w3id.org/oseg/ont/otrl&#45;&gt;http://w3id.org/oseg/ont/oseg&#45;profiles#martinHaeuer -->
<g id="edge32" class="edge">
<title>http://w3id.org/oseg/ont/otrl&#45;&gt;http://w3id.org/oseg/ont/oseg&#45;profiles#martinHaeuer</title>
<path fill="none" stroke="black" d="M219.02,-849.33C257.71,-829.76 332.7,-795.1 401.25,-782.26 500.16,-763.74 615.64,-768.37 695.24,-775.54"/>
<polygon fill="black" stroke="black" points="694.97,-779.03 705.25,-776.47 695.62,-772.06 694.97,-779.03"/>
<text text-anchor="middle" x="481.25" y="-786.06" font-family="Times,serif" font-size="14.00">dcterms:creator</text>
</g>
<!-- http://spdx.org/licenses/GPL&#45;3.0&#45;or&#45;later -->
<g id="node24" class="node">
<title>http://spdx.org/licenses/GPL&#45;3.0&#45;or&#45;later</title>
<ellipse fill="none" stroke="#e377c2" cx="792.8" cy="-730.26" rx="108.79" ry="16.03"/>
<text text-anchor="middle" x="792.8" y="-726.56" font-family="Times,serif" font-size="14.00">spdxl:GPL&#45;3.0&#45;or&#45;...</text>
</g>
<!-- http://w3id.org/oseg/ont/otrl&#45;&gt;http://spdx.org/licenses/GPL&#45;3.0&#45;or&#45;later -->
<g id="edge26" class="edge">
<title>http://w3id.org/oseg/ont/otrl&#45;&gt;http://spdx.org/licenses/GPL&#45;3.0&#45;or&#45;later</title>
<path fill="none" stroke="black" d="M212.59,-848.27C248.23,-822.46 326.16,-770.4 401.25,-749.26 494.47,-723.03 605.06,-720.13 684.72,-722.71"/>
<polygon fill="black" stroke="black" points="684.65,-726.21 694.77,-723.07 684.9,-719.21 684.65,-726.21"/>
<text text-anchor="middle" x="481.25" y="-753.06" font-family="Times,serif" font-size="14.00">spdx:licenseDeclared</text>
</g>
<!-- http://w3id.org/oseg/ont/1.1.0/otrl -->
<g id="node26" class="node">
<title>http://w3id.org/oseg/ont/1.1.0/otrl</title>
<ellipse fill="none" stroke="#e377c2" cx="792.8" cy="-679.26" rx="50.82" ry="16.03"/>
<text text-anchor="middle" x="792.8" y="-675.56" font-family="Times,serif" font-size="14.00">ns3:otrl</text>
</g>
<!-- http://w3id.org/oseg/ont/otrl&#45;&gt;http://w3id.org/oseg/ont/1.1.0/otrl -->
<g id="edge30" class="edge">
<title>http://w3id.org/oseg/ont/otrl&#45;&gt;http://w3id.org/oseg/ont/1.1.0/otrl</title>
<path fill="none" stroke="black" d="M206.69,-847.71C237.86,-814.43 316.76,-736.81 401.25,-705.26 513.51,-663.35 656.41,-666.84 734.49,-673.07"/>
<polygon fill="black" stroke="black" points="734.34,-676.57 744.6,-673.93 734.93,-669.6 734.34,-676.57"/>
<text text-anchor="middle" x="481.25" y="-709.06" font-family="Times,serif" font-size="14.00">owl:versionIRI</text>
</g>
<!-- http://w3id.org/oseg/ont/otrl#OTRL4 -->
<g id="node9" class="node">
<title>http://w3id.org/oseg/ont/otrl#OTRL4</title>
<ellipse fill="none" stroke="#e377c2" cx="1387.61" cy="-118.26" rx="67.35" ry="16.03"/>
<text text-anchor="middle" x="1387.61" y="-114.56" font-family="Times,serif" font-size="14.00">otrl:OTRL4</text>
</g>
<!-- http://w3id.org/oseg/ont/otrl#OTRL4&#45;&gt;http://w3id.org/oseg/ont/otrl#OTRL -->
<g id="edge5" class="edge">
<title>http://w3id.org/oseg/ont/otrl#OTRL4&#45;&gt;http://w3id.org/oseg/ont/otrl#OTRL</title>
<path fill="none" stroke="black" d="M1452.59,-122.5C1525.64,-128.35 1648.28,-141.27 1750.87,-167.26 1785.47,-176.03 1823.24,-190.64 1850.83,-202.3"/>
<polygon fill="black" stroke="black" points="1849.57,-205.57 1860.14,-206.29 1852.32,-199.14 1849.57,-205.57"/>
<text text-anchor="middle" x="1670.87" y="-171.06" font-family="Times,serif" font-size="14.00">a</text>
</g>
<!-- http://w3id.org/oseg/ont/otrl#ODRL3Star -->
<g id="node10" class="node">
<title>http://w3id.org/oseg/ont/otrl#ODRL3Star</title>
<ellipse fill="none" stroke="#e377c2" cx="1387.61" cy="-475.26" rx="90.52" ry="16.03"/>
<text text-anchor="middle" x="1387.61" y="-471.56" font-family="Times,serif" font-size="14.00">otrl:ODRL3Star</text>
</g>
<!-- http://w3id.org/oseg/ont/otrl#ODRL3Star&#45;&gt;http://w3id.org/oseg/ont/otrl#ODRL -->
<g id="edge36" class="edge">
<title>http://w3id.org/oseg/ont/otrl#ODRL3Star&#45;&gt;http://w3id.org/oseg/ont/otrl#ODRL</title>
<path fill="none" stroke="black" d="M1477.37,-472.96C1551.06,-472.42 1658.37,-474.8 1750.87,-489.26 1782.51,-494.21 1817.2,-503.84 1844.13,-512.29"/>
<polygon fill="black" stroke="black" points="1843.1,-515.63 1853.69,-515.34 1845.22,-508.96 1843.1,-515.63"/>
<text text-anchor="middle" x="1670.87" y="-493.06" font-family="Times,serif" font-size="14.00">a</text>
</g>
<!-- http://w3id.org/oseg/ont/otrl#OTRL1 -->
<g id="node11" class="node">
<title>http://w3id.org/oseg/ont/otrl#OTRL1</title>
<ellipse fill="none" stroke="#e377c2" cx="1387.61" cy="-67.26" rx="67.35" ry="16.03"/>
<text text-anchor="middle" x="1387.61" y="-63.56" font-family="Times,serif" font-size="14.00">otrl:OTRL1</text>
</g>
<!-- http://w3id.org/oseg/ont/otrl#OTRL1&#45;&gt;http://w3id.org/oseg/ont/otrl#OTRL -->
<g id="edge33" class="edge">
<title>http://w3id.org/oseg/ont/otrl#OTRL1&#45;&gt;http://w3id.org/oseg/ont/otrl#OTRL</title>
<path fill="none" stroke="black" d="M1454.86,-67.33C1529.44,-69.52 1652.97,-79.6 1750.87,-119.26 1796.44,-137.73 1841.1,-174 1867.31,-197.67"/>
<polygon fill="black" stroke="black" points="1865.11,-200.39 1874.84,-204.58 1869.84,-195.24 1865.11,-200.39"/>
<text text-anchor="middle" x="1670.87" y="-123.06" font-family="Times,serif" font-size="14.00">a</text>
</g>
<!-- http://w3id.org/oseg/ont/otrl#OTRL6 -->
<g id="node12" class="node">
<title>http://w3id.org/oseg/ont/otrl#OTRL6</title>
<ellipse fill="none" stroke="#e377c2" cx="1387.61" cy="-16.26" rx="67.35" ry="16.03"/>
<text text-anchor="middle" x="1387.61" y="-12.56" font-family="Times,serif" font-size="14.00">otrl:OTRL6</text>
</g>
<!-- http://w3id.org/oseg/ont/otrl#OTRL6&#45;&gt;http://w3id.org/oseg/ont/otrl#OTRL -->
<g id="edge27" class="edge">
<title>http://w3id.org/oseg/ont/otrl#OTRL6&#45;&gt;http://w3id.org/oseg/ont/otrl#OTRL</title>
<path fill="none" stroke="black" d="M1451.54,-11.04C1527.12,-7.6 1655.61,-10.92 1750.87,-61.26 1809.53,-92.26 1855.05,-158.52 1876.82,-194.95"/>
<polygon fill="black" stroke="black" points="1874.02,-197.09 1882.08,-203.96 1880.06,-193.56 1874.02,-197.09"/>
<text text-anchor="middle" x="1670.87" y="-65.06" font-family="Times,serif" font-size="14.00">a</text>
</g>
<!-- http://w3id.org/oseg/ont/otrl#goal -->
<g id="node13" class="node">
<title>http://w3id.org/oseg/ont/otrl#goal</title>
<ellipse fill="none" stroke="#e377c2" cx="1387.61" cy="-691.26" rx="54.39" ry="16.03"/>
<text text-anchor="middle" x="1387.61" y="-687.56" font-family="Times,serif" font-size="14.00">otrl:goal</text>
</g>
<!-- http://w3id.org/oseg/ont/otrl#goal&#45;&gt;http://www.w3.org/2002/07/owl#DatatypeProperty -->
<g id="edge9" class="edge">
<title>http://w3id.org/oseg/ont/otrl#goal&#45;&gt;http://www.w3.org/2002/07/owl#DatatypeProperty</title>
<path fill="none" stroke="black" d="M1441.68,-689.06C1512.51,-686.92 1641.72,-685.83 1750.87,-700.26 1777.57,-703.8 1806.58,-710.37 1831.24,-716.8"/>
<polygon fill="black" stroke="black" points="1830.6,-720.26 1841.16,-719.45 1832.4,-713.49 1830.6,-720.26"/>
<text text-anchor="middle" x="1670.87" y="-704.06" font-family="Times,serif" font-size="14.00">a</text>
</g>
<!-- http://w3id.org/oseg/ont/otrl#goal&#45;&gt;http://w3id.org/oseg/ont/otrl#ODRL -->
<g id="edge12" class="edge">
<title>http://w3id.org/oseg/ont/otrl#goal&#45;&gt;http://w3id.org/oseg/ont/otrl#ODRL</title>
<path fill="none" stroke="black" d="M1438.87,-685.53C1531.6,-674.72 1722.75,-651.37 1750.87,-639.26 1798.59,-618.73 1843.8,-577.56 1869.37,-551.54"/>
<polygon fill="black" stroke="black" points="1871.92,-553.94 1876.35,-544.31 1866.88,-549.07 1871.92,-553.94"/>
<text text-anchor="middle" x="1670.87" y="-670.06" font-family="Times,serif" font-size="14.00">dcam:domainIncludes</text>
</g>
<!-- http://w3id.org/oseg/ont/otrl#goal&#45;&gt;http://w3id.org/oseg/ont/otrl#OTRL -->
<g id="edge38" class="edge">
<title>http://w3id.org/oseg/ont/otrl#goal&#45;&gt;http://w3id.org/oseg/ont/otrl#OTRL</title>
<path fill="none" stroke="black" d="M1442.26,-691.86C1481.86,-689.72 1535.2,-681.16 1572.87,-653.26 1586.29,-643.32 1577.03,-629.63 1590.87,-620.26 1650.18,-580.14 1698.65,-650.27 1750.87,-601.26 1783.16,-570.96 1756.02,-545.64 1768.87,-503.26 1798.79,-404.58 1852.82,-294.09 1877.71,-245.5"/>
<polygon fill="black" stroke="black" points="1880.95,-246.85 1882.42,-236.36 1874.72,-243.65 1880.95,-246.85"/>
<text text-anchor="middle" x="1670.87" y="-624.06" font-family="Times,serif" font-size="14.00">dcam:domainIncludes</text>
</g>
<!-- http://www.w3.org/1999/02/22&#45;rdf&#45;syntax&#45;ns#langString -->
<g id="node19" class="node">
<title>http://www.w3.org/1999/02/22&#45;rdf&#45;syntax&#45;ns#langString</title>
<ellipse fill="none" stroke="#e377c2" cx="1891.9" cy="-854.26" rx="83.38" ry="16.03"/>
<text text-anchor="middle" x="1891.9" y="-850.56" font-family="Times,serif" font-size="14.00">rdf:langString</text>
</g>
<!-- http://w3id.org/oseg/ont/otrl#goal&#45;&gt;http://www.w3.org/1999/02/22&#45;rdf&#45;syntax&#45;ns#langString -->
<g id="edge23" class="edge">
<title>http://w3id.org/oseg/ont/otrl#goal&#45;&gt;http://www.w3.org/1999/02/22&#45;rdf&#45;syntax&#45;ns#langString</title>
<path fill="none" stroke="black" d="M1438.6,-697.28C1536.38,-709.11 1744.05,-734.58 1750.87,-738.26 1761.68,-744.11 1759.97,-750.78 1768.87,-759.26 1797.67,-786.74 1834.04,-814.25 1859.55,-832.54"/>
<polygon fill="black" stroke="black" points="1857.58,-835.44 1867.76,-838.38 1861.64,-829.73 1857.58,-835.44"/>
<text text-anchor="middle" x="1670.87" y="-742.06" font-family="Times,serif" font-size="14.00">range</text>
</g>
<!-- http://w3id.org/oseg/ont/otrl#Odrl4 -->
<g id="node14" class="node">
<title>http://w3id.org/oseg/ont/otrl#Odrl4</title>
<ellipse fill="none" stroke="#e377c2" cx="792.8" cy="-526.26" rx="61.54" ry="16.03"/>
<text text-anchor="middle" x="792.8" y="-522.56" font-family="Times,serif" font-size="14.00">otrl:Odrl4</text>
</g>
<!-- http://w3id.org/oseg/ont/otrl#ODRL4 -->
<g id="node23" class="node">
<title>http://w3id.org/oseg/ont/otrl#ODRL4</title>
<ellipse fill="none" stroke="#e377c2" cx="1387.61" cy="-526.26" rx="69.09" ry="16.03"/>
<text text-anchor="middle" x="1387.61" y="-522.56" font-family="Times,serif" font-size="14.00">otrl:ODRL4</text>
</g>
<!-- http://w3id.org/oseg/ont/otrl#Odrl4&#45;&gt;http://w3id.org/oseg/ont/otrl#ODRL4 -->
<g id="edge42" class="edge">
<title>http://w3id.org/oseg/ont/otrl#Odrl4&#45;&gt;http://w3id.org/oseg/ont/otrl#ODRL4</title>
<path fill="none" stroke="black" d="M854.45,-526.26C962.41,-526.26 1187.78,-526.26 1307.66,-526.26"/>
<polygon fill="black" stroke="black" points="1307.86,-529.76 1317.86,-526.26 1307.86,-522.76 1307.86,-529.76"/>
<text text-anchor="middle" x="1104.34" y="-530.06" font-family="Times,serif" font-size="14.00">schema:supersededBy</text>
</g>
<!-- http://w3id.org/oseg/ont/otrl#OTRL2 -->
<g id="node16" class="node">
<title>http://w3id.org/oseg/ont/otrl#OTRL2</title>
<ellipse fill="none" stroke="#e377c2" cx="1387.61" cy="-322.26" rx="67.35" ry="16.03"/>
<text text-anchor="middle" x="1387.61" y="-318.56" font-family="Times,serif" font-size="14.00">otrl:OTRL2</text>
</g>
<!-- http://w3id.org/oseg/ont/otrl#OTRL2&#45;&gt;http://w3id.org/oseg/ont/otrl#OTRL -->
<g id="edge14" class="edge">
<title>http://w3id.org/oseg/ont/otrl#OTRL2&#45;&gt;http://w3id.org/oseg/ont/otrl#OTRL</title>
<path fill="none" stroke="black" d="M1452.95,-318.34C1526.06,-312.83 1648.52,-300.39 1750.87,-274.26 1785.76,-265.36 1823.79,-250.33 1851.41,-238.38"/>
<polygon fill="black" stroke="black" points="1852.96,-241.52 1860.72,-234.3 1850.15,-235.11 1852.96,-241.52"/>
<text text-anchor="middle" x="1670.87" y="-308.06" font-family="Times,serif" font-size="14.00">a</text>
</g>
<!-- http://w3id.org/oseg/ont/otrl#exitCriteria -->
<g id="node17" class="node">
<title>http://w3id.org/oseg/ont/otrl#exitCriteria</title>
<ellipse fill="none" stroke="#e377c2" cx="1387.61" cy="-832.26" rx="91.43" ry="16.03"/>
<text text-anchor="middle" x="1387.61" y="-828.56" font-family="Times,serif" font-size="14.00">otrl:exitCriteria</text>
</g>
<!-- http://w3id.org/oseg/ont/otrl#exitCriteria&#45;&gt;http://www.w3.org/2002/07/owl#DatatypeProperty -->
<g id="edge16" class="edge">
<title>http://w3id.org/oseg/ont/otrl#exitCriteria&#45;&gt;http://www.w3.org/2002/07/owl#DatatypeProperty</title>
<path fill="none" stroke="black" d="M1474.61,-837.25C1565.16,-841.49 1701.33,-844.71 1750.87,-829.26 1796.37,-815.08 1840.43,-780.73 1866.61,-757.46"/>
<polygon fill="black" stroke="black" points="1869.09,-759.94 1874.14,-750.63 1864.39,-754.75 1869.09,-759.94"/>
<text text-anchor="middle" x="1670.87" y="-844.06" font-family="Times,serif" font-size="14.00">a</text>
</g>
<!-- http://w3id.org/oseg/ont/otrl#exitCriteria&#45;&gt;http://w3id.org/oseg/ont/otrl#ODRL -->
<g id="edge4" class="edge">
<title>http://w3id.org/oseg/ont/otrl#exitCriteria&#45;&gt;http://w3id.org/oseg/ont/otrl#ODRL</title>
<path fill="none" stroke="black" d="M1465.97,-823.79C1571.98,-812.13 1749.55,-792.45 1750.87,-791.26 1778.58,-766.28 1754.18,-743.56 1768.87,-709.26 1795.14,-647.92 1843.01,-585.34 1870.33,-552.24"/>
<polygon fill="black" stroke="black" points="1873.09,-554.39 1876.81,-544.47 1867.71,-549.91 1873.09,-554.39"/>
<text text-anchor="middle" x="1670.87" y="-812.06" font-family="Times,serif" font-size="14.00">dcam:domainIncludes</text>
</g>
<!-- http://w3id.org/oseg/ont/otrl#exitCriteria&#45;&gt;http://w3id.org/oseg/ont/otrl#OTRL -->
<g id="edge31" class="edge">
<title>http://w3id.org/oseg/ont/otrl#exitCriteria&#45;&gt;http://w3id.org/oseg/ont/otrl#OTRL</title>
<path fill="none" stroke="black" d="M1429.92,-817.75C1470.43,-804.06 1534.19,-783.95 1590.87,-772.26 1625.94,-765.03 1726.14,-779.16 1750.87,-753.26 1770.1,-733.12 1762.26,-530.32 1768.87,-503.26 1793.32,-403.12 1850.09,-293.43 1876.68,-245.28"/>
<polygon fill="black" stroke="black" points="1879.77,-246.93 1881.58,-236.49 1873.65,-243.52 1879.77,-246.93"/>
<text text-anchor="middle" x="1670.87" y="-776.06" font-family="Times,serif" font-size="14.00">dcam:domainIncludes</text>
</g>
<!-- http://w3id.org/oseg/ont/otrl#exitCriteria&#45;&gt;http://www.w3.org/1999/02/22&#45;rdf&#45;syntax&#45;ns#langString -->
<g id="edge17" class="edge">
<title>http://w3id.org/oseg/ont/otrl#exitCriteria&#45;&gt;http://www.w3.org/1999/02/22&#45;rdf&#45;syntax&#45;ns#langString</title>
<path fill="none" stroke="black" d="M1445.81,-844.86C1486.13,-853.07 1541.51,-863.02 1590.87,-867.26 1661.72,-873.35 1679.83,-870.55 1750.87,-867.26 1769.68,-866.39 1789.87,-864.87 1808.9,-863.16"/>
<polygon fill="black" stroke="black" points="1809.4,-866.63 1819.03,-862.22 1808.75,-859.66 1809.4,-866.63"/>
<text text-anchor="middle" x="1670.87" y="-874.06" font-family="Times,serif" font-size="14.00">range</text>
</g>
<!-- http://w3id.org/oseg/ont/otrl#ODRL1 -->
<g id="node18" class="node">
<title>http://w3id.org/oseg/ont/otrl#ODRL1</title>
<ellipse fill="none" stroke="#e377c2" cx="1387.61" cy="-577.26" rx="69.09" ry="16.03"/>
<text text-anchor="middle" x="1387.61" y="-573.56" font-family="Times,serif" font-size="14.00">otrl:ODRL1</text>
</g>
<!-- http://w3id.org/oseg/ont/otrl#ODRL1&#45;&gt;http://w3id.org/oseg/ont/otrl#ODRL -->
<g id="edge21" class="edge">
<title>http://w3id.org/oseg/ont/otrl#ODRL1&#45;&gt;http://w3id.org/oseg/ont/otrl#ODRL</title>
<path fill="none" stroke="black" d="M1447.99,-569.27C1484.13,-564.31 1531.2,-557.67 1572.87,-551.26 1580.88,-550.03 1582.81,-549.2 1590.87,-548.26 1668.69,-539.21 1758.37,-533.9 1819.27,-531.05"/>
<polygon fill="black" stroke="black" points="1819.72,-534.53 1829.55,-530.58 1819.4,-527.54 1819.72,-534.53"/>
<text text-anchor="middle" x="1670.87" y="-552.06" font-family="Times,serif" font-size="14.00">a</text>
</g>
<!-- http://w3id.org/oseg/ont/otrl#OTRL5 -->
<g id="node20" class="node">
<title>http://w3id.org/oseg/ont/otrl#OTRL5</title>
<ellipse fill="none" stroke="#e377c2" cx="1387.61" cy="-271.26" rx="67.35" ry="16.03"/>
<text text-anchor="middle" x="1387.61" y="-267.56" font-family="Times,serif" font-size="14.00">otrl:OTRL5</text>
</g>
<!-- http://w3id.org/oseg/ont/otrl#OTRL5&#45;&gt;http://w3id.org/oseg/ont/otrl#OTRL -->
<g id="edge18" class="edge">
<title>http://w3id.org/oseg/ont/otrl#OTRL5&#45;&gt;http://w3id.org/oseg/ont/otrl#OTRL</title>
<path fill="none" stroke="black" d="M1452.17,-266.55C1524.58,-260.98 1646.4,-250.96 1750.87,-239.26 1776.15,-236.43 1803.92,-232.78 1828.03,-229.43"/>
<polygon fill="black" stroke="black" points="1828.69,-232.87 1838.11,-228.02 1827.72,-225.94 1828.69,-232.87"/>
<text text-anchor="middle" x="1670.87" y="-259.06" font-family="Times,serif" font-size="14.00">a</text>
</g>
<!-- http://w3id.org/oseg/ont/otrl#ODRL4&#45;&gt;http://w3id.org/oseg/ont/otrl#ODRL -->
<g id="edge24" class="edge">
<title>http://w3id.org/oseg/ont/otrl#ODRL4&#45;&gt;http://w3id.org/oseg/ont/otrl#ODRL</title>
<path fill="none" stroke="black" d="M1450.83,-519.43C1523.02,-512.46 1645.64,-503.53 1750.87,-510.26 1776.13,-511.88 1803.79,-515.12 1827.81,-518.41"/>
<polygon fill="black" stroke="black" points="1827.47,-521.9 1837.86,-519.82 1828.44,-514.97 1827.47,-521.9"/>
<text text-anchor="middle" x="1670.87" y="-514.06" font-family="Times,serif" font-size="14.00">a</text>
</g>
<!-- http://w3id.org/oseg/ont/otrl#OTRL3 -->
<g id="node25" class="node">
<title>http://w3id.org/oseg/ont/otrl#OTRL3</title>
<ellipse fill="none" stroke="#e377c2" cx="1387.61" cy="-220.26" rx="67.35" ry="16.03"/>
<text text-anchor="middle" x="1387.61" y="-216.56" font-family="Times,serif" font-size="14.00">otrl:OTRL3</text>
</g>
<!-- http://w3id.org/oseg/ont/otrl#OTRL3&#45;&gt;http://w3id.org/oseg/ont/otrl#OTRL -->
<g id="edge29" class="edge">
<title>http://w3id.org/oseg/ont/otrl#OTRL3&#45;&gt;http://w3id.org/oseg/ont/otrl#OTRL</title>
<path fill="none" stroke="black" d="M1454.79,-220.26C1549.73,-220.26 1723.8,-220.26 1820.85,-220.26"/>
<polygon fill="black" stroke="black" points="1820.85,-223.76 1830.85,-220.26 1820.85,-216.76 1820.85,-223.76"/>
<text text-anchor="middle" x="1670.87" y="-224.06" font-family="Times,serif" font-size="14.00">a</text>
</g>
<!-- http://w3id.org/oseg/ont/otrl#ODRL3 -->
<g id="node27" class="node">
<title>http://w3id.org/oseg/ont/otrl#ODRL3</title>
<ellipse fill="none" stroke="#e377c2" cx="1387.61" cy="-424.26" rx="69.09" ry="16.03"/>
<text text-anchor="middle" x="1387.61" y="-420.56" font-family="Times,serif" font-size="14.00">otrl:ODRL3</text>
</g>
<!-- http://w3id.org/oseg/ont/otrl#ODRL3&#45;&gt;http://w3id.org/oseg/ont/otrl#ODRL -->
<g id="edge43" class="edge">
<title>http://w3id.org/oseg/ont/otrl#ODRL3&#45;&gt;http://w3id.org/oseg/ont/otrl#ODRL</title>
<path fill="none" stroke="black" d="M1456.8,-422.55C1530.7,-422.46 1651.4,-427.5 1750.87,-456.26 1790.51,-467.73 1832.08,-490.7 1859.53,-507.63"/>
<polygon fill="black" stroke="black" points="1857.95,-510.76 1868.28,-513.11 1861.67,-504.83 1857.95,-510.76"/>
<text text-anchor="middle" x="1670.87" y="-460.06" font-family="Times,serif" font-size="14.00">a</text>
</g>
<!-- http://w3id.org/oseg/ont/otrl#Odrl3Star -->
<g id="node28" class="node">
<title>http://w3id.org/oseg/ont/otrl#Odrl3Star</title>
<ellipse fill="none" stroke="black" cx="792.8" cy="-475.26" rx="213.59" ry="16.03"/>
<text text-anchor="middle" x="792.8" y="-471.56" font-family="Times,serif" font-size="14.00">http://w3id.org/oseg/ont/otrl#Odrl3Star</text>
</g>
<!-- http://w3id.org/oseg/ont/otrl#Odrl3Star&#45;&gt;http://w3id.org/oseg/ont/otrl#ODRL3Star -->
<g id="edge6" class="edge">
<title>http://w3id.org/oseg/ont/otrl#Odrl3Star&#45;&gt;http://w3id.org/oseg/ont/otrl#ODRL3Star</title>
<path fill="none" stroke="black" d="M1006.56,-475.26C1102.06,-475.26 1210.18,-475.26 1286.62,-475.26"/>
<polygon fill="black" stroke="black" points="1286.72,-478.76 1296.72,-475.26 1286.72,-471.76 1286.72,-478.76"/>
<text text-anchor="middle" x="1104.34" y="-479.06" font-family="Times,serif" font-size="14.00">schema:supersededBy</text>
</g>
<!-- http://w3id.org/oseg/ont/otrl#Otrl1 -->
<g id="node29" class="node">
<title>http://w3id.org/oseg/ont/otrl#Otrl1</title>
<ellipse fill="none" stroke="black" cx="792.8" cy="-67.26" rx="189.51" ry="16.03"/>
<text text-anchor="middle" x="792.8" y="-63.56" font-family="Times,serif" font-size="14.00">http://w3id.org/oseg/ont/otrl#Otrl1</text>
</g>
<!-- http://w3id.org/oseg/ont/otrl#Otrl1&#45;&gt;http://w3id.org/oseg/ont/otrl#OTRL1 -->
<g id="edge7" class="edge">
<title>http://w3id.org/oseg/ont/otrl#Otrl1&#45;&gt;http://w3id.org/oseg/ont/otrl#OTRL1</title>
<path fill="none" stroke="black" d="M982.59,-67.26C1093.54,-67.26 1227.77,-67.26 1310.15,-67.26"/>
<polygon fill="black" stroke="black" points="1310.19,-70.76 1320.19,-67.26 1310.19,-63.76 1310.19,-70.76"/>
<text text-anchor="middle" x="1104.34" y="-71.06" font-family="Times,serif" font-size="14.00">schema:supersededBy</text>
</g>
<!-- http://w3id.org/oseg/ont/otrl#Otrl6 -->
<g id="node30" class="node">
<title>http://w3id.org/oseg/ont/otrl#Otrl6</title>
<ellipse fill="none" stroke="black" cx="792.8" cy="-16.26" rx="189.51" ry="16.03"/>
<text text-anchor="middle" x="792.8" y="-12.56" font-family="Times,serif" font-size="14.00">http://w3id.org/oseg/ont/otrl#Otrl6</text>
</g>
<!-- http://w3id.org/oseg/ont/otrl#Otrl6&#45;&gt;http://w3id.org/oseg/ont/otrl#OTRL6 -->
<g id="edge8" class="edge">
<title>http://w3id.org/oseg/ont/otrl#Otrl6&#45;&gt;http://w3id.org/oseg/ont/otrl#OTRL6</title>
<path fill="none" stroke="black" d="M982.59,-16.26C1093.54,-16.26 1227.77,-16.26 1310.15,-16.26"/>
<polygon fill="black" stroke="black" points="1310.19,-19.76 1320.19,-16.26 1310.19,-12.76 1310.19,-19.76"/>
<text text-anchor="middle" x="1104.34" y="-20.06" font-family="Times,serif" font-size="14.00">schema:supersededBy</text>
</g>
<!-- http://w3id.org/oseg/ont/otrl#Odrl5 -->
<g id="node31" class="node">
<title>http://w3id.org/oseg/ont/otrl#Odrl5</title>
<ellipse fill="none" stroke="black" cx="191.63" cy="-526.26" rx="191.75" ry="16.03"/>
<text text-anchor="middle" x="191.63" y="-522.56" font-family="Times,serif" font-size="14.00">http://w3id.org/oseg/ont/otrl#Odrl5</text>
</g>
<!-- http://w3id.org/oseg/ont/otrl#Odrl5&#45;&gt;http://w3id.org/oseg/ont/otrl#Odrl4 -->
<g id="edge10" class="edge">
<title>http://w3id.org/oseg/ont/otrl#Odrl5&#45;&gt;http://w3id.org/oseg/ont/otrl#Odrl4</title>
<path fill="none" stroke="black" d="M383.44,-526.26C498.54,-526.26 638.43,-526.26 721.01,-526.26"/>
<polygon fill="black" stroke="black" points="721.03,-529.76 731.03,-526.26 721.03,-522.76 721.03,-529.76"/>
<text text-anchor="middle" x="481.25" y="-530.06" font-family="Times,serif" font-size="14.00">schema:supersededBy</text>
</g>
<!-- http://w3id.org/oseg/ont/otrl#Odrl -->
<g id="node32" class="node">
<title>http://w3id.org/oseg/ont/otrl#Odrl</title>
<ellipse fill="none" stroke="black" cx="1387.61" cy="-373.26" rx="185.02" ry="16.03"/>
<text text-anchor="middle" x="1387.61" y="-369.56" font-family="Times,serif" font-size="14.00">http://w3id.org/oseg/ont/otrl#Odrl</text>
</g>
<!-- http://w3id.org/oseg/ont/otrl#Odrl&#45;&gt;http://w3id.org/oseg/ont/otrl#ODRL -->
<g id="edge11" class="edge">
<title>http://w3id.org/oseg/ont/otrl#Odrl&#45;&gt;http://w3id.org/oseg/ont/otrl#ODRL</title>
<path fill="none" stroke="black" d="M1570.77,-370.79C1630.08,-375.45 1694.99,-386.57 1750.87,-410.26 1800.69,-431.38 1846.16,-476.58 1871.05,-504.5"/>
<polygon fill="black" stroke="black" points="1868.58,-507 1877.8,-512.22 1873.85,-502.39 1868.58,-507"/>
<text text-anchor="middle" x="1670.87" y="-414.06" font-family="Times,serif" font-size="14.00">schema:supersededBy</text>
</g>
<!-- http://w3id.org/oseg/ont/otrl#Odrl1 -->
<g id="node33" class="node">
<title>http://w3id.org/oseg/ont/otrl#Odrl1</title>
<ellipse fill="none" stroke="black" cx="792.8" cy="-577.26" rx="191.75" ry="16.03"/>
<text text-anchor="middle" x="792.8" y="-573.56" font-family="Times,serif" font-size="14.00">http://w3id.org/oseg/ont/otrl#Odrl1</text>
</g>
<!-- http://w3id.org/oseg/ont/otrl#Odrl1&#45;&gt;http://w3id.org/oseg/ont/otrl#ODRL1 -->
<g id="edge15" class="edge">
<title>http://w3id.org/oseg/ont/otrl#Odrl1&#45;&gt;http://w3id.org/oseg/ont/otrl#ODRL1</title>
<path fill="none" stroke="black" d="M984.63,-577.26C1094.18,-577.26 1225.86,-577.26 1307.91,-577.26"/>
<polygon fill="black" stroke="black" points="1308.16,-580.76 1318.16,-577.26 1308.16,-573.76 1308.16,-580.76"/>
<text text-anchor="middle" x="1104.34" y="-581.06" font-family="Times,serif" font-size="14.00">schema:supersededBy</text>
</g>
<!-- http://w3id.org/oseg/ont/otrl#Odrl2 -->
<g id="node34" class="node">
<title>http://w3id.org/oseg/ont/otrl#Odrl2</title>
<ellipse fill="none" stroke="black" cx="792.8" cy="-628.26" rx="191.75" ry="16.03"/>
<text text-anchor="middle" x="792.8" y="-624.56" font-family="Times,serif" font-size="14.00">http://w3id.org/oseg/ont/otrl#Odrl2</text>
</g>
<!-- http://w3id.org/oseg/ont/otrl#Odrl2&#45;&gt;http://w3id.org/oseg/ont/otrl#ODRL2 -->
<g id="edge19" class="edge">
<title>http://w3id.org/oseg/ont/otrl#Odrl2&#45;&gt;http://w3id.org/oseg/ont/otrl#ODRL2</title>
<path fill="none" stroke="black" d="M984.63,-628.26C1094.18,-628.26 1225.86,-628.26 1307.91,-628.26"/>
<polygon fill="black" stroke="black" points="1308.16,-631.76 1318.16,-628.26 1308.16,-624.76 1308.16,-631.76"/>
<text text-anchor="middle" x="1104.34" y="-632.06" font-family="Times,serif" font-size="14.00">schema:supersededBy</text>
</g>
<!-- http://w3id.org/oseg/ont/otrl#Otrl5 -->
<g id="node35" class="node">
<title>http://w3id.org/oseg/ont/otrl#Otrl5</title>
<ellipse fill="none" stroke="black" cx="792.8" cy="-271.26" rx="189.51" ry="16.03"/>
<text text-anchor="middle" x="792.8" y="-267.56" font-family="Times,serif" font-size="14.00">http://w3id.org/oseg/ont/otrl#Otrl5</text>
</g>
<!-- http://w3id.org/oseg/ont/otrl#Otrl5&#45;&gt;http://w3id.org/oseg/ont/otrl#OTRL5 -->
<g id="edge25" class="edge">
<title>http://w3id.org/oseg/ont/otrl#Otrl5&#45;&gt;http://w3id.org/oseg/ont/otrl#OTRL5</title>
<path fill="none" stroke="black" d="M982.59,-271.26C1093.54,-271.26 1227.77,-271.26 1310.15,-271.26"/>
<polygon fill="black" stroke="black" points="1310.19,-274.76 1320.19,-271.26 1310.19,-267.76 1310.19,-274.76"/>
<text text-anchor="middle" x="1104.34" y="-275.06" font-family="Times,serif" font-size="14.00">schema:supersededBy</text>
</g>
<!-- http://w3id.org/oseg/ont/otrl#Otrl4 -->
<g id="node36" class="node">
<title>http://w3id.org/oseg/ont/otrl#Otrl4</title>
<ellipse fill="none" stroke="black" cx="792.8" cy="-118.26" rx="189.51" ry="16.03"/>
<text text-anchor="middle" x="792.8" y="-114.56" font-family="Times,serif" font-size="14.00">http://w3id.org/oseg/ont/otrl#Otrl4</text>
</g>
<!-- http://w3id.org/oseg/ont/otrl#Otrl4&#45;&gt;http://w3id.org/oseg/ont/otrl#OTRL4 -->
<g id="edge35" class="edge">
<title>http://w3id.org/oseg/ont/otrl#Otrl4&#45;&gt;http://w3id.org/oseg/ont/otrl#OTRL4</title>
<path fill="none" stroke="black" d="M982.59,-118.26C1093.54,-118.26 1227.77,-118.26 1310.15,-118.26"/>
<polygon fill="black" stroke="black" points="1310.19,-121.76 1320.19,-118.26 1310.19,-114.76 1310.19,-121.76"/>
<text text-anchor="middle" x="1104.34" y="-122.06" font-family="Times,serif" font-size="14.00">schema:supersededBy</text>
</g>
<!-- http://w3id.org/oseg/ont/otrl#Otrl3 -->
<g id="node37" class="node">
<title>http://w3id.org/oseg/ont/otrl#Otrl3</title>
<ellipse fill="none" stroke="black" cx="792.8" cy="-220.26" rx="189.51" ry="16.03"/>
<text text-anchor="middle" x="792.8" y="-216.56" font-family="Times,serif" font-size="14.00">http://w3id.org/oseg/ont/otrl#Otrl3</text>
</g>
<!-- http://w3id.org/oseg/ont/otrl#Otrl3&#45;&gt;http://w3id.org/oseg/ont/otrl#OTRL3 -->
<g id="edge37" class="edge">
<title>http://w3id.org/oseg/ont/otrl#Otrl3&#45;&gt;http://w3id.org/oseg/ont/otrl#OTRL3</title>
<path fill="none" stroke="black" d="M982.59,-220.26C1093.54,-220.26 1227.77,-220.26 1310.15,-220.26"/>
<polygon fill="black" stroke="black" points="1310.19,-223.76 1320.19,-220.26 1310.19,-216.76 1310.19,-223.76"/>
<text text-anchor="middle" x="1104.34" y="-224.06" font-family="Times,serif" font-size="14.00">schema:supersededBy</text>
</g>
<!-- http://w3id.org/oseg/ont/otrl#Otrl -->
<g id="node38" class="node">
<title>http://w3id.org/oseg/ont/otrl#Otrl</title>
<ellipse fill="none" stroke="black" cx="1387.61" cy="-169.26" rx="183.28" ry="16.03"/>
<text text-anchor="middle" x="1387.61" y="-165.56" font-family="Times,serif" font-size="14.00">http://w3id.org/oseg/ont/otrl#Otrl</text>
</g>
<!-- http://w3id.org/oseg/ont/otrl#Otrl&#45;&gt;http://w3id.org/oseg/ont/otrl#OTRL -->
<g id="edge39" class="edge">
<title>http://w3id.org/oseg/ont/otrl#Otrl&#45;&gt;http://w3id.org/oseg/ont/otrl#OTRL</title>
<path fill="none" stroke="black" d="M1526.38,-179.91C1594.08,-185.53 1676.83,-192.98 1750.87,-201.26 1776.15,-204.09 1803.92,-207.75 1828.03,-211.09"/>
<polygon fill="black" stroke="black" points="1827.72,-214.59 1838.11,-212.51 1828.69,-207.65 1827.72,-214.59"/>
<text text-anchor="middle" x="1670.87" y="-205.06" font-family="Times,serif" font-size="14.00">schema:supersededBy</text>
</g>
<!-- http://w3id.org/oseg/ont/otrl#Odrl3 -->
<g id="node39" class="node">
<title>http://w3id.org/oseg/ont/otrl#Odrl3</title>
<ellipse fill="none" stroke="black" cx="792.8" cy="-424.26" rx="191.75" ry="16.03"/>
<text text-anchor="middle" x="792.8" y="-420.56" font-family="Times,serif" font-size="14.00">http://w3id.org/oseg/ont/otrl#Odrl3</text>
</g>
<!-- http://w3id.org/oseg/ont/otrl#Odrl3&#45;&gt;http://w3id.org/oseg/ont/otrl#ODRL3 -->
<g id="edge40" class="edge">
<title>http://w3id.org/oseg/ont/otrl#Odrl3&#45;&gt;http://w3id.org/oseg/ont/otrl#ODRL3</title>
<path fill="none" stroke="black" d="M984.63,-424.26C1094.18,-424.26 1225.86,-424.26 1307.91,-424.26"/>
<polygon fill="black" stroke="black" points="1308.16,-427.76 1318.16,-424.26 1308.16,-420.76 1308.16,-427.76"/>
<text text-anchor="middle" x="1104.34" y="-428.06" font-family="Times,serif" font-size="14.00">schema:supersededBy</text>
</g>
<!-- http://w3id.org/oseg/ont/otrl#Otrl2 -->
<g id="node40" class="node">
<title>http://w3id.org/oseg/ont/otrl#Otrl2</title>
<ellipse fill="none" stroke="black" cx="792.8" cy="-322.26" rx="189.51" ry="16.03"/>
<text text-anchor="middle" x="792.8" y="-318.56" font-family="Times,serif" font-size="14.00">http://w3id.org/oseg/ont/otrl#Otrl2</text>
</g>
<!-- http://w3id.org/oseg/ont/otrl#Otrl2&#45;&gt;http://w3id.org/oseg/ont/otrl#OTRL2 -->
<g id="edge41" class="edge">
<title>http://w3id.org/oseg/ont/otrl#Otrl2&#45;&gt;http://w3id.org/oseg/ont/otrl#OTRL2</title>
<path fill="none" stroke="black" d="M982.59,-322.26C1093.54,-322.26 1227.77,-322.26 1310.15,-322.26"/>
<polygon fill="black" stroke="black" points="1310.19,-325.76 1320.19,-322.26 1310.19,-318.76 1310.19,-325.76"/>
<text text-anchor="middle" x="1104.34" y="-326.06" font-family="Times,serif" font-size="14.00">schema:supersededBy</text>
</g>
</g>
</svg>
