<?xml version="1.0" encoding="UTF-8" standalone="no"?>
<!DOCTYPE svg PUBLIC "-//W3C//DTD SVG 1.1//EN"
 "http://www.w3.org/Graphics/SVG/1.1/DTD/svg11.dtd">
<!-- Generated by graphviz version 2.43.0 (0)
 -->
<!-- Title: G Pages: 1 -->
<svg width="1513pt" height="2038pt"
 viewBox="0.00 0.00 1513.00 2038.00" xmlns="http://www.w3.org/2000/svg" xmlns:xlink="http://www.w3.org/1999/xlink">
<g id="graph0" class="graph" transform="scale(1 1) rotate(0) translate(4 2034)">
<title>G</title>
<polygon fill="white" stroke="transparent" points="-4,4 -4,-2034 1509,-2034 1509,4 -4,4"/>
<!-- http://w3id.org/oseg/ont/okh#Mass -->
<g id="node1" class="node">
<title>http://w3id.org/oseg/ont/okh#Mass</title>
<ellipse fill="none" stroke="#e377c2" cx="435.94" cy="-838.14" rx="59.29" ry="16.03"/>
<text text-anchor="middle" x="435.94" y="-834.44" font-family="Times,serif" font-size="14.00">okh:Mass</text>
</g>
<!-- http://www.w3.org/2004/02/skos/core#Concept -->
<g id="node3" class="node">
<title>http://www.w3.org/2004/02/skos/core#Concept</title>
<ellipse fill="none" stroke="#1f77b4" cx="753.66" cy="-823.48" rx="78.48" ry="16.03"/>
<text text-anchor="middle" x="753.66" y="-819.78" font-family="Times,serif" font-size="14.00">skos:Concept</text>
</g>
<!-- http://w3id.org/oseg/ont/okh#Mass&#45;&gt;http://www.w3.org/2004/02/skos/core#Concept -->
<g id="edge32" class="edge">
<title>http://w3id.org/oseg/ont/okh#Mass&#45;&gt;http://www.w3.org/2004/02/skos/core#Concept</title>
<path fill="none" stroke="black" d="M494.58,-835.44C542.86,-833.21 612.01,-830.02 666.72,-827.49"/>
<polygon fill="black" stroke="black" points="666.93,-830.98 676.76,-827.03 666.61,-823.99 666.93,-830.98"/>
<text text-anchor="middle" x="576.15" y="-835.26" font-family="Times,serif" font-size="14.00">a</text>
</g>
<!-- http://w3id.org/oseg/ont/okhmetaTransportationTag -->
<g id="node39" class="node">
<title>http://w3id.org/oseg/ont/okhmetaTransportationTag</title>
<ellipse fill="none" stroke="#e377c2" cx="398.7" cy="-789.62" rx="118.17" ry="16.03"/>
<text text-anchor="middle" x="398.7" y="-785.92" font-family="Times,serif" font-size="14.00">okhmeta:Transport...</text>
</g>
<!-- http://w3id.org/oseg/ont/okh#Mass&#45;&gt;http://w3id.org/oseg/ont/okhmetaTransportationTag -->
<g id="edge40" class="edge">
<title>http://w3id.org/oseg/ont/okh#Mass&#45;&gt;http://w3id.org/oseg/ont/okhmetaTransportationTag</title>
<path fill="none" stroke="black" d="M423.54,-821.99C421.55,-819.4 419.46,-816.66 417.36,-813.93"/>
<polygon fill="black" stroke="black" points="420.04,-811.68 411.17,-805.87 414.49,-815.94 420.04,-811.68"/>
<text text-anchor="middle" x="343.45" y="-806.76" font-family="Times,serif" font-size="14.00">okhmeta:hasMetaTag</text>
</g>
<!-- http://w3id.org/oseg/ont/okhmetaPhysicalTag -->
<g id="node40" class="node">
<title>http://w3id.org/oseg/ont/okhmetaPhysicalTag</title>
<ellipse fill="none" stroke="#e377c2" cx="145.09" cy="-779.38" rx="118.17" ry="16.03"/>
<text text-anchor="middle" x="145.09" y="-775.68" font-family="Times,serif" font-size="14.00">okhmeta:PhysicalTag</text>
</g>
<!-- http://w3id.org/oseg/ont/okh#Mass&#45;&gt;http://w3id.org/oseg/ont/okhmetaPhysicalTag -->
<g id="edge25" class="edge">
<title>http://w3id.org/oseg/ont/okh#Mass&#45;&gt;http://w3id.org/oseg/ont/okhmetaPhysicalTag</title>
<path fill="none" stroke="black" d="M387.91,-828.44C342.74,-819.32 274.37,-805.5 221.67,-794.86"/>
<polygon fill="black" stroke="black" points="222.19,-791.39 211.69,-792.84 220.8,-798.25 222.19,-791.39"/>
<text text-anchor="middle" x="227.79" y="-800.45" font-family="Times,serif" font-size="14.00">okhmeta:hasMetaTag</text>
</g>
<!-- http://w3id.org/oseg/ont/okh#ComponentReference -->
<g id="node2" class="node">
<title>http://w3id.org/oseg/ont/okh#ComponentReference</title>
<ellipse fill="none" stroke="#e377c2" cx="1052.72" cy="-644.92" rx="123.07" ry="16.03"/>
<text text-anchor="middle" x="1052.72" y="-641.22" font-family="Times,serif" font-size="14.00">okh:ComponentRefe...</text>
</g>
<!-- http://w3id.org/oseg/ont/okh#ComponentReference&#45;&gt;http://www.w3.org/2004/02/skos/core#Concept -->
<g id="edge1" class="edge">
<title>http://w3id.org/oseg/ont/okh#ComponentReference&#45;&gt;http://www.w3.org/2004/02/skos/core#Concept</title>
<path fill="none" stroke="black" d="M1025.92,-660.92C971.64,-693.33 848.79,-766.68 788.44,-802.71"/>
<polygon fill="black" stroke="black" points="786.45,-799.82 779.65,-807.96 790.03,-805.83 786.45,-799.82"/>
<text text-anchor="middle" x="902.68" y="-735.62" font-family="Times,serif" font-size="14.00">a</text>
</g>
<!-- http://w3id.org/oseg/ont/okh#Reference -->
<g id="node6" class="node">
<title>http://w3id.org/oseg/ont/okh#Reference</title>
<ellipse fill="none" stroke="#e377c2" cx="1361.36" cy="-681.92" rx="84.29" ry="16.03"/>
<text text-anchor="middle" x="1361.36" y="-678.22" font-family="Times,serif" font-size="14.00">okh:Reference</text>
</g>
<!-- http://w3id.org/oseg/ont/okh#ComponentReference&#45;&gt;http://w3id.org/oseg/ont/okh#Reference -->
<g id="edge38" class="edge">
<title>http://w3id.org/oseg/ont/okh#ComponentReference&#45;&gt;http://w3id.org/oseg/ont/okh#Reference</title>
<path fill="none" stroke="black" d="M1144.07,-655.87C1187.09,-661.03 1238,-667.13 1279.72,-672.13"/>
<polygon fill="black" stroke="black" points="1279.5,-675.63 1289.84,-673.35 1280.33,-668.68 1279.5,-675.63"/>
</g>
<!-- http://w3id.org/oseg/ont/okhmetaPartsTag -->
<g id="node16" class="node">
<title>http://w3id.org/oseg/ont/okhmetaPartsTag</title>
<ellipse fill="none" stroke="#e377c2" cx="1365.18" cy="-519.74" rx="103.48" ry="16.03"/>
<text text-anchor="middle" x="1365.18" y="-516.04" font-family="Times,serif" font-size="14.00">okhmeta:PartsTag</text>
</g>
<!-- http://w3id.org/oseg/ont/okh#ComponentReference&#45;&gt;http://w3id.org/oseg/ont/okhmetaPartsTag -->
<g id="edge10" class="edge">
<title>http://w3id.org/oseg/ont/okh#ComponentReference&#45;&gt;http://w3id.org/oseg/ont/okhmetaPartsTag</title>
<path fill="none" stroke="black" d="M1091.35,-629.44C1148.54,-606.53 1255.64,-563.63 1317.59,-538.81"/>
<polygon fill="black" stroke="black" points="1319.15,-541.96 1327.13,-534.99 1316.55,-535.46 1319.15,-541.96"/>
<text text-anchor="middle" x="1127.47" y="-587.93" font-family="Times,serif" font-size="14.00">okhmeta:hasMetaTag</text>
</g>
<!-- http://w3id.org/oseg/ont/okh#FileUrl -->
<g id="node4" class="node">
<title>http://w3id.org/oseg/ont/okh#FileUrl</title>
<ellipse fill="none" stroke="#1f77b4" cx="961.26" cy="-360.81" rx="68.68" ry="16.03"/>
<text text-anchor="middle" x="961.26" y="-357.11" font-family="Times,serif" font-size="14.00">okh:FileUrl</text>
</g>
<!-- http://w3id.org/oseg/ont/okh#FileUrl&#45;&gt;http://w3id.org/oseg/ont/okh#ComponentReference -->
<g id="edge30" class="edge">
<title>http://w3id.org/oseg/ont/okh#FileUrl&#45;&gt;http://w3id.org/oseg/ont/okh#ComponentReference</title>
<path fill="none" stroke="black" d="M966.57,-377.32C981.79,-424.59 1025.64,-560.8 1044.23,-618.54"/>
<polygon fill="black" stroke="black" points="1041,-619.92 1047.4,-628.37 1047.66,-617.78 1041,-619.92"/>
</g>
<!-- http://schema.org/URL -->
<g id="node5" class="node">
<title>http://schema.org/URL</title>
<ellipse fill="none" stroke="#e377c2" cx="1023.72" cy="-145.5" rx="75.82" ry="16.03"/>
<text text-anchor="middle" x="1023.72" y="-141.8" font-family="Times,serif" font-size="14.00">schema:URL</text>
</g>
<!-- http://w3id.org/oseg/ont/okh#FileUrl&#45;&gt;http://schema.org/URL -->
<g id="edge19" class="edge">
<title>http://w3id.org/oseg/ont/okh#FileUrl&#45;&gt;http://schema.org/URL</title>
<path fill="none" stroke="black" d="M966.06,-344.28C976.85,-307.08 1003.1,-216.58 1016.12,-171.67"/>
<polygon fill="black" stroke="black" points="1019.56,-172.38 1018.99,-161.8 1012.84,-170.43 1019.56,-172.38"/>
</g>
<!-- http://w3id.org/oseg/ont/okh#File -->
<g id="node10" class="node">
<title>http://w3id.org/oseg/ont/okh#File</title>
<ellipse fill="none" stroke="#e377c2" cx="771.55" cy="-466.42" rx="52.15" ry="16.03"/>
<text text-anchor="middle" x="771.55" y="-462.72" font-family="Times,serif" font-size="14.00">okh:File</text>
</g>
<!-- http://w3id.org/oseg/ont/okh#FileUrl&#45;&gt;http://w3id.org/oseg/ont/okh#File -->
<g id="edge11" class="edge">
<title>http://w3id.org/oseg/ont/okh#FileUrl&#45;&gt;http://w3id.org/oseg/ont/okh#File</title>
<path fill="none" stroke="black" d="M934.08,-375.95C900.36,-394.72 842.84,-426.74 806.04,-447.22"/>
<polygon fill="black" stroke="black" points="804.2,-444.24 797.16,-452.16 807.6,-450.36 804.2,-444.24"/>
<text text-anchor="middle" x="790.06" y="-415.38" font-family="Times,serif" font-size="14.00">schema:supersededBy</text>
</g>
<!-- http://w3id.org/oseg/ont/okh#url -->
<g id="node7" class="node">
<title>http://w3id.org/oseg/ont/okh#url</title>
<ellipse fill="none" stroke="#e377c2" cx="805.42" cy="-16.47" rx="47.25" ry="16.03"/>
<text text-anchor="middle" x="805.42" y="-12.77" font-family="Times,serif" font-size="14.00">okh:url</text>
</g>
<!-- http://w3id.org/oseg/ont/okh#height -->
<g id="node8" class="node">
<title>http://w3id.org/oseg/ont/okh#height</title>
<ellipse fill="none" stroke="#e377c2" cx="565.26" cy="-2013.79" rx="65.11" ry="16.03"/>
<text text-anchor="middle" x="565.26" y="-2010.09" font-family="Times,serif" font-size="14.00">okh:height</text>
</g>
<!-- http://spdx.org/rdf/terms#ListedLicense -->
<g id="node9" class="node">
<title>http://spdx.org/rdf/terms#ListedLicense</title>
<ellipse fill="none" stroke="#e377c2" cx="246.95" cy="-1069.51" rx="108.38" ry="16.03"/>
<text text-anchor="middle" x="246.95" y="-1065.81" font-family="Times,serif" font-size="14.00">spdx:ListedLicense</text>
</g>
<!-- http://w3id.org/oseg/ont/okh#unit -->
<g id="node11" class="node">
<title>http://w3id.org/oseg/ont/okh#unit</title>
<ellipse fill="none" stroke="#e377c2" cx="437.4" cy="-1108.39" rx="53.07" ry="16.03"/>
<text text-anchor="middle" x="437.4" y="-1104.69" font-family="Times,serif" font-size="14.00">okh:unit</text>
</g>
<!-- http://w3id.org/oseg/ont/okh#unit&#45;&gt;http://w3id.org/oseg/ont/okh#Mass -->
<g id="edge43" class="edge">
<title>http://w3id.org/oseg/ont/okh#unit&#45;&gt;http://w3id.org/oseg/ont/okh#Mass</title>
<path fill="none" stroke="black" d="M437.31,-1091.89C437.06,-1046.55 436.38,-919.78 436.08,-864.49"/>
<polygon fill="black" stroke="black" points="439.58,-864.41 436.03,-854.43 432.58,-864.45 439.58,-864.41"/>
<text text-anchor="middle" x="358.7" y="-981.99" font-family="Times,serif" font-size="14.00">dcam:domainIncludes</text>
</g>
<!-- http://w3id.org/oseg/ont/okh#Dimensions -->
<g id="node21" class="node">
<title>http://w3id.org/oseg/ont/okh#Dimensions</title>
<ellipse fill="none" stroke="#e377c2" cx="465.3" cy="-1426.75" rx="91.85" ry="16.03"/>
<text text-anchor="middle" x="465.3" y="-1423.05" font-family="Times,serif" font-size="14.00">okh:Dimensions</text>
</g>
<!-- http://w3id.org/oseg/ont/okh#unit&#45;&gt;http://w3id.org/oseg/ont/okh#Dimensions -->
<g id="edge16" class="edge">
<title>http://w3id.org/oseg/ont/okh#unit&#45;&gt;http://w3id.org/oseg/ont/okh#Dimensions</title>
<path fill="none" stroke="black" d="M438.86,-1125.06C443.42,-1177.06 457.4,-1336.65 462.97,-1400.22"/>
<polygon fill="black" stroke="black" points="459.49,-1400.59 463.85,-1410.25 466.47,-1399.98 459.49,-1400.59"/>
<text text-anchor="middle" x="372.92" y="-1266.44" font-family="Times,serif" font-size="14.00">dcam:domainIncludes</text>
</g>
<!-- http://w3id.org/oseg/ont/okhmetaLegalTag -->
<g id="node12" class="node">
<title>http://w3id.org/oseg/ont/okhmetaLegalTag</title>
<ellipse fill="none" stroke="#e377c2" cx="259.87" cy="-836.33" rx="103.89" ry="16.03"/>
<text text-anchor="middle" x="259.87" y="-832.63" font-family="Times,serif" font-size="14.00">okhmeta:LegalTag</text>
</g>
<!-- http://w3id.org/oseg/ont/okh#license -->
<g id="node13" class="node">
<title>http://w3id.org/oseg/ont/okh#license</title>
<ellipse fill="none" stroke="#e377c2" cx="597.08" cy="-798.9" rx="67.76" ry="16.03"/>
<text text-anchor="middle" x="597.08" y="-795.2" font-family="Times,serif" font-size="14.00">okh:license</text>
</g>
<!-- http://w3id.org/oseg/ont/okh#openSCAD -->
<g id="node14" class="node">
<title>http://w3id.org/oseg/ont/okh#openSCAD</title>
<ellipse fill="none" stroke="#e377c2" cx="509.2" cy="-1765.47" rx="86.03" ry="16.03"/>
<text text-anchor="middle" x="509.2" y="-1761.77" font-family="Times,serif" font-size="14.00">okh:openSCAD</text>
</g>
<!-- http://w3id.org/oseg/ont/okh#openSCAD&#45;&gt;http://w3id.org/oseg/ont/okh#height -->
<g id="edge3" class="edge">
<title>http://w3id.org/oseg/ont/okh#openSCAD&#45;&gt;http://w3id.org/oseg/ont/okh#height</title>
<path fill="none" stroke="black" d="M512.88,-1781.76C522.36,-1823.77 547.71,-1936.04 559.31,-1987.44"/>
<polygon fill="black" stroke="black" points="555.95,-1988.45 561.57,-1997.44 562.78,-1986.91 555.95,-1988.45"/>
<text text-anchor="middle" x="456.09" y="-1888.4" font-family="Times,serif" font-size="14.00">schema:supersededBy</text>
</g>
<!-- http://w3id.org/oseg/ont/okh#depth -->
<g id="node19" class="node">
<title>http://w3id.org/oseg/ont/okh#depth</title>
<ellipse fill="none" stroke="#e377c2" cx="721.44" cy="-1871.07" rx="62.45" ry="16.03"/>
<text text-anchor="middle" x="721.44" y="-1867.37" font-family="Times,serif" font-size="14.00">okh:depth</text>
</g>
<!-- http://w3id.org/oseg/ont/okh#openSCAD&#45;&gt;http://w3id.org/oseg/ont/okh#depth -->
<g id="edge14" class="edge">
<title>http://w3id.org/oseg/ont/okh#openSCAD&#45;&gt;http://w3id.org/oseg/ont/okh#depth</title>
<path fill="none" stroke="black" d="M540.06,-1780.82C577.93,-1799.66 642.13,-1831.61 683.12,-1852"/>
<polygon fill="black" stroke="black" points="681.74,-1855.22 692.25,-1856.54 684.86,-1848.96 681.74,-1855.22"/>
<text text-anchor="middle" x="531.59" y="-1820.21" font-family="Times,serif" font-size="14.00">schema:supersededBy</text>
</g>
<!-- http://w3id.org/oseg/ont/okh#openSCAD&#45;&gt;http://w3id.org/oseg/ont/okh#Dimensions -->
<g id="edge29" class="edge">
<title>http://w3id.org/oseg/ont/okh#openSCAD&#45;&gt;http://w3id.org/oseg/ont/okh#Dimensions</title>
<path fill="none" stroke="black" d="M507.08,-1749.13C500.06,-1694.93 477.47,-1520.68 468.77,-1453.5"/>
<polygon fill="black" stroke="black" points="472.2,-1452.79 467.45,-1443.32 465.26,-1453.69 472.2,-1452.79"/>
<text text-anchor="middle" x="409.92" y="-1605.12" font-family="Times,serif" font-size="14.00">dcam:domainIncludes</text>
</g>
<!-- http://www.w3.org/2001/XMLSchema#string -->
<g id="node28" class="node">
<title>http://www.w3.org/2001/XMLSchema#string</title>
<ellipse fill="none" stroke="#e377c2" cx="650.75" cy="-1965.88" rx="62.87" ry="16.03"/>
<text text-anchor="middle" x="650.75" y="-1962.18" font-family="Times,serif" font-size="14.00">xsd:string</text>
</g>
<!-- http://w3id.org/oseg/ont/okh#openSCAD&#45;&gt;http://www.w3.org/2001/XMLSchema#string -->
<g id="edge27" class="edge">
<title>http://w3id.org/oseg/ont/okh#openSCAD&#45;&gt;http://www.w3.org/2001/XMLSchema#string</title>
<path fill="none" stroke="black" d="M520.78,-1781.87C545.63,-1817.06 604.18,-1899.95 633.45,-1941.4"/>
<polygon fill="black" stroke="black" points="630.77,-1943.67 639.4,-1949.82 636.49,-1939.63 630.77,-1943.67"/>
<text text-anchor="middle" x="504.62" y="-1850.43" font-family="Times,serif" font-size="14.00">dcam:rangeIncludes</text>
</g>
<!-- http://w3id.org/oseg/ont/okh#width -->
<g id="node32" class="node">
<title>http://w3id.org/oseg/ont/okh#width</title>
<ellipse fill="none" stroke="#e377c2" cx="421.42" cy="-1990.55" rx="61.54" ry="16.03"/>
<text text-anchor="middle" x="421.42" y="-1986.85" font-family="Times,serif" font-size="14.00">okh:width</text>
</g>
<!-- http://w3id.org/oseg/ont/okh#openSCAD&#45;&gt;http://w3id.org/oseg/ont/okh#width -->
<g id="edge31" class="edge">
<title>http://w3id.org/oseg/ont/okh#openSCAD&#45;&gt;http://w3id.org/oseg/ont/okh#width</title>
<path fill="none" stroke="black" d="M502.74,-1782.02C487.58,-1820.89 449.62,-1918.25 431.43,-1964.88"/>
<polygon fill="black" stroke="black" points="428.14,-1963.69 427.77,-1974.28 434.66,-1966.23 428.14,-1963.69"/>
<text text-anchor="middle" x="387.09" y="-1862.25" font-family="Times,serif" font-size="14.00">schema:supersededBy</text>
</g>
<!-- http://w3id.org/oseg/ont/okh#installationGuide -->
<g id="node15" class="node">
<title>http://w3id.org/oseg/ont/okh#installationGuide</title>
<ellipse fill="none" stroke="#e377c2" cx="1014.68" cy="-972.59" rx="106.55" ry="16.03"/>
<text text-anchor="middle" x="1014.68" y="-968.89" font-family="Times,serif" font-size="14.00">okh:installationG...</text>
</g>
<!-- http://w3id.org/oseg/ont/okh#installationGuide&#45;&gt;http://www.w3.org/2004/02/skos/core#Concept -->
<g id="edge9" class="edge">
<title>http://w3id.org/oseg/ont/okh#installationGuide&#45;&gt;http://www.w3.org/2004/02/skos/core#Concept</title>
<path fill="none" stroke="black" d="M986.74,-956.63C939.1,-929.41 842.2,-874.06 789.59,-844"/>
<polygon fill="black" stroke="black" points="791.03,-840.79 780.61,-838.87 787.56,-846.87 791.03,-840.79"/>
<text text-anchor="middle" x="883.67" y="-904.12" font-family="Times,serif" font-size="14.00">a</text>
</g>
<!-- http://w3id.org/oseg/ont/okh#Software -->
<g id="node17" class="node">
<title>http://w3id.org/oseg/ont/okh#Software</title>
<ellipse fill="none" stroke="#e377c2" cx="1263.71" cy="-1112.78" rx="78.48" ry="16.03"/>
<text text-anchor="middle" x="1263.71" y="-1109.08" font-family="Times,serif" font-size="14.00">okh:Software</text>
</g>
<!-- http://w3id.org/oseg/ont/okh#installationGuide&#45;&gt;http://w3id.org/oseg/ont/okh#Software -->
<g id="edge12" class="edge">
<title>http://w3id.org/oseg/ont/okh#installationGuide&#45;&gt;http://w3id.org/oseg/ont/okh#Software</title>
<path fill="none" stroke="black" d="M1042.76,-988.4C1088.15,-1013.95 1177.58,-1064.29 1227.62,-1092.46"/>
<polygon fill="black" stroke="black" points="1226.06,-1095.6 1236.49,-1097.46 1229.49,-1089.5 1226.06,-1095.6"/>
<text text-anchor="middle" x="1057.19" y="-1044.23" font-family="Times,serif" font-size="14.00">dcam:domainIncludes</text>
</g>
<!-- http://w3id.org/oseg/ont/okh#tsdc -->
<g id="node18" class="node">
<title>http://w3id.org/oseg/ont/okh#tsdc</title>
<ellipse fill="none" stroke="#e377c2" cx="824.61" cy="-1250.33" rx="54.39" ry="16.03"/>
<text text-anchor="middle" x="824.61" y="-1246.63" font-family="Times,serif" font-size="14.00">okh:tsdc</text>
</g>
<!-- http://schema.org/license -->
<g id="node20" class="node">
<title>http://schema.org/license</title>
<ellipse fill="none" stroke="#e377c2" cx="726.17" cy="-999.61" rx="88.28" ry="16.03"/>
<text text-anchor="middle" x="726.17" y="-995.91" font-family="Times,serif" font-size="14.00">schema:license</text>
</g>
<!-- http://w3id.org/oseg/ont/okh#okhvOriginal -->
<g id="node22" class="node">
<title>http://w3id.org/oseg/ont/okh#okhvOriginal</title>
<ellipse fill="none" stroke="#e377c2" cx="1197.21" cy="-1416.88" rx="97.66" ry="16.03"/>
<text text-anchor="middle" x="1197.21" y="-1413.18" font-family="Times,serif" font-size="14.00">okh:okhvOriginal</text>
</g>
<!-- http://w3id.org/oseg/ont/okh#okhv -->
<g id="node30" class="node">
<title>http://w3id.org/oseg/ont/okh#okhv</title>
<ellipse fill="none" stroke="#e377c2" cx="1260.24" cy="-1461.48" rx="56.64" ry="16.03"/>
<text text-anchor="middle" x="1260.24" y="-1457.78" font-family="Times,serif" font-size="14.00">okh:okhv</text>
</g>
<!-- http://w3id.org/oseg/ont/okh#okhvOriginal&#45;&gt;http://w3id.org/oseg/ont/okh#okhv -->
<g id="edge28" class="edge">
<title>http://w3id.org/oseg/ont/okh#okhvOriginal&#45;&gt;http://w3id.org/oseg/ont/okh#okhv</title>
<path fill="none" stroke="black" d="M1219.61,-1432.73C1223.11,-1435.21 1226.78,-1437.8 1230.42,-1440.38"/>
<polygon fill="black" stroke="black" points="1228.57,-1443.36 1238.76,-1446.28 1232.62,-1437.64 1228.57,-1443.36"/>
<text text-anchor="middle" x="1172.01" y="-1440.35" font-family="Times,serif" font-size="14.00">subPropertyOf</text>
</g>
<!-- http://w3id.org/oseg/ont/okh#okhvStored -->
<g id="node35" class="node">
<title>http://w3id.org/oseg/ont/okh#okhvStored</title>
<ellipse fill="none" stroke="#e377c2" cx="1414.52" cy="-1336.55" rx="90.52" ry="16.03"/>
<text text-anchor="middle" x="1414.52" y="-1332.85" font-family="Times,serif" font-size="14.00">okh:okhvStored</text>
</g>
<!-- http://w3id.org/oseg/ont/okh#okhvOriginal&#45;&gt;http://w3id.org/oseg/ont/okh#okhvStored -->
<g id="edge36" class="edge">
<title>http://w3id.org/oseg/ont/okh#okhvOriginal&#45;&gt;http://w3id.org/oseg/ont/okh#okhvStored</title>
<path fill="none" stroke="black" d="M1237.32,-1402.05C1273.39,-1388.72 1326.48,-1369.09 1365.15,-1354.8"/>
<polygon fill="black" stroke="black" points="1366.48,-1358.04 1374.65,-1351.29 1364.05,-1351.47 1366.48,-1358.04"/>
<text text-anchor="middle" x="1273.73" y="-1382.22" font-family="Times,serif" font-size="14.00">seeAlso</text>
</g>
<!-- http://w3id.org/oseg/ont/okh#spdxLicense -->
<g id="node23" class="node">
<title>http://w3id.org/oseg/ont/okh#spdxLicense</title>
<ellipse fill="none" stroke="#e377c2" cx="527.2" cy="-927.48" rx="94.51" ry="16.03"/>
<text text-anchor="middle" x="527.2" y="-923.78" font-family="Times,serif" font-size="14.00">okh:spdxLicense</text>
</g>
<!-- http://w3id.org/oseg/ont/okh#spdxLicense&#45;&gt;http://www.w3.org/2004/02/skos/core#Concept -->
<g id="edge35" class="edge">
<title>http://w3id.org/oseg/ont/okh#spdxLicense&#45;&gt;http://www.w3.org/2004/02/skos/core#Concept</title>
<path fill="none" stroke="black" d="M560.61,-912.13C600.84,-893.65 668.43,-862.62 712.02,-842.6"/>
<polygon fill="black" stroke="black" points="713.58,-845.73 721.21,-838.38 710.66,-839.37 713.58,-845.73"/>
<text text-anchor="middle" x="631.82" y="-881.17" font-family="Times,serif" font-size="14.00">a</text>
</g>
<!-- http://w3id.org/oseg/ont/okh#spdxLicense&#45;&gt;http://spdx.org/rdf/terms#ListedLicense -->
<g id="edge4" class="edge">
<title>http://w3id.org/oseg/ont/okh#spdxLicense&#45;&gt;http://spdx.org/rdf/terms#ListedLicense</title>
<path fill="none" stroke="black" d="M496.67,-942.95C445.74,-968.76 343.45,-1020.6 286.87,-1049.27"/>
<polygon fill="black" stroke="black" points="285.2,-1046.2 277.86,-1053.84 288.37,-1052.44 285.2,-1046.2"/>
<text text-anchor="middle" x="319.27" y="-999.91" font-family="Times,serif" font-size="14.00">dcam:rangeIncludes</text>
</g>
<!-- http://w3id.org/oseg/ont/okh#spdxLicense&#45;&gt;http://w3id.org/oseg/ont/okhmetaLegalTag -->
<g id="edge6" class="edge">
<title>http://w3id.org/oseg/ont/okh#spdxLicense&#45;&gt;http://w3id.org/oseg/ont/okhmetaLegalTag</title>
<path fill="none" stroke="black" d="M484.54,-912.93C437.97,-897.05 363.32,-871.6 312.98,-854.44"/>
<polygon fill="black" stroke="black" points="313.85,-851.04 303.26,-851.12 311.59,-857.66 313.85,-851.04"/>
<text text-anchor="middle" x="321.76" y="-887.49" font-family="Times,serif" font-size="14.00">okhmeta:hasMetaTag</text>
</g>
<!-- http://w3id.org/oseg/ont/okh#spdxLicense&#45;&gt;http://w3id.org/oseg/ont/okh#license -->
<g id="edge7" class="edge">
<title>http://w3id.org/oseg/ont/okh#spdxLicense&#45;&gt;http://w3id.org/oseg/ont/okh#license</title>
<path fill="none" stroke="black" d="M536.05,-911.19C548.02,-889.17 569.48,-849.67 583.5,-823.88"/>
<polygon fill="black" stroke="black" points="586.6,-825.51 588.3,-815.05 580.45,-822.17 586.6,-825.51"/>
<text text-anchor="middle" x="479.77" y="-871.34" font-family="Times,serif" font-size="14.00">schema:supersededBy</text>
</g>
<!-- http://w3id.org/oseg/ont/okh#spdxLicense&#45;&gt;http://schema.org/license -->
<g id="edge15" class="edge">
<title>http://w3id.org/oseg/ont/okh#spdxLicense&#45;&gt;http://schema.org/license</title>
<path fill="none" stroke="black" d="M567.94,-942.25C599.4,-953.65 643.07,-969.48 676.56,-981.63"/>
<polygon fill="black" stroke="black" points="675.56,-984.99 686.16,-985.11 677.95,-978.41 675.56,-984.99"/>
<text text-anchor="middle" x="563.25" y="-965.74" font-family="Times,serif" font-size="14.00">skos:closeMatch</text>
</g>
<!-- http://w3id.org/oseg/ont/okh#Module -->
<g id="node33" class="node">
<title>http://w3id.org/oseg/ont/okh#Module</title>
<ellipse fill="none" stroke="#e377c2" cx="350.51" cy="-917.15" rx="70.92" ry="16.03"/>
<text text-anchor="middle" x="350.51" y="-913.45" font-family="Times,serif" font-size="14.00">okh:Module</text>
</g>
<!-- http://w3id.org/oseg/ont/okh#spdxLicense&#45;&gt;http://w3id.org/oseg/ont/okh#Module -->
<g id="edge33" class="edge">
<title>http://w3id.org/oseg/ont/okh#spdxLicense&#45;&gt;http://w3id.org/oseg/ont/okh#Module</title>
<path fill="none" stroke="black" d="M437.3,-922.22C434.65,-922.07 432.01,-921.91 429.37,-921.76"/>
<polygon fill="black" stroke="black" points="429.47,-918.26 419.29,-921.17 429.06,-925.25 429.47,-918.26"/>
<text text-anchor="middle" x="511.34" y="-910.79" font-family="Times,serif" font-size="14.00">dcam:domainIncludes</text>
</g>
<!-- http://w3id.org/oseg/ont/okh#openScad -->
<g id="node24" class="node">
<title>http://w3id.org/oseg/ont/okh#openScad</title>
<ellipse fill="none" stroke="#e377c2" cx="314.93" cy="-1937.52" rx="82.05" ry="16.03"/>
<text text-anchor="middle" x="314.93" y="-1933.82" font-family="Times,serif" font-size="14.00">okh:openScad</text>
</g>
<!-- http://w3id.org/oseg/ont/okh#openScad&#45;&gt;http://w3id.org/oseg/ont/okh#openSCAD -->
<g id="edge8" class="edge">
<title>http://w3id.org/oseg/ont/okh#openScad&#45;&gt;http://w3id.org/oseg/ont/okh#openSCAD</title>
<path fill="none" stroke="black" d="M339.4,-1921.77C378.35,-1891.36 453.43,-1824.91 489.3,-1789.16"/>
<polygon fill="black" stroke="black" points="492.21,-1791.19 496.73,-1781.6 487.22,-1786.28 492.21,-1791.19"/>
<text text-anchor="middle" x="334.35" y="-1844.26" font-family="Times,serif" font-size="14.00">schema:supersededBy</text>
</g>
<!-- http://w3id.org/oseg/ont/okh#openScad&#45;&gt;http://w3id.org/oseg/ont/okh#openSCAD -->
<g id="edge20" class="edge">
<title>http://w3id.org/oseg/ont/okh#openScad&#45;&gt;http://w3id.org/oseg/ont/okh#openSCAD</title>
<path fill="none" stroke="black" d="M327.63,-1921.14C357.61,-1889.99 433.03,-1822.68 476.7,-1787.58"/>
<polygon fill="black" stroke="black" points="479.07,-1790.17 484.73,-1781.22 474.72,-1784.69 479.07,-1790.17"/>
<text text-anchor="middle" x="423.41" y="-1843.16" font-family="Times,serif" font-size="14.00">owl:sameAs</text>
</g>
<!-- http://w3id.org/oseg/ont/okh#okhvOrig -->
<g id="node25" class="node">
<title>http://w3id.org/oseg/ont/okh#okhvOrig</title>
<ellipse fill="none" stroke="#e377c2" cx="1310.23" cy="-1546.88" rx="79.39" ry="16.03"/>
<text text-anchor="middle" x="1310.23" y="-1543.18" font-family="Times,serif" font-size="14.00">okh:okhvOrig</text>
</g>
<!-- http://w3id.org/oseg/ont/okh#fileUrl -->
<g id="node26" class="node">
<title>http://w3id.org/oseg/ont/okh#fileUrl</title>
<ellipse fill="none" stroke="#e377c2" cx="827.66" cy="-212.45" rx="65.11" ry="16.03"/>
<text text-anchor="middle" x="827.66" y="-208.75" font-family="Times,serif" font-size="14.00">okh:fileUrl</text>
</g>
<!-- http://w3id.org/oseg/ont/okh#fileUrl&#45;&gt;http://w3id.org/oseg/ont/okh#url -->
<g id="edge2" class="edge">
<title>http://w3id.org/oseg/ont/okh#fileUrl&#45;&gt;http://w3id.org/oseg/ont/okh#url</title>
<path fill="none" stroke="black" d="M825.8,-196.08C821.96,-162.21 813.11,-84.2 808.43,-43.03"/>
<polygon fill="black" stroke="black" points="811.89,-42.47 807.29,-32.93 804.94,-43.26 811.89,-42.47"/>
<text text-anchor="middle" x="737.12" y="-123.35" font-family="Times,serif" font-size="14.00">schema:supersededBy</text>
</g>
<!-- http://w3id.org/oseg/ont/okh#fileUrl&#45;&gt;http://w3id.org/oseg/ont/okh#File -->
<g id="edge17" class="edge">
<title>http://w3id.org/oseg/ont/okh#fileUrl&#45;&gt;http://w3id.org/oseg/ont/okh#File</title>
<path fill="none" stroke="black" d="M824.06,-228.73C814.61,-271.54 788.96,-387.61 777.37,-440.06"/>
<polygon fill="black" stroke="black" points="773.93,-439.43 775.19,-449.95 780.76,-440.94 773.93,-439.43"/>
<text text-anchor="middle" x="722.72" y="-338.19" font-family="Times,serif" font-size="14.00">dcam:domainIncludes</text>
</g>
<!-- http://schema.org/url -->
<g id="node36" class="node">
<title>http://schema.org/url</title>
<ellipse fill="none" stroke="#e377c2" cx="946.57" cy="-21.58" rx="67.35" ry="16.03"/>
<text text-anchor="middle" x="946.57" y="-17.88" font-family="Times,serif" font-size="14.00">schema:url</text>
</g>
<!-- http://w3id.org/oseg/ont/okh#fileUrl&#45;&gt;http://schema.org/url -->
<g id="edge37" class="edge">
<title>http://w3id.org/oseg/ont/okh#fileUrl&#45;&gt;http://schema.org/url</title>
<path fill="none" stroke="black" d="M837.8,-196.18C858.64,-162.72 906.41,-86.04 931.12,-46.37"/>
<polygon fill="black" stroke="black" points="934.14,-48.15 936.45,-37.81 928.2,-44.45 934.14,-48.15"/>
<text text-anchor="middle" x="937.46" y="-110.07" font-family="Times,serif" font-size="14.00">subPropertyOf</text>
</g>
<!-- http://w3id.org/oseg/ont/okh#alternativeLicense -->
<g id="node27" class="node">
<title>http://w3id.org/oseg/ont/okh#alternativeLicense</title>
<ellipse fill="none" stroke="#e377c2" cx="587.09" cy="-741.85" rx="107.46" ry="16.03"/>
<text text-anchor="middle" x="587.09" y="-738.15" font-family="Times,serif" font-size="14.00">okh:alternativeLi...</text>
</g>
<!-- http://w3id.org/oseg/ont/okh#alternativeLicense&#45;&gt;http://www.w3.org/2004/02/skos/core#Concept -->
<g id="edge44" class="edge">
<title>http://w3id.org/oseg/ont/okh#alternativeLicense&#45;&gt;http://www.w3.org/2004/02/skos/core#Concept</title>
<path fill="none" stroke="black" d="M618.81,-757.39C645.81,-770.63 684.73,-789.7 713.83,-803.96"/>
<polygon fill="black" stroke="black" points="712.38,-807.15 722.9,-808.4 715.46,-800.86 712.38,-807.15"/>
<text text-anchor="middle" x="661.82" y="-769.48" font-family="Times,serif" font-size="14.00">a</text>
</g>
<!-- http://w3id.org/oseg/ont/okh#alternativeLicense&#45;&gt;http://w3id.org/oseg/ont/okh#File -->
<g id="edge24" class="edge">
<title>http://w3id.org/oseg/ont/okh#alternativeLicense&#45;&gt;http://w3id.org/oseg/ont/okh#File</title>
<path fill="none" stroke="black" d="M598.08,-725.44C629.23,-678.93 718.26,-546 755.19,-490.85"/>
<polygon fill="black" stroke="black" points="758.2,-492.65 760.85,-482.39 752.38,-488.75 758.2,-492.65"/>
<text text-anchor="middle" x="604.13" y="-611.95" font-family="Times,serif" font-size="14.00">dcam:rangeIncludes</text>
</g>
<!-- http://w3id.org/oseg/ont/okh#alternativeLicense&#45;&gt;http://w3id.org/oseg/ont/okhmetaLegalTag -->
<g id="edge18" class="edge">
<title>http://w3id.org/oseg/ont/okh#alternativeLicense&#45;&gt;http://w3id.org/oseg/ont/okhmetaLegalTag</title>
<path fill="none" stroke="black" d="M537.04,-756.3C478.49,-773.2 381.67,-801.16 319.34,-819.15"/>
<polygon fill="black" stroke="black" points="318.28,-815.82 309.65,-821.95 320.22,-822.54 318.28,-815.82"/>
<text text-anchor="middle" x="351.19" y="-776.53" font-family="Times,serif" font-size="14.00">okhmeta:hasMetaTag</text>
</g>
<!-- http://w3id.org/oseg/ont/okh#alternativeLicense&#45;&gt;http://w3id.org/oseg/ont/okh#license -->
<g id="edge26" class="edge">
<title>http://w3id.org/oseg/ont/okh#alternativeLicense&#45;&gt;http://w3id.org/oseg/ont/okh#license</title>
<path fill="none" stroke="black" d="M589.98,-758.35C590.75,-762.76 591.61,-767.65 592.45,-772.45"/>
<polygon fill="black" stroke="black" points="589.06,-773.39 594.23,-782.63 595.95,-772.18 589.06,-773.39"/>
<text text-anchor="middle" x="671.21" y="-769.2" font-family="Times,serif" font-size="14.00">schema:supersededBy</text>
</g>
<!-- http://w3id.org/oseg/ont/okh#alternativeLicense&#45;&gt;http://schema.org/license -->
<g id="edge22" class="edge">
<title>http://w3id.org/oseg/ont/okh#alternativeLicense&#45;&gt;http://schema.org/license</title>
<path fill="none" stroke="black" d="M596,-758.36C619.65,-802.19 684.12,-921.68 712.48,-974.23"/>
<polygon fill="black" stroke="black" points="709.5,-976.09 717.33,-983.23 715.66,-972.77 709.5,-976.09"/>
<text text-anchor="middle" x="595.24" y="-855.1" font-family="Times,serif" font-size="14.00">skos:closeMatch</text>
</g>
<!-- http://w3id.org/oseg/ont/okh#alternativeLicense&#45;&gt;http://w3id.org/oseg/ont/okh#Module -->
<g id="edge41" class="edge">
<title>http://w3id.org/oseg/ont/okh#alternativeLicense&#45;&gt;http://w3id.org/oseg/ont/okh#Module</title>
<path fill="none" stroke="black" d="M565.26,-758.03C522.52,-789.69 427.83,-859.86 379.75,-895.49"/>
<polygon fill="black" stroke="black" points="377.56,-892.75 371.61,-901.52 381.73,-898.37 377.56,-892.75"/>
<text text-anchor="middle" x="550.5" y="-815.56" font-family="Times,serif" font-size="14.00">dcam:domainIncludes</text>
</g>
<!-- http://w3id.org/oseg/ont/okh#permaURL -->
<g id="node29" class="node">
<title>http://w3id.org/oseg/ont/okh#permaURL</title>
<ellipse fill="none" stroke="#e377c2" cx="998.56" cy="-428.86" rx="87.86" ry="16.03"/>
<text text-anchor="middle" x="998.56" y="-425.16" font-family="Times,serif" font-size="14.00">okh:permaURL</text>
</g>
<!-- http://w3id.org/oseg/ont/okh#permaURL&#45;&gt;http://w3id.org/oseg/ont/okh#File -->
<g id="edge5" class="edge">
<title>http://w3id.org/oseg/ont/okh#permaURL&#45;&gt;http://w3id.org/oseg/ont/okh#File</title>
<path fill="none" stroke="black" d="M932.9,-439.72C899.7,-445.21 859.81,-451.81 828,-457.08"/>
<polygon fill="black" stroke="black" points="827.27,-453.65 817.98,-458.74 828.41,-460.56 827.27,-453.65"/>
<text text-anchor="middle" x="802.45" y="-437.2" font-family="Times,serif" font-size="14.00">dcam:domainIncludes</text>
</g>
<!-- http://w3id.org/oseg/ont/okh#relatedTsdc -->
<g id="node31" class="node">
<title>http://w3id.org/oseg/ont/okh#relatedTsdc</title>
<ellipse fill="none" stroke="#e377c2" cx="983.66" cy="-1226.56" rx="91.85" ry="16.03"/>
<text text-anchor="middle" x="983.66" y="-1222.86" font-family="Times,serif" font-size="14.00">okh:relatedTsdc</text>
</g>
<!-- http://w3id.org/oseg/ont/okh#relatedTsdc&#45;&gt;http://w3id.org/oseg/ont/okh#tsdc -->
<g id="edge13" class="edge">
<title>http://w3id.org/oseg/ont/okh#relatedTsdc&#45;&gt;http://w3id.org/oseg/ont/okh#tsdc</title>
<path fill="none" stroke="black" d="M898.02,-1232.55C889.36,-1233.88 880.81,-1235.31 872.76,-1236.77"/>
<polygon fill="black" stroke="black" points="872.05,-1233.34 862.87,-1238.64 873.35,-1240.22 872.05,-1233.34"/>
<text text-anchor="middle" x="805.39" y="-1223.46" font-family="Times,serif" font-size="14.00">schema:supersededBy</text>
</g>
<!-- http://w3id.org/oseg/ont/okh#relatedTsdc&#45;&gt;http://w3id.org/oseg/ont/okh#tsdc -->
<g id="edge23" class="edge">
<title>http://w3id.org/oseg/ont/okh#relatedTsdc&#45;&gt;http://w3id.org/oseg/ont/okh#tsdc</title>
<path fill="none" stroke="black" d="M934.27,-1240.34C919.99,-1242.91 904.19,-1245.37 889.13,-1247.39"/>
<polygon fill="black" stroke="black" points="888.32,-1243.96 878.85,-1248.71 889.21,-1250.91 888.32,-1243.96"/>
<text text-anchor="middle" x="954.2" y="-1247.66" font-family="Times,serif" font-size="14.00">owl:sameAs</text>
</g>
<!-- http://w3id.org/oseg/ont/okh#okhvPresent -->
<g id="node34" class="node">
<title>http://w3id.org/oseg/ont/okh#okhvPresent</title>
<ellipse fill="none" stroke="#e377c2" cx="1295.24" cy="-1502.34" rx="96.33" ry="16.03"/>
<text text-anchor="middle" x="1295.24" y="-1498.64" font-family="Times,serif" font-size="14.00">okh:okhvPresent</text>
</g>
<!-- http://w3id.org/oseg/ont/okh#okhvPresent&#45;&gt;http://w3id.org/oseg/ont/okh#okhvOrig -->
<g id="edge21" class="edge">
<title>http://w3id.org/oseg/ont/okh#okhvPresent&#45;&gt;http://w3id.org/oseg/ont/okh#okhvOrig</title>
<path fill="none" stroke="black" d="M1300.74,-1518.67C1300.98,-1519.4 1301.23,-1520.13 1301.48,-1520.88"/>
<polygon fill="black" stroke="black" points="1298.23,-1522.19 1304.73,-1530.55 1304.86,-1519.96 1298.23,-1522.19"/>
<text text-anchor="middle" x="1273.61" y="-1523.57" font-family="Times,serif" font-size="14.00">seeAlso</text>
</g>
<!-- http://w3id.org/oseg/ont/okh#okhvPresent&#45;&gt;http://w3id.org/oseg/ont/okh#okhv -->
<g id="edge42" class="edge">
<title>http://w3id.org/oseg/ont/okh#okhvPresent&#45;&gt;http://w3id.org/oseg/ont/okh#okhv</title>
<path fill="none" stroke="black" d="M1281.41,-1486.19C1281.1,-1485.83 1280.79,-1485.47 1280.48,-1485.11"/>
<polygon fill="black" stroke="black" points="1283.13,-1482.83 1273.97,-1477.51 1277.82,-1487.38 1283.13,-1482.83"/>
<text text-anchor="middle" x="1333.94" y="-1474.45" font-family="Times,serif" font-size="14.00">subPropertyOf</text>
</g>
<!-- http://w3id.org/oseg/ont/okh#value -->
<g id="node37" class="node">
<title>http://w3id.org/oseg/ont/okh#value</title>
<ellipse fill="none" stroke="#e377c2" cx="252.46" cy="-654.95" rx="60.21" ry="16.03"/>
<text text-anchor="middle" x="252.46" y="-651.25" font-family="Times,serif" font-size="14.00">okh:value</text>
</g>
<!-- http://w3id.org/oseg/ont/okh#value&#45;&gt;http://w3id.org/oseg/ont/okh#Mass -->
<g id="edge34" class="edge">
<title>http://w3id.org/oseg/ont/okh#value&#45;&gt;http://w3id.org/oseg/ont/okh#Mass</title>
<path fill="none" stroke="black" d="M268.42,-670.88C300.9,-703.31 374.79,-777.09 412.64,-814.88"/>
<polygon fill="black" stroke="black" points="410.6,-817.79 420.15,-822.37 415.54,-812.83 410.6,-817.79"/>
<text text-anchor="middle" x="262.53" y="-746.68" font-family="Times,serif" font-size="14.00">dcam:domainIncludes</text>
</g>
<!-- http://w3id.org/oseg/ont/okh#hasMass -->
<g id="node38" class="node">
<title>http://w3id.org/oseg/ont/okh#hasMass</title>
<ellipse fill="none" stroke="#e377c2" cx="76.92" cy="-509.55" rx="77.15" ry="16.03"/>
<text text-anchor="middle" x="76.92" y="-505.85" font-family="Times,serif" font-size="14.00">okh:hasMass</text>
</g>
<!-- http://w3id.org/oseg/ont/okh#value&#45;&gt;http://w3id.org/oseg/ont/okh#hasMass -->
<g id="edge39" class="edge">
<title>http://w3id.org/oseg/ont/okh#value&#45;&gt;http://w3id.org/oseg/ont/okh#hasMass</title>
<path fill="none" stroke="black" d="M233.67,-639.39C202.56,-613.62 140.2,-561.96 104.22,-532.16"/>
<polygon fill="black" stroke="black" points="106.04,-529.12 96.11,-525.44 101.58,-534.52 106.04,-529.12"/>
<text text-anchor="middle" x="88.95" y="-589.57" font-family="Times,serif" font-size="14.00">schema:supersededBy</text>
</g>
</g>
</svg>
