<?xml version="1.0" encoding="UTF-8" standalone="no"?>
<!DOCTYPE svg PUBLIC "-//W3C//DTD SVG 1.1//EN"
 "http://www.w3.org/Graphics/SVG/1.1/DTD/svg11.dtd">
<!-- Generated by graphviz version 2.43.0 (0)
 -->
<!-- Title: G Pages: 1 -->
<svg width="2035pt" height="1311pt"
 viewBox="0.00 0.00 2034.94 1310.53" xmlns="http://www.w3.org/2000/svg" xmlns:xlink="http://www.w3.org/1999/xlink">
<g id="graph0" class="graph" transform="scale(1 1) rotate(0) translate(4 1306.53)">
<title>G</title>
<polygon fill="white" stroke="transparent" points="-4,4 -4,-1306.53 2030.94,-1306.53 2030.94,4 -4,4"/>
<!-- http://w3id.org/oseg/ont/otrl#OTRL -->
<g id="node1" class="node">
<title>http://w3id.org/oseg/ont/otrl#OTRL</title>
<ellipse fill="none" stroke="#e377c2" cx="1903.9" cy="-663.26" rx="60.62" ry="16.03"/>
<text text-anchor="middle" x="1903.9" y="-659.56" font-family="Times,serif" font-size="14.00">otrl:OTRL</text>
</g>
<!-- http://spdx.org/rdf/terms#SpdxItem -->
<g id="node2" class="node">
<title>http://spdx.org/rdf/terms#SpdxItem</title>
<ellipse fill="none" stroke="#1f77b4" cx="792.8" cy="-1286.26" rx="87.86" ry="16.03"/>
<text text-anchor="middle" x="792.8" y="-1282.56" font-family="Times,serif" font-size="14.00">spdx:SpdxItem</text>
</g>
<!-- http://www.w3.org/2002/07/owl#DatatypeProperty -->
<g id="node3" class="node">
<title>http://www.w3.org/2002/07/owl#DatatypeProperty</title>
<ellipse fill="none" stroke="#1f77b4" cx="1903.9" cy="-384.26" rx="123.07" ry="16.03"/>
<text text-anchor="middle" x="1903.9" y="-380.56" font-family="Times,serif" font-size="14.00">owl:DatatypeProperty</text>
</g>
<!-- http://www.w3.org/2002/07/owl#Ontology -->
<g id="node4" class="node">
<title>http://www.w3.org/2002/07/owl#Ontology</title>
<ellipse fill="none" stroke="#1f77b4" cx="792.8" cy="-1235.26" rx="77.56" ry="16.03"/>
<text text-anchor="middle" x="792.8" y="-1231.56" font-family="Times,serif" font-size="14.00">owl:Ontology</text>
</g>
<!-- http://w3id.org/oseg/ont/otrl#ODRL -->
<g id="node5" class="node">
<title>http://w3id.org/oseg/ont/otrl#ODRL</title>
<ellipse fill="none" stroke="#e377c2" cx="1903.9" cy="-188.26" rx="62.87" ry="16.03"/>
<text text-anchor="middle" x="1903.9" y="-184.56" font-family="Times,serif" font-size="14.00">otrl:ODRL</text>
</g>
<!-- http://w3id.org/oseg/ont/otrl#ODRL1 -->
<g id="node6" class="node">
<title>http://w3id.org/oseg/ont/otrl#ODRL1</title>
<ellipse fill="none" stroke="#e377c2" cx="1387.61" cy="-118.26" rx="69.09" ry="16.03"/>
<text text-anchor="middle" x="1387.61" y="-114.56" font-family="Times,serif" font-size="14.00">otrl:ODRL1</text>
</g>
<!-- http://w3id.org/oseg/ont/otrl#ODRL1&#45;&gt;http://w3id.org/oseg/ont/otrl#ODRL -->
<g id="edge40" class="edge">
<title>http://w3id.org/oseg/ont/otrl#ODRL1&#45;&gt;http://w3id.org/oseg/ont/otrl#ODRL</title>
<path fill="none" stroke="black" d="M1457.13,-118.95C1532.61,-120.74 1657.31,-126.73 1762.87,-146.26 1794.99,-152.21 1830.2,-162.79 1857.29,-171.85"/>
<polygon fill="black" stroke="black" points="1856.28,-175.2 1866.87,-175.1 1858.53,-168.57 1856.28,-175.2"/>
<text text-anchor="middle" x="1676.87" y="-150.06" font-family="Times,serif" font-size="14.00">a</text>
</g>
<!-- http://w3id.org/oseg/ont/otrl#ODRL3Star -->
<g id="node7" class="node">
<title>http://w3id.org/oseg/ont/otrl#ODRL3Star</title>
<ellipse fill="none" stroke="#e377c2" cx="1387.61" cy="-67.26" rx="90.52" ry="16.03"/>
<text text-anchor="middle" x="1387.61" y="-63.56" font-family="Times,serif" font-size="14.00">otrl:ODRL3Star</text>
</g>
<!-- http://w3id.org/oseg/ont/otrl#ODRL3Star&#45;&gt;http://w3id.org/oseg/ont/otrl#ODRL -->
<g id="edge30" class="edge">
<title>http://w3id.org/oseg/ont/otrl#ODRL3Star&#45;&gt;http://w3id.org/oseg/ont/otrl#ODRL</title>
<path fill="none" stroke="black" d="M1478.12,-66.47C1555.33,-68.21 1668.91,-76.6 1762.87,-107.26 1804.31,-120.79 1846.97,-147.68 1874.14,-166.77"/>
<polygon fill="black" stroke="black" points="1872.23,-169.7 1882.4,-172.66 1876.3,-164.01 1872.23,-169.7"/>
<text text-anchor="middle" x="1676.87" y="-111.06" font-family="Times,serif" font-size="14.00">a</text>
</g>
<!-- http://w3id.org/oseg/ont/otrl#ODRL4 -->
<g id="node8" class="node">
<title>http://w3id.org/oseg/ont/otrl#ODRL4</title>
<ellipse fill="none" stroke="#e377c2" cx="1387.61" cy="-16.26" rx="69.09" ry="16.03"/>
<text text-anchor="middle" x="1387.61" y="-12.56" font-family="Times,serif" font-size="14.00">otrl:ODRL4</text>
</g>
<!-- http://w3id.org/oseg/ont/otrl#ODRL4&#45;&gt;http://w3id.org/oseg/ont/otrl#ODRL -->
<g id="edge35" class="edge">
<title>http://w3id.org/oseg/ont/otrl#ODRL4&#45;&gt;http://w3id.org/oseg/ont/otrl#ODRL</title>
<path fill="none" stroke="black" d="M1453.13,-10.76C1530.44,-6.85 1662.15,-8.86 1762.87,-55.26 1816.03,-79.76 1861.81,-132.7 1885.56,-163.9"/>
<polygon fill="black" stroke="black" points="1882.87,-166.15 1891.66,-172.08 1888.48,-161.97 1882.87,-166.15"/>
<text text-anchor="middle" x="1676.87" y="-59.06" font-family="Times,serif" font-size="14.00">a</text>
</g>
<!-- http://w3id.org/oseg/ont/otrl#Odrl4 -->
<g id="node9" class="node">
<title>http://w3id.org/oseg/ont/otrl#Odrl4</title>
<ellipse fill="none" stroke="#e377c2" cx="792.8" cy="-16.26" rx="61.54" ry="16.03"/>
<text text-anchor="middle" x="792.8" y="-12.56" font-family="Times,serif" font-size="14.00">otrl:Odrl4</text>
</g>
<!-- http://w3id.org/oseg/ont/otrl#Odrl4&#45;&gt;http://w3id.org/oseg/ont/otrl#ODRL4 -->
<g id="edge1" class="edge">
<title>http://w3id.org/oseg/ont/otrl#Odrl4&#45;&gt;http://w3id.org/oseg/ont/otrl#ODRL4</title>
<path fill="none" stroke="black" d="M854.45,-16.26C962.41,-16.26 1187.78,-16.26 1307.66,-16.26"/>
<polygon fill="black" stroke="black" points="1307.86,-19.76 1317.86,-16.26 1307.86,-12.76 1307.86,-19.76"/>
<text text-anchor="middle" x="1104.34" y="-20.06" font-family="Times,serif" font-size="14.00">schema:supersededBy</text>
</g>
<!-- http://www.w3.org/1999/02/22&#45;rdf&#45;syntax&#45;ns#langString -->
<g id="node10" class="node">
<title>http://www.w3.org/1999/02/22&#45;rdf&#45;syntax&#45;ns#langString</title>
<ellipse fill="none" stroke="#e377c2" cx="1903.9" cy="-447.26" rx="83.38" ry="16.03"/>
<text text-anchor="middle" x="1903.9" y="-443.56" font-family="Times,serif" font-size="14.00">rdf:langString</text>
</g>
<!-- http://id.loc.gov/vocabulary/iso639&#45;1/en -->
<g id="node11" class="node">
<title>http://id.loc.gov/vocabulary/iso639&#45;1/en</title>
<ellipse fill="none" stroke="#e377c2" cx="792.8" cy="-1184.26" rx="45.01" ry="16.03"/>
<text text-anchor="middle" x="792.8" y="-1180.56" font-family="Times,serif" font-size="14.00">ns1:en</text>
</g>
<!-- http://w3id.org/oseg/ont/otrl#OTRL4 -->
<g id="node12" class="node">
<title>http://w3id.org/oseg/ont/otrl#OTRL4</title>
<ellipse fill="none" stroke="#e377c2" cx="1387.61" cy="-701.26" rx="67.35" ry="16.03"/>
<text text-anchor="middle" x="1387.61" y="-697.56" font-family="Times,serif" font-size="14.00">otrl:OTRL4</text>
</g>
<!-- http://w3id.org/oseg/ont/otrl#OTRL4&#45;&gt;http://w3id.org/oseg/ont/otrl#OTRL -->
<g id="edge29" class="edge">
<title>http://w3id.org/oseg/ont/otrl#OTRL4&#45;&gt;http://w3id.org/oseg/ont/otrl#OTRL</title>
<path fill="none" stroke="black" d="M1453.93,-698.51C1528.68,-695.12 1654.74,-688.61 1762.87,-679.26 1787.72,-677.11 1814.98,-674.14 1838.8,-671.34"/>
<polygon fill="black" stroke="black" points="1839.26,-674.81 1848.78,-670.15 1838.43,-667.86 1839.26,-674.81"/>
<text text-anchor="middle" x="1676.87" y="-695.06" font-family="Times,serif" font-size="14.00">a</text>
</g>
<!-- http://w3id.org/oseg/ont/otrl#OTRL1 -->
<g id="node13" class="node">
<title>http://w3id.org/oseg/ont/otrl#OTRL1</title>
<ellipse fill="none" stroke="#e377c2" cx="1387.61" cy="-650.26" rx="67.35" ry="16.03"/>
<text text-anchor="middle" x="1387.61" y="-646.56" font-family="Times,serif" font-size="14.00">otrl:OTRL1</text>
</g>
<!-- http://w3id.org/oseg/ont/otrl#OTRL1&#45;&gt;http://w3id.org/oseg/ont/otrl#OTRL -->
<g id="edge9" class="edge">
<title>http://w3id.org/oseg/ont/otrl#OTRL1&#45;&gt;http://w3id.org/oseg/ont/otrl#OTRL</title>
<path fill="none" stroke="black" d="M1454.53,-651.93C1551.91,-654.39 1733.41,-658.98 1833.02,-661.5"/>
<polygon fill="black" stroke="black" points="1833.2,-665 1843.28,-661.76 1833.37,-658 1833.2,-665"/>
<text text-anchor="middle" x="1676.87" y="-664.06" font-family="Times,serif" font-size="14.00">a</text>
</g>
<!-- http://w3id.org/oseg/ont/otrl#OTRL6 -->
<g id="node14" class="node">
<title>http://w3id.org/oseg/ont/otrl#OTRL6</title>
<ellipse fill="none" stroke="#e377c2" cx="1387.61" cy="-599.26" rx="67.35" ry="16.03"/>
<text text-anchor="middle" x="1387.61" y="-595.56" font-family="Times,serif" font-size="14.00">otrl:OTRL6</text>
</g>
<!-- http://w3id.org/oseg/ont/otrl#OTRL6&#45;&gt;http://w3id.org/oseg/ont/otrl#OTRL -->
<g id="edge31" class="edge">
<title>http://w3id.org/oseg/ont/otrl#OTRL6&#45;&gt;http://w3id.org/oseg/ont/otrl#OTRL</title>
<path fill="none" stroke="black" d="M1452.04,-604.1C1526.64,-610.16 1654.1,-621.67 1762.87,-637.26 1790.08,-641.16 1820.07,-646.58 1845.29,-651.46"/>
<polygon fill="black" stroke="black" points="1844.94,-654.96 1855.43,-653.44 1846.28,-648.09 1844.94,-654.96"/>
<text text-anchor="middle" x="1676.87" y="-641.06" font-family="Times,serif" font-size="14.00">a</text>
</g>
<!-- http://spdx.org/licenses/GPL&#45;3.0&#45;or&#45;later -->
<g id="node15" class="node">
<title>http://spdx.org/licenses/GPL&#45;3.0&#45;or&#45;later</title>
<ellipse fill="none" stroke="#e377c2" cx="792.8" cy="-1133.26" rx="108.79" ry="16.03"/>
<text text-anchor="middle" x="792.8" y="-1129.56" font-family="Times,serif" font-size="14.00">spdxl:GPL&#45;3.0&#45;or&#45;...</text>
</g>
<!-- http://w3id.org/oseg/ont/otrl -->
<g id="node16" class="node">
<title>http://w3id.org/oseg/ont/otrl</title>
<ellipse fill="none" stroke="#e377c2" cx="191.63" cy="-1089.26" rx="50.82" ry="16.03"/>
<text text-anchor="middle" x="191.63" y="-1085.56" font-family="Times,serif" font-size="14.00">ns2:otrl</text>
</g>
<!-- http://w3id.org/oseg/ont/otrl&#45;&gt;http://spdx.org/rdf/terms#SpdxItem -->
<g id="edge12" class="edge">
<title>http://w3id.org/oseg/ont/otrl&#45;&gt;http://spdx.org/rdf/terms#SpdxItem</title>
<path fill="none" stroke="black" d="M209.55,-1104.52C243.3,-1134.03 322.51,-1198.75 401.25,-1230.26 496.39,-1268.33 613.71,-1281.03 694.79,-1285.01"/>
<polygon fill="black" stroke="black" points="694.84,-1288.52 704.99,-1285.48 695.16,-1281.53 694.84,-1288.52"/>
<text text-anchor="middle" x="481.25" y="-1274.06" font-family="Times,serif" font-size="14.00">a</text>
</g>
<!-- http://w3id.org/oseg/ont/otrl&#45;&gt;http://www.w3.org/2002/07/owl#Ontology -->
<g id="edge16" class="edge">
<title>http://w3id.org/oseg/ont/otrl&#45;&gt;http://www.w3.org/2002/07/owl#Ontology</title>
<path fill="none" stroke="black" d="M219.59,-1102.92C258.67,-1122.2 333.8,-1157.24 401.25,-1177.26 504.44,-1207.89 627.99,-1222.77 708.09,-1229.69"/>
<polygon fill="black" stroke="black" points="707.87,-1233.19 718.13,-1230.54 708.45,-1226.21 707.87,-1233.19"/>
<text text-anchor="middle" x="481.25" y="-1215.06" font-family="Times,serif" font-size="14.00">a</text>
</g>
<!-- http://w3id.org/oseg/ont/otrl&#45;&gt;http://id.loc.gov/vocabulary/iso639&#45;1/en -->
<g id="edge6" class="edge">
<title>http://w3id.org/oseg/ont/otrl&#45;&gt;http://id.loc.gov/vocabulary/iso639&#45;1/en</title>
<path fill="none" stroke="black" d="M232,-1099.35C273.77,-1109.77 341.81,-1125.92 401.25,-1136.26 521.13,-1157.12 663.26,-1172.19 738.64,-1179.43"/>
<polygon fill="black" stroke="black" points="738.54,-1182.94 748.83,-1180.4 739.2,-1175.97 738.54,-1182.94"/>
<text text-anchor="middle" x="481.25" y="-1162.06" font-family="Times,serif" font-size="14.00">dcterms:language</text>
</g>
<!-- http://w3id.org/oseg/ont/otrl&#45;&gt;http://spdx.org/licenses/GPL&#45;3.0&#45;or&#45;later -->
<g id="edge11" class="edge">
<title>http://w3id.org/oseg/ont/otrl&#45;&gt;http://spdx.org/licenses/GPL&#45;3.0&#45;or&#45;later</title>
<path fill="none" stroke="black" d="M240.66,-1093.68C282.94,-1097.5 346.15,-1103.05 401.25,-1107.26 495.76,-1114.49 603.23,-1121.56 681.47,-1126.5"/>
<polygon fill="black" stroke="black" points="681.63,-1130.01 691.83,-1127.15 682.07,-1123.03 681.63,-1130.01"/>
<text text-anchor="middle" x="481.25" y="-1121.06" font-family="Times,serif" font-size="14.00">spdx:licenseDeclared</text>
</g>
<!-- http://w3id.org/oseg/ont/oseg&#45;profiles#robinVobruba -->
<g id="node18" class="node">
<title>http://w3id.org/oseg/ont/oseg&#45;profiles#robinVobruba</title>
<ellipse fill="none" stroke="#e377c2" cx="792.8" cy="-1076.26" rx="113.69" ry="16.03"/>
<text text-anchor="middle" x="792.8" y="-1072.56" font-family="Times,serif" font-size="14.00">osegprof:robinVob...</text>
</g>
<!-- http://w3id.org/oseg/ont/otrl&#45;&gt;http://w3id.org/oseg/ont/oseg&#45;profiles#robinVobruba -->
<g id="edge15" class="edge">
<title>http://w3id.org/oseg/ont/otrl&#45;&gt;http://w3id.org/oseg/ont/oseg&#45;profiles#robinVobruba</title>
<path fill="none" stroke="black" d="M242.72,-1089.41C313.64,-1089.5 447.37,-1089.2 561.25,-1086.26 598.32,-1085.31 638.71,-1083.74 675.19,-1082.12"/>
<polygon fill="black" stroke="black" points="675.54,-1085.61 685.37,-1081.66 675.22,-1078.62 675.54,-1085.61"/>
<text text-anchor="middle" x="481.25" y="-1092.06" font-family="Times,serif" font-size="14.00">schema:creator</text>
</g>
<!-- http://w3id.org/oseg/ont/otrl&#45;&gt;http://w3id.org/oseg/ont/oseg&#45;profiles#robinVobruba -->
<g id="edge36" class="edge">
<title>http://w3id.org/oseg/ont/otrl&#45;&gt;http://w3id.org/oseg/ont/oseg&#45;profiles#robinVobruba</title>
<path fill="none" stroke="black" d="M238.92,-1082.97C281.12,-1077.57 345.24,-1070.21 401.25,-1067.26 494.43,-1062.36 600.25,-1065.33 678.21,-1069.12"/>
<polygon fill="black" stroke="black" points="678.38,-1072.63 688.54,-1069.64 678.73,-1065.64 678.38,-1072.63"/>
<text text-anchor="middle" x="481.25" y="-1071.06" font-family="Times,serif" font-size="14.00">dcterms:creator</text>
</g>
<!-- http://w3id.org/oseg/ont/oseg&#45;profiles#martinHaeuer -->
<g id="node19" class="node">
<title>http://w3id.org/oseg/ont/oseg&#45;profiles#martinHaeuer</title>
<ellipse fill="none" stroke="#e377c2" cx="792.8" cy="-1013.26" rx="116.85" ry="16.03"/>
<text text-anchor="middle" x="792.8" y="-1009.56" font-family="Times,serif" font-size="14.00">osegprof:martinHa...</text>
</g>
<!-- http://w3id.org/oseg/ont/otrl&#45;&gt;http://w3id.org/oseg/ont/oseg&#45;profiles#martinHaeuer -->
<g id="edge17" class="edge">
<title>http://w3id.org/oseg/ont/otrl&#45;&gt;http://w3id.org/oseg/ont/oseg&#45;profiles#martinHaeuer</title>
<path fill="none" stroke="black" d="M232.35,-1079.32C274.13,-1069.24 341.91,-1053.92 401.25,-1045.26 491.61,-1032.09 594.58,-1023.93 672.09,-1019.15"/>
<polygon fill="black" stroke="black" points="672.61,-1022.63 682.38,-1018.53 672.18,-1015.64 672.61,-1022.63"/>
<text text-anchor="middle" x="481.25" y="-1049.06" font-family="Times,serif" font-size="14.00">schema:creator</text>
</g>
<!-- http://w3id.org/oseg/ont/otrl&#45;&gt;http://w3id.org/oseg/ont/oseg&#45;profiles#martinHaeuer -->
<g id="edge25" class="edge">
<title>http://w3id.org/oseg/ont/otrl&#45;&gt;http://w3id.org/oseg/ont/oseg&#45;profiles#martinHaeuer</title>
<path fill="none" stroke="black" d="M219.02,-1075.33C257.71,-1055.76 332.7,-1021.1 401.25,-1008.26 500.16,-989.74 615.64,-994.37 695.24,-1001.54"/>
<polygon fill="black" stroke="black" points="694.97,-1005.03 705.25,-1002.47 695.62,-998.06 694.97,-1005.03"/>
<text text-anchor="middle" x="481.25" y="-1012.06" font-family="Times,serif" font-size="14.00">dcterms:creator</text>
</g>
<!-- http://w3id.org/oseg/ont/1.1.0/otrl -->
<g id="node21" class="node">
<title>http://w3id.org/oseg/ont/1.1.0/otrl</title>
<ellipse fill="none" stroke="#e377c2" cx="792.8" cy="-956.26" rx="50.82" ry="16.03"/>
<text text-anchor="middle" x="792.8" y="-952.56" font-family="Times,serif" font-size="14.00">ns3:otrl</text>
</g>
<!-- http://w3id.org/oseg/ont/otrl&#45;&gt;http://w3id.org/oseg/ont/1.1.0/otrl -->
<g id="edge21" class="edge">
<title>http://w3id.org/oseg/ont/otrl&#45;&gt;http://w3id.org/oseg/ont/1.1.0/otrl</title>
<path fill="none" stroke="black" d="M212.59,-1074.27C248.23,-1048.46 326.16,-996.4 401.25,-975.26 515.69,-943.05 656.34,-946.02 733.77,-951.11"/>
<polygon fill="black" stroke="black" points="733.59,-954.61 743.81,-951.81 734.08,-947.62 733.59,-954.61"/>
<text text-anchor="middle" x="481.25" y="-979.06" font-family="Times,serif" font-size="14.00">owl:versionIRI</text>
</g>
<!-- http://w3id.org/oseg/ont/oseg&#45;profiles#Iopa -->
<g id="node27" class="node">
<title>http://w3id.org/oseg/ont/oseg&#45;profiles#Iopa</title>
<ellipse fill="none" stroke="#e377c2" cx="792.8" cy="-905.26" rx="80.72" ry="16.03"/>
<text text-anchor="middle" x="792.8" y="-901.56" font-family="Times,serif" font-size="14.00">osegprof:Iopa</text>
</g>
<!-- http://w3id.org/oseg/ont/otrl&#45;&gt;http://w3id.org/oseg/ont/oseg&#45;profiles#Iopa -->
<g id="edge41" class="edge">
<title>http://w3id.org/oseg/ont/otrl&#45;&gt;http://w3id.org/oseg/ont/oseg&#45;profiles#Iopa</title>
<path fill="none" stroke="black" d="M206.69,-1073.71C237.86,-1040.43 316.76,-962.81 401.25,-931.26 502.75,-893.37 629.3,-892.59 710.33,-897.39"/>
<polygon fill="black" stroke="black" points="710.27,-900.9 720.47,-898.04 710.72,-893.91 710.27,-900.9"/>
<text text-anchor="middle" x="481.25" y="-935.06" font-family="Times,serif" font-size="14.00">dcterms:publisher</text>
</g>
<!-- http://w3id.org/oseg/ont/otrl#ODRL3 -->
<g id="node17" class="node">
<title>http://w3id.org/oseg/ont/otrl#ODRL3</title>
<ellipse fill="none" stroke="#e377c2" cx="1387.61" cy="-271.26" rx="69.09" ry="16.03"/>
<text text-anchor="middle" x="1387.61" y="-267.56" font-family="Times,serif" font-size="14.00">otrl:ODRL3</text>
</g>
<!-- http://w3id.org/oseg/ont/otrl#ODRL3&#45;&gt;http://w3id.org/oseg/ont/otrl#ODRL -->
<g id="edge13" class="edge">
<title>http://w3id.org/oseg/ont/otrl#ODRL3&#45;&gt;http://w3id.org/oseg/ont/otrl#ODRL</title>
<path fill="none" stroke="black" d="M1449.37,-263.66C1551.43,-250.86 1747.68,-226.13 1762.87,-223.26 1792.24,-217.73 1824.64,-209.76 1850.87,-202.82"/>
<polygon fill="black" stroke="black" points="1851.84,-206.18 1860.6,-200.21 1850.03,-199.42 1851.84,-206.18"/>
<text text-anchor="middle" x="1676.87" y="-249.06" font-family="Times,serif" font-size="14.00">a</text>
</g>
<!-- http://w3id.org/oseg/ont/otrl#goal -->
<g id="node20" class="node">
<title>http://w3id.org/oseg/ont/otrl#goal</title>
<ellipse fill="none" stroke="#e377c2" cx="1387.61" cy="-473.26" rx="54.39" ry="16.03"/>
<text text-anchor="middle" x="1387.61" y="-469.56" font-family="Times,serif" font-size="14.00">otrl:goal</text>
</g>
<!-- http://w3id.org/oseg/ont/otrl#goal&#45;&gt;http://w3id.org/oseg/ont/otrl#OTRL -->
<g id="edge7" class="edge">
<title>http://w3id.org/oseg/ont/otrl#goal&#45;&gt;http://w3id.org/oseg/ont/otrl#OTRL</title>
<path fill="none" stroke="black" d="M1432.39,-482.61C1473.35,-491.35 1536.25,-504.74 1590.87,-516.26 1667.29,-532.38 1692.15,-519.12 1762.87,-552.26 1809.66,-574.19 1854.84,-614.57 1880.7,-640.11"/>
<polygon fill="black" stroke="black" points="1878.24,-642.6 1887.78,-647.21 1883.2,-637.66 1878.24,-642.6"/>
<text text-anchor="middle" x="1676.87" y="-556.06" font-family="Times,serif" font-size="14.00">schema:domainIncludes</text>
</g>
<!-- http://w3id.org/oseg/ont/otrl#goal&#45;&gt;http://www.w3.org/2002/07/owl#DatatypeProperty -->
<g id="edge19" class="edge">
<title>http://w3id.org/oseg/ont/otrl#goal&#45;&gt;http://www.w3.org/2002/07/owl#DatatypeProperty</title>
<path fill="none" stroke="black" d="M1433.49,-464.41C1474.4,-456.5 1536.57,-444.86 1590.87,-436.26 1667.05,-424.21 1686.84,-426.2 1762.87,-413.26 1784.94,-409.51 1808.84,-404.8 1830.54,-400.27"/>
<polygon fill="black" stroke="black" points="1831.28,-403.7 1840.35,-398.21 1829.84,-396.85 1831.28,-403.7"/>
<text text-anchor="middle" x="1676.87" y="-440.06" font-family="Times,serif" font-size="14.00">a</text>
</g>
<!-- http://w3id.org/oseg/ont/otrl#goal&#45;&gt;http://w3id.org/oseg/ont/otrl#ODRL -->
<g id="edge18" class="edge">
<title>http://w3id.org/oseg/ont/otrl#goal&#45;&gt;http://w3id.org/oseg/ont/otrl#ODRL</title>
<path fill="none" stroke="black" d="M1426.6,-461.85C1466.44,-448.44 1529.2,-423.11 1572.87,-385.26 1583.77,-375.82 1578.59,-365.83 1590.87,-358.26 1656.44,-317.87 1694.17,-372.07 1762.87,-337.26 1819.26,-308.69 1864.96,-247.77 1887.56,-213.33"/>
<polygon fill="black" stroke="black" points="1890.59,-215.08 1893.05,-204.77 1884.7,-211.29 1890.59,-215.08"/>
<text text-anchor="middle" x="1676.87" y="-362.06" font-family="Times,serif" font-size="14.00">schema:domainIncludes</text>
</g>
<!-- http://w3id.org/oseg/ont/otrl#goal&#45;&gt;http://www.w3.org/1999/02/22&#45;rdf&#45;syntax&#45;ns#langString -->
<g id="edge43" class="edge">
<title>http://w3id.org/oseg/ont/otrl#goal&#45;&gt;http://www.w3.org/1999/02/22&#45;rdf&#45;syntax&#45;ns#langString</title>
<path fill="none" stroke="black" d="M1435.87,-480.94C1507.15,-491.24 1646.24,-506.38 1762.87,-489.26 1794.63,-484.6 1829.18,-474.3 1856.02,-465.06"/>
<polygon fill="black" stroke="black" points="1857.27,-468.33 1865.54,-461.72 1854.95,-461.73 1857.27,-468.33"/>
<text text-anchor="middle" x="1676.87" y="-501.06" font-family="Times,serif" font-size="14.00">range</text>
</g>
<!-- http://w3id.org/oseg/ont/otrl#OTRL2 -->
<g id="node22" class="node">
<title>http://w3id.org/oseg/ont/otrl#OTRL2</title>
<ellipse fill="none" stroke="#e377c2" cx="1387.61" cy="-548.26" rx="67.35" ry="16.03"/>
<text text-anchor="middle" x="1387.61" y="-544.56" font-family="Times,serif" font-size="14.00">otrl:OTRL2</text>
</g>
<!-- http://w3id.org/oseg/ont/otrl#OTRL2&#45;&gt;http://w3id.org/oseg/ont/otrl#OTRL -->
<g id="edge37" class="edge">
<title>http://w3id.org/oseg/ont/otrl#OTRL2&#45;&gt;http://w3id.org/oseg/ont/otrl#OTRL</title>
<path fill="none" stroke="black" d="M1449.98,-554.42C1540.57,-563.88 1705.55,-582.65 1762.87,-599.26 1800.24,-610.09 1840.38,-629.3 1868.06,-643.85"/>
<polygon fill="black" stroke="black" points="1866.48,-646.97 1876.95,-648.59 1869.77,-640.8 1866.48,-646.97"/>
<text text-anchor="middle" x="1676.87" y="-603.06" font-family="Times,serif" font-size="14.00">a</text>
</g>
<!-- http://w3id.org/oseg/ont/otrl#ODRL2 -->
<g id="node23" class="node">
<title>http://w3id.org/oseg/ont/otrl#ODRL2</title>
<ellipse fill="none" stroke="#e377c2" cx="1387.61" cy="-220.26" rx="69.09" ry="16.03"/>
<text text-anchor="middle" x="1387.61" y="-216.56" font-family="Times,serif" font-size="14.00">otrl:ODRL2</text>
</g>
<!-- http://w3id.org/oseg/ont/otrl#ODRL2&#45;&gt;http://w3id.org/oseg/ont/otrl#ODRL -->
<g id="edge24" class="edge">
<title>http://w3id.org/oseg/ont/otrl#ODRL2&#45;&gt;http://w3id.org/oseg/ont/otrl#ODRL</title>
<path fill="none" stroke="black" d="M1454.79,-216.15C1552,-210.1 1732.62,-198.86 1832.3,-192.66"/>
<polygon fill="black" stroke="black" points="1832.8,-196.13 1842.57,-192.02 1832.37,-189.15 1832.8,-196.13"/>
<text text-anchor="middle" x="1676.87" y="-211.06" font-family="Times,serif" font-size="14.00">a</text>
</g>
<!-- http://w3id.org/oseg/ont/otrl#OTRL3 -->
<g id="node24" class="node">
<title>http://w3id.org/oseg/ont/otrl#OTRL3</title>
<ellipse fill="none" stroke="#e377c2" cx="1387.61" cy="-854.26" rx="67.35" ry="16.03"/>
<text text-anchor="middle" x="1387.61" y="-850.56" font-family="Times,serif" font-size="14.00">otrl:OTRL3</text>
</g>
<!-- http://w3id.org/oseg/ont/otrl#OTRL3&#45;&gt;http://w3id.org/oseg/ont/otrl#OTRL -->
<g id="edge27" class="edge">
<title>http://w3id.org/oseg/ont/otrl#OTRL3&#45;&gt;http://w3id.org/oseg/ont/otrl#OTRL</title>
<path fill="none" stroke="black" d="M1449.92,-860.4C1527.2,-865.38 1662.1,-864.79 1762.87,-814.26 1820.08,-785.58 1865.75,-723.18 1888.05,-688.24"/>
<polygon fill="black" stroke="black" points="1891.13,-689.91 1893.46,-679.58 1885.19,-686.2 1891.13,-689.91"/>
<text text-anchor="middle" x="1676.87" y="-863.06" font-family="Times,serif" font-size="14.00">a</text>
</g>
<!-- http://w3id.org/oseg/ont/otrl#OTRL5 -->
<g id="node25" class="node">
<title>http://w3id.org/oseg/ont/otrl#OTRL5</title>
<ellipse fill="none" stroke="#e377c2" cx="1387.61" cy="-803.26" rx="67.35" ry="16.03"/>
<text text-anchor="middle" x="1387.61" y="-799.56" font-family="Times,serif" font-size="14.00">otrl:OTRL5</text>
</g>
<!-- http://w3id.org/oseg/ont/otrl#OTRL5&#45;&gt;http://w3id.org/oseg/ont/otrl#OTRL -->
<g id="edge28" class="edge">
<title>http://w3id.org/oseg/ont/otrl#OTRL5&#45;&gt;http://w3id.org/oseg/ont/otrl#OTRL</title>
<path fill="none" stroke="black" d="M1455,-803.99C1531.55,-802.79 1660.04,-794.45 1762.87,-756.26 1807,-739.87 1851.12,-707.21 1877.72,-685.29"/>
<polygon fill="black" stroke="black" points="1879.97,-687.97 1885.39,-678.87 1875.48,-682.61 1879.97,-687.97"/>
<text text-anchor="middle" x="1676.87" y="-799.06" font-family="Times,serif" font-size="14.00">a</text>
</g>
<!-- http://w3id.org/oseg/ont/otrl#exitCriteria -->
<g id="node26" class="node">
<title>http://w3id.org/oseg/ont/otrl#exitCriteria</title>
<ellipse fill="none" stroke="#e377c2" cx="1387.61" cy="-360.26" rx="91.43" ry="16.03"/>
<text text-anchor="middle" x="1387.61" y="-356.56" font-family="Times,serif" font-size="14.00">otrl:exitCriteria</text>
</g>
<!-- http://w3id.org/oseg/ont/otrl#exitCriteria&#45;&gt;http://w3id.org/oseg/ont/otrl#OTRL -->
<g id="edge39" class="edge">
<title>http://w3id.org/oseg/ont/otrl#exitCriteria&#45;&gt;http://w3id.org/oseg/ont/otrl#OTRL</title>
<path fill="none" stroke="black" d="M1415.72,-375.79C1453.6,-396.69 1525.12,-433.32 1590.87,-451.26 1665.06,-471.51 1696.38,-431.61 1762.87,-470.26 1829.96,-509.27 1873.89,-594.65 1892.6,-637.56"/>
<polygon fill="black" stroke="black" points="1889.48,-639.18 1896.61,-647.02 1895.93,-636.45 1889.48,-639.18"/>
<text text-anchor="middle" x="1676.87" y="-474.06" font-family="Times,serif" font-size="14.00">schema:domainIncludes</text>
</g>
<!-- http://w3id.org/oseg/ont/otrl#exitCriteria&#45;&gt;http://www.w3.org/2002/07/owl#DatatypeProperty -->
<g id="edge33" class="edge">
<title>http://w3id.org/oseg/ont/otrl#exitCriteria&#45;&gt;http://www.w3.org/2002/07/owl#DatatypeProperty</title>
<path fill="none" stroke="black" d="M1435.49,-346.33C1506.86,-327.17 1646.74,-297.7 1762.87,-322.26 1800.26,-330.17 1839.82,-348.75 1867.31,-363.52"/>
<polygon fill="black" stroke="black" points="1865.7,-366.63 1876.16,-368.36 1869.07,-360.49 1865.7,-366.63"/>
<text text-anchor="middle" x="1676.87" y="-326.06" font-family="Times,serif" font-size="14.00">a</text>
</g>
<!-- http://w3id.org/oseg/ont/otrl#exitCriteria&#45;&gt;http://w3id.org/oseg/ont/otrl#ODRL -->
<g id="edge14" class="edge">
<title>http://w3id.org/oseg/ont/otrl#exitCriteria&#45;&gt;http://w3id.org/oseg/ont/otrl#ODRL</title>
<path fill="none" stroke="black" d="M1428.46,-345.61C1468.94,-331.12 1533.64,-309.03 1590.87,-294.26 1666.24,-274.82 1689.36,-286.86 1762.87,-261.26 1801.48,-247.82 1842.64,-225.26 1870.26,-208.78"/>
<polygon fill="black" stroke="black" points="1872.34,-211.61 1879.09,-203.44 1868.72,-205.62 1872.34,-211.61"/>
<text text-anchor="middle" x="1676.87" y="-298.06" font-family="Times,serif" font-size="14.00">schema:domainIncludes</text>
</g>
<!-- http://w3id.org/oseg/ont/otrl#exitCriteria&#45;&gt;http://www.w3.org/1999/02/22&#45;rdf&#45;syntax&#45;ns#langString -->
<g id="edge5" class="edge">
<title>http://w3id.org/oseg/ont/otrl#exitCriteria&#45;&gt;http://www.w3.org/1999/02/22&#45;rdf&#45;syntax&#45;ns#langString</title>
<path fill="none" stroke="black" d="M1471.8,-366.74C1573.66,-374.98 1736.02,-389.22 1762.87,-398.26 1771.75,-401.26 1772.33,-405.4 1780.87,-409.26 1800.32,-418.07 1822.4,-425.63 1842.38,-431.63"/>
<polygon fill="black" stroke="black" points="1841.41,-435 1852,-434.45 1843.38,-428.28 1841.41,-435"/>
<text text-anchor="middle" x="1676.87" y="-402.06" font-family="Times,serif" font-size="14.00">range</text>
</g>
<!-- http://w3id.org/oseg/ont/otrl#Odrl1 -->
<g id="node28" class="node">
<title>http://w3id.org/oseg/ont/otrl#Odrl1</title>
<ellipse fill="none" stroke="black" cx="792.8" cy="-118.26" rx="191.75" ry="16.03"/>
<text text-anchor="middle" x="792.8" y="-114.56" font-family="Times,serif" font-size="14.00">http://w3id.org/oseg/ont/otrl#Odrl1</text>
</g>
<!-- http://w3id.org/oseg/ont/otrl#Odrl1&#45;&gt;http://w3id.org/oseg/ont/otrl#ODRL1 -->
<g id="edge2" class="edge">
<title>http://w3id.org/oseg/ont/otrl#Odrl1&#45;&gt;http://w3id.org/oseg/ont/otrl#ODRL1</title>
<path fill="none" stroke="black" d="M984.63,-118.26C1094.18,-118.26 1225.86,-118.26 1307.91,-118.26"/>
<polygon fill="black" stroke="black" points="1308.16,-121.76 1318.16,-118.26 1308.16,-114.76 1308.16,-121.76"/>
<text text-anchor="middle" x="1104.34" y="-122.06" font-family="Times,serif" font-size="14.00">schema:supersededBy</text>
</g>
<!-- http://w3id.org/oseg/ont/otrl#Odrl3Star -->
<g id="node29" class="node">
<title>http://w3id.org/oseg/ont/otrl#Odrl3Star</title>
<ellipse fill="none" stroke="black" cx="792.8" cy="-67.26" rx="213.59" ry="16.03"/>
<text text-anchor="middle" x="792.8" y="-63.56" font-family="Times,serif" font-size="14.00">http://w3id.org/oseg/ont/otrl#Odrl3Star</text>
</g>
<!-- http://w3id.org/oseg/ont/otrl#Odrl3Star&#45;&gt;http://w3id.org/oseg/ont/otrl#ODRL3Star -->
<g id="edge3" class="edge">
<title>http://w3id.org/oseg/ont/otrl#Odrl3Star&#45;&gt;http://w3id.org/oseg/ont/otrl#ODRL3Star</title>
<path fill="none" stroke="black" d="M1006.56,-67.26C1102.06,-67.26 1210.18,-67.26 1286.62,-67.26"/>
<polygon fill="black" stroke="black" points="1286.72,-70.76 1296.72,-67.26 1286.72,-63.76 1286.72,-70.76"/>
<text text-anchor="middle" x="1104.34" y="-71.06" font-family="Times,serif" font-size="14.00">schema:supersededBy</text>
</g>
<!-- http://w3id.org/oseg/ont/otrl#Odrl5 -->
<g id="node30" class="node">
<title>http://w3id.org/oseg/ont/otrl#Odrl5</title>
<ellipse fill="none" stroke="black" cx="191.63" cy="-16.26" rx="191.75" ry="16.03"/>
<text text-anchor="middle" x="191.63" y="-12.56" font-family="Times,serif" font-size="14.00">http://w3id.org/oseg/ont/otrl#Odrl5</text>
</g>
<!-- http://w3id.org/oseg/ont/otrl#Odrl5&#45;&gt;http://w3id.org/oseg/ont/otrl#Odrl4 -->
<g id="edge4" class="edge">
<title>http://w3id.org/oseg/ont/otrl#Odrl5&#45;&gt;http://w3id.org/oseg/ont/otrl#Odrl4</title>
<path fill="none" stroke="black" d="M383.44,-16.26C498.54,-16.26 638.43,-16.26 721.01,-16.26"/>
<polygon fill="black" stroke="black" points="721.03,-19.76 731.03,-16.26 721.03,-12.76 721.03,-19.76"/>
<text text-anchor="middle" x="481.25" y="-20.06" font-family="Times,serif" font-size="14.00">schema:supersededBy</text>
</g>
<!-- http://w3id.org/oseg/ont/otrl#Otrl4 -->
<g id="node31" class="node">
<title>http://w3id.org/oseg/ont/otrl#Otrl4</title>
<ellipse fill="none" stroke="black" cx="792.8" cy="-701.26" rx="189.51" ry="16.03"/>
<text text-anchor="middle" x="792.8" y="-697.56" font-family="Times,serif" font-size="14.00">http://w3id.org/oseg/ont/otrl#Otrl4</text>
</g>
<!-- http://w3id.org/oseg/ont/otrl#Otrl4&#45;&gt;http://w3id.org/oseg/ont/otrl#OTRL4 -->
<g id="edge8" class="edge">
<title>http://w3id.org/oseg/ont/otrl#Otrl4&#45;&gt;http://w3id.org/oseg/ont/otrl#OTRL4</title>
<path fill="none" stroke="black" d="M982.59,-701.26C1093.54,-701.26 1227.77,-701.26 1310.15,-701.26"/>
<polygon fill="black" stroke="black" points="1310.19,-704.76 1320.19,-701.26 1310.19,-697.76 1310.19,-704.76"/>
<text text-anchor="middle" x="1104.34" y="-705.06" font-family="Times,serif" font-size="14.00">schema:supersededBy</text>
</g>
<!-- http://w3id.org/oseg/ont/otrl#Otrl6 -->
<g id="node32" class="node">
<title>http://w3id.org/oseg/ont/otrl#Otrl6</title>
<ellipse fill="none" stroke="black" cx="792.8" cy="-599.26" rx="189.51" ry="16.03"/>
<text text-anchor="middle" x="792.8" y="-595.56" font-family="Times,serif" font-size="14.00">http://w3id.org/oseg/ont/otrl#Otrl6</text>
</g>
<!-- http://w3id.org/oseg/ont/otrl#Otrl6&#45;&gt;http://w3id.org/oseg/ont/otrl#OTRL6 -->
<g id="edge10" class="edge">
<title>http://w3id.org/oseg/ont/otrl#Otrl6&#45;&gt;http://w3id.org/oseg/ont/otrl#OTRL6</title>
<path fill="none" stroke="black" d="M982.59,-599.26C1093.54,-599.26 1227.77,-599.26 1310.15,-599.26"/>
<polygon fill="black" stroke="black" points="1310.19,-602.76 1320.19,-599.26 1310.19,-595.76 1310.19,-602.76"/>
<text text-anchor="middle" x="1104.34" y="-603.06" font-family="Times,serif" font-size="14.00">schema:supersededBy</text>
</g>
<!-- http://w3id.org/oseg/ont/otrl#Odrl3 -->
<g id="node33" class="node">
<title>http://w3id.org/oseg/ont/otrl#Odrl3</title>
<ellipse fill="none" stroke="black" cx="792.8" cy="-271.26" rx="191.75" ry="16.03"/>
<text text-anchor="middle" x="792.8" y="-267.56" font-family="Times,serif" font-size="14.00">http://w3id.org/oseg/ont/otrl#Odrl3</text>
</g>
<!-- http://w3id.org/oseg/ont/otrl#Odrl3&#45;&gt;http://w3id.org/oseg/ont/otrl#ODRL3 -->
<g id="edge20" class="edge">
<title>http://w3id.org/oseg/ont/otrl#Odrl3&#45;&gt;http://w3id.org/oseg/ont/otrl#ODRL3</title>
<path fill="none" stroke="black" d="M984.63,-271.26C1094.18,-271.26 1225.86,-271.26 1307.91,-271.26"/>
<polygon fill="black" stroke="black" points="1308.16,-274.76 1318.16,-271.26 1308.16,-267.76 1308.16,-274.76"/>
<text text-anchor="middle" x="1104.34" y="-275.06" font-family="Times,serif" font-size="14.00">schema:supersededBy</text>
</g>
<!-- http://w3id.org/oseg/ont/otrl#Otrl2 -->
<g id="node34" class="node">
<title>http://w3id.org/oseg/ont/otrl#Otrl2</title>
<ellipse fill="none" stroke="black" cx="792.8" cy="-548.26" rx="189.51" ry="16.03"/>
<text text-anchor="middle" x="792.8" y="-544.56" font-family="Times,serif" font-size="14.00">http://w3id.org/oseg/ont/otrl#Otrl2</text>
</g>
<!-- http://w3id.org/oseg/ont/otrl#Otrl2&#45;&gt;http://w3id.org/oseg/ont/otrl#OTRL2 -->
<g id="edge22" class="edge">
<title>http://w3id.org/oseg/ont/otrl#Otrl2&#45;&gt;http://w3id.org/oseg/ont/otrl#OTRL2</title>
<path fill="none" stroke="black" d="M982.59,-548.26C1093.54,-548.26 1227.77,-548.26 1310.15,-548.26"/>
<polygon fill="black" stroke="black" points="1310.19,-551.76 1320.19,-548.26 1310.19,-544.76 1310.19,-551.76"/>
<text text-anchor="middle" x="1104.34" y="-552.06" font-family="Times,serif" font-size="14.00">schema:supersededBy</text>
</g>
<!-- http://w3id.org/oseg/ont/otrl#Odrl2 -->
<g id="node35" class="node">
<title>http://w3id.org/oseg/ont/otrl#Odrl2</title>
<ellipse fill="none" stroke="black" cx="792.8" cy="-220.26" rx="191.75" ry="16.03"/>
<text text-anchor="middle" x="792.8" y="-216.56" font-family="Times,serif" font-size="14.00">http://w3id.org/oseg/ont/otrl#Odrl2</text>
</g>
<!-- http://w3id.org/oseg/ont/otrl#Odrl2&#45;&gt;http://w3id.org/oseg/ont/otrl#ODRL2 -->
<g id="edge23" class="edge">
<title>http://w3id.org/oseg/ont/otrl#Odrl2&#45;&gt;http://w3id.org/oseg/ont/otrl#ODRL2</title>
<path fill="none" stroke="black" d="M984.63,-220.26C1094.18,-220.26 1225.86,-220.26 1307.91,-220.26"/>
<polygon fill="black" stroke="black" points="1308.16,-223.76 1318.16,-220.26 1308.16,-216.76 1308.16,-223.76"/>
<text text-anchor="middle" x="1104.34" y="-224.06" font-family="Times,serif" font-size="14.00">schema:supersededBy</text>
</g>
<!-- http://w3id.org/oseg/ont/otrl#Otrl3 -->
<g id="node36" class="node">
<title>http://w3id.org/oseg/ont/otrl#Otrl3</title>
<ellipse fill="none" stroke="black" cx="792.8" cy="-854.26" rx="189.51" ry="16.03"/>
<text text-anchor="middle" x="792.8" y="-850.56" font-family="Times,serif" font-size="14.00">http://w3id.org/oseg/ont/otrl#Otrl3</text>
</g>
<!-- http://w3id.org/oseg/ont/otrl#Otrl3&#45;&gt;http://w3id.org/oseg/ont/otrl#OTRL3 -->
<g id="edge26" class="edge">
<title>http://w3id.org/oseg/ont/otrl#Otrl3&#45;&gt;http://w3id.org/oseg/ont/otrl#OTRL3</title>
<path fill="none" stroke="black" d="M982.59,-854.26C1093.54,-854.26 1227.77,-854.26 1310.15,-854.26"/>
<polygon fill="black" stroke="black" points="1310.19,-857.76 1320.19,-854.26 1310.19,-850.76 1310.19,-857.76"/>
<text text-anchor="middle" x="1104.34" y="-858.06" font-family="Times,serif" font-size="14.00">schema:supersededBy</text>
</g>
<!-- http://w3id.org/oseg/ont/otrl#Otrl5 -->
<g id="node37" class="node">
<title>http://w3id.org/oseg/ont/otrl#Otrl5</title>
<ellipse fill="none" stroke="black" cx="792.8" cy="-803.26" rx="189.51" ry="16.03"/>
<text text-anchor="middle" x="792.8" y="-799.56" font-family="Times,serif" font-size="14.00">http://w3id.org/oseg/ont/otrl#Otrl5</text>
</g>
<!-- http://w3id.org/oseg/ont/otrl#Otrl5&#45;&gt;http://w3id.org/oseg/ont/otrl#OTRL5 -->
<g id="edge32" class="edge">
<title>http://w3id.org/oseg/ont/otrl#Otrl5&#45;&gt;http://w3id.org/oseg/ont/otrl#OTRL5</title>
<path fill="none" stroke="black" d="M982.59,-803.26C1093.54,-803.26 1227.77,-803.26 1310.15,-803.26"/>
<polygon fill="black" stroke="black" points="1310.19,-806.76 1320.19,-803.26 1310.19,-799.76 1310.19,-806.76"/>
<text text-anchor="middle" x="1104.34" y="-807.06" font-family="Times,serif" font-size="14.00">schema:supersededBy</text>
</g>
<!-- http://w3id.org/oseg/ont/otrl#Otrl1 -->
<g id="node38" class="node">
<title>http://w3id.org/oseg/ont/otrl#Otrl1</title>
<ellipse fill="none" stroke="black" cx="792.8" cy="-650.26" rx="189.51" ry="16.03"/>
<text text-anchor="middle" x="792.8" y="-646.56" font-family="Times,serif" font-size="14.00">http://w3id.org/oseg/ont/otrl#Otrl1</text>
</g>
<!-- http://w3id.org/oseg/ont/otrl#Otrl1&#45;&gt;http://w3id.org/oseg/ont/otrl#OTRL1 -->
<g id="edge34" class="edge">
<title>http://w3id.org/oseg/ont/otrl#Otrl1&#45;&gt;http://w3id.org/oseg/ont/otrl#OTRL1</title>
<path fill="none" stroke="black" d="M982.59,-650.26C1093.54,-650.26 1227.77,-650.26 1310.15,-650.26"/>
<polygon fill="black" stroke="black" points="1310.19,-653.76 1320.19,-650.26 1310.19,-646.76 1310.19,-653.76"/>
<text text-anchor="middle" x="1104.34" y="-654.06" font-family="Times,serif" font-size="14.00">schema:supersededBy</text>
</g>
<!-- http://w3id.org/oseg/ont/otrl#Odrl -->
<g id="node39" class="node">
<title>http://w3id.org/oseg/ont/otrl#Odrl</title>
<ellipse fill="none" stroke="black" cx="1387.61" cy="-169.26" rx="185.02" ry="16.03"/>
<text text-anchor="middle" x="1387.61" y="-165.56" font-family="Times,serif" font-size="14.00">http://w3id.org/oseg/ont/otrl#Odrl</text>
</g>
<!-- http://w3id.org/oseg/ont/otrl#Odrl&#45;&gt;http://w3id.org/oseg/ont/otrl#ODRL -->
<g id="edge38" class="edge">
<title>http://w3id.org/oseg/ont/otrl#Odrl&#45;&gt;http://w3id.org/oseg/ont/otrl#ODRL</title>
<path fill="none" stroke="black" d="M1567.24,-165.19C1629.23,-164.99 1699.17,-166.1 1762.87,-170.26 1788.12,-171.91 1815.79,-175.16 1839.81,-178.45"/>
<polygon fill="black" stroke="black" points="1839.47,-181.94 1849.86,-179.86 1840.44,-175 1839.47,-181.94"/>
<text text-anchor="middle" x="1676.87" y="-174.06" font-family="Times,serif" font-size="14.00">schema:supersededBy</text>
</g>
<!-- http://w3id.org/oseg/ont/otrl#Otrl -->
<g id="node40" class="node">
<title>http://w3id.org/oseg/ont/otrl#Otrl</title>
<ellipse fill="none" stroke="black" cx="1387.61" cy="-752.26" rx="183.28" ry="16.03"/>
<text text-anchor="middle" x="1387.61" y="-748.56" font-family="Times,serif" font-size="14.00">http://w3id.org/oseg/ont/otrl#Otrl</text>
</g>
<!-- http://w3id.org/oseg/ont/otrl#Otrl&#45;&gt;http://w3id.org/oseg/ont/otrl#OTRL -->
<g id="edge42" class="edge">
<title>http://w3id.org/oseg/ont/otrl#Otrl&#45;&gt;http://w3id.org/oseg/ont/otrl#OTRL</title>
<path fill="none" stroke="black" d="M1537.33,-742.86C1606.47,-736.64 1689.45,-726.51 1762.87,-710.26 1796.1,-702.91 1832.5,-690.55 1859.87,-680.35"/>
<polygon fill="black" stroke="black" points="1861.4,-683.51 1869.52,-676.71 1858.92,-676.97 1861.4,-683.51"/>
<text text-anchor="middle" x="1676.87" y="-741.06" font-family="Times,serif" font-size="14.00">schema:supersededBy</text>
</g>
</g>
</svg>
