<?xml version="1.0" encoding="UTF-8" standalone="no"?>
<!DOCTYPE svg PUBLIC "-//W3C//DTD SVG 1.1//EN"
 "http://www.w3.org/Graphics/SVG/1.1/DTD/svg11.dtd">
<!-- Generated by graphviz version 2.43.0 (0)
 -->
<!-- Title: G Pages: 1 -->
<svg width="2293pt" height="1794pt"
 viewBox="0.00 0.00 2293.00 1794.00" xmlns="http://www.w3.org/2000/svg" xmlns:xlink="http://www.w3.org/1999/xlink">
<g id="graph0" class="graph" transform="scale(1 1) rotate(0) translate(4 1790)">
<title>G</title>
<polygon fill="white" stroke="transparent" points="-4,4 -4,-1790 2289,-1790 2289,4 -4,4"/>
<!-- http://spdx.org/rdf/terms#File -->
<g id="node1" class="node">
<title>http://spdx.org/rdf/terms#File</title>
<ellipse fill="none" stroke="#1f77b4" cx="1502.26" cy="-483.27" rx="62.45" ry="16.03"/>
<text text-anchor="middle" x="1502.26" y="-479.57" font-family="Times,serif" font-size="14.00">spdxt:File</text>
</g>
<!-- https://w3id.org/oseg/ont/otrl#ODRL4 -->
<g id="node2" class="node">
<title>https://w3id.org/oseg/ont/otrl#ODRL4</title>
<ellipse fill="none" stroke="#e377c2" cx="1513.51" cy="-1221.47" rx="69.09" ry="16.03"/>
<text text-anchor="middle" x="1513.51" y="-1217.77" font-family="Times,serif" font-size="14.00">otrl:ODRL4</text>
</g>
<!-- https://w3id.org/oseg/ont/otrl#ODRL -->
<g id="node12" class="node">
<title>https://w3id.org/oseg/ont/otrl#ODRL</title>
<ellipse fill="none" stroke="#e377c2" cx="1234.56" cy="-1134.16" rx="62.87" ry="16.03"/>
<text text-anchor="middle" x="1234.56" y="-1130.46" font-family="Times,serif" font-size="14.00">otrl:ODRL</text>
</g>
<!-- https://w3id.org/oseg/ont/otrl#ODRL4&#45;&gt;https://w3id.org/oseg/ont/otrl#ODRL -->
<g id="edge6" class="edge">
<title>https://w3id.org/oseg/ont/otrl#ODRL4&#45;&gt;https://w3id.org/oseg/ont/otrl#ODRL</title>
<path fill="none" stroke="black" d="M1471.75,-1208.4C1421.67,-1192.72 1337.82,-1166.48 1284.4,-1149.76"/>
<polygon fill="black" stroke="black" points="1285.39,-1146.4 1274.8,-1146.75 1283.29,-1153.08 1285.39,-1146.4"/>
</g>
<!-- https://w3id.org/oseg/ont/otrl#ODRL1 -->
<g id="node3" class="node">
<title>https://w3id.org/oseg/ont/otrl#ODRL1</title>
<ellipse fill="none" stroke="#e377c2" cx="1025.01" cy="-1235.51" rx="69.09" ry="16.03"/>
<text text-anchor="middle" x="1025.01" y="-1231.81" font-family="Times,serif" font-size="14.00">otrl:ODRL1</text>
</g>
<!-- https://w3id.org/oseg/ont/otrl#ODRL1&#45;&gt;https://w3id.org/oseg/ont/otrl#ODRL -->
<g id="edge53" class="edge">
<title>https://w3id.org/oseg/ont/otrl#ODRL1&#45;&gt;https://w3id.org/oseg/ont/otrl#ODRL</title>
<path fill="none" stroke="black" d="M1055.48,-1220.77C1092.55,-1202.84 1155.19,-1172.55 1195.69,-1152.96"/>
<polygon fill="black" stroke="black" points="1197.26,-1156.09 1204.73,-1148.58 1194.21,-1149.79 1197.26,-1156.09"/>
</g>
<!-- https://w3id.org/oseg/ont/otrl#ODRL2 -->
<g id="node4" class="node">
<title>https://w3id.org/oseg/ont/otrl#ODRL2</title>
<ellipse fill="none" stroke="#e377c2" cx="1185.09" cy="-1384.46" rx="69.09" ry="16.03"/>
<text text-anchor="middle" x="1185.09" y="-1380.76" font-family="Times,serif" font-size="14.00">otrl:ODRL2</text>
</g>
<!-- https://w3id.org/oseg/ont/otrl#ODRL2&#45;&gt;https://w3id.org/oseg/ont/otrl#ODRL -->
<g id="edge21" class="edge">
<title>https://w3id.org/oseg/ont/otrl#ODRL2&#45;&gt;https://w3id.org/oseg/ont/otrl#ODRL</title>
<path fill="none" stroke="black" d="M1188.34,-1368.04C1196.71,-1325.7 1219.08,-1212.52 1229.31,-1160.72"/>
<polygon fill="black" stroke="black" points="1232.8,-1161.13 1231.31,-1150.64 1225.93,-1159.77 1232.8,-1161.13"/>
</g>
<!-- https://w3id.org/oseg/ont/otrl#OTRL1 -->
<g id="node5" class="node">
<title>https://w3id.org/oseg/ont/otrl#OTRL1</title>
<ellipse fill="none" stroke="#e377c2" cx="692.24" cy="-788.67" rx="67.35" ry="16.03"/>
<text text-anchor="middle" x="692.24" y="-784.97" font-family="Times,serif" font-size="14.00">otrl:OTRL1</text>
</g>
<!-- https://w3id.org/oseg/ont/otrl#OTRL -->
<g id="node13" class="node">
<title>https://w3id.org/oseg/ont/otrl#OTRL</title>
<ellipse fill="none" stroke="#e377c2" cx="860.45" cy="-667.82" rx="60.62" ry="16.03"/>
<text text-anchor="middle" x="860.45" y="-664.12" font-family="Times,serif" font-size="14.00">otrl:OTRL</text>
</g>
<!-- https://w3id.org/oseg/ont/otrl#OTRL1&#45;&gt;https://w3id.org/oseg/ont/otrl#OTRL -->
<g id="edge2" class="edge">
<title>https://w3id.org/oseg/ont/otrl#OTRL1&#45;&gt;https://w3id.org/oseg/ont/otrl#OTRL</title>
<path fill="none" stroke="black" d="M713.89,-773.12C743.62,-751.76 797.21,-713.26 830.69,-689.2"/>
<polygon fill="black" stroke="black" points="833.08,-691.8 839.16,-683.12 828.99,-686.12 833.08,-691.8"/>
</g>
<!-- https://w3id.org/oseg/ont/otrl#ODRL3Star -->
<g id="node6" class="node">
<title>https://w3id.org/oseg/ont/otrl#ODRL3Star</title>
<ellipse fill="none" stroke="#e377c2" cx="1404.66" cy="-1364.69" rx="90.52" ry="16.03"/>
<text text-anchor="middle" x="1404.66" y="-1360.99" font-family="Times,serif" font-size="14.00">otrl:ODRL3Star</text>
</g>
<!-- https://w3id.org/oseg/ont/otrl#ODRL3Star&#45;&gt;https://w3id.org/oseg/ont/otrl#ODRL -->
<g id="edge36" class="edge">
<title>https://w3id.org/oseg/ont/otrl#ODRL3Star&#45;&gt;https://w3id.org/oseg/ont/otrl#ODRL</title>
<path fill="none" stroke="black" d="M1392.7,-1348.48C1363.3,-1308.63 1287.36,-1205.71 1252.52,-1158.49"/>
<polygon fill="black" stroke="black" points="1255.27,-1156.32 1246.51,-1150.35 1249.63,-1160.47 1255.27,-1156.32"/>
</g>
<!-- https://w3id.org/oseg/ont/otrl#OTRL4 -->
<g id="node7" class="node">
<title>https://w3id.org/oseg/ont/otrl#OTRL4</title>
<ellipse fill="none" stroke="#e377c2" cx="588.81" cy="-667.91" rx="67.35" ry="16.03"/>
<text text-anchor="middle" x="588.81" y="-664.21" font-family="Times,serif" font-size="14.00">otrl:OTRL4</text>
</g>
<!-- https://w3id.org/oseg/ont/otrl#OTRL4&#45;&gt;https://w3id.org/oseg/ont/otrl#OTRL -->
<g id="edge46" class="edge">
<title>https://w3id.org/oseg/ont/otrl#OTRL4&#45;&gt;https://w3id.org/oseg/ont/otrl#OTRL</title>
<path fill="none" stroke="black" d="M656.31,-667.89C696.72,-667.87 748.05,-667.86 789.13,-667.84"/>
<polygon fill="black" stroke="black" points="789.34,-671.34 799.34,-667.84 789.33,-664.34 789.34,-671.34"/>
</g>
<!-- https://w3id.org/oseg/ont/otrl#OTRL2 -->
<g id="node8" class="node">
<title>https://w3id.org/oseg/ont/otrl#OTRL2</title>
<ellipse fill="none" stroke="#e377c2" cx="733.39" cy="-607.39" rx="67.35" ry="16.03"/>
<text text-anchor="middle" x="733.39" y="-603.69" font-family="Times,serif" font-size="14.00">otrl:OTRL2</text>
</g>
<!-- https://w3id.org/oseg/ont/otrl#OTRL2&#45;&gt;https://w3id.org/oseg/ont/otrl#OTRL -->
<g id="edge17" class="edge">
<title>https://w3id.org/oseg/ont/otrl#OTRL2&#45;&gt;https://w3id.org/oseg/ont/otrl#OTRL</title>
<path fill="none" stroke="black" d="M764.15,-622.02C781.29,-630.17 802.81,-640.4 821.15,-649.13"/>
<polygon fill="black" stroke="black" points="819.88,-652.4 830.42,-653.54 822.89,-646.08 819.88,-652.4"/>
</g>
<!-- https://w3id.org/oseg/ont/otrl#ODRL3 -->
<g id="node9" class="node">
<title>https://w3id.org/oseg/ont/otrl#ODRL3</title>
<ellipse fill="none" stroke="#e377c2" cx="1491.85" cy="-1040.41" rx="69.09" ry="16.03"/>
<text text-anchor="middle" x="1491.85" y="-1036.71" font-family="Times,serif" font-size="14.00">otrl:ODRL3</text>
</g>
<!-- https://w3id.org/oseg/ont/otrl#ODRL3&#45;&gt;https://w3id.org/oseg/ont/otrl#ODRL -->
<g id="edge45" class="edge">
<title>https://w3id.org/oseg/ont/otrl#ODRL3&#45;&gt;https://w3id.org/oseg/ont/otrl#ODRL</title>
<path fill="none" stroke="black" d="M1454.16,-1054.15C1408.1,-1070.93 1330.19,-1099.32 1280.62,-1117.38"/>
<polygon fill="black" stroke="black" points="1279.3,-1114.13 1271.1,-1120.84 1281.7,-1120.71 1279.3,-1114.13"/>
</g>
<!-- https://w3id.org/oseg/ont/otrl#OTRL5 -->
<g id="node10" class="node">
<title>https://w3id.org/oseg/ont/otrl#OTRL5</title>
<ellipse fill="none" stroke="#e377c2" cx="929.82" cy="-395.52" rx="67.35" ry="16.03"/>
<text text-anchor="middle" x="929.82" y="-391.82" font-family="Times,serif" font-size="14.00">otrl:OTRL5</text>
</g>
<!-- https://w3id.org/oseg/ont/otrl#OTRL5&#45;&gt;https://w3id.org/oseg/ont/otrl#OTRL -->
<g id="edge23" class="edge">
<title>https://w3id.org/oseg/ont/otrl#OTRL5&#45;&gt;https://w3id.org/oseg/ont/otrl#OTRL</title>
<path fill="none" stroke="black" d="M925.58,-412.14C913.92,-457.92 881.27,-586.1 867.13,-641.63"/>
<polygon fill="black" stroke="black" points="863.71,-640.86 864.63,-651.42 870.49,-642.59 863.71,-640.86"/>
</g>
<!-- https://w3id.org/oseg/ont/otrl#OTRL3 -->
<g id="node11" class="node">
<title>https://w3id.org/oseg/ont/otrl#OTRL3</title>
<ellipse fill="none" stroke="#e377c2" cx="764.69" cy="-427.95" rx="67.35" ry="16.03"/>
<text text-anchor="middle" x="764.69" y="-424.25" font-family="Times,serif" font-size="14.00">otrl:OTRL3</text>
</g>
<!-- https://w3id.org/oseg/ont/otrl#OTRL3&#45;&gt;https://w3id.org/oseg/ont/otrl#OTRL -->
<g id="edge11" class="edge">
<title>https://w3id.org/oseg/ont/otrl#OTRL3&#45;&gt;https://w3id.org/oseg/ont/otrl#OTRL</title>
<path fill="none" stroke="black" d="M771.27,-444.43C787.68,-485.53 830.48,-592.75 850.22,-642.18"/>
<polygon fill="black" stroke="black" points="846.99,-643.55 853.95,-651.54 853.49,-640.95 846.99,-643.55"/>
</g>
<!-- https://w3id.org/oseg/ont/otrl#OTRL6 -->
<g id="node14" class="node">
<title>https://w3id.org/oseg/ont/otrl#OTRL6</title>
<ellipse fill="none" stroke="#e377c2" cx="988.92" cy="-535.47" rx="67.35" ry="16.03"/>
<text text-anchor="middle" x="988.92" y="-531.77" font-family="Times,serif" font-size="14.00">otrl:OTRL6</text>
</g>
<!-- https://w3id.org/oseg/ont/otrl#OTRL6&#45;&gt;https://w3id.org/oseg/ont/otrl#OTRL -->
<g id="edge22" class="edge">
<title>https://w3id.org/oseg/ont/otrl#OTRL6&#45;&gt;https://w3id.org/oseg/ont/otrl#OTRL</title>
<path fill="none" stroke="black" d="M973.43,-551.44C950.95,-574.59 909.17,-617.64 883.2,-644.39"/>
<polygon fill="black" stroke="black" points="880.46,-642.19 876.01,-651.8 885.48,-647.06 880.46,-642.19"/>
</g>
<!-- https://w3id.org/oseg/ont/oseg&#45;profiles#martinHaeuer -->
<g id="node15" class="node">
<title>https://w3id.org/oseg/ont/oseg&#45;profiles#martinHaeuer</title>
<ellipse fill="none" stroke="#e377c2" cx="1862.64" cy="-660.77" rx="116.85" ry="16.03"/>
<text text-anchor="middle" x="1862.64" y="-657.07" font-family="Times,serif" font-size="14.00">osegprof:martinHa...</text>
</g>
<!-- http://schema.org/Text -->
<g id="node16" class="node">
<title>http://schema.org/Text</title>
<ellipse fill="none" stroke="#e377c2" cx="1255.21" cy="-793.45" rx="74.91" ry="16.03"/>
<text text-anchor="middle" x="1255.21" y="-789.75" font-family="Times,serif" font-size="14.00">schema:Text</text>
</g>
<!-- http://id.loc.gov/vocabulary/iso639&#45;1/en -->
<g id="node17" class="node">
<title>http://id.loc.gov/vocabulary/iso639&#45;1/en</title>
<ellipse fill="none" stroke="#e377c2" cx="1645.94" cy="-336.17" rx="45.01" ry="16.03"/>
<text text-anchor="middle" x="1645.94" y="-332.47" font-family="Times,serif" font-size="14.00">ns1:en</text>
</g>
<!-- https://w3id.org/oseg/ont/otrl#goal -->
<g id="node18" class="node">
<title>https://w3id.org/oseg/ont/otrl#goal</title>
<ellipse fill="none" stroke="#e377c2" cx="1039.24" cy="-902.33" rx="54.39" ry="16.03"/>
<text text-anchor="middle" x="1039.24" y="-898.63" font-family="Times,serif" font-size="14.00">otrl:goal</text>
</g>
<!-- https://w3id.org/oseg/ont/otrl#goal&#45;&gt;https://w3id.org/oseg/ont/otrl#ODRL -->
<g id="edge41" class="edge">
<title>https://w3id.org/oseg/ont/otrl#goal&#45;&gt;https://w3id.org/oseg/ont/otrl#ODRL</title>
<path fill="none" stroke="black" d="M1052.66,-918.27C1086.33,-958.22 1174.47,-1062.84 1214.4,-1110.22"/>
<polygon fill="black" stroke="black" points="1211.93,-1112.72 1221.05,-1118.11 1217.28,-1108.21 1211.93,-1112.72"/>
<text text-anchor="middle" x="1047.53" y="-1018.04" font-family="Times,serif" font-size="14.00">schema:domainIncludes</text>
</g>
<!-- https://w3id.org/oseg/ont/otrl#goal&#45;&gt;https://w3id.org/oseg/ont/otrl#OTRL -->
<g id="edge48" class="edge">
<title>https://w3id.org/oseg/ont/otrl#goal&#45;&gt;https://w3id.org/oseg/ont/otrl#OTRL</title>
<path fill="none" stroke="black" d="M1026.95,-886.21C996.14,-845.8 915.46,-739.97 878.91,-692.04"/>
<polygon fill="black" stroke="black" points="881.67,-689.88 872.83,-684.05 876.11,-694.13 881.67,-689.88"/>
<text text-anchor="middle" x="866.93" y="-792.92" font-family="Times,serif" font-size="14.00">schema:domainIncludes</text>
</g>
<!-- https://w3id.org/oseg/ont/otrl#goal&#45;&gt;http://schema.org/Text -->
<g id="edge5" class="edge">
<title>https://w3id.org/oseg/ont/otrl#goal&#45;&gt;http://schema.org/Text</title>
<path fill="none" stroke="black" d="M1067.03,-888.32C1105.03,-869.17 1173.37,-834.71 1216.41,-813.02"/>
<polygon fill="black" stroke="black" points="1218.09,-816.09 1225.45,-808.46 1214.94,-809.83 1218.09,-816.09"/>
<text text-anchor="middle" x="1120.72" y="-839.47" font-family="Times,serif" font-size="14.00">range</text>
</g>
<!-- https://w3id.org/oseg/ont/otrl#Odrl4 -->
<g id="node19" class="node">
<title>https://w3id.org/oseg/ont/otrl#Odrl4</title>
<ellipse fill="none" stroke="#e377c2" cx="1750.34" cy="-1309.93" rx="61.54" ry="16.03"/>
<text text-anchor="middle" x="1750.34" y="-1306.23" font-family="Times,serif" font-size="14.00">otrl:Odrl4</text>
</g>
<!-- https://w3id.org/oseg/ont/otrl#Odrl4&#45;&gt;https://w3id.org/oseg/ont/otrl#ODRL4 -->
<g id="edge25" class="edge">
<title>https://w3id.org/oseg/ont/otrl#Odrl4&#45;&gt;https://w3id.org/oseg/ont/otrl#ODRL4</title>
<path fill="none" stroke="black" d="M1723.83,-1295.17C1686.97,-1278.82 1619.31,-1253.1 1570.67,-1236.62"/>
<polygon fill="black" stroke="black" points="1571.49,-1233.21 1560.9,-1233.36 1569.27,-1239.85 1571.49,-1233.21"/>
<text text-anchor="middle" x="1604.75" y="-1254.7" font-family="Times,serif" font-size="14.00">owl:sameAs</text>
</g>
<!-- https://w3id.org/oseg/ont/otrl#Odrl4&#45;&gt;https://w3id.org/oseg/ont/otrl#ODRL4 -->
<g id="edge43" class="edge">
<title>https://w3id.org/oseg/ont/otrl#Odrl4&#45;&gt;https://w3id.org/oseg/ont/otrl#ODRL4</title>
<path fill="none" stroke="black" d="M1705.3,-1298.82C1660.19,-1284.04 1591.64,-1258.36 1549.86,-1240.52"/>
<polygon fill="black" stroke="black" points="1551.18,-1237.27 1540.61,-1236.5 1548.39,-1243.69 1551.18,-1237.27"/>
<text text-anchor="middle" x="1547.58" y="-1273.47" font-family="Times,serif" font-size="14.00">schema:supersededBy</text>
</g>
<!-- https://w3id.org/oseg/ont/1.1.0/otrl -->
<g id="node20" class="node">
<title>https://w3id.org/oseg/ont/1.1.0/otrl</title>
<ellipse fill="none" stroke="#e377c2" cx="1609.86" cy="-652.4" rx="50.82" ry="16.03"/>
<text text-anchor="middle" x="1609.86" y="-648.7" font-family="Times,serif" font-size="14.00">ns2:otrl</text>
</g>
<!-- https://w3id.org/oseg/ont/otrl -->
<g id="node21" class="node">
<title>https://w3id.org/oseg/ont/otrl</title>
<ellipse fill="none" stroke="#e377c2" cx="1684" cy="-495.16" rx="50.82" ry="16.03"/>
<text text-anchor="middle" x="1684" y="-491.46" font-family="Times,serif" font-size="14.00">ns3:otrl</text>
</g>
<!-- https://w3id.org/oseg/ont/otrl&#45;&gt;http://spdx.org/rdf/terms#File -->
<g id="edge31" class="edge">
<title>https://w3id.org/oseg/ont/otrl&#45;&gt;http://spdx.org/rdf/terms#File</title>
<path fill="none" stroke="black" d="M1633.86,-491.88C1615.07,-490.65 1593.36,-489.23 1573.06,-487.9"/>
<polygon fill="black" stroke="black" points="1573.11,-484.4 1562.91,-487.24 1572.66,-491.38 1573.11,-484.4"/>
<text text-anchor="middle" x="1598.96" y="-493.69" font-family="Times,serif" font-size="14.00">a</text>
</g>
<!-- https://w3id.org/oseg/ont/otrl&#45;&gt;https://w3id.org/oseg/ont/oseg&#45;profiles#martinHaeuer -->
<g id="edge3" class="edge">
<title>https://w3id.org/oseg/ont/otrl&#45;&gt;https://w3id.org/oseg/ont/oseg&#45;profiles#martinHaeuer</title>
<path fill="none" stroke="black" d="M1695.68,-511.28C1722.83,-541.03 1790.33,-604.17 1830.76,-638.16"/>
<polygon fill="black" stroke="black" points="1828.77,-641.06 1838.71,-644.75 1833.24,-635.68 1828.77,-641.06"/>
<text text-anchor="middle" x="1705.72" y="-578.52" font-family="Times,serif" font-size="14.00">dcterms:creator</text>
</g>
<!-- https://w3id.org/oseg/ont/otrl&#45;&gt;https://w3id.org/oseg/ont/oseg&#45;profiles#martinHaeuer -->
<g id="edge50" class="edge">
<title>https://w3id.org/oseg/ont/otrl&#45;&gt;https://w3id.org/oseg/ont/oseg&#45;profiles#martinHaeuer</title>
<path fill="none" stroke="black" d="M1706.45,-509.97C1741.99,-538.75 1810.28,-601.96 1843.58,-636.78"/>
<polygon fill="black" stroke="black" points="1841.12,-639.26 1850.51,-644.16 1846.22,-634.47 1841.12,-639.26"/>
<text text-anchor="middle" x="1719.52" y="-562.17" font-family="Times,serif" font-size="14.00">schema:creator</text>
</g>
<!-- https://w3id.org/oseg/ont/otrl&#45;&gt;http://id.loc.gov/vocabulary/iso639&#45;1/en -->
<g id="edge14" class="edge">
<title>https://w3id.org/oseg/ont/otrl&#45;&gt;http://id.loc.gov/vocabulary/iso639&#45;1/en</title>
<path fill="none" stroke="black" d="M1680.07,-478.74C1673.49,-451.25 1660.19,-395.67 1652.27,-362.62"/>
<polygon fill="black" stroke="black" points="1655.64,-361.65 1649.91,-352.74 1648.83,-363.28 1655.64,-361.65"/>
<text text-anchor="middle" x="1601.67" y="-424.48" font-family="Times,serif" font-size="14.00">dcterms:language</text>
</g>
<!-- https://w3id.org/oseg/ont/otrl&#45;&gt;https://w3id.org/oseg/ont/1.1.0/otrl -->
<g id="edge30" class="edge">
<title>https://w3id.org/oseg/ont/otrl&#45;&gt;https://w3id.org/oseg/ont/1.1.0/otrl</title>
<path fill="none" stroke="black" d="M1676.35,-511.39C1663.47,-538.7 1637.38,-594.03 1621.99,-626.67"/>
<polygon fill="black" stroke="black" points="1618.68,-625.48 1617.59,-636.02 1625.02,-628.46 1618.68,-625.48"/>
<text text-anchor="middle" x="1597.67" y="-557.83" font-family="Times,serif" font-size="14.00">owl:versionIRI</text>
</g>
<!-- https://w3id.org/oseg/ont/oseg&#45;profiles#Iopa -->
<g id="node22" class="node">
<title>https://w3id.org/oseg/ont/oseg&#45;profiles#Iopa</title>
<ellipse fill="none" stroke="#e377c2" cx="1710.62" cy="-536.86" rx="80.72" ry="16.03"/>
<text text-anchor="middle" x="1710.62" y="-533.16" font-family="Times,serif" font-size="14.00">osegprof:Iopa</text>
</g>
<!-- https://w3id.org/oseg/ont/otrl&#45;&gt;https://w3id.org/oseg/ont/oseg&#45;profiles#Iopa -->
<g id="edge32" class="edge">
<title>https://w3id.org/oseg/ont/otrl&#45;&gt;https://w3id.org/oseg/ont/oseg&#45;profiles#Iopa</title>
<path fill="none" stroke="black" d="M1694.22,-511.16C1694.4,-511.46 1694.59,-511.75 1694.78,-512.05"/>
<polygon fill="black" stroke="black" points="1691.97,-514.15 1700.3,-520.7 1697.87,-510.38 1691.97,-514.15"/>
<text text-anchor="middle" x="1629" y="-515.41" font-family="Times,serif" font-size="14.00">dcterms:publisher</text>
</g>
<!-- https://w3id.org/oseg/ont/oseg&#45;profiles#robinVobruba -->
<g id="node24" class="node">
<title>https://w3id.org/oseg/ont/oseg&#45;profiles#robinVobruba</title>
<ellipse fill="none" stroke="#e377c2" cx="1698.7" cy="-454.56" rx="113.69" ry="16.03"/>
<text text-anchor="middle" x="1698.7" y="-450.86" font-family="Times,serif" font-size="14.00">osegprof:robinVob...</text>
</g>
<!-- https://w3id.org/oseg/ont/otrl&#45;&gt;https://w3id.org/oseg/ont/oseg&#45;profiles#robinVobruba -->
<g id="edge47" class="edge">
<title>https://w3id.org/oseg/ont/otrl&#45;&gt;https://w3id.org/oseg/ont/oseg&#45;profiles#robinVobruba</title>
<path fill="none" stroke="black" d="M1696.99,-479.05C1697.02,-478.96 1697.05,-478.88 1697.08,-478.8"/>
<polygon fill="black" stroke="black" points="1699.86,-481.55 1699.65,-470.96 1693.21,-479.38 1699.86,-481.55"/>
<text text-anchor="middle" x="1754.53" y="-482.72" font-family="Times,serif" font-size="14.00">dcterms:creator</text>
</g>
<!-- https://w3id.org/oseg/ont/otrl&#45;&gt;https://w3id.org/oseg/ont/oseg&#45;profiles#robinVobruba -->
<g id="edge52" class="edge">
<title>https://w3id.org/oseg/ont/otrl&#45;&gt;https://w3id.org/oseg/ont/oseg&#45;profiles#robinVobruba</title>
<path fill="none" stroke="black" d="M1683.06,-478.76C1683.1,-478.59 1683.15,-478.42 1683.19,-478.26"/>
<polygon fill="black" stroke="black" points="1685.86,-481.34 1685.69,-470.74 1679.22,-479.13 1685.86,-481.34"/>
<text text-anchor="middle" x="1627.63" y="-467.31" font-family="Times,serif" font-size="14.00">schema:creator</text>
</g>
<!-- https://spdx.org/licenses/GPL&#45;3.0&#45;or&#45;later -->
<g id="node25" class="node">
<title>https://spdx.org/licenses/GPL&#45;3.0&#45;or&#45;later</title>
<ellipse fill="none" stroke="#e377c2" cx="1890.23" cy="-388.16" rx="108.79" ry="16.03"/>
<text text-anchor="middle" x="1890.23" y="-384.46" font-family="Times,serif" font-size="14.00">spdxl:GPL&#45;3.0&#45;or&#45;...</text>
</g>
<!-- https://w3id.org/oseg/ont/otrl&#45;&gt;https://spdx.org/licenses/GPL&#45;3.0&#45;or&#45;later -->
<g id="edge49" class="edge">
<title>https://w3id.org/oseg/ont/otrl&#45;&gt;https://spdx.org/licenses/GPL&#45;3.0&#45;or&#45;later</title>
<path fill="none" stroke="black" d="M1710.96,-481.17C1746.69,-462.63 1809.98,-429.79 1851.01,-408.51"/>
<polygon fill="black" stroke="black" points="1852.65,-411.6 1859.91,-403.89 1849.42,-405.39 1852.65,-411.6"/>
<text text-anchor="middle" x="1859.98" y="-433.64" font-family="Times,serif" font-size="14.00">spdxt:licenseDeclared</text>
</g>
<!-- https://w3id.org/oseg/ont/otrl#exitCriteria -->
<g id="node23" class="node">
<title>https://w3id.org/oseg/ont/otrl#exitCriteria</title>
<ellipse fill="none" stroke="#e377c2" cx="1100.54" cy="-854.5" rx="91.43" ry="16.03"/>
<text text-anchor="middle" x="1100.54" y="-850.8" font-family="Times,serif" font-size="14.00">otrl:exitCriteria</text>
</g>
<!-- https://w3id.org/oseg/ont/otrl#exitCriteria&#45;&gt;https://w3id.org/oseg/ont/otrl#ODRL -->
<g id="edge4" class="edge">
<title>https://w3id.org/oseg/ont/otrl#exitCriteria&#45;&gt;https://w3id.org/oseg/ont/otrl#ODRL</title>
<path fill="none" stroke="black" d="M1108.33,-870.75C1130.67,-917.37 1195.15,-1051.91 1222.29,-1108.54"/>
<polygon fill="black" stroke="black" points="1219.28,-1110.36 1226.76,-1117.87 1225.59,-1107.34 1219.28,-1110.36"/>
<text text-anchor="middle" x="1079.31" y="-993.45" font-family="Times,serif" font-size="14.00">schema:domainIncludes</text>
</g>
<!-- https://w3id.org/oseg/ont/otrl#exitCriteria&#45;&gt;https://w3id.org/oseg/ont/otrl#OTRL -->
<g id="edge13" class="edge">
<title>https://w3id.org/oseg/ont/otrl#exitCriteria&#45;&gt;https://w3id.org/oseg/ont/otrl#OTRL</title>
<path fill="none" stroke="black" d="M1080.07,-838.59C1037.09,-805.16 937.37,-727.63 888.49,-689.62"/>
<polygon fill="black" stroke="black" points="890.58,-686.81 880.53,-683.44 886.28,-692.34 890.58,-686.81"/>
<text text-anchor="middle" x="898.28" y="-767.9" font-family="Times,serif" font-size="14.00">schema:domainIncludes</text>
</g>
<!-- https://w3id.org/oseg/ont/otrl#exitCriteria&#45;&gt;http://schema.org/Text -->
<g id="edge28" class="edge">
<title>https://w3id.org/oseg/ont/otrl#exitCriteria&#45;&gt;http://schema.org/Text</title>
<path fill="none" stroke="black" d="M1138.38,-839.57C1159.9,-831.07 1186.99,-820.38 1209.67,-811.43"/>
<polygon fill="black" stroke="black" points="1211.08,-814.64 1219.09,-807.71 1208.51,-808.13 1211.08,-814.64"/>
<text text-anchor="middle" x="1153.03" y="-814.3" font-family="Times,serif" font-size="14.00">range</text>
</g>
<!-- https://w3id.org/oseg/ont/otrl#Odrl3 -->
<g id="node26" class="node">
<title>https://w3id.org/oseg/ont/otrl#Odrl3</title>
<ellipse fill="none" stroke="black" cx="1854.64" cy="-932.96" rx="196.65" ry="16.03"/>
<text text-anchor="middle" x="1854.64" y="-929.26" font-family="Times,serif" font-size="14.00">https://w3id.org/oseg/ont/otrl#Odrl3</text>
</g>
<!-- https://w3id.org/oseg/ont/otrl#Odrl3&#45;&gt;https://w3id.org/oseg/ont/otrl#ODRL3 -->
<g id="edge1" class="edge">
<title>https://w3id.org/oseg/ont/otrl#Odrl3&#45;&gt;https://w3id.org/oseg/ont/otrl#ODRL3</title>
<path fill="none" stroke="black" d="M1784,-948.21C1710.21,-967.99 1596.81,-1001.86 1535.24,-1022.74"/>
<polygon fill="black" stroke="black" points="1533.78,-1019.54 1525.45,-1026.1 1536.05,-1026.16 1533.78,-1019.54"/>
<text text-anchor="middle" x="1617.12" y="-989.27" font-family="Times,serif" font-size="14.00">owl:sameAs</text>
</g>
<!-- https://w3id.org/oseg/ont/otrl#Odrl3&#45;&gt;https://w3id.org/oseg/ont/otrl#ODRL3 -->
<g id="edge16" class="edge">
<title>https://w3id.org/oseg/ont/otrl#Odrl3&#45;&gt;https://w3id.org/oseg/ont/otrl#ODRL3</title>
<path fill="none" stroke="black" d="M1816.03,-949C1753.59,-970.43 1629.88,-1007.35 1554.64,-1027.25"/>
<polygon fill="black" stroke="black" points="1553.59,-1023.9 1544.81,-1029.82 1555.37,-1030.68 1553.59,-1023.9"/>
<text text-anchor="middle" x="1765.34" y="-991.92" font-family="Times,serif" font-size="14.00">schema:supersededBy</text>
</g>
<!-- https://w3id.org/oseg/ont/otrl#Otrl3 -->
<g id="node27" class="node">
<title>https://w3id.org/oseg/ont/otrl#Otrl3</title>
<ellipse fill="none" stroke="black" cx="592.32" cy="-77.1" rx="194.41" ry="16.03"/>
<text text-anchor="middle" x="592.32" y="-73.4" font-family="Times,serif" font-size="14.00">https://w3id.org/oseg/ont/otrl#Otrl3</text>
</g>
<!-- https://w3id.org/oseg/ont/otrl#Otrl3&#45;&gt;https://w3id.org/oseg/ont/otrl#OTRL3 -->
<g id="edge7" class="edge">
<title>https://w3id.org/oseg/ont/otrl#Otrl3&#45;&gt;https://w3id.org/oseg/ont/otrl#OTRL3</title>
<path fill="none" stroke="black" d="M597.08,-93.48C619.44,-149.82 710.42,-335.62 748.3,-403.16"/>
<polygon fill="black" stroke="black" points="745.28,-404.93 753.28,-411.88 751.36,-401.46 745.28,-404.93"/>
<text text-anchor="middle" x="592.69" y="-252.12" font-family="Times,serif" font-size="14.00">schema:supersededBy</text>
</g>
<!-- https://w3id.org/oseg/ont/otrl#Otrl3&#45;&gt;https://w3id.org/oseg/ont/otrl#OTRL3 -->
<g id="edge37" class="edge">
<title>https://w3id.org/oseg/ont/otrl#Otrl3&#45;&gt;https://w3id.org/oseg/ont/otrl#OTRL3</title>
<path fill="none" stroke="black" d="M603.96,-93.58C636.67,-149.73 727.18,-333.62 756.02,-402.03"/>
<polygon fill="black" stroke="black" points="752.92,-403.7 759.95,-411.62 759.39,-401.04 752.92,-403.7"/>
<text text-anchor="middle" x="637.49" y="-236.6" font-family="Times,serif" font-size="14.00">owl:sameAs</text>
</g>
<!-- https://w3id.org/oseg/ont/otrl#Odrl -->
<g id="node28" class="node">
<title>https://w3id.org/oseg/ont/otrl#Odrl</title>
<ellipse fill="none" stroke="black" cx="1306.96" cy="-1506.35" rx="190.42" ry="16.03"/>
<text text-anchor="middle" x="1306.96" y="-1502.65" font-family="Times,serif" font-size="14.00">https://w3id.org/oseg/ont/otrl#Odrl</text>
</g>
<!-- https://w3id.org/oseg/ont/otrl#Odrl&#45;&gt;https://w3id.org/oseg/ont/otrl#ODRL -->
<g id="edge8" class="edge">
<title>https://w3id.org/oseg/ont/otrl#Odrl&#45;&gt;https://w3id.org/oseg/ont/otrl#ODRL</title>
<path fill="none" stroke="black" d="M1306.75,-1489.79C1300.21,-1431.04 1261.81,-1232.3 1243.45,-1160.39"/>
<polygon fill="black" stroke="black" points="1246.74,-1159.13 1240.79,-1150.36 1239.97,-1160.92 1246.74,-1159.13"/>
<text text-anchor="middle" x="1232.6" y="-1313.89" font-family="Times,serif" font-size="14.00">owl:sameAs</text>
</g>
<!-- https://w3id.org/oseg/ont/otrl#Odrl&#45;&gt;https://w3id.org/oseg/ont/otrl#ODRL -->
<g id="edge39" class="edge">
<title>https://w3id.org/oseg/ont/otrl#Odrl&#45;&gt;https://w3id.org/oseg/ont/otrl#ODRL</title>
<path fill="none" stroke="black" d="M1300.69,-1489.97C1284.48,-1431.49 1245.61,-1232.73 1236,-1160.59"/>
<polygon fill="black" stroke="black" points="1239.45,-1160.01 1234.75,-1150.52 1232.5,-1160.87 1239.45,-1160.01"/>
<text text-anchor="middle" x="1188.34" y="-1329.08" font-family="Times,serif" font-size="14.00">schema:supersededBy</text>
</g>
<!-- https://w3id.org/oseg/ont/otrl#Otrl -->
<g id="node29" class="node">
<title>https://w3id.org/oseg/ont/otrl#Otrl</title>
<ellipse fill="none" stroke="black" cx="522.73" cy="-475.65" rx="188.18" ry="16.03"/>
<text text-anchor="middle" x="522.73" y="-471.95" font-family="Times,serif" font-size="14.00">https://w3id.org/oseg/ont/otrl#Otrl</text>
</g>
<!-- https://w3id.org/oseg/ont/otrl#Otrl&#45;&gt;https://w3id.org/oseg/ont/otrl#OTRL -->
<g id="edge9" class="edge">
<title>https://w3id.org/oseg/ont/otrl#Otrl&#45;&gt;https://w3id.org/oseg/ont/otrl#OTRL</title>
<path fill="none" stroke="black" d="M543.89,-491.84C598.68,-527.45 745.75,-611.49 818.52,-649.18"/>
<polygon fill="black" stroke="black" points="817.37,-652.52 827.86,-653.97 820.56,-646.29 817.37,-652.52"/>
<text text-anchor="middle" x="601.21" y="-574.31" font-family="Times,serif" font-size="14.00">schema:supersededBy</text>
</g>
<!-- https://w3id.org/oseg/ont/otrl#Otrl&#45;&gt;https://w3id.org/oseg/ont/otrl#OTRL -->
<g id="edge51" class="edge">
<title>https://w3id.org/oseg/ont/otrl#Otrl&#45;&gt;https://w3id.org/oseg/ont/otrl#OTRL</title>
<path fill="none" stroke="black" d="M559.73,-491.74C627.58,-526.53 770.44,-607.9 831.66,-646.73"/>
<polygon fill="black" stroke="black" points="830.11,-649.89 840.42,-652.36 833.9,-644 830.11,-649.89"/>
<text text-anchor="middle" x="738.19" y="-573.03" font-family="Times,serif" font-size="14.00">owl:sameAs</text>
</g>
<!-- https://w3id.org/oseg/ont/otrl#Otrl4 -->
<g id="node30" class="node">
<title>https://w3id.org/oseg/ont/otrl#Otrl4</title>
<ellipse fill="none" stroke="black" cx="194.18" cy="-629.62" rx="194.41" ry="16.03"/>
<text text-anchor="middle" x="194.18" y="-625.92" font-family="Times,serif" font-size="14.00">https://w3id.org/oseg/ont/otrl#Otrl4</text>
</g>
<!-- https://w3id.org/oseg/ont/otrl#Otrl4&#45;&gt;https://w3id.org/oseg/ont/otrl#OTRL4 -->
<g id="edge10" class="edge">
<title>https://w3id.org/oseg/ont/otrl#Otrl4&#45;&gt;https://w3id.org/oseg/ont/otrl#OTRL4</title>
<path fill="none" stroke="black" d="M283.67,-644.1C352.3,-652.16 446.07,-661.16 511.48,-665.91"/>
<polygon fill="black" stroke="black" points="511.5,-669.42 521.72,-666.63 511.99,-662.43 511.5,-669.42"/>
<text text-anchor="middle" x="355.07" y="-658.8" font-family="Times,serif" font-size="14.00">owl:sameAs</text>
</g>
<!-- https://w3id.org/oseg/ont/otrl#Otrl4&#45;&gt;https://w3id.org/oseg/ont/otrl#OTRL4 -->
<g id="edge27" class="edge">
<title>https://w3id.org/oseg/ont/otrl#Otrl4&#45;&gt;https://w3id.org/oseg/ont/otrl#OTRL4</title>
<path fill="none" stroke="black" d="M356.19,-638.66C415.62,-644.09 479.48,-650.79 525.22,-656.58"/>
<polygon fill="black" stroke="black" points="524.91,-660.07 535.28,-657.88 525.81,-653.13 524.91,-660.07"/>
<text text-anchor="middle" x="520.7" y="-636.42" font-family="Times,serif" font-size="14.00">schema:supersededBy</text>
</g>
<!-- https://w3id.org/oseg/ont/otrl#Odrl3Star -->
<g id="node31" class="node">
<title>https://w3id.org/oseg/ont/otrl#Odrl3Star</title>
<ellipse fill="none" stroke="black" cx="1617.1" cy="-1739.64" rx="218.49" ry="16.03"/>
<text text-anchor="middle" x="1617.1" y="-1735.94" font-family="Times,serif" font-size="14.00">https://w3id.org/oseg/ont/otrl#Odrl3Star</text>
</g>
<!-- https://w3id.org/oseg/ont/otrl#Odrl3Star&#45;&gt;https://w3id.org/oseg/ont/otrl#ODRL3Star -->
<g id="edge12" class="edge">
<title>https://w3id.org/oseg/ont/otrl#Odrl3Star&#45;&gt;https://w3id.org/oseg/ont/otrl#ODRL3Star</title>
<path fill="none" stroke="black" d="M1611.01,-1723.06C1582.93,-1663.62 1468.64,-1461.33 1423.2,-1389.89"/>
<polygon fill="black" stroke="black" points="1425.88,-1387.58 1417.51,-1381.08 1420,-1391.38 1425.88,-1387.58"/>
<text text-anchor="middle" x="1437.1" y="-1545.28" font-family="Times,serif" font-size="14.00">schema:supersededBy</text>
</g>
<!-- https://w3id.org/oseg/ont/otrl#Odrl3Star&#45;&gt;https://w3id.org/oseg/ont/otrl#ODRL3Star -->
<g id="edge54" class="edge">
<title>https://w3id.org/oseg/ont/otrl#Odrl3Star&#45;&gt;https://w3id.org/oseg/ont/otrl#ODRL3Star</title>
<path fill="none" stroke="black" d="M1604.15,-1723.09C1565.14,-1663.8 1450.72,-1462.12 1415.14,-1390.3"/>
<polygon fill="black" stroke="black" points="1418.17,-1388.53 1410.65,-1381.06 1411.87,-1391.58 1418.17,-1388.53"/>
<text text-anchor="middle" x="1467.14" y="-1560.5" font-family="Times,serif" font-size="14.00">owl:sameAs</text>
</g>
<!-- https://w3id.org/oseg/ont/otrl#Odrl2 -->
<g id="node32" class="node">
<title>https://w3id.org/oseg/ont/otrl#Odrl2</title>
<ellipse fill="none" stroke="black" cx="1105.83" cy="-1769.38" rx="196.65" ry="16.03"/>
<text text-anchor="middle" x="1105.83" y="-1765.68" font-family="Times,serif" font-size="14.00">https://w3id.org/oseg/ont/otrl#Odrl2</text>
</g>
<!-- https://w3id.org/oseg/ont/otrl#Odrl2&#45;&gt;https://w3id.org/oseg/ont/otrl#ODRL2 -->
<g id="edge15" class="edge">
<title>https://w3id.org/oseg/ont/otrl#Odrl2&#45;&gt;https://w3id.org/oseg/ont/otrl#ODRL2</title>
<path fill="none" stroke="black" d="M1112.27,-1752.95C1129.54,-1692.9 1172.54,-1485.06 1183.3,-1410.96"/>
<polygon fill="black" stroke="black" points="1186.77,-1411.41 1184.65,-1401.03 1179.84,-1410.47 1186.77,-1411.41"/>
<text text-anchor="middle" x="1105.29" y="-1585.75" font-family="Times,serif" font-size="14.00">owl:sameAs</text>
</g>
<!-- https://w3id.org/oseg/ont/otrl#Odrl2&#45;&gt;https://w3id.org/oseg/ont/otrl#ODRL2 -->
<g id="edge34" class="edge">
<title>https://w3id.org/oseg/ont/otrl#Odrl2&#45;&gt;https://w3id.org/oseg/ont/otrl#ODRL2</title>
<path fill="none" stroke="black" d="M1106.29,-1752.75C1113.76,-1692.37 1156.3,-1484.55 1175.94,-1410.73"/>
<polygon fill="black" stroke="black" points="1179.38,-1411.41 1178.67,-1400.84 1172.64,-1409.55 1179.38,-1411.41"/>
<text text-anchor="middle" x="1061.11" y="-1570.54" font-family="Times,serif" font-size="14.00">schema:supersededBy</text>
</g>
<!-- https://w3id.org/oseg/ont/otrl#Odrl1 -->
<g id="node33" class="node">
<title>https://w3id.org/oseg/ont/otrl#Odrl1</title>
<ellipse fill="none" stroke="black" cx="966.35" cy="-1276.2" rx="196.65" ry="16.03"/>
<text text-anchor="middle" x="966.35" y="-1272.5" font-family="Times,serif" font-size="14.00">https://w3id.org/oseg/ont/otrl#Odrl1</text>
</g>
<!-- https://w3id.org/oseg/ont/otrl#Odrl1&#45;&gt;https://w3id.org/oseg/ont/otrl#ODRL1 -->
<g id="edge18" class="edge">
<title>https://w3id.org/oseg/ont/otrl#Odrl1&#45;&gt;https://w3id.org/oseg/ont/otrl#ODRL1</title>
<path fill="none" stroke="black" d="M1001.58,-1259.96C1002.55,-1259.27 1003.51,-1258.57 1004.47,-1257.87"/>
<polygon fill="black" stroke="black" points="1006.82,-1260.47 1012.54,-1251.55 1002.51,-1254.95 1006.82,-1260.47"/>
<text text-anchor="middle" x="960.52" y="-1247.71" font-family="Times,serif" font-size="14.00">owl:sameAs</text>
</g>
<!-- https://w3id.org/oseg/ont/otrl#Odrl1&#45;&gt;https://w3id.org/oseg/ont/otrl#ODRL1 -->
<g id="edge35" class="edge">
<title>https://w3id.org/oseg/ont/otrl#Odrl1&#45;&gt;https://w3id.org/oseg/ont/otrl#ODRL1</title>
<path fill="none" stroke="black" d="M979.2,-1259.84C980.68,-1258.61 982.25,-1257.36 983.87,-1256.12"/>
<polygon fill="black" stroke="black" points="986.3,-1258.68 992.33,-1249.96 982.18,-1253.02 986.3,-1258.68"/>
<text text-anchor="middle" x="1061.53" y="-1246.78" font-family="Times,serif" font-size="14.00">schema:supersededBy</text>
</g>
<!-- https://w3id.org/oseg/ont/otrl#Otrl6 -->
<g id="node34" class="node">
<title>https://w3id.org/oseg/ont/otrl#Otrl6</title>
<ellipse fill="none" stroke="black" cx="1037.45" cy="-493.59" rx="194.41" ry="16.03"/>
<text text-anchor="middle" x="1037.45" y="-489.89" font-family="Times,serif" font-size="14.00">https://w3id.org/oseg/ont/otrl#Otrl6</text>
</g>
<!-- https://w3id.org/oseg/ont/otrl#Otrl6&#45;&gt;https://w3id.org/oseg/ont/otrl#OTRL6 -->
<g id="edge19" class="edge">
<title>https://w3id.org/oseg/ont/otrl#Otrl6&#45;&gt;https://w3id.org/oseg/ont/otrl#OTRL6</title>
<path fill="none" stroke="black" d="M1008.21,-509.91C1007.33,-510.68 1006.45,-511.46 1005.59,-512.24"/>
<polygon fill="black" stroke="black" points="1003.09,-509.8 998.34,-519.27 1007.96,-514.82 1003.09,-509.8"/>
<text text-anchor="middle" x="1049.4" y="-514.88" font-family="Times,serif" font-size="14.00">owl:sameAs</text>
</g>
<!-- https://w3id.org/oseg/ont/otrl#Otrl6&#45;&gt;https://w3id.org/oseg/ont/otrl#OTRL6 -->
<g id="edge38" class="edge">
<title>https://w3id.org/oseg/ont/otrl#Otrl6&#45;&gt;https://w3id.org/oseg/ont/otrl#OTRL6</title>
<path fill="none" stroke="black" d="M1027.7,-510.14C1026.56,-511.32 1025.36,-512.51 1024.12,-513.71"/>
<polygon fill="black" stroke="black" points="1021.68,-511.2 1016.6,-520.5 1026.37,-516.39 1021.68,-511.2"/>
<text text-anchor="middle" x="945.91" y="-515.73" font-family="Times,serif" font-size="14.00">schema:supersededBy</text>
</g>
<!-- https://w3id.org/oseg/ont/otrl#Otrl1 -->
<g id="node35" class="node">
<title>https://w3id.org/oseg/ont/otrl#Otrl1</title>
<ellipse fill="none" stroke="black" cx="617.61" cy="-831.44" rx="194.41" ry="16.03"/>
<text text-anchor="middle" x="617.61" y="-827.74" font-family="Times,serif" font-size="14.00">https://w3id.org/oseg/ont/otrl#Otrl1</text>
</g>
<!-- https://w3id.org/oseg/ont/otrl#Otrl1&#45;&gt;https://w3id.org/oseg/ont/otrl#OTRL1 -->
<g id="edge20" class="edge">
<title>https://w3id.org/oseg/ont/otrl#Otrl1&#45;&gt;https://w3id.org/oseg/ont/otrl#OTRL1</title>
<path fill="none" stroke="black" d="M659.16,-815.41C662.14,-813.69 665.09,-811.92 667.92,-810.15"/>
<polygon fill="black" stroke="black" points="670.04,-812.95 676.49,-804.54 666.2,-807.09 670.04,-812.95"/>
<text text-anchor="middle" x="583.54" y="-801.58" font-family="Times,serif" font-size="14.00">schema:supersededBy</text>
</g>
<!-- https://w3id.org/oseg/ont/otrl#Otrl1&#45;&gt;https://w3id.org/oseg/ont/otrl#OTRL1 -->
<g id="edge33" class="edge">
<title>https://w3id.org/oseg/ont/otrl#Otrl1&#45;&gt;https://w3id.org/oseg/ont/otrl#OTRL1</title>
<path fill="none" stroke="black" d="M633.85,-815.23C637.57,-812.69 641.7,-810.05 646,-807.47"/>
<polygon fill="black" stroke="black" points="648.07,-810.31 654.97,-802.28 644.57,-804.25 648.07,-810.31"/>
<text text-anchor="middle" x="682.43" y="-815.15" font-family="Times,serif" font-size="14.00">owl:sameAs</text>
</g>
<!-- https://w3id.org/oseg/ont/otrl#Otrl5 -->
<g id="node36" class="node">
<title>https://w3id.org/oseg/ont/otrl#Otrl5</title>
<ellipse fill="none" stroke="black" cx="986.15" cy="-15.95" rx="194.41" ry="16.03"/>
<text text-anchor="middle" x="986.15" y="-12.25" font-family="Times,serif" font-size="14.00">https://w3id.org/oseg/ont/otrl#Otrl5</text>
</g>
<!-- https://w3id.org/oseg/ont/otrl#Otrl5&#45;&gt;https://w3id.org/oseg/ont/otrl#OTRL5 -->
<g id="edge24" class="edge">
<title>https://w3id.org/oseg/ont/otrl#Otrl5&#45;&gt;https://w3id.org/oseg/ont/otrl#OTRL5</title>
<path fill="none" stroke="black" d="M980.7,-32.31C967.08,-91.52 936.66,-294.97 930.12,-368.63"/>
<polygon fill="black" stroke="black" points="926.61,-368.66 929.31,-378.91 933.59,-369.22 926.61,-368.66"/>
<text text-anchor="middle" x="912.91" y="-204.27" font-family="Times,serif" font-size="14.00">owl:sameAs</text>
</g>
<!-- https://w3id.org/oseg/ont/otrl#Otrl5&#45;&gt;https://w3id.org/oseg/ont/otrl#OTRL5 -->
<g id="edge40" class="edge">
<title>https://w3id.org/oseg/ont/otrl#Otrl5&#45;&gt;https://w3id.org/oseg/ont/otrl#OTRL5</title>
<path fill="none" stroke="black" d="M986.65,-32.69C982.63,-92.52 952.68,-295.98 937.46,-369.09"/>
<polygon fill="black" stroke="black" points="933.95,-368.77 935.24,-379.28 940.79,-370.26 933.95,-368.77"/>
<text text-anchor="middle" x="1042.06" y="-204.69" font-family="Times,serif" font-size="14.00">schema:supersededBy</text>
</g>
<!-- https://w3id.org/oseg/ont/otrl#Otrl2 -->
<g id="node37" class="node">
<title>https://w3id.org/oseg/ont/otrl#Otrl2</title>
<ellipse fill="none" stroke="black" cx="672.9" cy="-565.84" rx="194.41" ry="16.03"/>
<text text-anchor="middle" x="672.9" y="-562.14" font-family="Times,serif" font-size="14.00">https://w3id.org/oseg/ont/otrl#Otrl2</text>
</g>
<!-- https://w3id.org/oseg/ont/otrl#Otrl2&#45;&gt;https://w3id.org/oseg/ont/otrl#OTRL2 -->
<g id="edge26" class="edge">
<title>https://w3id.org/oseg/ont/otrl#Otrl2&#45;&gt;https://w3id.org/oseg/ont/otrl#OTRL2</title>
<path fill="none" stroke="black" d="M685.98,-582.21C687.88,-583.77 689.92,-585.36 692.03,-586.95"/>
<polygon fill="black" stroke="black" points="690.33,-590.03 700.5,-592.98 694.39,-584.33 690.33,-590.03"/>
<text text-anchor="middle" x="646.51" y="-588.38" font-family="Times,serif" font-size="14.00">owl:sameAs</text>
</g>
<!-- https://w3id.org/oseg/ont/otrl#Otrl2&#45;&gt;https://w3id.org/oseg/ont/otrl#OTRL2 -->
<g id="edge44" class="edge">
<title>https://w3id.org/oseg/ont/otrl#Otrl2&#45;&gt;https://w3id.org/oseg/ont/otrl#OTRL2</title>
<path fill="none" stroke="black" d="M708.38,-582.03C709.73,-582.97 711.07,-583.93 712.38,-584.89"/>
<polygon fill="black" stroke="black" points="710.51,-587.86 720.56,-591.22 714.79,-582.33 710.51,-587.86"/>
<text text-anchor="middle" x="790.38" y="-587.26" font-family="Times,serif" font-size="14.00">schema:supersededBy</text>
</g>
<!-- https://w3id.org/oseg/ont/otrl#Odrl5 -->
<g id="node38" class="node">
<title>https://w3id.org/oseg/ont/otrl#Odrl5</title>
<ellipse fill="none" stroke="black" cx="2088.4" cy="-1441.31" rx="196.65" ry="16.03"/>
<text text-anchor="middle" x="2088.4" y="-1437.61" font-family="Times,serif" font-size="14.00">https://w3id.org/oseg/ont/otrl#Odrl5</text>
</g>
<!-- https://w3id.org/oseg/ont/otrl#Odrl5&#45;&gt;https://w3id.org/oseg/ont/otrl#Odrl4 -->
<g id="edge29" class="edge">
<title>https://w3id.org/oseg/ont/otrl#Odrl5&#45;&gt;https://w3id.org/oseg/ont/otrl#Odrl4</title>
<path fill="none" stroke="black" d="M2058.4,-1425.22C2000.92,-1399.47 1874.7,-1350.11 1802.93,-1325.02"/>
<polygon fill="black" stroke="black" points="1803.77,-1321.61 1793.18,-1321.64 1801.48,-1328.22 1803.77,-1321.61"/>
<text text-anchor="middle" x="1850.66" y="-1363.92" font-family="Times,serif" font-size="14.00">schema:supersededBy</text>
</g>
<!-- https://w3id.org/oseg/ont/otrl#Odrl5&#45;&gt;https://w3id.org/oseg/ont/otrl#Odrl4 -->
<g id="edge42" class="edge">
<title>https://w3id.org/oseg/ont/otrl#Odrl5&#45;&gt;https://w3id.org/oseg/ont/otrl#Odrl4</title>
<path fill="none" stroke="black" d="M2034.12,-1425.63C1964.72,-1401.29 1846.45,-1355.12 1786.88,-1328.93"/>
<polygon fill="black" stroke="black" points="1788.06,-1325.62 1777.5,-1324.75 1785.21,-1332.01 1788.06,-1325.62"/>
<text text-anchor="middle" x="1868" y="-1381.08" font-family="Times,serif" font-size="14.00">owl:sameAs</text>
</g>
</g>
</svg>
