<?xml version="1.0" encoding="UTF-8" standalone="no"?>
<!DOCTYPE svg PUBLIC "-//W3C//DTD SVG 1.1//EN"
 "http://www.w3.org/Graphics/SVG/1.1/DTD/svg11.dtd">
<!-- Generated by graphviz version 2.43.0 (0)
 -->
<!-- Title: G Pages: 1 -->
<svg width="1096pt" height="1686pt"
 viewBox="0.00 0.00 1095.94 1685.53" xmlns="http://www.w3.org/2000/svg" xmlns:xlink="http://www.w3.org/1999/xlink">
<g id="graph0" class="graph" transform="scale(1 1) rotate(0) translate(4 1681.53)">
<title>G</title>
<polygon fill="white" stroke="transparent" points="-4,4 -4,-1681.53 1091.94,-1681.53 1091.94,4 -4,4"/>
<!-- http://spdx.org/rdf/terms#SpdxItem -->
<g id="node1" class="node">
<title>http://spdx.org/rdf/terms#SpdxItem</title>
<ellipse fill="none" stroke="#1f77b4" cx="558.52" cy="-322.26" rx="87.86" ry="16.03"/>
<text text-anchor="middle" x="558.52" y="-318.56" font-family="Times,serif" font-size="14.00">spdx:SpdxItem</text>
</g>
<!-- http://www.w3.org/2004/02/skos/core#Collection -->
<g id="node2" class="node">
<title>http://www.w3.org/2004/02/skos/core#Collection</title>
<ellipse fill="none" stroke="#e377c2" cx="978.33" cy="-949.26" rx="87.86" ry="16.03"/>
<text text-anchor="middle" x="978.33" y="-945.56" font-family="Times,serif" font-size="14.00">skos:Collection</text>
</g>
<!-- http://www.w3.org/2002/07/owl#ObjectProperty -->
<g id="node3" class="node">
<title>http://www.w3.org/2002/07/owl#ObjectProperty</title>
<ellipse fill="none" stroke="#1f77b4" cx="978.33" cy="-1610.26" rx="109.7" ry="16.03"/>
<text text-anchor="middle" x="978.33" y="-1606.56" font-family="Times,serif" font-size="14.00">owl:ObjectProperty</text>
</g>
<!-- http://www.w3.org/2004/02/skos/core#Concept -->
<g id="node4" class="node">
<title>http://www.w3.org/2004/02/skos/core#Concept</title>
<ellipse fill="none" stroke="#1f77b4" cx="978.33" cy="-1527.26" rx="78.48" ry="16.03"/>
<text text-anchor="middle" x="978.33" y="-1523.56" font-family="Times,serif" font-size="14.00">skos:Concept</text>
</g>
<!-- http://www.w3.org/2002/07/owl#Ontology -->
<g id="node5" class="node">
<title>http://www.w3.org/2002/07/owl#Ontology</title>
<ellipse fill="none" stroke="#1f77b4" cx="558.52" cy="-271.26" rx="77.56" ry="16.03"/>
<text text-anchor="middle" x="558.52" y="-267.56" font-family="Times,serif" font-size="14.00">owl:Ontology</text>
</g>
<!-- http://w3id.org/oseg/ont/okhmeta#Tag -->
<g id="node6" class="node">
<title>http://w3id.org/oseg/ont/okhmeta#Tag</title>
<ellipse fill="none" stroke="#e377c2" cx="558.52" cy="-949.26" rx="76.24" ry="16.03"/>
<text text-anchor="middle" x="558.52" y="-945.56" font-family="Times,serif" font-size="14.00">okhmeta:Tag</text>
</g>
<!-- http://w3id.org/oseg/ont/okhmeta#Tag&#45;&gt;http://www.w3.org/2004/02/skos/core#Collection -->
<g id="edge38" class="edge">
<title>http://w3id.org/oseg/ont/okhmeta#Tag&#45;&gt;http://www.w3.org/2004/02/skos/core#Collection</title>
<path fill="none" stroke="black" d="M635.19,-949.26C703.8,-949.26 805.33,-949.26 879.97,-949.26"/>
<polygon fill="black" stroke="black" points="880.32,-952.76 890.32,-949.26 880.32,-945.76 880.32,-952.76"/>
</g>
<!-- http://w3id.org/oseg/ont/okhmeta#Tag&#45;&gt;http://www.w3.org/2004/02/skos/core#Concept -->
<g id="edge31" class="edge">
<title>http://w3id.org/oseg/ont/okhmeta#Tag&#45;&gt;http://www.w3.org/2004/02/skos/core#Concept</title>
<path fill="none" stroke="black" d="M585.81,-964.6C614.51,-982.99 659,-1016.73 678.73,-1059.26 698.16,-1101.13 665.42,-1440.36 696.73,-1474.26 720.13,-1499.59 816.89,-1486.66 850.73,-1493.26 874.96,-1497.99 901.38,-1504.81 923.79,-1511.11"/>
<polygon fill="black" stroke="black" points="922.87,-1514.49 933.45,-1513.86 924.79,-1507.75 922.87,-1514.49"/>
<text text-anchor="middle" x="773.73" y="-1497.06" font-family="Times,serif" font-size="14.00">a</text>
</g>
<!-- http://w3id.org/oseg/ont/okhmeta#MetaTag -->
<g id="node7" class="node">
<title>http://w3id.org/oseg/ont/okhmeta#MetaTag</title>
<ellipse fill="none" stroke="#e377c2" cx="978.33" cy="-1081.26" rx="102.56" ry="16.03"/>
<text text-anchor="middle" x="978.33" y="-1077.56" font-family="Times,serif" font-size="14.00">okhmeta:MetaTag</text>
</g>
<!-- http://w3id.org/oseg/ont/okhmeta#Tag&#45;&gt;http://w3id.org/oseg/ont/okhmeta#MetaTag -->
<g id="edge9" class="edge">
<title>http://w3id.org/oseg/ont/okhmeta#Tag&#45;&gt;http://w3id.org/oseg/ont/okhmeta#MetaTag</title>
<path fill="none" stroke="black" d="M590.91,-964.04C618.41,-976.62 659.65,-994.61 696.73,-1007.26 767.35,-1031.36 850.18,-1052.35 907.45,-1065.75"/>
<polygon fill="black" stroke="black" points="906.95,-1069.23 917.48,-1068.08 908.54,-1062.41 906.95,-1069.23"/>
<text text-anchor="middle" x="773.73" y="-1056.06" font-family="Times,serif" font-size="14.00">okhmeta:hasMetaTag</text>
</g>
<!-- http://w3id.org/oseg/ont/okhmeta#MetaTag&#45;&gt;http://w3id.org/oseg/ont/okhmeta#Tag -->
<g id="edge24" class="edge">
<title>http://w3id.org/oseg/ont/okhmeta#MetaTag&#45;&gt;http://w3id.org/oseg/ont/okhmeta#Tag</title>
<path fill="none" stroke="black" d="M961.01,-1064.95C938.39,-1043.44 895.25,-1006.22 850.73,-988.26 831.28,-980.42 716.63,-966.56 637.13,-957.65"/>
<polygon fill="black" stroke="black" points="637.46,-954.16 627.13,-956.53 636.68,-961.12 637.46,-954.16"/>
<text text-anchor="middle" x="773.73" y="-992.06" font-family="Times,serif" font-size="14.00">a</text>
</g>
<!-- http://w3id.org/oseg/ont/okhmeta#MetaTag&#45;&gt;http://w3id.org/oseg/ont/okhmeta#MetaTag -->
<g id="edge45" class="edge">
<title>http://w3id.org/oseg/ont/okhmeta#MetaTag&#45;&gt;http://w3id.org/oseg/ont/okhmeta#MetaTag</title>
<path fill="none" stroke="black" d="M942.78,-1096.77C934.21,-1106.38 946.06,-1115.53 978.33,-1115.53 998.5,-1115.53 1010.7,-1111.95 1014.91,-1106.93"/>
<polygon fill="black" stroke="black" points="1018.37,-1106.36 1013.88,-1096.77 1011.41,-1107.07 1018.37,-1106.36"/>
<text text-anchor="middle" x="978.33" y="-1119.33" font-family="Times,serif" font-size="14.00">okhmeta:hasMetaTag</text>
</g>
<!-- http://id.loc.gov/vocabulary/iso639&#45;1/en -->
<g id="node8" class="node">
<title>http://id.loc.gov/vocabulary/iso639&#45;1/en</title>
<ellipse fill="none" stroke="#e377c2" cx="558.52" cy="-220.26" rx="45.01" ry="16.03"/>
<text text-anchor="middle" x="558.52" y="-216.56" font-family="Times,serif" font-size="14.00">ns1:en</text>
</g>
<!-- http://w3id.org/oseg/ont/okhmeta#hasMetaTag -->
<g id="node9" class="node">
<title>http://w3id.org/oseg/ont/okhmeta#hasMetaTag</title>
<ellipse fill="none" stroke="#e377c2" cx="558.52" cy="-1572.26" rx="120.42" ry="16.03"/>
<text text-anchor="middle" x="558.52" y="-1568.56" font-family="Times,serif" font-size="14.00">okhmeta:hasMetaTag</text>
</g>
<!-- http://w3id.org/oseg/ont/okhmeta#hasMetaTag&#45;&gt;http://www.w3.org/2002/07/owl#ObjectProperty -->
<g id="edge2" class="edge">
<title>http://w3id.org/oseg/ont/okhmeta#hasMetaTag&#45;&gt;http://www.w3.org/2002/07/owl#ObjectProperty</title>
<path fill="none" stroke="black" d="M648.41,-1583.13C664.48,-1584.95 681.1,-1586.74 696.73,-1588.26 753.27,-1593.77 816.32,-1598.82 868.31,-1602.68"/>
<polygon fill="black" stroke="black" points="868.33,-1606.19 878.56,-1603.44 868.84,-1599.21 868.33,-1606.19"/>
<text text-anchor="middle" x="773.73" y="-1605.06" font-family="Times,serif" font-size="14.00">a</text>
</g>
<!-- http://w3id.org/oseg/ont/okhmeta#hasMetaTag&#45;&gt;http://www.w3.org/2004/02/skos/core#Concept -->
<g id="edge22" class="edge">
<title>http://w3id.org/oseg/ont/okhmeta#hasMetaTag&#45;&gt;http://www.w3.org/2004/02/skos/core#Concept</title>
<path fill="none" stroke="black" d="M671.46,-1566.55C725.73,-1563.08 791.77,-1557.83 850.73,-1550.26 870.64,-1547.71 892.17,-1544.12 911.72,-1540.53"/>
<polygon fill="black" stroke="black" points="912.56,-1543.93 921.75,-1538.66 911.28,-1537.05 912.56,-1543.93"/>
<text text-anchor="middle" x="773.73" y="-1569.06" font-family="Times,serif" font-size="14.00">a</text>
</g>
<!-- http://w3id.org/oseg/ont/okhmeta#hasMetaTag&#45;&gt;http://w3id.org/oseg/ont/okhmeta#MetaTag -->
<g id="edge8" class="edge">
<title>http://w3id.org/oseg/ont/okhmeta#hasMetaTag&#45;&gt;http://w3id.org/oseg/ont/okhmeta#MetaTag</title>
<path fill="none" stroke="black" d="M603.22,-1557.16C629.94,-1548.44 664.98,-1537.92 696.73,-1531.26 730.48,-1524.19 824.45,-1534.58 850.73,-1512.26 914.44,-1458.17 960.22,-1192.54 973.43,-1107.5"/>
<polygon fill="black" stroke="black" points="976.89,-1108.03 974.94,-1097.61 969.97,-1106.97 976.89,-1108.03"/>
<text text-anchor="middle" x="773.73" y="-1535.06" font-family="Times,serif" font-size="14.00">okhmeta:hasMetaTag</text>
</g>
<!-- http://w3id.org/oseg/ont/okhmeta#hasMetaTag&#45;&gt;http://w3id.org/oseg/ont/okhmeta#MetaTag -->
<g id="edge41" class="edge">
<title>http://w3id.org/oseg/ont/okhmeta#hasMetaTag&#45;&gt;http://w3id.org/oseg/ont/okhmeta#MetaTag</title>
<path fill="none" stroke="black" d="M573.67,-1555.95C596.67,-1530.62 644.85,-1482.34 696.73,-1459.26 759.96,-1431.13 797.28,-1480.22 850.73,-1436.26 954.38,-1351.03 973.21,-1174.53 976.6,-1107.69"/>
<polygon fill="black" stroke="black" points="980.1,-1107.72 977.04,-1097.58 973.11,-1107.42 980.1,-1107.72"/>
<text text-anchor="middle" x="773.73" y="-1463.06" font-family="Times,serif" font-size="14.00">dcam:rangeIncludes</text>
</g>
<!-- http://www.w3.org/2004/02/skos/core#member -->
<g id="node21" class="node">
<title>http://www.w3.org/2004/02/skos/core#member</title>
<ellipse fill="none" stroke="#e377c2" cx="978.33" cy="-1661.26" rx="79.39" ry="16.03"/>
<text text-anchor="middle" x="978.33" y="-1657.56" font-family="Times,serif" font-size="14.00">skos:member</text>
</g>
<!-- http://w3id.org/oseg/ont/okhmeta#hasMetaTag&#45;&gt;http://www.w3.org/2004/02/skos/core#member -->
<g id="edge39" class="edge">
<title>http://w3id.org/oseg/ont/okhmeta#hasMetaTag&#45;&gt;http://www.w3.org/2004/02/skos/core#member</title>
<path fill="none" stroke="black" d="M597.37,-1587.71C624.6,-1598.27 662.42,-1611.84 696.73,-1620.26 762.92,-1636.52 839.58,-1647.18 896.03,-1653.55"/>
<polygon fill="black" stroke="black" points="895.65,-1657.03 905.98,-1654.65 896.42,-1650.07 895.65,-1657.03"/>
<text text-anchor="middle" x="773.73" y="-1652.06" font-family="Times,serif" font-size="14.00">subPropertyOf</text>
</g>
<!-- http://w3id.org/oseg/ont/okhmeta#MakingTag -->
<g id="node10" class="node">
<title>http://w3id.org/oseg/ont/okhmeta#MakingTag</title>
<ellipse fill="none" stroke="#e377c2" cx="125.16" cy="-724.26" rx="113.69" ry="16.03"/>
<text text-anchor="middle" x="125.16" y="-720.56" font-family="Times,serif" font-size="14.00">okhmeta:MakingTag</text>
</g>
<!-- http://w3id.org/oseg/ont/okhmeta#MakingTag&#45;&gt;http://w3id.org/oseg/ont/okhmeta#Tag -->
<g id="edge5" class="edge">
<title>http://w3id.org/oseg/ont/okhmeta#MakingTag&#45;&gt;http://w3id.org/oseg/ont/okhmeta#Tag</title>
<path fill="none" stroke="black" d="M210.56,-735.05C291.94,-746.2 405.01,-763.94 420.32,-778.26 444.09,-800.5 421.01,-821.69 438.32,-849.26 459.35,-882.77 495.33,-910.67 522.27,-928.41"/>
<polygon fill="black" stroke="black" points="520.72,-931.57 531.03,-934.03 524.5,-925.68 520.72,-931.57"/>
<text text-anchor="middle" x="344.32" y="-782.06" font-family="Times,serif" font-size="14.00">a</text>
</g>
<!-- http://w3id.org/oseg/ont/okhmeta#MakingTag&#45;&gt;http://w3id.org/oseg/ont/okhmeta#MetaTag -->
<g id="edge7" class="edge">
<title>http://w3id.org/oseg/ont/okhmeta#MakingTag&#45;&gt;http://w3id.org/oseg/ont/okhmeta#MetaTag</title>
<path fill="none" stroke="black" d="M199.14,-711.88C218.35,-705.23 237.32,-694.99 250.32,-679.26 282.71,-640.06 229.63,-599.27 268.32,-566.26 304.13,-535.7 610.82,-550.56 678.73,-580.26 776.35,-622.97 805.38,-650.85 850.73,-747.26 893.81,-838.84 825.99,-882.52 868.73,-974.26 885.3,-1009.83 919.1,-1040.09 944.61,-1059.25"/>
<polygon fill="black" stroke="black" points="942.77,-1062.24 952.91,-1065.32 946.91,-1056.59 942.77,-1062.24"/>
<text text-anchor="middle" x="558.52" y="-584.06" font-family="Times,serif" font-size="14.00">okhmeta:hasMetaTag</text>
</g>
<!-- http://w3id.org/oseg/ont/okhmeta#DevelopmentTag -->
<g id="node11" class="node">
<title>http://w3id.org/oseg/ont/okhmeta#DevelopmentTag</title>
<ellipse fill="none" stroke="#e377c2" cx="125.16" cy="-1309.26" rx="124.4" ry="16.03"/>
<text text-anchor="middle" x="125.16" y="-1305.56" font-family="Times,serif" font-size="14.00">okhmeta:Developme...</text>
</g>
<!-- http://w3id.org/oseg/ont/okhmeta#DevelopmentTag&#45;&gt;http://w3id.org/oseg/ont/okhmeta#Tag -->
<g id="edge6" class="edge">
<title>http://w3id.org/oseg/ont/okhmeta#DevelopmentTag&#45;&gt;http://w3id.org/oseg/ont/okhmeta#Tag</title>
<path fill="none" stroke="black" d="M216.01,-1298.02C229.14,-1292.69 241.26,-1285.08 250.32,-1274.26 276.41,-1243.11 240.33,-1121.73 268.32,-1092.26 315.37,-1042.72 358.34,-1098.02 420.32,-1069.26 445.96,-1057.37 502.65,-1003.62 534.55,-972.24"/>
<polygon fill="black" stroke="black" points="537.07,-974.67 541.72,-965.15 532.15,-969.69 537.07,-974.67"/>
<text text-anchor="middle" x="344.32" y="-1096.06" font-family="Times,serif" font-size="14.00">a</text>
</g>
<!-- http://w3id.org/oseg/ont/okhmeta#DevelopmentTag&#45;&gt;http://w3id.org/oseg/ont/okhmeta#MetaTag -->
<g id="edge26" class="edge">
<title>http://w3id.org/oseg/ont/okhmeta#DevelopmentTag&#45;&gt;http://w3id.org/oseg/ont/okhmeta#MetaTag</title>
<path fill="none" stroke="black" d="M225.23,-1318.99C336.41,-1327.71 521.75,-1335.6 678.73,-1310.26 758.24,-1297.43 785.57,-1300.59 850.73,-1253.26 904.99,-1213.86 945.76,-1144.3 965.03,-1106.85"/>
<polygon fill="black" stroke="black" points="968.31,-1108.13 969.68,-1097.62 962.05,-1104.98 968.31,-1108.13"/>
<text text-anchor="middle" x="558.52" y="-1332.06" font-family="Times,serif" font-size="14.00">okhmeta:hasMetaTag</text>
</g>
<!-- http://w3id.org/oseg/ont/okhmeta#LegalTag -->
<g id="node12" class="node">
<title>http://w3id.org/oseg/ont/okhmeta#LegalTag</title>
<ellipse fill="none" stroke="#e377c2" cx="125.16" cy="-1418.26" rx="103.89" ry="16.03"/>
<text text-anchor="middle" x="125.16" y="-1414.56" font-family="Times,serif" font-size="14.00">okhmeta:LegalTag</text>
</g>
<!-- http://w3id.org/oseg/ont/okhmeta#LegalTag&#45;&gt;http://w3id.org/oseg/ont/okhmeta#Tag -->
<g id="edge32" class="edge">
<title>http://w3id.org/oseg/ont/okhmeta#LegalTag&#45;&gt;http://w3id.org/oseg/ont/okhmeta#Tag</title>
<path fill="none" stroke="black" d="M203.49,-1407.45C281.32,-1394.83 393.58,-1371.24 420.32,-1337.26 458.6,-1288.61 411.66,-1115.14 438.32,-1059.26 456.67,-1020.8 494.98,-989.37 523.24,-970.1"/>
<polygon fill="black" stroke="black" points="525.26,-972.96 531.66,-964.51 521.39,-967.13 525.26,-972.96"/>
<text text-anchor="middle" x="344.32" y="-1399.06" font-family="Times,serif" font-size="14.00">a</text>
</g>
<!-- http://w3id.org/oseg/ont/okhmeta#LegalTag&#45;&gt;http://w3id.org/oseg/ont/okhmeta#MetaTag -->
<g id="edge40" class="edge">
<title>http://w3id.org/oseg/ont/okhmeta#LegalTag&#45;&gt;http://w3id.org/oseg/ont/okhmeta#MetaTag</title>
<path fill="none" stroke="black" d="M186.75,-1431.37C323.11,-1457.06 657.25,-1498.19 850.73,-1334.26 923.5,-1272.61 958.72,-1158.92 971.48,-1107.61"/>
<polygon fill="black" stroke="black" points="974.94,-1108.19 973.87,-1097.65 968.14,-1106.56 974.94,-1108.19"/>
<text text-anchor="middle" x="558.52" y="-1460.06" font-family="Times,serif" font-size="14.00">okhmeta:hasMetaTag</text>
</g>
<!-- http://w3id.org/oseg/ont/okhmeta#QualityTag -->
<g id="node13" class="node">
<title>http://w3id.org/oseg/ont/okhmeta#QualityTag</title>
<ellipse fill="none" stroke="#e377c2" cx="125.16" cy="-784.26" rx="113.27" ry="16.03"/>
<text text-anchor="middle" x="125.16" y="-780.56" font-family="Times,serif" font-size="14.00">okhmeta:QualityTag</text>
</g>
<!-- http://w3id.org/oseg/ont/okhmeta#QualityTag&#45;&gt;http://w3id.org/oseg/ont/okhmeta#Tag -->
<g id="edge33" class="edge">
<title>http://w3id.org/oseg/ont/okhmeta#QualityTag&#45;&gt;http://w3id.org/oseg/ont/okhmeta#Tag</title>
<path fill="none" stroke="black" d="M229.66,-790.64C287.83,-797.27 360.52,-810.78 420.32,-838.26 432.8,-844 495.19,-896.23 531.39,-926.95"/>
<polygon fill="black" stroke="black" points="529.24,-929.72 539.13,-933.53 533.77,-924.38 529.24,-929.72"/>
<text text-anchor="middle" x="344.32" y="-842.06" font-family="Times,serif" font-size="14.00">a</text>
</g>
<!-- http://w3id.org/oseg/ont/okhmeta#QualityTag&#45;&gt;http://w3id.org/oseg/ont/okhmeta#MetaTag -->
<g id="edge37" class="edge">
<title>http://w3id.org/oseg/ont/okhmeta#QualityTag&#45;&gt;http://w3id.org/oseg/ont/okhmeta#MetaTag</title>
<path fill="none" stroke="black" d="M213.04,-774.01C227.26,-768.66 240.52,-760.78 250.32,-749.26 273.21,-722.34 241.95,-614.79 268.32,-591.26 318.72,-546.28 355.88,-570.97 420.32,-591.26 531.64,-626.33 785.96,-795.17 850.73,-892.26 871.44,-923.3 850.7,-941.6 868.73,-974.26 887.81,-1008.82 921.52,-1039.43 946.34,-1058.96"/>
<polygon fill="black" stroke="black" points="944.32,-1061.82 954.38,-1065.15 948.59,-1056.28 944.32,-1061.82"/>
<text text-anchor="middle" x="558.52" y="-739.06" font-family="Times,serif" font-size="14.00">okhmeta:hasMetaTag</text>
</g>
<!-- http://w3id.org/oseg/ont/okhmeta#ExtendedInfoTag -->
<g id="node14" class="node">
<title>http://w3id.org/oseg/ont/okhmeta#ExtendedInfoTag</title>
<ellipse fill="none" stroke="#e377c2" cx="125.16" cy="-1091.26" rx="120.42" ry="16.03"/>
<text text-anchor="middle" x="125.16" y="-1087.56" font-family="Times,serif" font-size="14.00">okhmeta:ExtendedI...</text>
</g>
<!-- http://w3id.org/oseg/ont/okhmeta#ExtendedInfoTag&#45;&gt;http://w3id.org/oseg/ont/okhmeta#Tag -->
<g id="edge34" class="edge">
<title>http://w3id.org/oseg/ont/okhmeta#ExtendedInfoTag&#45;&gt;http://w3id.org/oseg/ont/okhmeta#Tag</title>
<path fill="none" stroke="black" d="M145.89,-1075.1C183.25,-1044.55 261.23,-981.14 268.32,-978.26 304.19,-963.69 400.97,-956.17 472.75,-952.48"/>
<polygon fill="black" stroke="black" points="473.34,-955.96 483.15,-951.97 472.99,-948.97 473.34,-955.96"/>
<text text-anchor="middle" x="344.32" y="-982.06" font-family="Times,serif" font-size="14.00">a</text>
</g>
<!-- http://w3id.org/oseg/ont/okhmeta#ExtendedInfoTag&#45;&gt;http://w3id.org/oseg/ont/okhmeta#MetaTag -->
<g id="edge30" class="edge">
<title>http://w3id.org/oseg/ont/okhmeta#ExtendedInfoTag&#45;&gt;http://w3id.org/oseg/ont/okhmeta#MetaTag</title>
<path fill="none" stroke="black" d="M173.2,-1106.26C198.74,-1116.4 229.31,-1132.05 250.32,-1154.26 263.99,-1168.72 251.65,-1184.38 268.32,-1195.26 324.88,-1232.2 352.87,-1199.09 420.32,-1195.26 612.54,-1184.36 666.45,-1202.03 850.73,-1146.26 884.22,-1136.13 919.4,-1117.32 944.15,-1102.53"/>
<polygon fill="black" stroke="black" points="946.05,-1105.47 952.77,-1097.29 942.41,-1099.49 946.05,-1105.47"/>
<text text-anchor="middle" x="558.52" y="-1199.06" font-family="Times,serif" font-size="14.00">okhmeta:hasMetaTag</text>
</g>
<!-- http://w3id.org/oseg/ont/okhmeta#IdentificationTag -->
<g id="node15" class="node">
<title>http://w3id.org/oseg/ont/okhmeta#IdentificationTag</title>
<ellipse fill="none" stroke="#e377c2" cx="125.16" cy="-1365.26" rx="109.7" ry="16.03"/>
<text text-anchor="middle" x="125.16" y="-1361.56" font-family="Times,serif" font-size="14.00">okhmeta:Identific...</text>
</g>
<!-- http://w3id.org/oseg/ont/okhmeta#IdentificationTag&#45;&gt;http://w3id.org/oseg/ont/okhmeta#Tag -->
<g id="edge10" class="edge">
<title>http://w3id.org/oseg/ont/okhmeta#IdentificationTag&#45;&gt;http://w3id.org/oseg/ont/okhmeta#Tag</title>
<path fill="none" stroke="black" d="M205.4,-1354.05C221.12,-1349.53 236.9,-1343.18 250.32,-1334.26 355.31,-1264.52 359.8,-1217.83 420.32,-1107.26 431.25,-1087.28 425.6,-1078.17 438.32,-1059.26 462.29,-1023.63 500,-991.42 526.58,-971.19"/>
<polygon fill="black" stroke="black" points="528.87,-973.85 534.78,-965.06 524.68,-968.24 528.87,-973.85"/>
<text text-anchor="middle" x="344.32" y="-1322.06" font-family="Times,serif" font-size="14.00">a</text>
</g>
<!-- http://w3id.org/oseg/ont/okhmeta#IdentificationTag&#45;&gt;http://w3id.org/oseg/ont/okhmeta#MetaTag -->
<g id="edge48" class="edge">
<title>http://w3id.org/oseg/ont/okhmeta#IdentificationTag&#45;&gt;http://w3id.org/oseg/ont/okhmeta#MetaTag</title>
<path fill="none" stroke="black" d="M232.96,-1368.45C410.82,-1371.58 757.42,-1367.69 850.73,-1294.26 914.56,-1244.04 953.1,-1152.05 968.94,-1107.21"/>
<polygon fill="black" stroke="black" points="972.29,-1108.23 972.22,-1097.63 965.67,-1105.95 972.29,-1108.23"/>
<text text-anchor="middle" x="558.52" y="-1372.06" font-family="Times,serif" font-size="14.00">okhmeta:hasMetaTag</text>
</g>
<!-- http://w3id.org/oseg/ont/okhmeta -->
<g id="node16" class="node">
<title>http://w3id.org/oseg/ont/okhmeta</title>
<ellipse fill="none" stroke="#e377c2" cx="125.16" cy="-150.26" rx="76.24" ry="16.03"/>
<text text-anchor="middle" x="125.16" y="-146.56" font-family="Times,serif" font-size="14.00">ns2:okhmeta</text>
</g>
<!-- http://w3id.org/oseg/ont/okhmeta&#45;&gt;http://spdx.org/rdf/terms#SpdxItem -->
<g id="edge12" class="edge">
<title>http://w3id.org/oseg/ont/okhmeta&#45;&gt;http://spdx.org/rdf/terms#SpdxItem</title>
<path fill="none" stroke="black" d="M138.65,-166.31C161.23,-194.04 211.77,-250.52 268.32,-277.26 328.33,-305.65 402.42,-316.78 460.58,-320.88"/>
<polygon fill="black" stroke="black" points="460.68,-324.39 470.88,-321.54 461.13,-317.4 460.68,-324.39"/>
<text text-anchor="middle" x="344.32" y="-320.06" font-family="Times,serif" font-size="14.00">a</text>
</g>
<!-- http://w3id.org/oseg/ont/okhmeta&#45;&gt;http://www.w3.org/2002/07/owl#Ontology -->
<g id="edge20" class="edge">
<title>http://w3id.org/oseg/ont/okhmeta&#45;&gt;http://www.w3.org/2002/07/owl#Ontology</title>
<path fill="none" stroke="black" d="M150.26,-165.88C177.72,-182.92 224.48,-209.71 268.32,-224.26 335.97,-246.72 416.23,-258.68 475.01,-264.9"/>
<polygon fill="black" stroke="black" points="474.68,-268.38 484.99,-265.92 475.4,-261.42 474.68,-268.38"/>
<text text-anchor="middle" x="344.32" y="-262.06" font-family="Times,serif" font-size="14.00">a</text>
</g>
<!-- http://w3id.org/oseg/ont/okhmeta&#45;&gt;http://id.loc.gov/vocabulary/iso639&#45;1/en -->
<g id="edge1" class="edge">
<title>http://w3id.org/oseg/ont/okhmeta&#45;&gt;http://id.loc.gov/vocabulary/iso639&#45;1/en</title>
<path fill="none" stroke="black" d="M175.61,-162.55C202.84,-169.03 237.31,-176.75 268.32,-182.26 350.39,-196.86 446.5,-208.4 504.65,-214.77"/>
<polygon fill="black" stroke="black" points="504.39,-218.27 514.71,-215.87 505.14,-211.31 504.39,-218.27"/>
<text text-anchor="middle" x="344.32" y="-209.06" font-family="Times,serif" font-size="14.00">dcterms:language</text>
</g>
<!-- http://w3id.org/oseg/ont/oseg&#45;profiles#Iopa -->
<g id="node17" class="node">
<title>http://w3id.org/oseg/ont/oseg&#45;profiles#Iopa</title>
<ellipse fill="none" stroke="#e377c2" cx="558.52" cy="-169.26" rx="80.72" ry="16.03"/>
<text text-anchor="middle" x="558.52" y="-165.56" font-family="Times,serif" font-size="14.00">osegprof:Iopa</text>
</g>
<!-- http://w3id.org/oseg/ont/okhmeta&#45;&gt;http://w3id.org/oseg/ont/oseg&#45;profiles#Iopa -->
<g id="edge35" class="edge">
<title>http://w3id.org/oseg/ont/okhmeta&#45;&gt;http://w3id.org/oseg/ont/oseg&#45;profiles#Iopa</title>
<path fill="none" stroke="black" d="M200.31,-153.53C274.89,-156.81 389.89,-161.88 469.16,-165.37"/>
<polygon fill="black" stroke="black" points="469.46,-168.89 479.61,-165.83 469.77,-161.89 469.46,-168.89"/>
<text text-anchor="middle" x="344.32" y="-167.06" font-family="Times,serif" font-size="14.00">dcterms:publisher</text>
</g>
<!-- http://spdx.org/licenses/GPL&#45;3.0&#45;or&#45;later -->
<g id="node19" class="node">
<title>http://spdx.org/licenses/GPL&#45;3.0&#45;or&#45;later</title>
<ellipse fill="none" stroke="#e377c2" cx="558.52" cy="-118.26" rx="108.79" ry="16.03"/>
<text text-anchor="middle" x="558.52" y="-114.56" font-family="Times,serif" font-size="14.00">spdxl:GPL&#45;3.0&#45;or&#45;...</text>
</g>
<!-- http://w3id.org/oseg/ont/okhmeta&#45;&gt;http://spdx.org/licenses/GPL&#45;3.0&#45;or&#45;later -->
<g id="edge15" class="edge">
<title>http://w3id.org/oseg/ont/okhmeta&#45;&gt;http://spdx.org/licenses/GPL&#45;3.0&#45;or&#45;later</title>
<path fill="none" stroke="black" d="M196.28,-144.13C219.23,-142.18 244.86,-140.06 268.32,-138.26 327.72,-133.7 394.02,-129.08 448.14,-125.44"/>
<polygon fill="black" stroke="black" points="448.7,-128.91 458.45,-124.74 448.23,-121.92 448.7,-128.91"/>
<text text-anchor="middle" x="344.32" y="-142.06" font-family="Times,serif" font-size="14.00">spdx:licenseDeclared</text>
</g>
<!-- http://w3id.org/oseg/ont/oseg&#45;profiles#robinVobruba -->
<g id="node20" class="node">
<title>http://w3id.org/oseg/ont/oseg&#45;profiles#robinVobruba</title>
<ellipse fill="none" stroke="#e377c2" cx="558.52" cy="-67.26" rx="113.69" ry="16.03"/>
<text text-anchor="middle" x="558.52" y="-63.56" font-family="Times,serif" font-size="14.00">osegprof:robinVob...</text>
</g>
<!-- http://w3id.org/oseg/ont/okhmeta&#45;&gt;http://w3id.org/oseg/ont/oseg&#45;profiles#robinVobruba -->
<g id="edge16" class="edge">
<title>http://w3id.org/oseg/ont/okhmeta&#45;&gt;http://w3id.org/oseg/ont/oseg&#45;profiles#robinVobruba</title>
<path fill="none" stroke="black" d="M167.76,-136.64C195.9,-127.82 234.04,-116.66 268.32,-109.26 330.78,-95.79 401.77,-85.41 457.79,-78.34"/>
<polygon fill="black" stroke="black" points="458.23,-81.81 467.72,-77.1 457.36,-74.86 458.23,-81.81"/>
<text text-anchor="middle" x="344.32" y="-113.06" font-family="Times,serif" font-size="14.00">schema:creator</text>
</g>
<!-- http://w3id.org/oseg/ont/okhmeta&#45;&gt;http://w3id.org/oseg/ont/oseg&#45;profiles#robinVobruba -->
<g id="edge43" class="edge">
<title>http://w3id.org/oseg/ont/okhmeta&#45;&gt;http://w3id.org/oseg/ont/oseg&#45;profiles#robinVobruba</title>
<path fill="none" stroke="black" d="M144.84,-134.5C170.63,-113.86 219.53,-78.74 268.32,-65.26 334.18,-47.07 411.74,-48.79 469.95,-54.38"/>
<polygon fill="black" stroke="black" points="469.92,-57.9 480.22,-55.43 470.63,-50.94 469.92,-57.9"/>
<text text-anchor="middle" x="344.32" y="-69.06" font-family="Times,serif" font-size="14.00">dcterms:creator</text>
</g>
<!-- http://w3id.org/oseg/ont/1.1.0/okh&#45;meta -->
<g id="node30" class="node">
<title>http://w3id.org/oseg/ont/1.1.0/okh&#45;meta</title>
<ellipse fill="none" stroke="#e377c2" cx="558.52" cy="-16.26" rx="79.81" ry="16.03"/>
<text text-anchor="middle" x="558.52" y="-12.56" font-family="Times,serif" font-size="14.00">ns3:okh&#45;meta</text>
</g>
<!-- http://w3id.org/oseg/ont/okhmeta&#45;&gt;http://w3id.org/oseg/ont/1.1.0/okh&#45;meta -->
<g id="edge28" class="edge">
<title>http://w3id.org/oseg/ont/okhmeta&#45;&gt;http://w3id.org/oseg/ont/1.1.0/okh&#45;meta</title>
<path fill="none" stroke="black" d="M139.4,-133.94C162.37,-107.04 212.48,-54.18 268.32,-32.26 335.8,-5.78 418.99,-4.05 478.8,-7.59"/>
<polygon fill="black" stroke="black" points="478.73,-11.09 488.93,-8.25 479.19,-4.11 478.73,-11.09"/>
<text text-anchor="middle" x="344.32" y="-36.06" font-family="Times,serif" font-size="14.00">owl:versionIRI</text>
</g>
<!-- http://w3id.org/oseg/ont/okhmeta#DataTag -->
<g id="node18" class="node">
<title>http://w3id.org/oseg/ont/okhmeta#DataTag</title>
<ellipse fill="none" stroke="#e377c2" cx="125.16" cy="-507.26" rx="100.32" ry="16.03"/>
<text text-anchor="middle" x="125.16" y="-503.56" font-family="Times,serif" font-size="14.00">okhmeta:DataTag</text>
</g>
<!-- http://w3id.org/oseg/ont/okhmeta#DataTag&#45;&gt;http://w3id.org/oseg/ont/okhmeta#Tag -->
<g id="edge36" class="edge">
<title>http://w3id.org/oseg/ont/okhmeta#DataTag&#45;&gt;http://w3id.org/oseg/ont/okhmeta#Tag</title>
<path fill="none" stroke="black" d="M208.63,-516.35C224.22,-521.53 239.12,-529.39 250.32,-541.26 276.81,-569.36 239.88,-600.13 268.32,-626.26 318.44,-672.33 373.06,-596.26 420.32,-645.26 451.91,-678.02 417.28,-808.91 438.32,-849.26 456.51,-884.17 492.62,-911.74 520.35,-929.02"/>
<polygon fill="black" stroke="black" points="518.66,-932.08 529.03,-934.26 522.28,-926.09 518.66,-932.08"/>
<text text-anchor="middle" x="344.32" y="-649.06" font-family="Times,serif" font-size="14.00">a</text>
</g>
<!-- http://w3id.org/oseg/ont/okhmeta#DataTag&#45;&gt;http://w3id.org/oseg/ont/okhmeta#MetaTag -->
<g id="edge29" class="edge">
<title>http://w3id.org/oseg/ont/okhmeta#DataTag&#45;&gt;http://w3id.org/oseg/ont/okhmeta#MetaTag</title>
<path fill="none" stroke="black" d="M176.13,-493.19C203.23,-486.02 237.4,-477.68 268.32,-472.26 395.8,-449.93 763.47,-380.67 850.73,-476.26 888.06,-517.16 846.43,-923.58 868.73,-974.26 884.53,-1010.18 918.45,-1040.38 944.21,-1059.44"/>
<polygon fill="black" stroke="black" points="942.43,-1062.47 952.59,-1065.47 946.51,-1056.79 942.43,-1062.47"/>
<text text-anchor="middle" x="558.52" y="-448.06" font-family="Times,serif" font-size="14.00">okhmeta:hasMetaTag</text>
</g>
<!-- http://w3id.org/oseg/ont/okhmeta#BasicTag -->
<g id="node22" class="node">
<title>http://w3id.org/oseg/ont/okhmeta#BasicTag</title>
<ellipse fill="none" stroke="#e377c2" cx="125.16" cy="-840.26" rx="103.48" ry="16.03"/>
<text text-anchor="middle" x="125.16" y="-836.56" font-family="Times,serif" font-size="14.00">okhmeta:BasicTag</text>
</g>
<!-- http://w3id.org/oseg/ont/okhmeta#BasicTag&#45;&gt;http://w3id.org/oseg/ont/okhmeta#Tag -->
<g id="edge17" class="edge">
<title>http://w3id.org/oseg/ont/okhmeta#BasicTag&#45;&gt;http://w3id.org/oseg/ont/okhmeta#Tag</title>
<path fill="none" stroke="black" d="M212.7,-848.98C271.99,-856.32 351.95,-868.96 420.32,-889.26 455.1,-899.59 492.73,-916.49 519.77,-929.72"/>
<polygon fill="black" stroke="black" points="518.36,-932.93 528.87,-934.24 521.46,-926.66 518.36,-932.93"/>
<text text-anchor="middle" x="344.32" y="-893.06" font-family="Times,serif" font-size="14.00">a</text>
</g>
<!-- http://w3id.org/oseg/ont/okhmeta#BasicTag&#45;&gt;http://w3id.org/oseg/ont/okhmeta#MetaTag -->
<g id="edge4" class="edge">
<title>http://w3id.org/oseg/ont/okhmeta#BasicTag&#45;&gt;http://w3id.org/oseg/ont/okhmeta#MetaTag</title>
<path fill="none" stroke="black" d="M223.98,-835.5C370.4,-832.8 650.7,-845.1 850.73,-961.26 873.79,-974.65 925.02,-1026.39 954.76,-1057.39"/>
<polygon fill="black" stroke="black" points="952.39,-1059.98 961.83,-1064.79 957.45,-1055.14 952.39,-1059.98"/>
<text text-anchor="middle" x="558.52" y="-893.06" font-family="Times,serif" font-size="14.00">okhmeta:hasMetaTag</text>
</g>
<!-- http://w3id.org/oseg/ont/okhmeta#HistoryTag -->
<g id="node23" class="node">
<title>http://w3id.org/oseg/ont/okhmeta#HistoryTag</title>
<ellipse fill="none" stroke="#e377c2" cx="125.16" cy="-381.26" rx="113.69" ry="16.03"/>
<text text-anchor="middle" x="125.16" y="-377.56" font-family="Times,serif" font-size="14.00">okhmeta:HistoryTag</text>
</g>
<!-- http://w3id.org/oseg/ont/okhmeta#HistoryTag&#45;&gt;http://w3id.org/oseg/ont/okhmeta#Tag -->
<g id="edge18" class="edge">
<title>http://w3id.org/oseg/ont/okhmeta#HistoryTag&#45;&gt;http://w3id.org/oseg/ont/okhmeta#Tag</title>
<path fill="none" stroke="black" d="M162.37,-396.76C227.25,-426.68 361.96,-499.16 420.32,-607.26 471.55,-702.17 389.13,-753.28 438.32,-849.26 456.21,-884.19 492.19,-911.68 519.96,-928.93"/>
<polygon fill="black" stroke="black" points="518.28,-932 528.65,-934.16 521.89,-926 518.28,-932"/>
<text text-anchor="middle" x="344.32" y="-611.06" font-family="Times,serif" font-size="14.00">a</text>
</g>
<!-- http://w3id.org/oseg/ont/okhmeta#HistoryTag&#45;&gt;http://w3id.org/oseg/ont/okhmeta#MetaTag -->
<g id="edge23" class="edge">
<title>http://w3id.org/oseg/ont/okhmeta#HistoryTag&#45;&gt;http://w3id.org/oseg/ont/okhmeta#MetaTag</title>
<path fill="none" stroke="black" d="M219.05,-371.99C395.11,-356.72 767.29,-336.14 850.73,-425.26 892.45,-469.82 844.25,-918.36 868.73,-974.26 884.47,-1010.2 918.4,-1040.4 944.17,-1059.45"/>
<polygon fill="black" stroke="black" points="942.4,-1062.49 952.56,-1065.48 946.48,-1056.8 942.4,-1062.49"/>
<text text-anchor="middle" x="558.52" y="-371.06" font-family="Times,serif" font-size="14.00">okhmeta:hasMetaTag</text>
</g>
<!-- http://w3id.org/oseg/ont/okhmeta#DocumentationTag -->
<g id="node24" class="node">
<title>http://w3id.org/oseg/ont/okhmeta#DocumentationTag</title>
<ellipse fill="none" stroke="#e377c2" cx="125.16" cy="-965.26" rx="125.32" ry="16.03"/>
<text text-anchor="middle" x="125.16" y="-961.56" font-family="Times,serif" font-size="14.00">okhmeta:Documenta...</text>
</g>
<!-- http://w3id.org/oseg/ont/okhmeta#DocumentationTag&#45;&gt;http://w3id.org/oseg/ont/okhmeta#Tag -->
<g id="edge19" class="edge">
<title>http://w3id.org/oseg/ont/okhmeta#DocumentationTag&#45;&gt;http://w3id.org/oseg/ont/okhmeta#Tag</title>
<path fill="none" stroke="black" d="M190.95,-951.42C215.11,-946.91 242.85,-942.49 268.32,-940.26 339.25,-934.07 420.29,-937.5 478.5,-941.79"/>
<polygon fill="black" stroke="black" points="478.5,-945.3 488.74,-942.57 479.03,-938.32 478.5,-945.3"/>
<text text-anchor="middle" x="344.32" y="-944.06" font-family="Times,serif" font-size="14.00">a</text>
</g>
<!-- http://w3id.org/oseg/ont/okhmeta#DocumentationTag&#45;&gt;http://w3id.org/oseg/ont/okhmeta#MetaTag -->
<g id="edge27" class="edge">
<title>http://w3id.org/oseg/ont/okhmeta#DocumentationTag&#45;&gt;http://w3id.org/oseg/ont/okhmeta#MetaTag</title>
<path fill="none" stroke="black" d="M155.97,-981.03C184.97,-998.03 227.85,-1027.9 250.32,-1066.26 274.02,-1106.75 232.43,-1140.05 268.32,-1170.26 320,-1213.77 353.16,-1177.63 420.32,-1170.26 428.46,-1169.37 430.26,-1167.79 438.32,-1166.26 597.01,-1136.15 783.41,-1108.44 890.22,-1093.3"/>
<polygon fill="black" stroke="black" points="890.9,-1096.74 900.31,-1091.87 889.92,-1089.81 890.9,-1096.74"/>
<text text-anchor="middle" x="558.52" y="-1170.06" font-family="Times,serif" font-size="14.00">okhmeta:hasMetaTag</text>
</g>
<!-- http://w3id.org/oseg/ont/okhmeta#DataGatheringTag -->
<g id="node25" class="node">
<title>http://w3id.org/oseg/ont/okhmeta#DataGatheringTag</title>
<ellipse fill="none" stroke="#e377c2" cx="125.16" cy="-566.26" rx="122.16" ry="16.03"/>
<text text-anchor="middle" x="125.16" y="-562.56" font-family="Times,serif" font-size="14.00">okhmeta:DataGathe...</text>
</g>
<!-- http://w3id.org/oseg/ont/okhmeta#DataGatheringTag&#45;&gt;http://w3id.org/oseg/ont/okhmeta#Tag -->
<g id="edge21" class="edge">
<title>http://w3id.org/oseg/ont/okhmeta#DataGatheringTag&#45;&gt;http://w3id.org/oseg/ont/okhmeta#Tag</title>
<path fill="none" stroke="black" d="M171.78,-581.4C197.34,-591.7 228.38,-607.45 250.32,-629.26 262.72,-641.6 253.98,-654.24 268.32,-664.26 324.12,-703.27 372.57,-634.73 420.32,-683.26 446.34,-709.71 420.84,-816.53 438.32,-849.26 456.86,-883.99 492.92,-911.59 520.54,-928.91"/>
<polygon fill="black" stroke="black" points="518.82,-931.96 529.18,-934.18 522.46,-925.99 518.82,-931.96"/>
<text text-anchor="middle" x="344.32" y="-687.06" font-family="Times,serif" font-size="14.00">a</text>
</g>
<!-- http://w3id.org/oseg/ont/okhmeta#DataGatheringTag&#45;&gt;http://w3id.org/oseg/ont/okhmeta#MetaTag -->
<g id="edge14" class="edge">
<title>http://w3id.org/oseg/ont/okhmeta#DataGatheringTag&#45;&gt;http://w3id.org/oseg/ont/okhmeta#MetaTag</title>
<path fill="none" stroke="black" d="M207.56,-554.2C222.87,-549.22 237.93,-542.19 250.32,-532.26 263.66,-521.57 254.21,-507.92 268.32,-498.26 321.72,-461.69 808.67,-463.06 850.73,-512.26 884.11,-551.31 847.98,-927.27 868.73,-974.26 884.58,-1010.16 918.49,-1040.36 944.23,-1059.43"/>
<polygon fill="black" stroke="black" points="942.45,-1062.46 952.61,-1065.46 946.54,-1056.78 942.45,-1062.46"/>
<text text-anchor="middle" x="558.52" y="-482.06" font-family="Times,serif" font-size="14.00">okhmeta:hasMetaTag</text>
</g>
<!-- http://w3id.org/oseg/ont/okhmeta#PartsTag -->
<g id="node26" class="node">
<title>http://w3id.org/oseg/ont/okhmeta#PartsTag</title>
<ellipse fill="none" stroke="#e377c2" cx="125.16" cy="-907.26" rx="103.48" ry="16.03"/>
<text text-anchor="middle" x="125.16" y="-903.56" font-family="Times,serif" font-size="14.00">okhmeta:PartsTag</text>
</g>
<!-- http://w3id.org/oseg/ont/okhmeta#PartsTag&#45;&gt;http://w3id.org/oseg/ont/okhmeta#Tag -->
<g id="edge42" class="edge">
<title>http://w3id.org/oseg/ont/okhmeta#PartsTag&#45;&gt;http://w3id.org/oseg/ont/okhmeta#Tag</title>
<path fill="none" stroke="black" d="M228.31,-906.46C285.07,-907.17 356.85,-909.98 420.32,-918.26 447.13,-921.76 476.42,-928.04 501.03,-934.03"/>
<polygon fill="black" stroke="black" points="500.37,-937.47 510.92,-936.48 502.05,-930.68 500.37,-937.47"/>
<text text-anchor="middle" x="344.32" y="-922.06" font-family="Times,serif" font-size="14.00">a</text>
</g>
<!-- http://w3id.org/oseg/ont/okhmeta#PartsTag&#45;&gt;http://w3id.org/oseg/ont/okhmeta#MetaTag -->
<g id="edge13" class="edge">
<title>http://w3id.org/oseg/ont/okhmeta#PartsTag&#45;&gt;http://w3id.org/oseg/ont/okhmeta#MetaTag</title>
<path fill="none" stroke="black" d="M213.21,-915.85C227.41,-921 240.63,-928.74 250.32,-940.26 279.75,-975.26 234.59,-1114.37 268.32,-1145.26 293.22,-1168.08 391.77,-1163.33 420.32,-1145.26 436.11,-1135.27 422.77,-1117.63 438.32,-1107.26 507.27,-1061.26 738.42,-1066.43 874.6,-1074.01"/>
<polygon fill="black" stroke="black" points="874.46,-1077.51 884.65,-1074.58 874.86,-1070.52 874.46,-1077.51"/>
<text text-anchor="middle" x="558.52" y="-1111.06" font-family="Times,serif" font-size="14.00">okhmeta:hasMetaTag</text>
</g>
<!-- http://w3id.org/oseg/ont/okhmeta#PhysicalTag -->
<g id="node27" class="node">
<title>http://w3id.org/oseg/ont/okhmeta#PhysicalTag</title>
<ellipse fill="none" stroke="#e377c2" cx="125.16" cy="-1179.26" rx="118.17" ry="16.03"/>
<text text-anchor="middle" x="125.16" y="-1175.56" font-family="Times,serif" font-size="14.00">okhmeta:PhysicalTag</text>
</g>
<!-- http://w3id.org/oseg/ont/okhmeta#PhysicalTag&#45;&gt;http://w3id.org/oseg/ont/okhmeta#Tag -->
<g id="edge25" class="edge">
<title>http://w3id.org/oseg/ont/okhmeta#PhysicalTag&#45;&gt;http://w3id.org/oseg/ont/okhmeta#Tag</title>
<path fill="none" stroke="black" d="M178.76,-1164.76C204.17,-1155.09 232.86,-1139.73 250.32,-1116.26 277.27,-1080.03 235.94,-1047.75 268.32,-1016.26 292.81,-992.45 387.06,-1001.06 420.32,-993.26 450.55,-986.18 483.73,-975.62 509.88,-966.62"/>
<polygon fill="black" stroke="black" points="511.25,-969.85 519.54,-963.26 508.95,-963.24 511.25,-969.85"/>
<text text-anchor="middle" x="344.32" y="-1020.06" font-family="Times,serif" font-size="14.00">a</text>
</g>
<!-- http://w3id.org/oseg/ont/okhmeta#PhysicalTag&#45;&gt;http://w3id.org/oseg/ont/okhmeta#MetaTag -->
<g id="edge11" class="edge">
<title>http://w3id.org/oseg/ont/okhmeta#PhysicalTag&#45;&gt;http://w3id.org/oseg/ont/okhmeta#MetaTag</title>
<path fill="none" stroke="black" d="M169.4,-1194.37C197.25,-1203.29 234.46,-1213.7 268.32,-1218.26 396.89,-1235.58 732.51,-1231.69 850.73,-1178.26 890.86,-1160.13 929.98,-1127.1 953.87,-1104.67"/>
<polygon fill="black" stroke="black" points="956.55,-1106.95 961.36,-1097.51 951.72,-1101.89 956.55,-1106.95"/>
<text text-anchor="middle" x="558.52" y="-1232.06" font-family="Times,serif" font-size="14.00">okhmeta:hasMetaTag</text>
</g>
<!-- http://w3id.org/oseg/ont/okhmeta#TransportationTag -->
<g id="node28" class="node">
<title>http://w3id.org/oseg/ont/okhmeta#TransportationTag</title>
<ellipse fill="none" stroke="#e377c2" cx="125.16" cy="-654.26" rx="118.17" ry="16.03"/>
<text text-anchor="middle" x="125.16" y="-650.56" font-family="Times,serif" font-size="14.00">okhmeta:Transport...</text>
</g>
<!-- http://w3id.org/oseg/ont/okhmeta#TransportationTag&#45;&gt;http://w3id.org/oseg/ont/okhmeta#Tag -->
<g id="edge44" class="edge">
<title>http://w3id.org/oseg/ont/okhmeta#TransportationTag&#45;&gt;http://w3id.org/oseg/ont/okhmeta#Tag</title>
<path fill="none" stroke="black" d="M165.44,-669.6C193.68,-680.12 232.87,-693.67 268.32,-702.26 301.52,-710.31 396.23,-701.03 420.32,-725.26 459.57,-764.76 411.2,-800.62 438.32,-849.26 457.54,-883.76 493.68,-911.46 521.15,-928.89"/>
<polygon fill="black" stroke="black" points="519.38,-931.91 529.73,-934.18 523.05,-925.95 519.38,-931.91"/>
<text text-anchor="middle" x="344.32" y="-729.06" font-family="Times,serif" font-size="14.00">a</text>
</g>
<!-- http://w3id.org/oseg/ont/okhmeta#TransportationTag&#45;&gt;http://w3id.org/oseg/ont/okhmeta#MetaTag -->
<g id="edge47" class="edge">
<title>http://w3id.org/oseg/ont/okhmeta#TransportationTag&#45;&gt;http://w3id.org/oseg/ont/okhmeta#MetaTag</title>
<path fill="none" stroke="black" d="M173.79,-639.41C199.36,-629.35 229.76,-613.74 250.32,-591.26 264.85,-575.37 251.03,-559.11 268.32,-546.26 372.43,-468.89 771.57,-482.5 850.73,-585.26 877.14,-619.54 851.11,-934.75 868.73,-974.26 884.71,-1010.1 918.6,-1040.31 944.3,-1059.4"/>
<polygon fill="black" stroke="black" points="942.51,-1062.42 952.67,-1065.43 946.61,-1056.74 942.51,-1062.42"/>
<text text-anchor="middle" x="558.52" y="-514.06" font-family="Times,serif" font-size="14.00">okhmeta:hasMetaTag</text>
</g>
<!-- http://w3id.org/oseg/ont/okhmeta#AcademicTag -->
<g id="node29" class="node">
<title>http://w3id.org/oseg/ont/okhmeta#AcademicTag</title>
<ellipse fill="none" stroke="#e377c2" cx="125.16" cy="-1249.26" rx="124.4" ry="16.03"/>
<text text-anchor="middle" x="125.16" y="-1245.56" font-family="Times,serif" font-size="14.00">okhmeta:AcademicTag</text>
</g>
<!-- http://w3id.org/oseg/ont/okhmeta#AcademicTag&#45;&gt;http://w3id.org/oseg/ont/okhmeta#Tag -->
<g id="edge46" class="edge">
<title>http://w3id.org/oseg/ont/okhmeta#AcademicTag&#45;&gt;http://w3id.org/oseg/ont/okhmeta#Tag</title>
<path fill="none" stroke="black" d="M201.79,-1236.4C220.23,-1229.73 238.12,-1219.61 250.32,-1204.26 292.08,-1151.69 221.57,-1102.47 268.32,-1054.26 315.88,-1005.21 356,-1054.33 420.32,-1031.26 460.62,-1016.81 502.19,-989.99 528.85,-970.96"/>
<polygon fill="black" stroke="black" points="530.92,-973.78 536.96,-965.08 526.81,-968.11 530.92,-973.78"/>
<text text-anchor="middle" x="344.32" y="-1058.06" font-family="Times,serif" font-size="14.00">a</text>
</g>
<!-- http://w3id.org/oseg/ont/okhmeta#AcademicTag&#45;&gt;http://w3id.org/oseg/ont/okhmeta#MetaTag -->
<g id="edge3" class="edge">
<title>http://w3id.org/oseg/ont/okhmeta#AcademicTag&#45;&gt;http://w3id.org/oseg/ont/okhmeta#MetaTag</title>
<path fill="none" stroke="black" d="M189.74,-1263.18C322.24,-1288.64 633.61,-1329.82 850.73,-1210.26 897.77,-1184.36 938.49,-1135.46 960.32,-1105.87"/>
<polygon fill="black" stroke="black" points="963.19,-1107.86 966.22,-1097.71 957.52,-1103.76 963.19,-1107.86"/>
<text text-anchor="middle" x="558.52" y="-1295.06" font-family="Times,serif" font-size="14.00">okhmeta:hasMetaTag</text>
</g>
</g>
</svg>
