<?xml version="1.0" encoding="UTF-8" standalone="no"?>
<!DOCTYPE svg PUBLIC "-//W3C//DTD SVG 1.1//EN"
 "http://www.w3.org/Graphics/SVG/1.1/DTD/svg11.dtd">
<!-- Generated by graphviz version 2.43.0 (0)
 -->
<!-- Title: G Pages: 1 -->
<svg width="2065pt" height="1419pt"
 viewBox="0.00 0.00 2064.64 1418.53" xmlns="http://www.w3.org/2000/svg" xmlns:xlink="http://www.w3.org/1999/xlink">
<g id="graph0" class="graph" transform="scale(1 1) rotate(0) translate(4 1414.53)">
<title>G</title>
<polygon fill="white" stroke="transparent" points="-4,4 -4,-1414.53 2060.64,-1414.53 2060.64,4 -4,4"/>
<!-- https://w3id.org/oseg/ont/otrl#OTRL5 -->
<g id="node1" class="node">
<title>https://w3id.org/oseg/ont/otrl#OTRL5</title>
<ellipse fill="none" stroke="#e377c2" cx="1412.36" cy="-829.26" rx="67.35" ry="16.03"/>
<text text-anchor="middle" x="1412.36" y="-825.56" font-family="Times,serif" font-size="14.00">otrl:OTRL5</text>
</g>
<!-- https://w3id.org/oseg/ont/otrl#OTRL -->
<g id="node6" class="node">
<title>https://w3id.org/oseg/ont/otrl#OTRL</title>
<ellipse fill="none" stroke="#e377c2" cx="1933.6" cy="-738.26" rx="60.62" ry="16.03"/>
<text text-anchor="middle" x="1933.6" y="-734.56" font-family="Times,serif" font-size="14.00">otrl:OTRL</text>
</g>
<!-- https://w3id.org/oseg/ont/otrl#OTRL5&#45;&gt;https://w3id.org/oseg/ont/otrl#OTRL -->
<g id="edge24" class="edge">
<title>https://w3id.org/oseg/ont/otrl#OTRL5&#45;&gt;https://w3id.org/oseg/ont/otrl#OTRL</title>
<path fill="none" stroke="black" d="M1475.56,-823.68C1551.07,-816.27 1682.03,-801.36 1792.57,-778.26 1823.51,-771.8 1857.63,-762.11 1884.44,-753.88"/>
<polygon fill="black" stroke="black" points="1885.83,-757.12 1894.34,-750.81 1883.75,-750.43 1885.83,-757.12"/>
</g>
<!-- https://w3id.org/oseg/ont/otrl#ODRL -->
<g id="node2" class="node">
<title>https://w3id.org/oseg/ont/otrl#ODRL</title>
<ellipse fill="none" stroke="#e377c2" cx="1933.6" cy="-256.26" rx="62.87" ry="16.03"/>
<text text-anchor="middle" x="1933.6" y="-252.56" font-family="Times,serif" font-size="14.00">otrl:ODRL</text>
</g>
<!-- https://w3id.org/oseg/ont/otrl#ODRL4 -->
<g id="node3" class="node">
<title>https://w3id.org/oseg/ont/otrl#ODRL4</title>
<ellipse fill="none" stroke="#e377c2" cx="1412.36" cy="-111.26" rx="69.09" ry="16.03"/>
<text text-anchor="middle" x="1412.36" y="-107.56" font-family="Times,serif" font-size="14.00">otrl:ODRL4</text>
</g>
<!-- https://w3id.org/oseg/ont/otrl#ODRL4&#45;&gt;https://w3id.org/oseg/ont/otrl#ODRL -->
<g id="edge29" class="edge">
<title>https://w3id.org/oseg/ont/otrl#ODRL4&#45;&gt;https://w3id.org/oseg/ont/otrl#ODRL</title>
<path fill="none" stroke="black" d="M1464.81,-121.95C1538.24,-137.67 1677.02,-169.1 1792.57,-205.26 1825.01,-215.42 1861.03,-228.58 1888.41,-238.99"/>
<polygon fill="black" stroke="black" points="1887.5,-242.39 1898.09,-242.69 1890,-235.85 1887.5,-242.39"/>
</g>
<!-- https://w3id.org/oseg/ont/otrl#OTRL3 -->
<g id="node4" class="node">
<title>https://w3id.org/oseg/ont/otrl#OTRL3</title>
<ellipse fill="none" stroke="#e377c2" cx="1412.36" cy="-778.26" rx="67.35" ry="16.03"/>
<text text-anchor="middle" x="1412.36" y="-774.56" font-family="Times,serif" font-size="14.00">otrl:OTRL3</text>
</g>
<!-- https://w3id.org/oseg/ont/otrl#OTRL3&#45;&gt;https://w3id.org/oseg/ont/otrl#OTRL -->
<g id="edge15" class="edge">
<title>https://w3id.org/oseg/ont/otrl#OTRL3&#45;&gt;https://w3id.org/oseg/ont/otrl#OTRL</title>
<path fill="none" stroke="black" d="M1479.24,-776.2C1554.97,-773.47 1682.95,-767.72 1792.57,-757.26 1818.1,-754.83 1846.14,-751.21 1870.38,-747.79"/>
<polygon fill="black" stroke="black" points="1871.11,-751.22 1880.51,-746.33 1870.12,-744.29 1871.11,-751.22"/>
</g>
<!-- http://www.w3.org/2002/07/owl#Ontology -->
<g id="node5" class="node">
<title>http://www.w3.org/2002/07/owl#Ontology</title>
<ellipse fill="none" stroke="#1f77b4" cx="807.65" cy="-1394.26" rx="77.56" ry="16.03"/>
<text text-anchor="middle" x="807.65" y="-1390.56" font-family="Times,serif" font-size="14.00">owl:Ontology</text>
</g>
<!-- http://www.w3.org/2002/07/owl#DatatypeProperty -->
<g id="node7" class="node">
<title>http://www.w3.org/2002/07/owl#DatatypeProperty</title>
<ellipse fill="none" stroke="#1f77b4" cx="1933.6" cy="-536.26" rx="123.07" ry="16.03"/>
<text text-anchor="middle" x="1933.6" y="-532.56" font-family="Times,serif" font-size="14.00">owl:DatatypeProperty</text>
</g>
<!-- http://spdx.org/rdf/terms#File -->
<g id="node8" class="node">
<title>http://spdx.org/rdf/terms#File</title>
<ellipse fill="none" stroke="#1f77b4" cx="807.65" cy="-1343.26" rx="62.45" ry="16.03"/>
<text text-anchor="middle" x="807.65" y="-1339.56" font-family="Times,serif" font-size="14.00">spdxt:File</text>
</g>
<!-- https://w3id.org/oseg/ont/otrl#OTRL4 -->
<g id="node9" class="node">
<title>https://w3id.org/oseg/ont/otrl#OTRL4</title>
<ellipse fill="none" stroke="#e377c2" cx="1412.36" cy="-676.26" rx="67.35" ry="16.03"/>
<text text-anchor="middle" x="1412.36" y="-672.56" font-family="Times,serif" font-size="14.00">otrl:OTRL4</text>
</g>
<!-- https://w3id.org/oseg/ont/otrl#OTRL4&#45;&gt;https://w3id.org/oseg/ont/otrl#OTRL -->
<g id="edge38" class="edge">
<title>https://w3id.org/oseg/ont/otrl#OTRL4&#45;&gt;https://w3id.org/oseg/ont/otrl#OTRL</title>
<path fill="none" stroke="black" d="M1478.37,-679.59C1554.12,-684.01 1682.88,-693.19 1792.57,-709.26 1820.87,-713.41 1852.06,-719.7 1877.8,-725.36"/>
<polygon fill="black" stroke="black" points="1877.23,-728.82 1887.75,-727.58 1878.75,-721.98 1877.23,-728.82"/>
</g>
<!-- https://w3id.org/oseg/ont/otrl#OTRL2 -->
<g id="node10" class="node">
<title>https://w3id.org/oseg/ont/otrl#OTRL2</title>
<ellipse fill="none" stroke="#e377c2" cx="1412.36" cy="-625.26" rx="67.35" ry="16.03"/>
<text text-anchor="middle" x="1412.36" y="-621.56" font-family="Times,serif" font-size="14.00">otrl:OTRL2</text>
</g>
<!-- https://w3id.org/oseg/ont/otrl#OTRL2&#45;&gt;https://w3id.org/oseg/ont/otrl#OTRL -->
<g id="edge54" class="edge">
<title>https://w3id.org/oseg/ont/otrl#OTRL2&#45;&gt;https://w3id.org/oseg/ont/otrl#OTRL</title>
<path fill="none" stroke="black" d="M1474.97,-631.27C1550.71,-639.57 1682.73,-657.07 1792.57,-687.26 1826.15,-696.5 1863.14,-710.12 1890.67,-720.97"/>
<polygon fill="black" stroke="black" points="1889.4,-724.23 1899.99,-724.68 1891.99,-717.73 1889.4,-724.23"/>
</g>
<!-- https://w3id.org/oseg/ont/otrl#OTRL1 -->
<g id="node11" class="node">
<title>https://w3id.org/oseg/ont/otrl#OTRL1</title>
<ellipse fill="none" stroke="#e377c2" cx="1412.36" cy="-967.26" rx="67.35" ry="16.03"/>
<text text-anchor="middle" x="1412.36" y="-963.56" font-family="Times,serif" font-size="14.00">otrl:OTRL1</text>
</g>
<!-- https://w3id.org/oseg/ont/otrl#OTRL1&#45;&gt;https://w3id.org/oseg/ont/otrl#OTRL -->
<g id="edge56" class="edge">
<title>https://w3id.org/oseg/ont/otrl#OTRL1&#45;&gt;https://w3id.org/oseg/ont/otrl#OTRL</title>
<path fill="none" stroke="black" d="M1464.95,-957.12C1540.36,-940.87 1683.54,-904.55 1792.57,-844.26 1835.85,-820.33 1880.51,-784.17 1907.42,-760.88"/>
<polygon fill="black" stroke="black" points="1909.96,-763.31 1915.18,-754.1 1905.35,-758.04 1909.96,-763.31"/>
</g>
<!-- https://w3id.org/oseg/ont/otrl#ODRL2 -->
<g id="node12" class="node">
<title>https://w3id.org/oseg/ont/otrl#ODRL2</title>
<ellipse fill="none" stroke="#e377c2" cx="1412.36" cy="-282.26" rx="69.09" ry="16.03"/>
<text text-anchor="middle" x="1412.36" y="-278.56" font-family="Times,serif" font-size="14.00">otrl:ODRL2</text>
</g>
<!-- https://w3id.org/oseg/ont/otrl#ODRL2&#45;&gt;https://w3id.org/oseg/ont/otrl#ODRL -->
<g id="edge21" class="edge">
<title>https://w3id.org/oseg/ont/otrl#ODRL2&#45;&gt;https://w3id.org/oseg/ont/otrl#ODRL</title>
<path fill="none" stroke="black" d="M1479.6,-278.21C1520.27,-275.77 1573.42,-272.69 1620.57,-270.26 1703.03,-266.03 1797.79,-261.88 1861.05,-259.21"/>
<polygon fill="black" stroke="black" points="1861.47,-262.69 1871.31,-258.78 1861.17,-255.7 1861.47,-262.69"/>
</g>
<!-- https://w3id.org/oseg/ont/otrl#OTRL6 -->
<g id="node13" class="node">
<title>https://w3id.org/oseg/ont/otrl#OTRL6</title>
<ellipse fill="none" stroke="#e377c2" cx="1412.36" cy="-891.26" rx="67.35" ry="16.03"/>
<text text-anchor="middle" x="1412.36" y="-887.56" font-family="Times,serif" font-size="14.00">otrl:OTRL6</text>
</g>
<!-- https://w3id.org/oseg/ont/otrl#OTRL6&#45;&gt;https://w3id.org/oseg/ont/otrl#OTRL -->
<g id="edge31" class="edge">
<title>https://w3id.org/oseg/ont/otrl#OTRL6&#45;&gt;https://w3id.org/oseg/ont/otrl#OTRL</title>
<path fill="none" stroke="black" d="M1470.88,-883.12C1546.34,-871.37 1682.12,-846.55 1792.57,-806.26 1829.52,-792.78 1869.72,-772.65 1897.53,-757.79"/>
<polygon fill="black" stroke="black" points="1899.33,-760.8 1906.46,-752.97 1896,-754.64 1899.33,-760.8"/>
</g>
<!-- https://w3id.org/oseg/ont/otrl#ODRL3Star -->
<g id="node14" class="node">
<title>https://w3id.org/oseg/ont/otrl#ODRL3Star</title>
<ellipse fill="none" stroke="#e377c2" cx="1412.36" cy="-231.26" rx="90.52" ry="16.03"/>
<text text-anchor="middle" x="1412.36" y="-227.56" font-family="Times,serif" font-size="14.00">otrl:ODRL3Star</text>
</g>
<!-- https://w3id.org/oseg/ont/otrl#ODRL3Star&#45;&gt;https://w3id.org/oseg/ont/otrl#ODRL -->
<g id="edge3" class="edge">
<title>https://w3id.org/oseg/ont/otrl#ODRL3Star&#45;&gt;https://w3id.org/oseg/ont/otrl#ODRL</title>
<path fill="none" stroke="black" d="M1502.28,-233.5C1579.16,-235.69 1693.25,-239.53 1792.57,-245.26 1815.69,-246.6 1840.92,-248.46 1863.52,-250.26"/>
<polygon fill="black" stroke="black" points="1863.45,-253.77 1873.7,-251.09 1864.02,-246.79 1863.45,-253.77"/>
</g>
<!-- https://w3id.org/oseg/ont/otrl#ODRL1 -->
<g id="node15" class="node">
<title>https://w3id.org/oseg/ont/otrl#ODRL1</title>
<ellipse fill="none" stroke="#e377c2" cx="1412.36" cy="-180.26" rx="69.09" ry="16.03"/>
<text text-anchor="middle" x="1412.36" y="-176.56" font-family="Times,serif" font-size="14.00">otrl:ODRL1</text>
</g>
<!-- https://w3id.org/oseg/ont/otrl#ODRL1&#45;&gt;https://w3id.org/oseg/ont/otrl#ODRL -->
<g id="edge40" class="edge">
<title>https://w3id.org/oseg/ont/otrl#ODRL1&#45;&gt;https://w3id.org/oseg/ont/otrl#ODRL</title>
<path fill="none" stroke="black" d="M1473.03,-188.31C1510.28,-193.37 1559.24,-200.09 1602.57,-206.26 1687.07,-218.3 1708.18,-221.42 1792.57,-234.26 1817.79,-238.1 1845.56,-242.44 1869.67,-246.25"/>
<polygon fill="black" stroke="black" points="1869.33,-249.74 1879.76,-247.84 1870.43,-242.82 1869.33,-249.74"/>
</g>
<!-- https://w3id.org/oseg/ont/otrl#ODRL3 -->
<g id="node16" class="node">
<title>https://w3id.org/oseg/ont/otrl#ODRL3</title>
<ellipse fill="none" stroke="#e377c2" cx="1412.36" cy="-35.26" rx="69.09" ry="16.03"/>
<text text-anchor="middle" x="1412.36" y="-31.56" font-family="Times,serif" font-size="14.00">otrl:ODRL3</text>
</g>
<!-- https://w3id.org/oseg/ont/otrl#ODRL3&#45;&gt;https://w3id.org/oseg/ont/otrl#ODRL -->
<g id="edge45" class="edge">
<title>https://w3id.org/oseg/ont/otrl#ODRL3&#45;&gt;https://w3id.org/oseg/ont/otrl#ODRL</title>
<path fill="none" stroke="black" d="M1465.65,-45.75C1540.99,-62.21 1683.07,-98.34 1792.57,-156.26 1834.93,-178.67 1879.18,-212.26 1906.33,-234.22"/>
<polygon fill="black" stroke="black" points="1904.22,-237.02 1914.18,-240.64 1908.65,-231.6 1904.22,-237.02"/>
</g>
<!-- http://id.loc.gov/vocabulary/iso639&#45;1/en -->
<g id="node17" class="node">
<title>http://id.loc.gov/vocabulary/iso639&#45;1/en</title>
<ellipse fill="none" stroke="#e377c2" cx="807.65" cy="-1292.26" rx="45.01" ry="16.03"/>
<text text-anchor="middle" x="807.65" y="-1288.56" font-family="Times,serif" font-size="14.00">ns1:en</text>
</g>
<!-- https://w3id.org/oseg/ont/otrl#Odrl4 -->
<g id="node18" class="node">
<title>https://w3id.org/oseg/ont/otrl#Odrl4</title>
<ellipse fill="none" stroke="#e377c2" cx="807.65" cy="-92.26" rx="61.54" ry="16.03"/>
<text text-anchor="middle" x="807.65" y="-88.56" font-family="Times,serif" font-size="14.00">otrl:Odrl4</text>
</g>
<!-- https://w3id.org/oseg/ont/otrl#Odrl4&#45;&gt;https://w3id.org/oseg/ont/otrl#ODRL4 -->
<g id="edge5" class="edge">
<title>https://w3id.org/oseg/ont/otrl#Odrl4&#45;&gt;https://w3id.org/oseg/ont/otrl#ODRL4</title>
<path fill="none" stroke="black" d="M868.92,-94.16C978.82,-97.63 1211.66,-104.97 1333.44,-108.81"/>
<polygon fill="black" stroke="black" points="1333.33,-112.31 1343.44,-109.12 1333.55,-105.31 1333.33,-112.31"/>
<text text-anchor="middle" x="1124.14" y="-109.06" font-family="Times,serif" font-size="14.00">owl:sameAs</text>
</g>
<!-- https://w3id.org/oseg/ont/otrl#Odrl4&#45;&gt;https://w3id.org/oseg/ont/otrl#ODRL4 -->
<g id="edge50" class="edge">
<title>https://w3id.org/oseg/ont/otrl#Odrl4&#45;&gt;https://w3id.org/oseg/ont/otrl#ODRL4</title>
<path fill="none" stroke="black" d="M866.04,-87.09C943.05,-80.96 1084.08,-72.62 1204.14,-81.26 1252.44,-84.74 1306.58,-92.72 1347.41,-99.58"/>
<polygon fill="black" stroke="black" points="1347.04,-103.07 1357.49,-101.29 1348.22,-96.17 1347.04,-103.07"/>
<text text-anchor="middle" x="1124.14" y="-85.06" font-family="Times,serif" font-size="14.00">schema:supersededBy</text>
</g>
<!-- https://w3id.org/oseg/ont/oseg&#45;profiles#robinVobruba -->
<g id="node19" class="node">
<title>https://w3id.org/oseg/ont/oseg&#45;profiles#robinVobruba</title>
<ellipse fill="none" stroke="#e377c2" cx="807.65" cy="-1240.26" rx="113.69" ry="16.03"/>
<text text-anchor="middle" x="807.65" y="-1236.56" font-family="Times,serif" font-size="14.00">osegprof:robinVob...</text>
</g>
<!-- http://schema.org/Text -->
<g id="node20" class="node">
<title>http://schema.org/Text</title>
<ellipse fill="none" stroke="#e377c2" cx="1933.6" cy="-444.26" rx="74.91" ry="16.03"/>
<text text-anchor="middle" x="1933.6" y="-440.56" font-family="Times,serif" font-size="14.00">schema:Text</text>
</g>
<!-- https://w3id.org/oseg/ont/1.1.0/otrl -->
<g id="node21" class="node">
<title>https://w3id.org/oseg/ont/1.1.0/otrl</title>
<ellipse fill="none" stroke="#e377c2" cx="807.65" cy="-1188.26" rx="50.82" ry="16.03"/>
<text text-anchor="middle" x="807.65" y="-1184.56" font-family="Times,serif" font-size="14.00">ns2:otrl</text>
</g>
<!-- https://w3id.org/oseg/ont/otrl -->
<g id="node22" class="node">
<title>https://w3id.org/oseg/ont/otrl</title>
<ellipse fill="none" stroke="#e377c2" cx="196.58" cy="-1198.26" rx="50.82" ry="16.03"/>
<text text-anchor="middle" x="196.58" y="-1194.56" font-family="Times,serif" font-size="14.00">ns3:otrl</text>
</g>
<!-- https://w3id.org/oseg/ont/otrl&#45;&gt;http://www.w3.org/2002/07/owl#Ontology -->
<g id="edge23" class="edge">
<title>https://w3id.org/oseg/ont/otrl&#45;&gt;http://www.w3.org/2002/07/owl#Ontology</title>
<path fill="none" stroke="black" d="M213.66,-1213.65C247.23,-1244.73 328.54,-1314.75 411.15,-1346.26 512.42,-1384.9 637.92,-1394.22 720.02,-1395.64"/>
<polygon fill="black" stroke="black" points="720.02,-1399.14 730.07,-1395.78 720.11,-1392.14 720.02,-1399.14"/>
<text text-anchor="middle" x="491.15" y="-1388.06" font-family="Times,serif" font-size="14.00">a</text>
</g>
<!-- https://w3id.org/oseg/ont/otrl&#45;&gt;http://spdx.org/rdf/terms#File -->
<g id="edge47" class="edge">
<title>https://w3id.org/oseg/ont/otrl&#45;&gt;http://spdx.org/rdf/terms#File</title>
<path fill="none" stroke="black" d="M221.24,-1212.5C259.61,-1234.84 338.46,-1277.71 411.15,-1298.26 521.41,-1329.44 654.75,-1339.11 735.02,-1342.05"/>
<polygon fill="black" stroke="black" points="735.39,-1345.57 745.5,-1342.41 735.63,-1338.57 735.39,-1345.57"/>
<text text-anchor="middle" x="491.15" y="-1331.06" font-family="Times,serif" font-size="14.00">a</text>
</g>
<!-- https://w3id.org/oseg/ont/otrl&#45;&gt;http://id.loc.gov/vocabulary/iso639&#45;1/en -->
<g id="edge2" class="edge">
<title>https://w3id.org/oseg/ont/otrl&#45;&gt;http://id.loc.gov/vocabulary/iso639&#45;1/en</title>
<path fill="none" stroke="black" d="M231.1,-1210.29C272.74,-1224.68 346.21,-1248.34 411.15,-1260.26 531.51,-1282.37 675.27,-1289.2 752,-1291.32"/>
<polygon fill="black" stroke="black" points="752.29,-1294.83 762.37,-1291.59 752.47,-1287.83 752.29,-1294.83"/>
<text text-anchor="middle" x="491.15" y="-1283.06" font-family="Times,serif" font-size="14.00">dcterms:language</text>
</g>
<!-- https://w3id.org/oseg/ont/otrl&#45;&gt;https://w3id.org/oseg/ont/oseg&#45;profiles#robinVobruba -->
<g id="edge7" class="edge">
<title>https://w3id.org/oseg/ont/otrl&#45;&gt;https://w3id.org/oseg/ont/oseg&#45;profiles#robinVobruba</title>
<path fill="none" stroke="black" d="M239.89,-1207.06C282.82,-1215.54 351.28,-1227.86 411.15,-1233.26 502.46,-1241.51 606.1,-1243.06 684.37,-1242.65"/>
<polygon fill="black" stroke="black" points="684.78,-1246.15 694.75,-1242.59 684.73,-1239.15 684.78,-1246.15"/>
<text text-anchor="middle" x="491.15" y="-1245.06" font-family="Times,serif" font-size="14.00">schema:creator</text>
</g>
<!-- https://w3id.org/oseg/ont/otrl&#45;&gt;https://w3id.org/oseg/ont/oseg&#45;profiles#robinVobruba -->
<g id="edge51" class="edge">
<title>https://w3id.org/oseg/ont/otrl&#45;&gt;https://w3id.org/oseg/ont/oseg&#45;profiles#robinVobruba</title>
<path fill="none" stroke="black" d="M247.49,-1199.34C319.19,-1201.12 455.45,-1205.41 571.15,-1214.26 617.57,-1217.82 668.97,-1223.31 711.88,-1228.33"/>
<polygon fill="black" stroke="black" points="711.69,-1231.83 722.03,-1229.53 712.51,-1224.88 711.69,-1231.83"/>
<text text-anchor="middle" x="491.15" y="-1218.06" font-family="Times,serif" font-size="14.00">dcterms:creator</text>
</g>
<!-- https://w3id.org/oseg/ont/otrl&#45;&gt;https://w3id.org/oseg/ont/1.1.0/otrl -->
<g id="edge19" class="edge">
<title>https://w3id.org/oseg/ont/otrl&#45;&gt;https://w3id.org/oseg/ont/1.1.0/otrl</title>
<path fill="none" stroke="black" d="M245.01,-1193.11C288.24,-1188.7 353.9,-1182.67 411.15,-1180.26 530.34,-1175.25 669.87,-1180.72 747.26,-1184.76"/>
<polygon fill="black" stroke="black" points="747.13,-1188.26 757.3,-1185.29 747.5,-1181.27 747.13,-1188.26"/>
<text text-anchor="middle" x="491.15" y="-1184.06" font-family="Times,serif" font-size="14.00">owl:versionIRI</text>
</g>
<!-- https://w3id.org/oseg/ont/oseg&#45;profiles#Iopa -->
<g id="node23" class="node">
<title>https://w3id.org/oseg/ont/oseg&#45;profiles#Iopa</title>
<ellipse fill="none" stroke="#e377c2" cx="807.65" cy="-1137.26" rx="80.72" ry="16.03"/>
<text text-anchor="middle" x="807.65" y="-1133.56" font-family="Times,serif" font-size="14.00">osegprof:Iopa</text>
</g>
<!-- https://w3id.org/oseg/ont/otrl&#45;&gt;https://w3id.org/oseg/ont/oseg&#45;profiles#Iopa -->
<g id="edge25" class="edge">
<title>https://w3id.org/oseg/ont/otrl&#45;&gt;https://w3id.org/oseg/ont/oseg&#45;profiles#Iopa</title>
<path fill="none" stroke="black" d="M238.67,-1188.89C281.49,-1179.53 350.66,-1165.5 411.15,-1158.26 515.74,-1145.75 636.79,-1140.69 717.14,-1138.65"/>
<polygon fill="black" stroke="black" points="717.31,-1142.15 727.22,-1138.4 717.14,-1135.15 717.31,-1142.15"/>
<text text-anchor="middle" x="491.15" y="-1162.06" font-family="Times,serif" font-size="14.00">dcterms:publisher</text>
</g>
<!-- https://w3id.org/oseg/ont/oseg&#45;profiles#martinHaeuer -->
<g id="node24" class="node">
<title>https://w3id.org/oseg/ont/oseg&#45;profiles#martinHaeuer</title>
<ellipse fill="none" stroke="#e377c2" cx="807.65" cy="-1083.26" rx="116.85" ry="16.03"/>
<text text-anchor="middle" x="807.65" y="-1079.56" font-family="Times,serif" font-size="14.00">osegprof:martinHa...</text>
</g>
<!-- https://w3id.org/oseg/ont/otrl&#45;&gt;https://w3id.org/oseg/ont/oseg&#45;profiles#martinHaeuer -->
<g id="edge27" class="edge">
<title>https://w3id.org/oseg/ont/otrl&#45;&gt;https://w3id.org/oseg/ont/oseg&#45;profiles#martinHaeuer</title>
<path fill="none" stroke="black" d="M228.08,-1185.41C268.98,-1168.74 344.19,-1140.07 411.15,-1125.26 502.32,-1105.11 607.51,-1094.53 686.49,-1089.03"/>
<polygon fill="black" stroke="black" points="686.73,-1092.52 696.47,-1088.35 686.26,-1085.54 686.73,-1092.52"/>
<text text-anchor="middle" x="491.15" y="-1129.06" font-family="Times,serif" font-size="14.00">dcterms:creator</text>
</g>
<!-- https://w3id.org/oseg/ont/otrl&#45;&gt;https://w3id.org/oseg/ont/oseg&#45;profiles#martinHaeuer -->
<g id="edge52" class="edge">
<title>https://w3id.org/oseg/ont/otrl&#45;&gt;https://w3id.org/oseg/ont/oseg&#45;profiles#martinHaeuer</title>
<path fill="none" stroke="black" d="M217.04,-1183.13C252.96,-1156.27 333.13,-1101.23 411.15,-1081.26 513.85,-1054.98 636.53,-1061.12 717.74,-1070.15"/>
<polygon fill="black" stroke="black" points="717.59,-1073.65 727.92,-1071.32 718.39,-1066.7 717.59,-1073.65"/>
<text text-anchor="middle" x="491.15" y="-1085.06" font-family="Times,serif" font-size="14.00">schema:creator</text>
</g>
<!-- https://spdx.org/licenses/GPL&#45;3.0&#45;or&#45;later -->
<g id="node26" class="node">
<title>https://spdx.org/licenses/GPL&#45;3.0&#45;or&#45;later</title>
<ellipse fill="none" stroke="#e377c2" cx="807.65" cy="-1027.26" rx="108.79" ry="16.03"/>
<text text-anchor="middle" x="807.65" y="-1023.56" font-family="Times,serif" font-size="14.00">spdxl:GPL&#45;3.0&#45;or&#45;...</text>
</g>
<!-- https://w3id.org/oseg/ont/otrl&#45;&gt;https://spdx.org/licenses/GPL&#45;3.0&#45;or&#45;later -->
<g id="edge53" class="edge">
<title>https://w3id.org/oseg/ont/otrl&#45;&gt;https://spdx.org/licenses/GPL&#45;3.0&#45;or&#45;later</title>
<path fill="none" stroke="black" d="M212.33,-1182.7C244.64,-1149.83 325.64,-1073.92 411.15,-1044.26 509.48,-1010.16 629.87,-1010.46 711.81,-1016.39"/>
<polygon fill="black" stroke="black" points="711.62,-1019.88 721.86,-1017.16 712.16,-1012.9 711.62,-1019.88"/>
<text text-anchor="middle" x="491.15" y="-1048.06" font-family="Times,serif" font-size="14.00">spdxt:licenseDeclared</text>
</g>
<!-- https://w3id.org/oseg/ont/otrl#exitCriteria -->
<g id="node25" class="node">
<title>https://w3id.org/oseg/ont/otrl#exitCriteria</title>
<ellipse fill="none" stroke="#e377c2" cx="1412.36" cy="-550.26" rx="91.43" ry="16.03"/>
<text text-anchor="middle" x="1412.36" y="-546.56" font-family="Times,serif" font-size="14.00">otrl:exitCriteria</text>
</g>
<!-- https://w3id.org/oseg/ont/otrl#exitCriteria&#45;&gt;https://w3id.org/oseg/ont/otrl#ODRL -->
<g id="edge22" class="edge">
<title>https://w3id.org/oseg/ont/otrl#exitCriteria&#45;&gt;https://w3id.org/oseg/ont/otrl#ODRL</title>
<path fill="none" stroke="black" d="M1463.02,-536.72C1503.85,-523.72 1561.48,-500.89 1602.57,-466.26 1613.59,-456.97 1608.27,-446.79 1620.57,-439.26 1686.21,-399.09 1724.6,-455.37 1792.57,-419.26 1852.3,-387.53 1897.66,-318.99 1919.05,-281.69"/>
<polygon fill="black" stroke="black" points="1922.37,-282.93 1924.2,-272.49 1916.26,-279.51 1922.37,-282.93"/>
<text text-anchor="middle" x="1706.57" y="-443.06" font-family="Times,serif" font-size="14.00">schema:domainIncludes</text>
</g>
<!-- https://w3id.org/oseg/ont/otrl#exitCriteria&#45;&gt;https://w3id.org/oseg/ont/otrl#OTRL -->
<g id="edge49" class="edge">
<title>https://w3id.org/oseg/ont/otrl#exitCriteria&#45;&gt;https://w3id.org/oseg/ont/otrl#OTRL</title>
<path fill="none" stroke="black" d="M1470.06,-562.96C1511.69,-572.25 1569.63,-585.13 1620.57,-596.26 1696.96,-612.96 1721.41,-600.84 1792.57,-633.26 1837.92,-653.93 1882.65,-691.22 1908.93,-715.35"/>
<polygon fill="black" stroke="black" points="1906.77,-718.12 1916.47,-722.38 1911.55,-713 1906.77,-718.12"/>
<text text-anchor="middle" x="1706.57" y="-637.06" font-family="Times,serif" font-size="14.00">schema:domainIncludes</text>
</g>
<!-- https://w3id.org/oseg/ont/otrl#exitCriteria&#45;&gt;http://www.w3.org/2002/07/owl#DatatypeProperty -->
<g id="edge39" class="edge">
<title>https://w3id.org/oseg/ont/otrl#exitCriteria&#45;&gt;http://www.w3.org/2002/07/owl#DatatypeProperty</title>
<path fill="none" stroke="black" d="M1480.38,-561.13C1556.35,-571.8 1683.77,-584.65 1792.57,-571.26 1820.12,-567.87 1850.06,-560.86 1875.15,-554"/>
<polygon fill="black" stroke="black" points="1876.18,-557.34 1884.87,-551.28 1874.3,-550.6 1876.18,-557.34"/>
<text text-anchor="middle" x="1706.57" y="-581.06" font-family="Times,serif" font-size="14.00">a</text>
</g>
<!-- https://w3id.org/oseg/ont/otrl#exitCriteria&#45;&gt;http://schema.org/Text -->
<g id="edge10" class="edge">
<title>https://w3id.org/oseg/ont/otrl#exitCriteria&#45;&gt;http://schema.org/Text</title>
<path fill="none" stroke="black" d="M1480.96,-539.47C1521.43,-533.09 1573.91,-524.98 1620.57,-518.26 1696.9,-507.27 1717.67,-513.68 1792.57,-495.26 1825.94,-487.06 1862.39,-473.64 1889.73,-462.62"/>
<polygon fill="black" stroke="black" points="1891.06,-465.86 1899,-458.84 1888.42,-459.37 1891.06,-465.86"/>
<text text-anchor="middle" x="1706.57" y="-522.06" font-family="Times,serif" font-size="14.00">range</text>
</g>
<!-- https://w3id.org/oseg/ont/otrl#goal -->
<g id="node27" class="node">
<title>https://w3id.org/oseg/ont/otrl#goal</title>
<ellipse fill="none" stroke="#e377c2" cx="1412.36" cy="-441.26" rx="54.39" ry="16.03"/>
<text text-anchor="middle" x="1412.36" y="-437.56" font-family="Times,serif" font-size="14.00">otrl:goal</text>
</g>
<!-- https://w3id.org/oseg/ont/otrl#goal&#45;&gt;https://w3id.org/oseg/ont/otrl#ODRL -->
<g id="edge43" class="edge">
<title>https://w3id.org/oseg/ont/otrl#goal&#45;&gt;https://w3id.org/oseg/ont/otrl#ODRL</title>
<path fill="none" stroke="black" d="M1450.18,-429.52C1491.44,-416.58 1560.42,-395.56 1620.57,-380.26 1696.35,-360.99 1720.07,-372.55 1792.57,-343.26 1833.99,-326.53 1876.97,-297.85 1904.2,-278.02"/>
<polygon fill="black" stroke="black" points="1906.5,-280.68 1912.47,-271.92 1902.34,-275.04 1906.5,-280.68"/>
<text text-anchor="middle" x="1706.57" y="-384.06" font-family="Times,serif" font-size="14.00">schema:domainIncludes</text>
</g>
<!-- https://w3id.org/oseg/ont/otrl#goal&#45;&gt;https://w3id.org/oseg/ont/otrl#OTRL -->
<g id="edge17" class="edge">
<title>https://w3id.org/oseg/ont/otrl#goal&#45;&gt;https://w3id.org/oseg/ont/otrl#OTRL</title>
<path fill="none" stroke="black" d="M1443.49,-454.64C1500.96,-480.16 1620.57,-533.26 1620.57,-533.26 1694.81,-553.34 1725.74,-514.2 1792.57,-552.26 1858.09,-589.58 1902.48,-671.28 1921.74,-712.86"/>
<polygon fill="black" stroke="black" points="1918.58,-714.37 1925.89,-722.04 1924.96,-711.49 1918.58,-714.37"/>
<text text-anchor="middle" x="1706.57" y="-556.06" font-family="Times,serif" font-size="14.00">schema:domainIncludes</text>
</g>
<!-- https://w3id.org/oseg/ont/otrl#goal&#45;&gt;http://www.w3.org/2002/07/owl#DatatypeProperty -->
<g id="edge55" class="edge">
<title>https://w3id.org/oseg/ont/otrl#goal&#45;&gt;http://www.w3.org/2002/07/owl#DatatypeProperty</title>
<path fill="none" stroke="black" d="M1465.56,-444.83C1554.56,-451.22 1731.92,-465.33 1792.57,-480.26 1826.91,-488.72 1864,-503.84 1891.37,-516.24"/>
<polygon fill="black" stroke="black" points="1890.08,-519.5 1900.63,-520.5 1893.01,-513.14 1890.08,-519.5"/>
<text text-anchor="middle" x="1706.57" y="-484.06" font-family="Times,serif" font-size="14.00">a</text>
</g>
<!-- https://w3id.org/oseg/ont/otrl#goal&#45;&gt;http://schema.org/Text -->
<g id="edge46" class="edge">
<title>https://w3id.org/oseg/ont/otrl#goal&#45;&gt;http://schema.org/Text</title>
<path fill="none" stroke="black" d="M1454.45,-430.91C1524.19,-414.76 1670.07,-387.11 1792.57,-404.26 1824.01,-408.67 1858.3,-418.37 1885.08,-427.12"/>
<polygon fill="black" stroke="black" points="1884,-430.45 1894.59,-430.29 1886.21,-423.81 1884,-430.45"/>
<text text-anchor="middle" x="1706.57" y="-408.06" font-family="Times,serif" font-size="14.00">range</text>
</g>
<!-- https://w3id.org/oseg/ont/otrl#Otrl -->
<g id="node28" class="node">
<title>https://w3id.org/oseg/ont/otrl#Otrl</title>
<ellipse fill="none" stroke="black" cx="1412.36" cy="-727.26" rx="188.18" ry="16.03"/>
<text text-anchor="middle" x="1412.36" y="-723.56" font-family="Times,serif" font-size="14.00">https://w3id.org/oseg/ont/otrl#Otrl</text>
</g>
<!-- https://w3id.org/oseg/ont/otrl#Otrl&#45;&gt;https://w3id.org/oseg/ont/otrl#OTRL -->
<g id="edge1" class="edge">
<title>https://w3id.org/oseg/ont/otrl#Otrl&#45;&gt;https://w3id.org/oseg/ont/otrl#OTRL</title>
<path fill="none" stroke="black" d="M1582.69,-734.2C1595.5,-734.61 1608.24,-734.97 1620.57,-735.26 1703.68,-737.27 1799.27,-737.95 1862.52,-738.17"/>
<polygon fill="black" stroke="black" points="1862.76,-741.67 1872.78,-738.2 1862.79,-734.67 1862.76,-741.67"/>
<text text-anchor="middle" x="1706.57" y="-742.06" font-family="Times,serif" font-size="14.00">owl:sameAs</text>
</g>
<!-- https://w3id.org/oseg/ont/otrl#Otrl&#45;&gt;https://w3id.org/oseg/ont/otrl#OTRL -->
<g id="edge41" class="edge">
<title>https://w3id.org/oseg/ont/otrl#Otrl&#45;&gt;https://w3id.org/oseg/ont/otrl#OTRL</title>
<path fill="none" stroke="black" d="M1550.88,-716.21C1622.95,-712.21 1712.62,-710.02 1792.57,-716.26 1819.52,-718.37 1849.13,-722.72 1874.15,-727"/>
<polygon fill="black" stroke="black" points="1873.76,-730.48 1884.22,-728.76 1874.97,-723.59 1873.76,-730.48"/>
<text text-anchor="middle" x="1706.57" y="-720.06" font-family="Times,serif" font-size="14.00">schema:supersededBy</text>
</g>
<!-- https://w3id.org/oseg/ont/otrl#Otrl2 -->
<g id="node29" class="node">
<title>https://w3id.org/oseg/ont/otrl#Otrl2</title>
<ellipse fill="none" stroke="black" cx="807.65" cy="-606.26" rx="194.41" ry="16.03"/>
<text text-anchor="middle" x="807.65" y="-602.56" font-family="Times,serif" font-size="14.00">https://w3id.org/oseg/ont/otrl#Otrl2</text>
</g>
<!-- https://w3id.org/oseg/ont/otrl#Otrl2&#45;&gt;https://w3id.org/oseg/ont/otrl#OTRL2 -->
<g id="edge4" class="edge">
<title>https://w3id.org/oseg/ont/otrl#Otrl2&#45;&gt;https://w3id.org/oseg/ont/otrl#OTRL2</title>
<path fill="none" stroke="black" d="M989.89,-611.98C1105.32,-615.62 1248.86,-620.14 1335.13,-622.86"/>
<polygon fill="black" stroke="black" points="1335.26,-626.37 1345.37,-623.18 1335.48,-619.37 1335.26,-626.37"/>
<text text-anchor="middle" x="1124.14" y="-623.06" font-family="Times,serif" font-size="14.00">schema:supersededBy</text>
</g>
<!-- https://w3id.org/oseg/ont/otrl#Otrl2&#45;&gt;https://w3id.org/oseg/ont/otrl#OTRL2 -->
<g id="edge33" class="edge">
<title>https://w3id.org/oseg/ont/otrl#Otrl2&#45;&gt;https://w3id.org/oseg/ont/otrl#OTRL2</title>
<path fill="none" stroke="black" d="M952.51,-595.38C1027.59,-591.44 1120.9,-589.27 1204.14,-595.26 1252.77,-598.77 1307.33,-606.83 1348.25,-613.72"/>
<polygon fill="black" stroke="black" points="1347.9,-617.21 1358.35,-615.44 1349.08,-610.31 1347.9,-617.21"/>
<text text-anchor="middle" x="1124.14" y="-599.06" font-family="Times,serif" font-size="14.00">owl:sameAs</text>
</g>
<!-- https://w3id.org/oseg/ont/otrl#Odrl5 -->
<g id="node30" class="node">
<title>https://w3id.org/oseg/ont/otrl#Odrl5</title>
<ellipse fill="none" stroke="black" cx="196.58" cy="-92.26" rx="196.65" ry="16.03"/>
<text text-anchor="middle" x="196.58" y="-88.56" font-family="Times,serif" font-size="14.00">https://w3id.org/oseg/ont/otrl#Odrl5</text>
</g>
<!-- https://w3id.org/oseg/ont/otrl#Odrl5&#45;&gt;https://w3id.org/oseg/ont/otrl#Odrl4 -->
<g id="edge6" class="edge">
<title>https://w3id.org/oseg/ont/otrl#Odrl5&#45;&gt;https://w3id.org/oseg/ont/otrl#Odrl4</title>
<path fill="none" stroke="black" d="M393.22,-92.26C510.43,-92.26 652.42,-92.26 735.81,-92.26"/>
<polygon fill="black" stroke="black" points="735.94,-95.76 745.94,-92.26 735.94,-88.76 735.94,-95.76"/>
<text text-anchor="middle" x="491.15" y="-96.06" font-family="Times,serif" font-size="14.00">owl:sameAs</text>
</g>
<!-- https://w3id.org/oseg/ont/otrl#Odrl5&#45;&gt;https://w3id.org/oseg/ont/otrl#Odrl4 -->
<g id="edge32" class="edge">
<title>https://w3id.org/oseg/ont/otrl#Odrl5&#45;&gt;https://w3id.org/oseg/ont/otrl#Odrl4</title>
<path fill="none" stroke="black" d="M319.43,-79.54C349.39,-76.93 381.4,-74.58 411.15,-73.26 482.19,-70.11 500.1,-70.4 571.15,-73.26 628.23,-75.56 692.91,-80.98 740.02,-85.45"/>
<polygon fill="black" stroke="black" points="739.81,-88.95 750.1,-86.42 740.48,-81.98 739.81,-88.95"/>
<text text-anchor="middle" x="491.15" y="-77.06" font-family="Times,serif" font-size="14.00">schema:supersededBy</text>
</g>
<!-- https://w3id.org/oseg/ont/otrl#Otrl5 -->
<g id="node31" class="node">
<title>https://w3id.org/oseg/ont/otrl#Otrl5</title>
<ellipse fill="none" stroke="black" cx="807.65" cy="-841.26" rx="194.41" ry="16.03"/>
<text text-anchor="middle" x="807.65" y="-837.56" font-family="Times,serif" font-size="14.00">https://w3id.org/oseg/ont/otrl#Otrl5</text>
</g>
<!-- https://w3id.org/oseg/ont/otrl#Otrl5&#45;&gt;https://w3id.org/oseg/ont/otrl#OTRL5 -->
<g id="edge8" class="edge">
<title>https://w3id.org/oseg/ont/otrl#Otrl5&#45;&gt;https://w3id.org/oseg/ont/otrl#OTRL5</title>
<path fill="none" stroke="black" d="M997.28,-837.51C1111.43,-835.24 1250.78,-832.46 1335.22,-830.78"/>
<polygon fill="black" stroke="black" points="1335.31,-834.28 1345.23,-830.58 1335.17,-827.28 1335.31,-834.28"/>
<text text-anchor="middle" x="1124.14" y="-841.06" font-family="Times,serif" font-size="14.00">schema:supersededBy</text>
</g>
<!-- https://w3id.org/oseg/ont/otrl#Otrl5&#45;&gt;https://w3id.org/oseg/ont/otrl#OTRL5 -->
<g id="edge9" class="edge">
<title>https://w3id.org/oseg/ont/otrl#Otrl5&#45;&gt;https://w3id.org/oseg/ont/otrl#OTRL5</title>
<path fill="none" stroke="black" d="M911.03,-827.48C952.3,-822.57 1000.4,-817.67 1044.14,-815.26 1115.15,-811.36 1133.07,-812.87 1204.14,-815.26 1248.9,-816.77 1298.99,-820.11 1338.72,-823.15"/>
<polygon fill="black" stroke="black" points="1338.6,-826.65 1348.84,-823.94 1339.14,-819.67 1338.6,-826.65"/>
<text text-anchor="middle" x="1124.14" y="-819.06" font-family="Times,serif" font-size="14.00">owl:sameAs</text>
</g>
<!-- https://w3id.org/oseg/ont/otrl#Odrl1 -->
<g id="node32" class="node">
<title>https://w3id.org/oseg/ont/otrl#Odrl1</title>
<ellipse fill="none" stroke="black" cx="807.65" cy="-175.26" rx="196.65" ry="16.03"/>
<text text-anchor="middle" x="807.65" y="-171.56" font-family="Times,serif" font-size="14.00">https://w3id.org/oseg/ont/otrl#Odrl1</text>
</g>
<!-- https://w3id.org/oseg/ont/otrl#Odrl1&#45;&gt;https://w3id.org/oseg/ont/otrl#ODRL1 -->
<g id="edge11" class="edge">
<title>https://w3id.org/oseg/ont/otrl#Odrl1&#45;&gt;https://w3id.org/oseg/ont/otrl#ODRL1</title>
<path fill="none" stroke="black" d="M1003.5,-176.88C1115.42,-177.81 1249.84,-178.92 1332.94,-179.61"/>
<polygon fill="black" stroke="black" points="1333.03,-183.11 1343.06,-179.7 1333.09,-176.11 1333.03,-183.11"/>
<text text-anchor="middle" x="1124.14" y="-183.06" font-family="Times,serif" font-size="14.00">schema:supersededBy</text>
</g>
<!-- https://w3id.org/oseg/ont/otrl#Odrl1&#45;&gt;https://w3id.org/oseg/ont/otrl#ODRL1 -->
<g id="edge26" class="edge">
<title>https://w3id.org/oseg/ont/otrl#Odrl1&#45;&gt;https://w3id.org/oseg/ont/otrl#ODRL1</title>
<path fill="none" stroke="black" d="M945.5,-163.61C1021.67,-158.66 1118.18,-154.92 1204.14,-159.26 1249.92,-161.58 1301.17,-166.75 1341.24,-171.38"/>
<polygon fill="black" stroke="black" points="1340.84,-174.86 1351.18,-172.54 1341.66,-167.9 1340.84,-174.86"/>
<text text-anchor="middle" x="1124.14" y="-163.06" font-family="Times,serif" font-size="14.00">owl:sameAs</text>
</g>
<!-- https://w3id.org/oseg/ont/otrl#Otrl1 -->
<g id="node33" class="node">
<title>https://w3id.org/oseg/ont/otrl#Otrl1</title>
<ellipse fill="none" stroke="black" cx="807.65" cy="-976.26" rx="194.41" ry="16.03"/>
<text text-anchor="middle" x="807.65" y="-972.56" font-family="Times,serif" font-size="14.00">https://w3id.org/oseg/ont/otrl#Otrl1</text>
</g>
<!-- https://w3id.org/oseg/ont/otrl#Otrl1&#45;&gt;https://w3id.org/oseg/ont/otrl#OTRL1 -->
<g id="edge12" class="edge">
<title>https://w3id.org/oseg/ont/otrl#Otrl1&#45;&gt;https://w3id.org/oseg/ont/otrl#OTRL1</title>
<path fill="none" stroke="black" d="M981.96,-983.55C1051.09,-985.35 1131.4,-986.07 1204.14,-983.26 1249.25,-981.52 1299.76,-977.66 1339.62,-974.17"/>
<polygon fill="black" stroke="black" points="1340.12,-977.64 1349.77,-973.27 1339.5,-970.67 1340.12,-977.64"/>
<text text-anchor="middle" x="1124.14" y="-989.06" font-family="Times,serif" font-size="14.00">schema:supersededBy</text>
</g>
<!-- https://w3id.org/oseg/ont/otrl#Otrl1&#45;&gt;https://w3id.org/oseg/ont/otrl#OTRL1 -->
<g id="edge28" class="edge">
<title>https://w3id.org/oseg/ont/otrl#Otrl1&#45;&gt;https://w3id.org/oseg/ont/otrl#OTRL1</title>
<path fill="none" stroke="black" d="M967.9,-967.05C993.39,-965.89 1019.49,-964.89 1044.14,-964.26 1115.23,-962.45 1133.03,-963.75 1204.14,-964.26 1247.41,-964.58 1295.75,-965.26 1334.85,-965.89"/>
<polygon fill="black" stroke="black" points="1335.04,-969.4 1345.1,-966.06 1335.16,-962.4 1335.04,-969.4"/>
<text text-anchor="middle" x="1124.14" y="-968.06" font-family="Times,serif" font-size="14.00">owl:sameAs</text>
</g>
<!-- https://w3id.org/oseg/ont/otrl#Odrl3Star -->
<g id="node34" class="node">
<title>https://w3id.org/oseg/ont/otrl#Odrl3Star</title>
<ellipse fill="none" stroke="black" cx="807.65" cy="-251.26" rx="218.49" ry="16.03"/>
<text text-anchor="middle" x="807.65" y="-247.56" font-family="Times,serif" font-size="14.00">https://w3id.org/oseg/ont/otrl#Odrl3Star</text>
</g>
<!-- https://w3id.org/oseg/ont/otrl#Odrl3Star&#45;&gt;https://w3id.org/oseg/ont/otrl#ODRL3Star -->
<g id="edge13" class="edge">
<title>https://w3id.org/oseg/ont/otrl#Odrl3Star&#45;&gt;https://w3id.org/oseg/ont/otrl#ODRL3Star</title>
<path fill="none" stroke="black" d="M1018.03,-246.87C1078.13,-245.36 1143.74,-243.48 1204.14,-241.26 1240.42,-239.93 1280.26,-238.1 1315.22,-236.36"/>
<polygon fill="black" stroke="black" points="1315.62,-239.85 1325.43,-235.85 1315.27,-232.86 1315.62,-239.85"/>
<text text-anchor="middle" x="1124.14" y="-250.06" font-family="Times,serif" font-size="14.00">schema:supersededBy</text>
</g>
<!-- https://w3id.org/oseg/ont/otrl#Odrl3Star&#45;&gt;https://w3id.org/oseg/ont/otrl#ODRL3Star -->
<g id="edge30" class="edge">
<title>https://w3id.org/oseg/ont/otrl#Odrl3Star&#45;&gt;https://w3id.org/oseg/ont/otrl#ODRL3Star</title>
<path fill="none" stroke="black" d="M905.22,-236.66C947.72,-230.94 998.3,-225.08 1044.14,-222.26 1115.12,-217.91 1133.05,-220.72 1204.14,-222.26 1240.43,-223.05 1280.27,-224.61 1315.23,-226.22"/>
<polygon fill="black" stroke="black" points="1315.28,-229.73 1325.44,-226.7 1315.61,-222.73 1315.28,-229.73"/>
<text text-anchor="middle" x="1124.14" y="-226.06" font-family="Times,serif" font-size="14.00">owl:sameAs</text>
</g>
<!-- https://w3id.org/oseg/ont/otrl#Otrl6 -->
<g id="node35" class="node">
<title>https://w3id.org/oseg/ont/otrl#Otrl6</title>
<ellipse fill="none" stroke="black" cx="807.65" cy="-919.26" rx="194.41" ry="16.03"/>
<text text-anchor="middle" x="807.65" y="-915.56" font-family="Times,serif" font-size="14.00">https://w3id.org/oseg/ont/otrl#Otrl6</text>
</g>
<!-- https://w3id.org/oseg/ont/otrl#Otrl6&#45;&gt;https://w3id.org/oseg/ont/otrl#OTRL6 -->
<g id="edge14" class="edge">
<title>https://w3id.org/oseg/ont/otrl#Otrl6&#45;&gt;https://w3id.org/oseg/ont/otrl#OTRL6</title>
<path fill="none" stroke="black" d="M996.82,-915.35C1062.45,-913.51 1136.58,-910.9 1204.14,-907.26 1248.89,-904.86 1298.98,-901.02 1338.71,-897.71"/>
<polygon fill="black" stroke="black" points="1339.17,-901.18 1348.84,-896.86 1338.58,-894.21 1339.17,-901.18"/>
<text text-anchor="middle" x="1124.14" y="-918.06" font-family="Times,serif" font-size="14.00">owl:sameAs</text>
</g>
<!-- https://w3id.org/oseg/ont/otrl#Otrl6&#45;&gt;https://w3id.org/oseg/ont/otrl#OTRL6 -->
<g id="edge48" class="edge">
<title>https://w3id.org/oseg/ont/otrl#Otrl6&#45;&gt;https://w3id.org/oseg/ont/otrl#OTRL6</title>
<path fill="none" stroke="black" d="M897.28,-904.81C941.3,-898.34 995.38,-891.46 1044.14,-888.26 1115.1,-883.61 1133.03,-887.75 1204.14,-888.26 1247.41,-888.58 1295.75,-889.26 1334.85,-889.89"/>
<polygon fill="black" stroke="black" points="1335.04,-893.4 1345.1,-890.06 1335.16,-886.4 1335.04,-893.4"/>
<text text-anchor="middle" x="1124.14" y="-892.06" font-family="Times,serif" font-size="14.00">schema:supersededBy</text>
</g>
<!-- https://w3id.org/oseg/ont/otrl#Odrl3 -->
<g id="node36" class="node">
<title>https://w3id.org/oseg/ont/otrl#Odrl3</title>
<ellipse fill="none" stroke="black" cx="807.65" cy="-16.26" rx="196.65" ry="16.03"/>
<text text-anchor="middle" x="807.65" y="-12.56" font-family="Times,serif" font-size="14.00">https://w3id.org/oseg/ont/otrl#Odrl3</text>
</g>
<!-- https://w3id.org/oseg/ont/otrl#Odrl3&#45;&gt;https://w3id.org/oseg/ont/otrl#ODRL3 -->
<g id="edge16" class="edge">
<title>https://w3id.org/oseg/ont/otrl#Odrl3&#45;&gt;https://w3id.org/oseg/ont/otrl#ODRL3</title>
<path fill="none" stroke="black" d="M991.52,-22.03C1105.86,-25.63 1247.27,-30.09 1333.32,-32.8"/>
<polygon fill="black" stroke="black" points="1333.43,-36.31 1343.53,-33.13 1333.65,-29.31 1333.43,-36.31"/>
<text text-anchor="middle" x="1124.14" y="-33.06" font-family="Times,serif" font-size="14.00">schema:supersededBy</text>
</g>
<!-- https://w3id.org/oseg/ont/otrl#Odrl3&#45;&gt;https://w3id.org/oseg/ont/otrl#ODRL3 -->
<g id="edge34" class="edge">
<title>https://w3id.org/oseg/ont/otrl#Odrl3&#45;&gt;https://w3id.org/oseg/ont/otrl#ODRL3</title>
<path fill="none" stroke="black" d="M953.44,-5.33C1028.36,-1.42 1121.24,0.71 1204.14,-5.26 1252.44,-8.74 1306.58,-16.72 1347.41,-23.58"/>
<polygon fill="black" stroke="black" points="1347.04,-27.07 1357.49,-25.29 1348.22,-20.17 1347.04,-27.07"/>
<text text-anchor="middle" x="1124.14" y="-9.06" font-family="Times,serif" font-size="14.00">owl:sameAs</text>
</g>
<!-- https://w3id.org/oseg/ont/otrl#Odrl2 -->
<g id="node37" class="node">
<title>https://w3id.org/oseg/ont/otrl#Odrl2</title>
<ellipse fill="none" stroke="black" cx="807.65" cy="-327.26" rx="196.65" ry="16.03"/>
<text text-anchor="middle" x="807.65" y="-323.56" font-family="Times,serif" font-size="14.00">https://w3id.org/oseg/ont/otrl#Odrl2</text>
</g>
<!-- https://w3id.org/oseg/ont/otrl#Odrl2&#45;&gt;https://w3id.org/oseg/ont/otrl#ODRL2 -->
<g id="edge18" class="edge">
<title>https://w3id.org/oseg/ont/otrl#Odrl2&#45;&gt;https://w3id.org/oseg/ont/otrl#ODRL2</title>
<path fill="none" stroke="black" d="M950.21,-338.49C1026.52,-340.86 1121.67,-337.84 1204.14,-317.26 1212.82,-315.1 1213.6,-310.91 1222.14,-308.26 1258.18,-297.11 1299.56,-290.74 1334.41,-287.1"/>
<polygon fill="black" stroke="black" points="1334.92,-290.56 1344.53,-286.1 1334.23,-283.6 1334.92,-290.56"/>
<text text-anchor="middle" x="1124.14" y="-342.06" font-family="Times,serif" font-size="14.00">schema:supersededBy</text>
</g>
<!-- https://w3id.org/oseg/ont/otrl#Odrl2&#45;&gt;https://w3id.org/oseg/ont/otrl#ODRL2 -->
<g id="edge35" class="edge">
<title>https://w3id.org/oseg/ont/otrl#Odrl2&#45;&gt;https://w3id.org/oseg/ont/otrl#ODRL2</title>
<path fill="none" stroke="black" d="M908.16,-313.24C950.06,-307.8 999.4,-301.99 1044.14,-298.26 1143.6,-289.99 1258.59,-285.85 1333.01,-283.89"/>
<polygon fill="black" stroke="black" points="1333.33,-287.38 1343.24,-283.62 1333.15,-280.38 1333.33,-287.38"/>
<text text-anchor="middle" x="1124.14" y="-302.06" font-family="Times,serif" font-size="14.00">owl:sameAs</text>
</g>
<!-- https://w3id.org/oseg/ont/otrl#Otrl3 -->
<g id="node38" class="node">
<title>https://w3id.org/oseg/ont/otrl#Otrl3</title>
<ellipse fill="none" stroke="black" cx="807.65" cy="-759.26" rx="194.41" ry="16.03"/>
<text text-anchor="middle" x="807.65" y="-755.56" font-family="Times,serif" font-size="14.00">https://w3id.org/oseg/ont/otrl#Otrl3</text>
</g>
<!-- https://w3id.org/oseg/ont/otrl#Otrl3&#45;&gt;https://w3id.org/oseg/ont/otrl#OTRL3 -->
<g id="edge20" class="edge">
<title>https://w3id.org/oseg/ont/otrl#Otrl3&#45;&gt;https://w3id.org/oseg/ont/otrl#OTRL3</title>
<path fill="none" stroke="black" d="M989.89,-764.98C1105.32,-768.62 1248.86,-773.14 1335.13,-775.86"/>
<polygon fill="black" stroke="black" points="1335.26,-779.37 1345.37,-776.18 1335.48,-772.37 1335.26,-779.37"/>
<text text-anchor="middle" x="1124.14" y="-776.06" font-family="Times,serif" font-size="14.00">schema:supersededBy</text>
</g>
<!-- https://w3id.org/oseg/ont/otrl#Otrl3&#45;&gt;https://w3id.org/oseg/ont/otrl#OTRL3 -->
<g id="edge36" class="edge">
<title>https://w3id.org/oseg/ont/otrl#Otrl3&#45;&gt;https://w3id.org/oseg/ont/otrl#OTRL3</title>
<path fill="none" stroke="black" d="M935.02,-746.96C1012.84,-741.57 1114.53,-738.43 1204.14,-748.26 1212.29,-749.16 1214.08,-750.82 1222.14,-752.26 1261.35,-759.3 1305.43,-765.46 1341.18,-770.01"/>
<polygon fill="black" stroke="black" points="1341.15,-773.54 1351.5,-771.32 1342.02,-766.59 1341.15,-773.54"/>
<text text-anchor="middle" x="1124.14" y="-752.06" font-family="Times,serif" font-size="14.00">owl:sameAs</text>
</g>
<!-- https://w3id.org/oseg/ont/otrl#Otrl4 -->
<g id="node39" class="node">
<title>https://w3id.org/oseg/ont/otrl#Otrl4</title>
<ellipse fill="none" stroke="black" cx="807.65" cy="-689.26" rx="194.41" ry="16.03"/>
<text text-anchor="middle" x="807.65" y="-685.56" font-family="Times,serif" font-size="14.00">https://w3id.org/oseg/ont/otrl#Otrl4</text>
</g>
<!-- https://w3id.org/oseg/ont/otrl#Otrl4&#45;&gt;https://w3id.org/oseg/ont/otrl#OTRL4 -->
<g id="edge37" class="edge">
<title>https://w3id.org/oseg/ont/otrl#Otrl4&#45;&gt;https://w3id.org/oseg/ont/otrl#OTRL4</title>
<path fill="none" stroke="black" d="M996.04,-685.22C1110.44,-682.75 1250.53,-679.73 1335.26,-677.9"/>
<polygon fill="black" stroke="black" points="1335.39,-681.4 1345.31,-677.69 1335.24,-674.4 1335.39,-681.4"/>
<text text-anchor="middle" x="1124.14" y="-688.06" font-family="Times,serif" font-size="14.00">schema:supersededBy</text>
</g>
<!-- https://w3id.org/oseg/ont/otrl#Otrl4&#45;&gt;https://w3id.org/oseg/ont/otrl#OTRL4 -->
<g id="edge57" class="edge">
<title>https://w3id.org/oseg/ont/otrl#Otrl4&#45;&gt;https://w3id.org/oseg/ont/otrl#OTRL4</title>
<path fill="none" stroke="black" d="M908.12,-675.31C950.02,-670.1 999.36,-664.82 1044.14,-662.26 1115.14,-658.21 1133.07,-659.87 1204.14,-662.26 1248.9,-663.77 1298.99,-667.11 1338.72,-670.15"/>
<polygon fill="black" stroke="black" points="1338.6,-673.65 1348.84,-670.94 1339.14,-666.67 1338.6,-673.65"/>
<text text-anchor="middle" x="1124.14" y="-666.06" font-family="Times,serif" font-size="14.00">owl:sameAs</text>
</g>
<!-- https://w3id.org/oseg/ont/otrl#Odrl -->
<g id="node40" class="node">
<title>https://w3id.org/oseg/ont/otrl#Odrl</title>
<ellipse fill="none" stroke="black" cx="1412.36" cy="-333.26" rx="190.42" ry="16.03"/>
<text text-anchor="middle" x="1412.36" y="-329.56" font-family="Times,serif" font-size="14.00">https://w3id.org/oseg/ont/otrl#Odrl</text>
</g>
<!-- https://w3id.org/oseg/ont/otrl#Odrl&#45;&gt;https://w3id.org/oseg/ont/otrl#ODRL -->
<g id="edge42" class="edge">
<title>https://w3id.org/oseg/ont/otrl#Odrl&#45;&gt;https://w3id.org/oseg/ont/otrl#ODRL</title>
<path fill="none" stroke="black" d="M1558.66,-322.78C1573.89,-318.91 1588.81,-313.85 1602.57,-307.26 1612.49,-302.51 1610.58,-294.88 1620.57,-290.26 1642.02,-280.36 1777.64,-268.27 1862.88,-261.5"/>
<polygon fill="black" stroke="black" points="1863.32,-264.98 1873.02,-260.7 1862.77,-258 1863.32,-264.98"/>
<text text-anchor="middle" x="1706.57" y="-294.06" font-family="Times,serif" font-size="14.00">schema:supersededBy</text>
</g>
<!-- https://w3id.org/oseg/ont/otrl#Odrl&#45;&gt;https://w3id.org/oseg/ont/otrl#ODRL -->
<g id="edge44" class="edge">
<title>https://w3id.org/oseg/ont/otrl#Odrl&#45;&gt;https://w3id.org/oseg/ont/otrl#ODRL</title>
<path fill="none" stroke="black" d="M1597.46,-329.4C1659.89,-325.52 1729.71,-318.34 1792.57,-305.26 1826.63,-298.18 1863.73,-284.93 1891.18,-273.99"/>
<polygon fill="black" stroke="black" points="1892.51,-277.23 1900.47,-270.23 1889.89,-270.74 1892.51,-277.23"/>
<text text-anchor="middle" x="1706.57" y="-332.06" font-family="Times,serif" font-size="14.00">owl:sameAs</text>
</g>
</g>
</svg>
