<?xml version="1.0" encoding="UTF-8" standalone="no"?>
<!DOCTYPE svg PUBLIC "-//W3C//DTD SVG 1.1//EN"
 "http://www.w3.org/Graphics/SVG/1.1/DTD/svg11.dtd">
<!-- Generated by graphviz version 2.43.0 (0)
 -->
<!-- Title: G Pages: 1 -->
<svg width="2023pt" height="1325pt"
 viewBox="0.00 0.00 2022.94 1325.26" xmlns="http://www.w3.org/2000/svg" xmlns:xlink="http://www.w3.org/1999/xlink">
<g id="graph0" class="graph" transform="scale(1 1) rotate(0) translate(4 1321.26)">
<title>G</title>
<polygon fill="white" stroke="transparent" points="-4,4 -4,-1321.26 2018.94,-1321.26 2018.94,4 -4,4"/>
<!-- http://www.w3.org/2002/07/owl#Ontology -->
<g id="node1" class="node">
<title>http://www.w3.org/2002/07/owl#Ontology</title>
<ellipse fill="none" stroke="#1f77b4" cx="792.8" cy="-397.26" rx="77.56" ry="16.03"/>
<text text-anchor="middle" x="792.8" y="-393.56" font-family="Times,serif" font-size="14.00">owl:Ontology</text>
</g>
<!-- http://www.w3.org/2002/07/owl#DatatypeProperty -->
<g id="node2" class="node">
<title>http://www.w3.org/2002/07/owl#DatatypeProperty</title>
<ellipse fill="none" stroke="#1f77b4" cx="1891.9" cy="-1166.26" rx="123.07" ry="16.03"/>
<text text-anchor="middle" x="1891.9" y="-1162.56" font-family="Times,serif" font-size="14.00">owl:DatatypeProperty</text>
</g>
<!-- http://spdx.org/rdf/terms#SpdxItem -->
<g id="node3" class="node">
<title>http://spdx.org/rdf/terms#SpdxItem</title>
<ellipse fill="none" stroke="#1f77b4" cx="792.8" cy="-346.26" rx="87.86" ry="16.03"/>
<text text-anchor="middle" x="792.8" y="-342.56" font-family="Times,serif" font-size="14.00">spdx:SpdxItem</text>
</g>
<!-- http://w3id.org/oseg/ont/otrl#ODRL -->
<g id="node4" class="node">
<title>http://w3id.org/oseg/ont/otrl#ODRL</title>
<ellipse fill="none" stroke="#e377c2" cx="1891.9" cy="-960.26" rx="62.87" ry="16.03"/>
<text text-anchor="middle" x="1891.9" y="-956.56" font-family="Times,serif" font-size="14.00">otrl:ODRL</text>
</g>
<!-- http://w3id.org/oseg/ont/otrl#OTRL -->
<g id="node5" class="node">
<title>http://w3id.org/oseg/ont/otrl#OTRL</title>
<ellipse fill="none" stroke="#e377c2" cx="1891.9" cy="-652.26" rx="60.62" ry="16.03"/>
<text text-anchor="middle" x="1891.9" y="-648.56" font-family="Times,serif" font-size="14.00">otrl:OTRL</text>
</g>
<!-- http://w3id.org/oseg/ont/oseg&#45;profiles#robinVobruba -->
<g id="node6" class="node">
<title>http://w3id.org/oseg/ont/oseg&#45;profiles#robinVobruba</title>
<ellipse fill="none" stroke="#e377c2" cx="792.8" cy="-286.26" rx="113.69" ry="16.03"/>
<text text-anchor="middle" x="792.8" y="-282.56" font-family="Times,serif" font-size="14.00">osegprof:robinVob...</text>
</g>
<!-- http://w3id.org/oseg/ont/otrl -->
<g id="node7" class="node">
<title>http://w3id.org/oseg/ont/otrl</title>
<ellipse fill="none" stroke="#e377c2" cx="191.63" cy="-213.26" rx="50.82" ry="16.03"/>
<text text-anchor="middle" x="191.63" y="-209.56" font-family="Times,serif" font-size="14.00">ns1:otrl</text>
</g>
<!-- http://w3id.org/oseg/ont/otrl&#45;&gt;http://www.w3.org/2002/07/owl#Ontology -->
<g id="edge4" class="edge">
<title>http://w3id.org/oseg/ont/otrl&#45;&gt;http://www.w3.org/2002/07/owl#Ontology</title>
<path fill="none" stroke="black" d="M207.6,-228.74C239.65,-260.72 318.67,-333.61 401.25,-364.26 502.35,-401.79 627.94,-405.5 708.96,-402.88"/>
<polygon fill="black" stroke="black" points="709.24,-406.37 719.1,-402.51 708.98,-399.38 709.24,-406.37"/>
<text text-anchor="middle" x="481.25" y="-402.06" font-family="Times,serif" font-size="14.00">a</text>
</g>
<!-- http://w3id.org/oseg/ont/otrl&#45;&gt;http://spdx.org/rdf/terms#SpdxItem -->
<g id="edge10" class="edge">
<title>http://w3id.org/oseg/ont/otrl&#45;&gt;http://spdx.org/rdf/terms#SpdxItem</title>
<path fill="none" stroke="black" d="M214.29,-227.84C250.94,-251.63 328.35,-298.17 401.25,-318.26 499.45,-345.33 616.49,-350.3 696.68,-349.77"/>
<polygon fill="black" stroke="black" points="696.79,-353.27 706.76,-349.68 696.73,-346.27 696.79,-353.27"/>
<text text-anchor="middle" x="481.25" y="-349.06" font-family="Times,serif" font-size="14.00">a</text>
</g>
<!-- http://w3id.org/oseg/ont/otrl&#45;&gt;http://w3id.org/oseg/ont/oseg&#45;profiles#robinVobruba -->
<g id="edge2" class="edge">
<title>http://w3id.org/oseg/ont/otrl&#45;&gt;http://w3id.org/oseg/ont/oseg&#45;profiles#robinVobruba</title>
<path fill="none" stroke="black" d="M221.17,-226.73C260.61,-244.52 334.48,-274.92 401.25,-286.26 496.73,-302.49 607.25,-300.61 686.3,-295.77"/>
<polygon fill="black" stroke="black" points="686.99,-299.24 696.75,-295.11 686.55,-292.25 686.99,-299.24"/>
<text text-anchor="middle" x="481.25" y="-303.06" font-family="Times,serif" font-size="14.00">schema:creator</text>
</g>
<!-- http://w3id.org/oseg/ont/otrl&#45;&gt;http://w3id.org/oseg/ont/oseg&#45;profiles#robinVobruba -->
<g id="edge37" class="edge">
<title>http://w3id.org/oseg/ont/otrl&#45;&gt;http://w3id.org/oseg/ont/oseg&#45;profiles#robinVobruba</title>
<path fill="none" stroke="black" d="M239.01,-219.42C281.27,-225 345.43,-233.36 401.25,-240.26 500.67,-252.55 614.42,-265.86 693.41,-274.99"/>
<polygon fill="black" stroke="black" points="693.02,-278.47 703.35,-276.14 693.82,-271.51 693.02,-278.47"/>
<text text-anchor="middle" x="481.25" y="-263.06" font-family="Times,serif" font-size="14.00">dcterms:creator</text>
</g>
<!-- http://w3id.org/oseg/ont/oseg&#45;profiles#martinHaeuer -->
<g id="node10" class="node">
<title>http://w3id.org/oseg/ont/oseg&#45;profiles#martinHaeuer</title>
<ellipse fill="none" stroke="#e377c2" cx="792.8" cy="-226.26" rx="116.85" ry="16.03"/>
<text text-anchor="middle" x="792.8" y="-222.56" font-family="Times,serif" font-size="14.00">osegprof:martinHa...</text>
</g>
<!-- http://w3id.org/oseg/ont/otrl&#45;&gt;http://w3id.org/oseg/ont/oseg&#45;profiles#martinHaeuer -->
<g id="edge8" class="edge">
<title>http://w3id.org/oseg/ont/otrl&#45;&gt;http://w3id.org/oseg/ont/oseg&#45;profiles#martinHaeuer</title>
<path fill="none" stroke="black" d="M242.68,-214.35C335.26,-216.36 535.77,-220.71 667.17,-223.56"/>
<polygon fill="black" stroke="black" points="667.22,-227.06 677.29,-223.78 667.37,-220.06 667.22,-227.06"/>
<text text-anchor="middle" x="481.25" y="-225.06" font-family="Times,serif" font-size="14.00">dcterms:creator</text>
</g>
<!-- http://w3id.org/oseg/ont/otrl&#45;&gt;http://w3id.org/oseg/ont/oseg&#45;profiles#martinHaeuer -->
<g id="edge20" class="edge">
<title>http://w3id.org/oseg/ont/otrl&#45;&gt;http://w3id.org/oseg/ont/oseg&#45;profiles#martinHaeuer</title>
<path fill="none" stroke="black" d="M241.06,-209.09C283.31,-205.67 346.29,-201.11 401.25,-199.26 472.32,-196.88 490.26,-195.12 561.25,-199.26 607.71,-201.97 659.18,-207.74 701.67,-213.24"/>
<polygon fill="black" stroke="black" points="701.34,-216.73 711.71,-214.56 702.25,-209.79 701.34,-216.73"/>
<text text-anchor="middle" x="481.25" y="-203.06" font-family="Times,serif" font-size="14.00">schema:creator</text>
</g>
<!-- http://id.loc.gov/vocabulary/iso639&#45;1/en -->
<g id="node12" class="node">
<title>http://id.loc.gov/vocabulary/iso639&#45;1/en</title>
<ellipse fill="none" stroke="#e377c2" cx="792.8" cy="-169.26" rx="45.01" ry="16.03"/>
<text text-anchor="middle" x="792.8" y="-165.56" font-family="Times,serif" font-size="14.00">ns2:en</text>
</g>
<!-- http://w3id.org/oseg/ont/otrl&#45;&gt;http://id.loc.gov/vocabulary/iso639&#45;1/en -->
<g id="edge11" class="edge">
<title>http://w3id.org/oseg/ont/otrl&#45;&gt;http://id.loc.gov/vocabulary/iso639&#45;1/en</title>
<path fill="none" stroke="black" d="M234.75,-204.37C276.72,-195.95 343.12,-183.78 401.25,-178.26 520.71,-166.93 661.59,-166.96 737.23,-168.06"/>
<polygon fill="black" stroke="black" points="737.4,-171.57 747.46,-168.23 737.51,-164.57 737.4,-171.57"/>
<text text-anchor="middle" x="481.25" y="-182.06" font-family="Times,serif" font-size="14.00">dcterms:language</text>
</g>
<!-- http://w3id.org/oseg/ont/oseg&#45;profiles#Iopa -->
<g id="node25" class="node">
<title>http://w3id.org/oseg/ont/oseg&#45;profiles#Iopa</title>
<ellipse fill="none" stroke="#e377c2" cx="792.8" cy="-118.26" rx="80.72" ry="16.03"/>
<text text-anchor="middle" x="792.8" y="-114.56" font-family="Times,serif" font-size="14.00">osegprof:Iopa</text>
</g>
<!-- http://w3id.org/oseg/ont/otrl&#45;&gt;http://w3id.org/oseg/ont/oseg&#45;profiles#Iopa -->
<g id="edge32" class="edge">
<title>http://w3id.org/oseg/ont/otrl&#45;&gt;http://w3id.org/oseg/ont/oseg&#45;profiles#Iopa</title>
<path fill="none" stroke="black" d="M225.71,-201.13C266.42,-186.75 337.95,-163.21 401.25,-151.26 503.53,-131.96 623.01,-123.94 702.62,-120.61"/>
<polygon fill="black" stroke="black" points="702.76,-124.11 712.61,-120.21 702.48,-117.12 702.76,-124.11"/>
<text text-anchor="middle" x="481.25" y="-155.06" font-family="Times,serif" font-size="14.00">dcterms:publisher</text>
</g>
<!-- http://spdx.org/licenses/GPL&#45;3.0&#45;or&#45;later -->
<g id="node26" class="node">
<title>http://spdx.org/licenses/GPL&#45;3.0&#45;or&#45;later</title>
<ellipse fill="none" stroke="#e377c2" cx="792.8" cy="-67.26" rx="108.79" ry="16.03"/>
<text text-anchor="middle" x="792.8" y="-63.56" font-family="Times,serif" font-size="14.00">spdxl:GPL&#45;3.0&#45;or&#45;...</text>
</g>
<!-- http://w3id.org/oseg/ont/otrl&#45;&gt;http://spdx.org/licenses/GPL&#45;3.0&#45;or&#45;later -->
<g id="edge36" class="edge">
<title>http://w3id.org/oseg/ont/otrl&#45;&gt;http://spdx.org/licenses/GPL&#45;3.0&#45;or&#45;later</title>
<path fill="none" stroke="black" d="M215.65,-198.71C253,-175.86 329.84,-132.07 401.25,-111.26 490.59,-85.24 595.58,-74.45 674.19,-70.06"/>
<polygon fill="black" stroke="black" points="674.81,-73.53 684.61,-69.5 674.44,-66.54 674.81,-73.53"/>
<text text-anchor="middle" x="481.25" y="-115.06" font-family="Times,serif" font-size="14.00">spdx:licenseDeclared</text>
</g>
<!-- http://w3id.org/oseg/ont/1.1.0/otrl -->
<g id="node27" class="node">
<title>http://w3id.org/oseg/ont/1.1.0/otrl</title>
<ellipse fill="none" stroke="#e377c2" cx="792.8" cy="-16.26" rx="50.82" ry="16.03"/>
<text text-anchor="middle" x="792.8" y="-12.56" font-family="Times,serif" font-size="14.00">ns3:otrl</text>
</g>
<!-- http://w3id.org/oseg/ont/otrl&#45;&gt;http://w3id.org/oseg/ont/1.1.0/otrl -->
<g id="edge41" class="edge">
<title>http://w3id.org/oseg/ont/otrl&#45;&gt;http://w3id.org/oseg/ont/1.1.0/otrl</title>
<path fill="none" stroke="black" d="M208.15,-197.39C240.61,-165.34 319.43,-93.2 401.25,-61.26 512.15,-17.97 653.22,-12.78 731.88,-13.87"/>
<polygon fill="black" stroke="black" points="732.02,-17.37 742.09,-14.05 732.15,-10.38 732.02,-17.37"/>
<text text-anchor="middle" x="481.25" y="-65.06" font-family="Times,serif" font-size="14.00">owl:versionIRI</text>
</g>
<!-- http://w3id.org/oseg/ont/otrl#ODRL2 -->
<g id="node8" class="node">
<title>http://w3id.org/oseg/ont/otrl#ODRL2</title>
<ellipse fill="none" stroke="#e377c2" cx="1387.61" cy="-1060.26" rx="69.09" ry="16.03"/>
<text text-anchor="middle" x="1387.61" y="-1056.56" font-family="Times,serif" font-size="14.00">otrl:ODRL2</text>
</g>
<!-- http://w3id.org/oseg/ont/otrl#ODRL2&#45;&gt;http://w3id.org/oseg/ont/otrl#ODRL -->
<g id="edge6" class="edge">
<title>http://w3id.org/oseg/ont/otrl#ODRL2&#45;&gt;http://w3id.org/oseg/ont/otrl#ODRL</title>
<path fill="none" stroke="black" d="M1456.93,-1060.02C1492.86,-1057.61 1536.81,-1050.95 1572.87,-1034.26 1582.58,-1029.77 1581.16,-1022.77 1590.87,-1018.26 1656.03,-988.01 1680.37,-1009.1 1750.87,-995.26 1780.09,-989.53 1812.35,-981.58 1838.54,-974.7"/>
<polygon fill="black" stroke="black" points="1839.49,-978.07 1848.26,-972.13 1837.69,-971.3 1839.49,-978.07"/>
<text text-anchor="middle" x="1670.87" y="-1022.06" font-family="Times,serif" font-size="14.00">a</text>
</g>
<!-- http://w3id.org/oseg/ont/otrl#OTRL4 -->
<g id="node9" class="node">
<title>http://w3id.org/oseg/ont/otrl#OTRL4</title>
<ellipse fill="none" stroke="#e377c2" cx="1387.61" cy="-550.26" rx="67.35" ry="16.03"/>
<text text-anchor="middle" x="1387.61" y="-546.56" font-family="Times,serif" font-size="14.00">otrl:OTRL4</text>
</g>
<!-- http://w3id.org/oseg/ont/otrl#OTRL4&#45;&gt;http://w3id.org/oseg/ont/otrl#OTRL -->
<g id="edge31" class="edge">
<title>http://w3id.org/oseg/ont/otrl#OTRL4&#45;&gt;http://w3id.org/oseg/ont/otrl#OTRL</title>
<path fill="none" stroke="black" d="M1452.95,-554.18C1526.06,-559.69 1648.52,-572.14 1750.87,-598.26 1785.76,-607.17 1823.79,-622.2 1851.41,-634.14"/>
<polygon fill="black" stroke="black" points="1850.15,-637.41 1860.72,-638.22 1852.96,-631 1850.15,-637.41"/>
<text text-anchor="middle" x="1670.87" y="-602.06" font-family="Times,serif" font-size="14.00">a</text>
</g>
<!-- http://w3id.org/oseg/ont/otrl#ODRL3Star -->
<g id="node11" class="node">
<title>http://w3id.org/oseg/ont/otrl#ODRL3Star</title>
<ellipse fill="none" stroke="#e377c2" cx="1387.61" cy="-907.26" rx="90.52" ry="16.03"/>
<text text-anchor="middle" x="1387.61" y="-903.56" font-family="Times,serif" font-size="14.00">otrl:ODRL3Star</text>
</g>
<!-- http://w3id.org/oseg/ont/otrl#ODRL3Star&#45;&gt;http://w3id.org/oseg/ont/otrl#ODRL -->
<g id="edge9" class="edge">
<title>http://w3id.org/oseg/ont/otrl#ODRL3Star&#45;&gt;http://w3id.org/oseg/ont/otrl#ODRL</title>
<path fill="none" stroke="black" d="M1477.02,-904.49C1550.73,-903.6 1658.25,-905.6 1750.87,-920.26 1782.79,-925.32 1817.74,-935.29 1844.74,-944.02"/>
<polygon fill="black" stroke="black" points="1843.71,-947.37 1854.3,-947.17 1845.9,-940.72 1843.71,-947.37"/>
<text text-anchor="middle" x="1670.87" y="-924.06" font-family="Times,serif" font-size="14.00">a</text>
</g>
<!-- http://w3id.org/oseg/ont/otrl#Odrl4 -->
<g id="node13" class="node">
<title>http://w3id.org/oseg/ont/otrl#Odrl4</title>
<ellipse fill="none" stroke="#e377c2" cx="792.8" cy="-1009.26" rx="61.54" ry="16.03"/>
<text text-anchor="middle" x="792.8" y="-1005.56" font-family="Times,serif" font-size="14.00">otrl:Odrl4</text>
</g>
<!-- http://w3id.org/oseg/ont/otrl#ODRL4 -->
<g id="node16" class="node">
<title>http://w3id.org/oseg/ont/otrl#ODRL4</title>
<ellipse fill="none" stroke="#e377c2" cx="1387.61" cy="-1009.26" rx="69.09" ry="16.03"/>
<text text-anchor="middle" x="1387.61" y="-1005.56" font-family="Times,serif" font-size="14.00">otrl:ODRL4</text>
</g>
<!-- http://w3id.org/oseg/ont/otrl#Odrl4&#45;&gt;http://w3id.org/oseg/ont/otrl#ODRL4 -->
<g id="edge40" class="edge">
<title>http://w3id.org/oseg/ont/otrl#Odrl4&#45;&gt;http://w3id.org/oseg/ont/otrl#ODRL4</title>
<path fill="none" stroke="black" d="M854.45,-1009.26C962.41,-1009.26 1187.78,-1009.26 1307.66,-1009.26"/>
<polygon fill="black" stroke="black" points="1307.86,-1012.76 1317.86,-1009.26 1307.86,-1005.76 1307.86,-1012.76"/>
<text text-anchor="middle" x="1104.34" y="-1013.06" font-family="Times,serif" font-size="14.00">schema:supersededBy</text>
</g>
<!-- http://w3id.org/oseg/ont/otrl#OTRL2 -->
<g id="node14" class="node">
<title>http://w3id.org/oseg/ont/otrl#OTRL2</title>
<ellipse fill="none" stroke="#e377c2" cx="1387.61" cy="-499.26" rx="67.35" ry="16.03"/>
<text text-anchor="middle" x="1387.61" y="-495.56" font-family="Times,serif" font-size="14.00">otrl:OTRL2</text>
</g>
<!-- http://w3id.org/oseg/ont/otrl#OTRL2&#45;&gt;http://w3id.org/oseg/ont/otrl#OTRL -->
<g id="edge34" class="edge">
<title>http://w3id.org/oseg/ont/otrl#OTRL2&#45;&gt;http://w3id.org/oseg/ont/otrl#OTRL</title>
<path fill="none" stroke="black" d="M1454.87,-499.06C1529.46,-500.97 1653,-510.64 1750.87,-550.26 1796.6,-568.78 1841.22,-605.44 1867.38,-629.4"/>
<polygon fill="black" stroke="black" points="1865.18,-632.13 1874.88,-636.39 1869.95,-627.01 1865.18,-632.13"/>
<text text-anchor="middle" x="1670.87" y="-554.06" font-family="Times,serif" font-size="14.00">a</text>
</g>
<!-- http://w3id.org/oseg/ont/otrl#OTRL5 -->
<g id="node15" class="node">
<title>http://w3id.org/oseg/ont/otrl#OTRL5</title>
<ellipse fill="none" stroke="#e377c2" cx="1387.61" cy="-448.26" rx="67.35" ry="16.03"/>
<text text-anchor="middle" x="1387.61" y="-444.56" font-family="Times,serif" font-size="14.00">otrl:OTRL5</text>
</g>
<!-- http://w3id.org/oseg/ont/otrl#OTRL5&#45;&gt;http://w3id.org/oseg/ont/otrl#OTRL -->
<g id="edge27" class="edge">
<title>http://w3id.org/oseg/ont/otrl#OTRL5&#45;&gt;http://w3id.org/oseg/ont/otrl#OTRL</title>
<path fill="none" stroke="black" d="M1451.22,-442.8C1526.77,-439.03 1655.51,-441.85 1750.87,-492.26 1809.88,-523.47 1855.4,-590.43 1877.04,-627.06"/>
<polygon fill="black" stroke="black" points="1874.23,-629.19 1882.26,-636.1 1880.29,-625.69 1874.23,-629.19"/>
<text text-anchor="middle" x="1670.87" y="-496.06" font-family="Times,serif" font-size="14.00">a</text>
</g>
<!-- http://w3id.org/oseg/ont/otrl#ODRL4&#45;&gt;http://w3id.org/oseg/ont/otrl#ODRL -->
<g id="edge14" class="edge">
<title>http://w3id.org/oseg/ont/otrl#ODRL4&#45;&gt;http://w3id.org/oseg/ont/otrl#ODRL</title>
<path fill="none" stroke="black" d="M1447.99,-1001.27C1484.13,-996.31 1531.2,-989.67 1572.87,-983.26 1580.88,-982.03 1582.81,-981.2 1590.87,-980.26 1668.69,-971.21 1758.37,-965.9 1819.27,-963.05"/>
<polygon fill="black" stroke="black" points="1819.72,-966.53 1829.55,-962.58 1819.4,-959.54 1819.72,-966.53"/>
<text text-anchor="middle" x="1670.87" y="-984.06" font-family="Times,serif" font-size="14.00">a</text>
</g>
<!-- http://www.w3.org/1999/02/22&#45;rdf&#45;syntax&#45;ns#langString -->
<g id="node17" class="node">
<title>http://www.w3.org/1999/02/22&#45;rdf&#45;syntax&#45;ns#langString</title>
<ellipse fill="none" stroke="#e377c2" cx="1891.9" cy="-1286.26" rx="83.38" ry="16.03"/>
<text text-anchor="middle" x="1891.9" y="-1282.56" font-family="Times,serif" font-size="14.00">rdf:langString</text>
</g>
<!-- http://w3id.org/oseg/ont/otrl#goal -->
<g id="node18" class="node">
<title>http://w3id.org/oseg/ont/otrl#goal</title>
<ellipse fill="none" stroke="#e377c2" cx="1387.61" cy="-1123.26" rx="54.39" ry="16.03"/>
<text text-anchor="middle" x="1387.61" y="-1119.56" font-family="Times,serif" font-size="14.00">otrl:goal</text>
</g>
<!-- http://w3id.org/oseg/ont/otrl#goal&#45;&gt;http://www.w3.org/2002/07/owl#DatatypeProperty -->
<g id="edge17" class="edge">
<title>http://w3id.org/oseg/ont/otrl#goal&#45;&gt;http://www.w3.org/2002/07/owl#DatatypeProperty</title>
<path fill="none" stroke="black" d="M1441.68,-1121.06C1512.51,-1118.92 1641.72,-1117.83 1750.87,-1132.26 1777.57,-1135.8 1806.58,-1142.37 1831.24,-1148.8"/>
<polygon fill="black" stroke="black" points="1830.6,-1152.26 1841.16,-1151.45 1832.4,-1145.49 1830.6,-1152.26"/>
<text text-anchor="middle" x="1670.87" y="-1136.06" font-family="Times,serif" font-size="14.00">a</text>
</g>
<!-- http://w3id.org/oseg/ont/otrl#goal&#45;&gt;http://w3id.org/oseg/ont/otrl#ODRL -->
<g id="edge1" class="edge">
<title>http://w3id.org/oseg/ont/otrl#goal&#45;&gt;http://w3id.org/oseg/ont/otrl#ODRL</title>
<path fill="none" stroke="black" d="M1438.87,-1117.53C1531.6,-1106.72 1722.75,-1083.37 1750.87,-1071.26 1798.59,-1050.73 1843.8,-1009.56 1869.37,-983.54"/>
<polygon fill="black" stroke="black" points="1871.92,-985.94 1876.35,-976.31 1866.88,-981.07 1871.92,-985.94"/>
<text text-anchor="middle" x="1670.87" y="-1101.06" font-family="Times,serif" font-size="14.00">dcam:domainIncludes</text>
</g>
<!-- http://w3id.org/oseg/ont/otrl#goal&#45;&gt;http://w3id.org/oseg/ont/otrl#OTRL -->
<g id="edge22" class="edge">
<title>http://w3id.org/oseg/ont/otrl#goal&#45;&gt;http://w3id.org/oseg/ont/otrl#OTRL</title>
<path fill="none" stroke="black" d="M1442.26,-1123.86C1481.86,-1121.72 1535.2,-1113.16 1572.87,-1085.26 1586.29,-1075.32 1577.03,-1061.63 1590.87,-1052.26 1650.18,-1012.14 1698.65,-1082.27 1750.87,-1033.26 1783.16,-1002.96 1756.02,-977.64 1768.87,-935.26 1798.79,-836.58 1852.82,-726.09 1877.71,-677.5"/>
<polygon fill="black" stroke="black" points="1880.95,-678.85 1882.42,-668.36 1874.72,-675.65 1880.95,-678.85"/>
<text text-anchor="middle" x="1670.87" y="-1056.06" font-family="Times,serif" font-size="14.00">dcam:domainIncludes</text>
</g>
<!-- http://w3id.org/oseg/ont/otrl#goal&#45;&gt;http://www.w3.org/1999/02/22&#45;rdf&#45;syntax&#45;ns#langString -->
<g id="edge16" class="edge">
<title>http://w3id.org/oseg/ont/otrl#goal&#45;&gt;http://www.w3.org/1999/02/22&#45;rdf&#45;syntax&#45;ns#langString</title>
<path fill="none" stroke="black" d="M1438.6,-1129.28C1536.38,-1141.11 1744.05,-1166.58 1750.87,-1170.26 1761.68,-1176.11 1759.97,-1182.78 1768.87,-1191.26 1797.67,-1218.74 1834.04,-1246.25 1859.55,-1264.54"/>
<polygon fill="black" stroke="black" points="1857.58,-1267.44 1867.76,-1270.38 1861.64,-1261.73 1857.58,-1267.44"/>
<text text-anchor="middle" x="1670.87" y="-1174.06" font-family="Times,serif" font-size="14.00">range</text>
</g>
<!-- http://w3id.org/oseg/ont/otrl#exitCriteria -->
<g id="node19" class="node">
<title>http://w3id.org/oseg/ont/otrl#exitCriteria</title>
<ellipse fill="none" stroke="#e377c2" cx="1387.61" cy="-1264.26" rx="91.43" ry="16.03"/>
<text text-anchor="middle" x="1387.61" y="-1260.56" font-family="Times,serif" font-size="14.00">otrl:exitCriteria</text>
</g>
<!-- http://w3id.org/oseg/ont/otrl#exitCriteria&#45;&gt;http://www.w3.org/2002/07/owl#DatatypeProperty -->
<g id="edge18" class="edge">
<title>http://w3id.org/oseg/ont/otrl#exitCriteria&#45;&gt;http://www.w3.org/2002/07/owl#DatatypeProperty</title>
<path fill="none" stroke="black" d="M1474.61,-1269.25C1565.16,-1273.49 1701.33,-1276.71 1750.87,-1261.26 1796.37,-1247.08 1840.43,-1212.73 1866.61,-1189.46"/>
<polygon fill="black" stroke="black" points="1869.09,-1191.94 1874.14,-1182.63 1864.39,-1186.75 1869.09,-1191.94"/>
<text text-anchor="middle" x="1670.87" y="-1276.06" font-family="Times,serif" font-size="14.00">a</text>
</g>
<!-- http://w3id.org/oseg/ont/otrl#exitCriteria&#45;&gt;http://w3id.org/oseg/ont/otrl#ODRL -->
<g id="edge28" class="edge">
<title>http://w3id.org/oseg/ont/otrl#exitCriteria&#45;&gt;http://w3id.org/oseg/ont/otrl#ODRL</title>
<path fill="none" stroke="black" d="M1465.97,-1255.79C1571.98,-1244.13 1749.55,-1224.45 1750.87,-1223.26 1778.58,-1198.28 1754.18,-1175.56 1768.87,-1141.26 1795.14,-1079.92 1843.01,-1017.34 1870.33,-984.24"/>
<polygon fill="black" stroke="black" points="1873.09,-986.39 1876.81,-976.47 1867.71,-981.91 1873.09,-986.39"/>
<text text-anchor="middle" x="1670.87" y="-1244.06" font-family="Times,serif" font-size="14.00">dcam:domainIncludes</text>
</g>
<!-- http://w3id.org/oseg/ont/otrl#exitCriteria&#45;&gt;http://w3id.org/oseg/ont/otrl#OTRL -->
<g id="edge3" class="edge">
<title>http://w3id.org/oseg/ont/otrl#exitCriteria&#45;&gt;http://w3id.org/oseg/ont/otrl#OTRL</title>
<path fill="none" stroke="black" d="M1429.92,-1249.75C1470.43,-1236.06 1534.19,-1215.95 1590.87,-1204.26 1625.94,-1197.03 1726.14,-1211.16 1750.87,-1185.26 1770.1,-1165.12 1762.26,-962.32 1768.87,-935.26 1793.32,-835.12 1850.09,-725.43 1876.68,-677.28"/>
<polygon fill="black" stroke="black" points="1879.77,-678.93 1881.58,-668.49 1873.65,-675.52 1879.77,-678.93"/>
<text text-anchor="middle" x="1670.87" y="-1208.06" font-family="Times,serif" font-size="14.00">dcam:domainIncludes</text>
</g>
<!-- http://w3id.org/oseg/ont/otrl#exitCriteria&#45;&gt;http://www.w3.org/1999/02/22&#45;rdf&#45;syntax&#45;ns#langString -->
<g id="edge21" class="edge">
<title>http://w3id.org/oseg/ont/otrl#exitCriteria&#45;&gt;http://www.w3.org/1999/02/22&#45;rdf&#45;syntax&#45;ns#langString</title>
<path fill="none" stroke="black" d="M1445.81,-1276.86C1486.13,-1285.07 1541.51,-1295.02 1590.87,-1299.26 1661.72,-1305.35 1679.83,-1302.55 1750.87,-1299.26 1769.68,-1298.39 1789.87,-1296.87 1808.9,-1295.16"/>
<polygon fill="black" stroke="black" points="1809.4,-1298.63 1819.03,-1294.22 1808.75,-1291.66 1809.4,-1298.63"/>
<text text-anchor="middle" x="1670.87" y="-1306.06" font-family="Times,serif" font-size="14.00">range</text>
</g>
<!-- http://w3id.org/oseg/ont/otrl#OTRL3 -->
<g id="node20" class="node">
<title>http://w3id.org/oseg/ont/otrl#OTRL3</title>
<ellipse fill="none" stroke="#e377c2" cx="1387.61" cy="-754.26" rx="67.35" ry="16.03"/>
<text text-anchor="middle" x="1387.61" y="-750.56" font-family="Times,serif" font-size="14.00">otrl:OTRL3</text>
</g>
<!-- http://w3id.org/oseg/ont/otrl#OTRL3&#45;&gt;http://w3id.org/oseg/ont/otrl#OTRL -->
<g id="edge19" class="edge">
<title>http://w3id.org/oseg/ont/otrl#OTRL3&#45;&gt;http://w3id.org/oseg/ont/otrl#OTRL</title>
<path fill="none" stroke="black" d="M1452.59,-750.03C1525.64,-744.18 1648.28,-731.25 1750.87,-705.26 1785.47,-696.5 1823.24,-681.89 1850.83,-670.22"/>
<polygon fill="black" stroke="black" points="1852.32,-673.39 1860.14,-666.24 1849.57,-666.96 1852.32,-673.39"/>
<text text-anchor="middle" x="1670.87" y="-738.06" font-family="Times,serif" font-size="14.00">a</text>
</g>
<!-- http://w3id.org/oseg/ont/otrl#OTRL1 -->
<g id="node21" class="node">
<title>http://w3id.org/oseg/ont/otrl#OTRL1</title>
<ellipse fill="none" stroke="#e377c2" cx="1387.61" cy="-703.26" rx="67.35" ry="16.03"/>
<text text-anchor="middle" x="1387.61" y="-699.56" font-family="Times,serif" font-size="14.00">otrl:OTRL1</text>
</g>
<!-- http://w3id.org/oseg/ont/otrl#OTRL1&#45;&gt;http://w3id.org/oseg/ont/otrl#OTRL -->
<g id="edge23" class="edge">
<title>http://w3id.org/oseg/ont/otrl#OTRL1&#45;&gt;http://w3id.org/oseg/ont/otrl#OTRL</title>
<path fill="none" stroke="black" d="M1452.17,-698.55C1524.58,-692.98 1646.4,-682.96 1750.87,-671.26 1776.15,-668.43 1803.92,-664.78 1828.03,-661.43"/>
<polygon fill="black" stroke="black" points="1828.69,-664.87 1838.11,-660.02 1827.72,-657.94 1828.69,-664.87"/>
<text text-anchor="middle" x="1670.87" y="-690.06" font-family="Times,serif" font-size="14.00">a</text>
</g>
<!-- http://w3id.org/oseg/ont/otrl#OTRL6 -->
<g id="node22" class="node">
<title>http://w3id.org/oseg/ont/otrl#OTRL6</title>
<ellipse fill="none" stroke="#e377c2" cx="1387.61" cy="-652.26" rx="67.35" ry="16.03"/>
<text text-anchor="middle" x="1387.61" y="-648.56" font-family="Times,serif" font-size="14.00">otrl:OTRL6</text>
</g>
<!-- http://w3id.org/oseg/ont/otrl#OTRL6&#45;&gt;http://w3id.org/oseg/ont/otrl#OTRL -->
<g id="edge25" class="edge">
<title>http://w3id.org/oseg/ont/otrl#OTRL6&#45;&gt;http://w3id.org/oseg/ont/otrl#OTRL</title>
<path fill="none" stroke="black" d="M1454.79,-652.26C1549.73,-652.26 1723.8,-652.26 1820.85,-652.26"/>
<polygon fill="black" stroke="black" points="1820.85,-655.76 1830.85,-652.26 1820.85,-648.76 1820.85,-655.76"/>
<text text-anchor="middle" x="1670.87" y="-656.06" font-family="Times,serif" font-size="14.00">a</text>
</g>
<!-- http://w3id.org/oseg/ont/otrl#ODRL3 -->
<g id="node23" class="node">
<title>http://w3id.org/oseg/ont/otrl#ODRL3</title>
<ellipse fill="none" stroke="#e377c2" cx="1387.61" cy="-958.26" rx="69.09" ry="16.03"/>
<text text-anchor="middle" x="1387.61" y="-954.56" font-family="Times,serif" font-size="14.00">otrl:ODRL3</text>
</g>
<!-- http://w3id.org/oseg/ont/otrl#ODRL3&#45;&gt;http://w3id.org/oseg/ont/otrl#ODRL -->
<g id="edge26" class="edge">
<title>http://w3id.org/oseg/ont/otrl#ODRL3&#45;&gt;http://w3id.org/oseg/ont/otrl#ODRL</title>
<path fill="none" stroke="black" d="M1450.83,-951.43C1523.02,-944.46 1645.64,-935.53 1750.87,-942.26 1776.13,-943.88 1803.79,-947.12 1827.81,-950.41"/>
<polygon fill="black" stroke="black" points="1827.47,-953.9 1837.86,-951.82 1828.44,-946.97 1827.47,-953.9"/>
<text text-anchor="middle" x="1670.87" y="-946.06" font-family="Times,serif" font-size="14.00">a</text>
</g>
<!-- http://w3id.org/oseg/ont/otrl#ODRL1 -->
<g id="node24" class="node">
<title>http://w3id.org/oseg/ont/otrl#ODRL1</title>
<ellipse fill="none" stroke="#e377c2" cx="1387.61" cy="-856.26" rx="69.09" ry="16.03"/>
<text text-anchor="middle" x="1387.61" y="-852.56" font-family="Times,serif" font-size="14.00">otrl:ODRL1</text>
</g>
<!-- http://w3id.org/oseg/ont/otrl#ODRL1&#45;&gt;http://w3id.org/oseg/ont/otrl#ODRL -->
<g id="edge33" class="edge">
<title>http://w3id.org/oseg/ont/otrl#ODRL1&#45;&gt;http://w3id.org/oseg/ont/otrl#ODRL</title>
<path fill="none" stroke="black" d="M1456.17,-853.86C1530.06,-853.06 1651.23,-857.14 1750.87,-886.26 1790.94,-897.98 1832.74,-921.83 1860.12,-939.3"/>
<polygon fill="black" stroke="black" points="1858.54,-942.44 1868.83,-944.95 1862.35,-936.57 1858.54,-942.44"/>
<text text-anchor="middle" x="1670.87" y="-890.06" font-family="Times,serif" font-size="14.00">a</text>
</g>
<!-- http://w3id.org/oseg/ont/otrl#Odrl -->
<g id="node28" class="node">
<title>http://w3id.org/oseg/ont/otrl#Odrl</title>
<ellipse fill="none" stroke="black" cx="1387.61" cy="-805.26" rx="185.02" ry="16.03"/>
<text text-anchor="middle" x="1387.61" y="-801.56" font-family="Times,serif" font-size="14.00">http://w3id.org/oseg/ont/otrl#Odrl</text>
</g>
<!-- http://w3id.org/oseg/ont/otrl#Odrl&#45;&gt;http://w3id.org/oseg/ont/otrl#ODRL -->
<g id="edge5" class="edge">
<title>http://w3id.org/oseg/ont/otrl#Odrl&#45;&gt;http://w3id.org/oseg/ont/otrl#ODRL</title>
<path fill="none" stroke="black" d="M1563.49,-800.15C1624.77,-803.88 1692.76,-814.48 1750.87,-839.26 1801.44,-860.83 1846.97,-907.62 1871.6,-936.29"/>
<polygon fill="black" stroke="black" points="1869.15,-938.81 1878.27,-944.2 1874.51,-934.3 1869.15,-938.81"/>
<text text-anchor="middle" x="1670.87" y="-843.06" font-family="Times,serif" font-size="14.00">schema:supersededBy</text>
</g>
<!-- http://w3id.org/oseg/ont/otrl#Otrl4 -->
<g id="node29" class="node">
<title>http://w3id.org/oseg/ont/otrl#Otrl4</title>
<ellipse fill="none" stroke="black" cx="792.8" cy="-550.26" rx="189.51" ry="16.03"/>
<text text-anchor="middle" x="792.8" y="-546.56" font-family="Times,serif" font-size="14.00">http://w3id.org/oseg/ont/otrl#Otrl4</text>
</g>
<!-- http://w3id.org/oseg/ont/otrl#Otrl4&#45;&gt;http://w3id.org/oseg/ont/otrl#OTRL4 -->
<g id="edge7" class="edge">
<title>http://w3id.org/oseg/ont/otrl#Otrl4&#45;&gt;http://w3id.org/oseg/ont/otrl#OTRL4</title>
<path fill="none" stroke="black" d="M982.59,-550.26C1093.54,-550.26 1227.77,-550.26 1310.15,-550.26"/>
<polygon fill="black" stroke="black" points="1310.19,-553.76 1320.19,-550.26 1310.19,-546.76 1310.19,-553.76"/>
<text text-anchor="middle" x="1104.34" y="-554.06" font-family="Times,serif" font-size="14.00">schema:supersededBy</text>
</g>
<!-- http://w3id.org/oseg/ont/otrl#Otrl2 -->
<g id="node30" class="node">
<title>http://w3id.org/oseg/ont/otrl#Otrl2</title>
<ellipse fill="none" stroke="black" cx="792.8" cy="-499.26" rx="189.51" ry="16.03"/>
<text text-anchor="middle" x="792.8" y="-495.56" font-family="Times,serif" font-size="14.00">http://w3id.org/oseg/ont/otrl#Otrl2</text>
</g>
<!-- http://w3id.org/oseg/ont/otrl#Otrl2&#45;&gt;http://w3id.org/oseg/ont/otrl#OTRL2 -->
<g id="edge12" class="edge">
<title>http://w3id.org/oseg/ont/otrl#Otrl2&#45;&gt;http://w3id.org/oseg/ont/otrl#OTRL2</title>
<path fill="none" stroke="black" d="M982.59,-499.26C1093.54,-499.26 1227.77,-499.26 1310.15,-499.26"/>
<polygon fill="black" stroke="black" points="1310.19,-502.76 1320.19,-499.26 1310.19,-495.76 1310.19,-502.76"/>
<text text-anchor="middle" x="1104.34" y="-503.06" font-family="Times,serif" font-size="14.00">schema:supersededBy</text>
</g>
<!-- http://w3id.org/oseg/ont/otrl#Otrl5 -->
<g id="node31" class="node">
<title>http://w3id.org/oseg/ont/otrl#Otrl5</title>
<ellipse fill="none" stroke="black" cx="792.8" cy="-448.26" rx="189.51" ry="16.03"/>
<text text-anchor="middle" x="792.8" y="-444.56" font-family="Times,serif" font-size="14.00">http://w3id.org/oseg/ont/otrl#Otrl5</text>
</g>
<!-- http://w3id.org/oseg/ont/otrl#Otrl5&#45;&gt;http://w3id.org/oseg/ont/otrl#OTRL5 -->
<g id="edge13" class="edge">
<title>http://w3id.org/oseg/ont/otrl#Otrl5&#45;&gt;http://w3id.org/oseg/ont/otrl#OTRL5</title>
<path fill="none" stroke="black" d="M982.59,-448.26C1093.54,-448.26 1227.77,-448.26 1310.15,-448.26"/>
<polygon fill="black" stroke="black" points="1310.19,-451.76 1320.19,-448.26 1310.19,-444.76 1310.19,-451.76"/>
<text text-anchor="middle" x="1104.34" y="-452.06" font-family="Times,serif" font-size="14.00">schema:supersededBy</text>
</g>
<!-- http://w3id.org/oseg/ont/otrl#Odrl3Star -->
<g id="node32" class="node">
<title>http://w3id.org/oseg/ont/otrl#Odrl3Star</title>
<ellipse fill="none" stroke="black" cx="792.8" cy="-907.26" rx="213.59" ry="16.03"/>
<text text-anchor="middle" x="792.8" y="-903.56" font-family="Times,serif" font-size="14.00">http://w3id.org/oseg/ont/otrl#Odrl3Star</text>
</g>
<!-- http://w3id.org/oseg/ont/otrl#Odrl3Star&#45;&gt;http://w3id.org/oseg/ont/otrl#ODRL3Star -->
<g id="edge15" class="edge">
<title>http://w3id.org/oseg/ont/otrl#Odrl3Star&#45;&gt;http://w3id.org/oseg/ont/otrl#ODRL3Star</title>
<path fill="none" stroke="black" d="M1006.56,-907.26C1102.06,-907.26 1210.18,-907.26 1286.62,-907.26"/>
<polygon fill="black" stroke="black" points="1286.72,-910.76 1296.72,-907.26 1286.72,-903.76 1286.72,-910.76"/>
<text text-anchor="middle" x="1104.34" y="-911.06" font-family="Times,serif" font-size="14.00">schema:supersededBy</text>
</g>
<!-- http://w3id.org/oseg/ont/otrl#Otrl3 -->
<g id="node33" class="node">
<title>http://w3id.org/oseg/ont/otrl#Otrl3</title>
<ellipse fill="none" stroke="black" cx="792.8" cy="-754.26" rx="189.51" ry="16.03"/>
<text text-anchor="middle" x="792.8" y="-750.56" font-family="Times,serif" font-size="14.00">http://w3id.org/oseg/ont/otrl#Otrl3</text>
</g>
<!-- http://w3id.org/oseg/ont/otrl#Otrl3&#45;&gt;http://w3id.org/oseg/ont/otrl#OTRL3 -->
<g id="edge24" class="edge">
<title>http://w3id.org/oseg/ont/otrl#Otrl3&#45;&gt;http://w3id.org/oseg/ont/otrl#OTRL3</title>
<path fill="none" stroke="black" d="M982.59,-754.26C1093.54,-754.26 1227.77,-754.26 1310.15,-754.26"/>
<polygon fill="black" stroke="black" points="1310.19,-757.76 1320.19,-754.26 1310.19,-750.76 1310.19,-757.76"/>
<text text-anchor="middle" x="1104.34" y="-758.06" font-family="Times,serif" font-size="14.00">schema:supersededBy</text>
</g>
<!-- http://w3id.org/oseg/ont/otrl#Odrl1 -->
<g id="node34" class="node">
<title>http://w3id.org/oseg/ont/otrl#Odrl1</title>
<ellipse fill="none" stroke="black" cx="792.8" cy="-856.26" rx="191.75" ry="16.03"/>
<text text-anchor="middle" x="792.8" y="-852.56" font-family="Times,serif" font-size="14.00">http://w3id.org/oseg/ont/otrl#Odrl1</text>
</g>
<!-- http://w3id.org/oseg/ont/otrl#Odrl1&#45;&gt;http://w3id.org/oseg/ont/otrl#ODRL1 -->
<g id="edge29" class="edge">
<title>http://w3id.org/oseg/ont/otrl#Odrl1&#45;&gt;http://w3id.org/oseg/ont/otrl#ODRL1</title>
<path fill="none" stroke="black" d="M984.63,-856.26C1094.18,-856.26 1225.86,-856.26 1307.91,-856.26"/>
<polygon fill="black" stroke="black" points="1308.16,-859.76 1318.16,-856.26 1308.16,-852.76 1308.16,-859.76"/>
<text text-anchor="middle" x="1104.34" y="-860.06" font-family="Times,serif" font-size="14.00">schema:supersededBy</text>
</g>
<!-- http://w3id.org/oseg/ont/otrl#Otrl -->
<g id="node35" class="node">
<title>http://w3id.org/oseg/ont/otrl#Otrl</title>
<ellipse fill="none" stroke="black" cx="1387.61" cy="-601.26" rx="183.28" ry="16.03"/>
<text text-anchor="middle" x="1387.61" y="-597.56" font-family="Times,serif" font-size="14.00">http://w3id.org/oseg/ont/otrl#Otrl</text>
</g>
<!-- http://w3id.org/oseg/ont/otrl#Otrl&#45;&gt;http://w3id.org/oseg/ont/otrl#OTRL -->
<g id="edge30" class="edge">
<title>http://w3id.org/oseg/ont/otrl#Otrl&#45;&gt;http://w3id.org/oseg/ont/otrl#OTRL</title>
<path fill="none" stroke="black" d="M1526.38,-611.91C1594.08,-617.53 1676.83,-624.98 1750.87,-633.26 1776.15,-636.09 1803.92,-639.75 1828.03,-643.09"/>
<polygon fill="black" stroke="black" points="1827.72,-646.59 1838.11,-644.51 1828.69,-639.65 1827.72,-646.59"/>
<text text-anchor="middle" x="1670.87" y="-637.06" font-family="Times,serif" font-size="14.00">schema:supersededBy</text>
</g>
<!-- http://w3id.org/oseg/ont/otrl#Otrl6 -->
<g id="node36" class="node">
<title>http://w3id.org/oseg/ont/otrl#Otrl6</title>
<ellipse fill="none" stroke="black" cx="792.8" cy="-652.26" rx="189.51" ry="16.03"/>
<text text-anchor="middle" x="792.8" y="-648.56" font-family="Times,serif" font-size="14.00">http://w3id.org/oseg/ont/otrl#Otrl6</text>
</g>
<!-- http://w3id.org/oseg/ont/otrl#Otrl6&#45;&gt;http://w3id.org/oseg/ont/otrl#OTRL6 -->
<g id="edge35" class="edge">
<title>http://w3id.org/oseg/ont/otrl#Otrl6&#45;&gt;http://w3id.org/oseg/ont/otrl#OTRL6</title>
<path fill="none" stroke="black" d="M982.59,-652.26C1093.54,-652.26 1227.77,-652.26 1310.15,-652.26"/>
<polygon fill="black" stroke="black" points="1310.19,-655.76 1320.19,-652.26 1310.19,-648.76 1310.19,-655.76"/>
<text text-anchor="middle" x="1104.34" y="-656.06" font-family="Times,serif" font-size="14.00">schema:supersededBy</text>
</g>
<!-- http://w3id.org/oseg/ont/otrl#Odrl2 -->
<g id="node37" class="node">
<title>http://w3id.org/oseg/ont/otrl#Odrl2</title>
<ellipse fill="none" stroke="black" cx="792.8" cy="-1060.26" rx="191.75" ry="16.03"/>
<text text-anchor="middle" x="792.8" y="-1056.56" font-family="Times,serif" font-size="14.00">http://w3id.org/oseg/ont/otrl#Odrl2</text>
</g>
<!-- http://w3id.org/oseg/ont/otrl#Odrl2&#45;&gt;http://w3id.org/oseg/ont/otrl#ODRL2 -->
<g id="edge38" class="edge">
<title>http://w3id.org/oseg/ont/otrl#Odrl2&#45;&gt;http://w3id.org/oseg/ont/otrl#ODRL2</title>
<path fill="none" stroke="black" d="M984.63,-1060.26C1094.18,-1060.26 1225.86,-1060.26 1307.91,-1060.26"/>
<polygon fill="black" stroke="black" points="1308.16,-1063.76 1318.16,-1060.26 1308.16,-1056.76 1308.16,-1063.76"/>
<text text-anchor="middle" x="1104.34" y="-1064.06" font-family="Times,serif" font-size="14.00">schema:supersededBy</text>
</g>
<!-- http://w3id.org/oseg/ont/otrl#Odrl3 -->
<g id="node38" class="node">
<title>http://w3id.org/oseg/ont/otrl#Odrl3</title>
<ellipse fill="none" stroke="black" cx="792.8" cy="-958.26" rx="191.75" ry="16.03"/>
<text text-anchor="middle" x="792.8" y="-954.56" font-family="Times,serif" font-size="14.00">http://w3id.org/oseg/ont/otrl#Odrl3</text>
</g>
<!-- http://w3id.org/oseg/ont/otrl#Odrl3&#45;&gt;http://w3id.org/oseg/ont/otrl#ODRL3 -->
<g id="edge39" class="edge">
<title>http://w3id.org/oseg/ont/otrl#Odrl3&#45;&gt;http://w3id.org/oseg/ont/otrl#ODRL3</title>
<path fill="none" stroke="black" d="M984.63,-958.26C1094.18,-958.26 1225.86,-958.26 1307.91,-958.26"/>
<polygon fill="black" stroke="black" points="1308.16,-961.76 1318.16,-958.26 1308.16,-954.76 1308.16,-961.76"/>
<text text-anchor="middle" x="1104.34" y="-962.06" font-family="Times,serif" font-size="14.00">schema:supersededBy</text>
</g>
<!-- http://w3id.org/oseg/ont/otrl#Otrl1 -->
<g id="node39" class="node">
<title>http://w3id.org/oseg/ont/otrl#Otrl1</title>
<ellipse fill="none" stroke="black" cx="792.8" cy="-703.26" rx="189.51" ry="16.03"/>
<text text-anchor="middle" x="792.8" y="-699.56" font-family="Times,serif" font-size="14.00">http://w3id.org/oseg/ont/otrl#Otrl1</text>
</g>
<!-- http://w3id.org/oseg/ont/otrl#Otrl1&#45;&gt;http://w3id.org/oseg/ont/otrl#OTRL1 -->
<g id="edge42" class="edge">
<title>http://w3id.org/oseg/ont/otrl#Otrl1&#45;&gt;http://w3id.org/oseg/ont/otrl#OTRL1</title>
<path fill="none" stroke="black" d="M982.59,-703.26C1093.54,-703.26 1227.77,-703.26 1310.15,-703.26"/>
<polygon fill="black" stroke="black" points="1310.19,-706.76 1320.19,-703.26 1310.19,-699.76 1310.19,-706.76"/>
<text text-anchor="middle" x="1104.34" y="-707.06" font-family="Times,serif" font-size="14.00">schema:supersededBy</text>
</g>
<!-- http://w3id.org/oseg/ont/otrl#Odrl5 -->
<g id="node40" class="node">
<title>http://w3id.org/oseg/ont/otrl#Odrl5</title>
<ellipse fill="none" stroke="black" cx="191.63" cy="-1009.26" rx="191.75" ry="16.03"/>
<text text-anchor="middle" x="191.63" y="-1005.56" font-family="Times,serif" font-size="14.00">http://w3id.org/oseg/ont/otrl#Odrl5</text>
</g>
<!-- http://w3id.org/oseg/ont/otrl#Odrl5&#45;&gt;http://w3id.org/oseg/ont/otrl#Odrl4 -->
<g id="edge43" class="edge">
<title>http://w3id.org/oseg/ont/otrl#Odrl5&#45;&gt;http://w3id.org/oseg/ont/otrl#Odrl4</title>
<path fill="none" stroke="black" d="M383.44,-1009.26C498.54,-1009.26 638.43,-1009.26 721.01,-1009.26"/>
<polygon fill="black" stroke="black" points="721.03,-1012.76 731.03,-1009.26 721.03,-1005.76 721.03,-1012.76"/>
<text text-anchor="middle" x="481.25" y="-1013.06" font-family="Times,serif" font-size="14.00">schema:supersededBy</text>
</g>
</g>
</svg>
