<?xml version="1.0" encoding="UTF-8" standalone="no"?>
<!DOCTYPE svg PUBLIC "-//W3C//DTD SVG 1.1//EN"
 "http://www.w3.org/Graphics/SVG/1.1/DTD/svg11.dtd">
<!-- Generated by graphviz version 2.43.0 (0)
 -->
<!-- Title: G Pages: 1 -->
<svg width="2065pt" height="1211pt"
 viewBox="0.00 0.00 2064.64 1210.53" xmlns="http://www.w3.org/2000/svg" xmlns:xlink="http://www.w3.org/1999/xlink">
<g id="graph0" class="graph" transform="scale(1 1) rotate(0) translate(4 1206.53)">
<title>G</title>
<polygon fill="white" stroke="transparent" points="-4,4 -4,-1206.53 2060.64,-1206.53 2060.64,4 -4,4"/>
<!-- http://www.w3.org/2002/07/owl#DatatypeProperty -->
<g id="node1" class="node">
<title>http://www.w3.org/2002/07/owl#DatatypeProperty</title>
<ellipse fill="none" stroke="#1f77b4" cx="1933.6" cy="-1011.26" rx="123.07" ry="16.03"/>
<text text-anchor="middle" x="1933.6" y="-1007.56" font-family="Times,serif" font-size="14.00">owl:DatatypeProperty</text>
</g>
<!-- http://spdx.org/rdf/terms#File -->
<g id="node2" class="node">
<title>http://spdx.org/rdf/terms#File</title>
<ellipse fill="none" stroke="#1f77b4" cx="807.65" cy="-1186.26" rx="62.45" ry="16.03"/>
<text text-anchor="middle" x="807.65" y="-1182.56" font-family="Times,serif" font-size="14.00">spdxt:File</text>
</g>
<!-- https://w3id.org/oseg/ont/otrl#ODRL4 -->
<g id="node3" class="node">
<title>https://w3id.org/oseg/ont/otrl#ODRL4</title>
<ellipse fill="none" stroke="#e377c2" cx="1412.36" cy="-729.26" rx="69.09" ry="16.03"/>
<text text-anchor="middle" x="1412.36" y="-725.56" font-family="Times,serif" font-size="14.00">otrl:ODRL4</text>
</g>
<!-- https://w3id.org/oseg/ont/otrl#ODRL -->
<g id="node14" class="node">
<title>https://w3id.org/oseg/ont/otrl#ODRL</title>
<ellipse fill="none" stroke="#e377c2" cx="1933.6" cy="-671.26" rx="62.87" ry="16.03"/>
<text text-anchor="middle" x="1933.6" y="-667.56" font-family="Times,serif" font-size="14.00">otrl:ODRL</text>
</g>
<!-- https://w3id.org/oseg/ont/otrl#ODRL4&#45;&gt;https://w3id.org/oseg/ont/otrl#ODRL -->
<g id="edge6" class="edge">
<title>https://w3id.org/oseg/ont/otrl#ODRL4&#45;&gt;https://w3id.org/oseg/ont/otrl#ODRL</title>
<path fill="none" stroke="black" d="M1481.68,-730.31C1519.1,-728.38 1565.3,-721.77 1602.57,-703.26 1612.7,-698.23 1610.21,-689.83 1620.57,-685.26 1662.06,-666.98 1782.51,-666.61 1861.05,-668.55"/>
<polygon fill="black" stroke="black" points="1861.27,-672.06 1871.36,-668.82 1861.46,-665.06 1861.27,-672.06"/>
</g>
<!-- https://w3id.org/oseg/ont/otrl#ODRL1 -->
<g id="node4" class="node">
<title>https://w3id.org/oseg/ont/otrl#ODRL1</title>
<ellipse fill="none" stroke="#e377c2" cx="1412.36" cy="-678.26" rx="69.09" ry="16.03"/>
<text text-anchor="middle" x="1412.36" y="-674.56" font-family="Times,serif" font-size="14.00">otrl:ODRL1</text>
</g>
<!-- https://w3id.org/oseg/ont/otrl#ODRL1&#45;&gt;https://w3id.org/oseg/ont/otrl#ODRL -->
<g id="edge56" class="edge">
<title>https://w3id.org/oseg/ont/otrl#ODRL1&#45;&gt;https://w3id.org/oseg/ont/otrl#ODRL</title>
<path fill="none" stroke="black" d="M1475.37,-671.46C1516.5,-667.3 1571.68,-662.38 1620.57,-660.26 1696.94,-656.95 1716.18,-657.27 1792.57,-660.26 1815.92,-661.18 1841.41,-662.95 1864.16,-664.81"/>
<polygon fill="black" stroke="black" points="1864.15,-668.32 1874.41,-665.67 1864.74,-661.34 1864.15,-668.32"/>
</g>
<!-- https://w3id.org/oseg/ont/otrl#ODRL2 -->
<g id="node5" class="node">
<title>https://w3id.org/oseg/ont/otrl#ODRL2</title>
<ellipse fill="none" stroke="#e377c2" cx="1412.36" cy="-621.26" rx="69.09" ry="16.03"/>
<text text-anchor="middle" x="1412.36" y="-617.56" font-family="Times,serif" font-size="14.00">otrl:ODRL2</text>
</g>
<!-- https://w3id.org/oseg/ont/otrl#ODRL2&#45;&gt;https://w3id.org/oseg/ont/otrl#ODRL -->
<g id="edge21" class="edge">
<title>https://w3id.org/oseg/ont/otrl#ODRL2&#45;&gt;https://w3id.org/oseg/ont/otrl#ODRL</title>
<path fill="none" stroke="black" d="M1478.51,-626.26C1554.1,-632.21 1682.47,-642.79 1792.57,-654.26 1816.86,-656.79 1843.48,-659.93 1866.93,-662.82"/>
<polygon fill="black" stroke="black" points="1866.76,-666.33 1877.11,-664.09 1867.62,-659.38 1866.76,-666.33"/>
</g>
<!-- http://www.w3.org/2002/07/owl#Ontology -->
<g id="node6" class="node">
<title>http://www.w3.org/2002/07/owl#Ontology</title>
<ellipse fill="none" stroke="#1f77b4" cx="807.65" cy="-1135.26" rx="77.56" ry="16.03"/>
<text text-anchor="middle" x="807.65" y="-1131.56" font-family="Times,serif" font-size="14.00">owl:Ontology</text>
</g>
<!-- https://w3id.org/oseg/ont/otrl#OTRL1 -->
<g id="node7" class="node">
<title>https://w3id.org/oseg/ont/otrl#OTRL1</title>
<ellipse fill="none" stroke="#e377c2" cx="1412.36" cy="-371.26" rx="67.35" ry="16.03"/>
<text text-anchor="middle" x="1412.36" y="-367.56" font-family="Times,serif" font-size="14.00">otrl:OTRL1</text>
</g>
<!-- https://w3id.org/oseg/ont/otrl#OTRL -->
<g id="node15" class="node">
<title>https://w3id.org/oseg/ont/otrl#OTRL</title>
<ellipse fill="none" stroke="#e377c2" cx="1933.6" cy="-332.26" rx="60.62" ry="16.03"/>
<text text-anchor="middle" x="1933.6" y="-328.56" font-family="Times,serif" font-size="14.00">otrl:OTRL</text>
</g>
<!-- https://w3id.org/oseg/ont/otrl#OTRL1&#45;&gt;https://w3id.org/oseg/ont/otrl#OTRL -->
<g id="edge2" class="edge">
<title>https://w3id.org/oseg/ont/otrl#OTRL1&#45;&gt;https://w3id.org/oseg/ont/otrl#OTRL</title>
<path fill="none" stroke="black" d="M1476.77,-366.5C1575.11,-359.11 1763.59,-344.96 1864.64,-337.37"/>
<polygon fill="black" stroke="black" points="1865.02,-340.85 1874.73,-336.61 1864.5,-333.87 1865.02,-340.85"/>
</g>
<!-- https://w3id.org/oseg/ont/otrl#ODRL3Star -->
<g id="node8" class="node">
<title>https://w3id.org/oseg/ont/otrl#ODRL3Star</title>
<ellipse fill="none" stroke="#e377c2" cx="1412.36" cy="-567.26" rx="90.52" ry="16.03"/>
<text text-anchor="middle" x="1412.36" y="-563.56" font-family="Times,serif" font-size="14.00">otrl:ODRL3Star</text>
</g>
<!-- https://w3id.org/oseg/ont/otrl#ODRL3Star&#45;&gt;https://w3id.org/oseg/ont/otrl#ODRL -->
<g id="edge37" class="edge">
<title>https://w3id.org/oseg/ont/otrl#ODRL3Star&#45;&gt;https://w3id.org/oseg/ont/otrl#ODRL</title>
<path fill="none" stroke="black" d="M1484.03,-577.23C1519.65,-582.48 1563.48,-589.26 1602.57,-596.26 1687.42,-611.46 1708.57,-615.86 1792.57,-635.26 1821.52,-641.95 1853.64,-650.15 1879.81,-657.04"/>
<polygon fill="black" stroke="black" points="1878.96,-660.43 1889.52,-659.6 1880.75,-653.67 1878.96,-660.43"/>
</g>
<!-- https://w3id.org/oseg/ont/otrl#OTRL4 -->
<g id="node9" class="node">
<title>https://w3id.org/oseg/ont/otrl#OTRL4</title>
<ellipse fill="none" stroke="#e377c2" cx="1412.36" cy="-320.26" rx="67.35" ry="16.03"/>
<text text-anchor="middle" x="1412.36" y="-316.56" font-family="Times,serif" font-size="14.00">otrl:OTRL4</text>
</g>
<!-- https://w3id.org/oseg/ont/otrl#OTRL4&#45;&gt;https://w3id.org/oseg/ont/otrl#OTRL -->
<g id="edge49" class="edge">
<title>https://w3id.org/oseg/ont/otrl#OTRL4&#45;&gt;https://w3id.org/oseg/ont/otrl#OTRL</title>
<path fill="none" stroke="black" d="M1479.38,-321.79C1577.75,-324.06 1761.97,-328.32 1862.6,-330.65"/>
<polygon fill="black" stroke="black" points="1862.58,-334.15 1872.66,-330.88 1862.75,-327.15 1862.58,-334.15"/>
</g>
<!-- https://w3id.org/oseg/ont/otrl#OTRL2 -->
<g id="node10" class="node">
<title>https://w3id.org/oseg/ont/otrl#OTRL2</title>
<ellipse fill="none" stroke="#e377c2" cx="1412.36" cy="-263.26" rx="67.35" ry="16.03"/>
<text text-anchor="middle" x="1412.36" y="-259.56" font-family="Times,serif" font-size="14.00">otrl:OTRL2</text>
</g>
<!-- https://w3id.org/oseg/ont/otrl#OTRL2&#45;&gt;https://w3id.org/oseg/ont/otrl#OTRL -->
<g id="edge17" class="edge">
<title>https://w3id.org/oseg/ont/otrl#OTRL2&#45;&gt;https://w3id.org/oseg/ont/otrl#OTRL</title>
<path fill="none" stroke="black" d="M1471.66,-271.01C1569.76,-284.05 1767.05,-310.26 1868.76,-323.78"/>
<polygon fill="black" stroke="black" points="1868.52,-327.28 1878.89,-325.13 1869.44,-320.34 1868.52,-327.28"/>
</g>
<!-- https://w3id.org/oseg/ont/otrl#ODRL3 -->
<g id="node11" class="node">
<title>https://w3id.org/oseg/ont/otrl#ODRL3</title>
<ellipse fill="none" stroke="#e377c2" cx="1412.36" cy="-491.26" rx="69.09" ry="16.03"/>
<text text-anchor="middle" x="1412.36" y="-487.56" font-family="Times,serif" font-size="14.00">otrl:ODRL3</text>
</g>
<!-- https://w3id.org/oseg/ont/otrl#ODRL3&#45;&gt;https://w3id.org/oseg/ont/otrl#ODRL -->
<g id="edge48" class="edge">
<title>https://w3id.org/oseg/ont/otrl#ODRL3&#45;&gt;https://w3id.org/oseg/ont/otrl#ODRL</title>
<path fill="none" stroke="black" d="M1465.49,-501.74C1539.76,-517.53 1679.52,-550.55 1792.57,-596.26 1830.7,-611.68 1871.93,-634.59 1899.71,-651.03"/>
<polygon fill="black" stroke="black" points="1898.21,-654.21 1908.59,-656.34 1901.8,-648.2 1898.21,-654.21"/>
</g>
<!-- https://w3id.org/oseg/ont/otrl#OTRL5 -->
<g id="node12" class="node">
<title>https://w3id.org/oseg/ont/otrl#OTRL5</title>
<ellipse fill="none" stroke="#e377c2" cx="1412.36" cy="-187.26" rx="67.35" ry="16.03"/>
<text text-anchor="middle" x="1412.36" y="-183.56" font-family="Times,serif" font-size="14.00">otrl:OTRL5</text>
</g>
<!-- https://w3id.org/oseg/ont/otrl#OTRL5&#45;&gt;https://w3id.org/oseg/ont/otrl#OTRL -->
<g id="edge24" class="edge">
<title>https://w3id.org/oseg/ont/otrl#OTRL5&#45;&gt;https://w3id.org/oseg/ont/otrl#OTRL</title>
<path fill="none" stroke="black" d="M1459.65,-198.89C1531.28,-217.04 1673.15,-253.62 1792.57,-288.26 1823.41,-297.21 1857.82,-308.01 1884.82,-316.67"/>
<polygon fill="black" stroke="black" points="1883.81,-320.03 1894.4,-319.76 1885.96,-313.36 1883.81,-320.03"/>
</g>
<!-- https://w3id.org/oseg/ont/otrl#OTRL3 -->
<g id="node13" class="node">
<title>https://w3id.org/oseg/ont/otrl#OTRL3</title>
<ellipse fill="none" stroke="#e377c2" cx="1412.36" cy="-111.26" rx="67.35" ry="16.03"/>
<text text-anchor="middle" x="1412.36" y="-107.56" font-family="Times,serif" font-size="14.00">otrl:OTRL3</text>
</g>
<!-- https://w3id.org/oseg/ont/otrl#OTRL3&#45;&gt;https://w3id.org/oseg/ont/otrl#OTRL -->
<g id="edge11" class="edge">
<title>https://w3id.org/oseg/ont/otrl#OTRL3&#45;&gt;https://w3id.org/oseg/ont/otrl#OTRL</title>
<path fill="none" stroke="black" d="M1461.75,-122.3C1535.85,-140.33 1680.57,-180.15 1792.57,-239.26 1832.86,-260.53 1876.08,-290.44 1903.68,-310.55"/>
<polygon fill="black" stroke="black" points="1901.94,-313.61 1912.07,-316.71 1906.08,-307.97 1901.94,-313.61"/>
</g>
<!-- https://w3id.org/oseg/ont/otrl#OTRL6 -->
<g id="node16" class="node">
<title>https://w3id.org/oseg/ont/otrl#OTRL6</title>
<ellipse fill="none" stroke="#e377c2" cx="1412.36" cy="-35.26" rx="67.35" ry="16.03"/>
<text text-anchor="middle" x="1412.36" y="-31.56" font-family="Times,serif" font-size="14.00">otrl:OTRL6</text>
</g>
<!-- https://w3id.org/oseg/ont/otrl#OTRL6&#45;&gt;https://w3id.org/oseg/ont/otrl#OTRL -->
<g id="edge23" class="edge">
<title>https://w3id.org/oseg/ont/otrl#OTRL6&#45;&gt;https://w3id.org/oseg/ont/otrl#OTRL</title>
<path fill="none" stroke="black" d="M1470.38,-43.62C1549.22,-57.48 1693.03,-91.27 1792.57,-164.26 1847.66,-204.66 1894.48,-271.26 1917.45,-307.27"/>
<polygon fill="black" stroke="black" points="1914.74,-309.55 1923.02,-316.16 1920.67,-305.83 1914.74,-309.55"/>
</g>
<!-- https://w3id.org/oseg/ont/oseg&#45;profiles#martinHaeuer -->
<g id="node17" class="node">
<title>https://w3id.org/oseg/ont/oseg&#45;profiles#martinHaeuer</title>
<ellipse fill="none" stroke="#e377c2" cx="807.65" cy="-1084.26" rx="116.85" ry="16.03"/>
<text text-anchor="middle" x="807.65" y="-1080.56" font-family="Times,serif" font-size="14.00">osegprof:martinHa...</text>
</g>
<!-- http://schema.org/Text -->
<g id="node18" class="node">
<title>http://schema.org/Text</title>
<ellipse fill="none" stroke="#e377c2" cx="1933.6" cy="-891.26" rx="74.91" ry="16.03"/>
<text text-anchor="middle" x="1933.6" y="-887.56" font-family="Times,serif" font-size="14.00">schema:Text</text>
</g>
<!-- http://id.loc.gov/vocabulary/iso639&#45;1/en -->
<g id="node19" class="node">
<title>http://id.loc.gov/vocabulary/iso639&#45;1/en</title>
<ellipse fill="none" stroke="#e377c2" cx="807.65" cy="-1033.26" rx="45.01" ry="16.03"/>
<text text-anchor="middle" x="807.65" y="-1029.56" font-family="Times,serif" font-size="14.00">ns1:en</text>
</g>
<!-- https://w3id.org/oseg/ont/otrl#goal -->
<g id="node20" class="node">
<title>https://w3id.org/oseg/ont/otrl#goal</title>
<ellipse fill="none" stroke="#e377c2" cx="1412.36" cy="-843.26" rx="54.39" ry="16.03"/>
<text text-anchor="middle" x="1412.36" y="-839.56" font-family="Times,serif" font-size="14.00">otrl:goal</text>
</g>
<!-- https://w3id.org/oseg/ont/otrl#goal&#45;&gt;http://www.w3.org/2002/07/owl#DatatypeProperty -->
<g id="edge22" class="edge">
<title>https://w3id.org/oseg/ont/otrl#goal&#45;&gt;http://www.w3.org/2002/07/owl#DatatypeProperty</title>
<path fill="none" stroke="black" d="M1461.91,-850.14C1503.9,-856.07 1566.22,-864.83 1620.57,-872.26 1696.98,-882.72 1724.79,-858.45 1792.57,-895.26 1803.37,-901.13 1801.67,-907.78 1810.57,-916.26 1839.19,-943.57 1875.29,-970.91 1900.78,-989.21"/>
<polygon fill="black" stroke="black" points="1898.82,-992.1 1908.99,-995.05 1902.88,-986.4 1898.82,-992.1"/>
<text text-anchor="middle" x="1706.57" y="-899.06" font-family="Times,serif" font-size="14.00">a</text>
</g>
<!-- https://w3id.org/oseg/ont/otrl#goal&#45;&gt;https://w3id.org/oseg/ont/otrl#ODRL -->
<g id="edge42" class="edge">
<title>https://w3id.org/oseg/ont/otrl#goal&#45;&gt;https://w3id.org/oseg/ont/otrl#ODRL</title>
<path fill="none" stroke="black" d="M1464.9,-838.6C1561.65,-829.59 1763.34,-809.53 1792.57,-796.26 1843.61,-773.1 1889.29,-724.62 1913.76,-695.31"/>
<polygon fill="black" stroke="black" points="1916.75,-697.19 1920.37,-687.24 1911.33,-692.76 1916.75,-697.19"/>
<text text-anchor="middle" x="1706.57" y="-827.06" font-family="Times,serif" font-size="14.00">schema:domainIncludes</text>
</g>
<!-- https://w3id.org/oseg/ont/otrl#goal&#45;&gt;https://w3id.org/oseg/ont/otrl#OTRL -->
<g id="edge51" class="edge">
<title>https://w3id.org/oseg/ont/otrl#goal&#45;&gt;https://w3id.org/oseg/ont/otrl#OTRL</title>
<path fill="none" stroke="black" d="M1467.01,-843.45C1507.45,-841.14 1562.58,-832.55 1602.57,-805.26 1614.79,-796.92 1607.99,-785.06 1620.57,-777.26 1653.25,-757.01 1764.71,-784.78 1792.57,-758.26 1810.83,-740.88 1803.96,-670.59 1810.57,-646.26 1840.57,-535.7 1896.11,-410.5 1920.54,-357.79"/>
<polygon fill="black" stroke="black" points="1923.8,-359.07 1924.86,-348.53 1917.46,-356.11 1923.8,-359.07"/>
<text text-anchor="middle" x="1706.57" y="-781.06" font-family="Times,serif" font-size="14.00">schema:domainIncludes</text>
</g>
<!-- https://w3id.org/oseg/ont/otrl#goal&#45;&gt;http://schema.org/Text -->
<g id="edge5" class="edge">
<title>https://w3id.org/oseg/ont/otrl#goal&#45;&gt;http://schema.org/Text</title>
<path fill="none" stroke="black" d="M1466.72,-841.87C1540.39,-840.7 1677.22,-841.3 1792.57,-857.26 1821.34,-861.25 1852.81,-868.61 1878.62,-875.47"/>
<polygon fill="black" stroke="black" points="1878.01,-878.93 1888.58,-878.16 1879.84,-872.17 1878.01,-878.93"/>
<text text-anchor="middle" x="1706.57" y="-861.06" font-family="Times,serif" font-size="14.00">range</text>
</g>
<!-- https://w3id.org/oseg/ont/otrl#Odrl4 -->
<g id="node21" class="node">
<title>https://w3id.org/oseg/ont/otrl#Odrl4</title>
<ellipse fill="none" stroke="#e377c2" cx="807.65" cy="-766.26" rx="61.54" ry="16.03"/>
<text text-anchor="middle" x="807.65" y="-762.56" font-family="Times,serif" font-size="14.00">otrl:Odrl4</text>
</g>
<!-- https://w3id.org/oseg/ont/otrl#Odrl4&#45;&gt;https://w3id.org/oseg/ont/otrl#ODRL4 -->
<g id="edge26" class="edge">
<title>https://w3id.org/oseg/ont/otrl#Odrl4&#45;&gt;https://w3id.org/oseg/ont/otrl#ODRL4</title>
<path fill="none" stroke="black" d="M851.39,-777.73C926.23,-795.52 1084.39,-822.87 1204.14,-773.26 1214.6,-768.93 1212.01,-760.3 1222.14,-755.26 1256.06,-738.42 1297.38,-731.43 1332.75,-728.85"/>
<polygon fill="black" stroke="black" points="1333.27,-732.33 1343.03,-728.21 1332.83,-725.34 1333.27,-732.33"/>
<text text-anchor="middle" x="1124.14" y="-806.06" font-family="Times,serif" font-size="14.00">owl:sameAs</text>
</g>
<!-- https://w3id.org/oseg/ont/otrl#Odrl4&#45;&gt;https://w3id.org/oseg/ont/otrl#ODRL4 -->
<g id="edge45" class="edge">
<title>https://w3id.org/oseg/ont/otrl#Odrl4&#45;&gt;https://w3id.org/oseg/ont/otrl#ODRL4</title>
<path fill="none" stroke="black" d="M867.81,-762.63C977.72,-755.88 1213.28,-741.42 1335.02,-733.95"/>
<polygon fill="black" stroke="black" points="1335.24,-737.44 1345.01,-733.34 1334.81,-730.46 1335.24,-737.44"/>
<text text-anchor="middle" x="1124.14" y="-755.06" font-family="Times,serif" font-size="14.00">schema:supersededBy</text>
</g>
<!-- https://w3id.org/oseg/ont/1.1.0/otrl -->
<g id="node22" class="node">
<title>https://w3id.org/oseg/ont/1.1.0/otrl</title>
<ellipse fill="none" stroke="#e377c2" cx="807.65" cy="-982.26" rx="50.82" ry="16.03"/>
<text text-anchor="middle" x="807.65" y="-978.56" font-family="Times,serif" font-size="14.00">ns2:otrl</text>
</g>
<!-- https://w3id.org/oseg/ont/otrl -->
<g id="node23" class="node">
<title>https://w3id.org/oseg/ont/otrl</title>
<ellipse fill="none" stroke="#e377c2" cx="196.58" cy="-1001.26" rx="50.82" ry="16.03"/>
<text text-anchor="middle" x="196.58" y="-997.56" font-family="Times,serif" font-size="14.00">ns3:otrl</text>
</g>
<!-- https://w3id.org/oseg/ont/otrl&#45;&gt;http://spdx.org/rdf/terms#File -->
<g id="edge32" class="edge">
<title>https://w3id.org/oseg/ont/otrl&#45;&gt;http://spdx.org/rdf/terms#File</title>
<path fill="none" stroke="black" d="M212.99,-1016.73C245.95,-1048.68 327.13,-1121.54 411.15,-1152.26 520.08,-1192.1 656.72,-1194.25 737.56,-1191.05"/>
<polygon fill="black" stroke="black" points="737.78,-1194.55 747.62,-1190.61 737.47,-1187.55 737.78,-1194.55"/>
<text text-anchor="middle" x="491.15" y="-1190.06" font-family="Times,serif" font-size="14.00">a</text>
</g>
<!-- https://w3id.org/oseg/ont/otrl&#45;&gt;http://www.w3.org/2002/07/owl#Ontology -->
<g id="edge43" class="edge">
<title>https://w3id.org/oseg/ont/otrl&#45;&gt;http://www.w3.org/2002/07/owl#Ontology</title>
<path fill="none" stroke="black" d="M219.45,-1015.94C256.86,-1040.17 336.33,-1087.85 411.15,-1108.26 515.26,-1136.66 640.2,-1140.4 721.4,-1139.04"/>
<polygon fill="black" stroke="black" points="721.65,-1142.53 731.58,-1138.83 721.51,-1135.53 721.65,-1142.53"/>
<text text-anchor="middle" x="491.15" y="-1137.06" font-family="Times,serif" font-size="14.00">a</text>
</g>
<!-- https://w3id.org/oseg/ont/otrl&#45;&gt;https://w3id.org/oseg/ont/oseg&#45;profiles#martinHaeuer -->
<g id="edge3" class="edge">
<title>https://w3id.org/oseg/ont/otrl&#45;&gt;https://w3id.org/oseg/ont/oseg&#45;profiles#martinHaeuer</title>
<path fill="none" stroke="black" d="M226.88,-1014.48C267.35,-1031.99 343.07,-1062.06 411.15,-1074.26 503.54,-1090.82 609.99,-1092.55 689.16,-1090.56"/>
<polygon fill="black" stroke="black" points="689.27,-1094.06 699.17,-1090.29 689.08,-1087.07 689.27,-1094.06"/>
<text text-anchor="middle" x="491.15" y="-1093.06" font-family="Times,serif" font-size="14.00">dcterms:creator</text>
</g>
<!-- https://w3id.org/oseg/ont/otrl&#45;&gt;https://w3id.org/oseg/ont/oseg&#45;profiles#martinHaeuer -->
<g id="edge53" class="edge">
<title>https://w3id.org/oseg/ont/otrl&#45;&gt;https://w3id.org/oseg/ont/oseg&#45;profiles#martinHaeuer</title>
<path fill="none" stroke="black" d="M241.67,-1009.07C284.79,-1016.57 352.37,-1027.96 411.15,-1036.26 482.06,-1046.28 500.26,-1045.15 571.15,-1055.26 579.18,-1056.41 581.12,-1057.12 589.15,-1058.26 626.92,-1063.66 668.48,-1068.83 705.07,-1073.1"/>
<polygon fill="black" stroke="black" points="704.92,-1076.61 715.25,-1074.29 705.72,-1069.66 704.92,-1076.61"/>
<text text-anchor="middle" x="491.15" y="-1059.06" font-family="Times,serif" font-size="14.00">schema:creator</text>
</g>
<!-- https://w3id.org/oseg/ont/otrl&#45;&gt;http://id.loc.gov/vocabulary/iso639&#45;1/en -->
<g id="edge14" class="edge">
<title>https://w3id.org/oseg/ont/otrl&#45;&gt;http://id.loc.gov/vocabulary/iso639&#45;1/en</title>
<path fill="none" stroke="black" d="M246.9,-1003.86C359.61,-1009.78 635.31,-1024.26 752.51,-1030.42"/>
<polygon fill="black" stroke="black" points="752.51,-1033.92 762.68,-1030.95 752.88,-1026.93 752.51,-1033.92"/>
<text text-anchor="middle" x="491.15" y="-1023.06" font-family="Times,serif" font-size="14.00">dcterms:language</text>
</g>
<!-- https://w3id.org/oseg/ont/otrl&#45;&gt;https://w3id.org/oseg/ont/1.1.0/otrl -->
<g id="edge31" class="edge">
<title>https://w3id.org/oseg/ont/otrl&#45;&gt;https://w3id.org/oseg/ont/1.1.0/otrl</title>
<path fill="none" stroke="black" d="M245.01,-996.15C288.24,-991.75 353.9,-985.74 411.15,-983.26 529.98,-978.11 669.08,-979.48 746.61,-980.89"/>
<polygon fill="black" stroke="black" points="746.61,-984.39 756.67,-981.09 746.74,-977.4 746.61,-984.39"/>
<text text-anchor="middle" x="491.15" y="-987.06" font-family="Times,serif" font-size="14.00">owl:versionIRI</text>
</g>
<!-- https://w3id.org/oseg/ont/oseg&#45;profiles#Iopa -->
<g id="node24" class="node">
<title>https://w3id.org/oseg/ont/oseg&#45;profiles#Iopa</title>
<ellipse fill="none" stroke="#e377c2" cx="807.65" cy="-931.26" rx="80.72" ry="16.03"/>
<text text-anchor="middle" x="807.65" y="-927.56" font-family="Times,serif" font-size="14.00">osegprof:Iopa</text>
</g>
<!-- https://w3id.org/oseg/ont/otrl&#45;&gt;https://w3id.org/oseg/ont/oseg&#45;profiles#Iopa -->
<g id="edge33" class="edge">
<title>https://w3id.org/oseg/ont/otrl&#45;&gt;https://w3id.org/oseg/ont/oseg&#45;profiles#Iopa</title>
<path fill="none" stroke="black" d="M238.69,-991.89C281.52,-982.48 350.7,-968.25 411.15,-960.26 516.2,-946.38 637.9,-938.71 718.25,-934.8"/>
<polygon fill="black" stroke="black" points="718.51,-938.29 728.33,-934.31 718.17,-931.3 718.51,-938.29"/>
<text text-anchor="middle" x="491.15" y="-964.06" font-family="Times,serif" font-size="14.00">dcterms:publisher</text>
</g>
<!-- https://w3id.org/oseg/ont/oseg&#45;profiles#robinVobruba -->
<g id="node26" class="node">
<title>https://w3id.org/oseg/ont/oseg&#45;profiles#robinVobruba</title>
<ellipse fill="none" stroke="#e377c2" cx="807.65" cy="-880.26" rx="113.69" ry="16.03"/>
<text text-anchor="middle" x="807.65" y="-876.56" font-family="Times,serif" font-size="14.00">osegprof:robinVob...</text>
</g>
<!-- https://w3id.org/oseg/ont/otrl&#45;&gt;https://w3id.org/oseg/ont/oseg&#45;profiles#robinVobruba -->
<g id="edge50" class="edge">
<title>https://w3id.org/oseg/ont/otrl&#45;&gt;https://w3id.org/oseg/ont/oseg&#45;profiles#robinVobruba</title>
<path fill="none" stroke="black" d="M227.34,-988.22C268.03,-970.95 343.67,-940.89 411.15,-925.26 503.64,-903.84 610.75,-892.45 690.16,-886.5"/>
<polygon fill="black" stroke="black" points="690.48,-889.98 700.19,-885.76 689.97,-883 690.48,-889.98"/>
<text text-anchor="middle" x="491.15" y="-929.06" font-family="Times,serif" font-size="14.00">dcterms:creator</text>
</g>
<!-- https://w3id.org/oseg/ont/otrl&#45;&gt;https://w3id.org/oseg/ont/oseg&#45;profiles#robinVobruba -->
<g id="edge55" class="edge">
<title>https://w3id.org/oseg/ont/otrl&#45;&gt;https://w3id.org/oseg/ont/oseg&#45;profiles#robinVobruba</title>
<path fill="none" stroke="black" d="M216.39,-986.05C251.87,-958.45 332.24,-901.06 411.15,-880.26 513.66,-853.24 636.38,-858.81 717.65,-867.49"/>
<polygon fill="black" stroke="black" points="717.52,-871 727.84,-868.62 718.29,-864.04 717.52,-871"/>
<text text-anchor="middle" x="491.15" y="-884.06" font-family="Times,serif" font-size="14.00">schema:creator</text>
</g>
<!-- https://spdx.org/licenses/GPL&#45;3.0&#45;or&#45;later -->
<g id="node27" class="node">
<title>https://spdx.org/licenses/GPL&#45;3.0&#45;or&#45;later</title>
<ellipse fill="none" stroke="#e377c2" cx="807.65" cy="-829.26" rx="108.79" ry="16.03"/>
<text text-anchor="middle" x="807.65" y="-825.56" font-family="Times,serif" font-size="14.00">spdxl:GPL&#45;3.0&#45;or&#45;...</text>
</g>
<!-- https://w3id.org/oseg/ont/otrl&#45;&gt;https://spdx.org/licenses/GPL&#45;3.0&#45;or&#45;later -->
<g id="edge52" class="edge">
<title>https://w3id.org/oseg/ont/otrl&#45;&gt;https://spdx.org/licenses/GPL&#45;3.0&#45;or&#45;later</title>
<path fill="none" stroke="black" d="M211.71,-985.64C243.43,-951.86 324.32,-872.63 411.15,-842.26 511.53,-807.16 635.12,-809.76 717.15,-817.29"/>
<polygon fill="black" stroke="black" points="716.9,-820.79 727.19,-818.26 717.57,-813.82 716.9,-820.79"/>
<text text-anchor="middle" x="491.15" y="-846.06" font-family="Times,serif" font-size="14.00">spdxt:licenseDeclared</text>
</g>
<!-- https://w3id.org/oseg/ont/otrl#exitCriteria -->
<g id="node25" class="node">
<title>https://w3id.org/oseg/ont/otrl#exitCriteria</title>
<ellipse fill="none" stroke="#e377c2" cx="1412.36" cy="-989.26" rx="91.43" ry="16.03"/>
<text text-anchor="middle" x="1412.36" y="-985.56" font-family="Times,serif" font-size="14.00">otrl:exitCriteria</text>
</g>
<!-- https://w3id.org/oseg/ont/otrl#exitCriteria&#45;&gt;http://www.w3.org/2002/07/owl#DatatypeProperty -->
<g id="edge47" class="edge">
<title>https://w3id.org/oseg/ont/otrl#exitCriteria&#45;&gt;http://www.w3.org/2002/07/owl#DatatypeProperty</title>
<path fill="none" stroke="black" d="M1471.53,-1001.77C1512.88,-1010 1569.85,-1020.01 1620.57,-1024.26 1696.74,-1030.65 1716.2,-1027.8 1792.57,-1024.26 1803.6,-1023.75 1815.11,-1023.02 1826.58,-1022.15"/>
<polygon fill="black" stroke="black" points="1826.95,-1025.63 1836.64,-1021.36 1826.4,-1018.65 1826.95,-1025.63"/>
<text text-anchor="middle" x="1706.57" y="-1031.06" font-family="Times,serif" font-size="14.00">a</text>
</g>
<!-- https://w3id.org/oseg/ont/otrl#exitCriteria&#45;&gt;https://w3id.org/oseg/ont/otrl#ODRL -->
<g id="edge4" class="edge">
<title>https://w3id.org/oseg/ont/otrl#exitCriteria&#45;&gt;https://w3id.org/oseg/ont/otrl#ODRL</title>
<path fill="none" stroke="black" d="M1491.29,-980.98C1602.07,-969.18 1791.87,-948.89 1792.57,-948.26 1820.34,-923.35 1796.46,-900.81 1810.57,-866.26 1837.57,-800.14 1886.4,-731.23 1913.39,-695.71"/>
<polygon fill="black" stroke="black" points="1916.44,-697.48 1919.75,-687.41 1910.89,-693.22 1916.44,-697.48"/>
<text text-anchor="middle" x="1706.57" y="-970.06" font-family="Times,serif" font-size="14.00">schema:domainIncludes</text>
</g>
<!-- https://w3id.org/oseg/ont/otrl#exitCriteria&#45;&gt;https://w3id.org/oseg/ont/otrl#OTRL -->
<g id="edge13" class="edge">
<title>https://w3id.org/oseg/ont/otrl#exitCriteria&#45;&gt;https://w3id.org/oseg/ont/otrl#OTRL</title>
<path fill="none" stroke="black" d="M1455.29,-974.81C1496.78,-961.07 1562.34,-940.82 1620.57,-929.26 1658.29,-921.78 1765.95,-938.02 1792.57,-910.26 1812.92,-889.04 1804.17,-674.96 1810.57,-646.26 1835.5,-534.45 1893.72,-409.91 1919.7,-357.58"/>
<polygon fill="black" stroke="black" points="1922.95,-358.9 1924.3,-348.39 1916.69,-355.77 1922.95,-358.9"/>
<text text-anchor="middle" x="1706.57" y="-933.06" font-family="Times,serif" font-size="14.00">schema:domainIncludes</text>
</g>
<!-- https://w3id.org/oseg/ont/otrl#exitCriteria&#45;&gt;http://schema.org/Text -->
<g id="edge29" class="edge">
<title>https://w3id.org/oseg/ont/otrl#exitCriteria&#45;&gt;http://schema.org/Text</title>
<path fill="none" stroke="black" d="M1499.11,-994.32C1593.83,-998.89 1739.92,-1002.66 1792.57,-986.26 1838.32,-972.01 1882.63,-937.35 1908.75,-914.07"/>
<polygon fill="black" stroke="black" points="1911.21,-916.57 1916.25,-907.25 1906.5,-911.39 1911.21,-916.57"/>
<text text-anchor="middle" x="1706.57" y="-1001.06" font-family="Times,serif" font-size="14.00">range</text>
</g>
<!-- https://w3id.org/oseg/ont/otrl#Odrl3 -->
<g id="node28" class="node">
<title>https://w3id.org/oseg/ont/otrl#Odrl3</title>
<ellipse fill="none" stroke="black" cx="807.65" cy="-479.26" rx="196.65" ry="16.03"/>
<text text-anchor="middle" x="807.65" y="-475.56" font-family="Times,serif" font-size="14.00">https://w3id.org/oseg/ont/otrl#Odrl3</text>
</g>
<!-- https://w3id.org/oseg/ont/otrl#Odrl3&#45;&gt;https://w3id.org/oseg/ont/otrl#ODRL3 -->
<g id="edge1" class="edge">
<title>https://w3id.org/oseg/ont/otrl#Odrl3&#45;&gt;https://w3id.org/oseg/ont/otrl#ODRL3</title>
<path fill="none" stroke="black" d="M998.93,-483.05C1111.81,-485.3 1248.85,-488.03 1333.07,-489.7"/>
<polygon fill="black" stroke="black" points="1333,-493.2 1343.07,-489.9 1333.14,-486.21 1333,-493.2"/>
<text text-anchor="middle" x="1124.14" y="-491.06" font-family="Times,serif" font-size="14.00">owl:sameAs</text>
</g>
<!-- https://w3id.org/oseg/ont/otrl#Odrl3&#45;&gt;https://w3id.org/oseg/ont/otrl#ODRL3 -->
<g id="edge16" class="edge">
<title>https://w3id.org/oseg/ont/otrl#Odrl3&#45;&gt;https://w3id.org/oseg/ont/otrl#ODRL3</title>
<path fill="none" stroke="black" d="M946.93,-467.75C1022.9,-463.09 1118.77,-459.93 1204.14,-465.26 1251.18,-468.2 1303.87,-474.86 1344.35,-480.7"/>
<polygon fill="black" stroke="black" points="1343.97,-484.18 1354.37,-482.17 1344.98,-477.26 1343.97,-484.18"/>
<text text-anchor="middle" x="1124.14" y="-469.06" font-family="Times,serif" font-size="14.00">schema:supersededBy</text>
</g>
<!-- https://w3id.org/oseg/ont/otrl#Otrl3 -->
<g id="node29" class="node">
<title>https://w3id.org/oseg/ont/otrl#Otrl3</title>
<ellipse fill="none" stroke="black" cx="807.65" cy="-99.26" rx="194.41" ry="16.03"/>
<text text-anchor="middle" x="807.65" y="-95.56" font-family="Times,serif" font-size="14.00">https://w3id.org/oseg/ont/otrl#Otrl3</text>
</g>
<!-- https://w3id.org/oseg/ont/otrl#Otrl3&#45;&gt;https://w3id.org/oseg/ont/otrl#OTRL3 -->
<g id="edge7" class="edge">
<title>https://w3id.org/oseg/ont/otrl#Otrl3&#45;&gt;https://w3id.org/oseg/ont/otrl#OTRL3</title>
<path fill="none" stroke="black" d="M997.28,-103.02C1111.43,-105.29 1250.78,-108.07 1335.22,-109.75"/>
<polygon fill="black" stroke="black" points="1335.17,-113.25 1345.23,-109.95 1335.31,-106.25 1335.17,-113.25"/>
<text text-anchor="middle" x="1124.14" y="-111.06" font-family="Times,serif" font-size="14.00">schema:supersededBy</text>
</g>
<!-- https://w3id.org/oseg/ont/otrl#Otrl3&#45;&gt;https://w3id.org/oseg/ont/otrl#OTRL3 -->
<g id="edge38" class="edge">
<title>https://w3id.org/oseg/ont/otrl#Otrl3&#45;&gt;https://w3id.org/oseg/ont/otrl#OTRL3</title>
<path fill="none" stroke="black" d="M946.01,-87.81C1022.13,-83.12 1118.43,-79.91 1204.14,-85.26 1251.68,-88.23 1304.99,-95 1345.64,-100.89"/>
<polygon fill="black" stroke="black" points="1345.28,-104.37 1355.69,-102.36 1346.3,-97.45 1345.28,-104.37"/>
<text text-anchor="middle" x="1124.14" y="-89.06" font-family="Times,serif" font-size="14.00">owl:sameAs</text>
</g>
<!-- https://w3id.org/oseg/ont/otrl#Odrl -->
<g id="node30" class="node">
<title>https://w3id.org/oseg/ont/otrl#Odrl</title>
<ellipse fill="none" stroke="black" cx="1412.36" cy="-780.26" rx="190.42" ry="16.03"/>
<text text-anchor="middle" x="1412.36" y="-776.56" font-family="Times,serif" font-size="14.00">https://w3id.org/oseg/ont/otrl#Odrl</text>
</g>
<!-- https://w3id.org/oseg/ont/otrl#Odrl&#45;&gt;https://w3id.org/oseg/ont/otrl#ODRL -->
<g id="edge8" class="edge">
<title>https://w3id.org/oseg/ont/otrl#Odrl&#45;&gt;https://w3id.org/oseg/ont/otrl#ODRL</title>
<path fill="none" stroke="black" d="M1573.63,-771.46C1584,-766.98 1593.78,-761.33 1602.57,-754.26 1620.64,-739.72 1602.29,-719.55 1620.57,-705.26 1630.02,-697.87 1774.3,-684.55 1863.32,-676.96"/>
<polygon fill="black" stroke="black" points="1863.68,-680.44 1873.35,-676.11 1863.09,-673.47 1863.68,-680.44"/>
<text text-anchor="middle" x="1706.57" y="-709.06" font-family="Times,serif" font-size="14.00">owl:sameAs</text>
</g>
<!-- https://w3id.org/oseg/ont/otrl#Odrl&#45;&gt;https://w3id.org/oseg/ont/otrl#ODRL -->
<g id="edge40" class="edge">
<title>https://w3id.org/oseg/ont/otrl#Odrl&#45;&gt;https://w3id.org/oseg/ont/otrl#ODRL</title>
<path fill="none" stroke="black" d="M1547.59,-768.82C1566.35,-765.21 1585.16,-760.47 1602.57,-754.26 1611.4,-751.11 1611.73,-746.4 1620.57,-743.26 1693.26,-717.49 1717.56,-738.2 1792.57,-720.26 1825.92,-712.29 1862.46,-699.35 1889.85,-688.77"/>
<polygon fill="black" stroke="black" points="1891.47,-691.9 1899.51,-685 1888.92,-685.38 1891.47,-691.9"/>
<text text-anchor="middle" x="1706.57" y="-747.06" font-family="Times,serif" font-size="14.00">schema:supersededBy</text>
</g>
<!-- https://w3id.org/oseg/ont/otrl#Otrl -->
<g id="node31" class="node">
<title>https://w3id.org/oseg/ont/otrl#Otrl</title>
<ellipse fill="none" stroke="black" cx="1412.36" cy="-422.26" rx="188.18" ry="16.03"/>
<text text-anchor="middle" x="1412.36" y="-418.56" font-family="Times,serif" font-size="14.00">https://w3id.org/oseg/ont/otrl#Otrl</text>
</g>
<!-- https://w3id.org/oseg/ont/otrl#Otrl&#45;&gt;https://w3id.org/oseg/ont/otrl#OTRL -->
<g id="edge9" class="edge">
<title>https://w3id.org/oseg/ont/otrl#Otrl&#45;&gt;https://w3id.org/oseg/ont/otrl#OTRL</title>
<path fill="none" stroke="black" d="M1597.37,-425.29C1660.12,-422.6 1730.15,-415.43 1792.57,-399.26 1831.24,-389.25 1872.08,-368.36 1899.61,-352.56"/>
<polygon fill="black" stroke="black" points="1901.55,-355.48 1908.42,-347.42 1898.02,-349.44 1901.55,-355.48"/>
<text text-anchor="middle" x="1706.57" y="-428.06" font-family="Times,serif" font-size="14.00">schema:supersededBy</text>
</g>
<!-- https://w3id.org/oseg/ont/otrl#Otrl&#45;&gt;https://w3id.org/oseg/ont/otrl#OTRL -->
<g id="edge54" class="edge">
<title>https://w3id.org/oseg/ont/otrl#Otrl&#45;&gt;https://w3id.org/oseg/ont/otrl#OTRL</title>
<path fill="none" stroke="black" d="M1556.97,-411.73C1572.75,-407.89 1588.26,-402.85 1602.57,-396.26 1612.29,-391.79 1610.8,-384.64 1620.57,-380.26 1690.8,-348.8 1716.55,-372.26 1792.57,-360.26 1820.24,-355.9 1850.77,-349.93 1876.24,-344.62"/>
<polygon fill="black" stroke="black" points="1877.03,-348.03 1886.1,-342.55 1875.59,-341.18 1877.03,-348.03"/>
<text text-anchor="middle" x="1706.57" y="-384.06" font-family="Times,serif" font-size="14.00">owl:sameAs</text>
</g>
<!-- https://w3id.org/oseg/ont/otrl#Otrl4 -->
<g id="node32" class="node">
<title>https://w3id.org/oseg/ont/otrl#Otrl4</title>
<ellipse fill="none" stroke="black" cx="807.65" cy="-327.26" rx="194.41" ry="16.03"/>
<text text-anchor="middle" x="807.65" y="-323.56" font-family="Times,serif" font-size="14.00">https://w3id.org/oseg/ont/otrl#Otrl4</text>
</g>
<!-- https://w3id.org/oseg/ont/otrl#Otrl4&#45;&gt;https://w3id.org/oseg/ont/otrl#OTRL4 -->
<g id="edge10" class="edge">
<title>https://w3id.org/oseg/ont/otrl#Otrl4&#45;&gt;https://w3id.org/oseg/ont/otrl#OTRL4</title>
<path fill="none" stroke="black" d="M1000.59,-325.03C1113.89,-323.72 1251.06,-322.13 1334.73,-321.15"/>
<polygon fill="black" stroke="black" points="1334.95,-324.65 1344.91,-321.04 1334.87,-317.65 1334.95,-324.65"/>
<text text-anchor="middle" x="1124.14" y="-329.06" font-family="Times,serif" font-size="14.00">owl:sameAs</text>
</g>
<!-- https://w3id.org/oseg/ont/otrl#Otrl4&#45;&gt;https://w3id.org/oseg/ont/otrl#OTRL4 -->
<g id="edge28" class="edge">
<title>https://w3id.org/oseg/ont/otrl#Otrl4&#45;&gt;https://w3id.org/oseg/ont/otrl#OTRL4</title>
<path fill="none" stroke="black" d="M921.08,-314.03C960,-310.05 1003.93,-306.22 1044.14,-304.26 1115.17,-300.8 1133.09,-301.52 1204.14,-304.26 1249.25,-306 1299.76,-309.86 1339.62,-313.36"/>
<polygon fill="black" stroke="black" points="1339.5,-316.86 1349.77,-314.26 1340.12,-309.89 1339.5,-316.86"/>
<text text-anchor="middle" x="1124.14" y="-308.06" font-family="Times,serif" font-size="14.00">schema:supersededBy</text>
</g>
<!-- https://w3id.org/oseg/ont/otrl#Odrl3Star -->
<g id="node33" class="node">
<title>https://w3id.org/oseg/ont/otrl#Odrl3Star</title>
<ellipse fill="none" stroke="black" cx="807.65" cy="-555.26" rx="218.49" ry="16.03"/>
<text text-anchor="middle" x="807.65" y="-551.56" font-family="Times,serif" font-size="14.00">https://w3id.org/oseg/ont/otrl#Odrl3Star</text>
</g>
<!-- https://w3id.org/oseg/ont/otrl#Odrl3Star&#45;&gt;https://w3id.org/oseg/ont/otrl#ODRL3Star -->
<g id="edge12" class="edge">
<title>https://w3id.org/oseg/ont/otrl#Odrl3Star&#45;&gt;https://w3id.org/oseg/ont/otrl#ODRL3Star</title>
<path fill="none" stroke="black" d="M1019.02,-559.45C1118.31,-561.43 1232.14,-563.7 1311.52,-565.28"/>
<polygon fill="black" stroke="black" points="1311.94,-568.78 1322,-565.48 1312.08,-561.79 1311.94,-568.78"/>
<text text-anchor="middle" x="1124.14" y="-567.06" font-family="Times,serif" font-size="14.00">schema:supersededBy</text>
</g>
<!-- https://w3id.org/oseg/ont/otrl#Odrl3Star&#45;&gt;https://w3id.org/oseg/ont/otrl#ODRL3Star -->
<g id="edge57" class="edge">
<title>https://w3id.org/oseg/ont/otrl#Odrl3Star&#45;&gt;https://w3id.org/oseg/ont/otrl#ODRL3Star</title>
<path fill="none" stroke="black" d="M955.24,-543.25C1029.81,-538.88 1121.86,-536.12 1204.14,-541.26 1246.99,-543.94 1294.54,-549.71 1333.27,-555.13"/>
<polygon fill="black" stroke="black" points="1333.04,-558.63 1343.43,-556.57 1334.02,-551.7 1333.04,-558.63"/>
<text text-anchor="middle" x="1124.14" y="-545.06" font-family="Times,serif" font-size="14.00">owl:sameAs</text>
</g>
<!-- https://w3id.org/oseg/ont/otrl#Odrl2 -->
<g id="node34" class="node">
<title>https://w3id.org/oseg/ont/otrl#Odrl2</title>
<ellipse fill="none" stroke="black" cx="807.65" cy="-631.26" rx="196.65" ry="16.03"/>
<text text-anchor="middle" x="807.65" y="-627.56" font-family="Times,serif" font-size="14.00">https://w3id.org/oseg/ont/otrl#Odrl2</text>
</g>
<!-- https://w3id.org/oseg/ont/otrl#Odrl2&#45;&gt;https://w3id.org/oseg/ont/otrl#ODRL2 -->
<g id="edge15" class="edge">
<title>https://w3id.org/oseg/ont/otrl#Odrl2&#45;&gt;https://w3id.org/oseg/ont/otrl#ODRL2</title>
<path fill="none" stroke="black" d="M1000.59,-628.08C1113.06,-626.21 1249.06,-623.96 1332.89,-622.57"/>
<polygon fill="black" stroke="black" points="1333.16,-626.06 1343.1,-622.4 1333.04,-619.06 1333.16,-626.06"/>
<text text-anchor="middle" x="1124.14" y="-631.06" font-family="Times,serif" font-size="14.00">owl:sameAs</text>
</g>
<!-- https://w3id.org/oseg/ont/otrl#Odrl2&#45;&gt;https://w3id.org/oseg/ont/otrl#ODRL2 -->
<g id="edge35" class="edge">
<title>https://w3id.org/oseg/ont/otrl#Odrl2&#45;&gt;https://w3id.org/oseg/ont/otrl#ODRL2</title>
<path fill="none" stroke="black" d="M914.55,-617.61C955.02,-613.03 1001.65,-608.51 1044.14,-606.26 1115.16,-602.5 1133.08,-603.69 1204.14,-606.26 1248.41,-607.86 1297.89,-611.38 1337.4,-614.61"/>
<polygon fill="black" stroke="black" points="1337.22,-618.1 1347.48,-615.44 1337.8,-611.13 1337.22,-618.1"/>
<text text-anchor="middle" x="1124.14" y="-610.06" font-family="Times,serif" font-size="14.00">schema:supersededBy</text>
</g>
<!-- https://w3id.org/oseg/ont/otrl#Odrl1 -->
<g id="node35" class="node">
<title>https://w3id.org/oseg/ont/otrl#Odrl1</title>
<ellipse fill="none" stroke="black" cx="807.65" cy="-709.26" rx="196.65" ry="16.03"/>
<text text-anchor="middle" x="807.65" y="-705.56" font-family="Times,serif" font-size="14.00">https://w3id.org/oseg/ont/otrl#Odrl1</text>
</g>
<!-- https://w3id.org/oseg/ont/otrl#Odrl1&#45;&gt;https://w3id.org/oseg/ont/otrl#ODRL1 -->
<g id="edge18" class="edge">
<title>https://w3id.org/oseg/ont/otrl#Odrl1&#45;&gt;https://w3id.org/oseg/ont/otrl#ODRL1</title>
<path fill="none" stroke="black" d="M999.86,-705.82C1064.74,-704.02 1137.63,-701.32 1204.14,-697.26 1248.92,-694.53 1299.02,-689.98 1338.74,-686.02"/>
<polygon fill="black" stroke="black" points="1339.27,-689.48 1348.86,-685 1338.56,-682.52 1339.27,-689.48"/>
<text text-anchor="middle" x="1124.14" y="-708.06" font-family="Times,serif" font-size="14.00">owl:sameAs</text>
</g>
<!-- https://w3id.org/oseg/ont/otrl#Odrl1&#45;&gt;https://w3id.org/oseg/ont/otrl#ODRL1 -->
<g id="edge36" class="edge">
<title>https://w3id.org/oseg/ont/otrl#Odrl1&#45;&gt;https://w3id.org/oseg/ont/otrl#ODRL1</title>
<path fill="none" stroke="black" d="M897.56,-694.77C941.53,-688.31 995.48,-681.45 1044.14,-678.26 1143.94,-671.72 1259.32,-673.2 1333.71,-675.32"/>
<polygon fill="black" stroke="black" points="1333.83,-678.83 1343.93,-675.62 1334.03,-671.83 1333.83,-678.83"/>
<text text-anchor="middle" x="1124.14" y="-682.06" font-family="Times,serif" font-size="14.00">schema:supersededBy</text>
</g>
<!-- https://w3id.org/oseg/ont/otrl#Otrl6 -->
<g id="node36" class="node">
<title>https://w3id.org/oseg/ont/otrl#Otrl6</title>
<ellipse fill="none" stroke="black" cx="807.65" cy="-16.26" rx="194.41" ry="16.03"/>
<text text-anchor="middle" x="807.65" y="-12.56" font-family="Times,serif" font-size="14.00">https://w3id.org/oseg/ont/otrl#Otrl6</text>
</g>
<!-- https://w3id.org/oseg/ont/otrl#Otrl6&#45;&gt;https://w3id.org/oseg/ont/otrl#OTRL6 -->
<g id="edge19" class="edge">
<title>https://w3id.org/oseg/ont/otrl#Otrl6&#45;&gt;https://w3id.org/oseg/ont/otrl#OTRL6</title>
<path fill="none" stroke="black" d="M989.89,-21.98C1105.32,-25.62 1248.86,-30.14 1335.13,-32.86"/>
<polygon fill="black" stroke="black" points="1335.26,-36.37 1345.37,-33.18 1335.48,-29.37 1335.26,-36.37"/>
<text text-anchor="middle" x="1124.14" y="-33.06" font-family="Times,serif" font-size="14.00">owl:sameAs</text>
</g>
<!-- https://w3id.org/oseg/ont/otrl#Otrl6&#45;&gt;https://w3id.org/oseg/ont/otrl#OTRL6 -->
<g id="edge39" class="edge">
<title>https://w3id.org/oseg/ont/otrl#Otrl6&#45;&gt;https://w3id.org/oseg/ont/otrl#OTRL6</title>
<path fill="none" stroke="black" d="M952.51,-5.38C1027.59,-1.44 1120.9,0.73 1204.14,-5.26 1252.77,-8.77 1307.33,-16.83 1348.25,-23.72"/>
<polygon fill="black" stroke="black" points="1347.9,-27.21 1358.35,-25.44 1349.08,-20.31 1347.9,-27.21"/>
<text text-anchor="middle" x="1124.14" y="-9.06" font-family="Times,serif" font-size="14.00">schema:supersededBy</text>
</g>
<!-- https://w3id.org/oseg/ont/otrl#Otrl1 -->
<g id="node37" class="node">
<title>https://w3id.org/oseg/ont/otrl#Otrl1</title>
<ellipse fill="none" stroke="black" cx="807.65" cy="-403.26" rx="194.41" ry="16.03"/>
<text text-anchor="middle" x="807.65" y="-399.56" font-family="Times,serif" font-size="14.00">https://w3id.org/oseg/ont/otrl#Otrl1</text>
</g>
<!-- https://w3id.org/oseg/ont/otrl#Otrl1&#45;&gt;https://w3id.org/oseg/ont/otrl#OTRL1 -->
<g id="edge20" class="edge">
<title>https://w3id.org/oseg/ont/otrl#Otrl1&#45;&gt;https://w3id.org/oseg/ont/otrl#OTRL1</title>
<path fill="none" stroke="black" d="M1001.15,-401.5C1065.72,-400.09 1138.09,-397.6 1204.14,-393.26 1250.4,-390.23 1302.27,-384.72 1342.54,-379.97"/>
<polygon fill="black" stroke="black" points="1343,-383.44 1352.51,-378.79 1342.17,-376.49 1343,-383.44"/>
<text text-anchor="middle" x="1124.14" y="-404.06" font-family="Times,serif" font-size="14.00">schema:supersededBy</text>
</g>
<!-- https://w3id.org/oseg/ont/otrl#Otrl1&#45;&gt;https://w3id.org/oseg/ont/otrl#OTRL1 -->
<g id="edge34" class="edge">
<title>https://w3id.org/oseg/ont/otrl#Otrl1&#45;&gt;https://w3id.org/oseg/ont/otrl#OTRL1</title>
<path fill="none" stroke="black" d="M903.52,-389.07C946.37,-383.31 997.69,-377.3 1044.14,-374.26 1144.55,-367.69 1260.72,-368.08 1335.06,-369.35"/>
<polygon fill="black" stroke="black" points="1335.21,-372.85 1345.27,-369.53 1335.33,-365.85 1335.21,-372.85"/>
<text text-anchor="middle" x="1124.14" y="-378.06" font-family="Times,serif" font-size="14.00">owl:sameAs</text>
</g>
<!-- https://w3id.org/oseg/ont/otrl#Otrl5 -->
<g id="node38" class="node">
<title>https://w3id.org/oseg/ont/otrl#Otrl5</title>
<ellipse fill="none" stroke="black" cx="807.65" cy="-175.26" rx="194.41" ry="16.03"/>
<text text-anchor="middle" x="807.65" y="-171.56" font-family="Times,serif" font-size="14.00">https://w3id.org/oseg/ont/otrl#Otrl5</text>
</g>
<!-- https://w3id.org/oseg/ont/otrl#Otrl5&#45;&gt;https://w3id.org/oseg/ont/otrl#OTRL5 -->
<g id="edge25" class="edge">
<title>https://w3id.org/oseg/ont/otrl#Otrl5&#45;&gt;https://w3id.org/oseg/ont/otrl#OTRL5</title>
<path fill="none" stroke="black" d="M997.28,-179.02C1111.43,-181.29 1250.78,-184.07 1335.22,-185.75"/>
<polygon fill="black" stroke="black" points="1335.17,-189.25 1345.23,-185.95 1335.31,-182.25 1335.17,-189.25"/>
<text text-anchor="middle" x="1124.14" y="-187.06" font-family="Times,serif" font-size="14.00">owl:sameAs</text>
</g>
<!-- https://w3id.org/oseg/ont/otrl#Otrl5&#45;&gt;https://w3id.org/oseg/ont/otrl#OTRL5 -->
<g id="edge41" class="edge">
<title>https://w3id.org/oseg/ont/otrl#Otrl5&#45;&gt;https://w3id.org/oseg/ont/otrl#OTRL5</title>
<path fill="none" stroke="black" d="M946.01,-163.81C1022.13,-159.12 1118.43,-155.91 1204.14,-161.26 1251.68,-164.23 1304.99,-171 1345.64,-176.89"/>
<polygon fill="black" stroke="black" points="1345.28,-180.37 1355.69,-178.36 1346.3,-173.45 1345.28,-180.37"/>
<text text-anchor="middle" x="1124.14" y="-165.06" font-family="Times,serif" font-size="14.00">schema:supersededBy</text>
</g>
<!-- https://w3id.org/oseg/ont/otrl#Otrl2 -->
<g id="node39" class="node">
<title>https://w3id.org/oseg/ont/otrl#Otrl2</title>
<ellipse fill="none" stroke="black" cx="807.65" cy="-251.26" rx="194.41" ry="16.03"/>
<text text-anchor="middle" x="807.65" y="-247.56" font-family="Times,serif" font-size="14.00">https://w3id.org/oseg/ont/otrl#Otrl2</text>
</g>
<!-- https://w3id.org/oseg/ont/otrl#Otrl2&#45;&gt;https://w3id.org/oseg/ont/otrl#OTRL2 -->
<g id="edge27" class="edge">
<title>https://w3id.org/oseg/ont/otrl#Otrl2&#45;&gt;https://w3id.org/oseg/ont/otrl#OTRL2</title>
<path fill="none" stroke="black" d="M997.28,-255.02C1111.43,-257.29 1250.78,-260.07 1335.22,-261.75"/>
<polygon fill="black" stroke="black" points="1335.17,-265.25 1345.23,-261.95 1335.31,-258.25 1335.17,-265.25"/>
<text text-anchor="middle" x="1124.14" y="-263.06" font-family="Times,serif" font-size="14.00">owl:sameAs</text>
</g>
<!-- https://w3id.org/oseg/ont/otrl#Otrl2&#45;&gt;https://w3id.org/oseg/ont/otrl#OTRL2 -->
<g id="edge46" class="edge">
<title>https://w3id.org/oseg/ont/otrl#Otrl2&#45;&gt;https://w3id.org/oseg/ont/otrl#OTRL2</title>
<path fill="none" stroke="black" d="M946.01,-239.81C1022.13,-235.12 1118.43,-231.91 1204.14,-237.26 1251.68,-240.23 1304.99,-247 1345.64,-252.89"/>
<polygon fill="black" stroke="black" points="1345.28,-256.37 1355.69,-254.36 1346.3,-249.45 1345.28,-256.37"/>
<text text-anchor="middle" x="1124.14" y="-241.06" font-family="Times,serif" font-size="14.00">schema:supersededBy</text>
</g>
<!-- https://w3id.org/oseg/ont/otrl#Odrl5 -->
<g id="node40" class="node">
<title>https://w3id.org/oseg/ont/otrl#Odrl5</title>
<ellipse fill="none" stroke="black" cx="196.58" cy="-760.26" rx="196.65" ry="16.03"/>
<text text-anchor="middle" x="196.58" y="-756.56" font-family="Times,serif" font-size="14.00">https://w3id.org/oseg/ont/otrl#Odrl5</text>
</g>
<!-- https://w3id.org/oseg/ont/otrl#Odrl5&#45;&gt;https://w3id.org/oseg/ont/otrl#Odrl4 -->
<g id="edge30" class="edge">
<title>https://w3id.org/oseg/ont/otrl#Odrl5&#45;&gt;https://w3id.org/oseg/ont/otrl#Odrl4</title>
<path fill="none" stroke="black" d="M391.96,-762.18C509.44,-763.34 652.18,-764.74 735.86,-765.57"/>
<polygon fill="black" stroke="black" points="735.99,-769.07 746.02,-765.67 736.06,-762.07 735.99,-769.07"/>
<text text-anchor="middle" x="491.15" y="-768.06" font-family="Times,serif" font-size="14.00">schema:supersededBy</text>
</g>
<!-- https://w3id.org/oseg/ont/otrl#Odrl5&#45;&gt;https://w3id.org/oseg/ont/otrl#Odrl4 -->
<g id="edge44" class="edge">
<title>https://w3id.org/oseg/ont/otrl#Odrl5&#45;&gt;https://w3id.org/oseg/ont/otrl#Odrl4</title>
<path fill="none" stroke="black" d="M333.36,-748.56C359.17,-746.77 385.98,-745.21 411.15,-744.26 482.21,-741.61 500.12,-740.95 571.15,-744.26 628.66,-746.94 693.82,-753.29 741,-758.48"/>
<polygon fill="black" stroke="black" points="740.75,-761.97 751.08,-759.6 741.53,-755.02 740.75,-761.97"/>
<text text-anchor="middle" x="491.15" y="-748.06" font-family="Times,serif" font-size="14.00">owl:sameAs</text>
</g>
</g>
</svg>
