<?xml version="1.0" encoding="UTF-8" standalone="no"?>
<!DOCTYPE svg PUBLIC "-//W3C//DTD SVG 1.1//EN"
 "http://www.w3.org/Graphics/SVG/1.1/DTD/svg11.dtd">
<!-- Generated by graphviz version 2.43.0 (0)
 -->
<!-- Title: G Pages: 1 -->
<svg width="2065pt" height="1226pt"
 viewBox="0.00 0.00 2064.64 1225.56" xmlns="http://www.w3.org/2000/svg" xmlns:xlink="http://www.w3.org/1999/xlink">
<g id="graph0" class="graph" transform="scale(1 1) rotate(0) translate(4 1221.56)">
<title>G</title>
<polygon fill="white" stroke="transparent" points="-4,4 -4,-1221.56 2060.64,-1221.56 2060.64,4 -4,4"/>
<!-- https://w3id.org/oseg/ont/otrl#OTRL -->
<g id="node1" class="node">
<title>https://w3id.org/oseg/ont/otrl#OTRL</title>
<ellipse fill="none" stroke="#e377c2" cx="1933.6" cy="-648.29" rx="60.62" ry="16.03"/>
<text text-anchor="middle" x="1933.6" y="-644.59" font-family="Times,serif" font-size="14.00">otrl:OTRL</text>
</g>
<!-- https://w3id.org/oseg/ont/otrl#ODRL3Star -->
<g id="node2" class="node">
<title>https://w3id.org/oseg/ont/otrl#ODRL3Star</title>
<ellipse fill="none" stroke="#e377c2" cx="1412.36" cy="-306.29" rx="90.52" ry="16.03"/>
<text text-anchor="middle" x="1412.36" y="-302.59" font-family="Times,serif" font-size="14.00">otrl:ODRL3Star</text>
</g>
<!-- https://w3id.org/oseg/ont/otrl#ODRL -->
<g id="node14" class="node">
<title>https://w3id.org/oseg/ont/otrl#ODRL</title>
<ellipse fill="none" stroke="#e377c2" cx="1933.6" cy="-192.29" rx="62.87" ry="16.03"/>
<text text-anchor="middle" x="1933.6" y="-188.59" font-family="Times,serif" font-size="14.00">otrl:ODRL</text>
</g>
<!-- https://w3id.org/oseg/ont/otrl#ODRL3Star&#45;&gt;https://w3id.org/oseg/ont/otrl#ODRL -->
<g id="edge37" class="edge">
<title>https://w3id.org/oseg/ont/otrl#ODRL3Star&#45;&gt;https://w3id.org/oseg/ont/otrl#ODRL</title>
<path fill="none" stroke="black" d="M1489.93,-297.84C1525.18,-292.22 1566.97,-283.05 1602.57,-268.29 1611.45,-264.61 1611.62,-259.81 1620.57,-256.29 1692.64,-227.95 1716.76,-244.17 1792.57,-228.29 1821.98,-222.13 1854.5,-213.86 1880.8,-206.8"/>
<polygon fill="black" stroke="black" points="1881.81,-210.15 1890.55,-204.16 1879.99,-203.39 1881.81,-210.15"/>
</g>
<!-- http://www.w3.org/2002/07/owl#Ontology -->
<g id="node3" class="node">
<title>http://www.w3.org/2002/07/owl#Ontology</title>
<ellipse fill="none" stroke="#1f77b4" cx="807.65" cy="-1201.29" rx="77.56" ry="16.03"/>
<text text-anchor="middle" x="807.65" y="-1197.59" font-family="Times,serif" font-size="14.00">owl:Ontology</text>
</g>
<!-- https://w3id.org/oseg/ont/otrl#OTRL3 -->
<g id="node4" class="node">
<title>https://w3id.org/oseg/ont/otrl#OTRL3</title>
<ellipse fill="none" stroke="#e377c2" cx="1412.36" cy="-739.29" rx="67.35" ry="16.03"/>
<text text-anchor="middle" x="1412.36" y="-735.59" font-family="Times,serif" font-size="14.00">otrl:OTRL3</text>
</g>
<!-- https://w3id.org/oseg/ont/otrl#OTRL3&#45;&gt;https://w3id.org/oseg/ont/otrl#OTRL -->
<g id="edge18" class="edge">
<title>https://w3id.org/oseg/ont/otrl#OTRL3&#45;&gt;https://w3id.org/oseg/ont/otrl#OTRL</title>
<path fill="none" stroke="black" d="M1475.56,-733.71C1551.07,-726.3 1682.03,-711.39 1792.57,-688.29 1823.51,-681.83 1857.63,-672.14 1884.44,-663.91"/>
<polygon fill="black" stroke="black" points="1885.83,-667.15 1894.34,-660.84 1883.75,-660.46 1885.83,-667.15"/>
</g>
<!-- https://w3id.org/oseg/ont/otrl#OTRL4 -->
<g id="node5" class="node">
<title>https://w3id.org/oseg/ont/otrl#OTRL4</title>
<ellipse fill="none" stroke="#e377c2" cx="1412.36" cy="-688.29" rx="67.35" ry="16.03"/>
<text text-anchor="middle" x="1412.36" y="-684.59" font-family="Times,serif" font-size="14.00">otrl:OTRL4</text>
</g>
<!-- https://w3id.org/oseg/ont/otrl#OTRL4&#45;&gt;https://w3id.org/oseg/ont/otrl#OTRL -->
<g id="edge1" class="edge">
<title>https://w3id.org/oseg/ont/otrl#OTRL4&#45;&gt;https://w3id.org/oseg/ont/otrl#OTRL</title>
<path fill="none" stroke="black" d="M1479.24,-686.23C1554.97,-683.5 1682.95,-677.75 1792.57,-667.29 1818.1,-664.86 1846.14,-661.24 1870.38,-657.82"/>
<polygon fill="black" stroke="black" points="1871.11,-661.25 1880.51,-656.36 1870.12,-654.32 1871.11,-661.25"/>
</g>
<!-- https://w3id.org/oseg/ont/otrl#ODRL2 -->
<g id="node6" class="node">
<title>https://w3id.org/oseg/ont/otrl#ODRL2</title>
<ellipse fill="none" stroke="#e377c2" cx="1412.36" cy="-243.29" rx="69.09" ry="16.03"/>
<text text-anchor="middle" x="1412.36" y="-239.59" font-family="Times,serif" font-size="14.00">otrl:ODRL2</text>
</g>
<!-- https://w3id.org/oseg/ont/otrl#ODRL2&#45;&gt;https://w3id.org/oseg/ont/otrl#ODRL -->
<g id="edge45" class="edge">
<title>https://w3id.org/oseg/ont/otrl#ODRL2&#45;&gt;https://w3id.org/oseg/ont/otrl#ODRL</title>
<path fill="none" stroke="black" d="M1476.51,-237.09C1574.62,-227.45 1762.9,-208.96 1864.16,-199.01"/>
<polygon fill="black" stroke="black" points="1864.67,-202.48 1874.28,-198.02 1863.98,-195.52 1864.67,-202.48"/>
</g>
<!-- https://w3id.org/oseg/ont/otrl#OTRL6 -->
<g id="node7" class="node">
<title>https://w3id.org/oseg/ont/otrl#OTRL6</title>
<ellipse fill="none" stroke="#e377c2" cx="1412.36" cy="-586.29" rx="67.35" ry="16.03"/>
<text text-anchor="middle" x="1412.36" y="-582.59" font-family="Times,serif" font-size="14.00">otrl:OTRL6</text>
</g>
<!-- https://w3id.org/oseg/ont/otrl#OTRL6&#45;&gt;https://w3id.org/oseg/ont/otrl#OTRL -->
<g id="edge34" class="edge">
<title>https://w3id.org/oseg/ont/otrl#OTRL6&#45;&gt;https://w3id.org/oseg/ont/otrl#OTRL</title>
<path fill="none" stroke="black" d="M1478.37,-589.62C1554.12,-594.04 1682.88,-603.22 1792.57,-619.29 1820.87,-623.44 1852.06,-629.73 1877.8,-635.39"/>
<polygon fill="black" stroke="black" points="1877.23,-638.85 1887.75,-637.6 1878.75,-632.01 1877.23,-638.85"/>
</g>
<!-- https://w3id.org/oseg/ont/otrl#ODRL3 -->
<g id="node8" class="node">
<title>https://w3id.org/oseg/ont/otrl#ODRL3</title>
<ellipse fill="none" stroke="#e377c2" cx="1412.36" cy="-192.29" rx="69.09" ry="16.03"/>
<text text-anchor="middle" x="1412.36" y="-188.59" font-family="Times,serif" font-size="14.00">otrl:ODRL3</text>
</g>
<!-- https://w3id.org/oseg/ont/otrl#ODRL3&#45;&gt;https://w3id.org/oseg/ont/otrl#ODRL -->
<g id="edge40" class="edge">
<title>https://w3id.org/oseg/ont/otrl#ODRL3&#45;&gt;https://w3id.org/oseg/ont/otrl#ODRL</title>
<path fill="none" stroke="black" d="M1481.77,-192.29C1580.02,-192.29 1760.23,-192.29 1860.48,-192.29"/>
<polygon fill="black" stroke="black" points="1860.52,-195.79 1870.52,-192.29 1860.52,-188.79 1860.52,-195.79"/>
</g>
<!-- https://w3id.org/oseg/ont/otrl#OTRL2 -->
<g id="node9" class="node">
<title>https://w3id.org/oseg/ont/otrl#OTRL2</title>
<ellipse fill="none" stroke="#e377c2" cx="1412.36" cy="-535.29" rx="67.35" ry="16.03"/>
<text text-anchor="middle" x="1412.36" y="-531.59" font-family="Times,serif" font-size="14.00">otrl:OTRL2</text>
</g>
<!-- https://w3id.org/oseg/ont/otrl#OTRL2&#45;&gt;https://w3id.org/oseg/ont/otrl#OTRL -->
<g id="edge48" class="edge">
<title>https://w3id.org/oseg/ont/otrl#OTRL2&#45;&gt;https://w3id.org/oseg/ont/otrl#OTRL</title>
<path fill="none" stroke="black" d="M1474.97,-541.3C1550.71,-549.6 1682.73,-567.1 1792.57,-597.29 1826.15,-606.52 1863.14,-620.15 1890.67,-631"/>
<polygon fill="black" stroke="black" points="1889.4,-634.26 1899.99,-634.71 1891.99,-627.76 1889.4,-634.26"/>
</g>
<!-- https://w3id.org/oseg/ont/otrl#ODRL1 -->
<g id="node10" class="node">
<title>https://w3id.org/oseg/ont/otrl#ODRL1</title>
<ellipse fill="none" stroke="#e377c2" cx="1412.36" cy="-90.29" rx="69.09" ry="16.03"/>
<text text-anchor="middle" x="1412.36" y="-86.59" font-family="Times,serif" font-size="14.00">otrl:ODRL1</text>
</g>
<!-- https://w3id.org/oseg/ont/otrl#ODRL1&#45;&gt;https://w3id.org/oseg/ont/otrl#ODRL -->
<g id="edge33" class="edge">
<title>https://w3id.org/oseg/ont/otrl#ODRL1&#45;&gt;https://w3id.org/oseg/ont/otrl#ODRL</title>
<path fill="none" stroke="black" d="M1481.48,-88.72C1558.44,-88.66 1686.75,-93.74 1792.57,-123.29 1831.5,-134.16 1872.6,-155.79 1900.12,-171.94"/>
<polygon fill="black" stroke="black" points="1898.54,-175.07 1908.92,-177.19 1902.12,-169.06 1898.54,-175.07"/>
</g>
<!-- https://w3id.org/oseg/ont/otrl#OTRL1 -->
<g id="node11" class="node">
<title>https://w3id.org/oseg/ont/otrl#OTRL1</title>
<ellipse fill="none" stroke="#e377c2" cx="1412.36" cy="-877.29" rx="67.35" ry="16.03"/>
<text text-anchor="middle" x="1412.36" y="-873.59" font-family="Times,serif" font-size="14.00">otrl:OTRL1</text>
</g>
<!-- https://w3id.org/oseg/ont/otrl#OTRL1&#45;&gt;https://w3id.org/oseg/ont/otrl#OTRL -->
<g id="edge49" class="edge">
<title>https://w3id.org/oseg/ont/otrl#OTRL1&#45;&gt;https://w3id.org/oseg/ont/otrl#OTRL</title>
<path fill="none" stroke="black" d="M1464.95,-867.15C1540.36,-850.89 1683.54,-814.57 1792.57,-754.29 1835.85,-730.36 1880.51,-694.19 1907.42,-670.91"/>
<polygon fill="black" stroke="black" points="1909.96,-673.34 1915.18,-664.12 1905.35,-668.07 1909.96,-673.34"/>
</g>
<!-- https://w3id.org/oseg/ont/otrl#ODRL4 -->
<g id="node12" class="node">
<title>https://w3id.org/oseg/ont/otrl#ODRL4</title>
<ellipse fill="none" stroke="#e377c2" cx="1412.36" cy="-39.29" rx="69.09" ry="16.03"/>
<text text-anchor="middle" x="1412.36" y="-35.59" font-family="Times,serif" font-size="14.00">otrl:ODRL4</text>
</g>
<!-- https://w3id.org/oseg/ont/otrl#ODRL4&#45;&gt;https://w3id.org/oseg/ont/otrl#ODRL -->
<g id="edge28" class="edge">
<title>https://w3id.org/oseg/ont/otrl#ODRL4&#45;&gt;https://w3id.org/oseg/ont/otrl#ODRL</title>
<path fill="none" stroke="black" d="M1481.63,-38.83C1559.55,-40.5 1689.53,-50.07 1792.57,-91.29 1838.22,-109.56 1882.86,-145.88 1909.04,-169.62"/>
<polygon fill="black" stroke="black" points="1906.83,-172.35 1916.56,-176.55 1911.58,-167.2 1906.83,-172.35"/>
</g>
<!-- http://www.w3.org/2002/07/owl#DatatypeProperty -->
<g id="node13" class="node">
<title>http://www.w3.org/2002/07/owl#DatatypeProperty</title>
<ellipse fill="none" stroke="#1f77b4" cx="1933.6" cy="-446.29" rx="123.07" ry="16.03"/>
<text text-anchor="middle" x="1933.6" y="-442.59" font-family="Times,serif" font-size="14.00">owl:DatatypeProperty</text>
</g>
<!-- https://w3id.org/oseg/ont/otrl#OTRL5 -->
<g id="node15" class="node">
<title>https://w3id.org/oseg/ont/otrl#OTRL5</title>
<ellipse fill="none" stroke="#e377c2" cx="1412.36" cy="-801.29" rx="67.35" ry="16.03"/>
<text text-anchor="middle" x="1412.36" y="-797.59" font-family="Times,serif" font-size="14.00">otrl:OTRL5</text>
</g>
<!-- https://w3id.org/oseg/ont/otrl#OTRL5&#45;&gt;https://w3id.org/oseg/ont/otrl#OTRL -->
<g id="edge19" class="edge">
<title>https://w3id.org/oseg/ont/otrl#OTRL5&#45;&gt;https://w3id.org/oseg/ont/otrl#OTRL</title>
<path fill="none" stroke="black" d="M1470.88,-793.15C1546.34,-781.4 1682.12,-756.58 1792.57,-716.29 1829.52,-702.81 1869.72,-682.68 1897.53,-667.82"/>
<polygon fill="black" stroke="black" points="1899.33,-670.83 1906.46,-663 1896,-664.67 1899.33,-670.83"/>
</g>
<!-- https://w3id.org/oseg/ont/otrl#goal -->
<g id="node16" class="node">
<title>https://w3id.org/oseg/ont/otrl#goal</title>
<ellipse fill="none" stroke="#e377c2" cx="1412.36" cy="-460.29" rx="54.39" ry="16.03"/>
<text text-anchor="middle" x="1412.36" y="-456.59" font-family="Times,serif" font-size="14.00">otrl:goal</text>
</g>
<!-- https://w3id.org/oseg/ont/otrl#goal&#45;&gt;https://w3id.org/oseg/ont/otrl#OTRL -->
<g id="edge17" class="edge">
<title>https://w3id.org/oseg/ont/otrl#goal&#45;&gt;https://w3id.org/oseg/ont/otrl#OTRL</title>
<path fill="none" stroke="black" d="M1456.6,-469.98C1498.5,-479.34 1563.87,-493.9 1620.57,-506.29 1696.96,-522.99 1721.41,-510.86 1792.57,-543.29 1837.92,-563.96 1882.65,-601.25 1908.93,-625.38"/>
<polygon fill="black" stroke="black" points="1906.77,-628.15 1916.47,-632.41 1911.55,-623.03 1906.77,-628.15"/>
<text text-anchor="middle" x="1706.57" y="-547.09" font-family="Times,serif" font-size="14.00">schema:domainIncludes</text>
</g>
<!-- https://w3id.org/oseg/ont/otrl#goal&#45;&gt;http://www.w3.org/2002/07/owl#DatatypeProperty -->
<g id="edge5" class="edge">
<title>https://w3id.org/oseg/ont/otrl#goal&#45;&gt;http://www.w3.org/2002/07/owl#DatatypeProperty</title>
<path fill="none" stroke="black" d="M1460.24,-468.22C1532.04,-479.15 1673.46,-495.95 1792.57,-481.29 1820.12,-477.9 1850.06,-470.89 1875.15,-464.03"/>
<polygon fill="black" stroke="black" points="1876.18,-467.37 1884.87,-461.31 1874.3,-460.63 1876.18,-467.37"/>
<text text-anchor="middle" x="1706.57" y="-491.09" font-family="Times,serif" font-size="14.00">a</text>
</g>
<!-- https://w3id.org/oseg/ont/otrl#goal&#45;&gt;https://w3id.org/oseg/ont/otrl#ODRL -->
<g id="edge9" class="edge">
<title>https://w3id.org/oseg/ont/otrl#goal&#45;&gt;https://w3id.org/oseg/ont/otrl#ODRL</title>
<path fill="none" stroke="black" d="M1464.43,-455.53C1506.4,-449.07 1564.88,-433.91 1602.57,-398.29 1618.52,-383.21 1603.3,-365.85 1620.57,-352.29 1681.24,-304.68 1723.24,-363.09 1792.57,-329.29 1846.22,-303.13 1892.12,-248.45 1915.69,-216.65"/>
<polygon fill="black" stroke="black" points="1918.68,-218.48 1921.73,-208.33 1913.02,-214.37 1918.68,-218.48"/>
<text text-anchor="middle" x="1706.57" y="-356.09" font-family="Times,serif" font-size="14.00">schema:domainIncludes</text>
</g>
<!-- http://schema.org/Text -->
<g id="node19" class="node">
<title>http://schema.org/Text</title>
<ellipse fill="none" stroke="#e377c2" cx="1933.6" cy="-354.29" rx="74.91" ry="16.03"/>
<text text-anchor="middle" x="1933.6" y="-350.59" font-family="Times,serif" font-size="14.00">schema:Text</text>
</g>
<!-- https://w3id.org/oseg/ont/otrl#goal&#45;&gt;http://schema.org/Text -->
<g id="edge54" class="edge">
<title>https://w3id.org/oseg/ont/otrl#goal&#45;&gt;http://schema.org/Text</title>
<path fill="none" stroke="black" d="M1460.64,-452.71C1502.61,-446.05 1565.62,-436.21 1620.57,-428.29 1696.9,-417.3 1717.67,-423.71 1792.57,-405.29 1825.94,-397.09 1862.39,-383.66 1889.73,-372.65"/>
<polygon fill="black" stroke="black" points="1891.06,-375.88 1899,-368.87 1888.42,-369.4 1891.06,-375.88"/>
<text text-anchor="middle" x="1706.57" y="-432.09" font-family="Times,serif" font-size="14.00">range</text>
</g>
<!-- https://orcid.org/0000&#45;0002&#45;1611&#45;7129 -->
<g id="node17" class="node">
<title>https://orcid.org/0000&#45;0002&#45;1611&#45;7129</title>
<ellipse fill="none" stroke="#e377c2" cx="807.65" cy="-1150.29" rx="113.69" ry="16.03"/>
<text text-anchor="middle" x="807.65" y="-1146.59" font-family="Times,serif" font-size="14.00">orcid:0000&#45;0002&#45;1...</text>
</g>
<!-- https://www.gnu.org/licenses/gpl&#45;3.0.txt -->
<g id="node18" class="node">
<title>https://www.gnu.org/licenses/gpl&#45;3.0.txt</title>
<ellipse fill="none" stroke="#e377c2" cx="807.65" cy="-1096.29" rx="85.62" ry="16.03"/>
<text text-anchor="middle" x="807.65" y="-1092.59" font-family="Times,serif" font-size="14.00">ns1:gpl&#45;3.0.txt</text>
</g>
<!-- https://w3id.org/oseg/ont/otrl#exitCriteria -->
<g id="node20" class="node">
<title>https://w3id.org/oseg/ont/otrl#exitCriteria</title>
<ellipse fill="none" stroke="#e377c2" cx="1412.36" cy="-373.29" rx="91.43" ry="16.03"/>
<text text-anchor="middle" x="1412.36" y="-369.59" font-family="Times,serif" font-size="14.00">otrl:exitCriteria</text>
</g>
<!-- https://w3id.org/oseg/ont/otrl#exitCriteria&#45;&gt;https://w3id.org/oseg/ont/otrl#OTRL -->
<g id="edge35" class="edge">
<title>https://w3id.org/oseg/ont/otrl#exitCriteria&#45;&gt;https://w3id.org/oseg/ont/otrl#OTRL</title>
<path fill="none" stroke="black" d="M1460.08,-387.15C1498.66,-398.94 1554.66,-416.85 1602.57,-435.29 1610.74,-438.44 1612.12,-441.01 1620.57,-443.29 1694.81,-463.37 1725.74,-424.23 1792.57,-462.29 1858.09,-499.61 1902.48,-581.31 1921.74,-622.89"/>
<polygon fill="black" stroke="black" points="1918.58,-624.4 1925.89,-632.07 1924.96,-621.52 1918.58,-624.4"/>
<text text-anchor="middle" x="1706.57" y="-466.09" font-family="Times,serif" font-size="14.00">schema:domainIncludes</text>
</g>
<!-- https://w3id.org/oseg/ont/otrl#exitCriteria&#45;&gt;http://www.w3.org/2002/07/owl#DatatypeProperty -->
<g id="edge14" class="edge">
<title>https://w3id.org/oseg/ont/otrl#exitCriteria&#45;&gt;http://www.w3.org/2002/07/owl#DatatypeProperty</title>
<path fill="none" stroke="black" d="M1500.63,-368.99C1578.19,-367.11 1694.17,-369.05 1792.57,-390.29 1827.6,-397.85 1865.2,-413.34 1892.61,-426.11"/>
<polygon fill="black" stroke="black" points="1891.32,-429.37 1901.85,-430.5 1894.32,-423.05 1891.32,-429.37"/>
<text text-anchor="middle" x="1706.57" y="-394.09" font-family="Times,serif" font-size="14.00">a</text>
</g>
<!-- https://w3id.org/oseg/ont/otrl#exitCriteria&#45;&gt;https://w3id.org/oseg/ont/otrl#ODRL -->
<g id="edge20" class="edge">
<title>https://w3id.org/oseg/ont/otrl#exitCriteria&#45;&gt;https://w3id.org/oseg/ont/otrl#ODRL</title>
<path fill="none" stroke="black" d="M1503.16,-371.5C1537.79,-366.53 1575.49,-355.28 1602.57,-331.29 1620.56,-315.35 1602.08,-295.66 1620.57,-280.29 1680.07,-230.82 1718.27,-274.92 1792.57,-253.29 1828.78,-242.75 1867.98,-225.09 1895.67,-211.48"/>
<polygon fill="black" stroke="black" points="1897.57,-214.44 1904.96,-206.85 1894.45,-208.18 1897.57,-214.44"/>
<text text-anchor="middle" x="1706.57" y="-284.09" font-family="Times,serif" font-size="14.00">schema:domainIncludes</text>
</g>
<!-- https://w3id.org/oseg/ont/otrl#exitCriteria&#45;&gt;http://schema.org/Text -->
<g id="edge10" class="edge">
<title>https://w3id.org/oseg/ont/otrl#exitCriteria&#45;&gt;http://schema.org/Text</title>
<path fill="none" stroke="black" d="M1492.6,-365.37C1527.81,-359.47 1568.83,-349.19 1602.57,-331.29 1612.29,-326.14 1610.34,-318.36 1620.57,-314.29 1691.6,-286.05 1716.86,-303.69 1792.57,-314.29 1824.01,-318.7 1858.3,-328.4 1885.08,-337.15"/>
<polygon fill="black" stroke="black" points="1884,-340.48 1894.59,-340.32 1886.21,-333.84 1884,-340.48"/>
<text text-anchor="middle" x="1706.57" y="-318.09" font-family="Times,serif" font-size="14.00">range</text>
</g>
<!-- https://w3id.org/oseg/ont/1.1.0/otrl -->
<g id="node21" class="node">
<title>https://w3id.org/oseg/ont/1.1.0/otrl</title>
<ellipse fill="none" stroke="#e377c2" cx="807.65" cy="-1039.29" rx="50.82" ry="16.03"/>
<text text-anchor="middle" x="807.65" y="-1035.59" font-family="Times,serif" font-size="14.00">ns2:otrl</text>
</g>
<!-- https://w3id.org/oseg/ont/otrl#Odrl4 -->
<g id="node22" class="node">
<title>https://w3id.org/oseg/ont/otrl#Odrl4</title>
<ellipse fill="none" stroke="#e377c2" cx="807.65" cy="-21.29" rx="61.54" ry="16.03"/>
<text text-anchor="middle" x="807.65" y="-17.59" font-family="Times,serif" font-size="14.00">otrl:Odrl4</text>
</g>
<!-- https://w3id.org/oseg/ont/otrl#Odrl4&#45;&gt;https://w3id.org/oseg/ont/otrl#ODRL4 -->
<g id="edge7" class="edge">
<title>https://w3id.org/oseg/ont/otrl#Odrl4&#45;&gt;https://w3id.org/oseg/ont/otrl#ODRL4</title>
<path fill="none" stroke="black" d="M868.92,-23.09C978.82,-26.37 1211.66,-33.33 1333.44,-36.97"/>
<polygon fill="black" stroke="black" points="1333.34,-40.46 1343.44,-37.26 1333.55,-33.47 1333.34,-40.46"/>
<text text-anchor="middle" x="1124.14" y="-37.09" font-family="Times,serif" font-size="14.00">owl:sameAs</text>
</g>
<!-- https://w3id.org/oseg/ont/otrl#Odrl4&#45;&gt;https://w3id.org/oseg/ont/otrl#ODRL4 -->
<g id="edge41" class="edge">
<title>https://w3id.org/oseg/ont/otrl#Odrl4&#45;&gt;https://w3id.org/oseg/ont/otrl#ODRL4</title>
<path fill="none" stroke="black" d="M866.36,-16.18C943.44,-10.15 1084.23,-1.94 1204.14,-10.29 1252.08,-13.63 1305.81,-21.26 1346.54,-27.86"/>
<polygon fill="black" stroke="black" points="1346.17,-31.35 1356.6,-29.51 1347.3,-24.44 1346.17,-31.35"/>
<text text-anchor="middle" x="1124.14" y="-14.09" font-family="Times,serif" font-size="14.00">schema:supersededBy</text>
</g>
<!-- https://w3id.org/oseg/ont/otrl -->
<g id="node23" class="node">
<title>https://w3id.org/oseg/ont/otrl</title>
<ellipse fill="none" stroke="#e377c2" cx="196.58" cy="-1074.29" rx="50.82" ry="16.03"/>
<text text-anchor="middle" x="196.58" y="-1070.59" font-family="Times,serif" font-size="14.00">ns3:otrl</text>
</g>
<!-- https://w3id.org/oseg/ont/otrl&#45;&gt;http://www.w3.org/2002/07/owl#Ontology -->
<g id="edge32" class="edge">
<title>https://w3id.org/oseg/ont/otrl&#45;&gt;http://www.w3.org/2002/07/owl#Ontology</title>
<path fill="none" stroke="black" d="M228.13,-1087.13C269.09,-1103.84 344.37,-1132.85 411.15,-1149.29 517.07,-1175.37 642.38,-1189.04 723.11,-1195.7"/>
<polygon fill="black" stroke="black" points="722.97,-1199.2 733.22,-1196.52 723.53,-1192.23 722.97,-1199.2"/>
<text text-anchor="middle" x="491.15" y="-1181.09" font-family="Times,serif" font-size="14.00">a</text>
</g>
<!-- https://w3id.org/oseg/ont/otrl&#45;&gt;https://orcid.org/0000&#45;0002&#45;1611&#45;7129 -->
<g id="edge6" class="edge">
<title>https://w3id.org/oseg/ont/otrl&#45;&gt;https://orcid.org/0000&#45;0002&#45;1611&#45;7129</title>
<path fill="none" stroke="black" d="M239.55,-1083.08C282.49,-1091.8 351.22,-1105.03 411.15,-1113.29 506.48,-1126.43 615.38,-1136.24 694.74,-1142.44"/>
<polygon fill="black" stroke="black" points="694.52,-1145.94 704.76,-1143.22 695.06,-1138.96 694.52,-1145.94"/>
<text text-anchor="middle" x="491.15" y="-1134.09" font-family="Times,serif" font-size="14.00">dcterms:creator</text>
</g>
<!-- https://w3id.org/oseg/ont/otrl&#45;&gt;https://www.gnu.org/licenses/gpl&#45;3.0.txt -->
<g id="edge8" class="edge">
<title>https://w3id.org/oseg/ont/otrl&#45;&gt;https://www.gnu.org/licenses/gpl&#45;3.0.txt</title>
<path fill="none" stroke="black" d="M245.88,-1078.74C289.13,-1082.52 354.32,-1087.73 411.15,-1090.29 513.78,-1094.91 631.52,-1096.18 711.67,-1096.44"/>
<polygon fill="black" stroke="black" points="711.73,-1099.94 721.74,-1096.47 711.75,-1092.94 711.73,-1099.94"/>
<text text-anchor="middle" x="491.15" y="-1098.09" font-family="Times,serif" font-size="14.00">dcterms:license</text>
</g>
<!-- https://w3id.org/oseg/ont/otrl&#45;&gt;https://www.gnu.org/licenses/gpl&#45;3.0.txt -->
<g id="edge26" class="edge">
<title>https://w3id.org/oseg/ont/otrl&#45;&gt;https://www.gnu.org/licenses/gpl&#45;3.0.txt</title>
<path fill="none" stroke="black" d="M247.63,-1073.39C290.91,-1072.66 355.16,-1071.69 411.15,-1071.29 482.26,-1070.79 500.14,-1067.53 571.15,-1071.29 623.25,-1074.05 681.57,-1080.22 727.13,-1085.74"/>
<polygon fill="black" stroke="black" points="726.89,-1089.23 737.25,-1086.97 727.75,-1082.28 726.89,-1089.23"/>
<text text-anchor="middle" x="491.15" y="-1075.09" font-family="Times,serif" font-size="14.00">cc:license</text>
</g>
<!-- https://w3id.org/oseg/ont/otrl&#45;&gt;https://w3id.org/oseg/ont/1.1.0/otrl -->
<g id="edge15" class="edge">
<title>https://w3id.org/oseg/ont/otrl&#45;&gt;https://w3id.org/oseg/ont/1.1.0/otrl</title>
<path fill="none" stroke="black" d="M243.72,-1067.97C286.91,-1062.33 353.27,-1054.34 411.15,-1050.29 529.85,-1041.99 668.99,-1039.89 746.57,-1039.39"/>
<polygon fill="black" stroke="black" points="746.66,-1042.89 756.64,-1039.34 746.62,-1035.89 746.66,-1042.89"/>
<text text-anchor="middle" x="491.15" y="-1054.09" font-family="Times,serif" font-size="14.00">owl:versionIRI</text>
</g>
<!-- http://id.loc.gov/vocabulary/iso639&#45;1/en -->
<g id="node24" class="node">
<title>http://id.loc.gov/vocabulary/iso639&#45;1/en</title>
<ellipse fill="none" stroke="#e377c2" cx="807.65" cy="-988.29" rx="45.01" ry="16.03"/>
<text text-anchor="middle" x="807.65" y="-984.59" font-family="Times,serif" font-size="14.00">ns4:en</text>
</g>
<!-- https://w3id.org/oseg/ont/otrl&#45;&gt;http://id.loc.gov/vocabulary/iso639&#45;1/en -->
<g id="edge36" class="edge">
<title>https://w3id.org/oseg/ont/otrl&#45;&gt;http://id.loc.gov/vocabulary/iso639&#45;1/en</title>
<path fill="none" stroke="black" d="M235.05,-1063.58C277.43,-1051.88 348.69,-1033.46 411.15,-1023.29 532.01,-1003.62 675.58,-994.4 752.14,-990.59"/>
<polygon fill="black" stroke="black" points="752.67,-994.07 762.49,-990.09 752.33,-987.08 752.67,-994.07"/>
<text text-anchor="middle" x="491.15" y="-1027.09" font-family="Times,serif" font-size="14.00">dcterms:language</text>
</g>
<!-- https://orcid.org/0009&#45;0004&#45;3559&#45;6542 -->
<g id="node25" class="node">
<title>https://orcid.org/0009&#45;0004&#45;3559&#45;6542</title>
<ellipse fill="none" stroke="#e377c2" cx="807.65" cy="-937.29" rx="113.69" ry="16.03"/>
<text text-anchor="middle" x="807.65" y="-933.59" font-family="Times,serif" font-size="14.00">orcid:0009&#45;0004&#45;3...</text>
</g>
<!-- https://w3id.org/oseg/ont/otrl&#45;&gt;https://orcid.org/0009&#45;0004&#45;3559&#45;6542 -->
<g id="edge44" class="edge">
<title>https://w3id.org/oseg/ont/otrl&#45;&gt;https://orcid.org/0009&#45;0004&#45;3559&#45;6542</title>
<path fill="none" stroke="black" d="M223.7,-1060.44C263.13,-1040.19 340.74,-1002.91 411.15,-984.29 502.5,-960.13 609.02,-948.37 688.49,-942.66"/>
<polygon fill="black" stroke="black" points="688.8,-946.15 698.53,-941.96 688.31,-939.16 688.8,-946.15"/>
<text text-anchor="middle" x="491.15" y="-988.09" font-family="Times,serif" font-size="14.00">dcterms:creator</text>
</g>
<!-- https://w3id.org/oseg/ont/otrl#Otrl6 -->
<g id="node26" class="node">
<title>https://w3id.org/oseg/ont/otrl#Otrl6</title>
<ellipse fill="none" stroke="black" cx="807.65" cy="-599.29" rx="194.41" ry="16.03"/>
<text text-anchor="middle" x="807.65" y="-595.59" font-family="Times,serif" font-size="14.00">https://w3id.org/oseg/ont/otrl#Otrl6</text>
</g>
<!-- https://w3id.org/oseg/ont/otrl#Otrl6&#45;&gt;https://w3id.org/oseg/ont/otrl#OTRL6 -->
<g id="edge2" class="edge">
<title>https://w3id.org/oseg/ont/otrl#Otrl6&#45;&gt;https://w3id.org/oseg/ont/otrl#OTRL6</title>
<path fill="none" stroke="black" d="M996.04,-595.25C1110.44,-592.78 1250.53,-589.76 1335.26,-587.93"/>
<polygon fill="black" stroke="black" points="1335.39,-591.43 1345.31,-587.72 1335.24,-584.43 1335.39,-591.43"/>
<text text-anchor="middle" x="1124.14" y="-598.09" font-family="Times,serif" font-size="14.00">schema:supersededBy</text>
</g>
<!-- https://w3id.org/oseg/ont/otrl#Otrl6&#45;&gt;https://w3id.org/oseg/ont/otrl#OTRL6 -->
<g id="edge30" class="edge">
<title>https://w3id.org/oseg/ont/otrl#Otrl6&#45;&gt;https://w3id.org/oseg/ont/otrl#OTRL6</title>
<path fill="none" stroke="black" d="M908.12,-585.34C950.02,-580.13 999.36,-574.85 1044.14,-572.29 1115.14,-568.24 1133.07,-569.89 1204.14,-572.29 1248.9,-573.8 1298.99,-577.14 1338.72,-580.18"/>
<polygon fill="black" stroke="black" points="1338.6,-583.68 1348.84,-580.97 1339.14,-576.7 1338.6,-583.68"/>
<text text-anchor="middle" x="1124.14" y="-576.09" font-family="Times,serif" font-size="14.00">owl:sameAs</text>
</g>
<!-- https://w3id.org/oseg/ont/otrl#Odrl -->
<g id="node27" class="node">
<title>https://w3id.org/oseg/ont/otrl#Odrl</title>
<ellipse fill="none" stroke="black" cx="1412.36" cy="-141.29" rx="190.42" ry="16.03"/>
<text text-anchor="middle" x="1412.36" y="-137.59" font-family="Times,serif" font-size="14.00">https://w3id.org/oseg/ont/otrl#Odrl</text>
</g>
<!-- https://w3id.org/oseg/ont/otrl#Odrl&#45;&gt;https://w3id.org/oseg/ont/otrl#ODRL -->
<g id="edge3" class="edge">
<title>https://w3id.org/oseg/ont/otrl#Odrl&#45;&gt;https://w3id.org/oseg/ont/otrl#ODRL</title>
<path fill="none" stroke="black" d="M1558.03,-151.77C1628.82,-157.34 1715.24,-164.79 1792.57,-173.29 1817.43,-176.03 1844.69,-179.6 1868.51,-182.9"/>
<polygon fill="black" stroke="black" points="1868.1,-186.38 1878.48,-184.3 1869.07,-179.45 1868.1,-186.38"/>
<text text-anchor="middle" x="1706.57" y="-177.09" font-family="Times,serif" font-size="14.00">schema:supersededBy</text>
</g>
<!-- https://w3id.org/oseg/ont/otrl#Odrl&#45;&gt;https://w3id.org/oseg/ont/otrl#ODRL -->
<g id="edge31" class="edge">
<title>https://w3id.org/oseg/ont/otrl#Odrl&#45;&gt;https://w3id.org/oseg/ont/otrl#ODRL</title>
<path fill="none" stroke="black" d="M1538.19,-129.07C1612.65,-124.64 1708.7,-123.95 1792.57,-139.29 1828.48,-145.86 1867.13,-161.17 1894.71,-173.66"/>
<polygon fill="black" stroke="black" points="1893.44,-176.93 1903.98,-177.94 1896.37,-170.57 1893.44,-176.93"/>
<text text-anchor="middle" x="1706.57" y="-143.09" font-family="Times,serif" font-size="14.00">owl:sameAs</text>
</g>
<!-- https://w3id.org/oseg/ont/otrl#Otrl1 -->
<g id="node28" class="node">
<title>https://w3id.org/oseg/ont/otrl#Otrl1</title>
<ellipse fill="none" stroke="black" cx="807.65" cy="-886.29" rx="194.41" ry="16.03"/>
<text text-anchor="middle" x="807.65" y="-882.59" font-family="Times,serif" font-size="14.00">https://w3id.org/oseg/ont/otrl#Otrl1</text>
</g>
<!-- https://w3id.org/oseg/ont/otrl#Otrl1&#45;&gt;https://w3id.org/oseg/ont/otrl#OTRL1 -->
<g id="edge4" class="edge">
<title>https://w3id.org/oseg/ont/otrl#Otrl1&#45;&gt;https://w3id.org/oseg/ont/otrl#OTRL1</title>
<path fill="none" stroke="black" d="M981.96,-893.57C1051.09,-895.38 1131.4,-896.1 1204.14,-893.29 1249.25,-891.55 1299.76,-887.69 1339.62,-884.2"/>
<polygon fill="black" stroke="black" points="1340.12,-887.67 1349.77,-883.3 1339.5,-880.7 1340.12,-887.67"/>
<text text-anchor="middle" x="1124.14" y="-899.09" font-family="Times,serif" font-size="14.00">owl:sameAs</text>
</g>
<!-- https://w3id.org/oseg/ont/otrl#Otrl1&#45;&gt;https://w3id.org/oseg/ont/otrl#OTRL1 -->
<g id="edge39" class="edge">
<title>https://w3id.org/oseg/ont/otrl#Otrl1&#45;&gt;https://w3id.org/oseg/ont/otrl#OTRL1</title>
<path fill="none" stroke="black" d="M967.9,-877.07C993.39,-875.92 1019.49,-874.92 1044.14,-874.29 1115.23,-872.48 1133.03,-873.78 1204.14,-874.29 1247.41,-874.61 1295.75,-875.29 1334.85,-875.92"/>
<polygon fill="black" stroke="black" points="1335.04,-879.42 1345.1,-876.09 1335.16,-872.42 1335.04,-879.42"/>
<text text-anchor="middle" x="1124.14" y="-878.09" font-family="Times,serif" font-size="14.00">schema:supersededBy</text>
</g>
<!-- https://w3id.org/oseg/ont/otrl#Otrl -->
<g id="node29" class="node">
<title>https://w3id.org/oseg/ont/otrl#Otrl</title>
<ellipse fill="none" stroke="black" cx="1412.36" cy="-637.29" rx="188.18" ry="16.03"/>
<text text-anchor="middle" x="1412.36" y="-633.59" font-family="Times,serif" font-size="14.00">https://w3id.org/oseg/ont/otrl#Otrl</text>
</g>
<!-- https://w3id.org/oseg/ont/otrl#Otrl&#45;&gt;https://w3id.org/oseg/ont/otrl#OTRL -->
<g id="edge11" class="edge">
<title>https://w3id.org/oseg/ont/otrl#Otrl&#45;&gt;https://w3id.org/oseg/ont/otrl#OTRL</title>
<path fill="none" stroke="black" d="M1582.69,-644.23C1595.5,-644.63 1608.24,-645 1620.57,-645.29 1703.68,-647.3 1799.27,-647.98 1862.52,-648.2"/>
<polygon fill="black" stroke="black" points="1862.76,-651.7 1872.78,-648.23 1862.79,-644.7 1862.76,-651.7"/>
<text text-anchor="middle" x="1706.57" y="-652.09" font-family="Times,serif" font-size="14.00">owl:sameAs</text>
</g>
<!-- https://w3id.org/oseg/ont/otrl#Otrl&#45;&gt;https://w3id.org/oseg/ont/otrl#OTRL -->
<g id="edge43" class="edge">
<title>https://w3id.org/oseg/ont/otrl#Otrl&#45;&gt;https://w3id.org/oseg/ont/otrl#OTRL</title>
<path fill="none" stroke="black" d="M1550.88,-626.24C1622.95,-622.23 1712.62,-620.05 1792.57,-626.29 1819.52,-628.4 1849.13,-632.75 1874.15,-637.03"/>
<polygon fill="black" stroke="black" points="1873.76,-640.51 1884.22,-638.79 1874.97,-633.62 1873.76,-640.51"/>
<text text-anchor="middle" x="1706.57" y="-630.09" font-family="Times,serif" font-size="14.00">schema:supersededBy</text>
</g>
<!-- https://w3id.org/oseg/ont/otrl#Otrl3 -->
<g id="node30" class="node">
<title>https://w3id.org/oseg/ont/otrl#Otrl3</title>
<ellipse fill="none" stroke="black" cx="807.65" cy="-745.29" rx="194.41" ry="16.03"/>
<text text-anchor="middle" x="807.65" y="-741.59" font-family="Times,serif" font-size="14.00">https://w3id.org/oseg/ont/otrl#Otrl3</text>
</g>
<!-- https://w3id.org/oseg/ont/otrl#Otrl3&#45;&gt;https://w3id.org/oseg/ont/otrl#OTRL3 -->
<g id="edge12" class="edge">
<title>https://w3id.org/oseg/ont/otrl#Otrl3&#45;&gt;https://w3id.org/oseg/ont/otrl#OTRL3</title>
<path fill="none" stroke="black" d="M1001,-743.38C1114.27,-742.25 1251.29,-740.89 1334.84,-740.05"/>
<polygon fill="black" stroke="black" points="1335.04,-743.55 1345.01,-739.95 1334.97,-736.55 1335.04,-743.55"/>
<text text-anchor="middle" x="1124.14" y="-747.09" font-family="Times,serif" font-size="14.00">owl:sameAs</text>
</g>
<!-- https://w3id.org/oseg/ont/otrl#Otrl3&#45;&gt;https://w3id.org/oseg/ont/otrl#OTRL3 -->
<g id="edge29" class="edge">
<title>https://w3id.org/oseg/ont/otrl#Otrl3&#45;&gt;https://w3id.org/oseg/ont/otrl#OTRL3</title>
<path fill="none" stroke="black" d="M924.68,-732.29C962.7,-728.61 1005.18,-725.11 1044.14,-723.29 1115.18,-719.98 1133.09,-720.55 1204.14,-723.29 1249.25,-725.03 1299.76,-728.89 1339.62,-732.39"/>
<polygon fill="black" stroke="black" points="1339.5,-735.89 1349.77,-733.29 1340.12,-728.92 1339.5,-735.89"/>
<text text-anchor="middle" x="1124.14" y="-727.09" font-family="Times,serif" font-size="14.00">schema:supersededBy</text>
</g>
<!-- https://w3id.org/oseg/ont/otrl#Odrl3Star -->
<g id="node31" class="node">
<title>https://w3id.org/oseg/ont/otrl#Odrl3Star</title>
<ellipse fill="none" stroke="black" cx="807.65" cy="-332.29" rx="218.49" ry="16.03"/>
<text text-anchor="middle" x="807.65" y="-328.59" font-family="Times,serif" font-size="14.00">https://w3id.org/oseg/ont/otrl#Odrl3Star</text>
</g>
<!-- https://w3id.org/oseg/ont/otrl#Odrl3Star&#45;&gt;https://w3id.org/oseg/ont/otrl#ODRL3Star -->
<g id="edge13" class="edge">
<title>https://w3id.org/oseg/ont/otrl#Odrl3Star&#45;&gt;https://w3id.org/oseg/ont/otrl#ODRL3Star</title>
<path fill="none" stroke="black" d="M1021.68,-328.93C1080.79,-327.45 1144.98,-325.32 1204.14,-322.29 1242.35,-320.34 1284.46,-317.25 1320.67,-314.32"/>
<polygon fill="black" stroke="black" points="1321.04,-317.8 1330.73,-313.49 1320.47,-310.82 1321.04,-317.8"/>
<text text-anchor="middle" x="1124.14" y="-332.09" font-family="Times,serif" font-size="14.00">schema:supersededBy</text>
</g>
<!-- https://w3id.org/oseg/ont/otrl#Odrl3Star&#45;&gt;https://w3id.org/oseg/ont/otrl#ODRL3Star -->
<g id="edge21" class="edge">
<title>https://w3id.org/oseg/ont/otrl#Odrl3Star&#45;&gt;https://w3id.org/oseg/ont/otrl#ODRL3Star</title>
<path fill="none" stroke="black" d="M905.22,-317.69C947.72,-311.97 998.3,-306.1 1044.14,-303.29 1115.12,-298.94 1133.03,-302.78 1204.14,-303.29 1239.19,-303.55 1277.57,-304.04 1311.68,-304.56"/>
<polygon fill="black" stroke="black" points="1312.06,-308.06 1322.11,-304.72 1312.17,-301.06 1312.06,-308.06"/>
<text text-anchor="middle" x="1124.14" y="-307.09" font-family="Times,serif" font-size="14.00">owl:sameAs</text>
</g>
<!-- https://w3id.org/oseg/ont/otrl#Otrl2 -->
<g id="node32" class="node">
<title>https://w3id.org/oseg/ont/otrl#Otrl2</title>
<ellipse fill="none" stroke="black" cx="807.65" cy="-516.29" rx="194.41" ry="16.03"/>
<text text-anchor="middle" x="807.65" y="-512.59" font-family="Times,serif" font-size="14.00">https://w3id.org/oseg/ont/otrl#Otrl2</text>
</g>
<!-- https://w3id.org/oseg/ont/otrl#Otrl2&#45;&gt;https://w3id.org/oseg/ont/otrl#OTRL2 -->
<g id="edge16" class="edge">
<title>https://w3id.org/oseg/ont/otrl#Otrl2&#45;&gt;https://w3id.org/oseg/ont/otrl#OTRL2</title>
<path fill="none" stroke="black" d="M989.89,-522.01C1105.32,-525.64 1248.86,-530.17 1335.13,-532.89"/>
<polygon fill="black" stroke="black" points="1335.26,-536.4 1345.37,-533.21 1335.48,-529.4 1335.26,-536.4"/>
<text text-anchor="middle" x="1124.14" y="-533.09" font-family="Times,serif" font-size="14.00">owl:sameAs</text>
</g>
<!-- https://w3id.org/oseg/ont/otrl#Otrl2&#45;&gt;https://w3id.org/oseg/ont/otrl#OTRL2 -->
<g id="edge46" class="edge">
<title>https://w3id.org/oseg/ont/otrl#Otrl2&#45;&gt;https://w3id.org/oseg/ont/otrl#OTRL2</title>
<path fill="none" stroke="black" d="M952.51,-505.41C1027.59,-501.47 1120.9,-499.3 1204.14,-505.29 1252.77,-508.79 1307.33,-516.86 1348.25,-523.75"/>
<polygon fill="black" stroke="black" points="1347.9,-527.24 1358.35,-525.47 1349.08,-520.34 1347.9,-527.24"/>
<text text-anchor="middle" x="1124.14" y="-509.09" font-family="Times,serif" font-size="14.00">schema:supersededBy</text>
</g>
<!-- https://w3id.org/oseg/ont/otrl#Odrl2 -->
<g id="node33" class="node">
<title>https://w3id.org/oseg/ont/otrl#Odrl2</title>
<ellipse fill="none" stroke="black" cx="807.65" cy="-249.29" rx="196.65" ry="16.03"/>
<text text-anchor="middle" x="807.65" y="-245.59" font-family="Times,serif" font-size="14.00">https://w3id.org/oseg/ont/otrl#Odrl2</text>
</g>
<!-- https://w3id.org/oseg/ont/otrl#Odrl2&#45;&gt;https://w3id.org/oseg/ont/otrl#ODRL2 -->
<g id="edge22" class="edge">
<title>https://w3id.org/oseg/ont/otrl#Odrl2&#45;&gt;https://w3id.org/oseg/ont/otrl#ODRL2</title>
<path fill="none" stroke="black" d="M1003.78,-248.08C1067.64,-247.61 1138.92,-247.01 1204.14,-246.29 1246.58,-245.82 1293.9,-245.15 1332.6,-244.56"/>
<polygon fill="black" stroke="black" points="1332.81,-248.06 1342.76,-244.4 1332.71,-241.06 1332.81,-248.06"/>
<text text-anchor="middle" x="1124.14" y="-252.09" font-family="Times,serif" font-size="14.00">schema:supersededBy</text>
</g>
<!-- https://w3id.org/oseg/ont/otrl#Odrl2&#45;&gt;https://w3id.org/oseg/ont/otrl#ODRL2 -->
<g id="edge38" class="edge">
<title>https://w3id.org/oseg/ont/otrl#Odrl2&#45;&gt;https://w3id.org/oseg/ont/otrl#ODRL2</title>
<path fill="none" stroke="black" d="M925.29,-236.23C963.15,-232.57 1005.38,-229.1 1044.14,-227.29 1115.18,-223.98 1133.09,-224.55 1204.14,-227.29 1248.59,-229.01 1298.27,-232.78 1337.85,-236.23"/>
<polygon fill="black" stroke="black" points="1337.68,-239.73 1347.95,-237.12 1338.29,-232.76 1337.68,-239.73"/>
<text text-anchor="middle" x="1124.14" y="-231.09" font-family="Times,serif" font-size="14.00">owl:sameAs</text>
</g>
<!-- https://w3id.org/oseg/ont/otrl#Odrl1 -->
<g id="node34" class="node">
<title>https://w3id.org/oseg/ont/otrl#Odrl1</title>
<ellipse fill="none" stroke="black" cx="807.65" cy="-106.29" rx="196.65" ry="16.03"/>
<text text-anchor="middle" x="807.65" y="-102.59" font-family="Times,serif" font-size="14.00">https://w3id.org/oseg/ont/otrl#Odrl1</text>
</g>
<!-- https://w3id.org/oseg/ont/otrl#Odrl1&#45;&gt;https://w3id.org/oseg/ont/otrl#ODRL1 -->
<g id="edge23" class="edge">
<title>https://w3id.org/oseg/ont/otrl#Odrl1&#45;&gt;https://w3id.org/oseg/ont/otrl#ODRL1</title>
<path fill="none" stroke="black" d="M995.22,-101.34C1108.84,-98.32 1248.05,-94.63 1333.19,-92.37"/>
<polygon fill="black" stroke="black" points="1333.39,-95.86 1343.29,-92.1 1333.21,-88.87 1333.39,-95.86"/>
<text text-anchor="middle" x="1124.14" y="-104.09" font-family="Times,serif" font-size="14.00">schema:supersededBy</text>
</g>
<!-- https://w3id.org/oseg/ont/otrl#Odrl1&#45;&gt;https://w3id.org/oseg/ont/otrl#ODRL1 -->
<g id="edge50" class="edge">
<title>https://w3id.org/oseg/ont/otrl#Odrl1&#45;&gt;https://w3id.org/oseg/ont/otrl#ODRL1</title>
<path fill="none" stroke="black" d="M902.65,-92.04C945.67,-86.21 997.37,-80.16 1044.14,-77.29 1115.12,-72.94 1133.07,-75.06 1204.14,-77.29 1248.06,-78.67 1297.13,-81.68 1336.49,-84.46"/>
<polygon fill="black" stroke="black" points="1336.32,-87.96 1346.54,-85.18 1336.81,-80.97 1336.32,-87.96"/>
<text text-anchor="middle" x="1124.14" y="-81.09" font-family="Times,serif" font-size="14.00">owl:sameAs</text>
</g>
<!-- https://w3id.org/oseg/ont/otrl#Odrl3 -->
<g id="node35" class="node">
<title>https://w3id.org/oseg/ont/otrl#Odrl3</title>
<ellipse fill="none" stroke="black" cx="807.65" cy="-163.29" rx="196.65" ry="16.03"/>
<text text-anchor="middle" x="807.65" y="-159.59" font-family="Times,serif" font-size="14.00">https://w3id.org/oseg/ont/otrl#Odrl3</text>
</g>
<!-- https://w3id.org/oseg/ont/otrl#Odrl3&#45;&gt;https://w3id.org/oseg/ont/otrl#ODRL3 -->
<g id="edge24" class="edge">
<title>https://w3id.org/oseg/ont/otrl#Odrl3&#45;&gt;https://w3id.org/oseg/ont/otrl#ODRL3</title>
<path fill="none" stroke="black" d="M978.14,-171.45C1094.98,-177.07 1244.75,-184.28 1334.1,-188.58"/>
<polygon fill="black" stroke="black" points="1334,-192.07 1344.16,-189.06 1334.34,-185.08 1334,-192.07"/>
<text text-anchor="middle" x="1124.14" y="-186.09" font-family="Times,serif" font-size="14.00">owl:sameAs</text>
</g>
<!-- https://w3id.org/oseg/ont/otrl#Odrl3&#45;&gt;https://w3id.org/oseg/ont/otrl#ODRL3 -->
<g id="edge42" class="edge">
<title>https://w3id.org/oseg/ont/otrl#Odrl3&#45;&gt;https://w3id.org/oseg/ont/otrl#ODRL3</title>
<path fill="none" stroke="black" d="M894.68,-148.67C975.86,-137.92 1100.27,-129.38 1204.14,-156.29 1213,-158.59 1213.46,-163.4 1222.14,-166.29 1257.93,-178.22 1299.28,-184.69 1334.18,-188.18"/>
<polygon fill="black" stroke="black" points="1334.03,-191.68 1344.31,-189.13 1334.68,-184.71 1334.03,-191.68"/>
<text text-anchor="middle" x="1124.14" y="-160.09" font-family="Times,serif" font-size="14.00">schema:supersededBy</text>
</g>
<!-- https://w3id.org/oseg/ont/otrl#Odrl5 -->
<g id="node36" class="node">
<title>https://w3id.org/oseg/ont/otrl#Odrl5</title>
<ellipse fill="none" stroke="black" cx="196.58" cy="-21.29" rx="196.65" ry="16.03"/>
<text text-anchor="middle" x="196.58" y="-17.59" font-family="Times,serif" font-size="14.00">https://w3id.org/oseg/ont/otrl#Odrl5</text>
</g>
<!-- https://w3id.org/oseg/ont/otrl#Odrl5&#45;&gt;https://w3id.org/oseg/ont/otrl#Odrl4 -->
<g id="edge25" class="edge">
<title>https://w3id.org/oseg/ont/otrl#Odrl5&#45;&gt;https://w3id.org/oseg/ont/otrl#Odrl4</title>
<path fill="none" stroke="black" d="M393.22,-21.29C510.43,-21.29 652.42,-21.29 735.81,-21.29"/>
<polygon fill="black" stroke="black" points="735.94,-24.79 745.94,-21.29 735.94,-17.79 735.94,-24.79"/>
<text text-anchor="middle" x="491.15" y="-25.09" font-family="Times,serif" font-size="14.00">schema:supersededBy</text>
</g>
<!-- https://w3id.org/oseg/ont/otrl#Odrl5&#45;&gt;https://w3id.org/oseg/ont/otrl#Odrl4 -->
<g id="edge51" class="edge">
<title>https://w3id.org/oseg/ont/otrl#Odrl5&#45;&gt;https://w3id.org/oseg/ont/otrl#Odrl4</title>
<path fill="none" stroke="black" d="M319.43,-8.57C349.39,-5.96 381.4,-3.61 411.15,-2.29 482.19,0.86 500.1,0.57 571.15,-2.29 628.23,-4.59 692.91,-10.01 740.02,-14.48"/>
<polygon fill="black" stroke="black" points="739.81,-17.97 750.1,-15.44 740.48,-11.01 739.81,-17.97"/>
<text text-anchor="middle" x="491.15" y="-6.09" font-family="Times,serif" font-size="14.00">owl:sameAs</text>
</g>
<!-- https://w3id.org/oseg/ont/otrl#Otrl5 -->
<g id="node37" class="node">
<title>https://w3id.org/oseg/ont/otrl#Otrl5</title>
<ellipse fill="none" stroke="black" cx="807.65" cy="-829.29" rx="194.41" ry="16.03"/>
<text text-anchor="middle" x="807.65" y="-825.59" font-family="Times,serif" font-size="14.00">https://w3id.org/oseg/ont/otrl#Otrl5</text>
</g>
<!-- https://w3id.org/oseg/ont/otrl#Otrl5&#45;&gt;https://w3id.org/oseg/ont/otrl#OTRL5 -->
<g id="edge27" class="edge">
<title>https://w3id.org/oseg/ont/otrl#Otrl5&#45;&gt;https://w3id.org/oseg/ont/otrl#OTRL5</title>
<path fill="none" stroke="black" d="M996.82,-825.38C1062.45,-823.54 1136.58,-820.92 1204.14,-817.29 1248.89,-814.89 1298.98,-811.05 1338.71,-807.74"/>
<polygon fill="black" stroke="black" points="1339.17,-811.21 1348.84,-806.88 1338.58,-804.24 1339.17,-811.21"/>
<text text-anchor="middle" x="1124.14" y="-828.09" font-family="Times,serif" font-size="14.00">schema:supersededBy</text>
</g>
<!-- https://w3id.org/oseg/ont/otrl#Otrl5&#45;&gt;https://w3id.org/oseg/ont/otrl#OTRL5 -->
<g id="edge52" class="edge">
<title>https://w3id.org/oseg/ont/otrl#Otrl5&#45;&gt;https://w3id.org/oseg/ont/otrl#OTRL5</title>
<path fill="none" stroke="black" d="M897.28,-814.84C941.3,-808.37 995.38,-801.49 1044.14,-798.29 1115.1,-793.64 1133.03,-797.78 1204.14,-798.29 1247.41,-798.61 1295.75,-799.29 1334.85,-799.92"/>
<polygon fill="black" stroke="black" points="1335.04,-803.42 1345.1,-800.09 1335.16,-796.42 1335.04,-803.42"/>
<text text-anchor="middle" x="1124.14" y="-802.09" font-family="Times,serif" font-size="14.00">owl:sameAs</text>
</g>
<!-- https://w3id.org/oseg/ont/otrl#Otrl4 -->
<g id="node38" class="node">
<title>https://w3id.org/oseg/ont/otrl#Otrl4</title>
<ellipse fill="none" stroke="black" cx="807.65" cy="-675.29" rx="194.41" ry="16.03"/>
<text text-anchor="middle" x="807.65" y="-671.59" font-family="Times,serif" font-size="14.00">https://w3id.org/oseg/ont/otrl#Otrl4</text>
</g>
<!-- https://w3id.org/oseg/ont/otrl#Otrl4&#45;&gt;https://w3id.org/oseg/ont/otrl#OTRL4 -->
<g id="edge47" class="edge">
<title>https://w3id.org/oseg/ont/otrl#Otrl4&#45;&gt;https://w3id.org/oseg/ont/otrl#OTRL4</title>
<path fill="none" stroke="black" d="M996.04,-679.33C1110.44,-681.8 1250.53,-684.82 1335.26,-686.65"/>
<polygon fill="black" stroke="black" points="1335.24,-690.15 1345.31,-686.87 1335.39,-683.15 1335.24,-690.15"/>
<text text-anchor="middle" x="1124.14" y="-688.09" font-family="Times,serif" font-size="14.00">owl:sameAs</text>
</g>
<!-- https://w3id.org/oseg/ont/otrl#Otrl4&#45;&gt;https://w3id.org/oseg/ont/otrl#OTRL4 -->
<g id="edge53" class="edge">
<title>https://w3id.org/oseg/ont/otrl#Otrl4&#45;&gt;https://w3id.org/oseg/ont/otrl#OTRL4</title>
<path fill="none" stroke="black" d="M949.69,-664.14C1025.21,-659.82 1119.81,-657.02 1204.14,-662.29 1251.68,-665.26 1304.99,-672.03 1345.64,-677.92"/>
<polygon fill="black" stroke="black" points="1345.28,-681.4 1355.69,-679.39 1346.3,-674.48 1345.28,-681.4"/>
<text text-anchor="middle" x="1124.14" y="-666.09" font-family="Times,serif" font-size="14.00">schema:supersededBy</text>
</g>
</g>
</svg>
