<?xml version="1.0" encoding="UTF-8" standalone="no"?>
<!DOCTYPE svg PUBLIC "-//W3C//DTD SVG 1.1//EN"
 "http://www.w3.org/Graphics/SVG/1.1/DTD/svg11.dtd">
<!-- Generated by graphviz version 2.43.0 (0)
 -->
<!-- Title: G Pages: 1 -->
<svg width="2019pt" height="1891pt"
 viewBox="0.00 0.00 2019.00 1891.00" xmlns="http://www.w3.org/2000/svg" xmlns:xlink="http://www.w3.org/1999/xlink">
<g id="graph0" class="graph" transform="scale(1 1) rotate(0) translate(4 1887)">
<title>G</title>
<polygon fill="white" stroke="transparent" points="-4,4 -4,-1887 2015,-1887 2015,4 -4,4"/>
<!-- http://w3id.org/oseg/ont/otrl#OTRL -->
<g id="node1" class="node">
<title>http://w3id.org/oseg/ont/otrl#OTRL</title>
<ellipse fill="none" stroke="#e377c2" cx="1161.55" cy="-540.31" rx="60.62" ry="16.03"/>
<text text-anchor="middle" x="1161.55" y="-536.61" font-family="Times,serif" font-size="14.00">otrl:OTRL</text>
</g>
<!-- http://spdx.org/rdf/terms#SpdxItem -->
<g id="node2" class="node">
<title>http://spdx.org/rdf/terms#SpdxItem</title>
<ellipse fill="none" stroke="#1f77b4" cx="1482.34" cy="-1269.16" rx="87.86" ry="16.03"/>
<text text-anchor="middle" x="1482.34" y="-1265.46" font-family="Times,serif" font-size="14.00">spdx:SpdxItem</text>
</g>
<!-- http://w3id.org/oseg/ont/otrl#ODRL -->
<g id="node3" class="node">
<title>http://w3id.org/oseg/ont/otrl#ODRL</title>
<ellipse fill="none" stroke="#e377c2" cx="833.11" cy="-1066.77" rx="62.87" ry="16.03"/>
<text text-anchor="middle" x="833.11" y="-1063.07" font-family="Times,serif" font-size="14.00">otrl:ODRL</text>
</g>
<!-- http://w3id.org/oseg/ont/otrl#ODRL1 -->
<g id="node4" class="node">
<title>http://w3id.org/oseg/ont/otrl#ODRL1</title>
<ellipse fill="none" stroke="#e377c2" cx="560.12" cy="-1137.26" rx="69.09" ry="16.03"/>
<text text-anchor="middle" x="560.12" y="-1133.56" font-family="Times,serif" font-size="14.00">otrl:ODRL1</text>
</g>
<!-- http://w3id.org/oseg/ont/otrl#ODRL1&#45;&gt;http://w3id.org/oseg/ont/otrl#ODRL -->
<g id="edge37" class="edge">
<title>http://w3id.org/oseg/ont/otrl#ODRL1&#45;&gt;http://w3id.org/oseg/ont/otrl#ODRL</title>
<path fill="none" stroke="black" d="M606.74,-1125.22C654.42,-1112.91 728.45,-1093.8 778.77,-1080.81"/>
<polygon fill="black" stroke="black" points="779.69,-1084.18 788.5,-1078.29 777.94,-1077.4 779.69,-1084.18"/>
<text text-anchor="middle" x="688.25" y="-1106.82" font-family="Times,serif" font-size="14.00">a</text>
</g>
<!-- http://w3id.org/oseg/ont/otrl#ODRL3Star -->
<g id="node5" class="node">
<title>http://w3id.org/oseg/ont/otrl#ODRL3Star</title>
<ellipse fill="none" stroke="#e377c2" cx="1007.64" cy="-1107.45" rx="90.52" ry="16.03"/>
<text text-anchor="middle" x="1007.64" y="-1103.75" font-family="Times,serif" font-size="14.00">otrl:ODRL3Star</text>
</g>
<!-- http://w3id.org/oseg/ont/otrl#ODRL3Star&#45;&gt;http://w3id.org/oseg/ont/otrl#ODRL -->
<g id="edge28" class="edge">
<title>http://w3id.org/oseg/ont/otrl#ODRL3Star&#45;&gt;http://w3id.org/oseg/ont/otrl#ODRL</title>
<path fill="none" stroke="black" d="M951.94,-1094.47C932.14,-1089.85 909.84,-1084.66 889.94,-1080.02"/>
<polygon fill="black" stroke="black" points="890.63,-1076.58 880.09,-1077.72 889.04,-1083.4 890.63,-1076.58"/>
<text text-anchor="middle" x="916.44" y="-1076.04" font-family="Times,serif" font-size="14.00">a</text>
</g>
<!-- http://w3id.org/oseg/ont/otrl#ODRL4 -->
<g id="node6" class="node">
<title>http://w3id.org/oseg/ont/otrl#ODRL4</title>
<ellipse fill="none" stroke="#e377c2" cx="638.16" cy="-1308.02" rx="69.09" ry="16.03"/>
<text text-anchor="middle" x="638.16" y="-1304.32" font-family="Times,serif" font-size="14.00">otrl:ODRL4</text>
</g>
<!-- http://w3id.org/oseg/ont/otrl#ODRL4&#45;&gt;http://w3id.org/oseg/ont/otrl#ODRL -->
<g id="edge32" class="edge">
<title>http://w3id.org/oseg/ont/otrl#ODRL4&#45;&gt;http://w3id.org/oseg/ont/otrl#ODRL</title>
<path fill="none" stroke="black" d="M651.25,-1291.81C684.82,-1250.27 774.11,-1139.78 813.72,-1090.77"/>
<polygon fill="black" stroke="black" points="816.51,-1092.88 820.08,-1082.91 811.07,-1088.48 816.51,-1092.88"/>
<text text-anchor="middle" x="727.99" y="-1195.09" font-family="Times,serif" font-size="14.00">a</text>
</g>
<!-- http://w3id.org/oseg/ont/otrl#Odrl4 -->
<g id="node7" class="node">
<title>http://w3id.org/oseg/ont/otrl#Odrl4</title>
<ellipse fill="none" stroke="#e377c2" cx="504.89" cy="-1536.9" rx="61.54" ry="16.03"/>
<text text-anchor="middle" x="504.89" y="-1533.2" font-family="Times,serif" font-size="14.00">otrl:Odrl4</text>
</g>
<!-- http://w3id.org/oseg/ont/otrl#Odrl4&#45;&gt;http://w3id.org/oseg/ont/otrl#ODRL4 -->
<g id="edge1" class="edge">
<title>http://w3id.org/oseg/ont/otrl#Odrl4&#45;&gt;http://w3id.org/oseg/ont/otrl#ODRL4</title>
<path fill="none" stroke="black" d="M514.26,-1520.81C537.14,-1481.5 596.01,-1380.4 623.55,-1333.11"/>
<polygon fill="black" stroke="black" points="626.61,-1334.8 628.62,-1324.4 620.56,-1331.28 626.61,-1334.8"/>
<text text-anchor="middle" x="488.9" y="-1430.76" font-family="Times,serif" font-size="14.00">schema:supersededBy</text>
</g>
<!-- http://www.w3.org/1999/02/22&#45;rdf&#45;syntax&#45;ns#langString -->
<g id="node8" class="node">
<title>http://www.w3.org/1999/02/22&#45;rdf&#45;syntax&#45;ns#langString</title>
<ellipse fill="none" stroke="#e377c2" cx="790.12" cy="-728.46" rx="83.38" ry="16.03"/>
<text text-anchor="middle" x="790.12" y="-724.76" font-family="Times,serif" font-size="14.00">rdf:langString</text>
</g>
<!-- http://id.loc.gov/vocabulary/iso639&#45;1/en -->
<g id="node9" class="node">
<title>http://id.loc.gov/vocabulary/iso639&#45;1/en</title>
<ellipse fill="none" stroke="#e377c2" cx="1706.07" cy="-1289.91" rx="45.01" ry="16.03"/>
<text text-anchor="middle" x="1706.07" y="-1286.21" font-family="Times,serif" font-size="14.00">ns1:en</text>
</g>
<!-- http://w3id.org/oseg/ont/otrl#OTRL4 -->
<g id="node10" class="node">
<title>http://w3id.org/oseg/ont/otrl#OTRL4</title>
<ellipse fill="none" stroke="#e377c2" cx="1427.47" cy="-513.85" rx="67.35" ry="16.03"/>
<text text-anchor="middle" x="1427.47" y="-510.15" font-family="Times,serif" font-size="14.00">otrl:OTRL4</text>
</g>
<!-- http://w3id.org/oseg/ont/otrl#OTRL4&#45;&gt;http://w3id.org/oseg/ont/otrl#OTRL -->
<g id="edge27" class="edge">
<title>http://w3id.org/oseg/ont/otrl#OTRL4&#45;&gt;http://w3id.org/oseg/ont/otrl#OTRL</title>
<path fill="none" stroke="black" d="M1365.12,-520.05C1324.28,-524.12 1270.91,-529.43 1229.06,-533.59"/>
<polygon fill="black" stroke="black" points="1228.57,-530.13 1218.96,-534.6 1229.26,-537.09 1228.57,-530.13"/>
<text text-anchor="middle" x="1292.59" y="-530.62" font-family="Times,serif" font-size="14.00">a</text>
</g>
<!-- http://w3id.org/oseg/ont/otrl#OTRL1 -->
<g id="node11" class="node">
<title>http://w3id.org/oseg/ont/otrl#OTRL1</title>
<ellipse fill="none" stroke="#e377c2" cx="951.62" cy="-390.36" rx="67.35" ry="16.03"/>
<text text-anchor="middle" x="951.62" y="-386.66" font-family="Times,serif" font-size="14.00">otrl:OTRL1</text>
</g>
<!-- http://w3id.org/oseg/ont/otrl#OTRL1&#45;&gt;http://w3id.org/oseg/ont/otrl#OTRL -->
<g id="edge9" class="edge">
<title>http://w3id.org/oseg/ont/otrl#OTRL1&#45;&gt;http://w3id.org/oseg/ont/otrl#OTRL</title>
<path fill="none" stroke="black" d="M973.29,-405.85C1011.02,-432.8 1088.83,-488.37 1131.66,-518.96"/>
<polygon fill="black" stroke="black" points="1129.82,-521.95 1139.99,-524.91 1133.89,-516.25 1129.82,-521.95"/>
<text text-anchor="middle" x="1047.98" y="-466.2" font-family="Times,serif" font-size="14.00">a</text>
</g>
<!-- http://w3id.org/oseg/ont/otrl#OTRL6 -->
<g id="node12" class="node">
<title>http://w3id.org/oseg/ont/otrl#OTRL6</title>
<ellipse fill="none" stroke="#e377c2" cx="958.68" cy="-332.89" rx="67.35" ry="16.03"/>
<text text-anchor="middle" x="958.68" y="-329.19" font-family="Times,serif" font-size="14.00">otrl:OTRL6</text>
</g>
<!-- http://w3id.org/oseg/ont/otrl#OTRL6&#45;&gt;http://w3id.org/oseg/ont/otrl#OTRL -->
<g id="edge29" class="edge">
<title>http://w3id.org/oseg/ont/otrl#OTRL6&#45;&gt;http://w3id.org/oseg/ont/otrl#OTRL</title>
<path fill="none" stroke="black" d="M974.26,-348.82C1009.81,-385.17 1097.04,-474.35 1138.69,-516.94"/>
<polygon fill="black" stroke="black" points="1136.42,-519.62 1145.91,-524.33 1141.42,-514.73 1136.42,-519.62"/>
<text text-anchor="middle" x="1051.98" y="-436.68" font-family="Times,serif" font-size="14.00">a</text>
</g>
<!-- http://spdx.org/licenses/GPL&#45;3.0&#45;or&#45;later -->
<g id="node13" class="node">
<title>http://spdx.org/licenses/GPL&#45;3.0&#45;or&#45;later</title>
<ellipse fill="none" stroke="#e377c2" cx="1662.13" cy="-1091.62" rx="108.79" ry="16.03"/>
<text text-anchor="middle" x="1662.13" y="-1087.92" font-family="Times,serif" font-size="14.00">spdxl:GPL&#45;3.0&#45;or&#45;...</text>
</g>
<!-- http://w3id.org/oseg/ont/otrl -->
<g id="node14" class="node">
<title>http://w3id.org/oseg/ont/otrl</title>
<ellipse fill="none" stroke="#e377c2" cx="1641.07" cy="-1135.76" rx="50.82" ry="16.03"/>
<text text-anchor="middle" x="1641.07" y="-1132.06" font-family="Times,serif" font-size="14.00">ns2:otrl</text>
</g>
<!-- http://w3id.org/oseg/ont/otrl&#45;&gt;http://spdx.org/rdf/terms#SpdxItem -->
<g id="edge12" class="edge">
<title>http://w3id.org/oseg/ont/otrl&#45;&gt;http://spdx.org/rdf/terms#SpdxItem</title>
<path fill="none" stroke="black" d="M1622.86,-1151.06C1594.93,-1174.53 1541.37,-1219.54 1509.05,-1246.71"/>
<polygon fill="black" stroke="black" points="1506.72,-1244.09 1501.32,-1253.21 1511.22,-1249.45 1506.72,-1244.09"/>
<text text-anchor="middle" x="1561.45" y="-1202.68" font-family="Times,serif" font-size="14.00">a</text>
</g>
<!-- http://w3id.org/oseg/ont/otrl&#45;&gt;http://id.loc.gov/vocabulary/iso639&#45;1/en -->
<g id="edge6" class="edge">
<title>http://w3id.org/oseg/ont/otrl&#45;&gt;http://id.loc.gov/vocabulary/iso639&#45;1/en</title>
<path fill="none" stroke="black" d="M1647.9,-1151.96C1659.13,-1178.61 1681.61,-1231.9 1695.09,-1263.88"/>
<polygon fill="black" stroke="black" points="1692.02,-1265.6 1699.13,-1273.46 1698.47,-1262.88 1692.02,-1265.6"/>
<text text-anchor="middle" x="1736" y="-1211.72" font-family="Times,serif" font-size="14.00">dcterms:language</text>
</g>
<!-- http://w3id.org/oseg/ont/otrl&#45;&gt;http://spdx.org/licenses/GPL&#45;3.0&#45;or&#45;later -->
<g id="edge11" class="edge">
<title>http://w3id.org/oseg/ont/otrl&#45;&gt;http://spdx.org/licenses/GPL&#45;3.0&#45;or&#45;later</title>
<path fill="none" stroke="black" d="M1648.79,-1119.57C1649.12,-1118.87 1649.46,-1118.16 1649.8,-1117.45"/>
<polygon fill="black" stroke="black" points="1653.12,-1118.63 1654.26,-1108.1 1646.8,-1115.62 1653.12,-1118.63"/>
<text text-anchor="middle" x="1573.3" y="-1107.31" font-family="Times,serif" font-size="14.00">spdx:licenseDeclared</text>
</g>
<!-- http://w3id.org/oseg/ont/oseg&#45;profiles#robinVobruba -->
<g id="node16" class="node">
<title>http://w3id.org/oseg/ont/oseg&#45;profiles#robinVobruba</title>
<ellipse fill="none" stroke="#e377c2" cx="1883.02" cy="-1149.55" rx="113.69" ry="16.03"/>
<text text-anchor="middle" x="1883.02" y="-1145.85" font-family="Times,serif" font-size="14.00">osegprof:robinVob...</text>
</g>
<!-- http://w3id.org/oseg/ont/otrl&#45;&gt;http://w3id.org/oseg/ont/oseg&#45;profiles#robinVobruba -->
<g id="edge15" class="edge">
<title>http://w3id.org/oseg/ont/otrl&#45;&gt;http://w3id.org/oseg/ont/oseg&#45;profiles#robinVobruba</title>
<path fill="none" stroke="black" d="M1685.7,-1143.7C1706.61,-1145.77 1732.68,-1147.71 1758.93,-1149.24"/>
<polygon fill="black" stroke="black" points="1758.81,-1152.73 1769,-1149.8 1759.21,-1145.74 1758.81,-1152.73"/>
<text text-anchor="middle" x="1750.07" y="-1135.27" font-family="Times,serif" font-size="14.00">schema:creator</text>
</g>
<!-- http://w3id.org/oseg/ont/otrl&#45;&gt;http://w3id.org/oseg/ont/oseg&#45;profiles#robinVobruba -->
<g id="edge33" class="edge">
<title>http://w3id.org/oseg/ont/otrl&#45;&gt;http://w3id.org/oseg/ont/oseg&#45;profiles#robinVobruba</title>
<path fill="none" stroke="black" d="M1691.52,-1133.03C1719.93,-1133.6 1756.31,-1135.33 1789.71,-1137.62"/>
<polygon fill="black" stroke="black" points="1789.75,-1141.14 1799.97,-1138.35 1790.25,-1134.15 1789.75,-1141.14"/>
<text text-anchor="middle" x="1798.12" y="-1124.13" font-family="Times,serif" font-size="14.00">dcterms:creator</text>
</g>
<!-- http://w3id.org/oseg/ont/oseg&#45;profiles#martinHaeuer -->
<g id="node17" class="node">
<title>http://w3id.org/oseg/ont/oseg&#45;profiles#martinHaeuer</title>
<ellipse fill="none" stroke="#e377c2" cx="1639.64" cy="-1179.65" rx="116.85" ry="16.03"/>
<text text-anchor="middle" x="1639.64" y="-1175.95" font-family="Times,serif" font-size="14.00">osegprof:martinHa...</text>
</g>
<!-- http://w3id.org/oseg/ont/otrl&#45;&gt;http://w3id.org/oseg/ont/oseg&#45;profiles#martinHaeuer -->
<g id="edge16" class="edge">
<title>http://w3id.org/oseg/ont/otrl&#45;&gt;http://w3id.org/oseg/ont/oseg&#45;profiles#martinHaeuer</title>
<path fill="none" stroke="black" d="M1633.99,-1151.89C1633.95,-1152.23 1633.92,-1152.58 1633.88,-1152.93"/>
<polygon fill="black" stroke="black" points="1630.38,-1153.14 1633.63,-1163.23 1637.38,-1153.32 1630.38,-1153.14"/>
<text text-anchor="middle" x="1578.44" y="-1156.21" font-family="Times,serif" font-size="14.00">schema:creator</text>
</g>
<!-- http://w3id.org/oseg/ont/otrl&#45;&gt;http://w3id.org/oseg/ont/oseg&#45;profiles#martinHaeuer -->
<g id="edge23" class="edge">
<title>http://w3id.org/oseg/ont/otrl&#45;&gt;http://w3id.org/oseg/ont/oseg&#45;profiles#martinHaeuer</title>
<path fill="none" stroke="black" d="M1647.07,-1152.06C1647.09,-1152.4 1647.1,-1152.75 1647.11,-1153.09"/>
<polygon fill="black" stroke="black" points="1643.61,-1153.06 1646.75,-1163.18 1650.6,-1153.31 1643.61,-1153.06"/>
<text text-anchor="middle" x="1704.59" y="-1156.38" font-family="Times,serif" font-size="14.00">dcterms:creator</text>
</g>
<!-- http://w3id.org/oseg/ont/1.1.0/otrl -->
<g id="node19" class="node">
<title>http://w3id.org/oseg/ont/1.1.0/otrl</title>
<ellipse fill="none" stroke="#e377c2" cx="1492.44" cy="-1057.65" rx="50.82" ry="16.03"/>
<text text-anchor="middle" x="1492.44" y="-1053.95" font-family="Times,serif" font-size="14.00">ns3:otrl</text>
</g>
<!-- http://w3id.org/oseg/ont/otrl&#45;&gt;http://w3id.org/oseg/ont/1.1.0/otrl -->
<g id="edge19" class="edge">
<title>http://w3id.org/oseg/ont/otrl&#45;&gt;http://w3id.org/oseg/ont/1.1.0/otrl</title>
<path fill="none" stroke="black" d="M1614.49,-1121.79C1590.37,-1109.11 1554.6,-1090.32 1528.01,-1076.35"/>
<polygon fill="black" stroke="black" points="1529.51,-1073.18 1519.03,-1071.62 1526.25,-1079.37 1529.51,-1073.18"/>
<text text-anchor="middle" x="1519.75" y="-1087.87" font-family="Times,serif" font-size="14.00">owl:versionIRI</text>
</g>
<!-- http://w3id.org/oseg/ont/oseg&#45;profiles#Iopa -->
<g id="node25" class="node">
<title>http://w3id.org/oseg/ont/oseg&#45;profiles#Iopa</title>
<ellipse fill="none" stroke="#e377c2" cx="1719.83" cy="-946.37" rx="80.72" ry="16.03"/>
<text text-anchor="middle" x="1719.83" y="-942.67" font-family="Times,serif" font-size="14.00">osegprof:Iopa</text>
</g>
<!-- http://w3id.org/oseg/ont/otrl&#45;&gt;http://w3id.org/oseg/ont/oseg&#45;profiles#Iopa -->
<g id="edge38" class="edge">
<title>http://w3id.org/oseg/ont/otrl&#45;&gt;http://w3id.org/oseg/ont/oseg&#45;profiles#Iopa</title>
<path fill="none" stroke="black" d="M1647.78,-1119.61C1661.46,-1086.71 1692.67,-1011.67 1709.16,-972.02"/>
<polygon fill="black" stroke="black" points="1712.41,-973.32 1713.02,-962.74 1705.94,-970.63 1712.41,-973.32"/>
<text text-anchor="middle" x="1612.97" y="-1049.61" font-family="Times,serif" font-size="14.00">dcterms:publisher</text>
</g>
<!-- http://w3id.org/oseg/ont/otrl#ODRL3 -->
<g id="node15" class="node">
<title>http://w3id.org/oseg/ont/otrl#ODRL3</title>
<ellipse fill="none" stroke="#e377c2" cx="1011.22" cy="-1288.89" rx="69.09" ry="16.03"/>
<text text-anchor="middle" x="1011.22" y="-1285.19" font-family="Times,serif" font-size="14.00">otrl:ODRL3</text>
</g>
<!-- http://w3id.org/oseg/ont/otrl#ODRL3&#45;&gt;http://w3id.org/oseg/ont/otrl#ODRL -->
<g id="edge13" class="edge">
<title>http://w3id.org/oseg/ont/otrl#ODRL3&#45;&gt;http://w3id.org/oseg/ont/otrl#ODRL</title>
<path fill="none" stroke="black" d="M998.12,-1272.56C967.04,-1233.79 888.7,-1136.1 852.28,-1090.68"/>
<polygon fill="black" stroke="black" points="854.98,-1088.44 845.99,-1082.83 849.51,-1092.82 854.98,-1088.44"/>
<text text-anchor="middle" x="920.7" y="-1185.42" font-family="Times,serif" font-size="14.00">a</text>
</g>
<!-- http://w3id.org/oseg/ont/otrl#goal -->
<g id="node18" class="node">
<title>http://w3id.org/oseg/ont/otrl#goal</title>
<ellipse fill="none" stroke="#e377c2" cx="971.01" cy="-793.46" rx="54.39" ry="16.03"/>
<text text-anchor="middle" x="971.01" y="-789.76" font-family="Times,serif" font-size="14.00">otrl:goal</text>
</g>
<!-- http://w3id.org/oseg/ont/otrl#goal&#45;&gt;http://w3id.org/oseg/ont/otrl#OTRL -->
<g id="edge7" class="edge">
<title>http://w3id.org/oseg/ont/otrl#goal&#45;&gt;http://w3id.org/oseg/ont/otrl#OTRL</title>
<path fill="none" stroke="black" d="M983.22,-777.24C1015.75,-734.02 1104.67,-615.88 1143.27,-564.6"/>
<polygon fill="black" stroke="black" points="1146.22,-566.49 1149.44,-556.4 1140.63,-562.28 1146.22,-566.49"/>
<text text-anchor="middle" x="977.24" y="-674.72" font-family="Times,serif" font-size="14.00">schema:domainIncludes</text>
</g>
<!-- http://w3id.org/oseg/ont/otrl#goal&#45;&gt;http://w3id.org/oseg/ont/otrl#ODRL -->
<g id="edge17" class="edge">
<title>http://w3id.org/oseg/ont/otrl#goal&#45;&gt;http://w3id.org/oseg/ont/otrl#ODRL</title>
<path fill="none" stroke="black" d="M962.8,-809.74C939.66,-855.6 873.81,-986.1 845.89,-1041.46"/>
<polygon fill="black" stroke="black" points="842.66,-1040.08 841.28,-1050.58 848.91,-1043.23 842.66,-1040.08"/>
<text text-anchor="middle" x="818.34" y="-929.4" font-family="Times,serif" font-size="14.00">schema:domainIncludes</text>
</g>
<!-- http://w3id.org/oseg/ont/otrl#goal&#45;&gt;http://www.w3.org/1999/02/22&#45;rdf&#45;syntax&#45;ns#langString -->
<g id="edge40" class="edge">
<title>http://w3id.org/oseg/ont/otrl#goal&#45;&gt;http://www.w3.org/1999/02/22&#45;rdf&#45;syntax&#45;ns#langString</title>
<path fill="none" stroke="black" d="M936.13,-780.93C908.71,-771.08 870.16,-757.22 839.56,-746.23"/>
<polygon fill="black" stroke="black" points="840.52,-742.85 829.93,-742.77 838.15,-749.44 840.52,-742.85"/>
<text text-anchor="middle" x="866.85" y="-767.38" font-family="Times,serif" font-size="14.00">range</text>
</g>
<!-- http://w3id.org/oseg/ont/otrl#OTRL2 -->
<g id="node20" class="node">
<title>http://w3id.org/oseg/ont/otrl#OTRL2</title>
<ellipse fill="none" stroke="#e377c2" cx="1347.06" cy="-673.75" rx="67.35" ry="16.03"/>
<text text-anchor="middle" x="1347.06" y="-670.05" font-family="Times,serif" font-size="14.00">otrl:OTRL2</text>
</g>
<!-- http://w3id.org/oseg/ont/otrl#OTRL2&#45;&gt;http://w3id.org/oseg/ont/otrl#OTRL -->
<g id="edge34" class="edge">
<title>http://w3id.org/oseg/ont/otrl#OTRL2&#45;&gt;http://w3id.org/oseg/ont/otrl#OTRL</title>
<path fill="none" stroke="black" d="M1325.41,-658.18C1292.23,-634.31 1228.71,-588.62 1191.25,-561.67"/>
<polygon fill="black" stroke="black" points="1192.93,-558.57 1182.77,-555.58 1188.84,-564.26 1192.93,-558.57"/>
<text text-anchor="middle" x="1253.83" y="-613.73" font-family="Times,serif" font-size="14.00">a</text>
</g>
<!-- http://w3id.org/oseg/ont/otrl#ODRL2 -->
<g id="node21" class="node">
<title>http://w3id.org/oseg/ont/otrl#ODRL2</title>
<ellipse fill="none" stroke="#e377c2" cx="859.38" cy="-1289.68" rx="69.09" ry="16.03"/>
<text text-anchor="middle" x="859.38" y="-1285.98" font-family="Times,serif" font-size="14.00">otrl:ODRL2</text>
</g>
<!-- http://w3id.org/oseg/ont/otrl#ODRL2&#45;&gt;http://w3id.org/oseg/ont/otrl#ODRL -->
<g id="edge22" class="edge">
<title>http://w3id.org/oseg/ont/otrl#ODRL2&#45;&gt;http://w3id.org/oseg/ont/otrl#ODRL</title>
<path fill="none" stroke="black" d="M857.45,-1273.29C852.94,-1235.05 841.7,-1139.65 836.22,-1093.12"/>
<polygon fill="black" stroke="black" points="839.69,-1092.71 835.05,-1083.19 832.74,-1093.53 839.69,-1092.71"/>
<text text-anchor="middle" x="842.33" y="-1187" font-family="Times,serif" font-size="14.00">a</text>
</g>
<!-- http://w3id.org/oseg/ont/otrl#OTRL3 -->
<g id="node22" class="node">
<title>http://w3id.org/oseg/ont/otrl#OTRL3</title>
<ellipse fill="none" stroke="#e377c2" cx="1190.97" cy="-311.66" rx="67.35" ry="16.03"/>
<text text-anchor="middle" x="1190.97" y="-307.96" font-family="Times,serif" font-size="14.00">otrl:OTRL3</text>
</g>
<!-- http://w3id.org/oseg/ont/otrl#OTRL3&#45;&gt;http://w3id.org/oseg/ont/otrl#OTRL -->
<g id="edge25" class="edge">
<title>http://w3id.org/oseg/ont/otrl#OTRL3&#45;&gt;http://w3id.org/oseg/ont/otrl#OTRL</title>
<path fill="none" stroke="black" d="M1188.85,-328.1C1183.82,-367.24 1171.08,-466.21 1164.95,-513.87"/>
<polygon fill="black" stroke="black" points="1161.45,-513.65 1163.64,-524.02 1168.39,-514.54 1161.45,-513.65"/>
<text text-anchor="middle" x="1172.4" y="-424.78" font-family="Times,serif" font-size="14.00">a</text>
</g>
<!-- http://w3id.org/oseg/ont/otrl#OTRL5 -->
<g id="node23" class="node">
<title>http://w3id.org/oseg/ont/otrl#OTRL5</title>
<ellipse fill="none" stroke="#e377c2" cx="1334.54" cy="-343.61" rx="67.35" ry="16.03"/>
<text text-anchor="middle" x="1334.54" y="-339.91" font-family="Times,serif" font-size="14.00">otrl:OTRL5</text>
</g>
<!-- http://w3id.org/oseg/ont/otrl#OTRL5&#45;&gt;http://w3id.org/oseg/ont/otrl#OTRL -->
<g id="edge26" class="edge">
<title>http://w3id.org/oseg/ont/otrl#OTRL5&#45;&gt;http://w3id.org/oseg/ont/otrl#OTRL</title>
<path fill="none" stroke="black" d="M1320.38,-359.71C1289.89,-394.37 1217.91,-476.22 1182.28,-516.74"/>
<polygon fill="black" stroke="black" points="1179.63,-514.45 1175.66,-524.27 1184.89,-519.07 1179.63,-514.45"/>
<text text-anchor="middle" x="1246.83" y="-442.03" font-family="Times,serif" font-size="14.00">a</text>
</g>
<!-- http://w3id.org/oseg/ont/otrl#exitCriteria -->
<g id="node24" class="node">
<title>http://w3id.org/oseg/ont/otrl#exitCriteria</title>
<ellipse fill="none" stroke="#e377c2" cx="1032.24" cy="-835.39" rx="91.43" ry="16.03"/>
<text text-anchor="middle" x="1032.24" y="-831.69" font-family="Times,serif" font-size="14.00">otrl:exitCriteria</text>
</g>
<!-- http://w3id.org/oseg/ont/otrl#exitCriteria&#45;&gt;http://w3id.org/oseg/ont/otrl#OTRL -->
<g id="edge36" class="edge">
<title>http://w3id.org/oseg/ont/otrl#exitCriteria&#45;&gt;http://w3id.org/oseg/ont/otrl#OTRL</title>
<path fill="none" stroke="black" d="M1039.38,-819.1C1060.75,-770.33 1124.36,-625.18 1150.32,-565.93"/>
<polygon fill="black" stroke="black" points="1153.62,-567.11 1154.43,-556.55 1147.21,-564.3 1153.62,-567.11"/>
<text text-anchor="middle" x="1008.85" y="-696.32" font-family="Times,serif" font-size="14.00">schema:domainIncludes</text>
</g>
<!-- http://w3id.org/oseg/ont/otrl#exitCriteria&#45;&gt;http://w3id.org/oseg/ont/otrl#ODRL -->
<g id="edge14" class="edge">
<title>http://w3id.org/oseg/ont/otrl#exitCriteria&#45;&gt;http://w3id.org/oseg/ont/otrl#ODRL</title>
<path fill="none" stroke="black" d="M1018.24,-851.66C983.67,-891.83 894.12,-995.88 853.58,-1042.99"/>
<polygon fill="black" stroke="black" points="850.71,-1040.97 846.84,-1050.83 856.01,-1045.53 850.71,-1040.97"/>
<text text-anchor="middle" x="849.91" y="-951.12" font-family="Times,serif" font-size="14.00">schema:domainIncludes</text>
</g>
<!-- http://w3id.org/oseg/ont/otrl#exitCriteria&#45;&gt;http://www.w3.org/1999/02/22&#45;rdf&#45;syntax&#45;ns#langString -->
<g id="edge5" class="edge">
<title>http://w3id.org/oseg/ont/otrl#exitCriteria&#45;&gt;http://www.w3.org/1999/02/22&#45;rdf&#45;syntax&#45;ns#langString</title>
<path fill="none" stroke="black" d="M998.07,-820.29C954.89,-801.23 880.57,-768.4 833.45,-747.6"/>
<polygon fill="black" stroke="black" points="834.68,-744.32 824.12,-743.48 831.85,-750.72 834.68,-744.32"/>
<text text-anchor="middle" x="894.76" y="-787.75" font-family="Times,serif" font-size="14.00">range</text>
</g>
<!-- http://w3id.org/oseg/ont/otrl#Odrl1 -->
<g id="node26" class="node">
<title>http://w3id.org/oseg/ont/otrl#Odrl1</title>
<ellipse fill="none" stroke="black" cx="191.75" cy="-1233.01" rx="191.75" ry="16.03"/>
<text text-anchor="middle" x="191.75" y="-1229.31" font-family="Times,serif" font-size="14.00">http://w3id.org/oseg/ont/otrl#Odrl1</text>
</g>
<!-- http://w3id.org/oseg/ont/otrl#Odrl1&#45;&gt;http://w3id.org/oseg/ont/otrl#ODRL1 -->
<g id="edge2" class="edge">
<title>http://w3id.org/oseg/ont/otrl#Odrl1&#45;&gt;http://w3id.org/oseg/ont/otrl#ODRL1</title>
<path fill="none" stroke="black" d="M251.34,-1217.52C321.02,-1199.41 435.48,-1169.66 503.74,-1151.92"/>
<polygon fill="black" stroke="black" points="504.67,-1155.29 513.46,-1149.39 502.91,-1148.52 504.67,-1155.29"/>
<text text-anchor="middle" x="297.54" y="-1188.52" font-family="Times,serif" font-size="14.00">schema:supersededBy</text>
</g>
<!-- http://w3id.org/oseg/ont/otrl#Odrl3Star -->
<g id="node27" class="node">
<title>http://w3id.org/oseg/ont/otrl#Odrl3Star</title>
<ellipse fill="none" stroke="black" cx="938.95" cy="-1152.4" rx="213.59" ry="16.03"/>
<text text-anchor="middle" x="938.95" y="-1148.7" font-family="Times,serif" font-size="14.00">http://w3id.org/oseg/ont/otrl#Odrl3Star</text>
</g>
<!-- http://w3id.org/oseg/ont/otrl#Odrl3Star&#45;&gt;http://w3id.org/oseg/ont/otrl#ODRL3Star -->
<g id="edge3" class="edge">
<title>http://w3id.org/oseg/ont/otrl#Odrl3Star&#45;&gt;http://w3id.org/oseg/ont/otrl#ODRL3Star</title>
<path fill="none" stroke="black" d="M963.75,-1136.17C967.38,-1133.8 971.17,-1131.32 974.93,-1128.86"/>
<polygon fill="black" stroke="black" points="977.12,-1131.61 983.57,-1123.2 973.28,-1125.75 977.12,-1131.61"/>
<text text-anchor="middle" x="889.34" y="-1121.32" font-family="Times,serif" font-size="14.00">schema:supersededBy</text>
</g>
<!-- http://w3id.org/oseg/ont/otrl#Odrl5 -->
<g id="node28" class="node">
<title>http://w3id.org/oseg/ont/otrl#Odrl5</title>
<ellipse fill="none" stroke="black" cx="322.03" cy="-1867.05" rx="191.75" ry="16.03"/>
<text text-anchor="middle" x="322.03" y="-1863.35" font-family="Times,serif" font-size="14.00">http://w3id.org/oseg/ont/otrl#Odrl5</text>
</g>
<!-- http://w3id.org/oseg/ont/otrl#Odrl5&#45;&gt;http://w3id.org/oseg/ont/otrl#Odrl4 -->
<g id="edge4" class="edge">
<title>http://w3id.org/oseg/ont/otrl#Odrl5&#45;&gt;http://w3id.org/oseg/ont/otrl#Odrl4</title>
<path fill="none" stroke="black" d="M331.1,-1850.67C360.71,-1797.21 454.73,-1627.46 490.7,-1562.51"/>
<polygon fill="black" stroke="black" points="493.98,-1563.81 495.76,-1553.37 487.86,-1560.42 493.98,-1563.81"/>
<text text-anchor="middle" x="330.9" y="-1710.39" font-family="Times,serif" font-size="14.00">schema:supersededBy</text>
</g>
<!-- http://w3id.org/oseg/ont/otrl#Otrl4 -->
<g id="node29" class="node">
<title>http://w3id.org/oseg/ont/otrl#Otrl4</title>
<ellipse fill="none" stroke="black" cx="1821.36" cy="-452.17" rx="189.51" ry="16.03"/>
<text text-anchor="middle" x="1821.36" y="-448.47" font-family="Times,serif" font-size="14.00">http://w3id.org/oseg/ont/otrl#Otrl4</text>
</g>
<!-- http://w3id.org/oseg/ont/otrl#Otrl4&#45;&gt;http://w3id.org/oseg/ont/otrl#OTRL4 -->
<g id="edge8" class="edge">
<title>http://w3id.org/oseg/ont/otrl#Otrl4&#45;&gt;http://w3id.org/oseg/ont/otrl#OTRL4</title>
<path fill="none" stroke="black" d="M1730,-466.48C1657.85,-477.78 1558.84,-493.28 1494.03,-503.43"/>
<polygon fill="black" stroke="black" points="1493.27,-500 1483.93,-505.01 1494.35,-506.92 1493.27,-500"/>
<text text-anchor="middle" x="1532.02" y="-473.75" font-family="Times,serif" font-size="14.00">schema:supersededBy</text>
</g>
<!-- http://w3id.org/oseg/ont/otrl#Otrl6 -->
<g id="node30" class="node">
<title>http://w3id.org/oseg/ont/otrl#Otrl6</title>
<ellipse fill="none" stroke="black" cx="834.43" cy="-269.8" rx="189.51" ry="16.03"/>
<text text-anchor="middle" x="834.43" y="-266.1" font-family="Times,serif" font-size="14.00">http://w3id.org/oseg/ont/otrl#Otrl6</text>
</g>
<!-- http://w3id.org/oseg/ont/otrl#Otrl6&#45;&gt;http://w3id.org/oseg/ont/otrl#OTRL6 -->
<g id="edge10" class="edge">
<title>http://w3id.org/oseg/ont/otrl#Otrl6&#45;&gt;http://w3id.org/oseg/ont/otrl#OTRL6</title>
<path fill="none" stroke="black" d="M866.11,-285.88C882.61,-294.26 902.92,-304.57 920.3,-313.4"/>
<polygon fill="black" stroke="black" points="919.12,-316.73 929.62,-318.13 922.29,-310.48 919.12,-316.73"/>
<text text-anchor="middle" x="813.21" y="-303.44" font-family="Times,serif" font-size="14.00">schema:supersededBy</text>
</g>
<!-- http://w3id.org/oseg/ont/otrl#Odrl3 -->
<g id="node31" class="node">
<title>http://w3id.org/oseg/ont/otrl#Odrl3</title>
<ellipse fill="none" stroke="black" cx="1225.1" cy="-1624.5" rx="191.75" ry="16.03"/>
<text text-anchor="middle" x="1225.1" y="-1620.8" font-family="Times,serif" font-size="14.00">http://w3id.org/oseg/ont/otrl#Odrl3</text>
</g>
<!-- http://w3id.org/oseg/ont/otrl#Odrl3&#45;&gt;http://w3id.org/oseg/ont/otrl#ODRL3 -->
<g id="edge18" class="edge">
<title>http://w3id.org/oseg/ont/otrl#Odrl3&#45;&gt;http://w3id.org/oseg/ont/otrl#ODRL3</title>
<path fill="none" stroke="black" d="M1214.5,-1607.85C1179.71,-1553.27 1068.93,-1379.44 1027.27,-1314.07"/>
<polygon fill="black" stroke="black" points="1029.96,-1311.79 1021.64,-1305.24 1024.06,-1315.55 1029.96,-1311.79"/>
<text text-anchor="middle" x="1040.88" y="-1464.76" font-family="Times,serif" font-size="14.00">schema:supersededBy</text>
</g>
<!-- http://w3id.org/oseg/ont/otrl#Otrl2 -->
<g id="node32" class="node">
<title>http://w3id.org/oseg/ont/otrl#Otrl2</title>
<ellipse fill="none" stroke="black" cx="1444.26" cy="-723.51" rx="189.51" ry="16.03"/>
<text text-anchor="middle" x="1444.26" y="-719.81" font-family="Times,serif" font-size="14.00">http://w3id.org/oseg/ont/otrl#Otrl2</text>
</g>
<!-- http://w3id.org/oseg/ont/otrl#Otrl2&#45;&gt;http://w3id.org/oseg/ont/otrl#OTRL2 -->
<g id="edge20" class="edge">
<title>http://w3id.org/oseg/ont/otrl#Otrl2&#45;&gt;http://w3id.org/oseg/ont/otrl#OTRL2</title>
<path fill="none" stroke="black" d="M1412.7,-707.35C1403.8,-702.8 1394.04,-697.8 1384.81,-693.08"/>
<polygon fill="black" stroke="black" points="1386.32,-689.92 1375.83,-688.48 1383.14,-696.15 1386.32,-689.92"/>
<text text-anchor="middle" x="1478.76" y="-689.01" font-family="Times,serif" font-size="14.00">schema:supersededBy</text>
</g>
<!-- http://w3id.org/oseg/ont/otrl#Odrl2 -->
<g id="node33" class="node">
<title>http://w3id.org/oseg/ont/otrl#Odrl2</title>
<ellipse fill="none" stroke="black" cx="922.37" cy="-1343.49" rx="191.75" ry="16.03"/>
<text text-anchor="middle" x="922.37" y="-1339.79" font-family="Times,serif" font-size="14.00">http://w3id.org/oseg/ont/otrl#Odrl2</text>
</g>
<!-- http://w3id.org/oseg/ont/otrl#Odrl2&#45;&gt;http://w3id.org/oseg/ont/otrl#ODRL2 -->
<g id="edge21" class="edge">
<title>http://w3id.org/oseg/ont/otrl#Odrl2&#45;&gt;http://w3id.org/oseg/ont/otrl#ODRL2</title>
<path fill="none" stroke="black" d="M903.13,-1327.06C897.66,-1322.38 891.6,-1317.21 885.78,-1312.24"/>
<polygon fill="black" stroke="black" points="887.95,-1309.48 878.07,-1305.65 883.4,-1314.81 887.95,-1309.48"/>
<text text-anchor="middle" x="814.45" y="-1308.45" font-family="Times,serif" font-size="14.00">schema:supersededBy</text>
</g>
<!-- http://w3id.org/oseg/ont/otrl#Otrl3 -->
<g id="node34" class="node">
<title>http://w3id.org/oseg/ont/otrl#Otrl3</title>
<ellipse fill="none" stroke="black" cx="1238.27" cy="-269.25" rx="189.51" ry="16.03"/>
<text text-anchor="middle" x="1238.27" y="-265.55" font-family="Times,serif" font-size="14.00">http://w3id.org/oseg/ont/otrl#Otrl3</text>
</g>
<!-- http://w3id.org/oseg/ont/otrl#Otrl3&#45;&gt;http://w3id.org/oseg/ont/otrl#OTRL3 -->
<g id="edge24" class="edge">
<title>http://w3id.org/oseg/ont/otrl#Otrl3&#45;&gt;http://w3id.org/oseg/ont/otrl#OTRL3</title>
<path fill="none" stroke="black" d="M1220.12,-285.52C1218.83,-286.68 1217.52,-287.86 1216.2,-289.04"/>
<polygon fill="black" stroke="black" points="1213.79,-286.49 1208.69,-295.77 1218.47,-291.71 1213.79,-286.49"/>
<text text-anchor="middle" x="1298.16" y="-291.08" font-family="Times,serif" font-size="14.00">schema:supersededBy</text>
</g>
<!-- http://w3id.org/oseg/ont/otrl#Otrl5 -->
<g id="node35" class="node">
<title>http://w3id.org/oseg/ont/otrl#Otrl5</title>
<ellipse fill="none" stroke="black" cx="1558.67" cy="-15.86" rx="189.51" ry="16.03"/>
<text text-anchor="middle" x="1558.67" y="-12.16" font-family="Times,serif" font-size="14.00">http://w3id.org/oseg/ont/otrl#Otrl5</text>
</g>
<!-- http://w3id.org/oseg/ont/otrl#Otrl5&#45;&gt;http://w3id.org/oseg/ont/otrl#OTRL5 -->
<g id="edge30" class="edge">
<title>http://w3id.org/oseg/ont/otrl#Otrl5&#45;&gt;http://w3id.org/oseg/ont/otrl#OTRL5</title>
<path fill="none" stroke="black" d="M1547.55,-32.12C1511.11,-85.41 1395.07,-255.09 1351.39,-318.97"/>
<polygon fill="black" stroke="black" points="1348.47,-317.03 1345.72,-327.26 1354.25,-320.98 1348.47,-317.03"/>
<text text-anchor="middle" x="1369.47" y="-179.34" font-family="Times,serif" font-size="14.00">schema:supersededBy</text>
</g>
<!-- http://w3id.org/oseg/ont/otrl#Otrl1 -->
<g id="node36" class="node">
<title>http://w3id.org/oseg/ont/otrl#Otrl1</title>
<ellipse fill="none" stroke="black" cx="734.71" cy="-72.37" rx="189.51" ry="16.03"/>
<text text-anchor="middle" x="734.71" y="-68.67" font-family="Times,serif" font-size="14.00">http://w3id.org/oseg/ont/otrl#Otrl1</text>
</g>
<!-- http://w3id.org/oseg/ont/otrl#Otrl1&#45;&gt;http://w3id.org/oseg/ont/otrl#OTRL1 -->
<g id="edge31" class="edge">
<title>http://w3id.org/oseg/ont/otrl#Otrl1&#45;&gt;http://w3id.org/oseg/ont/otrl#OTRL1</title>
<path fill="none" stroke="black" d="M746.07,-89.02C781.88,-141.52 892.55,-303.76 934.9,-365.85"/>
<polygon fill="black" stroke="black" points="932.1,-367.97 940.63,-374.26 937.89,-364.03 932.1,-367.97"/>
<text text-anchor="middle" x="760.48" y="-231.24" font-family="Times,serif" font-size="14.00">schema:supersededBy</text>
</g>
<!-- http://w3id.org/oseg/ont/otrl#Odrl -->
<g id="node37" class="node">
<title>http://w3id.org/oseg/ont/otrl#Odrl</title>
<ellipse fill="none" stroke="black" cx="457.06" cy="-989.77" rx="185.02" ry="16.03"/>
<text text-anchor="middle" x="457.06" y="-986.07" font-family="Times,serif" font-size="14.00">http://w3id.org/oseg/ont/otrl#Odrl</text>
</g>
<!-- http://w3id.org/oseg/ont/otrl#Odrl&#45;&gt;http://w3id.org/oseg/ont/otrl#ODRL -->
<g id="edge35" class="edge">
<title>http://w3id.org/oseg/ont/otrl#Odrl&#45;&gt;http://w3id.org/oseg/ont/otrl#ODRL</title>
<path fill="none" stroke="black" d="M530.46,-1004.8C601.52,-1019.35 707.89,-1041.13 773.77,-1054.62"/>
<polygon fill="black" stroke="black" points="773.08,-1058.05 783.58,-1056.63 774.49,-1051.2 773.08,-1058.05"/>
<text text-anchor="middle" x="572.11" y="-1033.51" font-family="Times,serif" font-size="14.00">schema:supersededBy</text>
</g>
<!-- http://w3id.org/oseg/ont/otrl#Otrl -->
<g id="node38" class="node">
<title>http://w3id.org/oseg/ont/otrl#Otrl</title>
<ellipse fill="none" stroke="black" cx="1506.47" cy="-391.08" rx="183.28" ry="16.03"/>
<text text-anchor="middle" x="1506.47" y="-387.38" font-family="Times,serif" font-size="14.00">http://w3id.org/oseg/ont/otrl#Otrl</text>
</g>
<!-- http://w3id.org/oseg/ont/otrl#Otrl&#45;&gt;http://w3id.org/oseg/ont/otrl#OTRL -->
<g id="edge39" class="edge">
<title>http://w3id.org/oseg/ont/otrl#Otrl&#45;&gt;http://w3id.org/oseg/ont/otrl#OTRL</title>
<path fill="none" stroke="black" d="M1469.56,-407.05C1404.79,-435.07 1271.12,-492.9 1203.17,-522.3"/>
<polygon fill="black" stroke="black" points="1201.43,-519.24 1193.64,-526.43 1204.21,-525.67 1201.43,-519.24"/>
<text text-anchor="middle" x="1256.37" y="-468.48" font-family="Times,serif" font-size="14.00">schema:supersededBy</text>
</g>
</g>
</svg>
