<?xml version="1.0" encoding="UTF-8" standalone="no"?>
<!DOCTYPE svg PUBLIC "-//W3C//DTD SVG 1.1//EN"
 "http://www.w3.org/Graphics/SVG/1.1/DTD/svg11.dtd">
<!-- Generated by graphviz version 2.43.0 (0)
 -->
<!-- Title: G Pages: 1 -->
<svg width="2157pt" height="1952pt"
 viewBox="0.00 0.00 2157.00 1952.00" xmlns="http://www.w3.org/2000/svg" xmlns:xlink="http://www.w3.org/1999/xlink">
<g id="graph0" class="graph" transform="scale(1 1) rotate(0) translate(4 1948)">
<title>G</title>
<polygon fill="white" stroke="transparent" points="-4,4 -4,-1948 2153,-1948 2153,4 -4,4"/>
<!-- http://w3id.org/oseg/ont/otrl#ODRL -->
<g id="node1" class="node">
<title>http://w3id.org/oseg/ont/otrl#ODRL</title>
<ellipse fill="none" stroke="#e377c2" cx="915.08" cy="-1263.88" rx="62.87" ry="16.03"/>
<text text-anchor="middle" x="915.08" y="-1260.18" font-family="Times,serif" font-size="14.00">otrl:ODRL</text>
</g>
<!-- http://spdx.org/rdf/terms#SpdxItem -->
<g id="node2" class="node">
<title>http://spdx.org/rdf/terms#SpdxItem</title>
<ellipse fill="none" stroke="#1f77b4" cx="1661.99" cy="-895.01" rx="87.86" ry="16.03"/>
<text text-anchor="middle" x="1661.99" y="-891.31" font-family="Times,serif" font-size="14.00">spdx:SpdxItem</text>
</g>
<!-- http://w3id.org/oseg/ont/otrl#OTRL -->
<g id="node3" class="node">
<title>http://w3id.org/oseg/ont/otrl#OTRL</title>
<ellipse fill="none" stroke="#e377c2" cx="867.29" cy="-659.23" rx="60.62" ry="16.03"/>
<text text-anchor="middle" x="867.29" y="-655.53" font-family="Times,serif" font-size="14.00">otrl:OTRL</text>
</g>
<!-- http://w3id.org/oseg/ont/otrl#OTRL5 -->
<g id="node4" class="node">
<title>http://w3id.org/oseg/ont/otrl#OTRL5</title>
<ellipse fill="none" stroke="#e377c2" cx="775.75" cy="-394.41" rx="67.35" ry="16.03"/>
<text text-anchor="middle" x="775.75" y="-390.71" font-family="Times,serif" font-size="14.00">otrl:OTRL5</text>
</g>
<!-- http://w3id.org/oseg/ont/otrl#OTRL5&#45;&gt;http://w3id.org/oseg/ont/otrl#OTRL -->
<g id="edge34" class="edge">
<title>http://w3id.org/oseg/ont/otrl#OTRL5&#45;&gt;http://w3id.org/oseg/ont/otrl#OTRL</title>
<path fill="none" stroke="black" d="M781.47,-410.97C796.96,-455.76 839.73,-579.49 858.39,-633.48"/>
<polygon fill="black" stroke="black" points="855.11,-634.7 861.68,-643 861.73,-632.41 855.11,-634.7"/>
<text text-anchor="middle" x="815.43" y="-526.02" font-family="Times,serif" font-size="14.00">a</text>
</g>
<!-- http://w3id.org/oseg/ont/otrl#ODRL1 -->
<g id="node5" class="node">
<title>http://w3id.org/oseg/ont/otrl#ODRL1</title>
<ellipse fill="none" stroke="#e377c2" cx="852.19" cy="-1534.28" rx="69.09" ry="16.03"/>
<text text-anchor="middle" x="852.19" y="-1530.58" font-family="Times,serif" font-size="14.00">otrl:ODRL1</text>
</g>
<!-- http://w3id.org/oseg/ont/otrl#ODRL1&#45;&gt;http://w3id.org/oseg/ont/otrl#ODRL -->
<g id="edge2" class="edge">
<title>http://w3id.org/oseg/ont/otrl#ODRL1&#45;&gt;http://w3id.org/oseg/ont/otrl#ODRL</title>
<path fill="none" stroke="black" d="M856.03,-1517.77C866.58,-1472.4 896.08,-1345.55 908.95,-1290.23"/>
<polygon fill="black" stroke="black" points="912.43,-1290.7 911.29,-1280.17 905.61,-1289.11 912.43,-1290.7"/>
<text text-anchor="middle" x="877.99" y="-1407.8" font-family="Times,serif" font-size="14.00">a</text>
</g>
<!-- http://w3id.org/oseg/ont/otrl -->
<g id="node6" class="node">
<title>http://w3id.org/oseg/ont/otrl</title>
<ellipse fill="none" stroke="#e377c2" cx="1821.51" cy="-772.69" rx="50.82" ry="16.03"/>
<text text-anchor="middle" x="1821.51" y="-768.99" font-family="Times,serif" font-size="14.00">ns1:otrl</text>
</g>
<!-- http://w3id.org/oseg/ont/otrl&#45;&gt;http://spdx.org/rdf/terms#SpdxItem -->
<g id="edge32" class="edge">
<title>http://w3id.org/oseg/ont/otrl&#45;&gt;http://spdx.org/rdf/terms#SpdxItem</title>
<path fill="none" stroke="black" d="M1801.63,-787.94C1773.72,-809.33 1722.77,-848.41 1690.73,-872.97"/>
<polygon fill="black" stroke="black" points="1688.44,-870.32 1682.63,-879.18 1692.7,-875.88 1688.44,-870.32"/>
<text text-anchor="middle" x="1741.68" y="-834.25" font-family="Times,serif" font-size="14.00">a</text>
</g>
<!-- http://id.loc.gov/vocabulary/iso639&#45;1/en -->
<g id="node10" class="node">
<title>http://id.loc.gov/vocabulary/iso639&#45;1/en</title>
<ellipse fill="none" stroke="#e377c2" cx="1819.07" cy="-725.56" rx="45.01" ry="16.03"/>
<text text-anchor="middle" x="1819.07" y="-721.86" font-family="Times,serif" font-size="14.00">ns2:en</text>
</g>
<!-- http://w3id.org/oseg/ont/otrl&#45;&gt;http://id.loc.gov/vocabulary/iso639&#45;1/en -->
<g id="edge9" class="edge">
<title>http://w3id.org/oseg/ont/otrl&#45;&gt;http://id.loc.gov/vocabulary/iso639&#45;1/en</title>
<path fill="none" stroke="black" d="M1820.65,-756.21C1820.59,-754.92 1820.52,-753.61 1820.45,-752.28"/>
<polygon fill="black" stroke="black" points="1823.94,-751.92 1819.92,-742.12 1816.95,-752.28 1823.94,-751.92"/>
<text text-anchor="middle" x="1885.05" y="-743.04" font-family="Times,serif" font-size="14.00">dcterms:language</text>
</g>
<!-- http://w3id.org/oseg/ont/oseg&#45;profiles#robinVobruba -->
<g id="node11" class="node">
<title>http://w3id.org/oseg/ont/oseg&#45;profiles#robinVobruba</title>
<ellipse fill="none" stroke="#e377c2" cx="1895.56" cy="-813.27" rx="113.69" ry="16.03"/>
<text text-anchor="middle" x="1895.56" y="-809.57" font-family="Times,serif" font-size="14.00">osegprof:robinVob...</text>
</g>
<!-- http://w3id.org/oseg/ont/otrl&#45;&gt;http://w3id.org/oseg/ont/oseg&#45;profiles#robinVobruba -->
<g id="edge10" class="edge">
<title>http://w3id.org/oseg/ont/otrl&#45;&gt;http://w3id.org/oseg/ont/oseg&#45;profiles#robinVobruba</title>
<path fill="none" stroke="black" d="M1837.33,-788.15C1839.71,-789.72 1842.26,-791.33 1844.92,-792.93"/>
<polygon fill="black" stroke="black" points="1843.29,-796.03 1853.69,-798.02 1846.8,-789.98 1843.29,-796.03"/>
<text text-anchor="middle" x="1896.63" y="-779.34" font-family="Times,serif" font-size="14.00">schema:creator</text>
</g>
<!-- http://w3id.org/oseg/ont/otrl&#45;&gt;http://w3id.org/oseg/ont/oseg&#45;profiles#robinVobruba -->
<g id="edge33" class="edge">
<title>http://w3id.org/oseg/ont/otrl&#45;&gt;http://w3id.org/oseg/ont/oseg&#45;profiles#robinVobruba</title>
<path fill="none" stroke="black" d="M1856.99,-784.49C1861.36,-786.78 1865.76,-789.23 1869.95,-791.71"/>
<polygon fill="black" stroke="black" points="1868.33,-794.82 1878.67,-797.11 1872.01,-788.87 1868.33,-794.82"/>
<text text-anchor="middle" x="1805.97" y="-791.9" font-family="Times,serif" font-size="14.00">dcterms:creator</text>
</g>
<!-- http://spdx.org/licenses/GPL&#45;3.0&#45;or&#45;later -->
<g id="node13" class="node">
<title>http://spdx.org/licenses/GPL&#45;3.0&#45;or&#45;later</title>
<ellipse fill="none" stroke="#e377c2" cx="1589.25" cy="-755.25" rx="108.79" ry="16.03"/>
<text text-anchor="middle" x="1589.25" y="-751.55" font-family="Times,serif" font-size="14.00">spdxl:GPL&#45;3.0&#45;or&#45;...</text>
</g>
<!-- http://w3id.org/oseg/ont/otrl&#45;&gt;http://spdx.org/licenses/GPL&#45;3.0&#45;or&#45;later -->
<g id="edge12" class="edge">
<title>http://w3id.org/oseg/ont/otrl&#45;&gt;http://spdx.org/licenses/GPL&#45;3.0&#45;or&#45;later</title>
<path fill="none" stroke="black" d="M1771.68,-768.95C1749.7,-767.3 1722.95,-765.29 1696.78,-763.32"/>
<polygon fill="black" stroke="black" points="1697.03,-759.83 1686.79,-762.57 1696.5,-766.81 1697.03,-759.83"/>
<text text-anchor="middle" x="1658.23" y="-769.94" font-family="Times,serif" font-size="14.00">spdx:licenseDeclared</text>
</g>
<!-- http://w3id.org/oseg/ont/oseg&#45;profiles#martinHaeuer -->
<g id="node15" class="node">
<title>http://w3id.org/oseg/ont/oseg&#45;profiles#martinHaeuer</title>
<ellipse fill="none" stroke="#e377c2" cx="2032.35" cy="-886.83" rx="116.85" ry="16.03"/>
<text text-anchor="middle" x="2032.35" y="-883.13" font-family="Times,serif" font-size="14.00">osegprof:martinHa...</text>
</g>
<!-- http://w3id.org/oseg/ont/otrl&#45;&gt;http://w3id.org/oseg/ont/oseg&#45;profiles#martinHaeuer -->
<g id="edge14" class="edge">
<title>http://w3id.org/oseg/ont/otrl&#45;&gt;http://w3id.org/oseg/ont/oseg&#45;profiles#martinHaeuer</title>
<path fill="none" stroke="black" d="M1840.47,-787.78C1872.49,-808.25 1938.07,-844.3 1983.61,-866.91"/>
<polygon fill="black" stroke="black" points="1982.2,-870.12 1992.72,-871.39 1985.29,-863.84 1982.2,-870.12"/>
<text text-anchor="middle" x="1969.54" y="-831.15" font-family="Times,serif" font-size="14.00">dcterms:creator</text>
</g>
<!-- http://w3id.org/oseg/ont/otrl&#45;&gt;http://w3id.org/oseg/ont/oseg&#45;profiles#martinHaeuer -->
<g id="edge26" class="edge">
<title>http://w3id.org/oseg/ont/otrl&#45;&gt;http://w3id.org/oseg/ont/oseg&#45;profiles#martinHaeuer</title>
<path fill="none" stroke="black" d="M1854.98,-785.18C1895.88,-804.61 1964.36,-841.67 2003.19,-865.38"/>
<polygon fill="black" stroke="black" points="2001.59,-868.51 2011.93,-870.81 2005.29,-862.56 2001.59,-868.51"/>
<text text-anchor="middle" x="1873.59" y="-829.08" font-family="Times,serif" font-size="14.00">schema:creator</text>
</g>
<!-- http://w3id.org/oseg/ont/1.1.0/otrl -->
<g id="node19" class="node">
<title>http://w3id.org/oseg/ont/1.1.0/otrl</title>
<ellipse fill="none" stroke="#e377c2" cx="1761.23" cy="-608.21" rx="50.82" ry="16.03"/>
<text text-anchor="middle" x="1761.23" y="-604.51" font-family="Times,serif" font-size="14.00">ns3:otrl</text>
</g>
<!-- http://w3id.org/oseg/ont/otrl&#45;&gt;http://w3id.org/oseg/ont/1.1.0/otrl -->
<g id="edge23" class="edge">
<title>http://w3id.org/oseg/ont/otrl&#45;&gt;http://w3id.org/oseg/ont/1.1.0/otrl</title>
<path fill="none" stroke="black" d="M1815.51,-756.32C1805.04,-727.75 1783.35,-668.56 1770.79,-634.29"/>
<polygon fill="black" stroke="black" points="1773.94,-632.7 1767.21,-624.51 1767.36,-635.11 1773.94,-632.7"/>
<text text-anchor="middle" x="1741.65" y="-684.1" font-family="Times,serif" font-size="14.00">owl:versionIRI</text>
</g>
<!-- http://w3id.org/oseg/ont/oseg&#45;profiles#Iopa -->
<g id="node22" class="node">
<title>http://w3id.org/oseg/ont/oseg&#45;profiles#Iopa</title>
<ellipse fill="none" stroke="#e377c2" cx="1973.78" cy="-635.45" rx="80.72" ry="16.03"/>
<text text-anchor="middle" x="1973.78" y="-631.75" font-family="Times,serif" font-size="14.00">osegprof:Iopa</text>
</g>
<!-- http://w3id.org/oseg/ont/otrl&#45;&gt;http://w3id.org/oseg/ont/oseg&#45;profiles#Iopa -->
<g id="edge29" class="edge">
<title>http://w3id.org/oseg/ont/otrl&#45;&gt;http://w3id.org/oseg/ont/oseg&#45;profiles#Iopa</title>
<path fill="none" stroke="black" d="M1838.68,-757.21C1865.38,-733.15 1917.02,-686.6 1948.14,-658.55"/>
<polygon fill="black" stroke="black" points="1950.88,-660.8 1955.96,-651.5 1946.19,-655.6 1950.88,-660.8"/>
<text text-anchor="middle" x="1958.91" y="-711.68" font-family="Times,serif" font-size="14.00">dcterms:publisher</text>
</g>
<!-- http://w3id.org/oseg/ont/otrl#OTRL3 -->
<g id="node7" class="node">
<title>http://w3id.org/oseg/ont/otrl#OTRL3</title>
<ellipse fill="none" stroke="#e377c2" cx="593.72" cy="-578.12" rx="67.35" ry="16.03"/>
<text text-anchor="middle" x="593.72" y="-574.42" font-family="Times,serif" font-size="14.00">otrl:OTRL3</text>
</g>
<!-- http://w3id.org/oseg/ont/otrl#OTRL3&#45;&gt;http://w3id.org/oseg/ont/otrl#OTRL -->
<g id="edge3" class="edge">
<title>http://w3id.org/oseg/ont/otrl#OTRL3&#45;&gt;http://w3id.org/oseg/ont/otrl#OTRL</title>
<path fill="none" stroke="black" d="M636.46,-590.79C685.17,-605.23 764.71,-628.81 816.53,-644.18"/>
<polygon fill="black" stroke="black" points="815.6,-647.55 826.19,-647.04 817.59,-640.84 815.6,-647.55"/>
<text text-anchor="middle" x="722" y="-621.28" font-family="Times,serif" font-size="14.00">a</text>
</g>
<!-- http://w3id.org/oseg/ont/otrl#ODRL3 -->
<g id="node8" class="node">
<title>http://w3id.org/oseg/ont/otrl#ODRL3</title>
<ellipse fill="none" stroke="#e377c2" cx="729.26" cy="-1461.42" rx="69.09" ry="16.03"/>
<text text-anchor="middle" x="729.26" y="-1457.72" font-family="Times,serif" font-size="14.00">otrl:ODRL3</text>
</g>
<!-- http://w3id.org/oseg/ont/otrl#ODRL3&#45;&gt;http://w3id.org/oseg/ont/otrl#ODRL -->
<g id="edge5" class="edge">
<title>http://w3id.org/oseg/ont/otrl#ODRL3&#45;&gt;http://w3id.org/oseg/ont/otrl#ODRL</title>
<path fill="none" stroke="black" d="M744.47,-1445.26C777.3,-1410.36 854.92,-1327.83 893.1,-1287.24"/>
<polygon fill="black" stroke="black" points="895.88,-1289.39 900.18,-1279.71 890.78,-1284.6 895.88,-1289.39"/>
<text text-anchor="middle" x="814.28" y="-1370.05" font-family="Times,serif" font-size="14.00">a</text>
</g>
<!-- http://w3id.org/oseg/ont/otrl#ODRL4 -->
<g id="node9" class="node">
<title>http://w3id.org/oseg/ont/otrl#ODRL4</title>
<ellipse fill="none" stroke="#e377c2" cx="976.22" cy="-1468.56" rx="69.09" ry="16.03"/>
<text text-anchor="middle" x="976.22" y="-1464.86" font-family="Times,serif" font-size="14.00">otrl:ODRL4</text>
</g>
<!-- http://w3id.org/oseg/ont/otrl#ODRL4&#45;&gt;http://w3id.org/oseg/ont/otrl#ODRL -->
<g id="edge7" class="edge">
<title>http://w3id.org/oseg/ont/otrl#ODRL4&#45;&gt;http://w3id.org/oseg/ont/otrl#ODRL</title>
<path fill="none" stroke="black" d="M971.32,-1452.16C960.75,-1416.75 935.7,-1332.92 922.9,-1290.07"/>
<polygon fill="black" stroke="black" points="926.22,-1288.94 920,-1280.36 919.51,-1290.94 926.22,-1288.94"/>
<text text-anchor="middle" x="942.61" y="-1374.91" font-family="Times,serif" font-size="14.00">a</text>
</g>
<!-- http://w3id.org/oseg/ont/otrl#OTRL1 -->
<g id="node12" class="node">
<title>http://w3id.org/oseg/ont/otrl#OTRL1</title>
<ellipse fill="none" stroke="#e377c2" cx="683.86" cy="-811.27" rx="67.35" ry="16.03"/>
<text text-anchor="middle" x="683.86" y="-807.57" font-family="Times,serif" font-size="14.00">otrl:OTRL1</text>
</g>
<!-- http://w3id.org/oseg/ont/otrl#OTRL1&#45;&gt;http://w3id.org/oseg/ont/otrl#OTRL -->
<g id="edge16" class="edge">
<title>http://w3id.org/oseg/ont/otrl#OTRL1&#45;&gt;http://w3id.org/oseg/ont/otrl#OTRL</title>
<path fill="none" stroke="black" d="M702.8,-795.57C735.56,-768.41 802.91,-712.59 840.47,-681.46"/>
<polygon fill="black" stroke="black" points="842.99,-683.92 848.46,-674.84 838.52,-678.53 842.99,-683.92"/>
<text text-anchor="middle" x="767.13" y="-742.31" font-family="Times,serif" font-size="14.00">a</text>
</g>
<!-- http://w3id.org/oseg/ont/otrl#OTRL6 -->
<g id="node14" class="node">
<title>http://w3id.org/oseg/ont/otrl#OTRL6</title>
<ellipse fill="none" stroke="#e377c2" cx="986.1" cy="-546.88" rx="67.35" ry="16.03"/>
<text text-anchor="middle" x="986.1" y="-543.18" font-family="Times,serif" font-size="14.00">otrl:OTRL6</text>
</g>
<!-- http://w3id.org/oseg/ont/otrl#OTRL6&#45;&gt;http://w3id.org/oseg/ont/otrl#OTRL -->
<g id="edge13" class="edge">
<title>http://w3id.org/oseg/ont/otrl#OTRL6&#45;&gt;http://w3id.org/oseg/ont/otrl#OTRL</title>
<path fill="none" stroke="black" d="M969.33,-562.74C948.99,-581.98 914.54,-614.54 891.37,-636.46"/>
<polygon fill="black" stroke="black" points="888.84,-634.03 883.98,-643.45 893.65,-639.12 888.84,-634.03"/>
<text text-anchor="middle" x="925.85" y="-603.4" font-family="Times,serif" font-size="14.00">a</text>
</g>
<!-- http://w3id.org/oseg/ont/otrl#ODRL2 -->
<g id="node16" class="node">
<title>http://w3id.org/oseg/ont/otrl#ODRL2</title>
<ellipse fill="none" stroke="#e377c2" cx="1192.19" cy="-1314.94" rx="69.09" ry="16.03"/>
<text text-anchor="middle" x="1192.19" y="-1311.24" font-family="Times,serif" font-size="14.00">otrl:ODRL2</text>
</g>
<!-- http://w3id.org/oseg/ont/otrl#ODRL2&#45;&gt;http://w3id.org/oseg/ont/otrl#ODRL -->
<g id="edge19" class="edge">
<title>http://w3id.org/oseg/ont/otrl#ODRL2&#45;&gt;http://w3id.org/oseg/ont/otrl#ODRL</title>
<path fill="none" stroke="black" d="M1137.44,-1304.85C1091.05,-1296.3 1024.6,-1284.06 976.42,-1275.18"/>
<polygon fill="black" stroke="black" points="976.91,-1271.71 966.44,-1273.34 975.64,-1278.59 976.91,-1271.71"/>
<text text-anchor="middle" x="1052.43" y="-1293.81" font-family="Times,serif" font-size="14.00">a</text>
</g>
<!-- http://w3id.org/oseg/ont/otrl#goal -->
<g id="node17" class="node">
<title>http://w3id.org/oseg/ont/otrl#goal</title>
<ellipse fill="none" stroke="#e377c2" cx="874.06" cy="-958.87" rx="54.39" ry="16.03"/>
<text text-anchor="middle" x="874.06" y="-955.17" font-family="Times,serif" font-size="14.00">otrl:goal</text>
</g>
<!-- http://w3id.org/oseg/ont/otrl#goal&#45;&gt;http://w3id.org/oseg/ont/otrl#ODRL -->
<g id="edge37" class="edge">
<title>http://w3id.org/oseg/ont/otrl#goal&#45;&gt;http://w3id.org/oseg/ont/otrl#ODRL</title>
<path fill="none" stroke="black" d="M876.26,-975.27C882.98,-1025.23 903.24,-1175.87 911.51,-1237.33"/>
<polygon fill="black" stroke="black" points="908.06,-1237.95 912.86,-1247.4 915,-1237.02 908.06,-1237.95"/>
<text text-anchor="middle" x="815.89" y="-1110.1" font-family="Times,serif" font-size="14.00">dcam:domainIncludes</text>
</g>
<!-- http://w3id.org/oseg/ont/otrl#goal&#45;&gt;http://w3id.org/oseg/ont/otrl#OTRL -->
<g id="edge18" class="edge">
<title>http://w3id.org/oseg/ont/otrl#goal&#45;&gt;http://w3id.org/oseg/ont/otrl#OTRL</title>
<path fill="none" stroke="black" d="M873.68,-942.34C872.57,-893.02 869.27,-746.63 867.9,-685.99"/>
<polygon fill="black" stroke="black" points="871.39,-685.63 867.66,-675.71 864.39,-685.79 871.39,-685.63"/>
<text text-anchor="middle" x="948.79" y="-817.96" font-family="Times,serif" font-size="14.00">dcam:domainIncludes</text>
</g>
<!-- http://www.w3.org/1999/02/22&#45;rdf&#45;syntax&#45;ns#langString -->
<g id="node23" class="node">
<title>http://www.w3.org/1999/02/22&#45;rdf&#45;syntax&#45;ns#langString</title>
<ellipse fill="none" stroke="#e377c2" cx="1169.16" cy="-917.69" rx="83.38" ry="16.03"/>
<text text-anchor="middle" x="1169.16" y="-913.99" font-family="Times,serif" font-size="14.00">rdf:langString</text>
</g>
<!-- http://w3id.org/oseg/ont/otrl#goal&#45;&gt;http://www.w3.org/1999/02/22&#45;rdf&#45;syntax&#45;ns#langString -->
<g id="edge39" class="edge">
<title>http://w3id.org/oseg/ont/otrl#goal&#45;&gt;http://www.w3.org/1999/02/22&#45;rdf&#45;syntax&#45;ns#langString</title>
<path fill="none" stroke="black" d="M923.45,-951.98C969.15,-945.6 1037.85,-936.02 1091,-928.6"/>
<polygon fill="black" stroke="black" points="1091.65,-932.04 1101.07,-927.19 1090.68,-925.11 1091.65,-932.04"/>
<text text-anchor="middle" x="986.23" y="-929.09" font-family="Times,serif" font-size="14.00">range</text>
</g>
<!-- http://w3id.org/oseg/ont/otrl#OTRL2 -->
<g id="node18" class="node">
<title>http://w3id.org/oseg/ont/otrl#OTRL2</title>
<ellipse fill="none" stroke="#e377c2" cx="988.4" cy="-397.38" rx="67.35" ry="16.03"/>
<text text-anchor="middle" x="988.4" y="-393.68" font-family="Times,serif" font-size="14.00">otrl:OTRL2</text>
</g>
<!-- http://w3id.org/oseg/ont/otrl#OTRL2&#45;&gt;http://w3id.org/oseg/ont/otrl#OTRL -->
<g id="edge22" class="edge">
<title>http://w3id.org/oseg/ont/otrl#OTRL2&#45;&gt;http://w3id.org/oseg/ont/otrl#OTRL</title>
<path fill="none" stroke="black" d="M980.83,-413.76C960.35,-458.03 903.79,-580.31 879.09,-633.72"/>
<polygon fill="black" stroke="black" points="875.89,-632.31 874.87,-642.85 882.24,-635.25 875.89,-632.31"/>
<text text-anchor="middle" x="925.46" y="-527.54" font-family="Times,serif" font-size="14.00">a</text>
</g>
<!-- http://w3id.org/oseg/ont/otrl#Odrl4 -->
<g id="node20" class="node">
<title>http://w3id.org/oseg/ont/otrl#Odrl4</title>
<ellipse fill="none" stroke="#e377c2" cx="1082.33" cy="-1606.38" rx="61.54" ry="16.03"/>
<text text-anchor="middle" x="1082.33" y="-1602.68" font-family="Times,serif" font-size="14.00">otrl:Odrl4</text>
</g>
<!-- http://w3id.org/oseg/ont/otrl#Odrl4&#45;&gt;http://w3id.org/oseg/ont/otrl#ODRL4 -->
<g id="edge6" class="edge">
<title>http://w3id.org/oseg/ont/otrl#Odrl4&#45;&gt;http://w3id.org/oseg/ont/otrl#ODRL4</title>
<path fill="none" stroke="black" d="M1069.95,-1590.3C1051.52,-1566.36 1016.73,-1521.17 995.11,-1493.09"/>
<polygon fill="black" stroke="black" points="997.73,-1490.75 988.85,-1484.97 992.18,-1495.03 997.73,-1490.75"/>
<text text-anchor="middle" x="1112.53" y="-1545.5" font-family="Times,serif" font-size="14.00">schema:supersededBy</text>
</g>
<!-- http://w3id.org/oseg/ont/otrl#ODRL3Star -->
<g id="node21" class="node">
<title>http://w3id.org/oseg/ont/otrl#ODRL3Star</title>
<ellipse fill="none" stroke="#e377c2" cx="632.98" cy="-1346.22" rx="90.52" ry="16.03"/>
<text text-anchor="middle" x="632.98" y="-1342.52" font-family="Times,serif" font-size="14.00">otrl:ODRL3Star</text>
</g>
<!-- http://w3id.org/oseg/ont/otrl#ODRL3Star&#45;&gt;http://w3id.org/oseg/ont/otrl#ODRL -->
<g id="edge27" class="edge">
<title>http://w3id.org/oseg/ont/otrl#ODRL3Star&#45;&gt;http://w3id.org/oseg/ont/otrl#ODRL</title>
<path fill="none" stroke="black" d="M680.52,-1332.35C731.26,-1317.53 811.4,-1294.14 863.6,-1278.9"/>
<polygon fill="black" stroke="black" points="864.72,-1282.22 873.34,-1276.06 862.76,-1275.5 864.72,-1282.22"/>
<text text-anchor="middle" x="767.56" y="-1309.42" font-family="Times,serif" font-size="14.00">a</text>
</g>
<!-- http://w3id.org/oseg/ont/otrl#exitCriteria -->
<g id="node24" class="node">
<title>http://w3id.org/oseg/ont/otrl#exitCriteria</title>
<ellipse fill="none" stroke="#e377c2" cx="1029.9" cy="-958.39" rx="91.43" ry="16.03"/>
<text text-anchor="middle" x="1029.9" y="-954.69" font-family="Times,serif" font-size="14.00">otrl:exitCriteria</text>
</g>
<!-- http://w3id.org/oseg/ont/otrl#exitCriteria&#45;&gt;http://w3id.org/oseg/ont/otrl#ODRL -->
<g id="edge8" class="edge">
<title>http://w3id.org/oseg/ont/otrl#exitCriteria&#45;&gt;http://w3id.org/oseg/ont/otrl#ODRL</title>
<path fill="none" stroke="black" d="M1023.73,-974.81C1004.88,-1024.95 947.97,-1176.35 924.93,-1237.67"/>
<polygon fill="black" stroke="black" points="921.52,-1236.78 921.28,-1247.37 928.08,-1239.24 921.52,-1236.78"/>
<text text-anchor="middle" x="896.33" y="-1095.04" font-family="Times,serif" font-size="14.00">dcam:domainIncludes</text>
</g>
<!-- http://w3id.org/oseg/ont/otrl#exitCriteria&#45;&gt;http://w3id.org/oseg/ont/otrl#OTRL -->
<g id="edge21" class="edge">
<title>http://w3id.org/oseg/ont/otrl#exitCriteria&#45;&gt;http://w3id.org/oseg/ont/otrl#OTRL</title>
<path fill="none" stroke="black" d="M1020.93,-941.87C994,-892.33 913.73,-744.66 881.21,-684.83"/>
<polygon fill="black" stroke="black" points="884.09,-682.8 876.24,-675.68 877.94,-686.14 884.09,-682.8"/>
<text text-anchor="middle" x="873.07" y="-802.15" font-family="Times,serif" font-size="14.00">dcam:domainIncludes</text>
</g>
<!-- http://w3id.org/oseg/ont/otrl#exitCriteria&#45;&gt;http://www.w3.org/1999/02/22&#45;rdf&#45;syntax&#45;ns#langString -->
<g id="edge30" class="edge">
<title>http://w3id.org/oseg/ont/otrl#exitCriteria&#45;&gt;http://www.w3.org/1999/02/22&#45;rdf&#45;syntax&#45;ns#langString</title>
<path fill="none" stroke="black" d="M1077.44,-944.49C1088.89,-941.15 1101.22,-937.54 1113.03,-934.1"/>
<polygon fill="black" stroke="black" points="1114.16,-937.41 1122.78,-931.24 1112.2,-930.69 1114.16,-937.41"/>
<text text-anchor="middle" x="1074.23" y="-928.1" font-family="Times,serif" font-size="14.00">range</text>
</g>
<!-- http://w3id.org/oseg/ont/otrl#OTRL4 -->
<g id="node25" class="node">
<title>http://w3id.org/oseg/ont/otrl#OTRL4</title>
<ellipse fill="none" stroke="#e377c2" cx="1132.55" cy="-563.96" rx="67.35" ry="16.03"/>
<text text-anchor="middle" x="1132.55" y="-560.26" font-family="Times,serif" font-size="14.00">otrl:OTRL4</text>
</g>
<!-- http://w3id.org/oseg/ont/otrl#OTRL4&#45;&gt;http://w3id.org/oseg/ont/otrl#OTRL -->
<g id="edge36" class="edge">
<title>http://w3id.org/oseg/ont/otrl#OTRL4&#45;&gt;http://w3id.org/oseg/ont/otrl#OTRL</title>
<path fill="none" stroke="black" d="M1094.83,-577.51C1047.13,-594.64 965.03,-624.13 913.58,-642.6"/>
<polygon fill="black" stroke="black" points="912.26,-639.36 904.03,-646.03 914.63,-645.94 912.26,-639.36"/>
<text text-anchor="middle" x="999.7" y="-613.86" font-family="Times,serif" font-size="14.00">a</text>
</g>
<!-- http://w3id.org/oseg/ont/otrl#Otrl5 -->
<g id="node26" class="node">
<title>http://w3id.org/oseg/ont/otrl#Otrl5</title>
<ellipse fill="none" stroke="black" cx="690.32" cy="-16.62" rx="189.51" ry="16.03"/>
<text text-anchor="middle" x="690.32" y="-12.92" font-family="Times,serif" font-size="14.00">http://w3id.org/oseg/ont/otrl#Otrl5</text>
</g>
<!-- http://w3id.org/oseg/ont/otrl#Otrl5&#45;&gt;http://w3id.org/oseg/ont/otrl#OTRL5 -->
<g id="edge1" class="edge">
<title>http://w3id.org/oseg/ont/otrl#Otrl5&#45;&gt;http://w3id.org/oseg/ont/otrl#OTRL5</title>
<path fill="none" stroke="black" d="M694.1,-33.34C707.58,-92.95 753.36,-295.4 769.8,-368.12"/>
<polygon fill="black" stroke="black" points="766.39,-368.9 772.01,-377.88 773.22,-367.35 766.39,-368.9"/>
<text text-anchor="middle" x="651.95" y="-204.53" font-family="Times,serif" font-size="14.00">schema:supersededBy</text>
</g>
<!-- http://w3id.org/oseg/ont/otrl#Otrl -->
<g id="node27" class="node">
<title>http://w3id.org/oseg/ont/otrl#Otrl</title>
<ellipse fill="none" stroke="black" cx="559.98" cy="-437.88" rx="183.28" ry="16.03"/>
<text text-anchor="middle" x="559.98" y="-434.18" font-family="Times,serif" font-size="14.00">http://w3id.org/oseg/ont/otrl#Otrl</text>
</g>
<!-- http://w3id.org/oseg/ont/otrl#Otrl&#45;&gt;http://w3id.org/oseg/ont/otrl#OTRL -->
<g id="edge4" class="edge">
<title>http://w3id.org/oseg/ont/otrl#Otrl&#45;&gt;http://w3id.org/oseg/ont/otrl#OTRL</title>
<path fill="none" stroke="black" d="M582.58,-454.15C637.14,-493.45 776.1,-593.54 837.43,-637.72"/>
<polygon fill="black" stroke="black" points="835.74,-640.81 845.9,-643.81 839.83,-635.13 835.74,-640.81"/>
<text text-anchor="middle" x="630" y="-549.73" font-family="Times,serif" font-size="14.00">schema:supersededBy</text>
</g>
<!-- http://w3id.org/oseg/ont/otrl#Otrl1 -->
<g id="node28" class="node">
<title>http://w3id.org/oseg/ont/otrl#Otrl1</title>
<ellipse fill="none" stroke="black" cx="631.38" cy="-853.18" rx="189.51" ry="16.03"/>
<text text-anchor="middle" x="631.38" y="-849.48" font-family="Times,serif" font-size="14.00">http://w3id.org/oseg/ont/otrl#Otrl1</text>
</g>
<!-- http://w3id.org/oseg/ont/otrl#Otrl1&#45;&gt;http://w3id.org/oseg/ont/otrl#OTRL1 -->
<g id="edge11" class="edge">
<title>http://w3id.org/oseg/ont/otrl#Otrl1&#45;&gt;http://w3id.org/oseg/ont/otrl#OTRL1</title>
<path fill="none" stroke="black" d="M651.82,-836.85C653.21,-835.75 654.61,-834.62 656.03,-833.5"/>
<polygon fill="black" stroke="black" points="658.45,-836.04 664.08,-827.07 654.08,-830.57 658.45,-836.04"/>
<text text-anchor="middle" x="573.92" y="-823.97" font-family="Times,serif" font-size="14.00">schema:supersededBy</text>
</g>
<!-- http://w3id.org/oseg/ont/otrl#Odrl3 -->
<g id="node29" class="node">
<title>http://w3id.org/oseg/ont/otrl#Odrl3</title>
<ellipse fill="none" stroke="black" cx="481.04" cy="-1767.63" rx="191.75" ry="16.03"/>
<text text-anchor="middle" x="481.04" y="-1763.93" font-family="Times,serif" font-size="14.00">http://w3id.org/oseg/ont/otrl#Odrl3</text>
</g>
<!-- http://w3id.org/oseg/ont/otrl#Odrl3&#45;&gt;http://w3id.org/oseg/ont/otrl#ODRL3 -->
<g id="edge15" class="edge">
<title>http://w3id.org/oseg/ont/otrl#Odrl3&#45;&gt;http://w3id.org/oseg/ont/otrl#ODRL3</title>
<path fill="none" stroke="black" d="M494.39,-1751.17C535.64,-1700.27 661.28,-1545.28 709.83,-1485.39"/>
<polygon fill="black" stroke="black" points="712.57,-1487.57 716.15,-1477.6 707.14,-1483.16 712.57,-1487.57"/>
<text text-anchor="middle" x="522.11" y="-1622.08" font-family="Times,serif" font-size="14.00">schema:supersededBy</text>
</g>
<!-- http://w3id.org/oseg/ont/otrl#Odrl1 -->
<g id="node30" class="node">
<title>http://w3id.org/oseg/ont/otrl#Odrl1</title>
<ellipse fill="none" stroke="black" cx="794.89" cy="-1927.84" rx="191.75" ry="16.03"/>
<text text-anchor="middle" x="794.89" y="-1924.14" font-family="Times,serif" font-size="14.00">http://w3id.org/oseg/ont/otrl#Odrl1</text>
</g>
<!-- http://w3id.org/oseg/ont/otrl#Odrl1&#45;&gt;http://w3id.org/oseg/ont/otrl#ODRL1 -->
<g id="edge17" class="edge">
<title>http://w3id.org/oseg/ont/otrl#Odrl1&#45;&gt;http://w3id.org/oseg/ont/otrl#ODRL1</title>
<path fill="none" stroke="black" d="M797.28,-1911.43C806.16,-1850.42 837.33,-1636.32 848.32,-1560.85"/>
<polygon fill="black" stroke="black" points="851.81,-1561.16 849.79,-1550.76 844.88,-1560.15 851.81,-1561.16"/>
<text text-anchor="middle" x="742.8" y="-1739.94" font-family="Times,serif" font-size="14.00">schema:supersededBy</text>
</g>
<!-- http://w3id.org/oseg/ont/otrl#Otrl3 -->
<g id="node31" class="node">
<title>http://w3id.org/oseg/ont/otrl#Otrl3</title>
<ellipse fill="none" stroke="black" cx="189.22" cy="-480.05" rx="189.51" ry="16.03"/>
<text text-anchor="middle" x="189.22" y="-476.35" font-family="Times,serif" font-size="14.00">http://w3id.org/oseg/ont/otrl#Otrl3</text>
</g>
<!-- http://w3id.org/oseg/ont/otrl#Otrl3&#45;&gt;http://w3id.org/oseg/ont/otrl#OTRL3 -->
<g id="edge20" class="edge">
<title>http://w3id.org/oseg/ont/otrl#Otrl3&#45;&gt;http://w3id.org/oseg/ont/otrl#OTRL3</title>
<path fill="none" stroke="black" d="M252.87,-495.48C330.8,-514.37 461.63,-546.09 536.5,-564.24"/>
<polygon fill="black" stroke="black" points="535.7,-567.65 546.24,-566.61 537.35,-560.85 535.7,-567.65"/>
<text text-anchor="middle" x="314.68" y="-533.66" font-family="Times,serif" font-size="14.00">schema:supersededBy</text>
</g>
<!-- http://w3id.org/oseg/ont/otrl#Odrl -->
<g id="node32" class="node">
<title>http://w3id.org/oseg/ont/otrl#Odrl</title>
<ellipse fill="none" stroke="black" cx="1238.98" cy="-1460.86" rx="185.02" ry="16.03"/>
<text text-anchor="middle" x="1238.98" y="-1457.16" font-family="Times,serif" font-size="14.00">http://w3id.org/oseg/ont/otrl#Odrl</text>
</g>
<!-- http://w3id.org/oseg/ont/otrl#Odrl&#45;&gt;http://w3id.org/oseg/ont/otrl#ODRL -->
<g id="edge24" class="edge">
<title>http://w3id.org/oseg/ont/otrl#Odrl&#45;&gt;http://w3id.org/oseg/ont/otrl#ODRL</title>
<path fill="none" stroke="black" d="M1212.47,-1444.74C1153.74,-1409.02 1012.77,-1323.29 948.29,-1284.07"/>
<polygon fill="black" stroke="black" points="950.07,-1281.06 939.71,-1278.86 946.44,-1287.04 950.07,-1281.06"/>
<text text-anchor="middle" x="1000.38" y="-1353.2" font-family="Times,serif" font-size="14.00">schema:supersededBy</text>
</g>
<!-- http://w3id.org/oseg/ont/otrl#Odrl5 -->
<g id="node33" class="node">
<title>http://w3id.org/oseg/ont/otrl#Odrl5</title>
<ellipse fill="none" stroke="black" cx="1101.7" cy="-1650.17" rx="191.75" ry="16.03"/>
<text text-anchor="middle" x="1101.7" y="-1646.47" font-family="Times,serif" font-size="14.00">http://w3id.org/oseg/ont/otrl#Odrl5</text>
</g>
<!-- http://w3id.org/oseg/ont/otrl#Odrl5&#45;&gt;http://w3id.org/oseg/ont/otrl#Odrl4 -->
<g id="edge25" class="edge">
<title>http://w3id.org/oseg/ont/otrl#Odrl5&#45;&gt;http://w3id.org/oseg/ont/otrl#Odrl4</title>
<path fill="none" stroke="black" d="M1094.49,-1633.87C1094.18,-1633.17 1093.87,-1632.47 1093.56,-1631.76"/>
<polygon fill="black" stroke="black" points="1096.73,-1630.28 1089.49,-1622.55 1090.33,-1633.12 1096.73,-1630.28"/>
<text text-anchor="middle" x="1174.03" y="-1621.61" font-family="Times,serif" font-size="14.00">schema:supersededBy</text>
</g>
<!-- http://w3id.org/oseg/ont/otrl#Otrl2 -->
<g id="node34" class="node">
<title>http://w3id.org/oseg/ont/otrl#Otrl2</title>
<ellipse fill="none" stroke="black" cx="1017.71" cy="-350.49" rx="189.51" ry="16.03"/>
<text text-anchor="middle" x="1017.71" y="-346.79" font-family="Times,serif" font-size="14.00">http://w3id.org/oseg/ont/otrl#Otrl2</text>
</g>
<!-- http://w3id.org/oseg/ont/otrl#Otrl2&#45;&gt;http://w3id.org/oseg/ont/otrl#OTRL2 -->
<g id="edge28" class="edge">
<title>http://w3id.org/oseg/ont/otrl#Otrl2&#45;&gt;http://w3id.org/oseg/ont/otrl#OTRL2</title>
<path fill="none" stroke="black" d="M1007.46,-366.89C1006.28,-368.78 1005.06,-370.74 1003.83,-372.7"/>
<polygon fill="black" stroke="black" points="1000.83,-370.89 998.5,-381.23 1006.77,-374.6 1000.83,-370.89"/>
<text text-anchor="middle" x="1085.64" y="-373.6" font-family="Times,serif" font-size="14.00">schema:supersededBy</text>
</g>
<!-- http://w3id.org/oseg/ont/otrl#Odrl2 -->
<g id="node35" class="node">
<title>http://w3id.org/oseg/ont/otrl#Odrl2</title>
<ellipse fill="none" stroke="black" cx="1583.52" cy="-1420.06" rx="191.75" ry="16.03"/>
<text text-anchor="middle" x="1583.52" y="-1416.36" font-family="Times,serif" font-size="14.00">http://w3id.org/oseg/ont/otrl#Odrl2</text>
</g>
<!-- http://w3id.org/oseg/ont/otrl#Odrl2&#45;&gt;http://w3id.org/oseg/ont/otrl#ODRL2 -->
<g id="edge31" class="edge">
<title>http://w3id.org/oseg/ont/otrl#Odrl2&#45;&gt;http://w3id.org/oseg/ont/otrl#ODRL2</title>
<path fill="none" stroke="black" d="M1525.78,-1404.55C1451.05,-1384.47 1321.72,-1349.73 1247.97,-1329.92"/>
<polygon fill="black" stroke="black" points="1248.51,-1326.44 1237.94,-1327.23 1246.69,-1333.2 1248.51,-1326.44"/>
<text text-anchor="middle" x="1306.87" y="-1371.03" font-family="Times,serif" font-size="14.00">schema:supersededBy</text>
</g>
<!-- http://w3id.org/oseg/ont/otrl#Odrl3Star -->
<g id="node36" class="node">
<title>http://w3id.org/oseg/ont/otrl#Odrl3Star</title>
<ellipse fill="none" stroke="black" cx="225.23" cy="-1507.07" rx="213.59" ry="16.03"/>
<text text-anchor="middle" x="225.23" y="-1503.37" font-family="Times,serif" font-size="14.00">http://w3id.org/oseg/ont/otrl#Odrl3Star</text>
</g>
<!-- http://w3id.org/oseg/ont/otrl#Odrl3Star&#45;&gt;http://w3id.org/oseg/ont/otrl#ODRL3Star -->
<g id="edge35" class="edge">
<title>http://w3id.org/oseg/ont/otrl#Odrl3Star&#45;&gt;http://w3id.org/oseg/ont/otrl#ODRL3Star</title>
<path fill="none" stroke="black" d="M265.81,-1491.06C341.79,-1461.09 505.08,-1396.68 585.81,-1364.83"/>
<polygon fill="black" stroke="black" points="587.22,-1368.04 595.24,-1361.11 584.65,-1361.53 587.22,-1368.04"/>
<text text-anchor="middle" x="345.81" y="-1431.74" font-family="Times,serif" font-size="14.00">schema:supersededBy</text>
</g>
<!-- http://w3id.org/oseg/ont/otrl#Otrl6 -->
<g id="node37" class="node">
<title>http://w3id.org/oseg/ont/otrl#Otrl6</title>
<ellipse fill="none" stroke="black" cx="1043.75" cy="-505.81" rx="189.51" ry="16.03"/>
<text text-anchor="middle" x="1043.75" y="-502.11" font-family="Times,serif" font-size="14.00">http://w3id.org/oseg/ont/otrl#Otrl6</text>
</g>
<!-- http://w3id.org/oseg/ont/otrl#Otrl6&#45;&gt;http://w3id.org/oseg/ont/otrl#OTRL6 -->
<g id="edge38" class="edge">
<title>http://w3id.org/oseg/ont/otrl#Otrl6&#45;&gt;http://w3id.org/oseg/ont/otrl#OTRL6</title>
<path fill="none" stroke="black" d="M1020.97,-522.04C1019.5,-523.09 1018,-524.15 1016.5,-525.22"/>
<polygon fill="black" stroke="black" points="1014.08,-522.65 1007.97,-531.3 1018.14,-528.35 1014.08,-522.65"/>
<text text-anchor="middle" x="1098.74" y="-527.43" font-family="Times,serif" font-size="14.00">schema:supersededBy</text>
</g>
<!-- http://w3id.org/oseg/ont/otrl#Otrl4 -->
<g id="node38" class="node">
<title>http://w3id.org/oseg/ont/otrl#Otrl4</title>
<ellipse fill="none" stroke="black" cx="1457.68" cy="-343.26" rx="189.51" ry="16.03"/>
<text text-anchor="middle" x="1457.68" y="-339.56" font-family="Times,serif" font-size="14.00">http://w3id.org/oseg/ont/otrl#Otrl4</text>
</g>
<!-- http://w3id.org/oseg/ont/otrl#Otrl4&#45;&gt;http://w3id.org/oseg/ont/otrl#OTRL4 -->
<g id="edge40" class="edge">
<title>http://w3id.org/oseg/ont/otrl#Otrl4&#45;&gt;http://w3id.org/oseg/ont/otrl#OTRL4</title>
<path fill="none" stroke="black" d="M1433.77,-359.49C1375.93,-398.75 1228.43,-498.88 1163.75,-542.79"/>
<polygon fill="black" stroke="black" points="1161.5,-540.08 1155.19,-548.6 1165.43,-545.87 1161.5,-540.08"/>
<text text-anchor="middle" x="1218.76" y="-454.94" font-family="Times,serif" font-size="14.00">schema:supersededBy</text>
</g>
</g>
</svg>
