<?xml version="1.0" encoding="UTF-8" standalone="no"?>
<!DOCTYPE svg PUBLIC "-//W3C//DTD SVG 1.1//EN"
 "http://www.w3.org/Graphics/SVG/1.1/DTD/svg11.dtd">
<!-- Generated by graphviz version 2.43.0 (0)
 -->
<!-- Title: G Pages: 1 -->
<svg width="1749pt" height="1545pt"
 viewBox="0.00 0.00 1749.48 1545.26" xmlns="http://www.w3.org/2000/svg" xmlns:xlink="http://www.w3.org/1999/xlink">
<g id="graph0" class="graph" transform="scale(1 1) rotate(0) translate(4 1541.26)">
<title>G</title>
<polygon fill="white" stroke="transparent" points="-4,4 -4,-1541.26 1745.48,-1541.26 1745.48,4 -4,4"/>
<!-- http://schema.org/DefinedTermSet -->
<g id="node1" class="node">
<title>http://schema.org/DefinedTermSet</title>
<ellipse fill="none" stroke="#1f77b4" cx="884.08" cy="-1360.26" rx="116.85" ry="16.03"/>
<text text-anchor="middle" x="884.08" y="-1356.56" font-family="Times,serif" font-size="14.00">schema:DefinedTer...</text>
</g>
<!-- http://schema.org/DefinedTerm -->
<g id="node2" class="node">
<title>http://schema.org/DefinedTerm</title>
<ellipse fill="none" stroke="#1f77b4" cx="1623.39" cy="-755.26" rx="118.17" ry="16.03"/>
<text text-anchor="middle" x="1623.39" y="-751.56" font-family="Times,serif" font-size="14.00">schema:DefinedTerm</text>
</g>
<!-- http://spdx.org/rdf/terms#SpdxItem -->
<g id="node3" class="node">
<title>http://spdx.org/rdf/terms#SpdxItem</title>
<ellipse fill="none" stroke="#1f77b4" cx="441.85" cy="-1509.26" rx="87.86" ry="16.03"/>
<text text-anchor="middle" x="441.85" y="-1505.56" font-family="Times,serif" font-size="14.00">spdx:SpdxItem</text>
</g>
<!-- http://w3id.org/oseg/ont/ods#Dataset -->
<g id="node4" class="node">
<title>http://w3id.org/oseg/ont/ods#Dataset</title>
<ellipse fill="none" stroke="#1f77b4" cx="441.85" cy="-1458.26" rx="71.34" ry="16.03"/>
<text text-anchor="middle" x="441.85" y="-1454.56" font-family="Times,serif" font-size="14.00">ods:Dataset</text>
</g>
<!-- http://w3id.org/oseg/ont/okhimg#tagScreenshot -->
<g id="node5" class="node">
<title>http://w3id.org/oseg/ont/okhimg#tagScreenshot</title>
<ellipse fill="none" stroke="#e377c2" cx="1333.03" cy="-1492.26" rx="125.32" ry="16.03"/>
<text text-anchor="middle" x="1333.03" y="-1488.56" font-family="Times,serif" font-size="14.00">okhimg:tagScreenshot</text>
</g>
<!-- http://w3id.org/oseg/ont/okhimg#tagScreenshot&#45;&gt;http://schema.org/DefinedTerm -->
<g id="edge1" class="edge">
<title>http://w3id.org/oseg/ont/okhimg#tagScreenshot&#45;&gt;http://schema.org/DefinedTerm</title>
<path fill="none" stroke="black" d="M1426.75,-1481.34C1438.58,-1477.64 1450.1,-1472.74 1460.3,-1466.26 1477.19,-1455.55 1479.14,-1448.52 1487.3,-1430.26 1592.79,-1194.38 1616.45,-875.46 1621.26,-782.02"/>
<polygon fill="black" stroke="black" points="1624.77,-781.92 1621.76,-771.76 1617.78,-781.58 1624.77,-781.92"/>
<text text-anchor="middle" x="1482.8" y="-1452.06" font-family="Times,serif" font-size="14.00">a</text>
</g>
<!-- http://w3id.org/oseg/ont/okhimg#tagDiagram -->
<g id="node6" class="node">
<title>http://w3id.org/oseg/ont/okhimg#tagDiagram</title>
<ellipse fill="none" stroke="#e377c2" cx="1333.03" cy="-1441.26" rx="111.95" ry="16.03"/>
<text text-anchor="middle" x="1333.03" y="-1437.56" font-family="Times,serif" font-size="14.00">okhimg:tagDiagram</text>
</g>
<!-- http://w3id.org/oseg/ont/okhimg#tagDiagram&#45;&gt;http://schema.org/DefinedTerm -->
<g id="edge2" class="edge">
<title>http://w3id.org/oseg/ont/okhimg#tagDiagram&#45;&gt;http://schema.org/DefinedTerm</title>
<path fill="none" stroke="black" d="M1436.03,-1434.88C1455.15,-1429.33 1473.45,-1420.4 1487.3,-1406.26 1576.95,-1314.82 1612.68,-892.86 1620.61,-782"/>
<polygon fill="black" stroke="black" points="1624.12,-781.93 1621.33,-771.71 1617.14,-781.44 1624.12,-781.93"/>
<text text-anchor="middle" x="1482.8" y="-1415.06" font-family="Times,serif" font-size="14.00">a</text>
</g>
<!-- http://w3id.org/oseg/ont/okhimg#slotIconMain -->
<g id="node7" class="node">
<title>http://w3id.org/oseg/ont/okhimg#slotIconMain</title>
<ellipse fill="none" stroke="#e377c2" cx="884.08" cy="-1304.26" rx="117.26" ry="16.03"/>
<text text-anchor="middle" x="884.08" y="-1300.56" font-family="Times,serif" font-size="14.00">okhimg:slotIconMain</text>
</g>
<!-- http://w3id.org/oseg/ont/okhimg#slotIconMain&#45;&gt;http://schema.org/DefinedTerm -->
<g id="edge3" class="edge">
<title>http://w3id.org/oseg/ont/okhimg#slotIconMain&#45;&gt;http://schema.org/DefinedTerm</title>
<path fill="none" stroke="black" d="M970.33,-1315.35C1109.23,-1331.84 1377.2,-1356.58 1460.3,-1314.26 1559.56,-1263.72 1608.07,-885.71 1619.62,-781.69"/>
<polygon fill="black" stroke="black" points="1623.11,-782.02 1620.71,-771.7 1616.15,-781.26 1623.11,-782.02"/>
<text text-anchor="middle" x="1333.03" y="-1341.06" font-family="Times,serif" font-size="14.00">a</text>
</g>
<!-- http://w3id.org/oseg/ont/okhimg#slotIconMainBw -->
<g id="node12" class="node">
<title>http://w3id.org/oseg/ont/okhimg#slotIconMainBw</title>
<ellipse fill="none" stroke="#e377c2" cx="1333.03" cy="-1289.26" rx="117.26" ry="16.03"/>
<text text-anchor="middle" x="1333.03" y="-1285.56" font-family="Times,serif" font-size="14.00">okhimg:slotIconMa...</text>
</g>
<!-- http://w3id.org/oseg/ont/okhimg#slotIconMain&#45;&gt;http://w3id.org/oseg/ont/okhimg#slotIconMainBw -->
<g id="edge12" class="edge">
<title>http://w3id.org/oseg/ont/okhimg#slotIconMain&#45;&gt;http://w3id.org/oseg/ont/okhimg#slotIconMainBw</title>
<path fill="none" stroke="black" d="M937.6,-1289.73C962.24,-1283.64 992.13,-1277.28 1019.45,-1274.26 1092.48,-1266.21 1175.57,-1270.85 1237.71,-1277.02"/>
<polygon fill="black" stroke="black" points="1237.59,-1280.53 1247.89,-1278.06 1238.3,-1273.56 1237.59,-1280.53"/>
<text text-anchor="middle" x="1103.6" y="-1278.06" font-family="Times,serif" font-size="14.00">seeAlso</text>
</g>
<!-- http://w3id.org/oseg/ont/okhimg#tags -->
<g id="node8" class="node">
<title>http://w3id.org/oseg/ont/okhimg#tags</title>
<ellipse fill="none" stroke="#e377c2" cx="441.85" cy="-1407.26" rx="73.58" ry="16.03"/>
<text text-anchor="middle" x="441.85" y="-1403.56" font-family="Times,serif" font-size="14.00">okhimg:tags</text>
</g>
<!-- http://w3id.org/oseg/ont/okhimg#tags&#45;&gt;http://schema.org/DefinedTermSet -->
<g id="edge33" class="edge">
<title>http://w3id.org/oseg/ont/okhimg#tags&#45;&gt;http://schema.org/DefinedTermSet</title>
<path fill="none" stroke="black" d="M494.65,-1395.84C513.87,-1391.46 535.82,-1386.31 555.7,-1381.26 563.74,-1379.22 565.5,-1377.6 573.7,-1376.26 633.54,-1366.53 700.67,-1362.26 757.07,-1360.54"/>
<polygon fill="black" stroke="black" points="757.21,-1364.04 767.11,-1360.25 757.01,-1357.04 757.21,-1364.04"/>
<text text-anchor="middle" x="661.2" y="-1380.06" font-family="Times,serif" font-size="14.00">a</text>
</g>
<!-- http://w3id.org/oseg/ont/okhimg#tagArt -->
<g id="node18" class="node">
<title>http://w3id.org/oseg/ont/okhimg#tagArt</title>
<ellipse fill="none" stroke="#e377c2" cx="1103.6" cy="-1399.26" rx="84.29" ry="16.03"/>
<text text-anchor="middle" x="1103.6" y="-1395.56" font-family="Times,serif" font-size="14.00">okhimg:tagArt</text>
</g>
<!-- http://w3id.org/oseg/ont/okhimg#tags&#45;&gt;http://w3id.org/oseg/ont/okhimg#tagArt -->
<g id="edge15" class="edge">
<title>http://w3id.org/oseg/ont/okhimg#tags&#45;&gt;http://w3id.org/oseg/ont/okhimg#tagArt</title>
<path fill="none" stroke="black" d="M515.34,-1406.38C635.64,-1404.93 876.4,-1402.01 1009.24,-1400.4"/>
<polygon fill="black" stroke="black" points="1009.44,-1403.89 1019.4,-1400.27 1009.36,-1396.89 1009.44,-1403.89"/>
<text text-anchor="middle" x="661.2" y="-1409.06" font-family="Times,serif" font-size="14.00">schema:hasDefinedTerm</text>
</g>
<!-- http://w3id.org/oseg/ont/oseg&#45;profiles#Iopa -->
<g id="node9" class="node">
<title>http://w3id.org/oseg/ont/oseg&#45;profiles#Iopa</title>
<ellipse fill="none" stroke="#e377c2" cx="441.85" cy="-1356.26" rx="80.72" ry="16.03"/>
<text text-anchor="middle" x="441.85" y="-1352.56" font-family="Times,serif" font-size="14.00">osegprof:Iopa</text>
</g>
<!-- http://w3id.org/oseg/ont/okhimg#slotOrganizationLogo -->
<g id="node10" class="node">
<title>http://w3id.org/oseg/ont/okhimg#slotOrganizationLogo</title>
<ellipse fill="none" stroke="#e377c2" cx="884.08" cy="-1210.26" rx="114.6" ry="16.03"/>
<text text-anchor="middle" x="884.08" y="-1206.56" font-family="Times,serif" font-size="14.00">okhimg:slotOrgani...</text>
</g>
<!-- http://w3id.org/oseg/ont/okhimg#slotOrganizationLogo&#45;&gt;http://schema.org/DefinedTerm -->
<g id="edge6" class="edge">
<title>http://w3id.org/oseg/ont/okhimg#slotOrganizationLogo&#45;&gt;http://schema.org/DefinedTerm</title>
<path fill="none" stroke="black" d="M967.73,-1221.44C1107.05,-1238.54 1381.21,-1264.17 1460.3,-1213.26 1610.99,-1116.27 1623.2,-864.81 1623,-782.08"/>
<polygon fill="black" stroke="black" points="1626.5,-781.96 1622.91,-771.99 1619.5,-782.02 1626.5,-781.96"/>
<text text-anchor="middle" x="1333.03" y="-1246.06" font-family="Times,serif" font-size="14.00">a</text>
</g>
<!-- http://w3id.org/oseg/ont/okhimg#slotOrganizationLogoBw -->
<g id="node21" class="node">
<title>http://w3id.org/oseg/ont/okhimg#slotOrganizationLogoBw</title>
<ellipse fill="none" stroke="#e377c2" cx="1333.03" cy="-1188.26" rx="114.6" ry="16.03"/>
<text text-anchor="middle" x="1333.03" y="-1184.56" font-family="Times,serif" font-size="14.00">okhimg:slotOrgani...</text>
</g>
<!-- http://w3id.org/oseg/ont/okhimg#slotOrganizationLogo&#45;&gt;http://w3id.org/oseg/ont/okhimg#slotOrganizationLogoBw -->
<g id="edge18" class="edge">
<title>http://w3id.org/oseg/ont/okhimg#slotOrganizationLogo&#45;&gt;http://w3id.org/oseg/ont/okhimg#slotOrganizationLogoBw</title>
<path fill="none" stroke="black" d="M928.34,-1195.16C954.38,-1186.88 988.4,-1177.46 1019.45,-1173.26 1094.3,-1163.15 1180.02,-1168.44 1242.75,-1175.39"/>
<polygon fill="black" stroke="black" points="1242.67,-1178.91 1253,-1176.57 1243.47,-1171.95 1242.67,-1178.91"/>
<text text-anchor="middle" x="1103.6" y="-1177.06" font-family="Times,serif" font-size="14.00">seeAlso</text>
</g>
<!-- http://w3id.org/oseg/ont/okhimg#slotModelFromAbove -->
<g id="node11" class="node">
<title>http://w3id.org/oseg/ont/okhimg#slotModelFromAbove</title>
<ellipse fill="none" stroke="#e377c2" cx="1333.03" cy="-1137.26" rx="116.85" ry="16.03"/>
<text text-anchor="middle" x="1333.03" y="-1133.56" font-family="Times,serif" font-size="14.00">okhimg:slotModelF...</text>
</g>
<!-- http://w3id.org/oseg/ont/okhimg#slotModelFromAbove&#45;&gt;http://schema.org/DefinedTerm -->
<g id="edge7" class="edge">
<title>http://w3id.org/oseg/ont/okhimg#slotModelFromAbove&#45;&gt;http://schema.org/DefinedTerm</title>
<path fill="none" stroke="black" d="M1427.7,-1127.72C1439.38,-1123.8 1450.61,-1118.48 1460.3,-1111.26 1572.07,-1028.16 1608.79,-849.74 1618.97,-782.05"/>
<polygon fill="black" stroke="black" points="1622.48,-782.2 1620.43,-771.81 1615.55,-781.21 1622.48,-782.2"/>
<text text-anchor="middle" x="1482.8" y="-1094.06" font-family="Times,serif" font-size="14.00">a</text>
</g>
<!-- http://w3id.org/oseg/ont/okhimg#slotIconMainBw&#45;&gt;http://schema.org/DefinedTerm -->
<g id="edge8" class="edge">
<title>http://w3id.org/oseg/ont/okhimg#slotIconMainBw&#45;&gt;http://schema.org/DefinedTerm</title>
<path fill="none" stroke="black" d="M1437.37,-1281.65C1455.82,-1276.12 1473.53,-1267.5 1487.3,-1254.26 1557.57,-1186.75 1605.83,-874.73 1618.86,-781.58"/>
<polygon fill="black" stroke="black" points="1622.34,-781.96 1620.24,-771.58 1615.4,-781.01 1622.34,-781.96"/>
<text text-anchor="middle" x="1482.8" y="-1263.06" font-family="Times,serif" font-size="14.00">a</text>
</g>
<!-- http://w3id.org/oseg/ont/okhimg#slotIconMainBw&#45;&gt;http://w3id.org/oseg/ont/okhimg#slotIconMain -->
<g id="edge35" class="edge">
<title>http://w3id.org/oseg/ont/okhimg#slotIconMainBw&#45;&gt;http://w3id.org/oseg/ont/okhimg#slotIconMain</title>
<path fill="none" stroke="black" d="M1218.78,-1293.06C1154.6,-1295.22 1074.23,-1297.92 1008.45,-1300.12"/>
<polygon fill="black" stroke="black" points="1008.31,-1296.63 998.44,-1300.46 1008.55,-1303.62 1008.31,-1296.63"/>
<text text-anchor="middle" x="1103.6" y="-1303.06" font-family="Times,serif" font-size="14.00">seeAlso</text>
</g>
<!-- http://w3id.org/oseg/ont/okhimg#slotModelFromLeft -->
<g id="node13" class="node">
<title>http://w3id.org/oseg/ont/okhimg#slotModelFromLeft</title>
<ellipse fill="none" stroke="#e377c2" cx="1333.03" cy="-1086.26" rx="116.85" ry="16.03"/>
<text text-anchor="middle" x="1333.03" y="-1082.56" font-family="Times,serif" font-size="14.00">okhimg:slotModelF...</text>
</g>
<!-- http://w3id.org/oseg/ont/okhimg#slotModelFromLeft&#45;&gt;http://schema.org/DefinedTerm -->
<g id="edge9" class="edge">
<title>http://w3id.org/oseg/ont/okhimg#slotModelFromLeft&#45;&gt;http://schema.org/DefinedTerm</title>
<path fill="none" stroke="black" d="M1427.2,-1076.59C1439.02,-1072.7 1450.42,-1067.41 1460.3,-1060.26 1557.93,-989.65 1602.16,-841.98 1616.67,-781.73"/>
<polygon fill="black" stroke="black" points="1620.11,-782.39 1618.97,-771.85 1613.29,-780.8 1620.11,-782.39"/>
<text text-anchor="middle" x="1482.8" y="-1046.06" font-family="Times,serif" font-size="14.00">a</text>
</g>
<!-- http://w3id.org/oseg/ont/okhimg#tagIcon -->
<g id="node14" class="node">
<title>http://w3id.org/oseg/ont/okhimg#tagIcon</title>
<ellipse fill="none" stroke="#e377c2" cx="1333.03" cy="-1035.26" rx="89.61" ry="16.03"/>
<text text-anchor="middle" x="1333.03" y="-1031.56" font-family="Times,serif" font-size="14.00">okhimg:tagIcon</text>
</g>
<!-- http://w3id.org/oseg/ont/okhimg#tagIcon&#45;&gt;http://schema.org/DefinedTerm -->
<g id="edge10" class="edge">
<title>http://w3id.org/oseg/ont/okhimg#tagIcon&#45;&gt;http://schema.org/DefinedTerm</title>
<path fill="none" stroke="black" d="M1415.05,-1028.52C1431.01,-1024.54 1446.94,-1018.47 1460.3,-1009.26 1544.73,-951.14 1594.87,-833.2 1613.75,-781.05"/>
<polygon fill="black" stroke="black" points="1617.08,-782.13 1617.11,-771.54 1610.48,-779.8 1617.08,-782.13"/>
<text text-anchor="middle" x="1482.8" y="-998.06" font-family="Times,serif" font-size="14.00">a</text>
</g>
<!-- http://w3id.org/oseg/ont/okhimg#slots -->
<g id="node15" class="node">
<title>http://w3id.org/oseg/ont/okhimg#slots</title>
<ellipse fill="none" stroke="#e377c2" cx="441.85" cy="-1305.26" rx="75.82" ry="16.03"/>
<text text-anchor="middle" x="441.85" y="-1301.56" font-family="Times,serif" font-size="14.00">okhimg:slots</text>
</g>
<!-- http://w3id.org/oseg/ont/okhimg#slots&#45;&gt;http://schema.org/DefinedTermSet -->
<g id="edge11" class="edge">
<title>http://w3id.org/oseg/ont/okhimg#slots&#45;&gt;http://schema.org/DefinedTermSet</title>
<path fill="none" stroke="black" d="M509.43,-1312.65C571.42,-1319.63 666.38,-1330.6 748.7,-1341.26 762.84,-1343.1 777.81,-1345.12 792.42,-1347.15"/>
<polygon fill="black" stroke="black" points="792.08,-1350.64 802.46,-1348.55 793.04,-1343.71 792.08,-1350.64"/>
<text text-anchor="middle" x="661.2" y="-1345.06" font-family="Times,serif" font-size="14.00">a</text>
</g>
<!-- http://w3id.org/oseg/ont/okhimg#slots&#45;&gt;http://w3id.org/oseg/ont/okhimg#slotIconMain -->
<g id="edge38" class="edge">
<title>http://w3id.org/oseg/ont/okhimg#slots&#45;&gt;http://w3id.org/oseg/ont/okhimg#slotIconMain</title>
<path fill="none" stroke="black" d="M516.19,-1301.97C534.94,-1301.26 555.06,-1300.62 573.7,-1300.26 651.46,-1298.78 670.93,-1299.11 748.7,-1300.26 752.19,-1300.32 755.73,-1300.37 759.3,-1300.44"/>
<polygon fill="black" stroke="black" points="759.37,-1303.94 769.44,-1300.64 759.51,-1296.94 759.37,-1303.94"/>
<text text-anchor="middle" x="661.2" y="-1304.06" font-family="Times,serif" font-size="14.00">schema:hasDefinedTerm</text>
</g>
<!-- http://w3id.org/oseg/ont/okhimg#tagPhoto -->
<g id="node16" class="node">
<title>http://w3id.org/oseg/ont/okhimg#tagPhoto</title>
<ellipse fill="none" stroke="#e377c2" cx="1333.03" cy="-984.26" rx="97.66" ry="16.03"/>
<text text-anchor="middle" x="1333.03" y="-980.56" font-family="Times,serif" font-size="14.00">okhimg:tagPhoto</text>
</g>
<!-- http://w3id.org/oseg/ont/okhimg#tagPhoto&#45;&gt;http://schema.org/DefinedTerm -->
<g id="edge13" class="edge">
<title>http://w3id.org/oseg/ont/okhimg#tagPhoto&#45;&gt;http://schema.org/DefinedTerm</title>
<path fill="none" stroke="black" d="M1416.65,-975.83C1431.9,-971.95 1447.14,-966.34 1460.3,-958.26 1532.87,-913.77 1586.53,-824.55 1609.73,-780.73"/>
<polygon fill="black" stroke="black" points="1612.96,-782.1 1614.46,-771.61 1606.75,-778.87 1612.96,-782.1"/>
<text text-anchor="middle" x="1482.8" y="-946.06" font-family="Times,serif" font-size="14.00">a</text>
</g>
<!-- http://w3id.org/oseg/ont/okhimg#slotModelMain -->
<g id="node17" class="node">
<title>http://w3id.org/oseg/ont/okhimg#slotModelMain</title>
<ellipse fill="none" stroke="#e377c2" cx="1333.03" cy="-933.26" rx="127.06" ry="16.03"/>
<text text-anchor="middle" x="1333.03" y="-929.56" font-family="Times,serif" font-size="14.00">okhimg:slotModelMain</text>
</g>
<!-- http://w3id.org/oseg/ont/okhimg#slotModelMain&#45;&gt;http://schema.org/DefinedTerm -->
<g id="edge14" class="edge">
<title>http://w3id.org/oseg/ont/okhimg#slotModelMain&#45;&gt;http://schema.org/DefinedTerm</title>
<path fill="none" stroke="black" d="M1422.44,-921.57C1435.55,-918 1448.58,-913.34 1460.3,-907.26 1521.56,-875.52 1576.34,-813.94 1603.79,-779.71"/>
<polygon fill="black" stroke="black" points="1606.72,-781.65 1610.17,-771.63 1601.22,-777.31 1606.72,-781.65"/>
<text text-anchor="middle" x="1482.8" y="-899.06" font-family="Times,serif" font-size="14.00">a</text>
</g>
<!-- http://w3id.org/oseg/ont/okhimg#tagArt&#45;&gt;http://schema.org/DefinedTerm -->
<g id="edge26" class="edge">
<title>http://w3id.org/oseg/ont/okhimg#tagArt&#45;&gt;http://schema.org/DefinedTerm</title>
<path fill="none" stroke="black" d="M1187.35,-1401.04C1286.89,-1401.32 1445.8,-1395.2 1487.3,-1355.26 1572.2,-1273.56 1611.12,-886.83 1620.24,-781.7"/>
<polygon fill="black" stroke="black" points="1623.73,-781.88 1621.09,-771.62 1616.76,-781.29 1623.73,-781.88"/>
<text text-anchor="middle" x="1333.03" y="-1404.06" font-family="Times,serif" font-size="14.00">a</text>
</g>
<!-- http://id.loc.gov/vocabulary/iso639&#45;1/en -->
<g id="node19" class="node">
<title>http://id.loc.gov/vocabulary/iso639&#45;1/en</title>
<ellipse fill="none" stroke="#e377c2" cx="441.85" cy="-1254.26" rx="45.01" ry="16.03"/>
<text text-anchor="middle" x="441.85" y="-1250.56" font-family="Times,serif" font-size="14.00">ns1:en</text>
</g>
<!-- http://w3id.org/oseg/ont/oseg&#45;profiles#robinVobruba -->
<g id="node20" class="node">
<title>http://w3id.org/oseg/ont/oseg&#45;profiles#robinVobruba</title>
<ellipse fill="none" stroke="#e377c2" cx="441.85" cy="-1203.26" rx="113.69" ry="16.03"/>
<text text-anchor="middle" x="441.85" y="-1199.56" font-family="Times,serif" font-size="14.00">osegprof:robinVob...</text>
</g>
<!-- http://w3id.org/oseg/ont/okhimg#slotOrganizationLogoBw&#45;&gt;http://schema.org/DefinedTerm -->
<g id="edge42" class="edge">
<title>http://w3id.org/oseg/ont/okhimg#slotOrganizationLogoBw&#45;&gt;http://schema.org/DefinedTerm</title>
<path fill="none" stroke="black" d="M1427.54,-1179.04C1439.31,-1175.08 1450.6,-1169.66 1460.3,-1162.26 1586.59,-1065.99 1614.7,-856.04 1620.77,-781.87"/>
<polygon fill="black" stroke="black" points="1624.29,-781.79 1621.54,-771.55 1617.31,-781.26 1624.29,-781.79"/>
<text text-anchor="middle" x="1482.8" y="-1143.06" font-family="Times,serif" font-size="14.00">a</text>
</g>
<!-- http://w3id.org/oseg/ont/okhimg#slotOrganizationLogoBw&#45;&gt;http://w3id.org/oseg/ont/okhimg#slotOrganizationLogo -->
<g id="edge21" class="edge">
<title>http://w3id.org/oseg/ont/okhimg#slotOrganizationLogoBw&#45;&gt;http://w3id.org/oseg/ont/okhimg#slotOrganizationLogo</title>
<path fill="none" stroke="black" d="M1224.43,-1193.56C1157.42,-1196.86 1071.2,-1201.1 1002.43,-1204.49"/>
<polygon fill="black" stroke="black" points="1002.23,-1200.99 992.42,-1204.98 1002.58,-1207.98 1002.23,-1200.99"/>
<text text-anchor="middle" x="1103.6" y="-1206.06" font-family="Times,serif" font-size="14.00">seeAlso</text>
</g>
<!-- http://w3id.org/oseg/ont/okhimg#tagModel -->
<g id="node22" class="node">
<title>http://w3id.org/oseg/ont/okhimg#tagModel</title>
<ellipse fill="none" stroke="#e377c2" cx="1333.03" cy="-882.26" rx="99.9" ry="16.03"/>
<text text-anchor="middle" x="1333.03" y="-878.56" font-family="Times,serif" font-size="14.00">okhimg:tagModel</text>
</g>
<!-- http://w3id.org/oseg/ont/okhimg#tagModel&#45;&gt;http://schema.org/DefinedTerm -->
<g id="edge19" class="edge">
<title>http://w3id.org/oseg/ont/okhimg#tagModel&#45;&gt;http://schema.org/DefinedTerm</title>
<path fill="none" stroke="black" d="M1408.43,-871.5C1425.8,-867.75 1443.99,-862.78 1460.3,-856.26 1510.4,-836.25 1562.29,-800.88 1593.46,-777.75"/>
<polygon fill="black" stroke="black" points="1595.79,-780.38 1601.68,-771.58 1591.58,-774.78 1595.79,-780.38"/>
<text text-anchor="middle" x="1482.8" y="-851.06" font-family="Times,serif" font-size="14.00">a</text>
</g>
<!-- http://w3id.org/oseg/ont/okhimg#slotModelFromBelow -->
<g id="node23" class="node">
<title>http://w3id.org/oseg/ont/okhimg#slotModelFromBelow</title>
<ellipse fill="none" stroke="#e377c2" cx="1333.03" cy="-831.26" rx="116.85" ry="16.03"/>
<text text-anchor="middle" x="1333.03" y="-827.56" font-family="Times,serif" font-size="14.00">okhimg:slotModelF...</text>
</g>
<!-- http://w3id.org/oseg/ont/okhimg#slotModelFromBelow&#45;&gt;http://schema.org/DefinedTerm -->
<g id="edge20" class="edge">
<title>http://w3id.org/oseg/ont/okhimg#slotModelFromBelow&#45;&gt;http://schema.org/DefinedTerm</title>
<path fill="none" stroke="black" d="M1403.45,-818.22C1422,-814.39 1441.98,-809.96 1460.3,-805.26 1496.47,-795.99 1536.57,-783.63 1567.83,-773.53"/>
<polygon fill="black" stroke="black" points="1569.23,-776.76 1577.66,-770.33 1567.06,-770.1 1569.23,-776.76"/>
<text text-anchor="middle" x="1482.8" y="-803.06" font-family="Times,serif" font-size="14.00">a</text>
</g>
<!-- http://w3id.org/oseg/ont/okhimg#tagBw -->
<g id="node24" class="node">
<title>http://w3id.org/oseg/ont/okhimg#tagBw</title>
<ellipse fill="none" stroke="#e377c2" cx="1333.03" cy="-780.26" rx="84.29" ry="16.03"/>
<text text-anchor="middle" x="1333.03" y="-776.56" font-family="Times,serif" font-size="14.00">okhimg:tagBw</text>
</g>
<!-- http://w3id.org/oseg/ont/okhimg#tagBw&#45;&gt;http://schema.org/DefinedTerm -->
<g id="edge22" class="edge">
<title>http://w3id.org/oseg/ont/okhimg#tagBw&#45;&gt;http://schema.org/DefinedTerm</title>
<path fill="none" stroke="black" d="M1410.17,-773.66C1441.61,-770.94 1478.64,-767.73 1512.9,-764.76"/>
<polygon fill="black" stroke="black" points="1513.3,-768.23 1522.96,-763.88 1512.69,-761.26 1513.3,-768.23"/>
<text text-anchor="middle" x="1482.8" y="-770.06" font-family="Times,serif" font-size="14.00">a</text>
</g>
<!-- http://w3id.org/oseg/ont/okhimg -->
<g id="node25" class="node">
<title>http://w3id.org/oseg/ont/okhimg</title>
<ellipse fill="none" stroke="#e377c2" cx="70" cy="-1286.26" rx="70.01" ry="16.03"/>
<text text-anchor="middle" x="70" y="-1282.56" font-family="Times,serif" font-size="14.00">ns2:okhimg</text>
</g>
<!-- http://w3id.org/oseg/ont/okhimg&#45;&gt;http://spdx.org/rdf/terms#SpdxItem -->
<g id="edge28" class="edge">
<title>http://w3id.org/oseg/ont/okhimg&#45;&gt;http://spdx.org/rdf/terms#SpdxItem</title>
<path fill="none" stroke="black" d="M72.92,-1302.69C78.34,-1341.05 97.57,-1436.59 158.01,-1480.26 217.7,-1523.39 303.88,-1526.1 365.41,-1520.85"/>
<polygon fill="black" stroke="black" points="365.81,-1524.33 375.44,-1519.91 365.16,-1517.36 365.81,-1524.33"/>
<text text-anchor="middle" x="234.01" y="-1526.06" font-family="Times,serif" font-size="14.00">a</text>
</g>
<!-- http://w3id.org/oseg/ont/okhimg&#45;&gt;http://w3id.org/oseg/ont/ods#Dataset -->
<g id="edge23" class="edge">
<title>http://w3id.org/oseg/ont/okhimg&#45;&gt;http://w3id.org/oseg/ont/ods#Dataset</title>
<path fill="none" stroke="black" d="M76.58,-1302.5C87.36,-1331.17 113.94,-1390.37 158.01,-1418.26 219.61,-1457.25 303.72,-1464.65 364.18,-1463.89"/>
<polygon fill="black" stroke="black" points="364.51,-1467.38 374.43,-1463.68 364.36,-1460.38 364.51,-1467.38"/>
<text text-anchor="middle" x="234.01" y="-1465.06" font-family="Times,serif" font-size="14.00">a</text>
</g>
<!-- http://w3id.org/oseg/ont/okhimg&#45;&gt;http://w3id.org/oseg/ont/okhimg#tags -->
<g id="edge4" class="edge">
<title>http://w3id.org/oseg/ont/okhimg&#45;&gt;http://w3id.org/oseg/ont/okhimg#tags</title>
<path fill="none" stroke="black" d="M84.92,-1302.44C100.77,-1319.73 128.33,-1346.48 158.01,-1360.26 221.25,-1389.63 299.98,-1400.93 358.3,-1405.15"/>
<polygon fill="black" stroke="black" points="358.37,-1408.66 368.58,-1405.83 358.83,-1401.67 358.37,-1408.66"/>
<text text-anchor="middle" x="234.01" y="-1403.06" font-family="Times,serif" font-size="14.00">void:rootResource</text>
</g>
<!-- http://w3id.org/oseg/ont/okhimg&#45;&gt;http://w3id.org/oseg/ont/oseg&#45;profiles#Iopa -->
<g id="edge5" class="edge">
<title>http://w3id.org/oseg/ont/okhimg&#45;&gt;http://w3id.org/oseg/ont/oseg&#45;profiles#Iopa</title>
<path fill="none" stroke="black" d="M106.53,-1300.24C122.12,-1305.92 140.76,-1312.11 158.01,-1316.26 224.3,-1332.22 300.97,-1342.58 357.75,-1348.75"/>
<polygon fill="black" stroke="black" points="357.44,-1352.23 367.76,-1349.81 358.19,-1345.27 357.44,-1352.23"/>
<text text-anchor="middle" x="234.01" y="-1345.06" font-family="Times,serif" font-size="14.00">dcterms:publisher</text>
</g>
<!-- http://w3id.org/oseg/ont/okhimg&#45;&gt;http://w3id.org/oseg/ont/okhimg#slots -->
<g id="edge32" class="edge">
<title>http://w3id.org/oseg/ont/okhimg&#45;&gt;http://w3id.org/oseg/ont/okhimg#slots</title>
<path fill="none" stroke="black" d="M138.41,-1289.73C200.02,-1292.89 291.33,-1297.58 357.5,-1300.98"/>
<polygon fill="black" stroke="black" points="357.73,-1304.5 367.89,-1301.52 358.09,-1297.51 357.73,-1304.5"/>
<text text-anchor="middle" x="234.01" y="-1301.06" font-family="Times,serif" font-size="14.00">void:rootResource</text>
</g>
<!-- http://w3id.org/oseg/ont/okhimg&#45;&gt;http://id.loc.gov/vocabulary/iso639&#45;1/en -->
<g id="edge16" class="edge">
<title>http://w3id.org/oseg/ont/okhimg&#45;&gt;http://id.loc.gov/vocabulary/iso639&#45;1/en</title>
<path fill="none" stroke="black" d="M124.71,-1276.05C135.69,-1274.23 147.2,-1272.52 158.01,-1271.26 237.13,-1262.09 329.32,-1257.72 386.39,-1255.75"/>
<polygon fill="black" stroke="black" points="386.75,-1259.24 396.63,-1255.41 386.51,-1252.24 386.75,-1259.24"/>
<text text-anchor="middle" x="234.01" y="-1275.06" font-family="Times,serif" font-size="14.00">dcterms:language</text>
</g>
<!-- http://w3id.org/oseg/ont/okhimg&#45;&gt;http://w3id.org/oseg/ont/oseg&#45;profiles#robinVobruba -->
<g id="edge17" class="edge">
<title>http://w3id.org/oseg/ont/okhimg&#45;&gt;http://w3id.org/oseg/ont/oseg&#45;profiles#robinVobruba</title>
<path fill="none" stroke="black" d="M94.37,-1270.96C111.33,-1260.6 135.21,-1247.52 158.01,-1240.26 210.87,-1223.43 271.64,-1214.25 323.26,-1209.24"/>
<polygon fill="black" stroke="black" points="323.83,-1212.7 333.46,-1208.29 323.18,-1205.73 323.83,-1212.7"/>
<text text-anchor="middle" x="234.01" y="-1244.06" font-family="Times,serif" font-size="14.00">schema:creator</text>
</g>
<!-- http://w3id.org/oseg/ont/okhimg&#45;&gt;http://w3id.org/oseg/ont/oseg&#45;profiles#robinVobruba -->
<g id="edge45" class="edge">
<title>http://w3id.org/oseg/ont/okhimg&#45;&gt;http://w3id.org/oseg/ont/oseg&#45;profiles#robinVobruba</title>
<path fill="none" stroke="black" d="M79.94,-1270.03C93.43,-1247.41 121.37,-1207.39 158.01,-1191.26 191.24,-1176.64 280.31,-1182.89 349.7,-1190.79"/>
<polygon fill="black" stroke="black" points="349.45,-1194.29 359.79,-1191.97 350.26,-1187.33 349.45,-1194.29"/>
<text text-anchor="middle" x="234.01" y="-1195.06" font-family="Times,serif" font-size="14.00">dcterms:creator</text>
</g>
<!-- http://spdx.org/licenses/AGPL&#45;3.0&#45;or&#45;later -->
<g id="node29" class="node">
<title>http://spdx.org/licenses/AGPL&#45;3.0&#45;or&#45;later</title>
<ellipse fill="none" stroke="#e377c2" cx="441.85" cy="-1152.26" rx="111.95" ry="16.03"/>
<text text-anchor="middle" x="441.85" y="-1148.56" font-family="Times,serif" font-size="14.00">spdxl:AGPL&#45;3.0&#45;or...</text>
</g>
<!-- http://w3id.org/oseg/ont/okhimg&#45;&gt;http://spdx.org/licenses/AGPL&#45;3.0&#45;or&#45;later -->
<g id="edge27" class="edge">
<title>http://w3id.org/oseg/ont/okhimg&#45;&gt;http://spdx.org/licenses/AGPL&#45;3.0&#45;or&#45;later</title>
<path fill="none" stroke="black" d="M77.01,-1269.8C88.12,-1242.05 114.78,-1186.71 158.01,-1163.26 221.5,-1128.82 305.34,-1130.31 365.22,-1137.81"/>
<polygon fill="black" stroke="black" points="364.98,-1141.31 375.36,-1139.17 365.91,-1134.38 364.98,-1141.31"/>
<text text-anchor="middle" x="234.01" y="-1167.06" font-family="Times,serif" font-size="14.00">spdx:licenseDeclared</text>
</g>
<!-- http://w3id.org/oseg/ont/0.1.0/okhimg -->
<g id="node36" class="node">
<title>http://w3id.org/oseg/ont/0.1.0/okhimg</title>
<ellipse fill="none" stroke="#e377c2" cx="441.85" cy="-1101.26" rx="70.01" ry="16.03"/>
<text text-anchor="middle" x="441.85" y="-1097.56" font-family="Times,serif" font-size="14.00">ns3:okhimg</text>
</g>
<!-- http://w3id.org/oseg/ont/okhimg&#45;&gt;http://w3id.org/oseg/ont/0.1.0/okhimg -->
<g id="edge40" class="edge">
<title>http://w3id.org/oseg/ont/okhimg&#45;&gt;http://w3id.org/oseg/ont/0.1.0/okhimg</title>
<path fill="none" stroke="black" d="M73.71,-1269.86C80.54,-1234.3 102.09,-1150.44 158.01,-1114.26 225.25,-1070.76 321.47,-1077.37 382.55,-1087.92"/>
<polygon fill="black" stroke="black" points="381.94,-1091.37 392.41,-1089.71 383.19,-1084.48 381.94,-1091.37"/>
<text text-anchor="middle" x="234.01" y="-1118.06" font-family="Times,serif" font-size="14.00">owl:versionIRI</text>
</g>
<!-- http://w3id.org/oseg/ont/okhimg#slotLogoBw -->
<g id="node26" class="node">
<title>http://w3id.org/oseg/ont/okhimg#slotLogoBw</title>
<ellipse fill="none" stroke="#e377c2" cx="884.08" cy="-701.26" rx="111.03" ry="16.03"/>
<text text-anchor="middle" x="884.08" y="-697.56" font-family="Times,serif" font-size="14.00">okhimg:slotLogoBw</text>
</g>
<!-- http://w3id.org/oseg/ont/okhimg#slotLogoBw&#45;&gt;http://schema.org/DefinedTerm -->
<g id="edge50" class="edge">
<title>http://w3id.org/oseg/ont/okhimg#slotLogoBw&#45;&gt;http://schema.org/DefinedTerm</title>
<path fill="none" stroke="black" d="M980.86,-709.32C993.83,-710.35 1006.96,-711.36 1019.45,-712.26 1215.27,-726.49 1264.57,-724.99 1460.3,-740.26 1478.46,-741.68 1497.74,-743.33 1516.43,-745.01"/>
<polygon fill="black" stroke="black" points="1516.16,-748.5 1526.44,-745.92 1516.79,-741.53 1516.16,-748.5"/>
<text text-anchor="middle" x="1333.03" y="-744.06" font-family="Times,serif" font-size="14.00">a</text>
</g>
<!-- http://w3id.org/oseg/ont/okhimg#slotLogo -->
<g id="node33" class="node">
<title>http://w3id.org/oseg/ont/okhimg#slotLogo</title>
<ellipse fill="none" stroke="#e377c2" cx="1333.03" cy="-679.26" rx="94.51" ry="16.03"/>
<text text-anchor="middle" x="1333.03" y="-675.56" font-family="Times,serif" font-size="14.00">okhimg:slotLogo</text>
</g>
<!-- http://w3id.org/oseg/ont/okhimg#slotLogoBw&#45;&gt;http://w3id.org/oseg/ont/okhimg#slotLogo -->
<g id="edge34" class="edge">
<title>http://w3id.org/oseg/ont/okhimg#slotLogoBw&#45;&gt;http://w3id.org/oseg/ont/okhimg#slotLogo</title>
<path fill="none" stroke="black" d="M928.03,-686.26C954.12,-677.95 988.28,-668.48 1019.45,-664.26 1097.61,-653.7 1187.64,-659.94 1250.94,-667.32"/>
<polygon fill="black" stroke="black" points="1250.91,-670.85 1261.26,-668.56 1251.75,-663.9 1250.91,-670.85"/>
<text text-anchor="middle" x="1103.6" y="-668.06" font-family="Times,serif" font-size="14.00">seeAlso</text>
</g>
<!-- http://w3id.org/oseg/ont/okhimg#slotModelFromBack -->
<g id="node27" class="node">
<title>http://w3id.org/oseg/ont/okhimg#slotModelFromBack</title>
<ellipse fill="none" stroke="#e377c2" cx="1333.03" cy="-628.26" rx="116.85" ry="16.03"/>
<text text-anchor="middle" x="1333.03" y="-624.56" font-family="Times,serif" font-size="14.00">okhimg:slotModelF...</text>
</g>
<!-- http://w3id.org/oseg/ont/okhimg#slotModelFromBack&#45;&gt;http://schema.org/DefinedTerm -->
<g id="edge24" class="edge">
<title>http://w3id.org/oseg/ont/okhimg#slotModelFromBack&#45;&gt;http://schema.org/DefinedTerm</title>
<path fill="none" stroke="black" d="M1413.43,-640.13C1429.26,-643.74 1445.55,-648.37 1460.3,-654.26 1510.4,-674.28 1562.29,-709.65 1593.46,-732.77"/>
<polygon fill="black" stroke="black" points="1591.58,-735.74 1601.68,-738.95 1595.79,-730.14 1591.58,-735.74"/>
<text text-anchor="middle" x="1482.8" y="-668.06" font-family="Times,serif" font-size="14.00">a</text>
</g>
<!-- http://w3id.org/oseg/ont/okhimg#slotModelFromRight -->
<g id="node28" class="node">
<title>http://w3id.org/oseg/ont/okhimg#slotModelFromRight</title>
<ellipse fill="none" stroke="#e377c2" cx="1333.03" cy="-577.26" rx="116.85" ry="16.03"/>
<text text-anchor="middle" x="1333.03" y="-573.56" font-family="Times,serif" font-size="14.00">okhimg:slotModelF...</text>
</g>
<!-- http://w3id.org/oseg/ont/okhimg#slotModelFromRight&#45;&gt;http://schema.org/DefinedTerm -->
<g id="edge25" class="edge">
<title>http://w3id.org/oseg/ont/okhimg#slotModelFromRight&#45;&gt;http://schema.org/DefinedTerm</title>
<path fill="none" stroke="black" d="M1419.78,-588.25C1433.78,-591.9 1447.79,-596.77 1460.3,-603.26 1521.56,-635.01 1576.34,-696.58 1603.79,-730.82"/>
<polygon fill="black" stroke="black" points="1601.22,-733.22 1610.17,-738.9 1606.72,-728.88 1601.22,-733.22"/>
<text text-anchor="middle" x="1482.8" y="-622.06" font-family="Times,serif" font-size="14.00">a</text>
</g>
<!-- http://w3id.org/oseg/ont/okhimg#slotSymbol -->
<g id="node30" class="node">
<title>http://w3id.org/oseg/ont/okhimg#slotSymbol</title>
<ellipse fill="none" stroke="#e377c2" cx="1333.03" cy="-526.26" rx="108.38" ry="16.03"/>
<text text-anchor="middle" x="1333.03" y="-522.56" font-family="Times,serif" font-size="14.00">okhimg:slotSymbol</text>
</g>
<!-- http://w3id.org/oseg/ont/okhimg#slotSymbol&#45;&gt;http://schema.org/DefinedTerm -->
<g id="edge29" class="edge">
<title>http://w3id.org/oseg/ont/okhimg#slotSymbol&#45;&gt;http://schema.org/DefinedTerm</title>
<path fill="none" stroke="black" d="M1420.96,-535.84C1434.75,-539.66 1448.38,-544.95 1460.3,-552.26 1532.87,-596.75 1586.53,-685.97 1609.73,-729.79"/>
<polygon fill="black" stroke="black" points="1606.75,-731.65 1614.46,-738.92 1612.96,-728.43 1606.75,-731.65"/>
<text text-anchor="middle" x="1482.8" y="-571.06" font-family="Times,serif" font-size="14.00">a</text>
</g>
<!-- http://w3id.org/oseg/ont/okhimg#slotPhotoPackaging -->
<g id="node31" class="node">
<title>http://w3id.org/oseg/ont/okhimg#slotPhotoPackaging</title>
<ellipse fill="none" stroke="#e377c2" cx="1333.03" cy="-475.26" rx="113.69" ry="16.03"/>
<text text-anchor="middle" x="1333.03" y="-471.56" font-family="Times,serif" font-size="14.00">okhimg:slotPhotoP...</text>
</g>
<!-- http://w3id.org/oseg/ont/okhimg#slotPhotoPackaging&#45;&gt;http://schema.org/DefinedTerm -->
<g id="edge31" class="edge">
<title>http://w3id.org/oseg/ont/okhimg#slotPhotoPackaging&#45;&gt;http://schema.org/DefinedTerm</title>
<path fill="none" stroke="black" d="M1425.26,-484.86C1437.71,-488.73 1449.8,-494.03 1460.3,-501.26 1544.73,-559.39 1594.87,-677.33 1613.75,-729.48"/>
<polygon fill="black" stroke="black" points="1610.48,-730.73 1617.11,-738.99 1617.08,-728.4 1610.48,-730.73"/>
<text text-anchor="middle" x="1482.8" y="-525.06" font-family="Times,serif" font-size="14.00">a</text>
</g>
<!-- http://w3id.org/oseg/ont/okhimg#tagDrawing -->
<g id="node32" class="node">
<title>http://w3id.org/oseg/ont/okhimg#tagDrawing</title>
<ellipse fill="none" stroke="#e377c2" cx="1333.03" cy="-424.26" rx="111.95" ry="16.03"/>
<text text-anchor="middle" x="1333.03" y="-420.56" font-family="Times,serif" font-size="14.00">okhimg:tagDrawing</text>
</g>
<!-- http://w3id.org/oseg/ont/okhimg#tagDrawing&#45;&gt;http://schema.org/DefinedTerm -->
<g id="edge30" class="edge">
<title>http://w3id.org/oseg/ont/okhimg#tagDrawing&#45;&gt;http://schema.org/DefinedTerm</title>
<path fill="none" stroke="black" d="M1425.51,-433.5C1437.92,-437.42 1449.93,-442.83 1460.3,-450.26 1558.49,-520.59 1602.51,-669.04 1616.82,-729.16"/>
<polygon fill="black" stroke="black" points="1613.43,-730.04 1619.08,-739 1620.25,-728.47 1613.43,-730.04"/>
<text text-anchor="middle" x="1482.8" y="-471.06" font-family="Times,serif" font-size="14.00">a</text>
</g>
<!-- http://w3id.org/oseg/ont/okhimg#slotLogo&#45;&gt;http://schema.org/DefinedTerm -->
<g id="edge36" class="edge">
<title>http://w3id.org/oseg/ont/okhimg#slotLogo&#45;&gt;http://schema.org/DefinedTerm</title>
<path fill="none" stroke="black" d="M1413.88,-687.78C1437.73,-691.25 1463.78,-695.97 1487.3,-702.26 1519.06,-710.76 1553.54,-724.36 1579.71,-735.66"/>
<polygon fill="black" stroke="black" points="1578.39,-738.9 1588.96,-739.7 1581.2,-732.49 1578.39,-738.9"/>
<text text-anchor="middle" x="1482.8" y="-706.06" font-family="Times,serif" font-size="14.00">a</text>
</g>
<!-- http://w3id.org/oseg/ont/okhimg#slotLogo&#45;&gt;http://w3id.org/oseg/ont/okhimg#slotLogoBw -->
<g id="edge49" class="edge">
<title>http://w3id.org/oseg/ont/okhimg#slotLogo&#45;&gt;http://w3id.org/oseg/ont/okhimg#slotLogoBw</title>
<path fill="none" stroke="black" d="M1241.75,-683.71C1171.95,-687.14 1074.85,-691.92 999.58,-695.63"/>
<polygon fill="black" stroke="black" points="999.4,-692.13 989.58,-696.12 999.74,-699.12 999.4,-692.13"/>
<text text-anchor="middle" x="1103.6" y="-697.06" font-family="Times,serif" font-size="14.00">seeAlso</text>
</g>
<!-- http://w3id.org/oseg/ont/okhimg#slotSocial -->
<g id="node34" class="node">
<title>http://w3id.org/oseg/ont/okhimg#slotSocial</title>
<ellipse fill="none" stroke="#e377c2" cx="1333.03" cy="-373.26" rx="101.23" ry="16.03"/>
<text text-anchor="middle" x="1333.03" y="-369.56" font-family="Times,serif" font-size="14.00">okhimg:slotSocial</text>
</g>
<!-- http://w3id.org/oseg/ont/okhimg#slotSocial&#45;&gt;http://schema.org/DefinedTerm -->
<g id="edge37" class="edge">
<title>http://w3id.org/oseg/ont/okhimg#slotSocial&#45;&gt;http://schema.org/DefinedTerm</title>
<path fill="none" stroke="black" d="M1422.1,-381.15C1435.75,-385.17 1449.04,-390.96 1460.3,-399.26 1572.42,-481.89 1608.93,-660.6 1619.01,-728.42"/>
<polygon fill="black" stroke="black" points="1615.6,-729.27 1620.46,-738.68 1622.53,-728.29 1615.6,-729.27"/>
<text text-anchor="middle" x="1482.8" y="-423.06" font-family="Times,serif" font-size="14.00">a</text>
</g>
<!-- http://w3id.org/oseg/ont/okhimg#slotPhotoThingMain -->
<g id="node35" class="node">
<title>http://w3id.org/oseg/ont/okhimg#slotPhotoThingMain</title>
<ellipse fill="none" stroke="#e377c2" cx="1333.03" cy="-322.26" rx="114.6" ry="16.03"/>
<text text-anchor="middle" x="1333.03" y="-318.56" font-family="Times,serif" font-size="14.00">okhimg:slotPhotoT...</text>
</g>
<!-- http://w3id.org/oseg/ont/okhimg#slotPhotoThingMain&#45;&gt;http://schema.org/DefinedTerm -->
<g id="edge39" class="edge">
<title>http://w3id.org/oseg/ont/okhimg#slotPhotoThingMain&#45;&gt;http://schema.org/DefinedTerm</title>
<path fill="none" stroke="black" d="M1427.49,-331.55C1439.26,-335.5 1450.57,-340.91 1460.3,-348.26 1586.96,-444.04 1614.84,-654.3 1620.81,-728.61"/>
<polygon fill="black" stroke="black" points="1617.35,-729.23 1621.57,-738.94 1624.33,-728.71 1617.35,-729.23"/>
<text text-anchor="middle" x="1482.8" y="-374.06" font-family="Times,serif" font-size="14.00">a</text>
</g>
<!-- http://w3id.org/oseg/ont/okhimg#tagAssembly -->
<g id="node37" class="node">
<title>http://w3id.org/oseg/ont/okhimg#tagAssembly</title>
<ellipse fill="none" stroke="#e377c2" cx="1333.03" cy="-271.26" rx="116.85" ry="16.03"/>
<text text-anchor="middle" x="1333.03" y="-267.56" font-family="Times,serif" font-size="14.00">okhimg:tagAssembly</text>
</g>
<!-- http://w3id.org/oseg/ont/okhimg#tagAssembly&#45;&gt;http://schema.org/DefinedTerm -->
<g id="edge41" class="edge">
<title>http://w3id.org/oseg/ont/okhimg#tagAssembly&#45;&gt;http://schema.org/DefinedTerm</title>
<path fill="none" stroke="black" d="M1428.56,-280.75C1439.97,-284.69 1450.9,-290.04 1460.3,-297.26 1601.8,-405.97 1620.13,-647.77 1622.23,-728.47"/>
<polygon fill="black" stroke="black" points="1618.73,-728.82 1622.43,-738.75 1625.73,-728.69 1618.73,-728.82"/>
<text text-anchor="middle" x="1482.8" y="-317.06" font-family="Times,serif" font-size="14.00">a</text>
</g>
<!-- http://w3id.org/oseg/ont/okhimg#tagLogo -->
<g id="node38" class="node">
<title>http://w3id.org/oseg/ont/okhimg#tagLogo</title>
<ellipse fill="none" stroke="#e377c2" cx="1333.03" cy="-220.26" rx="92.76" ry="16.03"/>
<text text-anchor="middle" x="1333.03" y="-216.56" font-family="Times,serif" font-size="14.00">okhimg:tagLogo</text>
</g>
<!-- http://w3id.org/oseg/ont/okhimg#tagLogo&#45;&gt;http://schema.org/DefinedTerm -->
<g id="edge43" class="edge">
<title>http://w3id.org/oseg/ont/okhimg#tagLogo&#45;&gt;http://schema.org/DefinedTerm</title>
<path fill="none" stroke="black" d="M1417.76,-227.04C1432.91,-231.07 1447.83,-237.16 1460.3,-246.26 1480.07,-260.7 1477.8,-271.71 1487.3,-294.26 1554.44,-453.63 1601.45,-657.28 1616.89,-728.92"/>
<polygon fill="black" stroke="black" points="1613.5,-729.83 1619.01,-738.88 1620.35,-728.37 1613.5,-729.83"/>
<text text-anchor="middle" x="1482.8" y="-298.06" font-family="Times,serif" font-size="14.00">a</text>
</g>
<!-- http://w3id.org/oseg/ont/okhimg#slotModelFromFront -->
<g id="node39" class="node">
<title>http://w3id.org/oseg/ont/okhimg#slotModelFromFront</title>
<ellipse fill="none" stroke="#e377c2" cx="1333.03" cy="-169.26" rx="116.85" ry="16.03"/>
<text text-anchor="middle" x="1333.03" y="-165.56" font-family="Times,serif" font-size="14.00">okhimg:slotModelF...</text>
</g>
<!-- http://w3id.org/oseg/ont/okhimg#slotModelFromFront&#45;&gt;http://schema.org/DefinedTerm -->
<g id="edge44" class="edge">
<title>http://w3id.org/oseg/ont/okhimg#slotModelFromFront&#45;&gt;http://schema.org/DefinedTerm</title>
<path fill="none" stroke="black" d="M1428.56,-178.75C1439.97,-182.69 1450.9,-188.04 1460.3,-195.26 1481.58,-211.61 1477.8,-224.17 1487.3,-249.26 1554.72,-427.14 1602.17,-652.22 1617.26,-728.56"/>
<polygon fill="black" stroke="black" points="1613.89,-729.58 1619.25,-738.72 1620.76,-728.23 1613.89,-729.58"/>
<text text-anchor="middle" x="1482.8" y="-253.06" font-family="Times,serif" font-size="14.00">a</text>
</g>
<!-- http://w3id.org/oseg/ont/okhimg#slotModel3D -->
<g id="node40" class="node">
<title>http://w3id.org/oseg/ont/okhimg#slotModel3D</title>
<ellipse fill="none" stroke="#e377c2" cx="1333.03" cy="-118.26" rx="115.93" ry="16.03"/>
<text text-anchor="middle" x="1333.03" y="-114.56" font-family="Times,serif" font-size="14.00">okhimg:slotModel3D</text>
</g>
<!-- http://w3id.org/oseg/ont/okhimg#slotModel3D&#45;&gt;http://schema.org/DefinedTerm -->
<g id="edge46" class="edge">
<title>http://w3id.org/oseg/ont/okhimg#slotModel3D&#45;&gt;http://schema.org/DefinedTerm</title>
<path fill="none" stroke="black" d="M1428.66,-127.62C1440.06,-131.58 1450.95,-136.97 1460.3,-144.26 1482.09,-161.25 1477.99,-174.25 1487.3,-200.26 1558.06,-397.76 1604.12,-647.85 1617.99,-728.74"/>
<polygon fill="black" stroke="black" points="1614.61,-729.73 1619.73,-739.01 1621.51,-728.56 1614.61,-729.73"/>
<text text-anchor="middle" x="1482.8" y="-204.06" font-family="Times,serif" font-size="14.00">a</text>
</g>
<!-- http://w3id.org/oseg/ont/okhimg#tagColor -->
<g id="node41" class="node">
<title>http://w3id.org/oseg/ont/okhimg#tagColor</title>
<ellipse fill="none" stroke="#e377c2" cx="1333.03" cy="-67.26" rx="95.42" ry="16.03"/>
<text text-anchor="middle" x="1333.03" y="-63.56" font-family="Times,serif" font-size="14.00">okhimg:tagColor</text>
</g>
<!-- http://w3id.org/oseg/ont/okhimg#tagColor&#45;&gt;http://schema.org/DefinedTerm -->
<g id="edge48" class="edge">
<title>http://w3id.org/oseg/ont/okhimg#tagColor&#45;&gt;http://schema.org/DefinedTerm</title>
<path fill="none" stroke="black" d="M1420.2,-73.96C1434.62,-78.05 1448.66,-84.18 1460.3,-93.26 1482.09,-110.25 1478.24,-123.16 1487.3,-149.26 1562.86,-366.79 1606.39,-643.29 1618.73,-728.84"/>
<polygon fill="black" stroke="black" points="1615.29,-729.56 1620.17,-738.97 1622.22,-728.58 1615.29,-729.56"/>
<text text-anchor="middle" x="1482.8" y="-153.06" font-family="Times,serif" font-size="14.00">a</text>
</g>
<!-- http://w3id.org/oseg/ont/okhimg#tagGray -->
<g id="node42" class="node">
<title>http://w3id.org/oseg/ont/okhimg#tagGray</title>
<ellipse fill="none" stroke="#e377c2" cx="1333.03" cy="-16.26" rx="92.76" ry="16.03"/>
<text text-anchor="middle" x="1333.03" y="-12.56" font-family="Times,serif" font-size="14.00">okhimg:tagGray</text>
</g>
<!-- http://w3id.org/oseg/ont/okhimg#tagGray&#45;&gt;http://schema.org/DefinedTerm -->
<g id="edge47" class="edge">
<title>http://w3id.org/oseg/ont/okhimg#tagGray&#45;&gt;http://schema.org/DefinedTerm</title>
<path fill="none" stroke="black" d="M1418.89,-22.59C1433.77,-26.68 1448.3,-32.9 1460.3,-42.26 1482.09,-59.25 1478.46,-72.09 1487.3,-98.26 1567.58,-335.72 1608.37,-638.34 1619.32,-728.67"/>
<polygon fill="black" stroke="black" points="1615.84,-729.1 1620.5,-738.62 1622.79,-728.27 1615.84,-729.1"/>
<text text-anchor="middle" x="1482.8" y="-102.06" font-family="Times,serif" font-size="14.00">a</text>
</g>
</g>
</svg>
