<?xml version="1.0" encoding="UTF-8" standalone="no"?>
<!DOCTYPE svg PUBLIC "-//W3C//DTD SVG 1.1//EN"
 "http://www.w3.org/Graphics/SVG/1.1/DTD/svg11.dtd">
<!-- Generated by graphviz version 2.43.0 (0)
 -->
<!-- Title: G Pages: 1 -->
<svg width="2023pt" height="1308pt"
 viewBox="0.00 0.00 2022.94 1307.53" xmlns="http://www.w3.org/2000/svg" xmlns:xlink="http://www.w3.org/1999/xlink">
<g id="graph0" class="graph" transform="scale(1 1) rotate(0) translate(4 1303.53)">
<title>G</title>
<polygon fill="white" stroke="transparent" points="-4,4 -4,-1303.53 2018.94,-1303.53 2018.94,4 -4,4"/>
<!-- http://www.w3.org/2002/07/owl#Ontology -->
<g id="node1" class="node">
<title>http://www.w3.org/2002/07/owl#Ontology</title>
<ellipse fill="none" stroke="#1f77b4" cx="792.8" cy="-394.26" rx="77.56" ry="16.03"/>
<text text-anchor="middle" x="792.8" y="-390.56" font-family="Times,serif" font-size="14.00">owl:Ontology</text>
</g>
<!-- http://spdx.org/rdf/terms#SpdxItem -->
<g id="node2" class="node">
<title>http://spdx.org/rdf/terms#SpdxItem</title>
<ellipse fill="none" stroke="#1f77b4" cx="792.8" cy="-343.26" rx="87.86" ry="16.03"/>
<text text-anchor="middle" x="792.8" y="-339.56" font-family="Times,serif" font-size="14.00">spdx:SpdxItem</text>
</g>
<!-- http://w3id.org/oseg/ont/otrl#OTRL -->
<g id="node3" class="node">
<title>http://w3id.org/oseg/ont/otrl#OTRL</title>
<ellipse fill="none" stroke="#e377c2" cx="1891.9" cy="-1092.26" rx="60.62" ry="16.03"/>
<text text-anchor="middle" x="1891.9" y="-1088.56" font-family="Times,serif" font-size="14.00">otrl:OTRL</text>
</g>
<!-- http://www.w3.org/2002/07/owl#DatatypeProperty -->
<g id="node4" class="node">
<title>http://www.w3.org/2002/07/owl#DatatypeProperty</title>
<ellipse fill="none" stroke="#1f77b4" cx="1891.9" cy="-762.26" rx="123.07" ry="16.03"/>
<text text-anchor="middle" x="1891.9" y="-758.56" font-family="Times,serif" font-size="14.00">owl:DatatypeProperty</text>
</g>
<!-- http://w3id.org/oseg/ont/otrl#ODRL -->
<g id="node5" class="node">
<title>http://w3id.org/oseg/ont/otrl#ODRL</title>
<ellipse fill="none" stroke="#e377c2" cx="1891.9" cy="-617.26" rx="62.87" ry="16.03"/>
<text text-anchor="middle" x="1891.9" y="-613.56" font-family="Times,serif" font-size="14.00">otrl:ODRL</text>
</g>
<!-- http://w3id.org/oseg/ont/otrl -->
<g id="node6" class="node">
<title>http://w3id.org/oseg/ont/otrl</title>
<ellipse fill="none" stroke="#e377c2" cx="191.63" cy="-200.26" rx="50.82" ry="16.03"/>
<text text-anchor="middle" x="191.63" y="-196.56" font-family="Times,serif" font-size="14.00">ns1:otrl</text>
</g>
<!-- http://w3id.org/oseg/ont/otrl&#45;&gt;http://www.w3.org/2002/07/owl#Ontology -->
<g id="edge5" class="edge">
<title>http://w3id.org/oseg/ont/otrl&#45;&gt;http://www.w3.org/2002/07/owl#Ontology</title>
<path fill="none" stroke="black" d="M208.13,-216.19C240.55,-248.34 319.31,-320.63 401.25,-352.26 501,-390.77 625.07,-397.86 706.24,-397.58"/>
<polygon fill="black" stroke="black" points="706.45,-401.08 716.42,-397.5 706.39,-394.08 706.45,-401.08"/>
<text text-anchor="middle" x="481.25" y="-393.06" font-family="Times,serif" font-size="14.00">a</text>
</g>
<!-- http://w3id.org/oseg/ont/otrl&#45;&gt;http://spdx.org/rdf/terms#SpdxItem -->
<g id="edge1" class="edge">
<title>http://w3id.org/oseg/ont/otrl&#45;&gt;http://spdx.org/rdf/terms#SpdxItem</title>
<path fill="none" stroke="black" d="M215.32,-214.7C252.54,-237.58 329.56,-281.67 401.25,-302.26 498.65,-330.24 614.61,-339.55 694.74,-342.44"/>
<polygon fill="black" stroke="black" points="694.71,-345.94 704.82,-342.77 694.94,-338.94 694.71,-345.94"/>
<text text-anchor="middle" x="481.25" y="-337.06" font-family="Times,serif" font-size="14.00">a</text>
</g>
<!-- http://id.loc.gov/vocabulary/iso639&#45;1/en -->
<g id="node10" class="node">
<title>http://id.loc.gov/vocabulary/iso639&#45;1/en</title>
<ellipse fill="none" stroke="#e377c2" cx="792.8" cy="-292.26" rx="45.01" ry="16.03"/>
<text text-anchor="middle" x="792.8" y="-288.56" font-family="Times,serif" font-size="14.00">ns2:en</text>
</g>
<!-- http://w3id.org/oseg/ont/otrl&#45;&gt;http://id.loc.gov/vocabulary/iso639&#45;1/en -->
<g id="edge6" class="edge">
<title>http://w3id.org/oseg/ont/otrl&#45;&gt;http://id.loc.gov/vocabulary/iso639&#45;1/en</title>
<path fill="none" stroke="black" d="M225.7,-212.47C266.39,-226.94 337.9,-250.55 401.25,-262.26 519.72,-284.16 661.27,-290.12 737.21,-291.71"/>
<polygon fill="black" stroke="black" points="737.41,-295.21 747.48,-291.91 737.55,-288.22 737.41,-295.21"/>
<text text-anchor="middle" x="481.25" y="-287.06" font-family="Times,serif" font-size="14.00">dcterms:language</text>
</g>
<!-- http://w3id.org/oseg/ont/oseg&#45;profiles#martinHaeuer -->
<g id="node12" class="node">
<title>http://w3id.org/oseg/ont/oseg&#45;profiles#martinHaeuer</title>
<ellipse fill="none" stroke="#e377c2" cx="792.8" cy="-238.26" rx="116.85" ry="16.03"/>
<text text-anchor="middle" x="792.8" y="-234.56" font-family="Times,serif" font-size="14.00">osegprof:martinHa...</text>
</g>
<!-- http://w3id.org/oseg/ont/otrl&#45;&gt;http://w3id.org/oseg/ont/oseg&#45;profiles#martinHaeuer -->
<g id="edge8" class="edge">
<title>http://w3id.org/oseg/ont/otrl&#45;&gt;http://w3id.org/oseg/ont/oseg&#45;profiles#martinHaeuer</title>
<path fill="none" stroke="black" d="M234.33,-209.27C276.27,-217.84 342.9,-230.18 401.25,-235.26 490.63,-243.05 591.94,-243.59 668.98,-242.3"/>
<polygon fill="black" stroke="black" points="669.27,-245.79 679.2,-242.11 669.14,-238.79 669.27,-245.79"/>
<text text-anchor="middle" x="481.25" y="-247.06" font-family="Times,serif" font-size="14.00">schema:creator</text>
</g>
<!-- http://w3id.org/oseg/ont/otrl&#45;&gt;http://w3id.org/oseg/ont/oseg&#45;profiles#martinHaeuer -->
<g id="edge22" class="edge">
<title>http://w3id.org/oseg/ont/otrl&#45;&gt;http://w3id.org/oseg/ont/oseg&#45;profiles#martinHaeuer</title>
<path fill="none" stroke="black" d="M242.46,-201.61C313.34,-203.71 447.34,-208.36 561.25,-216.26 603.41,-219.19 649.8,-223.42 689.86,-227.39"/>
<polygon fill="black" stroke="black" points="689.6,-230.88 699.9,-228.39 690.29,-223.92 689.6,-230.88"/>
<text text-anchor="middle" x="481.25" y="-220.06" font-family="Times,serif" font-size="14.00">dcterms:creator</text>
</g>
<!-- http://spdx.org/licenses/GPL&#45;3.0&#45;or&#45;later -->
<g id="node13" class="node">
<title>http://spdx.org/licenses/GPL&#45;3.0&#45;or&#45;later</title>
<ellipse fill="none" stroke="#e377c2" cx="792.8" cy="-181.26" rx="108.79" ry="16.03"/>
<text text-anchor="middle" x="792.8" y="-177.56" font-family="Times,serif" font-size="14.00">spdxl:GPL&#45;3.0&#45;or&#45;...</text>
</g>
<!-- http://w3id.org/oseg/ont/otrl&#45;&gt;http://spdx.org/licenses/GPL&#45;3.0&#45;or&#45;later -->
<g id="edge9" class="edge">
<title>http://w3id.org/oseg/ont/otrl&#45;&gt;http://spdx.org/licenses/GPL&#45;3.0&#45;or&#45;later</title>
<path fill="none" stroke="black" d="M240.2,-195.02C282.43,-190.64 345.87,-184.72 401.25,-182.26 492.98,-178.2 596.95,-178.15 674.54,-179.01"/>
<polygon fill="black" stroke="black" points="674.78,-182.52 684.83,-179.13 674.87,-175.52 674.78,-182.52"/>
<text text-anchor="middle" x="481.25" y="-186.06" font-family="Times,serif" font-size="14.00">spdx:licenseDeclared</text>
</g>
<!-- http://w3id.org/oseg/ont/oseg&#45;profiles#robinVobruba -->
<g id="node22" class="node">
<title>http://w3id.org/oseg/ont/oseg&#45;profiles#robinVobruba</title>
<ellipse fill="none" stroke="#e377c2" cx="792.8" cy="-124.26" rx="113.69" ry="16.03"/>
<text text-anchor="middle" x="792.8" y="-120.56" font-family="Times,serif" font-size="14.00">osegprof:robinVob...</text>
</g>
<!-- http://w3id.org/oseg/ont/otrl&#45;&gt;http://w3id.org/oseg/ont/oseg&#45;profiles#robinVobruba -->
<g id="edge28" class="edge">
<title>http://w3id.org/oseg/ont/otrl&#45;&gt;http://w3id.org/oseg/ont/oseg&#45;profiles#robinVobruba</title>
<path fill="none" stroke="black" d="M233.99,-191.1C275.94,-182.09 342.83,-168.54 401.25,-160.26 494.32,-147.08 600.59,-137.65 678.75,-131.75"/>
<polygon fill="black" stroke="black" points="679.39,-135.22 689.11,-130.98 678.87,-128.24 679.39,-135.22"/>
<text text-anchor="middle" x="481.25" y="-164.06" font-family="Times,serif" font-size="14.00">schema:creator</text>
</g>
<!-- http://w3id.org/oseg/ont/otrl&#45;&gt;http://w3id.org/oseg/ont/oseg&#45;profiles#robinVobruba -->
<g id="edge40" class="edge">
<title>http://w3id.org/oseg/ont/otrl&#45;&gt;http://w3id.org/oseg/ont/oseg&#45;profiles#robinVobruba</title>
<path fill="none" stroke="black" d="M220.11,-186.72C259.21,-168.27 333.68,-136.19 401.25,-124.26 497.3,-107.31 608.72,-109.41 687.91,-114.5"/>
<polygon fill="black" stroke="black" points="687.68,-118 697.89,-115.17 688.14,-111.01 687.68,-118"/>
<text text-anchor="middle" x="481.25" y="-128.06" font-family="Times,serif" font-size="14.00">dcterms:creator</text>
</g>
<!-- http://w3id.org/oseg/ont/1.1.0/otrl -->
<g id="node23" class="node">
<title>http://w3id.org/oseg/ont/1.1.0/otrl</title>
<ellipse fill="none" stroke="#e377c2" cx="792.8" cy="-67.26" rx="50.82" ry="16.03"/>
<text text-anchor="middle" x="792.8" y="-63.56" font-family="Times,serif" font-size="14.00">ns3:otrl</text>
</g>
<!-- http://w3id.org/oseg/ont/otrl&#45;&gt;http://w3id.org/oseg/ont/1.1.0/otrl -->
<g id="edge29" class="edge">
<title>http://w3id.org/oseg/ont/otrl&#45;&gt;http://w3id.org/oseg/ont/1.1.0/otrl</title>
<path fill="none" stroke="black" d="M213.91,-185.4C250.32,-160.89 327.76,-112.67 401.25,-92.26 515.28,-60.61 654.94,-60.45 732.56,-63.59"/>
<polygon fill="black" stroke="black" points="732.49,-67.09 742.63,-64.03 732.79,-60.1 732.49,-67.09"/>
<text text-anchor="middle" x="481.25" y="-96.06" font-family="Times,serif" font-size="14.00">owl:versionIRI</text>
</g>
<!-- http://w3id.org/oseg/ont/oseg&#45;profiles#Iopa -->
<g id="node26" class="node">
<title>http://w3id.org/oseg/ont/oseg&#45;profiles#Iopa</title>
<ellipse fill="none" stroke="#e377c2" cx="792.8" cy="-16.26" rx="80.72" ry="16.03"/>
<text text-anchor="middle" x="792.8" y="-12.56" font-family="Times,serif" font-size="14.00">osegprof:Iopa</text>
</g>
<!-- http://w3id.org/oseg/ont/otrl&#45;&gt;http://w3id.org/oseg/ont/oseg&#45;profiles#Iopa -->
<g id="edge37" class="edge">
<title>http://w3id.org/oseg/ont/otrl&#45;&gt;http://w3id.org/oseg/ont/oseg&#45;profiles#Iopa</title>
<path fill="none" stroke="black" d="M207.58,-184.66C239.56,-152.45 318.5,-79.01 401.25,-48.26 501.4,-11.06 625.63,-7.46 706.72,-10.23"/>
<polygon fill="black" stroke="black" points="706.76,-13.74 716.89,-10.62 707.03,-6.74 706.76,-13.74"/>
<text text-anchor="middle" x="481.25" y="-52.06" font-family="Times,serif" font-size="14.00">dcterms:publisher</text>
</g>
<!-- http://w3id.org/oseg/ont/otrl#OTRL4 -->
<g id="node7" class="node">
<title>http://w3id.org/oseg/ont/otrl#OTRL4</title>
<ellipse fill="none" stroke="#e377c2" cx="1387.61" cy="-1130.26" rx="67.35" ry="16.03"/>
<text text-anchor="middle" x="1387.61" y="-1126.56" font-family="Times,serif" font-size="14.00">otrl:OTRL4</text>
</g>
<!-- http://w3id.org/oseg/ont/otrl#OTRL4&#45;&gt;http://w3id.org/oseg/ont/otrl#OTRL -->
<g id="edge26" class="edge">
<title>http://w3id.org/oseg/ont/otrl#OTRL4&#45;&gt;http://w3id.org/oseg/ont/otrl#OTRL</title>
<path fill="none" stroke="black" d="M1453.45,-1126.99C1525.99,-1123.14 1646.95,-1116.12 1750.87,-1107.26 1775.27,-1105.18 1802.02,-1102.43 1825.54,-1099.86"/>
<polygon fill="black" stroke="black" points="1826.2,-1103.31 1835.75,-1098.73 1825.43,-1096.35 1826.2,-1103.31"/>
<text text-anchor="middle" x="1670.87" y="-1122.06" font-family="Times,serif" font-size="14.00">a</text>
</g>
<!-- http://w3id.org/oseg/ont/otrl#ODRL4 -->
<g id="node8" class="node">
<title>http://w3id.org/oseg/ont/otrl#ODRL4</title>
<ellipse fill="none" stroke="#e377c2" cx="1387.61" cy="-547.26" rx="69.09" ry="16.03"/>
<text text-anchor="middle" x="1387.61" y="-543.56" font-family="Times,serif" font-size="14.00">otrl:ODRL4</text>
</g>
<!-- http://w3id.org/oseg/ont/otrl#ODRL4&#45;&gt;http://w3id.org/oseg/ont/otrl#ODRL -->
<g id="edge3" class="edge">
<title>http://w3id.org/oseg/ont/otrl#ODRL4&#45;&gt;http://w3id.org/oseg/ont/otrl#ODRL</title>
<path fill="none" stroke="black" d="M1456.92,-548.57C1530.15,-550.94 1649.58,-557.59 1750.87,-576.26 1782.6,-582.11 1817.42,-592.29 1844.4,-601.04"/>
<polygon fill="black" stroke="black" points="1843.37,-604.39 1853.96,-604.19 1845.56,-597.74 1843.37,-604.39"/>
<text text-anchor="middle" x="1670.87" y="-580.06" font-family="Times,serif" font-size="14.00">a</text>
</g>
<!-- http://w3id.org/oseg/ont/otrl#OTRL6 -->
<g id="node9" class="node">
<title>http://w3id.org/oseg/ont/otrl#OTRL6</title>
<ellipse fill="none" stroke="#e377c2" cx="1387.61" cy="-1079.26" rx="67.35" ry="16.03"/>
<text text-anchor="middle" x="1387.61" y="-1075.56" font-family="Times,serif" font-size="14.00">otrl:OTRL6</text>
</g>
<!-- http://w3id.org/oseg/ont/otrl#OTRL6&#45;&gt;http://w3id.org/oseg/ont/otrl#OTRL -->
<g id="edge4" class="edge">
<title>http://w3id.org/oseg/ont/otrl#OTRL6&#45;&gt;http://w3id.org/oseg/ont/otrl#OTRL</title>
<path fill="none" stroke="black" d="M1454.53,-1080.97C1549.52,-1083.43 1724.09,-1087.95 1821.16,-1090.46"/>
<polygon fill="black" stroke="black" points="1821.08,-1093.96 1831.17,-1090.72 1821.26,-1086.96 1821.08,-1093.96"/>
<text text-anchor="middle" x="1670.87" y="-1092.06" font-family="Times,serif" font-size="14.00">a</text>
</g>
<!-- http://w3id.org/oseg/ont/otrl#OTRL2 -->
<g id="node11" class="node">
<title>http://w3id.org/oseg/ont/otrl#OTRL2</title>
<ellipse fill="none" stroke="#e377c2" cx="1387.61" cy="-1028.26" rx="67.35" ry="16.03"/>
<text text-anchor="middle" x="1387.61" y="-1024.56" font-family="Times,serif" font-size="14.00">otrl:OTRL2</text>
</g>
<!-- http://w3id.org/oseg/ont/otrl#OTRL2&#45;&gt;http://w3id.org/oseg/ont/otrl#OTRL -->
<g id="edge7" class="edge">
<title>http://w3id.org/oseg/ont/otrl#OTRL2&#45;&gt;http://w3id.org/oseg/ont/otrl#OTRL</title>
<path fill="none" stroke="black" d="M1451.97,-1033.02C1524.45,-1038.86 1646.57,-1049.91 1750.87,-1065.26 1778.44,-1069.32 1808.84,-1075.03 1834.25,-1080.15"/>
<polygon fill="black" stroke="black" points="1833.59,-1083.59 1844.08,-1082.16 1834.98,-1076.73 1833.59,-1083.59"/>
<text text-anchor="middle" x="1670.87" y="-1069.06" font-family="Times,serif" font-size="14.00">a</text>
</g>
<!-- http://w3id.org/oseg/ont/otrl#OTRL3 -->
<g id="node14" class="node">
<title>http://w3id.org/oseg/ont/otrl#OTRL3</title>
<ellipse fill="none" stroke="#e377c2" cx="1387.61" cy="-977.26" rx="67.35" ry="16.03"/>
<text text-anchor="middle" x="1387.61" y="-973.56" font-family="Times,serif" font-size="14.00">otrl:OTRL3</text>
</g>
<!-- http://w3id.org/oseg/ont/otrl#OTRL3&#45;&gt;http://w3id.org/oseg/ont/otrl#OTRL -->
<g id="edge10" class="edge">
<title>http://w3id.org/oseg/ont/otrl#OTRL3&#45;&gt;http://w3id.org/oseg/ont/otrl#OTRL</title>
<path fill="none" stroke="black" d="M1450.22,-983.3C1538.38,-992.33 1695.94,-1010.03 1750.87,-1026.26 1788.73,-1037.46 1829.25,-1057.53 1856.91,-1072.62"/>
<polygon fill="black" stroke="black" points="1855.33,-1075.74 1865.77,-1077.52 1858.72,-1069.62 1855.33,-1075.74"/>
<text text-anchor="middle" x="1670.87" y="-1030.06" font-family="Times,serif" font-size="14.00">a</text>
</g>
<!-- http://www.w3.org/1999/02/22&#45;rdf&#45;syntax&#45;ns#langString -->
<g id="node15" class="node">
<title>http://www.w3.org/1999/02/22&#45;rdf&#45;syntax&#45;ns#langString</title>
<ellipse fill="none" stroke="#e377c2" cx="1891.9" cy="-883.26" rx="83.38" ry="16.03"/>
<text text-anchor="middle" x="1891.9" y="-879.56" font-family="Times,serif" font-size="14.00">rdf:langString</text>
</g>
<!-- http://w3id.org/oseg/ont/otrl#OTRL1 -->
<g id="node16" class="node">
<title>http://w3id.org/oseg/ont/otrl#OTRL1</title>
<ellipse fill="none" stroke="#e377c2" cx="1387.61" cy="-1283.26" rx="67.35" ry="16.03"/>
<text text-anchor="middle" x="1387.61" y="-1279.56" font-family="Times,serif" font-size="14.00">otrl:OTRL1</text>
</g>
<!-- http://w3id.org/oseg/ont/otrl#OTRL1&#45;&gt;http://w3id.org/oseg/ont/otrl#OTRL -->
<g id="edge23" class="edge">
<title>http://w3id.org/oseg/ont/otrl#OTRL1&#45;&gt;http://w3id.org/oseg/ont/otrl#OTRL</title>
<path fill="none" stroke="black" d="M1452.18,-1287.83C1527.54,-1290.53 1654.99,-1286.35 1750.87,-1238.26 1806.78,-1210.22 1852.67,-1150.54 1875.42,-1116.81"/>
<polygon fill="black" stroke="black" points="1878.37,-1118.7 1880.96,-1108.43 1872.53,-1114.84 1878.37,-1118.7"/>
<text text-anchor="middle" x="1670.87" y="-1285.06" font-family="Times,serif" font-size="14.00">a</text>
</g>
<!-- http://w3id.org/oseg/ont/otrl#ODRL1 -->
<g id="node17" class="node">
<title>http://w3id.org/oseg/ont/otrl#ODRL1</title>
<ellipse fill="none" stroke="#e377c2" cx="1387.61" cy="-496.26" rx="69.09" ry="16.03"/>
<text text-anchor="middle" x="1387.61" y="-492.56" font-family="Times,serif" font-size="14.00">otrl:ODRL1</text>
</g>
<!-- http://w3id.org/oseg/ont/otrl#ODRL1&#45;&gt;http://w3id.org/oseg/ont/otrl#ODRL -->
<g id="edge35" class="edge">
<title>http://w3id.org/oseg/ont/otrl#ODRL1&#45;&gt;http://w3id.org/oseg/ont/otrl#ODRL</title>
<path fill="none" stroke="black" d="M1457.11,-495.85C1531.28,-497.26 1652.2,-505.02 1750.87,-537.26 1792.17,-550.76 1834.87,-577.3 1862.08,-596.1"/>
<polygon fill="black" stroke="black" points="1860.16,-599.03 1870.35,-601.91 1864.18,-593.3 1860.16,-599.03"/>
<text text-anchor="middle" x="1670.87" y="-541.06" font-family="Times,serif" font-size="14.00">a</text>
</g>
<!-- http://w3id.org/oseg/ont/otrl#goal -->
<g id="node18" class="node">
<title>http://w3id.org/oseg/ont/otrl#goal</title>
<ellipse fill="none" stroke="#e377c2" cx="1387.61" cy="-895.26" rx="54.39" ry="16.03"/>
<text text-anchor="middle" x="1387.61" y="-891.56" font-family="Times,serif" font-size="14.00">otrl:goal</text>
</g>
<!-- http://w3id.org/oseg/ont/otrl#goal&#45;&gt;http://w3id.org/oseg/ont/otrl#OTRL -->
<g id="edge12" class="edge">
<title>http://w3id.org/oseg/ont/otrl#goal&#45;&gt;http://w3id.org/oseg/ont/otrl#OTRL</title>
<path fill="none" stroke="black" d="M1431.28,-905.14C1525.49,-926.98 1743.58,-977.73 1750.87,-981.26 1797.36,-1003.82 1842.63,-1044.01 1868.59,-1069.34"/>
<polygon fill="black" stroke="black" points="1866.13,-1071.83 1875.7,-1076.38 1871.06,-1066.85 1866.13,-1071.83"/>
<text text-anchor="middle" x="1670.87" y="-985.06" font-family="Times,serif" font-size="14.00">dcam:domainIncludes</text>
</g>
<!-- http://w3id.org/oseg/ont/otrl#goal&#45;&gt;http://www.w3.org/2002/07/owl#DatatypeProperty -->
<g id="edge16" class="edge">
<title>http://w3id.org/oseg/ont/otrl#goal&#45;&gt;http://www.w3.org/2002/07/owl#DatatypeProperty</title>
<path fill="none" stroke="black" d="M1436.82,-888.05C1477.79,-881.94 1538.18,-872.96 1590.87,-865.26 1661.96,-854.88 1682.92,-865.6 1750.87,-842.26 1791.25,-828.39 1833.21,-802.66 1860.54,-784.12"/>
<polygon fill="black" stroke="black" points="1862.63,-786.93 1868.88,-778.38 1858.66,-781.16 1862.63,-786.93"/>
<text text-anchor="middle" x="1670.87" y="-869.06" font-family="Times,serif" font-size="14.00">a</text>
</g>
<!-- http://w3id.org/oseg/ont/otrl#goal&#45;&gt;http://w3id.org/oseg/ont/otrl#ODRL -->
<g id="edge32" class="edge">
<title>http://w3id.org/oseg/ont/otrl#goal&#45;&gt;http://w3id.org/oseg/ont/otrl#ODRL</title>
<path fill="none" stroke="black" d="M1428.84,-884.56C1468.77,-872.39 1530.05,-849.39 1572.87,-813.26 1583.89,-803.96 1578.6,-793.85 1590.87,-786.26 1651.83,-748.59 1690.53,-804.93 1750.87,-766.26 1763.64,-758.08 1759.39,-749.11 1768.87,-737.26 1798.64,-700.04 1839.02,-662.35 1865.02,-639.39"/>
<polygon fill="black" stroke="black" points="1867.38,-641.98 1872.6,-632.76 1862.77,-636.71 1867.38,-641.98"/>
<text text-anchor="middle" x="1670.87" y="-790.06" font-family="Times,serif" font-size="14.00">dcam:domainIncludes</text>
</g>
<!-- http://w3id.org/oseg/ont/otrl#goal&#45;&gt;http://www.w3.org/1999/02/22&#45;rdf&#45;syntax&#45;ns#langString -->
<g id="edge42" class="edge">
<title>http://w3id.org/oseg/ont/otrl#goal&#45;&gt;http://www.w3.org/1999/02/22&#45;rdf&#45;syntax&#45;ns#langString</title>
<path fill="none" stroke="black" d="M1434.52,-903.62C1503.44,-914.93 1637.66,-932.2 1750.87,-918.26 1779.98,-914.68 1811.75,-907.06 1837.65,-899.84"/>
<polygon fill="black" stroke="black" points="1838.62,-903.2 1847.28,-897.1 1836.7,-896.47 1838.62,-903.2"/>
<text text-anchor="middle" x="1670.87" y="-927.06" font-family="Times,serif" font-size="14.00">range</text>
</g>
<!-- http://w3id.org/oseg/ont/otrl#OTRL5 -->
<g id="node19" class="node">
<title>http://w3id.org/oseg/ont/otrl#OTRL5</title>
<ellipse fill="none" stroke="#e377c2" cx="1387.61" cy="-1232.26" rx="67.35" ry="16.03"/>
<text text-anchor="middle" x="1387.61" y="-1228.56" font-family="Times,serif" font-size="14.00">otrl:OTRL5</text>
</g>
<!-- http://w3id.org/oseg/ont/otrl#OTRL5&#45;&gt;http://w3id.org/oseg/ont/otrl#OTRL -->
<g id="edge20" class="edge">
<title>http://w3id.org/oseg/ont/otrl#OTRL5&#45;&gt;http://w3id.org/oseg/ont/otrl#OTRL</title>
<path fill="none" stroke="black" d="M1454.79,-1231.62C1529.04,-1228.99 1652.02,-1218.82 1750.87,-1182.26 1793.92,-1166.35 1837.45,-1135.54 1864.29,-1114.45"/>
<polygon fill="black" stroke="black" points="1866.77,-1116.94 1872.4,-1107.97 1862.4,-1111.48 1866.77,-1116.94"/>
<text text-anchor="middle" x="1670.87" y="-1223.06" font-family="Times,serif" font-size="14.00">a</text>
</g>
<!-- http://w3id.org/oseg/ont/otrl#ODRL2 -->
<g id="node20" class="node">
<title>http://w3id.org/oseg/ont/otrl#ODRL2</title>
<ellipse fill="none" stroke="#e377c2" cx="1387.61" cy="-445.26" rx="69.09" ry="16.03"/>
<text text-anchor="middle" x="1387.61" y="-441.56" font-family="Times,serif" font-size="14.00">otrl:ODRL2</text>
</g>
<!-- http://w3id.org/oseg/ont/otrl#ODRL2&#45;&gt;http://w3id.org/oseg/ont/otrl#ODRL -->
<g id="edge41" class="edge">
<title>http://w3id.org/oseg/ont/otrl#ODRL2&#45;&gt;http://w3id.org/oseg/ont/otrl#ODRL</title>
<path fill="none" stroke="black" d="M1454.38,-440.64C1529.6,-438.01 1654.75,-441.9 1750.87,-486.26 1803.37,-510.49 1849.08,-562.14 1873.06,-592.85"/>
<polygon fill="black" stroke="black" points="1870.38,-595.1 1879.23,-600.92 1875.94,-590.85 1870.38,-595.1"/>
<text text-anchor="middle" x="1670.87" y="-490.06" font-family="Times,serif" font-size="14.00">a</text>
</g>
<!-- http://w3id.org/oseg/ont/otrl#ODRL3 -->
<g id="node21" class="node">
<title>http://w3id.org/oseg/ont/otrl#ODRL3</title>
<ellipse fill="none" stroke="#e377c2" cx="1387.61" cy="-700.26" rx="69.09" ry="16.03"/>
<text text-anchor="middle" x="1387.61" y="-696.56" font-family="Times,serif" font-size="14.00">otrl:ODRL3</text>
</g>
<!-- http://w3id.org/oseg/ont/otrl#ODRL3&#45;&gt;http://w3id.org/oseg/ont/otrl#ODRL -->
<g id="edge21" class="edge">
<title>http://w3id.org/oseg/ont/otrl#ODRL3&#45;&gt;http://w3id.org/oseg/ont/otrl#ODRL</title>
<path fill="none" stroke="black" d="M1448.94,-692.65C1544.26,-680.56 1721.93,-657.78 1750.87,-652.26 1780.23,-646.67 1812.62,-638.69 1838.86,-631.76"/>
<polygon fill="black" stroke="black" points="1839.83,-635.13 1848.59,-629.17 1838.03,-628.36 1839.83,-635.13"/>
<text text-anchor="middle" x="1670.87" y="-678.06" font-family="Times,serif" font-size="14.00">a</text>
</g>
<!-- http://w3id.org/oseg/ont/otrl#ODRL3Star -->
<g id="node24" class="node">
<title>http://w3id.org/oseg/ont/otrl#ODRL3Star</title>
<ellipse fill="none" stroke="#e377c2" cx="1387.61" cy="-649.26" rx="90.52" ry="16.03"/>
<text text-anchor="middle" x="1387.61" y="-645.56" font-family="Times,serif" font-size="14.00">otrl:ODRL3Star</text>
</g>
<!-- http://w3id.org/oseg/ont/otrl#ODRL3Star&#45;&gt;http://w3id.org/oseg/ont/otrl#ODRL -->
<g id="edge30" class="edge">
<title>http://w3id.org/oseg/ont/otrl#ODRL3Star&#45;&gt;http://w3id.org/oseg/ont/otrl#ODRL</title>
<path fill="none" stroke="black" d="M1473.25,-643.87C1570.7,-637.66 1729.04,-627.58 1820.19,-621.77"/>
<polygon fill="black" stroke="black" points="1820.67,-625.25 1830.43,-621.12 1820.22,-618.26 1820.67,-625.25"/>
<text text-anchor="middle" x="1670.87" y="-640.06" font-family="Times,serif" font-size="14.00">a</text>
</g>
<!-- http://w3id.org/oseg/ont/otrl#exitCriteria -->
<g id="node25" class="node">
<title>http://w3id.org/oseg/ont/otrl#exitCriteria</title>
<ellipse fill="none" stroke="#e377c2" cx="1387.61" cy="-788.26" rx="91.43" ry="16.03"/>
<text text-anchor="middle" x="1387.61" y="-784.56" font-family="Times,serif" font-size="14.00">otrl:exitCriteria</text>
</g>
<!-- http://w3id.org/oseg/ont/otrl#exitCriteria&#45;&gt;http://w3id.org/oseg/ont/otrl#OTRL -->
<g id="edge31" class="edge">
<title>http://w3id.org/oseg/ont/otrl#exitCriteria&#45;&gt;http://w3id.org/oseg/ont/otrl#OTRL</title>
<path fill="none" stroke="black" d="M1424.71,-803.21C1462.18,-818.99 1522.27,-845.01 1572.87,-870.26 1581.06,-874.35 1582.16,-877.45 1590.87,-880.26 1659.01,-902.29 1689.11,-863.02 1750.87,-899.26 1817.8,-938.54 1861.8,-1023.79 1880.56,-1066.62"/>
<polygon fill="black" stroke="black" points="1877.44,-1068.23 1884.59,-1076.06 1883.88,-1065.49 1877.44,-1068.23"/>
<text text-anchor="middle" x="1670.87" y="-903.06" font-family="Times,serif" font-size="14.00">dcam:domainIncludes</text>
</g>
<!-- http://w3id.org/oseg/ont/otrl#exitCriteria&#45;&gt;http://www.w3.org/2002/07/owl#DatatypeProperty -->
<g id="edge34" class="edge">
<title>http://w3id.org/oseg/ont/otrl#exitCriteria&#45;&gt;http://www.w3.org/2002/07/owl#DatatypeProperty</title>
<path fill="none" stroke="black" d="M1443.61,-775.42C1484.07,-766.65 1540.56,-755.83 1590.87,-751.26 1661.69,-744.84 1679.81,-748.48 1750.87,-751.26 1759.91,-751.62 1769.26,-752.1 1778.66,-752.67"/>
<polygon fill="black" stroke="black" points="1778.65,-756.17 1788.86,-753.31 1779.1,-749.19 1778.65,-756.17"/>
<text text-anchor="middle" x="1670.87" y="-755.06" font-family="Times,serif" font-size="14.00">a</text>
</g>
<!-- http://w3id.org/oseg/ont/otrl#exitCriteria&#45;&gt;http://w3id.org/oseg/ont/otrl#ODRL -->
<g id="edge14" class="edge">
<title>http://w3id.org/oseg/ont/otrl#exitCriteria&#45;&gt;http://w3id.org/oseg/ont/otrl#ODRL</title>
<path fill="none" stroke="black" d="M1433.79,-774.08C1474.65,-761.44 1536.55,-742.76 1590.87,-728.26 1661.49,-709.42 1682.38,-715.8 1750.87,-690.26 1788.95,-676.07 1829.89,-653.83 1857.6,-637.63"/>
<polygon fill="black" stroke="black" points="1859.64,-640.49 1866.47,-632.39 1856.08,-634.46 1859.64,-640.49"/>
<text text-anchor="middle" x="1670.87" y="-732.06" font-family="Times,serif" font-size="14.00">dcam:domainIncludes</text>
</g>
<!-- http://w3id.org/oseg/ont/otrl#exitCriteria&#45;&gt;http://www.w3.org/1999/02/22&#45;rdf&#45;syntax&#45;ns#langString -->
<g id="edge11" class="edge">
<title>http://w3id.org/oseg/ont/otrl#exitCriteria&#45;&gt;http://www.w3.org/1999/02/22&#45;rdf&#45;syntax&#45;ns#langString</title>
<path fill="none" stroke="black" d="M1471.74,-794.57C1561.9,-801.88 1699.77,-814.55 1750.87,-827.26 1785.76,-835.94 1823.51,-851.42 1851.01,-863.91"/>
<polygon fill="black" stroke="black" points="1849.74,-867.18 1860.29,-868.19 1852.67,-860.82 1849.74,-867.18"/>
<text text-anchor="middle" x="1670.87" y="-831.06" font-family="Times,serif" font-size="14.00">range</text>
</g>
<!-- http://w3id.org/oseg/ont/otrl#Odrl4 -->
<g id="node27" class="node">
<title>http://w3id.org/oseg/ont/otrl#Odrl4</title>
<ellipse fill="none" stroke="#e377c2" cx="792.8" cy="-547.26" rx="61.54" ry="16.03"/>
<text text-anchor="middle" x="792.8" y="-543.56" font-family="Times,serif" font-size="14.00">otrl:Odrl4</text>
</g>
<!-- http://w3id.org/oseg/ont/otrl#Odrl4&#45;&gt;http://w3id.org/oseg/ont/otrl#ODRL4 -->
<g id="edge27" class="edge">
<title>http://w3id.org/oseg/ont/otrl#Odrl4&#45;&gt;http://w3id.org/oseg/ont/otrl#ODRL4</title>
<path fill="none" stroke="black" d="M854.45,-547.26C962.41,-547.26 1187.78,-547.26 1307.66,-547.26"/>
<polygon fill="black" stroke="black" points="1307.86,-550.76 1317.86,-547.26 1307.86,-543.76 1307.86,-550.76"/>
<text text-anchor="middle" x="1104.34" y="-551.06" font-family="Times,serif" font-size="14.00">schema:supersededBy</text>
</g>
<!-- http://w3id.org/oseg/ont/otrl#Otrl4 -->
<g id="node28" class="node">
<title>http://w3id.org/oseg/ont/otrl#Otrl4</title>
<ellipse fill="none" stroke="black" cx="792.8" cy="-1130.26" rx="189.51" ry="16.03"/>
<text text-anchor="middle" x="792.8" y="-1126.56" font-family="Times,serif" font-size="14.00">http://w3id.org/oseg/ont/otrl#Otrl4</text>
</g>
<!-- http://w3id.org/oseg/ont/otrl#Otrl4&#45;&gt;http://w3id.org/oseg/ont/otrl#OTRL4 -->
<g id="edge2" class="edge">
<title>http://w3id.org/oseg/ont/otrl#Otrl4&#45;&gt;http://w3id.org/oseg/ont/otrl#OTRL4</title>
<path fill="none" stroke="black" d="M982.59,-1130.26C1093.54,-1130.26 1227.77,-1130.26 1310.15,-1130.26"/>
<polygon fill="black" stroke="black" points="1310.19,-1133.76 1320.19,-1130.26 1310.19,-1126.76 1310.19,-1133.76"/>
<text text-anchor="middle" x="1104.34" y="-1134.06" font-family="Times,serif" font-size="14.00">schema:supersededBy</text>
</g>
<!-- http://w3id.org/oseg/ont/otrl#Otrl1 -->
<g id="node29" class="node">
<title>http://w3id.org/oseg/ont/otrl#Otrl1</title>
<ellipse fill="none" stroke="black" cx="792.8" cy="-1283.26" rx="189.51" ry="16.03"/>
<text text-anchor="middle" x="792.8" y="-1279.56" font-family="Times,serif" font-size="14.00">http://w3id.org/oseg/ont/otrl#Otrl1</text>
</g>
<!-- http://w3id.org/oseg/ont/otrl#Otrl1&#45;&gt;http://w3id.org/oseg/ont/otrl#OTRL1 -->
<g id="edge13" class="edge">
<title>http://w3id.org/oseg/ont/otrl#Otrl1&#45;&gt;http://w3id.org/oseg/ont/otrl#OTRL1</title>
<path fill="none" stroke="black" d="M982.59,-1283.26C1093.54,-1283.26 1227.77,-1283.26 1310.15,-1283.26"/>
<polygon fill="black" stroke="black" points="1310.19,-1286.76 1320.19,-1283.26 1310.19,-1279.76 1310.19,-1286.76"/>
<text text-anchor="middle" x="1104.34" y="-1287.06" font-family="Times,serif" font-size="14.00">schema:supersededBy</text>
</g>
<!-- http://w3id.org/oseg/ont/otrl#Odrl1 -->
<g id="node30" class="node">
<title>http://w3id.org/oseg/ont/otrl#Odrl1</title>
<ellipse fill="none" stroke="black" cx="792.8" cy="-496.26" rx="191.75" ry="16.03"/>
<text text-anchor="middle" x="792.8" y="-492.56" font-family="Times,serif" font-size="14.00">http://w3id.org/oseg/ont/otrl#Odrl1</text>
</g>
<!-- http://w3id.org/oseg/ont/otrl#Odrl1&#45;&gt;http://w3id.org/oseg/ont/otrl#ODRL1 -->
<g id="edge15" class="edge">
<title>http://w3id.org/oseg/ont/otrl#Odrl1&#45;&gt;http://w3id.org/oseg/ont/otrl#ODRL1</title>
<path fill="none" stroke="black" d="M984.63,-496.26C1094.18,-496.26 1225.86,-496.26 1307.91,-496.26"/>
<polygon fill="black" stroke="black" points="1308.16,-499.76 1318.16,-496.26 1308.16,-492.76 1308.16,-499.76"/>
<text text-anchor="middle" x="1104.34" y="-500.06" font-family="Times,serif" font-size="14.00">schema:supersededBy</text>
</g>
<!-- http://w3id.org/oseg/ont/otrl#Otrl5 -->
<g id="node31" class="node">
<title>http://w3id.org/oseg/ont/otrl#Otrl5</title>
<ellipse fill="none" stroke="black" cx="792.8" cy="-1232.26" rx="189.51" ry="16.03"/>
<text text-anchor="middle" x="792.8" y="-1228.56" font-family="Times,serif" font-size="14.00">http://w3id.org/oseg/ont/otrl#Otrl5</text>
</g>
<!-- http://w3id.org/oseg/ont/otrl#Otrl5&#45;&gt;http://w3id.org/oseg/ont/otrl#OTRL5 -->
<g id="edge17" class="edge">
<title>http://w3id.org/oseg/ont/otrl#Otrl5&#45;&gt;http://w3id.org/oseg/ont/otrl#OTRL5</title>
<path fill="none" stroke="black" d="M982.59,-1232.26C1093.54,-1232.26 1227.77,-1232.26 1310.15,-1232.26"/>
<polygon fill="black" stroke="black" points="1310.19,-1235.76 1320.19,-1232.26 1310.19,-1228.76 1310.19,-1235.76"/>
<text text-anchor="middle" x="1104.34" y="-1236.06" font-family="Times,serif" font-size="14.00">schema:supersededBy</text>
</g>
<!-- http://w3id.org/oseg/ont/otrl#Odrl2 -->
<g id="node32" class="node">
<title>http://w3id.org/oseg/ont/otrl#Odrl2</title>
<ellipse fill="none" stroke="black" cx="792.8" cy="-445.26" rx="191.75" ry="16.03"/>
<text text-anchor="middle" x="792.8" y="-441.56" font-family="Times,serif" font-size="14.00">http://w3id.org/oseg/ont/otrl#Odrl2</text>
</g>
<!-- http://w3id.org/oseg/ont/otrl#Odrl2&#45;&gt;http://w3id.org/oseg/ont/otrl#ODRL2 -->
<g id="edge18" class="edge">
<title>http://w3id.org/oseg/ont/otrl#Odrl2&#45;&gt;http://w3id.org/oseg/ont/otrl#ODRL2</title>
<path fill="none" stroke="black" d="M984.63,-445.26C1094.18,-445.26 1225.86,-445.26 1307.91,-445.26"/>
<polygon fill="black" stroke="black" points="1308.16,-448.76 1318.16,-445.26 1308.16,-441.76 1308.16,-448.76"/>
<text text-anchor="middle" x="1104.34" y="-449.06" font-family="Times,serif" font-size="14.00">schema:supersededBy</text>
</g>
<!-- http://w3id.org/oseg/ont/otrl#Odrl3 -->
<g id="node33" class="node">
<title>http://w3id.org/oseg/ont/otrl#Odrl3</title>
<ellipse fill="none" stroke="black" cx="792.8" cy="-700.26" rx="191.75" ry="16.03"/>
<text text-anchor="middle" x="792.8" y="-696.56" font-family="Times,serif" font-size="14.00">http://w3id.org/oseg/ont/otrl#Odrl3</text>
</g>
<!-- http://w3id.org/oseg/ont/otrl#Odrl3&#45;&gt;http://w3id.org/oseg/ont/otrl#ODRL3 -->
<g id="edge19" class="edge">
<title>http://w3id.org/oseg/ont/otrl#Odrl3&#45;&gt;http://w3id.org/oseg/ont/otrl#ODRL3</title>
<path fill="none" stroke="black" d="M984.63,-700.26C1094.18,-700.26 1225.86,-700.26 1307.91,-700.26"/>
<polygon fill="black" stroke="black" points="1308.16,-703.76 1318.16,-700.26 1308.16,-696.76 1308.16,-703.76"/>
<text text-anchor="middle" x="1104.34" y="-704.06" font-family="Times,serif" font-size="14.00">schema:supersededBy</text>
</g>
<!-- http://w3id.org/oseg/ont/otrl#Odrl -->
<g id="node34" class="node">
<title>http://w3id.org/oseg/ont/otrl#Odrl</title>
<ellipse fill="none" stroke="black" cx="1387.61" cy="-598.26" rx="185.02" ry="16.03"/>
<text text-anchor="middle" x="1387.61" y="-594.56" font-family="Times,serif" font-size="14.00">http://w3id.org/oseg/ont/otrl#Odrl</text>
</g>
<!-- http://w3id.org/oseg/ont/otrl#Odrl&#45;&gt;http://w3id.org/oseg/ont/otrl#ODRL -->
<g id="edge24" class="edge">
<title>http://w3id.org/oseg/ont/otrl#Odrl&#45;&gt;http://w3id.org/oseg/ont/otrl#ODRL</title>
<path fill="none" stroke="black" d="M1567.49,-594.33C1625.99,-594.22 1691.25,-595.36 1750.87,-599.26 1776.12,-600.91 1803.79,-604.16 1827.81,-607.45"/>
<polygon fill="black" stroke="black" points="1827.47,-610.94 1837.86,-608.86 1828.44,-604 1827.47,-610.94"/>
<text text-anchor="middle" x="1670.87" y="-603.06" font-family="Times,serif" font-size="14.00">schema:supersededBy</text>
</g>
<!-- http://w3id.org/oseg/ont/otrl#Otrl2 -->
<g id="node35" class="node">
<title>http://w3id.org/oseg/ont/otrl#Otrl2</title>
<ellipse fill="none" stroke="black" cx="792.8" cy="-1028.26" rx="189.51" ry="16.03"/>
<text text-anchor="middle" x="792.8" y="-1024.56" font-family="Times,serif" font-size="14.00">http://w3id.org/oseg/ont/otrl#Otrl2</text>
</g>
<!-- http://w3id.org/oseg/ont/otrl#Otrl2&#45;&gt;http://w3id.org/oseg/ont/otrl#OTRL2 -->
<g id="edge25" class="edge">
<title>http://w3id.org/oseg/ont/otrl#Otrl2&#45;&gt;http://w3id.org/oseg/ont/otrl#OTRL2</title>
<path fill="none" stroke="black" d="M982.59,-1028.26C1093.54,-1028.26 1227.77,-1028.26 1310.15,-1028.26"/>
<polygon fill="black" stroke="black" points="1310.19,-1031.76 1320.19,-1028.26 1310.19,-1024.76 1310.19,-1031.76"/>
<text text-anchor="middle" x="1104.34" y="-1032.06" font-family="Times,serif" font-size="14.00">schema:supersededBy</text>
</g>
<!-- http://w3id.org/oseg/ont/otrl#Odrl3Star -->
<g id="node36" class="node">
<title>http://w3id.org/oseg/ont/otrl#Odrl3Star</title>
<ellipse fill="none" stroke="black" cx="792.8" cy="-649.26" rx="213.59" ry="16.03"/>
<text text-anchor="middle" x="792.8" y="-645.56" font-family="Times,serif" font-size="14.00">http://w3id.org/oseg/ont/otrl#Odrl3Star</text>
</g>
<!-- http://w3id.org/oseg/ont/otrl#Odrl3Star&#45;&gt;http://w3id.org/oseg/ont/otrl#ODRL3Star -->
<g id="edge33" class="edge">
<title>http://w3id.org/oseg/ont/otrl#Odrl3Star&#45;&gt;http://w3id.org/oseg/ont/otrl#ODRL3Star</title>
<path fill="none" stroke="black" d="M1006.56,-649.26C1102.06,-649.26 1210.18,-649.26 1286.62,-649.26"/>
<polygon fill="black" stroke="black" points="1286.72,-652.76 1296.72,-649.26 1286.72,-645.76 1286.72,-652.76"/>
<text text-anchor="middle" x="1104.34" y="-653.06" font-family="Times,serif" font-size="14.00">schema:supersededBy</text>
</g>
<!-- http://w3id.org/oseg/ont/otrl#Otrl3 -->
<g id="node37" class="node">
<title>http://w3id.org/oseg/ont/otrl#Otrl3</title>
<ellipse fill="none" stroke="black" cx="792.8" cy="-977.26" rx="189.51" ry="16.03"/>
<text text-anchor="middle" x="792.8" y="-973.56" font-family="Times,serif" font-size="14.00">http://w3id.org/oseg/ont/otrl#Otrl3</text>
</g>
<!-- http://w3id.org/oseg/ont/otrl#Otrl3&#45;&gt;http://w3id.org/oseg/ont/otrl#OTRL3 -->
<g id="edge36" class="edge">
<title>http://w3id.org/oseg/ont/otrl#Otrl3&#45;&gt;http://w3id.org/oseg/ont/otrl#OTRL3</title>
<path fill="none" stroke="black" d="M982.59,-977.26C1093.54,-977.26 1227.77,-977.26 1310.15,-977.26"/>
<polygon fill="black" stroke="black" points="1310.19,-980.76 1320.19,-977.26 1310.19,-973.76 1310.19,-980.76"/>
<text text-anchor="middle" x="1104.34" y="-981.06" font-family="Times,serif" font-size="14.00">schema:supersededBy</text>
</g>
<!-- http://w3id.org/oseg/ont/otrl#Odrl5 -->
<g id="node38" class="node">
<title>http://w3id.org/oseg/ont/otrl#Odrl5</title>
<ellipse fill="none" stroke="black" cx="191.63" cy="-547.26" rx="191.75" ry="16.03"/>
<text text-anchor="middle" x="191.63" y="-543.56" font-family="Times,serif" font-size="14.00">http://w3id.org/oseg/ont/otrl#Odrl5</text>
</g>
<!-- http://w3id.org/oseg/ont/otrl#Odrl5&#45;&gt;http://w3id.org/oseg/ont/otrl#Odrl4 -->
<g id="edge38" class="edge">
<title>http://w3id.org/oseg/ont/otrl#Odrl5&#45;&gt;http://w3id.org/oseg/ont/otrl#Odrl4</title>
<path fill="none" stroke="black" d="M383.44,-547.26C498.54,-547.26 638.43,-547.26 721.01,-547.26"/>
<polygon fill="black" stroke="black" points="721.03,-550.76 731.03,-547.26 721.03,-543.76 721.03,-550.76"/>
<text text-anchor="middle" x="481.25" y="-551.06" font-family="Times,serif" font-size="14.00">schema:supersededBy</text>
</g>
<!-- http://w3id.org/oseg/ont/otrl#Otrl6 -->
<g id="node39" class="node">
<title>http://w3id.org/oseg/ont/otrl#Otrl6</title>
<ellipse fill="none" stroke="black" cx="792.8" cy="-1079.26" rx="189.51" ry="16.03"/>
<text text-anchor="middle" x="792.8" y="-1075.56" font-family="Times,serif" font-size="14.00">http://w3id.org/oseg/ont/otrl#Otrl6</text>
</g>
<!-- http://w3id.org/oseg/ont/otrl#Otrl6&#45;&gt;http://w3id.org/oseg/ont/otrl#OTRL6 -->
<g id="edge39" class="edge">
<title>http://w3id.org/oseg/ont/otrl#Otrl6&#45;&gt;http://w3id.org/oseg/ont/otrl#OTRL6</title>
<path fill="none" stroke="black" d="M982.59,-1079.26C1093.54,-1079.26 1227.77,-1079.26 1310.15,-1079.26"/>
<polygon fill="black" stroke="black" points="1310.19,-1082.76 1320.19,-1079.26 1310.19,-1075.76 1310.19,-1082.76"/>
<text text-anchor="middle" x="1104.34" y="-1083.06" font-family="Times,serif" font-size="14.00">schema:supersededBy</text>
</g>
<!-- http://w3id.org/oseg/ont/otrl#Otrl -->
<g id="node40" class="node">
<title>http://w3id.org/oseg/ont/otrl#Otrl</title>
<ellipse fill="none" stroke="black" cx="1387.61" cy="-1181.26" rx="183.28" ry="16.03"/>
<text text-anchor="middle" x="1387.61" y="-1177.56" font-family="Times,serif" font-size="14.00">http://w3id.org/oseg/ont/otrl#Otrl</text>
</g>
<!-- http://w3id.org/oseg/ont/otrl#Otrl&#45;&gt;http://w3id.org/oseg/ont/otrl#OTRL -->
<g id="edge43" class="edge">
<title>http://w3id.org/oseg/ont/otrl#Otrl&#45;&gt;http://w3id.org/oseg/ont/otrl#OTRL</title>
<path fill="none" stroke="black" d="M1526.83,-1170.69C1594.82,-1163.92 1677.69,-1153.31 1750.87,-1137.26 1783.41,-1130.13 1819.16,-1118.57 1846.39,-1108.96"/>
<polygon fill="black" stroke="black" points="1847.78,-1112.18 1856.02,-1105.52 1845.42,-1105.59 1847.78,-1112.18"/>
<text text-anchor="middle" x="1670.87" y="-1167.06" font-family="Times,serif" font-size="14.00">schema:supersededBy</text>
</g>
</g>
</svg>
