<?xml version="1.0" encoding="UTF-8" standalone="no"?>
<!DOCTYPE svg PUBLIC "-//W3C//DTD SVG 1.1//EN"
 "http://www.w3.org/Graphics/SVG/1.1/DTD/svg11.dtd">
<!-- Generated by graphviz version 2.43.0 (0)
 -->
<!-- Title: G Pages: 1 -->
<svg width="2190pt" height="2145pt"
 viewBox="0.00 0.00 2190.00 2145.00" xmlns="http://www.w3.org/2000/svg" xmlns:xlink="http://www.w3.org/1999/xlink">
<g id="graph0" class="graph" transform="scale(1 1) rotate(0) translate(4 2141)">
<title>G</title>
<polygon fill="white" stroke="transparent" points="-4,4 -4,-2141 2186,-2141 2186,4 -4,4"/>
<!-- http://schema.org/DefinedTerm -->
<g id="node1" class="node">
<title>http://schema.org/DefinedTerm</title>
<ellipse fill="none" stroke="#1f77b4" cx="631.21" cy="-497.99" rx="118.17" ry="16.03"/>
<text text-anchor="middle" x="631.21" y="-494.29" font-family="Times,serif" font-size="14.00">schema:DefinedTerm</text>
</g>
<!-- http://spdx.org/rdf/terms#SpdxItem -->
<g id="node2" class="node">
<title>http://spdx.org/rdf/terms#SpdxItem</title>
<ellipse fill="none" stroke="#1f77b4" cx="2019.86" cy="-1675.15" rx="87.86" ry="16.03"/>
<text text-anchor="middle" x="2019.86" y="-1671.45" font-family="Times,serif" font-size="14.00">spdx:SpdxItem</text>
</g>
<!-- http://schema.org/DefinedTermSet -->
<g id="node3" class="node">
<title>http://schema.org/DefinedTermSet</title>
<ellipse fill="none" stroke="#1f77b4" cx="1713.41" cy="-1393.19" rx="116.85" ry="16.03"/>
<text text-anchor="middle" x="1713.41" y="-1389.49" font-family="Times,serif" font-size="14.00">schema:DefinedTer...</text>
</g>
<!-- http://w3id.org/oseg/ont/ods#Dataset -->
<g id="node4" class="node">
<title>http://w3id.org/oseg/ont/ods#Dataset</title>
<ellipse fill="none" stroke="#1f77b4" cx="1874.81" cy="-1993.8" rx="71.34" ry="16.03"/>
<text text-anchor="middle" x="1874.81" y="-1990.1" font-family="Times,serif" font-size="14.00">ods:Dataset</text>
</g>
<!-- http://w3id.org/oseg/ont/okhimg#slotLogo -->
<g id="node5" class="node">
<title>http://w3id.org/oseg/ont/okhimg#slotLogo</title>
<ellipse fill="none" stroke="#e377c2" cx="970.5" cy="-658.94" rx="94.51" ry="16.03"/>
<text text-anchor="middle" x="970.5" y="-655.24" font-family="Times,serif" font-size="14.00">okhimg:slotLogo</text>
</g>
<!-- http://w3id.org/oseg/ont/okhimg#slotLogo&#45;&gt;http://schema.org/DefinedTerm -->
<g id="edge1" class="edge">
<title>http://w3id.org/oseg/ont/okhimg#slotLogo&#45;&gt;http://schema.org/DefinedTerm</title>
<path fill="none" stroke="black" d="M937.96,-643.5C876.18,-614.2 741.94,-550.52 673.37,-517.99"/>
<polygon fill="black" stroke="black" points="674.68,-514.73 664.14,-513.61 671.68,-521.06 674.68,-514.73"/>
<text text-anchor="middle" x="801.17" y="-584.54" font-family="Times,serif" font-size="14.00">a</text>
</g>
<!-- http://w3id.org/oseg/ont/okhimg#slotLogoBw -->
<g id="node9" class="node">
<title>http://w3id.org/oseg/ont/okhimg#slotLogoBw</title>
<ellipse fill="none" stroke="#e377c2" cx="1027.08" cy="-618.39" rx="111.03" ry="16.03"/>
<text text-anchor="middle" x="1027.08" y="-614.69" font-family="Times,serif" font-size="14.00">okhimg:slotLogoBw</text>
</g>
<!-- http://w3id.org/oseg/ont/okhimg#slotLogo&#45;&gt;http://w3id.org/oseg/ont/okhimg#slotLogoBw -->
<g id="edge12" class="edge">
<title>http://w3id.org/oseg/ont/okhimg#slotLogo&#45;&gt;http://w3id.org/oseg/ont/okhimg#slotLogoBw</title>
<path fill="none" stroke="black" d="M1003.38,-643.67C1004.67,-642.74 1005.94,-641.8 1007.2,-640.84"/>
<polygon fill="black" stroke="black" points="1009.41,-643.56 1015,-634.56 1005.02,-638.11 1009.41,-643.56"/>
<text text-anchor="middle" x="977.79" y="-631.06" font-family="Times,serif" font-size="14.00">seeAlso</text>
</g>
<!-- http://id.loc.gov/vocabulary/iso639&#45;1/en -->
<g id="node6" class="node">
<title>http://id.loc.gov/vocabulary/iso639&#45;1/en</title>
<ellipse fill="none" stroke="#e377c2" cx="1705.94" cy="-1985.11" rx="45.01" ry="16.03"/>
<text text-anchor="middle" x="1705.94" y="-1981.41" font-family="Times,serif" font-size="14.00">ns1:en</text>
</g>
<!-- http://w3id.org/oseg/ont/okhimg#slotModel3D -->
<g id="node7" class="node">
<title>http://w3id.org/oseg/ont/okhimg#slotModel3D</title>
<ellipse fill="none" stroke="#e377c2" cx="150.11" cy="-451.59" rx="115.93" ry="16.03"/>
<text text-anchor="middle" x="150.11" y="-447.89" font-family="Times,serif" font-size="14.00">okhimg:slotModel3D</text>
</g>
<!-- http://w3id.org/oseg/ont/okhimg#slotModel3D&#45;&gt;http://schema.org/DefinedTerm -->
<g id="edge3" class="edge">
<title>http://w3id.org/oseg/ont/okhimg#slotModel3D&#45;&gt;http://schema.org/DefinedTerm</title>
<path fill="none" stroke="black" d="M245.73,-460.81C326.05,-468.56 440.73,-479.62 524.11,-487.66"/>
<polygon fill="black" stroke="black" points="523.83,-491.15 534.12,-488.62 524.5,-484.18 523.83,-491.15"/>
<text text-anchor="middle" x="380.42" y="-478.03" font-family="Times,serif" font-size="14.00">a</text>
</g>
<!-- http://w3id.org/oseg/ont/okhimg#tagDrawing -->
<g id="node8" class="node">
<title>http://w3id.org/oseg/ont/okhimg#tagDrawing</title>
<ellipse fill="none" stroke="#e377c2" cx="1058.18" cy="-257.7" rx="111.95" ry="16.03"/>
<text text-anchor="middle" x="1058.18" y="-254" font-family="Times,serif" font-size="14.00">okhimg:tagDrawing</text>
</g>
<!-- http://w3id.org/oseg/ont/okhimg#tagDrawing&#45;&gt;http://schema.org/DefinedTerm -->
<g id="edge4" class="edge">
<title>http://w3id.org/oseg/ont/okhimg#tagDrawing&#45;&gt;http://schema.org/DefinedTerm</title>
<path fill="none" stroke="black" d="M1030.16,-273.47C955.59,-315.43 752.24,-429.87 668.26,-477.14"/>
<polygon fill="black" stroke="black" points="666.33,-474.21 659.33,-482.16 669.76,-480.31 666.33,-474.21"/>
<text text-anchor="middle" x="844.71" y="-379.1" font-family="Times,serif" font-size="14.00">a</text>
</g>
<!-- http://w3id.org/oseg/ont/okhimg#slotLogoBw&#45;&gt;http://schema.org/DefinedTerm -->
<g id="edge5" class="edge">
<title>http://w3id.org/oseg/ont/okhimg#slotLogoBw&#45;&gt;http://schema.org/DefinedTerm</title>
<path fill="none" stroke="black" d="M978.54,-603.62C905.68,-581.46 768.24,-539.66 689.87,-515.83"/>
<polygon fill="black" stroke="black" points="690.73,-512.43 680.15,-512.87 688.7,-519.13 690.73,-512.43"/>
<text text-anchor="middle" x="829.7" y="-563.53" font-family="Times,serif" font-size="14.00">a</text>
</g>
<!-- http://w3id.org/oseg/ont/okhimg#slotLogoBw&#45;&gt;http://w3id.org/oseg/ont/okhimg#slotLogo -->
<g id="edge15" class="edge">
<title>http://w3id.org/oseg/ont/okhimg#slotLogoBw&#45;&gt;http://w3id.org/oseg/ont/okhimg#slotLogo</title>
<path fill="none" stroke="black" d="M993.53,-634.13C992.58,-634.83 991.63,-635.53 990.69,-636.24"/>
<polygon fill="black" stroke="black" points="988.33,-633.64 982.73,-642.63 992.72,-639.1 988.33,-633.64"/>
<text text-anchor="middle" x="964.61" y="-638.99" font-family="Times,serif" font-size="14.00">seeAlso</text>
</g>
<!-- http://w3id.org/oseg/ont/okhimg#tags -->
<g id="node10" class="node">
<title>http://w3id.org/oseg/ont/okhimg#tags</title>
<ellipse fill="none" stroke="#e377c2" cx="1366.57" cy="-1382.78" rx="73.58" ry="16.03"/>
<text text-anchor="middle" x="1366.57" y="-1379.08" font-family="Times,serif" font-size="14.00">okhimg:tags</text>
</g>
<!-- http://w3id.org/oseg/ont/okhimg#tags&#45;&gt;http://schema.org/DefinedTermSet -->
<g id="edge34" class="edge">
<title>http://w3id.org/oseg/ont/okhimg#tags&#45;&gt;http://schema.org/DefinedTermSet</title>
<path fill="none" stroke="black" d="M1439.7,-1384.97C1482.93,-1386.27 1538.83,-1387.95 1588.83,-1389.45"/>
<polygon fill="black" stroke="black" points="1588.97,-1392.96 1599.07,-1389.76 1589.18,-1385.96 1588.97,-1392.96"/>
<text text-anchor="middle" x="1509.77" y="-1391.01" font-family="Times,serif" font-size="14.00">a</text>
</g>
<!-- http://w3id.org/oseg/ont/okhimg#tagArt -->
<g id="node20" class="node">
<title>http://w3id.org/oseg/ont/okhimg#tagArt</title>
<ellipse fill="none" stroke="#e377c2" cx="1012.3" cy="-996.89" rx="84.29" ry="16.03"/>
<text text-anchor="middle" x="1012.3" y="-993.19" font-family="Times,serif" font-size="14.00">okhimg:tagArt</text>
</g>
<!-- http://w3id.org/oseg/ont/okhimg#tags&#45;&gt;http://w3id.org/oseg/ont/okhimg#tagArt -->
<g id="edge18" class="edge">
<title>http://w3id.org/oseg/ont/okhimg#tags&#45;&gt;http://w3id.org/oseg/ont/okhimg#tagArt</title>
<path fill="none" stroke="black" d="M1351.8,-1366.69C1296.32,-1306.25 1100.19,-1092.63 1034.17,-1020.72"/>
<polygon fill="black" stroke="black" points="1036.47,-1018.05 1027.13,-1013.05 1031.32,-1022.79 1036.47,-1018.05"/>
<text text-anchor="middle" x="1105.48" y="-1197.5" font-family="Times,serif" font-size="14.00">schema:hasDefinedTerm</text>
</g>
<!-- http://w3id.org/oseg/ont/okhimg#slotIconMainBw -->
<g id="node11" class="node">
<title>http://w3id.org/oseg/ont/okhimg#slotIconMainBw</title>
<ellipse fill="none" stroke="#e377c2" cx="809.54" cy="-877.39" rx="117.26" ry="16.03"/>
<text text-anchor="middle" x="809.54" y="-873.69" font-family="Times,serif" font-size="14.00">okhimg:slotIconMa...</text>
</g>
<!-- http://w3id.org/oseg/ont/okhimg#slotIconMainBw&#45;&gt;http://schema.org/DefinedTerm -->
<g id="edge7" class="edge">
<title>http://w3id.org/oseg/ont/okhimg#slotIconMainBw&#45;&gt;http://schema.org/DefinedTerm</title>
<path fill="none" stroke="black" d="M801.88,-861.08C773.92,-801.62 677.3,-596.05 643.22,-523.55"/>
<polygon fill="black" stroke="black" points="646.27,-521.79 638.84,-514.23 639.93,-524.77 646.27,-521.79"/>
<text text-anchor="middle" x="718.05" y="-696.12" font-family="Times,serif" font-size="14.00">a</text>
</g>
<!-- http://w3id.org/oseg/ont/okhimg#slotIconMain -->
<g id="node15" class="node">
<title>http://w3id.org/oseg/ont/okhimg#slotIconMain</title>
<ellipse fill="none" stroke="#e377c2" cx="1100.16" cy="-938.27" rx="117.26" ry="16.03"/>
<text text-anchor="middle" x="1100.16" y="-934.57" font-family="Times,serif" font-size="14.00">okhimg:slotIconMain</text>
</g>
<!-- http://w3id.org/oseg/ont/okhimg#slotIconMainBw&#45;&gt;http://w3id.org/oseg/ont/okhimg#slotIconMain -->
<g id="edge11" class="edge">
<title>http://w3id.org/oseg/ont/okhimg#slotIconMainBw&#45;&gt;http://w3id.org/oseg/ont/okhimg#slotIconMain</title>
<path fill="none" stroke="black" d="M855.82,-892.34C896.06,-902.41 955.6,-915.3 1005.83,-925"/>
<polygon fill="black" stroke="black" points="1005.27,-928.45 1015.75,-926.89 1006.58,-921.58 1005.27,-928.45"/>
<text text-anchor="middle" x="903.33" y="-912.47" font-family="Times,serif" font-size="14.00">seeAlso</text>
</g>
<!-- http://w3id.org/oseg/ont/okhimg#slotPhotoPackaging -->
<g id="node12" class="node">
<title>http://w3id.org/oseg/ont/okhimg#slotPhotoPackaging</title>
<ellipse fill="none" stroke="#e377c2" cx="327.22" cy="-108.57" rx="113.69" ry="16.03"/>
<text text-anchor="middle" x="327.22" y="-104.87" font-family="Times,serif" font-size="14.00">okhimg:slotPhotoP...</text>
</g>
<!-- http://w3id.org/oseg/ont/okhimg#slotPhotoPackaging&#45;&gt;http://schema.org/DefinedTerm -->
<g id="edge8" class="edge">
<title>http://w3id.org/oseg/ont/okhimg#slotPhotoPackaging&#45;&gt;http://schema.org/DefinedTerm</title>
<path fill="none" stroke="black" d="M339.89,-124.8C387.4,-185.67 555.11,-400.5 612.1,-473.5"/>
<polygon fill="black" stroke="black" points="609.57,-475.95 618.48,-481.68 615.09,-471.64 609.57,-475.95"/>
<text text-anchor="middle" x="471.49" y="-302.95" font-family="Times,serif" font-size="14.00">a</text>
</g>
<!-- http://w3id.org/oseg/ont/okhimg#slotModelFromAbove -->
<g id="node13" class="node">
<title>http://w3id.org/oseg/ont/okhimg#slotModelFromAbove</title>
<ellipse fill="none" stroke="#e377c2" cx="268.81" cy="-297.25" rx="116.85" ry="16.03"/>
<text text-anchor="middle" x="268.81" y="-293.55" font-family="Times,serif" font-size="14.00">okhimg:slotModelF...</text>
</g>
<!-- http://w3id.org/oseg/ont/okhimg#slotModelFromAbove&#45;&gt;http://schema.org/DefinedTerm -->
<g id="edge9" class="edge">
<title>http://w3id.org/oseg/ont/okhimg#slotModelFromAbove&#45;&gt;http://schema.org/DefinedTerm</title>
<path fill="none" stroke="black" d="M297.55,-313.17C362.57,-349.18 520.94,-436.91 593.63,-477.17"/>
<polygon fill="black" stroke="black" points="592.02,-480.28 602.47,-482.07 595.42,-474.16 592.02,-480.28"/>
<text text-anchor="middle" x="441.09" y="-398.97" font-family="Times,serif" font-size="14.00">a</text>
</g>
<!-- http://w3id.org/oseg/ont/okhimg#slots -->
<g id="node14" class="node">
<title>http://w3id.org/oseg/ont/okhimg#slots</title>
<ellipse fill="none" stroke="#e377c2" cx="1457.29" cy="-1342.25" rx="75.82" ry="16.03"/>
<text text-anchor="middle" x="1457.29" y="-1338.55" font-family="Times,serif" font-size="14.00">okhimg:slots</text>
</g>
<!-- http://w3id.org/oseg/ont/okhimg#slots&#45;&gt;http://schema.org/DefinedTermSet -->
<g id="edge10" class="edge">
<title>http://w3id.org/oseg/ont/okhimg#slots&#45;&gt;http://schema.org/DefinedTermSet</title>
<path fill="none" stroke="black" d="M1512.86,-1353.3C1548.94,-1360.48 1596.46,-1369.93 1636.19,-1377.83"/>
<polygon fill="black" stroke="black" points="1635.62,-1381.29 1646.11,-1379.81 1636.98,-1374.42 1635.62,-1381.29"/>
<text text-anchor="middle" x="1570.03" y="-1369.37" font-family="Times,serif" font-size="14.00">a</text>
</g>
<!-- http://w3id.org/oseg/ont/okhimg#slots&#45;&gt;http://w3id.org/oseg/ont/okhimg#slotIconMain -->
<g id="edge37" class="edge">
<title>http://w3id.org/oseg/ont/okhimg#slots&#45;&gt;http://w3id.org/oseg/ont/okhimg#slotIconMain</title>
<path fill="none" stroke="black" d="M1443.07,-1326.16C1387.87,-1263.72 1187.59,-1037.17 1121.49,-962.4"/>
<polygon fill="black" stroke="black" points="1124.06,-960.02 1114.81,-954.85 1118.81,-964.66 1124.06,-960.02"/>
<text text-anchor="middle" x="1194.78" y="-1148.08" font-family="Times,serif" font-size="14.00">schema:hasDefinedTerm</text>
</g>
<!-- http://w3id.org/oseg/ont/okhimg#slotIconMain&#45;&gt;http://schema.org/DefinedTerm -->
<g id="edge29" class="edge">
<title>http://w3id.org/oseg/ont/okhimg#slotIconMain&#45;&gt;http://schema.org/DefinedTerm</title>
<path fill="none" stroke="black" d="M1082.91,-922.08C1011.68,-855.2 740.17,-600.29 656.15,-521.4"/>
<polygon fill="black" stroke="black" points="658.3,-518.62 648.61,-514.33 653.51,-523.72 658.3,-518.62"/>
<text text-anchor="middle" x="865.03" y="-725.54" font-family="Times,serif" font-size="14.00">a</text>
</g>
<!-- http://w3id.org/oseg/ont/okhimg#slotIconMain&#45;&gt;http://w3id.org/oseg/ont/okhimg#slotIconMainBw -->
<g id="edge20" class="edge">
<title>http://w3id.org/oseg/ont/okhimg#slotIconMain&#45;&gt;http://w3id.org/oseg/ont/okhimg#slotIconMainBw</title>
<path fill="none" stroke="black" d="M1053.87,-923.32C1013.64,-913.25 954.1,-900.36 903.86,-890.67"/>
<polygon fill="black" stroke="black" points="904.43,-887.21 893.95,-888.77 903.11,-894.09 904.43,-887.21"/>
<text text-anchor="middle" x="1006.37" y="-910.79" font-family="Times,serif" font-size="14.00">seeAlso</text>
</g>
<!-- http://w3id.org/oseg/ont/okhimg#slotOrganizationLogoBw -->
<g id="node16" class="node">
<title>http://w3id.org/oseg/ont/okhimg#slotOrganizationLogoBw</title>
<ellipse fill="none" stroke="#e377c2" cx="616.82" cy="-538.61" rx="114.6" ry="16.03"/>
<text text-anchor="middle" x="616.82" y="-534.91" font-family="Times,serif" font-size="14.00">okhimg:slotOrgani...</text>
</g>
<!-- http://w3id.org/oseg/ont/okhimg#slotOrganizationLogoBw&#45;&gt;http://schema.org/DefinedTerm -->
<g id="edge14" class="edge">
<title>http://w3id.org/oseg/ont/okhimg#slotOrganizationLogoBw&#45;&gt;http://schema.org/DefinedTerm</title>
<path fill="none" stroke="black" d="M622.67,-522.09C622.73,-521.93 622.78,-521.77 622.84,-521.61"/>
<polygon fill="black" stroke="black" points="625.37,-524.96 625.41,-514.36 618.77,-522.62 625.37,-524.96"/>
<text text-anchor="middle" x="618.26" y="-510.65" font-family="Times,serif" font-size="14.00">a</text>
</g>
<!-- http://w3id.org/oseg/ont/okhimg#slotOrganizationLogo -->
<g id="node32" class="node">
<title>http://w3id.org/oseg/ont/okhimg#slotOrganizationLogo</title>
<ellipse fill="none" stroke="#e377c2" cx="533.39" cy="-864.6" rx="114.6" ry="16.03"/>
<text text-anchor="middle" x="533.39" y="-860.9" font-family="Times,serif" font-size="14.00">okhimg:slotOrgani...</text>
</g>
<!-- http://w3id.org/oseg/ont/okhimg#slotOrganizationLogoBw&#45;&gt;http://w3id.org/oseg/ont/okhimg#slotOrganizationLogo -->
<g id="edge50" class="edge">
<title>http://w3id.org/oseg/ont/okhimg#slotOrganizationLogoBw&#45;&gt;http://w3id.org/oseg/ont/okhimg#slotOrganizationLogo</title>
<path fill="none" stroke="black" d="M609.33,-554.88C591.23,-607.5 548.57,-773.35 536.18,-838.23"/>
<polygon fill="black" stroke="black" points="532.74,-837.62 534.41,-848.09 539.63,-838.87 532.74,-837.62"/>
<text text-anchor="middle" x="545.26" y="-700.35" font-family="Times,serif" font-size="14.00">seeAlso</text>
</g>
<!-- http://w3id.org/oseg/ont/okhimg#tagAssembly -->
<g id="node17" class="node">
<title>http://w3id.org/oseg/ont/okhimg#tagAssembly</title>
<ellipse fill="none" stroke="#e377c2" cx="195.56" cy="-722.27" rx="116.85" ry="16.03"/>
<text text-anchor="middle" x="195.56" y="-718.57" font-family="Times,serif" font-size="14.00">okhimg:tagAssembly</text>
</g>
<!-- http://w3id.org/oseg/ont/okhimg#tagAssembly&#45;&gt;http://schema.org/DefinedTerm -->
<g id="edge13" class="edge">
<title>http://w3id.org/oseg/ont/okhimg#tagAssembly&#45;&gt;http://schema.org/DefinedTerm</title>
<path fill="none" stroke="black" d="M226.19,-706.5C303.37,-666.77 505.74,-562.58 591.69,-518.33"/>
<polygon fill="black" stroke="black" points="593.32,-521.43 600.61,-513.74 590.12,-515.21 593.32,-521.43"/>
<text text-anchor="middle" x="404.44" y="-616.21" font-family="Times,serif" font-size="14.00">a</text>
</g>
<!-- http://w3id.org/oseg/ont/okhimg#tagColor -->
<g id="node18" class="node">
<title>http://w3id.org/oseg/ont/okhimg#tagColor</title>
<ellipse fill="none" stroke="#e377c2" cx="444.78" cy="-180.36" rx="95.42" ry="16.03"/>
<text text-anchor="middle" x="444.78" y="-176.66" font-family="Times,serif" font-size="14.00">okhimg:tagColor</text>
</g>
<!-- http://w3id.org/oseg/ont/okhimg#tagColor&#45;&gt;http://schema.org/DefinedTerm -->
<g id="edge16" class="edge">
<title>http://w3id.org/oseg/ont/okhimg#tagColor&#45;&gt;http://schema.org/DefinedTerm</title>
<path fill="none" stroke="black" d="M454.28,-196.55C484.63,-248.25 579.4,-409.71 616.3,-472.58"/>
<polygon fill="black" stroke="black" points="613.42,-474.6 621.5,-481.45 619.46,-471.06 613.42,-474.6"/>
<text text-anchor="middle" x="530.79" y="-338.36" font-family="Times,serif" font-size="14.00">a</text>
</g>
<!-- http://w3id.org/oseg/ont/0.1.0/okhimg -->
<g id="node19" class="node">
<title>http://w3id.org/oseg/ont/0.1.0/okhimg</title>
<ellipse fill="none" stroke="#e377c2" cx="1557.14" cy="-2014.54" rx="70.01" ry="16.03"/>
<text text-anchor="middle" x="1557.14" y="-2010.84" font-family="Times,serif" font-size="14.00">ns2:okhimg</text>
</g>
<!-- http://w3id.org/oseg/ont/okhimg#tagArt&#45;&gt;http://schema.org/DefinedTerm -->
<g id="edge23" class="edge">
<title>http://w3id.org/oseg/ont/okhimg#tagArt&#45;&gt;http://schema.org/DefinedTerm</title>
<path fill="none" stroke="black" d="M999.83,-980.58C943.97,-907.44 716.44,-609.57 649.7,-522.19"/>
<polygon fill="black" stroke="black" points="652.43,-520 643.58,-514.18 646.87,-524.25 652.43,-520"/>
<text text-anchor="middle" x="820.27" y="-755.18" font-family="Times,serif" font-size="14.00">a</text>
</g>
<!-- http://w3id.org/oseg/ont/okhimg -->
<g id="node21" class="node">
<title>http://w3id.org/oseg/ont/okhimg</title>
<ellipse fill="none" stroke="#e377c2" cx="1688.16" cy="-1722.8" rx="70.01" ry="16.03"/>
<text text-anchor="middle" x="1688.16" y="-1719.1" font-family="Times,serif" font-size="14.00">ns3:okhimg</text>
</g>
<!-- http://w3id.org/oseg/ont/okhimg&#45;&gt;http://spdx.org/rdf/terms#SpdxItem -->
<g id="edge19" class="edge">
<title>http://w3id.org/oseg/ont/okhimg&#45;&gt;http://spdx.org/rdf/terms#SpdxItem</title>
<path fill="none" stroke="black" d="M1747.84,-1714.22C1801.62,-1706.5 1881.09,-1695.08 1940.26,-1686.58"/>
<polygon fill="black" stroke="black" points="1940.92,-1690.02 1950.32,-1685.14 1939.92,-1683.09 1940.92,-1690.02"/>
<text text-anchor="middle" x="1839.55" y="-1704.2" font-family="Times,serif" font-size="14.00">a</text>
</g>
<!-- http://w3id.org/oseg/ont/okhimg&#45;&gt;http://w3id.org/oseg/ont/ods#Dataset -->
<g id="edge42" class="edge">
<title>http://w3id.org/oseg/ont/okhimg&#45;&gt;http://w3id.org/oseg/ont/ods#Dataset</title>
<path fill="none" stroke="black" d="M1699.28,-1738.94C1730.65,-1784.49 1820.04,-1914.27 1857.72,-1968.99"/>
<polygon fill="black" stroke="black" points="1854.96,-1971.15 1863.52,-1977.4 1860.73,-1967.18 1854.96,-1971.15"/>
<text text-anchor="middle" x="1774" y="-1857.76" font-family="Times,serif" font-size="14.00">a</text>
</g>
<!-- http://w3id.org/oseg/ont/okhimg&#45;&gt;http://id.loc.gov/vocabulary/iso639&#45;1/en -->
<g id="edge2" class="edge">
<title>http://w3id.org/oseg/ont/okhimg&#45;&gt;http://id.loc.gov/vocabulary/iso639&#45;1/en</title>
<path fill="none" stroke="black" d="M1689.27,-1739.21C1692.26,-1783.28 1700.48,-1904.53 1704.14,-1958.55"/>
<polygon fill="black" stroke="black" points="1700.66,-1958.97 1704.83,-1968.71 1707.64,-1958.49 1700.66,-1958.97"/>
<text text-anchor="middle" x="1632.2" y="-1852.68" font-family="Times,serif" font-size="14.00">dcterms:language</text>
</g>
<!-- http://w3id.org/oseg/ont/okhimg&#45;&gt;http://w3id.org/oseg/ont/okhimg#tags -->
<g id="edge6" class="edge">
<title>http://w3id.org/oseg/ont/okhimg&#45;&gt;http://w3id.org/oseg/ont/okhimg#tags</title>
<path fill="none" stroke="black" d="M1673.08,-1706.85C1621.29,-1652.1 1450.51,-1471.52 1388.94,-1406.43"/>
<polygon fill="black" stroke="black" points="1391.41,-1403.94 1381.99,-1399.08 1386.32,-1408.75 1391.41,-1403.94"/>
<text text-anchor="middle" x="1466.01" y="-1560.44" font-family="Times,serif" font-size="14.00">void:rootResource</text>
</g>
<!-- http://w3id.org/oseg/ont/okhimg&#45;&gt;http://w3id.org/oseg/ont/okhimg#slots -->
<g id="edge28" class="edge">
<title>http://w3id.org/oseg/ont/okhimg&#45;&gt;http://w3id.org/oseg/ont/okhimg#slots</title>
<path fill="none" stroke="black" d="M1678.24,-1706.45C1641.98,-1646.67 1516.45,-1439.76 1472.57,-1367.44"/>
<polygon fill="black" stroke="black" points="1475.35,-1365.27 1467.17,-1358.54 1469.37,-1368.9 1475.35,-1365.27"/>
<text text-anchor="middle" x="1510.41" y="-1540.74" font-family="Times,serif" font-size="14.00">void:rootResource</text>
</g>
<!-- http://w3id.org/oseg/ont/okhimg&#45;&gt;http://w3id.org/oseg/ont/0.1.0/okhimg -->
<g id="edge17" class="edge">
<title>http://w3id.org/oseg/ont/okhimg&#45;&gt;http://w3id.org/oseg/ont/0.1.0/okhimg</title>
<path fill="none" stroke="black" d="M1680.74,-1739.32C1658.94,-1787.86 1594.97,-1930.3 1568.65,-1988.9"/>
<polygon fill="black" stroke="black" points="1565.38,-1987.64 1564.48,-1998.2 1571.77,-1990.51 1565.38,-1987.64"/>
<text text-anchor="middle" x="1573.2" y="-1867.91" font-family="Times,serif" font-size="14.00">owl:versionIRI</text>
</g>
<!-- http://w3id.org/oseg/ont/oseg&#45;profiles#robinVobruba -->
<g id="node29" class="node">
<title>http://w3id.org/oseg/ont/oseg&#45;profiles#robinVobruba</title>
<ellipse fill="none" stroke="#e377c2" cx="1780.07" cy="-2120.81" rx="113.69" ry="16.03"/>
<text text-anchor="middle" x="1780.07" y="-2117.11" font-family="Times,serif" font-size="14.00">osegprof:robinVob...</text>
</g>
<!-- http://w3id.org/oseg/ont/okhimg&#45;&gt;http://w3id.org/oseg/ont/oseg&#45;profiles#robinVobruba -->
<g id="edge31" class="edge">
<title>http://w3id.org/oseg/ont/okhimg&#45;&gt;http://w3id.org/oseg/ont/oseg&#45;profiles#robinVobruba</title>
<path fill="none" stroke="black" d="M1689.04,-1739.29C1698.24,-1801.02 1748.24,-2018.69 1770.29,-2094.53"/>
<polygon fill="black" stroke="black" points="1766.98,-2095.68 1773.21,-2104.26 1773.69,-2093.67 1766.98,-2095.68"/>
<text text-anchor="middle" x="1674.17" y="-1920.71" font-family="Times,serif" font-size="14.00">schema:creator</text>
</g>
<!-- http://w3id.org/oseg/ont/okhimg&#45;&gt;http://w3id.org/oseg/ont/oseg&#45;profiles#robinVobruba -->
<g id="edge36" class="edge">
<title>http://w3id.org/oseg/ont/okhimg&#45;&gt;http://w3id.org/oseg/ont/oseg&#45;profiles#robinVobruba</title>
<path fill="none" stroke="black" d="M1694.99,-1739.24C1714.2,-1800.83 1764.59,-2018.2 1777.58,-2094.28"/>
<polygon fill="black" stroke="black" points="1774.17,-2095.13 1779.21,-2104.45 1781.08,-2094.02 1774.17,-2095.13"/>
<text text-anchor="middle" x="1678.78" y="-1905.56" font-family="Times,serif" font-size="14.00">dcterms:creator</text>
</g>
<!-- http://spdx.org/licenses/AGPL&#45;3.0&#45;or&#45;later -->
<g id="node38" class="node">
<title>http://spdx.org/licenses/AGPL&#45;3.0&#45;or&#45;later</title>
<ellipse fill="none" stroke="#e377c2" cx="2070.66" cy="-1828.17" rx="111.95" ry="16.03"/>
<text text-anchor="middle" x="2070.66" y="-1824.47" font-family="Times,serif" font-size="14.00">spdxl:AGPL&#45;3.0&#45;or...</text>
</g>
<!-- http://w3id.org/oseg/ont/okhimg&#45;&gt;http://spdx.org/licenses/AGPL&#45;3.0&#45;or&#45;later -->
<g id="edge45" class="edge">
<title>http://w3id.org/oseg/ont/okhimg&#45;&gt;http://spdx.org/licenses/AGPL&#45;3.0&#45;or&#45;later</title>
<path fill="none" stroke="black" d="M1733.54,-1735.3C1801.81,-1754.11 1931.15,-1789.74 2008.25,-1810.98"/>
<polygon fill="black" stroke="black" points="2007.74,-1814.47 2018.31,-1813.75 2009.6,-1807.72 2007.74,-1814.47"/>
<text text-anchor="middle" x="1794.9" y="-1776.94" font-family="Times,serif" font-size="14.00">spdx:licenseDeclared</text>
</g>
<!-- http://w3id.org/oseg/ont/oseg&#45;profiles#Iopa -->
<g id="node39" class="node">
<title>http://w3id.org/oseg/ont/oseg&#45;profiles#Iopa</title>
<ellipse fill="none" stroke="#e377c2" cx="1969.09" cy="-1912.72" rx="80.72" ry="16.03"/>
<text text-anchor="middle" x="1969.09" y="-1909.02" font-family="Times,serif" font-size="14.00">osegprof:Iopa</text>
</g>
<!-- http://w3id.org/oseg/ont/okhimg&#45;&gt;http://w3id.org/oseg/ont/oseg&#45;profiles#Iopa -->
<g id="edge46" class="edge">
<title>http://w3id.org/oseg/ont/okhimg&#45;&gt;http://w3id.org/oseg/ont/oseg&#45;profiles#Iopa</title>
<path fill="none" stroke="black" d="M1711.15,-1738.34C1761.26,-1772.21 1880.38,-1852.75 1937.49,-1891.36"/>
<polygon fill="black" stroke="black" points="1935.53,-1894.26 1945.78,-1896.96 1939.45,-1888.46 1935.53,-1894.26"/>
<text text-anchor="middle" x="1758.82" y="-1818.65" font-family="Times,serif" font-size="14.00">dcterms:publisher</text>
</g>
<!-- http://w3id.org/oseg/ont/okhimg#tagScreenshot -->
<g id="node22" class="node">
<title>http://w3id.org/oseg/ont/okhimg#tagScreenshot</title>
<ellipse fill="none" stroke="#e377c2" cx="124.76" cy="-606.04" rx="125.32" ry="16.03"/>
<text text-anchor="middle" x="124.76" y="-602.34" font-family="Times,serif" font-size="14.00">okhimg:tagScreenshot</text>
</g>
<!-- http://w3id.org/oseg/ont/okhimg#tagScreenshot&#45;&gt;http://schema.org/DefinedTerm -->
<g id="edge21" class="edge">
<title>http://w3id.org/oseg/ont/okhimg#tagScreenshot&#45;&gt;http://schema.org/DefinedTerm</title>
<path fill="none" stroke="black" d="M189.93,-592.13C284.21,-572.02 458.15,-534.91 557.16,-513.79"/>
<polygon fill="black" stroke="black" points="558.04,-517.18 567.09,-511.67 556.57,-510.33 558.04,-517.18"/>
<text text-anchor="middle" x="369.04" y="-556.76" font-family="Times,serif" font-size="14.00">a</text>
</g>
<!-- http://w3id.org/oseg/ont/okhimg#tagModel -->
<g id="node23" class="node">
<title>http://w3id.org/oseg/ont/okhimg#tagModel</title>
<ellipse fill="none" stroke="#e377c2" cx="648.35" cy="-925.24" rx="99.9" ry="16.03"/>
<text text-anchor="middle" x="648.35" y="-921.54" font-family="Times,serif" font-size="14.00">okhimg:tagModel</text>
</g>
<!-- http://w3id.org/oseg/ont/okhimg#tagModel&#45;&gt;http://schema.org/DefinedTerm -->
<g id="edge22" class="edge">
<title>http://w3id.org/oseg/ont/okhimg#tagModel&#45;&gt;http://schema.org/DefinedTerm</title>
<path fill="none" stroke="black" d="M647.69,-908.76C645.09,-843.87 635.53,-605.72 632.29,-524.97"/>
<polygon fill="black" stroke="black" points="635.78,-524.51 631.88,-514.66 628.78,-524.79 635.78,-524.51"/>
<text text-anchor="middle" x="635.49" y="-720.66" font-family="Times,serif" font-size="14.00">a</text>
</g>
<!-- http://w3id.org/oseg/ont/okhimg#tagDiagram -->
<g id="node24" class="node">
<title>http://w3id.org/oseg/ont/okhimg#tagDiagram</title>
<ellipse fill="none" stroke="#e377c2" cx="423.31" cy="-929.72" rx="111.95" ry="16.03"/>
<text text-anchor="middle" x="423.31" y="-926.02" font-family="Times,serif" font-size="14.00">okhimg:tagDiagram</text>
</g>
<!-- http://w3id.org/oseg/ont/okhimg#tagDiagram&#45;&gt;http://schema.org/DefinedTerm -->
<g id="edge24" class="edge">
<title>http://w3id.org/oseg/ont/okhimg#tagDiagram&#45;&gt;http://schema.org/DefinedTerm</title>
<path fill="none" stroke="black" d="M431.2,-913.33C462.78,-847.74 580.16,-604 618.79,-523.77"/>
<polygon fill="black" stroke="black" points="622.12,-524.93 623.31,-514.4 615.81,-521.89 622.12,-524.93"/>
<text text-anchor="middle" x="520.5" y="-722.35" font-family="Times,serif" font-size="14.00">a</text>
</g>
<!-- http://w3id.org/oseg/ont/okhimg#slotModelFromBack -->
<g id="node25" class="node">
<title>http://w3id.org/oseg/ont/okhimg#slotModelFromBack</title>
<ellipse fill="none" stroke="#e377c2" cx="446.34" cy="-16.22" rx="116.85" ry="16.03"/>
<text text-anchor="middle" x="446.34" y="-12.52" font-family="Times,serif" font-size="14.00">okhimg:slotModelF...</text>
</g>
<!-- http://w3id.org/oseg/ont/okhimg#slotModelFromBack&#45;&gt;http://schema.org/DefinedTerm -->
<g id="edge25" class="edge">
<title>http://w3id.org/oseg/ont/okhimg#slotModelFromBack&#45;&gt;http://schema.org/DefinedTerm</title>
<path fill="none" stroke="black" d="M452.6,-32.52C479.78,-103.36 587.74,-384.69 621.24,-472.01"/>
<polygon fill="black" stroke="black" points="618.01,-473.36 624.86,-481.44 624.54,-470.85 618.01,-473.36"/>
<text text-anchor="middle" x="532.42" y="-256.06" font-family="Times,serif" font-size="14.00">a</text>
</g>
<!-- http://w3id.org/oseg/ont/okhimg#slotPhotoThingMain -->
<g id="node26" class="node">
<title>http://w3id.org/oseg/ont/okhimg#slotPhotoThingMain</title>
<ellipse fill="none" stroke="#e377c2" cx="226.66" cy="-194.85" rx="114.6" ry="16.03"/>
<text text-anchor="middle" x="226.66" y="-191.15" font-family="Times,serif" font-size="14.00">okhimg:slotPhotoT...</text>
</g>
<!-- http://w3id.org/oseg/ont/okhimg#slotPhotoThingMain&#45;&gt;http://schema.org/DefinedTerm -->
<g id="edge26" class="edge">
<title>http://w3id.org/oseg/ont/okhimg#slotPhotoThingMain&#45;&gt;http://schema.org/DefinedTerm</title>
<path fill="none" stroke="black" d="M248.12,-210.94C315.6,-261.5 523.56,-417.32 601.39,-475.64"/>
<polygon fill="black" stroke="black" points="599.7,-478.75 609.8,-481.94 603.89,-473.14 599.7,-478.75"/>
<text text-anchor="middle" x="420.26" y="-347.09" font-family="Times,serif" font-size="14.00">a</text>
</g>
<!-- http://w3id.org/oseg/ont/okhimg#slotModelMain -->
<g id="node27" class="node">
<title>http://w3id.org/oseg/ont/okhimg#slotModelMain</title>
<ellipse fill="none" stroke="#e377c2" cx="1113.9" cy="-464.52" rx="127.06" ry="16.03"/>
<text text-anchor="middle" x="1113.9" y="-460.82" font-family="Times,serif" font-size="14.00">okhimg:slotModelMain</text>
</g>
<!-- http://w3id.org/oseg/ont/okhimg#slotModelMain&#45;&gt;http://schema.org/DefinedTerm -->
<g id="edge27" class="edge">
<title>http://w3id.org/oseg/ont/okhimg#slotModelMain&#45;&gt;http://schema.org/DefinedTerm</title>
<path fill="none" stroke="black" d="M1001.95,-472.28C925.45,-477.59 824.34,-484.6 747.03,-489.96"/>
<polygon fill="black" stroke="black" points="746.5,-486.49 736.77,-490.67 746.98,-493.47 746.5,-486.49"/>
<text text-anchor="middle" x="869.99" y="-484.92" font-family="Times,serif" font-size="14.00">a</text>
</g>
<!-- http://w3id.org/oseg/ont/okhimg#tagLogo -->
<g id="node28" class="node">
<title>http://w3id.org/oseg/ont/okhimg#tagLogo</title>
<ellipse fill="none" stroke="#e377c2" cx="852.11" cy="-79.13" rx="92.76" ry="16.03"/>
<text text-anchor="middle" x="852.11" y="-75.43" font-family="Times,serif" font-size="14.00">okhimg:tagLogo</text>
</g>
<!-- http://w3id.org/oseg/ont/okhimg#tagLogo&#45;&gt;http://schema.org/DefinedTerm -->
<g id="edge30" class="edge">
<title>http://w3id.org/oseg/ont/okhimg#tagLogo&#45;&gt;http://schema.org/DefinedTerm</title>
<path fill="none" stroke="black" d="M843.45,-95.55C809.56,-159.8 685.79,-394.5 644.62,-472.55"/>
<polygon fill="black" stroke="black" points="641.38,-471.2 639.81,-481.68 647.57,-474.47 641.38,-471.2"/>
<text text-anchor="middle" x="739.54" y="-287.85" font-family="Times,serif" font-size="14.00">a</text>
</g>
<!-- http://w3id.org/oseg/ont/okhimg#slotSocial -->
<g id="node30" class="node">
<title>http://w3id.org/oseg/ont/okhimg#slotSocial</title>
<ellipse fill="none" stroke="#e377c2" cx="295.22" cy="-833.6" rx="101.23" ry="16.03"/>
<text text-anchor="middle" x="295.22" y="-829.9" font-family="Times,serif" font-size="14.00">okhimg:slotSocial</text>
</g>
<!-- http://w3id.org/oseg/ont/okhimg#slotSocial&#45;&gt;http://schema.org/DefinedTerm -->
<g id="edge32" class="edge">
<title>http://w3id.org/oseg/ont/okhimg#slotSocial&#45;&gt;http://schema.org/DefinedTerm</title>
<path fill="none" stroke="black" d="M311.43,-817.41C365.97,-762.93 543.06,-586.04 607.49,-521.68"/>
<polygon fill="black" stroke="black" points="610.17,-523.95 614.77,-514.41 605.22,-519 610.17,-523.95"/>
<text text-anchor="middle" x="454.96" y="-673.35" font-family="Times,serif" font-size="14.00">a</text>
</g>
<!-- http://w3id.org/oseg/ont/okhimg#slotModelFromRight -->
<g id="node31" class="node">
<title>http://w3id.org/oseg/ont/okhimg#slotModelFromRight</title>
<ellipse fill="none" stroke="#e377c2" cx="223.64" cy="-553.31" rx="116.85" ry="16.03"/>
<text text-anchor="middle" x="223.64" y="-549.61" font-family="Times,serif" font-size="14.00">okhimg:slotModelF...</text>
</g>
<!-- http://w3id.org/oseg/ont/okhimg#slotModelFromRight&#45;&gt;http://schema.org/DefinedTerm -->
<g id="edge33" class="edge">
<title>http://w3id.org/oseg/ont/okhimg#slotModelFromRight&#45;&gt;http://schema.org/DefinedTerm</title>
<path fill="none" stroke="black" d="M307.59,-541.92C374.33,-532.86 467.68,-520.19 536.97,-510.78"/>
<polygon fill="black" stroke="black" points="537.58,-514.23 547.01,-509.42 536.63,-507.29 537.58,-514.23"/>
<text text-anchor="middle" x="417.78" y="-530.15" font-family="Times,serif" font-size="14.00">a</text>
</g>
<!-- http://w3id.org/oseg/ont/okhimg#slotOrganizationLogo&#45;&gt;http://schema.org/DefinedTerm -->
<g id="edge38" class="edge">
<title>http://w3id.org/oseg/ont/okhimg#slotOrganizationLogo&#45;&gt;http://schema.org/DefinedTerm</title>
<path fill="none" stroke="black" d="M537.85,-847.89C553.38,-789.67 605.23,-595.36 624.19,-524.31"/>
<polygon fill="black" stroke="black" points="627.64,-524.94 626.84,-514.37 620.88,-523.13 627.64,-524.94"/>
<text text-anchor="middle" x="576.52" y="-674.9" font-family="Times,serif" font-size="14.00">a</text>
</g>
<!-- http://w3id.org/oseg/ont/okhimg#slotOrganizationLogo&#45;&gt;http://w3id.org/oseg/ont/okhimg#slotOrganizationLogoBw -->
<g id="edge35" class="edge">
<title>http://w3id.org/oseg/ont/okhimg#slotOrganizationLogo&#45;&gt;http://w3id.org/oseg/ont/okhimg#slotOrganizationLogoBw</title>
<path fill="none" stroke="black" d="M540.88,-848.33C558.98,-795.71 601.64,-629.86 614.02,-564.98"/>
<polygon fill="black" stroke="black" points="617.47,-565.59 615.8,-555.13 610.58,-564.35 617.47,-565.59"/>
<text text-anchor="middle" x="604.95" y="-695.46" font-family="Times,serif" font-size="14.00">seeAlso</text>
</g>
<!-- http://w3id.org/oseg/ont/okhimg#tagIcon -->
<g id="node33" class="node">
<title>http://w3id.org/oseg/ont/okhimg#tagIcon</title>
<ellipse fill="none" stroke="#e377c2" cx="660.92" cy="-34" rx="89.61" ry="16.03"/>
<text text-anchor="middle" x="660.92" y="-30.3" font-family="Times,serif" font-size="14.00">okhimg:tagIcon</text>
</g>
<!-- http://w3id.org/oseg/ont/okhimg#tagIcon&#45;&gt;http://schema.org/DefinedTerm -->
<g id="edge39" class="edge">
<title>http://w3id.org/oseg/ont/okhimg#tagIcon&#45;&gt;http://schema.org/DefinedTerm</title>
<path fill="none" stroke="black" d="M659.87,-50.51C655.44,-119.64 638.37,-386.16 632.9,-471.52"/>
<polygon fill="black" stroke="black" points="629.4,-471.47 632.25,-481.67 636.39,-471.92 629.4,-471.47"/>
<text text-anchor="middle" x="641.89" y="-264.82" font-family="Times,serif" font-size="14.00">a</text>
</g>
<!-- http://w3id.org/oseg/ont/okhimg#slotModelFromBelow -->
<g id="node34" class="node">
<title>http://w3id.org/oseg/ont/okhimg#slotModelFromBelow</title>
<ellipse fill="none" stroke="#e377c2" cx="154.28" cy="-337.79" rx="116.85" ry="16.03"/>
<text text-anchor="middle" x="154.28" y="-334.09" font-family="Times,serif" font-size="14.00">okhimg:slotModelF...</text>
</g>
<!-- http://w3id.org/oseg/ont/okhimg#slotModelFromBelow&#45;&gt;http://schema.org/DefinedTerm -->
<g id="edge40" class="edge">
<title>http://w3id.org/oseg/ont/okhimg#slotModelFromBelow&#45;&gt;http://schema.org/DefinedTerm</title>
<path fill="none" stroke="black" d="M199.15,-352.86C286.94,-382.35 481.15,-447.58 576.38,-479.57"/>
<polygon fill="black" stroke="black" points="575.52,-482.97 586.11,-482.84 577.75,-476.34 575.52,-482.97"/>
<text text-anchor="middle" x="383.27" y="-420.02" font-family="Times,serif" font-size="14.00">a</text>
</g>
<!-- http://w3id.org/oseg/ont/okhimg#tagGray -->
<g id="node35" class="node">
<title>http://w3id.org/oseg/ont/okhimg#tagGray</title>
<ellipse fill="none" stroke="#e377c2" cx="857.49" cy="-217.17" rx="92.76" ry="16.03"/>
<text text-anchor="middle" x="857.49" y="-213.47" font-family="Times,serif" font-size="14.00">okhimg:tagGray</text>
</g>
<!-- http://w3id.org/oseg/ont/okhimg#tagGray&#45;&gt;http://schema.org/DefinedTerm -->
<g id="edge41" class="edge">
<title>http://w3id.org/oseg/ont/okhimg#tagGray&#45;&gt;http://schema.org/DefinedTerm</title>
<path fill="none" stroke="black" d="M844.34,-233.48C806.3,-280.69 695.95,-417.64 650.81,-473.67"/>
<polygon fill="black" stroke="black" points="647.94,-471.65 644.39,-481.63 653.39,-476.04 647.94,-471.65"/>
<text text-anchor="middle" x="743.08" y="-357.37" font-family="Times,serif" font-size="14.00">a</text>
</g>
<!-- http://w3id.org/oseg/ont/okhimg#slotSymbol -->
<g id="node36" class="node">
<title>http://w3id.org/oseg/ont/okhimg#slotSymbol</title>
<ellipse fill="none" stroke="#e377c2" cx="360.6" cy="-762.83" rx="108.38" ry="16.03"/>
<text text-anchor="middle" x="360.6" y="-759.13" font-family="Times,serif" font-size="14.00">okhimg:slotSymbol</text>
</g>
<!-- http://w3id.org/oseg/ont/okhimg#slotSymbol&#45;&gt;http://schema.org/DefinedTerm -->
<g id="edge43" class="edge">
<title>http://w3id.org/oseg/ont/okhimg#slotSymbol&#45;&gt;http://schema.org/DefinedTerm</title>
<path fill="none" stroke="black" d="M377.12,-746.66C423.17,-701.6 553.11,-574.43 607.16,-521.53"/>
<polygon fill="black" stroke="black" points="609.86,-523.78 614.56,-514.28 604.97,-518.77 609.86,-523.78"/>
<text text-anchor="middle" x="487.64" y="-637.9" font-family="Times,serif" font-size="14.00">a</text>
</g>
<!-- http://w3id.org/oseg/ont/okhimg#tagBw -->
<g id="node37" class="node">
<title>http://w3id.org/oseg/ont/okhimg#tagBw</title>
<ellipse fill="none" stroke="#e377c2" cx="533.39" cy="-79.09" rx="84.29" ry="16.03"/>
<text text-anchor="middle" x="533.39" y="-75.39" font-family="Times,serif" font-size="14.00">okhimg:tagBw</text>
</g>
<!-- http://w3id.org/oseg/ont/okhimg#tagBw&#45;&gt;http://schema.org/DefinedTerm -->
<g id="edge44" class="edge">
<title>http://w3id.org/oseg/ont/okhimg#tagBw&#45;&gt;http://schema.org/DefinedTerm</title>
<path fill="none" stroke="black" d="M537.22,-95.51C552.17,-159.51 606.59,-392.58 625.04,-471.59"/>
<polygon fill="black" stroke="black" points="621.72,-472.74 627.4,-481.68 628.54,-471.15 621.72,-472.74"/>
<text text-anchor="middle" x="576.63" y="-287.35" font-family="Times,serif" font-size="14.00">a</text>
</g>
<!-- http://w3id.org/oseg/ont/okhimg#slotModelFromLeft -->
<g id="node40" class="node">
<title>http://w3id.org/oseg/ont/okhimg#slotModelFromLeft</title>
<ellipse fill="none" stroke="#e377c2" cx="1040.3" cy="-363.29" rx="116.85" ry="16.03"/>
<text text-anchor="middle" x="1040.3" y="-359.59" font-family="Times,serif" font-size="14.00">okhimg:slotModelF...</text>
</g>
<!-- http://w3id.org/oseg/ont/okhimg#slotModelFromLeft&#45;&gt;http://schema.org/DefinedTerm -->
<g id="edge47" class="edge">
<title>http://w3id.org/oseg/ont/okhimg#slotModelFromLeft&#45;&gt;http://schema.org/DefinedTerm</title>
<path fill="none" stroke="black" d="M994.57,-378.35C918.93,-403.25 768.08,-452.92 686.55,-479.76"/>
<polygon fill="black" stroke="black" points="685.37,-476.47 676.97,-482.92 687.56,-483.12 685.37,-476.47"/>
<text text-anchor="middle" x="836.06" y="-432.86" font-family="Times,serif" font-size="14.00">a</text>
</g>
<!-- http://w3id.org/oseg/ont/okhimg#slotModelFromFront -->
<g id="node41" class="node">
<title>http://w3id.org/oseg/ont/okhimg#slotModelFromFront</title>
<ellipse fill="none" stroke="#e377c2" cx="966.86" cy="-132.21" rx="116.85" ry="16.03"/>
<text text-anchor="middle" x="966.86" y="-128.51" font-family="Times,serif" font-size="14.00">okhimg:slotModelF...</text>
</g>
<!-- http://w3id.org/oseg/ont/okhimg#slotModelFromFront&#45;&gt;http://schema.org/DefinedTerm -->
<g id="edge48" class="edge">
<title>http://w3id.org/oseg/ont/okhimg#slotModelFromFront&#45;&gt;http://schema.org/DefinedTerm</title>
<path fill="none" stroke="black" d="M952,-148.4C898.62,-206.58 716.31,-405.25 653.04,-474.19"/>
<polygon fill="black" stroke="black" points="650.46,-471.84 646.27,-481.57 655.61,-476.57 650.46,-471.84"/>
<text text-anchor="middle" x="798.02" y="-315.1" font-family="Times,serif" font-size="14.00">a</text>
</g>
<!-- http://w3id.org/oseg/ont/okhimg#tagPhoto -->
<g id="node42" class="node">
<title>http://w3id.org/oseg/ont/okhimg#tagPhoto</title>
<ellipse fill="none" stroke="#e377c2" cx="714.85" cy="-119.67" rx="97.66" ry="16.03"/>
<text text-anchor="middle" x="714.85" y="-115.97" font-family="Times,serif" font-size="14.00">okhimg:tagPhoto</text>
</g>
<!-- http://w3id.org/oseg/ont/okhimg#tagPhoto&#45;&gt;http://schema.org/DefinedTerm -->
<g id="edge49" class="edge">
<title>http://w3id.org/oseg/ont/okhimg#tagPhoto&#45;&gt;http://schema.org/DefinedTerm</title>
<path fill="none" stroke="black" d="M711.26,-135.92C698.2,-194.97 653.22,-398.44 637.05,-471.56"/>
<polygon fill="black" stroke="black" points="633.63,-470.85 634.88,-481.37 640.46,-472.36 633.63,-470.85"/>
<text text-anchor="middle" x="669.65" y="-307.54" font-family="Times,serif" font-size="14.00">a</text>
</g>
</g>
</svg>
