<?xml version="1.0" encoding="UTF-8" standalone="no"?>
<!DOCTYPE svg PUBLIC "-//W3C//DTD SVG 1.1//EN"
 "http://www.w3.org/Graphics/SVG/1.1/DTD/svg11.dtd">
<!-- Generated by graphviz version 2.43.0 (0)
 -->
<!-- Title: G Pages: 1 -->
<svg width="1722pt" height="1151pt"
 viewBox="0.00 0.00 1722.00 1151.00" xmlns="http://www.w3.org/2000/svg" xmlns:xlink="http://www.w3.org/1999/xlink">
<g id="graph0" class="graph" transform="scale(1 1) rotate(0) translate(4 1147)">
<title>G</title>
<polygon fill="white" stroke="transparent" points="-4,4 -4,-1147 1718,-1147 1718,4 -4,4"/>
<!-- http://www.w3.org/2004/02/skos/core#Concept -->
<g id="node1" class="node">
<title>http://www.w3.org/2004/02/skos/core#Concept</title>
<ellipse fill="none" stroke="#1f77b4" cx="662.56" cy="-336.1" rx="78.48" ry="16.03"/>
<text text-anchor="middle" x="662.56" y="-332.4" font-family="Times,serif" font-size="14.00">skos:Concept</text>
</g>
<!-- http://www.w3.org/2004/02/skos/core#Collection -->
<g id="node2" class="node">
<title>http://www.w3.org/2004/02/skos/core#Collection</title>
<ellipse fill="none" stroke="#e377c2" cx="1301.25" cy="-557.81" rx="87.86" ry="16.03"/>
<text text-anchor="middle" x="1301.25" y="-554.11" font-family="Times,serif" font-size="14.00">skos:Collection</text>
</g>
<!-- http://w3id.org/oseg/ont/okhmeta#Tag -->
<g id="node3" class="node">
<title>http://w3id.org/oseg/ont/okhmeta#Tag</title>
<ellipse fill="none" stroke="#e377c2" cx="905.14" cy="-588.61" rx="76.24" ry="16.03"/>
<text text-anchor="middle" x="905.14" y="-584.91" font-family="Times,serif" font-size="14.00">okhmeta:Tag</text>
</g>
<!-- http://w3id.org/oseg/ont/okhmeta#Tag&#45;&gt;http://www.w3.org/2004/02/skos/core#Concept -->
<g id="edge7" class="edge">
<title>http://w3id.org/oseg/ont/okhmeta#Tag&#45;&gt;http://www.w3.org/2004/02/skos/core#Concept</title>
<path fill="none" stroke="black" d="M889.59,-572.43C847.92,-529.05 733.56,-410.01 684.93,-359.39"/>
<polygon fill="black" stroke="black" points="687.43,-356.94 677.97,-352.15 682.38,-361.79 687.43,-356.94"/>
<text text-anchor="middle" x="782.76" y="-469.71" font-family="Times,serif" font-size="14.00">a</text>
</g>
<!-- http://w3id.org/oseg/ont/okhmeta#Tag&#45;&gt;http://www.w3.org/2004/02/skos/core#Collection -->
<g id="edge34" class="edge">
<title>http://w3id.org/oseg/ont/okhmeta#Tag&#45;&gt;http://www.w3.org/2004/02/skos/core#Collection</title>
<path fill="none" stroke="black" d="M977.33,-583C1042.73,-577.91 1139.4,-570.4 1210.11,-564.9"/>
<polygon fill="black" stroke="black" points="1210.65,-568.37 1220.35,-564.1 1210.11,-561.39 1210.65,-568.37"/>
</g>
<!-- http://w3id.org/oseg/ont/okhmeta#MetaTag -->
<g id="node6" class="node">
<title>http://w3id.org/oseg/ont/okhmeta#MetaTag</title>
<ellipse fill="none" stroke="#e377c2" cx="800.5" cy="-548.01" rx="102.56" ry="16.03"/>
<text text-anchor="middle" x="800.5" y="-544.31" font-family="Times,serif" font-size="14.00">okhmeta:MetaTag</text>
</g>
<!-- http://w3id.org/oseg/ont/okhmeta#Tag&#45;&gt;http://w3id.org/oseg/ont/okhmeta#MetaTag -->
<g id="edge30" class="edge">
<title>http://w3id.org/oseg/ont/okhmeta#Tag&#45;&gt;http://w3id.org/oseg/ont/okhmeta#MetaTag</title>
<path fill="none" stroke="black" d="M881.41,-573.06C876.22,-570.65 870.5,-568.16 864.55,-565.73"/>
<polygon fill="black" stroke="black" points="865.68,-562.41 855.09,-561.95 863.08,-568.91 865.68,-562.41"/>
<text text-anchor="middle" x="949.98" y="-558.19" font-family="Times,serif" font-size="14.00">okhmeta:hasMetaTag</text>
</g>
<!-- http://spdx.org/rdf/terms#SpdxItem -->
<g id="node4" class="node">
<title>http://spdx.org/rdf/terms#SpdxItem</title>
<ellipse fill="none" stroke="#1f77b4" cx="1251.23" cy="-1127.14" rx="87.86" ry="16.03"/>
<text text-anchor="middle" x="1251.23" y="-1123.44" font-family="Times,serif" font-size="14.00">spdx:SpdxItem</text>
</g>
<!-- http://spdx.org/licenses/GPL&#45;3.0&#45;or&#45;later -->
<g id="node5" class="node">
<title>http://spdx.org/licenses/GPL&#45;3.0&#45;or&#45;later</title>
<ellipse fill="none" stroke="#e377c2" cx="1523.63" cy="-953.93" rx="108.79" ry="16.03"/>
<text text-anchor="middle" x="1523.63" y="-950.23" font-family="Times,serif" font-size="14.00">spdxl:GPL&#45;3.0&#45;or&#45;...</text>
</g>
<!-- http://w3id.org/oseg/ont/okhmeta#MetaTag&#45;&gt;http://w3id.org/oseg/ont/okhmeta#Tag -->
<g id="edge39" class="edge">
<title>http://w3id.org/oseg/ont/okhmeta#MetaTag&#45;&gt;http://w3id.org/oseg/ont/okhmeta#Tag</title>
<path fill="none" stroke="black" d="M825.02,-563.93C831.19,-566.77 838.1,-569.72 845.19,-572.56"/>
<polygon fill="black" stroke="black" points="844.34,-575.98 854.93,-576.34 846.88,-569.46 844.34,-575.98"/>
<text text-anchor="middle" x="830.6" y="-572.04" font-family="Times,serif" font-size="14.00">a</text>
</g>
<!-- http://w3id.org/oseg/ont/okhmeta#MetaTag&#45;&gt;http://w3id.org/oseg/ont/okhmeta#MetaTag -->
<g id="edge12" class="edge">
<title>http://w3id.org/oseg/ont/okhmeta#MetaTag&#45;&gt;http://w3id.org/oseg/ont/okhmeta#MetaTag</title>
<path fill="none" stroke="black" d="M895.49,-554.23C910.66,-553.32 921.03,-551.25 921.03,-548.01 921.03,-545.56 915.07,-543.78 905.59,-542.66"/>
<polygon fill="black" stroke="black" points="905.76,-539.16 895.49,-541.79 905.16,-546.14 905.76,-539.16"/>
<text text-anchor="middle" x="998.03" y="-544.31" font-family="Times,serif" font-size="14.00">okhmeta:hasMetaTag</text>
</g>
<!-- http://w3id.org/oseg/ont/okhmeta#hasMetaTag -->
<g id="node7" class="node">
<title>http://w3id.org/oseg/ont/okhmeta#hasMetaTag</title>
<ellipse fill="none" stroke="#e377c2" cx="398.08" cy="-243.75" rx="120.42" ry="16.03"/>
<text text-anchor="middle" x="398.08" y="-240.05" font-family="Times,serif" font-size="14.00">okhmeta:hasMetaTag</text>
</g>
<!-- http://w3id.org/oseg/ont/okhmeta#hasMetaTag&#45;&gt;http://www.w3.org/2004/02/skos/core#Concept -->
<g id="edge26" class="edge">
<title>http://w3id.org/oseg/ont/okhmeta#hasMetaTag&#45;&gt;http://www.w3.org/2004/02/skos/core#Concept</title>
<path fill="none" stroke="black" d="M441.75,-259C488.79,-275.43 563.51,-301.52 612.79,-318.73"/>
<polygon fill="black" stroke="black" points="611.7,-322.05 622.29,-322.04 614,-315.44 611.7,-322.05"/>
<text text-anchor="middle" x="522.77" y="-292.66" font-family="Times,serif" font-size="14.00">a</text>
</g>
<!-- http://w3id.org/oseg/ont/okhmeta#hasMetaTag&#45;&gt;http://w3id.org/oseg/ont/okhmeta#MetaTag -->
<g id="edge27" class="edge">
<title>http://w3id.org/oseg/ont/okhmeta#hasMetaTag&#45;&gt;http://w3id.org/oseg/ont/okhmeta#MetaTag</title>
<path fill="none" stroke="black" d="M414.59,-260.04C474.68,-311.29 682.03,-468.43 765.42,-526.38"/>
<polygon fill="black" stroke="black" points="763.58,-529.36 773.8,-532.15 767.55,-523.59 763.58,-529.36"/>
<text text-anchor="middle" x="513.01" y="-397.01" font-family="Times,serif" font-size="14.00">okhmeta:hasMetaTag</text>
</g>
<!-- http://w3id.org/oseg/ont/okhmeta#hasMetaTag&#45;&gt;http://w3id.org/oseg/ont/okhmeta#MetaTag -->
<g id="edge32" class="edge">
<title>http://w3id.org/oseg/ont/okhmeta#hasMetaTag&#45;&gt;http://w3id.org/oseg/ont/okhmeta#MetaTag</title>
<path fill="none" stroke="black" d="M425.04,-259.79C499.12,-310.36 704.69,-465.74 775.9,-524.92"/>
<polygon fill="black" stroke="black" points="773.99,-527.89 783.9,-531.64 778.5,-522.53 773.99,-527.89"/>
<text text-anchor="middle" x="527.97" y="-381.15" font-family="Times,serif" font-size="14.00">dcam:rangeIncludes</text>
</g>
<!-- http://www.w3.org/2004/02/skos/core#member -->
<g id="node16" class="node">
<title>http://www.w3.org/2004/02/skos/core#member</title>
<ellipse fill="none" stroke="#e377c2" cx="79.36" cy="-16.75" rx="79.39" ry="16.03"/>
<text text-anchor="middle" x="79.36" y="-13.05" font-family="Times,serif" font-size="14.00">skos:member</text>
</g>
<!-- http://w3id.org/oseg/ont/okhmeta#hasMetaTag&#45;&gt;http://www.w3.org/2004/02/skos/core#member -->
<g id="edge13" class="edge">
<title>http://w3id.org/oseg/ont/okhmeta#hasMetaTag&#45;&gt;http://www.w3.org/2004/02/skos/core#member</title>
<path fill="none" stroke="black" d="M375.41,-227.61C319.32,-187.66 173.94,-84.11 110.14,-38.68"/>
<polygon fill="black" stroke="black" points="111.87,-35.61 101.7,-32.66 107.81,-41.31 111.87,-35.61"/>
<text text-anchor="middle" x="189.78" y="-136.94" font-family="Times,serif" font-size="14.00">subPropertyOf</text>
</g>
<!-- http://w3id.org/oseg/ont/okhmeta#PhysicalTag -->
<g id="node8" class="node">
<title>http://w3id.org/oseg/ont/okhmeta#PhysicalTag</title>
<ellipse fill="none" stroke="#e377c2" cx="1095.09" cy="-861.06" rx="118.17" ry="16.03"/>
<text text-anchor="middle" x="1095.09" y="-857.36" font-family="Times,serif" font-size="14.00">okhmeta:PhysicalTag</text>
</g>
<!-- http://w3id.org/oseg/ont/okhmeta#PhysicalTag&#45;&gt;http://w3id.org/oseg/ont/okhmeta#Tag -->
<g id="edge28" class="edge">
<title>http://w3id.org/oseg/ont/okhmeta#PhysicalTag&#45;&gt;http://w3id.org/oseg/ont/okhmeta#Tag</title>
<path fill="none" stroke="black" d="M1083.78,-844.83C1051.77,-798.93 960.45,-667.94 922.26,-613.16"/>
<polygon fill="black" stroke="black" points="924.98,-610.95 916.39,-604.75 919.24,-614.96 924.98,-610.95"/>
<text text-anchor="middle" x="998.52" y="-732.8" font-family="Times,serif" font-size="14.00">a</text>
</g>
<!-- http://w3id.org/oseg/ont/okhmeta#PhysicalTag&#45;&gt;http://w3id.org/oseg/ont/okhmeta#MetaTag -->
<g id="edge25" class="edge">
<title>http://w3id.org/oseg/ont/okhmeta#PhysicalTag&#45;&gt;http://w3id.org/oseg/ont/okhmeta#MetaTag</title>
<path fill="none" stroke="black" d="M1079.67,-844.67C1030.95,-792.89 880.2,-632.7 822.91,-571.82"/>
<polygon fill="black" stroke="black" points="825.18,-569.12 815.77,-564.24 820.08,-573.92 825.18,-569.12"/>
<text text-anchor="middle" x="874.29" y="-712.04" font-family="Times,serif" font-size="14.00">okhmeta:hasMetaTag</text>
</g>
<!-- http://w3id.org/oseg/ont/okhmeta#LegalTag -->
<g id="node9" class="node">
<title>http://w3id.org/oseg/ont/okhmeta#LegalTag</title>
<ellipse fill="none" stroke="#e377c2" cx="573.27" cy="-724" rx="103.89" ry="16.03"/>
<text text-anchor="middle" x="573.27" y="-720.3" font-family="Times,serif" font-size="14.00">okhmeta:LegalTag</text>
</g>
<!-- http://w3id.org/oseg/ont/okhmeta#LegalTag&#45;&gt;http://w3id.org/oseg/ont/okhmeta#Tag -->
<g id="edge29" class="edge">
<title>http://w3id.org/oseg/ont/okhmeta#LegalTag&#45;&gt;http://w3id.org/oseg/ont/okhmeta#Tag</title>
<path fill="none" stroke="black" d="M610.69,-708.73C672.09,-683.68 793.97,-633.96 860.03,-607.01"/>
<polygon fill="black" stroke="black" points="861.42,-610.22 869.36,-603.2 858.78,-603.74 861.42,-610.22"/>
<text text-anchor="middle" x="730.86" y="-661.67" font-family="Times,serif" font-size="14.00">a</text>
</g>
<!-- http://w3id.org/oseg/ont/okhmeta#LegalTag&#45;&gt;http://w3id.org/oseg/ont/okhmeta#MetaTag -->
<g id="edge37" class="edge">
<title>http://w3id.org/oseg/ont/okhmeta#LegalTag&#45;&gt;http://w3id.org/oseg/ont/okhmeta#MetaTag</title>
<path fill="none" stroke="black" d="M594.24,-707.76C635.1,-676.11 725.41,-606.17 771.78,-570.25"/>
<polygon fill="black" stroke="black" points="774.15,-572.85 779.91,-563.96 769.86,-567.31 774.15,-572.85"/>
<text text-anchor="middle" x="606.01" y="-642.8" font-family="Times,serif" font-size="14.00">okhmeta:hasMetaTag</text>
</g>
<!-- http://w3id.org/oseg/ont/okhmeta#TransportationTag -->
<g id="node10" class="node">
<title>http://w3id.org/oseg/ont/okhmeta#TransportationTag</title>
<ellipse fill="none" stroke="#e377c2" cx="896.42" cy="-204.85" rx="118.17" ry="16.03"/>
<text text-anchor="middle" x="896.42" y="-201.15" font-family="Times,serif" font-size="14.00">okhmeta:Transport...</text>
</g>
<!-- http://w3id.org/oseg/ont/okhmeta#TransportationTag&#45;&gt;http://w3id.org/oseg/ont/okhmeta#Tag -->
<g id="edge5" class="edge">
<title>http://w3id.org/oseg/ont/okhmeta#TransportationTag&#45;&gt;http://w3id.org/oseg/ont/okhmeta#Tag</title>
<path fill="none" stroke="black" d="M896.79,-221.34C898.15,-281.25 902.85,-487.72 904.53,-561.85"/>
<polygon fill="black" stroke="black" points="901.04,-562.26 904.76,-572.18 908.04,-562.1 901.04,-562.26"/>
<text text-anchor="middle" x="896.16" y="-395.39" font-family="Times,serif" font-size="14.00">a</text>
</g>
<!-- http://w3id.org/oseg/ont/okhmeta#TransportationTag&#45;&gt;http://w3id.org/oseg/ont/okhmeta#MetaTag -->
<g id="edge17" class="edge">
<title>http://w3id.org/oseg/ont/okhmeta#TransportationTag&#45;&gt;http://w3id.org/oseg/ont/okhmeta#MetaTag</title>
<path fill="none" stroke="black" d="M891.79,-221.4C876.38,-276.56 826.67,-454.4 807.83,-521.79"/>
<polygon fill="black" stroke="black" points="804.4,-521.05 805.08,-531.63 811.15,-522.94 804.4,-521.05"/>
<text text-anchor="middle" x="772.81" y="-375.4" font-family="Times,serif" font-size="14.00">okhmeta:hasMetaTag</text>
</g>
<!-- http://id.loc.gov/vocabulary/iso639&#45;1/en -->
<g id="node11" class="node">
<title>http://id.loc.gov/vocabulary/iso639&#45;1/en</title>
<ellipse fill="none" stroke="#e377c2" cx="1342.12" cy="-942.92" rx="45.01" ry="16.03"/>
<text text-anchor="middle" x="1342.12" y="-939.22" font-family="Times,serif" font-size="14.00">ns1:en</text>
</g>
<!-- http://w3id.org/oseg/ont/okhmeta#AcademicTag -->
<g id="node12" class="node">
<title>http://w3id.org/oseg/ont/okhmeta#AcademicTag</title>
<ellipse fill="none" stroke="#e377c2" cx="491.21" cy="-613.39" rx="124.4" ry="16.03"/>
<text text-anchor="middle" x="491.21" y="-609.69" font-family="Times,serif" font-size="14.00">okhmeta:AcademicTag</text>
</g>
<!-- http://w3id.org/oseg/ont/okhmeta#AcademicTag&#45;&gt;http://w3id.org/oseg/ont/okhmeta#Tag -->
<g id="edge9" class="edge">
<title>http://w3id.org/oseg/ont/okhmeta#AcademicTag&#45;&gt;http://w3id.org/oseg/ont/okhmeta#Tag</title>
<path fill="none" stroke="black" d="M604.59,-606.6C673.07,-602.5 758.85,-597.37 821.22,-593.63"/>
<polygon fill="black" stroke="black" points="821.64,-597.11 831.41,-593.02 821.22,-590.13 821.64,-597.11"/>
<text text-anchor="middle" x="708.41" y="-603.92" font-family="Times,serif" font-size="14.00">a</text>
</g>
<!-- http://w3id.org/oseg/ont/okhmeta#AcademicTag&#45;&gt;http://w3id.org/oseg/ont/okhmeta#MetaTag -->
<g id="edge19" class="edge">
<title>http://w3id.org/oseg/ont/okhmeta#AcademicTag&#45;&gt;http://w3id.org/oseg/ont/okhmeta#MetaTag</title>
<path fill="none" stroke="black" d="M556.81,-599.52C607.36,-588.84 677.19,-574.08 729.14,-563.1"/>
<polygon fill="black" stroke="black" points="729.89,-566.51 738.95,-561.02 728.44,-559.67 729.89,-566.51"/>
<text text-anchor="middle" x="565.97" y="-585.11" font-family="Times,serif" font-size="14.00">okhmeta:hasMetaTag</text>
</g>
<!-- http://w3id.org/oseg/ont/okhmeta#DevelopmentTag -->
<g id="node13" class="node">
<title>http://w3id.org/oseg/ont/okhmeta#DevelopmentTag</title>
<ellipse fill="none" stroke="#e377c2" cx="596.64" cy="-849.81" rx="124.4" ry="16.03"/>
<text text-anchor="middle" x="596.64" y="-846.11" font-family="Times,serif" font-size="14.00">okhmeta:Developme...</text>
</g>
<!-- http://w3id.org/oseg/ont/okhmeta#DevelopmentTag&#45;&gt;http://w3id.org/oseg/ont/okhmeta#Tag -->
<g id="edge33" class="edge">
<title>http://w3id.org/oseg/ont/okhmeta#DevelopmentTag&#45;&gt;http://w3id.org/oseg/ont/okhmeta#Tag</title>
<path fill="none" stroke="black" d="M615.94,-833.47C669.09,-788.47 817.68,-662.66 878.58,-611.09"/>
<polygon fill="black" stroke="black" points="880.87,-613.74 886.24,-604.61 876.35,-608.4 880.87,-613.74"/>
<text text-anchor="middle" x="742.76" y="-726.08" font-family="Times,serif" font-size="14.00">a</text>
</g>
<!-- http://w3id.org/oseg/ont/okhmeta#DevelopmentTag&#45;&gt;http://w3id.org/oseg/ont/okhmeta#MetaTag -->
<g id="edge43" class="edge">
<title>http://w3id.org/oseg/ont/okhmeta#DevelopmentTag&#45;&gt;http://w3id.org/oseg/ont/okhmeta#MetaTag</title>
<path fill="none" stroke="black" d="M607.6,-833.58C641.27,-783.74 743.35,-632.62 783.77,-572.78"/>
<polygon fill="black" stroke="black" points="786.79,-574.56 789.49,-564.32 780.99,-570.64 786.79,-574.56"/>
<text text-anchor="middle" x="618.68" y="-691.98" font-family="Times,serif" font-size="14.00">okhmeta:hasMetaTag</text>
</g>
<!-- http://w3id.org/oseg/ont/oseg&#45;profiles#robinVobruba -->
<g id="node14" class="node">
<title>http://w3id.org/oseg/ont/oseg&#45;profiles#robinVobruba</title>
<ellipse fill="none" stroke="#e377c2" cx="1417.68" cy="-1035.6" rx="113.69" ry="16.03"/>
<text text-anchor="middle" x="1417.68" y="-1031.9" font-family="Times,serif" font-size="14.00">osegprof:robinVob...</text>
</g>
<!-- http://w3id.org/oseg/ont/okhmeta#DocumentationTag -->
<g id="node15" class="node">
<title>http://w3id.org/oseg/ont/okhmeta#DocumentationTag</title>
<ellipse fill="none" stroke="#e377c2" cx="1062.24" cy="-246.07" rx="125.32" ry="16.03"/>
<text text-anchor="middle" x="1062.24" y="-242.37" font-family="Times,serif" font-size="14.00">okhmeta:Documenta...</text>
</g>
<!-- http://w3id.org/oseg/ont/okhmeta#DocumentationTag&#45;&gt;http://w3id.org/oseg/ont/okhmeta#Tag -->
<g id="edge11" class="edge">
<title>http://w3id.org/oseg/ont/okhmeta#DocumentationTag&#45;&gt;http://w3id.org/oseg/ont/okhmeta#Tag</title>
<path fill="none" stroke="black" d="M1054.66,-262.59C1029.36,-317.76 947.66,-495.9 916.95,-562.85"/>
<polygon fill="black" stroke="black" points="913.63,-561.7 912.64,-572.25 919.99,-564.62 913.63,-561.7"/>
<text text-anchor="middle" x="981.3" y="-416.52" font-family="Times,serif" font-size="14.00">a</text>
</g>
<!-- http://w3id.org/oseg/ont/okhmeta#DocumentationTag&#45;&gt;http://w3id.org/oseg/ont/okhmeta#MetaTag -->
<g id="edge22" class="edge">
<title>http://w3id.org/oseg/ont/okhmeta#DocumentationTag&#45;&gt;http://w3id.org/oseg/ont/okhmeta#MetaTag</title>
<path fill="none" stroke="black" d="M1048.16,-262.3C1004.76,-312.37 872.8,-464.61 821.35,-523.96"/>
<polygon fill="black" stroke="black" points="818.55,-521.85 814.64,-531.7 823.84,-526.43 818.55,-521.85"/>
<text text-anchor="middle" x="1011.76" y="-396.93" font-family="Times,serif" font-size="14.00">okhmeta:hasMetaTag</text>
</g>
<!-- http://w3id.org/oseg/ont/okhmeta#HistoryTag -->
<g id="node17" class="node">
<title>http://w3id.org/oseg/ont/okhmeta#HistoryTag</title>
<ellipse fill="none" stroke="#e377c2" cx="1125.64" cy="-338.82" rx="113.69" ry="16.03"/>
<text text-anchor="middle" x="1125.64" y="-335.12" font-family="Times,serif" font-size="14.00">okhmeta:HistoryTag</text>
</g>
<!-- http://w3id.org/oseg/ont/okhmeta#HistoryTag&#45;&gt;http://w3id.org/oseg/ont/okhmeta#Tag -->
<g id="edge35" class="edge">
<title>http://w3id.org/oseg/ont/okhmeta#HistoryTag&#45;&gt;http://w3id.org/oseg/ont/okhmeta#Tag</title>
<path fill="none" stroke="black" d="M1111.17,-355.21C1073.23,-398.19 970.75,-514.28 926.24,-564.7"/>
<polygon fill="black" stroke="black" points="923.37,-562.67 919.37,-572.48 928.61,-567.3 923.37,-562.67"/>
<text text-anchor="middle" x="1014.21" y="-463.75" font-family="Times,serif" font-size="14.00">a</text>
</g>
<!-- http://w3id.org/oseg/ont/okhmeta#HistoryTag&#45;&gt;http://w3id.org/oseg/ont/okhmeta#MetaTag -->
<g id="edge45" class="edge">
<title>http://w3id.org/oseg/ont/okhmeta#HistoryTag&#45;&gt;http://w3id.org/oseg/ont/okhmeta#MetaTag</title>
<path fill="none" stroke="black" d="M1100.93,-354.72C1043.18,-391.87 899.32,-484.43 833.87,-526.54"/>
<polygon fill="black" stroke="black" points="831.69,-523.79 825.17,-532.14 835.47,-529.67 831.69,-523.79"/>
<text text-anchor="middle" x="890.4" y="-444.43" font-family="Times,serif" font-size="14.00">okhmeta:hasMetaTag</text>
</g>
<!-- http://w3id.org/oseg/ont/okhmeta -->
<g id="node18" class="node">
<title>http://w3id.org/oseg/ont/okhmeta</title>
<ellipse fill="none" stroke="#e377c2" cx="1438.9" cy="-994.82" rx="76.24" ry="16.03"/>
<text text-anchor="middle" x="1438.9" y="-991.12" font-family="Times,serif" font-size="14.00">ns2:okhmeta</text>
</g>
<!-- http://w3id.org/oseg/ont/okhmeta&#45;&gt;http://spdx.org/rdf/terms#SpdxItem -->
<g id="edge14" class="edge">
<title>http://w3id.org/oseg/ont/okhmeta&#45;&gt;http://spdx.org/rdf/terms#SpdxItem</title>
<path fill="none" stroke="black" d="M1416.64,-1010.52C1383.29,-1034.04 1320.25,-1078.48 1282.36,-1105.2"/>
<polygon fill="black" stroke="black" points="1279.92,-1102.64 1273.76,-1111.26 1283.95,-1108.36 1279.92,-1102.64"/>
<text text-anchor="middle" x="1345" y="-1061.66" font-family="Times,serif" font-size="14.00">a</text>
</g>
<!-- http://w3id.org/oseg/ont/okhmeta&#45;&gt;http://spdx.org/licenses/GPL&#45;3.0&#45;or&#45;later -->
<g id="edge1" class="edge">
<title>http://w3id.org/oseg/ont/okhmeta&#45;&gt;http://spdx.org/licenses/GPL&#45;3.0&#45;or&#45;later</title>
<path fill="none" stroke="black" d="M1469.97,-979.83C1474.01,-977.88 1478.2,-975.86 1482.38,-973.84"/>
<polygon fill="black" stroke="black" points="1483.95,-976.97 1491.43,-969.47 1480.9,-970.67 1483.95,-976.97"/>
<text text-anchor="middle" x="1552.18" y="-980.64" font-family="Times,serif" font-size="14.00">spdx:licenseDeclared</text>
</g>
<!-- http://w3id.org/oseg/ont/okhmeta&#45;&gt;http://id.loc.gov/vocabulary/iso639&#45;1/en -->
<g id="edge6" class="edge">
<title>http://w3id.org/oseg/ont/okhmeta&#45;&gt;http://id.loc.gov/vocabulary/iso639&#45;1/en</title>
<path fill="none" stroke="black" d="M1410.65,-979.67C1400.01,-973.97 1387.8,-967.42 1376.65,-961.44"/>
<polygon fill="black" stroke="black" points="1378.07,-958.23 1367.6,-956.59 1374.76,-964.4 1378.07,-958.23"/>
<text text-anchor="middle" x="1329.15" y="-974.36" font-family="Times,serif" font-size="14.00">dcterms:language</text>
</g>
<!-- http://w3id.org/oseg/ont/okhmeta&#45;&gt;http://w3id.org/oseg/ont/oseg&#45;profiles#robinVobruba -->
<g id="edge10" class="edge">
<title>http://w3id.org/oseg/ont/okhmeta&#45;&gt;http://w3id.org/oseg/ont/oseg&#45;profiles#robinVobruba</title>
<path fill="none" stroke="black" d="M1422.81,-1011.14C1422.72,-1011.3 1422.64,-1011.47 1422.55,-1011.63"/>
<polygon fill="black" stroke="black" points="1420.14,-1008.52 1419.07,-1019.06 1426.48,-1011.49 1420.14,-1008.52"/>
<text text-anchor="middle" x="1478.18" y="-1015.19" font-family="Times,serif" font-size="14.00">schema:creator</text>
</g>
<!-- http://w3id.org/oseg/ont/okhmeta&#45;&gt;http://w3id.org/oseg/ont/oseg&#45;profiles#robinVobruba -->
<g id="edge18" class="edge">
<title>http://w3id.org/oseg/ont/okhmeta&#45;&gt;http://w3id.org/oseg/ont/oseg&#45;profiles#robinVobruba</title>
<path fill="none" stroke="black" d="M1437.61,-1011.12C1437.58,-1011.21 1437.55,-1011.29 1437.51,-1011.38"/>
<polygon fill="black" stroke="black" points="1434.82,-1008.88 1433.71,-1019.41 1441.15,-1011.87 1434.82,-1008.88"/>
<text text-anchor="middle" x="1380.06" y="-1015.05" font-family="Times,serif" font-size="14.00">dcterms:creator</text>
</g>
<!-- http://w3id.org/oseg/ont/oseg&#45;profiles#Iopa -->
<g id="node21" class="node">
<title>http://w3id.org/oseg/ont/oseg&#45;profiles#Iopa</title>
<ellipse fill="none" stroke="#e377c2" cx="1633.2" cy="-1100.42" rx="80.72" ry="16.03"/>
<text text-anchor="middle" x="1633.2" y="-1096.72" font-family="Times,serif" font-size="14.00">osegprof:Iopa</text>
</g>
<!-- http://w3id.org/oseg/ont/okhmeta&#45;&gt;http://w3id.org/oseg/ont/oseg&#45;profiles#Iopa -->
<g id="edge20" class="edge">
<title>http://w3id.org/oseg/ont/okhmeta&#45;&gt;http://w3id.org/oseg/ont/oseg&#45;profiles#Iopa</title>
<path fill="none" stroke="black" d="M1467.16,-1010.18C1501.12,-1028.63 1558.22,-1059.67 1595.8,-1080.1"/>
<polygon fill="black" stroke="black" points="1594.46,-1083.35 1604.91,-1085.05 1597.8,-1077.2 1594.46,-1083.35"/>
<text text-anchor="middle" x="1596.98" y="-1048.94" font-family="Times,serif" font-size="14.00">dcterms:publisher</text>
</g>
<!-- http://w3id.org/oseg/ont/1.1.0/okh&#45;meta -->
<g id="node26" class="node">
<title>http://w3id.org/oseg/ont/1.1.0/okh&#45;meta</title>
<ellipse fill="none" stroke="#e377c2" cx="1344.38" cy="-792.2" rx="79.81" ry="16.03"/>
<text text-anchor="middle" x="1344.38" y="-788.5" font-family="Times,serif" font-size="14.00">ns3:okh&#45;meta</text>
</g>
<!-- http://w3id.org/oseg/ont/okhmeta&#45;&gt;http://w3id.org/oseg/ont/1.1.0/okh&#45;meta -->
<g id="edge44" class="edge">
<title>http://w3id.org/oseg/ont/okhmeta&#45;&gt;http://w3id.org/oseg/ont/1.1.0/okh&#45;meta</title>
<path fill="none" stroke="black" d="M1431.33,-978.59C1414.91,-943.39 1375.93,-859.84 1356.23,-817.59"/>
<polygon fill="black" stroke="black" points="1359.39,-816.1 1351.99,-808.52 1353.05,-819.06 1359.39,-816.1"/>
<text text-anchor="middle" x="1342.28" y="-901.89" font-family="Times,serif" font-size="14.00">owl:versionIRI</text>
</g>
<!-- http://w3id.org/oseg/ont/okhmeta#DataGatheringTag -->
<g id="node19" class="node">
<title>http://w3id.org/oseg/ont/okhmeta#DataGatheringTag</title>
<ellipse fill="none" stroke="#e377c2" cx="1202.1" cy="-649.89" rx="122.16" ry="16.03"/>
<text text-anchor="middle" x="1202.1" y="-646.19" font-family="Times,serif" font-size="14.00">okhmeta:DataGathe...</text>
</g>
<!-- http://w3id.org/oseg/ont/okhmeta#DataGatheringTag&#45;&gt;http://w3id.org/oseg/ont/okhmeta#Tag -->
<g id="edge15" class="edge">
<title>http://w3id.org/oseg/ont/okhmeta#DataGatheringTag&#45;&gt;http://w3id.org/oseg/ont/okhmeta#Tag</title>
<path fill="none" stroke="black" d="M1135.82,-636.21C1086.41,-626.02 1019.25,-612.16 970.14,-602.02"/>
<polygon fill="black" stroke="black" points="970.76,-598.58 960.26,-599.98 969.35,-605.43 970.76,-598.58"/>
<text text-anchor="middle" x="1048.48" y="-622.92" font-family="Times,serif" font-size="14.00">a</text>
</g>
<!-- http://w3id.org/oseg/ont/okhmeta#DataGatheringTag&#45;&gt;http://w3id.org/oseg/ont/okhmeta#MetaTag -->
<g id="edge24" class="edge">
<title>http://w3id.org/oseg/ont/okhmeta#DataGatheringTag&#45;&gt;http://w3id.org/oseg/ont/okhmeta#MetaTag</title>
<path fill="none" stroke="black" d="M1144.98,-635.4C1071.1,-616.66 942.72,-584.09 865.28,-564.44"/>
<polygon fill="black" stroke="black" points="865.72,-560.94 855.16,-561.88 864,-567.73 865.72,-560.94"/>
<text text-anchor="middle" x="1082.13" y="-603.72" font-family="Times,serif" font-size="14.00">okhmeta:hasMetaTag</text>
</g>
<!-- http://w3id.org/oseg/ont/okhmeta#BasicTag -->
<g id="node20" class="node">
<title>http://w3id.org/oseg/ont/okhmeta#BasicTag</title>
<ellipse fill="none" stroke="#e377c2" cx="1161.48" cy="-459.28" rx="103.48" ry="16.03"/>
<text text-anchor="middle" x="1161.48" y="-455.58" font-family="Times,serif" font-size="14.00">okhmeta:BasicTag</text>
</g>
<!-- http://w3id.org/oseg/ont/okhmeta#BasicTag&#45;&gt;http://w3id.org/oseg/ont/okhmeta#Tag -->
<g id="edge36" class="edge">
<title>http://w3id.org/oseg/ont/okhmeta#BasicTag&#45;&gt;http://w3id.org/oseg/ont/okhmeta#Tag</title>
<path fill="none" stroke="black" d="M1130.56,-474.88C1083.8,-498.47 995.15,-543.2 944.06,-568.97"/>
<polygon fill="black" stroke="black" points="942.33,-565.92 934.98,-573.55 945.48,-572.17 942.33,-565.92"/>
<text text-anchor="middle" x="1032.81" y="-525.72" font-family="Times,serif" font-size="14.00">a</text>
</g>
<!-- http://w3id.org/oseg/ont/okhmeta#BasicTag&#45;&gt;http://w3id.org/oseg/ont/okhmeta#MetaTag -->
<g id="edge2" class="edge">
<title>http://w3id.org/oseg/ont/okhmeta#BasicTag&#45;&gt;http://w3id.org/oseg/ont/okhmeta#MetaTag</title>
<path fill="none" stroke="black" d="M1105.47,-473.04C1040.83,-488.94 934.64,-515.04 866.16,-531.87"/>
<polygon fill="black" stroke="black" points="865.22,-528.5 856.34,-534.28 866.89,-535.3 865.22,-528.5"/>
<text text-anchor="middle" x="908.82" y="-506.26" font-family="Times,serif" font-size="14.00">okhmeta:hasMetaTag</text>
</g>
<!-- http://w3id.org/oseg/ont/okhmeta#MakingTag -->
<g id="node22" class="node">
<title>http://w3id.org/oseg/ont/okhmeta#MakingTag</title>
<ellipse fill="none" stroke="#e377c2" cx="1142.15" cy="-763.52" rx="113.69" ry="16.03"/>
<text text-anchor="middle" x="1142.15" y="-759.82" font-family="Times,serif" font-size="14.00">okhmeta:MakingTag</text>
</g>
<!-- http://w3id.org/oseg/ont/okhmeta#MakingTag&#45;&gt;http://w3id.org/oseg/ont/okhmeta#Tag -->
<g id="edge40" class="edge">
<title>http://w3id.org/oseg/ont/okhmeta#MakingTag&#45;&gt;http://w3id.org/oseg/ont/okhmeta#Tag</title>
<path fill="none" stroke="black" d="M1120.28,-747.38C1077.58,-715.86 983.08,-646.12 934.79,-610.49"/>
<polygon fill="black" stroke="black" points="936.74,-607.58 926.62,-604.46 932.58,-613.21 936.74,-607.58"/>
<text text-anchor="middle" x="1023.04" y="-682.73" font-family="Times,serif" font-size="14.00">a</text>
</g>
<!-- http://w3id.org/oseg/ont/okhmeta#MakingTag&#45;&gt;http://w3id.org/oseg/ont/okhmeta#MetaTag -->
<g id="edge3" class="edge">
<title>http://w3id.org/oseg/ont/okhmeta#MakingTag&#45;&gt;http://w3id.org/oseg/ont/okhmeta#MetaTag</title>
<path fill="none" stroke="black" d="M1116.75,-747.49C1056.07,-709.22 902.66,-612.45 834.29,-569.32"/>
<polygon fill="black" stroke="black" points="835.93,-566.22 825.61,-563.85 832.2,-572.14 835.93,-566.22"/>
<text text-anchor="middle" x="898.52" y="-662.21" font-family="Times,serif" font-size="14.00">okhmeta:hasMetaTag</text>
</g>
<!-- http://w3id.org/oseg/ont/okhmeta#DataTag -->
<g id="node23" class="node">
<title>http://w3id.org/oseg/ont/okhmeta#DataTag</title>
<ellipse fill="none" stroke="#e377c2" cx="783.85" cy="-250.71" rx="100.32" ry="16.03"/>
<text text-anchor="middle" x="783.85" y="-247.01" font-family="Times,serif" font-size="14.00">okhmeta:DataTag</text>
</g>
<!-- http://w3id.org/oseg/ont/okhmeta#DataTag&#45;&gt;http://w3id.org/oseg/ont/okhmeta#Tag -->
<g id="edge41" class="edge">
<title>http://w3id.org/oseg/ont/okhmeta#DataTag&#45;&gt;http://w3id.org/oseg/ont/okhmeta#Tag</title>
<path fill="none" stroke="black" d="M789.7,-267.01C809.15,-321.19 871.76,-495.63 895.71,-562.33"/>
<polygon fill="black" stroke="black" points="892.53,-563.85 899.2,-572.08 899.12,-561.48 892.53,-563.85"/>
<text text-anchor="middle" x="838.2" y="-418.47" font-family="Times,serif" font-size="14.00">a</text>
</g>
<!-- http://w3id.org/oseg/ont/okhmeta#DataTag&#45;&gt;http://w3id.org/oseg/ont/okhmeta#MetaTag -->
<g id="edge4" class="edge">
<title>http://w3id.org/oseg/ont/okhmeta#DataTag&#45;&gt;http://w3id.org/oseg/ont/okhmeta#MetaTag</title>
<path fill="none" stroke="black" d="M784.77,-267.12C787.51,-316.05 795.65,-461.29 799.02,-521.45"/>
<polygon fill="black" stroke="black" points="795.53,-521.87 799.59,-531.65 802.52,-521.47 795.53,-521.87"/>
<text text-anchor="middle" x="714.89" y="-398.09" font-family="Times,serif" font-size="14.00">okhmeta:hasMetaTag</text>
</g>
<!-- http://w3id.org/oseg/ont/okhmeta#ExtendedInfoTag -->
<g id="node24" class="node">
<title>http://w3id.org/oseg/ont/okhmeta#ExtendedInfoTag</title>
<ellipse fill="none" stroke="#e377c2" cx="828.79" cy="-945.07" rx="120.42" ry="16.03"/>
<text text-anchor="middle" x="828.79" y="-941.37" font-family="Times,serif" font-size="14.00">okhmeta:ExtendedI...</text>
</g>
<!-- http://w3id.org/oseg/ont/okhmeta#ExtendedInfoTag&#45;&gt;http://w3id.org/oseg/ont/okhmeta#Tag -->
<g id="edge21" class="edge">
<title>http://w3id.org/oseg/ont/okhmeta#ExtendedInfoTag&#45;&gt;http://w3id.org/oseg/ont/okhmeta#Tag</title>
<path fill="none" stroke="black" d="M832.37,-928.35C844.57,-871.39 884.59,-684.53 899.49,-614.99"/>
<polygon fill="black" stroke="black" points="902.98,-615.39 901.65,-604.88 896.14,-613.92 902.98,-615.39"/>
<text text-anchor="middle" x="861.43" y="-775.47" font-family="Times,serif" font-size="14.00">a</text>
</g>
<!-- http://w3id.org/oseg/ont/okhmeta#ExtendedInfoTag&#45;&gt;http://w3id.org/oseg/ont/okhmeta#MetaTag -->
<g id="edge16" class="edge">
<title>http://w3id.org/oseg/ont/okhmeta#ExtendedInfoTag&#45;&gt;http://w3id.org/oseg/ont/okhmeta#MetaTag</title>
<path fill="none" stroke="black" d="M827.61,-928.51C823.22,-866.96 807.84,-650.96 802.41,-574.82"/>
<polygon fill="black" stroke="black" points="805.89,-574.36 801.69,-564.64 798.91,-574.86 805.89,-574.36"/>
<text text-anchor="middle" x="738.01" y="-755.47" font-family="Times,serif" font-size="14.00">okhmeta:hasMetaTag</text>
</g>
<!-- http://w3id.org/oseg/ont/okhmeta#PartsTag -->
<g id="node25" class="node">
<title>http://w3id.org/oseg/ont/okhmeta#PartsTag</title>
<ellipse fill="none" stroke="#e377c2" cx="935.64" cy="-901.63" rx="103.48" ry="16.03"/>
<text text-anchor="middle" x="935.64" y="-897.93" font-family="Times,serif" font-size="14.00">okhmeta:PartsTag</text>
</g>
<!-- http://w3id.org/oseg/ont/okhmeta#PartsTag&#45;&gt;http://w3id.org/oseg/ont/okhmeta#Tag -->
<g id="edge42" class="edge">
<title>http://w3id.org/oseg/ont/okhmeta#PartsTag&#45;&gt;http://w3id.org/oseg/ont/okhmeta#Tag</title>
<path fill="none" stroke="black" d="M934.05,-885.24C929.08,-834.33 913.91,-678.57 907.76,-615.52"/>
<polygon fill="black" stroke="black" points="911.21,-614.83 906.76,-605.21 904.24,-615.5 911.21,-614.83"/>
<text text-anchor="middle" x="916.4" y="-754.18" font-family="Times,serif" font-size="14.00">a</text>
</g>
<!-- http://w3id.org/oseg/ont/okhmeta#PartsTag&#45;&gt;http://w3id.org/oseg/ont/okhmeta#MetaTag -->
<g id="edge38" class="edge">
<title>http://w3id.org/oseg/ont/okhmeta#PartsTag&#45;&gt;http://w3id.org/oseg/ont/okhmeta#MetaTag</title>
<path fill="none" stroke="black" d="M929.31,-885.05C907.72,-828.55 836.9,-643.26 810.52,-574.23"/>
<polygon fill="black" stroke="black" points="813.67,-572.65 806.83,-564.56 807.13,-575.15 813.67,-572.65"/>
<text text-anchor="middle" x="792.92" y="-733.44" font-family="Times,serif" font-size="14.00">okhmeta:hasMetaTag</text>
</g>
<!-- http://w3id.org/oseg/ont/okhmeta#QualityTag -->
<g id="node27" class="node">
<title>http://w3id.org/oseg/ont/okhmeta#QualityTag</title>
<ellipse fill="none" stroke="#e377c2" cx="710.96" cy="-890.82" rx="113.27" ry="16.03"/>
<text text-anchor="middle" x="710.96" y="-887.12" font-family="Times,serif" font-size="14.00">okhmeta:QualityTag</text>
</g>
<!-- http://w3id.org/oseg/ont/okhmeta#QualityTag&#45;&gt;http://w3id.org/oseg/ont/okhmeta#Tag -->
<g id="edge23" class="edge">
<title>http://w3id.org/oseg/ont/okhmeta#QualityTag&#45;&gt;http://w3id.org/oseg/ont/okhmeta#Tag</title>
<path fill="none" stroke="black" d="M721.4,-874.58C753.47,-824.66 850.7,-673.33 889.2,-613.42"/>
<polygon fill="black" stroke="black" points="892.19,-615.24 894.65,-604.94 886.3,-611.46 892.19,-615.24"/>
<text text-anchor="middle" x="800.8" y="-747.8" font-family="Times,serif" font-size="14.00">a</text>
</g>
<!-- http://w3id.org/oseg/ont/okhmeta#QualityTag&#45;&gt;http://w3id.org/oseg/ont/okhmeta#MetaTag -->
<g id="edge31" class="edge">
<title>http://w3id.org/oseg/ont/okhmeta#QualityTag&#45;&gt;http://w3id.org/oseg/ont/okhmeta#MetaTag</title>
<path fill="none" stroke="black" d="M715.28,-874.29C729.67,-819.19 776.08,-641.53 793.66,-574.2"/>
<polygon fill="black" stroke="black" points="797.09,-574.94 796.23,-564.38 790.31,-573.17 797.09,-574.94"/>
<text text-anchor="middle" x="754.47" y="-713.05" font-family="Times,serif" font-size="14.00">okhmeta:hasMetaTag</text>
</g>
<!-- http://w3id.org/oseg/ont/okhmeta#IdentificationTag -->
<g id="node28" class="node">
<title>http://w3id.org/oseg/ont/okhmeta#IdentificationTag</title>
<ellipse fill="none" stroke="#e377c2" cx="548.44" cy="-459.95" rx="109.7" ry="16.03"/>
<text text-anchor="middle" x="548.44" y="-456.25" font-family="Times,serif" font-size="14.00">okhmeta:Identific...</text>
</g>
<!-- http://w3id.org/oseg/ont/okhmeta#IdentificationTag&#45;&gt;http://w3id.org/oseg/ont/okhmeta#Tag -->
<g id="edge46" class="edge">
<title>http://w3id.org/oseg/ont/okhmeta#IdentificationTag&#45;&gt;http://w3id.org/oseg/ont/okhmeta#Tag</title>
<path fill="none" stroke="black" d="M590.4,-475.09C656.89,-499.07 786.1,-545.67 856.52,-571.07"/>
<polygon fill="black" stroke="black" points="855.46,-574.41 866.05,-574.51 857.83,-567.83 855.46,-574.41"/>
<text text-anchor="middle" x="718.96" y="-511.88" font-family="Times,serif" font-size="14.00">a</text>
</g>
<!-- http://w3id.org/oseg/ont/okhmeta#IdentificationTag&#45;&gt;http://w3id.org/oseg/ont/okhmeta#MetaTag -->
<g id="edge8" class="edge">
<title>http://w3id.org/oseg/ont/okhmeta#IdentificationTag&#45;&gt;http://w3id.org/oseg/ont/okhmeta#MetaTag</title>
<path fill="none" stroke="black" d="M591.48,-474.99C634.93,-490.17 702.08,-513.62 748.48,-529.84"/>
<polygon fill="black" stroke="black" points="747.46,-533.19 758.06,-533.18 749.77,-526.58 747.46,-533.19"/>
<text text-anchor="middle" x="592.98" y="-506.21" font-family="Times,serif" font-size="14.00">okhmeta:hasMetaTag</text>
</g>
</g>
</svg>
