<?xml version="1.0" encoding="UTF-8" standalone="no"?>
<!DOCTYPE svg PUBLIC "-//W3C//DTD SVG 1.1//EN"
 "http://www.w3.org/Graphics/SVG/1.1/DTD/svg11.dtd">
<!-- Generated by graphviz version 2.43.0 (0)
 -->
<!-- Title: G Pages: 1 -->
<svg width="1345pt" height="1053pt"
 viewBox="0.00 0.00 1345.00 1053.00" xmlns="http://www.w3.org/2000/svg" xmlns:xlink="http://www.w3.org/1999/xlink">
<g id="graph0" class="graph" transform="scale(1 1) rotate(0) translate(4 1049)">
<title>G</title>
<polygon fill="white" stroke="transparent" points="-4,4 -4,-1049 1341,-1049 1341,4 -4,4"/>
<!-- http://w3id.org/oseg/ont/okhmeta#Tag -->
<g id="node1" class="node">
<title>http://w3id.org/oseg/ont/okhmeta#Tag</title>
<ellipse fill="none" stroke="#e377c2" cx="480.05" cy="-713.19" rx="76.24" ry="16.03"/>
<text text-anchor="middle" x="480.05" y="-709.49" font-family="Times,serif" font-size="14.00">okhmeta:Tag</text>
</g>
<!-- http://www.w3.org/2004/02/skos/core#Collection -->
<g id="node2" class="node">
<title>http://www.w3.org/2004/02/skos/core#Collection</title>
<ellipse fill="none" stroke="#e377c2" cx="486.26" cy="-1028.93" rx="87.86" ry="16.03"/>
<text text-anchor="middle" x="486.26" y="-1025.23" font-family="Times,serif" font-size="14.00">skos:Collection</text>
</g>
<!-- http://w3id.org/oseg/ont/okhmeta#Tag&#45;&gt;http://www.w3.org/2004/02/skos/core#Collection -->
<g id="edge7" class="edge">
<title>http://w3id.org/oseg/ont/okhmeta#Tag&#45;&gt;http://www.w3.org/2004/02/skos/core#Collection</title>
<path fill="none" stroke="black" d="M480.38,-729.73C481.39,-781.2 484.49,-938.92 485.74,-1002.23"/>
<polygon fill="black" stroke="black" points="482.24,-1002.64 485.94,-1012.57 489.24,-1002.5 482.24,-1002.64"/>
</g>
<!-- http://www.w3.org/2004/02/skos/core#Concept -->
<g id="node3" class="node">
<title>http://www.w3.org/2004/02/skos/core#Concept</title>
<ellipse fill="none" stroke="#1f77b4" cx="326.16" cy="-497.01" rx="78.48" ry="16.03"/>
<text text-anchor="middle" x="326.16" y="-493.31" font-family="Times,serif" font-size="14.00">skos:Concept</text>
</g>
<!-- http://w3id.org/oseg/ont/okhmeta#Tag&#45;&gt;http://www.w3.org/2004/02/skos/core#Concept -->
<g id="edge43" class="edge">
<title>http://w3id.org/oseg/ont/okhmeta#Tag&#45;&gt;http://www.w3.org/2004/02/skos/core#Concept</title>
<path fill="none" stroke="black" d="M468.48,-696.95C441.68,-659.29 375.2,-565.9 343.5,-521.37"/>
<polygon fill="black" stroke="black" points="346.3,-519.27 337.65,-513.15 340.6,-523.33 346.3,-519.27"/>
<text text-anchor="middle" x="401.49" y="-612.96" font-family="Times,serif" font-size="14.00">a</text>
</g>
<!-- http://w3id.org/oseg/ont/okhmeta#MetaTag -->
<g id="node7" class="node">
<title>http://w3id.org/oseg/ont/okhmeta#MetaTag</title>
<ellipse fill="none" stroke="#e377c2" cx="465.89" cy="-671.8" rx="102.56" ry="16.03"/>
<text text-anchor="middle" x="465.89" y="-668.1" font-family="Times,serif" font-size="14.00">okhmeta:MetaTag</text>
</g>
<!-- http://w3id.org/oseg/ont/okhmeta#Tag&#45;&gt;http://w3id.org/oseg/ont/okhmeta#MetaTag -->
<g id="edge23" class="edge">
<title>http://w3id.org/oseg/ont/okhmeta#Tag&#45;&gt;http://w3id.org/oseg/ont/okhmeta#MetaTag</title>
<path fill="none" stroke="black" d="M481.22,-696.62C481.2,-696.53 481.18,-696.45 481.15,-696.36"/>
<polygon fill="black" stroke="black" points="484.92,-696.67 478.59,-688.17 478.24,-698.76 484.92,-696.67"/>
<text text-anchor="middle" x="558.19" y="-685.29" font-family="Times,serif" font-size="14.00">okhmeta:hasMetaTag</text>
</g>
<!-- http://spdx.org/rdf/terms#SpdxItem -->
<g id="node4" class="node">
<title>http://spdx.org/rdf/terms#SpdxItem</title>
<ellipse fill="none" stroke="#1f77b4" cx="927.2" cy="-334.35" rx="87.86" ry="16.03"/>
<text text-anchor="middle" x="927.2" y="-330.65" font-family="Times,serif" font-size="14.00">spdx:SpdxItem</text>
</g>
<!-- http://w3id.org/oseg/ont/oseg&#45;profiles#robinVobruba -->
<g id="node5" class="node">
<title>http://w3id.org/oseg/ont/oseg&#45;profiles#robinVobruba</title>
<ellipse fill="none" stroke="#e377c2" cx="1223.4" cy="-412.85" rx="113.69" ry="16.03"/>
<text text-anchor="middle" x="1223.4" y="-409.15" font-family="Times,serif" font-size="14.00">osegprof:robinVob...</text>
</g>
<!-- http://w3id.org/oseg/ont/okhmeta#LegalTag -->
<g id="node6" class="node">
<title>http://w3id.org/oseg/ont/okhmeta#LegalTag</title>
<ellipse fill="none" stroke="#e377c2" cx="184.16" cy="-661.68" rx="103.89" ry="16.03"/>
<text text-anchor="middle" x="184.16" y="-657.98" font-family="Times,serif" font-size="14.00">okhmeta:LegalTag</text>
</g>
<!-- http://w3id.org/oseg/ont/okhmeta#LegalTag&#45;&gt;http://w3id.org/oseg/ont/okhmeta#Tag -->
<g id="edge27" class="edge">
<title>http://w3id.org/oseg/ont/okhmeta#LegalTag&#45;&gt;http://w3id.org/oseg/ont/okhmeta#Tag</title>
<path fill="none" stroke="black" d="M253.91,-673.82C301.18,-682.05 363.41,-692.89 410.62,-701.11"/>
<polygon fill="black" stroke="black" points="410.3,-704.6 420.75,-702.87 411.5,-697.71 410.3,-704.6"/>
<text text-anchor="middle" x="327.76" y="-691.26" font-family="Times,serif" font-size="14.00">a</text>
</g>
<!-- http://w3id.org/oseg/ont/okhmeta#LegalTag&#45;&gt;http://w3id.org/oseg/ont/okhmeta#MetaTag -->
<g id="edge13" class="edge">
<title>http://w3id.org/oseg/ont/okhmeta#LegalTag&#45;&gt;http://w3id.org/oseg/ont/okhmeta#MetaTag</title>
<path fill="none" stroke="black" d="M285.47,-665.32C308.14,-666.13 332.31,-667 355.33,-667.83"/>
<polygon fill="black" stroke="black" points="355.35,-671.33 365.47,-668.19 355.6,-664.34 355.35,-671.33"/>
<text text-anchor="middle" x="397.4" y="-655.37" font-family="Times,serif" font-size="14.00">okhmeta:hasMetaTag</text>
</g>
<!-- http://w3id.org/oseg/ont/okhmeta#MetaTag&#45;&gt;http://w3id.org/oseg/ont/okhmeta#Tag -->
<g id="edge31" class="edge">
<title>http://w3id.org/oseg/ont/okhmeta#MetaTag&#45;&gt;http://w3id.org/oseg/ont/okhmeta#Tag</title>
<path fill="none" stroke="black" d="M464.72,-688.37C464.74,-688.46 464.76,-688.55 464.78,-688.64"/>
<polygon fill="black" stroke="black" points="461.11,-688.63 467.46,-697.11 467.79,-686.52 461.11,-688.63"/>
<text text-anchor="middle" x="460.25" y="-692.31" font-family="Times,serif" font-size="14.00">a</text>
</g>
<!-- http://w3id.org/oseg/ont/okhmeta#MetaTag&#45;&gt;http://w3id.org/oseg/ont/okhmeta#MetaTag -->
<g id="edge9" class="edge">
<title>http://w3id.org/oseg/ont/okhmeta#MetaTag&#45;&gt;http://w3id.org/oseg/ont/okhmeta#MetaTag</title>
<path fill="none" stroke="black" d="M560.88,-678.02C576.04,-677.11 586.42,-675.03 586.42,-671.8 586.42,-669.35 580.46,-667.57 570.97,-666.45"/>
<polygon fill="black" stroke="black" points="571.14,-662.95 560.88,-665.58 570.54,-669.93 571.14,-662.95"/>
<text text-anchor="middle" x="663.42" y="-668.1" font-family="Times,serif" font-size="14.00">okhmeta:hasMetaTag</text>
</g>
<!-- http://spdx.org/licenses/GPL&#45;3.0&#45;or&#45;later -->
<g id="node8" class="node">
<title>http://spdx.org/licenses/GPL&#45;3.0&#45;or&#45;later</title>
<ellipse fill="none" stroke="#e377c2" cx="1024.44" cy="-252.12" rx="108.79" ry="16.03"/>
<text text-anchor="middle" x="1024.44" y="-248.42" font-family="Times,serif" font-size="14.00">spdxl:GPL&#45;3.0&#45;or&#45;...</text>
</g>
<!-- http://id.loc.gov/vocabulary/iso639&#45;1/en -->
<g id="node9" class="node">
<title>http://id.loc.gov/vocabulary/iso639&#45;1/en</title>
<ellipse fill="none" stroke="#e377c2" cx="1070.1" cy="-334.2" rx="45.01" ry="16.03"/>
<text text-anchor="middle" x="1070.1" y="-330.5" font-family="Times,serif" font-size="14.00">ns1:en</text>
</g>
<!-- http://w3id.org/oseg/ont/okhmeta#DocumentationTag -->
<g id="node10" class="node">
<title>http://w3id.org/oseg/ont/okhmeta#DocumentationTag</title>
<ellipse fill="none" stroke="#e377c2" cx="150.27" cy="-767.44" rx="125.32" ry="16.03"/>
<text text-anchor="middle" x="150.27" y="-763.74" font-family="Times,serif" font-size="14.00">okhmeta:Documenta...</text>
</g>
<!-- http://w3id.org/oseg/ont/okhmeta#DocumentationTag&#45;&gt;http://w3id.org/oseg/ont/okhmeta#Tag -->
<g id="edge6" class="edge">
<title>http://w3id.org/oseg/ont/okhmeta#DocumentationTag&#45;&gt;http://w3id.org/oseg/ont/okhmeta#Tag</title>
<path fill="none" stroke="black" d="M228,-754.66C283.01,-745.61 356.19,-733.57 409.51,-724.8"/>
<polygon fill="black" stroke="black" points="410.27,-728.22 419.57,-723.14 409.13,-721.31 410.27,-728.22"/>
<text text-anchor="middle" x="314.26" y="-743.53" font-family="Times,serif" font-size="14.00">a</text>
</g>
<!-- http://w3id.org/oseg/ont/okhmeta#DocumentationTag&#45;&gt;http://w3id.org/oseg/ont/okhmeta#MetaTag -->
<g id="edge14" class="edge">
<title>http://w3id.org/oseg/ont/okhmeta#DocumentationTag&#45;&gt;http://w3id.org/oseg/ont/okhmeta#MetaTag</title>
<path fill="none" stroke="black" d="M199.93,-752.39C256.58,-735.23 349.06,-707.2 408.68,-689.14"/>
<polygon fill="black" stroke="black" points="409.76,-692.46 418.32,-686.21 407.73,-685.77 409.76,-692.46"/>
<text text-anchor="middle" x="227.3" y="-724.57" font-family="Times,serif" font-size="14.00">okhmeta:hasMetaTag</text>
</g>
<!-- http://w3id.org/oseg/ont/okhmeta#HistoryTag -->
<g id="node11" class="node">
<title>http://w3id.org/oseg/ont/okhmeta#HistoryTag</title>
<ellipse fill="none" stroke="#e377c2" cx="349.56" cy="-988.02" rx="113.69" ry="16.03"/>
<text text-anchor="middle" x="349.56" y="-984.32" font-family="Times,serif" font-size="14.00">okhmeta:HistoryTag</text>
</g>
<!-- http://w3id.org/oseg/ont/okhmeta#HistoryTag&#45;&gt;http://w3id.org/oseg/ont/okhmeta#Tag -->
<g id="edge8" class="edge">
<title>http://w3id.org/oseg/ont/okhmeta#HistoryTag&#45;&gt;http://w3id.org/oseg/ont/okhmeta#Tag</title>
<path fill="none" stroke="black" d="M357.33,-971.66C379.23,-925.54 441.53,-794.31 467.96,-738.65"/>
<polygon fill="black" stroke="black" points="471.19,-740.01 472.32,-729.48 464.87,-737.01 471.19,-740.01"/>
<text text-anchor="middle" x="408.15" y="-858.95" font-family="Times,serif" font-size="14.00">a</text>
</g>
<!-- http://w3id.org/oseg/ont/okhmeta#HistoryTag&#45;&gt;http://w3id.org/oseg/ont/okhmeta#MetaTag -->
<g id="edge40" class="edge">
<title>http://w3id.org/oseg/ont/okhmeta#HistoryTag&#45;&gt;http://w3id.org/oseg/ont/okhmeta#MetaTag</title>
<path fill="none" stroke="black" d="M355.65,-971.47C374.69,-919.71 433.21,-760.64 456.34,-697.76"/>
<polygon fill="black" stroke="black" points="459.69,-698.79 459.86,-688.19 453.12,-696.37 459.69,-698.79"/>
<text text-anchor="middle" x="328.99" y="-823.42" font-family="Times,serif" font-size="14.00">okhmeta:hasMetaTag</text>
</g>
<!-- http://w3id.org/oseg/ont/okhmeta#ExtendedInfoTag -->
<g id="node12" class="node">
<title>http://w3id.org/oseg/ont/okhmeta#ExtendedInfoTag</title>
<ellipse fill="none" stroke="#e377c2" cx="753.01" cy="-840.98" rx="120.42" ry="16.03"/>
<text text-anchor="middle" x="753.01" y="-837.28" font-family="Times,serif" font-size="14.00">okhmeta:ExtendedI...</text>
</g>
<!-- http://w3id.org/oseg/ont/okhmeta#ExtendedInfoTag&#45;&gt;http://w3id.org/oseg/ont/okhmeta#Tag -->
<g id="edge29" class="edge">
<title>http://w3id.org/oseg/ont/okhmeta#ExtendedInfoTag&#45;&gt;http://w3id.org/oseg/ont/okhmeta#Tag</title>
<path fill="none" stroke="black" d="M719.54,-825.31C669.45,-801.86 575.09,-757.69 520.97,-732.35"/>
<polygon fill="black" stroke="black" points="522.22,-729.07 511.68,-728 519.25,-735.41 522.22,-729.07"/>
<text text-anchor="middle" x="615.76" y="-782.63" font-family="Times,serif" font-size="14.00">a</text>
</g>
<!-- http://w3id.org/oseg/ont/okhmeta#ExtendedInfoTag&#45;&gt;http://w3id.org/oseg/ont/okhmeta#MetaTag -->
<g id="edge21" class="edge">
<title>http://w3id.org/oseg/ont/okhmeta#ExtendedInfoTag&#45;&gt;http://w3id.org/oseg/ont/okhmeta#MetaTag</title>
<path fill="none" stroke="black" d="M726,-825.07C673.92,-794.38 559.65,-727.05 501.46,-692.76"/>
<polygon fill="black" stroke="black" points="503.01,-689.61 492.62,-687.55 499.46,-695.64 503.01,-689.61"/>
<text text-anchor="middle" x="536.73" y="-762.71" font-family="Times,serif" font-size="14.00">okhmeta:hasMetaTag</text>
</g>
<!-- http://w3id.org/oseg/ont/okhmeta#PartsTag -->
<g id="node13" class="node">
<title>http://w3id.org/oseg/ont/okhmeta#PartsTag</title>
<ellipse fill="none" stroke="#e377c2" cx="757.5" cy="-650.99" rx="103.48" ry="16.03"/>
<text text-anchor="middle" x="757.5" y="-647.29" font-family="Times,serif" font-size="14.00">okhmeta:PartsTag</text>
</g>
<!-- http://w3id.org/oseg/ont/okhmeta#PartsTag&#45;&gt;http://w3id.org/oseg/ont/okhmeta#Tag -->
<g id="edge30" class="edge">
<title>http://w3id.org/oseg/ont/okhmeta#PartsTag&#45;&gt;http://w3id.org/oseg/ont/okhmeta#Tag</title>
<path fill="none" stroke="black" d="M697.98,-664.33C652.29,-674.58 589.36,-688.69 542.87,-699.11"/>
<polygon fill="black" stroke="black" points="541.91,-695.74 532.91,-701.34 543.44,-702.57 541.91,-695.74"/>
<text text-anchor="middle" x="615.93" y="-670.52" font-family="Times,serif" font-size="14.00">a</text>
</g>
<!-- http://w3id.org/oseg/ont/okhmeta#PartsTag&#45;&gt;http://w3id.org/oseg/ont/okhmeta#MetaTag -->
<g id="edge22" class="edge">
<title>http://w3id.org/oseg/ont/okhmeta#PartsTag&#45;&gt;http://w3id.org/oseg/ont/okhmeta#MetaTag</title>
<path fill="none" stroke="black" d="M663.22,-657.72C633.47,-659.84 600.44,-662.2 570.04,-664.37"/>
<polygon fill="black" stroke="black" points="569.56,-660.89 559.84,-665.09 570.06,-667.87 569.56,-660.89"/>
<text text-anchor="middle" x="578.13" y="-649.84" font-family="Times,serif" font-size="14.00">okhmeta:hasMetaTag</text>
</g>
<!-- http://w3id.org/oseg/ont/okhmeta#hasMetaTag -->
<g id="node14" class="node">
<title>http://w3id.org/oseg/ont/okhmeta#hasMetaTag</title>
<ellipse fill="none" stroke="#e377c2" cx="255.04" cy="-299.53" rx="120.42" ry="16.03"/>
<text text-anchor="middle" x="255.04" y="-295.83" font-family="Times,serif" font-size="14.00">okhmeta:hasMetaTag</text>
</g>
<!-- http://w3id.org/oseg/ont/okhmeta#hasMetaTag&#45;&gt;http://www.w3.org/2004/02/skos/core#Concept -->
<g id="edge36" class="edge">
<title>http://w3id.org/oseg/ont/okhmeta#hasMetaTag&#45;&gt;http://www.w3.org/2004/02/skos/core#Concept</title>
<path fill="none" stroke="black" d="M260.98,-316.03C273.36,-350.38 301.96,-429.82 316.82,-471.08"/>
<polygon fill="black" stroke="black" points="313.6,-472.48 320.28,-480.7 320.19,-470.1 313.6,-472.48"/>
<text text-anchor="middle" x="284.4" y="-397.35" font-family="Times,serif" font-size="14.00">a</text>
</g>
<!-- http://w3id.org/oseg/ont/okhmeta#hasMetaTag&#45;&gt;http://w3id.org/oseg/ont/okhmeta#MetaTag -->
<g id="edge5" class="edge">
<title>http://w3id.org/oseg/ont/okhmeta#hasMetaTag&#45;&gt;http://w3id.org/oseg/ont/okhmeta#MetaTag</title>
<path fill="none" stroke="black" d="M261.07,-316C288.9,-375.03 402.33,-575.88 447.46,-646.79"/>
<polygon fill="black" stroke="black" points="444.75,-649.04 453.11,-655.53 450.62,-645.24 444.75,-649.04"/>
<text text-anchor="middle" x="431.27" y="-470.2" font-family="Times,serif" font-size="14.00">okhmeta:hasMetaTag</text>
</g>
<!-- http://w3id.org/oseg/ont/okhmeta#hasMetaTag&#45;&gt;http://w3id.org/oseg/ont/okhmeta#MetaTag -->
<g id="edge12" class="edge">
<title>http://w3id.org/oseg/ont/okhmeta#hasMetaTag&#45;&gt;http://w3id.org/oseg/ont/okhmeta#MetaTag</title>
<path fill="none" stroke="black" d="M267.92,-315.95C306.67,-374.8 420.23,-575.04 455.52,-646.36"/>
<polygon fill="black" stroke="black" points="452.45,-648.06 459.96,-655.54 458.75,-645.01 452.45,-648.06"/>
<text text-anchor="middle" x="289.22" y="-469.96" font-family="Times,serif" font-size="14.00">dcam:rangeIncludes</text>
</g>
<!-- http://www.w3.org/2004/02/skos/core#member -->
<g id="node20" class="node">
<title>http://www.w3.org/2004/02/skos/core#member</title>
<ellipse fill="none" stroke="#e377c2" cx="79.21" cy="-16.11" rx="79.39" ry="16.03"/>
<text text-anchor="middle" x="79.21" y="-12.41" font-family="Times,serif" font-size="14.00">skos:member</text>
</g>
<!-- http://w3id.org/oseg/ont/okhmeta#hasMetaTag&#45;&gt;http://www.w3.org/2004/02/skos/core#member -->
<g id="edge17" class="edge">
<title>http://w3id.org/oseg/ont/okhmeta#hasMetaTag&#45;&gt;http://www.w3.org/2004/02/skos/core#member</title>
<path fill="none" stroke="black" d="M244.83,-283.07C215.32,-235.5 129.82,-97.68 94.62,-40.95"/>
<polygon fill="black" stroke="black" points="97.48,-38.91 89.23,-32.26 91.53,-42.61 97.48,-38.91"/>
<text text-anchor="middle" x="116.73" y="-165.81" font-family="Times,serif" font-size="14.00">subPropertyOf</text>
</g>
<!-- http://w3id.org/oseg/ont/okhmeta#BasicTag -->
<g id="node15" class="node">
<title>http://w3id.org/oseg/ont/okhmeta#BasicTag</title>
<ellipse fill="none" stroke="#e377c2" cx="397.13" cy="-410.32" rx="103.48" ry="16.03"/>
<text text-anchor="middle" x="397.13" y="-406.62" font-family="Times,serif" font-size="14.00">okhmeta:BasicTag</text>
</g>
<!-- http://w3id.org/oseg/ont/okhmeta#BasicTag&#45;&gt;http://w3id.org/oseg/ont/okhmeta#Tag -->
<g id="edge10" class="edge">
<title>http://w3id.org/oseg/ont/okhmeta#BasicTag&#45;&gt;http://w3id.org/oseg/ont/okhmeta#Tag</title>
<path fill="none" stroke="black" d="M401.59,-426.6C415.17,-476.21 456.12,-625.8 472.83,-686.84"/>
<polygon fill="black" stroke="black" points="469.55,-688.11 475.57,-696.83 476.3,-686.26 469.55,-688.11"/>
<text text-anchor="middle" x="432.71" y="-560.52" font-family="Times,serif" font-size="14.00">a</text>
</g>
<!-- http://w3id.org/oseg/ont/okhmeta#BasicTag&#45;&gt;http://w3id.org/oseg/ont/okhmeta#MetaTag -->
<g id="edge42" class="edge">
<title>http://w3id.org/oseg/ont/okhmeta#BasicTag&#45;&gt;http://w3id.org/oseg/ont/okhmeta#MetaTag</title>
<path fill="none" stroke="black" d="M401.43,-426.68C413.01,-470.7 444.9,-591.98 459.01,-645.66"/>
<polygon fill="black" stroke="black" points="455.66,-646.67 461.59,-655.45 462.43,-644.89 455.66,-646.67"/>
<text text-anchor="middle" x="507.22" y="-524.97" font-family="Times,serif" font-size="14.00">okhmeta:hasMetaTag</text>
</g>
<!-- http://w3id.org/oseg/ont/okhmeta#QualityTag -->
<g id="node16" class="node">
<title>http://w3id.org/oseg/ont/okhmeta#QualityTag</title>
<ellipse fill="none" stroke="#e377c2" cx="202.58" cy="-545.46" rx="113.27" ry="16.03"/>
<text text-anchor="middle" x="202.58" y="-541.76" font-family="Times,serif" font-size="14.00">okhmeta:QualityTag</text>
</g>
<!-- http://w3id.org/oseg/ont/okhmeta#QualityTag&#45;&gt;http://w3id.org/oseg/ont/okhmeta#Tag -->
<g id="edge11" class="edge">
<title>http://w3id.org/oseg/ont/okhmeta#QualityTag&#45;&gt;http://w3id.org/oseg/ont/okhmeta#Tag</title>
<path fill="none" stroke="black" d="M228.94,-561.39C279.29,-591.84 389.18,-658.26 445.4,-692.25"/>
<polygon fill="black" stroke="black" points="443.91,-695.44 454.28,-697.61 447.53,-689.44 443.91,-695.44"/>
<text text-anchor="middle" x="332.67" y="-630.62" font-family="Times,serif" font-size="14.00">a</text>
</g>
<!-- http://w3id.org/oseg/ont/okhmeta#QualityTag&#45;&gt;http://w3id.org/oseg/ont/okhmeta#MetaTag -->
<g id="edge33" class="edge">
<title>http://w3id.org/oseg/ont/okhmeta#QualityTag&#45;&gt;http://w3id.org/oseg/ont/okhmeta#MetaTag</title>
<path fill="none" stroke="black" d="M235.13,-561.08C282.9,-584 371.98,-626.74 424.38,-651.89"/>
<polygon fill="black" stroke="black" points="422.88,-655.05 433.41,-656.22 425.91,-648.74 422.88,-655.05"/>
<text text-anchor="middle" x="252.76" y="-610.28" font-family="Times,serif" font-size="14.00">okhmeta:hasMetaTag</text>
</g>
<!-- http://w3id.org/oseg/ont/oseg&#45;profiles#Iopa -->
<g id="node17" class="node">
<title>http://w3id.org/oseg/ont/oseg&#45;profiles#Iopa</title>
<ellipse fill="none" stroke="#e377c2" cx="1188.27" cy="-181.78" rx="80.72" ry="16.03"/>
<text text-anchor="middle" x="1188.27" y="-178.08" font-family="Times,serif" font-size="14.00">osegprof:Iopa</text>
</g>
<!-- http://w3id.org/oseg/ont/okhmeta#DataTag -->
<g id="node18" class="node">
<title>http://w3id.org/oseg/ont/okhmeta#DataTag</title>
<ellipse fill="none" stroke="#e377c2" cx="572" cy="-965.25" rx="100.32" ry="16.03"/>
<text text-anchor="middle" x="572" y="-961.55" font-family="Times,serif" font-size="14.00">okhmeta:DataTag</text>
</g>
<!-- http://w3id.org/oseg/ont/okhmeta#DataTag&#45;&gt;http://w3id.org/oseg/ont/okhmeta#Tag -->
<g id="edge35" class="edge">
<title>http://w3id.org/oseg/ont/okhmeta#DataTag&#45;&gt;http://w3id.org/oseg/ont/okhmeta#Tag</title>
<path fill="none" stroke="black" d="M565.97,-948.71C550.31,-905.79 508.29,-790.6 489.43,-738.92"/>
<polygon fill="black" stroke="black" points="492.7,-737.66 485.99,-729.47 486.12,-740.06 492.7,-737.66"/>
<text text-anchor="middle" x="523.2" y="-847.61" font-family="Times,serif" font-size="14.00">a</text>
</g>
<!-- http://w3id.org/oseg/ont/okhmeta#DataTag&#45;&gt;http://w3id.org/oseg/ont/okhmeta#MetaTag -->
<g id="edge16" class="edge">
<title>http://w3id.org/oseg/ont/okhmeta#DataTag&#45;&gt;http://w3id.org/oseg/ont/okhmeta#MetaTag</title>
<path fill="none" stroke="black" d="M565.99,-948.63C548.37,-899.91 496.74,-757.12 475.34,-697.95"/>
<polygon fill="black" stroke="black" points="478.52,-696.45 471.83,-688.24 471.94,-698.83 478.52,-696.45"/>
<text text-anchor="middle" x="520.67" y="-812.09" font-family="Times,serif" font-size="14.00">okhmeta:hasMetaTag</text>
</g>
<!-- http://w3id.org/oseg/ont/okhmeta#AcademicTag -->
<g id="node19" class="node">
<title>http://w3id.org/oseg/ont/okhmeta#AcademicTag</title>
<ellipse fill="none" stroke="#e377c2" cx="720.7" cy="-924.68" rx="124.4" ry="16.03"/>
<text text-anchor="middle" x="720.7" y="-920.98" font-family="Times,serif" font-size="14.00">okhmeta:AcademicTag</text>
</g>
<!-- http://w3id.org/oseg/ont/okhmeta#AcademicTag&#45;&gt;http://w3id.org/oseg/ont/okhmeta#Tag -->
<g id="edge15" class="edge">
<title>http://w3id.org/oseg/ont/okhmeta#AcademicTag&#45;&gt;http://w3id.org/oseg/ont/okhmeta#Tag</title>
<path fill="none" stroke="black" d="M702.22,-908.44C659.68,-871.06 554.77,-778.86 505.89,-735.9"/>
<polygon fill="black" stroke="black" points="508.09,-733.18 498.27,-729.2 503.47,-738.43 508.09,-733.18"/>
<text text-anchor="middle" x="608.55" y="-825.97" font-family="Times,serif" font-size="14.00">a</text>
</g>
<!-- http://w3id.org/oseg/ont/okhmeta#AcademicTag&#45;&gt;http://w3id.org/oseg/ont/okhmeta#MetaTag -->
<g id="edge2" class="edge">
<title>http://w3id.org/oseg/ont/okhmeta#AcademicTag&#45;&gt;http://w3id.org/oseg/ont/okhmeta#MetaTag</title>
<path fill="none" stroke="black" d="M704.37,-908.48C660.6,-865.03 540.47,-745.82 489.38,-695.12"/>
<polygon fill="black" stroke="black" points="491.64,-692.43 482.08,-687.87 486.71,-697.4 491.64,-692.43"/>
<text text-anchor="middle" x="519.88" y="-790.6" font-family="Times,serif" font-size="14.00">okhmeta:hasMetaTag</text>
</g>
<!-- http://w3id.org/oseg/ont/okhmeta#DevelopmentTag -->
<g id="node21" class="node">
<title>http://w3id.org/oseg/ont/okhmeta#DevelopmentTag</title>
<ellipse fill="none" stroke="#e377c2" cx="698.78" cy="-461.14" rx="124.4" ry="16.03"/>
<text text-anchor="middle" x="698.78" y="-457.44" font-family="Times,serif" font-size="14.00">okhmeta:Developme...</text>
</g>
<!-- http://w3id.org/oseg/ont/okhmeta#DevelopmentTag&#45;&gt;http://w3id.org/oseg/ont/okhmeta#Tag -->
<g id="edge38" class="edge">
<title>http://w3id.org/oseg/ont/okhmeta#DevelopmentTag&#45;&gt;http://w3id.org/oseg/ont/okhmeta#Tag</title>
<path fill="none" stroke="black" d="M684.43,-477.67C646.79,-521.04 545.14,-638.19 500.99,-689.07"/>
<polygon fill="black" stroke="black" points="498.08,-687.08 494.17,-696.92 503.37,-691.66 498.08,-687.08"/>
<text text-anchor="middle" x="588.21" y="-587.17" font-family="Times,serif" font-size="14.00">a</text>
</g>
<!-- http://w3id.org/oseg/ont/okhmeta#DevelopmentTag&#45;&gt;http://w3id.org/oseg/ont/okhmeta#MetaTag -->
<g id="edge18" class="edge">
<title>http://w3id.org/oseg/ont/okhmeta#DevelopmentTag&#45;&gt;http://w3id.org/oseg/ont/okhmeta#MetaTag</title>
<path fill="none" stroke="black" d="M680.89,-477.32C639.91,-514.39 539.11,-605.56 491.54,-648.6"/>
<polygon fill="black" stroke="black" points="488.9,-646.26 483.84,-655.56 493.6,-651.45 488.9,-646.26"/>
<text text-anchor="middle" x="547.71" y="-551.76" font-family="Times,serif" font-size="14.00">okhmeta:hasMetaTag</text>
</g>
<!-- http://w3id.org/oseg/ont/okhmeta#PhysicalTag -->
<g id="node22" class="node">
<title>http://w3id.org/oseg/ont/okhmeta#PhysicalTag</title>
<ellipse fill="none" stroke="#e377c2" cx="626.46" cy="-410.35" rx="118.17" ry="16.03"/>
<text text-anchor="middle" x="626.46" y="-406.65" font-family="Times,serif" font-size="14.00">okhmeta:PhysicalTag</text>
</g>
<!-- http://w3id.org/oseg/ont/okhmeta#PhysicalTag&#45;&gt;http://w3id.org/oseg/ont/okhmeta#Tag -->
<g id="edge20" class="edge">
<title>http://w3id.org/oseg/ont/okhmeta#PhysicalTag&#45;&gt;http://w3id.org/oseg/ont/okhmeta#Tag</title>
<path fill="none" stroke="black" d="M618.59,-426.63C594.51,-476.44 521.7,-627.05 492.43,-687.59"/>
<polygon fill="black" stroke="black" points="489.16,-686.31 487.96,-696.83 495.46,-689.35 489.16,-686.31"/>
<text text-anchor="middle" x="551.01" y="-560.91" font-family="Times,serif" font-size="14.00">a</text>
</g>
<!-- http://w3id.org/oseg/ont/okhmeta#PhysicalTag&#45;&gt;http://w3id.org/oseg/ont/okhmeta#MetaTag -->
<g id="edge37" class="edge">
<title>http://w3id.org/oseg/ont/okhmeta#PhysicalTag&#45;&gt;http://w3id.org/oseg/ont/okhmeta#MetaTag</title>
<path fill="none" stroke="black" d="M616.42,-426.71C589.21,-471 513.97,-593.51 481.33,-646.66"/>
<polygon fill="black" stroke="black" points="478.18,-645.1 475.93,-655.45 484.14,-648.76 478.18,-645.1"/>
<text text-anchor="middle" x="471.87" y="-540.48" font-family="Times,serif" font-size="14.00">okhmeta:hasMetaTag</text>
</g>
<!-- http://w3id.org/oseg/ont/okhmeta -->
<g id="node23" class="node">
<title>http://w3id.org/oseg/ont/okhmeta</title>
<ellipse fill="none" stroke="#e377c2" cx="1020.88" cy="-293.35" rx="76.24" ry="16.03"/>
<text text-anchor="middle" x="1020.88" y="-289.65" font-family="Times,serif" font-size="14.00">ns2:okhmeta</text>
</g>
<!-- http://w3id.org/oseg/ont/okhmeta&#45;&gt;http://spdx.org/rdf/terms#SpdxItem -->
<g id="edge26" class="edge">
<title>http://w3id.org/oseg/ont/okhmeta&#45;&gt;http://spdx.org/rdf/terms#SpdxItem</title>
<path fill="none" stroke="black" d="M987.32,-308.04C981.94,-310.39 976.31,-312.86 970.73,-315.3"/>
<polygon fill="black" stroke="black" points="969.23,-312.13 961.47,-319.35 972.03,-318.55 969.23,-312.13"/>
<text text-anchor="middle" x="974.53" y="-315.47" font-family="Times,serif" font-size="14.00">a</text>
</g>
<!-- http://w3id.org/oseg/ont/okhmeta&#45;&gt;http://w3id.org/oseg/ont/oseg&#45;profiles#robinVobruba -->
<g id="edge1" class="edge">
<title>http://w3id.org/oseg/ont/okhmeta&#45;&gt;http://w3id.org/oseg/ont/oseg&#45;profiles#robinVobruba</title>
<path fill="none" stroke="black" d="M1039.24,-309.15C1070.32,-330.69 1134.03,-368.81 1177.74,-392.44"/>
<polygon fill="black" stroke="black" points="1176.28,-395.63 1186.75,-397.26 1179.58,-389.46 1176.28,-395.63"/>
<text text-anchor="middle" x="1052.99" y="-354.6" font-family="Times,serif" font-size="14.00">schema:creator</text>
</g>
<!-- http://w3id.org/oseg/ont/okhmeta&#45;&gt;http://w3id.org/oseg/ont/oseg&#45;profiles#robinVobruba -->
<g id="edge28" class="edge">
<title>http://w3id.org/oseg/ont/okhmeta&#45;&gt;http://w3id.org/oseg/ont/oseg&#45;profiles#robinVobruba</title>
<path fill="none" stroke="black" d="M1055.56,-307.9C1095.26,-328.71 1159.43,-366.62 1195.87,-390.84"/>
<polygon fill="black" stroke="black" points="1194.26,-393.98 1204.5,-396.68 1198.18,-388.18 1194.26,-393.98"/>
<text text-anchor="middle" x="1183.21" y="-353.17" font-family="Times,serif" font-size="14.00">dcterms:creator</text>
</g>
<!-- http://w3id.org/oseg/ont/okhmeta&#45;&gt;http://spdx.org/licenses/GPL&#45;3.0&#45;or&#45;later -->
<g id="edge3" class="edge">
<title>http://w3id.org/oseg/ont/okhmeta&#45;&gt;http://spdx.org/licenses/GPL&#45;3.0&#45;or&#45;later</title>
<path fill="none" stroke="black" d="M1022.29,-277.06C1022.3,-276.97 1022.3,-276.88 1022.31,-276.79"/>
<polygon fill="black" stroke="black" points="1025.65,-278.83 1023.02,-268.57 1018.67,-278.23 1025.65,-278.83"/>
<text text-anchor="middle" x="946.3" y="-265.72" font-family="Times,serif" font-size="14.00">spdx:licenseDeclared</text>
</g>
<!-- http://w3id.org/oseg/ont/okhmeta&#45;&gt;http://id.loc.gov/vocabulary/iso639&#45;1/en -->
<g id="edge4" class="edge">
<title>http://w3id.org/oseg/ont/okhmeta&#45;&gt;http://id.loc.gov/vocabulary/iso639&#45;1/en</title>
<path fill="none" stroke="black" d="M1040.05,-309.26C1041.39,-310.37 1042.75,-311.5 1044.11,-312.63"/>
<polygon fill="black" stroke="black" points="1041.94,-315.37 1051.87,-319.07 1046.41,-309.99 1041.94,-315.37"/>
<text text-anchor="middle" x="1106.58" y="-314.74" font-family="Times,serif" font-size="14.00">dcterms:language</text>
</g>
<!-- http://w3id.org/oseg/ont/okhmeta&#45;&gt;http://w3id.org/oseg/ont/oseg&#45;profiles#Iopa -->
<g id="edge34" class="edge">
<title>http://w3id.org/oseg/ont/okhmeta&#45;&gt;http://w3id.org/oseg/ont/oseg&#45;profiles#Iopa</title>
<path fill="none" stroke="black" d="M1044.16,-277.84C1073.35,-258.38 1123.54,-224.93 1156.31,-203.08"/>
<polygon fill="black" stroke="black" points="1158.27,-205.98 1164.65,-197.52 1154.39,-200.16 1158.27,-205.98"/>
<text text-anchor="middle" x="1165.73" y="-229.26" font-family="Times,serif" font-size="14.00">dcterms:publisher</text>
</g>
<!-- http://w3id.org/oseg/ont/1.1.0/okh&#45;meta -->
<g id="node27" class="node">
<title>http://w3id.org/oseg/ont/1.1.0/okh&#45;meta</title>
<ellipse fill="none" stroke="#e377c2" cx="826.66" cy="-235.17" rx="79.81" ry="16.03"/>
<text text-anchor="middle" x="826.66" y="-231.47" font-family="Times,serif" font-size="14.00">ns3:okh&#45;meta</text>
</g>
<!-- http://w3id.org/oseg/ont/okhmeta&#45;&gt;http://w3id.org/oseg/ont/1.1.0/okh&#45;meta -->
<g id="edge44" class="edge">
<title>http://w3id.org/oseg/ont/okhmeta&#45;&gt;http://w3id.org/oseg/ont/1.1.0/okh&#45;meta</title>
<path fill="none" stroke="black" d="M976.32,-280C948.15,-271.56 911.53,-260.59 881.57,-251.62"/>
<polygon fill="black" stroke="black" points="882.27,-248.17 871.68,-248.65 880.26,-254.88 882.27,-248.17"/>
<text text-anchor="middle" x="877.44" y="-254.61" font-family="Times,serif" font-size="14.00">owl:versionIRI</text>
</g>
<!-- http://w3id.org/oseg/ont/okhmeta#IdentificationTag -->
<g id="node24" class="node">
<title>http://w3id.org/oseg/ont/okhmeta#IdentificationTag</title>
<ellipse fill="none" stroke="#e377c2" cx="283.15" cy="-930.12" rx="109.7" ry="16.03"/>
<text text-anchor="middle" x="283.15" y="-926.42" font-family="Times,serif" font-size="14.00">okhmeta:Identific...</text>
</g>
<!-- http://w3id.org/oseg/ont/okhmeta#IdentificationTag&#45;&gt;http://w3id.org/oseg/ont/okhmeta#Tag -->
<g id="edge39" class="edge">
<title>http://w3id.org/oseg/ont/okhmeta#IdentificationTag&#45;&gt;http://w3id.org/oseg/ont/okhmeta#Tag</title>
<path fill="none" stroke="black" d="M297.95,-913.82C332.46,-875.8 418.37,-781.15 458.61,-736.81"/>
<polygon fill="black" stroke="black" points="461.22,-739.15 465.35,-729.39 456.03,-734.44 461.22,-739.15"/>
<text text-anchor="middle" x="373.78" y="-814.11" font-family="Times,serif" font-size="14.00">a</text>
</g>
<!-- http://w3id.org/oseg/ont/okhmeta#IdentificationTag&#45;&gt;http://w3id.org/oseg/ont/okhmeta#MetaTag -->
<g id="edge19" class="edge">
<title>http://w3id.org/oseg/ont/okhmeta#IdentificationTag&#45;&gt;http://w3id.org/oseg/ont/okhmeta#MetaTag</title>
<path fill="none" stroke="black" d="M294.86,-913.57C326.06,-869.46 411.34,-748.91 448.36,-696.58"/>
<polygon fill="black" stroke="black" points="451.36,-698.4 454.28,-688.21 445.64,-694.36 451.36,-698.4"/>
<text text-anchor="middle" x="294.61" y="-793.88" font-family="Times,serif" font-size="14.00">okhmeta:hasMetaTag</text>
</g>
<!-- http://w3id.org/oseg/ont/okhmeta#MakingTag -->
<g id="node25" class="node">
<title>http://w3id.org/oseg/ont/okhmeta#MakingTag</title>
<ellipse fill="none" stroke="#e377c2" cx="209.93" cy="-860.4" rx="113.69" ry="16.03"/>
<text text-anchor="middle" x="209.93" y="-856.7" font-family="Times,serif" font-size="14.00">okhmeta:MakingTag</text>
</g>
<!-- http://w3id.org/oseg/ont/okhmeta#MakingTag&#45;&gt;http://w3id.org/oseg/ont/okhmeta#Tag -->
<g id="edge41" class="edge">
<title>http://w3id.org/oseg/ont/okhmeta#MakingTag&#45;&gt;http://w3id.org/oseg/ont/okhmeta#Tag</title>
<path fill="none" stroke="black" d="M238.83,-844.65C288.24,-817.72 388.84,-762.9 443.21,-733.27"/>
<polygon fill="black" stroke="black" points="445.05,-736.25 452.16,-728.39 441.7,-730.11 445.05,-736.25"/>
<text text-anchor="middle" x="336.52" y="-777.76" font-family="Times,serif" font-size="14.00">a</text>
</g>
<!-- http://w3id.org/oseg/ont/okhmeta#MakingTag&#45;&gt;http://w3id.org/oseg/ont/okhmeta#MetaTag -->
<g id="edge32" class="edge">
<title>http://w3id.org/oseg/ont/okhmeta#MakingTag&#45;&gt;http://w3id.org/oseg/ont/okhmeta#MetaTag</title>
<path fill="none" stroke="black" d="M231.75,-844.32C277.56,-810.57 383.8,-732.29 435.93,-693.87"/>
<polygon fill="black" stroke="black" points="438.14,-696.59 444.12,-687.84 433.99,-690.95 438.14,-696.59"/>
<text text-anchor="middle" x="372.34" y="-757.9" font-family="Times,serif" font-size="14.00">okhmeta:hasMetaTag</text>
</g>
<!-- http://w3id.org/oseg/ont/okhmeta#DataGatheringTag -->
<g id="node26" class="node">
<title>http://w3id.org/oseg/ont/okhmeta#DataGatheringTag</title>
<ellipse fill="none" stroke="#e377c2" cx="798.54" cy="-744.67" rx="122.16" ry="16.03"/>
<text text-anchor="middle" x="798.54" y="-740.97" font-family="Times,serif" font-size="14.00">okhmeta:DataGathe...</text>
</g>
<!-- http://w3id.org/oseg/ont/okhmeta#DataGatheringTag&#45;&gt;http://w3id.org/oseg/ont/okhmeta#Tag -->
<g id="edge24" class="edge">
<title>http://w3id.org/oseg/ont/okhmeta#DataGatheringTag&#45;&gt;http://w3id.org/oseg/ont/okhmeta#Tag</title>
<path fill="none" stroke="black" d="M699.95,-734.93C654.79,-730.47 601.98,-725.25 559.44,-721.04"/>
<polygon fill="black" stroke="black" points="559.71,-717.55 549.41,-720.05 559.02,-724.52 559.71,-717.55"/>
<text text-anchor="middle" x="625.19" y="-731.78" font-family="Times,serif" font-size="14.00">a</text>
</g>
<!-- http://w3id.org/oseg/ont/okhmeta#DataGatheringTag&#45;&gt;http://w3id.org/oseg/ont/okhmeta#MetaTag -->
<g id="edge46" class="edge">
<title>http://w3id.org/oseg/ont/okhmeta#DataGatheringTag&#45;&gt;http://w3id.org/oseg/ont/okhmeta#MetaTag</title>
<path fill="none" stroke="black" d="M734.79,-730.71C677.9,-718.25 594.75,-700.03 536,-687.16"/>
<polygon fill="black" stroke="black" points="536.57,-683.7 526.06,-684.98 535.08,-690.54 536.57,-683.7"/>
<text text-anchor="middle" x="712.4" y="-712.73" font-family="Times,serif" font-size="14.00">okhmeta:hasMetaTag</text>
</g>
<!-- http://w3id.org/oseg/ont/okhmeta#TransportationTag -->
<g id="node28" class="node">
<title>http://w3id.org/oseg/ont/okhmeta#TransportationTag</title>
<ellipse fill="none" stroke="#e377c2" cx="758.13" cy="-549.13" rx="118.17" ry="16.03"/>
<text text-anchor="middle" x="758.13" y="-545.43" font-family="Times,serif" font-size="14.00">okhmeta:Transport...</text>
</g>
<!-- http://w3id.org/oseg/ont/okhmeta#TransportationTag&#45;&gt;http://w3id.org/oseg/ont/okhmeta#Tag -->
<g id="edge45" class="edge">
<title>http://w3id.org/oseg/ont/okhmeta#TransportationTag&#45;&gt;http://w3id.org/oseg/ont/okhmeta#Tag</title>
<path fill="none" stroke="black" d="M731.22,-565.01C680.6,-594.87 571.29,-659.36 515.05,-692.54"/>
<polygon fill="black" stroke="black" points="513,-689.69 506.17,-697.78 516.56,-695.72 513,-689.69"/>
<text text-anchor="middle" x="618.63" y="-632.58" font-family="Times,serif" font-size="14.00">a</text>
</g>
<!-- http://w3id.org/oseg/ont/okhmeta#TransportationTag&#45;&gt;http://w3id.org/oseg/ont/okhmeta#MetaTag -->
<g id="edge25" class="edge">
<title>http://w3id.org/oseg/ont/okhmeta#TransportationTag&#45;&gt;http://w3id.org/oseg/ont/okhmeta#MetaTag</title>
<path fill="none" stroke="black" d="M721.12,-564.66C667.72,-587.08 569.17,-628.45 511.4,-652.7"/>
<polygon fill="black" stroke="black" points="510.01,-649.48 502.14,-656.58 512.72,-655.94 510.01,-649.48"/>
<text text-anchor="middle" x="539.26" y="-612.48" font-family="Times,serif" font-size="14.00">okhmeta:hasMetaTag</text>
</g>
</g>
</svg>
