<?xml version="1.0" encoding="UTF-8" standalone="no"?>
<!DOCTYPE svg PUBLIC "-//W3C//DTD SVG 1.1//EN"
 "http://www.w3.org/Graphics/SVG/1.1/DTD/svg11.dtd">
<!-- Generated by graphviz version 2.43.0 (0)
 -->
<!-- Title: G Pages: 1 -->
<svg width="1288pt" height="966pt"
 viewBox="0.00 0.00 1288.00 966.00" xmlns="http://www.w3.org/2000/svg" xmlns:xlink="http://www.w3.org/1999/xlink">
<g id="graph0" class="graph" transform="scale(1 1) rotate(0) translate(4 962)">
<title>G</title>
<polygon fill="white" stroke="transparent" points="-4,4 -4,-962 1284,-962 1284,4 -4,4"/>
<!-- http://www.w3.org/2004/02/skos/core#Concept -->
<g id="node1" class="node">
<title>http://www.w3.org/2004/02/skos/core#Concept</title>
<ellipse fill="none" stroke="#1f77b4" cx="195.11" cy="-261.53" rx="78.48" ry="16.03"/>
<text text-anchor="middle" x="195.11" y="-257.83" font-family="Times,serif" font-size="14.00">skos:Concept</text>
</g>
<!-- http://www.w3.org/2004/02/skos/core#Collection -->
<g id="node2" class="node">
<title>http://www.w3.org/2004/02/skos/core#Collection</title>
<ellipse fill="none" stroke="#e377c2" cx="734.18" cy="-544.8" rx="87.86" ry="16.03"/>
<text text-anchor="middle" x="734.18" y="-541.1" font-family="Times,serif" font-size="14.00">skos:Collection</text>
</g>
<!-- http://w3id.org/oseg/ont/okhmeta#Tag -->
<g id="node3" class="node">
<title>http://w3id.org/oseg/ont/okhmeta#Tag</title>
<ellipse fill="none" stroke="#e377c2" cx="458.87" cy="-360.52" rx="76.24" ry="16.03"/>
<text text-anchor="middle" x="458.87" y="-356.82" font-family="Times,serif" font-size="14.00">okhmeta:Tag</text>
</g>
<!-- http://w3id.org/oseg/ont/okhmeta#Tag&#45;&gt;http://www.w3.org/2004/02/skos/core#Concept -->
<g id="edge40" class="edge">
<title>http://w3id.org/oseg/ont/okhmeta#Tag&#45;&gt;http://www.w3.org/2004/02/skos/core#Concept</title>
<path fill="none" stroke="black" d="M421.08,-346.34C374.11,-328.71 293.91,-298.61 242.77,-279.42"/>
<polygon fill="black" stroke="black" points="243.85,-276.08 233.26,-275.85 241.39,-282.64 243.85,-276.08"/>
<text text-anchor="middle" x="327.42" y="-316.68" font-family="Times,serif" font-size="14.00">a</text>
</g>
<!-- http://w3id.org/oseg/ont/okhmeta#Tag&#45;&gt;http://www.w3.org/2004/02/skos/core#Collection -->
<g id="edge37" class="edge">
<title>http://w3id.org/oseg/ont/okhmeta#Tag&#45;&gt;http://www.w3.org/2004/02/skos/core#Collection</title>
<path fill="none" stroke="black" d="M482.34,-376.23C531.59,-409.2 645.78,-485.63 701.89,-523.18"/>
<polygon fill="black" stroke="black" points="700.12,-526.21 710.37,-528.86 704.01,-520.39 700.12,-526.21"/>
</g>
<!-- http://w3id.org/oseg/ont/okhmeta#MetaTag -->
<g id="node5" class="node">
<title>http://w3id.org/oseg/ont/okhmeta#MetaTag</title>
<ellipse fill="none" stroke="#e377c2" cx="442.15" cy="-319.98" rx="102.56" ry="16.03"/>
<text text-anchor="middle" x="442.15" y="-316.28" font-family="Times,serif" font-size="14.00">okhmeta:MetaTag</text>
</g>
<!-- http://w3id.org/oseg/ont/okhmeta#Tag&#45;&gt;http://w3id.org/oseg/ont/okhmeta#MetaTag -->
<g id="edge5" class="edge">
<title>http://w3id.org/oseg/ont/okhmeta#Tag&#45;&gt;http://w3id.org/oseg/ont/okhmeta#MetaTag</title>
<path fill="none" stroke="black" d="M459,-343.87C458.95,-343.72 458.9,-343.56 458.85,-343.4"/>
<polygon fill="black" stroke="black" points="462.92,-344.25 456.09,-336.15 456.37,-346.74 462.92,-344.25"/>
<text text-anchor="middle" x="535.92" y="-332.43" font-family="Times,serif" font-size="14.00">okhmeta:hasMetaTag</text>
</g>
<!-- http://spdx.org/rdf/terms#SpdxItem -->
<g id="node4" class="node">
<title>http://spdx.org/rdf/terms#SpdxItem</title>
<ellipse fill="none" stroke="#1f77b4" cx="735.42" cy="-791.74" rx="87.86" ry="16.03"/>
<text text-anchor="middle" x="735.42" y="-788.04" font-family="Times,serif" font-size="14.00">spdx:SpdxItem</text>
</g>
<!-- http://w3id.org/oseg/ont/okhmeta#MetaTag&#45;&gt;http://w3id.org/oseg/ont/okhmeta#Tag -->
<g id="edge7" class="edge">
<title>http://w3id.org/oseg/ont/okhmeta#MetaTag&#45;&gt;http://w3id.org/oseg/ont/okhmeta#Tag</title>
<path fill="none" stroke="black" d="M442.01,-336.63C442.06,-336.79 442.11,-336.95 442.16,-337.11"/>
<polygon fill="black" stroke="black" points="438.09,-336.25 444.92,-344.36 444.64,-333.77 438.09,-336.25"/>
<text text-anchor="middle" x="437.59" y="-340.67" font-family="Times,serif" font-size="14.00">a</text>
</g>
<!-- http://w3id.org/oseg/ont/okhmeta#MetaTag&#45;&gt;http://w3id.org/oseg/ont/okhmeta#MetaTag -->
<g id="edge25" class="edge">
<title>http://w3id.org/oseg/ont/okhmeta#MetaTag&#45;&gt;http://w3id.org/oseg/ont/okhmeta#MetaTag</title>
<path fill="none" stroke="black" d="M537.14,-326.2C552.3,-325.29 562.68,-323.22 562.68,-319.98 562.68,-317.53 556.72,-315.75 547.23,-314.63"/>
<polygon fill="black" stroke="black" points="547.4,-311.13 537.14,-313.77 546.8,-318.11 547.4,-311.13"/>
<text text-anchor="middle" x="639.68" y="-316.28" font-family="Times,serif" font-size="14.00">okhmeta:hasMetaTag</text>
</g>
<!-- http://id.loc.gov/vocabulary/iso639&#45;1/en -->
<g id="node6" class="node">
<title>http://id.loc.gov/vocabulary/iso639&#45;1/en</title>
<ellipse fill="none" stroke="#e377c2" cx="1037.57" cy="-592.75" rx="45.01" ry="16.03"/>
<text text-anchor="middle" x="1037.57" y="-589.05" font-family="Times,serif" font-size="14.00">ns1:en</text>
</g>
<!-- http://w3id.org/oseg/ont/okhmeta#AcademicTag -->
<g id="node7" class="node">
<title>http://w3id.org/oseg/ont/okhmeta#AcademicTag</title>
<ellipse fill="none" stroke="#e377c2" cx="252.62" cy="-607.72" rx="124.4" ry="16.03"/>
<text text-anchor="middle" x="252.62" y="-604.02" font-family="Times,serif" font-size="14.00">okhmeta:AcademicTag</text>
</g>
<!-- http://w3id.org/oseg/ont/okhmeta#AcademicTag&#45;&gt;http://w3id.org/oseg/ont/okhmeta#Tag -->
<g id="edge23" class="edge">
<title>http://w3id.org/oseg/ont/okhmeta#AcademicTag&#45;&gt;http://w3id.org/oseg/ont/okhmeta#Tag</title>
<path fill="none" stroke="black" d="M266.15,-591.5C301.55,-549.07 397.04,-434.63 438.82,-384.54"/>
<polygon fill="black" stroke="black" points="441.57,-386.72 445.28,-376.8 436.19,-382.24 441.57,-386.72"/>
<text text-anchor="middle" x="347.99" y="-491.82" font-family="Times,serif" font-size="14.00">a</text>
</g>
<!-- http://w3id.org/oseg/ont/okhmeta#AcademicTag&#45;&gt;http://w3id.org/oseg/ont/okhmeta#MetaTag -->
<g id="edge1" class="edge">
<title>http://w3id.org/oseg/ont/okhmeta#AcademicTag&#45;&gt;http://w3id.org/oseg/ont/okhmeta#MetaTag</title>
<path fill="none" stroke="black" d="M263.35,-591.43C294.94,-543.47 387.75,-402.56 425.69,-344.96"/>
<polygon fill="black" stroke="black" points="428.72,-346.73 431.3,-336.45 422.87,-342.88 428.72,-346.73"/>
<text text-anchor="middle" x="267.52" y="-471.99" font-family="Times,serif" font-size="14.00">okhmeta:hasMetaTag</text>
</g>
<!-- http://w3id.org/oseg/ont/okhmeta -->
<g id="node8" class="node">
<title>http://w3id.org/oseg/ont/okhmeta</title>
<ellipse fill="none" stroke="#e377c2" cx="978.86" cy="-776.97" rx="76.24" ry="16.03"/>
<text text-anchor="middle" x="978.86" y="-773.27" font-family="Times,serif" font-size="14.00">ns2:okhmeta</text>
</g>
<!-- http://w3id.org/oseg/ont/okhmeta&#45;&gt;http://spdx.org/rdf/terms#SpdxItem -->
<g id="edge24" class="edge">
<title>http://w3id.org/oseg/ont/okhmeta&#45;&gt;http://spdx.org/rdf/terms#SpdxItem</title>
<path fill="none" stroke="black" d="M905.16,-781.44C881.3,-782.89 854.5,-784.52 829.38,-786.04"/>
<polygon fill="black" stroke="black" points="828.87,-782.57 819.1,-786.66 829.29,-789.55 828.87,-782.57"/>
<text text-anchor="middle" x="862.77" y="-787.54" font-family="Times,serif" font-size="14.00">a</text>
</g>
<!-- http://w3id.org/oseg/ont/okhmeta&#45;&gt;http://id.loc.gov/vocabulary/iso639&#45;1/en -->
<g id="edge2" class="edge">
<title>http://w3id.org/oseg/ont/okhmeta&#45;&gt;http://id.loc.gov/vocabulary/iso639&#45;1/en</title>
<path fill="none" stroke="black" d="M984.07,-760.62C994.25,-728.67 1016.87,-657.68 1029.19,-619.04"/>
<polygon fill="black" stroke="black" points="1032.67,-619.65 1032.37,-609.06 1026,-617.53 1032.67,-619.65"/>
<text text-anchor="middle" x="942.13" y="-693.63" font-family="Times,serif" font-size="14.00">dcterms:language</text>
</g>
<!-- http://w3id.org/oseg/ont/oseg&#45;profiles#robinVobruba -->
<g id="node9" class="node">
<title>http://w3id.org/oseg/ont/oseg&#45;profiles#robinVobruba</title>
<ellipse fill="none" stroke="#e377c2" cx="951.47" cy="-818.12" rx="113.69" ry="16.03"/>
<text text-anchor="middle" x="951.47" y="-814.42" font-family="Times,serif" font-size="14.00">osegprof:robinVob...</text>
</g>
<!-- http://w3id.org/oseg/ont/okhmeta&#45;&gt;http://w3id.org/oseg/ont/oseg&#45;profiles#robinVobruba -->
<g id="edge4" class="edge">
<title>http://w3id.org/oseg/ont/okhmeta&#45;&gt;http://w3id.org/oseg/ont/oseg&#45;profiles#robinVobruba</title>
<path fill="none" stroke="black" d="M960.19,-792.85C960.13,-792.93 960.07,-793.02 960.01,-793.11"/>
<polygon fill="black" stroke="black" points="957.19,-791.01 954.99,-801.37 963.17,-794.65 957.19,-791.01"/>
<text text-anchor="middle" x="1017.6" y="-796.78" font-family="Times,serif" font-size="14.00">dcterms:creator</text>
</g>
<!-- http://w3id.org/oseg/ont/okhmeta&#45;&gt;http://w3id.org/oseg/ont/oseg&#45;profiles#robinVobruba -->
<g id="edge34" class="edge">
<title>http://w3id.org/oseg/ont/okhmeta&#45;&gt;http://w3id.org/oseg/ont/oseg&#45;profiles#robinVobruba</title>
<path fill="none" stroke="black" d="M975.46,-793.5C975.41,-793.59 975.36,-793.67 975.32,-793.76"/>
<polygon fill="black" stroke="black" points="972.51,-791.65 970.3,-802.01 978.49,-795.29 972.51,-791.65"/>
<text text-anchor="middle" x="919.89" y="-797.43" font-family="Times,serif" font-size="14.00">schema:creator</text>
</g>
<!-- http://w3id.org/oseg/ont/oseg&#45;profiles#Iopa -->
<g id="node13" class="node">
<title>http://w3id.org/oseg/ont/oseg&#45;profiles#Iopa</title>
<ellipse fill="none" stroke="#e377c2" cx="1196.09" cy="-714.66" rx="80.72" ry="16.03"/>
<text text-anchor="middle" x="1196.09" y="-710.96" font-family="Times,serif" font-size="14.00">osegprof:Iopa</text>
</g>
<!-- http://w3id.org/oseg/ont/okhmeta&#45;&gt;http://w3id.org/oseg/ont/oseg&#45;profiles#Iopa -->
<g id="edge29" class="edge">
<title>http://w3id.org/oseg/ont/okhmeta&#45;&gt;http://w3id.org/oseg/ont/oseg&#45;profiles#Iopa</title>
<path fill="none" stroke="black" d="M1024.4,-763.91C1057.95,-754.29 1103.78,-741.14 1139.65,-730.85"/>
<polygon fill="black" stroke="black" points="1140.84,-734.15 1149.49,-728.03 1138.91,-727.42 1140.84,-734.15"/>
<text text-anchor="middle" x="1147.53" y="-751.18" font-family="Times,serif" font-size="14.00">dcterms:publisher</text>
</g>
<!-- http://spdx.org/licenses/GPL&#45;3.0&#45;or&#45;later -->
<g id="node14" class="node">
<title>http://spdx.org/licenses/GPL&#45;3.0&#45;or&#45;later</title>
<ellipse fill="none" stroke="#e377c2" cx="1171.05" cy="-941.54" rx="108.79" ry="16.03"/>
<text text-anchor="middle" x="1171.05" y="-937.84" font-family="Times,serif" font-size="14.00">spdxl:GPL&#45;3.0&#45;or&#45;...</text>
</g>
<!-- http://w3id.org/oseg/ont/okhmeta&#45;&gt;http://spdx.org/licenses/GPL&#45;3.0&#45;or&#45;later -->
<g id="edge31" class="edge">
<title>http://w3id.org/oseg/ont/okhmeta&#45;&gt;http://spdx.org/licenses/GPL&#45;3.0&#45;or&#45;later</title>
<path fill="none" stroke="black" d="M997.63,-793.05C1031.94,-822.42 1104.82,-884.83 1144.3,-918.63"/>
<polygon fill="black" stroke="black" points="1142.32,-921.55 1152.19,-925.39 1146.87,-916.23 1142.32,-921.55"/>
<text text-anchor="middle" x="994.97" y="-859.64" font-family="Times,serif" font-size="14.00">spdx:licenseDeclared</text>
</g>
<!-- http://w3id.org/oseg/ont/1.1.0/okh&#45;meta -->
<g id="node21" class="node">
<title>http://w3id.org/oseg/ont/1.1.0/okh&#45;meta</title>
<ellipse fill="none" stroke="#e377c2" cx="921.41" cy="-733.78" rx="79.81" ry="16.03"/>
<text text-anchor="middle" x="921.41" y="-730.08" font-family="Times,serif" font-size="14.00">ns3:okh&#45;meta</text>
</g>
<!-- http://w3id.org/oseg/ont/okhmeta&#45;&gt;http://w3id.org/oseg/ont/1.1.0/okh&#45;meta -->
<g id="edge38" class="edge">
<title>http://w3id.org/oseg/ont/okhmeta&#45;&gt;http://w3id.org/oseg/ont/1.1.0/okh&#45;meta</title>
<path fill="none" stroke="black" d="M957.79,-761.13C955.45,-759.37 953.04,-757.56 950.62,-755.74"/>
<polygon fill="black" stroke="black" points="952.57,-752.83 942.47,-749.62 948.36,-758.42 952.57,-752.83"/>
<text text-anchor="middle" x="1005.7" y="-747.24" font-family="Times,serif" font-size="14.00">owl:versionIRI</text>
</g>
<!-- http://w3id.org/oseg/ont/okhmeta#TransportationTag -->
<g id="node10" class="node">
<title>http://w3id.org/oseg/ont/okhmeta#TransportationTag</title>
<ellipse fill="none" stroke="#e377c2" cx="289.69" cy="-57.05" rx="118.17" ry="16.03"/>
<text text-anchor="middle" x="289.69" y="-53.35" font-family="Times,serif" font-size="14.00">okhmeta:Transport...</text>
</g>
<!-- http://w3id.org/oseg/ont/okhmeta#TransportationTag&#45;&gt;http://w3id.org/oseg/ont/okhmeta#Tag -->
<g id="edge27" class="edge">
<title>http://w3id.org/oseg/ont/okhmeta#TransportationTag&#45;&gt;http://w3id.org/oseg/ont/okhmeta#Tag</title>
<path fill="none" stroke="black" d="M298.78,-73.37C326.67,-123.38 411.09,-274.82 444.77,-335.24"/>
<polygon fill="black" stroke="black" points="441.8,-337.09 449.73,-344.12 447.91,-333.69 441.8,-337.09"/>
<text text-anchor="middle" x="367.28" y="-208.1" font-family="Times,serif" font-size="14.00">a</text>
</g>
<!-- http://w3id.org/oseg/ont/okhmeta#TransportationTag&#45;&gt;http://w3id.org/oseg/ont/okhmeta#MetaTag -->
<g id="edge10" class="edge">
<title>http://w3id.org/oseg/ont/okhmeta#TransportationTag&#45;&gt;http://w3id.org/oseg/ont/okhmeta#MetaTag</title>
<path fill="none" stroke="black" d="M299.22,-73.5C325.05,-118.04 396.49,-241.25 427.49,-294.7"/>
<polygon fill="black" stroke="black" points="424.57,-296.65 432.61,-303.54 430.62,-293.13 424.57,-296.65"/>
<text text-anchor="middle" x="286.35" y="-172.9" font-family="Times,serif" font-size="14.00">okhmeta:hasMetaTag</text>
</g>
<!-- http://w3id.org/oseg/ont/okhmeta#LegalTag -->
<g id="node11" class="node">
<title>http://w3id.org/oseg/ont/okhmeta#LegalTag</title>
<ellipse fill="none" stroke="#e377c2" cx="213.1" cy="-149.11" rx="103.89" ry="16.03"/>
<text text-anchor="middle" x="213.1" y="-145.41" font-family="Times,serif" font-size="14.00">okhmeta:LegalTag</text>
</g>
<!-- http://w3id.org/oseg/ont/okhmeta#LegalTag&#45;&gt;http://w3id.org/oseg/ont/okhmeta#Tag -->
<g id="edge28" class="edge">
<title>http://w3id.org/oseg/ont/okhmeta#LegalTag&#45;&gt;http://w3id.org/oseg/ont/okhmeta#Tag</title>
<path fill="none" stroke="black" d="M231.98,-165.34C275.42,-202.71 382.56,-294.88 432.48,-337.82"/>
<polygon fill="black" stroke="black" points="430.4,-340.65 440.26,-344.52 434.96,-335.34 430.4,-340.65"/>
<text text-anchor="middle" x="327.73" y="-255.38" font-family="Times,serif" font-size="14.00">a</text>
</g>
<!-- http://w3id.org/oseg/ont/okhmeta#LegalTag&#45;&gt;http://w3id.org/oseg/ont/okhmeta#MetaTag -->
<g id="edge6" class="edge">
<title>http://w3id.org/oseg/ont/okhmeta#LegalTag&#45;&gt;http://w3id.org/oseg/ont/okhmeta#MetaTag</title>
<path fill="none" stroke="black" d="M234.65,-165.18C275.85,-195.92 365.85,-263.06 412.61,-297.95"/>
<polygon fill="black" stroke="black" points="410.71,-300.9 420.82,-304.07 414.9,-295.29 410.71,-300.9"/>
<text text-anchor="middle" x="246.63" y="-220.37" font-family="Times,serif" font-size="14.00">okhmeta:hasMetaTag</text>
</g>
<!-- http://w3id.org/oseg/ont/okhmeta#DocumentationTag -->
<g id="node12" class="node">
<title>http://w3id.org/oseg/ont/okhmeta#DocumentationTag</title>
<ellipse fill="none" stroke="#e377c2" cx="630.51" cy="-57.1" rx="125.32" ry="16.03"/>
<text text-anchor="middle" x="630.51" y="-53.4" font-family="Times,serif" font-size="14.00">okhmeta:Documenta...</text>
</g>
<!-- http://w3id.org/oseg/ont/okhmeta#DocumentationTag&#45;&gt;http://w3id.org/oseg/ont/okhmeta#Tag -->
<g id="edge9" class="edge">
<title>http://w3id.org/oseg/ont/okhmeta#DocumentationTag&#45;&gt;http://w3id.org/oseg/ont/okhmeta#Tag</title>
<path fill="none" stroke="black" d="M621.28,-73.42C592.99,-123.42 507.34,-274.84 473.17,-335.24"/>
<polygon fill="black" stroke="black" points="470.02,-333.7 468.14,-344.13 476.11,-337.15 470.02,-333.7"/>
<text text-anchor="middle" x="542.72" y="-193.13" font-family="Times,serif" font-size="14.00">a</text>
</g>
<!-- http://w3id.org/oseg/ont/okhmeta#DocumentationTag&#45;&gt;http://w3id.org/oseg/ont/okhmeta#MetaTag -->
<g id="edge8" class="edge">
<title>http://w3id.org/oseg/ont/okhmeta#DocumentationTag&#45;&gt;http://w3id.org/oseg/ont/okhmeta#MetaTag</title>
<path fill="none" stroke="black" d="M618.72,-73.55C586.68,-118.27 497.82,-242.29 459.78,-295.36"/>
<polygon fill="black" stroke="black" points="456.9,-293.38 453.92,-303.54 462.59,-297.45 456.9,-293.38"/>
<text text-anchor="middle" x="616.25" y="-173.26" font-family="Times,serif" font-size="14.00">okhmeta:hasMetaTag</text>
</g>
<!-- http://w3id.org/oseg/ont/okhmeta#MakingTag -->
<g id="node15" class="node">
<title>http://w3id.org/oseg/ont/okhmeta#MakingTag</title>
<ellipse fill="none" stroke="#e377c2" cx="463.83" cy="-16.51" rx="113.69" ry="16.03"/>
<text text-anchor="middle" x="463.83" y="-12.81" font-family="Times,serif" font-size="14.00">okhmeta:MakingTag</text>
</g>
<!-- http://w3id.org/oseg/ont/okhmeta#MakingTag&#45;&gt;http://w3id.org/oseg/ont/okhmeta#Tag -->
<g id="edge11" class="edge">
<title>http://w3id.org/oseg/ont/okhmeta#MakingTag&#45;&gt;http://w3id.org/oseg/ont/okhmeta#Tag</title>
<path fill="none" stroke="black" d="M463.59,-33.1C462.79,-88.28 460.23,-265.95 459.25,-333.82"/>
<polygon fill="black" stroke="black" points="455.75,-334.05 459.1,-344.1 462.75,-334.15 455.75,-334.05"/>
<text text-anchor="middle" x="456.92" y="-172.26" font-family="Times,serif" font-size="14.00">a</text>
</g>
<!-- http://w3id.org/oseg/ont/okhmeta#MakingTag&#45;&gt;http://w3id.org/oseg/ont/okhmeta#MetaTag -->
<g id="edge33" class="edge">
<title>http://w3id.org/oseg/ont/okhmeta#MakingTag&#45;&gt;http://w3id.org/oseg/ont/okhmeta#MetaTag</title>
<path fill="none" stroke="black" d="M462.66,-32.83C459.11,-82.54 448.4,-232.42 444.03,-293.57"/>
<polygon fill="black" stroke="black" points="440.54,-293.36 443.32,-303.59 447.52,-293.86 440.54,-293.36"/>
<text text-anchor="middle" x="491.85" y="-152" font-family="Times,serif" font-size="14.00">okhmeta:hasMetaTag</text>
</g>
<!-- http://www.w3.org/2004/02/skos/core#member -->
<g id="node16" class="node">
<title>http://www.w3.org/2004/02/skos/core#member</title>
<ellipse fill="none" stroke="#e377c2" cx="435.47" cy="-187.53" rx="79.39" ry="16.03"/>
<text text-anchor="middle" x="435.47" y="-183.83" font-family="Times,serif" font-size="14.00">skos:member</text>
</g>
<!-- http://w3id.org/oseg/ont/okhmeta#BasicTag -->
<g id="node17" class="node">
<title>http://w3id.org/oseg/ont/okhmeta#BasicTag</title>
<ellipse fill="none" stroke="#e377c2" cx="734.22" cy="-245.13" rx="103.48" ry="16.03"/>
<text text-anchor="middle" x="734.22" y="-241.43" font-family="Times,serif" font-size="14.00">okhmeta:BasicTag</text>
</g>
<!-- http://w3id.org/oseg/ont/okhmeta#BasicTag&#45;&gt;http://w3id.org/oseg/ont/okhmeta#Tag -->
<g id="edge13" class="edge">
<title>http://w3id.org/oseg/ont/okhmeta#BasicTag&#45;&gt;http://w3id.org/oseg/ont/okhmeta#Tag</title>
<path fill="none" stroke="black" d="M697.66,-260.45C647.42,-281.5 557.16,-319.33 503.16,-341.96"/>
<polygon fill="black" stroke="black" points="501.71,-338.77 493.84,-345.86 504.42,-345.23 501.71,-338.77"/>
<text text-anchor="middle" x="595.91" y="-290.01" font-family="Times,serif" font-size="14.00">a</text>
</g>
<!-- http://w3id.org/oseg/ont/okhmeta#BasicTag&#45;&gt;http://w3id.org/oseg/ont/okhmeta#MetaTag -->
<g id="edge22" class="edge">
<title>http://w3id.org/oseg/ont/okhmeta#BasicTag&#45;&gt;http://w3id.org/oseg/ont/okhmeta#MetaTag</title>
<path fill="none" stroke="black" d="M679.97,-259.03C630.68,-271.66 557.94,-290.31 505.9,-303.64"/>
<polygon fill="black" stroke="black" points="504.93,-300.28 496.11,-306.15 506.66,-307.06 504.93,-300.28"/>
<text text-anchor="middle" x="669.93" y="-270.14" font-family="Times,serif" font-size="14.00">okhmeta:hasMetaTag</text>
</g>
<!-- http://w3id.org/oseg/ont/okhmeta#hasMetaTag -->
<g id="node18" class="node">
<title>http://w3id.org/oseg/ont/okhmeta#hasMetaTag</title>
<ellipse fill="none" stroke="#e377c2" cx="435.74" cy="-229.47" rx="120.42" ry="16.03"/>
<text text-anchor="middle" x="435.74" y="-225.77" font-family="Times,serif" font-size="14.00">okhmeta:hasMetaTag</text>
</g>
<!-- http://w3id.org/oseg/ont/okhmeta#hasMetaTag&#45;&gt;http://www.w3.org/2004/02/skos/core#Concept -->
<g id="edge20" class="edge">
<title>http://w3id.org/oseg/ont/okhmeta#hasMetaTag&#45;&gt;http://www.w3.org/2004/02/skos/core#Concept</title>
<path fill="none" stroke="black" d="M349.89,-240.91C324.27,-244.32 296.36,-248.04 271.4,-251.37"/>
<polygon fill="black" stroke="black" points="270.71,-247.93 261.26,-252.72 271.63,-254.87 270.71,-247.93"/>
<text text-anchor="middle" x="306.14" y="-249.94" font-family="Times,serif" font-size="14.00">a</text>
</g>
<!-- http://w3id.org/oseg/ont/okhmeta#hasMetaTag&#45;&gt;http://w3id.org/oseg/ont/okhmeta#MetaTag -->
<g id="edge18" class="edge">
<title>http://w3id.org/oseg/ont/okhmeta#hasMetaTag&#45;&gt;http://w3id.org/oseg/ont/okhmeta#MetaTag</title>
<path fill="none" stroke="black" d="M431.59,-246.03C430.99,-259.36 432.03,-278.34 434.06,-293.73"/>
<polygon fill="black" stroke="black" points="430.61,-294.37 435.61,-303.71 437.53,-293.29 430.61,-294.37"/>
<text text-anchor="middle" x="355.82" y="-273.68" font-family="Times,serif" font-size="14.00">okhmeta:hasMetaTag</text>
</g>
<!-- http://w3id.org/oseg/ont/okhmeta#hasMetaTag&#45;&gt;http://w3id.org/oseg/ont/okhmeta#MetaTag -->
<g id="edge26" class="edge">
<title>http://w3id.org/oseg/ont/okhmeta#hasMetaTag&#45;&gt;http://w3id.org/oseg/ont/okhmeta#MetaTag</title>
<path fill="none" stroke="black" d="M442.35,-246.11C444.75,-259.28 446.33,-277.92 446.46,-293.18"/>
<polygon fill="black" stroke="black" points="442.96,-293.52 446.3,-303.57 449.96,-293.63 442.96,-293.52"/>
<text text-anchor="middle" x="516.9" y="-273.45" font-family="Times,serif" font-size="14.00">dcam:rangeIncludes</text>
</g>
<!-- http://w3id.org/oseg/ont/okhmeta#hasMetaTag&#45;&gt;http://www.w3.org/2004/02/skos/core#member -->
<g id="edge32" class="edge">
<title>http://w3id.org/oseg/ont/okhmeta#hasMetaTag&#45;&gt;http://www.w3.org/2004/02/skos/core#member</title>
<path fill="none" stroke="black" d="M435.64,-212.9C435.64,-212.8 435.64,-212.71 435.64,-212.62"/>
<polygon fill="black" stroke="black" points="439.14,-213.96 435.58,-203.99 432.14,-214.01 439.14,-213.96"/>
<text text-anchor="middle" x="488.64" y="-201.56" font-family="Times,serif" font-size="14.00">subPropertyOf</text>
</g>
<!-- http://w3id.org/oseg/ont/okhmeta#PhysicalTag -->
<g id="node19" class="node">
<title>http://w3id.org/oseg/ont/okhmeta#PhysicalTag</title>
<ellipse fill="none" stroke="#e377c2" cx="774.62" cy="-341.5" rx="118.17" ry="16.03"/>
<text text-anchor="middle" x="774.62" y="-337.8" font-family="Times,serif" font-size="14.00">okhmeta:PhysicalTag</text>
</g>
<!-- http://w3id.org/oseg/ont/okhmeta#PhysicalTag&#45;&gt;http://w3id.org/oseg/ont/okhmeta#Tag -->
<g id="edge35" class="edge">
<title>http://w3id.org/oseg/ont/okhmeta#PhysicalTag&#45;&gt;http://w3id.org/oseg/ont/okhmeta#Tag</title>
<path fill="none" stroke="black" d="M666.4,-348.02C625.92,-350.46 580.59,-353.19 542.65,-355.47"/>
<polygon fill="black" stroke="black" points="542.44,-351.98 532.66,-356.07 542.86,-358.97 542.44,-351.98"/>
<text text-anchor="middle" x="600.02" y="-355.55" font-family="Times,serif" font-size="14.00">a</text>
</g>
<!-- http://w3id.org/oseg/ont/okhmeta#PhysicalTag&#45;&gt;http://w3id.org/oseg/ont/okhmeta#MetaTag -->
<g id="edge14" class="edge">
<title>http://w3id.org/oseg/ont/okhmeta#PhysicalTag&#45;&gt;http://w3id.org/oseg/ont/okhmeta#MetaTag</title>
<path fill="none" stroke="black" d="M667.59,-334.57C629.08,-332.08 585.69,-329.27 547.34,-326.79"/>
<polygon fill="black" stroke="black" points="547.39,-323.29 537.19,-326.13 546.94,-330.27 547.39,-323.29"/>
<text text-anchor="middle" x="684.47" y="-334.48" font-family="Times,serif" font-size="14.00">okhmeta:hasMetaTag</text>
</g>
<!-- http://w3id.org/oseg/ont/okhmeta#HistoryTag -->
<g id="node20" class="node">
<title>http://w3id.org/oseg/ont/okhmeta#HistoryTag</title>
<ellipse fill="none" stroke="#e377c2" cx="155.07" cy="-443.6" rx="113.69" ry="16.03"/>
<text text-anchor="middle" x="155.07" y="-439.9" font-family="Times,serif" font-size="14.00">okhmeta:HistoryTag</text>
</g>
<!-- http://w3id.org/oseg/ont/okhmeta#HistoryTag&#45;&gt;http://w3id.org/oseg/ont/okhmeta#Tag -->
<g id="edge15" class="edge">
<title>http://w3id.org/oseg/ont/okhmeta#HistoryTag&#45;&gt;http://w3id.org/oseg/ont/okhmeta#Tag</title>
<path fill="none" stroke="black" d="M207.99,-429.13C262.19,-414.31 346.18,-391.34 401.84,-376.12"/>
<polygon fill="black" stroke="black" points="402.82,-379.48 411.54,-373.46 400.98,-372.72 402.82,-379.48"/>
<text text-anchor="middle" x="300.41" y="-406.42" font-family="Times,serif" font-size="14.00">a</text>
</g>
<!-- http://w3id.org/oseg/ont/okhmeta#HistoryTag&#45;&gt;http://w3id.org/oseg/ont/okhmeta#MetaTag -->
<g id="edge36" class="edge">
<title>http://w3id.org/oseg/ont/okhmeta#HistoryTag&#45;&gt;http://w3id.org/oseg/ont/okhmeta#MetaTag</title>
<path fill="none" stroke="black" d="M191.14,-428.07C243.38,-405.57 340.07,-363.94 396.99,-339.43"/>
<polygon fill="black" stroke="black" points="398.65,-342.52 406.45,-335.35 395.88,-336.09 398.65,-342.52"/>
<text text-anchor="middle" x="217.06" y="-387.55" font-family="Times,serif" font-size="14.00">okhmeta:hasMetaTag</text>
</g>
<!-- http://w3id.org/oseg/ont/okhmeta#QualityTag -->
<g id="node22" class="node">
<title>http://w3id.org/oseg/ont/okhmeta#QualityTag</title>
<ellipse fill="none" stroke="#e377c2" cx="344.14" cy="-648.53" rx="113.27" ry="16.03"/>
<text text-anchor="middle" x="344.14" y="-644.83" font-family="Times,serif" font-size="14.00">okhmeta:QualityTag</text>
</g>
<!-- http://w3id.org/oseg/ont/okhmeta#QualityTag&#45;&gt;http://w3id.org/oseg/ont/okhmeta#Tag -->
<g id="edge39" class="edge">
<title>http://w3id.org/oseg/ont/okhmeta#QualityTag&#45;&gt;http://w3id.org/oseg/ont/okhmeta#Tag</title>
<path fill="none" stroke="black" d="M350.64,-632.22C369.64,-584.51 425.25,-444.92 448.48,-386.6"/>
<polygon fill="black" stroke="black" points="451.85,-387.59 452.3,-377.01 445.35,-385 451.85,-387.59"/>
<text text-anchor="middle" x="395.06" y="-513.21" font-family="Times,serif" font-size="14.00">a</text>
</g>
<!-- http://w3id.org/oseg/ont/okhmeta#QualityTag&#45;&gt;http://w3id.org/oseg/ont/okhmeta#MetaTag -->
<g id="edge46" class="edge">
<title>http://w3id.org/oseg/ont/okhmeta#QualityTag&#45;&gt;http://w3id.org/oseg/ont/okhmeta#MetaTag</title>
<path fill="none" stroke="black" d="M349,-632.23C364.81,-579.25 414.85,-411.49 434.3,-346.27"/>
<polygon fill="black" stroke="black" points="437.75,-346.96 437.26,-336.37 431.04,-344.95 437.75,-346.96"/>
<text text-anchor="middle" x="468.65" y="-493.05" font-family="Times,serif" font-size="14.00">okhmeta:hasMetaTag</text>
</g>
<!-- http://w3id.org/oseg/ont/okhmeta#DataTag -->
<g id="node23" class="node">
<title>http://w3id.org/oseg/ont/okhmeta#DataTag</title>
<ellipse fill="none" stroke="#e377c2" cx="565.73" cy="-635.14" rx="100.32" ry="16.03"/>
<text text-anchor="middle" x="565.73" y="-631.44" font-family="Times,serif" font-size="14.00">okhmeta:DataTag</text>
</g>
<!-- http://w3id.org/oseg/ont/okhmeta#DataTag&#45;&gt;http://w3id.org/oseg/ont/okhmeta#Tag -->
<g id="edge16" class="edge">
<title>http://w3id.org/oseg/ont/okhmeta#DataTag&#45;&gt;http://w3id.org/oseg/ont/okhmeta#Tag</title>
<path fill="none" stroke="black" d="M559.36,-618.78C541.47,-572.8 490.62,-442.12 468.9,-386.31"/>
<polygon fill="black" stroke="black" points="472.09,-384.84 465.2,-376.79 465.56,-387.38 472.09,-384.84"/>
<text text-anchor="middle" x="509.63" y="-506.34" font-family="Times,serif" font-size="14.00">a</text>
</g>
<!-- http://w3id.org/oseg/ont/okhmeta#DataTag&#45;&gt;http://w3id.org/oseg/ont/okhmeta#MetaTag -->
<g id="edge3" class="edge">
<title>http://w3id.org/oseg/ont/okhmeta#DataTag&#45;&gt;http://w3id.org/oseg/ont/okhmeta#MetaTag</title>
<path fill="none" stroke="black" d="M559.26,-618.64C539.03,-567.05 476.86,-408.52 452.29,-345.86"/>
<polygon fill="black" stroke="black" points="455.46,-344.35 448.55,-336.32 448.94,-346.91 455.46,-344.35"/>
<text text-anchor="middle" x="428.77" y="-471.05" font-family="Times,serif" font-size="14.00">okhmeta:hasMetaTag</text>
</g>
<!-- http://w3id.org/oseg/ont/okhmeta#IdentificationTag -->
<g id="node24" class="node">
<title>http://w3id.org/oseg/ont/okhmeta#IdentificationTag</title>
<ellipse fill="none" stroke="#e377c2" cx="692.64" cy="-146.41" rx="109.7" ry="16.03"/>
<text text-anchor="middle" x="692.64" y="-142.71" font-family="Times,serif" font-size="14.00">okhmeta:Identific...</text>
</g>
<!-- http://w3id.org/oseg/ont/okhmeta#IdentificationTag&#45;&gt;http://w3id.org/oseg/ont/okhmeta#Tag -->
<g id="edge17" class="edge">
<title>http://w3id.org/oseg/ont/okhmeta#IdentificationTag&#45;&gt;http://w3id.org/oseg/ont/okhmeta#Tag</title>
<path fill="none" stroke="black" d="M675.07,-162.5C633.93,-200.18 531.25,-294.22 483.73,-337.75"/>
<polygon fill="black" stroke="black" points="481.33,-335.2 476.32,-344.53 486.06,-340.36 481.33,-335.2"/>
<text text-anchor="middle" x="574.9" y="-253.93" font-family="Times,serif" font-size="14.00">a</text>
</g>
<!-- http://w3id.org/oseg/ont/okhmeta#IdentificationTag&#45;&gt;http://w3id.org/oseg/ont/okhmeta#MetaTag -->
<g id="edge43" class="edge">
<title>http://w3id.org/oseg/ont/okhmeta#IdentificationTag&#45;&gt;http://w3id.org/oseg/ont/okhmeta#MetaTag</title>
<path fill="none" stroke="black" d="M669.52,-162.42C624.41,-193.68 524.61,-262.84 473.56,-298.22"/>
<polygon fill="black" stroke="black" points="471.43,-295.43 465.21,-304 475.42,-301.18 471.43,-295.43"/>
<text text-anchor="middle" x="648.54" y="-219.12" font-family="Times,serif" font-size="14.00">okhmeta:hasMetaTag</text>
</g>
<!-- http://w3id.org/oseg/ont/okhmeta#DataGatheringTag -->
<g id="node25" class="node">
<title>http://w3id.org/oseg/ont/okhmeta#DataGatheringTag</title>
<ellipse fill="none" stroke="#e377c2" cx="191.18" cy="-540.13" rx="122.16" ry="16.03"/>
<text text-anchor="middle" x="191.18" y="-536.43" font-family="Times,serif" font-size="14.00">okhmeta:DataGathe...</text>
</g>
<!-- http://w3id.org/oseg/ont/okhmeta#DataGatheringTag&#45;&gt;http://w3id.org/oseg/ont/okhmeta#Tag -->
<g id="edge42" class="edge">
<title>http://w3id.org/oseg/ont/okhmeta#DataGatheringTag&#45;&gt;http://w3id.org/oseg/ont/okhmeta#Tag</title>
<path fill="none" stroke="black" d="M215.41,-523.88C263.93,-491.32 373,-418.14 427.14,-381.81"/>
<polygon fill="black" stroke="black" points="429.3,-384.58 435.65,-376.1 425.4,-378.76 429.3,-384.58"/>
<text text-anchor="middle" x="316.77" y="-456.64" font-family="Times,serif" font-size="14.00">a</text>
</g>
<!-- http://w3id.org/oseg/ont/okhmeta#DataGatheringTag&#45;&gt;http://w3id.org/oseg/ont/okhmeta#MetaTag -->
<g id="edge41" class="edge">
<title>http://w3id.org/oseg/ont/okhmeta#DataGatheringTag&#45;&gt;http://w3id.org/oseg/ont/okhmeta#MetaTag</title>
<path fill="none" stroke="black" d="M209.63,-523.94C253.69,-485.3 365.11,-387.56 416.03,-342.89"/>
<polygon fill="black" stroke="black" points="418.45,-345.42 423.66,-336.19 413.84,-340.16 418.45,-345.42"/>
<text text-anchor="middle" x="389.83" y="-437.22" font-family="Times,serif" font-size="14.00">okhmeta:hasMetaTag</text>
</g>
<!-- http://w3id.org/oseg/ont/okhmeta#PartsTag -->
<g id="node26" class="node">
<title>http://w3id.org/oseg/ont/okhmeta#PartsTag</title>
<ellipse fill="none" stroke="#e377c2" cx="597.18" cy="-585.53" rx="103.48" ry="16.03"/>
<text text-anchor="middle" x="597.18" y="-581.83" font-family="Times,serif" font-size="14.00">okhmeta:PartsTag</text>
</g>
<!-- http://w3id.org/oseg/ont/okhmeta#PartsTag&#45;&gt;http://w3id.org/oseg/ont/okhmeta#Tag -->
<g id="edge19" class="edge">
<title>http://w3id.org/oseg/ont/okhmeta#PartsTag&#45;&gt;http://w3id.org/oseg/ont/okhmeta#Tag</title>
<path fill="none" stroke="black" d="M587.01,-568.98C562.97,-529.88 502.54,-431.57 474.11,-385.31"/>
<polygon fill="black" stroke="black" points="477.08,-383.47 468.87,-376.79 471.12,-387.14 477.08,-383.47"/>
<text text-anchor="middle" x="526.06" y="-465.95" font-family="Times,serif" font-size="14.00">a</text>
</g>
<!-- http://w3id.org/oseg/ont/okhmeta#PartsTag&#45;&gt;http://w3id.org/oseg/ont/okhmeta#MetaTag -->
<g id="edge44" class="edge">
<title>http://w3id.org/oseg/ont/okhmeta#PartsTag&#45;&gt;http://w3id.org/oseg/ont/okhmeta#MetaTag</title>
<path fill="none" stroke="black" d="M587.72,-569.32C561.61,-524.6 488.41,-399.23 456.89,-345.24"/>
<polygon fill="black" stroke="black" points="459.75,-343.19 451.68,-336.32 453.7,-346.72 459.75,-343.19"/>
<text text-anchor="middle" x="560.8" y="-446.08" font-family="Times,serif" font-size="14.00">okhmeta:hasMetaTag</text>
</g>
<!-- http://w3id.org/oseg/ont/okhmeta#ExtendedInfoTag -->
<g id="node27" class="node">
<title>http://w3id.org/oseg/ont/okhmeta#ExtendedInfoTag</title>
<ellipse fill="none" stroke="#e377c2" cx="119.74" cy="-334.62" rx="120.42" ry="16.03"/>
<text text-anchor="middle" x="119.74" y="-330.92" font-family="Times,serif" font-size="14.00">okhmeta:ExtendedI...</text>
</g>
<!-- http://w3id.org/oseg/ont/okhmeta#ExtendedInfoTag&#45;&gt;http://w3id.org/oseg/ont/okhmeta#Tag -->
<g id="edge21" class="edge">
<title>http://w3id.org/oseg/ont/okhmeta#ExtendedInfoTag&#45;&gt;http://w3id.org/oseg/ont/okhmeta#Tag</title>
<path fill="none" stroke="black" d="M224.72,-342.64C273.64,-346.37 330.99,-350.75 376.69,-354.25"/>
<polygon fill="black" stroke="black" points="376.61,-357.75 386.85,-355.02 377.14,-350.77 376.61,-357.75"/>
<text text-anchor="middle" x="296.2" y="-352.24" font-family="Times,serif" font-size="14.00">a</text>
</g>
<!-- http://w3id.org/oseg/ont/okhmeta#ExtendedInfoTag&#45;&gt;http://w3id.org/oseg/ont/okhmeta#MetaTag -->
<g id="edge30" class="edge">
<title>http://w3id.org/oseg/ont/okhmeta#ExtendedInfoTag&#45;&gt;http://w3id.org/oseg/ont/okhmeta#MetaTag</title>
<path fill="none" stroke="black" d="M233.86,-329.44C266.14,-327.97 301.19,-326.38 333.16,-324.93"/>
<polygon fill="black" stroke="black" points="333.59,-328.41 343.42,-324.46 333.27,-321.42 333.59,-328.41"/>
<text text-anchor="middle" x="245.01" y="-315.98" font-family="Times,serif" font-size="14.00">okhmeta:hasMetaTag</text>
</g>
<!-- http://w3id.org/oseg/ont/okhmeta#DevelopmentTag -->
<g id="node28" class="node">
<title>http://w3id.org/oseg/ont/okhmeta#DevelopmentTag</title>
<ellipse fill="none" stroke="#e377c2" cx="760.64" cy="-448.54" rx="124.4" ry="16.03"/>
<text text-anchor="middle" x="760.64" y="-444.84" font-family="Times,serif" font-size="14.00">okhmeta:Developme...</text>
</g>
<!-- http://w3id.org/oseg/ont/okhmeta#DevelopmentTag&#45;&gt;http://w3id.org/oseg/ont/okhmeta#Tag -->
<g id="edge45" class="edge">
<title>http://w3id.org/oseg/ont/okhmeta#DevelopmentTag&#45;&gt;http://w3id.org/oseg/ont/okhmeta#Tag</title>
<path fill="none" stroke="black" d="M709.45,-433.61C655.19,-417.78 569.82,-392.88 514.08,-376.63"/>
<polygon fill="black" stroke="black" points="514.96,-373.24 504.38,-373.8 513,-379.96 514.96,-373.24"/>
<text text-anchor="middle" x="607.26" y="-408.92" font-family="Times,serif" font-size="14.00">a</text>
</g>
<!-- http://w3id.org/oseg/ont/okhmeta#DevelopmentTag&#45;&gt;http://w3id.org/oseg/ont/okhmeta#MetaTag -->
<g id="edge12" class="edge">
<title>http://w3id.org/oseg/ont/okhmeta#DevelopmentTag&#45;&gt;http://w3id.org/oseg/ont/okhmeta#MetaTag</title>
<path fill="none" stroke="black" d="M722.22,-433.03C663.68,-409.4 552.29,-364.44 489.05,-338.92"/>
<polygon fill="black" stroke="black" points="490.29,-335.64 479.71,-335.14 487.67,-342.13 490.29,-335.64"/>
<text text-anchor="middle" x="528.64" y="-389.77" font-family="Times,serif" font-size="14.00">okhmeta:hasMetaTag</text>
</g>
</g>
</svg>
