<?xml version="1.0" encoding="UTF-8" standalone="no"?>
<!DOCTYPE svg PUBLIC "-//W3C//DTD SVG 1.1//EN"
 "http://www.w3.org/Graphics/SVG/1.1/DTD/svg11.dtd">
<!-- Generated by graphviz version 2.43.0 (0)
 -->
<!-- Title: G Pages: 1 -->
<svg width="1749pt" height="1716pt"
 viewBox="0.00 0.00 1749.48 1716.26" xmlns="http://www.w3.org/2000/svg" xmlns:xlink="http://www.w3.org/1999/xlink">
<g id="graph0" class="graph" transform="scale(1 1) rotate(0) translate(4 1712.26)">
<title>G</title>
<polygon fill="white" stroke="transparent" points="-4,4 -4,-1712.26 1745.48,-1712.26 1745.48,4 -4,4"/>
<!-- http://w3id.org/oseg/ont/ods#Dataset -->
<g id="node1" class="node">
<title>http://w3id.org/oseg/ont/ods#Dataset</title>
<ellipse fill="none" stroke="#1f77b4" cx="441.85" cy="-1678.26" rx="71.34" ry="16.03"/>
<text text-anchor="middle" x="441.85" y="-1674.56" font-family="Times,serif" font-size="14.00">ods:Dataset</text>
</g>
<!-- http://schema.org/DefinedTerm -->
<g id="node2" class="node">
<title>http://schema.org/DefinedTerm</title>
<ellipse fill="none" stroke="#1f77b4" cx="1623.39" cy="-755.26" rx="118.17" ry="16.03"/>
<text text-anchor="middle" x="1623.39" y="-751.56" font-family="Times,serif" font-size="14.00">schema:DefinedTerm</text>
</g>
<!-- http://schema.org/DefinedTermSet -->
<g id="node3" class="node">
<title>http://schema.org/DefinedTermSet</title>
<ellipse fill="none" stroke="#1f77b4" cx="884.08" cy="-1415.26" rx="116.85" ry="16.03"/>
<text text-anchor="middle" x="884.08" y="-1411.56" font-family="Times,serif" font-size="14.00">schema:DefinedTer...</text>
</g>
<!-- http://spdx.org/rdf/terms#SpdxItem -->
<g id="node4" class="node">
<title>http://spdx.org/rdf/terms#SpdxItem</title>
<ellipse fill="none" stroke="#1f77b4" cx="441.85" cy="-1627.26" rx="87.86" ry="16.03"/>
<text text-anchor="middle" x="441.85" y="-1623.56" font-family="Times,serif" font-size="14.00">spdx:SpdxItem</text>
</g>
<!-- http://w3id.org/oseg/ont/okhimg#slotModelFromLeft -->
<g id="node5" class="node">
<title>http://w3id.org/oseg/ont/okhimg#slotModelFromLeft</title>
<ellipse fill="none" stroke="#e377c2" cx="1333.03" cy="-1340.26" rx="116.85" ry="16.03"/>
<text text-anchor="middle" x="1333.03" y="-1336.56" font-family="Times,serif" font-size="14.00">okhimg:slotModelF...</text>
</g>
<!-- http://w3id.org/oseg/ont/okhimg#slotModelFromLeft&#45;&gt;http://schema.org/DefinedTerm -->
<g id="edge1" class="edge">
<title>http://w3id.org/oseg/ont/okhimg#slotModelFromLeft&#45;&gt;http://schema.org/DefinedTerm</title>
<path fill="none" stroke="black" d="M1424.04,-1330.01C1436.79,-1326.24 1449.29,-1321.14 1460.3,-1314.26 1476.97,-1303.85 1478.68,-1296.91 1487.3,-1279.26 1574.2,-1101.52 1609.54,-861.61 1619.35,-782.09"/>
<polygon fill="black" stroke="black" points="1622.85,-782.31 1620.57,-771.96 1615.9,-781.47 1622.85,-782.31"/>
<text text-anchor="middle" x="1482.8" y="-1301.06" font-family="Times,serif" font-size="14.00">a</text>
</g>
<!-- http://w3id.org/oseg/ont/okhimg#tagModel -->
<g id="node6" class="node">
<title>http://w3id.org/oseg/ont/okhimg#tagModel</title>
<ellipse fill="none" stroke="#e377c2" cx="1333.03" cy="-1289.26" rx="99.9" ry="16.03"/>
<text text-anchor="middle" x="1333.03" y="-1285.56" font-family="Times,serif" font-size="14.00">okhimg:tagModel</text>
</g>
<!-- http://w3id.org/oseg/ont/okhimg#tagModel&#45;&gt;http://schema.org/DefinedTerm -->
<g id="edge2" class="edge">
<title>http://w3id.org/oseg/ont/okhimg#tagModel&#45;&gt;http://schema.org/DefinedTerm</title>
<path fill="none" stroke="black" d="M1427.83,-1284.23C1449.64,-1278.94 1471.17,-1269.77 1487.3,-1254.26 1557.57,-1186.75 1605.83,-874.73 1618.86,-781.58"/>
<polygon fill="black" stroke="black" points="1622.34,-781.96 1620.24,-771.58 1615.4,-781.01 1622.34,-781.96"/>
<text text-anchor="middle" x="1482.8" y="-1264.06" font-family="Times,serif" font-size="14.00">a</text>
</g>
<!-- http://w3id.org/oseg/ont/okhimg#slotOrganizationLogo -->
<g id="node7" class="node">
<title>http://w3id.org/oseg/ont/okhimg#slotOrganizationLogo</title>
<ellipse fill="none" stroke="#e377c2" cx="884.08" cy="-1210.26" rx="114.6" ry="16.03"/>
<text text-anchor="middle" x="884.08" y="-1206.56" font-family="Times,serif" font-size="14.00">okhimg:slotOrgani...</text>
</g>
<!-- http://w3id.org/oseg/ont/okhimg#slotOrganizationLogo&#45;&gt;http://schema.org/DefinedTerm -->
<g id="edge50" class="edge">
<title>http://w3id.org/oseg/ont/okhimg#slotOrganizationLogo&#45;&gt;http://schema.org/DefinedTerm</title>
<path fill="none" stroke="black" d="M973.45,-1220.46C1113.23,-1234.97 1377.92,-1255.46 1460.3,-1213.26 1541.55,-1171.65 1601.28,-872.99 1617.8,-781.7"/>
<polygon fill="black" stroke="black" points="1621.29,-782.09 1619.6,-771.63 1614.39,-780.85 1621.29,-782.09"/>
<text text-anchor="middle" x="1333.03" y="-1243.06" font-family="Times,serif" font-size="14.00">a</text>
</g>
<!-- http://w3id.org/oseg/ont/okhimg#slotOrganizationLogoBw -->
<g id="node13" class="node">
<title>http://w3id.org/oseg/ont/okhimg#slotOrganizationLogoBw</title>
<ellipse fill="none" stroke="#e377c2" cx="1333.03" cy="-1188.26" rx="114.6" ry="16.03"/>
<text text-anchor="middle" x="1333.03" y="-1184.56" font-family="Times,serif" font-size="14.00">okhimg:slotOrgani...</text>
</g>
<!-- http://w3id.org/oseg/ont/okhimg#slotOrganizationLogo&#45;&gt;http://w3id.org/oseg/ont/okhimg#slotOrganizationLogoBw -->
<g id="edge14" class="edge">
<title>http://w3id.org/oseg/ont/okhimg#slotOrganizationLogo&#45;&gt;http://w3id.org/oseg/ont/okhimg#slotOrganizationLogoBw</title>
<path fill="none" stroke="black" d="M933.07,-1195.5C958.48,-1188.44 990.36,-1180.78 1019.45,-1177.26 1091.07,-1168.6 1172.54,-1171.89 1234.34,-1177.06"/>
<polygon fill="black" stroke="black" points="1234.21,-1180.56 1244.48,-1177.94 1234.82,-1173.59 1234.21,-1180.56"/>
<text text-anchor="middle" x="1103.6" y="-1181.06" font-family="Times,serif" font-size="14.00">seeAlso</text>
</g>
<!-- http://w3id.org/oseg/ont/okhimg#slotIconMain -->
<g id="node8" class="node">
<title>http://w3id.org/oseg/ont/okhimg#slotIconMain</title>
<ellipse fill="none" stroke="#e377c2" cx="884.08" cy="-1475.26" rx="117.26" ry="16.03"/>
<text text-anchor="middle" x="884.08" y="-1471.56" font-family="Times,serif" font-size="14.00">okhimg:slotIconMain</text>
</g>
<!-- http://w3id.org/oseg/ont/okhimg#slotIconMain&#45;&gt;http://schema.org/DefinedTerm -->
<g id="edge4" class="edge">
<title>http://w3id.org/oseg/ont/okhimg#slotIconMain&#45;&gt;http://schema.org/DefinedTerm</title>
<path fill="none" stroke="black" d="M938.68,-1489.77C1045.41,-1515.52 1288.95,-1558.32 1460.3,-1466.26 1585.49,-1399.01 1615.76,-902.96 1621.32,-781.87"/>
<polygon fill="black" stroke="black" points="1624.83,-781.79 1621.77,-771.65 1617.83,-781.48 1624.83,-781.79"/>
<text text-anchor="middle" x="1333.03" y="-1526.06" font-family="Times,serif" font-size="14.00">a</text>
</g>
<!-- http://w3id.org/oseg/ont/okhimg#slotIconMainBw -->
<g id="node22" class="node">
<title>http://w3id.org/oseg/ont/okhimg#slotIconMainBw</title>
<ellipse fill="none" stroke="#e377c2" cx="1333.03" cy="-1441.26" rx="117.26" ry="16.03"/>
<text text-anchor="middle" x="1333.03" y="-1437.56" font-family="Times,serif" font-size="14.00">okhimg:slotIconMa...</text>
</g>
<!-- http://w3id.org/oseg/ont/okhimg#slotIconMain&#45;&gt;http://w3id.org/oseg/ont/okhimg#slotIconMainBw -->
<g id="edge30" class="edge">
<title>http://w3id.org/oseg/ont/okhimg#slotIconMain&#45;&gt;http://w3id.org/oseg/ont/okhimg#slotIconMainBw</title>
<path fill="none" stroke="black" d="M938.26,-1460.8C958.26,-1454.96 981.08,-1447.82 1001.45,-1440.26 1009.66,-1437.22 1010.89,-1434.08 1019.45,-1432.26 1092.62,-1416.74 1112.99,-1429.93 1187.75,-1432.26 1197.44,-1432.57 1207.49,-1432.98 1217.57,-1433.47"/>
<polygon fill="black" stroke="black" points="1217.48,-1436.97 1227.65,-1433.98 1217.84,-1429.98 1217.48,-1436.97"/>
<text text-anchor="middle" x="1103.6" y="-1436.06" font-family="Times,serif" font-size="14.00">seeAlso</text>
</g>
<!-- http://w3id.org/oseg/ont/okhimg#slotLogo -->
<g id="node9" class="node">
<title>http://w3id.org/oseg/ont/okhimg#slotLogo</title>
<ellipse fill="none" stroke="#e377c2" cx="884.08" cy="-1109.26" rx="94.51" ry="16.03"/>
<text text-anchor="middle" x="884.08" y="-1105.56" font-family="Times,serif" font-size="14.00">okhimg:slotLogo</text>
</g>
<!-- http://w3id.org/oseg/ont/okhimg#slotLogo&#45;&gt;http://schema.org/DefinedTerm -->
<g id="edge5" class="edge">
<title>http://w3id.org/oseg/ont/okhimg#slotLogo&#45;&gt;http://schema.org/DefinedTerm</title>
<path fill="none" stroke="black" d="M959.63,-1119.13C1095.87,-1135.64 1378.58,-1162.38 1460.3,-1112.26 1580.1,-1038.8 1612.09,-851.64 1619.99,-781.95"/>
<polygon fill="black" stroke="black" points="1623.49,-782.12 1621.06,-771.81 1616.53,-781.38 1623.49,-782.12"/>
<text text-anchor="middle" x="1333.03" y="-1145.06" font-family="Times,serif" font-size="14.00">a</text>
</g>
<!-- http://w3id.org/oseg/ont/okhimg#slotLogoBw -->
<g id="node14" class="node">
<title>http://w3id.org/oseg/ont/okhimg#slotLogoBw</title>
<ellipse fill="none" stroke="#e377c2" cx="1333.03" cy="-1087.26" rx="111.03" ry="16.03"/>
<text text-anchor="middle" x="1333.03" y="-1083.56" font-family="Times,serif" font-size="14.00">okhimg:slotLogoBw</text>
</g>
<!-- http://w3id.org/oseg/ont/okhimg#slotLogo&#45;&gt;http://w3id.org/oseg/ont/okhimg#slotLogoBw -->
<g id="edge12" class="edge">
<title>http://w3id.org/oseg/ont/okhimg#slotLogo&#45;&gt;http://w3id.org/oseg/ont/okhimg#slotLogoBw</title>
<path fill="none" stroke="black" d="M926.84,-1094.64C953.06,-1086.25 987.8,-1076.54 1019.45,-1072.26 1094.81,-1062.08 1181.19,-1067.51 1244.03,-1074.53"/>
<polygon fill="black" stroke="black" points="1243.96,-1078.05 1254.29,-1075.72 1244.76,-1071.1 1243.96,-1078.05"/>
<text text-anchor="middle" x="1103.6" y="-1076.06" font-family="Times,serif" font-size="14.00">seeAlso</text>
</g>
<!-- http://w3id.org/oseg/ont/okhimg#tagDiagram -->
<g id="node10" class="node">
<title>http://w3id.org/oseg/ont/okhimg#tagDiagram</title>
<ellipse fill="none" stroke="#e377c2" cx="1333.03" cy="-1036.26" rx="111.95" ry="16.03"/>
<text text-anchor="middle" x="1333.03" y="-1032.56" font-family="Times,serif" font-size="14.00">okhimg:tagDiagram</text>
</g>
<!-- http://w3id.org/oseg/ont/okhimg#tagDiagram&#45;&gt;http://schema.org/DefinedTerm -->
<g id="edge7" class="edge">
<title>http://w3id.org/oseg/ont/okhimg#tagDiagram&#45;&gt;http://schema.org/DefinedTerm</title>
<path fill="none" stroke="black" d="M1424.62,-1026.89C1437.29,-1023 1449.62,-1017.63 1460.3,-1010.26 1544.91,-951.9 1594.96,-833.5 1613.78,-781.15"/>
<polygon fill="black" stroke="black" points="1617.13,-782.19 1617.13,-771.6 1610.52,-779.88 1617.13,-782.19"/>
<text text-anchor="middle" x="1482.8" y="-1000.06" font-family="Times,serif" font-size="14.00">a</text>
</g>
<!-- http://w3id.org/oseg/ont/okhimg -->
<g id="node11" class="node">
<title>http://w3id.org/oseg/ont/okhimg</title>
<ellipse fill="none" stroke="#e377c2" cx="70" cy="-1493.26" rx="70.01" ry="16.03"/>
<text text-anchor="middle" x="70" y="-1489.56" font-family="Times,serif" font-size="14.00">ns1:okhimg</text>
</g>
<!-- http://w3id.org/oseg/ont/okhimg&#45;&gt;http://w3id.org/oseg/ont/ods#Dataset -->
<g id="edge37" class="edge">
<title>http://w3id.org/oseg/ont/okhimg&#45;&gt;http://w3id.org/oseg/ont/ods#Dataset</title>
<path fill="none" stroke="black" d="M74.31,-1509.74C82.11,-1543.8 105.12,-1621.68 158.01,-1656.26 222.93,-1698.71 315.01,-1697.26 376.27,-1689.86"/>
<polygon fill="black" stroke="black" points="376.74,-1693.32 386.2,-1688.57 375.84,-1686.38 376.74,-1693.32"/>
<text text-anchor="middle" x="234.01" y="-1697.06" font-family="Times,serif" font-size="14.00">a</text>
</g>
<!-- http://w3id.org/oseg/ont/okhimg&#45;&gt;http://spdx.org/rdf/terms#SpdxItem -->
<g id="edge8" class="edge">
<title>http://w3id.org/oseg/ont/okhimg&#45;&gt;http://spdx.org/rdf/terms#SpdxItem</title>
<path fill="none" stroke="black" d="M78.31,-1509.76C90.62,-1535.32 118.12,-1583.78 158.01,-1605.26 220.21,-1638.76 301.52,-1641.63 360.98,-1637.67"/>
<polygon fill="black" stroke="black" points="361.36,-1641.15 371.08,-1636.92 360.84,-1634.17 361.36,-1641.15"/>
<text text-anchor="middle" x="234.01" y="-1642.06" font-family="Times,serif" font-size="14.00">a</text>
</g>
<!-- http://w3id.org/oseg/ont/oseg&#45;profiles#robinVobruba -->
<g id="node16" class="node">
<title>http://w3id.org/oseg/ont/oseg&#45;profiles#robinVobruba</title>
<ellipse fill="none" stroke="#e377c2" cx="441.85" cy="-1576.26" rx="113.69" ry="16.03"/>
<text text-anchor="middle" x="441.85" y="-1572.56" font-family="Times,serif" font-size="14.00">osegprof:robinVob...</text>
</g>
<!-- http://w3id.org/oseg/ont/okhimg&#45;&gt;http://w3id.org/oseg/ont/oseg&#45;profiles#robinVobruba -->
<g id="edge16" class="edge">
<title>http://w3id.org/oseg/ont/okhimg&#45;&gt;http://w3id.org/oseg/ont/oseg&#45;profiles#robinVobruba</title>
<path fill="none" stroke="black" d="M84.09,-1509.32C99.61,-1526.99 127.27,-1554.46 158.01,-1566.26 218.15,-1589.37 290.89,-1591.42 347.54,-1587.94"/>
<polygon fill="black" stroke="black" points="347.83,-1591.43 357.57,-1587.25 347.35,-1584.44 347.83,-1591.43"/>
<text text-anchor="middle" x="234.01" y="-1593.06" font-family="Times,serif" font-size="14.00">schema:creator</text>
</g>
<!-- http://w3id.org/oseg/ont/okhimg&#45;&gt;http://w3id.org/oseg/ont/oseg&#45;profiles#robinVobruba -->
<g id="edge29" class="edge">
<title>http://w3id.org/oseg/ont/okhimg&#45;&gt;http://w3id.org/oseg/ont/oseg&#45;profiles#robinVobruba</title>
<path fill="none" stroke="black" d="M101.76,-1507.9C118.12,-1515.1 138.78,-1523.28 158.01,-1528.26 223.91,-1545.33 242.92,-1535.66 310.01,-1547.26 330.7,-1550.84 353.06,-1555.5 373.34,-1560.03"/>
<polygon fill="black" stroke="black" points="372.59,-1563.45 383.11,-1562.24 374.13,-1556.62 372.59,-1563.45"/>
<text text-anchor="middle" x="234.01" y="-1551.06" font-family="Times,serif" font-size="14.00">dcterms:creator</text>
</g>
<!-- http://spdx.org/licenses/AGPL&#45;3.0&#45;or&#45;later -->
<g id="node17" class="node">
<title>http://spdx.org/licenses/AGPL&#45;3.0&#45;or&#45;later</title>
<ellipse fill="none" stroke="#e377c2" cx="441.85" cy="-1525.26" rx="111.95" ry="16.03"/>
<text text-anchor="middle" x="441.85" y="-1521.56" font-family="Times,serif" font-size="14.00">spdxl:AGPL&#45;3.0&#45;or...</text>
</g>
<!-- http://w3id.org/oseg/ont/okhimg&#45;&gt;http://spdx.org/licenses/AGPL&#45;3.0&#45;or&#45;later -->
<g id="edge17" class="edge">
<title>http://w3id.org/oseg/ont/okhimg&#45;&gt;http://spdx.org/licenses/AGPL&#45;3.0&#45;or&#45;later</title>
<path fill="none" stroke="black" d="M136.19,-1498.58C184.25,-1502.53 251.21,-1508.11 310.01,-1513.26 318.85,-1514.04 328.03,-1514.86 337.24,-1515.68"/>
<polygon fill="black" stroke="black" points="336.95,-1519.17 347.23,-1516.59 337.58,-1512.2 336.95,-1519.17"/>
<text text-anchor="middle" x="234.01" y="-1517.06" font-family="Times,serif" font-size="14.00">spdx:licenseDeclared</text>
</g>
<!-- http://w3id.org/oseg/ont/okhimg#slots -->
<g id="node23" class="node">
<title>http://w3id.org/oseg/ont/okhimg#slots</title>
<ellipse fill="none" stroke="#e377c2" cx="441.85" cy="-1474.26" rx="75.82" ry="16.03"/>
<text text-anchor="middle" x="441.85" y="-1470.56" font-family="Times,serif" font-size="14.00">okhimg:slots</text>
</g>
<!-- http://w3id.org/oseg/ont/okhimg&#45;&gt;http://w3id.org/oseg/ont/okhimg#slots -->
<g id="edge27" class="edge">
<title>http://w3id.org/oseg/ont/okhimg&#45;&gt;http://w3id.org/oseg/ont/okhimg#slots</title>
<path fill="none" stroke="black" d="M119.06,-1481.53C131.65,-1478.95 145.27,-1476.59 158.01,-1475.26 224.91,-1468.3 301.19,-1468.5 357.66,-1470.19"/>
<polygon fill="black" stroke="black" points="357.86,-1473.7 367.97,-1470.52 358.09,-1466.7 357.86,-1473.7"/>
<text text-anchor="middle" x="234.01" y="-1479.06" font-family="Times,serif" font-size="14.00">void:rootResource</text>
</g>
<!-- http://w3id.org/oseg/ont/0.1.0/okhimg -->
<g id="node24" class="node">
<title>http://w3id.org/oseg/ont/0.1.0/okhimg</title>
<ellipse fill="none" stroke="#e377c2" cx="441.85" cy="-1423.26" rx="70.01" ry="16.03"/>
<text text-anchor="middle" x="441.85" y="-1419.56" font-family="Times,serif" font-size="14.00">ns2:okhimg</text>
</g>
<!-- http://w3id.org/oseg/ont/okhimg&#45;&gt;http://w3id.org/oseg/ont/0.1.0/okhimg -->
<g id="edge24" class="edge">
<title>http://w3id.org/oseg/ont/okhimg&#45;&gt;http://w3id.org/oseg/ont/0.1.0/okhimg</title>
<path fill="none" stroke="black" d="M95.11,-1477.95C112.03,-1468 135.56,-1455.72 158.01,-1449.26 224.96,-1430.02 304.15,-1424.09 361.68,-1422.65"/>
<polygon fill="black" stroke="black" points="361.88,-1426.15 371.8,-1422.44 361.73,-1419.15 361.88,-1426.15"/>
<text text-anchor="middle" x="234.01" y="-1453.06" font-family="Times,serif" font-size="14.00">owl:versionIRI</text>
</g>
<!-- http://w3id.org/oseg/ont/okhimg#tags -->
<g id="node30" class="node">
<title>http://w3id.org/oseg/ont/okhimg#tags</title>
<ellipse fill="none" stroke="#e377c2" cx="441.85" cy="-1372.26" rx="73.58" ry="16.03"/>
<text text-anchor="middle" x="441.85" y="-1368.56" font-family="Times,serif" font-size="14.00">okhimg:tags</text>
</g>
<!-- http://w3id.org/oseg/ont/okhimg&#45;&gt;http://w3id.org/oseg/ont/okhimg#tags -->
<g id="edge40" class="edge">
<title>http://w3id.org/oseg/ont/okhimg&#45;&gt;http://w3id.org/oseg/ont/okhimg#tags</title>
<path fill="none" stroke="black" d="M81.72,-1477C96.29,-1456.41 124.41,-1421.65 158.01,-1405.26 221.44,-1374.34 302.07,-1367.64 361,-1367.77"/>
<polygon fill="black" stroke="black" points="360.97,-1371.27 371,-1367.85 361.03,-1364.27 360.97,-1371.27"/>
<text text-anchor="middle" x="234.01" y="-1409.06" font-family="Times,serif" font-size="14.00">void:rootResource</text>
</g>
<!-- http://w3id.org/oseg/ont/oseg&#45;profiles#Iopa -->
<g id="node38" class="node">
<title>http://w3id.org/oseg/ont/oseg&#45;profiles#Iopa</title>
<ellipse fill="none" stroke="#e377c2" cx="441.85" cy="-1321.26" rx="80.72" ry="16.03"/>
<text text-anchor="middle" x="441.85" y="-1317.56" font-family="Times,serif" font-size="14.00">osegprof:Iopa</text>
</g>
<!-- http://w3id.org/oseg/ont/okhimg&#45;&gt;http://w3id.org/oseg/ont/oseg&#45;profiles#Iopa -->
<g id="edge45" class="edge">
<title>http://w3id.org/oseg/ont/okhimg&#45;&gt;http://w3id.org/oseg/ont/oseg&#45;profiles#Iopa</title>
<path fill="none" stroke="black" d="M75.6,-1476.99C85.21,-1446.28 110.58,-1380.21 158.01,-1350.26 219.46,-1311.46 303.78,-1307.7 364.34,-1311.51"/>
<polygon fill="black" stroke="black" points="364.38,-1315.02 374.61,-1312.24 364.88,-1308.04 364.38,-1315.02"/>
<text text-anchor="middle" x="234.01" y="-1354.06" font-family="Times,serif" font-size="14.00">dcterms:publisher</text>
</g>
<!-- http://id.loc.gov/vocabulary/iso639&#45;1/en -->
<g id="node42" class="node">
<title>http://id.loc.gov/vocabulary/iso639&#45;1/en</title>
<ellipse fill="none" stroke="#e377c2" cx="441.85" cy="-1270.26" rx="45.01" ry="16.03"/>
<text text-anchor="middle" x="441.85" y="-1266.56" font-family="Times,serif" font-size="14.00">ns3:en</text>
</g>
<!-- http://w3id.org/oseg/ont/okhimg&#45;&gt;http://id.loc.gov/vocabulary/iso639&#45;1/en -->
<g id="edge49" class="edge">
<title>http://w3id.org/oseg/ont/okhimg&#45;&gt;http://id.loc.gov/vocabulary/iso639&#45;1/en</title>
<path fill="none" stroke="black" d="M72.5,-1476.95C77.07,-1437.4 94.72,-1336.36 158.01,-1291.26 227.38,-1241.83 332.15,-1249.62 392.8,-1259.86"/>
<polygon fill="black" stroke="black" points="392.41,-1263.35 402.87,-1261.66 393.64,-1256.46 392.41,-1263.35"/>
<text text-anchor="middle" x="234.01" y="-1295.06" font-family="Times,serif" font-size="14.00">dcterms:language</text>
</g>
<!-- http://w3id.org/oseg/ont/okhimg#slotPhotoThingMain -->
<g id="node12" class="node">
<title>http://w3id.org/oseg/ont/okhimg#slotPhotoThingMain</title>
<ellipse fill="none" stroke="#e377c2" cx="1333.03" cy="-985.26" rx="114.6" ry="16.03"/>
<text text-anchor="middle" x="1333.03" y="-981.56" font-family="Times,serif" font-size="14.00">okhimg:slotPhotoT...</text>
</g>
<!-- http://w3id.org/oseg/ont/okhimg#slotPhotoThingMain&#45;&gt;http://schema.org/DefinedTerm -->
<g id="edge9" class="edge">
<title>http://w3id.org/oseg/ont/okhimg#slotPhotoThingMain&#45;&gt;http://schema.org/DefinedTerm</title>
<path fill="none" stroke="black" d="M1422.96,-975.15C1436.07,-971.38 1448.96,-966.24 1460.3,-959.26 1533.18,-914.46 1586.84,-824.52 1609.91,-780.58"/>
<polygon fill="black" stroke="black" points="1613.02,-782.18 1614.48,-771.69 1606.8,-778.98 1613.02,-782.18"/>
<text text-anchor="middle" x="1482.8" y="-947.06" font-family="Times,serif" font-size="14.00">a</text>
</g>
<!-- http://w3id.org/oseg/ont/okhimg#slotOrganizationLogoBw&#45;&gt;http://schema.org/DefinedTerm -->
<g id="edge11" class="edge">
<title>http://w3id.org/oseg/ont/okhimg#slotOrganizationLogoBw&#45;&gt;http://schema.org/DefinedTerm</title>
<path fill="none" stroke="black" d="M1434.34,-1180.64C1453.69,-1175.19 1472.51,-1166.61 1487.3,-1153.26 1599.64,-1051.91 1618.62,-853.63 1621.78,-781.93"/>
<polygon fill="black" stroke="black" points="1625.28,-782.05 1622.15,-771.92 1618.28,-781.79 1625.28,-782.05"/>
<text text-anchor="middle" x="1482.8" y="-1163.06" font-family="Times,serif" font-size="14.00">a</text>
</g>
<!-- http://w3id.org/oseg/ont/okhimg#slotOrganizationLogoBw&#45;&gt;http://w3id.org/oseg/ont/okhimg#slotOrganizationLogo -->
<g id="edge3" class="edge">
<title>http://w3id.org/oseg/ont/okhimg#slotOrganizationLogoBw&#45;&gt;http://w3id.org/oseg/ont/okhimg#slotOrganizationLogo</title>
<path fill="none" stroke="black" d="M1224.43,-1193.56C1157.42,-1196.86 1071.2,-1201.1 1002.43,-1204.49"/>
<polygon fill="black" stroke="black" points="1002.23,-1200.99 992.42,-1204.98 1002.58,-1207.98 1002.23,-1200.99"/>
<text text-anchor="middle" x="1103.6" y="-1207.06" font-family="Times,serif" font-size="14.00">seeAlso</text>
</g>
<!-- http://w3id.org/oseg/ont/okhimg#slotLogoBw&#45;&gt;http://schema.org/DefinedTerm -->
<g id="edge25" class="edge">
<title>http://w3id.org/oseg/ont/okhimg#slotLogoBw&#45;&gt;http://schema.org/DefinedTerm</title>
<path fill="none" stroke="black" d="M1425.18,-1078.13C1437.71,-1074.2 1449.84,-1068.76 1460.3,-1061.26 1558.74,-990.76 1602.62,-841.79 1616.85,-781.46"/>
<polygon fill="black" stroke="black" points="1620.29,-782.11 1619.1,-771.58 1613.47,-780.56 1620.29,-782.11"/>
<text text-anchor="middle" x="1482.8" y="-1048.06" font-family="Times,serif" font-size="14.00">a</text>
</g>
<!-- http://w3id.org/oseg/ont/okhimg#slotLogoBw&#45;&gt;http://w3id.org/oseg/ont/okhimg#slotLogo -->
<g id="edge15" class="edge">
<title>http://w3id.org/oseg/ont/okhimg#slotLogoBw&#45;&gt;http://w3id.org/oseg/ont/okhimg#slotLogo</title>
<path fill="none" stroke="black" d="M1227.48,-1092.41C1154.4,-1096.01 1057.36,-1100.78 985.26,-1104.33"/>
<polygon fill="black" stroke="black" points="985.07,-1100.84 975.25,-1104.82 985.41,-1107.83 985.07,-1100.84"/>
<text text-anchor="middle" x="1103.6" y="-1106.06" font-family="Times,serif" font-size="14.00">seeAlso</text>
</g>
<!-- http://w3id.org/oseg/ont/okhimg#tagArt -->
<g id="node15" class="node">
<title>http://w3id.org/oseg/ont/okhimg#tagArt</title>
<ellipse fill="none" stroke="#e377c2" cx="1103.6" cy="-1371.26" rx="84.29" ry="16.03"/>
<text text-anchor="middle" x="1103.6" y="-1367.56" font-family="Times,serif" font-size="14.00">okhimg:tagArt</text>
</g>
<!-- http://w3id.org/oseg/ont/okhimg#tagArt&#45;&gt;http://schema.org/DefinedTerm -->
<g id="edge38" class="edge">
<title>http://w3id.org/oseg/ont/okhimg#tagArt&#45;&gt;http://schema.org/DefinedTerm</title>
<path fill="none" stroke="black" d="M1178.88,-1378.54C1269.03,-1385.91 1414.67,-1392.74 1460.3,-1365.26 1564.33,-1302.62 1609.73,-891.21 1620.04,-781.9"/>
<polygon fill="black" stroke="black" points="1623.54,-782.01 1620.98,-771.73 1616.57,-781.37 1623.54,-782.01"/>
<text text-anchor="middle" x="1333.03" y="-1388.06" font-family="Times,serif" font-size="14.00">a</text>
</g>
<!-- http://w3id.org/oseg/ont/okhimg#tagBw -->
<g id="node18" class="node">
<title>http://w3id.org/oseg/ont/okhimg#tagBw</title>
<ellipse fill="none" stroke="#e377c2" cx="1333.03" cy="-934.26" rx="84.29" ry="16.03"/>
<text text-anchor="middle" x="1333.03" y="-930.56" font-family="Times,serif" font-size="14.00">okhimg:tagBw</text>
</g>
<!-- http://w3id.org/oseg/ont/okhimg#tagBw&#45;&gt;http://schema.org/DefinedTerm -->
<g id="edge18" class="edge">
<title>http://w3id.org/oseg/ont/okhimg#tagBw&#45;&gt;http://schema.org/DefinedTerm</title>
<path fill="none" stroke="black" d="M1406.84,-926.37C1424.99,-922.52 1443.92,-916.79 1460.3,-908.26 1521.7,-876.32 1576.42,-814.33 1603.83,-779.87"/>
<polygon fill="black" stroke="black" points="1606.78,-781.77 1610.19,-771.74 1601.27,-777.46 1606.78,-781.77"/>
<text text-anchor="middle" x="1482.8" y="-900.06" font-family="Times,serif" font-size="14.00">a</text>
</g>
<!-- http://w3id.org/oseg/ont/okhimg#slotModelFromAbove -->
<g id="node19" class="node">
<title>http://w3id.org/oseg/ont/okhimg#slotModelFromAbove</title>
<ellipse fill="none" stroke="#e377c2" cx="1333.03" cy="-883.26" rx="116.85" ry="16.03"/>
<text text-anchor="middle" x="1333.03" y="-879.56" font-family="Times,serif" font-size="14.00">okhimg:slotModelF...</text>
</g>
<!-- http://w3id.org/oseg/ont/okhimg#slotModelFromAbove&#45;&gt;http://schema.org/DefinedTerm -->
<g id="edge19" class="edge">
<title>http://w3id.org/oseg/ont/okhimg#slotModelFromAbove&#45;&gt;http://schema.org/DefinedTerm</title>
<path fill="none" stroke="black" d="M1413.45,-871.44C1429.28,-867.83 1445.56,-863.19 1460.3,-857.26 1510.78,-836.97 1562.94,-800.95 1594.02,-777.6"/>
<polygon fill="black" stroke="black" points="1596.37,-780.21 1602.21,-771.37 1592.13,-774.64 1596.37,-780.21"/>
<text text-anchor="middle" x="1482.8" y="-853.06" font-family="Times,serif" font-size="14.00">a</text>
</g>
<!-- http://w3id.org/oseg/ont/okhimg#slotSymbol -->
<g id="node20" class="node">
<title>http://w3id.org/oseg/ont/okhimg#slotSymbol</title>
<ellipse fill="none" stroke="#e377c2" cx="1333.03" cy="-832.26" rx="108.38" ry="16.03"/>
<text text-anchor="middle" x="1333.03" y="-828.56" font-family="Times,serif" font-size="14.00">okhimg:slotSymbol</text>
</g>
<!-- http://w3id.org/oseg/ont/okhimg#slotSymbol&#45;&gt;http://schema.org/DefinedTerm -->
<g id="edge20" class="edge">
<title>http://w3id.org/oseg/ont/okhimg#slotSymbol&#45;&gt;http://schema.org/DefinedTerm</title>
<path fill="none" stroke="black" d="M1401.82,-819.63C1420.83,-815.73 1441.46,-811.16 1460.3,-806.26 1496.89,-796.77 1537.46,-784 1568.86,-773.62"/>
<polygon fill="black" stroke="black" points="1570.33,-776.82 1578.71,-770.34 1568.12,-770.17 1570.33,-776.82"/>
<text text-anchor="middle" x="1482.8" y="-804.06" font-family="Times,serif" font-size="14.00">a</text>
</g>
<!-- http://w3id.org/oseg/ont/okhimg#tagScreenshot -->
<g id="node21" class="node">
<title>http://w3id.org/oseg/ont/okhimg#tagScreenshot</title>
<ellipse fill="none" stroke="#e377c2" cx="1333.03" cy="-781.26" rx="125.32" ry="16.03"/>
<text text-anchor="middle" x="1333.03" y="-777.56" font-family="Times,serif" font-size="14.00">okhimg:tagScreenshot</text>
</g>
<!-- http://w3id.org/oseg/ont/okhimg#tagScreenshot&#45;&gt;http://schema.org/DefinedTerm -->
<g id="edge21" class="edge">
<title>http://w3id.org/oseg/ont/okhimg#tagScreenshot&#45;&gt;http://schema.org/DefinedTerm</title>
<path fill="none" stroke="black" d="M1436.5,-772.02C1461.66,-769.76 1488.66,-767.32 1514.08,-765.03"/>
<polygon fill="black" stroke="black" points="1514.46,-768.51 1524.11,-764.12 1513.84,-761.54 1514.46,-768.51"/>
<text text-anchor="middle" x="1482.8" y="-772.06" font-family="Times,serif" font-size="14.00">a</text>
</g>
<!-- http://w3id.org/oseg/ont/okhimg#slotIconMainBw&#45;&gt;http://schema.org/DefinedTerm -->
<g id="edge22" class="edge">
<title>http://w3id.org/oseg/ont/okhimg#slotIconMainBw&#45;&gt;http://schema.org/DefinedTerm</title>
<path fill="none" stroke="black" d="M1438.8,-1434.05C1456.91,-1428.46 1474.12,-1419.71 1487.3,-1406.26 1576.95,-1314.82 1612.68,-892.86 1620.61,-782"/>
<polygon fill="black" stroke="black" points="1624.12,-781.93 1621.33,-771.71 1617.14,-781.44 1624.12,-781.93"/>
<text text-anchor="middle" x="1482.8" y="-1415.06" font-family="Times,serif" font-size="14.00">a</text>
</g>
<!-- http://w3id.org/oseg/ont/okhimg#slotIconMainBw&#45;&gt;http://w3id.org/oseg/ont/okhimg#slotIconMain -->
<g id="edge6" class="edge">
<title>http://w3id.org/oseg/ont/okhimg#slotIconMainBw&#45;&gt;http://w3id.org/oseg/ont/okhimg#slotIconMain</title>
<path fill="none" stroke="black" d="M1229.84,-1449.04C1160.59,-1454.3 1069.06,-1461.27 997.71,-1466.7"/>
<polygon fill="black" stroke="black" points="997.04,-1463.24 987.33,-1467.48 997.57,-1470.22 997.04,-1463.24"/>
<text text-anchor="middle" x="1103.6" y="-1468.06" font-family="Times,serif" font-size="14.00">seeAlso</text>
</g>
<!-- http://w3id.org/oseg/ont/okhimg#slots&#45;&gt;http://schema.org/DefinedTermSet -->
<g id="edge23" class="edge">
<title>http://w3id.org/oseg/ont/okhimg#slots&#45;&gt;http://schema.org/DefinedTermSet</title>
<path fill="none" stroke="black" d="M504.72,-1465.08C526.51,-1461.89 551.18,-1458.35 573.7,-1455.26 644.98,-1445.48 725.6,-1435.08 786.67,-1427.33"/>
<polygon fill="black" stroke="black" points="787.2,-1430.8 796.68,-1426.07 786.32,-1423.85 787.2,-1430.8"/>
<text text-anchor="middle" x="661.2" y="-1459.06" font-family="Times,serif" font-size="14.00">a</text>
</g>
<!-- http://w3id.org/oseg/ont/okhimg#slots&#45;&gt;http://w3id.org/oseg/ont/okhimg#slotIconMain -->
<g id="edge10" class="edge">
<title>http://w3id.org/oseg/ont/okhimg#slots&#45;&gt;http://w3id.org/oseg/ont/okhimg#slotIconMain</title>
<path fill="none" stroke="black" d="M517.53,-1474.43C582.79,-1474.58 678.94,-1474.8 756.24,-1474.98"/>
<polygon fill="black" stroke="black" points="756.53,-1478.48 766.54,-1475 756.55,-1471.48 756.53,-1478.48"/>
<text text-anchor="middle" x="661.2" y="-1478.06" font-family="Times,serif" font-size="14.00">schema:hasDefinedTerm</text>
</g>
<!-- http://w3id.org/oseg/ont/okhimg#tagColor -->
<g id="node25" class="node">
<title>http://w3id.org/oseg/ont/okhimg#tagColor</title>
<ellipse fill="none" stroke="#e377c2" cx="1333.03" cy="-730.26" rx="95.42" ry="16.03"/>
<text text-anchor="middle" x="1333.03" y="-726.56" font-family="Times,serif" font-size="14.00">okhimg:tagColor</text>
</g>
<!-- http://w3id.org/oseg/ont/okhimg#tagColor&#45;&gt;http://schema.org/DefinedTerm -->
<g id="edge26" class="edge">
<title>http://w3id.org/oseg/ont/okhimg#tagColor&#45;&gt;http://schema.org/DefinedTerm</title>
<path fill="none" stroke="black" d="M1418.6,-737.6C1448.14,-740.16 1481.73,-743.07 1513,-745.78"/>
<polygon fill="black" stroke="black" points="1512.8,-749.28 1523.07,-746.65 1513.41,-742.3 1512.8,-749.28"/>
<text text-anchor="middle" x="1482.8" y="-748.06" font-family="Times,serif" font-size="14.00">a</text>
</g>
<!-- http://w3id.org/oseg/ont/okhimg#tagIcon -->
<g id="node26" class="node">
<title>http://w3id.org/oseg/ont/okhimg#tagIcon</title>
<ellipse fill="none" stroke="#e377c2" cx="1333.03" cy="-679.26" rx="89.61" ry="16.03"/>
<text text-anchor="middle" x="1333.03" y="-675.56" font-family="Times,serif" font-size="14.00">okhimg:tagIcon</text>
</g>
<!-- http://w3id.org/oseg/ont/okhimg#tagIcon&#45;&gt;http://schema.org/DefinedTerm -->
<g id="edge28" class="edge">
<title>http://w3id.org/oseg/ont/okhimg#tagIcon&#45;&gt;http://schema.org/DefinedTerm</title>
<path fill="none" stroke="black" d="M1396.28,-690.84C1416.77,-694.98 1439.6,-699.95 1460.3,-705.26 1496.47,-714.54 1536.57,-726.89 1567.83,-737"/>
<polygon fill="black" stroke="black" points="1567.06,-740.43 1577.66,-740.19 1569.23,-733.77 1567.06,-740.43"/>
<text text-anchor="middle" x="1482.8" y="-717.06" font-family="Times,serif" font-size="14.00">a</text>
</g>
<!-- http://w3id.org/oseg/ont/okhimg#slotModelFromBack -->
<g id="node27" class="node">
<title>http://w3id.org/oseg/ont/okhimg#slotModelFromBack</title>
<ellipse fill="none" stroke="#e377c2" cx="1333.03" cy="-628.26" rx="116.85" ry="16.03"/>
<text text-anchor="middle" x="1333.03" y="-624.56" font-family="Times,serif" font-size="14.00">okhimg:slotModelF...</text>
</g>
<!-- http://w3id.org/oseg/ont/okhimg#slotModelFromBack&#45;&gt;http://schema.org/DefinedTerm -->
<g id="edge31" class="edge">
<title>http://w3id.org/oseg/ont/okhimg#slotModelFromBack&#45;&gt;http://schema.org/DefinedTerm</title>
<path fill="none" stroke="black" d="M1413.43,-640.13C1429.26,-643.74 1445.55,-648.37 1460.3,-654.26 1510.4,-674.28 1562.29,-709.65 1593.46,-732.77"/>
<polygon fill="black" stroke="black" points="1591.58,-735.74 1601.68,-738.95 1595.79,-730.14 1591.58,-735.74"/>
<text text-anchor="middle" x="1482.8" y="-669.06" font-family="Times,serif" font-size="14.00">a</text>
</g>
<!-- http://w3id.org/oseg/ont/okhimg#slotSocial -->
<g id="node28" class="node">
<title>http://w3id.org/oseg/ont/okhimg#slotSocial</title>
<ellipse fill="none" stroke="#e377c2" cx="1333.03" cy="-577.26" rx="101.23" ry="16.03"/>
<text text-anchor="middle" x="1333.03" y="-573.56" font-family="Times,serif" font-size="14.00">okhimg:slotSocial</text>
</g>
<!-- http://w3id.org/oseg/ont/okhimg#slotSocial&#45;&gt;http://schema.org/DefinedTerm -->
<g id="edge32" class="edge">
<title>http://w3id.org/oseg/ont/okhimg#slotSocial&#45;&gt;http://schema.org/DefinedTerm</title>
<path fill="none" stroke="black" d="M1414.45,-586.92C1430.2,-590.69 1446.2,-595.95 1460.3,-603.26 1521.56,-635.01 1576.34,-696.58 1603.79,-730.82"/>
<polygon fill="black" stroke="black" points="1601.22,-733.22 1610.17,-738.9 1606.72,-728.88 1601.22,-733.22"/>
<text text-anchor="middle" x="1482.8" y="-623.06" font-family="Times,serif" font-size="14.00">a</text>
</g>
<!-- http://w3id.org/oseg/ont/okhimg#tagAssembly -->
<g id="node29" class="node">
<title>http://w3id.org/oseg/ont/okhimg#tagAssembly</title>
<ellipse fill="none" stroke="#e377c2" cx="1333.03" cy="-526.26" rx="116.85" ry="16.03"/>
<text text-anchor="middle" x="1333.03" y="-522.56" font-family="Times,serif" font-size="14.00">okhimg:tagAssembly</text>
</g>
<!-- http://w3id.org/oseg/ont/okhimg#tagAssembly&#45;&gt;http://schema.org/DefinedTerm -->
<g id="edge33" class="edge">
<title>http://w3id.org/oseg/ont/okhimg#tagAssembly&#45;&gt;http://schema.org/DefinedTerm</title>
<path fill="none" stroke="black" d="M1423.6,-536.59C1436.49,-540.34 1449.14,-545.42 1460.3,-552.26 1532.87,-596.75 1586.53,-685.97 1609.73,-729.79"/>
<polygon fill="black" stroke="black" points="1606.75,-731.65 1614.46,-738.92 1612.96,-728.43 1606.75,-731.65"/>
<text text-anchor="middle" x="1482.8" y="-572.06" font-family="Times,serif" font-size="14.00">a</text>
</g>
<!-- http://w3id.org/oseg/ont/okhimg#tags&#45;&gt;http://schema.org/DefinedTermSet -->
<g id="edge34" class="edge">
<title>http://w3id.org/oseg/ont/okhimg#tags&#45;&gt;http://schema.org/DefinedTermSet</title>
<path fill="none" stroke="black" d="M509.71,-1378.79C581.02,-1385.76 694.92,-1396.88 778.18,-1405.02"/>
<polygon fill="black" stroke="black" points="777.89,-1408.51 788.18,-1405.99 778.57,-1401.54 777.89,-1408.51"/>
<text text-anchor="middle" x="661.2" y="-1405.06" font-family="Times,serif" font-size="14.00">a</text>
</g>
<!-- http://w3id.org/oseg/ont/okhimg#tags&#45;&gt;http://w3id.org/oseg/ont/okhimg#tagArt -->
<g id="edge13" class="edge">
<title>http://w3id.org/oseg/ont/okhimg#tags&#45;&gt;http://w3id.org/oseg/ont/okhimg#tagArt</title>
<path fill="none" stroke="black" d="M513.45,-1368.43C532.96,-1367.54 554.14,-1366.71 573.7,-1366.26 726.51,-1362.76 904.21,-1365.93 1009.83,-1368.57"/>
<polygon fill="black" stroke="black" points="1010.05,-1372.08 1020.14,-1368.83 1010.23,-1365.08 1010.05,-1372.08"/>
<text text-anchor="middle" x="661.2" y="-1370.06" font-family="Times,serif" font-size="14.00">schema:hasDefinedTerm</text>
</g>
<!-- http://w3id.org/oseg/ont/okhimg#slotModelFromFront -->
<g id="node31" class="node">
<title>http://w3id.org/oseg/ont/okhimg#slotModelFromFront</title>
<ellipse fill="none" stroke="#e377c2" cx="1333.03" cy="-475.26" rx="116.85" ry="16.03"/>
<text text-anchor="middle" x="1333.03" y="-471.56" font-family="Times,serif" font-size="14.00">okhimg:slotModelF...</text>
</g>
<!-- http://w3id.org/oseg/ont/okhimg#slotModelFromFront&#45;&gt;http://schema.org/DefinedTerm -->
<g id="edge35" class="edge">
<title>http://w3id.org/oseg/ont/okhimg#slotModelFromFront&#45;&gt;http://schema.org/DefinedTerm</title>
<path fill="none" stroke="black" d="M1426.24,-485.16C1438.34,-489.01 1450.07,-494.22 1460.3,-501.26 1544.73,-559.39 1594.87,-677.33 1613.75,-729.48"/>
<polygon fill="black" stroke="black" points="1610.48,-730.73 1617.11,-738.99 1617.08,-728.4 1610.48,-730.73"/>
<text text-anchor="middle" x="1482.8" y="-526.06" font-family="Times,serif" font-size="14.00">a</text>
</g>
<!-- http://w3id.org/oseg/ont/okhimg#slotModel3D -->
<g id="node32" class="node">
<title>http://w3id.org/oseg/ont/okhimg#slotModel3D</title>
<ellipse fill="none" stroke="#e377c2" cx="1333.03" cy="-424.26" rx="115.93" ry="16.03"/>
<text text-anchor="middle" x="1333.03" y="-420.56" font-family="Times,serif" font-size="14.00">okhimg:slotModel3D</text>
</g>
<!-- http://w3id.org/oseg/ont/okhimg#slotModel3D&#45;&gt;http://schema.org/DefinedTerm -->
<g id="edge36" class="edge">
<title>http://w3id.org/oseg/ont/okhimg#slotModel3D&#45;&gt;http://schema.org/DefinedTerm</title>
<path fill="none" stroke="black" d="M1426.88,-433.84C1438.81,-437.73 1450.33,-443.05 1460.3,-450.26 1557.93,-520.88 1602.16,-668.54 1616.67,-728.8"/>
<polygon fill="black" stroke="black" points="1613.29,-729.73 1618.97,-738.67 1620.11,-728.14 1613.29,-729.73"/>
<text text-anchor="middle" x="1482.8" y="-472.06" font-family="Times,serif" font-size="14.00">a</text>
</g>
<!-- http://w3id.org/oseg/ont/okhimg#tagDrawing -->
<g id="node33" class="node">
<title>http://w3id.org/oseg/ont/okhimg#tagDrawing</title>
<ellipse fill="none" stroke="#e377c2" cx="1333.03" cy="-373.26" rx="111.95" ry="16.03"/>
<text text-anchor="middle" x="1333.03" y="-369.56" font-family="Times,serif" font-size="14.00">okhimg:tagDrawing</text>
</g>
<!-- http://w3id.org/oseg/ont/okhimg#tagDrawing&#45;&gt;http://schema.org/DefinedTerm -->
<g id="edge39" class="edge">
<title>http://w3id.org/oseg/ont/okhimg#tagDrawing&#45;&gt;http://schema.org/DefinedTerm</title>
<path fill="none" stroke="black" d="M1426.08,-382.27C1438.34,-386.24 1450.16,-391.72 1460.3,-399.26 1572.07,-482.36 1608.79,-660.79 1618.97,-728.48"/>
<polygon fill="black" stroke="black" points="1615.55,-729.31 1620.43,-738.72 1622.48,-728.32 1615.55,-729.31"/>
<text text-anchor="middle" x="1482.8" y="-424.06" font-family="Times,serif" font-size="14.00">a</text>
</g>
<!-- http://w3id.org/oseg/ont/okhimg#tagGray -->
<g id="node34" class="node">
<title>http://w3id.org/oseg/ont/okhimg#tagGray</title>
<ellipse fill="none" stroke="#e377c2" cx="1333.03" cy="-322.26" rx="92.76" ry="16.03"/>
<text text-anchor="middle" x="1333.03" y="-318.56" font-family="Times,serif" font-size="14.00">okhimg:tagGray</text>
</g>
<!-- http://w3id.org/oseg/ont/okhimg#tagGray&#45;&gt;http://schema.org/DefinedTerm -->
<g id="edge41" class="edge">
<title>http://w3id.org/oseg/ont/okhimg#tagGray&#45;&gt;http://schema.org/DefinedTerm</title>
<path fill="none" stroke="black" d="M1418.4,-328.72C1433.4,-332.79 1448.11,-338.97 1460.3,-348.26 1586.59,-444.53 1614.7,-654.48 1620.77,-728.66"/>
<polygon fill="black" stroke="black" points="1617.31,-729.26 1621.54,-738.97 1624.29,-728.74 1617.31,-729.26"/>
<text text-anchor="middle" x="1482.8" y="-375.06" font-family="Times,serif" font-size="14.00">a</text>
</g>
<!-- http://w3id.org/oseg/ont/okhimg#slotModelFromBelow -->
<g id="node35" class="node">
<title>http://w3id.org/oseg/ont/okhimg#slotModelFromBelow</title>
<ellipse fill="none" stroke="#e377c2" cx="1333.03" cy="-271.26" rx="116.85" ry="16.03"/>
<text text-anchor="middle" x="1333.03" y="-267.56" font-family="Times,serif" font-size="14.00">okhimg:slotModelF...</text>
</g>
<!-- http://w3id.org/oseg/ont/okhimg#slotModelFromBelow&#45;&gt;http://schema.org/DefinedTerm -->
<g id="edge42" class="edge">
<title>http://w3id.org/oseg/ont/okhimg#slotModelFromBelow&#45;&gt;http://schema.org/DefinedTerm</title>
<path fill="none" stroke="black" d="M1428.61,-280.68C1440.01,-284.63 1450.92,-290 1460.3,-297.26 1601.4,-406.49 1619.99,-647.95 1622.19,-728.51"/>
<polygon fill="black" stroke="black" points="1618.7,-728.86 1622.4,-738.78 1625.7,-728.71 1618.7,-728.86"/>
<text text-anchor="middle" x="1482.8" y="-318.06" font-family="Times,serif" font-size="14.00">a</text>
</g>
<!-- http://w3id.org/oseg/ont/okhimg#tagPhoto -->
<g id="node36" class="node">
<title>http://w3id.org/oseg/ont/okhimg#tagPhoto</title>
<ellipse fill="none" stroke="#e377c2" cx="1333.03" cy="-220.26" rx="97.66" ry="16.03"/>
<text text-anchor="middle" x="1333.03" y="-216.56" font-family="Times,serif" font-size="14.00">okhimg:tagPhoto</text>
</g>
<!-- http://w3id.org/oseg/ont/okhimg#tagPhoto&#45;&gt;http://schema.org/DefinedTerm -->
<g id="edge43" class="edge">
<title>http://w3id.org/oseg/ont/okhimg#tagPhoto&#45;&gt;http://schema.org/DefinedTerm</title>
<path fill="none" stroke="black" d="M1420.46,-227.67C1434.69,-231.71 1448.59,-237.63 1460.3,-246.26 1480.32,-261.02 1477.75,-272.31 1487.3,-295.26 1553.66,-454.59 1601.15,-657.6 1616.8,-729.01"/>
<polygon fill="black" stroke="black" points="1613.41,-729.91 1618.96,-738.94 1620.26,-728.42 1613.41,-729.91"/>
<text text-anchor="middle" x="1482.8" y="-299.06" font-family="Times,serif" font-size="14.00">a</text>
</g>
<!-- http://w3id.org/oseg/ont/okhimg#slotModelFromRight -->
<g id="node37" class="node">
<title>http://w3id.org/oseg/ont/okhimg#slotModelFromRight</title>
<ellipse fill="none" stroke="#e377c2" cx="1333.03" cy="-169.26" rx="116.85" ry="16.03"/>
<text text-anchor="middle" x="1333.03" y="-165.56" font-family="Times,serif" font-size="14.00">okhimg:slotModelF...</text>
</g>
<!-- http://w3id.org/oseg/ont/okhimg#slotModelFromRight&#45;&gt;http://schema.org/DefinedTerm -->
<g id="edge44" class="edge">
<title>http://w3id.org/oseg/ont/okhimg#slotModelFromRight&#45;&gt;http://schema.org/DefinedTerm</title>
<path fill="none" stroke="black" d="M1428.66,-178.62C1440.06,-182.58 1450.95,-187.97 1460.3,-195.26 1482.09,-212.25 1477.69,-225.36 1487.3,-251.26 1553.28,-428.93 1601.64,-652.81 1617.12,-728.71"/>
<polygon fill="black" stroke="black" points="1613.75,-729.71 1619.16,-738.82 1620.61,-728.32 1613.75,-729.71"/>
<text text-anchor="middle" x="1482.8" y="-255.06" font-family="Times,serif" font-size="14.00">a</text>
</g>
<!-- http://w3id.org/oseg/ont/okhimg#slotModelMain -->
<g id="node39" class="node">
<title>http://w3id.org/oseg/ont/okhimg#slotModelMain</title>
<ellipse fill="none" stroke="#e377c2" cx="1333.03" cy="-118.26" rx="127.06" ry="16.03"/>
<text text-anchor="middle" x="1333.03" y="-114.56" font-family="Times,serif" font-size="14.00">okhimg:slotModelMain</text>
</g>
<!-- http://w3id.org/oseg/ont/okhimg#slotModelMain&#45;&gt;http://schema.org/DefinedTerm -->
<g id="edge46" class="edge">
<title>http://w3id.org/oseg/ont/okhimg#slotModelMain&#45;&gt;http://schema.org/DefinedTerm</title>
<path fill="none" stroke="black" d="M1431.6,-128.6C1441.93,-132.46 1451.77,-137.56 1460.3,-144.26 1482.35,-161.58 1477.94,-174.84 1487.3,-201.26 1557.14,-398.21 1603.65,-647 1617.82,-728.26"/>
<polygon fill="black" stroke="black" points="1614.46,-729.33 1619.61,-738.59 1621.35,-728.14 1614.46,-729.33"/>
<text text-anchor="middle" x="1482.8" y="-205.06" font-family="Times,serif" font-size="14.00">a</text>
</g>
<!-- http://w3id.org/oseg/ont/okhimg#tagLogo -->
<g id="node40" class="node">
<title>http://w3id.org/oseg/ont/okhimg#tagLogo</title>
<ellipse fill="none" stroke="#e377c2" cx="1333.03" cy="-67.26" rx="92.76" ry="16.03"/>
<text text-anchor="middle" x="1333.03" y="-63.56" font-family="Times,serif" font-size="14.00">okhimg:tagLogo</text>
</g>
<!-- http://w3id.org/oseg/ont/okhimg#tagLogo&#45;&gt;http://schema.org/DefinedTerm -->
<g id="edge47" class="edge">
<title>http://w3id.org/oseg/ont/okhimg#tagLogo&#45;&gt;http://schema.org/DefinedTerm</title>
<path fill="none" stroke="black" d="M1418.99,-73.46C1433.86,-77.56 1448.37,-83.82 1460.3,-93.26 1482.61,-110.9 1478.15,-124.34 1487.3,-151.26 1561.13,-368.33 1605.74,-643.15 1618.54,-728.66"/>
<polygon fill="black" stroke="black" points="1615.08,-729.19 1620.01,-738.57 1622.01,-728.16 1615.08,-729.19"/>
<text text-anchor="middle" x="1482.8" y="-155.06" font-family="Times,serif" font-size="14.00">a</text>
</g>
<!-- http://w3id.org/oseg/ont/okhimg#slotPhotoPackaging -->
<g id="node41" class="node">
<title>http://w3id.org/oseg/ont/okhimg#slotPhotoPackaging</title>
<ellipse fill="none" stroke="#e377c2" cx="1333.03" cy="-16.26" rx="113.69" ry="16.03"/>
<text text-anchor="middle" x="1333.03" y="-12.56" font-family="Times,serif" font-size="14.00">okhimg:slotPhotoP...</text>
</g>
<!-- http://w3id.org/oseg/ont/okhimg#slotPhotoPackaging&#45;&gt;http://schema.org/DefinedTerm -->
<g id="edge48" class="edge">
<title>http://w3id.org/oseg/ont/okhimg#slotPhotoPackaging&#45;&gt;http://schema.org/DefinedTerm</title>
<path fill="none" stroke="black" d="M1428.06,-25.34C1439.68,-29.33 1450.8,-34.8 1460.3,-42.26 1482.35,-59.58 1478.41,-72.68 1487.3,-99.26 1566.61,-336.39 1608,-638 1619.21,-728.46"/>
<polygon fill="black" stroke="black" points="1615.77,-729.15 1620.46,-738.65 1622.72,-728.3 1615.77,-729.15"/>
<text text-anchor="middle" x="1482.8" y="-103.06" font-family="Times,serif" font-size="14.00">a</text>
</g>
</g>
</svg>
