<?xml version="1.0" encoding="UTF-8" standalone="no"?>
<!DOCTYPE svg PUBLIC "-//W3C//DTD SVG 1.1//EN"
 "http://www.w3.org/Graphics/SVG/1.1/DTD/svg11.dtd">
<!-- Generated by graphviz version 2.43.0 (0)
 -->
<!-- Title: G Pages: 1 -->
<svg width="1318pt" height="1332pt"
 viewBox="0.00 0.00 1318.00 1332.00" xmlns="http://www.w3.org/2000/svg" xmlns:xlink="http://www.w3.org/1999/xlink">
<g id="graph0" class="graph" transform="scale(1 1) rotate(0) translate(4 1328)">
<title>G</title>
<polygon fill="white" stroke="transparent" points="-4,4 -4,-1328 1314,-1328 1314,4 -4,4"/>
<!-- http://spdx.org/rdf/terms#File -->
<g id="node1" class="node">
<title>http://spdx.org/rdf/terms#File</title>
<ellipse fill="none" stroke="#1f77b4" cx="740.95" cy="-1125.89" rx="62.45" ry="16.03"/>
<text text-anchor="middle" x="740.95" y="-1122.19" font-family="Times,serif" font-size="14.00">spdxt:File</text>
</g>
<!-- https://w3id.org/oseg/ont/okhmeta#MetaTag -->
<g id="node2" class="node">
<title>https://w3id.org/oseg/ont/okhmeta#MetaTag</title>
<ellipse fill="none" stroke="#e377c2" cx="567.88" cy="-412.4" rx="102.56" ry="16.03"/>
<text text-anchor="middle" x="567.88" y="-408.7" font-family="Times,serif" font-size="14.00">okhmeta:MetaTag</text>
</g>
<!-- https://w3id.org/oseg/ont/okhmeta#MetaTag&#45;&gt;https://w3id.org/oseg/ont/okhmeta#MetaTag -->
<g id="edge45" class="edge">
<title>https://w3id.org/oseg/ont/okhmeta#MetaTag&#45;&gt;https://w3id.org/oseg/ont/okhmeta#MetaTag</title>
<path fill="none" stroke="black" d="M662.87,-418.61C678.03,-417.7 688.41,-415.63 688.41,-412.4 688.41,-409.94 682.45,-408.16 672.96,-407.04"/>
<polygon fill="black" stroke="black" points="673.13,-403.55 662.87,-406.18 672.53,-410.52 673.13,-403.55"/>
<text text-anchor="middle" x="765.41" y="-408.7" font-family="Times,serif" font-size="14.00">okhmeta:hasMetaTag</text>
</g>
<!-- https://w3id.org/oseg/ont/okhmeta#Tag -->
<g id="node4" class="node">
<title>https://w3id.org/oseg/ont/okhmeta#Tag</title>
<ellipse fill="none" stroke="#e377c2" cx="504.9" cy="-369" rx="76.24" ry="16.03"/>
<text text-anchor="middle" x="504.9" y="-365.3" font-family="Times,serif" font-size="14.00">okhmeta:Tag</text>
</g>
<!-- https://w3id.org/oseg/ont/okhmeta#MetaTag&#45;&gt;https://w3id.org/oseg/ont/okhmeta#Tag -->
<g id="edge7" class="edge">
<title>https://w3id.org/oseg/ont/okhmeta#MetaTag&#45;&gt;https://w3id.org/oseg/ont/okhmeta#Tag</title>
<path fill="none" stroke="black" d="M554.75,-396.03C552.13,-393.87 549.25,-391.64 546.24,-389.43"/>
<polygon fill="black" stroke="black" points="548.26,-386.57 538.07,-383.68 544.23,-392.29 548.26,-386.57"/>
<text text-anchor="middle" x="546" y="-381.53" font-family="Times,serif" font-size="14.00">a</text>
</g>
<!-- http://www.w3.org/2004/02/skos/core#Collection -->
<g id="node3" class="node">
<title>http://www.w3.org/2004/02/skos/core#Collection</title>
<ellipse fill="none" stroke="#e377c2" cx="87.22" cy="-414.41" rx="87.86" ry="16.03"/>
<text text-anchor="middle" x="87.22" y="-410.71" font-family="Times,serif" font-size="14.00">skos:Collection</text>
</g>
<!-- https://w3id.org/oseg/ont/okhmeta#Tag&#45;&gt;https://w3id.org/oseg/ont/okhmeta#MetaTag -->
<g id="edge26" class="edge">
<title>https://w3id.org/oseg/ont/okhmeta#Tag&#45;&gt;https://w3id.org/oseg/ont/okhmeta#MetaTag</title>
<path fill="none" stroke="black" d="M517.72,-385.11C520.05,-387.04 522.58,-389.02 525.23,-391"/>
<polygon fill="black" stroke="black" points="523.28,-393.91 533.45,-396.87 527.35,-388.21 523.28,-393.91"/>
<text text-anchor="middle" x="444.48" y="-391.86" font-family="Times,serif" font-size="14.00">okhmeta:hasMetaTag</text>
</g>
<!-- https://w3id.org/oseg/ont/okhmeta#Tag&#45;&gt;http://www.w3.org/2004/02/skos/core#Collection -->
<g id="edge8" class="edge">
<title>https://w3id.org/oseg/ont/okhmeta#Tag&#45;&gt;http://www.w3.org/2004/02/skos/core#Collection</title>
<path fill="none" stroke="black" d="M436.86,-376.4C364.96,-384.22 251.38,-396.56 173.3,-405.05"/>
<polygon fill="black" stroke="black" points="172.57,-401.61 163.01,-406.17 173.33,-408.57 172.57,-401.61"/>
</g>
<!-- http://www.w3.org/2004/02/skos/core#Concept -->
<g id="node5" class="node">
<title>http://www.w3.org/2004/02/skos/core#Concept</title>
<ellipse fill="none" stroke="#1f77b4" cx="324.8" cy="-681.35" rx="78.48" ry="16.03"/>
<text text-anchor="middle" x="324.8" y="-677.65" font-family="Times,serif" font-size="14.00">skos:Concept</text>
</g>
<!-- https://w3id.org/oseg/ont/okhmeta#Tag&#45;&gt;http://www.w3.org/2004/02/skos/core#Concept -->
<g id="edge34" class="edge">
<title>https://w3id.org/oseg/ont/okhmeta#Tag&#45;&gt;http://www.w3.org/2004/02/skos/core#Concept</title>
<path fill="none" stroke="black" d="M495.47,-385.36C465.87,-436.7 374.65,-594.9 339.15,-656.47"/>
<polygon fill="black" stroke="black" points="336.1,-654.75 334.13,-665.16 342.16,-658.25 336.1,-654.75"/>
<text text-anchor="middle" x="412.81" y="-524.71" font-family="Times,serif" font-size="14.00">a</text>
</g>
<!-- https://w3id.org/oseg/ont/okhmeta#LegalTag -->
<g id="node6" class="node">
<title>https://w3id.org/oseg/ont/okhmeta#LegalTag</title>
<ellipse fill="none" stroke="#e377c2" cx="682.67" cy="-688.97" rx="103.89" ry="16.03"/>
<text text-anchor="middle" x="682.67" y="-685.27" font-family="Times,serif" font-size="14.00">okhmeta:LegalTag</text>
</g>
<!-- https://w3id.org/oseg/ont/okhmeta#LegalTag&#45;&gt;https://w3id.org/oseg/ont/okhmeta#MetaTag -->
<g id="edge35" class="edge">
<title>https://w3id.org/oseg/ont/okhmeta#LegalTag&#45;&gt;https://w3id.org/oseg/ont/okhmeta#MetaTag</title>
<path fill="none" stroke="black" d="M675.83,-672.5C656.61,-626.19 601.98,-494.57 578.65,-438.36"/>
<polygon fill="black" stroke="black" points="581.74,-436.68 574.68,-428.78 575.28,-439.36 581.74,-436.68"/>
<text text-anchor="middle" x="550.24" y="-559.23" font-family="Times,serif" font-size="14.00">okhmeta:hasMetaTag</text>
</g>
<!-- https://w3id.org/oseg/ont/okhmeta#LegalTag&#45;&gt;https://w3id.org/oseg/ont/okhmeta#Tag -->
<g id="edge1" class="edge">
<title>https://w3id.org/oseg/ont/okhmeta#LegalTag&#45;&gt;https://w3id.org/oseg/ont/okhmeta#Tag</title>
<path fill="none" stroke="black" d="M673.61,-672.66C644.6,-620.46 553.89,-457.17 518.88,-394.16"/>
<polygon fill="black" stroke="black" points="521.86,-392.32 513.94,-385.28 515.74,-395.72 521.86,-392.32"/>
<text text-anchor="middle" x="591.74" y="-537.21" font-family="Times,serif" font-size="14.00">a</text>
</g>
<!-- https://w3id.org/oseg/ont/oseg&#45;profiles#robinVobruba -->
<g id="node7" class="node">
<title>https://w3id.org/oseg/ont/oseg&#45;profiles#robinVobruba</title>
<ellipse fill="none" stroke="#e377c2" cx="956.74" cy="-1026.24" rx="113.69" ry="16.03"/>
<text text-anchor="middle" x="956.74" y="-1022.54" font-family="Times,serif" font-size="14.00">osegprof:robinVob...</text>
</g>
<!-- https://w3id.org/oseg/ont/okhmeta#hasMetaTag -->
<g id="node8" class="node">
<title>https://w3id.org/oseg/ont/okhmeta#hasMetaTag</title>
<ellipse fill="none" stroke="#e377c2" cx="513.03" cy="-910.45" rx="120.42" ry="16.03"/>
<text text-anchor="middle" x="513.03" y="-906.75" font-family="Times,serif" font-size="14.00">okhmeta:hasMetaTag</text>
</g>
<!-- https://w3id.org/oseg/ont/okhmeta#hasMetaTag&#45;&gt;https://w3id.org/oseg/ont/okhmeta#MetaTag -->
<g id="edge10" class="edge">
<title>https://w3id.org/oseg/ont/okhmeta#hasMetaTag&#45;&gt;https://w3id.org/oseg/ont/okhmeta#MetaTag</title>
<path fill="none" stroke="black" d="M517.47,-894.17C530.75,-821.83 563.17,-529.23 568.2,-439.01"/>
<polygon fill="black" stroke="black" points="571.71,-438.96 568.68,-428.81 564.71,-438.63 571.71,-438.96"/>
<text text-anchor="middle" x="582.83" y="-655.39" font-family="Times,serif" font-size="14.00">schema:rangeIncludes</text>
</g>
<!-- https://w3id.org/oseg/ont/okhmeta#hasMetaTag&#45;&gt;https://w3id.org/oseg/ont/okhmeta#MetaTag -->
<g id="edge38" class="edge">
<title>https://w3id.org/oseg/ont/okhmeta#hasMetaTag&#45;&gt;https://w3id.org/oseg/ont/okhmeta#MetaTag</title>
<path fill="none" stroke="black" d="M512.22,-894.16C514.84,-821.74 546.9,-528.63 561.7,-438.74"/>
<polygon fill="black" stroke="black" points="565.16,-439.26 563.41,-428.81 558.26,-438.07 565.16,-439.26"/>
<text text-anchor="middle" x="459.96" y="-670.25" font-family="Times,serif" font-size="14.00">okhmeta:hasMetaTag</text>
</g>
<!-- https://w3id.org/oseg/ont/okhmeta#hasMetaTag&#45;&gt;http://www.w3.org/2004/02/skos/core#Concept -->
<g id="edge4" class="edge">
<title>https://w3id.org/oseg/ont/okhmeta#hasMetaTag&#45;&gt;http://www.w3.org/2004/02/skos/core#Concept</title>
<path fill="none" stroke="black" d="M499.49,-893.98C466.73,-854.1 383.04,-752.24 344.62,-705.48"/>
<polygon fill="black" stroke="black" points="347.26,-703.18 338.21,-697.68 341.86,-707.63 347.26,-703.18"/>
<text text-anchor="middle" x="417.56" y="-803.53" font-family="Times,serif" font-size="14.00">a</text>
</g>
<!-- http://www.w3.org/2004/02/skos/core#member -->
<g id="node14" class="node">
<title>http://www.w3.org/2004/02/skos/core#member</title>
<ellipse fill="none" stroke="#e377c2" cx="500.46" cy="-1307.53" rx="79.39" ry="16.03"/>
<text text-anchor="middle" x="500.46" y="-1303.83" font-family="Times,serif" font-size="14.00">skos:member</text>
</g>
<!-- https://w3id.org/oseg/ont/okhmeta#hasMetaTag&#45;&gt;http://www.w3.org/2004/02/skos/core#member -->
<g id="edge9" class="edge">
<title>https://w3id.org/oseg/ont/okhmeta#hasMetaTag&#45;&gt;http://www.w3.org/2004/02/skos/core#member</title>
<path fill="none" stroke="black" d="M512.5,-927.01C510.56,-988.56 503.72,-1204.58 501.31,-1280.72"/>
<polygon fill="black" stroke="black" points="497.81,-1280.8 500.99,-1290.9 504.8,-1281.02 497.81,-1280.8"/>
<text text-anchor="middle" x="453.91" y="-1107.66" font-family="Times,serif" font-size="14.00">subPropertyOf</text>
</g>
<!-- https://w3id.org/oseg/ont/okhmeta -->
<g id="node9" class="node">
<title>https://w3id.org/oseg/ont/okhmeta</title>
<ellipse fill="none" stroke="#e377c2" cx="942.66" cy="-1074.03" rx="76.24" ry="16.03"/>
<text text-anchor="middle" x="942.66" y="-1070.33" font-family="Times,serif" font-size="14.00">ns1:okhmeta</text>
</g>
<!-- https://w3id.org/oseg/ont/okhmeta&#45;&gt;http://spdx.org/rdf/terms#File -->
<g id="edge23" class="edge">
<title>https://w3id.org/oseg/ont/okhmeta&#45;&gt;http://spdx.org/rdf/terms#File</title>
<path fill="none" stroke="black" d="M893.83,-1086.58C864.06,-1094.24 825.96,-1104.04 795.24,-1111.93"/>
<polygon fill="black" stroke="black" points="794.36,-1108.55 785.54,-1114.43 796.1,-1115.33 794.36,-1108.55"/>
<text text-anchor="middle" x="840.04" y="-1088.06" font-family="Times,serif" font-size="14.00">a</text>
</g>
<!-- https://w3id.org/oseg/ont/okhmeta&#45;&gt;https://w3id.org/oseg/ont/oseg&#45;profiles#robinVobruba -->
<g id="edge2" class="edge">
<title>https://w3id.org/oseg/ont/okhmeta&#45;&gt;https://w3id.org/oseg/ont/oseg&#45;profiles#robinVobruba</title>
<path fill="none" stroke="black" d="M954.28,-1057.82C954.89,-1056.14 955.47,-1054.41 955.99,-1052.66"/>
<polygon fill="black" stroke="black" points="959.46,-1053.23 958.44,-1042.69 952.66,-1051.56 959.46,-1053.23"/>
<text text-anchor="middle" x="897.64" y="-1044.04" font-family="Times,serif" font-size="14.00">dcterms:creator</text>
</g>
<!-- https://w3id.org/oseg/ont/okhmeta&#45;&gt;https://w3id.org/oseg/ont/oseg&#45;profiles#robinVobruba -->
<g id="edge3" class="edge">
<title>https://w3id.org/oseg/ont/okhmeta&#45;&gt;https://w3id.org/oseg/ont/oseg&#45;profiles#robinVobruba</title>
<path fill="none" stroke="black" d="M940.94,-1057.66C941.25,-1055.99 941.63,-1054.26 942.06,-1052.52"/>
<polygon fill="black" stroke="black" points="945.52,-1053.19 945.06,-1042.6 938.82,-1051.16 945.52,-1053.19"/>
<text text-anchor="middle" x="997" y="-1043.89" font-family="Times,serif" font-size="14.00">schema:creator</text>
</g>
<!-- https://w3id.org/oseg/ont/oseg&#45;profiles#Iopa -->
<g id="node15" class="node">
<title>https://w3id.org/oseg/ont/oseg&#45;profiles#Iopa</title>
<ellipse fill="none" stroke="#e377c2" cx="899.99" cy="-1114.83" rx="80.72" ry="16.03"/>
<text text-anchor="middle" x="899.99" y="-1111.13" font-family="Times,serif" font-size="14.00">osegprof:Iopa</text>
</g>
<!-- https://w3id.org/oseg/ont/okhmeta&#45;&gt;https://w3id.org/oseg/ont/oseg&#45;profiles#Iopa -->
<g id="edge11" class="edge">
<title>https://w3id.org/oseg/ont/okhmeta&#45;&gt;https://w3id.org/oseg/ont/oseg&#45;profiles#Iopa</title>
<path fill="none" stroke="black" d="M925.79,-1090.15C925.24,-1090.69 924.67,-1091.23 924.11,-1091.77"/>
<polygon fill="black" stroke="black" points="921.54,-1089.38 916.73,-1098.82 926.38,-1094.44 921.54,-1089.38"/>
<text text-anchor="middle" x="990.45" y="-1094.76" font-family="Times,serif" font-size="14.00">dcterms:publisher</text>
</g>
<!-- https://spdx.org/licenses/GPL&#45;3.0&#45;or&#45;later -->
<g id="node17" class="node">
<title>https://spdx.org/licenses/GPL&#45;3.0&#45;or&#45;later</title>
<ellipse fill="none" stroke="#e377c2" cx="1201.54" cy="-1038.88" rx="108.79" ry="16.03"/>
<text text-anchor="middle" x="1201.54" y="-1035.18" font-family="Times,serif" font-size="14.00">spdxl:GPL&#45;3.0&#45;or&#45;...</text>
</g>
<!-- https://w3id.org/oseg/ont/okhmeta&#45;&gt;https://spdx.org/licenses/GPL&#45;3.0&#45;or&#45;later -->
<g id="edge12" class="edge">
<title>https://w3id.org/oseg/ont/okhmeta&#45;&gt;https://spdx.org/licenses/GPL&#45;3.0&#45;or&#45;later</title>
<path fill="none" stroke="black" d="M1007.32,-1065.25C1038.53,-1061.01 1076.52,-1055.86 1110.59,-1051.23"/>
<polygon fill="black" stroke="black" points="1111.12,-1054.69 1120.56,-1049.88 1110.18,-1047.75 1111.12,-1054.69"/>
<text text-anchor="middle" x="1137.95" y="-1062.04" font-family="Times,serif" font-size="14.00">spdxt:licenseDeclared</text>
</g>
<!-- https://w3id.org/oseg/ont/1.1.0/okh&#45;meta -->
<g id="node22" class="node">
<title>https://w3id.org/oseg/ont/1.1.0/okh&#45;meta</title>
<ellipse fill="none" stroke="#e377c2" cx="1119.89" cy="-1186.87" rx="79.81" ry="16.03"/>
<text text-anchor="middle" x="1119.89" y="-1183.17" font-family="Times,serif" font-size="14.00">ns2:okh&#45;meta</text>
</g>
<!-- https://w3id.org/oseg/ont/okhmeta&#45;&gt;https://w3id.org/oseg/ont/1.1.0/okh&#45;meta -->
<g id="edge40" class="edge">
<title>https://w3id.org/oseg/ont/okhmeta&#45;&gt;https://w3id.org/oseg/ont/1.1.0/okh&#45;meta</title>
<path fill="none" stroke="black" d="M966.93,-1089.48C997.91,-1109.21 1051.66,-1143.43 1086.49,-1165.6"/>
<polygon fill="black" stroke="black" points="1085.03,-1168.82 1095.34,-1171.24 1088.79,-1162.92 1085.03,-1168.82"/>
<text text-anchor="middle" x="1078.21" y="-1131.34" font-family="Times,serif" font-size="14.00">owl:versionIRI</text>
</g>
<!-- http://id.loc.gov/vocabulary/iso639&#45;1/en -->
<g id="node24" class="node">
<title>http://id.loc.gov/vocabulary/iso639&#45;1/en</title>
<ellipse fill="none" stroke="#e377c2" cx="878.12" cy="-889.7" rx="45.01" ry="16.03"/>
<text text-anchor="middle" x="878.12" y="-886" font-family="Times,serif" font-size="14.00">ns3:en</text>
</g>
<!-- https://w3id.org/oseg/ont/okhmeta&#45;&gt;http://id.loc.gov/vocabulary/iso639&#45;1/en -->
<g id="edge42" class="edge">
<title>https://w3id.org/oseg/ont/okhmeta&#45;&gt;http://id.loc.gov/vocabulary/iso639&#45;1/en</title>
<path fill="none" stroke="black" d="M936.93,-1057.67C925.69,-1025.56 900.65,-954.06 887.16,-915.51"/>
<polygon fill="black" stroke="black" points="890.44,-914.3 883.83,-906.02 883.83,-916.61 890.44,-914.3"/>
<text text-anchor="middle" x="847.54" y="-990.39" font-family="Times,serif" font-size="14.00">dcterms:language</text>
</g>
<!-- https://w3id.org/oseg/ont/okhmeta#PhysicalTag -->
<g id="node10" class="node">
<title>https://w3id.org/oseg/ont/okhmeta#PhysicalTag</title>
<ellipse fill="none" stroke="#e377c2" cx="381.06" cy="-57.66" rx="118.17" ry="16.03"/>
<text text-anchor="middle" x="381.06" y="-53.96" font-family="Times,serif" font-size="14.00">okhmeta:PhysicalTag</text>
</g>
<!-- https://w3id.org/oseg/ont/okhmeta#PhysicalTag&#45;&gt;https://w3id.org/oseg/ont/okhmeta#MetaTag -->
<g id="edge18" class="edge">
<title>https://w3id.org/oseg/ont/okhmeta#PhysicalTag&#45;&gt;https://w3id.org/oseg/ont/okhmeta#MetaTag</title>
<path fill="none" stroke="black" d="M389.82,-74.29C419.79,-131.2 518.36,-318.37 554.47,-386.94"/>
<polygon fill="black" stroke="black" points="551.38,-388.58 559.14,-395.8 557.57,-385.32 551.38,-388.58"/>
<text text-anchor="middle" x="395.14" y="-219.41" font-family="Times,serif" font-size="14.00">okhmeta:hasMetaTag</text>
</g>
<!-- https://w3id.org/oseg/ont/okhmeta#PhysicalTag&#45;&gt;https://w3id.org/oseg/ont/okhmeta#Tag -->
<g id="edge24" class="edge">
<title>https://w3id.org/oseg/ont/okhmeta#PhysicalTag&#45;&gt;https://w3id.org/oseg/ont/okhmeta#Tag</title>
<path fill="none" stroke="black" d="M387.54,-73.96C407.77,-124.81 469.82,-280.81 494.56,-343.01"/>
<polygon fill="black" stroke="black" points="491.38,-344.49 498.33,-352.49 497.89,-341.9 491.38,-344.49"/>
<text text-anchor="middle" x="436.55" y="-197.28" font-family="Times,serif" font-size="14.00">a</text>
</g>
<!-- https://w3id.org/oseg/ont/okhmeta#PartsTag -->
<g id="node11" class="node">
<title>https://w3id.org/oseg/ont/okhmeta#PartsTag</title>
<ellipse fill="none" stroke="#e377c2" cx="462.27" cy="-723.31" rx="103.48" ry="16.03"/>
<text text-anchor="middle" x="462.27" y="-719.61" font-family="Times,serif" font-size="14.00">okhmeta:PartsTag</text>
</g>
<!-- https://w3id.org/oseg/ont/okhmeta#PartsTag&#45;&gt;https://w3id.org/oseg/ont/okhmeta#MetaTag -->
<g id="edge27" class="edge">
<title>https://w3id.org/oseg/ont/okhmeta#PartsTag&#45;&gt;https://w3id.org/oseg/ont/okhmeta#MetaTag</title>
<path fill="none" stroke="black" d="M467.8,-707.04C485.04,-656.26 537.96,-500.47 559.06,-438.36"/>
<polygon fill="black" stroke="black" points="562.37,-439.48 562.27,-428.89 555.74,-437.23 562.37,-439.48"/>
<text text-anchor="middle" x="436.43" y="-576.5" font-family="Times,serif" font-size="14.00">okhmeta:hasMetaTag</text>
</g>
<!-- https://w3id.org/oseg/ont/okhmeta#PartsTag&#45;&gt;https://w3id.org/oseg/ont/okhmeta#Tag -->
<g id="edge25" class="edge">
<title>https://w3id.org/oseg/ont/okhmeta#PartsTag&#45;&gt;https://w3id.org/oseg/ont/okhmeta#Tag</title>
<path fill="none" stroke="black" d="M464.27,-706.7C471.06,-650.21 493.33,-465.2 501.69,-395.71"/>
<polygon fill="black" stroke="black" points="505.19,-395.93 502.91,-385.58 498.24,-395.09 505.19,-395.93"/>
<text text-anchor="middle" x="478.48" y="-540" font-family="Times,serif" font-size="14.00">a</text>
</g>
<!-- https://w3id.org/oseg/ont/okhmeta#QualityTag -->
<g id="node12" class="node">
<title>https://w3id.org/oseg/ont/okhmeta#QualityTag</title>
<ellipse fill="none" stroke="#e377c2" cx="529.95" cy="-15.91" rx="113.27" ry="16.03"/>
<text text-anchor="middle" x="529.95" y="-12.21" font-family="Times,serif" font-size="14.00">okhmeta:QualityTag</text>
</g>
<!-- https://w3id.org/oseg/ont/okhmeta#QualityTag&#45;&gt;https://w3id.org/oseg/ont/okhmeta#MetaTag -->
<g id="edge28" class="edge">
<title>https://w3id.org/oseg/ont/okhmeta#QualityTag&#45;&gt;https://w3id.org/oseg/ont/okhmeta#MetaTag</title>
<path fill="none" stroke="black" d="M531.53,-32.44C537.41,-93.9 558.04,-309.59 565.32,-385.62"/>
<polygon fill="black" stroke="black" points="561.85,-386.17 566.29,-395.79 568.82,-385.5 561.85,-386.17"/>
<text text-anchor="middle" x="625.42" y="-197.83" font-family="Times,serif" font-size="14.00">okhmeta:hasMetaTag</text>
</g>
<!-- https://w3id.org/oseg/ont/okhmeta#QualityTag&#45;&gt;https://w3id.org/oseg/ont/okhmeta#Tag -->
<g id="edge6" class="edge">
<title>https://w3id.org/oseg/ont/okhmeta#QualityTag&#45;&gt;https://w3id.org/oseg/ont/okhmeta#Tag</title>
<path fill="none" stroke="black" d="M528.78,-32.46C524.78,-88.76 511.7,-273.14 506.79,-342.39"/>
<polygon fill="black" stroke="black" points="503.29,-342.26 506.07,-352.48 510.27,-342.76 503.29,-342.26"/>
<text text-anchor="middle" x="513.28" y="-191.23" font-family="Times,serif" font-size="14.00">a</text>
</g>
<!-- https://w3id.org/oseg/ont/okhmeta#DocumentationTag -->
<g id="node13" class="node">
<title>https://w3id.org/oseg/ont/okhmeta#DocumentationTag</title>
<ellipse fill="none" stroke="#e377c2" cx="273.02" cy="-117.17" rx="125.32" ry="16.03"/>
<text text-anchor="middle" x="273.02" y="-113.47" font-family="Times,serif" font-size="14.00">okhmeta:Documenta...</text>
</g>
<!-- https://w3id.org/oseg/ont/okhmeta#DocumentationTag&#45;&gt;https://w3id.org/oseg/ont/okhmeta#MetaTag -->
<g id="edge31" class="edge">
<title>https://w3id.org/oseg/ont/okhmeta#DocumentationTag&#45;&gt;https://w3id.org/oseg/ont/okhmeta#MetaTag</title>
<path fill="none" stroke="black" d="M289.29,-133.46C338.63,-182.86 486.68,-331.1 544.44,-388.93"/>
<polygon fill="black" stroke="black" points="542.11,-391.55 551.65,-396.15 547.06,-386.6 542.11,-391.55"/>
<text text-anchor="middle" x="339.86" y="-264.99" font-family="Times,serif" font-size="14.00">okhmeta:hasMetaTag</text>
</g>
<!-- https://w3id.org/oseg/ont/okhmeta#DocumentationTag&#45;&gt;https://w3id.org/oseg/ont/okhmeta#Tag -->
<g id="edge30" class="edge">
<title>https://w3id.org/oseg/ont/okhmeta#DocumentationTag&#45;&gt;https://w3id.org/oseg/ont/okhmeta#Tag</title>
<path fill="none" stroke="black" d="M288.23,-133.69C328.21,-177.11 436.34,-294.55 482.99,-345.21"/>
<polygon fill="black" stroke="black" points="480.58,-347.76 489.93,-352.75 485.73,-343.02 480.58,-347.76"/>
<text text-anchor="middle" x="381.11" y="-243.25" font-family="Times,serif" font-size="14.00">a</text>
</g>
<!-- https://w3id.org/oseg/ont/okhmeta#DataTag -->
<g id="node16" class="node">
<title>https://w3id.org/oseg/ont/okhmeta#DataTag</title>
<ellipse fill="none" stroke="#e377c2" cx="610.29" cy="-67.42" rx="100.32" ry="16.03"/>
<text text-anchor="middle" x="610.29" y="-63.72" font-family="Times,serif" font-size="14.00">okhmeta:DataTag</text>
</g>
<!-- https://w3id.org/oseg/ont/okhmeta#DataTag&#45;&gt;https://w3id.org/oseg/ont/okhmeta#MetaTag -->
<g id="edge37" class="edge">
<title>https://w3id.org/oseg/ont/okhmeta#DataTag&#45;&gt;https://w3id.org/oseg/ont/okhmeta#MetaTag</title>
<path fill="none" stroke="black" d="M608.25,-84.06C601.45,-139.39 579.54,-317.56 571.17,-385.62"/>
<polygon fill="black" stroke="black" points="567.65,-385.57 569.9,-395.92 574.6,-386.43 567.65,-385.57"/>
<text text-anchor="middle" x="512.71" y="-238.64" font-family="Times,serif" font-size="14.00">okhmeta:hasMetaTag</text>
</g>
<!-- https://w3id.org/oseg/ont/okhmeta#DataTag&#45;&gt;https://w3id.org/oseg/ont/okhmeta#Tag -->
<g id="edge33" class="edge">
<title>https://w3id.org/oseg/ont/okhmeta#DataTag&#45;&gt;https://w3id.org/oseg/ont/okhmeta#Tag</title>
<path fill="none" stroke="black" d="M604.48,-84.06C587.02,-134.03 534.97,-282.96 513.9,-343.24"/>
<polygon fill="black" stroke="black" points="510.57,-342.19 510.57,-352.78 517.17,-344.49 510.57,-342.19"/>
<text text-anchor="middle" x="554.69" y="-217.45" font-family="Times,serif" font-size="14.00">a</text>
</g>
<!-- https://w3id.org/oseg/ont/okhmeta#ExtendedInfoTag -->
<g id="node18" class="node">
<title>https://w3id.org/oseg/ont/okhmeta#ExtendedInfoTag</title>
<ellipse fill="none" stroke="#e377c2" cx="868.99" cy="-534.5" rx="120.42" ry="16.03"/>
<text text-anchor="middle" x="868.99" y="-530.8" font-family="Times,serif" font-size="14.00">okhmeta:ExtendedI...</text>
</g>
<!-- https://w3id.org/oseg/ont/okhmeta#ExtendedInfoTag&#45;&gt;https://w3id.org/oseg/ont/okhmeta#MetaTag -->
<g id="edge39" class="edge">
<title>https://w3id.org/oseg/ont/okhmeta#ExtendedInfoTag&#45;&gt;https://w3id.org/oseg/ont/okhmeta#MetaTag</title>
<path fill="none" stroke="black" d="M830.86,-519.04C775.84,-496.73 674.29,-455.55 614.77,-431.41"/>
<polygon fill="black" stroke="black" points="615.81,-428.06 605.23,-427.54 613.18,-434.54 615.81,-428.06"/>
<text text-anchor="middle" x="645.81" y="-479.02" font-family="Times,serif" font-size="14.00">okhmeta:hasMetaTag</text>
</g>
<!-- https://w3id.org/oseg/ont/okhmeta#ExtendedInfoTag&#45;&gt;https://w3id.org/oseg/ont/okhmeta#Tag -->
<g id="edge13" class="edge">
<title>https://w3id.org/oseg/ont/okhmeta#ExtendedInfoTag&#45;&gt;https://w3id.org/oseg/ont/okhmeta#Tag</title>
<path fill="none" stroke="black" d="M834.41,-518.78C767.23,-488.24 619.29,-421 546.72,-388.01"/>
<polygon fill="black" stroke="black" points="547.96,-384.73 537.41,-383.78 545.07,-391.11 547.96,-384.73"/>
<text text-anchor="middle" x="686.07" y="-457.2" font-family="Times,serif" font-size="14.00">a</text>
</g>
<!-- https://w3id.org/oseg/ont/okhmeta#TransportationTag -->
<g id="node19" class="node">
<title>https://w3id.org/oseg/ont/okhmeta#TransportationTag</title>
<ellipse fill="none" stroke="#e377c2" cx="220.39" cy="-566.82" rx="118.17" ry="16.03"/>
<text text-anchor="middle" x="220.39" y="-563.12" font-family="Times,serif" font-size="14.00">okhmeta:Transport...</text>
</g>
<!-- https://w3id.org/oseg/ont/okhmeta#TransportationTag&#45;&gt;https://w3id.org/oseg/ont/okhmeta#MetaTag -->
<g id="edge29" class="edge">
<title>https://w3id.org/oseg/ont/okhmeta#TransportationTag&#45;&gt;https://w3id.org/oseg/ont/okhmeta#MetaTag</title>
<path fill="none" stroke="black" d="M255.62,-551.16C319.48,-522.78 454.17,-462.93 523.93,-431.93"/>
<polygon fill="black" stroke="black" points="525.61,-435.01 533.33,-427.75 522.77,-428.61 525.61,-435.01"/>
<text text-anchor="middle" x="312.78" y="-495.34" font-family="Times,serif" font-size="14.00">okhmeta:hasMetaTag</text>
</g>
<!-- https://w3id.org/oseg/ont/okhmeta#TransportationTag&#45;&gt;https://w3id.org/oseg/ont/okhmeta#Tag -->
<g id="edge36" class="edge">
<title>https://w3id.org/oseg/ont/okhmeta#TransportationTag&#45;&gt;https://w3id.org/oseg/ont/okhmeta#Tag</title>
<path fill="none" stroke="black" d="M243.67,-550.63C294.8,-515.08 416.87,-430.21 474.19,-390.36"/>
<polygon fill="black" stroke="black" points="476.27,-393.17 482.48,-384.59 472.28,-387.42 476.27,-393.17"/>
<text text-anchor="middle" x="354.43" y="-474.29" font-family="Times,serif" font-size="14.00">a</text>
</g>
<!-- https://w3id.org/oseg/ont/okhmeta#DataGatheringTag -->
<g id="node20" class="node">
<title>https://w3id.org/oseg/ont/okhmeta#DataGatheringTag</title>
<ellipse fill="none" stroke="#e377c2" cx="796.71" cy="-647.97" rx="122.16" ry="16.03"/>
<text text-anchor="middle" x="796.71" y="-644.27" font-family="Times,serif" font-size="14.00">okhmeta:DataGathe...</text>
</g>
<!-- https://w3id.org/oseg/ont/okhmeta#DataGatheringTag&#45;&gt;https://w3id.org/oseg/ont/okhmeta#MetaTag -->
<g id="edge22" class="edge">
<title>https://w3id.org/oseg/ont/okhmeta#DataGatheringTag&#45;&gt;https://w3id.org/oseg/ont/okhmeta#MetaTag</title>
<path fill="none" stroke="black" d="M780.99,-631.78C741.39,-591.01 637.42,-483.99 590.93,-436.12"/>
<polygon fill="black" stroke="black" points="593.19,-433.43 583.72,-428.7 588.17,-438.31 593.19,-433.43"/>
<text text-anchor="middle" x="608.96" y="-522.75" font-family="Times,serif" font-size="14.00">okhmeta:hasMetaTag</text>
</g>
<!-- https://w3id.org/oseg/ont/okhmeta#DataGatheringTag&#45;&gt;https://w3id.org/oseg/ont/okhmeta#Tag -->
<g id="edge16" class="edge">
<title>https://w3id.org/oseg/ont/okhmeta#DataGatheringTag&#45;&gt;https://w3id.org/oseg/ont/okhmeta#Tag</title>
<path fill="none" stroke="black" d="M779.76,-631.76C730.39,-584.56 586.55,-447.06 529.05,-392.1"/>
<polygon fill="black" stroke="black" points="531.18,-389.29 521.53,-384.91 526.34,-394.35 531.18,-389.29"/>
<text text-anchor="middle" x="649.91" y="-500.73" font-family="Times,serif" font-size="14.00">a</text>
</g>
<!-- https://w3id.org/oseg/ont/okhmeta#AcademicTag -->
<g id="node21" class="node">
<title>https://w3id.org/oseg/ont/okhmeta#AcademicTag</title>
<ellipse fill="none" stroke="#e377c2" cx="850.96" cy="-169.46" rx="124.4" ry="16.03"/>
<text text-anchor="middle" x="850.96" y="-165.76" font-family="Times,serif" font-size="14.00">okhmeta:AcademicTag</text>
</g>
<!-- https://w3id.org/oseg/ont/okhmeta#AcademicTag&#45;&gt;https://w3id.org/oseg/ont/okhmeta#MetaTag -->
<g id="edge19" class="edge">
<title>https://w3id.org/oseg/ont/okhmeta#AcademicTag&#45;&gt;https://w3id.org/oseg/ont/okhmeta#MetaTag</title>
<path fill="none" stroke="black" d="M831.94,-185.78C782.79,-227.96 651.4,-340.72 594.62,-389.44"/>
<polygon fill="black" stroke="black" points="592.12,-386.98 586.81,-396.15 596.67,-392.29 592.12,-386.98"/>
<text text-anchor="middle" x="636.28" y="-291.41" font-family="Times,serif" font-size="14.00">okhmeta:hasMetaTag</text>
</g>
<!-- https://w3id.org/oseg/ont/okhmeta#AcademicTag&#45;&gt;https://w3id.org/oseg/ont/okhmeta#Tag -->
<g id="edge17" class="edge">
<title>https://w3id.org/oseg/ont/okhmeta#AcademicTag&#45;&gt;https://w3id.org/oseg/ont/okhmeta#Tag</title>
<path fill="none" stroke="black" d="M823.22,-185.45C760.9,-221.39 609.84,-308.49 540.62,-348.41"/>
<polygon fill="black" stroke="black" points="538.72,-345.46 531.81,-353.49 542.22,-351.52 538.72,-345.46"/>
<text text-anchor="middle" x="677.42" y="-270.73" font-family="Times,serif" font-size="14.00">a</text>
</g>
<!-- https://w3id.org/oseg/ont/okhmeta#MakingTag -->
<g id="node23" class="node">
<title>https://w3id.org/oseg/ont/okhmeta#MakingTag</title>
<ellipse fill="none" stroke="#e377c2" cx="873.78" cy="-287.77" rx="113.69" ry="16.03"/>
<text text-anchor="middle" x="873.78" y="-284.07" font-family="Times,serif" font-size="14.00">okhmeta:MakingTag</text>
</g>
<!-- https://w3id.org/oseg/ont/okhmeta#MakingTag&#45;&gt;https://w3id.org/oseg/ont/okhmeta#MetaTag -->
<g id="edge46" class="edge">
<title>https://w3id.org/oseg/ont/okhmeta#MakingTag&#45;&gt;https://w3id.org/oseg/ont/okhmeta#MetaTag</title>
<path fill="none" stroke="black" d="M835.96,-303.17C779.97,-325.98 675.12,-368.7 614.47,-393.41"/>
<polygon fill="black" stroke="black" points="613.07,-390.2 605.13,-397.22 615.71,-396.69 613.07,-390.2"/>
<text text-anchor="middle" x="648.21" y="-337.09" font-family="Times,serif" font-size="14.00">okhmeta:hasMetaTag</text>
</g>
<!-- https://w3id.org/oseg/ont/okhmeta#MakingTag&#45;&gt;https://w3id.org/oseg/ont/okhmeta#Tag -->
<g id="edge41" class="edge">
<title>https://w3id.org/oseg/ont/okhmeta#MakingTag&#45;&gt;https://w3id.org/oseg/ont/okhmeta#Tag</title>
<path fill="none" stroke="black" d="M811.62,-301.45C743.95,-316.36 636.3,-340.07 568.19,-355.07"/>
<polygon fill="black" stroke="black" points="567.04,-351.74 558.02,-357.3 568.54,-358.57 567.04,-351.74"/>
<text text-anchor="middle" x="685.4" y="-317.06" font-family="Times,serif" font-size="14.00">a</text>
</g>
<!-- https://w3id.org/oseg/ont/okhmeta#BasicTag -->
<g id="node25" class="node">
<title>https://w3id.org/oseg/ont/okhmeta#BasicTag</title>
<ellipse fill="none" stroke="#e377c2" cx="245.2" cy="-372.77" rx="103.48" ry="16.03"/>
<text text-anchor="middle" x="245.2" y="-369.07" font-family="Times,serif" font-size="14.00">okhmeta:BasicTag</text>
</g>
<!-- https://w3id.org/oseg/ont/okhmeta#BasicTag&#45;&gt;https://w3id.org/oseg/ont/okhmeta#MetaTag -->
<g id="edge32" class="edge">
<title>https://w3id.org/oseg/ont/okhmeta#BasicTag&#45;&gt;https://w3id.org/oseg/ont/okhmeta#MetaTag</title>
<path fill="none" stroke="black" d="M326.63,-382.77C372.29,-388.38 429.37,-395.39 476.54,-401.18"/>
<polygon fill="black" stroke="black" points="476.41,-404.69 486.76,-402.43 477.26,-397.74 476.41,-404.69"/>
<text text-anchor="middle" x="324.59" y="-395.77" font-family="Times,serif" font-size="14.00">okhmeta:hasMetaTag</text>
</g>
<!-- https://w3id.org/oseg/ont/okhmeta#BasicTag&#45;&gt;https://w3id.org/oseg/ont/okhmeta#Tag -->
<g id="edge43" class="edge">
<title>https://w3id.org/oseg/ont/okhmeta#BasicTag&#45;&gt;https://w3id.org/oseg/ont/okhmeta#Tag</title>
<path fill="none" stroke="black" d="M348.22,-371.28C371.43,-370.94 395.83,-370.59 418.29,-370.26"/>
<polygon fill="black" stroke="black" points="418.51,-373.76 428.46,-370.11 418.41,-366.76 418.51,-373.76"/>
<text text-anchor="middle" x="378.75" y="-374.57" font-family="Times,serif" font-size="14.00">a</text>
</g>
<!-- https://w3id.org/oseg/ont/okhmeta#IdentificationTag -->
<g id="node26" class="node">
<title>https://w3id.org/oseg/ont/okhmeta#IdentificationTag</title>
<ellipse fill="none" stroke="#e377c2" cx="760.93" cy="-108.39" rx="109.7" ry="16.03"/>
<text text-anchor="middle" x="760.93" y="-104.69" font-family="Times,serif" font-size="14.00">okhmeta:Identific...</text>
</g>
<!-- https://w3id.org/oseg/ont/okhmeta#IdentificationTag&#45;&gt;https://w3id.org/oseg/ont/okhmeta#MetaTag -->
<g id="edge5" class="edge">
<title>https://w3id.org/oseg/ont/okhmeta#IdentificationTag&#45;&gt;https://w3id.org/oseg/ont/okhmeta#MetaTag</title>
<path fill="none" stroke="black" d="M750.55,-124.74C718.67,-174.94 622,-327.17 583.72,-387.44"/>
<polygon fill="black" stroke="black" points="580.71,-385.65 578.31,-395.97 586.62,-389.4 580.71,-385.65"/>
<text text-anchor="middle" x="590.14" y="-259.89" font-family="Times,serif" font-size="14.00">okhmeta:hasMetaTag</text>
</g>
<!-- https://w3id.org/oseg/ont/okhmeta#IdentificationTag&#45;&gt;https://w3id.org/oseg/ont/okhmeta#Tag -->
<g id="edge44" class="edge">
<title>https://w3id.org/oseg/ont/okhmeta#IdentificationTag&#45;&gt;https://w3id.org/oseg/ont/okhmeta#Tag</title>
<path fill="none" stroke="black" d="M744.91,-124.69C701.08,-169.32 578.99,-293.59 527.87,-345.62"/>
<polygon fill="black" stroke="black" points="525.09,-343.45 520.58,-353.04 530.09,-348.36 525.09,-343.45"/>
<text text-anchor="middle" x="631.89" y="-238.96" font-family="Times,serif" font-size="14.00">a</text>
</g>
<!-- https://w3id.org/oseg/ont/okhmeta#DevelopmentTag -->
<g id="node27" class="node">
<title>https://w3id.org/oseg/ont/okhmeta#DevelopmentTag</title>
<ellipse fill="none" stroke="#e377c2" cx="192.37" cy="-230.81" rx="124.4" ry="16.03"/>
<text text-anchor="middle" x="192.37" y="-227.11" font-family="Times,serif" font-size="14.00">okhmeta:Developme...</text>
</g>
<!-- https://w3id.org/oseg/ont/okhmeta#DevelopmentTag&#45;&gt;https://w3id.org/oseg/ont/okhmeta#MetaTag -->
<g id="edge14" class="edge">
<title>https://w3id.org/oseg/ont/okhmeta#DevelopmentTag&#45;&gt;https://w3id.org/oseg/ont/okhmeta#MetaTag</title>
<path fill="none" stroke="black" d="M225.03,-246.61C293.4,-279.66 451.41,-356.08 526.63,-392.45"/>
<polygon fill="black" stroke="black" points="525.29,-395.69 535.82,-396.89 528.34,-389.39 525.29,-395.69"/>
<text text-anchor="middle" x="298.83" y="-323.33" font-family="Times,serif" font-size="14.00">okhmeta:hasMetaTag</text>
</g>
<!-- https://w3id.org/oseg/ont/okhmeta#DevelopmentTag&#45;&gt;https://w3id.org/oseg/ont/okhmeta#Tag -->
<g id="edge20" class="edge">
<title>https://w3id.org/oseg/ont/okhmeta#DevelopmentTag&#45;&gt;https://w3id.org/oseg/ont/okhmeta#Tag</title>
<path fill="none" stroke="black" d="M227.92,-246.53C285.78,-272.11 400.09,-322.66 462.24,-350.14"/>
<polygon fill="black" stroke="black" points="461.19,-353.5 471.75,-354.35 464.02,-347.1 461.19,-353.5"/>
<text text-anchor="middle" x="340.58" y="-302.13" font-family="Times,serif" font-size="14.00">a</text>
</g>
<!-- https://w3id.org/oseg/ont/okhmeta#HistoryTag -->
<g id="node28" class="node">
<title>https://w3id.org/oseg/ont/okhmeta#HistoryTag</title>
<ellipse fill="none" stroke="#e377c2" cx="890.78" cy="-409.05" rx="113.69" ry="16.03"/>
<text text-anchor="middle" x="890.78" y="-405.35" font-family="Times,serif" font-size="14.00">okhmeta:HistoryTag</text>
</g>
<!-- https://w3id.org/oseg/ont/okhmeta#HistoryTag&#45;&gt;https://w3id.org/oseg/ont/okhmeta#MetaTag -->
<g id="edge15" class="edge">
<title>https://w3id.org/oseg/ont/okhmeta#HistoryTag&#45;&gt;https://w3id.org/oseg/ont/okhmeta#MetaTag</title>
<path fill="none" stroke="black" d="M776.93,-410.23C745.56,-410.56 711.55,-410.91 680.26,-411.23"/>
<polygon fill="black" stroke="black" points="680.16,-407.73 670.2,-411.34 680.23,-414.73 680.16,-407.73"/>
<text text-anchor="middle" x="690.1" y="-399.53" font-family="Times,serif" font-size="14.00">okhmeta:hasMetaTag</text>
</g>
<!-- https://w3id.org/oseg/ont/okhmeta#HistoryTag&#45;&gt;https://w3id.org/oseg/ont/okhmeta#Tag -->
<g id="edge21" class="edge">
<title>https://w3id.org/oseg/ont/okhmeta#HistoryTag&#45;&gt;https://w3id.org/oseg/ont/okhmeta#Tag</title>
<path fill="none" stroke="black" d="M798.35,-399.46C732.88,-392.66 645.98,-383.65 583.77,-377.19"/>
<polygon fill="black" stroke="black" points="583.92,-373.69 573.61,-376.14 583.2,-380.65 583.92,-373.69"/>
<text text-anchor="middle" x="686.56" y="-377.12" font-family="Times,serif" font-size="14.00">a</text>
</g>
</g>
</svg>
