<?xml version="1.0" encoding="UTF-8" standalone="no"?>
<!DOCTYPE svg PUBLIC "-//W3C//DTD SVG 1.1//EN"
 "http://www.w3.org/Graphics/SVG/1.1/DTD/svg11.dtd">
<!-- Generated by graphviz version 2.43.0 (0)
 -->
<!-- Title: G Pages: 1 -->
<svg width="2254pt" height="1732pt"
 viewBox="0.00 0.00 2254.00 1732.00" xmlns="http://www.w3.org/2000/svg" xmlns:xlink="http://www.w3.org/1999/xlink">
<g id="graph0" class="graph" transform="scale(1 1) rotate(0) translate(4 1728)">
<title>G</title>
<polygon fill="white" stroke="transparent" points="-4,4 -4,-1728 2250,-1728 2250,4 -4,4"/>
<!-- http://w3id.org/oseg/ont/otrl#ODRL -->
<g id="node1" class="node">
<title>http://w3id.org/oseg/ont/otrl#ODRL</title>
<ellipse fill="none" stroke="#e377c2" cx="912.46" cy="-919.71" rx="62.87" ry="16.03"/>
<text text-anchor="middle" x="912.46" y="-916.01" font-family="Times,serif" font-size="14.00">otrl:ODRL</text>
</g>
<!-- http://spdx.org/rdf/terms#SpdxItem -->
<g id="node2" class="node">
<title>http://spdx.org/rdf/terms#SpdxItem</title>
<ellipse fill="none" stroke="#1f77b4" cx="1335.39" cy="-1163.56" rx="87.86" ry="16.03"/>
<text text-anchor="middle" x="1335.39" y="-1159.86" font-family="Times,serif" font-size="14.00">spdx:SpdxItem</text>
</g>
<!-- http://w3id.org/oseg/ont/otrl#OTRL -->
<g id="node3" class="node">
<title>http://w3id.org/oseg/ont/otrl#OTRL</title>
<ellipse fill="none" stroke="#e377c2" cx="1401.42" cy="-579.12" rx="60.62" ry="16.03"/>
<text text-anchor="middle" x="1401.42" y="-575.42" font-family="Times,serif" font-size="14.00">otrl:OTRL</text>
</g>
<!-- http://w3id.org/oseg/ont/otrl#ODRL3 -->
<g id="node4" class="node">
<title>http://w3id.org/oseg/ont/otrl#ODRL3</title>
<ellipse fill="none" stroke="#e377c2" cx="644.63" cy="-862.2" rx="69.09" ry="16.03"/>
<text text-anchor="middle" x="644.63" y="-858.5" font-family="Times,serif" font-size="14.00">otrl:ODRL3</text>
</g>
<!-- http://w3id.org/oseg/ont/otrl#ODRL3&#45;&gt;http://w3id.org/oseg/ont/otrl#ODRL -->
<g id="edge1" class="edge">
<title>http://w3id.org/oseg/ont/otrl#ODRL3&#45;&gt;http://w3id.org/oseg/ont/otrl#ODRL</title>
<path fill="none" stroke="black" d="M695.95,-873.22C741.1,-882.91 806.78,-897.02 853.95,-907.15"/>
<polygon fill="black" stroke="black" points="853.5,-910.63 864.02,-909.31 854.97,-903.79 853.5,-910.63"/>
<text text-anchor="middle" x="770.45" y="-893.98" font-family="Times,serif" font-size="14.00">a</text>
</g>
<!-- http://spdx.org/licenses/GPL&#45;3.0&#45;or&#45;later -->
<g id="node5" class="node">
<title>http://spdx.org/licenses/GPL&#45;3.0&#45;or&#45;later</title>
<ellipse fill="none" stroke="#e377c2" cx="1739.22" cy="-1209.82" rx="108.79" ry="16.03"/>
<text text-anchor="middle" x="1739.22" y="-1206.12" font-family="Times,serif" font-size="14.00">spdxl:GPL&#45;3.0&#45;or&#45;...</text>
</g>
<!-- http://w3id.org/oseg/ont/oseg&#45;profiles#Iopa -->
<g id="node6" class="node">
<title>http://w3id.org/oseg/ont/oseg&#45;profiles#Iopa</title>
<ellipse fill="none" stroke="#e377c2" cx="1541.61" cy="-1229.79" rx="80.72" ry="16.03"/>
<text text-anchor="middle" x="1541.61" y="-1226.09" font-family="Times,serif" font-size="14.00">osegprof:Iopa</text>
</g>
<!-- http://www.w3.org/1999/02/22&#45;rdf&#45;syntax&#45;ns#langString -->
<g id="node7" class="node">
<title>http://www.w3.org/1999/02/22&#45;rdf&#45;syntax&#45;ns#langString</title>
<ellipse fill="none" stroke="#e377c2" cx="1245.88" cy="-885.91" rx="83.38" ry="16.03"/>
<text text-anchor="middle" x="1245.88" y="-882.21" font-family="Times,serif" font-size="14.00">rdf:langString</text>
</g>
<!-- http://w3id.org/oseg/ont/otrl#ODRL4 -->
<g id="node8" class="node">
<title>http://w3id.org/oseg/ont/otrl#ODRL4</title>
<ellipse fill="none" stroke="#e377c2" cx="760.1" cy="-1176.19" rx="69.09" ry="16.03"/>
<text text-anchor="middle" x="760.1" y="-1172.49" font-family="Times,serif" font-size="14.00">otrl:ODRL4</text>
</g>
<!-- http://w3id.org/oseg/ont/otrl#ODRL4&#45;&gt;http://w3id.org/oseg/ont/otrl#ODRL -->
<g id="edge5" class="edge">
<title>http://w3id.org/oseg/ont/otrl#ODRL4&#45;&gt;http://w3id.org/oseg/ont/otrl#ODRL</title>
<path fill="none" stroke="black" d="M769.86,-1159.75C795.82,-1116.05 866.69,-996.76 897.65,-944.64"/>
<polygon fill="black" stroke="black" points="900.68,-946.39 902.78,-936.01 894.66,-942.82 900.68,-946.39"/>
<text text-anchor="middle" x="829.26" y="-1056" font-family="Times,serif" font-size="14.00">a</text>
</g>
<!-- http://w3id.org/oseg/ont/1.1.0/otrl -->
<g id="node9" class="node">
<title>http://w3id.org/oseg/ont/1.1.0/otrl</title>
<ellipse fill="none" stroke="#e377c2" cx="1359.34" cy="-1353.84" rx="50.82" ry="16.03"/>
<text text-anchor="middle" x="1359.34" y="-1350.14" font-family="Times,serif" font-size="14.00">ns1:otrl</text>
</g>
<!-- http://w3id.org/oseg/ont/otrl#OTRL4 -->
<g id="node10" class="node">
<title>http://w3id.org/oseg/ont/otrl#OTRL4</title>
<ellipse fill="none" stroke="#e377c2" cx="1176.21" cy="-412.15" rx="67.35" ry="16.03"/>
<text text-anchor="middle" x="1176.21" y="-408.45" font-family="Times,serif" font-size="14.00">otrl:OTRL4</text>
</g>
<!-- http://w3id.org/oseg/ont/otrl#OTRL4&#45;&gt;http://w3id.org/oseg/ont/otrl#OTRL -->
<g id="edge8" class="edge">
<title>http://w3id.org/oseg/ont/otrl#OTRL4&#45;&gt;http://w3id.org/oseg/ont/otrl#OTRL</title>
<path fill="none" stroke="black" d="M1197.39,-427.86C1238.01,-457.97 1326.85,-523.83 1372.73,-557.85"/>
<polygon fill="black" stroke="black" points="1370.66,-560.67 1380.78,-563.81 1374.83,-555.05 1370.66,-560.67"/>
<text text-anchor="middle" x="1280.56" y="-496.65" font-family="Times,serif" font-size="14.00">a</text>
</g>
<!-- http://w3id.org/oseg/ont/otrl#Odrl4 -->
<g id="node11" class="node">
<title>http://w3id.org/oseg/ont/otrl#Odrl4</title>
<ellipse fill="none" stroke="#e377c2" cx="608.01" cy="-1407.91" rx="61.54" ry="16.03"/>
<text text-anchor="middle" x="608.01" y="-1404.21" font-family="Times,serif" font-size="14.00">otrl:Odrl4</text>
</g>
<!-- http://w3id.org/oseg/ont/otrl#Odrl4&#45;&gt;http://w3id.org/oseg/ont/otrl#ODRL4 -->
<g id="edge18" class="edge">
<title>http://w3id.org/oseg/ont/otrl#Odrl4&#45;&gt;http://w3id.org/oseg/ont/otrl#ODRL4</title>
<path fill="none" stroke="black" d="M618.71,-1391.61C644.94,-1351.64 712.61,-1248.54 743.85,-1200.94"/>
<polygon fill="black" stroke="black" points="746.85,-1202.75 749.42,-1192.46 741,-1198.9 746.85,-1202.75"/>
<text text-anchor="middle" x="601.28" y="-1300.08" font-family="Times,serif" font-size="14.00">schema:supersededBy</text>
</g>
<!-- http://w3id.org/oseg/ont/oseg&#45;profiles#robinVobruba -->
<g id="node12" class="node">
<title>http://w3id.org/oseg/ont/oseg&#45;profiles#robinVobruba</title>
<ellipse fill="none" stroke="#e377c2" cx="1705.25" cy="-1413.34" rx="113.69" ry="16.03"/>
<text text-anchor="middle" x="1705.25" y="-1409.64" font-family="Times,serif" font-size="14.00">osegprof:robinVob...</text>
</g>
<!-- http://w3id.org/oseg/ont/otrl#ODRL3Star -->
<g id="node13" class="node">
<title>http://w3id.org/oseg/ont/otrl#ODRL3Star</title>
<ellipse fill="none" stroke="#e377c2" cx="630.74" cy="-1032.22" rx="90.52" ry="16.03"/>
<text text-anchor="middle" x="630.74" y="-1028.52" font-family="Times,serif" font-size="14.00">otrl:ODRL3Star</text>
</g>
<!-- http://w3id.org/oseg/ont/otrl#ODRL3Star&#45;&gt;http://w3id.org/oseg/ont/otrl#ODRL -->
<g id="edge23" class="edge">
<title>http://w3id.org/oseg/ont/otrl#ODRL3Star&#45;&gt;http://w3id.org/oseg/ont/otrl#ODRL</title>
<path fill="none" stroke="black" d="M668.15,-1017.28C719.97,-996.58 813.42,-959.26 868.5,-937.26"/>
<polygon fill="black" stroke="black" points="870,-940.43 877.99,-933.47 867.41,-933.93 870,-940.43"/>
<text text-anchor="middle" x="763.83" y="-966.07" font-family="Times,serif" font-size="14.00">a</text>
</g>
<!-- http://w3id.org/oseg/ont/otrl#OTRL6 -->
<g id="node14" class="node">
<title>http://w3id.org/oseg/ont/otrl#OTRL6</title>
<ellipse fill="none" stroke="#e377c2" cx="1376.39" cy="-357.91" rx="67.35" ry="16.03"/>
<text text-anchor="middle" x="1376.39" y="-354.21" font-family="Times,serif" font-size="14.00">otrl:OTRL6</text>
</g>
<!-- http://w3id.org/oseg/ont/otrl#OTRL6&#45;&gt;http://w3id.org/oseg/ont/otrl#OTRL -->
<g id="edge14" class="edge">
<title>http://w3id.org/oseg/ont/otrl#OTRL6&#45;&gt;http://w3id.org/oseg/ont/otrl#OTRL</title>
<path fill="none" stroke="black" d="M1378.23,-374.17C1382.52,-412.04 1393.19,-506.4 1398.43,-552.68"/>
<polygon fill="black" stroke="black" points="1394.97,-553.28 1399.58,-562.83 1401.93,-552.5 1394.97,-553.28"/>
<text text-anchor="middle" x="1383.83" y="-467.22" font-family="Times,serif" font-size="14.00">a</text>
</g>
<!-- http://w3id.org/oseg/ont/oseg&#45;profiles#martinHaeuer -->
<g id="node15" class="node">
<title>http://w3id.org/oseg/ont/oseg&#45;profiles#martinHaeuer</title>
<ellipse fill="none" stroke="#e377c2" cx="1527.49" cy="-1312.41" rx="116.85" ry="16.03"/>
<text text-anchor="middle" x="1527.49" y="-1308.71" font-family="Times,serif" font-size="14.00">osegprof:martinHa...</text>
</g>
<!-- http://w3id.org/oseg/ont/otrl -->
<g id="node16" class="node">
<title>http://w3id.org/oseg/ont/otrl</title>
<ellipse fill="none" stroke="#e377c2" cx="1511.65" cy="-1271.32" rx="50.82" ry="16.03"/>
<text text-anchor="middle" x="1511.65" y="-1267.62" font-family="Times,serif" font-size="14.00">ns2:otrl</text>
</g>
<!-- http://w3id.org/oseg/ont/otrl&#45;&gt;http://spdx.org/rdf/terms#SpdxItem -->
<g id="edge16" class="edge">
<title>http://w3id.org/oseg/ont/otrl&#45;&gt;http://spdx.org/rdf/terms#SpdxItem</title>
<path fill="none" stroke="black" d="M1487.88,-1256.78C1457.52,-1238.22 1404.74,-1205.96 1369.94,-1184.68"/>
<polygon fill="black" stroke="black" points="1371.43,-1181.49 1361.07,-1179.26 1367.77,-1187.46 1371.43,-1181.49"/>
<text text-anchor="middle" x="1424.41" y="-1224.53" font-family="Times,serif" font-size="14.00">a</text>
</g>
<!-- http://w3id.org/oseg/ont/otrl&#45;&gt;http://spdx.org/licenses/GPL&#45;3.0&#45;or&#45;later -->
<g id="edge2" class="edge">
<title>http://w3id.org/oseg/ont/otrl&#45;&gt;http://spdx.org/licenses/GPL&#45;3.0&#45;or&#45;later</title>
<path fill="none" stroke="black" d="M1550.77,-1260.74C1585.29,-1251.42 1636.21,-1237.65 1676.43,-1226.78"/>
<polygon fill="black" stroke="black" points="1677.4,-1230.15 1686.14,-1224.16 1675.57,-1223.39 1677.4,-1230.15"/>
<text text-anchor="middle" x="1689.6" y="-1247.56" font-family="Times,serif" font-size="14.00">spdx:licenseDeclared</text>
</g>
<!-- http://w3id.org/oseg/ont/otrl&#45;&gt;http://w3id.org/oseg/ont/oseg&#45;profiles#Iopa -->
<g id="edge3" class="edge">
<title>http://w3id.org/oseg/ont/otrl&#45;&gt;http://w3id.org/oseg/ont/oseg&#45;profiles#Iopa</title>
<path fill="none" stroke="black" d="M1523.15,-1255.38C1523.43,-1254.99 1523.71,-1254.6 1523.99,-1254.21"/>
<polygon fill="black" stroke="black" points="1526.98,-1256.05 1529.99,-1245.89 1521.31,-1251.95 1526.98,-1256.05"/>
<text text-anchor="middle" x="1458.07" y="-1243.59" font-family="Times,serif" font-size="14.00">dcterms:publisher</text>
</g>
<!-- http://w3id.org/oseg/ont/otrl&#45;&gt;http://w3id.org/oseg/ont/1.1.0/otrl -->
<g id="edge6" class="edge">
<title>http://w3id.org/oseg/ont/otrl&#45;&gt;http://w3id.org/oseg/ont/1.1.0/otrl</title>
<path fill="none" stroke="black" d="M1485.47,-1285.5C1460.33,-1299.12 1422.18,-1319.79 1394.42,-1334.83"/>
<polygon fill="black" stroke="black" points="1392.56,-1331.86 1385.44,-1339.7 1395.9,-1338.01 1392.56,-1331.86"/>
<text text-anchor="middle" x="1388.44" y="-1298.97" font-family="Times,serif" font-size="14.00">owl:versionIRI</text>
</g>
<!-- http://w3id.org/oseg/ont/otrl&#45;&gt;http://w3id.org/oseg/ont/oseg&#45;profiles#robinVobruba -->
<g id="edge10" class="edge">
<title>http://w3id.org/oseg/ont/otrl&#45;&gt;http://w3id.org/oseg/ont/oseg&#45;profiles#robinVobruba</title>
<path fill="none" stroke="black" d="M1526.44,-1287.18C1556.2,-1312.87 1623.87,-1363.04 1666.93,-1391.86"/>
<polygon fill="black" stroke="black" points="1665.19,-1394.9 1675.46,-1397.5 1669.05,-1389.06 1665.19,-1394.9"/>
<text text-anchor="middle" x="1539.19" y="-1343.32" font-family="Times,serif" font-size="14.00">dcterms:creator</text>
</g>
<!-- http://w3id.org/oseg/ont/otrl&#45;&gt;http://w3id.org/oseg/ont/oseg&#45;profiles#robinVobruba -->
<g id="edge27" class="edge">
<title>http://w3id.org/oseg/ont/otrl&#45;&gt;http://w3id.org/oseg/ont/oseg&#45;profiles#robinVobruba</title>
<path fill="none" stroke="black" d="M1538.53,-1285.27C1576.76,-1309.89 1646.04,-1360.66 1682.12,-1390.44"/>
<polygon fill="black" stroke="black" points="1680.21,-1393.42 1690.12,-1397.18 1684.72,-1388.06 1680.21,-1393.42"/>
<text text-anchor="middle" x="1665.82" y="-1341.66" font-family="Times,serif" font-size="14.00">schema:creator</text>
</g>
<!-- http://w3id.org/oseg/ont/otrl&#45;&gt;http://w3id.org/oseg/ont/oseg&#45;profiles#martinHaeuer -->
<g id="edge15" class="edge">
<title>http://w3id.org/oseg/ont/otrl&#45;&gt;http://w3id.org/oseg/ont/oseg&#45;profiles#martinHaeuer</title>
<path fill="none" stroke="black" d="M1511.15,-1288.01C1511.18,-1288.1 1511.2,-1288.18 1511.22,-1288.27"/>
<polygon fill="black" stroke="black" points="1507.37,-1287.87 1514.01,-1296.13 1513.97,-1285.53 1507.37,-1287.87"/>
<text text-anchor="middle" x="1455.69" y="-1276.94" font-family="Times,serif" font-size="14.00">schema:creator</text>
</g>
<!-- http://w3id.org/oseg/ont/otrl&#45;&gt;http://w3id.org/oseg/ont/oseg&#45;profiles#martinHaeuer -->
<g id="edge37" class="edge">
<title>http://w3id.org/oseg/ont/otrl&#45;&gt;http://w3id.org/oseg/ont/oseg&#45;profiles#martinHaeuer</title>
<path fill="none" stroke="black" d="M1524.9,-1287.05C1524.94,-1287.14 1524.98,-1287.23 1525.02,-1287.33"/>
<polygon fill="black" stroke="black" points="1521.49,-1287.84 1528.1,-1296.12 1528.1,-1285.53 1521.49,-1287.84"/>
<text text-anchor="middle" x="1582.46" y="-1275.99" font-family="Times,serif" font-size="14.00">dcterms:creator</text>
</g>
<!-- http://id.loc.gov/vocabulary/iso639&#45;1/en -->
<g id="node25" class="node">
<title>http://id.loc.gov/vocabulary/iso639&#45;1/en</title>
<ellipse fill="none" stroke="#e377c2" cx="1533.17" cy="-1108.13" rx="45.01" ry="16.03"/>
<text text-anchor="middle" x="1533.17" y="-1104.43" font-family="Times,serif" font-size="14.00">ns3:en</text>
</g>
<!-- http://w3id.org/oseg/ont/otrl&#45;&gt;http://id.loc.gov/vocabulary/iso639&#45;1/en -->
<g id="edge35" class="edge">
<title>http://w3id.org/oseg/ont/otrl&#45;&gt;http://id.loc.gov/vocabulary/iso639&#45;1/en</title>
<path fill="none" stroke="black" d="M1513.83,-1254.77C1517.56,-1226.55 1525.16,-1168.86 1529.65,-1134.86"/>
<polygon fill="black" stroke="black" points="1533.15,-1135.09 1530.99,-1124.72 1526.21,-1134.18 1533.15,-1135.09"/>
<text text-anchor="middle" x="1457.24" y="-1198.62" font-family="Times,serif" font-size="14.00">dcterms:language</text>
</g>
<!-- http://w3id.org/oseg/ont/otrl#ODRL1 -->
<g id="node17" class="node">
<title>http://w3id.org/oseg/ont/otrl#ODRL1</title>
<ellipse fill="none" stroke="#e377c2" cx="884.76" cy="-809.23" rx="69.09" ry="16.03"/>
<text text-anchor="middle" x="884.76" y="-805.53" font-family="Times,serif" font-size="14.00">otrl:ODRL1</text>
</g>
<!-- http://w3id.org/oseg/ont/otrl#ODRL1&#45;&gt;http://w3id.org/oseg/ont/otrl#ODRL -->
<g id="edge20" class="edge">
<title>http://w3id.org/oseg/ont/otrl#ODRL1&#45;&gt;http://w3id.org/oseg/ont/otrl#ODRL</title>
<path fill="none" stroke="black" d="M888.85,-825.53C893.33,-843.4 900.58,-872.33 905.87,-893.42"/>
<polygon fill="black" stroke="black" points="902.53,-894.49 908.36,-903.34 909.32,-892.79 902.53,-894.49"/>
<text text-anchor="middle" x="892.86" y="-863.27" font-family="Times,serif" font-size="14.00">a</text>
</g>
<!-- http://w3id.org/oseg/ont/otrl#ODRL2 -->
<g id="node18" class="node">
<title>http://w3id.org/oseg/ont/otrl#ODRL2</title>
<ellipse fill="none" stroke="#e377c2" cx="955.14" cy="-1209.91" rx="69.09" ry="16.03"/>
<text text-anchor="middle" x="955.14" y="-1206.21" font-family="Times,serif" font-size="14.00">otrl:ODRL2</text>
</g>
<!-- http://w3id.org/oseg/ont/otrl#ODRL2&#45;&gt;http://w3id.org/oseg/ont/otrl#ODRL -->
<g id="edge19" class="edge">
<title>http://w3id.org/oseg/ont/otrl#ODRL2&#45;&gt;http://w3id.org/oseg/ont/otrl#ODRL</title>
<path fill="none" stroke="black" d="M952.72,-1193.47C945.65,-1145.39 924.96,-1004.67 916.32,-945.93"/>
<polygon fill="black" stroke="black" points="919.77,-945.35 914.85,-935.96 912.84,-946.37 919.77,-945.35"/>
<text text-anchor="middle" x="930.02" y="-1073.5" font-family="Times,serif" font-size="14.00">a</text>
</g>
<!-- http://w3id.org/oseg/ont/otrl#goal -->
<g id="node19" class="node">
<title>http://w3id.org/oseg/ont/otrl#goal</title>
<ellipse fill="none" stroke="#e377c2" cx="1160.7" cy="-737.86" rx="54.39" ry="16.03"/>
<text text-anchor="middle" x="1160.7" y="-734.16" font-family="Times,serif" font-size="14.00">otrl:goal</text>
</g>
<!-- http://w3id.org/oseg/ont/otrl#goal&#45;&gt;http://w3id.org/oseg/ont/otrl#ODRL -->
<g id="edge25" class="edge">
<title>http://w3id.org/oseg/ont/otrl#goal&#45;&gt;http://w3id.org/oseg/ont/otrl#ODRL</title>
<path fill="none" stroke="black" d="M1139.96,-753.05C1095.9,-785.33 992.84,-860.83 941.95,-898.11"/>
<polygon fill="black" stroke="black" points="939.67,-895.44 933.67,-904.18 943.8,-901.09 939.67,-895.44"/>
<text text-anchor="middle" x="962.96" y="-829.38" font-family="Times,serif" font-size="14.00">dcam:domainIncludes</text>
</g>
<!-- http://w3id.org/oseg/ont/otrl#goal&#45;&gt;http://w3id.org/oseg/ont/otrl#OTRL -->
<g id="edge7" class="edge">
<title>http://w3id.org/oseg/ont/otrl#goal&#45;&gt;http://w3id.org/oseg/ont/otrl#OTRL</title>
<path fill="none" stroke="black" d="M1183.35,-722.92C1226.52,-694.46 1320.67,-632.37 1369.94,-599.88"/>
<polygon fill="black" stroke="black" points="1371.88,-602.79 1378.31,-594.36 1368.03,-596.94 1371.88,-602.79"/>
<text text-anchor="middle" x="1198.64" y="-665.2" font-family="Times,serif" font-size="14.00">dcam:domainIncludes</text>
</g>
<!-- http://w3id.org/oseg/ont/otrl#goal&#45;&gt;http://www.w3.org/1999/02/22&#45;rdf&#45;syntax&#45;ns#langString -->
<g id="edge4" class="edge">
<title>http://w3id.org/oseg/ont/otrl#goal&#45;&gt;http://www.w3.org/1999/02/22&#45;rdf&#45;syntax&#45;ns#langString</title>
<path fill="none" stroke="black" d="M1169.98,-753.98C1184.75,-779.66 1213.73,-830.03 1231.29,-860.56"/>
<polygon fill="black" stroke="black" points="1228.33,-862.43 1236.35,-869.35 1234.4,-858.94 1228.33,-862.43"/>
<text text-anchor="middle" x="1179.64" y="-811.07" font-family="Times,serif" font-size="14.00">range</text>
</g>
<!-- http://w3id.org/oseg/ont/otrl#OTRL3 -->
<g id="node20" class="node">
<title>http://w3id.org/oseg/ont/otrl#OTRL3</title>
<ellipse fill="none" stroke="#e377c2" cx="1686.16" cy="-671.56" rx="67.35" ry="16.03"/>
<text text-anchor="middle" x="1686.16" y="-667.86" font-family="Times,serif" font-size="14.00">otrl:OTRL3</text>
</g>
<!-- http://w3id.org/oseg/ont/otrl#OTRL3&#45;&gt;http://w3id.org/oseg/ont/otrl#OTRL -->
<g id="edge36" class="edge">
<title>http://w3id.org/oseg/ont/otrl#OTRL3&#45;&gt;http://w3id.org/oseg/ont/otrl#OTRL</title>
<path fill="none" stroke="black" d="M1645.97,-658.51C1594.48,-641.8 1505.32,-612.85 1450.07,-594.91"/>
<polygon fill="black" stroke="black" points="1451.09,-591.56 1440.49,-591.8 1448.92,-598.22 1451.09,-591.56"/>
<text text-anchor="middle" x="1543.52" y="-630.51" font-family="Times,serif" font-size="14.00">a</text>
</g>
<!-- http://w3id.org/oseg/ont/otrl#OTRL1 -->
<g id="node21" class="node">
<title>http://w3id.org/oseg/ont/otrl#OTRL1</title>
<ellipse fill="none" stroke="#e377c2" cx="1683.48" cy="-525" rx="67.35" ry="16.03"/>
<text text-anchor="middle" x="1683.48" y="-521.3" font-family="Times,serif" font-size="14.00">otrl:OTRL1</text>
</g>
<!-- http://w3id.org/oseg/ont/otrl#OTRL1&#45;&gt;http://w3id.org/oseg/ont/otrl#OTRL -->
<g id="edge26" class="edge">
<title>http://w3id.org/oseg/ont/otrl#OTRL1&#45;&gt;http://w3id.org/oseg/ont/otrl#OTRL</title>
<path fill="none" stroke="black" d="M1630.76,-535.11C1582.58,-544.36 1511.38,-558.02 1461.12,-567.66"/>
<polygon fill="black" stroke="black" points="1460.21,-564.27 1451.05,-569.59 1461.53,-571.15 1460.21,-564.27"/>
<text text-anchor="middle" x="1541.44" y="-555.19" font-family="Times,serif" font-size="14.00">a</text>
</g>
<!-- http://w3id.org/oseg/ont/otrl#OTRL2 -->
<g id="node22" class="node">
<title>http://w3id.org/oseg/ont/otrl#OTRL2</title>
<ellipse fill="none" stroke="#e377c2" cx="1574.11" cy="-353.7" rx="67.35" ry="16.03"/>
<text text-anchor="middle" x="1574.11" y="-350" font-family="Times,serif" font-size="14.00">otrl:OTRL2</text>
</g>
<!-- http://w3id.org/oseg/ont/otrl#OTRL2&#45;&gt;http://w3id.org/oseg/ont/otrl#OTRL -->
<g id="edge31" class="edge">
<title>http://w3id.org/oseg/ont/otrl#OTRL2&#45;&gt;http://w3id.org/oseg/ont/otrl#OTRL</title>
<path fill="none" stroke="black" d="M1561.69,-369.91C1531.69,-409.07 1455.17,-508.95 1419.83,-555.09"/>
<polygon fill="black" stroke="black" points="1417.03,-552.99 1413.73,-563.05 1422.59,-557.24 1417.03,-552.99"/>
<text text-anchor="middle" x="1486.26" y="-466.3" font-family="Times,serif" font-size="14.00">a</text>
</g>
<!-- http://w3id.org/oseg/ont/otrl#OTRL5 -->
<g id="node23" class="node">
<title>http://w3id.org/oseg/ont/otrl#OTRL5</title>
<ellipse fill="none" stroke="#e377c2" cx="1481.54" cy="-668.66" rx="67.35" ry="16.03"/>
<text text-anchor="middle" x="1481.54" y="-664.96" font-family="Times,serif" font-size="14.00">otrl:OTRL5</text>
</g>
<!-- http://w3id.org/oseg/ont/otrl#OTRL5&#45;&gt;http://w3id.org/oseg/ont/otrl#OTRL -->
<g id="edge39" class="edge">
<title>http://w3id.org/oseg/ont/otrl#OTRL5&#45;&gt;http://w3id.org/oseg/ont/otrl#OTRL</title>
<path fill="none" stroke="black" d="M1467.21,-652.65C1454.8,-638.77 1436.66,-618.5 1422.57,-602.75"/>
<polygon fill="black" stroke="black" points="1424.9,-600.11 1415.62,-594.99 1419.68,-604.77 1424.9,-600.11"/>
<text text-anchor="middle" x="1440.39" y="-631.5" font-family="Times,serif" font-size="14.00">a</text>
</g>
<!-- http://w3id.org/oseg/ont/otrl#exitCriteria -->
<g id="node24" class="node">
<title>http://w3id.org/oseg/ont/otrl#exitCriteria</title>
<ellipse fill="none" stroke="#e377c2" cx="1224.98" cy="-840.07" rx="91.43" ry="16.03"/>
<text text-anchor="middle" x="1224.98" y="-836.37" font-family="Times,serif" font-size="14.00">otrl:exitCriteria</text>
</g>
<!-- http://w3id.org/oseg/ont/otrl#exitCriteria&#45;&gt;http://w3id.org/oseg/ont/otrl#ODRL -->
<g id="edge32" class="edge">
<title>http://w3id.org/oseg/ont/otrl#exitCriteria&#45;&gt;http://w3id.org/oseg/ont/otrl#ODRL</title>
<path fill="none" stroke="black" d="M1172.67,-853.4C1115.67,-867.93 1024.9,-891.06 967.03,-905.8"/>
<polygon fill="black" stroke="black" points="966.16,-902.41 957.33,-908.28 967.88,-909.2 966.16,-902.41"/>
<text text-anchor="middle" x="991.85" y="-883.4" font-family="Times,serif" font-size="14.00">dcam:domainIncludes</text>
</g>
<!-- http://w3id.org/oseg/ont/otrl#exitCriteria&#45;&gt;http://w3id.org/oseg/ont/otrl#OTRL -->
<g id="edge12" class="edge">
<title>http://w3id.org/oseg/ont/otrl#exitCriteria&#45;&gt;http://w3id.org/oseg/ont/otrl#OTRL</title>
<path fill="none" stroke="black" d="M1236.01,-823.75C1265.97,-779.45 1348.93,-656.75 1384.68,-603.88"/>
<polygon fill="black" stroke="black" points="1387.69,-605.68 1390.39,-595.43 1381.89,-601.76 1387.69,-605.68"/>
<text text-anchor="middle" x="1232.34" y="-702.61" font-family="Times,serif" font-size="14.00">dcam:domainIncludes</text>
</g>
<!-- http://w3id.org/oseg/ont/otrl#exitCriteria&#45;&gt;http://www.w3.org/1999/02/22&#45;rdf&#45;syntax&#45;ns#langString -->
<g id="edge11" class="edge">
<title>http://w3id.org/oseg/ont/otrl#exitCriteria&#45;&gt;http://www.w3.org/1999/02/22&#45;rdf&#45;syntax&#45;ns#langString</title>
<path fill="none" stroke="black" d="M1232.4,-856.36C1233.02,-857.71 1233.65,-859.1 1234.29,-860.49"/>
<polygon fill="black" stroke="black" points="1231.14,-862.02 1238.47,-869.67 1237.51,-859.12 1231.14,-862.02"/>
<text text-anchor="middle" x="1212.34" y="-862.23" font-family="Times,serif" font-size="14.00">range</text>
</g>
<!-- http://w3id.org/oseg/ont/otrl#Odrl5 -->
<g id="node26" class="node">
<title>http://w3id.org/oseg/ont/otrl#Odrl5</title>
<ellipse fill="none" stroke="black" cx="399.24" cy="-1707.55" rx="191.75" ry="16.03"/>
<text text-anchor="middle" x="399.24" y="-1703.85" font-family="Times,serif" font-size="14.00">http://w3id.org/oseg/ont/otrl#Odrl5</text>
</g>
<!-- http://w3id.org/oseg/ont/otrl#Odrl5&#45;&gt;http://w3id.org/oseg/ont/otrl#Odrl4 -->
<g id="edge9" class="edge">
<title>http://w3id.org/oseg/ont/otrl#Odrl5&#45;&gt;http://w3id.org/oseg/ont/otrl#Odrl4</title>
<path fill="none" stroke="black" d="M410.76,-1691.02C445.56,-1641.07 549.73,-1491.56 590.95,-1432.4"/>
<polygon fill="black" stroke="black" points="593.94,-1434.23 596.78,-1424.03 588.19,-1430.23 593.94,-1434.23"/>
<text text-anchor="middle" x="420.85" y="-1565.51" font-family="Times,serif" font-size="14.00">schema:supersededBy</text>
</g>
<!-- http://w3id.org/oseg/ont/otrl#Odrl3Star -->
<g id="node27" class="node">
<title>http://w3id.org/oseg/ont/otrl#Odrl3Star</title>
<ellipse fill="none" stroke="black" cx="213.96" cy="-1162.18" rx="213.59" ry="16.03"/>
<text text-anchor="middle" x="213.96" y="-1158.48" font-family="Times,serif" font-size="14.00">http://w3id.org/oseg/ont/otrl#Odrl3Star</text>
</g>
<!-- http://w3id.org/oseg/ont/otrl#Odrl3Star&#45;&gt;http://w3id.org/oseg/ont/otrl#ODRL3Star -->
<g id="edge13" class="edge">
<title>http://w3id.org/oseg/ont/otrl#Odrl3Star&#45;&gt;http://w3id.org/oseg/ont/otrl#ODRL3Star</title>
<path fill="none" stroke="black" d="M264.65,-1146.38C343.45,-1121.81 494.7,-1074.64 575.94,-1049.31"/>
<polygon fill="black" stroke="black" points="576.99,-1052.65 585.49,-1046.33 574.9,-1045.97 576.99,-1052.65"/>
<text text-anchor="middle" x="340.3" y="-1101.64" font-family="Times,serif" font-size="14.00">schema:supersededBy</text>
</g>
<!-- http://w3id.org/oseg/ont/otrl#Odrl1 -->
<g id="node28" class="node">
<title>http://w3id.org/oseg/ont/otrl#Odrl1</title>
<ellipse fill="none" stroke="black" cx="828.97" cy="-754.54" rx="191.75" ry="16.03"/>
<text text-anchor="middle" x="828.97" y="-750.84" font-family="Times,serif" font-size="14.00">http://w3id.org/oseg/ont/otrl#Odrl1</text>
</g>
<!-- http://w3id.org/oseg/ont/otrl#Odrl1&#45;&gt;http://w3id.org/oseg/ont/otrl#ODRL1 -->
<g id="edge17" class="edge">
<title>http://w3id.org/oseg/ont/otrl#Odrl1&#45;&gt;http://w3id.org/oseg/ont/otrl#ODRL1</title>
<path fill="none" stroke="black" d="M845.71,-770.95C850.54,-775.69 855.9,-780.94 861.07,-786.01"/>
<polygon fill="black" stroke="black" points="858.82,-788.71 868.42,-793.21 863.72,-783.71 858.82,-788.71"/>
<text text-anchor="middle" x="773.39" y="-782.28" font-family="Times,serif" font-size="14.00">schema:supersededBy</text>
</g>
<!-- http://w3id.org/oseg/ont/otrl#Otrl4 -->
<g id="node29" class="node">
<title>http://w3id.org/oseg/ont/otrl#Otrl4</title>
<ellipse fill="none" stroke="black" cx="1079.27" cy="-362.15" rx="189.51" ry="16.03"/>
<text text-anchor="middle" x="1079.27" y="-358.45" font-family="Times,serif" font-size="14.00">http://w3id.org/oseg/ont/otrl#Otrl4</text>
</g>
<!-- http://w3id.org/oseg/ont/otrl#Otrl4&#45;&gt;http://w3id.org/oseg/ont/otrl#OTRL4 -->
<g id="edge21" class="edge">
<title>http://w3id.org/oseg/ont/otrl#Otrl4&#45;&gt;http://w3id.org/oseg/ont/otrl#OTRL4</title>
<path fill="none" stroke="black" d="M1110.47,-378.24C1119.36,-382.83 1129.13,-387.87 1138.36,-392.63"/>
<polygon fill="black" stroke="black" points="1136.87,-395.8 1147.36,-397.27 1140.08,-389.58 1136.87,-395.8"/>
<text text-anchor="middle" x="1044.42" y="-389.24" font-family="Times,serif" font-size="14.00">schema:supersededBy</text>
</g>
<!-- http://w3id.org/oseg/ont/otrl#Odrl3 -->
<g id="node30" class="node">
<title>http://w3id.org/oseg/ont/otrl#Odrl3</title>
<ellipse fill="none" stroke="black" cx="270.15" cy="-756.66" rx="191.75" ry="16.03"/>
<text text-anchor="middle" x="270.15" y="-752.96" font-family="Times,serif" font-size="14.00">http://w3id.org/oseg/ont/otrl#Odrl3</text>
</g>
<!-- http://w3id.org/oseg/ont/otrl#Odrl3&#45;&gt;http://w3id.org/oseg/ont/otrl#ODRL3 -->
<g id="edge22" class="edge">
<title>http://w3id.org/oseg/ont/otrl#Odrl3&#45;&gt;http://w3id.org/oseg/ont/otrl#ODRL3</title>
<path fill="none" stroke="black" d="M325.4,-772.23C396.48,-792.26 519.16,-826.84 589.95,-846.79"/>
<polygon fill="black" stroke="black" points="589.43,-850.28 600.01,-849.63 591.33,-843.54 589.43,-850.28"/>
<text text-anchor="middle" x="377.68" y="-813.31" font-family="Times,serif" font-size="14.00">schema:supersededBy</text>
</g>
<!-- http://w3id.org/oseg/ont/otrl#Otrl3 -->
<g id="node31" class="node">
<title>http://w3id.org/oseg/ont/otrl#Otrl3</title>
<ellipse fill="none" stroke="black" cx="2042.23" cy="-801.69" rx="189.51" ry="16.03"/>
<text text-anchor="middle" x="2042.23" y="-797.99" font-family="Times,serif" font-size="14.00">http://w3id.org/oseg/ont/otrl#Otrl3</text>
</g>
<!-- http://w3id.org/oseg/ont/otrl#Otrl3&#45;&gt;http://w3id.org/oseg/ont/otrl#OTRL3 -->
<g id="edge24" class="edge">
<title>http://w3id.org/oseg/ont/otrl#Otrl3&#45;&gt;http://w3id.org/oseg/ont/otrl#OTRL3</title>
<path fill="none" stroke="black" d="M1998.57,-785.73C1931.22,-761.12 1802.53,-714.09 1733.2,-688.75"/>
<polygon fill="black" stroke="black" points="1734.01,-685.32 1723.41,-685.18 1731.6,-691.9 1734.01,-685.32"/>
<text text-anchor="middle" x="1785.88" y="-741.04" font-family="Times,serif" font-size="14.00">schema:supersededBy</text>
</g>
<!-- http://w3id.org/oseg/ont/otrl#Otrl -->
<g id="node32" class="node">
<title>http://w3id.org/oseg/ont/otrl#Otrl</title>
<ellipse fill="none" stroke="black" cx="1754.87" cy="-398.15" rx="183.28" ry="16.03"/>
<text text-anchor="middle" x="1754.87" y="-394.45" font-family="Times,serif" font-size="14.00">http://w3id.org/oseg/ont/otrl#Otrl</text>
</g>
<!-- http://w3id.org/oseg/ont/otrl#Otrl&#45;&gt;http://w3id.org/oseg/ont/otrl#OTRL -->
<g id="edge28" class="edge">
<title>http://w3id.org/oseg/ont/otrl#Otrl&#45;&gt;http://w3id.org/oseg/ont/otrl#OTRL</title>
<path fill="none" stroke="black" d="M1723.5,-414.21C1658.34,-447.57 1508.59,-524.25 1438.66,-560.05"/>
<polygon fill="black" stroke="black" points="1437.05,-556.94 1429.74,-564.62 1440.24,-563.17 1437.05,-556.94"/>
<text text-anchor="middle" x="1501.08" y="-490.93" font-family="Times,serif" font-size="14.00">schema:supersededBy</text>
</g>
<!-- http://w3id.org/oseg/ont/otrl#Odrl -->
<g id="node33" class="node">
<title>http://w3id.org/oseg/ont/otrl#Odrl</title>
<ellipse fill="none" stroke="black" cx="931.31" cy="-981.54" rx="185.02" ry="16.03"/>
<text text-anchor="middle" x="931.31" y="-977.84" font-family="Times,serif" font-size="14.00">http://w3id.org/oseg/ont/otrl#Odrl</text>
</g>
<!-- http://w3id.org/oseg/ont/otrl#Odrl&#45;&gt;http://w3id.org/oseg/ont/otrl#ODRL -->
<g id="edge29" class="edge">
<title>http://w3id.org/oseg/ont/otrl#Odrl&#45;&gt;http://w3id.org/oseg/ont/otrl#ODRL</title>
<path fill="none" stroke="black" d="M926.26,-964.97C924.48,-959.15 922.44,-952.45 920.48,-946.03"/>
<polygon fill="black" stroke="black" points="923.79,-944.87 917.53,-936.32 917.09,-946.91 923.79,-944.87"/>
<text text-anchor="middle" x="843.37" y="-944.3" font-family="Times,serif" font-size="14.00">schema:supersededBy</text>
</g>
<!-- http://w3id.org/oseg/ont/otrl#Otrl1 -->
<g id="node34" class="node">
<title>http://w3id.org/oseg/ont/otrl#Otrl1</title>
<ellipse fill="none" stroke="black" cx="2056.85" cy="-444.77" rx="189.51" ry="16.03"/>
<text text-anchor="middle" x="2056.85" y="-441.07" font-family="Times,serif" font-size="14.00">http://w3id.org/oseg/ont/otrl#Otrl1</text>
</g>
<!-- http://w3id.org/oseg/ont/otrl#Otrl1&#45;&gt;http://w3id.org/oseg/ont/otrl#OTRL1 -->
<g id="edge30" class="edge">
<title>http://w3id.org/oseg/ont/otrl#Otrl1&#45;&gt;http://w3id.org/oseg/ont/otrl#OTRL1</title>
<path fill="none" stroke="black" d="M1986.18,-459.95C1916.1,-475.01 1809.88,-497.84 1743.7,-512.06"/>
<polygon fill="black" stroke="black" points="1742.87,-508.66 1733.83,-514.18 1744.34,-515.5 1742.87,-508.66"/>
<text text-anchor="middle" x="1784.94" y="-489.81" font-family="Times,serif" font-size="14.00">schema:supersededBy</text>
</g>
<!-- http://w3id.org/oseg/ont/otrl#Otrl5 -->
<g id="node35" class="node">
<title>http://w3id.org/oseg/ont/otrl#Otrl5</title>
<ellipse fill="none" stroke="black" cx="1428.07" cy="-719.64" rx="189.51" ry="16.03"/>
<text text-anchor="middle" x="1428.07" y="-715.94" font-family="Times,serif" font-size="14.00">http://w3id.org/oseg/ont/otrl#Otrl5</text>
</g>
<!-- http://w3id.org/oseg/ont/otrl#Otrl5&#45;&gt;http://w3id.org/oseg/ont/otrl#OTRL5 -->
<g id="edge33" class="edge">
<title>http://w3id.org/oseg/ont/otrl#Otrl5&#45;&gt;http://w3id.org/oseg/ont/otrl#OTRL5</title>
<path fill="none" stroke="black" d="M1445.28,-703.23C1449.08,-699.61 1453.17,-695.71 1457.19,-691.88"/>
<polygon fill="black" stroke="black" points="1459.9,-694.13 1464.73,-684.69 1455.07,-689.06 1459.9,-694.13"/>
<text text-anchor="middle" x="1371.24" y="-686.36" font-family="Times,serif" font-size="14.00">schema:supersededBy</text>
</g>
<!-- http://w3id.org/oseg/ont/otrl#Odrl2 -->
<g id="node36" class="node">
<title>http://w3id.org/oseg/ont/otrl#Odrl2</title>
<ellipse fill="none" stroke="black" cx="1000.06" cy="-1587.24" rx="191.75" ry="16.03"/>
<text text-anchor="middle" x="1000.06" y="-1583.54" font-family="Times,serif" font-size="14.00">http://w3id.org/oseg/ont/otrl#Odrl2</text>
</g>
<!-- http://w3id.org/oseg/ont/otrl#Odrl2&#45;&gt;http://w3id.org/oseg/ont/otrl#ODRL2 -->
<g id="edge34" class="edge">
<title>http://w3id.org/oseg/ont/otrl#Odrl2&#45;&gt;http://w3id.org/oseg/ont/otrl#ODRL2</title>
<path fill="none" stroke="black" d="M998.07,-1570.54C991,-1511.12 967.01,-1309.62 958.32,-1236.61"/>
<polygon fill="black" stroke="black" points="961.76,-1235.93 957.11,-1226.41 954.81,-1236.76 961.76,-1235.93"/>
<text text-anchor="middle" x="898.19" y="-1407.37" font-family="Times,serif" font-size="14.00">schema:supersededBy</text>
</g>
<!-- http://w3id.org/oseg/ont/otrl#Otrl6 -->
<g id="node37" class="node">
<title>http://w3id.org/oseg/ont/otrl#Otrl6</title>
<ellipse fill="none" stroke="black" cx="1307.67" cy="-306.84" rx="189.51" ry="16.03"/>
<text text-anchor="middle" x="1307.67" y="-303.14" font-family="Times,serif" font-size="14.00">http://w3id.org/oseg/ont/otrl#Otrl6</text>
</g>
<!-- http://w3id.org/oseg/ont/otrl#Otrl6&#45;&gt;http://w3id.org/oseg/ont/otrl#OTRL6 -->
<g id="edge38" class="edge">
<title>http://w3id.org/oseg/ont/otrl#Otrl6&#45;&gt;http://w3id.org/oseg/ont/otrl#OTRL6</title>
<path fill="none" stroke="black" d="M1329.41,-323C1335.14,-327.26 1341.42,-331.92 1347.46,-336.41"/>
<polygon fill="black" stroke="black" points="1345.38,-339.22 1355.49,-342.38 1349.55,-333.6 1345.38,-339.22"/>
<text text-anchor="middle" x="1258.44" y="-333.51" font-family="Times,serif" font-size="14.00">schema:supersededBy</text>
</g>
<!-- http://w3id.org/oseg/ont/otrl#Otrl2 -->
<g id="node38" class="node">
<title>http://w3id.org/oseg/ont/otrl#Otrl2</title>
<ellipse fill="none" stroke="black" cx="1755.33" cy="-16.61" rx="189.51" ry="16.03"/>
<text text-anchor="middle" x="1755.33" y="-12.91" font-family="Times,serif" font-size="14.00">http://w3id.org/oseg/ont/otrl#Otrl2</text>
</g>
<!-- http://w3id.org/oseg/ont/otrl#Otrl2&#45;&gt;http://w3id.org/oseg/ont/otrl#OTRL2 -->
<g id="edge40" class="edge">
<title>http://w3id.org/oseg/ont/otrl#Otrl2&#45;&gt;http://w3id.org/oseg/ont/otrl#OTRL2</title>
<path fill="none" stroke="black" d="M1746.59,-32.87C1717.41,-87.15 1623.21,-262.38 1587.76,-328.31"/>
<polygon fill="black" stroke="black" points="1584.63,-326.75 1582.97,-337.21 1590.79,-330.06 1584.63,-326.75"/>
<text text-anchor="middle" x="1587.18" y="-184.39" font-family="Times,serif" font-size="14.00">schema:supersededBy</text>
</g>
</g>
</svg>
