<?xml version="1.0" encoding="UTF-8" standalone="no"?>
<!DOCTYPE svg PUBLIC "-//W3C//DTD SVG 1.1//EN"
 "http://www.w3.org/Graphics/SVG/1.1/DTD/svg11.dtd">
<!-- Generated by graphviz version 2.43.0 (0)
 -->
<!-- Title: G Pages: 1 -->
<svg width="1453pt" height="1181pt"
 viewBox="0.00 0.00 1453.00 1181.00" xmlns="http://www.w3.org/2000/svg" xmlns:xlink="http://www.w3.org/1999/xlink">
<g id="graph0" class="graph" transform="scale(1 1) rotate(0) translate(4 1177)">
<title>G</title>
<polygon fill="white" stroke="transparent" points="-4,4 -4,-1177 1449,-1177 1449,4 -4,4"/>
<!-- https://w3id.org/oseg/ont/okhmeta#Tag -->
<g id="node1" class="node">
<title>https://w3id.org/oseg/ont/okhmeta#Tag</title>
<ellipse fill="none" stroke="#e377c2" cx="493.15" cy="-339.65" rx="76.24" ry="16.03"/>
<text text-anchor="middle" x="493.15" y="-335.95" font-family="Times,serif" font-size="14.00">okhmeta:Tag</text>
</g>
<!-- http://www.w3.org/2004/02/skos/core#Collection -->
<g id="node2" class="node">
<title>http://www.w3.org/2004/02/skos/core#Collection</title>
<ellipse fill="none" stroke="#e377c2" cx="827.19" cy="-182.59" rx="87.86" ry="16.03"/>
<text text-anchor="middle" x="827.19" y="-178.89" font-family="Times,serif" font-size="14.00">skos:Collection</text>
</g>
<!-- https://w3id.org/oseg/ont/okhmeta#Tag&#45;&gt;http://www.w3.org/2004/02/skos/core#Collection -->
<g id="edge29" class="edge">
<title>https://w3id.org/oseg/ont/okhmeta#Tag&#45;&gt;http://www.w3.org/2004/02/skos/core#Collection</title>
<path fill="none" stroke="black" d="M524.88,-324.74C585.54,-296.22 717.94,-233.96 785.59,-202.15"/>
<polygon fill="black" stroke="black" points="787.13,-205.29 794.69,-197.87 784.15,-198.96 787.13,-205.29"/>
</g>
<!-- https://w3id.org/oseg/ont/okhmeta#MetaTag -->
<g id="node3" class="node">
<title>https://w3id.org/oseg/ont/okhmeta#MetaTag</title>
<ellipse fill="none" stroke="#e377c2" cx="455.11" cy="-395.27" rx="102.56" ry="16.03"/>
<text text-anchor="middle" x="455.11" y="-391.57" font-family="Times,serif" font-size="14.00">okhmeta:MetaTag</text>
</g>
<!-- https://w3id.org/oseg/ont/okhmeta#Tag&#45;&gt;https://w3id.org/oseg/ont/okhmeta#MetaTag -->
<g id="edge31" class="edge">
<title>https://w3id.org/oseg/ont/okhmeta#Tag&#45;&gt;https://w3id.org/oseg/ont/okhmeta#MetaTag</title>
<path fill="none" stroke="black" d="M474.51,-355.45C470.97,-360.04 467.42,-365.16 464.3,-370.16"/>
<polygon fill="black" stroke="black" points="461.22,-368.5 459.25,-378.91 467.28,-372.01 461.22,-368.5"/>
<text text-anchor="middle" x="392.41" y="-366.61" font-family="Times,serif" font-size="14.00">okhmeta:hasMetaTag</text>
</g>
<!-- http://www.w3.org/2004/02/skos/core#Concept -->
<g id="node5" class="node">
<title>http://www.w3.org/2004/02/skos/core#Concept</title>
<ellipse fill="none" stroke="#1f77b4" cx="650.76" cy="-483.74" rx="78.48" ry="16.03"/>
<text text-anchor="middle" x="650.76" y="-480.04" font-family="Times,serif" font-size="14.00">skos:Concept</text>
</g>
<!-- https://w3id.org/oseg/ont/okhmeta#Tag&#45;&gt;http://www.w3.org/2004/02/skos/core#Concept -->
<g id="edge37" class="edge">
<title>https://w3id.org/oseg/ont/okhmeta#Tag&#45;&gt;http://www.w3.org/2004/02/skos/core#Concept</title>
<path fill="none" stroke="black" d="M510.62,-355.62C538.55,-381.16 593.37,-431.28 625.55,-460.69"/>
<polygon fill="black" stroke="black" points="623.47,-463.53 633.21,-467.7 628.19,-458.37 623.47,-463.53"/>
<text text-anchor="middle" x="563.58" y="-411.96" font-family="Times,serif" font-size="14.00">a</text>
</g>
<!-- https://w3id.org/oseg/ont/okhmeta#MetaTag&#45;&gt;https://w3id.org/oseg/ont/okhmeta#Tag -->
<g id="edge40" class="edge">
<title>https://w3id.org/oseg/ont/okhmeta#MetaTag&#45;&gt;https://w3id.org/oseg/ont/okhmeta#Tag</title>
<path fill="none" stroke="black" d="M473.99,-379.17C477.36,-374.77 480.73,-369.91 483.73,-365.14"/>
<polygon fill="black" stroke="black" points="486.91,-366.62 488.91,-356.22 480.86,-363.1 486.91,-366.62"/>
<text text-anchor="middle" x="474.36" y="-360.95" font-family="Times,serif" font-size="14.00">a</text>
</g>
<!-- https://w3id.org/oseg/ont/okhmeta#MetaTag&#45;&gt;https://w3id.org/oseg/ont/okhmeta#MetaTag -->
<g id="edge9" class="edge">
<title>https://w3id.org/oseg/ont/okhmeta#MetaTag&#45;&gt;https://w3id.org/oseg/ont/okhmeta#MetaTag</title>
<path fill="none" stroke="black" d="M550.11,-401.48C565.27,-400.57 575.65,-398.5 575.65,-395.27 575.65,-392.82 569.69,-391.03 560.2,-389.92"/>
<polygon fill="black" stroke="black" points="560.37,-386.42 550.11,-389.05 559.77,-393.39 560.37,-386.42"/>
<text text-anchor="middle" x="652.65" y="-391.57" font-family="Times,serif" font-size="14.00">okhmeta:hasMetaTag</text>
</g>
<!-- http://spdx.org/rdf/terms#File -->
<g id="node4" class="node">
<title>http://spdx.org/rdf/terms#File</title>
<ellipse fill="none" stroke="#1f77b4" cx="931.52" cy="-807.66" rx="62.45" ry="16.03"/>
<text text-anchor="middle" x="931.52" y="-803.96" font-family="Times,serif" font-size="14.00">spdxt:File</text>
</g>
<!-- https://w3id.org/oseg/ont/okhmeta#PhysicalTag -->
<g id="node6" class="node">
<title>https://w3id.org/oseg/ont/okhmeta#PhysicalTag</title>
<ellipse fill="none" stroke="#e377c2" cx="171.54" cy="-526.15" rx="118.17" ry="16.03"/>
<text text-anchor="middle" x="171.54" y="-522.45" font-family="Times,serif" font-size="14.00">okhmeta:PhysicalTag</text>
</g>
<!-- https://w3id.org/oseg/ont/okhmeta#PhysicalTag&#45;&gt;https://w3id.org/oseg/ont/okhmeta#Tag -->
<g id="edge28" class="edge">
<title>https://w3id.org/oseg/ont/okhmeta#PhysicalTag&#45;&gt;https://w3id.org/oseg/ont/okhmeta#Tag</title>
<path fill="none" stroke="black" d="M198.96,-510.25C257.16,-476.5 393.01,-397.72 457.7,-360.21"/>
<polygon fill="black" stroke="black" points="459.81,-363.03 466.71,-354.99 456.3,-356.98 459.81,-363.03"/>
<text text-anchor="middle" x="323.83" y="-439.03" font-family="Times,serif" font-size="14.00">a</text>
</g>
<!-- https://w3id.org/oseg/ont/okhmeta#PhysicalTag&#45;&gt;https://w3id.org/oseg/ont/okhmeta#MetaTag -->
<g id="edge42" class="edge">
<title>https://w3id.org/oseg/ont/okhmeta#PhysicalTag&#45;&gt;https://w3id.org/oseg/ont/okhmeta#MetaTag</title>
<path fill="none" stroke="black" d="M205.46,-510.49C257.16,-486.63 355.61,-441.19 412.21,-415.07"/>
<polygon fill="black" stroke="black" points="413.98,-418.11 421.59,-410.74 411.05,-411.75 413.98,-418.11"/>
<text text-anchor="middle" x="231.84" y="-466.58" font-family="Times,serif" font-size="14.00">okhmeta:hasMetaTag</text>
</g>
<!-- https://w3id.org/oseg/ont/okhmeta#AcademicTag -->
<g id="node7" class="node">
<title>https://w3id.org/oseg/ont/okhmeta#AcademicTag</title>
<ellipse fill="none" stroke="#e377c2" cx="124.75" cy="-411.72" rx="124.4" ry="16.03"/>
<text text-anchor="middle" x="124.75" y="-408.02" font-family="Times,serif" font-size="14.00">okhmeta:AcademicTag</text>
</g>
<!-- https://w3id.org/oseg/ont/okhmeta#AcademicTag&#45;&gt;https://w3id.org/oseg/ont/okhmeta#Tag -->
<g id="edge1" class="edge">
<title>https://w3id.org/oseg/ont/okhmeta#AcademicTag&#45;&gt;https://w3id.org/oseg/ont/okhmeta#Tag</title>
<path fill="none" stroke="black" d="M194.04,-398.16C260.85,-385.09 361.25,-365.46 426.99,-352.6"/>
<polygon fill="black" stroke="black" points="427.69,-356.03 436.83,-350.67 426.34,-349.16 427.69,-356.03"/>
<text text-anchor="middle" x="306.01" y="-379.18" font-family="Times,serif" font-size="14.00">a</text>
</g>
<!-- https://w3id.org/oseg/ont/okhmeta#AcademicTag&#45;&gt;https://w3id.org/oseg/ont/okhmeta#MetaTag -->
<g id="edge20" class="edge">
<title>https://w3id.org/oseg/ont/okhmeta#AcademicTag&#45;&gt;https://w3id.org/oseg/ont/okhmeta#MetaTag</title>
<path fill="none" stroke="black" d="M241.22,-405.92C275.57,-404.21 313,-402.34 346.81,-400.66"/>
<polygon fill="black" stroke="black" points="347.36,-404.14 357.17,-400.14 347.01,-397.15 347.36,-404.14"/>
<text text-anchor="middle" x="255.51" y="-392.09" font-family="Times,serif" font-size="14.00">okhmeta:hasMetaTag</text>
</g>
<!-- https://w3id.org/oseg/ont/okhmeta#DocumentationTag -->
<g id="node8" class="node">
<title>https://w3id.org/oseg/ont/okhmeta#DocumentationTag</title>
<ellipse fill="none" stroke="#e377c2" cx="238.36" cy="-100.23" rx="125.32" ry="16.03"/>
<text text-anchor="middle" x="238.36" y="-96.53" font-family="Times,serif" font-size="14.00">okhmeta:Documenta...</text>
</g>
<!-- https://w3id.org/oseg/ont/okhmeta#DocumentationTag&#45;&gt;https://w3id.org/oseg/ont/okhmeta#Tag -->
<g id="edge30" class="edge">
<title>https://w3id.org/oseg/ont/okhmeta#DocumentationTag&#45;&gt;https://w3id.org/oseg/ont/okhmeta#Tag</title>
<path fill="none" stroke="black" d="M255.87,-116.69C300.36,-158.49 417.81,-268.85 468.87,-316.83"/>
<polygon fill="black" stroke="black" points="466.51,-319.42 476.19,-323.71 471.3,-314.31 466.51,-319.42"/>
<text text-anchor="middle" x="357.87" y="-220.56" font-family="Times,serif" font-size="14.00">a</text>
</g>
<!-- https://w3id.org/oseg/ont/okhmeta#DocumentationTag&#45;&gt;https://w3id.org/oseg/ont/okhmeta#MetaTag -->
<g id="edge19" class="edge">
<title>https://w3id.org/oseg/ont/okhmeta#DocumentationTag&#45;&gt;https://w3id.org/oseg/ont/okhmeta#MetaTag</title>
<path fill="none" stroke="black" d="M250.32,-116.51C286.37,-165.58 394.1,-312.21 437.1,-370.74"/>
<polygon fill="black" stroke="black" points="434.45,-373.05 443.19,-379.04 440.09,-368.9 434.45,-373.05"/>
<text text-anchor="middle" x="266.71" y="-247.43" font-family="Times,serif" font-size="14.00">okhmeta:hasMetaTag</text>
</g>
<!-- https://w3id.org/oseg/ont/okhmeta -->
<g id="node9" class="node">
<title>https://w3id.org/oseg/ont/okhmeta</title>
<ellipse fill="none" stroke="#e377c2" cx="1102.98" cy="-928.63" rx="76.24" ry="16.03"/>
<text text-anchor="middle" x="1102.98" y="-924.93" font-family="Times,serif" font-size="14.00">ns1:okhmeta</text>
</g>
<!-- https://w3id.org/oseg/ont/okhmeta&#45;&gt;http://spdx.org/rdf/terms#File -->
<g id="edge2" class="edge">
<title>https://w3id.org/oseg/ont/okhmeta&#45;&gt;http://spdx.org/rdf/terms#File</title>
<path fill="none" stroke="black" d="M1080.56,-912.81C1050.23,-891.41 996.01,-853.16 962,-829.17"/>
<polygon fill="black" stroke="black" points="963.58,-826 953.4,-823.1 959.55,-831.72 963.58,-826"/>
<text text-anchor="middle" x="1016.78" y="-859.79" font-family="Times,serif" font-size="14.00">a</text>
</g>
<!-- https://w3id.org/oseg/ont/oseg&#45;profiles#robinVobruba -->
<g id="node10" class="node">
<title>https://w3id.org/oseg/ont/oseg&#45;profiles#robinVobruba</title>
<ellipse fill="none" stroke="#e377c2" cx="1330.77" cy="-805.86" rx="113.69" ry="16.03"/>
<text text-anchor="middle" x="1330.77" y="-802.16" font-family="Times,serif" font-size="14.00">osegprof:robinVob...</text>
</g>
<!-- https://w3id.org/oseg/ont/okhmeta&#45;&gt;https://w3id.org/oseg/ont/oseg&#45;profiles#robinVobruba -->
<g id="edge18" class="edge">
<title>https://w3id.org/oseg/ont/okhmeta&#45;&gt;https://w3id.org/oseg/ont/oseg&#45;profiles#robinVobruba</title>
<path fill="none" stroke="black" d="M1139.95,-914.39C1185.03,-892.8 1260.21,-852.21 1301.49,-827.14"/>
<polygon fill="black" stroke="black" points="1303.33,-830.11 1310,-821.88 1299.65,-824.16 1303.33,-830.11"/>
<text text-anchor="middle" x="1276.22" y="-874.56" font-family="Times,serif" font-size="14.00">schema:creator</text>
</g>
<!-- https://w3id.org/oseg/ont/okhmeta&#45;&gt;https://w3id.org/oseg/ont/oseg&#45;profiles#robinVobruba -->
<g id="edge32" class="edge">
<title>https://w3id.org/oseg/ont/okhmeta&#45;&gt;https://w3id.org/oseg/ont/oseg&#45;profiles#robinVobruba</title>
<path fill="none" stroke="black" d="M1123.24,-912.92C1158.69,-890.57 1232.78,-850.13 1282.17,-825.75"/>
<polygon fill="black" stroke="black" points="1283.94,-828.78 1291.39,-821.25 1280.87,-822.49 1283.94,-828.78"/>
<text text-anchor="middle" x="1145.2" y="-858.14" font-family="Times,serif" font-size="14.00">dcterms:creator</text>
</g>
<!-- http://id.loc.gov/vocabulary/iso639&#45;1/en -->
<g id="node13" class="node">
<title>http://id.loc.gov/vocabulary/iso639&#45;1/en</title>
<ellipse fill="none" stroke="#e377c2" cx="1265.15" cy="-1026.73" rx="45.01" ry="16.03"/>
<text text-anchor="middle" x="1265.15" y="-1023.03" font-family="Times,serif" font-size="14.00">ns2:en</text>
</g>
<!-- https://w3id.org/oseg/ont/okhmeta&#45;&gt;http://id.loc.gov/vocabulary/iso639&#45;1/en -->
<g id="edge34" class="edge">
<title>https://w3id.org/oseg/ont/okhmeta&#45;&gt;http://id.loc.gov/vocabulary/iso639&#45;1/en</title>
<path fill="none" stroke="black" d="M1128.68,-944.17C1157.04,-961.33 1202.74,-988.98 1233.34,-1007.49"/>
<polygon fill="black" stroke="black" points="1231.57,-1010.51 1241.94,-1012.69 1235.19,-1004.52 1231.57,-1010.51"/>
<text text-anchor="middle" x="1245.51" y="-979.63" font-family="Times,serif" font-size="14.00">dcterms:language</text>
</g>
<!-- https://w3id.org/oseg/ont/1.1.0/okh&#45;meta -->
<g id="node16" class="node">
<title>https://w3id.org/oseg/ont/1.1.0/okh&#45;meta</title>
<ellipse fill="none" stroke="#e377c2" cx="1061.78" cy="-1156.83" rx="79.81" ry="16.03"/>
<text text-anchor="middle" x="1061.78" y="-1153.13" font-family="Times,serif" font-size="14.00">ns3:okh&#45;meta</text>
</g>
<!-- https://w3id.org/oseg/ont/okhmeta&#45;&gt;https://w3id.org/oseg/ont/1.1.0/okh&#45;meta -->
<g id="edge35" class="edge">
<title>https://w3id.org/oseg/ont/okhmeta&#45;&gt;https://w3id.org/oseg/ont/1.1.0/okh&#45;meta</title>
<path fill="none" stroke="black" d="M1100.02,-945.04C1092.96,-984.1 1075.13,-1082.87 1066.54,-1130.44"/>
<polygon fill="black" stroke="black" points="1063.05,-1130.1 1064.72,-1140.57 1069.94,-1131.35 1063.05,-1130.1"/>
<text text-anchor="middle" x="1031.78" y="-1041.54" font-family="Times,serif" font-size="14.00">owl:versionIRI</text>
</g>
<!-- https://spdx.org/licenses/GPL&#45;3.0&#45;or&#45;later -->
<g id="node18" class="node">
<title>https://spdx.org/licenses/GPL&#45;3.0&#45;or&#45;later</title>
<ellipse fill="none" stroke="#e377c2" cx="1055.55" cy="-977.24" rx="108.79" ry="16.03"/>
<text text-anchor="middle" x="1055.55" y="-973.54" font-family="Times,serif" font-size="14.00">spdxl:GPL&#45;3.0&#45;or&#45;...</text>
</g>
<!-- https://w3id.org/oseg/ont/okhmeta&#45;&gt;https://spdx.org/licenses/GPL&#45;3.0&#45;or&#45;later -->
<g id="edge13" class="edge">
<title>https://w3id.org/oseg/ont/okhmeta&#45;&gt;https://spdx.org/licenses/GPL&#45;3.0&#45;or&#45;later</title>
<path fill="none" stroke="black" d="M1087.19,-944.81C1084.42,-947.65 1081.48,-950.66 1078.56,-953.65"/>
<polygon fill="black" stroke="black" points="1075.91,-951.35 1071.44,-960.96 1080.93,-956.24 1075.91,-951.35"/>
<text text-anchor="middle" x="1161.88" y="-953.03" font-family="Times,serif" font-size="14.00">spdxt:licenseDeclared</text>
</g>
<!-- https://w3id.org/oseg/ont/oseg&#45;profiles#Iopa -->
<g id="node20" class="node">
<title>https://w3id.org/oseg/ont/oseg&#45;profiles#Iopa</title>
<ellipse fill="none" stroke="#e377c2" cx="1077.22" cy="-888.02" rx="80.72" ry="16.03"/>
<text text-anchor="middle" x="1077.22" y="-884.32" font-family="Times,serif" font-size="14.00">osegprof:Iopa</text>
</g>
<!-- https://w3id.org/oseg/ont/okhmeta&#45;&gt;https://w3id.org/oseg/ont/oseg&#45;profiles#Iopa -->
<g id="edge16" class="edge">
<title>https://w3id.org/oseg/ont/okhmeta&#45;&gt;https://w3id.org/oseg/ont/oseg&#45;profiles#Iopa</title>
<path fill="none" stroke="black" d="M1092.5,-912.11C1092.4,-911.95 1092.3,-911.79 1092.2,-911.63"/>
<polygon fill="black" stroke="black" points="1095.92,-910.96 1087.6,-904.39 1090.01,-914.71 1095.92,-910.96"/>
<text text-anchor="middle" x="1157.85" y="-900.67" font-family="Times,serif" font-size="14.00">dcterms:publisher</text>
</g>
<!-- https://w3id.org/oseg/ont/okhmeta#DataTag -->
<g id="node11" class="node">
<title>https://w3id.org/oseg/ont/okhmeta#DataTag</title>
<ellipse fill="none" stroke="#e377c2" cx="665.5" cy="-137.75" rx="100.32" ry="16.03"/>
<text text-anchor="middle" x="665.5" y="-134.05" font-family="Times,serif" font-size="14.00">okhmeta:DataTag</text>
</g>
<!-- https://w3id.org/oseg/ont/okhmeta#DataTag&#45;&gt;https://w3id.org/oseg/ont/okhmeta#Tag -->
<g id="edge33" class="edge">
<title>https://w3id.org/oseg/ont/okhmeta#DataTag&#45;&gt;https://w3id.org/oseg/ont/okhmeta#Tag</title>
<path fill="none" stroke="black" d="M651.69,-153.93C621.43,-189.37 549.19,-274.01 513.63,-315.67"/>
<polygon fill="black" stroke="black" points="510.86,-313.52 507.03,-323.4 516.19,-318.06 510.86,-313.52"/>
<text text-anchor="middle" x="578.16" y="-238.6" font-family="Times,serif" font-size="14.00">a</text>
</g>
<!-- https://w3id.org/oseg/ont/okhmeta#DataTag&#45;&gt;https://w3id.org/oseg/ont/okhmeta#MetaTag -->
<g id="edge22" class="edge">
<title>https://w3id.org/oseg/ont/okhmeta#DataTag&#45;&gt;https://w3id.org/oseg/ont/okhmeta#MetaTag</title>
<path fill="none" stroke="black" d="M652.02,-154.25C616.02,-198.31 517.51,-318.9 475.03,-370.89"/>
<polygon fill="black" stroke="black" points="472.1,-368.95 468.48,-378.9 477.52,-373.37 472.1,-368.95"/>
<text text-anchor="middle" x="486.53" y="-266.37" font-family="Times,serif" font-size="14.00">okhmeta:hasMetaTag</text>
</g>
<!-- https://w3id.org/oseg/ont/okhmeta#ExtendedInfoTag -->
<g id="node12" class="node">
<title>https://w3id.org/oseg/ont/okhmeta#ExtendedInfoTag</title>
<ellipse fill="none" stroke="#e377c2" cx="181.14" cy="-192.43" rx="120.42" ry="16.03"/>
<text text-anchor="middle" x="181.14" y="-188.73" font-family="Times,serif" font-size="14.00">okhmeta:ExtendedI...</text>
</g>
<!-- https://w3id.org/oseg/ont/okhmeta#ExtendedInfoTag&#45;&gt;https://w3id.org/oseg/ont/okhmeta#Tag -->
<g id="edge4" class="edge">
<title>https://w3id.org/oseg/ont/okhmeta#ExtendedInfoTag&#45;&gt;https://w3id.org/oseg/ont/okhmeta#Tag</title>
<path fill="none" stroke="black" d="M214.53,-208.19C272.1,-235.35 389.85,-290.91 452.25,-320.35"/>
<polygon fill="black" stroke="black" points="450.86,-323.57 461.4,-324.67 453.85,-317.24 450.86,-323.57"/>
<text text-anchor="middle" x="328.89" y="-268.07" font-family="Times,serif" font-size="14.00">a</text>
</g>
<!-- https://w3id.org/oseg/ont/okhmeta#ExtendedInfoTag&#45;&gt;https://w3id.org/oseg/ont/okhmeta#MetaTag -->
<g id="edge12" class="edge">
<title>https://w3id.org/oseg/ont/okhmeta#ExtendedInfoTag&#45;&gt;https://w3id.org/oseg/ont/okhmeta#MetaTag</title>
<path fill="none" stroke="black" d="M203.1,-208.69C251.91,-244.83 369.5,-331.89 425.07,-373.02"/>
<polygon fill="black" stroke="black" points="423.31,-376.08 433.43,-379.22 427.48,-370.45 423.31,-376.08"/>
<text text-anchor="middle" x="391.08" y="-294.66" font-family="Times,serif" font-size="14.00">okhmeta:hasMetaTag</text>
</g>
<!-- https://w3id.org/oseg/ont/okhmeta#QualityTag -->
<g id="node14" class="node">
<title>https://w3id.org/oseg/ont/okhmeta#QualityTag</title>
<ellipse fill="none" stroke="#e377c2" cx="153.87" cy="-299.52" rx="113.27" ry="16.03"/>
<text text-anchor="middle" x="153.87" y="-295.82" font-family="Times,serif" font-size="14.00">okhmeta:QualityTag</text>
</g>
<!-- https://w3id.org/oseg/ont/okhmeta#QualityTag&#45;&gt;https://w3id.org/oseg/ont/okhmeta#Tag -->
<g id="edge5" class="edge">
<title>https://w3id.org/oseg/ont/okhmeta#QualityTag&#45;&gt;https://w3id.org/oseg/ont/okhmeta#Tag</title>
<path fill="none" stroke="black" d="M241.24,-309.85C295.27,-316.24 363.98,-324.37 415.99,-330.53"/>
<polygon fill="black" stroke="black" points="415.82,-334.03 426.16,-331.73 416.64,-327.08 415.82,-334.03"/>
<text text-anchor="middle" x="324.12" y="-323.99" font-family="Times,serif" font-size="14.00">a</text>
</g>
<!-- https://w3id.org/oseg/ont/okhmeta#QualityTag&#45;&gt;https://w3id.org/oseg/ont/okhmeta#MetaTag -->
<g id="edge7" class="edge">
<title>https://w3id.org/oseg/ont/okhmeta#QualityTag&#45;&gt;https://w3id.org/oseg/ont/okhmeta#MetaTag</title>
<path fill="none" stroke="black" d="M200.61,-314.37C254.35,-331.45 342.49,-359.47 399.66,-377.64"/>
<polygon fill="black" stroke="black" points="398.66,-381 409.25,-380.69 400.78,-374.33 398.66,-381"/>
<text text-anchor="middle" x="223.13" y="-349.81" font-family="Times,serif" font-size="14.00">okhmeta:hasMetaTag</text>
</g>
<!-- https://w3id.org/oseg/ont/okhmeta#hasMetaTag -->
<g id="node15" class="node">
<title>https://w3id.org/oseg/ont/okhmeta#hasMetaTag</title>
<ellipse fill="none" stroke="#e377c2" cx="526.26" cy="-748.51" rx="120.42" ry="16.03"/>
<text text-anchor="middle" x="526.26" y="-744.81" font-family="Times,serif" font-size="14.00">okhmeta:hasMetaTag</text>
</g>
<!-- https://w3id.org/oseg/ont/okhmeta#hasMetaTag&#45;&gt;https://w3id.org/oseg/ont/okhmeta#MetaTag -->
<g id="edge26" class="edge">
<title>https://w3id.org/oseg/ont/okhmeta#hasMetaTag&#45;&gt;https://w3id.org/oseg/ont/okhmeta#MetaTag</title>
<path fill="none" stroke="black" d="M525.99,-731.82C519.38,-675.29 482.5,-490.84 464.33,-421.73"/>
<polygon fill="black" stroke="black" points="467.6,-420.39 461.59,-411.67 460.84,-422.23 467.6,-420.39"/>
<text text-anchor="middle" x="572.16" y="-580.57" font-family="Times,serif" font-size="14.00">okhmeta:hasMetaTag</text>
</g>
<!-- https://w3id.org/oseg/ont/okhmeta#hasMetaTag&#45;&gt;https://w3id.org/oseg/ont/okhmeta#MetaTag -->
<g id="edge36" class="edge">
<title>https://w3id.org/oseg/ont/okhmeta#hasMetaTag&#45;&gt;https://w3id.org/oseg/ont/okhmeta#MetaTag</title>
<path fill="none" stroke="black" d="M519.78,-732.09C503.75,-675.97 466.39,-491.51 456.69,-422.04"/>
<polygon fill="black" stroke="black" points="460.13,-421.39 455.38,-411.92 453.19,-422.29 460.13,-421.39"/>
<text text-anchor="middle" x="488.24" y="-565.87" font-family="Times,serif" font-size="14.00">schema:rangeIncludes</text>
</g>
<!-- https://w3id.org/oseg/ont/okhmeta#hasMetaTag&#45;&gt;http://www.w3.org/2004/02/skos/core#Concept -->
<g id="edge25" class="edge">
<title>https://w3id.org/oseg/ont/okhmeta#hasMetaTag&#45;&gt;http://www.w3.org/2004/02/skos/core#Concept</title>
<path fill="none" stroke="black" d="M534.05,-731.95C555.15,-687.08 613.51,-562.95 638.81,-509.15"/>
<polygon fill="black" stroke="black" points="642.04,-510.5 643.13,-499.96 635.71,-507.52 642.04,-510.5"/>
<text text-anchor="middle" x="581.93" y="-609.35" font-family="Times,serif" font-size="14.00">a</text>
</g>
<!-- http://www.w3.org/2004/02/skos/core#member -->
<g id="node21" class="node">
<title>http://www.w3.org/2004/02/skos/core#member</title>
<ellipse fill="none" stroke="#e377c2" cx="523.47" cy="-816.56" rx="79.39" ry="16.03"/>
<text text-anchor="middle" x="523.47" y="-812.86" font-family="Times,serif" font-size="14.00">skos:member</text>
</g>
<!-- https://w3id.org/oseg/ont/okhmeta#hasMetaTag&#45;&gt;http://www.w3.org/2004/02/skos/core#member -->
<g id="edge17" class="edge">
<title>https://w3id.org/oseg/ont/okhmeta#hasMetaTag&#45;&gt;http://www.w3.org/2004/02/skos/core#member</title>
<path fill="none" stroke="black" d="M525.59,-764.98C525.28,-772.51 524.91,-781.61 524.56,-790.05"/>
<polygon fill="black" stroke="black" points="521.05,-790.1 524.14,-800.24 528.05,-790.39 521.05,-790.1"/>
<text text-anchor="middle" x="472.07" y="-781.32" font-family="Times,serif" font-size="14.00">subPropertyOf</text>
</g>
<!-- https://w3id.org/oseg/ont/okhmeta#IdentificationTag -->
<g id="node17" class="node">
<title>https://w3id.org/oseg/ont/okhmeta#IdentificationTag</title>
<ellipse fill="none" stroke="#e377c2" cx="347.77" cy="-58.75" rx="109.7" ry="16.03"/>
<text text-anchor="middle" x="347.77" y="-55.05" font-family="Times,serif" font-size="14.00">okhmeta:Identific...</text>
</g>
<!-- https://w3id.org/oseg/ont/okhmeta#IdentificationTag&#45;&gt;https://w3id.org/oseg/ont/okhmeta#Tag -->
<g id="edge8" class="edge">
<title>https://w3id.org/oseg/ont/okhmeta#IdentificationTag&#45;&gt;https://w3id.org/oseg/ont/okhmeta#Tag</title>
<path fill="none" stroke="black" d="M356.22,-75.07C380.51,-122 450.69,-257.6 480.02,-314.28"/>
<polygon fill="black" stroke="black" points="476.98,-316.02 484.69,-323.29 483.2,-312.8 476.98,-316.02"/>
<text text-anchor="middle" x="413.62" y="-198.47" font-family="Times,serif" font-size="14.00">a</text>
</g>
<!-- https://w3id.org/oseg/ont/okhmeta#IdentificationTag&#45;&gt;https://w3id.org/oseg/ont/okhmeta#MetaTag -->
<g id="edge27" class="edge">
<title>https://w3id.org/oseg/ont/okhmeta#IdentificationTag&#45;&gt;https://w3id.org/oseg/ont/okhmeta#MetaTag</title>
<path fill="none" stroke="black" d="M353.09,-75.44C370.48,-129.95 425.7,-303.05 446.8,-369.21"/>
<polygon fill="black" stroke="black" points="443.51,-370.41 449.89,-378.88 450.18,-368.29 443.51,-370.41"/>
<text text-anchor="middle" x="476.95" y="-226.12" font-family="Times,serif" font-size="14.00">okhmeta:hasMetaTag</text>
</g>
<!-- https://w3id.org/oseg/ont/okhmeta#PartsTag -->
<g id="node19" class="node">
<title>https://w3id.org/oseg/ont/okhmeta#PartsTag</title>
<ellipse fill="none" stroke="#e377c2" cx="585.62" cy="-94.3" rx="103.48" ry="16.03"/>
<text text-anchor="middle" x="585.62" y="-90.6" font-family="Times,serif" font-size="14.00">okhmeta:PartsTag</text>
</g>
<!-- https://w3id.org/oseg/ont/okhmeta#PartsTag&#45;&gt;https://w3id.org/oseg/ont/okhmeta#Tag -->
<g id="edge15" class="edge">
<title>https://w3id.org/oseg/ont/okhmeta#PartsTag&#45;&gt;https://w3id.org/oseg/ont/okhmeta#Tag</title>
<path fill="none" stroke="black" d="M579.41,-110.78C563.65,-152.59 522.01,-263.08 502.94,-313.68"/>
<polygon fill="black" stroke="black" points="499.59,-312.66 499.34,-323.25 506.14,-315.12 499.59,-312.66"/>
<text text-anchor="middle" x="536.68" y="-201.03" font-family="Times,serif" font-size="14.00">a</text>
</g>
<!-- https://w3id.org/oseg/ont/okhmeta#PartsTag&#45;&gt;https://w3id.org/oseg/ont/okhmeta#MetaTag -->
<g id="edge3" class="edge">
<title>https://w3id.org/oseg/ont/okhmeta#PartsTag&#45;&gt;https://w3id.org/oseg/ont/okhmeta#MetaTag</title>
<path fill="none" stroke="black" d="M578.42,-110.91C556.8,-160.75 492.39,-309.31 466.28,-369.51"/>
<polygon fill="black" stroke="black" points="463.06,-368.14 462.29,-378.71 469.48,-370.93 463.06,-368.14"/>
<text text-anchor="middle" x="445.35" y="-244.01" font-family="Times,serif" font-size="14.00">okhmeta:hasMetaTag</text>
</g>
<!-- https://w3id.org/oseg/ont/okhmeta#MakingTag -->
<g id="node22" class="node">
<title>https://w3id.org/oseg/ont/okhmeta#MakingTag</title>
<ellipse fill="none" stroke="#e377c2" cx="746.94" cy="-557.41" rx="113.69" ry="16.03"/>
<text text-anchor="middle" x="746.94" y="-553.71" font-family="Times,serif" font-size="14.00">okhmeta:MakingTag</text>
</g>
<!-- https://w3id.org/oseg/ont/okhmeta#MakingTag&#45;&gt;https://w3id.org/oseg/ont/okhmeta#Tag -->
<g id="edge39" class="edge">
<title>https://w3id.org/oseg/ont/okhmeta#MakingTag&#45;&gt;https://w3id.org/oseg/ont/okhmeta#Tag</title>
<path fill="none" stroke="black" d="M727.87,-541.05C683,-502.55 570.73,-406.22 519.45,-362.22"/>
<polygon fill="black" stroke="black" points="521.63,-359.48 511.76,-355.62 517.07,-364.79 521.63,-359.48"/>
<text text-anchor="middle" x="619.16" y="-455.43" font-family="Times,serif" font-size="14.00">a</text>
</g>
<!-- https://w3id.org/oseg/ont/okhmeta#MakingTag&#45;&gt;https://w3id.org/oseg/ont/okhmeta#MetaTag -->
<g id="edge43" class="edge">
<title>https://w3id.org/oseg/ont/okhmeta#MakingTag&#45;&gt;https://w3id.org/oseg/ont/okhmeta#MetaTag</title>
<path fill="none" stroke="black" d="M718.43,-541.57C665.33,-512.07 551.36,-448.75 492.3,-415.93"/>
<polygon fill="black" stroke="black" points="493.75,-412.73 483.31,-410.94 490.35,-418.85 493.75,-412.73"/>
<text text-anchor="middle" x="528.37" y="-467.55" font-family="Times,serif" font-size="14.00">okhmeta:hasMetaTag</text>
</g>
<!-- https://w3id.org/oseg/ont/okhmeta#DataGatheringTag -->
<g id="node23" class="node">
<title>https://w3id.org/oseg/ont/okhmeta#DataGatheringTag</title>
<ellipse fill="none" stroke="#e377c2" cx="706.03" cy="-647.07" rx="122.16" ry="16.03"/>
<text text-anchor="middle" x="706.03" y="-643.37" font-family="Times,serif" font-size="14.00">okhmeta:DataGathe...</text>
</g>
<!-- https://w3id.org/oseg/ont/okhmeta#DataGatheringTag&#45;&gt;https://w3id.org/oseg/ont/okhmeta#Tag -->
<g id="edge41" class="edge">
<title>https://w3id.org/oseg/ont/okhmeta#DataGatheringTag&#45;&gt;https://w3id.org/oseg/ont/okhmeta#Tag</title>
<path fill="none" stroke="black" d="M694.58,-630.54C659.34,-579.65 552.33,-425.11 510.33,-364.46"/>
<polygon fill="black" stroke="black" points="512.97,-362.12 504.4,-355.89 507.21,-366.11 512.97,-362.12"/>
<text text-anchor="middle" x="597.96" y="-501.3" font-family="Times,serif" font-size="14.00">a</text>
</g>
<!-- https://w3id.org/oseg/ont/okhmeta#DataGatheringTag&#45;&gt;https://w3id.org/oseg/ont/okhmeta#MetaTag -->
<g id="edge10" class="edge">
<title>https://w3id.org/oseg/ont/okhmeta#DataGatheringTag&#45;&gt;https://w3id.org/oseg/ont/okhmeta#MetaTag</title>
<path fill="none" stroke="black" d="M689.95,-630.94C646.94,-587.78 529.12,-469.54 478.61,-418.85"/>
<polygon fill="black" stroke="black" points="480.92,-416.21 471.38,-411.59 475.96,-421.15 480.92,-416.21"/>
<text text-anchor="middle" x="507.28" y="-528.69" font-family="Times,serif" font-size="14.00">okhmeta:hasMetaTag</text>
</g>
<!-- https://w3id.org/oseg/ont/okhmeta#BasicTag -->
<g id="node24" class="node">
<title>https://w3id.org/oseg/ont/okhmeta#BasicTag</title>
<ellipse fill="none" stroke="#e377c2" cx="786.62" cy="-308.8" rx="103.48" ry="16.03"/>
<text text-anchor="middle" x="786.62" y="-305.1" font-family="Times,serif" font-size="14.00">okhmeta:BasicTag</text>
</g>
<!-- https://w3id.org/oseg/ont/okhmeta#BasicTag&#45;&gt;https://w3id.org/oseg/ont/okhmeta#Tag -->
<g id="edge21" class="edge">
<title>https://w3id.org/oseg/ont/okhmeta#BasicTag&#45;&gt;https://w3id.org/oseg/ont/okhmeta#Tag</title>
<path fill="none" stroke="black" d="M700.55,-317.85C659.95,-322.12 611.81,-327.18 572.15,-331.35"/>
<polygon fill="black" stroke="black" points="571.57,-327.89 561.99,-332.42 572.3,-334.85 571.57,-327.89"/>
<text text-anchor="middle" x="631.85" y="-328.4" font-family="Times,serif" font-size="14.00">a</text>
</g>
<!-- https://w3id.org/oseg/ont/okhmeta#BasicTag&#45;&gt;https://w3id.org/oseg/ont/okhmeta#MetaTag -->
<g id="edge6" class="edge">
<title>https://w3id.org/oseg/ont/okhmeta#BasicTag&#45;&gt;https://w3id.org/oseg/ont/okhmeta#MetaTag</title>
<path fill="none" stroke="black" d="M732.99,-322.79C674.28,-338.1 580.25,-362.63 518.09,-378.84"/>
<polygon fill="black" stroke="black" points="517.19,-375.46 508.39,-381.37 518.95,-382.23 517.19,-375.46"/>
<text text-anchor="middle" x="702.54" y="-354.62" font-family="Times,serif" font-size="14.00">okhmeta:hasMetaTag</text>
</g>
<!-- https://w3id.org/oseg/ont/okhmeta#DevelopmentTag -->
<g id="node25" class="node">
<title>https://w3id.org/oseg/ont/okhmeta#DevelopmentTag</title>
<ellipse fill="none" stroke="#e377c2" cx="282.92" cy="-676.41" rx="124.4" ry="16.03"/>
<text text-anchor="middle" x="282.92" y="-672.71" font-family="Times,serif" font-size="14.00">okhmeta:Developme...</text>
</g>
<!-- https://w3id.org/oseg/ont/okhmeta#DevelopmentTag&#45;&gt;https://w3id.org/oseg/ont/okhmeta#Tag -->
<g id="edge44" class="edge">
<title>https://w3id.org/oseg/ont/okhmeta#DevelopmentTag&#45;&gt;https://w3id.org/oseg/ont/okhmeta#Tag</title>
<path fill="none" stroke="black" d="M293.06,-660.16C326.98,-605.83 436.65,-430.17 477.57,-364.62"/>
<polygon fill="black" stroke="black" points="480.54,-366.46 482.87,-356.13 474.6,-362.76 480.54,-366.46"/>
<text text-anchor="middle" x="380.81" y="-516.19" font-family="Times,serif" font-size="14.00">a</text>
</g>
<!-- https://w3id.org/oseg/ont/okhmeta#DevelopmentTag&#45;&gt;https://w3id.org/oseg/ont/okhmeta#MetaTag -->
<g id="edge45" class="edge">
<title>https://w3id.org/oseg/ont/okhmeta#DevelopmentTag&#45;&gt;https://w3id.org/oseg/ont/okhmeta#MetaTag</title>
<path fill="none" stroke="black" d="M292.93,-660.07C321.75,-613.01 405.16,-476.83 439.78,-420.31"/>
<polygon fill="black" stroke="black" points="442.85,-422 445.08,-411.64 436.88,-418.34 442.85,-422"/>
<text text-anchor="middle" x="443.35" y="-543.99" font-family="Times,serif" font-size="14.00">okhmeta:hasMetaTag</text>
</g>
<!-- https://w3id.org/oseg/ont/okhmeta#HistoryTag -->
<g id="node26" class="node">
<title>https://w3id.org/oseg/ont/okhmeta#HistoryTag</title>
<ellipse fill="none" stroke="#e377c2" cx="560.86" cy="-16.51" rx="113.69" ry="16.03"/>
<text text-anchor="middle" x="560.86" y="-12.81" font-family="Times,serif" font-size="14.00">okhmeta:HistoryTag</text>
</g>
<!-- https://w3id.org/oseg/ont/okhmeta#HistoryTag&#45;&gt;https://w3id.org/oseg/ont/okhmeta#Tag -->
<g id="edge23" class="edge">
<title>https://w3id.org/oseg/ont/okhmeta#HistoryTag&#45;&gt;https://w3id.org/oseg/ont/okhmeta#Tag</title>
<path fill="none" stroke="black" d="M557.41,-32.98C546.43,-85.38 512.24,-248.58 498.73,-313.06"/>
<polygon fill="black" stroke="black" points="495.22,-312.71 496.6,-323.22 502.07,-314.15 495.22,-312.71"/>
<text text-anchor="middle" x="523.57" y="-176.82" font-family="Times,serif" font-size="14.00">a</text>
</g>
<!-- https://w3id.org/oseg/ont/okhmeta#HistoryTag&#45;&gt;https://w3id.org/oseg/ont/okhmeta#MetaTag -->
<g id="edge14" class="edge">
<title>https://w3id.org/oseg/ont/okhmeta#HistoryTag&#45;&gt;https://w3id.org/oseg/ont/okhmeta#MetaTag</title>
<path fill="none" stroke="black" d="M556.32,-32.79C539.81,-91.9 482.94,-295.6 462.5,-368.81"/>
<polygon fill="black" stroke="black" points="459.08,-368.05 459.76,-378.63 465.82,-369.94 459.08,-368.05"/>
<text text-anchor="middle" x="432.41" y="-189.6" font-family="Times,serif" font-size="14.00">okhmeta:hasMetaTag</text>
</g>
<!-- https://w3id.org/oseg/ont/okhmeta#LegalTag -->
<g id="node27" class="node">
<title>https://w3id.org/oseg/ont/okhmeta#LegalTag</title>
<ellipse fill="none" stroke="#e377c2" cx="299.34" cy="-590.61" rx="103.89" ry="16.03"/>
<text text-anchor="middle" x="299.34" y="-586.91" font-family="Times,serif" font-size="14.00">okhmeta:LegalTag</text>
</g>
<!-- https://w3id.org/oseg/ont/okhmeta#LegalTag&#45;&gt;https://w3id.org/oseg/ont/okhmeta#Tag -->
<g id="edge24" class="edge">
<title>https://w3id.org/oseg/ont/okhmeta#LegalTag&#45;&gt;https://w3id.org/oseg/ont/okhmeta#Tag</title>
<path fill="none" stroke="black" d="M312.06,-574.14C345.33,-531.06 435.11,-414.81 474.36,-363.99"/>
<polygon fill="black" stroke="black" points="477.3,-365.91 480.64,-355.85 471.76,-361.63 477.3,-365.91"/>
<text text-anchor="middle" x="388.71" y="-472.87" font-family="Times,serif" font-size="14.00">a</text>
</g>
<!-- https://w3id.org/oseg/ont/okhmeta#LegalTag&#45;&gt;https://w3id.org/oseg/ont/okhmeta#MetaTag -->
<g id="edge11" class="edge">
<title>https://w3id.org/oseg/ont/okhmeta#LegalTag&#45;&gt;https://w3id.org/oseg/ont/okhmeta#MetaTag</title>
<path fill="none" stroke="black" d="M312.35,-574.29C339.8,-539.88 403.72,-459.72 435.89,-419.38"/>
<polygon fill="black" stroke="black" points="438.75,-421.4 442.25,-411.4 433.28,-417.04 438.75,-421.4"/>
<text text-anchor="middle" x="297.12" y="-485.63" font-family="Times,serif" font-size="14.00">okhmeta:hasMetaTag</text>
</g>
<!-- https://w3id.org/oseg/ont/okhmeta#TransportationTag -->
<g id="node28" class="node">
<title>https://w3id.org/oseg/ont/okhmeta#TransportationTag</title>
<ellipse fill="none" stroke="#e377c2" cx="846.95" cy="-428.44" rx="118.17" ry="16.03"/>
<text text-anchor="middle" x="846.95" y="-424.74" font-family="Times,serif" font-size="14.00">okhmeta:Transport...</text>
</g>
<!-- https://w3id.org/oseg/ont/okhmeta#TransportationTag&#45;&gt;https://w3id.org/oseg/ont/okhmeta#Tag -->
<g id="edge46" class="edge">
<title>https://w3id.org/oseg/ont/okhmeta#TransportationTag&#45;&gt;https://w3id.org/oseg/ont/okhmeta#Tag</title>
<path fill="none" stroke="black" d="M790.11,-414.18C724.99,-397.83 618.77,-371.18 552.58,-354.57"/>
<polygon fill="black" stroke="black" points="553.27,-351.13 542.72,-352.09 551.56,-357.92 553.27,-351.13"/>
<text text-anchor="middle" x="666.84" y="-373.17" font-family="Times,serif" font-size="14.00">a</text>
</g>
<!-- https://w3id.org/oseg/ont/okhmeta#TransportationTag&#45;&gt;https://w3id.org/oseg/ont/okhmeta#MetaTag -->
<g id="edge38" class="edge">
<title>https://w3id.org/oseg/ont/okhmeta#TransportationTag&#45;&gt;https://w3id.org/oseg/ont/okhmeta#MetaTag</title>
<path fill="none" stroke="black" d="M746.3,-419.92C687.78,-414.97 614.28,-408.74 555.76,-403.79"/>
<polygon fill="black" stroke="black" points="556.02,-400.3 545.76,-402.94 555.43,-407.27 556.02,-400.3"/>
<text text-anchor="middle" x="574.03" y="-415.65" font-family="Times,serif" font-size="14.00">okhmeta:hasMetaTag</text>
</g>
</g>
</svg>
