<?xml version="1.0" encoding="UTF-8" standalone="no"?>
<!DOCTYPE svg PUBLIC "-//W3C//DTD SVG 1.1//EN"
 "http://www.w3.org/Graphics/SVG/1.1/DTD/svg11.dtd">
<!-- Generated by graphviz version 2.43.0 (0)
 -->
<!-- Title: G Pages: 1 -->
<svg width="1749pt" height="1805pt"
 viewBox="0.00 0.00 1749.48 1805.26" xmlns="http://www.w3.org/2000/svg" xmlns:xlink="http://www.w3.org/1999/xlink">
<g id="graph0" class="graph" transform="scale(1 1) rotate(0) translate(4 1801.26)">
<title>G</title>
<polygon fill="white" stroke="transparent" points="-4,4 -4,-1801.26 1745.48,-1801.26 1745.48,4 -4,4"/>
<!-- http://spdx.org/rdf/terms#SpdxItem -->
<g id="node1" class="node">
<title>http://spdx.org/rdf/terms#SpdxItem</title>
<ellipse fill="none" stroke="#1f77b4" cx="441.85" cy="-1768.26" rx="87.86" ry="16.03"/>
<text text-anchor="middle" x="441.85" y="-1764.56" font-family="Times,serif" font-size="14.00">spdx:SpdxItem</text>
</g>
<!-- http://schema.org/DefinedTermSet -->
<g id="node2" class="node">
<title>http://schema.org/DefinedTermSet</title>
<ellipse fill="none" stroke="#1f77b4" cx="884.08" cy="-1450.26" rx="116.85" ry="16.03"/>
<text text-anchor="middle" x="884.08" y="-1446.56" font-family="Times,serif" font-size="14.00">schema:DefinedTer...</text>
</g>
<!-- http://w3id.org/oseg/ont/ods#Dataset -->
<g id="node3" class="node">
<title>http://w3id.org/oseg/ont/ods#Dataset</title>
<ellipse fill="none" stroke="#1f77b4" cx="441.85" cy="-1717.26" rx="71.34" ry="16.03"/>
<text text-anchor="middle" x="441.85" y="-1713.56" font-family="Times,serif" font-size="14.00">ods:Dataset</text>
</g>
<!-- http://schema.org/DefinedTerm -->
<g id="node4" class="node">
<title>http://schema.org/DefinedTerm</title>
<ellipse fill="none" stroke="#1f77b4" cx="1623.39" cy="-749.26" rx="118.17" ry="16.03"/>
<text text-anchor="middle" x="1623.39" y="-745.56" font-family="Times,serif" font-size="14.00">schema:DefinedTerm</text>
</g>
<!-- http://w3id.org/oseg/ont/0.1.0/okhimg -->
<g id="node5" class="node">
<title>http://w3id.org/oseg/ont/0.1.0/okhimg</title>
<ellipse fill="none" stroke="#e377c2" cx="441.85" cy="-1666.26" rx="70.01" ry="16.03"/>
<text text-anchor="middle" x="441.85" y="-1662.56" font-family="Times,serif" font-size="14.00">ns1:okhimg</text>
</g>
<!-- http://w3id.org/oseg/ont/okhimg#tagDiagram -->
<g id="node6" class="node">
<title>http://w3id.org/oseg/ont/okhimg#tagDiagram</title>
<ellipse fill="none" stroke="#e377c2" cx="1333.03" cy="-1340.26" rx="111.95" ry="16.03"/>
<text text-anchor="middle" x="1333.03" y="-1336.56" font-family="Times,serif" font-size="14.00">okhimg:tagDiagram</text>
</g>
<!-- http://w3id.org/oseg/ont/okhimg#tagDiagram&#45;&gt;http://schema.org/DefinedTerm -->
<g id="edge2" class="edge">
<title>http://w3id.org/oseg/ont/okhimg#tagDiagram&#45;&gt;http://schema.org/DefinedTerm</title>
<path fill="none" stroke="black" d="M1427,-1331.39C1438.98,-1327.4 1450.48,-1321.87 1460.3,-1314.26 1481.84,-1297.59 1477.77,-1284.77 1487.3,-1259.26 1554.39,-1079.76 1602.05,-853.04 1617.23,-776.16"/>
<polygon fill="black" stroke="black" points="1620.74,-776.41 1619.23,-765.92 1613.87,-775.07 1620.74,-776.41"/>
<text text-anchor="middle" x="1482.8" y="-1294.06" font-family="Times,serif" font-size="14.00">a</text>
</g>
<!-- http://w3id.org/oseg/ont/okhimg#tagColor -->
<g id="node7" class="node">
<title>http://w3id.org/oseg/ont/okhimg#tagColor</title>
<ellipse fill="none" stroke="#e377c2" cx="1333.03" cy="-1289.26" rx="95.42" ry="16.03"/>
<text text-anchor="middle" x="1333.03" y="-1285.56" font-family="Times,serif" font-size="14.00">okhimg:tagColor</text>
</g>
<!-- http://w3id.org/oseg/ont/okhimg#tagColor&#45;&gt;http://schema.org/DefinedTerm -->
<g id="edge3" class="edge">
<title>http://w3id.org/oseg/ont/okhimg#tagColor&#45;&gt;http://schema.org/DefinedTerm</title>
<path fill="none" stroke="black" d="M1419.53,-1282.22C1434.1,-1278.17 1448.36,-1272.15 1460.3,-1263.26 1480.57,-1248.19 1477.72,-1236.63 1487.3,-1213.26 1553.32,-1052.3 1601.02,-847.68 1616.76,-775.72"/>
<polygon fill="black" stroke="black" points="1620.24,-776.23 1618.93,-765.71 1613.39,-774.74 1620.24,-776.23"/>
<text text-anchor="middle" x="1482.8" y="-1244.06" font-family="Times,serif" font-size="14.00">a</text>
</g>
<!-- http://w3id.org/oseg/ont/okhimg -->
<g id="node8" class="node">
<title>http://w3id.org/oseg/ont/okhimg</title>
<ellipse fill="none" stroke="#e377c2" cx="70" cy="-1544.26" rx="70.01" ry="16.03"/>
<text text-anchor="middle" x="70" y="-1540.56" font-family="Times,serif" font-size="14.00">ns2:okhimg</text>
</g>
<!-- http://w3id.org/oseg/ont/okhimg&#45;&gt;http://spdx.org/rdf/terms#SpdxItem -->
<g id="edge13" class="edge">
<title>http://w3id.org/oseg/ont/okhimg&#45;&gt;http://spdx.org/rdf/terms#SpdxItem</title>
<path fill="none" stroke="black" d="M72.81,-1560.58C78.03,-1599.17 96.91,-1696.1 158.01,-1740.26 217.96,-1783.59 304.68,-1785.78 366.27,-1780.15"/>
<polygon fill="black" stroke="black" points="366.71,-1783.62 376.31,-1779.14 366.01,-1776.66 366.71,-1783.62"/>
<text text-anchor="middle" x="234.01" y="-1786.06" font-family="Times,serif" font-size="14.00">a</text>
</g>
<!-- http://w3id.org/oseg/ont/okhimg&#45;&gt;http://w3id.org/oseg/ont/ods#Dataset -->
<g id="edge4" class="edge">
<title>http://w3id.org/oseg/ont/okhimg&#45;&gt;http://w3id.org/oseg/ont/ods#Dataset</title>
<path fill="none" stroke="black" d="M76.5,-1560.76C87.15,-1589.88 113.52,-1650 158.01,-1678.26 219.71,-1717.46 304.18,-1724.44 364.71,-1723.31"/>
<polygon fill="black" stroke="black" points="365.07,-1726.81 374.97,-1723.04 364.88,-1719.81 365.07,-1726.81"/>
<text text-anchor="middle" x="234.01" y="-1725.06" font-family="Times,serif" font-size="14.00">a</text>
</g>
<!-- http://w3id.org/oseg/ont/okhimg&#45;&gt;http://w3id.org/oseg/ont/0.1.0/okhimg -->
<g id="edge1" class="edge">
<title>http://w3id.org/oseg/ont/okhimg&#45;&gt;http://w3id.org/oseg/ont/0.1.0/okhimg</title>
<path fill="none" stroke="black" d="M84.25,-1560.27C99.91,-1578.01 127.7,-1606.01 158.01,-1620.26 222.24,-1650.47 302.74,-1661.3 361.41,-1664.96"/>
<polygon fill="black" stroke="black" points="361.56,-1668.47 371.74,-1665.55 361.95,-1661.49 361.56,-1668.47"/>
<text text-anchor="middle" x="234.01" y="-1663.06" font-family="Times,serif" font-size="14.00">owl:versionIRI</text>
</g>
<!-- http://id.loc.gov/vocabulary/iso639&#45;1/en -->
<g id="node18" class="node">
<title>http://id.loc.gov/vocabulary/iso639&#45;1/en</title>
<ellipse fill="none" stroke="#e377c2" cx="441.85" cy="-1615.26" rx="45.01" ry="16.03"/>
<text text-anchor="middle" x="441.85" y="-1611.56" font-family="Times,serif" font-size="14.00">ns3:en</text>
</g>
<!-- http://w3id.org/oseg/ont/okhimg&#45;&gt;http://id.loc.gov/vocabulary/iso639&#45;1/en -->
<g id="edge16" class="edge">
<title>http://w3id.org/oseg/ont/okhimg&#45;&gt;http://id.loc.gov/vocabulary/iso639&#45;1/en</title>
<path fill="none" stroke="black" d="M105.65,-1558.42C121.4,-1564.38 140.41,-1570.93 158.01,-1575.26 236.44,-1594.57 329.55,-1605.5 386.92,-1610.9"/>
<polygon fill="black" stroke="black" points="386.93,-1614.41 397.21,-1611.84 387.57,-1607.44 386.93,-1614.41"/>
<text text-anchor="middle" x="234.01" y="-1605.06" font-family="Times,serif" font-size="14.00">dcterms:language</text>
</g>
<!-- http://w3id.org/oseg/ont/oseg&#45;profiles#Iopa -->
<g id="node25" class="node">
<title>http://w3id.org/oseg/ont/oseg&#45;profiles#Iopa</title>
<ellipse fill="none" stroke="#e377c2" cx="441.85" cy="-1564.26" rx="80.72" ry="16.03"/>
<text text-anchor="middle" x="441.85" y="-1560.56" font-family="Times,serif" font-size="14.00">osegprof:Iopa</text>
</g>
<!-- http://w3id.org/oseg/ont/okhimg&#45;&gt;http://w3id.org/oseg/ont/oseg&#45;profiles#Iopa -->
<g id="edge23" class="edge">
<title>http://w3id.org/oseg/ont/okhimg&#45;&gt;http://w3id.org/oseg/ont/oseg&#45;profiles#Iopa</title>
<path fill="none" stroke="black" d="M138.41,-1547.91C198.73,-1551.17 287.54,-1555.97 353.33,-1559.53"/>
<polygon fill="black" stroke="black" points="353.5,-1563.05 363.68,-1560.09 353.88,-1556.06 353.5,-1563.05"/>
<text text-anchor="middle" x="234.01" y="-1560.06" font-family="Times,serif" font-size="14.00">dcterms:publisher</text>
</g>
<!-- http://w3id.org/oseg/ont/okhimg#tags -->
<g id="node28" class="node">
<title>http://w3id.org/oseg/ont/okhimg#tags</title>
<ellipse fill="none" stroke="#e377c2" cx="441.85" cy="-1513.26" rx="73.58" ry="16.03"/>
<text text-anchor="middle" x="441.85" y="-1509.56" font-family="Times,serif" font-size="14.00">okhimg:tags</text>
</g>
<!-- http://w3id.org/oseg/ont/okhimg&#45;&gt;http://w3id.org/oseg/ont/okhimg#tags -->
<g id="edge27" class="edge">
<title>http://w3id.org/oseg/ont/okhimg&#45;&gt;http://w3id.org/oseg/ont/okhimg#tags</title>
<path fill="none" stroke="black" d="M124.7,-1534.02C135.69,-1532.2 147.19,-1530.5 158.01,-1529.26 225.17,-1521.6 301.75,-1517.55 358.27,-1515.45"/>
<polygon fill="black" stroke="black" points="358.71,-1518.93 368.58,-1515.08 358.46,-1511.94 358.71,-1518.93"/>
<text text-anchor="middle" x="234.01" y="-1533.06" font-family="Times,serif" font-size="14.00">void:rootResource</text>
</g>
<!-- http://spdx.org/licenses/AGPL&#45;3.0&#45;or&#45;later -->
<g id="node30" class="node">
<title>http://spdx.org/licenses/AGPL&#45;3.0&#45;or&#45;later</title>
<ellipse fill="none" stroke="#e377c2" cx="441.85" cy="-1462.26" rx="111.95" ry="16.03"/>
<text text-anchor="middle" x="441.85" y="-1458.56" font-family="Times,serif" font-size="14.00">spdxl:AGPL&#45;3.0&#45;or...</text>
</g>
<!-- http://w3id.org/oseg/ont/okhimg&#45;&gt;http://spdx.org/licenses/AGPL&#45;3.0&#45;or&#45;later -->
<g id="edge29" class="edge">
<title>http://w3id.org/oseg/ont/okhimg&#45;&gt;http://spdx.org/licenses/AGPL&#45;3.0&#45;or&#45;later</title>
<path fill="none" stroke="black" d="M94.36,-1528.93C111.32,-1518.56 135.2,-1505.48 158.01,-1498.26 211.1,-1481.46 272.15,-1472.48 323.91,-1467.68"/>
<polygon fill="black" stroke="black" points="324.49,-1471.14 334.14,-1466.78 323.87,-1464.17 324.49,-1471.14"/>
<text text-anchor="middle" x="234.01" y="-1502.06" font-family="Times,serif" font-size="14.00">spdx:licenseDeclared</text>
</g>
<!-- http://w3id.org/oseg/ont/oseg&#45;profiles#robinVobruba -->
<g id="node31" class="node">
<title>http://w3id.org/oseg/ont/oseg&#45;profiles#robinVobruba</title>
<ellipse fill="none" stroke="#e377c2" cx="441.85" cy="-1411.26" rx="113.69" ry="16.03"/>
<text text-anchor="middle" x="441.85" y="-1407.56" font-family="Times,serif" font-size="14.00">osegprof:robinVob...</text>
</g>
<!-- http://w3id.org/oseg/ont/okhimg&#45;&gt;http://w3id.org/oseg/ont/oseg&#45;profiles#robinVobruba -->
<g id="edge30" class="edge">
<title>http://w3id.org/oseg/ont/okhimg&#45;&gt;http://w3id.org/oseg/ont/oseg&#45;profiles#robinVobruba</title>
<path fill="none" stroke="black" d="M80.72,-1527.94C94.76,-1505.99 122.92,-1467.59 158.01,-1449.26 162.26,-1447.04 265.21,-1433.56 345.68,-1423.28"/>
<polygon fill="black" stroke="black" points="346.4,-1426.72 355.87,-1421.98 345.51,-1419.77 346.4,-1426.72"/>
<text text-anchor="middle" x="234.01" y="-1453.06" font-family="Times,serif" font-size="14.00">dcterms:creator</text>
</g>
<!-- http://w3id.org/oseg/ont/okhimg&#45;&gt;http://w3id.org/oseg/ont/oseg&#45;profiles#robinVobruba -->
<g id="edge44" class="edge">
<title>http://w3id.org/oseg/ont/okhimg&#45;&gt;http://w3id.org/oseg/ont/oseg&#45;profiles#robinVobruba</title>
<path fill="none" stroke="black" d="M75.78,-1527.97C85.57,-1498.01 111,-1434.89 158.01,-1409.26 188.67,-1392.54 272.59,-1395.02 341.12,-1400.53"/>
<polygon fill="black" stroke="black" points="340.85,-1404.02 351.11,-1401.36 341.43,-1397.04 340.85,-1404.02"/>
<text text-anchor="middle" x="234.01" y="-1413.06" font-family="Times,serif" font-size="14.00">schema:creator</text>
</g>
<!-- http://w3id.org/oseg/ont/okhimg#slots -->
<g id="node32" class="node">
<title>http://w3id.org/oseg/ont/okhimg#slots</title>
<ellipse fill="none" stroke="#e377c2" cx="441.85" cy="-1360.26" rx="75.82" ry="16.03"/>
<text text-anchor="middle" x="441.85" y="-1356.56" font-family="Times,serif" font-size="14.00">okhimg:slots</text>
</g>
<!-- http://w3id.org/oseg/ont/okhimg&#45;&gt;http://w3id.org/oseg/ont/okhimg#slots -->
<g id="edge31" class="edge">
<title>http://w3id.org/oseg/ont/okhimg&#45;&gt;http://w3id.org/oseg/ont/okhimg#slots</title>
<path fill="none" stroke="black" d="M74.06,-1527.96C81.48,-1493.46 103.97,-1413.34 158.01,-1378.26 223.2,-1335.94 315.62,-1339 376.85,-1347.54"/>
<polygon fill="black" stroke="black" points="376.38,-1351.01 386.78,-1349.01 377.4,-1344.08 376.38,-1351.01"/>
<text text-anchor="middle" x="234.01" y="-1382.06" font-family="Times,serif" font-size="14.00">void:rootResource</text>
</g>
<!-- http://w3id.org/oseg/ont/okhimg#slotPhotoPackaging -->
<g id="node9" class="node">
<title>http://w3id.org/oseg/ont/okhimg#slotPhotoPackaging</title>
<ellipse fill="none" stroke="#e377c2" cx="1333.03" cy="-1238.26" rx="113.69" ry="16.03"/>
<text text-anchor="middle" x="1333.03" y="-1234.56" font-family="Times,serif" font-size="14.00">okhimg:slotPhotoP...</text>
</g>
<!-- http://w3id.org/oseg/ont/okhimg#slotPhotoPackaging&#45;&gt;http://schema.org/DefinedTerm -->
<g id="edge5" class="edge">
<title>http://w3id.org/oseg/ont/okhimg#slotPhotoPackaging&#45;&gt;http://schema.org/DefinedTerm</title>
<path fill="none" stroke="black" d="M1423.05,-1228.3C1436.14,-1224.5 1449.01,-1219.32 1460.3,-1212.26 1476.97,-1201.85 1478.21,-1194.68 1487.3,-1177.26 1561.62,-1035.01 1603.8,-844.59 1617.45,-775.6"/>
<polygon fill="black" stroke="black" points="1620.92,-776.09 1619.39,-765.6 1614.05,-774.75 1620.92,-776.09"/>
<text text-anchor="middle" x="1482.8" y="-1198.06" font-family="Times,serif" font-size="14.00">a</text>
</g>
<!-- http://w3id.org/oseg/ont/okhimg#tagPhoto -->
<g id="node10" class="node">
<title>http://w3id.org/oseg/ont/okhimg#tagPhoto</title>
<ellipse fill="none" stroke="#e377c2" cx="1333.03" cy="-1187.26" rx="97.66" ry="16.03"/>
<text text-anchor="middle" x="1333.03" y="-1183.56" font-family="Times,serif" font-size="14.00">okhimg:tagPhoto</text>
</g>
<!-- http://w3id.org/oseg/ont/okhimg#tagPhoto&#45;&gt;http://schema.org/DefinedTerm -->
<g id="edge6" class="edge">
<title>http://w3id.org/oseg/ont/okhimg#tagPhoto&#45;&gt;http://schema.org/DefinedTerm</title>
<path fill="none" stroke="black" d="M1425.61,-1181.94C1447.97,-1176.71 1470.31,-1167.65 1487.3,-1152.26 1600.98,-1049.32 1619.12,-847.91 1621.92,-775.76"/>
<polygon fill="black" stroke="black" points="1625.42,-775.81 1622.24,-765.71 1618.42,-775.59 1625.42,-775.81"/>
<text text-anchor="middle" x="1482.8" y="-1162.06" font-family="Times,serif" font-size="14.00">a</text>
</g>
<!-- http://w3id.org/oseg/ont/okhimg#slotOrganizationLogo -->
<g id="node11" class="node">
<title>http://w3id.org/oseg/ont/okhimg#slotOrganizationLogo</title>
<ellipse fill="none" stroke="#e377c2" cx="884.08" cy="-1108.26" rx="114.6" ry="16.03"/>
<text text-anchor="middle" x="884.08" y="-1104.56" font-family="Times,serif" font-size="14.00">okhimg:slotOrgani...</text>
</g>
<!-- http://w3id.org/oseg/ont/okhimg#slotOrganizationLogo&#45;&gt;http://schema.org/DefinedTerm -->
<g id="edge7" class="edge">
<title>http://w3id.org/oseg/ont/okhimg#slotOrganizationLogo&#45;&gt;http://schema.org/DefinedTerm</title>
<path fill="none" stroke="black" d="M968.89,-1119.24C1108.29,-1135.78 1380.38,-1160.27 1460.3,-1111.26 1581.78,-1036.77 1612.78,-846.18 1620.2,-775.86"/>
<polygon fill="black" stroke="black" points="1623.71,-775.93 1621.2,-765.64 1616.74,-775.25 1623.71,-775.93"/>
<text text-anchor="middle" x="1333.03" y="-1144.06" font-family="Times,serif" font-size="14.00">a</text>
</g>
<!-- http://w3id.org/oseg/ont/okhimg#slotOrganizationLogoBw -->
<g id="node33" class="node">
<title>http://w3id.org/oseg/ont/okhimg#slotOrganizationLogoBw</title>
<ellipse fill="none" stroke="#e377c2" cx="1333.03" cy="-1086.26" rx="114.6" ry="16.03"/>
<text text-anchor="middle" x="1333.03" y="-1082.56" font-family="Times,serif" font-size="14.00">okhimg:slotOrgani...</text>
</g>
<!-- http://w3id.org/oseg/ont/okhimg#slotOrganizationLogo&#45;&gt;http://w3id.org/oseg/ont/okhimg#slotOrganizationLogoBw -->
<g id="edge47" class="edge">
<title>http://w3id.org/oseg/ont/okhimg#slotOrganizationLogo&#45;&gt;http://w3id.org/oseg/ont/okhimg#slotOrganizationLogoBw</title>
<path fill="none" stroke="black" d="M933.07,-1093.5C958.48,-1086.44 990.36,-1078.78 1019.45,-1075.26 1091.07,-1066.6 1172.54,-1069.89 1234.34,-1075.06"/>
<polygon fill="black" stroke="black" points="1234.21,-1078.56 1244.48,-1075.94 1234.82,-1071.59 1234.21,-1078.56"/>
<text text-anchor="middle" x="1103.6" y="-1079.06" font-family="Times,serif" font-size="14.00">seeAlso</text>
</g>
<!-- http://w3id.org/oseg/ont/okhimg#slotModelFromBack -->
<g id="node12" class="node">
<title>http://w3id.org/oseg/ont/okhimg#slotModelFromBack</title>
<ellipse fill="none" stroke="#e377c2" cx="1333.03" cy="-1035.26" rx="116.85" ry="16.03"/>
<text text-anchor="middle" x="1333.03" y="-1031.56" font-family="Times,serif" font-size="14.00">okhimg:slotModelF...</text>
</g>
<!-- http://w3id.org/oseg/ont/okhimg#slotModelFromBack&#45;&gt;http://schema.org/DefinedTerm -->
<g id="edge8" class="edge">
<title>http://w3id.org/oseg/ont/okhimg#slotModelFromBack&#45;&gt;http://schema.org/DefinedTerm</title>
<path fill="none" stroke="black" d="M1426.31,-1025.46C1438.4,-1021.6 1450.11,-1016.36 1460.3,-1009.26 1546.04,-949.57 1595.63,-828.43 1614.07,-775.27"/>
<polygon fill="black" stroke="black" points="1617.46,-776.17 1617.34,-765.58 1610.83,-773.93 1617.46,-776.17"/>
<text text-anchor="middle" x="1482.8" y="-998.06" font-family="Times,serif" font-size="14.00">a</text>
</g>
<!-- http://w3id.org/oseg/ont/okhimg#tagDrawing -->
<g id="node13" class="node">
<title>http://w3id.org/oseg/ont/okhimg#tagDrawing</title>
<ellipse fill="none" stroke="#e377c2" cx="1333.03" cy="-984.26" rx="111.95" ry="16.03"/>
<text text-anchor="middle" x="1333.03" y="-980.56" font-family="Times,serif" font-size="14.00">okhimg:tagDrawing</text>
</g>
<!-- http://w3id.org/oseg/ont/okhimg#tagDrawing&#45;&gt;http://schema.org/DefinedTerm -->
<g id="edge9" class="edge">
<title>http://w3id.org/oseg/ont/okhimg#tagDrawing&#45;&gt;http://schema.org/DefinedTerm</title>
<path fill="none" stroke="black" d="M1422.37,-974.46C1435.7,-970.65 1448.81,-965.42 1460.3,-958.26 1534.38,-912.12 1587.8,-819.3 1610.41,-774.54"/>
<polygon fill="black" stroke="black" points="1613.59,-776.01 1614.89,-765.5 1607.31,-772.91 1613.59,-776.01"/>
<text text-anchor="middle" x="1482.8" y="-946.06" font-family="Times,serif" font-size="14.00">a</text>
</g>
<!-- http://w3id.org/oseg/ont/okhimg#tagLogo -->
<g id="node14" class="node">
<title>http://w3id.org/oseg/ont/okhimg#tagLogo</title>
<ellipse fill="none" stroke="#e377c2" cx="1333.03" cy="-933.26" rx="92.76" ry="16.03"/>
<text text-anchor="middle" x="1333.03" y="-929.56" font-family="Times,serif" font-size="14.00">okhimg:tagLogo</text>
</g>
<!-- http://w3id.org/oseg/ont/okhimg#tagLogo&#45;&gt;http://schema.org/DefinedTerm -->
<g id="edge11" class="edge">
<title>http://w3id.org/oseg/ont/okhimg#tagLogo&#45;&gt;http://schema.org/DefinedTerm</title>
<path fill="none" stroke="black" d="M1411.57,-924.53C1428.27,-920.69 1445.38,-915.18 1460.3,-907.26 1522.87,-874.07 1577.68,-809.3 1604.64,-773.87"/>
<polygon fill="black" stroke="black" points="1607.69,-775.63 1610.88,-765.53 1602.09,-771.44 1607.69,-775.63"/>
<text text-anchor="middle" x="1482.8" y="-899.06" font-family="Times,serif" font-size="14.00">a</text>
</g>
<!-- http://w3id.org/oseg/ont/okhimg#tagIcon -->
<g id="node15" class="node">
<title>http://w3id.org/oseg/ont/okhimg#tagIcon</title>
<ellipse fill="none" stroke="#e377c2" cx="1333.03" cy="-882.26" rx="89.61" ry="16.03"/>
<text text-anchor="middle" x="1333.03" y="-878.56" font-family="Times,serif" font-size="14.00">okhimg:tagIcon</text>
</g>
<!-- http://w3id.org/oseg/ont/okhimg#tagIcon&#45;&gt;http://schema.org/DefinedTerm -->
<g id="edge12" class="edge">
<title>http://w3id.org/oseg/ont/okhimg#tagIcon&#45;&gt;http://schema.org/DefinedTerm</title>
<path fill="none" stroke="black" d="M1404.63,-872.31C1431.31,-866.97 1461.45,-859 1487.3,-847.26 1529.44,-828.14 1571.58,-794.73 1597.32,-772.31"/>
<polygon fill="black" stroke="black" points="1599.91,-774.69 1605.08,-765.45 1595.27,-769.45 1599.91,-774.69"/>
<text text-anchor="middle" x="1482.8" y="-855.06" font-family="Times,serif" font-size="14.00">a</text>
</g>
<!-- http://w3id.org/oseg/ont/okhimg#slotLogoBw -->
<g id="node16" class="node">
<title>http://w3id.org/oseg/ont/okhimg#slotLogoBw</title>
<ellipse fill="none" stroke="#e377c2" cx="884.08" cy="-803.26" rx="111.03" ry="16.03"/>
<text text-anchor="middle" x="884.08" y="-799.56" font-family="Times,serif" font-size="14.00">okhimg:slotLogoBw</text>
</g>
<!-- http://w3id.org/oseg/ont/okhimg#slotLogoBw&#45;&gt;http://schema.org/DefinedTerm -->
<g id="edge14" class="edge">
<title>http://w3id.org/oseg/ont/okhimg#slotLogoBw&#45;&gt;http://schema.org/DefinedTerm</title>
<path fill="none" stroke="black" d="M969.81,-813.66C1082.8,-825.27 1288.54,-838.51 1460.3,-806.26 1501.49,-798.53 1546.28,-782.12 1578.31,-768.89"/>
<polygon fill="black" stroke="black" points="1579.96,-771.99 1587.83,-764.9 1577.25,-765.54 1579.96,-771.99"/>
<text text-anchor="middle" x="1333.03" y="-831.06" font-family="Times,serif" font-size="14.00">a</text>
</g>
<!-- http://w3id.org/oseg/ont/okhimg#slotLogo -->
<g id="node26" class="node">
<title>http://w3id.org/oseg/ont/okhimg#slotLogo</title>
<ellipse fill="none" stroke="#e377c2" cx="1333.03" cy="-781.26" rx="94.51" ry="16.03"/>
<text text-anchor="middle" x="1333.03" y="-777.56" font-family="Times,serif" font-size="14.00">okhimg:slotLogo</text>
</g>
<!-- http://w3id.org/oseg/ont/okhimg#slotLogoBw&#45;&gt;http://w3id.org/oseg/ont/okhimg#slotLogo -->
<g id="edge25" class="edge">
<title>http://w3id.org/oseg/ont/okhimg#slotLogoBw&#45;&gt;http://w3id.org/oseg/ont/okhimg#slotLogo</title>
<path fill="none" stroke="black" d="M928.03,-788.26C954.12,-779.95 988.28,-770.48 1019.45,-766.26 1097.61,-755.7 1187.64,-761.94 1250.94,-769.32"/>
<polygon fill="black" stroke="black" points="1250.91,-772.85 1261.26,-770.56 1251.75,-765.9 1250.91,-772.85"/>
<text text-anchor="middle" x="1103.6" y="-770.06" font-family="Times,serif" font-size="14.00">seeAlso</text>
</g>
<!-- http://w3id.org/oseg/ont/okhimg#slotIconMainBw -->
<g id="node17" class="node">
<title>http://w3id.org/oseg/ont/okhimg#slotIconMainBw</title>
<ellipse fill="none" stroke="#e377c2" cx="1333.03" cy="-1391.26" rx="117.26" ry="16.03"/>
<text text-anchor="middle" x="1333.03" y="-1387.56" font-family="Times,serif" font-size="14.00">okhimg:slotIconMa...</text>
</g>
<!-- http://w3id.org/oseg/ont/okhimg#slotIconMainBw&#45;&gt;http://schema.org/DefinedTerm -->
<g id="edge15" class="edge">
<title>http://w3id.org/oseg/ont/okhimg#slotIconMainBw&#45;&gt;http://schema.org/DefinedTerm</title>
<path fill="none" stroke="black" d="M1428.98,-1381.79C1440.26,-1377.85 1451.04,-1372.49 1460.3,-1365.26 1482.09,-1348.27 1478.01,-1335.28 1487.3,-1309.26 1558.46,-1110.01 1604.26,-857.66 1618.02,-776.03"/>
<polygon fill="black" stroke="black" points="1621.56,-776.11 1619.75,-765.67 1614.65,-774.95 1621.56,-776.11"/>
<text text-anchor="middle" x="1482.8" y="-1345.06" font-family="Times,serif" font-size="14.00">a</text>
</g>
<!-- http://w3id.org/oseg/ont/okhimg#slotIconMain -->
<g id="node23" class="node">
<title>http://w3id.org/oseg/ont/okhimg#slotIconMain</title>
<ellipse fill="none" stroke="#e377c2" cx="884.08" cy="-1379.26" rx="117.26" ry="16.03"/>
<text text-anchor="middle" x="884.08" y="-1375.56" font-family="Times,serif" font-size="14.00">okhimg:slotIconMain</text>
</g>
<!-- http://w3id.org/oseg/ont/okhimg#slotIconMainBw&#45;&gt;http://w3id.org/oseg/ont/okhimg#slotIconMain -->
<g id="edge40" class="edge">
<title>http://w3id.org/oseg/ont/okhimg#slotIconMainBw&#45;&gt;http://w3id.org/oseg/ont/okhimg#slotIconMain</title>
<path fill="none" stroke="black" d="M1263.67,-1378.1C1239.75,-1374.1 1212.65,-1370.24 1187.75,-1368.26 1113.18,-1362.36 1094.19,-1365.21 1019.45,-1368.26 1010.79,-1368.62 1001.82,-1369.1 992.81,-1369.67"/>
<polygon fill="black" stroke="black" points="992.38,-1366.19 982.63,-1370.34 992.84,-1373.17 992.38,-1366.19"/>
<text text-anchor="middle" x="1103.6" y="-1372.06" font-family="Times,serif" font-size="14.00">seeAlso</text>
</g>
<!-- http://w3id.org/oseg/ont/okhimg#tagBw -->
<g id="node19" class="node">
<title>http://w3id.org/oseg/ont/okhimg#tagBw</title>
<ellipse fill="none" stroke="#e377c2" cx="1333.03" cy="-730.26" rx="84.29" ry="16.03"/>
<text text-anchor="middle" x="1333.03" y="-726.56" font-family="Times,serif" font-size="14.00">okhimg:tagBw</text>
</g>
<!-- http://w3id.org/oseg/ont/okhimg#tagBw&#45;&gt;http://schema.org/DefinedTerm -->
<g id="edge17" class="edge">
<title>http://w3id.org/oseg/ont/okhimg#tagBw&#45;&gt;http://schema.org/DefinedTerm</title>
<path fill="none" stroke="black" d="M1416,-733.36C1439.07,-734.4 1464.18,-735.71 1487.3,-737.26 1496.36,-737.87 1505.76,-738.57 1515.18,-739.32"/>
<polygon fill="black" stroke="black" points="1515.15,-742.82 1525.4,-740.14 1515.71,-735.85 1515.15,-742.82"/>
<text text-anchor="middle" x="1482.8" y="-741.06" font-family="Times,serif" font-size="14.00">a</text>
</g>
<!-- http://w3id.org/oseg/ont/okhimg#slotSymbol -->
<g id="node20" class="node">
<title>http://w3id.org/oseg/ont/okhimg#slotSymbol</title>
<ellipse fill="none" stroke="#e377c2" cx="1333.03" cy="-679.26" rx="108.38" ry="16.03"/>
<text text-anchor="middle" x="1333.03" y="-675.56" font-family="Times,serif" font-size="14.00">okhimg:slotSymbol</text>
</g>
<!-- http://w3id.org/oseg/ont/okhimg#slotSymbol&#45;&gt;http://schema.org/DefinedTerm -->
<g id="edge18" class="edge">
<title>http://w3id.org/oseg/ont/okhimg#slotSymbol&#45;&gt;http://schema.org/DefinedTerm</title>
<path fill="none" stroke="black" d="M1400.06,-692.06C1419.52,-696.04 1440.82,-700.62 1460.3,-705.26 1493.94,-713.28 1531.2,-723.32 1561.5,-731.77"/>
<polygon fill="black" stroke="black" points="1560.92,-735.25 1571.5,-734.58 1562.81,-728.51 1560.92,-735.25"/>
<text text-anchor="middle" x="1482.8" y="-716.06" font-family="Times,serif" font-size="14.00">a</text>
</g>
<!-- http://w3id.org/oseg/ont/okhimg#slotModelMain -->
<g id="node21" class="node">
<title>http://w3id.org/oseg/ont/okhimg#slotModelMain</title>
<ellipse fill="none" stroke="#e377c2" cx="1333.03" cy="-628.26" rx="127.06" ry="16.03"/>
<text text-anchor="middle" x="1333.03" y="-624.56" font-family="Times,serif" font-size="14.00">okhimg:slotModelMain</text>
</g>
<!-- http://w3id.org/oseg/ont/okhimg#slotModelMain&#45;&gt;http://schema.org/DefinedTerm -->
<g id="edge19" class="edge">
<title>http://w3id.org/oseg/ont/okhimg#slotModelMain&#45;&gt;http://schema.org/DefinedTerm</title>
<path fill="none" stroke="black" d="M1414.65,-640.75C1430.07,-644.29 1445.89,-648.73 1460.3,-654.26 1509.29,-673.07 1560.72,-705.76 1592.18,-727.45"/>
<polygon fill="black" stroke="black" points="1590.29,-730.41 1600.5,-733.26 1594.3,-724.67 1590.29,-730.41"/>
<text text-anchor="middle" x="1482.8" y="-668.06" font-family="Times,serif" font-size="14.00">a</text>
</g>
<!-- http://w3id.org/oseg/ont/okhimg#slotSocial -->
<g id="node22" class="node">
<title>http://w3id.org/oseg/ont/okhimg#slotSocial</title>
<ellipse fill="none" stroke="#e377c2" cx="1333.03" cy="-577.26" rx="101.23" ry="16.03"/>
<text text-anchor="middle" x="1333.03" y="-573.56" font-family="Times,serif" font-size="14.00">okhimg:slotSocial</text>
</g>
<!-- http://w3id.org/oseg/ont/okhimg#slotSocial&#45;&gt;http://schema.org/DefinedTerm -->
<g id="edge20" class="edge">
<title>http://w3id.org/oseg/ont/okhimg#slotSocial&#45;&gt;http://schema.org/DefinedTerm</title>
<path fill="none" stroke="black" d="M1414,-587.06C1429.87,-590.83 1446.02,-596.04 1460.3,-603.26 1520.44,-633.67 1575.28,-692.33 1603.14,-725.29"/>
<polygon fill="black" stroke="black" points="1600.54,-727.64 1609.63,-733.08 1605.92,-723.16 1600.54,-727.64"/>
<text text-anchor="middle" x="1482.8" y="-622.06" font-family="Times,serif" font-size="14.00">a</text>
</g>
<!-- http://w3id.org/oseg/ont/okhimg#slotIconMain&#45;&gt;http://schema.org/DefinedTerm -->
<g id="edge24" class="edge">
<title>http://w3id.org/oseg/ont/okhimg#slotIconMain&#45;&gt;http://schema.org/DefinedTerm</title>
<path fill="none" stroke="black" d="M937.3,-1393.8C962,-1400.03 992.03,-1406.69 1019.45,-1410.26 1116.61,-1422.91 1377.33,-1468.37 1460.3,-1416.26 1572.98,-1345.5 1612.41,-890.71 1620.65,-775.67"/>
<polygon fill="black" stroke="black" points="1624.14,-775.84 1621.35,-765.62 1617.16,-775.36 1624.14,-775.84"/>
<text text-anchor="middle" x="1333.03" y="-1444.06" font-family="Times,serif" font-size="14.00">a</text>
</g>
<!-- http://w3id.org/oseg/ont/okhimg#slotIconMain&#45;&gt;http://w3id.org/oseg/ont/okhimg#slotIconMainBw -->
<g id="edge36" class="edge">
<title>http://w3id.org/oseg/ont/okhimg#slotIconMain&#45;&gt;http://w3id.org/oseg/ont/okhimg#slotIconMainBw</title>
<path fill="none" stroke="black" d="M991.05,-1386.04C1000.65,-1386.51 1010.23,-1386.93 1019.45,-1387.26 1080.59,-1389.47 1148.5,-1390.51 1205.36,-1390.98"/>
<polygon fill="black" stroke="black" points="1205.45,-1394.48 1215.47,-1391.06 1205.5,-1387.48 1205.45,-1394.48"/>
<text text-anchor="middle" x="1103.6" y="-1395.06" font-family="Times,serif" font-size="14.00">seeAlso</text>
</g>
<!-- http://w3id.org/oseg/ont/okhimg#slotModelFromRight -->
<g id="node24" class="node">
<title>http://w3id.org/oseg/ont/okhimg#slotModelFromRight</title>
<ellipse fill="none" stroke="#e377c2" cx="1333.03" cy="-526.26" rx="116.85" ry="16.03"/>
<text text-anchor="middle" x="1333.03" y="-522.56" font-family="Times,serif" font-size="14.00">okhimg:slotModelF...</text>
</g>
<!-- http://w3id.org/oseg/ont/okhimg#slotModelFromRight&#45;&gt;http://schema.org/DefinedTerm -->
<g id="edge22" class="edge">
<title>http://w3id.org/oseg/ont/okhimg#slotModelFromRight&#45;&gt;http://schema.org/DefinedTerm</title>
<path fill="none" stroke="black" d="M1423.18,-536.64C1436.19,-540.39 1449,-545.44 1460.3,-552.26 1531.53,-595.22 1585.48,-681.17 1609.17,-723.91"/>
<polygon fill="black" stroke="black" points="1606.17,-725.72 1614.02,-732.83 1612.32,-722.38 1606.17,-725.72"/>
<text text-anchor="middle" x="1482.8" y="-572.06" font-family="Times,serif" font-size="14.00">a</text>
</g>
<!-- http://w3id.org/oseg/ont/okhimg#slotLogo&#45;&gt;http://schema.org/DefinedTerm -->
<g id="edge48" class="edge">
<title>http://w3id.org/oseg/ont/okhimg#slotLogo&#45;&gt;http://schema.org/DefinedTerm</title>
<path fill="none" stroke="black" d="M1413.2,-772.48C1446.36,-768.8 1485.32,-764.47 1520.57,-760.56"/>
<polygon fill="black" stroke="black" points="1521.34,-764 1530.9,-759.42 1520.57,-757.04 1521.34,-764"/>
<text text-anchor="middle" x="1482.8" y="-769.06" font-family="Times,serif" font-size="14.00">a</text>
</g>
<!-- http://w3id.org/oseg/ont/okhimg#slotLogo&#45;&gt;http://w3id.org/oseg/ont/okhimg#slotLogoBw -->
<g id="edge45" class="edge">
<title>http://w3id.org/oseg/ont/okhimg#slotLogo&#45;&gt;http://w3id.org/oseg/ont/okhimg#slotLogoBw</title>
<path fill="none" stroke="black" d="M1241.75,-785.71C1171.95,-789.14 1074.85,-793.92 999.58,-797.63"/>
<polygon fill="black" stroke="black" points="999.4,-794.13 989.58,-798.12 999.74,-801.12 999.4,-794.13"/>
<text text-anchor="middle" x="1103.6" y="-800.06" font-family="Times,serif" font-size="14.00">seeAlso</text>
</g>
<!-- http://w3id.org/oseg/ont/okhimg#slotModelFromBelow -->
<g id="node27" class="node">
<title>http://w3id.org/oseg/ont/okhimg#slotModelFromBelow</title>
<ellipse fill="none" stroke="#e377c2" cx="1333.03" cy="-475.26" rx="116.85" ry="16.03"/>
<text text-anchor="middle" x="1333.03" y="-471.56" font-family="Times,serif" font-size="14.00">okhimg:slotModelF...</text>
</g>
<!-- http://w3id.org/oseg/ont/okhimg#slotModelFromBelow&#45;&gt;http://schema.org/DefinedTerm -->
<g id="edge26" class="edge">
<title>http://w3id.org/oseg/ont/okhimg#slotModelFromBelow&#45;&gt;http://schema.org/DefinedTerm</title>
<path fill="none" stroke="black" d="M1425.85,-485.16C1438.07,-489 1449.94,-494.21 1460.3,-501.26 1543.23,-557.69 1593.87,-672.05 1613.29,-723.34"/>
<polygon fill="black" stroke="black" points="1610.01,-724.56 1616.76,-732.72 1616.58,-722.13 1610.01,-724.56"/>
<text text-anchor="middle" x="1482.8" y="-525.06" font-family="Times,serif" font-size="14.00">a</text>
</g>
<!-- http://w3id.org/oseg/ont/okhimg#tags&#45;&gt;http://schema.org/DefinedTermSet -->
<g id="edge41" class="edge">
<title>http://w3id.org/oseg/ont/okhimg#tags&#45;&gt;http://schema.org/DefinedTermSet</title>
<path fill="none" stroke="black" d="M503.63,-1504.31C520.97,-1500.43 539.54,-1494.95 555.7,-1487.26 564.85,-1482.91 564.24,-1476.91 573.7,-1473.26 606.63,-1460.58 686.93,-1454.85 757.46,-1452.29"/>
<polygon fill="black" stroke="black" points="757.91,-1455.77 767.79,-1451.93 757.67,-1448.78 757.91,-1455.77"/>
<text text-anchor="middle" x="661.2" y="-1477.06" font-family="Times,serif" font-size="14.00">a</text>
</g>
<!-- http://w3id.org/oseg/ont/okhimg#tagArt -->
<g id="node38" class="node">
<title>http://w3id.org/oseg/ont/okhimg#tagArt</title>
<ellipse fill="none" stroke="#e377c2" cx="1103.6" cy="-1507.26" rx="84.29" ry="16.03"/>
<text text-anchor="middle" x="1103.6" y="-1503.56" font-family="Times,serif" font-size="14.00">okhimg:tagArt</text>
</g>
<!-- http://w3id.org/oseg/ont/okhimg#tags&#45;&gt;http://w3id.org/oseg/ont/okhimg#tagArt -->
<g id="edge39" class="edge">
<title>http://w3id.org/oseg/ont/okhimg#tags&#45;&gt;http://w3id.org/oseg/ont/okhimg#tagArt</title>
<path fill="none" stroke="black" d="M515.34,-1512.6C635.64,-1511.51 876.4,-1509.32 1009.24,-1508.11"/>
<polygon fill="black" stroke="black" points="1009.43,-1511.61 1019.4,-1508.02 1009.37,-1504.61 1009.43,-1511.61"/>
<text text-anchor="middle" x="661.2" y="-1515.06" font-family="Times,serif" font-size="14.00">schema:hasDefinedTerm</text>
</g>
<!-- http://w3id.org/oseg/ont/okhimg#slotModelFromLeft -->
<g id="node29" class="node">
<title>http://w3id.org/oseg/ont/okhimg#slotModelFromLeft</title>
<ellipse fill="none" stroke="#e377c2" cx="1333.03" cy="-424.26" rx="116.85" ry="16.03"/>
<text text-anchor="middle" x="1333.03" y="-420.56" font-family="Times,serif" font-size="14.00">okhimg:slotModelF...</text>
</g>
<!-- http://w3id.org/oseg/ont/okhimg#slotModelFromLeft&#45;&gt;http://schema.org/DefinedTerm -->
<g id="edge28" class="edge">
<title>http://w3id.org/oseg/ont/okhimg#slotModelFromLeft&#45;&gt;http://schema.org/DefinedTerm</title>
<path fill="none" stroke="black" d="M1427.2,-433.94C1439.02,-437.83 1450.42,-443.11 1460.3,-450.26 1556.21,-519.64 1601.31,-663.7 1616.36,-722.95"/>
<polygon fill="black" stroke="black" points="1612.96,-723.79 1618.75,-732.67 1619.76,-722.12 1612.96,-723.79"/>
<text text-anchor="middle" x="1482.8" y="-472.06" font-family="Times,serif" font-size="14.00">a</text>
</g>
<!-- http://w3id.org/oseg/ont/okhimg#slots&#45;&gt;http://schema.org/DefinedTermSet -->
<g id="edge38" class="edge">
<title>http://w3id.org/oseg/ont/okhimg#slots&#45;&gt;http://schema.org/DefinedTermSet</title>
<path fill="none" stroke="black" d="M496.5,-1371.53C515.32,-1375.77 536.54,-1380.88 555.7,-1386.26 563.81,-1388.55 565.53,-1390.15 573.7,-1392.26 646.86,-1411.22 731.26,-1426.62 793.41,-1436.78"/>
<polygon fill="black" stroke="black" points="793.15,-1440.28 803.58,-1438.43 794.27,-1433.37 793.15,-1440.28"/>
<text text-anchor="middle" x="661.2" y="-1431.06" font-family="Times,serif" font-size="14.00">a</text>
</g>
<!-- http://w3id.org/oseg/ont/okhimg#slots&#45;&gt;http://w3id.org/oseg/ont/okhimg#slotIconMain -->
<g id="edge21" class="edge">
<title>http://w3id.org/oseg/ont/okhimg#slots&#45;&gt;http://w3id.org/oseg/ont/okhimg#slotIconMain</title>
<path fill="none" stroke="black" d="M516.53,-1363.44C583.18,-1366.32 682.6,-1370.61 761.09,-1374"/>
<polygon fill="black" stroke="black" points="761.39,-1377.51 771.53,-1374.45 761.69,-1370.52 761.39,-1377.51"/>
<text text-anchor="middle" x="661.2" y="-1377.06" font-family="Times,serif" font-size="14.00">schema:hasDefinedTerm</text>
</g>
<!-- http://w3id.org/oseg/ont/okhimg#slotOrganizationLogoBw&#45;&gt;http://schema.org/DefinedTerm -->
<g id="edge32" class="edge">
<title>http://w3id.org/oseg/ont/okhimg#slotOrganizationLogoBw&#45;&gt;http://schema.org/DefinedTerm</title>
<path fill="none" stroke="black" d="M1426.55,-1076.8C1438.6,-1072.89 1450.24,-1067.54 1460.3,-1060.26 1559.67,-988.39 1603.01,-837.11 1616.98,-775.86"/>
<polygon fill="black" stroke="black" points="1620.45,-776.35 1619.18,-765.83 1613.62,-774.85 1620.45,-776.35"/>
<text text-anchor="middle" x="1482.8" y="-1047.06" font-family="Times,serif" font-size="14.00">a</text>
</g>
<!-- http://w3id.org/oseg/ont/okhimg#slotOrganizationLogoBw&#45;&gt;http://w3id.org/oseg/ont/okhimg#slotOrganizationLogo -->
<g id="edge10" class="edge">
<title>http://w3id.org/oseg/ont/okhimg#slotOrganizationLogoBw&#45;&gt;http://w3id.org/oseg/ont/okhimg#slotOrganizationLogo</title>
<path fill="none" stroke="black" d="M1224.43,-1091.56C1157.42,-1094.86 1071.2,-1099.1 1002.43,-1102.49"/>
<polygon fill="black" stroke="black" points="1002.23,-1098.99 992.42,-1102.98 1002.58,-1105.98 1002.23,-1098.99"/>
<text text-anchor="middle" x="1103.6" y="-1105.06" font-family="Times,serif" font-size="14.00">seeAlso</text>
</g>
<!-- http://w3id.org/oseg/ont/okhimg#tagGray -->
<g id="node34" class="node">
<title>http://w3id.org/oseg/ont/okhimg#tagGray</title>
<ellipse fill="none" stroke="#e377c2" cx="1333.03" cy="-373.26" rx="92.76" ry="16.03"/>
<text text-anchor="middle" x="1333.03" y="-369.56" font-family="Times,serif" font-size="14.00">okhimg:tagGray</text>
</g>
<!-- http://w3id.org/oseg/ont/okhimg#tagGray&#45;&gt;http://schema.org/DefinedTerm -->
<g id="edge33" class="edge">
<title>http://w3id.org/oseg/ont/okhimg#tagGray&#45;&gt;http://schema.org/DefinedTerm</title>
<path fill="none" stroke="black" d="M1417.89,-379.86C1433.02,-383.91 1447.91,-390.05 1460.3,-399.26 1570.26,-481.02 1607.99,-655.67 1618.71,-722.5"/>
<polygon fill="black" stroke="black" points="1615.29,-723.26 1620.26,-732.62 1622.21,-722.21 1615.29,-723.26"/>
<text text-anchor="middle" x="1482.8" y="-423.06" font-family="Times,serif" font-size="14.00">a</text>
</g>
<!-- http://w3id.org/oseg/ont/okhimg#slotModel3D -->
<g id="node35" class="node">
<title>http://w3id.org/oseg/ont/okhimg#slotModel3D</title>
<ellipse fill="none" stroke="#e377c2" cx="1333.03" cy="-322.26" rx="115.93" ry="16.03"/>
<text text-anchor="middle" x="1333.03" y="-318.56" font-family="Times,serif" font-size="14.00">okhimg:slotModel3D</text>
</g>
<!-- http://w3id.org/oseg/ont/okhimg#slotModel3D&#45;&gt;http://schema.org/DefinedTerm -->
<g id="edge34" class="edge">
<title>http://w3id.org/oseg/ont/okhimg#slotModel3D&#45;&gt;http://schema.org/DefinedTerm</title>
<path fill="none" stroke="black" d="M1427.81,-331.66C1439.47,-335.6 1450.66,-340.97 1460.3,-348.26 1585.07,-442.61 1614.11,-648.92 1620.6,-722.52"/>
<polygon fill="black" stroke="black" points="1617.14,-723.09 1621.43,-732.77 1624.11,-722.52 1617.14,-723.09"/>
<text text-anchor="middle" x="1482.8" y="-375.06" font-family="Times,serif" font-size="14.00">a</text>
</g>
<!-- http://w3id.org/oseg/ont/okhimg#tagModel -->
<g id="node36" class="node">
<title>http://w3id.org/oseg/ont/okhimg#tagModel</title>
<ellipse fill="none" stroke="#e377c2" cx="1333.03" cy="-271.26" rx="99.9" ry="16.03"/>
<text text-anchor="middle" x="1333.03" y="-267.56" font-family="Times,serif" font-size="14.00">okhimg:tagModel</text>
</g>
<!-- http://w3id.org/oseg/ont/okhimg#tagModel&#45;&gt;http://schema.org/DefinedTerm -->
<g id="edge35" class="edge">
<title>http://w3id.org/oseg/ont/okhimg#tagModel&#45;&gt;http://schema.org/DefinedTerm</title>
<path fill="none" stroke="black" d="M1422.11,-278.6C1435.84,-282.67 1449.15,-288.63 1460.3,-297.26 1599.45,-404.97 1619.33,-642.34 1622.02,-722.34"/>
<polygon fill="black" stroke="black" points="1618.53,-722.65 1622.3,-732.55 1625.53,-722.46 1618.53,-722.65"/>
<text text-anchor="middle" x="1482.8" y="-318.06" font-family="Times,serif" font-size="14.00">a</text>
</g>
<!-- http://w3id.org/oseg/ont/okhimg#slotModelFromAbove -->
<g id="node37" class="node">
<title>http://w3id.org/oseg/ont/okhimg#slotModelFromAbove</title>
<ellipse fill="none" stroke="#e377c2" cx="1333.03" cy="-220.26" rx="116.85" ry="16.03"/>
<text text-anchor="middle" x="1333.03" y="-216.56" font-family="Times,serif" font-size="14.00">okhimg:slotModelF...</text>
</g>
<!-- http://w3id.org/oseg/ont/okhimg#slotModelFromAbove&#45;&gt;http://schema.org/DefinedTerm -->
<g id="edge37" class="edge">
<title>http://w3id.org/oseg/ont/okhimg#slotModelFromAbove&#45;&gt;http://schema.org/DefinedTerm</title>
<path fill="none" stroke="black" d="M1427.64,-229.89C1439.33,-233.79 1450.57,-239.09 1460.3,-246.26 1480.32,-261.02 1477.7,-272.33 1487.3,-295.26 1552.99,-452.2 1600.73,-651.98 1616.64,-722.87"/>
<polygon fill="black" stroke="black" points="1613.24,-723.74 1618.83,-732.74 1620.08,-722.22 1613.24,-723.74"/>
<text text-anchor="middle" x="1482.8" y="-299.06" font-family="Times,serif" font-size="14.00">a</text>
</g>
<!-- http://w3id.org/oseg/ont/okhimg#tagArt&#45;&gt;http://schema.org/DefinedTerm -->
<g id="edge49" class="edge">
<title>http://w3id.org/oseg/ont/okhimg#tagArt&#45;&gt;http://schema.org/DefinedTerm</title>
<path fill="none" stroke="black" d="M1162.1,-1518.98C1246.04,-1532.4 1401.43,-1542.67 1487.3,-1457.26 1586.47,-1358.63 1615.45,-892.42 1621.21,-775.77"/>
<polygon fill="black" stroke="black" points="1624.71,-775.75 1621.7,-765.6 1617.72,-775.42 1624.71,-775.75"/>
<text text-anchor="middle" x="1333.03" y="-1531.06" font-family="Times,serif" font-size="14.00">a</text>
</g>
<!-- http://w3id.org/oseg/ont/okhimg#tagScreenshot -->
<g id="node39" class="node">
<title>http://w3id.org/oseg/ont/okhimg#tagScreenshot</title>
<ellipse fill="none" stroke="#e377c2" cx="1333.03" cy="-169.26" rx="125.32" ry="16.03"/>
<text text-anchor="middle" x="1333.03" y="-165.56" font-family="Times,serif" font-size="14.00">okhimg:tagScreenshot</text>
</g>
<!-- http://w3id.org/oseg/ont/okhimg#tagScreenshot&#45;&gt;http://schema.org/DefinedTerm -->
<g id="edge42" class="edge">
<title>http://w3id.org/oseg/ont/okhimg#tagScreenshot&#45;&gt;http://schema.org/DefinedTerm</title>
<path fill="none" stroke="black" d="M1430.91,-179.42C1441.49,-183.3 1451.57,-188.45 1460.3,-195.26 1547.04,-262.9 1604.2,-621.84 1618.74,-722.82"/>
<polygon fill="black" stroke="black" points="1615.28,-723.39 1620.15,-732.8 1622.21,-722.41 1615.28,-723.39"/>
<text text-anchor="middle" x="1482.8" y="-226.06" font-family="Times,serif" font-size="14.00">a</text>
</g>
<!-- http://w3id.org/oseg/ont/okhimg#tagAssembly -->
<g id="node40" class="node">
<title>http://w3id.org/oseg/ont/okhimg#tagAssembly</title>
<ellipse fill="none" stroke="#e377c2" cx="1333.03" cy="-118.26" rx="116.85" ry="16.03"/>
<text text-anchor="middle" x="1333.03" y="-114.56" font-family="Times,serif" font-size="14.00">okhimg:tagAssembly</text>
</g>
<!-- http://w3id.org/oseg/ont/okhimg#tagAssembly&#45;&gt;http://schema.org/DefinedTerm -->
<g id="edge43" class="edge">
<title>http://w3id.org/oseg/ont/okhimg#tagAssembly&#45;&gt;http://schema.org/DefinedTerm</title>
<path fill="none" stroke="black" d="M1429.12,-127.56C1440.38,-131.53 1451.11,-136.94 1460.3,-144.26 1482.87,-162.22 1477.8,-176.04 1487.3,-203.26 1555.24,-397.86 1602.98,-642.74 1617.65,-722.7"/>
<polygon fill="black" stroke="black" points="1614.26,-723.65 1619.5,-732.86 1621.15,-722.4 1614.26,-723.65"/>
<text text-anchor="middle" x="1482.8" y="-207.06" font-family="Times,serif" font-size="14.00">a</text>
</g>
<!-- http://w3id.org/oseg/ont/okhimg#slotModelFromFront -->
<g id="node41" class="node">
<title>http://w3id.org/oseg/ont/okhimg#slotModelFromFront</title>
<ellipse fill="none" stroke="#e377c2" cx="1333.03" cy="-67.26" rx="116.85" ry="16.03"/>
<text text-anchor="middle" x="1333.03" y="-63.56" font-family="Times,serif" font-size="14.00">okhimg:slotModelF...</text>
</g>
<!-- http://w3id.org/oseg/ont/okhimg#slotModelFromFront&#45;&gt;http://schema.org/DefinedTerm -->
<g id="edge46" class="edge">
<title>http://w3id.org/oseg/ont/okhimg#slotModelFromFront&#45;&gt;http://schema.org/DefinedTerm</title>
<path fill="none" stroke="black" d="M1429.03,-76.67C1440.3,-80.63 1451.06,-86.01 1460.3,-93.26 1482.35,-110.58 1478.17,-123.76 1487.3,-150.26 1561.39,-365.08 1605.76,-637.45 1618.53,-722.6"/>
<polygon fill="black" stroke="black" points="1615.1,-723.32 1620.03,-732.7 1622.02,-722.29 1615.1,-723.32"/>
<text text-anchor="middle" x="1482.8" y="-154.06" font-family="Times,serif" font-size="14.00">a</text>
</g>
<!-- http://w3id.org/oseg/ont/okhimg#slotPhotoThingMain -->
<g id="node42" class="node">
<title>http://w3id.org/oseg/ont/okhimg#slotPhotoThingMain</title>
<ellipse fill="none" stroke="#e377c2" cx="1333.03" cy="-16.26" rx="114.6" ry="16.03"/>
<text text-anchor="middle" x="1333.03" y="-12.56" font-family="Times,serif" font-size="14.00">okhimg:slotPhotoT...</text>
</g>
<!-- http://w3id.org/oseg/ont/okhimg#slotPhotoThingMain&#45;&gt;http://schema.org/DefinedTerm -->
<g id="edge50" class="edge">
<title>http://w3id.org/oseg/ont/okhimg#slotPhotoThingMain&#45;&gt;http://schema.org/DefinedTerm</title>
<path fill="none" stroke="black" d="M1428.43,-25.39C1439.93,-29.38 1450.91,-34.84 1460.3,-42.26 1482.61,-59.9 1478.35,-73.28 1487.3,-100.26 1565.26,-335.14 1607.56,-633.34 1619.11,-722.77"/>
<polygon fill="black" stroke="black" points="1615.66,-723.37 1620.39,-732.85 1622.6,-722.48 1615.66,-723.37"/>
<text text-anchor="middle" x="1482.8" y="-104.06" font-family="Times,serif" font-size="14.00">a</text>
</g>
</g>
</svg>
