<?xml version="1.0" encoding="UTF-8" standalone="no"?>
<!DOCTYPE svg PUBLIC "-//W3C//DTD SVG 1.1//EN"
 "http://www.w3.org/Graphics/SVG/1.1/DTD/svg11.dtd">
<!-- Generated by graphviz version 2.43.0 (0)
 -->
<!-- Title: G Pages: 1 -->
<svg width="1855pt" height="2549pt"
 viewBox="0.00 0.00 1855.00 2549.00" xmlns="http://www.w3.org/2000/svg" xmlns:xlink="http://www.w3.org/1999/xlink">
<g id="graph0" class="graph" transform="scale(1 1) rotate(0) translate(4 2545)">
<title>G</title>
<polygon fill="white" stroke="transparent" points="-4,4 -4,-2545 1851,-2545 1851,4 -4,4"/>
<!-- http://w3id.org/oseg/ont/okh#FileUrl -->
<g id="node1" class="node">
<title>http://w3id.org/oseg/ont/okh#FileUrl</title>
<ellipse fill="none" stroke="#1f77b4" cx="652.66" cy="-264.91" rx="68.68" ry="16.03"/>
<text text-anchor="middle" x="652.66" y="-261.21" font-family="Times,serif" font-size="14.00">okh:FileUrl</text>
</g>
<!-- http://schema.org/URL -->
<g id="node2" class="node">
<title>http://schema.org/URL</title>
<ellipse fill="none" stroke="#e377c2" cx="619.03" cy="-16.52" rx="75.82" ry="16.03"/>
<text text-anchor="middle" x="619.03" y="-12.82" font-family="Times,serif" font-size="14.00">schema:URL</text>
</g>
<!-- http://w3id.org/oseg/ont/okh#FileUrl&#45;&gt;http://schema.org/URL -->
<g id="edge27" class="edge">
<title>http://w3id.org/oseg/ont/okh#FileUrl&#45;&gt;http://schema.org/URL</title>
<path fill="none" stroke="black" d="M650.46,-248.62C644.77,-206.6 629.56,-94.29 622.6,-42.87"/>
<polygon fill="black" stroke="black" points="626.06,-42.31 621.25,-32.87 619.12,-43.25 626.06,-42.31"/>
</g>
<!-- http://w3id.org/oseg/ont/okh#ComponentReference -->
<g id="node6" class="node">
<title>http://w3id.org/oseg/ont/okh#ComponentReference</title>
<ellipse fill="none" stroke="#e377c2" cx="847.82" cy="-541.73" rx="123.07" ry="16.03"/>
<text text-anchor="middle" x="847.82" y="-538.03" font-family="Times,serif" font-size="14.00">okh:ComponentRefe...</text>
</g>
<!-- http://w3id.org/oseg/ont/okh#FileUrl&#45;&gt;http://w3id.org/oseg/ont/okh#ComponentReference -->
<g id="edge6" class="edge">
<title>http://w3id.org/oseg/ont/okh#FileUrl&#45;&gt;http://w3id.org/oseg/ont/okh#ComponentReference</title>
<path fill="none" stroke="black" d="M664,-280.99C696.66,-327.32 791.14,-461.34 830.39,-517.02"/>
<polygon fill="black" stroke="black" points="827.58,-519.1 836.2,-525.26 833.3,-515.07 827.58,-519.1"/>
</g>
<!-- http://w3id.org/oseg/ont/okh#File -->
<g id="node11" class="node">
<title>http://w3id.org/oseg/ont/okh#File</title>
<ellipse fill="none" stroke="#e377c2" cx="525.67" cy="-448.84" rx="52.15" ry="16.03"/>
<text text-anchor="middle" x="525.67" y="-445.14" font-family="Times,serif" font-size="14.00">okh:File</text>
</g>
<!-- http://w3id.org/oseg/ont/okh#FileUrl&#45;&gt;http://w3id.org/oseg/ont/okh#File -->
<g id="edge5" class="edge">
<title>http://w3id.org/oseg/ont/okh#FileUrl&#45;&gt;http://w3id.org/oseg/ont/okh#File</title>
<path fill="none" stroke="black" d="M641.39,-281.24C619.03,-313.63 568.92,-386.2 542.58,-424.35"/>
<polygon fill="black" stroke="black" points="539.53,-422.6 536.73,-432.82 545.29,-426.58 539.53,-422.6"/>
<text text-anchor="middle" x="511.99" y="-356.59" font-family="Times,serif" font-size="14.00">schema:supersededBy</text>
</g>
<!-- http://w3id.org/oseg/ont/okh#Reference -->
<g id="node3" class="node">
<title>http://w3id.org/oseg/ont/okh#Reference</title>
<ellipse fill="none" stroke="#e377c2" cx="945.11" cy="-220.79" rx="84.29" ry="16.03"/>
<text text-anchor="middle" x="945.11" y="-217.09" font-family="Times,serif" font-size="14.00">okh:Reference</text>
</g>
<!-- http://www.w3.org/2004/02/skos/core#Concept -->
<g id="node4" class="node">
<title>http://www.w3.org/2004/02/skos/core#Concept</title>
<ellipse fill="none" stroke="#1f77b4" cx="1008.23" cy="-920.78" rx="78.48" ry="16.03"/>
<text text-anchor="middle" x="1008.23" y="-917.08" font-family="Times,serif" font-size="14.00">skos:Concept</text>
</g>
<!-- http://w3id.org/oseg/ont/okh#Mass -->
<g id="node5" class="node">
<title>http://w3id.org/oseg/ont/okh#Mass</title>
<ellipse fill="none" stroke="#e377c2" cx="986.69" cy="-1300.73" rx="59.29" ry="16.03"/>
<text text-anchor="middle" x="986.69" y="-1297.03" font-family="Times,serif" font-size="14.00">okh:Mass</text>
</g>
<!-- http://w3id.org/oseg/ont/okh#Mass&#45;&gt;http://www.w3.org/2004/02/skos/core#Concept -->
<g id="edge21" class="edge">
<title>http://w3id.org/oseg/ont/okh#Mass&#45;&gt;http://www.w3.org/2004/02/skos/core#Concept</title>
<path fill="none" stroke="black" d="M987.61,-1284.4C990.97,-1225.09 1002.56,-1020.67 1006.72,-947.28"/>
<polygon fill="black" stroke="black" points="1010.23,-947.23 1007.3,-937.05 1003.24,-946.83 1010.23,-947.23"/>
<text text-anchor="middle" x="992.67" y="-1119.64" font-family="Times,serif" font-size="14.00">a</text>
</g>
<!-- http://w3id.org/oseg/ont/okhmetaPhysicalTag -->
<g id="node31" class="node">
<title>http://w3id.org/oseg/ont/okhmetaPhysicalTag</title>
<ellipse fill="none" stroke="#e377c2" cx="743.99" cy="-1416.47" rx="118.17" ry="16.03"/>
<text text-anchor="middle" x="743.99" y="-1412.77" font-family="Times,serif" font-size="14.00">okhmeta:PhysicalTag</text>
</g>
<!-- http://w3id.org/oseg/ont/okh#Mass&#45;&gt;http://w3id.org/oseg/ont/okhmetaPhysicalTag -->
<g id="edge28" class="edge">
<title>http://w3id.org/oseg/ont/okh#Mass&#45;&gt;http://w3id.org/oseg/ont/okhmetaPhysicalTag</title>
<path fill="none" stroke="black" d="M956.93,-1314.92C914.12,-1335.34 834.95,-1373.09 786.14,-1396.37"/>
<polygon fill="black" stroke="black" points="784.62,-1393.22 777.1,-1400.68 787.63,-1399.54 784.62,-1393.22"/>
<text text-anchor="middle" x="794.53" y="-1359.45" font-family="Times,serif" font-size="14.00">okhmeta:hasMetaTag</text>
</g>
<!-- http://w3id.org/oseg/ont/okhmetaTransportationTag -->
<g id="node37" class="node">
<title>http://w3id.org/oseg/ont/okhmetaTransportationTag</title>
<ellipse fill="none" stroke="#e377c2" cx="1251.3" cy="-1383.28" rx="118.17" ry="16.03"/>
<text text-anchor="middle" x="1251.3" y="-1379.58" font-family="Times,serif" font-size="14.00">okhmeta:Transport...</text>
</g>
<!-- http://w3id.org/oseg/ont/okh#Mass&#45;&gt;http://w3id.org/oseg/ont/okhmetaTransportationTag -->
<g id="edge42" class="edge">
<title>http://w3id.org/oseg/ont/okh#Mass&#45;&gt;http://w3id.org/oseg/ont/okhmetaTransportationTag</title>
<path fill="none" stroke="black" d="M1026.01,-1313C1070.29,-1326.81 1142.64,-1349.38 1193.38,-1365.21"/>
<polygon fill="black" stroke="black" points="1192.63,-1368.64 1203.22,-1368.28 1194.72,-1361.96 1192.63,-1368.64"/>
<text text-anchor="middle" x="1032.7" y="-1342.9" font-family="Times,serif" font-size="14.00">okhmeta:hasMetaTag</text>
</g>
<!-- http://w3id.org/oseg/ont/okh#ComponentReference&#45;&gt;http://w3id.org/oseg/ont/okh#Reference -->
<g id="edge12" class="edge">
<title>http://w3id.org/oseg/ont/okh#ComponentReference&#45;&gt;http://w3id.org/oseg/ont/okh#Reference</title>
<path fill="none" stroke="black" d="M852.77,-525.37C868.58,-473.22 917.9,-310.57 937.23,-246.8"/>
<polygon fill="black" stroke="black" points="940.61,-247.7 940.17,-237.11 933.92,-245.66 940.61,-247.7"/>
</g>
<!-- http://w3id.org/oseg/ont/okh#ComponentReference&#45;&gt;http://www.w3.org/2004/02/skos/core#Concept -->
<g id="edge26" class="edge">
<title>http://w3id.org/oseg/ont/okh#ComponentReference&#45;&gt;http://www.w3.org/2004/02/skos/core#Concept</title>
<path fill="none" stroke="black" d="M854.71,-558.02C879.85,-617.43 966.76,-822.81 997.42,-895.25"/>
<polygon fill="black" stroke="black" points="994.24,-896.71 1001.36,-904.56 1000.69,-893.98 994.24,-896.71"/>
<text text-anchor="middle" x="921.56" y="-730.43" font-family="Times,serif" font-size="14.00">a</text>
</g>
<!-- http://w3id.org/oseg/ont/okhmetaPartsTag -->
<g id="node8" class="node">
<title>http://w3id.org/oseg/ont/okhmetaPartsTag</title>
<ellipse fill="none" stroke="#e377c2" cx="780.45" cy="-492.7" rx="103.48" ry="16.03"/>
<text text-anchor="middle" x="780.45" y="-489" font-family="Times,serif" font-size="14.00">okhmeta:PartsTag</text>
</g>
<!-- http://w3id.org/oseg/ont/okh#ComponentReference&#45;&gt;http://w3id.org/oseg/ont/okhmetaPartsTag -->
<g id="edge2" class="edge">
<title>http://w3id.org/oseg/ont/okh#ComponentReference&#45;&gt;http://w3id.org/oseg/ont/okhmetaPartsTag</title>
<path fill="none" stroke="black" d="M825.76,-525.68C820.94,-522.17 815.76,-518.4 810.69,-514.71"/>
<polygon fill="black" stroke="black" points="812.47,-511.68 802.33,-508.62 808.35,-517.34 812.47,-511.68"/>
<text text-anchor="middle" x="895.22" y="-508.99" font-family="Times,serif" font-size="14.00">okhmeta:hasMetaTag</text>
</g>
<!-- http://schema.org/url -->
<g id="node7" class="node">
<title>http://schema.org/url</title>
<ellipse fill="none" stroke="#e377c2" cx="80.62" cy="-202.78" rx="67.35" ry="16.03"/>
<text text-anchor="middle" x="80.62" y="-199.08" font-family="Times,serif" font-size="14.00">schema:url</text>
</g>
<!-- http://w3id.org/oseg/ont/okh#Module -->
<g id="node9" class="node">
<title>http://w3id.org/oseg/ont/okh#Module</title>
<ellipse fill="none" stroke="#e377c2" cx="1072.46" cy="-540.42" rx="70.92" ry="16.03"/>
<text text-anchor="middle" x="1072.46" y="-536.72" font-family="Times,serif" font-size="14.00">okh:Module</text>
</g>
<!-- http://w3id.org/oseg/ont/okh#url -->
<g id="node10" class="node">
<title>http://w3id.org/oseg/ont/okh#url</title>
<ellipse fill="none" stroke="#e377c2" cx="47.18" cy="-353.31" rx="47.25" ry="16.03"/>
<text text-anchor="middle" x="47.18" y="-349.61" font-family="Times,serif" font-size="14.00">okh:url</text>
</g>
<!-- http://www.w3.org/2001/XMLSchema#string -->
<g id="node12" class="node">
<title>http://www.w3.org/2001/XMLSchema#string</title>
<ellipse fill="none" stroke="#e377c2" cx="824.09" cy="-2428.74" rx="62.87" ry="16.03"/>
<text text-anchor="middle" x="824.09" y="-2425.04" font-family="Times,serif" font-size="14.00">xsd:string</text>
</g>
<!-- http://w3id.org/oseg/ont/okh#value -->
<g id="node13" class="node">
<title>http://w3id.org/oseg/ont/okh#value</title>
<ellipse fill="none" stroke="#e377c2" cx="1126.12" cy="-1487.73" rx="60.21" ry="16.03"/>
<text text-anchor="middle" x="1126.12" y="-1484.03" font-family="Times,serif" font-size="14.00">okh:value</text>
</g>
<!-- http://w3id.org/oseg/ont/okh#value&#45;&gt;http://w3id.org/oseg/ont/okh#Mass -->
<g id="edge15" class="edge">
<title>http://w3id.org/oseg/ont/okh#value&#45;&gt;http://w3id.org/oseg/ont/okh#Mass</title>
<path fill="none" stroke="black" d="M1114.23,-1471.79C1089.8,-1439.02 1033.82,-1363.95 1004.83,-1325.07"/>
<polygon fill="black" stroke="black" points="1007.52,-1322.82 998.74,-1316.9 1001.91,-1327.01 1007.52,-1322.82"/>
<text text-anchor="middle" x="981.53" y="-1402.23" font-family="Times,serif" font-size="14.00">dcam:domainIncludes</text>
</g>
<!-- http://w3id.org/oseg/ont/okh#hasMass -->
<g id="node14" class="node">
<title>http://w3id.org/oseg/ont/okh#hasMass</title>
<ellipse fill="none" stroke="#e377c2" cx="1295.04" cy="-1671.89" rx="77.15" ry="16.03"/>
<text text-anchor="middle" x="1295.04" y="-1668.19" font-family="Times,serif" font-size="14.00">okh:hasMass</text>
</g>
<!-- http://w3id.org/oseg/ont/okh#value&#45;&gt;http://w3id.org/oseg/ont/okh#hasMass -->
<g id="edge8" class="edge">
<title>http://w3id.org/oseg/ont/okh#value&#45;&gt;http://w3id.org/oseg/ont/okh#hasMass</title>
<path fill="none" stroke="black" d="M1140.81,-1503.75C1170.64,-1536.26 1238.4,-1610.14 1273.33,-1648.22"/>
<polygon fill="black" stroke="black" points="1270.92,-1650.77 1280.26,-1655.77 1276.08,-1646.04 1270.92,-1650.77"/>
<text text-anchor="middle" x="1127.07" y="-1579.78" font-family="Times,serif" font-size="14.00">schema:supersededBy</text>
</g>
<!-- http://w3id.org/oseg/ont/okh#width -->
<g id="node15" class="node">
<title>http://w3id.org/oseg/ont/okh#width</title>
<ellipse fill="none" stroke="#e377c2" cx="561.15" cy="-2487.01" rx="61.54" ry="16.03"/>
<text text-anchor="middle" x="561.15" y="-2483.31" font-family="Times,serif" font-size="14.00">okh:width</text>
</g>
<!-- http://w3id.org/oseg/ont/okh#license -->
<g id="node16" class="node">
<title>http://w3id.org/oseg/ont/okh#license</title>
<ellipse fill="none" stroke="#e377c2" cx="1026.49" cy="-653.2" rx="67.76" ry="16.03"/>
<text text-anchor="middle" x="1026.49" y="-649.5" font-family="Times,serif" font-size="14.00">okh:license</text>
</g>
<!-- http://w3id.org/oseg/ont/okh#installationGuide -->
<g id="node17" class="node">
<title>http://w3id.org/oseg/ont/okh#installationGuide</title>
<ellipse fill="none" stroke="#e377c2" cx="1322.47" cy="-719.24" rx="106.55" ry="16.03"/>
<text text-anchor="middle" x="1322.47" y="-715.54" font-family="Times,serif" font-size="14.00">okh:installationG...</text>
</g>
<!-- http://w3id.org/oseg/ont/okh#installationGuide&#45;&gt;http://www.w3.org/2004/02/skos/core#Concept -->
<g id="edge13" class="edge">
<title>http://w3id.org/oseg/ont/okh#installationGuide&#45;&gt;http://www.w3.org/2004/02/skos/core#Concept</title>
<path fill="none" stroke="black" d="M1297.55,-735.22C1241.38,-771.25 1104.84,-858.82 1041.51,-899.44"/>
<polygon fill="black" stroke="black" points="1039.24,-896.73 1032.72,-905.08 1043.02,-902.62 1039.24,-896.73"/>
<text text-anchor="middle" x="1165.03" y="-821.13" font-family="Times,serif" font-size="14.00">a</text>
</g>
<!-- http://w3id.org/oseg/ont/okh#Software -->
<g id="node22" class="node">
<title>http://w3id.org/oseg/ont/okh#Software</title>
<ellipse fill="none" stroke="#e377c2" cx="1454.08" cy="-481.28" rx="78.48" ry="16.03"/>
<text text-anchor="middle" x="1454.08" y="-477.58" font-family="Times,serif" font-size="14.00">okh:Software</text>
</g>
<!-- http://w3id.org/oseg/ont/okh#installationGuide&#45;&gt;http://w3id.org/oseg/ont/okh#Software -->
<g id="edge18" class="edge">
<title>http://w3id.org/oseg/ont/okh#installationGuide&#45;&gt;http://w3id.org/oseg/ont/okh#Software</title>
<path fill="none" stroke="black" d="M1331.52,-702.88C1354.06,-662.13 1412.86,-555.82 1439.99,-506.77"/>
<polygon fill="black" stroke="black" points="1443.2,-508.2 1444.98,-497.75 1437.07,-504.81 1443.2,-508.2"/>
<text text-anchor="middle" x="1307.75" y="-608.63" font-family="Times,serif" font-size="14.00">dcam:domainIncludes</text>
</g>
<!-- http://w3id.org/oseg/ont/okh#alternativeLicense -->
<g id="node18" class="node">
<title>http://w3id.org/oseg/ont/okh#alternativeLicense</title>
<ellipse fill="none" stroke="#e377c2" cx="804.51" cy="-668.94" rx="107.46" ry="16.03"/>
<text text-anchor="middle" x="804.51" y="-665.24" font-family="Times,serif" font-size="14.00">okh:alternativeLi...</text>
</g>
<!-- http://w3id.org/oseg/ont/okh#alternativeLicense&#45;&gt;http://www.w3.org/2004/02/skos/core#Concept -->
<g id="edge22" class="edge">
<title>http://w3id.org/oseg/ont/okh#alternativeLicense&#45;&gt;http://www.w3.org/2004/02/skos/core#Concept</title>
<path fill="none" stroke="black" d="M817.88,-685.47C852.93,-728.79 947.61,-845.84 988.73,-896.68"/>
<polygon fill="black" stroke="black" points="986.07,-898.95 995.08,-904.53 991.51,-894.55 986.07,-898.95"/>
<text text-anchor="middle" x="898.8" y="-794.87" font-family="Times,serif" font-size="14.00">a</text>
</g>
<!-- http://w3id.org/oseg/ont/okh#alternativeLicense&#45;&gt;http://w3id.org/oseg/ont/okh#Module -->
<g id="edge3" class="edge">
<title>http://w3id.org/oseg/ont/okh#alternativeLicense&#45;&gt;http://w3id.org/oseg/ont/okh#Module</title>
<path fill="none" stroke="black" d="M837.1,-653.31C886.31,-629.71 979.46,-585.03 1032.63,-559.53"/>
<polygon fill="black" stroke="black" points="1034.25,-562.63 1041.75,-555.15 1031.22,-556.32 1034.25,-562.63"/>
<text text-anchor="middle" x="856.86" y="-610.22" font-family="Times,serif" font-size="14.00">dcam:domainIncludes</text>
</g>
<!-- http://w3id.org/oseg/ont/okh#alternativeLicense&#45;&gt;http://w3id.org/oseg/ont/okh#File -->
<g id="edge23" class="edge">
<title>http://w3id.org/oseg/ont/okh#alternativeLicense&#45;&gt;http://w3id.org/oseg/ont/okh#File</title>
<path fill="none" stroke="black" d="M784.01,-652.76C734.6,-613.76 608.93,-514.56 553.11,-470.5"/>
<polygon fill="black" stroke="black" points="555.1,-467.61 545.08,-464.17 550.76,-473.11 555.1,-467.61"/>
<text text-anchor="middle" x="596.06" y="-565.43" font-family="Times,serif" font-size="14.00">dcam:rangeIncludes</text>
</g>
<!-- http://w3id.org/oseg/ont/okh#alternativeLicense&#45;&gt;http://w3id.org/oseg/ont/okh#license -->
<g id="edge35" class="edge">
<title>http://w3id.org/oseg/ont/okh#alternativeLicense&#45;&gt;http://w3id.org/oseg/ont/okh#license</title>
<path fill="none" stroke="black" d="M901.87,-662.04C918.31,-660.87 935.15,-659.68 950.93,-658.56"/>
<polygon fill="black" stroke="black" points="951.4,-662.03 961.12,-657.84 950.9,-655.05 951.4,-662.03"/>
<text text-anchor="middle" x="1006.4" y="-664.1" font-family="Times,serif" font-size="14.00">schema:supersededBy</text>
</g>
<!-- http://schema.org/license -->
<g id="node25" class="node">
<title>http://schema.org/license</title>
<ellipse fill="none" stroke="#e377c2" cx="1117.58" cy="-725.11" rx="88.28" ry="16.03"/>
<text text-anchor="middle" x="1117.58" y="-721.41" font-family="Times,serif" font-size="14.00">schema:license</text>
</g>
<!-- http://w3id.org/oseg/ont/okh#alternativeLicense&#45;&gt;http://schema.org/license -->
<g id="edge19" class="edge">
<title>http://w3id.org/oseg/ont/okh#alternativeLicense&#45;&gt;http://schema.org/license</title>
<path fill="none" stroke="black" d="M873.99,-681.41C924.49,-690.47 992.7,-702.7 1044.1,-711.93"/>
<polygon fill="black" stroke="black" points="1043.69,-715.41 1054.15,-713.73 1044.93,-708.52 1043.69,-715.41"/>
<text text-anchor="middle" x="1018.05" y="-685.47" font-family="Times,serif" font-size="14.00">skos:closeMatch</text>
</g>
<!-- http://w3id.org/oseg/ont/okhmetaLegalTag -->
<g id="node33" class="node">
<title>http://w3id.org/oseg/ont/okhmetaLegalTag</title>
<ellipse fill="none" stroke="#e377c2" cx="859.53" cy="-722.17" rx="103.89" ry="16.03"/>
<text text-anchor="middle" x="859.53" y="-718.47" font-family="Times,serif" font-size="14.00">okhmeta:LegalTag</text>
</g>
<!-- http://w3id.org/oseg/ont/okh#alternativeLicense&#45;&gt;http://w3id.org/oseg/ont/okhmetaLegalTag -->
<g id="edge30" class="edge">
<title>http://w3id.org/oseg/ont/okh#alternativeLicense&#45;&gt;http://w3id.org/oseg/ont/okhmetaLegalTag</title>
<path fill="none" stroke="black" d="M821.32,-685.2C825.8,-689.53 830.73,-694.3 835.51,-698.93"/>
<polygon fill="black" stroke="black" points="833.21,-701.57 842.83,-706.01 838.07,-696.54 833.21,-701.57"/>
<text text-anchor="middle" x="751.41" y="-695.86" font-family="Times,serif" font-size="14.00">okhmeta:hasMetaTag</text>
</g>
<!-- http://w3id.org/oseg/ont/okh#Dimensions -->
<g id="node19" class="node">
<title>http://w3id.org/oseg/ont/okh#Dimensions</title>
<ellipse fill="none" stroke="#e377c2" cx="776.63" cy="-1898.05" rx="91.85" ry="16.03"/>
<text text-anchor="middle" x="776.63" y="-1894.35" font-family="Times,serif" font-size="14.00">okh:Dimensions</text>
</g>
<!-- http://w3id.org/oseg/ont/okh#okhvOrig -->
<g id="node20" class="node">
<title>http://w3id.org/oseg/ont/okh#okhvOrig</title>
<ellipse fill="none" stroke="#e377c2" cx="1369.69" cy="-1048.08" rx="79.39" ry="16.03"/>
<text text-anchor="middle" x="1369.69" y="-1044.38" font-family="Times,serif" font-size="14.00">okh:okhvOrig</text>
</g>
<!-- http://w3id.org/oseg/ont/okh#openSCAD -->
<g id="node21" class="node">
<title>http://w3id.org/oseg/ont/okh#openSCAD</title>
<ellipse fill="none" stroke="#e377c2" cx="658.15" cy="-2241.81" rx="86.03" ry="16.03"/>
<text text-anchor="middle" x="658.15" y="-2238.11" font-family="Times,serif" font-size="14.00">okh:openSCAD</text>
</g>
<!-- http://w3id.org/oseg/ont/okh#openSCAD&#45;&gt;http://www.w3.org/2001/XMLSchema#string -->
<g id="edge7" class="edge">
<title>http://w3id.org/oseg/ont/okh#openSCAD&#45;&gt;http://www.w3.org/2001/XMLSchema#string</title>
<path fill="none" stroke="black" d="M672.58,-2258.07C701.96,-2291.16 768.79,-2366.44 803.02,-2405"/>
<polygon fill="black" stroke="black" points="800.55,-2407.49 809.81,-2412.65 805.79,-2402.84 800.55,-2407.49"/>
<text text-anchor="middle" x="665.3" y="-2335.33" font-family="Times,serif" font-size="14.00">dcam:rangeIncludes</text>
</g>
<!-- http://w3id.org/oseg/ont/okh#openSCAD&#45;&gt;http://w3id.org/oseg/ont/okh#width -->
<g id="edge9" class="edge">
<title>http://w3id.org/oseg/ont/okh#openSCAD&#45;&gt;http://w3id.org/oseg/ont/okh#width</title>
<path fill="none" stroke="black" d="M651.63,-2258.27C635.1,-2300.07 591.42,-2410.49 571.42,-2461.06"/>
<polygon fill="black" stroke="black" points="568.06,-2460.03 567.64,-2470.62 574.57,-2462.6 568.06,-2460.03"/>
<text text-anchor="middle" x="531.52" y="-2363.47" font-family="Times,serif" font-size="14.00">schema:supersededBy</text>
</g>
<!-- http://w3id.org/oseg/ont/okh#openSCAD&#45;&gt;http://w3id.org/oseg/ont/okh#Dimensions -->
<g id="edge40" class="edge">
<title>http://w3id.org/oseg/ont/okh#openSCAD&#45;&gt;http://w3id.org/oseg/ont/okh#Dimensions</title>
<path fill="none" stroke="black" d="M663.86,-2225.23C682.9,-2169.97 744.31,-1991.82 767.58,-1924.31"/>
<polygon fill="black" stroke="black" points="771.02,-1925.05 770.97,-1914.46 764.4,-1922.77 771.02,-1925.05"/>
<text text-anchor="middle" x="637.72" y="-2078.57" font-family="Times,serif" font-size="14.00">dcam:domainIncludes</text>
</g>
<!-- http://w3id.org/oseg/ont/okh#depth -->
<g id="node29" class="node">
<title>http://w3id.org/oseg/ont/okh#depth</title>
<ellipse fill="none" stroke="#e377c2" cx="461.99" cy="-2417.05" rx="62.45" ry="16.03"/>
<text text-anchor="middle" x="461.99" y="-2413.35" font-family="Times,serif" font-size="14.00">okh:depth</text>
</g>
<!-- http://w3id.org/oseg/ont/okh#openSCAD&#45;&gt;http://w3id.org/oseg/ont/okh#depth -->
<g id="edge25" class="edge">
<title>http://w3id.org/oseg/ont/okh#openSCAD&#45;&gt;http://w3id.org/oseg/ont/okh#depth</title>
<path fill="none" stroke="black" d="M640.04,-2257.98C604.83,-2289.44 527.07,-2358.91 486.98,-2394.73"/>
<polygon fill="black" stroke="black" points="484.61,-2392.15 479.49,-2401.42 489.28,-2397.37 484.61,-2392.15"/>
<text text-anchor="middle" x="483.51" y="-2330.15" font-family="Times,serif" font-size="14.00">schema:supersededBy</text>
</g>
<!-- http://w3id.org/oseg/ont/okh#height -->
<g id="node38" class="node">
<title>http://w3id.org/oseg/ont/okh#height</title>
<ellipse fill="none" stroke="#e377c2" cx="408.3" cy="-2287.44" rx="65.11" ry="16.03"/>
<text text-anchor="middle" x="408.3" y="-2283.74" font-family="Times,serif" font-size="14.00">okh:height</text>
</g>
<!-- http://w3id.org/oseg/ont/okh#openSCAD&#45;&gt;http://w3id.org/oseg/ont/okh#height -->
<g id="edge43" class="edge">
<title>http://w3id.org/oseg/ont/okh#openSCAD&#45;&gt;http://w3id.org/oseg/ont/okh#height</title>
<path fill="none" stroke="black" d="M596.06,-2253.15C557.99,-2260.1 509.38,-2268.98 471.16,-2275.96"/>
<polygon fill="black" stroke="black" points="470.39,-2272.54 461.18,-2277.78 471.65,-2279.43 470.39,-2272.54"/>
<text text-anchor="middle" x="453.61" y="-2253.35" font-family="Times,serif" font-size="14.00">schema:supersededBy</text>
</g>
<!-- http://w3id.org/oseg/ont/okh#permaURL -->
<g id="node23" class="node">
<title>http://w3id.org/oseg/ont/okh#permaURL</title>
<ellipse fill="none" stroke="#e377c2" cx="389.59" cy="-253.47" rx="87.86" ry="16.03"/>
<text text-anchor="middle" x="389.59" y="-249.77" font-family="Times,serif" font-size="14.00">okh:permaURL</text>
</g>
<!-- http://w3id.org/oseg/ont/okh#permaURL&#45;&gt;http://w3id.org/oseg/ont/okh#File -->
<g id="edge33" class="edge">
<title>http://w3id.org/oseg/ont/okh#permaURL&#45;&gt;http://w3id.org/oseg/ont/okh#File</title>
<path fill="none" stroke="black" d="M400.96,-269.79C424.88,-304.14 480.53,-384.04 508.7,-424.47"/>
<polygon fill="black" stroke="black" points="505.84,-426.5 514.43,-432.7 511.58,-422.5 505.84,-426.5"/>
<text text-anchor="middle" x="376.83" y="-335.93" font-family="Times,serif" font-size="14.00">dcam:domainIncludes</text>
</g>
<!-- http://w3id.org/oseg/ont/okh#relatedTsdc -->
<g id="node24" class="node">
<title>http://w3id.org/oseg/ont/okh#relatedTsdc</title>
<ellipse fill="none" stroke="#e377c2" cx="607.61" cy="-1201.33" rx="91.85" ry="16.03"/>
<text text-anchor="middle" x="607.61" y="-1197.63" font-family="Times,serif" font-size="14.00">okh:relatedTsdc</text>
</g>
<!-- http://w3id.org/oseg/ont/okh#tsdc -->
<g id="node34" class="node">
<title>http://w3id.org/oseg/ont/okh#tsdc</title>
<ellipse fill="none" stroke="#e377c2" cx="766.66" cy="-1177.56" rx="54.39" ry="16.03"/>
<text text-anchor="middle" x="766.66" y="-1173.86" font-family="Times,serif" font-size="14.00">okh:tsdc</text>
</g>
<!-- http://w3id.org/oseg/ont/okh#relatedTsdc&#45;&gt;http://w3id.org/oseg/ont/okh#tsdc -->
<g id="edge31" class="edge">
<title>http://w3id.org/oseg/ont/okh#relatedTsdc&#45;&gt;http://w3id.org/oseg/ont/okh#tsdc</title>
<path fill="none" stroke="black" d="M693.25,-1195.34C701.91,-1194.01 710.46,-1192.58 718.51,-1191.12"/>
<polygon fill="black" stroke="black" points="719.22,-1194.54 728.39,-1189.25 717.92,-1187.67 719.22,-1194.54"/>
<text text-anchor="middle" x="785.88" y="-1197.03" font-family="Times,serif" font-size="14.00">schema:supersededBy</text>
</g>
<!-- http://w3id.org/oseg/ont/okh#relatedTsdc&#45;&gt;http://w3id.org/oseg/ont/okh#tsdc -->
<g id="edge44" class="edge">
<title>http://w3id.org/oseg/ont/okh#relatedTsdc&#45;&gt;http://w3id.org/oseg/ont/okh#tsdc</title>
<path fill="none" stroke="black" d="M657,-1187.55C671.28,-1184.98 687.08,-1182.52 702.14,-1180.5"/>
<polygon fill="black" stroke="black" points="702.95,-1183.93 712.42,-1179.18 702.06,-1176.98 702.95,-1183.93"/>
<text text-anchor="middle" x="637.07" y="-1172.83" font-family="Times,serif" font-size="14.00">owl:sameAs</text>
</g>
<!-- http://w3id.org/oseg/ont/okh#spdxLicense -->
<g id="node26" class="node">
<title>http://w3id.org/oseg/ont/okh#spdxLicense</title>
<ellipse fill="none" stroke="#e377c2" cx="1174.97" cy="-769.37" rx="94.51" ry="16.03"/>
<text text-anchor="middle" x="1174.97" y="-765.67" font-family="Times,serif" font-size="14.00">okh:spdxLicense</text>
</g>
<!-- http://w3id.org/oseg/ont/okh#spdxLicense&#45;&gt;http://www.w3.org/2004/02/skos/core#Concept -->
<g id="edge32" class="edge">
<title>http://w3id.org/oseg/ont/okh#spdxLicense&#45;&gt;http://www.w3.org/2004/02/skos/core#Concept</title>
<path fill="none" stroke="black" d="M1157.12,-785.58C1127.33,-812.63 1067.39,-867.06 1033.35,-897.97"/>
<polygon fill="black" stroke="black" points="1030.74,-895.61 1025.69,-904.92 1035.45,-900.79 1030.74,-895.61"/>
<text text-anchor="middle" x="1090.74" y="-845.57" font-family="Times,serif" font-size="14.00">a</text>
</g>
<!-- http://w3id.org/oseg/ont/okh#spdxLicense&#45;&gt;http://w3id.org/oseg/ont/okh#Module -->
<g id="edge20" class="edge">
<title>http://w3id.org/oseg/ont/okh#spdxLicense&#45;&gt;http://w3id.org/oseg/ont/okh#Module</title>
<path fill="none" stroke="black" d="M1167.6,-752.91C1149.94,-713.47 1105.12,-613.37 1083.92,-566"/>
<polygon fill="black" stroke="black" points="1087.05,-564.44 1079.77,-556.74 1080.66,-567.3 1087.05,-564.44"/>
<text text-anchor="middle" x="1203.76" y="-663.26" font-family="Times,serif" font-size="14.00">dcam:domainIncludes</text>
</g>
<!-- http://w3id.org/oseg/ont/okh#spdxLicense&#45;&gt;http://w3id.org/oseg/ont/okh#license -->
<g id="edge11" class="edge">
<title>http://w3id.org/oseg/ont/okh#spdxLicense&#45;&gt;http://w3id.org/oseg/ont/okh#license</title>
<path fill="none" stroke="black" d="M1154.63,-753.46C1128.76,-733.22 1083.92,-698.13 1054.73,-675.3"/>
<polygon fill="black" stroke="black" points="1056.61,-672.32 1046.58,-668.92 1052.3,-677.84 1056.61,-672.32"/>
<text text-anchor="middle" x="1064.68" y="-703.18" font-family="Times,serif" font-size="14.00">schema:supersededBy</text>
</g>
<!-- http://w3id.org/oseg/ont/okh#spdxLicense&#45;&gt;http://schema.org/license -->
<g id="edge41" class="edge">
<title>http://w3id.org/oseg/ont/okh#spdxLicense&#45;&gt;http://schema.org/license</title>
<path fill="none" stroke="black" d="M1154.25,-753.39C1151.84,-751.54 1149.35,-749.62 1146.86,-747.69"/>
<polygon fill="black" stroke="black" points="1148.52,-744.55 1138.46,-741.21 1144.24,-750.09 1148.52,-744.55"/>
<text text-anchor="middle" x="1209.55" y="-739.34" font-family="Times,serif" font-size="14.00">skos:closeMatch</text>
</g>
<!-- http://spdx.org/rdf/terms#ListedLicense -->
<g id="node28" class="node">
<title>http://spdx.org/rdf/terms#ListedLicense</title>
<ellipse fill="none" stroke="#e377c2" cx="1538.07" cy="-768.42" rx="108.38" ry="16.03"/>
<text text-anchor="middle" x="1538.07" y="-764.72" font-family="Times,serif" font-size="14.00">spdx:ListedLicense</text>
</g>
<!-- http://w3id.org/oseg/ont/okh#spdxLicense&#45;&gt;http://spdx.org/rdf/terms#ListedLicense -->
<g id="edge24" class="edge">
<title>http://w3id.org/oseg/ont/okh#spdxLicense&#45;&gt;http://spdx.org/rdf/terms#ListedLicense</title>
<path fill="none" stroke="black" d="M1269.89,-769.12C1315.6,-769 1370.88,-768.86 1419.34,-768.73"/>
<polygon fill="black" stroke="black" points="1419.58,-772.23 1429.57,-768.7 1419.56,-765.23 1419.58,-772.23"/>
<text text-anchor="middle" x="1344.62" y="-757.73" font-family="Times,serif" font-size="14.00">dcam:rangeIncludes</text>
</g>
<!-- http://w3id.org/oseg/ont/okh#spdxLicense&#45;&gt;http://w3id.org/oseg/ont/okhmetaLegalTag -->
<g id="edge39" class="edge">
<title>http://w3id.org/oseg/ont/okh#spdxLicense&#45;&gt;http://w3id.org/oseg/ont/okhmetaLegalTag</title>
<path fill="none" stroke="black" d="M1103.39,-758.66C1056.29,-751.61 994.39,-742.35 944.75,-734.92"/>
<polygon fill="black" stroke="black" points="945.08,-731.43 934.67,-733.41 944.04,-738.35 945.08,-731.43"/>
<text text-anchor="middle" x="947.07" y="-750.59" font-family="Times,serif" font-size="14.00">okhmeta:hasMetaTag</text>
</g>
<!-- http://w3id.org/oseg/ont/okh#fileUrl -->
<g id="node27" class="node">
<title>http://w3id.org/oseg/ont/okh#fileUrl</title>
<ellipse fill="none" stroke="#e377c2" cx="274.91" cy="-365.89" rx="65.11" ry="16.03"/>
<text text-anchor="middle" x="274.91" y="-362.19" font-family="Times,serif" font-size="14.00">okh:fileUrl</text>
</g>
<!-- http://w3id.org/oseg/ont/okh#fileUrl&#45;&gt;http://schema.org/url -->
<g id="edge1" class="edge">
<title>http://w3id.org/oseg/ont/okh#fileUrl&#45;&gt;http://schema.org/url</title>
<path fill="none" stroke="black" d="M256.28,-350.25C221.63,-321.16 147.16,-258.64 107.22,-225.11"/>
<polygon fill="black" stroke="black" points="109.39,-222.36 99.48,-218.61 104.89,-227.72 109.39,-222.36"/>
<text text-anchor="middle" x="128.75" y="-291.48" font-family="Times,serif" font-size="14.00">subPropertyOf</text>
</g>
<!-- http://w3id.org/oseg/ont/okh#fileUrl&#45;&gt;http://w3id.org/oseg/ont/okh#url -->
<g id="edge4" class="edge">
<title>http://w3id.org/oseg/ont/okh#fileUrl&#45;&gt;http://w3id.org/oseg/ont/okh#url</title>
<path fill="none" stroke="black" d="M211.17,-362.37C177.69,-360.52 136.98,-358.27 104.5,-356.48"/>
<polygon fill="black" stroke="black" points="104.44,-352.97 94.26,-355.91 104.05,-359.96 104.44,-352.97"/>
<text text-anchor="middle" x="157.84" y="-348.23" font-family="Times,serif" font-size="14.00">schema:supersededBy</text>
</g>
<!-- http://w3id.org/oseg/ont/okh#fileUrl&#45;&gt;http://w3id.org/oseg/ont/okh#File -->
<g id="edge10" class="edge">
<title>http://w3id.org/oseg/ont/okh#fileUrl&#45;&gt;http://w3id.org/oseg/ont/okh#File</title>
<path fill="none" stroke="black" d="M314.37,-378.94C359.31,-393.81 432.62,-418.06 480,-433.73"/>
<polygon fill="black" stroke="black" points="479.1,-437.12 489.69,-436.94 481.3,-430.48 479.1,-437.12"/>
<text text-anchor="middle" x="319.18" y="-410.14" font-family="Times,serif" font-size="14.00">dcam:domainIncludes</text>
</g>
<!-- http://w3id.org/oseg/ont/okh#openScad -->
<g id="node30" class="node">
<title>http://w3id.org/oseg/ont/okh#openScad</title>
<ellipse fill="none" stroke="#e377c2" cx="715.2" cy="-2524.69" rx="82.05" ry="16.03"/>
<text text-anchor="middle" x="715.2" y="-2520.99" font-family="Times,serif" font-size="14.00">okh:openScad</text>
</g>
<!-- http://w3id.org/oseg/ont/okh#openScad&#45;&gt;http://w3id.org/oseg/ont/okh#openSCAD -->
<g id="edge17" class="edge">
<title>http://w3id.org/oseg/ont/okh#openScad&#45;&gt;http://w3id.org/oseg/ont/okh#openSCAD</title>
<path fill="none" stroke="black" d="M715.29,-2508.42C710.19,-2461.45 683.03,-2325.34 667.65,-2267.88"/>
<polygon fill="black" stroke="black" points="670.98,-2266.8 664.93,-2258.11 664.24,-2268.68 670.98,-2266.8"/>
<text text-anchor="middle" x="771.47" y="-2391.95" font-family="Times,serif" font-size="14.00">schema:supersededBy</text>
</g>
<!-- http://w3id.org/oseg/ont/okh#openScad&#45;&gt;http://w3id.org/oseg/ont/okh#openSCAD -->
<g id="edge38" class="edge">
<title>http://w3id.org/oseg/ont/okh#openScad&#45;&gt;http://w3id.org/oseg/ont/okh#openSCAD</title>
<path fill="none" stroke="black" d="M708.34,-2508.1C694.56,-2460.92 667.07,-2325.72 659.31,-2268.2"/>
<polygon fill="black" stroke="black" points="662.76,-2267.59 658.06,-2258.1 655.81,-2268.45 662.76,-2267.59"/>
<text text-anchor="middle" x="641.32" y="-2391.95" font-family="Times,serif" font-size="14.00">owl:sameAs</text>
</g>
<!-- http://w3id.org/oseg/ont/okh#okhv -->
<g id="node32" class="node">
<title>http://w3id.org/oseg/ont/okh#okhv</title>
<ellipse fill="none" stroke="#e377c2" cx="1583.09" cy="-1172.26" rx="56.64" ry="16.03"/>
<text text-anchor="middle" x="1583.09" y="-1168.56" font-family="Times,serif" font-size="14.00">okh:okhv</text>
</g>
<!-- http://w3id.org/oseg/ont/okh#okhvStored -->
<g id="node35" class="node">
<title>http://w3id.org/oseg/ont/okh#okhvStored</title>
<ellipse fill="none" stroke="#e377c2" cx="1756.69" cy="-1174.72" rx="90.52" ry="16.03"/>
<text text-anchor="middle" x="1756.69" y="-1171.02" font-family="Times,serif" font-size="14.00">okh:okhvStored</text>
</g>
<!-- http://w3id.org/oseg/ont/okh#unit -->
<g id="node36" class="node">
<title>http://w3id.org/oseg/ont/okh#unit</title>
<ellipse fill="none" stroke="#e377c2" cx="889.41" cy="-1572.86" rx="53.07" ry="16.03"/>
<text text-anchor="middle" x="889.41" y="-1569.16" font-family="Times,serif" font-size="14.00">okh:unit</text>
</g>
<!-- http://w3id.org/oseg/ont/okh#unit&#45;&gt;http://w3id.org/oseg/ont/okh#Mass -->
<g id="edge36" class="edge">
<title>http://w3id.org/oseg/ont/okh#unit&#45;&gt;http://w3id.org/oseg/ont/okh#Mass</title>
<path fill="none" stroke="black" d="M895.2,-1556.65C911.45,-1511.19 957.56,-1382.2 977.41,-1326.67"/>
<polygon fill="black" stroke="black" points="980.73,-1327.79 980.8,-1317.2 974.14,-1325.44 980.73,-1327.79"/>
<text text-anchor="middle" x="858.31" y="-1445.46" font-family="Times,serif" font-size="14.00">dcam:domainIncludes</text>
</g>
<!-- http://w3id.org/oseg/ont/okh#unit&#45;&gt;http://w3id.org/oseg/ont/okh#Dimensions -->
<g id="edge14" class="edge">
<title>http://w3id.org/oseg/ont/okh#unit&#45;&gt;http://w3id.org/oseg/ont/okh#Dimensions</title>
<path fill="none" stroke="black" d="M883.66,-1589.43C865.34,-1642.27 808.18,-1807.08 785.77,-1871.68"/>
<polygon fill="black" stroke="black" points="782.33,-1870.91 782.36,-1881.51 788.95,-1873.2 782.33,-1870.91"/>
<text text-anchor="middle" x="756.72" y="-1734.36" font-family="Times,serif" font-size="14.00">dcam:domainIncludes</text>
</g>
<!-- http://w3id.org/oseg/ont/okh#okhvOriginal -->
<g id="node39" class="node">
<title>http://w3id.org/oseg/ont/okh#okhvOriginal</title>
<ellipse fill="none" stroke="#e377c2" cx="1555.5" cy="-1212.91" rx="97.66" ry="16.03"/>
<text text-anchor="middle" x="1555.5" y="-1209.21" font-family="Times,serif" font-size="14.00">okh:okhvOriginal</text>
</g>
<!-- http://w3id.org/oseg/ont/okh#okhvOriginal&#45;&gt;http://w3id.org/oseg/ont/okh#okhv -->
<g id="edge29" class="edge">
<title>http://w3id.org/oseg/ont/okh#okhvOriginal&#45;&gt;http://w3id.org/oseg/ont/okh#okhv</title>
<path fill="none" stroke="black" d="M1566.72,-1196.38C1566.84,-1196.21 1566.95,-1196.05 1567.06,-1195.88"/>
<polygon fill="black" stroke="black" points="1569.43,-1198.62 1572.15,-1188.38 1563.64,-1194.69 1569.43,-1198.62"/>
<text text-anchor="middle" x="1513.89" y="-1184.93" font-family="Times,serif" font-size="14.00">subPropertyOf</text>
</g>
<!-- http://w3id.org/oseg/ont/okh#okhvOriginal&#45;&gt;http://w3id.org/oseg/ont/okh#okhvStored -->
<g id="edge37" class="edge">
<title>http://w3id.org/oseg/ont/okh#okhvOriginal&#45;&gt;http://w3id.org/oseg/ont/okh#okhvStored</title>
<path fill="none" stroke="black" d="M1619.99,-1200.67C1640.53,-1196.77 1663.38,-1192.43 1684.43,-1188.44"/>
<polygon fill="black" stroke="black" points="1685.11,-1191.87 1694.28,-1186.57 1683.81,-1184.99 1685.11,-1191.87"/>
<text text-anchor="middle" x="1679.71" y="-1198.35" font-family="Times,serif" font-size="14.00">seeAlso</text>
</g>
<!-- http://w3id.org/oseg/ont/okh#okhvPresent -->
<g id="node40" class="node">
<title>http://w3id.org/oseg/ont/okh#okhvPresent</title>
<ellipse fill="none" stroke="#e377c2" cx="1568.37" cy="-1127.4" rx="96.33" ry="16.03"/>
<text text-anchor="middle" x="1568.37" y="-1123.7" font-family="Times,serif" font-size="14.00">okh:okhvPresent</text>
</g>
<!-- http://w3id.org/oseg/ont/okh#okhvPresent&#45;&gt;http://w3id.org/oseg/ont/okh#okhvOrig -->
<g id="edge16" class="edge">
<title>http://w3id.org/oseg/ont/okh#okhvPresent&#45;&gt;http://w3id.org/oseg/ont/okh#okhvOrig</title>
<path fill="none" stroke="black" d="M1530.53,-1112.3C1497.8,-1099.23 1450.4,-1080.3 1415.53,-1066.38"/>
<polygon fill="black" stroke="black" points="1416.63,-1063.05 1406.05,-1062.59 1414.03,-1069.55 1416.63,-1063.05"/>
<text text-anchor="middle" x="1445.53" y="-1093.14" font-family="Times,serif" font-size="14.00">seeAlso</text>
</g>
<!-- http://w3id.org/oseg/ont/okh#okhvPresent&#45;&gt;http://w3id.org/oseg/ont/okh#okhv -->
<g id="edge34" class="edge">
<title>http://w3id.org/oseg/ont/okh#okhvPresent&#45;&gt;http://w3id.org/oseg/ont/okh#okhv</title>
<path fill="none" stroke="black" d="M1573.77,-1143.85C1574.01,-1144.58 1574.25,-1145.32 1574.49,-1146.07"/>
<polygon fill="black" stroke="black" points="1571.25,-1147.41 1577.69,-1155.81 1577.9,-1145.22 1571.25,-1147.41"/>
<text text-anchor="middle" x="1521.13" y="-1148.76" font-family="Times,serif" font-size="14.00">subPropertyOf</text>
</g>
</g>
</svg>
