<?xml version="1.0" encoding="UTF-8" standalone="no"?>
<!DOCTYPE svg PUBLIC "-//W3C//DTD SVG 1.1//EN"
 "http://www.w3.org/Graphics/SVG/1.1/DTD/svg11.dtd">
<!-- Generated by graphviz version 2.43.0 (0)
 -->
<!-- Title: G Pages: 1 -->
<svg width="1096pt" height="1657pt"
 viewBox="0.00 0.00 1095.94 1656.93" xmlns="http://www.w3.org/2000/svg" xmlns:xlink="http://www.w3.org/1999/xlink">
<g id="graph0" class="graph" transform="scale(1 1) rotate(0) translate(4 1652.93)">
<title>G</title>
<polygon fill="white" stroke="transparent" points="-4,4 -4,-1652.93 1091.94,-1652.93 1091.94,4 -4,4"/>
<!-- http://www.w3.org/2004/02/skos/core#Concept -->
<g id="node1" class="node">
<title>http://www.w3.org/2004/02/skos/core#Concept</title>
<ellipse fill="none" stroke="#1f77b4" cx="978.33" cy="-1230.67" rx="78.48" ry="16.03"/>
<text text-anchor="middle" x="978.33" y="-1226.97" font-family="Times,serif" font-size="14.00">skos:Concept</text>
</g>
<!-- http://www.w3.org/2002/07/owl#Ontology -->
<g id="node2" class="node">
<title>http://www.w3.org/2002/07/owl#Ontology</title>
<ellipse fill="none" stroke="#1f77b4" cx="558.52" cy="-1632.67" rx="77.56" ry="16.03"/>
<text text-anchor="middle" x="558.52" y="-1628.97" font-family="Times,serif" font-size="14.00">owl:Ontology</text>
</g>
<!-- http://www.w3.org/2004/02/skos/core#Collection -->
<g id="node3" class="node">
<title>http://www.w3.org/2004/02/skos/core#Collection</title>
<ellipse fill="none" stroke="#e377c2" cx="978.33" cy="-661.67" rx="87.86" ry="16.03"/>
<text text-anchor="middle" x="978.33" y="-657.97" font-family="Times,serif" font-size="14.00">skos:Collection</text>
</g>
<!-- http://www.w3.org/2002/07/owl#ObjectProperty -->
<g id="node4" class="node">
<title>http://www.w3.org/2002/07/owl#ObjectProperty</title>
<ellipse fill="none" stroke="#1f77b4" cx="978.33" cy="-1313.67" rx="109.7" ry="16.03"/>
<text text-anchor="middle" x="978.33" y="-1309.97" font-family="Times,serif" font-size="14.00">owl:ObjectProperty</text>
</g>
<!-- http://spdx.org/rdf/terms#SpdxItem -->
<g id="node5" class="node">
<title>http://spdx.org/rdf/terms#SpdxItem</title>
<ellipse fill="none" stroke="#1f77b4" cx="558.52" cy="-1581.67" rx="87.86" ry="16.03"/>
<text text-anchor="middle" x="558.52" y="-1577.97" font-family="Times,serif" font-size="14.00">spdx:SpdxItem</text>
</g>
<!-- http://w3id.org/oseg/ont/okhmeta#Tag -->
<g id="node6" class="node">
<title>http://w3id.org/oseg/ont/okhmeta#Tag</title>
<ellipse fill="none" stroke="#e377c2" cx="558.52" cy="-661.67" rx="76.24" ry="16.03"/>
<text text-anchor="middle" x="558.52" y="-657.97" font-family="Times,serif" font-size="14.00">okhmeta:Tag</text>
</g>
<!-- http://w3id.org/oseg/ont/okhmeta#Tag&#45;&gt;http://www.w3.org/2004/02/skos/core#Concept -->
<g id="edge34" class="edge">
<title>http://w3id.org/oseg/ont/okhmeta#Tag&#45;&gt;http://www.w3.org/2004/02/skos/core#Concept</title>
<path fill="none" stroke="black" d="M588.38,-676.72C617.06,-693.43 659.46,-723.33 678.73,-762.67 699.04,-804.12 665.42,-1143.77 696.73,-1177.67 720.13,-1203 816.89,-1190.07 850.73,-1196.67 874.96,-1201.39 901.38,-1208.22 923.79,-1214.51"/>
<polygon fill="black" stroke="black" points="922.87,-1217.89 933.45,-1217.27 924.79,-1211.16 922.87,-1217.89"/>
<text text-anchor="middle" x="773.73" y="-1200.47" font-family="Times,serif" font-size="14.00">a</text>
</g>
<!-- http://w3id.org/oseg/ont/okhmeta#Tag&#45;&gt;http://www.w3.org/2004/02/skos/core#Collection -->
<g id="edge18" class="edge">
<title>http://w3id.org/oseg/ont/okhmeta#Tag&#45;&gt;http://www.w3.org/2004/02/skos/core#Collection</title>
<path fill="none" stroke="black" d="M635.19,-661.67C703.8,-661.67 805.33,-661.67 879.97,-661.67"/>
<polygon fill="black" stroke="black" points="880.32,-665.17 890.32,-661.67 880.32,-658.17 880.32,-665.17"/>
</g>
<!-- http://w3id.org/oseg/ont/okhmeta#MetaTag -->
<g id="node7" class="node">
<title>http://w3id.org/oseg/ont/okhmeta#MetaTag</title>
<ellipse fill="none" stroke="#e377c2" cx="978.33" cy="-784.67" rx="102.56" ry="16.03"/>
<text text-anchor="middle" x="978.33" y="-780.97" font-family="Times,serif" font-size="14.00">okhmeta:MetaTag</text>
</g>
<!-- http://w3id.org/oseg/ont/okhmeta#Tag&#45;&gt;http://w3id.org/oseg/ont/okhmeta#MetaTag -->
<g id="edge38" class="edge">
<title>http://w3id.org/oseg/ont/okhmeta#Tag&#45;&gt;http://w3id.org/oseg/ont/okhmeta#MetaTag</title>
<path fill="none" stroke="black" d="M626.42,-669.19C699.24,-677.91 810.67,-692.98 850.73,-707.67 886.81,-720.9 923.89,-744.91 948.52,-762.62"/>
<polygon fill="black" stroke="black" points="946.55,-765.51 956.69,-768.59 950.68,-759.86 946.55,-765.51"/>
<text text-anchor="middle" x="773.73" y="-711.47" font-family="Times,serif" font-size="14.00">okhmeta:hasMetaTag</text>
</g>
<!-- http://w3id.org/oseg/ont/okhmeta#MetaTag&#45;&gt;http://w3id.org/oseg/ont/okhmeta#Tag -->
<g id="edge43" class="edge">
<title>http://w3id.org/oseg/ont/okhmeta#MetaTag&#45;&gt;http://w3id.org/oseg/ont/okhmeta#Tag</title>
<path fill="none" stroke="black" d="M919.71,-771.29C898.09,-766.32 873.3,-760.67 850.73,-755.67 782.39,-740.52 763.29,-744.34 696.73,-722.67 662.25,-711.45 624.73,-694.41 597.66,-681.19"/>
<polygon fill="black" stroke="black" points="599.05,-677.98 588.54,-676.69 595.96,-684.26 599.05,-677.98"/>
<text text-anchor="middle" x="773.73" y="-759.47" font-family="Times,serif" font-size="14.00">a</text>
</g>
<!-- http://w3id.org/oseg/ont/okhmeta#MetaTag&#45;&gt;http://w3id.org/oseg/ont/okhmeta#MetaTag -->
<g id="edge11" class="edge">
<title>http://w3id.org/oseg/ont/okhmeta#MetaTag&#45;&gt;http://w3id.org/oseg/ont/okhmeta#MetaTag</title>
<path fill="none" stroke="black" d="M942.78,-800.18C934.21,-809.79 946.06,-818.93 978.33,-818.93 998.5,-818.93 1010.7,-815.36 1014.91,-810.34"/>
<polygon fill="black" stroke="black" points="1018.37,-809.77 1013.88,-800.18 1011.41,-810.48 1018.37,-809.77"/>
<text text-anchor="middle" x="978.33" y="-822.73" font-family="Times,serif" font-size="14.00">okhmeta:hasMetaTag</text>
</g>
<!-- http://w3id.org/oseg/ont/okhmeta#LegalTag -->
<g id="node8" class="node">
<title>http://w3id.org/oseg/ont/okhmeta#LegalTag</title>
<ellipse fill="none" stroke="#e377c2" cx="125.16" cy="-906.67" rx="103.89" ry="16.03"/>
<text text-anchor="middle" x="125.16" y="-902.97" font-family="Times,serif" font-size="14.00">okhmeta:LegalTag</text>
</g>
<!-- http://w3id.org/oseg/ont/okhmeta#LegalTag&#45;&gt;http://w3id.org/oseg/ont/okhmeta#Tag -->
<g id="edge24" class="edge">
<title>http://w3id.org/oseg/ont/okhmeta#LegalTag&#45;&gt;http://w3id.org/oseg/ont/okhmeta#Tag</title>
<path fill="none" stroke="black" d="M196.89,-894.83C216.99,-888.06 237.02,-877.41 250.32,-860.67 289.62,-811.21 224.17,-764.86 268.32,-719.67 292.19,-695.24 386.83,-703.46 420.32,-696.67 447.32,-691.2 476.97,-683.81 501.78,-677.23"/>
<polygon fill="black" stroke="black" points="502.98,-680.53 511.74,-674.57 501.17,-673.77 502.98,-680.53"/>
<text text-anchor="middle" x="344.32" y="-723.47" font-family="Times,serif" font-size="14.00">a</text>
</g>
<!-- http://w3id.org/oseg/ont/okhmeta#LegalTag&#45;&gt;http://w3id.org/oseg/ont/okhmeta#MetaTag -->
<g id="edge44" class="edge">
<title>http://w3id.org/oseg/ont/okhmeta#LegalTag&#45;&gt;http://w3id.org/oseg/ont/okhmeta#MetaTag</title>
<path fill="none" stroke="black" d="M204.23,-917.24C311.94,-929.72 511.75,-945.29 678.73,-915.67 780.95,-897.54 889.96,-838.16 943.57,-805.93"/>
<polygon fill="black" stroke="black" points="945.57,-808.81 952.3,-800.63 941.94,-802.83 945.57,-808.81"/>
<text text-anchor="middle" x="558.52" y="-936.47" font-family="Times,serif" font-size="14.00">okhmeta:hasMetaTag</text>
</g>
<!-- http://id.loc.gov/vocabulary/iso639&#45;1/en -->
<g id="node9" class="node">
<title>http://id.loc.gov/vocabulary/iso639&#45;1/en</title>
<ellipse fill="none" stroke="#e377c2" cx="558.52" cy="-1530.67" rx="45.01" ry="16.03"/>
<text text-anchor="middle" x="558.52" y="-1526.97" font-family="Times,serif" font-size="14.00">ns1:en</text>
</g>
<!-- http://w3id.org/oseg/ont/okhmeta#DataTag -->
<g id="node10" class="node">
<title>http://w3id.org/oseg/ont/okhmeta#DataTag</title>
<ellipse fill="none" stroke="#e377c2" cx="125.16" cy="-310.67" rx="100.32" ry="16.03"/>
<text text-anchor="middle" x="125.16" y="-306.97" font-family="Times,serif" font-size="14.00">okhmeta:DataTag</text>
</g>
<!-- http://w3id.org/oseg/ont/okhmeta#DataTag&#45;&gt;http://w3id.org/oseg/ont/okhmeta#Tag -->
<g id="edge25" class="edge">
<title>http://w3id.org/oseg/ont/okhmeta#DataTag&#45;&gt;http://w3id.org/oseg/ont/okhmeta#Tag</title>
<path fill="none" stroke="black" d="M169.6,-325.37C193.73,-333.96 224.08,-345.5 250.32,-357.67 258.62,-361.52 259.62,-364.83 268.32,-367.67 300.67,-378.24 396.44,-362.41 420.32,-386.67 446.34,-413.12 421.54,-519.57 438.32,-552.67 457.44,-590.42 495.44,-621.53 523.41,-640.72"/>
<polygon fill="black" stroke="black" points="521.48,-643.64 531.74,-646.29 525.37,-637.82 521.48,-643.64"/>
<text text-anchor="middle" x="344.32" y="-390.47" font-family="Times,serif" font-size="14.00">a</text>
</g>
<!-- http://w3id.org/oseg/ont/okhmeta#DataTag&#45;&gt;http://w3id.org/oseg/ont/okhmeta#MetaTag -->
<g id="edge31" class="edge">
<title>http://w3id.org/oseg/ont/okhmeta#DataTag&#45;&gt;http://w3id.org/oseg/ont/okhmeta#MetaTag</title>
<path fill="none" stroke="black" d="M161.56,-295.43C187.69,-283.16 223.26,-264.29 250.32,-241.67 260.01,-233.57 257.51,-226.21 268.32,-219.67 424.95,-124.91 495.84,-176.71 678.73,-184.67 755.39,-188.01 797.85,-144.07 850.73,-199.67 888.05,-238.91 845.82,-637.61 868.73,-686.67 884.01,-719.4 915.84,-746.01 941.1,-763.2"/>
<polygon fill="black" stroke="black" points="939.45,-766.31 949.73,-768.88 943.31,-760.46 939.45,-766.31"/>
<text text-anchor="middle" x="558.52" y="-188.47" font-family="Times,serif" font-size="14.00">okhmeta:hasMetaTag</text>
</g>
<!-- http://w3id.org/oseg/ont/okhmeta#HistoryTag -->
<g id="node11" class="node">
<title>http://w3id.org/oseg/ont/okhmeta#HistoryTag</title>
<ellipse fill="none" stroke="#e377c2" cx="125.16" cy="-1133.67" rx="113.69" ry="16.03"/>
<text text-anchor="middle" x="125.16" y="-1129.97" font-family="Times,serif" font-size="14.00">okhmeta:HistoryTag</text>
</g>
<!-- http://w3id.org/oseg/ont/okhmeta#HistoryTag&#45;&gt;http://w3id.org/oseg/ont/okhmeta#Tag -->
<g id="edge3" class="edge">
<title>http://w3id.org/oseg/ont/okhmeta#HistoryTag&#45;&gt;http://w3id.org/oseg/ont/okhmeta#Tag</title>
<path fill="none" stroke="black" d="M205.44,-1122.06C283.02,-1108.94 393.34,-1085 420.32,-1051.67 460.81,-1001.66 409.46,-820.18 438.32,-762.67 456.04,-727.34 492.22,-699.5 520.09,-682.08"/>
<polygon fill="black" stroke="black" points="522.08,-684.97 528.82,-676.79 518.45,-678.98 522.08,-684.97"/>
<text text-anchor="middle" x="344.32" y="-1113.47" font-family="Times,serif" font-size="14.00">a</text>
</g>
<!-- http://w3id.org/oseg/ont/okhmeta#HistoryTag&#45;&gt;http://w3id.org/oseg/ont/okhmeta#MetaTag -->
<g id="edge12" class="edge">
<title>http://w3id.org/oseg/ont/okhmeta#HistoryTag&#45;&gt;http://w3id.org/oseg/ont/okhmeta#MetaTag</title>
<path fill="none" stroke="black" d="M192.84,-1146.8C333.67,-1170.36 663.78,-1202.95 850.73,-1035.67 921.19,-972.63 957.51,-861.27 971.01,-810.82"/>
<polygon fill="black" stroke="black" points="974.43,-811.57 973.55,-801.01 967.65,-809.82 974.43,-811.57"/>
<text text-anchor="middle" x="558.52" y="-1170.47" font-family="Times,serif" font-size="14.00">okhmeta:hasMetaTag</text>
</g>
<!-- http://w3id.org/oseg/ont/1.1.0/okh&#45;meta -->
<g id="node12" class="node">
<title>http://w3id.org/oseg/ont/1.1.0/okh&#45;meta</title>
<ellipse fill="none" stroke="#e377c2" cx="558.52" cy="-1479.67" rx="79.81" ry="16.03"/>
<text text-anchor="middle" x="558.52" y="-1475.97" font-family="Times,serif" font-size="14.00">ns2:okh&#45;meta</text>
</g>
<!-- http://w3id.org/oseg/ont/okhmeta#DataGatheringTag -->
<g id="node13" class="node">
<title>http://w3id.org/oseg/ont/okhmeta#DataGatheringTag</title>
<ellipse fill="none" stroke="#e377c2" cx="125.16" cy="-500.67" rx="122.16" ry="16.03"/>
<text text-anchor="middle" x="125.16" y="-496.97" font-family="Times,serif" font-size="14.00">okhmeta:DataGathe...</text>
</g>
<!-- http://w3id.org/oseg/ont/okhmeta#DataGatheringTag&#45;&gt;http://w3id.org/oseg/ont/okhmeta#Tag -->
<g id="edge5" class="edge">
<title>http://w3id.org/oseg/ont/okhmeta#DataGatheringTag&#45;&gt;http://w3id.org/oseg/ont/okhmeta#Tag</title>
<path fill="none" stroke="black" d="M246.99,-498.96C302,-502.26 366.66,-512.04 420.32,-536.67 422.01,-537.45 493.15,-602.61 532.31,-638.52"/>
<polygon fill="black" stroke="black" points="530.41,-641.53 540.14,-645.71 535.14,-636.37 530.41,-641.53"/>
<text text-anchor="middle" x="344.32" y="-540.47" font-family="Times,serif" font-size="14.00">a</text>
</g>
<!-- http://w3id.org/oseg/ont/okhmeta#DataGatheringTag&#45;&gt;http://w3id.org/oseg/ont/okhmeta#MetaTag -->
<g id="edge23" class="edge">
<title>http://w3id.org/oseg/ont/okhmeta#DataGatheringTag&#45;&gt;http://w3id.org/oseg/ont/okhmeta#MetaTag</title>
<path fill="none" stroke="black" d="M220.78,-490.42C232.01,-485.6 242.31,-478.9 250.32,-469.67 275.93,-440.13 239.29,-320.86 268.32,-294.67 318.47,-249.41 355.94,-274.18 420.32,-294.67 532.02,-330.24 786.57,-501.56 850.73,-599.67 872.34,-632.72 849.1,-652.41 868.73,-686.67 886.92,-718.41 919.01,-745.45 943.61,-763.04"/>
<polygon fill="black" stroke="black" points="941.76,-766.01 951.97,-768.86 945.76,-760.27 941.76,-766.01"/>
<text text-anchor="middle" x="558.52" y="-444.47" font-family="Times,serif" font-size="14.00">okhmeta:hasMetaTag</text>
</g>
<!-- http://w3id.org/oseg/ont/okhmeta#MakingTag -->
<g id="node14" class="node">
<title>http://w3id.org/oseg/ont/okhmeta#MakingTag</title>
<ellipse fill="none" stroke="#e377c2" cx="125.16" cy="-382.67" rx="113.69" ry="16.03"/>
<text text-anchor="middle" x="125.16" y="-378.97" font-family="Times,serif" font-size="14.00">okhmeta:MakingTag</text>
</g>
<!-- http://w3id.org/oseg/ont/okhmeta#MakingTag&#45;&gt;http://w3id.org/oseg/ont/okhmeta#Tag -->
<g id="edge6" class="edge">
<title>http://w3id.org/oseg/ont/okhmeta#MakingTag&#45;&gt;http://w3id.org/oseg/ont/okhmeta#Tag</title>
<path fill="none" stroke="black" d="M201.03,-394.84C222.74,-398.35 246.47,-402.18 268.32,-405.67 302.08,-411.07 396.27,-405.35 420.32,-429.67 459.16,-468.96 412.43,-503.86 438.32,-552.67 458.12,-590 495.91,-621.15 523.66,-640.46"/>
<polygon fill="black" stroke="black" points="522.03,-643.59 532.28,-646.31 525.96,-637.8 522.03,-643.59"/>
<text text-anchor="middle" x="344.32" y="-433.47" font-family="Times,serif" font-size="14.00">a</text>
</g>
<!-- http://w3id.org/oseg/ont/okhmeta#MakingTag&#45;&gt;http://w3id.org/oseg/ont/okhmeta#MetaTag -->
<g id="edge1" class="edge">
<title>http://w3id.org/oseg/ont/okhmeta#MakingTag&#45;&gt;http://w3id.org/oseg/ont/okhmeta#MetaTag</title>
<path fill="none" stroke="black" d="M195.49,-369.83C215.78,-362.87 236.25,-352.15 250.32,-335.67 275.95,-305.64 238.75,-274.84 268.32,-248.67 325.09,-198.43 362.57,-237.79 438.32,-234.67 623.02,-227.08 737.99,-142.17 850.73,-288.67 877.73,-323.75 849.84,-646.64 868.73,-686.67 884.15,-719.34 915.96,-745.96 941.18,-763.16"/>
<polygon fill="black" stroke="black" points="939.52,-766.26 949.8,-768.85 943.38,-760.42 939.52,-766.26"/>
<text text-anchor="middle" x="558.52" y="-238.47" font-family="Times,serif" font-size="14.00">okhmeta:hasMetaTag</text>
</g>
<!-- http://w3id.org/oseg/ont/okhmeta#TransportationTag -->
<g id="node15" class="node">
<title>http://w3id.org/oseg/ont/okhmeta#TransportationTag</title>
<ellipse fill="none" stroke="#e377c2" cx="125.16" cy="-1073.67" rx="118.17" ry="16.03"/>
<text text-anchor="middle" x="125.16" y="-1069.97" font-family="Times,serif" font-size="14.00">okhmeta:Transport...</text>
</g>
<!-- http://w3id.org/oseg/ont/okhmeta#TransportationTag&#45;&gt;http://w3id.org/oseg/ont/okhmeta#Tag -->
<g id="edge26" class="edge">
<title>http://w3id.org/oseg/ont/okhmeta#TransportationTag&#45;&gt;http://w3id.org/oseg/ont/okhmeta#Tag</title>
<path fill="none" stroke="black" d="M211,-1062.42C224.85,-1058.24 238.51,-1052.51 250.32,-1044.67 357.42,-973.58 359.42,-923.88 420.32,-810.67 431.11,-790.61 425.2,-781.3 438.32,-762.67 461.46,-729.79 497.77,-701.12 524.24,-682.81"/>
<polygon fill="black" stroke="black" points="526.49,-685.52 532.81,-677.01 522.57,-679.72 526.49,-685.52"/>
<text text-anchor="middle" x="344.32" y="-1036.47" font-family="Times,serif" font-size="14.00">a</text>
</g>
<!-- http://w3id.org/oseg/ont/okhmeta#TransportationTag&#45;&gt;http://w3id.org/oseg/ont/okhmeta#MetaTag -->
<g id="edge22" class="edge">
<title>http://w3id.org/oseg/ont/okhmeta#TransportationTag&#45;&gt;http://w3id.org/oseg/ont/okhmeta#MetaTag</title>
<path fill="none" stroke="black" d="M233.77,-1080.09C345.98,-1084.44 526.42,-1084.8 678.73,-1054.67 758.75,-1038.84 787.72,-1042.46 850.73,-990.67 911.38,-940.82 950.98,-853.88 967.92,-810.63"/>
<polygon fill="black" stroke="black" points="971.25,-811.71 971.56,-801.11 964.72,-809.21 971.25,-811.71"/>
<text text-anchor="middle" x="558.52" y="-1084.47" font-family="Times,serif" font-size="14.00">okhmeta:hasMetaTag</text>
</g>
<!-- http://w3id.org/oseg/ont/oseg&#45;profiles#robinVobruba -->
<g id="node16" class="node">
<title>http://w3id.org/oseg/ont/oseg&#45;profiles#robinVobruba</title>
<ellipse fill="none" stroke="#e377c2" cx="558.52" cy="-1428.67" rx="113.69" ry="16.03"/>
<text text-anchor="middle" x="558.52" y="-1424.97" font-family="Times,serif" font-size="14.00">osegprof:robinVob...</text>
</g>
<!-- http://w3id.org/oseg/ont/okhmeta#hasMetaTag -->
<g id="node17" class="node">
<title>http://w3id.org/oseg/ont/okhmeta#hasMetaTag</title>
<ellipse fill="none" stroke="#e377c2" cx="558.52" cy="-1275.67" rx="120.42" ry="16.03"/>
<text text-anchor="middle" x="558.52" y="-1271.97" font-family="Times,serif" font-size="14.00">okhmeta:hasMetaTag</text>
</g>
<!-- http://w3id.org/oseg/ont/okhmeta#hasMetaTag&#45;&gt;http://www.w3.org/2004/02/skos/core#Concept -->
<g id="edge9" class="edge">
<title>http://w3id.org/oseg/ont/okhmeta#hasMetaTag&#45;&gt;http://www.w3.org/2004/02/skos/core#Concept</title>
<path fill="none" stroke="black" d="M671.46,-1269.95C725.73,-1266.48 791.77,-1261.23 850.73,-1253.67 870.64,-1251.12 892.17,-1247.52 911.72,-1243.93"/>
<polygon fill="black" stroke="black" points="912.56,-1247.34 921.75,-1242.06 911.28,-1240.46 912.56,-1247.34"/>
<text text-anchor="middle" x="773.73" y="-1272.47" font-family="Times,serif" font-size="14.00">a</text>
</g>
<!-- http://w3id.org/oseg/ont/okhmeta#hasMetaTag&#45;&gt;http://www.w3.org/2002/07/owl#ObjectProperty -->
<g id="edge30" class="edge">
<title>http://w3id.org/oseg/ont/okhmeta#hasMetaTag&#45;&gt;http://www.w3.org/2002/07/owl#ObjectProperty</title>
<path fill="none" stroke="black" d="M648.41,-1286.53C664.48,-1288.36 681.1,-1290.15 696.73,-1291.67 753.27,-1297.18 816.32,-1302.22 868.31,-1306.09"/>
<polygon fill="black" stroke="black" points="868.33,-1309.6 878.56,-1306.84 868.84,-1302.62 868.33,-1309.6"/>
<text text-anchor="middle" x="773.73" y="-1308.47" font-family="Times,serif" font-size="14.00">a</text>
</g>
<!-- http://w3id.org/oseg/ont/okhmeta#hasMetaTag&#45;&gt;http://w3id.org/oseg/ont/okhmeta#MetaTag -->
<g id="edge8" class="edge">
<title>http://w3id.org/oseg/ont/okhmeta#hasMetaTag&#45;&gt;http://w3id.org/oseg/ont/okhmeta#MetaTag</title>
<path fill="none" stroke="black" d="M573.67,-1259.36C596.67,-1234.03 644.85,-1185.75 696.73,-1162.67 759.96,-1134.54 797.28,-1183.63 850.73,-1139.67 954.38,-1054.43 973.21,-877.94 976.6,-811.1"/>
<polygon fill="black" stroke="black" points="980.1,-811.13 977.04,-800.99 973.11,-810.83 980.1,-811.13"/>
<text text-anchor="middle" x="773.73" y="-1166.47" font-family="Times,serif" font-size="14.00">dcam:rangeIncludes</text>
</g>
<!-- http://w3id.org/oseg/ont/okhmeta#hasMetaTag&#45;&gt;http://w3id.org/oseg/ont/okhmeta#MetaTag -->
<g id="edge39" class="edge">
<title>http://w3id.org/oseg/ont/okhmeta#hasMetaTag&#45;&gt;http://w3id.org/oseg/ont/okhmeta#MetaTag</title>
<path fill="none" stroke="black" d="M603.22,-1260.57C629.94,-1251.85 664.98,-1241.33 696.73,-1234.67 730.48,-1227.6 824.45,-1237.99 850.73,-1215.67 914.44,-1161.58 960.22,-895.95 973.43,-810.91"/>
<polygon fill="black" stroke="black" points="976.89,-811.43 974.94,-801.02 969.97,-810.37 976.89,-811.43"/>
<text text-anchor="middle" x="773.73" y="-1238.47" font-family="Times,serif" font-size="14.00">okhmeta:hasMetaTag</text>
</g>
<!-- http://www.w3.org/2004/02/skos/core#member -->
<g id="node30" class="node">
<title>http://www.w3.org/2004/02/skos/core#member</title>
<ellipse fill="none" stroke="#e377c2" cx="978.33" cy="-1364.67" rx="79.39" ry="16.03"/>
<text text-anchor="middle" x="978.33" y="-1360.97" font-family="Times,serif" font-size="14.00">skos:member</text>
</g>
<!-- http://w3id.org/oseg/ont/okhmeta#hasMetaTag&#45;&gt;http://www.w3.org/2004/02/skos/core#member -->
<g id="edge48" class="edge">
<title>http://w3id.org/oseg/ont/okhmeta#hasMetaTag&#45;&gt;http://www.w3.org/2004/02/skos/core#member</title>
<path fill="none" stroke="black" d="M645.29,-1287.04C657.02,-1290.66 668.53,-1295.42 678.73,-1301.67 689.5,-1308.27 685.74,-1317.45 696.73,-1323.67 755.64,-1357.02 832.22,-1366.37 890.49,-1367.88"/>
<polygon fill="black" stroke="black" points="890.71,-1371.39 900.78,-1368.08 890.84,-1364.39 890.71,-1371.39"/>
<text text-anchor="middle" x="773.73" y="-1369.47" font-family="Times,serif" font-size="14.00">subPropertyOf</text>
</g>
<!-- http://w3id.org/oseg/ont/okhmeta#IdentificationTag -->
<g id="node18" class="node">
<title>http://w3id.org/oseg/ont/okhmeta#IdentificationTag</title>
<ellipse fill="none" stroke="#e377c2" cx="125.16" cy="-1019.67" rx="109.7" ry="16.03"/>
<text text-anchor="middle" x="125.16" y="-1015.97" font-family="Times,serif" font-size="14.00">okhmeta:Identific...</text>
</g>
<!-- http://w3id.org/oseg/ont/okhmeta#IdentificationTag&#45;&gt;http://w3id.org/oseg/ont/okhmeta#Tag -->
<g id="edge27" class="edge">
<title>http://w3id.org/oseg/ont/okhmeta#IdentificationTag&#45;&gt;http://w3id.org/oseg/ont/okhmeta#Tag</title>
<path fill="none" stroke="black" d="M222.25,-1012.06C232.9,-1007.6 242.65,-1001.35 250.32,-992.67 279.43,-959.73 238.16,-827.66 268.32,-795.67 315.18,-745.95 357.8,-800.23 420.32,-772.67 444.87,-761.85 500.06,-713.87 532.46,-684.65"/>
<polygon fill="black" stroke="black" points="535.12,-686.97 540.18,-677.66 530.42,-681.78 535.12,-686.97"/>
<text text-anchor="middle" x="344.32" y="-799.47" font-family="Times,serif" font-size="14.00">a</text>
</g>
<!-- http://w3id.org/oseg/ont/okhmeta#IdentificationTag&#45;&gt;http://w3id.org/oseg/ont/okhmeta#MetaTag -->
<g id="edge16" class="edge">
<title>http://w3id.org/oseg/ont/okhmeta#IdentificationTag&#45;&gt;http://w3id.org/oseg/ont/okhmeta#MetaTag</title>
<path fill="none" stroke="black" d="M217.19,-1028.64C327.6,-1037.22 518.79,-1044.61 678.73,-1012.67 759.5,-996.54 784.66,-992.86 850.73,-943.67 900.92,-906.31 942.33,-844.42 963.03,-809.9"/>
<polygon fill="black" stroke="black" points="966.25,-811.33 968.32,-800.94 960.22,-807.78 966.25,-811.33"/>
<text text-anchor="middle" x="558.52" y="-1039.47" font-family="Times,serif" font-size="14.00">okhmeta:hasMetaTag</text>
</g>
<!-- http://w3id.org/oseg/ont/oseg&#45;profiles#Iopa -->
<g id="node19" class="node">
<title>http://w3id.org/oseg/ont/oseg&#45;profiles#Iopa</title>
<ellipse fill="none" stroke="#e377c2" cx="558.52" cy="-1377.67" rx="80.72" ry="16.03"/>
<text text-anchor="middle" x="558.52" y="-1373.97" font-family="Times,serif" font-size="14.00">osegprof:Iopa</text>
</g>
<!-- http://spdx.org/licenses/GPL&#45;3.0&#45;or&#45;later -->
<g id="node20" class="node">
<title>http://spdx.org/licenses/GPL&#45;3.0&#45;or&#45;later</title>
<ellipse fill="none" stroke="#e377c2" cx="558.52" cy="-1326.67" rx="108.79" ry="16.03"/>
<text text-anchor="middle" x="558.52" y="-1322.97" font-family="Times,serif" font-size="14.00">spdxl:GPL&#45;3.0&#45;or&#45;...</text>
</g>
<!-- http://w3id.org/oseg/ont/okhmeta#BasicTag -->
<g id="node21" class="node">
<title>http://w3id.org/oseg/ont/okhmeta#BasicTag</title>
<ellipse fill="none" stroke="#e377c2" cx="125.16" cy="-560.67" rx="103.48" ry="16.03"/>
<text text-anchor="middle" x="125.16" y="-556.97" font-family="Times,serif" font-size="14.00">okhmeta:BasicTag</text>
</g>
<!-- http://w3id.org/oseg/ont/okhmeta#BasicTag&#45;&gt;http://w3id.org/oseg/ont/okhmeta#Tag -->
<g id="edge32" class="edge">
<title>http://w3id.org/oseg/ont/okhmeta#BasicTag&#45;&gt;http://w3id.org/oseg/ont/okhmeta#Tag</title>
<path fill="none" stroke="black" d="M220.99,-554.57C279.69,-553.6 355.88,-557.49 420.32,-577.67 462.16,-590.78 504.29,-619.41 530.61,-639.58"/>
<polygon fill="black" stroke="black" points="528.55,-642.41 538.58,-645.81 532.86,-636.9 528.55,-642.41"/>
<text text-anchor="middle" x="344.32" y="-581.47" font-family="Times,serif" font-size="14.00">a</text>
</g>
<!-- http://w3id.org/oseg/ont/okhmeta#BasicTag&#45;&gt;http://w3id.org/oseg/ont/okhmeta#MetaTag -->
<g id="edge40" class="edge">
<title>http://w3id.org/oseg/ont/okhmeta#BasicTag&#45;&gt;http://w3id.org/oseg/ont/okhmeta#MetaTag</title>
<path fill="none" stroke="black" d="M208.62,-551.02C267.79,-545.83 349.28,-542.22 420.32,-551.67 617.53,-577.91 676.82,-578.05 850.73,-674.67 872.69,-686.87 922.58,-732.61 952.76,-761.13"/>
<polygon fill="black" stroke="black" points="950.68,-763.98 960.35,-768.32 955.5,-758.9 950.68,-763.98"/>
<text text-anchor="middle" x="558.52" y="-600.47" font-family="Times,serif" font-size="14.00">okhmeta:hasMetaTag</text>
</g>
<!-- http://w3id.org/oseg/ont/okhmeta#AcademicTag -->
<g id="node22" class="node">
<title>http://w3id.org/oseg/ont/okhmeta#AcademicTag</title>
<ellipse fill="none" stroke="#e377c2" cx="125.16" cy="-80.67" rx="124.4" ry="16.03"/>
<text text-anchor="middle" x="125.16" y="-76.97" font-family="Times,serif" font-size="14.00">okhmeta:AcademicTag</text>
</g>
<!-- http://w3id.org/oseg/ont/okhmeta#AcademicTag&#45;&gt;http://w3id.org/oseg/ont/okhmeta#Tag -->
<g id="edge33" class="edge">
<title>http://w3id.org/oseg/ont/okhmeta#AcademicTag&#45;&gt;http://w3id.org/oseg/ont/okhmeta#Tag</title>
<path fill="none" stroke="black" d="M161.63,-96.26C226.23,-126.79 361.81,-201.18 420.32,-310.67 471.14,-405.8 391.19,-455.66 438.32,-552.67 456.8,-590.73 494.91,-621.79 523.09,-640.88"/>
<polygon fill="black" stroke="black" points="521.21,-643.84 531.48,-646.42 525.06,-637.99 521.21,-643.84"/>
<text text-anchor="middle" x="344.32" y="-314.47" font-family="Times,serif" font-size="14.00">a</text>
</g>
<!-- http://w3id.org/oseg/ont/okhmeta#AcademicTag&#45;&gt;http://w3id.org/oseg/ont/okhmeta#MetaTag -->
<g id="edge42" class="edge">
<title>http://w3id.org/oseg/ont/okhmeta#AcademicTag&#45;&gt;http://w3id.org/oseg/ont/okhmeta#MetaTag</title>
<path fill="none" stroke="black" d="M168.68,-65.41C294.9,-23.16 669.8,79.93 850.73,-114.67 894.03,-161.24 841.99,-628.98 868.73,-686.67 883.92,-719.44 915.76,-746.05 941.05,-763.23"/>
<polygon fill="black" stroke="black" points="939.41,-766.33 949.69,-768.9 943.25,-760.49 939.41,-766.33"/>
<text text-anchor="middle" x="558.52" y="-19.47" font-family="Times,serif" font-size="14.00">okhmeta:hasMetaTag</text>
</g>
<!-- http://w3id.org/oseg/ont/okhmeta#PhysicalTag -->
<g id="node23" class="node">
<title>http://w3id.org/oseg/ont/okhmeta#PhysicalTag</title>
<ellipse fill="none" stroke="#e377c2" cx="125.16" cy="-744.67" rx="118.17" ry="16.03"/>
<text text-anchor="middle" x="125.16" y="-740.97" font-family="Times,serif" font-size="14.00">okhmeta:PhysicalTag</text>
</g>
<!-- http://w3id.org/oseg/ont/okhmeta#PhysicalTag&#45;&gt;http://w3id.org/oseg/ont/okhmeta#Tag -->
<g id="edge13" class="edge">
<title>http://w3id.org/oseg/ont/okhmeta#PhysicalTag&#45;&gt;http://w3id.org/oseg/ont/okhmeta#Tag</title>
<path fill="none" stroke="black" d="M141.77,-728.43C166.12,-704.4 215.82,-660.42 268.32,-643.67 346.47,-618.74 442.4,-632.87 501.75,-646.42"/>
<polygon fill="black" stroke="black" points="501.14,-649.87 511.68,-648.76 502.75,-643.06 501.14,-649.87"/>
<text text-anchor="middle" x="344.32" y="-647.47" font-family="Times,serif" font-size="14.00">a</text>
</g>
<!-- http://w3id.org/oseg/ont/okhmeta#PhysicalTag&#45;&gt;http://w3id.org/oseg/ont/okhmeta#MetaTag -->
<g id="edge21" class="edge">
<title>http://w3id.org/oseg/ont/okhmeta#PhysicalTag&#45;&gt;http://w3id.org/oseg/ont/okhmeta#MetaTag</title>
<path fill="none" stroke="black" d="M173.8,-759.58C199.86,-770.01 230.74,-786.47 250.32,-810.67 268.63,-833.31 245.07,-856.14 268.32,-873.67 322.25,-914.35 359.89,-903.88 420.32,-873.67 432.24,-867.71 426.77,-856.34 438.32,-849.67 447.87,-844.16 731.67,-811.95 883.53,-795.04"/>
<polygon fill="black" stroke="black" points="884.23,-798.48 893.79,-793.9 883.46,-791.52 884.23,-798.48"/>
<text text-anchor="middle" x="558.52" y="-853.47" font-family="Times,serif" font-size="14.00">okhmeta:hasMetaTag</text>
</g>
<!-- http://w3id.org/oseg/ont/okhmeta#DocumentationTag -->
<g id="node24" class="node">
<title>http://w3id.org/oseg/ont/okhmeta#DocumentationTag</title>
<ellipse fill="none" stroke="#e377c2" cx="125.16" cy="-216.67" rx="125.32" ry="16.03"/>
<text text-anchor="middle" x="125.16" y="-212.97" font-family="Times,serif" font-size="14.00">okhmeta:Documenta...</text>
</g>
<!-- http://w3id.org/oseg/ont/okhmeta#DocumentationTag&#45;&gt;http://w3id.org/oseg/ont/okhmeta#Tag -->
<g id="edge14" class="edge">
<title>http://w3id.org/oseg/ont/okhmeta#DocumentationTag&#45;&gt;http://w3id.org/oseg/ont/okhmeta#Tag</title>
<path fill="none" stroke="black" d="M168.93,-231.91C195.39,-243.21 228.38,-260.96 250.32,-285.67 264.34,-301.47 251.54,-316.83 268.32,-329.67 322.37,-371.06 373.06,-299.66 420.32,-348.67 451.91,-381.43 418.15,-511.87 438.32,-552.67 457.07,-590.61 495.13,-621.69 523.22,-640.82"/>
<polygon fill="black" stroke="black" points="521.32,-643.76 531.59,-646.37 525.19,-637.92 521.32,-643.76"/>
<text text-anchor="middle" x="344.32" y="-352.47" font-family="Times,serif" font-size="14.00">a</text>
</g>
<!-- http://w3id.org/oseg/ont/okhmeta#DocumentationTag&#45;&gt;http://w3id.org/oseg/ont/okhmeta#MetaTag -->
<g id="edge20" class="edge">
<title>http://w3id.org/oseg/ont/okhmeta#DocumentationTag&#45;&gt;http://w3id.org/oseg/ont/okhmeta#MetaTag</title>
<path fill="none" stroke="black" d="M159.23,-200.93C187.54,-188.19 229.71,-170.89 268.32,-161.67 394.21,-131.61 763.81,-71.76 850.73,-167.67 889.48,-210.43 844.38,-634.36 868.73,-686.67 883.98,-719.42 915.8,-746.03 941.08,-763.21"/>
<polygon fill="black" stroke="black" points="939.44,-766.32 949.71,-768.89 943.28,-760.47 939.44,-766.32"/>
<text text-anchor="middle" x="558.52" y="-134.47" font-family="Times,serif" font-size="14.00">okhmeta:hasMetaTag</text>
</g>
<!-- http://w3id.org/oseg/ont/okhmeta#DevelopmentTag -->
<g id="node25" class="node">
<title>http://w3id.org/oseg/ont/okhmeta#DevelopmentTag</title>
<ellipse fill="none" stroke="#e377c2" cx="125.16" cy="-613.67" rx="124.4" ry="16.03"/>
<text text-anchor="middle" x="125.16" y="-609.97" font-family="Times,serif" font-size="14.00">okhmeta:Developme...</text>
</g>
<!-- http://w3id.org/oseg/ont/okhmeta#DevelopmentTag&#45;&gt;http://w3id.org/oseg/ont/okhmeta#Tag -->
<g id="edge37" class="edge">
<title>http://w3id.org/oseg/ont/okhmeta#DevelopmentTag&#45;&gt;http://w3id.org/oseg/ont/okhmeta#Tag</title>
<path fill="none" stroke="black" d="M209.7,-601.72C269.03,-595.57 350.26,-591.92 420.32,-605.67 455.77,-612.63 493.62,-628.81 520.57,-641.99"/>
<polygon fill="black" stroke="black" points="519.11,-645.18 529.62,-646.51 522.24,-638.92 519.11,-645.18"/>
<text text-anchor="middle" x="344.32" y="-609.47" font-family="Times,serif" font-size="14.00">a</text>
</g>
<!-- http://w3id.org/oseg/ont/okhmeta#DevelopmentTag&#45;&gt;http://w3id.org/oseg/ont/okhmeta#MetaTag -->
<g id="edge45" class="edge">
<title>http://w3id.org/oseg/ont/okhmeta#DevelopmentTag&#45;&gt;http://w3id.org/oseg/ont/okhmeta#MetaTag</title>
<path fill="none" stroke="black" d="M154.89,-629.6C184.12,-647.46 228.18,-679.28 250.32,-719.67 278.14,-770.44 224.65,-810.67 268.32,-848.67 293.8,-870.84 392.62,-868 420.32,-848.67 439.34,-835.39 419.48,-813.21 438.32,-799.67 472.17,-775.33 719.96,-777.61 867.52,-781.24"/>
<polygon fill="black" stroke="black" points="867.44,-784.74 877.53,-781.49 867.62,-777.74 867.44,-784.74"/>
<text text-anchor="middle" x="558.52" y="-803.47" font-family="Times,serif" font-size="14.00">okhmeta:hasMetaTag</text>
</g>
<!-- http://w3id.org/oseg/ont/okhmeta#PartsTag -->
<g id="node26" class="node">
<title>http://w3id.org/oseg/ont/okhmeta#PartsTag</title>
<ellipse fill="none" stroke="#e377c2" cx="125.16" cy="-444.67" rx="103.48" ry="16.03"/>
<text text-anchor="middle" x="125.16" y="-440.97" font-family="Times,serif" font-size="14.00">okhmeta:PartsTag</text>
</g>
<!-- http://w3id.org/oseg/ont/okhmeta#PartsTag&#45;&gt;http://w3id.org/oseg/ont/okhmeta#Tag -->
<g id="edge17" class="edge">
<title>http://w3id.org/oseg/ont/okhmeta#PartsTag&#45;&gt;http://w3id.org/oseg/ont/okhmeta#Tag</title>
<path fill="none" stroke="black" d="M228.33,-445.96C301.69,-449.04 392.34,-457.95 420.32,-482.67 444.39,-503.94 421.78,-525.13 438.32,-552.67 460.21,-589.11 497.97,-620.62 525.14,-640.25"/>
<polygon fill="black" stroke="black" points="523.36,-643.29 533.55,-646.2 527.41,-637.57 523.36,-643.29"/>
<text text-anchor="middle" x="344.32" y="-486.47" font-family="Times,serif" font-size="14.00">a</text>
</g>
<!-- http://w3id.org/oseg/ont/okhmeta#PartsTag&#45;&gt;http://w3id.org/oseg/ont/okhmeta#MetaTag -->
<g id="edge35" class="edge">
<title>http://w3id.org/oseg/ont/okhmeta#PartsTag&#45;&gt;http://w3id.org/oseg/ont/okhmeta#MetaTag</title>
<path fill="none" stroke="black" d="M207.55,-434.82C223.79,-429.23 239.23,-420.69 250.32,-407.67 290.42,-360.58 221.84,-310.48 268.32,-269.67 303.56,-238.72 609.86,-253.3 678.73,-283.67 776.79,-326.92 805.52,-355.5 850.73,-452.67 894.73,-547.24 822.73,-593.06 868.73,-686.67 884.66,-719.09 916.41,-745.74 941.49,-763.02"/>
<polygon fill="black" stroke="black" points="939.78,-766.09 950.04,-768.73 943.67,-760.27 939.78,-766.09"/>
<text text-anchor="middle" x="558.52" y="-287.47" font-family="Times,serif" font-size="14.00">okhmeta:hasMetaTag</text>
</g>
<!-- http://w3id.org/oseg/ont/okhmeta#ExtendedInfoTag -->
<g id="node27" class="node">
<title>http://w3id.org/oseg/ont/okhmeta#ExtendedInfoTag</title>
<ellipse fill="none" stroke="#e377c2" cx="125.16" cy="-835.67" rx="120.42" ry="16.03"/>
<text text-anchor="middle" x="125.16" y="-831.97" font-family="Times,serif" font-size="14.00">okhmeta:ExtendedI...</text>
</g>
<!-- http://w3id.org/oseg/ont/okhmeta#ExtendedInfoTag&#45;&gt;http://w3id.org/oseg/ont/okhmeta#Tag -->
<g id="edge19" class="edge">
<title>http://w3id.org/oseg/ont/okhmeta#ExtendedInfoTag&#45;&gt;http://w3id.org/oseg/ont/okhmeta#Tag</title>
<path fill="none" stroke="black" d="M175.75,-820.83C201.77,-810.55 231.97,-794.21 250.32,-769.67 274.22,-737.7 238.28,-707.97 268.32,-681.67 283.43,-668.44 392.2,-663.93 471.91,-662.41"/>
<polygon fill="black" stroke="black" points="472.04,-665.91 481.97,-662.24 471.91,-658.91 472.04,-665.91"/>
<text text-anchor="middle" x="344.32" y="-685.47" font-family="Times,serif" font-size="14.00">a</text>
</g>
<!-- http://w3id.org/oseg/ont/okhmeta#ExtendedInfoTag&#45;&gt;http://w3id.org/oseg/ont/okhmeta#MetaTag -->
<g id="edge15" class="edge">
<title>http://w3id.org/oseg/ont/okhmeta#ExtendedInfoTag&#45;&gt;http://w3id.org/oseg/ont/okhmeta#MetaTag</title>
<path fill="none" stroke="black" d="M179.67,-850.27C202.42,-857.77 228.64,-868.21 250.32,-881.67 259.66,-887.48 258.09,-894.61 268.32,-898.67 331.09,-923.63 352.9,-903.09 420.32,-898.67 614.23,-885.97 663.17,-872.5 850.73,-821.67 873.44,-815.52 898.32,-808.34 919.97,-801.96"/>
<polygon fill="black" stroke="black" points="921.07,-805.28 929.67,-799.08 919.08,-798.57 921.07,-805.28"/>
<text text-anchor="middle" x="558.52" y="-901.47" font-family="Times,serif" font-size="14.00">okhmeta:hasMetaTag</text>
</g>
<!-- http://w3id.org/oseg/ont/okhmeta -->
<g id="node28" class="node">
<title>http://w3id.org/oseg/ont/okhmeta</title>
<ellipse fill="none" stroke="#e377c2" cx="125.16" cy="-1472.67" rx="76.24" ry="16.03"/>
<text text-anchor="middle" x="125.16" y="-1468.97" font-family="Times,serif" font-size="14.00">ns3:okhmeta</text>
</g>
<!-- http://w3id.org/oseg/ont/okhmeta&#45;&gt;http://www.w3.org/2002/07/owl#Ontology -->
<g id="edge46" class="edge">
<title>http://w3id.org/oseg/ont/okhmeta&#45;&gt;http://www.w3.org/2002/07/owl#Ontology</title>
<path fill="none" stroke="black" d="M141.45,-1488.96C165.77,-1513.76 215.89,-1560.55 268.32,-1583.67 332.84,-1612.13 412.19,-1624.14 471.44,-1629.17"/>
<polygon fill="black" stroke="black" points="471.27,-1632.66 481.52,-1629.97 471.83,-1625.69 471.27,-1632.66"/>
<text text-anchor="middle" x="344.32" y="-1625.47" font-family="Times,serif" font-size="14.00">a</text>
</g>
<!-- http://w3id.org/oseg/ont/okhmeta&#45;&gt;http://spdx.org/rdf/terms#SpdxItem -->
<g id="edge41" class="edge">
<title>http://w3id.org/oseg/ont/okhmeta&#45;&gt;http://spdx.org/rdf/terms#SpdxItem</title>
<path fill="none" stroke="black" d="M155.34,-1487.67C183.55,-1501.56 227.85,-1521.82 268.32,-1533.67 334.9,-1553.17 412.57,-1565.51 470.65,-1572.79"/>
<polygon fill="black" stroke="black" points="470.54,-1576.31 480.89,-1574.05 471.39,-1569.36 470.54,-1576.31"/>
<text text-anchor="middle" x="344.32" y="-1568.47" font-family="Times,serif" font-size="14.00">a</text>
</g>
<!-- http://w3id.org/oseg/ont/okhmeta&#45;&gt;http://id.loc.gov/vocabulary/iso639&#45;1/en -->
<g id="edge2" class="edge">
<title>http://w3id.org/oseg/ont/okhmeta&#45;&gt;http://id.loc.gov/vocabulary/iso639&#45;1/en</title>
<path fill="none" stroke="black" d="M185.21,-1482.77C210.74,-1486.99 240.96,-1491.8 268.32,-1495.67 350.75,-1507.32 446.76,-1518.46 504.79,-1524.93"/>
<polygon fill="black" stroke="black" points="504.5,-1528.42 514.82,-1526.04 505.27,-1521.46 504.5,-1528.42"/>
<text text-anchor="middle" x="344.32" y="-1518.47" font-family="Times,serif" font-size="14.00">dcterms:language</text>
</g>
<!-- http://w3id.org/oseg/ont/okhmeta&#45;&gt;http://w3id.org/oseg/ont/1.1.0/okh&#45;meta -->
<g id="edge4" class="edge">
<title>http://w3id.org/oseg/ont/okhmeta&#45;&gt;http://w3id.org/oseg/ont/1.1.0/okh&#45;meta</title>
<path fill="none" stroke="black" d="M201.79,-1473.9C276.14,-1475.11 389.59,-1476.95 468.31,-1478.22"/>
<polygon fill="black" stroke="black" points="468.64,-1481.73 478.69,-1478.39 468.75,-1474.73 468.64,-1481.73"/>
<text text-anchor="middle" x="344.32" y="-1480.47" font-family="Times,serif" font-size="14.00">owl:versionIRI</text>
</g>
<!-- http://w3id.org/oseg/ont/okhmeta&#45;&gt;http://w3id.org/oseg/ont/oseg&#45;profiles#robinVobruba -->
<g id="edge7" class="edge">
<title>http://w3id.org/oseg/ont/okhmeta&#45;&gt;http://w3id.org/oseg/ont/oseg&#45;profiles#robinVobruba</title>
<path fill="none" stroke="black" d="M191.58,-1464.49C215.69,-1461.57 243.23,-1458.34 268.32,-1455.67 328.62,-1449.25 396.09,-1442.9 450.69,-1437.98"/>
<polygon fill="black" stroke="black" points="451.08,-1441.46 460.73,-1437.08 450.46,-1434.49 451.08,-1441.46"/>
<text text-anchor="middle" x="344.32" y="-1459.47" font-family="Times,serif" font-size="14.00">dcterms:creator</text>
</g>
<!-- http://w3id.org/oseg/ont/okhmeta&#45;&gt;http://w3id.org/oseg/ont/oseg&#45;profiles#robinVobruba -->
<g id="edge36" class="edge">
<title>http://w3id.org/oseg/ont/okhmeta&#45;&gt;http://w3id.org/oseg/ont/oseg&#45;profiles#robinVobruba</title>
<path fill="none" stroke="black" d="M157.48,-1457.89C185.73,-1445.42 228.79,-1428.55 268.32,-1421.67 332.5,-1410.51 405.89,-1412.45 462.68,-1417.09"/>
<polygon fill="black" stroke="black" points="462.46,-1420.58 472.72,-1417.95 463.06,-1413.61 462.46,-1420.58"/>
<text text-anchor="middle" x="344.32" y="-1425.47" font-family="Times,serif" font-size="14.00">schema:creator</text>
</g>
<!-- http://w3id.org/oseg/ont/okhmeta&#45;&gt;http://w3id.org/oseg/ont/oseg&#45;profiles#Iopa -->
<g id="edge28" class="edge">
<title>http://w3id.org/oseg/ont/okhmeta&#45;&gt;http://w3id.org/oseg/ont/oseg&#45;profiles#Iopa</title>
<path fill="none" stroke="black" d="M147.43,-1456.76C174.08,-1437.82 221.93,-1407.07 268.32,-1393.67 334.63,-1374.51 412.97,-1371.3 471.38,-1372.44"/>
<polygon fill="black" stroke="black" points="471.6,-1375.95 481.68,-1372.69 471.77,-1368.95 471.6,-1375.95"/>
<text text-anchor="middle" x="344.32" y="-1397.47" font-family="Times,serif" font-size="14.00">dcterms:publisher</text>
</g>
<!-- http://w3id.org/oseg/ont/okhmeta&#45;&gt;http://spdx.org/licenses/GPL&#45;3.0&#45;or&#45;later -->
<g id="edge29" class="edge">
<title>http://w3id.org/oseg/ont/okhmeta&#45;&gt;http://spdx.org/licenses/GPL&#45;3.0&#45;or&#45;later</title>
<path fill="none" stroke="black" d="M139.51,-1456.6C162.62,-1430.07 212.95,-1377.73 268.32,-1354.67 323.22,-1331.8 388.9,-1324.06 443.79,-1322.36"/>
<polygon fill="black" stroke="black" points="443.99,-1325.86 453.9,-1322.11 443.82,-1318.86 443.99,-1325.86"/>
<text text-anchor="middle" x="344.32" y="-1358.47" font-family="Times,serif" font-size="14.00">spdx:licenseDeclared</text>
</g>
<!-- http://w3id.org/oseg/ont/okhmeta#QualityTag -->
<g id="node29" class="node">
<title>http://w3id.org/oseg/ont/okhmeta#QualityTag</title>
<ellipse fill="none" stroke="#e377c2" cx="125.16" cy="-967.67" rx="113.27" ry="16.03"/>
<text text-anchor="middle" x="125.16" y="-963.97" font-family="Times,serif" font-size="14.00">okhmeta:QualityTag</text>
</g>
<!-- http://w3id.org/oseg/ont/okhmeta#QualityTag&#45;&gt;http://w3id.org/oseg/ont/okhmeta#Tag -->
<g id="edge47" class="edge">
<title>http://w3id.org/oseg/ont/okhmeta#QualityTag&#45;&gt;http://w3id.org/oseg/ont/okhmeta#Tag</title>
<path fill="none" stroke="black" d="M212.23,-957.13C226.79,-951.65 240.39,-943.56 250.32,-931.67 275.23,-901.84 241.48,-785.8 268.32,-757.67 291.9,-732.95 387.88,-745.4 420.32,-734.67 458.52,-722.03 498.78,-699.34 525.73,-682.6"/>
<polygon fill="black" stroke="black" points="527.75,-685.47 534.34,-677.18 524.01,-679.55 527.75,-685.47"/>
<text text-anchor="middle" x="344.32" y="-761.47" font-family="Times,serif" font-size="14.00">a</text>
</g>
<!-- http://w3id.org/oseg/ont/okhmeta#QualityTag&#45;&gt;http://w3id.org/oseg/ont/okhmeta#MetaTag -->
<g id="edge10" class="edge">
<title>http://w3id.org/oseg/ont/okhmeta#QualityTag&#45;&gt;http://w3id.org/oseg/ont/okhmeta#MetaTag</title>
<path fill="none" stroke="black" d="M201.97,-979.62C340.79,-997.55 640.8,-1017.75 850.73,-898.67 893.16,-874.6 933.47,-834.23 956.78,-808.55"/>
<polygon fill="black" stroke="black" points="959.4,-810.87 963.45,-801.08 954.18,-806.21 959.4,-810.87"/>
<text text-anchor="middle" x="558.52" y="-997.47" font-family="Times,serif" font-size="14.00">okhmeta:hasMetaTag</text>
</g>
</g>
</svg>
