<?xml version="1.0" encoding="UTF-8" standalone="no"?>
<!DOCTYPE svg PUBLIC "-//W3C//DTD SVG 1.1//EN"
 "http://www.w3.org/Graphics/SVG/1.1/DTD/svg11.dtd">
<!-- Generated by graphviz version 2.43.0 (0)
 -->
<!-- Title: G Pages: 1 -->
<svg width="1632pt" height="915pt"
 viewBox="0.00 0.00 1632.00 915.00" xmlns="http://www.w3.org/2000/svg" xmlns:xlink="http://www.w3.org/1999/xlink">
<g id="graph0" class="graph" transform="scale(1 1) rotate(0) translate(4 911)">
<title>G</title>
<polygon fill="white" stroke="transparent" points="-4,4 -4,-911 1628,-911 1628,4 -4,4"/>
<!-- http://www.w3.org/2004/02/skos/core#Collection -->
<g id="node1" class="node">
<title>http://www.w3.org/2004/02/skos/core#Collection</title>
<ellipse fill="none" stroke="#e377c2" cx="681.64" cy="-271.57" rx="87.86" ry="16.03"/>
<text text-anchor="middle" x="681.64" y="-267.87" font-family="Times,serif" font-size="14.00">skos:Collection</text>
</g>
<!-- http://spdx.org/rdf/terms#SpdxItem -->
<g id="node2" class="node">
<title>http://spdx.org/rdf/terms#SpdxItem</title>
<ellipse fill="none" stroke="#1f77b4" cx="1225.07" cy="-628.56" rx="87.86" ry="16.03"/>
<text text-anchor="middle" x="1225.07" y="-624.86" font-family="Times,serif" font-size="14.00">spdx:SpdxItem</text>
</g>
<!-- http://w3id.org/oseg/ont/okhmeta#Tag -->
<g id="node3" class="node">
<title>http://w3id.org/oseg/ont/okhmeta#Tag</title>
<ellipse fill="none" stroke="#e377c2" cx="442.71" cy="-542.67" rx="76.24" ry="16.03"/>
<text text-anchor="middle" x="442.71" y="-538.97" font-family="Times,serif" font-size="14.00">okhmeta:Tag</text>
</g>
<!-- http://w3id.org/oseg/ont/okhmeta#Tag&#45;&gt;http://www.w3.org/2004/02/skos/core#Collection -->
<g id="edge46" class="edge">
<title>http://w3id.org/oseg/ont/okhmeta#Tag&#45;&gt;http://www.w3.org/2004/02/skos/core#Collection</title>
<path fill="none" stroke="black" d="M456.94,-526.52C497.36,-480.66 613.02,-349.44 660.7,-295.34"/>
<polygon fill="black" stroke="black" points="663.5,-297.45 667.49,-287.64 658.25,-292.82 663.5,-297.45"/>
</g>
<!-- http://www.w3.org/2004/02/skos/core#Concept -->
<g id="node4" class="node">
<title>http://www.w3.org/2004/02/skos/core#Concept</title>
<ellipse fill="none" stroke="#1f77b4" cx="766.56" cy="-416.76" rx="78.48" ry="16.03"/>
<text text-anchor="middle" x="766.56" y="-413.06" font-family="Times,serif" font-size="14.00">skos:Concept</text>
</g>
<!-- http://w3id.org/oseg/ont/okhmeta#Tag&#45;&gt;http://www.w3.org/2004/02/skos/core#Concept -->
<g id="edge27" class="edge">
<title>http://w3id.org/oseg/ont/okhmeta#Tag&#45;&gt;http://www.w3.org/2004/02/skos/core#Concept</title>
<path fill="none" stroke="black" d="M479.54,-528.35C538.76,-505.33 655.03,-460.12 719.94,-434.89"/>
<polygon fill="black" stroke="black" points="721.46,-438.05 729.51,-431.17 718.93,-431.53 721.46,-438.05"/>
<text text-anchor="middle" x="595.24" y="-470.42" font-family="Times,serif" font-size="14.00">a</text>
</g>
<!-- http://w3id.org/oseg/ont/okhmeta#MetaTag -->
<g id="node5" class="node">
<title>http://w3id.org/oseg/ont/okhmeta#MetaTag</title>
<ellipse fill="none" stroke="#e377c2" cx="507.51" cy="-498.92" rx="102.56" ry="16.03"/>
<text text-anchor="middle" x="507.51" y="-495.22" font-family="Times,serif" font-size="14.00">okhmeta:MetaTag</text>
</g>
<!-- http://w3id.org/oseg/ont/okhmeta#Tag&#45;&gt;http://w3id.org/oseg/ont/okhmeta#MetaTag -->
<g id="edge5" class="edge">
<title>http://w3id.org/oseg/ont/okhmeta#Tag&#45;&gt;http://w3id.org/oseg/ont/okhmeta#MetaTag</title>
<path fill="none" stroke="black" d="M476.6,-527.91C479.83,-525.79 483.04,-523.56 486.1,-521.33"/>
<polygon fill="black" stroke="black" points="488.43,-523.96 494.24,-515.1 484.17,-518.4 488.43,-523.96"/>
<text text-anchor="middle" x="404.35" y="-513.42" font-family="Times,serif" font-size="14.00">okhmeta:hasMetaTag</text>
</g>
<!-- http://w3id.org/oseg/ont/okhmeta#MetaTag&#45;&gt;http://w3id.org/oseg/ont/okhmeta#Tag -->
<g id="edge13" class="edge">
<title>http://w3id.org/oseg/ont/okhmeta#MetaTag&#45;&gt;http://w3id.org/oseg/ont/okhmeta#Tag</title>
<path fill="none" stroke="black" d="M472.47,-514.44C469.64,-516.32 466.84,-518.28 464.14,-520.24"/>
<polygon fill="black" stroke="black" points="461.84,-517.6 456.03,-526.45 466.1,-523.15 461.84,-517.6"/>
<text text-anchor="middle" x="463.81" y="-521.14" font-family="Times,serif" font-size="14.00">a</text>
</g>
<!-- http://w3id.org/oseg/ont/okhmeta#MetaTag&#45;&gt;http://w3id.org/oseg/ont/okhmeta#MetaTag -->
<g id="edge26" class="edge">
<title>http://w3id.org/oseg/ont/okhmeta#MetaTag&#45;&gt;http://w3id.org/oseg/ont/okhmeta#MetaTag</title>
<path fill="none" stroke="black" d="M602.5,-505.14C617.66,-504.23 628.04,-502.16 628.04,-498.92 628.04,-496.47 622.08,-494.69 612.59,-493.57"/>
<polygon fill="black" stroke="black" points="612.76,-490.07 602.5,-492.71 612.16,-497.05 612.76,-490.07"/>
<text text-anchor="middle" x="705.04" y="-495.22" font-family="Times,serif" font-size="14.00">okhmeta:hasMetaTag</text>
</g>
<!-- http://www.w3.org/2004/02/skos/core#member -->
<g id="node6" class="node">
<title>http://www.w3.org/2004/02/skos/core#member</title>
<ellipse fill="none" stroke="#e377c2" cx="1271.85" cy="-16.05" rx="79.39" ry="16.03"/>
<text text-anchor="middle" x="1271.85" y="-12.35" font-family="Times,serif" font-size="14.00">skos:member</text>
</g>
<!-- http://id.loc.gov/vocabulary/iso639&#45;1/en -->
<g id="node7" class="node">
<title>http://id.loc.gov/vocabulary/iso639&#45;1/en</title>
<ellipse fill="none" stroke="#e377c2" cx="1526.72" cy="-586.48" rx="45.01" ry="16.03"/>
<text text-anchor="middle" x="1526.72" y="-582.78" font-family="Times,serif" font-size="14.00">ns1:en</text>
</g>
<!-- http://w3id.org/oseg/ont/oseg&#45;profiles#robinVobruba -->
<g id="node8" class="node">
<title>http://w3id.org/oseg/ont/oseg&#45;profiles#robinVobruba</title>
<ellipse fill="none" stroke="#e377c2" cx="1378.48" cy="-419.75" rx="113.69" ry="16.03"/>
<text text-anchor="middle" x="1378.48" y="-416.05" font-family="Times,serif" font-size="14.00">osegprof:robinVob...</text>
</g>
<!-- http://w3id.org/oseg/ont/okhmeta#HistoryTag -->
<g id="node9" class="node">
<title>http://w3id.org/oseg/ont/okhmeta#HistoryTag</title>
<ellipse fill="none" stroke="#e377c2" cx="114.24" cy="-480.6" rx="113.69" ry="16.03"/>
<text text-anchor="middle" x="114.24" y="-476.9" font-family="Times,serif" font-size="14.00">okhmeta:HistoryTag</text>
</g>
<!-- http://w3id.org/oseg/ont/okhmeta#HistoryTag&#45;&gt;http://w3id.org/oseg/ont/okhmeta#Tag -->
<g id="edge6" class="edge">
<title>http://w3id.org/oseg/ont/okhmeta#HistoryTag&#45;&gt;http://w3id.org/oseg/ont/okhmeta#Tag</title>
<path fill="none" stroke="black" d="M183.1,-493.62C239.71,-504.31 319.46,-519.38 375.59,-529.99"/>
<polygon fill="black" stroke="black" points="374.96,-533.43 385.43,-531.85 376.26,-526.55 374.96,-533.43"/>
<text text-anchor="middle" x="274.85" y="-515.6" font-family="Times,serif" font-size="14.00">a</text>
</g>
<!-- http://w3id.org/oseg/ont/okhmeta#HistoryTag&#45;&gt;http://w3id.org/oseg/ont/okhmeta#MetaTag -->
<g id="edge40" class="edge">
<title>http://w3id.org/oseg/ont/okhmeta#HistoryTag&#45;&gt;http://w3id.org/oseg/ont/okhmeta#MetaTag</title>
<path fill="none" stroke="black" d="M222.49,-485.65C277.39,-488.2 343.9,-491.3 398.86,-493.86"/>
<polygon fill="black" stroke="black" points="398.83,-497.36 408.98,-494.33 399.16,-490.37 398.83,-497.36"/>
<text text-anchor="middle" x="310.67" y="-478.55" font-family="Times,serif" font-size="14.00">okhmeta:hasMetaTag</text>
</g>
<!-- http://w3id.org/oseg/ont/okhmeta#PhysicalTag -->
<g id="node10" class="node">
<title>http://w3id.org/oseg/ont/okhmeta#PhysicalTag</title>
<ellipse fill="none" stroke="#e377c2" cx="210.73" cy="-259.12" rx="118.17" ry="16.03"/>
<text text-anchor="middle" x="210.73" y="-255.42" font-family="Times,serif" font-size="14.00">okhmeta:PhysicalTag</text>
</g>
<!-- http://w3id.org/oseg/ont/okhmeta#PhysicalTag&#45;&gt;http://w3id.org/oseg/ont/okhmeta#Tag -->
<g id="edge8" class="edge">
<title>http://w3id.org/oseg/ont/okhmeta#PhysicalTag&#45;&gt;http://w3id.org/oseg/ont/okhmeta#Tag</title>
<path fill="none" stroke="black" d="M224.2,-275.59C263.3,-323.37 376.87,-462.19 422.94,-518.51"/>
<polygon fill="black" stroke="black" points="420.45,-520.98 429.49,-526.51 425.86,-516.55 420.45,-520.98"/>
<text text-anchor="middle" x="319.07" y="-400.85" font-family="Times,serif" font-size="14.00">a</text>
</g>
<!-- http://w3id.org/oseg/ont/okhmeta#PhysicalTag&#45;&gt;http://w3id.org/oseg/ont/okhmeta#MetaTag -->
<g id="edge41" class="edge">
<title>http://w3id.org/oseg/ont/okhmeta#PhysicalTag&#45;&gt;http://w3id.org/oseg/ont/okhmeta#MetaTag</title>
<path fill="none" stroke="black" d="M230.66,-275.22C282.3,-316.95 420.51,-428.62 479.83,-476.56"/>
<polygon fill="black" stroke="black" points="477.68,-479.32 487.66,-482.89 482.08,-473.88 477.68,-479.32"/>
<text text-anchor="middle" x="278.25" y="-379.69" font-family="Times,serif" font-size="14.00">okhmeta:hasMetaTag</text>
</g>
<!-- http://w3id.org/oseg/ont/okhmeta#LegalTag -->
<g id="node11" class="node">
<title>http://w3id.org/oseg/ont/okhmeta#LegalTag</title>
<ellipse fill="none" stroke="#e377c2" cx="729.4" cy="-706.8" rx="103.89" ry="16.03"/>
<text text-anchor="middle" x="729.4" y="-703.1" font-family="Times,serif" font-size="14.00">okhmeta:LegalTag</text>
</g>
<!-- http://w3id.org/oseg/ont/okhmeta#LegalTag&#45;&gt;http://w3id.org/oseg/ont/okhmeta#Tag -->
<g id="edge30" class="edge">
<title>http://w3id.org/oseg/ont/okhmeta#LegalTag&#45;&gt;http://w3id.org/oseg/ont/okhmeta#Tag</title>
<path fill="none" stroke="black" d="M701.91,-691.06C649.76,-661.21 536.51,-596.37 478.51,-563.17"/>
<polygon fill="black" stroke="black" points="480.11,-560.05 469.7,-558.12 476.64,-566.13 480.11,-560.05"/>
<text text-anchor="middle" x="585.71" y="-630.91" font-family="Times,serif" font-size="14.00">a</text>
</g>
<!-- http://w3id.org/oseg/ont/okhmeta#LegalTag&#45;&gt;http://w3id.org/oseg/ont/okhmeta#MetaTag -->
<g id="edge42" class="edge">
<title>http://w3id.org/oseg/ont/okhmeta#LegalTag&#45;&gt;http://w3id.org/oseg/ont/okhmeta#MetaTag</title>
<path fill="none" stroke="black" d="M711.99,-690.49C672.78,-653.75 577.45,-564.45 532.17,-522.03"/>
<polygon fill="black" stroke="black" points="534.53,-519.44 524.84,-515.16 529.74,-524.55 534.53,-519.44"/>
<text text-anchor="middle" x="545.08" y="-610.06" font-family="Times,serif" font-size="14.00">okhmeta:hasMetaTag</text>
</g>
<!-- http://w3id.org/oseg/ont/okhmeta#ExtendedInfoTag -->
<g id="node12" class="node">
<title>http://w3id.org/oseg/ont/okhmeta#ExtendedInfoTag</title>
<ellipse fill="none" stroke="#e377c2" cx="134.07" cy="-358.69" rx="120.42" ry="16.03"/>
<text text-anchor="middle" x="134.07" y="-354.99" font-family="Times,serif" font-size="14.00">okhmeta:ExtendedI...</text>
</g>
<!-- http://w3id.org/oseg/ont/okhmeta#ExtendedInfoTag&#45;&gt;http://w3id.org/oseg/ont/okhmeta#Tag -->
<g id="edge31" class="edge">
<title>http://w3id.org/oseg/ont/okhmeta#ExtendedInfoTag&#45;&gt;http://w3id.org/oseg/ont/okhmeta#Tag</title>
<path fill="none" stroke="black" d="M160.92,-374.7C216.97,-408.11 346.37,-485.24 408.37,-522.2"/>
<polygon fill="black" stroke="black" points="406.63,-525.24 417.01,-527.35 410.21,-519.22 406.63,-525.24"/>
<text text-anchor="middle" x="280.14" y="-452.25" font-family="Times,serif" font-size="14.00">a</text>
</g>
<!-- http://w3id.org/oseg/ont/okhmeta#ExtendedInfoTag&#45;&gt;http://w3id.org/oseg/ont/okhmeta#MetaTag -->
<g id="edge10" class="edge">
<title>http://w3id.org/oseg/ont/okhmeta#ExtendedInfoTag&#45;&gt;http://w3id.org/oseg/ont/okhmeta#MetaTag</title>
<path fill="none" stroke="black" d="M175.1,-374.1C244.19,-400.04 383.46,-452.34 457.92,-480.3"/>
<polygon fill="black" stroke="black" points="456.95,-483.67 467.54,-483.91 459.41,-477.12 456.95,-483.67"/>
<text text-anchor="middle" x="239.51" y="-431" font-family="Times,serif" font-size="14.00">okhmeta:hasMetaTag</text>
</g>
<!-- http://w3id.org/oseg/ont/okhmeta#BasicTag -->
<g id="node13" class="node">
<title>http://w3id.org/oseg/ont/okhmeta#BasicTag</title>
<ellipse fill="none" stroke="#e377c2" cx="813.36" cy="-564.97" rx="103.48" ry="16.03"/>
<text text-anchor="middle" x="813.36" y="-561.27" font-family="Times,serif" font-size="14.00">okhmeta:BasicTag</text>
</g>
<!-- http://w3id.org/oseg/ont/okhmeta#BasicTag&#45;&gt;http://w3id.org/oseg/ont/okhmeta#Tag -->
<g id="edge11" class="edge">
<title>http://w3id.org/oseg/ont/okhmeta#BasicTag&#45;&gt;http://w3id.org/oseg/ont/okhmeta#Tag</title>
<path fill="none" stroke="black" d="M716.46,-559.14C657.5,-555.59 582.94,-551.11 526.53,-547.71"/>
<polygon fill="black" stroke="black" points="526.4,-544.2 516.21,-547.09 525.98,-551.19 526.4,-544.2"/>
<text text-anchor="middle" x="616.99" y="-557.23" font-family="Times,serif" font-size="14.00">a</text>
</g>
<!-- http://w3id.org/oseg/ont/okhmeta#BasicTag&#45;&gt;http://w3id.org/oseg/ont/okhmeta#MetaTag -->
<g id="edge45" class="edge">
<title>http://w3id.org/oseg/ont/okhmeta#BasicTag&#45;&gt;http://w3id.org/oseg/ont/okhmeta#MetaTag</title>
<path fill="none" stroke="black" d="M752.2,-551.76C702,-540.92 630.88,-525.56 578.24,-514.2"/>
<polygon fill="black" stroke="black" points="578.81,-510.74 568.3,-512.05 577.34,-517.58 578.81,-510.74"/>
<text text-anchor="middle" x="742.22" y="-536.78" font-family="Times,serif" font-size="14.00">okhmeta:hasMetaTag</text>
</g>
<!-- http://w3id.org/oseg/ont/okhmeta#QualityTag -->
<g id="node14" class="node">
<title>http://w3id.org/oseg/ont/okhmeta#QualityTag</title>
<ellipse fill="none" stroke="#e377c2" cx="319.89" cy="-199.47" rx="113.27" ry="16.03"/>
<text text-anchor="middle" x="319.89" y="-195.77" font-family="Times,serif" font-size="14.00">okhmeta:QualityTag</text>
</g>
<!-- http://w3id.org/oseg/ont/okhmeta#QualityTag&#45;&gt;http://w3id.org/oseg/ont/okhmeta#Tag -->
<g id="edge32" class="edge">
<title>http://w3id.org/oseg/ont/okhmeta#QualityTag&#45;&gt;http://w3id.org/oseg/ont/okhmeta#Tag</title>
<path fill="none" stroke="black" d="M325.81,-216.02C345.59,-271.3 409.47,-449.78 433.47,-516.86"/>
<polygon fill="black" stroke="black" points="430.18,-518.05 436.84,-526.28 436.77,-515.69 430.18,-518.05"/>
<text text-anchor="middle" x="375.14" y="-370.24" font-family="Times,serif" font-size="14.00">a</text>
</g>
<!-- http://w3id.org/oseg/ont/okhmeta#QualityTag&#45;&gt;http://w3id.org/oseg/ont/okhmeta#MetaTag -->
<g id="edge16" class="edge">
<title>http://w3id.org/oseg/ont/okhmeta#QualityTag&#45;&gt;http://w3id.org/oseg/ont/okhmeta#MetaTag</title>
<path fill="none" stroke="black" d="M330.24,-215.99C361.38,-265.69 454.31,-414.01 491.68,-473.66"/>
<polygon fill="black" stroke="black" points="488.91,-475.83 497.19,-482.45 494.84,-472.11 488.91,-475.83"/>
<text text-anchor="middle" x="333.96" y="-348.63" font-family="Times,serif" font-size="14.00">okhmeta:hasMetaTag</text>
</g>
<!-- http://w3id.org/oseg/ont/okhmeta#PartsTag -->
<g id="node15" class="node">
<title>http://w3id.org/oseg/ont/okhmeta#PartsTag</title>
<ellipse fill="none" stroke="#e377c2" cx="565.82" cy="-890.38" rx="103.48" ry="16.03"/>
<text text-anchor="middle" x="565.82" y="-886.68" font-family="Times,serif" font-size="14.00">okhmeta:PartsTag</text>
</g>
<!-- http://w3id.org/oseg/ont/okhmeta#PartsTag&#45;&gt;http://w3id.org/oseg/ont/okhmeta#Tag -->
<g id="edge12" class="edge">
<title>http://w3id.org/oseg/ont/okhmeta#PartsTag&#45;&gt;http://w3id.org/oseg/ont/okhmeta#Tag</title>
<path fill="none" stroke="black" d="M560.04,-874.07C540.37,-818.52 475.87,-636.33 451.84,-568.45"/>
<polygon fill="black" stroke="black" points="455.11,-567.2 448.47,-558.94 448.51,-569.53 455.11,-567.2"/>
<text text-anchor="middle" x="501.44" y="-725.06" font-family="Times,serif" font-size="14.00">a</text>
</g>
<!-- http://w3id.org/oseg/ont/okhmeta#PartsTag&#45;&gt;http://w3id.org/oseg/ont/okhmeta#MetaTag -->
<g id="edge36" class="edge">
<title>http://w3id.org/oseg/ont/okhmeta#PartsTag&#45;&gt;http://w3id.org/oseg/ont/okhmeta#MetaTag</title>
<path fill="none" stroke="black" d="M563.38,-874.05C554.35,-813.37 522.63,-600.42 511.45,-525.35"/>
<polygon fill="black" stroke="black" points="514.89,-524.69 509.95,-515.31 507.96,-525.72 514.89,-524.69"/>
<text text-anchor="middle" x="460.42" y="-703.5" font-family="Times,serif" font-size="14.00">okhmeta:hasMetaTag</text>
</g>
<!-- http://w3id.org/oseg/ont/oseg&#45;profiles#Iopa -->
<g id="node16" class="node">
<title>http://w3id.org/oseg/ont/oseg&#45;profiles#Iopa</title>
<ellipse fill="none" stroke="#e377c2" cx="1401.55" cy="-501.39" rx="80.72" ry="16.03"/>
<text text-anchor="middle" x="1401.55" y="-497.69" font-family="Times,serif" font-size="14.00">osegprof:Iopa</text>
</g>
<!-- http://w3id.org/oseg/ont/okhmeta#hasMetaTag -->
<g id="node17" class="node">
<title>http://w3id.org/oseg/ont/okhmeta#hasMetaTag</title>
<ellipse fill="none" stroke="#e377c2" cx="936.88" cy="-230.68" rx="120.42" ry="16.03"/>
<text text-anchor="middle" x="936.88" y="-226.98" font-family="Times,serif" font-size="14.00">okhmeta:hasMetaTag</text>
</g>
<!-- http://w3id.org/oseg/ont/okhmeta#hasMetaTag&#45;&gt;http://www.w3.org/2004/02/skos/core#Concept -->
<g id="edge14" class="edge">
<title>http://w3id.org/oseg/ont/okhmeta#hasMetaTag&#45;&gt;http://www.w3.org/2004/02/skos/core#Concept</title>
<path fill="none" stroke="black" d="M922.07,-246.87C891.92,-279.81 823.33,-354.75 788.19,-393.13"/>
<polygon fill="black" stroke="black" points="785.4,-391 781.23,-400.74 790.56,-395.73 785.4,-391"/>
<text text-anchor="middle" x="850.63" y="-323.8" font-family="Times,serif" font-size="14.00">a</text>
</g>
<!-- http://w3id.org/oseg/ont/okhmeta#hasMetaTag&#45;&gt;http://w3id.org/oseg/ont/okhmeta#MetaTag -->
<g id="edge4" class="edge">
<title>http://w3id.org/oseg/ont/okhmeta#hasMetaTag&#45;&gt;http://w3id.org/oseg/ont/okhmeta#MetaTag</title>
<path fill="none" stroke="black" d="M904.75,-246.43C823.72,-292.21 612.26,-424.31 535.68,-477"/>
<polygon fill="black" stroke="black" points="533.65,-474.15 527.44,-482.73 537.65,-479.9 533.65,-474.15"/>
<text text-anchor="middle" x="643.21" y="-365.52" font-family="Times,serif" font-size="14.00">okhmeta:hasMetaTag</text>
</g>
<!-- http://w3id.org/oseg/ont/okhmeta#hasMetaTag&#45;&gt;http://w3id.org/oseg/ont/okhmeta#MetaTag -->
<g id="edge37" class="edge">
<title>http://w3id.org/oseg/ont/okhmeta#hasMetaTag&#45;&gt;http://w3id.org/oseg/ont/okhmeta#MetaTag</title>
<path fill="none" stroke="black" d="M916.97,-246.85C850.86,-293.41 638.02,-426.73 548.13,-478.33"/>
<polygon fill="black" stroke="black" points="546.28,-475.36 539.32,-483.35 549.74,-481.45 546.28,-475.36"/>
<text text-anchor="middle" x="812.55" y="-366.39" font-family="Times,serif" font-size="14.00">schema:rangeIncludes</text>
</g>
<!-- http://w3id.org/oseg/ont/okhmeta#hasMetaTag&#45;&gt;http://www.w3.org/2004/02/skos/core#member -->
<g id="edge1" class="edge">
<title>http://w3id.org/oseg/ont/okhmeta#hasMetaTag&#45;&gt;http://www.w3.org/2004/02/skos/core#member</title>
<path fill="none" stroke="black" d="M961.79,-214.73C1021.28,-176.61 1171.69,-80.23 1238.73,-37.28"/>
<polygon fill="black" stroke="black" points="1240.71,-40.17 1247.24,-31.82 1236.93,-34.27 1240.71,-40.17"/>
<text text-anchor="middle" x="1047.26" y="-129.8" font-family="Times,serif" font-size="14.00">subPropertyOf</text>
</g>
<!-- http://w3id.org/oseg/ont/okhmeta#IdentificationTag -->
<g id="node18" class="node">
<title>http://w3id.org/oseg/ont/okhmeta#IdentificationTag</title>
<ellipse fill="none" stroke="#e377c2" cx="336.41" cy="-860.49" rx="109.7" ry="16.03"/>
<text text-anchor="middle" x="336.41" y="-856.79" font-family="Times,serif" font-size="14.00">okhmeta:Identific...</text>
</g>
<!-- http://w3id.org/oseg/ont/okhmeta#IdentificationTag&#45;&gt;http://w3id.org/oseg/ont/okhmeta#Tag -->
<g id="edge15" class="edge">
<title>http://w3id.org/oseg/ont/okhmeta#IdentificationTag&#45;&gt;http://w3id.org/oseg/ont/okhmeta#Tag</title>
<path fill="none" stroke="black" d="M341.97,-843.85C359.37,-791.82 412.85,-631.96 433.98,-568.76"/>
<polygon fill="black" stroke="black" points="437.35,-569.74 437.2,-559.14 430.71,-567.52 437.35,-569.74"/>
<text text-anchor="middle" x="383.48" y="-695.11" font-family="Times,serif" font-size="14.00">a</text>
</g>
<!-- http://w3id.org/oseg/ont/okhmeta#IdentificationTag&#45;&gt;http://w3id.org/oseg/ont/okhmeta#MetaTag -->
<g id="edge28" class="edge">
<title>http://w3id.org/oseg/ont/okhmeta#IdentificationTag&#45;&gt;http://w3id.org/oseg/ont/okhmeta#MetaTag</title>
<path fill="none" stroke="black" d="M344.21,-844.01C371.37,-786.6 462.02,-595.05 495.2,-524.93"/>
<polygon fill="black" stroke="black" points="498.55,-526.03 499.67,-515.49 492.23,-523.04 498.55,-526.03"/>
<text text-anchor="middle" x="496.7" y="-673.27" font-family="Times,serif" font-size="14.00">okhmeta:hasMetaTag</text>
</g>
<!-- http://w3id.org/oseg/ont/1.1.0/okh&#45;meta -->
<g id="node19" class="node">
<title>http://w3id.org/oseg/ont/1.1.0/okh&#45;meta</title>
<ellipse fill="none" stroke="#e377c2" cx="1544.45" cy="-298.07" rx="79.81" ry="16.03"/>
<text text-anchor="middle" x="1544.45" y="-294.37" font-family="Times,serif" font-size="14.00">ns2:okh&#45;meta</text>
</g>
<!-- http://w3id.org/oseg/ont/okhmeta -->
<g id="node20" class="node">
<title>http://w3id.org/oseg/ont/okhmeta</title>
<ellipse fill="none" stroke="#e377c2" cx="1384.62" cy="-460.86" rx="76.24" ry="16.03"/>
<text text-anchor="middle" x="1384.62" y="-457.16" font-family="Times,serif" font-size="14.00">ns3:okhmeta</text>
</g>
<!-- http://w3id.org/oseg/ont/okhmeta&#45;&gt;http://spdx.org/rdf/terms#SpdxItem -->
<g id="edge21" class="edge">
<title>http://w3id.org/oseg/ont/okhmeta&#45;&gt;http://spdx.org/rdf/terms#SpdxItem</title>
<path fill="none" stroke="black" d="M1369.32,-476.94C1341.04,-506.66 1280.48,-570.32 1247.53,-604.95"/>
<polygon fill="black" stroke="black" points="1244.92,-602.62 1240.56,-612.28 1249.99,-607.45 1244.92,-602.62"/>
<text text-anchor="middle" x="1303.93" y="-544.74" font-family="Times,serif" font-size="14.00">a</text>
</g>
<!-- http://w3id.org/oseg/ont/okhmeta&#45;&gt;http://id.loc.gov/vocabulary/iso639&#45;1/en -->
<g id="edge3" class="edge">
<title>http://w3id.org/oseg/ont/okhmeta&#45;&gt;http://id.loc.gov/vocabulary/iso639&#45;1/en</title>
<path fill="none" stroke="black" d="M1402.61,-476.77C1427.74,-498.98 1473.42,-539.36 1501.8,-564.45"/>
<polygon fill="black" stroke="black" points="1499.5,-567.09 1509.31,-571.09 1504.14,-561.85 1499.5,-567.09"/>
<text text-anchor="middle" x="1387.71" y="-524.41" font-family="Times,serif" font-size="14.00">dcterms:language</text>
</g>
<!-- http://w3id.org/oseg/ont/okhmeta&#45;&gt;http://w3id.org/oseg/ont/oseg&#45;profiles#robinVobruba -->
<g id="edge29" class="edge">
<title>http://w3id.org/oseg/ont/okhmeta&#45;&gt;http://w3id.org/oseg/ont/oseg&#45;profiles#robinVobruba</title>
<path fill="none" stroke="black" d="M1388.81,-444.58C1388.8,-444.5 1388.8,-444.41 1388.79,-444.32"/>
<polygon fill="black" stroke="black" points="1392.49,-445.6 1387.68,-436.16 1385.56,-446.54 1392.49,-445.6"/>
<text text-anchor="middle" x="1446.3" y="-433.25" font-family="Times,serif" font-size="14.00">dcterms:creator</text>
</g>
<!-- http://w3id.org/oseg/ont/okhmeta&#45;&gt;http://w3id.org/oseg/ont/oseg&#45;profiles#robinVobruba -->
<g id="edge43" class="edge">
<title>http://w3id.org/oseg/ont/okhmeta&#45;&gt;http://w3id.org/oseg/ont/oseg&#45;profiles#robinVobruba</title>
<path fill="none" stroke="black" d="M1375.45,-444.65C1375.43,-444.56 1375.42,-444.47 1375.4,-444.38"/>
<polygon fill="black" stroke="black" points="1379.09,-445.59 1374.29,-436.14 1372.16,-446.52 1379.09,-445.59"/>
<text text-anchor="middle" x="1319.93" y="-433.31" font-family="Times,serif" font-size="14.00">schema:creator</text>
</g>
<!-- http://w3id.org/oseg/ont/okhmeta&#45;&gt;http://w3id.org/oseg/ont/oseg&#45;profiles#Iopa -->
<g id="edge34" class="edge">
<title>http://w3id.org/oseg/ont/okhmeta&#45;&gt;http://w3id.org/oseg/ont/oseg&#45;profiles#Iopa</title>
<path fill="none" stroke="black" d="M1391.5,-477.34C1391.57,-477.5 1391.64,-477.66 1391.7,-477.82"/>
<polygon fill="black" stroke="black" points="1387.64,-477.17 1394.72,-485.05 1394.1,-474.47 1387.64,-477.17"/>
<text text-anchor="middle" x="1326.1" y="-481.38" font-family="Times,serif" font-size="14.00">dcterms:publisher</text>
</g>
<!-- http://w3id.org/oseg/ont/okhmeta&#45;&gt;http://w3id.org/oseg/ont/1.1.0/okh&#45;meta -->
<g id="edge35" class="edge">
<title>http://w3id.org/oseg/ont/okhmeta&#45;&gt;http://w3id.org/oseg/ont/1.1.0/okh&#45;meta</title>
<path fill="none" stroke="black" d="M1400.53,-444.65C1428.89,-415.77 1488.29,-355.26 1521.22,-321.72"/>
<polygon fill="black" stroke="black" points="1524.09,-323.79 1528.6,-314.21 1519.1,-318.89 1524.09,-323.79"/>
<text text-anchor="middle" x="1409.37" y="-386.99" font-family="Times,serif" font-size="14.00">owl:versionIRI</text>
</g>
<!-- http://spdx.org/licenses/GPL&#45;3.0&#45;or&#45;later -->
<g id="node28" class="node">
<title>http://spdx.org/licenses/GPL&#45;3.0&#45;or&#45;later</title>
<ellipse fill="none" stroke="#e377c2" cx="1143.17" cy="-370.87" rx="108.79" ry="16.03"/>
<text text-anchor="middle" x="1143.17" y="-367.17" font-family="Times,serif" font-size="14.00">spdxl:GPL&#45;3.0&#45;or&#45;...</text>
</g>
<!-- http://w3id.org/oseg/ont/okhmeta&#45;&gt;http://spdx.org/licenses/GPL&#45;3.0&#45;or&#45;later -->
<g id="edge25" class="edge">
<title>http://w3id.org/oseg/ont/okhmeta&#45;&gt;http://spdx.org/licenses/GPL&#45;3.0&#45;or&#45;later</title>
<path fill="none" stroke="black" d="M1346.62,-446.7C1305.21,-431.26 1238.78,-406.5 1193.16,-389.5"/>
<polygon fill="black" stroke="black" points="1194.36,-386.21 1183.76,-386 1191.91,-392.77 1194.36,-386.21"/>
<text text-anchor="middle" x="1193.89" y="-406.9" font-family="Times,serif" font-size="14.00">spdx:licenseDeclared</text>
</g>
<!-- http://w3id.org/oseg/ont/okhmeta#TransportationTag -->
<g id="node21" class="node">
<title>http://w3id.org/oseg/ont/okhmeta#TransportationTag</title>
<ellipse fill="none" stroke="#e377c2" cx="164.81" cy="-715.2" rx="118.17" ry="16.03"/>
<text text-anchor="middle" x="164.81" y="-711.5" font-family="Times,serif" font-size="14.00">okhmeta:Transport...</text>
</g>
<!-- http://w3id.org/oseg/ont/okhmeta#TransportationTag&#45;&gt;http://w3id.org/oseg/ont/okhmeta#Tag -->
<g id="edge17" class="edge">
<title>http://w3id.org/oseg/ont/okhmeta#TransportationTag&#45;&gt;http://w3id.org/oseg/ont/okhmeta#Tag</title>
<path fill="none" stroke="black" d="M190.45,-699.28C240.96,-667.92 353.27,-598.19 409.41,-563.34"/>
<polygon fill="black" stroke="black" points="411.28,-566.3 417.93,-558.06 407.58,-560.36 411.28,-566.3"/>
<text text-anchor="middle" x="295.43" y="-635.11" font-family="Times,serif" font-size="14.00">a</text>
</g>
<!-- http://w3id.org/oseg/ont/okhmeta#TransportationTag&#45;&gt;http://w3id.org/oseg/ont/okhmeta#MetaTag -->
<g id="edge7" class="edge">
<title>http://w3id.org/oseg/ont/okhmeta#TransportationTag&#45;&gt;http://w3id.org/oseg/ont/okhmeta#MetaTag</title>
<path fill="none" stroke="black" d="M190.01,-699.3C250.66,-661.02 404.82,-563.73 473.55,-520.35"/>
<polygon fill="black" stroke="black" points="475.68,-523.15 482.27,-514.85 471.95,-517.23 475.68,-523.15"/>
<text text-anchor="middle" x="370.28" y="-598.62" font-family="Times,serif" font-size="14.00">okhmeta:hasMetaTag</text>
</g>
<!-- http://w3id.org/oseg/ont/okhmeta#DataGatheringTag -->
<g id="node22" class="node">
<title>http://w3id.org/oseg/ont/okhmeta#DataGatheringTag</title>
<ellipse fill="none" stroke="#e377c2" cx="438.64" cy="-141.98" rx="122.16" ry="16.03"/>
<text text-anchor="middle" x="438.64" y="-138.28" font-family="Times,serif" font-size="14.00">okhmeta:DataGathe...</text>
</g>
<!-- http://w3id.org/oseg/ont/okhmeta#DataGatheringTag&#45;&gt;http://w3id.org/oseg/ont/okhmeta#Tag -->
<g id="edge18" class="edge">
<title>http://w3id.org/oseg/ont/okhmeta#DataGatheringTag&#45;&gt;http://w3id.org/oseg/ont/okhmeta#Tag</title>
<path fill="none" stroke="black" d="M438.81,-158.43C439.44,-220.33 441.66,-439.56 442.44,-516.08"/>
<polygon fill="black" stroke="black" points="438.94,-516.33 442.54,-526.3 445.94,-516.26 438.94,-516.33"/>
<text text-anchor="middle" x="436.12" y="-341.06" font-family="Times,serif" font-size="14.00">a</text>
</g>
<!-- http://w3id.org/oseg/ont/okhmeta#DataGatheringTag&#45;&gt;http://w3id.org/oseg/ont/okhmeta#MetaTag -->
<g id="edge9" class="edge">
<title>http://w3id.org/oseg/ont/okhmeta#DataGatheringTag&#45;&gt;http://w3id.org/oseg/ont/okhmeta#MetaTag</title>
<path fill="none" stroke="black" d="M441.78,-158.24C452.67,-214.69 488.9,-402.47 502.39,-472.39"/>
<polygon fill="black" stroke="black" points="499.02,-473.41 504.35,-482.56 505.89,-472.08 499.02,-473.41"/>
<text text-anchor="middle" x="395.08" y="-319.12" font-family="Times,serif" font-size="14.00">okhmeta:hasMetaTag</text>
</g>
<!-- http://w3id.org/oseg/ont/okhmeta#DevelopmentTag -->
<g id="node23" class="node">
<title>http://w3id.org/oseg/ont/okhmeta#DevelopmentTag</title>
<ellipse fill="none" stroke="#e377c2" cx="228.46" cy="-816.31" rx="124.4" ry="16.03"/>
<text text-anchor="middle" x="228.46" y="-812.61" font-family="Times,serif" font-size="14.00">okhmeta:Developme...</text>
</g>
<!-- http://w3id.org/oseg/ont/okhmeta#DevelopmentTag&#45;&gt;http://w3id.org/oseg/ont/okhmeta#Tag -->
<g id="edge19" class="edge">
<title>http://w3id.org/oseg/ont/okhmeta#DevelopmentTag&#45;&gt;http://w3id.org/oseg/ont/okhmeta#Tag</title>
<path fill="none" stroke="black" d="M241.22,-800.01C277.39,-753.82 380.75,-621.81 423.67,-566.99"/>
<polygon fill="black" stroke="black" points="426.61,-568.91 430.02,-558.88 421.09,-564.6 426.61,-568.91"/>
<text text-anchor="middle" x="327.94" y="-687.3" font-family="Times,serif" font-size="14.00">a</text>
</g>
<!-- http://w3id.org/oseg/ont/okhmeta#DevelopmentTag&#45;&gt;http://w3id.org/oseg/ont/okhmeta#MetaTag -->
<g id="edge38" class="edge">
<title>http://w3id.org/oseg/ont/okhmeta#DevelopmentTag&#45;&gt;http://w3id.org/oseg/ont/okhmeta#MetaTag</title>
<path fill="none" stroke="black" d="M242.68,-800.14C288.49,-748.03 432.37,-584.38 486.57,-522.73"/>
<polygon fill="black" stroke="black" points="489.34,-524.89 493.32,-515.06 484.08,-520.26 489.34,-524.89"/>
<text text-anchor="middle" x="287.63" y="-665.23" font-family="Times,serif" font-size="14.00">okhmeta:hasMetaTag</text>
</g>
<!-- http://w3id.org/oseg/ont/okhmeta#AcademicTag -->
<g id="node24" class="node">
<title>http://w3id.org/oseg/ont/okhmeta#AcademicTag</title>
<ellipse fill="none" stroke="#e377c2" cx="553.6" cy="-819.14" rx="124.4" ry="16.03"/>
<text text-anchor="middle" x="553.6" y="-815.44" font-family="Times,serif" font-size="14.00">okhmeta:AcademicTag</text>
</g>
<!-- http://w3id.org/oseg/ont/okhmeta#AcademicTag&#45;&gt;http://w3id.org/oseg/ont/okhmeta#Tag -->
<g id="edge39" class="edge">
<title>http://w3id.org/oseg/ont/okhmeta#AcademicTag&#45;&gt;http://w3id.org/oseg/ont/okhmeta#Tag</title>
<path fill="none" stroke="black" d="M546.99,-802.67C528.43,-756.38 475.66,-624.82 453.12,-568.63"/>
<polygon fill="black" stroke="black" points="456.25,-567.03 449.28,-559.05 449.75,-569.63 456.25,-567.03"/>
<text text-anchor="middle" x="495.56" y="-689.45" font-family="Times,serif" font-size="14.00">a</text>
</g>
<!-- http://w3id.org/oseg/ont/okhmeta#AcademicTag&#45;&gt;http://w3id.org/oseg/ont/okhmeta#MetaTag -->
<g id="edge20" class="edge">
<title>http://w3id.org/oseg/ont/okhmeta#AcademicTag&#45;&gt;http://w3id.org/oseg/ont/okhmeta#MetaTag</title>
<path fill="none" stroke="black" d="M551.25,-802.82C543.78,-750.89 520.5,-589.17 511.3,-525.28"/>
<polygon fill="black" stroke="black" points="514.74,-524.61 509.85,-515.21 507.81,-525.61 514.74,-524.61"/>
<text text-anchor="middle" x="454.28" y="-652.85" font-family="Times,serif" font-size="14.00">okhmeta:hasMetaTag</text>
</g>
<!-- http://w3id.org/oseg/ont/okhmeta#DataTag -->
<g id="node25" class="node">
<title>http://w3id.org/oseg/ont/okhmeta#DataTag</title>
<ellipse fill="none" stroke="#e377c2" cx="559.32" cy="-200.75" rx="100.32" ry="16.03"/>
<text text-anchor="middle" x="559.32" y="-197.05" font-family="Times,serif" font-size="14.00">okhmeta:DataTag</text>
</g>
<!-- http://w3id.org/oseg/ont/okhmeta#DataTag&#45;&gt;http://w3id.org/oseg/ont/okhmeta#Tag -->
<g id="edge22" class="edge">
<title>http://w3id.org/oseg/ont/okhmeta#DataTag&#45;&gt;http://w3id.org/oseg/ont/okhmeta#Tag</title>
<path fill="none" stroke="black" d="M553.7,-217.24C534.96,-272.19 474.52,-449.4 451.62,-516.55"/>
<polygon fill="black" stroke="black" points="448.19,-515.75 448.28,-526.34 454.82,-518.01 448.19,-515.75"/>
<text text-anchor="middle" x="498.16" y="-370.69" font-family="Times,serif" font-size="14.00">a</text>
</g>
<!-- http://w3id.org/oseg/ont/okhmeta#DataTag&#45;&gt;http://w3id.org/oseg/ont/okhmeta#MetaTag -->
<g id="edge33" class="edge">
<title>http://w3id.org/oseg/ont/okhmeta#DataTag&#45;&gt;http://w3id.org/oseg/ont/okhmeta#MetaTag</title>
<path fill="none" stroke="black" d="M556.46,-217.2C547.92,-266.38 522.52,-412.55 512.07,-472.66"/>
<polygon fill="black" stroke="black" points="508.62,-472.06 510.36,-482.52 515.52,-473.26 508.62,-472.06"/>
<text text-anchor="middle" x="611.27" y="-348.73" font-family="Times,serif" font-size="14.00">okhmeta:hasMetaTag</text>
</g>
<!-- http://w3id.org/oseg/ont/okhmeta#DocumentationTag -->
<g id="node26" class="node">
<title>http://w3id.org/oseg/ont/okhmeta#DocumentationTag</title>
<ellipse fill="none" stroke="#e377c2" cx="814.39" cy="-773.41" rx="125.32" ry="16.03"/>
<text text-anchor="middle" x="814.39" y="-769.71" font-family="Times,serif" font-size="14.00">okhmeta:Documenta...</text>
</g>
<!-- http://w3id.org/oseg/ont/okhmeta#DocumentationTag&#45;&gt;http://w3id.org/oseg/ont/okhmeta#Tag -->
<g id="edge23" class="edge">
<title>http://w3id.org/oseg/ont/okhmeta#DocumentationTag&#45;&gt;http://w3id.org/oseg/ont/okhmeta#Tag</title>
<path fill="none" stroke="black" d="M788.55,-757.37C723.03,-716.7 550.41,-609.53 476.78,-563.82"/>
<polygon fill="black" stroke="black" points="478.23,-560.6 467.89,-558.3 474.54,-566.55 478.23,-560.6"/>
<text text-anchor="middle" x="628.16" y="-664.4" font-family="Times,serif" font-size="14.00">a</text>
</g>
<!-- http://w3id.org/oseg/ont/okhmeta#DocumentationTag&#45;&gt;http://w3id.org/oseg/ont/okhmeta#MetaTag -->
<g id="edge44" class="edge">
<title>http://w3id.org/oseg/ont/okhmeta#DocumentationTag&#45;&gt;http://w3id.org/oseg/ont/okhmeta#MetaTag</title>
<path fill="none" stroke="black" d="M796.11,-757.06C743.88,-710.34 593.82,-576.12 533.29,-521.98"/>
<polygon fill="black" stroke="black" points="535.48,-519.24 525.69,-515.18 530.81,-524.46 535.48,-519.24"/>
<text text-anchor="middle" x="741.7" y="-643.32" font-family="Times,serif" font-size="14.00">okhmeta:hasMetaTag</text>
</g>
<!-- http://w3id.org/oseg/ont/okhmeta#MakingTag -->
<g id="node27" class="node">
<title>http://w3id.org/oseg/ont/okhmeta#MakingTag</title>
<ellipse fill="none" stroke="#e377c2" cx="120.23" cy="-602.38" rx="113.69" ry="16.03"/>
<text text-anchor="middle" x="120.23" y="-598.68" font-family="Times,serif" font-size="14.00">okhmeta:MakingTag</text>
</g>
<!-- http://w3id.org/oseg/ont/okhmeta#MakingTag&#45;&gt;http://w3id.org/oseg/ont/okhmeta#Tag -->
<g id="edge24" class="edge">
<title>http://w3id.org/oseg/ont/okhmeta#MakingTag&#45;&gt;http://w3id.org/oseg/ont/okhmeta#Tag</title>
<path fill="none" stroke="black" d="M189.81,-589.5C244.63,-579.35 320.62,-565.28 374.96,-555.21"/>
<polygon fill="black" stroke="black" points="375.65,-558.65 384.84,-553.38 374.37,-551.76 375.65,-558.65"/>
<text text-anchor="middle" x="277.88" y="-576.16" font-family="Times,serif" font-size="14.00">a</text>
</g>
<!-- http://w3id.org/oseg/ont/okhmeta#MakingTag&#45;&gt;http://w3id.org/oseg/ont/okhmeta#MetaTag -->
<g id="edge2" class="edge">
<title>http://w3id.org/oseg/ont/okhmeta#MakingTag&#45;&gt;http://w3id.org/oseg/ont/okhmeta#MetaTag</title>
<path fill="none" stroke="black" d="M174.08,-588C245.19,-569 370.15,-535.62 445.24,-515.56"/>
<polygon fill="black" stroke="black" points="446.29,-518.9 455.05,-512.94 444.48,-512.14 446.29,-518.9"/>
<text text-anchor="middle" x="232.66" y="-555.58" font-family="Times,serif" font-size="14.00">okhmeta:hasMetaTag</text>
</g>
</g>
</svg>
