<?xml version="1.0" encoding="UTF-8" standalone="no"?>
<!DOCTYPE svg PUBLIC "-//W3C//DTD SVG 1.1//EN"
 "http://www.w3.org/Graphics/SVG/1.1/DTD/svg11.dtd">
<!-- Generated by graphviz version 2.43.0 (0)
 -->
<!-- Title: G Pages: 1 -->
<svg width="2023pt" height="1313pt"
 viewBox="0.00 0.00 2022.94 1312.53" xmlns="http://www.w3.org/2000/svg" xmlns:xlink="http://www.w3.org/1999/xlink">
<g id="graph0" class="graph" transform="scale(1 1) rotate(0) translate(4 1308.53)">
<title>G</title>
<polygon fill="white" stroke="transparent" points="-4,4 -4,-1308.53 2018.94,-1308.53 2018.94,4 -4,4"/>
<!-- http://w3id.org/oseg/ont/otrl#ODRL -->
<g id="node1" class="node">
<title>http://w3id.org/oseg/ont/otrl#ODRL</title>
<ellipse fill="none" stroke="#e377c2" cx="1891.9" cy="-691.26" rx="62.87" ry="16.03"/>
<text text-anchor="middle" x="1891.9" y="-687.56" font-family="Times,serif" font-size="14.00">otrl:ODRL</text>
</g>
<!-- http://spdx.org/rdf/terms#SpdxItem -->
<g id="node2" class="node">
<title>http://spdx.org/rdf/terms#SpdxItem</title>
<ellipse fill="none" stroke="#1f77b4" cx="792.8" cy="-1288.26" rx="87.86" ry="16.03"/>
<text text-anchor="middle" x="792.8" y="-1284.56" font-family="Times,serif" font-size="14.00">spdx:SpdxItem</text>
</g>
<!-- http://w3id.org/oseg/ont/otrl#OTRL -->
<g id="node3" class="node">
<title>http://w3id.org/oseg/ont/otrl#OTRL</title>
<ellipse fill="none" stroke="#e377c2" cx="1891.9" cy="-216.26" rx="60.62" ry="16.03"/>
<text text-anchor="middle" x="1891.9" y="-212.56" font-family="Times,serif" font-size="14.00">otrl:OTRL</text>
</g>
<!-- http://www.w3.org/2002/07/owl#DatatypeProperty -->
<g id="node4" class="node">
<title>http://www.w3.org/2002/07/owl#DatatypeProperty</title>
<ellipse fill="none" stroke="#1f77b4" cx="1891.9" cy="-380.26" rx="123.07" ry="16.03"/>
<text text-anchor="middle" x="1891.9" y="-376.56" font-family="Times,serif" font-size="14.00">owl:DatatypeProperty</text>
</g>
<!-- http://www.w3.org/2002/07/owl#Ontology -->
<g id="node5" class="node">
<title>http://www.w3.org/2002/07/owl#Ontology</title>
<ellipse fill="none" stroke="#1f77b4" cx="792.8" cy="-1237.26" rx="77.56" ry="16.03"/>
<text text-anchor="middle" x="792.8" y="-1233.56" font-family="Times,serif" font-size="14.00">owl:Ontology</text>
</g>
<!-- http://w3id.org/oseg/ont/otrl#OTRL3 -->
<g id="node6" class="node">
<title>http://w3id.org/oseg/ont/otrl#OTRL3</title>
<ellipse fill="none" stroke="#e377c2" cx="1387.61" cy="-220.26" rx="67.35" ry="16.03"/>
<text text-anchor="middle" x="1387.61" y="-216.56" font-family="Times,serif" font-size="14.00">otrl:OTRL3</text>
</g>
<!-- http://w3id.org/oseg/ont/otrl#OTRL3&#45;&gt;http://w3id.org/oseg/ont/otrl#OTRL -->
<g id="edge1" class="edge">
<title>http://w3id.org/oseg/ont/otrl#OTRL3&#45;&gt;http://w3id.org/oseg/ont/otrl#OTRL</title>
<path fill="none" stroke="black" d="M1454.65,-219.09C1494.17,-218.44 1545.39,-217.68 1590.87,-217.26 1669.53,-216.55 1759.79,-216.33 1820.6,-216.27"/>
<polygon fill="black" stroke="black" points="1820.85,-219.77 1830.85,-216.26 1820.84,-212.77 1820.85,-219.77"/>
<text text-anchor="middle" x="1670.87" y="-221.06" font-family="Times,serif" font-size="14.00">a</text>
</g>
<!-- http://w3id.org/oseg/ont/otrl -->
<g id="node7" class="node">
<title>http://w3id.org/oseg/ont/otrl</title>
<ellipse fill="none" stroke="#e377c2" cx="191.63" cy="-1104.26" rx="50.82" ry="16.03"/>
<text text-anchor="middle" x="191.63" y="-1100.56" font-family="Times,serif" font-size="14.00">ns1:otrl</text>
</g>
<!-- http://w3id.org/oseg/ont/otrl&#45;&gt;http://spdx.org/rdf/terms#SpdxItem -->
<g id="edge2" class="edge">
<title>http://w3id.org/oseg/ont/otrl&#45;&gt;http://spdx.org/rdf/terms#SpdxItem</title>
<path fill="none" stroke="black" d="M208.12,-1120.11C240.53,-1152.09 319.27,-1223.86 401.25,-1254.26 498.55,-1290.34 618.5,-1295.51 699.59,-1293.78"/>
<polygon fill="black" stroke="black" points="699.87,-1297.28 709.78,-1293.52 699.69,-1290.28 699.87,-1297.28"/>
<text text-anchor="middle" x="481.25" y="-1292.06" font-family="Times,serif" font-size="14.00">a</text>
</g>
<!-- http://w3id.org/oseg/ont/otrl&#45;&gt;http://www.w3.org/2002/07/owl#Ontology -->
<g id="edge34" class="edge">
<title>http://w3id.org/oseg/ont/otrl&#45;&gt;http://www.w3.org/2002/07/owl#Ontology</title>
<path fill="none" stroke="black" d="M214.29,-1118.84C250.94,-1142.63 328.35,-1189.17 401.25,-1209.26 503.53,-1237.45 626.26,-1241.68 706.49,-1240.68"/>
<polygon fill="black" stroke="black" points="706.6,-1244.18 716.55,-1240.53 706.49,-1237.18 706.6,-1244.18"/>
<text text-anchor="middle" x="481.25" y="-1239.06" font-family="Times,serif" font-size="14.00">a</text>
</g>
<!-- http://w3id.org/oseg/ont/oseg&#45;profiles#martinHaeuer -->
<g id="node9" class="node">
<title>http://w3id.org/oseg/ont/oseg&#45;profiles#martinHaeuer</title>
<ellipse fill="none" stroke="#e377c2" cx="792.8" cy="-1180.26" rx="116.85" ry="16.03"/>
<text text-anchor="middle" x="792.8" y="-1176.56" font-family="Times,serif" font-size="14.00">osegprof:martinHa...</text>
</g>
<!-- http://w3id.org/oseg/ont/otrl&#45;&gt;http://w3id.org/oseg/ont/oseg&#45;profiles#martinHaeuer -->
<g id="edge4" class="edge">
<title>http://w3id.org/oseg/ont/otrl&#45;&gt;http://w3id.org/oseg/ont/oseg&#45;profiles#martinHaeuer</title>
<path fill="none" stroke="black" d="M221.18,-1117.65C260.64,-1135.36 334.52,-1165.66 401.25,-1177.26 494.75,-1193.52 602.76,-1192.9 681.46,-1188.99"/>
<polygon fill="black" stroke="black" points="682.07,-1192.46 691.87,-1188.45 681.7,-1185.47 682.07,-1192.46"/>
<text text-anchor="middle" x="481.25" y="-1194.06" font-family="Times,serif" font-size="14.00">schema:creator</text>
</g>
<!-- http://w3id.org/oseg/ont/otrl&#45;&gt;http://w3id.org/oseg/ont/oseg&#45;profiles#martinHaeuer -->
<g id="edge21" class="edge">
<title>http://w3id.org/oseg/ont/otrl&#45;&gt;http://w3id.org/oseg/ont/oseg&#45;profiles#martinHaeuer</title>
<path fill="none" stroke="black" d="M239.14,-1110.16C336.89,-1122.56 565.32,-1151.54 695.84,-1168.09"/>
<polygon fill="black" stroke="black" points="695.48,-1171.57 705.84,-1169.36 696.36,-1164.63 695.48,-1171.57"/>
<text text-anchor="middle" x="481.25" y="-1152.06" font-family="Times,serif" font-size="14.00">dcterms:creator</text>
</g>
<!-- http://w3id.org/oseg/ont/oseg&#45;profiles#robinVobruba -->
<g id="node13" class="node">
<title>http://w3id.org/oseg/ont/oseg&#45;profiles#robinVobruba</title>
<ellipse fill="none" stroke="#e377c2" cx="792.8" cy="-1117.26" rx="113.69" ry="16.03"/>
<text text-anchor="middle" x="792.8" y="-1113.56" font-family="Times,serif" font-size="14.00">osegprof:robinVob...</text>
</g>
<!-- http://w3id.org/oseg/ont/otrl&#45;&gt;http://w3id.org/oseg/ont/oseg&#45;profiles#robinVobruba -->
<g id="edge9" class="edge">
<title>http://w3id.org/oseg/ont/otrl&#45;&gt;http://w3id.org/oseg/ont/oseg&#45;profiles#robinVobruba</title>
<path fill="none" stroke="black" d="M242.68,-1105.35C335.95,-1107.37 538.75,-1111.77 670.07,-1114.62"/>
<polygon fill="black" stroke="black" points="670.11,-1118.12 680.19,-1114.84 670.27,-1111.13 670.11,-1118.12"/>
<text text-anchor="middle" x="481.25" y="-1115.06" font-family="Times,serif" font-size="14.00">dcterms:creator</text>
</g>
<!-- http://w3id.org/oseg/ont/otrl&#45;&gt;http://w3id.org/oseg/ont/oseg&#45;profiles#robinVobruba -->
<g id="edge41" class="edge">
<title>http://w3id.org/oseg/ont/otrl&#45;&gt;http://w3id.org/oseg/ont/oseg&#45;profiles#robinVobruba</title>
<path fill="none" stroke="black" d="M240.63,-1099.83C282.89,-1096.16 346.09,-1091.24 401.25,-1089.26 472.32,-1086.71 490.27,-1084.97 561.25,-1089.26 608.57,-1092.13 661.05,-1098.27 703.98,-1104.07"/>
<polygon fill="black" stroke="black" points="703.73,-1107.57 714.11,-1105.46 704.68,-1100.63 703.73,-1107.57"/>
<text text-anchor="middle" x="481.25" y="-1093.06" font-family="Times,serif" font-size="14.00">schema:creator</text>
</g>
<!-- http://id.loc.gov/vocabulary/iso639&#45;1/en -->
<g id="node16" class="node">
<title>http://id.loc.gov/vocabulary/iso639&#45;1/en</title>
<ellipse fill="none" stroke="#e377c2" cx="792.8" cy="-1060.26" rx="45.01" ry="16.03"/>
<text text-anchor="middle" x="792.8" y="-1056.56" font-family="Times,serif" font-size="14.00">ns2:en</text>
</g>
<!-- http://w3id.org/oseg/ont/otrl&#45;&gt;http://id.loc.gov/vocabulary/iso639&#45;1/en -->
<g id="edge14" class="edge">
<title>http://w3id.org/oseg/ont/otrl&#45;&gt;http://id.loc.gov/vocabulary/iso639&#45;1/en</title>
<path fill="none" stroke="black" d="M233.92,-1094.95C275.82,-1085.98 342.67,-1072.95 401.25,-1067.26 520.67,-1055.68 661.57,-1056.76 737.22,-1058.54"/>
<polygon fill="black" stroke="black" points="737.36,-1062.04 747.45,-1058.79 737.54,-1055.04 737.36,-1062.04"/>
<text text-anchor="middle" x="481.25" y="-1071.06" font-family="Times,serif" font-size="14.00">dcterms:language</text>
</g>
<!-- http://spdx.org/licenses/GPL&#45;3.0&#45;or&#45;later -->
<g id="node22" class="node">
<title>http://spdx.org/licenses/GPL&#45;3.0&#45;or&#45;later</title>
<ellipse fill="none" stroke="#e377c2" cx="792.8" cy="-1009.26" rx="108.79" ry="16.03"/>
<text text-anchor="middle" x="792.8" y="-1005.56" font-family="Times,serif" font-size="14.00">spdxl:GPL&#45;3.0&#45;or&#45;...</text>
</g>
<!-- http://w3id.org/oseg/ont/otrl&#45;&gt;http://spdx.org/licenses/GPL&#45;3.0&#45;or&#45;later -->
<g id="edge25" class="edge">
<title>http://w3id.org/oseg/ont/otrl&#45;&gt;http://spdx.org/licenses/GPL&#45;3.0&#45;or&#45;later</title>
<path fill="none" stroke="black" d="M224.57,-1091.83C265.02,-1076.67 337.17,-1051.55 401.25,-1039.26 491.86,-1021.9 596.1,-1014.51 674.09,-1011.41"/>
<polygon fill="black" stroke="black" points="674.58,-1014.89 684.44,-1011.01 674.31,-1007.9 674.58,-1014.89"/>
<text text-anchor="middle" x="481.25" y="-1043.06" font-family="Times,serif" font-size="14.00">spdx:licenseDeclared</text>
</g>
<!-- http://w3id.org/oseg/ont/oseg&#45;profiles#Iopa -->
<g id="node23" class="node">
<title>http://w3id.org/oseg/ont/oseg&#45;profiles#Iopa</title>
<ellipse fill="none" stroke="#e377c2" cx="792.8" cy="-958.26" rx="80.72" ry="16.03"/>
<text text-anchor="middle" x="792.8" y="-954.56" font-family="Times,serif" font-size="14.00">osegprof:Iopa</text>
</g>
<!-- http://w3id.org/oseg/ont/otrl&#45;&gt;http://w3id.org/oseg/ont/oseg&#45;profiles#Iopa -->
<g id="edge27" class="edge">
<title>http://w3id.org/oseg/ont/otrl&#45;&gt;http://w3id.org/oseg/ont/oseg&#45;profiles#Iopa</title>
<path fill="none" stroke="black" d="M214.96,-1089.58C251.96,-1066.06 329.08,-1020.44 401.25,-999.26 501.47,-969.85 621.6,-960.96 701.92,-958.56"/>
<polygon fill="black" stroke="black" points="702.11,-962.06 712.01,-958.29 701.92,-955.06 702.11,-962.06"/>
<text text-anchor="middle" x="481.25" y="-1003.06" font-family="Times,serif" font-size="14.00">dcterms:publisher</text>
</g>
<!-- http://w3id.org/oseg/ont/1.1.0/otrl -->
<g id="node24" class="node">
<title>http://w3id.org/oseg/ont/1.1.0/otrl</title>
<ellipse fill="none" stroke="#e377c2" cx="792.8" cy="-907.26" rx="50.82" ry="16.03"/>
<text text-anchor="middle" x="792.8" y="-903.56" font-family="Times,serif" font-size="14.00">ns3:otrl</text>
</g>
<!-- http://w3id.org/oseg/ont/otrl&#45;&gt;http://w3id.org/oseg/ont/1.1.0/otrl -->
<g id="edge29" class="edge">
<title>http://w3id.org/oseg/ont/otrl&#45;&gt;http://w3id.org/oseg/ont/1.1.0/otrl</title>
<path fill="none" stroke="black" d="M207.57,-1088.52C239.55,-1055.98 318.48,-981.66 401.25,-949.26 512.17,-905.85 653.53,-902.13 732.16,-904.14"/>
<polygon fill="black" stroke="black" points="732.26,-907.65 742.36,-904.44 732.47,-900.65 732.26,-907.65"/>
<text text-anchor="middle" x="481.25" y="-953.06" font-family="Times,serif" font-size="14.00">owl:versionIRI</text>
</g>
<!-- http://w3id.org/oseg/ont/otrl#OTRL4 -->
<g id="node8" class="node">
<title>http://w3id.org/oseg/ont/otrl#OTRL4</title>
<ellipse fill="none" stroke="#e377c2" cx="1387.61" cy="-169.26" rx="67.35" ry="16.03"/>
<text text-anchor="middle" x="1387.61" y="-165.56" font-family="Times,serif" font-size="14.00">otrl:OTRL4</text>
</g>
<!-- http://w3id.org/oseg/ont/otrl#OTRL4&#45;&gt;http://w3id.org/oseg/ont/otrl#OTRL -->
<g id="edge10" class="edge">
<title>http://w3id.org/oseg/ont/otrl#OTRL4&#45;&gt;http://w3id.org/oseg/ont/otrl#OTRL</title>
<path fill="none" stroke="black" d="M1452.82,-173.47C1525.3,-178.44 1646.7,-187.41 1750.87,-198.26 1776.04,-200.89 1803.69,-204.32 1827.72,-207.49"/>
<polygon fill="black" stroke="black" points="1827.4,-210.98 1837.78,-208.83 1828.33,-204.04 1827.4,-210.98"/>
<text text-anchor="middle" x="1670.87" y="-202.06" font-family="Times,serif" font-size="14.00">a</text>
</g>
<!-- http://w3id.org/oseg/ont/otrl#ODRL3Star -->
<g id="node10" class="node">
<title>http://w3id.org/oseg/ont/otrl#ODRL3Star</title>
<ellipse fill="none" stroke="#e377c2" cx="1387.61" cy="-703.26" rx="90.52" ry="16.03"/>
<text text-anchor="middle" x="1387.61" y="-699.56" font-family="Times,serif" font-size="14.00">otrl:ODRL3Star</text>
</g>
<!-- http://w3id.org/oseg/ont/otrl#ODRL3Star&#45;&gt;http://w3id.org/oseg/ont/otrl#ODRL -->
<g id="edge42" class="edge">
<title>http://w3id.org/oseg/ont/otrl#ODRL3Star&#45;&gt;http://w3id.org/oseg/ont/otrl#ODRL</title>
<path fill="none" stroke="black" d="M1477.54,-701.14C1574.81,-698.82 1728.82,-695.14 1818.84,-692.99"/>
<polygon fill="black" stroke="black" points="1819.05,-696.48 1828.96,-692.74 1818.88,-689.48 1819.05,-696.48"/>
<text text-anchor="middle" x="1670.87" y="-703.06" font-family="Times,serif" font-size="14.00">a</text>
</g>
<!-- http://w3id.org/oseg/ont/otrl#ODRL3 -->
<g id="node11" class="node">
<title>http://w3id.org/oseg/ont/otrl#ODRL3</title>
<ellipse fill="none" stroke="#e377c2" cx="1387.61" cy="-652.26" rx="69.09" ry="16.03"/>
<text text-anchor="middle" x="1387.61" y="-648.56" font-family="Times,serif" font-size="14.00">otrl:ODRL3</text>
</g>
<!-- http://w3id.org/oseg/ont/otrl#ODRL3&#45;&gt;http://w3id.org/oseg/ont/otrl#ODRL -->
<g id="edge7" class="edge">
<title>http://w3id.org/oseg/ont/otrl#ODRL3&#45;&gt;http://w3id.org/oseg/ont/otrl#ODRL</title>
<path fill="none" stroke="black" d="M1455.44,-655.88C1528.18,-660 1647.88,-667.34 1750.87,-676.26 1774.74,-678.33 1800.86,-681.01 1824,-683.54"/>
<polygon fill="black" stroke="black" points="1823.74,-687.03 1834.06,-684.65 1824.51,-680.07 1823.74,-687.03"/>
<text text-anchor="middle" x="1670.87" y="-680.06" font-family="Times,serif" font-size="14.00">a</text>
</g>
<!-- http://w3id.org/oseg/ont/otrl#OTRL5 -->
<g id="node12" class="node">
<title>http://w3id.org/oseg/ont/otrl#OTRL5</title>
<ellipse fill="none" stroke="#e377c2" cx="1387.61" cy="-118.26" rx="67.35" ry="16.03"/>
<text text-anchor="middle" x="1387.61" y="-114.56" font-family="Times,serif" font-size="14.00">otrl:OTRL5</text>
</g>
<!-- http://w3id.org/oseg/ont/otrl#OTRL5&#45;&gt;http://w3id.org/oseg/ont/otrl#OTRL -->
<g id="edge8" class="edge">
<title>http://w3id.org/oseg/ont/otrl#OTRL5&#45;&gt;http://w3id.org/oseg/ont/otrl#OTRL</title>
<path fill="none" stroke="black" d="M1452.86,-122.31C1525.9,-127.89 1648.28,-140.25 1750.87,-165.26 1785.05,-173.6 1822.42,-187.46 1849.96,-198.64"/>
<polygon fill="black" stroke="black" points="1848.69,-201.9 1859.27,-202.46 1851.35,-195.42 1848.69,-201.9"/>
<text text-anchor="middle" x="1670.87" y="-169.06" font-family="Times,serif" font-size="14.00">a</text>
</g>
<!-- http://w3id.org/oseg/ont/otrl#ODRL2 -->
<g id="node14" class="node">
<title>http://w3id.org/oseg/ont/otrl#ODRL2</title>
<ellipse fill="none" stroke="#e377c2" cx="1387.61" cy="-601.26" rx="69.09" ry="16.03"/>
<text text-anchor="middle" x="1387.61" y="-597.56" font-family="Times,serif" font-size="14.00">otrl:ODRL2</text>
</g>
<!-- http://w3id.org/oseg/ont/otrl#ODRL2&#45;&gt;http://w3id.org/oseg/ont/otrl#ODRL -->
<g id="edge37" class="edge">
<title>http://w3id.org/oseg/ont/otrl#ODRL2&#45;&gt;http://w3id.org/oseg/ont/otrl#ODRL</title>
<path fill="none" stroke="black" d="M1454.35,-605.71C1527.42,-611.51 1648.6,-623.69 1750.87,-646.26 1783.29,-653.42 1818.91,-664.92 1846.11,-674.5"/>
<polygon fill="black" stroke="black" points="1845.13,-677.87 1855.72,-677.93 1847.48,-671.27 1845.13,-677.87"/>
<text text-anchor="middle" x="1670.87" y="-650.06" font-family="Times,serif" font-size="14.00">a</text>
</g>
<!-- http://w3id.org/oseg/ont/otrl#ODRL4 -->
<g id="node15" class="node">
<title>http://w3id.org/oseg/ont/otrl#ODRL4</title>
<ellipse fill="none" stroke="#e377c2" cx="1387.61" cy="-856.26" rx="69.09" ry="16.03"/>
<text text-anchor="middle" x="1387.61" y="-852.56" font-family="Times,serif" font-size="14.00">otrl:ODRL4</text>
</g>
<!-- http://w3id.org/oseg/ont/otrl#ODRL4&#45;&gt;http://w3id.org/oseg/ont/otrl#ODRL -->
<g id="edge13" class="edge">
<title>http://w3id.org/oseg/ont/otrl#ODRL4&#45;&gt;http://w3id.org/oseg/ont/otrl#ODRL</title>
<path fill="none" stroke="black" d="M1456.37,-858.34C1531.5,-858.18 1654.74,-850.49 1750.87,-808.26 1799.97,-786.69 1845.37,-742.49 1870.49,-715.02"/>
<polygon fill="black" stroke="black" points="1873.25,-717.19 1877.32,-707.41 1868.04,-712.51 1873.25,-717.19"/>
<text text-anchor="middle" x="1670.87" y="-853.06" font-family="Times,serif" font-size="14.00">a</text>
</g>
<!-- http://w3id.org/oseg/ont/otrl#OTRL1 -->
<g id="node17" class="node">
<title>http://w3id.org/oseg/ont/otrl#OTRL1</title>
<ellipse fill="none" stroke="#e377c2" cx="1387.61" cy="-67.26" rx="67.35" ry="16.03"/>
<text text-anchor="middle" x="1387.61" y="-63.56" font-family="Times,serif" font-size="14.00">otrl:OTRL1</text>
</g>
<!-- http://w3id.org/oseg/ont/otrl#OTRL1&#45;&gt;http://w3id.org/oseg/ont/otrl#OTRL -->
<g id="edge17" class="edge">
<title>http://w3id.org/oseg/ont/otrl#OTRL1&#45;&gt;http://w3id.org/oseg/ont/otrl#OTRL</title>
<path fill="none" stroke="black" d="M1455.07,-67.41C1529.57,-69.65 1652.77,-79.62 1750.87,-118.26 1795.91,-136 1840.41,-170.93 1866.77,-193.93"/>
<polygon fill="black" stroke="black" points="1864.54,-196.64 1874.35,-200.66 1869.19,-191.4 1864.54,-196.64"/>
<text text-anchor="middle" x="1670.87" y="-122.06" font-family="Times,serif" font-size="14.00">a</text>
</g>
<!-- http://w3id.org/oseg/ont/otrl#OTRL2 -->
<g id="node18" class="node">
<title>http://w3id.org/oseg/ont/otrl#OTRL2</title>
<ellipse fill="none" stroke="#e377c2" cx="1387.61" cy="-16.26" rx="67.35" ry="16.03"/>
<text text-anchor="middle" x="1387.61" y="-12.56" font-family="Times,serif" font-size="14.00">otrl:OTRL2</text>
</g>
<!-- http://w3id.org/oseg/ont/otrl#OTRL2&#45;&gt;http://w3id.org/oseg/ont/otrl#OTRL -->
<g id="edge18" class="edge">
<title>http://w3id.org/oseg/ont/otrl#OTRL2&#45;&gt;http://w3id.org/oseg/ont/otrl#OTRL</title>
<path fill="none" stroke="black" d="M1451.76,-11.23C1527.28,-8.01 1655.44,-11.6 1750.87,-61.26 1808.75,-91.38 1854.44,-155.73 1876.49,-191.31"/>
<polygon fill="black" stroke="black" points="1873.65,-193.38 1881.82,-200.12 1879.64,-189.75 1873.65,-193.38"/>
<text text-anchor="middle" x="1670.87" y="-65.06" font-family="Times,serif" font-size="14.00">a</text>
</g>
<!-- http://w3id.org/oseg/ont/otrl#OTRL6 -->
<g id="node19" class="node">
<title>http://w3id.org/oseg/ont/otrl#OTRL6</title>
<ellipse fill="none" stroke="#e377c2" cx="1387.61" cy="-322.26" rx="67.35" ry="16.03"/>
<text text-anchor="middle" x="1387.61" y="-318.56" font-family="Times,serif" font-size="14.00">otrl:OTRL6</text>
</g>
<!-- http://w3id.org/oseg/ont/otrl#OTRL6&#45;&gt;http://w3id.org/oseg/ont/otrl#OTRL -->
<g id="edge19" class="edge">
<title>http://w3id.org/oseg/ont/otrl#OTRL6&#45;&gt;http://w3id.org/oseg/ont/otrl#OTRL</title>
<path fill="none" stroke="black" d="M1446.75,-314.44C1483.05,-309.46 1530.72,-302.75 1572.87,-296.26 1580.88,-295.03 1582.86,-294.53 1590.87,-293.26 1661.89,-282.02 1681.29,-287.43 1750.87,-269.26 1785.29,-260.28 1822.93,-245.75 1850.51,-234.18"/>
<polygon fill="black" stroke="black" points="1851.99,-237.35 1859.83,-230.22 1849.26,-230.91 1851.99,-237.35"/>
<text text-anchor="middle" x="1670.87" y="-297.06" font-family="Times,serif" font-size="14.00">a</text>
</g>
<!-- http://w3id.org/oseg/ont/otrl#goal -->
<g id="node20" class="node">
<title>http://w3id.org/oseg/ont/otrl#goal</title>
<ellipse fill="none" stroke="#e377c2" cx="1387.61" cy="-519.26" rx="54.39" ry="16.03"/>
<text text-anchor="middle" x="1387.61" y="-515.56" font-family="Times,serif" font-size="14.00">otrl:goal</text>
</g>
<!-- http://w3id.org/oseg/ont/otrl#goal&#45;&gt;http://w3id.org/oseg/ont/otrl#ODRL -->
<g id="edge31" class="edge">
<title>http://w3id.org/oseg/ont/otrl#goal&#45;&gt;http://w3id.org/oseg/ont/otrl#ODRL</title>
<path fill="none" stroke="black" d="M1432.8,-528.37C1522.84,-547.05 1721.58,-588.99 1750.87,-601.26 1792.96,-618.91 1836.4,-649.03 1863.52,-669.52"/>
<polygon fill="black" stroke="black" points="1861.66,-672.5 1871.73,-675.81 1865.92,-666.95 1861.66,-672.5"/>
<text text-anchor="middle" x="1670.87" y="-605.06" font-family="Times,serif" font-size="14.00">dcam:domainIncludes</text>
</g>
<!-- http://w3id.org/oseg/ont/otrl#goal&#45;&gt;http://w3id.org/oseg/ont/otrl#OTRL -->
<g id="edge20" class="edge">
<title>http://w3id.org/oseg/ont/otrl#goal&#45;&gt;http://w3id.org/oseg/ont/otrl#OTRL</title>
<path fill="none" stroke="black" d="M1425.1,-507.29C1464.52,-493.1 1527.73,-466.58 1572.87,-429.26 1583.14,-420.77 1579.36,-411.99 1590.87,-405.26 1652.79,-369.07 1690.6,-423.14 1750.87,-384.26 1763.62,-376.04 1759.83,-367.45 1768.87,-355.26 1800.72,-312.3 1842.79,-266.4 1868.29,-239.58"/>
<polygon fill="black" stroke="black" points="1870.95,-241.86 1875.33,-232.21 1865.89,-237.02 1870.95,-241.86"/>
<text text-anchor="middle" x="1670.87" y="-409.06" font-family="Times,serif" font-size="14.00">dcam:domainIncludes</text>
</g>
<!-- http://w3id.org/oseg/ont/otrl#goal&#45;&gt;http://www.w3.org/2002/07/owl#DatatypeProperty -->
<g id="edge22" class="edge">
<title>http://w3id.org/oseg/ont/otrl#goal&#45;&gt;http://www.w3.org/2002/07/owl#DatatypeProperty</title>
<path fill="none" stroke="black" d="M1434.32,-510.68C1475.27,-503.09 1536.99,-491.93 1590.87,-483.26 1661.8,-471.86 1682.92,-483.6 1750.87,-460.26 1791.25,-446.39 1833.21,-420.66 1860.54,-402.12"/>
<polygon fill="black" stroke="black" points="1862.63,-404.93 1868.88,-396.38 1858.66,-399.16 1862.63,-404.93"/>
<text text-anchor="middle" x="1670.87" y="-487.06" font-family="Times,serif" font-size="14.00">a</text>
</g>
<!-- http://www.w3.org/1999/02/22&#45;rdf&#45;syntax&#45;ns#langString -->
<g id="node21" class="node">
<title>http://www.w3.org/1999/02/22&#45;rdf&#45;syntax&#45;ns#langString</title>
<ellipse fill="none" stroke="#e377c2" cx="1891.9" cy="-501.26" rx="83.38" ry="16.03"/>
<text text-anchor="middle" x="1891.9" y="-497.56" font-family="Times,serif" font-size="14.00">rdf:langString</text>
</g>
<!-- http://w3id.org/oseg/ont/otrl#goal&#45;&gt;http://www.w3.org/1999/02/22&#45;rdf&#45;syntax&#45;ns#langString -->
<g id="edge23" class="edge">
<title>http://w3id.org/oseg/ont/otrl#goal&#45;&gt;http://www.w3.org/1999/02/22&#45;rdf&#45;syntax&#45;ns#langString</title>
<path fill="none" stroke="black" d="M1436.27,-526.61C1505.73,-536.16 1638.7,-550.07 1750.87,-536.26 1779.98,-532.68 1811.75,-525.06 1837.65,-517.84"/>
<polygon fill="black" stroke="black" points="1838.62,-521.2 1847.28,-515.1 1836.7,-514.47 1838.62,-521.2"/>
<text text-anchor="middle" x="1670.87" y="-546.06" font-family="Times,serif" font-size="14.00">range</text>
</g>
<!-- http://w3id.org/oseg/ont/otrl#exitCriteria -->
<g id="node25" class="node">
<title>http://w3id.org/oseg/ont/otrl#exitCriteria</title>
<ellipse fill="none" stroke="#e377c2" cx="1387.61" cy="-404.26" rx="91.43" ry="16.03"/>
<text text-anchor="middle" x="1387.61" y="-400.56" font-family="Times,serif" font-size="14.00">otrl:exitCriteria</text>
</g>
<!-- http://w3id.org/oseg/ont/otrl#exitCriteria&#45;&gt;http://w3id.org/oseg/ont/otrl#ODRL -->
<g id="edge24" class="edge">
<title>http://w3id.org/oseg/ont/otrl#exitCriteria&#45;&gt;http://w3id.org/oseg/ont/otrl#ODRL</title>
<path fill="none" stroke="black" d="M1415.03,-419.88C1452.68,-441.35 1524.56,-479.44 1590.87,-498.26 1659.76,-517.82 1688.22,-482.58 1750.87,-517.26 1813.26,-551.81 1858.28,-626.52 1878.69,-665.86"/>
<polygon fill="black" stroke="black" points="1875.7,-667.71 1883.34,-675.05 1881.95,-664.55 1875.7,-667.71"/>
<text text-anchor="middle" x="1670.87" y="-521.06" font-family="Times,serif" font-size="14.00">dcam:domainIncludes</text>
</g>
<!-- http://w3id.org/oseg/ont/otrl#exitCriteria&#45;&gt;http://w3id.org/oseg/ont/otrl#OTRL -->
<g id="edge16" class="edge">
<title>http://w3id.org/oseg/ont/otrl#exitCriteria&#45;&gt;http://w3id.org/oseg/ont/otrl#OTRL</title>
<path fill="none" stroke="black" d="M1435.88,-390.43C1476.79,-378.58 1537.59,-361.26 1590.87,-347.26 1661.66,-328.67 1683.75,-337.45 1750.87,-308.26 1792.99,-289.95 1836.43,-259.22 1863.54,-238.37"/>
<polygon fill="black" stroke="black" points="1866,-240.88 1871.74,-231.97 1861.7,-235.36 1866,-240.88"/>
<text text-anchor="middle" x="1670.87" y="-351.06" font-family="Times,serif" font-size="14.00">dcam:domainIncludes</text>
</g>
<!-- http://w3id.org/oseg/ont/otrl#exitCriteria&#45;&gt;http://www.w3.org/2002/07/owl#DatatypeProperty -->
<g id="edge33" class="edge">
<title>http://w3id.org/oseg/ont/otrl#exitCriteria&#45;&gt;http://www.w3.org/2002/07/owl#DatatypeProperty</title>
<path fill="none" stroke="black" d="M1445.81,-391.67C1486.13,-383.46 1541.51,-373.5 1590.87,-369.26 1661.72,-363.18 1679.81,-366.48 1750.87,-369.26 1759.91,-369.62 1769.26,-370.1 1778.66,-370.67"/>
<polygon fill="black" stroke="black" points="1778.65,-374.17 1788.86,-371.31 1779.1,-367.19 1778.65,-374.17"/>
<text text-anchor="middle" x="1670.87" y="-373.06" font-family="Times,serif" font-size="14.00">a</text>
</g>
<!-- http://w3id.org/oseg/ont/otrl#exitCriteria&#45;&gt;http://www.w3.org/1999/02/22&#45;rdf&#45;syntax&#45;ns#langString -->
<g id="edge35" class="edge">
<title>http://w3id.org/oseg/ont/otrl#exitCriteria&#45;&gt;http://www.w3.org/1999/02/22&#45;rdf&#45;syntax&#45;ns#langString</title>
<path fill="none" stroke="black" d="M1470.93,-411.01C1561.07,-418.85 1699.62,-432.36 1750.87,-445.26 1785.62,-454.01 1823.24,-469.41 1850.73,-481.85"/>
<polygon fill="black" stroke="black" points="1849.46,-485.12 1860.01,-486.11 1852.38,-478.76 1849.46,-485.12"/>
<text text-anchor="middle" x="1670.87" y="-449.06" font-family="Times,serif" font-size="14.00">range</text>
</g>
<!-- http://w3id.org/oseg/ont/otrl#ODRL1 -->
<g id="node26" class="node">
<title>http://w3id.org/oseg/ont/otrl#ODRL1</title>
<ellipse fill="none" stroke="#e377c2" cx="1387.61" cy="-805.26" rx="69.09" ry="16.03"/>
<text text-anchor="middle" x="1387.61" y="-801.56" font-family="Times,serif" font-size="14.00">otrl:ODRL1</text>
</g>
<!-- http://w3id.org/oseg/ont/otrl#ODRL1&#45;&gt;http://w3id.org/oseg/ont/otrl#ODRL -->
<g id="edge36" class="edge">
<title>http://w3id.org/oseg/ont/otrl#ODRL1&#45;&gt;http://w3id.org/oseg/ont/otrl#ODRL</title>
<path fill="none" stroke="black" d="M1455.99,-802.54C1529.72,-798.14 1650.75,-786.71 1750.87,-757.26 1788.63,-746.16 1829.01,-726.16 1856.66,-711.08"/>
<polygon fill="black" stroke="black" points="1858.47,-714.08 1865.53,-706.17 1855.08,-707.95 1858.47,-714.08"/>
<text text-anchor="middle" x="1670.87" y="-793.06" font-family="Times,serif" font-size="14.00">a</text>
</g>
<!-- http://w3id.org/oseg/ont/otrl#Odrl4 -->
<g id="node27" class="node">
<title>http://w3id.org/oseg/ont/otrl#Odrl4</title>
<ellipse fill="none" stroke="#e377c2" cx="792.8" cy="-856.26" rx="61.54" ry="16.03"/>
<text text-anchor="middle" x="792.8" y="-852.56" font-family="Times,serif" font-size="14.00">otrl:Odrl4</text>
</g>
<!-- http://w3id.org/oseg/ont/otrl#Odrl4&#45;&gt;http://w3id.org/oseg/ont/otrl#ODRL4 -->
<g id="edge30" class="edge">
<title>http://w3id.org/oseg/ont/otrl#Odrl4&#45;&gt;http://w3id.org/oseg/ont/otrl#ODRL4</title>
<path fill="none" stroke="black" d="M854.45,-856.26C962.41,-856.26 1187.78,-856.26 1307.66,-856.26"/>
<polygon fill="black" stroke="black" points="1307.86,-859.76 1317.86,-856.26 1307.86,-852.76 1307.86,-859.76"/>
<text text-anchor="middle" x="1104.34" y="-860.06" font-family="Times,serif" font-size="14.00">schema:supersededBy</text>
</g>
<!-- http://w3id.org/oseg/ont/otrl#Otrl4 -->
<g id="node28" class="node">
<title>http://w3id.org/oseg/ont/otrl#Otrl4</title>
<ellipse fill="none" stroke="black" cx="792.8" cy="-169.26" rx="189.51" ry="16.03"/>
<text text-anchor="middle" x="792.8" y="-165.56" font-family="Times,serif" font-size="14.00">http://w3id.org/oseg/ont/otrl#Otrl4</text>
</g>
<!-- http://w3id.org/oseg/ont/otrl#Otrl4&#45;&gt;http://w3id.org/oseg/ont/otrl#OTRL4 -->
<g id="edge3" class="edge">
<title>http://w3id.org/oseg/ont/otrl#Otrl4&#45;&gt;http://w3id.org/oseg/ont/otrl#OTRL4</title>
<path fill="none" stroke="black" d="M982.59,-169.26C1093.54,-169.26 1227.77,-169.26 1310.15,-169.26"/>
<polygon fill="black" stroke="black" points="1310.19,-172.76 1320.19,-169.26 1310.19,-165.76 1310.19,-172.76"/>
<text text-anchor="middle" x="1104.34" y="-173.06" font-family="Times,serif" font-size="14.00">schema:supersededBy</text>
</g>
<!-- http://w3id.org/oseg/ont/otrl#Odrl3Star -->
<g id="node29" class="node">
<title>http://w3id.org/oseg/ont/otrl#Odrl3Star</title>
<ellipse fill="none" stroke="black" cx="792.8" cy="-703.26" rx="213.59" ry="16.03"/>
<text text-anchor="middle" x="792.8" y="-699.56" font-family="Times,serif" font-size="14.00">http://w3id.org/oseg/ont/otrl#Odrl3Star</text>
</g>
<!-- http://w3id.org/oseg/ont/otrl#Odrl3Star&#45;&gt;http://w3id.org/oseg/ont/otrl#ODRL3Star -->
<g id="edge5" class="edge">
<title>http://w3id.org/oseg/ont/otrl#Odrl3Star&#45;&gt;http://w3id.org/oseg/ont/otrl#ODRL3Star</title>
<path fill="none" stroke="black" d="M1006.56,-703.26C1102.06,-703.26 1210.18,-703.26 1286.62,-703.26"/>
<polygon fill="black" stroke="black" points="1286.72,-706.76 1296.72,-703.26 1286.72,-699.76 1286.72,-706.76"/>
<text text-anchor="middle" x="1104.34" y="-707.06" font-family="Times,serif" font-size="14.00">schema:supersededBy</text>
</g>
<!-- http://w3id.org/oseg/ont/otrl#Otrl -->
<g id="node30" class="node">
<title>http://w3id.org/oseg/ont/otrl#Otrl</title>
<ellipse fill="none" stroke="black" cx="1387.61" cy="-271.26" rx="183.28" ry="16.03"/>
<text text-anchor="middle" x="1387.61" y="-267.56" font-family="Times,serif" font-size="14.00">http://w3id.org/oseg/ont/otrl#Otrl</text>
</g>
<!-- http://w3id.org/oseg/ont/otrl#Otrl&#45;&gt;http://w3id.org/oseg/ont/otrl#OTRL -->
<g id="edge6" class="edge">
<title>http://w3id.org/oseg/ont/otrl#Otrl&#45;&gt;http://w3id.org/oseg/ont/otrl#OTRL</title>
<path fill="none" stroke="black" d="M1506.09,-258.81C1577,-251.25 1669.14,-241.33 1750.87,-232.26 1775.23,-229.56 1801.97,-226.52 1825.5,-223.83"/>
<polygon fill="black" stroke="black" points="1826.17,-227.27 1835.71,-222.65 1825.38,-220.32 1826.17,-227.27"/>
<text text-anchor="middle" x="1670.87" y="-254.06" font-family="Times,serif" font-size="14.00">schema:supersededBy</text>
</g>
<!-- http://w3id.org/oseg/ont/otrl#Otrl3 -->
<g id="node31" class="node">
<title>http://w3id.org/oseg/ont/otrl#Otrl3</title>
<ellipse fill="none" stroke="black" cx="792.8" cy="-220.26" rx="189.51" ry="16.03"/>
<text text-anchor="middle" x="792.8" y="-216.56" font-family="Times,serif" font-size="14.00">http://w3id.org/oseg/ont/otrl#Otrl3</text>
</g>
<!-- http://w3id.org/oseg/ont/otrl#Otrl3&#45;&gt;http://w3id.org/oseg/ont/otrl#OTRL3 -->
<g id="edge11" class="edge">
<title>http://w3id.org/oseg/ont/otrl#Otrl3&#45;&gt;http://w3id.org/oseg/ont/otrl#OTRL3</title>
<path fill="none" stroke="black" d="M982.59,-220.26C1093.54,-220.26 1227.77,-220.26 1310.15,-220.26"/>
<polygon fill="black" stroke="black" points="1310.19,-223.76 1320.19,-220.26 1310.19,-216.76 1310.19,-223.76"/>
<text text-anchor="middle" x="1104.34" y="-224.06" font-family="Times,serif" font-size="14.00">schema:supersededBy</text>
</g>
<!-- http://w3id.org/oseg/ont/otrl#Odrl2 -->
<g id="node32" class="node">
<title>http://w3id.org/oseg/ont/otrl#Odrl2</title>
<ellipse fill="none" stroke="black" cx="792.8" cy="-601.26" rx="191.75" ry="16.03"/>
<text text-anchor="middle" x="792.8" y="-597.56" font-family="Times,serif" font-size="14.00">http://w3id.org/oseg/ont/otrl#Odrl2</text>
</g>
<!-- http://w3id.org/oseg/ont/otrl#Odrl2&#45;&gt;http://w3id.org/oseg/ont/otrl#ODRL2 -->
<g id="edge12" class="edge">
<title>http://w3id.org/oseg/ont/otrl#Odrl2&#45;&gt;http://w3id.org/oseg/ont/otrl#ODRL2</title>
<path fill="none" stroke="black" d="M984.63,-601.26C1094.18,-601.26 1225.86,-601.26 1307.91,-601.26"/>
<polygon fill="black" stroke="black" points="1308.16,-604.76 1318.16,-601.26 1308.16,-597.76 1308.16,-604.76"/>
<text text-anchor="middle" x="1104.34" y="-605.06" font-family="Times,serif" font-size="14.00">schema:supersededBy</text>
</g>
<!-- http://w3id.org/oseg/ont/otrl#Odrl -->
<g id="node33" class="node">
<title>http://w3id.org/oseg/ont/otrl#Odrl</title>
<ellipse fill="none" stroke="black" cx="1387.61" cy="-754.26" rx="185.02" ry="16.03"/>
<text text-anchor="middle" x="1387.61" y="-750.56" font-family="Times,serif" font-size="14.00">http://w3id.org/oseg/ont/otrl#Odrl</text>
</g>
<!-- http://w3id.org/oseg/ont/otrl#Odrl&#45;&gt;http://w3id.org/oseg/ont/otrl#ODRL -->
<g id="edge15" class="edge">
<title>http://w3id.org/oseg/ont/otrl#Odrl&#45;&gt;http://w3id.org/oseg/ont/otrl#ODRL</title>
<path fill="none" stroke="black" d="M1527.02,-743.5C1594.69,-737.48 1677.23,-729 1750.87,-718.26 1778,-714.31 1807.86,-708.72 1833.02,-703.66"/>
<polygon fill="black" stroke="black" points="1834.03,-707.02 1843.13,-701.6 1832.63,-700.16 1834.03,-707.02"/>
<text text-anchor="middle" x="1670.87" y="-742.06" font-family="Times,serif" font-size="14.00">schema:supersededBy</text>
</g>
<!-- http://w3id.org/oseg/ont/otrl#Otrl2 -->
<g id="node34" class="node">
<title>http://w3id.org/oseg/ont/otrl#Otrl2</title>
<ellipse fill="none" stroke="black" cx="792.8" cy="-16.26" rx="189.51" ry="16.03"/>
<text text-anchor="middle" x="792.8" y="-12.56" font-family="Times,serif" font-size="14.00">http://w3id.org/oseg/ont/otrl#Otrl2</text>
</g>
<!-- http://w3id.org/oseg/ont/otrl#Otrl2&#45;&gt;http://w3id.org/oseg/ont/otrl#OTRL2 -->
<g id="edge26" class="edge">
<title>http://w3id.org/oseg/ont/otrl#Otrl2&#45;&gt;http://w3id.org/oseg/ont/otrl#OTRL2</title>
<path fill="none" stroke="black" d="M982.59,-16.26C1093.54,-16.26 1227.77,-16.26 1310.15,-16.26"/>
<polygon fill="black" stroke="black" points="1310.19,-19.76 1320.19,-16.26 1310.19,-12.76 1310.19,-19.76"/>
<text text-anchor="middle" x="1104.34" y="-20.06" font-family="Times,serif" font-size="14.00">schema:supersededBy</text>
</g>
<!-- http://w3id.org/oseg/ont/otrl#Odrl3 -->
<g id="node35" class="node">
<title>http://w3id.org/oseg/ont/otrl#Odrl3</title>
<ellipse fill="none" stroke="black" cx="792.8" cy="-652.26" rx="191.75" ry="16.03"/>
<text text-anchor="middle" x="792.8" y="-648.56" font-family="Times,serif" font-size="14.00">http://w3id.org/oseg/ont/otrl#Odrl3</text>
</g>
<!-- http://w3id.org/oseg/ont/otrl#Odrl3&#45;&gt;http://w3id.org/oseg/ont/otrl#ODRL3 -->
<g id="edge28" class="edge">
<title>http://w3id.org/oseg/ont/otrl#Odrl3&#45;&gt;http://w3id.org/oseg/ont/otrl#ODRL3</title>
<path fill="none" stroke="black" d="M984.63,-652.26C1094.18,-652.26 1225.86,-652.26 1307.91,-652.26"/>
<polygon fill="black" stroke="black" points="1308.16,-655.76 1318.16,-652.26 1308.16,-648.76 1308.16,-655.76"/>
<text text-anchor="middle" x="1104.34" y="-656.06" font-family="Times,serif" font-size="14.00">schema:supersededBy</text>
</g>
<!-- http://w3id.org/oseg/ont/otrl#Otrl1 -->
<g id="node36" class="node">
<title>http://w3id.org/oseg/ont/otrl#Otrl1</title>
<ellipse fill="none" stroke="black" cx="792.8" cy="-67.26" rx="189.51" ry="16.03"/>
<text text-anchor="middle" x="792.8" y="-63.56" font-family="Times,serif" font-size="14.00">http://w3id.org/oseg/ont/otrl#Otrl1</text>
</g>
<!-- http://w3id.org/oseg/ont/otrl#Otrl1&#45;&gt;http://w3id.org/oseg/ont/otrl#OTRL1 -->
<g id="edge32" class="edge">
<title>http://w3id.org/oseg/ont/otrl#Otrl1&#45;&gt;http://w3id.org/oseg/ont/otrl#OTRL1</title>
<path fill="none" stroke="black" d="M982.59,-67.26C1093.54,-67.26 1227.77,-67.26 1310.15,-67.26"/>
<polygon fill="black" stroke="black" points="1310.19,-70.76 1320.19,-67.26 1310.19,-63.76 1310.19,-70.76"/>
<text text-anchor="middle" x="1104.34" y="-71.06" font-family="Times,serif" font-size="14.00">schema:supersededBy</text>
</g>
<!-- http://w3id.org/oseg/ont/otrl#Otrl6 -->
<g id="node37" class="node">
<title>http://w3id.org/oseg/ont/otrl#Otrl6</title>
<ellipse fill="none" stroke="black" cx="792.8" cy="-322.26" rx="189.51" ry="16.03"/>
<text text-anchor="middle" x="792.8" y="-318.56" font-family="Times,serif" font-size="14.00">http://w3id.org/oseg/ont/otrl#Otrl6</text>
</g>
<!-- http://w3id.org/oseg/ont/otrl#Otrl6&#45;&gt;http://w3id.org/oseg/ont/otrl#OTRL6 -->
<g id="edge38" class="edge">
<title>http://w3id.org/oseg/ont/otrl#Otrl6&#45;&gt;http://w3id.org/oseg/ont/otrl#OTRL6</title>
<path fill="none" stroke="black" d="M982.59,-322.26C1093.54,-322.26 1227.77,-322.26 1310.15,-322.26"/>
<polygon fill="black" stroke="black" points="1310.19,-325.76 1320.19,-322.26 1310.19,-318.76 1310.19,-325.76"/>
<text text-anchor="middle" x="1104.34" y="-326.06" font-family="Times,serif" font-size="14.00">schema:supersededBy</text>
</g>
<!-- http://w3id.org/oseg/ont/otrl#Otrl5 -->
<g id="node38" class="node">
<title>http://w3id.org/oseg/ont/otrl#Otrl5</title>
<ellipse fill="none" stroke="black" cx="792.8" cy="-118.26" rx="189.51" ry="16.03"/>
<text text-anchor="middle" x="792.8" y="-114.56" font-family="Times,serif" font-size="14.00">http://w3id.org/oseg/ont/otrl#Otrl5</text>
</g>
<!-- http://w3id.org/oseg/ont/otrl#Otrl5&#45;&gt;http://w3id.org/oseg/ont/otrl#OTRL5 -->
<g id="edge39" class="edge">
<title>http://w3id.org/oseg/ont/otrl#Otrl5&#45;&gt;http://w3id.org/oseg/ont/otrl#OTRL5</title>
<path fill="none" stroke="black" d="M982.59,-118.26C1093.54,-118.26 1227.77,-118.26 1310.15,-118.26"/>
<polygon fill="black" stroke="black" points="1310.19,-121.76 1320.19,-118.26 1310.19,-114.76 1310.19,-121.76"/>
<text text-anchor="middle" x="1104.34" y="-122.06" font-family="Times,serif" font-size="14.00">schema:supersededBy</text>
</g>
<!-- http://w3id.org/oseg/ont/otrl#Odrl1 -->
<g id="node39" class="node">
<title>http://w3id.org/oseg/ont/otrl#Odrl1</title>
<ellipse fill="none" stroke="black" cx="792.8" cy="-805.26" rx="191.75" ry="16.03"/>
<text text-anchor="middle" x="792.8" y="-801.56" font-family="Times,serif" font-size="14.00">http://w3id.org/oseg/ont/otrl#Odrl1</text>
</g>
<!-- http://w3id.org/oseg/ont/otrl#Odrl1&#45;&gt;http://w3id.org/oseg/ont/otrl#ODRL1 -->
<g id="edge40" class="edge">
<title>http://w3id.org/oseg/ont/otrl#Odrl1&#45;&gt;http://w3id.org/oseg/ont/otrl#ODRL1</title>
<path fill="none" stroke="black" d="M984.63,-805.26C1094.18,-805.26 1225.86,-805.26 1307.91,-805.26"/>
<polygon fill="black" stroke="black" points="1308.16,-808.76 1318.16,-805.26 1308.16,-801.76 1308.16,-808.76"/>
<text text-anchor="middle" x="1104.34" y="-809.06" font-family="Times,serif" font-size="14.00">schema:supersededBy</text>
</g>
<!-- http://w3id.org/oseg/ont/otrl#Odrl5 -->
<g id="node40" class="node">
<title>http://w3id.org/oseg/ont/otrl#Odrl5</title>
<ellipse fill="none" stroke="black" cx="191.63" cy="-856.26" rx="191.75" ry="16.03"/>
<text text-anchor="middle" x="191.63" y="-852.56" font-family="Times,serif" font-size="14.00">http://w3id.org/oseg/ont/otrl#Odrl5</text>
</g>
<!-- http://w3id.org/oseg/ont/otrl#Odrl5&#45;&gt;http://w3id.org/oseg/ont/otrl#Odrl4 -->
<g id="edge43" class="edge">
<title>http://w3id.org/oseg/ont/otrl#Odrl5&#45;&gt;http://w3id.org/oseg/ont/otrl#Odrl4</title>
<path fill="none" stroke="black" d="M383.44,-856.26C498.54,-856.26 638.43,-856.26 721.01,-856.26"/>
<polygon fill="black" stroke="black" points="721.03,-859.76 731.03,-856.26 721.03,-852.76 721.03,-859.76"/>
<text text-anchor="middle" x="481.25" y="-860.06" font-family="Times,serif" font-size="14.00">schema:supersededBy</text>
</g>
</g>
</svg>
