<?xml version="1.0" encoding="UTF-8" standalone="no"?>
<!DOCTYPE svg PUBLIC "-//W3C//DTD SVG 1.1//EN"
 "http://www.w3.org/Graphics/SVG/1.1/DTD/svg11.dtd">
<!-- Generated by graphviz version 2.43.0 (0)
 -->
<!-- Title: G Pages: 1 -->
<svg width="2065pt" height="1346pt"
 viewBox="0.00 0.00 2064.64 1345.53" xmlns="http://www.w3.org/2000/svg" xmlns:xlink="http://www.w3.org/1999/xlink">
<g id="graph0" class="graph" transform="scale(1 1) rotate(0) translate(4 1341.53)">
<title>G</title>
<polygon fill="white" stroke="transparent" points="-4,4 -4,-1341.53 2060.64,-1341.53 2060.64,4 -4,4"/>
<!-- https://w3id.org/oseg/ont/otrl#ODRL3 -->
<g id="node1" class="node">
<title>https://w3id.org/oseg/ont/otrl#ODRL3</title>
<ellipse fill="none" stroke="#e377c2" cx="1412.36" cy="-866.26" rx="69.09" ry="16.03"/>
<text text-anchor="middle" x="1412.36" y="-862.56" font-family="Times,serif" font-size="14.00">otrl:ODRL3</text>
</g>
<!-- https://w3id.org/oseg/ont/otrl#ODRL -->
<g id="node7" class="node">
<title>https://w3id.org/oseg/ont/otrl#ODRL</title>
<ellipse fill="none" stroke="#e377c2" cx="1933.6" cy="-774.26" rx="62.87" ry="16.03"/>
<text text-anchor="middle" x="1933.6" y="-770.56" font-family="Times,serif" font-size="14.00">otrl:ODRL</text>
</g>
<!-- https://w3id.org/oseg/ont/otrl#ODRL3&#45;&gt;https://w3id.org/oseg/ont/otrl#ODRL -->
<g id="edge37" class="edge">
<title>https://w3id.org/oseg/ont/otrl#ODRL3&#45;&gt;https://w3id.org/oseg/ont/otrl#ODRL</title>
<path fill="none" stroke="black" d="M1473.76,-858.66C1548.86,-848.8 1680.78,-830.12 1792.57,-807.26 1820.87,-801.48 1852.18,-794.18 1878,-787.93"/>
<polygon fill="black" stroke="black" points="1879.09,-791.26 1887.98,-785.49 1877.43,-784.46 1879.09,-791.26"/>
</g>
<!-- https://w3id.org/oseg/ont/otrl#OTRL -->
<g id="node2" class="node">
<title>https://w3id.org/oseg/ont/otrl#OTRL</title>
<ellipse fill="none" stroke="#e377c2" cx="1933.6" cy="-306.26" rx="60.62" ry="16.03"/>
<text text-anchor="middle" x="1933.6" y="-302.56" font-family="Times,serif" font-size="14.00">otrl:OTRL</text>
</g>
<!-- https://w3id.org/oseg/ont/otrl#ODRL1 -->
<g id="node3" class="node">
<title>https://w3id.org/oseg/ont/otrl#ODRL1</title>
<ellipse fill="none" stroke="#e377c2" cx="1412.36" cy="-815.26" rx="69.09" ry="16.03"/>
<text text-anchor="middle" x="1412.36" y="-811.56" font-family="Times,serif" font-size="14.00">otrl:ODRL1</text>
</g>
<!-- https://w3id.org/oseg/ont/otrl#ODRL1&#45;&gt;https://w3id.org/oseg/ont/otrl#ODRL -->
<g id="edge28" class="edge">
<title>https://w3id.org/oseg/ont/otrl#ODRL1&#45;&gt;https://w3id.org/oseg/ont/otrl#ODRL</title>
<path fill="none" stroke="black" d="M1478.33,-810.13C1576.59,-802.37 1762.21,-787.72 1863.09,-779.75"/>
<polygon fill="black" stroke="black" points="1863.48,-783.23 1873.18,-778.96 1862.93,-776.25 1863.48,-783.23"/>
</g>
<!-- https://w3id.org/oseg/ont/otrl#OTRL3 -->
<g id="node4" class="node">
<title>https://w3id.org/oseg/ont/otrl#OTRL3</title>
<ellipse fill="none" stroke="#e377c2" cx="1412.36" cy="-111.26" rx="67.35" ry="16.03"/>
<text text-anchor="middle" x="1412.36" y="-107.56" font-family="Times,serif" font-size="14.00">otrl:OTRL3</text>
</g>
<!-- https://w3id.org/oseg/ont/otrl#OTRL3&#45;&gt;https://w3id.org/oseg/ont/otrl#OTRL -->
<g id="edge43" class="edge">
<title>https://w3id.org/oseg/ont/otrl#OTRL3&#45;&gt;https://w3id.org/oseg/ont/otrl#OTRL</title>
<path fill="none" stroke="black" d="M1462.98,-122.03C1536.83,-138.99 1679.13,-175.34 1792.57,-226.26 1831.29,-243.65 1873.26,-268.5 1901.05,-285.87"/>
<polygon fill="black" stroke="black" points="1899.22,-288.86 1909.55,-291.23 1902.96,-282.94 1899.22,-288.86"/>
</g>
<!-- https://w3id.org/oseg/ont/otrl#ODRL2 -->
<g id="node5" class="node">
<title>https://w3id.org/oseg/ont/otrl#ODRL2</title>
<ellipse fill="none" stroke="#e377c2" cx="1412.36" cy="-764.26" rx="69.09" ry="16.03"/>
<text text-anchor="middle" x="1412.36" y="-760.56" font-family="Times,serif" font-size="14.00">otrl:ODRL2</text>
</g>
<!-- https://w3id.org/oseg/ont/otrl#ODRL2&#45;&gt;https://w3id.org/oseg/ont/otrl#ODRL -->
<g id="edge16" class="edge">
<title>https://w3id.org/oseg/ont/otrl#ODRL2&#45;&gt;https://w3id.org/oseg/ont/otrl#ODRL</title>
<path fill="none" stroke="black" d="M1481.5,-765.58C1579.66,-767.47 1760.04,-770.94 1860.4,-772.87"/>
<polygon fill="black" stroke="black" points="1860.39,-776.37 1870.45,-773.07 1860.52,-769.37 1860.39,-776.37"/>
</g>
<!-- https://w3id.org/oseg/ont/otrl#ODRL3Star -->
<g id="node6" class="node">
<title>https://w3id.org/oseg/ont/otrl#ODRL3Star</title>
<ellipse fill="none" stroke="#e377c2" cx="1412.36" cy="-701.26" rx="90.52" ry="16.03"/>
<text text-anchor="middle" x="1412.36" y="-697.56" font-family="Times,serif" font-size="14.00">otrl:ODRL3Star</text>
</g>
<!-- https://w3id.org/oseg/ont/otrl#ODRL3Star&#45;&gt;https://w3id.org/oseg/ont/otrl#ODRL -->
<g id="edge54" class="edge">
<title>https://w3id.org/oseg/ont/otrl#ODRL3Star&#45;&gt;https://w3id.org/oseg/ont/otrl#ODRL</title>
<path fill="none" stroke="black" d="M1478.12,-712.54C1518.93,-719.49 1572.76,-728.36 1620.57,-735.26 1704.76,-747.43 1802.07,-759.23 1865.34,-766.61"/>
<polygon fill="black" stroke="black" points="1865.24,-770.12 1875.58,-767.8 1866.05,-763.17 1865.24,-770.12"/>
</g>
<!-- https://w3id.org/oseg/ont/otrl#OTRL1 -->
<g id="node8" class="node">
<title>https://w3id.org/oseg/ont/otrl#OTRL1</title>
<ellipse fill="none" stroke="#e377c2" cx="1412.36" cy="-352.26" rx="67.35" ry="16.03"/>
<text text-anchor="middle" x="1412.36" y="-348.56" font-family="Times,serif" font-size="14.00">otrl:OTRL1</text>
</g>
<!-- https://w3id.org/oseg/ont/otrl#OTRL1&#45;&gt;https://w3id.org/oseg/ont/otrl#OTRL -->
<g id="edge35" class="edge">
<title>https://w3id.org/oseg/ont/otrl#OTRL1&#45;&gt;https://w3id.org/oseg/ont/otrl#OTRL</title>
<path fill="none" stroke="black" d="M1475.46,-346.49C1516.62,-342.68 1571.81,-337.61 1620.57,-333.26 1704.83,-325.75 1801.93,-317.4 1865.14,-312"/>
<polygon fill="black" stroke="black" points="1865.7,-315.47 1875.37,-311.13 1865.11,-308.49 1865.7,-315.47"/>
</g>
<!-- https://w3id.org/oseg/ont/otrl#OTRL2 -->
<g id="node9" class="node">
<title>https://w3id.org/oseg/ont/otrl#OTRL2</title>
<ellipse fill="none" stroke="#e377c2" cx="1412.36" cy="-301.26" rx="67.35" ry="16.03"/>
<text text-anchor="middle" x="1412.36" y="-297.56" font-family="Times,serif" font-size="14.00">otrl:OTRL2</text>
</g>
<!-- https://w3id.org/oseg/ont/otrl#OTRL2&#45;&gt;https://w3id.org/oseg/ont/otrl#OTRL -->
<g id="edge49" class="edge">
<title>https://w3id.org/oseg/ont/otrl#OTRL2&#45;&gt;https://w3id.org/oseg/ont/otrl#OTRL</title>
<path fill="none" stroke="black" d="M1479.65,-301.9C1578.11,-302.85 1762.16,-304.62 1862.68,-305.59"/>
<polygon fill="black" stroke="black" points="1862.7,-309.09 1872.73,-305.69 1862.77,-302.09 1862.7,-309.09"/>
</g>
<!-- https://w3id.org/oseg/ont/otrl#OTRL5 -->
<g id="node10" class="node">
<title>https://w3id.org/oseg/ont/otrl#OTRL5</title>
<ellipse fill="none" stroke="#e377c2" cx="1412.36" cy="-250.26" rx="67.35" ry="16.03"/>
<text text-anchor="middle" x="1412.36" y="-246.56" font-family="Times,serif" font-size="14.00">otrl:OTRL5</text>
</g>
<!-- https://w3id.org/oseg/ont/otrl#OTRL5&#45;&gt;https://w3id.org/oseg/ont/otrl#OTRL -->
<g id="edge10" class="edge">
<title>https://w3id.org/oseg/ont/otrl#OTRL5&#45;&gt;https://w3id.org/oseg/ont/otrl#OTRL</title>
<path fill="none" stroke="black" d="M1473.94,-256.8C1572.09,-267.38 1765.1,-288.2 1866.62,-299.15"/>
<polygon fill="black" stroke="black" points="1866.43,-302.65 1876.75,-300.24 1867.18,-295.69 1866.43,-302.65"/>
</g>
<!-- http://spdx.org/rdf/terms#File -->
<g id="node11" class="node">
<title>http://spdx.org/rdf/terms#File</title>
<ellipse fill="none" stroke="#1f77b4" cx="807.65" cy="-1321.26" rx="62.45" ry="16.03"/>
<text text-anchor="middle" x="807.65" y="-1317.56" font-family="Times,serif" font-size="14.00">spdxt:File</text>
</g>
<!-- https://w3id.org/oseg/ont/otrl#OTRL4 -->
<g id="node12" class="node">
<title>https://w3id.org/oseg/ont/otrl#OTRL4</title>
<ellipse fill="none" stroke="#e377c2" cx="1412.36" cy="-187.26" rx="67.35" ry="16.03"/>
<text text-anchor="middle" x="1412.36" y="-183.56" font-family="Times,serif" font-size="14.00">otrl:OTRL4</text>
</g>
<!-- https://w3id.org/oseg/ont/otrl#OTRL4&#45;&gt;https://w3id.org/oseg/ont/otrl#OTRL -->
<g id="edge41" class="edge">
<title>https://w3id.org/oseg/ont/otrl#OTRL4&#45;&gt;https://w3id.org/oseg/ont/otrl#OTRL</title>
<path fill="none" stroke="black" d="M1465.64,-197.34C1503.68,-204.77 1556.39,-215.28 1602.57,-225.26 1687.29,-243.58 1708.43,-248.41 1792.57,-269.26 1821.78,-276.5 1854.3,-285.06 1880.63,-292.13"/>
<polygon fill="black" stroke="black" points="1879.84,-295.54 1890.41,-294.75 1881.66,-288.78 1879.84,-295.54"/>
</g>
<!-- http://www.w3.org/2002/07/owl#Ontology -->
<g id="node13" class="node">
<title>http://www.w3.org/2002/07/owl#Ontology</title>
<ellipse fill="none" stroke="#1f77b4" cx="807.65" cy="-1270.26" rx="77.56" ry="16.03"/>
<text text-anchor="middle" x="807.65" y="-1266.56" font-family="Times,serif" font-size="14.00">owl:Ontology</text>
</g>
<!-- https://w3id.org/oseg/ont/otrl#OTRL6 -->
<g id="node14" class="node">
<title>https://w3id.org/oseg/ont/otrl#OTRL6</title>
<ellipse fill="none" stroke="#e377c2" cx="1412.36" cy="-35.26" rx="67.35" ry="16.03"/>
<text text-anchor="middle" x="1412.36" y="-31.56" font-family="Times,serif" font-size="14.00">otrl:OTRL6</text>
</g>
<!-- https://w3id.org/oseg/ont/otrl#OTRL6&#45;&gt;https://w3id.org/oseg/ont/otrl#OTRL -->
<g id="edge9" class="edge">
<title>https://w3id.org/oseg/ont/otrl#OTRL6&#45;&gt;https://w3id.org/oseg/ont/otrl#OTRL</title>
<path fill="none" stroke="black" d="M1468.25,-44.37C1545.82,-59.22 1689.54,-94.21 1792.57,-163.26 1842.7,-196.86 1889.26,-250.69 1914.02,-281.83"/>
<polygon fill="black" stroke="black" points="1911.49,-284.27 1920.41,-289.98 1917,-279.95 1911.49,-284.27"/>
</g>
<!-- http://www.w3.org/2002/07/owl#DatatypeProperty -->
<g id="node15" class="node">
<title>http://www.w3.org/2002/07/owl#DatatypeProperty</title>
<ellipse fill="none" stroke="#1f77b4" cx="1933.6" cy="-599.26" rx="123.07" ry="16.03"/>
<text text-anchor="middle" x="1933.6" y="-595.56" font-family="Times,serif" font-size="14.00">owl:DatatypeProperty</text>
</g>
<!-- https://w3id.org/oseg/ont/otrl#ODRL4 -->
<g id="node16" class="node">
<title>https://w3id.org/oseg/ont/otrl#ODRL4</title>
<ellipse fill="none" stroke="#e377c2" cx="1412.36" cy="-631.26" rx="69.09" ry="16.03"/>
<text text-anchor="middle" x="1412.36" y="-627.56" font-family="Times,serif" font-size="14.00">otrl:ODRL4</text>
</g>
<!-- https://w3id.org/oseg/ont/otrl#ODRL4&#45;&gt;https://w3id.org/oseg/ont/otrl#ODRL -->
<g id="edge30" class="edge">
<title>https://w3id.org/oseg/ont/otrl#ODRL4&#45;&gt;https://w3id.org/oseg/ont/otrl#ODRL</title>
<path fill="none" stroke="black" d="M1480.97,-633.76C1519.98,-638.3 1567.99,-649.5 1602.57,-676.26 1616.09,-686.73 1606.68,-700.29 1620.57,-710.26 1683.48,-755.43 1716.76,-722.38 1792.57,-738.26 1821.98,-744.42 1854.5,-752.7 1880.8,-759.76"/>
<polygon fill="black" stroke="black" points="1879.99,-763.16 1890.55,-762.4 1881.81,-756.4 1879.99,-763.16"/>
</g>
<!-- https://w3id.org/oseg/ont/otrl#goal -->
<g id="node17" class="node">
<title>https://w3id.org/oseg/ont/otrl#goal</title>
<ellipse fill="none" stroke="#e377c2" cx="1412.36" cy="-580.26" rx="54.39" ry="16.03"/>
<text text-anchor="middle" x="1412.36" y="-576.56" font-family="Times,serif" font-size="14.00">otrl:goal</text>
</g>
<!-- https://w3id.org/oseg/ont/otrl#goal&#45;&gt;https://w3id.org/oseg/ont/otrl#OTRL -->
<g id="edge57" class="edge">
<title>https://w3id.org/oseg/ont/otrl#goal&#45;&gt;https://w3id.org/oseg/ont/otrl#OTRL</title>
<path fill="none" stroke="black" d="M1463.57,-574.61C1503.94,-568.13 1560.62,-554.49 1602.57,-526.26 1613.34,-519.02 1609.26,-509.65 1620.57,-503.26 1687.62,-465.39 1725.36,-519.87 1792.57,-482.26 1855.24,-447.2 1900.14,-371.68 1920.45,-331.93"/>
<polygon fill="black" stroke="black" points="1923.76,-333.15 1925.09,-322.64 1917.49,-330.03 1923.76,-333.15"/>
<text text-anchor="middle" x="1706.57" y="-507.06" font-family="Times,serif" font-size="14.00">schema:domainIncludes</text>
</g>
<!-- https://w3id.org/oseg/ont/otrl#goal&#45;&gt;https://w3id.org/oseg/ont/otrl#ODRL -->
<g id="edge2" class="edge">
<title>https://w3id.org/oseg/ont/otrl#goal&#45;&gt;https://w3id.org/oseg/ont/otrl#ODRL</title>
<path fill="none" stroke="black" d="M1461.67,-573.28C1503.91,-570.02 1564.32,-572.68 1602.57,-606.26 1625.41,-626.32 1597.46,-652.51 1620.57,-672.26 1649.8,-697.25 1756.09,-679.07 1792.57,-691.26 1834.41,-705.25 1877.29,-733.04 1904.39,-752.6"/>
<polygon fill="black" stroke="black" points="1902.48,-755.54 1912.61,-758.63 1906.62,-749.9 1902.48,-755.54"/>
<text text-anchor="middle" x="1706.57" y="-695.06" font-family="Times,serif" font-size="14.00">schema:domainIncludes</text>
</g>
<!-- https://w3id.org/oseg/ont/otrl#goal&#45;&gt;http://www.w3.org/2002/07/owl#DatatypeProperty -->
<g id="edge4" class="edge">
<title>https://w3id.org/oseg/ont/otrl#goal&#45;&gt;http://www.w3.org/2002/07/owl#DatatypeProperty</title>
<path fill="none" stroke="black" d="M1465.12,-576.12C1505.57,-575.39 1561.62,-580.13 1602.57,-606.26 1615.04,-614.22 1607.58,-627.17 1620.57,-634.26 1687.66,-670.89 1716.69,-643.6 1792.57,-634.26 1820.12,-630.87 1850.06,-623.86 1875.15,-617"/>
<polygon fill="black" stroke="black" points="1876.18,-620.34 1884.87,-614.28 1874.3,-613.6 1876.18,-620.34"/>
<text text-anchor="middle" x="1706.57" y="-657.06" font-family="Times,serif" font-size="14.00">a</text>
</g>
<!-- http://schema.org/Text -->
<g id="node19" class="node">
<title>http://schema.org/Text</title>
<ellipse fill="none" stroke="#e377c2" cx="1933.6" cy="-507.26" rx="74.91" ry="16.03"/>
<text text-anchor="middle" x="1933.6" y="-503.56" font-family="Times,serif" font-size="14.00">schema:Text</text>
</g>
<!-- https://w3id.org/oseg/ont/otrl#goal&#45;&gt;http://schema.org/Text -->
<g id="edge7" class="edge">
<title>https://w3id.org/oseg/ont/otrl#goal&#45;&gt;http://schema.org/Text</title>
<path fill="none" stroke="black" d="M1466.75,-582.01C1540.73,-583.35 1678.25,-581.87 1792.57,-558.26 1826.79,-551.2 1863.89,-537.39 1891.3,-525.92"/>
<polygon fill="black" stroke="black" points="1892.73,-529.11 1900.56,-521.98 1889.99,-522.67 1892.73,-529.11"/>
<text text-anchor="middle" x="1706.57" y="-583.06" font-family="Times,serif" font-size="14.00">range</text>
</g>
<!-- https://w3id.org/oseg/ont/otrl#exitCriteria -->
<g id="node18" class="node">
<title>https://w3id.org/oseg/ont/otrl#exitCriteria</title>
<ellipse fill="none" stroke="#e377c2" cx="1412.36" cy="-501.26" rx="91.43" ry="16.03"/>
<text text-anchor="middle" x="1412.36" y="-497.56" font-family="Times,serif" font-size="14.00">otrl:exitCriteria</text>
</g>
<!-- https://w3id.org/oseg/ont/otrl#exitCriteria&#45;&gt;https://w3id.org/oseg/ont/otrl#OTRL -->
<g id="edge21" class="edge">
<title>https://w3id.org/oseg/ont/otrl#exitCriteria&#45;&gt;https://w3id.org/oseg/ont/otrl#OTRL</title>
<path fill="none" stroke="black" d="M1460.05,-487.31C1501.9,-475.02 1565.08,-456.98 1620.57,-443.26 1696.47,-424.49 1721.04,-437.86 1792.57,-406.26 1836.9,-386.68 1881.27,-351.76 1907.84,-328.81"/>
<polygon fill="black" stroke="black" points="1910.28,-331.32 1915.49,-322.1 1905.67,-326.06 1910.28,-331.32"/>
<text text-anchor="middle" x="1706.57" y="-447.06" font-family="Times,serif" font-size="14.00">schema:domainIncludes</text>
</g>
<!-- https://w3id.org/oseg/ont/otrl#exitCriteria&#45;&gt;https://w3id.org/oseg/ont/otrl#ODRL -->
<g id="edge23" class="edge">
<title>https://w3id.org/oseg/ont/otrl#exitCriteria&#45;&gt;https://w3id.org/oseg/ont/otrl#ODRL</title>
<path fill="none" stroke="black" d="M1493.97,-508.58C1530.7,-515.56 1572.58,-529.09 1602.57,-555.26 1617.56,-568.35 1604.53,-584.48 1620.57,-596.26 1682.55,-641.8 1724.33,-579.79 1792.57,-615.26 1851.59,-645.94 1897.1,-712.62 1918.74,-749.13"/>
<polygon fill="black" stroke="black" points="1915.92,-751.25 1923.96,-758.15 1921.98,-747.74 1915.92,-751.25"/>
<text text-anchor="middle" x="1706.57" y="-619.06" font-family="Times,serif" font-size="14.00">schema:domainIncludes</text>
</g>
<!-- https://w3id.org/oseg/ont/otrl#exitCriteria&#45;&gt;http://www.w3.org/2002/07/owl#DatatypeProperty -->
<g id="edge5" class="edge">
<title>https://w3id.org/oseg/ont/otrl#exitCriteria&#45;&gt;http://www.w3.org/2002/07/owl#DatatypeProperty</title>
<path fill="none" stroke="black" d="M1494,-508.72C1601.05,-518.7 1778.33,-535.59 1792.57,-539.26 1828.08,-548.42 1866.2,-565.26 1893.69,-578.77"/>
<polygon fill="black" stroke="black" points="1892.44,-582.06 1902.95,-583.39 1895.57,-575.8 1892.44,-582.06"/>
<text text-anchor="middle" x="1706.57" y="-543.06" font-family="Times,serif" font-size="14.00">a</text>
</g>
<!-- https://w3id.org/oseg/ont/otrl#exitCriteria&#45;&gt;http://schema.org/Text -->
<g id="edge8" class="edge">
<title>https://w3id.org/oseg/ont/otrl#exitCriteria&#45;&gt;http://schema.org/Text</title>
<path fill="none" stroke="black" d="M1468.82,-488.39C1542.87,-473 1678.01,-451.22 1792.57,-467.26 1824.01,-471.67 1858.3,-481.37 1885.08,-490.12"/>
<polygon fill="black" stroke="black" points="1884,-493.45 1894.59,-493.29 1886.21,-486.81 1884,-493.45"/>
<text text-anchor="middle" x="1706.57" y="-471.06" font-family="Times,serif" font-size="14.00">range</text>
</g>
<!-- https://w3id.org/oseg/ont/1.1.0/otrl -->
<g id="node20" class="node">
<title>https://w3id.org/oseg/ont/1.1.0/otrl</title>
<ellipse fill="none" stroke="#e377c2" cx="807.65" cy="-1219.26" rx="50.82" ry="16.03"/>
<text text-anchor="middle" x="807.65" y="-1215.56" font-family="Times,serif" font-size="14.00">ns1:otrl</text>
</g>
<!-- https://w3id.org/oseg/ont/oseg&#45;profiles#robinVobruba -->
<g id="node21" class="node">
<title>https://w3id.org/oseg/ont/oseg&#45;profiles#robinVobruba</title>
<ellipse fill="none" stroke="#e377c2" cx="807.65" cy="-1167.26" rx="113.69" ry="16.03"/>
<text text-anchor="middle" x="807.65" y="-1163.56" font-family="Times,serif" font-size="14.00">osegprof:robinVob...</text>
</g>
<!-- https://spdx.org/licenses/GPL&#45;3.0&#45;or&#45;later -->
<g id="node22" class="node">
<title>https://spdx.org/licenses/GPL&#45;3.0&#45;or&#45;later</title>
<ellipse fill="none" stroke="#e377c2" cx="807.65" cy="-1115.26" rx="108.79" ry="16.03"/>
<text text-anchor="middle" x="807.65" y="-1111.56" font-family="Times,serif" font-size="14.00">spdxl:GPL&#45;3.0&#45;or&#45;...</text>
</g>
<!-- https://w3id.org/oseg/ont/otrl#Odrl4 -->
<g id="node23" class="node">
<title>https://w3id.org/oseg/ont/otrl#Odrl4</title>
<ellipse fill="none" stroke="#e377c2" cx="807.65" cy="-606.26" rx="61.54" ry="16.03"/>
<text text-anchor="middle" x="807.65" y="-602.56" font-family="Times,serif" font-size="14.00">otrl:Odrl4</text>
</g>
<!-- https://w3id.org/oseg/ont/otrl#Odrl4&#45;&gt;https://w3id.org/oseg/ont/otrl#ODRL4 -->
<g id="edge17" class="edge">
<title>https://w3id.org/oseg/ont/otrl#Odrl4&#45;&gt;https://w3id.org/oseg/ont/otrl#ODRL4</title>
<path fill="none" stroke="black" d="M868.64,-608.75C978.55,-613.31 1212.06,-623 1333.83,-628.05"/>
<polygon fill="black" stroke="black" points="1333.69,-631.55 1343.83,-628.46 1333.98,-624.55 1333.69,-631.55"/>
<text text-anchor="middle" x="1124.14" y="-627.06" font-family="Times,serif" font-size="14.00">owl:sameAs</text>
</g>
<!-- https://w3id.org/oseg/ont/otrl#Odrl4&#45;&gt;https://w3id.org/oseg/ont/otrl#ODRL4 -->
<g id="edge38" class="edge">
<title>https://w3id.org/oseg/ont/otrl#Odrl4&#45;&gt;https://w3id.org/oseg/ont/otrl#ODRL4</title>
<path fill="none" stroke="black" d="M861.67,-598.38C938.1,-588.54 1083.32,-575.6 1204.14,-598.26 1212.58,-599.85 1213.83,-603.11 1222.14,-605.26 1259.1,-614.85 1301.08,-621.07 1336.1,-625.01"/>
<polygon fill="black" stroke="black" points="1335.94,-628.52 1346.26,-626.12 1336.69,-621.56 1335.94,-628.52"/>
<text text-anchor="middle" x="1124.14" y="-602.06" font-family="Times,serif" font-size="14.00">schema:supersededBy</text>
</g>
<!-- https://w3id.org/oseg/ont/oseg&#45;profiles#Iopa -->
<g id="node24" class="node">
<title>https://w3id.org/oseg/ont/oseg&#45;profiles#Iopa</title>
<ellipse fill="none" stroke="#e377c2" cx="807.65" cy="-1064.26" rx="80.72" ry="16.03"/>
<text text-anchor="middle" x="807.65" y="-1060.56" font-family="Times,serif" font-size="14.00">osegprof:Iopa</text>
</g>
<!-- https://w3id.org/oseg/ont/oseg&#45;profiles#martinHaeuer -->
<g id="node25" class="node">
<title>https://w3id.org/oseg/ont/oseg&#45;profiles#martinHaeuer</title>
<ellipse fill="none" stroke="#e377c2" cx="807.65" cy="-1010.26" rx="116.85" ry="16.03"/>
<text text-anchor="middle" x="807.65" y="-1006.56" font-family="Times,serif" font-size="14.00">osegprof:martinHa...</text>
</g>
<!-- http://id.loc.gov/vocabulary/iso639&#45;1/en -->
<g id="node26" class="node">
<title>http://id.loc.gov/vocabulary/iso639&#45;1/en</title>
<ellipse fill="none" stroke="#e377c2" cx="807.65" cy="-954.26" rx="45.01" ry="16.03"/>
<text text-anchor="middle" x="807.65" y="-950.56" font-family="Times,serif" font-size="14.00">ns2:en</text>
</g>
<!-- https://w3id.org/oseg/ont/otrl -->
<g id="node27" class="node">
<title>https://w3id.org/oseg/ont/otrl</title>
<ellipse fill="none" stroke="#e377c2" cx="196.58" cy="-1125.26" rx="50.82" ry="16.03"/>
<text text-anchor="middle" x="196.58" y="-1121.56" font-family="Times,serif" font-size="14.00">ns3:otrl</text>
</g>
<!-- https://w3id.org/oseg/ont/otrl&#45;&gt;http://spdx.org/rdf/terms#File -->
<g id="edge55" class="edge">
<title>https://w3id.org/oseg/ont/otrl&#45;&gt;http://spdx.org/rdf/terms#File</title>
<path fill="none" stroke="black" d="M213.66,-1140.65C247.23,-1171.73 328.54,-1241.75 411.15,-1273.26 518.98,-1314.4 654.27,-1322.31 735.41,-1322.82"/>
<polygon fill="black" stroke="black" points="735.51,-1326.32 745.52,-1322.85 735.53,-1319.32 735.51,-1326.32"/>
<text text-anchor="middle" x="491.15" y="-1315.06" font-family="Times,serif" font-size="14.00">a</text>
</g>
<!-- https://w3id.org/oseg/ont/otrl&#45;&gt;http://www.w3.org/2002/07/owl#Ontology -->
<g id="edge52" class="edge">
<title>https://w3id.org/oseg/ont/otrl&#45;&gt;http://www.w3.org/2002/07/owl#Ontology</title>
<path fill="none" stroke="black" d="M221.24,-1139.5C259.61,-1161.84 338.46,-1204.71 411.15,-1225.26 514.62,-1254.52 638.41,-1264.84 719.6,-1268.43"/>
<polygon fill="black" stroke="black" points="719.65,-1271.93 729.78,-1268.85 719.94,-1264.94 719.65,-1271.93"/>
<text text-anchor="middle" x="491.15" y="-1258.06" font-family="Times,serif" font-size="14.00">a</text>
</g>
<!-- https://w3id.org/oseg/ont/otrl&#45;&gt;https://w3id.org/oseg/ont/1.1.0/otrl -->
<g id="edge11" class="edge">
<title>https://w3id.org/oseg/ont/otrl&#45;&gt;https://w3id.org/oseg/ont/1.1.0/otrl</title>
<path fill="none" stroke="black" d="M231.1,-1137.29C272.74,-1151.68 346.21,-1175.34 411.15,-1187.26 528.68,-1208.85 668.52,-1215.87 746.47,-1218.16"/>
<polygon fill="black" stroke="black" points="746.5,-1221.66 756.59,-1218.44 746.69,-1214.66 746.5,-1221.66"/>
<text text-anchor="middle" x="491.15" y="-1210.06" font-family="Times,serif" font-size="14.00">owl:versionIRI</text>
</g>
<!-- https://w3id.org/oseg/ont/otrl&#45;&gt;https://w3id.org/oseg/ont/oseg&#45;profiles#robinVobruba -->
<g id="edge12" class="edge">
<title>https://w3id.org/oseg/ont/otrl&#45;&gt;https://w3id.org/oseg/ont/oseg&#45;profiles#robinVobruba</title>
<path fill="none" stroke="black" d="M239.89,-1134.06C282.82,-1142.54 351.28,-1154.86 411.15,-1160.26 502.46,-1168.51 606.1,-1170.06 684.37,-1169.65"/>
<polygon fill="black" stroke="black" points="684.78,-1173.15 694.75,-1169.59 684.73,-1166.15 684.78,-1173.15"/>
<text text-anchor="middle" x="491.15" y="-1172.06" font-family="Times,serif" font-size="14.00">schema:creator</text>
</g>
<!-- https://w3id.org/oseg/ont/otrl&#45;&gt;https://w3id.org/oseg/ont/oseg&#45;profiles#robinVobruba -->
<g id="edge44" class="edge">
<title>https://w3id.org/oseg/ont/otrl&#45;&gt;https://w3id.org/oseg/ont/oseg&#45;profiles#robinVobruba</title>
<path fill="none" stroke="black" d="M247.49,-1126.34C319.19,-1128.12 455.45,-1132.41 571.15,-1141.26 617.57,-1144.82 668.97,-1150.31 711.88,-1155.33"/>
<polygon fill="black" stroke="black" points="711.69,-1158.83 722.03,-1156.53 712.51,-1151.88 711.69,-1158.83"/>
<text text-anchor="middle" x="491.15" y="-1145.06" font-family="Times,serif" font-size="14.00">dcterms:creator</text>
</g>
<!-- https://w3id.org/oseg/ont/otrl&#45;&gt;https://spdx.org/licenses/GPL&#45;3.0&#45;or&#45;later -->
<g id="edge25" class="edge">
<title>https://w3id.org/oseg/ont/otrl&#45;&gt;https://spdx.org/licenses/GPL&#45;3.0&#45;or&#45;later</title>
<path fill="none" stroke="black" d="M245.01,-1120.11C288.24,-1115.7 353.9,-1109.67 411.15,-1107.26 506.89,-1103.24 615.76,-1105.98 695,-1109.3"/>
<polygon fill="black" stroke="black" points="694.86,-1112.8 705,-1109.73 695.16,-1105.81 694.86,-1112.8"/>
<text text-anchor="middle" x="491.15" y="-1111.06" font-family="Times,serif" font-size="14.00">spdxt:licenseDeclared</text>
</g>
<!-- https://w3id.org/oseg/ont/otrl&#45;&gt;https://w3id.org/oseg/ont/oseg&#45;profiles#Iopa -->
<g id="edge32" class="edge">
<title>https://w3id.org/oseg/ont/otrl&#45;&gt;https://w3id.org/oseg/ont/oseg&#45;profiles#Iopa</title>
<path fill="none" stroke="black" d="M238.67,-1115.89C281.49,-1106.53 350.66,-1092.5 411.15,-1085.26 515.74,-1072.75 636.79,-1067.69 717.14,-1065.65"/>
<polygon fill="black" stroke="black" points="717.31,-1069.15 727.22,-1065.4 717.14,-1062.15 717.31,-1069.15"/>
<text text-anchor="middle" x="491.15" y="-1089.06" font-family="Times,serif" font-size="14.00">dcterms:publisher</text>
</g>
<!-- https://w3id.org/oseg/ont/otrl&#45;&gt;https://w3id.org/oseg/ont/oseg&#45;profiles#martinHaeuer -->
<g id="edge36" class="edge">
<title>https://w3id.org/oseg/ont/otrl&#45;&gt;https://w3id.org/oseg/ont/oseg&#45;profiles#martinHaeuer</title>
<path fill="none" stroke="black" d="M228.08,-1112.41C268.98,-1095.74 344.19,-1067.07 411.15,-1052.26 502.32,-1032.11 607.51,-1021.53 686.49,-1016.03"/>
<polygon fill="black" stroke="black" points="686.73,-1019.52 696.47,-1015.35 686.26,-1012.54 686.73,-1019.52"/>
<text text-anchor="middle" x="491.15" y="-1056.06" font-family="Times,serif" font-size="14.00">dcterms:creator</text>
</g>
<!-- https://w3id.org/oseg/ont/otrl&#45;&gt;https://w3id.org/oseg/ont/oseg&#45;profiles#martinHaeuer -->
<g id="edge56" class="edge">
<title>https://w3id.org/oseg/ont/otrl&#45;&gt;https://w3id.org/oseg/ont/oseg&#45;profiles#martinHaeuer</title>
<path fill="none" stroke="black" d="M217.04,-1110.13C252.96,-1083.27 333.13,-1028.23 411.15,-1008.26 513.85,-981.98 636.53,-988.12 717.74,-997.15"/>
<polygon fill="black" stroke="black" points="717.59,-1000.65 727.92,-998.32 718.39,-993.7 717.59,-1000.65"/>
<text text-anchor="middle" x="491.15" y="-1012.06" font-family="Times,serif" font-size="14.00">schema:creator</text>
</g>
<!-- https://w3id.org/oseg/ont/otrl&#45;&gt;http://id.loc.gov/vocabulary/iso639&#45;1/en -->
<g id="edge45" class="edge">
<title>https://w3id.org/oseg/ont/otrl&#45;&gt;http://id.loc.gov/vocabulary/iso639&#45;1/en</title>
<path fill="none" stroke="black" d="M212.33,-1109.7C244.64,-1076.83 325.64,-1000.92 411.15,-971.26 528.91,-930.42 678.31,-938.92 755.42,-947.34"/>
<polygon fill="black" stroke="black" points="755.03,-950.82 765.36,-948.47 755.82,-943.86 755.03,-950.82"/>
<text text-anchor="middle" x="491.15" y="-975.06" font-family="Times,serif" font-size="14.00">dcterms:language</text>
</g>
<!-- https://w3id.org/oseg/ont/otrl#Otrl6 -->
<g id="node28" class="node">
<title>https://w3id.org/oseg/ont/otrl#Otrl6</title>
<ellipse fill="none" stroke="black" cx="807.65" cy="-16.26" rx="194.41" ry="16.03"/>
<text text-anchor="middle" x="807.65" y="-12.56" font-family="Times,serif" font-size="14.00">https://w3id.org/oseg/ont/otrl#Otrl6</text>
</g>
<!-- https://w3id.org/oseg/ont/otrl#Otrl6&#45;&gt;https://w3id.org/oseg/ont/otrl#OTRL6 -->
<g id="edge1" class="edge">
<title>https://w3id.org/oseg/ont/otrl#Otrl6&#45;&gt;https://w3id.org/oseg/ont/otrl#OTRL6</title>
<path fill="none" stroke="black" d="M989.89,-21.98C1105.32,-25.62 1248.86,-30.14 1335.13,-32.86"/>
<polygon fill="black" stroke="black" points="1335.26,-36.37 1345.37,-33.18 1335.48,-29.37 1335.26,-36.37"/>
<text text-anchor="middle" x="1124.14" y="-33.06" font-family="Times,serif" font-size="14.00">schema:supersededBy</text>
</g>
<!-- https://w3id.org/oseg/ont/otrl#Otrl6&#45;&gt;https://w3id.org/oseg/ont/otrl#OTRL6 -->
<g id="edge40" class="edge">
<title>https://w3id.org/oseg/ont/otrl#Otrl6&#45;&gt;https://w3id.org/oseg/ont/otrl#OTRL6</title>
<path fill="none" stroke="black" d="M952.51,-5.38C1027.59,-1.44 1120.9,0.73 1204.14,-5.26 1252.77,-8.77 1307.33,-16.83 1348.25,-23.72"/>
<polygon fill="black" stroke="black" points="1347.9,-27.21 1358.35,-25.44 1349.08,-20.31 1347.9,-27.21"/>
<text text-anchor="middle" x="1124.14" y="-9.06" font-family="Times,serif" font-size="14.00">owl:sameAs</text>
</g>
<!-- https://w3id.org/oseg/ont/otrl#Odrl2 -->
<g id="node29" class="node">
<title>https://w3id.org/oseg/ont/otrl#Odrl2</title>
<ellipse fill="none" stroke="black" cx="807.65" cy="-748.26" rx="196.65" ry="16.03"/>
<text text-anchor="middle" x="807.65" y="-744.56" font-family="Times,serif" font-size="14.00">https://w3id.org/oseg/ont/otrl#Odrl2</text>
</g>
<!-- https://w3id.org/oseg/ont/otrl#Odrl2&#45;&gt;https://w3id.org/oseg/ont/otrl#ODRL2 -->
<g id="edge3" class="edge">
<title>https://w3id.org/oseg/ont/otrl#Odrl2&#45;&gt;https://w3id.org/oseg/ont/otrl#ODRL2</title>
<path fill="none" stroke="black" d="M992.48,-753.82C1009.94,-754.32 1027.38,-754.81 1044.14,-755.26 1143.84,-757.97 1258.77,-760.73 1333.12,-762.46"/>
<polygon fill="black" stroke="black" points="1333.26,-765.97 1343.33,-762.7 1333.42,-758.97 1333.26,-765.97"/>
<text text-anchor="middle" x="1124.14" y="-763.06" font-family="Times,serif" font-size="14.00">schema:supersededBy</text>
</g>
<!-- https://w3id.org/oseg/ont/otrl#Odrl2&#45;&gt;https://w3id.org/oseg/ont/otrl#ODRL2 -->
<g id="edge31" class="edge">
<title>https://w3id.org/oseg/ont/otrl#Odrl2&#45;&gt;https://w3id.org/oseg/ont/otrl#ODRL2</title>
<path fill="none" stroke="black" d="M952.02,-737.19C1027.17,-733.09 1120.7,-730.65 1204.14,-736.26 1251.89,-739.47 1305.41,-746.8 1346.1,-753.16"/>
<polygon fill="black" stroke="black" points="1345.73,-756.64 1356.15,-754.75 1346.82,-749.73 1345.73,-756.64"/>
<text text-anchor="middle" x="1124.14" y="-740.06" font-family="Times,serif" font-size="14.00">owl:sameAs</text>
</g>
<!-- https://w3id.org/oseg/ont/otrl#Odrl3Star -->
<g id="node30" class="node">
<title>https://w3id.org/oseg/ont/otrl#Odrl3Star</title>
<ellipse fill="none" stroke="black" cx="807.65" cy="-691.26" rx="218.49" ry="16.03"/>
<text text-anchor="middle" x="807.65" y="-687.56" font-family="Times,serif" font-size="14.00">https://w3id.org/oseg/ont/otrl#Odrl3Star</text>
</g>
<!-- https://w3id.org/oseg/ont/otrl#Odrl3Star&#45;&gt;https://w3id.org/oseg/ont/otrl#ODRL3Star -->
<g id="edge6" class="edge">
<title>https://w3id.org/oseg/ont/otrl#Odrl3Star&#45;&gt;https://w3id.org/oseg/ont/otrl#ODRL3Star</title>
<path fill="none" stroke="black" d="M1021.14,-694.79C1119.9,-696.43 1232.65,-698.3 1311.47,-699.61"/>
<polygon fill="black" stroke="black" points="1311.82,-703.11 1321.88,-699.78 1311.94,-696.11 1311.82,-703.11"/>
<text text-anchor="middle" x="1124.14" y="-702.06" font-family="Times,serif" font-size="14.00">owl:sameAs</text>
</g>
<!-- https://w3id.org/oseg/ont/otrl#Odrl3Star&#45;&gt;https://w3id.org/oseg/ont/otrl#ODRL3Star -->
<g id="edge15" class="edge">
<title>https://w3id.org/oseg/ont/otrl#Odrl3Star&#45;&gt;https://w3id.org/oseg/ont/otrl#ODRL3Star</title>
<path fill="none" stroke="black" d="M958.02,-679.43C1032.09,-675.22 1122.86,-672.57 1204.14,-677.26 1246.13,-679.69 1292.66,-684.85 1330.97,-689.77"/>
<polygon fill="black" stroke="black" points="1330.67,-693.26 1341.04,-691.08 1331.57,-686.32 1330.67,-693.26"/>
<text text-anchor="middle" x="1124.14" y="-681.06" font-family="Times,serif" font-size="14.00">schema:supersededBy</text>
</g>
<!-- https://w3id.org/oseg/ont/otrl#Otrl -->
<g id="node31" class="node">
<title>https://w3id.org/oseg/ont/otrl#Otrl</title>
<ellipse fill="none" stroke="black" cx="1412.36" cy="-403.26" rx="188.18" ry="16.03"/>
<text text-anchor="middle" x="1412.36" y="-399.56" font-family="Times,serif" font-size="14.00">https://w3id.org/oseg/ont/otrl#Otrl</text>
</g>
<!-- https://w3id.org/oseg/ont/otrl#Otrl&#45;&gt;https://w3id.org/oseg/ont/otrl#OTRL -->
<g id="edge13" class="edge">
<title>https://w3id.org/oseg/ont/otrl#Otrl&#45;&gt;https://w3id.org/oseg/ont/otrl#OTRL</title>
<path fill="none" stroke="black" d="M1564.77,-393.64C1578.03,-389.51 1590.85,-384.16 1602.57,-377.26 1614.06,-370.5 1609.06,-360.01 1620.57,-353.26 1687.11,-314.27 1716.32,-341.89 1792.57,-330.26 1818.93,-326.24 1848,-321.34 1872.79,-317.01"/>
<polygon fill="black" stroke="black" points="1873.53,-320.44 1882.77,-315.26 1872.32,-313.54 1873.53,-320.44"/>
<text text-anchor="middle" x="1706.57" y="-357.06" font-family="Times,serif" font-size="14.00">owl:sameAs</text>
</g>
<!-- https://w3id.org/oseg/ont/otrl#Otrl&#45;&gt;https://w3id.org/oseg/ont/otrl#OTRL -->
<g id="edge34" class="edge">
<title>https://w3id.org/oseg/ont/otrl#Otrl&#45;&gt;https://w3id.org/oseg/ont/otrl#OTRL</title>
<path fill="none" stroke="black" d="M1567.8,-394.07C1653.46,-387.97 1750.9,-379.1 1792.57,-368.26 1829.9,-358.55 1869.9,-339.93 1897.55,-325.62"/>
<polygon fill="black" stroke="black" points="1899.21,-328.7 1906.43,-320.95 1895.95,-322.51 1899.21,-328.7"/>
<text text-anchor="middle" x="1706.57" y="-394.06" font-family="Times,serif" font-size="14.00">schema:supersededBy</text>
</g>
<!-- https://w3id.org/oseg/ont/otrl#Odrl3 -->
<g id="node32" class="node">
<title>https://w3id.org/oseg/ont/otrl#Odrl3</title>
<ellipse fill="none" stroke="black" cx="807.65" cy="-903.26" rx="196.65" ry="16.03"/>
<text text-anchor="middle" x="807.65" y="-899.56" font-family="Times,serif" font-size="14.00">https://w3id.org/oseg/ont/otrl#Odrl3</text>
</g>
<!-- https://w3id.org/oseg/ont/otrl#Odrl3&#45;&gt;https://w3id.org/oseg/ont/otrl#ODRL3 -->
<g id="edge14" class="edge">
<title>https://w3id.org/oseg/ont/otrl#Odrl3&#45;&gt;https://w3id.org/oseg/ont/otrl#ODRL3</title>
<path fill="none" stroke="black" d="M946.56,-914.79C1041.43,-920.81 1158.26,-923.87 1204.14,-907.26 1213.94,-903.72 1212.62,-896.47 1222.14,-892.26 1256.52,-877.09 1297.53,-870.26 1332.57,-867.35"/>
<polygon fill="black" stroke="black" points="1333.05,-870.83 1342.77,-866.6 1332.54,-863.85 1333.05,-870.83"/>
<text text-anchor="middle" x="1124.14" y="-924.06" font-family="Times,serif" font-size="14.00">owl:sameAs</text>
</g>
<!-- https://w3id.org/oseg/ont/otrl#Odrl3&#45;&gt;https://w3id.org/oseg/ont/otrl#ODRL3 -->
<g id="edge18" class="edge">
<title>https://w3id.org/oseg/ont/otrl#Odrl3&#45;&gt;https://w3id.org/oseg/ont/otrl#ODRL3</title>
<path fill="none" stroke="black" d="M963.5,-893.32C990.39,-891.61 1018.08,-889.87 1044.14,-888.26 1144.6,-882.06 1260.53,-875.15 1334.81,-870.76"/>
<polygon fill="black" stroke="black" points="1335.24,-874.25 1345.01,-870.16 1334.82,-867.26 1335.24,-874.25"/>
<text text-anchor="middle" x="1124.14" y="-892.06" font-family="Times,serif" font-size="14.00">schema:supersededBy</text>
</g>
<!-- https://w3id.org/oseg/ont/otrl#Odrl1 -->
<g id="node33" class="node">
<title>https://w3id.org/oseg/ont/otrl#Odrl1</title>
<ellipse fill="none" stroke="black" cx="807.65" cy="-840.26" rx="196.65" ry="16.03"/>
<text text-anchor="middle" x="807.65" y="-836.56" font-family="Times,serif" font-size="14.00">https://w3id.org/oseg/ont/otrl#Odrl1</text>
</g>
<!-- https://w3id.org/oseg/ont/otrl#Odrl1&#45;&gt;https://w3id.org/oseg/ont/otrl#ODRL1 -->
<g id="edge19" class="edge">
<title>https://w3id.org/oseg/ont/otrl#Odrl1&#45;&gt;https://w3id.org/oseg/ont/otrl#ODRL1</title>
<path fill="none" stroke="black" d="M1002.34,-837.96C1066.59,-836.63 1138.46,-834.54 1204.14,-831.26 1248.4,-829.05 1297.88,-825.28 1337.39,-821.95"/>
<polygon fill="black" stroke="black" points="1337.8,-825.43 1347.47,-821.1 1337.21,-818.46 1337.8,-825.43"/>
<text text-anchor="middle" x="1124.14" y="-841.06" font-family="Times,serif" font-size="14.00">schema:supersededBy</text>
</g>
<!-- https://w3id.org/oseg/ont/otrl#Odrl1&#45;&gt;https://w3id.org/oseg/ont/otrl#ODRL1 -->
<g id="edge47" class="edge">
<title>https://w3id.org/oseg/ont/otrl#Odrl1&#45;&gt;https://w3id.org/oseg/ont/otrl#ODRL1</title>
<path fill="none" stroke="black" d="M905.52,-826.13C947.96,-820.61 998.42,-814.97 1044.14,-812.26 1115.13,-808.06 1133.03,-811.75 1204.14,-812.26 1246.75,-812.57 1294.27,-813.24 1333.05,-813.86"/>
<polygon fill="black" stroke="black" points="1333.17,-817.36 1343.23,-814.03 1333.29,-810.37 1333.17,-817.36"/>
<text text-anchor="middle" x="1124.14" y="-816.06" font-family="Times,serif" font-size="14.00">owl:sameAs</text>
</g>
<!-- https://w3id.org/oseg/ont/otrl#Otrl5 -->
<g id="node34" class="node">
<title>https://w3id.org/oseg/ont/otrl#Otrl5</title>
<ellipse fill="none" stroke="black" cx="807.65" cy="-251.26" rx="194.41" ry="16.03"/>
<text text-anchor="middle" x="807.65" y="-247.56" font-family="Times,serif" font-size="14.00">https://w3id.org/oseg/ont/otrl#Otrl5</text>
</g>
<!-- https://w3id.org/oseg/ont/otrl#Otrl5&#45;&gt;https://w3id.org/oseg/ont/otrl#OTRL5 -->
<g id="edge20" class="edge">
<title>https://w3id.org/oseg/ont/otrl#Otrl5&#45;&gt;https://w3id.org/oseg/ont/otrl#OTRL5</title>
<path fill="none" stroke="black" d="M1002.25,-250.94C1115.26,-250.75 1251.55,-250.53 1334.8,-250.39"/>
<polygon fill="black" stroke="black" points="1334.94,-253.89 1344.94,-250.37 1334.93,-246.89 1334.94,-253.89"/>
<text text-anchor="middle" x="1124.14" y="-255.06" font-family="Times,serif" font-size="14.00">schema:supersededBy</text>
</g>
<!-- https://w3id.org/oseg/ont/otrl#Otrl5&#45;&gt;https://w3id.org/oseg/ont/otrl#OTRL5 -->
<g id="edge48" class="edge">
<title>https://w3id.org/oseg/ont/otrl#Otrl5&#45;&gt;https://w3id.org/oseg/ont/otrl#OTRL5</title>
<path fill="none" stroke="black" d="M936.56,-239.06C971.42,-236.25 1009.2,-233.67 1044.14,-232.26 1115.2,-229.4 1133.1,-229.18 1204.14,-232.26 1249.61,-234.23 1300.53,-238.63 1340.51,-242.58"/>
<polygon fill="black" stroke="black" points="1340.4,-246.09 1350.7,-243.6 1341.1,-239.12 1340.4,-246.09"/>
<text text-anchor="middle" x="1124.14" y="-236.06" font-family="Times,serif" font-size="14.00">owl:sameAs</text>
</g>
<!-- https://w3id.org/oseg/ont/otrl#Otrl2 -->
<g id="node35" class="node">
<title>https://w3id.org/oseg/ont/otrl#Otrl2</title>
<ellipse fill="none" stroke="black" cx="807.65" cy="-327.26" rx="194.41" ry="16.03"/>
<text text-anchor="middle" x="807.65" y="-323.56" font-family="Times,serif" font-size="14.00">https://w3id.org/oseg/ont/otrl#Otrl2</text>
</g>
<!-- https://w3id.org/oseg/ont/otrl#Otrl2&#45;&gt;https://w3id.org/oseg/ont/otrl#OTRL2 -->
<g id="edge22" class="edge">
<title>https://w3id.org/oseg/ont/otrl#Otrl2&#45;&gt;https://w3id.org/oseg/ont/otrl#OTRL2</title>
<path fill="none" stroke="black" d="M999.33,-324.44C1064.34,-322.94 1137.44,-320.68 1204.14,-317.26 1249.06,-314.96 1299.36,-311.11 1339.16,-307.76"/>
<polygon fill="black" stroke="black" points="1339.63,-311.23 1349.3,-306.9 1339.04,-304.26 1339.63,-311.23"/>
<text text-anchor="middle" x="1124.14" y="-327.06" font-family="Times,serif" font-size="14.00">owl:sameAs</text>
</g>
<!-- https://w3id.org/oseg/ont/otrl#Otrl2&#45;&gt;https://w3id.org/oseg/ont/otrl#OTRL2 -->
<g id="edge39" class="edge">
<title>https://w3id.org/oseg/ont/otrl#Otrl2&#45;&gt;https://w3id.org/oseg/ont/otrl#OTRL2</title>
<path fill="none" stroke="black" d="M902.37,-313.05C945.44,-307.2 997.27,-301.14 1044.14,-298.26 1115.12,-293.91 1133.03,-297.75 1204.14,-298.26 1247.41,-298.58 1295.75,-299.26 1334.85,-299.89"/>
<polygon fill="black" stroke="black" points="1335.04,-303.4 1345.1,-300.06 1335.16,-296.4 1335.04,-303.4"/>
<text text-anchor="middle" x="1124.14" y="-302.06" font-family="Times,serif" font-size="14.00">schema:supersededBy</text>
</g>
<!-- https://w3id.org/oseg/ont/otrl#Odrl -->
<g id="node36" class="node">
<title>https://w3id.org/oseg/ont/otrl#Odrl</title>
<ellipse fill="none" stroke="black" cx="1412.36" cy="-917.26" rx="190.42" ry="16.03"/>
<text text-anchor="middle" x="1412.36" y="-913.56" font-family="Times,serif" font-size="14.00">https://w3id.org/oseg/ont/otrl#Odrl</text>
</g>
<!-- https://w3id.org/oseg/ont/otrl#Odrl&#45;&gt;https://w3id.org/oseg/ont/otrl#ODRL -->
<g id="edge24" class="edge">
<title>https://w3id.org/oseg/ont/otrl#Odrl&#45;&gt;https://w3id.org/oseg/ont/otrl#ODRL</title>
<path fill="none" stroke="black" d="M1554.05,-906.36C1570.76,-902.62 1587.29,-897.7 1602.57,-891.26 1611.91,-887.33 1611.43,-881.65 1620.57,-877.26 1691.41,-843.26 1718.1,-861.39 1792.57,-836.26 1828.17,-824.25 1867.15,-806.6 1894.92,-793.21"/>
<polygon fill="black" stroke="black" points="1896.79,-796.19 1904.25,-788.66 1893.73,-789.89 1896.79,-796.19"/>
<text text-anchor="middle" x="1706.57" y="-881.06" font-family="Times,serif" font-size="14.00">schema:supersededBy</text>
</g>
<!-- https://w3id.org/oseg/ont/otrl#Odrl&#45;&gt;https://w3id.org/oseg/ont/otrl#ODRL -->
<g id="edge50" class="edge">
<title>https://w3id.org/oseg/ont/otrl#Odrl&#45;&gt;https://w3id.org/oseg/ont/otrl#ODRL</title>
<path fill="none" stroke="black" d="M1549.53,-928.54C1623.87,-929.77 1716.07,-923.09 1792.57,-892.26 1842.76,-872.04 1888.11,-826.55 1912.87,-798.33"/>
<polygon fill="black" stroke="black" points="1915.72,-800.38 1919.59,-790.52 1910.41,-795.82 1915.72,-800.38"/>
<text text-anchor="middle" x="1706.57" y="-931.06" font-family="Times,serif" font-size="14.00">owl:sameAs</text>
</g>
<!-- https://w3id.org/oseg/ont/otrl#Otrl4 -->
<g id="node37" class="node">
<title>https://w3id.org/oseg/ont/otrl#Otrl4</title>
<ellipse fill="none" stroke="black" cx="807.65" cy="-175.26" rx="194.41" ry="16.03"/>
<text text-anchor="middle" x="807.65" y="-171.56" font-family="Times,serif" font-size="14.00">https://w3id.org/oseg/ont/otrl#Otrl4</text>
</g>
<!-- https://w3id.org/oseg/ont/otrl#Otrl4&#45;&gt;https://w3id.org/oseg/ont/otrl#OTRL4 -->
<g id="edge26" class="edge">
<title>https://w3id.org/oseg/ont/otrl#Otrl4&#45;&gt;https://w3id.org/oseg/ont/otrl#OTRL4</title>
<path fill="none" stroke="black" d="M997.28,-179.02C1111.43,-181.29 1250.78,-184.07 1335.22,-185.75"/>
<polygon fill="black" stroke="black" points="1335.17,-189.25 1345.23,-185.95 1335.31,-182.25 1335.17,-189.25"/>
<text text-anchor="middle" x="1124.14" y="-187.06" font-family="Times,serif" font-size="14.00">owl:sameAs</text>
</g>
<!-- https://w3id.org/oseg/ont/otrl#Otrl4&#45;&gt;https://w3id.org/oseg/ont/otrl#OTRL4 -->
<g id="edge42" class="edge">
<title>https://w3id.org/oseg/ont/otrl#Otrl4&#45;&gt;https://w3id.org/oseg/ont/otrl#OTRL4</title>
<path fill="none" stroke="black" d="M946.01,-163.81C1022.13,-159.12 1118.43,-155.91 1204.14,-161.26 1251.68,-164.23 1304.99,-171 1345.64,-176.89"/>
<polygon fill="black" stroke="black" points="1345.28,-180.37 1355.69,-178.36 1346.3,-173.45 1345.28,-180.37"/>
<text text-anchor="middle" x="1124.14" y="-165.06" font-family="Times,serif" font-size="14.00">schema:supersededBy</text>
</g>
<!-- https://w3id.org/oseg/ont/otrl#Odrl5 -->
<g id="node38" class="node">
<title>https://w3id.org/oseg/ont/otrl#Odrl5</title>
<ellipse fill="none" stroke="black" cx="196.58" cy="-606.26" rx="196.65" ry="16.03"/>
<text text-anchor="middle" x="196.58" y="-602.56" font-family="Times,serif" font-size="14.00">https://w3id.org/oseg/ont/otrl#Odrl5</text>
</g>
<!-- https://w3id.org/oseg/ont/otrl#Odrl5&#45;&gt;https://w3id.org/oseg/ont/otrl#Odrl4 -->
<g id="edge27" class="edge">
<title>https://w3id.org/oseg/ont/otrl#Odrl5&#45;&gt;https://w3id.org/oseg/ont/otrl#Odrl4</title>
<path fill="none" stroke="black" d="M393.22,-606.26C510.43,-606.26 652.42,-606.26 735.81,-606.26"/>
<polygon fill="black" stroke="black" points="735.94,-609.76 745.94,-606.26 735.94,-602.76 735.94,-609.76"/>
<text text-anchor="middle" x="491.15" y="-610.06" font-family="Times,serif" font-size="14.00">owl:sameAs</text>
</g>
<!-- https://w3id.org/oseg/ont/otrl#Odrl5&#45;&gt;https://w3id.org/oseg/ont/otrl#Odrl4 -->
<g id="edge33" class="edge">
<title>https://w3id.org/oseg/ont/otrl#Odrl5&#45;&gt;https://w3id.org/oseg/ont/otrl#Odrl4</title>
<path fill="none" stroke="black" d="M319.43,-593.54C349.39,-590.93 381.4,-588.58 411.15,-587.26 482.19,-584.11 500.1,-584.4 571.15,-587.26 628.23,-589.56 692.91,-594.98 740.02,-599.45"/>
<polygon fill="black" stroke="black" points="739.81,-602.95 750.1,-600.42 740.48,-595.98 739.81,-602.95"/>
<text text-anchor="middle" x="491.15" y="-591.06" font-family="Times,serif" font-size="14.00">schema:supersededBy</text>
</g>
<!-- https://w3id.org/oseg/ont/otrl#Otrl1 -->
<g id="node39" class="node">
<title>https://w3id.org/oseg/ont/otrl#Otrl1</title>
<ellipse fill="none" stroke="black" cx="807.65" cy="-403.26" rx="194.41" ry="16.03"/>
<text text-anchor="middle" x="807.65" y="-399.56" font-family="Times,serif" font-size="14.00">https://w3id.org/oseg/ont/otrl#Otrl1</text>
</g>
<!-- https://w3id.org/oseg/ont/otrl#Otrl1&#45;&gt;https://w3id.org/oseg/ont/otrl#OTRL1 -->
<g id="edge29" class="edge">
<title>https://w3id.org/oseg/ont/otrl#Otrl1&#45;&gt;https://w3id.org/oseg/ont/otrl#OTRL1</title>
<path fill="none" stroke="black" d="M900.63,-417.6C982.94,-426.6 1105.47,-430.4 1204.14,-393.26 1213.89,-389.59 1212.62,-382.47 1222.14,-378.26 1257.21,-362.79 1299.18,-355.99 1334.68,-353.18"/>
<polygon fill="black" stroke="black" points="1335.26,-356.65 1344.99,-352.46 1334.77,-349.67 1335.26,-356.65"/>
<text text-anchor="middle" x="1124.14" y="-427.06" font-family="Times,serif" font-size="14.00">schema:supersededBy</text>
</g>
<!-- https://w3id.org/oseg/ont/otrl#Otrl1&#45;&gt;https://w3id.org/oseg/ont/otrl#OTRL1 -->
<g id="edge53" class="edge">
<title>https://w3id.org/oseg/ont/otrl#Otrl1&#45;&gt;https://w3id.org/oseg/ont/otrl#OTRL1</title>
<path fill="none" stroke="black" d="M909.92,-389.38C951.46,-384.06 1000.04,-378.3 1044.14,-374.26 1144.83,-365.06 1261.41,-358.82 1335.72,-355.41"/>
<polygon fill="black" stroke="black" points="1336.09,-358.89 1345.92,-354.94 1335.78,-351.9 1336.09,-358.89"/>
<text text-anchor="middle" x="1124.14" y="-378.06" font-family="Times,serif" font-size="14.00">owl:sameAs</text>
</g>
<!-- https://w3id.org/oseg/ont/otrl#Otrl3 -->
<g id="node40" class="node">
<title>https://w3id.org/oseg/ont/otrl#Otrl3</title>
<ellipse fill="none" stroke="black" cx="807.65" cy="-92.26" rx="194.41" ry="16.03"/>
<text text-anchor="middle" x="807.65" y="-88.56" font-family="Times,serif" font-size="14.00">https://w3id.org/oseg/ont/otrl#Otrl3</text>
</g>
<!-- https://w3id.org/oseg/ont/otrl#Otrl3&#45;&gt;https://w3id.org/oseg/ont/otrl#OTRL3 -->
<g id="edge46" class="edge">
<title>https://w3id.org/oseg/ont/otrl#Otrl3&#45;&gt;https://w3id.org/oseg/ont/otrl#OTRL3</title>
<path fill="none" stroke="black" d="M989.89,-97.98C1105.32,-101.62 1248.86,-106.14 1335.13,-108.86"/>
<polygon fill="black" stroke="black" points="1335.26,-112.37 1345.37,-109.18 1335.48,-105.37 1335.26,-112.37"/>
<text text-anchor="middle" x="1124.14" y="-109.06" font-family="Times,serif" font-size="14.00">owl:sameAs</text>
</g>
<!-- https://w3id.org/oseg/ont/otrl#Otrl3&#45;&gt;https://w3id.org/oseg/ont/otrl#OTRL3 -->
<g id="edge51" class="edge">
<title>https://w3id.org/oseg/ont/otrl#Otrl3&#45;&gt;https://w3id.org/oseg/ont/otrl#OTRL3</title>
<path fill="none" stroke="black" d="M952.51,-81.38C1027.59,-77.44 1120.9,-75.27 1204.14,-81.26 1252.77,-84.77 1307.33,-92.83 1348.25,-99.72"/>
<polygon fill="black" stroke="black" points="1347.9,-103.21 1358.35,-101.44 1349.08,-96.31 1347.9,-103.21"/>
<text text-anchor="middle" x="1124.14" y="-85.06" font-family="Times,serif" font-size="14.00">schema:supersededBy</text>
</g>
</g>
</svg>
