<?xml version="1.0" encoding="UTF-8" standalone="no"?>
<!DOCTYPE svg PUBLIC "-//W3C//DTD SVG 1.1//EN"
 "http://www.w3.org/Graphics/SVG/1.1/DTD/svg11.dtd">
<!-- Generated by graphviz version 2.43.0 (0)
 -->
<!-- Title: G Pages: 1 -->
<svg width="1180pt" height="866pt"
 viewBox="0.00 0.00 1180.00 866.00" xmlns="http://www.w3.org/2000/svg" xmlns:xlink="http://www.w3.org/1999/xlink">
<g id="graph0" class="graph" transform="scale(1 1) rotate(0) translate(4 862)">
<title>G</title>
<polygon fill="white" stroke="transparent" points="-4,4 -4,-862 1176,-862 1176,4 -4,4"/>
<!-- http://w3id.org/oseg/ont/otrl#ODRL -->
<g id="node1" class="node">
<title>http://w3id.org/oseg/ont/otrl#ODRL</title>
<ellipse fill="none" stroke="#e377c2" cx="329.52" cy="-259.72" rx="62.87" ry="16.03"/>
<text text-anchor="middle" x="329.52" y="-256.02" font-family="Times,serif" font-size="14.00">otrl:ODRL</text>
</g>
<!-- http://spdx.org/rdf/terms#SpdxItem -->
<g id="node2" class="node">
<title>http://spdx.org/rdf/terms#SpdxItem</title>
<ellipse fill="none" stroke="#1f77b4" cx="649.37" cy="-841.44" rx="87.86" ry="16.03"/>
<text text-anchor="middle" x="649.37" y="-837.74" font-family="Times,serif" font-size="14.00">spdx:SpdxItem</text>
</g>
<!-- http://w3id.org/oseg/ont/otrl#OTRL -->
<g id="node3" class="node">
<title>http://w3id.org/oseg/ont/otrl#OTRL</title>
<ellipse fill="none" stroke="#e377c2" cx="860.39" cy="-242.75" rx="60.62" ry="16.03"/>
<text text-anchor="middle" x="860.39" y="-239.05" font-family="Times,serif" font-size="14.00">otrl:OTRL</text>
</g>
<!-- http://w3id.org/oseg/ont/otrl#ODRL1 -->
<g id="node4" class="node">
<title>http://w3id.org/oseg/ont/otrl#ODRL1</title>
<ellipse fill="none" stroke="#e377c2" cx="166.1" cy="-60.16" rx="69.09" ry="16.03"/>
<text text-anchor="middle" x="166.1" y="-56.46" font-family="Times,serif" font-size="14.00">otrl:ODRL1</text>
</g>
<!-- http://w3id.org/oseg/ont/otrl#ODRL1&#45;&gt;http://w3id.org/oseg/ont/otrl#ODRL -->
<g id="edge1" class="edge">
<title>http://w3id.org/oseg/ont/otrl#ODRL1&#45;&gt;http://w3id.org/oseg/ont/otrl#ODRL</title>
<path fill="none" stroke="black" d="M179.2,-76.16C207.83,-111.11 276.1,-194.49 309.89,-235.75"/>
<polygon fill="black" stroke="black" points="307.32,-238.13 316.36,-243.65 312.73,-233.7 307.32,-238.13"/>
<text text-anchor="middle" x="240.05" y="-144.75" font-family="Times,serif" font-size="14.00">a</text>
</g>
<!-- http://w3id.org/oseg/ont/oseg&#45;profiles#robinVobruba -->
<g id="node5" class="node">
<title>http://w3id.org/oseg/ont/oseg&#45;profiles#robinVobruba</title>
<ellipse fill="none" stroke="#e377c2" cx="710.29" cy="-693.9" rx="113.69" ry="16.03"/>
<text text-anchor="middle" x="710.29" y="-690.2" font-family="Times,serif" font-size="14.00">osegprof:robinVob...</text>
</g>
<!-- http://w3id.org/oseg/ont/1.1.0/otrl -->
<g id="node6" class="node">
<title>http://w3id.org/oseg/ont/1.1.0/otrl</title>
<ellipse fill="none" stroke="#e377c2" cx="748.37" cy="-506.41" rx="50.82" ry="16.03"/>
<text text-anchor="middle" x="748.37" y="-502.71" font-family="Times,serif" font-size="14.00">ns1:otrl</text>
</g>
<!-- http://w3id.org/oseg/ont/oseg&#45;profiles#martinHaeuer -->
<g id="node7" class="node">
<title>http://w3id.org/oseg/ont/oseg&#45;profiles#martinHaeuer</title>
<ellipse fill="none" stroke="#e377c2" cx="466.64" cy="-701.57" rx="116.85" ry="16.03"/>
<text text-anchor="middle" x="466.64" y="-697.87" font-family="Times,serif" font-size="14.00">osegprof:martinHa...</text>
</g>
<!-- http://w3id.org/oseg/ont/otrl#ODRL3 -->
<g id="node8" class="node">
<title>http://w3id.org/oseg/ont/otrl#ODRL3</title>
<ellipse fill="none" stroke="#e377c2" cx="161.46" cy="-452.79" rx="69.09" ry="16.03"/>
<text text-anchor="middle" x="161.46" y="-449.09" font-family="Times,serif" font-size="14.00">otrl:ODRL3</text>
</g>
<!-- http://w3id.org/oseg/ont/otrl#ODRL3&#45;&gt;http://w3id.org/oseg/ont/otrl#ODRL -->
<g id="edge18" class="edge">
<title>http://w3id.org/oseg/ont/otrl#ODRL3&#45;&gt;http://w3id.org/oseg/ont/otrl#ODRL</title>
<path fill="none" stroke="black" d="M175.5,-436.66C205.17,-402.57 274.36,-323.09 309,-283.3"/>
<polygon fill="black" stroke="black" points="311.71,-285.51 315.64,-275.67 306.43,-280.91 311.71,-285.51"/>
<text text-anchor="middle" x="237.75" y="-363.78" font-family="Times,serif" font-size="14.00">a</text>
</g>
<!-- http://id.loc.gov/vocabulary/iso639&#45;1/en -->
<g id="node9" class="node">
<title>http://id.loc.gov/vocabulary/iso639&#45;1/en</title>
<ellipse fill="none" stroke="#e377c2" cx="844.69" cy="-651.44" rx="45.01" ry="16.03"/>
<text text-anchor="middle" x="844.69" y="-647.74" font-family="Times,serif" font-size="14.00">ns2:en</text>
</g>
<!-- http://www.w3.org/1999/02/22&#45;rdf&#45;syntax&#45;ns#langString -->
<g id="node10" class="node">
<title>http://www.w3.org/1999/02/22&#45;rdf&#45;syntax&#45;ns#langString</title>
<ellipse fill="none" stroke="#e377c2" cx="495.05" cy="-248.83" rx="83.38" ry="16.03"/>
<text text-anchor="middle" x="495.05" y="-245.13" font-family="Times,serif" font-size="14.00">rdf:langString</text>
</g>
<!-- http://w3id.org/oseg/ont/otrl -->
<g id="node11" class="node">
<title>http://w3id.org/oseg/ont/otrl</title>
<ellipse fill="none" stroke="#e377c2" cx="690.37" cy="-652.72" rx="50.82" ry="16.03"/>
<text text-anchor="middle" x="690.37" y="-649.02" font-family="Times,serif" font-size="14.00">ns3:otrl</text>
</g>
<!-- http://w3id.org/oseg/ont/otrl&#45;&gt;http://spdx.org/rdf/terms#SpdxItem -->
<g id="edge20" class="edge">
<title>http://w3id.org/oseg/ont/otrl&#45;&gt;http://spdx.org/rdf/terms#SpdxItem</title>
<path fill="none" stroke="black" d="M686.8,-669.13C679.7,-701.83 663.73,-775.33 655.13,-814.94"/>
<polygon fill="black" stroke="black" points="651.66,-814.41 652.96,-824.93 658.5,-815.9 651.66,-814.41"/>
<text text-anchor="middle" x="666.46" y="-745.84" font-family="Times,serif" font-size="14.00">a</text>
</g>
<!-- http://w3id.org/oseg/ont/otrl&#45;&gt;http://w3id.org/oseg/ont/oseg&#45;profiles#robinVobruba -->
<g id="edge12" class="edge">
<title>http://w3id.org/oseg/ont/otrl&#45;&gt;http://w3id.org/oseg/ont/oseg&#45;profiles#robinVobruba</title>
<path fill="none" stroke="black" d="M691.15,-668.98C691.18,-669.07 691.21,-669.16 691.25,-669.25"/>
<polygon fill="black" stroke="black" points="687.71,-669.9 694.94,-677.64 694.11,-667.08 687.71,-669.9"/>
<text text-anchor="middle" x="635.7" y="-672.91" font-family="Times,serif" font-size="14.00">schema:creator</text>
</g>
<!-- http://w3id.org/oseg/ont/otrl&#45;&gt;http://w3id.org/oseg/ont/oseg&#45;profiles#robinVobruba -->
<g id="edge16" class="edge">
<title>http://w3id.org/oseg/ont/otrl&#45;&gt;http://w3id.org/oseg/ont/oseg&#45;profiles#robinVobruba</title>
<path fill="none" stroke="black" d="M705.45,-668.45C705.49,-668.55 705.54,-668.64 705.59,-668.73"/>
<polygon fill="black" stroke="black" points="702.19,-669.71 709.43,-677.45 708.6,-666.88 702.19,-669.71"/>
<text text-anchor="middle" x="763.02" y="-672.39" font-family="Times,serif" font-size="14.00">dcterms:creator</text>
</g>
<!-- http://w3id.org/oseg/ont/otrl&#45;&gt;http://w3id.org/oseg/ont/1.1.0/otrl -->
<g id="edge17" class="edge">
<title>http://w3id.org/oseg/ont/otrl&#45;&gt;http://w3id.org/oseg/ont/1.1.0/otrl</title>
<path fill="none" stroke="black" d="M696.8,-636.5C706.81,-611.23 726.24,-562.25 738.18,-532.13"/>
<polygon fill="black" stroke="black" points="741.48,-533.29 741.92,-522.7 734.98,-530.71 741.48,-533.29"/>
<text text-anchor="middle" x="665.99" y="-573.12" font-family="Times,serif" font-size="14.00">owl:versionIRI</text>
</g>
<!-- http://w3id.org/oseg/ont/otrl&#45;&gt;http://w3id.org/oseg/ont/oseg&#45;profiles#martinHaeuer -->
<g id="edge2" class="edge">
<title>http://w3id.org/oseg/ont/otrl&#45;&gt;http://w3id.org/oseg/ont/oseg&#45;profiles#martinHaeuer</title>
<path fill="none" stroke="black" d="M641.72,-657.57C605.9,-663.97 557.2,-674.51 520.26,-683.82"/>
<polygon fill="black" stroke="black" points="518.99,-680.53 510.17,-686.41 520.73,-687.31 518.99,-680.53"/>
<text text-anchor="middle" x="525.49" y="-674.5" font-family="Times,serif" font-size="14.00">schema:creator</text>
</g>
<!-- http://w3id.org/oseg/ont/otrl&#45;&gt;http://w3id.org/oseg/ont/oseg&#45;profiles#martinHaeuer -->
<g id="edge5" class="edge">
<title>http://w3id.org/oseg/ont/otrl&#45;&gt;http://w3id.org/oseg/ont/oseg&#45;profiles#martinHaeuer</title>
<path fill="none" stroke="black" d="M656.97,-665.16C631.28,-672.22 594.47,-680.81 560.05,-687.98"/>
<polygon fill="black" stroke="black" points="559.03,-684.62 549.94,-690.07 560.44,-691.48 559.03,-684.62"/>
<text text-anchor="middle" x="551.01" y="-665.37" font-family="Times,serif" font-size="14.00">dcterms:creator</text>
</g>
<!-- http://w3id.org/oseg/ont/otrl&#45;&gt;http://id.loc.gov/vocabulary/iso639&#45;1/en -->
<g id="edge4" class="edge">
<title>http://w3id.org/oseg/ont/otrl&#45;&gt;http://id.loc.gov/vocabulary/iso639&#45;1/en</title>
<path fill="none" stroke="black" d="M741.32,-652.3C756.66,-652.17 773.57,-652.03 789.19,-651.9"/>
<polygon fill="black" stroke="black" points="789.27,-655.4 799.24,-651.82 789.21,-648.4 789.27,-655.4"/>
<text text-anchor="middle" x="765.26" y="-640.9" font-family="Times,serif" font-size="14.00">dcterms:language</text>
</g>
<!-- http://spdx.org/licenses/GPL&#45;3.0&#45;or&#45;later -->
<g id="node20" class="node">
<title>http://spdx.org/licenses/GPL&#45;3.0&#45;or&#45;later</title>
<ellipse fill="none" stroke="#e377c2" cx="527.67" cy="-512.13" rx="108.79" ry="16.03"/>
<text text-anchor="middle" x="527.67" y="-508.43" font-family="Times,serif" font-size="14.00">spdxl:GPL&#45;3.0&#45;or&#45;...</text>
</g>
<!-- http://w3id.org/oseg/ont/otrl&#45;&gt;http://spdx.org/licenses/GPL&#45;3.0&#45;or&#45;later -->
<g id="edge9" class="edge">
<title>http://w3id.org/oseg/ont/otrl&#45;&gt;http://spdx.org/licenses/GPL&#45;3.0&#45;or&#45;later</title>
<path fill="none" stroke="black" d="M672.65,-637.4C644.1,-612.73 587.76,-564.05 554.34,-535.17"/>
<polygon fill="black" stroke="black" points="556.22,-532.17 546.37,-528.28 551.65,-537.47 556.22,-532.17"/>
<text text-anchor="middle" x="537.49" y="-575.09" font-family="Times,serif" font-size="14.00">spdx:licenseDeclared</text>
</g>
<!-- http://w3id.org/oseg/ont/oseg&#45;profiles#Iopa -->
<g id="node23" class="node">
<title>http://w3id.org/oseg/ont/oseg&#45;profiles#Iopa</title>
<ellipse fill="none" stroke="#e377c2" cx="678.88" cy="-612.14" rx="80.72" ry="16.03"/>
<text text-anchor="middle" x="678.88" y="-608.44" font-family="Times,serif" font-size="14.00">osegprof:Iopa</text>
</g>
<!-- http://w3id.org/oseg/ont/otrl&#45;&gt;http://w3id.org/oseg/ont/oseg&#45;profiles#Iopa -->
<g id="edge26" class="edge">
<title>http://w3id.org/oseg/ont/otrl&#45;&gt;http://w3id.org/oseg/ont/oseg&#45;profiles#Iopa</title>
<path fill="none" stroke="black" d="M685.7,-636.21C685.65,-636.06 685.6,-635.9 685.56,-635.74"/>
<polygon fill="black" stroke="black" points="689.6,-637.17 683.51,-628.5 682.87,-639.08 689.6,-637.17"/>
<text text-anchor="middle" x="751.13" y="-624.78" font-family="Times,serif" font-size="14.00">dcterms:publisher</text>
</g>
<!-- http://w3id.org/oseg/ont/otrl#OTRL3 -->
<g id="node12" class="node">
<title>http://w3id.org/oseg/ont/otrl#OTRL3</title>
<ellipse fill="none" stroke="#e377c2" cx="880.18" cy="-296.89" rx="67.35" ry="16.03"/>
<text text-anchor="middle" x="880.18" y="-293.19" font-family="Times,serif" font-size="14.00">otrl:OTRL3</text>
</g>
<!-- http://w3id.org/oseg/ont/otrl#OTRL3&#45;&gt;http://w3id.org/oseg/ont/otrl#OTRL -->
<g id="edge21" class="edge">
<title>http://w3id.org/oseg/ont/otrl#OTRL3&#45;&gt;http://w3id.org/oseg/ont/otrl#OTRL</title>
<path fill="none" stroke="black" d="M874.24,-280.64C872.83,-276.79 871.3,-272.59 869.78,-268.43"/>
<polygon fill="black" stroke="black" points="873.04,-267.17 866.32,-258.98 866.47,-269.58 873.04,-267.17"/>
<text text-anchor="middle" x="867.51" y="-263.34" font-family="Times,serif" font-size="14.00">a</text>
</g>
<!-- http://w3id.org/oseg/ont/otrl#OTRL6 -->
<g id="node13" class="node">
<title>http://w3id.org/oseg/ont/otrl#OTRL6</title>
<ellipse fill="none" stroke="#e377c2" cx="1037.97" cy="-82.78" rx="67.35" ry="16.03"/>
<text text-anchor="middle" x="1037.97" y="-79.08" font-family="Times,serif" font-size="14.00">otrl:OTRL6</text>
</g>
<!-- http://w3id.org/oseg/ont/otrl#OTRL6&#45;&gt;http://w3id.org/oseg/ont/otrl#OTRL -->
<g id="edge6" class="edge">
<title>http://w3id.org/oseg/ont/otrl#OTRL6&#45;&gt;http://w3id.org/oseg/ont/otrl#OTRL</title>
<path fill="none" stroke="black" d="M1020.29,-98.7C988.57,-127.28 921.88,-187.36 885.45,-220.18"/>
<polygon fill="black" stroke="black" points="882.82,-217.83 877.73,-227.13 887.5,-223.04 882.82,-217.83"/>
<text text-anchor="middle" x="948.37" y="-163.24" font-family="Times,serif" font-size="14.00">a</text>
</g>
<!-- http://w3id.org/oseg/ont/otrl#OTRL5 -->
<g id="node14" class="node">
<title>http://w3id.org/oseg/ont/otrl#OTRL5</title>
<ellipse fill="none" stroke="#e377c2" cx="1104.65" cy="-221.16" rx="67.35" ry="16.03"/>
<text text-anchor="middle" x="1104.65" y="-217.46" font-family="Times,serif" font-size="14.00">otrl:OTRL5</text>
</g>
<!-- http://w3id.org/oseg/ont/otrl#OTRL5&#45;&gt;http://w3id.org/oseg/ont/otrl#OTRL -->
<g id="edge7" class="edge">
<title>http://w3id.org/oseg/ont/otrl#OTRL5&#45;&gt;http://w3id.org/oseg/ont/otrl#OTRL</title>
<path fill="none" stroke="black" d="M1041.43,-226.75C1006.82,-229.81 963.91,-233.6 928.56,-236.73"/>
<polygon fill="black" stroke="black" points="927.98,-233.26 918.32,-237.63 928.59,-240.24 927.98,-233.26"/>
<text text-anchor="middle" x="980.49" y="-235.54" font-family="Times,serif" font-size="14.00">a</text>
</g>
<!-- http://w3id.org/oseg/ont/otrl#goal -->
<g id="node15" class="node">
<title>http://w3id.org/oseg/ont/otrl#goal</title>
<ellipse fill="none" stroke="#e377c2" cx="591.93" cy="-291.02" rx="54.39" ry="16.03"/>
<text text-anchor="middle" x="591.93" y="-287.32" font-family="Times,serif" font-size="14.00">otrl:goal</text>
</g>
<!-- http://w3id.org/oseg/ont/otrl#goal&#45;&gt;http://w3id.org/oseg/ont/otrl#ODRL -->
<g id="edge15" class="edge">
<title>http://w3id.org/oseg/ont/otrl#goal&#45;&gt;http://w3id.org/oseg/ont/otrl#ODRL</title>
<path fill="none" stroke="black" d="M541.33,-284.99C500.21,-280.08 441.84,-273.12 396.78,-267.74"/>
<polygon fill="black" stroke="black" points="397.15,-264.26 386.8,-266.55 396.32,-271.21 397.15,-264.26"/>
<text text-anchor="middle" x="391.06" y="-280.17" font-family="Times,serif" font-size="14.00">dcam:domainIncludes</text>
</g>
<!-- http://w3id.org/oseg/ont/otrl#goal&#45;&gt;http://w3id.org/oseg/ont/otrl#OTRL -->
<g id="edge24" class="edge">
<title>http://w3id.org/oseg/ont/otrl#goal&#45;&gt;http://w3id.org/oseg/ont/otrl#OTRL</title>
<path fill="none" stroke="black" d="M638.69,-282.62C683.29,-274.6 750.71,-262.47 799.49,-253.7"/>
<polygon fill="black" stroke="black" points="800.37,-257.1 809.6,-251.88 799.13,-250.21 800.37,-257.1"/>
<text text-anchor="middle" x="719.09" y="-256.96" font-family="Times,serif" font-size="14.00">dcam:domainIncludes</text>
</g>
<!-- http://w3id.org/oseg/ont/otrl#goal&#45;&gt;http://www.w3.org/1999/02/22&#45;rdf&#45;syntax&#45;ns#langString -->
<g id="edge25" class="edge">
<title>http://w3id.org/oseg/ont/otrl#goal&#45;&gt;http://www.w3.org/1999/02/22&#45;rdf&#45;syntax&#45;ns#langString</title>
<path fill="none" stroke="black" d="M561.01,-277.56C553.92,-274.47 546.26,-271.13 538.75,-267.86"/>
<polygon fill="black" stroke="black" points="539.94,-264.56 529.37,-263.78 537.14,-270.98 539.94,-264.56"/>
<text text-anchor="middle" x="528.88" y="-276.51" font-family="Times,serif" font-size="14.00">range</text>
</g>
<!-- http://w3id.org/oseg/ont/otrl#exitCriteria -->
<g id="node16" class="node">
<title>http://w3id.org/oseg/ont/otrl#exitCriteria</title>
<ellipse fill="none" stroke="#e377c2" cx="587.81" cy="-188.45" rx="91.43" ry="16.03"/>
<text text-anchor="middle" x="587.81" y="-184.75" font-family="Times,serif" font-size="14.00">otrl:exitCriteria</text>
</g>
<!-- http://w3id.org/oseg/ont/otrl#exitCriteria&#45;&gt;http://w3id.org/oseg/ont/otrl#ODRL -->
<g id="edge3" class="edge">
<title>http://w3id.org/oseg/ont/otrl#exitCriteria&#45;&gt;http://w3id.org/oseg/ont/otrl#ODRL</title>
<path fill="none" stroke="black" d="M538.01,-202.19C493.35,-214.52 428.02,-232.54 382.43,-245.12"/>
<polygon fill="black" stroke="black" points="381.44,-241.76 372.73,-247.8 383.3,-248.51 381.44,-241.76"/>
<text text-anchor="middle" x="382.22" y="-212.46" font-family="Times,serif" font-size="14.00">dcam:domainIncludes</text>
</g>
<!-- http://w3id.org/oseg/ont/otrl#exitCriteria&#45;&gt;http://w3id.org/oseg/ont/otrl#OTRL -->
<g id="edge13" class="edge">
<title>http://w3id.org/oseg/ont/otrl#exitCriteria&#45;&gt;http://w3id.org/oseg/ont/otrl#OTRL</title>
<path fill="none" stroke="black" d="M648.98,-200.64C694.51,-209.71 756.3,-222.02 801.32,-230.99"/>
<polygon fill="black" stroke="black" points="800.74,-234.44 811.23,-232.96 802.11,-227.57 800.74,-234.44"/>
<text text-anchor="middle" x="647.15" y="-219.61" font-family="Times,serif" font-size="14.00">dcam:domainIncludes</text>
</g>
<!-- http://w3id.org/oseg/ont/otrl#exitCriteria&#45;&gt;http://www.w3.org/1999/02/22&#45;rdf&#45;syntax&#45;ns#langString -->
<g id="edge19" class="edge">
<title>http://w3id.org/oseg/ont/otrl#exitCriteria&#45;&gt;http://www.w3.org/1999/02/22&#45;rdf&#45;syntax&#45;ns#langString</title>
<path fill="none" stroke="black" d="M563.44,-204.31C552.57,-211.39 539.61,-219.82 527.91,-227.44"/>
<polygon fill="black" stroke="black" points="525.73,-224.68 519.26,-233.07 529.55,-230.55 525.73,-224.68"/>
<text text-anchor="middle" x="524.67" y="-219.68" font-family="Times,serif" font-size="14.00">range</text>
</g>
<!-- http://w3id.org/oseg/ont/otrl#OTRL2 -->
<g id="node17" class="node">
<title>http://w3id.org/oseg/ont/otrl#OTRL2</title>
<ellipse fill="none" stroke="#e377c2" cx="897.68" cy="-15.84" rx="67.35" ry="16.03"/>
<text text-anchor="middle" x="897.68" y="-12.14" font-family="Times,serif" font-size="14.00">otrl:OTRL2</text>
</g>
<!-- http://w3id.org/oseg/ont/otrl#OTRL2&#45;&gt;http://w3id.org/oseg/ont/otrl#OTRL -->
<g id="edge22" class="edge">
<title>http://w3id.org/oseg/ont/otrl#OTRL2&#45;&gt;http://w3id.org/oseg/ont/otrl#OTRL</title>
<path fill="none" stroke="black" d="M895,-32.16C888.63,-70.91 872.55,-168.74 864.76,-216.16"/>
<polygon fill="black" stroke="black" points="861.26,-215.84 863.1,-226.28 868.17,-216.98 861.26,-215.84"/>
<text text-anchor="middle" x="875.38" y="-127.96" font-family="Times,serif" font-size="14.00">a</text>
</g>
<!-- http://w3id.org/oseg/ont/otrl#ODRL2 -->
<g id="node18" class="node">
<title>http://w3id.org/oseg/ont/otrl#ODRL2</title>
<ellipse fill="none" stroke="#e377c2" cx="69.56" cy="-247.11" rx="69.09" ry="16.03"/>
<text text-anchor="middle" x="69.56" y="-243.41" font-family="Times,serif" font-size="14.00">otrl:ODRL2</text>
</g>
<!-- http://w3id.org/oseg/ont/otrl#ODRL2&#45;&gt;http://w3id.org/oseg/ont/otrl#ODRL -->
<g id="edge8" class="edge">
<title>http://w3id.org/oseg/ont/otrl#ODRL2&#45;&gt;http://w3id.org/oseg/ont/otrl#ODRL</title>
<path fill="none" stroke="black" d="M137.52,-250.41C174.23,-252.19 219.57,-254.39 256.97,-256.2"/>
<polygon fill="black" stroke="black" points="257.14,-259.71 267.3,-256.7 257.48,-252.72 257.14,-259.71"/>
<text text-anchor="middle" x="192.75" y="-257.11" font-family="Times,serif" font-size="14.00">a</text>
</g>
<!-- http://w3id.org/oseg/ont/otrl#OTRL1 -->
<g id="node19" class="node">
<title>http://w3id.org/oseg/ont/otrl#OTRL1</title>
<ellipse fill="none" stroke="#e377c2" cx="931.67" cy="-480.75" rx="67.35" ry="16.03"/>
<text text-anchor="middle" x="931.67" y="-477.05" font-family="Times,serif" font-size="14.00">otrl:OTRL1</text>
</g>
<!-- http://w3id.org/oseg/ont/otrl#OTRL1&#45;&gt;http://w3id.org/oseg/ont/otrl#OTRL -->
<g id="edge23" class="edge">
<title>http://w3id.org/oseg/ont/otrl#OTRL1&#45;&gt;http://w3id.org/oseg/ont/otrl#OTRL</title>
<path fill="none" stroke="black" d="M926.77,-464.39C914.61,-423.8 882.98,-318.19 868.21,-268.85"/>
<polygon fill="black" stroke="black" points="871.54,-267.8 865.32,-259.22 864.84,-269.81 871.54,-267.8"/>
<text text-anchor="middle" x="892.99" y="-370.42" font-family="Times,serif" font-size="14.00">a</text>
</g>
<!-- http://w3id.org/oseg/ont/otrl#OTRL4 -->
<g id="node21" class="node">
<title>http://w3id.org/oseg/ont/otrl#OTRL4</title>
<ellipse fill="none" stroke="#e377c2" cx="1070.88" cy="-378.29" rx="67.35" ry="16.03"/>
<text text-anchor="middle" x="1070.88" y="-374.59" font-family="Times,serif" font-size="14.00">otrl:OTRL4</text>
</g>
<!-- http://w3id.org/oseg/ont/otrl#OTRL4&#45;&gt;http://w3id.org/oseg/ont/otrl#OTRL -->
<g id="edge10" class="edge">
<title>http://w3id.org/oseg/ont/otrl#OTRL4&#45;&gt;http://w3id.org/oseg/ont/otrl#OTRL</title>
<path fill="none" stroke="black" d="M1047.14,-363C1009.2,-338.57 934.84,-290.69 892.29,-263.29"/>
<polygon fill="black" stroke="black" points="894.02,-260.24 883.72,-257.77 890.23,-266.13 894.02,-260.24"/>
<text text-anchor="middle" x="965.21" y="-316.95" font-family="Times,serif" font-size="14.00">a</text>
</g>
<!-- http://w3id.org/oseg/ont/otrl#ODRL3Star -->
<g id="node22" class="node">
<title>http://w3id.org/oseg/ont/otrl#ODRL3Star</title>
<ellipse fill="none" stroke="#e377c2" cx="246.76" cy="-330.81" rx="90.52" ry="16.03"/>
<text text-anchor="middle" x="246.76" y="-327.11" font-family="Times,serif" font-size="14.00">otrl:ODRL3Star</text>
</g>
<!-- http://w3id.org/oseg/ont/otrl#ODRL3Star&#45;&gt;http://w3id.org/oseg/ont/otrl#ODRL -->
<g id="edge11" class="edge">
<title>http://w3id.org/oseg/ont/otrl#ODRL3Star&#45;&gt;http://w3id.org/oseg/ont/otrl#ODRL</title>
<path fill="none" stroke="black" d="M265.54,-314.68C276.81,-305 291.3,-292.55 303.64,-281.95"/>
<polygon fill="black" stroke="black" points="306.08,-284.47 311.38,-275.3 301.52,-279.16 306.08,-284.47"/>
<text text-anchor="middle" x="280.09" y="-302.12" font-family="Times,serif" font-size="14.00">a</text>
</g>
<!-- http://w3id.org/oseg/ont/otrl#ODRL4 -->
<g id="node24" class="node">
<title>http://w3id.org/oseg/ont/otrl#ODRL4</title>
<ellipse fill="none" stroke="#e377c2" cx="279.79" cy="-161.1" rx="69.09" ry="16.03"/>
<text text-anchor="middle" x="279.79" y="-157.4" font-family="Times,serif" font-size="14.00">otrl:ODRL4</text>
</g>
<!-- http://w3id.org/oseg/ont/otrl#ODRL4&#45;&gt;http://w3id.org/oseg/ont/otrl#ODRL -->
<g id="edge14" class="edge">
<title>http://w3id.org/oseg/ont/otrl#ODRL4&#45;&gt;http://w3id.org/oseg/ont/otrl#ODRL</title>
<path fill="none" stroke="black" d="M288,-177.38C295.77,-192.8 307.57,-216.19 316.6,-234.11"/>
<polygon fill="black" stroke="black" points="313.67,-236.06 321.3,-243.41 319.92,-232.91 313.67,-236.06"/>
<text text-anchor="middle" x="297.8" y="-209.55" font-family="Times,serif" font-size="14.00">a</text>
</g>
</g>
</svg>
