<?xml version="1.0" encoding="UTF-8" standalone="no"?>
<!DOCTYPE svg PUBLIC "-//W3C//DTD SVG 1.1//EN"
 "http://www.w3.org/Graphics/SVG/1.1/DTD/svg11.dtd">
<!-- Generated by graphviz version 2.43.0 (0)
 -->
<!-- Title: G Pages: 1 -->
<svg width="1198pt" height="311pt"
 viewBox="0.00 0.00 1198.00 311.00" xmlns="http://www.w3.org/2000/svg" xmlns:xlink="http://www.w3.org/1999/xlink">
<g id="graph0" class="graph" transform="scale(1 1) rotate(0) translate(4 307)">
<title>G</title>
<polygon fill="white" stroke="transparent" points="-4,4 -4,-307 1194,-307 1194,4 -4,4"/>
<!-- http://www.w3.org/2004/02/skos/core#Concept -->
<g id="node1" class="node">
<title>http://www.w3.org/2004/02/skos/core#Concept</title>
<ellipse fill="none" stroke="#1f77b4" cx="650.54" cy="-194" rx="78.48" ry="16.03"/>
<text text-anchor="middle" x="650.54" y="-190.3" font-family="Times,serif" font-size="14.00">skos:Concept</text>
</g>
<!-- http://w3id.org/oseg/ont/ods#FetchUrl -->
<g id="node2" class="node">
<title>http://w3id.org/oseg/ont/ods#FetchUrl</title>
<ellipse fill="none" stroke="#e377c2" cx="76.61" cy="-144.64" rx="77.15" ry="16.03"/>
<text text-anchor="middle" x="76.61" y="-140.94" font-family="Times,serif" font-size="14.00">ods:FetchUrl</text>
</g>
<!-- http://w3id.org/oseg/ont/okhmeta#HistoryTag -->
<g id="node3" class="node">
<title>http://w3id.org/oseg/ont/okhmeta#HistoryTag</title>
<ellipse fill="none" stroke="#e377c2" cx="325.76" cy="-116.01" rx="113.69" ry="16.03"/>
<text text-anchor="middle" x="325.76" y="-112.31" font-family="Times,serif" font-size="14.00">okhmeta:HistoryTag</text>
</g>
<!-- http://w3id.org/oseg/ont/okh#hasCertificate -->
<g id="node4" class="node">
<title>http://w3id.org/oseg/ont/okh#hasCertificate</title>
<ellipse fill="none" stroke="#e377c2" cx="450.87" cy="-235.68" rx="103.48" ry="16.03"/>
<text text-anchor="middle" x="450.87" y="-231.98" font-family="Times,serif" font-size="14.00">okh:hasCertificate</text>
</g>
<!-- http://w3id.org/oseg/ont/okh#hasCertificate&#45;&gt;http://www.w3.org/2004/02/skos/core#Concept -->
<g id="edge8" class="edge">
<title>http://w3id.org/oseg/ont/okh#hasCertificate&#45;&gt;http://www.w3.org/2004/02/skos/core#Concept</title>
<path fill="none" stroke="black" d="M513.23,-222.66C536.05,-217.89 561.93,-212.49 585.03,-207.67"/>
<polygon fill="black" stroke="black" points="586,-211.04 595.08,-205.57 584.57,-204.19 586,-211.04"/>
<text text-anchor="middle" x="544.63" y="-203.96" font-family="Times,serif" font-size="14.00">a</text>
</g>
<!-- http://w3id.org/oseg/ont/okhmeta#DevelopmentTag -->
<g id="node7" class="node">
<title>http://w3id.org/oseg/ont/okhmeta#DevelopmentTag</title>
<ellipse fill="none" stroke="#e377c2" cx="445.59" cy="-283.96" rx="124.4" ry="16.03"/>
<text text-anchor="middle" x="445.59" y="-280.26" font-family="Times,serif" font-size="14.00">okhmeta:Developme...</text>
</g>
<!-- http://w3id.org/oseg/ont/okh#hasCertificate&#45;&gt;http://w3id.org/oseg/ont/okhmeta#DevelopmentTag -->
<g id="edge4" class="edge">
<title>http://w3id.org/oseg/ont/okh#hasCertificate&#45;&gt;http://w3id.org/oseg/ont/okhmeta#DevelopmentTag</title>
<path fill="none" stroke="black" d="M449.09,-252.02C448.9,-253.75 448.7,-255.55 448.5,-257.35"/>
<polygon fill="black" stroke="black" points="444.99,-257.31 447.38,-267.63 451.95,-258.07 444.99,-257.31"/>
<text text-anchor="middle" x="525.8" y="-258.49" font-family="Times,serif" font-size="14.00">okhmeta:hasMetaTag</text>
</g>
<!-- http://w3id.org/oseg/ont/okh#Module -->
<g id="node8" class="node">
<title>http://w3id.org/oseg/ont/okh#Module</title>
<ellipse fill="none" stroke="#e377c2" cx="603.75" cy="-44.16" rx="70.92" ry="16.03"/>
<text text-anchor="middle" x="603.75" y="-40.46" font-family="Times,serif" font-size="14.00">okh:Module</text>
</g>
<!-- http://w3id.org/oseg/ont/okh#hasCertificate&#45;&gt;http://w3id.org/oseg/ont/okh#Module -->
<g id="edge7" class="edge">
<title>http://w3id.org/oseg/ont/okh#hasCertificate&#45;&gt;http://w3id.org/oseg/ont/okh#Module</title>
<path fill="none" stroke="black" d="M463.91,-219.35C490.83,-185.62 552.68,-108.13 584.33,-68.48"/>
<polygon fill="black" stroke="black" points="587.46,-70.17 590.96,-60.17 581.99,-65.81 587.46,-70.17"/>
<text text-anchor="middle" x="602.12" y="-147.71" font-family="Times,serif" font-size="14.00">dcam:domainIncludes</text>
</g>
<!-- http://w3id.org/oseg/ont/okh#contributorCount -->
<g id="node5" class="node">
<title>http://w3id.org/oseg/ont/okh#contributorCount</title>
<ellipse fill="none" stroke="#e377c2" cx="894.91" cy="-54.92" rx="120.42" ry="16.03"/>
<text text-anchor="middle" x="894.91" y="-51.22" font-family="Times,serif" font-size="14.00">okh:contributorCount</text>
</g>
<!-- http://w3id.org/oseg/ont/okh#contributorCount&#45;&gt;http://www.w3.org/2004/02/skos/core#Concept -->
<g id="edge11" class="edge">
<title>http://w3id.org/oseg/ont/okh#contributorCount&#45;&gt;http://www.w3.org/2004/02/skos/core#Concept</title>
<path fill="none" stroke="black" d="M866.88,-70.87C822.36,-96.21 735.52,-145.63 686.49,-173.54"/>
<polygon fill="black" stroke="black" points="684.46,-170.66 677.5,-178.65 687.92,-176.75 684.46,-170.66"/>
<text text-anchor="middle" x="772.18" y="-126" font-family="Times,serif" font-size="14.00">a</text>
</g>
<!-- http://w3id.org/oseg/ont/okh#contributorCount&#45;&gt;http://w3id.org/oseg/ont/okh#Module -->
<g id="edge10" class="edge">
<title>http://w3id.org/oseg/ont/okh#contributorCount&#45;&gt;http://w3id.org/oseg/ont/okh#Module</title>
<path fill="none" stroke="black" d="M778.58,-50.62C746.84,-49.44 713.17,-48.2 683.93,-47.12"/>
<polygon fill="black" stroke="black" points="683.91,-43.62 673.79,-46.74 683.65,-50.61 683.91,-43.62"/>
<text text-anchor="middle" x="731.26" y="-37.67" font-family="Times,serif" font-size="14.00">dcam:domainIncludes</text>
</g>
<!-- http://www.w3.org/2001/XMLSchema#int -->
<g id="node9" class="node">
<title>http://www.w3.org/2001/XMLSchema#int</title>
<ellipse fill="none" stroke="#e377c2" cx="1144.35" cy="-16.36" rx="45.92" ry="16.03"/>
<text text-anchor="middle" x="1144.35" y="-12.66" font-family="Times,serif" font-size="14.00">xsd:int</text>
</g>
<!-- http://w3id.org/oseg/ont/okh#contributorCount&#45;&gt;http://www.w3.org/2001/XMLSchema#int -->
<g id="edge9" class="edge">
<title>http://w3id.org/oseg/ont/okh#contributorCount&#45;&gt;http://www.w3.org/2001/XMLSchema#int</title>
<path fill="none" stroke="black" d="M974.18,-42.67C1012.57,-36.73 1057.63,-29.77 1091.73,-24.5"/>
<polygon fill="black" stroke="black" points="1092.59,-27.9 1101.94,-22.92 1091.52,-20.99 1092.59,-27.9"/>
<text text-anchor="middle" x="960.45" y="-22.38" font-family="Times,serif" font-size="14.00">dcam:rangeIncludes</text>
</g>
<!-- http://w3id.org/oseg/ont/okh#repoSnapshot -->
<g id="node6" class="node">
<title>http://w3id.org/oseg/ont/okh#repoSnapshot</title>
<ellipse fill="none" stroke="#e377c2" cx="363.35" cy="-161.82" rx="103.48" ry="16.03"/>
<text text-anchor="middle" x="363.35" y="-158.12" font-family="Times,serif" font-size="14.00">okh:repoSnapshot</text>
</g>
<!-- http://w3id.org/oseg/ont/okh#repoSnapshot&#45;&gt;http://www.w3.org/2004/02/skos/core#Concept -->
<g id="edge3" class="edge">
<title>http://w3id.org/oseg/ont/okh#repoSnapshot&#45;&gt;http://www.w3.org/2004/02/skos/core#Concept</title>
<path fill="none" stroke="black" d="M447.58,-171.25C486.62,-175.63 532.78,-180.8 571.2,-185.11"/>
<polygon fill="black" stroke="black" points="570.98,-188.6 581.3,-186.24 571.75,-181.65 570.98,-188.6"/>
<text text-anchor="middle" x="504.89" y="-181.98" font-family="Times,serif" font-size="14.00">a</text>
</g>
<!-- http://w3id.org/oseg/ont/okh#repoSnapshot&#45;&gt;http://w3id.org/oseg/ont/ods#FetchUrl -->
<g id="edge1" class="edge">
<title>http://w3id.org/oseg/ont/okh#repoSnapshot&#45;&gt;http://w3id.org/oseg/ont/ods#FetchUrl</title>
<path fill="none" stroke="black" d="M266.67,-156.03C232.49,-153.98 194.33,-151.69 161.22,-149.71"/>
<polygon fill="black" stroke="black" points="161.31,-146.21 151.12,-149.1 160.9,-153.2 161.31,-146.21"/>
<text text-anchor="middle" x="213.95" y="-141.67" font-family="Times,serif" font-size="14.00">dcam:rangeIncludes</text>
</g>
<!-- http://w3id.org/oseg/ont/okh#repoSnapshot&#45;&gt;http://w3id.org/oseg/ont/okhmeta#HistoryTag -->
<g id="edge2" class="edge">
<title>http://w3id.org/oseg/ont/okh#repoSnapshot&#45;&gt;http://w3id.org/oseg/ont/okhmeta#HistoryTag</title>
<path fill="none" stroke="black" d="M349.99,-145.54C348.55,-143.78 347.06,-141.97 345.57,-140.15"/>
<polygon fill="black" stroke="black" points="348.12,-137.75 339.07,-132.24 342.71,-142.19 348.12,-137.75"/>
<text text-anchor="middle" x="424.78" y="-131.65" font-family="Times,serif" font-size="14.00">okhmeta:hasMetaTag</text>
</g>
<!-- http://w3id.org/oseg/ont/okh#repoSnapshot&#45;&gt;http://w3id.org/oseg/ont/okh#Module -->
<g id="edge5" class="edge">
<title>http://w3id.org/oseg/ont/okh#repoSnapshot&#45;&gt;http://w3id.org/oseg/ont/okh#Module</title>
<path fill="none" stroke="black" d="M395.27,-146.19C438.98,-124.8 517.38,-86.43 564.58,-63.32"/>
<polygon fill="black" stroke="black" points="566.14,-66.46 573.59,-58.92 563.07,-60.17 566.14,-66.46"/>
<text text-anchor="middle" x="557.93" y="-108.56" font-family="Times,serif" font-size="14.00">dcam:domainIncludes</text>
</g>
<!-- http://spdx.org/licenses/GPL&#45;3.0&#45;or&#45;later -->
<g id="node10" class="node">
<title>http://spdx.org/licenses/GPL&#45;3.0&#45;or&#45;later</title>
<ellipse fill="none" stroke="#e377c2" cx="794.94" cy="-287.17" rx="108.79" ry="16.03"/>
<text text-anchor="middle" x="794.94" y="-283.47" font-family="Times,serif" font-size="14.00">spdxl:GPL&#45;3.0&#45;or&#45;...</text>
</g>
<!-- http://w3id.org/oseg/ont/okh -->
<g id="node11" class="node">
<title>http://w3id.org/oseg/ont/okh</title>
<ellipse fill="none" stroke="#e377c2" cx="965.33" cy="-261.72" rx="50.82" ry="16.03"/>
<text text-anchor="middle" x="965.33" y="-258.02" font-family="Times,serif" font-size="14.00">ns1:okh</text>
</g>
<!-- http://w3id.org/oseg/ont/okh&#45;&gt;http://spdx.org/licenses/GPL&#45;3.0&#45;or&#45;later -->
<g id="edge6" class="edge">
<title>http://w3id.org/oseg/ont/okh&#45;&gt;http://spdx.org/licenses/GPL&#45;3.0&#45;or&#45;later</title>
<path fill="none" stroke="black" d="M918.77,-268.67C907.34,-270.38 894.73,-272.26 882.07,-274.16"/>
<polygon fill="black" stroke="black" points="881.3,-270.73 871.92,-275.67 882.33,-277.65 881.3,-270.73"/>
<text text-anchor="middle" x="824.42" y="-260.21" font-family="Times,serif" font-size="14.00">spdx:licenseDeclared</text>
</g>
</g>
</svg>
