<?xml version="1.0" encoding="UTF-8" standalone="no"?>
<!DOCTYPE svg PUBLIC "-//W3C//DTD SVG 1.1//EN"
 "http://www.w3.org/Graphics/SVG/1.1/DTD/svg11.dtd">
<!-- Generated by graphviz version 2.43.0 (0)
 -->
<!-- Title: G Pages: 1 -->
<svg width="1749pt" height="1466pt"
 viewBox="0.00 0.00 1749.48 1465.53" xmlns="http://www.w3.org/2000/svg" xmlns:xlink="http://www.w3.org/1999/xlink">
<g id="graph0" class="graph" transform="scale(1 1) rotate(0) translate(4 1461.53)">
<title>G</title>
<polygon fill="white" stroke="transparent" points="-4,4 -4,-1461.53 1745.48,-1461.53 1745.48,4 -4,4"/>
<!-- http://schema.org/DefinedTermSet -->
<g id="node1" class="node">
<title>http://schema.org/DefinedTermSet</title>
<ellipse fill="none" stroke="#1f77b4" cx="884.08" cy="-621.26" rx="116.85" ry="16.03"/>
<text text-anchor="middle" x="884.08" y="-617.56" font-family="Times,serif" font-size="14.00">schema:DefinedTer...</text>
</g>
<!-- http://spdx.org/rdf/terms#SpdxItem -->
<g id="node2" class="node">
<title>http://spdx.org/rdf/terms#SpdxItem</title>
<ellipse fill="none" stroke="#1f77b4" cx="441.85" cy="-848.26" rx="87.86" ry="16.03"/>
<text text-anchor="middle" x="441.85" y="-844.56" font-family="Times,serif" font-size="14.00">spdx:SpdxItem</text>
</g>
<!-- http://schema.org/DefinedTerm -->
<g id="node3" class="node">
<title>http://schema.org/DefinedTerm</title>
<ellipse fill="none" stroke="#1f77b4" cx="1623.39" cy="-729.26" rx="118.17" ry="16.03"/>
<text text-anchor="middle" x="1623.39" y="-725.56" font-family="Times,serif" font-size="14.00">schema:DefinedTerm</text>
</g>
<!-- http://w3id.org/oseg/ont/ods#Dataset -->
<g id="node4" class="node">
<title>http://w3id.org/oseg/ont/ods#Dataset</title>
<ellipse fill="none" stroke="#1f77b4" cx="441.85" cy="-797.26" rx="71.34" ry="16.03"/>
<text text-anchor="middle" x="441.85" y="-793.56" font-family="Times,serif" font-size="14.00">ods:Dataset</text>
</g>
<!-- http://w3id.org/oseg/ont/okhimg#slotModelFromAbove -->
<g id="node5" class="node">
<title>http://w3id.org/oseg/ont/okhimg#slotModelFromAbove</title>
<ellipse fill="none" stroke="#e377c2" cx="1333.03" cy="-1441.26" rx="116.85" ry="16.03"/>
<text text-anchor="middle" x="1333.03" y="-1437.56" font-family="Times,serif" font-size="14.00">okhimg:slotModelF...</text>
</g>
<!-- http://w3id.org/oseg/ont/okhimg#slotModelFromAbove&#45;&gt;http://schema.org/DefinedTerm -->
<g id="edge1" class="edge">
<title>http://w3id.org/oseg/ont/okhimg#slotModelFromAbove&#45;&gt;http://schema.org/DefinedTerm</title>
<path fill="none" stroke="black" d="M1429.08,-1431.91C1440.34,-1427.95 1451.09,-1422.55 1460.3,-1415.26 1482.61,-1397.63 1478.26,-1384.22 1487.3,-1357.26 1563.35,-1130.66 1606.75,-843.29 1618.86,-755.75"/>
<polygon fill="black" stroke="black" points="1622.36,-756.01 1620.25,-745.63 1615.43,-755.07 1622.36,-756.01"/>
<text text-anchor="middle" x="1482.8" y="-1394.06" font-family="Times,serif" font-size="14.00">a</text>
</g>
<!-- http://w3id.org/oseg/ont/okhimg#tagModel -->
<g id="node6" class="node">
<title>http://w3id.org/oseg/ont/okhimg#tagModel</title>
<ellipse fill="none" stroke="#e377c2" cx="1333.03" cy="-1390.26" rx="99.9" ry="16.03"/>
<text text-anchor="middle" x="1333.03" y="-1386.56" font-family="Times,serif" font-size="14.00">okhimg:tagModel</text>
</g>
<!-- http://w3id.org/oseg/ont/okhimg#tagModel&#45;&gt;http://schema.org/DefinedTerm -->
<g id="edge2" class="edge">
<title>http://w3id.org/oseg/ont/okhimg#tagModel&#45;&gt;http://schema.org/DefinedTerm</title>
<path fill="none" stroke="black" d="M1422.54,-1382.97C1436.15,-1378.88 1449.3,-1372.9 1460.3,-1364.26 1482.35,-1346.95 1478.06,-1333.73 1487.3,-1307.26 1559.49,-1100.56 1604.9,-838.84 1618.26,-755.8"/>
<polygon fill="black" stroke="black" points="1621.75,-756.14 1619.87,-745.71 1614.84,-755.04 1621.75,-756.14"/>
<text text-anchor="middle" x="1482.8" y="-1342.06" font-family="Times,serif" font-size="14.00">a</text>
</g>
<!-- http://w3id.org/oseg/ont/oseg&#45;profiles#robinVobruba -->
<g id="node7" class="node">
<title>http://w3id.org/oseg/ont/oseg&#45;profiles#robinVobruba</title>
<ellipse fill="none" stroke="#e377c2" cx="441.85" cy="-746.26" rx="113.69" ry="16.03"/>
<text text-anchor="middle" x="441.85" y="-742.56" font-family="Times,serif" font-size="14.00">osegprof:robinVob...</text>
</g>
<!-- http://w3id.org/oseg/ont/okhimg#slots -->
<g id="node8" class="node">
<title>http://w3id.org/oseg/ont/okhimg#slots</title>
<ellipse fill="none" stroke="#e377c2" cx="441.85" cy="-695.26" rx="75.82" ry="16.03"/>
<text text-anchor="middle" x="441.85" y="-691.56" font-family="Times,serif" font-size="14.00">okhimg:slots</text>
</g>
<!-- http://w3id.org/oseg/ont/okhimg#slots&#45;&gt;http://schema.org/DefinedTermSet -->
<g id="edge15" class="edge">
<title>http://w3id.org/oseg/ont/okhimg#slots&#45;&gt;http://schema.org/DefinedTermSet</title>
<path fill="none" stroke="black" d="M493,-683.24C517.29,-677.65 546.92,-671.17 573.7,-666.26 644.75,-653.24 725.54,-641.6 786.74,-633.42"/>
<polygon fill="black" stroke="black" points="787.33,-636.87 796.78,-632.08 786.41,-629.93 787.33,-636.87"/>
<text text-anchor="middle" x="661.2" y="-670.06" font-family="Times,serif" font-size="14.00">a</text>
</g>
<!-- http://w3id.org/oseg/ont/okhimg#slotIconMain -->
<g id="node15" class="node">
<title>http://w3id.org/oseg/ont/okhimg#slotIconMain</title>
<ellipse fill="none" stroke="#e377c2" cx="884.08" cy="-681.26" rx="117.26" ry="16.03"/>
<text text-anchor="middle" x="884.08" y="-677.56" font-family="Times,serif" font-size="14.00">okhimg:slotIconMain</text>
</g>
<!-- http://w3id.org/oseg/ont/okhimg#slots&#45;&gt;http://w3id.org/oseg/ont/okhimg#slotIconMain -->
<g id="edge11" class="edge">
<title>http://w3id.org/oseg/ont/okhimg#slots&#45;&gt;http://w3id.org/oseg/ont/okhimg#slotIconMain</title>
<path fill="none" stroke="black" d="M517.03,-692.9C583.05,-690.8 680.93,-687.69 758.88,-685.21"/>
<polygon fill="black" stroke="black" points="759.37,-688.7 769.25,-684.88 759.14,-681.7 759.37,-688.7"/>
<text text-anchor="middle" x="661.2" y="-694.06" font-family="Times,serif" font-size="14.00">schema:hasDefinedTerm</text>
</g>
<!-- http://w3id.org/oseg/ont/okhimg#tagScreenshot -->
<g id="node9" class="node">
<title>http://w3id.org/oseg/ont/okhimg#tagScreenshot</title>
<ellipse fill="none" stroke="#e377c2" cx="1333.03" cy="-1339.26" rx="125.32" ry="16.03"/>
<text text-anchor="middle" x="1333.03" y="-1335.56" font-family="Times,serif" font-size="14.00">okhimg:tagScreenshot</text>
</g>
<!-- http://w3id.org/oseg/ont/okhimg#tagScreenshot&#45;&gt;http://schema.org/DefinedTerm -->
<g id="edge5" class="edge">
<title>http://w3id.org/oseg/ont/okhimg#tagScreenshot&#45;&gt;http://schema.org/DefinedTerm</title>
<path fill="none" stroke="black" d="M1430.91,-1329.1C1441.49,-1325.23 1451.57,-1320.08 1460.3,-1313.26 1482.09,-1296.27 1477.83,-1283.22 1487.3,-1257.26 1555.61,-1070.07 1602.95,-833.55 1617.6,-755.54"/>
<polygon fill="black" stroke="black" points="1621.06,-756.07 1619.44,-745.6 1614.17,-754.79 1621.06,-756.07"/>
<text text-anchor="middle" x="1482.8" y="-1292.06" font-family="Times,serif" font-size="14.00">a</text>
</g>
<!-- http://w3id.org/oseg/ont/okhimg#slotModelFromLeft -->
<g id="node10" class="node">
<title>http://w3id.org/oseg/ont/okhimg#slotModelFromLeft</title>
<ellipse fill="none" stroke="#e377c2" cx="1333.03" cy="-1288.26" rx="116.85" ry="16.03"/>
<text text-anchor="middle" x="1333.03" y="-1284.56" font-family="Times,serif" font-size="14.00">okhimg:slotModelF...</text>
</g>
<!-- http://w3id.org/oseg/ont/okhimg#slotModelFromLeft&#45;&gt;http://schema.org/DefinedTerm -->
<g id="edge6" class="edge">
<title>http://w3id.org/oseg/ont/okhimg#slotModelFromLeft&#45;&gt;http://schema.org/DefinedTerm</title>
<path fill="none" stroke="black" d="M1427.64,-1278.64C1439.33,-1274.74 1450.57,-1269.43 1460.3,-1262.26 1480.32,-1247.51 1477.9,-1236.28 1487.3,-1213.26 1556.18,-1044.69 1602.55,-829.24 1617.32,-755.43"/>
<polygon fill="black" stroke="black" points="1620.76,-756.08 1619.27,-745.59 1613.89,-754.72 1620.76,-756.08"/>
<text text-anchor="middle" x="1482.8" y="-1242.06" font-family="Times,serif" font-size="14.00">a</text>
</g>
<!-- http://w3id.org/oseg/ont/0.1.0/okhimg -->
<g id="node11" class="node">
<title>http://w3id.org/oseg/ont/0.1.0/okhimg</title>
<ellipse fill="none" stroke="#e377c2" cx="441.85" cy="-644.26" rx="70.01" ry="16.03"/>
<text text-anchor="middle" x="441.85" y="-640.56" font-family="Times,serif" font-size="14.00">ns1:okhimg</text>
</g>
<!-- http://w3id.org/oseg/ont/okhimg#slotModelFromBack -->
<g id="node12" class="node">
<title>http://w3id.org/oseg/ont/okhimg#slotModelFromBack</title>
<ellipse fill="none" stroke="#e377c2" cx="1333.03" cy="-1237.26" rx="116.85" ry="16.03"/>
<text text-anchor="middle" x="1333.03" y="-1233.56" font-family="Times,serif" font-size="14.00">okhimg:slotModelF...</text>
</g>
<!-- http://w3id.org/oseg/ont/okhimg#slotModelFromBack&#45;&gt;http://schema.org/DefinedTerm -->
<g id="edge8" class="edge">
<title>http://w3id.org/oseg/ont/okhimg#slotModelFromBack&#45;&gt;http://schema.org/DefinedTerm</title>
<path fill="none" stroke="black" d="M1427.26,-1227.67C1439.07,-1223.77 1450.45,-1218.46 1460.3,-1211.26 1612.28,-1100.28 1623.55,-839.95 1623.06,-755.92"/>
<polygon fill="black" stroke="black" points="1626.56,-755.87 1622.94,-745.91 1619.56,-755.96 1626.56,-755.87"/>
<text text-anchor="middle" x="1482.8" y="-1198.06" font-family="Times,serif" font-size="14.00">a</text>
</g>
<!-- http://w3id.org/oseg/ont/okhimg -->
<g id="node13" class="node">
<title>http://w3id.org/oseg/ont/okhimg</title>
<ellipse fill="none" stroke="#e377c2" cx="70" cy="-663.26" rx="70.01" ry="16.03"/>
<text text-anchor="middle" x="70" y="-659.56" font-family="Times,serif" font-size="14.00">ns2:okhimg</text>
</g>
<!-- http://w3id.org/oseg/ont/okhimg&#45;&gt;http://spdx.org/rdf/terms#SpdxItem -->
<g id="edge9" class="edge">
<title>http://w3id.org/oseg/ont/okhimg&#45;&gt;http://spdx.org/rdf/terms#SpdxItem</title>
<path fill="none" stroke="black" d="M74.31,-679.74C82.11,-713.8 105.12,-791.68 158.01,-826.26 220.29,-866.99 307.58,-867.3 368.66,-860.73"/>
<polygon fill="black" stroke="black" points="369.08,-864.2 378.61,-859.57 368.27,-857.25 369.08,-864.2"/>
<text text-anchor="middle" x="234.01" y="-867.06" font-family="Times,serif" font-size="14.00">a</text>
</g>
<!-- http://w3id.org/oseg/ont/okhimg&#45;&gt;http://w3id.org/oseg/ont/ods#Dataset -->
<g id="edge34" class="edge">
<title>http://w3id.org/oseg/ont/okhimg&#45;&gt;http://w3id.org/oseg/ont/ods#Dataset</title>
<path fill="none" stroke="black" d="M78.31,-679.76C90.62,-705.32 118.12,-753.78 158.01,-775.26 223.9,-810.75 311.23,-811.86 371.32,-806.9"/>
<polygon fill="black" stroke="black" points="371.83,-810.37 381.47,-805.98 371.2,-803.4 371.83,-810.37"/>
<text text-anchor="middle" x="234.01" y="-812.06" font-family="Times,serif" font-size="14.00">a</text>
</g>
<!-- http://w3id.org/oseg/ont/okhimg&#45;&gt;http://w3id.org/oseg/ont/oseg&#45;profiles#robinVobruba -->
<g id="edge3" class="edge">
<title>http://w3id.org/oseg/ont/okhimg&#45;&gt;http://w3id.org/oseg/ont/oseg&#45;profiles#robinVobruba</title>
<path fill="none" stroke="black" d="M84.09,-679.32C99.61,-696.99 127.27,-724.46 158.01,-736.26 218.15,-759.37 290.89,-761.42 347.54,-757.94"/>
<polygon fill="black" stroke="black" points="347.83,-761.43 357.57,-757.25 347.35,-754.44 347.83,-761.43"/>
<text text-anchor="middle" x="234.01" y="-763.06" font-family="Times,serif" font-size="14.00">schema:creator</text>
</g>
<!-- http://w3id.org/oseg/ont/okhimg&#45;&gt;http://w3id.org/oseg/ont/oseg&#45;profiles#robinVobruba -->
<g id="edge28" class="edge">
<title>http://w3id.org/oseg/ont/okhimg&#45;&gt;http://w3id.org/oseg/ont/oseg&#45;profiles#robinVobruba</title>
<path fill="none" stroke="black" d="M101.76,-677.9C118.12,-685.1 138.78,-693.28 158.01,-698.26 223.91,-715.33 242.92,-705.66 310.01,-717.26 330.7,-720.84 353.06,-725.5 373.34,-730.03"/>
<polygon fill="black" stroke="black" points="372.59,-733.45 383.11,-732.24 374.13,-726.62 372.59,-733.45"/>
<text text-anchor="middle" x="234.01" y="-721.06" font-family="Times,serif" font-size="14.00">dcterms:creator</text>
</g>
<!-- http://w3id.org/oseg/ont/okhimg&#45;&gt;http://w3id.org/oseg/ont/okhimg#slots -->
<g id="edge4" class="edge">
<title>http://w3id.org/oseg/ont/okhimg&#45;&gt;http://w3id.org/oseg/ont/okhimg#slots</title>
<path fill="none" stroke="black" d="M136.19,-668.58C184.25,-672.53 251.21,-678.11 310.01,-683.26 326.91,-684.75 345.04,-686.38 362.26,-687.95"/>
<polygon fill="black" stroke="black" points="362,-691.44 372.27,-688.87 362.64,-684.47 362,-691.44"/>
<text text-anchor="middle" x="234.01" y="-687.06" font-family="Times,serif" font-size="14.00">void:rootResource</text>
</g>
<!-- http://w3id.org/oseg/ont/okhimg&#45;&gt;http://w3id.org/oseg/ont/0.1.0/okhimg -->
<g id="edge7" class="edge">
<title>http://w3id.org/oseg/ont/okhimg&#45;&gt;http://w3id.org/oseg/ont/0.1.0/okhimg</title>
<path fill="none" stroke="black" d="M119.06,-651.53C131.65,-648.95 145.27,-646.59 158.01,-645.26 227.23,-638.05 306.51,-638.52 363.48,-640.37"/>
<polygon fill="black" stroke="black" points="363.38,-643.87 373.5,-640.72 363.63,-636.88 363.38,-643.87"/>
<text text-anchor="middle" x="234.01" y="-649.06" font-family="Times,serif" font-size="14.00">owl:versionIRI</text>
</g>
<!-- http://w3id.org/oseg/ont/oseg&#45;profiles#Iopa -->
<g id="node26" class="node">
<title>http://w3id.org/oseg/ont/oseg&#45;profiles#Iopa</title>
<ellipse fill="none" stroke="#e377c2" cx="441.85" cy="-593.26" rx="80.72" ry="16.03"/>
<text text-anchor="middle" x="441.85" y="-589.56" font-family="Times,serif" font-size="14.00">osegprof:Iopa</text>
</g>
<!-- http://w3id.org/oseg/ont/okhimg&#45;&gt;http://w3id.org/oseg/ont/oseg&#45;profiles#Iopa -->
<g id="edge23" class="edge">
<title>http://w3id.org/oseg/ont/okhimg&#45;&gt;http://w3id.org/oseg/ont/oseg&#45;profiles#Iopa</title>
<path fill="none" stroke="black" d="M95.11,-647.95C112.03,-638 135.56,-625.72 158.01,-619.26 220.8,-601.21 294.37,-594.88 350.73,-592.97"/>
<polygon fill="black" stroke="black" points="351.16,-596.46 361.05,-592.67 350.95,-589.47 351.16,-596.46"/>
<text text-anchor="middle" x="234.01" y="-623.06" font-family="Times,serif" font-size="14.00">dcterms:publisher</text>
</g>
<!-- http://w3id.org/oseg/ont/okhimg#tags -->
<g id="node28" class="node">
<title>http://w3id.org/oseg/ont/okhimg#tags</title>
<ellipse fill="none" stroke="#e377c2" cx="441.85" cy="-542.26" rx="73.58" ry="16.03"/>
<text text-anchor="middle" x="441.85" y="-538.56" font-family="Times,serif" font-size="14.00">okhimg:tags</text>
</g>
<!-- http://w3id.org/oseg/ont/okhimg&#45;&gt;http://w3id.org/oseg/ont/okhimg#tags -->
<g id="edge36" class="edge">
<title>http://w3id.org/oseg/ont/okhimg&#45;&gt;http://w3id.org/oseg/ont/okhimg#tags</title>
<path fill="none" stroke="black" d="M81.72,-647C96.29,-626.41 124.41,-591.65 158.01,-575.26 221.44,-544.34 302.07,-537.64 361,-537.77"/>
<polygon fill="black" stroke="black" points="360.97,-541.27 371,-537.85 361.03,-534.27 360.97,-541.27"/>
<text text-anchor="middle" x="234.01" y="-579.06" font-family="Times,serif" font-size="14.00">void:rootResource</text>
</g>
<!-- http://id.loc.gov/vocabulary/iso639&#45;1/en -->
<g id="node39" class="node">
<title>http://id.loc.gov/vocabulary/iso639&#45;1/en</title>
<ellipse fill="none" stroke="#e377c2" cx="441.85" cy="-491.26" rx="45.01" ry="16.03"/>
<text text-anchor="middle" x="441.85" y="-487.56" font-family="Times,serif" font-size="14.00">ns3:en</text>
</g>
<!-- http://w3id.org/oseg/ont/okhimg&#45;&gt;http://id.loc.gov/vocabulary/iso639&#45;1/en -->
<g id="edge43" class="edge">
<title>http://w3id.org/oseg/ont/okhimg&#45;&gt;http://id.loc.gov/vocabulary/iso639&#45;1/en</title>
<path fill="none" stroke="black" d="M75.6,-646.99C85.21,-616.28 110.58,-550.21 158.01,-520.26 228.83,-475.55 330.03,-477.37 390.22,-483.68"/>
<polygon fill="black" stroke="black" points="389.92,-487.17 400.25,-484.81 390.7,-480.21 389.92,-487.17"/>
<text text-anchor="middle" x="234.01" y="-524.06" font-family="Times,serif" font-size="14.00">dcterms:language</text>
</g>
<!-- http://spdx.org/licenses/AGPL&#45;3.0&#45;or&#45;later -->
<g id="node41" class="node">
<title>http://spdx.org/licenses/AGPL&#45;3.0&#45;or&#45;later</title>
<ellipse fill="none" stroke="#e377c2" cx="441.85" cy="-440.26" rx="111.95" ry="16.03"/>
<text text-anchor="middle" x="441.85" y="-436.56" font-family="Times,serif" font-size="14.00">spdxl:AGPL&#45;3.0&#45;or...</text>
</g>
<!-- http://w3id.org/oseg/ont/okhimg&#45;&gt;http://spdx.org/licenses/AGPL&#45;3.0&#45;or&#45;later -->
<g id="edge47" class="edge">
<title>http://w3id.org/oseg/ont/okhimg&#45;&gt;http://spdx.org/licenses/AGPL&#45;3.0&#45;or&#45;later</title>
<path fill="none" stroke="black" d="M72.5,-646.95C77.07,-607.4 94.72,-506.36 158.01,-461.26 217.74,-418.7 303.72,-418.56 365.18,-425.88"/>
<polygon fill="black" stroke="black" points="364.85,-429.37 375.21,-427.17 365.74,-422.43 364.85,-429.37"/>
<text text-anchor="middle" x="234.01" y="-465.06" font-family="Times,serif" font-size="14.00">spdx:licenseDeclared</text>
</g>
<!-- http://w3id.org/oseg/ont/okhimg#slotModelFromBelow -->
<g id="node14" class="node">
<title>http://w3id.org/oseg/ont/okhimg#slotModelFromBelow</title>
<ellipse fill="none" stroke="#e377c2" cx="1333.03" cy="-1186.26" rx="116.85" ry="16.03"/>
<text text-anchor="middle" x="1333.03" y="-1182.56" font-family="Times,serif" font-size="14.00">okhimg:slotModelF...</text>
</g>
<!-- http://w3id.org/oseg/ont/okhimg#slotModelFromBelow&#45;&gt;http://schema.org/DefinedTerm -->
<g id="edge10" class="edge">
<title>http://w3id.org/oseg/ont/okhimg#slotModelFromBelow&#45;&gt;http://schema.org/DefinedTerm</title>
<path fill="none" stroke="black" d="M1428.56,-1176.78C1439.97,-1172.84 1450.9,-1167.49 1460.3,-1160.26 1593.54,-1057.9 1617.25,-833.13 1621.48,-755.92"/>
<polygon fill="black" stroke="black" points="1624.99,-755.79 1621.97,-745.63 1618,-755.45 1624.99,-755.79"/>
<text text-anchor="middle" x="1482.8" y="-1148.06" font-family="Times,serif" font-size="14.00">a</text>
</g>
<!-- http://w3id.org/oseg/ont/okhimg#slotIconMain&#45;&gt;http://schema.org/DefinedTerm -->
<g id="edge46" class="edge">
<title>http://w3id.org/oseg/ont/okhimg#slotIconMain&#45;&gt;http://schema.org/DefinedTerm</title>
<path fill="none" stroke="black" d="M935.7,-666.58C1037.11,-639.54 1271.62,-588.92 1460.3,-638.26 1511.1,-651.55 1562.8,-684.7 1593.74,-707.11"/>
<polygon fill="black" stroke="black" points="1591.77,-710 1601.9,-713.12 1595.92,-704.37 1591.77,-710"/>
<text text-anchor="middle" x="1333.03" y="-642.06" font-family="Times,serif" font-size="14.00">a</text>
</g>
<!-- http://w3id.org/oseg/ont/okhimg#slotIconMainBw -->
<g id="node23" class="node">
<title>http://w3id.org/oseg/ont/okhimg#slotIconMainBw</title>
<ellipse fill="none" stroke="#e377c2" cx="1333.03" cy="-678.26" rx="117.26" ry="16.03"/>
<text text-anchor="middle" x="1333.03" y="-674.56" font-family="Times,serif" font-size="14.00">okhimg:slotIconMa...</text>
</g>
<!-- http://w3id.org/oseg/ont/okhimg#slotIconMain&#45;&gt;http://w3id.org/oseg/ont/okhimg#slotIconMainBw -->
<g id="edge20" class="edge">
<title>http://w3id.org/oseg/ont/okhimg#slotIconMain&#45;&gt;http://w3id.org/oseg/ont/okhimg#slotIconMainBw</title>
<path fill="none" stroke="black" d="M985.19,-672.99C996.74,-672.28 1008.35,-671.68 1019.45,-671.26 1094.2,-668.49 1112.97,-669.45 1187.75,-671.26 1196.04,-671.46 1204.59,-671.73 1213.2,-672.04"/>
<polygon fill="black" stroke="black" points="1213.2,-675.54 1223.33,-672.42 1213.47,-668.55 1213.2,-675.54"/>
<text text-anchor="middle" x="1103.6" y="-675.06" font-family="Times,serif" font-size="14.00">seeAlso</text>
</g>
<!-- http://w3id.org/oseg/ont/okhimg#slotModelMain -->
<g id="node16" class="node">
<title>http://w3id.org/oseg/ont/okhimg#slotModelMain</title>
<ellipse fill="none" stroke="#e377c2" cx="1333.03" cy="-1135.26" rx="127.06" ry="16.03"/>
<text text-anchor="middle" x="1333.03" y="-1131.56" font-family="Times,serif" font-size="14.00">okhimg:slotModelMain</text>
</g>
<!-- http://w3id.org/oseg/ont/okhimg#slotModelMain&#45;&gt;http://schema.org/DefinedTerm -->
<g id="edge12" class="edge">
<title>http://w3id.org/oseg/ont/okhimg#slotModelMain&#45;&gt;http://schema.org/DefinedTerm</title>
<path fill="none" stroke="black" d="M1430.66,-1124.78C1441.28,-1120.96 1451.44,-1115.91 1460.3,-1109.26 1579.04,-1020.22 1611.73,-826.84 1619.9,-755.98"/>
<polygon fill="black" stroke="black" points="1623.41,-756.01 1621.01,-745.7 1616.45,-755.26 1623.41,-756.01"/>
<text text-anchor="middle" x="1482.8" y="-1091.06" font-family="Times,serif" font-size="14.00">a</text>
</g>
<!-- http://w3id.org/oseg/ont/okhimg#tagLogo -->
<g id="node17" class="node">
<title>http://w3id.org/oseg/ont/okhimg#tagLogo</title>
<ellipse fill="none" stroke="#e377c2" cx="1333.03" cy="-1084.26" rx="92.76" ry="16.03"/>
<text text-anchor="middle" x="1333.03" y="-1080.56" font-family="Times,serif" font-size="14.00">okhimg:tagLogo</text>
</g>
<!-- http://w3id.org/oseg/ont/okhimg#tagLogo&#45;&gt;http://schema.org/DefinedTerm -->
<g id="edge13" class="edge">
<title>http://w3id.org/oseg/ont/okhimg#tagLogo&#45;&gt;http://schema.org/DefinedTerm</title>
<path fill="none" stroke="black" d="M1417.76,-1077.49C1432.91,-1073.46 1447.83,-1067.37 1460.3,-1058.26 1564.82,-981.94 1605.55,-819.44 1617.89,-755.7"/>
<polygon fill="black" stroke="black" points="1621.37,-756.14 1619.76,-745.66 1614.49,-754.86 1621.37,-756.14"/>
<text text-anchor="middle" x="1482.8" y="-1043.06" font-family="Times,serif" font-size="14.00">a</text>
</g>
<!-- http://w3id.org/oseg/ont/okhimg#slotSymbol -->
<g id="node18" class="node">
<title>http://w3id.org/oseg/ont/okhimg#slotSymbol</title>
<ellipse fill="none" stroke="#e377c2" cx="1333.03" cy="-1033.26" rx="108.38" ry="16.03"/>
<text text-anchor="middle" x="1333.03" y="-1029.56" font-family="Times,serif" font-size="14.00">okhimg:slotSymbol</text>
</g>
<!-- http://w3id.org/oseg/ont/okhimg#slotSymbol&#45;&gt;http://schema.org/DefinedTerm -->
<g id="edge14" class="edge">
<title>http://w3id.org/oseg/ont/okhimg#slotSymbol&#45;&gt;http://schema.org/DefinedTerm</title>
<path fill="none" stroke="black" d="M1421.9,-1023.94C1435.43,-1020.08 1448.73,-1014.71 1460.3,-1007.26 1553.85,-947.07 1599.93,-812.34 1615.79,-755.43"/>
<polygon fill="black" stroke="black" points="1619.18,-756.31 1618.41,-745.75 1612.42,-754.49 1619.18,-756.31"/>
<text text-anchor="middle" x="1482.8" y="-995.06" font-family="Times,serif" font-size="14.00">a</text>
</g>
<!-- http://w3id.org/oseg/ont/okhimg#slotLogoBw -->
<g id="node19" class="node">
<title>http://w3id.org/oseg/ont/okhimg#slotLogoBw</title>
<ellipse fill="none" stroke="#e377c2" cx="884.08" cy="-966.26" rx="111.03" ry="16.03"/>
<text text-anchor="middle" x="884.08" y="-962.56" font-family="Times,serif" font-size="14.00">okhimg:slotLogoBw</text>
</g>
<!-- http://w3id.org/oseg/ont/okhimg#slotLogoBw&#45;&gt;http://schema.org/DefinedTerm -->
<g id="edge16" class="edge">
<title>http://w3id.org/oseg/ont/okhimg#slotLogoBw&#45;&gt;http://schema.org/DefinedTerm</title>
<path fill="none" stroke="black" d="M980.18,-958.11C1138.09,-944.33 1439.2,-916.89 1460.3,-906.26 1529.35,-871.48 1583.46,-794.14 1608.01,-754.2"/>
<polygon fill="black" stroke="black" points="1611.04,-755.96 1613.2,-745.59 1605.04,-752.34 1611.04,-755.96"/>
<text text-anchor="middle" x="1333.03" y="-940.06" font-family="Times,serif" font-size="14.00">a</text>
</g>
<!-- http://w3id.org/oseg/ont/okhimg#slotLogo -->
<g id="node27" class="node">
<title>http://w3id.org/oseg/ont/okhimg#slotLogo</title>
<ellipse fill="none" stroke="#e377c2" cx="1333.03" cy="-982.26" rx="94.51" ry="16.03"/>
<text text-anchor="middle" x="1333.03" y="-978.56" font-family="Times,serif" font-size="14.00">okhimg:slotLogo</text>
</g>
<!-- http://w3id.org/oseg/ont/okhimg#slotLogoBw&#45;&gt;http://w3id.org/oseg/ont/okhimg#slotLogo -->
<g id="edge24" class="edge">
<title>http://w3id.org/oseg/ont/okhimg#slotLogoBw&#45;&gt;http://w3id.org/oseg/ont/okhimg#slotLogo</title>
<path fill="none" stroke="black" d="M994.07,-963.99C1051.7,-963.45 1123.6,-963.83 1187.75,-967.26 1206.4,-968.26 1226.35,-969.94 1245.29,-971.82"/>
<polygon fill="black" stroke="black" points="1245.09,-975.32 1255.39,-972.85 1245.8,-968.35 1245.09,-975.32"/>
<text text-anchor="middle" x="1103.6" y="-971.06" font-family="Times,serif" font-size="14.00">seeAlso</text>
</g>
<!-- http://w3id.org/oseg/ont/okhimg#slotSocial -->
<g id="node20" class="node">
<title>http://w3id.org/oseg/ont/okhimg#slotSocial</title>
<ellipse fill="none" stroke="#e377c2" cx="1333.03" cy="-881.26" rx="101.23" ry="16.03"/>
<text text-anchor="middle" x="1333.03" y="-877.56" font-family="Times,serif" font-size="14.00">okhimg:slotSocial</text>
</g>
<!-- http://w3id.org/oseg/ont/okhimg#slotSocial&#45;&gt;http://schema.org/DefinedTerm -->
<g id="edge17" class="edge">
<title>http://w3id.org/oseg/ont/okhimg#slotSocial&#45;&gt;http://schema.org/DefinedTerm</title>
<path fill="none" stroke="black" d="M1411.94,-871.04C1428.36,-867.29 1445.26,-862.2 1460.3,-855.26 1515.87,-829.65 1569.8,-781.73 1599.3,-752.94"/>
<polygon fill="black" stroke="black" points="1601.96,-755.23 1606.61,-745.71 1597.04,-750.25 1601.96,-755.23"/>
<text text-anchor="middle" x="1482.8" y="-848.06" font-family="Times,serif" font-size="14.00">a</text>
</g>
<!-- http://w3id.org/oseg/ont/okhimg#slotOrganizationLogoBw -->
<g id="node21" class="node">
<title>http://w3id.org/oseg/ont/okhimg#slotOrganizationLogoBw</title>
<ellipse fill="none" stroke="#e377c2" cx="884.08" cy="-814.26" rx="114.6" ry="16.03"/>
<text text-anchor="middle" x="884.08" y="-810.56" font-family="Times,serif" font-size="14.00">okhimg:slotOrgani...</text>
</g>
<!-- http://w3id.org/oseg/ont/okhimg#slotOrganizationLogoBw&#45;&gt;http://schema.org/DefinedTerm -->
<g id="edge44" class="edge">
<title>http://w3id.org/oseg/ont/okhimg#slotOrganizationLogoBw&#45;&gt;http://schema.org/DefinedTerm</title>
<path fill="none" stroke="black" d="M981.42,-805.67C1095.81,-795.13 1292.26,-775.97 1460.3,-754.26 1485.25,-751.04 1512.27,-747.07 1536.98,-743.24"/>
<polygon fill="black" stroke="black" points="1537.7,-746.67 1547.05,-741.67 1536.63,-739.75 1537.7,-746.67"/>
<text text-anchor="middle" x="1333.03" y="-787.06" font-family="Times,serif" font-size="14.00">a</text>
</g>
<!-- http://w3id.org/oseg/ont/okhimg#slotOrganizationLogo -->
<g id="node24" class="node">
<title>http://w3id.org/oseg/ont/okhimg#slotOrganizationLogo</title>
<ellipse fill="none" stroke="#e377c2" cx="1333.03" cy="-830.26" rx="114.6" ry="16.03"/>
<text text-anchor="middle" x="1333.03" y="-826.56" font-family="Times,serif" font-size="14.00">okhimg:slotOrgani...</text>
</g>
<!-- http://w3id.org/oseg/ont/okhimg#slotOrganizationLogoBw&#45;&gt;http://w3id.org/oseg/ont/okhimg#slotOrganizationLogo -->
<g id="edge21" class="edge">
<title>http://w3id.org/oseg/ont/okhimg#slotOrganizationLogoBw&#45;&gt;http://w3id.org/oseg/ont/okhimg#slotOrganizationLogo</title>
<path fill="none" stroke="black" d="M997.26,-811.57C1004.77,-811.45 1012.22,-811.34 1019.45,-811.26 1094.25,-810.43 1113.11,-806.37 1187.75,-811.26 1206.45,-812.49 1226.42,-814.6 1245.36,-816.98"/>
<polygon fill="black" stroke="black" points="1245.09,-820.47 1255.46,-818.28 1245.99,-813.53 1245.09,-820.47"/>
<text text-anchor="middle" x="1103.6" y="-815.06" font-family="Times,serif" font-size="14.00">seeAlso</text>
</g>
<!-- http://w3id.org/oseg/ont/okhimg#tagColor -->
<g id="node22" class="node">
<title>http://w3id.org/oseg/ont/okhimg#tagColor</title>
<ellipse fill="none" stroke="#e377c2" cx="1333.03" cy="-729.26" rx="95.42" ry="16.03"/>
<text text-anchor="middle" x="1333.03" y="-725.56" font-family="Times,serif" font-size="14.00">okhimg:tagColor</text>
</g>
<!-- http://w3id.org/oseg/ont/okhimg#tagColor&#45;&gt;http://schema.org/DefinedTerm -->
<g id="edge19" class="edge">
<title>http://w3id.org/oseg/ont/okhimg#tagColor&#45;&gt;http://schema.org/DefinedTerm</title>
<path fill="none" stroke="black" d="M1428.85,-729.26C1449.99,-729.26 1472.74,-729.26 1494.95,-729.26"/>
<polygon fill="black" stroke="black" points="1495.11,-732.76 1505.11,-729.26 1495.11,-725.76 1495.11,-732.76"/>
<text text-anchor="middle" x="1482.8" y="-733.06" font-family="Times,serif" font-size="14.00">a</text>
</g>
<!-- http://w3id.org/oseg/ont/okhimg#slotIconMainBw&#45;&gt;http://schema.org/DefinedTerm -->
<g id="edge41" class="edge">
<title>http://w3id.org/oseg/ont/okhimg#slotIconMainBw&#45;&gt;http://schema.org/DefinedTerm</title>
<path fill="none" stroke="black" d="M1406.05,-691C1446.74,-698.2 1497.77,-707.22 1540.05,-714.7"/>
<polygon fill="black" stroke="black" points="1539.58,-718.17 1550.04,-716.47 1540.8,-711.28 1539.58,-718.17"/>
<text text-anchor="middle" x="1482.8" y="-709.06" font-family="Times,serif" font-size="14.00">a</text>
</g>
<!-- http://w3id.org/oseg/ont/okhimg#slotIconMainBw&#45;&gt;http://w3id.org/oseg/ont/okhimg#slotIconMain -->
<g id="edge29" class="edge">
<title>http://w3id.org/oseg/ont/okhimg#slotIconMainBw&#45;&gt;http://w3id.org/oseg/ont/okhimg#slotIconMain</title>
<path fill="none" stroke="black" d="M1225.29,-684.85C1212.64,-685.43 1199.91,-685.93 1187.75,-686.26 1112.98,-688.33 1094.24,-687.65 1019.45,-686.26 1015.5,-686.19 1011.48,-686.1 1007.41,-686.01"/>
<polygon fill="black" stroke="black" points="1007.34,-682.51 997.25,-685.75 1007.16,-689.5 1007.34,-682.51"/>
<text text-anchor="middle" x="1103.6" y="-691.06" font-family="Times,serif" font-size="14.00">seeAlso</text>
</g>
<!-- http://w3id.org/oseg/ont/okhimg#slotOrganizationLogo&#45;&gt;http://schema.org/DefinedTerm -->
<g id="edge48" class="edge">
<title>http://w3id.org/oseg/ont/okhimg#slotOrganizationLogo&#45;&gt;http://schema.org/DefinedTerm</title>
<path fill="none" stroke="black" d="M1405.19,-817.57C1431.39,-811.97 1461.05,-804.53 1487.3,-795.26 1521.87,-783.06 1559.17,-764.38 1585.79,-750.01"/>
<polygon fill="black" stroke="black" points="1587.65,-752.98 1594.75,-745.12 1584.29,-746.84 1587.65,-752.98"/>
<text text-anchor="middle" x="1482.8" y="-801.06" font-family="Times,serif" font-size="14.00">a</text>
</g>
<!-- http://w3id.org/oseg/ont/okhimg#slotOrganizationLogo&#45;&gt;http://w3id.org/oseg/ont/okhimg#slotOrganizationLogoBw -->
<g id="edge18" class="edge">
<title>http://w3id.org/oseg/ont/okhimg#slotOrganizationLogo&#45;&gt;http://w3id.org/oseg/ont/okhimg#slotOrganizationLogoBw</title>
<path fill="none" stroke="black" d="M1220.54,-833.46C1160.84,-834.37 1086.08,-834.22 1019.45,-830.26 1005.68,-829.45 991.15,-828.16 976.94,-826.67"/>
<polygon fill="black" stroke="black" points="976.98,-823.15 966.66,-825.55 976.22,-830.11 976.98,-823.15"/>
<text text-anchor="middle" x="1103.6" y="-837.06" font-family="Times,serif" font-size="14.00">seeAlso</text>
</g>
<!-- http://w3id.org/oseg/ont/okhimg#tagArt -->
<g id="node25" class="node">
<title>http://w3id.org/oseg/ont/okhimg#tagArt</title>
<ellipse fill="none" stroke="#e377c2" cx="1103.6" cy="-568.26" rx="84.29" ry="16.03"/>
<text text-anchor="middle" x="1103.6" y="-564.56" font-family="Times,serif" font-size="14.00">okhimg:tagArt</text>
</g>
<!-- http://w3id.org/oseg/ont/okhimg#tagArt&#45;&gt;http://schema.org/DefinedTerm -->
<g id="edge22" class="edge">
<title>http://w3id.org/oseg/ont/okhimg#tagArt&#45;&gt;http://schema.org/DefinedTerm</title>
<path fill="none" stroke="black" d="M1177.04,-560.28C1251.06,-555.03 1367.93,-554.88 1460.3,-592.26 1520.76,-616.73 1575.1,-672.85 1602.88,-705.17"/>
<polygon fill="black" stroke="black" points="1600.23,-707.45 1609.36,-712.83 1605.58,-702.94 1600.23,-707.45"/>
<text text-anchor="middle" x="1333.03" y="-596.06" font-family="Times,serif" font-size="14.00">a</text>
</g>
<!-- http://w3id.org/oseg/ont/okhimg#slotLogo&#45;&gt;http://schema.org/DefinedTerm -->
<g id="edge27" class="edge">
<title>http://w3id.org/oseg/ont/okhimg#slotLogo&#45;&gt;http://schema.org/DefinedTerm</title>
<path fill="none" stroke="black" d="M1418.58,-975.21C1442.44,-970.11 1467.31,-961.54 1487.3,-947.26 1556.19,-898.06 1597.26,-801.7 1613.84,-755.37"/>
<polygon fill="black" stroke="black" points="1617.21,-756.35 1617.19,-745.76 1610.6,-754.05 1617.21,-756.35"/>
<text text-anchor="middle" x="1482.8" y="-955.06" font-family="Times,serif" font-size="14.00">a</text>
</g>
<!-- http://w3id.org/oseg/ont/okhimg#slotLogo&#45;&gt;http://w3id.org/oseg/ont/okhimg#slotLogoBw -->
<g id="edge49" class="edge">
<title>http://w3id.org/oseg/ont/okhimg#slotLogo&#45;&gt;http://w3id.org/oseg/ont/okhimg#slotLogoBw</title>
<path fill="none" stroke="black" d="M1239.62,-985.13C1177.35,-986.36 1093.4,-986.65 1019.45,-982.26 1005.16,-981.42 990.06,-980.06 975.34,-978.5"/>
<polygon fill="black" stroke="black" points="975.56,-975 965.23,-977.38 974.79,-981.96 975.56,-975"/>
<text text-anchor="middle" x="1103.6" y="-989.06" font-family="Times,serif" font-size="14.00">seeAlso</text>
</g>
<!-- http://w3id.org/oseg/ont/okhimg#tags&#45;&gt;http://schema.org/DefinedTermSet -->
<g id="edge25" class="edge">
<title>http://w3id.org/oseg/ont/okhimg#tags&#45;&gt;http://schema.org/DefinedTermSet</title>
<path fill="none" stroke="black" d="M502.12,-551.71C519.78,-555.64 538.9,-561.02 555.7,-568.26 564.52,-572.07 564.7,-576.88 573.7,-580.26 632.18,-602.27 700.75,-612.77 758.46,-617.66"/>
<polygon fill="black" stroke="black" points="758.49,-621.18 768.74,-618.48 759.05,-614.2 758.49,-621.18"/>
<text text-anchor="middle" x="661.2" y="-620.06" font-family="Times,serif" font-size="14.00">a</text>
</g>
<!-- http://w3id.org/oseg/ont/okhimg#tags&#45;&gt;http://w3id.org/oseg/ont/okhimg#tagArt -->
<g id="edge42" class="edge">
<title>http://w3id.org/oseg/ont/okhimg#tags&#45;&gt;http://w3id.org/oseg/ont/okhimg#tagArt</title>
<path fill="none" stroke="black" d="M514.4,-545.08C634.85,-549.83 877.97,-559.41 1010.82,-564.65"/>
<polygon fill="black" stroke="black" points="1010.84,-568.15 1020.97,-565.05 1011.12,-561.16 1010.84,-568.15"/>
<text text-anchor="middle" x="661.2" y="-557.06" font-family="Times,serif" font-size="14.00">schema:hasDefinedTerm</text>
</g>
<!-- http://w3id.org/oseg/ont/okhimg#slotPhotoPackaging -->
<g id="node29" class="node">
<title>http://w3id.org/oseg/ont/okhimg#slotPhotoPackaging</title>
<ellipse fill="none" stroke="#e377c2" cx="1333.03" cy="-526.26" rx="113.69" ry="16.03"/>
<text text-anchor="middle" x="1333.03" y="-522.56" font-family="Times,serif" font-size="14.00">okhimg:slotPhotoP...</text>
</g>
<!-- http://w3id.org/oseg/ont/okhimg#slotPhotoPackaging&#45;&gt;http://schema.org/DefinedTerm -->
<g id="edge26" class="edge">
<title>http://w3id.org/oseg/ont/okhimg#slotPhotoPackaging&#45;&gt;http://schema.org/DefinedTerm</title>
<path fill="none" stroke="black" d="M1441.21,-531.42C1457.39,-535.24 1473.32,-540.92 1487.3,-549.26 1549.3,-586.25 1592.17,-663.61 1611.23,-703.8"/>
<polygon fill="black" stroke="black" points="1608.09,-705.33 1615.46,-712.94 1614.44,-702.39 1608.09,-705.33"/>
<text text-anchor="middle" x="1482.8" y="-553.06" font-family="Times,serif" font-size="14.00">a</text>
</g>
<!-- http://w3id.org/oseg/ont/okhimg#tagGray -->
<g id="node30" class="node">
<title>http://w3id.org/oseg/ont/okhimg#tagGray</title>
<ellipse fill="none" stroke="#e377c2" cx="1333.03" cy="-475.26" rx="92.76" ry="16.03"/>
<text text-anchor="middle" x="1333.03" y="-471.56" font-family="Times,serif" font-size="14.00">okhimg:tagGray</text>
</g>
<!-- http://w3id.org/oseg/ont/okhimg#tagGray&#45;&gt;http://schema.org/DefinedTerm -->
<g id="edge30" class="edge">
<title>http://w3id.org/oseg/ont/okhimg#tagGray&#45;&gt;http://schema.org/DefinedTerm</title>
<path fill="none" stroke="black" d="M1410.31,-484.29C1427.34,-488.11 1444.9,-493.54 1460.3,-501.26 1544.78,-543.63 1594.49,-653.33 1613.47,-703.51"/>
<polygon fill="black" stroke="black" points="1610.22,-704.82 1616.96,-713 1616.79,-702.41 1610.22,-704.82"/>
<text text-anchor="middle" x="1482.8" y="-520.06" font-family="Times,serif" font-size="14.00">a</text>
</g>
<!-- http://w3id.org/oseg/ont/okhimg#tagPhoto -->
<g id="node31" class="node">
<title>http://w3id.org/oseg/ont/okhimg#tagPhoto</title>
<ellipse fill="none" stroke="#e377c2" cx="1333.03" cy="-424.26" rx="97.66" ry="16.03"/>
<text text-anchor="middle" x="1333.03" y="-420.56" font-family="Times,serif" font-size="14.00">okhimg:tagPhoto</text>
</g>
<!-- http://w3id.org/oseg/ont/okhimg#tagPhoto&#45;&gt;http://schema.org/DefinedTerm -->
<g id="edge31" class="edge">
<title>http://w3id.org/oseg/ont/okhimg#tagPhoto&#45;&gt;http://schema.org/DefinedTerm</title>
<path fill="none" stroke="black" d="M1419.07,-431.96C1433.68,-435.95 1448.08,-441.78 1460.3,-450.26 1551.54,-513.56 1598.67,-646.11 1615.29,-702.72"/>
<polygon fill="black" stroke="black" points="1612.02,-704.02 1618.13,-712.68 1618.75,-702.1 1612.02,-704.02"/>
<text text-anchor="middle" x="1482.8" y="-475.06" font-family="Times,serif" font-size="14.00">a</text>
</g>
<!-- http://w3id.org/oseg/ont/okhimg#tagIcon -->
<g id="node32" class="node">
<title>http://w3id.org/oseg/ont/okhimg#tagIcon</title>
<ellipse fill="none" stroke="#e377c2" cx="1333.03" cy="-373.26" rx="89.61" ry="16.03"/>
<text text-anchor="middle" x="1333.03" y="-369.56" font-family="Times,serif" font-size="14.00">okhimg:tagIcon</text>
</g>
<!-- http://w3id.org/oseg/ont/okhimg#tagIcon&#45;&gt;http://schema.org/DefinedTerm -->
<g id="edge32" class="edge">
<title>http://w3id.org/oseg/ont/okhimg#tagIcon&#45;&gt;http://schema.org/DefinedTerm</title>
<path fill="none" stroke="black" d="M1415.72,-379.61C1431.54,-383.63 1447.25,-389.82 1460.3,-399.26 1565.42,-475.29 1605.79,-638.6 1617.97,-702.68"/>
<polygon fill="black" stroke="black" points="1614.57,-703.56 1619.81,-712.77 1621.46,-702.3 1614.57,-703.56"/>
<text text-anchor="middle" x="1482.8" y="-421.06" font-family="Times,serif" font-size="14.00">a</text>
</g>
<!-- http://w3id.org/oseg/ont/okhimg#tagDiagram -->
<g id="node33" class="node">
<title>http://w3id.org/oseg/ont/okhimg#tagDiagram</title>
<ellipse fill="none" stroke="#e377c2" cx="1333.03" cy="-322.26" rx="111.95" ry="16.03"/>
<text text-anchor="middle" x="1333.03" y="-318.56" font-family="Times,serif" font-size="14.00">okhimg:tagDiagram</text>
</g>
<!-- http://w3id.org/oseg/ont/okhimg#tagDiagram&#45;&gt;http://schema.org/DefinedTerm -->
<g id="edge33" class="edge">
<title>http://w3id.org/oseg/ont/okhimg#tagDiagram&#45;&gt;http://schema.org/DefinedTerm</title>
<path fill="none" stroke="black" d="M1426.08,-331.27C1438.34,-335.24 1450.16,-340.72 1460.3,-348.26 1579.67,-437.02 1611.97,-631.23 1619.97,-702.42"/>
<polygon fill="black" stroke="black" points="1616.53,-703.17 1621.05,-712.75 1623.49,-702.44 1616.53,-703.17"/>
<text text-anchor="middle" x="1482.8" y="-373.06" font-family="Times,serif" font-size="14.00">a</text>
</g>
<!-- http://w3id.org/oseg/ont/okhimg#slotModel3D -->
<g id="node34" class="node">
<title>http://w3id.org/oseg/ont/okhimg#slotModel3D</title>
<ellipse fill="none" stroke="#e377c2" cx="1333.03" cy="-271.26" rx="115.93" ry="16.03"/>
<text text-anchor="middle" x="1333.03" y="-267.56" font-family="Times,serif" font-size="14.00">okhimg:slotModel3D</text>
</g>
<!-- http://w3id.org/oseg/ont/okhimg#slotModel3D&#45;&gt;http://schema.org/DefinedTerm -->
<g id="edge35" class="edge">
<title>http://w3id.org/oseg/ont/okhimg#slotModel3D&#45;&gt;http://schema.org/DefinedTerm</title>
<path fill="none" stroke="black" d="M1428.19,-280.7C1439.72,-284.64 1450.78,-290 1460.3,-297.26 1594.19,-399.33 1617.49,-624.96 1621.54,-702.49"/>
<polygon fill="black" stroke="black" points="1618.06,-702.99 1622.01,-712.82 1625.05,-702.67 1618.06,-702.99"/>
<text text-anchor="middle" x="1482.8" y="-316.06" font-family="Times,serif" font-size="14.00">a</text>
</g>
<!-- http://w3id.org/oseg/ont/okhimg#tagBw -->
<g id="node35" class="node">
<title>http://w3id.org/oseg/ont/okhimg#tagBw</title>
<ellipse fill="none" stroke="#e377c2" cx="1333.03" cy="-220.26" rx="84.29" ry="16.03"/>
<text text-anchor="middle" x="1333.03" y="-216.56" font-family="Times,serif" font-size="14.00">okhimg:tagBw</text>
</g>
<!-- http://w3id.org/oseg/ont/okhimg#tagBw&#45;&gt;http://schema.org/DefinedTerm -->
<g id="edge37" class="edge">
<title>http://w3id.org/oseg/ont/okhimg#tagBw&#45;&gt;http://schema.org/DefinedTerm</title>
<path fill="none" stroke="black" d="M1412.42,-225.81C1429.35,-229.79 1446.34,-236.16 1460.3,-246.26 1479.82,-260.38 1477.68,-271.18 1487.3,-293.26 1552.51,-442.9 1600.24,-634 1616.4,-702.97"/>
<polygon fill="black" stroke="black" points="1613.05,-704.02 1618.72,-712.97 1619.87,-702.43 1613.05,-704.02"/>
<text text-anchor="middle" x="1482.8" y="-297.06" font-family="Times,serif" font-size="14.00">a</text>
</g>
<!-- http://w3id.org/oseg/ont/okhimg#slotModelFromRight -->
<g id="node36" class="node">
<title>http://w3id.org/oseg/ont/okhimg#slotModelFromRight</title>
<ellipse fill="none" stroke="#e377c2" cx="1333.03" cy="-169.26" rx="116.85" ry="16.03"/>
<text text-anchor="middle" x="1333.03" y="-165.56" font-family="Times,serif" font-size="14.00">okhimg:slotModelF...</text>
</g>
<!-- http://w3id.org/oseg/ont/okhimg#slotModelFromRight&#45;&gt;http://schema.org/DefinedTerm -->
<g id="edge38" class="edge">
<title>http://w3id.org/oseg/ont/okhimg#slotModelFromRight&#45;&gt;http://schema.org/DefinedTerm</title>
<path fill="none" stroke="black" d="M1428.61,-178.68C1440.01,-182.63 1450.92,-188 1460.3,-195.26 1544.12,-260.14 1603.07,-604.19 1618.43,-702.82"/>
<polygon fill="black" stroke="black" points="1614.99,-703.5 1619.97,-712.85 1621.91,-702.43 1614.99,-703.5"/>
<text text-anchor="middle" x="1482.8" y="-224.06" font-family="Times,serif" font-size="14.00">a</text>
</g>
<!-- http://w3id.org/oseg/ont/okhimg#tagDrawing -->
<g id="node37" class="node">
<title>http://w3id.org/oseg/ont/okhimg#tagDrawing</title>
<ellipse fill="none" stroke="#e377c2" cx="1333.03" cy="-118.26" rx="111.95" ry="16.03"/>
<text text-anchor="middle" x="1333.03" y="-114.56" font-family="Times,serif" font-size="14.00">okhimg:tagDrawing</text>
</g>
<!-- http://w3id.org/oseg/ont/okhimg#tagDrawing&#45;&gt;http://schema.org/DefinedTerm -->
<g id="edge39" class="edge">
<title>http://w3id.org/oseg/ont/okhimg#tagDrawing&#45;&gt;http://schema.org/DefinedTerm</title>
<path fill="none" stroke="black" d="M1427.42,-127.12C1439.27,-131.12 1450.62,-136.66 1460.3,-144.26 1482.35,-161.58 1477.79,-174.9 1487.3,-201.26 1554.96,-388.69 1602.72,-625.06 1617.54,-703.01"/>
<polygon fill="black" stroke="black" points="1614.11,-703.76 1619.41,-712.94 1620.99,-702.47 1614.11,-703.76"/>
<text text-anchor="middle" x="1482.8" y="-205.06" font-family="Times,serif" font-size="14.00">a</text>
</g>
<!-- http://w3id.org/oseg/ont/okhimg#slotModelFromFront -->
<g id="node38" class="node">
<title>http://w3id.org/oseg/ont/okhimg#slotModelFromFront</title>
<ellipse fill="none" stroke="#e377c2" cx="1333.03" cy="-67.26" rx="116.85" ry="16.03"/>
<text text-anchor="middle" x="1333.03" y="-63.56" font-family="Times,serif" font-size="14.00">okhimg:slotModelF...</text>
</g>
<!-- http://w3id.org/oseg/ont/okhimg#slotModelFromFront&#45;&gt;http://schema.org/DefinedTerm -->
<g id="edge40" class="edge">
<title>http://w3id.org/oseg/ont/okhimg#slotModelFromFront&#45;&gt;http://schema.org/DefinedTerm</title>
<path fill="none" stroke="black" d="M1429.03,-76.67C1440.3,-80.63 1451.06,-86.01 1460.3,-93.26 1482.35,-110.58 1478.07,-123.8 1487.3,-150.26 1559.57,-357.32 1604.93,-619.49 1618.27,-702.68"/>
<polygon fill="black" stroke="black" points="1614.85,-703.46 1619.87,-712.79 1621.76,-702.36 1614.85,-703.46"/>
<text text-anchor="middle" x="1482.8" y="-154.06" font-family="Times,serif" font-size="14.00">a</text>
</g>
<!-- http://w3id.org/oseg/ont/okhimg#slotPhotoThingMain -->
<g id="node40" class="node">
<title>http://w3id.org/oseg/ont/okhimg#slotPhotoThingMain</title>
<ellipse fill="none" stroke="#e377c2" cx="1333.03" cy="-16.26" rx="114.6" ry="16.03"/>
<text text-anchor="middle" x="1333.03" y="-12.56" font-family="Times,serif" font-size="14.00">okhimg:slotPhotoT...</text>
</g>
<!-- http://w3id.org/oseg/ont/okhimg#slotPhotoThingMain&#45;&gt;http://schema.org/DefinedTerm -->
<g id="edge45" class="edge">
<title>http://w3id.org/oseg/ont/okhimg#slotPhotoThingMain&#45;&gt;http://schema.org/DefinedTerm</title>
<path fill="none" stroke="black" d="M1428.39,-25.45C1439.89,-29.43 1450.89,-34.87 1460.3,-42.26 1482.35,-59.58 1478.31,-72.72 1487.3,-99.26 1564.27,-326.33 1607.05,-614.79 1618.94,-702.67"/>
<polygon fill="black" stroke="black" points="1615.5,-703.38 1620.29,-712.83 1622.44,-702.45 1615.5,-703.38"/>
<text text-anchor="middle" x="1482.8" y="-103.06" font-family="Times,serif" font-size="14.00">a</text>
</g>
</g>
</svg>
