<?xml version="1.0" encoding="UTF-8" standalone="no"?>
<!DOCTYPE svg PUBLIC "-//W3C//DTD SVG 1.1//EN"
 "http://www.w3.org/Graphics/SVG/1.1/DTD/svg11.dtd">
<!-- Generated by graphviz version 2.43.0 (0)
 -->
<!-- Title: G Pages: 1 -->
<svg width="1239pt" height="1728pt"
 viewBox="0.00 0.00 1239.10 1727.97" xmlns="http://www.w3.org/2000/svg" xmlns:xlink="http://www.w3.org/1999/xlink">
<g id="graph0" class="graph" transform="scale(1 1) rotate(0) translate(4 1723.97)">
<title>G</title>
<polygon fill="white" stroke="transparent" points="-4,4 -4,-1723.97 1235.1,-1723.97 1235.1,4 -4,4"/>
<!-- http://www.w3.org/2002/07/owl#ObjectProperty -->
<g id="node1" class="node">
<title>http://www.w3.org/2002/07/owl#ObjectProperty</title>
<ellipse fill="none" stroke="#1f77b4" cx="554.16" cy="-1346.7" rx="109.7" ry="16.03"/>
<text text-anchor="middle" x="554.16" y="-1343" font-family="Times,serif" font-size="14.00">owl:ObjectProperty</text>
</g>
<!-- http://w3id.org/oseg/ont/okhmeta#Tag -->
<g id="node2" class="node">
<title>http://w3id.org/oseg/ont/okhmeta#Tag</title>
<ellipse fill="none" stroke="#e377c2" cx="934.37" cy="-681.7" rx="76.24" ry="16.03"/>
<text text-anchor="middle" x="934.37" y="-678" font-family="Times,serif" font-size="14.00">okhmeta:Tag</text>
</g>
<!-- http://www.w3.org/2004/02/skos/core#Collection -->
<g id="node3" class="node">
<title>http://www.w3.org/2004/02/skos/core#Collection</title>
<ellipse fill="none" stroke="#e377c2" cx="1143.42" cy="-681.7" rx="87.86" ry="16.03"/>
<text text-anchor="middle" x="1143.42" y="-678" font-family="Times,serif" font-size="14.00">skos:Collection</text>
</g>
<!-- http://w3id.org/oseg/ont/okhmeta#Tag&#45;&gt;http://www.w3.org/2004/02/skos/core#Collection -->
<g id="edge17" class="edge">
<title>http://w3id.org/oseg/ont/okhmeta#Tag&#45;&gt;http://www.w3.org/2004/02/skos/core#Collection</title>
<path fill="none" stroke="black" d="M1011,-681.7C1022.17,-681.7 1033.8,-681.7 1045.33,-681.7"/>
<polygon fill="black" stroke="black" points="1045.42,-685.2 1055.42,-681.7 1045.42,-678.2 1045.42,-685.2"/>
</g>
<!-- http://www.w3.org/2004/02/skos/core#Concept -->
<g id="node4" class="node">
<title>http://www.w3.org/2004/02/skos/core#Concept</title>
<ellipse fill="none" stroke="#1f77b4" cx="1143.42" cy="-1012.7" rx="78.48" ry="16.03"/>
<text text-anchor="middle" x="1143.42" y="-1009" font-family="Times,serif" font-size="14.00">skos:Concept</text>
</g>
<!-- http://w3id.org/oseg/ont/okhmeta#Tag&#45;&gt;http://www.w3.org/2004/02/skos/core#Concept -->
<g id="edge41" class="edge">
<title>http://w3id.org/oseg/ont/okhmeta#Tag&#45;&gt;http://www.w3.org/2004/02/skos/core#Concept</title>
<path fill="none" stroke="black" d="M945.64,-698.12C979.32,-751.95 1086.56,-923.4 1126.89,-987.87"/>
<polygon fill="black" stroke="black" points="1124.06,-989.96 1132.34,-996.58 1130,-986.25 1124.06,-989.96"/>
<text text-anchor="middle" x="1033.24" y="-841.5" font-family="Times,serif" font-size="14.00">a</text>
</g>
<!-- http://w3id.org/oseg/ont/okhmeta#MetaTag -->
<g id="node7" class="node">
<title>http://w3id.org/oseg/ont/okhmeta#MetaTag</title>
<ellipse fill="none" stroke="#e377c2" cx="554.16" cy="-681.7" rx="102.56" ry="16.03"/>
<text text-anchor="middle" x="554.16" y="-678" font-family="Times,serif" font-size="14.00">okhmeta:MetaTag</text>
</g>
<!-- http://w3id.org/oseg/ont/okhmeta#Tag&#45;&gt;http://w3id.org/oseg/ont/okhmeta#MetaTag -->
<g id="edge19" class="edge">
<title>http://w3id.org/oseg/ont/okhmeta#Tag&#45;&gt;http://w3id.org/oseg/ont/okhmeta#MetaTag</title>
<path fill="none" stroke="black" d="M883.26,-669.58C869.34,-666.74 854.16,-664.13 840,-662.7 771.9,-655.84 754.27,-657.77 686,-662.7 669.16,-663.92 651.2,-666.01 634.14,-668.36"/>
<polygon fill="black" stroke="black" points="633.63,-664.9 624.22,-669.78 634.61,-671.83 633.63,-664.9"/>
<text text-anchor="middle" x="763" y="-666.5" font-family="Times,serif" font-size="14.00">okhmeta:hasMetaTag</text>
</g>
<!-- http://www.w3.org/2002/07/owl#Ontology -->
<g id="node5" class="node">
<title>http://www.w3.org/2002/07/owl#Ontology</title>
<ellipse fill="none" stroke="#1f77b4" cx="554.16" cy="-1703.7" rx="77.56" ry="16.03"/>
<text text-anchor="middle" x="554.16" y="-1700" font-family="Times,serif" font-size="14.00">owl:Ontology</text>
</g>
<!-- http://spdx.org/rdf/terms#SpdxItem -->
<g id="node6" class="node">
<title>http://spdx.org/rdf/terms#SpdxItem</title>
<ellipse fill="none" stroke="#1f77b4" cx="554.16" cy="-1652.7" rx="87.86" ry="16.03"/>
<text text-anchor="middle" x="554.16" y="-1649" font-family="Times,serif" font-size="14.00">spdx:SpdxItem</text>
</g>
<!-- http://w3id.org/oseg/ont/okhmeta#MetaTag&#45;&gt;http://w3id.org/oseg/ont/okhmeta#Tag -->
<g id="edge10" class="edge">
<title>http://w3id.org/oseg/ont/okhmeta#MetaTag&#45;&gt;http://w3id.org/oseg/ont/okhmeta#Tag</title>
<path fill="none" stroke="black" d="M657.01,-681.7C716.54,-681.7 790.84,-681.7 847.4,-681.7"/>
<polygon fill="black" stroke="black" points="847.75,-685.2 857.75,-681.7 847.75,-678.2 847.75,-685.2"/>
<text text-anchor="middle" x="763" y="-685.5" font-family="Times,serif" font-size="14.00">a</text>
</g>
<!-- http://w3id.org/oseg/ont/okhmeta#MetaTag&#45;&gt;http://w3id.org/oseg/ont/okhmeta#MetaTag -->
<g id="edge2" class="edge">
<title>http://w3id.org/oseg/ont/okhmeta#MetaTag&#45;&gt;http://w3id.org/oseg/ont/okhmeta#MetaTag</title>
<path fill="none" stroke="black" d="M517.91,-697.21C509.17,-706.82 521.25,-715.97 554.16,-715.97 574.73,-715.97 587.16,-712.39 591.46,-707.37"/>
<polygon fill="black" stroke="black" points="594.92,-706.8 590.41,-697.21 587.95,-707.51 594.92,-706.8"/>
<text text-anchor="middle" x="554.16" y="-719.77" font-family="Times,serif" font-size="14.00">okhmeta:hasMetaTag</text>
</g>
<!-- http://spdx.org/licenses/GPL&#45;3.0&#45;or&#45;later -->
<g id="node8" class="node">
<title>http://spdx.org/licenses/GPL&#45;3.0&#45;or&#45;later</title>
<ellipse fill="none" stroke="#e377c2" cx="554.16" cy="-1601.7" rx="108.79" ry="16.03"/>
<text text-anchor="middle" x="554.16" y="-1598" font-family="Times,serif" font-size="14.00">spdxl:GPL&#45;3.0&#45;or&#45;...</text>
</g>
<!-- http://w3id.org/oseg/ont/okhmeta#hasMetaTag -->
<g id="node9" class="node">
<title>http://w3id.org/oseg/ont/okhmeta#hasMetaTag</title>
<ellipse fill="none" stroke="#e377c2" cx="125.16" cy="-1272.7" rx="120.42" ry="16.03"/>
<text text-anchor="middle" x="125.16" y="-1269" font-family="Times,serif" font-size="14.00">okhmeta:hasMetaTag</text>
</g>
<!-- http://w3id.org/oseg/ont/okhmeta#hasMetaTag&#45;&gt;http://www.w3.org/2002/07/owl#ObjectProperty -->
<g id="edge29" class="edge">
<title>http://w3id.org/oseg/ont/okhmeta#hasMetaTag&#45;&gt;http://www.w3.org/2002/07/owl#ObjectProperty</title>
<path fill="none" stroke="black" d="M167.89,-1287.98C195.93,-1297.66 233.9,-1309.64 268.32,-1316.7 324.83,-1328.31 388.63,-1335.56 441.49,-1340.01"/>
<polygon fill="black" stroke="black" points="441.32,-1343.51 451.58,-1340.84 441.9,-1336.53 441.32,-1343.51"/>
<text text-anchor="middle" x="345.32" y="-1341.5" font-family="Times,serif" font-size="14.00">a</text>
</g>
<!-- http://w3id.org/oseg/ont/okhmeta#hasMetaTag&#45;&gt;http://www.w3.org/2004/02/skos/core#Concept -->
<g id="edge26" class="edge">
<title>http://w3id.org/oseg/ont/okhmeta#hasMetaTag&#45;&gt;http://www.w3.org/2004/02/skos/core#Concept</title>
<path fill="none" stroke="black" d="M193.55,-1286.13C297.54,-1304.19 502.4,-1329.11 668,-1283.7 855.24,-1232.36 1046.34,-1089.88 1115.44,-1034.82"/>
<polygon fill="black" stroke="black" points="1117.65,-1037.54 1123.25,-1028.55 1113.26,-1032.08 1117.65,-1037.54"/>
<text text-anchor="middle" x="763" y="-1281.5" font-family="Times,serif" font-size="14.00">a</text>
</g>
<!-- http://w3id.org/oseg/ont/okhmeta#hasMetaTag&#45;&gt;http://w3id.org/oseg/ont/okhmeta#MetaTag -->
<g id="edge13" class="edge">
<title>http://w3id.org/oseg/ont/okhmeta#hasMetaTag&#45;&gt;http://w3id.org/oseg/ont/okhmeta#MetaTag</title>
<path fill="none" stroke="black" d="M181.56,-1258.27C204.51,-1250.4 230.37,-1238.87 250.32,-1222.7 356.81,-1136.4 369.5,-1093.19 422.32,-966.7 437.87,-929.46 426.06,-915.46 440.32,-877.7 465.12,-812.01 510.34,-742.44 535.35,-706.48"/>
<polygon fill="black" stroke="black" points="538.36,-708.28 541.24,-698.08 532.63,-704.26 538.36,-708.28"/>
<text text-anchor="middle" x="345.32" y="-1211.5" font-family="Times,serif" font-size="14.00">okhmeta:hasMetaTag</text>
</g>
<!-- http://w3id.org/oseg/ont/okhmeta#hasMetaTag&#45;&gt;http://w3id.org/oseg/ont/okhmeta#MetaTag -->
<g id="edge46" class="edge">
<title>http://w3id.org/oseg/ont/okhmeta#hasMetaTag&#45;&gt;http://w3id.org/oseg/ont/okhmeta#MetaTag</title>
<path fill="none" stroke="black" d="M196.35,-1259.47C216.93,-1252.08 237.37,-1240.58 250.32,-1222.7 286.23,-1173.1 226.7,-992.63 268.32,-947.7 315.3,-896.98 368.42,-969.01 422.32,-925.7 440.08,-911.43 430.6,-898.31 440.32,-877.7 470.42,-813.86 513.89,-743.03 537.11,-706.51"/>
<polygon fill="black" stroke="black" points="540.12,-708.3 542.55,-697.99 534.22,-704.53 540.12,-708.3"/>
<text text-anchor="middle" x="345.32" y="-951.5" font-family="Times,serif" font-size="14.00">dcam:rangeIncludes</text>
</g>
<!-- http://www.w3.org/2004/02/skos/core#member -->
<g id="node26" class="node">
<title>http://www.w3.org/2004/02/skos/core#member</title>
<ellipse fill="none" stroke="#e377c2" cx="554.16" cy="-1258.7" rx="79.39" ry="16.03"/>
<text text-anchor="middle" x="554.16" y="-1255" font-family="Times,serif" font-size="14.00">skos:member</text>
</g>
<!-- http://w3id.org/oseg/ont/okhmeta#hasMetaTag&#45;&gt;http://www.w3.org/2004/02/skos/core#member -->
<g id="edge18" class="edge">
<title>http://w3id.org/oseg/ont/okhmeta#hasMetaTag&#45;&gt;http://www.w3.org/2004/02/skos/core#member</title>
<path fill="none" stroke="black" d="M242.27,-1268.9C312.72,-1266.59 401.16,-1263.69 465.69,-1261.57"/>
<polygon fill="black" stroke="black" points="465.95,-1265.06 475.83,-1261.24 465.72,-1258.07 465.95,-1265.06"/>
<text text-anchor="middle" x="345.32" y="-1272.5" font-family="Times,serif" font-size="14.00">subPropertyOf</text>
</g>
<!-- http://w3id.org/oseg/ont/okhmeta#MakingTag -->
<g id="node10" class="node">
<title>http://w3id.org/oseg/ont/okhmeta#MakingTag</title>
<ellipse fill="none" stroke="#e377c2" cx="125.16" cy="-1031.7" rx="113.69" ry="16.03"/>
<text text-anchor="middle" x="125.16" y="-1028" font-family="Times,serif" font-size="14.00">okhmeta:MakingTag</text>
</g>
<!-- http://w3id.org/oseg/ont/okhmeta#MakingTag&#45;&gt;http://w3id.org/oseg/ont/okhmeta#Tag -->
<g id="edge27" class="edge">
<title>http://w3id.org/oseg/ont/okhmeta#MakingTag&#45;&gt;http://w3id.org/oseg/ont/okhmeta#Tag</title>
<path fill="none" stroke="black" d="M204.39,-1043.46C311.11,-1056.83 507.4,-1071.88 668,-1030.7 752.39,-1009.07 783.17,-1002.72 840,-936.7 899.32,-867.8 922.26,-758 929.96,-708.02"/>
<polygon fill="black" stroke="black" points="933.44,-708.43 931.42,-698.03 926.51,-707.42 933.44,-708.43"/>
<text text-anchor="middle" x="554.16" y="-1061.5" font-family="Times,serif" font-size="14.00">a</text>
</g>
<!-- http://w3id.org/oseg/ont/okhmeta#MakingTag&#45;&gt;http://w3id.org/oseg/ont/okhmeta#MetaTag -->
<g id="edge12" class="edge">
<title>http://w3id.org/oseg/ont/okhmeta#MakingTag&#45;&gt;http://w3id.org/oseg/ont/okhmeta#MetaTag</title>
<path fill="none" stroke="black" d="M208.63,-1020.56C224.61,-1014.7 239.67,-1005.89 250.32,-992.7 277.78,-958.67 238.28,-828.5 268.32,-796.7 315.84,-746.4 358.06,-799.41 422.32,-773.7 463.08,-757.39 503.41,-726.13 528.29,-704.61"/>
<polygon fill="black" stroke="black" points="530.92,-706.96 536.11,-697.72 526.29,-701.71 530.92,-706.96"/>
<text text-anchor="middle" x="345.32" y="-800.5" font-family="Times,serif" font-size="14.00">okhmeta:hasMetaTag</text>
</g>
<!-- http://w3id.org/oseg/ont/okhmeta#HistoryTag -->
<g id="node11" class="node">
<title>http://w3id.org/oseg/ont/okhmeta#HistoryTag</title>
<ellipse fill="none" stroke="#e377c2" cx="125.16" cy="-67.7" rx="113.69" ry="16.03"/>
<text text-anchor="middle" x="125.16" y="-64" font-family="Times,serif" font-size="14.00">okhmeta:HistoryTag</text>
</g>
<!-- http://w3id.org/oseg/ont/okhmeta#HistoryTag&#45;&gt;http://w3id.org/oseg/ont/okhmeta#Tag -->
<g id="edge4" class="edge">
<title>http://w3id.org/oseg/ont/okhmeta#HistoryTag&#45;&gt;http://w3id.org/oseg/ont/okhmeta#Tag</title>
<path fill="none" stroke="black" d="M172.18,-52.85C298.17,-15.36 651.77,68.03 840,-108.7 920.74,-184.5 931.67,-552.36 933.14,-655.04"/>
<polygon fill="black" stroke="black" points="929.64,-655.22 933.27,-665.18 936.64,-655.14 929.64,-655.22"/>
<text text-anchor="middle" x="554.16" y="-22.5" font-family="Times,serif" font-size="14.00">a</text>
</g>
<!-- http://w3id.org/oseg/ont/okhmeta#HistoryTag&#45;&gt;http://w3id.org/oseg/ont/okhmeta#MetaTag -->
<g id="edge39" class="edge">
<title>http://w3id.org/oseg/ont/okhmeta#HistoryTag&#45;&gt;http://w3id.org/oseg/ont/okhmeta#MetaTag</title>
<path fill="none" stroke="black" d="M153.39,-83.53C214.53,-120.8 362.07,-220.73 422.32,-349.7 448.71,-406.19 405.03,-578.3 440.32,-629.7 451.18,-645.53 468.14,-656.64 485.63,-664.4"/>
<polygon fill="black" stroke="black" points="484.79,-667.83 495.37,-668.37 487.43,-661.35 484.79,-667.83"/>
<text text-anchor="middle" x="345.32" y="-353.5" font-family="Times,serif" font-size="14.00">okhmeta:hasMetaTag</text>
</g>
<!-- http://w3id.org/oseg/ont/okhmeta#DataGatheringTag -->
<g id="node12" class="node">
<title>http://w3id.org/oseg/ont/okhmeta#DataGatheringTag</title>
<ellipse fill="none" stroke="#e377c2" cx="125.16" cy="-967.7" rx="122.16" ry="16.03"/>
<text text-anchor="middle" x="125.16" y="-964" font-family="Times,serif" font-size="14.00">okhmeta:DataGathe...</text>
</g>
<!-- http://w3id.org/oseg/ont/okhmeta#DataGatheringTag&#45;&gt;http://w3id.org/oseg/ont/okhmeta#Tag -->
<g id="edge5" class="edge">
<title>http://w3id.org/oseg/ont/okhmeta#DataGatheringTag&#45;&gt;http://w3id.org/oseg/ont/okhmeta#Tag</title>
<path fill="none" stroke="black" d="M174.27,-982.6C197.31,-989.79 225.27,-998.6 250.32,-1006.7 258.34,-1009.3 259.99,-1011.35 268.32,-1012.7 356.29,-1026.98 584.2,-1010.02 668,-979.7 752.89,-949 779.58,-938.76 840,-871.7 884.84,-821.95 913.15,-746.76 925.75,-707.56"/>
<polygon fill="black" stroke="black" points="929.11,-708.54 928.75,-697.95 922.43,-706.45 929.11,-708.54"/>
<text text-anchor="middle" x="554.16" y="-1019.5" font-family="Times,serif" font-size="14.00">a</text>
</g>
<!-- http://w3id.org/oseg/ont/okhmeta#DataGatheringTag&#45;&gt;http://w3id.org/oseg/ont/okhmeta#MetaTag -->
<g id="edge24" class="edge">
<title>http://w3id.org/oseg/ont/okhmeta#DataGatheringTag&#45;&gt;http://w3id.org/oseg/ont/okhmeta#MetaTag</title>
<path fill="none" stroke="black" d="M193.93,-954.22C215.12,-946.66 236.55,-934.92 250.32,-916.7 292.93,-860.32 219.22,-809.54 268.32,-758.7 292.35,-733.81 388.97,-744.93 422.32,-735.7 453.4,-727.11 487,-713.13 512.37,-701.55"/>
<polygon fill="black" stroke="black" points="514.06,-704.63 521.66,-697.25 511.12,-698.28 514.06,-704.63"/>
<text text-anchor="middle" x="345.32" y="-762.5" font-family="Times,serif" font-size="14.00">okhmeta:hasMetaTag</text>
</g>
<!-- http://w3id.org/oseg/ont/okhmeta#BasicTag -->
<g id="node13" class="node">
<title>http://w3id.org/oseg/ont/okhmeta#BasicTag</title>
<ellipse fill="none" stroke="#e377c2" cx="125.16" cy="-466.7" rx="103.48" ry="16.03"/>
<text text-anchor="middle" x="125.16" y="-463" font-family="Times,serif" font-size="14.00">okhmeta:BasicTag</text>
</g>
<!-- http://w3id.org/oseg/ont/okhmeta#BasicTag&#45;&gt;http://w3id.org/oseg/ont/okhmeta#Tag -->
<g id="edge8" class="edge">
<title>http://w3id.org/oseg/ont/okhmeta#BasicTag&#45;&gt;http://w3id.org/oseg/ont/okhmeta#Tag</title>
<path fill="none" stroke="black" d="M205.05,-456.38C222.22,-450.55 238.7,-441.55 250.32,-427.7 290.07,-380.32 223.53,-332.37 268.32,-289.7 298.44,-261.01 652.36,-273.31 668,-275.7 747.2,-287.84 784.64,-271.79 840,-329.7 885.61,-377.41 918.93,-581.43 929.67,-655.06"/>
<polygon fill="black" stroke="black" points="926.26,-655.93 931.14,-665.34 933.19,-654.94 926.26,-655.93"/>
<text text-anchor="middle" x="554.16" y="-279.5" font-family="Times,serif" font-size="14.00">a</text>
</g>
<!-- http://w3id.org/oseg/ont/okhmeta#BasicTag&#45;&gt;http://w3id.org/oseg/ont/okhmeta#MetaTag -->
<g id="edge1" class="edge">
<title>http://w3id.org/oseg/ont/okhmeta#BasicTag&#45;&gt;http://w3id.org/oseg/ont/okhmeta#MetaTag</title>
<path fill="none" stroke="black" d="M208.94,-476.28C293.89,-486.47 414.72,-502.14 422.32,-509.7 460.54,-547.75 407.94,-586.57 440.32,-629.7 452.12,-645.42 469.81,-656.54 487.71,-664.34"/>
<polygon fill="black" stroke="black" points="486.48,-667.61 497.06,-668.12 489.1,-661.13 486.48,-667.61"/>
<text text-anchor="middle" x="345.32" y="-513.5" font-family="Times,serif" font-size="14.00">okhmeta:hasMetaTag</text>
</g>
<!-- http://w3id.org/oseg/ont/okhmeta#DataTag -->
<g id="node14" class="node">
<title>http://w3id.org/oseg/ont/okhmeta#DataTag</title>
<ellipse fill="none" stroke="#e377c2" cx="125.16" cy="-637.7" rx="100.32" ry="16.03"/>
<text text-anchor="middle" x="125.16" y="-634" font-family="Times,serif" font-size="14.00">okhmeta:DataTag</text>
</g>
<!-- http://w3id.org/oseg/ont/okhmeta#DataTag&#45;&gt;http://w3id.org/oseg/ont/okhmeta#Tag -->
<g id="edge30" class="edge">
<title>http://w3id.org/oseg/ont/okhmeta#DataTag&#45;&gt;http://w3id.org/oseg/ont/okhmeta#Tag</title>
<path fill="none" stroke="black" d="M220.19,-632.42C236.24,-631.7 252.75,-631.09 268.32,-630.7 522.55,-624.45 589.74,-609.56 840,-654.7 854.17,-657.26 869.26,-661.11 883.09,-665.11"/>
<polygon fill="black" stroke="black" points="882.32,-668.53 892.9,-668.03 884.31,-661.82 882.32,-668.53"/>
<text text-anchor="middle" x="554.16" y="-633.5" font-family="Times,serif" font-size="14.00">a</text>
</g>
<!-- http://w3id.org/oseg/ont/okhmeta#DataTag&#45;&gt;http://w3id.org/oseg/ont/okhmeta#MetaTag -->
<g id="edge47" class="edge">
<title>http://w3id.org/oseg/ont/okhmeta#DataTag&#45;&gt;http://w3id.org/oseg/ont/okhmeta#MetaTag</title>
<path fill="none" stroke="black" d="M223.05,-633.87C281.15,-633.09 356.33,-634.76 422.32,-644.7 448.88,-648.71 477.69,-656.47 501.5,-663.85"/>
<polygon fill="black" stroke="black" points="500.44,-667.18 511.03,-666.87 502.55,-660.51 500.44,-667.18"/>
<text text-anchor="middle" x="345.32" y="-648.5" font-family="Times,serif" font-size="14.00">okhmeta:hasMetaTag</text>
</g>
<!-- http://w3id.org/oseg/ont/oseg&#45;profiles#Iopa -->
<g id="node15" class="node">
<title>http://w3id.org/oseg/ont/oseg&#45;profiles#Iopa</title>
<ellipse fill="none" stroke="#e377c2" cx="554.16" cy="-1550.7" rx="80.72" ry="16.03"/>
<text text-anchor="middle" x="554.16" y="-1547" font-family="Times,serif" font-size="14.00">osegprof:Iopa</text>
</g>
<!-- http://w3id.org/oseg/ont/okhmeta#DocumentationTag -->
<g id="node16" class="node">
<title>http://w3id.org/oseg/ont/okhmeta#DocumentationTag</title>
<ellipse fill="none" stroke="#e377c2" cx="125.16" cy="-1143.7" rx="125.32" ry="16.03"/>
<text text-anchor="middle" x="125.16" y="-1140" font-family="Times,serif" font-size="14.00">okhmeta:Documenta...</text>
</g>
<!-- http://w3id.org/oseg/ont/okhmeta#DocumentationTag&#45;&gt;http://w3id.org/oseg/ont/okhmeta#Tag -->
<g id="edge31" class="edge">
<title>http://w3id.org/oseg/ont/okhmeta#DocumentationTag&#45;&gt;http://w3id.org/oseg/ont/okhmeta#Tag</title>
<path fill="none" stroke="black" d="M236.66,-1151.13C347.25,-1155.84 521.55,-1155.84 668,-1122.7 749.17,-1104.34 785.96,-1111.99 840,-1048.7 926.98,-946.86 934.66,-774.7 934.16,-708.63"/>
<polygon fill="black" stroke="black" points="937.66,-708.21 934.01,-698.26 930.66,-708.31 937.66,-708.21"/>
<text text-anchor="middle" x="554.16" y="-1154.5" font-family="Times,serif" font-size="14.00">a</text>
</g>
<!-- http://w3id.org/oseg/ont/okhmeta#DocumentationTag&#45;&gt;http://w3id.org/oseg/ont/okhmeta#MetaTag -->
<g id="edge42" class="edge">
<title>http://w3id.org/oseg/ont/okhmeta#DocumentationTag&#45;&gt;http://w3id.org/oseg/ont/okhmeta#MetaTag</title>
<path fill="none" stroke="black" d="M220.44,-1133.13C231.87,-1128.17 242.32,-1121.26 250.32,-1111.7 284.5,-1070.86 232.06,-911.72 268.32,-872.7 315.43,-822.01 362.56,-884.61 422.32,-849.7 480.34,-815.81 521.93,-745.36 541.17,-707.35"/>
<polygon fill="black" stroke="black" points="544.5,-708.5 545.79,-697.98 538.22,-705.4 544.5,-708.5"/>
<text text-anchor="middle" x="345.32" y="-876.5" font-family="Times,serif" font-size="14.00">okhmeta:hasMetaTag</text>
</g>
<!-- http://w3id.org/oseg/ont/okhmeta -->
<g id="node17" class="node">
<title>http://w3id.org/oseg/ont/okhmeta</title>
<ellipse fill="none" stroke="#e377c2" cx="125.16" cy="-1531.7" rx="76.24" ry="16.03"/>
<text text-anchor="middle" x="125.16" y="-1528" font-family="Times,serif" font-size="14.00">ns1:okhmeta</text>
</g>
<!-- http://w3id.org/oseg/ont/okhmeta&#45;&gt;http://www.w3.org/2002/07/owl#Ontology -->
<g id="edge33" class="edge">
<title>http://w3id.org/oseg/ont/okhmeta&#45;&gt;http://www.w3.org/2002/07/owl#Ontology</title>
<path fill="none" stroke="black" d="M139.1,-1547.88C161.99,-1575.24 212.48,-1630.25 268.32,-1656.7 330.49,-1686.15 407.88,-1697.54 466.29,-1701.76"/>
<polygon fill="black" stroke="black" points="466.39,-1705.27 476.6,-1702.44 466.85,-1698.29 466.39,-1705.27"/>
<text text-anchor="middle" x="345.32" y="-1700.5" font-family="Times,serif" font-size="14.00">a</text>
</g>
<!-- http://w3id.org/oseg/ont/okhmeta&#45;&gt;http://spdx.org/rdf/terms#SpdxItem -->
<g id="edge35" class="edge">
<title>http://w3id.org/oseg/ont/okhmeta&#45;&gt;http://spdx.org/rdf/terms#SpdxItem</title>
<path fill="none" stroke="black" d="M150.85,-1547.09C178.45,-1563.6 224.98,-1589.36 268.32,-1603.7 332.47,-1624.93 407.95,-1637.39 465.08,-1644.42"/>
<polygon fill="black" stroke="black" points="464.83,-1647.92 475.17,-1645.63 465.66,-1640.97 464.83,-1647.92"/>
<text text-anchor="middle" x="345.32" y="-1641.5" font-family="Times,serif" font-size="14.00">a</text>
</g>
<!-- http://w3id.org/oseg/ont/okhmeta&#45;&gt;http://spdx.org/licenses/GPL&#45;3.0&#45;or&#45;later -->
<g id="edge25" class="edge">
<title>http://w3id.org/oseg/ont/okhmeta&#45;&gt;http://spdx.org/licenses/GPL&#45;3.0&#45;or&#45;later</title>
<path fill="none" stroke="black" d="M176.63,-1543.72C203.71,-1549.91 237.72,-1557.28 268.32,-1562.7 331.01,-1573.81 401.95,-1583.53 457.35,-1590.49"/>
<polygon fill="black" stroke="black" points="457.15,-1593.99 467.51,-1591.76 458.02,-1587.05 457.15,-1593.99"/>
<text text-anchor="middle" x="345.32" y="-1588.5" font-family="Times,serif" font-size="14.00">spdx:licenseDeclared</text>
</g>
<!-- http://w3id.org/oseg/ont/okhmeta&#45;&gt;http://w3id.org/oseg/ont/oseg&#45;profiles#Iopa -->
<g id="edge9" class="edge">
<title>http://w3id.org/oseg/ont/okhmeta&#45;&gt;http://w3id.org/oseg/ont/oseg&#45;profiles#Iopa</title>
<path fill="none" stroke="black" d="M200.05,-1534.99C273.61,-1538.26 386.54,-1543.29 464.8,-1546.77"/>
<polygon fill="black" stroke="black" points="464.98,-1550.28 475.12,-1547.23 465.29,-1543.29 464.98,-1550.28"/>
<text text-anchor="middle" x="345.32" y="-1547.5" font-family="Times,serif" font-size="14.00">dcterms:publisher</text>
</g>
<!-- http://w3id.org/oseg/ont/1.1.0/okh&#45;meta -->
<g id="node21" class="node">
<title>http://w3id.org/oseg/ont/1.1.0/okh&#45;meta</title>
<ellipse fill="none" stroke="#e377c2" cx="554.16" cy="-1499.7" rx="79.81" ry="16.03"/>
<text text-anchor="middle" x="554.16" y="-1496" font-family="Times,serif" font-size="14.00">ns2:okh&#45;meta</text>
</g>
<!-- http://w3id.org/oseg/ont/okhmeta&#45;&gt;http://w3id.org/oseg/ont/1.1.0/okh&#45;meta -->
<g id="edge37" class="edge">
<title>http://w3id.org/oseg/ont/okhmeta&#45;&gt;http://w3id.org/oseg/ont/1.1.0/okh&#45;meta</title>
<path fill="none" stroke="black" d="M195.18,-1525.05C218.41,-1522.9 244.47,-1520.59 268.32,-1518.7 334.95,-1513.44 410.42,-1508.44 466.93,-1504.9"/>
<polygon fill="black" stroke="black" points="467.49,-1508.37 477.26,-1504.26 467.06,-1501.39 467.49,-1508.37"/>
<text text-anchor="middle" x="345.32" y="-1522.5" font-family="Times,serif" font-size="14.00">owl:versionIRI</text>
</g>
<!-- http://w3id.org/oseg/ont/oseg&#45;profiles#robinVobruba -->
<g id="node22" class="node">
<title>http://w3id.org/oseg/ont/oseg&#45;profiles#robinVobruba</title>
<ellipse fill="none" stroke="#e377c2" cx="554.16" cy="-1448.7" rx="113.69" ry="16.03"/>
<text text-anchor="middle" x="554.16" y="-1445" font-family="Times,serif" font-size="14.00">osegprof:robinVob...</text>
</g>
<!-- http://w3id.org/oseg/ont/okhmeta&#45;&gt;http://w3id.org/oseg/ont/oseg&#45;profiles#robinVobruba -->
<g id="edge14" class="edge">
<title>http://w3id.org/oseg/ont/okhmeta&#45;&gt;http://w3id.org/oseg/ont/oseg&#45;profiles#robinVobruba</title>
<path fill="none" stroke="black" d="M165.86,-1517.9C194.13,-1508.51 233.19,-1496.43 268.32,-1488.7 328.23,-1475.52 396.24,-1465.77 450.78,-1459.21"/>
<polygon fill="black" stroke="black" points="451.28,-1462.67 460.8,-1458.02 450.45,-1455.72 451.28,-1462.67"/>
<text text-anchor="middle" x="345.32" y="-1492.5" font-family="Times,serif" font-size="14.00">schema:creator</text>
</g>
<!-- http://w3id.org/oseg/ont/okhmeta&#45;&gt;http://w3id.org/oseg/ont/oseg&#45;profiles#robinVobruba -->
<g id="edge16" class="edge">
<title>http://w3id.org/oseg/ont/okhmeta&#45;&gt;http://w3id.org/oseg/ont/oseg&#45;profiles#robinVobruba</title>
<path fill="none" stroke="black" d="M144.33,-1515.93C169.93,-1494.86 219.02,-1458.59 268.32,-1444.7 334.11,-1426.17 411.88,-1428.81 469.52,-1435.17"/>
<polygon fill="black" stroke="black" points="469.34,-1438.67 479.68,-1436.35 470.15,-1431.72 469.34,-1438.67"/>
<text text-anchor="middle" x="345.32" y="-1448.5" font-family="Times,serif" font-size="14.00">dcterms:creator</text>
</g>
<!-- http://id.loc.gov/vocabulary/iso639&#45;1/en -->
<g id="node25" class="node">
<title>http://id.loc.gov/vocabulary/iso639&#45;1/en</title>
<ellipse fill="none" stroke="#e377c2" cx="554.16" cy="-1397.7" rx="45.01" ry="16.03"/>
<text text-anchor="middle" x="554.16" y="-1394" font-family="Times,serif" font-size="14.00">ns3:en</text>
</g>
<!-- http://w3id.org/oseg/ont/okhmeta&#45;&gt;http://id.loc.gov/vocabulary/iso639&#45;1/en -->
<g id="edge43" class="edge">
<title>http://w3id.org/oseg/ont/okhmeta&#45;&gt;http://id.loc.gov/vocabulary/iso639&#45;1/en</title>
<path fill="none" stroke="black" d="M138.96,-1515.51C161.63,-1488.24 211.82,-1433.95 268.32,-1411.7 345.24,-1381.42 443,-1384.68 501.68,-1390.62"/>
<polygon fill="black" stroke="black" points="501.5,-1394.12 511.82,-1391.71 502.25,-1387.16 501.5,-1394.12"/>
<text text-anchor="middle" x="345.32" y="-1415.5" font-family="Times,serif" font-size="14.00">dcterms:language</text>
</g>
<!-- http://w3id.org/oseg/ont/okhmeta#PhysicalTag -->
<g id="node18" class="node">
<title>http://w3id.org/oseg/ont/okhmeta#PhysicalTag</title>
<ellipse fill="none" stroke="#e377c2" cx="125.16" cy="-789.7" rx="118.17" ry="16.03"/>
<text text-anchor="middle" x="125.16" y="-786" font-family="Times,serif" font-size="14.00">okhmeta:PhysicalTag</text>
</g>
<!-- http://w3id.org/oseg/ont/okhmeta#PhysicalTag&#45;&gt;http://w3id.org/oseg/ont/okhmeta#Tag -->
<g id="edge34" class="edge">
<title>http://w3id.org/oseg/ont/okhmeta#PhysicalTag&#45;&gt;http://w3id.org/oseg/ont/okhmeta#Tag</title>
<path fill="none" stroke="black" d="M167.79,-805.01C195.53,-817.4 230.42,-837.6 250.32,-866.7 275.06,-902.9 234.6,-935.67 268.32,-963.7 294.63,-985.58 394.32,-983.38 422.32,-963.7 441.64,-950.12 424.42,-931.17 440.32,-913.7 558.43,-783.9 764.28,-720.39 868.69,-695.26"/>
<polygon fill="black" stroke="black" points="869.54,-698.65 878.47,-692.95 867.93,-691.84 869.54,-698.65"/>
<text text-anchor="middle" x="554.16" y="-917.5" font-family="Times,serif" font-size="14.00">a</text>
</g>
<!-- http://w3id.org/oseg/ont/okhmeta#PhysicalTag&#45;&gt;http://w3id.org/oseg/ont/okhmeta#MetaTag -->
<g id="edge20" class="edge">
<title>http://w3id.org/oseg/ont/okhmeta#PhysicalTag&#45;&gt;http://w3id.org/oseg/ont/okhmeta#MetaTag</title>
<path fill="none" stroke="black" d="M140.78,-773.37C164.57,-748.17 214.44,-700.82 268.32,-682.7 334.64,-660.4 414.68,-662.45 473,-668.74"/>
<polygon fill="black" stroke="black" points="472.93,-672.26 483.26,-669.92 473.72,-665.3 472.93,-672.26"/>
<text text-anchor="middle" x="345.32" y="-686.5" font-family="Times,serif" font-size="14.00">okhmeta:hasMetaTag</text>
</g>
<!-- http://w3id.org/oseg/ont/okhmeta#AcademicTag -->
<g id="node19" class="node">
<title>http://w3id.org/oseg/ont/okhmeta#AcademicTag</title>
<ellipse fill="none" stroke="#e377c2" cx="125.16" cy="-1086.7" rx="124.4" ry="16.03"/>
<text text-anchor="middle" x="125.16" y="-1083" font-family="Times,serif" font-size="14.00">okhmeta:AcademicTag</text>
</g>
<!-- http://w3id.org/oseg/ont/okhmeta#AcademicTag&#45;&gt;http://w3id.org/oseg/ont/okhmeta#Tag -->
<g id="edge11" class="edge">
<title>http://w3id.org/oseg/ont/okhmeta#AcademicTag&#45;&gt;http://w3id.org/oseg/ont/okhmeta#Tag</title>
<path fill="none" stroke="black" d="M222.1,-1096.91C331.58,-1105.81 515.22,-1112.36 668,-1076.7 750.29,-1057.5 784.94,-1059.79 840,-995.7 913.82,-909.79 929.29,-767.5 932.52,-708.56"/>
<polygon fill="black" stroke="black" points="936.04,-708.39 933.01,-698.24 929.04,-708.06 936.04,-708.39"/>
<text text-anchor="middle" x="554.16" y="-1107.5" font-family="Times,serif" font-size="14.00">a</text>
</g>
<!-- http://w3id.org/oseg/ont/okhmeta#AcademicTag&#45;&gt;http://w3id.org/oseg/ont/okhmeta#MetaTag -->
<g id="edge6" class="edge">
<title>http://w3id.org/oseg/ont/okhmeta#AcademicTag&#45;&gt;http://w3id.org/oseg/ont/okhmeta#MetaTag</title>
<path fill="none" stroke="black" d="M222.75,-1076.61C233.25,-1071.91 242.82,-1065.47 250.32,-1056.7 282.48,-1019.08 234.52,-870.86 268.32,-834.7 315.57,-784.15 360.47,-842.75 422.32,-811.7 471.55,-786.99 513.69,-736.79 536.05,-706.52"/>
<polygon fill="black" stroke="black" points="539.06,-708.33 542.08,-698.18 533.38,-704.23 539.06,-708.33"/>
<text text-anchor="middle" x="345.32" y="-838.5" font-family="Times,serif" font-size="14.00">okhmeta:hasMetaTag</text>
</g>
<!-- http://w3id.org/oseg/ont/okhmeta#IdentificationTag -->
<g id="node20" class="node">
<title>http://w3id.org/oseg/ont/okhmeta#IdentificationTag</title>
<ellipse fill="none" stroke="#e377c2" cx="125.16" cy="-222.7" rx="109.7" ry="16.03"/>
<text text-anchor="middle" x="125.16" y="-219" font-family="Times,serif" font-size="14.00">okhmeta:Identific...</text>
</g>
<!-- http://w3id.org/oseg/ont/okhmeta#IdentificationTag&#45;&gt;http://w3id.org/oseg/ont/okhmeta#Tag -->
<g id="edge36" class="edge">
<title>http://w3id.org/oseg/ont/okhmeta#IdentificationTag&#45;&gt;http://w3id.org/oseg/ont/okhmeta#Tag</title>
<path fill="none" stroke="black" d="M155.81,-207.04C184,-192.82 227.96,-172.34 268.32,-160.7 390.39,-125.52 748.24,-69.84 840,-157.7 912.79,-227.39 929.32,-558.65 932.62,-655.22"/>
<polygon fill="black" stroke="black" points="929.13,-655.43 932.95,-665.32 936.13,-655.21 929.13,-655.43"/>
<text text-anchor="middle" x="554.16" y="-130.5" font-family="Times,serif" font-size="14.00">a</text>
</g>
<!-- http://w3id.org/oseg/ont/okhmeta#IdentificationTag&#45;&gt;http://w3id.org/oseg/ont/okhmeta#MetaTag -->
<g id="edge22" class="edge">
<title>http://w3id.org/oseg/ont/okhmeta#IdentificationTag&#45;&gt;http://w3id.org/oseg/ont/okhmeta#MetaTag</title>
<path fill="none" stroke="black" d="M165.06,-237.87C192.78,-250.63 228.82,-271.48 250.32,-300.7 268.84,-325.88 244.76,-348.15 268.32,-368.7 320.28,-414.04 374.75,-337.77 422.32,-387.7 459.51,-426.75 409.57,-585.4 440.32,-629.7 451.26,-645.48 468.24,-656.57 485.73,-664.33"/>
<polygon fill="black" stroke="black" points="484.88,-667.76 495.47,-668.3 487.53,-661.28 484.88,-667.76"/>
<text text-anchor="middle" x="345.32" y="-391.5" font-family="Times,serif" font-size="14.00">okhmeta:hasMetaTag</text>
</g>
<!-- http://w3id.org/oseg/ont/okhmeta#PartsTag -->
<g id="node23" class="node">
<title>http://w3id.org/oseg/ont/okhmeta#PartsTag</title>
<ellipse fill="none" stroke="#e377c2" cx="125.16" cy="-578.7" rx="103.48" ry="16.03"/>
<text text-anchor="middle" x="125.16" y="-575" font-family="Times,serif" font-size="14.00">okhmeta:PartsTag</text>
</g>
<!-- http://w3id.org/oseg/ont/okhmeta#PartsTag&#45;&gt;http://w3id.org/oseg/ont/okhmeta#Tag -->
<g id="edge15" class="edge">
<title>http://w3id.org/oseg/ont/okhmeta#PartsTag&#45;&gt;http://w3id.org/oseg/ont/okhmeta#Tag</title>
<path fill="none" stroke="black" d="M217.79,-571.41C230.2,-566.69 241.64,-559.76 250.32,-549.7 281.79,-513.25 232.87,-366.32 268.32,-333.7 318.68,-287.36 356.91,-313.55 422.32,-333.7 532.13,-367.54 815.7,-588.17 905.6,-659.5"/>
<polygon fill="black" stroke="black" points="903.68,-662.44 913.68,-665.93 908.03,-656.96 903.68,-662.44"/>
<text text-anchor="middle" x="554.16" y="-483.5" font-family="Times,serif" font-size="14.00">a</text>
</g>
<!-- http://w3id.org/oseg/ont/okhmeta#PartsTag&#45;&gt;http://w3id.org/oseg/ont/okhmeta#MetaTag -->
<g id="edge32" class="edge">
<title>http://w3id.org/oseg/ont/okhmeta#PartsTag&#45;&gt;http://w3id.org/oseg/ont/okhmeta#MetaTag</title>
<path fill="none" stroke="black" d="M228.62,-578.19C287.29,-581.11 361.16,-590.37 422.32,-615.7 431.68,-619.58 431.66,-624.44 440.32,-629.7 460.85,-642.19 484.89,-653.66 505.49,-662.63"/>
<polygon fill="black" stroke="black" points="504.12,-665.85 514.69,-666.57 506.88,-659.42 504.12,-665.85"/>
<text text-anchor="middle" x="345.32" y="-619.5" font-family="Times,serif" font-size="14.00">okhmeta:hasMetaTag</text>
</g>
<!-- http://w3id.org/oseg/ont/okhmeta#TransportationTag -->
<g id="node24" class="node">
<title>http://w3id.org/oseg/ont/okhmeta#TransportationTag</title>
<ellipse fill="none" stroke="#e377c2" cx="125.16" cy="-1197.7" rx="118.17" ry="16.03"/>
<text text-anchor="middle" x="125.16" y="-1194" font-family="Times,serif" font-size="14.00">okhmeta:Transport...</text>
</g>
<!-- http://w3id.org/oseg/ont/okhmeta#TransportationTag&#45;&gt;http://w3id.org/oseg/ont/okhmeta#Tag -->
<g id="edge40" class="edge">
<title>http://w3id.org/oseg/ont/okhmeta#TransportationTag&#45;&gt;http://w3id.org/oseg/ont/okhmeta#Tag</title>
<path fill="none" stroke="black" d="M237.39,-1202.86C347.99,-1205.45 521.78,-1202.64 668,-1169.7 748.68,-1151.53 786.74,-1161.97 840,-1098.7 890.88,-1038.28 921.72,-789.86 930.65,-708"/>
<polygon fill="black" stroke="black" points="934.14,-708.33 931.72,-698.01 927.18,-707.58 934.14,-708.33"/>
<text text-anchor="middle" x="554.16" y="-1203.5" font-family="Times,serif" font-size="14.00">a</text>
</g>
<!-- http://w3id.org/oseg/ont/okhmeta#TransportationTag&#45;&gt;http://w3id.org/oseg/ont/okhmeta#MetaTag -->
<g id="edge38" class="edge">
<title>http://w3id.org/oseg/ont/okhmeta#TransportationTag&#45;&gt;http://w3id.org/oseg/ont/okhmeta#MetaTag</title>
<path fill="none" stroke="black" d="M222.81,-1188.5C233.3,-1183.87 242.85,-1177.47 250.32,-1168.7 287.58,-1124.95 229.3,-952.91 268.32,-910.7 315.29,-859.88 364.3,-925.43 422.32,-887.7 489.37,-844.1 528.69,-752.77 544.71,-707.82"/>
<polygon fill="black" stroke="black" points="548.07,-708.81 548.03,-698.21 541.45,-706.52 548.07,-708.81"/>
<text text-anchor="middle" x="345.32" y="-914.5" font-family="Times,serif" font-size="14.00">okhmeta:hasMetaTag</text>
</g>
<!-- http://w3id.org/oseg/ont/okhmeta#ExtendedInfoTag -->
<g id="node27" class="node">
<title>http://w3id.org/oseg/ont/okhmeta#ExtendedInfoTag</title>
<ellipse fill="none" stroke="#e377c2" cx="125.16" cy="-524.7" rx="120.42" ry="16.03"/>
<text text-anchor="middle" x="125.16" y="-521" font-family="Times,serif" font-size="14.00">okhmeta:ExtendedI...</text>
</g>
<!-- http://w3id.org/oseg/ont/okhmeta#ExtendedInfoTag&#45;&gt;http://w3id.org/oseg/ont/okhmeta#Tag -->
<g id="edge21" class="edge">
<title>http://w3id.org/oseg/ont/okhmeta#ExtendedInfoTag&#45;&gt;http://w3id.org/oseg/ont/okhmeta#Tag</title>
<path fill="none" stroke="black" d="M217.81,-514.22C230.22,-509.13 241.65,-501.9 250.32,-491.7 276.78,-460.57 238.04,-336.15 268.32,-308.7 299.95,-280.02 611.75,-296.84 668,-321.7 815.9,-387.08 898.79,-584.33 924.56,-655.63"/>
<polygon fill="black" stroke="black" points="921.31,-656.95 927.95,-665.21 927.91,-654.61 921.31,-656.95"/>
<text text-anchor="middle" x="554.16" y="-325.5" font-family="Times,serif" font-size="14.00">a</text>
</g>
<!-- http://w3id.org/oseg/ont/okhmeta#ExtendedInfoTag&#45;&gt;http://w3id.org/oseg/ont/okhmeta#MetaTag -->
<g id="edge3" class="edge">
<title>http://w3id.org/oseg/ont/okhmeta#ExtendedInfoTag&#45;&gt;http://w3id.org/oseg/ont/okhmeta#MetaTag</title>
<path fill="none" stroke="black" d="M244.44,-526.72C315.05,-530.38 395.96,-539.68 422.32,-562.7 445.54,-582.99 420.44,-606.13 440.32,-629.7 453.28,-645.08 471.78,-656.15 490.05,-664.02"/>
<polygon fill="black" stroke="black" points="488.97,-667.36 499.55,-667.84 491.58,-660.86 488.97,-667.36"/>
<text text-anchor="middle" x="345.32" y="-566.5" font-family="Times,serif" font-size="14.00">okhmeta:hasMetaTag</text>
</g>
<!-- http://w3id.org/oseg/ont/okhmeta#LegalTag -->
<g id="node28" class="node">
<title>http://w3id.org/oseg/ont/okhmeta#LegalTag</title>
<ellipse fill="none" stroke="#e377c2" cx="125.16" cy="-402.7" rx="103.89" ry="16.03"/>
<text text-anchor="middle" x="125.16" y="-399" font-family="Times,serif" font-size="14.00">okhmeta:LegalTag</text>
</g>
<!-- http://w3id.org/oseg/ont/okhmeta#LegalTag&#45;&gt;http://w3id.org/oseg/ont/okhmeta#Tag -->
<g id="edge45" class="edge">
<title>http://w3id.org/oseg/ont/okhmeta#LegalTag&#45;&gt;http://w3id.org/oseg/ont/okhmeta#Tag</title>
<path fill="none" stroke="black" d="M187.77,-389.68C210.46,-381.94 234.47,-369.75 250.32,-350.7 274.46,-321.68 239.99,-292.65 268.32,-267.7 363.66,-183.73 745.86,-189.39 840,-274.7 897.2,-326.53 923.84,-573.74 931.19,-655.43"/>
<polygon fill="black" stroke="black" points="927.7,-655.74 932.06,-665.4 934.68,-655.13 927.7,-655.74"/>
<text text-anchor="middle" x="554.16" y="-219.5" font-family="Times,serif" font-size="14.00">a</text>
</g>
<!-- http://w3id.org/oseg/ont/okhmeta#LegalTag&#45;&gt;http://w3id.org/oseg/ont/okhmeta#MetaTag -->
<g id="edge28" class="edge">
<title>http://w3id.org/oseg/ont/okhmeta#LegalTag&#45;&gt;http://w3id.org/oseg/ont/okhmeta#MetaTag</title>
<path fill="none" stroke="black" d="M169.9,-417.5C197.79,-426.47 234.85,-437.52 268.32,-444.7 302.09,-451.95 398.22,-440.96 422.32,-465.7 447.9,-491.97 418.89,-599.95 440.32,-629.7 451.69,-645.5 469.08,-656.63 486.82,-664.41"/>
<polygon fill="black" stroke="black" points="485.52,-667.65 496.1,-668.18 488.15,-661.17 485.52,-667.65"/>
<text text-anchor="middle" x="345.32" y="-469.5" font-family="Times,serif" font-size="14.00">okhmeta:hasMetaTag</text>
</g>
<!-- http://w3id.org/oseg/ont/okhmeta#DevelopmentTag -->
<g id="node29" class="node">
<title>http://w3id.org/oseg/ont/okhmeta#DevelopmentTag</title>
<ellipse fill="none" stroke="#e377c2" cx="125.16" cy="-325.7" rx="124.4" ry="16.03"/>
<text text-anchor="middle" x="125.16" y="-322" font-family="Times,serif" font-size="14.00">okhmeta:Developme...</text>
</g>
<!-- http://w3id.org/oseg/ont/okhmeta#DevelopmentTag&#45;&gt;http://w3id.org/oseg/ont/okhmeta#Tag -->
<g id="edge23" class="edge">
<title>http://w3id.org/oseg/ont/okhmeta#DevelopmentTag&#45;&gt;http://w3id.org/oseg/ont/okhmeta#Tag</title>
<path fill="none" stroke="black" d="M161.31,-310.04C188.34,-296.61 225.19,-275.09 250.32,-247.7 262.14,-234.81 254.05,-222.83 268.32,-212.7 371.92,-139.17 748.3,-127.78 840,-215.7 904.18,-277.24 926.47,-565.42 931.92,-655.04"/>
<polygon fill="black" stroke="black" points="928.44,-655.41 932.52,-665.18 935.42,-655 928.44,-655.41"/>
<text text-anchor="middle" x="554.16" y="-165.5" font-family="Times,serif" font-size="14.00">a</text>
</g>
<!-- http://w3id.org/oseg/ont/okhmeta#DevelopmentTag&#45;&gt;http://w3id.org/oseg/ont/okhmeta#MetaTag -->
<g id="edge7" class="edge">
<title>http://w3id.org/oseg/ont/okhmeta#DevelopmentTag&#45;&gt;http://w3id.org/oseg/ont/okhmeta#MetaTag</title>
<path fill="none" stroke="black" d="M180.6,-340.32C203.91,-348.54 230.31,-360.65 250.32,-377.7 261.86,-387.54 255.54,-398.53 268.32,-406.7 326.41,-443.86 374.41,-376.1 422.32,-425.7 453.93,-458.44 414.11,-592.49 440.32,-629.7 451.37,-645.4 468.38,-656.47 485.87,-664.23"/>
<polygon fill="black" stroke="black" points="485.02,-667.67 495.6,-668.21 487.67,-661.19 485.02,-667.67"/>
<text text-anchor="middle" x="345.32" y="-429.5" font-family="Times,serif" font-size="14.00">okhmeta:hasMetaTag</text>
</g>
<!-- http://w3id.org/oseg/ont/okhmeta#QualityTag -->
<g id="node30" class="node">
<title>http://w3id.org/oseg/ont/okhmeta#QualityTag</title>
<ellipse fill="none" stroke="#e377c2" cx="125.16" cy="-891.7" rx="113.27" ry="16.03"/>
<text text-anchor="middle" x="125.16" y="-888" font-family="Times,serif" font-size="14.00">okhmeta:QualityTag</text>
</g>
<!-- http://w3id.org/oseg/ont/okhmeta#QualityTag&#45;&gt;http://w3id.org/oseg/ont/okhmeta#Tag -->
<g id="edge48" class="edge">
<title>http://w3id.org/oseg/ont/okhmeta#QualityTag&#45;&gt;http://w3id.org/oseg/ont/okhmeta#Tag</title>
<path fill="none" stroke="black" d="M185.4,-905.56C208.03,-913.34 232.63,-925.13 250.32,-942.7 265.01,-957.3 251.07,-974.23 268.32,-985.7 325.3,-1023.62 360.13,-1014.3 422.32,-985.7 433.48,-980.57 429.58,-970.7 440.32,-964.7 529.76,-914.73 575.89,-973.56 668,-928.7 779.8,-874.26 877.09,-756.73 915.68,-705.92"/>
<polygon fill="black" stroke="black" points="918.58,-707.9 921.78,-697.8 912.98,-703.69 918.58,-707.9"/>
<text text-anchor="middle" x="554.16" y="-968.5" font-family="Times,serif" font-size="14.00">a</text>
</g>
<!-- http://w3id.org/oseg/ont/okhmeta#QualityTag&#45;&gt;http://w3id.org/oseg/ont/okhmeta#MetaTag -->
<g id="edge44" class="edge">
<title>http://w3id.org/oseg/ont/okhmeta#QualityTag&#45;&gt;http://w3id.org/oseg/ont/okhmeta#MetaTag</title>
<path fill="none" stroke="black" d="M167.44,-876.49C195.2,-864.1 230.27,-843.86 250.32,-814.7 274.42,-779.65 237.45,-749.97 268.32,-720.7 271.91,-717.3 380.42,-703.14 462.45,-692.86"/>
<polygon fill="black" stroke="black" points="463.08,-696.31 472.56,-691.59 462.21,-689.36 463.08,-696.31"/>
<text text-anchor="middle" x="345.32" y="-724.5" font-family="Times,serif" font-size="14.00">okhmeta:hasMetaTag</text>
</g>
</g>
</svg>
