<?xml version="1.0" encoding="UTF-8" standalone="no"?>
<!DOCTYPE svg PUBLIC "-//W3C//DTD SVG 1.1//EN"
 "http://www.w3.org/Graphics/SVG/1.1/DTD/svg11.dtd">
<!-- Generated by graphviz version 2.43.0 (0)
 -->
<!-- Title: G Pages: 1 -->
<svg width="2023pt" height="1311pt"
 viewBox="0.00 0.00 2022.94 1310.53" xmlns="http://www.w3.org/2000/svg" xmlns:xlink="http://www.w3.org/1999/xlink">
<g id="graph0" class="graph" transform="scale(1 1) rotate(0) translate(4 1306.53)">
<title>G</title>
<polygon fill="white" stroke="transparent" points="-4,4 -4,-1306.53 2018.94,-1306.53 2018.94,4 -4,4"/>
<!-- http://w3id.org/oseg/ont/otrl#OTRL -->
<g id="node1" class="node">
<title>http://w3id.org/oseg/ont/otrl#OTRL</title>
<ellipse fill="none" stroke="#e377c2" cx="1891.9" cy="-663.26" rx="60.62" ry="16.03"/>
<text text-anchor="middle" x="1891.9" y="-659.56" font-family="Times,serif" font-size="14.00">otrl:OTRL</text>
</g>
<!-- http://w3id.org/oseg/ont/otrl#ODRL -->
<g id="node2" class="node">
<title>http://w3id.org/oseg/ont/otrl#ODRL</title>
<ellipse fill="none" stroke="#e377c2" cx="1891.9" cy="-188.26" rx="62.87" ry="16.03"/>
<text text-anchor="middle" x="1891.9" y="-184.56" font-family="Times,serif" font-size="14.00">otrl:ODRL</text>
</g>
<!-- http://www.w3.org/2002/07/owl#Ontology -->
<g id="node3" class="node">
<title>http://www.w3.org/2002/07/owl#Ontology</title>
<ellipse fill="none" stroke="#1f77b4" cx="792.8" cy="-1286.26" rx="77.56" ry="16.03"/>
<text text-anchor="middle" x="792.8" y="-1282.56" font-family="Times,serif" font-size="14.00">owl:Ontology</text>
</g>
<!-- http://www.w3.org/2002/07/owl#DatatypeProperty -->
<g id="node4" class="node">
<title>http://www.w3.org/2002/07/owl#DatatypeProperty</title>
<ellipse fill="none" stroke="#1f77b4" cx="1891.9" cy="-362.26" rx="123.07" ry="16.03"/>
<text text-anchor="middle" x="1891.9" y="-358.56" font-family="Times,serif" font-size="14.00">owl:DatatypeProperty</text>
</g>
<!-- http://spdx.org/rdf/terms#SpdxItem -->
<g id="node5" class="node">
<title>http://spdx.org/rdf/terms#SpdxItem</title>
<ellipse fill="none" stroke="#1f77b4" cx="792.8" cy="-1235.26" rx="87.86" ry="16.03"/>
<text text-anchor="middle" x="792.8" y="-1231.56" font-family="Times,serif" font-size="14.00">spdx:SpdxItem</text>
</g>
<!-- http://spdx.org/licenses/GPL&#45;3.0&#45;or&#45;later -->
<g id="node6" class="node">
<title>http://spdx.org/licenses/GPL&#45;3.0&#45;or&#45;later</title>
<ellipse fill="none" stroke="#e377c2" cx="792.8" cy="-1184.26" rx="108.79" ry="16.03"/>
<text text-anchor="middle" x="792.8" y="-1180.56" font-family="Times,serif" font-size="14.00">spdxl:GPL&#45;3.0&#45;or&#45;...</text>
</g>
<!-- http://www.w3.org/1999/02/22&#45;rdf&#45;syntax&#45;ns#langString -->
<g id="node7" class="node">
<title>http://www.w3.org/1999/02/22&#45;rdf&#45;syntax&#45;ns#langString</title>
<ellipse fill="none" stroke="#e377c2" cx="1891.9" cy="-454.26" rx="83.38" ry="16.03"/>
<text text-anchor="middle" x="1891.9" y="-450.56" font-family="Times,serif" font-size="14.00">rdf:langString</text>
</g>
<!-- http://w3id.org/oseg/ont/oseg&#45;profiles#Iopa -->
<g id="node8" class="node">
<title>http://w3id.org/oseg/ont/oseg&#45;profiles#Iopa</title>
<ellipse fill="none" stroke="#e377c2" cx="792.8" cy="-1133.26" rx="80.72" ry="16.03"/>
<text text-anchor="middle" x="792.8" y="-1129.56" font-family="Times,serif" font-size="14.00">osegprof:Iopa</text>
</g>
<!-- http://w3id.org/oseg/ont/otrl#ODRL4 -->
<g id="node9" class="node">
<title>http://w3id.org/oseg/ont/otrl#ODRL4</title>
<ellipse fill="none" stroke="#e377c2" cx="1387.61" cy="-118.26" rx="69.09" ry="16.03"/>
<text text-anchor="middle" x="1387.61" y="-114.56" font-family="Times,serif" font-size="14.00">otrl:ODRL4</text>
</g>
<!-- http://w3id.org/oseg/ont/otrl#ODRL4&#45;&gt;http://w3id.org/oseg/ont/otrl#ODRL -->
<g id="edge29" class="edge">
<title>http://w3id.org/oseg/ont/otrl#ODRL4&#45;&gt;http://w3id.org/oseg/ont/otrl#ODRL</title>
<path fill="none" stroke="black" d="M1456.92,-119.57C1530.15,-121.94 1649.58,-128.59 1750.87,-147.26 1782.6,-153.11 1817.42,-163.29 1844.4,-172.04"/>
<polygon fill="black" stroke="black" points="1843.37,-175.39 1853.96,-175.19 1845.56,-168.74 1843.37,-175.39"/>
<text text-anchor="middle" x="1670.87" y="-151.06" font-family="Times,serif" font-size="14.00">a</text>
</g>
<!-- http://w3id.org/oseg/ont/otrl#OTRL6 -->
<g id="node10" class="node">
<title>http://w3id.org/oseg/ont/otrl#OTRL6</title>
<ellipse fill="none" stroke="#e377c2" cx="1387.61" cy="-701.26" rx="67.35" ry="16.03"/>
<text text-anchor="middle" x="1387.61" y="-697.56" font-family="Times,serif" font-size="14.00">otrl:OTRL6</text>
</g>
<!-- http://w3id.org/oseg/ont/otrl#OTRL6&#45;&gt;http://w3id.org/oseg/ont/otrl#OTRL -->
<g id="edge25" class="edge">
<title>http://w3id.org/oseg/ont/otrl#OTRL6&#45;&gt;http://w3id.org/oseg/ont/otrl#OTRL</title>
<path fill="none" stroke="black" d="M1453.8,-698.35C1526.38,-694.86 1647.14,-688.33 1750.87,-679.26 1775.61,-677.1 1802.75,-674.14 1826.49,-671.35"/>
<polygon fill="black" stroke="black" points="1826.92,-674.82 1836.44,-670.17 1826.1,-667.87 1826.92,-674.82"/>
<text text-anchor="middle" x="1670.87" y="-695.06" font-family="Times,serif" font-size="14.00">a</text>
</g>
<!-- http://w3id.org/oseg/ont/1.1.0/otrl -->
<g id="node11" class="node">
<title>http://w3id.org/oseg/ont/1.1.0/otrl</title>
<ellipse fill="none" stroke="#e377c2" cx="792.8" cy="-1082.26" rx="50.82" ry="16.03"/>
<text text-anchor="middle" x="792.8" y="-1078.56" font-family="Times,serif" font-size="14.00">ns1:otrl</text>
</g>
<!-- http://w3id.org/oseg/ont/oseg&#45;profiles#martinHaeuer -->
<g id="node12" class="node">
<title>http://w3id.org/oseg/ont/oseg&#45;profiles#martinHaeuer</title>
<ellipse fill="none" stroke="#e377c2" cx="792.8" cy="-1025.26" rx="116.85" ry="16.03"/>
<text text-anchor="middle" x="792.8" y="-1021.56" font-family="Times,serif" font-size="14.00">osegprof:martinHa...</text>
</g>
<!-- http://w3id.org/oseg/ont/otrl#ODRL3 -->
<g id="node13" class="node">
<title>http://w3id.org/oseg/ont/otrl#ODRL3</title>
<ellipse fill="none" stroke="#e377c2" cx="1387.61" cy="-67.26" rx="69.09" ry="16.03"/>
<text text-anchor="middle" x="1387.61" y="-63.56" font-family="Times,serif" font-size="14.00">otrl:ODRL3</text>
</g>
<!-- http://w3id.org/oseg/ont/otrl#ODRL3&#45;&gt;http://w3id.org/oseg/ont/otrl#ODRL -->
<g id="edge8" class="edge">
<title>http://w3id.org/oseg/ont/otrl#ODRL3&#45;&gt;http://w3id.org/oseg/ont/otrl#ODRL</title>
<path fill="none" stroke="black" d="M1457.11,-66.85C1531.28,-68.26 1652.2,-76.02 1750.87,-108.26 1792.17,-121.76 1834.87,-148.3 1862.08,-167.1"/>
<polygon fill="black" stroke="black" points="1860.16,-170.03 1870.35,-172.91 1864.18,-164.3 1860.16,-170.03"/>
<text text-anchor="middle" x="1670.87" y="-112.06" font-family="Times,serif" font-size="14.00">a</text>
</g>
<!-- http://w3id.org/oseg/ont/otrl#ODRL2 -->
<g id="node14" class="node">
<title>http://w3id.org/oseg/ont/otrl#ODRL2</title>
<ellipse fill="none" stroke="#e377c2" cx="1387.61" cy="-16.26" rx="69.09" ry="16.03"/>
<text text-anchor="middle" x="1387.61" y="-12.56" font-family="Times,serif" font-size="14.00">otrl:ODRL2</text>
</g>
<!-- http://w3id.org/oseg/ont/otrl#ODRL2&#45;&gt;http://w3id.org/oseg/ont/otrl#ODRL -->
<g id="edge10" class="edge">
<title>http://w3id.org/oseg/ont/otrl#ODRL2&#45;&gt;http://w3id.org/oseg/ont/otrl#ODRL</title>
<path fill="none" stroke="black" d="M1454.38,-11.64C1529.6,-9.01 1654.75,-12.9 1750.87,-57.26 1803.37,-81.49 1849.08,-133.14 1873.06,-163.85"/>
<polygon fill="black" stroke="black" points="1870.38,-166.1 1879.23,-171.92 1875.94,-161.85 1870.38,-166.1"/>
<text text-anchor="middle" x="1670.87" y="-61.06" font-family="Times,serif" font-size="14.00">a</text>
</g>
<!-- http://w3id.org/oseg/ont/otrl#OTRL2 -->
<g id="node15" class="node">
<title>http://w3id.org/oseg/ont/otrl#OTRL2</title>
<ellipse fill="none" stroke="#e377c2" cx="1387.61" cy="-650.26" rx="67.35" ry="16.03"/>
<text text-anchor="middle" x="1387.61" y="-646.56" font-family="Times,serif" font-size="14.00">otrl:OTRL2</text>
</g>
<!-- http://w3id.org/oseg/ont/otrl#OTRL2&#45;&gt;http://w3id.org/oseg/ont/otrl#OTRL -->
<g id="edge31" class="edge">
<title>http://w3id.org/oseg/ont/otrl#OTRL2&#45;&gt;http://w3id.org/oseg/ont/otrl#OTRL</title>
<path fill="none" stroke="black" d="M1454.53,-651.97C1549.52,-654.43 1724.09,-658.95 1821.16,-661.46"/>
<polygon fill="black" stroke="black" points="1821.08,-664.96 1831.17,-661.72 1821.26,-657.96 1821.08,-664.96"/>
<text text-anchor="middle" x="1670.87" y="-664.06" font-family="Times,serif" font-size="14.00">a</text>
</g>
<!-- http://w3id.org/oseg/ont/otrl#OTRL1 -->
<g id="node16" class="node">
<title>http://w3id.org/oseg/ont/otrl#OTRL1</title>
<ellipse fill="none" stroke="#e377c2" cx="1387.61" cy="-599.26" rx="67.35" ry="16.03"/>
<text text-anchor="middle" x="1387.61" y="-595.56" font-family="Times,serif" font-size="14.00">otrl:OTRL1</text>
</g>
<!-- http://w3id.org/oseg/ont/otrl#OTRL1&#45;&gt;http://w3id.org/oseg/ont/otrl#OTRL -->
<g id="edge13" class="edge">
<title>http://w3id.org/oseg/ont/otrl#OTRL1&#45;&gt;http://w3id.org/oseg/ont/otrl#OTRL</title>
<path fill="none" stroke="black" d="M1451.62,-604.35C1524.04,-610.55 1646.35,-622.1 1750.87,-637.26 1777.97,-641.19 1807.83,-646.59 1832.99,-651.45"/>
<polygon fill="black" stroke="black" points="1832.61,-654.94 1843.1,-653.42 1833.95,-648.07 1832.61,-654.94"/>
<text text-anchor="middle" x="1670.87" y="-641.06" font-family="Times,serif" font-size="14.00">a</text>
</g>
<!-- http://w3id.org/oseg/ont/otrl#OTRL5 -->
<g id="node17" class="node">
<title>http://w3id.org/oseg/ont/otrl#OTRL5</title>
<ellipse fill="none" stroke="#e377c2" cx="1387.61" cy="-548.26" rx="67.35" ry="16.03"/>
<text text-anchor="middle" x="1387.61" y="-544.56" font-family="Times,serif" font-size="14.00">otrl:OTRL5</text>
</g>
<!-- http://w3id.org/oseg/ont/otrl#OTRL5&#45;&gt;http://w3id.org/oseg/ont/otrl#OTRL -->
<g id="edge14" class="edge">
<title>http://w3id.org/oseg/ont/otrl#OTRL5&#45;&gt;http://w3id.org/oseg/ont/otrl#OTRL</title>
<path fill="none" stroke="black" d="M1453.26,-551.73C1526.65,-556.95 1649.36,-569.61 1750.87,-599.26 1788.21,-610.17 1828.36,-629.37 1856.05,-643.9"/>
<polygon fill="black" stroke="black" points="1854.47,-647.02 1864.94,-648.63 1857.76,-640.84 1854.47,-647.02"/>
<text text-anchor="middle" x="1670.87" y="-603.06" font-family="Times,serif" font-size="14.00">a</text>
</g>
<!-- http://w3id.org/oseg/ont/otrl#ODRL3Star -->
<g id="node18" class="node">
<title>http://w3id.org/oseg/ont/otrl#ODRL3Star</title>
<ellipse fill="none" stroke="#e377c2" cx="1387.61" cy="-271.26" rx="90.52" ry="16.03"/>
<text text-anchor="middle" x="1387.61" y="-267.56" font-family="Times,serif" font-size="14.00">otrl:ODRL3Star</text>
</g>
<!-- http://w3id.org/oseg/ont/otrl#ODRL3Star&#45;&gt;http://w3id.org/oseg/ont/otrl#ODRL -->
<g id="edge36" class="edge">
<title>http://w3id.org/oseg/ont/otrl#ODRL3Star&#45;&gt;http://w3id.org/oseg/ont/otrl#ODRL</title>
<path fill="none" stroke="black" d="M1462.1,-261.98C1559.75,-249.57 1723.21,-228.53 1750.87,-223.26 1780.23,-217.67 1812.62,-209.69 1838.86,-202.76"/>
<polygon fill="black" stroke="black" points="1839.83,-206.13 1848.59,-200.17 1838.03,-199.36 1839.83,-206.13"/>
<text text-anchor="middle" x="1670.87" y="-249.06" font-family="Times,serif" font-size="14.00">a</text>
</g>
<!-- http://w3id.org/oseg/ont/otrl -->
<g id="node19" class="node">
<title>http://w3id.org/oseg/ont/otrl</title>
<ellipse fill="none" stroke="#e377c2" cx="191.63" cy="-1076.26" rx="50.82" ry="16.03"/>
<text text-anchor="middle" x="191.63" y="-1072.56" font-family="Times,serif" font-size="14.00">ns2:otrl</text>
</g>
<!-- http://w3id.org/oseg/ont/otrl&#45;&gt;http://www.w3.org/2002/07/owl#Ontology -->
<g id="edge21" class="edge">
<title>http://w3id.org/oseg/ont/otrl&#45;&gt;http://www.w3.org/2002/07/owl#Ontology</title>
<path fill="none" stroke="black" d="M208.21,-1092.14C240.78,-1124.25 319.8,-1196.8 401.25,-1231.26 499.67,-1272.9 623.25,-1284.21 704.73,-1286.7"/>
<polygon fill="black" stroke="black" points="704.85,-1290.2 714.94,-1286.97 705.04,-1283.21 704.85,-1290.2"/>
<text text-anchor="middle" x="481.25" y="-1277.06" font-family="Times,serif" font-size="14.00">a</text>
</g>
<!-- http://w3id.org/oseg/ont/otrl&#45;&gt;http://spdx.org/rdf/terms#SpdxItem -->
<g id="edge24" class="edge">
<title>http://w3id.org/oseg/ont/otrl&#45;&gt;http://spdx.org/rdf/terms#SpdxItem</title>
<path fill="none" stroke="black" d="M217.14,-1090.44C255.29,-1111.9 331.71,-1152.53 401.25,-1175.26 499.89,-1207.5 618.33,-1222.59 698.73,-1229.54"/>
<polygon fill="black" stroke="black" points="698.57,-1233.04 708.83,-1230.39 699.16,-1226.07 698.57,-1233.04"/>
<text text-anchor="middle" x="481.25" y="-1216.06" font-family="Times,serif" font-size="14.00">a</text>
</g>
<!-- http://w3id.org/oseg/ont/otrl&#45;&gt;http://spdx.org/licenses/GPL&#45;3.0&#45;or&#45;later -->
<g id="edge1" class="edge">
<title>http://w3id.org/oseg/ont/otrl&#45;&gt;http://spdx.org/licenses/GPL&#45;3.0&#45;or&#45;later</title>
<path fill="none" stroke="black" d="M229.65,-1087.31C271.14,-1099.39 340.55,-1118.7 401.25,-1131.26 498.76,-1151.45 611.61,-1165.81 690.86,-1174.45"/>
<polygon fill="black" stroke="black" points="690.52,-1177.93 700.83,-1175.53 691.27,-1170.97 690.52,-1177.93"/>
<text text-anchor="middle" x="481.25" y="-1160.06" font-family="Times,serif" font-size="14.00">spdx:licenseDeclared</text>
</g>
<!-- http://w3id.org/oseg/ont/otrl&#45;&gt;http://w3id.org/oseg/ont/oseg&#45;profiles#Iopa -->
<g id="edge3" class="edge">
<title>http://w3id.org/oseg/ont/otrl&#45;&gt;http://w3id.org/oseg/ont/oseg&#45;profiles#Iopa</title>
<path fill="none" stroke="black" d="M240.25,-1081.5C282.52,-1086.1 345.97,-1092.87 401.25,-1098.26 506.94,-1108.57 628.84,-1119.31 707.95,-1126.13"/>
<polygon fill="black" stroke="black" points="708.08,-1129.66 718.35,-1127.03 708.68,-1122.68 708.08,-1129.66"/>
<text text-anchor="middle" x="481.25" y="-1116.06" font-family="Times,serif" font-size="14.00">dcterms:publisher</text>
</g>
<!-- http://w3id.org/oseg/ont/otrl&#45;&gt;http://w3id.org/oseg/ont/1.1.0/otrl -->
<g id="edge6" class="edge">
<title>http://w3id.org/oseg/ont/otrl&#45;&gt;http://w3id.org/oseg/ont/1.1.0/otrl</title>
<path fill="none" stroke="black" d="M242.68,-1076.76C352.3,-1077.86 613.21,-1080.48 731.57,-1081.66"/>
<polygon fill="black" stroke="black" points="731.85,-1085.16 741.89,-1081.76 731.92,-1078.16 731.85,-1085.16"/>
<text text-anchor="middle" x="481.25" y="-1083.06" font-family="Times,serif" font-size="14.00">owl:versionIRI</text>
</g>
<!-- http://w3id.org/oseg/ont/otrl&#45;&gt;http://w3id.org/oseg/ont/oseg&#45;profiles#martinHaeuer -->
<g id="edge7" class="edge">
<title>http://w3id.org/oseg/ont/otrl&#45;&gt;http://w3id.org/oseg/ont/oseg&#45;profiles#martinHaeuer</title>
<path fill="none" stroke="black" d="M240.9,-1072.15C336.32,-1064.03 551.2,-1045.74 682.61,-1034.56"/>
<polygon fill="black" stroke="black" points="683.04,-1038.03 692.71,-1033.7 682.45,-1031.06 683.04,-1038.03"/>
<text text-anchor="middle" x="481.25" y="-1062.06" font-family="Times,serif" font-size="14.00">schema:creator</text>
</g>
<!-- http://w3id.org/oseg/ont/otrl&#45;&gt;http://w3id.org/oseg/ont/oseg&#45;profiles#martinHaeuer -->
<g id="edge12" class="edge">
<title>http://w3id.org/oseg/ont/otrl&#45;&gt;http://w3id.org/oseg/ont/oseg&#45;profiles#martinHaeuer</title>
<path fill="none" stroke="black" d="M228.72,-1064.9C269.95,-1052.56 339.68,-1033.62 401.25,-1026.26 492.75,-1015.33 597.16,-1015.73 674.99,-1018.5"/>
<polygon fill="black" stroke="black" points="675.18,-1022.01 685.31,-1018.89 675.45,-1015.02 675.18,-1022.01"/>
<text text-anchor="middle" x="481.25" y="-1030.06" font-family="Times,serif" font-size="14.00">dcterms:creator</text>
</g>
<!-- http://w3id.org/oseg/ont/oseg&#45;profiles#robinVobruba -->
<g id="node20" class="node">
<title>http://w3id.org/oseg/ont/oseg&#45;profiles#robinVobruba</title>
<ellipse fill="none" stroke="#e377c2" cx="792.8" cy="-962.26" rx="113.69" ry="16.03"/>
<text text-anchor="middle" x="792.8" y="-958.56" font-family="Times,serif" font-size="14.00">osegprof:robinVob...</text>
</g>
<!-- http://w3id.org/oseg/ont/otrl&#45;&gt;http://w3id.org/oseg/ont/oseg&#45;profiles#robinVobruba -->
<g id="edge22" class="edge">
<title>http://w3id.org/oseg/ont/otrl&#45;&gt;http://w3id.org/oseg/ont/oseg&#45;profiles#robinVobruba</title>
<path fill="none" stroke="black" d="M220.55,-1062.87C259.86,-1044.68 334.25,-1012.65 401.25,-997.26 489.51,-977 591.5,-968.34 669.12,-964.71"/>
<polygon fill="black" stroke="black" points="669.59,-968.19 679.43,-964.24 669.28,-961.19 669.59,-968.19"/>
<text text-anchor="middle" x="481.25" y="-1001.06" font-family="Times,serif" font-size="14.00">schema:creator</text>
</g>
<!-- http://w3id.org/oseg/ont/otrl&#45;&gt;http://w3id.org/oseg/ont/oseg&#45;profiles#robinVobruba -->
<g id="edge30" class="edge">
<title>http://w3id.org/oseg/ont/otrl&#45;&gt;http://w3id.org/oseg/ont/oseg&#45;profiles#robinVobruba</title>
<path fill="none" stroke="black" d="M210.62,-1061.03C244.96,-1033.08 323.37,-974.51 401.25,-953.26 506.82,-924.46 634.46,-935.54 714.41,-947.67"/>
<polygon fill="black" stroke="black" points="713.98,-951.15 724.4,-949.23 715.06,-944.23 713.98,-951.15"/>
<text text-anchor="middle" x="481.25" y="-957.06" font-family="Times,serif" font-size="14.00">dcterms:creator</text>
</g>
<!-- http://id.loc.gov/vocabulary/iso639&#45;1/en -->
<g id="node21" class="node">
<title>http://id.loc.gov/vocabulary/iso639&#45;1/en</title>
<ellipse fill="none" stroke="#e377c2" cx="792.8" cy="-905.26" rx="45.01" ry="16.03"/>
<text text-anchor="middle" x="792.8" y="-901.56" font-family="Times,serif" font-size="14.00">ns3:en</text>
</g>
<!-- http://w3id.org/oseg/ont/otrl&#45;&gt;http://id.loc.gov/vocabulary/iso639&#45;1/en -->
<g id="edge23" class="edge">
<title>http://w3id.org/oseg/ont/otrl&#45;&gt;http://id.loc.gov/vocabulary/iso639&#45;1/en</title>
<path fill="none" stroke="black" d="M206.32,-1060.52C237.07,-1026.48 315.65,-946.66 401.25,-916.26 517.24,-875.08 665.03,-886.75 741.25,-897.04"/>
<polygon fill="black" stroke="black" points="741.14,-900.56 751.52,-898.48 742.11,-893.63 741.14,-900.56"/>
<text text-anchor="middle" x="481.25" y="-920.06" font-family="Times,serif" font-size="14.00">dcterms:language</text>
</g>
<!-- http://w3id.org/oseg/ont/otrl#OTRL4 -->
<g id="node22" class="node">
<title>http://w3id.org/oseg/ont/otrl#OTRL4</title>
<ellipse fill="none" stroke="#e377c2" cx="1387.61" cy="-854.26" rx="67.35" ry="16.03"/>
<text text-anchor="middle" x="1387.61" y="-850.56" font-family="Times,serif" font-size="14.00">otrl:OTRL4</text>
</g>
<!-- http://w3id.org/oseg/ont/otrl#OTRL4&#45;&gt;http://w3id.org/oseg/ont/otrl#OTRL -->
<g id="edge42" class="edge">
<title>http://w3id.org/oseg/ont/otrl#OTRL4&#45;&gt;http://w3id.org/oseg/ont/otrl#OTRL</title>
<path fill="none" stroke="black" d="M1451.55,-859.35C1526.86,-862.69 1654.8,-859.53 1750.87,-811.26 1807.16,-782.98 1852.9,-722.43 1875.53,-688.19"/>
<polygon fill="black" stroke="black" points="1878.54,-689.98 1881.03,-679.68 1872.66,-686.17 1878.54,-689.98"/>
<text text-anchor="middle" x="1670.87" y="-858.06" font-family="Times,serif" font-size="14.00">a</text>
</g>
<!-- http://w3id.org/oseg/ont/otrl#exitCriteria -->
<g id="node23" class="node">
<title>http://w3id.org/oseg/ont/otrl#exitCriteria</title>
<ellipse fill="none" stroke="#e377c2" cx="1387.61" cy="-457.26" rx="91.43" ry="16.03"/>
<text text-anchor="middle" x="1387.61" y="-453.56" font-family="Times,serif" font-size="14.00">otrl:exitCriteria</text>
</g>
<!-- http://w3id.org/oseg/ont/otrl#exitCriteria&#45;&gt;http://w3id.org/oseg/ont/otrl#OTRL -->
<g id="edge33" class="edge">
<title>http://w3id.org/oseg/ont/otrl#exitCriteria&#45;&gt;http://w3id.org/oseg/ont/otrl#OTRL</title>
<path fill="none" stroke="black" d="M1435.82,-471.12C1476.69,-482.93 1537.46,-500.04 1590.87,-513.26 1661.53,-530.76 1685.37,-516.51 1750.87,-548.26 1798.53,-571.37 1844.08,-613.83 1869.67,-640.19"/>
<polygon fill="black" stroke="black" points="1867.21,-642.68 1876.65,-647.49 1872.27,-637.84 1867.21,-642.68"/>
<text text-anchor="middle" x="1670.87" y="-552.06" font-family="Times,serif" font-size="14.00">dcam:domainIncludes</text>
</g>
<!-- http://w3id.org/oseg/ont/otrl#exitCriteria&#45;&gt;http://w3id.org/oseg/ont/otrl#ODRL -->
<g id="edge26" class="edge">
<title>http://w3id.org/oseg/ont/otrl#exitCriteria&#45;&gt;http://w3id.org/oseg/ont/otrl#ODRL</title>
<path fill="none" stroke="black" d="M1465.45,-448.57C1501.71,-441 1543.38,-426.81 1572.87,-400.26 1587.96,-386.68 1574.68,-370.52 1590.87,-358.26 1648.04,-314.96 1687.04,-369.97 1750.87,-337.26 1807.13,-308.44 1852.88,-247.61 1875.52,-213.26"/>
<polygon fill="black" stroke="black" points="1878.55,-215.02 1881.03,-204.72 1872.67,-211.23 1878.55,-215.02"/>
<text text-anchor="middle" x="1670.87" y="-362.06" font-family="Times,serif" font-size="14.00">dcam:domainIncludes</text>
</g>
<!-- http://w3id.org/oseg/ont/otrl#exitCriteria&#45;&gt;http://www.w3.org/2002/07/owl#DatatypeProperty -->
<g id="edge35" class="edge">
<title>http://w3id.org/oseg/ont/otrl#exitCriteria&#45;&gt;http://www.w3.org/2002/07/owl#DatatypeProperty</title>
<path fill="none" stroke="black" d="M1465.94,-448.82C1564.07,-437.96 1723.87,-419.73 1750.87,-413.26 1783.25,-405.51 1818.47,-392.66 1845.48,-381.8"/>
<polygon fill="black" stroke="black" points="1847.1,-384.92 1855.04,-377.9 1844.46,-378.44 1847.1,-384.92"/>
<text text-anchor="middle" x="1670.87" y="-438.06" font-family="Times,serif" font-size="14.00">a</text>
</g>
<!-- http://w3id.org/oseg/ont/otrl#exitCriteria&#45;&gt;http://www.w3.org/1999/02/22&#45;rdf&#45;syntax&#45;ns#langString -->
<g id="edge9" class="edge">
<title>http://w3id.org/oseg/ont/otrl#exitCriteria&#45;&gt;http://www.w3.org/1999/02/22&#45;rdf&#45;syntax&#45;ns#langString</title>
<path fill="none" stroke="black" d="M1446.14,-469.81C1517.71,-483.69 1643.55,-502.47 1750.87,-489.26 1779.98,-485.68 1811.75,-478.06 1837.65,-470.84"/>
<polygon fill="black" stroke="black" points="1838.62,-474.2 1847.28,-468.1 1836.7,-467.47 1838.62,-474.2"/>
<text text-anchor="middle" x="1670.87" y="-498.06" font-family="Times,serif" font-size="14.00">range</text>
</g>
<!-- http://w3id.org/oseg/ont/otrl#goal -->
<g id="node24" class="node">
<title>http://w3id.org/oseg/ont/otrl#goal</title>
<ellipse fill="none" stroke="#e377c2" cx="1387.61" cy="-375.26" rx="54.39" ry="16.03"/>
<text text-anchor="middle" x="1387.61" y="-371.56" font-family="Times,serif" font-size="14.00">otrl:goal</text>
</g>
<!-- http://w3id.org/oseg/ont/otrl#goal&#45;&gt;http://w3id.org/oseg/ont/otrl#OTRL -->
<g id="edge34" class="edge">
<title>http://w3id.org/oseg/ont/otrl#goal&#45;&gt;http://w3id.org/oseg/ont/otrl#OTRL</title>
<path fill="none" stroke="black" d="M1435.67,-382.93C1474.65,-390.83 1530.35,-405.83 1572.87,-432.26 1582.75,-438.4 1580.47,-446.04 1590.87,-451.26 1654.87,-483.4 1689.11,-434.02 1750.87,-470.26 1817.8,-509.54 1861.8,-594.79 1880.56,-637.62"/>
<polygon fill="black" stroke="black" points="1877.44,-639.23 1884.59,-647.06 1883.88,-636.49 1877.44,-639.23"/>
<text text-anchor="middle" x="1670.87" y="-474.06" font-family="Times,serif" font-size="14.00">dcam:domainIncludes</text>
</g>
<!-- http://w3id.org/oseg/ont/otrl#goal&#45;&gt;http://w3id.org/oseg/ont/otrl#ODRL -->
<g id="edge27" class="edge">
<title>http://w3id.org/oseg/ont/otrl#goal&#45;&gt;http://w3id.org/oseg/ont/otrl#ODRL</title>
<path fill="none" stroke="black" d="M1418.58,-361.84C1457.62,-344.76 1528.27,-315.21 1590.87,-296.26 1660.54,-275.18 1682.44,-286.08 1750.87,-261.26 1789.31,-247.32 1830.49,-224.85 1858.17,-208.52"/>
<polygon fill="black" stroke="black" points="1860.22,-211.36 1867.01,-203.23 1856.63,-205.35 1860.22,-211.36"/>
<text text-anchor="middle" x="1670.87" y="-300.06" font-family="Times,serif" font-size="14.00">dcam:domainIncludes</text>
</g>
<!-- http://w3id.org/oseg/ont/otrl#goal&#45;&gt;http://www.w3.org/2002/07/owl#DatatypeProperty -->
<g id="edge37" class="edge">
<title>http://w3id.org/oseg/ont/otrl#goal&#45;&gt;http://www.w3.org/2002/07/owl#DatatypeProperty</title>
<path fill="none" stroke="black" d="M1423.87,-363.07C1463.8,-349.96 1531.1,-329.96 1590.87,-322.26 1661.4,-313.18 1680.44,-312.4 1750.87,-322.26 1780.73,-326.44 1813.16,-335.41 1839.29,-343.8"/>
<polygon fill="black" stroke="black" points="1838.38,-347.18 1848.97,-346.97 1840.56,-340.53 1838.38,-347.18"/>
<text text-anchor="middle" x="1670.87" y="-326.06" font-family="Times,serif" font-size="14.00">a</text>
</g>
<!-- http://w3id.org/oseg/ont/otrl#goal&#45;&gt;http://www.w3.org/1999/02/22&#45;rdf&#45;syntax&#45;ns#langString -->
<g id="edge2" class="edge">
<title>http://w3id.org/oseg/ont/otrl#goal&#45;&gt;http://www.w3.org/1999/02/22&#45;rdf&#45;syntax&#45;ns#langString</title>
<path fill="none" stroke="black" d="M1441.84,-373.43C1513.13,-372.15 1643.14,-373.96 1750.87,-398.26 1786.17,-406.23 1824.17,-421.91 1851.66,-434.66"/>
<polygon fill="black" stroke="black" points="1850.39,-437.93 1860.93,-439.03 1853.38,-431.6 1850.39,-437.93"/>
<text text-anchor="middle" x="1670.87" y="-402.06" font-family="Times,serif" font-size="14.00">range</text>
</g>
<!-- http://w3id.org/oseg/ont/otrl#OTRL3 -->
<g id="node25" class="node">
<title>http://w3id.org/oseg/ont/otrl#OTRL3</title>
<ellipse fill="none" stroke="#e377c2" cx="1387.61" cy="-803.26" rx="67.35" ry="16.03"/>
<text text-anchor="middle" x="1387.61" y="-799.56" font-family="Times,serif" font-size="14.00">otrl:OTRL3</text>
</g>
<!-- http://w3id.org/oseg/ont/otrl#OTRL3&#45;&gt;http://w3id.org/oseg/ont/otrl#OTRL -->
<g id="edge39" class="edge">
<title>http://w3id.org/oseg/ont/otrl#OTRL3&#45;&gt;http://w3id.org/oseg/ont/otrl#OTRL</title>
<path fill="none" stroke="black" d="M1454.85,-803.26C1529.15,-801.29 1652.18,-792.02 1750.87,-755.26 1794.41,-739.05 1838.13,-707.26 1864.85,-685.64"/>
<polygon fill="black" stroke="black" points="1867.41,-688.06 1872.91,-679.01 1862.97,-682.66 1867.41,-688.06"/>
<text text-anchor="middle" x="1670.87" y="-796.06" font-family="Times,serif" font-size="14.00">a</text>
</g>
<!-- http://w3id.org/oseg/ont/otrl#Odrl4 -->
<g id="node26" class="node">
<title>http://w3id.org/oseg/ont/otrl#Odrl4</title>
<ellipse fill="none" stroke="#e377c2" cx="792.8" cy="-118.26" rx="61.54" ry="16.03"/>
<text text-anchor="middle" x="792.8" y="-114.56" font-family="Times,serif" font-size="14.00">otrl:Odrl4</text>
</g>
<!-- http://w3id.org/oseg/ont/otrl#Odrl4&#45;&gt;http://w3id.org/oseg/ont/otrl#ODRL4 -->
<g id="edge4" class="edge">
<title>http://w3id.org/oseg/ont/otrl#Odrl4&#45;&gt;http://w3id.org/oseg/ont/otrl#ODRL4</title>
<path fill="none" stroke="black" d="M854.45,-118.26C962.41,-118.26 1187.78,-118.26 1307.66,-118.26"/>
<polygon fill="black" stroke="black" points="1307.86,-121.76 1317.86,-118.26 1307.86,-114.76 1307.86,-121.76"/>
<text text-anchor="middle" x="1104.34" y="-122.06" font-family="Times,serif" font-size="14.00">schema:supersededBy</text>
</g>
<!-- http://w3id.org/oseg/ont/otrl#ODRL1 -->
<g id="node27" class="node">
<title>http://w3id.org/oseg/ont/otrl#ODRL1</title>
<ellipse fill="none" stroke="#e377c2" cx="1387.61" cy="-220.26" rx="69.09" ry="16.03"/>
<text text-anchor="middle" x="1387.61" y="-216.56" font-family="Times,serif" font-size="14.00">otrl:ODRL1</text>
</g>
<!-- http://w3id.org/oseg/ont/otrl#ODRL1&#45;&gt;http://w3id.org/oseg/ont/otrl#ODRL -->
<g id="edge43" class="edge">
<title>http://w3id.org/oseg/ont/otrl#ODRL1&#45;&gt;http://w3id.org/oseg/ont/otrl#ODRL</title>
<path fill="none" stroke="black" d="M1454.79,-216.05C1549.6,-210.01 1723.33,-198.94 1820.45,-192.75"/>
<polygon fill="black" stroke="black" points="1820.71,-196.24 1830.47,-192.11 1820.27,-189.26 1820.71,-196.24"/>
<text text-anchor="middle" x="1670.87" y="-211.06" font-family="Times,serif" font-size="14.00">a</text>
</g>
<!-- http://w3id.org/oseg/ont/otrl#Otrl6 -->
<g id="node28" class="node">
<title>http://w3id.org/oseg/ont/otrl#Otrl6</title>
<ellipse fill="none" stroke="black" cx="792.8" cy="-701.26" rx="189.51" ry="16.03"/>
<text text-anchor="middle" x="792.8" y="-697.56" font-family="Times,serif" font-size="14.00">http://w3id.org/oseg/ont/otrl#Otrl6</text>
</g>
<!-- http://w3id.org/oseg/ont/otrl#Otrl6&#45;&gt;http://w3id.org/oseg/ont/otrl#OTRL6 -->
<g id="edge5" class="edge">
<title>http://w3id.org/oseg/ont/otrl#Otrl6&#45;&gt;http://w3id.org/oseg/ont/otrl#OTRL6</title>
<path fill="none" stroke="black" d="M982.59,-701.26C1093.54,-701.26 1227.77,-701.26 1310.15,-701.26"/>
<polygon fill="black" stroke="black" points="1310.19,-704.76 1320.19,-701.26 1310.19,-697.76 1310.19,-704.76"/>
<text text-anchor="middle" x="1104.34" y="-705.06" font-family="Times,serif" font-size="14.00">schema:supersededBy</text>
</g>
<!-- http://w3id.org/oseg/ont/otrl#Otrl2 -->
<g id="node29" class="node">
<title>http://w3id.org/oseg/ont/otrl#Otrl2</title>
<ellipse fill="none" stroke="black" cx="792.8" cy="-650.26" rx="189.51" ry="16.03"/>
<text text-anchor="middle" x="792.8" y="-646.56" font-family="Times,serif" font-size="14.00">http://w3id.org/oseg/ont/otrl#Otrl2</text>
</g>
<!-- http://w3id.org/oseg/ont/otrl#Otrl2&#45;&gt;http://w3id.org/oseg/ont/otrl#OTRL2 -->
<g id="edge11" class="edge">
<title>http://w3id.org/oseg/ont/otrl#Otrl2&#45;&gt;http://w3id.org/oseg/ont/otrl#OTRL2</title>
<path fill="none" stroke="black" d="M982.59,-650.26C1093.54,-650.26 1227.77,-650.26 1310.15,-650.26"/>
<polygon fill="black" stroke="black" points="1310.19,-653.76 1320.19,-650.26 1310.19,-646.76 1310.19,-653.76"/>
<text text-anchor="middle" x="1104.34" y="-654.06" font-family="Times,serif" font-size="14.00">schema:supersededBy</text>
</g>
<!-- http://w3id.org/oseg/ont/otrl#Odrl3 -->
<g id="node30" class="node">
<title>http://w3id.org/oseg/ont/otrl#Odrl3</title>
<ellipse fill="none" stroke="black" cx="792.8" cy="-67.26" rx="191.75" ry="16.03"/>
<text text-anchor="middle" x="792.8" y="-63.56" font-family="Times,serif" font-size="14.00">http://w3id.org/oseg/ont/otrl#Odrl3</text>
</g>
<!-- http://w3id.org/oseg/ont/otrl#Odrl3&#45;&gt;http://w3id.org/oseg/ont/otrl#ODRL3 -->
<g id="edge15" class="edge">
<title>http://w3id.org/oseg/ont/otrl#Odrl3&#45;&gt;http://w3id.org/oseg/ont/otrl#ODRL3</title>
<path fill="none" stroke="black" d="M984.63,-67.26C1094.18,-67.26 1225.86,-67.26 1307.91,-67.26"/>
<polygon fill="black" stroke="black" points="1308.16,-70.76 1318.16,-67.26 1308.16,-63.76 1308.16,-70.76"/>
<text text-anchor="middle" x="1104.34" y="-71.06" font-family="Times,serif" font-size="14.00">schema:supersededBy</text>
</g>
<!-- http://w3id.org/oseg/ont/otrl#Odrl -->
<g id="node31" class="node">
<title>http://w3id.org/oseg/ont/otrl#Odrl</title>
<ellipse fill="none" stroke="black" cx="1387.61" cy="-169.26" rx="185.02" ry="16.03"/>
<text text-anchor="middle" x="1387.61" y="-165.56" font-family="Times,serif" font-size="14.00">http://w3id.org/oseg/ont/otrl#Odrl</text>
</g>
<!-- http://w3id.org/oseg/ont/otrl#Odrl&#45;&gt;http://w3id.org/oseg/ont/otrl#ODRL -->
<g id="edge16" class="edge">
<title>http://w3id.org/oseg/ont/otrl#Odrl&#45;&gt;http://w3id.org/oseg/ont/otrl#ODRL</title>
<path fill="none" stroke="black" d="M1567.49,-165.33C1625.99,-165.22 1691.25,-166.36 1750.87,-170.26 1776.12,-171.91 1803.79,-175.16 1827.81,-178.45"/>
<polygon fill="black" stroke="black" points="1827.47,-181.94 1837.86,-179.86 1828.44,-175 1827.47,-181.94"/>
<text text-anchor="middle" x="1670.87" y="-174.06" font-family="Times,serif" font-size="14.00">schema:supersededBy</text>
</g>
<!-- http://w3id.org/oseg/ont/otrl#Otrl1 -->
<g id="node32" class="node">
<title>http://w3id.org/oseg/ont/otrl#Otrl1</title>
<ellipse fill="none" stroke="black" cx="792.8" cy="-599.26" rx="189.51" ry="16.03"/>
<text text-anchor="middle" x="792.8" y="-595.56" font-family="Times,serif" font-size="14.00">http://w3id.org/oseg/ont/otrl#Otrl1</text>
</g>
<!-- http://w3id.org/oseg/ont/otrl#Otrl1&#45;&gt;http://w3id.org/oseg/ont/otrl#OTRL1 -->
<g id="edge17" class="edge">
<title>http://w3id.org/oseg/ont/otrl#Otrl1&#45;&gt;http://w3id.org/oseg/ont/otrl#OTRL1</title>
<path fill="none" stroke="black" d="M982.59,-599.26C1093.54,-599.26 1227.77,-599.26 1310.15,-599.26"/>
<polygon fill="black" stroke="black" points="1310.19,-602.76 1320.19,-599.26 1310.19,-595.76 1310.19,-602.76"/>
<text text-anchor="middle" x="1104.34" y="-603.06" font-family="Times,serif" font-size="14.00">schema:supersededBy</text>
</g>
<!-- http://w3id.org/oseg/ont/otrl#Odrl2 -->
<g id="node33" class="node">
<title>http://w3id.org/oseg/ont/otrl#Odrl2</title>
<ellipse fill="none" stroke="black" cx="792.8" cy="-16.26" rx="191.75" ry="16.03"/>
<text text-anchor="middle" x="792.8" y="-12.56" font-family="Times,serif" font-size="14.00">http://w3id.org/oseg/ont/otrl#Odrl2</text>
</g>
<!-- http://w3id.org/oseg/ont/otrl#Odrl2&#45;&gt;http://w3id.org/oseg/ont/otrl#ODRL2 -->
<g id="edge18" class="edge">
<title>http://w3id.org/oseg/ont/otrl#Odrl2&#45;&gt;http://w3id.org/oseg/ont/otrl#ODRL2</title>
<path fill="none" stroke="black" d="M984.63,-16.26C1094.18,-16.26 1225.86,-16.26 1307.91,-16.26"/>
<polygon fill="black" stroke="black" points="1308.16,-19.76 1318.16,-16.26 1308.16,-12.76 1308.16,-19.76"/>
<text text-anchor="middle" x="1104.34" y="-20.06" font-family="Times,serif" font-size="14.00">schema:supersededBy</text>
</g>
<!-- http://w3id.org/oseg/ont/otrl#Otrl5 -->
<g id="node34" class="node">
<title>http://w3id.org/oseg/ont/otrl#Otrl5</title>
<ellipse fill="none" stroke="black" cx="792.8" cy="-548.26" rx="189.51" ry="16.03"/>
<text text-anchor="middle" x="792.8" y="-544.56" font-family="Times,serif" font-size="14.00">http://w3id.org/oseg/ont/otrl#Otrl5</text>
</g>
<!-- http://w3id.org/oseg/ont/otrl#Otrl5&#45;&gt;http://w3id.org/oseg/ont/otrl#OTRL5 -->
<g id="edge19" class="edge">
<title>http://w3id.org/oseg/ont/otrl#Otrl5&#45;&gt;http://w3id.org/oseg/ont/otrl#OTRL5</title>
<path fill="none" stroke="black" d="M982.59,-548.26C1093.54,-548.26 1227.77,-548.26 1310.15,-548.26"/>
<polygon fill="black" stroke="black" points="1310.19,-551.76 1320.19,-548.26 1310.19,-544.76 1310.19,-551.76"/>
<text text-anchor="middle" x="1104.34" y="-552.06" font-family="Times,serif" font-size="14.00">schema:supersededBy</text>
</g>
<!-- http://w3id.org/oseg/ont/otrl#Odrl3Star -->
<g id="node35" class="node">
<title>http://w3id.org/oseg/ont/otrl#Odrl3Star</title>
<ellipse fill="none" stroke="black" cx="792.8" cy="-271.26" rx="213.59" ry="16.03"/>
<text text-anchor="middle" x="792.8" y="-267.56" font-family="Times,serif" font-size="14.00">http://w3id.org/oseg/ont/otrl#Odrl3Star</text>
</g>
<!-- http://w3id.org/oseg/ont/otrl#Odrl3Star&#45;&gt;http://w3id.org/oseg/ont/otrl#ODRL3Star -->
<g id="edge20" class="edge">
<title>http://w3id.org/oseg/ont/otrl#Odrl3Star&#45;&gt;http://w3id.org/oseg/ont/otrl#ODRL3Star</title>
<path fill="none" stroke="black" d="M1006.56,-271.26C1102.06,-271.26 1210.18,-271.26 1286.62,-271.26"/>
<polygon fill="black" stroke="black" points="1286.72,-274.76 1296.72,-271.26 1286.72,-267.76 1286.72,-274.76"/>
<text text-anchor="middle" x="1104.34" y="-275.06" font-family="Times,serif" font-size="14.00">schema:supersededBy</text>
</g>
<!-- http://w3id.org/oseg/ont/otrl#Otrl4 -->
<g id="node36" class="node">
<title>http://w3id.org/oseg/ont/otrl#Otrl4</title>
<ellipse fill="none" stroke="black" cx="792.8" cy="-854.26" rx="189.51" ry="16.03"/>
<text text-anchor="middle" x="792.8" y="-850.56" font-family="Times,serif" font-size="14.00">http://w3id.org/oseg/ont/otrl#Otrl4</text>
</g>
<!-- http://w3id.org/oseg/ont/otrl#Otrl4&#45;&gt;http://w3id.org/oseg/ont/otrl#OTRL4 -->
<g id="edge28" class="edge">
<title>http://w3id.org/oseg/ont/otrl#Otrl4&#45;&gt;http://w3id.org/oseg/ont/otrl#OTRL4</title>
<path fill="none" stroke="black" d="M982.59,-854.26C1093.54,-854.26 1227.77,-854.26 1310.15,-854.26"/>
<polygon fill="black" stroke="black" points="1310.19,-857.76 1320.19,-854.26 1310.19,-850.76 1310.19,-857.76"/>
<text text-anchor="middle" x="1104.34" y="-858.06" font-family="Times,serif" font-size="14.00">schema:supersededBy</text>
</g>
<!-- http://w3id.org/oseg/ont/otrl#Otrl -->
<g id="node37" class="node">
<title>http://w3id.org/oseg/ont/otrl#Otrl</title>
<ellipse fill="none" stroke="black" cx="1387.61" cy="-752.26" rx="183.28" ry="16.03"/>
<text text-anchor="middle" x="1387.61" y="-748.56" font-family="Times,serif" font-size="14.00">http://w3id.org/oseg/ont/otrl#Otrl</text>
</g>
<!-- http://w3id.org/oseg/ont/otrl#Otrl&#45;&gt;http://w3id.org/oseg/ont/otrl#OTRL -->
<g id="edge32" class="edge">
<title>http://w3id.org/oseg/ont/otrl#Otrl&#45;&gt;http://w3id.org/oseg/ont/otrl#OTRL</title>
<path fill="none" stroke="black" d="M1533.88,-742.39C1600.53,-736.08 1680.27,-726.02 1750.87,-710.26 1783.97,-702.87 1820.25,-690.58 1847.58,-680.41"/>
<polygon fill="black" stroke="black" points="1849.1,-683.58 1857.23,-676.78 1846.63,-677.03 1849.1,-683.58"/>
<text text-anchor="middle" x="1670.87" y="-740.06" font-family="Times,serif" font-size="14.00">schema:supersededBy</text>
</g>
<!-- http://w3id.org/oseg/ont/otrl#Otrl3 -->
<g id="node38" class="node">
<title>http://w3id.org/oseg/ont/otrl#Otrl3</title>
<ellipse fill="none" stroke="black" cx="792.8" cy="-803.26" rx="189.51" ry="16.03"/>
<text text-anchor="middle" x="792.8" y="-799.56" font-family="Times,serif" font-size="14.00">http://w3id.org/oseg/ont/otrl#Otrl3</text>
</g>
<!-- http://w3id.org/oseg/ont/otrl#Otrl3&#45;&gt;http://w3id.org/oseg/ont/otrl#OTRL3 -->
<g id="edge38" class="edge">
<title>http://w3id.org/oseg/ont/otrl#Otrl3&#45;&gt;http://w3id.org/oseg/ont/otrl#OTRL3</title>
<path fill="none" stroke="black" d="M982.59,-803.26C1093.54,-803.26 1227.77,-803.26 1310.15,-803.26"/>
<polygon fill="black" stroke="black" points="1310.19,-806.76 1320.19,-803.26 1310.19,-799.76 1310.19,-806.76"/>
<text text-anchor="middle" x="1104.34" y="-807.06" font-family="Times,serif" font-size="14.00">schema:supersededBy</text>
</g>
<!-- http://w3id.org/oseg/ont/otrl#Odrl5 -->
<g id="node39" class="node">
<title>http://w3id.org/oseg/ont/otrl#Odrl5</title>
<ellipse fill="none" stroke="black" cx="191.63" cy="-118.26" rx="191.75" ry="16.03"/>
<text text-anchor="middle" x="191.63" y="-114.56" font-family="Times,serif" font-size="14.00">http://w3id.org/oseg/ont/otrl#Odrl5</text>
</g>
<!-- http://w3id.org/oseg/ont/otrl#Odrl5&#45;&gt;http://w3id.org/oseg/ont/otrl#Odrl4 -->
<g id="edge40" class="edge">
<title>http://w3id.org/oseg/ont/otrl#Odrl5&#45;&gt;http://w3id.org/oseg/ont/otrl#Odrl4</title>
<path fill="none" stroke="black" d="M383.44,-118.26C498.54,-118.26 638.43,-118.26 721.01,-118.26"/>
<polygon fill="black" stroke="black" points="721.03,-121.76 731.03,-118.26 721.03,-114.76 721.03,-121.76"/>
<text text-anchor="middle" x="481.25" y="-122.06" font-family="Times,serif" font-size="14.00">schema:supersededBy</text>
</g>
<!-- http://w3id.org/oseg/ont/otrl#Odrl1 -->
<g id="node40" class="node">
<title>http://w3id.org/oseg/ont/otrl#Odrl1</title>
<ellipse fill="none" stroke="black" cx="792.8" cy="-220.26" rx="191.75" ry="16.03"/>
<text text-anchor="middle" x="792.8" y="-216.56" font-family="Times,serif" font-size="14.00">http://w3id.org/oseg/ont/otrl#Odrl1</text>
</g>
<!-- http://w3id.org/oseg/ont/otrl#Odrl1&#45;&gt;http://w3id.org/oseg/ont/otrl#ODRL1 -->
<g id="edge41" class="edge">
<title>http://w3id.org/oseg/ont/otrl#Odrl1&#45;&gt;http://w3id.org/oseg/ont/otrl#ODRL1</title>
<path fill="none" stroke="black" d="M984.63,-220.26C1094.18,-220.26 1225.86,-220.26 1307.91,-220.26"/>
<polygon fill="black" stroke="black" points="1308.16,-223.76 1318.16,-220.26 1308.16,-216.76 1308.16,-223.76"/>
<text text-anchor="middle" x="1104.34" y="-224.06" font-family="Times,serif" font-size="14.00">schema:supersededBy</text>
</g>
</g>
</svg>
