<?xml version="1.0" encoding="UTF-8" standalone="no"?>
<!DOCTYPE svg PUBLIC "-//W3C//DTD SVG 1.1//EN"
 "http://www.w3.org/Graphics/SVG/1.1/DTD/svg11.dtd">
<!-- Generated by graphviz version 2.43.0 (0)
 -->
<!-- Title: G Pages: 1 -->
<svg width="2065pt" height="1357pt"
 viewBox="0.00 0.00 2064.64 1356.53" xmlns="http://www.w3.org/2000/svg" xmlns:xlink="http://www.w3.org/1999/xlink">
<g id="graph0" class="graph" transform="scale(1 1) rotate(0) translate(4 1352.53)">
<title>G</title>
<polygon fill="white" stroke="transparent" points="-4,4 -4,-1352.53 2060.64,-1352.53 2060.64,4 -4,4"/>
<!-- https://w3id.org/oseg/ont/otrl#ODRL1 -->
<g id="node1" class="node">
<title>https://w3id.org/oseg/ont/otrl#ODRL1</title>
<ellipse fill="none" stroke="#e377c2" cx="1412.36" cy="-866.26" rx="69.09" ry="16.03"/>
<text text-anchor="middle" x="1412.36" y="-862.56" font-family="Times,serif" font-size="14.00">otrl:ODRL1</text>
</g>
<!-- https://w3id.org/oseg/ont/otrl#ODRL -->
<g id="node16" class="node">
<title>https://w3id.org/oseg/ont/otrl#ODRL</title>
<ellipse fill="none" stroke="#e377c2" cx="1933.6" cy="-774.26" rx="62.87" ry="16.03"/>
<text text-anchor="middle" x="1933.6" y="-770.56" font-family="Times,serif" font-size="14.00">otrl:ODRL</text>
</g>
<!-- https://w3id.org/oseg/ont/otrl#ODRL1&#45;&gt;https://w3id.org/oseg/ont/otrl#ODRL -->
<g id="edge2" class="edge">
<title>https://w3id.org/oseg/ont/otrl#ODRL1&#45;&gt;https://w3id.org/oseg/ont/otrl#ODRL</title>
<path fill="none" stroke="black" d="M1473.76,-858.66C1548.86,-848.8 1680.78,-830.12 1792.57,-807.26 1820.87,-801.48 1852.18,-794.18 1878,-787.93"/>
<polygon fill="black" stroke="black" points="1879.09,-791.26 1887.98,-785.49 1877.43,-784.46 1879.09,-791.26"/>
</g>
<!-- https://w3id.org/oseg/ont/otrl#OTRL1 -->
<g id="node2" class="node">
<title>https://w3id.org/oseg/ont/otrl#OTRL1</title>
<ellipse fill="none" stroke="#e377c2" cx="1412.36" cy="-111.26" rx="67.35" ry="16.03"/>
<text text-anchor="middle" x="1412.36" y="-107.56" font-family="Times,serif" font-size="14.00">otrl:OTRL1</text>
</g>
<!-- https://w3id.org/oseg/ont/otrl#OTRL -->
<g id="node7" class="node">
<title>https://w3id.org/oseg/ont/otrl#OTRL</title>
<ellipse fill="none" stroke="#e377c2" cx="1933.6" cy="-306.26" rx="60.62" ry="16.03"/>
<text text-anchor="middle" x="1933.6" y="-302.56" font-family="Times,serif" font-size="14.00">otrl:OTRL</text>
</g>
<!-- https://w3id.org/oseg/ont/otrl#OTRL1&#45;&gt;https://w3id.org/oseg/ont/otrl#OTRL -->
<g id="edge23" class="edge">
<title>https://w3id.org/oseg/ont/otrl#OTRL1&#45;&gt;https://w3id.org/oseg/ont/otrl#OTRL</title>
<path fill="none" stroke="black" d="M1462.98,-122.03C1536.83,-138.99 1679.13,-175.34 1792.57,-226.26 1831.29,-243.65 1873.26,-268.5 1901.05,-285.87"/>
<polygon fill="black" stroke="black" points="1899.22,-288.86 1909.55,-291.23 1902.96,-282.94 1899.22,-288.86"/>
</g>
<!-- https://w3id.org/oseg/ont/otrl#OTRL5 -->
<g id="node3" class="node">
<title>https://w3id.org/oseg/ont/otrl#OTRL5</title>
<ellipse fill="none" stroke="#e377c2" cx="1412.36" cy="-352.26" rx="67.35" ry="16.03"/>
<text text-anchor="middle" x="1412.36" y="-348.56" font-family="Times,serif" font-size="14.00">otrl:OTRL5</text>
</g>
<!-- https://w3id.org/oseg/ont/otrl#OTRL5&#45;&gt;https://w3id.org/oseg/ont/otrl#OTRL -->
<g id="edge45" class="edge">
<title>https://w3id.org/oseg/ont/otrl#OTRL5&#45;&gt;https://w3id.org/oseg/ont/otrl#OTRL</title>
<path fill="none" stroke="black" d="M1475.46,-346.49C1516.62,-342.68 1571.81,-337.61 1620.57,-333.26 1704.83,-325.75 1801.93,-317.4 1865.14,-312"/>
<polygon fill="black" stroke="black" points="1865.7,-315.47 1875.37,-311.13 1865.11,-308.49 1865.7,-315.47"/>
</g>
<!-- http://spdx.org/rdf/terms#File -->
<g id="node4" class="node">
<title>http://spdx.org/rdf/terms#File</title>
<ellipse fill="none" stroke="#1f77b4" cx="807.65" cy="-1332.26" rx="62.45" ry="16.03"/>
<text text-anchor="middle" x="807.65" y="-1328.56" font-family="Times,serif" font-size="14.00">spdxt:File</text>
</g>
<!-- https://w3id.org/oseg/ont/otrl#OTRL2 -->
<g id="node5" class="node">
<title>https://w3id.org/oseg/ont/otrl#OTRL2</title>
<ellipse fill="none" stroke="#e377c2" cx="1412.36" cy="-301.26" rx="67.35" ry="16.03"/>
<text text-anchor="middle" x="1412.36" y="-297.56" font-family="Times,serif" font-size="14.00">otrl:OTRL2</text>
</g>
<!-- https://w3id.org/oseg/ont/otrl#OTRL2&#45;&gt;https://w3id.org/oseg/ont/otrl#OTRL -->
<g id="edge57" class="edge">
<title>https://w3id.org/oseg/ont/otrl#OTRL2&#45;&gt;https://w3id.org/oseg/ont/otrl#OTRL</title>
<path fill="none" stroke="black" d="M1479.65,-301.9C1578.11,-302.85 1762.16,-304.62 1862.68,-305.59"/>
<polygon fill="black" stroke="black" points="1862.7,-309.09 1872.73,-305.69 1862.77,-302.09 1862.7,-309.09"/>
</g>
<!-- https://w3id.org/oseg/ont/otrl#OTRL3 -->
<g id="node6" class="node">
<title>https://w3id.org/oseg/ont/otrl#OTRL3</title>
<ellipse fill="none" stroke="#e377c2" cx="1412.36" cy="-250.26" rx="67.35" ry="16.03"/>
<text text-anchor="middle" x="1412.36" y="-246.56" font-family="Times,serif" font-size="14.00">otrl:OTRL3</text>
</g>
<!-- https://w3id.org/oseg/ont/otrl#OTRL3&#45;&gt;https://w3id.org/oseg/ont/otrl#OTRL -->
<g id="edge47" class="edge">
<title>https://w3id.org/oseg/ont/otrl#OTRL3&#45;&gt;https://w3id.org/oseg/ont/otrl#OTRL</title>
<path fill="none" stroke="black" d="M1473.94,-256.8C1572.09,-267.38 1765.1,-288.2 1866.62,-299.15"/>
<polygon fill="black" stroke="black" points="1866.43,-302.65 1876.75,-300.24 1867.18,-295.69 1866.43,-302.65"/>
</g>
<!-- http://www.w3.org/2002/07/owl#Ontology -->
<g id="node8" class="node">
<title>http://www.w3.org/2002/07/owl#Ontology</title>
<ellipse fill="none" stroke="#1f77b4" cx="807.65" cy="-1281.26" rx="77.56" ry="16.03"/>
<text text-anchor="middle" x="807.65" y="-1277.56" font-family="Times,serif" font-size="14.00">owl:Ontology</text>
</g>
<!-- https://w3id.org/oseg/ont/otrl#ODRL3 -->
<g id="node9" class="node">
<title>https://w3id.org/oseg/ont/otrl#ODRL3</title>
<ellipse fill="none" stroke="#e377c2" cx="1412.36" cy="-815.26" rx="69.09" ry="16.03"/>
<text text-anchor="middle" x="1412.36" y="-811.56" font-family="Times,serif" font-size="14.00">otrl:ODRL3</text>
</g>
<!-- https://w3id.org/oseg/ont/otrl#ODRL3&#45;&gt;https://w3id.org/oseg/ont/otrl#ODRL -->
<g id="edge44" class="edge">
<title>https://w3id.org/oseg/ont/otrl#ODRL3&#45;&gt;https://w3id.org/oseg/ont/otrl#ODRL</title>
<path fill="none" stroke="black" d="M1478.33,-810.13C1576.59,-802.37 1762.21,-787.72 1863.09,-779.75"/>
<polygon fill="black" stroke="black" points="1863.48,-783.23 1873.18,-778.96 1862.93,-776.25 1863.48,-783.23"/>
</g>
<!-- https://w3id.org/oseg/ont/otrl#ODRL3Star -->
<g id="node10" class="node">
<title>https://w3id.org/oseg/ont/otrl#ODRL3Star</title>
<ellipse fill="none" stroke="#e377c2" cx="1412.36" cy="-764.26" rx="90.52" ry="16.03"/>
<text text-anchor="middle" x="1412.36" y="-760.56" font-family="Times,serif" font-size="14.00">otrl:ODRL3Star</text>
</g>
<!-- https://w3id.org/oseg/ont/otrl#ODRL3Star&#45;&gt;https://w3id.org/oseg/ont/otrl#ODRL -->
<g id="edge25" class="edge">
<title>https://w3id.org/oseg/ont/otrl#ODRL3Star&#45;&gt;https://w3id.org/oseg/ont/otrl#ODRL</title>
<path fill="none" stroke="black" d="M1502.62,-765.98C1603.79,-767.93 1766.76,-771.07 1860.32,-772.87"/>
<polygon fill="black" stroke="black" points="1860.47,-776.37 1870.54,-773.07 1860.61,-769.38 1860.47,-776.37"/>
</g>
<!-- http://www.w3.org/2002/07/owl#DatatypeProperty -->
<g id="node11" class="node">
<title>http://www.w3.org/2002/07/owl#DatatypeProperty</title>
<ellipse fill="none" stroke="#1f77b4" cx="1933.6" cy="-599.26" rx="123.07" ry="16.03"/>
<text text-anchor="middle" x="1933.6" y="-595.56" font-family="Times,serif" font-size="14.00">owl:DatatypeProperty</text>
</g>
<!-- https://w3id.org/oseg/ont/otrl#ODRL2 -->
<g id="node12" class="node">
<title>https://w3id.org/oseg/ont/otrl#ODRL2</title>
<ellipse fill="none" stroke="#e377c2" cx="1412.36" cy="-701.26" rx="69.09" ry="16.03"/>
<text text-anchor="middle" x="1412.36" y="-697.56" font-family="Times,serif" font-size="14.00">otrl:ODRL2</text>
</g>
<!-- https://w3id.org/oseg/ont/otrl#ODRL2&#45;&gt;https://w3id.org/oseg/ont/otrl#ODRL -->
<g id="edge48" class="edge">
<title>https://w3id.org/oseg/ont/otrl#ODRL2&#45;&gt;https://w3id.org/oseg/ont/otrl#ODRL</title>
<path fill="none" stroke="black" d="M1468.67,-710.93C1510.36,-718.07 1568.97,-727.81 1620.57,-735.26 1704.76,-747.43 1802.07,-759.23 1865.34,-766.61"/>
<polygon fill="black" stroke="black" points="1865.24,-770.12 1875.58,-767.8 1866.05,-763.17 1865.24,-770.12"/>
</g>
<!-- https://w3id.org/oseg/ont/otrl#OTRL4 -->
<g id="node13" class="node">
<title>https://w3id.org/oseg/ont/otrl#OTRL4</title>
<ellipse fill="none" stroke="#e377c2" cx="1412.36" cy="-187.26" rx="67.35" ry="16.03"/>
<text text-anchor="middle" x="1412.36" y="-183.56" font-family="Times,serif" font-size="14.00">otrl:OTRL4</text>
</g>
<!-- https://w3id.org/oseg/ont/otrl#OTRL4&#45;&gt;https://w3id.org/oseg/ont/otrl#OTRL -->
<g id="edge49" class="edge">
<title>https://w3id.org/oseg/ont/otrl#OTRL4&#45;&gt;https://w3id.org/oseg/ont/otrl#OTRL</title>
<path fill="none" stroke="black" d="M1465.64,-197.34C1503.68,-204.77 1556.39,-215.28 1602.57,-225.26 1687.29,-243.58 1708.43,-248.41 1792.57,-269.26 1821.78,-276.5 1854.3,-285.06 1880.63,-292.13"/>
<polygon fill="black" stroke="black" points="1879.84,-295.54 1890.41,-294.75 1881.66,-288.78 1879.84,-295.54"/>
</g>
<!-- https://w3id.org/oseg/ont/otrl#OTRL6 -->
<g id="node14" class="node">
<title>https://w3id.org/oseg/ont/otrl#OTRL6</title>
<ellipse fill="none" stroke="#e377c2" cx="1412.36" cy="-35.26" rx="67.35" ry="16.03"/>
<text text-anchor="middle" x="1412.36" y="-31.56" font-family="Times,serif" font-size="14.00">otrl:OTRL6</text>
</g>
<!-- https://w3id.org/oseg/ont/otrl#OTRL6&#45;&gt;https://w3id.org/oseg/ont/otrl#OTRL -->
<g id="edge10" class="edge">
<title>https://w3id.org/oseg/ont/otrl#OTRL6&#45;&gt;https://w3id.org/oseg/ont/otrl#OTRL</title>
<path fill="none" stroke="black" d="M1468.25,-44.37C1545.82,-59.22 1689.54,-94.21 1792.57,-163.26 1842.7,-196.86 1889.26,-250.69 1914.02,-281.83"/>
<polygon fill="black" stroke="black" points="1911.49,-284.27 1920.41,-289.98 1917,-279.95 1911.49,-284.27"/>
</g>
<!-- https://w3id.org/oseg/ont/otrl#ODRL4 -->
<g id="node15" class="node">
<title>https://w3id.org/oseg/ont/otrl#ODRL4</title>
<ellipse fill="none" stroke="#e377c2" cx="1412.36" cy="-631.26" rx="69.09" ry="16.03"/>
<text text-anchor="middle" x="1412.36" y="-627.56" font-family="Times,serif" font-size="14.00">otrl:ODRL4</text>
</g>
<!-- https://w3id.org/oseg/ont/otrl#ODRL4&#45;&gt;https://w3id.org/oseg/ont/otrl#ODRL -->
<g id="edge15" class="edge">
<title>https://w3id.org/oseg/ont/otrl#ODRL4&#45;&gt;https://w3id.org/oseg/ont/otrl#ODRL</title>
<path fill="none" stroke="black" d="M1480.97,-633.76C1519.98,-638.3 1567.99,-649.5 1602.57,-676.26 1616.09,-686.73 1606.68,-700.29 1620.57,-710.26 1683.48,-755.43 1716.76,-722.38 1792.57,-738.26 1821.98,-744.42 1854.5,-752.7 1880.8,-759.76"/>
<polygon fill="black" stroke="black" points="1879.99,-763.16 1890.55,-762.4 1881.81,-756.4 1879.99,-763.16"/>
</g>
<!-- https://w3id.org/oseg/ont/oseg&#45;profiles#martinHaeuer -->
<g id="node17" class="node">
<title>https://w3id.org/oseg/ont/oseg&#45;profiles#martinHaeuer</title>
<ellipse fill="none" stroke="#e377c2" cx="807.65" cy="-1224.26" rx="116.85" ry="16.03"/>
<text text-anchor="middle" x="807.65" y="-1220.56" font-family="Times,serif" font-size="14.00">osegprof:martinHa...</text>
</g>
<!-- https://spdx.org/licenses/GPL&#45;3.0&#45;or&#45;later -->
<g id="node18" class="node">
<title>https://spdx.org/licenses/GPL&#45;3.0&#45;or&#45;later</title>
<ellipse fill="none" stroke="#e377c2" cx="807.65" cy="-1167.26" rx="108.79" ry="16.03"/>
<text text-anchor="middle" x="807.65" y="-1163.56" font-family="Times,serif" font-size="14.00">spdxl:GPL&#45;3.0&#45;or&#45;...</text>
</g>
<!-- https://w3id.org/oseg/ont/oseg&#45;profiles#robinVobruba -->
<g id="node19" class="node">
<title>https://w3id.org/oseg/ont/oseg&#45;profiles#robinVobruba</title>
<ellipse fill="none" stroke="#e377c2" cx="807.65" cy="-1113.26" rx="113.69" ry="16.03"/>
<text text-anchor="middle" x="807.65" y="-1109.56" font-family="Times,serif" font-size="14.00">osegprof:robinVob...</text>
</g>
<!-- https://w3id.org/oseg/ont/otrl -->
<g id="node20" class="node">
<title>https://w3id.org/oseg/ont/otrl</title>
<ellipse fill="none" stroke="#e377c2" cx="196.58" cy="-1148.26" rx="50.82" ry="16.03"/>
<text text-anchor="middle" x="196.58" y="-1144.56" font-family="Times,serif" font-size="14.00">ns1:otrl</text>
</g>
<!-- https://w3id.org/oseg/ont/otrl&#45;&gt;http://spdx.org/rdf/terms#File -->
<g id="edge31" class="edge">
<title>https://w3id.org/oseg/ont/otrl&#45;&gt;http://spdx.org/rdf/terms#File</title>
<path fill="none" stroke="black" d="M213.55,-1163.99C246.92,-1195.73 327.87,-1266.99 411.15,-1297.26 520.03,-1336.85 656.4,-1339.54 737.25,-1336.72"/>
<polygon fill="black" stroke="black" points="737.45,-1340.22 747.31,-1336.33 737.18,-1333.22 737.45,-1340.22"/>
<text text-anchor="middle" x="491.15" y="-1335.06" font-family="Times,serif" font-size="14.00">a</text>
</g>
<!-- https://w3id.org/oseg/ont/otrl&#45;&gt;http://www.w3.org/2002/07/owl#Ontology -->
<g id="edge16" class="edge">
<title>https://w3id.org/oseg/ont/otrl&#45;&gt;http://www.w3.org/2002/07/owl#Ontology</title>
<path fill="none" stroke="black" d="M219.8,-1162.84C257.41,-1186.63 336.76,-1233.17 411.15,-1253.26 515.19,-1281.36 639.89,-1285.57 721.07,-1284.59"/>
<polygon fill="black" stroke="black" points="721.3,-1288.09 731.24,-1284.44 721.19,-1281.09 721.3,-1288.09"/>
<text text-anchor="middle" x="491.15" y="-1282.06" font-family="Times,serif" font-size="14.00">a</text>
</g>
<!-- https://w3id.org/oseg/ont/otrl&#45;&gt;https://w3id.org/oseg/ont/oseg&#45;profiles#martinHaeuer -->
<g id="edge1" class="edge">
<title>https://w3id.org/oseg/ont/otrl&#45;&gt;https://w3id.org/oseg/ont/oseg&#45;profiles#martinHaeuer</title>
<path fill="none" stroke="black" d="M226.5,-1161.51C266.85,-1179.19 342.78,-1209.63 411.15,-1221.26 506.25,-1237.44 616.09,-1236.76 695.84,-1232.86"/>
<polygon fill="black" stroke="black" points="696.1,-1236.35 705.9,-1232.34 695.74,-1229.36 696.1,-1236.35"/>
<text text-anchor="middle" x="491.15" y="-1238.06" font-family="Times,serif" font-size="14.00">schema:creator</text>
</g>
<!-- https://w3id.org/oseg/ont/otrl&#45;&gt;https://w3id.org/oseg/ont/oseg&#45;profiles#martinHaeuer -->
<g id="edge39" class="edge">
<title>https://w3id.org/oseg/ont/otrl&#45;&gt;https://w3id.org/oseg/ont/oseg&#45;profiles#martinHaeuer</title>
<path fill="none" stroke="black" d="M243.36,-1155.02C286.58,-1161.31 353.22,-1170.83 411.15,-1178.26 511.09,-1191.09 625.45,-1204.23 705.4,-1213.16"/>
<polygon fill="black" stroke="black" points="705.14,-1216.65 715.46,-1214.28 705.91,-1209.69 705.14,-1216.65"/>
<text text-anchor="middle" x="491.15" y="-1200.06" font-family="Times,serif" font-size="14.00">dcterms:creator</text>
</g>
<!-- https://w3id.org/oseg/ont/otrl&#45;&gt;https://spdx.org/licenses/GPL&#45;3.0&#45;or&#45;later -->
<g id="edge3" class="edge">
<title>https://w3id.org/oseg/ont/otrl&#45;&gt;https://spdx.org/licenses/GPL&#45;3.0&#45;or&#45;later</title>
<path fill="none" stroke="black" d="M247.42,-1149.82C343.57,-1152.82 556.95,-1159.47 690.57,-1163.64"/>
<polygon fill="black" stroke="black" points="690.74,-1167.15 700.85,-1163.96 690.96,-1160.15 690.74,-1167.15"/>
<text text-anchor="middle" x="491.15" y="-1163.06" font-family="Times,serif" font-size="14.00">spdxt:licenseDeclared</text>
</g>
<!-- https://w3id.org/oseg/ont/otrl&#45;&gt;https://w3id.org/oseg/ont/oseg&#45;profiles#robinVobruba -->
<g id="edge9" class="edge">
<title>https://w3id.org/oseg/ont/otrl&#45;&gt;https://w3id.org/oseg/ont/oseg&#45;profiles#robinVobruba</title>
<path fill="none" stroke="black" d="M246.77,-1145.2C290.06,-1142.51 354.78,-1138.55 411.15,-1135.26 505.11,-1129.79 611.63,-1123.88 690.44,-1119.57"/>
<polygon fill="black" stroke="black" points="691.09,-1123.04 700.88,-1119 690.71,-1116.05 691.09,-1123.04"/>
<text text-anchor="middle" x="491.15" y="-1139.06" font-family="Times,serif" font-size="14.00">schema:creator</text>
</g>
<!-- https://w3id.org/oseg/ont/otrl&#45;&gt;https://w3id.org/oseg/ont/oseg&#45;profiles#robinVobruba -->
<g id="edge52" class="edge">
<title>https://w3id.org/oseg/ont/otrl&#45;&gt;https://w3id.org/oseg/ont/oseg&#45;profiles#robinVobruba</title>
<path fill="none" stroke="black" d="M237.01,-1138.36C279.62,-1128.21 349.7,-1113.11 411.15,-1107.26 507.19,-1098.13 616.93,-1100.83 696.41,-1105.12"/>
<polygon fill="black" stroke="black" points="696.26,-1108.62 706.44,-1105.68 696.65,-1101.63 696.26,-1108.62"/>
<text text-anchor="middle" x="491.15" y="-1111.06" font-family="Times,serif" font-size="14.00">dcterms:creator</text>
</g>
<!-- https://w3id.org/oseg/ont/oseg&#45;profiles#Iopa -->
<g id="node23" class="node">
<title>https://w3id.org/oseg/ont/oseg&#45;profiles#Iopa</title>
<ellipse fill="none" stroke="#e377c2" cx="807.65" cy="-1056.26" rx="80.72" ry="16.03"/>
<text text-anchor="middle" x="807.65" y="-1052.56" font-family="Times,serif" font-size="14.00">osegprof:Iopa</text>
</g>
<!-- https://w3id.org/oseg/ont/otrl&#45;&gt;https://w3id.org/oseg/ont/oseg&#45;profiles#Iopa -->
<g id="edge24" class="edge">
<title>https://w3id.org/oseg/ont/otrl&#45;&gt;https://w3id.org/oseg/ont/oseg&#45;profiles#Iopa</title>
<path fill="none" stroke="black" d="M229.17,-1135.71C270.32,-1119.97 344.86,-1093.57 411.15,-1081.26 514.78,-1062.03 636.01,-1056.86 716.67,-1055.81"/>
<polygon fill="black" stroke="black" points="716.83,-1059.31 726.79,-1055.7 716.75,-1052.31 716.83,-1059.31"/>
<text text-anchor="middle" x="491.15" y="-1085.06" font-family="Times,serif" font-size="14.00">dcterms:publisher</text>
</g>
<!-- https://w3id.org/oseg/ont/1.1.0/otrl -->
<g id="node24" class="node">
<title>https://w3id.org/oseg/ont/1.1.0/otrl</title>
<ellipse fill="none" stroke="#e377c2" cx="807.65" cy="-1005.26" rx="50.82" ry="16.03"/>
<text text-anchor="middle" x="807.65" y="-1001.56" font-family="Times,serif" font-size="14.00">ns2:otrl</text>
</g>
<!-- https://w3id.org/oseg/ont/otrl&#45;&gt;https://w3id.org/oseg/ont/1.1.0/otrl -->
<g id="edge32" class="edge">
<title>https://w3id.org/oseg/ont/otrl&#45;&gt;https://w3id.org/oseg/ont/1.1.0/otrl</title>
<path fill="none" stroke="black" d="M220.16,-1133.71C257.97,-1110.16 337.22,-1064.23 411.15,-1043.26 526.58,-1010.53 667.74,-1004.73 746.37,-1004.38"/>
<polygon fill="black" stroke="black" points="746.58,-1007.88 756.57,-1004.37 746.57,-1000.88 746.58,-1007.88"/>
<text text-anchor="middle" x="491.15" y="-1047.06" font-family="Times,serif" font-size="14.00">owl:versionIRI</text>
</g>
<!-- http://id.loc.gov/vocabulary/iso639&#45;1/en -->
<g id="node26" class="node">
<title>http://id.loc.gov/vocabulary/iso639&#45;1/en</title>
<ellipse fill="none" stroke="#e377c2" cx="807.65" cy="-954.26" rx="45.01" ry="16.03"/>
<text text-anchor="middle" x="807.65" y="-950.56" font-family="Times,serif" font-size="14.00">ns3:en</text>
</g>
<!-- https://w3id.org/oseg/ont/otrl&#45;&gt;http://id.loc.gov/vocabulary/iso639&#45;1/en -->
<g id="edge38" class="edge">
<title>https://w3id.org/oseg/ont/otrl&#45;&gt;http://id.loc.gov/vocabulary/iso639&#45;1/en</title>
<path fill="none" stroke="black" d="M212.99,-1132.71C245.95,-1100.55 327.13,-1027.12 411.15,-995.26 526.97,-951.34 674.74,-948.85 752.77,-951.29"/>
<polygon fill="black" stroke="black" points="752.73,-954.79 762.85,-951.64 752.98,-947.79 752.73,-954.79"/>
<text text-anchor="middle" x="491.15" y="-999.06" font-family="Times,serif" font-size="14.00">dcterms:language</text>
</g>
<!-- http://schema.org/Text -->
<g id="node21" class="node">
<title>http://schema.org/Text</title>
<ellipse fill="none" stroke="#e377c2" cx="1933.6" cy="-507.26" rx="74.91" ry="16.03"/>
<text text-anchor="middle" x="1933.6" y="-503.56" font-family="Times,serif" font-size="14.00">schema:Text</text>
</g>
<!-- https://w3id.org/oseg/ont/otrl#exitCriteria -->
<g id="node22" class="node">
<title>https://w3id.org/oseg/ont/otrl#exitCriteria</title>
<ellipse fill="none" stroke="#e377c2" cx="1412.36" cy="-580.26" rx="91.43" ry="16.03"/>
<text text-anchor="middle" x="1412.36" y="-576.56" font-family="Times,serif" font-size="14.00">otrl:exitCriteria</text>
</g>
<!-- https://w3id.org/oseg/ont/otrl#exitCriteria&#45;&gt;https://w3id.org/oseg/ont/otrl#OTRL -->
<g id="edge18" class="edge">
<title>https://w3id.org/oseg/ont/otrl#exitCriteria&#45;&gt;https://w3id.org/oseg/ont/otrl#OTRL</title>
<path fill="none" stroke="black" d="M1485.73,-570.59C1523.03,-563 1567.85,-549.63 1602.57,-526.26 1613.34,-519.02 1609.26,-509.65 1620.57,-503.26 1687.62,-465.39 1725.36,-519.87 1792.57,-482.26 1855.24,-447.2 1900.14,-371.68 1920.45,-331.93"/>
<polygon fill="black" stroke="black" points="1923.76,-333.15 1925.09,-322.64 1917.49,-330.03 1923.76,-333.15"/>
<text text-anchor="middle" x="1706.57" y="-507.06" font-family="Times,serif" font-size="14.00">schema:domainIncludes</text>
</g>
<!-- https://w3id.org/oseg/ont/otrl#exitCriteria&#45;&gt;http://www.w3.org/2002/07/owl#DatatypeProperty -->
<g id="edge21" class="edge">
<title>https://w3id.org/oseg/ont/otrl#exitCriteria&#45;&gt;http://www.w3.org/2002/07/owl#DatatypeProperty</title>
<path fill="none" stroke="black" d="M1502.07,-577.14C1535.76,-579.72 1573.08,-587.44 1602.57,-606.26 1615.04,-614.22 1607.58,-627.17 1620.57,-634.26 1687.66,-670.89 1716.69,-643.6 1792.57,-634.26 1820.12,-630.87 1850.06,-623.86 1875.15,-617"/>
<polygon fill="black" stroke="black" points="1876.18,-620.34 1884.87,-614.28 1874.3,-613.6 1876.18,-620.34"/>
<text text-anchor="middle" x="1706.57" y="-657.06" font-family="Times,serif" font-size="14.00">a</text>
</g>
<!-- https://w3id.org/oseg/ont/otrl#exitCriteria&#45;&gt;https://w3id.org/oseg/ont/otrl#ODRL -->
<g id="edge22" class="edge">
<title>https://w3id.org/oseg/ont/otrl#exitCriteria&#45;&gt;https://w3id.org/oseg/ont/otrl#ODRL</title>
<path fill="none" stroke="black" d="M1491.98,-572.26C1529.59,-572.72 1572.79,-580.12 1602.57,-606.26 1625.41,-626.32 1597.46,-652.51 1620.57,-672.26 1649.8,-697.25 1756.09,-679.07 1792.57,-691.26 1834.41,-705.25 1877.29,-733.04 1904.39,-752.6"/>
<polygon fill="black" stroke="black" points="1902.48,-755.54 1912.61,-758.63 1906.62,-749.9 1902.48,-755.54"/>
<text text-anchor="middle" x="1706.57" y="-695.06" font-family="Times,serif" font-size="14.00">schema:domainIncludes</text>
</g>
<!-- https://w3id.org/oseg/ont/otrl#exitCriteria&#45;&gt;http://schema.org/Text -->
<g id="edge19" class="edge">
<title>https://w3id.org/oseg/ont/otrl#exitCriteria&#45;&gt;http://schema.org/Text</title>
<path fill="none" stroke="black" d="M1503.19,-582.36C1580.63,-582.43 1695.05,-578.4 1792.57,-558.26 1826.79,-551.2 1863.89,-537.39 1891.3,-525.92"/>
<polygon fill="black" stroke="black" points="1892.73,-529.11 1900.56,-521.98 1889.99,-522.67 1892.73,-529.11"/>
<text text-anchor="middle" x="1706.57" y="-583.06" font-family="Times,serif" font-size="14.00">range</text>
</g>
<!-- https://w3id.org/oseg/ont/otrl#Odrl4 -->
<g id="node25" class="node">
<title>https://w3id.org/oseg/ont/otrl#Odrl4</title>
<ellipse fill="none" stroke="#e377c2" cx="807.65" cy="-606.26" rx="61.54" ry="16.03"/>
<text text-anchor="middle" x="807.65" y="-602.56" font-family="Times,serif" font-size="14.00">otrl:Odrl4</text>
</g>
<!-- https://w3id.org/oseg/ont/otrl#Odrl4&#45;&gt;https://w3id.org/oseg/ont/otrl#ODRL4 -->
<g id="edge27" class="edge">
<title>https://w3id.org/oseg/ont/otrl#Odrl4&#45;&gt;https://w3id.org/oseg/ont/otrl#ODRL4</title>
<path fill="none" stroke="black" d="M868.64,-608.75C978.55,-613.31 1212.06,-623 1333.83,-628.05"/>
<polygon fill="black" stroke="black" points="1333.69,-631.55 1343.83,-628.46 1333.98,-624.55 1333.69,-631.55"/>
<text text-anchor="middle" x="1124.14" y="-627.06" font-family="Times,serif" font-size="14.00">owl:sameAs</text>
</g>
<!-- https://w3id.org/oseg/ont/otrl#Odrl4&#45;&gt;https://w3id.org/oseg/ont/otrl#ODRL4 -->
<g id="edge43" class="edge">
<title>https://w3id.org/oseg/ont/otrl#Odrl4&#45;&gt;https://w3id.org/oseg/ont/otrl#ODRL4</title>
<path fill="none" stroke="black" d="M861.67,-598.38C938.1,-588.54 1083.32,-575.6 1204.14,-598.26 1212.58,-599.85 1213.83,-603.11 1222.14,-605.26 1259.1,-614.85 1301.08,-621.07 1336.1,-625.01"/>
<polygon fill="black" stroke="black" points="1335.94,-628.52 1346.26,-626.12 1336.69,-621.56 1335.94,-628.52"/>
<text text-anchor="middle" x="1124.14" y="-602.06" font-family="Times,serif" font-size="14.00">schema:supersededBy</text>
</g>
<!-- https://w3id.org/oseg/ont/otrl#goal -->
<g id="node27" class="node">
<title>https://w3id.org/oseg/ont/otrl#goal</title>
<ellipse fill="none" stroke="#e377c2" cx="1412.36" cy="-501.26" rx="54.39" ry="16.03"/>
<text text-anchor="middle" x="1412.36" y="-497.56" font-family="Times,serif" font-size="14.00">otrl:goal</text>
</g>
<!-- https://w3id.org/oseg/ont/otrl#goal&#45;&gt;https://w3id.org/oseg/ont/otrl#OTRL -->
<g id="edge7" class="edge">
<title>https://w3id.org/oseg/ont/otrl#goal&#45;&gt;https://w3id.org/oseg/ont/otrl#OTRL</title>
<path fill="none" stroke="black" d="M1451.36,-489.87C1492.78,-477.64 1561.09,-457.97 1620.57,-443.26 1696.47,-424.49 1721.04,-437.86 1792.57,-406.26 1836.9,-386.68 1881.27,-351.76 1907.84,-328.81"/>
<polygon fill="black" stroke="black" points="1910.28,-331.32 1915.49,-322.1 1905.67,-326.06 1910.28,-331.32"/>
<text text-anchor="middle" x="1706.57" y="-447.06" font-family="Times,serif" font-size="14.00">schema:domainIncludes</text>
</g>
<!-- https://w3id.org/oseg/ont/otrl#goal&#45;&gt;http://www.w3.org/2002/07/owl#DatatypeProperty -->
<g id="edge54" class="edge">
<title>https://w3id.org/oseg/ont/otrl#goal&#45;&gt;http://www.w3.org/2002/07/owl#DatatypeProperty</title>
<path fill="none" stroke="black" d="M1464.64,-505.99C1564.56,-515.25 1776.93,-535.23 1792.57,-539.26 1828.08,-548.42 1866.2,-565.26 1893.69,-578.77"/>
<polygon fill="black" stroke="black" points="1892.44,-582.06 1902.95,-583.39 1895.57,-575.8 1892.44,-582.06"/>
<text text-anchor="middle" x="1706.57" y="-543.06" font-family="Times,serif" font-size="14.00">a</text>
</g>
<!-- https://w3id.org/oseg/ont/otrl#goal&#45;&gt;https://w3id.org/oseg/ont/otrl#ODRL -->
<g id="edge12" class="edge">
<title>https://w3id.org/oseg/ont/otrl#goal&#45;&gt;https://w3id.org/oseg/ont/otrl#ODRL</title>
<path fill="none" stroke="black" d="M1466.05,-504.29C1507.57,-509.25 1564.6,-522.13 1602.57,-555.26 1617.56,-568.35 1604.53,-584.48 1620.57,-596.26 1682.55,-641.8 1724.33,-579.79 1792.57,-615.26 1851.59,-645.94 1897.1,-712.62 1918.74,-749.13"/>
<polygon fill="black" stroke="black" points="1915.92,-751.25 1923.96,-758.15 1921.98,-747.74 1915.92,-751.25"/>
<text text-anchor="middle" x="1706.57" y="-619.06" font-family="Times,serif" font-size="14.00">schema:domainIncludes</text>
</g>
<!-- https://w3id.org/oseg/ont/otrl#goal&#45;&gt;http://schema.org/Text -->
<g id="edge20" class="edge">
<title>https://w3id.org/oseg/ont/otrl#goal&#45;&gt;http://schema.org/Text</title>
<path fill="none" stroke="black" d="M1455.32,-491.26C1525.41,-475.96 1670.65,-450.19 1792.57,-467.26 1824.01,-471.67 1858.3,-481.37 1885.08,-490.12"/>
<polygon fill="black" stroke="black" points="1884,-493.45 1894.59,-493.29 1886.21,-486.81 1884,-493.45"/>
<text text-anchor="middle" x="1706.57" y="-471.06" font-family="Times,serif" font-size="14.00">range</text>
</g>
<!-- https://w3id.org/oseg/ont/otrl#Otrl5 -->
<g id="node28" class="node">
<title>https://w3id.org/oseg/ont/otrl#Otrl5</title>
<ellipse fill="none" stroke="black" cx="807.65" cy="-386.26" rx="194.41" ry="16.03"/>
<text text-anchor="middle" x="807.65" y="-382.56" font-family="Times,serif" font-size="14.00">https://w3id.org/oseg/ont/otrl#Otrl5</text>
</g>
<!-- https://w3id.org/oseg/ont/otrl#Otrl5&#45;&gt;https://w3id.org/oseg/ont/otrl#OTRL5 -->
<g id="edge4" class="edge">
<title>https://w3id.org/oseg/ont/otrl#Otrl5&#45;&gt;https://w3id.org/oseg/ont/otrl#OTRL5</title>
<path fill="none" stroke="black" d="M875.39,-401.56C955.99,-416.88 1094.37,-433.01 1204.14,-393.26 1213.94,-389.72 1212.62,-382.47 1222.14,-378.26 1257.21,-362.79 1299.18,-355.99 1334.68,-353.18"/>
<polygon fill="black" stroke="black" points="1335.26,-356.65 1344.99,-352.46 1334.77,-349.67 1335.26,-356.65"/>
<text text-anchor="middle" x="1124.14" y="-422.06" font-family="Times,serif" font-size="14.00">schema:supersededBy</text>
</g>
<!-- https://w3id.org/oseg/ont/otrl#Otrl5&#45;&gt;https://w3id.org/oseg/ont/otrl#OTRL5 -->
<g id="edge26" class="edge">
<title>https://w3id.org/oseg/ont/otrl#Otrl5&#45;&gt;https://w3id.org/oseg/ont/otrl#OTRL5</title>
<path fill="none" stroke="black" d="M969.37,-377.2C1088.4,-370.48 1245.17,-361.64 1336.45,-356.49"/>
<polygon fill="black" stroke="black" points="1336.92,-359.97 1346.71,-355.91 1336.53,-352.98 1336.92,-359.97"/>
<text text-anchor="middle" x="1124.14" y="-377.06" font-family="Times,serif" font-size="14.00">owl:sameAs</text>
</g>
<!-- https://w3id.org/oseg/ont/otrl#Odrl2 -->
<g id="node29" class="node">
<title>https://w3id.org/oseg/ont/otrl#Odrl2</title>
<ellipse fill="none" stroke="black" cx="807.65" cy="-691.26" rx="196.65" ry="16.03"/>
<text text-anchor="middle" x="807.65" y="-687.56" font-family="Times,serif" font-size="14.00">https://w3id.org/oseg/ont/otrl#Odrl2</text>
</g>
<!-- https://w3id.org/oseg/ont/otrl#Odrl2&#45;&gt;https://w3id.org/oseg/ont/otrl#ODRL2 -->
<g id="edge5" class="edge">
<title>https://w3id.org/oseg/ont/otrl#Odrl2&#45;&gt;https://w3id.org/oseg/ont/otrl#ODRL2</title>
<path fill="none" stroke="black" d="M1000.59,-694.45C1113.06,-696.31 1249.06,-698.57 1332.89,-699.96"/>
<polygon fill="black" stroke="black" points="1333.04,-703.46 1343.1,-700.13 1333.16,-696.47 1333.04,-703.46"/>
<text text-anchor="middle" x="1124.14" y="-702.06" font-family="Times,serif" font-size="14.00">schema:supersededBy</text>
</g>
<!-- https://w3id.org/oseg/ont/otrl#Odrl2&#45;&gt;https://w3id.org/oseg/ont/otrl#ODRL2 -->
<g id="edge28" class="edge">
<title>https://w3id.org/oseg/ont/otrl#Odrl2&#45;&gt;https://w3id.org/oseg/ont/otrl#ODRL2</title>
<path fill="none" stroke="black" d="M949.2,-679.94C1024.8,-675.45 1119.6,-672.38 1204.14,-677.26 1250.64,-679.95 1302.71,-685.99 1343.02,-691.34"/>
<polygon fill="black" stroke="black" points="1342.63,-694.82 1353.01,-692.68 1343.57,-687.88 1342.63,-694.82"/>
<text text-anchor="middle" x="1124.14" y="-681.06" font-family="Times,serif" font-size="14.00">owl:sameAs</text>
</g>
<!-- https://w3id.org/oseg/ont/otrl#Odrl -->
<g id="node30" class="node">
<title>https://w3id.org/oseg/ont/otrl#Odrl</title>
<ellipse fill="none" stroke="black" cx="1412.36" cy="-917.26" rx="190.42" ry="16.03"/>
<text text-anchor="middle" x="1412.36" y="-913.56" font-family="Times,serif" font-size="14.00">https://w3id.org/oseg/ont/otrl#Odrl</text>
</g>
<!-- https://w3id.org/oseg/ont/otrl#Odrl&#45;&gt;https://w3id.org/oseg/ont/otrl#ODRL -->
<g id="edge6" class="edge">
<title>https://w3id.org/oseg/ont/otrl#Odrl&#45;&gt;https://w3id.org/oseg/ont/otrl#ODRL</title>
<path fill="none" stroke="black" d="M1554.05,-906.36C1570.76,-902.62 1587.29,-897.7 1602.57,-891.26 1611.91,-887.33 1611.43,-881.65 1620.57,-877.26 1691.41,-843.26 1718.1,-861.39 1792.57,-836.26 1828.17,-824.25 1867.15,-806.6 1894.92,-793.21"/>
<polygon fill="black" stroke="black" points="1896.79,-796.19 1904.25,-788.66 1893.73,-789.89 1896.79,-796.19"/>
<text text-anchor="middle" x="1706.57" y="-881.06" font-family="Times,serif" font-size="14.00">schema:supersededBy</text>
</g>
<!-- https://w3id.org/oseg/ont/otrl#Odrl&#45;&gt;https://w3id.org/oseg/ont/otrl#ODRL -->
<g id="edge29" class="edge">
<title>https://w3id.org/oseg/ont/otrl#Odrl&#45;&gt;https://w3id.org/oseg/ont/otrl#ODRL</title>
<path fill="none" stroke="black" d="M1549.53,-928.54C1623.87,-929.77 1716.07,-923.09 1792.57,-892.26 1842.76,-872.04 1888.11,-826.55 1912.87,-798.33"/>
<polygon fill="black" stroke="black" points="1915.72,-800.38 1919.59,-790.52 1910.41,-795.82 1915.72,-800.38"/>
<text text-anchor="middle" x="1706.57" y="-931.06" font-family="Times,serif" font-size="14.00">owl:sameAs</text>
</g>
<!-- https://w3id.org/oseg/ont/otrl#Odrl1 -->
<g id="node31" class="node">
<title>https://w3id.org/oseg/ont/otrl#Odrl1</title>
<ellipse fill="none" stroke="black" cx="807.65" cy="-903.26" rx="196.65" ry="16.03"/>
<text text-anchor="middle" x="807.65" y="-899.56" font-family="Times,serif" font-size="14.00">https://w3id.org/oseg/ont/otrl#Odrl1</text>
</g>
<!-- https://w3id.org/oseg/ont/otrl#Odrl1&#45;&gt;https://w3id.org/oseg/ont/otrl#ODRL1 -->
<g id="edge8" class="edge">
<title>https://w3id.org/oseg/ont/otrl#Odrl1&#45;&gt;https://w3id.org/oseg/ont/otrl#ODRL1</title>
<path fill="none" stroke="black" d="M946.56,-914.79C1041.43,-920.81 1158.26,-923.87 1204.14,-907.26 1213.94,-903.72 1212.62,-896.47 1222.14,-892.26 1256.52,-877.09 1297.53,-870.26 1332.57,-867.35"/>
<polygon fill="black" stroke="black" points="1333.05,-870.83 1342.77,-866.6 1332.54,-863.85 1333.05,-870.83"/>
<text text-anchor="middle" x="1124.14" y="-924.06" font-family="Times,serif" font-size="14.00">owl:sameAs</text>
</g>
<!-- https://w3id.org/oseg/ont/otrl#Odrl1&#45;&gt;https://w3id.org/oseg/ont/otrl#ODRL1 -->
<g id="edge33" class="edge">
<title>https://w3id.org/oseg/ont/otrl#Odrl1&#45;&gt;https://w3id.org/oseg/ont/otrl#ODRL1</title>
<path fill="none" stroke="black" d="M963.5,-893.32C990.39,-891.61 1018.08,-889.87 1044.14,-888.26 1144.6,-882.06 1260.53,-875.15 1334.81,-870.76"/>
<polygon fill="black" stroke="black" points="1335.24,-874.25 1345.01,-870.16 1334.82,-867.26 1335.24,-874.25"/>
<text text-anchor="middle" x="1124.14" y="-892.06" font-family="Times,serif" font-size="14.00">schema:supersededBy</text>
</g>
<!-- https://w3id.org/oseg/ont/otrl#Otrl1 -->
<g id="node32" class="node">
<title>https://w3id.org/oseg/ont/otrl#Otrl1</title>
<ellipse fill="none" stroke="black" cx="807.65" cy="-92.26" rx="194.41" ry="16.03"/>
<text text-anchor="middle" x="807.65" y="-88.56" font-family="Times,serif" font-size="14.00">https://w3id.org/oseg/ont/otrl#Otrl1</text>
</g>
<!-- https://w3id.org/oseg/ont/otrl#Otrl1&#45;&gt;https://w3id.org/oseg/ont/otrl#OTRL1 -->
<g id="edge11" class="edge">
<title>https://w3id.org/oseg/ont/otrl#Otrl1&#45;&gt;https://w3id.org/oseg/ont/otrl#OTRL1</title>
<path fill="none" stroke="black" d="M989.89,-97.98C1105.32,-101.62 1248.86,-106.14 1335.13,-108.86"/>
<polygon fill="black" stroke="black" points="1335.26,-112.37 1345.37,-109.18 1335.48,-105.37 1335.26,-112.37"/>
<text text-anchor="middle" x="1124.14" y="-109.06" font-family="Times,serif" font-size="14.00">owl:sameAs</text>
</g>
<!-- https://w3id.org/oseg/ont/otrl#Otrl1&#45;&gt;https://w3id.org/oseg/ont/otrl#OTRL1 -->
<g id="edge36" class="edge">
<title>https://w3id.org/oseg/ont/otrl#Otrl1&#45;&gt;https://w3id.org/oseg/ont/otrl#OTRL1</title>
<path fill="none" stroke="black" d="M952.51,-81.38C1027.59,-77.44 1120.9,-75.27 1204.14,-81.26 1252.77,-84.77 1307.33,-92.83 1348.25,-99.72"/>
<polygon fill="black" stroke="black" points="1347.9,-103.21 1358.35,-101.44 1349.08,-96.31 1347.9,-103.21"/>
<text text-anchor="middle" x="1124.14" y="-85.06" font-family="Times,serif" font-size="14.00">schema:supersededBy</text>
</g>
<!-- https://w3id.org/oseg/ont/otrl#Odrl3 -->
<g id="node33" class="node">
<title>https://w3id.org/oseg/ont/otrl#Odrl3</title>
<ellipse fill="none" stroke="black" cx="807.65" cy="-840.26" rx="196.65" ry="16.03"/>
<text text-anchor="middle" x="807.65" y="-836.56" font-family="Times,serif" font-size="14.00">https://w3id.org/oseg/ont/otrl#Odrl3</text>
</g>
<!-- https://w3id.org/oseg/ont/otrl#Odrl3&#45;&gt;https://w3id.org/oseg/ont/otrl#ODRL3 -->
<g id="edge13" class="edge">
<title>https://w3id.org/oseg/ont/otrl#Odrl3&#45;&gt;https://w3id.org/oseg/ont/otrl#ODRL3</title>
<path fill="none" stroke="black" d="M1002.34,-837.96C1066.59,-836.63 1138.46,-834.54 1204.14,-831.26 1248.4,-829.05 1297.88,-825.28 1337.39,-821.95"/>
<polygon fill="black" stroke="black" points="1337.8,-825.43 1347.47,-821.1 1337.21,-818.46 1337.8,-825.43"/>
<text text-anchor="middle" x="1124.14" y="-841.06" font-family="Times,serif" font-size="14.00">schema:supersededBy</text>
</g>
<!-- https://w3id.org/oseg/ont/otrl#Odrl3&#45;&gt;https://w3id.org/oseg/ont/otrl#ODRL3 -->
<g id="edge42" class="edge">
<title>https://w3id.org/oseg/ont/otrl#Odrl3&#45;&gt;https://w3id.org/oseg/ont/otrl#ODRL3</title>
<path fill="none" stroke="black" d="M905.52,-826.13C947.96,-820.61 998.42,-814.97 1044.14,-812.26 1115.13,-808.06 1133.03,-811.75 1204.14,-812.26 1246.75,-812.57 1294.27,-813.24 1333.05,-813.86"/>
<polygon fill="black" stroke="black" points="1333.17,-817.36 1343.23,-814.03 1333.29,-810.37 1333.17,-817.36"/>
<text text-anchor="middle" x="1124.14" y="-816.06" font-family="Times,serif" font-size="14.00">owl:sameAs</text>
</g>
<!-- https://w3id.org/oseg/ont/otrl#Otrl3 -->
<g id="node34" class="node">
<title>https://w3id.org/oseg/ont/otrl#Otrl3</title>
<ellipse fill="none" stroke="black" cx="807.65" cy="-251.26" rx="194.41" ry="16.03"/>
<text text-anchor="middle" x="807.65" y="-247.56" font-family="Times,serif" font-size="14.00">https://w3id.org/oseg/ont/otrl#Otrl3</text>
</g>
<!-- https://w3id.org/oseg/ont/otrl#Otrl3&#45;&gt;https://w3id.org/oseg/ont/otrl#OTRL3 -->
<g id="edge14" class="edge">
<title>https://w3id.org/oseg/ont/otrl#Otrl3&#45;&gt;https://w3id.org/oseg/ont/otrl#OTRL3</title>
<path fill="none" stroke="black" d="M1002.25,-250.94C1115.26,-250.75 1251.55,-250.53 1334.8,-250.39"/>
<polygon fill="black" stroke="black" points="1334.94,-253.89 1344.94,-250.37 1334.93,-246.89 1334.94,-253.89"/>
<text text-anchor="middle" x="1124.14" y="-255.06" font-family="Times,serif" font-size="14.00">schema:supersededBy</text>
</g>
<!-- https://w3id.org/oseg/ont/otrl#Otrl3&#45;&gt;https://w3id.org/oseg/ont/otrl#OTRL3 -->
<g id="edge46" class="edge">
<title>https://w3id.org/oseg/ont/otrl#Otrl3&#45;&gt;https://w3id.org/oseg/ont/otrl#OTRL3</title>
<path fill="none" stroke="black" d="M936.56,-239.06C971.42,-236.25 1009.2,-233.67 1044.14,-232.26 1115.2,-229.4 1133.1,-229.18 1204.14,-232.26 1249.61,-234.23 1300.53,-238.63 1340.51,-242.58"/>
<polygon fill="black" stroke="black" points="1340.4,-246.09 1350.7,-243.6 1341.1,-239.12 1340.4,-246.09"/>
<text text-anchor="middle" x="1124.14" y="-236.06" font-family="Times,serif" font-size="14.00">owl:sameAs</text>
</g>
<!-- https://w3id.org/oseg/ont/otrl#Otrl2 -->
<g id="node35" class="node">
<title>https://w3id.org/oseg/ont/otrl#Otrl2</title>
<ellipse fill="none" stroke="black" cx="807.65" cy="-329.26" rx="194.41" ry="16.03"/>
<text text-anchor="middle" x="807.65" y="-325.56" font-family="Times,serif" font-size="14.00">https://w3id.org/oseg/ont/otrl#Otrl2</text>
</g>
<!-- https://w3id.org/oseg/ont/otrl#Otrl2&#45;&gt;https://w3id.org/oseg/ont/otrl#OTRL2 -->
<g id="edge17" class="edge">
<title>https://w3id.org/oseg/ont/otrl#Otrl2&#45;&gt;https://w3id.org/oseg/ont/otrl#OTRL2</title>
<path fill="none" stroke="black" d="M996.82,-325.35C1062.45,-323.51 1136.58,-320.9 1204.14,-317.26 1248.89,-314.86 1298.98,-311.02 1338.71,-307.71"/>
<polygon fill="black" stroke="black" points="1339.17,-311.18 1348.84,-306.86 1338.58,-304.21 1339.17,-311.18"/>
<text text-anchor="middle" x="1124.14" y="-328.06" font-family="Times,serif" font-size="14.00">schema:supersededBy</text>
</g>
<!-- https://w3id.org/oseg/ont/otrl#Otrl2&#45;&gt;https://w3id.org/oseg/ont/otrl#OTRL2 -->
<g id="edge53" class="edge">
<title>https://w3id.org/oseg/ont/otrl#Otrl2&#45;&gt;https://w3id.org/oseg/ont/otrl#OTRL2</title>
<path fill="none" stroke="black" d="M897.28,-314.81C941.3,-308.34 995.38,-301.46 1044.14,-298.26 1115.1,-293.61 1133.03,-297.75 1204.14,-298.26 1247.41,-298.58 1295.75,-299.26 1334.85,-299.89"/>
<polygon fill="black" stroke="black" points="1335.04,-303.4 1345.1,-300.06 1335.16,-296.4 1335.04,-303.4"/>
<text text-anchor="middle" x="1124.14" y="-302.06" font-family="Times,serif" font-size="14.00">owl:sameAs</text>
</g>
<!-- https://w3id.org/oseg/ont/otrl#Odrl3Star -->
<g id="node36" class="node">
<title>https://w3id.org/oseg/ont/otrl#Odrl3Star</title>
<ellipse fill="none" stroke="black" cx="807.65" cy="-748.26" rx="218.49" ry="16.03"/>
<text text-anchor="middle" x="807.65" y="-744.56" font-family="Times,serif" font-size="14.00">https://w3id.org/oseg/ont/otrl#Odrl3Star</text>
</g>
<!-- https://w3id.org/oseg/ont/otrl#Odrl3Star&#45;&gt;https://w3id.org/oseg/ont/otrl#ODRL3Star -->
<g id="edge30" class="edge">
<title>https://w3id.org/oseg/ont/otrl#Odrl3Star&#45;&gt;https://w3id.org/oseg/ont/otrl#ODRL3Star</title>
<path fill="none" stroke="black" d="M1010.65,-754.34C1021.98,-754.66 1033.21,-754.97 1044.14,-755.26 1134.86,-757.72 1238.19,-760.23 1312.08,-761.97"/>
<polygon fill="black" stroke="black" points="1312.23,-765.47 1322.31,-762.21 1312.39,-758.48 1312.23,-765.47"/>
<text text-anchor="middle" x="1124.14" y="-763.06" font-family="Times,serif" font-size="14.00">owl:sameAs</text>
</g>
<!-- https://w3id.org/oseg/ont/otrl#Odrl3Star&#45;&gt;https://w3id.org/oseg/ont/otrl#ODRL3Star -->
<g id="edge40" class="edge">
<title>https://w3id.org/oseg/ont/otrl#Odrl3Star&#45;&gt;https://w3id.org/oseg/ont/otrl#ODRL3Star</title>
<path fill="none" stroke="black" d="M961.37,-736.7C1034.83,-732.9 1124.12,-730.88 1204.14,-736.26 1247.86,-739.2 1296.43,-745.6 1335.54,-751.53"/>
<polygon fill="black" stroke="black" points="1335.38,-755.05 1345.79,-753.11 1336.44,-748.13 1335.38,-755.05"/>
<text text-anchor="middle" x="1124.14" y="-740.06" font-family="Times,serif" font-size="14.00">schema:supersededBy</text>
</g>
<!-- https://w3id.org/oseg/ont/otrl#Otrl -->
<g id="node37" class="node">
<title>https://w3id.org/oseg/ont/otrl#Otrl</title>
<ellipse fill="none" stroke="black" cx="1412.36" cy="-403.26" rx="188.18" ry="16.03"/>
<text text-anchor="middle" x="1412.36" y="-399.56" font-family="Times,serif" font-size="14.00">https://w3id.org/oseg/ont/otrl#Otrl</text>
</g>
<!-- https://w3id.org/oseg/ont/otrl#Otrl&#45;&gt;https://w3id.org/oseg/ont/otrl#OTRL -->
<g id="edge34" class="edge">
<title>https://w3id.org/oseg/ont/otrl#Otrl&#45;&gt;https://w3id.org/oseg/ont/otrl#OTRL</title>
<path fill="none" stroke="black" d="M1564.77,-393.64C1578.03,-389.51 1590.85,-384.16 1602.57,-377.26 1614.06,-370.5 1609.06,-360.01 1620.57,-353.26 1687.11,-314.27 1716.32,-341.89 1792.57,-330.26 1818.93,-326.24 1848,-321.34 1872.79,-317.01"/>
<polygon fill="black" stroke="black" points="1873.53,-320.44 1882.77,-315.26 1872.32,-313.54 1873.53,-320.44"/>
<text text-anchor="middle" x="1706.57" y="-357.06" font-family="Times,serif" font-size="14.00">schema:supersededBy</text>
</g>
<!-- https://w3id.org/oseg/ont/otrl#Otrl&#45;&gt;https://w3id.org/oseg/ont/otrl#OTRL -->
<g id="edge56" class="edge">
<title>https://w3id.org/oseg/ont/otrl#Otrl&#45;&gt;https://w3id.org/oseg/ont/otrl#OTRL</title>
<path fill="none" stroke="black" d="M1567.8,-394.07C1653.46,-387.97 1750.9,-379.1 1792.57,-368.26 1829.9,-358.55 1869.9,-339.93 1897.55,-325.62"/>
<polygon fill="black" stroke="black" points="1899.21,-328.7 1906.43,-320.95 1895.95,-322.51 1899.21,-328.7"/>
<text text-anchor="middle" x="1706.57" y="-394.06" font-family="Times,serif" font-size="14.00">owl:sameAs</text>
</g>
<!-- https://w3id.org/oseg/ont/otrl#Odrl5 -->
<g id="node38" class="node">
<title>https://w3id.org/oseg/ont/otrl#Odrl5</title>
<ellipse fill="none" stroke="black" cx="196.58" cy="-606.26" rx="196.65" ry="16.03"/>
<text text-anchor="middle" x="196.58" y="-602.56" font-family="Times,serif" font-size="14.00">https://w3id.org/oseg/ont/otrl#Odrl5</text>
</g>
<!-- https://w3id.org/oseg/ont/otrl#Odrl5&#45;&gt;https://w3id.org/oseg/ont/otrl#Odrl4 -->
<g id="edge35" class="edge">
<title>https://w3id.org/oseg/ont/otrl#Odrl5&#45;&gt;https://w3id.org/oseg/ont/otrl#Odrl4</title>
<path fill="none" stroke="black" d="M393.22,-606.26C510.43,-606.26 652.42,-606.26 735.81,-606.26"/>
<polygon fill="black" stroke="black" points="735.94,-609.76 745.94,-606.26 735.94,-602.76 735.94,-609.76"/>
<text text-anchor="middle" x="491.15" y="-610.06" font-family="Times,serif" font-size="14.00">owl:sameAs</text>
</g>
<!-- https://w3id.org/oseg/ont/otrl#Odrl5&#45;&gt;https://w3id.org/oseg/ont/otrl#Odrl4 -->
<g id="edge51" class="edge">
<title>https://w3id.org/oseg/ont/otrl#Odrl5&#45;&gt;https://w3id.org/oseg/ont/otrl#Odrl4</title>
<path fill="none" stroke="black" d="M319.43,-593.54C349.39,-590.93 381.4,-588.58 411.15,-587.26 482.19,-584.11 500.1,-584.4 571.15,-587.26 628.23,-589.56 692.91,-594.98 740.02,-599.45"/>
<polygon fill="black" stroke="black" points="739.81,-602.95 750.1,-600.42 740.48,-595.98 739.81,-602.95"/>
<text text-anchor="middle" x="491.15" y="-591.06" font-family="Times,serif" font-size="14.00">schema:supersededBy</text>
</g>
<!-- https://w3id.org/oseg/ont/otrl#Otrl6 -->
<g id="node39" class="node">
<title>https://w3id.org/oseg/ont/otrl#Otrl6</title>
<ellipse fill="none" stroke="black" cx="807.65" cy="-16.26" rx="194.41" ry="16.03"/>
<text text-anchor="middle" x="807.65" y="-12.56" font-family="Times,serif" font-size="14.00">https://w3id.org/oseg/ont/otrl#Otrl6</text>
</g>
<!-- https://w3id.org/oseg/ont/otrl#Otrl6&#45;&gt;https://w3id.org/oseg/ont/otrl#OTRL6 -->
<g id="edge37" class="edge">
<title>https://w3id.org/oseg/ont/otrl#Otrl6&#45;&gt;https://w3id.org/oseg/ont/otrl#OTRL6</title>
<path fill="none" stroke="black" d="M989.89,-21.98C1105.32,-25.62 1248.86,-30.14 1335.13,-32.86"/>
<polygon fill="black" stroke="black" points="1335.26,-36.37 1345.37,-33.18 1335.48,-29.37 1335.26,-36.37"/>
<text text-anchor="middle" x="1124.14" y="-33.06" font-family="Times,serif" font-size="14.00">schema:supersededBy</text>
</g>
<!-- https://w3id.org/oseg/ont/otrl#Otrl6&#45;&gt;https://w3id.org/oseg/ont/otrl#OTRL6 -->
<g id="edge41" class="edge">
<title>https://w3id.org/oseg/ont/otrl#Otrl6&#45;&gt;https://w3id.org/oseg/ont/otrl#OTRL6</title>
<path fill="none" stroke="black" d="M952.51,-5.38C1027.59,-1.44 1120.9,0.73 1204.14,-5.26 1252.77,-8.77 1307.33,-16.83 1348.25,-23.72"/>
<polygon fill="black" stroke="black" points="1347.9,-27.21 1358.35,-25.44 1349.08,-20.31 1347.9,-27.21"/>
<text text-anchor="middle" x="1124.14" y="-9.06" font-family="Times,serif" font-size="14.00">owl:sameAs</text>
</g>
<!-- https://w3id.org/oseg/ont/otrl#Otrl4 -->
<g id="node40" class="node">
<title>https://w3id.org/oseg/ont/otrl#Otrl4</title>
<ellipse fill="none" stroke="black" cx="807.65" cy="-175.26" rx="194.41" ry="16.03"/>
<text text-anchor="middle" x="807.65" y="-171.56" font-family="Times,serif" font-size="14.00">https://w3id.org/oseg/ont/otrl#Otrl4</text>
</g>
<!-- https://w3id.org/oseg/ont/otrl#Otrl4&#45;&gt;https://w3id.org/oseg/ont/otrl#OTRL4 -->
<g id="edge50" class="edge">
<title>https://w3id.org/oseg/ont/otrl#Otrl4&#45;&gt;https://w3id.org/oseg/ont/otrl#OTRL4</title>
<path fill="none" stroke="black" d="M997.28,-179.02C1111.43,-181.29 1250.78,-184.07 1335.22,-185.75"/>
<polygon fill="black" stroke="black" points="1335.17,-189.25 1345.23,-185.95 1335.31,-182.25 1335.17,-189.25"/>
<text text-anchor="middle" x="1124.14" y="-187.06" font-family="Times,serif" font-size="14.00">schema:supersededBy</text>
</g>
<!-- https://w3id.org/oseg/ont/otrl#Otrl4&#45;&gt;https://w3id.org/oseg/ont/otrl#OTRL4 -->
<g id="edge55" class="edge">
<title>https://w3id.org/oseg/ont/otrl#Otrl4&#45;&gt;https://w3id.org/oseg/ont/otrl#OTRL4</title>
<path fill="none" stroke="black" d="M946.01,-163.81C1022.13,-159.12 1118.43,-155.91 1204.14,-161.26 1251.68,-164.23 1304.99,-171 1345.64,-176.89"/>
<polygon fill="black" stroke="black" points="1345.28,-180.37 1355.69,-178.36 1346.3,-173.45 1345.28,-180.37"/>
<text text-anchor="middle" x="1124.14" y="-165.06" font-family="Times,serif" font-size="14.00">owl:sameAs</text>
</g>
</g>
</svg>
