<?xml version="1.0" encoding="UTF-8" standalone="no"?>
<!DOCTYPE svg PUBLIC "-//W3C//DTD SVG 1.1//EN"
 "http://www.w3.org/Graphics/SVG/1.1/DTD/svg11.dtd">
<!-- Generated by graphviz version 2.43.0 (0)
 -->
<!-- Title: G Pages: 1 -->
<svg width="1291pt" height="462pt"
 viewBox="0.00 0.00 1290.63 462.38" xmlns="http://www.w3.org/2000/svg" xmlns:xlink="http://www.w3.org/1999/xlink">
<g id="graph0" class="graph" transform="scale(1 1) rotate(0) translate(4 458.38)">
<title>G</title>
<polygon fill="white" stroke="transparent" points="-4,4 -4,-458.38 1286.63,-458.38 1286.63,4 -4,4"/>
<!-- http://schema.org/DefinedTerm -->
<g id="node1" class="node">
<title>http://schema.org/DefinedTerm</title>
<ellipse fill="none" stroke="#1f77b4" cx="1164.54" cy="-258.38" rx="118.17" ry="16.03"/>
<text text-anchor="middle" x="1164.54" y="-254.68" font-family="Times,serif" font-size="14.00">schema:DefinedTerm</text>
</g>
<!-- http://schema.org/DefinedTermSet -->
<g id="node2" class="node">
<title>http://schema.org/DefinedTermSet</title>
<ellipse fill="none" stroke="#1f77b4" cx="884.08" cy="-252.38" rx="116.85" ry="16.03"/>
<text text-anchor="middle" x="884.08" y="-248.68" font-family="Times,serif" font-size="14.00">schema:DefinedTer...</text>
</g>
<!-- http://w3id.org/oseg/ont/ods#Dataset -->
<g id="node3" class="node">
<title>http://w3id.org/oseg/ont/ods#Dataset</title>
<ellipse fill="none" stroke="#1f77b4" cx="441.85" cy="-428.38" rx="71.34" ry="16.03"/>
<text text-anchor="middle" x="441.85" y="-424.68" font-family="Times,serif" font-size="14.00">ods:Dataset</text>
</g>
<!-- http://spdx.org/rdf/terms#SpdxItem -->
<g id="node4" class="node">
<title>http://spdx.org/rdf/terms#SpdxItem</title>
<ellipse fill="none" stroke="#1f77b4" cx="441.85" cy="-377.38" rx="87.86" ry="16.03"/>
<text text-anchor="middle" x="441.85" y="-373.68" font-family="Times,serif" font-size="14.00">spdx:SpdxItem</text>
</g>
<!-- http://w3id.org/oseg/ont/oseg&#45;profiles#Iopa -->
<g id="node5" class="node">
<title>http://w3id.org/oseg/ont/oseg&#45;profiles#Iopa</title>
<ellipse fill="none" stroke="#e377c2" cx="441.85" cy="-326.38" rx="80.72" ry="16.03"/>
<text text-anchor="middle" x="441.85" y="-322.68" font-family="Times,serif" font-size="14.00">osegprof:Iopa</text>
</g>
<!-- http://w3id.org/oseg/ont/okhimg#slotIconMain -->
<g id="node6" class="node">
<title>http://w3id.org/oseg/ont/okhimg#slotIconMain</title>
<ellipse fill="none" stroke="#e377c2" cx="884.08" cy="-304.38" rx="117.26" ry="16.03"/>
<text text-anchor="middle" x="884.08" y="-300.68" font-family="Times,serif" font-size="14.00">okhimg:slotIconMain</text>
</g>
<!-- http://w3id.org/oseg/ont/okhimg#slotIconMain&#45;&gt;http://schema.org/DefinedTerm -->
<g id="edge3" class="edge">
<title>http://w3id.org/oseg/ont/okhimg#slotIconMain&#45;&gt;http://schema.org/DefinedTerm</title>
<path fill="none" stroke="black" d="M960.43,-291.93C996.81,-285.92 1040.6,-278.69 1078.2,-272.48"/>
<polygon fill="black" stroke="black" points="1078.83,-275.92 1088.12,-270.84 1077.69,-269.02 1078.83,-275.92"/>
<text text-anchor="middle" x="1023.95" y="-285.18" font-family="Times,serif" font-size="14.00">a</text>
</g>
<!-- http://w3id.org/oseg/ont/okhimg#slots -->
<g id="node7" class="node">
<title>http://w3id.org/oseg/ont/okhimg#slots</title>
<ellipse fill="none" stroke="#e377c2" cx="441.85" cy="-275.38" rx="75.82" ry="16.03"/>
<text text-anchor="middle" x="441.85" y="-271.68" font-family="Times,serif" font-size="14.00">okhimg:slots</text>
</g>
<!-- http://w3id.org/oseg/ont/okhimg#slots&#45;&gt;http://schema.org/DefinedTermSet -->
<g id="edge4" class="edge">
<title>http://w3id.org/oseg/ont/okhimg#slots&#45;&gt;http://schema.org/DefinedTermSet</title>
<path fill="none" stroke="black" d="M515.55,-271.58C583.11,-268.05 684.97,-262.73 764.34,-258.58"/>
<polygon fill="black" stroke="black" points="764.59,-262.08 774.39,-258.06 764.22,-255.09 764.59,-262.08"/>
<text text-anchor="middle" x="661.2" y="-271.18" font-family="Times,serif" font-size="14.00">a</text>
</g>
<!-- http://w3id.org/oseg/ont/okhimg#slots&#45;&gt;http://w3id.org/oseg/ont/okhimg#slotIconMain -->
<g id="edge15" class="edge">
<title>http://w3id.org/oseg/ont/okhimg#slots&#45;&gt;http://w3id.org/oseg/ont/okhimg#slotIconMain</title>
<path fill="none" stroke="black" d="M514.15,-280.34C533.47,-281.67 554.38,-283.09 573.7,-284.38 637.53,-288.64 708.78,-293.26 766.81,-296.98"/>
<polygon fill="black" stroke="black" points="766.91,-300.49 777.11,-297.64 767.35,-293.51 766.91,-300.49"/>
<text text-anchor="middle" x="661.2" y="-299.18" font-family="Times,serif" font-size="14.00">schema:hasDefinedTerm</text>
</g>
<!-- http://w3id.org/oseg/ont/okhimg#tags -->
<g id="node8" class="node">
<title>http://w3id.org/oseg/ont/okhimg#tags</title>
<ellipse fill="none" stroke="#e377c2" cx="441.85" cy="-224.38" rx="73.58" ry="16.03"/>
<text text-anchor="middle" x="441.85" y="-220.68" font-family="Times,serif" font-size="14.00">okhimg:tags</text>
</g>
<!-- http://w3id.org/oseg/ont/okhimg#tags&#45;&gt;http://schema.org/DefinedTermSet -->
<g id="edge5" class="edge">
<title>http://w3id.org/oseg/ont/okhimg#tags&#45;&gt;http://schema.org/DefinedTermSet</title>
<path fill="none" stroke="black" d="M514.27,-227.37C576.29,-230.15 668.48,-234.7 748.7,-240.38 757.79,-241.02 767.22,-241.75 776.69,-242.52"/>
<polygon fill="black" stroke="black" points="776.7,-246.03 786.95,-243.36 777.27,-239.05 776.7,-246.03"/>
<text text-anchor="middle" x="661.2" y="-244.18" font-family="Times,serif" font-size="14.00">a</text>
</g>
<!-- http://w3id.org/oseg/ont/okhimg#tagArt -->
<g id="node11" class="node">
<title>http://w3id.org/oseg/ont/okhimg#tagArt</title>
<ellipse fill="none" stroke="#e377c2" cx="884.08" cy="-198.38" rx="84.29" ry="16.03"/>
<text text-anchor="middle" x="884.08" y="-194.68" font-family="Times,serif" font-size="14.00">okhimg:tagArt</text>
</g>
<!-- http://w3id.org/oseg/ont/okhimg#tags&#45;&gt;http://w3id.org/oseg/ont/okhimg#tagArt -->
<g id="edge10" class="edge">
<title>http://w3id.org/oseg/ont/okhimg#tags&#45;&gt;http://w3id.org/oseg/ont/okhimg#tagArt</title>
<path fill="none" stroke="black" d="M494.65,-212.95C513.87,-208.58 535.82,-203.43 555.7,-198.38 563.74,-196.34 565.47,-194.5 573.7,-193.38 650.76,-182.88 670.93,-191.93 748.7,-193.38 762.5,-193.64 777.1,-194.04 791.39,-194.51"/>
<polygon fill="black" stroke="black" points="791.61,-198.02 801.72,-194.87 791.85,-191.03 791.61,-198.02"/>
<text text-anchor="middle" x="661.2" y="-197.18" font-family="Times,serif" font-size="14.00">schema:hasDefinedTerm</text>
</g>
<!-- http://w3id.org/oseg/ont/okhimg -->
<g id="node9" class="node">
<title>http://w3id.org/oseg/ont/okhimg</title>
<ellipse fill="none" stroke="#e377c2" cx="70" cy="-218.38" rx="70.01" ry="16.03"/>
<text text-anchor="middle" x="70" y="-214.68" font-family="Times,serif" font-size="14.00">ns1:okhimg</text>
</g>
<!-- http://w3id.org/oseg/ont/okhimg&#45;&gt;http://w3id.org/oseg/ont/ods#Dataset -->
<g id="edge2" class="edge">
<title>http://w3id.org/oseg/ont/okhimg&#45;&gt;http://w3id.org/oseg/ont/ods#Dataset</title>
<path fill="none" stroke="black" d="M73.61,-234.89C80.3,-271.15 101.66,-357.68 158.01,-397.38 220.46,-441.38 310.67,-443.53 372.31,-438.34"/>
<polygon fill="black" stroke="black" points="372.7,-441.82 382.33,-437.41 372.05,-434.85 372.7,-441.82"/>
<text text-anchor="middle" x="234.01" y="-443.18" font-family="Times,serif" font-size="14.00">a</text>
</g>
<!-- http://w3id.org/oseg/ont/okhimg&#45;&gt;http://spdx.org/rdf/terms#SpdxItem -->
<g id="edge6" class="edge">
<title>http://w3id.org/oseg/ont/okhimg&#45;&gt;http://spdx.org/rdf/terms#SpdxItem</title>
<path fill="none" stroke="black" d="M77.85,-234.57C89.87,-260.79 117.39,-312.05 158.01,-336.38 214.62,-370.3 288.77,-380.04 346.94,-381.57"/>
<polygon fill="black" stroke="black" points="347.17,-385.07 357.23,-381.76 347.3,-378.07 347.17,-385.07"/>
<text text-anchor="middle" x="234.01" y="-382.18" font-family="Times,serif" font-size="14.00">a</text>
</g>
<!-- http://w3id.org/oseg/ont/okhimg&#45;&gt;http://w3id.org/oseg/ont/oseg&#45;profiles#Iopa -->
<g id="edge1" class="edge">
<title>http://w3id.org/oseg/ont/okhimg&#45;&gt;http://w3id.org/oseg/ont/oseg&#45;profiles#Iopa</title>
<path fill="none" stroke="black" d="M88.21,-234.33C104.79,-248.76 131.25,-269.38 158.01,-280.38 220.08,-305.91 295.27,-317.31 352.52,-322.38"/>
<polygon fill="black" stroke="black" points="352.38,-325.88 362.63,-323.22 352.96,-318.9 352.38,-325.88"/>
<text text-anchor="middle" x="234.01" y="-321.18" font-family="Times,serif" font-size="14.00">dcterms:publisher</text>
</g>
<!-- http://w3id.org/oseg/ont/okhimg&#45;&gt;http://w3id.org/oseg/ont/okhimg#slots -->
<g id="edge9" class="edge">
<title>http://w3id.org/oseg/ont/okhimg&#45;&gt;http://w3id.org/oseg/ont/okhimg#slots</title>
<path fill="none" stroke="black" d="M115.48,-230.76C129.05,-234.23 144.07,-237.77 158.01,-240.38 226.25,-253.18 304.66,-262.46 361.59,-268.24"/>
<polygon fill="black" stroke="black" points="361.31,-271.73 371.61,-269.24 362.01,-264.76 361.31,-271.73"/>
<text text-anchor="middle" x="234.01" y="-265.18" font-family="Times,serif" font-size="14.00">void:rootResource</text>
</g>
<!-- http://w3id.org/oseg/ont/okhimg&#45;&gt;http://w3id.org/oseg/ont/okhimg#tags -->
<g id="edge7" class="edge">
<title>http://w3id.org/oseg/ont/okhimg&#45;&gt;http://w3id.org/oseg/ont/okhimg#tags</title>
<path fill="none" stroke="black" d="M140.14,-219.5C201.86,-220.5 292.37,-221.97 357.96,-223.04"/>
<polygon fill="black" stroke="black" points="358.21,-226.54 368.27,-223.2 358.32,-219.54 358.21,-226.54"/>
<text text-anchor="middle" x="234.01" y="-225.18" font-family="Times,serif" font-size="14.00">void:rootResource</text>
</g>
<!-- http://w3id.org/oseg/ont/oseg&#45;profiles#robinVobruba -->
<g id="node10" class="node">
<title>http://w3id.org/oseg/ont/oseg&#45;profiles#robinVobruba</title>
<ellipse fill="none" stroke="#e377c2" cx="441.85" cy="-173.38" rx="113.69" ry="16.03"/>
<text text-anchor="middle" x="441.85" y="-169.68" font-family="Times,serif" font-size="14.00">osegprof:robinVob...</text>
</g>
<!-- http://w3id.org/oseg/ont/okhimg&#45;&gt;http://w3id.org/oseg/ont/oseg&#45;profiles#robinVobruba -->
<g id="edge8" class="edge">
<title>http://w3id.org/oseg/ont/okhimg&#45;&gt;http://w3id.org/oseg/ont/oseg&#45;profiles#robinVobruba</title>
<path fill="none" stroke="black" d="M120.98,-207.07C133.06,-204.61 145.96,-202.2 158.01,-200.38 214.02,-191.94 276.7,-185.64 328.8,-181.25"/>
<polygon fill="black" stroke="black" points="329.39,-184.72 339.07,-180.4 328.81,-177.74 329.39,-184.72"/>
<text text-anchor="middle" x="234.01" y="-204.18" font-family="Times,serif" font-size="14.00">dcterms:creator</text>
</g>
<!-- http://w3id.org/oseg/ont/okhimg&#45;&gt;http://w3id.org/oseg/ont/oseg&#45;profiles#robinVobruba -->
<g id="edge12" class="edge">
<title>http://w3id.org/oseg/ont/okhimg&#45;&gt;http://w3id.org/oseg/ont/oseg&#45;profiles#robinVobruba</title>
<path fill="none" stroke="black" d="M89.55,-202.55C106.22,-189.44 132.02,-171.79 158.01,-164.38 226.09,-144.97 307.14,-150.26 364.99,-158.6"/>
<polygon fill="black" stroke="black" points="364.75,-162.1 375.15,-160.13 365.79,-155.18 364.75,-162.1"/>
<text text-anchor="middle" x="234.01" y="-168.18" font-family="Times,serif" font-size="14.00">schema:creator</text>
</g>
<!-- http://spdx.org/licenses/AGPL&#45;3.0&#45;or&#45;later -->
<g id="node12" class="node">
<title>http://spdx.org/licenses/AGPL&#45;3.0&#45;or&#45;later</title>
<ellipse fill="none" stroke="#e377c2" cx="441.85" cy="-122.38" rx="111.95" ry="16.03"/>
<text text-anchor="middle" x="441.85" y="-118.68" font-family="Times,serif" font-size="14.00">spdxl:AGPL&#45;3.0&#45;or...</text>
</g>
<!-- http://w3id.org/oseg/ont/okhimg&#45;&gt;http://spdx.org/licenses/AGPL&#45;3.0&#45;or&#45;later -->
<g id="edge11" class="edge">
<title>http://w3id.org/oseg/ont/okhimg&#45;&gt;http://spdx.org/licenses/AGPL&#45;3.0&#45;or&#45;later</title>
<path fill="none" stroke="black" d="M81.32,-202.22C95.64,-181.44 123.7,-146.23 158.01,-131.38 220.53,-104.31 298.31,-103.93 356.47,-109.26"/>
<polygon fill="black" stroke="black" points="356.43,-112.78 366.73,-110.28 357.13,-105.81 356.43,-112.78"/>
<text text-anchor="middle" x="234.01" y="-135.18" font-family="Times,serif" font-size="14.00">spdx:licenseDeclared</text>
</g>
<!-- http://id.loc.gov/vocabulary/iso639&#45;1/en -->
<g id="node13" class="node">
<title>http://id.loc.gov/vocabulary/iso639&#45;1/en</title>
<ellipse fill="none" stroke="#e377c2" cx="441.85" cy="-71.38" rx="45.01" ry="16.03"/>
<text text-anchor="middle" x="441.85" y="-67.68" font-family="Times,serif" font-size="14.00">ns2:en</text>
</g>
<!-- http://w3id.org/oseg/ont/okhimg&#45;&gt;http://id.loc.gov/vocabulary/iso639&#45;1/en -->
<g id="edge14" class="edge">
<title>http://w3id.org/oseg/ont/okhimg&#45;&gt;http://id.loc.gov/vocabulary/iso639&#45;1/en</title>
<path fill="none" stroke="black" d="M76.4,-201.89C86.88,-172.84 113,-113.18 158.01,-87.38 231.02,-45.53 332.78,-52.47 392.25,-61.68"/>
<polygon fill="black" stroke="black" points="391.7,-65.14 402.13,-63.3 392.83,-58.23 391.7,-65.14"/>
<text text-anchor="middle" x="234.01" y="-91.18" font-family="Times,serif" font-size="14.00">dcterms:language</text>
</g>
<!-- http://w3id.org/oseg/ont/0.1.0/okhimg -->
<g id="node14" class="node">
<title>http://w3id.org/oseg/ont/0.1.0/okhimg</title>
<ellipse fill="none" stroke="#e377c2" cx="441.85" cy="-20.38" rx="70.01" ry="16.03"/>
<text text-anchor="middle" x="441.85" y="-16.68" font-family="Times,serif" font-size="14.00">ns3:okhimg</text>
</g>
<!-- http://w3id.org/oseg/ont/okhimg&#45;&gt;http://w3id.org/oseg/ont/0.1.0/okhimg -->
<g id="edge16" class="edge">
<title>http://w3id.org/oseg/ont/okhimg&#45;&gt;http://w3id.org/oseg/ont/0.1.0/okhimg</title>
<path fill="none" stroke="black" d="M73.27,-201.94C79.35,-164.98 99.69,-75.49 158.01,-36.38 224.27,8.05 320.13,2.6 381.47,-7.36"/>
<polygon fill="black" stroke="black" points="380.93,-10.82 391.38,-9.06 382.11,-3.92 380.93,-10.82"/>
<text text-anchor="middle" x="234.01" y="-40.18" font-family="Times,serif" font-size="14.00">owl:versionIRI</text>
</g>
<!-- http://w3id.org/oseg/ont/okhimg#tagArt&#45;&gt;http://schema.org/DefinedTerm -->
<g id="edge13" class="edge">
<title>http://w3id.org/oseg/ont/okhimg#tagArt&#45;&gt;http://schema.org/DefinedTerm</title>
<path fill="none" stroke="black" d="M941.09,-210.45C983.85,-219.66 1043.16,-232.44 1089.78,-242.49"/>
<polygon fill="black" stroke="black" points="1089.31,-245.97 1099.83,-244.65 1090.79,-239.12 1089.31,-245.97"/>
<text text-anchor="middle" x="1023.95" y="-232.18" font-family="Times,serif" font-size="14.00">a</text>
</g>
</g>
</svg>
