<?xml version="1.0" encoding="UTF-8" standalone="no"?>
<!DOCTYPE svg PUBLIC "-//W3C//DTD SVG 1.1//EN"
 "http://www.w3.org/Graphics/SVG/1.1/DTD/svg11.dtd">
<!-- Generated by graphviz version 2.43.0 (0)
 -->
<!-- Title: G Pages: 1 -->
<svg width="2362pt" height="1727pt"
 viewBox="0.00 0.00 2362.00 1727.00" xmlns="http://www.w3.org/2000/svg" xmlns:xlink="http://www.w3.org/1999/xlink">
<g id="graph0" class="graph" transform="scale(1 1) rotate(0) translate(4 1723)">
<title>G</title>
<polygon fill="white" stroke="transparent" points="-4,4 -4,-1723 2358,-1723 2358,4 -4,4"/>
<!-- http://w3id.org/oseg/ont/otrl#ODRL -->
<g id="node1" class="node">
<title>http://w3id.org/oseg/ont/otrl#ODRL</title>
<ellipse fill="none" stroke="#e377c2" cx="1332.84" cy="-661.53" rx="62.87" ry="16.03"/>
<text text-anchor="middle" x="1332.84" y="-657.83" font-family="Times,serif" font-size="14.00">otrl:ODRL</text>
</g>
<!-- http://w3id.org/oseg/ont/otrl#OTRL -->
<g id="node2" class="node">
<title>http://w3id.org/oseg/ont/otrl#OTRL</title>
<ellipse fill="none" stroke="#e377c2" cx="833.38" cy="-1069.77" rx="60.62" ry="16.03"/>
<text text-anchor="middle" x="833.38" y="-1066.07" font-family="Times,serif" font-size="14.00">otrl:OTRL</text>
</g>
<!-- http://spdx.org/rdf/terms#SpdxItem -->
<g id="node3" class="node">
<title>http://spdx.org/rdf/terms#SpdxItem</title>
<ellipse fill="none" stroke="#1f77b4" cx="1825.52" cy="-1410.09" rx="87.86" ry="16.03"/>
<text text-anchor="middle" x="1825.52" y="-1406.39" font-family="Times,serif" font-size="14.00">spdx:SpdxItem</text>
</g>
<!-- http://w3id.org/oseg/ont/oseg&#45;profiles#Iopa -->
<g id="node4" class="node">
<title>http://w3id.org/oseg/ont/oseg&#45;profiles#Iopa</title>
<ellipse fill="none" stroke="#e377c2" cx="2137.32" cy="-1620.03" rx="80.72" ry="16.03"/>
<text text-anchor="middle" x="2137.32" y="-1616.33" font-family="Times,serif" font-size="14.00">osegprof:Iopa</text>
</g>
<!-- http://www.w3.org/1999/02/22&#45;rdf&#45;syntax&#45;ns#langString -->
<g id="node5" class="node">
<title>http://www.w3.org/1999/02/22&#45;rdf&#45;syntax&#45;ns#langString</title>
<ellipse fill="none" stroke="#e377c2" cx="946.47" cy="-688.39" rx="83.38" ry="16.03"/>
<text text-anchor="middle" x="946.47" y="-684.69" font-family="Times,serif" font-size="14.00">rdf:langString</text>
</g>
<!-- http://w3id.org/oseg/ont/otrl#Odrl4 -->
<g id="node6" class="node">
<title>http://w3id.org/oseg/ont/otrl#Odrl4</title>
<ellipse fill="none" stroke="#e377c2" cx="1597.23" cy="-1074.83" rx="61.54" ry="16.03"/>
<text text-anchor="middle" x="1597.23" y="-1071.13" font-family="Times,serif" font-size="14.00">otrl:Odrl4</text>
</g>
<!-- http://w3id.org/oseg/ont/otrl#ODRL4 -->
<g id="node20" class="node">
<title>http://w3id.org/oseg/ont/otrl#ODRL4</title>
<ellipse fill="none" stroke="#e377c2" cx="1500.51" cy="-867.62" rx="69.09" ry="16.03"/>
<text text-anchor="middle" x="1500.51" y="-863.92" font-family="Times,serif" font-size="14.00">otrl:ODRL4</text>
</g>
<!-- http://w3id.org/oseg/ont/otrl#Odrl4&#45;&gt;http://w3id.org/oseg/ont/otrl#ODRL4 -->
<g id="edge20" class="edge">
<title>http://w3id.org/oseg/ont/otrl#Odrl4&#45;&gt;http://w3id.org/oseg/ont/otrl#ODRL4</title>
<path fill="none" stroke="black" d="M1589.64,-1058.57C1572.87,-1022.63 1532.53,-936.23 1512.38,-893.06"/>
<polygon fill="black" stroke="black" points="1515.46,-891.38 1508.06,-883.8 1509.12,-894.34 1515.46,-891.38"/>
<text text-anchor="middle" x="1471.01" y="-979.61" font-family="Times,serif" font-size="14.00">schema:supersededBy</text>
</g>
<!-- http://w3id.org/oseg/ont/otrl#OTRL4 -->
<g id="node7" class="node">
<title>http://w3id.org/oseg/ont/otrl#OTRL4</title>
<ellipse fill="none" stroke="#e377c2" cx="942.54" cy="-1332.17" rx="67.35" ry="16.03"/>
<text text-anchor="middle" x="942.54" y="-1328.47" font-family="Times,serif" font-size="14.00">otrl:OTRL4</text>
</g>
<!-- http://w3id.org/oseg/ont/otrl#OTRL4&#45;&gt;http://w3id.org/oseg/ont/otrl#OTRL -->
<g id="edge4" class="edge">
<title>http://w3id.org/oseg/ont/otrl#OTRL4&#45;&gt;http://w3id.org/oseg/ont/otrl#OTRL</title>
<path fill="none" stroke="black" d="M935.71,-1315.75C917.29,-1271.48 866.49,-1149.36 844.16,-1095.67"/>
<polygon fill="black" stroke="black" points="847.28,-1094.07 840.21,-1086.18 840.82,-1096.75 847.28,-1094.07"/>
<text text-anchor="middle" x="885.43" y="-1209.51" font-family="Times,serif" font-size="14.00">a</text>
</g>
<!-- http://w3id.org/oseg/ont/1.1.0/otrl -->
<g id="node8" class="node">
<title>http://w3id.org/oseg/ont/1.1.0/otrl</title>
<ellipse fill="none" stroke="#e377c2" cx="2028.15" cy="-1398.42" rx="50.82" ry="16.03"/>
<text text-anchor="middle" x="2028.15" y="-1394.72" font-family="Times,serif" font-size="14.00">ns1:otrl</text>
</g>
<!-- http://w3id.org/oseg/ont/otrl#OTRL3 -->
<g id="node9" class="node">
<title>http://w3id.org/oseg/ont/otrl#OTRL3</title>
<ellipse fill="none" stroke="#e377c2" cx="630.46" cy="-1267.63" rx="67.35" ry="16.03"/>
<text text-anchor="middle" x="630.46" y="-1263.93" font-family="Times,serif" font-size="14.00">otrl:OTRL3</text>
</g>
<!-- http://w3id.org/oseg/ont/otrl#OTRL3&#45;&gt;http://w3id.org/oseg/ont/otrl#OTRL -->
<g id="edge29" class="edge">
<title>http://w3id.org/oseg/ont/otrl#OTRL3&#45;&gt;http://w3id.org/oseg/ont/otrl#OTRL</title>
<path fill="none" stroke="black" d="M646.72,-1251.77C682.49,-1216.9 768.12,-1133.41 809.79,-1092.77"/>
<polygon fill="black" stroke="black" points="812.33,-1095.19 817.04,-1085.7 807.44,-1090.18 812.33,-1095.19"/>
<text text-anchor="middle" x="723.76" y="-1176.07" font-family="Times,serif" font-size="14.00">a</text>
</g>
<!-- http://w3id.org/oseg/ont/oseg&#45;profiles#martinHaeuer -->
<g id="node10" class="node">
<title>http://w3id.org/oseg/ont/oseg&#45;profiles#martinHaeuer</title>
<ellipse fill="none" stroke="#e377c2" cx="2165.52" cy="-1491.97" rx="116.85" ry="16.03"/>
<text text-anchor="middle" x="2165.52" y="-1488.27" font-family="Times,serif" font-size="14.00">osegprof:martinHa...</text>
</g>
<!-- http://w3id.org/oseg/ont/otrl -->
<g id="node11" class="node">
<title>http://w3id.org/oseg/ont/otrl</title>
<ellipse fill="none" stroke="#e377c2" cx="2034.3" cy="-1449.96" rx="50.82" ry="16.03"/>
<text text-anchor="middle" x="2034.3" y="-1446.26" font-family="Times,serif" font-size="14.00">ns2:otrl</text>
</g>
<!-- http://w3id.org/oseg/ont/otrl&#45;&gt;http://spdx.org/rdf/terms#SpdxItem -->
<g id="edge38" class="edge">
<title>http://w3id.org/oseg/ont/otrl&#45;&gt;http://spdx.org/rdf/terms#SpdxItem</title>
<path fill="none" stroke="black" d="M1990.53,-1441.61C1963.34,-1436.41 1927.75,-1429.62 1896.59,-1423.67"/>
<polygon fill="black" stroke="black" points="1897.13,-1420.21 1886.65,-1421.77 1895.81,-1427.08 1897.13,-1420.21"/>
<text text-anchor="middle" x="1939.06" y="-1436.44" font-family="Times,serif" font-size="14.00">a</text>
</g>
<!-- http://w3id.org/oseg/ont/otrl&#45;&gt;http://w3id.org/oseg/ont/oseg&#45;profiles#Iopa -->
<g id="edge2" class="edge">
<title>http://w3id.org/oseg/ont/otrl&#45;&gt;http://w3id.org/oseg/ont/oseg&#45;profiles#Iopa</title>
<path fill="none" stroke="black" d="M2043.99,-1465.96C2061.97,-1495.64 2100.61,-1559.42 2122.1,-1594.91"/>
<polygon fill="black" stroke="black" points="2119.25,-1596.96 2127.43,-1603.7 2125.24,-1593.33 2119.25,-1596.96"/>
<text text-anchor="middle" x="2148.55" y="-1534.24" font-family="Times,serif" font-size="14.00">dcterms:publisher</text>
</g>
<!-- http://w3id.org/oseg/ont/otrl&#45;&gt;http://w3id.org/oseg/ont/1.1.0/otrl -->
<g id="edge5" class="edge">
<title>http://w3id.org/oseg/ont/otrl&#45;&gt;http://w3id.org/oseg/ont/1.1.0/otrl</title>
<path fill="none" stroke="black" d="M2032.35,-1433.66C2032.02,-1430.84 2031.66,-1427.84 2031.3,-1424.83"/>
<polygon fill="black" stroke="black" points="2034.77,-1424.32 2030.11,-1414.8 2027.81,-1425.15 2034.77,-1424.32"/>
<text text-anchor="middle" x="1980.33" y="-1418.04" font-family="Times,serif" font-size="14.00">owl:versionIRI</text>
</g>
<!-- http://w3id.org/oseg/ont/otrl&#45;&gt;http://w3id.org/oseg/ont/oseg&#45;profiles#martinHaeuer -->
<g id="edge7" class="edge">
<title>http://w3id.org/oseg/ont/otrl&#45;&gt;http://w3id.org/oseg/ont/oseg&#45;profiles#martinHaeuer</title>
<path fill="none" stroke="black" d="M2060.1,-1464.12C2069.2,-1467.69 2079.96,-1471.52 2091.05,-1475.18"/>
<polygon fill="black" stroke="black" points="2090.27,-1478.61 2100.86,-1478.35 2092.42,-1471.95 2090.27,-1478.61"/>
<text text-anchor="middle" x="2133.07" y="-1458.45" font-family="Times,serif" font-size="14.00">dcterms:creator</text>
</g>
<!-- http://w3id.org/oseg/ont/otrl&#45;&gt;http://w3id.org/oseg/ont/oseg&#45;profiles#martinHaeuer -->
<g id="edge10" class="edge">
<title>http://w3id.org/oseg/ont/otrl&#45;&gt;http://w3id.org/oseg/ont/oseg&#45;profiles#martinHaeuer</title>
<path fill="none" stroke="black" d="M2079.21,-1457.64C2094.31,-1461.94 2111.03,-1467.31 2125.7,-1472.57"/>
<polygon fill="black" stroke="black" points="2124.9,-1476 2135.49,-1476.18 2127.32,-1469.44 2124.9,-1476"/>
<text text-anchor="middle" x="2046.96" y="-1468.91" font-family="Times,serif" font-size="14.00">schema:creator</text>
</g>
<!-- http://spdx.org/licenses/GPL&#45;3.0&#45;or&#45;later -->
<g id="node13" class="node">
<title>http://spdx.org/licenses/GPL&#45;3.0&#45;or&#45;later</title>
<ellipse fill="none" stroke="#e377c2" cx="1879.8" cy="-1534.11" rx="108.79" ry="16.03"/>
<text text-anchor="middle" x="1879.8" y="-1530.41" font-family="Times,serif" font-size="14.00">spdxl:GPL&#45;3.0&#45;or&#45;...</text>
</g>
<!-- http://w3id.org/oseg/ont/otrl&#45;&gt;http://spdx.org/licenses/GPL&#45;3.0&#45;or&#45;later -->
<g id="edge11" class="edge">
<title>http://w3id.org/oseg/ont/otrl&#45;&gt;http://spdx.org/licenses/GPL&#45;3.0&#45;or&#45;later</title>
<path fill="none" stroke="black" d="M2008.44,-1464.05C1983.56,-1477.6 1945.66,-1498.24 1917.44,-1513.62"/>
<polygon fill="black" stroke="black" points="1915.75,-1510.55 1908.64,-1518.41 1919.1,-1516.7 1915.75,-1510.55"/>
<text text-anchor="middle" x="1886.94" y="-1492.63" font-family="Times,serif" font-size="14.00">spdx:licenseDeclared</text>
</g>
<!-- http://id.loc.gov/vocabulary/iso639&#45;1/en -->
<g id="node14" class="node">
<title>http://id.loc.gov/vocabulary/iso639&#45;1/en</title>
<ellipse fill="none" stroke="#e377c2" cx="2019.7" cy="-1280.57" rx="45.01" ry="16.03"/>
<text text-anchor="middle" x="2019.7" y="-1276.87" font-family="Times,serif" font-size="14.00">ns3:en</text>
</g>
<!-- http://w3id.org/oseg/ont/otrl&#45;&gt;http://id.loc.gov/vocabulary/iso639&#45;1/en -->
<g id="edge12" class="edge">
<title>http://w3id.org/oseg/ont/otrl&#45;&gt;http://id.loc.gov/vocabulary/iso639&#45;1/en</title>
<path fill="none" stroke="black" d="M2032.87,-1433.41C2030.34,-1403.99 2025.02,-1342.36 2021.97,-1307"/>
<polygon fill="black" stroke="black" points="2025.45,-1306.6 2021.11,-1296.94 2018.48,-1307.2 2025.45,-1306.6"/>
<text text-anchor="middle" x="1962.92" y="-1359.01" font-family="Times,serif" font-size="14.00">dcterms:language</text>
</g>
<!-- http://w3id.org/oseg/ont/oseg&#45;profiles#robinVobruba -->
<g id="node24" class="node">
<title>http://w3id.org/oseg/ont/oseg&#45;profiles#robinVobruba</title>
<ellipse fill="none" stroke="#e377c2" cx="2240.29" cy="-1327.3" rx="113.69" ry="16.03"/>
<text text-anchor="middle" x="2240.29" y="-1323.6" font-family="Times,serif" font-size="14.00">osegprof:robinVob...</text>
</g>
<!-- http://w3id.org/oseg/ont/otrl&#45;&gt;http://w3id.org/oseg/ont/oseg&#45;profiles#robinVobruba -->
<g id="edge32" class="edge">
<title>http://w3id.org/oseg/ont/otrl&#45;&gt;http://w3id.org/oseg/ont/oseg&#45;profiles#robinVobruba</title>
<path fill="none" stroke="black" d="M2065.42,-1437.07C2105.6,-1416.07 2174.78,-1374.9 2213,-1349.27"/>
<polygon fill="black" stroke="black" points="2215.28,-1351.95 2221.57,-1343.42 2211.34,-1346.17 2215.28,-1351.95"/>
<text text-anchor="middle" x="2194.71" y="-1396.97" font-family="Times,serif" font-size="14.00">schema:creator</text>
</g>
<!-- http://w3id.org/oseg/ont/otrl&#45;&gt;http://w3id.org/oseg/ont/oseg&#45;profiles#robinVobruba -->
<g id="edge40" class="edge">
<title>http://w3id.org/oseg/ont/otrl&#45;&gt;http://w3id.org/oseg/ont/oseg&#45;profiles#robinVobruba</title>
<path fill="none" stroke="black" d="M2051.91,-1434.61C2083.41,-1412.51 2150.15,-1372.23 2195.14,-1347.69"/>
<polygon fill="black" stroke="black" points="2196.97,-1350.68 2204.11,-1342.86 2193.64,-1344.52 2196.97,-1350.68"/>
<text text-anchor="middle" x="2181.02" y="-1379.95" font-family="Times,serif" font-size="14.00">dcterms:creator</text>
</g>
<!-- http://w3id.org/oseg/ont/otrl#OTRL1 -->
<g id="node12" class="node">
<title>http://w3id.org/oseg/ont/otrl#OTRL1</title>
<ellipse fill="none" stroke="#e377c2" cx="567.65" cy="-1137.19" rx="67.35" ry="16.03"/>
<text text-anchor="middle" x="567.65" y="-1133.49" font-family="Times,serif" font-size="14.00">otrl:OTRL1</text>
</g>
<!-- http://w3id.org/oseg/ont/otrl#OTRL1&#45;&gt;http://w3id.org/oseg/ont/otrl#OTRL -->
<g id="edge19" class="edge">
<title>http://w3id.org/oseg/ont/otrl#OTRL1&#45;&gt;http://w3id.org/oseg/ont/otrl#OTRL</title>
<path fill="none" stroke="black" d="M614.24,-1125.37C660.33,-1113.67 730.83,-1095.79 779.36,-1083.48"/>
<polygon fill="black" stroke="black" points="780.23,-1086.87 789.06,-1081.01 778.5,-1080.08 780.23,-1086.87"/>
<text text-anchor="middle" x="692.3" y="-1093.22" font-family="Times,serif" font-size="14.00">a</text>
</g>
<!-- http://w3id.org/oseg/ont/otrl#ODRL3Star -->
<g id="node15" class="node">
<title>http://w3id.org/oseg/ont/otrl#ODRL3Star</title>
<ellipse fill="none" stroke="#e377c2" cx="1627.32" cy="-668.81" rx="90.52" ry="16.03"/>
<text text-anchor="middle" x="1627.32" y="-665.11" font-family="Times,serif" font-size="14.00">otrl:ODRL3Star</text>
</g>
<!-- http://w3id.org/oseg/ont/otrl#ODRL3Star&#45;&gt;http://w3id.org/oseg/ont/otrl#ODRL -->
<g id="edge13" class="edge">
<title>http://w3id.org/oseg/ont/otrl#ODRL3Star&#45;&gt;http://w3id.org/oseg/ont/otrl#ODRL</title>
<path fill="none" stroke="black" d="M1537.36,-666.59C1495.2,-665.55 1445.6,-664.32 1405.81,-663.34"/>
<polygon fill="black" stroke="black" points="1405.74,-659.83 1395.65,-663.09 1405.56,-666.83 1405.74,-659.83"/>
<text text-anchor="middle" x="1467.09" y="-668.76" font-family="Times,serif" font-size="14.00">a</text>
</g>
<!-- http://w3id.org/oseg/ont/otrl#OTRL6 -->
<g id="node16" class="node">
<title>http://w3id.org/oseg/ont/otrl#OTRL6</title>
<ellipse fill="none" stroke="#e377c2" cx="577.12" cy="-989.34" rx="67.35" ry="16.03"/>
<text text-anchor="middle" x="577.12" y="-985.64" font-family="Times,serif" font-size="14.00">otrl:OTRL6</text>
</g>
<!-- http://w3id.org/oseg/ont/otrl#OTRL6&#45;&gt;http://w3id.org/oseg/ont/otrl#OTRL -->
<g id="edge36" class="edge">
<title>http://w3id.org/oseg/ont/otrl#OTRL6&#45;&gt;http://w3id.org/oseg/ont/otrl#OTRL</title>
<path fill="none" stroke="black" d="M618.3,-1002.26C663.43,-1016.43 735.83,-1039.15 783.99,-1054.27"/>
<polygon fill="black" stroke="black" points="782.99,-1057.62 793.58,-1057.28 785.08,-1050.94 782.99,-1057.62"/>
<text text-anchor="middle" x="696.64" y="-1032.06" font-family="Times,serif" font-size="14.00">a</text>
</g>
<!-- http://w3id.org/oseg/ont/otrl#ODRL3 -->
<g id="node17" class="node">
<title>http://w3id.org/oseg/ont/otrl#ODRL3</title>
<ellipse fill="none" stroke="#e377c2" cx="1186.62" cy="-432.02" rx="69.09" ry="16.03"/>
<text text-anchor="middle" x="1186.62" y="-428.32" font-family="Times,serif" font-size="14.00">otrl:ODRL3</text>
</g>
<!-- http://w3id.org/oseg/ont/otrl#ODRL3&#45;&gt;http://w3id.org/oseg/ont/otrl#ODRL -->
<g id="edge27" class="edge">
<title>http://w3id.org/oseg/ont/otrl#ODRL3&#45;&gt;http://w3id.org/oseg/ont/otrl#ODRL</title>
<path fill="none" stroke="black" d="M1196.9,-448.16C1222.07,-487.67 1286.91,-589.45 1317.03,-636.72"/>
<polygon fill="black" stroke="black" points="1314.24,-638.86 1322.56,-645.41 1320.14,-635.1 1314.24,-638.86"/>
<text text-anchor="middle" x="1252.46" y="-546.24" font-family="Times,serif" font-size="14.00">a</text>
</g>
<!-- http://w3id.org/oseg/ont/otrl#ODRL1 -->
<g id="node18" class="node">
<title>http://w3id.org/oseg/ont/otrl#ODRL1</title>
<ellipse fill="none" stroke="#e377c2" cx="1521.65" cy="-475.48" rx="69.09" ry="16.03"/>
<text text-anchor="middle" x="1521.65" y="-471.78" font-family="Times,serif" font-size="14.00">otrl:ODRL1</text>
</g>
<!-- http://w3id.org/oseg/ont/otrl#ODRL1&#45;&gt;http://w3id.org/oseg/ont/otrl#ODRL -->
<g id="edge16" class="edge">
<title>http://w3id.org/oseg/ont/otrl#ODRL1&#45;&gt;http://w3id.org/oseg/ont/otrl#ODRL</title>
<path fill="none" stroke="black" d="M1505.55,-491.34C1472.11,-524.3 1395,-600.28 1356.13,-638.58"/>
<polygon fill="black" stroke="black" points="1353.56,-636.2 1348.89,-645.71 1358.47,-641.19 1353.56,-636.2"/>
<text text-anchor="middle" x="1426.34" y="-568.76" font-family="Times,serif" font-size="14.00">a</text>
</g>
<!-- http://w3id.org/oseg/ont/otrl#ODRL2 -->
<g id="node19" class="node">
<title>http://w3id.org/oseg/ont/otrl#ODRL2</title>
<ellipse fill="none" stroke="#e377c2" cx="1400" cy="-398.98" rx="69.09" ry="16.03"/>
<text text-anchor="middle" x="1400" y="-395.28" font-family="Times,serif" font-size="14.00">otrl:ODRL2</text>
</g>
<!-- http://w3id.org/oseg/ont/otrl#ODRL2&#45;&gt;http://w3id.org/oseg/ont/otrl#ODRL -->
<g id="edge26" class="edge">
<title>http://w3id.org/oseg/ont/otrl#ODRL2&#45;&gt;http://w3id.org/oseg/ont/otrl#ODRL</title>
<path fill="none" stroke="black" d="M1395.8,-415.41C1384.49,-459.61 1353.34,-581.39 1339.55,-635.29"/>
<polygon fill="black" stroke="black" points="1336.12,-634.56 1337.03,-645.12 1342.9,-636.3 1336.12,-634.56"/>
<text text-anchor="middle" x="1363.17" y="-529.15" font-family="Times,serif" font-size="14.00">a</text>
</g>
<!-- http://w3id.org/oseg/ont/otrl#ODRL4&#45;&gt;http://w3id.org/oseg/ont/otrl#ODRL -->
<g id="edge21" class="edge">
<title>http://w3id.org/oseg/ont/otrl#ODRL4&#45;&gt;http://w3id.org/oseg/ont/otrl#ODRL</title>
<path fill="none" stroke="black" d="M1487.35,-851.45C1457.97,-815.33 1386.88,-727.96 1352.33,-685.5"/>
<polygon fill="black" stroke="black" points="1354.96,-683.18 1345.93,-677.63 1349.53,-687.6 1354.96,-683.18"/>
<text text-anchor="middle" x="1415.34" y="-772.27" font-family="Times,serif" font-size="14.00">a</text>
</g>
<!-- http://w3id.org/oseg/ont/otrl#OTRL2 -->
<g id="node21" class="node">
<title>http://w3id.org/oseg/ont/otrl#OTRL2</title>
<ellipse fill="none" stroke="#e377c2" cx="730.96" cy="-857.32" rx="67.35" ry="16.03"/>
<text text-anchor="middle" x="730.96" y="-853.62" font-family="Times,serif" font-size="14.00">otrl:OTRL2</text>
</g>
<!-- http://w3id.org/oseg/ont/otrl#OTRL2&#45;&gt;http://w3id.org/oseg/ont/otrl#OTRL -->
<g id="edge22" class="edge">
<title>http://w3id.org/oseg/ont/otrl#OTRL2&#45;&gt;http://w3id.org/oseg/ont/otrl#OTRL</title>
<path fill="none" stroke="black" d="M738.83,-873.64C756.55,-910.4 799.72,-999.95 821.05,-1044.18"/>
<polygon fill="black" stroke="black" points="817.99,-1045.91 825.49,-1053.4 824.3,-1042.87 817.99,-1045.91"/>
<text text-anchor="middle" x="775.44" y="-962.71" font-family="Times,serif" font-size="14.00">a</text>
</g>
<!-- http://w3id.org/oseg/ont/otrl#goal -->
<g id="node22" class="node">
<title>http://w3id.org/oseg/ont/otrl#goal</title>
<ellipse fill="none" stroke="#e377c2" cx="1064.93" cy="-847.43" rx="54.39" ry="16.03"/>
<text text-anchor="middle" x="1064.93" y="-843.73" font-family="Times,serif" font-size="14.00">otrl:goal</text>
</g>
<!-- http://w3id.org/oseg/ont/otrl#goal&#45;&gt;http://w3id.org/oseg/ont/otrl#ODRL -->
<g id="edge28" class="edge">
<title>http://w3id.org/oseg/ont/otrl#goal&#45;&gt;http://w3id.org/oseg/ont/otrl#ODRL</title>
<path fill="none" stroke="black" d="M1086.85,-832.22C1134.54,-799.13 1247.78,-720.56 1302.37,-682.67"/>
<polygon fill="black" stroke="black" points="1304.39,-685.53 1310.61,-676.96 1300.4,-679.78 1304.39,-685.53"/>
<text text-anchor="middle" x="1116.61" y="-761.25" font-family="Times,serif" font-size="14.00">dcam:domainIncludes</text>
</g>
<!-- http://w3id.org/oseg/ont/otrl#goal&#45;&gt;http://w3id.org/oseg/ont/otrl#OTRL -->
<g id="edge17" class="edge">
<title>http://w3id.org/oseg/ont/otrl#goal&#45;&gt;http://w3id.org/oseg/ont/otrl#OTRL</title>
<path fill="none" stroke="black" d="M1048.65,-863.06C1008.47,-901.64 904.47,-1001.51 857.29,-1046.81"/>
<polygon fill="black" stroke="black" points="854.75,-1044.4 849.96,-1053.85 859.59,-1049.45 854.75,-1044.4"/>
<text text-anchor="middle" x="874.97" y="-958.74" font-family="Times,serif" font-size="14.00">dcam:domainIncludes</text>
</g>
<!-- http://w3id.org/oseg/ont/otrl#goal&#45;&gt;http://www.w3.org/1999/02/22&#45;rdf&#45;syntax&#45;ns#langString -->
<g id="edge37" class="edge">
<title>http://w3id.org/oseg/ont/otrl#goal&#45;&gt;http://www.w3.org/1999/02/22&#45;rdf&#45;syntax&#45;ns#langString</title>
<path fill="none" stroke="black" d="M1052.92,-831.3C1032.08,-803.32 989.1,-745.62 964.61,-712.74"/>
<polygon fill="black" stroke="black" points="967.29,-710.49 958.51,-704.56 961.68,-714.67 967.29,-710.49"/>
<text text-anchor="middle" x="987.76" y="-775.82" font-family="Times,serif" font-size="14.00">range</text>
</g>
<!-- http://w3id.org/oseg/ont/otrl#OTRL5 -->
<g id="node23" class="node">
<title>http://w3id.org/oseg/ont/otrl#OTRL5</title>
<ellipse fill="none" stroke="#e377c2" cx="778.13" cy="-1322.84" rx="67.35" ry="16.03"/>
<text text-anchor="middle" x="778.13" y="-1319.14" font-family="Times,serif" font-size="14.00">otrl:OTRL5</text>
</g>
<!-- http://w3id.org/oseg/ont/otrl#OTRL5&#45;&gt;http://w3id.org/oseg/ont/otrl#OTRL -->
<g id="edge39" class="edge">
<title>http://w3id.org/oseg/ont/otrl#OTRL5&#45;&gt;http://w3id.org/oseg/ont/otrl#OTRL</title>
<path fill="none" stroke="black" d="M781.75,-1306.24C791.14,-1263.23 816.31,-1147.97 827.67,-1095.92"/>
<polygon fill="black" stroke="black" points="831.1,-1096.62 829.82,-1086.11 824.26,-1095.13 831.1,-1096.62"/>
<text text-anchor="middle" x="800.21" y="-1204.88" font-family="Times,serif" font-size="14.00">a</text>
</g>
<!-- http://w3id.org/oseg/ont/otrl#exitCriteria -->
<g id="node25" class="node">
<title>http://w3id.org/oseg/ont/otrl#exitCriteria</title>
<ellipse fill="none" stroke="#e377c2" cx="1097.63" cy="-892.74" rx="91.43" ry="16.03"/>
<text text-anchor="middle" x="1097.63" y="-889.04" font-family="Times,serif" font-size="14.00">otrl:exitCriteria</text>
</g>
<!-- http://w3id.org/oseg/ont/otrl#exitCriteria&#45;&gt;http://w3id.org/oseg/ont/otrl#ODRL -->
<g id="edge8" class="edge">
<title>http://w3id.org/oseg/ont/otrl#exitCriteria&#45;&gt;http://w3id.org/oseg/ont/otrl#ODRL</title>
<path fill="none" stroke="black" d="M1114.17,-876.49C1155.17,-836.17 1261.65,-731.51 1309.25,-684.72"/>
<polygon fill="black" stroke="black" points="1311.95,-686.97 1316.63,-677.47 1307.04,-681.98 1311.95,-686.97"/>
<text text-anchor="middle" x="1133.71" y="-784.4" font-family="Times,serif" font-size="14.00">dcam:domainIncludes</text>
</g>
<!-- http://w3id.org/oseg/ont/otrl#exitCriteria&#45;&gt;http://w3id.org/oseg/ont/otrl#OTRL -->
<g id="edge34" class="edge">
<title>http://w3id.org/oseg/ont/otrl#exitCriteria&#45;&gt;http://w3id.org/oseg/ont/otrl#OTRL</title>
<path fill="none" stroke="black" d="M1073.71,-908.77C1025.82,-940.85 918.15,-1012.98 864.7,-1048.79"/>
<polygon fill="black" stroke="black" points="862.66,-1045.94 856.3,-1054.42 866.56,-1051.76 862.66,-1045.94"/>
<text text-anchor="middle" x="891.21" y="-982.58" font-family="Times,serif" font-size="14.00">dcam:domainIncludes</text>
</g>
<!-- http://w3id.org/oseg/ont/otrl#exitCriteria&#45;&gt;http://www.w3.org/1999/02/22&#45;rdf&#45;syntax&#45;ns#langString -->
<g id="edge1" class="edge">
<title>http://w3id.org/oseg/ont/otrl#exitCriteria&#45;&gt;http://www.w3.org/1999/02/22&#45;rdf&#45;syntax&#45;ns#langString</title>
<path fill="none" stroke="black" d="M1085.51,-876.37C1058.97,-840.48 995.57,-754.76 964.39,-712.62"/>
<polygon fill="black" stroke="black" points="967.19,-710.52 958.43,-704.56 961.57,-714.68 967.19,-710.52"/>
<text text-anchor="middle" x="1003.95" y="-798.29" font-family="Times,serif" font-size="14.00">range</text>
</g>
<!-- http://w3id.org/oseg/ont/otrl#Odrl5 -->
<g id="node26" class="node">
<title>http://w3id.org/oseg/ont/otrl#Odrl5</title>
<ellipse fill="none" stroke="black" cx="1627.85" cy="-1122.29" rx="191.75" ry="16.03"/>
<text text-anchor="middle" x="1627.85" y="-1118.59" font-family="Times,serif" font-size="14.00">http://w3id.org/oseg/ont/otrl#Odrl5</text>
</g>
<!-- http://w3id.org/oseg/ont/otrl#Odrl5&#45;&gt;http://w3id.org/oseg/ont/otrl#Odrl4 -->
<g id="edge3" class="edge">
<title>http://w3id.org/oseg/ont/otrl#Odrl5&#45;&gt;http://w3id.org/oseg/ont/otrl#Odrl4</title>
<path fill="none" stroke="black" d="M1617.31,-1105.95C1615.95,-1103.84 1614.53,-1101.64 1613.11,-1099.43"/>
<polygon fill="black" stroke="black" points="1616.05,-1097.53 1607.68,-1091.03 1610.16,-1101.33 1616.05,-1097.53"/>
<text text-anchor="middle" x="1695.21" y="-1091.49" font-family="Times,serif" font-size="14.00">schema:supersededBy</text>
</g>
<!-- http://w3id.org/oseg/ont/otrl#Otrl3 -->
<g id="node27" class="node">
<title>http://w3id.org/oseg/ont/otrl#Otrl3</title>
<ellipse fill="none" stroke="black" cx="381.46" cy="-1558.4" rx="189.51" ry="16.03"/>
<text text-anchor="middle" x="381.46" y="-1554.7" font-family="Times,serif" font-size="14.00">http://w3id.org/oseg/ont/otrl#Otrl3</text>
</g>
<!-- http://w3id.org/oseg/ont/otrl#Otrl3&#45;&gt;http://w3id.org/oseg/ont/otrl#OTRL3 -->
<g id="edge6" class="edge">
<title>http://w3id.org/oseg/ont/otrl#Otrl3&#45;&gt;http://w3id.org/oseg/ont/otrl#OTRL3</title>
<path fill="none" stroke="black" d="M395.56,-1541.93C437.43,-1493.04 561.16,-1348.56 610.15,-1291.35"/>
<polygon fill="black" stroke="black" points="612.97,-1293.43 616.82,-1283.56 607.65,-1288.88 612.97,-1293.43"/>
<text text-anchor="middle" x="422.85" y="-1420.44" font-family="Times,serif" font-size="14.00">schema:supersededBy</text>
</g>
<!-- http://w3id.org/oseg/ont/otrl#Otrl1 -->
<g id="node28" class="node">
<title>http://w3id.org/oseg/ont/otrl#Otrl1</title>
<ellipse fill="none" stroke="black" cx="189.7" cy="-1241.98" rx="189.51" ry="16.03"/>
<text text-anchor="middle" x="189.7" y="-1238.28" font-family="Times,serif" font-size="14.00">http://w3id.org/oseg/ont/otrl#Otrl1</text>
</g>
<!-- http://w3id.org/oseg/ont/otrl#Otrl1&#45;&gt;http://w3id.org/oseg/ont/otrl#OTRL1 -->
<g id="edge9" class="edge">
<title>http://w3id.org/oseg/ont/otrl#Otrl1&#45;&gt;http://w3id.org/oseg/ont/otrl#OTRL1</title>
<path fill="none" stroke="black" d="M245.88,-1226.4C318.05,-1206.39 442.49,-1171.89 513.61,-1152.17"/>
<polygon fill="black" stroke="black" points="514.58,-1155.53 523.28,-1149.49 512.71,-1148.79 514.58,-1155.53"/>
<text text-anchor="middle" x="299.74" y="-1193.09" font-family="Times,serif" font-size="14.00">schema:supersededBy</text>
</g>
<!-- http://w3id.org/oseg/ont/otrl#Otrl6 -->
<g id="node29" class="node">
<title>http://w3id.org/oseg/ont/otrl#Otrl6</title>
<ellipse fill="none" stroke="black" cx="203.26" cy="-875.73" rx="189.51" ry="16.03"/>
<text text-anchor="middle" x="203.26" y="-872.03" font-family="Times,serif" font-size="14.00">http://w3id.org/oseg/ont/otrl#Otrl6</text>
</g>
<!-- http://w3id.org/oseg/ont/otrl#Otrl6&#45;&gt;http://w3id.org/oseg/ont/otrl#OTRL6 -->
<g id="edge14" class="edge">
<title>http://w3id.org/oseg/ont/otrl#Otrl6&#45;&gt;http://w3id.org/oseg/ont/otrl#OTRL6</title>
<path fill="none" stroke="black" d="M254.85,-891.41C326.12,-913.07 453.94,-951.91 525.32,-973.6"/>
<polygon fill="black" stroke="black" points="524.42,-976.98 535,-976.54 526.45,-970.29 524.42,-976.98"/>
<text text-anchor="middle" x="310.09" y="-936.3" font-family="Times,serif" font-size="14.00">schema:supersededBy</text>
</g>
<!-- http://w3id.org/oseg/ont/otrl#Odrl3 -->
<g id="node30" class="node">
<title>http://w3id.org/oseg/ont/otrl#Odrl3</title>
<ellipse fill="none" stroke="black" cx="1130.73" cy="-389.5" rx="191.75" ry="16.03"/>
<text text-anchor="middle" x="1130.73" y="-385.8" font-family="Times,serif" font-size="14.00">http://w3id.org/oseg/ont/otrl#Odrl3</text>
</g>
<!-- http://w3id.org/oseg/ont/otrl#Odrl3&#45;&gt;http://w3id.org/oseg/ont/otrl#ODRL3 -->
<g id="edge15" class="edge">
<title>http://w3id.org/oseg/ont/otrl#Odrl3&#45;&gt;http://w3id.org/oseg/ont/otrl#ODRL3</title>
<path fill="none" stroke="black" d="M1152.18,-405.82C1154.03,-407.23 1155.92,-408.66 1157.82,-410.11"/>
<polygon fill="black" stroke="black" points="1155.98,-413.11 1166.06,-416.38 1160.22,-407.54 1155.98,-413.11"/>
<text text-anchor="middle" x="1075" y="-411.76" font-family="Times,serif" font-size="14.00">schema:supersededBy</text>
</g>
<!-- http://w3id.org/oseg/ont/otrl#Odrl2 -->
<g id="node31" class="node">
<title>http://w3id.org/oseg/ont/otrl#Odrl2</title>
<ellipse fill="none" stroke="black" cx="1495.88" cy="-16.08" rx="191.75" ry="16.03"/>
<text text-anchor="middle" x="1495.88" y="-12.38" font-family="Times,serif" font-size="14.00">http://w3id.org/oseg/ont/otrl#Odrl2</text>
</g>
<!-- http://w3id.org/oseg/ont/otrl#Odrl2&#45;&gt;http://w3id.org/oseg/ont/otrl#ODRL2 -->
<g id="edge18" class="edge">
<title>http://w3id.org/oseg/ont/otrl#Odrl2&#45;&gt;http://w3id.org/oseg/ont/otrl#ODRL2</title>
<path fill="none" stroke="black" d="M1491.76,-32.53C1476.76,-92.43 1424.99,-299.17 1406.57,-372.74"/>
<polygon fill="black" stroke="black" points="1403.14,-372.04 1404.1,-382.59 1409.93,-373.74 1403.14,-372.04"/>
<text text-anchor="middle" x="1369.16" y="-206.43" font-family="Times,serif" font-size="14.00">schema:supersededBy</text>
</g>
<!-- http://w3id.org/oseg/ont/otrl#Otrl4 -->
<g id="node32" class="node">
<title>http://w3id.org/oseg/ont/otrl#Otrl4</title>
<ellipse fill="none" stroke="black" cx="1023.18" cy="-1703.22" rx="189.51" ry="16.03"/>
<text text-anchor="middle" x="1023.18" y="-1699.52" font-family="Times,serif" font-size="14.00">http://w3id.org/oseg/ont/otrl#Otrl4</text>
</g>
<!-- http://w3id.org/oseg/ont/otrl#Otrl4&#45;&gt;http://w3id.org/oseg/ont/otrl#OTRL4 -->
<g id="edge23" class="edge">
<title>http://w3id.org/oseg/ont/otrl#Otrl4&#45;&gt;http://w3id.org/oseg/ont/otrl#OTRL4</title>
<path fill="none" stroke="black" d="M1019.61,-1686.8C1006.94,-1628.5 964.04,-1431.13 948.35,-1358.92"/>
<polygon fill="black" stroke="black" points="951.7,-1357.85 946.16,-1348.82 944.86,-1359.34 951.7,-1357.85"/>
<text text-anchor="middle" x="903.98" y="-1526.66" font-family="Times,serif" font-size="14.00">schema:supersededBy</text>
</g>
<!-- http://w3id.org/oseg/ont/otrl#Otrl -->
<g id="node33" class="node">
<title>http://w3id.org/oseg/ont/otrl#Otrl</title>
<ellipse fill="none" stroke="black" cx="849.41" cy="-1117.56" rx="183.28" ry="16.03"/>
<text text-anchor="middle" x="849.41" y="-1113.86" font-family="Times,serif" font-size="14.00">http://w3id.org/oseg/ont/otrl#Otrl</text>
</g>
<!-- http://w3id.org/oseg/ont/otrl#Otrl&#45;&gt;http://w3id.org/oseg/ont/otrl#OTRL -->
<g id="edge24" class="edge">
<title>http://w3id.org/oseg/ont/otrl#Otrl&#45;&gt;http://w3id.org/oseg/ont/otrl#OTRL</title>
<path fill="none" stroke="black" d="M843.89,-1101.11C843.33,-1099.44 842.75,-1097.72 842.17,-1095.98"/>
<polygon fill="black" stroke="black" points="845.35,-1094.45 838.85,-1086.08 838.71,-1096.68 845.35,-1094.45"/>
<text text-anchor="middle" x="923.03" y="-1087.35" font-family="Times,serif" font-size="14.00">schema:supersededBy</text>
</g>
<!-- http://w3id.org/oseg/ont/otrl#Otrl2 -->
<g id="node34" class="node">
<title>http://w3id.org/oseg/ont/otrl#Otrl2</title>
<ellipse fill="none" stroke="black" cx="792.79" cy="-502.57" rx="189.51" ry="16.03"/>
<text text-anchor="middle" x="792.79" y="-498.87" font-family="Times,serif" font-size="14.00">http://w3id.org/oseg/ont/otrl#Otrl2</text>
</g>
<!-- http://w3id.org/oseg/ont/otrl#Otrl2&#45;&gt;http://w3id.org/oseg/ont/otrl#OTRL2 -->
<g id="edge25" class="edge">
<title>http://w3id.org/oseg/ont/otrl#Otrl2&#45;&gt;http://w3id.org/oseg/ont/otrl#OTRL2</title>
<path fill="none" stroke="black" d="M789.89,-519.21C780.03,-575.77 747.75,-761 735.62,-830.59"/>
<polygon fill="black" stroke="black" points="732.12,-830.27 733.85,-840.72 739.02,-831.47 732.12,-830.27"/>
<text text-anchor="middle" x="682.75" y="-678.7" font-family="Times,serif" font-size="14.00">schema:supersededBy</text>
</g>
<!-- http://w3id.org/oseg/ont/otrl#Odrl1 -->
<g id="node35" class="node">
<title>http://w3id.org/oseg/ont/otrl#Odrl1</title>
<ellipse fill="none" stroke="black" cx="1806.53" cy="-198.96" rx="191.75" ry="16.03"/>
<text text-anchor="middle" x="1806.53" y="-195.26" font-family="Times,serif" font-size="14.00">http://w3id.org/oseg/ont/otrl#Odrl1</text>
</g>
<!-- http://w3id.org/oseg/ont/otrl#Odrl1&#45;&gt;http://w3id.org/oseg/ont/otrl#ODRL1 -->
<g id="edge30" class="edge">
<title>http://w3id.org/oseg/ont/otrl#Odrl1&#45;&gt;http://w3id.org/oseg/ont/otrl#ODRL1</title>
<path fill="none" stroke="black" d="M1789.56,-215.42C1741.05,-262.51 1601.68,-397.79 1545.53,-452.31"/>
<polygon fill="black" stroke="black" points="1542.91,-449.97 1538.17,-459.44 1547.78,-454.99 1542.91,-449.97"/>
<text text-anchor="middle" x="1587.54" y="-337.66" font-family="Times,serif" font-size="14.00">schema:supersededBy</text>
</g>
<!-- http://w3id.org/oseg/ont/otrl#Otrl5 -->
<g id="node36" class="node">
<title>http://w3id.org/oseg/ont/otrl#Otrl5</title>
<ellipse fill="none" stroke="black" cx="758.23" cy="-1375.97" rx="189.51" ry="16.03"/>
<text text-anchor="middle" x="758.23" y="-1372.27" font-family="Times,serif" font-size="14.00">http://w3id.org/oseg/ont/otrl#Otrl5</text>
</g>
<!-- http://w3id.org/oseg/ont/otrl#Otrl5&#45;&gt;http://w3id.org/oseg/ont/otrl#OTRL5 -->
<g id="edge31" class="edge">
<title>http://w3id.org/oseg/ont/otrl#Otrl5&#45;&gt;http://w3id.org/oseg/ont/otrl#OTRL5</title>
<path fill="none" stroke="black" d="M764.42,-1359.45C765.7,-1356.02 767.09,-1352.33 768.46,-1348.65"/>
<polygon fill="black" stroke="black" points="771.79,-1349.76 772.02,-1339.17 765.23,-1347.3 771.79,-1349.76"/>
<text text-anchor="middle" x="686.44" y="-1342.85" font-family="Times,serif" font-size="14.00">schema:supersededBy</text>
</g>
<!-- http://w3id.org/oseg/ont/otrl#Odrl3Star -->
<g id="node37" class="node">
<title>http://w3id.org/oseg/ont/otrl#Odrl3Star</title>
<ellipse fill="none" stroke="black" cx="2068.54" cy="-641.81" rx="213.59" ry="16.03"/>
<text text-anchor="middle" x="2068.54" y="-638.11" font-family="Times,serif" font-size="14.00">http://w3id.org/oseg/ont/otrl#Odrl3Star</text>
</g>
<!-- http://w3id.org/oseg/ont/otrl#Odrl3Star&#45;&gt;http://w3id.org/oseg/ont/otrl#ODRL3Star -->
<g id="edge33" class="edge">
<title>http://w3id.org/oseg/ont/otrl#Odrl3Star&#45;&gt;http://w3id.org/oseg/ont/otrl#ODRL3Star</title>
<path fill="none" stroke="black" d="M1902.05,-652C1841.73,-655.69 1775.66,-659.73 1723.44,-662.93"/>
<polygon fill="black" stroke="black" points="1722.95,-659.45 1713.18,-663.55 1723.38,-666.44 1722.95,-659.45"/>
<text text-anchor="middle" x="1892.74" y="-661.26" font-family="Times,serif" font-size="14.00">schema:supersededBy</text>
</g>
<!-- http://w3id.org/oseg/ont/otrl#Odrl -->
<g id="node38" class="node">
<title>http://w3id.org/oseg/ont/otrl#Odrl</title>
<ellipse fill="none" stroke="black" cx="1679.06" cy="-516.15" rx="185.02" ry="16.03"/>
<text text-anchor="middle" x="1679.06" y="-512.45" font-family="Times,serif" font-size="14.00">http://w3id.org/oseg/ont/otrl#Odrl</text>
</g>
<!-- http://w3id.org/oseg/ont/otrl#Odrl&#45;&gt;http://w3id.org/oseg/ont/otrl#ODRL -->
<g id="edge35" class="edge">
<title>http://w3id.org/oseg/ont/otrl#Odrl&#45;&gt;http://w3id.org/oseg/ont/otrl#ODRL</title>
<path fill="none" stroke="black" d="M1641.02,-532.13C1576.06,-559.41 1444.16,-614.79 1375.91,-643.45"/>
<polygon fill="black" stroke="black" points="1374.18,-640.38 1366.32,-647.48 1376.89,-646.83 1374.18,-640.38"/>
<text text-anchor="middle" x="1428.46" y="-591.59" font-family="Times,serif" font-size="14.00">schema:supersededBy</text>
</g>
</g>
</svg>
