<?xml version="1.0" encoding="UTF-8" standalone="no"?>
<!DOCTYPE svg PUBLIC "-//W3C//DTD SVG 1.1//EN"
 "http://www.w3.org/Graphics/SVG/1.1/DTD/svg11.dtd">
<!-- Generated by graphviz version 2.43.0 (0)
 -->
<!-- Title: G Pages: 1 -->
<svg width="1749pt" height="1517pt"
 viewBox="0.00 0.00 1749.48 1516.53" xmlns="http://www.w3.org/2000/svg" xmlns:xlink="http://www.w3.org/1999/xlink">
<g id="graph0" class="graph" transform="scale(1 1) rotate(0) translate(4 1512.53)">
<title>G</title>
<polygon fill="white" stroke="transparent" points="-4,4 -4,-1512.53 1745.48,-1512.53 1745.48,4 -4,4"/>
<!-- http://schema.org/DefinedTermSet -->
<g id="node1" class="node">
<title>http://schema.org/DefinedTermSet</title>
<ellipse fill="none" stroke="#1f77b4" cx="884.08" cy="-684.26" rx="116.85" ry="16.03"/>
<text text-anchor="middle" x="884.08" y="-680.56" font-family="Times,serif" font-size="14.00">schema:DefinedTer...</text>
</g>
<!-- http://spdx.org/rdf/terms#SpdxItem -->
<g id="node2" class="node">
<title>http://spdx.org/rdf/terms#SpdxItem</title>
<ellipse fill="none" stroke="#1f77b4" cx="441.85" cy="-995.26" rx="87.86" ry="16.03"/>
<text text-anchor="middle" x="441.85" y="-991.56" font-family="Times,serif" font-size="14.00">spdx:SpdxItem</text>
</g>
<!-- http://w3id.org/oseg/ont/ods#Dataset -->
<g id="node3" class="node">
<title>http://w3id.org/oseg/ont/ods#Dataset</title>
<ellipse fill="none" stroke="#1f77b4" cx="441.85" cy="-944.26" rx="71.34" ry="16.03"/>
<text text-anchor="middle" x="441.85" y="-940.56" font-family="Times,serif" font-size="14.00">ods:Dataset</text>
</g>
<!-- http://schema.org/DefinedTerm -->
<g id="node4" class="node">
<title>http://schema.org/DefinedTerm</title>
<ellipse fill="none" stroke="#1f77b4" cx="1623.39" cy="-755.26" rx="118.17" ry="16.03"/>
<text text-anchor="middle" x="1623.39" y="-751.56" font-family="Times,serif" font-size="14.00">schema:DefinedTerm</text>
</g>
<!-- http://w3id.org/oseg/ont/okhimg#tagIcon -->
<g id="node5" class="node">
<title>http://w3id.org/oseg/ont/okhimg#tagIcon</title>
<ellipse fill="none" stroke="#e377c2" cx="1333.03" cy="-1492.26" rx="89.61" ry="16.03"/>
<text text-anchor="middle" x="1333.03" y="-1488.56" font-family="Times,serif" font-size="14.00">okhimg:tagIcon</text>
</g>
<!-- http://w3id.org/oseg/ont/okhimg#tagIcon&#45;&gt;http://schema.org/DefinedTerm -->
<g id="edge1" class="edge">
<title>http://w3id.org/oseg/ont/okhimg#tagIcon&#45;&gt;http://schema.org/DefinedTerm</title>
<path fill="none" stroke="black" d="M1416.24,-1486.1C1431.94,-1482.06 1447.46,-1475.81 1460.3,-1466.26 1480.57,-1451.19 1478.68,-1440 1487.3,-1416.26 1573.56,-1178.76 1610.37,-872.14 1619.82,-781.55"/>
<polygon fill="black" stroke="black" points="1623.3,-781.9 1620.84,-771.6 1616.34,-781.19 1623.3,-781.9"/>
<text text-anchor="middle" x="1482.8" y="-1447.06" font-family="Times,serif" font-size="14.00">a</text>
</g>
<!-- http://w3id.org/oseg/ont/okhimg#slotModelFromRight -->
<g id="node6" class="node">
<title>http://w3id.org/oseg/ont/okhimg#slotModelFromRight</title>
<ellipse fill="none" stroke="#e377c2" cx="1333.03" cy="-1441.26" rx="116.85" ry="16.03"/>
<text text-anchor="middle" x="1333.03" y="-1437.56" font-family="Times,serif" font-size="14.00">okhimg:slotModelF...</text>
</g>
<!-- http://w3id.org/oseg/ont/okhimg#slotModelFromRight&#45;&gt;http://schema.org/DefinedTerm -->
<g id="edge2" class="edge">
<title>http://w3id.org/oseg/ont/okhimg#slotModelFromRight&#45;&gt;http://schema.org/DefinedTerm</title>
<path fill="none" stroke="black" d="M1424.45,-1431.04C1437.08,-1427.26 1449.44,-1422.16 1460.3,-1415.26 1477.19,-1404.55 1479,-1397.46 1487.3,-1379.26 1586.2,-1162.69 1614.24,-870.26 1620.7,-781.73"/>
<polygon fill="black" stroke="black" points="1624.2,-781.96 1621.4,-771.74 1617.21,-781.47 1624.2,-781.96"/>
<text text-anchor="middle" x="1482.8" y="-1401.06" font-family="Times,serif" font-size="14.00">a</text>
</g>
<!-- http://w3id.org/oseg/ont/okhimg#slotPhotoThingMain -->
<g id="node7" class="node">
<title>http://w3id.org/oseg/ont/okhimg#slotPhotoThingMain</title>
<ellipse fill="none" stroke="#e377c2" cx="1333.03" cy="-1390.26" rx="114.6" ry="16.03"/>
<text text-anchor="middle" x="1333.03" y="-1386.56" font-family="Times,serif" font-size="14.00">okhimg:slotPhotoT...</text>
</g>
<!-- http://w3id.org/oseg/ont/okhimg#slotPhotoThingMain&#45;&gt;http://schema.org/DefinedTerm -->
<g id="edge3" class="edge">
<title>http://w3id.org/oseg/ont/okhimg#slotPhotoThingMain&#45;&gt;http://schema.org/DefinedTerm</title>
<path fill="none" stroke="black" d="M1437.04,-1383.35C1455.74,-1377.79 1473.62,-1368.99 1487.3,-1355.26 1570.49,-1271.83 1610.64,-886.35 1620.14,-781.6"/>
<polygon fill="black" stroke="black" points="1623.63,-781.83 1621.03,-771.56 1616.66,-781.21 1623.63,-781.83"/>
<text text-anchor="middle" x="1482.8" y="-1364.06" font-family="Times,serif" font-size="14.00">a</text>
</g>
<!-- http://w3id.org/oseg/ont/oseg&#45;profiles#robinVobruba -->
<g id="node8" class="node">
<title>http://w3id.org/oseg/ont/oseg&#45;profiles#robinVobruba</title>
<ellipse fill="none" stroke="#e377c2" cx="441.85" cy="-893.26" rx="113.69" ry="16.03"/>
<text text-anchor="middle" x="441.85" y="-889.56" font-family="Times,serif" font-size="14.00">osegprof:robinVob...</text>
</g>
<!-- http://w3id.org/oseg/ont/oseg&#45;profiles#Iopa -->
<g id="node9" class="node">
<title>http://w3id.org/oseg/ont/oseg&#45;profiles#Iopa</title>
<ellipse fill="none" stroke="#e377c2" cx="441.85" cy="-842.26" rx="80.72" ry="16.03"/>
<text text-anchor="middle" x="441.85" y="-838.56" font-family="Times,serif" font-size="14.00">osegprof:Iopa</text>
</g>
<!-- http://w3id.org/oseg/ont/okhimg#slotOrganizationLogo -->
<g id="node10" class="node">
<title>http://w3id.org/oseg/ont/okhimg#slotOrganizationLogo</title>
<ellipse fill="none" stroke="#e377c2" cx="884.08" cy="-1311.26" rx="114.6" ry="16.03"/>
<text text-anchor="middle" x="884.08" y="-1307.56" font-family="Times,serif" font-size="14.00">okhimg:slotOrgani...</text>
</g>
<!-- http://w3id.org/oseg/ont/okhimg#slotOrganizationLogo&#45;&gt;http://schema.org/DefinedTerm -->
<g id="edge15" class="edge">
<title>http://w3id.org/oseg/ont/okhimg#slotOrganizationLogo&#45;&gt;http://schema.org/DefinedTerm</title>
<path fill="none" stroke="black" d="M967.49,-1322.46C1106.78,-1339.65 1381.34,-1365.49 1460.3,-1314.26 1553.55,-1253.78 1606.23,-884.47 1619.21,-781.75"/>
<polygon fill="black" stroke="black" points="1622.71,-781.97 1620.47,-771.61 1615.76,-781.1 1622.71,-781.97"/>
<text text-anchor="middle" x="1333.03" y="-1348.06" font-family="Times,serif" font-size="14.00">a</text>
</g>
<!-- http://w3id.org/oseg/ont/okhimg#slotOrganizationLogoBw -->
<g id="node17" class="node">
<title>http://w3id.org/oseg/ont/okhimg#slotOrganizationLogoBw</title>
<ellipse fill="none" stroke="#e377c2" cx="1333.03" cy="-1289.26" rx="114.6" ry="16.03"/>
<text text-anchor="middle" x="1333.03" y="-1285.56" font-family="Times,serif" font-size="14.00">okhimg:slotOrgani...</text>
</g>
<!-- http://w3id.org/oseg/ont/okhimg#slotOrganizationLogo&#45;&gt;http://w3id.org/oseg/ont/okhimg#slotOrganizationLogoBw -->
<g id="edge14" class="edge">
<title>http://w3id.org/oseg/ont/okhimg#slotOrganizationLogo&#45;&gt;http://w3id.org/oseg/ont/okhimg#slotOrganizationLogoBw</title>
<path fill="none" stroke="black" d="M931.8,-1296.41C957.39,-1289.04 989.84,-1280.95 1019.45,-1277.26 1091.81,-1268.25 1174.26,-1271.99 1236.3,-1277.59"/>
<polygon fill="black" stroke="black" points="1236.19,-1281.1 1246.47,-1278.54 1236.84,-1274.13 1236.19,-1281.1"/>
<text text-anchor="middle" x="1103.6" y="-1281.06" font-family="Times,serif" font-size="14.00">seeAlso</text>
</g>
<!-- http://w3id.org/oseg/ont/okhimg#slotModelFromAbove -->
<g id="node11" class="node">
<title>http://w3id.org/oseg/ont/okhimg#slotModelFromAbove</title>
<ellipse fill="none" stroke="#e377c2" cx="1333.03" cy="-1238.26" rx="116.85" ry="16.03"/>
<text text-anchor="middle" x="1333.03" y="-1234.56" font-family="Times,serif" font-size="14.00">okhimg:slotModelF...</text>
</g>
<!-- http://w3id.org/oseg/ont/okhimg#slotModelFromAbove&#45;&gt;http://schema.org/DefinedTerm -->
<g id="edge7" class="edge">
<title>http://w3id.org/oseg/ont/okhimg#slotModelFromAbove&#45;&gt;http://schema.org/DefinedTerm</title>
<path fill="none" stroke="black" d="M1428.08,-1228.68C1439.63,-1224.77 1450.72,-1219.45 1460.3,-1212.26 1602.78,-1105.41 1620.47,-863.08 1622.31,-782.15"/>
<polygon fill="black" stroke="black" points="1625.82,-781.89 1622.48,-771.83 1618.82,-781.77 1625.82,-781.89"/>
<text text-anchor="middle" x="1482.8" y="-1199.06" font-family="Times,serif" font-size="14.00">a</text>
</g>
<!-- http://id.loc.gov/vocabulary/iso639&#45;1/en -->
<g id="node12" class="node">
<title>http://id.loc.gov/vocabulary/iso639&#45;1/en</title>
<ellipse fill="none" stroke="#e377c2" cx="441.85" cy="-791.26" rx="45.01" ry="16.03"/>
<text text-anchor="middle" x="441.85" y="-787.56" font-family="Times,serif" font-size="14.00">ns1:en</text>
</g>
<!-- http://w3id.org/oseg/ont/okhimg#tagLogo -->
<g id="node13" class="node">
<title>http://w3id.org/oseg/ont/okhimg#tagLogo</title>
<ellipse fill="none" stroke="#e377c2" cx="1333.03" cy="-1187.26" rx="92.76" ry="16.03"/>
<text text-anchor="middle" x="1333.03" y="-1183.56" font-family="Times,serif" font-size="14.00">okhimg:tagLogo</text>
</g>
<!-- http://w3id.org/oseg/ont/okhimg#tagLogo&#45;&gt;http://schema.org/DefinedTerm -->
<g id="edge9" class="edge">
<title>http://w3id.org/oseg/ont/okhimg#tagLogo&#45;&gt;http://schema.org/DefinedTerm</title>
<path fill="none" stroke="black" d="M1415.2,-1179.57C1430.97,-1175.65 1446.79,-1169.83 1460.3,-1161.26 1477.19,-1150.55 1477.77,-1142.85 1487.3,-1125.26 1553.08,-1003.93 1599.11,-843.94 1615.64,-781.66"/>
<polygon fill="black" stroke="black" points="1619.06,-782.42 1618.21,-771.86 1612.29,-780.64 1619.06,-782.42"/>
<text text-anchor="middle" x="1482.8" y="-1146.06" font-family="Times,serif" font-size="14.00">a</text>
</g>
<!-- http://w3id.org/oseg/ont/okhimg#tagGray -->
<g id="node14" class="node">
<title>http://w3id.org/oseg/ont/okhimg#tagGray</title>
<ellipse fill="none" stroke="#e377c2" cx="1333.03" cy="-1136.26" rx="92.76" ry="16.03"/>
<text text-anchor="middle" x="1333.03" y="-1132.56" font-family="Times,serif" font-size="14.00">okhimg:tagGray</text>
</g>
<!-- http://w3id.org/oseg/ont/okhimg#tagGray&#45;&gt;http://schema.org/DefinedTerm -->
<g id="edge10" class="edge">
<title>http://w3id.org/oseg/ont/okhimg#tagGray&#45;&gt;http://schema.org/DefinedTerm</title>
<path fill="none" stroke="black" d="M1421.52,-1131.18C1445.04,-1126.09 1469.01,-1117.04 1487.3,-1101.26 1586.8,-1015.48 1613.49,-847.12 1620.24,-781.93"/>
<polygon fill="black" stroke="black" points="1623.75,-781.98 1621.22,-771.69 1616.78,-781.31 1623.75,-781.98"/>
<text text-anchor="middle" x="1482.8" y="-1110.06" font-family="Times,serif" font-size="14.00">a</text>
</g>
<!-- http://w3id.org/oseg/ont/okhimg#tags -->
<g id="node15" class="node">
<title>http://w3id.org/oseg/ont/okhimg#tags</title>
<ellipse fill="none" stroke="#e377c2" cx="441.85" cy="-740.26" rx="73.58" ry="16.03"/>
<text text-anchor="middle" x="441.85" y="-736.56" font-family="Times,serif" font-size="14.00">okhimg:tags</text>
</g>
<!-- http://w3id.org/oseg/ont/okhimg#tags&#45;&gt;http://schema.org/DefinedTermSet -->
<g id="edge12" class="edge">
<title>http://w3id.org/oseg/ont/okhimg#tags&#45;&gt;http://schema.org/DefinedTermSet</title>
<path fill="none" stroke="black" d="M502.88,-731.08C520.38,-727.17 539.22,-721.74 555.7,-714.26 564.68,-710.19 564.39,-704.56 573.7,-701.26 637.57,-678.65 713.49,-674.18 774.14,-675.47"/>
<polygon fill="black" stroke="black" points="774.41,-678.97 784.5,-675.74 774.6,-671.98 774.41,-678.97"/>
<text text-anchor="middle" x="661.2" y="-705.06" font-family="Times,serif" font-size="14.00">a</text>
</g>
<!-- http://w3id.org/oseg/ont/okhimg#tagArt -->
<g id="node21" class="node">
<title>http://w3id.org/oseg/ont/okhimg#tagArt</title>
<ellipse fill="none" stroke="#e377c2" cx="1103.6" cy="-734.26" rx="84.29" ry="16.03"/>
<text text-anchor="middle" x="1103.6" y="-730.56" font-family="Times,serif" font-size="14.00">okhimg:tagArt</text>
</g>
<!-- http://w3id.org/oseg/ont/okhimg#tags&#45;&gt;http://w3id.org/oseg/ont/okhimg#tagArt -->
<g id="edge20" class="edge">
<title>http://w3id.org/oseg/ont/okhimg#tags&#45;&gt;http://w3id.org/oseg/ont/okhimg#tagArt</title>
<path fill="none" stroke="black" d="M515.34,-739.6C635.64,-738.51 876.4,-736.32 1009.24,-735.11"/>
<polygon fill="black" stroke="black" points="1009.43,-738.61 1019.4,-735.02 1009.37,-731.61 1009.43,-738.61"/>
<text text-anchor="middle" x="661.2" y="-742.06" font-family="Times,serif" font-size="14.00">schema:hasDefinedTerm</text>
</g>
<!-- http://w3id.org/oseg/ont/okhimg#slotLogoBw -->
<g id="node16" class="node">
<title>http://w3id.org/oseg/ont/okhimg#slotLogoBw</title>
<ellipse fill="none" stroke="#e377c2" cx="884.08" cy="-1057.26" rx="111.03" ry="16.03"/>
<text text-anchor="middle" x="884.08" y="-1053.56" font-family="Times,serif" font-size="14.00">okhimg:slotLogoBw</text>
</g>
<!-- http://w3id.org/oseg/ont/okhimg#slotLogoBw&#45;&gt;http://schema.org/DefinedTerm -->
<g id="edge47" class="edge">
<title>http://w3id.org/oseg/ont/okhimg#slotLogoBw&#45;&gt;http://schema.org/DefinedTerm</title>
<path fill="none" stroke="black" d="M967.95,-1067.96C1106.93,-1084.23 1379.7,-1108.51 1460.3,-1060.26 1564.18,-998.09 1605.02,-844.3 1617.65,-782.06"/>
<polygon fill="black" stroke="black" points="1621.16,-782.36 1619.63,-771.88 1614.28,-781.03 1621.16,-782.36"/>
<text text-anchor="middle" x="1333.03" y="-1092.06" font-family="Times,serif" font-size="14.00">a</text>
</g>
<!-- http://w3id.org/oseg/ont/okhimg#slotLogo -->
<g id="node23" class="node">
<title>http://w3id.org/oseg/ont/okhimg#slotLogo</title>
<ellipse fill="none" stroke="#e377c2" cx="1333.03" cy="-1035.26" rx="94.51" ry="16.03"/>
<text text-anchor="middle" x="1333.03" y="-1031.56" font-family="Times,serif" font-size="14.00">okhimg:slotLogo</text>
</g>
<!-- http://w3id.org/oseg/ont/okhimg#slotLogoBw&#45;&gt;http://w3id.org/oseg/ont/okhimg#slotLogo -->
<g id="edge23" class="edge">
<title>http://w3id.org/oseg/ont/okhimg#slotLogoBw&#45;&gt;http://w3id.org/oseg/ont/okhimg#slotLogo</title>
<path fill="none" stroke="black" d="M931.49,-1042.5C957.13,-1035.11 989.72,-1026.97 1019.45,-1023.26 1095.77,-1013.76 1183.3,-1018.44 1246.29,-1024.52"/>
<polygon fill="black" stroke="black" points="1246.28,-1028.04 1256.58,-1025.55 1246.97,-1021.08 1246.28,-1028.04"/>
<text text-anchor="middle" x="1103.6" y="-1027.06" font-family="Times,serif" font-size="14.00">seeAlso</text>
</g>
<!-- http://w3id.org/oseg/ont/okhimg#slotOrganizationLogoBw&#45;&gt;http://schema.org/DefinedTerm -->
<g id="edge19" class="edge">
<title>http://w3id.org/oseg/ont/okhimg#slotOrganizationLogoBw&#45;&gt;http://schema.org/DefinedTerm</title>
<path fill="none" stroke="black" d="M1426.99,-1279.86C1438.91,-1275.93 1450.39,-1270.57 1460.3,-1263.26 1480.32,-1248.51 1477.74,-1237.21 1487.3,-1214.26 1553.57,-1055.28 1601.12,-852.71 1616.79,-781.46"/>
<polygon fill="black" stroke="black" points="1620.24,-782.07 1618.95,-771.55 1613.4,-780.58 1620.24,-782.07"/>
<text text-anchor="middle" x="1482.8" y="-1243.06" font-family="Times,serif" font-size="14.00">a</text>
</g>
<!-- http://w3id.org/oseg/ont/okhimg#slotOrganizationLogoBw&#45;&gt;http://w3id.org/oseg/ont/okhimg#slotOrganizationLogo -->
<g id="edge6" class="edge">
<title>http://w3id.org/oseg/ont/okhimg#slotOrganizationLogoBw&#45;&gt;http://w3id.org/oseg/ont/okhimg#slotOrganizationLogo</title>
<path fill="none" stroke="black" d="M1224.43,-1294.56C1157.42,-1297.86 1071.2,-1302.1 1002.43,-1305.49"/>
<polygon fill="black" stroke="black" points="1002.23,-1301.99 992.42,-1305.98 1002.58,-1308.98 1002.23,-1301.99"/>
<text text-anchor="middle" x="1103.6" y="-1307.06" font-family="Times,serif" font-size="14.00">seeAlso</text>
</g>
<!-- http://spdx.org/licenses/AGPL&#45;3.0&#45;or&#45;later -->
<g id="node18" class="node">
<title>http://spdx.org/licenses/AGPL&#45;3.0&#45;or&#45;later</title>
<ellipse fill="none" stroke="#e377c2" cx="441.85" cy="-689.26" rx="111.95" ry="16.03"/>
<text text-anchor="middle" x="441.85" y="-685.56" font-family="Times,serif" font-size="14.00">spdxl:AGPL&#45;3.0&#45;or...</text>
</g>
<!-- http://w3id.org/oseg/ont/okhimg#slotSocial -->
<g id="node19" class="node">
<title>http://w3id.org/oseg/ont/okhimg#slotSocial</title>
<ellipse fill="none" stroke="#e377c2" cx="1333.03" cy="-984.26" rx="101.23" ry="16.03"/>
<text text-anchor="middle" x="1333.03" y="-980.56" font-family="Times,serif" font-size="14.00">okhimg:slotSocial</text>
</g>
<!-- http://w3id.org/oseg/ont/okhimg#slotSocial&#45;&gt;http://schema.org/DefinedTerm -->
<g id="edge17" class="edge">
<title>http://w3id.org/oseg/ont/okhimg#slotSocial&#45;&gt;http://schema.org/DefinedTerm</title>
<path fill="none" stroke="black" d="M1418.31,-975.41C1433,-971.54 1447.62,-966.04 1460.3,-958.26 1532.87,-913.77 1586.53,-824.55 1609.73,-780.73"/>
<polygon fill="black" stroke="black" points="1612.96,-782.1 1614.46,-771.61 1606.75,-778.87 1612.96,-782.1"/>
<text text-anchor="middle" x="1482.8" y="-946.06" font-family="Times,serif" font-size="14.00">a</text>
</g>
<!-- http://w3id.org/oseg/ont/okhimg#slotSymbol -->
<g id="node20" class="node">
<title>http://w3id.org/oseg/ont/okhimg#slotSymbol</title>
<ellipse fill="none" stroke="#e377c2" cx="1333.03" cy="-933.26" rx="108.38" ry="16.03"/>
<text text-anchor="middle" x="1333.03" y="-929.56" font-family="Times,serif" font-size="14.00">okhimg:slotSymbol</text>
</g>
<!-- http://w3id.org/oseg/ont/okhimg#slotSymbol&#45;&gt;http://schema.org/DefinedTerm -->
<g id="edge18" class="edge">
<title>http://w3id.org/oseg/ont/okhimg#slotSymbol&#45;&gt;http://schema.org/DefinedTerm</title>
<path fill="none" stroke="black" d="M1417.11,-922.96C1432,-919.23 1446.99,-914.16 1460.3,-907.26 1521.56,-875.52 1576.34,-813.94 1603.79,-779.71"/>
<polygon fill="black" stroke="black" points="1606.72,-781.65 1610.17,-771.63 1601.22,-777.31 1606.72,-781.65"/>
<text text-anchor="middle" x="1482.8" y="-899.06" font-family="Times,serif" font-size="14.00">a</text>
</g>
<!-- http://w3id.org/oseg/ont/okhimg#tagArt&#45;&gt;http://schema.org/DefinedTerm -->
<g id="edge36" class="edge">
<title>http://w3id.org/oseg/ont/okhimg#tagArt&#45;&gt;http://schema.org/DefinedTerm</title>
<path fill="none" stroke="black" d="M1188.03,-733.9C1260.16,-734 1367.18,-735.18 1460.3,-740.26 1479.29,-741.3 1499.49,-742.83 1518.95,-744.52"/>
<polygon fill="black" stroke="black" points="1518.78,-748.02 1529.06,-745.41 1519.4,-741.04 1518.78,-748.02"/>
<text text-anchor="middle" x="1333.03" y="-744.06" font-family="Times,serif" font-size="14.00">a</text>
</g>
<!-- http://w3id.org/oseg/ont/okhimg#tagColor -->
<g id="node22" class="node">
<title>http://w3id.org/oseg/ont/okhimg#tagColor</title>
<ellipse fill="none" stroke="#e377c2" cx="1333.03" cy="-882.26" rx="95.42" ry="16.03"/>
<text text-anchor="middle" x="1333.03" y="-878.56" font-family="Times,serif" font-size="14.00">okhimg:tagColor</text>
</g>
<!-- http://w3id.org/oseg/ont/okhimg#tagColor&#45;&gt;http://schema.org/DefinedTerm -->
<g id="edge22" class="edge">
<title>http://w3id.org/oseg/ont/okhimg#tagColor&#45;&gt;http://schema.org/DefinedTerm</title>
<path fill="none" stroke="black" d="M1406.78,-871.86C1424.64,-868.06 1443.47,-862.99 1460.3,-856.26 1510.4,-836.25 1562.29,-800.88 1593.46,-777.75"/>
<polygon fill="black" stroke="black" points="1595.79,-780.38 1601.68,-771.58 1591.58,-774.78 1595.79,-780.38"/>
<text text-anchor="middle" x="1482.8" y="-851.06" font-family="Times,serif" font-size="14.00">a</text>
</g>
<!-- http://w3id.org/oseg/ont/okhimg#slotLogo&#45;&gt;http://schema.org/DefinedTerm -->
<g id="edge29" class="edge">
<title>http://w3id.org/oseg/ont/okhimg#slotLogo&#45;&gt;http://schema.org/DefinedTerm</title>
<path fill="none" stroke="black" d="M1417.69,-1027.84C1432.76,-1023.86 1447.68,-1017.96 1460.3,-1009.26 1544.73,-951.14 1594.87,-833.2 1613.75,-781.05"/>
<polygon fill="black" stroke="black" points="1617.08,-782.13 1617.11,-771.54 1610.48,-779.8 1617.08,-782.13"/>
<text text-anchor="middle" x="1482.8" y="-998.06" font-family="Times,serif" font-size="14.00">a</text>
</g>
<!-- http://w3id.org/oseg/ont/okhimg#slotLogo&#45;&gt;http://w3id.org/oseg/ont/okhimg#slotLogoBw -->
<g id="edge13" class="edge">
<title>http://w3id.org/oseg/ont/okhimg#slotLogo&#45;&gt;http://w3id.org/oseg/ont/okhimg#slotLogoBw</title>
<path fill="none" stroke="black" d="M1241.75,-1039.71C1171.95,-1043.14 1074.85,-1047.92 999.58,-1051.63"/>
<polygon fill="black" stroke="black" points="999.4,-1048.13 989.58,-1052.12 999.74,-1055.12 999.4,-1048.13"/>
<text text-anchor="middle" x="1103.6" y="-1053.06" font-family="Times,serif" font-size="14.00">seeAlso</text>
</g>
<!-- http://w3id.org/oseg/ont/okhimg#slotModelFromLeft -->
<g id="node24" class="node">
<title>http://w3id.org/oseg/ont/okhimg#slotModelFromLeft</title>
<ellipse fill="none" stroke="#e377c2" cx="1333.03" cy="-831.26" rx="116.85" ry="16.03"/>
<text text-anchor="middle" x="1333.03" y="-827.56" font-family="Times,serif" font-size="14.00">okhimg:slotModelF...</text>
</g>
<!-- http://w3id.org/oseg/ont/okhimg#slotModelFromLeft&#45;&gt;http://schema.org/DefinedTerm -->
<g id="edge24" class="edge">
<title>http://w3id.org/oseg/ont/okhimg#slotModelFromLeft&#45;&gt;http://schema.org/DefinedTerm</title>
<path fill="none" stroke="black" d="M1403.45,-818.22C1422,-814.39 1441.98,-809.96 1460.3,-805.26 1496.47,-795.99 1536.57,-783.63 1567.83,-773.53"/>
<polygon fill="black" stroke="black" points="1569.23,-776.76 1577.66,-770.33 1567.06,-770.1 1569.23,-776.76"/>
<text text-anchor="middle" x="1482.8" y="-803.06" font-family="Times,serif" font-size="14.00">a</text>
</g>
<!-- http://w3id.org/oseg/ont/okhimg#slotModelFromBack -->
<g id="node25" class="node">
<title>http://w3id.org/oseg/ont/okhimg#slotModelFromBack</title>
<ellipse fill="none" stroke="#e377c2" cx="1333.03" cy="-780.26" rx="116.85" ry="16.03"/>
<text text-anchor="middle" x="1333.03" y="-776.56" font-family="Times,serif" font-size="14.00">okhimg:slotModelF...</text>
</g>
<!-- http://w3id.org/oseg/ont/okhimg#slotModelFromBack&#45;&gt;http://schema.org/DefinedTerm -->
<g id="edge25" class="edge">
<title>http://w3id.org/oseg/ont/okhimg#slotModelFromBack&#45;&gt;http://schema.org/DefinedTerm</title>
<path fill="none" stroke="black" d="M1432.46,-771.73C1458.36,-769.48 1486.45,-767.05 1512.89,-764.76"/>
<polygon fill="black" stroke="black" points="1513.27,-768.24 1522.93,-763.89 1512.67,-761.26 1513.27,-768.24"/>
<text text-anchor="middle" x="1482.8" y="-770.06" font-family="Times,serif" font-size="14.00">a</text>
</g>
<!-- http://w3id.org/oseg/ont/0.1.0/okhimg -->
<g id="node26" class="node">
<title>http://w3id.org/oseg/ont/0.1.0/okhimg</title>
<ellipse fill="none" stroke="#e377c2" cx="441.85" cy="-638.26" rx="70.01" ry="16.03"/>
<text text-anchor="middle" x="441.85" y="-634.56" font-family="Times,serif" font-size="14.00">ns2:okhimg</text>
</g>
<!-- http://w3id.org/oseg/ont/okhimg#slots -->
<g id="node27" class="node">
<title>http://w3id.org/oseg/ont/okhimg#slots</title>
<ellipse fill="none" stroke="#e377c2" cx="441.85" cy="-587.26" rx="75.82" ry="16.03"/>
<text text-anchor="middle" x="441.85" y="-583.56" font-family="Times,serif" font-size="14.00">okhimg:slots</text>
</g>
<!-- http://w3id.org/oseg/ont/okhimg#slots&#45;&gt;http://schema.org/DefinedTermSet -->
<g id="edge27" class="edge">
<title>http://w3id.org/oseg/ont/okhimg#slots&#45;&gt;http://schema.org/DefinedTermSet</title>
<path fill="none" stroke="black" d="M503,-596.91C520.41,-600.82 539.17,-606.14 555.7,-613.26 564.52,-617.07 564.77,-621.68 573.7,-625.26 647,-654.68 671.13,-641.32 748.7,-656.26 768.51,-660.08 789.93,-664.44 809.71,-668.56"/>
<polygon fill="black" stroke="black" points="809.08,-672 819.58,-670.62 810.51,-665.15 809.08,-672"/>
<text text-anchor="middle" x="661.2" y="-660.06" font-family="Times,serif" font-size="14.00">a</text>
</g>
<!-- http://w3id.org/oseg/ont/okhimg#slotIconMain -->
<g id="node29" class="node">
<title>http://w3id.org/oseg/ont/okhimg#slotIconMain</title>
<ellipse fill="none" stroke="#e377c2" cx="884.08" cy="-625.26" rx="117.26" ry="16.03"/>
<text text-anchor="middle" x="884.08" y="-621.56" font-family="Times,serif" font-size="14.00">okhimg:slotIconMain</text>
</g>
<!-- http://w3id.org/oseg/ont/okhimg#slots&#45;&gt;http://w3id.org/oseg/ont/okhimg#slotIconMain -->
<g id="edge30" class="edge">
<title>http://w3id.org/oseg/ont/okhimg#slots&#45;&gt;http://w3id.org/oseg/ont/okhimg#slotIconMain</title>
<path fill="none" stroke="black" d="M514.6,-591.92C576.62,-596.13 668.64,-602.79 748.7,-610.26 759.99,-611.32 771.82,-612.51 783.56,-613.75"/>
<polygon fill="black" stroke="black" points="783.54,-617.27 793.85,-614.85 784.28,-610.31 783.54,-617.27"/>
<text text-anchor="middle" x="661.2" y="-614.06" font-family="Times,serif" font-size="14.00">schema:hasDefinedTerm</text>
</g>
<!-- http://w3id.org/oseg/ont/okhimg -->
<g id="node28" class="node">
<title>http://w3id.org/oseg/ont/okhimg</title>
<ellipse fill="none" stroke="#e377c2" cx="70" cy="-810.26" rx="70.01" ry="16.03"/>
<text text-anchor="middle" x="70" y="-806.56" font-family="Times,serif" font-size="14.00">ns3:okhimg</text>
</g>
<!-- http://w3id.org/oseg/ont/okhimg&#45;&gt;http://spdx.org/rdf/terms#SpdxItem -->
<g id="edge28" class="edge">
<title>http://w3id.org/oseg/ont/okhimg&#45;&gt;http://spdx.org/rdf/terms#SpdxItem</title>
<path fill="none" stroke="black" d="M74.31,-826.74C82.11,-860.8 105.12,-938.68 158.01,-973.26 220.29,-1013.99 307.58,-1014.3 368.66,-1007.73"/>
<polygon fill="black" stroke="black" points="369.08,-1011.2 378.61,-1006.57 368.27,-1004.25 369.08,-1011.2"/>
<text text-anchor="middle" x="234.01" y="-1014.06" font-family="Times,serif" font-size="14.00">a</text>
</g>
<!-- http://w3id.org/oseg/ont/okhimg&#45;&gt;http://w3id.org/oseg/ont/ods#Dataset -->
<g id="edge37" class="edge">
<title>http://w3id.org/oseg/ont/okhimg&#45;&gt;http://w3id.org/oseg/ont/ods#Dataset</title>
<path fill="none" stroke="black" d="M78.31,-826.76C90.62,-852.32 118.12,-900.78 158.01,-922.26 223.9,-957.75 311.23,-958.86 371.32,-953.9"/>
<polygon fill="black" stroke="black" points="371.83,-957.37 381.47,-952.98 371.2,-950.4 371.83,-957.37"/>
<text text-anchor="middle" x="234.01" y="-959.06" font-family="Times,serif" font-size="14.00">a</text>
</g>
<!-- http://w3id.org/oseg/ont/okhimg&#45;&gt;http://w3id.org/oseg/ont/oseg&#45;profiles#robinVobruba -->
<g id="edge4" class="edge">
<title>http://w3id.org/oseg/ont/okhimg&#45;&gt;http://w3id.org/oseg/ont/oseg&#45;profiles#robinVobruba</title>
<path fill="none" stroke="black" d="M84.09,-826.32C99.61,-843.99 127.27,-871.46 158.01,-883.26 218.15,-906.37 290.89,-908.42 347.54,-904.94"/>
<polygon fill="black" stroke="black" points="347.83,-908.43 357.57,-904.25 347.35,-901.44 347.83,-908.43"/>
<text text-anchor="middle" x="234.01" y="-910.06" font-family="Times,serif" font-size="14.00">schema:creator</text>
</g>
<!-- http://w3id.org/oseg/ont/okhimg&#45;&gt;http://w3id.org/oseg/ont/oseg&#45;profiles#robinVobruba -->
<g id="edge21" class="edge">
<title>http://w3id.org/oseg/ont/okhimg&#45;&gt;http://w3id.org/oseg/ont/oseg&#45;profiles#robinVobruba</title>
<path fill="none" stroke="black" d="M101.76,-824.9C118.12,-832.1 138.78,-840.28 158.01,-845.26 223.91,-862.33 242.92,-852.66 310.01,-864.26 330.7,-867.84 353.06,-872.5 373.34,-877.03"/>
<polygon fill="black" stroke="black" points="372.59,-880.45 383.11,-879.24 374.13,-873.62 372.59,-880.45"/>
<text text-anchor="middle" x="234.01" y="-868.06" font-family="Times,serif" font-size="14.00">dcterms:creator</text>
</g>
<!-- http://w3id.org/oseg/ont/okhimg&#45;&gt;http://w3id.org/oseg/ont/oseg&#45;profiles#Iopa -->
<g id="edge5" class="edge">
<title>http://w3id.org/oseg/ont/okhimg&#45;&gt;http://w3id.org/oseg/ont/oseg&#45;profiles#Iopa</title>
<path fill="none" stroke="black" d="M136.19,-815.58C184.25,-819.53 251.21,-825.11 310.01,-830.26 325.48,-831.62 341.98,-833.1 357.86,-834.55"/>
<polygon fill="black" stroke="black" points="357.91,-838.07 368.19,-835.5 358.55,-831.1 357.91,-838.07"/>
<text text-anchor="middle" x="234.01" y="-834.06" font-family="Times,serif" font-size="14.00">dcterms:publisher</text>
</g>
<!-- http://w3id.org/oseg/ont/okhimg&#45;&gt;http://id.loc.gov/vocabulary/iso639&#45;1/en -->
<g id="edge8" class="edge">
<title>http://w3id.org/oseg/ont/okhimg&#45;&gt;http://id.loc.gov/vocabulary/iso639&#45;1/en</title>
<path fill="none" stroke="black" d="M119.06,-798.53C131.65,-795.95 145.27,-793.59 158.01,-792.26 237.32,-784 329.83,-785.82 386.87,-788.25"/>
<polygon fill="black" stroke="black" points="386.95,-791.76 397.1,-788.71 387.26,-784.77 386.95,-791.76"/>
<text text-anchor="middle" x="234.01" y="-796.06" font-family="Times,serif" font-size="14.00">dcterms:language</text>
</g>
<!-- http://w3id.org/oseg/ont/okhimg&#45;&gt;http://w3id.org/oseg/ont/okhimg#tags -->
<g id="edge11" class="edge">
<title>http://w3id.org/oseg/ont/okhimg&#45;&gt;http://w3id.org/oseg/ont/okhimg#tags</title>
<path fill="none" stroke="black" d="M95.11,-794.95C112.03,-785 135.56,-772.72 158.01,-766.26 223.62,-747.4 300.98,-741.34 358.2,-739.74"/>
<polygon fill="black" stroke="black" points="358.37,-743.24 368.28,-739.5 358.2,-736.24 358.37,-743.24"/>
<text text-anchor="middle" x="234.01" y="-770.06" font-family="Times,serif" font-size="14.00">void:rootResource</text>
</g>
<!-- http://w3id.org/oseg/ont/okhimg&#45;&gt;http://spdx.org/licenses/AGPL&#45;3.0&#45;or&#45;later -->
<g id="edge16" class="edge">
<title>http://w3id.org/oseg/ont/okhimg&#45;&gt;http://spdx.org/licenses/AGPL&#45;3.0&#45;or&#45;later</title>
<path fill="none" stroke="black" d="M81.72,-794C96.29,-773.41 124.41,-738.65 158.01,-722.26 208.73,-697.53 270.45,-688.3 323.28,-685.65"/>
<polygon fill="black" stroke="black" points="323.54,-689.15 333.38,-685.22 323.24,-682.15 323.54,-689.15"/>
<text text-anchor="middle" x="234.01" y="-726.06" font-family="Times,serif" font-size="14.00">spdx:licenseDeclared</text>
</g>
<!-- http://w3id.org/oseg/ont/okhimg&#45;&gt;http://w3id.org/oseg/ont/0.1.0/okhimg -->
<g id="edge26" class="edge">
<title>http://w3id.org/oseg/ont/okhimg&#45;&gt;http://w3id.org/oseg/ont/0.1.0/okhimg</title>
<path fill="none" stroke="black" d="M75.6,-793.99C85.21,-763.28 110.58,-697.21 158.01,-667.26 221.93,-626.9 310.59,-624.45 371.52,-629"/>
<polygon fill="black" stroke="black" points="371.55,-632.51 381.8,-629.85 372.12,-625.54 371.55,-632.51"/>
<text text-anchor="middle" x="234.01" y="-671.06" font-family="Times,serif" font-size="14.00">owl:versionIRI</text>
</g>
<!-- http://w3id.org/oseg/ont/okhimg&#45;&gt;http://w3id.org/oseg/ont/okhimg#slots -->
<g id="edge46" class="edge">
<title>http://w3id.org/oseg/ont/okhimg&#45;&gt;http://w3id.org/oseg/ont/okhimg#slots</title>
<path fill="none" stroke="black" d="M72.5,-793.95C77.07,-754.4 94.72,-653.36 158.01,-608.26 221.73,-562.86 315.32,-565.73 377.15,-574.44"/>
<polygon fill="black" stroke="black" points="376.76,-577.92 387.17,-575.94 377.8,-571 376.76,-577.92"/>
<text text-anchor="middle" x="234.01" y="-612.06" font-family="Times,serif" font-size="14.00">void:rootResource</text>
</g>
<!-- http://w3id.org/oseg/ont/okhimg#slotIconMain&#45;&gt;http://schema.org/DefinedTerm -->
<g id="edge31" class="edge">
<title>http://w3id.org/oseg/ont/okhimg#slotIconMain&#45;&gt;http://schema.org/DefinedTerm</title>
<path fill="none" stroke="black" d="M962.53,-637.39C981.17,-640.31 1001.02,-643.4 1019.45,-646.26 1215.36,-676.68 1266.02,-674.8 1460.3,-714.26 1493.53,-721.01 1530.17,-730.14 1560.21,-738.07"/>
<polygon fill="black" stroke="black" points="1559.56,-741.51 1570.12,-740.7 1561.36,-734.75 1559.56,-741.51"/>
<text text-anchor="middle" x="1333.03" y="-718.06" font-family="Times,serif" font-size="14.00">a</text>
</g>
<!-- http://w3id.org/oseg/ont/okhimg#slotIconMainBw -->
<g id="node41" class="node">
<title>http://w3id.org/oseg/ont/okhimg#slotIconMainBw</title>
<ellipse fill="none" stroke="#e377c2" cx="1333.03" cy="-628.26" rx="117.26" ry="16.03"/>
<text text-anchor="middle" x="1333.03" y="-624.56" font-family="Times,serif" font-size="14.00">okhimg:slotIconMa...</text>
</g>
<!-- http://w3id.org/oseg/ont/okhimg#slotIconMain&#45;&gt;http://w3id.org/oseg/ont/okhimg#slotIconMainBw -->
<g id="edge50" class="edge">
<title>http://w3id.org/oseg/ont/okhimg#slotIconMain&#45;&gt;http://w3id.org/oseg/ont/okhimg#slotIconMainBw</title>
<path fill="none" stroke="black" d="M959.86,-612.79C979.22,-610.09 1000.06,-607.63 1019.45,-606.26 1094.07,-601.01 1113.16,-600.61 1187.75,-606.26 1208.48,-607.84 1230.75,-610.66 1251.44,-613.77"/>
<polygon fill="black" stroke="black" points="1251.04,-617.25 1261.45,-615.32 1252.11,-610.34 1251.04,-617.25"/>
<text text-anchor="middle" x="1103.6" y="-610.06" font-family="Times,serif" font-size="14.00">seeAlso</text>
</g>
<!-- http://w3id.org/oseg/ont/okhimg#slotModelMain -->
<g id="node30" class="node">
<title>http://w3id.org/oseg/ont/okhimg#slotModelMain</title>
<ellipse fill="none" stroke="#e377c2" cx="1333.03" cy="-577.26" rx="127.06" ry="16.03"/>
<text text-anchor="middle" x="1333.03" y="-573.56" font-family="Times,serif" font-size="14.00">okhimg:slotModelMain</text>
</g>
<!-- http://w3id.org/oseg/ont/okhimg#slotModelMain&#45;&gt;http://schema.org/DefinedTerm -->
<g id="edge32" class="edge">
<title>http://w3id.org/oseg/ont/okhimg#slotModelMain&#45;&gt;http://schema.org/DefinedTerm</title>
<path fill="none" stroke="black" d="M1422.08,-588.94C1435.3,-592.51 1448.46,-597.17 1460.3,-603.26 1521.66,-634.82 1576.4,-696.47 1603.82,-730.76"/>
<polygon fill="black" stroke="black" points="1601.25,-733.16 1610.19,-738.86 1606.75,-728.84 1601.25,-733.16"/>
<text text-anchor="middle" x="1482.8" y="-622.06" font-family="Times,serif" font-size="14.00">a</text>
</g>
<!-- http://w3id.org/oseg/ont/okhimg#slotModelFromFront -->
<g id="node31" class="node">
<title>http://w3id.org/oseg/ont/okhimg#slotModelFromFront</title>
<ellipse fill="none" stroke="#e377c2" cx="1333.03" cy="-526.26" rx="116.85" ry="16.03"/>
<text text-anchor="middle" x="1333.03" y="-522.56" font-family="Times,serif" font-size="14.00">okhimg:slotModelF...</text>
</g>
<!-- http://w3id.org/oseg/ont/okhimg#slotModelFromFront&#45;&gt;http://schema.org/DefinedTerm -->
<g id="edge33" class="edge">
<title>http://w3id.org/oseg/ont/okhimg#slotModelFromFront&#45;&gt;http://schema.org/DefinedTerm</title>
<path fill="none" stroke="black" d="M1423.6,-536.59C1436.49,-540.34 1449.14,-545.42 1460.3,-552.26 1532.87,-596.75 1586.53,-685.97 1609.73,-729.79"/>
<polygon fill="black" stroke="black" points="1606.75,-731.65 1614.46,-738.92 1612.96,-728.43 1606.75,-731.65"/>
<text text-anchor="middle" x="1482.8" y="-571.06" font-family="Times,serif" font-size="14.00">a</text>
</g>
<!-- http://w3id.org/oseg/ont/okhimg#tagModel -->
<g id="node32" class="node">
<title>http://w3id.org/oseg/ont/okhimg#tagModel</title>
<ellipse fill="none" stroke="#e377c2" cx="1333.03" cy="-475.26" rx="99.9" ry="16.03"/>
<text text-anchor="middle" x="1333.03" y="-471.56" font-family="Times,serif" font-size="14.00">okhimg:tagModel</text>
</g>
<!-- http://w3id.org/oseg/ont/okhimg#tagModel&#45;&gt;http://schema.org/DefinedTerm -->
<g id="edge34" class="edge">
<title>http://w3id.org/oseg/ont/okhimg#tagModel&#45;&gt;http://schema.org/DefinedTerm</title>
<path fill="none" stroke="black" d="M1420,-483.31C1434.28,-487.28 1448.32,-493.01 1460.3,-501.26 1544.73,-559.39 1594.87,-677.33 1613.75,-729.48"/>
<polygon fill="black" stroke="black" points="1610.48,-730.73 1617.11,-738.99 1617.08,-728.4 1610.48,-730.73"/>
<text text-anchor="middle" x="1482.8" y="-525.06" font-family="Times,serif" font-size="14.00">a</text>
</g>
<!-- http://w3id.org/oseg/ont/okhimg#slotPhotoPackaging -->
<g id="node33" class="node">
<title>http://w3id.org/oseg/ont/okhimg#slotPhotoPackaging</title>
<ellipse fill="none" stroke="#e377c2" cx="1333.03" cy="-424.26" rx="113.69" ry="16.03"/>
<text text-anchor="middle" x="1333.03" y="-420.56" font-family="Times,serif" font-size="14.00">okhimg:slotPhotoP...</text>
</g>
<!-- http://w3id.org/oseg/ont/okhimg#slotPhotoPackaging&#45;&gt;http://schema.org/DefinedTerm -->
<g id="edge35" class="edge">
<title>http://w3id.org/oseg/ont/okhimg#slotPhotoPackaging&#45;&gt;http://schema.org/DefinedTerm</title>
<path fill="none" stroke="black" d="M1426.16,-433.71C1438.34,-437.61 1450.11,-442.96 1460.3,-450.26 1558.49,-520.59 1602.51,-669.04 1616.82,-729.16"/>
<polygon fill="black" stroke="black" points="1613.43,-730.04 1619.08,-739 1620.25,-728.47 1613.43,-730.04"/>
<text text-anchor="middle" x="1482.8" y="-471.06" font-family="Times,serif" font-size="14.00">a</text>
</g>
<!-- http://w3id.org/oseg/ont/okhimg#tagAssembly -->
<g id="node34" class="node">
<title>http://w3id.org/oseg/ont/okhimg#tagAssembly</title>
<ellipse fill="none" stroke="#e377c2" cx="1333.03" cy="-373.26" rx="116.85" ry="16.03"/>
<text text-anchor="middle" x="1333.03" y="-369.56" font-family="Times,serif" font-size="14.00">okhimg:tagAssembly</text>
</g>
<!-- http://w3id.org/oseg/ont/okhimg#tagAssembly&#45;&gt;http://schema.org/DefinedTerm -->
<g id="edge38" class="edge">
<title>http://w3id.org/oseg/ont/okhimg#tagAssembly&#45;&gt;http://schema.org/DefinedTerm</title>
<path fill="none" stroke="black" d="M1427.64,-382.89C1439.33,-386.79 1450.57,-392.09 1460.3,-399.26 1572.42,-481.89 1608.93,-660.6 1619.01,-728.42"/>
<polygon fill="black" stroke="black" points="1615.6,-729.27 1620.46,-738.68 1622.53,-728.29 1615.6,-729.27"/>
<text text-anchor="middle" x="1482.8" y="-423.06" font-family="Times,serif" font-size="14.00">a</text>
</g>
<!-- http://w3id.org/oseg/ont/okhimg#tagPhoto -->
<g id="node35" class="node">
<title>http://w3id.org/oseg/ont/okhimg#tagPhoto</title>
<ellipse fill="none" stroke="#e377c2" cx="1333.03" cy="-322.26" rx="97.66" ry="16.03"/>
<text text-anchor="middle" x="1333.03" y="-318.56" font-family="Times,serif" font-size="14.00">okhimg:tagPhoto</text>
</g>
<!-- http://w3id.org/oseg/ont/okhimg#tagPhoto&#45;&gt;http://schema.org/DefinedTerm -->
<g id="edge40" class="edge">
<title>http://w3id.org/oseg/ont/okhimg#tagPhoto&#45;&gt;http://schema.org/DefinedTerm</title>
<path fill="none" stroke="black" d="M1420.64,-329.43C1434.85,-333.49 1448.7,-339.49 1460.3,-348.26 1586.96,-444.04 1614.84,-654.3 1620.81,-728.61"/>
<polygon fill="black" stroke="black" points="1617.35,-729.23 1621.57,-738.94 1624.33,-728.71 1617.35,-729.23"/>
<text text-anchor="middle" x="1482.8" y="-374.06" font-family="Times,serif" font-size="14.00">a</text>
</g>
<!-- http://w3id.org/oseg/ont/okhimg#slotModel3D -->
<g id="node36" class="node">
<title>http://w3id.org/oseg/ont/okhimg#slotModel3D</title>
<ellipse fill="none" stroke="#e377c2" cx="1333.03" cy="-271.26" rx="115.93" ry="16.03"/>
<text text-anchor="middle" x="1333.03" y="-267.56" font-family="Times,serif" font-size="14.00">okhimg:slotModel3D</text>
</g>
<!-- http://w3id.org/oseg/ont/okhimg#slotModel3D&#45;&gt;http://schema.org/DefinedTerm -->
<g id="edge41" class="edge">
<title>http://w3id.org/oseg/ont/okhimg#slotModel3D&#45;&gt;http://schema.org/DefinedTerm</title>
<path fill="none" stroke="black" d="M1428.24,-280.64C1439.77,-284.59 1450.81,-289.97 1460.3,-297.26 1601.8,-405.97 1620.13,-647.77 1622.23,-728.47"/>
<polygon fill="black" stroke="black" points="1618.73,-728.82 1622.43,-738.75 1625.73,-728.69 1618.73,-728.82"/>
<text text-anchor="middle" x="1482.8" y="-317.06" font-family="Times,serif" font-size="14.00">a</text>
</g>
<!-- http://w3id.org/oseg/ont/okhimg#tagBw -->
<g id="node37" class="node">
<title>http://w3id.org/oseg/ont/okhimg#tagBw</title>
<ellipse fill="none" stroke="#e377c2" cx="1333.03" cy="-220.26" rx="84.29" ry="16.03"/>
<text text-anchor="middle" x="1333.03" y="-216.56" font-family="Times,serif" font-size="14.00">okhimg:tagBw</text>
</g>
<!-- http://w3id.org/oseg/ont/okhimg#tagBw&#45;&gt;http://schema.org/DefinedTerm -->
<g id="edge42" class="edge">
<title>http://w3id.org/oseg/ont/okhimg#tagBw&#45;&gt;http://schema.org/DefinedTerm</title>
<path fill="none" stroke="black" d="M1412.49,-225.71C1429.42,-229.7 1446.39,-236.1 1460.3,-246.26 1480.07,-260.7 1477.8,-271.71 1487.3,-294.26 1554.44,-453.63 1601.45,-657.28 1616.89,-728.92"/>
<polygon fill="black" stroke="black" points="1613.5,-729.83 1619.01,-738.88 1620.35,-728.37 1613.5,-729.83"/>
<text text-anchor="middle" x="1482.8" y="-298.06" font-family="Times,serif" font-size="14.00">a</text>
</g>
<!-- http://w3id.org/oseg/ont/okhimg#tagDiagram -->
<g id="node38" class="node">
<title>http://w3id.org/oseg/ont/okhimg#tagDiagram</title>
<ellipse fill="none" stroke="#e377c2" cx="1333.03" cy="-169.26" rx="111.95" ry="16.03"/>
<text text-anchor="middle" x="1333.03" y="-165.56" font-family="Times,serif" font-size="14.00">okhimg:tagDiagram</text>
</g>
<!-- http://w3id.org/oseg/ont/okhimg#tagDiagram&#45;&gt;http://schema.org/DefinedTerm -->
<g id="edge43" class="edge">
<title>http://w3id.org/oseg/ont/okhimg#tagDiagram&#45;&gt;http://schema.org/DefinedTerm</title>
<path fill="none" stroke="black" d="M1426.94,-178.2C1438.94,-182.19 1450.45,-187.7 1460.3,-195.26 1481.58,-211.61 1477.8,-224.17 1487.3,-249.26 1554.72,-427.14 1602.17,-652.22 1617.26,-728.56"/>
<polygon fill="black" stroke="black" points="1613.89,-729.58 1619.25,-738.72 1620.76,-728.23 1613.89,-729.58"/>
<text text-anchor="middle" x="1482.8" y="-253.06" font-family="Times,serif" font-size="14.00">a</text>
</g>
<!-- http://w3id.org/oseg/ont/okhimg#slotModelFromBelow -->
<g id="node39" class="node">
<title>http://w3id.org/oseg/ont/okhimg#slotModelFromBelow</title>
<ellipse fill="none" stroke="#e377c2" cx="1333.03" cy="-118.26" rx="116.85" ry="16.03"/>
<text text-anchor="middle" x="1333.03" y="-114.56" font-family="Times,serif" font-size="14.00">okhimg:slotModelF...</text>
</g>
<!-- http://w3id.org/oseg/ont/okhimg#slotModelFromBelow&#45;&gt;http://schema.org/DefinedTerm -->
<g id="edge44" class="edge">
<title>http://w3id.org/oseg/ont/okhimg#slotModelFromBelow&#45;&gt;http://schema.org/DefinedTerm</title>
<path fill="none" stroke="black" d="M1428.66,-127.62C1440.06,-131.58 1450.95,-136.97 1460.3,-144.26 1482.09,-161.25 1477.99,-174.25 1487.3,-200.26 1558.06,-397.76 1604.12,-647.85 1617.99,-728.74"/>
<polygon fill="black" stroke="black" points="1614.61,-729.73 1619.73,-739.01 1621.51,-728.56 1614.61,-729.73"/>
<text text-anchor="middle" x="1482.8" y="-204.06" font-family="Times,serif" font-size="14.00">a</text>
</g>
<!-- http://w3id.org/oseg/ont/okhimg#tagDrawing -->
<g id="node40" class="node">
<title>http://w3id.org/oseg/ont/okhimg#tagDrawing</title>
<ellipse fill="none" stroke="#e377c2" cx="1333.03" cy="-67.26" rx="111.95" ry="16.03"/>
<text text-anchor="middle" x="1333.03" y="-63.56" font-family="Times,serif" font-size="14.00">okhimg:tagDrawing</text>
</g>
<!-- http://w3id.org/oseg/ont/okhimg#tagDrawing&#45;&gt;http://schema.org/DefinedTerm -->
<g id="edge45" class="edge">
<title>http://w3id.org/oseg/ont/okhimg#tagDrawing&#45;&gt;http://schema.org/DefinedTerm</title>
<path fill="none" stroke="black" d="M1427.05,-76.07C1439.02,-80.08 1450.51,-85.62 1460.3,-93.26 1482.09,-110.25 1478.24,-123.16 1487.3,-149.26 1562.86,-366.79 1606.39,-643.29 1618.73,-728.84"/>
<polygon fill="black" stroke="black" points="1615.29,-729.56 1620.17,-738.97 1622.22,-728.58 1615.29,-729.56"/>
<text text-anchor="middle" x="1482.8" y="-153.06" font-family="Times,serif" font-size="14.00">a</text>
</g>
<!-- http://w3id.org/oseg/ont/okhimg#slotIconMainBw&#45;&gt;http://schema.org/DefinedTerm -->
<g id="edge48" class="edge">
<title>http://w3id.org/oseg/ont/okhimg#slotIconMainBw&#45;&gt;http://schema.org/DefinedTerm</title>
<path fill="none" stroke="black" d="M1435.8,-636.13C1453.41,-639.56 1471.21,-644.41 1487.3,-651.26 1531.97,-670.28 1574.86,-707.63 1599.91,-732"/>
<polygon fill="black" stroke="black" points="1597.53,-734.57 1607.09,-739.12 1602.45,-729.59 1597.53,-734.57"/>
<text text-anchor="middle" x="1482.8" y="-655.06" font-family="Times,serif" font-size="14.00">a</text>
</g>
<!-- http://w3id.org/oseg/ont/okhimg#slotIconMainBw&#45;&gt;http://w3id.org/oseg/ont/okhimg#slotIconMain -->
<g id="edge39" class="edge">
<title>http://w3id.org/oseg/ont/okhimg#slotIconMainBw&#45;&gt;http://w3id.org/oseg/ont/okhimg#slotIconMain</title>
<path fill="none" stroke="black" d="M1215.57,-627.48C1152.93,-627.06 1075.61,-626.54 1011.51,-626.11"/>
<polygon fill="black" stroke="black" points="1011.36,-622.61 1001.34,-626.04 1011.32,-629.61 1011.36,-622.61"/>
<text text-anchor="middle" x="1103.6" y="-631.06" font-family="Times,serif" font-size="14.00">seeAlso</text>
</g>
<!-- http://w3id.org/oseg/ont/okhimg#tagScreenshot -->
<g id="node42" class="node">
<title>http://w3id.org/oseg/ont/okhimg#tagScreenshot</title>
<ellipse fill="none" stroke="#e377c2" cx="1333.03" cy="-16.26" rx="125.32" ry="16.03"/>
<text text-anchor="middle" x="1333.03" y="-12.56" font-family="Times,serif" font-size="14.00">okhimg:tagScreenshot</text>
</g>
<!-- http://w3id.org/oseg/ont/okhimg#tagScreenshot&#45;&gt;http://schema.org/DefinedTerm -->
<g id="edge49" class="edge">
<title>http://w3id.org/oseg/ont/okhimg#tagScreenshot&#45;&gt;http://schema.org/DefinedTerm</title>
<path fill="none" stroke="black" d="M1430.91,-26.42C1441.49,-30.3 1451.57,-35.45 1460.3,-42.26 1482.09,-59.25 1478.46,-72.09 1487.3,-98.26 1567.58,-335.72 1608.37,-638.34 1619.32,-728.67"/>
<polygon fill="black" stroke="black" points="1615.84,-729.1 1620.5,-738.62 1622.79,-728.27 1615.84,-729.1"/>
<text text-anchor="middle" x="1482.8" y="-102.06" font-family="Times,serif" font-size="14.00">a</text>
</g>
</g>
</svg>
