<?xml version="1.0" encoding="UTF-8" standalone="no"?>
<!DOCTYPE svg PUBLIC "-//W3C//DTD SVG 1.1//EN"
 "http://www.w3.org/Graphics/SVG/1.1/DTD/svg11.dtd">
<!-- Generated by graphviz version 2.43.0 (0)
 -->
<!-- Title: G Pages: 1 -->
<svg width="1614pt" height="2378pt"
 viewBox="0.00 0.00 1614.00 2378.00" xmlns="http://www.w3.org/2000/svg" xmlns:xlink="http://www.w3.org/1999/xlink">
<g id="graph0" class="graph" transform="scale(1 1) rotate(0) translate(4 2374)">
<title>G</title>
<polygon fill="white" stroke="transparent" points="-4,4 -4,-2374 1610,-2374 1610,4 -4,4"/>
<!-- http://schema.org/URL -->
<g id="node1" class="node">
<title>http://schema.org/URL</title>
<ellipse fill="none" stroke="#e377c2" cx="578.28" cy="-340.52" rx="75.82" ry="16.03"/>
<text text-anchor="middle" x="578.28" y="-336.82" font-family="Times,serif" font-size="14.00">schema:URL</text>
</g>
<!-- http://w3id.org/oseg/ont/okh#Reference -->
<g id="node2" class="node">
<title>http://w3id.org/oseg/ont/okh#Reference</title>
<ellipse fill="none" stroke="#e377c2" cx="344.28" cy="-906.31" rx="84.29" ry="16.03"/>
<text text-anchor="middle" x="344.28" y="-902.61" font-family="Times,serif" font-size="14.00">okh:Reference</text>
</g>
<!-- http://www.w3.org/2004/02/skos/core#Concept -->
<g id="node3" class="node">
<title>http://www.w3.org/2004/02/skos/core#Concept</title>
<ellipse fill="none" stroke="#1f77b4" cx="903.68" cy="-1072.93" rx="78.48" ry="16.03"/>
<text text-anchor="middle" x="903.68" y="-1069.23" font-family="Times,serif" font-size="14.00">skos:Concept</text>
</g>
<!-- http://w3id.org/oseg/ont/okh#ComponentReference -->
<g id="node4" class="node">
<title>http://w3id.org/oseg/ont/okh#ComponentReference</title>
<ellipse fill="none" stroke="#e377c2" cx="627.63" cy="-837.84" rx="123.07" ry="16.03"/>
<text text-anchor="middle" x="627.63" y="-834.14" font-family="Times,serif" font-size="14.00">okh:ComponentRefe...</text>
</g>
<!-- http://w3id.org/oseg/ont/okh#ComponentReference&#45;&gt;http://w3id.org/oseg/ont/okh#Reference -->
<g id="edge11" class="edge">
<title>http://w3id.org/oseg/ont/okh#ComponentReference&#45;&gt;http://w3id.org/oseg/ont/okh#Reference</title>
<path fill="none" stroke="black" d="M568.58,-852.11C521.34,-863.53 455.25,-879.5 407.05,-891.14"/>
<polygon fill="black" stroke="black" points="405.95,-887.81 397.05,-893.56 407.6,-894.61 405.95,-887.81"/>
</g>
<!-- http://w3id.org/oseg/ont/okh#ComponentReference&#45;&gt;http://www.w3.org/2004/02/skos/core#Concept -->
<g id="edge20" class="edge">
<title>http://w3id.org/oseg/ont/okh#ComponentReference&#45;&gt;http://www.w3.org/2004/02/skos/core#Concept</title>
<path fill="none" stroke="black" d="M646.61,-854C694.79,-895.03 821.95,-1003.33 877.31,-1050.47"/>
<polygon fill="black" stroke="black" points="875.05,-1053.15 884.93,-1056.97 879.59,-1047.82 875.05,-1053.15"/>
<text text-anchor="middle" x="757.46" y="-956.04" font-family="Times,serif" font-size="14.00">a</text>
</g>
<!-- http://w3id.org/oseg/ont/okhmetaPartsTag -->
<g id="node23" class="node">
<title>http://w3id.org/oseg/ont/okhmetaPartsTag</title>
<ellipse fill="none" stroke="#e377c2" cx="324.15" cy="-737.26" rx="103.48" ry="16.03"/>
<text text-anchor="middle" x="324.15" y="-733.56" font-family="Times,serif" font-size="14.00">okhmeta:PartsTag</text>
</g>
<!-- http://w3id.org/oseg/ont/okh#ComponentReference&#45;&gt;http://w3id.org/oseg/ont/okhmetaPartsTag -->
<g id="edge10" class="edge">
<title>http://w3id.org/oseg/ont/okh#ComponentReference&#45;&gt;http://w3id.org/oseg/ont/okhmetaPartsTag</title>
<path fill="none" stroke="black" d="M581.87,-822.68C527.4,-804.62 436.53,-774.51 378.52,-755.28"/>
<polygon fill="black" stroke="black" points="379.39,-751.88 368.8,-752.06 377.19,-758.53 379.39,-751.88"/>
<text text-anchor="middle" x="403.2" y="-792.78" font-family="Times,serif" font-size="14.00">okhmeta:hasMetaTag</text>
</g>
<!-- http://w3id.org/oseg/ont/okh#Mass -->
<g id="node5" class="node">
<title>http://w3id.org/oseg/ont/okh#Mass</title>
<ellipse fill="none" stroke="#e377c2" cx="876.5" cy="-1410.68" rx="59.29" ry="16.03"/>
<text text-anchor="middle" x="876.5" y="-1406.98" font-family="Times,serif" font-size="14.00">okh:Mass</text>
</g>
<!-- http://w3id.org/oseg/ont/okh#Mass&#45;&gt;http://www.w3.org/2004/02/skos/core#Concept -->
<g id="edge38" class="edge">
<title>http://w3id.org/oseg/ont/okh#Mass&#45;&gt;http://www.w3.org/2004/02/skos/core#Concept</title>
<path fill="none" stroke="black" d="M877.81,-1394.39C882.16,-1340.34 896.14,-1166.58 901.53,-1099.6"/>
<polygon fill="black" stroke="black" points="905.03,-1099.7 902.35,-1089.45 898.06,-1099.14 905.03,-1099.7"/>
<text text-anchor="middle" x="885.17" y="-1250.8" font-family="Times,serif" font-size="14.00">a</text>
</g>
<!-- http://w3id.org/oseg/ont/okhmetaTransportationTag -->
<g id="node21" class="node">
<title>http://w3id.org/oseg/ont/okhmetaTransportationTag</title>
<ellipse fill="none" stroke="#e377c2" cx="1123.81" cy="-1492.79" rx="118.17" ry="16.03"/>
<text text-anchor="middle" x="1123.81" y="-1489.09" font-family="Times,serif" font-size="14.00">okhmeta:Transport...</text>
</g>
<!-- http://w3id.org/oseg/ont/okh#Mass&#45;&gt;http://w3id.org/oseg/ont/okhmetaTransportationTag -->
<g id="edge9" class="edge">
<title>http://w3id.org/oseg/ont/okh#Mass&#45;&gt;http://w3id.org/oseg/ont/okhmetaTransportationTag</title>
<path fill="none" stroke="black" d="M914.33,-1423.24C955.51,-1436.91 1021.75,-1458.91 1068.71,-1474.5"/>
<polygon fill="black" stroke="black" points="1067.83,-1477.89 1078.42,-1477.72 1070.04,-1471.25 1067.83,-1477.89"/>
<text text-anchor="middle" x="914.52" y="-1452.67" font-family="Times,serif" font-size="14.00">okhmeta:hasMetaTag</text>
</g>
<!-- http://w3id.org/oseg/ont/okhmetaPhysicalTag -->
<g id="node33" class="node">
<title>http://w3id.org/oseg/ont/okhmetaPhysicalTag</title>
<ellipse fill="none" stroke="#e377c2" cx="891.25" cy="-1669.14" rx="118.17" ry="16.03"/>
<text text-anchor="middle" x="891.25" y="-1665.44" font-family="Times,serif" font-size="14.00">okhmeta:PhysicalTag</text>
</g>
<!-- http://w3id.org/oseg/ont/okh#Mass&#45;&gt;http://w3id.org/oseg/ont/okhmetaPhysicalTag -->
<g id="edge40" class="edge">
<title>http://w3id.org/oseg/ont/okh#Mass&#45;&gt;http://w3id.org/oseg/ont/okhmetaPhysicalTag</title>
<path fill="none" stroke="black" d="M877.44,-1427.24C879.94,-1470.91 886.71,-1589.51 889.74,-1642.7"/>
<polygon fill="black" stroke="black" points="886.25,-1642.93 890.32,-1652.72 893.24,-1642.54 886.25,-1642.93"/>
<text text-anchor="middle" x="806.59" y="-1538.77" font-family="Times,serif" font-size="14.00">okhmeta:hasMetaTag</text>
</g>
<!-- http://w3id.org/oseg/ont/okh#FileUrl -->
<g id="node6" class="node">
<title>http://w3id.org/oseg/ont/okh#FileUrl</title>
<ellipse fill="none" stroke="#1f77b4" cx="724.24" cy="-526.26" rx="68.68" ry="16.03"/>
<text text-anchor="middle" x="724.24" y="-522.56" font-family="Times,serif" font-size="14.00">okh:FileUrl</text>
</g>
<!-- http://w3id.org/oseg/ont/okh#FileUrl&#45;&gt;http://schema.org/URL -->
<g id="edge1" class="edge">
<title>http://w3id.org/oseg/ont/okh#FileUrl&#45;&gt;http://schema.org/URL</title>
<path fill="none" stroke="black" d="M711.54,-510.1C685.88,-477.44 627.71,-403.42 597.42,-364.88"/>
<polygon fill="black" stroke="black" points="599.98,-362.47 591.05,-356.77 594.48,-366.8 599.98,-362.47"/>
</g>
<!-- http://w3id.org/oseg/ont/okh#FileUrl&#45;&gt;http://w3id.org/oseg/ont/okh#ComponentReference -->
<g id="edge24" class="edge">
<title>http://w3id.org/oseg/ont/okh#FileUrl&#45;&gt;http://w3id.org/oseg/ont/okh#ComponentReference</title>
<path fill="none" stroke="black" d="M719.18,-542.57C703.44,-593.35 655.2,-748.94 635.82,-811.44"/>
<polygon fill="black" stroke="black" points="632.38,-810.73 632.76,-821.32 639.06,-812.8 632.38,-810.73"/>
</g>
<!-- http://w3id.org/oseg/ont/okh#File -->
<g id="node16" class="node">
<title>http://w3id.org/oseg/ont/okh#File</title>
<ellipse fill="none" stroke="#e377c2" cx="943.69" cy="-443.85" rx="52.15" ry="16.03"/>
<text text-anchor="middle" x="943.69" y="-440.15" font-family="Times,serif" font-size="14.00">okh:File</text>
</g>
<!-- http://w3id.org/oseg/ont/okh#FileUrl&#45;&gt;http://w3id.org/oseg/ont/okh#File -->
<g id="edge8" class="edge">
<title>http://w3id.org/oseg/ont/okh#FileUrl&#45;&gt;http://w3id.org/oseg/ont/okh#File</title>
<path fill="none" stroke="black" d="M760.97,-512.46C799.49,-498 859.97,-475.29 900.69,-460"/>
<polygon fill="black" stroke="black" points="901.95,-463.26 910.08,-456.47 899.49,-456.71 901.95,-463.26"/>
<text text-anchor="middle" x="750.83" y="-490.03" font-family="Times,serif" font-size="14.00">schema:supersededBy</text>
</g>
<!-- http://schema.org/url -->
<g id="node7" class="node">
<title>http://schema.org/url</title>
<ellipse fill="none" stroke="#e377c2" cx="1197.3" cy="-47.78" rx="67.35" ry="16.03"/>
<text text-anchor="middle" x="1197.3" y="-44.08" font-family="Times,serif" font-size="14.00">schema:url</text>
</g>
<!-- http://w3id.org/oseg/ont/okh#spdxLicense -->
<g id="node8" class="node">
<title>http://w3id.org/oseg/ont/okh#spdxLicense</title>
<ellipse fill="none" stroke="#e377c2" cx="1142.99" cy="-876.84" rx="94.51" ry="16.03"/>
<text text-anchor="middle" x="1142.99" y="-873.14" font-family="Times,serif" font-size="14.00">okh:spdxLicense</text>
</g>
<!-- http://w3id.org/oseg/ont/okh#spdxLicense&#45;&gt;http://www.w3.org/2004/02/skos/core#Concept -->
<g id="edge4" class="edge">
<title>http://w3id.org/oseg/ont/okh#spdxLicense&#45;&gt;http://www.w3.org/2004/02/skos/core#Concept</title>
<path fill="none" stroke="black" d="M1123.4,-892.89C1080.88,-927.74 979.99,-1010.4 931.13,-1050.43"/>
<polygon fill="black" stroke="black" points="928.71,-1047.89 923.19,-1056.93 933.15,-1053.3 928.71,-1047.89"/>
<text text-anchor="middle" x="1022.77" y="-975.46" font-family="Times,serif" font-size="14.00">a</text>
</g>
<!-- http://w3id.org/oseg/ont/okhmetaLegalTag -->
<g id="node9" class="node">
<title>http://w3id.org/oseg/ont/okhmetaLegalTag</title>
<ellipse fill="none" stroke="#e377c2" cx="1276" cy="-832.47" rx="103.89" ry="16.03"/>
<text text-anchor="middle" x="1276" y="-828.77" font-family="Times,serif" font-size="14.00">okhmeta:LegalTag</text>
</g>
<!-- http://w3id.org/oseg/ont/okh#spdxLicense&#45;&gt;http://w3id.org/oseg/ont/okhmetaLegalTag -->
<g id="edge15" class="edge">
<title>http://w3id.org/oseg/ont/okh#spdxLicense&#45;&gt;http://w3id.org/oseg/ont/okhmetaLegalTag</title>
<path fill="none" stroke="black" d="M1186.54,-862.31C1197.79,-858.56 1210.03,-854.47 1221.75,-850.57"/>
<polygon fill="black" stroke="black" points="1223.06,-853.82 1231.44,-847.33 1220.84,-847.18 1223.06,-853.82"/>
<text text-anchor="middle" x="1127.14" y="-845.24" font-family="Times,serif" font-size="14.00">okhmeta:hasMetaTag</text>
</g>
<!-- http://w3id.org/oseg/ont/okh#license -->
<g id="node10" class="node">
<title>http://w3id.org/oseg/ont/okh#license</title>
<ellipse fill="none" stroke="#e377c2" cx="1081.92" cy="-709.9" rx="67.76" ry="16.03"/>
<text text-anchor="middle" x="1081.92" y="-706.2" font-family="Times,serif" font-size="14.00">okh:license</text>
</g>
<!-- http://w3id.org/oseg/ont/okh#spdxLicense&#45;&gt;http://w3id.org/oseg/ont/okh#license -->
<g id="edge37" class="edge">
<title>http://w3id.org/oseg/ont/okh#spdxLicense&#45;&gt;http://w3id.org/oseg/ont/okh#license</title>
<path fill="none" stroke="black" d="M1137.02,-860.53C1126.42,-831.56 1104.23,-770.89 1091.48,-736.04"/>
<polygon fill="black" stroke="black" points="1094.72,-734.71 1088,-726.53 1088.15,-737.12 1094.72,-734.71"/>
<text text-anchor="middle" x="1034.25" y="-802.09" font-family="Times,serif" font-size="14.00">schema:supersededBy</text>
</g>
<!-- http://w3id.org/oseg/ont/okh#Module -->
<g id="node13" class="node">
<title>http://w3id.org/oseg/ont/okh#Module</title>
<ellipse fill="none" stroke="#e377c2" cx="1203.26" cy="-919.31" rx="70.92" ry="16.03"/>
<text text-anchor="middle" x="1203.26" y="-915.61" font-family="Times,serif" font-size="14.00">okh:Module</text>
</g>
<!-- http://w3id.org/oseg/ont/okh#spdxLicense&#45;&gt;http://w3id.org/oseg/ont/okh#Module -->
<g id="edge25" class="edge">
<title>http://w3id.org/oseg/ont/okh#spdxLicense&#45;&gt;http://w3id.org/oseg/ont/okh#Module</title>
<path fill="none" stroke="black" d="M1165.43,-892.66C1167.82,-894.34 1170.27,-896.07 1172.73,-897.8"/>
<polygon fill="black" stroke="black" points="1170.81,-900.73 1181,-903.63 1174.84,-895.01 1170.81,-900.73"/>
<text text-anchor="middle" x="1091.08" y="-899.03" font-family="Times,serif" font-size="14.00">dcam:domainIncludes</text>
</g>
<!-- http://schema.org/license -->
<g id="node18" class="node">
<title>http://schema.org/license</title>
<ellipse fill="none" stroke="#e377c2" cx="1276.4" cy="-660.27" rx="88.28" ry="16.03"/>
<text text-anchor="middle" x="1276.4" y="-656.57" font-family="Times,serif" font-size="14.00">schema:license</text>
</g>
<!-- http://w3id.org/oseg/ont/okh#spdxLicense&#45;&gt;http://schema.org/license -->
<g id="edge27" class="edge">
<title>http://w3id.org/oseg/ont/okh#spdxLicense&#45;&gt;http://schema.org/license</title>
<path fill="none" stroke="black" d="M1153.02,-860.57C1176.2,-822.93 1233.65,-729.68 1261.19,-684.96"/>
<polygon fill="black" stroke="black" points="1264.18,-686.8 1266.44,-676.45 1258.22,-683.12 1264.18,-686.8"/>
<text text-anchor="middle" x="1148.11" y="-776.56" font-family="Times,serif" font-size="14.00">skos:closeMatch</text>
</g>
<!-- http://spdx.org/rdf/terms#ListedLicense -->
<g id="node34" class="node">
<title>http://spdx.org/rdf/terms#ListedLicense</title>
<ellipse fill="none" stroke="#e377c2" cx="1498.28" cy="-847.19" rx="108.38" ry="16.03"/>
<text text-anchor="middle" x="1498.28" y="-843.49" font-family="Times,serif" font-size="14.00">spdx:ListedLicense</text>
</g>
<!-- http://w3id.org/oseg/ont/okh#spdxLicense&#45;&gt;http://spdx.org/rdf/terms#ListedLicense -->
<g id="edge19" class="edge">
<title>http://w3id.org/oseg/ont/okh#spdxLicense&#45;&gt;http://spdx.org/rdf/terms#ListedLicense</title>
<path fill="none" stroke="black" d="M1228.54,-869.7C1278.11,-865.56 1340.92,-860.32 1393.44,-855.94"/>
<polygon fill="black" stroke="black" points="1393.79,-859.42 1403.47,-855.1 1393.21,-852.44 1393.79,-859.42"/>
<text text-anchor="middle" x="1383.49" y="-866.62" font-family="Times,serif" font-size="14.00">dcam:rangeIncludes</text>
</g>
<!-- http://w3id.org/oseg/ont/okh#openSCAD -->
<g id="node11" class="node">
<title>http://w3id.org/oseg/ont/okh#openSCAD</title>
<ellipse fill="none" stroke="#e377c2" cx="289.36" cy="-2101.72" rx="86.03" ry="16.03"/>
<text text-anchor="middle" x="289.36" y="-2098.02" font-family="Times,serif" font-size="14.00">okh:openSCAD</text>
</g>
<!-- http://w3id.org/oseg/ont/okh#Dimensions -->
<g id="node22" class="node">
<title>http://w3id.org/oseg/ont/okh#Dimensions</title>
<ellipse fill="none" stroke="#e377c2" cx="513.84" cy="-1843.36" rx="91.85" ry="16.03"/>
<text text-anchor="middle" x="513.84" y="-1839.66" font-family="Times,serif" font-size="14.00">okh:Dimensions</text>
</g>
<!-- http://w3id.org/oseg/ont/okh#openSCAD&#45;&gt;http://w3id.org/oseg/ont/okh#Dimensions -->
<g id="edge31" class="edge">
<title>http://w3id.org/oseg/ont/okh#openSCAD&#45;&gt;http://w3id.org/oseg/ont/okh#Dimensions</title>
<path fill="none" stroke="black" d="M303.4,-2085.56C341.67,-2041.52 447.93,-1919.21 493.1,-1867.23"/>
<polygon fill="black" stroke="black" points="495.89,-1869.36 499.8,-1859.51 490.6,-1864.76 495.89,-1869.36"/>
<text text-anchor="middle" x="320.25" y="-1980.19" font-family="Times,serif" font-size="14.00">dcam:domainIncludes</text>
</g>
<!-- http://www.w3.org/2001/XMLSchema#string -->
<g id="node25" class="node">
<title>http://www.w3.org/2001/XMLSchema#string</title>
<ellipse fill="none" stroke="#e377c2" cx="375.72" cy="-2314.27" rx="62.87" ry="16.03"/>
<text text-anchor="middle" x="375.72" y="-2310.57" font-family="Times,serif" font-size="14.00">xsd:string</text>
</g>
<!-- http://w3id.org/oseg/ont/okh#openSCAD&#45;&gt;http://www.w3.org/2001/XMLSchema#string -->
<g id="edge32" class="edge">
<title>http://w3id.org/oseg/ont/okh#openSCAD&#45;&gt;http://www.w3.org/2001/XMLSchema#string</title>
<path fill="none" stroke="black" d="M295.99,-2118.05C310.91,-2154.75 347.19,-2244.04 365.21,-2288.39"/>
<polygon fill="black" stroke="black" points="362.06,-2289.95 369.07,-2297.89 368.55,-2287.31 362.06,-2289.95"/>
<text text-anchor="middle" x="258.1" y="-2207.02" font-family="Times,serif" font-size="14.00">dcam:rangeIncludes</text>
</g>
<!-- http://w3id.org/oseg/ont/okh#width -->
<g id="node27" class="node">
<title>http://w3id.org/oseg/ont/okh#width</title>
<ellipse fill="none" stroke="#e377c2" cx="133.47" cy="-2272.16" rx="61.54" ry="16.03"/>
<text text-anchor="middle" x="133.47" y="-2268.46" font-family="Times,serif" font-size="14.00">okh:width</text>
</g>
<!-- http://w3id.org/oseg/ont/okh#openSCAD&#45;&gt;http://w3id.org/oseg/ont/okh#width -->
<g id="edge13" class="edge">
<title>http://w3id.org/oseg/ont/okh#openSCAD&#45;&gt;http://w3id.org/oseg/ont/okh#width</title>
<path fill="none" stroke="black" d="M274.69,-2117.76C247.07,-2147.96 187.22,-2213.39 155.02,-2248.61"/>
<polygon fill="black" stroke="black" points="152.38,-2246.31 148.21,-2256.05 157.54,-2251.03 152.38,-2246.31"/>
<text text-anchor="middle" x="294.86" y="-2186.98" font-family="Times,serif" font-size="14.00">schema:supersededBy</text>
</g>
<!-- http://w3id.org/oseg/ont/okh#height -->
<g id="node30" class="node">
<title>http://w3id.org/oseg/ont/okh#height</title>
<ellipse fill="none" stroke="#e377c2" cx="65.03" cy="-2176.34" rx="65.11" ry="16.03"/>
<text text-anchor="middle" x="65.03" y="-2172.64" font-family="Times,serif" font-size="14.00">okh:height</text>
</g>
<!-- http://w3id.org/oseg/ont/okh#openSCAD&#45;&gt;http://w3id.org/oseg/ont/okh#height -->
<g id="edge14" class="edge">
<title>http://w3id.org/oseg/ont/okh#openSCAD&#45;&gt;http://w3id.org/oseg/ont/okh#height</title>
<path fill="none" stroke="black" d="M246.64,-2115.93C208.78,-2128.52 153.53,-2146.9 113.93,-2160.08"/>
<polygon fill="black" stroke="black" points="112.6,-2156.83 104.21,-2163.31 114.81,-2163.47 112.6,-2156.83"/>
<text text-anchor="middle" x="100.28" y="-2141.8" font-family="Times,serif" font-size="14.00">schema:supersededBy</text>
</g>
<!-- http://w3id.org/oseg/ont/okh#depth -->
<g id="node35" class="node">
<title>http://w3id.org/oseg/ont/okh#depth</title>
<ellipse fill="none" stroke="#e377c2" cx="70.92" cy="-2044.65" rx="62.45" ry="16.03"/>
<text text-anchor="middle" x="70.92" y="-2040.95" font-family="Times,serif" font-size="14.00">okh:depth</text>
</g>
<!-- http://w3id.org/oseg/ont/okh#openSCAD&#45;&gt;http://w3id.org/oseg/ont/okh#depth -->
<g id="edge21" class="edge">
<title>http://w3id.org/oseg/ont/okh#openSCAD&#45;&gt;http://w3id.org/oseg/ont/okh#depth</title>
<path fill="none" stroke="black" d="M238.69,-2088.49C204.63,-2079.59 159.76,-2067.87 125,-2058.78"/>
<polygon fill="black" stroke="black" points="125.59,-2055.32 115.03,-2056.18 123.82,-2062.09 125.59,-2055.32"/>
<text text-anchor="middle" x="101.85" y="-2077.43" font-family="Times,serif" font-size="14.00">schema:supersededBy</text>
</g>
<!-- http://w3id.org/oseg/ont/okh#permaURL -->
<g id="node12" class="node">
<title>http://w3id.org/oseg/ont/okh#permaURL</title>
<ellipse fill="none" stroke="#e377c2" cx="884.43" cy="-227.01" rx="87.86" ry="16.03"/>
<text text-anchor="middle" x="884.43" y="-223.31" font-family="Times,serif" font-size="14.00">okh:permaURL</text>
</g>
<!-- http://w3id.org/oseg/ont/okh#permaURL&#45;&gt;http://w3id.org/oseg/ont/okh#File -->
<g id="edge6" class="edge">
<title>http://w3id.org/oseg/ont/okh#permaURL&#45;&gt;http://w3id.org/oseg/ont/okh#File</title>
<path fill="none" stroke="black" d="M888.88,-243.31C899.07,-280.59 924.15,-372.35 936.53,-417.67"/>
<polygon fill="black" stroke="black" points="933.17,-418.64 939.18,-427.36 939.92,-416.79 933.17,-418.64"/>
<text text-anchor="middle" x="834.71" y="-334.29" font-family="Times,serif" font-size="14.00">dcam:domainIncludes</text>
</g>
<!-- http://w3id.org/oseg/ont/okh#installationGuide -->
<g id="node14" class="node">
<title>http://w3id.org/oseg/ont/okh#installationGuide</title>
<ellipse fill="none" stroke="#e377c2" cx="875.69" cy="-831.09" rx="106.55" ry="16.03"/>
<text text-anchor="middle" x="875.69" y="-827.39" font-family="Times,serif" font-size="14.00">okh:installationG...</text>
</g>
<!-- http://w3id.org/oseg/ont/okh#installationGuide&#45;&gt;http://www.w3.org/2004/02/skos/core#Concept -->
<g id="edge26" class="edge">
<title>http://w3id.org/oseg/ont/okh#installationGuide&#45;&gt;http://www.w3.org/2004/02/skos/core#Concept</title>
<path fill="none" stroke="black" d="M877.61,-847.71C882.39,-888.97 894.81,-996.34 900.61,-1046.45"/>
<polygon fill="black" stroke="black" points="897.15,-1046.98 901.78,-1056.51 904.1,-1046.17 897.15,-1046.98"/>
<text text-anchor="middle" x="884.61" y="-950.88" font-family="Times,serif" font-size="14.00">a</text>
</g>
<!-- http://w3id.org/oseg/ont/okh#Software -->
<g id="node31" class="node">
<title>http://w3id.org/oseg/ont/okh#Software</title>
<ellipse fill="none" stroke="#e377c2" cx="639.82" cy="-691.26" rx="78.48" ry="16.03"/>
<text text-anchor="middle" x="639.82" y="-687.56" font-family="Times,serif" font-size="14.00">okh:Software</text>
</g>
<!-- http://w3id.org/oseg/ont/okh#installationGuide&#45;&gt;http://w3id.org/oseg/ont/okh#Software -->
<g id="edge16" class="edge">
<title>http://w3id.org/oseg/ont/okh#installationGuide&#45;&gt;http://w3id.org/oseg/ont/okh#Software</title>
<path fill="none" stroke="black" d="M849.09,-815.32C806.31,-789.96 722.2,-740.1 674.67,-711.92"/>
<polygon fill="black" stroke="black" points="676.35,-708.85 665.96,-706.76 672.78,-714.87 676.35,-708.85"/>
<text text-anchor="middle" x="683.88" y="-767.42" font-family="Times,serif" font-size="14.00">dcam:domainIncludes</text>
</g>
<!-- http://w3id.org/oseg/ont/okh#alternativeLicense -->
<g id="node15" class="node">
<title>http://w3id.org/oseg/ont/okh#alternativeLicense</title>
<ellipse fill="none" stroke="#e377c2" cx="1009.2" cy="-753.18" rx="107.46" ry="16.03"/>
<text text-anchor="middle" x="1009.2" y="-749.48" font-family="Times,serif" font-size="14.00">okh:alternativeLi...</text>
</g>
<!-- http://w3id.org/oseg/ont/okh#alternativeLicense&#45;&gt;http://www.w3.org/2004/02/skos/core#Concept -->
<g id="edge12" class="edge">
<title>http://w3id.org/oseg/ont/okh#alternativeLicense&#45;&gt;http://www.w3.org/2004/02/skos/core#Concept</title>
<path fill="none" stroke="black" d="M1003.83,-769.48C986.68,-821.44 933.2,-983.48 912.23,-1047.01"/>
<polygon fill="black" stroke="black" points="908.85,-1046.07 909.04,-1056.66 915.5,-1048.27 908.85,-1046.07"/>
<text text-anchor="middle" x="953.53" y="-912.04" font-family="Times,serif" font-size="14.00">a</text>
</g>
<!-- http://w3id.org/oseg/ont/okh#alternativeLicense&#45;&gt;http://w3id.org/oseg/ont/okhmetaLegalTag -->
<g id="edge3" class="edge">
<title>http://w3id.org/oseg/ont/okh#alternativeLicense&#45;&gt;http://w3id.org/oseg/ont/okhmetaLegalTag</title>
<path fill="none" stroke="black" d="M1058.14,-767.72C1103.17,-781.11 1170.03,-800.97 1217.79,-815.17"/>
<polygon fill="black" stroke="black" points="1216.79,-818.52 1227.37,-818.02 1218.79,-811.81 1216.79,-818.52"/>
<text text-anchor="middle" x="1214.96" y="-795.25" font-family="Times,serif" font-size="14.00">okhmeta:hasMetaTag</text>
</g>
<!-- http://w3id.org/oseg/ont/okh#alternativeLicense&#45;&gt;http://w3id.org/oseg/ont/okh#license -->
<g id="edge5" class="edge">
<title>http://w3id.org/oseg/ont/okh#alternativeLicense&#45;&gt;http://w3id.org/oseg/ont/okh#license</title>
<path fill="none" stroke="black" d="M1035.87,-737.31C1039.61,-735.09 1043.49,-732.77 1047.35,-730.48"/>
<polygon fill="black" stroke="black" points="1049.42,-733.32 1056.23,-725.19 1045.84,-727.3 1049.42,-733.32"/>
<text text-anchor="middle" x="961.61" y="-722.69" font-family="Times,serif" font-size="14.00">schema:supersededBy</text>
</g>
<!-- http://w3id.org/oseg/ont/okh#alternativeLicense&#45;&gt;http://w3id.org/oseg/ont/okh#Module -->
<g id="edge34" class="edge">
<title>http://w3id.org/oseg/ont/okh#alternativeLicense&#45;&gt;http://w3id.org/oseg/ont/okh#Module</title>
<path fill="none" stroke="black" d="M1028.17,-769.41C1063.05,-799.28 1137.47,-862.98 1177.12,-896.93"/>
<polygon fill="black" stroke="black" points="1174.92,-899.66 1184.8,-903.5 1179.48,-894.34 1174.92,-899.66"/>
<text text-anchor="middle" x="1063.64" y="-821.97" font-family="Times,serif" font-size="14.00">dcam:domainIncludes</text>
</g>
<!-- http://w3id.org/oseg/ont/okh#alternativeLicense&#45;&gt;http://w3id.org/oseg/ont/okh#File -->
<g id="edge29" class="edge">
<title>http://w3id.org/oseg/ont/okh#alternativeLicense&#45;&gt;http://w3id.org/oseg/ont/okh#File</title>
<path fill="none" stroke="black" d="M1005.68,-736.55C994.93,-685.76 962.44,-532.39 949.3,-470.33"/>
<polygon fill="black" stroke="black" points="952.64,-469.24 947.15,-460.19 945.8,-470.69 952.64,-469.24"/>
<text text-anchor="middle" x="904.99" y="-607.24" font-family="Times,serif" font-size="14.00">dcam:rangeIncludes</text>
</g>
<!-- http://w3id.org/oseg/ont/okh#alternativeLicense&#45;&gt;http://schema.org/license -->
<g id="edge39" class="edge">
<title>http://w3id.org/oseg/ont/okh#alternativeLicense&#45;&gt;http://schema.org/license</title>
<path fill="none" stroke="black" d="M1052.13,-738.26C1099.3,-721.86 1175,-695.53 1225.21,-678.07"/>
<polygon fill="black" stroke="black" points="1226.6,-681.3 1234.9,-674.71 1224.3,-674.68 1226.6,-681.3"/>
<text text-anchor="middle" x="1197.67" y="-711.96" font-family="Times,serif" font-size="14.00">skos:closeMatch</text>
</g>
<!-- http://w3id.org/oseg/ont/okh#relatedTsdc -->
<g id="node17" class="node">
<title>http://w3id.org/oseg/ont/okh#relatedTsdc</title>
<ellipse fill="none" stroke="#e377c2" cx="1291.61" cy="-1240.33" rx="91.85" ry="16.03"/>
<text text-anchor="middle" x="1291.61" y="-1236.63" font-family="Times,serif" font-size="14.00">okh:relatedTsdc</text>
</g>
<!-- http://w3id.org/oseg/ont/okh#tsdc -->
<g id="node20" class="node">
<title>http://w3id.org/oseg/ont/okh#tsdc</title>
<ellipse fill="none" stroke="#e377c2" cx="1450.66" cy="-1216.56" rx="54.39" ry="16.03"/>
<text text-anchor="middle" x="1450.66" y="-1212.86" font-family="Times,serif" font-size="14.00">okh:tsdc</text>
</g>
<!-- http://w3id.org/oseg/ont/okh#relatedTsdc&#45;&gt;http://w3id.org/oseg/ont/okh#tsdc -->
<g id="edge28" class="edge">
<title>http://w3id.org/oseg/ont/okh#relatedTsdc&#45;&gt;http://w3id.org/oseg/ont/okh#tsdc</title>
<path fill="none" stroke="black" d="M1377.25,-1234.34C1385.91,-1233.01 1394.46,-1231.58 1402.51,-1230.12"/>
<polygon fill="black" stroke="black" points="1403.22,-1233.54 1412.39,-1228.25 1401.92,-1226.67 1403.22,-1233.54"/>
<text text-anchor="middle" x="1432.38" y="-1236.03" font-family="Times,serif" font-size="14.00">owl:sameAs</text>
</g>
<!-- http://w3id.org/oseg/ont/okh#relatedTsdc&#45;&gt;http://w3id.org/oseg/ont/okh#tsdc -->
<g id="edge36" class="edge">
<title>http://w3id.org/oseg/ont/okh#relatedTsdc&#45;&gt;http://w3id.org/oseg/ont/okh#tsdc</title>
<path fill="none" stroke="black" d="M1341,-1226.55C1355.28,-1223.98 1371.08,-1221.52 1386.14,-1219.5"/>
<polygon fill="black" stroke="black" points="1386.95,-1222.93 1396.42,-1218.18 1386.06,-1215.98 1386.95,-1222.93"/>
<text text-anchor="middle" x="1283.57" y="-1211.83" font-family="Times,serif" font-size="14.00">schema:supersededBy</text>
</g>
<!-- http://w3id.org/oseg/ont/okh#openScad -->
<g id="node19" class="node">
<title>http://w3id.org/oseg/ont/okh#openScad</title>
<ellipse fill="none" stroke="#e377c2" cx="214.3" cy="-2353.48" rx="82.05" ry="16.03"/>
<text text-anchor="middle" x="214.3" y="-2349.78" font-family="Times,serif" font-size="14.00">okh:openScad</text>
</g>
<!-- http://w3id.org/oseg/ont/okh#openScad&#45;&gt;http://w3id.org/oseg/ont/okh#openSCAD -->
<g id="edge23" class="edge">
<title>http://w3id.org/oseg/ont/okh#openScad&#45;&gt;http://w3id.org/oseg/ont/okh#openSCAD</title>
<path fill="none" stroke="black" d="M222.94,-2337.22C239.73,-2294.69 274.13,-2180.01 285.95,-2127.99"/>
<polygon fill="black" stroke="black" points="289.38,-2128.69 288.06,-2118.18 282.54,-2127.22 289.38,-2128.69"/>
<text text-anchor="middle" x="174.45" y="-2236.41" font-family="Times,serif" font-size="14.00">schema:supersededBy</text>
</g>
<!-- http://w3id.org/oseg/ont/okh#openScad&#45;&gt;http://w3id.org/oseg/ont/okh#openSCAD -->
<g id="edge30" class="edge">
<title>http://w3id.org/oseg/ont/okh#openScad&#45;&gt;http://w3id.org/oseg/ont/okh#openSCAD</title>
<path fill="none" stroke="black" d="M215.58,-2337.13C224.07,-2294.43 258.03,-2179.43 277.06,-2127.63"/>
<polygon fill="black" stroke="black" points="280.38,-2128.74 280.66,-2118.15 273.84,-2126.26 280.38,-2128.74"/>
<text text-anchor="middle" x="203.82" y="-2221.18" font-family="Times,serif" font-size="14.00">owl:sameAs</text>
</g>
<!-- http://w3id.org/oseg/ont/okh#unit -->
<g id="node24" class="node">
<title>http://w3id.org/oseg/ont/okh#unit</title>
<ellipse fill="none" stroke="#e377c2" cx="701.89" cy="-1615.38" rx="53.07" ry="16.03"/>
<text text-anchor="middle" x="701.89" y="-1611.68" font-family="Times,serif" font-size="14.00">okh:unit</text>
</g>
<!-- http://w3id.org/oseg/ont/okh#unit&#45;&gt;http://w3id.org/oseg/ont/okh#Mass -->
<g id="edge18" class="edge">
<title>http://w3id.org/oseg/ont/okh#unit&#45;&gt;http://w3id.org/oseg/ont/okh#Mass</title>
<path fill="none" stroke="black" d="M715.59,-1599.32C746.19,-1563.44 820.22,-1476.65 856.2,-1434.48"/>
<polygon fill="black" stroke="black" points="859.03,-1436.55 862.86,-1426.67 853.71,-1432 859.03,-1436.55"/>
<text text-anchor="middle" x="707.89" y="-1520.7" font-family="Times,serif" font-size="14.00">dcam:domainIncludes</text>
</g>
<!-- http://w3id.org/oseg/ont/okh#unit&#45;&gt;http://w3id.org/oseg/ont/okh#Dimensions -->
<g id="edge17" class="edge">
<title>http://w3id.org/oseg/ont/okh#unit&#45;&gt;http://w3id.org/oseg/ont/okh#Dimensions</title>
<path fill="none" stroke="black" d="M688.67,-1631.41C656.17,-1670.8 572.27,-1772.52 533.73,-1819.24"/>
<polygon fill="black" stroke="black" points="530.96,-1817.1 527.3,-1827.04 536.36,-1821.55 530.96,-1817.1"/>
<text text-anchor="middle" x="533.2" y="-1729.13" font-family="Times,serif" font-size="14.00">dcam:domainIncludes</text>
</g>
<!-- http://w3id.org/oseg/ont/okh#url -->
<g id="node26" class="node">
<title>http://w3id.org/oseg/ont/okh#url</title>
<ellipse fill="none" stroke="#e377c2" cx="1065.32" cy="-16.15" rx="47.25" ry="16.03"/>
<text text-anchor="middle" x="1065.32" y="-12.45" font-family="Times,serif" font-size="14.00">okh:url</text>
</g>
<!-- http://w3id.org/oseg/ont/okh#fileUrl -->
<g id="node28" class="node">
<title>http://w3id.org/oseg/ont/okh#fileUrl</title>
<ellipse fill="none" stroke="#e377c2" cx="1047.71" cy="-221.18" rx="65.11" ry="16.03"/>
<text text-anchor="middle" x="1047.71" y="-217.48" font-family="Times,serif" font-size="14.00">okh:fileUrl</text>
</g>
<!-- http://w3id.org/oseg/ont/okh#fileUrl&#45;&gt;http://schema.org/url -->
<g id="edge2" class="edge">
<title>http://w3id.org/oseg/ont/okh#fileUrl&#45;&gt;http://schema.org/url</title>
<path fill="none" stroke="black" d="M1061.51,-205.18C1087.9,-174.6 1145.61,-107.7 1176.62,-71.75"/>
<polygon fill="black" stroke="black" points="1179.65,-73.6 1183.53,-63.74 1174.35,-69.03 1179.65,-73.6"/>
<text text-anchor="middle" x="1066.07" y="-142.27" font-family="Times,serif" font-size="14.00">subPropertyOf</text>
</g>
<!-- http://w3id.org/oseg/ont/okh#fileUrl&#45;&gt;http://w3id.org/oseg/ont/okh#File -->
<g id="edge7" class="edge">
<title>http://w3id.org/oseg/ont/okh#fileUrl&#45;&gt;http://w3id.org/oseg/ont/okh#File</title>
<path fill="none" stroke="black" d="M1040.06,-237.55C1022.09,-276.01 977.1,-372.33 955.55,-418.45"/>
<polygon fill="black" stroke="black" points="952.27,-417.21 951.21,-427.75 958.61,-420.17 952.27,-417.21"/>
<text text-anchor="middle" x="919.81" y="-316.8" font-family="Times,serif" font-size="14.00">dcam:domainIncludes</text>
</g>
<!-- http://w3id.org/oseg/ont/okh#fileUrl&#45;&gt;http://w3id.org/oseg/ont/okh#url -->
<g id="edge33" class="edge">
<title>http://w3id.org/oseg/ont/okh#fileUrl&#45;&gt;http://w3id.org/oseg/ont/okh#url</title>
<path fill="none" stroke="black" d="M1049.12,-204.75C1052.16,-169.36 1059.35,-85.66 1063.04,-42.66"/>
<polygon fill="black" stroke="black" points="1066.53,-42.92 1063.9,-32.66 1059.56,-42.32 1066.53,-42.92"/>
<text text-anchor="middle" x="976.08" y="-127.51" font-family="Times,serif" font-size="14.00">schema:supersededBy</text>
</g>
<!-- http://w3id.org/oseg/ont/okh#hasMass -->
<g id="node29" class="node">
<title>http://w3id.org/oseg/ont/okh#hasMass</title>
<ellipse fill="none" stroke="#e377c2" cx="1169.58" cy="-1762.28" rx="77.15" ry="16.03"/>
<text text-anchor="middle" x="1169.58" y="-1758.58" font-family="Times,serif" font-size="14.00">okh:hasMass</text>
</g>
<!-- http://w3id.org/oseg/ont/okh#value -->
<g id="node32" class="node">
<title>http://w3id.org/oseg/ont/okh#value</title>
<ellipse fill="none" stroke="#e377c2" cx="1018.51" cy="-1587.08" rx="60.21" ry="16.03"/>
<text text-anchor="middle" x="1018.51" y="-1583.38" font-family="Times,serif" font-size="14.00">okh:value</text>
</g>
<!-- http://w3id.org/oseg/ont/okh#value&#45;&gt;http://w3id.org/oseg/ont/okh#Mass -->
<g id="edge22" class="edge">
<title>http://w3id.org/oseg/ont/okh#value&#45;&gt;http://w3id.org/oseg/ont/okh#Mass</title>
<path fill="none" stroke="black" d="M1005.66,-1571.11C980.69,-1540.1 925.5,-1471.55 896,-1434.9"/>
<polygon fill="black" stroke="black" points="898.42,-1432.33 889.43,-1426.73 892.97,-1436.72 898.42,-1432.33"/>
<text text-anchor="middle" x="872.83" y="-1506.81" font-family="Times,serif" font-size="14.00">dcam:domainIncludes</text>
</g>
<!-- http://w3id.org/oseg/ont/okh#value&#45;&gt;http://w3id.org/oseg/ont/okh#hasMass -->
<g id="edge35" class="edge">
<title>http://w3id.org/oseg/ont/okh#value&#45;&gt;http://w3id.org/oseg/ont/okh#hasMass</title>
<path fill="none" stroke="black" d="M1032.18,-1602.94C1058.79,-1633.79 1117.65,-1702.05 1149,-1738.41"/>
<polygon fill="black" stroke="black" points="1146.43,-1740.79 1155.61,-1746.08 1151.73,-1736.22 1146.43,-1740.79"/>
<text text-anchor="middle" x="1170.59" y="-1674.47" font-family="Times,serif" font-size="14.00">schema:supersededBy</text>
</g>
</g>
</svg>
