<?xml version="1.0" encoding="UTF-8" standalone="no"?>
<!DOCTYPE svg PUBLIC "-//W3C//DTD SVG 1.1//EN"
 "http://www.w3.org/Graphics/SVG/1.1/DTD/svg11.dtd">
<!-- Generated by graphviz version 2.43.0 (0)
 -->
<!-- Title: G Pages: 1 -->
<svg width="1880pt" height="1730pt"
 viewBox="0.00 0.00 1880.00 1730.00" xmlns="http://www.w3.org/2000/svg" xmlns:xlink="http://www.w3.org/1999/xlink">
<g id="graph0" class="graph" transform="scale(1 1) rotate(0) translate(4 1726)">
<title>G</title>
<polygon fill="white" stroke="transparent" points="-4,4 -4,-1726 1876,-1726 1876,4 -4,4"/>
<!-- http://spdx.org/rdf/terms#SpdxItem -->
<g id="node1" class="node">
<title>http://spdx.org/rdf/terms#SpdxItem</title>
<ellipse fill="none" stroke="#1f77b4" cx="1613.04" cy="-1505.28" rx="87.86" ry="16.03"/>
<text text-anchor="middle" x="1613.04" y="-1501.58" font-family="Times,serif" font-size="14.00">spdx:SpdxItem</text>
</g>
<!-- http://w3id.org/oseg/ont/otrl#ODRL -->
<g id="node2" class="node">
<title>http://w3id.org/oseg/ont/otrl#ODRL</title>
<ellipse fill="none" stroke="#e377c2" cx="1015.15" cy="-608.38" rx="62.87" ry="16.03"/>
<text text-anchor="middle" x="1015.15" y="-604.68" font-family="Times,serif" font-size="14.00">otrl:ODRL</text>
</g>
<!-- http://w3id.org/oseg/ont/otrl#OTRL -->
<g id="node3" class="node">
<title>http://w3id.org/oseg/ont/otrl#OTRL</title>
<ellipse fill="none" stroke="#e377c2" cx="789.53" cy="-1088.84" rx="60.62" ry="16.03"/>
<text text-anchor="middle" x="789.53" y="-1085.14" font-family="Times,serif" font-size="14.00">otrl:OTRL</text>
</g>
<!-- http://w3id.org/oseg/ont/otrl#ODRL3Star -->
<g id="node4" class="node">
<title>http://w3id.org/oseg/ont/otrl#ODRL3Star</title>
<ellipse fill="none" stroke="#e377c2" cx="851.65" cy="-425.2" rx="90.52" ry="16.03"/>
<text text-anchor="middle" x="851.65" y="-421.5" font-family="Times,serif" font-size="14.00">otrl:ODRL3Star</text>
</g>
<!-- http://w3id.org/oseg/ont/otrl#ODRL3Star&#45;&gt;http://w3id.org/oseg/ont/otrl#ODRL -->
<g id="edge2" class="edge">
<title>http://w3id.org/oseg/ont/otrl#ODRL3Star&#45;&gt;http://w3id.org/oseg/ont/otrl#ODRL</title>
<path fill="none" stroke="black" d="M866.16,-441.46C895.2,-473.99 960.56,-547.22 994.22,-584.94"/>
<polygon fill="black" stroke="black" points="991.63,-587.29 1000.9,-592.42 996.86,-582.63 991.63,-587.29"/>
<text text-anchor="middle" x="925.69" y="-517" font-family="Times,serif" font-size="14.00">a</text>
</g>
<!-- http://w3id.org/oseg/ont/otrl#OTRL1 -->
<g id="node5" class="node">
<title>http://w3id.org/oseg/ont/otrl#OTRL1</title>
<ellipse fill="none" stroke="#e377c2" cx="548.65" cy="-1138.5" rx="67.35" ry="16.03"/>
<text text-anchor="middle" x="548.65" y="-1134.8" font-family="Times,serif" font-size="14.00">otrl:OTRL1</text>
</g>
<!-- http://w3id.org/oseg/ont/otrl#OTRL1&#45;&gt;http://w3id.org/oseg/ont/otrl#OTRL -->
<g id="edge4" class="edge">
<title>http://w3id.org/oseg/ont/otrl#OTRL1&#45;&gt;http://w3id.org/oseg/ont/otrl#OTRL</title>
<path fill="none" stroke="black" d="M600.03,-1127.91C638.5,-1119.98 691.16,-1109.12 731.21,-1100.87"/>
<polygon fill="black" stroke="black" points="732.02,-1104.27 741.1,-1098.83 730.6,-1097.42 732.02,-1104.27"/>
<text text-anchor="middle" x="661.12" y="-1118.19" font-family="Times,serif" font-size="14.00">a</text>
</g>
<!-- http://w3id.org/oseg/ont/otrl#ODRL2 -->
<g id="node6" class="node">
<title>http://w3id.org/oseg/ont/otrl#ODRL2</title>
<ellipse fill="none" stroke="#e377c2" cx="788.28" cy="-507.43" rx="69.09" ry="16.03"/>
<text text-anchor="middle" x="788.28" y="-503.73" font-family="Times,serif" font-size="14.00">otrl:ODRL2</text>
</g>
<!-- http://w3id.org/oseg/ont/otrl#ODRL2&#45;&gt;http://w3id.org/oseg/ont/otrl#ODRL -->
<g id="edge6" class="edge">
<title>http://w3id.org/oseg/ont/otrl#ODRL2&#45;&gt;http://w3id.org/oseg/ont/otrl#ODRL</title>
<path fill="none" stroke="black" d="M820.78,-521.89C861.19,-539.87 930.19,-570.57 974.18,-590.15"/>
<polygon fill="black" stroke="black" points="972.87,-593.4 983.43,-594.27 975.72,-587 972.87,-593.4"/>
<text text-anchor="middle" x="892.98" y="-559.82" font-family="Times,serif" font-size="14.00">a</text>
</g>
<!-- http://w3id.org/oseg/ont/otrl#OTRL6 -->
<g id="node7" class="node">
<title>http://w3id.org/oseg/ont/otrl#OTRL6</title>
<ellipse fill="none" stroke="#e377c2" cx="775.88" cy="-1347.02" rx="67.35" ry="16.03"/>
<text text-anchor="middle" x="775.88" y="-1343.32" font-family="Times,serif" font-size="14.00">otrl:OTRL6</text>
</g>
<!-- http://w3id.org/oseg/ont/otrl#OTRL6&#45;&gt;http://w3id.org/oseg/ont/otrl#OTRL -->
<g id="edge30" class="edge">
<title>http://w3id.org/oseg/ont/otrl#OTRL6&#45;&gt;http://w3id.org/oseg/ont/otrl#OTRL</title>
<path fill="none" stroke="black" d="M776.75,-1330.48C779.06,-1286.85 785.32,-1168.39 788.13,-1115.25"/>
<polygon fill="black" stroke="black" points="791.63,-1115.42 788.66,-1105.25 784.64,-1115.05 791.63,-1115.42"/>
<text text-anchor="middle" x="777.94" y="-1226.67" font-family="Times,serif" font-size="14.00">a</text>
</g>
<!-- http://spdx.org/licenses/GPL&#45;3.0&#45;or&#45;later -->
<g id="node8" class="node">
<title>http://spdx.org/licenses/GPL&#45;3.0&#45;or&#45;later</title>
<ellipse fill="none" stroke="#e377c2" cx="1657.66" cy="-1353.78" rx="108.79" ry="16.03"/>
<text text-anchor="middle" x="1657.66" y="-1350.08" font-family="Times,serif" font-size="14.00">spdxl:GPL&#45;3.0&#45;or&#45;...</text>
</g>
<!-- http://w3id.org/oseg/ont/otrl#OTRL4 -->
<g id="node9" class="node">
<title>http://w3id.org/oseg/ont/otrl#OTRL4</title>
<ellipse fill="none" stroke="#e377c2" cx="646.7" cy="-1289.81" rx="67.35" ry="16.03"/>
<text text-anchor="middle" x="646.7" y="-1286.11" font-family="Times,serif" font-size="14.00">otrl:OTRL4</text>
</g>
<!-- http://w3id.org/oseg/ont/otrl#OTRL4&#45;&gt;http://w3id.org/oseg/ont/otrl#OTRL -->
<g id="edge31" class="edge">
<title>http://w3id.org/oseg/ont/otrl#OTRL4&#45;&gt;http://w3id.org/oseg/ont/otrl#OTRL</title>
<path fill="none" stroke="black" d="M658.14,-1273.7C683.11,-1238.57 742.59,-1154.88 772.19,-1113.24"/>
<polygon fill="black" stroke="black" points="775.09,-1115.2 778.03,-1105.03 769.38,-1111.15 775.09,-1115.2"/>
<text text-anchor="middle" x="710.67" y="-1197.27" font-family="Times,serif" font-size="14.00">a</text>
</g>
<!-- http://w3id.org/oseg/ont/otrl#OTRL2 -->
<g id="node10" class="node">
<title>http://w3id.org/oseg/ont/otrl#OTRL2</title>
<ellipse fill="none" stroke="#e377c2" cx="622.64" cy="-972.8" rx="67.35" ry="16.03"/>
<text text-anchor="middle" x="622.64" y="-969.1" font-family="Times,serif" font-size="14.00">otrl:OTRL2</text>
</g>
<!-- http://w3id.org/oseg/ont/otrl#OTRL2&#45;&gt;http://w3id.org/oseg/ont/otrl#OTRL -->
<g id="edge39" class="edge">
<title>http://w3id.org/oseg/ont/otrl#OTRL2&#45;&gt;http://w3id.org/oseg/ont/otrl#OTRL</title>
<path fill="none" stroke="black" d="M644.8,-988.21C674.19,-1008.64 726.16,-1044.78 759.18,-1067.74"/>
<polygon fill="black" stroke="black" points="757.33,-1070.72 767.54,-1073.55 761.33,-1064.97 757.33,-1070.72"/>
<text text-anchor="middle" x="697.49" y="-1031.77" font-family="Times,serif" font-size="14.00">a</text>
</g>
<!-- http://w3id.org/oseg/ont/oseg&#45;profiles#robinVobruba -->
<g id="node11" class="node">
<title>http://w3id.org/oseg/ont/oseg&#45;profiles#robinVobruba</title>
<ellipse fill="none" stroke="#e377c2" cx="1617.01" cy="-1262.24" rx="113.69" ry="16.03"/>
<text text-anchor="middle" x="1617.01" y="-1258.54" font-family="Times,serif" font-size="14.00">osegprof:robinVob...</text>
</g>
<!-- http://w3id.org/oseg/ont/oseg&#45;profiles#martinHaeuer -->
<g id="node12" class="node">
<title>http://w3id.org/oseg/ont/oseg&#45;profiles#martinHaeuer</title>
<ellipse fill="none" stroke="#e377c2" cx="1413.05" cy="-1368.87" rx="116.85" ry="16.03"/>
<text text-anchor="middle" x="1413.05" y="-1365.17" font-family="Times,serif" font-size="14.00">osegprof:martinHa...</text>
</g>
<!-- http://w3id.org/oseg/ont/otrl#exitCriteria -->
<g id="node13" class="node">
<title>http://w3id.org/oseg/ont/otrl#exitCriteria</title>
<ellipse fill="none" stroke="#e377c2" cx="865.47" cy="-820.32" rx="91.43" ry="16.03"/>
<text text-anchor="middle" x="865.47" y="-816.62" font-family="Times,serif" font-size="14.00">otrl:exitCriteria</text>
</g>
<!-- http://w3id.org/oseg/ont/otrl#exitCriteria&#45;&gt;http://w3id.org/oseg/ont/otrl#ODRL -->
<g id="edge22" class="edge">
<title>http://w3id.org/oseg/ont/otrl#exitCriteria&#45;&gt;http://w3id.org/oseg/ont/otrl#ODRL</title>
<path fill="none" stroke="black" d="M876.96,-804.04C903.09,-767.05 967.06,-676.46 997.93,-632.76"/>
<polygon fill="black" stroke="black" points="1000.91,-634.61 1003.82,-624.42 995.19,-630.57 1000.91,-634.61"/>
<text text-anchor="middle" x="859.45" y="-722.2" font-family="Times,serif" font-size="14.00">dcam:domainIncludes</text>
</g>
<!-- http://w3id.org/oseg/ont/otrl#exitCriteria&#45;&gt;http://w3id.org/oseg/ont/otrl#OTRL -->
<g id="edge3" class="edge">
<title>http://w3id.org/oseg/ont/otrl#exitCriteria&#45;&gt;http://w3id.org/oseg/ont/otrl#OTRL</title>
<path fill="none" stroke="black" d="M860.83,-836.72C848.1,-881.75 812.49,-1007.66 796.95,-1062.62"/>
<polygon fill="black" stroke="black" points="793.56,-1061.75 794.2,-1072.32 800.29,-1063.65 793.56,-1061.75"/>
<text text-anchor="middle" x="906.89" y="-953.47" font-family="Times,serif" font-size="14.00">dcam:domainIncludes</text>
</g>
<!-- http://www.w3.org/1999/02/22&#45;rdf&#45;syntax&#45;ns#langString -->
<g id="node21" class="node">
<title>http://www.w3.org/1999/02/22&#45;rdf&#45;syntax&#45;ns#langString</title>
<ellipse fill="none" stroke="#e377c2" cx="775.55" cy="-864.47" rx="83.38" ry="16.03"/>
<text text-anchor="middle" x="775.55" y="-860.77" font-family="Times,serif" font-size="14.00">rdf:langString</text>
</g>
<!-- http://w3id.org/oseg/ont/otrl#exitCriteria&#45;&gt;http://www.w3.org/1999/02/22&#45;rdf&#45;syntax&#45;ns#langString -->
<g id="edge27" class="edge">
<title>http://w3id.org/oseg/ont/otrl#exitCriteria&#45;&gt;http://www.w3.org/1999/02/22&#45;rdf&#45;syntax&#45;ns#langString</title>
<path fill="none" stroke="black" d="M834.27,-835.64C828.2,-838.62 821.77,-841.78 815.46,-844.87"/>
<polygon fill="black" stroke="black" points="813.82,-841.78 806.38,-849.33 816.9,-848.07 813.82,-841.78"/>
<text text-anchor="middle" x="845.87" y="-844.06" font-family="Times,serif" font-size="14.00">range</text>
</g>
<!-- http://w3id.org/oseg/ont/1.1.0/otrl -->
<g id="node14" class="node">
<title>http://w3id.org/oseg/ont/1.1.0/otrl</title>
<ellipse fill="none" stroke="#e377c2" cx="1811.46" cy="-1308.88" rx="50.82" ry="16.03"/>
<text text-anchor="middle" x="1811.46" y="-1305.18" font-family="Times,serif" font-size="14.00">ns1:otrl</text>
</g>
<!-- http://w3id.org/oseg/ont/otrl#Odrl4 -->
<g id="node15" class="node">
<title>http://w3id.org/oseg/ont/otrl#Odrl4</title>
<ellipse fill="none" stroke="#e377c2" cx="1405.82" cy="-286.26" rx="61.54" ry="16.03"/>
<text text-anchor="middle" x="1405.82" y="-282.56" font-family="Times,serif" font-size="14.00">otrl:Odrl4</text>
</g>
<!-- http://w3id.org/oseg/ont/otrl#ODRL4 -->
<g id="node20" class="node">
<title>http://w3id.org/oseg/ont/otrl#ODRL4</title>
<ellipse fill="none" stroke="#e377c2" cx="1205.26" cy="-446.57" rx="69.09" ry="16.03"/>
<text text-anchor="middle" x="1205.26" y="-442.87" font-family="Times,serif" font-size="14.00">otrl:ODRL4</text>
</g>
<!-- http://w3id.org/oseg/ont/otrl#Odrl4&#45;&gt;http://w3id.org/oseg/ont/otrl#ODRL4 -->
<g id="edge29" class="edge">
<title>http://w3id.org/oseg/ont/otrl#Odrl4&#45;&gt;http://w3id.org/oseg/ont/otrl#ODRL4</title>
<path fill="none" stroke="black" d="M1386.22,-301.93C1350.35,-330.6 1274.05,-391.59 1232.91,-424.47"/>
<polygon fill="black" stroke="black" points="1230.56,-421.87 1224.94,-430.84 1234.93,-427.34 1230.56,-421.87"/>
<text text-anchor="middle" x="1389.57" y="-367" font-family="Times,serif" font-size="14.00">schema:supersededBy</text>
</g>
<!-- http://w3id.org/oseg/ont/otrl -->
<g id="node16" class="node">
<title>http://w3id.org/oseg/ont/otrl</title>
<ellipse fill="none" stroke="#e377c2" cx="1645.2" cy="-1302.89" rx="50.82" ry="16.03"/>
<text text-anchor="middle" x="1645.2" y="-1299.19" font-family="Times,serif" font-size="14.00">ns2:otrl</text>
</g>
<!-- http://w3id.org/oseg/ont/otrl&#45;&gt;http://spdx.org/rdf/terms#SpdxItem -->
<g id="edge18" class="edge">
<title>http://w3id.org/oseg/ont/otrl&#45;&gt;http://spdx.org/rdf/terms#SpdxItem</title>
<path fill="none" stroke="black" d="M1642.57,-1319.45C1637.01,-1354.45 1624.02,-1436.2 1617.28,-1478.64"/>
<polygon fill="black" stroke="black" points="1613.78,-1478.35 1615.67,-1488.78 1620.69,-1479.45 1613.78,-1478.35"/>
<text text-anchor="middle" x="1625.42" y="-1402.85" font-family="Times,serif" font-size="14.00">a</text>
</g>
<!-- http://w3id.org/oseg/ont/otrl&#45;&gt;http://spdx.org/licenses/GPL&#45;3.0&#45;or&#45;later -->
<g id="edge8" class="edge">
<title>http://w3id.org/oseg/ont/otrl&#45;&gt;http://spdx.org/licenses/GPL&#45;3.0&#45;or&#45;later</title>
<path fill="none" stroke="black" d="M1649.21,-1319.27C1649.86,-1321.91 1650.54,-1324.69 1651.22,-1327.48"/>
<polygon fill="black" stroke="black" points="1647.88,-1328.55 1653.66,-1337.43 1654.68,-1326.89 1647.88,-1328.55"/>
<text text-anchor="middle" x="1574.22" y="-1327.18" font-family="Times,serif" font-size="14.00">spdx:licenseDeclared</text>
</g>
<!-- http://w3id.org/oseg/ont/otrl&#45;&gt;http://w3id.org/oseg/ont/oseg&#45;profiles#robinVobruba -->
<g id="edge12" class="edge">
<title>http://w3id.org/oseg/ont/otrl&#45;&gt;http://w3id.org/oseg/ont/oseg&#45;profiles#robinVobruba</title>
<path fill="none" stroke="black" d="M1641.48,-1286.42C1641.43,-1286.34 1641.39,-1286.25 1641.34,-1286.17"/>
<polygon fill="black" stroke="black" points="1644.67,-1284.88 1636.36,-1278.3 1638.75,-1288.62 1644.67,-1284.88"/>
<text text-anchor="middle" x="1696.91" y="-1275.09" font-family="Times,serif" font-size="14.00">schema:creator</text>
</g>
<!-- http://w3id.org/oseg/ont/otrl&#45;&gt;http://w3id.org/oseg/ont/oseg&#45;profiles#robinVobruba -->
<g id="edge13" class="edge">
<title>http://w3id.org/oseg/ont/otrl&#45;&gt;http://w3id.org/oseg/ont/oseg&#45;profiles#robinVobruba</title>
<path fill="none" stroke="black" d="M1626.22,-1287.36C1626.16,-1287.27 1626.1,-1287.19 1626.04,-1287.1"/>
<polygon fill="black" stroke="black" points="1629.17,-1285.49 1620.85,-1278.93 1623.26,-1289.25 1629.17,-1285.49"/>
<text text-anchor="middle" x="1568.63" y="-1291.03" font-family="Times,serif" font-size="14.00">dcterms:creator</text>
</g>
<!-- http://w3id.org/oseg/ont/otrl&#45;&gt;http://w3id.org/oseg/ont/oseg&#45;profiles#martinHaeuer -->
<g id="edge14" class="edge">
<title>http://w3id.org/oseg/ont/otrl&#45;&gt;http://w3id.org/oseg/ont/oseg&#45;profiles#martinHaeuer</title>
<path fill="none" stroke="black" d="M1599.5,-1310.23C1558.81,-1320.01 1499.58,-1336.8 1458.86,-1350.07"/>
<polygon fill="black" stroke="black" points="1457.57,-1346.8 1449.18,-1353.27 1459.77,-1353.45 1457.57,-1346.8"/>
<text text-anchor="middle" x="1473.68" y="-1318.95" font-family="Times,serif" font-size="14.00">schema:creator</text>
</g>
<!-- http://w3id.org/oseg/ont/otrl&#45;&gt;http://w3id.org/oseg/ont/oseg&#45;profiles#martinHaeuer -->
<g id="edge25" class="edge">
<title>http://w3id.org/oseg/ont/otrl&#45;&gt;http://w3id.org/oseg/ont/oseg&#45;profiles#martinHaeuer</title>
<path fill="none" stroke="black" d="M1615.68,-1316.23C1584.61,-1327.02 1534.41,-1341.85 1491.75,-1353.15"/>
<polygon fill="black" stroke="black" points="1490.72,-1349.8 1481.94,-1355.72 1492.5,-1356.57 1490.72,-1349.8"/>
<text text-anchor="middle" x="1496.22" y="-1338.49" font-family="Times,serif" font-size="14.00">dcterms:creator</text>
</g>
<!-- http://w3id.org/oseg/ont/otrl&#45;&gt;http://w3id.org/oseg/ont/1.1.0/otrl -->
<g id="edge15" class="edge">
<title>http://w3id.org/oseg/ont/otrl&#45;&gt;http://w3id.org/oseg/ont/1.1.0/otrl</title>
<path fill="none" stroke="black" d="M1695.99,-1304.72C1713.23,-1305.34 1732.67,-1306.04 1750.62,-1306.69"/>
<polygon fill="black" stroke="black" points="1750.58,-1310.19 1760.7,-1307.05 1750.83,-1303.19 1750.58,-1310.19"/>
<text text-anchor="middle" x="1749.05" y="-1294.5" font-family="Times,serif" font-size="14.00">owl:versionIRI</text>
</g>
<!-- http://w3id.org/oseg/ont/oseg&#45;profiles#Iopa -->
<g id="node24" class="node">
<title>http://w3id.org/oseg/ont/oseg&#45;profiles#Iopa</title>
<ellipse fill="none" stroke="#e377c2" cx="1486.25" cy="-1193.28" rx="80.72" ry="16.03"/>
<text text-anchor="middle" x="1486.25" y="-1189.58" font-family="Times,serif" font-size="14.00">osegprof:Iopa</text>
</g>
<!-- http://w3id.org/oseg/ont/otrl&#45;&gt;http://w3id.org/oseg/ont/oseg&#45;profiles#Iopa -->
<g id="edge33" class="edge">
<title>http://w3id.org/oseg/ont/otrl&#45;&gt;http://w3id.org/oseg/ont/oseg&#45;profiles#Iopa</title>
<path fill="none" stroke="black" d="M1623.77,-1288.11C1596.42,-1269.25 1548.93,-1236.5 1517.54,-1214.85"/>
<polygon fill="black" stroke="black" points="1519.36,-1211.86 1509.14,-1209.06 1515.39,-1217.62 1519.36,-1211.86"/>
<text text-anchor="middle" x="1505.15" y="-1240.28" font-family="Times,serif" font-size="14.00">dcterms:publisher</text>
</g>
<!-- http://id.loc.gov/vocabulary/iso639&#45;1/en -->
<g id="node25" class="node">
<title>http://id.loc.gov/vocabulary/iso639&#45;1/en</title>
<ellipse fill="none" stroke="#e377c2" cx="1714.83" cy="-1168.4" rx="45.01" ry="16.03"/>
<text text-anchor="middle" x="1714.83" y="-1164.7" font-family="Times,serif" font-size="14.00">ns3:en</text>
</g>
<!-- http://w3id.org/oseg/ont/otrl&#45;&gt;http://id.loc.gov/vocabulary/iso639&#45;1/en -->
<g id="edge40" class="edge">
<title>http://w3id.org/oseg/ont/otrl&#45;&gt;http://id.loc.gov/vocabulary/iso639&#45;1/en</title>
<path fill="none" stroke="black" d="M1653.6,-1286.67C1665.57,-1263.54 1687.65,-1220.89 1701.77,-1193.63"/>
<polygon fill="black" stroke="black" points="1704.91,-1195.17 1706.4,-1184.68 1698.7,-1191.95 1704.91,-1195.17"/>
<text text-anchor="middle" x="1742.19" y="-1228.95" font-family="Times,serif" font-size="14.00">dcterms:language</text>
</g>
<!-- http://w3id.org/oseg/ont/otrl#OTRL5 -->
<g id="node17" class="node">
<title>http://w3id.org/oseg/ont/otrl#OTRL5</title>
<ellipse fill="none" stroke="#e377c2" cx="937.08" cy="-1303.3" rx="67.35" ry="16.03"/>
<text text-anchor="middle" x="937.08" y="-1299.6" font-family="Times,serif" font-size="14.00">otrl:OTRL5</text>
</g>
<!-- http://w3id.org/oseg/ont/otrl#OTRL5&#45;&gt;http://w3id.org/oseg/ont/otrl#OTRL -->
<g id="edge21" class="edge">
<title>http://w3id.org/oseg/ont/otrl#OTRL5&#45;&gt;http://w3id.org/oseg/ont/otrl#OTRL</title>
<path fill="none" stroke="black" d="M925.99,-1287.18C900.35,-1249.91 836.82,-1157.57 806.35,-1113.29"/>
<polygon fill="black" stroke="black" points="809.1,-1111.11 800.55,-1104.86 803.33,-1115.08 809.1,-1111.11"/>
<text text-anchor="middle" x="861.67" y="-1204.04" font-family="Times,serif" font-size="14.00">a</text>
</g>
<!-- http://w3id.org/oseg/ont/otrl#OTRL3 -->
<g id="node18" class="node">
<title>http://w3id.org/oseg/ont/otrl#OTRL3</title>
<ellipse fill="none" stroke="#e377c2" cx="984.54" cy="-1143.76" rx="67.35" ry="16.03"/>
<text text-anchor="middle" x="984.54" y="-1140.06" font-family="Times,serif" font-size="14.00">otrl:OTRL3</text>
</g>
<!-- http://w3id.org/oseg/ont/otrl#OTRL3&#45;&gt;http://w3id.org/oseg/ont/otrl#OTRL -->
<g id="edge23" class="edge">
<title>http://w3id.org/oseg/ont/otrl#OTRL3&#45;&gt;http://w3id.org/oseg/ont/otrl#OTRL</title>
<path fill="none" stroke="black" d="M940.29,-1131.3C910.88,-1123.02 872.16,-1112.11 841.32,-1103.43"/>
<polygon fill="black" stroke="black" points="842.18,-1100.03 831.6,-1100.69 840.28,-1106.77 842.18,-1100.03"/>
<text text-anchor="middle" x="886.3" y="-1121.16" font-family="Times,serif" font-size="14.00">a</text>
</g>
<!-- http://w3id.org/oseg/ont/otrl#goal -->
<g id="node19" class="node">
<title>http://w3id.org/oseg/ont/otrl#goal</title>
<ellipse fill="none" stroke="#e377c2" cx="952.08" cy="-872.81" rx="54.39" ry="16.03"/>
<text text-anchor="middle" x="952.08" y="-869.11" font-family="Times,serif" font-size="14.00">otrl:goal</text>
</g>
<!-- http://w3id.org/oseg/ont/otrl#goal&#45;&gt;http://w3id.org/oseg/ont/otrl#ODRL -->
<g id="edge24" class="edge">
<title>http://w3id.org/oseg/ont/otrl#goal&#45;&gt;http://w3id.org/oseg/ont/otrl#ODRL</title>
<path fill="none" stroke="black" d="M956.02,-856.26C966.64,-811.74 995.9,-689.09 1008.84,-634.81"/>
<polygon fill="black" stroke="black" points="1012.29,-635.45 1011.2,-624.91 1005.48,-633.83 1012.29,-635.45"/>
<text text-anchor="middle" x="904.43" y="-749.34" font-family="Times,serif" font-size="14.00">dcam:domainIncludes</text>
</g>
<!-- http://w3id.org/oseg/ont/otrl#goal&#45;&gt;http://w3id.org/oseg/ont/otrl#OTRL -->
<g id="edge5" class="edge">
<title>http://w3id.org/oseg/ont/otrl#goal&#45;&gt;http://w3id.org/oseg/ont/otrl#OTRL</title>
<path fill="none" stroke="black" d="M940.13,-888.69C912.01,-926.06 841.55,-1019.71 807.93,-1064.39"/>
<polygon fill="black" stroke="black" points="804.94,-1062.55 801.72,-1072.64 810.53,-1066.75 804.94,-1062.55"/>
<text text-anchor="middle" x="796.03" y="-980.34" font-family="Times,serif" font-size="14.00">dcam:domainIncludes</text>
</g>
<!-- http://w3id.org/oseg/ont/otrl#goal&#45;&gt;http://www.w3.org/1999/02/22&#45;rdf&#45;syntax&#45;ns#langString -->
<g id="edge38" class="edge">
<title>http://w3id.org/oseg/ont/otrl#goal&#45;&gt;http://www.w3.org/1999/02/22&#45;rdf&#45;syntax&#45;ns#langString</title>
<path fill="none" stroke="black" d="M898.15,-870.26C888.24,-869.79 877.64,-869.29 866.99,-868.79"/>
<polygon fill="black" stroke="black" points="866.92,-865.28 856.77,-868.31 866.59,-872.27 866.92,-865.28"/>
<text text-anchor="middle" x="872.07" y="-858.32" font-family="Times,serif" font-size="14.00">range</text>
</g>
<!-- http://w3id.org/oseg/ont/otrl#ODRL4&#45;&gt;http://w3id.org/oseg/ont/otrl#ODRL -->
<g id="edge26" class="edge">
<title>http://w3id.org/oseg/ont/otrl#ODRL4&#45;&gt;http://w3id.org/oseg/ont/otrl#ODRL</title>
<path fill="none" stroke="black" d="M1186.69,-462.38C1152.67,-491.33 1080.28,-552.94 1041.3,-586.12"/>
<polygon fill="black" stroke="black" points="1038.86,-583.6 1033.52,-592.74 1043.4,-588.93 1038.86,-583.6"/>
<text text-anchor="middle" x="1109.49" y="-528.05" font-family="Times,serif" font-size="14.00">a</text>
</g>
<!-- http://w3id.org/oseg/ont/otrl#ODRL3 -->
<g id="node22" class="node">
<title>http://w3id.org/oseg/ont/otrl#ODRL3</title>
<ellipse fill="none" stroke="#e377c2" cx="1115.91" cy="-377.69" rx="69.09" ry="16.03"/>
<text text-anchor="middle" x="1115.91" y="-373.99" font-family="Times,serif" font-size="14.00">otrl:ODRL3</text>
</g>
<!-- http://w3id.org/oseg/ont/otrl#ODRL3&#45;&gt;http://w3id.org/oseg/ont/otrl#ODRL -->
<g id="edge36" class="edge">
<title>http://w3id.org/oseg/ont/otrl#ODRL3&#45;&gt;http://w3id.org/oseg/ont/otrl#ODRL</title>
<path fill="none" stroke="black" d="M1108.83,-393.91C1091.56,-433.46 1047.17,-535.07 1026.3,-582.84"/>
<polygon fill="black" stroke="black" points="1023.02,-581.61 1022.22,-592.17 1029.44,-584.41 1023.02,-581.61"/>
<text text-anchor="middle" x="1063.07" y="-492.18" font-family="Times,serif" font-size="14.00">a</text>
</g>
<!-- http://w3id.org/oseg/ont/otrl#ODRL1 -->
<g id="node23" class="node">
<title>http://w3id.org/oseg/ont/otrl#ODRL1</title>
<ellipse fill="none" stroke="#e377c2" cx="1250.35" cy="-662.47" rx="69.09" ry="16.03"/>
<text text-anchor="middle" x="1250.35" y="-658.77" font-family="Times,serif" font-size="14.00">otrl:ODRL1</text>
</g>
<!-- http://w3id.org/oseg/ont/otrl#ODRL1&#45;&gt;http://w3id.org/oseg/ont/otrl#ODRL -->
<g id="edge37" class="edge">
<title>http://w3id.org/oseg/ont/otrl#ODRL1&#45;&gt;http://w3id.org/oseg/ont/otrl#ODRL</title>
<path fill="none" stroke="black" d="M1200.75,-651.06C1163.19,-642.42 1111.51,-630.54 1072.23,-621.5"/>
<polygon fill="black" stroke="black" points="1072.8,-618.04 1062.27,-619.21 1071.23,-624.87 1072.8,-618.04"/>
<text text-anchor="middle" x="1131.99" y="-640.08" font-family="Times,serif" font-size="14.00">a</text>
</g>
<!-- http://w3id.org/oseg/ont/otrl#Otrl -->
<g id="node26" class="node">
<title>http://w3id.org/oseg/ont/otrl#Otrl</title>
<ellipse fill="none" stroke="black" cx="460.15" cy="-1231.6" rx="183.28" ry="16.03"/>
<text text-anchor="middle" x="460.15" y="-1227.9" font-family="Times,serif" font-size="14.00">http://w3id.org/oseg/ont/otrl#Otrl</text>
</g>
<!-- http://w3id.org/oseg/ont/otrl#Otrl&#45;&gt;http://w3id.org/oseg/ont/otrl#OTRL -->
<g id="edge1" class="edge">
<title>http://w3id.org/oseg/ont/otrl#Otrl&#45;&gt;http://w3id.org/oseg/ont/otrl#OTRL</title>
<path fill="none" stroke="black" d="M496.98,-1215.64C558.77,-1188.86 682.93,-1135.04 747.84,-1106.91"/>
<polygon fill="black" stroke="black" points="749.57,-1109.98 757.35,-1102.79 746.78,-1103.56 749.57,-1109.98"/>
<text text-anchor="middle" x="542.41" y="-1165.07" font-family="Times,serif" font-size="14.00">schema:supersededBy</text>
</g>
<!-- http://w3id.org/oseg/ont/otrl#Otrl6 -->
<g id="node27" class="node">
<title>http://w3id.org/oseg/ont/otrl#Otrl6</title>
<ellipse fill="none" stroke="black" cx="733.35" cy="-1705.96" rx="189.51" ry="16.03"/>
<text text-anchor="middle" x="733.35" y="-1702.26" font-family="Times,serif" font-size="14.00">http://w3id.org/oseg/ont/otrl#Otrl6</text>
</g>
<!-- http://w3id.org/oseg/ont/otrl#Otrl6&#45;&gt;http://w3id.org/oseg/ont/otrl#OTRL6 -->
<g id="edge7" class="edge">
<title>http://w3id.org/oseg/ont/otrl#Otrl6&#45;&gt;http://w3id.org/oseg/ont/otrl#OTRL6</title>
<path fill="none" stroke="black" d="M735.29,-1689.6C742.02,-1632.84 764.39,-1444.01 772.71,-1373.7"/>
<polygon fill="black" stroke="black" points="776.23,-1373.82 773.93,-1363.47 769.27,-1372.99 776.23,-1373.82"/>
<text text-anchor="middle" x="674" y="-1535.45" font-family="Times,serif" font-size="14.00">schema:supersededBy</text>
</g>
<!-- http://w3id.org/oseg/ont/otrl#Otrl4 -->
<g id="node28" class="node">
<title>http://w3id.org/oseg/ont/otrl#Otrl4</title>
<ellipse fill="none" stroke="black" cx="501.05" cy="-1391.14" rx="189.51" ry="16.03"/>
<text text-anchor="middle" x="501.05" y="-1387.44" font-family="Times,serif" font-size="14.00">http://w3id.org/oseg/ont/otrl#Otrl4</text>
</g>
<!-- http://w3id.org/oseg/ont/otrl#Otrl4&#45;&gt;http://w3id.org/oseg/ont/otrl#OTRL4 -->
<g id="edge9" class="edge">
<title>http://w3id.org/oseg/ont/otrl#Otrl4&#45;&gt;http://w3id.org/oseg/ont/otrl#OTRL4</title>
<path fill="none" stroke="black" d="M524.45,-1374.86C549.27,-1357.59 588.58,-1330.24 615.9,-1311.24"/>
<polygon fill="black" stroke="black" points="618.1,-1313.97 624.31,-1305.38 614.1,-1308.22 618.1,-1313.97"/>
<text text-anchor="middle" x="490.17" y="-1346.85" font-family="Times,serif" font-size="14.00">schema:supersededBy</text>
</g>
<!-- http://w3id.org/oseg/ont/otrl#Odrl2 -->
<g id="node29" class="node">
<title>http://w3id.org/oseg/ont/otrl#Odrl2</title>
<ellipse fill="none" stroke="black" cx="469.41" cy="-315.68" rx="191.75" ry="16.03"/>
<text text-anchor="middle" x="469.41" y="-311.98" font-family="Times,serif" font-size="14.00">http://w3id.org/oseg/ont/otrl#Odrl2</text>
</g>
<!-- http://w3id.org/oseg/ont/otrl#Odrl2&#45;&gt;http://w3id.org/oseg/ont/otrl#ODRL2 -->
<g id="edge10" class="edge">
<title>http://w3id.org/oseg/ont/otrl#Odrl2&#45;&gt;http://w3id.org/oseg/ont/otrl#ODRL2</title>
<path fill="none" stroke="black" d="M496.32,-331.87C554.13,-366.63 690.12,-448.4 754,-486.81"/>
<polygon fill="black" stroke="black" points="752.51,-490 762.88,-492.16 756.12,-484 752.51,-490"/>
<text text-anchor="middle" x="545.16" y="-413.14" font-family="Times,serif" font-size="14.00">schema:supersededBy</text>
</g>
<!-- http://w3id.org/oseg/ont/otrl#Otrl2 -->
<g id="node30" class="node">
<title>http://w3id.org/oseg/ont/otrl#Otrl2</title>
<ellipse fill="none" stroke="black" cx="541.77" cy="-930.1" rx="189.51" ry="16.03"/>
<text text-anchor="middle" x="541.77" y="-926.4" font-family="Times,serif" font-size="14.00">http://w3id.org/oseg/ont/otrl#Otrl2</text>
</g>
<!-- http://w3id.org/oseg/ont/otrl#Otrl2&#45;&gt;http://w3id.org/oseg/ont/otrl#OTRL2 -->
<g id="edge11" class="edge">
<title>http://w3id.org/oseg/ont/otrl#Otrl2&#45;&gt;http://w3id.org/oseg/ont/otrl#OTRL2</title>
<path fill="none" stroke="black" d="M572.34,-946.24C576.65,-948.51 581.11,-950.87 585.52,-953.2"/>
<polygon fill="black" stroke="black" points="583.94,-956.33 594.42,-957.9 587.21,-950.14 583.94,-956.33"/>
<text text-anchor="middle" x="498.93" y="-953.52" font-family="Times,serif" font-size="14.00">schema:supersededBy</text>
</g>
<!-- http://w3id.org/oseg/ont/otrl#Odrl5 -->
<g id="node31" class="node">
<title>http://w3id.org/oseg/ont/otrl#Odrl5</title>
<ellipse fill="none" stroke="black" cx="1680.77" cy="-78.15" rx="191.75" ry="16.03"/>
<text text-anchor="middle" x="1680.77" y="-74.45" font-family="Times,serif" font-size="14.00">http://w3id.org/oseg/ont/otrl#Odrl5</text>
</g>
<!-- http://w3id.org/oseg/ont/otrl#Odrl5&#45;&gt;http://w3id.org/oseg/ont/otrl#Odrl4 -->
<g id="edge16" class="edge">
<title>http://w3id.org/oseg/ont/otrl#Odrl5&#45;&gt;http://w3id.org/oseg/ont/otrl#Odrl4</title>
<path fill="none" stroke="black" d="M1659.19,-94.48C1610.04,-131.68 1489.75,-222.73 1434.46,-264.58"/>
<polygon fill="black" stroke="black" points="1432.03,-262.03 1426.17,-270.86 1436.25,-267.62 1432.03,-262.03"/>
<text text-anchor="middle" x="1466.83" y="-183.33" font-family="Times,serif" font-size="14.00">schema:supersededBy</text>
</g>
<!-- http://w3id.org/oseg/ont/otrl#Odrl3Star -->
<g id="node32" class="node">
<title>http://w3id.org/oseg/ont/otrl#Odrl3Star</title>
<ellipse fill="none" stroke="black" cx="816.33" cy="-383.21" rx="213.59" ry="16.03"/>
<text text-anchor="middle" x="816.33" y="-379.51" font-family="Times,serif" font-size="14.00">http://w3id.org/oseg/ont/otrl#Odrl3Star</text>
</g>
<!-- http://w3id.org/oseg/ont/otrl#Odrl3Star&#45;&gt;http://w3id.org/oseg/ont/otrl#ODRL3Star -->
<g id="edge17" class="edge">
<title>http://w3id.org/oseg/ont/otrl#Odrl3Star&#45;&gt;http://w3id.org/oseg/ont/otrl#ODRL3Star</title>
<path fill="none" stroke="black" d="M830.29,-399.8C830.69,-400.28 831.09,-400.75 831.49,-401.23"/>
<polygon fill="black" stroke="black" points="828.91,-403.6 838.02,-409 834.26,-399.09 828.91,-403.6"/>
<text text-anchor="middle" x="750.89" y="-404.32" font-family="Times,serif" font-size="14.00">schema:supersededBy</text>
</g>
<!-- http://w3id.org/oseg/ont/otrl#Otrl5 -->
<g id="node33" class="node">
<title>http://w3id.org/oseg/ont/otrl#Otrl5</title>
<ellipse fill="none" stroke="black" cx="1104.79" cy="-1623.72" rx="189.51" ry="16.03"/>
<text text-anchor="middle" x="1104.79" y="-1620.02" font-family="Times,serif" font-size="14.00">http://w3id.org/oseg/ont/otrl#Otrl5</text>
</g>
<!-- http://w3id.org/oseg/ont/otrl#Otrl5&#45;&gt;http://w3id.org/oseg/ont/otrl#OTRL5 -->
<g id="edge19" class="edge">
<title>http://w3id.org/oseg/ont/otrl#Otrl5&#45;&gt;http://w3id.org/oseg/ont/otrl#OTRL5</title>
<path fill="none" stroke="black" d="M1096.25,-1607.39C1068.88,-1555.11 983.3,-1391.6 950.27,-1328.5"/>
<polygon fill="black" stroke="black" points="953.35,-1326.84 945.61,-1319.6 947.15,-1330.08 953.35,-1326.84"/>
<text text-anchor="middle" x="943.26" y="-1471.74" font-family="Times,serif" font-size="14.00">schema:supersededBy</text>
</g>
<!-- http://w3id.org/oseg/ont/otrl#Otrl1 -->
<g id="node34" class="node">
<title>http://w3id.org/oseg/ont/otrl#Otrl1</title>
<ellipse fill="none" stroke="black" cx="189.15" cy="-1189.37" rx="189.51" ry="16.03"/>
<text text-anchor="middle" x="189.15" y="-1185.67" font-family="Times,serif" font-size="14.00">http://w3id.org/oseg/ont/otrl#Otrl1</text>
</g>
<!-- http://w3id.org/oseg/ont/otrl#Otrl1&#45;&gt;http://w3id.org/oseg/ont/otrl#OTRL1 -->
<g id="edge20" class="edge">
<title>http://w3id.org/oseg/ont/otrl#Otrl1&#45;&gt;http://w3id.org/oseg/ont/otrl#OTRL1</title>
<path fill="none" stroke="black" d="M287.86,-1175.4C348.98,-1166.75 425.92,-1155.87 480.34,-1148.17"/>
<polygon fill="black" stroke="black" points="481.16,-1151.59 490.57,-1146.72 480.18,-1144.65 481.16,-1151.59"/>
<text text-anchor="middle" x="304.1" y="-1150.59" font-family="Times,serif" font-size="14.00">schema:supersededBy</text>
</g>
<!-- http://w3id.org/oseg/ont/otrl#Odrl3 -->
<g id="node35" class="node">
<title>http://w3id.org/oseg/ont/otrl#Odrl3</title>
<ellipse fill="none" stroke="black" cx="1177.81" cy="-16.73" rx="191.75" ry="16.03"/>
<text text-anchor="middle" x="1177.81" y="-13.03" font-family="Times,serif" font-size="14.00">http://w3id.org/oseg/ont/otrl#Odrl3</text>
</g>
<!-- http://w3id.org/oseg/ont/otrl#Odrl3&#45;&gt;http://w3id.org/oseg/ont/otrl#ODRL3 -->
<g id="edge28" class="edge">
<title>http://w3id.org/oseg/ont/otrl#Odrl3&#45;&gt;http://w3id.org/oseg/ont/otrl#ODRL3</title>
<path fill="none" stroke="black" d="M1174.99,-33.18C1165.2,-90.26 1132.64,-280.16 1120.52,-350.86"/>
<polygon fill="black" stroke="black" points="1116.99,-350.7 1118.75,-361.15 1123.89,-351.88 1116.99,-350.7"/>
<text text-anchor="middle" x="1067.75" y="-195.82" font-family="Times,serif" font-size="14.00">schema:supersededBy</text>
</g>
<!-- http://w3id.org/oseg/ont/otrl#Odrl1 -->
<g id="node36" class="node">
<title>http://w3id.org/oseg/ont/otrl#Odrl1</title>
<ellipse fill="none" stroke="black" cx="1616.67" cy="-682.73" rx="191.75" ry="16.03"/>
<text text-anchor="middle" x="1616.67" y="-679.03" font-family="Times,serif" font-size="14.00">http://w3id.org/oseg/ont/otrl#Odrl1</text>
</g>
<!-- http://w3id.org/oseg/ont/otrl#Odrl1&#45;&gt;http://w3id.org/oseg/ont/otrl#ODRL1 -->
<g id="edge32" class="edge">
<title>http://w3id.org/oseg/ont/otrl#Odrl1&#45;&gt;http://w3id.org/oseg/ont/otrl#ODRL1</title>
<path fill="none" stroke="black" d="M1456,-673.84C1411.72,-671.39 1365.65,-668.85 1328.38,-666.78"/>
<polygon fill="black" stroke="black" points="1328.28,-663.27 1318.1,-666.21 1327.89,-670.26 1328.28,-663.27"/>
<text text-anchor="middle" x="1432.19" y="-659.11" font-family="Times,serif" font-size="14.00">schema:supersededBy</text>
</g>
<!-- http://w3id.org/oseg/ont/otrl#Otrl3 -->
<g id="node37" class="node">
<title>http://w3id.org/oseg/ont/otrl#Otrl3</title>
<ellipse fill="none" stroke="black" cx="990.27" cy="-1186.86" rx="189.51" ry="16.03"/>
<text text-anchor="middle" x="990.27" y="-1183.16" font-family="Times,serif" font-size="14.00">http://w3id.org/oseg/ont/otrl#Otrl3</text>
</g>
<!-- http://w3id.org/oseg/ont/otrl#Otrl3&#45;&gt;http://w3id.org/oseg/ont/otrl#OTRL3 -->
<g id="edge34" class="edge">
<title>http://w3id.org/oseg/ont/otrl#Otrl3&#45;&gt;http://w3id.org/oseg/ont/otrl#OTRL3</title>
<path fill="none" stroke="black" d="M988.07,-1170.32C988.06,-1170.22 988.05,-1170.11 988.03,-1170.01"/>
<polygon fill="black" stroke="black" points="991.51,-1169.64 986.73,-1160.19 984.57,-1170.56 991.51,-1169.64"/>
<text text-anchor="middle" x="1068.05" y="-1158.96" font-family="Times,serif" font-size="14.00">schema:supersededBy</text>
</g>
<!-- http://w3id.org/oseg/ont/otrl#Odrl -->
<g id="node38" class="node">
<title>http://w3id.org/oseg/ont/otrl#Odrl</title>
<ellipse fill="none" stroke="black" cx="1315.59" cy="-546.31" rx="185.02" ry="16.03"/>
<text text-anchor="middle" x="1315.59" y="-542.61" font-family="Times,serif" font-size="14.00">http://w3id.org/oseg/ont/otrl#Odrl</text>
</g>
<!-- http://w3id.org/oseg/ont/otrl#Odrl&#45;&gt;http://w3id.org/oseg/ont/otrl#ODRL -->
<g id="edge35" class="edge">
<title>http://w3id.org/oseg/ont/otrl#Odrl&#45;&gt;http://w3id.org/oseg/ont/otrl#ODRL</title>
<path fill="none" stroke="black" d="M1242.86,-561.33C1191.3,-571.98 1122.97,-586.1 1074.66,-596.08"/>
<polygon fill="black" stroke="black" points="1073.75,-592.7 1064.66,-598.15 1075.17,-599.55 1073.75,-592.7"/>
<text text-anchor="middle" x="1078.76" y="-567.51" font-family="Times,serif" font-size="14.00">schema:supersededBy</text>
</g>
</g>
</svg>
