<?xml version="1.0" encoding="UTF-8" standalone="no"?>
<!DOCTYPE svg PUBLIC "-//W3C//DTD SVG 1.1//EN"
 "http://www.w3.org/Graphics/SVG/1.1/DTD/svg11.dtd">
<!-- Generated by graphviz version 2.43.0 (0)
 -->
<!-- Title: G Pages: 1 -->
<svg width="2299pt" height="1452pt"
 viewBox="0.00 0.00 2299.00 1452.00" xmlns="http://www.w3.org/2000/svg" xmlns:xlink="http://www.w3.org/1999/xlink">
<g id="graph0" class="graph" transform="scale(1 1) rotate(0) translate(4 1448)">
<title>G</title>
<polygon fill="white" stroke="transparent" points="-4,4 -4,-1448 2295,-1448 2295,4 -4,4"/>
<!-- http://www.w3.org/2002/07/owl#DatatypeProperty -->
<g id="node1" class="node">
<title>http://www.w3.org/2002/07/owl#DatatypeProperty</title>
<ellipse fill="none" stroke="#1f77b4" cx="1111.31" cy="-456.35" rx="123.07" ry="16.03"/>
<text text-anchor="middle" x="1111.31" y="-452.65" font-family="Times,serif" font-size="14.00">owl:DatatypeProperty</text>
</g>
<!-- http://w3id.org/oseg/ont/otrl#ODRL -->
<g id="node2" class="node">
<title>http://w3id.org/oseg/ont/otrl#ODRL</title>
<ellipse fill="none" stroke="#e377c2" cx="876.64" cy="-555.14" rx="62.87" ry="16.03"/>
<text text-anchor="middle" x="876.64" y="-551.44" font-family="Times,serif" font-size="14.00">otrl:ODRL</text>
</g>
<!-- http://www.w3.org/2002/07/owl#Ontology -->
<g id="node3" class="node">
<title>http://www.w3.org/2002/07/owl#Ontology</title>
<ellipse fill="none" stroke="#1f77b4" cx="1022.85" cy="-1366.58" rx="77.56" ry="16.03"/>
<text text-anchor="middle" x="1022.85" y="-1362.88" font-family="Times,serif" font-size="14.00">owl:Ontology</text>
</g>
<!-- http://spdx.org/rdf/terms#SpdxItem -->
<g id="node4" class="node">
<title>http://spdx.org/rdf/terms#SpdxItem</title>
<ellipse fill="none" stroke="#1f77b4" cx="1280.06" cy="-1127.58" rx="87.86" ry="16.03"/>
<text text-anchor="middle" x="1280.06" y="-1123.88" font-family="Times,serif" font-size="14.00">spdx:SpdxItem</text>
</g>
<!-- http://w3id.org/oseg/ont/otrl#OTRL -->
<g id="node5" class="node">
<title>http://w3id.org/oseg/ont/otrl#OTRL</title>
<ellipse fill="none" stroke="#e377c2" cx="1442.68" cy="-650.68" rx="60.62" ry="16.03"/>
<text text-anchor="middle" x="1442.68" y="-646.98" font-family="Times,serif" font-size="14.00">otrl:OTRL</text>
</g>
<!-- http://w3id.org/oseg/ont/otrl#ODRL2 -->
<g id="node6" class="node">
<title>http://w3id.org/oseg/ont/otrl#ODRL2</title>
<ellipse fill="none" stroke="#e377c2" cx="774.04" cy="-810" rx="69.09" ry="16.03"/>
<text text-anchor="middle" x="774.04" y="-806.3" font-family="Times,serif" font-size="14.00">otrl:ODRL2</text>
</g>
<!-- http://w3id.org/oseg/ont/otrl#ODRL2&#45;&gt;http://w3id.org/oseg/ont/otrl#ODRL -->
<g id="edge42" class="edge">
<title>http://w3id.org/oseg/ont/otrl#ODRL2&#45;&gt;http://w3id.org/oseg/ont/otrl#ODRL</title>
<path fill="none" stroke="black" d="M780.62,-793.67C797.99,-750.52 845.23,-633.18 866.28,-580.89"/>
<polygon fill="black" stroke="black" points="869.64,-581.92 870.12,-571.34 863.14,-579.31 869.64,-581.92"/>
<text text-anchor="middle" x="818.95" y="-691.08" font-family="Times,serif" font-size="14.00">a</text>
</g>
<!-- http://w3id.org/oseg/ont/otrl#OTRL3 -->
<g id="node7" class="node">
<title>http://w3id.org/oseg/ont/otrl#OTRL3</title>
<ellipse fill="none" stroke="#e377c2" cx="1175.39" cy="-751.68" rx="67.35" ry="16.03"/>
<text text-anchor="middle" x="1175.39" y="-747.98" font-family="Times,serif" font-size="14.00">otrl:OTRL3</text>
</g>
<!-- http://w3id.org/oseg/ont/otrl#OTRL3&#45;&gt;http://w3id.org/oseg/ont/otrl#OTRL -->
<g id="edge16" class="edge">
<title>http://w3id.org/oseg/ont/otrl#OTRL3&#45;&gt;http://w3id.org/oseg/ont/otrl#OTRL</title>
<path fill="none" stroke="black" d="M1211.71,-737.96C1260.09,-719.68 1345.62,-687.36 1397.92,-667.59"/>
<polygon fill="black" stroke="black" points="1399.16,-670.86 1407.28,-664.05 1396.69,-664.31 1399.16,-670.86"/>
<text text-anchor="middle" x="1300.32" y="-691.57" font-family="Times,serif" font-size="14.00">a</text>
</g>
<!-- http://w3id.org/oseg/ont/otrl#exitCriteria -->
<g id="node8" class="node">
<title>http://w3id.org/oseg/ont/otrl#exitCriteria</title>
<ellipse fill="none" stroke="#e377c2" cx="1246.9" cy="-498.08" rx="91.43" ry="16.03"/>
<text text-anchor="middle" x="1246.9" y="-494.38" font-family="Times,serif" font-size="14.00">otrl:exitCriteria</text>
</g>
<!-- http://w3id.org/oseg/ont/otrl#exitCriteria&#45;&gt;http://www.w3.org/2002/07/owl#DatatypeProperty -->
<g id="edge3" class="edge">
<title>http://w3id.org/oseg/ont/otrl#exitCriteria&#45;&gt;http://www.w3.org/2002/07/owl#DatatypeProperty</title>
<path fill="none" stroke="black" d="M1201,-483.95C1190.98,-480.87 1180.25,-477.57 1169.82,-474.36"/>
<polygon fill="black" stroke="black" points="1170.54,-470.92 1159.95,-471.32 1168.48,-477.61 1170.54,-470.92"/>
<text text-anchor="middle" x="1180.91" y="-467.95" font-family="Times,serif" font-size="14.00">a</text>
</g>
<!-- http://w3id.org/oseg/ont/otrl#exitCriteria&#45;&gt;http://w3id.org/oseg/ont/otrl#ODRL -->
<g id="edge15" class="edge">
<title>http://w3id.org/oseg/ont/otrl#exitCriteria&#45;&gt;http://w3id.org/oseg/ont/otrl#ODRL</title>
<path fill="none" stroke="black" d="M1177.69,-508.75C1109.7,-519.22 1006.81,-535.08 940.67,-545.28"/>
<polygon fill="black" stroke="black" points="940.13,-541.82 930.78,-546.8 941.2,-548.74 940.13,-541.82"/>
<text text-anchor="middle" x="981.18" y="-515.81" font-family="Times,serif" font-size="14.00">dcam:domainIncludes</text>
</g>
<!-- http://w3id.org/oseg/ont/otrl#exitCriteria&#45;&gt;http://w3id.org/oseg/ont/otrl#OTRL -->
<g id="edge36" class="edge">
<title>http://w3id.org/oseg/ont/otrl#exitCriteria&#45;&gt;http://w3id.org/oseg/ont/otrl#OTRL</title>
<path fill="none" stroke="black" d="M1267.48,-514.12C1302.77,-541.63 1374.85,-597.81 1414.68,-628.85"/>
<polygon fill="black" stroke="black" points="1412.62,-631.69 1422.66,-635.08 1416.93,-626.17 1412.62,-631.69"/>
<text text-anchor="middle" x="1263.08" y="-575.29" font-family="Times,serif" font-size="14.00">dcam:domainIncludes</text>
</g>
<!-- http://www.w3.org/1999/02/22&#45;rdf&#45;syntax&#45;ns#langString -->
<g id="node21" class="node">
<title>http://www.w3.org/1999/02/22&#45;rdf&#45;syntax&#45;ns#langString</title>
<ellipse fill="none" stroke="#e377c2" cx="1207.36" cy="-287.96" rx="83.38" ry="16.03"/>
<text text-anchor="middle" x="1207.36" y="-284.26" font-family="Times,serif" font-size="14.00">rdf:langString</text>
</g>
<!-- http://w3id.org/oseg/ont/otrl#exitCriteria&#45;&gt;http://www.w3.org/1999/02/22&#45;rdf&#45;syntax&#45;ns#langString -->
<g id="edge29" class="edge">
<title>http://w3id.org/oseg/ont/otrl#exitCriteria&#45;&gt;http://www.w3.org/1999/02/22&#45;rdf&#45;syntax&#45;ns#langString</title>
<path fill="none" stroke="black" d="M1243.8,-481.59C1236.97,-445.31 1220.59,-358.27 1212.31,-314.32"/>
<polygon fill="black" stroke="black" points="1215.73,-313.55 1210.44,-304.37 1208.85,-314.85 1215.73,-313.55"/>
<text text-anchor="middle" x="1207.06" y="-401.75" font-family="Times,serif" font-size="14.00">range</text>
</g>
<!-- http://w3id.org/oseg/ont/otrl#OTRL6 -->
<g id="node9" class="node">
<title>http://w3id.org/oseg/ont/otrl#OTRL6</title>
<ellipse fill="none" stroke="#e377c2" cx="1720.86" cy="-724.63" rx="67.35" ry="16.03"/>
<text text-anchor="middle" x="1720.86" y="-720.93" font-family="Times,serif" font-size="14.00">otrl:OTRL6</text>
</g>
<!-- http://w3id.org/oseg/ont/otrl#OTRL6&#45;&gt;http://w3id.org/oseg/ont/otrl#OTRL -->
<g id="edge4" class="edge">
<title>http://w3id.org/oseg/ont/otrl#OTRL6&#45;&gt;http://w3id.org/oseg/ont/otrl#OTRL</title>
<path fill="none" stroke="black" d="M1675.55,-712.58C1626.37,-699.51 1547.92,-678.66 1495.86,-664.82"/>
<polygon fill="black" stroke="black" points="1496.7,-661.42 1486.14,-662.23 1494.9,-668.18 1496.7,-661.42"/>
<text text-anchor="middle" x="1581.2" y="-692.5" font-family="Times,serif" font-size="14.00">a</text>
</g>
<!-- http://w3id.org/oseg/ont/otrl#OTRL1 -->
<g id="node10" class="node">
<title>http://w3id.org/oseg/ont/otrl#OTRL1</title>
<ellipse fill="none" stroke="#e377c2" cx="1732.39" cy="-658.88" rx="67.35" ry="16.03"/>
<text text-anchor="middle" x="1732.39" y="-655.18" font-family="Times,serif" font-size="14.00">otrl:OTRL1</text>
</g>
<!-- http://w3id.org/oseg/ont/otrl#OTRL1&#45;&gt;http://w3id.org/oseg/ont/otrl#OTRL -->
<g id="edge7" class="edge">
<title>http://w3id.org/oseg/ont/otrl#OTRL1&#45;&gt;http://w3id.org/oseg/ont/otrl#OTRL</title>
<path fill="none" stroke="black" d="M1665.56,-656.99C1620.04,-655.7 1559.87,-654 1513.52,-652.68"/>
<polygon fill="black" stroke="black" points="1513.35,-649.18 1503.25,-652.39 1513.15,-656.17 1513.35,-649.18"/>
<text text-anchor="middle" x="1585.04" y="-658.64" font-family="Times,serif" font-size="14.00">a</text>
</g>
<!-- http://w3id.org/oseg/ont/otrl#Odrl4 -->
<g id="node11" class="node">
<title>http://w3id.org/oseg/ont/otrl#Odrl4</title>
<ellipse fill="none" stroke="#e377c2" cx="807.87" cy="-58.39" rx="61.54" ry="16.03"/>
<text text-anchor="middle" x="807.87" y="-54.69" font-family="Times,serif" font-size="14.00">otrl:Odrl4</text>
</g>
<!-- http://w3id.org/oseg/ont/otrl#ODRL4 -->
<g id="node22" class="node">
<title>http://w3id.org/oseg/ont/otrl#ODRL4</title>
<ellipse fill="none" stroke="#e377c2" cx="817.02" cy="-282.42" rx="69.09" ry="16.03"/>
<text text-anchor="middle" x="817.02" y="-278.72" font-family="Times,serif" font-size="14.00">otrl:ODRL4</text>
</g>
<!-- http://w3id.org/oseg/ont/otrl#Odrl4&#45;&gt;http://w3id.org/oseg/ont/otrl#ODRL4 -->
<g id="edge27" class="edge">
<title>http://w3id.org/oseg/ont/otrl#Odrl4&#45;&gt;http://w3id.org/oseg/ont/otrl#ODRL4</title>
<path fill="none" stroke="black" d="M808.55,-74.86C810.11,-113.21 814.01,-208.77 815.93,-255.64"/>
<polygon fill="black" stroke="black" points="812.44,-256.07 816.35,-265.92 819.43,-255.78 812.44,-256.07"/>
<text text-anchor="middle" x="732.24" y="-169.05" font-family="Times,serif" font-size="14.00">schema:supersededBy</text>
</g>
<!-- http://w3id.org/oseg/ont/otrl#OTRL5 -->
<g id="node12" class="node">
<title>http://w3id.org/oseg/ont/otrl#OTRL5</title>
<ellipse fill="none" stroke="#e377c2" cx="1666.96" cy="-459.41" rx="67.35" ry="16.03"/>
<text text-anchor="middle" x="1666.96" y="-455.71" font-family="Times,serif" font-size="14.00">otrl:OTRL5</text>
</g>
<!-- http://w3id.org/oseg/ont/otrl#OTRL5&#45;&gt;http://w3id.org/oseg/ont/otrl#OTRL -->
<g id="edge28" class="edge">
<title>http://w3id.org/oseg/ont/otrl#OTRL5&#45;&gt;http://w3id.org/oseg/ont/otrl#OTRL</title>
<path fill="none" stroke="black" d="M1648.61,-475.07C1608.83,-508.98 1514.59,-589.35 1468.69,-628.49"/>
<polygon fill="black" stroke="black" points="1466.31,-625.93 1460.97,-635.08 1470.85,-631.25 1466.31,-625.93"/>
<text text-anchor="middle" x="1554.15" y="-555.58" font-family="Times,serif" font-size="14.00">a</text>
</g>
<!-- http://w3id.org/oseg/ont/otrl#OTRL2 -->
<g id="node13" class="node">
<title>http://w3id.org/oseg/ont/otrl#OTRL2</title>
<ellipse fill="none" stroke="#e377c2" cx="1336.48" cy="-717.58" rx="67.35" ry="16.03"/>
<text text-anchor="middle" x="1336.48" y="-713.88" font-family="Times,serif" font-size="14.00">otrl:OTRL2</text>
</g>
<!-- http://w3id.org/oseg/ont/otrl#OTRL2&#45;&gt;http://w3id.org/oseg/ont/otrl#OTRL -->
<g id="edge17" class="edge">
<title>http://w3id.org/oseg/ont/otrl#OTRL2&#45;&gt;http://w3id.org/oseg/ont/otrl#OTRL</title>
<path fill="none" stroke="black" d="M1360.58,-702.4C1375.24,-693.16 1394.16,-681.24 1410.14,-671.17"/>
<polygon fill="black" stroke="black" points="1412.08,-674.09 1418.67,-665.8 1408.35,-668.17 1412.08,-674.09"/>
<text text-anchor="middle" x="1380.86" y="-690.59" font-family="Times,serif" font-size="14.00">a</text>
</g>
<!-- http://w3id.org/oseg/ont/otrl#goal -->
<g id="node14" class="node">
<title>http://w3id.org/oseg/ont/otrl#goal</title>
<ellipse fill="none" stroke="#e377c2" cx="1140.12" cy="-541.38" rx="54.39" ry="16.03"/>
<text text-anchor="middle" x="1140.12" y="-537.68" font-family="Times,serif" font-size="14.00">otrl:goal</text>
</g>
<!-- http://w3id.org/oseg/ont/otrl#goal&#45;&gt;http://www.w3.org/2002/07/owl#DatatypeProperty -->
<g id="edge12" class="edge">
<title>http://w3id.org/oseg/ont/otrl#goal&#45;&gt;http://www.w3.org/2002/07/owl#DatatypeProperty</title>
<path fill="none" stroke="black" d="M1134.56,-524.98C1130.46,-512.87 1124.79,-496.13 1120.07,-482.22"/>
<polygon fill="black" stroke="black" points="1123.37,-481.04 1116.84,-472.69 1116.74,-483.29 1123.37,-481.04"/>
<text text-anchor="middle" x="1122.82" y="-507.4" font-family="Times,serif" font-size="14.00">a</text>
</g>
<!-- http://w3id.org/oseg/ont/otrl#goal&#45;&gt;http://w3id.org/oseg/ont/otrl#ODRL -->
<g id="edge6" class="edge">
<title>http://w3id.org/oseg/ont/otrl#goal&#45;&gt;http://w3id.org/oseg/ont/otrl#ODRL</title>
<path fill="none" stroke="black" d="M1086.48,-544.18C1046.78,-546.26 992.28,-549.1 948.76,-551.38"/>
<polygon fill="black" stroke="black" points="948.33,-547.89 938.52,-551.91 948.69,-554.89 948.33,-547.89"/>
<text text-anchor="middle" x="1017.62" y="-536.58" font-family="Times,serif" font-size="14.00">dcam:domainIncludes</text>
</g>
<!-- http://w3id.org/oseg/ont/otrl#goal&#45;&gt;http://w3id.org/oseg/ont/otrl#OTRL -->
<g id="edge11" class="edge">
<title>http://w3id.org/oseg/ont/otrl#goal&#45;&gt;http://w3id.org/oseg/ont/otrl#OTRL</title>
<path fill="none" stroke="black" d="M1174.83,-553.92C1229.38,-573.62 1335.23,-611.86 1396.27,-633.91"/>
<polygon fill="black" stroke="black" points="1395.43,-637.33 1406.02,-637.44 1397.81,-630.75 1395.43,-637.33"/>
<text text-anchor="middle" x="1207.55" y="-597.71" font-family="Times,serif" font-size="14.00">dcam:domainIncludes</text>
</g>
<!-- http://w3id.org/oseg/ont/otrl#goal&#45;&gt;http://www.w3.org/1999/02/22&#45;rdf&#45;syntax&#45;ns#langString -->
<g id="edge26" class="edge">
<title>http://w3id.org/oseg/ont/otrl#goal&#45;&gt;http://www.w3.org/1999/02/22&#45;rdf&#45;syntax&#45;ns#langString</title>
<path fill="none" stroke="black" d="M1144.43,-525.14C1155.76,-482.42 1186.49,-366.6 1200.38,-314.26"/>
<polygon fill="black" stroke="black" points="1203.81,-314.96 1203,-304.39 1197.05,-313.16 1203.81,-314.96"/>
<text text-anchor="middle" x="1151.4" y="-423.5" font-family="Times,serif" font-size="14.00">range</text>
</g>
<!-- http://w3id.org/oseg/ont/otrl -->
<g id="node15" class="node">
<title>http://w3id.org/oseg/ont/otrl</title>
<ellipse fill="none" stroke="#e377c2" cx="1133.67" cy="-1235.17" rx="50.82" ry="16.03"/>
<text text-anchor="middle" x="1133.67" y="-1231.47" font-family="Times,serif" font-size="14.00">ns1:otrl</text>
</g>
<!-- http://w3id.org/oseg/ont/otrl&#45;&gt;http://www.w3.org/2002/07/owl#Ontology -->
<g id="edge33" class="edge">
<title>http://w3id.org/oseg/ont/otrl&#45;&gt;http://www.w3.org/2002/07/owl#Ontology</title>
<path fill="none" stroke="black" d="M1120.31,-1251.02C1101.11,-1273.79 1065.57,-1315.93 1043.13,-1342.54"/>
<polygon fill="black" stroke="black" points="1040.39,-1340.36 1036.61,-1350.26 1045.74,-1344.88 1040.39,-1340.36"/>
<text text-anchor="middle" x="1077.22" y="-1300.58" font-family="Times,serif" font-size="14.00">a</text>
</g>
<!-- http://w3id.org/oseg/ont/otrl&#45;&gt;http://spdx.org/rdf/terms#SpdxItem -->
<g id="edge13" class="edge">
<title>http://w3id.org/oseg/ont/otrl&#45;&gt;http://spdx.org/rdf/terms#SpdxItem</title>
<path fill="none" stroke="black" d="M1154.03,-1220.21C1178.95,-1201.9 1221.36,-1170.73 1250.03,-1149.66"/>
<polygon fill="black" stroke="black" points="1252.46,-1152.21 1258.45,-1143.47 1248.32,-1146.57 1252.46,-1152.21"/>
<text text-anchor="middle" x="1197.53" y="-1173.73" font-family="Times,serif" font-size="14.00">a</text>
</g>
<!-- http://w3id.org/oseg/ont/oseg&#45;profiles#Iopa -->
<g id="node18" class="node">
<title>http://w3id.org/oseg/ont/oseg&#45;profiles#Iopa</title>
<ellipse fill="none" stroke="#e377c2" cx="1096.49" cy="-1275.71" rx="80.72" ry="16.03"/>
<text text-anchor="middle" x="1096.49" y="-1272.01" font-family="Times,serif" font-size="14.00">osegprof:Iopa</text>
</g>
<!-- http://w3id.org/oseg/ont/otrl&#45;&gt;http://w3id.org/oseg/ont/oseg&#45;profiles#Iopa -->
<g id="edge22" class="edge">
<title>http://w3id.org/oseg/ont/otrl&#45;&gt;http://w3id.org/oseg/ont/oseg&#45;profiles#Iopa</title>
<path fill="none" stroke="black" d="M1118.98,-1251.19C1118.74,-1251.45 1118.51,-1251.71 1118.27,-1251.97"/>
<polygon fill="black" stroke="black" points="1115.5,-1249.8 1111.32,-1259.54 1120.66,-1254.54 1115.5,-1249.8"/>
<text text-anchor="middle" x="1184.12" y="-1255.38" font-family="Times,serif" font-size="14.00">dcterms:publisher</text>
</g>
<!-- http://w3id.org/oseg/ont/oseg&#45;profiles#robinVobruba -->
<g id="node19" class="node">
<title>http://w3id.org/oseg/ont/oseg&#45;profiles#robinVobruba</title>
<ellipse fill="none" stroke="#e377c2" cx="1211.82" cy="-1427.64" rx="113.69" ry="16.03"/>
<text text-anchor="middle" x="1211.82" y="-1423.94" font-family="Times,serif" font-size="14.00">osegprof:robinVob...</text>
</g>
<!-- http://w3id.org/oseg/ont/otrl&#45;&gt;http://w3id.org/oseg/ont/oseg&#45;profiles#robinVobruba -->
<g id="edge23" class="edge">
<title>http://w3id.org/oseg/ont/otrl&#45;&gt;http://w3id.org/oseg/ont/oseg&#45;profiles#robinVobruba</title>
<path fill="none" stroke="black" d="M1136.25,-1251.72C1146.17,-1285.45 1176.97,-1362.23 1196.27,-1402.29"/>
<polygon fill="black" stroke="black" points="1193.21,-1404 1200.79,-1411.41 1199.48,-1400.89 1193.21,-1404"/>
<text text-anchor="middle" x="1110.76" y="-1330.81" font-family="Times,serif" font-size="14.00">schema:creator</text>
</g>
<!-- http://w3id.org/oseg/ont/otrl&#45;&gt;http://w3id.org/oseg/ont/oseg&#45;profiles#robinVobruba -->
<g id="edge31" class="edge">
<title>http://w3id.org/oseg/ont/otrl&#45;&gt;http://w3id.org/oseg/ont/oseg&#45;profiles#robinVobruba</title>
<path fill="none" stroke="black" d="M1144.7,-1251.39C1161.81,-1284.72 1193.02,-1361.08 1206.25,-1401.5"/>
<polygon fill="black" stroke="black" points="1202.95,-1402.68 1209.27,-1411.18 1209.63,-1400.59 1202.95,-1402.68"/>
<text text-anchor="middle" x="1117.97" y="-1315.24" font-family="Times,serif" font-size="14.00">dcterms:creator</text>
</g>
<!-- http://spdx.org/licenses/GPL&#45;3.0&#45;or&#45;later -->
<g id="node20" class="node">
<title>http://spdx.org/licenses/GPL&#45;3.0&#45;or&#45;later</title>
<ellipse fill="none" stroke="#e377c2" cx="1328" cy="-1292.52" rx="108.79" ry="16.03"/>
<text text-anchor="middle" x="1328" y="-1288.82" font-family="Times,serif" font-size="14.00">spdxl:GPL&#45;3.0&#45;or&#45;...</text>
</g>
<!-- http://w3id.org/oseg/ont/otrl&#45;&gt;http://spdx.org/licenses/GPL&#45;3.0&#45;or&#45;later -->
<g id="edge25" class="edge">
<title>http://w3id.org/oseg/ont/otrl&#45;&gt;http://spdx.org/licenses/GPL&#45;3.0&#45;or&#45;later</title>
<path fill="none" stroke="black" d="M1171.14,-1246.23C1198.83,-1254.4 1237.07,-1265.69 1268.87,-1275.07"/>
<polygon fill="black" stroke="black" points="1267.93,-1278.44 1278.51,-1277.91 1269.91,-1271.73 1267.93,-1278.44"/>
<text text-anchor="middle" x="1296" y="-1264.45" font-family="Times,serif" font-size="14.00">spdx:licenseDeclared</text>
</g>
<!-- http://w3id.org/oseg/ont/oseg&#45;profiles#martinHaeuer -->
<g id="node25" class="node">
<title>http://w3id.org/oseg/ont/oseg&#45;profiles#martinHaeuer</title>
<ellipse fill="none" stroke="#e377c2" cx="1165.36" cy="-1194.46" rx="116.85" ry="16.03"/>
<text text-anchor="middle" x="1165.36" y="-1190.76" font-family="Times,serif" font-size="14.00">osegprof:martinHa...</text>
</g>
<!-- http://w3id.org/oseg/ont/otrl&#45;&gt;http://w3id.org/oseg/ont/oseg&#45;profiles#martinHaeuer -->
<g id="edge37" class="edge">
<title>http://w3id.org/oseg/ont/otrl&#45;&gt;http://w3id.org/oseg/ont/oseg&#45;profiles#martinHaeuer</title>
<path fill="none" stroke="black" d="M1154.1,-1219.91C1154.24,-1219.73 1154.39,-1219.54 1154.53,-1219.36"/>
<polygon fill="black" stroke="black" points="1157.56,-1221.14 1160.5,-1210.96 1151.86,-1217.08 1157.56,-1221.14"/>
<text text-anchor="middle" x="1211.81" y="-1223.43" font-family="Times,serif" font-size="14.00">dcterms:creator</text>
</g>
<!-- http://w3id.org/oseg/ont/otrl&#45;&gt;http://w3id.org/oseg/ont/oseg&#45;profiles#martinHaeuer -->
<g id="edge40" class="edge">
<title>http://w3id.org/oseg/ont/otrl&#45;&gt;http://w3id.org/oseg/ont/oseg&#45;profiles#martinHaeuer</title>
<path fill="none" stroke="black" d="M1138.4,-1218.88C1138.46,-1218.8 1138.51,-1218.71 1138.56,-1218.63"/>
<polygon fill="black" stroke="black" points="1141.3,-1220.81 1144.22,-1210.63 1135.59,-1216.77 1141.3,-1220.81"/>
<text text-anchor="middle" x="1193.98" y="-1207.55" font-family="Times,serif" font-size="14.00">schema:creator</text>
</g>
<!-- http://w3id.org/oseg/ont/1.1.0/otrl -->
<g id="node26" class="node">
<title>http://w3id.org/oseg/ont/1.1.0/otrl</title>
<ellipse fill="none" stroke="#e377c2" cx="1095.22" cy="-1095.95" rx="50.82" ry="16.03"/>
<text text-anchor="middle" x="1095.22" y="-1092.25" font-family="Times,serif" font-size="14.00">ns2:otrl</text>
</g>
<!-- http://w3id.org/oseg/ont/otrl&#45;&gt;http://w3id.org/oseg/ont/1.1.0/otrl -->
<g id="edge39" class="edge">
<title>http://w3id.org/oseg/ont/otrl&#45;&gt;http://w3id.org/oseg/ont/1.1.0/otrl</title>
<path fill="none" stroke="black" d="M1129.19,-1218.93C1122.62,-1195.16 1110.33,-1150.66 1102.47,-1122.21"/>
<polygon fill="black" stroke="black" points="1105.83,-1121.23 1099.79,-1112.52 1099.08,-1123.09 1105.83,-1121.23"/>
<text text-anchor="middle" x="1064.33" y="-1159.37" font-family="Times,serif" font-size="14.00">owl:versionIRI</text>
</g>
<!-- http://id.loc.gov/vocabulary/iso639&#45;1/en -->
<g id="node27" class="node">
<title>http://id.loc.gov/vocabulary/iso639&#45;1/en</title>
<ellipse fill="none" stroke="#e377c2" cx="995.37" cy="-1210.37" rx="45.01" ry="16.03"/>
<text text-anchor="middle" x="995.37" y="-1206.67" font-family="Times,serif" font-size="14.00">ns3:en</text>
</g>
<!-- http://w3id.org/oseg/ont/otrl&#45;&gt;http://id.loc.gov/vocabulary/iso639&#45;1/en -->
<g id="edge41" class="edge">
<title>http://w3id.org/oseg/ont/otrl&#45;&gt;http://id.loc.gov/vocabulary/iso639&#45;1/en</title>
<path fill="none" stroke="black" d="M1089.15,-1227.19C1075.43,-1224.73 1060.21,-1222 1046.1,-1219.47"/>
<polygon fill="black" stroke="black" points="1046.52,-1215.99 1036.06,-1217.67 1045.28,-1222.88 1046.52,-1215.99"/>
<text text-anchor="middle" x="1003.13" y="-1227.13" font-family="Times,serif" font-size="14.00">dcterms:language</text>
</g>
<!-- http://w3id.org/oseg/ont/otrl#ODRL3Star -->
<g id="node16" class="node">
<title>http://w3id.org/oseg/ont/otrl#ODRL3Star</title>
<ellipse fill="none" stroke="#e377c2" cx="617.88" cy="-740.96" rx="90.52" ry="16.03"/>
<text text-anchor="middle" x="617.88" y="-737.26" font-family="Times,serif" font-size="14.00">otrl:ODRL3Star</text>
</g>
<!-- http://w3id.org/oseg/ont/otrl#ODRL3Star&#45;&gt;http://w3id.org/oseg/ont/otrl#ODRL -->
<g id="edge18" class="edge">
<title>http://w3id.org/oseg/ont/otrl#ODRL3Star&#45;&gt;http://w3id.org/oseg/ont/otrl#ODRL</title>
<path fill="none" stroke="black" d="M639.94,-725.12C686.37,-691.78 794.19,-614.35 846.76,-576.61"/>
<polygon fill="black" stroke="black" points="848.92,-579.36 855,-570.68 844.84,-573.67 848.92,-579.36"/>
<text text-anchor="middle" x="738.85" y="-654.66" font-family="Times,serif" font-size="14.00">a</text>
</g>
<!-- http://w3id.org/oseg/ont/otrl#OTRL4 -->
<g id="node17" class="node">
<title>http://w3id.org/oseg/ont/otrl#OTRL4</title>
<ellipse fill="none" stroke="#e377c2" cx="1595.35" cy="-888.16" rx="67.35" ry="16.03"/>
<text text-anchor="middle" x="1595.35" y="-884.46" font-family="Times,serif" font-size="14.00">otrl:OTRL4</text>
</g>
<!-- http://w3id.org/oseg/ont/otrl#OTRL4&#45;&gt;http://w3id.org/oseg/ont/otrl#OTRL -->
<g id="edge24" class="edge">
<title>http://w3id.org/oseg/ont/otrl#OTRL4&#45;&gt;http://w3id.org/oseg/ont/otrl#OTRL</title>
<path fill="none" stroke="black" d="M1584.85,-871.84C1558.59,-830.98 1489.88,-724.11 1458.6,-675.45"/>
<polygon fill="black" stroke="black" points="1461.39,-673.32 1453.04,-666.8 1455.5,-677.1 1461.39,-673.32"/>
<text text-anchor="middle" x="1517.23" y="-777.44" font-family="Times,serif" font-size="14.00">a</text>
</g>
<!-- http://w3id.org/oseg/ont/otrl#ODRL4&#45;&gt;http://w3id.org/oseg/ont/otrl#ODRL -->
<g id="edge35" class="edge">
<title>http://w3id.org/oseg/ont/otrl#ODRL4&#45;&gt;http://w3id.org/oseg/ont/otrl#ODRL</title>
<path fill="none" stroke="black" d="M820.57,-298.66C830.51,-344.12 858.68,-472.96 870.88,-528.8"/>
<polygon fill="black" stroke="black" points="867.48,-529.62 873.04,-538.64 874.32,-528.12 867.48,-529.62"/>
<text text-anchor="middle" x="841.23" y="-402.53" font-family="Times,serif" font-size="14.00">a</text>
</g>
<!-- http://w3id.org/oseg/ont/otrl#ODRL3 -->
<g id="node23" class="node">
<title>http://w3id.org/oseg/ont/otrl#ODRL3</title>
<ellipse fill="none" stroke="#e377c2" cx="715.04" cy="-470.12" rx="69.09" ry="16.03"/>
<text text-anchor="middle" x="715.04" y="-466.42" font-family="Times,serif" font-size="14.00">otrl:ODRL3</text>
</g>
<!-- http://w3id.org/oseg/ont/otrl#ODRL3&#45;&gt;http://w3id.org/oseg/ont/otrl#ODRL -->
<g id="edge32" class="edge">
<title>http://w3id.org/oseg/ont/otrl#ODRL3&#45;&gt;http://w3id.org/oseg/ont/otrl#ODRL</title>
<path fill="none" stroke="black" d="M743.56,-485.13C770.3,-499.19 810.42,-520.3 839.62,-535.66"/>
<polygon fill="black" stroke="black" points="838.2,-538.87 848.68,-540.43 841.46,-532.68 838.2,-538.87"/>
<text text-anchor="middle" x="787.09" y="-514.2" font-family="Times,serif" font-size="14.00">a</text>
</g>
<!-- http://w3id.org/oseg/ont/otrl#ODRL1 -->
<g id="node24" class="node">
<title>http://w3id.org/oseg/ont/otrl#ODRL1</title>
<ellipse fill="none" stroke="#e377c2" cx="576.64" cy="-513.59" rx="69.09" ry="16.03"/>
<text text-anchor="middle" x="576.64" y="-509.89" font-family="Times,serif" font-size="14.00">otrl:ODRL1</text>
</g>
<!-- http://w3id.org/oseg/ont/otrl#ODRL1&#45;&gt;http://w3id.org/oseg/ont/otrl#ODRL -->
<g id="edge34" class="edge">
<title>http://w3id.org/oseg/ont/otrl#ODRL1&#45;&gt;http://w3id.org/oseg/ont/otrl#ODRL</title>
<path fill="none" stroke="black" d="M636.63,-521.9C686.97,-528.87 758.76,-538.82 810.7,-546.01"/>
<polygon fill="black" stroke="black" points="810.43,-549.51 820.81,-547.41 811.39,-542.57 810.43,-549.51"/>
<text text-anchor="middle" x="719.17" y="-537.75" font-family="Times,serif" font-size="14.00">a</text>
</g>
<!-- http://w3id.org/oseg/ont/otrl#Odrl2 -->
<g id="node28" class="node">
<title>http://w3id.org/oseg/ont/otrl#Odrl2</title>
<ellipse fill="none" stroke="black" cx="786.8" cy="-852.03" rx="191.75" ry="16.03"/>
<text text-anchor="middle" x="786.8" y="-848.33" font-family="Times,serif" font-size="14.00">http://w3id.org/oseg/ont/otrl#Odrl2</text>
</g>
<!-- http://w3id.org/oseg/ont/otrl#Odrl2&#45;&gt;http://w3id.org/oseg/ont/otrl#ODRL2 -->
<g id="edge1" class="edge">
<title>http://w3id.org/oseg/ont/otrl#Odrl2&#45;&gt;http://w3id.org/oseg/ont/otrl#ODRL2</title>
<path fill="none" stroke="black" d="M781.76,-835.42C781.73,-835.33 781.7,-835.24 781.67,-835.14"/>
<polygon fill="black" stroke="black" points="785.3,-835.05 779.05,-826.49 778.6,-837.08 785.3,-835.05"/>
<text text-anchor="middle" x="701.72" y="-824.08" font-family="Times,serif" font-size="14.00">schema:supersededBy</text>
</g>
<!-- http://w3id.org/oseg/ont/otrl#Otrl3 -->
<g id="node29" class="node">
<title>http://w3id.org/oseg/ont/otrl#Otrl3</title>
<ellipse fill="none" stroke="black" cx="1065.98" cy="-808.09" rx="189.51" ry="16.03"/>
<text text-anchor="middle" x="1065.98" y="-804.39" font-family="Times,serif" font-size="14.00">http://w3id.org/oseg/ont/otrl#Otrl3</text>
</g>
<!-- http://w3id.org/oseg/ont/otrl#Otrl3&#45;&gt;http://w3id.org/oseg/ont/otrl#OTRL3 -->
<g id="edge2" class="edge">
<title>http://w3id.org/oseg/ont/otrl#Otrl3&#45;&gt;http://w3id.org/oseg/ont/otrl#OTRL3</title>
<path fill="none" stroke="black" d="M1097.33,-791.92C1109.83,-785.48 1124.33,-778 1137.42,-771.26"/>
<polygon fill="black" stroke="black" points="1139.37,-774.19 1146.65,-766.5 1136.16,-767.97 1139.37,-774.19"/>
<text text-anchor="middle" x="1037.38" y="-770.39" font-family="Times,serif" font-size="14.00">schema:supersededBy</text>
</g>
<!-- http://w3id.org/oseg/ont/otrl#Otrl -->
<g id="node30" class="node">
<title>http://w3id.org/oseg/ont/otrl#Otrl</title>
<ellipse fill="none" stroke="black" cx="1516.87" cy="-604.31" rx="183.28" ry="16.03"/>
<text text-anchor="middle" x="1516.87" y="-600.61" font-family="Times,serif" font-size="14.00">http://w3id.org/oseg/ont/otrl#Otrl</text>
</g>
<!-- http://w3id.org/oseg/ont/otrl#Otrl&#45;&gt;http://w3id.org/oseg/ont/otrl#OTRL -->
<g id="edge5" class="edge">
<title>http://w3id.org/oseg/ont/otrl#Otrl&#45;&gt;http://w3id.org/oseg/ont/otrl#OTRL</title>
<path fill="none" stroke="black" d="M1490.92,-620.53C1485.89,-623.67 1480.55,-627.01 1475.34,-630.27"/>
<polygon fill="black" stroke="black" points="1473.37,-627.37 1466.74,-635.64 1477.08,-633.3 1473.37,-627.37"/>
<text text-anchor="middle" x="1563.13" y="-629.2" font-family="Times,serif" font-size="14.00">schema:supersededBy</text>
</g>
<!-- http://w3id.org/oseg/ont/otrl#Odrl5 -->
<g id="node31" class="node">
<title>http://w3id.org/oseg/ont/otrl#Odrl5</title>
<ellipse fill="none" stroke="black" cx="799.65" cy="-16.32" rx="191.75" ry="16.03"/>
<text text-anchor="middle" x="799.65" y="-12.62" font-family="Times,serif" font-size="14.00">http://w3id.org/oseg/ont/otrl#Odrl5</text>
</g>
<!-- http://w3id.org/oseg/ont/otrl#Odrl5&#45;&gt;http://w3id.org/oseg/ont/otrl#Odrl4 -->
<g id="edge8" class="edge">
<title>http://w3id.org/oseg/ont/otrl#Odrl5&#45;&gt;http://w3id.org/oseg/ont/otrl#Odrl4</title>
<path fill="none" stroke="black" d="M802.9,-32.94C802.92,-33.03 802.94,-33.13 802.96,-33.22"/>
<polygon fill="black" stroke="black" points="799.29,-32.74 804.65,-41.88 806.16,-31.39 799.29,-32.74"/>
<text text-anchor="middle" x="722.93" y="-36.88" font-family="Times,serif" font-size="14.00">schema:supersededBy</text>
</g>
<!-- http://w3id.org/oseg/ont/otrl#Otrl5 -->
<g id="node32" class="node">
<title>http://w3id.org/oseg/ont/otrl#Otrl5</title>
<ellipse fill="none" stroke="black" cx="1965.01" cy="-222.46" rx="189.51" ry="16.03"/>
<text text-anchor="middle" x="1965.01" y="-218.76" font-family="Times,serif" font-size="14.00">http://w3id.org/oseg/ont/otrl#Otrl5</text>
</g>
<!-- http://w3id.org/oseg/ont/otrl#Otrl5&#45;&gt;http://w3id.org/oseg/ont/otrl#OTRL5 -->
<g id="edge9" class="edge">
<title>http://w3id.org/oseg/ont/otrl#Otrl5&#45;&gt;http://w3id.org/oseg/ont/otrl#OTRL5</title>
<path fill="none" stroke="black" d="M1944.53,-238.74C1892.27,-280.29 1753.98,-390.24 1694.64,-437.41"/>
<polygon fill="black" stroke="black" points="1692.46,-434.67 1686.81,-443.64 1696.81,-440.15 1692.46,-434.67"/>
<text text-anchor="middle" x="1739.58" y="-341.88" font-family="Times,serif" font-size="14.00">schema:supersededBy</text>
</g>
<!-- http://w3id.org/oseg/ont/otrl#Otrl2 -->
<g id="node33" class="node">
<title>http://w3id.org/oseg/ont/otrl#Otrl2</title>
<ellipse fill="none" stroke="black" cx="1443.73" cy="-764.87" rx="189.51" ry="16.03"/>
<text text-anchor="middle" x="1443.73" y="-761.17" font-family="Times,serif" font-size="14.00">http://w3id.org/oseg/ont/otrl#Otrl2</text>
</g>
<!-- http://w3id.org/oseg/ont/otrl#Otrl2&#45;&gt;http://w3id.org/oseg/ont/otrl#OTRL2 -->
<g id="edge10" class="edge">
<title>http://w3id.org/oseg/ont/otrl#Otrl2&#45;&gt;http://w3id.org/oseg/ont/otrl#OTRL2</title>
<path fill="none" stroke="black" d="M1407.42,-748.86C1398.12,-744.76 1388.04,-740.32 1378.49,-736.11"/>
<polygon fill="black" stroke="black" points="1379.71,-732.82 1369.15,-731.99 1376.89,-739.23 1379.71,-732.82"/>
<text text-anchor="middle" x="1472.95" y="-731.29" font-family="Times,serif" font-size="14.00">schema:supersededBy</text>
</g>
<!-- http://w3id.org/oseg/ont/otrl#Odrl3Star -->
<g id="node34" class="node">
<title>http://w3id.org/oseg/ont/otrl#Odrl3Star</title>
<ellipse fill="none" stroke="black" cx="274.89" cy="-1009.56" rx="213.59" ry="16.03"/>
<text text-anchor="middle" x="274.89" y="-1005.86" font-family="Times,serif" font-size="14.00">http://w3id.org/oseg/ont/otrl#Odrl3Star</text>
</g>
<!-- http://w3id.org/oseg/ont/otrl#Odrl3Star&#45;&gt;http://w3id.org/oseg/ont/otrl#ODRL3Star -->
<g id="edge14" class="edge">
<title>http://w3id.org/oseg/ont/otrl#Odrl3Star&#45;&gt;http://w3id.org/oseg/ont/otrl#ODRL3Star</title>
<path fill="none" stroke="black" d="M295.57,-993.37C354.33,-947.36 522.3,-815.81 589.54,-763.15"/>
<polygon fill="black" stroke="black" points="591.89,-765.76 597.6,-756.84 587.57,-760.25 591.89,-765.76"/>
<text text-anchor="middle" x="362.56" y="-882.06" font-family="Times,serif" font-size="14.00">schema:supersededBy</text>
</g>
<!-- http://w3id.org/oseg/ont/otrl#Odrl -->
<g id="node35" class="node">
<title>http://w3id.org/oseg/ont/otrl#Odrl</title>
<ellipse fill="none" stroke="black" cx="482.54" cy="-632.01" rx="185.02" ry="16.03"/>
<text text-anchor="middle" x="482.54" y="-628.31" font-family="Times,serif" font-size="14.00">http://w3id.org/oseg/ont/otrl#Odrl</text>
</g>
<!-- http://w3id.org/oseg/ont/otrl#Odrl&#45;&gt;http://w3id.org/oseg/ont/otrl#ODRL -->
<g id="edge19" class="edge">
<title>http://w3id.org/oseg/ont/otrl#Odrl&#45;&gt;http://w3id.org/oseg/ont/otrl#ODRL</title>
<path fill="none" stroke="black" d="M558.99,-617.09C634.2,-602.43 747.49,-580.33 816.49,-566.88"/>
<polygon fill="black" stroke="black" points="817.2,-570.3 826.34,-564.95 815.86,-563.43 817.2,-570.3"/>
<text text-anchor="middle" x="607.74" y="-595.79" font-family="Times,serif" font-size="14.00">schema:supersededBy</text>
</g>
<!-- http://w3id.org/oseg/ont/otrl#Otrl1 -->
<g id="node36" class="node">
<title>http://w3id.org/oseg/ont/otrl#Otrl1</title>
<ellipse fill="none" stroke="black" cx="2079.59" cy="-825.08" rx="189.51" ry="16.03"/>
<text text-anchor="middle" x="2079.59" y="-821.38" font-family="Times,serif" font-size="14.00">http://w3id.org/oseg/ont/otrl#Otrl1</text>
</g>
<!-- http://w3id.org/oseg/ont/otrl#Otrl1&#45;&gt;http://w3id.org/oseg/ont/otrl#OTRL1 -->
<g id="edge20" class="edge">
<title>http://w3id.org/oseg/ont/otrl#Otrl1&#45;&gt;http://w3id.org/oseg/ont/otrl#OTRL1</title>
<path fill="none" stroke="black" d="M2045.99,-808.99C1981.62,-778.18 1841.23,-710.98 1772.25,-677.96"/>
<polygon fill="black" stroke="black" points="1773.54,-674.7 1763.01,-673.54 1770.52,-681.01 1773.54,-674.7"/>
<text text-anchor="middle" x="1829.12" y="-747.28" font-family="Times,serif" font-size="14.00">schema:supersededBy</text>
</g>
<!-- http://w3id.org/oseg/ont/otrl#Otrl4 -->
<g id="node37" class="node">
<title>http://w3id.org/oseg/ont/otrl#Otrl4</title>
<ellipse fill="none" stroke="black" cx="1804.99" cy="-1216.62" rx="189.51" ry="16.03"/>
<text text-anchor="middle" x="1804.99" y="-1212.92" font-family="Times,serif" font-size="14.00">http://w3id.org/oseg/ont/otrl#Otrl4</text>
</g>
<!-- http://w3id.org/oseg/ont/otrl#Otrl4&#45;&gt;http://w3id.org/oseg/ont/otrl#OTRL4 -->
<g id="edge21" class="edge">
<title>http://w3id.org/oseg/ont/otrl#Otrl4&#45;&gt;http://w3id.org/oseg/ont/otrl#OTRL4</title>
<path fill="none" stroke="black" d="M1794.59,-1200.33C1760.57,-1147.03 1652.41,-977.57 1611.36,-913.25"/>
<polygon fill="black" stroke="black" points="1614.13,-911.09 1605.8,-904.55 1608.23,-914.86 1614.13,-911.09"/>
<text text-anchor="middle" x="1622.97" y="-1060.59" font-family="Times,serif" font-size="14.00">schema:supersededBy</text>
</g>
<!-- http://w3id.org/oseg/ont/otrl#Odrl3 -->
<g id="node38" class="node">
<title>http://w3id.org/oseg/ont/otrl#Odrl3</title>
<ellipse fill="none" stroke="black" cx="666.45" cy="-427.66" rx="191.75" ry="16.03"/>
<text text-anchor="middle" x="666.45" y="-423.96" font-family="Times,serif" font-size="14.00">http://w3id.org/oseg/ont/otrl#Odrl3</text>
</g>
<!-- http://w3id.org/oseg/ont/otrl#Odrl3&#45;&gt;http://w3id.org/oseg/ont/otrl#ODRL3 -->
<g id="edge30" class="edge">
<title>http://w3id.org/oseg/ont/otrl#Odrl3&#45;&gt;http://w3id.org/oseg/ont/otrl#ODRL3</title>
<path fill="none" stroke="black" d="M685.1,-443.96C686.42,-445.12 687.77,-446.29 689.13,-447.48"/>
<polygon fill="black" stroke="black" points="687.01,-450.28 696.84,-454.22 691.62,-445.01 687.01,-450.28"/>
<text text-anchor="middle" x="607.11" y="-449.52" font-family="Times,serif" font-size="14.00">schema:supersededBy</text>
</g>
<!-- http://w3id.org/oseg/ont/otrl#Otrl6 -->
<g id="node39" class="node">
<title>http://w3id.org/oseg/ont/otrl#Otrl6</title>
<ellipse fill="none" stroke="black" cx="2101.8" cy="-672.8" rx="189.51" ry="16.03"/>
<text text-anchor="middle" x="2101.8" y="-669.1" font-family="Times,serif" font-size="14.00">http://w3id.org/oseg/ont/otrl#Otrl6</text>
</g>
<!-- http://w3id.org/oseg/ont/otrl#Otrl6&#45;&gt;http://w3id.org/oseg/ont/otrl#OTRL6 -->
<g id="edge38" class="edge">
<title>http://w3id.org/oseg/ont/otrl#Otrl6&#45;&gt;http://w3id.org/oseg/ont/otrl#OTRL6</title>
<path fill="none" stroke="black" d="M2000.22,-686.62C1933.54,-695.69 1848.14,-707.31 1789.41,-715.3"/>
<polygon fill="black" stroke="black" points="1788.93,-711.84 1779.5,-716.65 1789.88,-718.77 1788.93,-711.84"/>
<text text-anchor="middle" x="1814.81" y="-689.76" font-family="Times,serif" font-size="14.00">schema:supersededBy</text>
</g>
<!-- http://w3id.org/oseg/ont/otrl#Odrl1 -->
<g id="node40" class="node">
<title>http://w3id.org/oseg/ont/otrl#Odrl1</title>
<ellipse fill="none" stroke="black" cx="191.78" cy="-446.81" rx="191.75" ry="16.03"/>
<text text-anchor="middle" x="191.78" y="-443.11" font-family="Times,serif" font-size="14.00">http://w3id.org/oseg/ont/otrl#Odrl1</text>
</g>
<!-- http://w3id.org/oseg/ont/otrl#Odrl1&#45;&gt;http://w3id.org/oseg/ont/otrl#ODRL1 -->
<g id="edge43" class="edge">
<title>http://w3id.org/oseg/ont/otrl#Odrl1&#45;&gt;http://w3id.org/oseg/ont/otrl#ODRL1</title>
<path fill="none" stroke="black" d="M276.24,-461.47C346.81,-473.71 446.03,-490.93 510.82,-502.17"/>
<polygon fill="black" stroke="black" points="510.46,-505.66 520.91,-503.92 511.66,-498.76 510.46,-505.66"/>
<text text-anchor="middle" x="313.53" y="-485.62" font-family="Times,serif" font-size="14.00">schema:supersededBy</text>
</g>
</g>
</svg>
