<?xml version="1.0" encoding="UTF-8" standalone="no"?>
<!DOCTYPE svg PUBLIC "-//W3C//DTD SVG 1.1//EN"
 "http://www.w3.org/Graphics/SVG/1.1/DTD/svg11.dtd">
<!-- Generated by graphviz version 2.43.0 (0)
 -->
<!-- Title: G Pages: 1 -->
<svg width="1713pt" height="948pt"
 viewBox="0.00 0.00 1713.00 948.00" xmlns="http://www.w3.org/2000/svg" xmlns:xlink="http://www.w3.org/1999/xlink">
<g id="graph0" class="graph" transform="scale(1 1) rotate(0) translate(4 944)">
<title>G</title>
<polygon fill="white" stroke="transparent" points="-4,4 -4,-944 1709,-944 1709,4 -4,4"/>
<!-- http://www.w3.org/2004/02/skos/core#Collection -->
<g id="node1" class="node">
<title>http://www.w3.org/2004/02/skos/core#Collection</title>
<ellipse fill="none" stroke="#e377c2" cx="734.91" cy="-15.76" rx="87.86" ry="16.03"/>
<text text-anchor="middle" x="734.91" y="-12.06" font-family="Times,serif" font-size="14.00">skos:Collection</text>
</g>
<!-- http://www.w3.org/2002/07/owl#Ontology -->
<g id="node2" class="node">
<title>http://www.w3.org/2002/07/owl#Ontology</title>
<ellipse fill="none" stroke="#1f77b4" cx="1235.49" cy="-610.66" rx="77.56" ry="16.03"/>
<text text-anchor="middle" x="1235.49" y="-606.96" font-family="Times,serif" font-size="14.00">owl:Ontology</text>
</g>
<!-- https://w3id.org/oseg/ont/okhmeta#MetaTag -->
<g id="node3" class="node">
<title>https://w3id.org/oseg/ont/okhmeta#MetaTag</title>
<ellipse fill="none" stroke="#e377c2" cx="580.22" cy="-422.93" rx="102.56" ry="16.03"/>
<text text-anchor="middle" x="580.22" y="-419.23" font-family="Times,serif" font-size="14.00">okhmeta:MetaTag</text>
</g>
<!-- https://w3id.org/oseg/ont/okhmeta#MetaTag&#45;&gt;https://w3id.org/oseg/ont/okhmeta#MetaTag -->
<g id="edge39" class="edge">
<title>https://w3id.org/oseg/ont/okhmeta#MetaTag&#45;&gt;https://w3id.org/oseg/ont/okhmeta#MetaTag</title>
<path fill="none" stroke="black" d="M675.21,-429.14C690.37,-428.23 700.75,-426.16 700.75,-422.93 700.75,-420.48 694.79,-418.69 685.3,-417.58"/>
<polygon fill="black" stroke="black" points="685.47,-414.08 675.21,-416.71 684.87,-421.05 685.47,-414.08"/>
<text text-anchor="middle" x="777.75" y="-419.23" font-family="Times,serif" font-size="14.00">okhmeta:hasMetaTag</text>
</g>
<!-- https://w3id.org/oseg/ont/okhmeta#Tag -->
<g id="node5" class="node">
<title>https://w3id.org/oseg/ont/okhmeta#Tag</title>
<ellipse fill="none" stroke="#e377c2" cx="491.06" cy="-376.93" rx="76.24" ry="16.03"/>
<text text-anchor="middle" x="491.06" y="-373.23" font-family="Times,serif" font-size="14.00">okhmeta:Tag</text>
</g>
<!-- https://w3id.org/oseg/ont/okhmeta#MetaTag&#45;&gt;https://w3id.org/oseg/ont/okhmeta#Tag -->
<g id="edge45" class="edge">
<title>https://w3id.org/oseg/ont/okhmeta#MetaTag&#45;&gt;https://w3id.org/oseg/ont/okhmeta#Tag</title>
<path fill="none" stroke="black" d="M561.77,-406.84C555.71,-403.11 548.68,-399.14 541.44,-395.34"/>
<polygon fill="black" stroke="black" points="542.71,-392.06 532.21,-390.63 539.53,-398.29 542.71,-392.06"/>
<text text-anchor="middle" x="547.1" y="-389.89" font-family="Times,serif" font-size="14.00">a</text>
</g>
<!-- http://www.w3.org/2004/02/skos/core#Concept -->
<g id="node4" class="node">
<title>http://www.w3.org/2004/02/skos/core#Concept</title>
<ellipse fill="none" stroke="#1f77b4" cx="869.38" cy="-359.03" rx="78.48" ry="16.03"/>
<text text-anchor="middle" x="869.38" y="-355.33" font-family="Times,serif" font-size="14.00">skos:Concept</text>
</g>
<!-- https://w3id.org/oseg/ont/okhmeta#Tag&#45;&gt;http://www.w3.org/2004/02/skos/core#Collection -->
<g id="edge11" class="edge">
<title>https://w3id.org/oseg/ont/okhmeta#Tag&#45;&gt;http://www.w3.org/2004/02/skos/core#Collection</title>
<path fill="none" stroke="black" d="M502.17,-360.47C541.14,-302.76 671.74,-109.33 718.27,-40.41"/>
<polygon fill="black" stroke="black" points="721.32,-42.15 724.02,-31.9 715.52,-38.23 721.32,-42.15"/>
</g>
<!-- https://w3id.org/oseg/ont/okhmeta#Tag&#45;&gt;https://w3id.org/oseg/ont/okhmeta#MetaTag -->
<g id="edge48" class="edge">
<title>https://w3id.org/oseg/ont/okhmeta#Tag&#45;&gt;https://w3id.org/oseg/ont/okhmeta#MetaTag</title>
<path fill="none" stroke="black" d="M509.08,-392.75C514.65,-396.2 521.07,-399.86 527.74,-403.41"/>
<polygon fill="black" stroke="black" points="526.44,-406.67 536.93,-408.15 529.65,-400.45 526.44,-406.67"/>
<text text-anchor="middle" x="441.41" y="-401.88" font-family="Times,serif" font-size="14.00">okhmeta:hasMetaTag</text>
</g>
<!-- https://w3id.org/oseg/ont/okhmeta#Tag&#45;&gt;http://www.w3.org/2004/02/skos/core#Concept -->
<g id="edge6" class="edge">
<title>https://w3id.org/oseg/ont/okhmeta#Tag&#45;&gt;http://www.w3.org/2004/02/skos/core#Concept</title>
<path fill="none" stroke="black" d="M565.8,-373.39C628.15,-370.44 717.05,-366.24 782.54,-363.14"/>
<polygon fill="black" stroke="black" points="783.02,-366.62 792.84,-362.65 782.69,-359.63 783.02,-366.62"/>
<text text-anchor="middle" x="669.67" y="-372.06" font-family="Times,serif" font-size="14.00">a</text>
</g>
<!-- http://www.w3.org/2002/07/owl#ObjectProperty -->
<g id="node6" class="node">
<title>http://www.w3.org/2002/07/owl#ObjectProperty</title>
<ellipse fill="none" stroke="#1f77b4" cx="1586.92" cy="-552.38" rx="109.7" ry="16.03"/>
<text text-anchor="middle" x="1586.92" y="-548.68" font-family="Times,serif" font-size="14.00">owl:ObjectProperty</text>
</g>
<!-- http://spdx.org/rdf/terms#File -->
<g id="node7" class="node">
<title>http://spdx.org/rdf/terms#File</title>
<ellipse fill="none" stroke="#1f77b4" cx="1643.03" cy="-703.98" rx="62.45" ry="16.03"/>
<text text-anchor="middle" x="1643.03" y="-700.28" font-family="Times,serif" font-size="14.00">spdxt:File</text>
</g>
<!-- http://www.w3.org/2004/02/skos/core#member -->
<g id="node8" class="node">
<title>http://www.w3.org/2004/02/skos/core#member</title>
<ellipse fill="none" stroke="#e377c2" cx="1550.97" cy="-281.63" rx="79.39" ry="16.03"/>
<text text-anchor="middle" x="1550.97" y="-277.93" font-family="Times,serif" font-size="14.00">skos:member</text>
</g>
<!-- https://w3id.org/oseg/ont/1.1.0/okh&#45;meta -->
<g id="node9" class="node">
<title>https://w3id.org/oseg/ont/1.1.0/okh&#45;meta</title>
<ellipse fill="none" stroke="#e377c2" cx="1309.47" cy="-680.05" rx="79.81" ry="16.03"/>
<text text-anchor="middle" x="1309.47" y="-676.35" font-family="Times,serif" font-size="14.00">ns1:okh&#45;meta</text>
</g>
<!-- https://w3id.org/oseg/ont/okhmeta#QualityTag -->
<g id="node10" class="node">
<title>https://w3id.org/oseg/ont/okhmeta#QualityTag</title>
<ellipse fill="none" stroke="#e377c2" cx="351.19" cy="-66.68" rx="113.27" ry="16.03"/>
<text text-anchor="middle" x="351.19" y="-62.98" font-family="Times,serif" font-size="14.00">okhmeta:QualityTag</text>
</g>
<!-- https://w3id.org/oseg/ont/okhmeta#QualityTag&#45;&gt;https://w3id.org/oseg/ont/okhmeta#MetaTag -->
<g id="edge31" class="edge">
<title>https://w3id.org/oseg/ont/okhmeta#QualityTag&#45;&gt;https://w3id.org/oseg/ont/okhmeta#MetaTag</title>
<path fill="none" stroke="black" d="M361.62,-82.92C398.14,-139.71 520.32,-329.76 564.29,-398.15"/>
<polygon fill="black" stroke="black" points="561.37,-400.08 569.72,-406.6 567.26,-396.3 561.37,-400.08"/>
<text text-anchor="middle" x="539.95" y="-244.33" font-family="Times,serif" font-size="14.00">okhmeta:hasMetaTag</text>
</g>
<!-- https://w3id.org/oseg/ont/okhmeta#QualityTag&#45;&gt;https://w3id.org/oseg/ont/okhmeta#Tag -->
<g id="edge2" class="edge">
<title>https://w3id.org/oseg/ont/okhmeta#QualityTag&#45;&gt;https://w3id.org/oseg/ont/okhmeta#Tag</title>
<path fill="none" stroke="black" d="M358.51,-82.93C381.35,-133.59 451.44,-289.04 479.38,-351.02"/>
<polygon fill="black" stroke="black" points="476.34,-352.79 483.64,-360.47 482.72,-349.92 476.34,-352.79"/>
<text text-anchor="middle" x="414.45" y="-220.77" font-family="Times,serif" font-size="14.00">a</text>
</g>
<!-- https://w3id.org/oseg/ont/okhmeta#AcademicTag -->
<g id="node11" class="node">
<title>https://w3id.org/oseg/ont/okhmeta#AcademicTag</title>
<ellipse fill="none" stroke="#e377c2" cx="633.43" cy="-65.05" rx="124.4" ry="16.03"/>
<text text-anchor="middle" x="633.43" y="-61.35" font-family="Times,serif" font-size="14.00">okhmeta:AcademicTag</text>
</g>
<!-- https://w3id.org/oseg/ont/okhmeta#AcademicTag&#45;&gt;https://w3id.org/oseg/ont/okhmeta#MetaTag -->
<g id="edge34" class="edge">
<title>https://w3id.org/oseg/ont/okhmeta#AcademicTag&#45;&gt;https://w3id.org/oseg/ont/okhmeta#MetaTag</title>
<path fill="none" stroke="black" d="M631,-81.36C622.59,-137.95 594.6,-326.23 584.17,-396.33"/>
<polygon fill="black" stroke="black" points="580.67,-396.12 582.66,-406.53 587.59,-397.15 580.67,-396.12"/>
<text text-anchor="middle" x="530.59" y="-227.64" font-family="Times,serif" font-size="14.00">okhmeta:hasMetaTag</text>
</g>
<!-- https://w3id.org/oseg/ont/okhmeta#AcademicTag&#45;&gt;https://w3id.org/oseg/ont/okhmeta#Tag -->
<g id="edge4" class="edge">
<title>https://w3id.org/oseg/ont/okhmeta#AcademicTag&#45;&gt;https://w3id.org/oseg/ont/okhmeta#Tag</title>
<path fill="none" stroke="black" d="M625.97,-81.38C602.68,-132.42 531.1,-289.22 502.77,-351.27"/>
<polygon fill="black" stroke="black" points="499.58,-349.83 498.61,-360.38 505.95,-352.74 499.58,-349.83"/>
<text text-anchor="middle" x="559.87" y="-205.12" font-family="Times,serif" font-size="14.00">a</text>
</g>
<!-- https://w3id.org/oseg/ont/okhmeta#ExtendedInfoTag -->
<g id="node12" class="node">
<title>https://w3id.org/oseg/ont/okhmeta#ExtendedInfoTag</title>
<ellipse fill="none" stroke="#e377c2" cx="241.72" cy="-117.02" rx="120.42" ry="16.03"/>
<text text-anchor="middle" x="241.72" y="-113.32" font-family="Times,serif" font-size="14.00">okhmeta:ExtendedI...</text>
</g>
<!-- https://w3id.org/oseg/ont/okhmeta#ExtendedInfoTag&#45;&gt;https://w3id.org/oseg/ont/okhmeta#MetaTag -->
<g id="edge35" class="edge">
<title>https://w3id.org/oseg/ont/okhmeta#ExtendedInfoTag&#45;&gt;https://w3id.org/oseg/ont/okhmeta#MetaTag</title>
<path fill="none" stroke="black" d="M259.92,-133.46C316.42,-184.52 488.92,-340.42 554.53,-399.71"/>
<polygon fill="black" stroke="black" points="552.57,-402.66 562.34,-406.77 557.27,-397.47 552.57,-402.66"/>
<text text-anchor="middle" x="330.22" y="-270.39" font-family="Times,serif" font-size="14.00">okhmeta:hasMetaTag</text>
</g>
<!-- https://w3id.org/oseg/ont/okhmeta#ExtendedInfoTag&#45;&gt;https://w3id.org/oseg/ont/okhmeta#Tag -->
<g id="edge5" class="edge">
<title>https://w3id.org/oseg/ont/okhmeta#ExtendedInfoTag&#45;&gt;https://w3id.org/oseg/ont/okhmeta#Tag</title>
<path fill="none" stroke="black" d="M257.32,-133.28C299.91,-177.67 418.34,-301.12 468.33,-353.23"/>
<polygon fill="black" stroke="black" points="466.02,-355.88 475.47,-360.67 471.07,-351.04 466.02,-355.88"/>
<text text-anchor="middle" x="358.33" y="-247.06" font-family="Times,serif" font-size="14.00">a</text>
</g>
<!-- https://w3id.org/oseg/ont/okhmeta#DocumentationTag -->
<g id="node13" class="node">
<title>https://w3id.org/oseg/ont/okhmeta#DocumentationTag</title>
<ellipse fill="none" stroke="#e377c2" cx="124.91" cy="-329.99" rx="125.32" ry="16.03"/>
<text text-anchor="middle" x="124.91" y="-326.29" font-family="Times,serif" font-size="14.00">okhmeta:Documenta...</text>
</g>
<!-- https://w3id.org/oseg/ont/okhmeta#DocumentationTag&#45;&gt;https://w3id.org/oseg/ont/okhmeta#MetaTag -->
<g id="edge40" class="edge">
<title>https://w3id.org/oseg/ont/okhmeta#DocumentationTag&#45;&gt;https://w3id.org/oseg/ont/okhmeta#MetaTag</title>
<path fill="none" stroke="black" d="M192.58,-343.8C276.82,-361 420.14,-390.25 506.91,-407.97"/>
<polygon fill="black" stroke="black" points="506.45,-411.44 516.95,-410.01 507.85,-404.58 506.45,-411.44"/>
<text text-anchor="middle" x="272.75" y="-379.68" font-family="Times,serif" font-size="14.00">okhmeta:hasMetaTag</text>
</g>
<!-- https://w3id.org/oseg/ont/okhmeta#DocumentationTag&#45;&gt;https://w3id.org/oseg/ont/okhmeta#Tag -->
<g id="edge8" class="edge">
<title>https://w3id.org/oseg/ont/okhmeta#DocumentationTag&#45;&gt;https://w3id.org/oseg/ont/okhmeta#Tag</title>
<path fill="none" stroke="black" d="M214.01,-341.41C275.75,-349.32 357.04,-359.75 415.58,-367.25"/>
<polygon fill="black" stroke="black" points="415.14,-370.72 425.5,-368.52 416.03,-363.78 415.14,-370.72"/>
<text text-anchor="middle" x="310.3" y="-358.13" font-family="Times,serif" font-size="14.00">a</text>
</g>
<!-- https://w3id.org/oseg/ont/okhmeta#PartsTag -->
<g id="node14" class="node">
<title>https://w3id.org/oseg/ont/okhmeta#PartsTag</title>
<ellipse fill="none" stroke="#e377c2" cx="229.03" cy="-247.78" rx="103.48" ry="16.03"/>
<text text-anchor="middle" x="229.03" y="-244.08" font-family="Times,serif" font-size="14.00">okhmeta:PartsTag</text>
</g>
<!-- https://w3id.org/oseg/ont/okhmeta#PartsTag&#45;&gt;https://w3id.org/oseg/ont/okhmeta#MetaTag -->
<g id="edge23" class="edge">
<title>https://w3id.org/oseg/ont/okhmeta#PartsTag&#45;&gt;https://w3id.org/oseg/ont/okhmeta#MetaTag</title>
<path fill="none" stroke="black" d="M260.2,-263.33C323.98,-295.14 469.32,-367.62 540.06,-402.9"/>
<polygon fill="black" stroke="black" points="538.61,-406.09 549.12,-407.42 541.74,-399.83 538.61,-406.09"/>
<text text-anchor="middle" x="477.13" y="-336.91" font-family="Times,serif" font-size="14.00">okhmeta:hasMetaTag</text>
</g>
<!-- https://w3id.org/oseg/ont/okhmeta#PartsTag&#45;&gt;https://w3id.org/oseg/ont/okhmeta#Tag -->
<g id="edge26" class="edge">
<title>https://w3id.org/oseg/ont/okhmeta#PartsTag&#45;&gt;https://w3id.org/oseg/ont/okhmeta#Tag</title>
<path fill="none" stroke="black" d="M260.64,-263.36C308.44,-286.92 399.05,-331.58 451.28,-357.32"/>
<polygon fill="black" stroke="black" points="450.04,-360.61 460.56,-361.89 453.14,-354.33 450.04,-360.61"/>
<text text-anchor="middle" x="351.46" y="-314.14" font-family="Times,serif" font-size="14.00">a</text>
</g>
<!-- https://w3id.org/oseg/ont/okhmeta#TransportationTag -->
<g id="node15" class="node">
<title>https://w3id.org/oseg/ont/okhmeta#TransportationTag</title>
<ellipse fill="none" stroke="#e377c2" cx="210.34" cy="-578.73" rx="118.17" ry="16.03"/>
<text text-anchor="middle" x="210.34" y="-575.03" font-family="Times,serif" font-size="14.00">okhmeta:Transport...</text>
</g>
<!-- https://w3id.org/oseg/ont/okhmeta#TransportationTag&#45;&gt;https://w3id.org/oseg/ont/okhmeta#MetaTag -->
<g id="edge41" class="edge">
<title>https://w3id.org/oseg/ont/okhmeta#TransportationTag&#45;&gt;https://w3id.org/oseg/ont/okhmeta#MetaTag</title>
<path fill="none" stroke="black" d="M247.16,-563.22C315.1,-534.6 460,-473.57 534.26,-442.29"/>
<polygon fill="black" stroke="black" points="535.97,-445.37 543.82,-438.26 533.25,-438.92 535.97,-445.37"/>
<text text-anchor="middle" x="313.71" y="-506.55" font-family="Times,serif" font-size="14.00">okhmeta:hasMetaTag</text>
</g>
<!-- https://w3id.org/oseg/ont/okhmeta#TransportationTag&#45;&gt;https://w3id.org/oseg/ont/okhmeta#Tag -->
<g id="edge27" class="edge">
<title>https://w3id.org/oseg/ont/okhmeta#TransportationTag&#45;&gt;https://w3id.org/oseg/ont/okhmeta#Tag</title>
<path fill="none" stroke="black" d="M232.84,-562.56C283.08,-526.44 404.44,-439.2 461.05,-398.51"/>
<polygon fill="black" stroke="black" points="463.16,-401.3 469.23,-392.62 459.07,-395.61 463.16,-401.3"/>
<text text-anchor="middle" x="342.44" y="-484.33" font-family="Times,serif" font-size="14.00">a</text>
</g>
<!-- https://w3id.org/oseg/ont/oseg&#45;profiles#robinVobruba -->
<g id="node16" class="node">
<title>https://w3id.org/oseg/ont/oseg&#45;profiles#robinVobruba</title>
<ellipse fill="none" stroke="#e377c2" cx="1203.11" cy="-874.13" rx="113.69" ry="16.03"/>
<text text-anchor="middle" x="1203.11" y="-870.43" font-family="Times,serif" font-size="14.00">osegprof:robinVob...</text>
</g>
<!-- http://id.loc.gov/vocabulary/iso639&#45;1/en -->
<g id="node17" class="node">
<title>http://id.loc.gov/vocabulary/iso639&#45;1/en</title>
<ellipse fill="none" stroke="#e377c2" cx="1476.17" cy="-924.03" rx="45.01" ry="16.03"/>
<text text-anchor="middle" x="1476.17" y="-920.33" font-family="Times,serif" font-size="14.00">ns2:en</text>
</g>
<!-- https://w3id.org/oseg/ont/okhmeta#hasMetaTag -->
<g id="node18" class="node">
<title>https://w3id.org/oseg/ont/okhmeta#hasMetaTag</title>
<ellipse fill="none" stroke="#e377c2" cx="1166.63" cy="-413.78" rx="120.42" ry="16.03"/>
<text text-anchor="middle" x="1166.63" y="-410.08" font-family="Times,serif" font-size="14.00">okhmeta:hasMetaTag</text>
</g>
<!-- https://w3id.org/oseg/ont/okhmeta#hasMetaTag&#45;&gt;https://w3id.org/oseg/ont/okhmeta#MetaTag -->
<g id="edge3" class="edge">
<title>https://w3id.org/oseg/ont/okhmeta#hasMetaTag&#45;&gt;https://w3id.org/oseg/ont/okhmeta#MetaTag</title>
<path fill="none" stroke="black" d="M1049.28,-410.09C942.51,-410.05 786.4,-412.56 684.07,-416.01"/>
<polygon fill="black" stroke="black" points="683.9,-412.51 674.03,-416.36 684.14,-419.51 683.9,-412.51"/>
<text text-anchor="middle" x="789.67" y="-401.85" font-family="Times,serif" font-size="14.00">okhmeta:hasMetaTag</text>
</g>
<!-- https://w3id.org/oseg/ont/okhmeta#hasMetaTag&#45;&gt;https://w3id.org/oseg/ont/okhmeta#MetaTag -->
<g id="edge7" class="edge">
<title>https://w3id.org/oseg/ont/okhmeta#hasMetaTag&#45;&gt;https://w3id.org/oseg/ont/okhmeta#MetaTag</title>
<path fill="none" stroke="black" d="M1058.13,-420.86C953.44,-424.31 795.75,-426.77 690.47,-426.62"/>
<polygon fill="black" stroke="black" points="690.46,-423.12 680.45,-426.6 690.44,-430.12 690.46,-423.12"/>
<text text-anchor="middle" x="954.3" y="-427.54" font-family="Times,serif" font-size="14.00">schema:rangeIncludes</text>
</g>
<!-- https://w3id.org/oseg/ont/okhmeta#hasMetaTag&#45;&gt;http://www.w3.org/2004/02/skos/core#Concept -->
<g id="edge10" class="edge">
<title>https://w3id.org/oseg/ont/okhmeta#hasMetaTag&#45;&gt;http://www.w3.org/2004/02/skos/core#Concept</title>
<path fill="none" stroke="black" d="M1095.43,-400.67C1047.91,-391.91 985.73,-380.46 938.61,-371.78"/>
<polygon fill="black" stroke="black" points="938.97,-368.29 928.5,-369.92 937.7,-375.17 938.97,-368.29"/>
<text text-anchor="middle" x="1012.52" y="-390.03" font-family="Times,serif" font-size="14.00">a</text>
</g>
<!-- https://w3id.org/oseg/ont/okhmeta#hasMetaTag&#45;&gt;http://www.w3.org/2002/07/owl#ObjectProperty -->
<g id="edge20" class="edge">
<title>https://w3id.org/oseg/ont/okhmeta#hasMetaTag&#45;&gt;http://www.w3.org/2002/07/owl#ObjectProperty</title>
<path fill="none" stroke="black" d="M1212.41,-428.88C1290.38,-454.59 1448.62,-506.77 1532.26,-534.36"/>
<polygon fill="black" stroke="black" points="1531.24,-537.71 1541.84,-537.52 1533.44,-531.06 1531.24,-537.71"/>
<text text-anchor="middle" x="1367.84" y="-485.42" font-family="Times,serif" font-size="14.00">a</text>
</g>
<!-- https://w3id.org/oseg/ont/okhmeta#hasMetaTag&#45;&gt;http://www.w3.org/2004/02/skos/core#member -->
<g id="edge1" class="edge">
<title>https://w3id.org/oseg/ont/okhmeta#hasMetaTag&#45;&gt;http://www.w3.org/2004/02/skos/core#member</title>
<path fill="none" stroke="black" d="M1210.72,-398.62C1282.61,-373.9 1424.67,-325.06 1500.5,-298.99"/>
<polygon fill="black" stroke="black" points="1501.98,-302.18 1510.3,-295.62 1499.7,-295.56 1501.98,-302.18"/>
<text text-anchor="middle" x="1302.61" y="-352.6" font-family="Times,serif" font-size="14.00">subPropertyOf</text>
</g>
<!-- https://w3id.org/oseg/ont/okhmeta#MakingTag -->
<g id="node19" class="node">
<title>https://w3id.org/oseg/ont/okhmeta#MakingTag</title>
<ellipse fill="none" stroke="#e377c2" cx="855.36" cy="-550.79" rx="113.69" ry="16.03"/>
<text text-anchor="middle" x="855.36" y="-547.09" font-family="Times,serif" font-size="14.00">okhmeta:MakingTag</text>
</g>
<!-- https://w3id.org/oseg/ont/okhmeta#MakingTag&#45;&gt;https://w3id.org/oseg/ont/okhmeta#MetaTag -->
<g id="edge47" class="edge">
<title>https://w3id.org/oseg/ont/okhmeta#MakingTag&#45;&gt;https://w3id.org/oseg/ont/okhmeta#MetaTag</title>
<path fill="none" stroke="black" d="M821.89,-535.24C771.8,-511.96 677.37,-468.08 622.55,-442.6"/>
<polygon fill="black" stroke="black" points="623.99,-439.41 613.45,-438.37 621.04,-445.76 623.99,-439.41"/>
<text text-anchor="middle" x="645.22" y="-492.72" font-family="Times,serif" font-size="14.00">okhmeta:hasMetaTag</text>
</g>
<!-- https://w3id.org/oseg/ont/okhmeta#MakingTag&#45;&gt;https://w3id.org/oseg/ont/okhmeta#Tag -->
<g id="edge30" class="edge">
<title>https://w3id.org/oseg/ont/okhmeta#MakingTag&#45;&gt;https://w3id.org/oseg/ont/okhmeta#Tag</title>
<path fill="none" stroke="black" d="M822.71,-535.21C756.02,-503.38 604.33,-430.99 531.53,-396.24"/>
<polygon fill="black" stroke="black" points="532.74,-392.94 522.21,-391.79 529.73,-399.26 532.74,-392.94"/>
<text text-anchor="middle" x="672.62" y="-469.52" font-family="Times,serif" font-size="14.00">a</text>
</g>
<!-- https://w3id.org/oseg/ont/okhmeta#HistoryTag -->
<g id="node20" class="node">
<title>https://w3id.org/oseg/ont/okhmeta#HistoryTag</title>
<ellipse fill="none" stroke="#e377c2" cx="158.17" cy="-461.93" rx="113.69" ry="16.03"/>
<text text-anchor="middle" x="158.17" y="-458.23" font-family="Times,serif" font-size="14.00">okhmeta:HistoryTag</text>
</g>
<!-- https://w3id.org/oseg/ont/okhmeta#HistoryTag&#45;&gt;https://w3id.org/oseg/ont/okhmeta#MetaTag -->
<g id="edge17" class="edge">
<title>https://w3id.org/oseg/ont/okhmeta#HistoryTag&#45;&gt;https://w3id.org/oseg/ont/okhmeta#MetaTag</title>
<path fill="none" stroke="black" d="M253.94,-453.08C321.72,-446.82 412.38,-438.44 480.94,-432.1"/>
<polygon fill="black" stroke="black" points="481.68,-435.55 491.31,-431.14 481.03,-428.58 481.68,-435.55"/>
<text text-anchor="middle" x="290.44" y="-431.39" font-family="Times,serif" font-size="14.00">okhmeta:hasMetaTag</text>
</g>
<!-- https://w3id.org/oseg/ont/okhmeta#HistoryTag&#45;&gt;https://w3id.org/oseg/ont/okhmeta#Tag -->
<g id="edge32" class="edge">
<title>https://w3id.org/oseg/ont/okhmeta#HistoryTag&#45;&gt;https://w3id.org/oseg/ont/okhmeta#Tag</title>
<path fill="none" stroke="black" d="M213.89,-447.7C274.29,-432.28 370.3,-407.76 431.98,-392.01"/>
<polygon fill="black" stroke="black" points="433.13,-395.33 441.95,-389.47 431.4,-388.55 433.13,-395.33"/>
<text text-anchor="middle" x="318.44" y="-408.66" font-family="Times,serif" font-size="14.00">a</text>
</g>
<!-- https://spdx.org/licenses/GPL&#45;3.0&#45;or&#45;later -->
<g id="node21" class="node">
<title>https://spdx.org/licenses/GPL&#45;3.0&#45;or&#45;later</title>
<ellipse fill="none" stroke="#e377c2" cx="1471.13" cy="-777.4" rx="108.79" ry="16.03"/>
<text text-anchor="middle" x="1471.13" y="-773.7" font-family="Times,serif" font-size="14.00">spdxl:GPL&#45;3.0&#45;or&#45;...</text>
</g>
<!-- https://w3id.org/oseg/ont/okhmeta#DevelopmentTag -->
<g id="node22" class="node">
<title>https://w3id.org/oseg/ont/okhmeta#DevelopmentTag</title>
<ellipse fill="none" stroke="#e377c2" cx="790.34" cy="-694.68" rx="124.4" ry="16.03"/>
<text text-anchor="middle" x="790.34" y="-690.98" font-family="Times,serif" font-size="14.00">okhmeta:Developme...</text>
</g>
<!-- https://w3id.org/oseg/ont/okhmeta#DevelopmentTag&#45;&gt;https://w3id.org/oseg/ont/okhmeta#MetaTag -->
<g id="edge28" class="edge">
<title>https://w3id.org/oseg/ont/okhmeta#DevelopmentTag&#45;&gt;https://w3id.org/oseg/ont/okhmeta#MetaTag</title>
<path fill="none" stroke="black" d="M777.82,-678.49C742.43,-632.72 641.47,-502.14 599.19,-447.47"/>
<polygon fill="black" stroke="black" points="601.82,-445.14 592.93,-439.37 596.28,-449.42 601.82,-445.14"/>
<text text-anchor="middle" x="611.51" y="-566.78" font-family="Times,serif" font-size="14.00">okhmeta:hasMetaTag</text>
</g>
<!-- https://w3id.org/oseg/ont/okhmeta#DevelopmentTag&#45;&gt;https://w3id.org/oseg/ont/okhmeta#Tag -->
<g id="edge38" class="edge">
<title>https://w3id.org/oseg/ont/okhmeta#DevelopmentTag&#45;&gt;https://w3id.org/oseg/ont/okhmeta#Tag</title>
<path fill="none" stroke="black" d="M775.09,-678.48C725.85,-626.21 571.01,-461.82 513.16,-400.39"/>
<polygon fill="black" stroke="black" points="515.69,-397.97 506.28,-393.09 510.59,-402.77 515.69,-397.97"/>
<text text-anchor="middle" x="639.62" y="-543.24" font-family="Times,serif" font-size="14.00">a</text>
</g>
<!-- https://w3id.org/oseg/ont/okhmeta#IdentificationTag -->
<g id="node23" class="node">
<title>https://w3id.org/oseg/ont/okhmeta#IdentificationTag</title>
<ellipse fill="none" stroke="#e377c2" cx="826.2" cy="-185.13" rx="109.7" ry="16.03"/>
<text text-anchor="middle" x="826.2" y="-181.43" font-family="Times,serif" font-size="14.00">okhmeta:Identific...</text>
</g>
<!-- https://w3id.org/oseg/ont/okhmeta#IdentificationTag&#45;&gt;https://w3id.org/oseg/ont/okhmeta#MetaTag -->
<g id="edge33" class="edge">
<title>https://w3id.org/oseg/ont/okhmeta#IdentificationTag&#45;&gt;https://w3id.org/oseg/ont/okhmeta#MetaTag</title>
<path fill="none" stroke="black" d="M809.29,-201.48C766.53,-242.81 653.97,-351.63 604.32,-399.62"/>
<polygon fill="black" stroke="black" points="601.67,-397.32 596.92,-406.78 606.54,-402.35 601.67,-397.32"/>
<text text-anchor="middle" x="629.81" y="-304.35" font-family="Times,serif" font-size="14.00">okhmeta:hasMetaTag</text>
</g>
<!-- https://w3id.org/oseg/ont/okhmeta#IdentificationTag&#45;&gt;https://w3id.org/oseg/ont/okhmeta#Tag -->
<g id="edge13" class="edge">
<title>https://w3id.org/oseg/ont/okhmeta#IdentificationTag&#45;&gt;https://w3id.org/oseg/ont/okhmeta#Tag</title>
<path fill="none" stroke="black" d="M798.49,-200.99C737.98,-235.62 594.07,-317.98 526.83,-356.46"/>
<polygon fill="black" stroke="black" points="524.81,-353.58 517.87,-361.59 528.29,-359.66 524.81,-353.58"/>
<text text-anchor="middle" x="658.16" y="-282.52" font-family="Times,serif" font-size="14.00">a</text>
</g>
<!-- https://w3id.org/oseg/ont/okhmeta#DataGatheringTag -->
<g id="node24" class="node">
<title>https://w3id.org/oseg/ont/okhmeta#DataGatheringTag</title>
<ellipse fill="none" stroke="#e377c2" cx="218.5" cy="-679.98" rx="122.16" ry="16.03"/>
<text text-anchor="middle" x="218.5" y="-676.28" font-family="Times,serif" font-size="14.00">okhmeta:DataGathe...</text>
</g>
<!-- https://w3id.org/oseg/ont/okhmeta#DataGatheringTag&#45;&gt;https://w3id.org/oseg/ont/okhmeta#MetaTag -->
<g id="edge24" class="edge">
<title>https://w3id.org/oseg/ont/okhmeta#DataGatheringTag&#45;&gt;https://w3id.org/oseg/ont/okhmeta#MetaTag</title>
<path fill="none" stroke="black" d="M241.13,-663.9C303.55,-619.54 478.26,-495.38 549.45,-444.8"/>
<polygon fill="black" stroke="black" points="551.48,-447.65 557.6,-439 547.42,-441.94 551.48,-447.65"/>
<text text-anchor="middle" x="318.29" y="-543.15" font-family="Times,serif" font-size="14.00">okhmeta:hasMetaTag</text>
</g>
<!-- https://w3id.org/oseg/ont/okhmeta#DataGatheringTag&#45;&gt;https://w3id.org/oseg/ont/okhmeta#Tag -->
<g id="edge14" class="edge">
<title>https://w3id.org/oseg/ont/okhmeta#DataGatheringTag&#45;&gt;https://w3id.org/oseg/ont/okhmeta#Tag</title>
<path fill="none" stroke="black" d="M233.15,-663.69C278.46,-613.32 416.42,-459.92 469.72,-400.65"/>
<polygon fill="black" stroke="black" points="472.58,-402.71 476.67,-392.93 467.38,-398.03 472.58,-402.71"/>
<text text-anchor="middle" x="346.94" y="-520.97" font-family="Times,serif" font-size="14.00">a</text>
</g>
<!-- https://w3id.org/oseg/ont/okhmeta -->
<g id="node25" class="node">
<title>https://w3id.org/oseg/ont/okhmeta</title>
<ellipse fill="none" stroke="#e377c2" cx="1425.39" cy="-734.46" rx="76.24" ry="16.03"/>
<text text-anchor="middle" x="1425.39" y="-730.76" font-family="Times,serif" font-size="14.00">ns3:okhmeta</text>
</g>
<!-- https://w3id.org/oseg/ont/okhmeta&#45;&gt;http://www.w3.org/2002/07/owl#Ontology -->
<g id="edge42" class="edge">
<title>https://w3id.org/oseg/ont/okhmeta&#45;&gt;http://www.w3.org/2002/07/owl#Ontology</title>
<path fill="none" stroke="black" d="M1401.34,-718.78C1367.52,-696.74 1305.83,-656.52 1267.97,-631.84"/>
<polygon fill="black" stroke="black" points="1269.64,-628.75 1259.35,-626.22 1265.82,-634.61 1269.64,-628.75"/>
<text text-anchor="middle" x="1330.15" y="-664.11" font-family="Times,serif" font-size="14.00">a</text>
</g>
<!-- https://w3id.org/oseg/ont/okhmeta&#45;&gt;http://spdx.org/rdf/terms#File -->
<g id="edge21" class="edge">
<title>https://w3id.org/oseg/ont/okhmeta&#45;&gt;http://spdx.org/rdf/terms#File</title>
<path fill="none" stroke="black" d="M1489.22,-725.52C1517.14,-721.61 1549.87,-717.03 1577.94,-713.09"/>
<polygon fill="black" stroke="black" points="1578.63,-716.53 1588.05,-711.68 1577.66,-709.6 1578.63,-716.53"/>
<text text-anchor="middle" x="1529.08" y="-723.11" font-family="Times,serif" font-size="14.00">a</text>
</g>
<!-- https://w3id.org/oseg/ont/okhmeta&#45;&gt;https://w3id.org/oseg/ont/1.1.0/okh&#45;meta -->
<g id="edge22" class="edge">
<title>https://w3id.org/oseg/ont/okhmeta&#45;&gt;https://w3id.org/oseg/ont/1.1.0/okh&#45;meta</title>
<path fill="none" stroke="black" d="M1393.71,-719.59C1380.41,-713.35 1364.75,-706 1350.57,-699.34"/>
<polygon fill="black" stroke="black" points="1352.05,-696.17 1341.51,-695.09 1349.07,-702.5 1352.05,-696.17"/>
<text text-anchor="middle" x="1320.64" y="-713.27" font-family="Times,serif" font-size="14.00">owl:versionIRI</text>
</g>
<!-- https://w3id.org/oseg/ont/okhmeta&#45;&gt;https://w3id.org/oseg/ont/oseg&#45;profiles#robinVobruba -->
<g id="edge9" class="edge">
<title>https://w3id.org/oseg/ont/okhmeta&#45;&gt;https://w3id.org/oseg/ont/oseg&#45;profiles#robinVobruba</title>
<path fill="none" stroke="black" d="M1392.86,-749.24C1348.63,-773.93 1270.43,-823.09 1229.58,-851.92"/>
<polygon fill="black" stroke="black" points="1227.3,-849.25 1221.21,-857.92 1231.38,-854.93 1227.3,-849.25"/>
<text text-anchor="middle" x="1255.72" y="-804.38" font-family="Times,serif" font-size="14.00">schema:creator</text>
</g>
<!-- https://w3id.org/oseg/ont/okhmeta&#45;&gt;https://w3id.org/oseg/ont/oseg&#45;profiles#robinVobruba -->
<g id="edge19" class="edge">
<title>https://w3id.org/oseg/ont/okhmeta&#45;&gt;https://w3id.org/oseg/ont/oseg&#45;profiles#robinVobruba</title>
<path fill="none" stroke="black" d="M1407.44,-750.56C1372.56,-776.11 1294.95,-825.37 1246.03,-853.46"/>
<polygon fill="black" stroke="black" points="1244.21,-850.46 1237.25,-858.45 1247.67,-856.55 1244.21,-850.46"/>
<text text-anchor="middle" x="1384.24" y="-805.81" font-family="Times,serif" font-size="14.00">dcterms:creator</text>
</g>
<!-- https://w3id.org/oseg/ont/okhmeta&#45;&gt;http://id.loc.gov/vocabulary/iso639&#45;1/en -->
<g id="edge29" class="edge">
<title>https://w3id.org/oseg/ont/okhmeta&#45;&gt;http://id.loc.gov/vocabulary/iso639&#45;1/en</title>
<path fill="none" stroke="black" d="M1429.81,-750.95C1438.65,-783.95 1458.57,-858.31 1469.19,-897.96"/>
<polygon fill="black" stroke="black" points="1465.83,-898.95 1471.8,-907.71 1472.6,-897.14 1465.83,-898.95"/>
<text text-anchor="middle" x="1385" y="-828.26" font-family="Times,serif" font-size="14.00">dcterms:language</text>
</g>
<!-- https://w3id.org/oseg/ont/okhmeta&#45;&gt;https://spdx.org/licenses/GPL&#45;3.0&#45;or&#45;later -->
<g id="edge36" class="edge">
<title>https://w3id.org/oseg/ont/okhmeta&#45;&gt;https://spdx.org/licenses/GPL&#45;3.0&#45;or&#45;later</title>
<path fill="none" stroke="black" d="M1442.42,-750.45C1443.71,-751.66 1445.03,-752.9 1446.36,-754.15"/>
<polygon fill="black" stroke="black" points="1444.24,-756.96 1453.93,-761.25 1449.04,-751.86 1444.24,-756.96"/>
<text text-anchor="middle" x="1365.39" y="-756.1" font-family="Times,serif" font-size="14.00">spdxt:licenseDeclared</text>
</g>
<!-- https://w3id.org/oseg/ont/oseg&#45;profiles#Iopa -->
<g id="node28" class="node">
<title>https://w3id.org/oseg/ont/oseg&#45;profiles#Iopa</title>
<ellipse fill="none" stroke="#e377c2" cx="1484.08" cy="-692.72" rx="80.72" ry="16.03"/>
<text text-anchor="middle" x="1484.08" y="-689.02" font-family="Times,serif" font-size="14.00">osegprof:Iopa</text>
</g>
<!-- https://w3id.org/oseg/ont/okhmeta&#45;&gt;https://w3id.org/oseg/ont/oseg&#45;profiles#Iopa -->
<g id="edge44" class="edge">
<title>https://w3id.org/oseg/ont/okhmeta&#45;&gt;https://w3id.org/oseg/ont/oseg&#45;profiles#Iopa</title>
<path fill="none" stroke="black" d="M1447.58,-718.68C1449.48,-717.33 1451.42,-715.95 1453.37,-714.56"/>
<polygon fill="black" stroke="black" points="1455.74,-717.17 1461.86,-708.52 1451.68,-711.47 1455.74,-717.17"/>
<text text-anchor="middle" x="1384.97" y="-705.42" font-family="Times,serif" font-size="14.00">dcterms:publisher</text>
</g>
<!-- https://w3id.org/oseg/ont/okhmeta#LegalTag -->
<g id="node26" class="node">
<title>https://w3id.org/oseg/ont/okhmeta#LegalTag</title>
<ellipse fill="none" stroke="#e377c2" cx="496.88" cy="-19.94" rx="103.89" ry="16.03"/>
<text text-anchor="middle" x="496.88" y="-16.24" font-family="Times,serif" font-size="14.00">okhmeta:LegalTag</text>
</g>
<!-- https://w3id.org/oseg/ont/okhmeta#LegalTag&#45;&gt;https://w3id.org/oseg/ont/okhmeta#MetaTag -->
<g id="edge12" class="edge">
<title>https://w3id.org/oseg/ont/okhmeta#LegalTag&#45;&gt;https://w3id.org/oseg/ont/okhmeta#MetaTag</title>
<path fill="none" stroke="black" d="M500.25,-36.24C513.08,-98.26 558.92,-319.92 574.77,-396.6"/>
<polygon fill="black" stroke="black" points="571.35,-397.34 576.81,-406.43 578.21,-395.93 571.35,-397.34"/>
<text text-anchor="middle" x="460.51" y="-205.22" font-family="Times,serif" font-size="14.00">okhmeta:hasMetaTag</text>
</g>
<!-- https://w3id.org/oseg/ont/okhmeta#LegalTag&#45;&gt;https://w3id.org/oseg/ont/okhmeta#Tag -->
<g id="edge15" class="edge">
<title>https://w3id.org/oseg/ont/okhmeta#LegalTag&#45;&gt;https://w3id.org/oseg/ont/okhmeta#Tag</title>
<path fill="none" stroke="black" d="M496.62,-36.21C495.7,-92.66 492.63,-280.47 491.49,-350.39"/>
<polygon fill="black" stroke="black" points="487.99,-350.51 491.33,-360.56 494.99,-350.62 487.99,-350.51"/>
<text text-anchor="middle" x="489.56" y="-182.1" font-family="Times,serif" font-size="14.00">a</text>
</g>
<!-- https://w3id.org/oseg/ont/okhmeta#PhysicalTag -->
<g id="node27" class="node">
<title>https://w3id.org/oseg/ont/okhmeta#PhysicalTag</title>
<ellipse fill="none" stroke="#e377c2" cx="499.97" cy="-797.91" rx="118.17" ry="16.03"/>
<text text-anchor="middle" x="499.97" y="-794.21" font-family="Times,serif" font-size="14.00">okhmeta:PhysicalTag</text>
</g>
<!-- https://w3id.org/oseg/ont/okhmeta#PhysicalTag&#45;&gt;https://w3id.org/oseg/ont/okhmeta#MetaTag -->
<g id="edge37" class="edge">
<title>https://w3id.org/oseg/ont/okhmeta#PhysicalTag&#45;&gt;https://w3id.org/oseg/ont/okhmeta#MetaTag</title>
<path fill="none" stroke="black" d="M503.53,-781.32C516.16,-722.27 559.01,-522.02 574.54,-449.46"/>
<polygon fill="black" stroke="black" points="578.04,-449.84 576.71,-439.33 571.19,-448.38 578.04,-449.84"/>
<text text-anchor="middle" x="462.03" y="-619.19" font-family="Times,serif" font-size="14.00">okhmeta:hasMetaTag</text>
</g>
<!-- https://w3id.org/oseg/ont/okhmeta#PhysicalTag&#45;&gt;https://w3id.org/oseg/ont/okhmeta#Tag -->
<g id="edge43" class="edge">
<title>https://w3id.org/oseg/ont/okhmeta#PhysicalTag&#45;&gt;https://w3id.org/oseg/ont/okhmeta#Tag</title>
<path fill="none" stroke="black" d="M499.62,-781.41C498.26,-717.09 493.3,-482.86 491.62,-403.46"/>
<polygon fill="black" stroke="black" points="495.12,-403.24 491.41,-393.32 488.12,-403.39 495.12,-403.24"/>
<text text-anchor="middle" x="491.12" y="-596.23" font-family="Times,serif" font-size="14.00">a</text>
</g>
<!-- https://w3id.org/oseg/ont/okhmeta#DataTag -->
<g id="node29" class="node">
<title>https://w3id.org/oseg/ont/okhmeta#DataTag</title>
<ellipse fill="none" stroke="#e377c2" cx="619.57" cy="-735.88" rx="100.32" ry="16.03"/>
<text text-anchor="middle" x="619.57" y="-732.18" font-family="Times,serif" font-size="14.00">okhmeta:DataTag</text>
</g>
<!-- https://w3id.org/oseg/ont/okhmeta#DataTag&#45;&gt;https://w3id.org/oseg/ont/okhmeta#MetaTag -->
<g id="edge25" class="edge">
<title>https://w3id.org/oseg/ont/okhmeta#DataTag&#45;&gt;https://w3id.org/oseg/ont/okhmeta#MetaTag</title>
<path fill="none" stroke="black" d="M617.51,-719.5C611.11,-668.6 591.53,-512.87 583.6,-449.84"/>
<polygon fill="black" stroke="black" points="587.03,-449.01 582.31,-439.53 580.08,-449.89 587.03,-449.01"/>
<text text-anchor="middle" x="677.56" y="-588.47" font-family="Times,serif" font-size="14.00">okhmeta:hasMetaTag</text>
</g>
<!-- https://w3id.org/oseg/ont/okhmeta#DataTag&#45;&gt;https://w3id.org/oseg/ont/okhmeta#Tag -->
<g id="edge46" class="edge">
<title>https://w3id.org/oseg/ont/okhmeta#DataTag&#45;&gt;https://w3id.org/oseg/ont/okhmeta#Tag</title>
<path fill="none" stroke="black" d="M613.72,-719.53C593.35,-662.65 525.51,-473.14 500.46,-403.18"/>
<polygon fill="black" stroke="black" points="503.62,-401.61 496.95,-393.38 497.03,-403.97 503.62,-401.61"/>
<text text-anchor="middle" x="552.59" y="-550.15" font-family="Times,serif" font-size="14.00">a</text>
</g>
<!-- https://w3id.org/oseg/ont/okhmeta#BasicTag -->
<g id="node30" class="node">
<title>https://w3id.org/oseg/ont/okhmeta#BasicTag</title>
<ellipse fill="none" stroke="#e377c2" cx="392.41" cy="-720.91" rx="103.48" ry="16.03"/>
<text text-anchor="middle" x="392.41" y="-717.21" font-family="Times,serif" font-size="14.00">okhmeta:BasicTag</text>
</g>
<!-- https://w3id.org/oseg/ont/okhmeta#BasicTag&#45;&gt;https://w3id.org/oseg/ont/okhmeta#MetaTag -->
<g id="edge16" class="edge">
<title>https://w3id.org/oseg/ont/okhmeta#BasicTag&#45;&gt;https://w3id.org/oseg/ont/okhmeta#MetaTag</title>
<path fill="none" stroke="black" d="M402.78,-704.46C433.95,-655.01 526.97,-507.42 564.38,-448.06"/>
<polygon fill="black" stroke="black" points="567.51,-449.65 569.88,-439.32 561.59,-445.92 567.51,-449.65"/>
<text text-anchor="middle" x="406.58" y="-580.06" font-family="Times,serif" font-size="14.00">okhmeta:hasMetaTag</text>
</g>
<!-- https://w3id.org/oseg/ont/okhmeta#BasicTag&#45;&gt;https://w3id.org/oseg/ont/okhmeta#Tag -->
<g id="edge18" class="edge">
<title>https://w3id.org/oseg/ont/okhmeta#BasicTag&#45;&gt;https://w3id.org/oseg/ont/okhmeta#Tag</title>
<path fill="none" stroke="black" d="M397.17,-704.32C413.03,-649.03 464.15,-470.76 483.53,-403.21"/>
<polygon fill="black" stroke="black" points="486.96,-403.93 486.35,-393.35 480.23,-402 486.96,-403.93"/>
<text text-anchor="middle" x="435.85" y="-557.56" font-family="Times,serif" font-size="14.00">a</text>
</g>
</g>
</svg>
