<?xml version="1.0" encoding="UTF-8" standalone="no"?>
<!DOCTYPE svg PUBLIC "-//W3C//DTD SVG 1.1//EN"
 "http://www.w3.org/Graphics/SVG/1.1/DTD/svg11.dtd">
<!-- Generated by graphviz version 2.43.0 (0)
 -->
<!-- Title: G Pages: 1 -->
<svg width="2902pt" height="1319pt"
 viewBox="0.00 0.00 2902.00 1319.00" xmlns="http://www.w3.org/2000/svg" xmlns:xlink="http://www.w3.org/1999/xlink">
<g id="graph0" class="graph" transform="scale(1 1) rotate(0) translate(4 1315)">
<title>G</title>
<polygon fill="white" stroke="transparent" points="-4,4 -4,-1315 2898,-1315 2898,4 -4,4"/>
<!-- http://www.w3.org/2002/07/owl#DatatypeProperty -->
<g id="node1" class="node">
<title>http://www.w3.org/2002/07/owl#DatatypeProperty</title>
<ellipse fill="none" stroke="#1f77b4" cx="707.11" cy="-515.68" rx="123.07" ry="16.03"/>
<text text-anchor="middle" x="707.11" y="-511.98" font-family="Times,serif" font-size="14.00">owl:DatatypeProperty</text>
</g>
<!-- http://w3id.org/oseg/ont/okh#Reference -->
<g id="node2" class="node">
<title>http://w3id.org/oseg/ont/okh#Reference</title>
<ellipse fill="none" stroke="#e377c2" cx="1861.67" cy="-1294.75" rx="84.29" ry="16.03"/>
<text text-anchor="middle" x="1861.67" y="-1291.05" font-family="Times,serif" font-size="14.00">okh:Reference</text>
</g>
<!-- http://www.w3.org/2002/07/owl#ObjectProperty -->
<g id="node3" class="node">
<title>http://www.w3.org/2002/07/owl#ObjectProperty</title>
<ellipse fill="none" stroke="#1f77b4" cx="2317.45" cy="-461.53" rx="109.7" ry="16.03"/>
<text text-anchor="middle" x="2317.45" y="-457.83" font-family="Times,serif" font-size="14.00">owl:ObjectProperty</text>
</g>
<!-- http://w3id.org/oseg/ont/okh#Mass -->
<g id="node4" class="node">
<title>http://w3id.org/oseg/ont/okh#Mass</title>
<ellipse fill="none" stroke="#e377c2" cx="1223.91" cy="-709.96" rx="59.29" ry="16.03"/>
<text text-anchor="middle" x="1223.91" y="-706.26" font-family="Times,serif" font-size="14.00">okh:Mass</text>
</g>
<!-- http://www.w3.org/2004/02/skos/core#Concept -->
<g id="node7" class="node">
<title>http://www.w3.org/2004/02/skos/core#Concept</title>
<ellipse fill="none" stroke="#1f77b4" cx="1572.63" cy="-615.76" rx="78.48" ry="16.03"/>
<text text-anchor="middle" x="1572.63" y="-612.06" font-family="Times,serif" font-size="14.00">skos:Concept</text>
</g>
<!-- http://w3id.org/oseg/ont/okh#Mass&#45;&gt;http://www.w3.org/2004/02/skos/core#Concept -->
<g id="edge23" class="edge">
<title>http://w3id.org/oseg/ont/okh#Mass&#45;&gt;http://www.w3.org/2004/02/skos/core#Concept</title>
<path fill="none" stroke="black" d="M1266.32,-698.5C1328.51,-681.7 1444.65,-650.33 1514.67,-631.41"/>
<polygon fill="black" stroke="black" points="1515.92,-634.7 1524.66,-628.72 1514.09,-627.95 1515.92,-634.7"/>
<text text-anchor="middle" x="1385.99" y="-668.76" font-family="Times,serif" font-size="14.00">a</text>
</g>
<!-- http://w3id.org/oseg/ont/okhmetaPhysicalTag -->
<g id="node34" class="node">
<title>http://w3id.org/oseg/ont/okhmetaPhysicalTag</title>
<ellipse fill="none" stroke="#e377c2" cx="1197.84" cy="-1007.37" rx="118.17" ry="16.03"/>
<text text-anchor="middle" x="1197.84" y="-1003.67" font-family="Times,serif" font-size="14.00">okhmeta:PhysicalTag</text>
</g>
<!-- http://w3id.org/oseg/ont/okh#Mass&#45;&gt;http://w3id.org/oseg/ont/okhmetaPhysicalTag -->
<g id="edge41" class="edge">
<title>http://w3id.org/oseg/ont/okh#Mass&#45;&gt;http://w3id.org/oseg/ont/okhmetaPhysicalTag</title>
<path fill="none" stroke="black" d="M1222.47,-726.37C1218.18,-775.32 1205.44,-920.62 1200.17,-980.81"/>
<polygon fill="black" stroke="black" points="1196.66,-980.74 1199.28,-991.01 1203.64,-981.35 1196.66,-980.74"/>
<text text-anchor="middle" x="1134.32" y="-857.39" font-family="Times,serif" font-size="14.00">okhmeta:hasMetaTag</text>
</g>
<!-- http://w3id.org/oseg/ont/okhmetaTransportationTag -->
<g id="node37" class="node">
<title>http://w3id.org/oseg/ont/okhmetaTransportationTag</title>
<ellipse fill="none" stroke="#e377c2" cx="1236.7" cy="-758.23" rx="118.17" ry="16.03"/>
<text text-anchor="middle" x="1236.7" y="-754.53" font-family="Times,serif" font-size="14.00">okhmeta:Transport...</text>
</g>
<!-- http://w3id.org/oseg/ont/okh#Mass&#45;&gt;http://w3id.org/oseg/ont/okhmetaTransportationTag -->
<g id="edge48" class="edge">
<title>http://w3id.org/oseg/ont/okh#Mass&#45;&gt;http://w3id.org/oseg/ont/okhmetaTransportationTag</title>
<path fill="none" stroke="black" d="M1228.24,-726.3C1228.74,-728.19 1229.26,-730.15 1229.78,-732.12"/>
<polygon fill="black" stroke="black" points="1226.43,-733.13 1232.37,-741.9 1233.19,-731.34 1226.43,-733.13"/>
<text text-anchor="middle" x="1152.01" y="-733.01" font-family="Times,serif" font-size="14.00">okhmeta:hasMetaTag</text>
</g>
<!-- http://schema.org/URL -->
<g id="node5" class="node">
<title>http://schema.org/URL</title>
<ellipse fill="none" stroke="#e377c2" cx="2324.88" cy="-1181.7" rx="75.82" ry="16.03"/>
<text text-anchor="middle" x="2324.88" y="-1178" font-family="Times,serif" font-size="14.00">schema:URL</text>
</g>
<!-- http://w3id.org/oseg/ont/okh#ComponentReference -->
<g id="node6" class="node">
<title>http://w3id.org/oseg/ont/okh#ComponentReference</title>
<ellipse fill="none" stroke="#e377c2" cx="1819.45" cy="-959.06" rx="123.07" ry="16.03"/>
<text text-anchor="middle" x="1819.45" y="-955.36" font-family="Times,serif" font-size="14.00">okh:ComponentRefe...</text>
</g>
<!-- http://w3id.org/oseg/ont/okh#ComponentReference&#45;&gt;http://w3id.org/oseg/ont/okh#Reference -->
<g id="edge37" class="edge">
<title>http://w3id.org/oseg/ont/okh#ComponentReference&#45;&gt;http://w3id.org/oseg/ont/okh#Reference</title>
<path fill="none" stroke="black" d="M1821.54,-975.71C1828.37,-1029.97 1850.01,-1202.04 1858.35,-1268.35"/>
<polygon fill="black" stroke="black" points="1854.89,-1268.91 1859.61,-1278.4 1861.84,-1268.04 1854.89,-1268.91"/>
</g>
<!-- http://w3id.org/oseg/ont/okh#ComponentReference&#45;&gt;http://www.w3.org/2004/02/skos/core#Concept -->
<g id="edge2" class="edge">
<title>http://w3id.org/oseg/ont/okh#ComponentReference&#45;&gt;http://www.w3.org/2004/02/skos/core#Concept</title>
<path fill="none" stroke="black" d="M1807.54,-942.5C1767.55,-886.87 1637.84,-706.47 1590.3,-640.35"/>
<polygon fill="black" stroke="black" points="1593.09,-638.23 1584.41,-632.15 1587.41,-642.32 1593.09,-638.23"/>
<text text-anchor="middle" x="1694.42" y="-795.22" font-family="Times,serif" font-size="14.00">a</text>
</g>
<!-- http://w3id.org/oseg/ont/okhmetaPartsTag -->
<g id="node24" class="node">
<title>http://w3id.org/oseg/ont/okhmetaPartsTag</title>
<ellipse fill="none" stroke="#e377c2" cx="1817.5" cy="-1000.23" rx="103.48" ry="16.03"/>
<text text-anchor="middle" x="1817.5" y="-996.53" font-family="Times,serif" font-size="14.00">okhmeta:PartsTag</text>
</g>
<!-- http://w3id.org/oseg/ont/okh#ComponentReference&#45;&gt;http://w3id.org/oseg/ont/okhmetaPartsTag -->
<g id="edge22" class="edge">
<title>http://w3id.org/oseg/ont/okh#ComponentReference&#45;&gt;http://w3id.org/oseg/ont/okhmetaPartsTag</title>
<path fill="none" stroke="black" d="M1818.68,-975.33C1818.67,-975.42 1818.67,-975.51 1818.67,-975.59"/>
<polygon fill="black" stroke="black" points="1815.25,-973.65 1818.28,-983.81 1822.25,-973.99 1815.25,-973.65"/>
<text text-anchor="middle" x="1895.67" y="-979.26" font-family="Times,serif" font-size="14.00">okhmeta:hasMetaTag</text>
</g>
<!-- http://w3id.org/oseg/ont/okh#FileUrl -->
<g id="node8" class="node">
<title>http://w3id.org/oseg/ont/okh#FileUrl</title>
<ellipse fill="none" stroke="#1f77b4" cx="2172.76" cy="-961.14" rx="68.68" ry="16.03"/>
<text text-anchor="middle" x="2172.76" y="-957.44" font-family="Times,serif" font-size="14.00">okh:FileUrl</text>
</g>
<!-- http://w3id.org/oseg/ont/okh#FileUrl&#45;&gt;http://schema.org/URL -->
<g id="edge45" class="edge">
<title>http://w3id.org/oseg/ont/okh#FileUrl&#45;&gt;http://schema.org/URL</title>
<path fill="none" stroke="black" d="M2183.95,-977.35C2210.32,-1015.59 2276.52,-1111.59 2307.89,-1157.07"/>
<polygon fill="black" stroke="black" points="2305.12,-1159.21 2313.68,-1165.46 2310.88,-1155.24 2305.12,-1159.21"/>
</g>
<!-- http://w3id.org/oseg/ont/okh#FileUrl&#45;&gt;http://w3id.org/oseg/ont/okh#ComponentReference -->
<g id="edge53" class="edge">
<title>http://w3id.org/oseg/ont/okh#FileUrl&#45;&gt;http://w3id.org/oseg/ont/okh#ComponentReference</title>
<path fill="none" stroke="black" d="M2103.8,-960.73C2060.87,-960.48 2004.23,-960.15 1952.8,-959.84"/>
<polygon fill="black" stroke="black" points="1952.61,-956.34 1942.59,-959.78 1952.57,-963.34 1952.61,-956.34"/>
</g>
<!-- http://w3id.org/oseg/ont/okh#File -->
<g id="node9" class="node">
<title>http://w3id.org/oseg/ont/okh#File</title>
<ellipse fill="none" stroke="#e377c2" cx="2290" cy="-724.9" rx="52.15" ry="16.03"/>
<text text-anchor="middle" x="2290" y="-721.2" font-family="Times,serif" font-size="14.00">okh:File</text>
</g>
<!-- http://w3id.org/oseg/ont/okh#FileUrl&#45;&gt;http://w3id.org/oseg/ont/okh#File -->
<g id="edge1" class="edge">
<title>http://w3id.org/oseg/ont/okh#FileUrl&#45;&gt;http://w3id.org/oseg/ont/okh#File</title>
<path fill="none" stroke="black" d="M2180.82,-944.9C2200.86,-904.52 2253.06,-799.34 2277.29,-750.5"/>
<polygon fill="black" stroke="black" points="2280.57,-751.76 2281.88,-741.25 2274.3,-748.65 2280.57,-751.76"/>
<text text-anchor="middle" x="2149.05" y="-851.5" font-family="Times,serif" font-size="14.00">schema:supersededBy</text>
</g>
<!-- http://schema.org/license -->
<g id="node10" class="node">
<title>http://schema.org/license</title>
<ellipse fill="none" stroke="#e377c2" cx="2124.99" cy="-272.96" rx="88.28" ry="16.03"/>
<text text-anchor="middle" x="2124.99" y="-269.26" font-family="Times,serif" font-size="14.00">schema:license</text>
</g>
<!-- http://w3id.org/oseg/ont/okh#okhvOriginal -->
<g id="node11" class="node">
<title>http://w3id.org/oseg/ont/okh#okhvOriginal</title>
<ellipse fill="none" stroke="#e377c2" cx="541.53" cy="-177.44" rx="97.66" ry="16.03"/>
<text text-anchor="middle" x="541.53" y="-173.74" font-family="Times,serif" font-size="14.00">okh:okhvOriginal</text>
</g>
<!-- http://w3id.org/oseg/ont/okh#okhvOriginal&#45;&gt;http://www.w3.org/2002/07/owl#DatatypeProperty -->
<g id="edge4" class="edge">
<title>http://w3id.org/oseg/ont/okh#okhvOriginal&#45;&gt;http://www.w3.org/2002/07/owl#DatatypeProperty</title>
<path fill="none" stroke="black" d="M549.52,-193.76C576.12,-248.1 661.9,-423.32 694.43,-489.79"/>
<polygon fill="black" stroke="black" points="691.47,-491.69 699.01,-499.13 697.75,-488.61 691.47,-491.69"/>
<text text-anchor="middle" x="617.48" y="-345.57" font-family="Times,serif" font-size="14.00">a</text>
</g>
<!-- http://w3id.org/oseg/ont/okh#okhvStored -->
<g id="node29" class="node">
<title>http://w3id.org/oseg/ont/okh#okhvStored</title>
<ellipse fill="none" stroke="#e377c2" cx="531.51" cy="-114.11" rx="90.52" ry="16.03"/>
<text text-anchor="middle" x="531.51" y="-110.41" font-family="Times,serif" font-size="14.00">okh:okhvStored</text>
</g>
<!-- http://w3id.org/oseg/ont/okh#okhvOriginal&#45;&gt;http://w3id.org/oseg/ont/okh#okhvStored -->
<g id="edge30" class="edge">
<title>http://w3id.org/oseg/ont/okh#okhvOriginal&#45;&gt;http://w3id.org/oseg/ont/okh#okhvStored</title>
<path fill="none" stroke="black" d="M538.95,-161.13C537.98,-154.97 536.84,-147.79 535.76,-140.93"/>
<polygon fill="black" stroke="black" points="539.14,-139.91 534.12,-130.58 532.22,-141 539.14,-139.91"/>
<text text-anchor="middle" x="509.85" y="-139.83" font-family="Times,serif" font-size="14.00">seeAlso</text>
</g>
<!-- http://w3id.org/oseg/ont/okh#okhv -->
<g id="node31" class="node">
<title>http://w3id.org/oseg/ont/okh#okhv</title>
<ellipse fill="none" stroke="#e377c2" cx="337.7" cy="-16.55" rx="56.64" ry="16.03"/>
<text text-anchor="middle" x="337.7" y="-12.85" font-family="Times,serif" font-size="14.00">okh:okhv</text>
</g>
<!-- http://w3id.org/oseg/ont/okh#okhvOriginal&#45;&gt;http://w3id.org/oseg/ont/okh#okhv -->
<g id="edge33" class="edge">
<title>http://w3id.org/oseg/ont/okh#okhvOriginal&#45;&gt;http://w3id.org/oseg/ont/okh#okhv</title>
<path fill="none" stroke="black" d="M521.24,-161.43C484.5,-132.42 406.92,-71.18 365.36,-38.38"/>
<polygon fill="black" stroke="black" points="367.32,-35.47 357.31,-32.02 362.99,-40.97 367.32,-35.47"/>
<text text-anchor="middle" x="390.3" y="-88.7" font-family="Times,serif" font-size="14.00">subPropertyOf</text>
</g>
<!-- http://w3id.org/oseg/ont/okh#openSCAD -->
<g id="node12" class="node">
<title>http://w3id.org/oseg/ont/okh#openSCAD</title>
<ellipse fill="none" stroke="#e377c2" cx="328.24" cy="-729.74" rx="86.03" ry="16.03"/>
<text text-anchor="middle" x="328.24" y="-726.04" font-family="Times,serif" font-size="14.00">okh:openSCAD</text>
</g>
<!-- http://w3id.org/oseg/ont/okh#openSCAD&#45;&gt;http://www.w3.org/2002/07/owl#DatatypeProperty -->
<g id="edge20" class="edge">
<title>http://w3id.org/oseg/ont/okh#openSCAD&#45;&gt;http://www.w3.org/2002/07/owl#DatatypeProperty</title>
<path fill="none" stroke="black" d="M355.8,-714.18C422.8,-676.32 594.33,-579.4 670.13,-536.57"/>
<polygon fill="black" stroke="black" points="671.9,-539.59 678.89,-531.62 668.46,-533.49 671.9,-539.59"/>
<text text-anchor="middle" x="508.46" y="-629.17" font-family="Times,serif" font-size="14.00">a</text>
</g>
<!-- http://www.w3.org/2001/XMLSchema#string -->
<g id="node15" class="node">
<title>http://www.w3.org/2001/XMLSchema#string</title>
<ellipse fill="none" stroke="#e377c2" cx="69.92" cy="-650.15" rx="62.87" ry="16.03"/>
<text text-anchor="middle" x="69.92" y="-646.45" font-family="Times,serif" font-size="14.00">xsd:string</text>
</g>
<!-- http://w3id.org/oseg/ont/okh#openSCAD&#45;&gt;http://www.w3.org/2001/XMLSchema#string -->
<g id="edge8" class="edge">
<title>http://w3id.org/oseg/ont/okh#openSCAD&#45;&gt;http://www.w3.org/2001/XMLSchema#string</title>
<path fill="none" stroke="black" d="M282.95,-715.79C237.43,-701.76 167.41,-680.19 120.19,-665.64"/>
<polygon fill="black" stroke="black" points="121.07,-662.25 110.48,-662.65 119,-668.94 121.07,-662.25"/>
<text text-anchor="middle" x="129.07" y="-694.52" font-family="Times,serif" font-size="14.00">dcam:rangeIncludes</text>
</g>
<!-- http://w3id.org/oseg/ont/okh#depth -->
<g id="node20" class="node">
<title>http://w3id.org/oseg/ont/okh#depth</title>
<ellipse fill="none" stroke="#e377c2" cx="61.89" cy="-778.96" rx="62.45" ry="16.03"/>
<text text-anchor="middle" x="61.89" y="-775.26" font-family="Times,serif" font-size="14.00">okh:depth</text>
</g>
<!-- http://w3id.org/oseg/ont/okh#openSCAD&#45;&gt;http://w3id.org/oseg/ont/okh#depth -->
<g id="edge16" class="edge">
<title>http://w3id.org/oseg/ont/okh#openSCAD&#45;&gt;http://w3id.org/oseg/ont/okh#depth</title>
<path fill="none" stroke="black" d="M266.47,-741.16C223.36,-749.12 166.08,-759.71 123.1,-767.65"/>
<polygon fill="black" stroke="black" points="122.25,-764.25 113.05,-769.51 123.52,-771.13 122.25,-764.25"/>
<text text-anchor="middle" x="114.78" y="-743.2" font-family="Times,serif" font-size="14.00">schema:supersededBy</text>
</g>
<!-- http://w3id.org/oseg/ont/okh#Dimensions -->
<g id="node22" class="node">
<title>http://w3id.org/oseg/ont/okh#Dimensions</title>
<ellipse fill="none" stroke="#e377c2" cx="629.88" cy="-775.61" rx="91.85" ry="16.03"/>
<text text-anchor="middle" x="629.88" y="-771.91" font-family="Times,serif" font-size="14.00">okh:Dimensions</text>
</g>
<!-- http://w3id.org/oseg/ont/okh#openSCAD&#45;&gt;http://w3id.org/oseg/ont/okh#Dimensions -->
<g id="edge34" class="edge">
<title>http://w3id.org/oseg/ont/okh#openSCAD&#45;&gt;http://w3id.org/oseg/ont/okh#Dimensions</title>
<path fill="none" stroke="black" d="M395.56,-739.98C441.27,-746.93 501.93,-756.15 550.07,-763.47"/>
<polygon fill="black" stroke="black" points="549.73,-766.96 560.15,-765.01 550.79,-760.04 549.73,-766.96"/>
<text text-anchor="middle" x="394.82" y="-755.53" font-family="Times,serif" font-size="14.00">dcam:domainIncludes</text>
</g>
<!-- http://w3id.org/oseg/ont/okh#width -->
<g id="node35" class="node">
<title>http://w3id.org/oseg/ont/okh#width</title>
<ellipse fill="none" stroke="#e377c2" cx="212.68" cy="-973.98" rx="61.54" ry="16.03"/>
<text text-anchor="middle" x="212.68" y="-970.28" font-family="Times,serif" font-size="14.00">okh:width</text>
</g>
<!-- http://w3id.org/oseg/ont/okh#openSCAD&#45;&gt;http://w3id.org/oseg/ont/okh#width -->
<g id="edge44" class="edge">
<title>http://w3id.org/oseg/ont/okh#openSCAD&#45;&gt;http://w3id.org/oseg/ont/okh#width</title>
<path fill="none" stroke="black" d="M320.48,-746.15C300.74,-787.86 248.53,-898.22 224.76,-948.44"/>
<polygon fill="black" stroke="black" points="221.52,-947.11 220.41,-957.64 227.85,-950.1 221.52,-947.11"/>
<text text-anchor="middle" x="192.62" y="-851.09" font-family="Times,serif" font-size="14.00">schema:supersededBy</text>
</g>
<!-- http://w3id.org/oseg/ont/okh#height -->
<g id="node42" class="node">
<title>http://w3id.org/oseg/ont/okh#height</title>
<ellipse fill="none" stroke="#e377c2" cx="106.18" cy="-894" rx="65.11" ry="16.03"/>
<text text-anchor="middle" x="106.18" y="-890.3" font-family="Times,serif" font-size="14.00">okh:height</text>
</g>
<!-- http://w3id.org/oseg/ont/okh#openSCAD&#45;&gt;http://w3id.org/oseg/ont/okh#height -->
<g id="edge24" class="edge">
<title>http://w3id.org/oseg/ont/okh#openSCAD&#45;&gt;http://w3id.org/oseg/ont/okh#height</title>
<path fill="none" stroke="black" d="M306.55,-745.79C266.46,-775.44 180.76,-838.83 135.53,-872.29"/>
<polygon fill="black" stroke="black" points="133.27,-869.61 127.31,-878.37 137.43,-875.23 133.27,-869.61"/>
<text text-anchor="middle" x="141.04" y="-812.84" font-family="Times,serif" font-size="14.00">schema:supersededBy</text>
</g>
<!-- http://w3id.org/oseg/ont/okhmetaLegalTag -->
<g id="node13" class="node">
<title>http://w3id.org/oseg/ont/okhmetaLegalTag</title>
<ellipse fill="none" stroke="#e377c2" cx="2195.18" cy="-327.02" rx="103.89" ry="16.03"/>
<text text-anchor="middle" x="2195.18" y="-323.32" font-family="Times,serif" font-size="14.00">okhmeta:LegalTag</text>
</g>
<!-- http://w3id.org/oseg/ont/okh#Software -->
<g id="node14" class="node">
<title>http://w3id.org/oseg/ont/okh#Software</title>
<ellipse fill="none" stroke="#e377c2" cx="1176.48" cy="-430.36" rx="78.48" ry="16.03"/>
<text text-anchor="middle" x="1176.48" y="-426.66" font-family="Times,serif" font-size="14.00">okh:Software</text>
</g>
<!-- http://w3id.org/oseg/ont/okh#installationGuide -->
<g id="node16" class="node">
<title>http://w3id.org/oseg/ont/okh#installationGuide</title>
<ellipse fill="none" stroke="#e377c2" cx="1171.63" cy="-490.96" rx="106.55" ry="16.03"/>
<text text-anchor="middle" x="1171.63" y="-487.26" font-family="Times,serif" font-size="14.00">okh:installationG...</text>
</g>
<!-- http://w3id.org/oseg/ont/okh#installationGuide&#45;&gt;http://www.w3.org/2002/07/owl#DatatypeProperty -->
<g id="edge27" class="edge">
<title>http://w3id.org/oseg/ont/okh#installationGuide&#45;&gt;http://www.w3.org/2002/07/owl#DatatypeProperty</title>
<path fill="none" stroke="black" d="M1070.55,-496.34C1000.45,-500.07 906.63,-505.06 831.87,-509.04"/>
<polygon fill="black" stroke="black" points="831.26,-505.57 821.46,-509.59 831.63,-512.56 831.26,-505.57"/>
<text text-anchor="middle" x="946.71" y="-506.49" font-family="Times,serif" font-size="14.00">a</text>
</g>
<!-- http://w3id.org/oseg/ont/okh#installationGuide&#45;&gt;http://www.w3.org/2004/02/skos/core#Concept -->
<g id="edge10" class="edge">
<title>http://w3id.org/oseg/ont/okh#installationGuide&#45;&gt;http://www.w3.org/2004/02/skos/core#Concept</title>
<path fill="none" stroke="black" d="M1218.81,-505.65C1293.96,-529.03 1440.38,-574.6 1519.25,-599.15"/>
<polygon fill="black" stroke="black" points="1518.4,-602.55 1528.99,-602.18 1520.48,-595.87 1518.4,-602.55"/>
<text text-anchor="middle" x="1364.53" y="-556.2" font-family="Times,serif" font-size="14.00">a</text>
</g>
<!-- http://w3id.org/oseg/ont/okh#installationGuide&#45;&gt;http://w3id.org/oseg/ont/okh#Software -->
<g id="edge7" class="edge">
<title>http://w3id.org/oseg/ont/okh#installationGuide&#45;&gt;http://w3id.org/oseg/ont/okh#Software</title>
<path fill="none" stroke="black" d="M1172.96,-474.4C1173.39,-469.06 1173.87,-462.99 1174.34,-457.11"/>
<polygon fill="black" stroke="black" points="1177.85,-457.15 1175.16,-446.9 1170.87,-456.59 1177.85,-457.15"/>
<text text-anchor="middle" x="1095.65" y="-454.56" font-family="Times,serif" font-size="14.00">dcam:domainIncludes</text>
</g>
<!-- http://w3id.org/oseg/ont/okh#tsdc -->
<g id="node17" class="node">
<title>http://w3id.org/oseg/ont/okh#tsdc</title>
<ellipse fill="none" stroke="#e377c2" cx="2839.87" cy="-89.42" rx="54.39" ry="16.03"/>
<text text-anchor="middle" x="2839.87" y="-85.72" font-family="Times,serif" font-size="14.00">okh:tsdc</text>
</g>
<!-- http://w3id.org/oseg/ont/okh#alternativeLicense -->
<g id="node18" class="node">
<title>http://w3id.org/oseg/ont/okh#alternativeLicense</title>
<ellipse fill="none" stroke="#e377c2" cx="1987.22" cy="-528.77" rx="107.46" ry="16.03"/>
<text text-anchor="middle" x="1987.22" y="-525.07" font-family="Times,serif" font-size="14.00">okh:alternativeLi...</text>
</g>
<!-- http://w3id.org/oseg/ont/okh#alternativeLicense&#45;&gt;http://www.w3.org/2002/07/owl#ObjectProperty -->
<g id="edge13" class="edge">
<title>http://w3id.org/oseg/ont/okh#alternativeLicense&#45;&gt;http://www.w3.org/2002/07/owl#ObjectProperty</title>
<path fill="none" stroke="black" d="M2051.68,-515.65C2106.48,-504.49 2185.21,-488.46 2242.75,-476.74"/>
<polygon fill="black" stroke="black" points="2243.77,-480.11 2252.87,-474.68 2242.38,-473.25 2243.77,-480.11"/>
<text text-anchor="middle" x="2142.71" y="-500" font-family="Times,serif" font-size="14.00">a</text>
</g>
<!-- http://w3id.org/oseg/ont/okh#alternativeLicense&#45;&gt;http://www.w3.org/2004/02/skos/core#Concept -->
<g id="edge35" class="edge">
<title>http://w3id.org/oseg/ont/okh#alternativeLicense&#45;&gt;http://www.w3.org/2004/02/skos/core#Concept</title>
<path fill="none" stroke="black" d="M1924.25,-541.98C1846.97,-558.2 1716.54,-585.57 1638.12,-602.02"/>
<polygon fill="black" stroke="black" points="1636.95,-598.69 1627.88,-604.17 1638.39,-605.54 1636.95,-598.69"/>
<text text-anchor="middle" x="1776.69" y="-575.8" font-family="Times,serif" font-size="14.00">a</text>
</g>
<!-- http://w3id.org/oseg/ont/okh#alternativeLicense&#45;&gt;http://w3id.org/oseg/ont/okh#File -->
<g id="edge56" class="edge">
<title>http://w3id.org/oseg/ont/okh#alternativeLicense&#45;&gt;http://w3id.org/oseg/ont/okh#File</title>
<path fill="none" stroke="black" d="M2011.74,-544.66C2066.38,-580.05 2198.05,-665.34 2258.59,-704.55"/>
<polygon fill="black" stroke="black" points="2257.03,-707.72 2267.33,-710.21 2260.84,-701.84 2257.03,-707.72"/>
<text text-anchor="middle" x="2062.67" y="-628.4" font-family="Times,serif" font-size="14.00">dcam:rangeIncludes</text>
</g>
<!-- http://w3id.org/oseg/ont/okh#alternativeLicense&#45;&gt;http://schema.org/license -->
<g id="edge50" class="edge">
<title>http://w3id.org/oseg/ont/okh#alternativeLicense&#45;&gt;http://schema.org/license</title>
<path fill="none" stroke="black" d="M1996.05,-512.38C2019.48,-468.88 2083.34,-350.31 2111.43,-298.15"/>
<polygon fill="black" stroke="black" points="2114.58,-299.68 2116.24,-289.22 2108.41,-296.36 2114.58,-299.68"/>
<text text-anchor="middle" x="1994.74" y="-409.07" font-family="Times,serif" font-size="14.00">skos:closeMatch</text>
</g>
<!-- http://w3id.org/oseg/ont/okh#alternativeLicense&#45;&gt;http://w3id.org/oseg/ont/okhmetaLegalTag -->
<g id="edge6" class="edge">
<title>http://w3id.org/oseg/ont/okh#alternativeLicense&#45;&gt;http://w3id.org/oseg/ont/okhmetaLegalTag</title>
<path fill="none" stroke="black" d="M2003.89,-512.6C2040.55,-477.04 2128.3,-391.9 2171.01,-350.47"/>
<polygon fill="black" stroke="black" points="2173.69,-352.74 2178.43,-343.26 2168.82,-347.71 2173.69,-352.74"/>
<text text-anchor="middle" x="2010.45" y="-435.34" font-family="Times,serif" font-size="14.00">okhmeta:hasMetaTag</text>
</g>
<!-- http://w3id.org/oseg/ont/okh#license -->
<g id="node25" class="node">
<title>http://w3id.org/oseg/ont/okh#license</title>
<ellipse fill="none" stroke="#e377c2" cx="1966.23" cy="-229.01" rx="67.76" ry="16.03"/>
<text text-anchor="middle" x="1966.23" y="-225.31" font-family="Times,serif" font-size="14.00">okh:license</text>
</g>
<!-- http://w3id.org/oseg/ont/okh#alternativeLicense&#45;&gt;http://w3id.org/oseg/ont/okh#license -->
<g id="edge25" class="edge">
<title>http://w3id.org/oseg/ont/okh#alternativeLicense&#45;&gt;http://w3id.org/oseg/ont/okh#license</title>
<path fill="none" stroke="black" d="M1986.06,-512.23C1982.61,-462.89 1972.35,-316.45 1968.1,-255.79"/>
<polygon fill="black" stroke="black" points="1971.57,-255.23 1967.38,-245.5 1964.59,-255.72 1971.57,-255.23"/>
<text text-anchor="middle" x="1897.08" y="-387.81" font-family="Times,serif" font-size="14.00">schema:supersededBy</text>
</g>
<!-- http://w3id.org/oseg/ont/okh#Module -->
<g id="node28" class="node">
<title>http://w3id.org/oseg/ont/okh#Module</title>
<ellipse fill="none" stroke="#e377c2" cx="1827.96" cy="-283.25" rx="70.92" ry="16.03"/>
<text text-anchor="middle" x="1827.96" y="-279.55" font-family="Times,serif" font-size="14.00">okh:Module</text>
</g>
<!-- http://w3id.org/oseg/ont/okh#alternativeLicense&#45;&gt;http://w3id.org/oseg/ont/okh#Module -->
<g id="edge29" class="edge">
<title>http://w3id.org/oseg/ont/okh#alternativeLicense&#45;&gt;http://w3id.org/oseg/ont/okh#Module</title>
<path fill="none" stroke="black" d="M1976.52,-512.28C1949.15,-470.07 1876.41,-357.95 1843.97,-307.94"/>
<polygon fill="black" stroke="black" points="1846.78,-305.84 1838.4,-299.35 1840.91,-309.64 1846.78,-305.84"/>
<text text-anchor="middle" x="1832.25" y="-413.91" font-family="Times,serif" font-size="14.00">dcam:domainIncludes</text>
</g>
<!-- http://w3id.org/oseg/ont/okh#okhvOrig -->
<g id="node19" class="node">
<title>http://w3id.org/oseg/ont/okh#okhvOrig</title>
<ellipse fill="none" stroke="#e377c2" cx="113.08" cy="-108.15" rx="79.39" ry="16.03"/>
<text text-anchor="middle" x="113.08" y="-104.45" font-family="Times,serif" font-size="14.00">okh:okhvOrig</text>
</g>
<!-- http://w3id.org/oseg/ont/okh#fileUrl -->
<g id="node21" class="node">
<title>http://w3id.org/oseg/ont/okh#fileUrl</title>
<ellipse fill="none" stroke="#e377c2" cx="2559.63" cy="-693.66" rx="65.11" ry="16.03"/>
<text text-anchor="middle" x="2559.63" y="-689.96" font-family="Times,serif" font-size="14.00">okh:fileUrl</text>
</g>
<!-- http://w3id.org/oseg/ont/okh#fileUrl&#45;&gt;http://www.w3.org/2002/07/owl#ObjectProperty -->
<g id="edge17" class="edge">
<title>http://w3id.org/oseg/ont/okh#fileUrl&#45;&gt;http://www.w3.org/2002/07/owl#ObjectProperty</title>
<path fill="none" stroke="black" d="M2542.99,-677.7C2501.09,-637.55 2391.13,-532.15 2341.89,-484.96"/>
<polygon fill="black" stroke="black" points="2344.18,-482.3 2334.53,-477.91 2339.33,-487.36 2344.18,-482.3"/>
<text text-anchor="middle" x="2437.94" y="-570.13" font-family="Times,serif" font-size="14.00">a</text>
</g>
<!-- http://w3id.org/oseg/ont/okh#fileUrl&#45;&gt;http://w3id.org/oseg/ont/okh#File -->
<g id="edge9" class="edge">
<title>http://w3id.org/oseg/ont/okh#fileUrl&#45;&gt;http://w3id.org/oseg/ont/okh#File</title>
<path fill="none" stroke="black" d="M2500.46,-700.52C2455.59,-705.71 2394.19,-712.83 2349.29,-718.03"/>
<polygon fill="black" stroke="black" points="2348.64,-714.58 2339.11,-719.21 2349.45,-721.53 2348.64,-714.58"/>
<text text-anchor="middle" x="2502.87" y="-713.07" font-family="Times,serif" font-size="14.00">dcam:domainIncludes</text>
</g>
<!-- http://w3id.org/oseg/ont/okh#url -->
<g id="node32" class="node">
<title>http://w3id.org/oseg/ont/okh#url</title>
<ellipse fill="none" stroke="#e377c2" cx="2787.97" cy="-671" rx="47.25" ry="16.03"/>
<text text-anchor="middle" x="2787.97" y="-667.3" font-family="Times,serif" font-size="14.00">okh:url</text>
</g>
<!-- http://w3id.org/oseg/ont/okh#fileUrl&#45;&gt;http://w3id.org/oseg/ont/okh#url -->
<g id="edge38" class="edge">
<title>http://w3id.org/oseg/ont/okh#fileUrl&#45;&gt;http://w3id.org/oseg/ont/okh#url</title>
<path fill="none" stroke="black" d="M2620.22,-687.65C2654.95,-684.2 2698.22,-679.91 2732.12,-676.54"/>
<polygon fill="black" stroke="black" points="2732.71,-680 2742.32,-675.53 2732.02,-673.04 2732.71,-680"/>
<text text-anchor="middle" x="2636.17" y="-670.9" font-family="Times,serif" font-size="14.00">schema:supersededBy</text>
</g>
<!-- http://schema.org/url -->
<g id="node38" class="node">
<title>http://schema.org/url</title>
<ellipse fill="none" stroke="#e377c2" cx="2779.81" cy="-818.46" rx="67.35" ry="16.03"/>
<text text-anchor="middle" x="2779.81" y="-814.76" font-family="Times,serif" font-size="14.00">schema:url</text>
</g>
<!-- http://w3id.org/oseg/ont/okh#fileUrl&#45;&gt;http://schema.org/url -->
<g id="edge49" class="edge">
<title>http://w3id.org/oseg/ont/okh#fileUrl&#45;&gt;http://schema.org/url</title>
<path fill="none" stroke="black" d="M2586.19,-708.71C2625.7,-731.11 2700.03,-773.24 2744.21,-798.29"/>
<polygon fill="black" stroke="black" points="2742.73,-801.47 2753.16,-803.36 2746.18,-795.38 2742.73,-801.47"/>
<text text-anchor="middle" x="2612.2" y="-757.3" font-family="Times,serif" font-size="14.00">subPropertyOf</text>
</g>
<!-- http://w3id.org/oseg/ont/okh#relatedTsdc -->
<g id="node23" class="node">
<title>http://w3id.org/oseg/ont/okh#relatedTsdc</title>
<ellipse fill="none" stroke="#e377c2" cx="2628.24" cy="-236.63" rx="91.85" ry="16.03"/>
<text text-anchor="middle" x="2628.24" y="-232.93" font-family="Times,serif" font-size="14.00">okh:relatedTsdc</text>
</g>
<!-- http://w3id.org/oseg/ont/okh#relatedTsdc&#45;&gt;http://www.w3.org/2002/07/owl#ObjectProperty -->
<g id="edge21" class="edge">
<title>http://w3id.org/oseg/ont/okh#relatedTsdc&#45;&gt;http://www.w3.org/2002/07/owl#ObjectProperty</title>
<path fill="none" stroke="black" d="M2606.39,-252.45C2552.02,-291.79 2410.56,-394.16 2347.98,-439.44"/>
<polygon fill="black" stroke="black" points="2345.74,-436.74 2339.69,-445.44 2349.85,-442.41 2345.74,-436.74"/>
<text text-anchor="middle" x="2472.69" y="-349.74" font-family="Times,serif" font-size="14.00">a</text>
</g>
<!-- http://w3id.org/oseg/ont/okh#relatedTsdc&#45;&gt;http://w3id.org/oseg/ont/okh#tsdc -->
<g id="edge12" class="edge">
<title>http://w3id.org/oseg/ont/okh#relatedTsdc&#45;&gt;http://w3id.org/oseg/ont/okh#tsdc</title>
<path fill="none" stroke="black" d="M2658.61,-221.27C2701.21,-194.96 2777.66,-141.73 2816.27,-111.48"/>
<polygon fill="black" stroke="black" points="2818.72,-114 2824.35,-105.03 2814.35,-108.53 2818.72,-114"/>
<text text-anchor="middle" x="2657.44" y="-170.17" font-family="Times,serif" font-size="14.00">schema:supersededBy</text>
</g>
<!-- http://w3id.org/oseg/ont/okh#relatedTsdc&#45;&gt;http://w3id.org/oseg/ont/okh#tsdc -->
<g id="edge42" class="edge">
<title>http://w3id.org/oseg/ont/okh#relatedTsdc&#45;&gt;http://w3id.org/oseg/ont/okh#tsdc</title>
<path fill="none" stroke="black" d="M2644.36,-220.53C2678.04,-193.16 2756.3,-138.27 2802.98,-108.85"/>
<polygon fill="black" stroke="black" points="2804.95,-111.75 2811.6,-103.49 2801.26,-105.8 2804.95,-111.75"/>
<text text-anchor="middle" x="2681.17" y="-153.49" font-family="Times,serif" font-size="14.00">owl:sameAs</text>
</g>
<!-- http://w3id.org/oseg/ont/okh#spdxLicense -->
<g id="node26" class="node">
<title>http://w3id.org/oseg/ont/okh#spdxLicense</title>
<ellipse fill="none" stroke="#e377c2" cx="1938.24" cy="-474.49" rx="94.51" ry="16.03"/>
<text text-anchor="middle" x="1938.24" y="-470.79" font-family="Times,serif" font-size="14.00">okh:spdxLicense</text>
</g>
<!-- http://w3id.org/oseg/ont/okh#spdxLicense&#45;&gt;http://www.w3.org/2002/07/owl#ObjectProperty -->
<g id="edge26" class="edge">
<title>http://w3id.org/oseg/ont/okh#spdxLicense&#45;&gt;http://www.w3.org/2002/07/owl#ObjectProperty</title>
<path fill="none" stroke="black" d="M2031.49,-471.3C2082.48,-469.56 2146.14,-467.38 2200.44,-465.53"/>
<polygon fill="black" stroke="black" points="2200.59,-469.03 2210.46,-465.19 2200.35,-462.03 2200.59,-469.03"/>
<text text-anchor="middle" x="2111.46" y="-472.22" font-family="Times,serif" font-size="14.00">a</text>
</g>
<!-- http://w3id.org/oseg/ont/okh#spdxLicense&#45;&gt;http://www.w3.org/2004/02/skos/core#Concept -->
<g id="edge55" class="edge">
<title>http://w3id.org/oseg/ont/okh#spdxLicense&#45;&gt;http://www.w3.org/2004/02/skos/core#Concept</title>
<path fill="none" stroke="black" d="M1899.46,-489.47C1831.74,-515.64 1692.23,-569.55 1619.32,-597.72"/>
<polygon fill="black" stroke="black" points="1617.98,-594.48 1609.92,-601.35 1620.51,-601.01 1617.98,-594.48"/>
<text text-anchor="middle" x="1754.89" y="-547.39" font-family="Times,serif" font-size="14.00">a</text>
</g>
<!-- http://w3id.org/oseg/ont/okh#spdxLicense&#45;&gt;http://schema.org/license -->
<g id="edge3" class="edge">
<title>http://w3id.org/oseg/ont/okh#spdxLicense&#45;&gt;http://schema.org/license</title>
<path fill="none" stroke="black" d="M1953.21,-458.33C1986.06,-422.89 2064.6,-338.13 2103.04,-296.65"/>
<polygon fill="black" stroke="black" points="2105.72,-298.91 2109.95,-289.19 2100.59,-294.15 2105.72,-298.91"/>
<text text-anchor="middle" x="1969.13" y="-366.29" font-family="Times,serif" font-size="14.00">skos:closeMatch</text>
</g>
<!-- http://w3id.org/oseg/ont/okh#spdxLicense&#45;&gt;http://w3id.org/oseg/ont/okhmetaLegalTag -->
<g id="edge19" class="edge">
<title>http://w3id.org/oseg/ont/okh#spdxLicense&#45;&gt;http://w3id.org/oseg/ont/okhmetaLegalTag</title>
<path fill="none" stroke="black" d="M1965.74,-458.7C2012.27,-432 2106.54,-377.89 2158.59,-348.01"/>
<polygon fill="black" stroke="black" points="2160.56,-350.92 2167.49,-342.91 2157.08,-344.85 2160.56,-350.92"/>
<text text-anchor="middle" x="2139.16" y="-407.16" font-family="Times,serif" font-size="14.00">okhmeta:hasMetaTag</text>
</g>
<!-- http://w3id.org/oseg/ont/okh#spdxLicense&#45;&gt;http://w3id.org/oseg/ont/okh#license -->
<g id="edge40" class="edge">
<title>http://w3id.org/oseg/ont/okh#spdxLicense&#45;&gt;http://w3id.org/oseg/ont/okh#license</title>
<path fill="none" stroke="black" d="M1940.12,-458C1944.87,-416.34 1957.39,-306.54 1963.19,-255.63"/>
<polygon fill="black" stroke="black" points="1966.7,-255.76 1964.36,-245.42 1959.75,-254.96 1966.7,-255.76"/>
<text text-anchor="middle" x="1871.66" y="-345.61" font-family="Times,serif" font-size="14.00">schema:supersededBy</text>
</g>
<!-- http://spdx.org/rdf/terms#ListedLicense -->
<g id="node27" class="node">
<title>http://spdx.org/rdf/terms#ListedLicense</title>
<ellipse fill="none" stroke="#e377c2" cx="2102.78" cy="-716.32" rx="108.38" ry="16.03"/>
<text text-anchor="middle" x="2102.78" y="-712.62" font-family="Times,serif" font-size="14.00">spdx:ListedLicense</text>
</g>
<!-- http://w3id.org/oseg/ont/okh#spdxLicense&#45;&gt;http://spdx.org/rdf/terms#ListedLicense -->
<g id="edge28" class="edge">
<title>http://w3id.org/oseg/ont/okh#spdxLicense&#45;&gt;http://spdx.org/rdf/terms#ListedLicense</title>
<path fill="none" stroke="black" d="M1949.29,-490.73C1977.44,-532.1 2052,-641.69 2085.75,-691.3"/>
<polygon fill="black" stroke="black" points="2083.04,-693.53 2091.56,-699.83 2088.83,-689.59 2083.04,-693.53"/>
<text text-anchor="middle" x="1945.02" y="-594.81" font-family="Times,serif" font-size="14.00">dcam:rangeIncludes</text>
</g>
<!-- http://w3id.org/oseg/ont/okh#spdxLicense&#45;&gt;http://w3id.org/oseg/ont/okh#Module -->
<g id="edge46" class="edge">
<title>http://w3id.org/oseg/ont/okh#spdxLicense&#45;&gt;http://w3id.org/oseg/ont/okh#Module</title>
<path fill="none" stroke="black" d="M1928.84,-458.18C1909.55,-424.73 1865.39,-348.16 1842.43,-308.34"/>
<polygon fill="black" stroke="black" points="1845.37,-306.43 1837.34,-299.52 1839.3,-309.93 1845.37,-306.43"/>
<text text-anchor="middle" x="1807.63" y="-372.06" font-family="Times,serif" font-size="14.00">dcam:domainIncludes</text>
</g>
<!-- http://w3id.org/oseg/ont/okh#okhvPresent -->
<g id="node30" class="node">
<title>http://w3id.org/oseg/ont/okh#okhvPresent</title>
<ellipse fill="none" stroke="#e377c2" cx="374.12" cy="-253.16" rx="96.33" ry="16.03"/>
<text text-anchor="middle" x="374.12" y="-249.46" font-family="Times,serif" font-size="14.00">okh:okhvPresent</text>
</g>
<!-- http://w3id.org/oseg/ont/okh#okhvPresent&#45;&gt;http://www.w3.org/2002/07/owl#DatatypeProperty -->
<g id="edge31" class="edge">
<title>http://w3id.org/oseg/ont/okh#okhvPresent&#45;&gt;http://www.w3.org/2002/07/owl#DatatypeProperty</title>
<path fill="none" stroke="black" d="M394.45,-269.19C451.45,-314.13 612.97,-441.46 678.73,-493.3"/>
<polygon fill="black" stroke="black" points="676.6,-496.09 686.62,-499.53 680.94,-490.59 676.6,-496.09"/>
<text text-anchor="middle" x="532.09" y="-385.04" font-family="Times,serif" font-size="14.00">a</text>
</g>
<!-- http://w3id.org/oseg/ont/okh#okhvPresent&#45;&gt;http://w3id.org/oseg/ont/okh#okhvOrig -->
<g id="edge14" class="edge">
<title>http://w3id.org/oseg/ont/okh#okhvPresent&#45;&gt;http://w3id.org/oseg/ont/okh#okhvOrig</title>
<path fill="none" stroke="black" d="M345.93,-237.5C298.43,-211.11 202.44,-157.79 149.76,-128.53"/>
<polygon fill="black" stroke="black" points="151.2,-125.32 140.76,-123.52 147.8,-131.44 151.2,-125.32"/>
<text text-anchor="middle" x="220.35" y="-186.81" font-family="Times,serif" font-size="14.00">seeAlso</text>
</g>
<!-- http://w3id.org/oseg/ont/okh#okhvPresent&#45;&gt;http://w3id.org/oseg/ont/okh#okhv -->
<g id="edge36" class="edge">
<title>http://w3id.org/oseg/ont/okh#okhvPresent&#45;&gt;http://w3id.org/oseg/ont/okh#okhv</title>
<path fill="none" stroke="black" d="M371.61,-236.9C365.43,-196.71 349.38,-92.42 341.79,-43.11"/>
<polygon fill="black" stroke="black" points="345.2,-42.27 340.22,-32.92 338.28,-43.34 345.2,-42.27"/>
<text text-anchor="middle" x="303.7" y="-143.81" font-family="Times,serif" font-size="14.00">subPropertyOf</text>
</g>
<!-- http://w3id.org/oseg/ont/okh#openScad -->
<g id="node33" class="node">
<title>http://w3id.org/oseg/ont/okh#openScad</title>
<ellipse fill="none" stroke="#e377c2" cx="386.11" cy="-508.62" rx="82.05" ry="16.03"/>
<text text-anchor="middle" x="386.11" y="-504.92" font-family="Times,serif" font-size="14.00">okh:openScad</text>
</g>
<!-- http://w3id.org/oseg/ont/okh#openScad&#45;&gt;http://www.w3.org/2002/07/owl#DatatypeProperty -->
<g id="edge39" class="edge">
<title>http://w3id.org/oseg/ont/okh#openScad&#45;&gt;http://www.w3.org/2002/07/owl#DatatypeProperty</title>
<path fill="none" stroke="black" d="M467.94,-510.42C500.63,-511.14 539.09,-511.98 575.51,-512.78"/>
<polygon fill="black" stroke="black" points="575.64,-516.29 585.72,-513.01 575.79,-509.29 575.64,-516.29"/>
<text text-anchor="middle" x="517.22" y="-515.4" font-family="Times,serif" font-size="14.00">a</text>
</g>
<!-- http://w3id.org/oseg/ont/okh#openScad&#45;&gt;http://w3id.org/oseg/ont/okh#openSCAD -->
<g id="edge5" class="edge">
<title>http://w3id.org/oseg/ont/okh#openScad&#45;&gt;http://w3id.org/oseg/ont/okh#openSCAD</title>
<path fill="none" stroke="black" d="M377.85,-525C364.14,-562.99 339.23,-657.31 330.49,-703.47"/>
<polygon fill="black" stroke="black" points="327.04,-702.88 328.75,-713.33 333.93,-704.09 327.04,-702.88"/>
<text text-anchor="middle" x="274.17" y="-618.04" font-family="Times,serif" font-size="14.00">schema:supersededBy</text>
</g>
<!-- http://w3id.org/oseg/ont/okh#openScad&#45;&gt;http://w3id.org/oseg/ont/okh#openSCAD -->
<g id="edge11" class="edge">
<title>http://w3id.org/oseg/ont/okh#openScad&#45;&gt;http://w3id.org/oseg/ont/okh#openSCAD</title>
<path fill="none" stroke="black" d="M385.59,-525.1C379.5,-563.25 355.07,-657.82 339.8,-703.82"/>
<polygon fill="black" stroke="black" points="336.45,-702.78 336.5,-713.37 343.07,-705.06 336.45,-702.78"/>
<text text-anchor="middle" x="405.19" y="-618.26" font-family="Times,serif" font-size="14.00">owl:sameAs</text>
</g>
<!-- http://w3id.org/oseg/ont/okh#permaURL -->
<g id="node36" class="node">
<title>http://w3id.org/oseg/ont/okh#permaURL</title>
<ellipse fill="none" stroke="#e377c2" cx="2511.84" cy="-612.01" rx="87.86" ry="16.03"/>
<text text-anchor="middle" x="2511.84" y="-608.31" font-family="Times,serif" font-size="14.00">okh:permaURL</text>
</g>
<!-- http://w3id.org/oseg/ont/okh#permaURL&#45;&gt;http://www.w3.org/2002/07/owl#ObjectProperty -->
<g id="edge47" class="edge">
<title>http://w3id.org/oseg/ont/okh#permaURL&#45;&gt;http://www.w3.org/2002/07/owl#ObjectProperty</title>
<path fill="none" stroke="black" d="M2491.41,-596.19C2456.64,-569.28 2385.91,-514.53 2346.18,-483.77"/>
<polygon fill="black" stroke="black" points="2348.25,-480.95 2338.2,-477.59 2343.96,-486.48 2348.25,-480.95"/>
<text text-anchor="middle" x="2414.29" y="-543.78" font-family="Times,serif" font-size="14.00">a</text>
</g>
<!-- http://w3id.org/oseg/ont/okh#permaURL&#45;&gt;http://w3id.org/oseg/ont/okh#File -->
<g id="edge43" class="edge">
<title>http://w3id.org/oseg/ont/okh#permaURL&#45;&gt;http://w3id.org/oseg/ont/okh#File</title>
<path fill="none" stroke="black" d="M2481.46,-627.47C2441.11,-648 2369.9,-684.24 2326.62,-706.26"/>
<polygon fill="black" stroke="black" points="2324.9,-703.21 2317.57,-710.87 2328.07,-709.45 2324.9,-703.21"/>
<text text-anchor="middle" x="2326.04" y="-670.66" font-family="Times,serif" font-size="14.00">dcam:domainIncludes</text>
</g>
<!-- http://w3id.org/oseg/ont/okh#unit -->
<g id="node39" class="node">
<title>http://w3id.org/oseg/ont/okh#unit</title>
<ellipse fill="none" stroke="#e377c2" cx="925.27" cy="-708.68" rx="53.07" ry="16.03"/>
<text text-anchor="middle" x="925.27" y="-704.98" font-family="Times,serif" font-size="14.00">okh:unit</text>
</g>
<!-- http://w3id.org/oseg/ont/okh#unit&#45;&gt;http://www.w3.org/2002/07/owl#DatatypeProperty -->
<g id="edge51" class="edge">
<title>http://w3id.org/oseg/ont/okh#unit&#45;&gt;http://www.w3.org/2002/07/owl#DatatypeProperty</title>
<path fill="none" stroke="black" d="M907.78,-693.21C869.53,-659.37 778.26,-578.62 733.19,-538.76"/>
<polygon fill="black" stroke="black" points="735.41,-536.04 725.6,-532.04 730.77,-541.28 735.41,-536.04"/>
<text text-anchor="middle" x="815.99" y="-619.78" font-family="Times,serif" font-size="14.00">a</text>
</g>
<!-- http://w3id.org/oseg/ont/okh#unit&#45;&gt;http://w3id.org/oseg/ont/okh#Mass -->
<g id="edge32" class="edge">
<title>http://w3id.org/oseg/ont/okh#unit&#45;&gt;http://w3id.org/oseg/ont/okh#Mass</title>
<path fill="none" stroke="black" d="M978.31,-708.91C1027.36,-709.11 1100.57,-709.43 1154.3,-709.66"/>
<polygon fill="black" stroke="black" points="1154.42,-713.16 1164.44,-709.7 1154.45,-706.16 1154.42,-713.16"/>
<text text-anchor="middle" x="1066.31" y="-698.08" font-family="Times,serif" font-size="14.00">dcam:domainIncludes</text>
</g>
<!-- http://w3id.org/oseg/ont/okh#unit&#45;&gt;http://w3id.org/oseg/ont/okh#Dimensions -->
<g id="edge18" class="edge">
<title>http://w3id.org/oseg/ont/okh#unit&#45;&gt;http://w3id.org/oseg/ont/okh#Dimensions</title>
<path fill="none" stroke="black" d="M882.31,-718.41C833.56,-729.46 753.43,-747.61 696.53,-760.5"/>
<polygon fill="black" stroke="black" points="695.53,-757.14 686.55,-762.77 697.07,-763.97 695.53,-757.14"/>
<text text-anchor="middle" x="711.42" y="-743.26" font-family="Times,serif" font-size="14.00">dcam:domainIncludes</text>
</g>
<!-- http://w3id.org/oseg/ont/okh#hasMass -->
<g id="node40" class="node">
<title>http://w3id.org/oseg/ont/okh#hasMass</title>
<ellipse fill="none" stroke="#e377c2" cx="873.72" cy="-900.49" rx="77.15" ry="16.03"/>
<text text-anchor="middle" x="873.72" y="-896.79" font-family="Times,serif" font-size="14.00">okh:hasMass</text>
</g>
<!-- http://w3id.org/oseg/ont/okh#value -->
<g id="node41" class="node">
<title>http://w3id.org/oseg/ont/okh#value</title>
<ellipse fill="none" stroke="#e377c2" cx="979.66" cy="-667.93" rx="60.21" ry="16.03"/>
<text text-anchor="middle" x="979.66" y="-664.23" font-family="Times,serif" font-size="14.00">okh:value</text>
</g>
<!-- http://w3id.org/oseg/ont/okh#value&#45;&gt;http://www.w3.org/2002/07/owl#DatatypeProperty -->
<g id="edge54" class="edge">
<title>http://w3id.org/oseg/ont/okh#value&#45;&gt;http://www.w3.org/2002/07/owl#DatatypeProperty</title>
<path fill="none" stroke="black" d="M953.03,-653.05C904.18,-625.76 800.15,-567.65 744.33,-536.47"/>
<polygon fill="black" stroke="black" points="745.91,-533.35 735.48,-531.52 742.5,-539.46 745.91,-533.35"/>
<text text-anchor="middle" x="844.18" y="-598.56" font-family="Times,serif" font-size="14.00">a</text>
</g>
<!-- http://w3id.org/oseg/ont/okh#value&#45;&gt;http://w3id.org/oseg/ont/okh#Mass -->
<g id="edge15" class="edge">
<title>http://w3id.org/oseg/ont/okh#value&#45;&gt;http://w3id.org/oseg/ont/okh#Mass</title>
<path fill="none" stroke="black" d="M1030.57,-676.69C1069.23,-683.34 1122.54,-692.51 1163.39,-699.54"/>
<polygon fill="black" stroke="black" points="1163.04,-703.03 1173.49,-701.28 1164.22,-696.13 1163.04,-703.03"/>
<text text-anchor="middle" x="1174.98" y="-676.91" font-family="Times,serif" font-size="14.00">dcam:domainIncludes</text>
</g>
<!-- http://w3id.org/oseg/ont/okh#value&#45;&gt;http://w3id.org/oseg/ont/okh#hasMass -->
<g id="edge52" class="edge">
<title>http://w3id.org/oseg/ont/okh#value&#45;&gt;http://w3id.org/oseg/ont/okh#hasMass</title>
<path fill="none" stroke="black" d="M972.21,-684.28C954.01,-724.23 907.19,-827.01 885.31,-875.04"/>
<polygon fill="black" stroke="black" points="882.12,-873.6 881.16,-884.15 888.49,-876.5 882.12,-873.6"/>
<text text-anchor="middle" x="848.76" y="-783.46" font-family="Times,serif" font-size="14.00">schema:supersededBy</text>
</g>
</g>
</svg>
