<?xml version="1.0" encoding="UTF-8" standalone="no"?>
<!DOCTYPE svg PUBLIC "-//W3C//DTD SVG 1.1//EN"
 "http://www.w3.org/Graphics/SVG/1.1/DTD/svg11.dtd">
<!-- Generated by graphviz version 2.43.0 (0)
 -->
<!-- Title: G Pages: 1 -->
<svg width="1289pt" height="1328pt"
 viewBox="0.00 0.00 1289.00 1328.00" xmlns="http://www.w3.org/2000/svg" xmlns:xlink="http://www.w3.org/1999/xlink">
<g id="graph0" class="graph" transform="scale(1 1) rotate(0) translate(4 1324)">
<title>G</title>
<polygon fill="white" stroke="transparent" points="-4,4 -4,-1324 1285,-1324 1285,4 -4,4"/>
<!-- http://spdx.org/rdf/terms#SpdxItem -->
<g id="node1" class="node">
<title>http://spdx.org/rdf/terms#SpdxItem</title>
<ellipse fill="none" stroke="#1f77b4" cx="854.93" cy="-210.24" rx="87.86" ry="16.03"/>
<text text-anchor="middle" x="854.93" y="-206.54" font-family="Times,serif" font-size="14.00">spdx:SpdxItem</text>
</g>
<!-- http://www.w3.org/2004/02/skos/core#Collection -->
<g id="node2" class="node">
<title>http://www.w3.org/2004/02/skos/core#Collection</title>
<ellipse fill="none" stroke="#e377c2" cx="794.54" cy="-713.48" rx="87.86" ry="16.03"/>
<text text-anchor="middle" x="794.54" y="-709.78" font-family="Times,serif" font-size="14.00">skos:Collection</text>
</g>
<!-- http://w3id.org/oseg/ont/okhmeta#Tag -->
<g id="node3" class="node">
<title>http://w3id.org/oseg/ont/okhmeta#Tag</title>
<ellipse fill="none" stroke="#e377c2" cx="502.8" cy="-968.31" rx="76.24" ry="16.03"/>
<text text-anchor="middle" x="502.8" y="-964.61" font-family="Times,serif" font-size="14.00">okhmeta:Tag</text>
</g>
<!-- http://w3id.org/oseg/ont/okhmeta#Tag&#45;&gt;http://www.w3.org/2004/02/skos/core#Collection -->
<g id="edge34" class="edge">
<title>http://w3id.org/oseg/ont/okhmeta#Tag&#45;&gt;http://www.w3.org/2004/02/skos/core#Collection</title>
<path fill="none" stroke="black" d="M521.05,-952.37C571.09,-908.66 710.59,-786.8 768.66,-736.08"/>
<polygon fill="black" stroke="black" points="771.07,-738.63 776.3,-729.41 766.46,-733.36 771.07,-738.63"/>
</g>
<!-- http://www.w3.org/2004/02/skos/core#Concept -->
<g id="node4" class="node">
<title>http://www.w3.org/2004/02/skos/core#Concept</title>
<ellipse fill="none" stroke="#1f77b4" cx="516.13" cy="-622.37" rx="78.48" ry="16.03"/>
<text text-anchor="middle" x="516.13" y="-618.67" font-family="Times,serif" font-size="14.00">skos:Concept</text>
</g>
<!-- http://w3id.org/oseg/ont/okhmeta#Tag&#45;&gt;http://www.w3.org/2004/02/skos/core#Concept -->
<g id="edge27" class="edge">
<title>http://w3id.org/oseg/ont/okhmeta#Tag&#45;&gt;http://www.w3.org/2004/02/skos/core#Concept</title>
<path fill="none" stroke="black" d="M503.45,-951.62C505.58,-896.14 512.47,-717.47 515.09,-649.22"/>
<polygon fill="black" stroke="black" points="518.6,-649.02 515.49,-638.89 511.61,-648.75 518.6,-649.02"/>
<text text-anchor="middle" x="504.77" y="-804.22" font-family="Times,serif" font-size="14.00">a</text>
</g>
<!-- http://w3id.org/oseg/ont/okhmeta#MetaTag -->
<g id="node5" class="node">
<title>http://w3id.org/oseg/ont/okhmeta#MetaTag</title>
<ellipse fill="none" stroke="#e377c2" cx="470.28" cy="-915.41" rx="102.56" ry="16.03"/>
<text text-anchor="middle" x="470.28" y="-911.71" font-family="Times,serif" font-size="14.00">okhmeta:MetaTag</text>
</g>
<!-- http://w3id.org/oseg/ont/okhmeta#Tag&#45;&gt;http://w3id.org/oseg/ont/okhmeta#MetaTag -->
<g id="edge42" class="edge">
<title>http://w3id.org/oseg/ont/okhmeta#Tag&#45;&gt;http://w3id.org/oseg/ont/okhmeta#MetaTag</title>
<path fill="none" stroke="black" d="M499.67,-951.84C497.93,-948.13 495.77,-944.12 493.41,-940.17"/>
<polygon fill="black" stroke="black" points="496.34,-938.26 488,-931.72 490.45,-942.03 496.34,-938.26"/>
<text text-anchor="middle" x="573.54" y="-934.8" font-family="Times,serif" font-size="14.00">okhmeta:hasMetaTag</text>
</g>
<!-- http://w3id.org/oseg/ont/okhmeta#MetaTag&#45;&gt;http://w3id.org/oseg/ont/okhmeta#Tag -->
<g id="edge17" class="edge">
<title>http://w3id.org/oseg/ont/okhmeta#MetaTag&#45;&gt;http://w3id.org/oseg/ont/okhmeta#Tag</title>
<path fill="none" stroke="black" d="M473.42,-931.88C475.19,-935.66 477.4,-939.75 479.82,-943.79"/>
<polygon fill="black" stroke="black" points="477,-945.87 485.35,-952.39 482.88,-942.08 477,-945.87"/>
<text text-anchor="middle" x="472.12" y="-941.63" font-family="Times,serif" font-size="14.00">a</text>
</g>
<!-- http://w3id.org/oseg/ont/okhmeta#MetaTag&#45;&gt;http://w3id.org/oseg/ont/okhmeta#MetaTag -->
<g id="edge25" class="edge">
<title>http://w3id.org/oseg/ont/okhmeta#MetaTag&#45;&gt;http://w3id.org/oseg/ont/okhmeta#MetaTag</title>
<path fill="none" stroke="black" d="M565.27,-921.63C580.43,-920.72 590.81,-918.64 590.81,-915.41 590.81,-912.96 584.85,-911.18 575.37,-910.06"/>
<polygon fill="black" stroke="black" points="575.53,-906.56 565.27,-909.19 574.94,-913.54 575.53,-906.56"/>
<text text-anchor="middle" x="667.81" y="-911.71" font-family="Times,serif" font-size="14.00">okhmeta:hasMetaTag</text>
</g>
<!-- http://w3id.org/oseg/ont/1.1.0/okh&#45;meta -->
<g id="node6" class="node">
<title>http://w3id.org/oseg/ont/1.1.0/okh&#45;meta</title>
<ellipse fill="none" stroke="#e377c2" cx="1007.41" cy="-392.27" rx="79.81" ry="16.03"/>
<text text-anchor="middle" x="1007.41" y="-388.57" font-family="Times,serif" font-size="14.00">ns1:okh&#45;meta</text>
</g>
<!-- http://w3id.org/oseg/ont/okhmeta#DataTag -->
<g id="node7" class="node">
<title>http://w3id.org/oseg/ont/okhmeta#DataTag</title>
<ellipse fill="none" stroke="#e377c2" cx="660.7" cy="-1280.12" rx="100.32" ry="16.03"/>
<text text-anchor="middle" x="660.7" y="-1276.42" font-family="Times,serif" font-size="14.00">okhmeta:DataTag</text>
</g>
<!-- http://w3id.org/oseg/ont/okhmeta#DataTag&#45;&gt;http://w3id.org/oseg/ont/okhmeta#Tag -->
<g id="edge2" class="edge">
<title>http://w3id.org/oseg/ont/okhmeta#DataTag&#45;&gt;http://w3id.org/oseg/ont/okhmeta#Tag</title>
<path fill="none" stroke="black" d="M652.44,-1263.8C626.6,-1212.77 547.21,-1055.99 515.79,-993.96"/>
<polygon fill="black" stroke="black" points="518.82,-992.19 511.18,-984.85 512.58,-995.35 518.82,-992.19"/>
<text text-anchor="middle" x="579.62" y="-1132.68" font-family="Times,serif" font-size="14.00">a</text>
</g>
<!-- http://w3id.org/oseg/ont/okhmeta#DataTag&#45;&gt;http://w3id.org/oseg/ont/okhmeta#MetaTag -->
<g id="edge26" class="edge">
<title>http://w3id.org/oseg/ont/okhmeta#DataTag&#45;&gt;http://w3id.org/oseg/ont/okhmeta#MetaTag</title>
<path fill="none" stroke="black" d="M652.03,-1263.51C621.66,-1205.34 520.03,-1010.69 483.5,-940.73"/>
<polygon fill="black" stroke="black" points="486.52,-938.95 478.79,-931.71 480.32,-942.19 486.52,-938.95"/>
<text text-anchor="middle" x="644.76" y="-1105.92" font-family="Times,serif" font-size="14.00">okhmeta:hasMetaTag</text>
</g>
<!-- http://w3id.org/oseg/ont/okhmeta#TransportationTag -->
<g id="node8" class="node">
<title>http://w3id.org/oseg/ont/okhmeta#TransportationTag</title>
<ellipse fill="none" stroke="#e377c2" cx="854.55" cy="-947.23" rx="118.17" ry="16.03"/>
<text text-anchor="middle" x="854.55" y="-943.53" font-family="Times,serif" font-size="14.00">okhmeta:Transport...</text>
</g>
<!-- http://w3id.org/oseg/ont/okhmeta#TransportationTag&#45;&gt;http://w3id.org/oseg/ont/okhmeta#Tag -->
<g id="edge3" class="edge">
<title>http://w3id.org/oseg/ont/okhmeta#TransportationTag&#45;&gt;http://w3id.org/oseg/ont/okhmeta#Tag</title>
<path fill="none" stroke="black" d="M746.15,-953.73C694.7,-956.81 634.17,-960.44 586.35,-963.3"/>
<polygon fill="black" stroke="black" points="586.12,-959.81 576.35,-963.9 586.54,-966.8 586.12,-959.81"/>
<text text-anchor="middle" x="661.75" y="-962.31" font-family="Times,serif" font-size="14.00">a</text>
</g>
<!-- http://w3id.org/oseg/ont/okhmeta#TransportationTag&#45;&gt;http://w3id.org/oseg/ont/okhmeta#MetaTag -->
<g id="edge35" class="edge">
<title>http://w3id.org/oseg/ont/okhmeta#TransportationTag&#45;&gt;http://w3id.org/oseg/ont/okhmeta#MetaTag</title>
<path fill="none" stroke="black" d="M753.34,-938.85C697.12,-934.2 627.4,-928.42 571.23,-923.77"/>
<polygon fill="black" stroke="black" points="571.52,-920.28 561.26,-922.94 570.94,-927.26 571.52,-920.28"/>
<text text-anchor="middle" x="739.28" y="-920.11" font-family="Times,serif" font-size="14.00">okhmeta:hasMetaTag</text>
</g>
<!-- http://w3id.org/oseg/ont/okhmeta#PartsTag -->
<g id="node9" class="node">
<title>http://w3id.org/oseg/ont/okhmeta#PartsTag</title>
<ellipse fill="none" stroke="#e377c2" cx="680.07" cy="-665.51" rx="103.48" ry="16.03"/>
<text text-anchor="middle" x="680.07" y="-661.81" font-family="Times,serif" font-size="14.00">okhmeta:PartsTag</text>
</g>
<!-- http://w3id.org/oseg/ont/okhmeta#PartsTag&#45;&gt;http://w3id.org/oseg/ont/okhmeta#Tag -->
<g id="edge4" class="edge">
<title>http://w3id.org/oseg/ont/okhmeta#PartsTag&#45;&gt;http://w3id.org/oseg/ont/okhmeta#Tag</title>
<path fill="none" stroke="black" d="M670.54,-681.79C641.32,-731.7 552.86,-882.8 517.57,-943.08"/>
<polygon fill="black" stroke="black" points="514.41,-941.55 512.38,-951.95 520.45,-945.08 514.41,-941.55"/>
<text text-anchor="middle" x="589.56" y="-816.24" font-family="Times,serif" font-size="14.00">a</text>
</g>
<!-- http://w3id.org/oseg/ont/okhmeta#PartsTag&#45;&gt;http://w3id.org/oseg/ont/okhmeta#MetaTag -->
<g id="edge36" class="edge">
<title>http://w3id.org/oseg/ont/okhmeta#PartsTag&#45;&gt;http://w3id.org/oseg/ont/okhmeta#MetaTag</title>
<path fill="none" stroke="black" d="M666.31,-681.91C630.21,-724.9 532.71,-841.05 490.36,-891.49"/>
<polygon fill="black" stroke="black" points="487.57,-889.37 483.82,-899.28 492.93,-893.87 487.57,-889.37"/>
<text text-anchor="middle" x="501.33" y="-775.5" font-family="Times,serif" font-size="14.00">okhmeta:hasMetaTag</text>
</g>
<!-- http://w3id.org/oseg/ont/okhmeta#QualityTag -->
<g id="node10" class="node">
<title>http://w3id.org/oseg/ont/okhmeta#QualityTag</title>
<ellipse fill="none" stroke="#e377c2" cx="819.61" cy="-833.11" rx="113.27" ry="16.03"/>
<text text-anchor="middle" x="819.61" y="-829.41" font-family="Times,serif" font-size="14.00">okhmeta:QualityTag</text>
</g>
<!-- http://w3id.org/oseg/ont/okhmeta#QualityTag&#45;&gt;http://w3id.org/oseg/ont/okhmeta#Tag -->
<g id="edge6" class="edge">
<title>http://w3id.org/oseg/ont/okhmeta#QualityTag&#45;&gt;http://w3id.org/oseg/ont/okhmeta#Tag</title>
<path fill="none" stroke="black" d="M783.27,-848.62C724.68,-873.62 609.56,-922.75 546.55,-949.64"/>
<polygon fill="black" stroke="black" points="545.1,-946.45 537.28,-953.59 547.85,-952.89 545.1,-946.45"/>
<text text-anchor="middle" x="660.41" y="-887.93" font-family="Times,serif" font-size="14.00">a</text>
</g>
<!-- http://w3id.org/oseg/ont/okhmeta#QualityTag&#45;&gt;http://w3id.org/oseg/ont/okhmeta#MetaTag -->
<g id="edge39" class="edge">
<title>http://w3id.org/oseg/ont/okhmeta#QualityTag&#45;&gt;http://w3id.org/oseg/ont/okhmeta#MetaTag</title>
<path fill="none" stroke="black" d="M760.36,-847.07C698.73,-861.59 602.42,-884.28 537.87,-899.48"/>
<polygon fill="black" stroke="black" points="536.73,-896.16 527.8,-901.86 538.33,-902.97 536.73,-896.16"/>
<text text-anchor="middle" x="572.11" y="-877.08" font-family="Times,serif" font-size="14.00">okhmeta:hasMetaTag</text>
</g>
<!-- http://id.loc.gov/vocabulary/iso639&#45;1/en -->
<g id="node11" class="node">
<title>http://id.loc.gov/vocabulary/iso639&#45;1/en</title>
<ellipse fill="none" stroke="#e377c2" cx="763.28" cy="-335.26" rx="45.01" ry="16.03"/>
<text text-anchor="middle" x="763.28" y="-331.56" font-family="Times,serif" font-size="14.00">ns2:en</text>
</g>
<!-- http://w3id.org/oseg/ont/okhmeta#BasicTag -->
<g id="node12" class="node">
<title>http://w3id.org/oseg/ont/okhmeta#BasicTag</title>
<ellipse fill="none" stroke="#e377c2" cx="326.27" cy="-653.44" rx="103.48" ry="16.03"/>
<text text-anchor="middle" x="326.27" y="-649.74" font-family="Times,serif" font-size="14.00">okhmeta:BasicTag</text>
</g>
<!-- http://w3id.org/oseg/ont/okhmeta#BasicTag&#45;&gt;http://w3id.org/oseg/ont/okhmeta#Tag -->
<g id="edge8" class="edge">
<title>http://w3id.org/oseg/ont/okhmeta#BasicTag&#45;&gt;http://w3id.org/oseg/ont/okhmeta#Tag</title>
<path fill="none" stroke="black" d="M335.51,-669.92C364.53,-721.68 453.94,-881.16 488.74,-943.22"/>
<polygon fill="black" stroke="black" points="485.71,-944.97 493.65,-951.98 491.82,-941.55 485.71,-944.97"/>
<text text-anchor="middle" x="407.63" y="-810.37" font-family="Times,serif" font-size="14.00">a</text>
</g>
<!-- http://w3id.org/oseg/ont/okhmeta#BasicTag&#45;&gt;http://w3id.org/oseg/ont/okhmeta#MetaTag -->
<g id="edge41" class="edge">
<title>http://w3id.org/oseg/ont/okhmeta#BasicTag&#45;&gt;http://w3id.org/oseg/ont/okhmeta#MetaTag</title>
<path fill="none" stroke="black" d="M335.28,-669.83C359.68,-714.21 427.16,-836.97 456.43,-890.22"/>
<polygon fill="black" stroke="black" points="453.39,-891.95 461.28,-899.03 459.53,-888.58 453.39,-891.95"/>
<text text-anchor="middle" x="318.86" y="-783.82" font-family="Times,serif" font-size="14.00">okhmeta:hasMetaTag</text>
</g>
<!-- http://www.w3.org/2004/02/skos/core#member -->
<g id="node13" class="node">
<title>http://www.w3.org/2004/02/skos/core#member</title>
<ellipse fill="none" stroke="#e377c2" cx="386.64" cy="-16.13" rx="79.39" ry="16.03"/>
<text text-anchor="middle" x="386.64" y="-12.43" font-family="Times,serif" font-size="14.00">skos:member</text>
</g>
<!-- http://w3id.org/oseg/ont/okhmeta#DevelopmentTag -->
<g id="node14" class="node">
<title>http://w3id.org/oseg/ont/okhmeta#DevelopmentTag</title>
<ellipse fill="none" stroke="#e377c2" cx="124.94" cy="-828.85" rx="124.4" ry="16.03"/>
<text text-anchor="middle" x="124.94" y="-825.15" font-family="Times,serif" font-size="14.00">okhmeta:Developme...</text>
</g>
<!-- http://w3id.org/oseg/ont/okhmeta#DevelopmentTag&#45;&gt;http://w3id.org/oseg/ont/okhmeta#Tag -->
<g id="edge11" class="edge">
<title>http://w3id.org/oseg/ont/okhmeta#DevelopmentTag&#45;&gt;http://w3id.org/oseg/ont/okhmeta#Tag</title>
<path fill="none" stroke="black" d="M166.83,-844.31C237.53,-870.4 380.15,-923.04 454.79,-950.59"/>
<polygon fill="black" stroke="black" points="453.83,-953.96 464.42,-954.14 456.25,-947.39 453.83,-953.96"/>
<text text-anchor="middle" x="306.31" y="-901.25" font-family="Times,serif" font-size="14.00">a</text>
</g>
<!-- http://w3id.org/oseg/ont/okhmeta#DevelopmentTag&#45;&gt;http://w3id.org/oseg/ont/okhmeta#MetaTag -->
<g id="edge29" class="edge">
<title>http://w3id.org/oseg/ont/okhmeta#DevelopmentTag&#45;&gt;http://w3id.org/oseg/ont/okhmeta#MetaTag</title>
<path fill="none" stroke="black" d="M182.75,-843.34C244.26,-858.76 341.37,-883.1 405.44,-899.16"/>
<polygon fill="black" stroke="black" points="404.88,-902.63 415.43,-901.66 406.58,-895.84 404.88,-902.63"/>
<text text-anchor="middle" x="217.09" y="-875.05" font-family="Times,serif" font-size="14.00">okhmeta:hasMetaTag</text>
</g>
<!-- http://w3id.org/oseg/ont/okhmeta#IdentificationTag -->
<g id="node15" class="node">
<title>http://w3id.org/oseg/ont/okhmeta#IdentificationTag</title>
<ellipse fill="none" stroke="#e377c2" cx="165.03" cy="-1072.43" rx="109.7" ry="16.03"/>
<text text-anchor="middle" x="165.03" y="-1068.73" font-family="Times,serif" font-size="14.00">okhmeta:Identific...</text>
</g>
<!-- http://w3id.org/oseg/ont/okhmeta#IdentificationTag&#45;&gt;http://w3id.org/oseg/ont/okhmeta#Tag -->
<g id="edge31" class="edge">
<title>http://w3id.org/oseg/ont/okhmeta#IdentificationTag&#45;&gt;http://w3id.org/oseg/ont/okhmeta#Tag</title>
<path fill="none" stroke="black" d="M212.71,-1057.73C275.24,-1038.45 384.62,-1004.74 449.72,-984.67"/>
<polygon fill="black" stroke="black" points="450.86,-987.98 459.38,-981.69 448.8,-981.29 450.86,-987.98"/>
<text text-anchor="middle" x="326.72" y="-1025" font-family="Times,serif" font-size="14.00">a</text>
</g>
<!-- http://w3id.org/oseg/ont/okhmeta#IdentificationTag&#45;&gt;http://w3id.org/oseg/ont/okhmeta#MetaTag -->
<g id="edge9" class="edge">
<title>http://w3id.org/oseg/ont/okhmeta#IdentificationTag&#45;&gt;http://w3id.org/oseg/ont/okhmeta#MetaTag</title>
<path fill="none" stroke="black" d="M195.42,-1056.8C251.07,-1028.17 369.3,-967.35 430.98,-935.62"/>
<polygon fill="black" stroke="black" points="432.73,-938.66 440.02,-930.98 429.53,-932.44 432.73,-938.66"/>
<text text-anchor="middle" x="236.2" y="-1000.01" font-family="Times,serif" font-size="14.00">okhmeta:hasMetaTag</text>
</g>
<!-- http://spdx.org/licenses/GPL&#45;3.0&#45;or&#45;later -->
<g id="node16" class="node">
<title>http://spdx.org/licenses/GPL&#45;3.0&#45;or&#45;later</title>
<ellipse fill="none" stroke="#e377c2" cx="691.13" cy="-556.24" rx="108.79" ry="16.03"/>
<text text-anchor="middle" x="691.13" y="-552.54" font-family="Times,serif" font-size="14.00">spdxl:GPL&#45;3.0&#45;or&#45;...</text>
</g>
<!-- http://w3id.org/oseg/ont/oseg&#45;profiles#robinVobruba -->
<g id="node17" class="node">
<title>http://w3id.org/oseg/ont/oseg&#45;profiles#robinVobruba</title>
<ellipse fill="none" stroke="#e377c2" cx="1167.58" cy="-520.33" rx="113.69" ry="16.03"/>
<text text-anchor="middle" x="1167.58" y="-516.63" font-family="Times,serif" font-size="14.00">osegprof:robinVob...</text>
</g>
<!-- http://w3id.org/oseg/ont/okhmeta#MakingTag -->
<g id="node18" class="node">
<title>http://w3id.org/oseg/ont/okhmeta#MakingTag</title>
<ellipse fill="none" stroke="#e377c2" cx="601.13" cy="-1224.27" rx="113.69" ry="16.03"/>
<text text-anchor="middle" x="601.13" y="-1220.57" font-family="Times,serif" font-size="14.00">okhmeta:MakingTag</text>
</g>
<!-- http://w3id.org/oseg/ont/okhmeta#MakingTag&#45;&gt;http://w3id.org/oseg/ont/okhmeta#Tag -->
<g id="edge33" class="edge">
<title>http://w3id.org/oseg/ont/okhmeta#MakingTag&#45;&gt;http://w3id.org/oseg/ont/okhmeta#Tag</title>
<path fill="none" stroke="black" d="M594.83,-1207.87C578.18,-1164.53 532.91,-1046.68 512.74,-994.16"/>
<polygon fill="black" stroke="black" points="515.91,-992.65 509.05,-984.57 509.37,-995.16 515.91,-992.65"/>
<text text-anchor="middle" x="549.29" y="-1104.82" font-family="Times,serif" font-size="14.00">a</text>
</g>
<!-- http://w3id.org/oseg/ont/okhmeta#MakingTag&#45;&gt;http://w3id.org/oseg/ont/okhmeta#MetaTag -->
<g id="edge19" class="edge">
<title>http://w3id.org/oseg/ont/okhmeta#MakingTag&#45;&gt;http://w3id.org/oseg/ont/okhmeta#MetaTag</title>
<path fill="none" stroke="black" d="M594.1,-1207.66C572.53,-1156.75 507.2,-1002.54 481.16,-941.09"/>
<polygon fill="black" stroke="black" points="484.32,-939.57 477.19,-931.72 477.87,-942.3 484.32,-939.57"/>
<text text-anchor="middle" x="460.63" y="-1078.18" font-family="Times,serif" font-size="14.00">okhmeta:hasMetaTag</text>
</g>
<!-- http://w3id.org/oseg/ont/okhmeta#hasMetaTag -->
<g id="node19" class="node">
<title>http://w3id.org/oseg/ont/okhmeta#hasMetaTag</title>
<ellipse fill="none" stroke="#e377c2" cx="423.65" cy="-414.93" rx="120.42" ry="16.03"/>
<text text-anchor="middle" x="423.65" y="-411.23" font-family="Times,serif" font-size="14.00">okhmeta:hasMetaTag</text>
</g>
<!-- http://w3id.org/oseg/ont/okhmeta#hasMetaTag&#45;&gt;http://www.w3.org/2004/02/skos/core#Concept -->
<g id="edge44" class="edge">
<title>http://w3id.org/oseg/ont/okhmeta#hasMetaTag&#45;&gt;http://www.w3.org/2004/02/skos/core#Concept</title>
<path fill="none" stroke="black" d="M430.91,-431.2C446.94,-467.18 485.51,-553.68 504.77,-596.9"/>
<polygon fill="black" stroke="black" points="501.64,-598.46 508.91,-606.17 508.03,-595.61 501.64,-598.46"/>
<text text-anchor="middle" x="463.34" y="-517.85" font-family="Times,serif" font-size="14.00">a</text>
</g>
<!-- http://w3id.org/oseg/ont/okhmeta#hasMetaTag&#45;&gt;http://w3id.org/oseg/ont/okhmeta#MetaTag -->
<g id="edge13" class="edge">
<title>http://w3id.org/oseg/ont/okhmeta#hasMetaTag&#45;&gt;http://w3id.org/oseg/ont/okhmeta#MetaTag</title>
<path fill="none" stroke="black" d="M422.57,-431.25C424.01,-504.02 451.28,-799.12 464.58,-889.19"/>
<polygon fill="black" stroke="black" points="461.13,-889.78 466.13,-899.12 468.05,-888.7 461.13,-889.78"/>
<text text-anchor="middle" x="520.58" y="-649.02" font-family="Times,serif" font-size="14.00">okhmeta:hasMetaTag</text>
</g>
<!-- http://w3id.org/oseg/ont/okhmeta#hasMetaTag&#45;&gt;http://w3id.org/oseg/ont/okhmeta#MetaTag -->
<g id="edge14" class="edge">
<title>http://w3id.org/oseg/ont/okhmeta#hasMetaTag&#45;&gt;http://w3id.org/oseg/ont/okhmeta#MetaTag</title>
<path fill="none" stroke="black" d="M427.82,-431.33C439.91,-504.11 467.51,-798.15 471.04,-888.72"/>
<polygon fill="black" stroke="black" points="467.55,-889.07 471.36,-898.96 474.55,-888.86 467.55,-889.07"/>
<text text-anchor="middle" x="521.93" y="-663.83" font-family="Times,serif" font-size="14.00">dcam:rangeIncludes</text>
</g>
<!-- http://w3id.org/oseg/ont/okhmeta#hasMetaTag&#45;&gt;http://www.w3.org/2004/02/skos/core#member -->
<g id="edge30" class="edge">
<title>http://w3id.org/oseg/ont/okhmeta#hasMetaTag&#45;&gt;http://www.w3.org/2004/02/skos/core#member</title>
<path fill="none" stroke="black" d="M422.13,-398.55C416.41,-336.94 396.16,-118.75 389.09,-42.59"/>
<polygon fill="black" stroke="black" points="392.56,-42.05 388.15,-32.42 385.59,-42.7 392.56,-42.05"/>
<text text-anchor="middle" x="352.61" y="-224.37" font-family="Times,serif" font-size="14.00">subPropertyOf</text>
</g>
<!-- http://w3id.org/oseg/ont/oseg&#45;profiles#Iopa -->
<g id="node20" class="node">
<title>http://w3id.org/oseg/ont/oseg&#45;profiles#Iopa</title>
<ellipse fill="none" stroke="#e377c2" cx="938.89" cy="-476.79" rx="80.72" ry="16.03"/>
<text text-anchor="middle" x="938.89" y="-473.09" font-family="Times,serif" font-size="14.00">osegprof:Iopa</text>
</g>
<!-- http://w3id.org/oseg/ont/okhmeta#AcademicTag -->
<g id="node21" class="node">
<title>http://w3id.org/oseg/ont/okhmeta#AcademicTag</title>
<ellipse fill="none" stroke="#e377c2" cx="789.34" cy="-1178.74" rx="124.4" ry="16.03"/>
<text text-anchor="middle" x="789.34" y="-1175.04" font-family="Times,serif" font-size="14.00">okhmeta:AcademicTag</text>
</g>
<!-- http://w3id.org/oseg/ont/okhmeta#AcademicTag&#45;&gt;http://w3id.org/oseg/ont/okhmeta#Tag -->
<g id="edge16" class="edge">
<title>http://w3id.org/oseg/ont/okhmeta#AcademicTag&#45;&gt;http://w3id.org/oseg/ont/okhmeta#Tag</title>
<path fill="none" stroke="black" d="M767.33,-1162.58C716.35,-1125.14 590.12,-1032.43 532.43,-990.06"/>
<polygon fill="black" stroke="black" points="534.24,-987.05 524.11,-983.95 530.09,-992.69 534.24,-987.05"/>
<text text-anchor="middle" x="645.38" y="-1080.12" font-family="Times,serif" font-size="14.00">a</text>
</g>
<!-- http://w3id.org/oseg/ont/okhmeta#AcademicTag&#45;&gt;http://w3id.org/oseg/ont/okhmeta#MetaTag -->
<g id="edge45" class="edge">
<title>http://w3id.org/oseg/ont/okhmeta#AcademicTag&#45;&gt;http://w3id.org/oseg/ont/okhmeta#MetaTag</title>
<path fill="none" stroke="black" d="M769.86,-1162.67C715.35,-1117.68 561.11,-990.38 497.86,-938.17"/>
<polygon fill="black" stroke="black" points="499.85,-935.28 489.91,-931.61 495.39,-940.68 499.85,-935.28"/>
<text text-anchor="middle" x="556.86" y="-1054.22" font-family="Times,serif" font-size="14.00">okhmeta:hasMetaTag</text>
</g>
<!-- http://w3id.org/oseg/ont/okhmeta#HistoryTag -->
<g id="node22" class="node">
<title>http://w3id.org/oseg/ont/okhmeta#HistoryTag</title>
<ellipse fill="none" stroke="#e377c2" cx="125.68" cy="-958.18" rx="113.69" ry="16.03"/>
<text text-anchor="middle" x="125.68" y="-954.48" font-family="Times,serif" font-size="14.00">okhmeta:HistoryTag</text>
</g>
<!-- http://w3id.org/oseg/ont/okhmeta#HistoryTag&#45;&gt;http://w3id.org/oseg/ont/okhmeta#Tag -->
<g id="edge37" class="edge">
<title>http://w3id.org/oseg/ont/okhmeta#HistoryTag&#45;&gt;http://w3id.org/oseg/ont/okhmeta#Tag</title>
<path fill="none" stroke="black" d="M237.81,-961.19C295.12,-962.73 363.78,-964.57 416.85,-966"/>
<polygon fill="black" stroke="black" points="416.82,-969.5 426.91,-966.27 417.01,-962.5 416.82,-969.5"/>
<text text-anchor="middle" x="322.83" y="-967.39" font-family="Times,serif" font-size="14.00">a</text>
</g>
<!-- http://w3id.org/oseg/ont/okhmeta#HistoryTag&#45;&gt;http://w3id.org/oseg/ont/okhmeta#MetaTag -->
<g id="edge21" class="edge">
<title>http://w3id.org/oseg/ont/okhmeta#HistoryTag&#45;&gt;http://w3id.org/oseg/ont/okhmeta#MetaTag</title>
<path fill="none" stroke="black" d="M211.75,-947.5C262.77,-941.16 327.38,-933.14 379.25,-926.71"/>
<polygon fill="black" stroke="black" points="379.95,-930.15 389.45,-925.44 379.09,-923.2 379.95,-930.15"/>
<text text-anchor="middle" x="218.5" y="-925.9" font-family="Times,serif" font-size="14.00">okhmeta:hasMetaTag</text>
</g>
<!-- http://w3id.org/oseg/ont/okhmeta -->
<g id="node23" class="node">
<title>http://w3id.org/oseg/ont/okhmeta</title>
<ellipse fill="none" stroke="#e377c2" cx="914.69" cy="-434.68" rx="76.24" ry="16.03"/>
<text text-anchor="middle" x="914.69" y="-430.98" font-family="Times,serif" font-size="14.00">ns3:okhmeta</text>
</g>
<!-- http://w3id.org/oseg/ont/okhmeta&#45;&gt;http://spdx.org/rdf/terms#SpdxItem -->
<g id="edge46" class="edge">
<title>http://w3id.org/oseg/ont/okhmeta&#45;&gt;http://spdx.org/rdf/terms#SpdxItem</title>
<path fill="none" stroke="black" d="M910.29,-418.18C900.02,-379.59 874.36,-283.21 861.92,-236.48"/>
<polygon fill="black" stroke="black" points="865.29,-235.53 859.33,-226.77 858.52,-237.34 865.29,-235.53"/>
<text text-anchor="middle" x="881.6" y="-331.13" font-family="Times,serif" font-size="14.00">a</text>
</g>
<!-- http://w3id.org/oseg/ont/okhmeta&#45;&gt;http://w3id.org/oseg/ont/1.1.0/okh&#45;meta -->
<g id="edge1" class="edge">
<title>http://w3id.org/oseg/ont/okhmeta&#45;&gt;http://w3id.org/oseg/ont/1.1.0/okh&#45;meta</title>
<path fill="none" stroke="black" d="M947.12,-419.85C953.01,-417.15 959.24,-414.3 965.37,-411.5"/>
<polygon fill="black" stroke="black" points="967.21,-414.51 974.84,-407.17 964.29,-408.14 967.21,-414.51"/>
<text text-anchor="middle" x="904.74" y="-404.48" font-family="Times,serif" font-size="14.00">owl:versionIRI</text>
</g>
<!-- http://w3id.org/oseg/ont/okhmeta&#45;&gt;http://id.loc.gov/vocabulary/iso639&#45;1/en -->
<g id="edge28" class="edge">
<title>http://w3id.org/oseg/ont/okhmeta&#45;&gt;http://id.loc.gov/vocabulary/iso639&#45;1/en</title>
<path fill="none" stroke="black" d="M891.03,-419.15C864.8,-401.92 822.42,-374.09 793.73,-355.26"/>
<polygon fill="black" stroke="black" points="795.58,-352.28 785.3,-349.72 791.74,-358.14 795.58,-352.28"/>
<text text-anchor="middle" x="777.88" y="-391" font-family="Times,serif" font-size="14.00">dcterms:language</text>
</g>
<!-- http://w3id.org/oseg/ont/okhmeta&#45;&gt;http://spdx.org/licenses/GPL&#45;3.0&#45;or&#45;later -->
<g id="edge12" class="edge">
<title>http://w3id.org/oseg/ont/okhmeta&#45;&gt;http://spdx.org/licenses/GPL&#45;3.0&#45;or&#45;later</title>
<path fill="none" stroke="black" d="M886.83,-449.83C846.97,-471.51 773.56,-511.42 728.86,-535.73"/>
<polygon fill="black" stroke="black" points="727.17,-532.67 720.06,-540.52 730.51,-538.82 727.17,-532.67"/>
<text text-anchor="middle" x="731.85" y="-496.58" font-family="Times,serif" font-size="14.00">spdx:licenseDeclared</text>
</g>
<!-- http://w3id.org/oseg/ont/okhmeta&#45;&gt;http://w3id.org/oseg/ont/oseg&#45;profiles#robinVobruba -->
<g id="edge32" class="edge">
<title>http://w3id.org/oseg/ont/okhmeta&#45;&gt;http://w3id.org/oseg/ont/oseg&#45;profiles#robinVobruba</title>
<path fill="none" stroke="black" d="M944.72,-449.75C982.36,-464.84 1048.03,-487.58 1098.37,-503.27"/>
<polygon fill="black" stroke="black" points="1097.63,-506.71 1108.22,-506.31 1099.7,-500.02 1097.63,-506.71"/>
<text text-anchor="middle" x="1079.04" y="-480.31" font-family="Times,serif" font-size="14.00">dcterms:creator</text>
</g>
<!-- http://w3id.org/oseg/ont/okhmeta&#45;&gt;http://w3id.org/oseg/ont/oseg&#45;profiles#robinVobruba -->
<g id="edge43" class="edge">
<title>http://w3id.org/oseg/ont/okhmeta&#45;&gt;http://w3id.org/oseg/ont/oseg&#45;profiles#robinVobruba</title>
<path fill="none" stroke="black" d="M967.03,-446.57C1014.35,-460.77 1083.06,-484.16 1126.53,-500.93"/>
<polygon fill="black" stroke="black" points="1125.35,-504.22 1135.93,-504.61 1127.9,-497.71 1125.35,-504.22"/>
<text text-anchor="middle" x="1102.28" y="-462.55" font-family="Times,serif" font-size="14.00">schema:creator</text>
</g>
<!-- http://w3id.org/oseg/ont/okhmeta&#45;&gt;http://w3id.org/oseg/ont/oseg&#45;profiles#Iopa -->
<g id="edge15" class="edge">
<title>http://w3id.org/oseg/ont/okhmeta&#45;&gt;http://w3id.org/oseg/ont/oseg&#45;profiles#Iopa</title>
<path fill="none" stroke="black" d="M923.98,-450.84C924.15,-451.13 924.32,-451.43 924.49,-451.73"/>
<polygon fill="black" stroke="black" points="921.49,-453.54 929.51,-460.46 927.56,-450.05 921.49,-453.54"/>
<text text-anchor="middle" x="858.73" y="-455.08" font-family="Times,serif" font-size="14.00">dcterms:publisher</text>
</g>
<!-- http://w3id.org/oseg/ont/okhmeta#PhysicalTag -->
<g id="node24" class="node">
<title>http://w3id.org/oseg/ont/okhmeta#PhysicalTag</title>
<ellipse fill="none" stroke="#e377c2" cx="202.42" cy="-716.34" rx="118.17" ry="16.03"/>
<text text-anchor="middle" x="202.42" y="-712.64" font-family="Times,serif" font-size="14.00">okhmeta:PhysicalTag</text>
</g>
<!-- http://w3id.org/oseg/ont/okhmeta#PhysicalTag&#45;&gt;http://w3id.org/oseg/ont/okhmeta#Tag -->
<g id="edge38" class="edge">
<title>http://w3id.org/oseg/ont/okhmeta#PhysicalTag&#45;&gt;http://w3id.org/oseg/ont/okhmeta#Tag</title>
<path fill="none" stroke="black" d="M221.66,-732.48C273.48,-775.95 416.05,-895.53 475.85,-945.69"/>
<polygon fill="black" stroke="black" points="473.81,-948.55 483.72,-952.3 478.3,-943.19 473.81,-948.55"/>
<text text-anchor="middle" x="344.26" y="-842.89" font-family="Times,serif" font-size="14.00">a</text>
</g>
<!-- http://w3id.org/oseg/ont/okhmeta#PhysicalTag&#45;&gt;http://w3id.org/oseg/ont/okhmeta#MetaTag -->
<g id="edge23" class="edge">
<title>http://w3id.org/oseg/ont/okhmeta#PhysicalTag&#45;&gt;http://w3id.org/oseg/ont/okhmeta#MetaTag</title>
<path fill="none" stroke="black" d="M224.34,-732.63C272.25,-768.24 386.36,-853.04 440.63,-893.37"/>
<polygon fill="black" stroke="black" points="438.69,-896.29 448.81,-899.45 442.87,-890.68 438.69,-896.29"/>
<text text-anchor="middle" x="293.98" y="-801.8" font-family="Times,serif" font-size="14.00">okhmeta:hasMetaTag</text>
</g>
<!-- http://w3id.org/oseg/ont/okhmeta#DocumentationTag -->
<g id="node25" class="node">
<title>http://w3id.org/oseg/ont/okhmeta#DocumentationTag</title>
<ellipse fill="none" stroke="#e377c2" cx="842.24" cy="-1069.4" rx="125.32" ry="16.03"/>
<text text-anchor="middle" x="842.24" y="-1065.7" font-family="Times,serif" font-size="14.00">okhmeta:Documenta...</text>
</g>
<!-- http://w3id.org/oseg/ont/okhmeta#DocumentationTag&#45;&gt;http://w3id.org/oseg/ont/okhmeta#Tag -->
<g id="edge40" class="edge">
<title>http://w3id.org/oseg/ont/okhmeta#DocumentationTag&#45;&gt;http://w3id.org/oseg/ont/okhmeta#Tag</title>
<path fill="none" stroke="black" d="M792.16,-1054.48C729.27,-1035.75 621.8,-1003.75 557.03,-984.46"/>
<polygon fill="black" stroke="black" points="557.99,-981.09 547.41,-981.59 555.99,-987.8 557.99,-981.09"/>
<text text-anchor="middle" x="670.09" y="-1023.27" font-family="Times,serif" font-size="14.00">a</text>
</g>
<!-- http://w3id.org/oseg/ont/okhmeta#DocumentationTag&#45;&gt;http://w3id.org/oseg/ont/okhmeta#MetaTag -->
<g id="edge24" class="edge">
<title>http://w3id.org/oseg/ont/okhmeta#DocumentationTag&#45;&gt;http://w3id.org/oseg/ont/okhmeta#MetaTag</title>
<path fill="none" stroke="black" d="M804.53,-1053.79C735.95,-1025.39 591.03,-965.4 516.58,-934.58"/>
<polygon fill="black" stroke="black" points="517.57,-931.2 506.99,-930.61 514.89,-937.67 517.57,-931.2"/>
<text text-anchor="middle" x="583.55" y="-997.98" font-family="Times,serif" font-size="14.00">okhmeta:hasMetaTag</text>
</g>
<!-- http://w3id.org/oseg/ont/okhmeta#LegalTag -->
<g id="node26" class="node">
<title>http://w3id.org/oseg/ont/okhmeta#LegalTag</title>
<ellipse fill="none" stroke="#e377c2" cx="437.09" cy="-1303.71" rx="103.89" ry="16.03"/>
<text text-anchor="middle" x="437.09" y="-1300.01" font-family="Times,serif" font-size="14.00">okhmeta:LegalTag</text>
</g>
<!-- http://w3id.org/oseg/ont/okhmeta#LegalTag&#45;&gt;http://w3id.org/oseg/ont/okhmeta#Tag -->
<g id="edge18" class="edge">
<title>http://w3id.org/oseg/ont/okhmeta#LegalTag&#45;&gt;http://w3id.org/oseg/ont/okhmeta#Tag</title>
<path fill="none" stroke="black" d="M440.35,-1287.08C450.97,-1232.86 484.66,-1060.93 497.64,-994.69"/>
<polygon fill="black" stroke="black" points="501.12,-995.13 499.6,-984.64 494.25,-993.78 501.12,-995.13"/>
<text text-anchor="middle" x="464.49" y="-1144.68" font-family="Times,serif" font-size="14.00">a</text>
</g>
<!-- http://w3id.org/oseg/ont/okhmeta#LegalTag&#45;&gt;http://w3id.org/oseg/ont/okhmeta#MetaTag -->
<g id="edge5" class="edge">
<title>http://w3id.org/oseg/ont/okhmeta#LegalTag&#45;&gt;http://w3id.org/oseg/ont/okhmeta#MetaTag</title>
<path fill="none" stroke="black" d="M438.52,-1287.03C443.71,-1226.29 461.63,-1016.63 468.01,-942.03"/>
<polygon fill="black" stroke="black" points="471.5,-942.29 468.86,-932.03 464.52,-941.7 471.5,-942.29"/>
<text text-anchor="middle" x="376.26" y="-1103.33" font-family="Times,serif" font-size="14.00">okhmeta:hasMetaTag</text>
</g>
<!-- http://w3id.org/oseg/ont/okhmeta#ExtendedInfoTag -->
<g id="node27" class="node">
<title>http://w3id.org/oseg/ont/okhmeta#ExtendedInfoTag</title>
<ellipse fill="none" stroke="#e377c2" cx="263.66" cy="-1256.1" rx="120.42" ry="16.03"/>
<text text-anchor="middle" x="263.66" y="-1252.4" font-family="Times,serif" font-size="14.00">okhmeta:ExtendedI...</text>
</g>
<!-- http://w3id.org/oseg/ont/okhmeta#ExtendedInfoTag&#45;&gt;http://w3id.org/oseg/ont/okhmeta#Tag -->
<g id="edge20" class="edge">
<title>http://w3id.org/oseg/ont/okhmeta#ExtendedInfoTag&#45;&gt;http://w3id.org/oseg/ont/okhmeta#Tag</title>
<path fill="none" stroke="black" d="M277.21,-1239.8C317.33,-1191.52 435.69,-1049.07 482.97,-992.18"/>
<polygon fill="black" stroke="black" points="485.71,-994.35 489.41,-984.42 480.33,-989.88 485.71,-994.35"/>
<text text-anchor="middle" x="375.59" y="-1119.79" font-family="Times,serif" font-size="14.00">a</text>
</g>
<!-- http://w3id.org/oseg/ont/okhmeta#ExtendedInfoTag&#45;&gt;http://w3id.org/oseg/ont/okhmeta#MetaTag -->
<g id="edge7" class="edge">
<title>http://w3id.org/oseg/ont/okhmeta#ExtendedInfoTag&#45;&gt;http://w3id.org/oseg/ont/okhmeta#MetaTag</title>
<path fill="none" stroke="black" d="M273.63,-1239.67C306.98,-1184.69 414.8,-1006.89 454.99,-940.62"/>
<polygon fill="black" stroke="black" points="458.22,-942.04 460.42,-931.68 452.24,-938.41 458.22,-942.04"/>
<text text-anchor="middle" x="287.31" y="-1093.94" font-family="Times,serif" font-size="14.00">okhmeta:hasMetaTag</text>
</g>
<!-- http://w3id.org/oseg/ont/okhmeta#DataGatheringTag -->
<g id="node28" class="node">
<title>http://w3id.org/oseg/ont/okhmeta#DataGatheringTag</title>
<ellipse fill="none" stroke="#e377c2" cx="196.39" cy="-1179.39" rx="122.16" ry="16.03"/>
<text text-anchor="middle" x="196.39" y="-1175.69" font-family="Times,serif" font-size="14.00">okhmeta:DataGathe...</text>
</g>
<!-- http://w3id.org/oseg/ont/okhmeta#DataGatheringTag&#45;&gt;http://w3id.org/oseg/ont/okhmeta#Tag -->
<g id="edge22" class="edge">
<title>http://w3id.org/oseg/ont/okhmeta#DataGatheringTag&#45;&gt;http://w3id.org/oseg/ont/okhmeta#Tag</title>
<path fill="none" stroke="black" d="M219.67,-1163.35C274.12,-1125.85 409.79,-1032.38 471.43,-989.92"/>
<polygon fill="black" stroke="black" points="473.72,-992.59 479.97,-984.03 469.75,-986.82 473.72,-992.59"/>
<text text-anchor="middle" x="341.05" y="-1065.43" font-family="Times,serif" font-size="14.00">a</text>
</g>
<!-- http://w3id.org/oseg/ont/okhmeta#DataGatheringTag&#45;&gt;http://w3id.org/oseg/ont/okhmeta#MetaTag -->
<g id="edge10" class="edge">
<title>http://w3id.org/oseg/ont/okhmeta#DataGatheringTag&#45;&gt;http://w3id.org/oseg/ont/okhmeta#MetaTag</title>
<path fill="none" stroke="black" d="M213.11,-1163.27C259.72,-1118.36 391.23,-991.6 445.94,-938.87"/>
<polygon fill="black" stroke="black" points="448.66,-941.11 453.43,-931.65 443.8,-936.07 448.66,-941.11"/>
<text text-anchor="middle" x="252.52" y="-1039.87" font-family="Times,serif" font-size="14.00">okhmeta:hasMetaTag</text>
</g>
</g>
</svg>
