<?xml version="1.0" encoding="UTF-8" standalone="no"?>
<!DOCTYPE svg PUBLIC "-//W3C//DTD SVG 1.1//EN"
 "http://www.w3.org/Graphics/SVG/1.1/DTD/svg11.dtd">
<!-- Generated by graphviz version 2.43.0 (0)
 -->
<!-- Title: G Pages: 1 -->
<svg width="1580pt" height="1412pt"
 viewBox="0.00 0.00 1580.00 1412.00" xmlns="http://www.w3.org/2000/svg" xmlns:xlink="http://www.w3.org/1999/xlink">
<g id="graph0" class="graph" transform="scale(1 1) rotate(0) translate(4 1408)">
<title>G</title>
<polygon fill="white" stroke="transparent" points="-4,4 -4,-1408 1576,-1408 1576,4 -4,4"/>
<!-- http://w3id.org/oseg/ont/okhmeta#Tag -->
<g id="node1" class="node">
<title>http://w3id.org/oseg/ont/okhmeta#Tag</title>
<ellipse fill="none" stroke="#e377c2" cx="547.02" cy="-1004.56" rx="76.24" ry="16.03"/>
<text text-anchor="middle" x="547.02" y="-1000.86" font-family="Times,serif" font-size="14.00">okhmeta:Tag</text>
</g>
<!-- http://www.w3.org/2004/02/skos/core#Collection -->
<g id="node2" class="node">
<title>http://www.w3.org/2004/02/skos/core#Collection</title>
<ellipse fill="none" stroke="#e377c2" cx="88.1" cy="-979.78" rx="87.86" ry="16.03"/>
<text text-anchor="middle" x="88.1" y="-976.08" font-family="Times,serif" font-size="14.00">skos:Collection</text>
</g>
<!-- http://w3id.org/oseg/ont/okhmeta#Tag&#45;&gt;http://www.w3.org/2004/02/skos/core#Collection -->
<g id="edge1" class="edge">
<title>http://w3id.org/oseg/ont/okhmeta#Tag&#45;&gt;http://www.w3.org/2004/02/skos/core#Collection</title>
<path fill="none" stroke="black" d="M472.78,-1000.55C393.72,-996.28 268.37,-989.51 182.39,-984.87"/>
<polygon fill="black" stroke="black" points="182.54,-981.37 172.36,-984.33 182.16,-988.36 182.54,-981.37"/>
</g>
<!-- http://www.w3.org/2004/02/skos/core#Concept -->
<g id="node3" class="node">
<title>http://www.w3.org/2004/02/skos/core#Concept</title>
<ellipse fill="none" stroke="#1f77b4" cx="465.84" cy="-608.34" rx="78.48" ry="16.03"/>
<text text-anchor="middle" x="465.84" y="-604.64" font-family="Times,serif" font-size="14.00">skos:Concept</text>
</g>
<!-- http://w3id.org/oseg/ont/okhmeta#Tag&#45;&gt;http://www.w3.org/2004/02/skos/core#Concept -->
<g id="edge2" class="edge">
<title>http://w3id.org/oseg/ont/okhmeta#Tag&#45;&gt;http://www.w3.org/2004/02/skos/core#Concept</title>
<path fill="none" stroke="black" d="M543.64,-988.04C531.05,-926.62 486.89,-711.07 471.32,-635.09"/>
<polygon fill="black" stroke="black" points="474.67,-634.02 469.24,-624.93 467.82,-635.43 474.67,-634.02"/>
<text text-anchor="middle" x="502.98" y="-815.37" font-family="Times,serif" font-size="14.00">a</text>
</g>
<!-- http://w3id.org/oseg/ont/okhmeta#MetaTag -->
<g id="node6" class="node">
<title>http://w3id.org/oseg/ont/okhmeta#MetaTag</title>
<ellipse fill="none" stroke="#e377c2" cx="630.09" cy="-962.32" rx="102.56" ry="16.03"/>
<text text-anchor="middle" x="630.09" y="-958.62" font-family="Times,serif" font-size="14.00">okhmeta:MetaTag</text>
</g>
<!-- http://w3id.org/oseg/ont/okhmeta#Tag&#45;&gt;http://w3id.org/oseg/ont/okhmeta#MetaTag -->
<g id="edge29" class="edge">
<title>http://w3id.org/oseg/ont/okhmeta#Tag&#45;&gt;http://w3id.org/oseg/ont/okhmeta#MetaTag</title>
<path fill="none" stroke="black" d="M588.69,-990.93C593.45,-988.57 598.19,-986.08 602.69,-983.58"/>
<polygon fill="black" stroke="black" points="604.6,-986.52 611.5,-978.49 601.09,-980.46 604.6,-986.52"/>
<text text-anchor="middle" x="672.69" y="-991.05" font-family="Times,serif" font-size="14.00">okhmeta:hasMetaTag</text>
</g>
<!-- http://spdx.org/rdf/terms#SpdxItem -->
<g id="node4" class="node">
<title>http://spdx.org/rdf/terms#SpdxItem</title>
<ellipse fill="none" stroke="#1f77b4" cx="1033" cy="-563.39" rx="87.86" ry="16.03"/>
<text text-anchor="middle" x="1033" y="-559.69" font-family="Times,serif" font-size="14.00">spdx:SpdxItem</text>
</g>
<!-- http://w3id.org/oseg/ont/oseg&#45;profiles#robinVobruba -->
<g id="node5" class="node">
<title>http://w3id.org/oseg/ont/oseg&#45;profiles#robinVobruba</title>
<ellipse fill="none" stroke="#e377c2" cx="1289.37" cy="-481.67" rx="113.69" ry="16.03"/>
<text text-anchor="middle" x="1289.37" y="-477.97" font-family="Times,serif" font-size="14.00">osegprof:robinVob...</text>
</g>
<!-- http://w3id.org/oseg/ont/okhmeta#MetaTag&#45;&gt;http://w3id.org/oseg/ont/okhmeta#Tag -->
<g id="edge41" class="edge">
<title>http://w3id.org/oseg/ont/okhmeta#MetaTag&#45;&gt;http://w3id.org/oseg/ont/okhmeta#Tag</title>
<path fill="none" stroke="black" d="M585.99,-977.18C581.85,-979.28 577.74,-981.46 573.83,-983.64"/>
<polygon fill="black" stroke="black" points="572.03,-980.63 565.14,-988.69 575.55,-986.69 572.03,-980.63"/>
<text text-anchor="middle" x="575.41" y="-984.21" font-family="Times,serif" font-size="14.00">a</text>
</g>
<!-- http://w3id.org/oseg/ont/okhmeta#MetaTag&#45;&gt;http://w3id.org/oseg/ont/okhmeta#MetaTag -->
<g id="edge8" class="edge">
<title>http://w3id.org/oseg/ont/okhmeta#MetaTag&#45;&gt;http://w3id.org/oseg/ont/okhmeta#MetaTag</title>
<path fill="none" stroke="black" d="M725.09,-968.54C740.25,-967.63 750.62,-965.56 750.62,-962.32 750.62,-959.87 744.67,-958.09 735.18,-956.97"/>
<polygon fill="black" stroke="black" points="735.35,-953.47 725.09,-956.11 734.75,-960.45 735.35,-953.47"/>
<text text-anchor="middle" x="827.62" y="-958.62" font-family="Times,serif" font-size="14.00">okhmeta:hasMetaTag</text>
</g>
<!-- http://w3id.org/oseg/ont/okhmeta#BasicTag -->
<g id="node7" class="node">
<title>http://w3id.org/oseg/ont/okhmeta#BasicTag</title>
<ellipse fill="none" stroke="#e377c2" cx="278.53" cy="-1165.68" rx="103.48" ry="16.03"/>
<text text-anchor="middle" x="278.53" y="-1161.98" font-family="Times,serif" font-size="14.00">okhmeta:BasicTag</text>
</g>
<!-- http://w3id.org/oseg/ont/okhmeta#BasicTag&#45;&gt;http://w3id.org/oseg/ont/okhmeta#Tag -->
<g id="edge4" class="edge">
<title>http://w3id.org/oseg/ont/okhmeta#BasicTag&#45;&gt;http://w3id.org/oseg/ont/okhmeta#Tag</title>
<path fill="none" stroke="black" d="M304.76,-1149.94C353.64,-1120.61 458.58,-1057.64 512.89,-1025.05"/>
<polygon fill="black" stroke="black" points="514.7,-1028.04 521.47,-1019.9 511.1,-1022.04 514.7,-1028.04"/>
<text text-anchor="middle" x="404.33" y="-1091.29" font-family="Times,serif" font-size="14.00">a</text>
</g>
<!-- http://w3id.org/oseg/ont/okhmeta#BasicTag&#45;&gt;http://w3id.org/oseg/ont/okhmeta#MetaTag -->
<g id="edge16" class="edge">
<title>http://w3id.org/oseg/ont/okhmeta#BasicTag&#45;&gt;http://w3id.org/oseg/ont/okhmeta#MetaTag</title>
<path fill="none" stroke="black" d="M305.82,-1149.9C368.51,-1113.63 522.81,-1024.38 593.57,-983.45"/>
<polygon fill="black" stroke="black" points="595.67,-986.28 602.58,-978.24 592.17,-980.22 595.67,-986.28"/>
<text text-anchor="middle" x="372.7" y="-1070.47" font-family="Times,serif" font-size="14.00">okhmeta:hasMetaTag</text>
</g>
<!-- http://w3id.org/oseg/ont/okhmeta#MakingTag -->
<g id="node8" class="node">
<title>http://w3id.org/oseg/ont/okhmeta#MakingTag</title>
<ellipse fill="none" stroke="#e377c2" cx="330.87" cy="-706.61" rx="113.69" ry="16.03"/>
<text text-anchor="middle" x="330.87" y="-702.91" font-family="Times,serif" font-size="14.00">okhmeta:MakingTag</text>
</g>
<!-- http://w3id.org/oseg/ont/okhmeta#MakingTag&#45;&gt;http://w3id.org/oseg/ont/okhmeta#Tag -->
<g id="edge28" class="edge">
<title>http://w3id.org/oseg/ont/okhmeta#MakingTag&#45;&gt;http://w3id.org/oseg/ont/okhmeta#Tag</title>
<path fill="none" stroke="black" d="M342.8,-723.05C378.75,-772.6 486.17,-920.68 529.06,-979.8"/>
<polygon fill="black" stroke="black" points="526.43,-982.13 535.13,-988.17 532.09,-978.02 526.43,-982.13"/>
<text text-anchor="middle" x="431.43" y="-855.22" font-family="Times,serif" font-size="14.00">a</text>
</g>
<!-- http://w3id.org/oseg/ont/okhmeta#MakingTag&#45;&gt;http://w3id.org/oseg/ont/okhmeta#MetaTag -->
<g id="edge3" class="edge">
<title>http://w3id.org/oseg/ont/okhmeta#MakingTag&#45;&gt;http://w3id.org/oseg/ont/okhmeta#MetaTag</title>
<path fill="none" stroke="black" d="M350.04,-722.99C401.66,-767.1 543.67,-888.47 603.24,-939.37"/>
<polygon fill="black" stroke="black" points="601.21,-942.24 611.08,-946.07 605.75,-936.92 601.21,-942.24"/>
<text text-anchor="middle" x="553.64" y="-834.98" font-family="Times,serif" font-size="14.00">okhmeta:hasMetaTag</text>
</g>
<!-- http://w3id.org/oseg/ont/okhmeta#PhysicalTag -->
<g id="node9" class="node">
<title>http://w3id.org/oseg/ont/okhmeta#PhysicalTag</title>
<ellipse fill="none" stroke="#e377c2" cx="244.17" cy="-1020.74" rx="118.17" ry="16.03"/>
<text text-anchor="middle" x="244.17" y="-1017.04" font-family="Times,serif" font-size="14.00">okhmeta:PhysicalTag</text>
</g>
<!-- http://w3id.org/oseg/ont/okhmeta#PhysicalTag&#45;&gt;http://w3id.org/oseg/ont/okhmeta#Tag -->
<g id="edge6" class="edge">
<title>http://w3id.org/oseg/ont/okhmeta#PhysicalTag&#45;&gt;http://w3id.org/oseg/ont/okhmeta#Tag</title>
<path fill="none" stroke="black" d="M354.36,-1014.86C390.08,-1012.95 429.1,-1010.86 462.63,-1009.07"/>
<polygon fill="black" stroke="black" points="463.05,-1012.55 472.85,-1008.53 462.68,-1005.56 463.05,-1012.55"/>
<text text-anchor="middle" x="404" y="-1015.76" font-family="Times,serif" font-size="14.00">a</text>
</g>
<!-- http://w3id.org/oseg/ont/okhmeta#PhysicalTag&#45;&gt;http://w3id.org/oseg/ont/okhmeta#MetaTag -->
<g id="edge18" class="edge">
<title>http://w3id.org/oseg/ont/okhmeta#PhysicalTag&#45;&gt;http://w3id.org/oseg/ont/okhmeta#MetaTag</title>
<path fill="none" stroke="black" d="M323.67,-1008.71C388.41,-998.91 479.6,-985.1 545.65,-975.11"/>
<polygon fill="black" stroke="black" points="546.25,-978.55 555.61,-973.6 545.2,-971.63 546.25,-978.55"/>
<text text-anchor="middle" x="357.66" y="-980.71" font-family="Times,serif" font-size="14.00">okhmeta:hasMetaTag</text>
</g>
<!-- http://w3id.org/oseg/ont/okhmeta#IdentificationTag -->
<g id="node10" class="node">
<title>http://w3id.org/oseg/ont/okhmeta#IdentificationTag</title>
<ellipse fill="none" stroke="#e377c2" cx="799.28" cy="-692.92" rx="109.7" ry="16.03"/>
<text text-anchor="middle" x="799.28" y="-689.22" font-family="Times,serif" font-size="14.00">okhmeta:Identific...</text>
</g>
<!-- http://w3id.org/oseg/ont/okhmeta#IdentificationTag&#45;&gt;http://w3id.org/oseg/ont/okhmeta#Tag -->
<g id="edge7" class="edge">
<title>http://w3id.org/oseg/ont/okhmeta#IdentificationTag&#45;&gt;http://w3id.org/oseg/ont/okhmeta#Tag</title>
<path fill="none" stroke="black" d="M786.08,-709.24C744.44,-760.67 615.8,-919.6 566.51,-980.49"/>
<polygon fill="black" stroke="black" points="563.67,-978.43 560.1,-988.41 569.11,-982.84 563.67,-978.43"/>
<text text-anchor="middle" x="671.79" y="-848.66" font-family="Times,serif" font-size="14.00">a</text>
</g>
<!-- http://w3id.org/oseg/ont/okhmeta#IdentificationTag&#45;&gt;http://w3id.org/oseg/ont/okhmeta#MetaTag -->
<g id="edge45" class="edge">
<title>http://w3id.org/oseg/ont/okhmeta#IdentificationTag&#45;&gt;http://w3id.org/oseg/ont/okhmeta#MetaTag</title>
<path fill="none" stroke="black" d="M788.95,-709.37C760.33,-754.94 679.87,-883.06 645.73,-937.42"/>
<polygon fill="black" stroke="black" points="642.64,-935.76 640.29,-946.09 648.57,-939.48 642.64,-935.76"/>
<text text-anchor="middle" x="640.34" y="-812.2" font-family="Times,serif" font-size="14.00">okhmeta:hasMetaTag</text>
</g>
<!-- http://w3id.org/oseg/ont/okhmeta -->
<g id="node11" class="node">
<title>http://w3id.org/oseg/ont/okhmeta</title>
<ellipse fill="none" stroke="#e377c2" cx="1264.14" cy="-529.81" rx="76.24" ry="16.03"/>
<text text-anchor="middle" x="1264.14" y="-526.11" font-family="Times,serif" font-size="14.00">ns1:okhmeta</text>
</g>
<!-- http://w3id.org/oseg/ont/okhmeta&#45;&gt;http://spdx.org/rdf/terms#SpdxItem -->
<g id="edge23" class="edge">
<title>http://w3id.org/oseg/ont/okhmeta&#45;&gt;http://spdx.org/rdf/terms#SpdxItem</title>
<path fill="none" stroke="black" d="M1200.98,-538.99C1173.6,-542.96 1141.24,-547.67 1112.27,-551.88"/>
<polygon fill="black" stroke="black" points="1111.57,-548.44 1102.18,-553.34 1112.58,-555.37 1111.57,-548.44"/>
<text text-anchor="middle" x="1152.13" y="-549.23" font-family="Times,serif" font-size="14.00">a</text>
</g>
<!-- http://w3id.org/oseg/ont/okhmeta&#45;&gt;http://w3id.org/oseg/ont/oseg&#45;profiles#robinVobruba -->
<g id="edge27" class="edge">
<title>http://w3id.org/oseg/ont/okhmeta&#45;&gt;http://w3id.org/oseg/ont/oseg&#45;profiles#robinVobruba</title>
<path fill="none" stroke="black" d="M1279.97,-513.85C1281.17,-511.81 1282.33,-509.69 1283.42,-507.54"/>
<polygon fill="black" stroke="black" points="1286.71,-508.77 1287.65,-498.22 1280.33,-505.88 1286.71,-508.77"/>
<text text-anchor="middle" x="1224.2" y="-499.5" font-family="Times,serif" font-size="14.00">dcterms:creator</text>
</g>
<!-- http://w3id.org/oseg/ont/okhmeta&#45;&gt;http://w3id.org/oseg/ont/oseg&#45;profiles#robinVobruba -->
<g id="edge31" class="edge">
<title>http://w3id.org/oseg/ont/okhmeta&#45;&gt;http://w3id.org/oseg/ont/oseg&#45;profiles#robinVobruba</title>
<path fill="none" stroke="black" d="M1265.85,-513.29C1266.64,-511.28 1267.55,-509.2 1268.53,-507.11"/>
<polygon fill="black" stroke="black" points="1271.75,-508.52 1273.3,-498.04 1265.55,-505.26 1271.75,-508.52"/>
<text text-anchor="middle" x="1322.69" y="-499" font-family="Times,serif" font-size="14.00">schema:creator</text>
</g>
<!-- http://id.loc.gov/vocabulary/iso639&#45;1/en -->
<g id="node19" class="node">
<title>http://id.loc.gov/vocabulary/iso639&#45;1/en</title>
<ellipse fill="none" stroke="#e377c2" cx="1218.48" cy="-712.12" rx="45.01" ry="16.03"/>
<text text-anchor="middle" x="1218.48" y="-708.42" font-family="Times,serif" font-size="14.00">ns2:en</text>
</g>
<!-- http://w3id.org/oseg/ont/okhmeta&#45;&gt;http://id.loc.gov/vocabulary/iso639&#45;1/en -->
<g id="edge17" class="edge">
<title>http://w3id.org/oseg/ont/okhmeta&#45;&gt;http://id.loc.gov/vocabulary/iso639&#45;1/en</title>
<path fill="none" stroke="black" d="M1260.01,-546.31C1252.07,-578.04 1234.6,-647.78 1225.04,-685.92"/>
<polygon fill="black" stroke="black" points="1221.61,-685.24 1222.57,-695.79 1228.4,-686.94 1221.61,-685.24"/>
<text text-anchor="middle" x="1178.03" y="-619.92" font-family="Times,serif" font-size="14.00">dcterms:language</text>
</g>
<!-- http://w3id.org/oseg/ont/1.1.0/okh&#45;meta -->
<g id="node20" class="node">
<title>http://w3id.org/oseg/ont/1.1.0/okh&#45;meta</title>
<ellipse fill="none" stroke="#e377c2" cx="1491.82" cy="-501.35" rx="79.81" ry="16.03"/>
<text text-anchor="middle" x="1491.82" y="-497.65" font-family="Times,serif" font-size="14.00">ns3:okh&#45;meta</text>
</g>
<!-- http://w3id.org/oseg/ont/okhmeta&#45;&gt;http://w3id.org/oseg/ont/1.1.0/okh&#45;meta -->
<g id="edge37" class="edge">
<title>http://w3id.org/oseg/ont/okhmeta&#45;&gt;http://w3id.org/oseg/ont/1.1.0/okh&#45;meta</title>
<path fill="none" stroke="black" d="M1330.3,-521.54C1356.26,-518.29 1386.26,-514.54 1413.31,-511.16"/>
<polygon fill="black" stroke="black" points="1414.03,-514.6 1423.52,-509.89 1413.16,-507.65 1414.03,-514.6"/>
<text text-anchor="middle" x="1423.31" y="-520.15" font-family="Times,serif" font-size="14.00">owl:versionIRI</text>
</g>
<!-- http://spdx.org/licenses/GPL&#45;3.0&#45;or&#45;later -->
<g id="node22" class="node">
<title>http://spdx.org/licenses/GPL&#45;3.0&#45;or&#45;later</title>
<ellipse fill="none" stroke="#e377c2" cx="1314.6" cy="-570.47" rx="108.79" ry="16.03"/>
<text text-anchor="middle" x="1314.6" y="-566.77" font-family="Times,serif" font-size="14.00">spdxl:GPL&#45;3.0&#45;or&#45;...</text>
</g>
<!-- http://w3id.org/oseg/ont/okhmeta&#45;&gt;http://spdx.org/licenses/GPL&#45;3.0&#45;or&#45;later -->
<g id="edge19" class="edge">
<title>http://w3id.org/oseg/ont/okhmeta&#45;&gt;http://spdx.org/licenses/GPL&#45;3.0&#45;or&#45;later</title>
<path fill="none" stroke="black" d="M1283.8,-545.65C1284.68,-546.36 1285.58,-547.08 1286.48,-547.81"/>
<polygon fill="black" stroke="black" points="1284.61,-550.79 1294.59,-554.34 1289,-545.34 1284.61,-550.79"/>
<text text-anchor="middle" x="1361.14" y="-535.53" font-family="Times,serif" font-size="14.00">spdx:licenseDeclared</text>
</g>
<!-- http://w3id.org/oseg/ont/oseg&#45;profiles#Iopa -->
<g id="node27" class="node">
<title>http://w3id.org/oseg/ont/oseg&#45;profiles#Iopa</title>
<ellipse fill="none" stroke="#e377c2" cx="1149.07" cy="-330.89" rx="80.72" ry="16.03"/>
<text text-anchor="middle" x="1149.07" y="-327.19" font-family="Times,serif" font-size="14.00">osegprof:Iopa</text>
</g>
<!-- http://w3id.org/oseg/ont/okhmeta&#45;&gt;http://w3id.org/oseg/ont/oseg&#45;profiles#Iopa -->
<g id="edge44" class="edge">
<title>http://w3id.org/oseg/ont/okhmeta&#45;&gt;http://w3id.org/oseg/ont/oseg&#45;profiles#Iopa</title>
<path fill="none" stroke="black" d="M1254.73,-513.53C1234.66,-478.84 1187.56,-397.42 1163.61,-356.02"/>
<polygon fill="black" stroke="black" points="1166.49,-354.02 1158.46,-347.12 1160.43,-357.52 1166.49,-354.02"/>
<text text-anchor="middle" x="1143.67" y="-438.58" font-family="Times,serif" font-size="14.00">dcterms:publisher</text>
</g>
<!-- http://w3id.org/oseg/ont/okhmeta#hasMetaTag -->
<g id="node12" class="node">
<title>http://w3id.org/oseg/ont/okhmeta#hasMetaTag</title>
<ellipse fill="none" stroke="#e377c2" cx="725.81" cy="-424.91" rx="120.42" ry="16.03"/>
<text text-anchor="middle" x="725.81" y="-421.21" font-family="Times,serif" font-size="14.00">okhmeta:hasMetaTag</text>
</g>
<!-- http://w3id.org/oseg/ont/okhmeta#hasMetaTag&#45;&gt;http://www.w3.org/2004/02/skos/core#Concept -->
<g id="edge21" class="edge">
<title>http://w3id.org/oseg/ont/okhmeta#hasMetaTag&#45;&gt;http://www.w3.org/2004/02/skos/core#Concept</title>
<path fill="none" stroke="black" d="M702.74,-441.19C655.77,-474.33 549.05,-549.63 496.39,-586.78"/>
<polygon fill="black" stroke="black" points="494.27,-583.99 488.12,-592.62 498.31,-589.71 494.27,-583.99"/>
<text text-anchor="middle" x="595.07" y="-517.79" font-family="Times,serif" font-size="14.00">a</text>
</g>
<!-- http://w3id.org/oseg/ont/okhmeta#hasMetaTag&#45;&gt;http://w3id.org/oseg/ont/okhmeta#MetaTag -->
<g id="edge14" class="edge">
<title>http://w3id.org/oseg/ont/okhmeta#hasMetaTag&#45;&gt;http://w3id.org/oseg/ont/okhmeta#MetaTag</title>
<path fill="none" stroke="black" d="M720.26,-441.43C701.11,-518.23 643.51,-840.58 631.66,-935.76"/>
<polygon fill="black" stroke="black" points="628.15,-935.63 630.47,-945.96 635.11,-936.44 628.15,-935.63"/>
<text text-anchor="middle" x="603.46" y="-692.39" font-family="Times,serif" font-size="14.00">dcam:rangeIncludes</text>
</g>
<!-- http://w3id.org/oseg/ont/okhmeta#hasMetaTag&#45;&gt;http://w3id.org/oseg/ont/okhmeta#MetaTag -->
<g id="edge43" class="edge">
<title>http://w3id.org/oseg/ont/okhmeta#hasMetaTag&#45;&gt;http://w3id.org/oseg/ont/okhmeta#MetaTag</title>
<path fill="none" stroke="black" d="M725.42,-441.44C717.24,-518.31 659.95,-841.21 637.98,-936.04"/>
<polygon fill="black" stroke="black" points="634.53,-935.42 635.61,-945.96 641.34,-937.05 634.53,-935.42"/>
<text text-anchor="middle" x="604.7" y="-677.54" font-family="Times,serif" font-size="14.00">okhmeta:hasMetaTag</text>
</g>
<!-- http://www.w3.org/2004/02/skos/core#member -->
<g id="node13" class="node">
<title>http://www.w3.org/2004/02/skos/core#member</title>
<ellipse fill="none" stroke="#e377c2" cx="834.81" cy="-16.02" rx="79.39" ry="16.03"/>
<text text-anchor="middle" x="834.81" y="-12.32" font-family="Times,serif" font-size="14.00">skos:member</text>
</g>
<!-- http://w3id.org/oseg/ont/okhmeta#hasMetaTag&#45;&gt;http://www.w3.org/2004/02/skos/core#member -->
<g id="edge10" class="edge">
<title>http://w3id.org/oseg/ont/okhmeta#hasMetaTag&#45;&gt;http://www.w3.org/2004/02/skos/core#member</title>
<path fill="none" stroke="black" d="M730.15,-408.63C746.87,-345.93 807.17,-119.72 827.82,-42.26"/>
<polygon fill="black" stroke="black" points="831.27,-42.91 830.46,-32.35 824.5,-41.11 831.27,-42.91"/>
<text text-anchor="middle" x="725.99" y="-229.24" font-family="Times,serif" font-size="14.00">subPropertyOf</text>
</g>
<!-- http://w3id.org/oseg/ont/okhmeta#DataGatheringTag -->
<g id="node14" class="node">
<title>http://w3id.org/oseg/ont/okhmeta#DataGatheringTag</title>
<ellipse fill="none" stroke="#e377c2" cx="231.94" cy="-817.52" rx="122.16" ry="16.03"/>
<text text-anchor="middle" x="231.94" y="-813.82" font-family="Times,serif" font-size="14.00">okhmeta:DataGathe...</text>
</g>
<!-- http://w3id.org/oseg/ont/okhmeta#DataGatheringTag&#45;&gt;http://w3id.org/oseg/ont/okhmeta#Tag -->
<g id="edge33" class="edge">
<title>http://w3id.org/oseg/ont/okhmeta#DataGatheringTag&#45;&gt;http://w3id.org/oseg/ont/okhmeta#Tag</title>
<path fill="none" stroke="black" d="M258.8,-833.47C315.83,-867.32 448.92,-946.32 512.29,-983.94"/>
<polygon fill="black" stroke="black" points="510.73,-987.09 521.11,-989.18 514.3,-981.07 510.73,-987.09"/>
<text text-anchor="middle" x="381.05" y="-912.51" font-family="Times,serif" font-size="14.00">a</text>
</g>
<!-- http://w3id.org/oseg/ont/okhmeta#DataGatheringTag&#45;&gt;http://w3id.org/oseg/ont/okhmeta#MetaTag -->
<g id="edge30" class="edge">
<title>http://w3id.org/oseg/ont/okhmeta#DataGatheringTag&#45;&gt;http://w3id.org/oseg/ont/okhmeta#MetaTag</title>
<path fill="none" stroke="black" d="M274.17,-832.88C347.87,-859.68 499.68,-914.89 579.11,-943.78"/>
<polygon fill="black" stroke="black" points="578.3,-947.21 588.89,-947.34 580.69,-940.63 578.3,-947.21"/>
<text text-anchor="middle" x="349.64" y="-892.13" font-family="Times,serif" font-size="14.00">okhmeta:hasMetaTag</text>
</g>
<!-- http://w3id.org/oseg/ont/okhmeta#HistoryTag -->
<g id="node15" class="node">
<title>http://w3id.org/oseg/ont/okhmeta#HistoryTag</title>
<ellipse fill="none" stroke="#e377c2" cx="459.86" cy="-1340.42" rx="113.69" ry="16.03"/>
<text text-anchor="middle" x="459.86" y="-1336.72" font-family="Times,serif" font-size="14.00">okhmeta:HistoryTag</text>
</g>
<!-- http://w3id.org/oseg/ont/okhmeta#HistoryTag&#45;&gt;http://w3id.org/oseg/ont/okhmeta#Tag -->
<g id="edge12" class="edge">
<title>http://w3id.org/oseg/ont/okhmeta#HistoryTag&#45;&gt;http://w3id.org/oseg/ont/okhmeta#Tag</title>
<path fill="none" stroke="black" d="M464.18,-1323.77C478.27,-1269.48 522.95,-1097.32 540.17,-1030.98"/>
<polygon fill="black" stroke="black" points="543.65,-1031.48 542.78,-1020.92 536.88,-1029.72 543.65,-1031.48"/>
<text text-anchor="middle" x="497.68" y="-1181.17" font-family="Times,serif" font-size="14.00">a</text>
</g>
<!-- http://w3id.org/oseg/ont/okhmeta#HistoryTag&#45;&gt;http://w3id.org/oseg/ont/okhmeta#MetaTag -->
<g id="edge32" class="edge">
<title>http://w3id.org/oseg/ont/okhmeta#HistoryTag&#45;&gt;http://w3id.org/oseg/ont/okhmeta#MetaTag</title>
<path fill="none" stroke="black" d="M467.17,-1324.18C493.8,-1265.05 585.67,-1060.98 618.4,-988.29"/>
<polygon fill="black" stroke="black" points="621.7,-989.49 622.62,-978.93 615.32,-986.61 621.7,-989.49"/>
<text text-anchor="middle" x="465.79" y="-1160.03" font-family="Times,serif" font-size="14.00">okhmeta:hasMetaTag</text>
</g>
<!-- http://w3id.org/oseg/ont/okhmeta#DataTag -->
<g id="node16" class="node">
<title>http://w3id.org/oseg/ont/okhmeta#DataTag</title>
<ellipse fill="none" stroke="#e377c2" cx="597.84" cy="-652.33" rx="100.32" ry="16.03"/>
<text text-anchor="middle" x="597.84" y="-648.63" font-family="Times,serif" font-size="14.00">okhmeta:DataTag</text>
</g>
<!-- http://w3id.org/oseg/ont/okhmeta#DataTag&#45;&gt;http://w3id.org/oseg/ont/okhmeta#Tag -->
<g id="edge13" class="edge">
<title>http://w3id.org/oseg/ont/okhmeta#DataTag&#45;&gt;http://w3id.org/oseg/ont/okhmeta#Tag</title>
<path fill="none" stroke="black" d="M595.45,-668.85C587.35,-725.01 560.82,-908.93 550.85,-978.02"/>
<polygon fill="black" stroke="black" points="547.37,-977.69 549.4,-988.08 554.29,-978.68 547.37,-977.69"/>
<text text-anchor="middle" x="568.65" y="-827.23" font-family="Times,serif" font-size="14.00">a</text>
</g>
<!-- http://w3id.org/oseg/ont/okhmeta#DataTag&#45;&gt;http://w3id.org/oseg/ont/okhmeta#MetaTag -->
<g id="edge11" class="edge">
<title>http://w3id.org/oseg/ont/okhmeta#DataTag&#45;&gt;http://w3id.org/oseg/ont/okhmeta#MetaTag</title>
<path fill="none" stroke="black" d="M599.57,-669C604.87,-719.89 620.86,-873.59 627.33,-935.78"/>
<polygon fill="black" stroke="black" points="623.87,-936.36 628.39,-945.95 630.84,-935.64 623.87,-936.36"/>
<text text-anchor="middle" x="536.45" y="-791.19" font-family="Times,serif" font-size="14.00">okhmeta:hasMetaTag</text>
</g>
<!-- http://w3id.org/oseg/ont/okhmeta#PartsTag -->
<g id="node17" class="node">
<title>http://w3id.org/oseg/ont/okhmeta#PartsTag</title>
<ellipse fill="none" stroke="#e377c2" cx="692.62" cy="-1324" rx="103.48" ry="16.03"/>
<text text-anchor="middle" x="692.62" y="-1320.3" font-family="Times,serif" font-size="14.00">okhmeta:PartsTag</text>
</g>
<!-- http://w3id.org/oseg/ont/okhmeta#PartsTag&#45;&gt;http://w3id.org/oseg/ont/okhmeta#Tag -->
<g id="edge35" class="edge">
<title>http://w3id.org/oseg/ont/okhmeta#PartsTag&#45;&gt;http://w3id.org/oseg/ont/okhmeta#Tag</title>
<path fill="none" stroke="black" d="M685.2,-1307.72C661.49,-1255.7 587.45,-1093.25 558.65,-1030.07"/>
<polygon fill="black" stroke="black" points="561.76,-1028.46 554.43,-1020.81 555.39,-1031.36 561.76,-1028.46"/>
<text text-anchor="middle" x="617.42" y="-1172.69" font-family="Times,serif" font-size="14.00">a</text>
</g>
<!-- http://w3id.org/oseg/ont/okhmeta#PartsTag&#45;&gt;http://w3id.org/oseg/ont/okhmeta#MetaTag -->
<g id="edge42" class="edge">
<title>http://w3id.org/oseg/ont/okhmeta#PartsTag&#45;&gt;http://w3id.org/oseg/ont/okhmeta#MetaTag</title>
<path fill="none" stroke="black" d="M689.77,-1307.52C679.86,-1250.21 646.85,-1059.26 634.67,-988.77"/>
<polygon fill="black" stroke="black" points="638.11,-988.16 632.96,-978.9 631.21,-989.35 638.11,-988.16"/>
<text text-anchor="middle" x="585.22" y="-1136.94" font-family="Times,serif" font-size="14.00">okhmeta:hasMetaTag</text>
</g>
<!-- http://w3id.org/oseg/ont/okhmeta#DocumentationTag -->
<g id="node18" class="node">
<title>http://w3id.org/oseg/ont/okhmeta#DocumentationTag</title>
<ellipse fill="none" stroke="#e377c2" cx="985.53" cy="-1056.41" rx="125.32" ry="16.03"/>
<text text-anchor="middle" x="985.53" y="-1052.71" font-family="Times,serif" font-size="14.00">okhmeta:Documenta...</text>
</g>
<!-- http://w3id.org/oseg/ont/okhmeta#DocumentationTag&#45;&gt;http://w3id.org/oseg/ont/okhmeta#Tag -->
<g id="edge36" class="edge">
<title>http://w3id.org/oseg/ont/okhmeta#DocumentationTag&#45;&gt;http://w3id.org/oseg/ont/okhmeta#Tag</title>
<path fill="none" stroke="black" d="M892.8,-1045.44C812.99,-1036.01 699.16,-1022.55 624.22,-1013.69"/>
<polygon fill="black" stroke="black" points="624.25,-1010.17 613.91,-1012.47 623.43,-1017.12 624.25,-1010.17"/>
<text text-anchor="middle" x="754.01" y="-1033.37" font-family="Times,serif" font-size="14.00">a</text>
</g>
<!-- http://w3id.org/oseg/ont/okhmeta#DocumentationTag&#45;&gt;http://w3id.org/oseg/ont/okhmeta#MetaTag -->
<g id="edge15" class="edge">
<title>http://w3id.org/oseg/ont/okhmeta#DocumentationTag&#45;&gt;http://w3id.org/oseg/ont/okhmeta#MetaTag</title>
<path fill="none" stroke="black" d="M929.99,-1041.71C865.74,-1024.7 760.18,-996.76 692.96,-978.96"/>
<polygon fill="black" stroke="black" points="693.49,-975.48 682.92,-976.31 691.69,-982.25 693.49,-975.48"/>
<text text-anchor="middle" x="734.48" y="-1014.13" font-family="Times,serif" font-size="14.00">okhmeta:hasMetaTag</text>
</g>
<!-- http://w3id.org/oseg/ont/okhmeta#AcademicTag -->
<g id="node21" class="node">
<title>http://w3id.org/oseg/ont/okhmeta#AcademicTag</title>
<ellipse fill="none" stroke="#e377c2" cx="923.23" cy="-1180.66" rx="124.4" ry="16.03"/>
<text text-anchor="middle" x="923.23" y="-1176.96" font-family="Times,serif" font-size="14.00">okhmeta:AcademicTag</text>
</g>
<!-- http://w3id.org/oseg/ont/okhmeta#AcademicTag&#45;&gt;http://w3id.org/oseg/ont/okhmeta#Tag -->
<g id="edge38" class="edge">
<title>http://w3id.org/oseg/ont/okhmeta#AcademicTag&#45;&gt;http://w3id.org/oseg/ont/okhmeta#Tag</title>
<path fill="none" stroke="black" d="M889.52,-1164.88C820.33,-1132.49 662.57,-1058.65 587.79,-1023.64"/>
<polygon fill="black" stroke="black" points="589.21,-1020.44 578.66,-1019.37 586.24,-1026.78 589.21,-1020.44"/>
<text text-anchor="middle" x="734.15" y="-1098.06" font-family="Times,serif" font-size="14.00">a</text>
</g>
<!-- http://w3id.org/oseg/ont/okhmeta#AcademicTag&#45;&gt;http://w3id.org/oseg/ont/okhmeta#MetaTag -->
<g id="edge5" class="edge">
<title>http://w3id.org/oseg/ont/okhmeta#AcademicTag&#45;&gt;http://w3id.org/oseg/ont/okhmeta#MetaTag</title>
<path fill="none" stroke="black" d="M901.68,-1164.6C850.01,-1126.12 719,-1028.54 659.87,-984.5"/>
<polygon fill="black" stroke="black" points="661.79,-981.57 651.68,-978.4 657.61,-987.18 661.79,-981.57"/>
<text text-anchor="middle" x="703.77" y="-1078.35" font-family="Times,serif" font-size="14.00">okhmeta:hasMetaTag</text>
</g>
<!-- http://w3id.org/oseg/ont/okhmeta#QualityTag -->
<g id="node23" class="node">
<title>http://w3id.org/oseg/ont/okhmeta#QualityTag</title>
<ellipse fill="none" stroke="#e377c2" cx="911.35" cy="-791.33" rx="113.27" ry="16.03"/>
<text text-anchor="middle" x="911.35" y="-787.63" font-family="Times,serif" font-size="14.00">okhmeta:QualityTag</text>
</g>
<!-- http://w3id.org/oseg/ont/okhmeta#QualityTag&#45;&gt;http://w3id.org/oseg/ont/okhmeta#Tag -->
<g id="edge40" class="edge">
<title>http://w3id.org/oseg/ont/okhmeta#QualityTag&#45;&gt;http://w3id.org/oseg/ont/okhmeta#Tag</title>
<path fill="none" stroke="black" d="M884.27,-807.18C819.27,-845.22 654.49,-941.67 582.07,-984.05"/>
<polygon fill="black" stroke="black" points="580.17,-981.11 573.3,-989.18 583.7,-987.15 580.17,-981.11"/>
<text text-anchor="middle" x="728.67" y="-899.42" font-family="Times,serif" font-size="14.00">a</text>
</g>
<!-- http://w3id.org/oseg/ont/okhmeta#QualityTag&#45;&gt;http://w3id.org/oseg/ont/okhmeta#MetaTag -->
<g id="edge20" class="edge">
<title>http://w3id.org/oseg/ont/okhmeta#QualityTag&#45;&gt;http://w3id.org/oseg/ont/okhmeta#MetaTag</title>
<path fill="none" stroke="black" d="M885.15,-807.26C834.27,-838.19 722.14,-906.36 665.02,-941.09"/>
<polygon fill="black" stroke="black" points="663.06,-938.18 656.34,-946.37 666.7,-944.16 663.06,-938.18"/>
<text text-anchor="middle" x="698.08" y="-877.98" font-family="Times,serif" font-size="14.00">okhmeta:hasMetaTag</text>
</g>
<!-- http://w3id.org/oseg/ont/okhmeta#ExtendedInfoTag -->
<g id="node24" class="node">
<title>http://w3id.org/oseg/ont/okhmeta#ExtendedInfoTag</title>
<ellipse fill="none" stroke="#e377c2" cx="869.01" cy="-1283.42" rx="120.42" ry="16.03"/>
<text text-anchor="middle" x="869.01" y="-1279.72" font-family="Times,serif" font-size="14.00">okhmeta:ExtendedI...</text>
</g>
<!-- http://w3id.org/oseg/ont/okhmeta#ExtendedInfoTag&#45;&gt;http://w3id.org/oseg/ont/okhmeta#Tag -->
<g id="edge22" class="edge">
<title>http://w3id.org/oseg/ont/okhmeta#ExtendedInfoTag&#45;&gt;http://w3id.org/oseg/ont/okhmeta#Tag</title>
<path fill="none" stroke="black" d="M850.31,-1267.23C795.71,-1219.95 636.46,-1082.02 573.29,-1027.31"/>
<polygon fill="black" stroke="black" points="575.23,-1024.36 565.38,-1020.46 570.65,-1029.65 575.23,-1024.36"/>
<text text-anchor="middle" x="707.3" y="-1151.07" font-family="Times,serif" font-size="14.00">a</text>
</g>
<!-- http://w3id.org/oseg/ont/okhmeta#ExtendedInfoTag&#45;&gt;http://w3id.org/oseg/ont/okhmeta#MetaTag -->
<g id="edge39" class="edge">
<title>http://w3id.org/oseg/ont/okhmeta#ExtendedInfoTag&#45;&gt;http://w3id.org/oseg/ont/okhmeta#MetaTag</title>
<path fill="none" stroke="black" d="M856.83,-1267.06C817.69,-1214.45 694.93,-1049.46 648.3,-986.79"/>
<polygon fill="black" stroke="black" points="651.02,-984.59 642.25,-978.65 645.41,-988.77 651.02,-984.59"/>
<text text-anchor="middle" x="675.57" y="-1115.73" font-family="Times,serif" font-size="14.00">okhmeta:hasMetaTag</text>
</g>
<!-- http://w3id.org/oseg/ont/okhmeta#LegalTag -->
<g id="node25" class="node">
<title>http://w3id.org/oseg/ont/okhmeta#LegalTag</title>
<ellipse fill="none" stroke="#e377c2" cx="930.2" cy="-931.49" rx="103.89" ry="16.03"/>
<text text-anchor="middle" x="930.2" y="-927.79" font-family="Times,serif" font-size="14.00">okhmeta:LegalTag</text>
</g>
<!-- http://w3id.org/oseg/ont/okhmeta#LegalTag&#45;&gt;http://w3id.org/oseg/ont/okhmeta#Tag -->
<g id="edge24" class="edge">
<title>http://w3id.org/oseg/ont/okhmeta#LegalTag&#45;&gt;http://w3id.org/oseg/ont/okhmeta#Tag</title>
<path fill="none" stroke="black" d="M863.89,-944.13C793.97,-957.47 684.4,-978.36 614.16,-991.76"/>
<polygon fill="black" stroke="black" points="613.26,-988.37 604.09,-993.68 614.57,-995.24 613.26,-988.37"/>
<text text-anchor="middle" x="743.53" y="-971.75" font-family="Times,serif" font-size="14.00">a</text>
</g>
<!-- http://w3id.org/oseg/ont/okhmeta#LegalTag&#45;&gt;http://w3id.org/oseg/ont/okhmeta#MetaTag -->
<g id="edge9" class="edge">
<title>http://w3id.org/oseg/ont/okhmeta#LegalTag&#45;&gt;http://w3id.org/oseg/ont/okhmeta#MetaTag</title>
<path fill="none" stroke="black" d="M842.99,-940.45C806.53,-944.19 764.03,-948.56 726.63,-952.4"/>
<polygon fill="black" stroke="black" points="725.81,-948.97 716.22,-953.47 726.53,-955.93 725.81,-948.97"/>
<text text-anchor="middle" x="707.81" y="-935.22" font-family="Times,serif" font-size="14.00">okhmeta:hasMetaTag</text>
</g>
<!-- http://w3id.org/oseg/ont/okhmeta#DevelopmentTag -->
<g id="node26" class="node">
<title>http://w3id.org/oseg/ont/okhmeta#DevelopmentTag</title>
<ellipse fill="none" stroke="#e377c2" cx="325.72" cy="-1297.93" rx="124.4" ry="16.03"/>
<text text-anchor="middle" x="325.72" y="-1294.23" font-family="Times,serif" font-size="14.00">okhmeta:Developme...</text>
</g>
<!-- http://w3id.org/oseg/ont/okhmeta#DevelopmentTag&#45;&gt;http://w3id.org/oseg/ont/okhmeta#Tag -->
<g id="edge25" class="edge">
<title>http://w3id.org/oseg/ont/okhmeta#DevelopmentTag&#45;&gt;http://w3id.org/oseg/ont/okhmeta#Tag</title>
<path fill="none" stroke="black" d="M337.94,-1281.74C374.74,-1232.95 484.73,-1087.15 528.63,-1028.95"/>
<polygon fill="black" stroke="black" points="531.62,-1030.79 534.85,-1020.7 526.03,-1026.58 531.62,-1030.79"/>
<text text-anchor="middle" x="428.78" y="-1144.14" font-family="Times,serif" font-size="14.00">a</text>
</g>
<!-- http://w3id.org/oseg/ont/okhmeta#DevelopmentTag&#45;&gt;http://w3id.org/oseg/ont/okhmeta#MetaTag -->
<g id="edge34" class="edge">
<title>http://w3id.org/oseg/ont/okhmeta#DevelopmentTag&#45;&gt;http://w3id.org/oseg/ont/okhmeta#MetaTag</title>
<path fill="none" stroke="black" d="M340.41,-1281.74C389.71,-1227.37 549.58,-1051.09 608.25,-986.41"/>
<polygon fill="black" stroke="black" points="611.08,-988.5 615.2,-978.74 605.89,-983.8 611.08,-988.5"/>
<text text-anchor="middle" x="397.33" y="-1122.88" font-family="Times,serif" font-size="14.00">okhmeta:hasMetaTag</text>
</g>
<!-- http://w3id.org/oseg/ont/okhmeta#TransportationTag -->
<g id="node28" class="node">
<title>http://w3id.org/oseg/ont/okhmeta#TransportationTag</title>
<ellipse fill="none" stroke="#e377c2" cx="589.42" cy="-1387.36" rx="118.17" ry="16.03"/>
<text text-anchor="middle" x="589.42" y="-1383.66" font-family="Times,serif" font-size="14.00">okhmeta:Transport...</text>
</g>
<!-- http://w3id.org/oseg/ont/okhmeta#TransportationTag&#45;&gt;http://w3id.org/oseg/ont/okhmeta#Tag -->
<g id="edge46" class="edge">
<title>http://w3id.org/oseg/ont/okhmeta#TransportationTag&#45;&gt;http://w3id.org/oseg/ont/okhmeta#Tag</title>
<path fill="none" stroke="black" d="M587.6,-1370.91C580.98,-1311.16 558.17,-1105.2 549.98,-1031.26"/>
<polygon fill="black" stroke="black" points="553.42,-1030.5 548.84,-1020.95 546.46,-1031.27 553.42,-1030.5"/>
<text text-anchor="middle" x="564.29" y="-1204.88" font-family="Times,serif" font-size="14.00">a</text>
</g>
<!-- http://w3id.org/oseg/ont/okhmeta#TransportationTag&#45;&gt;http://w3id.org/oseg/ont/okhmeta#MetaTag -->
<g id="edge26" class="edge">
<title>http://w3id.org/oseg/ont/okhmeta#TransportationTag&#45;&gt;http://w3id.org/oseg/ont/okhmeta#MetaTag</title>
<path fill="none" stroke="black" d="M590.99,-1370.96C597.17,-1306.41 619.84,-1069.49 627.53,-989.16"/>
<polygon fill="black" stroke="black" points="631.04,-989.19 628.51,-978.9 624.07,-988.52 631.04,-989.19"/>
<text text-anchor="middle" x="686.26" y="-1183.86" font-family="Times,serif" font-size="14.00">okhmeta:hasMetaTag</text>
</g>
</g>
</svg>
