<?xml version="1.0" encoding="UTF-8" standalone="no"?>
<!DOCTYPE svg PUBLIC "-//W3C//DTD SVG 1.1//EN"
 "http://www.w3.org/Graphics/SVG/1.1/DTD/svg11.dtd">
<!-- Generated by graphviz version 2.43.0 (0)
 -->
<!-- Title: G Pages: 1 -->
<svg width="1429pt" height="746pt"
 viewBox="0.00 0.00 1429.00 746.00" xmlns="http://www.w3.org/2000/svg" xmlns:xlink="http://www.w3.org/1999/xlink">
<g id="graph0" class="graph" transform="scale(1 1) rotate(0) translate(4 742)">
<title>G</title>
<polygon fill="white" stroke="transparent" points="-4,4 -4,-742 1425,-742 1425,4 -4,4"/>
<!-- http://spdx.org/rdf/terms#SpdxItem -->
<g id="node1" class="node">
<title>http://spdx.org/rdf/terms#SpdxItem</title>
<ellipse fill="none" stroke="#1f77b4" cx="893.45" cy="-256.16" rx="87.86" ry="16.03"/>
<text text-anchor="middle" x="893.45" y="-252.46" font-family="Times,serif" font-size="14.00">spdx:SpdxItem</text>
</g>
<!-- http://www.w3.org/2002/07/owl#Ontology -->
<g id="node2" class="node">
<title>http://www.w3.org/2002/07/owl#Ontology</title>
<ellipse fill="none" stroke="#1f77b4" cx="1266.21" cy="-268.14" rx="77.56" ry="16.03"/>
<text text-anchor="middle" x="1266.21" y="-264.44" font-family="Times,serif" font-size="14.00">owl:Ontology</text>
</g>
<!-- http://w3id.org/oseg/ont/otrl#ODRL -->
<g id="node3" class="node">
<title>http://w3id.org/oseg/ont/otrl#ODRL</title>
<ellipse fill="none" stroke="#e377c2" cx="337.72" cy="-315.81" rx="62.87" ry="16.03"/>
<text text-anchor="middle" x="337.72" y="-312.11" font-family="Times,serif" font-size="14.00">otrl:ODRL</text>
</g>
<!-- http://w3id.org/oseg/ont/otrl#OTRL -->
<g id="node4" class="node">
<title>http://w3id.org/oseg/ont/otrl#OTRL</title>
<ellipse fill="none" stroke="#e377c2" cx="739.18" cy="-503.19" rx="60.62" ry="16.03"/>
<text text-anchor="middle" x="739.18" y="-499.49" font-family="Times,serif" font-size="14.00">otrl:OTRL</text>
</g>
<!-- http://www.w3.org/2002/07/owl#DatatypeProperty -->
<g id="node5" class="node">
<title>http://www.w3.org/2002/07/owl#DatatypeProperty</title>
<ellipse fill="none" stroke="#1f77b4" cx="346.49" cy="-449.13" rx="123.07" ry="16.03"/>
<text text-anchor="middle" x="346.49" y="-445.43" font-family="Times,serif" font-size="14.00">owl:DatatypeProperty</text>
</g>
<!-- http://w3id.org/oseg/ont/otrl#OTRL2 -->
<g id="node6" class="node">
<title>http://w3id.org/oseg/ont/otrl#OTRL2</title>
<ellipse fill="none" stroke="#e377c2" cx="695.85" cy="-722.14" rx="67.35" ry="16.03"/>
<text text-anchor="middle" x="695.85" y="-718.44" font-family="Times,serif" font-size="14.00">otrl:OTRL2</text>
</g>
<!-- http://w3id.org/oseg/ont/otrl#OTRL2&#45;&gt;http://w3id.org/oseg/ont/otrl#OTRL -->
<g id="edge1" class="edge">
<title>http://w3id.org/oseg/ont/otrl#OTRL2&#45;&gt;http://w3id.org/oseg/ont/otrl#OTRL</title>
<path fill="none" stroke="black" d="M699.11,-705.68C706.56,-668.02 724.91,-575.31 733.96,-529.58"/>
<polygon fill="black" stroke="black" points="737.44,-530.02 735.94,-519.53 730.57,-528.66 737.44,-530.02"/>
<text text-anchor="middle" x="712.03" y="-621.43" font-family="Times,serif" font-size="14.00">a</text>
</g>
<!-- http://w3id.org/oseg/ont/oseg&#45;profiles#robinVobruba -->
<g id="node7" class="node">
<title>http://w3id.org/oseg/ont/oseg&#45;profiles#robinVobruba</title>
<ellipse fill="none" stroke="#e377c2" cx="1104.71" cy="-139.25" rx="113.69" ry="16.03"/>
<text text-anchor="middle" x="1104.71" y="-135.55" font-family="Times,serif" font-size="14.00">osegprof:robinVob...</text>
</g>
<!-- http://www.w3.org/1999/02/22&#45;rdf&#45;syntax&#45;ns#langString -->
<g id="node8" class="node">
<title>http://www.w3.org/1999/02/22&#45;rdf&#45;syntax&#45;ns#langString</title>
<ellipse fill="none" stroke="#e377c2" cx="434.79" cy="-629.75" rx="83.38" ry="16.03"/>
<text text-anchor="middle" x="434.79" y="-626.05" font-family="Times,serif" font-size="14.00">rdf:langString</text>
</g>
<!-- http://id.loc.gov/vocabulary/iso639&#45;1/en -->
<g id="node9" class="node">
<title>http://id.loc.gov/vocabulary/iso639&#45;1/en</title>
<ellipse fill="none" stroke="#e377c2" cx="1086.64" cy="-345.11" rx="45.01" ry="16.03"/>
<text text-anchor="middle" x="1086.64" y="-341.41" font-family="Times,serif" font-size="14.00">ns1:en</text>
</g>
<!-- http://w3id.org/oseg/ont/otrl -->
<g id="node10" class="node">
<title>http://w3id.org/oseg/ont/otrl</title>
<ellipse fill="none" stroke="#e377c2" cx="1088.46" cy="-180.12" rx="50.82" ry="16.03"/>
<text text-anchor="middle" x="1088.46" y="-176.42" font-family="Times,serif" font-size="14.00">ns2:otrl</text>
</g>
<!-- http://w3id.org/oseg/ont/otrl&#45;&gt;http://spdx.org/rdf/terms#SpdxItem -->
<g id="edge12" class="edge">
<title>http://w3id.org/oseg/ont/otrl&#45;&gt;http://spdx.org/rdf/terms#SpdxItem</title>
<path fill="none" stroke="black" d="M1055.82,-192.85C1024.4,-205.1 976.54,-223.76 940.91,-237.66"/>
<polygon fill="black" stroke="black" points="939.26,-234.55 931.21,-241.44 941.8,-241.07 939.26,-234.55"/>
<text text-anchor="middle" x="993.87" y="-219.05" font-family="Times,serif" font-size="14.00">a</text>
</g>
<!-- http://w3id.org/oseg/ont/otrl&#45;&gt;http://www.w3.org/2002/07/owl#Ontology -->
<g id="edge5" class="edge">
<title>http://w3id.org/oseg/ont/otrl&#45;&gt;http://www.w3.org/2002/07/owl#Ontology</title>
<path fill="none" stroke="black" d="M1116.23,-193.87C1145.86,-208.55 1193.06,-231.92 1226.58,-248.52"/>
<polygon fill="black" stroke="black" points="1225.14,-251.71 1235.65,-253.01 1228.24,-245.44 1225.14,-251.71"/>
<text text-anchor="middle" x="1166.91" y="-225" font-family="Times,serif" font-size="14.00">a</text>
</g>
<!-- http://w3id.org/oseg/ont/otrl&#45;&gt;http://w3id.org/oseg/ont/oseg&#45;profiles#robinVobruba -->
<g id="edge2" class="edge">
<title>http://w3id.org/oseg/ont/otrl&#45;&gt;http://w3id.org/oseg/ont/oseg&#45;profiles#robinVobruba</title>
<path fill="none" stroke="black" d="M1102.07,-164.08C1102.11,-164 1102.15,-163.91 1102.18,-163.82"/>
<polygon fill="black" stroke="black" points="1105.02,-166.28 1105.12,-155.68 1098.43,-163.91 1105.02,-166.28"/>
<text text-anchor="middle" x="1159.63" y="-167.75" font-family="Times,serif" font-size="14.00">dcterms:creator</text>
</g>
<!-- http://w3id.org/oseg/ont/otrl&#45;&gt;http://w3id.org/oseg/ont/oseg&#45;profiles#robinVobruba -->
<g id="edge24" class="edge">
<title>http://w3id.org/oseg/ont/otrl&#45;&gt;http://w3id.org/oseg/ont/oseg&#45;profiles#robinVobruba</title>
<path fill="none" stroke="black" d="M1088.13,-163.43C1088.18,-163.27 1088.23,-163.11 1088.28,-162.95"/>
<polygon fill="black" stroke="black" points="1090.8,-166.24 1090.95,-155.65 1084.23,-163.84 1090.8,-166.24"/>
<text text-anchor="middle" x="1032.71" y="-151.99" font-family="Times,serif" font-size="14.00">schema:creator</text>
</g>
<!-- http://w3id.org/oseg/ont/otrl&#45;&gt;http://id.loc.gov/vocabulary/iso639&#45;1/en -->
<g id="edge4" class="edge">
<title>http://w3id.org/oseg/ont/otrl&#45;&gt;http://id.loc.gov/vocabulary/iso639&#45;1/en</title>
<path fill="none" stroke="black" d="M1088.28,-196.54C1087.96,-225.08 1087.31,-284.06 1086.93,-318.5"/>
<polygon fill="black" stroke="black" points="1083.43,-318.72 1086.82,-328.75 1090.43,-318.79 1083.43,-318.72"/>
<text text-anchor="middle" x="1119.86" y="-246.32" font-family="Times,serif" font-size="14.00">dcterms:language</text>
</g>
<!-- http://w3id.org/oseg/ont/oseg&#45;profiles#Iopa -->
<g id="node18" class="node">
<title>http://w3id.org/oseg/ont/oseg&#45;profiles#Iopa</title>
<ellipse fill="none" stroke="#e377c2" cx="1082.36" cy="-220.98" rx="80.72" ry="16.03"/>
<text text-anchor="middle" x="1082.36" y="-217.28" font-family="Times,serif" font-size="14.00">osegprof:Iopa</text>
</g>
<!-- http://w3id.org/oseg/ont/otrl&#45;&gt;http://w3id.org/oseg/ont/oseg&#45;profiles#Iopa -->
<g id="edge11" class="edge">
<title>http://w3id.org/oseg/ont/otrl&#45;&gt;http://w3id.org/oseg/ont/oseg&#45;profiles#Iopa</title>
<path fill="none" stroke="black" d="M1085.98,-196.74C1085.96,-196.9 1085.93,-197.06 1085.91,-197.22"/>
<polygon fill="black" stroke="black" points="1082.84,-194.1 1084.82,-204.5 1089.76,-195.13 1082.84,-194.1"/>
<text text-anchor="middle" x="1151.45" y="-200.78" font-family="Times,serif" font-size="14.00">dcterms:publisher</text>
</g>
<!-- http://w3id.org/oseg/ont/oseg&#45;profiles#martinHaeuer -->
<g id="node19" class="node">
<title>http://w3id.org/oseg/ont/oseg&#45;profiles#martinHaeuer</title>
<ellipse fill="none" stroke="#e377c2" cx="866.9" cy="-92.93" rx="116.85" ry="16.03"/>
<text text-anchor="middle" x="866.9" y="-89.23" font-family="Times,serif" font-size="14.00">osegprof:martinHa...</text>
</g>
<!-- http://w3id.org/oseg/ont/otrl&#45;&gt;http://w3id.org/oseg/ont/oseg&#45;profiles#martinHaeuer -->
<g id="edge13" class="edge">
<title>http://w3id.org/oseg/ont/otrl&#45;&gt;http://w3id.org/oseg/ont/oseg&#45;profiles#martinHaeuer</title>
<path fill="none" stroke="black" d="M1064.27,-165.74C1032.14,-150.63 974.28,-127.3 929.48,-111.01"/>
<polygon fill="black" stroke="black" points="930.44,-107.64 919.85,-107.55 928.07,-114.23 930.44,-107.64"/>
<text text-anchor="middle" x="939.37" y="-127.17" font-family="Times,serif" font-size="14.00">dcterms:creator</text>
</g>
<!-- http://w3id.org/oseg/ont/otrl&#45;&gt;http://w3id.org/oseg/ont/oseg&#45;profiles#martinHaeuer -->
<g id="edge27" class="edge">
<title>http://w3id.org/oseg/ont/otrl&#45;&gt;http://w3id.org/oseg/ont/oseg&#45;profiles#martinHaeuer</title>
<path fill="none" stroke="black" d="M1048.45,-170.01C1007.17,-155.92 943.36,-130.81 903.41,-112.94"/>
<polygon fill="black" stroke="black" points="904.84,-109.75 894.28,-108.8 901.94,-116.12 904.84,-109.75"/>
<text text-anchor="middle" x="920.43" y="-145.28" font-family="Times,serif" font-size="14.00">schema:creator</text>
</g>
<!-- http://spdx.org/licenses/GPL&#45;3.0&#45;or&#45;later -->
<g id="node21" class="node">
<title>http://spdx.org/licenses/GPL&#45;3.0&#45;or&#45;later</title>
<ellipse fill="none" stroke="#e377c2" cx="1311.68" cy="-97.88" rx="108.79" ry="16.03"/>
<text text-anchor="middle" x="1311.68" y="-94.18" font-family="Times,serif" font-size="14.00">spdxl:GPL&#45;3.0&#45;or&#45;...</text>
</g>
<!-- http://w3id.org/oseg/ont/otrl&#45;&gt;http://spdx.org/licenses/GPL&#45;3.0&#45;or&#45;later -->
<g id="edge14" class="edge">
<title>http://w3id.org/oseg/ont/otrl&#45;&gt;http://spdx.org/licenses/GPL&#45;3.0&#45;or&#45;later</title>
<path fill="none" stroke="black" d="M1121.88,-167.81C1158.66,-154.25 1218.22,-132.31 1260.81,-116.62"/>
<polygon fill="black" stroke="black" points="1262.26,-119.82 1270.43,-113.08 1259.84,-113.25 1262.26,-119.82"/>
<text text-anchor="middle" x="1267.34" y="-146.01" font-family="Times,serif" font-size="14.00">spdx:licenseDeclared</text>
</g>
<!-- http://w3id.org/oseg/ont/1.1.0/otrl -->
<g id="node22" class="node">
<title>http://w3id.org/oseg/ont/1.1.0/otrl</title>
<ellipse fill="none" stroke="#e377c2" cx="1066.3" cy="-16.72" rx="50.82" ry="16.03"/>
<text text-anchor="middle" x="1066.3" y="-13.02" font-family="Times,serif" font-size="14.00">ns3:otrl</text>
</g>
<!-- http://w3id.org/oseg/ont/otrl&#45;&gt;http://w3id.org/oseg/ont/1.1.0/otrl -->
<g id="edge25" class="edge">
<title>http://w3id.org/oseg/ont/otrl&#45;&gt;http://w3id.org/oseg/ont/1.1.0/otrl</title>
<path fill="none" stroke="black" d="M1086.25,-163.85C1082.44,-135.74 1074.58,-77.79 1069.94,-43.6"/>
<polygon fill="black" stroke="black" points="1073.37,-42.85 1068.56,-33.41 1066.44,-43.79 1073.37,-42.85"/>
<text text-anchor="middle" x="1129.6" y="-107.53" font-family="Times,serif" font-size="14.00">owl:versionIRI</text>
</g>
<!-- http://w3id.org/oseg/ont/otrl#ODRL3 -->
<g id="node11" class="node">
<title>http://w3id.org/oseg/ont/otrl#ODRL3</title>
<ellipse fill="none" stroke="#e377c2" cx="132.4" cy="-407.88" rx="69.09" ry="16.03"/>
<text text-anchor="middle" x="132.4" y="-404.18" font-family="Times,serif" font-size="14.00">otrl:ODRL3</text>
</g>
<!-- http://w3id.org/oseg/ont/otrl#ODRL3&#45;&gt;http://w3id.org/oseg/ont/otrl#ODRL -->
<g id="edge6" class="edge">
<title>http://w3id.org/oseg/ont/otrl#ODRL3&#45;&gt;http://w3id.org/oseg/ont/otrl#ODRL</title>
<path fill="none" stroke="black" d="M164.94,-393.29C200.59,-377.3 257.85,-351.62 296.59,-334.25"/>
<polygon fill="black" stroke="black" points="298.32,-337.31 306.02,-330.02 295.46,-330.92 298.32,-337.31"/>
<text text-anchor="middle" x="226.26" y="-367.57" font-family="Times,serif" font-size="14.00">a</text>
</g>
<!-- http://w3id.org/oseg/ont/otrl#goal -->
<g id="node12" class="node">
<title>http://w3id.org/oseg/ont/otrl#goal</title>
<ellipse fill="none" stroke="#e377c2" cx="536.82" cy="-447.19" rx="54.39" ry="16.03"/>
<text text-anchor="middle" x="536.82" y="-443.49" font-family="Times,serif" font-size="14.00">otrl:goal</text>
</g>
<!-- http://w3id.org/oseg/ont/otrl#goal&#45;&gt;http://w3id.org/oseg/ont/otrl#ODRL -->
<g id="edge21" class="edge">
<title>http://w3id.org/oseg/ont/otrl#goal&#45;&gt;http://w3id.org/oseg/ont/otrl#ODRL</title>
<path fill="none" stroke="black" d="M513.98,-432.12C478.39,-408.63 409.61,-363.25 369.3,-336.64"/>
<polygon fill="black" stroke="black" points="371.18,-333.69 360.91,-331.11 367.33,-339.54 371.18,-333.69"/>
<text text-anchor="middle" x="363.64" y="-373.18" font-family="Times,serif" font-size="14.00">dcam:domainIncludes</text>
</g>
<!-- http://w3id.org/oseg/ont/otrl#goal&#45;&gt;http://w3id.org/oseg/ont/otrl#OTRL -->
<g id="edge10" class="edge">
<title>http://w3id.org/oseg/ont/otrl#goal&#45;&gt;http://w3id.org/oseg/ont/otrl#OTRL</title>
<path fill="none" stroke="black" d="M576.8,-458.25C608.35,-466.98 652.63,-479.24 686.98,-488.74"/>
<polygon fill="black" stroke="black" points="686.27,-492.18 696.84,-491.47 688.14,-485.43 686.27,-492.18"/>
<text text-anchor="middle" x="553.89" y="-477.3" font-family="Times,serif" font-size="14.00">dcam:domainIncludes</text>
</g>
<!-- http://w3id.org/oseg/ont/otrl#goal&#45;&gt;http://www.w3.org/2002/07/owl#DatatypeProperty -->
<g id="edge7" class="edge">
<title>http://w3id.org/oseg/ont/otrl#goal&#45;&gt;http://www.w3.org/2002/07/owl#DatatypeProperty</title>
<path fill="none" stroke="black" d="M482.28,-447.74C481.37,-447.75 480.45,-447.76 479.52,-447.77"/>
<polygon fill="black" stroke="black" points="479.38,-444.27 469.41,-447.87 479.45,-451.27 479.38,-444.27"/>
<text text-anchor="middle" x="476.4" y="-451.56" font-family="Times,serif" font-size="14.00">a</text>
</g>
<!-- http://w3id.org/oseg/ont/otrl#goal&#45;&gt;http://www.w3.org/1999/02/22&#45;rdf&#45;syntax&#45;ns#langString -->
<g id="edge19" class="edge">
<title>http://w3id.org/oseg/ont/otrl#goal&#45;&gt;http://www.w3.org/1999/02/22&#45;rdf&#45;syntax&#45;ns#langString</title>
<path fill="none" stroke="black" d="M527.76,-463.39C509.96,-495.25 470.28,-566.25 448.97,-604.38"/>
<polygon fill="black" stroke="black" points="445.79,-602.89 443.97,-613.32 451.9,-606.3 445.79,-602.89"/>
<text text-anchor="middle" x="467.37" y="-537.69" font-family="Times,serif" font-size="14.00">range</text>
</g>
<!-- http://w3id.org/oseg/ont/otrl#exitCriteria -->
<g id="node13" class="node">
<title>http://w3id.org/oseg/ont/otrl#exitCriteria</title>
<ellipse fill="none" stroke="#e377c2" cx="526.44" cy="-403.2" rx="91.43" ry="16.03"/>
<text text-anchor="middle" x="526.44" y="-399.5" font-family="Times,serif" font-size="14.00">otrl:exitCriteria</text>
</g>
<!-- http://w3id.org/oseg/ont/otrl#exitCriteria&#45;&gt;http://w3id.org/oseg/ont/otrl#ODRL -->
<g id="edge8" class="edge">
<title>http://w3id.org/oseg/ont/otrl#exitCriteria&#45;&gt;http://w3id.org/oseg/ont/otrl#ODRL</title>
<path fill="none" stroke="black" d="M493.57,-387.98C461.43,-373.09 412.42,-350.4 377.96,-334.44"/>
<polygon fill="black" stroke="black" points="379.2,-331.16 368.65,-330.13 376.26,-337.51 379.2,-331.16"/>
<text text-anchor="middle" x="357.77" y="-350.01" font-family="Times,serif" font-size="14.00">dcam:domainIncludes</text>
</g>
<!-- http://w3id.org/oseg/ont/otrl#exitCriteria&#45;&gt;http://w3id.org/oseg/ont/otrl#OTRL -->
<g id="edge22" class="edge">
<title>http://w3id.org/oseg/ont/otrl#exitCriteria&#45;&gt;http://w3id.org/oseg/ont/otrl#OTRL</title>
<path fill="none" stroke="black" d="M559.22,-418.61C596.98,-436.35 659.02,-465.51 699.49,-484.53"/>
<polygon fill="black" stroke="black" points="698.24,-487.81 708.78,-488.9 701.22,-481.48 698.24,-487.81"/>
<text text-anchor="middle" x="707.35" y="-455.37" font-family="Times,serif" font-size="14.00">dcam:domainIncludes</text>
</g>
<!-- http://w3id.org/oseg/ont/otrl#exitCriteria&#45;&gt;http://www.w3.org/2002/07/owl#DatatypeProperty -->
<g id="edge16" class="edge">
<title>http://w3id.org/oseg/ont/otrl#exitCriteria&#45;&gt;http://www.w3.org/2002/07/owl#DatatypeProperty</title>
<path fill="none" stroke="black" d="M473.91,-416.61C454.83,-421.48 433.02,-427.04 412.9,-432.18"/>
<polygon fill="black" stroke="black" points="412,-428.8 403.18,-434.66 413.73,-435.58 412,-428.8"/>
<text text-anchor="middle" x="438.9" y="-428.19" font-family="Times,serif" font-size="14.00">a</text>
</g>
<!-- http://w3id.org/oseg/ont/otrl#exitCriteria&#45;&gt;http://www.w3.org/1999/02/22&#45;rdf&#45;syntax&#45;ns#langString -->
<g id="edge3" class="edge">
<title>http://w3id.org/oseg/ont/otrl#exitCriteria&#45;&gt;http://www.w3.org/1999/02/22&#45;rdf&#45;syntax&#45;ns#langString</title>
<path fill="none" stroke="black" d="M519.85,-419.49C504.13,-458.34 464.35,-556.68 445.29,-603.8"/>
<polygon fill="black" stroke="black" points="441.95,-602.72 441.44,-613.3 448.44,-605.35 441.95,-602.72"/>
<text text-anchor="middle" x="461.57" y="-515.45" font-family="Times,serif" font-size="14.00">range</text>
</g>
<!-- http://w3id.org/oseg/ont/otrl#OTRL4 -->
<g id="node14" class="node">
<title>http://w3id.org/oseg/ont/otrl#OTRL4</title>
<ellipse fill="none" stroke="#e377c2" cx="853.11" cy="-696.91" rx="67.35" ry="16.03"/>
<text text-anchor="middle" x="853.11" y="-693.21" font-family="Times,serif" font-size="14.00">otrl:OTRL4</text>
</g>
<!-- http://w3id.org/oseg/ont/otrl#OTRL4&#45;&gt;http://w3id.org/oseg/ont/otrl#OTRL -->
<g id="edge17" class="edge">
<title>http://w3id.org/oseg/ont/otrl#OTRL4&#45;&gt;http://w3id.org/oseg/ont/otrl#OTRL</title>
<path fill="none" stroke="black" d="M843.59,-680.73C823.7,-646.89 777.59,-568.49 753.86,-528.15"/>
<polygon fill="black" stroke="black" points="756.84,-526.3 748.75,-519.46 750.8,-529.85 756.84,-526.3"/>
<text text-anchor="middle" x="794.23" y="-608.24" font-family="Times,serif" font-size="14.00">a</text>
</g>
<!-- http://w3id.org/oseg/ont/otrl#OTRL1 -->
<g id="node15" class="node">
<title>http://w3id.org/oseg/ont/otrl#OTRL1</title>
<ellipse fill="none" stroke="#e377c2" cx="869.05" cy="-337.97" rx="67.35" ry="16.03"/>
<text text-anchor="middle" x="869.05" y="-334.27" font-family="Times,serif" font-size="14.00">otrl:OTRL1</text>
</g>
<!-- http://w3id.org/oseg/ont/otrl#OTRL1&#45;&gt;http://w3id.org/oseg/ont/otrl#OTRL -->
<g id="edge18" class="edge">
<title>http://w3id.org/oseg/ont/otrl#OTRL1&#45;&gt;http://w3id.org/oseg/ont/otrl#OTRL</title>
<path fill="none" stroke="black" d="M856.36,-354.12C833.42,-383.31 784.91,-445.01 758.06,-479.17"/>
<polygon fill="black" stroke="black" points="755.16,-477.2 751.73,-487.22 760.66,-481.52 755.16,-477.2"/>
<text text-anchor="middle" x="802.71" y="-420.44" font-family="Times,serif" font-size="14.00">a</text>
</g>
<!-- http://w3id.org/oseg/ont/otrl#ODRL2 -->
<g id="node16" class="node">
<title>http://w3id.org/oseg/ont/otrl#ODRL2</title>
<ellipse fill="none" stroke="#e377c2" cx="361.78" cy="-91.19" rx="69.09" ry="16.03"/>
<text text-anchor="middle" x="361.78" y="-87.49" font-family="Times,serif" font-size="14.00">otrl:ODRL2</text>
</g>
<!-- http://w3id.org/oseg/ont/otrl#ODRL2&#45;&gt;http://w3id.org/oseg/ont/otrl#ODRL -->
<g id="edge9" class="edge">
<title>http://w3id.org/oseg/ont/otrl#ODRL2&#45;&gt;http://w3id.org/oseg/ont/otrl#ODRL</title>
<path fill="none" stroke="black" d="M360.01,-107.71C355.88,-146.24 345.59,-242.38 340.56,-289.26"/>
<polygon fill="black" stroke="black" points="337.08,-288.95 339.49,-299.27 344.04,-289.7 337.08,-288.95"/>
<text text-anchor="middle" x="345.79" y="-202.28" font-family="Times,serif" font-size="14.00">a</text>
</g>
<!-- http://w3id.org/oseg/ont/otrl#ODRL3Star -->
<g id="node17" class="node">
<title>http://w3id.org/oseg/ont/otrl#ODRL3Star</title>
<ellipse fill="none" stroke="#e377c2" cx="90.46" cy="-251.53" rx="90.52" ry="16.03"/>
<text text-anchor="middle" x="90.46" y="-247.83" font-family="Times,serif" font-size="14.00">otrl:ODRL3Star</text>
</g>
<!-- http://w3id.org/oseg/ont/otrl#ODRL3Star&#45;&gt;http://w3id.org/oseg/ont/otrl#ODRL -->
<g id="edge20" class="edge">
<title>http://w3id.org/oseg/ont/otrl#ODRL3Star&#45;&gt;http://w3id.org/oseg/ont/otrl#ODRL</title>
<path fill="none" stroke="black" d="M141.99,-264.92C183.4,-275.69 241.39,-290.76 283.49,-301.71"/>
<polygon fill="black" stroke="black" points="282.74,-305.13 293.3,-304.26 284.5,-298.35 282.74,-305.13"/>
<text text-anchor="middle" x="208.24" y="-287.12" font-family="Times,serif" font-size="14.00">a</text>
</g>
<!-- http://w3id.org/oseg/ont/otrl#OTRL3 -->
<g id="node20" class="node">
<title>http://w3id.org/oseg/ont/otrl#OTRL3</title>
<ellipse fill="none" stroke="#e377c2" cx="951.07" cy="-457.17" rx="67.35" ry="16.03"/>
<text text-anchor="middle" x="951.07" y="-453.47" font-family="Times,serif" font-size="14.00">otrl:OTRL3</text>
</g>
<!-- http://w3id.org/oseg/ont/otrl#OTRL3&#45;&gt;http://w3id.org/oseg/ont/otrl#OTRL -->
<g id="edge23" class="edge">
<title>http://w3id.org/oseg/ont/otrl#OTRL3&#45;&gt;http://w3id.org/oseg/ont/otrl#OTRL</title>
<path fill="none" stroke="black" d="M900.85,-468.07C869.47,-474.89 828.96,-483.69 796.34,-490.77"/>
<polygon fill="black" stroke="black" points="795.52,-487.37 786.49,-492.91 797.01,-494.21 795.52,-487.37"/>
<text text-anchor="middle" x="844.1" y="-483.22" font-family="Times,serif" font-size="14.00">a</text>
</g>
<!-- http://w3id.org/oseg/ont/otrl#OTRL6 -->
<g id="node23" class="node">
<title>http://w3id.org/oseg/ont/otrl#OTRL6</title>
<ellipse fill="none" stroke="#e377c2" cx="941.3" cy="-595.47" rx="67.35" ry="16.03"/>
<text text-anchor="middle" x="941.3" y="-591.77" font-family="Times,serif" font-size="14.00">otrl:OTRL6</text>
</g>
<!-- http://w3id.org/oseg/ont/otrl#OTRL6&#45;&gt;http://w3id.org/oseg/ont/otrl#OTRL -->
<g id="edge26" class="edge">
<title>http://w3id.org/oseg/ont/otrl#OTRL6&#45;&gt;http://w3id.org/oseg/ont/otrl#OTRL</title>
<path fill="none" stroke="black" d="M909.72,-581.05C874.61,-565.02 817.82,-539.09 779.52,-521.6"/>
<polygon fill="black" stroke="black" points="780.76,-518.32 770.21,-517.35 777.85,-524.69 780.76,-518.32"/>
<text text-anchor="middle" x="840.12" y="-555.13" font-family="Times,serif" font-size="14.00">a</text>
</g>
<!-- http://w3id.org/oseg/ont/otrl#OTRL5 -->
<g id="node24" class="node">
<title>http://w3id.org/oseg/ont/otrl#OTRL5</title>
<ellipse fill="none" stroke="#e377c2" cx="744.44" cy="-546.55" rx="67.35" ry="16.03"/>
<text text-anchor="middle" x="744.44" y="-542.85" font-family="Times,serif" font-size="14.00">otrl:OTRL5</text>
</g>
<!-- http://w3id.org/oseg/ont/otrl#OTRL5&#45;&gt;http://w3id.org/oseg/ont/otrl#OTRL -->
<g id="edge15" class="edge">
<title>http://w3id.org/oseg/ont/otrl#OTRL5&#45;&gt;http://w3id.org/oseg/ont/otrl#OTRL</title>
<path fill="none" stroke="black" d="M742.42,-529.91C742.41,-529.81 742.4,-529.7 742.38,-529.6"/>
<polygon fill="black" stroke="black" points="745.86,-529.22 741.18,-519.71 738.91,-530.06 745.86,-529.22"/>
<text text-anchor="middle" x="737.9" y="-518.55" font-family="Times,serif" font-size="14.00">a</text>
</g>
<!-- http://w3id.org/oseg/ont/otrl#ODRL1 -->
<g id="node25" class="node">
<title>http://w3id.org/oseg/ont/otrl#ODRL1</title>
<ellipse fill="none" stroke="#e377c2" cx="292.88" cy="-271.33" rx="69.09" ry="16.03"/>
<text text-anchor="middle" x="292.88" y="-267.63" font-family="Times,serif" font-size="14.00">otrl:ODRL1</text>
</g>
<!-- http://w3id.org/oseg/ont/otrl#ODRL1&#45;&gt;http://w3id.org/oseg/ont/otrl#ODRL -->
<g id="edge28" class="edge">
<title>http://w3id.org/oseg/ont/otrl#ODRL1&#45;&gt;http://w3id.org/oseg/ont/otrl#ODRL</title>
<path fill="none" stroke="black" d="M309.07,-287.39C310.87,-289.17 312.73,-291.02 314.59,-292.87"/>
<polygon fill="black" stroke="black" points="312.14,-295.37 321.71,-299.92 317.07,-290.4 312.14,-295.37"/>
<text text-anchor="middle" x="307.33" y="-293.93" font-family="Times,serif" font-size="14.00">a</text>
</g>
<!-- http://w3id.org/oseg/ont/otrl#ODRL4 -->
<g id="node26" class="node">
<title>http://w3id.org/oseg/ont/otrl#ODRL4</title>
<ellipse fill="none" stroke="#e377c2" cx="204.33" cy="-126.8" rx="69.09" ry="16.03"/>
<text text-anchor="middle" x="204.33" y="-123.1" font-family="Times,serif" font-size="14.00">otrl:ODRL4</text>
</g>
<!-- http://w3id.org/oseg/ont/otrl#ODRL4&#45;&gt;http://w3id.org/oseg/ont/otrl#ODRL -->
<g id="edge29" class="edge">
<title>http://w3id.org/oseg/ont/otrl#ODRL4&#45;&gt;http://w3id.org/oseg/ont/otrl#ODRL</title>
<path fill="none" stroke="black" d="M215.7,-142.91C239.13,-176.11 292.9,-252.29 320.57,-291.5"/>
<polygon fill="black" stroke="black" points="317.75,-293.58 326.38,-299.73 323.47,-289.54 317.75,-293.58"/>
<text text-anchor="middle" x="263.63" y="-221.01" font-family="Times,serif" font-size="14.00">a</text>
</g>
</g>
</svg>
