<?xml version="1.0" encoding="UTF-8" standalone="no"?>
<!DOCTYPE svg PUBLIC "-//W3C//DTD SVG 1.1//EN"
 "http://www.w3.org/Graphics/SVG/1.1/DTD/svg11.dtd">
<!-- Generated by graphviz version 2.43.0 (0)
 -->
<!-- Title: G Pages: 1 -->
<svg width="2636pt" height="1020pt"
 viewBox="0.00 0.00 2636.00 1020.00" xmlns="http://www.w3.org/2000/svg" xmlns:xlink="http://www.w3.org/1999/xlink">
<g id="graph0" class="graph" transform="scale(1 1) rotate(0) translate(4 1016)">
<title>G</title>
<polygon fill="white" stroke="transparent" points="-4,4 -4,-1016 2632,-1016 2632,4 -4,4"/>
<!-- http://www.w3.org/2002/07/owl#DatatypeProperty -->
<g id="node1" class="node">
<title>http://www.w3.org/2002/07/owl#DatatypeProperty</title>
<ellipse fill="none" stroke="#1f77b4" cx="703.41" cy="-589.55" rx="123.07" ry="16.03"/>
<text text-anchor="middle" x="703.41" y="-585.85" font-family="Times,serif" font-size="14.00">owl:DatatypeProperty</text>
</g>
<!-- http://w3id.org/oseg/ont/okh#ComponentReference -->
<g id="node2" class="node">
<title>http://w3id.org/oseg/ont/okh#ComponentReference</title>
<ellipse fill="none" stroke="#e377c2" cx="1711.1" cy="-348.7" rx="123.07" ry="16.03"/>
<text text-anchor="middle" x="1711.1" y="-345" font-family="Times,serif" font-size="14.00">okh:ComponentRefe...</text>
</g>
<!-- http://www.w3.org/2004/02/skos/core#Concept -->
<g id="node4" class="node">
<title>http://www.w3.org/2004/02/skos/core#Concept</title>
<ellipse fill="none" stroke="#1f77b4" cx="1429.85" cy="-525.31" rx="78.48" ry="16.03"/>
<text text-anchor="middle" x="1429.85" y="-521.61" font-family="Times,serif" font-size="14.00">skos:Concept</text>
</g>
<!-- http://w3id.org/oseg/ont/okh#ComponentReference&#45;&gt;http://www.w3.org/2004/02/skos/core#Concept -->
<g id="edge40" class="edge">
<title>http://w3id.org/oseg/ont/okh#ComponentReference&#45;&gt;http://www.w3.org/2004/02/skos/core#Concept</title>
<path fill="none" stroke="black" d="M1685.65,-364.69C1634.69,-396.68 1520.18,-468.59 1463.27,-504.33"/>
<polygon fill="black" stroke="black" points="1461.25,-501.46 1454.64,-509.74 1464.97,-507.39 1461.25,-501.46"/>
<text text-anchor="middle" x="1569.96" y="-438.31" font-family="Times,serif" font-size="14.00">a</text>
</g>
<!-- http://w3id.org/oseg/ont/okh#Reference -->
<g id="node7" class="node">
<title>http://w3id.org/oseg/ont/okh#Reference</title>
<ellipse fill="none" stroke="#e377c2" cx="1725.84" cy="-306.24" rx="84.29" ry="16.03"/>
<text text-anchor="middle" x="1725.84" y="-302.54" font-family="Times,serif" font-size="14.00">okh:Reference</text>
</g>
<!-- http://w3id.org/oseg/ont/okh#ComponentReference&#45;&gt;http://w3id.org/oseg/ont/okh#Reference -->
<g id="edge50" class="edge">
<title>http://w3id.org/oseg/ont/okh#ComponentReference&#45;&gt;http://w3id.org/oseg/ont/okh#Reference</title>
<path fill="none" stroke="black" d="M1716.76,-332.41C1716.79,-332.31 1716.83,-332.21 1716.86,-332.11"/>
<polygon fill="black" stroke="black" points="1720.16,-333.3 1720.13,-322.7 1713.54,-331 1720.16,-333.3"/>
</g>
<!-- http://w3id.org/oseg/ont/okhmetaPartsTag -->
<g id="node24" class="node">
<title>http://w3id.org/oseg/ont/okhmetaPartsTag</title>
<ellipse fill="none" stroke="#e377c2" cx="1785.46" cy="-16.16" rx="103.48" ry="16.03"/>
<text text-anchor="middle" x="1785.46" y="-12.46" font-family="Times,serif" font-size="14.00">okhmeta:PartsTag</text>
</g>
<!-- http://w3id.org/oseg/ont/okh#ComponentReference&#45;&gt;http://w3id.org/oseg/ont/okhmetaPartsTag -->
<g id="edge18" class="edge">
<title>http://w3id.org/oseg/ont/okh#ComponentReference&#45;&gt;http://w3id.org/oseg/ont/okhmetaPartsTag</title>
<path fill="none" stroke="black" d="M1714.79,-332.21C1726.78,-278.58 1764.75,-108.78 1779.51,-42.77"/>
<polygon fill="black" stroke="black" points="1782.98,-43.27 1781.75,-32.75 1776.15,-41.74 1782.98,-43.27"/>
<text text-anchor="middle" x="1670.15" y="-191.29" font-family="Times,serif" font-size="14.00">okhmeta:hasMetaTag</text>
</g>
<!-- http://w3id.org/oseg/ont/okh#Mass -->
<g id="node3" class="node">
<title>http://w3id.org/oseg/ont/okh#Mass</title>
<ellipse fill="none" stroke="#e377c2" cx="1116.41" cy="-386.92" rx="59.29" ry="16.03"/>
<text text-anchor="middle" x="1116.41" y="-383.22" font-family="Times,serif" font-size="14.00">okh:Mass</text>
</g>
<!-- http://w3id.org/oseg/ont/okh#Mass&#45;&gt;http://www.w3.org/2004/02/skos/core#Concept -->
<g id="edge53" class="edge">
<title>http://w3id.org/oseg/ont/okh#Mass&#45;&gt;http://www.w3.org/2004/02/skos/core#Concept</title>
<path fill="none" stroke="black" d="M1147.9,-400.82C1204.45,-425.79 1323.27,-478.25 1387.12,-506.44"/>
<polygon fill="black" stroke="black" points="1385.94,-509.75 1396.5,-510.58 1388.76,-503.34 1385.94,-509.75"/>
<text text-anchor="middle" x="1263.01" y="-457.43" font-family="Times,serif" font-size="14.00">a</text>
</g>
<!-- http://w3id.org/oseg/ont/okhmetaTransportationTag -->
<g id="node19" class="node">
<title>http://w3id.org/oseg/ont/okhmetaTransportationTag</title>
<ellipse fill="none" stroke="#e377c2" cx="1220.94" cy="-125.48" rx="118.17" ry="16.03"/>
<text text-anchor="middle" x="1220.94" y="-121.78" font-family="Times,serif" font-size="14.00">okhmeta:Transport...</text>
</g>
<!-- http://w3id.org/oseg/ont/okh#Mass&#45;&gt;http://w3id.org/oseg/ont/okhmetaTransportationTag -->
<g id="edge13" class="edge">
<title>http://w3id.org/oseg/ont/okh#Mass&#45;&gt;http://w3id.org/oseg/ont/okhmetaTransportationTag</title>
<path fill="none" stroke="black" d="M1122.95,-370.56C1140.58,-326.46 1189.24,-204.77 1210.63,-151.28"/>
<polygon fill="black" stroke="black" points="1213.94,-152.41 1214.41,-141.82 1207.45,-149.81 1213.94,-152.41"/>
<text text-anchor="middle" x="1089.79" y="-264.72" font-family="Times,serif" font-size="14.00">okhmeta:hasMetaTag</text>
</g>
<!-- http://w3id.org/oseg/ont/okhmetaPhysicalTag -->
<g id="node37" class="node">
<title>http://w3id.org/oseg/ont/okhmetaPhysicalTag</title>
<ellipse fill="none" stroke="#e377c2" cx="969.19" cy="-165.45" rx="118.17" ry="16.03"/>
<text text-anchor="middle" x="969.19" y="-161.75" font-family="Times,serif" font-size="14.00">okhmeta:PhysicalTag</text>
</g>
<!-- http://w3id.org/oseg/ont/okh#Mass&#45;&gt;http://w3id.org/oseg/ont/okhmetaPhysicalTag -->
<g id="edge43" class="edge">
<title>http://w3id.org/oseg/ont/okh#Mass&#45;&gt;http://w3id.org/oseg/ont/okhmetaPhysicalTag</title>
<path fill="none" stroke="black" d="M1105.58,-370.63C1080.06,-332.24 1015.99,-235.85 985.63,-190.18"/>
<polygon fill="black" stroke="black" points="988.48,-188.15 980.03,-181.76 982.65,-192.02 988.48,-188.15"/>
<text text-anchor="middle" x="968.61" y="-284.21" font-family="Times,serif" font-size="14.00">okhmeta:hasMetaTag</text>
</g>
<!-- http://www.w3.org/2002/07/owl#ObjectProperty -->
<g id="node5" class="node">
<title>http://www.w3.org/2002/07/owl#ObjectProperty</title>
<ellipse fill="none" stroke="#1f77b4" cx="2071.3" cy="-659.53" rx="109.7" ry="16.03"/>
<text text-anchor="middle" x="2071.3" y="-655.83" font-family="Times,serif" font-size="14.00">owl:ObjectProperty</text>
</g>
<!-- http://w3id.org/oseg/ont/okh#FileUrl -->
<g id="node6" class="node">
<title>http://w3id.org/oseg/ont/okh#FileUrl</title>
<ellipse fill="none" stroke="#1f77b4" cx="2019.21" cy="-270.16" rx="68.68" ry="16.03"/>
<text text-anchor="middle" x="2019.21" y="-266.46" font-family="Times,serif" font-size="14.00">okh:FileUrl</text>
</g>
<!-- http://w3id.org/oseg/ont/okh#FileUrl&#45;&gt;http://w3id.org/oseg/ont/okh#ComponentReference -->
<g id="edge45" class="edge">
<title>http://w3id.org/oseg/ont/okh#FileUrl&#45;&gt;http://w3id.org/oseg/ont/okh#ComponentReference</title>
<path fill="none" stroke="black" d="M1972.41,-282.09C1920.54,-295.31 1836.44,-316.75 1777.71,-331.72"/>
<polygon fill="black" stroke="black" points="1776.6,-328.39 1767.78,-334.26 1778.33,-335.18 1776.6,-328.39"/>
</g>
<!-- http://schema.org/URL -->
<g id="node8" class="node">
<title>http://schema.org/URL</title>
<ellipse fill="none" stroke="#e377c2" cx="2187.09" cy="-77.97" rx="75.82" ry="16.03"/>
<text text-anchor="middle" x="2187.09" y="-74.27" font-family="Times,serif" font-size="14.00">schema:URL</text>
</g>
<!-- http://w3id.org/oseg/ont/okh#FileUrl&#45;&gt;http://schema.org/URL -->
<g id="edge31" class="edge">
<title>http://w3id.org/oseg/ont/okh#FileUrl&#45;&gt;http://schema.org/URL</title>
<path fill="none" stroke="black" d="M2033.23,-254.1C2062.8,-220.26 2131.64,-141.45 2166.33,-101.74"/>
<polygon fill="black" stroke="black" points="2169.05,-103.95 2172.99,-94.12 2163.77,-99.35 2169.05,-103.95"/>
</g>
<!-- http://w3id.org/oseg/ont/okh#File -->
<g id="node30" class="node">
<title>http://w3id.org/oseg/ont/okh#File</title>
<ellipse fill="none" stroke="#e377c2" cx="2092.64" cy="-485.62" rx="52.15" ry="16.03"/>
<text text-anchor="middle" x="2092.64" y="-481.92" font-family="Times,serif" font-size="14.00">okh:File</text>
</g>
<!-- http://w3id.org/oseg/ont/okh#FileUrl&#45;&gt;http://w3id.org/oseg/ont/okh#File -->
<g id="edge42" class="edge">
<title>http://w3id.org/oseg/ont/okh#FileUrl&#45;&gt;http://w3id.org/oseg/ont/okh#File</title>
<path fill="none" stroke="black" d="M2024.85,-286.71C2037.56,-324.01 2068.53,-414.87 2083.81,-459.72"/>
<polygon fill="black" stroke="black" points="2080.54,-460.97 2087.08,-469.31 2087.17,-458.72 2080.54,-460.97"/>
<text text-anchor="middle" x="1974.33" y="-377.01" font-family="Times,serif" font-size="14.00">schema:supersededBy</text>
</g>
<!-- http://w3id.org/oseg/ont/okh#okhvOrig -->
<g id="node9" class="node">
<title>http://w3id.org/oseg/ont/okh#okhvOrig</title>
<ellipse fill="none" stroke="#e377c2" cx="182.08" cy="-187.61" rx="79.39" ry="16.03"/>
<text text-anchor="middle" x="182.08" y="-183.91" font-family="Times,serif" font-size="14.00">okh:okhvOrig</text>
</g>
<!-- http://schema.org/license -->
<g id="node10" class="node">
<title>http://schema.org/license</title>
<ellipse fill="none" stroke="#e377c2" cx="1868.52" cy="-883.56" rx="88.28" ry="16.03"/>
<text text-anchor="middle" x="1868.52" y="-879.86" font-family="Times,serif" font-size="14.00">schema:license</text>
</g>
<!-- http://w3id.org/oseg/ont/okh#installationGuide -->
<g id="node11" class="node">
<title>http://w3id.org/oseg/ont/okh#installationGuide</title>
<ellipse fill="none" stroke="#e377c2" cx="1098.38" cy="-635.25" rx="106.55" ry="16.03"/>
<text text-anchor="middle" x="1098.38" y="-631.55" font-family="Times,serif" font-size="14.00">okh:installationG...</text>
</g>
<!-- http://w3id.org/oseg/ont/okh#installationGuide&#45;&gt;http://www.w3.org/2002/07/owl#DatatypeProperty -->
<g id="edge7" class="edge">
<title>http://w3id.org/oseg/ont/okh#installationGuide&#45;&gt;http://www.w3.org/2002/07/owl#DatatypeProperty</title>
<path fill="none" stroke="black" d="M1013.17,-625.39C952.46,-618.37 870.57,-608.89 806.23,-601.45"/>
<polygon fill="black" stroke="black" points="806.4,-597.94 796.06,-600.27 805.59,-604.9 806.4,-597.94"/>
<text text-anchor="middle" x="905.2" y="-617.22" font-family="Times,serif" font-size="14.00">a</text>
</g>
<!-- http://w3id.org/oseg/ont/okh#installationGuide&#45;&gt;http://www.w3.org/2004/02/skos/core#Concept -->
<g id="edge3" class="edge">
<title>http://w3id.org/oseg/ont/okh#installationGuide&#45;&gt;http://www.w3.org/2004/02/skos/core#Concept</title>
<path fill="none" stroke="black" d="M1143.09,-620.42C1204.35,-600.1 1314.14,-563.69 1378.64,-542.3"/>
<polygon fill="black" stroke="black" points="1379.81,-545.59 1388.2,-539.12 1377.61,-538.95 1379.81,-545.59"/>
<text text-anchor="middle" x="1256.36" y="-585.16" font-family="Times,serif" font-size="14.00">a</text>
</g>
<!-- http://w3id.org/oseg/ont/okh#Software -->
<g id="node40" class="node">
<title>http://w3id.org/oseg/ont/okh#Software</title>
<ellipse fill="none" stroke="#e377c2" cx="1067.91" cy="-913.49" rx="78.48" ry="16.03"/>
<text text-anchor="middle" x="1067.91" y="-909.79" font-family="Times,serif" font-size="14.00">okh:Software</text>
</g>
<!-- http://w3id.org/oseg/ont/okh#installationGuide&#45;&gt;http://w3id.org/oseg/ont/okh#Software -->
<g id="edge49" class="edge">
<title>http://w3id.org/oseg/ont/okh#installationGuide&#45;&gt;http://w3id.org/oseg/ont/okh#Software</title>
<path fill="none" stroke="black" d="M1096.57,-651.82C1091.48,-698.31 1077.02,-830.26 1070.81,-887.01"/>
<polygon fill="black" stroke="black" points="1067.32,-886.68 1069.71,-897 1074.28,-887.44 1067.32,-886.68"/>
<text text-anchor="middle" x="1005.69" y="-773.22" font-family="Times,serif" font-size="14.00">dcam:domainIncludes</text>
</g>
<!-- http://w3id.org/oseg/ont/okh#hasMass -->
<g id="node12" class="node">
<title>http://w3id.org/oseg/ont/okh#hasMass</title>
<ellipse fill="none" stroke="#e377c2" cx="747.81" cy="-141.62" rx="77.15" ry="16.03"/>
<text text-anchor="middle" x="747.81" y="-137.92" font-family="Times,serif" font-size="14.00">okh:hasMass</text>
</g>
<!-- http://w3id.org/oseg/ont/okh#width -->
<g id="node13" class="node">
<title>http://w3id.org/oseg/ont/okh#width</title>
<ellipse fill="none" stroke="#e377c2" cx="88.42" cy="-574.31" rx="61.54" ry="16.03"/>
<text text-anchor="middle" x="88.42" y="-570.61" font-family="Times,serif" font-size="14.00">okh:width</text>
</g>
<!-- http://w3id.org/oseg/ont/okhmetaLegalTag -->
<g id="node14" class="node">
<title>http://w3id.org/oseg/ont/okhmetaLegalTag</title>
<ellipse fill="none" stroke="#e377c2" cx="1555.51" cy="-822.64" rx="103.89" ry="16.03"/>
<text text-anchor="middle" x="1555.51" y="-818.94" font-family="Times,serif" font-size="14.00">okhmeta:LegalTag</text>
</g>
<!-- http://w3id.org/oseg/ont/okh#unit -->
<g id="node15" class="node">
<title>http://w3id.org/oseg/ont/okh#unit</title>
<ellipse fill="none" stroke="#e377c2" cx="884.28" cy="-466.17" rx="53.07" ry="16.03"/>
<text text-anchor="middle" x="884.28" y="-462.47" font-family="Times,serif" font-size="14.00">okh:unit</text>
</g>
<!-- http://w3id.org/oseg/ont/okh#unit&#45;&gt;http://www.w3.org/2002/07/owl#DatatypeProperty -->
<g id="edge8" class="edge">
<title>http://w3id.org/oseg/ont/okh#unit&#45;&gt;http://www.w3.org/2002/07/owl#DatatypeProperty</title>
<path fill="none" stroke="black" d="M862.47,-481.05C830.8,-502.65 771.92,-542.82 735.36,-567.76"/>
<polygon fill="black" stroke="black" points="733.31,-564.92 727.02,-573.44 737.26,-570.7 733.31,-564.92"/>
<text text-anchor="middle" x="794.41" y="-528.21" font-family="Times,serif" font-size="14.00">a</text>
</g>
<!-- http://w3id.org/oseg/ont/okh#unit&#45;&gt;http://w3id.org/oseg/ont/okh#Mass -->
<g id="edge55" class="edge">
<title>http://w3id.org/oseg/ont/okh#unit&#45;&gt;http://w3id.org/oseg/ont/okh#Mass</title>
<path fill="none" stroke="black" d="M919.79,-454.05C959.82,-440.38 1025.07,-418.11 1069.32,-403"/>
<polygon fill="black" stroke="black" points="1070.65,-406.24 1078.98,-399.7 1068.39,-399.62 1070.65,-406.24"/>
<text text-anchor="middle" x="916.55" y="-432.32" font-family="Times,serif" font-size="14.00">dcam:domainIncludes</text>
</g>
<!-- http://w3id.org/oseg/ont/okh#Dimensions -->
<g id="node31" class="node">
<title>http://w3id.org/oseg/ont/okh#Dimensions</title>
<ellipse fill="none" stroke="#e377c2" cx="626.55" cy="-542.55" rx="91.85" ry="16.03"/>
<text text-anchor="middle" x="626.55" y="-538.85" font-family="Times,serif" font-size="14.00">okh:Dimensions</text>
</g>
<!-- http://w3id.org/oseg/ont/okh#unit&#45;&gt;http://w3id.org/oseg/ont/okh#Dimensions -->
<g id="edge37" class="edge">
<title>http://w3id.org/oseg/ont/okh#unit&#45;&gt;http://w3id.org/oseg/ont/okh#Dimensions</title>
<path fill="none" stroke="black" d="M845.98,-477.52C803.08,-490.24 733.11,-510.97 683.73,-525.61"/>
<polygon fill="black" stroke="black" points="682.43,-522.34 673.83,-528.54 684.42,-529.05 682.43,-522.34"/>
<text text-anchor="middle" x="686.85" y="-505.36" font-family="Times,serif" font-size="14.00">dcam:domainIncludes</text>
</g>
<!-- http://w3id.org/oseg/ont/okh#depth -->
<g id="node16" class="node">
<title>http://w3id.org/oseg/ont/okh#depth</title>
<ellipse fill="none" stroke="#e377c2" cx="102.43" cy="-799.11" rx="62.45" ry="16.03"/>
<text text-anchor="middle" x="102.43" y="-795.41" font-family="Times,serif" font-size="14.00">okh:depth</text>
</g>
<!-- http://w3id.org/oseg/ont/okh#okhvOriginal -->
<g id="node17" class="node">
<title>http://w3id.org/oseg/ont/okh#okhvOriginal</title>
<ellipse fill="none" stroke="#e377c2" cx="711.52" cy="-634.24" rx="97.66" ry="16.03"/>
<text text-anchor="middle" x="711.52" y="-630.54" font-family="Times,serif" font-size="14.00">okh:okhvOriginal</text>
</g>
<!-- http://w3id.org/oseg/ont/okh#okhvOriginal&#45;&gt;http://www.w3.org/2002/07/owl#DatatypeProperty -->
<g id="edge11" class="edge">
<title>http://w3id.org/oseg/ont/okh#okhvOriginal&#45;&gt;http://www.w3.org/2002/07/owl#DatatypeProperty</title>
<path fill="none" stroke="black" d="M708.54,-617.86C708.43,-617.25 708.32,-616.63 708.21,-616.02"/>
<polygon fill="black" stroke="black" points="711.61,-615.15 706.38,-605.94 704.72,-616.4 711.61,-615.15"/>
<text text-anchor="middle" x="703.88" y="-605.74" font-family="Times,serif" font-size="14.00">a</text>
</g>
<!-- http://w3id.org/oseg/ont/okh#okhv -->
<g id="node20" class="node">
<title>http://w3id.org/oseg/ont/okh#okhv</title>
<ellipse fill="none" stroke="#e377c2" cx="483.52" cy="-499.64" rx="56.64" ry="16.03"/>
<text text-anchor="middle" x="483.52" y="-495.94" font-family="Times,serif" font-size="14.00">okh:okhv</text>
</g>
<!-- http://w3id.org/oseg/ont/okh#okhvOriginal&#45;&gt;http://w3id.org/oseg/ont/okh#okhv -->
<g id="edge14" class="edge">
<title>http://w3id.org/oseg/ont/okh#okhvOriginal&#45;&gt;http://w3id.org/oseg/ont/okh#okhv</title>
<path fill="none" stroke="black" d="M684.92,-618.54C643.29,-593.96 562.8,-546.45 517.19,-519.52"/>
<polygon fill="black" stroke="black" points="518.95,-516.49 508.56,-514.42 515.39,-522.52 518.95,-516.49"/>
<text text-anchor="middle" x="548.05" y="-572.83" font-family="Times,serif" font-size="14.00">subPropertyOf</text>
</g>
<!-- http://w3id.org/oseg/ont/okh#okhvStored -->
<g id="node26" class="node">
<title>http://w3id.org/oseg/ont/okh#okhvStored</title>
<ellipse fill="none" stroke="#e377c2" cx="636.48" cy="-918.02" rx="90.52" ry="16.03"/>
<text text-anchor="middle" x="636.48" y="-914.32" font-family="Times,serif" font-size="14.00">okh:okhvStored</text>
</g>
<!-- http://w3id.org/oseg/ont/okh#okhvOriginal&#45;&gt;http://w3id.org/oseg/ont/okh#okhvStored -->
<g id="edge20" class="edge">
<title>http://w3id.org/oseg/ont/okh#okhvOriginal&#45;&gt;http://w3id.org/oseg/ont/okh#okhvStored</title>
<path fill="none" stroke="black" d="M707.16,-650.73C694.67,-697.94 658.7,-834 643.45,-891.67"/>
<polygon fill="black" stroke="black" points="640.02,-890.93 640.85,-901.49 646.79,-892.72 640.02,-890.93"/>
<text text-anchor="middle" x="647.8" y="-775" font-family="Times,serif" font-size="14.00">seeAlso</text>
</g>
<!-- http://w3id.org/oseg/ont/okh#url -->
<g id="node18" class="node">
<title>http://w3id.org/oseg/ont/okh#url</title>
<ellipse fill="none" stroke="#e377c2" cx="2533.34" cy="-631.22" rx="47.25" ry="16.03"/>
<text text-anchor="middle" x="2533.34" y="-627.52" font-family="Times,serif" font-size="14.00">okh:url</text>
</g>
<!-- http://w3id.org/oseg/ont/okh#tsdc -->
<g id="node21" class="node">
<title>http://w3id.org/oseg/ont/okh#tsdc</title>
<ellipse fill="none" stroke="#e377c2" cx="2161" cy="-996.02" rx="54.39" ry="16.03"/>
<text text-anchor="middle" x="2161" y="-992.32" font-family="Times,serif" font-size="14.00">okh:tsdc</text>
</g>
<!-- http://w3id.org/oseg/ont/okh#license -->
<g id="node22" class="node">
<title>http://w3id.org/oseg/ont/okh#license</title>
<ellipse fill="none" stroke="#e377c2" cx="1914.64" cy="-801.73" rx="67.76" ry="16.03"/>
<text text-anchor="middle" x="1914.64" y="-798.03" font-family="Times,serif" font-size="14.00">okh:license</text>
</g>
<!-- http://w3id.org/oseg/ont/okh#Module -->
<g id="node23" class="node">
<title>http://w3id.org/oseg/ont/okh#Module</title>
<ellipse fill="none" stroke="#e377c2" cx="1689.19" cy="-865.32" rx="70.92" ry="16.03"/>
<text text-anchor="middle" x="1689.19" y="-861.62" font-family="Times,serif" font-size="14.00">okh:Module</text>
</g>
<!-- http://schema.org/url -->
<g id="node25" class="node">
<title>http://schema.org/url</title>
<ellipse fill="none" stroke="#e377c2" cx="2560.78" cy="-498.16" rx="67.35" ry="16.03"/>
<text text-anchor="middle" x="2560.78" y="-494.46" font-family="Times,serif" font-size="14.00">schema:url</text>
</g>
<!-- http://w3id.org/oseg/ont/okh#permaURL -->
<g id="node27" class="node">
<title>http://w3id.org/oseg/ont/okh#permaURL</title>
<ellipse fill="none" stroke="#e377c2" cx="2290.09" cy="-460.98" rx="87.86" ry="16.03"/>
<text text-anchor="middle" x="2290.09" y="-457.28" font-family="Times,serif" font-size="14.00">okh:permaURL</text>
</g>
<!-- http://w3id.org/oseg/ont/okh#permaURL&#45;&gt;http://www.w3.org/2002/07/owl#ObjectProperty -->
<g id="edge21" class="edge">
<title>http://w3id.org/oseg/ont/okh#permaURL&#45;&gt;http://www.w3.org/2002/07/owl#ObjectProperty</title>
<path fill="none" stroke="black" d="M2272.19,-477.23C2233.39,-512.44 2141.45,-595.87 2096.68,-636.5"/>
<polygon fill="black" stroke="black" points="2094.2,-634.02 2089.15,-643.33 2098.91,-639.21 2094.2,-634.02"/>
<text text-anchor="middle" x="2179.93" y="-560.66" font-family="Times,serif" font-size="14.00">a</text>
</g>
<!-- http://w3id.org/oseg/ont/okh#permaURL&#45;&gt;http://w3id.org/oseg/ont/okh#File -->
<g id="edge38" class="edge">
<title>http://w3id.org/oseg/ont/okh#permaURL&#45;&gt;http://w3id.org/oseg/ont/okh#File</title>
<path fill="none" stroke="black" d="M2217.13,-470.09C2195.51,-472.78 2172.13,-475.7 2151.52,-478.27"/>
<polygon fill="black" stroke="black" points="2150.83,-474.83 2141.34,-479.54 2151.69,-481.78 2150.83,-474.83"/>
<text text-anchor="middle" x="2262.32" y="-477.98" font-family="Times,serif" font-size="14.00">dcam:domainIncludes</text>
</g>
<!-- http://w3id.org/oseg/ont/okh#okhvPresent -->
<g id="node28" class="node">
<title>http://w3id.org/oseg/ont/okh#okhvPresent</title>
<ellipse fill="none" stroke="#e377c2" cx="414.88" cy="-361.64" rx="96.33" ry="16.03"/>
<text text-anchor="middle" x="414.88" y="-357.94" font-family="Times,serif" font-size="14.00">okh:okhvPresent</text>
</g>
<!-- http://w3id.org/oseg/ont/okh#okhvPresent&#45;&gt;http://www.w3.org/2002/07/owl#DatatypeProperty -->
<g id="edge23" class="edge">
<title>http://w3id.org/oseg/ont/okh#okhvPresent&#45;&gt;http://www.w3.org/2002/07/owl#DatatypeProperty</title>
<path fill="none" stroke="black" d="M435.17,-377.67C485.54,-417.45 616.44,-520.85 674.71,-566.88"/>
<polygon fill="black" stroke="black" points="672.74,-569.79 682.76,-573.24 677.08,-564.29 672.74,-569.79"/>
<text text-anchor="middle" x="550.44" y="-476.07" font-family="Times,serif" font-size="14.00">a</text>
</g>
<!-- http://w3id.org/oseg/ont/okh#okhvPresent&#45;&gt;http://w3id.org/oseg/ont/okh#okhvOrig -->
<g id="edge1" class="edge">
<title>http://w3id.org/oseg/ont/okh#okhvPresent&#45;&gt;http://w3id.org/oseg/ont/okh#okhvOrig</title>
<path fill="none" stroke="black" d="M393.4,-345.58C351.45,-314.23 258.64,-244.84 211.21,-209.38"/>
<polygon fill="black" stroke="black" points="213.28,-206.57 203.18,-203.38 209.09,-212.17 213.28,-206.57"/>
<text text-anchor="middle" x="274.8" y="-281.28" font-family="Times,serif" font-size="14.00">seeAlso</text>
</g>
<!-- http://w3id.org/oseg/ont/okh#okhvPresent&#45;&gt;http://w3id.org/oseg/ont/okh#okhv -->
<g id="edge24" class="edge">
<title>http://w3id.org/oseg/ont/okh#okhvPresent&#45;&gt;http://w3id.org/oseg/ont/okh#okhv</title>
<path fill="none" stroke="black" d="M423.02,-378.01C434.84,-401.77 456.85,-446.02 470.81,-474.09"/>
<polygon fill="black" stroke="black" points="467.8,-475.89 475.38,-483.29 474.06,-472.78 467.8,-475.89"/>
<text text-anchor="middle" x="393.92" y="-429.85" font-family="Times,serif" font-size="14.00">subPropertyOf</text>
</g>
<!-- http://w3id.org/oseg/ont/okh#spdxLicense -->
<g id="node29" class="node">
<title>http://w3id.org/oseg/ont/okh#spdxLicense</title>
<ellipse fill="none" stroke="#e377c2" cx="1730.68" cy="-661.31" rx="94.51" ry="16.03"/>
<text text-anchor="middle" x="1730.68" y="-657.61" font-family="Times,serif" font-size="14.00">okh:spdxLicense</text>
</g>
<!-- http://w3id.org/oseg/ont/okh#spdxLicense&#45;&gt;http://www.w3.org/2004/02/skos/core#Concept -->
<g id="edge25" class="edge">
<title>http://w3id.org/oseg/ont/okh#spdxLicense&#45;&gt;http://www.w3.org/2004/02/skos/core#Concept</title>
<path fill="none" stroke="black" d="M1697.05,-646.1C1641.89,-621.17 1532.33,-571.64 1472.05,-544.39"/>
<polygon fill="black" stroke="black" points="1473.37,-541.14 1462.81,-540.21 1470.48,-547.52 1473.37,-541.14"/>
<text text-anchor="middle" x="1580.05" y="-599.04" font-family="Times,serif" font-size="14.00">a</text>
</g>
<!-- http://w3id.org/oseg/ont/okh#spdxLicense&#45;&gt;http://www.w3.org/2002/07/owl#ObjectProperty -->
<g id="edge41" class="edge">
<title>http://w3id.org/oseg/ont/okh#spdxLicense&#45;&gt;http://www.w3.org/2002/07/owl#ObjectProperty</title>
<path fill="none" stroke="black" d="M1825.56,-660.81C1864.57,-660.61 1910.2,-660.37 1951.47,-660.15"/>
<polygon fill="black" stroke="black" points="1951.6,-663.65 1961.59,-660.1 1951.57,-656.65 1951.6,-663.65"/>
<text text-anchor="middle" x="1884.02" y="-664.28" font-family="Times,serif" font-size="14.00">a</text>
</g>
<!-- http://w3id.org/oseg/ont/okh#spdxLicense&#45;&gt;http://schema.org/license -->
<g id="edge44" class="edge">
<title>http://w3id.org/oseg/ont/okh#spdxLicense&#45;&gt;http://schema.org/license</title>
<path fill="none" stroke="black" d="M1740.82,-677.65C1764.66,-716.1 1824.45,-812.51 1852.95,-858.45"/>
<polygon fill="black" stroke="black" points="1850.12,-860.54 1858.37,-867.19 1856.07,-856.85 1850.12,-860.54"/>
<text text-anchor="middle" x="1737.88" y="-771.85" font-family="Times,serif" font-size="14.00">skos:closeMatch</text>
</g>
<!-- http://w3id.org/oseg/ont/okh#spdxLicense&#45;&gt;http://w3id.org/oseg/ont/okhmetaLegalTag -->
<g id="edge46" class="edge">
<title>http://w3id.org/oseg/ont/okh#spdxLicense&#45;&gt;http://w3id.org/oseg/ont/okhmetaLegalTag</title>
<path fill="none" stroke="black" d="M1713.24,-677.36C1682.11,-706.04 1616.84,-766.15 1580.79,-799.36"/>
<polygon fill="black" stroke="black" points="1578.12,-797.06 1573.13,-806.41 1582.86,-802.21 1578.12,-797.06"/>
<text text-anchor="middle" x="1570.02" y="-742.16" font-family="Times,serif" font-size="14.00">okhmeta:hasMetaTag</text>
</g>
<!-- http://w3id.org/oseg/ont/okh#spdxLicense&#45;&gt;http://w3id.org/oseg/ont/okh#license -->
<g id="edge16" class="edge">
<title>http://w3id.org/oseg/ont/okh#spdxLicense&#45;&gt;http://w3id.org/oseg/ont/okh#license</title>
<path fill="none" stroke="black" d="M1751.78,-677.41C1784.72,-702.56 1848.43,-751.19 1885.65,-779.61"/>
<polygon fill="black" stroke="black" points="1883.99,-782.74 1894.07,-786.03 1888.24,-777.18 1883.99,-782.74"/>
<text text-anchor="middle" x="1738.72" y="-717.31" font-family="Times,serif" font-size="14.00">schema:supersededBy</text>
</g>
<!-- http://w3id.org/oseg/ont/okh#spdxLicense&#45;&gt;http://w3id.org/oseg/ont/okh#Module -->
<g id="edge17" class="edge">
<title>http://w3id.org/oseg/ont/okh#spdxLicense&#45;&gt;http://w3id.org/oseg/ont/okh#Module</title>
<path fill="none" stroke="black" d="M1727.36,-677.66C1720.19,-712.87 1703.25,-796.16 1694.55,-838.94"/>
<polygon fill="black" stroke="black" points="1691.09,-838.4 1692.53,-848.9 1697.95,-839.79 1691.09,-838.4"/>
<text text-anchor="middle" x="1788.95" y="-747.1" font-family="Times,serif" font-size="14.00">dcam:domainIncludes</text>
</g>
<!-- http://spdx.org/rdf/terms#ListedLicense -->
<g id="node39" class="node">
<title>http://spdx.org/rdf/terms#ListedLicense</title>
<ellipse fill="none" stroke="#e377c2" cx="2004.96" cy="-584.84" rx="108.38" ry="16.03"/>
<text text-anchor="middle" x="2004.96" y="-581.14" font-family="Times,serif" font-size="14.00">spdx:ListedLicense</text>
</g>
<!-- http://w3id.org/oseg/ont/okh#spdxLicense&#45;&gt;http://spdx.org/rdf/terms#ListedLicense -->
<g id="edge48" class="edge">
<title>http://w3id.org/oseg/ont/okh#spdxLicense&#45;&gt;http://spdx.org/rdf/terms#ListedLicense</title>
<path fill="none" stroke="black" d="M1780.67,-647.37C1826.49,-634.59 1894.48,-615.64 1943.59,-601.95"/>
<polygon fill="black" stroke="black" points="1944.76,-605.26 1953.45,-599.2 1942.88,-598.51 1944.76,-605.26"/>
<text text-anchor="middle" x="1789.63" y="-628.46" font-family="Times,serif" font-size="14.00">dcam:rangeIncludes</text>
</g>
<!-- http://w3id.org/oseg/ont/okh#openSCAD -->
<g id="node32" class="node">
<title>http://w3id.org/oseg/ont/okh#openSCAD</title>
<ellipse fill="none" stroke="#e377c2" cx="322.67" cy="-674.02" rx="86.03" ry="16.03"/>
<text text-anchor="middle" x="322.67" y="-670.32" font-family="Times,serif" font-size="14.00">okh:openSCAD</text>
</g>
<!-- http://w3id.org/oseg/ont/okh#openSCAD&#45;&gt;http://www.w3.org/2002/07/owl#DatatypeProperty -->
<g id="edge32" class="edge">
<title>http://w3id.org/oseg/ont/okh#openSCAD&#45;&gt;http://www.w3.org/2002/07/owl#DatatypeProperty</title>
<path fill="none" stroke="black" d="M378.85,-661.55C445.53,-646.76 556.89,-622.06 630.25,-605.78"/>
<polygon fill="black" stroke="black" points="631.33,-609.13 640.34,-603.54 629.82,-602.29 631.33,-609.13"/>
<text text-anchor="middle" x="500.05" y="-637.47" font-family="Times,serif" font-size="14.00">a</text>
</g>
<!-- http://w3id.org/oseg/ont/okh#openSCAD&#45;&gt;http://w3id.org/oseg/ont/okh#width -->
<g id="edge5" class="edge">
<title>http://w3id.org/oseg/ont/okh#openSCAD&#45;&gt;http://w3id.org/oseg/ont/okh#width</title>
<path fill="none" stroke="black" d="M287.6,-659.09C245.63,-641.22 175.4,-611.33 130.53,-592.24"/>
<polygon fill="black" stroke="black" points="131.65,-588.91 121.08,-588.22 128.91,-595.35 131.65,-588.91"/>
<text text-anchor="middle" x="129.07" y="-629.46" font-family="Times,serif" font-size="14.00">schema:supersededBy</text>
</g>
<!-- http://w3id.org/oseg/ont/okh#openSCAD&#45;&gt;http://w3id.org/oseg/ont/okh#depth -->
<g id="edge10" class="edge">
<title>http://w3id.org/oseg/ont/okh#openSCAD&#45;&gt;http://w3id.org/oseg/ont/okh#depth</title>
<path fill="none" stroke="black" d="M295.23,-689.61C255.29,-712.29 181.15,-754.4 137.37,-779.26"/>
<polygon fill="black" stroke="black" points="135.48,-776.31 128.51,-784.3 138.94,-782.4 135.48,-776.31"/>
<text text-anchor="middle" x="136.3" y="-738.23" font-family="Times,serif" font-size="14.00">schema:supersededBy</text>
</g>
<!-- http://w3id.org/oseg/ont/okh#openSCAD&#45;&gt;http://w3id.org/oseg/ont/okh#Dimensions -->
<g id="edge29" class="edge">
<title>http://w3id.org/oseg/ont/okh#openSCAD&#45;&gt;http://w3id.org/oseg/ont/okh#Dimensions</title>
<path fill="none" stroke="black" d="M357.24,-659.06C412.61,-635.11 521.16,-588.15 582.18,-561.74"/>
<polygon fill="black" stroke="black" points="583.77,-564.87 591.56,-557.69 580.99,-558.45 583.77,-564.87"/>
<text text-anchor="middle" x="391.71" y="-614.2" font-family="Times,serif" font-size="14.00">dcam:domainIncludes</text>
</g>
<!-- http://www.w3.org/2001/XMLSchema#string -->
<g id="node34" class="node">
<title>http://www.w3.org/2001/XMLSchema#string</title>
<ellipse fill="none" stroke="#e377c2" cx="183.75" cy="-887.2" rx="62.87" ry="16.03"/>
<text text-anchor="middle" x="183.75" y="-883.5" font-family="Times,serif" font-size="14.00">xsd:string</text>
</g>
<!-- http://w3id.org/oseg/ont/okh#openSCAD&#45;&gt;http://www.w3.org/2001/XMLSchema#string -->
<g id="edge35" class="edge">
<title>http://w3id.org/oseg/ont/okh#openSCAD&#45;&gt;http://www.w3.org/2001/XMLSchema#string</title>
<path fill="none" stroke="black" d="M312,-690.39C287.75,-727.61 228.38,-818.72 199.73,-862.68"/>
<polygon fill="black" stroke="black" points="196.79,-860.77 194.26,-871.06 202.66,-864.59 196.79,-860.77"/>
<text text-anchor="middle" x="183.37" y="-765.33" font-family="Times,serif" font-size="14.00">dcam:rangeIncludes</text>
</g>
<!-- http://w3id.org/oseg/ont/okh#height -->
<g id="node41" class="node">
<title>http://w3id.org/oseg/ont/okh#height</title>
<ellipse fill="none" stroke="#e377c2" cx="65.29" cy="-692.4" rx="65.11" ry="16.03"/>
<text text-anchor="middle" x="65.29" y="-688.7" font-family="Times,serif" font-size="14.00">okh:height</text>
</g>
<!-- http://w3id.org/oseg/ont/okh#openSCAD&#45;&gt;http://w3id.org/oseg/ont/okh#height -->
<g id="edge52" class="edge">
<title>http://w3id.org/oseg/ont/okh#openSCAD&#45;&gt;http://w3id.org/oseg/ont/okh#height</title>
<path fill="none" stroke="black" d="M241.94,-679.78C208.82,-682.15 170.74,-684.87 138.45,-687.17"/>
<polygon fill="black" stroke="black" points="137.9,-683.7 128.18,-687.91 138.4,-690.68 137.9,-683.7"/>
<text text-anchor="middle" x="150.19" y="-672.28" font-family="Times,serif" font-size="14.00">schema:supersededBy</text>
</g>
<!-- http://w3id.org/oseg/ont/okh#value -->
<g id="node33" class="node">
<title>http://w3id.org/oseg/ont/okh#value</title>
<ellipse fill="none" stroke="#e377c2" cx="886.35" cy="-347.18" rx="60.21" ry="16.03"/>
<text text-anchor="middle" x="886.35" y="-343.48" font-family="Times,serif" font-size="14.00">okh:value</text>
</g>
<!-- http://w3id.org/oseg/ont/okh#value&#45;&gt;http://www.w3.org/2002/07/owl#DatatypeProperty -->
<g id="edge34" class="edge">
<title>http://w3id.org/oseg/ont/okh#value&#45;&gt;http://www.w3.org/2002/07/owl#DatatypeProperty</title>
<path fill="none" stroke="black" d="M874.07,-363.46C842.63,-405.11 759.12,-515.74 721.84,-565.14"/>
<polygon fill="black" stroke="black" points="718.88,-563.25 715.64,-573.34 724.46,-567.47 718.88,-563.25"/>
<text text-anchor="middle" x="793.45" y="-468.1" font-family="Times,serif" font-size="14.00">a</text>
</g>
<!-- http://w3id.org/oseg/ont/okh#value&#45;&gt;http://w3id.org/oseg/ont/okh#Mass -->
<g id="edge9" class="edge">
<title>http://w3id.org/oseg/ont/okh#value&#45;&gt;http://w3id.org/oseg/ont/okh#Mass</title>
<path fill="none" stroke="black" d="M937.13,-355.95C972.2,-362.01 1019.01,-370.09 1056.01,-376.48"/>
<polygon fill="black" stroke="black" points="1055.71,-379.99 1066.16,-378.24 1056.9,-373.09 1055.71,-379.99"/>
<text text-anchor="middle" x="918.57" y="-370.02" font-family="Times,serif" font-size="14.00">dcam:domainIncludes</text>
</g>
<!-- http://w3id.org/oseg/ont/okh#value&#45;&gt;http://w3id.org/oseg/ont/okh#hasMass -->
<g id="edge4" class="edge">
<title>http://w3id.org/oseg/ont/okh#value&#45;&gt;http://w3id.org/oseg/ont/okh#hasMass</title>
<path fill="none" stroke="black" d="M875.48,-331.05C851.36,-295.26 793.24,-209.03 764.49,-166.37"/>
<polygon fill="black" stroke="black" points="767.31,-164.3 758.82,-157.96 761.51,-168.21 767.31,-164.3"/>
<text text-anchor="middle" x="739.99" y="-252.51" font-family="Times,serif" font-size="14.00">schema:supersededBy</text>
</g>
<!-- http://w3id.org/oseg/ont/okh#alternativeLicense -->
<g id="node35" class="node">
<title>http://w3id.org/oseg/ont/okh#alternativeLicense</title>
<ellipse fill="none" stroke="#e377c2" cx="1765.87" cy="-604.72" rx="107.46" ry="16.03"/>
<text text-anchor="middle" x="1765.87" y="-601.02" font-family="Times,serif" font-size="14.00">okh:alternativeLi...</text>
</g>
<!-- http://w3id.org/oseg/ont/okh#alternativeLicense&#45;&gt;http://www.w3.org/2004/02/skos/core#Concept -->
<g id="edge36" class="edge">
<title>http://w3id.org/oseg/ont/okh#alternativeLicense&#45;&gt;http://www.w3.org/2004/02/skos/core#Concept</title>
<path fill="none" stroke="black" d="M1707.72,-590.98C1647.4,-576.73 1553.44,-554.52 1491.77,-539.94"/>
<polygon fill="black" stroke="black" points="1492.31,-536.48 1481.78,-537.58 1490.7,-543.29 1492.31,-536.48"/>
<text text-anchor="middle" x="1595.24" y="-569.26" font-family="Times,serif" font-size="14.00">a</text>
</g>
<!-- http://w3id.org/oseg/ont/okh#alternativeLicense&#45;&gt;http://www.w3.org/2002/07/owl#ObjectProperty -->
<g id="edge56" class="edge">
<title>http://w3id.org/oseg/ont/okh#alternativeLicense&#45;&gt;http://www.w3.org/2002/07/owl#ObjectProperty</title>
<path fill="none" stroke="black" d="M1835.18,-617.16C1881.52,-625.47 1942.63,-636.44 1991.08,-645.13"/>
<polygon fill="black" stroke="black" points="1990.75,-648.63 2001.21,-646.95 1991.99,-641.74 1990.75,-648.63"/>
<text text-anchor="middle" x="1908.63" y="-634.95" font-family="Times,serif" font-size="14.00">a</text>
</g>
<!-- http://w3id.org/oseg/ont/okh#alternativeLicense&#45;&gt;http://schema.org/license -->
<g id="edge2" class="edge">
<title>http://w3id.org/oseg/ont/okh#alternativeLicense&#45;&gt;http://schema.org/license</title>
<path fill="none" stroke="black" d="M1771.98,-621.33C1789.17,-668.02 1838.02,-800.71 1858.88,-857.38"/>
<polygon fill="black" stroke="black" points="1855.7,-858.86 1862.44,-867.04 1862.27,-856.44 1855.7,-858.86"/>
<text text-anchor="middle" x="1874.43" y="-728.15" font-family="Times,serif" font-size="14.00">skos:closeMatch</text>
</g>
<!-- http://w3id.org/oseg/ont/okh#alternativeLicense&#45;&gt;http://w3id.org/oseg/ont/okhmetaLegalTag -->
<g id="edge6" class="edge">
<title>http://w3id.org/oseg/ont/okh#alternativeLicense&#45;&gt;http://w3id.org/oseg/ont/okhmetaLegalTag</title>
<path fill="none" stroke="black" d="M1750.06,-621.1C1713.19,-659.29 1621.41,-754.38 1578.41,-798.92"/>
<polygon fill="black" stroke="black" points="1575.64,-796.75 1571.22,-806.37 1580.68,-801.61 1575.64,-796.75"/>
<text text-anchor="middle" x="1587.23" y="-698.81" font-family="Times,serif" font-size="14.00">okhmeta:hasMetaTag</text>
</g>
<!-- http://w3id.org/oseg/ont/okh#alternativeLicense&#45;&gt;http://w3id.org/oseg/ont/okh#license -->
<g id="edge26" class="edge">
<title>http://w3id.org/oseg/ont/okh#alternativeLicense&#45;&gt;http://w3id.org/oseg/ont/okh#license</title>
<path fill="none" stroke="black" d="M1778.3,-621.18C1804.51,-655.89 1865.55,-736.73 1896.28,-777.42"/>
<polygon fill="black" stroke="black" points="1893.53,-779.59 1902.35,-785.46 1899.12,-775.37 1893.53,-779.59"/>
<text text-anchor="middle" x="1757.29" y="-688.1" font-family="Times,serif" font-size="14.00">schema:supersededBy</text>
</g>
<!-- http://w3id.org/oseg/ont/okh#alternativeLicense&#45;&gt;http://w3id.org/oseg/ont/okh#Module -->
<g id="edge27" class="edge">
<title>http://w3id.org/oseg/ont/okh#alternativeLicense&#45;&gt;http://w3id.org/oseg/ont/okh#Module</title>
<path fill="none" stroke="black" d="M1761.07,-621.03C1748.16,-664.9 1712.59,-785.78 1696.85,-839.27"/>
<polygon fill="black" stroke="black" points="1693.45,-838.45 1693.98,-849.03 1700.16,-840.42 1693.45,-838.45"/>
<text text-anchor="middle" x="1650.96" y="-733.95" font-family="Times,serif" font-size="14.00">dcam:domainIncludes</text>
</g>
<!-- http://w3id.org/oseg/ont/okh#alternativeLicense&#45;&gt;http://w3id.org/oseg/ont/okh#File -->
<g id="edge51" class="edge">
<title>http://w3id.org/oseg/ont/okh#alternativeLicense&#45;&gt;http://w3id.org/oseg/ont/okh#File</title>
<path fill="none" stroke="black" d="M1807.26,-589.64C1869.2,-567.06 1985.51,-524.67 2048.83,-501.59"/>
<polygon fill="black" stroke="black" points="2050.33,-504.77 2058.53,-498.06 2047.93,-498.19 2050.33,-504.77"/>
<text text-anchor="middle" x="1855.54" y="-549.41" font-family="Times,serif" font-size="14.00">dcam:rangeIncludes</text>
</g>
<!-- http://w3id.org/oseg/ont/okh#openScad -->
<g id="node36" class="node">
<title>http://w3id.org/oseg/ont/okh#openScad</title>
<ellipse fill="none" stroke="#e377c2" cx="474.44" cy="-791.61" rx="82.05" ry="16.03"/>
<text text-anchor="middle" x="474.44" y="-787.91" font-family="Times,serif" font-size="14.00">okh:openScad</text>
</g>
<!-- http://w3id.org/oseg/ont/okh#openScad&#45;&gt;http://www.w3.org/2002/07/owl#DatatypeProperty -->
<g id="edge39" class="edge">
<title>http://w3id.org/oseg/ont/okh#openScad&#45;&gt;http://www.w3.org/2002/07/owl#DatatypeProperty</title>
<path fill="none" stroke="black" d="M492.79,-775.41C533.32,-739.65 630.57,-653.83 677.38,-612.53"/>
<polygon fill="black" stroke="black" points="679.79,-615.06 684.97,-605.82 675.16,-609.81 679.79,-615.06"/>
<text text-anchor="middle" x="580.58" y="-697.77" font-family="Times,serif" font-size="14.00">a</text>
</g>
<!-- http://w3id.org/oseg/ont/okh#openScad&#45;&gt;http://w3id.org/oseg/ont/okh#openSCAD -->
<g id="edge30" class="edge">
<title>http://w3id.org/oseg/ont/okh#openScad&#45;&gt;http://w3id.org/oseg/ont/okh#openSCAD</title>
<path fill="none" stroke="black" d="M460.6,-775.32C437.87,-754.41 392.17,-718.44 359.57,-695.39"/>
<polygon fill="black" stroke="black" points="361.37,-692.38 351.17,-689.53 357.37,-698.12 361.37,-692.38"/>
<text text-anchor="middle" x="330.08" y="-724.15" font-family="Times,serif" font-size="14.00">schema:supersededBy</text>
</g>
<!-- http://w3id.org/oseg/ont/okh#openScad&#45;&gt;http://w3id.org/oseg/ont/okh#openSCAD -->
<g id="edge33" class="edge">
<title>http://w3id.org/oseg/ont/okh#openScad&#45;&gt;http://w3id.org/oseg/ont/okh#openSCAD</title>
<path fill="none" stroke="black" d="M446.21,-776.27C416.68,-756.08 371.09,-720.74 344.29,-697.27"/>
<polygon fill="black" stroke="black" points="346.4,-694.46 336.61,-690.4 341.73,-699.68 346.4,-694.46"/>
<text text-anchor="middle" x="352.75" y="-740.57" font-family="Times,serif" font-size="14.00">owl:sameAs</text>
</g>
<!-- http://w3id.org/oseg/ont/okh#fileUrl -->
<g id="node38" class="node">
<title>http://w3id.org/oseg/ont/okh#fileUrl</title>
<ellipse fill="none" stroke="#e377c2" cx="2333.42" cy="-562.33" rx="65.11" ry="16.03"/>
<text text-anchor="middle" x="2333.42" y="-558.63" font-family="Times,serif" font-size="14.00">okh:fileUrl</text>
</g>
<!-- http://w3id.org/oseg/ont/okh#fileUrl&#45;&gt;http://www.w3.org/2002/07/owl#ObjectProperty -->
<g id="edge47" class="edge">
<title>http://w3id.org/oseg/ont/okh#fileUrl&#45;&gt;http://www.w3.org/2002/07/owl#ObjectProperty</title>
<path fill="none" stroke="black" d="M2296.97,-575.84C2251.38,-592.75 2173.08,-621.79 2121.75,-640.82"/>
<polygon fill="black" stroke="black" points="2120.34,-637.61 2112.18,-644.37 2122.77,-644.17 2120.34,-637.61"/>
<text text-anchor="middle" x="2204.86" y="-612.13" font-family="Times,serif" font-size="14.00">a</text>
</g>
<!-- http://w3id.org/oseg/ont/okh#fileUrl&#45;&gt;http://w3id.org/oseg/ont/okh#url -->
<g id="edge12" class="edge">
<title>http://w3id.org/oseg/ont/okh#fileUrl&#45;&gt;http://w3id.org/oseg/ont/okh#url</title>
<path fill="none" stroke="black" d="M2371.96,-575.61C2405.88,-587.3 2455.2,-604.29 2490.37,-616.41"/>
<polygon fill="black" stroke="black" points="2489.3,-619.74 2499.89,-619.69 2491.58,-613.12 2489.3,-619.74"/>
<text text-anchor="middle" x="2351.17" y="-599.81" font-family="Times,serif" font-size="14.00">schema:supersededBy</text>
</g>
<!-- http://w3id.org/oseg/ont/okh#fileUrl&#45;&gt;http://schema.org/url -->
<g id="edge19" class="edge">
<title>http://w3id.org/oseg/ont/okh#fileUrl&#45;&gt;http://schema.org/url</title>
<path fill="none" stroke="black" d="M2376.72,-550.11C2413.78,-539.65 2467.29,-524.55 2507.07,-513.32"/>
<polygon fill="black" stroke="black" points="2508.19,-516.64 2516.87,-510.55 2506.29,-509.9 2508.19,-516.64"/>
<text text-anchor="middle" x="2388.89" y="-535.51" font-family="Times,serif" font-size="14.00">subPropertyOf</text>
</g>
<!-- http://w3id.org/oseg/ont/okh#fileUrl&#45;&gt;http://w3id.org/oseg/ont/okh#File -->
<g id="edge28" class="edge">
<title>http://w3id.org/oseg/ont/okh#fileUrl&#45;&gt;http://w3id.org/oseg/ont/okh#File</title>
<path fill="none" stroke="black" d="M2293.12,-549.49C2250.67,-535.97 2183.93,-514.7 2139.25,-500.47"/>
<polygon fill="black" stroke="black" points="2140.1,-497.07 2129.51,-497.37 2137.98,-503.74 2140.1,-497.07"/>
<text text-anchor="middle" x="2138.18" y="-528.78" font-family="Times,serif" font-size="14.00">dcam:domainIncludes</text>
</g>
<!-- http://w3id.org/oseg/ont/okh#relatedTsdc -->
<g id="node42" class="node">
<title>http://w3id.org/oseg/ont/okh#relatedTsdc</title>
<ellipse fill="none" stroke="#e377c2" cx="2112.66" cy="-932.77" rx="91.85" ry="16.03"/>
<text text-anchor="middle" x="2112.66" y="-929.07" font-family="Times,serif" font-size="14.00">okh:relatedTsdc</text>
</g>
<!-- http://w3id.org/oseg/ont/okh#relatedTsdc&#45;&gt;http://www.w3.org/2002/07/owl#ObjectProperty -->
<g id="edge54" class="edge">
<title>http://w3id.org/oseg/ont/okh#relatedTsdc&#45;&gt;http://www.w3.org/2002/07/owl#ObjectProperty</title>
<path fill="none" stroke="black" d="M2110.2,-916.5C2103.32,-871.05 2083.85,-742.41 2075.35,-686.28"/>
<polygon fill="black" stroke="black" points="2078.76,-685.43 2073.81,-676.06 2071.84,-686.47 2078.76,-685.43"/>
<text text-anchor="middle" x="2088.28" y="-805.19" font-family="Times,serif" font-size="14.00">a</text>
</g>
<!-- http://w3id.org/oseg/ont/okh#relatedTsdc&#45;&gt;http://w3id.org/oseg/ont/okh#tsdc -->
<g id="edge15" class="edge">
<title>http://w3id.org/oseg/ont/okh#relatedTsdc&#45;&gt;http://w3id.org/oseg/ont/okh#tsdc</title>
<path fill="none" stroke="black" d="M2118.24,-949.28C2122.53,-956.43 2128.54,-964.9 2134.73,-972.67"/>
<polygon fill="black" stroke="black" points="2132.35,-975.29 2141.44,-980.73 2137.73,-970.81 2132.35,-975.29"/>
<text text-anchor="middle" x="2083.98" y="-964.77" font-family="Times,serif" font-size="14.00">owl:sameAs</text>
</g>
<!-- http://w3id.org/oseg/ont/okh#relatedTsdc&#45;&gt;http://w3id.org/oseg/ont/okh#tsdc -->
<g id="edge22" class="edge">
<title>http://w3id.org/oseg/ont/okh#relatedTsdc&#45;&gt;http://w3id.org/oseg/ont/okh#tsdc</title>
<path fill="none" stroke="black" d="M2132.99,-948.94C2138.82,-955.69 2144.94,-963.65 2150.02,-971.11"/>
<polygon fill="black" stroke="black" points="2147.08,-973.01 2155.43,-979.52 2152.96,-969.22 2147.08,-973.01"/>
<text text-anchor="middle" x="2221.5" y="-963.83" font-family="Times,serif" font-size="14.00">schema:supersededBy</text>
</g>
</g>
</svg>
