<?xml version="1.0" encoding="UTF-8" standalone="no"?>
<!DOCTYPE svg PUBLIC "-//W3C//DTD SVG 1.1//EN"
 "http://www.w3.org/Graphics/SVG/1.1/DTD/svg11.dtd">
<!-- Generated by graphviz version 2.43.0 (0)
 -->
<!-- Title: G Pages: 1 -->
<svg width="1417pt" height="1613pt"
 viewBox="0.00 0.00 1417.00 1613.00" xmlns="http://www.w3.org/2000/svg" xmlns:xlink="http://www.w3.org/1999/xlink">
<g id="graph0" class="graph" transform="scale(1 1) rotate(0) translate(4 1609)">
<title>G</title>
<polygon fill="white" stroke="transparent" points="-4,4 -4,-1609 1413,-1609 1413,4 -4,4"/>
<!-- http://w3id.org/oseg/ont/okh#ComponentReference -->
<g id="node1" class="node">
<title>http://w3id.org/oseg/ont/okh#ComponentReference</title>
<ellipse fill="none" stroke="#e377c2" cx="440.83" cy="-237.72" rx="123.07" ry="16.03"/>
<text text-anchor="middle" x="440.83" y="-234.02" font-family="Times,serif" font-size="14.00">okh:ComponentRefe...</text>
</g>
<!-- http://www.w3.org/2004/02/skos/core#Concept -->
<g id="node5" class="node">
<title>http://www.w3.org/2004/02/skos/core#Concept</title>
<ellipse fill="none" stroke="#1f77b4" cx="690.56" cy="-401.99" rx="78.48" ry="16.03"/>
<text text-anchor="middle" x="690.56" y="-398.29" font-family="Times,serif" font-size="14.00">skos:Concept</text>
</g>
<!-- http://w3id.org/oseg/ont/okh#ComponentReference&#45;&gt;http://www.w3.org/2004/02/skos/core#Concept -->
<g id="edge38" class="edge">
<title>http://w3id.org/oseg/ont/okh#ComponentReference&#45;&gt;http://www.w3.org/2004/02/skos/core#Concept</title>
<path fill="none" stroke="black" d="M465.23,-253.77C510.5,-283.55 607.49,-347.35 658.18,-380.7"/>
<polygon fill="black" stroke="black" points="656.52,-383.79 666.79,-386.36 660.36,-377.94 656.52,-383.79"/>
<text text-anchor="middle" x="557.21" y="-321.03" font-family="Times,serif" font-size="14.00">a</text>
</g>
<!-- http://w3id.org/oseg/ont/okh#Reference -->
<g id="node6" class="node">
<title>http://w3id.org/oseg/ont/okh#Reference</title>
<ellipse fill="none" stroke="#e377c2" cx="249.47" cy="-16.61" rx="84.29" ry="16.03"/>
<text text-anchor="middle" x="249.47" y="-12.91" font-family="Times,serif" font-size="14.00">okh:Reference</text>
</g>
<!-- http://w3id.org/oseg/ont/okh#ComponentReference&#45;&gt;http://w3id.org/oseg/ont/okh#Reference -->
<g id="edge7" class="edge">
<title>http://w3id.org/oseg/ont/okh#ComponentReference&#45;&gt;http://w3id.org/oseg/ont/okh#Reference</title>
<path fill="none" stroke="black" d="M426.76,-221.46C393.38,-182.89 309.26,-85.69 270.11,-40.46"/>
<polygon fill="black" stroke="black" points="272.76,-38.16 263.57,-32.89 267.46,-42.75 272.76,-38.16"/>
</g>
<!-- http://w3id.org/oseg/ont/okhmetaPartsTag -->
<g id="node39" class="node">
<title>http://w3id.org/oseg/ont/okhmetaPartsTag</title>
<ellipse fill="none" stroke="#e377c2" cx="448.76" cy="-195.7" rx="103.48" ry="16.03"/>
<text text-anchor="middle" x="448.76" y="-192" font-family="Times,serif" font-size="14.00">okhmeta:PartsTag</text>
</g>
<!-- http://w3id.org/oseg/ont/okh#ComponentReference&#45;&gt;http://w3id.org/oseg/ont/okhmetaPartsTag -->
<g id="edge44" class="edge">
<title>http://w3id.org/oseg/ont/okh#ComponentReference&#45;&gt;http://w3id.org/oseg/ont/okhmetaPartsTag</title>
<path fill="none" stroke="black" d="M443.97,-221.11C443.98,-221.02 444,-220.93 444.02,-220.84"/>
<polygon fill="black" stroke="black" points="447.24,-222.67 445.65,-212.19 440.36,-221.37 447.24,-222.67"/>
<text text-anchor="middle" x="366.99" y="-209.78" font-family="Times,serif" font-size="14.00">okhmeta:hasMetaTag</text>
</g>
<!-- http://w3id.org/oseg/ont/okh#Mass -->
<g id="node2" class="node">
<title>http://w3id.org/oseg/ont/okh#Mass</title>
<ellipse fill="none" stroke="#e377c2" cx="484.33" cy="-591.38" rx="59.29" ry="16.03"/>
<text text-anchor="middle" x="484.33" y="-587.68" font-family="Times,serif" font-size="14.00">okh:Mass</text>
</g>
<!-- http://w3id.org/oseg/ont/okh#Mass&#45;&gt;http://www.w3.org/2004/02/skos/core#Concept -->
<g id="edge21" class="edge">
<title>http://w3id.org/oseg/ont/okh#Mass&#45;&gt;http://www.w3.org/2004/02/skos/core#Concept</title>
<path fill="none" stroke="black" d="M501.56,-575.55C538.1,-541.99 623.5,-463.57 665.85,-424.68"/>
<polygon fill="black" stroke="black" points="668.24,-427.24 673.23,-417.9 663.5,-422.09 668.24,-427.24"/>
<text text-anchor="middle" x="579.2" y="-503.92" font-family="Times,serif" font-size="14.00">a</text>
</g>
<!-- http://w3id.org/oseg/ont/okhmetaPhysicalTag -->
<g id="node25" class="node">
<title>http://w3id.org/oseg/ont/okhmetaPhysicalTag</title>
<ellipse fill="none" stroke="#e377c2" cx="292.73" cy="-757.25" rx="118.17" ry="16.03"/>
<text text-anchor="middle" x="292.73" y="-753.55" font-family="Times,serif" font-size="14.00">okhmeta:PhysicalTag</text>
</g>
<!-- http://w3id.org/oseg/ont/okh#Mass&#45;&gt;http://w3id.org/oseg/ont/okhmetaPhysicalTag -->
<g id="edge22" class="edge">
<title>http://w3id.org/oseg/ont/okh#Mass&#45;&gt;http://w3id.org/oseg/ont/okhmetaPhysicalTag</title>
<path fill="none" stroke="black" d="M466.3,-606.98C432.39,-636.34 358.93,-699.94 319.32,-734.22"/>
<polygon fill="black" stroke="black" points="316.68,-731.88 311.41,-741.07 321.26,-737.18 316.68,-731.88"/>
<text text-anchor="middle" x="315.81" y="-674.4" font-family="Times,serif" font-size="14.00">okhmeta:hasMetaTag</text>
</g>
<!-- http://w3id.org/oseg/ont/okhmetaTransportationTag -->
<g id="node29" class="node">
<title>http://w3id.org/oseg/ont/okhmetaTransportationTag</title>
<ellipse fill="none" stroke="#e377c2" cx="233.78" cy="-645.2" rx="118.17" ry="16.03"/>
<text text-anchor="middle" x="233.78" y="-641.5" font-family="Times,serif" font-size="14.00">okhmeta:Transport...</text>
</g>
<!-- http://w3id.org/oseg/ont/okh#Mass&#45;&gt;http://w3id.org/oseg/ont/okhmetaTransportationTag -->
<g id="edge25" class="edge">
<title>http://w3id.org/oseg/ont/okh#Mass&#45;&gt;http://w3id.org/oseg/ont/okhmetaTransportationTag</title>
<path fill="none" stroke="black" d="M437.5,-601.44C401.05,-609.27 349.77,-620.28 307.78,-629.3"/>
<polygon fill="black" stroke="black" points="306.91,-625.91 297.87,-631.43 308.38,-632.75 306.91,-625.91"/>
<text text-anchor="middle" x="295.64" y="-604.17" font-family="Times,serif" font-size="14.00">okhmeta:hasMetaTag</text>
</g>
<!-- http://schema.org/URL -->
<g id="node3" class="node">
<title>http://schema.org/URL</title>
<ellipse fill="none" stroke="#e377c2" cx="604.14" cy="-47.48" rx="75.82" ry="16.03"/>
<text text-anchor="middle" x="604.14" y="-43.78" font-family="Times,serif" font-size="14.00">schema:URL</text>
</g>
<!-- http://w3id.org/oseg/ont/okh#FileUrl -->
<g id="node4" class="node">
<title>http://w3id.org/oseg/ont/okh#FileUrl</title>
<ellipse fill="none" stroke="#1f77b4" cx="657.5" cy="-259.25" rx="68.68" ry="16.03"/>
<text text-anchor="middle" x="657.5" y="-255.55" font-family="Times,serif" font-size="14.00">okh:FileUrl</text>
</g>
<!-- http://w3id.org/oseg/ont/okh#FileUrl&#45;&gt;http://w3id.org/oseg/ont/okh#ComponentReference -->
<g id="edge29" class="edge">
<title>http://w3id.org/oseg/ont/okh#FileUrl&#45;&gt;http://w3id.org/oseg/ont/okh#ComponentReference</title>
<path fill="none" stroke="black" d="M593.96,-252.94C579.93,-251.54 564.68,-250.03 549.42,-248.51"/>
<polygon fill="black" stroke="black" points="549.7,-245.02 539.4,-247.52 549.01,-251.99 549.7,-245.02"/>
</g>
<!-- http://w3id.org/oseg/ont/okh#FileUrl&#45;&gt;http://schema.org/URL -->
<g id="edge14" class="edge">
<title>http://w3id.org/oseg/ont/okh#FileUrl&#45;&gt;http://schema.org/URL</title>
<path fill="none" stroke="black" d="M653.4,-242.99C644.21,-206.49 621.86,-117.83 610.71,-73.55"/>
<polygon fill="black" stroke="black" points="614.09,-72.64 608.25,-63.8 607.3,-74.35 614.09,-72.64"/>
</g>
<!-- http://w3id.org/oseg/ont/okh#File -->
<g id="node9" class="node">
<title>http://w3id.org/oseg/ont/okh#File</title>
<ellipse fill="none" stroke="#e377c2" cx="834.02" cy="-418.56" rx="52.15" ry="16.03"/>
<text text-anchor="middle" x="834.02" y="-414.86" font-family="Times,serif" font-size="14.00">okh:File</text>
</g>
<!-- http://w3id.org/oseg/ont/okh#FileUrl&#45;&gt;http://w3id.org/oseg/ont/okh#File -->
<g id="edge6" class="edge">
<title>http://w3id.org/oseg/ont/okh#FileUrl&#45;&gt;http://w3id.org/oseg/ont/okh#File</title>
<path fill="none" stroke="black" d="M675.07,-275.11C706.61,-303.57 772.9,-363.4 809.11,-396.08"/>
<polygon fill="black" stroke="black" points="807.01,-398.9 816.78,-403 811.7,-393.7 807.01,-398.9"/>
<text text-anchor="middle" x="662.09" y="-324.39" font-family="Times,serif" font-size="14.00">schema:supersededBy</text>
</g>
<!-- http://w3id.org/oseg/ont/okh#Dimensions -->
<g id="node7" class="node">
<title>http://w3id.org/oseg/ont/okh#Dimensions</title>
<ellipse fill="none" stroke="#e377c2" cx="388.45" cy="-1075.8" rx="91.85" ry="16.03"/>
<text text-anchor="middle" x="388.45" y="-1072.1" font-family="Times,serif" font-size="14.00">okh:Dimensions</text>
</g>
<!-- http://w3id.org/oseg/ont/okh#spdxLicense -->
<g id="node8" class="node">
<title>http://w3id.org/oseg/ont/okh#spdxLicense</title>
<ellipse fill="none" stroke="#e377c2" cx="1017.79" cy="-422.31" rx="94.51" ry="16.03"/>
<text text-anchor="middle" x="1017.79" y="-418.61" font-family="Times,serif" font-size="14.00">okh:spdxLicense</text>
</g>
<!-- http://w3id.org/oseg/ont/okh#spdxLicense&#45;&gt;http://www.w3.org/2004/02/skos/core#Concept -->
<g id="edge2" class="edge">
<title>http://w3id.org/oseg/ont/okh#spdxLicense&#45;&gt;http://www.w3.org/2004/02/skos/core#Concept</title>
<path fill="none" stroke="black" d="M928.38,-416.76C880.86,-413.81 822.76,-410.2 775.88,-407.29"/>
<polygon fill="black" stroke="black" points="775.95,-403.79 765.75,-406.66 775.51,-410.77 775.95,-403.79"/>
<text text-anchor="middle" x="847.63" y="-400.82" font-family="Times,serif" font-size="14.00">a</text>
</g>
<!-- http://w3id.org/oseg/ont/okh#license -->
<g id="node16" class="node">
<title>http://w3id.org/oseg/ont/okh#license</title>
<ellipse fill="none" stroke="#e377c2" cx="1233.84" cy="-444.3" rx="67.76" ry="16.03"/>
<text text-anchor="middle" x="1233.84" y="-440.6" font-family="Times,serif" font-size="14.00">okh:license</text>
</g>
<!-- http://w3id.org/oseg/ont/okh#spdxLicense&#45;&gt;http://w3id.org/oseg/ont/okh#license -->
<g id="edge39" class="edge">
<title>http://w3id.org/oseg/ont/okh#spdxLicense&#45;&gt;http://w3id.org/oseg/ont/okh#license</title>
<path fill="none" stroke="black" d="M1099.47,-430.62C1119.72,-432.68 1141.28,-434.88 1161.08,-436.89"/>
<polygon fill="black" stroke="black" points="1160.94,-440.4 1171.25,-437.93 1161.65,-433.44 1160.94,-440.4"/>
<text text-anchor="middle" x="1210.27" y="-422.56" font-family="Times,serif" font-size="14.00">schema:supersededBy</text>
</g>
<!-- http://w3id.org/oseg/ont/okh#Module -->
<g id="node17" class="node">
<title>http://w3id.org/oseg/ont/okh#Module</title>
<ellipse fill="none" stroke="#e377c2" cx="1186.92" cy="-298.56" rx="70.92" ry="16.03"/>
<text text-anchor="middle" x="1186.92" y="-294.86" font-family="Times,serif" font-size="14.00">okh:Module</text>
</g>
<!-- http://w3id.org/oseg/ont/okh#spdxLicense&#45;&gt;http://w3id.org/oseg/ont/okh#Module -->
<g id="edge40" class="edge">
<title>http://w3id.org/oseg/ont/okh#spdxLicense&#45;&gt;http://w3id.org/oseg/ont/okh#Module</title>
<path fill="none" stroke="black" d="M1039.56,-406.38C1069.58,-384.42 1123.79,-344.75 1157.43,-320.14"/>
<polygon fill="black" stroke="black" points="1159.51,-322.95 1165.51,-314.23 1155.37,-317.31 1159.51,-322.95"/>
<text text-anchor="middle" x="1020.49" y="-367.06" font-family="Times,serif" font-size="14.00">dcam:domainIncludes</text>
</g>
<!-- http://spdx.org/rdf/terms#ListedLicense -->
<g id="node26" class="node">
<title>http://spdx.org/rdf/terms#ListedLicense</title>
<ellipse fill="none" stroke="#e377c2" cx="1300.82" cy="-344.41" rx="108.38" ry="16.03"/>
<text text-anchor="middle" x="1300.82" y="-340.71" font-family="Times,serif" font-size="14.00">spdx:ListedLicense</text>
</g>
<!-- http://w3id.org/oseg/ont/okh#spdxLicense&#45;&gt;http://spdx.org/rdf/terms#ListedLicense -->
<g id="edge23" class="edge">
<title>http://w3id.org/oseg/ont/okh#spdxLicense&#45;&gt;http://spdx.org/rdf/terms#ListedLicense</title>
<path fill="none" stroke="black" d="M1068.07,-408.47C1115.72,-395.36 1187.44,-375.62 1238.67,-361.52"/>
<polygon fill="black" stroke="black" points="1239.91,-364.81 1248.62,-358.78 1238.05,-358.06 1239.91,-364.81"/>
<text text-anchor="middle" x="1225.87" y="-388.79" font-family="Times,serif" font-size="14.00">dcam:rangeIncludes</text>
</g>
<!-- http://w3id.org/oseg/ont/okhmetaLegalTag -->
<g id="node32" class="node">
<title>http://w3id.org/oseg/ont/okhmetaLegalTag</title>
<ellipse fill="none" stroke="#e377c2" cx="1185.76" cy="-636.16" rx="103.89" ry="16.03"/>
<text text-anchor="middle" x="1185.76" y="-632.46" font-family="Times,serif" font-size="14.00">okhmeta:LegalTag</text>
</g>
<!-- http://w3id.org/oseg/ont/okh#spdxLicense&#45;&gt;http://w3id.org/oseg/ont/okhmetaLegalTag -->
<g id="edge34" class="edge">
<title>http://w3id.org/oseg/ont/okh#spdxLicense&#45;&gt;http://w3id.org/oseg/ont/okhmetaLegalTag</title>
<path fill="none" stroke="black" d="M1030.69,-438.73C1060.08,-476.14 1132.1,-567.85 1166.65,-611.84"/>
<polygon fill="black" stroke="black" points="1164.11,-614.27 1173.04,-619.97 1169.62,-609.95 1164.11,-614.27"/>
<text text-anchor="middle" x="1021.67" y="-529.09" font-family="Times,serif" font-size="14.00">okhmeta:hasMetaTag</text>
</g>
<!-- http://schema.org/license -->
<g id="node36" class="node">
<title>http://schema.org/license</title>
<ellipse fill="none" stroke="#e377c2" cx="1238.11" cy="-540.1" rx="88.28" ry="16.03"/>
<text text-anchor="middle" x="1238.11" y="-536.4" font-family="Times,serif" font-size="14.00">schema:license</text>
</g>
<!-- http://w3id.org/oseg/ont/okh#spdxLicense&#45;&gt;http://schema.org/license -->
<g id="edge32" class="edge">
<title>http://w3id.org/oseg/ont/okh#spdxLicense&#45;&gt;http://schema.org/license</title>
<path fill="none" stroke="black" d="M1047.05,-437.95C1086.5,-459.04 1156.8,-496.63 1200.24,-519.85"/>
<polygon fill="black" stroke="black" points="1198.61,-522.95 1209.08,-524.58 1201.91,-516.78 1198.61,-522.95"/>
<text text-anchor="middle" x="1182.65" y="-482.7" font-family="Times,serif" font-size="14.00">skos:closeMatch</text>
</g>
<!-- http://schema.org/url -->
<g id="node10" class="node">
<title>http://schema.org/url</title>
<ellipse fill="none" stroke="#e377c2" cx="968.51" cy="-253.55" rx="67.35" ry="16.03"/>
<text text-anchor="middle" x="968.51" y="-249.85" font-family="Times,serif" font-size="14.00">schema:url</text>
</g>
<!-- http://w3id.org/oseg/ont/okh#url -->
<g id="node11" class="node">
<title>http://w3id.org/oseg/ont/okh#url</title>
<ellipse fill="none" stroke="#e377c2" cx="1038.43" cy="-122.71" rx="47.25" ry="16.03"/>
<text text-anchor="middle" x="1038.43" y="-119.01" font-family="Times,serif" font-size="14.00">okh:url</text>
</g>
<!-- http://w3id.org/oseg/ont/okh#okhvOrig -->
<g id="node12" class="node">
<title>http://w3id.org/oseg/ont/okh#okhvOrig</title>
<ellipse fill="none" stroke="#e377c2" cx="847.13" cy="-990.4" rx="79.39" ry="16.03"/>
<text text-anchor="middle" x="847.13" y="-986.7" font-family="Times,serif" font-size="14.00">okh:okhvOrig</text>
</g>
<!-- http://w3id.org/oseg/ont/okh#tsdc -->
<g id="node13" class="node">
<title>http://w3id.org/oseg/ont/okh#tsdc</title>
<ellipse fill="none" stroke="#e377c2" cx="726.61" cy="-808.33" rx="54.39" ry="16.03"/>
<text text-anchor="middle" x="726.61" y="-804.63" font-family="Times,serif" font-size="14.00">okh:tsdc</text>
</g>
<!-- http://w3id.org/oseg/ont/okh#fileUrl -->
<g id="node14" class="node">
<title>http://w3id.org/oseg/ont/okh#fileUrl</title>
<ellipse fill="none" stroke="#e377c2" cx="954.91" cy="-302.8" rx="65.11" ry="16.03"/>
<text text-anchor="middle" x="954.91" y="-299.1" font-family="Times,serif" font-size="14.00">okh:fileUrl</text>
</g>
<!-- http://w3id.org/oseg/ont/okh#fileUrl&#45;&gt;http://w3id.org/oseg/ont/okh#File -->
<g id="edge36" class="edge">
<title>http://w3id.org/oseg/ont/okh#fileUrl&#45;&gt;http://w3id.org/oseg/ont/okh#File</title>
<path fill="none" stroke="black" d="M938.1,-318.89C917.23,-338.87 881.51,-373.08 857.83,-395.76"/>
<polygon fill="black" stroke="black" points="855.1,-393.52 850.3,-402.97 859.94,-398.58 855.1,-393.52"/>
<text text-anchor="middle" x="975.96" y="-346.13" font-family="Times,serif" font-size="14.00">dcam:domainIncludes</text>
</g>
<!-- http://w3id.org/oseg/ont/okh#fileUrl&#45;&gt;http://schema.org/url -->
<g id="edge4" class="edge">
<title>http://w3id.org/oseg/ont/okh#fileUrl&#45;&gt;http://schema.org/url</title>
<path fill="none" stroke="black" d="M959.44,-286.4C960.03,-284.26 960.64,-282.03 961.26,-279.78"/>
<polygon fill="black" stroke="black" points="964.66,-280.61 963.95,-270.04 957.92,-278.75 964.66,-280.61"/>
<text text-anchor="middle" x="907.35" y="-271.89" font-family="Times,serif" font-size="14.00">subPropertyOf</text>
</g>
<!-- http://w3id.org/oseg/ont/okh#fileUrl&#45;&gt;http://w3id.org/oseg/ont/okh#url -->
<g id="edge5" class="edge">
<title>http://w3id.org/oseg/ont/okh#fileUrl&#45;&gt;http://w3id.org/oseg/ont/okh#url</title>
<path fill="none" stroke="black" d="M962.46,-286.5C977.06,-255.02 1009.23,-185.68 1026.65,-148.1"/>
<polygon fill="black" stroke="black" points="1029.92,-149.39 1030.95,-138.84 1023.57,-146.44 1029.92,-149.39"/>
<text text-anchor="middle" x="914.56" y="-221.1" font-family="Times,serif" font-size="14.00">schema:supersededBy</text>
</g>
<!-- http://w3id.org/oseg/ont/okh#okhvOriginal -->
<g id="node15" class="node">
<title>http://w3id.org/oseg/ont/okh#okhvOriginal</title>
<ellipse fill="none" stroke="#e377c2" cx="1236.91" cy="-880.58" rx="97.66" ry="16.03"/>
<text text-anchor="middle" x="1236.91" y="-876.88" font-family="Times,serif" font-size="14.00">okh:okhvOriginal</text>
</g>
<!-- http://w3id.org/oseg/ont/okh#okhv -->
<g id="node19" class="node">
<title>http://w3id.org/oseg/ont/okh#okhv</title>
<ellipse fill="none" stroke="#e377c2" cx="1059.5" cy="-899.18" rx="56.64" ry="16.03"/>
<text text-anchor="middle" x="1059.5" y="-895.48" font-family="Times,serif" font-size="14.00">okh:okhv</text>
</g>
<!-- http://w3id.org/oseg/ont/okh#okhvOriginal&#45;&gt;http://w3id.org/oseg/ont/okh#okhv -->
<g id="edge20" class="edge">
<title>http://w3id.org/oseg/ont/okh#okhvOriginal&#45;&gt;http://w3id.org/oseg/ont/okh#okhv</title>
<path fill="none" stroke="black" d="M1154.18,-889.25C1143.61,-890.36 1132.93,-891.48 1122.73,-892.55"/>
<polygon fill="black" stroke="black" points="1122.31,-889.08 1112.73,-893.6 1123.04,-896.04 1122.31,-889.08"/>
<text text-anchor="middle" x="1191.46" y="-894.7" font-family="Times,serif" font-size="14.00">subPropertyOf</text>
</g>
<!-- http://w3id.org/oseg/ont/okh#okhvStored -->
<g id="node35" class="node">
<title>http://w3id.org/oseg/ont/okh#okhvStored</title>
<ellipse fill="none" stroke="#e377c2" cx="1250.88" cy="-926.91" rx="90.52" ry="16.03"/>
<text text-anchor="middle" x="1250.88" y="-923.21" font-family="Times,serif" font-size="14.00">okh:okhvStored</text>
</g>
<!-- http://w3id.org/oseg/ont/okh#okhvOriginal&#45;&gt;http://w3id.org/oseg/ont/okh#okhvStored -->
<g id="edge31" class="edge">
<title>http://w3id.org/oseg/ont/okh#okhvOriginal&#45;&gt;http://w3id.org/oseg/ont/okh#okhvStored</title>
<path fill="none" stroke="black" d="M1241.87,-897.04C1242.24,-898.27 1242.62,-899.53 1243,-900.8"/>
<polygon fill="black" stroke="black" points="1239.69,-901.93 1245.93,-910.5 1246.39,-899.91 1239.69,-901.93"/>
<text text-anchor="middle" x="1269.94" y="-902.72" font-family="Times,serif" font-size="14.00">seeAlso</text>
</g>
<!-- http://w3id.org/oseg/ont/okh#height -->
<g id="node18" class="node">
<title>http://w3id.org/oseg/ont/okh#height</title>
<ellipse fill="none" stroke="#e377c2" cx="420.95" cy="-1577.27" rx="65.11" ry="16.03"/>
<text text-anchor="middle" x="420.95" y="-1573.57" font-family="Times,serif" font-size="14.00">okh:height</text>
</g>
<!-- http://w3id.org/oseg/ont/okh#openSCAD -->
<g id="node20" class="node">
<title>http://w3id.org/oseg/ont/okh#openSCAD</title>
<ellipse fill="none" stroke="#e377c2" cx="329.69" cy="-1378.71" rx="86.03" ry="16.03"/>
<text text-anchor="middle" x="329.69" y="-1375.01" font-family="Times,serif" font-size="14.00">okh:openSCAD</text>
</g>
<!-- http://w3id.org/oseg/ont/okh#openSCAD&#45;&gt;http://w3id.org/oseg/ont/okh#Dimensions -->
<g id="edge43" class="edge">
<title>http://w3id.org/oseg/ont/okh#openSCAD&#45;&gt;http://w3id.org/oseg/ont/okh#Dimensions</title>
<path fill="none" stroke="black" d="M332.85,-1362.42C342.47,-1312.81 371.5,-1163.2 383.34,-1102.17"/>
<polygon fill="black" stroke="black" points="386.81,-1102.65 385.28,-1092.17 379.94,-1101.32 386.81,-1102.65"/>
<text text-anchor="middle" x="280.09" y="-1236.09" font-family="Times,serif" font-size="14.00">dcam:domainIncludes</text>
</g>
<!-- http://w3id.org/oseg/ont/okh#openSCAD&#45;&gt;http://w3id.org/oseg/ont/okh#height -->
<g id="edge13" class="edge">
<title>http://w3id.org/oseg/ont/okh#openSCAD&#45;&gt;http://w3id.org/oseg/ont/okh#height</title>
<path fill="none" stroke="black" d="M337.16,-1394.96C353.04,-1429.51 390.27,-1510.52 409.3,-1551.93"/>
<polygon fill="black" stroke="black" points="406.15,-1553.45 413.5,-1561.08 412.51,-1550.53 406.15,-1553.45"/>
<text text-anchor="middle" x="293.23" y="-1462.24" font-family="Times,serif" font-size="14.00">schema:supersededBy</text>
</g>
<!-- http://www.w3.org/2001/XMLSchema#string -->
<g id="node30" class="node">
<title>http://www.w3.org/2001/XMLSchema#string</title>
<ellipse fill="none" stroke="#e377c2" cx="278.12" cy="-1588.3" rx="62.87" ry="16.03"/>
<text text-anchor="middle" x="278.12" y="-1584.6" font-family="Times,serif" font-size="14.00">xsd:string</text>
</g>
<!-- http://w3id.org/oseg/ont/okh#openSCAD&#45;&gt;http://www.w3.org/2001/XMLSchema#string -->
<g id="edge26" class="edge">
<title>http://w3id.org/oseg/ont/okh#openSCAD&#45;&gt;http://www.w3.org/2001/XMLSchema#string</title>
<path fill="none" stroke="black" d="M325.64,-1395.15C316.74,-1431.35 295.38,-1518.17 284.59,-1562.02"/>
<polygon fill="black" stroke="black" points="281.14,-1561.39 282.15,-1571.93 287.94,-1563.06 281.14,-1561.39"/>
<text text-anchor="middle" x="232.62" y="-1482.38" font-family="Times,serif" font-size="14.00">dcam:rangeIncludes</text>
</g>
<!-- http://w3id.org/oseg/ont/okh#depth -->
<g id="node33" class="node">
<title>http://w3id.org/oseg/ont/okh#depth</title>
<ellipse fill="none" stroke="#e377c2" cx="189.9" cy="-1540.39" rx="62.45" ry="16.03"/>
<text text-anchor="middle" x="189.9" y="-1536.69" font-family="Times,serif" font-size="14.00">okh:depth</text>
</g>
<!-- http://w3id.org/oseg/ont/okh#openSCAD&#45;&gt;http://w3id.org/oseg/ont/okh#depth -->
<g id="edge30" class="edge">
<title>http://w3id.org/oseg/ont/okh#openSCAD&#45;&gt;http://w3id.org/oseg/ont/okh#depth</title>
<path fill="none" stroke="black" d="M315.77,-1394.8C291.07,-1423.37 239.45,-1483.08 210.58,-1516.47"/>
<polygon fill="black" stroke="black" points="207.65,-1514.51 203.76,-1524.36 212.95,-1519.09 207.65,-1514.51"/>
<text text-anchor="middle" x="343.18" y="-1444.44" font-family="Times,serif" font-size="14.00">schema:supersededBy</text>
</g>
<!-- http://w3id.org/oseg/ont/okh#width -->
<g id="node37" class="node">
<title>http://w3id.org/oseg/ont/okh#width</title>
<ellipse fill="none" stroke="#e377c2" cx="496.34" cy="-1506.02" rx="61.54" ry="16.03"/>
<text text-anchor="middle" x="496.34" y="-1502.32" font-family="Times,serif" font-size="14.00">okh:width</text>
</g>
<!-- http://w3id.org/oseg/ont/okh#openSCAD&#45;&gt;http://w3id.org/oseg/ont/okh#width -->
<g id="edge35" class="edge">
<title>http://w3id.org/oseg/ont/okh#openSCAD&#45;&gt;http://w3id.org/oseg/ont/okh#width</title>
<path fill="none" stroke="black" d="M350.46,-1394.57C380.14,-1417.25 434.78,-1458.99 468.1,-1484.45"/>
<polygon fill="black" stroke="black" points="466.02,-1487.26 476.09,-1490.55 470.27,-1481.7 466.02,-1487.26"/>
<text text-anchor="middle" x="329.28" y="-1428.31" font-family="Times,serif" font-size="14.00">schema:supersededBy</text>
</g>
<!-- http://w3id.org/oseg/ont/okh#hasMass -->
<g id="node21" class="node">
<title>http://w3id.org/oseg/ont/okh#hasMass</title>
<ellipse fill="none" stroke="#e377c2" cx="77.43" cy="-485.11" rx="77.15" ry="16.03"/>
<text text-anchor="middle" x="77.43" y="-481.41" font-family="Times,serif" font-size="14.00">okh:hasMass</text>
</g>
<!-- http://w3id.org/oseg/ont/okh#alternativeLicense -->
<g id="node22" class="node">
<title>http://w3id.org/oseg/ont/okh#alternativeLicense</title>
<ellipse fill="none" stroke="#e377c2" cx="1006.82" cy="-465.64" rx="107.46" ry="16.03"/>
<text text-anchor="middle" x="1006.82" y="-461.94" font-family="Times,serif" font-size="14.00">okh:alternativeLi...</text>
</g>
<!-- http://w3id.org/oseg/ont/okh#alternativeLicense&#45;&gt;http://www.w3.org/2004/02/skos/core#Concept -->
<g id="edge18" class="edge">
<title>http://w3id.org/oseg/ont/okh#alternativeLicense&#45;&gt;http://www.w3.org/2004/02/skos/core#Concept</title>
<path fill="none" stroke="black" d="M942.06,-452.6C888.04,-441.73 811.38,-426.31 756.92,-415.35"/>
<polygon fill="black" stroke="black" points="757.52,-411.9 747.02,-413.35 756.14,-418.76 757.52,-411.9"/>
<text text-anchor="middle" x="844.99" y="-437.78" font-family="Times,serif" font-size="14.00">a</text>
</g>
<!-- http://w3id.org/oseg/ont/okh#alternativeLicense&#45;&gt;http://w3id.org/oseg/ont/okh#File -->
<g id="edge3" class="edge">
<title>http://w3id.org/oseg/ont/okh#alternativeLicense&#45;&gt;http://w3id.org/oseg/ont/okh#File</title>
<path fill="none" stroke="black" d="M954.5,-451.38C931.94,-445.24 905.67,-438.08 883.44,-432.02"/>
<polygon fill="black" stroke="black" points="884.1,-428.57 873.53,-429.32 882.26,-435.33 884.1,-428.57"/>
<text text-anchor="middle" x="846.47" y="-445.5" font-family="Times,serif" font-size="14.00">dcam:rangeIncludes</text>
</g>
<!-- http://w3id.org/oseg/ont/okh#alternativeLicense&#45;&gt;http://w3id.org/oseg/ont/okh#license -->
<g id="edge10" class="edge">
<title>http://w3id.org/oseg/ont/okh#alternativeLicense&#45;&gt;http://w3id.org/oseg/ont/okh#license</title>
<path fill="none" stroke="black" d="M1098.17,-457.05C1118.84,-455.11 1140.53,-453.07 1160.35,-451.21"/>
<polygon fill="black" stroke="black" points="1160.91,-454.67 1170.53,-450.25 1160.25,-447.7 1160.91,-454.67"/>
<text text-anchor="middle" x="1089.26" y="-442.93" font-family="Times,serif" font-size="14.00">schema:supersededBy</text>
</g>
<!-- http://w3id.org/oseg/ont/okh#alternativeLicense&#45;&gt;http://w3id.org/oseg/ont/okh#Module -->
<g id="edge11" class="edge">
<title>http://w3id.org/oseg/ont/okh#alternativeLicense&#45;&gt;http://w3id.org/oseg/ont/okh#Module</title>
<path fill="none" stroke="black" d="M1024.42,-449.31C1056.73,-419.34 1125.57,-355.47 1162.43,-321.28"/>
<polygon fill="black" stroke="black" points="1164.83,-323.82 1169.78,-314.46 1160.07,-318.69 1164.83,-323.82"/>
<text text-anchor="middle" x="1015.42" y="-389.1" font-family="Times,serif" font-size="14.00">dcam:domainIncludes</text>
</g>
<!-- http://w3id.org/oseg/ont/okh#alternativeLicense&#45;&gt;http://w3id.org/oseg/ont/okhmetaLegalTag -->
<g id="edge28" class="edge">
<title>http://w3id.org/oseg/ont/okh#alternativeLicense&#45;&gt;http://w3id.org/oseg/ont/okhmetaLegalTag</title>
<path fill="none" stroke="black" d="M1023.98,-481.99C1055.99,-512.5 1124.89,-578.16 1161.59,-613.14"/>
<polygon fill="black" stroke="black" points="1159.26,-615.75 1168.91,-620.11 1164.09,-610.68 1159.26,-615.75"/>
<text text-anchor="middle" x="1015.79" y="-551.36" font-family="Times,serif" font-size="14.00">okhmeta:hasMetaTag</text>
</g>
<!-- http://w3id.org/oseg/ont/okh#alternativeLicense&#45;&gt;http://schema.org/license -->
<g id="edge37" class="edge">
<title>http://w3id.org/oseg/ont/okh#alternativeLicense&#45;&gt;http://schema.org/license</title>
<path fill="none" stroke="black" d="M1052.79,-480.44C1090.76,-492.66 1144.71,-510.03 1184.62,-522.88"/>
<polygon fill="black" stroke="black" points="1183.59,-526.23 1194.18,-525.96 1185.74,-519.56 1183.59,-526.23"/>
<text text-anchor="middle" x="1059.7" y="-505.46" font-family="Times,serif" font-size="14.00">skos:closeMatch</text>
</g>
<!-- http://w3id.org/oseg/ont/okh#permaURL -->
<g id="node23" class="node">
<title>http://w3id.org/oseg/ont/okh#permaURL</title>
<ellipse fill="none" stroke="#e377c2" cx="787.84" cy="-471.67" rx="87.86" ry="16.03"/>
<text text-anchor="middle" x="787.84" y="-467.97" font-family="Times,serif" font-size="14.00">okh:permaURL</text>
</g>
<!-- http://w3id.org/oseg/ont/okh#permaURL&#45;&gt;http://w3id.org/oseg/ont/okh#File -->
<g id="edge12" class="edge">
<title>http://w3id.org/oseg/ont/okh#permaURL&#45;&gt;http://w3id.org/oseg/ont/okh#File</title>
<path fill="none" stroke="black" d="M801.95,-455.45C805.59,-451.25 809.6,-446.65 813.5,-442.16"/>
<polygon fill="black" stroke="black" points="816.4,-444.16 820.32,-434.32 811.11,-439.57 816.4,-444.16"/>
<text text-anchor="middle" x="729.72" y="-437.61" font-family="Times,serif" font-size="14.00">dcam:domainIncludes</text>
</g>
<!-- http://w3id.org/oseg/ont/okh#value -->
<g id="node24" class="node">
<title>http://w3id.org/oseg/ont/okh#value</title>
<ellipse fill="none" stroke="#e377c2" cx="278.55" cy="-534.42" rx="60.21" ry="16.03"/>
<text text-anchor="middle" x="278.55" y="-530.72" font-family="Times,serif" font-size="14.00">okh:value</text>
</g>
<!-- http://w3id.org/oseg/ont/okh#value&#45;&gt;http://w3id.org/oseg/ont/okh#Mass -->
<g id="edge41" class="edge">
<title>http://w3id.org/oseg/ont/okh#value&#45;&gt;http://w3id.org/oseg/ont/okh#Mass</title>
<path fill="none" stroke="black" d="M320.69,-546.08C353.01,-555.03 397.79,-567.42 432.34,-576.99"/>
<polygon fill="black" stroke="black" points="431.68,-580.43 442.25,-579.73 433.54,-573.69 431.68,-580.43"/>
<text text-anchor="middle" x="298.51" y="-565.33" font-family="Times,serif" font-size="14.00">dcam:domainIncludes</text>
</g>
<!-- http://w3id.org/oseg/ont/okh#value&#45;&gt;http://w3id.org/oseg/ont/okh#hasMass -->
<g id="edge17" class="edge">
<title>http://w3id.org/oseg/ont/okh#value&#45;&gt;http://w3id.org/oseg/ont/okh#hasMass</title>
<path fill="none" stroke="black" d="M233.91,-523.48C205.62,-516.54 168.65,-507.47 137.76,-499.9"/>
<polygon fill="black" stroke="black" points="138.5,-496.48 127.96,-497.5 136.84,-503.28 138.5,-496.48"/>
<text text-anchor="middle" x="105.84" y="-515.49" font-family="Times,serif" font-size="14.00">schema:supersededBy</text>
</g>
<!-- http://w3id.org/oseg/ont/okh#okhvPresent -->
<g id="node27" class="node">
<title>http://w3id.org/oseg/ont/okh#okhvPresent</title>
<ellipse fill="none" stroke="#e377c2" cx="1054.23" cy="-941.27" rx="96.33" ry="16.03"/>
<text text-anchor="middle" x="1054.23" y="-937.57" font-family="Times,serif" font-size="14.00">okh:okhvPresent</text>
</g>
<!-- http://w3id.org/oseg/ont/okh#okhvPresent&#45;&gt;http://w3id.org/oseg/ont/okh#okhvOrig -->
<g id="edge8" class="edge">
<title>http://w3id.org/oseg/ont/okh#okhvPresent&#45;&gt;http://w3id.org/oseg/ont/okh#okhvOrig</title>
<path fill="none" stroke="black" d="M998.19,-954.57C970.65,-961.1 937.39,-968.99 909.09,-975.7"/>
<polygon fill="black" stroke="black" points="908.23,-972.31 899.31,-978.02 909.85,-979.12 908.23,-972.31"/>
<text text-anchor="middle" x="926.14" y="-953.93" font-family="Times,serif" font-size="14.00">seeAlso</text>
</g>
<!-- http://w3id.org/oseg/ont/okh#okhvPresent&#45;&gt;http://w3id.org/oseg/ont/okh#okhv -->
<g id="edge15" class="edge">
<title>http://w3id.org/oseg/ont/okh#okhvPresent&#45;&gt;http://w3id.org/oseg/ont/okh#okhv</title>
<path fill="none" stroke="black" d="M1056.32,-924.64C1056.33,-924.55 1056.34,-924.45 1056.35,-924.36"/>
<polygon fill="black" stroke="black" points="1059.67,-926.05 1057.44,-915.7 1052.72,-925.19 1059.67,-926.05"/>
<text text-anchor="middle" x="1003.33" y="-913.3" font-family="Times,serif" font-size="14.00">subPropertyOf</text>
</g>
<!-- http://w3id.org/oseg/ont/okh#Software -->
<g id="node28" class="node">
<title>http://w3id.org/oseg/ont/okh#Software</title>
<ellipse fill="none" stroke="#e377c2" cx="798.88" cy="-306.36" rx="78.48" ry="16.03"/>
<text text-anchor="middle" x="798.88" y="-302.66" font-family="Times,serif" font-size="14.00">okh:Software</text>
</g>
<!-- http://w3id.org/oseg/ont/okh#installationGuide -->
<g id="node31" class="node">
<title>http://w3id.org/oseg/ont/okh#installationGuide</title>
<ellipse fill="none" stroke="#e377c2" cx="681.27" cy="-352.55" rx="106.55" ry="16.03"/>
<text text-anchor="middle" x="681.27" y="-348.85" font-family="Times,serif" font-size="14.00">okh:installationG...</text>
</g>
<!-- http://w3id.org/oseg/ont/okh#installationGuide&#45;&gt;http://www.w3.org/2004/02/skos/core#Concept -->
<g id="edge27" class="edge">
<title>http://w3id.org/oseg/ont/okh#installationGuide&#45;&gt;http://www.w3.org/2004/02/skos/core#Concept</title>
<path fill="none" stroke="black" d="M684.37,-369.01C684.75,-371.08 685.16,-373.23 685.56,-375.4"/>
<polygon fill="black" stroke="black" points="682.16,-376.25 687.45,-385.43 689.04,-374.96 682.16,-376.25"/>
<text text-anchor="middle" x="680.46" y="-376" font-family="Times,serif" font-size="14.00">a</text>
</g>
<!-- http://w3id.org/oseg/ont/okh#installationGuide&#45;&gt;http://w3id.org/oseg/ont/okh#Software -->
<g id="edge24" class="edge">
<title>http://w3id.org/oseg/ont/okh#installationGuide&#45;&gt;http://w3id.org/oseg/ont/okh#Software</title>
<path fill="none" stroke="black" d="M720.11,-337.3C730.45,-333.24 741.74,-328.8 752.45,-324.6"/>
<polygon fill="black" stroke="black" points="754.05,-327.73 762.08,-320.82 751.49,-321.21 754.05,-327.73"/>
<text text-anchor="middle" x="814.28" y="-334.75" font-family="Times,serif" font-size="14.00">dcam:domainIncludes</text>
</g>
<!-- http://w3id.org/oseg/ont/okh#unit -->
<g id="node34" class="node">
<title>http://w3id.org/oseg/ont/okh#unit</title>
<ellipse fill="none" stroke="#e377c2" cx="440.7" cy="-823.51" rx="53.07" ry="16.03"/>
<text text-anchor="middle" x="440.7" y="-819.81" font-family="Times,serif" font-size="14.00">okh:unit</text>
</g>
<!-- http://w3id.org/oseg/ont/okh#unit&#45;&gt;http://w3id.org/oseg/ont/okh#Mass -->
<g id="edge19" class="edge">
<title>http://w3id.org/oseg/ont/okh#unit&#45;&gt;http://w3id.org/oseg/ont/okh#Mass</title>
<path fill="none" stroke="black" d="M443.77,-807.19C451.22,-767.56 470.31,-666 479.39,-617.68"/>
<polygon fill="black" stroke="black" points="482.86,-618.16 481.27,-607.68 475.98,-616.86 482.86,-618.16"/>
<text text-anchor="middle" x="383.58" y="-716.24" font-family="Times,serif" font-size="14.00">dcam:domainIncludes</text>
</g>
<!-- http://w3id.org/oseg/ont/okh#unit&#45;&gt;http://w3id.org/oseg/ont/okh#Dimensions -->
<g id="edge1" class="edge">
<title>http://w3id.org/oseg/ont/okh#unit&#45;&gt;http://w3id.org/oseg/ont/okh#Dimensions</title>
<path fill="none" stroke="black" d="M437.28,-840.07C428.42,-882.85 404.7,-997.36 393.92,-1049.41"/>
<polygon fill="black" stroke="black" points="390.43,-1049.02 391.82,-1059.52 397.28,-1050.43 390.43,-1049.02"/>
<text text-anchor="middle" x="337.6" y="-948.54" font-family="Times,serif" font-size="14.00">dcam:domainIncludes</text>
</g>
<!-- http://w3id.org/oseg/ont/okh#relatedTsdc -->
<g id="node38" class="node">
<title>http://w3id.org/oseg/ont/okh#relatedTsdc</title>
<ellipse fill="none" stroke="#e377c2" cx="885.66" cy="-784.56" rx="91.85" ry="16.03"/>
<text text-anchor="middle" x="885.66" y="-780.86" font-family="Times,serif" font-size="14.00">okh:relatedTsdc</text>
</g>
<!-- http://w3id.org/oseg/ont/okh#relatedTsdc&#45;&gt;http://w3id.org/oseg/ont/okh#tsdc -->
<g id="edge9" class="edge">
<title>http://w3id.org/oseg/ont/okh#relatedTsdc&#45;&gt;http://w3id.org/oseg/ont/okh#tsdc</title>
<path fill="none" stroke="black" d="M800.02,-790.55C791.36,-791.88 782.81,-793.31 774.76,-794.77"/>
<polygon fill="black" stroke="black" points="774.05,-791.34 764.87,-796.64 775.35,-798.22 774.05,-791.34"/>
<text text-anchor="middle" x="744.89" y="-781.46" font-family="Times,serif" font-size="14.00">owl:sameAs</text>
</g>
<!-- http://w3id.org/oseg/ont/okh#relatedTsdc&#45;&gt;http://w3id.org/oseg/ont/okh#tsdc -->
<g id="edge33" class="edge">
<title>http://w3id.org/oseg/ont/okh#relatedTsdc&#45;&gt;http://w3id.org/oseg/ont/okh#tsdc</title>
<path fill="none" stroke="black" d="M836.27,-798.34C821.99,-800.91 806.19,-803.37 791.13,-805.39"/>
<polygon fill="black" stroke="black" points="790.32,-801.96 780.85,-806.71 791.21,-808.91 790.32,-801.96"/>
<text text-anchor="middle" x="893.7" y="-805.66" font-family="Times,serif" font-size="14.00">schema:supersededBy</text>
</g>
<!-- http://w3id.org/oseg/ont/okh#openScad -->
<g id="node40" class="node">
<title>http://w3id.org/oseg/ont/okh#openScad</title>
<ellipse fill="none" stroke="#e377c2" cx="105.89" cy="-1450.56" rx="82.05" ry="16.03"/>
<text text-anchor="middle" x="105.89" y="-1446.86" font-family="Times,serif" font-size="14.00">okh:openScad</text>
</g>
<!-- http://w3id.org/oseg/ont/okh#openScad&#45;&gt;http://w3id.org/oseg/ont/okh#openSCAD -->
<g id="edge16" class="edge">
<title>http://w3id.org/oseg/ont/okh#openScad&#45;&gt;http://w3id.org/oseg/ont/okh#openSCAD</title>
<path fill="none" stroke="black" d="M162.15,-1438.68C201.57,-1427.38 253.34,-1410.6 288.85,-1397.52"/>
<polygon fill="black" stroke="black" points="290.27,-1400.73 298.41,-1393.94 287.81,-1394.17 290.27,-1400.73"/>
<text text-anchor="middle" x="183" y="-1421.9" font-family="Times,serif" font-size="14.00">owl:sameAs</text>
</g>
<!-- http://w3id.org/oseg/ont/okh#openScad&#45;&gt;http://w3id.org/oseg/ont/okh#openSCAD -->
<g id="edge42" class="edge">
<title>http://w3id.org/oseg/ont/okh#openScad&#45;&gt;http://w3id.org/oseg/ont/okh#openSCAD</title>
<path fill="none" stroke="black" d="M136.93,-1435.42C169.24,-1423.07 220.83,-1406.06 262.51,-1393.76"/>
<polygon fill="black" stroke="black" points="263.71,-1397.06 272.33,-1390.9 261.75,-1390.34 263.71,-1397.06"/>
<text text-anchor="middle" x="119.72" y="-1403.39" font-family="Times,serif" font-size="14.00">schema:supersededBy</text>
</g>
</g>
</svg>
