<?xml version="1.0" encoding="UTF-8" standalone="no"?>
<!DOCTYPE svg PUBLIC "-//W3C//DTD SVG 1.1//EN"
 "http://www.w3.org/Graphics/SVG/1.1/DTD/svg11.dtd">
<!-- Generated by graphviz version 2.43.0 (0)
 -->
<!-- Title: G Pages: 1 -->
<svg width="2402pt" height="1669pt"
 viewBox="0.00 0.00 2402.00 1669.00" xmlns="http://www.w3.org/2000/svg" xmlns:xlink="http://www.w3.org/1999/xlink">
<g id="graph0" class="graph" transform="scale(1 1) rotate(0) translate(4 1665)">
<title>G</title>
<polygon fill="white" stroke="transparent" points="-4,4 -4,-1665 2398,-1665 2398,4 -4,4"/>
<!-- https://w3id.org/oseg/ont/otrl#ODRL -->
<g id="node1" class="node">
<title>https://w3id.org/oseg/ont/otrl#ODRL</title>
<ellipse fill="none" stroke="#e377c2" cx="1088.11" cy="-967.65" rx="62.87" ry="16.03"/>
<text text-anchor="middle" x="1088.11" y="-963.95" font-family="Times,serif" font-size="14.00">otrl:ODRL</text>
</g>
<!-- https://w3id.org/oseg/ont/otrl#OTRL -->
<g id="node2" class="node">
<title>https://w3id.org/oseg/ont/otrl#OTRL</title>
<ellipse fill="none" stroke="#e377c2" cx="1546.36" cy="-543.8" rx="60.62" ry="16.03"/>
<text text-anchor="middle" x="1546.36" y="-540.1" font-family="Times,serif" font-size="14.00">otrl:OTRL</text>
</g>
<!-- http://spdx.org/rdf/terms#File -->
<g id="node3" class="node">
<title>http://spdx.org/rdf/terms#File</title>
<ellipse fill="none" stroke="#1f77b4" cx="1901.87" cy="-1333.98" rx="62.45" ry="16.03"/>
<text text-anchor="middle" x="1901.87" y="-1330.28" font-family="Times,serif" font-size="14.00">spdxt:File</text>
</g>
<!-- https://w3id.org/oseg/ont/otrl#ODRL3 -->
<g id="node4" class="node">
<title>https://w3id.org/oseg/ont/otrl#ODRL3</title>
<ellipse fill="none" stroke="#e377c2" cx="945.18" cy="-1195.86" rx="69.09" ry="16.03"/>
<text text-anchor="middle" x="945.18" y="-1192.16" font-family="Times,serif" font-size="14.00">otrl:ODRL3</text>
</g>
<!-- https://w3id.org/oseg/ont/otrl#ODRL3&#45;&gt;https://w3id.org/oseg/ont/otrl#ODRL -->
<g id="edge41" class="edge">
<title>https://w3id.org/oseg/ont/otrl#ODRL3&#45;&gt;https://w3id.org/oseg/ont/otrl#ODRL</title>
<path fill="none" stroke="black" d="M955.46,-1179.44C980.18,-1139.97 1043.1,-1039.52 1072.51,-992.56"/>
<polygon fill="black" stroke="black" points="1075.58,-994.25 1077.92,-983.91 1069.65,-990.53 1075.58,-994.25"/>
<text text-anchor="middle" x="1009.49" y="-1089.8" font-family="Times,serif" font-size="14.00">a</text>
</g>
<!-- https://w3id.org/oseg/ont/otrl#ODRL4 -->
<g id="node5" class="node">
<title>https://w3id.org/oseg/ont/otrl#ODRL4</title>
<ellipse fill="none" stroke="#e377c2" cx="815.66" cy="-1070.51" rx="69.09" ry="16.03"/>
<text text-anchor="middle" x="815.66" y="-1066.81" font-family="Times,serif" font-size="14.00">otrl:ODRL4</text>
</g>
<!-- https://w3id.org/oseg/ont/otrl#ODRL4&#45;&gt;https://w3id.org/oseg/ont/otrl#ODRL -->
<g id="edge26" class="edge">
<title>https://w3id.org/oseg/ont/otrl#ODRL4&#45;&gt;https://w3id.org/oseg/ont/otrl#ODRL</title>
<path fill="none" stroke="black" d="M852.41,-1056.63C901.77,-1038 989.45,-1004.9 1042.83,-984.74"/>
<polygon fill="black" stroke="black" points="1044.26,-987.94 1052.38,-981.14 1041.79,-981.4 1044.26,-987.94"/>
<text text-anchor="middle" x="943.12" y="-1024.49" font-family="Times,serif" font-size="14.00">a</text>
</g>
<!-- https://w3id.org/oseg/ont/otrl#ODRL2 -->
<g id="node6" class="node">
<title>https://w3id.org/oseg/ont/otrl#ODRL2</title>
<ellipse fill="none" stroke="#e377c2" cx="979.81" cy="-857.09" rx="69.09" ry="16.03"/>
<text text-anchor="middle" x="979.81" y="-853.39" font-family="Times,serif" font-size="14.00">otrl:ODRL2</text>
</g>
<!-- https://w3id.org/oseg/ont/otrl#ODRL2&#45;&gt;https://w3id.org/oseg/ont/otrl#ODRL -->
<g id="edge25" class="edge">
<title>https://w3id.org/oseg/ont/otrl#ODRL2&#45;&gt;https://w3id.org/oseg/ont/otrl#ODRL</title>
<path fill="none" stroke="black" d="M995.79,-873.4C1014.13,-892.13 1044.36,-922.99 1065.2,-944.26"/>
<polygon fill="black" stroke="black" points="1062.92,-946.93 1072.42,-951.63 1067.92,-942.04 1062.92,-946.93"/>
<text text-anchor="middle" x="1026" y="-912.63" font-family="Times,serif" font-size="14.00">a</text>
</g>
<!-- https://w3id.org/oseg/ont/otrl#ODRL3Star -->
<g id="node7" class="node">
<title>https://w3id.org/oseg/ont/otrl#ODRL3Star</title>
<ellipse fill="none" stroke="#e377c2" cx="1226.8" cy="-1076.72" rx="90.52" ry="16.03"/>
<text text-anchor="middle" x="1226.8" y="-1073.02" font-family="Times,serif" font-size="14.00">otrl:ODRL3Star</text>
</g>
<!-- https://w3id.org/oseg/ont/otrl#ODRL3Star&#45;&gt;https://w3id.org/oseg/ont/otrl#ODRL -->
<g id="edge37" class="edge">
<title>https://w3id.org/oseg/ont/otrl#ODRL3Star&#45;&gt;https://w3id.org/oseg/ont/otrl#ODRL</title>
<path fill="none" stroke="black" d="M1206.64,-1060.86C1182.67,-1042.01 1142.56,-1010.47 1115.72,-989.36"/>
<polygon fill="black" stroke="black" points="1117.88,-986.61 1107.85,-983.18 1113.55,-992.11 1117.88,-986.61"/>
<text text-anchor="middle" x="1156.68" y="-1028.91" font-family="Times,serif" font-size="14.00">a</text>
</g>
<!-- https://w3id.org/oseg/ont/otrl#OTRL1 -->
<g id="node8" class="node">
<title>https://w3id.org/oseg/ont/otrl#OTRL1</title>
<ellipse fill="none" stroke="#e377c2" cx="1352.56" cy="-371.17" rx="67.35" ry="16.03"/>
<text text-anchor="middle" x="1352.56" y="-367.47" font-family="Times,serif" font-size="14.00">otrl:OTRL1</text>
</g>
<!-- https://w3id.org/oseg/ont/otrl#OTRL1&#45;&gt;https://w3id.org/oseg/ont/otrl#OTRL -->
<g id="edge15" class="edge">
<title>https://w3id.org/oseg/ont/otrl#OTRL1&#45;&gt;https://w3id.org/oseg/ont/otrl#OTRL</title>
<path fill="none" stroke="black" d="M1370.44,-387.1C1405.07,-417.95 1481.35,-485.9 1521.12,-521.33"/>
<polygon fill="black" stroke="black" points="1519,-524.12 1528.79,-528.16 1523.66,-518.9 1519,-524.12"/>
<text text-anchor="middle" x="1441.28" y="-458.01" font-family="Times,serif" font-size="14.00">a</text>
</g>
<!-- https://w3id.org/oseg/ont/otrl#OTRL3 -->
<g id="node9" class="node">
<title>https://w3id.org/oseg/ont/otrl#OTRL3</title>
<ellipse fill="none" stroke="#e377c2" cx="1559.01" cy="-322.8" rx="67.35" ry="16.03"/>
<text text-anchor="middle" x="1559.01" y="-319.1" font-family="Times,serif" font-size="14.00">otrl:OTRL3</text>
</g>
<!-- https://w3id.org/oseg/ont/otrl#OTRL3&#45;&gt;https://w3id.org/oseg/ont/otrl#OTRL -->
<g id="edge38" class="edge">
<title>https://w3id.org/oseg/ont/otrl#OTRL3&#45;&gt;https://w3id.org/oseg/ont/otrl#OTRL</title>
<path fill="none" stroke="black" d="M1558.06,-339.41C1555.88,-377.42 1550.52,-471 1547.88,-517.17"/>
<polygon fill="black" stroke="black" points="1544.38,-517.12 1547.3,-527.3 1551.37,-517.52 1544.38,-517.12"/>
<text text-anchor="middle" x="1548.47" y="-432.09" font-family="Times,serif" font-size="14.00">a</text>
</g>
<!-- https://w3id.org/oseg/ont/otrl#OTRL2 -->
<g id="node10" class="node">
<title>https://w3id.org/oseg/ont/otrl#OTRL2</title>
<ellipse fill="none" stroke="#e377c2" cx="1822.12" cy="-589.73" rx="67.35" ry="16.03"/>
<text text-anchor="middle" x="1822.12" y="-586.03" font-family="Times,serif" font-size="14.00">otrl:OTRL2</text>
</g>
<!-- https://w3id.org/oseg/ont/otrl#OTRL2&#45;&gt;https://w3id.org/oseg/ont/otrl#OTRL -->
<g id="edge7" class="edge">
<title>https://w3id.org/oseg/ont/otrl#OTRL2&#45;&gt;https://w3id.org/oseg/ont/otrl#OTRL</title>
<path fill="none" stroke="black" d="M1766.65,-580.49C1720.69,-572.84 1655.43,-561.97 1607.88,-554.05"/>
<polygon fill="black" stroke="black" points="1608.45,-550.6 1598.01,-552.41 1607.3,-557.5 1608.45,-550.6"/>
<text text-anchor="middle" x="1682.76" y="-571.07" font-family="Times,serif" font-size="14.00">a</text>
</g>
<!-- http://schema.org/Text -->
<g id="node11" class="node">
<title>http://schema.org/Text</title>
<ellipse fill="none" stroke="#e377c2" cx="1233.14" cy="-661.32" rx="74.91" ry="16.03"/>
<text text-anchor="middle" x="1233.14" y="-657.62" font-family="Times,serif" font-size="14.00">schema:Text</text>
</g>
<!-- https://w3id.org/oseg/ont/otrl#OTRL6 -->
<g id="node12" class="node">
<title>https://w3id.org/oseg/ont/otrl#OTRL6</title>
<ellipse fill="none" stroke="#e377c2" cx="1708.74" cy="-728.18" rx="67.35" ry="16.03"/>
<text text-anchor="middle" x="1708.74" y="-724.48" font-family="Times,serif" font-size="14.00">otrl:OTRL6</text>
</g>
<!-- https://w3id.org/oseg/ont/otrl#OTRL6&#45;&gt;https://w3id.org/oseg/ont/otrl#OTRL -->
<g id="edge21" class="edge">
<title>https://w3id.org/oseg/ont/otrl#OTRL6&#45;&gt;https://w3id.org/oseg/ont/otrl#OTRL</title>
<path fill="none" stroke="black" d="M1694.61,-712.14C1665.87,-679.5 1600.47,-605.25 1566.97,-567.21"/>
<polygon fill="black" stroke="black" points="1569.57,-564.87 1560.33,-559.68 1564.32,-569.49 1569.57,-564.87"/>
<text text-anchor="middle" x="1626.29" y="-643.48" font-family="Times,serif" font-size="14.00">a</text>
</g>
<!-- https://w3id.org/oseg/ont/otrl#Odrl4 -->
<g id="node13" class="node">
<title>https://w3id.org/oseg/ont/otrl#Odrl4</title>
<ellipse fill="none" stroke="#e377c2" cx="551.37" cy="-1163.83" rx="61.54" ry="16.03"/>
<text text-anchor="middle" x="551.37" y="-1160.13" font-family="Times,serif" font-size="14.00">otrl:Odrl4</text>
</g>
<!-- https://w3id.org/oseg/ont/otrl#Odrl4&#45;&gt;https://w3id.org/oseg/ont/otrl#ODRL4 -->
<g id="edge2" class="edge">
<title>https://w3id.org/oseg/ont/otrl#Odrl4&#45;&gt;https://w3id.org/oseg/ont/otrl#ODRL4</title>
<path fill="none" stroke="black" d="M597.63,-1153.01C648.72,-1137.23 729.98,-1108.46 777.55,-1089.26"/>
<polygon fill="black" stroke="black" points="778.95,-1092.47 786.88,-1085.43 776.3,-1085.99 778.95,-1092.47"/>
<text text-anchor="middle" x="645.09" y="-1124.94" font-family="Times,serif" font-size="14.00">owl:sameAs</text>
</g>
<!-- https://w3id.org/oseg/ont/otrl#Odrl4&#45;&gt;https://w3id.org/oseg/ont/otrl#ODRL4 -->
<g id="edge34" class="edge">
<title>https://w3id.org/oseg/ont/otrl#Odrl4&#45;&gt;https://w3id.org/oseg/ont/otrl#ODRL4</title>
<path fill="none" stroke="black" d="M579.18,-1149.31C621.17,-1131.72 701.66,-1102.87 756.98,-1085.22"/>
<polygon fill="black" stroke="black" points="758.17,-1088.52 766.66,-1082.17 756.07,-1081.84 758.17,-1088.52"/>
<text text-anchor="middle" x="588.08" y="-1106.07" font-family="Times,serif" font-size="14.00">schema:supersededBy</text>
</g>
<!-- https://w3id.org/oseg/ont/otrl -->
<g id="node14" class="node">
<title>https://w3id.org/oseg/ont/otrl</title>
<ellipse fill="none" stroke="#e377c2" cx="1931.95" cy="-1291.14" rx="50.82" ry="16.03"/>
<text text-anchor="middle" x="1931.95" y="-1287.44" font-family="Times,serif" font-size="14.00">ns1:otrl</text>
</g>
<!-- https://w3id.org/oseg/ont/otrl&#45;&gt;http://spdx.org/rdf/terms#File -->
<g id="edge18" class="edge">
<title>https://w3id.org/oseg/ont/otrl&#45;&gt;http://spdx.org/rdf/terms#File</title>
<path fill="none" stroke="black" d="M1920.75,-1307.09C1920.21,-1307.86 1919.66,-1308.64 1919.11,-1309.43"/>
<polygon fill="black" stroke="black" points="1916.06,-1307.68 1913.18,-1317.87 1921.79,-1311.7 1916.06,-1307.68"/>
<text text-anchor="middle" x="1915.43" y="-1312.06" font-family="Times,serif" font-size="14.00">a</text>
</g>
<!-- https://w3id.org/oseg/ont/oseg&#45;profiles#martinHaeuer -->
<g id="node15" class="node">
<title>https://w3id.org/oseg/ont/oseg&#45;profiles#martinHaeuer</title>
<ellipse fill="none" stroke="#e377c2" cx="1840.05" cy="-1245.17" rx="116.85" ry="16.03"/>
<text text-anchor="middle" x="1840.05" y="-1241.47" font-family="Times,serif" font-size="14.00">osegprof:martinHa...</text>
</g>
<!-- https://w3id.org/oseg/ont/otrl&#45;&gt;https://w3id.org/oseg/ont/oseg&#45;profiles#martinHaeuer -->
<g id="edge16" class="edge">
<title>https://w3id.org/oseg/ont/otrl&#45;&gt;https://w3id.org/oseg/ont/oseg&#45;profiles#martinHaeuer</title>
<path fill="none" stroke="black" d="M1914.11,-1275.82C1908.26,-1272.28 1901.43,-1268.5 1894.33,-1264.82"/>
<polygon fill="black" stroke="black" points="1895.74,-1261.61 1885.24,-1260.25 1892.6,-1267.87 1895.74,-1261.61"/>
<text text-anchor="middle" x="1848.72" y="-1274.12" font-family="Times,serif" font-size="14.00">schema:creator</text>
</g>
<!-- https://w3id.org/oseg/ont/otrl&#45;&gt;https://w3id.org/oseg/ont/oseg&#45;profiles#martinHaeuer -->
<g id="edge19" class="edge">
<title>https://w3id.org/oseg/ont/otrl&#45;&gt;https://w3id.org/oseg/ont/oseg&#45;profiles#martinHaeuer</title>
<path fill="none" stroke="black" d="M1894.8,-1279.88C1885.82,-1275.73 1876.37,-1270.95 1867.9,-1266.27"/>
<polygon fill="black" stroke="black" points="1869.57,-1263.19 1859.15,-1261.25 1866.08,-1269.26 1869.57,-1263.19"/>
<text text-anchor="middle" x="1938.85" y="-1261.87" font-family="Times,serif" font-size="14.00">dcterms:creator</text>
</g>
<!-- https://w3id.org/oseg/ont/oseg&#45;profiles#Iopa -->
<g id="node17" class="node">
<title>https://w3id.org/oseg/ont/oseg&#45;profiles#Iopa</title>
<ellipse fill="none" stroke="#e377c2" cx="2115.02" cy="-1358.95" rx="80.72" ry="16.03"/>
<text text-anchor="middle" x="2115.02" y="-1355.25" font-family="Times,serif" font-size="14.00">osegprof:Iopa</text>
</g>
<!-- https://w3id.org/oseg/ont/otrl&#45;&gt;https://w3id.org/oseg/ont/oseg&#45;profiles#Iopa -->
<g id="edge22" class="edge">
<title>https://w3id.org/oseg/ont/otrl&#45;&gt;https://w3id.org/oseg/ont/oseg&#45;profiles#Iopa</title>
<path fill="none" stroke="black" d="M1965.53,-1303.58C1993.87,-1314.08 2034.81,-1329.24 2066.69,-1341.05"/>
<polygon fill="black" stroke="black" points="2065.67,-1344.4 2076.26,-1344.59 2068.1,-1337.84 2065.67,-1344.4"/>
<text text-anchor="middle" x="2081.61" y="-1326.11" font-family="Times,serif" font-size="14.00">dcterms:publisher</text>
</g>
<!-- https://spdx.org/licenses/GPL&#45;3.0&#45;or&#45;later -->
<g id="node18" class="node">
<title>https://spdx.org/licenses/GPL&#45;3.0&#45;or&#45;later</title>
<ellipse fill="none" stroke="#e377c2" cx="1698.48" cy="-1336.15" rx="108.79" ry="16.03"/>
<text text-anchor="middle" x="1698.48" y="-1332.45" font-family="Times,serif" font-size="14.00">spdxl:GPL&#45;3.0&#45;or&#45;...</text>
</g>
<!-- https://w3id.org/oseg/ont/otrl&#45;&gt;https://spdx.org/licenses/GPL&#45;3.0&#45;or&#45;later -->
<g id="edge27" class="edge">
<title>https://w3id.org/oseg/ont/otrl&#45;&gt;https://spdx.org/licenses/GPL&#45;3.0&#45;or&#45;later</title>
<path fill="none" stroke="black" d="M1888.31,-1299.56C1856.56,-1305.68 1812.76,-1314.12 1775.22,-1321.36"/>
<polygon fill="black" stroke="black" points="1774.48,-1317.94 1765.32,-1323.27 1775.8,-1324.81 1774.48,-1317.94"/>
<text text-anchor="middle" x="1752.76" y="-1299.26" font-family="Times,serif" font-size="14.00">spdxt:licenseDeclared</text>
</g>
<!-- https://w3id.org/oseg/ont/oseg&#45;profiles#robinVobruba -->
<g id="node21" class="node">
<title>https://w3id.org/oseg/ont/oseg&#45;profiles#robinVobruba</title>
<ellipse fill="none" stroke="#e377c2" cx="1965.62" cy="-1521.87" rx="113.69" ry="16.03"/>
<text text-anchor="middle" x="1965.62" y="-1518.17" font-family="Times,serif" font-size="14.00">osegprof:robinVob...</text>
</g>
<!-- https://w3id.org/oseg/ont/otrl&#45;&gt;https://w3id.org/oseg/ont/oseg&#45;profiles#robinVobruba -->
<g id="edge40" class="edge">
<title>https://w3id.org/oseg/ont/otrl&#45;&gt;https://w3id.org/oseg/ont/oseg&#45;profiles#robinVobruba</title>
<path fill="none" stroke="black" d="M1930.67,-1307.53C1932.55,-1346.98 1946.92,-1447.53 1957.2,-1495.56"/>
<polygon fill="black" stroke="black" points="1953.83,-1496.53 1959.46,-1505.51 1960.66,-1494.98 1953.83,-1496.53"/>
<text text-anchor="middle" x="1888.44" y="-1405.34" font-family="Times,serif" font-size="14.00">schema:creator</text>
</g>
<!-- https://w3id.org/oseg/ont/otrl&#45;&gt;https://w3id.org/oseg/ont/oseg&#45;profiles#robinVobruba -->
<g id="edge45" class="edge">
<title>https://w3id.org/oseg/ont/otrl&#45;&gt;https://w3id.org/oseg/ont/oseg&#45;profiles#robinVobruba</title>
<path fill="none" stroke="black" d="M1938.12,-1307.57C1947.68,-1347 1962.55,-1447.26 1966.25,-1495.35"/>
<polygon fill="black" stroke="black" points="1962.77,-1495.83 1966.9,-1505.58 1969.76,-1495.38 1962.77,-1495.83"/>
<text text-anchor="middle" x="1894.69" y="-1390.26" font-family="Times,serif" font-size="14.00">dcterms:creator</text>
</g>
<!-- http://id.loc.gov/vocabulary/iso639&#45;1/en -->
<g id="node24" class="node">
<title>http://id.loc.gov/vocabulary/iso639&#45;1/en</title>
<ellipse fill="none" stroke="#e377c2" cx="1876.33" cy="-1129.31" rx="45.01" ry="16.03"/>
<text text-anchor="middle" x="1876.33" y="-1125.61" font-family="Times,serif" font-size="14.00">ns2:en</text>
</g>
<!-- https://w3id.org/oseg/ont/otrl&#45;&gt;http://id.loc.gov/vocabulary/iso639&#45;1/en -->
<g id="edge48" class="edge">
<title>https://w3id.org/oseg/ont/otrl&#45;&gt;http://id.loc.gov/vocabulary/iso639&#45;1/en</title>
<path fill="none" stroke="black" d="M1926.31,-1274.74C1916.65,-1246.63 1896.86,-1189.04 1885.29,-1155.38"/>
<polygon fill="black" stroke="black" points="1888.55,-1154.08 1881.99,-1145.76 1881.93,-1156.36 1888.55,-1154.08"/>
<text text-anchor="middle" x="1841.3" y="-1203.86" font-family="Times,serif" font-size="14.00">dcterms:language</text>
</g>
<!-- https://w3id.org/oseg/ont/1.1.0/otrl -->
<g id="node25" class="node">
<title>https://w3id.org/oseg/ont/1.1.0/otrl</title>
<ellipse fill="none" stroke="#e377c2" cx="2057.78" cy="-1179.28" rx="50.82" ry="16.03"/>
<text text-anchor="middle" x="2057.78" y="-1175.58" font-family="Times,serif" font-size="14.00">ns3:otrl</text>
</g>
<!-- https://w3id.org/oseg/ont/otrl&#45;&gt;https://w3id.org/oseg/ont/1.1.0/otrl -->
<g id="edge53" class="edge">
<title>https://w3id.org/oseg/ont/otrl&#45;&gt;https://w3id.org/oseg/ont/1.1.0/otrl</title>
<path fill="none" stroke="black" d="M1949.18,-1275.82C1970.8,-1256.6 2008.04,-1223.5 2032.79,-1201.5"/>
<polygon fill="black" stroke="black" points="2035.2,-1204.04 2040.35,-1194.78 2030.55,-1198.8 2035.2,-1204.04"/>
<text text-anchor="middle" x="2042.48" y="-1242.46" font-family="Times,serif" font-size="14.00">owl:versionIRI</text>
</g>
<!-- https://w3id.org/oseg/ont/otrl#OTRL4 -->
<g id="node16" class="node">
<title>https://w3id.org/oseg/ont/otrl#OTRL4</title>
<ellipse fill="none" stroke="#e377c2" cx="1815.39" cy="-447.24" rx="67.35" ry="16.03"/>
<text text-anchor="middle" x="1815.39" y="-443.54" font-family="Times,serif" font-size="14.00">otrl:OTRL4</text>
</g>
<!-- https://w3id.org/oseg/ont/otrl#OTRL4&#45;&gt;https://w3id.org/oseg/ont/otrl#OTRL -->
<g id="edge24" class="edge">
<title>https://w3id.org/oseg/ont/otrl#OTRL4&#45;&gt;https://w3id.org/oseg/ont/otrl#OTRL</title>
<path fill="none" stroke="black" d="M1777.69,-460.77C1729.19,-478.18 1644.97,-508.41 1592.63,-527.19"/>
<polygon fill="black" stroke="black" points="1591.16,-524 1582.93,-530.68 1593.52,-530.59 1591.16,-524"/>
<text text-anchor="middle" x="1680.66" y="-497.78" font-family="Times,serif" font-size="14.00">a</text>
</g>
<!-- https://w3id.org/oseg/ont/otrl#ODRL1 -->
<g id="node19" class="node">
<title>https://w3id.org/oseg/ont/otrl#ODRL1</title>
<ellipse fill="none" stroke="#e377c2" cx="1094.72" cy="-1245.27" rx="69.09" ry="16.03"/>
<text text-anchor="middle" x="1094.72" y="-1241.57" font-family="Times,serif" font-size="14.00">otrl:ODRL1</text>
</g>
<!-- https://w3id.org/oseg/ont/otrl#ODRL1&#45;&gt;https://w3id.org/oseg/ont/otrl#ODRL -->
<g id="edge28" class="edge">
<title>https://w3id.org/oseg/ont/otrl#ODRL1&#45;&gt;https://w3id.org/oseg/ont/otrl#ODRL</title>
<path fill="none" stroke="black" d="M1094.32,-1228.73C1093.22,-1182.44 1090.1,-1051.23 1088.75,-994.42"/>
<polygon fill="black" stroke="black" points="1092.24,-994.01 1088.5,-984.1 1085.24,-994.18 1092.24,-994.01"/>
<text text-anchor="middle" x="1087.04" y="-1100.38" font-family="Times,serif" font-size="14.00">a</text>
</g>
<!-- https://w3id.org/oseg/ont/otrl#goal -->
<g id="node20" class="node">
<title>https://w3id.org/oseg/ont/otrl#goal</title>
<ellipse fill="none" stroke="#e377c2" cx="1337.46" cy="-770.45" rx="54.39" ry="16.03"/>
<text text-anchor="middle" x="1337.46" y="-766.75" font-family="Times,serif" font-size="14.00">otrl:goal</text>
</g>
<!-- https://w3id.org/oseg/ont/otrl#goal&#45;&gt;https://w3id.org/oseg/ont/otrl#ODRL -->
<g id="edge31" class="edge">
<title>https://w3id.org/oseg/ont/otrl#goal&#45;&gt;https://w3id.org/oseg/ont/otrl#ODRL</title>
<path fill="none" stroke="black" d="M1317.9,-785.93C1273.85,-820.76 1166.8,-905.42 1115.89,-945.68"/>
<polygon fill="black" stroke="black" points="1113.6,-943.03 1107.93,-951.97 1117.94,-948.52 1113.6,-943.03"/>
<text text-anchor="middle" x="1302.89" y="-869.6" font-family="Times,serif" font-size="14.00">schema:domainIncludes</text>
</g>
<!-- https://w3id.org/oseg/ont/otrl#goal&#45;&gt;https://w3id.org/oseg/ont/otrl#OTRL -->
<g id="edge39" class="edge">
<title>https://w3id.org/oseg/ont/otrl#goal&#45;&gt;https://w3id.org/oseg/ont/otrl#OTRL</title>
<path fill="none" stroke="black" d="M1352.15,-754.52C1388.41,-715.18 1482.29,-613.31 1524.84,-567.15"/>
<polygon fill="black" stroke="black" points="1527.48,-569.45 1531.68,-559.72 1522.33,-564.71 1527.48,-569.45"/>
<text text-anchor="middle" x="1524.49" y="-664.63" font-family="Times,serif" font-size="14.00">schema:domainIncludes</text>
</g>
<!-- https://w3id.org/oseg/ont/otrl#goal&#45;&gt;http://schema.org/Text -->
<g id="edge36" class="edge">
<title>https://w3id.org/oseg/ont/otrl#goal&#45;&gt;http://schema.org/Text</title>
<path fill="none" stroke="black" d="M1322.07,-754.35C1304.5,-735.97 1275.62,-705.76 1255.55,-684.77"/>
<polygon fill="black" stroke="black" points="1258.04,-682.3 1248.59,-677.49 1252.98,-687.14 1258.04,-682.3"/>
<text text-anchor="middle" x="1267.81" y="-723.36" font-family="Times,serif" font-size="14.00">range</text>
</g>
<!-- https://w3id.org/oseg/ont/otrl#exitCriteria -->
<g id="node22" class="node">
<title>https://w3id.org/oseg/ont/otrl#exitCriteria</title>
<ellipse fill="none" stroke="#e377c2" cx="1274.61" cy="-707.59" rx="91.43" ry="16.03"/>
<text text-anchor="middle" x="1274.61" y="-703.89" font-family="Times,serif" font-size="14.00">otrl:exitCriteria</text>
</g>
<!-- https://w3id.org/oseg/ont/otrl#exitCriteria&#45;&gt;https://w3id.org/oseg/ont/otrl#ODRL -->
<g id="edge33" class="edge">
<title>https://w3id.org/oseg/ont/otrl#exitCriteria&#45;&gt;https://w3id.org/oseg/ont/otrl#ODRL</title>
<path fill="none" stroke="black" d="M1262.94,-723.86C1231.28,-768.01 1143.59,-890.28 1105.81,-942.97"/>
<polygon fill="black" stroke="black" points="1102.75,-941.22 1099.77,-951.39 1108.44,-945.3 1102.75,-941.22"/>
<text text-anchor="middle" x="1270.38" y="-837.22" font-family="Times,serif" font-size="14.00">schema:domainIncludes</text>
</g>
<!-- https://w3id.org/oseg/ont/otrl#exitCriteria&#45;&gt;https://w3id.org/oseg/ont/otrl#OTRL -->
<g id="edge50" class="edge">
<title>https://w3id.org/oseg/ont/otrl#exitCriteria&#45;&gt;https://w3id.org/oseg/ont/otrl#OTRL</title>
<path fill="none" stroke="black" d="M1300.67,-691.89C1350.25,-662 1458.1,-597 1512.92,-563.96"/>
<polygon fill="black" stroke="black" points="1514.8,-566.91 1521.56,-558.75 1511.19,-560.91 1514.8,-566.91"/>
<text text-anchor="middle" x="1320.79" y="-631.72" font-family="Times,serif" font-size="14.00">schema:domainIncludes</text>
</g>
<!-- https://w3id.org/oseg/ont/otrl#exitCriteria&#45;&gt;http://schema.org/Text -->
<g id="edge9" class="edge">
<title>https://w3id.org/oseg/ont/otrl#exitCriteria&#45;&gt;http://schema.org/Text</title>
<path fill="none" stroke="black" d="M1260.11,-691.41C1258.35,-689.45 1256.52,-687.41 1254.69,-685.37"/>
<polygon fill="black" stroke="black" points="1256.99,-682.68 1247.71,-677.57 1251.77,-687.36 1256.99,-682.68"/>
<text text-anchor="middle" x="1236.4" y="-677.19" font-family="Times,serif" font-size="14.00">range</text>
</g>
<!-- https://w3id.org/oseg/ont/otrl#OTRL5 -->
<g id="node23" class="node">
<title>https://w3id.org/oseg/ont/otrl#OTRL5</title>
<ellipse fill="none" stroke="#e377c2" cx="1740.5" cy="-326.4" rx="67.35" ry="16.03"/>
<text text-anchor="middle" x="1740.5" y="-322.7" font-family="Times,serif" font-size="14.00">otrl:OTRL5</text>
</g>
<!-- https://w3id.org/oseg/ont/otrl#OTRL5&#45;&gt;https://w3id.org/oseg/ont/otrl#OTRL -->
<g id="edge42" class="edge">
<title>https://w3id.org/oseg/ont/otrl#OTRL5&#45;&gt;https://w3id.org/oseg/ont/otrl#OTRL</title>
<path fill="none" stroke="black" d="M1726.23,-342.39C1692.43,-380.24 1607.37,-475.49 1567.54,-520.08"/>
<polygon fill="black" stroke="black" points="1564.7,-518 1560.65,-527.79 1569.92,-522.67 1564.7,-518"/>
<text text-anchor="middle" x="1642.38" y="-435.03" font-family="Times,serif" font-size="14.00">a</text>
</g>
<!-- https://w3id.org/oseg/ont/otrl#Odrl3 -->
<g id="node26" class="node">
<title>https://w3id.org/oseg/ont/otrl#Odrl3</title>
<ellipse fill="none" stroke="black" cx="738.26" cy="-1538.71" rx="196.65" ry="16.03"/>
<text text-anchor="middle" x="738.26" y="-1535.01" font-family="Times,serif" font-size="14.00">https://w3id.org/oseg/ont/otrl#Odrl3</text>
</g>
<!-- https://w3id.org/oseg/ont/otrl#Odrl3&#45;&gt;https://w3id.org/oseg/ont/otrl#ODRL3 -->
<g id="edge1" class="edge">
<title>https://w3id.org/oseg/ont/otrl#Odrl3&#45;&gt;https://w3id.org/oseg/ont/otrl#ODRL3</title>
<path fill="none" stroke="black" d="M751.85,-1522.42C790.39,-1467.39 898.56,-1288.43 934,-1221.43"/>
<polygon fill="black" stroke="black" points="937.19,-1222.88 938.68,-1212.39 930.97,-1219.66 937.19,-1222.88"/>
<text text-anchor="middle" x="762.93" y="-1375.73" font-family="Times,serif" font-size="14.00">schema:supersededBy</text>
</g>
<!-- https://w3id.org/oseg/ont/otrl#Odrl3&#45;&gt;https://w3id.org/oseg/ont/otrl#ODRL3 -->
<g id="edge30" class="edge">
<title>https://w3id.org/oseg/ont/otrl#Odrl3&#45;&gt;https://w3id.org/oseg/ont/otrl#ODRL3</title>
<path fill="none" stroke="black" d="M744.62,-1522.45C772.4,-1467.23 880.79,-1287.07 925.72,-1220.67"/>
<polygon fill="black" stroke="black" points="928.85,-1222.31 931.63,-1212.08 923.08,-1218.34 928.85,-1222.31"/>
<text text-anchor="middle" x="792.67" y="-1360.36" font-family="Times,serif" font-size="14.00">owl:sameAs</text>
</g>
<!-- https://w3id.org/oseg/ont/otrl#Odrl2 -->
<g id="node27" class="node">
<title>https://w3id.org/oseg/ont/otrl#Odrl2</title>
<ellipse fill="none" stroke="black" cx="913.49" cy="-815.34" rx="196.65" ry="16.03"/>
<text text-anchor="middle" x="913.49" y="-811.64" font-family="Times,serif" font-size="14.00">https://w3id.org/oseg/ont/otrl#Odrl2</text>
</g>
<!-- https://w3id.org/oseg/ont/otrl#Odrl2&#45;&gt;https://w3id.org/oseg/ont/otrl#ODRL2 -->
<g id="edge3" class="edge">
<title>https://w3id.org/oseg/ont/otrl#Odrl2&#45;&gt;https://w3id.org/oseg/ont/otrl#ODRL2</title>
<path fill="none" stroke="black" d="M928.03,-831.66C930.62,-833.6 933.43,-835.59 936.36,-837.56"/>
<polygon fill="black" stroke="black" points="934.53,-840.55 944.83,-843.03 938.32,-834.67 934.53,-840.55"/>
<text text-anchor="middle" x="852.2" y="-838.41" font-family="Times,serif" font-size="14.00">schema:supersededBy</text>
</g>
<!-- https://w3id.org/oseg/ont/otrl#Odrl2&#45;&gt;https://w3id.org/oseg/ont/otrl#ODRL2 -->
<g id="edge44" class="edge">
<title>https://w3id.org/oseg/ont/otrl#Odrl2&#45;&gt;https://w3id.org/oseg/ont/otrl#ODRL2</title>
<path fill="none" stroke="black" d="M951.8,-831.49C953.62,-832.65 955.42,-833.84 957.19,-835.03"/>
<polygon fill="black" stroke="black" points="955.35,-838.02 965.52,-840.97 959.41,-832.32 955.35,-838.02"/>
<text text-anchor="middle" x="996.99" y="-837.06" font-family="Times,serif" font-size="14.00">owl:sameAs</text>
</g>
<!-- https://w3id.org/oseg/ont/otrl#Odrl3Star -->
<g id="node28" class="node">
<title>https://w3id.org/oseg/ont/otrl#Odrl3Star</title>
<ellipse fill="none" stroke="black" cx="1256.68" cy="-1117.28" rx="218.49" ry="16.03"/>
<text text-anchor="middle" x="1256.68" y="-1113.58" font-family="Times,serif" font-size="14.00">https://w3id.org/oseg/ont/otrl#Odrl3Star</text>
</g>
<!-- https://w3id.org/oseg/ont/otrl#Odrl3Star&#45;&gt;https://w3id.org/oseg/ont/otrl#ODRL3Star -->
<g id="edge4" class="edge">
<title>https://w3id.org/oseg/ont/otrl#Odrl3Star&#45;&gt;https://w3id.org/oseg/ont/otrl#ODRL3Star</title>
<path fill="none" stroke="black" d="M1252.32,-1100.69C1252.27,-1100.61 1252.22,-1100.53 1252.17,-1100.44"/>
<polygon fill="black" stroke="black" points="1255.36,-1098.92 1246.87,-1092.58 1249.56,-1102.83 1255.36,-1098.92"/>
<text text-anchor="middle" x="1294.75" y="-1089.37" font-family="Times,serif" font-size="14.00">owl:sameAs</text>
</g>
<!-- https://w3id.org/oseg/ont/otrl#Odrl3Star&#45;&gt;https://w3id.org/oseg/ont/otrl#ODRL3Star -->
<g id="edge35" class="edge">
<title>https://w3id.org/oseg/ont/otrl#Odrl3Star&#45;&gt;https://w3id.org/oseg/ont/otrl#ODRL3Star</title>
<path fill="none" stroke="black" d="M1236.31,-1101C1236.19,-1100.85 1236.08,-1100.69 1235.96,-1100.53"/>
<polygon fill="black" stroke="black" points="1239.61,-1099.7 1231.16,-1093.31 1233.78,-1103.57 1239.61,-1099.7"/>
<text text-anchor="middle" x="1156.13" y="-1089.57" font-family="Times,serif" font-size="14.00">schema:supersededBy</text>
</g>
<!-- https://w3id.org/oseg/ont/otrl#Otrl1 -->
<g id="node29" class="node">
<title>https://w3id.org/oseg/ont/otrl#Otrl1</title>
<ellipse fill="none" stroke="black" cx="1193.9" cy="-279.06" rx="194.41" ry="16.03"/>
<text text-anchor="middle" x="1193.9" y="-275.36" font-family="Times,serif" font-size="14.00">https://w3id.org/oseg/ont/otrl#Otrl1</text>
</g>
<!-- https://w3id.org/oseg/ont/otrl#Otrl1&#45;&gt;https://w3id.org/oseg/ont/otrl#OTRL1 -->
<g id="edge5" class="edge">
<title>https://w3id.org/oseg/ont/otrl#Otrl1&#45;&gt;https://w3id.org/oseg/ont/otrl#OTRL1</title>
<path fill="none" stroke="black" d="M1212.58,-295.41C1235.98,-311.46 1276.73,-335.6 1308.27,-352.4"/>
<polygon fill="black" stroke="black" points="1306.83,-355.6 1317.31,-357.15 1310.09,-349.4 1306.83,-355.6"/>
<text text-anchor="middle" x="1180.43" y="-327.7" font-family="Times,serif" font-size="14.00">schema:supersededBy</text>
</g>
<!-- https://w3id.org/oseg/ont/otrl#Otrl1&#45;&gt;https://w3id.org/oseg/ont/otrl#OTRL1 -->
<g id="edge8" class="edge">
<title>https://w3id.org/oseg/ont/otrl#Otrl1&#45;&gt;https://w3id.org/oseg/ont/otrl#OTRL1</title>
<path fill="none" stroke="black" d="M1233.21,-295.19C1262.23,-310.4 1300.92,-333.03 1326.29,-349.73"/>
<polygon fill="black" stroke="black" points="1324.42,-352.69 1334.67,-355.37 1328.33,-346.88 1324.42,-352.69"/>
<text text-anchor="middle" x="1237.25" y="-311.26" font-family="Times,serif" font-size="14.00">owl:sameAs</text>
</g>
<!-- https://w3id.org/oseg/ont/otrl#Otrl3 -->
<g id="node30" class="node">
<title>https://w3id.org/oseg/ont/otrl#Otrl3</title>
<ellipse fill="none" stroke="black" cx="1601.36" cy="-281.21" rx="194.41" ry="16.03"/>
<text text-anchor="middle" x="1601.36" y="-277.51" font-family="Times,serif" font-size="14.00">https://w3id.org/oseg/ont/otrl#Otrl3</text>
</g>
<!-- https://w3id.org/oseg/ont/otrl#Otrl3&#45;&gt;https://w3id.org/oseg/ont/otrl#OTRL3 -->
<g id="edge6" class="edge">
<title>https://w3id.org/oseg/ont/otrl#Otrl3&#45;&gt;https://w3id.org/oseg/ont/otrl#OTRL3</title>
<path fill="none" stroke="black" d="M1574.96,-297.68C1574.5,-298.13 1574.05,-298.58 1573.6,-299.04"/>
<polygon fill="black" stroke="black" points="1570.99,-296.72 1566.84,-306.47 1576.16,-301.43 1570.99,-296.72"/>
<text text-anchor="middle" x="1616.78" y="-302.16" font-family="Times,serif" font-size="14.00">owl:sameAs</text>
</g>
<!-- https://w3id.org/oseg/ont/otrl#Otrl3&#45;&gt;https://w3id.org/oseg/ont/otrl#OTRL3 -->
<g id="edge43" class="edge">
<title>https://w3id.org/oseg/ont/otrl#Otrl3&#45;&gt;https://w3id.org/oseg/ont/otrl#OTRL3</title>
<path fill="none" stroke="black" d="M1593.24,-297.9C1592.66,-298.58 1592.05,-299.28 1591.44,-299.98"/>
<polygon fill="black" stroke="black" points="1588.7,-297.77 1584.31,-307.41 1593.76,-302.61 1588.7,-297.77"/>
<text text-anchor="middle" x="1512.34" y="-302.74" font-family="Times,serif" font-size="14.00">schema:supersededBy</text>
</g>
<!-- https://w3id.org/oseg/ont/otrl#Otrl6 -->
<g id="node31" class="node">
<title>https://w3id.org/oseg/ont/otrl#Otrl6</title>
<ellipse fill="none" stroke="black" cx="1751.56" cy="-775.01" rx="194.41" ry="16.03"/>
<text text-anchor="middle" x="1751.56" y="-771.31" font-family="Times,serif" font-size="14.00">https://w3id.org/oseg/ont/otrl#Otrl6</text>
</g>
<!-- https://w3id.org/oseg/ont/otrl#Otrl6&#45;&gt;https://w3id.org/oseg/ont/otrl#OTRL6 -->
<g id="edge10" class="edge">
<title>https://w3id.org/oseg/ont/otrl#Otrl6&#45;&gt;https://w3id.org/oseg/ont/otrl#OTRL6</title>
<path fill="none" stroke="black" d="M1744.75,-758.64C1742.95,-756.2 1740.92,-753.66 1738.75,-751.13"/>
<polygon fill="black" stroke="black" points="1741.29,-748.71 1731.97,-743.67 1736.11,-753.43 1741.29,-748.71"/>
<text text-anchor="middle" x="1821.75" y="-743.68" font-family="Times,serif" font-size="14.00">schema:supersededBy</text>
</g>
<!-- https://w3id.org/oseg/ont/otrl#Otrl6&#45;&gt;https://w3id.org/oseg/ont/otrl#OTRL6 -->
<g id="edge23" class="edge">
<title>https://w3id.org/oseg/ont/otrl#Otrl6&#45;&gt;https://w3id.org/oseg/ont/otrl#OTRL6</title>
<path fill="none" stroke="black" d="M1727.7,-758.86C1725.77,-756.84 1723.87,-754.75 1722.05,-752.64"/>
<polygon fill="black" stroke="black" points="1724.59,-750.21 1715.59,-744.61 1719.13,-754.6 1724.59,-750.21"/>
<text text-anchor="middle" x="1682.38" y="-744.55" font-family="Times,serif" font-size="14.00">owl:sameAs</text>
</g>
<!-- https://w3id.org/oseg/ont/otrl#Odrl5 -->
<g id="node32" class="node">
<title>https://w3id.org/oseg/ont/otrl#Odrl5</title>
<ellipse fill="none" stroke="black" cx="196.96" cy="-1283.96" rx="196.65" ry="16.03"/>
<text text-anchor="middle" x="196.96" y="-1280.26" font-family="Times,serif" font-size="14.00">https://w3id.org/oseg/ont/otrl#Odrl5</text>
</g>
<!-- https://w3id.org/oseg/ont/otrl#Odrl5&#45;&gt;https://w3id.org/oseg/ont/otrl#Odrl4 -->
<g id="edge11" class="edge">
<title>https://w3id.org/oseg/ont/otrl#Odrl5&#45;&gt;https://w3id.org/oseg/ont/otrl#Odrl4</title>
<path fill="none" stroke="black" d="M259.16,-1268.4C332.13,-1246.04 450.89,-1205.52 512.12,-1181.88"/>
<polygon fill="black" stroke="black" points="513.4,-1185.14 521.44,-1178.23 510.85,-1178.62 513.4,-1185.14"/>
<text text-anchor="middle" x="305.64" y="-1228.94" font-family="Times,serif" font-size="14.00">schema:supersededBy</text>
</g>
<!-- https://w3id.org/oseg/ont/otrl#Odrl5&#45;&gt;https://w3id.org/oseg/ont/otrl#Odrl4 -->
<g id="edge12" class="edge">
<title>https://w3id.org/oseg/ont/otrl#Odrl5&#45;&gt;https://w3id.org/oseg/ont/otrl#Odrl4</title>
<path fill="none" stroke="black" d="M231.2,-1267.85C292.38,-1243.91 420.97,-1200.05 495.23,-1177.54"/>
<polygon fill="black" stroke="black" points="496.32,-1180.87 504.89,-1174.65 494.3,-1174.17 496.32,-1180.87"/>
<text text-anchor="middle" x="320.71" y="-1211.5" font-family="Times,serif" font-size="14.00">owl:sameAs</text>
</g>
<!-- https://w3id.org/oseg/ont/otrl#Odrl -->
<g id="node33" class="node">
<title>https://w3id.org/oseg/ont/otrl#Odrl</title>
<ellipse fill="none" stroke="black" cx="699.34" cy="-893.14" rx="190.42" ry="16.03"/>
<text text-anchor="middle" x="699.34" y="-889.44" font-family="Times,serif" font-size="14.00">https://w3id.org/oseg/ont/otrl#Odrl</text>
</g>
<!-- https://w3id.org/oseg/ont/otrl#Odrl&#45;&gt;https://w3id.org/oseg/ont/otrl#ODRL -->
<g id="edge13" class="edge">
<title>https://w3id.org/oseg/ont/otrl#Odrl&#45;&gt;https://w3id.org/oseg/ont/otrl#ODRL</title>
<path fill="none" stroke="black" d="M754.53,-908.72C824.33,-924.47 944.47,-947.61 1019.93,-959.93"/>
<polygon fill="black" stroke="black" points="1019.38,-963.39 1029.81,-961.52 1020.5,-956.48 1019.38,-963.39"/>
<text text-anchor="middle" x="807.23" y="-938.12" font-family="Times,serif" font-size="14.00">schema:supersededBy</text>
</g>
<!-- https://w3id.org/oseg/ont/otrl#Odrl&#45;&gt;https://w3id.org/oseg/ont/otrl#ODRL -->
<g id="edge14" class="edge">
<title>https://w3id.org/oseg/ont/otrl#Odrl&#45;&gt;https://w3id.org/oseg/ont/otrl#ODRL</title>
<path fill="none" stroke="black" d="M802.62,-906.8C878.15,-919.97 977.38,-939.41 1036.76,-952.94"/>
<polygon fill="black" stroke="black" points="1036.12,-956.38 1046.65,-955.22 1037.69,-949.56 1036.12,-956.38"/>
<text text-anchor="middle" x="877.19" y="-918.67" font-family="Times,serif" font-size="14.00">owl:sameAs</text>
</g>
<!-- https://w3id.org/oseg/ont/otrl#Otrl -->
<g id="node34" class="node">
<title>https://w3id.org/oseg/ont/otrl#Otrl</title>
<ellipse fill="none" stroke="black" cx="1531.5" cy="-141.55" rx="188.18" ry="16.03"/>
<text text-anchor="middle" x="1531.5" y="-137.85" font-family="Times,serif" font-size="14.00">https://w3id.org/oseg/ont/otrl#Otrl</text>
</g>
<!-- https://w3id.org/oseg/ont/otrl#Otrl&#45;&gt;https://w3id.org/oseg/ont/otrl#OTRL -->
<g id="edge17" class="edge">
<title>https://w3id.org/oseg/ont/otrl#Otrl&#45;&gt;https://w3id.org/oseg/ont/otrl#OTRL</title>
<path fill="none" stroke="black" d="M1529.23,-157.93C1526.6,-219.89 1534.5,-440.38 1541.79,-517.19"/>
<polygon fill="black" stroke="black" points="1538.34,-517.86 1542.86,-527.44 1545.3,-517.13 1538.34,-517.86"/>
<text text-anchor="middle" x="1455.51" y="-341.36" font-family="Times,serif" font-size="14.00">schema:supersededBy</text>
</g>
<!-- https://w3id.org/oseg/ont/otrl#Otrl&#45;&gt;https://w3id.org/oseg/ont/otrl#OTRL -->
<g id="edge29" class="edge">
<title>https://w3id.org/oseg/ont/otrl#Otrl&#45;&gt;https://w3id.org/oseg/ont/otrl#OTRL</title>
<path fill="none" stroke="black" d="M1535.01,-157.97C1542.2,-219.93 1550.55,-440 1548.94,-516.98"/>
<polygon fill="black" stroke="black" points="1545.44,-517.16 1548.63,-527.26 1552.43,-517.37 1545.44,-517.16"/>
<text text-anchor="middle" x="1584.48" y="-341.27" font-family="Times,serif" font-size="14.00">owl:sameAs</text>
</g>
<!-- https://w3id.org/oseg/ont/otrl#Otrl4 -->
<g id="node35" class="node">
<title>https://w3id.org/oseg/ont/otrl#Otrl4</title>
<ellipse fill="none" stroke="black" cx="2180.86" cy="-316.39" rx="194.41" ry="16.03"/>
<text text-anchor="middle" x="2180.86" y="-312.69" font-family="Times,serif" font-size="14.00">https://w3id.org/oseg/ont/otrl#Otrl4</text>
</g>
<!-- https://w3id.org/oseg/ont/otrl#Otrl4&#45;&gt;https://w3id.org/oseg/ont/otrl#OTRL4 -->
<g id="edge20" class="edge">
<title>https://w3id.org/oseg/ont/otrl#Otrl4&#45;&gt;https://w3id.org/oseg/ont/otrl#OTRL4</title>
<path fill="none" stroke="black" d="M2122.45,-331.94C2047.25,-356.25 1918.63,-402.52 1854.34,-428.59"/>
<polygon fill="black" stroke="black" points="1852.89,-425.4 1844.97,-432.44 1855.55,-431.88 1852.89,-425.4"/>
<text text-anchor="middle" x="1945.9" y="-384.06" font-family="Times,serif" font-size="14.00">owl:sameAs</text>
</g>
<!-- https://w3id.org/oseg/ont/otrl#Otrl4&#45;&gt;https://w3id.org/oseg/ont/otrl#OTRL4 -->
<g id="edge54" class="edge">
<title>https://w3id.org/oseg/ont/otrl#Otrl4&#45;&gt;https://w3id.org/oseg/ont/otrl#OTRL4</title>
<path fill="none" stroke="black" d="M2148.2,-332.47C2085.8,-358.19 1949.03,-407.46 1871.64,-432.39"/>
<polygon fill="black" stroke="black" points="1870.51,-429.08 1862.05,-435.45 1872.64,-435.74 1870.51,-429.08"/>
<text text-anchor="middle" x="2089.92" y="-386.23" font-family="Times,serif" font-size="14.00">schema:supersededBy</text>
</g>
<!-- https://w3id.org/oseg/ont/otrl#Otrl2 -->
<g id="node36" class="node">
<title>https://w3id.org/oseg/ont/otrl#Otrl2</title>
<ellipse fill="none" stroke="black" cx="2199.79" cy="-675.4" rx="194.41" ry="16.03"/>
<text text-anchor="middle" x="2199.79" y="-671.7" font-family="Times,serif" font-size="14.00">https://w3id.org/oseg/ont/otrl#Otrl2</text>
</g>
<!-- https://w3id.org/oseg/ont/otrl#Otrl2&#45;&gt;https://w3id.org/oseg/ont/otrl#OTRL2 -->
<g id="edge32" class="edge">
<title>https://w3id.org/oseg/ont/otrl#Otrl2&#45;&gt;https://w3id.org/oseg/ont/otrl#OTRL2</title>
<path fill="none" stroke="black" d="M2151.47,-659.58C2085.23,-642.01 1965.91,-614.75 1890.53,-599.8"/>
<polygon fill="black" stroke="black" points="1891.14,-596.35 1880.65,-597.86 1889.79,-603.22 1891.14,-596.35"/>
<text text-anchor="middle" x="1941" y="-618.49" font-family="Times,serif" font-size="14.00">schema:supersededBy</text>
</g>
<!-- https://w3id.org/oseg/ont/otrl#Otrl2&#45;&gt;https://w3id.org/oseg/ont/otrl#OTRL2 -->
<g id="edge49" class="edge">
<title>https://w3id.org/oseg/ont/otrl#Otrl2&#45;&gt;https://w3id.org/oseg/ont/otrl#OTRL2</title>
<path fill="none" stroke="black" d="M2109.48,-660.89C2034.72,-645.48 1931.36,-621.67 1871.13,-605.72"/>
<polygon fill="black" stroke="black" points="1871.69,-602.25 1861.13,-603.04 1869.88,-609.01 1871.69,-602.25"/>
<text text-anchor="middle" x="1947.81" y="-637.1" font-family="Times,serif" font-size="14.00">owl:sameAs</text>
</g>
<!-- https://w3id.org/oseg/ont/otrl#Otrl5 -->
<g id="node37" class="node">
<title>https://w3id.org/oseg/ont/otrl#Otrl5</title>
<ellipse fill="none" stroke="black" cx="1976.08" cy="-16.43" rx="194.41" ry="16.03"/>
<text text-anchor="middle" x="1976.08" y="-12.73" font-family="Times,serif" font-size="14.00">https://w3id.org/oseg/ont/otrl#Otrl5</text>
</g>
<!-- https://w3id.org/oseg/ont/otrl#Otrl5&#45;&gt;https://w3id.org/oseg/ont/otrl#OTRL5 -->
<g id="edge46" class="edge">
<title>https://w3id.org/oseg/ont/otrl#Otrl5&#45;&gt;https://w3id.org/oseg/ont/otrl#OTRL5</title>
<path fill="none" stroke="black" d="M1959.33,-32.83C1914.98,-84 1795.93,-240.48 1754.66,-301.62"/>
<polygon fill="black" stroke="black" points="1751.55,-299.99 1748.94,-310.26 1757.38,-303.86 1751.55,-299.99"/>
<text text-anchor="middle" x="1777" y="-171.03" font-family="Times,serif" font-size="14.00">schema:supersededBy</text>
</g>
<!-- https://w3id.org/oseg/ont/otrl#Otrl5&#45;&gt;https://w3id.org/oseg/ont/otrl#OTRL5 -->
<g id="edge47" class="edge">
<title>https://w3id.org/oseg/ont/otrl#Otrl5&#45;&gt;https://w3id.org/oseg/ont/otrl#OTRL5</title>
<path fill="none" stroke="black" d="M1967.48,-32.82C1934.12,-84.3 1814.38,-242.34 1763.49,-302.7"/>
<polygon fill="black" stroke="black" points="1760.62,-300.67 1756.78,-310.55 1765.94,-305.22 1760.62,-300.67"/>
<text text-anchor="middle" x="1907.98" y="-171.56" font-family="Times,serif" font-size="14.00">owl:sameAs</text>
</g>
<!-- https://w3id.org/oseg/ont/otrl#Odrl1 -->
<g id="node38" class="node">
<title>https://w3id.org/oseg/ont/otrl#Odrl1</title>
<ellipse fill="none" stroke="black" cx="1108.51" cy="-1644.62" rx="196.65" ry="16.03"/>
<text text-anchor="middle" x="1108.51" y="-1640.92" font-family="Times,serif" font-size="14.00">https://w3id.org/oseg/ont/otrl#Odrl1</text>
</g>
<!-- https://w3id.org/oseg/ont/otrl#Odrl1&#45;&gt;https://w3id.org/oseg/ont/otrl#ODRL1 -->
<g id="edge51" class="edge">
<title>https://w3id.org/oseg/ont/otrl#Odrl1&#45;&gt;https://w3id.org/oseg/ont/otrl#ODRL1</title>
<path fill="none" stroke="black" d="M1110.84,-1628.12C1113.6,-1566.39 1106.32,-1348.74 1099.26,-1272.16"/>
<polygon fill="black" stroke="black" points="1102.71,-1271.52 1098.22,-1261.92 1095.75,-1272.22 1102.71,-1271.52"/>
<text text-anchor="middle" x="1025.05" y="-1453.94" font-family="Times,serif" font-size="14.00">schema:supersededBy</text>
</g>
<!-- https://w3id.org/oseg/ont/otrl#Odrl1&#45;&gt;https://w3id.org/oseg/ont/otrl#ODRL1 -->
<g id="edge52" class="edge">
<title>https://w3id.org/oseg/ont/otrl#Odrl1&#45;&gt;https://w3id.org/oseg/ont/otrl#ODRL1</title>
<path fill="none" stroke="black" d="M1105.06,-1628.32C1098.02,-1566.79 1090.25,-1348.31 1092.06,-1271.89"/>
<polygon fill="black" stroke="black" points="1095.56,-1271.79 1092.4,-1261.68 1088.57,-1271.56 1095.56,-1271.79"/>
<text text-anchor="middle" x="1056.06" y="-1438.9" font-family="Times,serif" font-size="14.00">owl:sameAs</text>
</g>
</g>
</svg>
