<?xml version="1.0" encoding="UTF-8" standalone="no"?>
<!DOCTYPE svg PUBLIC "-//W3C//DTD SVG 1.1//EN"
 "http://www.w3.org/Graphics/SVG/1.1/DTD/svg11.dtd">
<!-- Generated by graphviz version 2.43.0 (0)
 -->
<!-- Title: G Pages: 1 -->
<svg width="1353pt" height="820pt"
 viewBox="0.00 0.00 1353.00 820.00" xmlns="http://www.w3.org/2000/svg" xmlns:xlink="http://www.w3.org/1999/xlink">
<g id="graph0" class="graph" transform="scale(1 1) rotate(0) translate(4 816)">
<title>G</title>
<polygon fill="white" stroke="transparent" points="-4,4 -4,-816 1349,-816 1349,4 -4,4"/>
<!-- https://w3id.org/oseg/ont/okhmeta#MetaTag -->
<g id="node1" class="node">
<title>https://w3id.org/oseg/ont/okhmeta#MetaTag</title>
<ellipse fill="none" stroke="#e377c2" cx="416.58" cy="-439.32" rx="102.56" ry="16.03"/>
<text text-anchor="middle" x="416.58" y="-435.62" font-family="Times,serif" font-size="14.00">okhmeta:MetaTag</text>
</g>
<!-- https://w3id.org/oseg/ont/okhmeta#MetaTag&#45;&gt;https://w3id.org/oseg/ont/okhmeta#MetaTag -->
<g id="edge38" class="edge">
<title>https://w3id.org/oseg/ont/okhmeta#MetaTag&#45;&gt;https://w3id.org/oseg/ont/okhmeta#MetaTag</title>
<path fill="none" stroke="black" d="M511.57,-445.54C526.73,-444.63 537.11,-442.56 537.11,-439.32 537.11,-436.87 531.15,-435.09 521.67,-433.97"/>
<polygon fill="black" stroke="black" points="521.84,-430.48 511.57,-433.11 521.24,-437.45 521.84,-430.48"/>
<text text-anchor="middle" x="614.11" y="-435.62" font-family="Times,serif" font-size="14.00">okhmeta:hasMetaTag</text>
</g>
<!-- https://w3id.org/oseg/ont/okhmeta#Tag -->
<g id="node5" class="node">
<title>https://w3id.org/oseg/ont/okhmeta#Tag</title>
<ellipse fill="none" stroke="#e377c2" cx="438.6" cy="-480.27" rx="76.24" ry="16.03"/>
<text text-anchor="middle" x="438.6" y="-476.57" font-family="Times,serif" font-size="14.00">okhmeta:Tag</text>
</g>
<!-- https://w3id.org/oseg/ont/okhmeta#MetaTag&#45;&gt;https://w3id.org/oseg/ont/okhmeta#Tag -->
<g id="edge16" class="edge">
<title>https://w3id.org/oseg/ont/okhmeta#MetaTag&#45;&gt;https://w3id.org/oseg/ont/okhmeta#Tag</title>
<path fill="none" stroke="black" d="M418.17,-455.75C418.21,-455.84 418.25,-455.93 418.29,-456.02"/>
<polygon fill="black" stroke="black" points="414.85,-456.96 422.41,-464.38 421.12,-453.86 414.85,-456.96"/>
<text text-anchor="middle" x="413.73" y="-459.69" font-family="Times,serif" font-size="14.00">a</text>
</g>
<!-- http://www.w3.org/2004/02/skos/core#Collection -->
<g id="node2" class="node">
<title>http://www.w3.org/2004/02/skos/core#Collection</title>
<ellipse fill="none" stroke="#e377c2" cx="751.21" cy="-564.62" rx="87.86" ry="16.03"/>
<text text-anchor="middle" x="751.21" y="-560.92" font-family="Times,serif" font-size="14.00">skos:Collection</text>
</g>
<!-- http://www.w3.org/2004/02/skos/core#Concept -->
<g id="node3" class="node">
<title>http://www.w3.org/2004/02/skos/core#Concept</title>
<ellipse fill="none" stroke="#1f77b4" cx="414.51" cy="-338.82" rx="78.48" ry="16.03"/>
<text text-anchor="middle" x="414.51" y="-335.12" font-family="Times,serif" font-size="14.00">skos:Concept</text>
</g>
<!-- http://spdx.org/rdf/terms#File -->
<g id="node4" class="node">
<title>http://spdx.org/rdf/terms#File</title>
<ellipse fill="none" stroke="#1f77b4" cx="1148.41" cy="-362.45" rx="62.45" ry="16.03"/>
<text text-anchor="middle" x="1148.41" y="-358.75" font-family="Times,serif" font-size="14.00">spdxt:File</text>
</g>
<!-- https://w3id.org/oseg/ont/okhmeta#Tag&#45;&gt;https://w3id.org/oseg/ont/okhmeta#MetaTag -->
<g id="edge39" class="edge">
<title>https://w3id.org/oseg/ont/okhmeta#Tag&#45;&gt;https://w3id.org/oseg/ont/okhmeta#MetaTag</title>
<path fill="none" stroke="black" d="M437.01,-463.84C436.97,-463.76 436.94,-463.67 436.9,-463.59"/>
<polygon fill="black" stroke="black" points="440.49,-462.95 432.94,-455.51 434.2,-466.03 440.49,-462.95"/>
<text text-anchor="middle" x="513.96" y="-452.52" font-family="Times,serif" font-size="14.00">okhmeta:hasMetaTag</text>
</g>
<!-- https://w3id.org/oseg/ont/okhmeta#Tag&#45;&gt;http://www.w3.org/2004/02/skos/core#Collection -->
<g id="edge40" class="edge">
<title>https://w3id.org/oseg/ont/okhmeta#Tag&#45;&gt;http://www.w3.org/2004/02/skos/core#Collection</title>
<path fill="none" stroke="black" d="M486.08,-493.08C541.17,-507.95 632.07,-532.48 691.8,-548.59"/>
<polygon fill="black" stroke="black" points="690.9,-551.98 701.47,-551.2 692.73,-545.22 690.9,-551.98"/>
</g>
<!-- https://w3id.org/oseg/ont/okhmeta#Tag&#45;&gt;http://www.w3.org/2004/02/skos/core#Concept -->
<g id="edge34" class="edge">
<title>https://w3id.org/oseg/ont/okhmeta#Tag&#45;&gt;http://www.w3.org/2004/02/skos/core#Concept</title>
<path fill="none" stroke="black" d="M435.79,-463.77C431.67,-439.6 423.96,-394.32 419.04,-365.41"/>
<polygon fill="black" stroke="black" points="422.43,-364.48 417.3,-355.21 415.53,-365.66 422.43,-364.48"/>
<text text-anchor="middle" x="422.91" y="-403.39" font-family="Times,serif" font-size="14.00">a</text>
</g>
<!-- https://w3id.org/oseg/ont/oseg&#45;profiles#Iopa -->
<g id="node6" class="node">
<title>https://w3id.org/oseg/ont/oseg&#45;profiles#Iopa</title>
<ellipse fill="none" stroke="#e377c2" cx="1264.01" cy="-28.79" rx="80.72" ry="16.03"/>
<text text-anchor="middle" x="1264.01" y="-25.09" font-family="Times,serif" font-size="14.00">osegprof:Iopa</text>
</g>
<!-- http://www.w3.org/2004/02/skos/core#member -->
<g id="node7" class="node">
<title>http://www.w3.org/2004/02/skos/core#member</title>
<ellipse fill="none" stroke="#e377c2" cx="400.71" cy="-15.92" rx="79.39" ry="16.03"/>
<text text-anchor="middle" x="400.71" y="-12.22" font-family="Times,serif" font-size="14.00">skos:member</text>
</g>
<!-- https://w3id.org/oseg/ont/okhmeta#BasicTag -->
<g id="node8" class="node">
<title>https://w3id.org/oseg/ont/okhmeta#BasicTag</title>
<ellipse fill="none" stroke="#e377c2" cx="535.99" cy="-745.4" rx="103.48" ry="16.03"/>
<text text-anchor="middle" x="535.99" y="-741.7" font-family="Times,serif" font-size="14.00">okhmeta:BasicTag</text>
</g>
<!-- https://w3id.org/oseg/ont/okhmeta#BasicTag&#45;&gt;https://w3id.org/oseg/ont/okhmeta#MetaTag -->
<g id="edge41" class="edge">
<title>https://w3id.org/oseg/ont/okhmeta#BasicTag&#45;&gt;https://w3id.org/oseg/ont/okhmeta#MetaTag</title>
<path fill="none" stroke="black" d="M529.57,-728.95C509.93,-678.6 450.55,-526.39 426.68,-465.2"/>
<polygon fill="black" stroke="black" points="429.93,-463.91 423.03,-455.86 423.41,-466.45 429.93,-463.91"/>
<text text-anchor="middle" x="401.12" y="-600.87" font-family="Times,serif" font-size="14.00">okhmeta:hasMetaTag</text>
</g>
<!-- https://w3id.org/oseg/ont/okhmeta#BasicTag&#45;&gt;https://w3id.org/oseg/ont/okhmeta#Tag -->
<g id="edge5" class="edge">
<title>https://w3id.org/oseg/ont/okhmeta#BasicTag&#45;&gt;https://w3id.org/oseg/ont/okhmeta#Tag</title>
<path fill="none" stroke="black" d="M529.9,-728.82C513.43,-683.98 467.92,-560.1 448.07,-506.05"/>
<polygon fill="black" stroke="black" points="451.3,-504.69 444.57,-496.51 444.73,-507.11 451.3,-504.69"/>
<text text-anchor="middle" x="484.48" y="-621.24" font-family="Times,serif" font-size="14.00">a</text>
</g>
<!-- https://w3id.org/oseg/ont/okhmeta#DataGatheringTag -->
<g id="node9" class="node">
<title>https://w3id.org/oseg/ont/okhmeta#DataGatheringTag</title>
<ellipse fill="none" stroke="#e377c2" cx="187.14" cy="-248.11" rx="122.16" ry="16.03"/>
<text text-anchor="middle" x="187.14" y="-244.41" font-family="Times,serif" font-size="14.00">okhmeta:DataGathe...</text>
</g>
<!-- https://w3id.org/oseg/ont/okhmeta#DataGatheringTag&#45;&gt;https://w3id.org/oseg/ont/okhmeta#MetaTag -->
<g id="edge17" class="edge">
<title>https://w3id.org/oseg/ont/okhmeta#DataGatheringTag&#45;&gt;https://w3id.org/oseg/ont/okhmeta#MetaTag</title>
<path fill="none" stroke="black" d="M206.7,-264.41C247.7,-298.58 342.69,-377.74 389.5,-416.76"/>
<polygon fill="black" stroke="black" points="387.47,-419.62 397.39,-423.33 391.95,-414.24 387.47,-419.62"/>
<text text-anchor="middle" x="221.1" y="-329.39" font-family="Times,serif" font-size="14.00">okhmeta:hasMetaTag</text>
</g>
<!-- https://w3id.org/oseg/ont/okhmeta#DataGatheringTag&#45;&gt;https://w3id.org/oseg/ont/okhmeta#Tag -->
<g id="edge27" class="edge">
<title>https://w3id.org/oseg/ont/okhmeta#DataGatheringTag&#45;&gt;https://w3id.org/oseg/ont/okhmeta#Tag</title>
<path fill="none" stroke="black" d="M204.82,-264.44C248.75,-305 362.97,-410.45 413.7,-457.28"/>
<polygon fill="black" stroke="black" points="411.55,-460.06 421.27,-464.27 416.3,-454.92 411.55,-460.06"/>
<text text-anchor="middle" x="304.76" y="-349.66" font-family="Times,serif" font-size="14.00">a</text>
</g>
<!-- https://w3id.org/oseg/ont/okhmeta#HistoryTag -->
<g id="node10" class="node">
<title>https://w3id.org/oseg/ont/okhmeta#HistoryTag</title>
<ellipse fill="none" stroke="#e377c2" cx="301.64" cy="-174.4" rx="113.69" ry="16.03"/>
<text text-anchor="middle" x="301.64" y="-170.7" font-family="Times,serif" font-size="14.00">okhmeta:HistoryTag</text>
</g>
<!-- https://w3id.org/oseg/ont/okhmeta#HistoryTag&#45;&gt;https://w3id.org/oseg/ont/okhmeta#MetaTag -->
<g id="edge2" class="edge">
<title>https://w3id.org/oseg/ont/okhmeta#HistoryTag&#45;&gt;https://w3id.org/oseg/ont/okhmeta#MetaTag</title>
<path fill="none" stroke="black" d="M308.83,-190.97C328.31,-235.87 382.2,-360.07 405.55,-413.9"/>
<polygon fill="black" stroke="black" points="402.35,-415.32 409.54,-423.1 408.77,-412.53 402.35,-415.32"/>
<text text-anchor="middle" x="280.19" y="-306.24" font-family="Times,serif" font-size="14.00">okhmeta:hasMetaTag</text>
</g>
<!-- https://w3id.org/oseg/ont/okhmeta#HistoryTag&#45;&gt;https://w3id.org/oseg/ont/okhmeta#Tag -->
<g id="edge30" class="edge">
<title>https://w3id.org/oseg/ont/okhmeta#HistoryTag&#45;&gt;https://w3id.org/oseg/ont/okhmeta#Tag</title>
<path fill="none" stroke="black" d="M309,-190.85C331.53,-241.15 399.64,-393.27 427.02,-454.41"/>
<polygon fill="black" stroke="black" points="423.92,-456.05 431.2,-463.75 430.31,-453.19 423.92,-456.05"/>
<text text-anchor="middle" x="363.51" y="-311.43" font-family="Times,serif" font-size="14.00">a</text>
</g>
<!-- https://w3id.org/oseg/ont/okhmeta#hasMetaTag -->
<g id="node11" class="node">
<title>https://w3id.org/oseg/ont/okhmeta#hasMetaTag</title>
<ellipse fill="none" stroke="#e377c2" cx="416.29" cy="-386.13" rx="120.42" ry="16.03"/>
<text text-anchor="middle" x="416.29" y="-382.43" font-family="Times,serif" font-size="14.00">okhmeta:hasMetaTag</text>
</g>
<!-- https://w3id.org/oseg/ont/okhmeta#hasMetaTag&#45;&gt;https://w3id.org/oseg/ont/okhmeta#MetaTag -->
<g id="edge1" class="edge">
<title>https://w3id.org/oseg/ont/okhmeta#hasMetaTag&#45;&gt;https://w3id.org/oseg/ont/okhmeta#MetaTag</title>
<path fill="none" stroke="black" d="M410.11,-402.41C409.81,-405.65 409.67,-409.13 409.69,-412.62"/>
<polygon fill="black" stroke="black" points="406.2,-413.03 410.19,-422.84 413.19,-412.68 406.2,-413.03"/>
<text text-anchor="middle" x="329.9" y="-411.31" font-family="Times,serif" font-size="14.00">schema:rangeIncludes</text>
</g>
<!-- https://w3id.org/oseg/ont/okhmeta#hasMetaTag&#45;&gt;https://w3id.org/oseg/ont/okhmeta#MetaTag -->
<g id="edge28" class="edge">
<title>https://w3id.org/oseg/ont/okhmeta#hasMetaTag&#45;&gt;https://w3id.org/oseg/ont/okhmeta#MetaTag</title>
<path fill="none" stroke="black" d="M422.68,-402.63C423,-405.86 423.17,-409.33 423.19,-412.79"/>
<polygon fill="black" stroke="black" points="419.68,-412.81 422.78,-422.94 426.68,-413.09 419.68,-412.81"/>
<text text-anchor="middle" x="499.93" y="-411.51" font-family="Times,serif" font-size="14.00">okhmeta:hasMetaTag</text>
</g>
<!-- https://w3id.org/oseg/ont/okhmeta#hasMetaTag&#45;&gt;http://www.w3.org/2004/02/skos/core#Concept -->
<g id="edge24" class="edge">
<title>https://w3id.org/oseg/ont/okhmeta#hasMetaTag&#45;&gt;http://www.w3.org/2004/02/skos/core#Concept</title>
<path fill="none" stroke="black" d="M415.68,-369.84C415.62,-368.37 415.57,-366.86 415.51,-365.33"/>
<polygon fill="black" stroke="black" points="419,-365.15 415.13,-355.29 412.01,-365.41 419,-365.15"/>
<text text-anchor="middle" x="411.09" y="-356.39" font-family="Times,serif" font-size="14.00">a</text>
</g>
<!-- https://w3id.org/oseg/ont/okhmeta#hasMetaTag&#45;&gt;http://www.w3.org/2004/02/skos/core#member -->
<g id="edge4" class="edge">
<title>https://w3id.org/oseg/ont/okhmeta#hasMetaTag&#45;&gt;http://www.w3.org/2004/02/skos/core#member</title>
<path fill="none" stroke="black" d="M415.6,-369.74C413.15,-311.58 404.87,-114.65 401.83,-42.61"/>
<polygon fill="black" stroke="black" points="405.33,-42.38 401.41,-32.53 398.33,-42.67 405.33,-42.38"/>
<text text-anchor="middle" x="355.72" y="-209.97" font-family="Times,serif" font-size="14.00">subPropertyOf</text>
</g>
<!-- https://w3id.org/oseg/ont/okhmeta#AcademicTag -->
<g id="node12" class="node">
<title>https://w3id.org/oseg/ont/okhmeta#AcademicTag</title>
<ellipse fill="none" stroke="#e377c2" cx="659.26" cy="-226.17" rx="124.4" ry="16.03"/>
<text text-anchor="middle" x="659.26" y="-222.47" font-family="Times,serif" font-size="14.00">okhmeta:AcademicTag</text>
</g>
<!-- https://w3id.org/oseg/ont/okhmeta#AcademicTag&#45;&gt;https://w3id.org/oseg/ont/okhmeta#MetaTag -->
<g id="edge29" class="edge">
<title>https://w3id.org/oseg/ont/okhmeta#AcademicTag&#45;&gt;https://w3id.org/oseg/ont/okhmeta#MetaTag</title>
<path fill="none" stroke="black" d="M640.62,-242.54C597.72,-280.22 491.93,-373.14 442.64,-416.44"/>
<polygon fill="black" stroke="black" points="440.16,-413.96 434.95,-423.19 444.78,-419.22 440.16,-413.96"/>
<text text-anchor="middle" x="541.63" y="-318.29" font-family="Times,serif" font-size="14.00">okhmeta:hasMetaTag</text>
</g>
<!-- https://w3id.org/oseg/ont/okhmeta#AcademicTag&#45;&gt;https://w3id.org/oseg/ont/okhmeta#Tag -->
<g id="edge9" class="edge">
<title>https://w3id.org/oseg/ont/okhmeta#AcademicTag&#45;&gt;https://w3id.org/oseg/ont/okhmeta#Tag</title>
<path fill="none" stroke="black" d="M645.12,-242.45C607.29,-286.02 503.61,-405.41 459.22,-456.53"/>
<polygon fill="black" stroke="black" points="456.54,-454.28 452.62,-464.13 461.82,-458.87 456.54,-454.28"/>
<text text-anchor="middle" x="547.67" y="-353.29" font-family="Times,serif" font-size="14.00">a</text>
</g>
<!-- https://w3id.org/oseg/ont/1.1.0/okh&#45;meta -->
<g id="node13" class="node">
<title>https://w3id.org/oseg/ont/1.1.0/okh&#45;meta</title>
<ellipse fill="none" stroke="#e377c2" cx="1101.38" cy="-119.79" rx="79.81" ry="16.03"/>
<text text-anchor="middle" x="1101.38" y="-116.09" font-family="Times,serif" font-size="14.00">ns1:okh&#45;meta</text>
</g>
<!-- http://id.loc.gov/vocabulary/iso639&#45;1/en -->
<g id="node14" class="node">
<title>http://id.loc.gov/vocabulary/iso639&#45;1/en</title>
<ellipse fill="none" stroke="#e377c2" cx="916.08" cy="-262.02" rx="45.01" ry="16.03"/>
<text text-anchor="middle" x="916.08" y="-258.32" font-family="Times,serif" font-size="14.00">ns2:en</text>
</g>
<!-- https://w3id.org/oseg/ont/okhmeta#DocumentationTag -->
<g id="node15" class="node">
<title>https://w3id.org/oseg/ont/okhmeta#DocumentationTag</title>
<ellipse fill="none" stroke="#e377c2" cx="246.75" cy="-745.76" rx="125.32" ry="16.03"/>
<text text-anchor="middle" x="246.75" y="-742.06" font-family="Times,serif" font-size="14.00">okhmeta:Documenta...</text>
</g>
<!-- https://w3id.org/oseg/ont/okhmeta#DocumentationTag&#45;&gt;https://w3id.org/oseg/ont/okhmeta#MetaTag -->
<g id="edge7" class="edge">
<title>https://w3id.org/oseg/ont/okhmeta#DocumentationTag&#45;&gt;https://w3id.org/oseg/ont/okhmeta#MetaTag</title>
<path fill="none" stroke="black" d="M255.88,-729.29C283.87,-678.78 368.62,-525.86 402.43,-464.85"/>
<polygon fill="black" stroke="black" points="405.62,-466.32 407.41,-455.88 399.5,-462.93 405.62,-466.32"/>
<text text-anchor="middle" x="406.16" y="-585.87" font-family="Times,serif" font-size="14.00">okhmeta:hasMetaTag</text>
</g>
<!-- https://w3id.org/oseg/ont/okhmeta#DocumentationTag&#45;&gt;https://w3id.org/oseg/ont/okhmeta#Tag -->
<g id="edge35" class="edge">
<title>https://w3id.org/oseg/ont/okhmeta#DocumentationTag&#45;&gt;https://w3id.org/oseg/ont/okhmeta#Tag</title>
<path fill="none" stroke="black" d="M258.46,-729.55C290.9,-684.66 382.1,-558.46 420.84,-504.86"/>
<polygon fill="black" stroke="black" points="423.78,-506.76 426.8,-496.61 418.1,-502.66 423.78,-506.76"/>
<text text-anchor="middle" x="335.15" y="-621.01" font-family="Times,serif" font-size="14.00">a</text>
</g>
<!-- https://w3id.org/oseg/ont/okhmeta#DevelopmentTag -->
<g id="node16" class="node">
<title>https://w3id.org/oseg/ont/okhmeta#DevelopmentTag</title>
<ellipse fill="none" stroke="#e377c2" cx="124.31" cy="-593.85" rx="124.4" ry="16.03"/>
<text text-anchor="middle" x="124.31" y="-590.15" font-family="Times,serif" font-size="14.00">okhmeta:Developme...</text>
</g>
<!-- https://w3id.org/oseg/ont/okhmeta#DevelopmentTag&#45;&gt;https://w3id.org/oseg/ont/okhmeta#MetaTag -->
<g id="edge31" class="edge">
<title>https://w3id.org/oseg/ont/okhmeta#DevelopmentTag&#45;&gt;https://w3id.org/oseg/ont/okhmeta#MetaTag</title>
<path fill="none" stroke="black" d="M154.21,-578.04C207.52,-549.86 318.89,-490.97 377.93,-459.76"/>
<polygon fill="black" stroke="black" points="379.73,-462.77 386.94,-455 376.46,-456.58 379.73,-462.77"/>
<text text-anchor="middle" x="189.07" y="-522.7" font-family="Times,serif" font-size="14.00">okhmeta:hasMetaTag</text>
</g>
<!-- https://w3id.org/oseg/ont/okhmeta#DevelopmentTag&#45;&gt;https://w3id.org/oseg/ont/okhmeta#Tag -->
<g id="edge12" class="edge">
<title>https://w3id.org/oseg/ont/okhmeta#DevelopmentTag&#45;&gt;https://w3id.org/oseg/ont/okhmeta#Tag</title>
<path fill="none" stroke="black" d="M166.7,-578.54C224.75,-557.56 328.74,-519.98 389.92,-497.87"/>
<polygon fill="black" stroke="black" points="391.14,-501.15 399.35,-494.46 388.76,-494.56 391.14,-501.15"/>
<text text-anchor="middle" x="273.81" y="-542" font-family="Times,serif" font-size="14.00">a</text>
</g>
<!-- https://w3id.org/oseg/ont/okhmeta#MakingTag -->
<g id="node17" class="node">
<title>https://w3id.org/oseg/ont/okhmeta#MakingTag</title>
<ellipse fill="none" stroke="#e377c2" cx="685.2" cy="-646.82" rx="113.69" ry="16.03"/>
<text text-anchor="middle" x="685.2" y="-643.12" font-family="Times,serif" font-size="14.00">okhmeta:MakingTag</text>
</g>
<!-- https://w3id.org/oseg/ont/okhmeta#MakingTag&#45;&gt;https://w3id.org/oseg/ont/okhmeta#MetaTag -->
<g id="edge8" class="edge">
<title>https://w3id.org/oseg/ont/okhmeta#MakingTag&#45;&gt;https://w3id.org/oseg/ont/okhmeta#MetaTag</title>
<path fill="none" stroke="black" d="M664.12,-630.54C616.46,-593.72 500.3,-504 445.77,-461.87"/>
<polygon fill="black" stroke="black" points="447.62,-458.87 437.56,-455.53 443.34,-464.41 447.62,-458.87"/>
<text text-anchor="middle" x="477.94" y="-550" font-family="Times,serif" font-size="14.00">okhmeta:hasMetaTag</text>
</g>
<!-- https://w3id.org/oseg/ont/okhmeta#MakingTag&#45;&gt;https://w3id.org/oseg/ont/okhmeta#Tag -->
<g id="edge36" class="edge">
<title>https://w3id.org/oseg/ont/okhmeta#MakingTag&#45;&gt;https://w3id.org/oseg/ont/okhmeta#Tag</title>
<path fill="none" stroke="black" d="M661.56,-630.85C616.98,-600.75 520.49,-535.58 470.33,-501.7"/>
<polygon fill="black" stroke="black" points="472.06,-498.65 461.81,-495.95 468.14,-504.45 472.06,-498.65"/>
<text text-anchor="middle" x="561.44" y="-570.08" font-family="Times,serif" font-size="14.00">a</text>
</g>
<!-- https://w3id.org/oseg/ont/okhmeta#DataTag -->
<g id="node18" class="node">
<title>https://w3id.org/oseg/ont/okhmeta#DataTag</title>
<ellipse fill="none" stroke="#e377c2" cx="599.65" cy="-698.85" rx="100.32" ry="16.03"/>
<text text-anchor="middle" x="599.65" y="-695.15" font-family="Times,serif" font-size="14.00">okhmeta:DataTag</text>
</g>
<!-- https://w3id.org/oseg/ont/okhmeta#DataTag&#45;&gt;https://w3id.org/oseg/ont/okhmeta#MetaTag -->
<g id="edge33" class="edge">
<title>https://w3id.org/oseg/ont/okhmeta#DataTag&#45;&gt;https://w3id.org/oseg/ont/okhmeta#MetaTag</title>
<path fill="none" stroke="black" d="M588.2,-682.62C557.12,-638.56 471.05,-516.53 433.95,-463.95"/>
<polygon fill="black" stroke="black" points="436.65,-461.71 428.03,-455.55 430.93,-465.74 436.65,-461.71"/>
<text text-anchor="middle" x="588.08" y="-577.08" font-family="Times,serif" font-size="14.00">okhmeta:hasMetaTag</text>
</g>
<!-- https://w3id.org/oseg/ont/okhmeta#DataTag&#45;&gt;https://w3id.org/oseg/ont/okhmeta#Tag -->
<g id="edge13" class="edge">
<title>https://w3id.org/oseg/ont/okhmeta#DataTag&#45;&gt;https://w3id.org/oseg/ont/okhmeta#Tag</title>
<path fill="none" stroke="black" d="M587.55,-682.42C559.5,-644.35 489.93,-549.93 456.75,-504.91"/>
<polygon fill="black" stroke="black" points="459.38,-502.57 450.63,-496.6 453.74,-506.72 459.38,-502.57"/>
<text text-anchor="middle" x="517.65" y="-597.47" font-family="Times,serif" font-size="14.00">a</text>
</g>
<!-- https://w3id.org/oseg/ont/okhmeta#PartsTag -->
<g id="node19" class="node">
<title>https://w3id.org/oseg/ont/okhmeta#PartsTag</title>
<ellipse fill="none" stroke="#e377c2" cx="149.62" cy="-367.3" rx="103.48" ry="16.03"/>
<text text-anchor="middle" x="149.62" y="-363.6" font-family="Times,serif" font-size="14.00">okhmeta:PartsTag</text>
</g>
<!-- https://w3id.org/oseg/ont/okhmeta#PartsTag&#45;&gt;https://w3id.org/oseg/ont/okhmeta#MetaTag -->
<g id="edge45" class="edge">
<title>https://w3id.org/oseg/ont/okhmeta#PartsTag&#45;&gt;https://w3id.org/oseg/ont/okhmeta#MetaTag</title>
<path fill="none" stroke="black" d="M201.73,-381.36C245.55,-393.18 308.3,-410.11 354.68,-422.62"/>
<polygon fill="black" stroke="black" points="354.04,-426.08 364.61,-425.3 355.86,-419.32 354.04,-426.08"/>
<text text-anchor="middle" x="201.2" y="-390.79" font-family="Times,serif" font-size="14.00">okhmeta:hasMetaTag</text>
</g>
<!-- https://w3id.org/oseg/ont/okhmeta#PartsTag&#45;&gt;https://w3id.org/oseg/ont/okhmeta#Tag -->
<g id="edge14" class="edge">
<title>https://w3id.org/oseg/ont/okhmeta#PartsTag&#45;&gt;https://w3id.org/oseg/ont/okhmeta#Tag</title>
<path fill="none" stroke="black" d="M188.3,-382.42C241.22,-403.11 336.06,-440.19 392.57,-462.28"/>
<polygon fill="black" stroke="black" points="391.39,-465.58 401.98,-465.96 393.94,-459.06 391.39,-465.58"/>
<text text-anchor="middle" x="285.93" y="-426.15" font-family="Times,serif" font-size="14.00">a</text>
</g>
<!-- https://w3id.org/oseg/ont/okhmeta -->
<g id="node20" class="node">
<title>https://w3id.org/oseg/ont/okhmeta</title>
<ellipse fill="none" stroke="#e377c2" cx="1077.28" cy="-160.63" rx="76.24" ry="16.03"/>
<text text-anchor="middle" x="1077.28" y="-156.93" font-family="Times,serif" font-size="14.00">ns3:okhmeta</text>
</g>
<!-- https://w3id.org/oseg/ont/okhmeta&#45;&gt;http://spdx.org/rdf/terms#File -->
<g id="edge19" class="edge">
<title>https://w3id.org/oseg/ont/okhmeta&#45;&gt;http://spdx.org/rdf/terms#File</title>
<path fill="none" stroke="black" d="M1083.1,-177.14C1095.45,-212.19 1124.37,-294.25 1139.23,-336.42"/>
<polygon fill="black" stroke="black" points="1135.98,-337.72 1142.6,-345.99 1142.58,-335.4 1135.98,-337.72"/>
<text text-anchor="middle" x="1106.67" y="-260.58" font-family="Times,serif" font-size="14.00">a</text>
</g>
<!-- https://w3id.org/oseg/ont/okhmeta&#45;&gt;https://w3id.org/oseg/ont/oseg&#45;profiles#Iopa -->
<g id="edge3" class="edge">
<title>https://w3id.org/oseg/ont/okhmeta&#45;&gt;https://w3id.org/oseg/ont/oseg&#45;profiles#Iopa</title>
<path fill="none" stroke="black" d="M1099.44,-144.99C1132.62,-121.56 1195.34,-77.27 1233.04,-50.65"/>
<polygon fill="black" stroke="black" points="1235.44,-53.24 1241.59,-44.61 1231.4,-47.52 1235.44,-53.24"/>
<text text-anchor="middle" x="1100.74" y="-86.62" font-family="Times,serif" font-size="14.00">dcterms:publisher</text>
</g>
<!-- https://w3id.org/oseg/ont/okhmeta&#45;&gt;https://w3id.org/oseg/ont/1.1.0/okh&#45;meta -->
<g id="edge32" class="edge">
<title>https://w3id.org/oseg/ont/okhmeta&#45;&gt;https://w3id.org/oseg/ont/1.1.0/okh&#45;meta</title>
<path fill="none" stroke="black" d="M1086.81,-144.49C1086.86,-144.4 1086.91,-144.31 1086.96,-144.23"/>
<polygon fill="black" stroke="black" points="1089.7,-146.47 1091.76,-136.08 1083.67,-142.91 1089.7,-146.47"/>
<text text-anchor="middle" x="1035.38" y="-133.16" font-family="Times,serif" font-size="14.00">owl:versionIRI</text>
</g>
<!-- https://w3id.org/oseg/ont/okhmeta&#45;&gt;http://id.loc.gov/vocabulary/iso639&#45;1/en -->
<g id="edge10" class="edge">
<title>https://w3id.org/oseg/ont/okhmeta&#45;&gt;http://id.loc.gov/vocabulary/iso639&#45;1/en</title>
<path fill="none" stroke="black" d="M1052.45,-176.25C1024.15,-194.04 977.88,-223.15 947.2,-242.45"/>
<polygon fill="black" stroke="black" points="945.2,-239.57 938.6,-247.85 948.93,-245.49 945.2,-239.57"/>
<text text-anchor="middle" x="935.32" y="-213.15" font-family="Times,serif" font-size="14.00">dcterms:language</text>
</g>
<!-- https://w3id.org/oseg/ont/oseg&#45;profiles#robinVobruba -->
<g id="node22" class="node">
<title>https://w3id.org/oseg/ont/oseg&#45;profiles#robinVobruba</title>
<ellipse fill="none" stroke="#e377c2" cx="1121.01" cy="-203.45" rx="113.69" ry="16.03"/>
<text text-anchor="middle" x="1121.01" y="-199.75" font-family="Times,serif" font-size="14.00">osegprof:robinVob...</text>
</g>
<!-- https://w3id.org/oseg/ont/okhmeta&#45;&gt;https://w3id.org/oseg/ont/oseg&#45;profiles#robinVobruba -->
<g id="edge26" class="edge">
<title>https://w3id.org/oseg/ont/okhmeta&#45;&gt;https://w3id.org/oseg/ont/oseg&#45;profiles#robinVobruba</title>
<path fill="none" stroke="black" d="M1085.18,-176.93C1086.09,-178.02 1087.06,-179.13 1088.06,-180.24"/>
<polygon fill="black" stroke="black" points="1085.66,-182.8 1095.13,-187.55 1090.69,-177.93 1085.66,-182.8"/>
<text text-anchor="middle" x="1029.12" y="-182.39" font-family="Times,serif" font-size="14.00">dcterms:creator</text>
</g>
<!-- https://w3id.org/oseg/ont/okhmeta&#45;&gt;https://w3id.org/oseg/ont/oseg&#45;profiles#robinVobruba -->
<g id="edge44" class="edge">
<title>https://w3id.org/oseg/ont/okhmeta&#45;&gt;https://w3id.org/oseg/ont/oseg&#45;profiles#robinVobruba</title>
<path fill="none" stroke="black" d="M1102.84,-176.22C1104.01,-177.34 1105.16,-178.48 1106.28,-179.63"/>
<polygon fill="black" stroke="black" points="1103.87,-182.18 1113.18,-187.23 1109.05,-177.47 1103.87,-182.18"/>
<text text-anchor="middle" x="1160.06" y="-181.73" font-family="Times,serif" font-size="14.00">schema:creator</text>
</g>
<!-- https://spdx.org/licenses/GPL&#45;3.0&#45;or&#45;later -->
<g id="node27" class="node">
<title>https://spdx.org/licenses/GPL&#45;3.0&#45;or&#45;later</title>
<ellipse fill="none" stroke="#e377c2" cx="868.92" cy="-15.94" rx="108.79" ry="16.03"/>
<text text-anchor="middle" x="868.92" y="-12.24" font-family="Times,serif" font-size="14.00">spdxl:GPL&#45;3.0&#45;or&#45;...</text>
</g>
<!-- https://w3id.org/oseg/ont/okhmeta&#45;&gt;https://spdx.org/licenses/GPL&#45;3.0&#45;or&#45;later -->
<g id="edge23" class="edge">
<title>https://w3id.org/oseg/ont/okhmeta&#45;&gt;https://spdx.org/licenses/GPL&#45;3.0&#45;or&#45;later</title>
<path fill="none" stroke="black" d="M1054.59,-144.87C1017.19,-118.9 942.55,-67.06 900.18,-37.64"/>
<polygon fill="black" stroke="black" points="902.12,-34.73 891.91,-31.9 898.12,-40.48 902.12,-34.73"/>
<text text-anchor="middle" x="898.38" y="-95.06" font-family="Times,serif" font-size="14.00">spdxt:licenseDeclared</text>
</g>
<!-- https://w3id.org/oseg/ont/okhmeta#TransportationTag -->
<g id="node21" class="node">
<title>https://w3id.org/oseg/ont/okhmeta#TransportationTag</title>
<ellipse fill="none" stroke="#e377c2" cx="748.04" cy="-441.61" rx="118.17" ry="16.03"/>
<text text-anchor="middle" x="748.04" y="-437.91" font-family="Times,serif" font-size="14.00">okhmeta:Transport...</text>
</g>
<!-- https://w3id.org/oseg/ont/okhmeta#TransportationTag&#45;&gt;https://w3id.org/oseg/ont/okhmeta#MetaTag -->
<g id="edge6" class="edge">
<title>https://w3id.org/oseg/ont/okhmeta#TransportationTag&#45;&gt;https://w3id.org/oseg/ont/okhmeta#MetaTag</title>
<path fill="none" stroke="black" d="M629.78,-440.79C597.15,-440.57 561.84,-440.32 529.52,-440.1"/>
<polygon fill="black" stroke="black" points="529.16,-436.6 519.14,-440.03 529.11,-443.6 529.16,-436.6"/>
<text text-anchor="middle" x="541.15" y="-429.25" font-family="Times,serif" font-size="14.00">okhmeta:hasMetaTag</text>
</g>
<!-- https://w3id.org/oseg/ont/okhmeta#TransportationTag&#45;&gt;https://w3id.org/oseg/ont/okhmeta#Tag -->
<g id="edge18" class="edge">
<title>https://w3id.org/oseg/ont/okhmeta#TransportationTag&#45;&gt;https://w3id.org/oseg/ont/okhmeta#Tag</title>
<path fill="none" stroke="black" d="M660.19,-452.58C614.28,-458.32 558.63,-465.28 514.59,-470.78"/>
<polygon fill="black" stroke="black" points="514,-467.32 504.51,-472.04 514.87,-474.27 514,-467.32"/>
<text text-anchor="middle" x="591.89" y="-465.48" font-family="Times,serif" font-size="14.00">a</text>
</g>
<!-- https://w3id.org/oseg/ont/okhmeta#ExtendedInfoTag -->
<g id="node23" class="node">
<title>https://w3id.org/oseg/ont/okhmeta#ExtendedInfoTag</title>
<ellipse fill="none" stroke="#e377c2" cx="723.92" cy="-328.99" rx="120.42" ry="16.03"/>
<text text-anchor="middle" x="723.92" y="-325.29" font-family="Times,serif" font-size="14.00">okhmeta:ExtendedI...</text>
</g>
<!-- https://w3id.org/oseg/ont/okhmeta#ExtendedInfoTag&#45;&gt;https://w3id.org/oseg/ont/okhmeta#MetaTag -->
<g id="edge11" class="edge">
<title>https://w3id.org/oseg/ont/okhmeta#ExtendedInfoTag&#45;&gt;https://w3id.org/oseg/ont/okhmeta#MetaTag</title>
<path fill="none" stroke="black" d="M681.51,-344.21C625.66,-364.26 527.57,-399.48 467.7,-420.97"/>
<polygon fill="black" stroke="black" points="466.3,-417.76 458.07,-424.43 468.66,-424.35 466.3,-417.76"/>
<text text-anchor="middle" x="651.6" y="-386.39" font-family="Times,serif" font-size="14.00">okhmeta:hasMetaTag</text>
</g>
<!-- https://w3id.org/oseg/ont/okhmeta#ExtendedInfoTag&#45;&gt;https://w3id.org/oseg/ont/okhmeta#Tag -->
<g id="edge20" class="edge">
<title>https://w3id.org/oseg/ont/okhmeta#ExtendedInfoTag&#45;&gt;https://w3id.org/oseg/ont/okhmeta#Tag</title>
<path fill="none" stroke="black" d="M694.19,-344.75C642,-372.42 534,-429.69 476.52,-460.17"/>
<polygon fill="black" stroke="black" points="474.61,-457.22 467.41,-465 477.89,-463.41 474.61,-457.22"/>
<text text-anchor="middle" x="580.86" y="-406.26" font-family="Times,serif" font-size="14.00">a</text>
</g>
<!-- https://w3id.org/oseg/ont/okhmeta#QualityTag -->
<g id="node24" class="node">
<title>https://w3id.org/oseg/ont/okhmeta#QualityTag</title>
<ellipse fill="none" stroke="#e377c2" cx="117.39" cy="-477.08" rx="113.27" ry="16.03"/>
<text text-anchor="middle" x="117.39" y="-473.38" font-family="Times,serif" font-size="14.00">okhmeta:QualityTag</text>
</g>
<!-- https://w3id.org/oseg/ont/okhmeta#QualityTag&#45;&gt;https://w3id.org/oseg/ont/okhmeta#MetaTag -->
<g id="edge42" class="edge">
<title>https://w3id.org/oseg/ont/okhmeta#QualityTag&#45;&gt;https://w3id.org/oseg/ont/okhmeta#MetaTag</title>
<path fill="none" stroke="black" d="M202.73,-466.31C241.26,-461.45 286.81,-455.7 325.94,-450.76"/>
<polygon fill="black" stroke="black" points="326.79,-454.18 336.27,-449.46 325.91,-447.24 326.79,-454.18"/>
<text text-anchor="middle" x="187.34" y="-447.33" font-family="Times,serif" font-size="14.00">okhmeta:hasMetaTag</text>
</g>
<!-- https://w3id.org/oseg/ont/okhmeta#QualityTag&#45;&gt;https://w3id.org/oseg/ont/okhmeta#Tag -->
<g id="edge21" class="edge">
<title>https://w3id.org/oseg/ont/okhmeta#QualityTag&#45;&gt;https://w3id.org/oseg/ont/okhmeta#Tag</title>
<path fill="none" stroke="black" d="M230.64,-478.2C270.43,-478.6 314.48,-479.04 351.75,-479.41"/>
<polygon fill="black" stroke="black" points="352.04,-482.91 362.08,-479.51 352.11,-475.91 352.04,-482.91"/>
<text text-anchor="middle" x="286.7" y="-482.61" font-family="Times,serif" font-size="14.00">a</text>
</g>
<!-- https://w3id.org/oseg/ont/okhmeta#LegalTag -->
<g id="node25" class="node">
<title>https://w3id.org/oseg/ont/okhmeta#LegalTag</title>
<ellipse fill="none" stroke="#e377c2" cx="214.48" cy="-659.27" rx="103.89" ry="16.03"/>
<text text-anchor="middle" x="214.48" y="-655.57" font-family="Times,serif" font-size="14.00">okhmeta:LegalTag</text>
</g>
<!-- https://w3id.org/oseg/ont/okhmeta#LegalTag&#45;&gt;https://w3id.org/oseg/ont/okhmeta#MetaTag -->
<g id="edge43" class="edge">
<title>https://w3id.org/oseg/ont/okhmeta#LegalTag&#45;&gt;https://w3id.org/oseg/ont/okhmeta#MetaTag</title>
<path fill="none" stroke="black" d="M229.34,-643.1C264.6,-604.73 353.44,-508.04 394.79,-463.04"/>
<polygon fill="black" stroke="black" points="397.51,-465.25 401.7,-455.52 392.36,-460.52 397.51,-465.25"/>
<text text-anchor="middle" x="235.06" y="-556.87" font-family="Times,serif" font-size="14.00">okhmeta:hasMetaTag</text>
</g>
<!-- https://w3id.org/oseg/ont/okhmeta#LegalTag&#45;&gt;https://w3id.org/oseg/ont/okhmeta#Tag -->
<g id="edge22" class="edge">
<title>https://w3id.org/oseg/ont/okhmeta#LegalTag&#45;&gt;https://w3id.org/oseg/ont/okhmeta#Tag</title>
<path fill="none" stroke="black" d="M234.77,-643.07C275.04,-610.91 365.13,-538.95 410.85,-502.44"/>
<polygon fill="black" stroke="black" points="413.22,-505.03 418.85,-496.05 408.85,-499.56 413.22,-505.03"/>
<text text-anchor="middle" x="318.31" y="-576.55" font-family="Times,serif" font-size="14.00">a</text>
</g>
<!-- https://w3id.org/oseg/ont/okhmeta#PhysicalTag -->
<g id="node26" class="node">
<title>https://w3id.org/oseg/ont/okhmeta#PhysicalTag</title>
<ellipse fill="none" stroke="#e377c2" cx="393.36" cy="-795.81" rx="118.17" ry="16.03"/>
<text text-anchor="middle" x="393.36" y="-792.11" font-family="Times,serif" font-size="14.00">okhmeta:PhysicalTag</text>
</g>
<!-- https://w3id.org/oseg/ont/okhmeta#PhysicalTag&#45;&gt;https://w3id.org/oseg/ont/okhmeta#MetaTag -->
<g id="edge37" class="edge">
<title>https://w3id.org/oseg/ont/okhmeta#PhysicalTag&#45;&gt;https://w3id.org/oseg/ont/okhmeta#MetaTag</title>
<path fill="none" stroke="black" d="M394.45,-779.09C398.16,-722.12 410.33,-535.25 414.86,-465.71"/>
<polygon fill="black" stroke="black" points="418.36,-465.8 415.52,-455.59 411.38,-465.34 418.36,-465.8"/>
<text text-anchor="middle" x="327.66" y="-626.2" font-family="Times,serif" font-size="14.00">okhmeta:hasMetaTag</text>
</g>
<!-- https://w3id.org/oseg/ont/okhmeta#PhysicalTag&#45;&gt;https://w3id.org/oseg/ont/okhmeta#Tag -->
<g id="edge46" class="edge">
<title>https://w3id.org/oseg/ont/okhmeta#PhysicalTag&#45;&gt;https://w3id.org/oseg/ont/okhmeta#Tag</title>
<path fill="none" stroke="black" d="M395.73,-779.29C403.12,-727.74 425.8,-569.57 434.83,-506.57"/>
<polygon fill="black" stroke="black" points="438.3,-507.03 436.26,-496.63 431.37,-506.03 438.3,-507.03"/>
<text text-anchor="middle" x="410.78" y="-646.73" font-family="Times,serif" font-size="14.00">a</text>
</g>
<!-- https://w3id.org/oseg/ont/okhmeta#IdentificationTag -->
<g id="node28" class="node">
<title>https://w3id.org/oseg/ont/okhmeta#IdentificationTag</title>
<ellipse fill="none" stroke="#e377c2" cx="547.77" cy="-174.86" rx="109.7" ry="16.03"/>
<text text-anchor="middle" x="547.77" y="-171.16" font-family="Times,serif" font-size="14.00">okhmeta:Identific...</text>
</g>
<!-- https://w3id.org/oseg/ont/okhmeta#IdentificationTag&#45;&gt;https://w3id.org/oseg/ont/okhmeta#MetaTag -->
<g id="edge15" class="edge">
<title>https://w3id.org/oseg/ont/okhmeta#IdentificationTag&#45;&gt;https://w3id.org/oseg/ont/okhmeta#MetaTag</title>
<path fill="none" stroke="black" d="M539.57,-191.4C517.39,-236.11 456.12,-359.62 429.36,-413.56"/>
<polygon fill="black" stroke="black" points="426.09,-412.27 424.79,-422.79 432.36,-415.38 426.09,-412.27"/>
<text text-anchor="middle" x="561.46" y="-291.28" font-family="Times,serif" font-size="14.00">okhmeta:hasMetaTag</text>
</g>
<!-- https://w3id.org/oseg/ont/okhmeta#IdentificationTag&#45;&gt;https://w3id.org/oseg/ont/okhmeta#Tag -->
<g id="edge25" class="edge">
<title>https://w3id.org/oseg/ont/okhmeta#IdentificationTag&#45;&gt;https://w3id.org/oseg/ont/okhmeta#Tag</title>
<path fill="none" stroke="black" d="M541.9,-191.28C523.98,-241.41 469.88,-392.77 447.97,-454.07"/>
<polygon fill="black" stroke="black" points="444.57,-453.18 444.5,-463.77 451.16,-455.53 444.57,-453.18"/>
<text text-anchor="middle" x="499.44" y="-326.48" font-family="Times,serif" font-size="14.00">a</text>
</g>
</g>
</svg>
