<?xml version="1.0" encoding="UTF-8" standalone="no"?>
<!DOCTYPE svg PUBLIC "-//W3C//DTD SVG 1.1//EN"
 "http://www.w3.org/Graphics/SVG/1.1/DTD/svg11.dtd">
<!-- Generated by graphviz version 2.43.0 (0)
 -->
<!-- Title: G Pages: 1 -->
<svg width="1137pt" height="1956pt"
 viewBox="0.00 0.00 1137.00 1956.00" xmlns="http://www.w3.org/2000/svg" xmlns:xlink="http://www.w3.org/1999/xlink">
<g id="graph0" class="graph" transform="scale(1 1) rotate(0) translate(4 1952)">
<title>G</title>
<polygon fill="white" stroke="transparent" points="-4,4 -4,-1952 1133,-1952 1133,4 -4,4"/>
<!-- http://w3id.org/oseg/ont/ods#Dataset -->
<g id="node1" class="node">
<title>http://w3id.org/oseg/ont/ods#Dataset</title>
<ellipse fill="none" stroke="#1f77b4" cx="729.1" cy="-1879.43" rx="71.34" ry="16.03"/>
<text text-anchor="middle" x="729.1" y="-1875.73" font-family="Times,serif" font-size="14.00">ods:Dataset</text>
</g>
<!-- http://schema.org/DefinedTerm -->
<g id="node2" class="node">
<title>http://schema.org/DefinedTerm</title>
<ellipse fill="none" stroke="#1f77b4" cx="573.42" cy="-406.96" rx="118.17" ry="16.03"/>
<text text-anchor="middle" x="573.42" y="-403.26" font-family="Times,serif" font-size="14.00">schema:DefinedTerm</text>
</g>
<!-- http://spdx.org/rdf/terms#SpdxItem -->
<g id="node3" class="node">
<title>http://spdx.org/rdf/terms#SpdxItem</title>
<ellipse fill="none" stroke="#1f77b4" cx="665.36" cy="-1931.51" rx="87.86" ry="16.03"/>
<text text-anchor="middle" x="665.36" y="-1927.81" font-family="Times,serif" font-size="14.00">spdx:SpdxItem</text>
</g>
<!-- http://schema.org/DefinedTermSet -->
<g id="node4" class="node">
<title>http://schema.org/DefinedTermSet</title>
<ellipse fill="none" stroke="#1f77b4" cx="541.58" cy="-1494.36" rx="116.85" ry="16.03"/>
<text text-anchor="middle" x="541.58" y="-1490.66" font-family="Times,serif" font-size="14.00">schema:DefinedTer...</text>
</g>
<!-- http://w3id.org/oseg/ont/oseg&#45;profiles#robinVobruba -->
<g id="node5" class="node">
<title>http://w3id.org/oseg/ont/oseg&#45;profiles#robinVobruba</title>
<ellipse fill="none" stroke="#e377c2" cx="922.44" cy="-1910.93" rx="113.69" ry="16.03"/>
<text text-anchor="middle" x="922.44" y="-1907.23" font-family="Times,serif" font-size="14.00">osegprof:robinVob...</text>
</g>
<!-- http://w3id.org/oseg/ont/okhimg -->
<g id="node6" class="node">
<title>http://w3id.org/oseg/ont/okhimg</title>
<ellipse fill="none" stroke="#e377c2" cx="707.71" cy="-1644.54" rx="70.01" ry="16.03"/>
<text text-anchor="middle" x="707.71" y="-1640.84" font-family="Times,serif" font-size="14.00">ns1:okhimg</text>
</g>
<!-- http://w3id.org/oseg/ont/okhimg&#45;&gt;http://w3id.org/oseg/ont/ods#Dataset -->
<g id="edge39" class="edge">
<title>http://w3id.org/oseg/ont/okhimg&#45;&gt;http://w3id.org/oseg/ont/ods#Dataset</title>
<path fill="none" stroke="black" d="M709.22,-1661.06C712.87,-1701.16 722.22,-1803.92 726.67,-1852.82"/>
<polygon fill="black" stroke="black" points="723.2,-1853.29 727.59,-1862.93 730.17,-1852.66 723.2,-1853.29"/>
<text text-anchor="middle" x="713.45" y="-1760.74" font-family="Times,serif" font-size="14.00">a</text>
</g>
<!-- http://w3id.org/oseg/ont/okhimg&#45;&gt;http://spdx.org/rdf/terms#SpdxItem -->
<g id="edge2" class="edge">
<title>http://w3id.org/oseg/ont/okhimg&#45;&gt;http://spdx.org/rdf/terms#SpdxItem</title>
<path fill="none" stroke="black" d="M705.25,-1661.21C698.2,-1708.97 677.89,-1846.62 669.28,-1904.92"/>
<polygon fill="black" stroke="black" points="665.77,-1904.75 667.77,-1915.15 672.69,-1905.77 665.77,-1904.75"/>
<text text-anchor="middle" x="682.77" y="-1786.86" font-family="Times,serif" font-size="14.00">a</text>
</g>
<!-- http://w3id.org/oseg/ont/okhimg&#45;&gt;http://w3id.org/oseg/ont/oseg&#45;profiles#robinVobruba -->
<g id="edge1" class="edge">
<title>http://w3id.org/oseg/ont/okhimg&#45;&gt;http://w3id.org/oseg/ont/oseg&#45;profiles#robinVobruba</title>
<path fill="none" stroke="black" d="M716.72,-1660.91C747.84,-1706.37 850.13,-1833.79 897.78,-1887.1"/>
<polygon fill="black" stroke="black" points="895.36,-1889.64 904.67,-1894.7 900.55,-1884.94 895.36,-1889.64"/>
<text text-anchor="middle" x="749.75" y="-1777.81" font-family="Times,serif" font-size="14.00">dcterms:creator</text>
</g>
<!-- http://w3id.org/oseg/ont/okhimg&#45;&gt;http://w3id.org/oseg/ont/oseg&#45;profiles#robinVobruba -->
<g id="edge3" class="edge">
<title>http://w3id.org/oseg/ont/okhimg&#45;&gt;http://w3id.org/oseg/ont/oseg&#45;profiles#robinVobruba</title>
<path fill="none" stroke="black" d="M725.3,-1660.57C766.69,-1705.47 868.95,-1832.17 907.54,-1886.16"/>
<polygon fill="black" stroke="black" points="904.76,-1888.3 913.37,-1894.47 910.49,-1884.28 904.76,-1888.3"/>
<text text-anchor="middle" x="844.17" y="-1762.17" font-family="Times,serif" font-size="14.00">schema:creator</text>
</g>
<!-- http://w3id.org/oseg/ont/okhimg#tags -->
<g id="node10" class="node">
<title>http://w3id.org/oseg/ont/okhimg#tags</title>
<ellipse fill="none" stroke="#e377c2" cx="592.77" cy="-1285.47" rx="73.58" ry="16.03"/>
<text text-anchor="middle" x="592.77" y="-1281.77" font-family="Times,serif" font-size="14.00">okhimg:tags</text>
</g>
<!-- http://w3id.org/oseg/ont/okhimg&#45;&gt;http://w3id.org/oseg/ont/okhimg#tags -->
<g id="edge8" class="edge">
<title>http://w3id.org/oseg/ont/okhimg&#45;&gt;http://w3id.org/oseg/ont/okhimg#tags</title>
<path fill="none" stroke="black" d="M702.48,-1628.18C684.26,-1571.28 623.58,-1381.71 601.18,-1311.73"/>
<polygon fill="black" stroke="black" points="604.42,-1310.38 598.04,-1301.93 597.76,-1312.52 604.42,-1310.38"/>
<text text-anchor="middle" x="586.83" y="-1458.75" font-family="Times,serif" font-size="14.00">void:rootResource</text>
</g>
<!-- http://spdx.org/licenses/AGPL&#45;3.0&#45;or&#45;later -->
<g id="node17" class="node">
<title>http://spdx.org/licenses/AGPL&#45;3.0&#45;or&#45;later</title>
<ellipse fill="none" stroke="#e377c2" cx="1017.24" cy="-1761.32" rx="111.95" ry="16.03"/>
<text text-anchor="middle" x="1017.24" y="-1757.62" font-family="Times,serif" font-size="14.00">spdxl:AGPL&#45;3.0&#45;or...</text>
</g>
<!-- http://w3id.org/oseg/ont/okhimg&#45;&gt;http://spdx.org/licenses/AGPL&#45;3.0&#45;or&#45;later -->
<g id="edge16" class="edge">
<title>http://w3id.org/oseg/ont/okhimg&#45;&gt;http://spdx.org/licenses/AGPL&#45;3.0&#45;or&#45;later</title>
<path fill="none" stroke="black" d="M744.44,-1658.4C799.77,-1679.27 904.66,-1718.84 967.02,-1742.37"/>
<polygon fill="black" stroke="black" points="966.06,-1745.75 976.65,-1746.01 968.53,-1739.2 966.06,-1745.75"/>
<text text-anchor="middle" x="779.73" y="-1689.18" font-family="Times,serif" font-size="14.00">spdx:licenseDeclared</text>
</g>
<!-- http://w3id.org/oseg/ont/okhimg#slots -->
<g id="node21" class="node">
<title>http://w3id.org/oseg/ont/okhimg#slots</title>
<ellipse fill="none" stroke="#e377c2" cx="750.03" cy="-1310.05" rx="75.82" ry="16.03"/>
<text text-anchor="middle" x="750.03" y="-1306.35" font-family="Times,serif" font-size="14.00">okhimg:slots</text>
</g>
<!-- http://w3id.org/oseg/ont/okhimg&#45;&gt;http://w3id.org/oseg/ont/okhimg#slots -->
<g id="edge45" class="edge">
<title>http://w3id.org/oseg/ont/okhimg&#45;&gt;http://w3id.org/oseg/ont/okhimg#slots</title>
<path fill="none" stroke="black" d="M709.81,-1627.96C716.65,-1573.89 738.35,-1402.42 746.7,-1336.36"/>
<polygon fill="black" stroke="black" points="750.19,-1336.7 747.97,-1326.34 743.24,-1335.82 750.19,-1336.7"/>
<text text-anchor="middle" x="793.26" y="-1485.96" font-family="Times,serif" font-size="14.00">void:rootResource</text>
</g>
<!-- http://w3id.org/oseg/ont/0.1.0/okhimg -->
<g id="node35" class="node">
<title>http://w3id.org/oseg/ont/0.1.0/okhimg</title>
<ellipse fill="none" stroke="#e377c2" cx="510.27" cy="-1788.28" rx="70.01" ry="16.03"/>
<text text-anchor="middle" x="510.27" y="-1784.58" font-family="Times,serif" font-size="14.00">ns2:okhimg</text>
</g>
<!-- http://w3id.org/oseg/ont/okhimg&#45;&gt;http://w3id.org/oseg/ont/0.1.0/okhimg -->
<g id="edge38" class="edge">
<title>http://w3id.org/oseg/ont/okhimg&#45;&gt;http://w3id.org/oseg/ont/0.1.0/okhimg</title>
<path fill="none" stroke="black" d="M686.21,-1660.2C650.82,-1685.96 580.26,-1737.33 540.08,-1766.58"/>
<polygon fill="black" stroke="black" points="537.77,-1763.93 531.75,-1772.64 541.89,-1769.59 537.77,-1763.93"/>
<text text-anchor="middle" x="561.64" y="-1717.19" font-family="Times,serif" font-size="14.00">owl:versionIRI</text>
</g>
<!-- http://id.loc.gov/vocabulary/iso639&#45;1/en -->
<g id="node36" class="node">
<title>http://id.loc.gov/vocabulary/iso639&#45;1/en</title>
<ellipse fill="none" stroke="#e377c2" cx="852.16" cy="-1790.18" rx="45.01" ry="16.03"/>
<text text-anchor="middle" x="852.16" y="-1786.48" font-family="Times,serif" font-size="14.00">ns3:en</text>
</g>
<!-- http://w3id.org/oseg/ont/okhimg&#45;&gt;http://id.loc.gov/vocabulary/iso639&#45;1/en -->
<g id="edge41" class="edge">
<title>http://w3id.org/oseg/ont/okhimg&#45;&gt;http://id.loc.gov/vocabulary/iso639&#45;1/en</title>
<path fill="none" stroke="black" d="M723.45,-1660.41C749.09,-1686.26 799.98,-1737.57 829.51,-1767.34"/>
<polygon fill="black" stroke="black" points="827.36,-1770.14 836.89,-1774.78 832.33,-1765.21 827.36,-1770.14"/>
<text text-anchor="middle" x="711.98" y="-1717.68" font-family="Times,serif" font-size="14.00">dcterms:language</text>
</g>
<!-- http://w3id.org/oseg/ont/oseg&#45;profiles#Iopa -->
<g id="node41" class="node">
<title>http://w3id.org/oseg/ont/oseg&#45;profiles#Iopa</title>
<ellipse fill="none" stroke="#e377c2" cx="568.91" cy="-1875.91" rx="80.72" ry="16.03"/>
<text text-anchor="middle" x="568.91" y="-1872.21" font-family="Times,serif" font-size="14.00">osegprof:Iopa</text>
</g>
<!-- http://w3id.org/oseg/ont/okhimg&#45;&gt;http://w3id.org/oseg/ont/oseg&#45;profiles#Iopa -->
<g id="edge47" class="edge">
<title>http://w3id.org/oseg/ont/okhimg&#45;&gt;http://w3id.org/oseg/ont/oseg&#45;profiles#Iopa</title>
<path fill="none" stroke="black" d="M697.95,-1660.81C674.06,-1700.64 612.51,-1803.24 583.91,-1850.9"/>
<polygon fill="black" stroke="black" points="580.8,-1849.28 578.66,-1859.66 586.8,-1852.89 580.8,-1849.28"/>
<text text-anchor="middle" x="575.43" y="-1759.65" font-family="Times,serif" font-size="14.00">dcterms:publisher</text>
</g>
<!-- http://w3id.org/oseg/ont/okhimg#slotIconMainBw -->
<g id="node7" class="node">
<title>http://w3id.org/oseg/ont/okhimg#slotIconMainBw</title>
<ellipse fill="none" stroke="#e377c2" cx="840.6" cy="-685.7" rx="117.26" ry="16.03"/>
<text text-anchor="middle" x="840.6" y="-682" font-family="Times,serif" font-size="14.00">okhimg:slotIconMa...</text>
</g>
<!-- http://w3id.org/oseg/ont/okhimg#slotIconMainBw&#45;&gt;http://schema.org/DefinedTerm -->
<g id="edge4" class="edge">
<title>http://w3id.org/oseg/ont/okhimg#slotIconMainBw&#45;&gt;http://schema.org/DefinedTerm</title>
<path fill="none" stroke="black" d="M825.08,-669.51C779.98,-622.46 648.8,-485.59 595.91,-430.42"/>
<polygon fill="black" stroke="black" points="598.43,-427.99 588.98,-423.2 593.38,-432.84 598.43,-427.99"/>
<text text-anchor="middle" x="706" y="-553.76" font-family="Times,serif" font-size="14.00">a</text>
</g>
<!-- http://w3id.org/oseg/ont/okhimg#slotIconMain -->
<g id="node23" class="node">
<title>http://w3id.org/oseg/ont/okhimg#slotIconMain</title>
<ellipse fill="none" stroke="#e377c2" cx="752.46" cy="-886.42" rx="117.26" ry="16.03"/>
<text text-anchor="middle" x="752.46" y="-882.72" font-family="Times,serif" font-size="14.00">okhimg:slotIconMain</text>
</g>
<!-- http://w3id.org/oseg/ont/okhimg#slotIconMainBw&#45;&gt;http://w3id.org/oseg/ont/okhimg#slotIconMain -->
<g id="edge25" class="edge">
<title>http://w3id.org/oseg/ont/okhimg#slotIconMainBw&#45;&gt;http://w3id.org/oseg/ont/okhimg#slotIconMain</title>
<path fill="none" stroke="black" d="M829.08,-701.88C810.11,-736.59 774.05,-818.24 758.9,-860.35"/>
<polygon fill="black" stroke="black" points="755.56,-859.31 755.6,-869.91 762.17,-861.6 755.56,-859.31"/>
<text text-anchor="middle" x="766.49" y="-784.92" font-family="Times,serif" font-size="14.00">seeAlso</text>
</g>
<!-- http://w3id.org/oseg/ont/okhimg#slotLogo -->
<g id="node8" class="node">
<title>http://w3id.org/oseg/ont/okhimg#slotLogo</title>
<ellipse fill="none" stroke="#e377c2" cx="425.7" cy="-686.3" rx="94.51" ry="16.03"/>
<text text-anchor="middle" x="425.7" y="-682.6" font-family="Times,serif" font-size="14.00">okhimg:slotLogo</text>
</g>
<!-- http://w3id.org/oseg/ont/okhimg#slotLogo&#45;&gt;http://schema.org/DefinedTerm -->
<g id="edge48" class="edge">
<title>http://w3id.org/oseg/ont/okhimg#slotLogo&#45;&gt;http://schema.org/DefinedTerm</title>
<path fill="none" stroke="black" d="M434.28,-670.08C458.96,-623.41 530.27,-488.56 560.08,-432.19"/>
<polygon fill="black" stroke="black" points="563.24,-433.71 564.82,-423.23 557.05,-430.43 563.24,-433.71"/>
<text text-anchor="middle" x="492.68" y="-554.93" font-family="Times,serif" font-size="14.00">a</text>
</g>
<!-- http://w3id.org/oseg/ont/okhimg#slotLogoBw -->
<g id="node11" class="node">
<title>http://w3id.org/oseg/ont/okhimg#slotLogoBw</title>
<ellipse fill="none" stroke="#e377c2" cx="622.09" cy="-726.83" rx="111.03" ry="16.03"/>
<text text-anchor="middle" x="622.09" y="-723.13" font-family="Times,serif" font-size="14.00">okhimg:slotLogoBw</text>
</g>
<!-- http://w3id.org/oseg/ont/okhimg#slotLogo&#45;&gt;http://w3id.org/oseg/ont/okhimg#slotLogoBw -->
<g id="edge11" class="edge">
<title>http://w3id.org/oseg/ont/okhimg#slotLogo&#45;&gt;http://w3id.org/oseg/ont/okhimg#slotLogoBw</title>
<path fill="none" stroke="black" d="M468.13,-700.9C485.73,-705.3 506.91,-710.02 527.85,-714.27"/>
<polygon fill="black" stroke="black" points="527.27,-717.72 537.76,-716.25 528.64,-710.86 527.27,-717.72"/>
<text text-anchor="middle" x="470.49" y="-711.38" font-family="Times,serif" font-size="14.00">seeAlso</text>
</g>
<!-- http://w3id.org/oseg/ont/okhimg#tagDrawing -->
<g id="node9" class="node">
<title>http://w3id.org/oseg/ont/okhimg#tagDrawing</title>
<ellipse fill="none" stroke="#e377c2" cx="241.73" cy="-356.59" rx="111.95" ry="16.03"/>
<text text-anchor="middle" x="241.73" y="-352.89" font-family="Times,serif" font-size="14.00">okhimg:tagDrawing</text>
</g>
<!-- http://w3id.org/oseg/ont/okhimg#tagDrawing&#45;&gt;http://schema.org/DefinedTerm -->
<g id="edge7" class="edge">
<title>http://w3id.org/oseg/ont/okhimg#tagDrawing&#45;&gt;http://schema.org/DefinedTerm</title>
<path fill="none" stroke="black" d="M319.08,-368.33C368.34,-375.81 432.34,-385.53 483.81,-393.35"/>
<polygon fill="black" stroke="black" points="483.52,-396.85 493.93,-394.89 484.57,-389.93 483.52,-396.85"/>
<text text-anchor="middle" x="396.94" y="-384.64" font-family="Times,serif" font-size="14.00">a</text>
</g>
<!-- http://w3id.org/oseg/ont/okhimg#tags&#45;&gt;http://schema.org/DefinedTermSet -->
<g id="edge18" class="edge">
<title>http://w3id.org/oseg/ont/okhimg#tags&#45;&gt;http://schema.org/DefinedTermSet</title>
<path fill="none" stroke="black" d="M588.76,-1301.86C579.92,-1337.94 558.71,-1424.46 548,-1468.16"/>
<polygon fill="black" stroke="black" points="544.56,-1467.5 545.58,-1478.05 551.36,-1469.17 544.56,-1467.5"/>
<text text-anchor="middle" x="563.88" y="-1388.81" font-family="Times,serif" font-size="14.00">a</text>
</g>
<!-- http://w3id.org/oseg/ont/okhimg#tagArt -->
<g id="node24" class="node">
<title>http://w3id.org/oseg/ont/okhimg#tagArt</title>
<ellipse fill="none" stroke="#e377c2" cx="542.51" cy="-889.79" rx="84.29" ry="16.03"/>
<text text-anchor="middle" x="542.51" y="-886.09" font-family="Times,serif" font-size="14.00">okhimg:tagArt</text>
</g>
<!-- http://w3id.org/oseg/ont/okhimg#tags&#45;&gt;http://w3id.org/oseg/ont/okhimg#tagArt -->
<g id="edge34" class="edge">
<title>http://w3id.org/oseg/ont/okhimg#tags&#45;&gt;http://w3id.org/oseg/ont/okhimg#tagArt</title>
<path fill="none" stroke="black" d="M590.68,-1268.97C582.88,-1207.63 555.54,-992.38 545.9,-916.51"/>
<polygon fill="black" stroke="black" points="549.34,-915.84 544.61,-906.36 542.4,-916.72 549.34,-915.84"/>
<text text-anchor="middle" x="480.79" y="-1096.54" font-family="Times,serif" font-size="14.00">schema:hasDefinedTerm</text>
</g>
<!-- http://w3id.org/oseg/ont/okhimg#slotLogoBw&#45;&gt;http://schema.org/DefinedTerm -->
<g id="edge9" class="edge">
<title>http://w3id.org/oseg/ont/okhimg#slotLogoBw&#45;&gt;http://schema.org/DefinedTerm</title>
<path fill="none" stroke="black" d="M619.61,-710.53C611.71,-658.66 587.14,-497.11 577.43,-433.29"/>
<polygon fill="black" stroke="black" points="580.86,-432.59 575.9,-423.23 573.94,-433.64 580.86,-432.59"/>
<text text-anchor="middle" x="594.02" y="-575.71" font-family="Times,serif" font-size="14.00">a</text>
</g>
<!-- http://w3id.org/oseg/ont/okhimg#slotLogoBw&#45;&gt;http://w3id.org/oseg/ont/okhimg#slotLogo -->
<g id="edge6" class="edge">
<title>http://w3id.org/oseg/ont/okhimg#slotLogoBw&#45;&gt;http://w3id.org/oseg/ont/okhimg#slotLogo</title>
<path fill="none" stroke="black" d="M578.2,-711.87C559.02,-707.12 535.82,-702.01 513.36,-697.55"/>
<polygon fill="black" stroke="black" points="513.94,-694.09 503.45,-695.61 512.59,-700.96 513.94,-694.09"/>
<text text-anchor="middle" x="573.28" y="-693.51" font-family="Times,serif" font-size="14.00">seeAlso</text>
</g>
<!-- http://w3id.org/oseg/ont/okhimg#slotOrganizationLogo -->
<g id="node12" class="node">
<title>http://w3id.org/oseg/ont/okhimg#slotOrganizationLogo</title>
<ellipse fill="none" stroke="#e377c2" cx="244.75" cy="-605.18" rx="114.6" ry="16.03"/>
<text text-anchor="middle" x="244.75" y="-601.48" font-family="Times,serif" font-size="14.00">okhimg:slotOrgani...</text>
</g>
<!-- http://w3id.org/oseg/ont/okhimg#slotOrganizationLogo&#45;&gt;http://schema.org/DefinedTerm -->
<g id="edge10" class="edge">
<title>http://w3id.org/oseg/ont/okhimg#slotOrganizationLogo&#45;&gt;http://schema.org/DefinedTerm</title>
<path fill="none" stroke="black" d="M271.09,-589.3C329.87,-553.85 471.76,-468.27 538.11,-428.26"/>
<polygon fill="black" stroke="black" points="540.2,-431.08 546.96,-422.92 536.59,-425.09 540.2,-431.08"/>
<text text-anchor="middle" x="400.1" y="-497.58" font-family="Times,serif" font-size="14.00">a</text>
</g>
<!-- http://w3id.org/oseg/ont/okhimg#slotOrganizationLogoBw -->
<g id="node34" class="node">
<title>http://w3id.org/oseg/ont/okhimg#slotOrganizationLogoBw</title>
<ellipse fill="none" stroke="#e377c2" cx="283.78" cy="-645.74" rx="114.6" ry="16.03"/>
<text text-anchor="middle" x="283.78" y="-642.04" font-family="Times,serif" font-size="14.00">okhimg:slotOrgani...</text>
</g>
<!-- http://w3id.org/oseg/ont/okhimg#slotOrganizationLogo&#45;&gt;http://w3id.org/oseg/ont/okhimg#slotOrganizationLogoBw -->
<g id="edge40" class="edge">
<title>http://w3id.org/oseg/ont/okhimg#slotOrganizationLogo&#45;&gt;http://w3id.org/oseg/ont/okhimg#slotOrganizationLogoBw</title>
<path fill="none" stroke="black" d="M251.77,-621.44C251.98,-621.7 252.18,-621.96 252.39,-622.22"/>
<polygon fill="black" stroke="black" points="249.84,-624.62 259.08,-629.8 255.09,-619.99 249.84,-624.62"/>
<text text-anchor="middle" x="224.58" y="-625.63" font-family="Times,serif" font-size="14.00">seeAlso</text>
</g>
<!-- http://w3id.org/oseg/ont/okhimg#slotModelFromBack -->
<g id="node13" class="node">
<title>http://w3id.org/oseg/ont/okhimg#slotModelFromBack</title>
<ellipse fill="none" stroke="#e377c2" cx="961.64" cy="-261.14" rx="116.85" ry="16.03"/>
<text text-anchor="middle" x="961.64" y="-257.44" font-family="Times,serif" font-size="14.00">okhimg:slotModelF...</text>
</g>
<!-- http://w3id.org/oseg/ont/okhimg#slotModelFromBack&#45;&gt;http://schema.org/DefinedTerm -->
<g id="edge12" class="edge">
<title>http://w3id.org/oseg/ont/okhimg#slotModelFromBack&#45;&gt;http://schema.org/DefinedTerm</title>
<path fill="none" stroke="black" d="M920.83,-276.47C849.32,-303.33 701.63,-358.8 623.85,-388.02"/>
<polygon fill="black" stroke="black" points="622.4,-384.82 614.27,-391.62 624.86,-391.38 622.4,-384.82"/>
<text text-anchor="middle" x="767.84" y="-336.05" font-family="Times,serif" font-size="14.00">a</text>
</g>
<!-- http://w3id.org/oseg/ont/okhimg#slotModelFromRight -->
<g id="node14" class="node">
<title>http://w3id.org/oseg/ont/okhimg#slotModelFromRight</title>
<ellipse fill="none" stroke="#e377c2" cx="960.18" cy="-406.09" rx="116.85" ry="16.03"/>
<text text-anchor="middle" x="960.18" y="-402.39" font-family="Times,serif" font-size="14.00">okhimg:slotModelF...</text>
</g>
<!-- http://w3id.org/oseg/ont/okhimg#slotModelFromRight&#45;&gt;http://schema.org/DefinedTerm -->
<g id="edge13" class="edge">
<title>http://w3id.org/oseg/ont/okhimg#slotModelFromRight&#45;&gt;http://schema.org/DefinedTerm</title>
<path fill="none" stroke="black" d="M843.36,-406.35C798.7,-406.45 747.55,-406.57 701.87,-406.67"/>
<polygon fill="black" stroke="black" points="701.59,-403.17 691.6,-406.69 701.61,-410.17 701.59,-403.17"/>
<text text-anchor="middle" x="768.11" y="-410.31" font-family="Times,serif" font-size="14.00">a</text>
</g>
<!-- http://w3id.org/oseg/ont/okhimg#slotModelFromLeft -->
<g id="node15" class="node">
<title>http://w3id.org/oseg/ont/okhimg#slotModelFromLeft</title>
<ellipse fill="none" stroke="#e377c2" cx="300.49" cy="-84.04" rx="116.85" ry="16.03"/>
<text text-anchor="middle" x="300.49" y="-80.34" font-family="Times,serif" font-size="14.00">okhimg:slotModelF...</text>
</g>
<!-- http://w3id.org/oseg/ont/okhimg#slotModelFromLeft&#45;&gt;http://schema.org/DefinedTerm -->
<g id="edge14" class="edge">
<title>http://w3id.org/oseg/ont/okhimg#slotModelFromLeft&#45;&gt;http://schema.org/DefinedTerm</title>
<path fill="none" stroke="black" d="M314.4,-100.5C359.21,-153.51 499.93,-320.01 552.95,-382.73"/>
<polygon fill="black" stroke="black" points="550.41,-385.16 559.54,-390.54 555.76,-380.64 550.41,-385.16"/>
<text text-anchor="middle" x="429.17" y="-245.42" font-family="Times,serif" font-size="14.00">a</text>
</g>
<!-- http://w3id.org/oseg/ont/okhimg#slotModel3D -->
<g id="node16" class="node">
<title>http://w3id.org/oseg/ont/okhimg#slotModel3D</title>
<ellipse fill="none" stroke="#e377c2" cx="193.02" cy="-154.69" rx="115.93" ry="16.03"/>
<text text-anchor="middle" x="193.02" y="-150.99" font-family="Times,serif" font-size="14.00">okhimg:slotModel3D</text>
</g>
<!-- http://w3id.org/oseg/ont/okhimg#slotModel3D&#45;&gt;http://schema.org/DefinedTerm -->
<g id="edge15" class="edge">
<title>http://w3id.org/oseg/ont/okhimg#slotModel3D&#45;&gt;http://schema.org/DefinedTerm</title>
<path fill="none" stroke="black" d="M217.11,-170.66C282.87,-214.27 465.55,-335.42 540.6,-385.19"/>
<polygon fill="black" stroke="black" points="538.93,-388.29 549.2,-390.9 542.8,-382.45 538.93,-388.29"/>
<text text-anchor="middle" x="374.35" y="-281.73" font-family="Times,serif" font-size="14.00">a</text>
</g>
<!-- http://w3id.org/oseg/ont/okhimg#slotModelMain -->
<g id="node18" class="node">
<title>http://w3id.org/oseg/ont/okhimg#slotModelMain</title>
<ellipse fill="none" stroke="#e377c2" cx="920.83" cy="-162.46" rx="127.06" ry="16.03"/>
<text text-anchor="middle" x="920.83" y="-158.76" font-family="Times,serif" font-size="14.00">okhimg:slotModelMain</text>
</g>
<!-- http://w3id.org/oseg/ont/okhimg#slotModelMain&#45;&gt;http://schema.org/DefinedTerm -->
<g id="edge17" class="edge">
<title>http://w3id.org/oseg/ont/okhimg#slotModelMain&#45;&gt;http://schema.org/DefinedTerm</title>
<path fill="none" stroke="black" d="M898.04,-178.5C837.67,-220.99 673.58,-336.47 604.61,-385.01"/>
<polygon fill="black" stroke="black" points="602.46,-382.24 596.3,-390.86 606.49,-387.97 602.46,-382.24"/>
<text text-anchor="middle" x="746.83" y="-285.56" font-family="Times,serif" font-size="14.00">a</text>
</g>
<!-- http://w3id.org/oseg/ont/okhimg#slotSymbol -->
<g id="node19" class="node">
<title>http://w3id.org/oseg/ont/okhimg#slotSymbol</title>
<ellipse fill="none" stroke="#e377c2" cx="619.59" cy="-16.06" rx="108.38" ry="16.03"/>
<text text-anchor="middle" x="619.59" y="-12.36" font-family="Times,serif" font-size="14.00">okhimg:slotSymbol</text>
</g>
<!-- http://w3id.org/oseg/ont/okhimg#slotSymbol&#45;&gt;http://schema.org/DefinedTerm -->
<g id="edge19" class="edge">
<title>http://w3id.org/oseg/ont/okhimg#slotSymbol&#45;&gt;http://schema.org/DefinedTerm</title>
<path fill="none" stroke="black" d="M617.66,-32.36C610.51,-92.96 585.39,-305.61 576.54,-380.57"/>
<polygon fill="black" stroke="black" points="573.05,-380.25 575.36,-390.59 580,-381.07 573.05,-380.25"/>
<text text-anchor="middle" x="592.6" y="-210.26" font-family="Times,serif" font-size="14.00">a</text>
</g>
<!-- http://w3id.org/oseg/ont/okhimg#tagDiagram -->
<g id="node20" class="node">
<title>http://w3id.org/oseg/ont/okhimg#tagDiagram</title>
<ellipse fill="none" stroke="#e377c2" cx="857.66" cy="-112.29" rx="111.95" ry="16.03"/>
<text text-anchor="middle" x="857.66" y="-108.59" font-family="Times,serif" font-size="14.00">okhimg:tagDiagram</text>
</g>
<!-- http://w3id.org/oseg/ont/okhimg#tagDiagram&#45;&gt;http://schema.org/DefinedTerm -->
<g id="edge20" class="edge">
<title>http://w3id.org/oseg/ont/okhimg#tagDiagram&#45;&gt;http://schema.org/DefinedTerm</title>
<path fill="none" stroke="black" d="M841.97,-128.55C794.41,-177.86 651.7,-325.81 596.02,-383.54"/>
<polygon fill="black" stroke="black" points="593.48,-381.12 589.06,-390.75 598.52,-385.98 593.48,-381.12"/>
<text text-anchor="middle" x="714.5" y="-259.84" font-family="Times,serif" font-size="14.00">a</text>
</g>
<!-- http://w3id.org/oseg/ont/okhimg#slots&#45;&gt;http://schema.org/DefinedTermSet -->
<g id="edge21" class="edge">
<title>http://w3id.org/oseg/ont/okhimg#slots&#45;&gt;http://schema.org/DefinedTermSet</title>
<path fill="none" stroke="black" d="M731.9,-1326.08C694.86,-1358.83 610.42,-1433.49 567.57,-1471.39"/>
<polygon fill="black" stroke="black" points="565,-1468.99 559.82,-1478.23 569.63,-1474.23 565,-1468.99"/>
<text text-anchor="middle" x="645.23" y="-1402.53" font-family="Times,serif" font-size="14.00">a</text>
</g>
<!-- http://w3id.org/oseg/ont/okhimg#slots&#45;&gt;http://w3id.org/oseg/ont/okhimg#slotIconMain -->
<g id="edge24" class="edge">
<title>http://w3id.org/oseg/ont/okhimg#slots&#45;&gt;http://w3id.org/oseg/ont/okhimg#slotIconMain</title>
<path fill="none" stroke="black" d="M750.13,-1293.7C750.5,-1229.36 751.85,-993.23 752.31,-913.17"/>
<polygon fill="black" stroke="black" points="755.81,-912.96 752.37,-902.94 748.81,-912.92 755.81,-912.96"/>
<text text-anchor="middle" x="663.72" y="-1107.23" font-family="Times,serif" font-size="14.00">schema:hasDefinedTerm</text>
</g>
<!-- http://w3id.org/oseg/ont/okhimg#slotPhotoThingMain -->
<g id="node22" class="node">
<title>http://w3id.org/oseg/ont/okhimg#slotPhotoThingMain</title>
<ellipse fill="none" stroke="#e377c2" cx="900.99" cy="-338.41" rx="114.6" ry="16.03"/>
<text text-anchor="middle" x="900.99" y="-334.71" font-family="Times,serif" font-size="14.00">okhimg:slotPhotoT...</text>
</g>
<!-- http://w3id.org/oseg/ont/okhimg#slotPhotoThingMain&#45;&gt;http://schema.org/DefinedTerm -->
<g id="edge22" class="edge">
<title>http://w3id.org/oseg/ont/okhimg#slotPhotoThingMain&#45;&gt;http://schema.org/DefinedTerm</title>
<path fill="none" stroke="black" d="M836.67,-351.88C782.62,-363.19 705.31,-379.36 648.45,-391.26"/>
<polygon fill="black" stroke="black" points="647.51,-387.88 638.44,-393.35 648.95,-394.73 647.51,-387.88"/>
<text text-anchor="middle" x="738.06" y="-375.37" font-family="Times,serif" font-size="14.00">a</text>
</g>
<!-- http://w3id.org/oseg/ont/okhimg#slotIconMain&#45;&gt;http://schema.org/DefinedTerm -->
<g id="edge49" class="edge">
<title>http://w3id.org/oseg/ont/okhimg#slotIconMain&#45;&gt;http://schema.org/DefinedTerm</title>
<path fill="none" stroke="black" d="M746.3,-869.91C719.8,-798.95 615.44,-519.48 583.06,-432.76"/>
<polygon fill="black" stroke="black" points="586.34,-431.54 579.56,-423.39 579.78,-433.99 586.34,-431.54"/>
<text text-anchor="middle" x="660.18" y="-655.14" font-family="Times,serif" font-size="14.00">a</text>
</g>
<!-- http://w3id.org/oseg/ont/okhimg#slotIconMain&#45;&gt;http://w3id.org/oseg/ont/okhimg#slotIconMainBw -->
<g id="edge5" class="edge">
<title>http://w3id.org/oseg/ont/okhimg#slotIconMain&#45;&gt;http://w3id.org/oseg/ont/okhimg#slotIconMainBw</title>
<path fill="none" stroke="black" d="M763.99,-870.23C782.96,-835.53 819.01,-753.87 834.16,-711.77"/>
<polygon fill="black" stroke="black" points="837.51,-712.8 837.46,-702.21 830.89,-710.52 837.51,-712.8"/>
<text text-anchor="middle" x="826.58" y="-794.8" font-family="Times,serif" font-size="14.00">seeAlso</text>
</g>
<!-- http://w3id.org/oseg/ont/okhimg#tagArt&#45;&gt;http://schema.org/DefinedTerm -->
<g id="edge26" class="edge">
<title>http://w3id.org/oseg/ont/okhimg#tagArt&#45;&gt;http://schema.org/DefinedTerm</title>
<path fill="none" stroke="black" d="M543.55,-873.45C548.09,-802.61 566.08,-521.65 571.72,-433.53"/>
<polygon fill="black" stroke="black" points="575.21,-433.75 572.36,-423.55 568.23,-433.3 575.21,-433.75"/>
<text text-anchor="middle" x="553.14" y="-657.29" font-family="Times,serif" font-size="14.00">a</text>
</g>
<!-- http://w3id.org/oseg/ont/okhimg#tagAssembly -->
<g id="node25" class="node">
<title>http://w3id.org/oseg/ont/okhimg#tagAssembly</title>
<ellipse fill="none" stroke="#e377c2" cx="154.37" cy="-488.65" rx="116.85" ry="16.03"/>
<text text-anchor="middle" x="154.37" y="-484.95" font-family="Times,serif" font-size="14.00">okhimg:tagAssembly</text>
</g>
<!-- http://w3id.org/oseg/ont/okhimg#tagAssembly&#45;&gt;http://schema.org/DefinedTerm -->
<g id="edge27" class="edge">
<title>http://w3id.org/oseg/ont/okhimg#tagAssembly&#45;&gt;http://schema.org/DefinedTerm</title>
<path fill="none" stroke="black" d="M222.63,-475.34C297.36,-460.77 416.96,-437.46 495.36,-422.18"/>
<polygon fill="black" stroke="black" points="496.04,-425.61 505.19,-420.26 494.71,-418.74 496.04,-425.61"/>
<text text-anchor="middle" x="354.5" y="-452.56" font-family="Times,serif" font-size="14.00">a</text>
</g>
<!-- http://w3id.org/oseg/ont/okhimg#tagLogo -->
<g id="node26" class="node">
<title>http://w3id.org/oseg/ont/okhimg#tagLogo</title>
<ellipse fill="none" stroke="#e377c2" cx="357.1" cy="-529.21" rx="92.76" ry="16.03"/>
<text text-anchor="middle" x="357.1" y="-525.51" font-family="Times,serif" font-size="14.00">okhimg:tagLogo</text>
</g>
<!-- http://w3id.org/oseg/ont/okhimg#tagLogo&#45;&gt;http://schema.org/DefinedTerm -->
<g id="edge28" class="edge">
<title>http://w3id.org/oseg/ont/okhimg#tagLogo&#45;&gt;http://schema.org/DefinedTerm</title>
<path fill="none" stroke="black" d="M384.94,-513.47C423.61,-491.62 493.67,-452.03 536.62,-427.76"/>
<polygon fill="black" stroke="black" points="538.37,-430.79 545.35,-422.82 534.92,-424.7 538.37,-430.79"/>
<text text-anchor="middle" x="456.28" y="-474.42" font-family="Times,serif" font-size="14.00">a</text>
</g>
<!-- http://w3id.org/oseg/ont/okhimg#tagModel -->
<g id="node27" class="node">
<title>http://w3id.org/oseg/ont/okhimg#tagModel</title>
<ellipse fill="none" stroke="#e377c2" cx="791.14" cy="-535.39" rx="99.9" ry="16.03"/>
<text text-anchor="middle" x="791.14" y="-531.69" font-family="Times,serif" font-size="14.00">okhimg:tagModel</text>
</g>
<!-- http://w3id.org/oseg/ont/okhimg#tagModel&#45;&gt;http://schema.org/DefinedTerm -->
<g id="edge29" class="edge">
<title>http://w3id.org/oseg/ont/okhimg#tagModel&#45;&gt;http://schema.org/DefinedTerm</title>
<path fill="none" stroke="black" d="M764.44,-519.65C725.43,-496.63 652.76,-453.77 609.17,-428.05"/>
<polygon fill="black" stroke="black" points="610.73,-424.9 600.34,-422.84 607.17,-430.93 610.73,-424.9"/>
<text text-anchor="middle" x="682.31" y="-477.65" font-family="Times,serif" font-size="14.00">a</text>
</g>
<!-- http://w3id.org/oseg/ont/okhimg#slotModelFromBelow -->
<g id="node28" class="node">
<title>http://w3id.org/oseg/ont/okhimg#slotModelFromBelow</title>
<ellipse fill="none" stroke="#e377c2" cx="160.25" cy="-268.52" rx="116.85" ry="16.03"/>
<text text-anchor="middle" x="160.25" y="-264.82" font-family="Times,serif" font-size="14.00">okhimg:slotModelF...</text>
</g>
<!-- http://w3id.org/oseg/ont/okhimg#slotModelFromBelow&#45;&gt;http://schema.org/DefinedTerm -->
<g id="edge30" class="edge">
<title>http://w3id.org/oseg/ont/okhimg#slotModelFromBelow&#45;&gt;http://schema.org/DefinedTerm</title>
<path fill="none" stroke="black" d="M205.25,-283.6C281.63,-309.19 436.33,-361.03 518.79,-388.65"/>
<polygon fill="black" stroke="black" points="517.88,-392.04 528.47,-391.9 520.1,-385.4 517.88,-392.04"/>
<text text-anchor="middle" x="357.52" y="-339.93" font-family="Times,serif" font-size="14.00">a</text>
</g>
<!-- http://w3id.org/oseg/ont/okhimg#tagColor -->
<g id="node29" class="node">
<title>http://w3id.org/oseg/ont/okhimg#tagColor</title>
<ellipse fill="none" stroke="#e377c2" cx="640.41" cy="-130.95" rx="95.42" ry="16.03"/>
<text text-anchor="middle" x="640.41" y="-127.25" font-family="Times,serif" font-size="14.00">okhimg:tagColor</text>
</g>
<!-- http://w3id.org/oseg/ont/okhimg#tagColor&#45;&gt;http://schema.org/DefinedTerm -->
<g id="edge31" class="edge">
<title>http://w3id.org/oseg/ont/okhimg#tagColor&#45;&gt;http://schema.org/DefinedTerm</title>
<path fill="none" stroke="black" d="M636.42,-147.39C625.22,-193.51 593.46,-324.4 579.8,-380.7"/>
<polygon fill="black" stroke="black" points="576.35,-380.06 577.39,-390.61 583.15,-381.71 576.35,-380.06"/>
<text text-anchor="middle" x="603.61" y="-267.84" font-family="Times,serif" font-size="14.00">a</text>
</g>
<!-- http://w3id.org/oseg/ont/okhimg#slotPhotoPackaging -->
<g id="node30" class="node">
<title>http://w3id.org/oseg/ont/okhimg#slotPhotoPackaging</title>
<ellipse fill="none" stroke="#e377c2" cx="377.32" cy="-34.14" rx="113.69" ry="16.03"/>
<text text-anchor="middle" x="377.32" y="-30.44" font-family="Times,serif" font-size="14.00">okhimg:slotPhotoP...</text>
</g>
<!-- http://w3id.org/oseg/ont/okhimg#slotPhotoPackaging&#45;&gt;http://schema.org/DefinedTerm -->
<g id="edge32" class="edge">
<title>http://w3id.org/oseg/ont/okhimg#slotPhotoPackaging&#45;&gt;http://schema.org/DefinedTerm</title>
<path fill="none" stroke="black" d="M386,-50.64C417.01,-109.59 522.46,-310.07 560.01,-381.46"/>
<polygon fill="black" stroke="black" points="557.09,-383.43 564.84,-390.65 563.29,-380.17 557.09,-383.43"/>
<text text-anchor="middle" x="468.5" y="-219.85" font-family="Times,serif" font-size="14.00">a</text>
</g>
<!-- http://w3id.org/oseg/ont/okhimg#slotModelFromFront -->
<g id="node31" class="node">
<title>http://w3id.org/oseg/ont/okhimg#slotModelFromFront</title>
<ellipse fill="none" stroke="#e377c2" cx="976.82" cy="-494.85" rx="116.85" ry="16.03"/>
<text text-anchor="middle" x="976.82" y="-491.15" font-family="Times,serif" font-size="14.00">okhimg:slotModelF...</text>
</g>
<!-- http://w3id.org/oseg/ont/okhimg#slotModelFromFront&#45;&gt;http://schema.org/DefinedTerm -->
<g id="edge33" class="edge">
<title>http://w3id.org/oseg/ont/okhimg#slotModelFromFront&#45;&gt;http://schema.org/DefinedTerm</title>
<path fill="none" stroke="black" d="M913.79,-481.12C841.48,-465.36 723.06,-439.56 646.7,-422.92"/>
<polygon fill="black" stroke="black" points="647.19,-419.45 636.68,-420.74 645.7,-426.29 647.19,-419.45"/>
<text text-anchor="middle" x="775.75" y="-455.82" font-family="Times,serif" font-size="14.00">a</text>
</g>
<!-- http://w3id.org/oseg/ont/okhimg#tagGray -->
<g id="node32" class="node">
<title>http://w3id.org/oseg/ont/okhimg#tagGray</title>
<ellipse fill="none" stroke="#e377c2" cx="694.17" cy="-71.74" rx="92.76" ry="16.03"/>
<text text-anchor="middle" x="694.17" y="-68.04" font-family="Times,serif" font-size="14.00">okhimg:tagGray</text>
</g>
<!-- http://w3id.org/oseg/ont/okhimg#tagGray&#45;&gt;http://schema.org/DefinedTerm -->
<g id="edge35" class="edge">
<title>http://w3id.org/oseg/ont/okhimg#tagGray&#45;&gt;http://schema.org/DefinedTerm</title>
<path fill="none" stroke="black" d="M688.18,-88.36C668.62,-142.66 606.51,-315.09 582.77,-381"/>
<polygon fill="black" stroke="black" points="579.4,-380.04 579.3,-390.63 585.99,-382.41 579.4,-380.04"/>
<text text-anchor="middle" x="630.97" y="-238.48" font-family="Times,serif" font-size="14.00">a</text>
</g>
<!-- http://w3id.org/oseg/ont/okhimg#slotModelFromAbove -->
<g id="node33" class="node">
<title>http://w3id.org/oseg/ont/okhimg#slotModelFromAbove</title>
<ellipse fill="none" stroke="#e377c2" cx="254.57" cy="-221.24" rx="116.85" ry="16.03"/>
<text text-anchor="middle" x="254.57" y="-217.54" font-family="Times,serif" font-size="14.00">okhimg:slotModelF...</text>
</g>
<!-- http://w3id.org/oseg/ont/okhimg#slotModelFromAbove&#45;&gt;http://schema.org/DefinedTerm -->
<g id="edge36" class="edge">
<title>http://w3id.org/oseg/ont/okhimg#slotModelFromAbove&#45;&gt;http://schema.org/DefinedTerm</title>
<path fill="none" stroke="black" d="M281.76,-237.08C339.03,-270.44 472.13,-347.96 536.82,-385.64"/>
<polygon fill="black" stroke="black" points="535.45,-388.89 545.85,-390.9 538.97,-382.84 535.45,-388.89"/>
<text text-anchor="middle" x="404.79" y="-315.16" font-family="Times,serif" font-size="14.00">a</text>
</g>
<!-- http://w3id.org/oseg/ont/okhimg#slotOrganizationLogoBw&#45;&gt;http://schema.org/DefinedTerm -->
<g id="edge37" class="edge">
<title>http://w3id.org/oseg/ont/okhimg#slotOrganizationLogoBw&#45;&gt;http://schema.org/DefinedTerm</title>
<path fill="none" stroke="black" d="M303.24,-629.7C353.41,-588.34 487.32,-477.95 545.63,-429.87"/>
<polygon fill="black" stroke="black" points="548.18,-432.3 553.67,-423.24 543.73,-426.9 548.18,-432.3"/>
<text text-anchor="middle" x="419.94" y="-533.58" font-family="Times,serif" font-size="14.00">a</text>
</g>
<!-- http://w3id.org/oseg/ont/okhimg#slotOrganizationLogoBw&#45;&gt;http://w3id.org/oseg/ont/okhimg#slotOrganizationLogo -->
<g id="edge23" class="edge">
<title>http://w3id.org/oseg/ont/okhimg#slotOrganizationLogoBw&#45;&gt;http://w3id.org/oseg/ont/okhimg#slotOrganizationLogo</title>
<path fill="none" stroke="black" d="M276.76,-629.48C276.56,-629.22 276.35,-628.96 276.14,-628.7"/>
<polygon fill="black" stroke="black" points="278.69,-626.3 269.45,-621.11 273.44,-630.93 278.69,-626.3"/>
<text text-anchor="middle" x="303.95" y="-617.89" font-family="Times,serif" font-size="14.00">seeAlso</text>
</g>
<!-- http://w3id.org/oseg/ont/okhimg#tagScreenshot -->
<g id="node37" class="node">
<title>http://w3id.org/oseg/ont/okhimg#tagScreenshot</title>
<ellipse fill="none" stroke="#e377c2" cx="125.29" cy="-397.13" rx="125.32" ry="16.03"/>
<text text-anchor="middle" x="125.29" y="-393.43" font-family="Times,serif" font-size="14.00">okhimg:tagScreenshot</text>
</g>
<!-- http://w3id.org/oseg/ont/okhimg#tagScreenshot&#45;&gt;http://schema.org/DefinedTerm -->
<g id="edge42" class="edge">
<title>http://w3id.org/oseg/ont/okhimg#tagScreenshot&#45;&gt;http://schema.org/DefinedTerm</title>
<path fill="none" stroke="black" d="M248.93,-399.84C310.4,-401.19 384.6,-402.82 446.51,-404.18"/>
<polygon fill="black" stroke="black" points="446.66,-407.68 456.74,-404.4 446.81,-400.68 446.66,-407.68"/>
<text text-anchor="middle" x="343.22" y="-405.81" font-family="Times,serif" font-size="14.00">a</text>
</g>
<!-- http://w3id.org/oseg/ont/okhimg#tagPhoto -->
<g id="node38" class="node">
<title>http://w3id.org/oseg/ont/okhimg#tagPhoto</title>
<ellipse fill="none" stroke="#e377c2" cx="414.7" cy="-145.47" rx="97.66" ry="16.03"/>
<text text-anchor="middle" x="414.7" y="-141.77" font-family="Times,serif" font-size="14.00">okhimg:tagPhoto</text>
</g>
<!-- http://w3id.org/oseg/ont/okhimg#tagPhoto&#45;&gt;http://schema.org/DefinedTerm -->
<g id="edge43" class="edge">
<title>http://w3id.org/oseg/ont/okhimg#tagPhoto&#45;&gt;http://schema.org/DefinedTerm</title>
<path fill="none" stroke="black" d="M424.63,-161.83C451.52,-206.13 525.9,-328.66 558.16,-381.82"/>
<polygon fill="black" stroke="black" points="555.32,-383.88 563.5,-390.61 561.3,-380.24 555.32,-383.88"/>
<text text-anchor="middle" x="486.89" y="-275.62" font-family="Times,serif" font-size="14.00">a</text>
</g>
<!-- http://w3id.org/oseg/ont/okhimg#tagBw -->
<g id="node39" class="node">
<title>http://w3id.org/oseg/ont/okhimg#tagBw</title>
<ellipse fill="none" stroke="#e377c2" cx="509.36" cy="-88.03" rx="84.29" ry="16.03"/>
<text text-anchor="middle" x="509.36" y="-84.33" font-family="Times,serif" font-size="14.00">okhimg:tagBw</text>
</g>
<!-- http://w3id.org/oseg/ont/okhimg#tagBw&#45;&gt;http://schema.org/DefinedTerm -->
<g id="edge44" class="edge">
<title>http://w3id.org/oseg/ont/okhimg#tagBw&#45;&gt;http://schema.org/DefinedTerm</title>
<path fill="none" stroke="black" d="M512.63,-104.29C522.99,-155.88 555.22,-316.33 568.06,-380.27"/>
<polygon fill="black" stroke="black" points="564.69,-381.24 570.09,-390.36 571.55,-379.86 564.69,-381.24"/>
<text text-anchor="middle" x="535.84" y="-246.08" font-family="Times,serif" font-size="14.00">a</text>
</g>
<!-- http://w3id.org/oseg/ont/okhimg#tagIcon -->
<g id="node40" class="node">
<title>http://w3id.org/oseg/ont/okhimg#tagIcon</title>
<ellipse fill="none" stroke="#e377c2" cx="770.66" cy="-220.6" rx="89.61" ry="16.03"/>
<text text-anchor="middle" x="770.66" y="-216.9" font-family="Times,serif" font-size="14.00">okhimg:tagIcon</text>
</g>
<!-- http://w3id.org/oseg/ont/okhimg#tagIcon&#45;&gt;http://schema.org/DefinedTerm -->
<g id="edge46" class="edge">
<title>http://w3id.org/oseg/ont/okhimg#tagIcon&#45;&gt;http://schema.org/DefinedTerm</title>
<path fill="none" stroke="black" d="M753.5,-236.81C718.46,-269.92 638.56,-345.42 598.01,-383.73"/>
<polygon fill="black" stroke="black" points="595.55,-381.24 590.68,-390.65 600.35,-386.33 595.55,-381.24"/>
<text text-anchor="middle" x="671.26" y="-314.07" font-family="Times,serif" font-size="14.00">a</text>
</g>
<!-- http://w3id.org/oseg/ont/okhimg#slotSocial -->
<g id="node42" class="node">
<title>http://w3id.org/oseg/ont/okhimg#slotSocial</title>
<ellipse fill="none" stroke="#e377c2" cx="875.91" cy="-598.03" rx="101.23" ry="16.03"/>
<text text-anchor="middle" x="875.91" y="-594.33" font-family="Times,serif" font-size="14.00">okhimg:slotSocial</text>
</g>
<!-- http://w3id.org/oseg/ont/okhimg#slotSocial&#45;&gt;http://schema.org/DefinedTerm -->
<g id="edge50" class="edge">
<title>http://w3id.org/oseg/ont/okhimg#slotSocial&#45;&gt;http://schema.org/DefinedTerm</title>
<path fill="none" stroke="black" d="M850.9,-582.23C796.8,-548.06 668.85,-467.24 607.45,-428.45"/>
<polygon fill="black" stroke="black" points="609.21,-425.43 598.89,-423.05 605.47,-431.35 609.21,-425.43"/>
<text text-anchor="middle" x="724.67" y="-494.14" font-family="Times,serif" font-size="14.00">a</text>
</g>
</g>
</svg>
