<?xml version="1.0" encoding="UTF-8" standalone="no"?>
<!DOCTYPE svg PUBLIC "-//W3C//DTD SVG 1.1//EN"
 "http://www.w3.org/Graphics/SVG/1.1/DTD/svg11.dtd">
<!-- Generated by graphviz version 2.43.0 (0)
 -->
<!-- Title: G Pages: 1 -->
<svg width="1785pt" height="2042pt"
 viewBox="0.00 0.00 1785.00 2042.00" xmlns="http://www.w3.org/2000/svg" xmlns:xlink="http://www.w3.org/1999/xlink">
<g id="graph0" class="graph" transform="scale(1 1) rotate(0) translate(4 2038)">
<title>G</title>
<polygon fill="white" stroke="transparent" points="-4,4 -4,-2038 1781,-2038 1781,4 -4,4"/>
<!-- http://w3id.org/oseg/ont/okh#Mass -->
<g id="node1" class="node">
<title>http://w3id.org/oseg/ont/okh#Mass</title>
<ellipse fill="none" stroke="#e377c2" cx="1317.56" cy="-1137.73" rx="59.29" ry="16.03"/>
<text text-anchor="middle" x="1317.56" y="-1134.03" font-family="Times,serif" font-size="14.00">okh:Mass</text>
</g>
<!-- http://www.w3.org/2004/02/skos/core#Concept -->
<g id="node2" class="node">
<title>http://www.w3.org/2004/02/skos/core#Concept</title>
<ellipse fill="none" stroke="#1f77b4" cx="1115.68" cy="-1406.81" rx="78.48" ry="16.03"/>
<text text-anchor="middle" x="1115.68" y="-1403.11" font-family="Times,serif" font-size="14.00">skos:Concept</text>
</g>
<!-- http://w3id.org/oseg/ont/okh#Mass&#45;&gt;http://www.w3.org/2004/02/skos/core#Concept -->
<g id="edge33" class="edge">
<title>http://w3id.org/oseg/ont/okh#Mass&#45;&gt;http://www.w3.org/2004/02/skos/core#Concept</title>
<path fill="none" stroke="black" d="M1305.54,-1153.76C1271.54,-1199.08 1174.53,-1328.38 1133.91,-1382.51"/>
<polygon fill="black" stroke="black" points="1131.1,-1380.43 1127.9,-1390.53 1136.7,-1384.63 1131.1,-1380.43"/>
<text text-anchor="middle" x="1215.23" y="-1271.94" font-family="Times,serif" font-size="14.00">a</text>
</g>
<!-- http://w3id.org/oseg/ont/okhmetaTransportationTag -->
<g id="node28" class="node">
<title>http://w3id.org/oseg/ont/okhmetaTransportationTag</title>
<ellipse fill="none" stroke="#e377c2" cx="1577.23" cy="-1112.75" rx="118.17" ry="16.03"/>
<text text-anchor="middle" x="1577.23" y="-1109.05" font-family="Times,serif" font-size="14.00">okhmeta:Transport...</text>
</g>
<!-- http://w3id.org/oseg/ont/okh#Mass&#45;&gt;http://w3id.org/oseg/ont/okhmetaTransportationTag -->
<g id="edge22" class="edge">
<title>http://w3id.org/oseg/ont/okh#Mass&#45;&gt;http://w3id.org/oseg/ont/okhmetaTransportationTag</title>
<path fill="none" stroke="black" d="M1373.9,-1132.31C1402.09,-1129.6 1437.16,-1126.23 1470.2,-1123.05"/>
<polygon fill="black" stroke="black" points="1470.76,-1126.51 1480.38,-1122.07 1470.09,-1119.54 1470.76,-1126.51"/>
<text text-anchor="middle" x="1499.05" y="-1131.48" font-family="Times,serif" font-size="14.00">okhmeta:hasMetaTag</text>
</g>
<!-- http://w3id.org/oseg/ont/okhmetaPhysicalTag -->
<g id="node33" class="node">
<title>http://w3id.org/oseg/ont/okhmetaPhysicalTag</title>
<ellipse fill="none" stroke="#e377c2" cx="1556.5" cy="-1243.83" rx="118.17" ry="16.03"/>
<text text-anchor="middle" x="1556.5" y="-1240.13" font-family="Times,serif" font-size="14.00">okhmeta:PhysicalTag</text>
</g>
<!-- http://w3id.org/oseg/ont/okh#Mass&#45;&gt;http://w3id.org/oseg/ont/okhmetaPhysicalTag -->
<g id="edge26" class="edge">
<title>http://w3id.org/oseg/ont/okh#Mass&#45;&gt;http://w3id.org/oseg/ont/okhmetaPhysicalTag</title>
<path fill="none" stroke="black" d="M1348.8,-1151.6C1390.46,-1170.1 1464.45,-1202.96 1511.95,-1224.05"/>
<polygon fill="black" stroke="black" points="1510.81,-1227.37 1521.37,-1228.23 1513.65,-1220.97 1510.81,-1227.37"/>
<text text-anchor="middle" x="1353.37" y="-1191.63" font-family="Times,serif" font-size="14.00">okhmeta:hasMetaTag</text>
</g>
<!-- http://w3id.org/oseg/ont/okh#FileUrl -->
<g id="node3" class="node">
<title>http://w3id.org/oseg/ont/okh#FileUrl</title>
<ellipse fill="none" stroke="#1f77b4" cx="673.01" cy="-1774.63" rx="68.68" ry="16.03"/>
<text text-anchor="middle" x="673.01" y="-1770.93" font-family="Times,serif" font-size="14.00">okh:FileUrl</text>
</g>
<!-- http://w3id.org/oseg/ont/okh#ComponentReference -->
<g id="node4" class="node">
<title>http://w3id.org/oseg/ont/okh#ComponentReference</title>
<ellipse fill="none" stroke="#e377c2" cx="803.71" cy="-1485.85" rx="123.07" ry="16.03"/>
<text text-anchor="middle" x="803.71" y="-1482.15" font-family="Times,serif" font-size="14.00">okh:ComponentRefe...</text>
</g>
<!-- http://w3id.org/oseg/ont/okh#FileUrl&#45;&gt;http://w3id.org/oseg/ont/okh#ComponentReference -->
<g id="edge14" class="edge">
<title>http://w3id.org/oseg/ont/okh#FileUrl&#45;&gt;http://w3id.org/oseg/ont/okh#ComponentReference</title>
<path fill="none" stroke="black" d="M680.41,-1758.27C702.11,-1710.34 765.67,-1569.89 792.04,-1511.63"/>
<polygon fill="black" stroke="black" points="795.3,-1512.93 796.23,-1502.38 788.92,-1510.05 795.3,-1512.93"/>
</g>
<!-- http://schema.org/URL -->
<g id="node5" class="node">
<title>http://schema.org/URL</title>
<ellipse fill="none" stroke="#e377c2" cx="619.53" cy="-2017.28" rx="75.82" ry="16.03"/>
<text text-anchor="middle" x="619.53" y="-2013.58" font-family="Times,serif" font-size="14.00">schema:URL</text>
</g>
<!-- http://w3id.org/oseg/ont/okh#FileUrl&#45;&gt;http://schema.org/URL -->
<g id="edge17" class="edge">
<title>http://w3id.org/oseg/ont/okh#FileUrl&#45;&gt;http://schema.org/URL</title>
<path fill="none" stroke="black" d="M669.42,-1790.93C660.34,-1832.1 636.44,-1940.58 625.34,-1990.92"/>
<polygon fill="black" stroke="black" points="621.91,-1990.22 623.18,-2000.74 628.75,-1991.73 621.91,-1990.22"/>
</g>
<!-- http://w3id.org/oseg/ont/okh#File -->
<g id="node27" class="node">
<title>http://w3id.org/oseg/ont/okh#File</title>
<ellipse fill="none" stroke="#e377c2" cx="535.68" cy="-1713.91" rx="52.15" ry="16.03"/>
<text text-anchor="middle" x="535.68" y="-1710.21" font-family="Times,serif" font-size="14.00">okh:File</text>
</g>
<!-- http://w3id.org/oseg/ont/okh#FileUrl&#45;&gt;http://w3id.org/oseg/ont/okh#File -->
<g id="edge35" class="edge">
<title>http://w3id.org/oseg/ont/okh#FileUrl&#45;&gt;http://w3id.org/oseg/ont/okh#File</title>
<path fill="none" stroke="black" d="M640.46,-1760.24C620.93,-1751.6 595.94,-1740.55 575.27,-1731.41"/>
<polygon fill="black" stroke="black" points="576.67,-1728.21 566.11,-1727.36 573.84,-1734.61 576.67,-1728.21"/>
<text text-anchor="middle" x="527.87" y="-1734.63" font-family="Times,serif" font-size="14.00">schema:supersededBy</text>
</g>
<!-- http://w3id.org/oseg/ont/okh#ComponentReference&#45;&gt;http://www.w3.org/2004/02/skos/core#Concept -->
<g id="edge40" class="edge">
<title>http://w3id.org/oseg/ont/okh#ComponentReference&#45;&gt;http://www.w3.org/2004/02/skos/core#Concept</title>
<path fill="none" stroke="black" d="M860.93,-1471.35C916.27,-1457.33 999.79,-1436.17 1055.96,-1421.94"/>
<polygon fill="black" stroke="black" points="1056.94,-1425.31 1065.77,-1419.46 1055.22,-1418.52 1056.94,-1425.31"/>
<text text-anchor="middle" x="953.95" y="-1450.45" font-family="Times,serif" font-size="14.00">a</text>
</g>
<!-- http://w3id.org/oseg/ont/okh#Reference -->
<g id="node6" class="node">
<title>http://w3id.org/oseg/ont/okh#Reference</title>
<ellipse fill="none" stroke="#e377c2" cx="574.26" cy="-1276.68" rx="84.29" ry="16.03"/>
<text text-anchor="middle" x="574.26" y="-1272.98" font-family="Times,serif" font-size="14.00">okh:Reference</text>
</g>
<!-- http://w3id.org/oseg/ont/okh#ComponentReference&#45;&gt;http://w3id.org/oseg/ont/okh#Reference -->
<g id="edge28" class="edge">
<title>http://w3id.org/oseg/ont/okh#ComponentReference&#45;&gt;http://w3id.org/oseg/ont/okh#Reference</title>
<path fill="none" stroke="black" d="M785.71,-1469.43C745.06,-1432.38 646.1,-1342.17 599.42,-1299.62"/>
<polygon fill="black" stroke="black" points="601.61,-1296.88 591.86,-1292.73 596.89,-1302.05 601.61,-1296.88"/>
</g>
<!-- http://w3id.org/oseg/ont/okhmetaPartsTag -->
<g id="node32" class="node">
<title>http://w3id.org/oseg/ont/okhmetaPartsTag</title>
<ellipse fill="none" stroke="#e377c2" cx="795.61" cy="-1444.36" rx="103.48" ry="16.03"/>
<text text-anchor="middle" x="795.61" y="-1440.66" font-family="Times,serif" font-size="14.00">okhmeta:PartsTag</text>
</g>
<!-- http://w3id.org/oseg/ont/okh#ComponentReference&#45;&gt;http://w3id.org/oseg/ont/okhmetaPartsTag -->
<g id="edge25" class="edge">
<title>http://w3id.org/oseg/ont/okh#ComponentReference&#45;&gt;http://w3id.org/oseg/ont/okhmetaPartsTag</title>
<path fill="none" stroke="black" d="M800.51,-1469.45C800.49,-1469.36 800.47,-1469.27 800.46,-1469.18"/>
<polygon fill="black" stroke="black" points="804.14,-1469.78 798.79,-1460.64 797.27,-1471.12 804.14,-1469.78"/>
<text text-anchor="middle" x="723.48" y="-1458.11" font-family="Times,serif" font-size="14.00">okhmeta:hasMetaTag</text>
</g>
<!-- http://schema.org/url -->
<g id="node7" class="node">
<title>http://schema.org/url</title>
<ellipse fill="none" stroke="#e377c2" cx="67.62" cy="-1744.24" rx="67.35" ry="16.03"/>
<text text-anchor="middle" x="67.62" y="-1740.54" font-family="Times,serif" font-size="14.00">schema:url</text>
</g>
<!-- http://w3id.org/oseg/ont/okh#permaURL -->
<g id="node8" class="node">
<title>http://w3id.org/oseg/ont/okh#permaURL</title>
<ellipse fill="none" stroke="#e377c2" cx="380.59" cy="-1894.81" rx="87.86" ry="16.03"/>
<text text-anchor="middle" x="380.59" y="-1891.11" font-family="Times,serif" font-size="14.00">okh:permaURL</text>
</g>
<!-- http://w3id.org/oseg/ont/okh#permaURL&#45;&gt;http://w3id.org/oseg/ont/okh#File -->
<g id="edge38" class="edge">
<title>http://w3id.org/oseg/ont/okh#permaURL&#45;&gt;http://w3id.org/oseg/ont/okh#File</title>
<path fill="none" stroke="black" d="M394.63,-1878.43C422.15,-1846.33 483.29,-1775.02 515.28,-1737.71"/>
<polygon fill="black" stroke="black" points="518.16,-1739.73 522.01,-1729.86 512.84,-1735.17 518.16,-1739.73"/>
<text text-anchor="middle" x="376.95" y="-1811.87" font-family="Times,serif" font-size="14.00">dcam:domainIncludes</text>
</g>
<!-- http://w3id.org/oseg/ont/okh#spdxLicense -->
<g id="node9" class="node">
<title>http://w3id.org/oseg/ont/okh#spdxLicense</title>
<ellipse fill="none" stroke="#e377c2" cx="988.37" cy="-1666.03" rx="94.51" ry="16.03"/>
<text text-anchor="middle" x="988.37" y="-1662.33" font-family="Times,serif" font-size="14.00">okh:spdxLicense</text>
</g>
<!-- http://w3id.org/oseg/ont/okh#spdxLicense&#45;&gt;http://www.w3.org/2004/02/skos/core#Concept -->
<g id="edge2" class="edge">
<title>http://w3id.org/oseg/ont/okh#spdxLicense&#45;&gt;http://www.w3.org/2004/02/skos/core#Concept</title>
<path fill="none" stroke="black" d="M996.34,-1649.82C1017.86,-1605.99 1077.31,-1484.93 1103.28,-1432.07"/>
<polygon fill="black" stroke="black" points="1106.45,-1433.54 1107.72,-1423.02 1100.17,-1430.45 1106.45,-1433.54"/>
<text text-anchor="middle" x="1045.31" y="-1544.74" font-family="Times,serif" font-size="14.00">a</text>
</g>
<!-- http://w3id.org/oseg/ont/okhmetaLegalTag -->
<g id="node12" class="node">
<title>http://w3id.org/oseg/ont/okhmetaLegalTag</title>
<ellipse fill="none" stroke="#e377c2" cx="1027.56" cy="-1706.96" rx="103.89" ry="16.03"/>
<text text-anchor="middle" x="1027.56" y="-1703.26" font-family="Times,serif" font-size="14.00">okhmeta:LegalTag</text>
</g>
<!-- http://w3id.org/oseg/ont/okh#spdxLicense&#45;&gt;http://w3id.org/oseg/ont/okhmetaLegalTag -->
<g id="edge4" class="edge">
<title>http://w3id.org/oseg/ont/okh#spdxLicense&#45;&gt;http://w3id.org/oseg/ont/okhmetaLegalTag</title>
<path fill="none" stroke="black" d="M1003.86,-1682.21C1004.19,-1682.55 1004.53,-1682.9 1004.86,-1683.25"/>
<polygon fill="black" stroke="black" points="1002.48,-1685.83 1011.93,-1690.63 1007.54,-1680.99 1002.48,-1685.83"/>
<text text-anchor="middle" x="927.36" y="-1686.53" font-family="Times,serif" font-size="14.00">okhmeta:hasMetaTag</text>
</g>
<!-- http://w3id.org/oseg/ont/okh#Module -->
<g id="node20" class="node">
<title>http://w3id.org/oseg/ont/okh#Module</title>
<ellipse fill="none" stroke="#e377c2" cx="762.59" cy="-1717.55" rx="70.92" ry="16.03"/>
<text text-anchor="middle" x="762.59" y="-1713.85" font-family="Times,serif" font-size="14.00">okh:Module</text>
</g>
<!-- http://w3id.org/oseg/ont/okh#spdxLicense&#45;&gt;http://w3id.org/oseg/ont/okh#Module -->
<g id="edge10" class="edge">
<title>http://w3id.org/oseg/ont/okh#spdxLicense&#45;&gt;http://w3id.org/oseg/ont/okh#Module</title>
<path fill="none" stroke="black" d="M931.4,-1679.03C898.37,-1686.57 856.79,-1696.06 823.17,-1703.73"/>
<polygon fill="black" stroke="black" points="821.98,-1700.41 813.01,-1706.05 823.53,-1707.23 821.98,-1700.41"/>
<text text-anchor="middle" x="799.28" y="-1680.18" font-family="Times,serif" font-size="14.00">dcam:domainIncludes</text>
</g>
<!-- http://spdx.org/rdf/terms#ListedLicense -->
<g id="node26" class="node">
<title>http://spdx.org/rdf/terms#ListedLicense</title>
<ellipse fill="none" stroke="#e377c2" cx="1115.07" cy="-1939.44" rx="108.38" ry="16.03"/>
<text text-anchor="middle" x="1115.07" y="-1935.74" font-family="Times,serif" font-size="14.00">spdx:ListedLicense</text>
</g>
<!-- http://w3id.org/oseg/ont/okh#spdxLicense&#45;&gt;http://spdx.org/rdf/terms#ListedLicense -->
<g id="edge15" class="edge">
<title>http://w3id.org/oseg/ont/okh#spdxLicense&#45;&gt;http://spdx.org/rdf/terms#ListedLicense</title>
<path fill="none" stroke="black" d="M995.92,-1682.32C1017.13,-1728.08 1077.39,-1858.13 1103.15,-1913.72"/>
<polygon fill="black" stroke="black" points="1100.02,-1915.3 1107.4,-1922.9 1106.38,-1912.35 1100.02,-1915.3"/>
<text text-anchor="middle" x="977.04" y="-1801.82" font-family="Times,serif" font-size="14.00">dcam:rangeIncludes</text>
</g>
<!-- http://schema.org/license -->
<g id="node35" class="node">
<title>http://schema.org/license</title>
<ellipse fill="none" stroke="#e377c2" cx="1144.7" cy="-1625.38" rx="88.28" ry="16.03"/>
<text text-anchor="middle" x="1144.7" y="-1621.68" font-family="Times,serif" font-size="14.00">schema:license</text>
</g>
<!-- http://w3id.org/oseg/ont/okh#spdxLicense&#45;&gt;http://schema.org/license -->
<g id="edge32" class="edge">
<title>http://w3id.org/oseg/ont/okh#spdxLicense&#45;&gt;http://schema.org/license</title>
<path fill="none" stroke="black" d="M1040.86,-1652.38C1054.49,-1648.84 1069.3,-1644.99 1083.34,-1641.33"/>
<polygon fill="black" stroke="black" points="1084.61,-1644.62 1093.41,-1638.72 1082.85,-1637.85 1084.61,-1644.62"/>
<text text-anchor="middle" x="1003.1" y="-1635.66" font-family="Times,serif" font-size="14.00">skos:closeMatch</text>
</g>
<!-- http://w3id.org/oseg/ont/okh#license -->
<g id="node38" class="node">
<title>http://w3id.org/oseg/ont/okh#license</title>
<ellipse fill="none" stroke="#e377c2" cx="802.93" cy="-1652.4" rx="67.76" ry="16.03"/>
<text text-anchor="middle" x="802.93" y="-1648.7" font-family="Times,serif" font-size="14.00">okh:license</text>
</g>
<!-- http://w3id.org/oseg/ont/okh#spdxLicense&#45;&gt;http://w3id.org/oseg/ont/okh#license -->
<g id="edge44" class="edge">
<title>http://w3id.org/oseg/ont/okh#spdxLicense&#45;&gt;http://w3id.org/oseg/ont/okh#license</title>
<path fill="none" stroke="black" d="M901.08,-1659.62C893.4,-1659.05 885.66,-1658.48 878.09,-1657.93"/>
<polygon fill="black" stroke="black" points="878.11,-1654.42 867.88,-1657.18 877.6,-1661.4 878.11,-1654.42"/>
<text text-anchor="middle" x="809.59" y="-1662.57" font-family="Times,serif" font-size="14.00">schema:supersededBy</text>
</g>
<!-- http://w3id.org/oseg/ont/okh#okhvOriginal -->
<g id="node10" class="node">
<title>http://w3id.org/oseg/ont/okh#okhvOriginal</title>
<ellipse fill="none" stroke="#e377c2" cx="834.27" cy="-1087.18" rx="97.66" ry="16.03"/>
<text text-anchor="middle" x="834.27" y="-1083.48" font-family="Times,serif" font-size="14.00">okh:okhvOriginal</text>
</g>
<!-- http://w3id.org/oseg/ont/okh#okhv -->
<g id="node24" class="node">
<title>http://w3id.org/oseg/ont/okh#okhv</title>
<ellipse fill="none" stroke="#e377c2" cx="1020.7" cy="-1127.26" rx="56.64" ry="16.03"/>
<text text-anchor="middle" x="1020.7" y="-1123.56" font-family="Times,serif" font-size="14.00">okh:okhv</text>
</g>
<!-- http://w3id.org/oseg/ont/okh#okhvOriginal&#45;&gt;http://w3id.org/oseg/ont/okh#okhv -->
<g id="edge31" class="edge">
<title>http://w3id.org/oseg/ont/okh#okhvOriginal&#45;&gt;http://w3id.org/oseg/ont/okh#okhv</title>
<path fill="none" stroke="black" d="M894.28,-1100.08C917.08,-1104.98 942.93,-1110.54 965.29,-1115.35"/>
<polygon fill="black" stroke="black" points="964.78,-1118.82 975.29,-1117.5 966.25,-1111.97 964.78,-1118.82"/>
<text text-anchor="middle" x="982.78" y="-1096.51" font-family="Times,serif" font-size="14.00">subPropertyOf</text>
</g>
<!-- http://w3id.org/oseg/ont/okh#okhvStored -->
<g id="node36" class="node">
<title>http://w3id.org/oseg/ont/okh#okhvStored</title>
<ellipse fill="none" stroke="#e377c2" cx="804.36" cy="-1128.43" rx="90.52" ry="16.03"/>
<text text-anchor="middle" x="804.36" y="-1124.73" font-family="Times,serif" font-size="14.00">okh:okhvStored</text>
</g>
<!-- http://w3id.org/oseg/ont/okh#okhvOriginal&#45;&gt;http://w3id.org/oseg/ont/okh#okhvStored -->
<g id="edge34" class="edge">
<title>http://w3id.org/oseg/ont/okh#okhvOriginal&#45;&gt;http://w3id.org/oseg/ont/okh#okhvStored</title>
<path fill="none" stroke="black" d="M822.45,-1103.48C822.32,-1103.66 822.18,-1103.84 822.05,-1104.03"/>
<polygon fill="black" stroke="black" points="819.13,-1102.09 816.09,-1112.24 824.8,-1106.2 819.13,-1102.09"/>
<text text-anchor="middle" x="794.75" y="-1107.55" font-family="Times,serif" font-size="14.00">seeAlso</text>
</g>
<!-- http://w3id.org/oseg/ont/okh#Software -->
<g id="node11" class="node">
<title>http://w3id.org/oseg/ont/okh#Software</title>
<ellipse fill="none" stroke="#e377c2" cx="1635.47" cy="-1687.75" rx="78.48" ry="16.03"/>
<text text-anchor="middle" x="1635.47" y="-1684.05" font-family="Times,serif" font-size="14.00">okh:Software</text>
</g>
<!-- http://w3id.org/oseg/ont/okh#openSCAD -->
<g id="node13" class="node">
<title>http://w3id.org/oseg/ont/okh#openSCAD</title>
<ellipse fill="none" stroke="#e377c2" cx="1447.94" cy="-261.23" rx="86.03" ry="16.03"/>
<text text-anchor="middle" x="1447.94" y="-257.53" font-family="Times,serif" font-size="14.00">okh:openSCAD</text>
</g>
<!-- http://w3id.org/oseg/ont/okh#depth -->
<g id="node16" class="node">
<title>http://w3id.org/oseg/ont/okh#depth</title>
<ellipse fill="none" stroke="#e377c2" cx="1356.3" cy="-35.85" rx="62.45" ry="16.03"/>
<text text-anchor="middle" x="1356.3" y="-32.15" font-family="Times,serif" font-size="14.00">okh:depth</text>
</g>
<!-- http://w3id.org/oseg/ont/okh#openSCAD&#45;&gt;http://w3id.org/oseg/ont/okh#depth -->
<g id="edge6" class="edge">
<title>http://w3id.org/oseg/ont/okh#openSCAD&#45;&gt;http://w3id.org/oseg/ont/okh#depth</title>
<path fill="none" stroke="black" d="M1441.2,-244.66C1425.37,-205.73 1385.73,-108.24 1366.75,-61.55"/>
<polygon fill="black" stroke="black" points="1369.93,-60.08 1362.92,-52.14 1363.44,-62.72 1369.93,-60.08"/>
<text text-anchor="middle" x="1323.97" y="-156.9" font-family="Times,serif" font-size="14.00">schema:supersededBy</text>
</g>
<!-- http://w3id.org/oseg/ont/okh#Dimensions -->
<g id="node17" class="node">
<title>http://w3id.org/oseg/ont/okh#Dimensions</title>
<ellipse fill="none" stroke="#e377c2" cx="1392.01" cy="-584.22" rx="91.85" ry="16.03"/>
<text text-anchor="middle" x="1392.01" y="-580.52" font-family="Times,serif" font-size="14.00">okh:Dimensions</text>
</g>
<!-- http://w3id.org/oseg/ont/okh#openSCAD&#45;&gt;http://w3id.org/oseg/ont/okh#Dimensions -->
<g id="edge39" class="edge">
<title>http://w3id.org/oseg/ont/okh#openSCAD&#45;&gt;http://w3id.org/oseg/ont/okh#Dimensions</title>
<path fill="none" stroke="black" d="M1445.09,-277.69C1436.02,-330.07 1407.77,-493.19 1396.61,-557.64"/>
<polygon fill="black" stroke="black" points="1393.11,-557.34 1394.85,-567.79 1400.01,-558.54 1393.11,-557.34"/>
<text text-anchor="middle" x="1342.85" y="-421.46" font-family="Times,serif" font-size="14.00">dcam:domainIncludes</text>
</g>
<!-- http://www.w3.org/2001/XMLSchema#string -->
<g id="node21" class="node">
<title>http://www.w3.org/2001/XMLSchema#string</title>
<ellipse fill="none" stroke="#e377c2" cx="1595.26" cy="-68.5" rx="62.87" ry="16.03"/>
<text text-anchor="middle" x="1595.26" y="-64.8" font-family="Times,serif" font-size="14.00">xsd:string</text>
</g>
<!-- http://w3id.org/oseg/ont/okh#openSCAD&#45;&gt;http://www.w3.org/2001/XMLSchema#string -->
<g id="edge9" class="edge">
<title>http://w3id.org/oseg/ont/okh#openSCAD&#45;&gt;http://www.w3.org/2001/XMLSchema#string</title>
<path fill="none" stroke="black" d="M1460.24,-245.13C1486.08,-211.33 1546.1,-132.82 1576.66,-92.84"/>
<polygon fill="black" stroke="black" points="1579.59,-94.76 1582.89,-84.69 1574.03,-90.51 1579.59,-94.76"/>
<text text-anchor="middle" x="1445.95" y="-172.78" font-family="Times,serif" font-size="14.00">dcam:rangeIncludes</text>
</g>
<!-- http://w3id.org/oseg/ont/okh#height -->
<g id="node30" class="node">
<title>http://w3id.org/oseg/ont/okh#height</title>
<ellipse fill="none" stroke="#e377c2" cx="1497.19" cy="-16.26" rx="65.11" ry="16.03"/>
<text text-anchor="middle" x="1497.19" y="-12.56" font-family="Times,serif" font-size="14.00">okh:height</text>
</g>
<!-- http://w3id.org/oseg/ont/okh#openSCAD&#45;&gt;http://w3id.org/oseg/ont/okh#height -->
<g id="edge23" class="edge">
<title>http://w3id.org/oseg/ont/okh#openSCAD&#45;&gt;http://w3id.org/oseg/ont/okh#height</title>
<path fill="none" stroke="black" d="M1451.24,-244.78C1459.62,-203.11 1481.72,-93.17 1491.91,-42.51"/>
<polygon fill="black" stroke="black" points="1495.35,-43.14 1493.89,-32.64 1488.49,-41.76 1495.35,-43.14"/>
<text text-anchor="middle" x="1551.58" y="-132.44" font-family="Times,serif" font-size="14.00">schema:supersededBy</text>
</g>
<!-- http://w3id.org/oseg/ont/okh#width -->
<g id="node40" class="node">
<title>http://w3id.org/oseg/ont/okh#width</title>
<ellipse fill="none" stroke="#e377c2" cx="1266.6" cy="-115.51" rx="61.54" ry="16.03"/>
<text text-anchor="middle" x="1266.6" y="-111.81" font-family="Times,serif" font-size="14.00">okh:width</text>
</g>
<!-- http://w3id.org/oseg/ont/okh#openSCAD&#45;&gt;http://w3id.org/oseg/ont/okh#width -->
<g id="edge43" class="edge">
<title>http://w3id.org/oseg/ont/okh#openSCAD&#45;&gt;http://w3id.org/oseg/ont/okh#width</title>
<path fill="none" stroke="black" d="M1428.18,-245.36C1395.67,-219.23 1330.81,-167.11 1293.91,-137.46"/>
<polygon fill="black" stroke="black" points="1296.04,-134.68 1286.05,-131.14 1291.65,-140.13 1296.04,-134.68"/>
<text text-anchor="middle" x="1281.05" y="-195.21" font-family="Times,serif" font-size="14.00">schema:supersededBy</text>
</g>
<!-- http://w3id.org/oseg/ont/okh#value -->
<g id="node14" class="node">
<title>http://w3id.org/oseg/ont/okh#value</title>
<ellipse fill="none" stroke="#e377c2" cx="1489.45" cy="-1016.78" rx="60.21" ry="16.03"/>
<text text-anchor="middle" x="1489.45" y="-1013.08" font-family="Times,serif" font-size="14.00">okh:value</text>
</g>
<!-- http://w3id.org/oseg/ont/okh#value&#45;&gt;http://w3id.org/oseg/ont/okh#Mass -->
<g id="edge30" class="edge">
<title>http://w3id.org/oseg/ont/okh#value&#45;&gt;http://w3id.org/oseg/ont/okh#Mass</title>
<path fill="none" stroke="black" d="M1467.68,-1032.1C1437.2,-1053.55 1381.7,-1092.6 1347.39,-1116.74"/>
<polygon fill="black" stroke="black" points="1345.32,-1113.92 1339.15,-1122.54 1349.35,-1119.65 1345.32,-1113.92"/>
<text text-anchor="middle" x="1329.54" y="-1078.22" font-family="Times,serif" font-size="14.00">dcam:domainIncludes</text>
</g>
<!-- http://w3id.org/oseg/ont/okh#hasMass -->
<g id="node39" class="node">
<title>http://w3id.org/oseg/ont/okh#hasMass</title>
<ellipse fill="none" stroke="#e377c2" cx="1700.1" cy="-917.14" rx="77.15" ry="16.03"/>
<text text-anchor="middle" x="1700.1" y="-913.44" font-family="Times,serif" font-size="14.00">okh:hasMass</text>
</g>
<!-- http://w3id.org/oseg/ont/okh#value&#45;&gt;http://w3id.org/oseg/ont/okh#hasMass -->
<g id="edge42" class="edge">
<title>http://w3id.org/oseg/ont/okh#value&#45;&gt;http://w3id.org/oseg/ont/okh#hasMass</title>
<path fill="none" stroke="black" d="M1519.63,-1002.5C1556.36,-985.13 1618.52,-955.73 1659.44,-936.37"/>
<polygon fill="black" stroke="black" points="1661.05,-939.48 1668.6,-932.04 1658.06,-933.15 1661.05,-939.48"/>
<text text-anchor="middle" x="1509.54" y="-973.24" font-family="Times,serif" font-size="14.00">schema:supersededBy</text>
</g>
<!-- http://w3id.org/oseg/ont/okh#unit -->
<g id="node15" class="node">
<title>http://w3id.org/oseg/ont/okh#unit</title>
<ellipse fill="none" stroke="#e377c2" cx="1342.49" cy="-887.94" rx="53.07" ry="16.03"/>
<text text-anchor="middle" x="1342.49" y="-884.24" font-family="Times,serif" font-size="14.00">okh:unit</text>
</g>
<!-- http://w3id.org/oseg/ont/okh#unit&#45;&gt;http://w3id.org/oseg/ont/okh#Mass -->
<g id="edge27" class="edge">
<title>http://w3id.org/oseg/ont/okh#unit&#45;&gt;http://w3id.org/oseg/ont/okh#Mass</title>
<path fill="none" stroke="black" d="M1340.85,-904.33C1336.63,-946.59 1325.36,-1059.53 1320.21,-1111.23"/>
<polygon fill="black" stroke="black" points="1316.71,-1110.99 1319.2,-1121.28 1323.68,-1111.68 1316.71,-1110.99"/>
<text text-anchor="middle" x="1252.53" y="-1011.58" font-family="Times,serif" font-size="14.00">dcam:domainIncludes</text>
</g>
<!-- http://w3id.org/oseg/ont/okh#unit&#45;&gt;http://w3id.org/oseg/ont/okh#Dimensions -->
<g id="edge7" class="edge">
<title>http://w3id.org/oseg/ont/okh#unit&#45;&gt;http://w3id.org/oseg/ont/okh#Dimensions</title>
<path fill="none" stroke="black" d="M1345.15,-871.61C1353.26,-821.86 1377.72,-671.86 1387.7,-610.65"/>
<polygon fill="black" stroke="black" points="1391.18,-611.06 1389.33,-600.63 1384.27,-609.94 1391.18,-611.06"/>
<text text-anchor="middle" x="1288.42" y="-744.93" font-family="Times,serif" font-size="14.00">dcam:domainIncludes</text>
</g>
<!-- http://w3id.org/oseg/ont/okh#okhvPresent -->
<g id="node18" class="node">
<title>http://w3id.org/oseg/ont/okh#okhvPresent</title>
<ellipse fill="none" stroke="#e377c2" cx="1007.53" cy="-1169.03" rx="96.33" ry="16.03"/>
<text text-anchor="middle" x="1007.53" y="-1165.33" font-family="Times,serif" font-size="14.00">okh:okhvPresent</text>
</g>
<!-- http://w3id.org/oseg/ont/okh#okhvPresent&#45;&gt;http://w3id.org/oseg/ont/okh#okhv -->
<g id="edge12" class="edge">
<title>http://w3id.org/oseg/ont/okh#okhvPresent&#45;&gt;http://w3id.org/oseg/ont/okh#okhv</title>
<path fill="none" stroke="black" d="M1012.74,-1152.52C1012.77,-1152.43 1012.79,-1152.33 1012.82,-1152.24"/>
<polygon fill="black" stroke="black" points="1015.87,-1154.23 1015.53,-1143.64 1009.19,-1152.13 1015.87,-1154.23"/>
<text text-anchor="middle" x="959.78" y="-1141.18" font-family="Times,serif" font-size="14.00">subPropertyOf</text>
</g>
<!-- http://w3id.org/oseg/ont/okh#okhvOrig -->
<g id="node31" class="node">
<title>http://w3id.org/oseg/ont/okh#okhvOrig</title>
<ellipse fill="none" stroke="#e377c2" cx="995.82" cy="-1209.59" rx="79.39" ry="16.03"/>
<text text-anchor="middle" x="995.82" y="-1205.89" font-family="Times,serif" font-size="14.00">okh:okhvOrig</text>
</g>
<!-- http://w3id.org/oseg/ont/okh#okhvPresent&#45;&gt;http://w3id.org/oseg/ont/okh#okhvOrig -->
<g id="edge24" class="edge">
<title>http://w3id.org/oseg/ont/okh#okhvPresent&#45;&gt;http://w3id.org/oseg/ont/okh#okhvOrig</title>
<path fill="none" stroke="black" d="M1002.77,-1185.52C1002.72,-1185.68 1002.68,-1185.84 1002.63,-1186"/>
<polygon fill="black" stroke="black" points="999.96,-1182.66 1000.54,-1193.23 1006.68,-1184.6 999.96,-1182.66"/>
<text text-anchor="middle" x="975.2" y="-1189.56" font-family="Times,serif" font-size="14.00">seeAlso</text>
</g>
<!-- http://w3id.org/oseg/ont/okh#openScad -->
<g id="node19" class="node">
<title>http://w3id.org/oseg/ont/okh#openScad</title>
<ellipse fill="none" stroke="#e377c2" cx="1686.11" cy="-159.51" rx="82.05" ry="16.03"/>
<text text-anchor="middle" x="1686.11" y="-155.81" font-family="Times,serif" font-size="14.00">okh:openScad</text>
</g>
<!-- http://w3id.org/oseg/ont/okh#openScad&#45;&gt;http://w3id.org/oseg/ont/okh#openSCAD -->
<g id="edge5" class="edge">
<title>http://w3id.org/oseg/ont/okh#openScad&#45;&gt;http://w3id.org/oseg/ont/okh#openSCAD</title>
<path fill="none" stroke="black" d="M1640.6,-173.12C1594.39,-190.72 1523.91,-220.94 1482.21,-241.14"/>
<polygon fill="black" stroke="black" points="1480.44,-238.11 1473.02,-245.66 1483.54,-244.39 1480.44,-238.11"/>
<text text-anchor="middle" x="1481.41" y="-210.93" font-family="Times,serif" font-size="14.00">schema:supersededBy</text>
</g>
<!-- http://w3id.org/oseg/ont/okh#openScad&#45;&gt;http://w3id.org/oseg/ont/okh#openSCAD -->
<g id="edge16" class="edge">
<title>http://w3id.org/oseg/ont/okh#openScad&#45;&gt;http://w3id.org/oseg/ont/okh#openSCAD</title>
<path fill="none" stroke="black" d="M1661,-175.08C1623.83,-193.72 1553.24,-224.33 1503.52,-243.73"/>
<polygon fill="black" stroke="black" points="1502.25,-240.47 1494.18,-247.33 1504.77,-247 1502.25,-240.47"/>
<text text-anchor="middle" x="1624.76" y="-213.21" font-family="Times,serif" font-size="14.00">owl:sameAs</text>
</g>
<!-- http://w3id.org/oseg/ont/okh#relatedTsdc -->
<g id="node22" class="node">
<title>http://w3id.org/oseg/ont/okh#relatedTsdc</title>
<ellipse fill="none" stroke="#e377c2" cx="924.61" cy="-873.33" rx="91.85" ry="16.03"/>
<text text-anchor="middle" x="924.61" y="-869.63" font-family="Times,serif" font-size="14.00">okh:relatedTsdc</text>
</g>
<!-- http://w3id.org/oseg/ont/okh#tsdc -->
<g id="node25" class="node">
<title>http://w3id.org/oseg/ont/okh#tsdc</title>
<ellipse fill="none" stroke="#e377c2" cx="1083.66" cy="-849.56" rx="54.39" ry="16.03"/>
<text text-anchor="middle" x="1083.66" y="-845.86" font-family="Times,serif" font-size="14.00">okh:tsdc</text>
</g>
<!-- http://w3id.org/oseg/ont/okh#relatedTsdc&#45;&gt;http://w3id.org/oseg/ont/okh#tsdc -->
<g id="edge13" class="edge">
<title>http://w3id.org/oseg/ont/okh#relatedTsdc&#45;&gt;http://w3id.org/oseg/ont/okh#tsdc</title>
<path fill="none" stroke="black" d="M1010.25,-867.34C1018.91,-866.01 1027.46,-864.58 1035.51,-863.12"/>
<polygon fill="black" stroke="black" points="1036.22,-866.54 1045.39,-861.25 1034.92,-859.67 1036.22,-866.54"/>
<text text-anchor="middle" x="1065.38" y="-869.03" font-family="Times,serif" font-size="14.00">owl:sameAs</text>
</g>
<!-- http://w3id.org/oseg/ont/okh#relatedTsdc&#45;&gt;http://w3id.org/oseg/ont/okh#tsdc -->
<g id="edge18" class="edge">
<title>http://w3id.org/oseg/ont/okh#relatedTsdc&#45;&gt;http://w3id.org/oseg/ont/okh#tsdc</title>
<path fill="none" stroke="black" d="M974,-859.55C988.28,-856.98 1004.08,-854.52 1019.14,-852.5"/>
<polygon fill="black" stroke="black" points="1019.95,-855.93 1029.42,-851.18 1019.06,-848.98 1019.95,-855.93"/>
<text text-anchor="middle" x="916.57" y="-844.83" font-family="Times,serif" font-size="14.00">schema:supersededBy</text>
</g>
<!-- http://w3id.org/oseg/ont/okh#alternativeLicense -->
<g id="node23" class="node">
<title>http://w3id.org/oseg/ont/okh#alternativeLicense</title>
<ellipse fill="none" stroke="#e377c2" cx="832.5" cy="-1608.92" rx="107.46" ry="16.03"/>
<text text-anchor="middle" x="832.5" y="-1605.22" font-family="Times,serif" font-size="14.00">okh:alternativeLi...</text>
</g>
<!-- http://w3id.org/oseg/ont/okh#alternativeLicense&#45;&gt;http://www.w3.org/2004/02/skos/core#Concept -->
<g id="edge29" class="edge">
<title>http://w3id.org/oseg/ont/okh#alternativeLicense&#45;&gt;http://www.w3.org/2004/02/skos/core#Concept</title>
<path fill="none" stroke="black" d="M855.2,-1592.72C905.88,-1556.55 1028.3,-1469.18 1085.4,-1428.42"/>
<polygon fill="black" stroke="black" points="1087.56,-1431.19 1093.66,-1422.53 1083.49,-1425.49 1087.56,-1431.19"/>
<text text-anchor="middle" x="965.8" y="-1514.37" font-family="Times,serif" font-size="14.00">a</text>
</g>
<!-- http://w3id.org/oseg/ont/okh#alternativeLicense&#45;&gt;http://w3id.org/oseg/ont/okhmetaLegalTag -->
<g id="edge11" class="edge">
<title>http://w3id.org/oseg/ont/okh#alternativeLicense&#45;&gt;http://w3id.org/oseg/ont/okhmetaLegalTag</title>
<path fill="none" stroke="black" d="M863.84,-1624.67C897.36,-1641.51 950.61,-1668.28 987.23,-1686.69"/>
<polygon fill="black" stroke="black" points="986.11,-1690.04 996.62,-1691.41 989.26,-1683.79 986.11,-1690.04"/>
<text text-anchor="middle" x="964.04" y="-1644.48" font-family="Times,serif" font-size="14.00">okhmeta:hasMetaTag</text>
</g>
<!-- http://w3id.org/oseg/ont/okh#alternativeLicense&#45;&gt;http://w3id.org/oseg/ont/okh#Module -->
<g id="edge8" class="edge">
<title>http://w3id.org/oseg/ont/okh#alternativeLicense&#45;&gt;http://w3id.org/oseg/ont/okh#Module</title>
<path fill="none" stroke="black" d="M821.89,-1625.42C810.37,-1643.31 791.87,-1672.06 778.59,-1692.69"/>
<polygon fill="black" stroke="black" points="775.55,-1690.95 773.08,-1701.25 781.44,-1694.74 775.55,-1690.95"/>
<text text-anchor="middle" x="722.24" y="-1662.85" font-family="Times,serif" font-size="14.00">dcam:domainIncludes</text>
</g>
<!-- http://w3id.org/oseg/ont/okh#alternativeLicense&#45;&gt;http://w3id.org/oseg/ont/okh#File -->
<g id="edge19" class="edge">
<title>http://w3id.org/oseg/ont/okh#alternativeLicense&#45;&gt;http://w3id.org/oseg/ont/okh#File</title>
<path fill="none" stroke="black" d="M789.98,-1623.96C734.18,-1643.7 636.71,-1678.18 580.02,-1698.23"/>
<polygon fill="black" stroke="black" points="578.53,-1695.04 570.27,-1701.68 580.86,-1701.64 578.53,-1695.04"/>
<text text-anchor="middle" x="612.5" y="-1649.89" font-family="Times,serif" font-size="14.00">dcam:rangeIncludes</text>
</g>
<!-- http://w3id.org/oseg/ont/okh#alternativeLicense&#45;&gt;http://schema.org/license -->
<g id="edge36" class="edge">
<title>http://w3id.org/oseg/ont/okh#alternativeLicense&#45;&gt;http://schema.org/license</title>
<path fill="none" stroke="black" d="M934.3,-1614.29C971.3,-1616.24 1012.95,-1618.43 1049.37,-1620.35"/>
<polygon fill="black" stroke="black" points="1049.33,-1623.86 1059.5,-1620.89 1049.7,-1616.86 1049.33,-1623.86"/>
<text text-anchor="middle" x="991.83" y="-1606.12" font-family="Times,serif" font-size="14.00">skos:closeMatch</text>
</g>
<!-- http://w3id.org/oseg/ont/okh#alternativeLicense&#45;&gt;http://w3id.org/oseg/ont/okh#license -->
<g id="edge41" class="edge">
<title>http://w3id.org/oseg/ont/okh#alternativeLicense&#45;&gt;http://w3id.org/oseg/ont/okh#license</title>
<path fill="none" stroke="black" d="M821.49,-1625.11C820.87,-1626.03 820.24,-1626.96 819.6,-1627.9"/>
<polygon fill="black" stroke="black" points="816.58,-1626.1 813.85,-1636.34 822.37,-1630.04 816.58,-1626.1"/>
<text text-anchor="middle" x="740.54" y="-1630.3" font-family="Times,serif" font-size="14.00">schema:supersededBy</text>
</g>
<!-- http://w3id.org/oseg/ont/okh#installationGuide -->
<g id="node29" class="node">
<title>http://w3id.org/oseg/ont/okh#installationGuide</title>
<ellipse fill="none" stroke="#e377c2" cx="1400.97" cy="-1548.18" rx="106.55" ry="16.03"/>
<text text-anchor="middle" x="1400.97" y="-1544.48" font-family="Times,serif" font-size="14.00">okh:installationG...</text>
</g>
<!-- http://w3id.org/oseg/ont/okh#installationGuide&#45;&gt;http://www.w3.org/2004/02/skos/core#Concept -->
<g id="edge21" class="edge">
<title>http://w3id.org/oseg/ont/okh#installationGuide&#45;&gt;http://www.w3.org/2004/02/skos/core#Concept</title>
<path fill="none" stroke="black" d="M1369.35,-1532.51C1316.99,-1506.56 1212.4,-1454.74 1155.24,-1426.41"/>
<polygon fill="black" stroke="black" points="1156.66,-1423.21 1146.15,-1421.91 1153.55,-1429.48 1156.66,-1423.21"/>
<text text-anchor="middle" x="1257.79" y="-1483.26" font-family="Times,serif" font-size="14.00">a</text>
</g>
<!-- http://w3id.org/oseg/ont/okh#installationGuide&#45;&gt;http://w3id.org/oseg/ont/okh#Software -->
<g id="edge3" class="edge">
<title>http://w3id.org/oseg/ont/okh#installationGuide&#45;&gt;http://w3id.org/oseg/ont/okh#Software</title>
<path fill="none" stroke="black" d="M1427.87,-1564.19C1470.59,-1589.62 1553.92,-1639.21 1600.97,-1667.22"/>
<polygon fill="black" stroke="black" points="1599.21,-1670.24 1609.6,-1672.35 1602.79,-1664.23 1599.21,-1670.24"/>
<text text-anchor="middle" x="1436.42" y="-1619.5" font-family="Times,serif" font-size="14.00">dcam:domainIncludes</text>
</g>
<!-- http://w3id.org/oseg/ont/okh#fileUrl -->
<g id="node34" class="node">
<title>http://w3id.org/oseg/ont/okh#fileUrl</title>
<ellipse fill="none" stroke="#e377c2" cx="283.89" cy="-1763.3" rx="65.11" ry="16.03"/>
<text text-anchor="middle" x="283.89" y="-1759.6" font-family="Times,serif" font-size="14.00">okh:fileUrl</text>
</g>
<!-- http://w3id.org/oseg/ont/okh#fileUrl&#45;&gt;http://schema.org/url -->
<g id="edge1" class="edge">
<title>http://w3id.org/oseg/ont/okh#fileUrl&#45;&gt;http://schema.org/url</title>
<path fill="none" stroke="black" d="M222.49,-1757.89C197.13,-1755.65 167.53,-1753.04 141.04,-1750.71"/>
<polygon fill="black" stroke="black" points="141.32,-1747.22 131.05,-1749.83 140.7,-1754.19 141.32,-1747.22"/>
<text text-anchor="middle" x="181.76" y="-1743.1" font-family="Times,serif" font-size="14.00">subPropertyOf</text>
</g>
<!-- http://w3id.org/oseg/ont/okh#fileUrl&#45;&gt;http://w3id.org/oseg/ont/okh#File -->
<g id="edge20" class="edge">
<title>http://w3id.org/oseg/ont/okh#fileUrl&#45;&gt;http://w3id.org/oseg/ont/okh#File</title>
<path fill="none" stroke="black" d="M335.15,-1753.24C377.61,-1744.91 437.81,-1733.11 481.15,-1724.61"/>
<polygon fill="black" stroke="black" points="482.09,-1727.99 491.23,-1722.63 480.75,-1721.12 482.09,-1727.99"/>
<text text-anchor="middle" x="330.15" y="-1727.72" font-family="Times,serif" font-size="14.00">dcam:domainIncludes</text>
</g>
<!-- http://w3id.org/oseg/ont/okh#url -->
<g id="node37" class="node">
<title>http://w3id.org/oseg/ont/okh#url</title>
<ellipse fill="none" stroke="#e377c2" cx="119.23" cy="-1868.61" rx="47.25" ry="16.03"/>
<text text-anchor="middle" x="119.23" y="-1864.91" font-family="Times,serif" font-size="14.00">okh:url</text>
</g>
<!-- http://w3id.org/oseg/ont/okh#fileUrl&#45;&gt;http://w3id.org/oseg/ont/okh#url -->
<g id="edge37" class="edge">
<title>http://w3id.org/oseg/ont/okh#fileUrl&#45;&gt;http://w3id.org/oseg/ont/okh#url</title>
<path fill="none" stroke="black" d="M259.94,-1778.61C231,-1797.12 182.23,-1828.32 150.38,-1848.69"/>
<polygon fill="black" stroke="black" points="148.42,-1845.79 141.88,-1854.13 152.19,-1851.69 148.42,-1845.79"/>
<text text-anchor="middle" x="125.16" y="-1817.45" font-family="Times,serif" font-size="14.00">schema:supersededBy</text>
</g>
</g>
</svg>
