<?xml version="1.0" encoding="UTF-8" standalone="no"?>
<!DOCTYPE svg PUBLIC "-//W3C//DTD SVG 1.1//EN"
 "http://www.w3.org/Graphics/SVG/1.1/DTD/svg11.dtd">
<!-- Generated by graphviz version 2.43.0 (0)
 -->
<!-- Title: G Pages: 1 -->
<svg width="1696pt" height="912pt"
 viewBox="0.00 0.00 1696.00 912.00" xmlns="http://www.w3.org/2000/svg" xmlns:xlink="http://www.w3.org/1999/xlink">
<g id="graph0" class="graph" transform="scale(1 1) rotate(0) translate(4 908)">
<title>G</title>
<polygon fill="white" stroke="transparent" points="-4,4 -4,-908 1692,-908 1692,4 -4,4"/>
<!-- http://www.w3.org/2002/07/owl#Ontology -->
<g id="node1" class="node">
<title>http://www.w3.org/2002/07/owl#Ontology</title>
<ellipse fill="none" stroke="#1f77b4" cx="1214.23" cy="-112.33" rx="77.56" ry="16.03"/>
<text text-anchor="middle" x="1214.23" y="-108.63" font-family="Times,serif" font-size="14.00">owl:Ontology</text>
</g>
<!-- http://w3id.org/oseg/ont/okhmeta#Tag -->
<g id="node2" class="node">
<title>http://w3id.org/oseg/ont/okhmeta#Tag</title>
<ellipse fill="none" stroke="#e377c2" cx="422.03" cy="-351.14" rx="76.24" ry="16.03"/>
<text text-anchor="middle" x="422.03" y="-347.44" font-family="Times,serif" font-size="14.00">okhmeta:Tag</text>
</g>
<!-- http://www.w3.org/2004/02/skos/core#Collection -->
<g id="node5" class="node">
<title>http://www.w3.org/2004/02/skos/core#Collection</title>
<ellipse fill="none" stroke="#e377c2" cx="143.44" cy="-147.39" rx="87.86" ry="16.03"/>
<text text-anchor="middle" x="143.44" y="-143.69" font-family="Times,serif" font-size="14.00">skos:Collection</text>
</g>
<!-- http://w3id.org/oseg/ont/okhmeta#Tag&#45;&gt;http://www.w3.org/2004/02/skos/core#Collection -->
<g id="edge43" class="edge">
<title>http://w3id.org/oseg/ont/okhmeta#Tag&#45;&gt;http://www.w3.org/2004/02/skos/core#Collection</title>
<path fill="none" stroke="black" d="M400.63,-335.49C351.42,-299.51 230.13,-210.8 173.49,-169.37"/>
<polygon fill="black" stroke="black" points="175.43,-166.46 165.29,-163.38 171.3,-172.11 175.43,-166.46"/>
</g>
<!-- http://www.w3.org/2004/02/skos/core#Concept -->
<g id="node6" class="node">
<title>http://www.w3.org/2004/02/skos/core#Concept</title>
<ellipse fill="none" stroke="#1f77b4" cx="695.98" cy="-491.56" rx="78.48" ry="16.03"/>
<text text-anchor="middle" x="695.98" y="-487.86" font-family="Times,serif" font-size="14.00">skos:Concept</text>
</g>
<!-- http://w3id.org/oseg/ont/okhmeta#Tag&#45;&gt;http://www.w3.org/2004/02/skos/core#Concept -->
<g id="edge35" class="edge">
<title>http://w3id.org/oseg/ont/okhmeta#Tag&#45;&gt;http://www.w3.org/2004/02/skos/core#Concept</title>
<path fill="none" stroke="black" d="M451.34,-366.17C501.06,-391.65 601.88,-443.33 657.31,-471.74"/>
<polygon fill="black" stroke="black" points="655.96,-474.98 666.46,-476.43 659.16,-468.76 655.96,-474.98"/>
<text text-anchor="middle" x="549.83" y="-422.76" font-family="Times,serif" font-size="14.00">a</text>
</g>
<!-- http://w3id.org/oseg/ont/okhmeta#MetaTag -->
<g id="node8" class="node">
<title>http://w3id.org/oseg/ont/okhmeta#MetaTag</title>
<ellipse fill="none" stroke="#e377c2" cx="486.69" cy="-392.63" rx="102.56" ry="16.03"/>
<text text-anchor="middle" x="486.69" y="-388.93" font-family="Times,serif" font-size="14.00">okhmeta:MetaTag</text>
</g>
<!-- http://w3id.org/oseg/ont/okhmeta#Tag&#45;&gt;http://w3id.org/oseg/ont/okhmeta#MetaTag -->
<g id="edge33" class="edge">
<title>http://w3id.org/oseg/ont/okhmeta#Tag&#45;&gt;http://w3id.org/oseg/ont/okhmeta#MetaTag</title>
<path fill="none" stroke="black" d="M436.08,-367.36C437.81,-368.68 439.64,-370.03 441.53,-371.37"/>
<polygon fill="black" stroke="black" points="439.94,-374.52 450.19,-377.23 443.86,-368.73 439.94,-374.52"/>
<text text-anchor="middle" x="361.81" y="-373.16" font-family="Times,serif" font-size="14.00">okhmeta:hasMetaTag</text>
</g>
<!-- http://spdx.org/rdf/terms#SpdxItem -->
<g id="node3" class="node">
<title>http://spdx.org/rdf/terms#SpdxItem</title>
<ellipse fill="none" stroke="#1f77b4" cx="1599.95" cy="-210.89" rx="87.86" ry="16.03"/>
<text text-anchor="middle" x="1599.95" y="-207.19" font-family="Times,serif" font-size="14.00">spdx:SpdxItem</text>
</g>
<!-- http://www.w3.org/2002/07/owl#ObjectProperty -->
<g id="node4" class="node">
<title>http://www.w3.org/2002/07/owl#ObjectProperty</title>
<ellipse fill="none" stroke="#1f77b4" cx="1203.01" cy="-887.74" rx="109.7" ry="16.03"/>
<text text-anchor="middle" x="1203.01" y="-884.04" font-family="Times,serif" font-size="14.00">owl:ObjectProperty</text>
</g>
<!-- http://w3id.org/oseg/ont/okhmeta#IdentificationTag -->
<g id="node7" class="node">
<title>http://w3id.org/oseg/ont/okhmeta#IdentificationTag</title>
<ellipse fill="none" stroke="#e377c2" cx="357.37" cy="-59.56" rx="109.7" ry="16.03"/>
<text text-anchor="middle" x="357.37" y="-55.86" font-family="Times,serif" font-size="14.00">okhmeta:Identific...</text>
</g>
<!-- http://w3id.org/oseg/ont/okhmeta#IdentificationTag&#45;&gt;http://w3id.org/oseg/ont/okhmeta#Tag -->
<g id="edge28" class="edge">
<title>http://w3id.org/oseg/ont/okhmeta#IdentificationTag&#45;&gt;http://w3id.org/oseg/ont/okhmeta#Tag</title>
<path fill="none" stroke="black" d="M361.03,-76.08C371.74,-124.39 403.1,-265.78 416.18,-324.79"/>
<polygon fill="black" stroke="black" points="412.82,-325.8 418.4,-334.81 419.66,-324.29 412.82,-325.8"/>
<text text-anchor="middle" x="384.11" y="-204.23" font-family="Times,serif" font-size="14.00">a</text>
</g>
<!-- http://w3id.org/oseg/ont/okhmeta#IdentificationTag&#45;&gt;http://w3id.org/oseg/ont/okhmeta#MetaTag -->
<g id="edge47" class="edge">
<title>http://w3id.org/oseg/ont/okhmeta#IdentificationTag&#45;&gt;http://w3id.org/oseg/ont/okhmeta#MetaTag</title>
<path fill="none" stroke="black" d="M363.78,-76.08C384.68,-129.91 450.94,-300.56 476.5,-366.38"/>
<polygon fill="black" stroke="black" points="473.35,-367.96 480.24,-376.01 479.88,-365.43 473.35,-367.96"/>
<text text-anchor="middle" x="497.14" y="-210.03" font-family="Times,serif" font-size="14.00">okhmeta:hasMetaTag</text>
</g>
<!-- http://w3id.org/oseg/ont/okhmeta#MetaTag&#45;&gt;http://w3id.org/oseg/ont/okhmeta#Tag -->
<g id="edge23" class="edge">
<title>http://w3id.org/oseg/ont/okhmeta#MetaTag&#45;&gt;http://w3id.org/oseg/ont/okhmeta#Tag</title>
<path fill="none" stroke="black" d="M472.63,-376.41C470.47,-374.76 468.16,-373.07 465.75,-371.39"/>
<polygon fill="black" stroke="black" points="467.54,-368.38 457.28,-365.74 463.66,-374.2 467.54,-368.38"/>
<text text-anchor="middle" x="464.69" y="-362.7" font-family="Times,serif" font-size="14.00">a</text>
</g>
<!-- http://w3id.org/oseg/ont/okhmeta#MetaTag&#45;&gt;http://w3id.org/oseg/ont/okhmeta#MetaTag -->
<g id="edge44" class="edge">
<title>http://w3id.org/oseg/ont/okhmeta#MetaTag&#45;&gt;http://w3id.org/oseg/ont/okhmeta#MetaTag</title>
<path fill="none" stroke="black" d="M581.68,-398.85C596.84,-397.94 607.22,-395.87 607.22,-392.63 607.22,-390.18 601.26,-388.4 591.77,-387.28"/>
<polygon fill="black" stroke="black" points="591.94,-383.78 581.68,-386.42 591.34,-390.76 591.94,-383.78"/>
<text text-anchor="middle" x="684.22" y="-388.93" font-family="Times,serif" font-size="14.00">okhmeta:hasMetaTag</text>
</g>
<!-- http://w3id.org/oseg/ont/okhmeta#ExtendedInfoTag -->
<g id="node9" class="node">
<title>http://w3id.org/oseg/ont/okhmeta#ExtendedInfoTag</title>
<ellipse fill="none" stroke="#e377c2" cx="247.3" cy="-104.24" rx="120.42" ry="16.03"/>
<text text-anchor="middle" x="247.3" y="-100.54" font-family="Times,serif" font-size="14.00">okhmeta:ExtendedI...</text>
</g>
<!-- http://w3id.org/oseg/ont/okhmeta#ExtendedInfoTag&#45;&gt;http://w3id.org/oseg/ont/okhmeta#Tag -->
<g id="edge1" class="edge">
<title>http://w3id.org/oseg/ont/okhmeta#ExtendedInfoTag&#45;&gt;http://w3id.org/oseg/ont/okhmeta#Tag</title>
<path fill="none" stroke="black" d="M258.77,-120.44C288.63,-162.65 368.98,-276.18 404.61,-326.53"/>
<polygon fill="black" stroke="black" points="401.89,-328.74 410.52,-334.88 407.6,-324.7 401.89,-328.74"/>
<text text-anchor="middle" x="327.19" y="-227.29" font-family="Times,serif" font-size="14.00">a</text>
</g>
<!-- http://w3id.org/oseg/ont/okhmeta#ExtendedInfoTag&#45;&gt;http://w3id.org/oseg/ont/okhmeta#MetaTag -->
<g id="edge41" class="edge">
<title>http://w3id.org/oseg/ont/okhmeta#ExtendedInfoTag&#45;&gt;http://w3id.org/oseg/ont/okhmeta#MetaTag</title>
<path fill="none" stroke="black" d="M260.86,-120.58C301.02,-168.96 419.51,-311.7 466.83,-368.71"/>
<polygon fill="black" stroke="black" points="464.2,-371.02 473.28,-376.48 469.59,-366.55 464.2,-371.02"/>
<text text-anchor="middle" x="440.84" y="-248.44" font-family="Times,serif" font-size="14.00">okhmeta:hasMetaTag</text>
</g>
<!-- http://w3id.org/oseg/ont/1.1.0/okh&#45;meta -->
<g id="node10" class="node">
<title>http://w3id.org/oseg/ont/1.1.0/okh&#45;meta</title>
<ellipse fill="none" stroke="#e377c2" cx="1276.27" cy="-239.36" rx="79.81" ry="16.03"/>
<text text-anchor="middle" x="1276.27" y="-235.66" font-family="Times,serif" font-size="14.00">ns1:okh&#45;meta</text>
</g>
<!-- http://w3id.org/oseg/ont/okhmeta#DevelopmentTag -->
<g id="node11" class="node">
<title>http://w3id.org/oseg/ont/okhmeta#DevelopmentTag</title>
<ellipse fill="none" stroke="#e377c2" cx="126.94" cy="-262.26" rx="124.4" ry="16.03"/>
<text text-anchor="middle" x="126.94" y="-258.56" font-family="Times,serif" font-size="14.00">okhmeta:Developme...</text>
</g>
<!-- http://w3id.org/oseg/ont/okhmeta#DevelopmentTag&#45;&gt;http://w3id.org/oseg/ont/okhmeta#Tag -->
<g id="edge3" class="edge">
<title>http://w3id.org/oseg/ont/okhmeta#DevelopmentTag&#45;&gt;http://w3id.org/oseg/ont/okhmeta#Tag</title>
<path fill="none" stroke="black" d="M176.66,-277.24C229.7,-293.21 313.43,-318.43 368.05,-334.88"/>
<polygon fill="black" stroke="black" points="367.31,-338.31 377.89,-337.85 369.32,-331.61 367.31,-338.31"/>
<text text-anchor="middle" x="267.85" y="-309.86" font-family="Times,serif" font-size="14.00">a</text>
</g>
<!-- http://w3id.org/oseg/ont/okhmeta#DevelopmentTag&#45;&gt;http://w3id.org/oseg/ont/okhmeta#MetaTag -->
<g id="edge25" class="edge">
<title>http://w3id.org/oseg/ont/okhmeta#DevelopmentTag&#45;&gt;http://w3id.org/oseg/ont/okhmeta#MetaTag</title>
<path fill="none" stroke="black" d="M169.27,-277.6C235.7,-301.68 364.22,-348.25 435.67,-374.14"/>
<polygon fill="black" stroke="black" points="434.76,-377.54 445.36,-377.65 437.15,-370.96 434.76,-377.54"/>
<text text-anchor="middle" x="225.47" y="-329.67" font-family="Times,serif" font-size="14.00">okhmeta:hasMetaTag</text>
</g>
<!-- http://spdx.org/licenses/GPL&#45;3.0&#45;or&#45;later -->
<g id="node12" class="node">
<title>http://spdx.org/licenses/GPL&#45;3.0&#45;or&#45;later</title>
<ellipse fill="none" stroke="#e377c2" cx="1165.33" cy="-372.43" rx="108.79" ry="16.03"/>
<text text-anchor="middle" x="1165.33" y="-368.73" font-family="Times,serif" font-size="14.00">spdxl:GPL&#45;3.0&#45;or&#45;...</text>
</g>
<!-- http://w3id.org/oseg/ont/okhmeta#PhysicalTag -->
<g id="node13" class="node">
<title>http://w3id.org/oseg/ont/okhmeta#PhysicalTag</title>
<ellipse fill="none" stroke="#e377c2" cx="485.85" cy="-16.21" rx="118.17" ry="16.03"/>
<text text-anchor="middle" x="485.85" y="-12.51" font-family="Times,serif" font-size="14.00">okhmeta:PhysicalTag</text>
</g>
<!-- http://w3id.org/oseg/ont/okhmeta#PhysicalTag&#45;&gt;http://w3id.org/oseg/ont/okhmeta#Tag -->
<g id="edge32" class="edge">
<title>http://w3id.org/oseg/ont/okhmeta#PhysicalTag&#45;&gt;http://w3id.org/oseg/ont/okhmeta#Tag</title>
<path fill="none" stroke="black" d="M482.69,-32.82C472.37,-86.96 439.65,-258.64 427.05,-324.8"/>
<polygon fill="black" stroke="black" points="423.57,-324.35 425.13,-334.83 430.44,-325.66 423.57,-324.35"/>
<text text-anchor="middle" x="450.37" y="-182.61" font-family="Times,serif" font-size="14.00">a</text>
</g>
<!-- http://w3id.org/oseg/ont/okhmeta#PhysicalTag&#45;&gt;http://w3id.org/oseg/ont/okhmeta#MetaTag -->
<g id="edge11" class="edge">
<title>http://w3id.org/oseg/ont/okhmeta#PhysicalTag&#45;&gt;http://w3id.org/oseg/ont/okhmeta#MetaTag</title>
<path fill="none" stroke="black" d="M485.89,-32.87C486.02,-92.14 486.47,-293.16 486.63,-366"/>
<polygon fill="black" stroke="black" points="483.13,-366.17 486.65,-376.16 490.13,-366.16 483.13,-366.17"/>
<text text-anchor="middle" x="563.26" y="-188.23" font-family="Times,serif" font-size="14.00">okhmeta:hasMetaTag</text>
</g>
<!-- http://w3id.org/oseg/ont/okhmeta#hasMetaTag -->
<g id="node14" class="node">
<title>http://w3id.org/oseg/ont/okhmeta#hasMetaTag</title>
<ellipse fill="none" stroke="#e377c2" cx="916.2" cy="-605.79" rx="120.42" ry="16.03"/>
<text text-anchor="middle" x="916.2" y="-602.09" font-family="Times,serif" font-size="14.00">okhmeta:hasMetaTag</text>
</g>
<!-- http://w3id.org/oseg/ont/okhmeta#hasMetaTag&#45;&gt;http://www.w3.org/2002/07/owl#ObjectProperty -->
<g id="edge34" class="edge">
<title>http://w3id.org/oseg/ont/okhmeta#hasMetaTag&#45;&gt;http://www.w3.org/2002/07/owl#ObjectProperty</title>
<path fill="none" stroke="black" d="M932.86,-622.17C981.27,-669.76 1122.1,-808.2 1178.87,-864.01"/>
<polygon fill="black" stroke="black" points="1176.71,-866.8 1186.3,-871.31 1181.62,-861.81 1176.71,-866.8"/>
<text text-anchor="middle" x="1051.36" y="-746.89" font-family="Times,serif" font-size="14.00">a</text>
</g>
<!-- http://w3id.org/oseg/ont/okhmeta#hasMetaTag&#45;&gt;http://www.w3.org/2004/02/skos/core#Concept -->
<g id="edge14" class="edge">
<title>http://w3id.org/oseg/ont/okhmeta#hasMetaTag&#45;&gt;http://www.w3.org/2004/02/skos/core#Concept</title>
<path fill="none" stroke="black" d="M885.58,-589.91C846.05,-569.4 777.26,-533.72 734.3,-511.44"/>
<polygon fill="black" stroke="black" points="735.78,-508.26 725.29,-506.76 732.55,-514.48 735.78,-508.26"/>
<text text-anchor="middle" x="805.44" y="-554.47" font-family="Times,serif" font-size="14.00">a</text>
</g>
<!-- http://w3id.org/oseg/ont/okhmeta#hasMetaTag&#45;&gt;http://w3id.org/oseg/ont/okhmeta#MetaTag -->
<g id="edge12" class="edge">
<title>http://w3id.org/oseg/ont/okhmeta#hasMetaTag&#45;&gt;http://w3id.org/oseg/ont/okhmeta#MetaTag</title>
<path fill="none" stroke="black" d="M891.82,-589.86C823.22,-551.27 627.65,-453.85 535.64,-412"/>
<polygon fill="black" stroke="black" points="536.82,-408.7 526.27,-407.77 533.94,-415.08 536.82,-408.7"/>
<text text-anchor="middle" x="790.73" y="-504.73" font-family="Times,serif" font-size="14.00">okhmeta:hasMetaTag</text>
</g>
<!-- http://w3id.org/oseg/ont/okhmeta#hasMetaTag&#45;&gt;http://w3id.org/oseg/ont/okhmeta#MetaTag -->
<g id="edge30" class="edge">
<title>http://w3id.org/oseg/ont/okhmeta#hasMetaTag&#45;&gt;http://w3id.org/oseg/ont/okhmeta#MetaTag</title>
<path fill="none" stroke="black" d="M875.9,-590.32C791.48,-552.49 597.54,-456.18 519.79,-413.41"/>
<polygon fill="black" stroke="black" points="521.34,-410.27 510.9,-408.47 517.94,-416.39 521.34,-410.27"/>
<text text-anchor="middle" x="625.35" y="-505.67" font-family="Times,serif" font-size="14.00">dcam:rangeIncludes</text>
</g>
<!-- http://www.w3.org/2004/02/skos/core#member -->
<g id="node21" class="node">
<title>http://www.w3.org/2004/02/skos/core#member</title>
<ellipse fill="none" stroke="#e377c2" cx="1277.9" cy="-658.75" rx="79.39" ry="16.03"/>
<text text-anchor="middle" x="1277.9" y="-655.05" font-family="Times,serif" font-size="14.00">skos:member</text>
</g>
<!-- http://w3id.org/oseg/ont/okhmeta#hasMetaTag&#45;&gt;http://www.w3.org/2004/02/skos/core#member -->
<g id="edge10" class="edge">
<title>http://w3id.org/oseg/ont/okhmeta#hasMetaTag&#45;&gt;http://www.w3.org/2004/02/skos/core#member</title>
<path fill="none" stroke="black" d="M997.82,-617.74C1059.47,-626.77 1143.4,-639.06 1203.27,-647.83"/>
<polygon fill="black" stroke="black" points="1203.01,-651.32 1213.41,-649.31 1204.03,-644.4 1203.01,-651.32"/>
<text text-anchor="middle" x="1047.55" y="-636.58" font-family="Times,serif" font-size="14.00">subPropertyOf</text>
</g>
<!-- http://w3id.org/oseg/ont/okhmeta#QualityTag -->
<g id="node15" class="node">
<title>http://w3id.org/oseg/ont/okhmeta#QualityTag</title>
<ellipse fill="none" stroke="#e377c2" cx="256.49" cy="-635.1" rx="113.27" ry="16.03"/>
<text text-anchor="middle" x="256.49" y="-631.4" font-family="Times,serif" font-size="14.00">okhmeta:QualityTag</text>
</g>
<!-- http://w3id.org/oseg/ont/okhmeta#QualityTag&#45;&gt;http://w3id.org/oseg/ont/okhmeta#Tag -->
<g id="edge6" class="edge">
<title>http://w3id.org/oseg/ont/okhmeta#QualityTag&#45;&gt;http://w3id.org/oseg/ont/okhmeta#Tag</title>
<path fill="none" stroke="black" d="M266.1,-618.6C293.88,-570.95 374.38,-432.87 407.51,-376.03"/>
<polygon fill="black" stroke="black" points="410.58,-377.73 412.59,-367.33 404.53,-374.2 410.58,-377.73"/>
<text text-anchor="middle" x="332.31" y="-501.12" font-family="Times,serif" font-size="14.00">a</text>
</g>
<!-- http://w3id.org/oseg/ont/okhmeta#QualityTag&#45;&gt;http://w3id.org/oseg/ont/okhmeta#MetaTag -->
<g id="edge27" class="edge">
<title>http://w3id.org/oseg/ont/okhmeta#QualityTag&#45;&gt;http://w3id.org/oseg/ont/okhmeta#MetaTag</title>
<path fill="none" stroke="black" d="M271.95,-618.81C311.76,-576.89 417.89,-465.09 464.37,-416.14"/>
<polygon fill="black" stroke="black" points="466.95,-418.51 471.29,-408.85 461.87,-413.69 466.95,-418.51"/>
<text text-anchor="middle" x="291.16" y="-521.28" font-family="Times,serif" font-size="14.00">okhmeta:hasMetaTag</text>
</g>
<!-- http://w3id.org/oseg/ont/okhmeta#AcademicTag -->
<g id="node16" class="node">
<title>http://w3id.org/oseg/ont/okhmeta#AcademicTag</title>
<ellipse fill="none" stroke="#e377c2" cx="155.47" cy="-577.8" rx="124.4" ry="16.03"/>
<text text-anchor="middle" x="155.47" y="-574.1" font-family="Times,serif" font-size="14.00">okhmeta:AcademicTag</text>
</g>
<!-- http://w3id.org/oseg/ont/okhmeta#AcademicTag&#45;&gt;http://w3id.org/oseg/ont/okhmeta#Tag -->
<g id="edge7" class="edge">
<title>http://w3id.org/oseg/ont/okhmeta#AcademicTag&#45;&gt;http://w3id.org/oseg/ont/okhmeta#Tag</title>
<path fill="none" stroke="black" d="M174.64,-561.5C221.53,-521.63 342.1,-419.1 395.68,-373.54"/>
<polygon fill="black" stroke="black" points="398.03,-376.14 403.38,-366.99 393.5,-370.8 398.03,-376.14"/>
<text text-anchor="middle" x="280.66" y="-471.32" font-family="Times,serif" font-size="14.00">a</text>
</g>
<!-- http://w3id.org/oseg/ont/okhmeta#AcademicTag&#45;&gt;http://w3id.org/oseg/ont/okhmeta#MetaTag -->
<g id="edge29" class="edge">
<title>http://w3id.org/oseg/ont/okhmeta#AcademicTag&#45;&gt;http://w3id.org/oseg/ont/okhmeta#MetaTag</title>
<path fill="none" stroke="black" d="M184,-561.85C243.94,-528.34 382.95,-450.62 449.67,-413.33"/>
<polygon fill="black" stroke="black" points="451.56,-416.28 458.58,-408.34 448.15,-410.17 451.56,-416.28"/>
<text text-anchor="middle" x="239.83" y="-491.39" font-family="Times,serif" font-size="14.00">okhmeta:hasMetaTag</text>
</g>
<!-- http://w3id.org/oseg/ont/okhmeta#DataTag -->
<g id="node17" class="node">
<title>http://w3id.org/oseg/ont/okhmeta#DataTag</title>
<ellipse fill="none" stroke="#e377c2" cx="172.27" cy="-470.37" rx="100.32" ry="16.03"/>
<text text-anchor="middle" x="172.27" y="-466.67" font-family="Times,serif" font-size="14.00">okhmeta:DataTag</text>
</g>
<!-- http://w3id.org/oseg/ont/okhmeta#DataTag&#45;&gt;http://w3id.org/oseg/ont/okhmeta#Tag -->
<g id="edge8" class="edge">
<title>http://w3id.org/oseg/ont/okhmeta#DataTag&#45;&gt;http://w3id.org/oseg/ont/okhmeta#Tag</title>
<path fill="none" stroke="black" d="M204.67,-454.9C250.05,-433.24 332.51,-393.88 381.77,-370.36"/>
<polygon fill="black" stroke="black" points="383.35,-373.48 390.87,-366.01 380.33,-367.16 383.35,-373.48"/>
<text text-anchor="middle" x="288.72" y="-416.43" font-family="Times,serif" font-size="14.00">a</text>
</g>
<!-- http://w3id.org/oseg/ont/okhmeta#DataTag&#45;&gt;http://w3id.org/oseg/ont/okhmeta#MetaTag -->
<g id="edge4" class="edge">
<title>http://w3id.org/oseg/ont/okhmeta#DataTag&#45;&gt;http://w3id.org/oseg/ont/okhmeta#MetaTag</title>
<path fill="none" stroke="black" d="M227.4,-456.74C281.4,-443.39 363.7,-423.04 421.05,-408.86"/>
<polygon fill="black" stroke="black" points="422.23,-412.17 431.1,-406.38 420.55,-405.38 422.23,-412.17"/>
<text text-anchor="middle" x="247.22" y="-436.6" font-family="Times,serif" font-size="14.00">okhmeta:hasMetaTag</text>
</g>
<!-- http://w3id.org/oseg/ont/okhmeta#DataGatheringTag -->
<g id="node18" class="node">
<title>http://w3id.org/oseg/ont/okhmeta#DataGatheringTag</title>
<ellipse fill="none" stroke="#e377c2" cx="605.87" cy="-64.03" rx="122.16" ry="16.03"/>
<text text-anchor="middle" x="605.87" y="-60.33" font-family="Times,serif" font-size="14.00">okhmeta:DataGathe...</text>
</g>
<!-- http://w3id.org/oseg/ont/okhmeta#DataGatheringTag&#45;&gt;http://w3id.org/oseg/ont/okhmeta#Tag -->
<g id="edge9" class="edge">
<title>http://w3id.org/oseg/ont/okhmeta#DataGatheringTag&#45;&gt;http://w3id.org/oseg/ont/okhmeta#Tag</title>
<path fill="none" stroke="black" d="M595.46,-80.29C564.82,-128.15 474.79,-268.74 437.98,-326.22"/>
<polygon fill="black" stroke="black" points="435,-324.4 432.55,-334.7 440.89,-328.17 435,-324.4"/>
<text text-anchor="middle" x="512.22" y="-192.06" font-family="Times,serif" font-size="14.00">a</text>
</g>
<!-- http://w3id.org/oseg/ont/okhmeta#DataGatheringTag&#45;&gt;http://w3id.org/oseg/ont/okhmeta#MetaTag -->
<g id="edge31" class="edge">
<title>http://w3id.org/oseg/ont/okhmeta#DataGatheringTag&#45;&gt;http://w3id.org/oseg/ont/okhmeta#MetaTag</title>
<path fill="none" stroke="black" d="M599.96,-80.33C580.7,-133.43 519.63,-301.8 496.08,-366.74"/>
<polygon fill="black" stroke="black" points="492.75,-365.64 492.63,-376.24 499.33,-368.03 492.75,-365.64"/>
<text text-anchor="middle" x="471.02" y="-227.33" font-family="Times,serif" font-size="14.00">okhmeta:hasMetaTag</text>
</g>
<!-- http://w3id.org/oseg/ont/oseg&#45;profiles#Iopa -->
<g id="node19" class="node">
<title>http://w3id.org/oseg/ont/oseg&#45;profiles#Iopa</title>
<ellipse fill="none" stroke="#e377c2" cx="1439.69" cy="-496.34" rx="80.72" ry="16.03"/>
<text text-anchor="middle" x="1439.69" y="-492.64" font-family="Times,serif" font-size="14.00">osegprof:Iopa</text>
</g>
<!-- http://w3id.org/oseg/ont/okhmeta#HistoryTag -->
<g id="node20" class="node">
<title>http://w3id.org/oseg/ont/okhmeta#HistoryTag</title>
<ellipse fill="none" stroke="#e377c2" cx="113.67" cy="-377.8" rx="113.69" ry="16.03"/>
<text text-anchor="middle" x="113.67" y="-374.1" font-family="Times,serif" font-size="14.00">okhmeta:HistoryTag</text>
</g>
<!-- http://w3id.org/oseg/ont/okhmeta#HistoryTag&#45;&gt;http://w3id.org/oseg/ont/okhmeta#Tag -->
<g id="edge37" class="edge">
<title>http://w3id.org/oseg/ont/okhmeta#HistoryTag&#45;&gt;http://w3id.org/oseg/ont/okhmeta#Tag</title>
<path fill="none" stroke="black" d="M211.24,-369.36C252.95,-365.76 301.09,-361.6 340.82,-358.16"/>
<polygon fill="black" stroke="black" points="341.33,-361.63 350.99,-357.28 340.73,-354.66 341.33,-361.63"/>
<text text-anchor="middle" x="271.53" y="-367.56" font-family="Times,serif" font-size="14.00">a</text>
</g>
<!-- http://w3id.org/oseg/ont/okhmeta#HistoryTag&#45;&gt;http://w3id.org/oseg/ont/okhmeta#MetaTag -->
<g id="edge46" class="edge">
<title>http://w3id.org/oseg/ont/okhmeta#HistoryTag&#45;&gt;http://w3id.org/oseg/ont/okhmeta#MetaTag</title>
<path fill="none" stroke="black" d="M223.57,-382.17C271.92,-384.09 328.59,-386.35 376.93,-388.27"/>
<polygon fill="black" stroke="black" points="376.98,-391.77 387.11,-388.67 377.26,-384.78 376.98,-391.77"/>
<text text-anchor="middle" x="223.25" y="-389.02" font-family="Times,serif" font-size="14.00">okhmeta:hasMetaTag</text>
</g>
<!-- http://w3id.org/oseg/ont/oseg&#45;profiles#robinVobruba -->
<g id="node22" class="node">
<title>http://w3id.org/oseg/ont/oseg&#45;profiles#robinVobruba</title>
<ellipse fill="none" stroke="#e377c2" cx="1413.06" cy="-322.34" rx="113.69" ry="16.03"/>
<text text-anchor="middle" x="1413.06" y="-318.64" font-family="Times,serif" font-size="14.00">osegprof:robinVob...</text>
</g>
<!-- http://w3id.org/oseg/ont/okhmeta#DocumentationTag -->
<g id="node23" class="node">
<title>http://w3id.org/oseg/ont/okhmeta#DocumentationTag</title>
<ellipse fill="none" stroke="#e377c2" cx="699.69" cy="-117.35" rx="125.32" ry="16.03"/>
<text text-anchor="middle" x="699.69" y="-113.65" font-family="Times,serif" font-size="14.00">okhmeta:Documenta...</text>
</g>
<!-- http://w3id.org/oseg/ont/okhmeta#DocumentationTag&#45;&gt;http://w3id.org/oseg/ont/okhmeta#Tag -->
<g id="edge16" class="edge">
<title>http://w3id.org/oseg/ont/okhmeta#DocumentationTag&#45;&gt;http://w3id.org/oseg/ont/okhmeta#Tag</title>
<path fill="none" stroke="black" d="M680.16,-133.79C631.44,-174.82 504.41,-281.78 448.78,-328.62"/>
<polygon fill="black" stroke="black" points="446.19,-326.22 440.79,-335.34 450.7,-331.57 446.19,-326.22"/>
<text text-anchor="middle" x="559.97" y="-235" font-family="Times,serif" font-size="14.00">a</text>
</g>
<!-- http://w3id.org/oseg/ont/okhmeta#DocumentationTag&#45;&gt;http://w3id.org/oseg/ont/okhmeta#MetaTag -->
<g id="edge38" class="edge">
<title>http://w3id.org/oseg/ont/okhmeta#DocumentationTag&#45;&gt;http://w3id.org/oseg/ont/okhmeta#MetaTag</title>
<path fill="none" stroke="black" d="M687,-133.75C651.04,-180.22 548.29,-313.02 505.62,-368.16"/>
<polygon fill="black" stroke="black" points="502.66,-366.27 499.31,-376.32 508.2,-370.55 502.66,-366.27"/>
<text text-anchor="middle" x="673.31" y="-254.76" font-family="Times,serif" font-size="14.00">okhmeta:hasMetaTag</text>
</g>
<!-- http://w3id.org/oseg/ont/okhmeta#PartsTag -->
<g id="node24" class="node">
<title>http://w3id.org/oseg/ont/okhmeta#PartsTag</title>
<ellipse fill="none" stroke="#e377c2" cx="321.68" cy="-676.25" rx="103.48" ry="16.03"/>
<text text-anchor="middle" x="321.68" y="-672.55" font-family="Times,serif" font-size="14.00">okhmeta:PartsTag</text>
</g>
<!-- http://w3id.org/oseg/ont/okhmeta#PartsTag&#45;&gt;http://w3id.org/oseg/ont/okhmeta#Tag -->
<g id="edge17" class="edge">
<title>http://w3id.org/oseg/ont/okhmeta#PartsTag&#45;&gt;http://w3id.org/oseg/ont/okhmeta#Tag</title>
<path fill="none" stroke="black" d="M326.79,-659.68C343.1,-606.85 393.95,-442.09 413.89,-377.5"/>
<polygon fill="black" stroke="black" points="417.32,-378.26 416.92,-367.68 410.63,-376.2 417.32,-378.26"/>
<text text-anchor="middle" x="374.84" y="-522.39" font-family="Times,serif" font-size="14.00">a</text>
</g>
<!-- http://w3id.org/oseg/ont/okhmeta#PartsTag&#45;&gt;http://w3id.org/oseg/ont/okhmeta#MetaTag -->
<g id="edge39" class="edge">
<title>http://w3id.org/oseg/ont/okhmeta#PartsTag&#45;&gt;http://w3id.org/oseg/ont/okhmeta#MetaTag</title>
<path fill="none" stroke="black" d="M331.26,-659.78C358.89,-612.29 438.82,-474.91 471.99,-417.9"/>
<polygon fill="black" stroke="black" points="475.07,-419.56 477.08,-409.15 469.02,-416.03 475.07,-419.56"/>
<text text-anchor="middle" x="324.63" y="-542.64" font-family="Times,serif" font-size="14.00">okhmeta:hasMetaTag</text>
</g>
<!-- http://w3id.org/oseg/ont/okhmeta#MakingTag -->
<g id="node25" class="node">
<title>http://w3id.org/oseg/ont/okhmeta#MakingTag</title>
<ellipse fill="none" stroke="#e377c2" cx="636.29" cy="-629.38" rx="113.69" ry="16.03"/>
<text text-anchor="middle" x="636.29" y="-625.68" font-family="Times,serif" font-size="14.00">okhmeta:MakingTag</text>
</g>
<!-- http://w3id.org/oseg/ont/okhmeta#MakingTag&#45;&gt;http://w3id.org/oseg/ont/okhmeta#Tag -->
<g id="edge18" class="edge">
<title>http://w3id.org/oseg/ont/okhmeta#MakingTag&#45;&gt;http://w3id.org/oseg/ont/okhmeta#Tag</title>
<path fill="none" stroke="black" d="M623.53,-612.81C587.27,-565.72 483.5,-430.97 440.77,-375.48"/>
<polygon fill="black" stroke="black" points="443.33,-373.06 434.45,-367.28 437.78,-377.34 443.33,-373.06"/>
<text text-anchor="middle" x="527.65" y="-497.94" font-family="Times,serif" font-size="14.00">a</text>
</g>
<!-- http://w3id.org/oseg/ont/okhmeta#MakingTag&#45;&gt;http://w3id.org/oseg/ont/okhmeta#MetaTag -->
<g id="edge40" class="edge">
<title>http://w3id.org/oseg/ont/okhmeta#MakingTag&#45;&gt;http://w3id.org/oseg/ont/okhmeta#MetaTag</title>
<path fill="none" stroke="black" d="M626.01,-613.11C600.33,-572.47 533.27,-466.35 502.52,-417.68"/>
<polygon fill="black" stroke="black" points="505.34,-415.6 497.04,-409.02 499.43,-419.34 505.34,-415.6"/>
<text text-anchor="middle" x="487.26" y="-519.19" font-family="Times,serif" font-size="14.00">okhmeta:hasMetaTag</text>
</g>
<!-- http://w3id.org/oseg/ont/okhmeta#LegalTag -->
<g id="node26" class="node">
<title>http://w3id.org/oseg/ont/okhmeta#LegalTag</title>
<ellipse fill="none" stroke="#e377c2" cx="730.05" cy="-231.03" rx="103.89" ry="16.03"/>
<text text-anchor="middle" x="730.05" y="-227.33" font-family="Times,serif" font-size="14.00">okhmeta:LegalTag</text>
</g>
<!-- http://w3id.org/oseg/ont/okhmeta#LegalTag&#45;&gt;http://w3id.org/oseg/ont/okhmeta#Tag -->
<g id="edge45" class="edge">
<title>http://w3id.org/oseg/ont/okhmeta#LegalTag&#45;&gt;http://w3id.org/oseg/ont/okhmeta#Tag</title>
<path fill="none" stroke="black" d="M691.04,-246.24C634.18,-268.41 528.75,-309.52 468.13,-333.16"/>
<polygon fill="black" stroke="black" points="466.85,-329.91 458.8,-336.8 469.39,-336.43 466.85,-329.91"/>
<text text-anchor="middle" x="575.09" y="-293.5" font-family="Times,serif" font-size="14.00">a</text>
</g>
<!-- http://w3id.org/oseg/ont/okhmeta#LegalTag&#45;&gt;http://w3id.org/oseg/ont/okhmeta#MetaTag -->
<g id="edge13" class="edge">
<title>http://w3id.org/oseg/ont/okhmeta#LegalTag&#45;&gt;http://w3id.org/oseg/ont/okhmeta#MetaTag</title>
<path fill="none" stroke="black" d="M705.83,-247.11C661.82,-276.34 568.74,-338.15 519.24,-371.02"/>
<polygon fill="black" stroke="black" points="517.21,-368.16 510.81,-376.61 521.08,-373.99 517.21,-368.16"/>
<text text-anchor="middle" x="535.53" y="-312.87" font-family="Times,serif" font-size="14.00">okhmeta:hasMetaTag</text>
</g>
<!-- http://w3id.org/oseg/ont/okhmeta -->
<g id="node27" class="node">
<title>http://w3id.org/oseg/ont/okhmeta</title>
<ellipse fill="none" stroke="#e377c2" cx="1372.5" cy="-281.29" rx="76.24" ry="16.03"/>
<text text-anchor="middle" x="1372.5" y="-277.59" font-family="Times,serif" font-size="14.00">ns2:okhmeta</text>
</g>
<!-- http://w3id.org/oseg/ont/okhmeta&#45;&gt;http://www.w3.org/2002/07/owl#Ontology -->
<g id="edge48" class="edge">
<title>http://w3id.org/oseg/ont/okhmeta&#45;&gt;http://www.w3.org/2002/07/owl#Ontology</title>
<path fill="none" stroke="black" d="M1357.33,-265.09C1329.2,-235.06 1268.88,-170.67 1236.26,-135.85"/>
<polygon fill="black" stroke="black" points="1238.75,-133.39 1229.36,-128.48 1233.64,-138.17 1238.75,-133.39"/>
<text text-anchor="middle" x="1292.3" y="-204.27" font-family="Times,serif" font-size="14.00">a</text>
</g>
<!-- http://w3id.org/oseg/ont/okhmeta&#45;&gt;http://spdx.org/rdf/terms#SpdxItem -->
<g id="edge19" class="edge">
<title>http://w3id.org/oseg/ont/okhmeta&#45;&gt;http://spdx.org/rdf/terms#SpdxItem</title>
<path fill="none" stroke="black" d="M1415.82,-267.88C1452.54,-256.52 1505.39,-240.16 1545.07,-227.87"/>
<polygon fill="black" stroke="black" points="1546.33,-231.15 1554.85,-224.85 1544.26,-224.46 1546.33,-231.15"/>
<text text-anchor="middle" x="1475.94" y="-251.68" font-family="Times,serif" font-size="14.00">a</text>
</g>
<!-- http://w3id.org/oseg/ont/okhmeta&#45;&gt;http://w3id.org/oseg/ont/1.1.0/okh&#45;meta -->
<g id="edge2" class="edge">
<title>http://w3id.org/oseg/ont/okhmeta&#45;&gt;http://w3id.org/oseg/ont/1.1.0/okh&#45;meta</title>
<path fill="none" stroke="black" d="M1338.85,-266.63C1332.66,-263.93 1326.11,-261.08 1319.68,-258.28"/>
<polygon fill="black" stroke="black" points="1320.96,-255.02 1310.4,-254.23 1318.17,-261.43 1320.96,-255.02"/>
<text text-anchor="middle" x="1380.76" y="-251.25" font-family="Times,serif" font-size="14.00">owl:versionIRI</text>
</g>
<!-- http://w3id.org/oseg/ont/okhmeta&#45;&gt;http://spdx.org/licenses/GPL&#45;3.0&#45;or&#45;later -->
<g id="edge5" class="edge">
<title>http://w3id.org/oseg/ont/okhmeta&#45;&gt;http://spdx.org/licenses/GPL&#45;3.0&#45;or&#45;later</title>
<path fill="none" stroke="black" d="M1339.22,-295.93C1304.21,-311.33 1248.92,-335.66 1210.1,-352.73"/>
<polygon fill="black" stroke="black" points="1208.36,-349.68 1200.61,-356.91 1211.17,-356.09 1208.36,-349.68"/>
<text text-anchor="middle" x="1198.66" y="-328.13" font-family="Times,serif" font-size="14.00">spdx:licenseDeclared</text>
</g>
<!-- http://w3id.org/oseg/ont/okhmeta&#45;&gt;http://w3id.org/oseg/ont/oseg&#45;profiles#Iopa -->
<g id="edge36" class="edge">
<title>http://w3id.org/oseg/ont/okhmeta&#45;&gt;http://w3id.org/oseg/ont/oseg&#45;profiles#Iopa</title>
<path fill="none" stroke="black" d="M1377.67,-297.81C1389.3,-335.04 1417.63,-425.72 1431.61,-470.48"/>
<polygon fill="black" stroke="black" points="1428.28,-471.56 1434.6,-480.06 1434.96,-469.47 1428.28,-471.56"/>
<text text-anchor="middle" x="1470.14" y="-387.94" font-family="Times,serif" font-size="14.00">dcterms:publisher</text>
</g>
<!-- http://w3id.org/oseg/ont/okhmeta&#45;&gt;http://w3id.org/oseg/ont/oseg&#45;profiles#robinVobruba -->
<g id="edge15" class="edge">
<title>http://w3id.org/oseg/ont/okhmeta&#45;&gt;http://w3id.org/oseg/ont/oseg&#45;profiles#robinVobruba</title>
<path fill="none" stroke="black" d="M1380.03,-297.75C1380.31,-298.1 1380.6,-298.45 1380.9,-298.81"/>
<polygon fill="black" stroke="black" points="1378.33,-301.18 1387.64,-306.22 1383.5,-296.47 1378.33,-301.18"/>
<text text-anchor="middle" x="1322.96" y="-302.08" font-family="Times,serif" font-size="14.00">dcterms:creator</text>
</g>
<!-- http://w3id.org/oseg/ont/okhmeta&#45;&gt;http://w3id.org/oseg/ont/oseg&#45;profiles#robinVobruba -->
<g id="edge20" class="edge">
<title>http://w3id.org/oseg/ont/okhmeta&#45;&gt;http://w3id.org/oseg/ont/oseg&#45;profiles#robinVobruba</title>
<path fill="none" stroke="black" d="M1397.58,-297.07C1397.94,-297.43 1398.29,-297.8 1398.65,-298.16"/>
<polygon fill="black" stroke="black" points="1396.26,-300.75 1405.53,-305.88 1401.49,-296.09 1396.26,-300.75"/>
<text text-anchor="middle" x="1453.61" y="-301.42" font-family="Times,serif" font-size="14.00">schema:creator</text>
</g>
<!-- http://id.loc.gov/vocabulary/iso639&#45;1/en -->
<g id="node29" class="node">
<title>http://id.loc.gov/vocabulary/iso639&#45;1/en</title>
<ellipse fill="none" stroke="#e377c2" cx="1452.65" cy="-164.42" rx="45.01" ry="16.03"/>
<text text-anchor="middle" x="1452.65" y="-160.72" font-family="Times,serif" font-size="14.00">ns3:en</text>
</g>
<!-- http://w3id.org/oseg/ont/okhmeta&#45;&gt;http://id.loc.gov/vocabulary/iso639&#45;1/en -->
<g id="edge24" class="edge">
<title>http://w3id.org/oseg/ont/okhmeta&#45;&gt;http://id.loc.gov/vocabulary/iso639&#45;1/en</title>
<path fill="none" stroke="black" d="M1383.65,-265.04C1397.17,-245.33 1420.09,-211.9 1435.78,-189.03"/>
<polygon fill="black" stroke="black" points="1438.83,-190.76 1441.6,-180.53 1433.06,-186.8 1438.83,-190.76"/>
<text text-anchor="middle" x="1474.21" y="-230.83" font-family="Times,serif" font-size="14.00">dcterms:language</text>
</g>
<!-- http://w3id.org/oseg/ont/okhmeta#BasicTag -->
<g id="node28" class="node">
<title>http://w3id.org/oseg/ont/okhmeta#BasicTag</title>
<ellipse fill="none" stroke="#e377c2" cx="763.3" cy="-354.62" rx="103.48" ry="16.03"/>
<text text-anchor="middle" x="763.3" y="-350.92" font-family="Times,serif" font-size="14.00">okhmeta:BasicTag</text>
</g>
<!-- http://w3id.org/oseg/ont/okhmeta#BasicTag&#45;&gt;http://w3id.org/oseg/ont/okhmeta#Tag -->
<g id="edge21" class="edge">
<title>http://w3id.org/oseg/ont/okhmeta#BasicTag&#45;&gt;http://w3id.org/oseg/ont/okhmeta#Tag</title>
<path fill="none" stroke="black" d="M659.98,-353.57C611.65,-353.08 554.73,-352.5 508.69,-352.03"/>
<polygon fill="black" stroke="black" points="508.47,-348.52 498.43,-351.92 508.4,-355.52 508.47,-348.52"/>
<text text-anchor="middle" x="579.83" y="-356.6" font-family="Times,serif" font-size="14.00">a</text>
</g>
<!-- http://w3id.org/oseg/ont/okhmeta#BasicTag&#45;&gt;http://w3id.org/oseg/ont/okhmeta#MetaTag -->
<g id="edge42" class="edge">
<title>http://w3id.org/oseg/ont/okhmeta#BasicTag&#45;&gt;http://w3id.org/oseg/ont/okhmeta#MetaTag</title>
<path fill="none" stroke="black" d="M685.14,-365.36C650.83,-370.08 610.37,-375.64 574.98,-380.5"/>
<polygon fill="black" stroke="black" points="574.08,-377.09 564.65,-381.92 575.03,-384.03 574.08,-377.09"/>
<text text-anchor="middle" x="591.56" y="-361.73" font-family="Times,serif" font-size="14.00">okhmeta:hasMetaTag</text>
</g>
<!-- http://w3id.org/oseg/ont/okhmeta#TransportationTag -->
<g id="node30" class="node">
<title>http://w3id.org/oseg/ont/okhmeta#TransportationTag</title>
<ellipse fill="none" stroke="#e377c2" cx="565.41" cy="-696.46" rx="118.17" ry="16.03"/>
<text text-anchor="middle" x="565.41" y="-692.76" font-family="Times,serif" font-size="14.00">okhmeta:Transport...</text>
</g>
<!-- http://w3id.org/oseg/ont/okhmeta#TransportationTag&#45;&gt;http://w3id.org/oseg/ont/okhmeta#Tag -->
<g id="edge26" class="edge">
<title>http://w3id.org/oseg/ont/okhmeta#TransportationTag&#45;&gt;http://w3id.org/oseg/ont/okhmeta#Tag</title>
<path fill="none" stroke="black" d="M558.49,-679.8C535.4,-624.19 460.83,-444.6 432.81,-377.11"/>
<polygon fill="black" stroke="black" points="435.94,-375.52 428.87,-367.63 429.47,-378.21 435.94,-375.52"/>
<text text-anchor="middle" x="491.15" y="-532.25" font-family="Times,serif" font-size="14.00">a</text>
</g>
<!-- http://w3id.org/oseg/ont/okhmeta#TransportationTag&#45;&gt;http://w3id.org/oseg/ont/okhmeta#MetaTag -->
<g id="edge22" class="edge">
<title>http://w3id.org/oseg/ont/okhmeta#TransportationTag&#45;&gt;http://w3id.org/oseg/ont/okhmeta#MetaTag</title>
<path fill="none" stroke="black" d="M561.18,-680.12C548.28,-630.36 509.4,-480.3 493.54,-419.07"/>
<polygon fill="black" stroke="black" points="496.84,-417.85 490.94,-409.05 490.06,-419.61 496.84,-417.85"/>
<text text-anchor="middle" x="604.36" y="-553.4" font-family="Times,serif" font-size="14.00">okhmeta:hasMetaTag</text>
</g>
</g>
</svg>
