<?xml version="1.0" encoding="UTF-8" standalone="no"?>
<!DOCTYPE svg PUBLIC "-//W3C//DTD SVG 1.1//EN"
 "http://www.w3.org/Graphics/SVG/1.1/DTD/svg11.dtd">
<!-- Generated by graphviz version 2.43.0 (0)
 -->
<!-- Title: G Pages: 1 -->
<svg width="1748pt" height="578pt"
 viewBox="0.00 0.00 1748.00 578.00" xmlns="http://www.w3.org/2000/svg" xmlns:xlink="http://www.w3.org/1999/xlink">
<g id="graph0" class="graph" transform="scale(1 1) rotate(0) translate(4 574)">
<title>G</title>
<polygon fill="white" stroke="transparent" points="-4,4 -4,-574 1744,-574 1744,4 -4,4"/>
<!-- http://schema.org/DefinedTermSet -->
<g id="node1" class="node">
<title>http://schema.org/DefinedTermSet</title>
<ellipse fill="none" stroke="#1f77b4" cx="1288.29" cy="-367.3" rx="116.85" ry="16.03"/>
<text text-anchor="middle" x="1288.29" y="-363.6" font-family="Times,serif" font-size="14.00">schema:DefinedTer...</text>
</g>
<!-- http://schema.org/DefinedTerm -->
<g id="node2" class="node">
<title>http://schema.org/DefinedTerm</title>
<ellipse fill="none" stroke="#1f77b4" cx="588.91" cy="-295.54" rx="118.17" ry="16.03"/>
<text text-anchor="middle" x="588.91" y="-291.84" font-family="Times,serif" font-size="14.00">schema:DefinedTerm</text>
</g>
<!-- http://spdx.org/rdf/terms#SpdxItem -->
<g id="node3" class="node">
<title>http://spdx.org/rdf/terms#SpdxItem</title>
<ellipse fill="none" stroke="#1f77b4" cx="1463.09" cy="-59.83" rx="87.86" ry="16.03"/>
<text text-anchor="middle" x="1463.09" y="-56.13" font-family="Times,serif" font-size="14.00">spdx:SpdxItem</text>
</g>
<!-- http://w3id.org/oseg/ont/ods#Dataset -->
<g id="node4" class="node">
<title>http://w3id.org/oseg/ont/ods#Dataset</title>
<ellipse fill="none" stroke="#1f77b4" cx="1520" cy="-102.28" rx="71.34" ry="16.03"/>
<text text-anchor="middle" x="1520" y="-98.58" font-family="Times,serif" font-size="14.00">ods:Dataset</text>
</g>
<!-- http://w3id.org/oseg/ont/okhimg#slotSocial -->
<g id="node5" class="node">
<title>http://w3id.org/oseg/ont/okhimg#slotSocial</title>
<ellipse fill="none" stroke="#e377c2" cx="452.48" cy="-554.05" rx="101.23" ry="16.03"/>
<text text-anchor="middle" x="452.48" y="-550.35" font-family="Times,serif" font-size="14.00">okhimg:slotSocial</text>
</g>
<!-- http://w3id.org/oseg/ont/okhimg#slotSocial&#45;&gt;http://schema.org/DefinedTerm -->
<g id="edge1" class="edge">
<title>http://w3id.org/oseg/ont/okhimg#slotSocial&#45;&gt;http://schema.org/DefinedTerm</title>
<path fill="none" stroke="black" d="M461.22,-537.48C484.42,-493.53 547.66,-373.7 575.48,-320.99"/>
<polygon fill="black" stroke="black" points="578.67,-322.44 580.24,-311.97 572.48,-319.18 578.67,-322.44"/>
<text text-anchor="middle" x="513.85" y="-418.04" font-family="Times,serif" font-size="14.00">a</text>
</g>
<!-- http://w3id.org/oseg/ont/okhimg#tags -->
<g id="node6" class="node">
<title>http://w3id.org/oseg/ont/okhimg#tags</title>
<ellipse fill="none" stroke="#e377c2" cx="1181.49" cy="-239.43" rx="73.58" ry="16.03"/>
<text text-anchor="middle" x="1181.49" y="-235.73" font-family="Times,serif" font-size="14.00">okhimg:tags</text>
</g>
<!-- http://w3id.org/oseg/ont/okhimg#tags&#45;&gt;http://schema.org/DefinedTermSet -->
<g id="edge2" class="edge">
<title>http://w3id.org/oseg/ont/okhimg#tags&#45;&gt;http://schema.org/DefinedTermSet</title>
<path fill="none" stroke="black" d="M1195.02,-255.63C1213.45,-277.7 1246.62,-317.41 1268.03,-343.04"/>
<polygon fill="black" stroke="black" points="1265.44,-345.4 1274.53,-350.83 1270.81,-340.91 1265.44,-345.4"/>
<text text-anchor="middle" x="1227.02" y="-303.13" font-family="Times,serif" font-size="14.00">a</text>
</g>
<!-- http://w3id.org/oseg/ont/okhimg#tagArt -->
<g id="node21" class="node">
<title>http://w3id.org/oseg/ont/okhimg#tagArt</title>
<ellipse fill="none" stroke="#e377c2" cx="982.98" cy="-253" rx="84.29" ry="16.03"/>
<text text-anchor="middle" x="982.98" y="-249.3" font-family="Times,serif" font-size="14.00">okhimg:tagArt</text>
</g>
<!-- http://w3id.org/oseg/ont/okhimg#tags&#45;&gt;http://w3id.org/oseg/ont/okhimg#tagArt -->
<g id="edge19" class="edge">
<title>http://w3id.org/oseg/ont/okhimg#tags&#45;&gt;http://w3id.org/oseg/ont/okhimg#tagArt</title>
<path fill="none" stroke="black" d="M1111.22,-244.24C1098.81,-245.08 1085.74,-245.98 1072.88,-246.86"/>
<polygon fill="black" stroke="black" points="1072.37,-243.38 1062.63,-247.56 1072.85,-250.37 1072.37,-243.38"/>
<text text-anchor="middle" x="1004.55" y="-234.35" font-family="Times,serif" font-size="14.00">schema:hasDefinedTerm</text>
</g>
<!-- http://w3id.org/oseg/ont/okhimg#slotModelMain -->
<g id="node7" class="node">
<title>http://w3id.org/oseg/ont/okhimg#slotModelMain</title>
<ellipse fill="none" stroke="#e377c2" cx="892.91" cy="-456.57" rx="127.06" ry="16.03"/>
<text text-anchor="middle" x="892.91" y="-452.87" font-family="Times,serif" font-size="14.00">okhimg:slotModelMain</text>
</g>
<!-- http://w3id.org/oseg/ont/okhimg#slotModelMain&#45;&gt;http://schema.org/DefinedTerm -->
<g id="edge3" class="edge">
<title>http://w3id.org/oseg/ont/okhimg#slotModelMain&#45;&gt;http://schema.org/DefinedTerm</title>
<path fill="none" stroke="black" d="M862.93,-440.68C807.5,-411.33 689.08,-348.6 627.66,-316.07"/>
<polygon fill="black" stroke="black" points="629.14,-312.89 618.67,-311.3 625.87,-319.08 629.14,-312.89"/>
<text text-anchor="middle" x="740.79" y="-382.18" font-family="Times,serif" font-size="14.00">a</text>
</g>
<!-- http://w3id.org/oseg/ont/okhimg#slotIconMain -->
<g id="node8" class="node">
<title>http://w3id.org/oseg/ont/okhimg#slotIconMain</title>
<ellipse fill="none" stroke="#e377c2" cx="983.27" cy="-307.92" rx="117.26" ry="16.03"/>
<text text-anchor="middle" x="983.27" y="-304.22" font-family="Times,serif" font-size="14.00">okhimg:slotIconMain</text>
</g>
<!-- http://w3id.org/oseg/ont/okhimg#slotIconMain&#45;&gt;http://schema.org/DefinedTerm -->
<g id="edge4" class="edge">
<title>http://w3id.org/oseg/ont/okhimg#slotIconMain&#45;&gt;http://schema.org/DefinedTerm</title>
<path fill="none" stroke="black" d="M868.68,-304.32C820.28,-302.8 763.77,-301.03 714.26,-299.48"/>
<polygon fill="black" stroke="black" points="714.24,-295.97 704.14,-299.16 714.02,-302.97 714.24,-295.97"/>
<text text-anchor="middle" x="786.97" y="-305.7" font-family="Times,serif" font-size="14.00">a</text>
</g>
<!-- http://w3id.org/oseg/ont/okhimg#slotIconMainBw -->
<g id="node19" class="node">
<title>http://w3id.org/oseg/ont/okhimg#slotIconMainBw</title>
<ellipse fill="none" stroke="#e377c2" cx="843.76" cy="-376.78" rx="117.26" ry="16.03"/>
<text text-anchor="middle" x="843.76" y="-373.08" font-family="Times,serif" font-size="14.00">okhimg:slotIconMa...</text>
</g>
<!-- http://w3id.org/oseg/ont/okhimg#slotIconMain&#45;&gt;http://w3id.org/oseg/ont/okhimg#slotIconMainBw -->
<g id="edge15" class="edge">
<title>http://w3id.org/oseg/ont/okhimg#slotIconMain&#45;&gt;http://w3id.org/oseg/ont/okhimg#slotIconMainBw</title>
<path fill="none" stroke="black" d="M938.65,-322.98C917.33,-332.61 892.4,-345.08 873.43,-355.67"/>
<polygon fill="black" stroke="black" points="871.59,-352.69 864.64,-360.7 875.06,-358.77 871.59,-352.69"/>
<text text-anchor="middle" x="878.54" y="-343.12" font-family="Times,serif" font-size="14.00">seeAlso</text>
</g>
<!-- http://w3id.org/oseg/ont/okhimg#slotModel3D -->
<g id="node9" class="node">
<title>http://w3id.org/oseg/ont/okhimg#slotModel3D</title>
<ellipse fill="none" stroke="#e377c2" cx="804.39" cy="-499.07" rx="115.93" ry="16.03"/>
<text text-anchor="middle" x="804.39" y="-495.37" font-family="Times,serif" font-size="14.00">okhimg:slotModel3D</text>
</g>
<!-- http://w3id.org/oseg/ont/okhimg#slotModel3D&#45;&gt;http://schema.org/DefinedTerm -->
<g id="edge5" class="edge">
<title>http://w3id.org/oseg/ont/okhimg#slotModel3D&#45;&gt;http://schema.org/DefinedTerm</title>
<path fill="none" stroke="black" d="M787.12,-482.75C748.96,-446.72 657.39,-360.22 613.36,-318.63"/>
<polygon fill="black" stroke="black" points="615.64,-315.97 605.97,-311.65 610.83,-321.06 615.64,-315.97"/>
<text text-anchor="middle" x="695.74" y="-404.49" font-family="Times,serif" font-size="14.00">a</text>
</g>
<!-- http://w3id.org/oseg/ont/okhimg#slotModelFromRight -->
<g id="node10" class="node">
<title>http://w3id.org/oseg/ont/okhimg#slotModelFromRight</title>
<ellipse fill="none" stroke="#e377c2" cx="116.89" cy="-172.95" rx="116.85" ry="16.03"/>
<text text-anchor="middle" x="116.89" y="-169.25" font-family="Times,serif" font-size="14.00">okhimg:slotModelF...</text>
</g>
<!-- http://w3id.org/oseg/ont/okhimg#slotModelFromRight&#45;&gt;http://schema.org/DefinedTerm -->
<g id="edge6" class="edge">
<title>http://w3id.org/oseg/ont/okhimg#slotModelFromRight&#45;&gt;http://schema.org/DefinedTerm</title>
<path fill="none" stroke="black" d="M172.43,-187.38C260.01,-210.12 429.86,-254.23 523.32,-278.51"/>
<polygon fill="black" stroke="black" points="522.67,-281.95 533.22,-281.08 524.43,-275.18 522.67,-281.95"/>
<text text-anchor="middle" x="343.37" y="-236.74" font-family="Times,serif" font-size="14.00">a</text>
</g>
<!-- http://w3id.org/oseg/ont/okhimg#tagBw -->
<g id="node11" class="node">
<title>http://w3id.org/oseg/ont/okhimg#tagBw</title>
<ellipse fill="none" stroke="#e377c2" cx="560.04" cy="-117.46" rx="84.29" ry="16.03"/>
<text text-anchor="middle" x="560.04" y="-113.76" font-family="Times,serif" font-size="14.00">okhimg:tagBw</text>
</g>
<!-- http://w3id.org/oseg/ont/okhimg#tagBw&#45;&gt;http://schema.org/DefinedTerm -->
<g id="edge7" class="edge">
<title>http://w3id.org/oseg/ont/okhimg#tagBw&#45;&gt;http://schema.org/DefinedTerm</title>
<path fill="none" stroke="black" d="M562.7,-133.89C567.71,-164.77 578.56,-231.69 584.61,-269.02"/>
<polygon fill="black" stroke="black" points="581.2,-269.84 586.26,-279.15 588.11,-268.72 581.2,-269.84"/>
<text text-anchor="middle" x="569.16" y="-205.26" font-family="Times,serif" font-size="14.00">a</text>
</g>
<!-- http://w3id.org/oseg/ont/oseg&#45;profiles#robinVobruba -->
<g id="node12" class="node">
<title>http://w3id.org/oseg/ont/oseg&#45;profiles#robinVobruba</title>
<ellipse fill="none" stroke="#e377c2" cx="1626.27" cy="-349.92" rx="113.69" ry="16.03"/>
<text text-anchor="middle" x="1626.27" y="-346.22" font-family="Times,serif" font-size="14.00">osegprof:robinVob...</text>
</g>
<!-- http://w3id.org/oseg/ont/okhimg#slotModelFromFront -->
<g id="node13" class="node">
<title>http://w3id.org/oseg/ont/okhimg#slotModelFromFront</title>
<ellipse fill="none" stroke="#e377c2" cx="147.66" cy="-93.65" rx="116.85" ry="16.03"/>
<text text-anchor="middle" x="147.66" y="-89.95" font-family="Times,serif" font-size="14.00">okhimg:slotModelF...</text>
</g>
<!-- http://w3id.org/oseg/ont/okhimg#slotModelFromFront&#45;&gt;http://schema.org/DefinedTerm -->
<g id="edge9" class="edge">
<title>http://w3id.org/oseg/ont/okhimg#slotModelFromFront&#45;&gt;http://schema.org/DefinedTerm</title>
<path fill="none" stroke="black" d="M181.91,-109.33C261.33,-145.66 457.91,-235.6 545.54,-275.7"/>
<polygon fill="black" stroke="black" points="544.13,-278.9 554.68,-279.88 547.04,-272.53 544.13,-278.9"/>
<text text-anchor="middle" x="359.23" y="-181.31" font-family="Times,serif" font-size="14.00">a</text>
</g>
<!-- http://w3id.org/oseg/ont/okhimg#slotOrganizationLogoBw -->
<g id="node14" class="node">
<title>http://w3id.org/oseg/ont/okhimg#slotOrganizationLogoBw</title>
<ellipse fill="none" stroke="#e377c2" cx="763.99" cy="-214.41" rx="114.6" ry="16.03"/>
<text text-anchor="middle" x="763.99" y="-210.71" font-family="Times,serif" font-size="14.00">okhimg:slotOrgani...</text>
</g>
<!-- http://w3id.org/oseg/ont/okhimg#slotOrganizationLogoBw&#45;&gt;http://schema.org/DefinedTerm -->
<g id="edge21" class="edge">
<title>http://w3id.org/oseg/ont/okhimg#slotOrganizationLogoBw&#45;&gt;http://schema.org/DefinedTerm</title>
<path fill="none" stroke="black" d="M730.23,-230.05C702.14,-243.07 661.98,-261.68 631.64,-275.74"/>
<polygon fill="black" stroke="black" points="630.17,-272.57 622.57,-279.95 633.11,-278.92 630.17,-272.57"/>
<text text-anchor="middle" x="676.44" y="-241.7" font-family="Times,serif" font-size="14.00">a</text>
</g>
<!-- http://w3id.org/oseg/ont/okhimg#slotOrganizationLogo -->
<g id="node23" class="node">
<title>http://w3id.org/oseg/ont/okhimg#slotOrganizationLogo</title>
<ellipse fill="none" stroke="#e377c2" cx="771.61" cy="-255" rx="114.6" ry="16.03"/>
<text text-anchor="middle" x="771.61" y="-251.3" font-family="Times,serif" font-size="14.00">okhimg:slotOrgani...</text>
</g>
<!-- http://w3id.org/oseg/ont/okhimg#slotOrganizationLogoBw&#45;&gt;http://w3id.org/oseg/ont/okhimg#slotOrganizationLogo -->
<g id="edge39" class="edge">
<title>http://w3id.org/oseg/ont/okhimg#slotOrganizationLogoBw&#45;&gt;http://w3id.org/oseg/ont/okhimg#slotOrganizationLogo</title>
<path fill="none" stroke="black" d="M760.39,-230.73C760.4,-230.81 760.41,-230.9 760.42,-230.98"/>
<polygon fill="black" stroke="black" points="756.61,-229.52 761.76,-238.78 763.51,-228.33 756.61,-229.52"/>
<text text-anchor="middle" x="732.9" y="-234.66" font-family="Times,serif" font-size="14.00">seeAlso</text>
</g>
<!-- http://w3id.org/oseg/ont/okhimg -->
<g id="node15" class="node">
<title>http://w3id.org/oseg/ont/okhimg</title>
<ellipse fill="none" stroke="#e377c2" cx="1400.86" cy="-228.88" rx="70.01" ry="16.03"/>
<text text-anchor="middle" x="1400.86" y="-225.18" font-family="Times,serif" font-size="14.00">ns1:okhimg</text>
</g>
<!-- http://w3id.org/oseg/ont/okhimg&#45;&gt;http://spdx.org/rdf/terms#SpdxItem -->
<g id="edge28" class="edge">
<title>http://w3id.org/oseg/ont/okhimg&#45;&gt;http://spdx.org/rdf/terms#SpdxItem</title>
<path fill="none" stroke="black" d="M1406.83,-212.67C1417.63,-183.34 1440.5,-121.22 1453.51,-85.87"/>
<polygon fill="black" stroke="black" points="1456.88,-86.84 1457.05,-76.24 1450.31,-84.42 1456.88,-86.84"/>
<text text-anchor="middle" x="1425.67" y="-153.07" font-family="Times,serif" font-size="14.00">a</text>
</g>
<!-- http://w3id.org/oseg/ont/okhimg&#45;&gt;http://w3id.org/oseg/ont/ods#Dataset -->
<g id="edge11" class="edge">
<title>http://w3id.org/oseg/ont/okhimg&#45;&gt;http://w3id.org/oseg/ont/ods#Dataset</title>
<path fill="none" stroke="black" d="M1415.95,-212.85C1436.72,-190.78 1474.25,-150.9 1498.1,-125.55"/>
<polygon fill="black" stroke="black" points="1500.73,-127.87 1505.03,-118.19 1495.63,-123.07 1500.73,-127.87"/>
<text text-anchor="middle" x="1452.53" y="-173" font-family="Times,serif" font-size="14.00">a</text>
</g>
<!-- http://w3id.org/oseg/ont/okhimg&#45;&gt;http://w3id.org/oseg/ont/okhimg#tags -->
<g id="edge33" class="edge">
<title>http://w3id.org/oseg/ont/okhimg&#45;&gt;http://w3id.org/oseg/ont/okhimg#tags</title>
<path fill="none" stroke="black" d="M1332.05,-232.19C1310.37,-233.23 1286.2,-234.4 1263.68,-235.48"/>
<polygon fill="black" stroke="black" points="1263.28,-231.99 1253.46,-235.97 1263.62,-238.99 1263.28,-231.99"/>
<text text-anchor="middle" x="1265.37" y="-222.63" font-family="Times,serif" font-size="14.00">void:rootResource</text>
</g>
<!-- http://w3id.org/oseg/ont/okhimg&#45;&gt;http://w3id.org/oseg/ont/oseg&#45;profiles#robinVobruba -->
<g id="edge8" class="edge">
<title>http://w3id.org/oseg/ont/okhimg&#45;&gt;http://w3id.org/oseg/ont/oseg&#45;profiles#robinVobruba</title>
<path fill="none" stroke="black" d="M1421.29,-244.67C1456.36,-266.7 1528.82,-306.11 1577.52,-330.06"/>
<polygon fill="black" stroke="black" points="1576.1,-333.26 1586.62,-334.49 1579.16,-326.97 1576.1,-333.26"/>
<text text-anchor="middle" x="1441.9" y="-291.17" font-family="Times,serif" font-size="14.00">dcterms:creator</text>
</g>
<!-- http://w3id.org/oseg/ont/okhimg&#45;&gt;http://w3id.org/oseg/ont/oseg&#45;profiles#robinVobruba -->
<g id="edge41" class="edge">
<title>http://w3id.org/oseg/ont/okhimg&#45;&gt;http://w3id.org/oseg/ont/oseg&#45;profiles#robinVobruba</title>
<path fill="none" stroke="black" d="M1437.47,-242.85C1481.87,-264.01 1555.77,-303.75 1596.73,-328.53"/>
<polygon fill="black" stroke="black" points="1595.08,-331.62 1605.43,-333.88 1598.74,-325.66 1595.08,-331.62"/>
<text text-anchor="middle" x="1572.6" y="-289.49" font-family="Times,serif" font-size="14.00">schema:creator</text>
</g>
<!-- http://spdx.org/licenses/AGPL&#45;3.0&#45;or&#45;later -->
<g id="node16" class="node">
<title>http://spdx.org/licenses/AGPL&#45;3.0&#45;or&#45;later</title>
<ellipse fill="none" stroke="#e377c2" cx="1621.42" cy="-270.49" rx="111.95" ry="16.03"/>
<text text-anchor="middle" x="1621.42" y="-266.79" font-family="Times,serif" font-size="14.00">spdxl:AGPL&#45;3.0&#45;or...</text>
</g>
<!-- http://w3id.org/oseg/ont/okhimg&#45;&gt;http://spdx.org/licenses/AGPL&#45;3.0&#45;or&#45;later -->
<g id="edge12" class="edge">
<title>http://w3id.org/oseg/ont/okhimg&#45;&gt;http://spdx.org/licenses/AGPL&#45;3.0&#45;or&#45;later</title>
<path fill="none" stroke="black" d="M1455.38,-239.17C1481.74,-244.14 1513.87,-250.2 1542.82,-255.66"/>
<polygon fill="black" stroke="black" points="1542.43,-259.15 1552.91,-257.56 1543.73,-252.27 1542.43,-259.15"/>
<text text-anchor="middle" x="1423.1" y="-251.21" font-family="Times,serif" font-size="14.00">spdx:licenseDeclared</text>
</g>
<!-- http://w3id.org/oseg/ont/0.1.0/okhimg -->
<g id="node24" class="node">
<title>http://w3id.org/oseg/ont/0.1.0/okhimg</title>
<ellipse fill="none" stroke="#e377c2" cx="1561.08" cy="-152.05" rx="70.01" ry="16.03"/>
<text text-anchor="middle" x="1561.08" y="-148.35" font-family="Times,serif" font-size="14.00">ns2:okhimg</text>
</g>
<!-- http://w3id.org/oseg/ont/okhimg&#45;&gt;http://w3id.org/oseg/ont/0.1.0/okhimg -->
<g id="edge24" class="edge">
<title>http://w3id.org/oseg/ont/okhimg&#45;&gt;http://w3id.org/oseg/ont/0.1.0/okhimg</title>
<path fill="none" stroke="black" d="M1431.75,-214.07C1457.32,-201.8 1493.82,-184.3 1521.52,-171.01"/>
<polygon fill="black" stroke="black" points="1523.05,-174.16 1530.55,-166.68 1520.02,-167.85 1523.05,-174.16"/>
<text text-anchor="middle" x="1425.14" y="-196.34" font-family="Times,serif" font-size="14.00">owl:versionIRI</text>
</g>
<!-- http://id.loc.gov/vocabulary/iso639&#45;1/en -->
<g id="node29" class="node">
<title>http://id.loc.gov/vocabulary/iso639&#45;1/en</title>
<ellipse fill="none" stroke="#e377c2" cx="1458.37" cy="-335.62" rx="45.01" ry="16.03"/>
<text text-anchor="middle" x="1458.37" y="-331.92" font-family="Times,serif" font-size="14.00">ns3:en</text>
</g>
<!-- http://w3id.org/oseg/ont/okhimg&#45;&gt;http://id.loc.gov/vocabulary/iso639&#45;1/en -->
<g id="edge31" class="edge">
<title>http://w3id.org/oseg/ont/okhimg&#45;&gt;http://id.loc.gov/vocabulary/iso639&#45;1/en</title>
<path fill="none" stroke="black" d="M1409.6,-245.09C1418.98,-262.51 1434.01,-290.42 1444.91,-310.65"/>
<polygon fill="black" stroke="black" points="1441.92,-312.46 1449.74,-319.61 1448.08,-309.14 1441.92,-312.46"/>
<text text-anchor="middle" x="1362.75" y="-266.67" font-family="Times,serif" font-size="14.00">dcterms:language</text>
</g>
<!-- http://w3id.org/oseg/ont/okhimg#slots -->
<g id="node30" class="node">
<title>http://w3id.org/oseg/ont/okhimg#slots</title>
<ellipse fill="none" stroke="#e377c2" cx="1195.89" cy="-286.37" rx="75.82" ry="16.03"/>
<text text-anchor="middle" x="1195.89" y="-282.67" font-family="Times,serif" font-size="14.00">okhimg:slots</text>
</g>
<!-- http://w3id.org/oseg/ont/okhimg&#45;&gt;http://w3id.org/oseg/ont/okhimg#slots -->
<g id="edge32" class="edge">
<title>http://w3id.org/oseg/ont/okhimg&#45;&gt;http://w3id.org/oseg/ont/okhimg#slots</title>
<path fill="none" stroke="black" d="M1356.13,-241.42C1325.49,-250.02 1284.63,-261.48 1251.84,-270.67"/>
<polygon fill="black" stroke="black" points="1250.62,-267.38 1241.94,-273.45 1252.51,-274.12 1250.62,-267.38"/>
<text text-anchor="middle" x="1238.98" y="-259.85" font-family="Times,serif" font-size="14.00">void:rootResource</text>
</g>
<!-- http://w3id.org/oseg/ont/oseg&#45;profiles#Iopa -->
<g id="node36" class="node">
<title>http://w3id.org/oseg/ont/oseg&#45;profiles#Iopa</title>
<ellipse fill="none" stroke="#e377c2" cx="1583.84" cy="-211.78" rx="80.72" ry="16.03"/>
<text text-anchor="middle" x="1583.84" y="-208.08" font-family="Times,serif" font-size="14.00">osegprof:Iopa</text>
</g>
<!-- http://w3id.org/oseg/ont/okhimg&#45;&gt;http://w3id.org/oseg/ont/oseg&#45;profiles#Iopa -->
<g id="edge43" class="edge">
<title>http://w3id.org/oseg/ont/okhimg&#45;&gt;http://w3id.org/oseg/ont/oseg&#45;profiles#Iopa</title>
<path fill="none" stroke="black" d="M1465.89,-222.8C1477.09,-221.76 1488.87,-220.65 1500.48,-219.57"/>
<polygon fill="black" stroke="black" points="1500.98,-223.04 1510.61,-218.62 1500.33,-216.07 1500.98,-223.04"/>
<text text-anchor="middle" x="1548.68" y="-224.99" font-family="Times,serif" font-size="14.00">dcterms:publisher</text>
</g>
<!-- http://w3id.org/oseg/ont/okhimg#tagDrawing -->
<g id="node17" class="node">
<title>http://w3id.org/oseg/ont/okhimg#tagDrawing</title>
<ellipse fill="none" stroke="#e377c2" cx="375.07" cy="-194.55" rx="111.95" ry="16.03"/>
<text text-anchor="middle" x="375.07" y="-190.85" font-family="Times,serif" font-size="14.00">okhimg:tagDrawing</text>
</g>
<!-- http://w3id.org/oseg/ont/okhimg#tagDrawing&#45;&gt;http://schema.org/DefinedTerm -->
<g id="edge13" class="edge">
<title>http://w3id.org/oseg/ont/okhimg#tagDrawing&#45;&gt;http://schema.org/DefinedTerm</title>
<path fill="none" stroke="black" d="M408.02,-210.11C445.19,-227.66 505.76,-256.27 546.45,-275.49"/>
<polygon fill="black" stroke="black" points="545.04,-278.69 555.58,-279.8 548.03,-272.36 545.04,-278.69"/>
<text text-anchor="middle" x="472.74" y="-246.6" font-family="Times,serif" font-size="14.00">a</text>
</g>
<!-- http://w3id.org/oseg/ont/okhimg#slotModelFromAbove -->
<g id="node18" class="node">
<title>http://w3id.org/oseg/ont/okhimg#slotModelFromAbove</title>
<ellipse fill="none" stroke="#e377c2" cx="453.28" cy="-458.94" rx="116.85" ry="16.03"/>
<text text-anchor="middle" x="453.28" y="-455.24" font-family="Times,serif" font-size="14.00">okhimg:slotModelF...</text>
</g>
<!-- http://w3id.org/oseg/ont/okhimg#slotModelFromAbove&#45;&gt;http://schema.org/DefinedTerm -->
<g id="edge14" class="edge">
<title>http://w3id.org/oseg/ont/okhimg#slotModelFromAbove&#45;&gt;http://schema.org/DefinedTerm</title>
<path fill="none" stroke="black" d="M466.78,-442.68C490.74,-413.8 540.83,-353.46 568.85,-319.71"/>
<polygon fill="black" stroke="black" points="571.77,-321.67 575.47,-311.74 566.39,-317.2 571.77,-321.67"/>
<text text-anchor="middle" x="513.31" y="-384.99" font-family="Times,serif" font-size="14.00">a</text>
</g>
<!-- http://w3id.org/oseg/ont/okhimg#slotIconMainBw&#45;&gt;http://schema.org/DefinedTerm -->
<g id="edge17" class="edge">
<title>http://w3id.org/oseg/ont/okhimg#slotIconMainBw&#45;&gt;http://schema.org/DefinedTerm</title>
<path fill="none" stroke="black" d="M796.72,-361.78C754.11,-348.2 691.23,-328.16 645.81,-313.68"/>
<polygon fill="black" stroke="black" points="646.7,-310.29 636.11,-310.59 644.58,-316.96 646.7,-310.29"/>
<text text-anchor="middle" x="716.77" y="-341.53" font-family="Times,serif" font-size="14.00">a</text>
</g>
<!-- http://w3id.org/oseg/ont/okhimg#slotIconMainBw&#45;&gt;http://w3id.org/oseg/ont/okhimg#slotIconMain -->
<g id="edge18" class="edge">
<title>http://w3id.org/oseg/ont/okhimg#slotIconMainBw&#45;&gt;http://w3id.org/oseg/ont/okhimg#slotIconMain</title>
<path fill="none" stroke="black" d="M888.38,-361.72C909.71,-352.09 934.63,-339.62 953.6,-329.03"/>
<polygon fill="black" stroke="black" points="955.45,-332 962.39,-324 951.97,-325.93 955.45,-332"/>
<text text-anchor="middle" x="948.49" y="-349.17" font-family="Times,serif" font-size="14.00">seeAlso</text>
</g>
<!-- http://w3id.org/oseg/ont/okhimg#slotPhotoThingMain -->
<g id="node20" class="node">
<title>http://w3id.org/oseg/ont/okhimg#slotPhotoThingMain</title>
<ellipse fill="none" stroke="#e377c2" cx="580.54" cy="-15.85" rx="114.6" ry="16.03"/>
<text text-anchor="middle" x="580.54" y="-12.15" font-family="Times,serif" font-size="14.00">okhimg:slotPhotoT...</text>
</g>
<!-- http://w3id.org/oseg/ont/okhimg#slotPhotoThingMain&#45;&gt;http://schema.org/DefinedTerm -->
<g id="edge16" class="edge">
<title>http://w3id.org/oseg/ont/okhimg#slotPhotoThingMain&#45;&gt;http://schema.org/DefinedTerm</title>
<path fill="none" stroke="black" d="M581.04,-32.51C582.44,-79.24 586.41,-211.88 588.12,-268.93"/>
<polygon fill="black" stroke="black" points="584.62,-269.08 588.42,-278.97 591.62,-268.87 584.62,-269.08"/>
<text text-anchor="middle" x="580.08" y="-154.52" font-family="Times,serif" font-size="14.00">a</text>
</g>
<!-- http://w3id.org/oseg/ont/okhimg#tagArt&#45;&gt;http://schema.org/DefinedTerm -->
<g id="edge25" class="edge">
<title>http://w3id.org/oseg/ont/okhimg#tagArt&#45;&gt;http://schema.org/DefinedTerm</title>
<path fill="none" stroke="black" d="M909.32,-260.95C848.19,-267.55 760.55,-277.01 692.37,-284.37"/>
<polygon fill="black" stroke="black" points="691.6,-280.94 682.03,-285.49 692.35,-287.9 691.6,-280.94"/>
<text text-anchor="middle" x="796.35" y="-276.46" font-family="Times,serif" font-size="14.00">a</text>
</g>
<!-- http://w3id.org/oseg/ont/okhimg#slotLogo -->
<g id="node22" class="node">
<title>http://w3id.org/oseg/ont/okhimg#slotLogo</title>
<ellipse fill="none" stroke="#e377c2" cx="658.12" cy="-540.04" rx="94.51" ry="16.03"/>
<text text-anchor="middle" x="658.12" y="-536.34" font-family="Times,serif" font-size="14.00">okhimg:slotLogo</text>
</g>
<!-- http://w3id.org/oseg/ont/okhimg#slotLogo&#45;&gt;http://schema.org/DefinedTerm -->
<g id="edge23" class="edge">
<title>http://w3id.org/oseg/ont/okhimg#slotLogo&#45;&gt;http://schema.org/DefinedTerm</title>
<path fill="none" stroke="black" d="M653.47,-523.62C641.7,-482.04 610.64,-372.3 596.33,-321.74"/>
<polygon fill="black" stroke="black" points="599.63,-320.56 593.54,-311.89 592.9,-322.47 599.63,-320.56"/>
<text text-anchor="middle" x="620.4" y="-411.48" font-family="Times,serif" font-size="14.00">a</text>
</g>
<!-- http://w3id.org/oseg/ont/okhimg#slotLogoBw -->
<g id="node32" class="node">
<title>http://w3id.org/oseg/ont/okhimg#slotLogoBw</title>
<ellipse fill="none" stroke="#e377c2" cx="310.72" cy="-510.69" rx="111.03" ry="16.03"/>
<text text-anchor="middle" x="310.72" y="-506.99" font-family="Times,serif" font-size="14.00">okhimg:slotLogoBw</text>
</g>
<!-- http://w3id.org/oseg/ont/okhimg#slotLogo&#45;&gt;http://w3id.org/oseg/ont/okhimg#slotLogoBw -->
<g id="edge42" class="edge">
<title>http://w3id.org/oseg/ont/okhimg#slotLogo&#45;&gt;http://w3id.org/oseg/ont/okhimg#slotLogoBw</title>
<path fill="none" stroke="black" d="M589.53,-528.71C544.18,-523.64 483.52,-518.21 430.36,-514.33"/>
<polygon fill="black" stroke="black" points="430.4,-510.82 420.18,-513.6 429.9,-517.81 430.4,-510.82"/>
<text text-anchor="middle" x="482.44" y="-525.32" font-family="Times,serif" font-size="14.00">seeAlso</text>
</g>
<!-- http://w3id.org/oseg/ont/okhimg#slotOrganizationLogo&#45;&gt;http://schema.org/DefinedTerm -->
<g id="edge22" class="edge">
<title>http://w3id.org/oseg/ont/okhimg#slotOrganizationLogo&#45;&gt;http://schema.org/DefinedTerm</title>
<path fill="none" stroke="black" d="M709.76,-268.73C694.15,-272.19 677.27,-275.94 661.2,-279.5"/>
<polygon fill="black" stroke="black" points="660.33,-276.11 651.32,-281.69 661.84,-282.94 660.33,-276.11"/>
<text text-anchor="middle" x="680.98" y="-277.91" font-family="Times,serif" font-size="14.00">a</text>
</g>
<!-- http://w3id.org/oseg/ont/okhimg#slotOrganizationLogo&#45;&gt;http://w3id.org/oseg/ont/okhimg#slotOrganizationLogoBw -->
<g id="edge10" class="edge">
<title>http://w3id.org/oseg/ont/okhimg#slotOrganizationLogo&#45;&gt;http://w3id.org/oseg/ont/okhimg#slotOrganizationLogoBw</title>
<path fill="none" stroke="black" d="M775.21,-238.68C775.2,-238.6 775.19,-238.51 775.18,-238.43"/>
<polygon fill="black" stroke="black" points="778.98,-239.89 773.84,-230.63 772.09,-241.08 778.98,-239.89"/>
<text text-anchor="middle" x="802.7" y="-227.36" font-family="Times,serif" font-size="14.00">seeAlso</text>
</g>
<!-- http://w3id.org/oseg/ont/okhimg#tagGray -->
<g id="node25" class="node">
<title>http://w3id.org/oseg/ont/okhimg#tagGray</title>
<ellipse fill="none" stroke="#e377c2" cx="625.02" cy="-62.49" rx="92.76" ry="16.03"/>
<text text-anchor="middle" x="625.02" y="-58.79" font-family="Times,serif" font-size="14.00">okhimg:tagGray</text>
</g>
<!-- http://w3id.org/oseg/ont/okhimg#tagGray&#45;&gt;http://schema.org/DefinedTerm -->
<g id="edge26" class="edge">
<title>http://w3id.org/oseg/ont/okhimg#tagGray&#45;&gt;http://schema.org/DefinedTerm</title>
<path fill="none" stroke="black" d="M622.48,-78.88C616.32,-118.66 600.52,-220.62 593.01,-269.13"/>
<polygon fill="black" stroke="black" points="589.52,-268.75 591.45,-279.17 596.44,-269.83 589.52,-268.75"/>
<text text-anchor="middle" x="603.24" y="-177.81" font-family="Times,serif" font-size="14.00">a</text>
</g>
<!-- http://w3id.org/oseg/ont/okhimg#slotSymbol -->
<g id="node26" class="node">
<title>http://w3id.org/oseg/ont/okhimg#slotSymbol</title>
<ellipse fill="none" stroke="#e377c2" cx="342.23" cy="-410.09" rx="108.38" ry="16.03"/>
<text text-anchor="middle" x="342.23" y="-406.39" font-family="Times,serif" font-size="14.00">okhimg:slotSymbol</text>
</g>
<!-- http://w3id.org/oseg/ont/okhimg#slotSymbol&#45;&gt;http://schema.org/DefinedTerm -->
<g id="edge27" class="edge">
<title>http://w3id.org/oseg/ont/okhimg#slotSymbol&#45;&gt;http://schema.org/DefinedTerm</title>
<path fill="none" stroke="black" d="M375.76,-394.52C419.85,-374.05 497.38,-338.05 545.79,-315.57"/>
<polygon fill="black" stroke="black" points="547.47,-318.65 555.07,-311.26 544.52,-312.3 547.47,-318.65"/>
<text text-anchor="middle" x="456.27" y="-358.85" font-family="Times,serif" font-size="14.00">a</text>
</g>
<!-- http://w3id.org/oseg/ont/okhimg#slotModelFromBack -->
<g id="node27" class="node">
<title>http://w3id.org/oseg/ont/okhimg#slotModelFromBack</title>
<ellipse fill="none" stroke="#e377c2" cx="207.12" cy="-369.56" rx="116.85" ry="16.03"/>
<text text-anchor="middle" x="207.12" y="-365.86" font-family="Times,serif" font-size="14.00">okhimg:slotModelF...</text>
</g>
<!-- http://w3id.org/oseg/ont/okhimg#slotModelFromBack&#45;&gt;http://schema.org/DefinedTerm -->
<g id="edge29" class="edge">
<title>http://w3id.org/oseg/ont/okhimg#slotModelFromBack&#45;&gt;http://schema.org/DefinedTerm</title>
<path fill="none" stroke="black" d="M275.38,-356.33C341.31,-343.54 441.08,-324.2 510.3,-310.78"/>
<polygon fill="black" stroke="black" points="511.13,-314.19 520.28,-308.85 509.8,-307.31 511.13,-314.19"/>
<text text-anchor="middle" x="388.34" y="-337.35" font-family="Times,serif" font-size="14.00">a</text>
</g>
<!-- http://w3id.org/oseg/ont/okhimg#slotPhotoPackaging -->
<g id="node28" class="node">
<title>http://w3id.org/oseg/ont/okhimg#slotPhotoPackaging</title>
<ellipse fill="none" stroke="#e377c2" cx="211.39" cy="-242.07" rx="113.69" ry="16.03"/>
<text text-anchor="middle" x="211.39" y="-238.37" font-family="Times,serif" font-size="14.00">okhimg:slotPhotoP...</text>
</g>
<!-- http://w3id.org/oseg/ont/okhimg#slotPhotoPackaging&#45;&gt;http://schema.org/DefinedTerm -->
<g id="edge30" class="edge">
<title>http://w3id.org/oseg/ont/okhimg#slotPhotoPackaging&#45;&gt;http://schema.org/DefinedTerm</title>
<path fill="none" stroke="black" d="M292.37,-253.54C352.2,-262.01 433.75,-273.56 496.19,-282.41"/>
<polygon fill="black" stroke="black" points="496.04,-285.92 506.43,-283.86 497.02,-278.99 496.04,-285.92"/>
<text text-anchor="middle" x="389.78" y="-256.77" font-family="Times,serif" font-size="14.00">a</text>
</g>
<!-- http://w3id.org/oseg/ont/okhimg#slots&#45;&gt;http://schema.org/DefinedTermSet -->
<g id="edge36" class="edge">
<title>http://w3id.org/oseg/ont/okhimg#slots&#45;&gt;http://schema.org/DefinedTermSet</title>
<path fill="none" stroke="black" d="M1214.14,-302.36C1227.85,-314.36 1246.81,-330.97 1262.12,-344.38"/>
<polygon fill="black" stroke="black" points="1259.92,-347.11 1269.75,-351.06 1264.54,-341.84 1259.92,-347.11"/>
<text text-anchor="middle" x="1233.63" y="-327.17" font-family="Times,serif" font-size="14.00">a</text>
</g>
<!-- http://w3id.org/oseg/ont/okhimg#slots&#45;&gt;http://w3id.org/oseg/ont/okhimg#slotIconMain -->
<g id="edge45" class="edge">
<title>http://w3id.org/oseg/ont/okhimg#slots&#45;&gt;http://w3id.org/oseg/ont/okhimg#slotIconMain</title>
<path fill="none" stroke="black" d="M1127.44,-293.31C1114.97,-294.57 1101.69,-295.92 1088.43,-297.26"/>
<polygon fill="black" stroke="black" points="1087.91,-293.8 1078.31,-298.29 1088.61,-300.76 1087.91,-293.8"/>
<text text-anchor="middle" x="1020.44" y="-284.08" font-family="Times,serif" font-size="14.00">schema:hasDefinedTerm</text>
</g>
<!-- http://w3id.org/oseg/ont/okhimg#slotModelFromBelow -->
<g id="node31" class="node">
<title>http://w3id.org/oseg/ont/okhimg#slotModelFromBelow</title>
<ellipse fill="none" stroke="#e377c2" cx="133.44" cy="-329.01" rx="116.85" ry="16.03"/>
<text text-anchor="middle" x="133.44" y="-325.31" font-family="Times,serif" font-size="14.00">okhimg:slotModelF...</text>
</g>
<!-- http://w3id.org/oseg/ont/okhimg#slotModelFromBelow&#45;&gt;http://schema.org/DefinedTerm -->
<g id="edge34" class="edge">
<title>http://w3id.org/oseg/ont/okhimg#slotModelFromBelow&#45;&gt;http://schema.org/DefinedTerm</title>
<path fill="none" stroke="black" d="M236.8,-321.42C307.49,-316.22 401.24,-309.33 474.24,-303.97"/>
<polygon fill="black" stroke="black" points="474.68,-307.45 484.39,-303.22 474.16,-300.46 474.68,-307.45"/>
<text text-anchor="middle" x="351.02" y="-316.49" font-family="Times,serif" font-size="14.00">a</text>
</g>
<!-- http://w3id.org/oseg/ont/okhimg#slotLogoBw&#45;&gt;http://schema.org/DefinedTerm -->
<g id="edge35" class="edge">
<title>http://w3id.org/oseg/ont/okhimg#slotLogoBw&#45;&gt;http://schema.org/DefinedTerm</title>
<path fill="none" stroke="black" d="M331.63,-494.52C380.79,-456.5 503.78,-361.38 560.03,-317.88"/>
<polygon fill="black" stroke="black" points="562.37,-320.49 568.14,-311.61 558.09,-314.96 562.37,-320.49"/>
<text text-anchor="middle" x="450.33" y="-395" font-family="Times,serif" font-size="14.00">a</text>
</g>
<!-- http://w3id.org/oseg/ont/okhimg#slotLogoBw&#45;&gt;http://w3id.org/oseg/ont/okhimg#slotLogo -->
<g id="edge20" class="edge">
<title>http://w3id.org/oseg/ont/okhimg#slotLogoBw&#45;&gt;http://w3id.org/oseg/ont/okhimg#slotLogo</title>
<path fill="none" stroke="black" d="M385.62,-522.72C434.74,-528.08 499.65,-533.75 553.79,-537.49"/>
<polygon fill="black" stroke="black" points="553.56,-540.98 563.77,-538.16 554.03,-534 553.56,-540.98"/>
<text text-anchor="middle" x="455.96" y="-518.9" font-family="Times,serif" font-size="14.00">seeAlso</text>
</g>
<!-- http://w3id.org/oseg/ont/okhimg#tagLogo -->
<g id="node33" class="node">
<title>http://w3id.org/oseg/ont/okhimg#tagLogo</title>
<ellipse fill="none" stroke="#e377c2" cx="745.79" cy="-103.2" rx="92.76" ry="16.03"/>
<text text-anchor="middle" x="745.79" y="-99.5" font-family="Times,serif" font-size="14.00">okhimg:tagLogo</text>
</g>
<!-- http://w3id.org/oseg/ont/okhimg#tagLogo&#45;&gt;http://schema.org/DefinedTerm -->
<g id="edge37" class="edge">
<title>http://w3id.org/oseg/ont/okhimg#tagLogo&#45;&gt;http://schema.org/DefinedTerm</title>
<path fill="none" stroke="black" d="M732.41,-119.6C704.74,-153.52 641.1,-231.56 608.68,-271.31"/>
<polygon fill="black" stroke="black" points="605.86,-269.22 602.25,-279.18 611.29,-273.65 605.86,-269.22"/>
<text text-anchor="middle" x="666.04" y="-184.25" font-family="Times,serif" font-size="14.00">a</text>
</g>
<!-- http://w3id.org/oseg/ont/okhimg#tagIcon -->
<g id="node34" class="node">
<title>http://w3id.org/oseg/ont/okhimg#tagIcon</title>
<ellipse fill="none" stroke="#e377c2" cx="667.82" cy="-449.16" rx="89.61" ry="16.03"/>
<text text-anchor="middle" x="667.82" y="-445.46" font-family="Times,serif" font-size="14.00">okhimg:tagIcon</text>
</g>
<!-- http://w3id.org/oseg/ont/okhimg#tagIcon&#45;&gt;http://schema.org/DefinedTerm -->
<g id="edge38" class="edge">
<title>http://w3id.org/oseg/ont/okhimg#tagIcon&#45;&gt;http://schema.org/DefinedTerm</title>
<path fill="none" stroke="black" d="M659.38,-432.72C645.61,-405.92 618.25,-352.65 601.97,-320.95"/>
<polygon fill="black" stroke="black" points="604.98,-319.16 597.3,-311.86 598.75,-322.36 604.98,-319.16"/>
<text text-anchor="middle" x="626.17" y="-380.63" font-family="Times,serif" font-size="14.00">a</text>
</g>
<!-- http://w3id.org/oseg/ont/okhimg#tagScreenshot -->
<g id="node35" class="node">
<title>http://w3id.org/oseg/ont/okhimg#tagScreenshot</title>
<ellipse fill="none" stroke="#e377c2" cx="203.27" cy="-450.63" rx="125.32" ry="16.03"/>
<text text-anchor="middle" x="203.27" y="-446.93" font-family="Times,serif" font-size="14.00">okhimg:tagScreenshot</text>
</g>
<!-- http://w3id.org/oseg/ont/okhimg#tagScreenshot&#45;&gt;http://schema.org/DefinedTerm -->
<g id="edge40" class="edge">
<title>http://w3id.org/oseg/ont/okhimg#tagScreenshot&#45;&gt;http://schema.org/DefinedTerm</title>
<path fill="none" stroke="black" d="M242.01,-435.05C312.99,-406.5 463.68,-345.9 540.98,-314.82"/>
<polygon fill="black" stroke="black" points="542.51,-317.97 550.48,-311 539.9,-311.48 542.51,-317.97"/>
<text text-anchor="middle" x="386.99" y="-378.73" font-family="Times,serif" font-size="14.00">a</text>
</g>
<!-- http://w3id.org/oseg/ont/okhimg#tagPhoto -->
<g id="node37" class="node">
<title>http://w3id.org/oseg/ont/okhimg#tagPhoto</title>
<ellipse fill="none" stroke="#e377c2" cx="582.69" cy="-499.5" rx="97.66" ry="16.03"/>
<text text-anchor="middle" x="582.69" y="-495.8" font-family="Times,serif" font-size="14.00">okhimg:tagPhoto</text>
</g>
<!-- http://w3id.org/oseg/ont/okhimg#tagPhoto&#45;&gt;http://schema.org/DefinedTerm -->
<g id="edge44" class="edge">
<title>http://w3id.org/oseg/ont/okhimg#tagPhoto&#45;&gt;http://schema.org/DefinedTerm</title>
<path fill="none" stroke="black" d="M583.19,-483.15C584.26,-448.02 586.79,-365.04 588.1,-322.19"/>
<polygon fill="black" stroke="black" points="591.61,-322.07 588.41,-311.96 584.61,-321.85 591.61,-322.07"/>
<text text-anchor="middle" x="581.15" y="-406.47" font-family="Times,serif" font-size="14.00">a</text>
</g>
<!-- http://w3id.org/oseg/ont/okhimg#tagModel -->
<g id="node38" class="node">
<title>http://w3id.org/oseg/ont/okhimg#tagModel</title>
<ellipse fill="none" stroke="#e377c2" cx="335.18" cy="-288.48" rx="99.9" ry="16.03"/>
<text text-anchor="middle" x="335.18" y="-284.78" font-family="Times,serif" font-size="14.00">okhimg:tagModel</text>
</g>
<!-- http://w3id.org/oseg/ont/okhimg#tagModel&#45;&gt;http://schema.org/DefinedTerm -->
<g id="edge46" class="edge">
<title>http://w3id.org/oseg/ont/okhimg#tagModel&#45;&gt;http://schema.org/DefinedTerm</title>
<path fill="none" stroke="black" d="M433.65,-291.22C443.16,-291.49 452.89,-291.76 462.63,-292.03"/>
<polygon fill="black" stroke="black" points="462.66,-295.53 472.76,-292.31 462.86,-288.53 462.66,-295.53"/>
<text text-anchor="middle" x="443.64" y="-295.42" font-family="Times,serif" font-size="14.00">a</text>
</g>
<!-- http://w3id.org/oseg/ont/okhimg#tagDiagram -->
<g id="node39" class="node">
<title>http://w3id.org/oseg/ont/okhimg#tagDiagram</title>
<ellipse fill="none" stroke="#e377c2" cx="354.76" cy="-134.38" rx="111.95" ry="16.03"/>
<text text-anchor="middle" x="354.76" y="-130.68" font-family="Times,serif" font-size="14.00">okhimg:tagDiagram</text>
</g>
<!-- http://w3id.org/oseg/ont/okhimg#tagDiagram&#45;&gt;http://schema.org/DefinedTerm -->
<g id="edge47" class="edge">
<title>http://w3id.org/oseg/ont/okhimg#tagDiagram&#45;&gt;http://schema.org/DefinedTerm</title>
<path fill="none" stroke="black" d="M378.07,-150.42C420.32,-179.5 509.6,-240.95 557.3,-273.78"/>
<polygon fill="black" stroke="black" points="555.48,-276.78 565.7,-279.56 559.45,-271.01 555.48,-276.78"/>
<text text-anchor="middle" x="463.18" y="-215.9" font-family="Times,serif" font-size="14.00">a</text>
</g>
<!-- http://w3id.org/oseg/ont/okhimg#slotModelFromLeft -->
<g id="node40" class="node">
<title>http://w3id.org/oseg/ont/okhimg#slotModelFromLeft</title>
<ellipse fill="none" stroke="#e377c2" cx="407.38" cy="-56.4" rx="116.85" ry="16.03"/>
<text text-anchor="middle" x="407.38" y="-52.7" font-family="Times,serif" font-size="14.00">okhimg:slotModelF...</text>
</g>
<!-- http://w3id.org/oseg/ont/okhimg#slotModelFromLeft&#45;&gt;http://schema.org/DefinedTerm -->
<g id="edge48" class="edge">
<title>http://w3id.org/oseg/ont/okhimg#slotModelFromLeft&#45;&gt;http://schema.org/DefinedTerm</title>
<path fill="none" stroke="black" d="M419.86,-72.83C451.22,-114.15 533.46,-222.49 570.44,-271.2"/>
<polygon fill="black" stroke="black" points="567.76,-273.46 576.59,-279.3 573.33,-269.22 567.76,-273.46"/>
<text text-anchor="middle" x="490.65" y="-175.82" font-family="Times,serif" font-size="14.00">a</text>
</g>
<!-- http://w3id.org/oseg/ont/okhimg#tagColor -->
<g id="node41" class="node">
<title>http://w3id.org/oseg/ont/okhimg#tagColor</title>
<ellipse fill="none" stroke="#e377c2" cx="756.43" cy="-151.02" rx="95.42" ry="16.03"/>
<text text-anchor="middle" x="756.43" y="-147.32" font-family="Times,serif" font-size="14.00">okhimg:tagColor</text>
</g>
<!-- http://w3id.org/oseg/ont/okhimg#tagColor&#45;&gt;http://schema.org/DefinedTerm -->
<g id="edge49" class="edge">
<title>http://w3id.org/oseg/ont/okhimg#tagColor&#45;&gt;http://schema.org/DefinedTerm</title>
<path fill="none" stroke="black" d="M737.86,-167.04C708.05,-192.76 649.41,-243.35 615.27,-272.8"/>
<polygon fill="black" stroke="black" points="612.85,-270.27 607.56,-279.45 617.42,-275.57 612.85,-270.27"/>
<text text-anchor="middle" x="672.07" y="-223.72" font-family="Times,serif" font-size="14.00">a</text>
</g>
</g>
</svg>
