<?xml version="1.0" encoding="UTF-8" standalone="no"?>
<!DOCTYPE svg PUBLIC "-//W3C//DTD SVG 1.1//EN"
 "http://www.w3.org/Graphics/SVG/1.1/DTD/svg11.dtd">
<!-- Generated by graphviz version 2.43.0 (0)
 -->
<!-- Title: G Pages: 1 -->
<svg width="1659pt" height="895pt"
 viewBox="0.00 0.00 1659.00 895.00" xmlns="http://www.w3.org/2000/svg" xmlns:xlink="http://www.w3.org/1999/xlink">
<g id="graph0" class="graph" transform="scale(1 1) rotate(0) translate(4 891)">
<title>G</title>
<polygon fill="white" stroke="transparent" points="-4,4 -4,-891 1655,-891 1655,4 -4,4"/>
<!-- http://schema.org/DefinedTerm -->
<g id="node1" class="node">
<title>http://schema.org/DefinedTerm</title>
<ellipse fill="none" stroke="#1f77b4" cx="551.41" cy="-598.33" rx="118.17" ry="16.03"/>
<text text-anchor="middle" x="551.41" y="-594.63" font-family="Times,serif" font-size="14.00">schema:DefinedTerm</text>
</g>
<!-- http://schema.org/DefinedTermSet -->
<g id="node2" class="node">
<title>http://schema.org/DefinedTermSet</title>
<ellipse fill="none" stroke="#1f77b4" cx="1298.2" cy="-384.51" rx="116.85" ry="16.03"/>
<text text-anchor="middle" x="1298.2" y="-380.81" font-family="Times,serif" font-size="14.00">schema:DefinedTer...</text>
</g>
<!-- http://spdx.org/rdf/terms#SpdxItem -->
<g id="node3" class="node">
<title>http://spdx.org/rdf/terms#SpdxItem</title>
<ellipse fill="none" stroke="#1f77b4" cx="1526.6" cy="-240.91" rx="87.86" ry="16.03"/>
<text text-anchor="middle" x="1526.6" y="-237.21" font-family="Times,serif" font-size="14.00">spdx:SpdxItem</text>
</g>
<!-- http://w3id.org/oseg/ont/ods#Dataset -->
<g id="node4" class="node">
<title>http://w3id.org/oseg/ont/ods#Dataset</title>
<ellipse fill="none" stroke="#1f77b4" cx="1283.05" cy="-56.81" rx="71.34" ry="16.03"/>
<text text-anchor="middle" x="1283.05" y="-53.11" font-family="Times,serif" font-size="14.00">ods:Dataset</text>
</g>
<!-- http://w3id.org/oseg/ont/okhimg#slotModelFromBelow -->
<g id="node5" class="node">
<title>http://w3id.org/oseg/ont/okhimg#slotModelFromBelow</title>
<ellipse fill="none" stroke="#e377c2" cx="288.78" cy="-479.34" rx="116.85" ry="16.03"/>
<text text-anchor="middle" x="288.78" y="-475.64" font-family="Times,serif" font-size="14.00">okhimg:slotModelF...</text>
</g>
<!-- http://w3id.org/oseg/ont/okhimg#slotModelFromBelow&#45;&gt;http://schema.org/DefinedTerm -->
<g id="edge1" class="edge">
<title>http://w3id.org/oseg/ont/okhimg#slotModelFromBelow&#45;&gt;http://schema.org/DefinedTerm</title>
<path fill="none" stroke="black" d="M323.12,-494.9C370.37,-516.3 455.47,-554.86 507.36,-578.37"/>
<polygon fill="black" stroke="black" points="506.09,-581.64 516.65,-582.58 508.98,-575.27 506.09,-581.64"/>
<text text-anchor="middle" x="410.74" y="-525.43" font-family="Times,serif" font-size="14.00">a</text>
</g>
<!-- http://w3id.org/oseg/ont/okhimg#slotIconMainBw -->
<g id="node6" class="node">
<title>http://w3id.org/oseg/ont/okhimg#slotIconMainBw</title>
<ellipse fill="none" stroke="#e377c2" cx="756.27" cy="-460.05" rx="117.26" ry="16.03"/>
<text text-anchor="middle" x="756.27" y="-456.35" font-family="Times,serif" font-size="14.00">okhimg:slotIconMa...</text>
</g>
<!-- http://w3id.org/oseg/ont/okhimg#slotIconMainBw&#45;&gt;http://schema.org/DefinedTerm -->
<g id="edge10" class="edge">
<title>http://w3id.org/oseg/ont/okhimg#slotIconMainBw&#45;&gt;http://schema.org/DefinedTerm</title>
<path fill="none" stroke="black" d="M732.37,-476.19C695.52,-501.06 624.77,-548.81 583.49,-576.67"/>
<polygon fill="black" stroke="black" points="581.49,-573.8 575.16,-582.3 585.4,-579.61 581.49,-573.8"/>
<text text-anchor="middle" x="653.43" y="-530.23" font-family="Times,serif" font-size="14.00">a</text>
</g>
<!-- http://w3id.org/oseg/ont/okhimg#slotIconMain -->
<g id="node25" class="node">
<title>http://w3id.org/oseg/ont/okhimg#slotIconMain</title>
<ellipse fill="none" stroke="#e377c2" cx="999.45" cy="-427.15" rx="117.26" ry="16.03"/>
<text text-anchor="middle" x="999.45" y="-423.45" font-family="Times,serif" font-size="14.00">okhimg:slotIconMain</text>
</g>
<!-- http://w3id.org/oseg/ont/okhimg#slotIconMainBw&#45;&gt;http://w3id.org/oseg/ont/okhimg#slotIconMain -->
<g id="edge50" class="edge">
<title>http://w3id.org/oseg/ont/okhimg#slotIconMainBw&#45;&gt;http://w3id.org/oseg/ont/okhimg#slotIconMain</title>
<path fill="none" stroke="black" d="M861,-452.63C884.32,-449.65 908.48,-446.21 929.96,-442.8"/>
<polygon fill="black" stroke="black" points="930.64,-446.23 939.95,-441.18 929.52,-439.32 930.64,-446.23"/>
<text text-anchor="middle" x="922.98" y="-451.51" font-family="Times,serif" font-size="14.00">seeAlso</text>
</g>
<!-- http://w3id.org/oseg/ont/okhimg#slotModelFromRight -->
<g id="node7" class="node">
<title>http://w3id.org/oseg/ont/okhimg#slotModelFromRight</title>
<ellipse fill="none" stroke="#e377c2" cx="300.83" cy="-789.43" rx="116.85" ry="16.03"/>
<text text-anchor="middle" x="300.83" y="-785.73" font-family="Times,serif" font-size="14.00">okhimg:slotModelF...</text>
</g>
<!-- http://w3id.org/oseg/ont/okhimg#slotModelFromRight&#45;&gt;http://schema.org/DefinedTerm -->
<g id="edge3" class="edge">
<title>http://w3id.org/oseg/ont/okhimg#slotModelFromRight&#45;&gt;http://schema.org/DefinedTerm</title>
<path fill="none" stroke="black" d="M322.2,-773.13C367.04,-738.93 471.04,-659.62 522.09,-620.69"/>
<polygon fill="black" stroke="black" points="524.27,-623.43 530.1,-614.58 520.02,-617.86 524.27,-623.43"/>
<text text-anchor="middle" x="417.64" y="-685.71" font-family="Times,serif" font-size="14.00">a</text>
</g>
<!-- http://w3id.org/oseg/ont/okhimg#tagBw -->
<g id="node8" class="node">
<title>http://w3id.org/oseg/ont/okhimg#tagBw</title>
<ellipse fill="none" stroke="#e377c2" cx="536.38" cy="-789.34" rx="84.29" ry="16.03"/>
<text text-anchor="middle" x="536.38" y="-785.64" font-family="Times,serif" font-size="14.00">okhimg:tagBw</text>
</g>
<!-- http://w3id.org/oseg/ont/okhimg#tagBw&#45;&gt;http://schema.org/DefinedTerm -->
<g id="edge4" class="edge">
<title>http://w3id.org/oseg/ont/okhimg#tagBw&#45;&gt;http://schema.org/DefinedTerm</title>
<path fill="none" stroke="black" d="M537.66,-773.06C540.25,-740.08 546.15,-665.15 549.31,-624.96"/>
<polygon fill="black" stroke="black" points="552.81,-625.09 550.11,-614.85 545.83,-624.54 552.81,-625.09"/>
<text text-anchor="middle" x="538.99" y="-702.81" font-family="Times,serif" font-size="14.00">a</text>
</g>
<!-- http://spdx.org/licenses/AGPL&#45;3.0&#45;or&#45;later -->
<g id="node9" class="node">
<title>http://spdx.org/licenses/AGPL&#45;3.0&#45;or&#45;later</title>
<ellipse fill="none" stroke="#e377c2" cx="1418.37" cy="-16.28" rx="111.95" ry="16.03"/>
<text text-anchor="middle" x="1418.37" y="-12.58" font-family="Times,serif" font-size="14.00">spdxl:AGPL&#45;3.0&#45;or...</text>
</g>
<!-- http://w3id.org/oseg/ont/oseg&#45;profiles#robinVobruba -->
<g id="node10" class="node">
<title>http://w3id.org/oseg/ont/oseg&#45;profiles#robinVobruba</title>
<ellipse fill="none" stroke="#e377c2" cx="1537.1" cy="-133.97" rx="113.69" ry="16.03"/>
<text text-anchor="middle" x="1537.1" y="-130.27" font-family="Times,serif" font-size="14.00">osegprof:robinVob...</text>
</g>
<!-- http://w3id.org/oseg/ont/okhimg#slotLogo -->
<g id="node11" class="node">
<title>http://w3id.org/oseg/ont/okhimg#slotLogo</title>
<ellipse fill="none" stroke="#e377c2" cx="626.78" cy="-829.92" rx="94.51" ry="16.03"/>
<text text-anchor="middle" x="626.78" y="-826.22" font-family="Times,serif" font-size="14.00">okhimg:slotLogo</text>
</g>
<!-- http://w3id.org/oseg/ont/okhimg#slotLogo&#45;&gt;http://schema.org/DefinedTerm -->
<g id="edge7" class="edge">
<title>http://w3id.org/oseg/ont/okhimg#slotLogo&#45;&gt;http://schema.org/DefinedTerm</title>
<path fill="none" stroke="black" d="M621.48,-813.63C608.59,-774.02 575.5,-672.35 559.85,-624.27"/>
<polygon fill="black" stroke="black" points="563.13,-623.02 556.7,-614.6 556.47,-625.19 563.13,-623.02"/>
<text text-anchor="middle" x="586.17" y="-707.75" font-family="Times,serif" font-size="14.00">a</text>
</g>
<!-- http://w3id.org/oseg/ont/okhimg#slotLogoBw -->
<g id="node12" class="node">
<title>http://w3id.org/oseg/ont/okhimg#slotLogoBw</title>
<ellipse fill="none" stroke="#e377c2" cx="412.83" cy="-829.96" rx="111.03" ry="16.03"/>
<text text-anchor="middle" x="412.83" y="-826.26" font-family="Times,serif" font-size="14.00">okhimg:slotLogoBw</text>
</g>
<!-- http://w3id.org/oseg/ont/okhimg#slotLogo&#45;&gt;http://w3id.org/oseg/ont/okhimg#slotLogoBw -->
<g id="edge8" class="edge">
<title>http://w3id.org/oseg/ont/okhimg#slotLogo&#45;&gt;http://w3id.org/oseg/ont/okhimg#slotLogoBw</title>
<path fill="none" stroke="black" d="M540.07,-823.3C534.84,-823.24 529.55,-823.21 524.25,-823.2"/>
<polygon fill="black" stroke="black" points="524.04,-819.7 514.04,-823.2 524.05,-826.7 524.04,-819.7"/>
<text text-anchor="middle" x="504.66" y="-812.05" font-family="Times,serif" font-size="14.00">seeAlso</text>
</g>
<!-- http://w3id.org/oseg/ont/okhimg#slotLogoBw&#45;&gt;http://schema.org/DefinedTerm -->
<g id="edge13" class="edge">
<title>http://w3id.org/oseg/ont/okhimg#slotLogoBw&#45;&gt;http://schema.org/DefinedTerm</title>
<path fill="none" stroke="black" d="M422.58,-813.68C446.43,-773.8 507.88,-671.09 536.43,-623.37"/>
<polygon fill="black" stroke="black" points="539.54,-624.98 541.67,-614.6 533.54,-621.39 539.54,-624.98"/>
<text text-anchor="middle" x="484" y="-707.33" font-family="Times,serif" font-size="14.00">a</text>
</g>
<!-- http://w3id.org/oseg/ont/okhimg#slotLogoBw&#45;&gt;http://w3id.org/oseg/ont/okhimg#slotLogo -->
<g id="edge37" class="edge">
<title>http://w3id.org/oseg/ont/okhimg#slotLogoBw&#45;&gt;http://w3id.org/oseg/ont/okhimg#slotLogo</title>
<path fill="none" stroke="black" d="M514.17,-836.68C519.43,-836.7 524.72,-836.69 529.97,-836.66"/>
<polygon fill="black" stroke="black" points="530.04,-840.16 540.01,-836.58 529.98,-833.16 530.04,-840.16"/>
<text text-anchor="middle" x="549.57" y="-840.47" font-family="Times,serif" font-size="14.00">seeAlso</text>
</g>
<!-- http://w3id.org/oseg/ont/okhimg#slotOrganizationLogoBw -->
<g id="node13" class="node">
<title>http://w3id.org/oseg/ont/okhimg#slotOrganizationLogoBw</title>
<ellipse fill="none" stroke="#e377c2" cx="792.28" cy="-568.04" rx="114.6" ry="16.03"/>
<text text-anchor="middle" x="792.28" y="-564.34" font-family="Times,serif" font-size="14.00">okhimg:slotOrgani...</text>
</g>
<!-- http://w3id.org/oseg/ont/okhimg#slotOrganizationLogoBw&#45;&gt;http://schema.org/DefinedTerm -->
<g id="edge9" class="edge">
<title>http://w3id.org/oseg/ont/okhimg#slotOrganizationLogoBw&#45;&gt;http://schema.org/DefinedTerm</title>
<path fill="none" stroke="black" d="M706.34,-578.85C687.79,-581.18 668.04,-583.66 649.08,-586.05"/>
<polygon fill="black" stroke="black" points="648.43,-582.6 638.94,-587.32 649.3,-589.55 648.43,-582.6"/>
<text text-anchor="middle" x="673.21" y="-571.25" font-family="Times,serif" font-size="14.00">a</text>
</g>
<!-- http://w3id.org/oseg/ont/okhimg#slotOrganizationLogo -->
<g id="node14" class="node">
<title>http://w3id.org/oseg/ont/okhimg#slotOrganizationLogo</title>
<ellipse fill="none" stroke="#e377c2" cx="799.24" cy="-608.63" rx="114.6" ry="16.03"/>
<text text-anchor="middle" x="799.24" y="-604.93" font-family="Times,serif" font-size="14.00">okhimg:slotOrgani...</text>
</g>
<!-- http://w3id.org/oseg/ont/okhimg#slotOrganizationLogoBw&#45;&gt;http://w3id.org/oseg/ont/okhimg#slotOrganizationLogo -->
<g id="edge41" class="edge">
<title>http://w3id.org/oseg/ont/okhimg#slotOrganizationLogoBw&#45;&gt;http://w3id.org/oseg/ont/okhimg#slotOrganizationLogo</title>
<path fill="none" stroke="black" d="M788.46,-584.73C788.48,-584.89 788.5,-585.04 788.51,-585.2"/>
<polygon fill="black" stroke="black" points="784.62,-583.08 789.68,-592.4 791.53,-581.97 784.62,-583.08"/>
<text text-anchor="middle" x="760.99" y="-588.77" font-family="Times,serif" font-size="14.00">seeAlso</text>
</g>
<!-- http://w3id.org/oseg/ont/okhimg#slotOrganizationLogo&#45;&gt;http://schema.org/DefinedTerm -->
<g id="edge11" class="edge">
<title>http://w3id.org/oseg/ont/okhimg#slotOrganizationLogo&#45;&gt;http://schema.org/DefinedTerm</title>
<path fill="none" stroke="black" d="M689.1,-604.05C684.39,-603.85 679.65,-603.66 674.92,-603.46"/>
<polygon fill="black" stroke="black" points="674.7,-599.95 664.56,-603.03 674.41,-606.94 674.7,-599.95"/>
<text text-anchor="middle" x="677.51" y="-607.56" font-family="Times,serif" font-size="14.00">a</text>
</g>
<!-- http://w3id.org/oseg/ont/okhimg#slotOrganizationLogo&#45;&gt;http://w3id.org/oseg/ont/okhimg#slotOrganizationLogoBw -->
<g id="edge45" class="edge">
<title>http://w3id.org/oseg/ont/okhimg#slotOrganizationLogo&#45;&gt;http://w3id.org/oseg/ont/okhimg#slotOrganizationLogoBw</title>
<path fill="none" stroke="black" d="M803.06,-591.94C803.05,-591.78 803.03,-591.62 803.01,-591.46"/>
<polygon fill="black" stroke="black" points="806.9,-593.58 801.85,-584.27 799.99,-594.7 806.9,-593.58"/>
<text text-anchor="middle" x="830.54" y="-580.5" font-family="Times,serif" font-size="14.00">seeAlso</text>
</g>
<!-- http://w3id.org/oseg/ont/okhimg#tagAssembly -->
<g id="node15" class="node">
<title>http://w3id.org/oseg/ont/okhimg#tagAssembly</title>
<ellipse fill="none" stroke="#e377c2" cx="853.27" cy="-686.51" rx="116.85" ry="16.03"/>
<text text-anchor="middle" x="853.27" y="-682.81" font-family="Times,serif" font-size="14.00">okhimg:tagAssembly</text>
</g>
<!-- http://w3id.org/oseg/ont/okhimg#tagAssembly&#45;&gt;http://schema.org/DefinedTerm -->
<g id="edge12" class="edge">
<title>http://w3id.org/oseg/ont/okhimg#tagAssembly&#45;&gt;http://schema.org/DefinedTerm</title>
<path fill="none" stroke="black" d="M802.74,-671.75C750.1,-656.37 667.63,-632.28 611.63,-615.92"/>
<polygon fill="black" stroke="black" points="612.43,-612.51 601.85,-613.06 610.46,-619.23 612.43,-612.51"/>
<text text-anchor="middle" x="702.69" y="-647.64" font-family="Times,serif" font-size="14.00">a</text>
</g>
<!-- http://w3id.org/oseg/ont/okhimg#tagScreenshot -->
<g id="node16" class="node">
<title>http://w3id.org/oseg/ont/okhimg#tagScreenshot</title>
<ellipse fill="none" stroke="#e377c2" cx="124.69" cy="-562.58" rx="125.32" ry="16.03"/>
<text text-anchor="middle" x="124.69" y="-558.88" font-family="Times,serif" font-size="14.00">okhimg:tagScreenshot</text>
</g>
<!-- http://w3id.org/oseg/ont/okhimg#tagScreenshot&#45;&gt;http://schema.org/DefinedTerm -->
<g id="edge14" class="edge">
<title>http://w3id.org/oseg/ont/okhimg#tagScreenshot&#45;&gt;http://schema.org/DefinedTerm</title>
<path fill="none" stroke="black" d="M229.89,-571.39C293.73,-576.74 375.12,-583.56 440.04,-589"/>
<polygon fill="black" stroke="black" points="440.06,-592.51 450.32,-589.86 440.64,-585.54 440.06,-592.51"/>
<text text-anchor="middle" x="330.47" y="-569" font-family="Times,serif" font-size="14.00">a</text>
</g>
<!-- http://w3id.org/oseg/ont/okhimg -->
<g id="node17" class="node">
<title>http://w3id.org/oseg/ont/okhimg</title>
<ellipse fill="none" stroke="#e377c2" cx="1322" cy="-218.41" rx="70.01" ry="16.03"/>
<text text-anchor="middle" x="1322" y="-214.71" font-family="Times,serif" font-size="14.00">ns1:okhimg</text>
</g>
<!-- http://w3id.org/oseg/ont/okhimg&#45;&gt;http://spdx.org/rdf/terms#SpdxItem -->
<g id="edge15" class="edge">
<title>http://w3id.org/oseg/ont/okhimg&#45;&gt;http://spdx.org/rdf/terms#SpdxItem</title>
<path fill="none" stroke="black" d="M1385.34,-225.38C1402.95,-227.31 1422.37,-229.45 1441.02,-231.5"/>
<polygon fill="black" stroke="black" points="1440.67,-234.98 1450.99,-232.59 1441.44,-228.02 1440.67,-234.98"/>
<text text-anchor="middle" x="1408.68" y="-232.24" font-family="Times,serif" font-size="14.00">a</text>
</g>
<!-- http://w3id.org/oseg/ont/okhimg&#45;&gt;http://w3id.org/oseg/ont/ods#Dataset -->
<g id="edge29" class="edge">
<title>http://w3id.org/oseg/ont/okhimg&#45;&gt;http://w3id.org/oseg/ont/ods#Dataset</title>
<path fill="none" stroke="black" d="M1318.05,-202.03C1311.32,-174.08 1297.55,-116.95 1289.43,-83.28"/>
<polygon fill="black" stroke="black" points="1292.76,-82.14 1287.01,-73.24 1285.95,-83.78 1292.76,-82.14"/>
<text text-anchor="middle" x="1299.24" y="-146.46" font-family="Times,serif" font-size="14.00">a</text>
</g>
<!-- http://w3id.org/oseg/ont/okhimg&#45;&gt;http://spdx.org/licenses/AGPL&#45;3.0&#45;or&#45;later -->
<g id="edge5" class="edge">
<title>http://w3id.org/oseg/ont/okhimg&#45;&gt;http://spdx.org/licenses/AGPL&#45;3.0&#45;or&#45;later</title>
<path fill="none" stroke="black" d="M1329.72,-202.21C1346.46,-167.1 1386.2,-83.75 1406.29,-41.61"/>
<polygon fill="black" stroke="black" points="1409.46,-43.09 1410.61,-32.55 1403.15,-40.07 1409.46,-43.09"/>
<text text-anchor="middle" x="1292.01" y="-125.71" font-family="Times,serif" font-size="14.00">spdx:licenseDeclared</text>
</g>
<!-- http://w3id.org/oseg/ont/okhimg&#45;&gt;http://w3id.org/oseg/ont/oseg&#45;profiles#robinVobruba -->
<g id="edge6" class="edge">
<title>http://w3id.org/oseg/ont/okhimg&#45;&gt;http://w3id.org/oseg/ont/oseg&#45;profiles#robinVobruba</title>
<path fill="none" stroke="black" d="M1368.35,-206.21C1407.9,-192.45 1463.98,-170.34 1500.45,-154.07"/>
<polygon fill="black" stroke="black" points="1502.08,-157.18 1509.74,-149.86 1499.19,-150.8 1502.08,-157.18"/>
<text text-anchor="middle" x="1376.9" y="-168.94" font-family="Times,serif" font-size="14.00">dcterms:creator</text>
</g>
<!-- http://w3id.org/oseg/ont/okhimg&#45;&gt;http://w3id.org/oseg/ont/oseg&#45;profiles#robinVobruba -->
<g id="edge30" class="edge">
<title>http://w3id.org/oseg/ont/okhimg&#45;&gt;http://w3id.org/oseg/ont/oseg&#45;profiles#robinVobruba</title>
<path fill="none" stroke="black" d="M1347.96,-203.17C1379.19,-188.63 1432.63,-167.14 1474.76,-151.85"/>
<polygon fill="black" stroke="black" points="1476.16,-155.07 1484.39,-148.4 1473.79,-148.48 1476.16,-155.07"/>
<text text-anchor="middle" x="1355.86" y="-181.31" font-family="Times,serif" font-size="14.00">schema:creator</text>
</g>
<!-- http://w3id.org/oseg/ont/okhimg#slots -->
<g id="node29" class="node">
<title>http://w3id.org/oseg/ont/okhimg#slots</title>
<ellipse fill="none" stroke="#e377c2" cx="1103.47" cy="-298.46" rx="75.82" ry="16.03"/>
<text text-anchor="middle" x="1103.47" y="-294.76" font-family="Times,serif" font-size="14.00">okhimg:slots</text>
</g>
<!-- http://w3id.org/oseg/ont/okhimg&#45;&gt;http://w3id.org/oseg/ont/okhimg#slots -->
<g id="edge27" class="edge">
<title>http://w3id.org/oseg/ont/okhimg&#45;&gt;http://w3id.org/oseg/ont/okhimg#slots</title>
<path fill="none" stroke="black" d="M1284.43,-232.17C1247.68,-245.63 1191.55,-266.19 1151.55,-280.84"/>
<polygon fill="black" stroke="black" points="1150.2,-277.61 1142.01,-284.34 1152.6,-284.19 1150.2,-277.61"/>
<text text-anchor="middle" x="1152.99" y="-260.31" font-family="Times,serif" font-size="14.00">void:rootResource</text>
</g>
<!-- http://w3id.org/oseg/ont/okhimg#tags -->
<g id="node30" class="node">
<title>http://w3id.org/oseg/ont/okhimg#tags</title>
<ellipse fill="none" stroke="#e377c2" cx="1099.94" cy="-351.36" rx="73.58" ry="16.03"/>
<text text-anchor="middle" x="1099.94" y="-347.66" font-family="Times,serif" font-size="14.00">okhimg:tags</text>
</g>
<!-- http://w3id.org/oseg/ont/okhimg&#45;&gt;http://w3id.org/oseg/ont/okhimg#tags -->
<g id="edge28" class="edge">
<title>http://w3id.org/oseg/ont/okhimg&#45;&gt;http://w3id.org/oseg/ont/okhimg#tags</title>
<path fill="none" stroke="black" d="M1296.53,-233.66C1256.56,-257.59 1179.06,-303.99 1134.23,-330.83"/>
<polygon fill="black" stroke="black" points="1132.24,-327.94 1125.45,-336.08 1135.83,-333.95 1132.24,-327.94"/>
<text text-anchor="middle" x="1280.38" y="-286.04" font-family="Times,serif" font-size="14.00">void:rootResource</text>
</g>
<!-- http://w3id.org/oseg/ont/oseg&#45;profiles#Iopa -->
<g id="node34" class="node">
<title>http://w3id.org/oseg/ont/oseg&#45;profiles#Iopa</title>
<ellipse fill="none" stroke="#e377c2" cx="1485.34" cy="-312.6" rx="80.72" ry="16.03"/>
<text text-anchor="middle" x="1485.34" y="-308.9" font-family="Times,serif" font-size="14.00">osegprof:Iopa</text>
</g>
<!-- http://w3id.org/oseg/ont/okhimg&#45;&gt;http://w3id.org/oseg/ont/oseg&#45;profiles#Iopa -->
<g id="edge36" class="edge">
<title>http://w3id.org/oseg/ont/okhimg&#45;&gt;http://w3id.org/oseg/ont/oseg&#45;profiles#Iopa</title>
<path fill="none" stroke="black" d="M1348.24,-233.54C1375.71,-249.38 1418.99,-274.34 1449.57,-291.97"/>
<polygon fill="black" stroke="black" points="1448.21,-295.23 1458.62,-297.19 1451.71,-289.16 1448.21,-295.23"/>
<text text-anchor="middle" x="1333.41" y="-266.56" font-family="Times,serif" font-size="14.00">dcterms:publisher</text>
</g>
<!-- http://id.loc.gov/vocabulary/iso639&#45;1/en -->
<g id="node39" class="node">
<title>http://id.loc.gov/vocabulary/iso639&#45;1/en</title>
<ellipse fill="none" stroke="#e377c2" cx="1465.43" cy="-187.85" rx="45.01" ry="16.03"/>
<text text-anchor="middle" x="1465.43" y="-184.15" font-family="Times,serif" font-size="14.00">ns2:en</text>
</g>
<!-- http://w3id.org/oseg/ont/okhimg&#45;&gt;http://id.loc.gov/vocabulary/iso639&#45;1/en -->
<g id="edge43" class="edge">
<title>http://w3id.org/oseg/ont/okhimg&#45;&gt;http://id.loc.gov/vocabulary/iso639&#45;1/en</title>
<path fill="none" stroke="black" d="M1373.78,-207.38C1387.73,-204.41 1402.77,-201.2 1416.55,-198.27"/>
<polygon fill="black" stroke="black" points="1417.28,-201.69 1426.34,-196.18 1415.83,-194.84 1417.28,-201.69"/>
<text text-anchor="middle" x="1459.67" y="-206.62" font-family="Times,serif" font-size="14.00">dcterms:language</text>
</g>
<!-- http://w3id.org/oseg/ont/0.1.0/okhimg -->
<g id="node42" class="node">
<title>http://w3id.org/oseg/ont/0.1.0/okhimg</title>
<ellipse fill="none" stroke="#e377c2" cx="1432.72" cy="-93.43" rx="70.01" ry="16.03"/>
<text text-anchor="middle" x="1432.72" y="-89.73" font-family="Times,serif" font-size="14.00">ns3:okhimg</text>
</g>
<!-- http://w3id.org/oseg/ont/okhimg&#45;&gt;http://w3id.org/oseg/ont/0.1.0/okhimg -->
<g id="edge48" class="edge">
<title>http://w3id.org/oseg/ont/okhimg&#45;&gt;http://w3id.org/oseg/ont/0.1.0/okhimg</title>
<path fill="none" stroke="black" d="M1336.25,-202.33C1355.43,-180.67 1389.7,-141.98 1411.81,-117.03"/>
<polygon fill="black" stroke="black" points="1414.52,-119.25 1418.53,-109.45 1409.28,-114.61 1414.52,-119.25"/>
<text text-anchor="middle" x="1374.03" y="-148.48" font-family="Times,serif" font-size="14.00">owl:versionIRI</text>
</g>
<!-- http://w3id.org/oseg/ont/okhimg#slotPhotoThingMain -->
<g id="node18" class="node">
<title>http://w3id.org/oseg/ont/okhimg#slotPhotoThingMain</title>
<ellipse fill="none" stroke="#e377c2" cx="357.02" cy="-705.34" rx="114.6" ry="16.03"/>
<text text-anchor="middle" x="357.02" y="-701.64" font-family="Times,serif" font-size="14.00">okhimg:slotPhotoT...</text>
</g>
<!-- http://w3id.org/oseg/ont/okhimg#slotPhotoThingMain&#45;&gt;http://schema.org/DefinedTerm -->
<g id="edge16" class="edge">
<title>http://w3id.org/oseg/ont/okhimg#slotPhotoThingMain&#45;&gt;http://schema.org/DefinedTerm</title>
<path fill="none" stroke="black" d="M385.71,-689.55C419.59,-670.9 476.06,-639.81 513.52,-619.19"/>
<polygon fill="black" stroke="black" points="515.54,-622.07 522.61,-614.19 512.16,-615.94 515.54,-622.07"/>
<text text-anchor="middle" x="445.11" y="-658.17" font-family="Times,serif" font-size="14.00">a</text>
</g>
<!-- http://w3id.org/oseg/ont/okhimg#tagArt -->
<g id="node19" class="node">
<title>http://w3id.org/oseg/ont/okhimg#tagArt</title>
<ellipse fill="none" stroke="#e377c2" cx="959.79" cy="-500.63" rx="84.29" ry="16.03"/>
<text text-anchor="middle" x="959.79" y="-496.93" font-family="Times,serif" font-size="14.00">okhimg:tagArt</text>
</g>
<!-- http://w3id.org/oseg/ont/okhimg#tagArt&#45;&gt;http://schema.org/DefinedTerm -->
<g id="edge17" class="edge">
<title>http://w3id.org/oseg/ont/okhimg#tagArt&#45;&gt;http://schema.org/DefinedTerm</title>
<path fill="none" stroke="black" d="M906.82,-513.3C833.66,-530.81 701.57,-562.41 620.66,-581.76"/>
<polygon fill="black" stroke="black" points="619.48,-578.45 610.57,-584.18 621.11,-585.25 619.48,-578.45"/>
<text text-anchor="middle" x="759.24" y="-536.33" font-family="Times,serif" font-size="14.00">a</text>
</g>
<!-- http://w3id.org/oseg/ont/okhimg#tagDiagram -->
<g id="node20" class="node">
<title>http://w3id.org/oseg/ont/okhimg#tagDiagram</title>
<ellipse fill="none" stroke="#e377c2" cx="861.89" cy="-737.03" rx="111.95" ry="16.03"/>
<text text-anchor="middle" x="861.89" y="-733.33" font-family="Times,serif" font-size="14.00">okhimg:tagDiagram</text>
</g>
<!-- http://w3id.org/oseg/ont/okhimg#tagDiagram&#45;&gt;http://schema.org/DefinedTerm -->
<g id="edge18" class="edge">
<title>http://w3id.org/oseg/ont/okhimg#tagDiagram&#45;&gt;http://schema.org/DefinedTerm</title>
<path fill="none" stroke="black" d="M827.18,-721.52C770.43,-696.17 657.9,-645.9 595.56,-618.05"/>
<polygon fill="black" stroke="black" points="596.93,-614.83 586.37,-613.95 594.07,-621.22 596.93,-614.83"/>
<text text-anchor="middle" x="706.87" y="-673.59" font-family="Times,serif" font-size="14.00">a</text>
</g>
<!-- http://w3id.org/oseg/ont/okhimg#slotModelFromAbove -->
<g id="node21" class="node">
<title>http://w3id.org/oseg/ont/okhimg#slotModelFromAbove</title>
<ellipse fill="none" stroke="#e377c2" cx="236.77" cy="-664.8" rx="116.85" ry="16.03"/>
<text text-anchor="middle" x="236.77" y="-661.1" font-family="Times,serif" font-size="14.00">okhimg:slotModelF...</text>
</g>
<!-- http://w3id.org/oseg/ont/okhimg#slotModelFromAbove&#45;&gt;http://schema.org/DefinedTerm -->
<g id="edge19" class="edge">
<title>http://w3id.org/oseg/ont/okhimg#slotModelFromAbove&#45;&gt;http://schema.org/DefinedTerm</title>
<path fill="none" stroke="black" d="M301.2,-651.19C352.13,-640.43 423.28,-625.4 476.7,-614.11"/>
<polygon fill="black" stroke="black" points="477.73,-617.47 486.79,-611.98 476.29,-610.62 477.73,-617.47"/>
<text text-anchor="middle" x="384.45" y="-636.45" font-family="Times,serif" font-size="14.00">a</text>
</g>
<!-- http://w3id.org/oseg/ont/okhimg#slotModelFromBack -->
<g id="node22" class="node">
<title>http://w3id.org/oseg/ont/okhimg#slotModelFromBack</title>
<ellipse fill="none" stroke="#e377c2" cx="197.13" cy="-427.65" rx="116.85" ry="16.03"/>
<text text-anchor="middle" x="197.13" y="-423.95" font-family="Times,serif" font-size="14.00">okhimg:slotModelF...</text>
</g>
<!-- http://w3id.org/oseg/ont/okhimg#slotModelFromBack&#45;&gt;http://schema.org/DefinedTerm -->
<g id="edge20" class="edge">
<title>http://w3id.org/oseg/ont/okhimg#slotModelFromBack&#45;&gt;http://schema.org/DefinedTerm</title>
<path fill="none" stroke="black" d="M229.82,-443.4C294.41,-474.52 438.29,-543.83 509.63,-578.21"/>
<polygon fill="black" stroke="black" points="508.26,-581.43 518.79,-582.62 511.3,-575.12 508.26,-581.43"/>
<text text-anchor="middle" x="365.23" y="-499.6" font-family="Times,serif" font-size="14.00">a</text>
</g>
<!-- http://w3id.org/oseg/ont/okhimg#tagLogo -->
<g id="node23" class="node">
<title>http://w3id.org/oseg/ont/okhimg#tagLogo</title>
<ellipse fill="none" stroke="#e377c2" cx="643.22" cy="-346.04" rx="92.76" ry="16.03"/>
<text text-anchor="middle" x="643.22" y="-342.34" font-family="Times,serif" font-size="14.00">okhimg:tagLogo</text>
</g>
<!-- http://w3id.org/oseg/ont/okhimg#tagLogo&#45;&gt;http://schema.org/DefinedTerm -->
<g id="edge21" class="edge">
<title>http://w3id.org/oseg/ont/okhimg#tagLogo&#45;&gt;http://schema.org/DefinedTerm</title>
<path fill="none" stroke="black" d="M637.19,-362.59C621.56,-405.55 579.6,-520.85 560.78,-572.58"/>
<polygon fill="black" stroke="black" points="557.47,-571.45 557.33,-582.04 564.04,-573.84 557.47,-571.45"/>
<text text-anchor="middle" x="594.48" y="-471.39" font-family="Times,serif" font-size="14.00">a</text>
</g>
<!-- http://w3id.org/oseg/ont/okhimg#slotSocial -->
<g id="node24" class="node">
<title>http://w3id.org/oseg/ont/okhimg#slotSocial</title>
<ellipse fill="none" stroke="#e377c2" cx="523.63" cy="-387.09" rx="101.23" ry="16.03"/>
<text text-anchor="middle" x="523.63" y="-383.39" font-family="Times,serif" font-size="14.00">okhimg:slotSocial</text>
</g>
<!-- http://w3id.org/oseg/ont/okhimg#slotSocial&#45;&gt;http://schema.org/DefinedTerm -->
<g id="edge22" class="edge">
<title>http://w3id.org/oseg/ont/okhimg#slotSocial&#45;&gt;http://schema.org/DefinedTerm</title>
<path fill="none" stroke="black" d="M525.81,-403.66C530.61,-440.14 542.11,-527.64 547.92,-571.84"/>
<polygon fill="black" stroke="black" points="544.46,-572.37 549.24,-581.83 551.41,-571.46 544.46,-572.37"/>
<text text-anchor="middle" x="532.37" y="-491.55" font-family="Times,serif" font-size="14.00">a</text>
</g>
<!-- http://w3id.org/oseg/ont/okhimg#slotIconMain&#45;&gt;http://schema.org/DefinedTerm -->
<g id="edge49" class="edge">
<title>http://w3id.org/oseg/ont/okhimg#slotIconMain&#45;&gt;http://schema.org/DefinedTerm</title>
<path fill="none" stroke="black" d="M959.3,-442.49C877.23,-473.85 690.5,-545.19 601.02,-579.38"/>
<polygon fill="black" stroke="black" points="599.73,-576.12 591.63,-582.96 602.23,-582.66 599.73,-576.12"/>
<text text-anchor="middle" x="775.66" y="-514.74" font-family="Times,serif" font-size="14.00">a</text>
</g>
<!-- http://w3id.org/oseg/ont/okhimg#slotIconMain&#45;&gt;http://w3id.org/oseg/ont/okhimg#slotIconMainBw -->
<g id="edge2" class="edge">
<title>http://w3id.org/oseg/ont/okhimg#slotIconMain&#45;&gt;http://w3id.org/oseg/ont/okhimg#slotIconMainBw</title>
<path fill="none" stroke="black" d="M894.72,-434.58C871.41,-437.56 847.25,-440.99 825.77,-444.41"/>
<polygon fill="black" stroke="black" points="825.09,-440.97 815.77,-446.03 826.21,-447.88 825.09,-440.97"/>
<text text-anchor="middle" x="832.74" y="-428.29" font-family="Times,serif" font-size="14.00">seeAlso</text>
</g>
<!-- http://w3id.org/oseg/ont/okhimg#slotPhotoPackaging -->
<g id="node26" class="node">
<title>http://w3id.org/oseg/ont/okhimg#slotPhotoPackaging</title>
<ellipse fill="none" stroke="#e377c2" cx="760.52" cy="-386.59" rx="113.69" ry="16.03"/>
<text text-anchor="middle" x="760.52" y="-382.89" font-family="Times,serif" font-size="14.00">okhimg:slotPhotoP...</text>
</g>
<!-- http://w3id.org/oseg/ont/okhimg#slotPhotoPackaging&#45;&gt;http://schema.org/DefinedTerm -->
<g id="edge24" class="edge">
<title>http://w3id.org/oseg/ont/okhimg#slotPhotoPackaging&#45;&gt;http://schema.org/DefinedTerm</title>
<path fill="none" stroke="black" d="M744.46,-402.85C707.74,-440.03 617.53,-531.38 574.7,-574.74"/>
<polygon fill="black" stroke="black" points="572.06,-572.44 567.52,-582.01 577.04,-577.36 572.06,-572.44"/>
<text text-anchor="middle" x="655.08" y="-492.6" font-family="Times,serif" font-size="14.00">a</text>
</g>
<!-- http://w3id.org/oseg/ont/okhimg#tagDrawing -->
<g id="node27" class="node">
<title>http://w3id.org/oseg/ont/okhimg#tagDrawing</title>
<ellipse fill="none" stroke="#e377c2" cx="245.63" cy="-748.89" rx="111.95" ry="16.03"/>
<text text-anchor="middle" x="245.63" y="-745.19" font-family="Times,serif" font-size="14.00">okhimg:tagDrawing</text>
</g>
<!-- http://w3id.org/oseg/ont/okhimg#tagDrawing&#45;&gt;http://schema.org/DefinedTerm -->
<g id="edge25" class="edge">
<title>http://w3id.org/oseg/ont/okhimg#tagDrawing&#45;&gt;http://schema.org/DefinedTerm</title>
<path fill="none" stroke="black" d="M277.48,-733.2C333.21,-705.77 448.31,-649.09 510.09,-618.68"/>
<polygon fill="black" stroke="black" points="511.74,-621.77 519.16,-614.21 508.64,-615.49 511.74,-621.77"/>
<text text-anchor="middle" x="389.28" y="-664.74" font-family="Times,serif" font-size="14.00">a</text>
</g>
<!-- http://w3id.org/oseg/ont/okhimg#tagGray -->
<g id="node28" class="node">
<title>http://w3id.org/oseg/ont/okhimg#tagGray</title>
<ellipse fill="none" stroke="#e377c2" cx="649.26" cy="-748.81" rx="92.76" ry="16.03"/>
<text text-anchor="middle" x="649.26" y="-745.11" font-family="Times,serif" font-size="14.00">okhimg:tagGray</text>
</g>
<!-- http://w3id.org/oseg/ont/okhimg#tagGray&#45;&gt;http://schema.org/DefinedTerm -->
<g id="edge26" class="edge">
<title>http://w3id.org/oseg/ont/okhimg#tagGray&#45;&gt;http://schema.org/DefinedTerm</title>
<path fill="none" stroke="black" d="M638.6,-732.42C621.47,-706.07 587.7,-654.13 567.58,-623.2"/>
<polygon fill="black" stroke="black" points="570.44,-621.18 562.05,-614.7 564.57,-624.99 570.44,-621.18"/>
<text text-anchor="middle" x="598.59" y="-681.61" font-family="Times,serif" font-size="14.00">a</text>
</g>
<!-- http://w3id.org/oseg/ont/okhimg#slots&#45;&gt;http://schema.org/DefinedTermSet -->
<g id="edge34" class="edge">
<title>http://w3id.org/oseg/ont/okhimg#slots&#45;&gt;http://schema.org/DefinedTermSet</title>
<path fill="none" stroke="black" d="M1136.94,-313.25C1169.19,-327.5 1218.17,-349.14 1253.69,-364.84"/>
<polygon fill="black" stroke="black" points="1252.3,-368.05 1262.86,-368.89 1255.13,-361.65 1252.3,-368.05"/>
<text text-anchor="middle" x="1190.81" y="-342.84" font-family="Times,serif" font-size="14.00">a</text>
</g>
<!-- http://w3id.org/oseg/ont/okhimg#slots&#45;&gt;http://w3id.org/oseg/ont/okhimg#slotIconMain -->
<g id="edge23" class="edge">
<title>http://w3id.org/oseg/ont/okhimg#slots&#45;&gt;http://w3id.org/oseg/ont/okhimg#slotIconMain</title>
<path fill="none" stroke="black" d="M1090.5,-314.5C1072.52,-336.75 1039.85,-377.17 1018.93,-403.06"/>
<polygon fill="black" stroke="black" points="1016.14,-400.93 1012.58,-410.91 1021.59,-405.33 1016.14,-400.93"/>
<text text-anchor="middle" x="967.21" y="-362.58" font-family="Times,serif" font-size="14.00">schema:hasDefinedTerm</text>
</g>
<!-- http://w3id.org/oseg/ont/okhimg#tags&#45;&gt;http://schema.org/DefinedTermSet -->
<g id="edge46" class="edge">
<title>http://w3id.org/oseg/ont/okhimg#tags&#45;&gt;http://schema.org/DefinedTermSet</title>
<path fill="none" stroke="black" d="M1158.62,-361.17C1175.85,-364.05 1195.04,-367.26 1213.55,-370.35"/>
<polygon fill="black" stroke="black" points="1213.01,-373.81 1223.45,-372.01 1214.16,-366.91 1213.01,-373.81"/>
<text text-anchor="middle" x="1181.59" y="-354.56" font-family="Times,serif" font-size="14.00">a</text>
</g>
<!-- http://w3id.org/oseg/ont/okhimg#tags&#45;&gt;http://w3id.org/oseg/ont/okhimg#tagArt -->
<g id="edge31" class="edge">
<title>http://w3id.org/oseg/ont/okhimg#tags&#45;&gt;http://w3id.org/oseg/ont/okhimg#tagArt</title>
<path fill="none" stroke="black" d="M1084.94,-367.33C1060.31,-393.57 1011.15,-445.93 982.31,-476.64"/>
<polygon fill="black" stroke="black" points="979.4,-474.63 975.1,-484.32 984.5,-479.42 979.4,-474.63"/>
<text text-anchor="middle" x="1121.13" y="-410.79" font-family="Times,serif" font-size="14.00">schema:hasDefinedTerm</text>
</g>
<!-- http://w3id.org/oseg/ont/okhimg#slotModelFromLeft -->
<g id="node31" class="node">
<title>http://w3id.org/oseg/ont/okhimg#slotModelFromLeft</title>
<ellipse fill="none" stroke="#e377c2" cx="547.37" cy="-870.56" rx="116.85" ry="16.03"/>
<text text-anchor="middle" x="547.37" y="-866.86" font-family="Times,serif" font-size="14.00">okhimg:slotModelF...</text>
</g>
<!-- http://w3id.org/oseg/ont/okhimg#slotModelFromLeft&#45;&gt;http://schema.org/DefinedTerm -->
<g id="edge32" class="edge">
<title>http://w3id.org/oseg/ont/okhimg#slotModelFromLeft&#45;&gt;http://schema.org/DefinedTerm</title>
<path fill="none" stroke="black" d="M547.62,-853.94C548.29,-808.27 550.19,-680.56 551.01,-624.87"/>
<polygon fill="black" stroke="black" points="554.52,-624.78 551.16,-614.73 547.52,-624.68 554.52,-624.78"/>
<text text-anchor="middle" x="551.56" y="-728.2" font-family="Times,serif" font-size="14.00">a</text>
</g>
<!-- http://w3id.org/oseg/ont/okhimg#tagModel -->
<g id="node32" class="node">
<title>http://w3id.org/oseg/ont/okhimg#tagModel</title>
<ellipse fill="none" stroke="#e377c2" cx="422.32" cy="-438.78" rx="99.9" ry="16.03"/>
<text text-anchor="middle" x="422.32" y="-435.08" font-family="Times,serif" font-size="14.00">okhimg:tagModel</text>
</g>
<!-- http://w3id.org/oseg/ont/okhimg#tagModel&#45;&gt;http://schema.org/DefinedTerm -->
<g id="edge33" class="edge">
<title>http://w3id.org/oseg/ont/okhimg#tagModel&#45;&gt;http://schema.org/DefinedTerm</title>
<path fill="none" stroke="black" d="M435.41,-454.95C458.22,-483.15 505.35,-541.41 531.98,-574.32"/>
<polygon fill="black" stroke="black" points="529.27,-576.54 538.29,-582.11 534.72,-572.14 529.27,-576.54"/>
<text text-anchor="middle" x="479.2" y="-518.44" font-family="Times,serif" font-size="14.00">a</text>
</g>
<!-- http://w3id.org/oseg/ont/okhimg#tagIcon -->
<g id="node33" class="node">
<title>http://w3id.org/oseg/ont/okhimg#tagIcon</title>
<ellipse fill="none" stroke="#e377c2" cx="455.26" cy="-748.71" rx="89.61" ry="16.03"/>
<text text-anchor="middle" x="455.26" y="-745.01" font-family="Times,serif" font-size="14.00">okhimg:tagIcon</text>
</g>
<!-- http://w3id.org/oseg/ont/okhimg#tagIcon&#45;&gt;http://schema.org/DefinedTerm -->
<g id="edge35" class="edge">
<title>http://w3id.org/oseg/ont/okhimg#tagIcon&#45;&gt;http://schema.org/DefinedTerm</title>
<path fill="none" stroke="black" d="M465.73,-732.33C482.56,-706 515.75,-654.1 535.52,-623.19"/>
<polygon fill="black" stroke="black" points="538.51,-625 540.95,-614.69 532.61,-621.23 538.51,-625"/>
<text text-anchor="middle" x="496.12" y="-681.56" font-family="Times,serif" font-size="14.00">a</text>
</g>
<!-- http://w3id.org/oseg/ont/okhimg#slotModelFromFront -->
<g id="node35" class="node">
<title>http://w3id.org/oseg/ont/okhimg#slotModelFromFront</title>
<ellipse fill="none" stroke="#e377c2" cx="259.75" cy="-386.01" rx="116.85" ry="16.03"/>
<text text-anchor="middle" x="259.75" y="-382.31" font-family="Times,serif" font-size="14.00">okhimg:slotModelF...</text>
</g>
<!-- http://w3id.org/oseg/ont/okhimg#slotModelFromFront&#45;&gt;http://schema.org/DefinedTerm -->
<g id="edge38" class="edge">
<title>http://w3id.org/oseg/ont/okhimg#slotModelFromFront&#45;&gt;http://schema.org/DefinedTerm</title>
<path fill="none" stroke="black" d="M282.15,-402.32C334.02,-440.08 462.43,-533.55 521.18,-576.33"/>
<polygon fill="black" stroke="black" points="519.18,-579.2 529.33,-582.26 523.3,-573.54 519.18,-579.2"/>
<text text-anchor="middle" x="406.17" y="-493.12" font-family="Times,serif" font-size="14.00">a</text>
</g>
<!-- http://w3id.org/oseg/ont/okhimg#slotSymbol -->
<g id="node36" class="node">
<title>http://w3id.org/oseg/ont/okhimg#slotSymbol</title>
<ellipse fill="none" stroke="#e377c2" cx="284.39" cy="-522.02" rx="108.38" ry="16.03"/>
<text text-anchor="middle" x="284.39" y="-518.32" font-family="Times,serif" font-size="14.00">okhimg:slotSymbol</text>
</g>
<!-- http://w3id.org/oseg/ont/okhimg#slotSymbol&#45;&gt;http://schema.org/DefinedTerm -->
<g id="edge39" class="edge">
<title>http://w3id.org/oseg/ont/okhimg#slotSymbol&#45;&gt;http://schema.org/DefinedTerm</title>
<path fill="none" stroke="black" d="M334.93,-536.46C378.97,-549.05 442.96,-567.34 489.96,-580.77"/>
<polygon fill="black" stroke="black" points="489.14,-584.17 499.71,-583.56 491.06,-577.44 489.14,-584.17"/>
<text text-anchor="middle" x="407.94" y="-562.42" font-family="Times,serif" font-size="14.00">a</text>
</g>
<!-- http://w3id.org/oseg/ont/okhimg#slotModelMain -->
<g id="node37" class="node">
<title>http://w3id.org/oseg/ont/okhimg#slotModelMain</title>
<ellipse fill="none" stroke="#e377c2" cx="542.27" cy="-557.75" rx="127.06" ry="16.03"/>
<text text-anchor="middle" x="542.27" y="-554.05" font-family="Times,serif" font-size="14.00">okhimg:slotModelMain</text>
</g>
<!-- http://w3id.org/oseg/ont/okhimg#slotModelMain&#45;&gt;http://schema.org/DefinedTerm -->
<g id="edge40" class="edge">
<title>http://w3id.org/oseg/ont/okhimg#slotModelMain&#45;&gt;http://schema.org/DefinedTerm</title>
<path fill="none" stroke="black" d="M545.99,-574.26C546.02,-574.42 546.06,-574.57 546.09,-574.73"/>
<polygon fill="black" stroke="black" points="542.11,-572.99 547.72,-581.97 548.94,-571.45 542.11,-572.99"/>
<text text-anchor="middle" x="541.54" y="-578.3" font-family="Times,serif" font-size="14.00">a</text>
</g>
<!-- http://w3id.org/oseg/ont/okhimg#tagColor -->
<g id="node38" class="node">
<title>http://w3id.org/oseg/ont/okhimg#tagColor</title>
<ellipse fill="none" stroke="#e377c2" cx="737.85" cy="-789.37" rx="95.42" ry="16.03"/>
<text text-anchor="middle" x="737.85" y="-785.67" font-family="Times,serif" font-size="14.00">okhimg:tagColor</text>
</g>
<!-- http://w3id.org/oseg/ont/okhimg#tagColor&#45;&gt;http://schema.org/DefinedTerm -->
<g id="edge42" class="edge">
<title>http://w3id.org/oseg/ont/okhimg#tagColor&#45;&gt;http://schema.org/DefinedTerm</title>
<path fill="none" stroke="black" d="M721.95,-773.08C688.93,-739.25 612.79,-661.23 574.41,-621.9"/>
<polygon fill="black" stroke="black" points="576.75,-619.29 567.26,-614.58 571.74,-624.18 576.75,-619.29"/>
<text text-anchor="middle" x="643.68" y="-701.29" font-family="Times,serif" font-size="14.00">a</text>
</g>
<!-- http://w3id.org/oseg/ont/okhimg#slotModel3D -->
<g id="node40" class="node">
<title>http://w3id.org/oseg/ont/okhimg#slotModel3D</title>
<ellipse fill="none" stroke="#e377c2" cx="225.3" cy="-608.83" rx="115.93" ry="16.03"/>
<text text-anchor="middle" x="225.3" y="-605.13" font-family="Times,serif" font-size="14.00">okhimg:slotModel3D</text>
</g>
<!-- http://w3id.org/oseg/ont/okhimg#slotModel3D&#45;&gt;http://schema.org/DefinedTerm -->
<g id="edge44" class="edge">
<title>http://w3id.org/oseg/ont/okhimg#slotModel3D&#45;&gt;http://schema.org/DefinedTerm</title>
<path fill="none" stroke="black" d="M338.44,-605.19C366.75,-604.28 397.27,-603.29 426.13,-602.37"/>
<polygon fill="black" stroke="black" points="426.37,-605.86 436.26,-602.04 426.15,-598.86 426.37,-605.86"/>
<text text-anchor="middle" x="377.79" y="-607.58" font-family="Times,serif" font-size="14.00">a</text>
</g>
<!-- http://w3id.org/oseg/ont/okhimg#tagPhoto -->
<g id="node41" class="node">
<title>http://w3id.org/oseg/ont/okhimg#tagPhoto</title>
<ellipse fill="none" stroke="#e377c2" cx="444.98" cy="-345.45" rx="97.66" ry="16.03"/>
<text text-anchor="middle" x="444.98" y="-341.75" font-family="Times,serif" font-size="14.00">okhimg:tagPhoto</text>
</g>
<!-- http://w3id.org/oseg/ont/okhimg#tagPhoto&#45;&gt;http://schema.org/DefinedTerm -->
<g id="edge47" class="edge">
<title>http://w3id.org/oseg/ont/okhimg#tagPhoto&#45;&gt;http://schema.org/DefinedTerm</title>
<path fill="none" stroke="black" d="M451.97,-362.04C470.09,-405.1 518.72,-520.67 540.55,-572.52"/>
<polygon fill="black" stroke="black" points="537.43,-574.15 544.54,-582.01 543.88,-571.43 537.43,-574.15"/>
<text text-anchor="middle" x="491.76" y="-471.08" font-family="Times,serif" font-size="14.00">a</text>
</g>
</g>
</svg>
