<?xml version="1.0" encoding="UTF-8" standalone="no"?>
<!DOCTYPE svg PUBLIC "-//W3C//DTD SVG 1.1//EN"
 "http://www.w3.org/Graphics/SVG/1.1/DTD/svg11.dtd">
<!-- Generated by graphviz version 2.43.0 (0)
 -->
<!-- Title: G Pages: 1 -->
<svg width="1063pt" height="790pt"
 viewBox="0.00 0.00 1063.00 790.00" xmlns="http://www.w3.org/2000/svg" xmlns:xlink="http://www.w3.org/1999/xlink">
<g id="graph0" class="graph" transform="scale(1 1) rotate(0) translate(4 786)">
<title>G</title>
<polygon fill="white" stroke="transparent" points="-4,4 -4,-786 1059,-786 1059,4 -4,4"/>
<!-- http://w3id.org/oseg/ont/otrl#ODRL -->
<g id="node1" class="node">
<title>http://w3id.org/oseg/ont/otrl#ODRL</title>
<ellipse fill="none" stroke="#e377c2" cx="243.31" cy="-179.54" rx="62.87" ry="16.03"/>
<text text-anchor="middle" x="243.31" y="-175.84" font-family="Times,serif" font-size="14.00">otrl:ODRL</text>
</g>
<!-- http://spdx.org/rdf/terms#SpdxItem -->
<g id="node2" class="node">
<title>http://spdx.org/rdf/terms#SpdxItem</title>
<ellipse fill="none" stroke="#1f77b4" cx="600.99" cy="-526" rx="87.86" ry="16.03"/>
<text text-anchor="middle" x="600.99" y="-522.3" font-family="Times,serif" font-size="14.00">spdx:SpdxItem</text>
</g>
<!-- http://w3id.org/oseg/ont/otrl#OTRL -->
<g id="node3" class="node">
<title>http://w3id.org/oseg/ont/otrl#OTRL</title>
<ellipse fill="none" stroke="#e377c2" cx="436.86" cy="-248.53" rx="60.62" ry="16.03"/>
<text text-anchor="middle" x="436.86" y="-244.83" font-family="Times,serif" font-size="14.00">otrl:OTRL</text>
</g>
<!-- http://w3id.org/oseg/ont/oseg&#45;profiles#robinVobruba -->
<g id="node4" class="node">
<title>http://w3id.org/oseg/ont/oseg&#45;profiles#robinVobruba</title>
<ellipse fill="none" stroke="#e377c2" cx="941.22" cy="-765.82" rx="113.69" ry="16.03"/>
<text text-anchor="middle" x="941.22" y="-762.12" font-family="Times,serif" font-size="14.00">osegprof:robinVob...</text>
</g>
<!-- http://w3id.org/oseg/ont/otrl#ODRL1 -->
<g id="node5" class="node">
<title>http://w3id.org/oseg/ont/otrl#ODRL1</title>
<ellipse fill="none" stroke="#e377c2" cx="185.94" cy="-16.59" rx="69.09" ry="16.03"/>
<text text-anchor="middle" x="185.94" y="-12.89" font-family="Times,serif" font-size="14.00">otrl:ODRL1</text>
</g>
<!-- http://w3id.org/oseg/ont/otrl#ODRL1&#45;&gt;http://w3id.org/oseg/ont/otrl#ODRL -->
<g id="edge2" class="edge">
<title>http://w3id.org/oseg/ont/otrl#ODRL1&#45;&gt;http://w3id.org/oseg/ont/otrl#ODRL</title>
<path fill="none" stroke="black" d="M191.65,-32.81C201.56,-60.97 222.05,-119.15 234.03,-153.18"/>
<polygon fill="black" stroke="black" points="230.83,-154.63 237.45,-162.9 237.43,-152.31 230.83,-154.63"/>
<text text-anchor="middle" x="208.34" y="-96.8" font-family="Times,serif" font-size="14.00">a</text>
</g>
<!-- http://w3id.org/oseg/ont/1.1.0/otrl -->
<g id="node6" class="node">
<title>http://w3id.org/oseg/ont/1.1.0/otrl</title>
<ellipse fill="none" stroke="#e377c2" cx="992.64" cy="-525.02" rx="50.82" ry="16.03"/>
<text text-anchor="middle" x="992.64" y="-521.32" font-family="Times,serif" font-size="14.00">ns1:otrl</text>
</g>
<!-- http://w3id.org/oseg/ont/otrl#OTRL3 -->
<g id="node7" class="node">
<title>http://w3id.org/oseg/ont/otrl#OTRL3</title>
<ellipse fill="none" stroke="#e377c2" cx="340" cy="-387.12" rx="67.35" ry="16.03"/>
<text text-anchor="middle" x="340" y="-383.42" font-family="Times,serif" font-size="14.00">otrl:OTRL3</text>
</g>
<!-- http://w3id.org/oseg/ont/otrl#OTRL3&#45;&gt;http://w3id.org/oseg/ont/otrl#OTRL -->
<g id="edge12" class="edge">
<title>http://w3id.org/oseg/ont/otrl#OTRL3&#45;&gt;http://w3id.org/oseg/ont/otrl#OTRL</title>
<path fill="none" stroke="black" d="M351.3,-370.95C368.14,-346.86 399.95,-301.34 419.68,-273.11"/>
<polygon fill="black" stroke="black" points="422.77,-274.8 425.63,-264.6 417.03,-270.79 422.77,-274.8"/>
<text text-anchor="middle" x="380.99" y="-325.83" font-family="Times,serif" font-size="14.00">a</text>
</g>
<!-- http://w3id.org/oseg/ont/otrl#OTRL2 -->
<g id="node8" class="node">
<title>http://w3id.org/oseg/ont/otrl#OTRL2</title>
<ellipse fill="none" stroke="#e377c2" cx="445.09" cy="-289.11" rx="67.35" ry="16.03"/>
<text text-anchor="middle" x="445.09" y="-285.41" font-family="Times,serif" font-size="14.00">otrl:OTRL2</text>
</g>
<!-- http://w3id.org/oseg/ont/otrl#OTRL2&#45;&gt;http://w3id.org/oseg/ont/otrl#OTRL -->
<g id="edge14" class="edge">
<title>http://w3id.org/oseg/ont/otrl#OTRL2&#45;&gt;http://w3id.org/oseg/ont/otrl#OTRL</title>
<path fill="none" stroke="black" d="M441.74,-272.6C441.71,-272.44 441.68,-272.28 441.65,-272.13"/>
<polygon fill="black" stroke="black" points="445.6,-273.99 440.18,-264.89 438.74,-275.39 445.6,-273.99"/>
<text text-anchor="middle" x="437.2" y="-261.16" font-family="Times,serif" font-size="14.00">a</text>
</g>
<!-- http://w3id.org/oseg/ont/otrl#goal -->
<g id="node9" class="node">
<title>http://w3id.org/oseg/ont/otrl#goal</title>
<ellipse fill="none" stroke="#e377c2" cx="423.26" cy="-206.94" rx="54.39" ry="16.03"/>
<text text-anchor="middle" x="423.26" y="-203.24" font-family="Times,serif" font-size="14.00">otrl:goal</text>
</g>
<!-- http://w3id.org/oseg/ont/otrl#goal&#45;&gt;http://w3id.org/oseg/ont/otrl#ODRL -->
<g id="edge20" class="edge">
<title>http://w3id.org/oseg/ont/otrl#goal&#45;&gt;http://w3id.org/oseg/ont/otrl#ODRL</title>
<path fill="none" stroke="black" d="M374.56,-199.52C353.98,-196.39 329.73,-192.7 307.7,-189.34"/>
<polygon fill="black" stroke="black" points="308.17,-185.88 297.76,-187.83 307.12,-192.8 308.17,-185.88"/>
<text text-anchor="middle" x="419.13" y="-183.23" font-family="Times,serif" font-size="14.00">dcam:domainIncludes</text>
</g>
<!-- http://w3id.org/oseg/ont/otrl#goal&#45;&gt;http://w3id.org/oseg/ont/otrl#OTRL -->
<g id="edge18" class="edge">
<title>http://w3id.org/oseg/ont/otrl#goal&#45;&gt;http://w3id.org/oseg/ont/otrl#OTRL</title>
<path fill="none" stroke="black" d="M428.63,-223.38C428.66,-223.47 428.69,-223.56 428.72,-223.65"/>
<polygon fill="black" stroke="black" points="425.09,-223.79 431.52,-232.21 431.74,-221.62 425.09,-223.79"/>
<text text-anchor="middle" x="506.68" y="-227.31" font-family="Times,serif" font-size="14.00">dcam:domainIncludes</text>
</g>
<!-- http://www.w3.org/1999/02/22&#45;rdf&#45;syntax&#45;ns#langString -->
<g id="node12" class="node">
<title>http://www.w3.org/1999/02/22&#45;rdf&#45;syntax&#45;ns#langString</title>
<ellipse fill="none" stroke="#e377c2" cx="428.93" cy="-165.04" rx="83.38" ry="16.03"/>
<text text-anchor="middle" x="428.93" y="-161.34" font-family="Times,serif" font-size="14.00">rdf:langString</text>
</g>
<!-- http://w3id.org/oseg/ont/otrl#goal&#45;&gt;http://www.w3.org/1999/02/22&#45;rdf&#45;syntax&#45;ns#langString -->
<g id="edge23" class="edge">
<title>http://w3id.org/oseg/ont/otrl#goal&#45;&gt;http://www.w3.org/1999/02/22&#45;rdf&#45;syntax&#45;ns#langString</title>
<path fill="none" stroke="black" d="M425.5,-190.38C425.51,-190.29 425.53,-190.2 425.54,-190.1"/>
<polygon fill="black" stroke="black" points="428.83,-191.86 426.71,-181.48 421.9,-190.92 428.83,-191.86"/>
<text text-anchor="middle" x="404.52" y="-194.04" font-family="Times,serif" font-size="14.00">range</text>
</g>
<!-- http://w3id.org/oseg/ont/otrl#OTRL5 -->
<g id="node10" class="node">
<title>http://w3id.org/oseg/ont/otrl#OTRL5</title>
<ellipse fill="none" stroke="#e377c2" cx="482.59" cy="-413.09" rx="67.35" ry="16.03"/>
<text text-anchor="middle" x="482.59" y="-409.39" font-family="Times,serif" font-size="14.00">otrl:OTRL5</text>
</g>
<!-- http://w3id.org/oseg/ont/otrl#OTRL5&#45;&gt;http://w3id.org/oseg/ont/otrl#OTRL -->
<g id="edge3" class="edge">
<title>http://w3id.org/oseg/ont/otrl#OTRL5&#45;&gt;http://w3id.org/oseg/ont/otrl#OTRL</title>
<path fill="none" stroke="black" d="M478.04,-396.71C470.1,-368.13 453.64,-308.92 444.11,-274.63"/>
<polygon fill="black" stroke="black" points="447.44,-273.54 441.39,-264.85 440.7,-275.42 447.44,-273.54"/>
<text text-anchor="middle" x="456.58" y="-339.47" font-family="Times,serif" font-size="14.00">a</text>
</g>
<!-- http://spdx.org/licenses/GPL&#45;3.0&#45;or&#45;later -->
<g id="node11" class="node">
<title>http://spdx.org/licenses/GPL&#45;3.0&#45;or&#45;later</title>
<ellipse fill="none" stroke="#e377c2" cx="847.4" cy="-603.07" rx="108.79" ry="16.03"/>
<text text-anchor="middle" x="847.4" y="-599.37" font-family="Times,serif" font-size="14.00">spdxl:GPL&#45;3.0&#45;or&#45;...</text>
</g>
<!-- http://w3id.org/oseg/ont/otrl -->
<g id="node13" class="node">
<title>http://w3id.org/oseg/ont/otrl</title>
<ellipse fill="none" stroke="#e377c2" cx="817.05" cy="-562.25" rx="50.82" ry="16.03"/>
<text text-anchor="middle" x="817.05" y="-558.55" font-family="Times,serif" font-size="14.00">ns2:otrl</text>
</g>
<!-- http://w3id.org/oseg/ont/otrl&#45;&gt;http://spdx.org/rdf/terms#SpdxItem -->
<g id="edge17" class="edge">
<title>http://w3id.org/oseg/ont/otrl&#45;&gt;http://spdx.org/rdf/terms#SpdxItem</title>
<path fill="none" stroke="black" d="M771.76,-554.65C744.18,-550.02 708.25,-543.99 676.47,-538.66"/>
<polygon fill="black" stroke="black" points="676.75,-535.16 666.31,-536.96 675.6,-542.06 676.75,-535.16"/>
<text text-anchor="middle" x="719.61" y="-550.46" font-family="Times,serif" font-size="14.00">a</text>
</g>
<!-- http://w3id.org/oseg/ont/otrl&#45;&gt;http://w3id.org/oseg/ont/oseg&#45;profiles#robinVobruba -->
<g id="edge1" class="edge">
<title>http://w3id.org/oseg/ont/otrl&#45;&gt;http://w3id.org/oseg/ont/oseg&#45;profiles#robinVobruba</title>
<path fill="none" stroke="black" d="M822.65,-578.47C840.05,-614.11 891.49,-699.14 920.7,-741.31"/>
<polygon fill="black" stroke="black" points="917.95,-743.48 926.58,-749.63 923.67,-739.44 917.95,-743.48"/>
<text text-anchor="middle" x="814.18" y="-648.69" font-family="Times,serif" font-size="14.00">dcterms:creator</text>
</g>
<!-- http://w3id.org/oseg/ont/otrl&#45;&gt;http://w3id.org/oseg/ont/oseg&#45;profiles#robinVobruba -->
<g id="edge7" class="edge">
<title>http://w3id.org/oseg/ont/otrl&#45;&gt;http://w3id.org/oseg/ont/oseg&#45;profiles#robinVobruba</title>
<path fill="none" stroke="black" d="M831.28,-577.87C856.75,-612.92 908.72,-697.83 931.02,-740.51"/>
<polygon fill="black" stroke="black" points="927.9,-742.1 935.54,-749.43 934.14,-738.93 927.9,-742.1"/>
<text text-anchor="middle" x="936.65" y="-662.99" font-family="Times,serif" font-size="14.00">schema:creator</text>
</g>
<!-- http://w3id.org/oseg/ont/otrl&#45;&gt;http://w3id.org/oseg/ont/1.1.0/otrl -->
<g id="edge11" class="edge">
<title>http://w3id.org/oseg/ont/otrl&#45;&gt;http://w3id.org/oseg/ont/1.1.0/otrl</title>
<path fill="none" stroke="black" d="M859.55,-553.24C883.75,-548.11 914.26,-541.64 939.96,-536.19"/>
<polygon fill="black" stroke="black" points="940.86,-539.58 949.92,-534.08 939.41,-532.73 940.86,-539.58"/>
<text text-anchor="middle" x="951.26" y="-548.51" font-family="Times,serif" font-size="14.00">owl:versionIRI</text>
</g>
<!-- http://w3id.org/oseg/ont/otrl&#45;&gt;http://spdx.org/licenses/GPL&#45;3.0&#45;or&#45;later -->
<g id="edge4" class="edge">
<title>http://w3id.org/oseg/ont/otrl&#45;&gt;http://spdx.org/licenses/GPL&#45;3.0&#45;or&#45;later</title>
<path fill="none" stroke="black" d="M829.04,-578.38C829.11,-578.47 829.17,-578.56 829.24,-578.64"/>
<polygon fill="black" stroke="black" points="826.52,-580.85 835.29,-586.79 832.13,-576.67 826.52,-580.85"/>
<text text-anchor="middle" x="905.14" y="-567.31" font-family="Times,serif" font-size="14.00">spdx:licenseDeclared</text>
</g>
<!-- http://id.loc.gov/vocabulary/iso639&#45;1/en -->
<g id="node14" class="node">
<title>http://id.loc.gov/vocabulary/iso639&#45;1/en</title>
<ellipse fill="none" stroke="#e377c2" cx="712.12" cy="-687.03" rx="45.01" ry="16.03"/>
<text text-anchor="middle" x="712.12" y="-683.33" font-family="Times,serif" font-size="14.00">ns3:en</text>
</g>
<!-- http://w3id.org/oseg/ont/otrl&#45;&gt;http://id.loc.gov/vocabulary/iso639&#45;1/en -->
<g id="edge16" class="edge">
<title>http://w3id.org/oseg/ont/otrl&#45;&gt;http://id.loc.gov/vocabulary/iso639&#45;1/en</title>
<path fill="none" stroke="black" d="M803.76,-578.05C785.62,-599.62 752.98,-638.43 731.95,-663.45"/>
<polygon fill="black" stroke="black" points="729.06,-661.45 725.3,-671.36 734.42,-665.96 729.06,-661.45"/>
<text text-anchor="middle" x="703.35" y="-624.55" font-family="Times,serif" font-size="14.00">dcterms:language</text>
</g>
<!-- http://w3id.org/oseg/ont/oseg&#45;profiles#martinHaeuer -->
<g id="node19" class="node">
<title>http://w3id.org/oseg/ont/oseg&#45;profiles#martinHaeuer</title>
<ellipse fill="none" stroke="#e377c2" cx="814.95" cy="-520.27" rx="116.85" ry="16.03"/>
<text text-anchor="middle" x="814.95" y="-516.57" font-family="Times,serif" font-size="14.00">osegprof:martinHa...</text>
</g>
<!-- http://w3id.org/oseg/ont/otrl&#45;&gt;http://w3id.org/oseg/ont/oseg&#45;profiles#martinHaeuer -->
<g id="edge10" class="edge">
<title>http://w3id.org/oseg/ont/otrl&#45;&gt;http://w3id.org/oseg/ont/oseg&#45;profiles#martinHaeuer</title>
<path fill="none" stroke="black" d="M822.82,-545.81C822.82,-545.72 822.82,-545.62 822.83,-545.53"/>
<polygon fill="black" stroke="black" points="826.38,-546.6 822.42,-536.77 819.39,-546.92 826.38,-546.6"/>
<text text-anchor="middle" x="765.32" y="-534.47" font-family="Times,serif" font-size="14.00">dcterms:creator</text>
</g>
<!-- http://w3id.org/oseg/ont/otrl&#45;&gt;http://w3id.org/oseg/ont/oseg&#45;profiles#martinHaeuer -->
<g id="edge21" class="edge">
<title>http://w3id.org/oseg/ont/otrl&#45;&gt;http://w3id.org/oseg/ont/oseg&#45;profiles#martinHaeuer</title>
<path fill="none" stroke="black" d="M809.61,-545.99C809.6,-545.89 809.59,-545.79 809.58,-545.69"/>
<polygon fill="black" stroke="black" points="813.11,-546.36 809.18,-536.52 806.12,-546.66 813.11,-546.36"/>
<text text-anchor="middle" x="865.1" y="-534.64" font-family="Times,serif" font-size="14.00">schema:creator</text>
</g>
<!-- http://w3id.org/oseg/ont/oseg&#45;profiles#Iopa -->
<g id="node20" class="node">
<title>http://w3id.org/oseg/ont/oseg&#45;profiles#Iopa</title>
<ellipse fill="none" stroke="#e377c2" cx="806.77" cy="-358.42" rx="80.72" ry="16.03"/>
<text text-anchor="middle" x="806.77" y="-354.72" font-family="Times,serif" font-size="14.00">osegprof:Iopa</text>
</g>
<!-- http://w3id.org/oseg/ont/otrl&#45;&gt;http://w3id.org/oseg/ont/oseg&#45;profiles#Iopa -->
<g id="edge22" class="edge">
<title>http://w3id.org/oseg/ont/otrl&#45;&gt;http://w3id.org/oseg/ont/oseg&#45;profiles#Iopa</title>
<path fill="none" stroke="black" d="M816.22,-545.91C814.45,-510.8 810.27,-427.87 808.11,-385.05"/>
<polygon fill="black" stroke="black" points="811.6,-384.64 807.6,-374.83 804.61,-385 811.6,-384.64"/>
<text text-anchor="middle" x="746.67" y="-469.28" font-family="Times,serif" font-size="14.00">dcterms:publisher</text>
</g>
<!-- http://w3id.org/oseg/ont/otrl#ODRL4 -->
<g id="node15" class="node">
<title>http://w3id.org/oseg/ont/otrl#ODRL4</title>
<ellipse fill="none" stroke="#e377c2" cx="69.68" cy="-181.51" rx="69.09" ry="16.03"/>
<text text-anchor="middle" x="69.68" y="-177.81" font-family="Times,serif" font-size="14.00">otrl:ODRL4</text>
</g>
<!-- http://w3id.org/oseg/ont/otrl#ODRL4&#45;&gt;http://w3id.org/oseg/ont/otrl#ODRL -->
<g id="edge5" class="edge">
<title>http://w3id.org/oseg/ont/otrl#ODRL4&#45;&gt;http://w3id.org/oseg/ont/otrl#ODRL</title>
<path fill="none" stroke="black" d="M139.3,-180.72C149.49,-180.61 160.01,-180.49 170.26,-180.37"/>
<polygon fill="black" stroke="black" points="170.45,-183.87 180.41,-180.26 170.37,-176.87 170.45,-183.87"/>
<text text-anchor="middle" x="150.28" y="-184.35" font-family="Times,serif" font-size="14.00">a</text>
</g>
<!-- http://w3id.org/oseg/ont/otrl#OTRL4 -->
<g id="node16" class="node">
<title>http://w3id.org/oseg/ont/otrl#OTRL4</title>
<ellipse fill="none" stroke="#e377c2" cx="588.1" cy="-169.2" rx="67.35" ry="16.03"/>
<text text-anchor="middle" x="588.1" y="-165.5" font-family="Times,serif" font-size="14.00">otrl:OTRL4</text>
</g>
<!-- http://w3id.org/oseg/ont/otrl#OTRL4&#45;&gt;http://w3id.org/oseg/ont/otrl#OTRL -->
<g id="edge6" class="edge">
<title>http://w3id.org/oseg/ont/otrl#OTRL4&#45;&gt;http://w3id.org/oseg/ont/otrl#OTRL</title>
<path fill="none" stroke="black" d="M559.65,-184.12C535.31,-196.89 500.11,-215.35 473.64,-229.24"/>
<polygon fill="black" stroke="black" points="471.9,-226.2 464.67,-233.94 475.15,-232.4 471.9,-226.2"/>
<text text-anchor="middle" x="512.15" y="-210.48" font-family="Times,serif" font-size="14.00">a</text>
</g>
<!-- http://w3id.org/oseg/ont/otrl#ODRL2 -->
<g id="node17" class="node">
<title>http://w3id.org/oseg/ont/otrl#ODRL2</title>
<ellipse fill="none" stroke="#e377c2" cx="98.29" cy="-84.77" rx="69.09" ry="16.03"/>
<text text-anchor="middle" x="98.29" y="-81.07" font-family="Times,serif" font-size="14.00">otrl:ODRL2</text>
</g>
<!-- http://w3id.org/oseg/ont/otrl#ODRL2&#45;&gt;http://w3id.org/oseg/ont/otrl#ODRL -->
<g id="edge19" class="edge">
<title>http://w3id.org/oseg/ont/otrl#ODRL2&#45;&gt;http://w3id.org/oseg/ont/otrl#ODRL</title>
<path fill="none" stroke="black" d="M121.91,-100.21C146.14,-116.04 184,-140.78 211,-158.42"/>
<polygon fill="black" stroke="black" points="209.41,-161.57 219.7,-164.11 213.24,-155.71 209.41,-161.57"/>
<text text-anchor="middle" x="161.95" y="-118.12" font-family="Times,serif" font-size="14.00">a</text>
</g>
<!-- http://w3id.org/oseg/ont/otrl#exitCriteria -->
<g id="node18" class="node">
<title>http://w3id.org/oseg/ont/otrl#exitCriteria</title>
<ellipse fill="none" stroke="#e377c2" cx="249.38" cy="-221" rx="91.43" ry="16.03"/>
<text text-anchor="middle" x="249.38" y="-217.3" font-family="Times,serif" font-size="14.00">otrl:exitCriteria</text>
</g>
<!-- http://w3id.org/oseg/ont/otrl#exitCriteria&#45;&gt;http://w3id.org/oseg/ont/otrl#ODRL -->
<g id="edge13" class="edge">
<title>http://w3id.org/oseg/ont/otrl#exitCriteria&#45;&gt;http://w3id.org/oseg/ont/otrl#ODRL</title>
<path fill="none" stroke="black" d="M246.98,-204.61C246.97,-204.52 246.95,-204.43 246.94,-204.34"/>
<polygon fill="black" stroke="black" points="250.6,-205.2 245.69,-195.81 243.68,-206.21 250.6,-205.2"/>
<text text-anchor="middle" x="285.96" y="-193.28" font-family="Times,serif" font-size="14.00">dcam:domainIncludes</text>
</g>
<!-- http://w3id.org/oseg/ont/otrl#exitCriteria&#45;&gt;http://w3id.org/oseg/ont/otrl#OTRL -->
<g id="edge9" class="edge">
<title>http://w3id.org/oseg/ont/otrl#exitCriteria&#45;&gt;http://w3id.org/oseg/ont/otrl#OTRL</title>
<path fill="none" stroke="black" d="M319.99,-231.37C337.52,-233.94 356.2,-236.68 373.36,-239.21"/>
<polygon fill="black" stroke="black" points="372.87,-242.67 383.27,-240.66 373.88,-235.74 372.87,-242.67"/>
<text text-anchor="middle" x="268.67" y="-239.09" font-family="Times,serif" font-size="14.00">dcam:domainIncludes</text>
</g>
<!-- http://w3id.org/oseg/ont/otrl#exitCriteria&#45;&gt;http://www.w3.org/1999/02/22&#45;rdf&#45;syntax&#45;ns#langString -->
<g id="edge15" class="edge">
<title>http://w3id.org/oseg/ont/otrl#exitCriteria&#45;&gt;http://www.w3.org/1999/02/22&#45;rdf&#45;syntax&#45;ns#langString</title>
<path fill="none" stroke="black" d="M294.69,-206.88C319.1,-199.27 349.38,-189.83 375,-181.85"/>
<polygon fill="black" stroke="black" points="376.06,-185.18 384.57,-178.87 373.98,-178.5 376.06,-185.18"/>
<text text-anchor="middle" x="313.84" y="-183.16" font-family="Times,serif" font-size="14.00">range</text>
</g>
<!-- http://w3id.org/oseg/ont/otrl#ODRL3Star -->
<g id="node21" class="node">
<title>http://w3id.org/oseg/ont/otrl#ODRL3Star</title>
<ellipse fill="none" stroke="#e377c2" cx="241.66" cy="-139.01" rx="90.52" ry="16.03"/>
<text text-anchor="middle" x="241.66" y="-135.31" font-family="Times,serif" font-size="14.00">otrl:ODRL3Star</text>
</g>
<!-- http://w3id.org/oseg/ont/otrl#ODRL3Star&#45;&gt;http://w3id.org/oseg/ont/otrl#ODRL -->
<g id="edge8" class="edge">
<title>http://w3id.org/oseg/ont/otrl#ODRL3Star&#45;&gt;http://w3id.org/oseg/ont/otrl#ODRL</title>
<path fill="none" stroke="black" d="M242.33,-155.5C242.34,-155.66 242.35,-155.82 242.35,-155.98"/>
<polygon fill="black" stroke="black" points="238.74,-153.35 242.65,-163.2 245.74,-153.07 238.74,-153.35"/>
<text text-anchor="middle" x="237.84" y="-159.54" font-family="Times,serif" font-size="14.00">a</text>
</g>
<!-- http://w3id.org/oseg/ont/otrl#OTRL1 -->
<g id="node22" class="node">
<title>http://w3id.org/oseg/ont/otrl#OTRL1</title>
<ellipse fill="none" stroke="#e377c2" cx="564.36" cy="-361.61" rx="67.35" ry="16.03"/>
<text text-anchor="middle" x="564.36" y="-357.91" font-family="Times,serif" font-size="14.00">otrl:OTRL1</text>
</g>
<!-- http://w3id.org/oseg/ont/otrl#OTRL1&#45;&gt;http://w3id.org/oseg/ont/otrl#OTRL -->
<g id="edge24" class="edge">
<title>http://w3id.org/oseg/ont/otrl#OTRL1&#45;&gt;http://w3id.org/oseg/ont/otrl#OTRL</title>
<path fill="none" stroke="black" d="M546.63,-345.88C524.65,-326.39 487.04,-293.03 462.07,-270.89"/>
<polygon fill="black" stroke="black" points="464.24,-268.14 454.44,-264.12 459.6,-273.37 464.24,-268.14"/>
<text text-anchor="middle" x="499.85" y="-312.18" font-family="Times,serif" font-size="14.00">a</text>
</g>
<!-- http://w3id.org/oseg/ont/otrl#ODRL3 -->
<g id="node23" class="node">
<title>http://w3id.org/oseg/ont/otrl#ODRL3</title>
<ellipse fill="none" stroke="#e377c2" cx="102.54" cy="-281.51" rx="69.09" ry="16.03"/>
<text text-anchor="middle" x="102.54" y="-277.81" font-family="Times,serif" font-size="14.00">otrl:ODRL3</text>
</g>
<!-- http://w3id.org/oseg/ont/otrl#ODRL3&#45;&gt;http://w3id.org/oseg/ont/otrl#ODRL -->
<g id="edge25" class="edge">
<title>http://w3id.org/oseg/ont/otrl#ODRL3&#45;&gt;http://w3id.org/oseg/ont/otrl#ODRL</title>
<path fill="none" stroke="black" d="M123.92,-266.03C147.8,-248.73 186.61,-220.62 213.46,-201.16"/>
<polygon fill="black" stroke="black" points="215.69,-203.88 221.73,-195.18 211.58,-198.21 215.69,-203.88"/>
<text text-anchor="middle" x="164.19" y="-237.4" font-family="Times,serif" font-size="14.00">a</text>
</g>
<!-- http://w3id.org/oseg/ont/otrl#OTRL6 -->
<g id="node24" class="node">
<title>http://w3id.org/oseg/ont/otrl#OTRL6</title>
<ellipse fill="none" stroke="#e377c2" cx="605.58" cy="-268.12" rx="67.35" ry="16.03"/>
<text text-anchor="middle" x="605.58" y="-264.42" font-family="Times,serif" font-size="14.00">otrl:OTRL6</text>
</g>
<!-- http://w3id.org/oseg/ont/otrl#OTRL6&#45;&gt;http://w3id.org/oseg/ont/otrl#OTRL -->
<g id="edge26" class="edge">
<title>http://w3id.org/oseg/ont/otrl#OTRL6&#45;&gt;http://w3id.org/oseg/ont/otrl#OTRL</title>
<path fill="none" stroke="black" d="M544.67,-261.05C531.21,-259.48 516.88,-257.82 503.21,-256.23"/>
<polygon fill="black" stroke="black" points="503.25,-252.72 492.91,-255.04 502.44,-259.67 503.25,-252.72"/>
<text text-anchor="middle" x="519.44" y="-262.44" font-family="Times,serif" font-size="14.00">a</text>
</g>
</g>
</svg>
