<?xml version="1.0" encoding="UTF-8" standalone="no"?>
<!DOCTYPE svg PUBLIC "-//W3C//DTD SVG 1.1//EN"
 "http://www.w3.org/Graphics/SVG/1.1/DTD/svg11.dtd">
<!-- Generated by graphviz version 2.43.0 (0)
 -->
<!-- Title: G Pages: 1 -->
<svg width="1397pt" height="1223pt"
 viewBox="0.00 0.00 1397.00 1223.00" xmlns="http://www.w3.org/2000/svg" xmlns:xlink="http://www.w3.org/1999/xlink">
<g id="graph0" class="graph" transform="scale(1 1) rotate(0) translate(4 1219)">
<title>G</title>
<polygon fill="white" stroke="transparent" points="-4,4 -4,-1219 1393,-1219 1393,4 -4,4"/>
<!-- http://w3id.org/oseg/ont/okhmeta#Tag -->
<g id="node1" class="node">
<title>http://w3id.org/oseg/ont/okhmeta#Tag</title>
<ellipse fill="none" stroke="#e377c2" cx="631.16" cy="-337.84" rx="76.24" ry="16.03"/>
<text text-anchor="middle" x="631.16" y="-334.14" font-family="Times,serif" font-size="14.00">okhmeta:Tag</text>
</g>
<!-- http://www.w3.org/2004/02/skos/core#Collection -->
<g id="node2" class="node">
<title>http://www.w3.org/2004/02/skos/core#Collection</title>
<ellipse fill="none" stroke="#e377c2" cx="334.29" cy="-489.11" rx="87.86" ry="16.03"/>
<text text-anchor="middle" x="334.29" y="-485.41" font-family="Times,serif" font-size="14.00">skos:Collection</text>
</g>
<!-- http://w3id.org/oseg/ont/okhmeta#Tag&#45;&gt;http://www.w3.org/2004/02/skos/core#Collection -->
<g id="edge19" class="edge">
<title>http://w3id.org/oseg/ont/okhmeta#Tag&#45;&gt;http://www.w3.org/2004/02/skos/core#Collection</title>
<path fill="none" stroke="black" d="M601.61,-352.9C547.88,-380.28 434.15,-438.23 373.82,-468.97"/>
<polygon fill="black" stroke="black" points="371.93,-466 364.61,-473.66 375.11,-472.24 371.93,-466"/>
</g>
<!-- http://www.w3.org/2004/02/skos/core#Concept -->
<g id="node5" class="node">
<title>http://www.w3.org/2004/02/skos/core#Concept</title>
<ellipse fill="none" stroke="#1f77b4" cx="542.36" cy="-644.69" rx="78.48" ry="16.03"/>
<text text-anchor="middle" x="542.36" y="-640.99" font-family="Times,serif" font-size="14.00">skos:Concept</text>
</g>
<!-- http://w3id.org/oseg/ont/okhmeta#Tag&#45;&gt;http://www.w3.org/2004/02/skos/core#Concept -->
<g id="edge2" class="edge">
<title>http://w3id.org/oseg/ont/okhmeta#Tag&#45;&gt;http://www.w3.org/2004/02/skos/core#Concept</title>
<path fill="none" stroke="black" d="M626.39,-354.34C611.81,-404.7 567.8,-556.78 549.97,-618.37"/>
<polygon fill="black" stroke="black" points="546.57,-617.53 547.15,-628.11 553.3,-619.48 546.57,-617.53"/>
<text text-anchor="middle" x="583.68" y="-490.15" font-family="Times,serif" font-size="14.00">a</text>
</g>
<!-- http://w3id.org/oseg/ont/okhmeta#MetaTag -->
<g id="node7" class="node">
<title>http://w3id.org/oseg/ont/okhmeta#MetaTag</title>
<ellipse fill="none" stroke="#e377c2" cx="612.38" cy="-383.37" rx="102.56" ry="16.03"/>
<text text-anchor="middle" x="612.38" y="-379.67" font-family="Times,serif" font-size="14.00">okhmeta:MetaTag</text>
</g>
<!-- http://w3id.org/oseg/ont/okhmeta#Tag&#45;&gt;http://w3id.org/oseg/ont/okhmeta#MetaTag -->
<g id="edge39" class="edge">
<title>http://w3id.org/oseg/ont/okhmeta#Tag&#45;&gt;http://w3id.org/oseg/ont/okhmeta#MetaTag</title>
<path fill="none" stroke="black" d="M617.26,-354.08C616.78,-355.12 616.31,-356.17 615.86,-357.24"/>
<polygon fill="black" stroke="black" points="612.51,-356.23 612.39,-366.82 619.09,-358.61 612.51,-356.23"/>
<text text-anchor="middle" x="693.56" y="-359.46" font-family="Times,serif" font-size="14.00">okhmeta:hasMetaTag</text>
</g>
<!-- http://spdx.org/rdf/terms#SpdxItem -->
<g id="node3" class="node">
<title>http://spdx.org/rdf/terms#SpdxItem</title>
<ellipse fill="none" stroke="#1f77b4" cx="863.68" cy="-1024.3" rx="87.86" ry="16.03"/>
<text text-anchor="middle" x="863.68" y="-1020.6" font-family="Times,serif" font-size="14.00">spdx:SpdxItem</text>
</g>
<!-- http://www.w3.org/2002/07/owl#ObjectProperty -->
<g id="node4" class="node">
<title>http://www.w3.org/2002/07/owl#ObjectProperty</title>
<ellipse fill="none" stroke="#1f77b4" cx="262.37" cy="-1186.46" rx="109.7" ry="16.03"/>
<text text-anchor="middle" x="262.37" y="-1182.76" font-family="Times,serif" font-size="14.00">owl:ObjectProperty</text>
</g>
<!-- http://www.w3.org/2002/07/owl#Ontology -->
<g id="node6" class="node">
<title>http://www.w3.org/2002/07/owl#Ontology</title>
<ellipse fill="none" stroke="#1f77b4" cx="1101.11" cy="-1198.48" rx="77.56" ry="16.03"/>
<text text-anchor="middle" x="1101.11" y="-1194.78" font-family="Times,serif" font-size="14.00">owl:Ontology</text>
</g>
<!-- http://w3id.org/oseg/ont/okhmeta#MetaTag&#45;&gt;http://w3id.org/oseg/ont/okhmeta#Tag -->
<g id="edge3" class="edge">
<title>http://w3id.org/oseg/ont/okhmeta#MetaTag&#45;&gt;http://w3id.org/oseg/ont/okhmeta#Tag</title>
<path fill="none" stroke="black" d="M626.28,-367.13C626.76,-366.09 627.23,-365.04 627.68,-363.98"/>
<polygon fill="black" stroke="black" points="631.04,-364.98 631.15,-354.39 624.46,-362.6 631.04,-364.98"/>
<text text-anchor="middle" x="622.48" y="-354.35" font-family="Times,serif" font-size="14.00">a</text>
</g>
<!-- http://w3id.org/oseg/ont/okhmeta#MetaTag&#45;&gt;http://w3id.org/oseg/ont/okhmeta#MetaTag -->
<g id="edge11" class="edge">
<title>http://w3id.org/oseg/ont/okhmeta#MetaTag&#45;&gt;http://w3id.org/oseg/ont/okhmeta#MetaTag</title>
<path fill="none" stroke="black" d="M707.37,-389.59C722.54,-388.68 732.91,-386.61 732.91,-383.37 732.91,-380.92 726.95,-379.14 717.47,-378.02"/>
<polygon fill="black" stroke="black" points="717.64,-374.52 707.37,-377.16 717.04,-381.5 717.64,-374.52"/>
<text text-anchor="middle" x="809.91" y="-379.67" font-family="Times,serif" font-size="14.00">okhmeta:hasMetaTag</text>
</g>
<!-- http://w3id.org/oseg/ont/okhmeta#hasMetaTag -->
<g id="node8" class="node">
<title>http://w3id.org/oseg/ont/okhmeta#hasMetaTag</title>
<ellipse fill="none" stroke="#e377c2" cx="362.53" cy="-797.57" rx="120.42" ry="16.03"/>
<text text-anchor="middle" x="362.53" y="-793.87" font-family="Times,serif" font-size="14.00">okhmeta:hasMetaTag</text>
</g>
<!-- http://w3id.org/oseg/ont/okhmeta#hasMetaTag&#45;&gt;http://www.w3.org/2002/07/owl#ObjectProperty -->
<g id="edge31" class="edge">
<title>http://w3id.org/oseg/ont/okhmeta#hasMetaTag&#45;&gt;http://www.w3.org/2002/07/owl#ObjectProperty</title>
<path fill="none" stroke="black" d="M358.22,-814.28C342.56,-875.12 288.48,-1085.09 269.24,-1159.81"/>
<polygon fill="black" stroke="black" points="265.77,-1159.26 266.66,-1169.81 272.54,-1161 265.77,-1159.26"/>
<text text-anchor="middle" x="309.23" y="-990.85" font-family="Times,serif" font-size="14.00">a</text>
</g>
<!-- http://w3id.org/oseg/ont/okhmeta#hasMetaTag&#45;&gt;http://www.w3.org/2004/02/skos/core#Concept -->
<g id="edge15" class="edge">
<title>http://w3id.org/oseg/ont/okhmeta#hasMetaTag&#45;&gt;http://www.w3.org/2004/02/skos/core#Concept</title>
<path fill="none" stroke="black" d="M381.43,-781.5C413.62,-754.13 479.16,-698.41 515.89,-667.19"/>
<polygon fill="black" stroke="black" points="518.35,-669.69 523.7,-660.55 513.82,-664.36 518.35,-669.69"/>
<text text-anchor="middle" x="444.16" y="-728.15" font-family="Times,serif" font-size="14.00">a</text>
</g>
<!-- http://w3id.org/oseg/ont/okhmeta#hasMetaTag&#45;&gt;http://w3id.org/oseg/ont/okhmeta#MetaTag -->
<g id="edge27" class="edge">
<title>http://w3id.org/oseg/ont/okhmeta#hasMetaTag&#45;&gt;http://w3id.org/oseg/ont/okhmeta#MetaTag</title>
<path fill="none" stroke="black" d="M375.79,-781.3C419.87,-717.77 559.52,-486.52 600.9,-408.92"/>
<polygon fill="black" stroke="black" points="604.12,-410.32 605.65,-399.84 597.91,-407.07 604.12,-410.32"/>
<text text-anchor="middle" x="560.84" y="-598.91" font-family="Times,serif" font-size="14.00">dcam:rangeIncludes</text>
</g>
<!-- http://w3id.org/oseg/ont/okhmeta#hasMetaTag&#45;&gt;http://w3id.org/oseg/ont/okhmeta#MetaTag -->
<g id="edge29" class="edge">
<title>http://w3id.org/oseg/ont/okhmeta#hasMetaTag&#45;&gt;http://w3id.org/oseg/ont/okhmeta#MetaTag</title>
<path fill="none" stroke="black" d="M369.23,-781.18C401.87,-717.23 541.77,-484.81 593.36,-408.09"/>
<polygon fill="black" stroke="black" points="596.45,-409.76 599.2,-399.53 590.67,-405.82 596.45,-409.76"/>
<text text-anchor="middle" x="558.29" y="-583.43" font-family="Times,serif" font-size="14.00">okhmeta:hasMetaTag</text>
</g>
<!-- http://www.w3.org/2004/02/skos/core#member -->
<g id="node28" class="node">
<title>http://www.w3.org/2004/02/skos/core#member</title>
<ellipse fill="none" stroke="#e377c2" cx="79.32" cy="-1028.26" rx="79.39" ry="16.03"/>
<text text-anchor="middle" x="79.32" y="-1024.56" font-family="Times,serif" font-size="14.00">skos:member</text>
</g>
<!-- http://w3id.org/oseg/ont/okhmeta#hasMetaTag&#45;&gt;http://www.w3.org/2004/02/skos/core#member -->
<g id="edge12" class="edge">
<title>http://w3id.org/oseg/ont/okhmeta#hasMetaTag&#45;&gt;http://www.w3.org/2004/02/skos/core#member</title>
<path fill="none" stroke="black" d="M342.61,-813.8C292.93,-854.26 163.44,-959.74 106.67,-1005.99"/>
<polygon fill="black" stroke="black" points="104.38,-1003.33 98.84,-1012.36 108.8,-1008.76 104.38,-1003.33"/>
<text text-anchor="middle" x="171.64" y="-913.69" font-family="Times,serif" font-size="14.00">subPropertyOf</text>
</g>
<!-- http://w3id.org/oseg/ont/okhmeta#PhysicalTag -->
<g id="node9" class="node">
<title>http://w3id.org/oseg/ont/okhmeta#PhysicalTag</title>
<ellipse fill="none" stroke="#e377c2" cx="425.39" cy="-90.45" rx="118.17" ry="16.03"/>
<text text-anchor="middle" x="425.39" y="-86.75" font-family="Times,serif" font-size="14.00">okhmeta:PhysicalTag</text>
</g>
<!-- http://w3id.org/oseg/ont/okhmeta#PhysicalTag&#45;&gt;http://w3id.org/oseg/ont/okhmeta#Tag -->
<g id="edge16" class="edge">
<title>http://w3id.org/oseg/ont/okhmeta#PhysicalTag&#45;&gt;http://w3id.org/oseg/ont/okhmeta#Tag</title>
<path fill="none" stroke="black" d="M438.9,-106.69C474.21,-149.15 569.48,-263.68 611.17,-313.8"/>
<polygon fill="black" stroke="black" points="608.53,-316.1 617.61,-321.55 613.91,-311.62 608.53,-316.1"/>
<text text-anchor="middle" x="520.53" y="-214.04" font-family="Times,serif" font-size="14.00">a</text>
</g>
<!-- http://w3id.org/oseg/ont/okhmeta#PhysicalTag&#45;&gt;http://w3id.org/oseg/ont/okhmeta#MetaTag -->
<g id="edge10" class="edge">
<title>http://w3id.org/oseg/ont/okhmeta#PhysicalTag&#45;&gt;http://w3id.org/oseg/ont/okhmeta#MetaTag</title>
<path fill="none" stroke="black" d="M435.98,-107.04C467.22,-155.98 559.15,-299.98 596.42,-358.36"/>
<polygon fill="black" stroke="black" points="593.58,-360.42 601.91,-366.97 599.48,-356.66 593.58,-360.42"/>
<text text-anchor="middle" x="439.2" y="-221.5" font-family="Times,serif" font-size="14.00">okhmeta:hasMetaTag</text>
</g>
<!-- http://w3id.org/oseg/ont/okhmeta -->
<g id="node10" class="node">
<title>http://w3id.org/oseg/ont/okhmeta</title>
<ellipse fill="none" stroke="#e377c2" cx="1091.85" cy="-976.94" rx="76.24" ry="16.03"/>
<text text-anchor="middle" x="1091.85" y="-973.24" font-family="Times,serif" font-size="14.00">ns1:okhmeta</text>
</g>
<!-- http://w3id.org/oseg/ont/okhmeta&#45;&gt;http://spdx.org/rdf/terms#SpdxItem -->
<g id="edge4" class="edge">
<title>http://w3id.org/oseg/ont/okhmeta&#45;&gt;http://spdx.org/rdf/terms#SpdxItem</title>
<path fill="none" stroke="black" d="M1036.91,-988.35C1005.48,-994.87 965.77,-1003.11 932.31,-1010.05"/>
<polygon fill="black" stroke="black" points="931.22,-1006.71 922.14,-1012.17 932.64,-1013.56 931.22,-1006.71"/>
<text text-anchor="middle" x="980.11" y="-988" font-family="Times,serif" font-size="14.00">a</text>
</g>
<!-- http://w3id.org/oseg/ont/okhmeta&#45;&gt;http://www.w3.org/2002/07/owl#Ontology -->
<g id="edge8" class="edge">
<title>http://w3id.org/oseg/ont/okhmeta&#45;&gt;http://www.w3.org/2002/07/owl#Ontology</title>
<path fill="none" stroke="black" d="M1092.54,-993.23C1094.12,-1031.16 1098.07,-1125.66 1100.01,-1172"/>
<polygon fill="black" stroke="black" points="1096.52,-1172.32 1100.43,-1182.17 1103.51,-1172.03 1096.52,-1172.32"/>
<text text-anchor="middle" x="1091.77" y="-1086.42" font-family="Times,serif" font-size="14.00">a</text>
</g>
<!-- http://w3id.org/oseg/ont/oseg&#45;profiles#robinVobruba -->
<g id="node13" class="node">
<title>http://w3id.org/oseg/ont/oseg&#45;profiles#robinVobruba</title>
<ellipse fill="none" stroke="#e377c2" cx="1074.4" cy="-1017.78" rx="113.69" ry="16.03"/>
<text text-anchor="middle" x="1074.4" y="-1014.08" font-family="Times,serif" font-size="14.00">osegprof:robinVob...</text>
</g>
<!-- http://w3id.org/oseg/ont/okhmeta&#45;&gt;http://w3id.org/oseg/ont/oseg&#45;profiles#robinVobruba -->
<g id="edge7" class="edge">
<title>http://w3id.org/oseg/ont/okhmeta&#45;&gt;http://w3id.org/oseg/ont/oseg&#45;profiles#robinVobruba</title>
<path fill="none" stroke="black" d="M1077.55,-993.28C1077.47,-993.44 1077.4,-993.61 1077.33,-993.77"/>
<polygon fill="black" stroke="black" points="1074.75,-990.72 1074.44,-1001.31 1081.29,-993.22 1074.75,-990.72"/>
<text text-anchor="middle" x="1132.94" y="-997.33" font-family="Times,serif" font-size="14.00">schema:creator</text>
</g>
<!-- http://w3id.org/oseg/ont/okhmeta&#45;&gt;http://w3id.org/oseg/ont/oseg&#45;profiles#robinVobruba -->
<g id="edge13" class="edge">
<title>http://w3id.org/oseg/ont/okhmeta&#45;&gt;http://w3id.org/oseg/ont/oseg&#45;profiles#robinVobruba</title>
<path fill="none" stroke="black" d="M1091.85,-993.29C1091.83,-993.38 1091.8,-993.46 1091.77,-993.55"/>
<polygon fill="black" stroke="black" points="1089.05,-990.88 1088.69,-1001.47 1095.58,-993.42 1089.05,-990.88"/>
<text text-anchor="middle" x="1149.31" y="-982.22" font-family="Times,serif" font-size="14.00">dcterms:creator</text>
</g>
<!-- http://id.loc.gov/vocabulary/iso639&#45;1/en -->
<g id="node16" class="node">
<title>http://id.loc.gov/vocabulary/iso639&#45;1/en</title>
<ellipse fill="none" stroke="#e377c2" cx="1153.17" cy="-792.43" rx="45.01" ry="16.03"/>
<text text-anchor="middle" x="1153.17" y="-788.73" font-family="Times,serif" font-size="14.00">ns2:en</text>
</g>
<!-- http://w3id.org/oseg/ont/okhmeta&#45;&gt;http://id.loc.gov/vocabulary/iso639&#45;1/en -->
<g id="edge24" class="edge">
<title>http://w3id.org/oseg/ont/okhmeta&#45;&gt;http://id.loc.gov/vocabulary/iso639&#45;1/en</title>
<path fill="none" stroke="black" d="M1097.3,-960.57C1107.98,-928.43 1131.76,-856.86 1144.58,-818.27"/>
<polygon fill="black" stroke="black" points="1147.91,-819.36 1147.74,-808.77 1141.27,-817.16 1147.91,-819.36"/>
<text text-anchor="middle" x="1056.44" y="-878.22" font-family="Times,serif" font-size="14.00">dcterms:language</text>
</g>
<!-- http://w3id.org/oseg/ont/oseg&#45;profiles#Iopa -->
<g id="node17" class="node">
<title>http://w3id.org/oseg/ont/oseg&#45;profiles#Iopa</title>
<ellipse fill="none" stroke="#e377c2" cx="1308.78" cy="-1052.87" rx="80.72" ry="16.03"/>
<text text-anchor="middle" x="1308.78" y="-1049.17" font-family="Times,serif" font-size="14.00">osegprof:Iopa</text>
</g>
<!-- http://w3id.org/oseg/ont/okhmeta&#45;&gt;http://w3id.org/oseg/ont/oseg&#45;profiles#Iopa -->
<g id="edge25" class="edge">
<title>http://w3id.org/oseg/ont/okhmeta&#45;&gt;http://w3id.org/oseg/ont/oseg&#45;profiles#Iopa</title>
<path fill="none" stroke="black" d="M1131.64,-990.87C1167.5,-1003.42 1220.37,-1021.93 1259.01,-1035.45"/>
<polygon fill="black" stroke="black" points="1257.92,-1038.78 1268.51,-1038.78 1260.23,-1032.17 1257.92,-1038.78"/>
<text text-anchor="middle" x="1260.83" y="-1016.96" font-family="Times,serif" font-size="14.00">dcterms:publisher</text>
</g>
<!-- http://w3id.org/oseg/ont/1.1.0/okh&#45;meta -->
<g id="node19" class="node">
<title>http://w3id.org/oseg/ont/1.1.0/okh&#45;meta</title>
<ellipse fill="none" stroke="#e377c2" cx="928.84" cy="-821.59" rx="79.81" ry="16.03"/>
<text text-anchor="middle" x="928.84" y="-817.89" font-family="Times,serif" font-size="14.00">ns3:okh&#45;meta</text>
</g>
<!-- http://w3id.org/oseg/ont/okhmeta&#45;&gt;http://w3id.org/oseg/ont/1.1.0/okh&#45;meta -->
<g id="edge32" class="edge">
<title>http://w3id.org/oseg/ont/okhmeta&#45;&gt;http://w3id.org/oseg/ont/1.1.0/okh&#45;meta</title>
<path fill="none" stroke="black" d="M1075.02,-960.9C1046.1,-933.34 986.87,-876.89 953.36,-844.96"/>
<polygon fill="black" stroke="black" points="955.48,-842.14 945.82,-837.78 950.65,-847.21 955.48,-842.14"/>
<text text-anchor="middle" x="962.69" y="-906.73" font-family="Times,serif" font-size="14.00">owl:versionIRI</text>
</g>
<!-- http://spdx.org/licenses/GPL&#45;3.0&#45;or&#45;later -->
<g id="node21" class="node">
<title>http://spdx.org/licenses/GPL&#45;3.0&#45;or&#45;later</title>
<ellipse fill="none" stroke="#e377c2" cx="1185.39" cy="-936.28" rx="108.79" ry="16.03"/>
<text text-anchor="middle" x="1185.39" y="-932.58" font-family="Times,serif" font-size="14.00">spdxl:GPL&#45;3.0&#45;or&#45;...</text>
</g>
<!-- http://w3id.org/oseg/ont/okhmeta&#45;&gt;http://spdx.org/licenses/GPL&#45;3.0&#45;or&#45;later -->
<g id="edge35" class="edge">
<title>http://w3id.org/oseg/ont/okhmeta&#45;&gt;http://spdx.org/licenses/GPL&#45;3.0&#45;or&#45;later</title>
<path fill="none" stroke="black" d="M1125.62,-962.27C1130.41,-960.19 1135.39,-958.02 1140.34,-955.87"/>
<polygon fill="black" stroke="black" points="1142,-958.96 1149.78,-951.77 1139.21,-952.54 1142,-958.96"/>
<text text-anchor="middle" x="1056.98" y="-947.87" font-family="Times,serif" font-size="14.00">spdx:licenseDeclared</text>
</g>
<!-- http://w3id.org/oseg/ont/okhmeta#MakingTag -->
<g id="node11" class="node">
<title>http://w3id.org/oseg/ont/okhmeta#MakingTag</title>
<ellipse fill="none" stroke="#e377c2" cx="951.78" cy="-418.12" rx="113.69" ry="16.03"/>
<text text-anchor="middle" x="951.78" y="-414.42" font-family="Times,serif" font-size="14.00">okhmeta:MakingTag</text>
</g>
<!-- http://w3id.org/oseg/ont/okhmeta#MakingTag&#45;&gt;http://w3id.org/oseg/ont/okhmeta#Tag -->
<g id="edge17" class="edge">
<title>http://w3id.org/oseg/ont/okhmeta#MakingTag&#45;&gt;http://w3id.org/oseg/ont/okhmeta#Tag</title>
<path fill="none" stroke="black" d="M895.2,-403.95C837.76,-389.57 749.18,-367.39 690.7,-352.75"/>
<polygon fill="black" stroke="black" points="691.42,-349.32 680.87,-350.28 689.72,-356.11 691.42,-349.32"/>
<text text-anchor="middle" x="788.45" y="-367.15" font-family="Times,serif" font-size="14.00">a</text>
</g>
<!-- http://w3id.org/oseg/ont/okhmeta#MakingTag&#45;&gt;http://w3id.org/oseg/ont/okhmeta#MetaTag -->
<g id="edge22" class="edge">
<title>http://w3id.org/oseg/ont/okhmeta#MakingTag&#45;&gt;http://w3id.org/oseg/ont/okhmeta#MetaTag</title>
<path fill="none" stroke="black" d="M859.04,-408.63C812.41,-403.85 755.95,-398.07 708.82,-393.25"/>
<polygon fill="black" stroke="black" points="708.91,-389.74 698.6,-392.2 708.2,-396.7 708.91,-389.74"/>
<text text-anchor="middle" x="706.93" y="-404.74" font-family="Times,serif" font-size="14.00">okhmeta:hasMetaTag</text>
</g>
<!-- http://w3id.org/oseg/ont/okhmeta#HistoryTag -->
<g id="node12" class="node">
<title>http://w3id.org/oseg/ont/okhmeta#HistoryTag</title>
<ellipse fill="none" stroke="#e377c2" cx="301.32" cy="-260.69" rx="113.69" ry="16.03"/>
<text text-anchor="middle" x="301.32" y="-256.99" font-family="Times,serif" font-size="14.00">okhmeta:HistoryTag</text>
</g>
<!-- http://w3id.org/oseg/ont/okhmeta#HistoryTag&#45;&gt;http://w3id.org/oseg/ont/okhmeta#Tag -->
<g id="edge5" class="edge">
<title>http://w3id.org/oseg/ont/okhmeta#HistoryTag&#45;&gt;http://w3id.org/oseg/ont/okhmeta#Tag</title>
<path fill="none" stroke="black" d="M360.67,-274.57C419.67,-288.37 509.77,-309.44 569.55,-323.43"/>
<polygon fill="black" stroke="black" points="569.07,-326.91 579.61,-325.78 570.67,-320.09 569.07,-326.91"/>
<text text-anchor="middle" x="460.61" y="-302.8" font-family="Times,serif" font-size="14.00">a</text>
</g>
<!-- http://w3id.org/oseg/ont/okhmeta#HistoryTag&#45;&gt;http://w3id.org/oseg/ont/okhmeta#MetaTag -->
<g id="edge1" class="edge">
<title>http://w3id.org/oseg/ont/okhmeta#HistoryTag&#45;&gt;http://w3id.org/oseg/ont/okhmeta#MetaTag</title>
<path fill="none" stroke="black" d="M340.4,-276.1C397.25,-298.52 502.65,-340.09 564.22,-364.38"/>
<polygon fill="black" stroke="black" points="563.12,-367.71 573.71,-368.12 565.69,-361.19 563.12,-367.71"/>
<text text-anchor="middle" x="375.31" y="-324.04" font-family="Times,serif" font-size="14.00">okhmeta:hasMetaTag</text>
</g>
<!-- http://w3id.org/oseg/ont/okhmeta#LegalTag -->
<g id="node14" class="node">
<title>http://w3id.org/oseg/ont/okhmeta#LegalTag</title>
<ellipse fill="none" stroke="#e377c2" cx="932.75" cy="-313.45" rx="103.89" ry="16.03"/>
<text text-anchor="middle" x="932.75" y="-309.75" font-family="Times,serif" font-size="14.00">okhmeta:LegalTag</text>
</g>
<!-- http://w3id.org/oseg/ont/okhmeta#LegalTag&#45;&gt;http://w3id.org/oseg/ont/okhmeta#Tag -->
<g id="edge18" class="edge">
<title>http://w3id.org/oseg/ont/okhmeta#LegalTag&#45;&gt;http://w3id.org/oseg/ont/okhmeta#Tag</title>
<path fill="none" stroke="black" d="M840.21,-320.93C799.6,-324.22 752.31,-328.04 713,-331.22"/>
<polygon fill="black" stroke="black" points="712.61,-327.74 702.93,-332.03 713.18,-334.72 712.61,-327.74"/>
<text text-anchor="middle" x="772.11" y="-329.87" font-family="Times,serif" font-size="14.00">a</text>
</g>
<!-- http://w3id.org/oseg/ont/okhmeta#LegalTag&#45;&gt;http://w3id.org/oseg/ont/okhmeta#MetaTag -->
<g id="edge14" class="edge">
<title>http://w3id.org/oseg/ont/okhmeta#LegalTag&#45;&gt;http://w3id.org/oseg/ont/okhmeta#MetaTag</title>
<path fill="none" stroke="black" d="M872.11,-326.68C818.21,-338.45 739.39,-355.65 682.73,-368.02"/>
<polygon fill="black" stroke="black" points="681.79,-364.64 672.77,-370.19 683.29,-371.48 681.79,-364.64"/>
<text text-anchor="middle" x="854.42" y="-351.15" font-family="Times,serif" font-size="14.00">okhmeta:hasMetaTag</text>
</g>
<!-- http://w3id.org/oseg/ont/okhmeta#TransportationTag -->
<g id="node15" class="node">
<title>http://w3id.org/oseg/ont/okhmeta#TransportationTag</title>
<ellipse fill="none" stroke="#e377c2" cx="925.41" cy="-207.88" rx="118.17" ry="16.03"/>
<text text-anchor="middle" x="925.41" y="-204.18" font-family="Times,serif" font-size="14.00">okhmeta:Transport...</text>
</g>
<!-- http://w3id.org/oseg/ont/okhmeta#TransportationTag&#45;&gt;http://w3id.org/oseg/ont/okhmeta#Tag -->
<g id="edge23" class="edge">
<title>http://w3id.org/oseg/ont/okhmeta#TransportationTag&#45;&gt;http://w3id.org/oseg/ont/okhmeta#Tag</title>
<path fill="none" stroke="black" d="M890.21,-223.43C836.02,-247.36 732.33,-293.16 673.91,-318.96"/>
<polygon fill="black" stroke="black" points="672.32,-315.83 664.59,-323.07 675.15,-322.24 672.32,-315.83"/>
<text text-anchor="middle" x="777.56" y="-274.99" font-family="Times,serif" font-size="14.00">a</text>
</g>
<!-- http://w3id.org/oseg/ont/okhmeta#TransportationTag&#45;&gt;http://w3id.org/oseg/ont/okhmeta#MetaTag -->
<g id="edge42" class="edge">
<title>http://w3id.org/oseg/ont/okhmeta#TransportationTag&#45;&gt;http://w3id.org/oseg/ont/okhmeta#MetaTag</title>
<path fill="none" stroke="black" d="M897.08,-223.76C840.28,-255.61 712.51,-327.24 649.27,-362.69"/>
<polygon fill="black" stroke="black" points="647.44,-359.71 640.42,-367.65 650.86,-365.81 647.44,-359.71"/>
<text text-anchor="middle" x="696.18" y="-297.03" font-family="Times,serif" font-size="14.00">okhmeta:hasMetaTag</text>
</g>
<!-- http://w3id.org/oseg/ont/okhmeta#DocumentationTag -->
<g id="node18" class="node">
<title>http://w3id.org/oseg/ont/okhmeta#DocumentationTag</title>
<ellipse fill="none" stroke="#e377c2" cx="333.07" cy="-149.87" rx="125.32" ry="16.03"/>
<text text-anchor="middle" x="333.07" y="-146.17" font-family="Times,serif" font-size="14.00">okhmeta:Documenta...</text>
</g>
<!-- http://w3id.org/oseg/ont/okhmeta#DocumentationTag&#45;&gt;http://w3id.org/oseg/ont/okhmeta#Tag -->
<g id="edge30" class="edge">
<title>http://w3id.org/oseg/ont/okhmeta#DocumentationTag&#45;&gt;http://w3id.org/oseg/ont/okhmeta#Tag</title>
<path fill="none" stroke="black" d="M358.48,-165.9C412.32,-199.85 537.83,-278.99 597.93,-316.88"/>
<polygon fill="black" stroke="black" points="596.32,-320.01 606.65,-322.38 600.06,-314.09 596.32,-320.01"/>
<text text-anchor="middle" x="473.71" y="-245.19" font-family="Times,serif" font-size="14.00">a</text>
</g>
<!-- http://w3id.org/oseg/ont/okhmeta#DocumentationTag&#45;&gt;http://w3id.org/oseg/ont/okhmeta#MetaTag -->
<g id="edge43" class="edge">
<title>http://w3id.org/oseg/ont/okhmeta#DocumentationTag&#45;&gt;http://w3id.org/oseg/ont/okhmeta#MetaTag</title>
<path fill="none" stroke="black" d="M352.71,-166.29C401.71,-207.25 529.42,-314.02 585.41,-360.83"/>
<polygon fill="black" stroke="black" points="583.22,-363.55 593.13,-367.28 587.71,-358.18 583.22,-363.55"/>
<text text-anchor="middle" x="546.06" y="-267.36" font-family="Times,serif" font-size="14.00">okhmeta:hasMetaTag</text>
</g>
<!-- http://w3id.org/oseg/ont/okhmeta#AcademicTag -->
<g id="node20" class="node">
<title>http://w3id.org/oseg/ont/okhmeta#AcademicTag</title>
<ellipse fill="none" stroke="#e377c2" cx="901.2" cy="-117.89" rx="124.4" ry="16.03"/>
<text text-anchor="middle" x="901.2" y="-114.19" font-family="Times,serif" font-size="14.00">okhmeta:AcademicTag</text>
</g>
<!-- http://w3id.org/oseg/ont/okhmeta#AcademicTag&#45;&gt;http://w3id.org/oseg/ont/okhmeta#Tag -->
<g id="edge33" class="edge">
<title>http://w3id.org/oseg/ont/okhmeta#AcademicTag&#45;&gt;http://w3id.org/oseg/ont/okhmeta#Tag</title>
<path fill="none" stroke="black" d="M881.34,-134.06C833.72,-172.84 712.97,-271.2 658.52,-315.55"/>
<polygon fill="black" stroke="black" points="656.23,-312.91 650.68,-321.94 660.65,-318.34 656.23,-312.91"/>
<text text-anchor="middle" x="765.43" y="-228.6" font-family="Times,serif" font-size="14.00">a</text>
</g>
<!-- http://w3id.org/oseg/ont/okhmeta#AcademicTag&#45;&gt;http://w3id.org/oseg/ont/okhmeta#MetaTag -->
<g id="edge44" class="edge">
<title>http://w3id.org/oseg/ont/okhmeta#AcademicTag&#45;&gt;http://w3id.org/oseg/ont/okhmeta#MetaTag</title>
<path fill="none" stroke="black" d="M883.56,-134.09C834.32,-179.36 695.17,-307.27 637.7,-360.1"/>
<polygon fill="black" stroke="black" points="635.14,-357.7 630.15,-367.04 639.88,-362.85 635.14,-357.7"/>
<text text-anchor="middle" x="683.63" y="-250.9" font-family="Times,serif" font-size="14.00">okhmeta:hasMetaTag</text>
</g>
<!-- http://w3id.org/oseg/ont/okhmeta#DevelopmentTag -->
<g id="node22" class="node">
<title>http://w3id.org/oseg/ont/okhmeta#DevelopmentTag</title>
<ellipse fill="none" stroke="#e377c2" cx="927.47" cy="-528.55" rx="124.4" ry="16.03"/>
<text text-anchor="middle" x="927.47" y="-524.85" font-family="Times,serif" font-size="14.00">okhmeta:Developme...</text>
</g>
<!-- http://w3id.org/oseg/ont/okhmeta#DevelopmentTag&#45;&gt;http://w3id.org/oseg/ont/okhmeta#Tag -->
<g id="edge36" class="edge">
<title>http://w3id.org/oseg/ont/okhmeta#DevelopmentTag&#45;&gt;http://w3id.org/oseg/ont/okhmeta#Tag</title>
<path fill="none" stroke="black" d="M902.46,-512.46C848.98,-478.03 723.51,-397.28 663.82,-358.86"/>
<polygon fill="black" stroke="black" points="665.47,-355.76 655.17,-353.29 661.68,-361.65 665.47,-355.76"/>
<text text-anchor="middle" x="778.64" y="-439.46" font-family="Times,serif" font-size="14.00">a</text>
</g>
<!-- http://w3id.org/oseg/ont/okhmeta#DevelopmentTag&#45;&gt;http://w3id.org/oseg/ont/okhmeta#MetaTag -->
<g id="edge20" class="edge">
<title>http://w3id.org/oseg/ont/okhmeta#DevelopmentTag&#45;&gt;http://w3id.org/oseg/ont/okhmeta#MetaTag</title>
<path fill="none" stroke="black" d="M893.45,-512.88C835.63,-486.24 718.33,-432.19 655.08,-403.05"/>
<polygon fill="black" stroke="black" points="656.33,-399.77 645.79,-398.76 653.4,-406.13 656.33,-399.77"/>
<text text-anchor="middle" x="697.27" y="-461.76" font-family="Times,serif" font-size="14.00">okhmeta:hasMetaTag</text>
</g>
<!-- http://w3id.org/oseg/ont/okhmeta#PartsTag -->
<g id="node23" class="node">
<title>http://w3id.org/oseg/ont/okhmeta#PartsTag</title>
<ellipse fill="none" stroke="#e377c2" cx="431.25" cy="-593.79" rx="103.48" ry="16.03"/>
<text text-anchor="middle" x="431.25" y="-590.09" font-family="Times,serif" font-size="14.00">okhmeta:PartsTag</text>
</g>
<!-- http://w3id.org/oseg/ont/okhmeta#PartsTag&#45;&gt;http://w3id.org/oseg/ont/okhmeta#Tag -->
<g id="edge37" class="edge">
<title>http://w3id.org/oseg/ont/okhmeta#PartsTag&#45;&gt;http://w3id.org/oseg/ont/okhmeta#Tag</title>
<path fill="none" stroke="black" d="M444.06,-577.39C478.27,-533.6 571.88,-413.75 612.23,-362.07"/>
<polygon fill="black" stroke="black" points="615.06,-364.14 618.46,-354.1 609.55,-359.83 615.06,-364.14"/>
<text text-anchor="middle" x="523.65" y="-473.53" font-family="Times,serif" font-size="14.00">a</text>
</g>
<!-- http://w3id.org/oseg/ont/okhmeta#PartsTag&#45;&gt;http://w3id.org/oseg/ont/okhmeta#MetaTag -->
<g id="edge21" class="edge">
<title>http://w3id.org/oseg/ont/okhmeta#PartsTag&#45;&gt;http://w3id.org/oseg/ont/okhmeta#MetaTag</title>
<path fill="none" stroke="black" d="M445.17,-577.63C476.84,-540.83 554.46,-450.66 591.74,-407.35"/>
<polygon fill="black" stroke="black" points="594.55,-409.45 598.42,-399.59 589.25,-404.89 594.55,-409.45"/>
<text text-anchor="middle" x="595.45" y="-496.29" font-family="Times,serif" font-size="14.00">okhmeta:hasMetaTag</text>
</g>
<!-- http://w3id.org/oseg/ont/okhmeta#BasicTag -->
<g id="node24" class="node">
<title>http://w3id.org/oseg/ont/okhmeta#BasicTag</title>
<ellipse fill="none" stroke="#e377c2" cx="735" cy="-659.76" rx="103.48" ry="16.03"/>
<text text-anchor="middle" x="735" y="-656.06" font-family="Times,serif" font-size="14.00">okhmeta:BasicTag</text>
</g>
<!-- http://w3id.org/oseg/ont/okhmeta#BasicTag&#45;&gt;http://w3id.org/oseg/ont/okhmeta#Tag -->
<g id="edge38" class="edge">
<title>http://w3id.org/oseg/ont/okhmeta#BasicTag&#45;&gt;http://w3id.org/oseg/ont/okhmeta#Tag</title>
<path fill="none" stroke="black" d="M729.71,-643.35C712.84,-591.04 660.21,-427.89 639.58,-363.94"/>
<polygon fill="black" stroke="black" points="642.84,-362.66 636.44,-354.21 636.18,-364.8 642.84,-362.66"/>
<text text-anchor="middle" x="680.14" y="-507.44" font-family="Times,serif" font-size="14.00">a</text>
</g>
<!-- http://w3id.org/oseg/ont/okhmeta#BasicTag&#45;&gt;http://w3id.org/oseg/ont/okhmeta#MetaTag -->
<g id="edge26" class="edge">
<title>http://w3id.org/oseg/ont/okhmeta#BasicTag&#45;&gt;http://w3id.org/oseg/ont/okhmeta#MetaTag</title>
<path fill="none" stroke="black" d="M727.7,-643.3C707.12,-596.92 648.57,-464.95 623.74,-408.97"/>
<polygon fill="black" stroke="black" points="626.9,-407.47 619.65,-399.75 620.5,-410.31 626.9,-407.47"/>
<text text-anchor="middle" x="598.72" y="-529.94" font-family="Times,serif" font-size="14.00">okhmeta:hasMetaTag</text>
</g>
<!-- http://w3id.org/oseg/ont/okhmeta#IdentificationTag -->
<g id="node25" class="node">
<title>http://w3id.org/oseg/ont/okhmeta#IdentificationTag</title>
<ellipse fill="none" stroke="#e377c2" cx="713.98" cy="-16.52" rx="109.7" ry="16.03"/>
<text text-anchor="middle" x="713.98" y="-12.82" font-family="Times,serif" font-size="14.00">okhmeta:Identific...</text>
</g>
<!-- http://w3id.org/oseg/ont/okhmeta#IdentificationTag&#45;&gt;http://w3id.org/oseg/ont/okhmeta#Tag -->
<g id="edge40" class="edge">
<title>http://w3id.org/oseg/ont/okhmeta#IdentificationTag&#45;&gt;http://w3id.org/oseg/ont/okhmeta#Tag</title>
<path fill="none" stroke="black" d="M709.76,-32.9C696.3,-85.11 654.33,-247.95 637.88,-311.79"/>
<polygon fill="black" stroke="black" points="634.48,-310.94 635.37,-321.5 641.26,-312.69 634.48,-310.94"/>
<text text-anchor="middle" x="669.32" y="-176.14" font-family="Times,serif" font-size="14.00">a</text>
</g>
<!-- http://w3id.org/oseg/ont/okhmeta#IdentificationTag&#45;&gt;http://w3id.org/oseg/ont/okhmeta#MetaTag -->
<g id="edge47" class="edge">
<title>http://w3id.org/oseg/ont/okhmeta#IdentificationTag&#45;&gt;http://w3id.org/oseg/ont/okhmeta#MetaTag</title>
<path fill="none" stroke="black" d="M709.35,-33.24C693.21,-91.5 639.37,-285.93 619.68,-357.04"/>
<polygon fill="black" stroke="black" points="616.22,-356.41 616.92,-366.98 622.97,-358.28 616.22,-356.41"/>
<text text-anchor="middle" x="587.51" y="-198.94" font-family="Times,serif" font-size="14.00">okhmeta:hasMetaTag</text>
</g>
<!-- http://w3id.org/oseg/ont/okhmeta#DataGatheringTag -->
<g id="node26" class="node">
<title>http://w3id.org/oseg/ont/okhmeta#DataGatheringTag</title>
<ellipse fill="none" stroke="#e377c2" cx="850.89" cy="-617.57" rx="122.16" ry="16.03"/>
<text text-anchor="middle" x="850.89" y="-613.87" font-family="Times,serif" font-size="14.00">okhmeta:DataGathe...</text>
</g>
<!-- http://w3id.org/oseg/ont/okhmeta#DataGatheringTag&#45;&gt;http://w3id.org/oseg/ont/okhmeta#Tag -->
<g id="edge41" class="edge">
<title>http://w3id.org/oseg/ont/okhmeta#DataGatheringTag&#45;&gt;http://w3id.org/oseg/ont/okhmeta#Tag</title>
<path fill="none" stroke="black" d="M838.12,-601.32C801.18,-554.29 694.03,-417.87 650.19,-362.07"/>
<polygon fill="black" stroke="black" points="652.89,-359.83 643.96,-354.13 647.39,-364.16 652.89,-359.83"/>
<text text-anchor="middle" x="739.66" y="-485.49" font-family="Times,serif" font-size="14.00">a</text>
</g>
<!-- http://w3id.org/oseg/ont/okhmeta#DataGatheringTag&#45;&gt;http://w3id.org/oseg/ont/okhmeta#MetaTag -->
<g id="edge48" class="edge">
<title>http://w3id.org/oseg/ont/okhmeta#DataGatheringTag&#45;&gt;http://w3id.org/oseg/ont/okhmeta#MetaTag</title>
<path fill="none" stroke="black" d="M834.11,-601.1C792.45,-560.18 684.12,-453.81 636,-406.57"/>
<polygon fill="black" stroke="black" points="638.41,-404.02 628.82,-399.51 633.5,-409.02 638.41,-404.02"/>
<text text-anchor="middle" x="812.06" y="-492.63" font-family="Times,serif" font-size="14.00">okhmeta:hasMetaTag</text>
</g>
<!-- http://w3id.org/oseg/ont/okhmeta#QualityTag -->
<g id="node27" class="node">
<title>http://w3id.org/oseg/ont/okhmeta#QualityTag</title>
<ellipse fill="none" stroke="#e377c2" cx="481.96" cy="-40.56" rx="113.27" ry="16.03"/>
<text text-anchor="middle" x="481.96" y="-36.86" font-family="Times,serif" font-size="14.00">okhmeta:QualityTag</text>
</g>
<!-- http://w3id.org/oseg/ont/okhmeta#QualityTag&#45;&gt;http://w3id.org/oseg/ont/okhmeta#Tag -->
<g id="edge9" class="edge">
<title>http://w3id.org/oseg/ont/okhmeta#QualityTag&#45;&gt;http://w3id.org/oseg/ont/okhmeta#Tag</title>
<path fill="none" stroke="black" d="M490.19,-56.97C514.9,-106.2 588.55,-252.94 618.39,-312.4"/>
<polygon fill="black" stroke="black" points="615.34,-314.12 622.95,-321.48 621.6,-310.98 615.34,-314.12"/>
<text text-anchor="middle" x="549.79" y="-173.48" font-family="Times,serif" font-size="14.00">a</text>
</g>
<!-- http://w3id.org/oseg/ont/okhmeta#QualityTag&#45;&gt;http://w3id.org/oseg/ont/okhmeta#MetaTag -->
<g id="edge28" class="edge">
<title>http://w3id.org/oseg/ont/okhmeta#QualityTag&#45;&gt;http://w3id.org/oseg/ont/okhmeta#MetaTag</title>
<path fill="none" stroke="black" d="M488.25,-57.1C509.25,-112.31 577.08,-290.59 602.58,-357.6"/>
<polygon fill="black" stroke="black" points="599.33,-358.9 606.16,-367 605.87,-356.41 599.33,-358.9"/>
<text text-anchor="middle" x="622.41" y="-211.15" font-family="Times,serif" font-size="14.00">okhmeta:hasMetaTag</text>
</g>
<!-- http://w3id.org/oseg/ont/okhmeta#DataTag -->
<g id="node29" class="node">
<title>http://w3id.org/oseg/ont/okhmeta#DataTag</title>
<ellipse fill="none" stroke="#e377c2" cx="312.26" cy="-372.68" rx="100.32" ry="16.03"/>
<text text-anchor="middle" x="312.26" y="-368.98" font-family="Times,serif" font-size="14.00">okhmeta:DataTag</text>
</g>
<!-- http://w3id.org/oseg/ont/okhmeta#DataTag&#45;&gt;http://w3id.org/oseg/ont/okhmeta#Tag -->
<g id="edge45" class="edge">
<title>http://w3id.org/oseg/ont/okhmeta#DataTag&#45;&gt;http://w3id.org/oseg/ont/okhmeta#Tag</title>
<path fill="none" stroke="black" d="M395.63,-363.57C444.3,-358.25 505.33,-351.59 553.07,-346.37"/>
<polygon fill="black" stroke="black" points="553.48,-349.85 563.04,-345.28 552.72,-342.89 553.48,-349.85"/>
<text text-anchor="middle" x="469.85" y="-358.77" font-family="Times,serif" font-size="14.00">a</text>
</g>
<!-- http://w3id.org/oseg/ont/okhmeta#DataTag&#45;&gt;http://w3id.org/oseg/ont/okhmeta#MetaTag -->
<g id="edge6" class="edge">
<title>http://w3id.org/oseg/ont/okhmeta#DataTag&#45;&gt;http://w3id.org/oseg/ont/okhmeta#MetaTag</title>
<path fill="none" stroke="black" d="M410.53,-376.18C439.79,-377.22 472.04,-378.37 502.02,-379.44"/>
<polygon fill="black" stroke="black" points="501.97,-382.94 512.09,-379.8 502.22,-375.94 501.97,-382.94"/>
<text text-anchor="middle" x="456.28" y="-366.61" font-family="Times,serif" font-size="14.00">okhmeta:hasMetaTag</text>
</g>
<!-- http://w3id.org/oseg/ont/okhmeta#ExtendedInfoTag -->
<g id="node30" class="node">
<title>http://w3id.org/oseg/ont/okhmeta#ExtendedInfoTag</title>
<ellipse fill="none" stroke="#e377c2" cx="736.63" cy="-73.99" rx="120.42" ry="16.03"/>
<text text-anchor="middle" x="736.63" y="-70.29" font-family="Times,serif" font-size="14.00">okhmeta:ExtendedI...</text>
</g>
<!-- http://w3id.org/oseg/ont/okhmeta#ExtendedInfoTag&#45;&gt;http://w3id.org/oseg/ont/okhmeta#Tag -->
<g id="edge46" class="edge">
<title>http://w3id.org/oseg/ont/okhmeta#ExtendedInfoTag&#45;&gt;http://w3id.org/oseg/ont/okhmeta#Tag</title>
<path fill="none" stroke="black" d="M730.04,-90.5C712.24,-135.01 663.15,-257.81 641.57,-311.8"/>
<polygon fill="black" stroke="black" points="638.22,-310.76 637.76,-321.34 644.72,-313.35 638.22,-310.76"/>
<text text-anchor="middle" x="681.3" y="-189.95" font-family="Times,serif" font-size="14.00">a</text>
</g>
<!-- http://w3id.org/oseg/ont/okhmeta#ExtendedInfoTag&#45;&gt;http://w3id.org/oseg/ont/okhmeta#MetaTag -->
<g id="edge34" class="edge">
<title>http://w3id.org/oseg/ont/okhmeta#ExtendedInfoTag&#45;&gt;http://w3id.org/oseg/ont/okhmeta#MetaTag</title>
<path fill="none" stroke="black" d="M729.95,-90.63C709.47,-141.63 647.44,-296.09 622.71,-357.65"/>
<polygon fill="black" stroke="black" points="619.42,-356.45 618.95,-367.03 625.92,-359.06 619.42,-356.45"/>
<text text-anchor="middle" x="599.33" y="-227.94" font-family="Times,serif" font-size="14.00">okhmeta:hasMetaTag</text>
</g>
</g>
</svg>
