<?xml version="1.0" encoding="UTF-8" standalone="no"?>
<!DOCTYPE svg PUBLIC "-//W3C//DTD SVG 1.1//EN"
 "http://www.w3.org/Graphics/SVG/1.1/DTD/svg11.dtd">
<!-- Generated by graphviz version 2.43.0 (0)
 -->
<!-- Title: G Pages: 1 -->
<svg width="1458pt" height="725pt"
 viewBox="0.00 0.00 1458.00 725.00" xmlns="http://www.w3.org/2000/svg" xmlns:xlink="http://www.w3.org/1999/xlink">
<g id="graph0" class="graph" transform="scale(1 1) rotate(0) translate(4 721)">
<title>G</title>
<polygon fill="white" stroke="transparent" points="-4,4 -4,-721 1454,-721 1454,4 -4,4"/>
<!-- http://www.w3.org/2002/07/owl#Ontology -->
<g id="node1" class="node">
<title>http://www.w3.org/2002/07/owl#Ontology</title>
<ellipse fill="none" stroke="#1f77b4" cx="976.78" cy="-384.6" rx="77.56" ry="16.03"/>
<text text-anchor="middle" x="976.78" y="-380.9" font-family="Times,serif" font-size="14.00">owl:Ontology</text>
</g>
<!-- http://spdx.org/rdf/terms#File -->
<g id="node2" class="node">
<title>http://spdx.org/rdf/terms#File</title>
<ellipse fill="none" stroke="#1f77b4" cx="1147.1" cy="-238.02" rx="62.45" ry="16.03"/>
<text text-anchor="middle" x="1147.1" y="-234.32" font-family="Times,serif" font-size="14.00">spdxt:File</text>
</g>
<!-- http://www.w3.org/2004/02/skos/core#Concept -->
<g id="node3" class="node">
<title>http://www.w3.org/2004/02/skos/core#Concept</title>
<ellipse fill="none" stroke="#1f77b4" cx="205.62" cy="-308.14" rx="78.48" ry="16.03"/>
<text text-anchor="middle" x="205.62" y="-304.44" font-family="Times,serif" font-size="14.00">skos:Concept</text>
</g>
<!-- http://www.w3.org/2002/07/owl#ObjectProperty -->
<g id="node4" class="node">
<title>http://www.w3.org/2002/07/owl#ObjectProperty</title>
<ellipse fill="none" stroke="#1f77b4" cx="410.84" cy="-298.01" rx="109.7" ry="16.03"/>
<text text-anchor="middle" x="410.84" y="-294.31" font-family="Times,serif" font-size="14.00">owl:ObjectProperty</text>
</g>
<!-- http://www.w3.org/2004/02/skos/core#Collection -->
<g id="node5" class="node">
<title>http://www.w3.org/2004/02/skos/core#Collection</title>
<ellipse fill="none" stroke="#e377c2" cx="365.39" cy="-659.47" rx="87.86" ry="16.03"/>
<text text-anchor="middle" x="365.39" y="-655.77" font-family="Times,serif" font-size="14.00">skos:Collection</text>
</g>
<!-- https://w3id.org/oseg/ont/okhmeta#Tag -->
<g id="node6" class="node">
<title>https://w3id.org/oseg/ont/okhmeta#Tag</title>
<ellipse fill="none" stroke="#e377c2" cx="430.77" cy="-430.19" rx="76.24" ry="16.03"/>
<text text-anchor="middle" x="430.77" y="-426.49" font-family="Times,serif" font-size="14.00">okhmeta:Tag</text>
</g>
<!-- https://w3id.org/oseg/ont/okhmeta#Tag&#45;&gt;http://www.w3.org/2004/02/skos/core#Concept -->
<g id="edge12" class="edge">
<title>https://w3id.org/oseg/ont/okhmeta#Tag&#45;&gt;http://www.w3.org/2004/02/skos/core#Concept</title>
<path fill="none" stroke="black" d="M402.71,-414.98C362.24,-393.04 287.42,-352.48 242.51,-328.14"/>
<polygon fill="black" stroke="black" points="244.14,-325.04 233.68,-323.35 240.8,-331.2 244.14,-325.04"/>
<text text-anchor="middle" x="318.11" y="-375.36" font-family="Times,serif" font-size="14.00">a</text>
</g>
<!-- https://w3id.org/oseg/ont/okhmeta#Tag&#45;&gt;http://www.w3.org/2004/02/skos/core#Collection -->
<g id="edge22" class="edge">
<title>https://w3id.org/oseg/ont/okhmeta#Tag&#45;&gt;http://www.w3.org/2004/02/skos/core#Collection</title>
<path fill="none" stroke="black" d="M426.07,-446.68C414.85,-486.01 386.46,-585.58 372.86,-633.25"/>
<polygon fill="black" stroke="black" points="369.42,-632.55 370.05,-643.13 376.15,-634.47 369.42,-632.55"/>
</g>
<!-- https://w3id.org/oseg/ont/okhmeta#MetaTag -->
<g id="node7" class="node">
<title>https://w3id.org/oseg/ont/okhmeta#MetaTag</title>
<ellipse fill="none" stroke="#e377c2" cx="428.85" cy="-389.63" rx="102.56" ry="16.03"/>
<text text-anchor="middle" x="428.85" y="-385.93" font-family="Times,serif" font-size="14.00">okhmeta:MetaTag</text>
</g>
<!-- https://w3id.org/oseg/ont/okhmeta#Tag&#45;&gt;https://w3id.org/oseg/ont/okhmeta#MetaTag -->
<g id="edge34" class="edge">
<title>https://w3id.org/oseg/ont/okhmeta#Tag&#45;&gt;https://w3id.org/oseg/ont/okhmeta#MetaTag</title>
<path fill="none" stroke="black" d="M436.62,-413.85C436.62,-413.69 436.63,-413.53 436.63,-413.37"/>
<polygon fill="black" stroke="black" points="440.25,-415.86 436.29,-406.03 433.25,-416.18 440.25,-415.86"/>
<text text-anchor="middle" x="513.62" y="-402.41" font-family="Times,serif" font-size="14.00">okhmeta:hasMetaTag</text>
</g>
<!-- https://w3id.org/oseg/ont/okhmeta#MetaTag&#45;&gt;https://w3id.org/oseg/ont/okhmeta#Tag -->
<g id="edge16" class="edge">
<title>https://w3id.org/oseg/ont/okhmeta#MetaTag&#45;&gt;https://w3id.org/oseg/ont/okhmeta#Tag</title>
<path fill="none" stroke="black" d="M423,-405.98C423,-406.14 423,-406.3 422.99,-406.46"/>
<polygon fill="black" stroke="black" points="419.38,-403.97 423.33,-413.8 426.37,-403.65 419.38,-403.97"/>
<text text-anchor="middle" x="418.5" y="-410.02" font-family="Times,serif" font-size="14.00">a</text>
</g>
<!-- https://w3id.org/oseg/ont/okhmeta#MetaTag&#45;&gt;https://w3id.org/oseg/ont/okhmeta#MetaTag -->
<g id="edge15" class="edge">
<title>https://w3id.org/oseg/ont/okhmeta#MetaTag&#45;&gt;https://w3id.org/oseg/ont/okhmeta#MetaTag</title>
<path fill="none" stroke="black" d="M523.84,-395.85C539,-394.94 549.38,-392.87 549.38,-389.63 549.38,-387.18 543.42,-385.4 533.93,-384.28"/>
<polygon fill="black" stroke="black" points="534.1,-380.79 523.84,-383.42 533.5,-387.76 534.1,-380.79"/>
<text text-anchor="middle" x="626.38" y="-385.93" font-family="Times,serif" font-size="14.00">okhmeta:hasMetaTag</text>
</g>
<!-- https://w3id.org/oseg/ont/1.1.0/okh&#45;meta -->
<g id="node8" class="node">
<title>https://w3id.org/oseg/ont/1.1.0/okh&#45;meta</title>
<ellipse fill="none" stroke="#e377c2" cx="1018.41" cy="-154.2" rx="79.81" ry="16.03"/>
<text text-anchor="middle" x="1018.41" y="-150.5" font-family="Times,serif" font-size="14.00">ns1:okh&#45;meta</text>
</g>
<!-- https://w3id.org/oseg/ont/okhmeta#DevelopmentTag -->
<g id="node9" class="node">
<title>https://w3id.org/oseg/ont/okhmeta#DevelopmentTag</title>
<ellipse fill="none" stroke="#e377c2" cx="634.46" cy="-635.82" rx="124.4" ry="16.03"/>
<text text-anchor="middle" x="634.46" y="-632.12" font-family="Times,serif" font-size="14.00">okhmeta:Developme...</text>
</g>
<!-- https://w3id.org/oseg/ont/okhmeta#DevelopmentTag&#45;&gt;https://w3id.org/oseg/ont/okhmeta#Tag -->
<g id="edge2" class="edge">
<title>https://w3id.org/oseg/ont/okhmeta#DevelopmentTag&#45;&gt;https://w3id.org/oseg/ont/okhmeta#Tag</title>
<path fill="none" stroke="black" d="M618.48,-619.69C582.63,-583.5 495.7,-495.74 453.93,-453.57"/>
<polygon fill="black" stroke="black" points="456.21,-450.89 446.68,-446.25 451.23,-455.82 456.21,-450.89"/>
<text text-anchor="middle" x="531.71" y="-540.43" font-family="Times,serif" font-size="14.00">a</text>
</g>
<!-- https://w3id.org/oseg/ont/okhmeta#DevelopmentTag&#45;&gt;https://w3id.org/oseg/ont/okhmeta#MetaTag -->
<g id="edge1" class="edge">
<title>https://w3id.org/oseg/ont/okhmeta#DevelopmentTag&#45;&gt;https://w3id.org/oseg/ont/okhmeta#MetaTag</title>
<path fill="none" stroke="black" d="M620.65,-619.29C585.08,-576.7 490.23,-463.13 448.74,-413.46"/>
<polygon fill="black" stroke="black" points="451.43,-411.21 442.33,-405.78 446.05,-415.7 451.43,-411.21"/>
<text text-anchor="middle" x="457.7" y="-520.17" font-family="Times,serif" font-size="14.00">okhmeta:hasMetaTag</text>
</g>
<!-- http://id.loc.gov/vocabulary/iso639&#45;1/en -->
<g id="node10" class="node">
<title>http://id.loc.gov/vocabulary/iso639&#45;1/en</title>
<ellipse fill="none" stroke="#e377c2" cx="1003.11" cy="-244.32" rx="45.01" ry="16.03"/>
<text text-anchor="middle" x="1003.11" y="-240.62" font-family="Times,serif" font-size="14.00">ns2:en</text>
</g>
<!-- https://w3id.org/oseg/ont/oseg&#45;profiles#robinVobruba -->
<g id="node11" class="node">
<title>https://w3id.org/oseg/ont/oseg&#45;profiles#robinVobruba</title>
<ellipse fill="none" stroke="#e377c2" cx="1336.45" cy="-196.57" rx="113.69" ry="16.03"/>
<text text-anchor="middle" x="1336.45" y="-192.87" font-family="Times,serif" font-size="14.00">osegprof:robinVob...</text>
</g>
<!-- https://w3id.org/oseg/ont/okhmeta#DataTag -->
<g id="node12" class="node">
<title>https://w3id.org/oseg/ont/okhmeta#DataTag</title>
<ellipse fill="none" stroke="#e377c2" cx="224.16" cy="-562.57" rx="100.32" ry="16.03"/>
<text text-anchor="middle" x="224.16" y="-558.87" font-family="Times,serif" font-size="14.00">okhmeta:DataTag</text>
</g>
<!-- https://w3id.org/oseg/ont/okhmeta#DataTag&#45;&gt;https://w3id.org/oseg/ont/okhmeta#Tag -->
<g id="edge29" class="edge">
<title>https://w3id.org/oseg/ont/okhmeta#DataTag&#45;&gt;https://w3id.org/oseg/ont/okhmeta#Tag</title>
<path fill="none" stroke="black" d="M249.08,-546.61C286.28,-522.77 356.37,-477.87 397.78,-451.33"/>
<polygon fill="black" stroke="black" points="399.87,-454.15 406.4,-445.81 396.1,-448.25 399.87,-454.15"/>
<text text-anchor="middle" x="318.93" y="-502.77" font-family="Times,serif" font-size="14.00">a</text>
</g>
<!-- https://w3id.org/oseg/ont/okhmeta#DataTag&#45;&gt;https://w3id.org/oseg/ont/okhmeta#MetaTag -->
<g id="edge28" class="edge">
<title>https://w3id.org/oseg/ont/okhmeta#DataTag&#45;&gt;https://w3id.org/oseg/ont/okhmeta#MetaTag</title>
<path fill="none" stroke="black" d="M243.42,-546.3C280.08,-515.32 360,-447.8 401.94,-412.37"/>
<polygon fill="black" stroke="black" points="404.41,-414.86 409.79,-405.74 399.89,-409.52 404.41,-414.86"/>
<text text-anchor="middle" x="399.68" y="-483.14" font-family="Times,serif" font-size="14.00">okhmeta:hasMetaTag</text>
</g>
<!-- https://w3id.org/oseg/ont/okhmeta#ExtendedInfoTag -->
<g id="node13" class="node">
<title>https://w3id.org/oseg/ont/okhmeta#ExtendedInfoTag</title>
<ellipse fill="none" stroke="#e377c2" cx="586.92" cy="-679.96" rx="120.42" ry="16.03"/>
<text text-anchor="middle" x="586.92" y="-676.26" font-family="Times,serif" font-size="14.00">okhmeta:ExtendedI...</text>
</g>
<!-- https://w3id.org/oseg/ont/okhmeta#ExtendedInfoTag&#45;&gt;https://w3id.org/oseg/ont/okhmeta#Tag -->
<g id="edge7" class="edge">
<title>https://w3id.org/oseg/ont/okhmeta#ExtendedInfoTag&#45;&gt;https://w3id.org/oseg/ont/okhmeta#Tag</title>
<path fill="none" stroke="black" d="M576.67,-663.57C549.97,-620.87 478.13,-505.95 446.31,-455.04"/>
<polygon fill="black" stroke="black" points="449.12,-452.94 440.85,-446.32 443.19,-456.65 449.12,-452.94"/>
<text text-anchor="middle" x="506.99" y="-563.11" font-family="Times,serif" font-size="14.00">a</text>
</g>
<!-- https://w3id.org/oseg/ont/okhmeta#ExtendedInfoTag&#45;&gt;https://w3id.org/oseg/ont/okhmeta#MetaTag -->
<g id="edge17" class="edge">
<title>https://w3id.org/oseg/ont/okhmeta#ExtendedInfoTag&#45;&gt;https://w3id.org/oseg/ont/okhmeta#MetaTag</title>
<path fill="none" stroke="black" d="M577.97,-663.52C551.61,-615.11 474.17,-472.88 442.54,-414.78"/>
<polygon fill="black" stroke="black" points="445.56,-413 437.7,-405.9 439.41,-416.35 445.56,-413"/>
<text text-anchor="middle" x="433.25" y="-542.95" font-family="Times,serif" font-size="14.00">okhmeta:hasMetaTag</text>
</g>
<!-- https://w3id.org/oseg/ont/okhmeta#DocumentationTag -->
<g id="node14" class="node">
<title>https://w3id.org/oseg/ont/okhmeta#DocumentationTag</title>
<ellipse fill="none" stroke="#e377c2" cx="710.19" cy="-295.43" rx="125.32" ry="16.03"/>
<text text-anchor="middle" x="710.19" y="-291.73" font-family="Times,serif" font-size="14.00">okhmeta:Documenta...</text>
</g>
<!-- https://w3id.org/oseg/ont/okhmeta#DocumentationTag&#45;&gt;https://w3id.org/oseg/ont/okhmeta#Tag -->
<g id="edge30" class="edge">
<title>https://w3id.org/oseg/ont/okhmeta#DocumentationTag&#45;&gt;https://w3id.org/oseg/ont/okhmeta#Tag</title>
<path fill="none" stroke="black" d="M677.59,-311.15C626.29,-335.89 526.82,-383.87 471.1,-410.74"/>
<polygon fill="black" stroke="black" points="469.37,-407.69 461.88,-415.19 472.41,-414 469.37,-407.69"/>
<text text-anchor="middle" x="569.84" y="-364.75" font-family="Times,serif" font-size="14.00">a</text>
</g>
<!-- https://w3id.org/oseg/ont/okhmeta#DocumentationTag&#45;&gt;https://w3id.org/oseg/ont/okhmeta#MetaTag -->
<g id="edge42" class="edge">
<title>https://w3id.org/oseg/ont/okhmeta#DocumentationTag&#45;&gt;https://w3id.org/oseg/ont/okhmeta#MetaTag</title>
<path fill="none" stroke="black" d="M664.68,-310.67C614.9,-327.34 535.19,-354.03 482.43,-371.69"/>
<polygon fill="black" stroke="black" points="481.28,-368.39 472.91,-374.88 483.5,-375.03 481.28,-368.39"/>
<text text-anchor="middle" x="650.55" y="-344.98" font-family="Times,serif" font-size="14.00">okhmeta:hasMetaTag</text>
</g>
<!-- https://w3id.org/oseg/ont/okhmeta -->
<g id="node15" class="node">
<title>https://w3id.org/oseg/ont/okhmeta</title>
<ellipse fill="none" stroke="#e377c2" cx="1085.43" cy="-197.07" rx="76.24" ry="16.03"/>
<text text-anchor="middle" x="1085.43" y="-193.37" font-family="Times,serif" font-size="14.00">ns3:okhmeta</text>
</g>
<!-- https://w3id.org/oseg/ont/okhmeta&#45;&gt;http://www.w3.org/2002/07/owl#Ontology -->
<g id="edge31" class="edge">
<title>https://w3id.org/oseg/ont/okhmeta&#45;&gt;http://www.w3.org/2002/07/owl#Ontology</title>
<path fill="none" stroke="black" d="M1075.98,-213.39C1056.95,-246.22 1013.93,-320.47 991.31,-359.52"/>
<polygon fill="black" stroke="black" points="988.27,-357.79 986.28,-368.19 994.33,-361.3 988.27,-357.79"/>
<text text-anchor="middle" x="1029.14" y="-290.25" font-family="Times,serif" font-size="14.00">a</text>
</g>
<!-- https://w3id.org/oseg/ont/okhmeta&#45;&gt;http://spdx.org/rdf/terms#File -->
<g id="edge47" class="edge">
<title>https://w3id.org/oseg/ont/okhmeta&#45;&gt;http://spdx.org/rdf/terms#File</title>
<path fill="none" stroke="black" d="M1109.1,-212.79C1111.24,-214.21 1113.43,-215.66 1115.62,-217.12"/>
<polygon fill="black" stroke="black" points="1113.74,-220.07 1124.01,-222.68 1117.61,-214.24 1113.74,-220.07"/>
<text text-anchor="middle" x="1107.86" y="-218.75" font-family="Times,serif" font-size="14.00">a</text>
</g>
<!-- https://w3id.org/oseg/ont/okhmeta&#45;&gt;https://w3id.org/oseg/ont/1.1.0/okh&#45;meta -->
<g id="edge24" class="edge">
<title>https://w3id.org/oseg/ont/okhmeta&#45;&gt;https://w3id.org/oseg/ont/1.1.0/okh&#45;meta</title>
<path fill="none" stroke="black" d="M1061.23,-181.59C1058.05,-179.56 1054.74,-177.44 1051.44,-175.33"/>
<polygon fill="black" stroke="black" points="1053.11,-172.24 1042.8,-169.8 1049.33,-178.14 1053.11,-172.24"/>
<text text-anchor="middle" x="1107.83" y="-167.26" font-family="Times,serif" font-size="14.00">owl:versionIRI</text>
</g>
<!-- https://w3id.org/oseg/ont/okhmeta&#45;&gt;http://id.loc.gov/vocabulary/iso639&#45;1/en -->
<g id="edge3" class="edge">
<title>https://w3id.org/oseg/ont/okhmeta&#45;&gt;http://id.loc.gov/vocabulary/iso639&#45;1/en</title>
<path fill="none" stroke="black" d="M1058.47,-212.54C1051.42,-216.59 1043.73,-221.01 1036.38,-225.22"/>
<polygon fill="black" stroke="black" points="1034.27,-222.4 1027.34,-230.41 1037.76,-228.47 1034.27,-222.4"/>
<text text-anchor="middle" x="982.93" y="-207.68" font-family="Times,serif" font-size="14.00">dcterms:language</text>
</g>
<!-- https://w3id.org/oseg/ont/okhmeta&#45;&gt;https://w3id.org/oseg/ont/oseg&#45;profiles#robinVobruba -->
<g id="edge4" class="edge">
<title>https://w3id.org/oseg/ont/okhmeta&#45;&gt;https://w3id.org/oseg/ont/oseg&#45;profiles#robinVobruba</title>
<path fill="none" stroke="black" d="M1156.7,-203.08C1177.32,-203.52 1200.35,-203.67 1222.87,-203.52"/>
<polygon fill="black" stroke="black" points="1223.19,-207.02 1233.16,-203.43 1223.13,-200.02 1223.19,-207.02"/>
<text text-anchor="middle" x="1245.28" y="-207.1" font-family="Times,serif" font-size="14.00">schema:creator</text>
</g>
<!-- https://w3id.org/oseg/ont/okhmeta&#45;&gt;https://w3id.org/oseg/ont/oseg&#45;profiles#robinVobruba -->
<g id="edge40" class="edge">
<title>https://w3id.org/oseg/ont/okhmeta&#45;&gt;https://w3id.org/oseg/ont/oseg&#45;profiles#robinVobruba</title>
<path fill="none" stroke="black" d="M1156.01,-190.79C1176.38,-190.27 1199.15,-190.02 1221.48,-190.07"/>
<polygon fill="black" stroke="black" points="1221.69,-193.57 1231.7,-190.11 1221.71,-186.57 1221.69,-193.57"/>
<text text-anchor="middle" x="1188.75" y="-179.23" font-family="Times,serif" font-size="14.00">dcterms:creator</text>
</g>
<!-- https://spdx.org/licenses/GPL&#45;3.0&#45;or&#45;later -->
<g id="node23" class="node">
<title>https://spdx.org/licenses/GPL&#45;3.0&#45;or&#45;later</title>
<ellipse fill="none" stroke="#e377c2" cx="912.06" cy="-16" rx="108.79" ry="16.03"/>
<text text-anchor="middle" x="912.06" y="-12.3" font-family="Times,serif" font-size="14.00">spdxl:GPL&#45;3.0&#45;or&#45;...</text>
</g>
<!-- https://w3id.org/oseg/ont/okhmeta&#45;&gt;https://spdx.org/licenses/GPL&#45;3.0&#45;or&#45;later -->
<g id="edge14" class="edge">
<title>https://w3id.org/oseg/ont/okhmeta&#45;&gt;https://spdx.org/licenses/GPL&#45;3.0&#45;or&#45;later</title>
<path fill="none" stroke="black" d="M1070.04,-181C1039.41,-149 970.64,-77.18 934.79,-39.73"/>
<polygon fill="black" stroke="black" points="937.1,-37.09 927.66,-32.29 932.05,-41.93 937.1,-37.09"/>
<text text-anchor="middle" x="923.42" y="-114.17" font-family="Times,serif" font-size="14.00">spdxt:licenseDeclared</text>
</g>
<!-- https://w3id.org/oseg/ont/oseg&#45;profiles#Iopa -->
<g id="node27" class="node">
<title>https://w3id.org/oseg/ont/oseg&#45;profiles#Iopa</title>
<ellipse fill="none" stroke="#e377c2" cx="1191.91" cy="-147.79" rx="80.72" ry="16.03"/>
<text text-anchor="middle" x="1191.91" y="-144.09" font-family="Times,serif" font-size="14.00">osegprof:Iopa</text>
</g>
<!-- https://w3id.org/oseg/ont/okhmeta&#45;&gt;https://w3id.org/oseg/ont/oseg&#45;profiles#Iopa -->
<g id="edge45" class="edge">
<title>https://w3id.org/oseg/ont/okhmeta&#45;&gt;https://w3id.org/oseg/ont/oseg&#45;profiles#Iopa</title>
<path fill="none" stroke="black" d="M1117.38,-182.28C1127.71,-177.5 1139.31,-172.13 1150.24,-167.07"/>
<polygon fill="black" stroke="black" points="1152.01,-170.11 1159.62,-162.74 1149.07,-163.76 1152.01,-170.11"/>
<text text-anchor="middle" x="1199.31" y="-163.48" font-family="Times,serif" font-size="14.00">dcterms:publisher</text>
</g>
<!-- https://w3id.org/oseg/ont/okhmeta#hasMetaTag -->
<g id="node16" class="node">
<title>https://w3id.org/oseg/ont/okhmeta#hasMetaTag</title>
<ellipse fill="none" stroke="#e377c2" cx="421.81" cy="-345.57" rx="120.42" ry="16.03"/>
<text text-anchor="middle" x="421.81" y="-341.87" font-family="Times,serif" font-size="14.00">okhmeta:hasMetaTag</text>
</g>
<!-- https://w3id.org/oseg/ont/okhmeta#hasMetaTag&#45;&gt;http://www.w3.org/2004/02/skos/core#Concept -->
<g id="edge33" class="edge">
<title>https://w3id.org/oseg/ont/okhmeta#hasMetaTag&#45;&gt;http://www.w3.org/2004/02/skos/core#Concept</title>
<path fill="none" stroke="black" d="M347.72,-332.74C324.5,-328.72 298.96,-324.3 276.01,-320.33"/>
<polygon fill="black" stroke="black" points="276.46,-316.86 266.01,-318.6 275.27,-323.75 276.46,-316.86"/>
<text text-anchor="middle" x="307.36" y="-315.34" font-family="Times,serif" font-size="14.00">a</text>
</g>
<!-- https://w3id.org/oseg/ont/okhmeta#hasMetaTag&#45;&gt;http://www.w3.org/2002/07/owl#ObjectProperty -->
<g id="edge32" class="edge">
<title>https://w3id.org/oseg/ont/okhmeta#hasMetaTag&#45;&gt;http://www.w3.org/2002/07/owl#ObjectProperty</title>
<path fill="none" stroke="black" d="M418.04,-329.2C417.7,-327.72 417.34,-326.2 416.99,-324.67"/>
<polygon fill="black" stroke="black" points="420.32,-323.52 414.66,-314.57 413.5,-325.1 420.32,-323.52"/>
<text text-anchor="middle" x="413.01" y="-315.73" font-family="Times,serif" font-size="14.00">a</text>
</g>
<!-- https://w3id.org/oseg/ont/okhmeta#hasMetaTag&#45;&gt;https://w3id.org/oseg/ont/okhmeta#MetaTag -->
<g id="edge6" class="edge">
<title>https://w3id.org/oseg/ont/okhmeta#hasMetaTag&#45;&gt;https://w3id.org/oseg/ont/okhmeta#MetaTag</title>
<path fill="none" stroke="black" d="M417.88,-362C417.92,-362.47 417.96,-362.94 418,-363.41"/>
<polygon fill="black" stroke="black" points="414.56,-364.05 419.56,-373.39 421.47,-362.97 414.56,-364.05"/>
<text text-anchor="middle" x="340.94" y="-366.51" font-family="Times,serif" font-size="14.00">okhmeta:hasMetaTag</text>
</g>
<!-- https://w3id.org/oseg/ont/okhmeta#hasMetaTag&#45;&gt;https://w3id.org/oseg/ont/okhmeta#MetaTag -->
<g id="edge26" class="edge">
<title>https://w3id.org/oseg/ont/okhmeta#hasMetaTag&#45;&gt;https://w3id.org/oseg/ont/okhmeta#MetaTag</title>
<path fill="none" stroke="black" d="M431.13,-361.94C431.23,-362.41 431.33,-362.88 431.42,-363.35"/>
<polygon fill="black" stroke="black" points="427.96,-363.89 432.79,-373.32 434.9,-362.94 427.96,-363.89"/>
<text text-anchor="middle" x="511.28" y="-366.44" font-family="Times,serif" font-size="14.00">schema:rangeIncludes</text>
</g>
<!-- http://www.w3.org/2004/02/skos/core#member -->
<g id="node29" class="node">
<title>http://www.w3.org/2004/02/skos/core#member</title>
<ellipse fill="none" stroke="#e377c2" cx="399.03" cy="-16.15" rx="79.39" ry="16.03"/>
<text text-anchor="middle" x="399.03" y="-12.45" font-family="Times,serif" font-size="14.00">skos:member</text>
</g>
<!-- https://w3id.org/oseg/ont/okhmeta#hasMetaTag&#45;&gt;http://www.w3.org/2004/02/skos/core#member -->
<g id="edge21" class="edge">
<title>https://w3id.org/oseg/ont/okhmeta#hasMetaTag&#45;&gt;http://www.w3.org/2004/02/skos/core#member</title>
<path fill="none" stroke="black" d="M420.68,-329.23C417.02,-276.22 405.43,-108.6 400.88,-42.92"/>
<polygon fill="black" stroke="black" points="404.35,-42.32 400.17,-32.59 397.37,-42.8 404.35,-42.32"/>
<text text-anchor="middle" x="410.78" y="-174.88" font-family="Times,serif" font-size="14.00">subPropertyOf</text>
</g>
<!-- https://w3id.org/oseg/ont/okhmeta#LegalTag -->
<g id="node17" class="node">
<title>https://w3id.org/oseg/ont/okhmeta#LegalTag</title>
<ellipse fill="none" stroke="#e377c2" cx="357.15" cy="-149.29" rx="103.89" ry="16.03"/>
<text text-anchor="middle" x="357.15" y="-145.59" font-family="Times,serif" font-size="14.00">okhmeta:LegalTag</text>
</g>
<!-- https://w3id.org/oseg/ont/okhmeta#LegalTag&#45;&gt;https://w3id.org/oseg/ont/okhmeta#Tag -->
<g id="edge8" class="edge">
<title>https://w3id.org/oseg/ont/okhmeta#LegalTag&#45;&gt;https://w3id.org/oseg/ont/okhmeta#Tag</title>
<path fill="none" stroke="black" d="M361.43,-165.61C373.68,-212.35 408.97,-347.02 423.94,-404.11"/>
<polygon fill="black" stroke="black" points="420.56,-405.05 426.49,-413.83 427.34,-403.27 420.56,-405.05"/>
<text text-anchor="middle" x="388.18" y="-273.66" font-family="Times,serif" font-size="14.00">a</text>
</g>
<!-- https://w3id.org/oseg/ont/okhmeta#LegalTag&#45;&gt;https://w3id.org/oseg/ont/okhmeta#MetaTag -->
<g id="edge20" class="edge">
<title>https://w3id.org/oseg/ont/okhmeta#LegalTag&#45;&gt;https://w3id.org/oseg/ont/okhmeta#MetaTag</title>
<path fill="none" stroke="black" d="M362.08,-165.81C374.34,-206.9 406.28,-313.97 421.09,-363.64"/>
<polygon fill="black" stroke="black" points="417.77,-364.74 423.98,-373.32 424.48,-362.73 417.77,-364.74"/>
<text text-anchor="middle" x="314.59" y="-253.52" font-family="Times,serif" font-size="14.00">okhmeta:hasMetaTag</text>
</g>
<!-- https://w3id.org/oseg/ont/okhmeta#TransportationTag -->
<g id="node18" class="node">
<title>https://w3id.org/oseg/ont/okhmeta#TransportationTag</title>
<ellipse fill="none" stroke="#e377c2" cx="197.6" cy="-615.6" rx="118.17" ry="16.03"/>
<text text-anchor="middle" x="197.6" y="-611.9" font-family="Times,serif" font-size="14.00">okhmeta:Transport...</text>
</g>
<!-- https://w3id.org/oseg/ont/okhmeta#TransportationTag&#45;&gt;https://w3id.org/oseg/ont/okhmeta#Tag -->
<g id="edge9" class="edge">
<title>https://w3id.org/oseg/ont/okhmeta#TransportationTag&#45;&gt;https://w3id.org/oseg/ont/okhmeta#Tag</title>
<path fill="none" stroke="black" d="M217.88,-599.47C259.59,-566.31 355.03,-490.42 402.66,-452.55"/>
<polygon fill="black" stroke="black" points="405.05,-455.12 410.7,-446.15 400.7,-449.64 405.05,-455.12"/>
<text text-anchor="middle" x="305.77" y="-529.81" font-family="Times,serif" font-size="14.00">a</text>
</g>
<!-- https://w3id.org/oseg/ont/okhmeta#TransportationTag&#45;&gt;https://w3id.org/oseg/ont/okhmeta#MetaTag -->
<g id="edge35" class="edge">
<title>https://w3id.org/oseg/ont/okhmeta#TransportationTag&#45;&gt;https://w3id.org/oseg/ont/okhmeta#MetaTag</title>
<path fill="none" stroke="black" d="M214.23,-599.35C254.64,-559.86 358.15,-458.72 405.08,-412.86"/>
<polygon fill="black" stroke="black" points="407.66,-415.23 412.37,-405.74 402.77,-410.22 407.66,-415.23"/>
<text text-anchor="middle" x="232.65" y="-509.91" font-family="Times,serif" font-size="14.00">okhmeta:hasMetaTag</text>
</g>
<!-- https://w3id.org/oseg/ont/okhmeta#MakingTag -->
<g id="node19" class="node">
<title>https://w3id.org/oseg/ont/okhmeta#MakingTag</title>
<ellipse fill="none" stroke="#e377c2" cx="645.49" cy="-222.89" rx="113.69" ry="16.03"/>
<text text-anchor="middle" x="645.49" y="-219.19" font-family="Times,serif" font-size="14.00">okhmeta:MakingTag</text>
</g>
<!-- https://w3id.org/oseg/ont/okhmeta#MakingTag&#45;&gt;https://w3id.org/oseg/ont/okhmeta#Tag -->
<g id="edge36" class="edge">
<title>https://w3id.org/oseg/ont/okhmeta#MakingTag&#45;&gt;https://w3id.org/oseg/ont/okhmeta#Tag</title>
<path fill="none" stroke="black" d="M628.64,-239.16C590.68,-275.81 498.38,-364.92 454.59,-407.2"/>
<polygon fill="black" stroke="black" points="452.01,-404.82 447.25,-414.29 456.87,-409.86 452.01,-404.82"/>
<text text-anchor="middle" x="537.11" y="-311.98" font-family="Times,serif" font-size="14.00">a</text>
</g>
<!-- https://w3id.org/oseg/ont/okhmeta#MakingTag&#45;&gt;https://w3id.org/oseg/ont/okhmeta#MetaTag -->
<g id="edge23" class="edge">
<title>https://w3id.org/oseg/ont/okhmeta#MakingTag&#45;&gt;https://w3id.org/oseg/ont/okhmeta#MetaTag</title>
<path fill="none" stroke="black" d="M624.32,-239.18C585.31,-269.21 502.03,-333.31 457.82,-367.33"/>
<polygon fill="black" stroke="black" points="455.57,-364.65 449.78,-373.52 459.84,-370.2 455.57,-364.65"/>
<text text-anchor="middle" x="618.07" y="-307.06" font-family="Times,serif" font-size="14.00">okhmeta:hasMetaTag</text>
</g>
<!-- https://w3id.org/oseg/ont/okhmeta#IdentificationTag -->
<g id="node20" class="node">
<title>https://w3id.org/oseg/ont/okhmeta#IdentificationTag</title>
<ellipse fill="none" stroke="#e377c2" cx="341.56" cy="-701.06" rx="109.7" ry="16.03"/>
<text text-anchor="middle" x="341.56" y="-697.36" font-family="Times,serif" font-size="14.00">okhmeta:Identific...</text>
</g>
<!-- https://w3id.org/oseg/ont/okhmeta#IdentificationTag&#45;&gt;https://w3id.org/oseg/ont/okhmeta#Tag -->
<g id="edge38" class="edge">
<title>https://w3id.org/oseg/ont/okhmeta#IdentificationTag&#45;&gt;https://w3id.org/oseg/ont/okhmeta#Tag</title>
<path fill="none" stroke="black" d="M347,-684.53C362,-638.99 404,-511.48 422.19,-456.25"/>
<polygon fill="black" stroke="black" points="425.59,-457.11 425.4,-446.51 418.95,-454.92 425.59,-457.11"/>
<text text-anchor="middle" x="380.1" y="-574.19" font-family="Times,serif" font-size="14.00">a</text>
</g>
<!-- https://w3id.org/oseg/ont/okhmeta#IdentificationTag&#45;&gt;https://w3id.org/oseg/ont/okhmeta#MetaTag -->
<g id="edge37" class="edge">
<title>https://w3id.org/oseg/ont/okhmeta#IdentificationTag&#45;&gt;https://w3id.org/oseg/ont/okhmeta#MetaTag</title>
<path fill="none" stroke="black" d="M346.13,-684.76C360.35,-634 403.94,-478.5 421.45,-416.02"/>
<polygon fill="black" stroke="black" points="424.89,-416.73 424.22,-406.15 418.15,-414.84 424.89,-416.73"/>
<text text-anchor="middle" x="306.79" y="-539.19" font-family="Times,serif" font-size="14.00">okhmeta:hasMetaTag</text>
</g>
<!-- https://w3id.org/oseg/ont/okhmeta#QualityTag -->
<g id="node21" class="node">
<title>https://w3id.org/oseg/ont/okhmeta#QualityTag</title>
<ellipse fill="none" stroke="#e377c2" cx="673.24" cy="-561.07" rx="113.27" ry="16.03"/>
<text text-anchor="middle" x="673.24" y="-557.37" font-family="Times,serif" font-size="14.00">okhmeta:QualityTag</text>
</g>
<!-- https://w3id.org/oseg/ont/okhmeta#QualityTag&#45;&gt;https://w3id.org/oseg/ont/okhmeta#Tag -->
<g id="edge11" class="edge">
<title>https://w3id.org/oseg/ont/okhmeta#QualityTag&#45;&gt;https://w3id.org/oseg/ont/okhmeta#Tag</title>
<path fill="none" stroke="black" d="M643.99,-545.28C599.85,-521.46 516.26,-476.34 467.89,-450.23"/>
<polygon fill="black" stroke="black" points="469.46,-447.1 459,-445.43 466.13,-453.26 469.46,-447.1"/>
<text text-anchor="middle" x="551.44" y="-501.56" font-family="Times,serif" font-size="14.00">a</text>
</g>
<!-- https://w3id.org/oseg/ont/okhmeta#QualityTag&#45;&gt;https://w3id.org/oseg/ont/okhmeta#MetaTag -->
<g id="edge25" class="edge">
<title>https://w3id.org/oseg/ont/okhmeta#QualityTag&#45;&gt;https://w3id.org/oseg/ont/okhmeta#MetaTag</title>
<path fill="none" stroke="black" d="M650.25,-544.94C606.19,-514.04 509.85,-446.46 460.05,-411.52"/>
<polygon fill="black" stroke="black" points="461.8,-408.47 451.6,-405.6 457.78,-414.2 461.8,-408.47"/>
<text text-anchor="middle" x="478.15" y="-467.03" font-family="Times,serif" font-size="14.00">okhmeta:hasMetaTag</text>
</g>
<!-- https://w3id.org/oseg/ont/okhmeta#HistoryTag -->
<g id="node22" class="node">
<title>https://w3id.org/oseg/ont/okhmeta#HistoryTag</title>
<ellipse fill="none" stroke="#e377c2" cx="709.71" cy="-480.9" rx="113.69" ry="16.03"/>
<text text-anchor="middle" x="709.71" y="-477.2" font-family="Times,serif" font-size="14.00">okhmeta:HistoryTag</text>
</g>
<!-- https://w3id.org/oseg/ont/okhmeta#HistoryTag&#45;&gt;https://w3id.org/oseg/ont/okhmeta#Tag -->
<g id="edge13" class="edge">
<title>https://w3id.org/oseg/ont/okhmeta#HistoryTag&#45;&gt;https://w3id.org/oseg/ont/okhmeta#Tag</title>
<path fill="none" stroke="black" d="M639.32,-468.1C596.29,-460.28 541.52,-450.32 498.91,-442.58"/>
<polygon fill="black" stroke="black" points="499.37,-439.11 488.91,-440.76 498.12,-445.99 499.37,-439.11"/>
<text text-anchor="middle" x="564.62" y="-459.14" font-family="Times,serif" font-size="14.00">a</text>
</g>
<!-- https://w3id.org/oseg/ont/okhmeta#HistoryTag&#45;&gt;https://w3id.org/oseg/ont/okhmeta#MetaTag -->
<g id="edge10" class="edge">
<title>https://w3id.org/oseg/ont/okhmeta#HistoryTag&#45;&gt;https://w3id.org/oseg/ont/okhmeta#MetaTag</title>
<path fill="none" stroke="black" d="M663.64,-465.93C614.38,-449.92 536.26,-424.54 483.81,-407.49"/>
<polygon fill="black" stroke="black" points="484.6,-404.07 474.01,-404.31 482.44,-410.73 484.6,-404.07"/>
<text text-anchor="middle" x="650.73" y="-440.51" font-family="Times,serif" font-size="14.00">okhmeta:hasMetaTag</text>
</g>
<!-- https://w3id.org/oseg/ont/okhmeta#PhysicalTag -->
<g id="node24" class="node">
<title>https://w3id.org/oseg/ont/okhmeta#PhysicalTag</title>
<ellipse fill="none" stroke="#e377c2" cx="230.13" cy="-195" rx="118.17" ry="16.03"/>
<text text-anchor="middle" x="230.13" y="-191.3" font-family="Times,serif" font-size="14.00">okhmeta:PhysicalTag</text>
</g>
<!-- https://w3id.org/oseg/ont/okhmeta#PhysicalTag&#45;&gt;https://w3id.org/oseg/ont/okhmeta#Tag -->
<g id="edge41" class="edge">
<title>https://w3id.org/oseg/ont/okhmeta#PhysicalTag&#45;&gt;https://w3id.org/oseg/ont/okhmeta#Tag</title>
<path fill="none" stroke="black" d="M243.93,-211.16C278.57,-251.78 369.42,-358.28 410.31,-406.21"/>
<polygon fill="black" stroke="black" points="407.73,-408.58 416.89,-413.91 413.06,-404.03 407.73,-408.58"/>
<text text-anchor="middle" x="322.62" y="-312.49" font-family="Times,serif" font-size="14.00">a</text>
</g>
<!-- https://w3id.org/oseg/ont/okhmeta#PhysicalTag&#45;&gt;https://w3id.org/oseg/ont/okhmeta#MetaTag -->
<g id="edge39" class="edge">
<title>https://w3id.org/oseg/ont/okhmeta#PhysicalTag&#45;&gt;https://w3id.org/oseg/ont/okhmeta#MetaTag</title>
<path fill="none" stroke="black" d="M246.73,-211.26C281.96,-245.76 364.31,-326.42 405.09,-366.36"/>
<polygon fill="black" stroke="black" points="402.84,-369.06 412.44,-373.56 407.74,-364.06 402.84,-369.06"/>
<text text-anchor="middle" x="248.91" y="-277.61" font-family="Times,serif" font-size="14.00">okhmeta:hasMetaTag</text>
</g>
<!-- https://w3id.org/oseg/ont/okhmeta#DataGatheringTag -->
<g id="node25" class="node">
<title>https://w3id.org/oseg/ont/okhmeta#DataGatheringTag</title>
<ellipse fill="none" stroke="#e377c2" cx="729.38" cy="-391.02" rx="122.16" ry="16.03"/>
<text text-anchor="middle" x="729.38" y="-387.32" font-family="Times,serif" font-size="14.00">okhmeta:DataGathe...</text>
</g>
<!-- https://w3id.org/oseg/ont/okhmeta#DataGatheringTag&#45;&gt;https://w3id.org/oseg/ont/okhmeta#Tag -->
<g id="edge18" class="edge">
<title>https://w3id.org/oseg/ont/okhmeta#DataGatheringTag&#45;&gt;https://w3id.org/oseg/ont/okhmeta#Tag</title>
<path fill="none" stroke="black" d="M642.21,-402.46C599.11,-408.11 547.61,-414.87 506.22,-420.3"/>
<polygon fill="black" stroke="black" points="505.66,-416.84 496.2,-421.61 506.57,-423.78 505.66,-416.84"/>
<text text-anchor="middle" x="569.71" y="-415.18" font-family="Times,serif" font-size="14.00">a</text>
</g>
<!-- https://w3id.org/oseg/ont/okhmeta#DataGatheringTag&#45;&gt;https://w3id.org/oseg/ont/okhmeta#MetaTag -->
<g id="edge43" class="edge">
<title>https://w3id.org/oseg/ont/okhmeta#DataGatheringTag&#45;&gt;https://w3id.org/oseg/ont/okhmeta#MetaTag</title>
<path fill="none" stroke="black" d="M606.71,-390.45C585.13,-390.36 562.77,-390.25 541.48,-390.15"/>
<polygon fill="black" stroke="black" points="541.47,-386.65 531.46,-390.11 541.44,-393.65 541.47,-386.65"/>
<text text-anchor="middle" x="535.59" y="-379.1" font-family="Times,serif" font-size="14.00">okhmeta:hasMetaTag</text>
</g>
<!-- https://w3id.org/oseg/ont/okhmeta#BasicTag -->
<g id="node26" class="node">
<title>https://w3id.org/oseg/ont/okhmeta#BasicTag</title>
<ellipse fill="none" stroke="#e377c2" cx="576.38" cy="-176.75" rx="103.48" ry="16.03"/>
<text text-anchor="middle" x="576.38" y="-173.05" font-family="Times,serif" font-size="14.00">okhmeta:BasicTag</text>
</g>
<!-- https://w3id.org/oseg/ont/okhmeta#BasicTag&#45;&gt;https://w3id.org/oseg/ont/okhmeta#Tag -->
<g id="edge44" class="edge">
<title>https://w3id.org/oseg/ont/okhmeta#BasicTag&#45;&gt;https://w3id.org/oseg/ont/okhmeta#Tag</title>
<path fill="none" stroke="black" d="M567.05,-192.99C542.35,-235.98 475.12,-353.01 445.32,-404.87"/>
<polygon fill="black" stroke="black" points="442.16,-403.35 440.21,-413.76 448.23,-406.83 442.16,-403.35"/>
<text text-anchor="middle" x="501.69" y="-302.73" font-family="Times,serif" font-size="14.00">a</text>
</g>
<!-- https://w3id.org/oseg/ont/okhmeta#BasicTag&#45;&gt;https://w3id.org/oseg/ont/okhmeta#MetaTag -->
<g id="edge5" class="edge">
<title>https://w3id.org/oseg/ont/okhmeta#BasicTag&#45;&gt;https://w3id.org/oseg/ont/okhmeta#MetaTag</title>
<path fill="none" stroke="black" d="M565.05,-193.1C539.35,-230.18 476.55,-320.8 446.04,-364.83"/>
<polygon fill="black" stroke="black" points="443.04,-363.02 440.22,-373.23 448.79,-367 443.04,-363.02"/>
<text text-anchor="middle" x="582.54" y="-267.77" font-family="Times,serif" font-size="14.00">okhmeta:hasMetaTag</text>
</g>
<!-- https://w3id.org/oseg/ont/okhmeta#PartsTag -->
<g id="node28" class="node">
<title>https://w3id.org/oseg/ont/okhmeta#PartsTag</title>
<ellipse fill="none" stroke="#e377c2" cx="158.9" cy="-471.03" rx="103.48" ry="16.03"/>
<text text-anchor="middle" x="158.9" y="-467.33" font-family="Times,serif" font-size="14.00">okhmeta:PartsTag</text>
</g>
<!-- https://w3id.org/oseg/ont/okhmeta#PartsTag&#45;&gt;https://w3id.org/oseg/ont/okhmeta#Tag -->
<g id="edge19" class="edge">
<title>https://w3id.org/oseg/ont/okhmeta#PartsTag&#45;&gt;https://w3id.org/oseg/ont/okhmeta#Tag</title>
<path fill="none" stroke="black" d="M233.91,-459.76C272.58,-453.95 319.54,-446.9 357.89,-441.14"/>
<polygon fill="black" stroke="black" points="358.59,-444.57 367.96,-439.63 357.55,-437.65 358.59,-444.57"/>
<text text-anchor="middle" x="291.4" y="-454.25" font-family="Times,serif" font-size="14.00">a</text>
</g>
<!-- https://w3id.org/oseg/ont/okhmeta#PartsTag&#45;&gt;https://w3id.org/oseg/ont/okhmeta#MetaTag -->
<g id="edge27" class="edge">
<title>https://w3id.org/oseg/ont/okhmeta#PartsTag&#45;&gt;https://w3id.org/oseg/ont/okhmeta#MetaTag</title>
<path fill="none" stroke="black" d="M206.85,-456.57C252.78,-442.72 322.13,-421.81 371.08,-407.05"/>
<polygon fill="black" stroke="black" points="372.33,-410.33 380.89,-404.09 370.31,-403.63 372.33,-410.33"/>
<text text-anchor="middle" x="211.97" y="-435.61" font-family="Times,serif" font-size="14.00">okhmeta:hasMetaTag</text>
</g>
<!-- https://w3id.org/oseg/ont/okhmeta#AcademicTag -->
<g id="node30" class="node">
<title>https://w3id.org/oseg/ont/okhmeta#AcademicTag</title>
<ellipse fill="none" stroke="#e377c2" cx="124.48" cy="-369.06" rx="124.4" ry="16.03"/>
<text text-anchor="middle" x="124.48" y="-365.36" font-family="Times,serif" font-size="14.00">okhmeta:AcademicTag</text>
</g>
<!-- https://w3id.org/oseg/ont/okhmeta#AcademicTag&#45;&gt;https://w3id.org/oseg/ont/okhmeta#Tag -->
<g id="edge48" class="edge">
<title>https://w3id.org/oseg/ont/okhmeta#AcademicTag&#45;&gt;https://w3id.org/oseg/ont/okhmeta#Tag</title>
<path fill="none" stroke="black" d="M192.83,-382.7C244.24,-392.96 314.26,-406.94 365.02,-417.07"/>
<polygon fill="black" stroke="black" points="364.41,-420.52 374.91,-419.04 365.79,-413.65 364.41,-420.52"/>
<text text-anchor="middle" x="274.43" y="-403.69" font-family="Times,serif" font-size="14.00">a</text>
</g>
<!-- https://w3id.org/oseg/ont/okhmeta#AcademicTag&#45;&gt;https://w3id.org/oseg/ont/okhmeta#MetaTag -->
<g id="edge46" class="edge">
<title>https://w3id.org/oseg/ont/okhmeta#AcademicTag&#45;&gt;https://w3id.org/oseg/ont/okhmeta#MetaTag</title>
<path fill="none" stroke="black" d="M235.22,-376.54C264.26,-378.51 295.49,-380.62 324.2,-382.56"/>
<polygon fill="black" stroke="black" points="324.03,-386.06 334.24,-383.24 324.5,-379.07 324.03,-386.06"/>
<text text-anchor="middle" x="202.71" y="-383.35" font-family="Times,serif" font-size="14.00">okhmeta:hasMetaTag</text>
</g>
</g>
</svg>
