<?xml version="1.0" encoding="UTF-8" standalone="no"?>
<!DOCTYPE svg PUBLIC "-//W3C//DTD SVG 1.1//EN"
 "http://www.w3.org/Graphics/SVG/1.1/DTD/svg11.dtd">
<!-- Generated by graphviz version 2.43.0 (0)
 -->
<!-- Title: G Pages: 1 -->
<svg width="1305pt" height="1234pt"
 viewBox="0.00 0.00 1305.00 1234.00" xmlns="http://www.w3.org/2000/svg" xmlns:xlink="http://www.w3.org/1999/xlink">
<g id="graph0" class="graph" transform="scale(1 1) rotate(0) translate(4 1230)">
<title>G</title>
<polygon fill="white" stroke="transparent" points="-4,4 -4,-1230 1301,-1230 1301,4 -4,4"/>
<!-- http://www.w3.org/2004/02/skos/core#Collection -->
<g id="node1" class="node">
<title>http://www.w3.org/2004/02/skos/core#Collection</title>
<ellipse fill="none" stroke="#e377c2" cx="590.75" cy="-587.79" rx="87.86" ry="16.03"/>
<text text-anchor="middle" x="590.75" y="-584.09" font-family="Times,serif" font-size="14.00">skos:Collection</text>
</g>
<!-- http://w3id.org/oseg/ont/okhmeta#Tag -->
<g id="node2" class="node">
<title>http://w3id.org/oseg/ont/okhmeta#Tag</title>
<ellipse fill="none" stroke="#e377c2" cx="478.81" cy="-890.83" rx="76.24" ry="16.03"/>
<text text-anchor="middle" x="478.81" y="-887.13" font-family="Times,serif" font-size="14.00">okhmeta:Tag</text>
</g>
<!-- http://w3id.org/oseg/ont/okhmeta#Tag&#45;&gt;http://www.w3.org/2004/02/skos/core#Collection -->
<g id="edge44" class="edge">
<title>http://w3id.org/oseg/ont/okhmeta#Tag&#45;&gt;http://www.w3.org/2004/02/skos/core#Collection</title>
<path fill="none" stroke="black" d="M484.83,-874.54C503.2,-824.8 558.68,-674.61 581.15,-613.79"/>
<polygon fill="black" stroke="black" points="584.52,-614.76 584.7,-604.17 577.95,-612.33 584.52,-614.76"/>
</g>
<!-- http://www.w3.org/2004/02/skos/core#Concept -->
<g id="node3" class="node">
<title>http://www.w3.org/2004/02/skos/core#Concept</title>
<ellipse fill="none" stroke="#1f77b4" cx="413.01" cy="-577.57" rx="78.48" ry="16.03"/>
<text text-anchor="middle" x="413.01" y="-573.87" font-family="Times,serif" font-size="14.00">skos:Concept</text>
</g>
<!-- http://w3id.org/oseg/ont/okhmeta#Tag&#45;&gt;http://www.w3.org/2004/02/skos/core#Concept -->
<g id="edge39" class="edge">
<title>http://w3id.org/oseg/ont/okhmeta#Tag&#45;&gt;http://www.w3.org/2004/02/skos/core#Concept</title>
<path fill="none" stroke="black" d="M475.37,-874.43C464.64,-823.37 431.79,-666.96 418.59,-604.12"/>
<polygon fill="black" stroke="black" points="421.98,-603.26 416.5,-594.19 415.13,-604.7 421.98,-603.26"/>
<text text-anchor="middle" x="442.48" y="-743.07" font-family="Times,serif" font-size="14.00">a</text>
</g>
<!-- http://w3id.org/oseg/ont/okhmeta#MetaTag -->
<g id="node6" class="node">
<title>http://w3id.org/oseg/ont/okhmeta#MetaTag</title>
<ellipse fill="none" stroke="#e377c2" cx="479.82" cy="-847.42" rx="102.56" ry="16.03"/>
<text text-anchor="middle" x="479.82" y="-843.72" font-family="Times,serif" font-size="14.00">okhmeta:MetaTag</text>
</g>
<!-- http://w3id.org/oseg/ont/okhmeta#Tag&#45;&gt;http://w3id.org/oseg/ont/okhmeta#MetaTag -->
<g id="edge35" class="edge">
<title>http://w3id.org/oseg/ont/okhmeta#Tag&#45;&gt;http://w3id.org/oseg/ont/okhmeta#MetaTag</title>
<path fill="none" stroke="black" d="M485.78,-874.32C485.79,-874.22 485.8,-874.11 485.81,-874"/>
<polygon fill="black" stroke="black" points="489.31,-873.89 486,-863.83 482.32,-873.76 489.31,-873.89"/>
<text text-anchor="middle" x="562.8" y="-862.96" font-family="Times,serif" font-size="14.00">okhmeta:hasMetaTag</text>
</g>
<!-- http://spdx.org/rdf/terms#SpdxItem -->
<g id="node4" class="node">
<title>http://spdx.org/rdf/terms#SpdxItem</title>
<ellipse fill="none" stroke="#1f77b4" cx="807.75" cy="-470.7" rx="87.86" ry="16.03"/>
<text text-anchor="middle" x="807.75" y="-467" font-family="Times,serif" font-size="14.00">spdx:SpdxItem</text>
</g>
<!-- http://w3id.org/oseg/ont/okhmeta#DataTag -->
<g id="node5" class="node">
<title>http://w3id.org/oseg/ont/okhmeta#DataTag</title>
<ellipse fill="none" stroke="#e377c2" cx="222.04" cy="-1000.22" rx="100.32" ry="16.03"/>
<text text-anchor="middle" x="222.04" y="-996.52" font-family="Times,serif" font-size="14.00">okhmeta:DataTag</text>
</g>
<!-- http://w3id.org/oseg/ont/okhmeta#DataTag&#45;&gt;http://w3id.org/oseg/ont/okhmeta#Tag -->
<g id="edge21" class="edge">
<title>http://w3id.org/oseg/ont/okhmeta#DataTag&#45;&gt;http://w3id.org/oseg/ont/okhmeta#Tag</title>
<path fill="none" stroke="black" d="M257.74,-985.01C304.22,-965.21 385.39,-930.63 435.38,-909.33"/>
<polygon fill="black" stroke="black" points="436.81,-912.53 444.64,-905.39 434.07,-906.09 436.81,-912.53"/>
<text text-anchor="middle" x="342.06" y="-950.97" font-family="Times,serif" font-size="14.00">a</text>
</g>
<!-- http://w3id.org/oseg/ont/okhmeta#DataTag&#45;&gt;http://w3id.org/oseg/ont/okhmeta#MetaTag -->
<g id="edge34" class="edge">
<title>http://w3id.org/oseg/ont/okhmeta#DataTag&#45;&gt;http://w3id.org/oseg/ont/okhmeta#MetaTag</title>
<path fill="none" stroke="black" d="M248.66,-984.45C295.35,-956.77 392.03,-899.46 444.35,-868.45"/>
<polygon fill="black" stroke="black" points="446.15,-871.45 452.96,-863.34 442.58,-865.43 446.15,-871.45"/>
<text text-anchor="middle" x="423.5" y="-930.25" font-family="Times,serif" font-size="14.00">okhmeta:hasMetaTag</text>
</g>
<!-- http://w3id.org/oseg/ont/okhmeta#MetaTag&#45;&gt;http://w3id.org/oseg/ont/okhmeta#Tag -->
<g id="edge5" class="edge">
<title>http://w3id.org/oseg/ont/okhmeta#MetaTag&#45;&gt;http://w3id.org/oseg/ont/okhmeta#Tag</title>
<path fill="none" stroke="black" d="M472.85,-863.93C472.84,-864.03 472.83,-864.14 472.82,-864.25"/>
<polygon fill="black" stroke="black" points="469.32,-864.36 472.64,-874.42 476.32,-864.49 469.32,-864.36"/>
<text text-anchor="middle" x="468.34" y="-867.89" font-family="Times,serif" font-size="14.00">a</text>
</g>
<!-- http://w3id.org/oseg/ont/okhmeta#MetaTag&#45;&gt;http://w3id.org/oseg/ont/okhmeta#MetaTag -->
<g id="edge23" class="edge">
<title>http://w3id.org/oseg/ont/okhmeta#MetaTag&#45;&gt;http://w3id.org/oseg/ont/okhmeta#MetaTag</title>
<path fill="none" stroke="black" d="M574.81,-853.64C589.97,-852.73 600.35,-850.66 600.35,-847.42 600.35,-844.97 594.39,-843.19 584.91,-842.07"/>
<polygon fill="black" stroke="black" points="585.08,-838.57 574.81,-841.21 584.48,-845.55 585.08,-838.57"/>
<text text-anchor="middle" x="677.35" y="-843.72" font-family="Times,serif" font-size="14.00">okhmeta:hasMetaTag</text>
</g>
<!-- http://w3id.org/oseg/ont/oseg&#45;profiles#Iopa -->
<g id="node7" class="node">
<title>http://w3id.org/oseg/ont/oseg&#45;profiles#Iopa</title>
<ellipse fill="none" stroke="#e377c2" cx="1209.45" cy="-484.92" rx="80.72" ry="16.03"/>
<text text-anchor="middle" x="1209.45" y="-481.22" font-family="Times,serif" font-size="14.00">osegprof:Iopa</text>
</g>
<!-- http://w3id.org/oseg/ont/okhmeta#DevelopmentTag -->
<g id="node8" class="node">
<title>http://w3id.org/oseg/ont/okhmeta#DevelopmentTag</title>
<ellipse fill="none" stroke="#e377c2" cx="131.36" cy="-808.87" rx="124.4" ry="16.03"/>
<text text-anchor="middle" x="131.36" y="-805.17" font-family="Times,serif" font-size="14.00">okhmeta:Developme...</text>
</g>
<!-- http://w3id.org/oseg/ont/okhmeta#DevelopmentTag&#45;&gt;http://w3id.org/oseg/ont/okhmeta#Tag -->
<g id="edge4" class="edge">
<title>http://w3id.org/oseg/ont/okhmeta#DevelopmentTag&#45;&gt;http://w3id.org/oseg/ont/okhmeta#Tag</title>
<path fill="none" stroke="black" d="M191.89,-823.14C255.19,-838.08 354.01,-861.39 417.58,-876.38"/>
<polygon fill="black" stroke="black" points="416.93,-879.83 427.46,-878.71 418.54,-873.01 416.93,-879.83"/>
<text text-anchor="middle" x="300.23" y="-853.56" font-family="Times,serif" font-size="14.00">a</text>
</g>
<!-- http://w3id.org/oseg/ont/okhmeta#DevelopmentTag&#45;&gt;http://w3id.org/oseg/ont/okhmeta#MetaTag -->
<g id="edge22" class="edge">
<title>http://w3id.org/oseg/ont/okhmeta#DevelopmentTag&#45;&gt;http://w3id.org/oseg/ont/okhmeta#MetaTag</title>
<path fill="none" stroke="black" d="M226.58,-819.4C276.07,-824.88 336.34,-831.55 385.67,-837"/>
<polygon fill="black" stroke="black" points="385.38,-840.49 395.71,-838.11 386.15,-833.54 385.38,-840.49"/>
<text text-anchor="middle" x="229.13" y="-832" font-family="Times,serif" font-size="14.00">okhmeta:hasMetaTag</text>
</g>
<!-- http://w3id.org/oseg/ont/1.1.0/okh&#45;meta -->
<g id="node9" class="node">
<title>http://w3id.org/oseg/ont/1.1.0/okh&#45;meta</title>
<ellipse fill="none" stroke="#e377c2" cx="958.42" cy="-341.47" rx="79.81" ry="16.03"/>
<text text-anchor="middle" x="958.42" y="-337.77" font-family="Times,serif" font-size="14.00">ns1:okh&#45;meta</text>
</g>
<!-- http://w3id.org/oseg/ont/okhmeta#BasicTag -->
<g id="node10" class="node">
<title>http://w3id.org/oseg/ont/okhmeta#BasicTag</title>
<ellipse fill="none" stroke="#e377c2" cx="765.7" cy="-738.02" rx="103.48" ry="16.03"/>
<text text-anchor="middle" x="765.7" y="-734.32" font-family="Times,serif" font-size="14.00">okhmeta:BasicTag</text>
</g>
<!-- http://w3id.org/oseg/ont/okhmeta#BasicTag&#45;&gt;http://w3id.org/oseg/ont/okhmeta#Tag -->
<g id="edge8" class="edge">
<title>http://w3id.org/oseg/ont/okhmeta#BasicTag&#45;&gt;http://w3id.org/oseg/ont/okhmeta#Tag</title>
<path fill="none" stroke="black" d="M736.34,-753.65C683.99,-781.54 574.58,-839.82 516.66,-870.67"/>
<polygon fill="black" stroke="black" points="514.67,-867.77 507.49,-875.56 517.96,-873.94 514.67,-867.77"/>
<text text-anchor="middle" x="622" y="-815.96" font-family="Times,serif" font-size="14.00">a</text>
</g>
<!-- http://w3id.org/oseg/ont/okhmeta#BasicTag&#45;&gt;http://w3id.org/oseg/ont/okhmeta#MetaTag -->
<g id="edge24" class="edge">
<title>http://w3id.org/oseg/ont/okhmeta#BasicTag&#45;&gt;http://w3id.org/oseg/ont/okhmeta#MetaTag</title>
<path fill="none" stroke="black" d="M726.25,-753.12C674.81,-772.8 584.83,-807.24 529,-828.6"/>
<polygon fill="black" stroke="black" points="527.41,-825.46 519.33,-832.3 529.92,-832 527.41,-825.46"/>
<text text-anchor="middle" x="550.62" y="-794.66" font-family="Times,serif" font-size="14.00">okhmeta:hasMetaTag</text>
</g>
<!-- http://w3id.org/oseg/ont/oseg&#45;profiles#robinVobruba -->
<g id="node11" class="node">
<title>http://w3id.org/oseg/ont/oseg&#45;profiles#robinVobruba</title>
<ellipse fill="none" stroke="#e377c2" cx="1026.36" cy="-429.7" rx="113.69" ry="16.03"/>
<text text-anchor="middle" x="1026.36" y="-426" font-family="Times,serif" font-size="14.00">osegprof:robinVob...</text>
</g>
<!-- http://w3id.org/oseg/ont/okhmeta#IdentificationTag -->
<g id="node12" class="node">
<title>http://w3id.org/oseg/ont/okhmeta#IdentificationTag</title>
<ellipse fill="none" stroke="#e377c2" cx="708.34" cy="-629.63" rx="109.7" ry="16.03"/>
<text text-anchor="middle" x="708.34" y="-625.93" font-family="Times,serif" font-size="14.00">okhmeta:Identific...</text>
</g>
<!-- http://w3id.org/oseg/ont/okhmeta#IdentificationTag&#45;&gt;http://w3id.org/oseg/ont/okhmeta#Tag -->
<g id="edge27" class="edge">
<title>http://w3id.org/oseg/ont/okhmeta#IdentificationTag&#45;&gt;http://w3id.org/oseg/ont/okhmeta#Tag</title>
<path fill="none" stroke="black" d="M693.98,-645.97C654.76,-690.6 545.68,-814.73 499.69,-867.07"/>
<polygon fill="black" stroke="black" points="496.84,-865.01 492.87,-874.83 502.1,-869.63 496.84,-865.01"/>
<text text-anchor="middle" x="592.34" y="-760.32" font-family="Times,serif" font-size="14.00">a</text>
</g>
<!-- http://w3id.org/oseg/ont/okhmeta#IdentificationTag&#45;&gt;http://w3id.org/oseg/ont/okhmeta#MetaTag -->
<g id="edge37" class="edge">
<title>http://w3id.org/oseg/ont/okhmeta#IdentificationTag&#45;&gt;http://w3id.org/oseg/ont/okhmeta#MetaTag</title>
<path fill="none" stroke="black" d="M691.16,-646C651.03,-684.25 550.99,-779.59 504.41,-823.99"/>
<polygon fill="black" stroke="black" points="501.71,-821.73 496.88,-831.16 506.54,-826.79 501.71,-821.73"/>
<text text-anchor="middle" x="520.79" y="-723.8" font-family="Times,serif" font-size="14.00">okhmeta:hasMetaTag</text>
</g>
<!-- http://spdx.org/licenses/GPL&#45;3.0&#45;or&#45;later -->
<g id="node13" class="node">
<title>http://spdx.org/licenses/GPL&#45;3.0&#45;or&#45;later</title>
<ellipse fill="none" stroke="#e377c2" cx="1188.45" cy="-300.63" rx="108.79" ry="16.03"/>
<text text-anchor="middle" x="1188.45" y="-296.93" font-family="Times,serif" font-size="14.00">spdxl:GPL&#45;3.0&#45;or&#45;...</text>
</g>
<!-- http://w3id.org/oseg/ont/okhmeta -->
<g id="node14" class="node">
<title>http://w3id.org/oseg/ont/okhmeta</title>
<ellipse fill="none" stroke="#e377c2" cx="1000.68" cy="-382.01" rx="76.24" ry="16.03"/>
<text text-anchor="middle" x="1000.68" y="-378.31" font-family="Times,serif" font-size="14.00">ns2:okhmeta</text>
</g>
<!-- http://w3id.org/oseg/ont/okhmeta&#45;&gt;http://spdx.org/rdf/terms#SpdxItem -->
<g id="edge29" class="edge">
<title>http://w3id.org/oseg/ont/okhmeta&#45;&gt;http://spdx.org/rdf/terms#SpdxItem</title>
<path fill="none" stroke="black" d="M968.39,-396.86C935.89,-411.79 885.62,-434.91 849.98,-451.29"/>
<polygon fill="black" stroke="black" points="848.42,-448.15 840.8,-455.51 851.35,-454.51 848.42,-448.15"/>
<text text-anchor="middle" x="904.68" y="-427.87" font-family="Times,serif" font-size="14.00">a</text>
</g>
<!-- http://w3id.org/oseg/ont/okhmeta&#45;&gt;http://w3id.org/oseg/ont/oseg&#45;profiles#Iopa -->
<g id="edge3" class="edge">
<title>http://w3id.org/oseg/ont/okhmeta&#45;&gt;http://w3id.org/oseg/ont/oseg&#45;profiles#Iopa</title>
<path fill="none" stroke="black" d="M1031.04,-396.97C1067.65,-415.02 1129.31,-445.41 1169.69,-465.32"/>
<polygon fill="black" stroke="black" points="1168.2,-468.49 1178.72,-469.77 1171.3,-462.21 1168.2,-468.49"/>
<text text-anchor="middle" x="1165.86" y="-434.95" font-family="Times,serif" font-size="14.00">dcterms:publisher</text>
</g>
<!-- http://w3id.org/oseg/ont/okhmeta&#45;&gt;http://w3id.org/oseg/ont/1.1.0/okh&#45;meta -->
<g id="edge6" class="edge">
<title>http://w3id.org/oseg/ont/okhmeta&#45;&gt;http://w3id.org/oseg/ont/1.1.0/okh&#45;meta</title>
<path fill="none" stroke="black" d="M983.98,-365.99C983.53,-365.56 983.08,-365.13 982.63,-364.7"/>
<polygon fill="black" stroke="black" points="984.92,-362.04 975.28,-357.65 980.07,-367.09 984.92,-362.04"/>
<text text-anchor="middle" x="1034.8" y="-354.14" font-family="Times,serif" font-size="14.00">owl:versionIRI</text>
</g>
<!-- http://w3id.org/oseg/ont/okhmeta&#45;&gt;http://w3id.org/oseg/ont/oseg&#45;profiles#robinVobruba -->
<g id="edge14" class="edge">
<title>http://w3id.org/oseg/ont/okhmeta&#45;&gt;http://w3id.org/oseg/ont/oseg&#45;profiles#robinVobruba</title>
<path fill="none" stroke="black" d="M1002.55,-398.47C1003.36,-400.45 1004.28,-402.52 1005.29,-404.59"/>
<polygon fill="black" stroke="black" points="1002.31,-406.44 1010.14,-413.58 1008.47,-403.11 1002.31,-406.44"/>
<text text-anchor="middle" x="946.42" y="-405.33" font-family="Times,serif" font-size="14.00">dcterms:creator</text>
</g>
<!-- http://w3id.org/oseg/ont/okhmeta&#45;&gt;http://w3id.org/oseg/ont/oseg&#45;profiles#robinVobruba -->
<g id="edge26" class="edge">
<title>http://w3id.org/oseg/ont/okhmeta&#45;&gt;http://w3id.org/oseg/ont/oseg&#45;profiles#robinVobruba</title>
<path fill="none" stroke="black" d="M1016.82,-397.99C1018.02,-400 1019.19,-402.1 1020.29,-404.21"/>
<polygon fill="black" stroke="black" points="1017.16,-405.78 1024.54,-413.38 1023.51,-402.83 1017.16,-405.78"/>
<text text-anchor="middle" x="1074.05" y="-404.9" font-family="Times,serif" font-size="14.00">schema:creator</text>
</g>
<!-- http://w3id.org/oseg/ont/okhmeta&#45;&gt;http://spdx.org/licenses/GPL&#45;3.0&#45;or&#45;later -->
<g id="edge28" class="edge">
<title>http://w3id.org/oseg/ont/okhmeta&#45;&gt;http://spdx.org/licenses/GPL&#45;3.0&#45;or&#45;later</title>
<path fill="none" stroke="black" d="M1034.68,-367.27C1065.08,-354.1 1109.85,-334.7 1143.25,-320.22"/>
<polygon fill="black" stroke="black" points="1145,-323.28 1152.78,-316.09 1142.21,-316.86 1145,-323.28"/>
<text text-anchor="middle" x="1164.97" y="-347.55" font-family="Times,serif" font-size="14.00">spdx:licenseDeclared</text>
</g>
<!-- http://id.loc.gov/vocabulary/iso639&#45;1/en -->
<g id="node25" class="node">
<title>http://id.loc.gov/vocabulary/iso639&#45;1/en</title>
<ellipse fill="none" stroke="#e377c2" cx="835.76" cy="-285.91" rx="45.01" ry="16.03"/>
<text text-anchor="middle" x="835.76" y="-282.21" font-family="Times,serif" font-size="14.00">ns3:en</text>
</g>
<!-- http://w3id.org/oseg/ont/okhmeta&#45;&gt;http://id.loc.gov/vocabulary/iso639&#45;1/en -->
<g id="edge18" class="edge">
<title>http://w3id.org/oseg/ont/okhmeta&#45;&gt;http://id.loc.gov/vocabulary/iso639&#45;1/en</title>
<path fill="none" stroke="black" d="M974.18,-366.57C945.34,-349.76 899.21,-322.88 868.22,-304.82"/>
<polygon fill="black" stroke="black" points="869.92,-301.76 859.52,-299.75 866.4,-307.81 869.92,-301.76"/>
<text text-anchor="middle" x="856.7" y="-324.5" font-family="Times,serif" font-size="14.00">dcterms:language</text>
</g>
<!-- http://w3id.org/oseg/ont/okhmeta#PhysicalTag -->
<g id="node15" class="node">
<title>http://w3id.org/oseg/ont/okhmeta#PhysicalTag</title>
<ellipse fill="none" stroke="#e377c2" cx="184.04" cy="-702.81" rx="118.17" ry="16.03"/>
<text text-anchor="middle" x="184.04" y="-699.11" font-family="Times,serif" font-size="14.00">okhmeta:PhysicalTag</text>
</g>
<!-- http://w3id.org/oseg/ont/okhmeta#PhysicalTag&#45;&gt;http://w3id.org/oseg/ont/okhmeta#Tag -->
<g id="edge30" class="edge">
<title>http://w3id.org/oseg/ont/okhmeta#PhysicalTag&#45;&gt;http://w3id.org/oseg/ont/okhmeta#Tag</title>
<path fill="none" stroke="black" d="M209.18,-718.84C262.41,-752.79 386.52,-831.96 445.95,-869.87"/>
<polygon fill="black" stroke="black" points="444.26,-872.94 454.57,-875.37 448.02,-867.04 444.26,-872.94"/>
<text text-anchor="middle" x="323.06" y="-798.15" font-family="Times,serif" font-size="14.00">a</text>
</g>
<!-- http://w3id.org/oseg/ont/okhmeta#PhysicalTag&#45;&gt;http://w3id.org/oseg/ont/okhmeta#MetaTag -->
<g id="edge38" class="edge">
<title>http://w3id.org/oseg/ont/okhmeta#PhysicalTag&#45;&gt;http://w3id.org/oseg/ont/okhmeta#MetaTag</title>
<path fill="none" stroke="black" d="M216.26,-718.56C270.41,-745.03 379.56,-798.4 439,-827.46"/>
<polygon fill="black" stroke="black" points="437.57,-830.66 448.09,-831.91 440.65,-824.37 437.57,-830.66"/>
<text text-anchor="middle" x="250.63" y="-776.81" font-family="Times,serif" font-size="14.00">okhmeta:hasMetaTag</text>
</g>
<!-- http://w3id.org/oseg/ont/okhmeta#AcademicTag -->
<g id="node16" class="node">
<title>http://w3id.org/oseg/ont/okhmeta#AcademicTag</title>
<ellipse fill="none" stroke="#e377c2" cx="124.27" cy="-934.27" rx="124.4" ry="16.03"/>
<text text-anchor="middle" x="124.27" y="-930.57" font-family="Times,serif" font-size="14.00">okhmeta:AcademicTag</text>
</g>
<!-- http://w3id.org/oseg/ont/okhmeta#AcademicTag&#45;&gt;http://w3id.org/oseg/ont/okhmeta#Tag -->
<g id="edge10" class="edge">
<title>http://w3id.org/oseg/ont/okhmeta#AcademicTag&#45;&gt;http://w3id.org/oseg/ont/okhmeta#Tag</title>
<path fill="none" stroke="black" d="M215.12,-923.14C273.16,-916.03 347.56,-906.91 402.53,-900.17"/>
<polygon fill="black" stroke="black" points="403.06,-903.64 412.56,-898.95 402.21,-896.69 403.06,-903.64"/>
<text text-anchor="middle" x="304.32" y="-915.46" font-family="Times,serif" font-size="14.00">a</text>
</g>
<!-- http://w3id.org/oseg/ont/okhmeta#AcademicTag&#45;&gt;http://w3id.org/oseg/ont/okhmeta#MetaTag -->
<g id="edge25" class="edge">
<title>http://w3id.org/oseg/ont/okhmeta#AcademicTag&#45;&gt;http://w3id.org/oseg/ont/okhmeta#MetaTag</title>
<path fill="none" stroke="black" d="M182.98,-919.93C246.58,-904.39 347.81,-879.67 414.04,-863.49"/>
<polygon fill="black" stroke="black" points="415.07,-866.84 423.96,-861.07 413.41,-860.04 415.07,-866.84"/>
<text text-anchor="middle" x="221.51" y="-895.51" font-family="Times,serif" font-size="14.00">okhmeta:hasMetaTag</text>
</g>
<!-- http://w3id.org/oseg/ont/okhmeta#HistoryTag -->
<g id="node17" class="node">
<title>http://w3id.org/oseg/ont/okhmeta#HistoryTag</title>
<ellipse fill="none" stroke="#e377c2" cx="246.76" cy="-621.02" rx="113.69" ry="16.03"/>
<text text-anchor="middle" x="246.76" y="-617.32" font-family="Times,serif" font-size="14.00">okhmeta:HistoryTag</text>
</g>
<!-- http://w3id.org/oseg/ont/okhmeta#HistoryTag&#45;&gt;http://w3id.org/oseg/ont/okhmeta#Tag -->
<g id="edge32" class="edge">
<title>http://w3id.org/oseg/ont/okhmeta#HistoryTag&#45;&gt;http://w3id.org/oseg/ont/okhmeta#Tag</title>
<path fill="none" stroke="black" d="M260.93,-637.49C300.43,-683.42 411.91,-813.04 458.23,-866.9"/>
<polygon fill="black" stroke="black" points="455.66,-869.27 464.83,-874.57 460.97,-864.71 455.66,-869.27"/>
<text text-anchor="middle" x="355.08" y="-755.99" font-family="Times,serif" font-size="14.00">a</text>
</g>
<!-- http://w3id.org/oseg/ont/okhmeta#HistoryTag&#45;&gt;http://w3id.org/oseg/ont/okhmeta#MetaTag -->
<g id="edge43" class="edge">
<title>http://w3id.org/oseg/ont/okhmeta#HistoryTag&#45;&gt;http://w3id.org/oseg/ont/okhmeta#MetaTag</title>
<path fill="none" stroke="black" d="M263.52,-637.3C304.26,-676.87 408.57,-778.2 455.86,-824.15"/>
<polygon fill="black" stroke="black" points="453.6,-826.83 463.21,-831.29 458.48,-821.81 453.6,-826.83"/>
<text text-anchor="middle" x="282.69" y="-734.53" font-family="Times,serif" font-size="14.00">okhmeta:hasMetaTag</text>
</g>
<!-- http://w3id.org/oseg/ont/okhmeta#DataGatheringTag -->
<g id="node18" class="node">
<title>http://w3id.org/oseg/ont/okhmeta#DataGatheringTag</title>
<ellipse fill="none" stroke="#e377c2" cx="207.14" cy="-1104.7" rx="122.16" ry="16.03"/>
<text text-anchor="middle" x="207.14" y="-1101" font-family="Times,serif" font-size="14.00">okhmeta:DataGathe...</text>
</g>
<!-- http://w3id.org/oseg/ont/okhmeta#DataGatheringTag&#45;&gt;http://w3id.org/oseg/ont/okhmeta#Tag -->
<g id="edge33" class="edge">
<title>http://w3id.org/oseg/ont/okhmeta#DataGatheringTag&#45;&gt;http://w3id.org/oseg/ont/okhmeta#Tag</title>
<path fill="none" stroke="black" d="M227.56,-1088.63C275.57,-1050.84 395.68,-956.28 450.6,-913.04"/>
<polygon fill="black" stroke="black" points="452.83,-915.73 458.53,-906.8 448.5,-910.23 452.83,-915.73"/>
<text text-anchor="middle" x="334.58" y="-1004.63" font-family="Times,serif" font-size="14.00">a</text>
</g>
<!-- http://w3id.org/oseg/ont/okhmeta#DataGatheringTag&#45;&gt;http://w3id.org/oseg/ont/okhmeta#MetaTag -->
<g id="edge7" class="edge">
<title>http://w3id.org/oseg/ont/okhmeta#DataGatheringTag&#45;&gt;http://w3id.org/oseg/ont/okhmeta#MetaTag</title>
<path fill="none" stroke="black" d="M224.61,-1088.22C271.56,-1043.93 400.54,-922.23 455.02,-870.83"/>
<polygon fill="black" stroke="black" points="457.62,-873.18 462.49,-863.77 452.82,-868.09 457.62,-873.18"/>
<text text-anchor="middle" x="262.81" y="-968.32" font-family="Times,serif" font-size="14.00">okhmeta:hasMetaTag</text>
</g>
<!-- http://w3id.org/oseg/ont/okhmeta#MakingTag -->
<g id="node19" class="node">
<title>http://w3id.org/oseg/ont/okhmeta#MakingTag</title>
<ellipse fill="none" stroke="#e377c2" cx="759.09" cy="-1117.66" rx="113.69" ry="16.03"/>
<text text-anchor="middle" x="759.09" y="-1113.96" font-family="Times,serif" font-size="14.00">okhmeta:MakingTag</text>
</g>
<!-- http://w3id.org/oseg/ont/okhmeta#MakingTag&#45;&gt;http://w3id.org/oseg/ont/okhmeta#Tag -->
<g id="edge11" class="edge">
<title>http://w3id.org/oseg/ont/okhmeta#MakingTag&#45;&gt;http://w3id.org/oseg/ont/okhmeta#Tag</title>
<path fill="none" stroke="black" d="M738.94,-1101.35C689.63,-1061.44 562.85,-958.84 506.51,-913.25"/>
<polygon fill="black" stroke="black" points="508.39,-910.26 498.41,-906.69 503.99,-915.7 508.39,-910.26"/>
<text text-anchor="middle" x="618.23" y="-1011.1" font-family="Times,serif" font-size="14.00">a</text>
</g>
<!-- http://w3id.org/oseg/ont/okhmeta#MakingTag&#45;&gt;http://w3id.org/oseg/ont/okhmeta#MetaTag -->
<g id="edge17" class="edge">
<title>http://w3id.org/oseg/ont/okhmeta#MakingTag&#45;&gt;http://w3id.org/oseg/ont/okhmeta#MetaTag</title>
<path fill="none" stroke="black" d="M742.46,-1101.57C695.13,-1055.77 559.57,-924.59 504.01,-870.83"/>
<polygon fill="black" stroke="black" points="506.34,-868.21 496.72,-863.77 501.47,-873.24 506.34,-868.21"/>
<text text-anchor="middle" x="546.24" y="-990" font-family="Times,serif" font-size="14.00">okhmeta:hasMetaTag</text>
</g>
<!-- http://w3id.org/oseg/ont/okhmeta#TransportationTag -->
<g id="node20" class="node">
<title>http://w3id.org/oseg/ont/okhmeta#TransportationTag</title>
<ellipse fill="none" stroke="#e377c2" cx="749.42" cy="-1045.51" rx="118.17" ry="16.03"/>
<text text-anchor="middle" x="749.42" y="-1041.81" font-family="Times,serif" font-size="14.00">okhmeta:Transport...</text>
</g>
<!-- http://w3id.org/oseg/ont/okhmeta#TransportationTag&#45;&gt;http://w3id.org/oseg/ont/okhmeta#Tag -->
<g id="edge12" class="edge">
<title>http://w3id.org/oseg/ont/okhmeta#TransportationTag&#45;&gt;http://w3id.org/oseg/ont/okhmeta#Tag</title>
<path fill="none" stroke="black" d="M721.73,-1029.68C672.45,-1001.51 569.57,-942.71 514.85,-911.43"/>
<polygon fill="black" stroke="black" points="516.28,-908.21 505.86,-906.29 512.8,-914.29 516.28,-908.21"/>
<text text-anchor="middle" x="613.79" y="-974.35" font-family="Times,serif" font-size="14.00">a</text>
</g>
<!-- http://w3id.org/oseg/ont/okhmeta#TransportationTag&#45;&gt;http://w3id.org/oseg/ont/okhmeta#MetaTag -->
<g id="edge9" class="edge">
<title>http://w3id.org/oseg/ont/okhmeta#TransportationTag&#45;&gt;http://w3id.org/oseg/ont/okhmeta#MetaTag</title>
<path fill="none" stroke="black" d="M727.35,-1029.3C679.25,-993.95 564.85,-909.9 510.07,-869.65"/>
<polygon fill="black" stroke="black" points="511.94,-866.68 501.81,-863.58 507.8,-872.32 511.94,-866.68"/>
<text text-anchor="middle" x="541.71" y="-953.27" font-family="Times,serif" font-size="14.00">okhmeta:hasMetaTag</text>
</g>
<!-- http://w3id.org/oseg/ont/okhmeta#LegalTag -->
<g id="node21" class="node">
<title>http://w3id.org/oseg/ont/okhmeta#LegalTag</title>
<ellipse fill="none" stroke="#e377c2" cx="786.19" cy="-940.46" rx="103.89" ry="16.03"/>
<text text-anchor="middle" x="786.19" y="-936.76" font-family="Times,serif" font-size="14.00">okhmeta:LegalTag</text>
</g>
<!-- http://w3id.org/oseg/ont/okhmeta#LegalTag&#45;&gt;http://w3id.org/oseg/ont/okhmeta#Tag -->
<g id="edge36" class="edge">
<title>http://w3id.org/oseg/ont/okhmeta#LegalTag&#45;&gt;http://w3id.org/oseg/ont/okhmeta#Tag</title>
<path fill="none" stroke="black" d="M713.74,-928.76C664.25,-920.77 599.01,-910.24 549.83,-902.3"/>
<polygon fill="black" stroke="black" points="550.34,-898.83 539.91,-900.69 549.22,-905.74 550.34,-898.83"/>
<text text-anchor="middle" x="627.28" y="-919.33" font-family="Times,serif" font-size="14.00">a</text>
</g>
<!-- http://w3id.org/oseg/ont/okhmeta#LegalTag&#45;&gt;http://w3id.org/oseg/ont/okhmeta#MetaTag -->
<g id="edge31" class="edge">
<title>http://w3id.org/oseg/ont/okhmeta#LegalTag&#45;&gt;http://w3id.org/oseg/ont/okhmeta#MetaTag</title>
<path fill="none" stroke="black" d="M738.32,-925.93C683.91,-909.4 595.15,-882.45 537.11,-864.82"/>
<polygon fill="black" stroke="black" points="537.94,-861.41 527.36,-861.86 535.91,-868.11 537.94,-861.41"/>
<text text-anchor="middle" x="714.72" y="-899.17" font-family="Times,serif" font-size="14.00">okhmeta:hasMetaTag</text>
</g>
<!-- http://w3id.org/oseg/ont/okhmeta#hasMetaTag -->
<g id="node22" class="node">
<title>http://w3id.org/oseg/ont/okhmeta#hasMetaTag</title>
<ellipse fill="none" stroke="#e377c2" cx="501.83" cy="-385.46" rx="120.42" ry="16.03"/>
<text text-anchor="middle" x="501.83" y="-381.76" font-family="Times,serif" font-size="14.00">okhmeta:hasMetaTag</text>
</g>
<!-- http://w3id.org/oseg/ont/okhmeta#hasMetaTag&#45;&gt;http://www.w3.org/2004/02/skos/core#Concept -->
<g id="edge41" class="edge">
<title>http://w3id.org/oseg/ont/okhmeta#hasMetaTag&#45;&gt;http://www.w3.org/2004/02/skos/core#Concept</title>
<path fill="none" stroke="black" d="M494.26,-401.84C478.76,-435.37 443.31,-512.04 424.78,-552.11"/>
<polygon fill="black" stroke="black" points="421.59,-550.69 420.57,-561.24 427.94,-553.63 421.59,-550.69"/>
<text text-anchor="middle" x="455.02" y="-480.78" font-family="Times,serif" font-size="14.00">a</text>
</g>
<!-- http://w3id.org/oseg/ont/okhmeta#hasMetaTag&#45;&gt;http://w3id.org/oseg/ont/okhmeta#MetaTag -->
<g id="edge2" class="edge">
<title>http://w3id.org/oseg/ont/okhmeta#hasMetaTag&#45;&gt;http://w3id.org/oseg/ont/okhmeta#MetaTag</title>
<path fill="none" stroke="black" d="M498.34,-401.78C489.9,-470.36 477.05,-735.7 477.73,-820.91"/>
<polygon fill="black" stroke="black" points="474.23,-821.11 477.9,-831.05 481.23,-820.99 474.23,-821.11"/>
<text text-anchor="middle" x="415.54" y="-600.15" font-family="Times,serif" font-size="14.00">dcam:rangeIncludes</text>
</g>
<!-- http://w3id.org/oseg/ont/okhmeta#hasMetaTag&#45;&gt;http://w3id.org/oseg/ont/okhmeta#MetaTag -->
<g id="edge20" class="edge">
<title>http://w3id.org/oseg/ont/okhmeta#hasMetaTag&#45;&gt;http://w3id.org/oseg/ont/okhmeta#MetaTag</title>
<path fill="none" stroke="black" d="M503.75,-401.76C505.66,-470.24 493.28,-735.06 484.49,-820.61"/>
<polygon fill="black" stroke="black" points="480.98,-820.46 483.35,-830.79 487.94,-821.24 480.98,-820.46"/>
<text text-anchor="middle" x="417.12" y="-614.98" font-family="Times,serif" font-size="14.00">okhmeta:hasMetaTag</text>
</g>
<!-- http://www.w3.org/2004/02/skos/core#member -->
<g id="node27" class="node">
<title>http://www.w3.org/2004/02/skos/core#member</title>
<ellipse fill="none" stroke="#e377c2" cx="522.41" cy="-16.58" rx="79.39" ry="16.03"/>
<text text-anchor="middle" x="522.41" y="-12.88" font-family="Times,serif" font-size="14.00">skos:member</text>
</g>
<!-- http://w3id.org/oseg/ont/okhmeta#hasMetaTag&#45;&gt;http://www.w3.org/2004/02/skos/core#member -->
<g id="edge19" class="edge">
<title>http://w3id.org/oseg/ont/okhmeta#hasMetaTag&#45;&gt;http://www.w3.org/2004/02/skos/core#member</title>
<path fill="none" stroke="black" d="M502.74,-369.14C505.98,-311.18 516.92,-114.96 520.93,-43.18"/>
<polygon fill="black" stroke="black" points="524.42,-43.32 521.49,-33.14 517.44,-42.93 524.42,-43.32"/>
<text text-anchor="middle" x="458.84" y="-209.96" font-family="Times,serif" font-size="14.00">subPropertyOf</text>
</g>
<!-- http://w3id.org/oseg/ont/okhmeta#DocumentationTag -->
<g id="node23" class="node">
<title>http://w3id.org/oseg/ont/okhmeta#DocumentationTag</title>
<ellipse fill="none" stroke="#e377c2" cx="840.33" cy="-835.5" rx="125.32" ry="16.03"/>
<text text-anchor="middle" x="840.33" y="-831.8" font-family="Times,serif" font-size="14.00">okhmeta:Documenta...</text>
</g>
<!-- http://w3id.org/oseg/ont/okhmeta#DocumentationTag&#45;&gt;http://w3id.org/oseg/ont/okhmeta#Tag -->
<g id="edge40" class="edge">
<title>http://w3id.org/oseg/ont/okhmeta#DocumentationTag&#45;&gt;http://w3id.org/oseg/ont/okhmeta#Tag</title>
<path fill="none" stroke="black" d="M759.2,-847.92C696.72,-857.48 611.14,-870.58 551.01,-879.78"/>
<polygon fill="black" stroke="black" points="550.2,-876.36 540.84,-881.33 551.26,-883.28 550.2,-876.36"/>
<text text-anchor="middle" x="650.61" y="-867.65" font-family="Times,serif" font-size="14.00">a</text>
</g>
<!-- http://w3id.org/oseg/ont/okhmeta#DocumentationTag&#45;&gt;http://w3id.org/oseg/ont/okhmeta#MetaTag -->
<g id="edge13" class="edge">
<title>http://w3id.org/oseg/ont/okhmeta#DocumentationTag&#45;&gt;http://w3id.org/oseg/ont/okhmeta#MetaTag</title>
<path fill="none" stroke="black" d="M719.03,-839.51C677.47,-840.89 631.2,-842.42 590.52,-843.76"/>
<polygon fill="black" stroke="black" points="590.18,-840.27 580.3,-844.1 590.41,-847.27 590.18,-840.27"/>
<text text-anchor="middle" x="654.78" y="-830.44" font-family="Times,serif" font-size="14.00">okhmeta:hasMetaTag</text>
</g>
<!-- http://w3id.org/oseg/ont/okhmeta#ExtendedInfoTag -->
<g id="node24" class="node">
<title>http://w3id.org/oseg/ont/okhmeta#ExtendedInfoTag</title>
<ellipse fill="none" stroke="#e377c2" cx="281.89" cy="-1168.25" rx="120.42" ry="16.03"/>
<text text-anchor="middle" x="281.89" y="-1164.55" font-family="Times,serif" font-size="14.00">okhmeta:ExtendedI...</text>
</g>
<!-- http://w3id.org/oseg/ont/okhmeta#ExtendedInfoTag&#45;&gt;http://w3id.org/oseg/ont/okhmeta#Tag -->
<g id="edge42" class="edge">
<title>http://w3id.org/oseg/ont/okhmeta#ExtendedInfoTag&#45;&gt;http://w3id.org/oseg/ont/okhmeta#Tag</title>
<path fill="none" stroke="black" d="M293.62,-1151.73C326.94,-1104.78 422.31,-970.43 461.59,-915.09"/>
<polygon fill="black" stroke="black" points="464.46,-917.1 467.39,-906.92 458.75,-913.05 464.46,-917.1"/>
<text text-anchor="middle" x="373.1" y="-1037.21" font-family="Times,serif" font-size="14.00">a</text>
</g>
<!-- http://w3id.org/oseg/ont/okhmeta#ExtendedInfoTag&#45;&gt;http://w3id.org/oseg/ont/okhmeta#MetaTag -->
<g id="edge1" class="edge">
<title>http://w3id.org/oseg/ont/okhmeta#ExtendedInfoTag&#45;&gt;http://w3id.org/oseg/ont/okhmeta#MetaTag</title>
<path fill="none" stroke="black" d="M291.98,-1151.9C324.34,-1099.45 425.69,-935.16 464.5,-872.26"/>
<polygon fill="black" stroke="black" points="467.48,-874.09 469.75,-863.74 461.52,-870.41 467.48,-874.09"/>
<text text-anchor="middle" x="455.24" y="-1015.88" font-family="Times,serif" font-size="14.00">okhmeta:hasMetaTag</text>
</g>
<!-- http://w3id.org/oseg/ont/okhmeta#QualityTag -->
<g id="node26" class="node">
<title>http://w3id.org/oseg/ont/okhmeta#QualityTag</title>
<ellipse fill="none" stroke="#e377c2" cx="534.17" cy="-1164.15" rx="113.27" ry="16.03"/>
<text text-anchor="middle" x="534.17" y="-1160.45" font-family="Times,serif" font-size="14.00">okhmeta:QualityTag</text>
</g>
<!-- http://w3id.org/oseg/ont/okhmeta#QualityTag&#45;&gt;http://w3id.org/oseg/ont/okhmeta#Tag -->
<g id="edge45" class="edge">
<title>http://w3id.org/oseg/ont/okhmeta#QualityTag&#45;&gt;http://w3id.org/oseg/ont/okhmeta#Tag</title>
<path fill="none" stroke="black" d="M530.87,-1147.87C521.64,-1102.31 495.49,-973.19 484.16,-917.23"/>
<polygon fill="black" stroke="black" points="487.58,-916.47 482.16,-907.37 480.72,-917.86 487.58,-916.47"/>
<text text-anchor="middle" x="503.01" y="-1036.35" font-family="Times,serif" font-size="14.00">a</text>
</g>
<!-- http://w3id.org/oseg/ont/okhmeta#QualityTag&#45;&gt;http://w3id.org/oseg/ont/okhmeta#MetaTag -->
<g id="edge15" class="edge">
<title>http://w3id.org/oseg/ont/okhmeta#QualityTag&#45;&gt;http://w3id.org/oseg/ont/okhmeta#MetaTag</title>
<path fill="none" stroke="black" d="M531.32,-1147.57C522.44,-1095.83 495.2,-937.06 484.35,-873.82"/>
<polygon fill="black" stroke="black" points="487.78,-873.1 482.64,-863.84 480.88,-874.29 487.78,-873.1"/>
<text text-anchor="middle" x="430.84" y="-999.49" font-family="Times,serif" font-size="14.00">okhmeta:hasMetaTag</text>
</g>
<!-- http://w3id.org/oseg/ont/okhmeta#PartsTag -->
<g id="node28" class="node">
<title>http://w3id.org/oseg/ont/okhmeta#PartsTag</title>
<ellipse fill="none" stroke="#e377c2" cx="470.97" cy="-1210.02" rx="103.48" ry="16.03"/>
<text text-anchor="middle" x="470.97" y="-1206.32" font-family="Times,serif" font-size="14.00">okhmeta:PartsTag</text>
</g>
<!-- http://w3id.org/oseg/ont/okhmeta#PartsTag&#45;&gt;http://w3id.org/oseg/ont/okhmeta#Tag -->
<g id="edge46" class="edge">
<title>http://w3id.org/oseg/ont/okhmeta#PartsTag&#45;&gt;http://w3id.org/oseg/ont/okhmeta#Tag</title>
<path fill="none" stroke="black" d="M471.37,-1193.75C472.64,-1142.11 476.59,-981.53 478.16,-917.54"/>
<polygon fill="black" stroke="black" points="481.66,-917.53 478.41,-907.45 474.66,-917.36 481.66,-917.53"/>
<text text-anchor="middle" x="470.27" y="-1059.45" font-family="Times,serif" font-size="14.00">a</text>
</g>
<!-- http://w3id.org/oseg/ont/okhmeta#PartsTag&#45;&gt;http://w3id.org/oseg/ont/okhmeta#MetaTag -->
<g id="edge16" class="edge">
<title>http://w3id.org/oseg/ont/okhmeta#PartsTag&#45;&gt;http://w3id.org/oseg/ont/okhmeta#MetaTag</title>
<path fill="none" stroke="black" d="M471.38,-1193.5C472.78,-1136.16 477.43,-945.4 479.16,-874.37"/>
<polygon fill="black" stroke="black" points="482.67,-874.12 479.42,-864.04 475.67,-873.95 482.67,-874.12"/>
<text text-anchor="middle" x="552.27" y="-1037.73" font-family="Times,serif" font-size="14.00">okhmeta:hasMetaTag</text>
</g>
</g>
</svg>
