<?xml version="1.0" encoding="UTF-8" standalone="no"?>
<!DOCTYPE svg PUBLIC "-//W3C//DTD SVG 1.1//EN"
 "http://www.w3.org/Graphics/SVG/1.1/DTD/svg11.dtd">
<!-- Generated by graphviz version 2.43.0 (0)
 -->
<!-- Title: G Pages: 1 -->
<svg width="1837pt" height="1352pt"
 viewBox="0.00 0.00 1837.00 1352.00" xmlns="http://www.w3.org/2000/svg" xmlns:xlink="http://www.w3.org/1999/xlink">
<g id="graph0" class="graph" transform="scale(1 1) rotate(0) translate(4 1348)">
<title>G</title>
<polygon fill="white" stroke="transparent" points="-4,4 -4,-1348 1833,-1348 1833,4 -4,4"/>
<!-- http://www.w3.org/2004/02/skos/core#Concept -->
<g id="node1" class="node">
<title>http://www.w3.org/2004/02/skos/core#Concept</title>
<ellipse fill="none" stroke="#1f77b4" cx="577.91" cy="-423.88" rx="78.48" ry="16.03"/>
<text text-anchor="middle" x="577.91" y="-420.18" font-family="Times,serif" font-size="14.00">skos:Concept</text>
</g>
<!-- http://spdx.org/rdf/terms#SpdxItem -->
<g id="node2" class="node">
<title>http://spdx.org/rdf/terms#SpdxItem</title>
<ellipse fill="none" stroke="#1f77b4" cx="1325.6" cy="-1056.14" rx="87.86" ry="16.03"/>
<text text-anchor="middle" x="1325.6" y="-1052.44" font-family="Times,serif" font-size="14.00">spdx:SpdxItem</text>
</g>
<!-- http://w3id.org/oseg/ont/okhmeta#Tag -->
<g id="node3" class="node">
<title>http://w3id.org/oseg/ont/okhmeta#Tag</title>
<ellipse fill="none" stroke="#e377c2" cx="793.14" cy="-661.35" rx="76.24" ry="16.03"/>
<text text-anchor="middle" x="793.14" y="-657.65" font-family="Times,serif" font-size="14.00">okhmeta:Tag</text>
</g>
<!-- http://w3id.org/oseg/ont/okhmeta#Tag&#45;&gt;http://www.w3.org/2004/02/skos/core#Concept -->
<g id="edge17" class="edge">
<title>http://w3id.org/oseg/ont/okhmeta#Tag&#45;&gt;http://www.w3.org/2004/02/skos/core#Concept</title>
<path fill="none" stroke="black" d="M778.34,-645.03C741.01,-603.83 642.84,-495.52 599.27,-447.45"/>
<polygon fill="black" stroke="black" points="601.83,-445.06 592.52,-440 596.64,-449.76 601.83,-445.06"/>
<text text-anchor="middle" x="684.31" y="-550.04" font-family="Times,serif" font-size="14.00">a</text>
</g>
<!-- http://www.w3.org/2004/02/skos/core#Collection -->
<g id="node4" class="node">
<title>http://www.w3.org/2004/02/skos/core#Collection</title>
<ellipse fill="none" stroke="#e377c2" cx="457.88" cy="-532.56" rx="87.86" ry="16.03"/>
<text text-anchor="middle" x="457.88" y="-528.86" font-family="Times,serif" font-size="14.00">skos:Collection</text>
</g>
<!-- http://w3id.org/oseg/ont/okhmeta#Tag&#45;&gt;http://www.w3.org/2004/02/skos/core#Collection -->
<g id="edge1" class="edge">
<title>http://w3id.org/oseg/ont/okhmeta#Tag&#45;&gt;http://www.w3.org/2004/02/skos/core#Collection</title>
<path fill="none" stroke="black" d="M755.98,-647.07C694.88,-623.6 573.26,-576.89 505.78,-550.96"/>
<polygon fill="black" stroke="black" points="506.82,-547.61 496.23,-547.29 504.31,-554.15 506.82,-547.61"/>
</g>
<!-- http://w3id.org/oseg/ont/okhmeta#MetaTag -->
<g id="node5" class="node">
<title>http://w3id.org/oseg/ont/okhmeta#MetaTag</title>
<ellipse fill="none" stroke="#e377c2" cx="757.87" cy="-618.47" rx="102.56" ry="16.03"/>
<text text-anchor="middle" x="757.87" y="-614.77" font-family="Times,serif" font-size="14.00">okhmeta:MetaTag</text>
</g>
<!-- http://w3id.org/oseg/ont/okhmeta#Tag&#45;&gt;http://w3id.org/oseg/ont/okhmeta#MetaTag -->
<g id="edge7" class="edge">
<title>http://w3id.org/oseg/ont/okhmeta#Tag&#45;&gt;http://w3id.org/oseg/ont/okhmeta#MetaTag</title>
<path fill="none" stroke="black" d="M787.55,-644.77C787.05,-644.02 786.53,-643.26 785.99,-642.5"/>
<polygon fill="black" stroke="black" points="788.58,-640.13 779.68,-634.37 783.05,-644.42 788.58,-640.13"/>
<text text-anchor="middle" x="863.77" y="-632.44" font-family="Times,serif" font-size="14.00">okhmeta:hasMetaTag</text>
</g>
<!-- http://w3id.org/oseg/ont/okhmeta#MetaTag&#45;&gt;http://w3id.org/oseg/ont/okhmeta#Tag -->
<g id="edge46" class="edge">
<title>http://w3id.org/oseg/ont/okhmeta#MetaTag&#45;&gt;http://w3id.org/oseg/ont/okhmeta#Tag</title>
<path fill="none" stroke="black" d="M763.46,-635.05C763.96,-635.8 764.48,-636.55 765.02,-637.31"/>
<polygon fill="black" stroke="black" points="762.44,-639.69 771.33,-645.45 767.97,-635.4 762.44,-639.69"/>
<text text-anchor="middle" x="759.74" y="-639.98" font-family="Times,serif" font-size="14.00">a</text>
</g>
<!-- http://w3id.org/oseg/ont/okhmeta#MetaTag&#45;&gt;http://w3id.org/oseg/ont/okhmeta#MetaTag -->
<g id="edge8" class="edge">
<title>http://w3id.org/oseg/ont/okhmeta#MetaTag&#45;&gt;http://w3id.org/oseg/ont/okhmeta#MetaTag</title>
<path fill="none" stroke="black" d="M852.87,-624.68C868.03,-623.78 878.41,-621.7 878.41,-618.47 878.41,-616.02 872.45,-614.23 862.96,-613.12"/>
<polygon fill="black" stroke="black" points="863.13,-609.62 852.87,-612.25 862.53,-616.59 863.13,-609.62"/>
<text text-anchor="middle" x="955.41" y="-614.77" font-family="Times,serif" font-size="14.00">okhmeta:hasMetaTag</text>
</g>
<!-- http://w3id.org/oseg/ont/okhmeta#HistoryTag -->
<g id="node6" class="node">
<title>http://w3id.org/oseg/ont/okhmeta#HistoryTag</title>
<ellipse fill="none" stroke="#e377c2" cx="862.13" cy="-275.75" rx="113.69" ry="16.03"/>
<text text-anchor="middle" x="862.13" y="-272.05" font-family="Times,serif" font-size="14.00">okhmeta:HistoryTag</text>
</g>
<!-- http://w3id.org/oseg/ont/okhmeta#HistoryTag&#45;&gt;http://w3id.org/oseg/ont/okhmeta#Tag -->
<g id="edge3" class="edge">
<title>http://w3id.org/oseg/ont/okhmeta#HistoryTag&#45;&gt;http://w3id.org/oseg/ont/okhmeta#Tag</title>
<path fill="none" stroke="black" d="M859.16,-292.32C848.37,-352.63 811.12,-560.83 797.87,-634.92"/>
<polygon fill="black" stroke="black" points="794.41,-634.38 796.09,-644.84 801.3,-635.62 794.41,-634.38"/>
<text text-anchor="middle" x="824.02" y="-467.42" font-family="Times,serif" font-size="14.00">a</text>
</g>
<!-- http://w3id.org/oseg/ont/okhmeta#HistoryTag&#45;&gt;http://w3id.org/oseg/ont/okhmeta#MetaTag -->
<g id="edge27" class="edge">
<title>http://w3id.org/oseg/ont/okhmeta#HistoryTag&#45;&gt;http://w3id.org/oseg/ont/okhmeta#MetaTag</title>
<path fill="none" stroke="black" d="M857.1,-292.28C840.34,-347.36 786.31,-524.98 765.84,-592.28"/>
<polygon fill="black" stroke="black" points="762.41,-591.52 762.85,-602.1 769.11,-593.56 762.41,-591.52"/>
<text text-anchor="middle" x="734.47" y="-446.08" font-family="Times,serif" font-size="14.00">okhmeta:hasMetaTag</text>
</g>
<!-- http://w3id.org/oseg/ont/okhmeta#hasMetaTag -->
<g id="node7" class="node">
<title>http://w3id.org/oseg/ont/okhmeta#hasMetaTag</title>
<ellipse fill="none" stroke="#e377c2" cx="367.48" cy="-278.28" rx="120.42" ry="16.03"/>
<text text-anchor="middle" x="367.48" y="-274.58" font-family="Times,serif" font-size="14.00">okhmeta:hasMetaTag</text>
</g>
<!-- http://w3id.org/oseg/ont/okhmeta#hasMetaTag&#45;&gt;http://www.w3.org/2004/02/skos/core#Concept -->
<g id="edge26" class="edge">
<title>http://w3id.org/oseg/ont/okhmeta#hasMetaTag&#45;&gt;http://www.w3.org/2004/02/skos/core#Concept</title>
<path fill="none" stroke="black" d="M390.81,-294.42C428.85,-320.74 504.27,-372.92 546.82,-402.36"/>
<polygon fill="black" stroke="black" points="544.9,-405.3 555.12,-408.11 548.89,-399.54 544.9,-405.3"/>
<text text-anchor="middle" x="464.31" y="-352.19" font-family="Times,serif" font-size="14.00">a</text>
</g>
<!-- http://w3id.org/oseg/ont/okhmeta#hasMetaTag&#45;&gt;http://w3id.org/oseg/ont/okhmeta#MetaTag -->
<g id="edge18" class="edge">
<title>http://w3id.org/oseg/ont/okhmeta#hasMetaTag&#45;&gt;http://w3id.org/oseg/ont/okhmeta#MetaTag</title>
<path fill="none" stroke="black" d="M381.85,-294.66C438.48,-350.4 646.37,-531.93 726.32,-595.96"/>
<polygon fill="black" stroke="black" points="724.53,-599.01 734.54,-602.48 728.88,-593.52 724.53,-599.01"/>
<text text-anchor="middle" x="477.09" y="-449.11" font-family="Times,serif" font-size="14.00">okhmeta:hasMetaTag</text>
</g>
<!-- http://w3id.org/oseg/ont/okhmeta#hasMetaTag&#45;&gt;http://w3id.org/oseg/ont/okhmeta#MetaTag -->
<g id="edge24" class="edge">
<title>http://w3id.org/oseg/ont/okhmeta#hasMetaTag&#45;&gt;http://w3id.org/oseg/ont/okhmeta#MetaTag</title>
<path fill="none" stroke="black" d="M390.91,-294.34C461.03,-349.39 668.16,-529.81 736.09,-594.89"/>
<polygon fill="black" stroke="black" points="734.05,-597.79 743.67,-602.24 738.93,-592.77 734.05,-597.79"/>
<text text-anchor="middle" x="636" y="-448.41" font-family="Times,serif" font-size="14.00">dcam:rangeIncludes</text>
</g>
<!-- http://www.w3.org/2004/02/skos/core#member -->
<g id="node28" class="node">
<title>http://www.w3.org/2004/02/skos/core#member</title>
<ellipse fill="none" stroke="#e377c2" cx="78.98" cy="-16.16" rx="79.39" ry="16.03"/>
<text text-anchor="middle" x="78.98" y="-12.46" font-family="Times,serif" font-size="14.00">skos:member</text>
</g>
<!-- http://w3id.org/oseg/ont/okhmeta#hasMetaTag&#45;&gt;http://www.w3.org/2004/02/skos/core#member -->
<g id="edge21" class="edge">
<title>http://w3id.org/oseg/ont/okhmeta#hasMetaTag&#45;&gt;http://www.w3.org/2004/02/skos/core#member</title>
<path fill="none" stroke="black" d="M349.44,-261.88C299.83,-216.82 161.34,-90.98 104.16,-39.04"/>
<polygon fill="black" stroke="black" points="106.41,-36.35 96.65,-32.21 101.7,-41.53 106.41,-36.35"/>
<text text-anchor="middle" x="173.8" y="-154.26" font-family="Times,serif" font-size="14.00">subPropertyOf</text>
</g>
<!-- http://w3id.org/oseg/ont/okhmeta -->
<g id="node8" class="node">
<title>http://w3id.org/oseg/ont/okhmeta</title>
<ellipse fill="none" stroke="#e377c2" cx="1511.97" cy="-1170.23" rx="76.24" ry="16.03"/>
<text text-anchor="middle" x="1511.97" y="-1166.53" font-family="Times,serif" font-size="14.00">ns1:okhmeta</text>
</g>
<!-- http://w3id.org/oseg/ont/okhmeta&#45;&gt;http://spdx.org/rdf/terms#SpdxItem -->
<g id="edge6" class="edge">
<title>http://w3id.org/oseg/ont/okhmeta&#45;&gt;http://spdx.org/rdf/terms#SpdxItem</title>
<path fill="none" stroke="black" d="M1486.83,-1154.84C1454.13,-1134.83 1396.85,-1099.76 1360.1,-1077.26"/>
<polygon fill="black" stroke="black" points="1361.58,-1074.06 1351.23,-1071.83 1357.93,-1080.03 1361.58,-1074.06"/>
<text text-anchor="middle" x="1418.97" y="-1119.85" font-family="Times,serif" font-size="14.00">a</text>
</g>
<!-- http://id.loc.gov/vocabulary/iso639&#45;1/en -->
<g id="node13" class="node">
<title>http://id.loc.gov/vocabulary/iso639&#45;1/en</title>
<ellipse fill="none" stroke="#e377c2" cx="1549.82" cy="-986.32" rx="45.01" ry="16.03"/>
<text text-anchor="middle" x="1549.82" y="-982.62" font-family="Times,serif" font-size="14.00">ns2:en</text>
</g>
<!-- http://w3id.org/oseg/ont/okhmeta&#45;&gt;http://id.loc.gov/vocabulary/iso639&#45;1/en -->
<g id="edge30" class="edge">
<title>http://w3id.org/oseg/ont/okhmeta&#45;&gt;http://id.loc.gov/vocabulary/iso639&#45;1/en</title>
<path fill="none" stroke="black" d="M1515.33,-1153.91C1521.89,-1122.01 1536.48,-1051.14 1544.42,-1012.57"/>
<polygon fill="black" stroke="black" points="1547.88,-1013.11 1546.47,-1002.61 1541.03,-1011.69 1547.88,-1013.11"/>
<text text-anchor="middle" x="1465.37" y="-1087.04" font-family="Times,serif" font-size="14.00">dcterms:language</text>
</g>
<!-- http://w3id.org/oseg/ont/1.1.0/okh&#45;meta -->
<g id="node16" class="node">
<title>http://w3id.org/oseg/ont/1.1.0/okh&#45;meta</title>
<ellipse fill="none" stroke="#e377c2" cx="1532.54" cy="-1218.21" rx="79.81" ry="16.03"/>
<text text-anchor="middle" x="1532.54" y="-1214.51" font-family="Times,serif" font-size="14.00">ns3:okh&#45;meta</text>
</g>
<!-- http://w3id.org/oseg/ont/okhmeta&#45;&gt;http://w3id.org/oseg/ont/1.1.0/okh&#45;meta -->
<g id="edge34" class="edge">
<title>http://w3id.org/oseg/ont/okhmeta&#45;&gt;http://w3id.org/oseg/ont/1.1.0/okh&#45;meta</title>
<path fill="none" stroke="black" d="M1518.93,-1186.47C1519.8,-1188.51 1520.71,-1190.62 1521.62,-1192.75"/>
<polygon fill="black" stroke="black" points="1518.42,-1194.17 1525.58,-1201.98 1524.86,-1191.41 1518.42,-1194.17"/>
<text text-anchor="middle" x="1468.78" y="-1193.41" font-family="Times,serif" font-size="14.00">owl:versionIRI</text>
</g>
<!-- http://spdx.org/licenses/GPL&#45;3.0&#45;or&#45;later -->
<g id="node21" class="node">
<title>http://spdx.org/licenses/GPL&#45;3.0&#45;or&#45;later</title>
<ellipse fill="none" stroke="#e377c2" cx="1720.34" cy="-1327.3" rx="108.79" ry="16.03"/>
<text text-anchor="middle" x="1720.34" y="-1323.6" font-family="Times,serif" font-size="14.00">spdxl:GPL&#45;3.0&#45;or&#45;...</text>
</g>
<!-- http://w3id.org/oseg/ont/okhmeta&#45;&gt;http://spdx.org/licenses/GPL&#45;3.0&#45;or&#45;later -->
<g id="edge38" class="edge">
<title>http://w3id.org/oseg/ont/okhmeta&#45;&gt;http://spdx.org/licenses/GPL&#45;3.0&#45;or&#45;later</title>
<path fill="none" stroke="black" d="M1533.09,-1186.16C1570.54,-1214.38 1648.59,-1273.22 1691.15,-1305.29"/>
<polygon fill="black" stroke="black" points="1689.07,-1308.11 1699.16,-1311.34 1693.28,-1302.52 1689.07,-1308.11"/>
<text text-anchor="middle" x="1536.12" y="-1249.52" font-family="Times,serif" font-size="14.00">spdx:licenseDeclared</text>
</g>
<!-- http://w3id.org/oseg/ont/oseg&#45;profiles#robinVobruba -->
<g id="node25" class="node">
<title>http://w3id.org/oseg/ont/oseg&#45;profiles#robinVobruba</title>
<ellipse fill="none" stroke="#e377c2" cx="1278.31" cy="-1273.71" rx="113.69" ry="16.03"/>
<text text-anchor="middle" x="1278.31" y="-1270.01" font-family="Times,serif" font-size="14.00">osegprof:robinVob...</text>
</g>
<!-- http://w3id.org/oseg/ont/okhmeta&#45;&gt;http://w3id.org/oseg/ont/oseg&#45;profiles#robinVobruba -->
<g id="edge41" class="edge">
<title>http://w3id.org/oseg/ont/okhmeta&#45;&gt;http://w3id.org/oseg/ont/oseg&#45;profiles#robinVobruba</title>
<path fill="none" stroke="black" d="M1468.59,-1183.65C1423.4,-1201.45 1353.59,-1232.46 1312.26,-1253.17"/>
<polygon fill="black" stroke="black" points="1310.47,-1250.15 1303.14,-1257.81 1313.64,-1256.39 1310.47,-1250.15"/>
<text text-anchor="middle" x="1332.92" y="-1222.21" font-family="Times,serif" font-size="14.00">dcterms:creator</text>
</g>
<!-- http://w3id.org/oseg/ont/okhmeta&#45;&gt;http://w3id.org/oseg/ont/oseg&#45;profiles#robinVobruba -->
<g id="edge43" class="edge">
<title>http://w3id.org/oseg/ont/okhmeta&#45;&gt;http://w3id.org/oseg/ont/oseg&#45;profiles#robinVobruba</title>
<path fill="none" stroke="black" d="M1487.86,-1185.75C1452.02,-1204.4 1383.71,-1235.15 1334.81,-1255.03"/>
<polygon fill="black" stroke="black" points="1333.27,-1251.87 1325.3,-1258.85 1335.89,-1258.37 1333.27,-1251.87"/>
<text text-anchor="middle" x="1383.59" y="-1209.19" font-family="Times,serif" font-size="14.00">schema:creator</text>
</g>
<!-- http://w3id.org/oseg/ont/oseg&#45;profiles#Iopa -->
<g id="node26" class="node">
<title>http://w3id.org/oseg/ont/oseg&#45;profiles#Iopa</title>
<ellipse fill="none" stroke="#e377c2" cx="1615.5" cy="-1129.38" rx="80.72" ry="16.03"/>
<text text-anchor="middle" x="1615.5" y="-1125.68" font-family="Times,serif" font-size="14.00">osegprof:Iopa</text>
</g>
<!-- http://w3id.org/oseg/ont/okhmeta&#45;&gt;http://w3id.org/oseg/ont/oseg&#45;profiles#Iopa -->
<g id="edge44" class="edge">
<title>http://w3id.org/oseg/ont/okhmeta&#45;&gt;http://w3id.org/oseg/ont/oseg&#45;profiles#Iopa</title>
<path fill="none" stroke="black" d="M1548.47,-1155.83C1555.19,-1153.17 1562.29,-1150.37 1569.26,-1147.62"/>
<polygon fill="black" stroke="black" points="1570.61,-1150.85 1578.63,-1143.93 1568.04,-1144.34 1570.61,-1150.85"/>
<text text-anchor="middle" x="1493.36" y="-1140.52" font-family="Times,serif" font-size="14.00">dcterms:publisher</text>
</g>
<!-- http://w3id.org/oseg/ont/okhmeta#MakingTag -->
<g id="node9" class="node">
<title>http://w3id.org/oseg/ont/okhmeta#MakingTag</title>
<ellipse fill="none" stroke="#e377c2" cx="493.37" cy="-884.74" rx="113.69" ry="16.03"/>
<text text-anchor="middle" x="493.37" y="-881.04" font-family="Times,serif" font-size="14.00">okhmeta:MakingTag</text>
</g>
<!-- http://w3id.org/oseg/ont/okhmeta#MakingTag&#45;&gt;http://w3id.org/oseg/ont/okhmeta#Tag -->
<g id="edge10" class="edge">
<title>http://w3id.org/oseg/ont/okhmeta#MakingTag&#45;&gt;http://w3id.org/oseg/ont/okhmeta#Tag</title>
<path fill="none" stroke="black" d="M514.93,-868.68C567.64,-829.39 703.15,-728.41 763.44,-683.48"/>
<polygon fill="black" stroke="black" points="765.85,-686.05 771.78,-677.27 761.67,-680.44 765.85,-686.05"/>
<text text-anchor="middle" x="634.68" y="-779.88" font-family="Times,serif" font-size="14.00">a</text>
</g>
<!-- http://w3id.org/oseg/ont/okhmeta#MakingTag&#45;&gt;http://w3id.org/oseg/ont/okhmeta#MetaTag -->
<g id="edge32" class="edge">
<title>http://w3id.org/oseg/ont/okhmeta#MakingTag&#45;&gt;http://w3id.org/oseg/ont/okhmeta#MetaTag</title>
<path fill="none" stroke="black" d="M509.51,-868.49C554.52,-823.18 681.53,-695.32 734.36,-642.14"/>
<polygon fill="black" stroke="black" points="737.04,-644.41 741.6,-634.85 732.07,-639.48 737.04,-644.41"/>
<text text-anchor="middle" x="544.94" y="-759.11" font-family="Times,serif" font-size="14.00">okhmeta:hasMetaTag</text>
</g>
<!-- http://w3id.org/oseg/ont/okhmeta#PhysicalTag -->
<g id="node10" class="node">
<title>http://w3id.org/oseg/ont/okhmeta#PhysicalTag</title>
<ellipse fill="none" stroke="#e377c2" cx="1126.47" cy="-745.75" rx="118.17" ry="16.03"/>
<text text-anchor="middle" x="1126.47" y="-742.05" font-family="Times,serif" font-size="14.00">okhmeta:PhysicalTag</text>
</g>
<!-- http://w3id.org/oseg/ont/okhmeta#PhysicalTag&#45;&gt;http://w3id.org/oseg/ont/okhmeta#Tag -->
<g id="edge28" class="edge">
<title>http://w3id.org/oseg/ont/okhmeta#PhysicalTag&#45;&gt;http://w3id.org/oseg/ont/okhmeta#Tag</title>
<path fill="none" stroke="black" d="M1069.92,-731.43C1009.4,-716.11 913.8,-691.9 852.29,-676.33"/>
<polygon fill="black" stroke="black" points="852.9,-672.87 842.34,-673.81 851.18,-679.66 852.9,-672.87"/>
<text text-anchor="middle" x="956.61" y="-707.68" font-family="Times,serif" font-size="14.00">a</text>
</g>
<!-- http://w3id.org/oseg/ont/okhmeta#PhysicalTag&#45;&gt;http://w3id.org/oseg/ont/okhmeta#MetaTag -->
<g id="edge22" class="edge">
<title>http://w3id.org/oseg/ont/okhmeta#PhysicalTag&#45;&gt;http://w3id.org/oseg/ont/okhmeta#MetaTag</title>
<path fill="none" stroke="black" d="M1082.37,-730.52C1014.16,-706.97 883.32,-661.79 810.35,-636.59"/>
<polygon fill="black" stroke="black" points="811.47,-633.27 800.88,-633.32 809.19,-639.89 811.47,-633.27"/>
<text text-anchor="middle" x="869.36" y="-687.35" font-family="Times,serif" font-size="14.00">okhmeta:hasMetaTag</text>
</g>
<!-- http://w3id.org/oseg/ont/okhmeta#PartsTag -->
<g id="node11" class="node">
<title>http://w3id.org/oseg/ont/okhmeta#PartsTag</title>
<ellipse fill="none" stroke="#e377c2" cx="684.33" cy="-999.85" rx="103.48" ry="16.03"/>
<text text-anchor="middle" x="684.33" y="-996.15" font-family="Times,serif" font-size="14.00">okhmeta:PartsTag</text>
</g>
<!-- http://w3id.org/oseg/ont/okhmeta#PartsTag&#45;&gt;http://w3id.org/oseg/ont/okhmeta#Tag -->
<g id="edge29" class="edge">
<title>http://w3id.org/oseg/ont/okhmeta#PartsTag&#45;&gt;http://w3id.org/oseg/ont/okhmeta#Tag</title>
<path fill="none" stroke="black" d="M689.57,-983.53C707.02,-929.25 763.2,-754.5 784.68,-687.67"/>
<polygon fill="black" stroke="black" points="788.09,-688.5 787.82,-677.91 781.42,-686.36 788.09,-688.5"/>
<text text-anchor="middle" x="732.63" y="-839.4" font-family="Times,serif" font-size="14.00">a</text>
</g>
<!-- http://w3id.org/oseg/ont/okhmeta#PartsTag&#45;&gt;http://w3id.org/oseg/ont/okhmeta#MetaTag -->
<g id="edge14" class="edge">
<title>http://w3id.org/oseg/ont/okhmeta#PartsTag&#45;&gt;http://w3id.org/oseg/ont/okhmeta#MetaTag</title>
<path fill="none" stroke="black" d="M687.49,-983.47C698.97,-923.93 738.54,-718.73 752.75,-645.06"/>
<polygon fill="black" stroke="black" points="756.27,-645.28 754.73,-634.8 749.4,-643.95 756.27,-645.28"/>
<text text-anchor="middle" x="643.12" y="-818.06" font-family="Times,serif" font-size="14.00">okhmeta:hasMetaTag</text>
</g>
<!-- http://w3id.org/oseg/ont/okhmeta#QualityTag -->
<g id="node12" class="node">
<title>http://w3id.org/oseg/ont/okhmeta#QualityTag</title>
<ellipse fill="none" stroke="#e377c2" cx="423.68" cy="-662.94" rx="113.27" ry="16.03"/>
<text text-anchor="middle" x="423.68" y="-659.24" font-family="Times,serif" font-size="14.00">okhmeta:QualityTag</text>
</g>
<!-- http://w3id.org/oseg/ont/okhmeta#QualityTag&#45;&gt;http://w3id.org/oseg/ont/okhmeta#Tag -->
<g id="edge11" class="edge">
<title>http://w3id.org/oseg/ont/okhmeta#QualityTag&#45;&gt;http://w3id.org/oseg/ont/okhmeta#Tag</title>
<path fill="none" stroke="black" d="M536.79,-662.45C591.37,-662.22 655.83,-661.94 706.45,-661.72"/>
<polygon fill="black" stroke="black" points="706.73,-665.22 716.71,-661.68 706.7,-658.22 706.73,-665.22"/>
<text text-anchor="middle" x="617.12" y="-665.89" font-family="Times,serif" font-size="14.00">a</text>
</g>
<!-- http://w3id.org/oseg/ont/okhmeta#QualityTag&#45;&gt;http://w3id.org/oseg/ont/okhmeta#MetaTag -->
<g id="edge4" class="edge">
<title>http://w3id.org/oseg/ont/okhmeta#QualityTag&#45;&gt;http://w3id.org/oseg/ont/okhmeta#MetaTag</title>
<path fill="none" stroke="black" d="M506.72,-651.89C556.09,-645.32 618.7,-636.99 669.06,-630.29"/>
<polygon fill="black" stroke="black" points="669.83,-633.71 679.29,-628.93 668.91,-626.78 669.83,-633.71"/>
<text text-anchor="middle" x="510.89" y="-629.89" font-family="Times,serif" font-size="14.00">okhmeta:hasMetaTag</text>
</g>
<!-- http://w3id.org/oseg/ont/okhmeta#ExtendedInfoTag -->
<g id="node14" class="node">
<title>http://w3id.org/oseg/ont/okhmeta#ExtendedInfoTag</title>
<ellipse fill="none" stroke="#e377c2" cx="620.03" cy="-311.95" rx="120.42" ry="16.03"/>
<text text-anchor="middle" x="620.03" y="-308.25" font-family="Times,serif" font-size="14.00">okhmeta:ExtendedI...</text>
</g>
<!-- http://w3id.org/oseg/ont/okhmeta#ExtendedInfoTag&#45;&gt;http://w3id.org/oseg/ont/okhmeta#Tag -->
<g id="edge31" class="edge">
<title>http://w3id.org/oseg/ont/okhmeta#ExtendedInfoTag&#45;&gt;http://w3id.org/oseg/ont/okhmeta#Tag</title>
<path fill="none" stroke="black" d="M628.15,-328.34C655.86,-384.27 746.88,-567.99 780.51,-635.86"/>
<polygon fill="black" stroke="black" points="777.46,-637.59 785.04,-645 783.74,-634.49 777.46,-637.59"/>
<text text-anchor="middle" x="699.83" y="-485.9" font-family="Times,serif" font-size="14.00">a</text>
</g>
<!-- http://w3id.org/oseg/ont/okhmeta#ExtendedInfoTag&#45;&gt;http://w3id.org/oseg/ont/okhmeta#MetaTag -->
<g id="edge15" class="edge">
<title>http://w3id.org/oseg/ont/okhmeta#ExtendedInfoTag&#45;&gt;http://w3id.org/oseg/ont/okhmeta#MetaTag</title>
<path fill="none" stroke="black" d="M627.44,-328.43C650.11,-378.85 718.67,-531.28 746.22,-592.56"/>
<polygon fill="black" stroke="black" points="743.13,-594.22 750.43,-601.91 749.52,-591.35 743.13,-594.22"/>
<text text-anchor="middle" x="609.83" y="-464.29" font-family="Times,serif" font-size="14.00">okhmeta:hasMetaTag</text>
</g>
<!-- http://w3id.org/oseg/ont/okhmeta#IdentificationTag -->
<g id="node15" class="node">
<title>http://w3id.org/oseg/ont/okhmeta#IdentificationTag</title>
<ellipse fill="none" stroke="#e377c2" cx="981.6" cy="-922.4" rx="109.7" ry="16.03"/>
<text text-anchor="middle" x="981.6" y="-918.7" font-family="Times,serif" font-size="14.00">okhmeta:Identific...</text>
</g>
<!-- http://w3id.org/oseg/ont/okhmeta#IdentificationTag&#45;&gt;http://w3id.org/oseg/ont/okhmeta#Tag -->
<g id="edge13" class="edge">
<title>http://w3id.org/oseg/ont/okhmeta#IdentificationTag&#45;&gt;http://w3id.org/oseg/ont/okhmeta#Tag</title>
<path fill="none" stroke="black" d="M969.81,-906.07C937.75,-861.66 848.84,-738.5 810.79,-685.79"/>
<polygon fill="black" stroke="black" points="813.61,-683.73 804.92,-677.67 807.94,-687.83 813.61,-683.73"/>
<text text-anchor="middle" x="885.8" y="-799.73" font-family="Times,serif" font-size="14.00">a</text>
</g>
<!-- http://w3id.org/oseg/ont/okhmeta#IdentificationTag&#45;&gt;http://w3id.org/oseg/ont/okhmeta#MetaTag -->
<g id="edge5" class="edge">
<title>http://w3id.org/oseg/ont/okhmeta#IdentificationTag&#45;&gt;http://w3id.org/oseg/ont/okhmeta#MetaTag</title>
<path fill="none" stroke="black" d="M969.57,-906.06C932.55,-855.76 820.13,-703.05 775.97,-643.05"/>
<polygon fill="black" stroke="black" points="778.71,-640.87 769.96,-634.89 773.07,-645.02 778.71,-640.87"/>
<text text-anchor="middle" x="795.77" y="-778.35" font-family="Times,serif" font-size="14.00">okhmeta:hasMetaTag</text>
</g>
<!-- http://w3id.org/oseg/ont/okhmeta#TransportationTag -->
<g id="node17" class="node">
<title>http://w3id.org/oseg/ont/okhmeta#TransportationTag</title>
<ellipse fill="none" stroke="#e377c2" cx="1142.55" cy="-622.39" rx="118.17" ry="16.03"/>
<text text-anchor="middle" x="1142.55" y="-618.69" font-family="Times,serif" font-size="14.00">okhmeta:Transport...</text>
</g>
<!-- http://w3id.org/oseg/ont/okhmeta#TransportationTag&#45;&gt;http://w3id.org/oseg/ont/okhmeta#Tag -->
<g id="edge35" class="edge">
<title>http://w3id.org/oseg/ont/okhmeta#TransportationTag&#45;&gt;http://w3id.org/oseg/ont/okhmeta#Tag</title>
<path fill="none" stroke="black" d="M1050.75,-632.62C994.81,-638.86 924.1,-646.75 870.92,-652.68"/>
<polygon fill="black" stroke="black" points="870.42,-649.21 860.87,-653.8 871.2,-656.17 870.42,-649.21"/>
<text text-anchor="middle" x="956.34" y="-646.45" font-family="Times,serif" font-size="14.00">a</text>
</g>
<!-- http://w3id.org/oseg/ont/okhmeta#TransportationTag&#45;&gt;http://w3id.org/oseg/ont/okhmeta#MetaTag -->
<g id="edge42" class="edge">
<title>http://w3id.org/oseg/ont/okhmeta#TransportationTag&#45;&gt;http://w3id.org/oseg/ont/okhmeta#MetaTag</title>
<path fill="none" stroke="black" d="M1024.79,-621.19C975.7,-620.69 918.95,-620.11 870.43,-619.61"/>
<polygon fill="black" stroke="black" points="870.25,-616.11 860.21,-619.51 870.17,-623.11 870.25,-616.11"/>
<text text-anchor="middle" x="947.61" y="-609.2" font-family="Times,serif" font-size="14.00">okhmeta:hasMetaTag</text>
</g>
<!-- http://w3id.org/oseg/ont/okhmeta#BasicTag -->
<g id="node18" class="node">
<title>http://w3id.org/oseg/ont/okhmeta#BasicTag</title>
<ellipse fill="none" stroke="#e377c2" cx="1021.1" cy="-428.85" rx="103.48" ry="16.03"/>
<text text-anchor="middle" x="1021.1" y="-425.15" font-family="Times,serif" font-size="14.00">okhmeta:BasicTag</text>
</g>
<!-- http://w3id.org/oseg/ont/okhmeta#BasicTag&#45;&gt;http://w3id.org/oseg/ont/okhmeta#Tag -->
<g id="edge16" class="edge">
<title>http://w3id.org/oseg/ont/okhmeta#BasicTag&#45;&gt;http://w3id.org/oseg/ont/okhmeta#Tag</title>
<path fill="none" stroke="black" d="M1005.07,-445.2C965.33,-485.74 862.13,-590.99 816,-638.03"/>
<polygon fill="black" stroke="black" points="813.35,-635.74 808.85,-645.33 818.35,-640.64 813.35,-635.74"/>
<text text-anchor="middle" x="906.04" y="-545.42" font-family="Times,serif" font-size="14.00">a</text>
</g>
<!-- http://w3id.org/oseg/ont/okhmeta#BasicTag&#45;&gt;http://w3id.org/oseg/ont/okhmeta#MetaTag -->
<g id="edge9" class="edge">
<title>http://w3id.org/oseg/ont/okhmeta#BasicTag&#45;&gt;http://w3id.org/oseg/ont/okhmeta#MetaTag</title>
<path fill="none" stroke="black" d="M998.66,-445.02C951.55,-478.95 842.3,-557.66 788.68,-596.28"/>
<polygon fill="black" stroke="black" points="786.33,-593.66 780.26,-602.34 790.42,-599.34 786.33,-593.66"/>
<text text-anchor="middle" x="816.67" y="-524.45" font-family="Times,serif" font-size="14.00">okhmeta:hasMetaTag</text>
</g>
<!-- http://w3id.org/oseg/ont/okhmeta#DocumentationTag -->
<g id="node19" class="node">
<title>http://w3id.org/oseg/ont/okhmeta#DocumentationTag</title>
<ellipse fill="none" stroke="#e377c2" cx="427.13" cy="-792" rx="125.32" ry="16.03"/>
<text text-anchor="middle" x="427.13" y="-788.3" font-family="Times,serif" font-size="14.00">okhmeta:Documenta...</text>
</g>
<!-- http://w3id.org/oseg/ont/okhmeta#DocumentationTag&#45;&gt;http://w3id.org/oseg/ont/okhmeta#Tag -->
<g id="edge37" class="edge">
<title>http://w3id.org/oseg/ont/okhmeta#DocumentationTag&#45;&gt;http://w3id.org/oseg/ont/okhmeta#Tag</title>
<path fill="none" stroke="black" d="M470.19,-776.63C538.68,-752.18 672.04,-704.57 744.11,-678.85"/>
<polygon fill="black" stroke="black" points="745.61,-682.03 753.86,-675.37 743.26,-675.44 745.61,-682.03"/>
<text text-anchor="middle" x="602.65" y="-731.54" font-family="Times,serif" font-size="14.00">a</text>
</g>
<!-- http://w3id.org/oseg/ont/okhmeta#DocumentationTag&#45;&gt;http://w3id.org/oseg/ont/okhmeta#MetaTag -->
<g id="edge2" class="edge">
<title>http://w3id.org/oseg/ont/okhmeta#DocumentationTag&#45;&gt;http://w3id.org/oseg/ont/okhmeta#MetaTag</title>
<path fill="none" stroke="black" d="M457.36,-776.14C517.52,-744.57 652.18,-673.92 718.89,-638.92"/>
<polygon fill="black" stroke="black" points="720.61,-641.97 727.84,-634.23 717.36,-635.78 720.61,-641.97"/>
<text text-anchor="middle" x="511.12" y="-711.33" font-family="Times,serif" font-size="14.00">okhmeta:hasMetaTag</text>
</g>
<!-- http://w3id.org/oseg/ont/okhmeta#AcademicTag -->
<g id="node20" class="node">
<title>http://w3id.org/oseg/ont/okhmeta#AcademicTag</title>
<ellipse fill="none" stroke="#e377c2" cx="979.09" cy="-317.31" rx="124.4" ry="16.03"/>
<text text-anchor="middle" x="979.09" y="-313.61" font-family="Times,serif" font-size="14.00">okhmeta:AcademicTag</text>
</g>
<!-- http://w3id.org/oseg/ont/okhmeta#AcademicTag&#45;&gt;http://w3id.org/oseg/ont/okhmeta#Tag -->
<g id="edge19" class="edge">
<title>http://w3id.org/oseg/ont/okhmeta#AcademicTag&#45;&gt;http://w3id.org/oseg/ont/okhmeta#Tag</title>
<path fill="none" stroke="black" d="M970.12,-333.9C940.11,-389.43 843.07,-568.97 806.9,-635.89"/>
<polygon fill="black" stroke="black" points="803.69,-634.46 802.02,-644.92 809.85,-637.79 803.69,-634.46"/>
<text text-anchor="middle" x="884.01" y="-488.7" font-family="Times,serif" font-size="14.00">a</text>
</g>
<!-- http://w3id.org/oseg/ont/okhmeta#AcademicTag&#45;&gt;http://w3id.org/oseg/ont/okhmeta#MetaTag -->
<g id="edge12" class="edge">
<title>http://w3id.org/oseg/ont/okhmeta#AcademicTag&#45;&gt;http://w3id.org/oseg/ont/okhmeta#MetaTag</title>
<path fill="none" stroke="black" d="M967.2,-333.5C930.59,-383.34 819.43,-534.66 775.76,-594.11"/>
<polygon fill="black" stroke="black" points="772.93,-592.07 769.83,-602.2 778.57,-596.21 772.93,-592.07"/>
<text text-anchor="middle" x="948.48" y="-452.61" font-family="Times,serif" font-size="14.00">okhmeta:hasMetaTag</text>
</g>
<!-- http://w3id.org/oseg/ont/okhmeta#DataGatheringTag -->
<g id="node22" class="node">
<title>http://w3id.org/oseg/ont/okhmeta#DataGatheringTag</title>
<ellipse fill="none" stroke="#e377c2" cx="1128.85" cy="-492.75" rx="122.16" ry="16.03"/>
<text text-anchor="middle" x="1128.85" y="-489.05" font-family="Times,serif" font-size="14.00">okhmeta:DataGathe...</text>
</g>
<!-- http://w3id.org/oseg/ont/okhmeta#DataGatheringTag&#45;&gt;http://w3id.org/oseg/ont/okhmeta#Tag -->
<g id="edge20" class="edge">
<title>http://w3id.org/oseg/ont/okhmeta#DataGatheringTag&#45;&gt;http://w3id.org/oseg/ont/okhmeta#Tag</title>
<path fill="none" stroke="black" d="M1097.27,-508.61C1035.69,-539.53 899.74,-607.81 832.45,-641.61"/>
<polygon fill="black" stroke="black" points="830.79,-638.52 823.42,-646.14 833.93,-644.78 830.79,-638.52"/>
<text text-anchor="middle" x="960.36" y="-578.91" font-family="Times,serif" font-size="14.00">a</text>
</g>
<!-- http://w3id.org/oseg/ont/okhmeta#DataGatheringTag&#45;&gt;http://w3id.org/oseg/ont/okhmeta#MetaTag -->
<g id="edge25" class="edge">
<title>http://w3id.org/oseg/ont/okhmeta#DataGatheringTag&#45;&gt;http://w3id.org/oseg/ont/okhmeta#MetaTag</title>
<path fill="none" stroke="black" d="M1084.11,-507.91C1015.4,-531.19 884.22,-575.65 810.86,-600.51"/>
<polygon fill="black" stroke="black" points="809.69,-597.21 801.34,-603.74 811.94,-603.84 809.69,-597.21"/>
<text text-anchor="middle" x="1024.48" y="-558.01" font-family="Times,serif" font-size="14.00">okhmeta:hasMetaTag</text>
</g>
<!-- http://w3id.org/oseg/ont/okhmeta#LegalTag -->
<g id="node23" class="node">
<title>http://w3id.org/oseg/ont/okhmeta#LegalTag</title>
<ellipse fill="none" stroke="#e377c2" cx="903.83" cy="-975.7" rx="103.89" ry="16.03"/>
<text text-anchor="middle" x="903.83" y="-972" font-family="Times,serif" font-size="14.00">okhmeta:LegalTag</text>
</g>
<!-- http://w3id.org/oseg/ont/okhmeta#LegalTag&#45;&gt;http://w3id.org/oseg/ont/okhmeta#Tag -->
<g id="edge39" class="edge">
<title>http://w3id.org/oseg/ont/okhmeta#LegalTag&#45;&gt;http://w3id.org/oseg/ont/okhmeta#Tag</title>
<path fill="none" stroke="black" d="M898.04,-959.24C879.92,-907.78 824.24,-749.66 802.23,-687.16"/>
<polygon fill="black" stroke="black" points="805.5,-685.91 798.88,-677.64 798.9,-688.24 805.5,-685.91"/>
<text text-anchor="middle" x="845.63" y="-827" font-family="Times,serif" font-size="14.00">a</text>
</g>
<!-- http://w3id.org/oseg/ont/okhmeta#LegalTag&#45;&gt;http://w3id.org/oseg/ont/okhmeta#MetaTag -->
<g id="edge33" class="edge">
<title>http://w3id.org/oseg/ont/okhmeta#LegalTag&#45;&gt;http://w3id.org/oseg/ont/okhmeta#MetaTag</title>
<path fill="none" stroke="black" d="M897.18,-959.42C874.01,-902.7 796.68,-713.44 768.37,-644.16"/>
<polygon fill="black" stroke="black" points="771.59,-642.78 764.56,-634.84 765.11,-645.42 771.59,-642.78"/>
<text text-anchor="middle" x="909.78" y="-805.59" font-family="Times,serif" font-size="14.00">okhmeta:hasMetaTag</text>
</g>
<!-- http://w3id.org/oseg/ont/okhmeta#DataTag -->
<g id="node24" class="node">
<title>http://w3id.org/oseg/ont/okhmeta#DataTag</title>
<ellipse fill="none" stroke="#e377c2" cx="637.11" cy="-926.23" rx="100.32" ry="16.03"/>
<text text-anchor="middle" x="637.11" y="-922.53" font-family="Times,serif" font-size="14.00">okhmeta:DataTag</text>
</g>
<!-- http://w3id.org/oseg/ont/okhmeta#DataTag&#45;&gt;http://w3id.org/oseg/ont/okhmeta#Tag -->
<g id="edge40" class="edge">
<title>http://w3id.org/oseg/ont/okhmeta#DataTag&#45;&gt;http://w3id.org/oseg/ont/okhmeta#Tag</title>
<path fill="none" stroke="black" d="M646.87,-909.66C673.37,-864.68 746.77,-740.07 778.36,-686.44"/>
<polygon fill="black" stroke="black" points="781.52,-687.97 783.58,-677.57 775.49,-684.41 781.52,-687.97"/>
<text text-anchor="middle" x="708.12" y="-801.85" font-family="Times,serif" font-size="14.00">a</text>
</g>
<!-- http://w3id.org/oseg/ont/okhmeta#DataTag&#45;&gt;http://w3id.org/oseg/ont/okhmeta#MetaTag -->
<g id="edge23" class="edge">
<title>http://w3id.org/oseg/ont/okhmeta#DataTag&#45;&gt;http://w3id.org/oseg/ont/okhmeta#MetaTag</title>
<path fill="none" stroke="black" d="M643.6,-909.68C663.51,-858.95 723.81,-705.29 747.83,-644.06"/>
<polygon fill="black" stroke="black" points="751.1,-645.31 751.5,-634.72 744.59,-642.75 751.1,-645.31"/>
<text text-anchor="middle" x="734.22" y="-765.67" font-family="Times,serif" font-size="14.00">okhmeta:hasMetaTag</text>
</g>
<!-- http://w3id.org/oseg/ont/okhmeta#DevelopmentTag -->
<g id="node27" class="node">
<title>http://w3id.org/oseg/ont/okhmeta#DevelopmentTag</title>
<ellipse fill="none" stroke="#e377c2" cx="1087.67" cy="-867.14" rx="124.4" ry="16.03"/>
<text text-anchor="middle" x="1087.67" y="-863.44" font-family="Times,serif" font-size="14.00">okhmeta:Developme...</text>
</g>
<!-- http://w3id.org/oseg/ont/okhmeta#DevelopmentTag&#45;&gt;http://w3id.org/oseg/ont/okhmeta#Tag -->
<g id="edge45" class="edge">
<title>http://w3id.org/oseg/ont/okhmeta#DevelopmentTag&#45;&gt;http://w3id.org/oseg/ont/okhmeta#Tag</title>
<path fill="none" stroke="black" d="M1064.56,-850.99C1011.96,-814.23 883.25,-724.31 823.97,-682.89"/>
<polygon fill="black" stroke="black" points="825.94,-680 815.74,-677.14 821.93,-685.74 825.94,-680"/>
<text text-anchor="middle" x="939.76" y="-770.74" font-family="Times,serif" font-size="14.00">a</text>
</g>
<!-- http://w3id.org/oseg/ont/okhmeta#DevelopmentTag&#45;&gt;http://w3id.org/oseg/ont/okhmeta#MetaTag -->
<g id="edge36" class="edge">
<title>http://w3id.org/oseg/ont/okhmeta#DevelopmentTag&#45;&gt;http://w3id.org/oseg/ont/okhmeta#MetaTag</title>
<path fill="none" stroke="black" d="M1066.29,-851.01C1009.19,-807.96 853.04,-690.22 787.48,-640.79"/>
<polygon fill="black" stroke="black" points="789.3,-637.78 779.21,-634.56 785.09,-643.37 789.3,-637.78"/>
<text text-anchor="middle" x="849.88" y="-749.7" font-family="Times,serif" font-size="14.00">okhmeta:hasMetaTag</text>
</g>
</g>
</svg>
