<?xml version="1.0" encoding="UTF-8" standalone="no"?>
<!DOCTYPE svg PUBLIC "-//W3C//DTD SVG 1.1//EN"
 "http://www.w3.org/Graphics/SVG/1.1/DTD/svg11.dtd">
<!-- Generated by graphviz version 2.43.0 (0)
 -->
<!-- Title: G Pages: 1 -->
<svg width="1302pt" height="1153pt"
 viewBox="0.00 0.00 1302.00 1153.00" xmlns="http://www.w3.org/2000/svg" xmlns:xlink="http://www.w3.org/1999/xlink">
<g id="graph0" class="graph" transform="scale(1 1) rotate(0) translate(4 1149)">
<title>G</title>
<polygon fill="white" stroke="transparent" points="-4,4 -4,-1149 1298,-1149 1298,4 -4,4"/>
<!-- http://w3id.org/oseg/ont/okhmeta#Tag -->
<g id="node1" class="node">
<title>http://w3id.org/oseg/ont/okhmeta#Tag</title>
<ellipse fill="none" stroke="#e377c2" cx="396.65" cy="-506.46" rx="76.24" ry="16.03"/>
<text text-anchor="middle" x="396.65" y="-502.76" font-family="Times,serif" font-size="14.00">okhmeta:Tag</text>
</g>
<!-- http://www.w3.org/2004/02/skos/core#Concept -->
<g id="node3" class="node">
<title>http://www.w3.org/2004/02/skos/core#Concept</title>
<ellipse fill="none" stroke="#1f77b4" cx="625.26" cy="-389.07" rx="78.48" ry="16.03"/>
<text text-anchor="middle" x="625.26" y="-385.37" font-family="Times,serif" font-size="14.00">skos:Concept</text>
</g>
<!-- http://w3id.org/oseg/ont/okhmeta#Tag&#45;&gt;http://www.w3.org/2004/02/skos/core#Concept -->
<g id="edge5" class="edge">
<title>http://w3id.org/oseg/ont/okhmeta#Tag&#45;&gt;http://www.w3.org/2004/02/skos/core#Concept</title>
<path fill="none" stroke="black" d="M426.07,-491.35C467.02,-470.32 541.28,-432.19 586.65,-408.9"/>
<polygon fill="black" stroke="black" points="588.3,-411.98 595.59,-404.3 585.1,-405.76 588.3,-411.98"/>
<text text-anchor="middle" x="510.86" y="-453.92" font-family="Times,serif" font-size="14.00">a</text>
</g>
<!-- http://www.w3.org/2004/02/skos/core#Collection -->
<g id="node6" class="node">
<title>http://www.w3.org/2004/02/skos/core#Collection</title>
<ellipse fill="none" stroke="#e377c2" cx="249.92" cy="-751.46" rx="87.86" ry="16.03"/>
<text text-anchor="middle" x="249.92" y="-747.76" font-family="Times,serif" font-size="14.00">skos:Collection</text>
</g>
<!-- http://w3id.org/oseg/ont/okhmeta#Tag&#45;&gt;http://www.w3.org/2004/02/skos/core#Collection -->
<g id="edge40" class="edge">
<title>http://w3id.org/oseg/ont/okhmeta#Tag&#45;&gt;http://www.w3.org/2004/02/skos/core#Collection</title>
<path fill="none" stroke="black" d="M386.79,-522.91C361.63,-564.93 294.88,-676.39 264.89,-726.47"/>
<polygon fill="black" stroke="black" points="261.87,-724.7 259.73,-735.08 267.87,-728.3 261.87,-724.7"/>
</g>
<!-- http://w3id.org/oseg/ont/okhmeta#MetaTag -->
<g id="node7" class="node">
<title>http://w3id.org/oseg/ont/okhmeta#MetaTag</title>
<ellipse fill="none" stroke="#e377c2" cx="403.48" cy="-465.9" rx="102.56" ry="16.03"/>
<text text-anchor="middle" x="403.48" y="-462.2" font-family="Times,serif" font-size="14.00">okhmeta:MetaTag</text>
</g>
<!-- http://w3id.org/oseg/ont/okhmeta#Tag&#45;&gt;http://w3id.org/oseg/ont/okhmeta#MetaTag -->
<g id="edge32" class="edge">
<title>http://w3id.org/oseg/ont/okhmeta#Tag&#45;&gt;http://w3id.org/oseg/ont/okhmeta#MetaTag</title>
<path fill="none" stroke="black" d="M406.18,-490.13C406.22,-489.97 406.25,-489.81 406.28,-489.65"/>
<polygon fill="black" stroke="black" points="409.36,-492.78 407.37,-482.37 402.43,-491.74 409.36,-492.78"/>
<text text-anchor="middle" x="483.23" y="-478.69" font-family="Times,serif" font-size="14.00">okhmeta:hasMetaTag</text>
</g>
<!-- http://www.w3.org/2002/07/owl#Ontology -->
<g id="node2" class="node">
<title>http://www.w3.org/2002/07/owl#Ontology</title>
<ellipse fill="none" stroke="#1f77b4" cx="1023.25" cy="-1128.4" rx="77.56" ry="16.03"/>
<text text-anchor="middle" x="1023.25" y="-1124.7" font-family="Times,serif" font-size="14.00">owl:Ontology</text>
</g>
<!-- http://spdx.org/rdf/terms#SpdxItem -->
<g id="node4" class="node">
<title>http://spdx.org/rdf/terms#SpdxItem</title>
<ellipse fill="none" stroke="#1f77b4" cx="1108.85" cy="-950.93" rx="87.86" ry="16.03"/>
<text text-anchor="middle" x="1108.85" y="-947.23" font-family="Times,serif" font-size="14.00">spdx:SpdxItem</text>
</g>
<!-- http://www.w3.org/2002/07/owl#ObjectProperty -->
<g id="node5" class="node">
<title>http://www.w3.org/2002/07/owl#ObjectProperty</title>
<ellipse fill="none" stroke="#1f77b4" cx="435.46" cy="-16.75" rx="109.7" ry="16.03"/>
<text text-anchor="middle" x="435.46" y="-13.05" font-family="Times,serif" font-size="14.00">owl:ObjectProperty</text>
</g>
<!-- http://w3id.org/oseg/ont/okhmeta#MetaTag&#45;&gt;http://w3id.org/oseg/ont/okhmeta#Tag -->
<g id="edge45" class="edge">
<title>http://w3id.org/oseg/ont/okhmeta#MetaTag&#45;&gt;http://w3id.org/oseg/ont/okhmeta#Tag</title>
<path fill="none" stroke="black" d="M393.95,-482.22C393.91,-482.38 393.88,-482.54 393.85,-482.7"/>
<polygon fill="black" stroke="black" points="390.77,-479.58 392.76,-489.99 397.7,-480.62 390.77,-479.58"/>
<text text-anchor="middle" x="389.4" y="-486.26" font-family="Times,serif" font-size="14.00">a</text>
</g>
<!-- http://w3id.org/oseg/ont/okhmeta#MetaTag&#45;&gt;http://w3id.org/oseg/ont/okhmeta#MetaTag -->
<g id="edge8" class="edge">
<title>http://w3id.org/oseg/ont/okhmeta#MetaTag&#45;&gt;http://w3id.org/oseg/ont/okhmeta#MetaTag</title>
<path fill="none" stroke="black" d="M498.48,-472.12C513.64,-471.21 524.01,-469.14 524.01,-465.9 524.01,-463.45 518.05,-461.67 508.57,-460.55"/>
<polygon fill="black" stroke="black" points="508.74,-457.05 498.48,-459.69 508.14,-464.03 508.74,-457.05"/>
<text text-anchor="middle" x="601.01" y="-462.2" font-family="Times,serif" font-size="14.00">okhmeta:hasMetaTag</text>
</g>
<!-- http://w3id.org/oseg/ont/oseg&#45;profiles#Iopa -->
<g id="node8" class="node">
<title>http://w3id.org/oseg/ont/oseg&#45;profiles#Iopa</title>
<ellipse fill="none" stroke="#e377c2" cx="880.24" cy="-827.16" rx="80.72" ry="16.03"/>
<text text-anchor="middle" x="880.24" y="-823.46" font-family="Times,serif" font-size="14.00">osegprof:Iopa</text>
</g>
<!-- http://w3id.org/oseg/ont/okhmeta -->
<g id="node9" class="node">
<title>http://w3id.org/oseg/ont/okhmeta</title>
<ellipse fill="none" stroke="#e377c2" cx="1054.98" cy="-909.8" rx="76.24" ry="16.03"/>
<text text-anchor="middle" x="1054.98" y="-906.1" font-family="Times,serif" font-size="14.00">ns1:okhmeta</text>
</g>
<!-- http://w3id.org/oseg/ont/okhmeta&#45;&gt;http://www.w3.org/2002/07/owl#Ontology -->
<g id="edge15" class="edge">
<title>http://w3id.org/oseg/ont/okhmeta&#45;&gt;http://www.w3.org/2002/07/owl#Ontology</title>
<path fill="none" stroke="black" d="M1052.59,-926.23C1047.13,-963.82 1033.7,-1056.38 1027.07,-1102.05"/>
<polygon fill="black" stroke="black" points="1023.59,-1101.67 1025.62,-1112.07 1030.52,-1102.68 1023.59,-1101.67"/>
<text text-anchor="middle" x="1035.33" y="-1017.94" font-family="Times,serif" font-size="14.00">a</text>
</g>
<!-- http://w3id.org/oseg/ont/okhmeta&#45;&gt;http://spdx.org/rdf/terms#SpdxItem -->
<g id="edge24" class="edge">
<title>http://w3id.org/oseg/ont/okhmeta&#45;&gt;http://spdx.org/rdf/terms#SpdxItem</title>
<path fill="none" stroke="black" d="M1075.65,-925.58C1077.04,-926.64 1078.45,-927.72 1079.87,-928.8"/>
<polygon fill="black" stroke="black" points="1077.89,-931.7 1087.97,-934.98 1082.14,-926.13 1077.89,-931.7"/>
<text text-anchor="middle" x="1073.26" y="-930.99" font-family="Times,serif" font-size="14.00">a</text>
</g>
<!-- http://w3id.org/oseg/ont/okhmeta&#45;&gt;http://w3id.org/oseg/ont/oseg&#45;profiles#Iopa -->
<g id="edge22" class="edge">
<title>http://w3id.org/oseg/ont/okhmeta&#45;&gt;http://w3id.org/oseg/ont/oseg&#45;profiles#Iopa</title>
<path fill="none" stroke="black" d="M1023.33,-894.83C994.72,-881.3 952.43,-861.3 921.24,-846.55"/>
<polygon fill="black" stroke="black" points="922.48,-843.26 911.94,-842.15 919.48,-849.59 922.48,-843.26"/>
<text text-anchor="middle" x="906.78" y="-874.49" font-family="Times,serif" font-size="14.00">dcterms:publisher</text>
</g>
<!-- http://id.loc.gov/vocabulary/iso639&#45;1/en -->
<g id="node17" class="node">
<title>http://id.loc.gov/vocabulary/iso639&#45;1/en</title>
<ellipse fill="none" stroke="#e377c2" cx="1248.53" cy="-888.98" rx="45.01" ry="16.03"/>
<text text-anchor="middle" x="1248.53" y="-885.28" font-family="Times,serif" font-size="14.00">ns2:en</text>
</g>
<!-- http://w3id.org/oseg/ont/okhmeta&#45;&gt;http://id.loc.gov/vocabulary/iso639&#45;1/en -->
<g id="edge31" class="edge">
<title>http://w3id.org/oseg/ont/okhmeta&#45;&gt;http://id.loc.gov/vocabulary/iso639&#45;1/en</title>
<path fill="none" stroke="black" d="M1123.21,-902.46C1146.7,-899.93 1172.66,-897.14 1194.82,-894.75"/>
<polygon fill="black" stroke="black" points="1195.47,-898.2 1205.04,-893.65 1194.73,-891.24 1195.47,-898.2"/>
<text text-anchor="middle" x="1126.77" y="-887.4" font-family="Times,serif" font-size="14.00">dcterms:language</text>
</g>
<!-- http://w3id.org/oseg/ont/oseg&#45;profiles#robinVobruba -->
<g id="node18" class="node">
<title>http://w3id.org/oseg/ont/oseg&#45;profiles#robinVobruba</title>
<ellipse fill="none" stroke="#e377c2" cx="863.57" cy="-989.12" rx="113.69" ry="16.03"/>
<text text-anchor="middle" x="863.57" y="-985.42" font-family="Times,serif" font-size="14.00">osegprof:robinVob...</text>
</g>
<!-- http://w3id.org/oseg/ont/okhmeta&#45;&gt;http://w3id.org/oseg/ont/oseg&#45;profiles#robinVobruba -->
<g id="edge16" class="edge">
<title>http://w3id.org/oseg/ont/okhmeta&#45;&gt;http://w3id.org/oseg/ont/oseg&#45;profiles#robinVobruba</title>
<path fill="none" stroke="black" d="M1008.36,-922.84C974.41,-935.42 929.17,-954.29 898.34,-968.8"/>
<polygon fill="black" stroke="black" points="896.77,-965.68 889.27,-973.15 899.8,-971.99 896.77,-965.68"/>
<text text-anchor="middle" x="895.85" y="-949.62" font-family="Times,serif" font-size="14.00">dcterms:creator</text>
</g>
<!-- http://w3id.org/oseg/ont/okhmeta&#45;&gt;http://w3id.org/oseg/ont/oseg&#45;profiles#robinVobruba -->
<g id="edge34" class="edge">
<title>http://w3id.org/oseg/ont/okhmeta&#45;&gt;http://w3id.org/oseg/ont/oseg&#45;profiles#robinVobruba</title>
<path fill="none" stroke="black" d="M1030.22,-925.3C1003.42,-938.48 959.73,-957.1 923.8,-970.93"/>
<polygon fill="black" stroke="black" points="922.47,-967.69 914.37,-974.52 924.96,-974.24 922.47,-967.69"/>
<text text-anchor="middle" x="949.26" y="-936.92" font-family="Times,serif" font-size="14.00">schema:creator</text>
</g>
<!-- http://spdx.org/licenses/GPL&#45;3.0&#45;or&#45;later -->
<g id="node21" class="node">
<title>http://spdx.org/licenses/GPL&#45;3.0&#45;or&#45;later</title>
<ellipse fill="none" stroke="#e377c2" cx="907.48" cy="-691.39" rx="108.79" ry="16.03"/>
<text text-anchor="middle" x="907.48" y="-687.69" font-family="Times,serif" font-size="14.00">spdxl:GPL&#45;3.0&#45;or&#45;...</text>
</g>
<!-- http://w3id.org/oseg/ont/okhmeta&#45;&gt;http://spdx.org/licenses/GPL&#45;3.0&#45;or&#45;later -->
<g id="edge9" class="edge">
<title>http://w3id.org/oseg/ont/okhmeta&#45;&gt;http://spdx.org/licenses/GPL&#45;3.0&#45;or&#45;later</title>
<path fill="none" stroke="black" d="M1043.89,-893.38C1018.2,-855.34 954.48,-760.99 924.1,-716.01"/>
<polygon fill="black" stroke="black" points="926.99,-714.03 918.49,-707.7 921.19,-717.95 926.99,-714.03"/>
<text text-anchor="middle" x="908" y="-793.5" font-family="Times,serif" font-size="14.00">spdx:licenseDeclared</text>
</g>
<!-- http://w3id.org/oseg/ont/1.1.0/okh&#45;meta -->
<g id="node25" class="node">
<title>http://w3id.org/oseg/ont/1.1.0/okh&#45;meta</title>
<ellipse fill="none" stroke="#e377c2" cx="1096.51" cy="-862.31" rx="79.81" ry="16.03"/>
<text text-anchor="middle" x="1096.51" y="-858.61" font-family="Times,serif" font-size="14.00">ns3:okh&#45;meta</text>
</g>
<!-- http://w3id.org/oseg/ont/okhmeta&#45;&gt;http://w3id.org/oseg/ont/1.1.0/okh&#45;meta -->
<g id="edge42" class="edge">
<title>http://w3id.org/oseg/ont/okhmeta&#45;&gt;http://w3id.org/oseg/ont/1.1.0/okh&#45;meta</title>
<path fill="none" stroke="black" d="M1069.04,-893.72C1071.2,-891.24 1073.48,-888.64 1075.75,-886.04"/>
<polygon fill="black" stroke="black" points="1078.52,-888.2 1082.46,-878.37 1073.25,-883.59 1078.52,-888.2"/>
<text text-anchor="middle" x="1046.65" y="-878.68" font-family="Times,serif" font-size="14.00">owl:versionIRI</text>
</g>
<!-- http://w3id.org/oseg/ont/okhmeta#AcademicTag -->
<g id="node10" class="node">
<title>http://w3id.org/oseg/ont/okhmeta#AcademicTag</title>
<ellipse fill="none" stroke="#e377c2" cx="610.63" cy="-710.9" rx="124.4" ry="16.03"/>
<text text-anchor="middle" x="610.63" y="-707.2" font-family="Times,serif" font-size="14.00">okhmeta:AcademicTag</text>
</g>
<!-- http://w3id.org/oseg/ont/okhmeta#AcademicTag&#45;&gt;http://w3id.org/oseg/ont/okhmeta#Tag -->
<g id="edge25" class="edge">
<title>http://w3id.org/oseg/ont/okhmeta#AcademicTag&#45;&gt;http://w3id.org/oseg/ont/okhmeta#Tag</title>
<path fill="none" stroke="black" d="M593.48,-694.51C555.5,-658.22 464.2,-570.99 420.6,-529.34"/>
<polygon fill="black" stroke="black" points="422.93,-526.73 413.29,-522.35 418.1,-531.79 422.93,-526.73"/>
<text text-anchor="middle" x="502.54" y="-615.73" font-family="Times,serif" font-size="14.00">a</text>
</g>
<!-- http://w3id.org/oseg/ont/okhmeta#AcademicTag&#45;&gt;http://w3id.org/oseg/ont/okhmeta#MetaTag -->
<g id="edge23" class="edge">
<title>http://w3id.org/oseg/ont/okhmeta#AcademicTag&#45;&gt;http://w3id.org/oseg/ont/okhmeta#MetaTag</title>
<path fill="none" stroke="black" d="M596.72,-694.44C560.97,-652.16 465.79,-539.58 423.83,-489.96"/>
<polygon fill="black" stroke="black" points="426.47,-487.66 417.34,-482.28 421.12,-492.18 426.47,-487.66"/>
<text text-anchor="middle" x="433.28" y="-596" font-family="Times,serif" font-size="14.00">okhmeta:hasMetaTag</text>
</g>
<!-- http://www.w3.org/2004/02/skos/core#member -->
<g id="node11" class="node">
<title>http://www.w3.org/2004/02/skos/core#member</title>
<ellipse fill="none" stroke="#e377c2" cx="414.74" cy="-329.05" rx="79.39" ry="16.03"/>
<text text-anchor="middle" x="414.74" y="-325.35" font-family="Times,serif" font-size="14.00">skos:member</text>
</g>
<!-- http://w3id.org/oseg/ont/okhmeta#MakingTag -->
<g id="node12" class="node">
<title>http://w3id.org/oseg/ont/okhmeta#MakingTag</title>
<ellipse fill="none" stroke="#e377c2" cx="397.64" cy="-792.62" rx="113.69" ry="16.03"/>
<text text-anchor="middle" x="397.64" y="-788.92" font-family="Times,serif" font-size="14.00">okhmeta:MakingTag</text>
</g>
<!-- http://w3id.org/oseg/ont/okhmeta#MakingTag&#45;&gt;http://w3id.org/oseg/ont/okhmeta#Tag -->
<g id="edge28" class="edge">
<title>http://w3id.org/oseg/ont/okhmeta#MakingTag&#45;&gt;http://w3id.org/oseg/ont/okhmeta#Tag</title>
<path fill="none" stroke="black" d="M397.58,-776C397.42,-728.37 396.94,-591.11 396.74,-532.98"/>
<polygon fill="black" stroke="black" points="400.24,-532.76 396.7,-522.77 393.24,-532.78 400.24,-532.76"/>
<text text-anchor="middle" x="392.66" y="-658.29" font-family="Times,serif" font-size="14.00">a</text>
</g>
<!-- http://w3id.org/oseg/ont/okhmeta#MakingTag&#45;&gt;http://w3id.org/oseg/ont/okhmeta#MetaTag -->
<g id="edge3" class="edge">
<title>http://w3id.org/oseg/ont/okhmeta#MakingTag&#45;&gt;http://w3id.org/oseg/ont/okhmeta#MetaTag</title>
<path fill="none" stroke="black" d="M397.94,-775.97C398.89,-722.99 401.84,-557.98 403,-492.79"/>
<polygon fill="black" stroke="black" points="406.51,-492.58 403.19,-482.52 399.51,-492.45 406.51,-492.58"/>
<text text-anchor="middle" x="361.97" y="-623.18" font-family="Times,serif" font-size="14.00">okhmeta:hasMetaTag</text>
</g>
<!-- http://w3id.org/oseg/ont/okhmeta#QualityTag -->
<g id="node13" class="node">
<title>http://w3id.org/oseg/ont/okhmeta#QualityTag</title>
<ellipse fill="none" stroke="#e377c2" cx="604.64" cy="-283.83" rx="113.27" ry="16.03"/>
<text text-anchor="middle" x="604.64" y="-280.13" font-family="Times,serif" font-size="14.00">okhmeta:QualityTag</text>
</g>
<!-- http://w3id.org/oseg/ont/okhmeta#QualityTag&#45;&gt;http://w3id.org/oseg/ont/okhmeta#Tag -->
<g id="edge2" class="edge">
<title>http://w3id.org/oseg/ont/okhmeta#QualityTag&#45;&gt;http://w3id.org/oseg/ont/okhmeta#Tag</title>
<path fill="none" stroke="black" d="M589.34,-300.2C552.97,-339.13 461.18,-437.38 418.77,-482.78"/>
<polygon fill="black" stroke="black" points="415.95,-480.67 411.68,-490.36 421.07,-485.44 415.95,-480.67"/>
<text text-anchor="middle" x="499.55" y="-395.29" font-family="Times,serif" font-size="14.00">a</text>
</g>
<!-- http://w3id.org/oseg/ont/okhmeta#QualityTag&#45;&gt;http://w3id.org/oseg/ont/okhmeta#MetaTag -->
<g id="edge14" class="edge">
<title>http://w3id.org/oseg/ont/okhmeta#QualityTag&#45;&gt;http://w3id.org/oseg/ont/okhmeta#MetaTag</title>
<path fill="none" stroke="black" d="M586.79,-299.98C550.93,-332.44 470.04,-405.65 428.76,-443.02"/>
<polygon fill="black" stroke="black" points="426.36,-440.47 421.29,-449.78 431.06,-445.66 426.36,-440.47"/>
<text text-anchor="middle" x="584.77" y="-360.3" font-family="Times,serif" font-size="14.00">okhmeta:hasMetaTag</text>
</g>
<!-- http://w3id.org/oseg/ont/okhmeta#DocumentationTag -->
<g id="node14" class="node">
<title>http://w3id.org/oseg/ont/okhmeta#DocumentationTag</title>
<ellipse fill="none" stroke="#e377c2" cx="168.39" cy="-293.65" rx="125.32" ry="16.03"/>
<text text-anchor="middle" x="168.39" y="-289.95" font-family="Times,serif" font-size="14.00">okhmeta:Documenta...</text>
</g>
<!-- http://w3id.org/oseg/ont/okhmeta#DocumentationTag&#45;&gt;http://w3id.org/oseg/ont/okhmeta#Tag -->
<g id="edge29" class="edge">
<title>http://w3id.org/oseg/ont/okhmeta#DocumentationTag&#45;&gt;http://w3id.org/oseg/ont/okhmeta#Tag</title>
<path fill="none" stroke="black" d="M185.92,-309.99C226.19,-347.53 325.37,-440 371.85,-483.34"/>
<polygon fill="black" stroke="black" points="369.67,-486.09 379.37,-490.35 374.44,-480.97 369.67,-486.09"/>
<text text-anchor="middle" x="274.39" y="-400.47" font-family="Times,serif" font-size="14.00">a</text>
</g>
<!-- http://w3id.org/oseg/ont/okhmeta#DocumentationTag&#45;&gt;http://w3id.org/oseg/ont/okhmeta#MetaTag -->
<g id="edge27" class="edge">
<title>http://w3id.org/oseg/ont/okhmeta#DocumentationTag&#45;&gt;http://w3id.org/oseg/ont/okhmeta#MetaTag</title>
<path fill="none" stroke="black" d="M190.51,-309.85C232.89,-340.9 325.56,-408.81 373.47,-443.91"/>
<polygon fill="black" stroke="black" points="371.46,-446.78 381.6,-449.86 375.6,-441.13 371.46,-446.78"/>
<text text-anchor="middle" x="204.99" y="-365.68" font-family="Times,serif" font-size="14.00">okhmeta:hasMetaTag</text>
</g>
<!-- http://w3id.org/oseg/ont/okhmeta#LegalTag -->
<g id="node15" class="node">
<title>http://w3id.org/oseg/ont/okhmeta#LegalTag</title>
<ellipse fill="none" stroke="#e377c2" cx="676.54" cy="-464.61" rx="103.89" ry="16.03"/>
<text text-anchor="middle" x="676.54" y="-460.91" font-family="Times,serif" font-size="14.00">okhmeta:LegalTag</text>
</g>
<!-- http://w3id.org/oseg/ont/okhmeta#LegalTag&#45;&gt;http://w3id.org/oseg/ont/okhmeta#Tag -->
<g id="edge30" class="edge">
<title>http://w3id.org/oseg/ont/okhmeta#LegalTag&#45;&gt;http://w3id.org/oseg/ont/okhmeta#Tag</title>
<path fill="none" stroke="black" d="M601.17,-475.88C560.27,-481.99 509.94,-489.52 469.45,-495.57"/>
<polygon fill="black" stroke="black" points="468.75,-492.14 459.38,-497.08 469.79,-499.06 468.75,-492.14"/>
<text text-anchor="middle" x="530.81" y="-489.52" font-family="Times,serif" font-size="14.00">a</text>
</g>
<!-- http://w3id.org/oseg/ont/okhmeta#LegalTag&#45;&gt;http://w3id.org/oseg/ont/okhmeta#MetaTag -->
<g id="edge39" class="edge">
<title>http://w3id.org/oseg/ont/okhmeta#LegalTag&#45;&gt;http://w3id.org/oseg/ont/okhmeta#MetaTag</title>
<path fill="none" stroke="black" d="M572.53,-465.1C554.22,-465.19 535.08,-465.28 516.53,-465.37"/>
<polygon fill="black" stroke="black" points="516.29,-461.87 506.3,-465.41 516.32,-468.87 516.29,-461.87"/>
<text text-anchor="middle" x="506.03" y="-454.03" font-family="Times,serif" font-size="14.00">okhmeta:hasMetaTag</text>
</g>
<!-- http://w3id.org/oseg/ont/okhmeta#HistoryTag -->
<g id="node16" class="node">
<title>http://w3id.org/oseg/ont/okhmeta#HistoryTag</title>
<ellipse fill="none" stroke="#e377c2" cx="482.72" cy="-213" rx="113.69" ry="16.03"/>
<text text-anchor="middle" x="482.72" y="-209.3" font-family="Times,serif" font-size="14.00">okhmeta:HistoryTag</text>
</g>
<!-- http://w3id.org/oseg/ont/okhmeta#HistoryTag&#45;&gt;http://w3id.org/oseg/ont/okhmeta#Tag -->
<g id="edge4" class="edge">
<title>http://w3id.org/oseg/ont/okhmeta#HistoryTag&#45;&gt;http://w3id.org/oseg/ont/okhmeta#Tag</title>
<path fill="none" stroke="black" d="M477.85,-229.62C463.56,-278.34 421.67,-421.13 404.32,-480.3"/>
<polygon fill="black" stroke="black" points="400.92,-479.44 401.47,-490.02 407.64,-481.41 400.92,-479.44"/>
<text text-anchor="middle" x="436.58" y="-343.76" font-family="Times,serif" font-size="14.00">a</text>
</g>
<!-- http://w3id.org/oseg/ont/okhmeta#HistoryTag&#45;&gt;http://w3id.org/oseg/ont/okhmeta#MetaTag -->
<g id="edge13" class="edge">
<title>http://w3id.org/oseg/ont/okhmeta#HistoryTag&#45;&gt;http://w3id.org/oseg/ont/okhmeta#MetaTag</title>
<path fill="none" stroke="black" d="M477.52,-229.59C464.06,-272.57 427.97,-387.75 411.67,-439.77"/>
<polygon fill="black" stroke="black" points="408.25,-438.99 408.6,-449.58 414.93,-441.08 408.25,-438.99"/>
<text text-anchor="middle" x="521.6" y="-338.48" font-family="Times,serif" font-size="14.00">okhmeta:hasMetaTag</text>
</g>
<!-- http://w3id.org/oseg/ont/okhmeta#hasMetaTag -->
<g id="node19" class="node">
<title>http://w3id.org/oseg/ont/okhmeta#hasMetaTag</title>
<ellipse fill="none" stroke="#e377c2" cx="411.88" cy="-371.1" rx="120.42" ry="16.03"/>
<text text-anchor="middle" x="411.88" y="-367.4" font-family="Times,serif" font-size="14.00">okhmeta:hasMetaTag</text>
</g>
<!-- http://w3id.org/oseg/ont/okhmeta#hasMetaTag&#45;&gt;http://www.w3.org/2004/02/skos/core#Concept -->
<g id="edge7" class="edge">
<title>http://w3id.org/oseg/ont/okhmeta#hasMetaTag&#45;&gt;http://www.w3.org/2004/02/skos/core#Concept</title>
<path fill="none" stroke="black" d="M514.2,-379.71C523.7,-380.51 533.25,-381.32 542.55,-382.1"/>
<polygon fill="black" stroke="black" points="542.26,-385.59 552.52,-382.94 542.85,-378.61 542.26,-385.59"/>
<text text-anchor="middle" x="532.87" y="-384.71" font-family="Times,serif" font-size="14.00">a</text>
</g>
<!-- http://w3id.org/oseg/ont/okhmeta#hasMetaTag&#45;&gt;http://www.w3.org/2002/07/owl#ObjectProperty -->
<g id="edge11" class="edge">
<title>http://w3id.org/oseg/ont/okhmeta#hasMetaTag&#45;&gt;http://www.w3.org/2002/07/owl#ObjectProperty</title>
<path fill="none" stroke="black" d="M412.98,-354.48C416.74,-297.98 429.06,-112.95 433.68,-43.45"/>
<polygon fill="black" stroke="black" points="437.18,-43.54 434.35,-33.33 430.2,-43.07 437.18,-43.54"/>
<text text-anchor="middle" x="418.83" y="-187.77" font-family="Times,serif" font-size="14.00">a</text>
</g>
<!-- http://w3id.org/oseg/ont/okhmeta#hasMetaTag&#45;&gt;http://w3id.org/oseg/ont/okhmeta#MetaTag -->
<g id="edge36" class="edge">
<title>http://w3id.org/oseg/ont/okhmeta#hasMetaTag&#45;&gt;http://w3id.org/oseg/ont/okhmeta#MetaTag</title>
<path fill="none" stroke="black" d="M405.08,-387.58C402.21,-401.85 400.1,-422.77 399.71,-439.39"/>
<polygon fill="black" stroke="black" points="396.21,-439.59 399.72,-449.59 403.21,-439.59 396.21,-439.59"/>
<text text-anchor="middle" x="402.4" y="-402.28" font-family="Times,serif" font-size="14.00">dcam:rangeIncludes</text>
</g>
<!-- http://w3id.org/oseg/ont/okhmeta#hasMetaTag&#45;&gt;http://w3id.org/oseg/ont/okhmeta#MetaTag -->
<g id="edge37" class="edge">
<title>http://w3id.org/oseg/ont/okhmeta#hasMetaTag&#45;&gt;http://w3id.org/oseg/ont/okhmeta#MetaTag</title>
<path fill="none" stroke="black" d="M415.65,-387.64C416.05,-401.91 414.52,-422.79 412.02,-439.39"/>
<polygon fill="black" stroke="black" points="408.51,-439.12 410.25,-449.57 415.41,-440.32 408.51,-439.12"/>
<text text-anchor="middle" x="336.84" y="-417.31" font-family="Times,serif" font-size="14.00">okhmeta:hasMetaTag</text>
</g>
<!-- http://w3id.org/oseg/ont/okhmeta#hasMetaTag&#45;&gt;http://www.w3.org/2004/02/skos/core#member -->
<g id="edge26" class="edge">
<title>http://w3id.org/oseg/ont/okhmeta#hasMetaTag&#45;&gt;http://www.w3.org/2004/02/skos/core#member</title>
<path fill="none" stroke="black" d="M413.01,-354.48C413.01,-354.39 413.02,-354.3 413.03,-354.2"/>
<polygon fill="black" stroke="black" points="416.43,-355.76 413.62,-345.55 409.45,-355.29 416.43,-355.76"/>
<text text-anchor="middle" x="360.02" y="-343.14" font-family="Times,serif" font-size="14.00">subPropertyOf</text>
</g>
<!-- http://w3id.org/oseg/ont/okhmeta#PhysicalTag -->
<g id="node20" class="node">
<title>http://w3id.org/oseg/ont/okhmeta#PhysicalTag</title>
<ellipse fill="none" stroke="#e377c2" cx="541.76" cy="-751.97" rx="118.17" ry="16.03"/>
<text text-anchor="middle" x="541.76" y="-748.27" font-family="Times,serif" font-size="14.00">okhmeta:PhysicalTag</text>
</g>
<!-- http://w3id.org/oseg/ont/okhmeta#PhysicalTag&#45;&gt;http://w3id.org/oseg/ont/okhmeta#Tag -->
<g id="edge38" class="edge">
<title>http://w3id.org/oseg/ont/okhmeta#PhysicalTag&#45;&gt;http://w3id.org/oseg/ont/okhmeta#Tag</title>
<path fill="none" stroke="black" d="M532.01,-735.48C507.12,-693.38 441.11,-581.69 411.45,-531.5"/>
<polygon fill="black" stroke="black" points="414.45,-529.7 406.35,-522.88 408.43,-533.26 414.45,-529.7"/>
<text text-anchor="middle" x="467.23" y="-637.29" font-family="Times,serif" font-size="14.00">a</text>
</g>
<!-- http://w3id.org/oseg/ont/okhmeta#PhysicalTag&#45;&gt;http://w3id.org/oseg/ont/okhmeta#MetaTag -->
<g id="edge47" class="edge">
<title>http://w3id.org/oseg/ont/okhmeta#PhysicalTag&#45;&gt;http://w3id.org/oseg/ont/okhmeta#MetaTag</title>
<path fill="none" stroke="black" d="M533.72,-735.36C510.57,-687.45 443.56,-548.81 415.78,-491.34"/>
<polygon fill="black" stroke="black" points="418.87,-489.69 411.37,-482.21 412.57,-492.73 418.87,-489.69"/>
<text text-anchor="middle" x="551.75" y="-602.15" font-family="Times,serif" font-size="14.00">okhmeta:hasMetaTag</text>
</g>
<!-- http://w3id.org/oseg/ont/okhmeta#DevelopmentTag -->
<g id="node22" class="node">
<title>http://w3id.org/oseg/ont/okhmeta#DevelopmentTag</title>
<ellipse fill="none" stroke="#e377c2" cx="698.61" cy="-560.82" rx="124.4" ry="16.03"/>
<text text-anchor="middle" x="698.61" y="-557.12" font-family="Times,serif" font-size="14.00">okhmeta:Developme...</text>
</g>
<!-- http://w3id.org/oseg/ont/okhmeta#DevelopmentTag&#45;&gt;http://w3id.org/oseg/ont/okhmeta#Tag -->
<g id="edge10" class="edge">
<title>http://w3id.org/oseg/ont/okhmeta#DevelopmentTag&#45;&gt;http://w3id.org/oseg/ont/okhmeta#Tag</title>
<path fill="none" stroke="black" d="M625.13,-547.59C576.4,-538.82 512.89,-527.38 465.2,-518.8"/>
<polygon fill="black" stroke="black" points="465.74,-515.34 455.27,-517.01 464.49,-522.23 465.74,-515.34"/>
<text text-anchor="middle" x="540.66" y="-536.99" font-family="Times,serif" font-size="14.00">a</text>
</g>
<!-- http://w3id.org/oseg/ont/okhmeta#DevelopmentTag&#45;&gt;http://w3id.org/oseg/ont/okhmeta#MetaTag -->
<g id="edge21" class="edge">
<title>http://w3id.org/oseg/ont/okhmeta#DevelopmentTag&#45;&gt;http://w3id.org/oseg/ont/okhmeta#MetaTag</title>
<path fill="none" stroke="black" d="M651.52,-545.67C599.02,-528.79 514.19,-501.51 458.63,-483.64"/>
<polygon fill="black" stroke="black" points="459.54,-480.25 448.95,-480.52 457.4,-486.92 459.54,-480.25"/>
<text text-anchor="middle" x="632.08" y="-518.45" font-family="Times,serif" font-size="14.00">okhmeta:hasMetaTag</text>
</g>
<!-- http://w3id.org/oseg/ont/okhmeta#BasicTag -->
<g id="node23" class="node">
<title>http://w3id.org/oseg/ont/okhmeta#BasicTag</title>
<ellipse fill="none" stroke="#e377c2" cx="627.84" cy="-627.32" rx="103.48" ry="16.03"/>
<text text-anchor="middle" x="627.84" y="-623.62" font-family="Times,serif" font-size="14.00">okhmeta:BasicTag</text>
</g>
<!-- http://w3id.org/oseg/ont/okhmeta#BasicTag&#45;&gt;http://w3id.org/oseg/ont/okhmeta#Tag -->
<g id="edge12" class="edge">
<title>http://w3id.org/oseg/ont/okhmeta#BasicTag&#45;&gt;http://w3id.org/oseg/ont/okhmeta#Tag</title>
<path fill="none" stroke="black" d="M597.62,-611.52C555.82,-589.67 480.38,-550.23 434.77,-526.38"/>
<polygon fill="black" stroke="black" points="436.27,-523.22 425.78,-521.69 433.02,-529.42 436.27,-523.22"/>
<text text-anchor="middle" x="511.69" y="-572.75" font-family="Times,serif" font-size="14.00">a</text>
</g>
<!-- http://w3id.org/oseg/ont/okhmeta#BasicTag&#45;&gt;http://w3id.org/oseg/ont/okhmeta#MetaTag -->
<g id="edge20" class="edge">
<title>http://w3id.org/oseg/ont/okhmeta#BasicTag&#45;&gt;http://w3id.org/oseg/ont/okhmeta#MetaTag</title>
<path fill="none" stroke="black" d="M605.51,-611.25C565.11,-582.18 479.84,-520.83 434.06,-487.9"/>
<polygon fill="black" stroke="black" points="435.89,-484.9 425.73,-481.9 431.8,-490.59 435.89,-484.9"/>
<text text-anchor="middle" x="442.78" y="-553.38" font-family="Times,serif" font-size="14.00">okhmeta:hasMetaTag</text>
</g>
<!-- http://w3id.org/oseg/ont/okhmeta#ExtendedInfoTag -->
<g id="node24" class="node">
<title>http://w3id.org/oseg/ont/okhmeta#ExtendedInfoTag</title>
<ellipse fill="none" stroke="#e377c2" cx="120.14" cy="-382.27" rx="120.42" ry="16.03"/>
<text text-anchor="middle" x="120.14" y="-378.57" font-family="Times,serif" font-size="14.00">okhmeta:ExtendedI...</text>
</g>
<!-- http://w3id.org/oseg/ont/okhmeta#ExtendedInfoTag&#45;&gt;http://w3id.org/oseg/ont/okhmeta#Tag -->
<g id="edge48" class="edge">
<title>http://w3id.org/oseg/ont/okhmeta#ExtendedInfoTag&#45;&gt;http://w3id.org/oseg/ont/okhmeta#Tag</title>
<path fill="none" stroke="black" d="M154.88,-397.87C205.51,-420.61 299.47,-462.81 354.15,-487.37"/>
<polygon fill="black" stroke="black" points="353,-490.69 363.56,-491.6 355.87,-484.31 353,-490.69"/>
<text text-anchor="middle" x="250.01" y="-446.42" font-family="Times,serif" font-size="14.00">a</text>
</g>
<!-- http://w3id.org/oseg/ont/okhmeta#ExtendedInfoTag&#45;&gt;http://w3id.org/oseg/ont/okhmeta#MetaTag -->
<g id="edge6" class="edge">
<title>http://w3id.org/oseg/ont/okhmeta#ExtendedInfoTag&#45;&gt;http://w3id.org/oseg/ont/okhmeta#MetaTag</title>
<path fill="none" stroke="black" d="M170.47,-397.13C219.32,-411.55 293.44,-433.42 344.91,-448.61"/>
<polygon fill="black" stroke="black" points="343.99,-451.99 354.57,-451.46 345.97,-445.28 343.99,-451.99"/>
<text text-anchor="middle" x="180.69" y="-426.67" font-family="Times,serif" font-size="14.00">okhmeta:hasMetaTag</text>
</g>
<!-- http://w3id.org/oseg/ont/okhmeta#IdentificationTag -->
<g id="node26" class="node">
<title>http://w3id.org/oseg/ont/okhmeta#IdentificationTag</title>
<ellipse fill="none" stroke="#e377c2" cx="121.24" cy="-560.77" rx="109.7" ry="16.03"/>
<text text-anchor="middle" x="121.24" y="-557.07" font-family="Times,serif" font-size="14.00">okhmeta:Identific...</text>
</g>
<!-- http://w3id.org/oseg/ont/okhmeta#IdentificationTag&#45;&gt;http://w3id.org/oseg/ont/okhmeta#Tag -->
<g id="edge43" class="edge">
<title>http://w3id.org/oseg/ont/okhmeta#IdentificationTag&#45;&gt;http://w3id.org/oseg/ont/okhmeta#Tag</title>
<path fill="none" stroke="black" d="M187.21,-547.76C230.61,-539.2 287.21,-528.04 330.62,-519.48"/>
<polygon fill="black" stroke="black" points="331.38,-522.89 340.52,-517.53 330.03,-516.03 331.38,-522.89"/>
<text text-anchor="middle" x="254.42" y="-537.42" font-family="Times,serif" font-size="14.00">a</text>
</g>
<!-- http://w3id.org/oseg/ont/okhmeta#IdentificationTag&#45;&gt;http://w3id.org/oseg/ont/okhmeta#MetaTag -->
<g id="edge41" class="edge">
<title>http://w3id.org/oseg/ont/okhmeta#IdentificationTag&#45;&gt;http://w3id.org/oseg/ont/okhmeta#MetaTag</title>
<path fill="none" stroke="black" d="M165.65,-545.84C215.49,-529.09 296.33,-501.92 349.7,-483.98"/>
<polygon fill="black" stroke="black" points="350.97,-487.25 359.33,-480.74 348.74,-480.61 350.97,-487.25"/>
<text text-anchor="middle" x="180.68" y="-518.71" font-family="Times,serif" font-size="14.00">okhmeta:hasMetaTag</text>
</g>
<!-- http://w3id.org/oseg/ont/okhmeta#DataGatheringTag -->
<g id="node27" class="node">
<title>http://w3id.org/oseg/ont/okhmeta#DataGatheringTag</title>
<ellipse fill="none" stroke="#e377c2" cx="194" cy="-710.93" rx="122.16" ry="16.03"/>
<text text-anchor="middle" x="194" y="-707.23" font-family="Times,serif" font-size="14.00">okhmeta:DataGathe...</text>
</g>
<!-- http://w3id.org/oseg/ont/okhmeta#DataGatheringTag&#45;&gt;http://w3id.org/oseg/ont/okhmeta#Tag -->
<g id="edge44" class="edge">
<title>http://w3id.org/oseg/ont/okhmeta#DataGatheringTag&#45;&gt;http://w3id.org/oseg/ont/okhmeta#Tag</title>
<path fill="none" stroke="black" d="M210.24,-694.55C246.05,-658.41 331.89,-571.79 373.4,-529.92"/>
<polygon fill="black" stroke="black" points="376.06,-532.2 380.61,-522.64 371.08,-527.28 376.06,-532.2"/>
<text text-anchor="middle" x="287.32" y="-601.03" font-family="Times,serif" font-size="14.00">a</text>
</g>
<!-- http://w3id.org/oseg/ont/okhmeta#DataGatheringTag&#45;&gt;http://w3id.org/oseg/ont/okhmeta#MetaTag -->
<g id="edge1" class="edge">
<title>http://w3id.org/oseg/ont/okhmeta#DataGatheringTag&#45;&gt;http://w3id.org/oseg/ont/okhmeta#MetaTag</title>
<path fill="none" stroke="black" d="M208.07,-694.48C244.22,-652.19 340.48,-539.6 382.91,-489.97"/>
<polygon fill="black" stroke="black" points="385.64,-492.16 389.48,-482.29 380.32,-487.61 385.64,-492.16"/>
<text text-anchor="middle" x="218.49" y="-581.02" font-family="Times,serif" font-size="14.00">okhmeta:hasMetaTag</text>
</g>
<!-- http://w3id.org/oseg/ont/okhmeta#PartsTag -->
<g id="node28" class="node">
<title>http://w3id.org/oseg/ont/okhmeta#PartsTag</title>
<ellipse fill="none" stroke="#e377c2" cx="173.37" cy="-632.36" rx="103.48" ry="16.03"/>
<text text-anchor="middle" x="173.37" y="-628.66" font-family="Times,serif" font-size="14.00">okhmeta:PartsTag</text>
</g>
<!-- http://w3id.org/oseg/ont/okhmeta#PartsTag&#45;&gt;http://w3id.org/oseg/ont/okhmeta#Tag -->
<g id="edge18" class="edge">
<title>http://w3id.org/oseg/ont/okhmeta#PartsTag&#45;&gt;http://w3id.org/oseg/ont/okhmeta#Tag</title>
<path fill="none" stroke="black" d="M201.2,-616.67C241.55,-593.91 316.34,-551.74 360.79,-526.68"/>
<polygon fill="black" stroke="black" points="362.53,-529.71 369.52,-521.75 359.09,-523.62 362.53,-529.71"/>
<text text-anchor="middle" x="276.49" y="-560.47" font-family="Times,serif" font-size="14.00">a</text>
</g>
<!-- http://w3id.org/oseg/ont/okhmeta#PartsTag&#45;&gt;http://w3id.org/oseg/ont/okhmeta#MetaTag -->
<g id="edge33" class="edge">
<title>http://w3id.org/oseg/ont/okhmeta#PartsTag&#45;&gt;http://w3id.org/oseg/ont/okhmeta#MetaTag</title>
<path fill="none" stroke="black" d="M195.44,-616.4C236.84,-586.45 326.24,-521.78 373.23,-487.79"/>
<polygon fill="black" stroke="black" points="375.44,-490.51 381.49,-481.81 371.33,-484.84 375.44,-490.51"/>
<text text-anchor="middle" x="322.83" y="-540.89" font-family="Times,serif" font-size="14.00">okhmeta:hasMetaTag</text>
</g>
<!-- http://w3id.org/oseg/ont/okhmeta#TransportationTag -->
<g id="node29" class="node">
<title>http://w3id.org/oseg/ont/okhmeta#TransportationTag</title>
<ellipse fill="none" stroke="#e377c2" cx="241.9" cy="-238.72" rx="118.17" ry="16.03"/>
<text text-anchor="middle" x="241.9" y="-235.02" font-family="Times,serif" font-size="14.00">okhmeta:Transport...</text>
</g>
<!-- http://w3id.org/oseg/ont/okhmeta#TransportationTag&#45;&gt;http://w3id.org/oseg/ont/okhmeta#Tag -->
<g id="edge19" class="edge">
<title>http://w3id.org/oseg/ont/okhmeta#TransportationTag&#45;&gt;http://w3id.org/oseg/ont/okhmeta#Tag</title>
<path fill="none" stroke="black" d="M251.35,-255.07C277.41,-300.16 350.47,-426.56 381.93,-480.99"/>
<polygon fill="black" stroke="black" points="379.09,-483.08 387.13,-489.99 385.15,-479.58 379.09,-483.08"/>
<text text-anchor="middle" x="312.14" y="-371.83" font-family="Times,serif" font-size="14.00">a</text>
</g>
<!-- http://w3id.org/oseg/ont/okhmeta#TransportationTag&#45;&gt;http://w3id.org/oseg/ont/okhmeta#MetaTag -->
<g id="edge35" class="edge">
<title>http://w3id.org/oseg/ont/okhmeta#TransportationTag&#45;&gt;http://w3id.org/oseg/ont/okhmeta#MetaTag</title>
<path fill="none" stroke="black" d="M253.52,-255.06C281.53,-294.44 352.89,-394.77 386.06,-441.4"/>
<polygon fill="black" stroke="black" points="383.32,-443.59 391.97,-449.71 389.02,-439.53 383.32,-443.59"/>
<text text-anchor="middle" x="242.79" y="-337.03" font-family="Times,serif" font-size="14.00">okhmeta:hasMetaTag</text>
</g>
<!-- http://w3id.org/oseg/ont/okhmeta#DataTag -->
<g id="node30" class="node">
<title>http://w3id.org/oseg/ont/okhmeta#DataTag</title>
<ellipse fill="none" stroke="#e377c2" cx="132.99" cy="-472.24" rx="100.32" ry="16.03"/>
<text text-anchor="middle" x="132.99" y="-468.54" font-family="Times,serif" font-size="14.00">okhmeta:DataTag</text>
</g>
<!-- http://w3id.org/oseg/ont/okhmeta#DataTag&#45;&gt;http://w3id.org/oseg/ont/okhmeta#Tag -->
<g id="edge17" class="edge">
<title>http://w3id.org/oseg/ont/okhmeta#DataTag&#45;&gt;http://w3id.org/oseg/ont/okhmeta#Tag</title>
<path fill="none" stroke="black" d="M211.38,-482.41C246.06,-486.91 286.67,-492.19 321.02,-496.64"/>
<polygon fill="black" stroke="black" points="320.63,-500.12 331,-497.94 321.54,-493.18 320.63,-500.12"/>
<text text-anchor="middle" x="261.7" y="-493.33" font-family="Times,serif" font-size="14.00">a</text>
</g>
<!-- http://w3id.org/oseg/ont/okhmeta#DataTag&#45;&gt;http://w3id.org/oseg/ont/okhmeta#MetaTag -->
<g id="edge46" class="edge">
<title>http://w3id.org/oseg/ont/okhmeta#DataTag&#45;&gt;http://w3id.org/oseg/ont/okhmeta#MetaTag</title>
<path fill="none" stroke="black" d="M232.56,-469.91C251.8,-469.46 272.08,-468.98 291.68,-468.52"/>
<polygon fill="black" stroke="black" points="291.94,-472.02 301.86,-468.28 291.78,-465.02 291.94,-472.02"/>
<text text-anchor="middle" x="339.12" y="-473.01" font-family="Times,serif" font-size="14.00">okhmeta:hasMetaTag</text>
</g>
</g>
</svg>
