<?xml version="1.0" encoding="UTF-8" standalone="no"?>
<!DOCTYPE svg PUBLIC "-//W3C//DTD SVG 1.1//EN"
 "http://www.w3.org/Graphics/SVG/1.1/DTD/svg11.dtd">
<!-- Generated by graphviz version 2.43.0 (0)
 -->
<!-- Title: G Pages: 1 -->
<svg width="1751pt" height="1021pt"
 viewBox="0.00 0.00 1751.00 1021.00" xmlns="http://www.w3.org/2000/svg" xmlns:xlink="http://www.w3.org/1999/xlink">
<g id="graph0" class="graph" transform="scale(1 1) rotate(0) translate(4 1017)">
<title>G</title>
<polygon fill="white" stroke="transparent" points="-4,4 -4,-1017 1747,-1017 1747,4 -4,4"/>
<!-- http://www.w3.org/2004/02/skos/core#Concept -->
<g id="node1" class="node">
<title>http://www.w3.org/2004/02/skos/core#Concept</title>
<ellipse fill="none" stroke="#1f77b4" cx="658.72" cy="-508.39" rx="78.48" ry="16.03"/>
<text text-anchor="middle" x="658.72" y="-504.69" font-family="Times,serif" font-size="14.00">skos:Concept</text>
</g>
<!-- http://www.w3.org/2002/07/owl#Ontology -->
<g id="node2" class="node">
<title>http://www.w3.org/2002/07/owl#Ontology</title>
<ellipse fill="none" stroke="#1f77b4" cx="1265.31" cy="-195.5" rx="77.56" ry="16.03"/>
<text text-anchor="middle" x="1265.31" y="-191.8" font-family="Times,serif" font-size="14.00">owl:Ontology</text>
</g>
<!-- http://spdx.org/rdf/terms#SpdxItem -->
<g id="node3" class="node">
<title>http://spdx.org/rdf/terms#SpdxItem</title>
<ellipse fill="none" stroke="#1f77b4" cx="1605.74" cy="-350.4" rx="87.86" ry="16.03"/>
<text text-anchor="middle" x="1605.74" y="-346.7" font-family="Times,serif" font-size="14.00">spdx:SpdxItem</text>
</g>
<!-- http://w3id.org/oseg/ont/okhmeta#Tag -->
<g id="node4" class="node">
<title>http://w3id.org/oseg/ont/okhmeta#Tag</title>
<ellipse fill="none" stroke="#e377c2" cx="925.36" cy="-689.11" rx="76.24" ry="16.03"/>
<text text-anchor="middle" x="925.36" y="-685.41" font-family="Times,serif" font-size="14.00">okhmeta:Tag</text>
</g>
<!-- http://w3id.org/oseg/ont/okhmeta#Tag&#45;&gt;http://www.w3.org/2004/02/skos/core#Concept -->
<g id="edge18" class="edge">
<title>http://w3id.org/oseg/ont/okhmeta#Tag&#45;&gt;http://www.w3.org/2004/02/skos/core#Concept</title>
<path fill="none" stroke="black" d="M902.16,-673.38C854.27,-640.93 744.43,-566.48 690.19,-529.72"/>
<polygon fill="black" stroke="black" points="691.91,-526.66 681.67,-523.95 687.98,-532.46 691.91,-526.66"/>
<text text-anchor="middle" x="791.68" y="-605.35" font-family="Times,serif" font-size="14.00">a</text>
</g>
<!-- http://www.w3.org/2004/02/skos/core#Collection -->
<g id="node5" class="node">
<title>http://www.w3.org/2004/02/skos/core#Collection</title>
<ellipse fill="none" stroke="#e377c2" cx="778.2" cy="-389.97" rx="87.86" ry="16.03"/>
<text text-anchor="middle" x="778.2" y="-386.27" font-family="Times,serif" font-size="14.00">skos:Collection</text>
</g>
<!-- http://w3id.org/oseg/ont/okhmeta#Tag&#45;&gt;http://www.w3.org/2004/02/skos/core#Collection -->
<g id="edge1" class="edge">
<title>http://w3id.org/oseg/ont/okhmeta#Tag&#45;&gt;http://www.w3.org/2004/02/skos/core#Collection</title>
<path fill="none" stroke="black" d="M917.24,-672.6C892.87,-623.05 820.23,-475.4 790.79,-415.57"/>
<polygon fill="black" stroke="black" points="793.85,-413.85 786.29,-406.43 787.57,-416.94 793.85,-413.85"/>
</g>
<!-- http://w3id.org/oseg/ont/okhmeta#MetaTag -->
<g id="node7" class="node">
<title>http://w3id.org/oseg/ont/okhmeta#MetaTag</title>
<ellipse fill="none" stroke="#e377c2" cx="878.65" cy="-648.35" rx="102.56" ry="16.03"/>
<text text-anchor="middle" x="878.65" y="-644.65" font-family="Times,serif" font-size="14.00">okhmeta:MetaTag</text>
</g>
<!-- http://w3id.org/oseg/ont/okhmeta#Tag&#45;&gt;http://w3id.org/oseg/ont/okhmeta#MetaTag -->
<g id="edge7" class="edge">
<title>http://w3id.org/oseg/ont/okhmeta#Tag&#45;&gt;http://w3id.org/oseg/ont/okhmeta#MetaTag</title>
<path fill="none" stroke="black" d="M916.15,-672.9C915.54,-672.26 914.92,-671.62 914.27,-670.97"/>
<polygon fill="black" stroke="black" points="916.59,-668.34 906.91,-664.05 911.8,-673.44 916.59,-668.34"/>
<text text-anchor="middle" x="992.21" y="-660.73" font-family="Times,serif" font-size="14.00">okhmeta:hasMetaTag</text>
</g>
<!-- http://www.w3.org/2002/07/owl#ObjectProperty -->
<g id="node6" class="node">
<title>http://www.w3.org/2002/07/owl#ObjectProperty</title>
<ellipse fill="none" stroke="#1f77b4" cx="109.71" cy="-185.64" rx="109.7" ry="16.03"/>
<text text-anchor="middle" x="109.71" y="-181.94" font-family="Times,serif" font-size="14.00">owl:ObjectProperty</text>
</g>
<!-- http://w3id.org/oseg/ont/okhmeta#MetaTag&#45;&gt;http://w3id.org/oseg/ont/okhmeta#Tag -->
<g id="edge48" class="edge">
<title>http://w3id.org/oseg/ont/okhmeta#MetaTag&#45;&gt;http://w3id.org/oseg/ont/okhmeta#Tag</title>
<path fill="none" stroke="black" d="M887.87,-664.56C888.58,-665.32 889.33,-666.08 890.09,-666.85"/>
<polygon fill="black" stroke="black" points="887.76,-669.46 897.46,-673.72 892.54,-664.34 887.76,-669.46"/>
<text text-anchor="middle" x="884.48" y="-669.5" font-family="Times,serif" font-size="14.00">a</text>
</g>
<!-- http://w3id.org/oseg/ont/okhmeta#MetaTag&#45;&gt;http://w3id.org/oseg/ont/okhmeta#MetaTag -->
<g id="edge8" class="edge">
<title>http://w3id.org/oseg/ont/okhmeta#MetaTag&#45;&gt;http://w3id.org/oseg/ont/okhmeta#MetaTag</title>
<path fill="none" stroke="black" d="M973.65,-654.57C988.81,-653.66 999.18,-651.59 999.18,-648.35 999.18,-645.9 993.22,-644.12 983.74,-643"/>
<polygon fill="black" stroke="black" points="983.91,-639.5 973.65,-642.14 983.31,-646.48 983.91,-639.5"/>
<text text-anchor="middle" x="1076.18" y="-644.65" font-family="Times,serif" font-size="14.00">okhmeta:hasMetaTag</text>
</g>
<!-- http://w3id.org/oseg/ont/okhmeta#HistoryTag -->
<g id="node8" class="node">
<title>http://w3id.org/oseg/ont/okhmeta#HistoryTag</title>
<ellipse fill="none" stroke="#e377c2" cx="1100.66" cy="-953.41" rx="113.69" ry="16.03"/>
<text text-anchor="middle" x="1100.66" y="-949.71" font-family="Times,serif" font-size="14.00">okhmeta:HistoryTag</text>
</g>
<!-- http://w3id.org/oseg/ont/okhmeta#HistoryTag&#45;&gt;http://w3id.org/oseg/ont/okhmeta#Tag -->
<g id="edge3" class="edge">
<title>http://w3id.org/oseg/ont/okhmeta#HistoryTag&#45;&gt;http://w3id.org/oseg/ont/okhmeta#Tag</title>
<path fill="none" stroke="black" d="M1089.7,-936.88C1059.87,-891.9 977.12,-767.14 941.74,-713.81"/>
<polygon fill="black" stroke="black" points="944.54,-711.69 936.1,-705.3 938.71,-715.56 944.54,-711.69"/>
<text text-anchor="middle" x="1011.22" y="-829.14" font-family="Times,serif" font-size="14.00">a</text>
</g>
<!-- http://w3id.org/oseg/ont/okhmeta#HistoryTag&#45;&gt;http://w3id.org/oseg/ont/okhmeta#MetaTag -->
<g id="edge28" class="edge">
<title>http://w3id.org/oseg/ont/okhmeta#HistoryTag&#45;&gt;http://w3id.org/oseg/ont/okhmeta#MetaTag</title>
<path fill="none" stroke="black" d="M1088.73,-937.01C1051.99,-886.53 940.43,-733.24 896.61,-673.02"/>
<polygon fill="black" stroke="black" points="899.36,-670.86 890.65,-664.83 893.7,-674.98 899.36,-670.86"/>
<text text-anchor="middle" x="915.67" y="-808.82" font-family="Times,serif" font-size="14.00">okhmeta:hasMetaTag</text>
</g>
<!-- http://w3id.org/oseg/ont/okhmeta#hasMetaTag -->
<g id="node9" class="node">
<title>http://w3id.org/oseg/ont/okhmeta#hasMetaTag</title>
<ellipse fill="none" stroke="#e377c2" cx="484.04" cy="-325.54" rx="120.42" ry="16.03"/>
<text text-anchor="middle" x="484.04" y="-321.84" font-family="Times,serif" font-size="14.00">okhmeta:hasMetaTag</text>
</g>
<!-- http://w3id.org/oseg/ont/okhmeta#hasMetaTag&#45;&gt;http://www.w3.org/2004/02/skos/core#Concept -->
<g id="edge27" class="edge">
<title>http://w3id.org/oseg/ont/okhmeta#hasMetaTag&#45;&gt;http://www.w3.org/2004/02/skos/core#Concept</title>
<path fill="none" stroke="black" d="M499.54,-341.77C530.49,-374.16 600.04,-446.97 636.09,-484.71"/>
<polygon fill="black" stroke="black" points="633.81,-487.39 643.25,-492.2 638.87,-482.55 633.81,-487.39"/>
<text text-anchor="middle" x="563.32" y="-417.04" font-family="Times,serif" font-size="14.00">a</text>
</g>
<!-- http://w3id.org/oseg/ont/okhmeta#hasMetaTag&#45;&gt;http://www.w3.org/2002/07/owl#ObjectProperty -->
<g id="edge11" class="edge">
<title>http://w3id.org/oseg/ont/okhmeta#hasMetaTag&#45;&gt;http://www.w3.org/2002/07/owl#ObjectProperty</title>
<path fill="none" stroke="black" d="M442.91,-310.17C373.84,-284.35 234.79,-232.38 160.01,-204.44"/>
<polygon fill="black" stroke="black" points="160.94,-201.05 150.34,-200.82 158.48,-207.6 160.94,-201.05"/>
<text text-anchor="middle" x="296.96" y="-261.1" font-family="Times,serif" font-size="14.00">a</text>
</g>
<!-- http://w3id.org/oseg/ont/okhmeta#hasMetaTag&#45;&gt;http://w3id.org/oseg/ont/okhmeta#MetaTag -->
<g id="edge19" class="edge">
<title>http://w3id.org/oseg/ont/okhmeta#hasMetaTag&#45;&gt;http://w3id.org/oseg/ont/okhmeta#MetaTag</title>
<path fill="none" stroke="black" d="M499.13,-341.7C556.89,-395.09 764.2,-565.06 845.59,-626.25"/>
<polygon fill="black" stroke="black" points="843.86,-629.32 853.97,-632.49 848.04,-623.71 843.86,-629.32"/>
<text text-anchor="middle" x="595.36" y="-472.77" font-family="Times,serif" font-size="14.00">okhmeta:hasMetaTag</text>
</g>
<!-- http://w3id.org/oseg/ont/okhmeta#hasMetaTag&#45;&gt;http://w3id.org/oseg/ont/okhmeta#MetaTag -->
<g id="edge25" class="edge">
<title>http://w3id.org/oseg/ont/okhmeta#hasMetaTag&#45;&gt;http://w3id.org/oseg/ont/okhmeta#MetaTag</title>
<path fill="none" stroke="black" d="M508.8,-341.46C580.4,-394.25 786.62,-562.89 855.79,-625.11"/>
<polygon fill="black" stroke="black" points="853.78,-628.01 863.53,-632.16 858.49,-622.84 853.78,-628.01"/>
<text text-anchor="middle" x="754.79" y="-472.08" font-family="Times,serif" font-size="14.00">dcam:rangeIncludes</text>
</g>
<!-- http://www.w3.org/2004/02/skos/core#member -->
<g id="node30" class="node">
<title>http://www.w3.org/2004/02/skos/core#member</title>
<ellipse fill="none" stroke="#e377c2" cx="294.54" cy="-16.63" rx="79.39" ry="16.03"/>
<text text-anchor="middle" x="294.54" y="-12.93" font-family="Times,serif" font-size="14.00">skos:member</text>
</g>
<!-- http://w3id.org/oseg/ont/okhmeta#hasMetaTag&#45;&gt;http://www.w3.org/2004/02/skos/core#member -->
<g id="edge22" class="edge">
<title>http://w3id.org/oseg/ont/okhmeta#hasMetaTag&#45;&gt;http://www.w3.org/2004/02/skos/core#member</title>
<path fill="none" stroke="black" d="M473.85,-308.93C442.48,-257.79 347.22,-102.51 309.83,-41.56"/>
<polygon fill="black" stroke="black" points="312.76,-39.64 304.54,-32.95 306.79,-43.3 312.76,-39.64"/>
<text text-anchor="middle" x="338.84" y="-179.05" font-family="Times,serif" font-size="14.00">subPropertyOf</text>
</g>
<!-- http://w3id.org/oseg/ont/okhmeta -->
<g id="node10" class="node">
<title>http://w3id.org/oseg/ont/okhmeta</title>
<ellipse fill="none" stroke="#e377c2" cx="1468.56" cy="-195.52" rx="76.24" ry="16.03"/>
<text text-anchor="middle" x="1468.56" y="-191.82" font-family="Times,serif" font-size="14.00">ns1:okhmeta</text>
</g>
<!-- http://w3id.org/oseg/ont/okhmeta&#45;&gt;http://www.w3.org/2002/07/owl#Ontology -->
<g id="edge29" class="edge">
<title>http://w3id.org/oseg/ont/okhmeta&#45;&gt;http://www.w3.org/2002/07/owl#Ontology</title>
<path fill="none" stroke="black" d="M1392.01,-195.51C1379.4,-195.51 1366.24,-195.51 1353.38,-195.51"/>
<polygon fill="black" stroke="black" points="1353.14,-192.01 1343.14,-195.51 1353.14,-199.01 1353.14,-192.01"/>
<text text-anchor="middle" x="1368.19" y="-199.31" font-family="Times,serif" font-size="14.00">a</text>
</g>
<!-- http://w3id.org/oseg/ont/okhmeta&#45;&gt;http://spdx.org/rdf/terms#SpdxItem -->
<g id="edge6" class="edge">
<title>http://w3id.org/oseg/ont/okhmeta&#45;&gt;http://spdx.org/rdf/terms#SpdxItem</title>
<path fill="none" stroke="black" d="M1482.73,-211.51C1506.96,-238.87 1556.49,-294.79 1584.75,-326.7"/>
<polygon fill="black" stroke="black" points="1582.2,-329.09 1591.45,-334.26 1587.44,-324.45 1582.2,-329.09"/>
<text text-anchor="middle" x="1529.24" y="-272.9" font-family="Times,serif" font-size="14.00">a</text>
</g>
<!-- http://id.loc.gov/vocabulary/iso639&#45;1/en -->
<g id="node15" class="node">
<title>http://id.loc.gov/vocabulary/iso639&#45;1/en</title>
<ellipse fill="none" stroke="#e377c2" cx="1378.57" cy="-331.74" rx="45.01" ry="16.03"/>
<text text-anchor="middle" x="1378.57" y="-328.04" font-family="Times,serif" font-size="14.00">ns2:en</text>
</g>
<!-- http://w3id.org/oseg/ont/okhmeta&#45;&gt;http://id.loc.gov/vocabulary/iso639&#45;1/en -->
<g id="edge32" class="edge">
<title>http://w3id.org/oseg/ont/okhmeta&#45;&gt;http://id.loc.gov/vocabulary/iso639&#45;1/en</title>
<path fill="none" stroke="black" d="M1457.89,-211.68C1442.26,-235.34 1413.03,-279.58 1394.75,-307.25"/>
<polygon fill="black" stroke="black" points="1391.83,-305.33 1389.23,-315.6 1397.67,-309.19 1391.83,-305.33"/>
<text text-anchor="middle" x="1361.82" y="-263.26" font-family="Times,serif" font-size="14.00">dcterms:language</text>
</g>
<!-- http://w3id.org/oseg/ont/1.1.0/okh&#45;meta -->
<g id="node18" class="node">
<title>http://w3id.org/oseg/ont/1.1.0/okh&#45;meta</title>
<ellipse fill="none" stroke="#e377c2" cx="1553.54" cy="-16.51" rx="79.81" ry="16.03"/>
<text text-anchor="middle" x="1553.54" y="-12.81" font-family="Times,serif" font-size="14.00">ns3:okh&#45;meta</text>
</g>
<!-- http://w3id.org/oseg/ont/okhmeta&#45;&gt;http://w3id.org/oseg/ont/1.1.0/okh&#45;meta -->
<g id="edge36" class="edge">
<title>http://w3id.org/oseg/ont/okhmeta&#45;&gt;http://w3id.org/oseg/ont/1.1.0/okh&#45;meta</title>
<path fill="none" stroke="black" d="M1476.25,-179.31C1491.07,-148.11 1523.66,-79.45 1541.43,-42.04"/>
<polygon fill="black" stroke="black" points="1544.68,-43.34 1545.81,-32.81 1538.36,-40.34 1544.68,-43.34"/>
<text text-anchor="middle" x="1457.34" y="-114.48" font-family="Times,serif" font-size="14.00">owl:versionIRI</text>
</g>
<!-- http://spdx.org/licenses/GPL&#45;3.0&#45;or&#45;later -->
<g id="node23" class="node">
<title>http://spdx.org/licenses/GPL&#45;3.0&#45;or&#45;later</title>
<ellipse fill="none" stroke="#e377c2" cx="1498.24" cy="-236.05" rx="108.79" ry="16.03"/>
<text text-anchor="middle" x="1498.24" y="-232.35" font-family="Times,serif" font-size="14.00">spdxl:GPL&#45;3.0&#45;or&#45;...</text>
</g>
<!-- http://w3id.org/oseg/ont/okhmeta&#45;&gt;http://spdx.org/licenses/GPL&#45;3.0&#45;or&#45;later -->
<g id="edge40" class="edge">
<title>http://w3id.org/oseg/ont/okhmeta&#45;&gt;http://spdx.org/licenses/GPL&#45;3.0&#45;or&#45;later</title>
<path fill="none" stroke="black" d="M1480.63,-212C1480.75,-212.16 1480.86,-212.32 1480.98,-212.48"/>
<polygon fill="black" stroke="black" points="1477.54,-213.71 1486.27,-219.71 1483.19,-209.57 1477.54,-213.71"/>
<text text-anchor="middle" x="1404.81" y="-216.04" font-family="Times,serif" font-size="14.00">spdx:licenseDeclared</text>
</g>
<!-- http://w3id.org/oseg/ont/oseg&#45;profiles#robinVobruba -->
<g id="node27" class="node">
<title>http://w3id.org/oseg/ont/oseg&#45;profiles#robinVobruba</title>
<ellipse fill="none" stroke="#e377c2" cx="1445.39" cy="-154.94" rx="113.69" ry="16.03"/>
<text text-anchor="middle" x="1445.39" y="-151.24" font-family="Times,serif" font-size="14.00">osegprof:robinVob...</text>
</g>
<!-- http://w3id.org/oseg/ont/okhmeta&#45;&gt;http://w3id.org/oseg/ont/oseg&#45;profiles#robinVobruba -->
<g id="edge43" class="edge">
<title>http://w3id.org/oseg/ont/okhmeta&#45;&gt;http://w3id.org/oseg/ont/oseg&#45;profiles#robinVobruba</title>
<path fill="none" stroke="black" d="M1466.51,-179.07C1466.44,-178.9 1466.36,-178.74 1466.29,-178.57"/>
<polygon fill="black" stroke="black" points="1470.11,-178.33 1462.38,-171.09 1463.91,-181.58 1470.11,-178.33"/>
<text text-anchor="middle" x="1523.9" y="-167.62" font-family="Times,serif" font-size="14.00">dcterms:creator</text>
</g>
<!-- http://w3id.org/oseg/ont/okhmeta&#45;&gt;http://w3id.org/oseg/ont/oseg&#45;profiles#robinVobruba -->
<g id="edge45" class="edge">
<title>http://w3id.org/oseg/ont/okhmeta&#45;&gt;http://w3id.org/oseg/ont/oseg&#45;profiles#robinVobruba</title>
<path fill="none" stroke="black" d="M1451.66,-179.52C1451.57,-179.36 1451.47,-179.2 1451.38,-179.04"/>
<polygon fill="black" stroke="black" points="1455.25,-178.9 1447.54,-171.63 1449.03,-182.12 1455.25,-178.9"/>
<text text-anchor="middle" x="1396.02" y="-168.08" font-family="Times,serif" font-size="14.00">schema:creator</text>
</g>
<!-- http://w3id.org/oseg/ont/oseg&#45;profiles#Iopa -->
<g id="node28" class="node">
<title>http://w3id.org/oseg/ont/oseg&#45;profiles#Iopa</title>
<ellipse fill="none" stroke="#e377c2" cx="1662.35" cy="-150.55" rx="80.72" ry="16.03"/>
<text text-anchor="middle" x="1662.35" y="-146.85" font-family="Times,serif" font-size="14.00">osegprof:Iopa</text>
</g>
<!-- http://w3id.org/oseg/ont/okhmeta&#45;&gt;http://w3id.org/oseg/ont/oseg&#45;profiles#Iopa -->
<g id="edge46" class="edge">
<title>http://w3id.org/oseg/ont/okhmeta&#45;&gt;http://w3id.org/oseg/ont/oseg&#45;profiles#Iopa</title>
<path fill="none" stroke="black" d="M1520.24,-183.52C1544.49,-177.9 1573.61,-171.14 1599.16,-165.21"/>
<polygon fill="black" stroke="black" points="1600.18,-168.57 1609.13,-162.9 1598.59,-161.75 1600.18,-168.57"/>
<text text-anchor="middle" x="1625.2" y="-178.17" font-family="Times,serif" font-size="14.00">dcterms:publisher</text>
</g>
<!-- http://w3id.org/oseg/ont/okhmeta#MakingTag -->
<g id="node11" class="node">
<title>http://w3id.org/oseg/ont/okhmeta#MakingTag</title>
<ellipse fill="none" stroke="#e377c2" cx="1047.16" cy="-353.86" rx="113.69" ry="16.03"/>
<text text-anchor="middle" x="1047.16" y="-350.16" font-family="Times,serif" font-size="14.00">okhmeta:MakingTag</text>
</g>
<!-- http://w3id.org/oseg/ont/okhmeta#MakingTag&#45;&gt;http://w3id.org/oseg/ont/okhmeta#Tag -->
<g id="edge10" class="edge">
<title>http://w3id.org/oseg/ont/okhmeta#MakingTag&#45;&gt;http://w3id.org/oseg/ont/okhmeta#Tag</title>
<path fill="none" stroke="black" d="M1041.12,-370.49C1021.39,-424.79 958.74,-597.23 934.79,-663.15"/>
<polygon fill="black" stroke="black" points="931.42,-662.18 931.29,-672.78 938,-664.57 931.42,-662.18"/>
<text text-anchor="middle" x="983.46" y="-520.62" font-family="Times,serif" font-size="14.00">a</text>
</g>
<!-- http://w3id.org/oseg/ont/okhmeta#MakingTag&#45;&gt;http://w3id.org/oseg/ont/okhmeta#MetaTag -->
<g id="edge34" class="edge">
<title>http://w3id.org/oseg/ont/okhmeta#MakingTag&#45;&gt;http://w3id.org/oseg/ont/okhmeta#MetaTag</title>
<path fill="none" stroke="black" d="M1037.86,-370.11C1009.95,-418.89 926.78,-564.25 893.08,-623.15"/>
<polygon fill="black" stroke="black" points="889.85,-621.73 887.93,-632.15 895.93,-625.21 889.85,-621.73"/>
<text text-anchor="middle" x="888.47" y="-500.43" font-family="Times,serif" font-size="14.00">okhmeta:hasMetaTag</text>
</g>
<!-- http://w3id.org/oseg/ont/okhmeta#PhysicalTag -->
<g id="node12" class="node">
<title>http://w3id.org/oseg/ont/okhmeta#PhysicalTag</title>
<ellipse fill="none" stroke="#e377c2" cx="568.84" cy="-768.93" rx="118.17" ry="16.03"/>
<text text-anchor="middle" x="568.84" y="-765.23" font-family="Times,serif" font-size="14.00">okhmeta:PhysicalTag</text>
</g>
<!-- http://w3id.org/oseg/ont/okhmeta#PhysicalTag&#45;&gt;http://w3id.org/oseg/ont/okhmeta#Tag -->
<g id="edge30" class="edge">
<title>http://w3id.org/oseg/ont/okhmeta#PhysicalTag&#45;&gt;http://w3id.org/oseg/ont/okhmeta#Tag</title>
<path fill="none" stroke="black" d="M630.94,-755.02C695.9,-740.48 797.3,-717.78 862.52,-703.17"/>
<polygon fill="black" stroke="black" points="863.68,-706.5 872.67,-700.9 862.15,-699.67 863.68,-706.5"/>
<text text-anchor="middle" x="742.23" y="-732.9" font-family="Times,serif" font-size="14.00">a</text>
</g>
<!-- http://w3id.org/oseg/ont/okhmeta#PhysicalTag&#45;&gt;http://w3id.org/oseg/ont/okhmeta#MetaTag -->
<g id="edge23" class="edge">
<title>http://w3id.org/oseg/ont/okhmeta#PhysicalTag&#45;&gt;http://w3id.org/oseg/ont/okhmeta#MetaTag</title>
<path fill="none" stroke="black" d="M608.4,-753.53C665.07,-731.48 769.26,-690.93 830.4,-667.13"/>
<polygon fill="black" stroke="black" points="831.77,-670.35 839.82,-663.46 829.24,-663.83 831.77,-670.35"/>
<text text-anchor="middle" x="642.4" y="-714.13" font-family="Times,serif" font-size="14.00">okhmeta:hasMetaTag</text>
</g>
<!-- http://w3id.org/oseg/ont/okhmeta#PartsTag -->
<g id="node13" class="node">
<title>http://w3id.org/oseg/ont/okhmeta#PartsTag</title>
<ellipse fill="none" stroke="#e377c2" cx="1226.87" cy="-599.36" rx="103.48" ry="16.03"/>
<text text-anchor="middle" x="1226.87" y="-595.66" font-family="Times,serif" font-size="14.00">okhmeta:PartsTag</text>
</g>
<!-- http://w3id.org/oseg/ont/okhmeta#PartsTag&#45;&gt;http://w3id.org/oseg/ont/okhmeta#Tag -->
<g id="edge31" class="edge">
<title>http://w3id.org/oseg/ont/okhmeta#PartsTag&#45;&gt;http://w3id.org/oseg/ont/okhmeta#Tag</title>
<path fill="none" stroke="black" d="M1178.43,-613.78C1124.25,-629.9 1036.69,-655.97 980.08,-672.82"/>
<polygon fill="black" stroke="black" points="978.82,-669.54 970.24,-675.75 980.82,-676.25 978.82,-669.54"/>
<text text-anchor="middle" x="1074.76" y="-632.1" font-family="Times,serif" font-size="14.00">a</text>
</g>
<!-- http://w3id.org/oseg/ont/okhmeta#PartsTag&#45;&gt;http://w3id.org/oseg/ont/okhmeta#MetaTag -->
<g id="edge15" class="edge">
<title>http://w3id.org/oseg/ont/okhmeta#PartsTag&#45;&gt;http://w3id.org/oseg/ont/okhmeta#MetaTag</title>
<path fill="none" stroke="black" d="M1149.59,-610.23C1095.06,-617.9 1021.95,-628.19 965.41,-636.14"/>
<polygon fill="black" stroke="black" points="964.83,-632.69 955.42,-637.55 965.81,-639.62 964.83,-632.69"/>
<text text-anchor="middle" x="980.5" y="-611.99" font-family="Times,serif" font-size="14.00">okhmeta:hasMetaTag</text>
</g>
<!-- http://w3id.org/oseg/ont/okhmeta#QualityTag -->
<g id="node14" class="node">
<title>http://w3id.org/oseg/ont/okhmeta#QualityTag</title>
<ellipse fill="none" stroke="#e377c2" cx="1213.69" cy="-486.42" rx="113.27" ry="16.03"/>
<text text-anchor="middle" x="1213.69" y="-482.72" font-family="Times,serif" font-size="14.00">okhmeta:QualityTag</text>
</g>
<!-- http://w3id.org/oseg/ont/okhmeta#QualityTag&#45;&gt;http://w3id.org/oseg/ont/okhmeta#Tag -->
<g id="edge12" class="edge">
<title>http://w3id.org/oseg/ont/okhmeta#QualityTag&#45;&gt;http://w3id.org/oseg/ont/okhmeta#Tag</title>
<path fill="none" stroke="black" d="M1190.59,-502.67C1138.98,-538.94 1014.34,-626.56 956.19,-667.43"/>
<polygon fill="black" stroke="black" points="953.95,-664.73 947.78,-673.35 957.97,-670.46 953.95,-664.73"/>
<text text-anchor="middle" x="1068.89" y="-588.85" font-family="Times,serif" font-size="14.00">a</text>
</g>
<!-- http://w3id.org/oseg/ont/okhmeta#QualityTag&#45;&gt;http://w3id.org/oseg/ont/okhmeta#MetaTag -->
<g id="edge4" class="edge">
<title>http://w3id.org/oseg/ont/okhmeta#QualityTag&#45;&gt;http://w3id.org/oseg/ont/okhmeta#MetaTag</title>
<path fill="none" stroke="black" d="M1181.26,-502.1C1120.09,-531.66 987.77,-595.62 920.19,-628.28"/>
<polygon fill="black" stroke="black" points="918.58,-625.17 911.1,-632.67 921.63,-631.47 918.58,-625.17"/>
<text text-anchor="middle" x="973.73" y="-568.99" font-family="Times,serif" font-size="14.00">okhmeta:hasMetaTag</text>
</g>
<!-- http://w3id.org/oseg/ont/okhmeta#ExtendedInfoTag -->
<g id="node16" class="node">
<title>http://w3id.org/oseg/ont/okhmeta#ExtendedInfoTag</title>
<ellipse fill="none" stroke="#e377c2" cx="1276.75" cy="-705.76" rx="120.42" ry="16.03"/>
<text text-anchor="middle" x="1276.75" y="-702.06" font-family="Times,serif" font-size="14.00">okhmeta:ExtendedI...</text>
</g>
<!-- http://w3id.org/oseg/ont/okhmeta#ExtendedInfoTag&#45;&gt;http://w3id.org/oseg/ont/okhmeta#Tag -->
<g id="edge33" class="edge">
<title>http://w3id.org/oseg/ont/okhmeta#ExtendedInfoTag&#45;&gt;http://w3id.org/oseg/ont/okhmeta#Tag</title>
<path fill="none" stroke="black" d="M1163.15,-700.38C1113.47,-698.02 1056.19,-695.31 1010.3,-693.13"/>
<polygon fill="black" stroke="black" points="1010.24,-689.62 1000.09,-692.65 1009.91,-696.62 1010.24,-689.62"/>
<text text-anchor="middle" x="1082.22" y="-700.55" font-family="Times,serif" font-size="14.00">a</text>
</g>
<!-- http://w3id.org/oseg/ont/okhmeta#ExtendedInfoTag&#45;&gt;http://w3id.org/oseg/ont/okhmeta#MetaTag -->
<g id="edge16" class="edge">
<title>http://w3id.org/oseg/ont/okhmeta#ExtendedInfoTag&#45;&gt;http://w3id.org/oseg/ont/okhmeta#MetaTag</title>
<path fill="none" stroke="black" d="M1194.27,-693.87C1127.22,-684.2 1032.93,-670.6 964.9,-660.79"/>
<polygon fill="black" stroke="black" points="965.03,-657.27 954.63,-659.31 964.03,-664.2 965.03,-657.27"/>
<text text-anchor="middle" x="1156.58" y="-666.13" font-family="Times,serif" font-size="14.00">okhmeta:hasMetaTag</text>
</g>
<!-- http://w3id.org/oseg/ont/okhmeta#IdentificationTag -->
<g id="node17" class="node">
<title>http://w3id.org/oseg/ont/okhmeta#IdentificationTag</title>
<ellipse fill="none" stroke="#e377c2" cx="1128.11" cy="-408.69" rx="109.7" ry="16.03"/>
<text text-anchor="middle" x="1128.11" y="-404.99" font-family="Times,serif" font-size="14.00">okhmeta:Identific...</text>
</g>
<!-- http://w3id.org/oseg/ont/okhmeta#IdentificationTag&#45;&gt;http://w3id.org/oseg/ont/okhmeta#Tag -->
<g id="edge14" class="edge">
<title>http://w3id.org/oseg/ont/okhmeta#IdentificationTag&#45;&gt;http://w3id.org/oseg/ont/okhmeta#Tag</title>
<path fill="none" stroke="black" d="M1116.33,-424.98C1082.32,-472.02 983.77,-608.31 943.17,-664.47"/>
<polygon fill="black" stroke="black" points="940.19,-662.62 937.17,-672.77 945.86,-666.72 940.19,-662.62"/>
<text text-anchor="middle" x="1025.25" y="-548.53" font-family="Times,serif" font-size="14.00">a</text>
</g>
<!-- http://w3id.org/oseg/ont/okhmeta#IdentificationTag&#45;&gt;http://w3id.org/oseg/ont/okhmeta#MetaTag -->
<g id="edge5" class="edge">
<title>http://w3id.org/oseg/ont/okhmeta#IdentificationTag&#45;&gt;http://w3id.org/oseg/ont/okhmeta#MetaTag</title>
<path fill="none" stroke="black" d="M1111.35,-424.79C1068.23,-466.22 953.29,-576.65 902.9,-625.06"/>
<polygon fill="black" stroke="black" points="900.45,-622.56 895.66,-632.01 905.3,-627.61 900.45,-622.56"/>
<text text-anchor="middle" x="1084.12" y="-528.73" font-family="Times,serif" font-size="14.00">okhmeta:hasMetaTag</text>
</g>
<!-- http://w3id.org/oseg/ont/okhmeta#TransportationTag -->
<g id="node19" class="node">
<title>http://w3id.org/oseg/ont/okhmeta#TransportationTag</title>
<ellipse fill="none" stroke="#e377c2" cx="1187.97" cy="-905.64" rx="118.17" ry="16.03"/>
<text text-anchor="middle" x="1187.97" y="-901.94" font-family="Times,serif" font-size="14.00">okhmeta:Transport...</text>
</g>
<!-- http://w3id.org/oseg/ont/okhmeta#TransportationTag&#45;&gt;http://w3id.org/oseg/ont/okhmeta#Tag -->
<g id="edge37" class="edge">
<title>http://w3id.org/oseg/ont/okhmeta#TransportationTag&#45;&gt;http://w3id.org/oseg/ont/okhmeta#Tag</title>
<path fill="none" stroke="black" d="M1168.24,-889.37C1121.81,-851.09 1005.63,-755.3 952.57,-711.54"/>
<polygon fill="black" stroke="black" points="954.56,-708.64 944.61,-704.98 950.1,-714.04 954.56,-708.64"/>
<text text-anchor="middle" x="1055.9" y="-804.25" font-family="Times,serif" font-size="14.00">a</text>
</g>
<!-- http://w3id.org/oseg/ont/okhmeta#TransportationTag&#45;&gt;http://w3id.org/oseg/ont/okhmeta#MetaTag -->
<g id="edge44" class="edge">
<title>http://w3id.org/oseg/ont/okhmeta#TransportationTag&#45;&gt;http://w3id.org/oseg/ont/okhmeta#MetaTag</title>
<path fill="none" stroke="black" d="M1168.63,-889.55C1115.46,-845.33 967.06,-721.88 905.72,-670.86"/>
<polygon fill="black" stroke="black" points="907.92,-668.14 898,-664.44 903.45,-673.53 907.92,-668.14"/>
<text text-anchor="middle" x="960.17" y="-784" font-family="Times,serif" font-size="14.00">okhmeta:hasMetaTag</text>
</g>
<!-- http://w3id.org/oseg/ont/okhmeta#BasicTag -->
<g id="node20" class="node">
<title>http://w3id.org/oseg/ont/okhmeta#BasicTag</title>
<ellipse fill="none" stroke="#e377c2" cx="1202.89" cy="-796.64" rx="103.48" ry="16.03"/>
<text text-anchor="middle" x="1202.89" y="-792.94" font-family="Times,serif" font-size="14.00">okhmeta:BasicTag</text>
</g>
<!-- http://w3id.org/oseg/ont/okhmeta#BasicTag&#45;&gt;http://w3id.org/oseg/ont/okhmeta#Tag -->
<g id="edge17" class="edge">
<title>http://w3id.org/oseg/ont/okhmeta#BasicTag&#45;&gt;http://w3id.org/oseg/ont/okhmeta#Tag</title>
<path fill="none" stroke="black" d="M1163.71,-781.46C1113.36,-761.95 1026.02,-728.11 972.2,-707.26"/>
<polygon fill="black" stroke="black" points="973.15,-703.87 962.56,-703.52 970.62,-710.4 973.15,-703.87"/>
<text text-anchor="middle" x="1063.46" y="-748.16" font-family="Times,serif" font-size="14.00">a</text>
</g>
<!-- http://w3id.org/oseg/ont/okhmeta#BasicTag&#45;&gt;http://w3id.org/oseg/ont/okhmeta#MetaTag -->
<g id="edge9" class="edge">
<title>http://w3id.org/oseg/ont/okhmeta#BasicTag&#45;&gt;http://w3id.org/oseg/ont/okhmeta#MetaTag</title>
<path fill="none" stroke="black" d="M1169.11,-781.19C1109.74,-754.04 986.83,-697.82 921.56,-667.97"/>
<polygon fill="black" stroke="black" points="922.91,-664.74 912.36,-663.77 920,-671.11 922.91,-664.74"/>
<text text-anchor="middle" x="968.33" y="-728.38" font-family="Times,serif" font-size="14.00">okhmeta:hasMetaTag</text>
</g>
<!-- http://w3id.org/oseg/ont/okhmeta#DocumentationTag -->
<g id="node21" class="node">
<title>http://w3id.org/oseg/ont/okhmeta#DocumentationTag</title>
<ellipse fill="none" stroke="#e377c2" cx="878.4" cy="-308.47" rx="125.32" ry="16.03"/>
<text text-anchor="middle" x="878.4" y="-304.77" font-family="Times,serif" font-size="14.00">okhmeta:Documenta...</text>
</g>
<!-- http://w3id.org/oseg/ont/okhmeta#DocumentationTag&#45;&gt;http://w3id.org/oseg/ont/okhmeta#Tag -->
<g id="edge39" class="edge">
<title>http://w3id.org/oseg/ont/okhmeta#DocumentationTag&#45;&gt;http://w3id.org/oseg/ont/okhmeta#Tag</title>
<path fill="none" stroke="black" d="M880.42,-324.82C887.75,-384.24 913.01,-589.04 922.08,-662.56"/>
<polygon fill="black" stroke="black" points="918.65,-663.31 923.35,-672.81 925.6,-662.46 918.65,-663.31"/>
<text text-anchor="middle" x="896.75" y="-482.49" font-family="Times,serif" font-size="14.00">a</text>
</g>
<!-- http://w3id.org/oseg/ont/okhmeta#DocumentationTag&#45;&gt;http://w3id.org/oseg/ont/okhmeta#MetaTag -->
<g id="edge2" class="edge">
<title>http://w3id.org/oseg/ont/okhmeta#DocumentationTag&#45;&gt;http://w3id.org/oseg/ont/okhmeta#MetaTag</title>
<path fill="none" stroke="black" d="M878.42,-324.86C878.46,-379.25 878.58,-554.1 878.63,-621.51"/>
<polygon fill="black" stroke="black" points="875.13,-621.73 878.64,-631.72 882.13,-621.72 875.13,-621.73"/>
<text text-anchor="middle" x="955.53" y="-461.98" font-family="Times,serif" font-size="14.00">okhmeta:hasMetaTag</text>
</g>
<!-- http://w3id.org/oseg/ont/okhmeta#AcademicTag -->
<g id="node22" class="node">
<title>http://w3id.org/oseg/ont/okhmeta#AcademicTag</title>
<ellipse fill="none" stroke="#e377c2" cx="607.58" cy="-883.02" rx="124.4" ry="16.03"/>
<text text-anchor="middle" x="607.58" y="-879.32" font-family="Times,serif" font-size="14.00">okhmeta:AcademicTag</text>
</g>
<!-- http://w3id.org/oseg/ont/okhmeta#AcademicTag&#45;&gt;http://w3id.org/oseg/ont/okhmeta#Tag -->
<g id="edge20" class="edge">
<title>http://w3id.org/oseg/ont/okhmeta#AcademicTag&#45;&gt;http://w3id.org/oseg/ont/okhmeta#Tag</title>
<path fill="none" stroke="black" d="M633.85,-866.99C691.11,-832.05 827.13,-749.05 891.05,-710.04"/>
<polygon fill="black" stroke="black" points="893.23,-712.81 899.94,-704.62 889.58,-706.84 893.23,-712.81"/>
<text text-anchor="middle" x="757.95" y="-792.31" font-family="Times,serif" font-size="14.00">a</text>
</g>
<!-- http://w3id.org/oseg/ont/okhmeta#AcademicTag&#45;&gt;http://w3id.org/oseg/ont/okhmeta#MetaTag -->
<g id="edge13" class="edge">
<title>http://w3id.org/oseg/ont/okhmeta#AcademicTag&#45;&gt;http://w3id.org/oseg/ont/okhmeta#MetaTag</title>
<path fill="none" stroke="black" d="M626.21,-866.89C673.31,-826.11 797.29,-718.79 852.03,-671.4"/>
<polygon fill="black" stroke="black" points="854.62,-673.79 859.89,-664.59 850.04,-668.49 854.62,-673.79"/>
<text text-anchor="middle" x="816.12" y="-757.95" font-family="Times,serif" font-size="14.00">okhmeta:hasMetaTag</text>
</g>
<!-- http://w3id.org/oseg/ont/okhmeta#DataGatheringTag -->
<g id="node24" class="node">
<title>http://w3id.org/oseg/ont/okhmeta#DataGatheringTag</title>
<ellipse fill="none" stroke="#e377c2" cx="678.28" cy="-954.65" rx="122.16" ry="16.03"/>
<text text-anchor="middle" x="678.28" y="-950.95" font-family="Times,serif" font-size="14.00">okhmeta:DataGathe...</text>
</g>
<!-- http://w3id.org/oseg/ont/okhmeta#DataGatheringTag&#45;&gt;http://w3id.org/oseg/ont/okhmeta#Tag -->
<g id="edge21" class="edge">
<title>http://w3id.org/oseg/ont/okhmeta#DataGatheringTag&#45;&gt;http://w3id.org/oseg/ont/okhmeta#Tag</title>
<path fill="none" stroke="black" d="M693.36,-938.44C735.42,-893.24 854.12,-765.67 903.44,-712.66"/>
<polygon fill="black" stroke="black" points="906.22,-714.81 910.47,-705.1 901.1,-710.04 906.22,-714.81"/>
<text text-anchor="middle" x="793.9" y="-829.35" font-family="Times,serif" font-size="14.00">a</text>
</g>
<!-- http://w3id.org/oseg/ont/okhmeta#DataGatheringTag&#45;&gt;http://w3id.org/oseg/ont/okhmeta#MetaTag -->
<g id="edge26" class="edge">
<title>http://w3id.org/oseg/ont/okhmeta#DataGatheringTag&#45;&gt;http://w3id.org/oseg/ont/okhmeta#MetaTag</title>
<path fill="none" stroke="black" d="M689.05,-938.18C722.22,-887.48 822.95,-733.5 862.48,-673.07"/>
<polygon fill="black" stroke="black" points="865.53,-674.81 868.07,-664.53 859.67,-670.98 865.53,-674.81"/>
<text text-anchor="middle" x="698.77" y="-809.43" font-family="Times,serif" font-size="14.00">okhmeta:hasMetaTag</text>
</g>
<!-- http://w3id.org/oseg/ont/okhmeta#LegalTag -->
<g id="node25" class="node">
<title>http://w3id.org/oseg/ont/okhmeta#LegalTag</title>
<ellipse fill="none" stroke="#e377c2" cx="794.18" cy="-995.68" rx="103.89" ry="16.03"/>
<text text-anchor="middle" x="794.18" y="-991.98" font-family="Times,serif" font-size="14.00">okhmeta:LegalTag</text>
</g>
<!-- http://w3id.org/oseg/ont/okhmeta#LegalTag&#45;&gt;http://w3id.org/oseg/ont/okhmeta#Tag -->
<g id="edge41" class="edge">
<title>http://w3id.org/oseg/ont/okhmeta#LegalTag&#45;&gt;http://w3id.org/oseg/ont/okhmeta#Tag</title>
<path fill="none" stroke="black" d="M801.23,-979.2C822.81,-928.77 888.05,-776.31 914.27,-715.02"/>
<polygon fill="black" stroke="black" points="917.56,-716.24 918.27,-705.67 911.12,-713.49 917.56,-716.24"/>
<text text-anchor="middle" x="853.25" y="-850.91" font-family="Times,serif" font-size="14.00">a</text>
</g>
<!-- http://w3id.org/oseg/ont/okhmeta#LegalTag&#45;&gt;http://w3id.org/oseg/ont/okhmeta#MetaTag -->
<g id="edge35" class="edge">
<title>http://w3id.org/oseg/ont/okhmeta#LegalTag&#45;&gt;http://w3id.org/oseg/ont/okhmeta#MetaTag</title>
<path fill="none" stroke="black" d="M798.14,-979.4C811.61,-924.02 855.72,-742.65 872.29,-674.53"/>
<polygon fill="black" stroke="black" points="875.74,-675.15 874.7,-664.6 868.94,-673.49 875.74,-675.15"/>
<text text-anchor="middle" x="912.21" y="-830.76" font-family="Times,serif" font-size="14.00">okhmeta:hasMetaTag</text>
</g>
<!-- http://w3id.org/oseg/ont/okhmeta#DataTag -->
<g id="node26" class="node">
<title>http://w3id.org/oseg/ont/okhmeta#DataTag</title>
<ellipse fill="none" stroke="#e377c2" cx="1010.93" cy="-996.47" rx="100.32" ry="16.03"/>
<text text-anchor="middle" x="1010.93" y="-992.77" font-family="Times,serif" font-size="14.00">okhmeta:DataTag</text>
</g>
<!-- http://w3id.org/oseg/ont/okhmeta#DataTag&#45;&gt;http://w3id.org/oseg/ont/okhmeta#Tag -->
<g id="edge42" class="edge">
<title>http://w3id.org/oseg/ont/okhmeta#DataTag&#45;&gt;http://w3id.org/oseg/ont/okhmeta#Tag</title>
<path fill="none" stroke="black" d="M1006.33,-979.94C992.28,-929.49 949.87,-777.16 932.7,-715.47"/>
<polygon fill="black" stroke="black" points="936.04,-714.41 929.98,-705.71 929.29,-716.28 936.04,-714.41"/>
<text text-anchor="middle" x="965.01" y="-851.51" font-family="Times,serif" font-size="14.00">a</text>
</g>
<!-- http://w3id.org/oseg/ont/okhmeta#DataTag&#45;&gt;http://w3id.org/oseg/ont/okhmeta#MetaTag -->
<g id="edge24" class="edge">
<title>http://w3id.org/oseg/ont/okhmeta#DataTag&#45;&gt;http://w3id.org/oseg/ont/okhmeta#MetaTag</title>
<path fill="none" stroke="black" d="M1004.72,-980.15C983.59,-924.53 914.28,-742.12 888.46,-674.17"/>
<polygon fill="black" stroke="black" points="891.67,-672.74 884.84,-664.64 885.12,-675.23 891.67,-672.74"/>
<text text-anchor="middle" x="1023.59" y="-830.96" font-family="Times,serif" font-size="14.00">okhmeta:hasMetaTag</text>
</g>
<!-- http://w3id.org/oseg/ont/okhmeta#DevelopmentTag -->
<g id="node29" class="node">
<title>http://w3id.org/oseg/ont/okhmeta#DevelopmentTag</title>
<ellipse fill="none" stroke="#e377c2" cx="548.4" cy="-632.51" rx="124.4" ry="16.03"/>
<text text-anchor="middle" x="548.4" y="-628.81" font-family="Times,serif" font-size="14.00">okhmeta:Developme...</text>
</g>
<!-- http://w3id.org/oseg/ont/okhmeta#DevelopmentTag&#45;&gt;http://w3id.org/oseg/ont/okhmeta#Tag -->
<g id="edge47" class="edge">
<title>http://w3id.org/oseg/ont/okhmeta#DevelopmentTag&#45;&gt;http://w3id.org/oseg/ont/okhmeta#Tag</title>
<path fill="none" stroke="black" d="M630.2,-644.79C696.48,-654.74 789.02,-668.64 852.72,-678.2"/>
<polygon fill="black" stroke="black" points="852.28,-681.67 862.69,-679.7 853.32,-674.75 852.28,-681.67"/>
<text text-anchor="middle" x="736.96" y="-665.3" font-family="Times,serif" font-size="14.00">a</text>
</g>
<!-- http://w3id.org/oseg/ont/okhmeta#DevelopmentTag&#45;&gt;http://w3id.org/oseg/ont/okhmeta#MetaTag -->
<g id="edge38" class="edge">
<title>http://w3id.org/oseg/ont/okhmeta#DevelopmentTag&#45;&gt;http://w3id.org/oseg/ont/okhmeta#MetaTag</title>
<path fill="none" stroke="black" d="M665.3,-638.12C699.44,-639.75 736.59,-641.54 770.18,-643.15"/>
<polygon fill="black" stroke="black" points="770.33,-646.66 780.48,-643.64 770.66,-639.67 770.33,-646.66"/>
<text text-anchor="middle" x="756.24" y="-629.43" font-family="Times,serif" font-size="14.00">okhmeta:hasMetaTag</text>
</g>
</g>
</svg>
