<?xml version="1.0" encoding="UTF-8" standalone="no"?>
<!DOCTYPE svg PUBLIC "-//W3C//DTD SVG 1.1//EN"
 "http://www.w3.org/Graphics/SVG/1.1/DTD/svg11.dtd">
<!-- Generated by graphviz version 2.43.0 (0)
 -->
<!-- Title: G Pages: 1 -->
<svg width="2790pt" height="1606pt"
 viewBox="0.00 0.00 2790.00 1606.00" xmlns="http://www.w3.org/2000/svg" xmlns:xlink="http://www.w3.org/1999/xlink">
<g id="graph0" class="graph" transform="scale(1 1) rotate(0) translate(4 1602)">
<title>G</title>
<polygon fill="white" stroke="transparent" points="-4,4 -4,-1602 2786,-1602 2786,4 -4,4"/>
<!-- https://w3id.org/oseg/ont/otrl#ODRL -->
<g id="node1" class="node">
<title>https://w3id.org/oseg/ont/otrl#ODRL</title>
<ellipse fill="none" stroke="#e377c2" cx="1554.09" cy="-943.81" rx="62.87" ry="16.03"/>
<text text-anchor="middle" x="1554.09" y="-940.11" font-family="Times,serif" font-size="14.00">otrl:ODRL</text>
</g>
<!-- https://w3id.org/oseg/ont/otrl#ODRL3 -->
<g id="node2" class="node">
<title>https://w3id.org/oseg/ont/otrl#ODRL3</title>
<ellipse fill="none" stroke="#e377c2" cx="1547.65" cy="-1218.54" rx="69.09" ry="16.03"/>
<text text-anchor="middle" x="1547.65" y="-1214.84" font-family="Times,serif" font-size="14.00">otrl:ODRL3</text>
</g>
<!-- https://w3id.org/oseg/ont/otrl#ODRL3&#45;&gt;https://w3id.org/oseg/ont/otrl#ODRL -->
<g id="edge48" class="edge">
<title>https://w3id.org/oseg/ont/otrl#ODRL3&#45;&gt;https://w3id.org/oseg/ont/otrl#ODRL</title>
<path fill="none" stroke="black" d="M1548.03,-1202.17C1549.11,-1156.36 1552.15,-1026.52 1553.47,-970.3"/>
<polygon fill="black" stroke="black" points="1556.97,-970.16 1553.71,-960.08 1549.98,-970 1556.97,-970.16"/>
</g>
<!-- https://w3id.org/oseg/ont/otrl#OTRL6 -->
<g id="node3" class="node">
<title>https://w3id.org/oseg/ont/otrl#OTRL6</title>
<ellipse fill="none" stroke="#e377c2" cx="604.59" cy="-653.12" rx="67.35" ry="16.03"/>
<text text-anchor="middle" x="604.59" y="-649.42" font-family="Times,serif" font-size="14.00">otrl:OTRL6</text>
</g>
<!-- https://w3id.org/oseg/ont/otrl#OTRL -->
<g id="node8" class="node">
<title>https://w3id.org/oseg/ont/otrl#OTRL</title>
<ellipse fill="none" stroke="#e377c2" cx="918.7" cy="-670.33" rx="60.62" ry="16.03"/>
<text text-anchor="middle" x="918.7" y="-666.63" font-family="Times,serif" font-size="14.00">otrl:OTRL</text>
</g>
<!-- https://w3id.org/oseg/ont/otrl#OTRL6&#45;&gt;https://w3id.org/oseg/ont/otrl#OTRL -->
<g id="edge52" class="edge">
<title>https://w3id.org/oseg/ont/otrl#OTRL6&#45;&gt;https://w3id.org/oseg/ont/otrl#OTRL</title>
<path fill="none" stroke="black" d="M670.44,-656.73C722.74,-659.59 795.71,-663.59 848.99,-666.51"/>
<polygon fill="black" stroke="black" points="848.86,-670.01 859.04,-667.06 849.25,-663.02 848.86,-670.01"/>
</g>
<!-- https://w3id.org/oseg/ont/otrl#OTRL4 -->
<g id="node4" class="node">
<title>https://w3id.org/oseg/ont/otrl#OTRL4</title>
<ellipse fill="none" stroke="#e377c2" cx="666.85" cy="-817.24" rx="67.35" ry="16.03"/>
<text text-anchor="middle" x="666.85" y="-813.54" font-family="Times,serif" font-size="14.00">otrl:OTRL4</text>
</g>
<!-- https://w3id.org/oseg/ont/otrl#OTRL4&#45;&gt;https://w3id.org/oseg/ont/otrl#OTRL -->
<g id="edge29" class="edge">
<title>https://w3id.org/oseg/ont/otrl#OTRL4&#45;&gt;https://w3id.org/oseg/ont/otrl#OTRL</title>
<path fill="none" stroke="black" d="M692.86,-802.07C738.62,-775.37 833.52,-720.02 884.52,-690.27"/>
<polygon fill="black" stroke="black" points="886.34,-693.26 893.21,-685.2 882.81,-687.21 886.34,-693.26"/>
</g>
<!-- http://spdx.org/rdf/terms#File -->
<g id="node5" class="node">
<title>http://spdx.org/rdf/terms#File</title>
<ellipse fill="none" stroke="#1f77b4" cx="2176.14" cy="-555.99" rx="62.45" ry="16.03"/>
<text text-anchor="middle" x="2176.14" y="-552.29" font-family="Times,serif" font-size="14.00">spdxt:File</text>
</g>
<!-- https://w3id.org/oseg/ont/otrl#ODRL2 -->
<g id="node6" class="node">
<title>https://w3id.org/oseg/ont/otrl#ODRL2</title>
<ellipse fill="none" stroke="#e377c2" cx="1698.56" cy="-799.36" rx="69.09" ry="16.03"/>
<text text-anchor="middle" x="1698.56" y="-795.66" font-family="Times,serif" font-size="14.00">otrl:ODRL2</text>
</g>
<!-- https://w3id.org/oseg/ont/otrl#ODRL2&#45;&gt;https://w3id.org/oseg/ont/otrl#ODRL -->
<g id="edge31" class="edge">
<title>https://w3id.org/oseg/ont/otrl#ODRL2&#45;&gt;https://w3id.org/oseg/ont/otrl#ODRL</title>
<path fill="none" stroke="black" d="M1682.54,-815.37C1657.05,-840.86 1607.11,-890.79 1577.57,-920.33"/>
<polygon fill="black" stroke="black" points="1574.77,-918.18 1570.17,-927.72 1579.72,-923.13 1574.77,-918.18"/>
</g>
<!-- https://w3id.org/oseg/ont/otrl#OTRL3 -->
<g id="node7" class="node">
<title>https://w3id.org/oseg/ont/otrl#OTRL3</title>
<ellipse fill="none" stroke="#e377c2" cx="656.75" cy="-498.6" rx="67.35" ry="16.03"/>
<text text-anchor="middle" x="656.75" y="-494.9" font-family="Times,serif" font-size="14.00">otrl:OTRL3</text>
</g>
<!-- https://w3id.org/oseg/ont/otrl#OTRL3&#45;&gt;https://w3id.org/oseg/ont/otrl#OTRL -->
<g id="edge5" class="edge">
<title>https://w3id.org/oseg/ont/otrl#OTRL3&#45;&gt;https://w3id.org/oseg/ont/otrl#OTRL</title>
<path fill="none" stroke="black" d="M680.46,-514.14C727.72,-545.13 833.7,-614.6 886.92,-649.5"/>
<polygon fill="black" stroke="black" points="885.32,-652.64 895.61,-655.19 889.16,-646.78 885.32,-652.64"/>
</g>
<!-- https://w3id.org/oseg/ont/otrl#ODRL1 -->
<g id="node9" class="node">
<title>https://w3id.org/oseg/ont/otrl#ODRL1</title>
<ellipse fill="none" stroke="#e377c2" cx="1396.95" cy="-1013.6" rx="69.09" ry="16.03"/>
<text text-anchor="middle" x="1396.95" y="-1009.9" font-family="Times,serif" font-size="14.00">otrl:ODRL1</text>
</g>
<!-- https://w3id.org/oseg/ont/otrl#ODRL1&#45;&gt;https://w3id.org/oseg/ont/otrl#ODRL -->
<g id="edge2" class="edge">
<title>https://w3id.org/oseg/ont/otrl#ODRL1&#45;&gt;https://w3id.org/oseg/ont/otrl#ODRL</title>
<path fill="none" stroke="black" d="M1429.51,-999.14C1453.77,-988.36 1487.06,-973.58 1513.13,-962"/>
<polygon fill="black" stroke="black" points="1514.66,-965.15 1522.38,-957.89 1511.82,-958.75 1514.66,-965.15"/>
</g>
<!-- https://w3id.org/oseg/ont/otrl#OTRL2 -->
<g id="node10" class="node">
<title>https://w3id.org/oseg/ont/otrl#OTRL2</title>
<ellipse fill="none" stroke="#e377c2" cx="895.71" cy="-882.54" rx="67.35" ry="16.03"/>
<text text-anchor="middle" x="895.71" y="-878.84" font-family="Times,serif" font-size="14.00">otrl:OTRL2</text>
</g>
<!-- https://w3id.org/oseg/ont/otrl#OTRL2&#45;&gt;https://w3id.org/oseg/ont/otrl#OTRL -->
<g id="edge43" class="edge">
<title>https://w3id.org/oseg/ont/otrl#OTRL2&#45;&gt;https://w3id.org/oseg/ont/otrl#OTRL</title>
<path fill="none" stroke="black" d="M897.48,-866.24C901.43,-829.75 911.02,-741.2 915.84,-696.73"/>
<polygon fill="black" stroke="black" points="919.33,-697 916.93,-686.69 912.37,-696.25 919.33,-697"/>
</g>
<!-- https://w3id.org/oseg/ont/otrl#ODRL4 -->
<g id="node11" class="node">
<title>https://w3id.org/oseg/ont/otrl#ODRL4</title>
<ellipse fill="none" stroke="#e377c2" cx="1892.32" cy="-920.79" rx="69.09" ry="16.03"/>
<text text-anchor="middle" x="1892.32" y="-917.09" font-family="Times,serif" font-size="14.00">otrl:ODRL4</text>
</g>
<!-- https://w3id.org/oseg/ont/otrl#ODRL4&#45;&gt;https://w3id.org/oseg/ont/otrl#ODRL -->
<g id="edge4" class="edge">
<title>https://w3id.org/oseg/ont/otrl#ODRL4&#45;&gt;https://w3id.org/oseg/ont/otrl#ODRL</title>
<path fill="none" stroke="black" d="M1825.5,-925.34C1767.62,-929.28 1684.15,-934.96 1625.09,-938.98"/>
<polygon fill="black" stroke="black" points="1624.83,-935.48 1615.09,-939.66 1625.3,-942.47 1624.83,-935.48"/>
</g>
<!-- https://w3id.org/oseg/ont/otrl#OTRL1 -->
<g id="node12" class="node">
<title>https://w3id.org/oseg/ont/otrl#OTRL1</title>
<ellipse fill="none" stroke="#e377c2" cx="995.8" cy="-396.11" rx="67.35" ry="16.03"/>
<text text-anchor="middle" x="995.8" y="-392.41" font-family="Times,serif" font-size="14.00">otrl:OTRL1</text>
</g>
<!-- https://w3id.org/oseg/ont/otrl#OTRL1&#45;&gt;https://w3id.org/oseg/ont/otrl#OTRL -->
<g id="edge22" class="edge">
<title>https://w3id.org/oseg/ont/otrl#OTRL1&#45;&gt;https://w3id.org/oseg/ont/otrl#OTRL</title>
<path fill="none" stroke="black" d="M991.2,-412.45C978.32,-458.26 941.76,-588.31 926.03,-644.24"/>
<polygon fill="black" stroke="black" points="922.6,-643.51 923.26,-654.08 929.34,-645.4 922.6,-643.51"/>
</g>
<!-- https://w3id.org/oseg/ont/otrl#OTRL5 -->
<g id="node13" class="node">
<title>https://w3id.org/oseg/ont/otrl#OTRL5</title>
<ellipse fill="none" stroke="#e377c2" cx="775.34" cy="-383.78" rx="67.35" ry="16.03"/>
<text text-anchor="middle" x="775.34" y="-380.08" font-family="Times,serif" font-size="14.00">otrl:OTRL5</text>
</g>
<!-- https://w3id.org/oseg/ont/otrl#OTRL5&#45;&gt;https://w3id.org/oseg/ont/otrl#OTRL -->
<g id="edge32" class="edge">
<title>https://w3id.org/oseg/ont/otrl#OTRL5&#45;&gt;https://w3id.org/oseg/ont/otrl#OTRL</title>
<path fill="none" stroke="black" d="M783.46,-400C807.26,-447.57 876.98,-586.94 905.9,-644.75"/>
<polygon fill="black" stroke="black" points="902.89,-646.55 910.49,-653.93 909.15,-643.42 902.89,-646.55"/>
</g>
<!-- https://w3id.org/oseg/ont/otrl#ODRL3Star -->
<g id="node14" class="node">
<title>https://w3id.org/oseg/ont/otrl#ODRL3Star</title>
<ellipse fill="none" stroke="#e377c2" cx="1770.33" cy="-1214.14" rx="90.52" ry="16.03"/>
<text text-anchor="middle" x="1770.33" y="-1210.44" font-family="Times,serif" font-size="14.00">otrl:ODRL3Star</text>
</g>
<!-- https://w3id.org/oseg/ont/otrl#ODRL3Star&#45;&gt;https://w3id.org/oseg/ont/otrl#ODRL -->
<g id="edge7" class="edge">
<title>https://w3id.org/oseg/ont/otrl#ODRL3Star&#45;&gt;https://w3id.org/oseg/ont/otrl#ODRL</title>
<path fill="none" stroke="black" d="M1757.45,-1198.04C1720.94,-1152.4 1616.63,-1021.99 1573.31,-967.83"/>
<polygon fill="black" stroke="black" points="1575.88,-965.45 1566.9,-959.82 1570.42,-969.82 1575.88,-965.45"/>
</g>
<!-- https://w3id.org/oseg/ont/otrl -->
<g id="node15" class="node">
<title>https://w3id.org/oseg/ont/otrl</title>
<ellipse fill="none" stroke="#e377c2" cx="2207.2" cy="-513.34" rx="50.82" ry="16.03"/>
<text text-anchor="middle" x="2207.2" y="-509.64" font-family="Times,serif" font-size="14.00">ns1:otrl</text>
</g>
<!-- https://w3id.org/oseg/ont/otrl&#45;&gt;http://spdx.org/rdf/terms#File -->
<g id="edge49" class="edge">
<title>https://w3id.org/oseg/ont/otrl&#45;&gt;http://spdx.org/rdf/terms#File</title>
<path fill="none" stroke="black" d="M2195.64,-529.22C2195.08,-529.99 2194.51,-530.77 2193.94,-531.55"/>
<polygon fill="black" stroke="black" points="2190.88,-529.81 2187.82,-539.96 2196.54,-533.93 2190.88,-529.81"/>
<text text-anchor="middle" x="2190.29" y="-534.18" font-family="Times,serif" font-size="14.00">a</text>
</g>
<!-- https://w3id.org/oseg/ont/oseg&#45;profiles#robinVobruba -->
<g id="node16" class="node">
<title>https://w3id.org/oseg/ont/oseg&#45;profiles#robinVobruba</title>
<ellipse fill="none" stroke="#e377c2" cx="2116.63" cy="-466.52" rx="113.69" ry="16.03"/>
<text text-anchor="middle" x="2116.63" y="-462.82" font-family="Times,serif" font-size="14.00">osegprof:robinVob...</text>
</g>
<!-- https://w3id.org/oseg/ont/otrl&#45;&gt;https://w3id.org/oseg/ont/oseg&#45;profiles#robinVobruba -->
<g id="edge6" class="edge">
<title>https://w3id.org/oseg/ont/otrl&#45;&gt;https://w3id.org/oseg/ont/oseg&#45;profiles#robinVobruba</title>
<path fill="none" stroke="black" d="M2189.73,-497.87C2183.83,-494.18 2176.92,-490.24 2169.73,-486.41"/>
<polygon fill="black" stroke="black" points="2171.04,-483.14 2160.55,-481.66 2167.82,-489.36 2171.04,-483.14"/>
<text text-anchor="middle" x="2122.23" y="-495.94" font-family="Times,serif" font-size="14.00">dcterms:creator</text>
</g>
<!-- https://w3id.org/oseg/ont/otrl&#45;&gt;https://w3id.org/oseg/ont/oseg&#45;profiles#robinVobruba -->
<g id="edge38" class="edge">
<title>https://w3id.org/oseg/ont/otrl&#45;&gt;https://w3id.org/oseg/ont/oseg&#45;profiles#robinVobruba</title>
<path fill="none" stroke="black" d="M2170.73,-501.85C2161.78,-497.58 2152.35,-492.66 2143.91,-487.84"/>
<polygon fill="black" stroke="black" points="2145.6,-484.77 2135.21,-482.68 2142.03,-490.79 2145.6,-484.77"/>
<text text-anchor="middle" x="2212.82" y="-483.64" font-family="Times,serif" font-size="14.00">schema:creator</text>
</g>
<!-- https://w3id.org/oseg/ont/oseg&#45;profiles#Iopa -->
<g id="node17" class="node">
<title>https://w3id.org/oseg/ont/oseg&#45;profiles#Iopa</title>
<ellipse fill="none" stroke="#e377c2" cx="2389.73" cy="-582.83" rx="80.72" ry="16.03"/>
<text text-anchor="middle" x="2389.73" y="-579.13" font-family="Times,serif" font-size="14.00">osegprof:Iopa</text>
</g>
<!-- https://w3id.org/oseg/ont/otrl&#45;&gt;https://w3id.org/oseg/ont/oseg&#45;profiles#Iopa -->
<g id="edge10" class="edge">
<title>https://w3id.org/oseg/ont/otrl&#45;&gt;https://w3id.org/oseg/ont/oseg&#45;profiles#Iopa</title>
<path fill="none" stroke="black" d="M2240.26,-525.92C2268.75,-536.77 2310.22,-552.56 2342.26,-564.76"/>
<polygon fill="black" stroke="black" points="2341.29,-568.13 2351.88,-568.42 2343.78,-561.59 2341.29,-568.13"/>
<text text-anchor="middle" x="2356.76" y="-549.14" font-family="Times,serif" font-size="14.00">dcterms:publisher</text>
</g>
<!-- https://w3id.org/oseg/ont/oseg&#45;profiles#martinHaeuer -->
<g id="node18" class="node">
<title>https://w3id.org/oseg/ont/oseg&#45;profiles#martinHaeuer</title>
<ellipse fill="none" stroke="#e377c2" cx="1965.12" cy="-556.54" rx="116.85" ry="16.03"/>
<text text-anchor="middle" x="1965.12" y="-552.84" font-family="Times,serif" font-size="14.00">osegprof:martinHa...</text>
</g>
<!-- https://w3id.org/oseg/ont/otrl&#45;&gt;https://w3id.org/oseg/ont/oseg&#45;profiles#martinHaeuer -->
<g id="edge12" class="edge">
<title>https://w3id.org/oseg/ont/otrl&#45;&gt;https://w3id.org/oseg/ont/oseg&#45;profiles#martinHaeuer</title>
<path fill="none" stroke="black" d="M2157.24,-516.62C2119.03,-521.97 2066.19,-531.26 2025.59,-539.69"/>
<polygon fill="black" stroke="black" points="2024.61,-536.32 2015.55,-541.81 2026.06,-543.17 2024.61,-536.32"/>
<text text-anchor="middle" x="2033.92" y="-516.95" font-family="Times,serif" font-size="14.00">dcterms:creator</text>
</g>
<!-- https://w3id.org/oseg/ont/otrl&#45;&gt;https://w3id.org/oseg/ont/oseg&#45;profiles#martinHaeuer -->
<g id="edge44" class="edge">
<title>https://w3id.org/oseg/ont/otrl&#45;&gt;https://w3id.org/oseg/ont/oseg&#45;profiles#martinHaeuer</title>
<path fill="none" stroke="black" d="M2171.05,-524.89C2143.76,-531.18 2104.86,-538.68 2068.21,-544.92"/>
<polygon fill="black" stroke="black" points="2067.22,-541.54 2057.94,-546.65 2068.38,-548.44 2067.22,-541.54"/>
<text text-anchor="middle" x="2119.63" y="-523.71" font-family="Times,serif" font-size="14.00">schema:creator</text>
</g>
<!-- https://spdx.org/licenses/GPL&#45;3.0&#45;or&#45;later -->
<g id="node20" class="node">
<title>https://spdx.org/licenses/GPL&#45;3.0&#45;or&#45;later</title>
<ellipse fill="none" stroke="#e377c2" cx="2231.97" cy="-740" rx="108.79" ry="16.03"/>
<text text-anchor="middle" x="2231.97" y="-736.3" font-family="Times,serif" font-size="14.00">spdxl:GPL&#45;3.0&#45;or&#45;...</text>
</g>
<!-- https://w3id.org/oseg/ont/otrl&#45;&gt;https://spdx.org/licenses/GPL&#45;3.0&#45;or&#45;later -->
<g id="edge14" class="edge">
<title>https://w3id.org/oseg/ont/otrl&#45;&gt;https://spdx.org/licenses/GPL&#45;3.0&#45;or&#45;later</title>
<path fill="none" stroke="black" d="M2208.98,-529.64C2213.21,-568.34 2223.89,-666.07 2229.07,-713.44"/>
<polygon fill="black" stroke="black" points="2225.6,-713.98 2230.17,-723.54 2232.56,-713.22 2225.6,-713.98"/>
<text text-anchor="middle" x="2140.02" y="-625.34" font-family="Times,serif" font-size="14.00">spdxt:licenseDeclared</text>
</g>
<!-- http://id.loc.gov/vocabulary/iso639&#45;1/en -->
<g id="node22" class="node">
<title>http://id.loc.gov/vocabulary/iso639&#45;1/en</title>
<ellipse fill="none" stroke="#e377c2" cx="2149.9" cy="-351.93" rx="45.01" ry="16.03"/>
<text text-anchor="middle" x="2149.9" y="-348.23" font-family="Times,serif" font-size="14.00">ns2:en</text>
</g>
<!-- https://w3id.org/oseg/ont/otrl&#45;&gt;http://id.loc.gov/vocabulary/iso639&#45;1/en -->
<g id="edge45" class="edge">
<title>https://w3id.org/oseg/ont/otrl&#45;&gt;http://id.loc.gov/vocabulary/iso639&#45;1/en</title>
<path fill="none" stroke="black" d="M2201.39,-496.97C2191.44,-468.94 2171.05,-411.5 2159.13,-377.93"/>
<polygon fill="black" stroke="black" points="2162.37,-376.59 2155.72,-368.34 2155.77,-378.93 2162.37,-376.59"/>
<text text-anchor="middle" x="2115.76" y="-426.25" font-family="Times,serif" font-size="14.00">dcterms:language</text>
</g>
<!-- https://w3id.org/oseg/ont/1.1.0/otrl -->
<g id="node25" class="node">
<title>https://w3id.org/oseg/ont/1.1.0/otrl</title>
<ellipse fill="none" stroke="#e377c2" cx="2333.3" cy="-401.67" rx="50.82" ry="16.03"/>
<text text-anchor="middle" x="2333.3" y="-397.97" font-family="Times,serif" font-size="14.00">ns3:otrl</text>
</g>
<!-- https://w3id.org/oseg/ont/otrl&#45;&gt;https://w3id.org/oseg/ont/1.1.0/otrl -->
<g id="edge53" class="edge">
<title>https://w3id.org/oseg/ont/otrl&#45;&gt;https://w3id.org/oseg/ont/1.1.0/otrl</title>
<path fill="none" stroke="black" d="M2224.74,-497.81C2246.47,-478.56 2283.67,-445.62 2308.37,-423.74"/>
<polygon fill="black" stroke="black" points="2310.75,-426.31 2315.92,-417.06 2306.11,-421.07 2310.75,-426.31"/>
<text text-anchor="middle" x="2318.05" y="-464.58" font-family="Times,serif" font-size="14.00">owl:versionIRI</text>
</g>
<!-- http://schema.org/Text -->
<g id="node19" class="node">
<title>http://schema.org/Text</title>
<ellipse fill="none" stroke="#e377c2" cx="1376.33" cy="-569.41" rx="74.91" ry="16.03"/>
<text text-anchor="middle" x="1376.33" y="-565.71" font-family="Times,serif" font-size="14.00">schema:Text</text>
</g>
<!-- https://w3id.org/oseg/ont/otrl#goal -->
<g id="node21" class="node">
<title>https://w3id.org/oseg/ont/otrl#goal</title>
<ellipse fill="none" stroke="#e377c2" cx="1255.52" cy="-790.11" rx="54.39" ry="16.03"/>
<text text-anchor="middle" x="1255.52" y="-786.41" font-family="Times,serif" font-size="14.00">otrl:goal</text>
</g>
<!-- https://w3id.org/oseg/ont/otrl#goal&#45;&gt;https://w3id.org/oseg/ont/otrl#ODRL -->
<g id="edge25" class="edge">
<title>https://w3id.org/oseg/ont/otrl#goal&#45;&gt;https://w3id.org/oseg/ont/otrl#ODRL</title>
<path fill="none" stroke="black" d="M1283.07,-804.3C1336.79,-831.95 1455.57,-893.09 1516.47,-924.44"/>
<polygon fill="black" stroke="black" points="1515.24,-927.74 1525.73,-929.21 1518.44,-921.52 1515.24,-927.74"/>
<text text-anchor="middle" x="1313.77" y="-868.17" font-family="Times,serif" font-size="14.00">schema:domainIncludes</text>
</g>
<!-- https://w3id.org/oseg/ont/otrl#goal&#45;&gt;https://w3id.org/oseg/ont/otrl#OTRL -->
<g id="edge3" class="edge">
<title>https://w3id.org/oseg/ont/otrl#goal&#45;&gt;https://w3id.org/oseg/ont/otrl#OTRL</title>
<path fill="none" stroke="black" d="M1220.43,-777.63C1159.32,-755.9 1033.39,-711.12 965.13,-686.84"/>
<polygon fill="black" stroke="black" points="966.09,-683.47 955.5,-683.42 963.75,-690.07 966.09,-683.47"/>
<text text-anchor="middle" x="1006.78" y="-736.04" font-family="Times,serif" font-size="14.00">schema:domainIncludes</text>
</g>
<!-- https://w3id.org/oseg/ont/otrl#goal&#45;&gt;http://schema.org/Text -->
<g id="edge11" class="edge">
<title>https://w3id.org/oseg/ont/otrl#goal&#45;&gt;http://schema.org/Text</title>
<path fill="none" stroke="black" d="M1264.4,-773.88C1285.26,-735.78 1337.49,-640.36 1362.53,-594.63"/>
<polygon fill="black" stroke="black" points="1365.7,-596.11 1367.43,-585.66 1359.56,-592.75 1365.7,-596.11"/>
<text text-anchor="middle" x="1292.46" y="-688.05" font-family="Times,serif" font-size="14.00">range</text>
</g>
<!-- https://w3id.org/oseg/ont/otrl#Odrl4 -->
<g id="node23" class="node">
<title>https://w3id.org/oseg/ont/otrl#Odrl4</title>
<ellipse fill="none" stroke="#e377c2" cx="2179.27" cy="-900.69" rx="61.54" ry="16.03"/>
<text text-anchor="middle" x="2179.27" y="-896.99" font-family="Times,serif" font-size="14.00">otrl:Odrl4</text>
</g>
<!-- https://w3id.org/oseg/ont/otrl#Odrl4&#45;&gt;https://w3id.org/oseg/ont/otrl#ODRL4 -->
<g id="edge21" class="edge">
<title>https://w3id.org/oseg/ont/otrl#Odrl4&#45;&gt;https://w3id.org/oseg/ont/otrl#ODRL4</title>
<path fill="none" stroke="black" d="M2117.67,-899.34C2071.01,-901.2 2006.98,-905.63 1959.1,-910.28"/>
<polygon fill="black" stroke="black" points="1958.74,-906.8 1949.14,-911.28 1959.44,-913.77 1958.74,-906.8"/>
<text text-anchor="middle" x="1958.38" y="-893.61" font-family="Times,serif" font-size="14.00">schema:supersededBy</text>
</g>
<!-- https://w3id.org/oseg/ont/otrl#Odrl4&#45;&gt;https://w3id.org/oseg/ont/otrl#ODRL4 -->
<g id="edge23" class="edge">
<title>https://w3id.org/oseg/ont/otrl#Odrl4&#45;&gt;https://w3id.org/oseg/ont/otrl#ODRL4</title>
<path fill="none" stroke="black" d="M2127.68,-909.65C2084.27,-914.28 2021.5,-918.93 1971.7,-921.35"/>
<polygon fill="black" stroke="black" points="1971.43,-917.86 1961.6,-921.82 1971.75,-924.85 1971.43,-917.86"/>
<text text-anchor="middle" x="2007.19" y="-919.3" font-family="Times,serif" font-size="14.00">owl:sameAs</text>
</g>
<!-- https://w3id.org/oseg/ont/otrl#exitCriteria -->
<g id="node24" class="node">
<title>https://w3id.org/oseg/ont/otrl#exitCriteria</title>
<ellipse fill="none" stroke="#e377c2" cx="1271.9" cy="-745.05" rx="91.43" ry="16.03"/>
<text text-anchor="middle" x="1271.9" y="-741.35" font-family="Times,serif" font-size="14.00">otrl:exitCriteria</text>
</g>
<!-- https://w3id.org/oseg/ont/otrl#exitCriteria&#45;&gt;https://w3id.org/oseg/ont/otrl#ODRL -->
<g id="edge1" class="edge">
<title>https://w3id.org/oseg/ont/otrl#exitCriteria&#45;&gt;https://w3id.org/oseg/ont/otrl#ODRL</title>
<path fill="none" stroke="black" d="M1294.52,-760.98C1345.02,-796.55 1467.01,-882.47 1523.92,-922.55"/>
<polygon fill="black" stroke="black" points="1521.96,-925.45 1532.15,-928.35 1525.99,-919.73 1521.96,-925.45"/>
<text text-anchor="middle" x="1323.22" y="-845.57" font-family="Times,serif" font-size="14.00">schema:domainIncludes</text>
</g>
<!-- https://w3id.org/oseg/ont/otrl#exitCriteria&#45;&gt;https://w3id.org/oseg/ont/otrl#OTRL -->
<g id="edge24" class="edge">
<title>https://w3id.org/oseg/ont/otrl#exitCriteria&#45;&gt;https://w3id.org/oseg/ont/otrl#OTRL</title>
<path fill="none" stroke="black" d="M1212.78,-732.54C1147.17,-718.66 1041.95,-696.4 976.76,-682.61"/>
<polygon fill="black" stroke="black" points="977.16,-679.12 966.65,-680.48 975.71,-685.97 977.16,-679.12"/>
<text text-anchor="middle" x="1008.77" y="-711.38" font-family="Times,serif" font-size="14.00">schema:domainIncludes</text>
</g>
<!-- https://w3id.org/oseg/ont/otrl#exitCriteria&#45;&gt;http://schema.org/Text -->
<g id="edge16" class="edge">
<title>https://w3id.org/oseg/ont/otrl#exitCriteria&#45;&gt;http://schema.org/Text</title>
<path fill="none" stroke="black" d="M1281.54,-728.84C1299.8,-698.12 1339.56,-631.25 1361.34,-594.62"/>
<polygon fill="black" stroke="black" points="1364.61,-595.96 1366.72,-585.58 1358.6,-592.38 1364.61,-595.96"/>
<text text-anchor="middle" x="1300.44" y="-665.53" font-family="Times,serif" font-size="14.00">range</text>
</g>
<!-- https://w3id.org/oseg/ont/otrl#Odrl1 -->
<g id="node26" class="node">
<title>https://w3id.org/oseg/ont/otrl#Odrl1</title>
<ellipse fill="none" stroke="black" cx="1378.05" cy="-1054.21" rx="196.65" ry="16.03"/>
<text text-anchor="middle" x="1378.05" y="-1050.51" font-family="Times,serif" font-size="14.00">https://w3id.org/oseg/ont/otrl#Odrl1</text>
</g>
<!-- https://w3id.org/oseg/ont/otrl#Odrl1&#45;&gt;https://w3id.org/oseg/ont/otrl#ODRL1 -->
<g id="edge8" class="edge">
<title>https://w3id.org/oseg/ont/otrl#Odrl1&#45;&gt;https://w3id.org/oseg/ont/otrl#ODRL1</title>
<path fill="none" stroke="black" d="M1393.17,-1037.7C1393.24,-1037.55 1393.32,-1037.4 1393.39,-1037.24"/>
<polygon fill="black" stroke="black" points="1395.66,-1040.89 1396.29,-1030.31 1389.2,-1038.19 1395.66,-1040.89"/>
<text text-anchor="middle" x="1350.78" y="-1026.27" font-family="Times,serif" font-size="14.00">owl:sameAs</text>
</g>
<!-- https://w3id.org/oseg/ont/otrl#Odrl1&#45;&gt;https://w3id.org/oseg/ont/otrl#ODRL1 -->
<g id="edge39" class="edge">
<title>https://w3id.org/oseg/ont/otrl#Odrl1&#45;&gt;https://w3id.org/oseg/ont/otrl#ODRL1</title>
<path fill="none" stroke="black" d="M1378.62,-1037.75C1378.65,-1037.67 1378.68,-1037.58 1378.71,-1037.5"/>
<polygon fill="black" stroke="black" points="1381.37,-1040.18 1382.07,-1029.61 1374.93,-1037.44 1381.37,-1040.18"/>
<text text-anchor="middle" x="1458.67" y="-1026.42" font-family="Times,serif" font-size="14.00">schema:supersededBy</text>
</g>
<!-- https://w3id.org/oseg/ont/otrl#Otrl5 -->
<g id="node27" class="node">
<title>https://w3id.org/oseg/ont/otrl#Otrl5</title>
<ellipse fill="none" stroke="black" cx="597.2" cy="-16.22" rx="194.41" ry="16.03"/>
<text text-anchor="middle" x="597.2" y="-12.52" font-family="Times,serif" font-size="14.00">https://w3id.org/oseg/ont/otrl#Otrl5</text>
</g>
<!-- https://w3id.org/oseg/ont/otrl#Otrl5&#45;&gt;https://w3id.org/oseg/ont/otrl#OTRL5 -->
<g id="edge9" class="edge">
<title>https://w3id.org/oseg/ont/otrl#Otrl5&#45;&gt;https://w3id.org/oseg/ont/otrl#OTRL5</title>
<path fill="none" stroke="black" d="M602.01,-32.82C625.02,-91.37 720.14,-288.25 758.99,-358.58"/>
<polygon fill="black" stroke="black" points="756.13,-360.63 764.08,-367.63 762.23,-357.2 756.13,-360.63"/>
<text text-anchor="middle" x="600.5" y="-199.5" font-family="Times,serif" font-size="14.00">schema:supersededBy</text>
</g>
<!-- https://w3id.org/oseg/ont/otrl#Otrl5&#45;&gt;https://w3id.org/oseg/ont/otrl#OTRL5 -->
<g id="edge28" class="edge">
<title>https://w3id.org/oseg/ont/otrl#Otrl5&#45;&gt;https://w3id.org/oseg/ont/otrl#OTRL5</title>
<path fill="none" stroke="black" d="M608.59,-32.59C641.97,-90.69 737.25,-286.94 766.78,-357.92"/>
<polygon fill="black" stroke="black" points="763.64,-359.5 770.64,-367.45 770.13,-356.87 763.64,-359.5"/>
<text text-anchor="middle" x="645.19" y="-184.06" font-family="Times,serif" font-size="14.00">owl:sameAs</text>
</g>
<!-- https://w3id.org/oseg/ont/otrl#Odrl -->
<g id="node28" class="node">
<title>https://w3id.org/oseg/ont/otrl#Odrl</title>
<ellipse fill="none" stroke="black" cx="1932.4" cy="-1127.83" rx="190.42" ry="16.03"/>
<text text-anchor="middle" x="1932.4" y="-1124.13" font-family="Times,serif" font-size="14.00">https://w3id.org/oseg/ont/otrl#Odrl</text>
</g>
<!-- https://w3id.org/oseg/ont/otrl#Odrl&#45;&gt;https://w3id.org/oseg/ont/otrl#ODRL -->
<g id="edge13" class="edge">
<title>https://w3id.org/oseg/ont/otrl#Odrl&#45;&gt;https://w3id.org/oseg/ont/otrl#ODRL</title>
<path fill="none" stroke="black" d="M1907.4,-1111.6C1844.82,-1076.93 1680.81,-996.82 1600.17,-961.19"/>
<polygon fill="black" stroke="black" points="1601.32,-957.88 1590.76,-957.07 1598.52,-964.29 1601.32,-957.88"/>
<text text-anchor="middle" x="1711.28" y="-1025.19" font-family="Times,serif" font-size="14.00">owl:sameAs</text>
</g>
<!-- https://w3id.org/oseg/ont/otrl#Odrl&#45;&gt;https://w3id.org/oseg/ont/otrl#ODRL -->
<g id="edge26" class="edge">
<title>https://w3id.org/oseg/ont/otrl#Odrl&#45;&gt;https://w3id.org/oseg/ont/otrl#ODRL</title>
<path fill="none" stroke="black" d="M1889.63,-1111.91C1813.03,-1078.27 1654.13,-1000.85 1586.1,-963.89"/>
<polygon fill="black" stroke="black" points="1587.57,-960.7 1577.12,-958.95 1584.2,-966.84 1587.57,-960.7"/>
<text text-anchor="middle" x="1657.87" y="-1041.7" font-family="Times,serif" font-size="14.00">schema:supersededBy</text>
</g>
<!-- https://w3id.org/oseg/ont/otrl#Otrl4 -->
<g id="node29" class="node">
<title>https://w3id.org/oseg/ont/otrl#Otrl4</title>
<ellipse fill="none" stroke="black" cx="595.19" cy="-860.5" rx="194.41" ry="16.03"/>
<text text-anchor="middle" x="595.19" y="-856.8" font-family="Times,serif" font-size="14.00">https://w3id.org/oseg/ont/otrl#Otrl4</text>
</g>
<!-- https://w3id.org/oseg/ont/otrl#Otrl4&#45;&gt;https://w3id.org/oseg/ont/otrl#OTRL4 -->
<g id="edge15" class="edge">
<title>https://w3id.org/oseg/ont/otrl#Otrl4&#45;&gt;https://w3id.org/oseg/ont/otrl#OTRL4</title>
<path fill="none" stroke="black" d="M634.93,-844.39C637.82,-842.64 640.67,-840.84 643.42,-839.04"/>
<polygon fill="black" stroke="black" points="645.47,-841.88 651.73,-833.34 641.5,-836.11 645.47,-841.88"/>
<text text-anchor="middle" x="559.17" y="-830.52" font-family="Times,serif" font-size="14.00">schema:supersededBy</text>
</g>
<!-- https://w3id.org/oseg/ont/otrl#Otrl4&#45;&gt;https://w3id.org/oseg/ont/otrl#OTRL4 -->
<g id="edge18" class="edge">
<title>https://w3id.org/oseg/ont/otrl#Otrl4&#45;&gt;https://w3id.org/oseg/ont/otrl#OTRL4</title>
<path fill="none" stroke="black" d="M610.55,-844.23C614.11,-841.67 618.06,-839.01 622.19,-836.4"/>
<polygon fill="black" stroke="black" points="624.08,-839.34 630.8,-831.15 620.44,-833.36 624.08,-839.34"/>
<text text-anchor="middle" x="658.87" y="-844.12" font-family="Times,serif" font-size="14.00">owl:sameAs</text>
</g>
<!-- https://w3id.org/oseg/ont/otrl#Otrl6 -->
<g id="node30" class="node">
<title>https://w3id.org/oseg/ont/otrl#Otrl6</title>
<ellipse fill="none" stroke="black" cx="194.51" cy="-674.48" rx="194.41" ry="16.03"/>
<text text-anchor="middle" x="194.51" y="-670.78" font-family="Times,serif" font-size="14.00">https://w3id.org/oseg/ont/otrl#Otrl6</text>
</g>
<!-- https://w3id.org/oseg/ont/otrl#Otrl6&#45;&gt;https://w3id.org/oseg/ont/otrl#OTRL6 -->
<g id="edge17" class="edge">
<title>https://w3id.org/oseg/ont/otrl#Otrl6&#45;&gt;https://w3id.org/oseg/ont/otrl#OTRL6</title>
<path fill="none" stroke="black" d="M385.19,-671.29C438.96,-668.6 494.05,-665.23 535.58,-661.93"/>
<polygon fill="black" stroke="black" points="535.89,-665.42 545.57,-661.12 535.32,-658.44 535.89,-665.42"/>
<text text-anchor="middle" x="460.39" y="-655.41" font-family="Times,serif" font-size="14.00">schema:supersededBy</text>
</g>
<!-- https://w3id.org/oseg/ont/otrl#Otrl6&#45;&gt;https://w3id.org/oseg/ont/otrl#OTRL6 -->
<g id="edge20" class="edge">
<title>https://w3id.org/oseg/ont/otrl#Otrl6&#45;&gt;https://w3id.org/oseg/ont/otrl#OTRL6</title>
<path fill="none" stroke="black" d="M317.22,-661.83C385.53,-657.39 468.46,-653.35 527.64,-651.72"/>
<polygon fill="black" stroke="black" points="527.76,-655.22 537.67,-651.46 527.58,-648.22 527.76,-655.22"/>
<text text-anchor="middle" x="379.93" y="-645.58" font-family="Times,serif" font-size="14.00">owl:sameAs</text>
</g>
<!-- https://w3id.org/oseg/ont/otrl#Odrl3Star -->
<g id="node31" class="node">
<title>https://w3id.org/oseg/ont/otrl#Odrl3Star</title>
<ellipse fill="none" stroke="black" cx="2043.25" cy="-1582.07" rx="218.49" ry="16.03"/>
<text text-anchor="middle" x="2043.25" y="-1578.37" font-family="Times,serif" font-size="14.00">https://w3id.org/oseg/ont/otrl#Odrl3Star</text>
</g>
<!-- https://w3id.org/oseg/ont/otrl#Odrl3Star&#45;&gt;https://w3id.org/oseg/ont/otrl#ODRL3Star -->
<g id="edge19" class="edge">
<title>https://w3id.org/oseg/ont/otrl#Odrl3Star&#45;&gt;https://w3id.org/oseg/ont/otrl#ODRL3Star</title>
<path fill="none" stroke="black" d="M2034.52,-1565.48C1996.86,-1506.5 1849.48,-1307.37 1792.68,-1238.08"/>
<polygon fill="black" stroke="black" points="1795.29,-1235.75 1786.21,-1230.29 1789.91,-1240.22 1795.29,-1235.75"/>
<text text-anchor="middle" x="1871.1" y="-1390.58" font-family="Times,serif" font-size="14.00">owl:sameAs</text>
</g>
<!-- https://w3id.org/oseg/ont/otrl#Odrl3Star&#45;&gt;https://w3id.org/oseg/ont/otrl#ODRL3Star -->
<g id="edge54" class="edge">
<title>https://w3id.org/oseg/ont/otrl#Odrl3Star&#45;&gt;https://w3id.org/oseg/ont/otrl#ODRL3Star</title>
<path fill="none" stroke="black" d="M2027.19,-1565.7C1978.03,-1507.3 1831.13,-1309.44 1784.54,-1239.13"/>
<polygon fill="black" stroke="black" points="1787.28,-1236.92 1778.89,-1230.46 1781.41,-1240.74 1787.28,-1236.92"/>
<text text-anchor="middle" x="1825.86" y="-1406.22" font-family="Times,serif" font-size="14.00">schema:supersededBy</text>
</g>
<!-- https://w3id.org/oseg/ont/otrl#Otrl2 -->
<g id="node32" class="node">
<title>https://w3id.org/oseg/ont/otrl#Otrl2</title>
<ellipse fill="none" stroke="black" cx="879.02" cy="-927.21" rx="194.41" ry="16.03"/>
<text text-anchor="middle" x="879.02" y="-923.51" font-family="Times,serif" font-size="14.00">https://w3id.org/oseg/ont/otrl#Otrl2</text>
</g>
<!-- https://w3id.org/oseg/ont/otrl#Otrl2&#45;&gt;https://w3id.org/oseg/ont/otrl#OTRL2 -->
<g id="edge27" class="edge">
<title>https://w3id.org/oseg/ont/otrl#Otrl2&#45;&gt;https://w3id.org/oseg/ont/otrl#OTRL2</title>
<path fill="none" stroke="black" d="M892.25,-910.86C892.56,-910.13 892.85,-909.4 893.14,-908.66"/>
<polygon fill="black" stroke="black" points="896.52,-909.61 896.32,-899.02 889.87,-907.42 896.52,-909.61"/>
<text text-anchor="middle" x="812.7" y="-898.56" font-family="Times,serif" font-size="14.00">schema:supersededBy</text>
</g>
<!-- https://w3id.org/oseg/ont/otrl#Otrl2&#45;&gt;https://w3id.org/oseg/ont/otrl#OTRL2 -->
<g id="edge36" class="edge">
<title>https://w3id.org/oseg/ont/otrl#Otrl2&#45;&gt;https://w3id.org/oseg/ont/otrl#OTRL2</title>
<path fill="none" stroke="black" d="M878.38,-910.86C878.61,-909.98 878.86,-909.08 879.13,-908.18"/>
<polygon fill="black" stroke="black" points="882.52,-909.1 882.65,-898.51 875.94,-906.71 882.52,-909.1"/>
<text text-anchor="middle" x="921.25" y="-898.32" font-family="Times,serif" font-size="14.00">owl:sameAs</text>
</g>
<!-- https://w3id.org/oseg/ont/otrl#Otrl3 -->
<g id="node33" class="node">
<title>https://w3id.org/oseg/ont/otrl#Otrl3</title>
<ellipse fill="none" stroke="black" cx="308.46" cy="-283.4" rx="194.41" ry="16.03"/>
<text text-anchor="middle" x="308.46" y="-279.7" font-family="Times,serif" font-size="14.00">https://w3id.org/oseg/ont/otrl#Otrl3</text>
</g>
<!-- https://w3id.org/oseg/ont/otrl#Otrl3&#45;&gt;https://w3id.org/oseg/ont/otrl#OTRL3 -->
<g id="edge30" class="edge">
<title>https://w3id.org/oseg/ont/otrl#Otrl3&#45;&gt;https://w3id.org/oseg/ont/otrl#OTRL3</title>
<path fill="none" stroke="black" d="M328.16,-299.65C383.64,-338.67 541.72,-436.71 616.57,-478.94"/>
<polygon fill="black" stroke="black" points="615.26,-482.22 625.7,-484.04 618.68,-476.11 615.26,-482.22"/>
<text text-anchor="middle" x="392.37" y="-393.09" font-family="Times,serif" font-size="14.00">schema:supersededBy</text>
</g>
<!-- https://w3id.org/oseg/ont/otrl#Otrl3&#45;&gt;https://w3id.org/oseg/ont/otrl#OTRL3 -->
<g id="edge41" class="edge">
<title>https://w3id.org/oseg/ont/otrl#Otrl3&#45;&gt;https://w3id.org/oseg/ont/otrl#OTRL3</title>
<path fill="none" stroke="black" d="M342.45,-299.58C411.37,-337.96 566.24,-433.7 629.3,-476.97"/>
<polygon fill="black" stroke="black" points="627.36,-479.88 637.57,-482.71 631.35,-474.13 627.36,-479.88"/>
<text text-anchor="middle" x="443.37" y="-377.07" font-family="Times,serif" font-size="14.00">owl:sameAs</text>
</g>
<!-- https://w3id.org/oseg/ont/otrl#Otrl -->
<g id="node34" class="node">
<title>https://w3id.org/oseg/ont/otrl#Otrl</title>
<ellipse fill="none" stroke="black" cx="919.25" cy="-621.3" rx="188.18" ry="16.03"/>
<text text-anchor="middle" x="919.25" y="-617.6" font-family="Times,serif" font-size="14.00">https://w3id.org/oseg/ont/otrl#Otrl</text>
</g>
<!-- https://w3id.org/oseg/ont/otrl#Otrl&#45;&gt;https://w3id.org/oseg/ont/otrl#OTRL -->
<g id="edge33" class="edge">
<title>https://w3id.org/oseg/ont/otrl#Otrl&#45;&gt;https://w3id.org/oseg/ont/otrl#OTRL</title>
<path fill="none" stroke="black" d="M912.66,-637.56C912.47,-639.52 912.34,-641.56 912.27,-643.62"/>
<polygon fill="black" stroke="black" points="908.77,-643.91 912.47,-653.84 915.77,-643.77 908.77,-643.91"/>
<text text-anchor="middle" x="832.46" y="-644.39" font-family="Times,serif" font-size="14.00">schema:supersededBy</text>
</g>
<!-- https://w3id.org/oseg/ont/otrl#Otrl&#45;&gt;https://w3id.org/oseg/ont/otrl#OTRL -->
<g id="edge42" class="edge">
<title>https://w3id.org/oseg/ont/otrl#Otrl&#45;&gt;https://w3id.org/oseg/ont/otrl#OTRL</title>
<path fill="none" stroke="black" d="M925.47,-637.7C925.62,-639.67 925.7,-641.71 925.72,-643.77"/>
<polygon fill="black" stroke="black" points="922.22,-643.84 925.29,-653.98 929.21,-644.14 922.22,-643.84"/>
<text text-anchor="middle" x="968.09" y="-644.54" font-family="Times,serif" font-size="14.00">owl:sameAs</text>
</g>
<!-- https://w3id.org/oseg/ont/otrl#Otrl1 -->
<g id="node35" class="node">
<title>https://w3id.org/oseg/ont/otrl#Otrl1</title>
<ellipse fill="none" stroke="black" cx="1009.82" cy="-341.28" rx="194.41" ry="16.03"/>
<text text-anchor="middle" x="1009.82" y="-337.58" font-family="Times,serif" font-size="14.00">https://w3id.org/oseg/ont/otrl#Otrl1</text>
</g>
<!-- https://w3id.org/oseg/ont/otrl#Otrl1&#45;&gt;https://w3id.org/oseg/ont/otrl#OTRL1 -->
<g id="edge34" class="edge">
<title>https://w3id.org/oseg/ont/otrl#Otrl1&#45;&gt;https://w3id.org/oseg/ont/otrl#OTRL1</title>
<path fill="none" stroke="black" d="M999.05,-357.66C997.74,-361.47 996.56,-365.63 995.6,-369.75"/>
<polygon fill="black" stroke="black" points="992.13,-369.25 993.71,-379.73 999.01,-370.55 992.13,-369.25"/>
<text text-anchor="middle" x="1077.32" y="-367.5" font-family="Times,serif" font-size="14.00">schema:supersededBy</text>
</g>
<!-- https://w3id.org/oseg/ont/otrl#Otrl1&#45;&gt;https://w3id.org/oseg/ont/otrl#OTRL1 -->
<g id="edge35" class="edge">
<title>https://w3id.org/oseg/ont/otrl#Otrl1&#45;&gt;https://w3id.org/oseg/ont/otrl#OTRL1</title>
<path fill="none" stroke="black" d="M1011.89,-357.77C1011.33,-361.73 1010.45,-366.06 1009.36,-370.33"/>
<polygon fill="black" stroke="black" points="1005.98,-369.42 1006.48,-380 1012.69,-371.41 1005.98,-369.42"/>
<text text-anchor="middle" x="968.12" y="-367.85" font-family="Times,serif" font-size="14.00">owl:sameAs</text>
</g>
<!-- https://w3id.org/oseg/ont/otrl#Odrl3 -->
<g id="node36" class="node">
<title>https://w3id.org/oseg/ont/otrl#Odrl3</title>
<ellipse fill="none" stroke="black" cx="1548.43" cy="-1259.72" rx="196.65" ry="16.03"/>
<text text-anchor="middle" x="1548.43" y="-1256.02" font-family="Times,serif" font-size="14.00">https://w3id.org/oseg/ont/otrl#Odrl3</text>
</g>
<!-- https://w3id.org/oseg/ont/otrl#Odrl3&#45;&gt;https://w3id.org/oseg/ont/otrl#ODRL3 -->
<g id="edge37" class="edge">
<title>https://w3id.org/oseg/ont/otrl#Odrl3&#45;&gt;https://w3id.org/oseg/ont/otrl#ODRL3</title>
<path fill="none" stroke="black" d="M1554.73,-1243.32C1554.74,-1243.23 1554.74,-1243.15 1554.74,-1243.06"/>
<polygon fill="black" stroke="black" points="1558.28,-1244.77 1554.58,-1234.84 1551.28,-1244.91 1558.28,-1244.77"/>
<text text-anchor="middle" x="1634.74" y="-1231.99" font-family="Times,serif" font-size="14.00">schema:supersededBy</text>
</g>
<!-- https://w3id.org/oseg/ont/otrl#Odrl3&#45;&gt;https://w3id.org/oseg/ont/otrl#ODRL3 -->
<g id="edge40" class="edge">
<title>https://w3id.org/oseg/ont/otrl#Odrl3&#45;&gt;https://w3id.org/oseg/ont/otrl#ODRL3</title>
<path fill="none" stroke="black" d="M1541.47,-1243.1C1541.46,-1243.01 1541.45,-1242.92 1541.45,-1242.84"/>
<polygon fill="black" stroke="black" points="1544.97,-1244.69 1541.35,-1234.73 1537.97,-1244.77 1544.97,-1244.69"/>
<text text-anchor="middle" x="1498.96" y="-1231.77" font-family="Times,serif" font-size="14.00">owl:sameAs</text>
</g>
<!-- https://w3id.org/oseg/ont/otrl#Odrl2 -->
<g id="node37" class="node">
<title>https://w3id.org/oseg/ont/otrl#Odrl2</title>
<ellipse fill="none" stroke="black" cx="1745.4" cy="-758.63" rx="196.65" ry="16.03"/>
<text text-anchor="middle" x="1745.4" y="-754.93" font-family="Times,serif" font-size="14.00">https://w3id.org/oseg/ont/otrl#Odrl2</text>
</g>
<!-- https://w3id.org/oseg/ont/otrl#Odrl2&#45;&gt;https://w3id.org/oseg/ont/otrl#ODRL2 -->
<g id="edge46" class="edge">
<title>https://w3id.org/oseg/ont/otrl#Odrl2&#45;&gt;https://w3id.org/oseg/ont/otrl#ODRL2</title>
<path fill="none" stroke="black" d="M1716.45,-774.86C1716.08,-775.19 1715.71,-775.53 1715.34,-775.86"/>
<polygon fill="black" stroke="black" points="1712.82,-773.43 1708.06,-782.9 1717.68,-778.46 1712.82,-773.43"/>
<text text-anchor="middle" x="1795.9" y="-779.16" font-family="Times,serif" font-size="14.00">schema:supersededBy</text>
</g>
<!-- https://w3id.org/oseg/ont/otrl#Odrl2&#45;&gt;https://w3id.org/oseg/ont/otrl#ODRL2 -->
<g id="edge50" class="edge">
<title>https://w3id.org/oseg/ont/otrl#Odrl2&#45;&gt;https://w3id.org/oseg/ont/otrl#ODRL2</title>
<path fill="none" stroke="black" d="M1735.68,-775.32C1735.04,-775.98 1734.39,-776.64 1733.72,-777.3"/>
<polygon fill="black" stroke="black" points="1731.05,-775.01 1726.09,-784.37 1735.81,-780.15 1731.05,-775.01"/>
<text text-anchor="middle" x="1692.2" y="-765.11" font-family="Times,serif" font-size="14.00">owl:sameAs</text>
</g>
<!-- https://w3id.org/oseg/ont/otrl#Odrl5 -->
<g id="node38" class="node">
<title>https://w3id.org/oseg/ont/otrl#Odrl5</title>
<ellipse fill="none" stroke="black" cx="2585.46" cy="-885.04" rx="196.65" ry="16.03"/>
<text text-anchor="middle" x="2585.46" y="-881.34" font-family="Times,serif" font-size="14.00">https://w3id.org/oseg/ont/otrl#Odrl5</text>
</g>
<!-- https://w3id.org/oseg/ont/otrl#Odrl5&#45;&gt;https://w3id.org/oseg/ont/otrl#Odrl4 -->
<g id="edge47" class="edge">
<title>https://w3id.org/oseg/ont/otrl#Odrl5&#45;&gt;https://w3id.org/oseg/ont/otrl#Odrl4</title>
<path fill="none" stroke="black" d="M2388.95,-885.86C2337.11,-887.8 2284.7,-890.36 2245.24,-893"/>
<polygon fill="black" stroke="black" points="2244.98,-889.51 2235.24,-893.69 2245.46,-896.49 2244.98,-889.51"/>
<text text-anchor="middle" x="2277.09" y="-878.23" font-family="Times,serif" font-size="14.00">schema:supersededBy</text>
</g>
<!-- https://w3id.org/oseg/ont/otrl#Odrl5&#45;&gt;https://w3id.org/oseg/ont/otrl#Odrl4 -->
<g id="edge51" class="edge">
<title>https://w3id.org/oseg/ont/otrl#Odrl5&#45;&gt;https://w3id.org/oseg/ont/otrl#Odrl4</title>
<path fill="none" stroke="black" d="M2448.75,-896.73C2382.25,-899.98 2305.07,-902.57 2250.39,-903.22"/>
<polygon fill="black" stroke="black" points="2250.07,-899.72 2240.11,-903.32 2250.14,-906.72 2250.07,-899.72"/>
<text text-anchor="middle" x="2307.07" y="-903.78" font-family="Times,serif" font-size="14.00">owl:sameAs</text>
</g>
</g>
</svg>
