<?xml version="1.0" encoding="UTF-8" standalone="no"?>
<!DOCTYPE svg PUBLIC "-//W3C//DTD SVG 1.1//EN"
 "http://www.w3.org/Graphics/SVG/1.1/DTD/svg11.dtd">
<!-- Generated by graphviz version 2.43.0 (0)
 -->
<!-- Title: G Pages: 1 -->
<svg width="1479pt" height="1276pt"
 viewBox="0.00 0.00 1479.00 1276.00" xmlns="http://www.w3.org/2000/svg" xmlns:xlink="http://www.w3.org/1999/xlink">
<g id="graph0" class="graph" transform="scale(1 1) rotate(0) translate(4 1272)">
<title>G</title>
<polygon fill="white" stroke="transparent" points="-4,4 -4,-1272 1475,-1272 1475,4 -4,4"/>
<!-- http://spdx.org/rdf/terms#SpdxItem -->
<g id="node1" class="node">
<title>http://spdx.org/rdf/terms#SpdxItem</title>
<ellipse fill="none" stroke="#1f77b4" cx="953.38" cy="-587.15" rx="87.86" ry="16.03"/>
<text text-anchor="middle" x="953.38" y="-583.45" font-family="Times,serif" font-size="14.00">spdx:SpdxItem</text>
</g>
<!-- http://www.w3.org/2004/02/skos/core#Concept -->
<g id="node2" class="node">
<title>http://www.w3.org/2004/02/skos/core#Concept</title>
<ellipse fill="none" stroke="#1f77b4" cx="490.38" cy="-533.43" rx="78.48" ry="16.03"/>
<text text-anchor="middle" x="490.38" y="-529.73" font-family="Times,serif" font-size="14.00">skos:Concept</text>
</g>
<!-- http://www.w3.org/2004/02/skos/core#Collection -->
<g id="node3" class="node">
<title>http://www.w3.org/2004/02/skos/core#Collection</title>
<ellipse fill="none" stroke="#e377c2" cx="862.66" cy="-749.55" rx="87.86" ry="16.03"/>
<text text-anchor="middle" x="862.66" y="-745.85" font-family="Times,serif" font-size="14.00">skos:Collection</text>
</g>
<!-- http://w3id.org/oseg/ont/okhmeta#Tag -->
<g id="node4" class="node">
<title>http://w3id.org/oseg/ont/okhmeta#Tag</title>
<ellipse fill="none" stroke="#e377c2" cx="503.27" cy="-903.23" rx="76.24" ry="16.03"/>
<text text-anchor="middle" x="503.27" y="-899.53" font-family="Times,serif" font-size="14.00">okhmeta:Tag</text>
</g>
<!-- http://w3id.org/oseg/ont/okhmeta#Tag&#45;&gt;http://www.w3.org/2004/02/skos/core#Concept -->
<g id="edge3" class="edge">
<title>http://w3id.org/oseg/ont/okhmeta#Tag&#45;&gt;http://www.w3.org/2004/02/skos/core#Concept</title>
<path fill="none" stroke="black" d="M502.7,-886.86C500.67,-828.76 493.82,-632.06 491.31,-560.09"/>
<polygon fill="black" stroke="black" points="494.81,-559.9 490.96,-550.03 487.81,-560.14 494.81,-559.9"/>
<text text-anchor="middle" x="492.5" y="-727.28" font-family="Times,serif" font-size="14.00">a</text>
</g>
<!-- http://w3id.org/oseg/ont/okhmeta#Tag&#45;&gt;http://www.w3.org/2004/02/skos/core#Collection -->
<g id="edge30" class="edge">
<title>http://w3id.org/oseg/ont/okhmeta#Tag&#45;&gt;http://www.w3.org/2004/02/skos/core#Collection</title>
<path fill="none" stroke="black" d="M537.4,-888.63C602.8,-860.67 745.7,-799.56 818.35,-768.5"/>
<polygon fill="black" stroke="black" points="819.88,-771.65 827.7,-764.5 817.13,-765.21 819.88,-771.65"/>
</g>
<!-- http://w3id.org/oseg/ont/okhmeta#MetaTag -->
<g id="node5" class="node">
<title>http://w3id.org/oseg/ont/okhmeta#MetaTag</title>
<ellipse fill="none" stroke="#e377c2" cx="428.3" cy="-858.66" rx="102.56" ry="16.03"/>
<text text-anchor="middle" x="428.3" y="-854.96" font-family="Times,serif" font-size="14.00">okhmeta:MetaTag</text>
</g>
<!-- http://w3id.org/oseg/ont/okhmeta#Tag&#45;&gt;http://w3id.org/oseg/ont/okhmeta#MetaTag -->
<g id="edge33" class="edge">
<title>http://w3id.org/oseg/ont/okhmeta#Tag&#45;&gt;http://w3id.org/oseg/ont/okhmeta#MetaTag</title>
<path fill="none" stroke="black" d="M487.76,-887.13C484.14,-884.55 480.1,-881.86 475.88,-879.2"/>
<polygon fill="black" stroke="black" points="477.4,-876.03 467.03,-873.85 473.77,-882.02 477.4,-876.03"/>
<text text-anchor="middle" x="558.82" y="-871.97" font-family="Times,serif" font-size="14.00">okhmeta:hasMetaTag</text>
</g>
<!-- http://w3id.org/oseg/ont/okhmeta#MetaTag&#45;&gt;http://w3id.org/oseg/ont/okhmeta#Tag -->
<g id="edge34" class="edge">
<title>http://w3id.org/oseg/ont/okhmeta#MetaTag&#45;&gt;http://w3id.org/oseg/ont/okhmeta#Tag</title>
<path fill="none" stroke="black" d="M443.81,-874.76C447.88,-877.66 452.48,-880.7 457.27,-883.67"/>
<polygon fill="black" stroke="black" points="455.65,-886.78 466.03,-888.91 459.25,-880.77 455.65,-886.78"/>
<text text-anchor="middle" x="446.04" y="-883.02" font-family="Times,serif" font-size="14.00">a</text>
</g>
<!-- http://w3id.org/oseg/ont/okhmeta#MetaTag&#45;&gt;http://w3id.org/oseg/ont/okhmeta#MetaTag -->
<g id="edge18" class="edge">
<title>http://w3id.org/oseg/ont/okhmeta#MetaTag&#45;&gt;http://w3id.org/oseg/ont/okhmeta#MetaTag</title>
<path fill="none" stroke="black" d="M523.3,-864.88C538.46,-863.97 548.83,-861.9 548.83,-858.66 548.83,-856.21 542.87,-854.43 533.39,-853.31"/>
<polygon fill="black" stroke="black" points="533.56,-849.81 523.3,-852.45 532.96,-856.79 533.56,-849.81"/>
<text text-anchor="middle" x="625.83" y="-854.96" font-family="Times,serif" font-size="14.00">okhmeta:hasMetaTag</text>
</g>
<!-- http://w3id.org/oseg/ont/okhmeta#MakingTag -->
<g id="node6" class="node">
<title>http://w3id.org/oseg/ont/okhmeta#MakingTag</title>
<ellipse fill="none" stroke="#e377c2" cx="217.54" cy="-1139.49" rx="113.69" ry="16.03"/>
<text text-anchor="middle" x="217.54" y="-1135.79" font-family="Times,serif" font-size="14.00">okhmeta:MakingTag</text>
</g>
<!-- http://w3id.org/oseg/ont/okhmeta#MakingTag&#45;&gt;http://w3id.org/oseg/ont/okhmeta#Tag -->
<g id="edge1" class="edge">
<title>http://w3id.org/oseg/ont/okhmeta#MakingTag&#45;&gt;http://w3id.org/oseg/ont/okhmeta#Tag</title>
<path fill="none" stroke="black" d="M237.18,-1123.25C287.05,-1082.01 418.68,-973.17 475.98,-925.8"/>
<polygon fill="black" stroke="black" points="478.39,-928.34 483.87,-919.27 473.93,-922.94 478.39,-928.34"/>
<text text-anchor="middle" x="352.08" y="-1028.32" font-family="Times,serif" font-size="14.00">a</text>
</g>
<!-- http://w3id.org/oseg/ont/okhmeta#MakingTag&#45;&gt;http://w3id.org/oseg/ont/okhmeta#MetaTag -->
<g id="edge35" class="edge">
<title>http://w3id.org/oseg/ont/okhmeta#MakingTag&#45;&gt;http://w3id.org/oseg/ont/okhmeta#MetaTag</title>
<path fill="none" stroke="black" d="M229.78,-1123.18C265.14,-1076.06 367.58,-939.57 409.79,-883.33"/>
<polygon fill="black" stroke="black" points="412.82,-885.12 416.03,-875.02 407.23,-880.92 412.82,-885.12"/>
<text text-anchor="middle" x="242.79" y="-1007.06" font-family="Times,serif" font-size="14.00">okhmeta:hasMetaTag</text>
</g>
<!-- http://w3id.org/oseg/ont/okhmeta#DataGatheringTag -->
<g id="node7" class="node">
<title>http://w3id.org/oseg/ont/okhmeta#DataGatheringTag</title>
<ellipse fill="none" stroke="#e377c2" cx="362.65" cy="-1184.97" rx="122.16" ry="16.03"/>
<text text-anchor="middle" x="362.65" y="-1181.27" font-family="Times,serif" font-size="14.00">okhmeta:DataGathe...</text>
</g>
<!-- http://w3id.org/oseg/ont/okhmeta#DataGatheringTag&#45;&gt;http://w3id.org/oseg/ont/okhmeta#Tag -->
<g id="edge2" class="edge">
<title>http://w3id.org/oseg/ont/okhmeta#DataGatheringTag&#45;&gt;http://w3id.org/oseg/ont/okhmeta#Tag</title>
<path fill="none" stroke="black" d="M370.82,-1168.61C394.31,-1121.54 462.19,-985.53 490.57,-928.68"/>
<polygon fill="black" stroke="black" points="493.75,-930.15 495.08,-919.64 487.48,-927.02 493.75,-930.15"/>
<text text-anchor="middle" x="426.19" y="-1052.44" font-family="Times,serif" font-size="14.00">a</text>
</g>
<!-- http://w3id.org/oseg/ont/okhmeta#DataGatheringTag&#45;&gt;http://w3id.org/oseg/ont/okhmeta#MetaTag -->
<g id="edge36" class="edge">
<title>http://w3id.org/oseg/ont/okhmeta#DataGatheringTag&#45;&gt;http://w3id.org/oseg/ont/okhmeta#MetaTag</title>
<path fill="none" stroke="black" d="M366,-1168.34C376.66,-1115.32 409.94,-949.95 422.98,-885.12"/>
<polygon fill="black" stroke="black" points="426.42,-885.75 424.96,-875.26 419.56,-884.37 426.42,-885.75"/>
<text text-anchor="middle" x="471.49" y="-1030.53" font-family="Times,serif" font-size="14.00">okhmeta:hasMetaTag</text>
</g>
<!-- http://w3id.org/oseg/ont/okhmeta#IdentificationTag -->
<g id="node8" class="node">
<title>http://w3id.org/oseg/ont/okhmeta#IdentificationTag</title>
<ellipse fill="none" stroke="#e377c2" cx="651.71" cy="-578.45" rx="109.7" ry="16.03"/>
<text text-anchor="middle" x="651.71" y="-574.75" font-family="Times,serif" font-size="14.00">okhmeta:Identific...</text>
</g>
<!-- http://w3id.org/oseg/ont/okhmeta#IdentificationTag&#45;&gt;http://w3id.org/oseg/ont/okhmeta#Tag -->
<g id="edge27" class="edge">
<title>http://w3id.org/oseg/ont/okhmeta#IdentificationTag&#45;&gt;http://w3id.org/oseg/ont/okhmeta#Tag</title>
<path fill="none" stroke="black" d="M644.14,-595C619.97,-647.89 544.48,-813.05 515.12,-877.3"/>
<polygon fill="black" stroke="black" points="511.79,-876.16 510.82,-886.71 518.16,-879.07 511.79,-876.16"/>
<text text-anchor="middle" x="575.13" y="-739.95" font-family="Times,serif" font-size="14.00">a</text>
</g>
<!-- http://w3id.org/oseg/ont/okhmeta#IdentificationTag&#45;&gt;http://w3id.org/oseg/ont/okhmeta#MetaTag -->
<g id="edge12" class="edge">
<title>http://w3id.org/oseg/ont/okhmeta#IdentificationTag&#45;&gt;http://w3id.org/oseg/ont/okhmeta#MetaTag</title>
<path fill="none" stroke="black" d="M638.73,-594.73C601.17,-641.84 492.22,-778.49 447.65,-834.39"/>
<polygon fill="black" stroke="black" points="444.81,-832.34 441.32,-842.34 450.29,-836.7 444.81,-832.34"/>
<text text-anchor="middle" x="466.19" y="-703.36" font-family="Times,serif" font-size="14.00">okhmeta:hasMetaTag</text>
</g>
<!-- http://w3id.org/oseg/ont/okhmeta#ExtendedInfoTag -->
<g id="node9" class="node">
<title>http://w3id.org/oseg/ont/okhmeta#ExtendedInfoTag</title>
<ellipse fill="none" stroke="#e377c2" cx="820.62" cy="-865.3" rx="120.42" ry="16.03"/>
<text text-anchor="middle" x="820.62" y="-861.6" font-family="Times,serif" font-size="14.00">okhmeta:ExtendedI...</text>
</g>
<!-- http://w3id.org/oseg/ont/okhmeta#ExtendedInfoTag&#45;&gt;http://w3id.org/oseg/ont/okhmeta#Tag -->
<g id="edge4" class="edge">
<title>http://w3id.org/oseg/ont/okhmeta#ExtendedInfoTag&#45;&gt;http://w3id.org/oseg/ont/okhmeta#Tag</title>
<path fill="none" stroke="black" d="M730.53,-876.07C683.08,-881.74 625.51,-888.62 580.18,-894.03"/>
<polygon fill="black" stroke="black" points="579.63,-890.58 570.11,-895.24 580.46,-897.53 579.63,-890.58"/>
<text text-anchor="middle" x="650.85" y="-888.85" font-family="Times,serif" font-size="14.00">a</text>
</g>
<!-- http://w3id.org/oseg/ont/okhmeta#ExtendedInfoTag&#45;&gt;http://w3id.org/oseg/ont/okhmeta#MetaTag -->
<g id="edge24" class="edge">
<title>http://w3id.org/oseg/ont/okhmeta#ExtendedInfoTag&#45;&gt;http://w3id.org/oseg/ont/okhmeta#MetaTag</title>
<path fill="none" stroke="black" d="M701.31,-863.28C650.27,-862.42 590.99,-861.41 540.73,-860.56"/>
<polygon fill="black" stroke="black" points="540.54,-857.06 530.48,-860.39 540.42,-864.06 540.54,-857.06"/>
<text text-anchor="middle" x="621.02" y="-850.72" font-family="Times,serif" font-size="14.00">okhmeta:hasMetaTag</text>
</g>
<!-- http://w3id.org/oseg/ont/okhmeta#LegalTag -->
<g id="node10" class="node">
<title>http://w3id.org/oseg/ont/okhmeta#LegalTag</title>
<ellipse fill="none" stroke="#e377c2" cx="207.68" cy="-675.89" rx="103.89" ry="16.03"/>
<text text-anchor="middle" x="207.68" y="-672.19" font-family="Times,serif" font-size="14.00">okhmeta:LegalTag</text>
</g>
<!-- http://w3id.org/oseg/ont/okhmeta#LegalTag&#45;&gt;http://w3id.org/oseg/ont/okhmeta#Tag -->
<g id="edge5" class="edge">
<title>http://w3id.org/oseg/ont/okhmeta#LegalTag&#45;&gt;http://w3id.org/oseg/ont/okhmeta#Tag</title>
<path fill="none" stroke="black" d="M228.47,-691.88C280.2,-731.66 414.82,-835.2 474.3,-880.94"/>
<polygon fill="black" stroke="black" points="472.45,-883.94 482.51,-887.26 476.71,-878.39 472.45,-883.94"/>
<text text-anchor="middle" x="346.88" y="-790.21" font-family="Times,serif" font-size="14.00">a</text>
</g>
<!-- http://w3id.org/oseg/ont/okhmeta#LegalTag&#45;&gt;http://w3id.org/oseg/ont/okhmeta#MetaTag -->
<g id="edge39" class="edge">
<title>http://w3id.org/oseg/ont/okhmeta#LegalTag&#45;&gt;http://w3id.org/oseg/ont/okhmeta#MetaTag</title>
<path fill="none" stroke="black" d="M227.26,-692.11C266.67,-724.76 355.67,-798.49 400.86,-835.93"/>
<polygon fill="black" stroke="black" points="398.84,-838.8 408.77,-842.48 403.3,-833.41 398.84,-838.8"/>
<text text-anchor="middle" x="237.06" y="-767.82" font-family="Times,serif" font-size="14.00">okhmeta:hasMetaTag</text>
</g>
<!-- http://w3id.org/oseg/ont/okhmeta#hasMetaTag -->
<g id="node11" class="node">
<title>http://w3id.org/oseg/ont/okhmeta#hasMetaTag</title>
<ellipse fill="none" stroke="#e377c2" cx="258.08" cy="-374.94" rx="120.42" ry="16.03"/>
<text text-anchor="middle" x="258.08" y="-371.24" font-family="Times,serif" font-size="14.00">okhmeta:hasMetaTag</text>
</g>
<!-- http://w3id.org/oseg/ont/okhmeta#hasMetaTag&#45;&gt;http://www.w3.org/2004/02/skos/core#Concept -->
<g id="edge31" class="edge">
<title>http://w3id.org/oseg/ont/okhmeta#hasMetaTag&#45;&gt;http://www.w3.org/2004/02/skos/core#Concept</title>
<path fill="none" stroke="black" d="M281.63,-391.01C323.77,-419.76 412.03,-479.97 459.15,-512.13"/>
<polygon fill="black" stroke="black" points="457.22,-515.05 467.45,-517.79 461.17,-509.26 457.22,-515.05"/>
<text text-anchor="middle" x="365.89" y="-455.37" font-family="Times,serif" font-size="14.00">a</text>
</g>
<!-- http://w3id.org/oseg/ont/okhmeta#hasMetaTag&#45;&gt;http://w3id.org/oseg/ont/okhmeta#MetaTag -->
<g id="edge29" class="edge">
<title>http://w3id.org/oseg/ont/okhmeta#hasMetaTag&#45;&gt;http://w3id.org/oseg/ont/okhmeta#MetaTag</title>
<path fill="none" stroke="black" d="M261.11,-391.35C280.58,-462.64 379.92,-745.65 415.74,-832.92"/>
<polygon fill="black" stroke="black" points="412.59,-834.47 419.68,-842.34 419.05,-831.76 412.59,-834.47"/>
<text text-anchor="middle" x="265.92" y="-615.93" font-family="Times,serif" font-size="14.00">dcam:rangeIncludes</text>
</g>
<!-- http://w3id.org/oseg/ont/okhmeta#hasMetaTag&#45;&gt;http://w3id.org/oseg/ont/okhmeta#MetaTag -->
<g id="edge38" class="edge">
<title>http://w3id.org/oseg/ont/okhmeta#hasMetaTag&#45;&gt;http://w3id.org/oseg/ont/okhmeta#MetaTag</title>
<path fill="none" stroke="black" d="M266.7,-391.26C297.23,-462.31 396.83,-744.86 422.52,-832.57"/>
<polygon fill="black" stroke="black" points="419.18,-833.61 425.28,-842.27 425.91,-831.7 419.18,-833.61"/>
<text text-anchor="middle" x="267.61" y="-600.71" font-family="Times,serif" font-size="14.00">okhmeta:hasMetaTag</text>
</g>
<!-- http://www.w3.org/2004/02/skos/core#member -->
<g id="node12" class="node">
<title>http://www.w3.org/2004/02/skos/core#member</title>
<ellipse fill="none" stroke="#e377c2" cx="113.92" cy="-16.25" rx="79.39" ry="16.03"/>
<text text-anchor="middle" x="113.92" y="-12.55" font-family="Times,serif" font-size="14.00">skos:member</text>
</g>
<!-- http://w3id.org/oseg/ont/okhmeta#hasMetaTag&#45;&gt;http://www.w3.org/2004/02/skos/core#member -->
<g id="edge28" class="edge">
<title>http://w3id.org/oseg/ont/okhmeta#hasMetaTag&#45;&gt;http://www.w3.org/2004/02/skos/core#member</title>
<path fill="none" stroke="black" d="M251.51,-358.6C228.62,-301.64 152.25,-111.61 124.29,-42.05"/>
<polygon fill="black" stroke="black" points="127.5,-40.66 120.52,-32.69 121.01,-43.27 127.5,-40.66"/>
<text text-anchor="middle" x="134.9" y="-204.12" font-family="Times,serif" font-size="14.00">subPropertyOf</text>
</g>
<!-- http://w3id.org/oseg/ont/oseg&#45;profiles#robinVobruba -->
<g id="node13" class="node">
<title>http://w3id.org/oseg/ont/oseg&#45;profiles#robinVobruba</title>
<ellipse fill="none" stroke="#e377c2" cx="1356.83" cy="-295.62" rx="113.69" ry="16.03"/>
<text text-anchor="middle" x="1356.83" y="-291.92" font-family="Times,serif" font-size="14.00">osegprof:robinVob...</text>
</g>
<!-- http://w3id.org/oseg/ont/okhmeta#DevelopmentTag -->
<g id="node14" class="node">
<title>http://w3id.org/oseg/ont/okhmeta#DevelopmentTag</title>
<ellipse fill="none" stroke="#e377c2" cx="126.75" cy="-1049.96" rx="124.4" ry="16.03"/>
<text text-anchor="middle" x="126.75" y="-1046.26" font-family="Times,serif" font-size="14.00">okhmeta:Developme...</text>
</g>
<!-- http://w3id.org/oseg/ont/okhmeta#DevelopmentTag&#45;&gt;http://w3id.org/oseg/ont/okhmeta#Tag -->
<g id="edge32" class="edge">
<title>http://w3id.org/oseg/ont/okhmeta#DevelopmentTag&#45;&gt;http://w3id.org/oseg/ont/okhmeta#Tag</title>
<path fill="none" stroke="black" d="M166.34,-1034.53C236.45,-1007.21 382.08,-950.45 456.82,-921.33"/>
<polygon fill="black" stroke="black" points="458.4,-924.47 466.45,-917.58 455.86,-917.95 458.4,-924.47"/>
<text text-anchor="middle" x="307.08" y="-981.73" font-family="Times,serif" font-size="14.00">a</text>
</g>
<!-- http://w3id.org/oseg/ont/okhmeta#DevelopmentTag&#45;&gt;http://w3id.org/oseg/ont/okhmeta#MetaTag -->
<g id="edge40" class="edge">
<title>http://w3id.org/oseg/ont/okhmeta#DevelopmentTag&#45;&gt;http://w3id.org/oseg/ont/okhmeta#MetaTag</title>
<path fill="none" stroke="black" d="M151.95,-1033.98C206.18,-999.57 334.01,-918.48 394.91,-879.85"/>
<polygon fill="black" stroke="black" points="396.83,-882.78 403.4,-874.46 393.08,-876.87 396.83,-882.78"/>
<text text-anchor="middle" x="196.43" y="-960.71" font-family="Times,serif" font-size="14.00">okhmeta:hasMetaTag</text>
</g>
<!-- http://w3id.org/oseg/ont/okhmeta#AcademicTag -->
<g id="node15" class="node">
<title>http://w3id.org/oseg/ont/okhmeta#AcademicTag</title>
<ellipse fill="none" stroke="#e377c2" cx="767" cy="-1106.81" rx="124.4" ry="16.03"/>
<text text-anchor="middle" x="767" y="-1103.11" font-family="Times,serif" font-size="14.00">okhmeta:AcademicTag</text>
</g>
<!-- http://w3id.org/oseg/ont/okhmeta#AcademicTag&#45;&gt;http://w3id.org/oseg/ont/okhmeta#Tag -->
<g id="edge7" class="edge">
<title>http://w3id.org/oseg/ont/okhmeta#AcademicTag&#45;&gt;http://w3id.org/oseg/ont/okhmeta#Tag</title>
<path fill="none" stroke="black" d="M745.87,-1090.5C698.76,-1054.13 585.12,-966.41 531.8,-925.25"/>
<polygon fill="black" stroke="black" points="533.83,-922.4 523.78,-919.06 529.56,-927.94 533.83,-922.4"/>
<text text-anchor="middle" x="634.33" y="-1011.67" font-family="Times,serif" font-size="14.00">a</text>
</g>
<!-- http://w3id.org/oseg/ont/okhmeta#AcademicTag&#45;&gt;http://w3id.org/oseg/ont/okhmeta#MetaTag -->
<g id="edge16" class="edge">
<title>http://w3id.org/oseg/ont/okhmeta#AcademicTag&#45;&gt;http://w3id.org/oseg/ont/okhmeta#MetaTag</title>
<path fill="none" stroke="black" d="M745.04,-1090.72C686.28,-1047.67 525.38,-929.79 458.29,-880.64"/>
<polygon fill="black" stroke="black" points="460.35,-877.8 450.22,-874.72 456.21,-883.45 460.35,-877.8"/>
<text text-anchor="middle" x="524.67" y="-989.48" font-family="Times,serif" font-size="14.00">okhmeta:hasMetaTag</text>
</g>
<!-- http://w3id.org/oseg/ont/1.1.0/okh&#45;meta -->
<g id="node16" class="node">
<title>http://w3id.org/oseg/ont/1.1.0/okh&#45;meta</title>
<ellipse fill="none" stroke="#e377c2" cx="1163.73" cy="-392.53" rx="79.81" ry="16.03"/>
<text text-anchor="middle" x="1163.73" y="-388.83" font-family="Times,serif" font-size="14.00">ns1:okh&#45;meta</text>
</g>
<!-- http://w3id.org/oseg/ont/oseg&#45;profiles#Iopa -->
<g id="node17" class="node">
<title>http://w3id.org/oseg/ont/oseg&#45;profiles#Iopa</title>
<ellipse fill="none" stroke="#e377c2" cx="1128.53" cy="-480.34" rx="80.72" ry="16.03"/>
<text text-anchor="middle" x="1128.53" y="-476.64" font-family="Times,serif" font-size="14.00">osegprof:Iopa</text>
</g>
<!-- http://w3id.org/oseg/ont/okhmeta#PhysicalTag -->
<g id="node18" class="node">
<title>http://w3id.org/oseg/ont/okhmeta#PhysicalTag</title>
<ellipse fill="none" stroke="#e377c2" cx="677.94" cy="-1184.47" rx="118.17" ry="16.03"/>
<text text-anchor="middle" x="677.94" y="-1180.77" font-family="Times,serif" font-size="14.00">okhmeta:PhysicalTag</text>
</g>
<!-- http://w3id.org/oseg/ont/okhmeta#PhysicalTag&#45;&gt;http://w3id.org/oseg/ont/okhmeta#Tag -->
<g id="edge37" class="edge">
<title>http://w3id.org/oseg/ont/okhmeta#PhysicalTag&#45;&gt;http://w3id.org/oseg/ont/okhmeta#Tag</title>
<path fill="none" stroke="black" d="M667.79,-1168.13C638.55,-1121.04 553.94,-984.82 518.83,-928.28"/>
<polygon fill="black" stroke="black" points="521.69,-926.26 513.44,-919.61 515.75,-929.95 521.69,-926.26"/>
<text text-anchor="middle" x="588.81" y="-1052.01" font-family="Times,serif" font-size="14.00">a</text>
</g>
<!-- http://w3id.org/oseg/ont/okhmeta#PhysicalTag&#45;&gt;http://w3id.org/oseg/ont/okhmeta#MetaTag -->
<g id="edge9" class="edge">
<title>http://w3id.org/oseg/ont/okhmeta#PhysicalTag&#45;&gt;http://w3id.org/oseg/ont/okhmeta#MetaTag</title>
<path fill="none" stroke="black" d="M665.22,-1167.86C624.22,-1114.36 495.45,-946.3 446.99,-883.05"/>
<polygon fill="black" stroke="black" points="449.57,-880.66 440.7,-874.85 444.01,-884.91 449.57,-880.66"/>
<text text-anchor="middle" x="479.1" y="-1014.26" font-family="Times,serif" font-size="14.00">okhmeta:hasMetaTag</text>
</g>
<!-- http://w3id.org/oseg/ont/okhmeta -->
<g id="node19" class="node">
<title>http://w3id.org/oseg/ont/okhmeta</title>
<ellipse fill="none" stroke="#e377c2" cx="1129.83" cy="-434.18" rx="76.24" ry="16.03"/>
<text text-anchor="middle" x="1129.83" y="-430.48" font-family="Times,serif" font-size="14.00">ns2:okhmeta</text>
</g>
<!-- http://w3id.org/oseg/ont/okhmeta&#45;&gt;http://spdx.org/rdf/terms#SpdxItem -->
<g id="edge13" class="edge">
<title>http://w3id.org/oseg/ont/okhmeta&#45;&gt;http://spdx.org/rdf/terms#SpdxItem</title>
<path fill="none" stroke="black" d="M1111.61,-449.97C1080.18,-477.22 1015.65,-533.16 979.46,-564.54"/>
<polygon fill="black" stroke="black" points="977.02,-562.02 971.76,-571.21 981.61,-567.31 977.02,-562.02"/>
<text text-anchor="middle" x="1041.03" y="-511.05" font-family="Times,serif" font-size="14.00">a</text>
</g>
<!-- http://w3id.org/oseg/ont/okhmeta&#45;&gt;http://w3id.org/oseg/ont/oseg&#45;profiles#robinVobruba -->
<g id="edge6" class="edge">
<title>http://w3id.org/oseg/ont/okhmeta&#45;&gt;http://w3id.org/oseg/ont/oseg&#45;profiles#robinVobruba</title>
<path fill="none" stroke="black" d="M1163.43,-419.31C1208.77,-394.7 1288.57,-345.95 1330.09,-317.45"/>
<polygon fill="black" stroke="black" points="1332.15,-320.29 1338.34,-311.69 1328.14,-314.54 1332.15,-320.29"/>
<text text-anchor="middle" x="1304.26" y="-372.18" font-family="Times,serif" font-size="14.00">dcterms:creator</text>
</g>
<!-- http://w3id.org/oseg/ont/okhmeta&#45;&gt;http://w3id.org/oseg/ont/oseg&#45;profiles#robinVobruba -->
<g id="edge44" class="edge">
<title>http://w3id.org/oseg/ont/okhmeta&#45;&gt;http://w3id.org/oseg/ont/oseg&#45;profiles#robinVobruba</title>
<path fill="none" stroke="black" d="M1148.25,-418.15C1183.94,-392.76 1263.21,-343.89 1313.12,-316.06"/>
<polygon fill="black" stroke="black" points="1315.01,-319.01 1322.08,-311.11 1311.63,-312.88 1315.01,-319.01"/>
<text text-anchor="middle" x="1175.18" y="-355.9" font-family="Times,serif" font-size="14.00">schema:creator</text>
</g>
<!-- http://w3id.org/oseg/ont/okhmeta&#45;&gt;http://w3id.org/oseg/ont/1.1.0/okh&#45;meta -->
<g id="edge10" class="edge">
<title>http://w3id.org/oseg/ont/okhmeta&#45;&gt;http://w3id.org/oseg/ont/1.1.0/okh&#45;meta</title>
<path fill="none" stroke="black" d="M1143.23,-417.72C1143.53,-417.34 1143.84,-416.96 1144.15,-416.59"/>
<polygon fill="black" stroke="black" points="1147.05,-418.56 1150.65,-408.6 1141.62,-414.14 1147.05,-418.56"/>
<text text-anchor="middle" x="1092.19" y="-405.95" font-family="Times,serif" font-size="14.00">owl:versionIRI</text>
</g>
<!-- http://w3id.org/oseg/ont/okhmeta&#45;&gt;http://w3id.org/oseg/ont/oseg&#45;profiles#Iopa -->
<g id="edge11" class="edge">
<title>http://w3id.org/oseg/ont/okhmeta&#45;&gt;http://w3id.org/oseg/ont/oseg&#45;profiles#Iopa</title>
<path fill="none" stroke="black" d="M1129.37,-450.58C1129.34,-451.67 1129.3,-452.78 1129.27,-453.9"/>
<polygon fill="black" stroke="black" points="1125.77,-453.89 1128.99,-463.99 1132.77,-454.09 1125.77,-453.89"/>
<text text-anchor="middle" x="1194.82" y="-456.04" font-family="Times,serif" font-size="14.00">dcterms:publisher</text>
</g>
<!-- http://id.loc.gov/vocabulary/iso639&#45;1/en -->
<g id="node23" class="node">
<title>http://id.loc.gov/vocabulary/iso639&#45;1/en</title>
<ellipse fill="none" stroke="#e377c2" cx="1264.87" cy="-577.17" rx="45.01" ry="16.03"/>
<text text-anchor="middle" x="1264.87" y="-573.47" font-family="Times,serif" font-size="14.00">ns3:en</text>
</g>
<!-- http://w3id.org/oseg/ont/okhmeta&#45;&gt;http://id.loc.gov/vocabulary/iso639&#45;1/en -->
<g id="edge41" class="edge">
<title>http://w3id.org/oseg/ont/okhmeta&#45;&gt;http://id.loc.gov/vocabulary/iso639&#45;1/en</title>
<path fill="none" stroke="black" d="M1145.06,-450.3C1169.02,-475.67 1215.61,-525.01 1243.1,-554.12"/>
<polygon fill="black" stroke="black" points="1240.9,-556.89 1250.31,-561.75 1245.99,-552.08 1240.9,-556.89"/>
<text text-anchor="middle" x="1129.58" y="-506.01" font-family="Times,serif" font-size="14.00">dcterms:language</text>
</g>
<!-- http://spdx.org/licenses/GPL&#45;3.0&#45;or&#45;later -->
<g id="node26" class="node">
<title>http://spdx.org/licenses/GPL&#45;3.0&#45;or&#45;later</title>
<ellipse fill="none" stroke="#e377c2" cx="945.84" cy="-367.09" rx="108.79" ry="16.03"/>
<text text-anchor="middle" x="945.84" y="-363.39" font-family="Times,serif" font-size="14.00">spdxl:GPL&#45;3.0&#45;or&#45;...</text>
</g>
<!-- http://w3id.org/oseg/ont/okhmeta&#45;&gt;http://spdx.org/licenses/GPL&#45;3.0&#45;or&#45;later -->
<g id="edge21" class="edge">
<title>http://w3id.org/oseg/ont/okhmeta&#45;&gt;http://spdx.org/licenses/GPL&#45;3.0&#45;or&#45;later</title>
<path fill="none" stroke="black" d="M1091.26,-420.11C1063.78,-410.09 1026.57,-396.52 996.67,-385.62"/>
<polygon fill="black" stroke="black" points="997.83,-382.32 987.24,-382.18 995.43,-388.9 997.83,-382.32"/>
<text text-anchor="middle" x="967.96" y="-391.67" font-family="Times,serif" font-size="14.00">spdx:licenseDeclared</text>
</g>
<!-- http://w3id.org/oseg/ont/okhmeta#HistoryTag -->
<g id="node20" class="node">
<title>http://w3id.org/oseg/ont/okhmeta#HistoryTag</title>
<ellipse fill="none" stroke="#e377c2" cx="325.52" cy="-1252.08" rx="113.69" ry="16.03"/>
<text text-anchor="middle" x="325.52" y="-1248.38" font-family="Times,serif" font-size="14.00">okhmeta:HistoryTag</text>
</g>
<!-- http://w3id.org/oseg/ont/okhmeta#HistoryTag&#45;&gt;http://w3id.org/oseg/ont/okhmeta#Tag -->
<g id="edge14" class="edge">
<title>http://w3id.org/oseg/ont/okhmeta#HistoryTag&#45;&gt;http://w3id.org/oseg/ont/okhmeta#Tag</title>
<path fill="none" stroke="black" d="M333.85,-1235.72C362.31,-1179.87 455.77,-996.44 490.3,-928.68"/>
<polygon fill="black" stroke="black" points="493.53,-930.05 494.95,-919.55 487.29,-926.87 493.53,-930.05"/>
<text text-anchor="middle" x="407.58" y="-1086" font-family="Times,serif" font-size="14.00">a</text>
</g>
<!-- http://w3id.org/oseg/ont/okhmeta#HistoryTag&#45;&gt;http://w3id.org/oseg/ont/okhmeta#MetaTag -->
<g id="edge25" class="edge">
<title>http://w3id.org/oseg/ont/okhmeta#HistoryTag&#45;&gt;http://w3id.org/oseg/ont/okhmeta#MetaTag</title>
<path fill="none" stroke="black" d="M329.81,-1235.68C345.74,-1174.69 401.65,-960.67 421.36,-885.23"/>
<polygon fill="black" stroke="black" points="424.86,-885.7 424,-875.14 418.09,-883.93 424.86,-885.7"/>
<text text-anchor="middle" x="337.08" y="-1049.25" font-family="Times,serif" font-size="14.00">okhmeta:hasMetaTag</text>
</g>
<!-- http://w3id.org/oseg/ont/okhmeta#BasicTag -->
<g id="node21" class="node">
<title>http://w3id.org/oseg/ont/okhmeta#BasicTag</title>
<ellipse fill="none" stroke="#e377c2" cx="728.28" cy="-675.43" rx="103.48" ry="16.03"/>
<text text-anchor="middle" x="728.28" y="-671.73" font-family="Times,serif" font-size="14.00">okhmeta:BasicTag</text>
</g>
<!-- http://w3id.org/oseg/ont/okhmeta#BasicTag&#45;&gt;http://w3id.org/oseg/ont/okhmeta#Tag -->
<g id="edge15" class="edge">
<title>http://w3id.org/oseg/ont/okhmeta#BasicTag&#45;&gt;http://w3id.org/oseg/ont/okhmeta#Tag</title>
<path fill="none" stroke="black" d="M712.1,-691.82C672.68,-731.73 571.57,-834.08 526.07,-880.15"/>
<polygon fill="black" stroke="black" points="523.54,-877.72 519.01,-887.3 528.52,-882.64 523.54,-877.72"/>
<text text-anchor="middle" x="614.58" y="-789.78" font-family="Times,serif" font-size="14.00">a</text>
</g>
<!-- http://w3id.org/oseg/ont/okhmeta#BasicTag&#45;&gt;http://w3id.org/oseg/ont/okhmeta#MetaTag -->
<g id="edge26" class="edge">
<title>http://w3id.org/oseg/ont/okhmeta#BasicTag&#45;&gt;http://w3id.org/oseg/ont/okhmeta#MetaTag</title>
<path fill="none" stroke="black" d="M702.44,-691.21C648.51,-724.16 523.91,-800.27 463.04,-837.45"/>
<polygon fill="black" stroke="black" points="460.89,-834.66 454.18,-842.86 464.54,-840.63 460.89,-834.66"/>
<text text-anchor="middle" x="505.74" y="-768.13" font-family="Times,serif" font-size="14.00">okhmeta:hasMetaTag</text>
</g>
<!-- http://w3id.org/oseg/ont/okhmeta#DocumentationTag -->
<g id="node22" class="node">
<title>http://w3id.org/oseg/ont/okhmeta#DocumentationTag</title>
<ellipse fill="none" stroke="#e377c2" cx="826.96" cy="-994.81" rx="125.32" ry="16.03"/>
<text text-anchor="middle" x="826.96" y="-991.11" font-family="Times,serif" font-size="14.00">okhmeta:Documenta...</text>
</g>
<!-- http://w3id.org/oseg/ont/okhmeta#DocumentationTag&#45;&gt;http://w3id.org/oseg/ont/okhmeta#Tag -->
<g id="edge46" class="edge">
<title>http://w3id.org/oseg/ont/okhmeta#DocumentationTag&#45;&gt;http://w3id.org/oseg/ont/okhmeta#Tag</title>
<path fill="none" stroke="black" d="M774.6,-979.99C715.44,-963.26 619.56,-936.13 559.04,-919.01"/>
<polygon fill="black" stroke="black" points="559.85,-915.6 549.27,-916.24 557.94,-922.33 559.85,-915.6"/>
<text text-anchor="middle" x="662.32" y="-953.3" font-family="Times,serif" font-size="14.00">a</text>
</g>
<!-- http://w3id.org/oseg/ont/okhmeta#DocumentationTag&#45;&gt;http://w3id.org/oseg/ont/okhmeta#MetaTag -->
<g id="edge23" class="edge">
<title>http://w3id.org/oseg/ont/okhmeta#DocumentationTag&#45;&gt;http://w3id.org/oseg/ont/okhmeta#MetaTag</title>
<path fill="none" stroke="black" d="M782.39,-979.59C708.45,-954.33 560.72,-903.89 481.46,-876.82"/>
<polygon fill="black" stroke="black" points="482.27,-873.4 471.68,-873.48 480.01,-880.02 482.27,-873.4"/>
<text text-anchor="middle" x="554.93" y="-932" font-family="Times,serif" font-size="14.00">okhmeta:hasMetaTag</text>
</g>
<!-- http://w3id.org/oseg/ont/okhmeta#QualityTag -->
<g id="node24" class="node">
<title>http://w3id.org/oseg/ont/okhmeta#QualityTag</title>
<ellipse fill="none" stroke="#e377c2" cx="113.09" cy="-919.25" rx="113.27" ry="16.03"/>
<text text-anchor="middle" x="113.09" y="-915.55" font-family="Times,serif" font-size="14.00">okhmeta:QualityTag</text>
</g>
<!-- http://w3id.org/oseg/ont/okhmeta#QualityTag&#45;&gt;http://w3id.org/oseg/ont/okhmeta#Tag -->
<g id="edge19" class="edge">
<title>http://w3id.org/oseg/ont/okhmeta#QualityTag&#45;&gt;http://w3id.org/oseg/ont/okhmeta#Tag</title>
<path fill="none" stroke="black" d="M222.03,-914.78C283.93,-912.23 360.3,-909.1 417.83,-906.74"/>
<polygon fill="black" stroke="black" points="418.14,-910.23 427.98,-906.32 417.85,-903.23 418.14,-910.23"/>
<text text-anchor="middle" x="315.43" y="-914.56" font-family="Times,serif" font-size="14.00">a</text>
</g>
<!-- http://w3id.org/oseg/ont/okhmeta#QualityTag&#45;&gt;http://w3id.org/oseg/ont/okhmeta#MetaTag -->
<g id="edge42" class="edge">
<title>http://w3id.org/oseg/ont/okhmeta#QualityTag&#45;&gt;http://w3id.org/oseg/ont/okhmeta#MetaTag</title>
<path fill="none" stroke="black" d="M181.1,-906.18C231.68,-896.46 300.7,-883.19 352.96,-873.15"/>
<polygon fill="black" stroke="black" points="353.68,-876.57 362.84,-871.25 352.36,-869.7 353.68,-876.57"/>
<text text-anchor="middle" x="190.03" y="-878.46" font-family="Times,serif" font-size="14.00">okhmeta:hasMetaTag</text>
</g>
<!-- http://w3id.org/oseg/ont/okhmeta#DataTag -->
<g id="node25" class="node">
<title>http://w3id.org/oseg/ont/okhmeta#DataTag</title>
<ellipse fill="none" stroke="#e377c2" cx="148.84" cy="-795.9" rx="100.32" ry="16.03"/>
<text text-anchor="middle" x="148.84" y="-792.2" font-family="Times,serif" font-size="14.00">okhmeta:DataTag</text>
</g>
<!-- http://w3id.org/oseg/ont/okhmeta#DataTag&#45;&gt;http://w3id.org/oseg/ont/okhmeta#Tag -->
<g id="edge45" class="edge">
<title>http://w3id.org/oseg/ont/okhmeta#DataTag&#45;&gt;http://w3id.org/oseg/ont/okhmeta#Tag</title>
<path fill="none" stroke="black" d="M196.27,-810.27C261.98,-830.16 380.4,-866.02 449.38,-886.91"/>
<polygon fill="black" stroke="black" points="448.6,-890.33 459.18,-889.88 450.63,-883.63 448.6,-890.33"/>
<text text-anchor="middle" x="318.32" y="-852.39" font-family="Times,serif" font-size="14.00">a</text>
</g>
<!-- http://w3id.org/oseg/ont/okhmeta#DataTag&#45;&gt;http://w3id.org/oseg/ont/okhmeta#MetaTag -->
<g id="edge20" class="edge">
<title>http://w3id.org/oseg/ont/okhmeta#DataTag&#45;&gt;http://w3id.org/oseg/ont/okhmeta#MetaTag</title>
<path fill="none" stroke="black" d="M207.76,-809.14C251.92,-819.05 312.49,-832.66 358.98,-843.1"/>
<polygon fill="black" stroke="black" points="358.45,-846.56 368.98,-845.34 359.99,-839.73 358.45,-846.56"/>
<text text-anchor="middle" x="206.37" y="-829.92" font-family="Times,serif" font-size="14.00">okhmeta:hasMetaTag</text>
</g>
<!-- http://w3id.org/oseg/ont/okhmeta#TransportationTag -->
<g id="node27" class="node">
<title>http://w3id.org/oseg/ont/okhmeta#TransportationTag</title>
<ellipse fill="none" stroke="#e377c2" cx="308.81" cy="-577.78" rx="118.17" ry="16.03"/>
<text text-anchor="middle" x="308.81" y="-574.08" font-family="Times,serif" font-size="14.00">okhmeta:Transport...</text>
</g>
<!-- http://w3id.org/oseg/ont/okhmeta#TransportationTag&#45;&gt;http://w3id.org/oseg/ont/okhmeta#Tag -->
<g id="edge22" class="edge">
<title>http://w3id.org/oseg/ont/okhmeta#TransportationTag&#45;&gt;http://w3id.org/oseg/ont/okhmeta#Tag</title>
<path fill="none" stroke="black" d="M318.72,-594.36C350.59,-647.7 450.56,-815 488.48,-878.47"/>
<polygon fill="black" stroke="black" points="485.48,-880.27 493.61,-887.06 491.49,-876.68 485.48,-880.27"/>
<text text-anchor="middle" x="399.1" y="-740.22" font-family="Times,serif" font-size="14.00">a</text>
</g>
<!-- http://w3id.org/oseg/ont/okhmeta#TransportationTag&#45;&gt;http://w3id.org/oseg/ont/okhmeta#MetaTag -->
<g id="edge8" class="edge">
<title>http://w3id.org/oseg/ont/okhmeta#TransportationTag&#45;&gt;http://w3id.org/oseg/ont/okhmeta#MetaTag</title>
<path fill="none" stroke="black" d="M315.75,-594.09C335.67,-640.92 393.16,-776.05 417.36,-832.94"/>
<polygon fill="black" stroke="black" points="414.21,-834.47 421.34,-842.3 420.65,-831.73 414.21,-834.47"/>
<text text-anchor="middle" x="289.56" y="-717.32" font-family="Times,serif" font-size="14.00">okhmeta:hasMetaTag</text>
</g>
<!-- http://w3id.org/oseg/ont/okhmeta#PartsTag -->
<g id="node28" class="node">
<title>http://w3id.org/oseg/ont/okhmeta#PartsTag</title>
<ellipse fill="none" stroke="#e377c2" cx="557.33" cy="-1225.97" rx="103.48" ry="16.03"/>
<text text-anchor="middle" x="557.33" y="-1222.27" font-family="Times,serif" font-size="14.00">okhmeta:PartsTag</text>
</g>
<!-- http://w3id.org/oseg/ont/okhmeta#PartsTag&#45;&gt;http://w3id.org/oseg/ont/okhmeta#Tag -->
<g id="edge17" class="edge">
<title>http://w3id.org/oseg/ont/okhmeta#PartsTag&#45;&gt;http://w3id.org/oseg/ont/okhmeta#Tag</title>
<path fill="none" stroke="black" d="M554.58,-1209.52C545.81,-1157.19 518.51,-994.19 507.72,-929.79"/>
<polygon fill="black" stroke="black" points="511.12,-928.93 506.02,-919.64 504.22,-930.08 511.12,-928.93"/>
<text text-anchor="middle" x="526.65" y="-1073.46" font-family="Times,serif" font-size="14.00">a</text>
</g>
<!-- http://w3id.org/oseg/ont/okhmeta#PartsTag&#45;&gt;http://w3id.org/oseg/ont/okhmeta#MetaTag -->
<g id="edge43" class="edge">
<title>http://w3id.org/oseg/ont/okhmeta#PartsTag&#45;&gt;http://w3id.org/oseg/ont/okhmeta#MetaTag</title>
<path fill="none" stroke="black" d="M551.62,-1209.72C531.31,-1151.89 462.43,-955.82 437.45,-884.7"/>
<polygon fill="black" stroke="black" points="440.71,-883.42 434.1,-875.15 434.11,-885.74 440.71,-883.42"/>
<text text-anchor="middle" x="571.54" y="-1051.01" font-family="Times,serif" font-size="14.00">okhmeta:hasMetaTag</text>
</g>
</g>
</svg>
