<?xml version="1.0" encoding="UTF-8" standalone="no"?>
<!DOCTYPE svg PUBLIC "-//W3C//DTD SVG 1.1//EN"
 "http://www.w3.org/Graphics/SVG/1.1/DTD/svg11.dtd">
<!-- Generated by graphviz version 2.43.0 (0)
 -->
<!-- Title: G Pages: 1 -->
<svg width="2103pt" height="1903pt"
 viewBox="0.00 0.00 2103.00 1903.00" xmlns="http://www.w3.org/2000/svg" xmlns:xlink="http://www.w3.org/1999/xlink">
<g id="graph0" class="graph" transform="scale(1 1) rotate(0) translate(4 1899)">
<title>G</title>
<polygon fill="white" stroke="transparent" points="-4,4 -4,-1899 2099,-1899 2099,4 -4,4"/>
<!-- http://w3id.org/oseg/ont/otrl#OTRL -->
<g id="node1" class="node">
<title>http://w3id.org/oseg/ont/otrl#OTRL</title>
<ellipse fill="none" stroke="#e377c2" cx="784.69" cy="-1288.58" rx="60.62" ry="16.03"/>
<text text-anchor="middle" x="784.69" y="-1284.88" font-family="Times,serif" font-size="14.00">otrl:OTRL</text>
</g>
<!-- http://spdx.org/rdf/terms#SpdxItem -->
<g id="node2" class="node">
<title>http://spdx.org/rdf/terms#SpdxItem</title>
<ellipse fill="none" stroke="#1f77b4" cx="1617.92" cy="-1415.22" rx="87.86" ry="16.03"/>
<text text-anchor="middle" x="1617.92" y="-1411.52" font-family="Times,serif" font-size="14.00">spdx:SpdxItem</text>
</g>
<!-- http://www.w3.org/2002/07/owl#DatatypeProperty -->
<g id="node3" class="node">
<title>http://www.w3.org/2002/07/owl#DatatypeProperty</title>
<ellipse fill="none" stroke="#1f77b4" cx="763.08" cy="-825.24" rx="123.07" ry="16.03"/>
<text text-anchor="middle" x="763.08" y="-821.54" font-family="Times,serif" font-size="14.00">owl:DatatypeProperty</text>
</g>
<!-- http://www.w3.org/2002/07/owl#Ontology -->
<g id="node4" class="node">
<title>http://www.w3.org/2002/07/owl#Ontology</title>
<ellipse fill="none" stroke="#1f77b4" cx="1826.58" cy="-1484.86" rx="77.56" ry="16.03"/>
<text text-anchor="middle" x="1826.58" y="-1481.16" font-family="Times,serif" font-size="14.00">owl:Ontology</text>
</g>
<!-- http://w3id.org/oseg/ont/otrl#ODRL -->
<g id="node5" class="node">
<title>http://w3id.org/oseg/ont/otrl#ODRL</title>
<ellipse fill="none" stroke="#e377c2" cx="1135.91" cy="-880.63" rx="62.87" ry="16.03"/>
<text text-anchor="middle" x="1135.91" y="-876.93" font-family="Times,serif" font-size="14.00">otrl:ODRL</text>
</g>
<!-- http://w3id.org/oseg/ont/otrl#OTRL6 -->
<g id="node6" class="node">
<title>http://w3id.org/oseg/ont/otrl#OTRL6</title>
<ellipse fill="none" stroke="#e377c2" cx="533" cy="-1311.01" rx="67.35" ry="16.03"/>
<text text-anchor="middle" x="533" y="-1307.31" font-family="Times,serif" font-size="14.00">otrl:OTRL6</text>
</g>
<!-- http://w3id.org/oseg/ont/otrl#OTRL6&#45;&gt;http://w3id.org/oseg/ont/otrl#OTRL -->
<g id="edge5" class="edge">
<title>http://w3id.org/oseg/ont/otrl#OTRL6&#45;&gt;http://w3id.org/oseg/ont/otrl#OTRL</title>
<path fill="none" stroke="black" d="M596.19,-1305.38C632.79,-1302.12 678.89,-1298.01 716.34,-1294.67"/>
<polygon fill="black" stroke="black" points="717,-1298.13 726.65,-1293.75 716.38,-1291.16 717,-1298.13"/>
<text text-anchor="middle" x="651.76" y="-1303.83" font-family="Times,serif" font-size="14.00">a</text>
</g>
<!-- http://w3id.org/oseg/ont/otrl#OTRL4 -->
<g id="node7" class="node">
<title>http://w3id.org/oseg/ont/otrl#OTRL4</title>
<ellipse fill="none" stroke="#e377c2" cx="535.28" cy="-1250.27" rx="67.35" ry="16.03"/>
<text text-anchor="middle" x="535.28" y="-1246.57" font-family="Times,serif" font-size="14.00">otrl:OTRL4</text>
</g>
<!-- http://w3id.org/oseg/ont/otrl#OTRL4&#45;&gt;http://w3id.org/oseg/ont/otrl#OTRL -->
<g id="edge13" class="edge">
<title>http://w3id.org/oseg/ont/otrl#OTRL4&#45;&gt;http://w3id.org/oseg/ont/otrl#OTRL</title>
<path fill="none" stroke="black" d="M592.19,-1259.01C630.81,-1264.94 681.89,-1272.79 721.73,-1278.91"/>
<polygon fill="black" stroke="black" points="721.45,-1282.41 731.86,-1280.47 722.51,-1275.49 721.45,-1282.41"/>
<text text-anchor="middle" x="652.46" y="-1272.76" font-family="Times,serif" font-size="14.00">a</text>
</g>
<!-- http://www.w3.org/1999/02/22&#45;rdf&#45;syntax&#45;ns#langString -->
<g id="node8" class="node">
<title>http://www.w3.org/1999/02/22&#45;rdf&#45;syntax&#45;ns#langString</title>
<ellipse fill="none" stroke="#e377c2" cx="714.77" cy="-952.27" rx="83.38" ry="16.03"/>
<text text-anchor="middle" x="714.77" y="-948.57" font-family="Times,serif" font-size="14.00">rdf:langString</text>
</g>
<!-- http://w3id.org/oseg/ont/otrl#ODRL3 -->
<g id="node9" class="node">
<title>http://w3id.org/oseg/ont/otrl#ODRL3</title>
<ellipse fill="none" stroke="#e377c2" cx="1125.55" cy="-812.22" rx="69.09" ry="16.03"/>
<text text-anchor="middle" x="1125.55" y="-808.52" font-family="Times,serif" font-size="14.00">otrl:ODRL3</text>
</g>
<!-- http://w3id.org/oseg/ont/otrl#ODRL3&#45;&gt;http://w3id.org/oseg/ont/otrl#ODRL -->
<g id="edge41" class="edge">
<title>http://w3id.org/oseg/ont/otrl#ODRL3&#45;&gt;http://w3id.org/oseg/ont/otrl#ODRL</title>
<path fill="none" stroke="black" d="M1128.06,-828.78C1129.22,-836.43 1130.62,-845.69 1131.92,-854.27"/>
<polygon fill="black" stroke="black" points="1128.47,-854.86 1133.43,-864.22 1135.39,-853.81 1128.47,-854.86"/>
<text text-anchor="middle" x="1125.49" y="-845.32" font-family="Times,serif" font-size="14.00">a</text>
</g>
<!-- http://spdx.org/licenses/GPL&#45;3.0&#45;or&#45;later -->
<g id="node10" class="node">
<title>http://spdx.org/licenses/GPL&#45;3.0&#45;or&#45;later</title>
<ellipse fill="none" stroke="#e377c2" cx="1986.34" cy="-1167.65" rx="108.79" ry="16.03"/>
<text text-anchor="middle" x="1986.34" y="-1163.95" font-family="Times,serif" font-size="14.00">spdxl:GPL&#45;3.0&#45;or&#45;...</text>
</g>
<!-- http://w3id.org/oseg/ont/otrl#ODRL3Star -->
<g id="node11" class="node">
<title>http://w3id.org/oseg/ont/otrl#ODRL3Star</title>
<ellipse fill="none" stroke="#e377c2" cx="1302.45" cy="-669.07" rx="90.52" ry="16.03"/>
<text text-anchor="middle" x="1302.45" y="-665.37" font-family="Times,serif" font-size="14.00">otrl:ODRL3Star</text>
</g>
<!-- http://w3id.org/oseg/ont/otrl#ODRL3Star&#45;&gt;http://w3id.org/oseg/ont/otrl#ODRL -->
<g id="edge7" class="edge">
<title>http://w3id.org/oseg/ont/otrl#ODRL3Star&#45;&gt;http://w3id.org/oseg/ont/otrl#ODRL</title>
<path fill="none" stroke="black" d="M1289.66,-685.32C1260.53,-722.33 1189.11,-813.05 1154.85,-856.57"/>
<polygon fill="black" stroke="black" points="1151.96,-854.59 1148.52,-864.61 1157.46,-858.92 1151.96,-854.59"/>
<text text-anchor="middle" x="1217.76" y="-774.74" font-family="Times,serif" font-size="14.00">a</text>
</g>
<!-- http://w3id.org/oseg/ont/otrl#ODRL4 -->
<g id="node12" class="node">
<title>http://w3id.org/oseg/ont/otrl#ODRL4</title>
<ellipse fill="none" stroke="#e377c2" cx="1119.06" cy="-618.23" rx="69.09" ry="16.03"/>
<text text-anchor="middle" x="1119.06" y="-614.53" font-family="Times,serif" font-size="14.00">otrl:ODRL4</text>
</g>
<!-- http://w3id.org/oseg/ont/otrl#ODRL4&#45;&gt;http://w3id.org/oseg/ont/otrl#ODRL -->
<g id="edge10" class="edge">
<title>http://w3id.org/oseg/ont/otrl#ODRL4&#45;&gt;http://w3id.org/oseg/ont/otrl#ODRL</title>
<path fill="none" stroke="black" d="M1120.12,-634.64C1122.95,-678.73 1130.74,-800.02 1134.21,-854.06"/>
<polygon fill="black" stroke="black" points="1130.73,-854.46 1134.86,-864.22 1137.71,-854.02 1130.73,-854.46"/>
<text text-anchor="middle" x="1122.66" y="-733.15" font-family="Times,serif" font-size="14.00">a</text>
</g>
<!-- http://w3id.org/oseg/ont/otrl#OTRL5 -->
<g id="node13" class="node">
<title>http://w3id.org/oseg/ont/otrl#OTRL5</title>
<ellipse fill="none" stroke="#e377c2" cx="693.72" cy="-1529.43" rx="67.35" ry="16.03"/>
<text text-anchor="middle" x="693.72" y="-1525.73" font-family="Times,serif" font-size="14.00">otrl:OTRL5</text>
</g>
<!-- http://w3id.org/oseg/ont/otrl#OTRL5&#45;&gt;http://w3id.org/oseg/ont/otrl#OTRL -->
<g id="edge9" class="edge">
<title>http://w3id.org/oseg/ont/otrl#OTRL5&#45;&gt;http://w3id.org/oseg/ont/otrl#OTRL</title>
<path fill="none" stroke="black" d="M699.98,-1512.88C715.56,-1471.61 756.22,-1363.96 774.97,-1314.32"/>
<polygon fill="black" stroke="black" points="778.25,-1315.53 778.51,-1304.93 771.71,-1313.05 778.25,-1315.53"/>
<text text-anchor="middle" x="732.97" y="-1417.4" font-family="Times,serif" font-size="14.00">a</text>
</g>
<!-- http://w3id.org/oseg/ont/otrl#OTRL3 -->
<g id="node14" class="node">
<title>http://w3id.org/oseg/ont/otrl#OTRL3</title>
<ellipse fill="none" stroke="#e377c2" cx="986.5" cy="-1412.31" rx="67.35" ry="16.03"/>
<text text-anchor="middle" x="986.5" y="-1408.61" font-family="Times,serif" font-size="14.00">otrl:OTRL3</text>
</g>
<!-- http://w3id.org/oseg/ont/otrl#OTRL3&#45;&gt;http://w3id.org/oseg/ont/otrl#OTRL -->
<g id="edge11" class="edge">
<title>http://w3id.org/oseg/ont/otrl#OTRL3&#45;&gt;http://w3id.org/oseg/ont/otrl#OTRL</title>
<path fill="none" stroke="black" d="M961.76,-1397.14C925.55,-1374.94 858.07,-1333.57 817.68,-1308.81"/>
<polygon fill="black" stroke="black" points="819.36,-1305.73 809.01,-1303.49 815.7,-1311.7 819.36,-1305.73"/>
<text text-anchor="middle" x="885.22" y="-1356.77" font-family="Times,serif" font-size="14.00">a</text>
</g>
<!-- http://w3id.org/oseg/ont/otrl#OTRL2 -->
<g id="node15" class="node">
<title>http://w3id.org/oseg/ont/otrl#OTRL2</title>
<ellipse fill="none" stroke="#e377c2" cx="587.83" cy="-1455.87" rx="67.35" ry="16.03"/>
<text text-anchor="middle" x="587.83" y="-1452.17" font-family="Times,serif" font-size="14.00">otrl:OTRL2</text>
</g>
<!-- http://w3id.org/oseg/ont/otrl#OTRL2&#45;&gt;http://w3id.org/oseg/ont/otrl#OTRL -->
<g id="edge14" class="edge">
<title>http://w3id.org/oseg/ont/otrl#OTRL2&#45;&gt;http://w3id.org/oseg/ont/otrl#OTRL</title>
<path fill="none" stroke="black" d="M606.35,-1440.14C641.54,-1410.23 718.15,-1345.12 758.55,-1310.79"/>
<polygon fill="black" stroke="black" points="761.01,-1313.3 766.36,-1304.16 756.47,-1307.97 761.01,-1313.3"/>
<text text-anchor="middle" x="677.95" y="-1379.26" font-family="Times,serif" font-size="14.00">a</text>
</g>
<!-- http://w3id.org/oseg/ont/otrl#ODRL2 -->
<g id="node16" class="node">
<title>http://w3id.org/oseg/ont/otrl#ODRL2</title>
<ellipse fill="none" stroke="#e377c2" cx="1386.75" cy="-812.26" rx="69.09" ry="16.03"/>
<text text-anchor="middle" x="1386.75" y="-808.56" font-family="Times,serif" font-size="14.00">otrl:ODRL2</text>
</g>
<!-- http://w3id.org/oseg/ont/otrl#ODRL2&#45;&gt;http://w3id.org/oseg/ont/otrl#ODRL -->
<g id="edge22" class="edge">
<title>http://w3id.org/oseg/ont/otrl#ODRL2&#45;&gt;http://w3id.org/oseg/ont/otrl#ODRL</title>
<path fill="none" stroke="black" d="M1341.33,-824.64C1298.54,-836.3 1234.43,-853.78 1189.23,-866.09"/>
<polygon fill="black" stroke="black" points="1188.05,-862.79 1179.32,-868.8 1189.89,-869.54 1188.05,-862.79"/>
<text text-anchor="middle" x="1260.78" y="-849.17" font-family="Times,serif" font-size="14.00">a</text>
</g>
<!-- http://w3id.org/oseg/ont/otrl#OTRL1 -->
<g id="node17" class="node">
<title>http://w3id.org/oseg/ont/otrl#OTRL1</title>
<ellipse fill="none" stroke="#e377c2" cx="925.16" cy="-1465.29" rx="67.35" ry="16.03"/>
<text text-anchor="middle" x="925.16" y="-1461.59" font-family="Times,serif" font-size="14.00">otrl:OTRL1</text>
</g>
<!-- http://w3id.org/oseg/ont/otrl#OTRL1&#45;&gt;http://w3id.org/oseg/ont/otrl#OTRL -->
<g id="edge35" class="edge">
<title>http://w3id.org/oseg/ont/otrl#OTRL1&#45;&gt;http://w3id.org/oseg/ont/otrl#OTRL</title>
<path fill="none" stroke="black" d="M912.44,-1449.29C887.75,-1418.23 833.16,-1349.56 803.98,-1312.84"/>
<polygon fill="black" stroke="black" points="806.44,-1310.32 797.47,-1304.67 800.96,-1314.67 806.44,-1310.32"/>
<text text-anchor="middle" x="853.71" y="-1384.87" font-family="Times,serif" font-size="14.00">a</text>
</g>
<!-- http://w3id.org/oseg/ont/otrl#ODRL1 -->
<g id="node18" class="node">
<title>http://w3id.org/oseg/ont/otrl#ODRL1</title>
<ellipse fill="none" stroke="#e377c2" cx="1204.42" cy="-1119.27" rx="69.09" ry="16.03"/>
<text text-anchor="middle" x="1204.42" y="-1115.57" font-family="Times,serif" font-size="14.00">otrl:ODRL1</text>
</g>
<!-- http://w3id.org/oseg/ont/otrl#ODRL1&#45;&gt;http://w3id.org/oseg/ont/otrl#ODRL -->
<g id="edge19" class="edge">
<title>http://w3id.org/oseg/ont/otrl#ODRL1&#45;&gt;http://w3id.org/oseg/ont/otrl#ODRL</title>
<path fill="none" stroke="black" d="M1199.71,-1102.87C1188.03,-1062.17 1157.63,-956.27 1143.43,-906.8"/>
<polygon fill="black" stroke="black" points="1146.78,-905.79 1140.65,-897.15 1140.05,-907.72 1146.78,-905.79"/>
<text text-anchor="middle" x="1167.07" y="-1008.63" font-family="Times,serif" font-size="14.00">a</text>
</g>
<!-- http://w3id.org/oseg/ont/oseg&#45;profiles#martinHaeuer -->
<g id="node19" class="node">
<title>http://w3id.org/oseg/ont/oseg&#45;profiles#martinHaeuer</title>
<ellipse fill="none" stroke="#e377c2" cx="1740" cy="-1331.49" rx="116.85" ry="16.03"/>
<text text-anchor="middle" x="1740" y="-1327.79" font-family="Times,serif" font-size="14.00">osegprof:martinHa...</text>
</g>
<!-- http://w3id.org/oseg/ont/otrl -->
<g id="node20" class="node">
<title>http://w3id.org/oseg/ont/otrl</title>
<ellipse fill="none" stroke="#e377c2" cx="1786.69" cy="-1290.94" rx="50.82" ry="16.03"/>
<text text-anchor="middle" x="1786.69" y="-1287.24" font-family="Times,serif" font-size="14.00">ns1:otrl</text>
</g>
<!-- http://w3id.org/oseg/ont/otrl&#45;&gt;http://spdx.org/rdf/terms#SpdxItem -->
<g id="edge24" class="edge">
<title>http://w3id.org/oseg/ont/otrl&#45;&gt;http://spdx.org/rdf/terms#SpdxItem</title>
<path fill="none" stroke="black" d="M1766.34,-1305.93C1736.76,-1327.71 1681.71,-1368.25 1647.61,-1393.36"/>
<polygon fill="black" stroke="black" points="1645.39,-1390.64 1639.42,-1399.39 1649.55,-1396.28 1645.39,-1390.64"/>
<text text-anchor="middle" x="1702.47" y="-1353.45" font-family="Times,serif" font-size="14.00">a</text>
</g>
<!-- http://w3id.org/oseg/ont/otrl&#45;&gt;http://www.w3.org/2002/07/owl#Ontology -->
<g id="edge39" class="edge">
<title>http://w3id.org/oseg/ont/otrl&#45;&gt;http://www.w3.org/2002/07/owl#Ontology</title>
<path fill="none" stroke="black" d="M1790.09,-1307.48C1797.01,-1341.11 1812.77,-1417.73 1821.13,-1458.39"/>
<polygon fill="black" stroke="black" points="1817.74,-1459.28 1823.19,-1468.37 1824.6,-1457.87 1817.74,-1459.28"/>
<text text-anchor="middle" x="1801.11" y="-1386.73" font-family="Times,serif" font-size="14.00">a</text>
</g>
<!-- http://w3id.org/oseg/ont/otrl&#45;&gt;http://spdx.org/licenses/GPL&#45;3.0&#45;or&#45;later -->
<g id="edge6" class="edge">
<title>http://w3id.org/oseg/ont/otrl&#45;&gt;http://spdx.org/licenses/GPL&#45;3.0&#45;or&#45;later</title>
<path fill="none" stroke="black" d="M1810.38,-1276.31C1845.43,-1254.67 1911.31,-1213.98 1951.76,-1189"/>
<polygon fill="black" stroke="black" points="1953.81,-1191.85 1960.48,-1183.62 1950.13,-1185.9 1953.81,-1191.85"/>
<text text-anchor="middle" x="1957.07" y="-1221.46" font-family="Times,serif" font-size="14.00">spdx:licenseDeclared</text>
</g>
<!-- http://w3id.org/oseg/ont/otrl&#45;&gt;http://w3id.org/oseg/ont/oseg&#45;profiles#martinHaeuer -->
<g id="edge20" class="edge">
<title>http://w3id.org/oseg/ont/otrl&#45;&gt;http://w3id.org/oseg/ont/oseg&#45;profiles#martinHaeuer</title>
<path fill="none" stroke="black" d="M1760.29,-1304.94C1759.1,-1305.95 1757.92,-1306.99 1756.75,-1308.03"/>
<polygon fill="black" stroke="black" points="1754.32,-1305.52 1749.55,-1314.98 1759.18,-1310.56 1754.32,-1305.52"/>
<text text-anchor="middle" x="1701.02" y="-1295.29" font-family="Times,serif" font-size="14.00">dcterms:creator</text>
</g>
<!-- http://w3id.org/oseg/ont/otrl&#45;&gt;http://w3id.org/oseg/ont/oseg&#45;profiles#martinHaeuer -->
<g id="edge26" class="edge">
<title>http://w3id.org/oseg/ont/otrl&#45;&gt;http://w3id.org/oseg/ont/oseg&#45;profiles#martinHaeuer</title>
<path fill="none" stroke="black" d="M1777.47,-1307.1C1776.97,-1307.63 1776.46,-1308.16 1775.93,-1308.69"/>
<polygon fill="black" stroke="black" points="1773.47,-1306.2 1768.59,-1315.6 1778.27,-1311.3 1773.47,-1306.2"/>
<text text-anchor="middle" x="1832.2" y="-1311.69" font-family="Times,serif" font-size="14.00">schema:creator</text>
</g>
<!-- http://id.loc.gov/vocabulary/iso639&#45;1/en -->
<g id="node21" class="node">
<title>http://id.loc.gov/vocabulary/iso639&#45;1/en</title>
<ellipse fill="none" stroke="#e377c2" cx="1938.02" cy="-1352.62" rx="45.01" ry="16.03"/>
<text text-anchor="middle" x="1938.02" y="-1348.92" font-family="Times,serif" font-size="14.00">ns2:en</text>
</g>
<!-- http://w3id.org/oseg/ont/otrl&#45;&gt;http://id.loc.gov/vocabulary/iso639&#45;1/en -->
<g id="edge25" class="edge">
<title>http://w3id.org/oseg/ont/otrl&#45;&gt;http://id.loc.gov/vocabulary/iso639&#45;1/en</title>
<path fill="none" stroke="black" d="M1818.42,-1303.87C1841.68,-1313.35 1873.41,-1326.29 1898.35,-1336.45"/>
<polygon fill="black" stroke="black" points="1897.3,-1339.8 1907.88,-1340.34 1899.94,-1333.32 1897.3,-1339.8"/>
<text text-anchor="middle" x="1922.88" y="-1323.96" font-family="Times,serif" font-size="14.00">dcterms:language</text>
</g>
<!-- http://w3id.org/oseg/ont/1.1.0/otrl -->
<g id="node22" class="node">
<title>http://w3id.org/oseg/ont/1.1.0/otrl</title>
<ellipse fill="none" stroke="#e377c2" cx="1629.49" cy="-1216.86" rx="50.82" ry="16.03"/>
<text text-anchor="middle" x="1629.49" y="-1213.16" font-family="Times,serif" font-size="14.00">ns3:otrl</text>
</g>
<!-- http://w3id.org/oseg/ont/otrl&#45;&gt;http://w3id.org/oseg/ont/1.1.0/otrl -->
<g id="edge28" class="edge">
<title>http://w3id.org/oseg/ont/otrl&#45;&gt;http://w3id.org/oseg/ont/1.1.0/otrl</title>
<path fill="none" stroke="black" d="M1757.86,-1277.35C1732.38,-1265.35 1695.03,-1247.75 1667.19,-1234.63"/>
<polygon fill="black" stroke="black" points="1668.68,-1231.46 1658.14,-1230.36 1665.69,-1237.79 1668.68,-1231.46"/>
<text text-anchor="middle" x="1661.02" y="-1259.79" font-family="Times,serif" font-size="14.00">owl:versionIRI</text>
</g>
<!-- http://w3id.org/oseg/ont/oseg&#45;profiles#Iopa -->
<g id="node23" class="node">
<title>http://w3id.org/oseg/ont/oseg&#45;profiles#Iopa</title>
<ellipse fill="none" stroke="#e377c2" cx="1771.69" cy="-1087.14" rx="80.72" ry="16.03"/>
<text text-anchor="middle" x="1771.69" y="-1083.44" font-family="Times,serif" font-size="14.00">osegprof:Iopa</text>
</g>
<!-- http://w3id.org/oseg/ont/otrl&#45;&gt;http://w3id.org/oseg/ont/oseg&#45;profiles#Iopa -->
<g id="edge30" class="edge">
<title>http://w3id.org/oseg/ont/otrl&#45;&gt;http://w3id.org/oseg/ont/oseg&#45;profiles#Iopa</title>
<path fill="none" stroke="black" d="M1785.49,-1274.61C1782.91,-1239.5 1776.8,-1156.59 1773.65,-1113.76"/>
<polygon fill="black" stroke="black" points="1777.12,-1113.27 1772.9,-1103.55 1770.14,-1113.78 1777.12,-1113.27"/>
<text text-anchor="middle" x="1714.07" y="-1182.99" font-family="Times,serif" font-size="14.00">dcterms:publisher</text>
</g>
<!-- http://w3id.org/oseg/ont/oseg&#45;profiles#robinVobruba -->
<g id="node24" class="node">
<title>http://w3id.org/oseg/ont/oseg&#45;profiles#robinVobruba</title>
<ellipse fill="none" stroke="#e377c2" cx="1806.47" cy="-1246.22" rx="113.69" ry="16.03"/>
<text text-anchor="middle" x="1806.47" y="-1242.52" font-family="Times,serif" font-size="14.00">osegprof:robinVob...</text>
</g>
<!-- http://w3id.org/oseg/ont/otrl&#45;&gt;http://w3id.org/oseg/ont/oseg&#45;profiles#robinVobruba -->
<g id="edge32" class="edge">
<title>http://w3id.org/oseg/ont/otrl&#45;&gt;http://w3id.org/oseg/ont/oseg&#45;profiles#robinVobruba</title>
<path fill="none" stroke="black" d="M1800.94,-1275.19C1801.44,-1274.17 1801.93,-1273.14 1802.41,-1272.09"/>
<polygon fill="black" stroke="black" points="1805.71,-1273.25 1806.09,-1262.66 1799.19,-1270.7 1805.71,-1273.25"/>
<text text-anchor="middle" x="1859.17" y="-1262.44" font-family="Times,serif" font-size="14.00">dcterms:creator</text>
</g>
<!-- http://w3id.org/oseg/ont/otrl&#45;&gt;http://w3id.org/oseg/ont/oseg&#45;profiles#robinVobruba -->
<g id="edge38" class="edge">
<title>http://w3id.org/oseg/ont/otrl&#45;&gt;http://w3id.org/oseg/ont/oseg&#45;profiles#robinVobruba</title>
<path fill="none" stroke="black" d="M1787.08,-1274.49C1787.36,-1273.64 1787.65,-1272.79 1787.96,-1271.93"/>
<polygon fill="black" stroke="black" points="1791.21,-1273.24 1791.89,-1262.67 1784.76,-1270.51 1791.21,-1273.24"/>
<text text-anchor="middle" x="1843.02" y="-1277.01" font-family="Times,serif" font-size="14.00">schema:creator</text>
</g>
<!-- http://w3id.org/oseg/ont/otrl#Odrl4 -->
<g id="node25" class="node">
<title>http://w3id.org/oseg/ont/otrl#Odrl4</title>
<ellipse fill="none" stroke="#e377c2" cx="1112.15" cy="-362.07" rx="61.54" ry="16.03"/>
<text text-anchor="middle" x="1112.15" y="-358.37" font-family="Times,serif" font-size="14.00">otrl:Odrl4</text>
</g>
<!-- http://w3id.org/oseg/ont/otrl#Odrl4&#45;&gt;http://w3id.org/oseg/ont/otrl#ODRL4 -->
<g id="edge8" class="edge">
<title>http://w3id.org/oseg/ont/otrl#Odrl4&#45;&gt;http://w3id.org/oseg/ont/otrl#ODRL4</title>
<path fill="none" stroke="black" d="M1112.59,-378.48C1113.76,-421.68 1116.92,-538.81 1118.35,-591.69"/>
<polygon fill="black" stroke="black" points="1114.86,-592.05 1118.62,-601.95 1121.85,-591.86 1114.86,-592.05"/>
<text text-anchor="middle" x="1035.47" y="-488.89" font-family="Times,serif" font-size="14.00">schema:supersededBy</text>
</g>
<!-- http://w3id.org/oseg/ont/otrl#goal -->
<g id="node26" class="node">
<title>http://w3id.org/oseg/ont/otrl#goal</title>
<ellipse fill="none" stroke="#e377c2" cx="887.43" cy="-1028.03" rx="54.39" ry="16.03"/>
<text text-anchor="middle" x="887.43" y="-1024.33" font-family="Times,serif" font-size="14.00">otrl:goal</text>
</g>
<!-- http://w3id.org/oseg/ont/otrl#goal&#45;&gt;http://w3id.org/oseg/ont/otrl#OTRL -->
<g id="edge21" class="edge">
<title>http://w3id.org/oseg/ont/otrl#goal&#45;&gt;http://w3id.org/oseg/ont/otrl#OTRL</title>
<path fill="none" stroke="black" d="M881,-1044.32C863.67,-1088.28 815.85,-1209.55 794.83,-1262.87"/>
<polygon fill="black" stroke="black" points="791.53,-1261.7 791.11,-1272.29 798.04,-1264.27 791.53,-1261.7"/>
<text text-anchor="middle" x="759.92" y="-1157.4" font-family="Times,serif" font-size="14.00">dcam:domainIncludes</text>
</g>
<!-- http://w3id.org/oseg/ont/otrl#goal&#45;&gt;http://www.w3.org/2002/07/owl#DatatypeProperty -->
<g id="edge37" class="edge">
<title>http://w3id.org/oseg/ont/otrl#goal&#45;&gt;http://www.w3.org/2002/07/owl#DatatypeProperty</title>
<path fill="none" stroke="black" d="M877.46,-1011.77C855.77,-976.4 804.16,-892.23 778.34,-850.12"/>
<polygon fill="black" stroke="black" points="781.3,-848.27 773.09,-841.57 775.33,-851.92 781.3,-848.27"/>
<text text-anchor="middle" x="823.4" y="-934.75" font-family="Times,serif" font-size="14.00">a</text>
</g>
<!-- http://w3id.org/oseg/ont/otrl#goal&#45;&gt;http://w3id.org/oseg/ont/otrl#ODRL -->
<g id="edge18" class="edge">
<title>http://w3id.org/oseg/ont/otrl#goal&#45;&gt;http://w3id.org/oseg/ont/otrl#ODRL</title>
<path fill="none" stroke="black" d="M912.16,-1013.35C956.86,-986.84 1051.16,-930.9 1101.89,-900.81"/>
<polygon fill="black" stroke="black" points="1103.72,-903.79 1110.54,-895.68 1100.15,-897.77 1103.72,-903.79"/>
<text text-anchor="middle" x="929.03" y="-960.88" font-family="Times,serif" font-size="14.00">dcam:domainIncludes</text>
</g>
<!-- http://w3id.org/oseg/ont/otrl#goal&#45;&gt;http://www.w3.org/1999/02/22&#45;rdf&#45;syntax&#45;ns#langString -->
<g id="edge42" class="edge">
<title>http://w3id.org/oseg/ont/otrl#goal&#45;&gt;http://www.w3.org/1999/02/22&#45;rdf&#45;syntax&#45;ns#langString</title>
<path fill="none" stroke="black" d="M856.56,-1014.48C829.14,-1002.45 788.76,-984.73 758.1,-971.28"/>
<polygon fill="black" stroke="black" points="759.49,-968.07 748.92,-967.25 756.68,-974.48 759.49,-968.07"/>
<text text-anchor="middle" x="786.33" y="-996.68" font-family="Times,serif" font-size="14.00">range</text>
</g>
<!-- http://w3id.org/oseg/ont/otrl#exitCriteria -->
<g id="node27" class="node">
<title>http://w3id.org/oseg/ont/otrl#exitCriteria</title>
<ellipse fill="none" stroke="#e377c2" cx="943.63" cy="-1073.55" rx="91.43" ry="16.03"/>
<text text-anchor="middle" x="943.63" y="-1069.85" font-family="Times,serif" font-size="14.00">otrl:exitCriteria</text>
</g>
<!-- http://w3id.org/oseg/ont/otrl#exitCriteria&#45;&gt;http://w3id.org/oseg/ont/otrl#OTRL -->
<g id="edge27" class="edge">
<title>http://w3id.org/oseg/ont/otrl#exitCriteria&#45;&gt;http://w3id.org/oseg/ont/otrl#OTRL</title>
<path fill="none" stroke="black" d="M931.69,-1089.71C904,-1127.17 835.34,-1220.06 802.6,-1264.35"/>
<polygon fill="black" stroke="black" points="799.69,-1262.4 796.56,-1272.53 805.32,-1266.56 799.69,-1262.4"/>
<text text-anchor="middle" x="789.14" y="-1180.83" font-family="Times,serif" font-size="14.00">dcam:domainIncludes</text>
</g>
<!-- http://w3id.org/oseg/ont/otrl#exitCriteria&#45;&gt;http://www.w3.org/2002/07/owl#DatatypeProperty -->
<g id="edge43" class="edge">
<title>http://w3id.org/oseg/ont/otrl#exitCriteria&#45;&gt;http://www.w3.org/2002/07/owl#DatatypeProperty</title>
<path fill="none" stroke="black" d="M931.79,-1057.26C900.86,-1014.73 817.55,-900.16 780.85,-849.68"/>
<polygon fill="black" stroke="black" points="783.68,-847.62 774.97,-841.59 778.02,-851.74 783.68,-847.62"/>
<text text-anchor="middle" x="851.82" y="-942.27" font-family="Times,serif" font-size="14.00">a</text>
</g>
<!-- http://w3id.org/oseg/ont/otrl#exitCriteria&#45;&gt;http://w3id.org/oseg/ont/otrl#ODRL -->
<g id="edge23" class="edge">
<title>http://w3id.org/oseg/ont/otrl#exitCriteria&#45;&gt;http://w3id.org/oseg/ont/otrl#ODRL</title>
<path fill="none" stroke="black" d="M959.7,-1057.44C993.71,-1023.31 1073.13,-943.62 1112.68,-903.94"/>
<polygon fill="black" stroke="black" points="1115.45,-906.12 1120.03,-896.56 1110.49,-901.18 1115.45,-906.12"/>
<text text-anchor="middle" x="958.19" y="-984.49" font-family="Times,serif" font-size="14.00">dcam:domainIncludes</text>
</g>
<!-- http://w3id.org/oseg/ont/otrl#exitCriteria&#45;&gt;http://www.w3.org/1999/02/22&#45;rdf&#45;syntax&#45;ns#langString -->
<g id="edge3" class="edge">
<title>http://w3id.org/oseg/ont/otrl#exitCriteria&#45;&gt;http://www.w3.org/1999/02/22&#45;rdf&#45;syntax&#45;ns#langString</title>
<path fill="none" stroke="black" d="M914.18,-1057.95C872.96,-1036.1 798.02,-996.39 752.68,-972.36"/>
<polygon fill="black" stroke="black" points="754.23,-969.21 743.75,-967.62 750.95,-975.4 754.23,-969.21"/>
<text text-anchor="middle" x="812.43" y="-1018.95" font-family="Times,serif" font-size="14.00">range</text>
</g>
<!-- http://w3id.org/oseg/ont/otrl#Otrl6 -->
<g id="node28" class="node">
<title>http://w3id.org/oseg/ont/otrl#Otrl6</title>
<ellipse fill="none" stroke="black" cx="189.31" cy="-1208.85" rx="189.51" ry="16.03"/>
<text text-anchor="middle" x="189.31" y="-1205.15" font-family="Times,serif" font-size="14.00">http://w3id.org/oseg/ont/otrl#Otrl6</text>
</g>
<!-- http://w3id.org/oseg/ont/otrl#Otrl6&#45;&gt;http://w3id.org/oseg/ont/otrl#OTRL6 -->
<g id="edge1" class="edge">
<title>http://w3id.org/oseg/ont/otrl#Otrl6&#45;&gt;http://w3id.org/oseg/ont/otrl#OTRL6</title>
<path fill="none" stroke="black" d="M241.88,-1224.48C306.72,-1243.75 416.26,-1276.31 480.88,-1295.52"/>
<polygon fill="black" stroke="black" points="479.89,-1298.88 490.47,-1298.37 481.88,-1292.17 479.89,-1298.88"/>
<text text-anchor="middle" x="281.38" y="-1263.8" font-family="Times,serif" font-size="14.00">schema:supersededBy</text>
</g>
<!-- http://w3id.org/oseg/ont/otrl#Otrl4 -->
<g id="node29" class="node">
<title>http://w3id.org/oseg/ont/otrl#Otrl4</title>
<ellipse fill="none" stroke="black" cx="191.14" cy="-1352.59" rx="189.51" ry="16.03"/>
<text text-anchor="middle" x="191.14" y="-1348.89" font-family="Times,serif" font-size="14.00">http://w3id.org/oseg/ont/otrl#Otrl4</text>
</g>
<!-- http://w3id.org/oseg/ont/otrl#Otrl4&#45;&gt;http://w3id.org/oseg/ont/otrl#OTRL4 -->
<g id="edge2" class="edge">
<title>http://w3id.org/oseg/ont/otrl#Otrl4&#45;&gt;http://w3id.org/oseg/ont/otrl#OTRL4</title>
<path fill="none" stroke="black" d="M243.79,-1336.94C308.71,-1317.63 418.39,-1285.03 483.1,-1265.79"/>
<polygon fill="black" stroke="black" points="484.11,-1269.14 492.7,-1262.93 482.12,-1262.43 484.11,-1269.14"/>
<text text-anchor="middle" x="283.44" y="-1305.16" font-family="Times,serif" font-size="14.00">schema:supersededBy</text>
</g>
<!-- http://w3id.org/oseg/ont/otrl#Odrl3 -->
<g id="node30" class="node">
<title>http://w3id.org/oseg/ont/otrl#Odrl3</title>
<ellipse fill="none" stroke="black" cx="1108.57" cy="-771.41" rx="191.75" ry="16.03"/>
<text text-anchor="middle" x="1108.57" y="-767.71" font-family="Times,serif" font-size="14.00">http://w3id.org/oseg/ont/otrl#Odrl3</text>
</g>
<!-- http://w3id.org/oseg/ont/otrl#Odrl3&#45;&gt;http://w3id.org/oseg/ont/otrl#ODRL3 -->
<g id="edge4" class="edge">
<title>http://w3id.org/oseg/ont/otrl#Odrl3&#45;&gt;http://w3id.org/oseg/ont/otrl#ODRL3</title>
<path fill="none" stroke="black" d="M1115.48,-788.01C1115.55,-788.17 1115.62,-788.34 1115.68,-788.51"/>
<polygon fill="black" stroke="black" points="1111.74,-788.14 1118.81,-796.03 1118.21,-785.46 1111.74,-788.14"/>
<text text-anchor="middle" x="1035.58" y="-792.06" font-family="Times,serif" font-size="14.00">schema:supersededBy</text>
</g>
<!-- http://w3id.org/oseg/ont/otrl#Otrl -->
<g id="node31" class="node">
<title>http://w3id.org/oseg/ont/otrl#Otrl</title>
<ellipse fill="none" stroke="black" cx="770.51" cy="-1651.89" rx="183.28" ry="16.03"/>
<text text-anchor="middle" x="770.51" y="-1648.19" font-family="Times,serif" font-size="14.00">http://w3id.org/oseg/ont/otrl#Otrl</text>
</g>
<!-- http://w3id.org/oseg/ont/otrl#Otrl&#45;&gt;http://w3id.org/oseg/ont/otrl#OTRL -->
<g id="edge12" class="edge">
<title>http://w3id.org/oseg/ont/otrl#Otrl&#45;&gt;http://w3id.org/oseg/ont/otrl#OTRL</title>
<path fill="none" stroke="black" d="M771.15,-1635.33C773.39,-1577.88 780.86,-1386.75 783.63,-1315.59"/>
<polygon fill="black" stroke="black" points="787.15,-1315.36 784.04,-1305.23 780.15,-1315.09 787.15,-1315.36"/>
<text text-anchor="middle" x="777.39" y="-1464.26" font-family="Times,serif" font-size="14.00">schema:supersededBy</text>
</g>
<!-- http://w3id.org/oseg/ont/otrl#Odrl2 -->
<g id="node32" class="node">
<title>http://w3id.org/oseg/ont/otrl#Odrl2</title>
<ellipse fill="none" stroke="black" cx="1727.75" cy="-706.26" rx="191.75" ry="16.03"/>
<text text-anchor="middle" x="1727.75" y="-702.56" font-family="Times,serif" font-size="14.00">http://w3id.org/oseg/ont/otrl#Odrl2</text>
</g>
<!-- http://w3id.org/oseg/ont/otrl#Odrl2&#45;&gt;http://w3id.org/oseg/ont/otrl#ODRL2 -->
<g id="edge15" class="edge">
<title>http://w3id.org/oseg/ont/otrl#Odrl2&#45;&gt;http://w3id.org/oseg/ont/otrl#ODRL2</title>
<path fill="none" stroke="black" d="M1677.07,-722.02C1612.83,-741.98 1502.72,-776.21 1438.15,-796.28"/>
<polygon fill="black" stroke="black" points="1437.08,-792.95 1428.57,-799.26 1439.16,-799.63 1437.08,-792.95"/>
<text text-anchor="middle" x="1477.61" y="-762.95" font-family="Times,serif" font-size="14.00">schema:supersededBy</text>
</g>
<!-- http://w3id.org/oseg/ont/otrl#Otrl1 -->
<g id="node33" class="node">
<title>http://w3id.org/oseg/ont/otrl#Otrl1</title>
<ellipse fill="none" stroke="black" cx="966.19" cy="-1506.15" rx="189.51" ry="16.03"/>
<text text-anchor="middle" x="966.19" y="-1502.45" font-family="Times,serif" font-size="14.00">http://w3id.org/oseg/ont/otrl#Otrl1</text>
</g>
<!-- http://w3id.org/oseg/ont/otrl#Otrl1&#45;&gt;http://w3id.org/oseg/ont/otrl#OTRL1 -->
<g id="edge16" class="edge">
<title>http://w3id.org/oseg/ont/otrl#Otrl1&#45;&gt;http://w3id.org/oseg/ont/otrl#OTRL1</title>
<path fill="none" stroke="black" d="M949.5,-1489.53C949.16,-1489.19 948.81,-1488.84 948.46,-1488.5"/>
<polygon fill="black" stroke="black" points="950.72,-1485.81 941.17,-1481.23 945.78,-1490.77 950.72,-1485.81"/>
<text text-anchor="middle" x="1028.98" y="-1477.81" font-family="Times,serif" font-size="14.00">schema:supersededBy</text>
</g>
<!-- http://w3id.org/oseg/ont/otrl#Odrl1 -->
<g id="node34" class="node">
<title>http://w3id.org/oseg/ont/otrl#Odrl1</title>
<ellipse fill="none" stroke="black" cx="1213.77" cy="-1163.07" rx="191.75" ry="16.03"/>
<text text-anchor="middle" x="1213.77" y="-1159.37" font-family="Times,serif" font-size="14.00">http://w3id.org/oseg/ont/otrl#Odrl1</text>
</g>
<!-- http://w3id.org/oseg/ont/otrl#Odrl1&#45;&gt;http://w3id.org/oseg/ont/otrl#ODRL1 -->
<g id="edge17" class="edge">
<title>http://w3id.org/oseg/ont/otrl#Odrl1&#45;&gt;http://w3id.org/oseg/ont/otrl#ODRL1</title>
<path fill="none" stroke="black" d="M1210.29,-1146.76C1210.21,-1146.42 1210.14,-1146.08 1210.07,-1145.74"/>
<polygon fill="black" stroke="black" points="1213.44,-1144.79 1207.93,-1135.74 1206.6,-1146.25 1213.44,-1144.79"/>
<text text-anchor="middle" x="1290.18" y="-1135.05" font-family="Times,serif" font-size="14.00">schema:supersededBy</text>
</g>
<!-- http://w3id.org/oseg/ont/otrl#Odrl3Star -->
<g id="node35" class="node">
<title>http://w3id.org/oseg/ont/otrl#Odrl3Star</title>
<ellipse fill="none" stroke="black" cx="1568.42" cy="-343.35" rx="213.59" ry="16.03"/>
<text text-anchor="middle" x="1568.42" y="-339.65" font-family="Times,serif" font-size="14.00">http://w3id.org/oseg/ont/otrl#Odrl3Star</text>
</g>
<!-- http://w3id.org/oseg/ont/otrl#Odrl3Star&#45;&gt;http://w3id.org/oseg/ont/otrl#ODRL3Star -->
<g id="edge29" class="edge">
<title>http://w3id.org/oseg/ont/otrl#Odrl3Star&#45;&gt;http://w3id.org/oseg/ont/otrl#ODRL3Star</title>
<path fill="none" stroke="black" d="M1554.87,-359.95C1511.1,-413.55 1373.43,-582.15 1322.05,-645.07"/>
<polygon fill="black" stroke="black" points="1319.28,-642.93 1315.67,-652.89 1324.7,-647.36 1319.28,-642.93"/>
<text text-anchor="middle" x="1358.46" y="-506.31" font-family="Times,serif" font-size="14.00">schema:supersededBy</text>
</g>
<!-- http://w3id.org/oseg/ont/otrl#Otrl5 -->
<g id="node36" class="node">
<title>http://w3id.org/oseg/ont/otrl#Otrl5</title>
<ellipse fill="none" stroke="black" cx="600.29" cy="-1878.62" rx="189.51" ry="16.03"/>
<text text-anchor="middle" x="600.29" y="-1874.92" font-family="Times,serif" font-size="14.00">http://w3id.org/oseg/ont/otrl#Otrl5</text>
</g>
<!-- http://w3id.org/oseg/ont/otrl#Otrl5&#45;&gt;http://w3id.org/oseg/ont/otrl#OTRL5 -->
<g id="edge31" class="edge">
<title>http://w3id.org/oseg/ont/otrl#Otrl5&#45;&gt;http://w3id.org/oseg/ont/otrl#OTRL5</title>
<path fill="none" stroke="black" d="M604.68,-1862.24C619.57,-1806.57 668.36,-1624.24 686.68,-1555.75"/>
<polygon fill="black" stroke="black" points="690.15,-1556.33 689.35,-1545.77 683.39,-1554.52 690.15,-1556.33"/>
<text text-anchor="middle" x="725.68" y="-1712.79" font-family="Times,serif" font-size="14.00">schema:supersededBy</text>
</g>
<!-- http://w3id.org/oseg/ont/otrl#Otrl2 -->
<g id="node37" class="node">
<title>http://w3id.org/oseg/ont/otrl#Otrl2</title>
<ellipse fill="none" stroke="black" cx="324.14" cy="-1699.32" rx="189.51" ry="16.03"/>
<text text-anchor="middle" x="324.14" y="-1695.62" font-family="Times,serif" font-size="14.00">http://w3id.org/oseg/ont/otrl#Otrl2</text>
</g>
<!-- http://w3id.org/oseg/ont/otrl#Otrl2&#45;&gt;http://w3id.org/oseg/ont/otrl#OTRL2 -->
<g id="edge33" class="edge">
<title>http://w3id.org/oseg/ont/otrl#Otrl2&#45;&gt;http://w3id.org/oseg/ont/otrl#OTRL2</title>
<path fill="none" stroke="black" d="M341.85,-1682.97C387.65,-1640.68 510.11,-1527.63 562.97,-1478.83"/>
<polygon fill="black" stroke="black" points="565.56,-1481.19 570.54,-1471.84 560.81,-1476.05 565.56,-1481.19"/>
<text text-anchor="middle" x="372.41" y="-1584.7" font-family="Times,serif" font-size="14.00">schema:supersededBy</text>
</g>
<!-- http://w3id.org/oseg/ont/otrl#Odrl5 -->
<g id="node38" class="node">
<title>http://w3id.org/oseg/ont/otrl#Odrl5</title>
<ellipse fill="none" stroke="black" cx="1103.97" cy="-16.13" rx="191.75" ry="16.03"/>
<text text-anchor="middle" x="1103.97" y="-12.43" font-family="Times,serif" font-size="14.00">http://w3id.org/oseg/ont/otrl#Odrl5</text>
</g>
<!-- http://w3id.org/oseg/ont/otrl#Odrl5&#45;&gt;http://w3id.org/oseg/ont/otrl#Odrl4 -->
<g id="edge34" class="edge">
<title>http://w3id.org/oseg/ont/otrl#Odrl5&#45;&gt;http://w3id.org/oseg/ont/otrl#Odrl4</title>
<path fill="none" stroke="black" d="M1104.36,-32.81C1105.68,-88.3 1109.9,-266.96 1111.52,-335.22"/>
<polygon fill="black" stroke="black" points="1108.02,-335.64 1111.76,-345.55 1115.02,-335.47 1108.02,-335.64"/>
<text text-anchor="middle" x="1027.94" y="-187.81" font-family="Times,serif" font-size="14.00">schema:supersededBy</text>
</g>
<!-- http://w3id.org/oseg/ont/otrl#Otrl3 -->
<g id="node39" class="node">
<title>http://w3id.org/oseg/ont/otrl#Otrl3</title>
<ellipse fill="none" stroke="black" cx="1246.27" cy="-1679.61" rx="189.51" ry="16.03"/>
<text text-anchor="middle" x="1246.27" y="-1675.91" font-family="Times,serif" font-size="14.00">http://w3id.org/oseg/ont/otrl#Otrl3</text>
</g>
<!-- http://w3id.org/oseg/ont/otrl#Otrl3&#45;&gt;http://w3id.org/oseg/ont/otrl#OTRL3 -->
<g id="edge36" class="edge">
<title>http://w3id.org/oseg/ont/otrl#Otrl3&#45;&gt;http://w3id.org/oseg/ont/otrl#OTRL3</title>
<path fill="none" stroke="black" d="M1230.41,-1663.29C1186.11,-1617.7 1060.89,-1488.85 1009.22,-1435.69"/>
<polygon fill="black" stroke="black" points="1011.63,-1433.14 1002.15,-1428.41 1006.61,-1438.02 1011.63,-1433.14"/>
<text text-anchor="middle" x="1039.82" y="-1553.29" font-family="Times,serif" font-size="14.00">schema:supersededBy</text>
</g>
<!-- http://w3id.org/oseg/ont/otrl#Odrl -->
<g id="node40" class="node">
<title>http://w3id.org/oseg/ont/otrl#Odrl</title>
<ellipse fill="none" stroke="black" cx="1487.29" cy="-915.04" rx="185.02" ry="16.03"/>
<text text-anchor="middle" x="1487.29" y="-911.34" font-family="Times,serif" font-size="14.00">http://w3id.org/oseg/ont/otrl#Odrl</text>
</g>
<!-- http://w3id.org/oseg/ont/otrl#Odrl&#45;&gt;http://w3id.org/oseg/ont/otrl#ODRL -->
<g id="edge40" class="edge">
<title>http://w3id.org/oseg/ont/otrl#Odrl&#45;&gt;http://w3id.org/oseg/ont/otrl#ODRL</title>
<path fill="none" stroke="black" d="M1363.41,-902.91C1310.14,-897.69 1249.89,-891.79 1204.78,-887.37"/>
<polygon fill="black" stroke="black" points="1205.11,-883.89 1194.81,-886.4 1204.43,-890.85 1205.11,-883.89"/>
<text text-anchor="middle" x="1364.09" y="-883.94" font-family="Times,serif" font-size="14.00">schema:supersededBy</text>
</g>
</g>
</svg>
