<?xml version="1.0" encoding="UTF-8" standalone="no"?>
<!DOCTYPE svg PUBLIC "-//W3C//DTD SVG 1.1//EN"
 "http://www.w3.org/Graphics/SVG/1.1/DTD/svg11.dtd">
<!-- Generated by graphviz version 2.43.0 (0)
 -->
<!-- Title: G Pages: 1 -->
<svg width="1305pt" height="1274pt"
 viewBox="0.00 0.00 1305.00 1274.00" xmlns="http://www.w3.org/2000/svg" xmlns:xlink="http://www.w3.org/1999/xlink">
<g id="graph0" class="graph" transform="scale(1 1) rotate(0) translate(4 1270)">
<title>G</title>
<polygon fill="white" stroke="transparent" points="-4,4 -4,-1270 1301,-1270 1301,4 -4,4"/>
<!-- http://www.w3.org/2002/07/owl#ObjectProperty -->
<g id="node1" class="node">
<title>http://www.w3.org/2002/07/owl#ObjectProperty</title>
<ellipse fill="none" stroke="#1f77b4" cx="109.68" cy="-1123.93" rx="109.7" ry="16.03"/>
<text text-anchor="middle" x="109.68" y="-1120.23" font-family="Times,serif" font-size="14.00">owl:ObjectProperty</text>
</g>
<!-- http://spdx.org/rdf/terms#File -->
<g id="node2" class="node">
<title>http://spdx.org/rdf/terms#File</title>
<ellipse fill="none" stroke="#1f77b4" cx="747.92" cy="-999.65" rx="62.45" ry="16.03"/>
<text text-anchor="middle" x="747.92" y="-995.95" font-family="Times,serif" font-size="14.00">spdxt:File</text>
</g>
<!-- https://w3id.org/oseg/ont/okhmeta#MetaTag -->
<g id="node3" class="node">
<title>https://w3id.org/oseg/ont/okhmeta#MetaTag</title>
<ellipse fill="none" stroke="#e377c2" cx="564.98" cy="-374.62" rx="102.56" ry="16.03"/>
<text text-anchor="middle" x="564.98" y="-370.92" font-family="Times,serif" font-size="14.00">okhmeta:MetaTag</text>
</g>
<!-- https://w3id.org/oseg/ont/okhmeta#MetaTag&#45;&gt;https://w3id.org/oseg/ont/okhmeta#MetaTag -->
<g id="edge43" class="edge">
<title>https://w3id.org/oseg/ont/okhmeta#MetaTag&#45;&gt;https://w3id.org/oseg/ont/okhmeta#MetaTag</title>
<path fill="none" stroke="black" d="M659.97,-380.83C675.14,-379.92 685.51,-377.85 685.51,-374.62 685.51,-372.17 679.55,-370.38 670.07,-369.27"/>
<polygon fill="black" stroke="black" points="670.24,-365.77 659.97,-368.4 669.64,-372.74 670.24,-365.77"/>
<text text-anchor="middle" x="762.51" y="-370.92" font-family="Times,serif" font-size="14.00">okhmeta:hasMetaTag</text>
</g>
<!-- https://w3id.org/oseg/ont/okhmeta#Tag -->
<g id="node4" class="node">
<title>https://w3id.org/oseg/ont/okhmeta#Tag</title>
<ellipse fill="none" stroke="#e377c2" cx="598.43" cy="-333.65" rx="76.24" ry="16.03"/>
<text text-anchor="middle" x="598.43" y="-329.95" font-family="Times,serif" font-size="14.00">okhmeta:Tag</text>
</g>
<!-- https://w3id.org/oseg/ont/okhmeta#MetaTag&#45;&gt;https://w3id.org/oseg/ont/okhmeta#Tag -->
<g id="edge34" class="edge">
<title>https://w3id.org/oseg/ont/okhmeta#MetaTag&#45;&gt;https://w3id.org/oseg/ont/okhmeta#Tag</title>
<path fill="none" stroke="black" d="M586.93,-358.4C587,-358.32 587.07,-358.23 587.14,-358.15"/>
<polygon fill="black" stroke="black" points="589.94,-360.25 593.07,-350.13 584.31,-356.09 589.94,-360.25"/>
<text text-anchor="middle" x="582.54" y="-347.08" font-family="Times,serif" font-size="14.00">a</text>
</g>
<!-- https://w3id.org/oseg/ont/okhmeta#Tag&#45;&gt;https://w3id.org/oseg/ont/okhmeta#MetaTag -->
<g id="edge40" class="edge">
<title>https://w3id.org/oseg/ont/okhmeta#Tag&#45;&gt;https://w3id.org/oseg/ont/okhmeta#MetaTag</title>
<path fill="none" stroke="black" d="M576.87,-349.39C576.65,-349.66 576.42,-349.93 576.2,-350.21"/>
<polygon fill="black" stroke="black" points="573.37,-348.15 570.25,-358.27 579,-352.3 573.37,-348.15"/>
<text text-anchor="middle" x="499.53" y="-353.6" font-family="Times,serif" font-size="14.00">okhmeta:hasMetaTag</text>
</g>
<!-- http://www.w3.org/2004/02/skos/core#Collection -->
<g id="node5" class="node">
<title>http://www.w3.org/2004/02/skos/core#Collection</title>
<ellipse fill="none" stroke="#e377c2" cx="843.93" cy="-564.26" rx="87.86" ry="16.03"/>
<text text-anchor="middle" x="843.93" y="-560.56" font-family="Times,serif" font-size="14.00">skos:Collection</text>
</g>
<!-- https://w3id.org/oseg/ont/okhmeta#Tag&#45;&gt;http://www.w3.org/2004/02/skos/core#Collection -->
<g id="edge41" class="edge">
<title>https://w3id.org/oseg/ont/okhmeta#Tag&#45;&gt;http://www.w3.org/2004/02/skos/core#Collection</title>
<path fill="none" stroke="black" d="M615.69,-349.87C658.48,-390.06 769.55,-494.39 819.26,-541.08"/>
<polygon fill="black" stroke="black" points="817,-543.77 826.69,-548.06 821.8,-538.67 817,-543.77"/>
</g>
<!-- http://www.w3.org/2004/02/skos/core#Concept -->
<g id="node7" class="node">
<title>http://www.w3.org/2004/02/skos/core#Concept</title>
<ellipse fill="none" stroke="#1f77b4" cx="586.39" cy="-657.59" rx="78.48" ry="16.03"/>
<text text-anchor="middle" x="586.39" y="-653.89" font-family="Times,serif" font-size="14.00">skos:Concept</text>
</g>
<!-- https://w3id.org/oseg/ont/okhmeta#Tag&#45;&gt;http://www.w3.org/2004/02/skos/core#Concept -->
<g id="edge1" class="edge">
<title>https://w3id.org/oseg/ont/okhmeta#Tag&#45;&gt;http://www.w3.org/2004/02/skos/core#Concept</title>
<path fill="none" stroke="black" d="M597.82,-350.16C595.86,-402.69 589.78,-566.29 587.38,-630.93"/>
<polygon fill="black" stroke="black" points="583.88,-630.99 587,-641.11 590.87,-631.25 583.88,-630.99"/>
<text text-anchor="middle" x="588.1" y="-494.35" font-family="Times,serif" font-size="14.00">a</text>
</g>
<!-- http://www.w3.org/2002/07/owl#Ontology -->
<g id="node6" class="node">
<title>http://www.w3.org/2002/07/owl#Ontology</title>
<ellipse fill="none" stroke="#1f77b4" cx="955.8" cy="-1250.05" rx="77.56" ry="16.03"/>
<text text-anchor="middle" x="955.8" y="-1246.35" font-family="Times,serif" font-size="14.00">owl:Ontology</text>
</g>
<!-- https://w3id.org/oseg/ont/okhmeta -->
<g id="node8" class="node">
<title>https://w3id.org/oseg/ont/okhmeta</title>
<ellipse fill="none" stroke="#e377c2" cx="956.16" cy="-1030.04" rx="76.24" ry="16.03"/>
<text text-anchor="middle" x="956.16" y="-1026.34" font-family="Times,serif" font-size="14.00">ns1:okhmeta</text>
</g>
<!-- https://w3id.org/oseg/ont/okhmeta&#45;&gt;http://spdx.org/rdf/terms#File -->
<g id="edge3" class="edge">
<title>https://w3id.org/oseg/ont/okhmeta&#45;&gt;http://spdx.org/rdf/terms#File</title>
<path fill="none" stroke="black" d="M893.12,-1020.84C867.54,-1017.1 838.03,-1012.8 812.32,-1009.04"/>
<polygon fill="black" stroke="black" points="812.7,-1005.56 802.3,-1007.58 811.69,-1012.49 812.7,-1005.56"/>
<text text-anchor="middle" x="848.22" y="-1018.74" font-family="Times,serif" font-size="14.00">a</text>
</g>
<!-- https://w3id.org/oseg/ont/okhmeta&#45;&gt;http://www.w3.org/2002/07/owl#Ontology -->
<g id="edge37" class="edge">
<title>https://w3id.org/oseg/ont/okhmeta&#45;&gt;http://www.w3.org/2002/07/owl#Ontology</title>
<path fill="none" stroke="black" d="M956.14,-1046.57C956.07,-1084.41 955.92,-1177.57 955.84,-1223.53"/>
<polygon fill="black" stroke="black" points="952.34,-1223.62 955.82,-1233.62 959.34,-1223.63 952.34,-1223.62"/>
<text text-anchor="middle" x="951.49" y="-1138.85" font-family="Times,serif" font-size="14.00">a</text>
</g>
<!-- https://w3id.org/oseg/ont/oseg&#45;profiles#robinVobruba -->
<g id="node10" class="node">
<title>https://w3id.org/oseg/ont/oseg&#45;profiles#robinVobruba</title>
<ellipse fill="none" stroke="#e377c2" cx="883.56" cy="-1070.61" rx="113.69" ry="16.03"/>
<text text-anchor="middle" x="883.56" y="-1066.91" font-family="Times,serif" font-size="14.00">osegprof:robinVob...</text>
</g>
<!-- https://w3id.org/oseg/ont/okhmeta&#45;&gt;https://w3id.org/oseg/ont/oseg&#45;profiles#robinVobruba -->
<g id="edge10" class="edge">
<title>https://w3id.org/oseg/ont/okhmeta&#45;&gt;https://w3id.org/oseg/ont/oseg&#45;profiles#robinVobruba</title>
<path fill="none" stroke="black" d="M916.99,-1044.2C914.24,-1045.73 911.52,-1047.3 908.88,-1048.89"/>
<polygon fill="black" stroke="black" points="906.91,-1046 900.31,-1054.29 910.64,-1051.92 906.91,-1046"/>
<text text-anchor="middle" x="855.43" y="-1035.34" font-family="Times,serif" font-size="14.00">dcterms:creator</text>
</g>
<!-- https://w3id.org/oseg/ont/okhmeta&#45;&gt;https://w3id.org/oseg/ont/oseg&#45;profiles#robinVobruba -->
<g id="edge26" class="edge">
<title>https://w3id.org/oseg/ont/okhmeta&#45;&gt;https://w3id.org/oseg/ont/oseg&#45;profiles#robinVobruba</title>
<path fill="none" stroke="black" d="M940.03,-1045.96C937.99,-1047.32 935.83,-1048.7 933.59,-1050.09"/>
<polygon fill="black" stroke="black" points="931.46,-1047.28 924.63,-1055.39 935.02,-1053.31 931.46,-1047.28"/>
<text text-anchor="middle" x="992.31" y="-1051.82" font-family="Times,serif" font-size="14.00">schema:creator</text>
</g>
<!-- https://w3id.org/oseg/ont/oseg&#45;profiles#Iopa -->
<g id="node18" class="node">
<title>https://w3id.org/oseg/ont/oseg&#45;profiles#Iopa</title>
<ellipse fill="none" stroke="#e377c2" cx="923.66" cy="-800.75" rx="80.72" ry="16.03"/>
<text text-anchor="middle" x="923.66" y="-797.05" font-family="Times,serif" font-size="14.00">osegprof:Iopa</text>
</g>
<!-- https://w3id.org/oseg/ont/okhmeta&#45;&gt;https://w3id.org/oseg/ont/oseg&#45;profiles#Iopa -->
<g id="edge12" class="edge">
<title>https://w3id.org/oseg/ont/okhmeta&#45;&gt;https://w3id.org/oseg/ont/oseg&#45;profiles#Iopa</title>
<path fill="none" stroke="black" d="M953.83,-1013.55C948.26,-974.3 934.19,-875.05 927.42,-827.27"/>
<polygon fill="black" stroke="black" points="930.85,-826.5 925.98,-817.09 923.92,-827.48 930.85,-826.5"/>
<text text-anchor="middle" x="875.12" y="-924.21" font-family="Times,serif" font-size="14.00">dcterms:publisher</text>
</g>
<!-- https://spdx.org/licenses/GPL&#45;3.0&#45;or&#45;later -->
<g id="node20" class="node">
<title>https://spdx.org/licenses/GPL&#45;3.0&#45;or&#45;later</title>
<ellipse fill="none" stroke="#e377c2" cx="1187.75" cy="-1136.34" rx="108.79" ry="16.03"/>
<text text-anchor="middle" x="1187.75" y="-1132.64" font-family="Times,serif" font-size="14.00">spdxl:GPL&#45;3.0&#45;or&#45;...</text>
</g>
<!-- https://w3id.org/oseg/ont/okhmeta&#45;&gt;https://spdx.org/licenses/GPL&#45;3.0&#45;or&#45;later -->
<g id="edge36" class="edge">
<title>https://w3id.org/oseg/ont/okhmeta&#45;&gt;https://spdx.org/licenses/GPL&#45;3.0&#45;or&#45;later</title>
<path fill="none" stroke="black" d="M988.36,-1044.82C1029.09,-1063.51 1099.36,-1095.77 1144.67,-1116.57"/>
<polygon fill="black" stroke="black" points="1143.39,-1119.83 1153.94,-1120.82 1146.31,-1113.47 1143.39,-1119.83"/>
<text text-anchor="middle" x="1145.52" y="-1084.49" font-family="Times,serif" font-size="14.00">spdxt:licenseDeclared</text>
</g>
<!-- https://w3id.org/oseg/ont/1.1.0/okh&#45;meta -->
<g id="node25" class="node">
<title>https://w3id.org/oseg/ont/1.1.0/okh&#45;meta</title>
<ellipse fill="none" stroke="#e377c2" cx="950.44" cy="-985.76" rx="79.81" ry="16.03"/>
<text text-anchor="middle" x="950.44" y="-982.06" font-family="Times,serif" font-size="14.00">ns2:okh&#45;meta</text>
</g>
<!-- https://w3id.org/oseg/ont/okhmeta&#45;&gt;https://w3id.org/oseg/ont/1.1.0/okh&#45;meta -->
<g id="edge42" class="edge">
<title>https://w3id.org/oseg/ont/okhmeta&#45;&gt;https://w3id.org/oseg/ont/1.1.0/okh&#45;meta</title>
<path fill="none" stroke="black" d="M954.03,-1013.55C953.97,-1013.08 953.91,-1012.61 953.85,-1012.14"/>
<polygon fill="black" stroke="black" points="957.31,-1011.58 952.55,-1002.11 950.36,-1012.48 957.31,-1011.58"/>
<text text-anchor="middle" x="1005.44" y="-1001.64" font-family="Times,serif" font-size="14.00">owl:versionIRI</text>
</g>
<!-- http://id.loc.gov/vocabulary/iso639&#45;1/en -->
<g id="node29" class="node">
<title>http://id.loc.gov/vocabulary/iso639&#45;1/en</title>
<ellipse fill="none" stroke="#e377c2" cx="1116.47" cy="-925.9" rx="45.01" ry="16.03"/>
<text text-anchor="middle" x="1116.47" y="-922.2" font-family="Times,serif" font-size="14.00">ns3:en</text>
</g>
<!-- https://w3id.org/oseg/ont/okhmeta&#45;&gt;http://id.loc.gov/vocabulary/iso639&#45;1/en -->
<g id="edge47" class="edge">
<title>https://w3id.org/oseg/ont/okhmeta&#45;&gt;http://id.loc.gov/vocabulary/iso639&#45;1/en</title>
<path fill="none" stroke="black" d="M980.16,-1014.45C1008.31,-996.17 1055.01,-965.83 1085.77,-945.85"/>
<polygon fill="black" stroke="black" points="1087.9,-948.64 1094.38,-940.26 1084.08,-942.77 1087.9,-948.64"/>
<text text-anchor="middle" x="1097.46" y="-983.95" font-family="Times,serif" font-size="14.00">dcterms:language</text>
</g>
<!-- https://w3id.org/oseg/ont/okhmeta#DataTag -->
<g id="node9" class="node">
<title>https://w3id.org/oseg/ont/okhmeta#DataTag</title>
<ellipse fill="none" stroke="#e377c2" cx="759.47" cy="-613.87" rx="100.32" ry="16.03"/>
<text text-anchor="middle" x="759.47" y="-610.17" font-family="Times,serif" font-size="14.00">okhmeta:DataTag</text>
</g>
<!-- https://w3id.org/oseg/ont/okhmeta#DataTag&#45;&gt;https://w3id.org/oseg/ont/okhmeta#MetaTag -->
<g id="edge16" class="edge">
<title>https://w3id.org/oseg/ont/okhmeta#DataTag&#45;&gt;https://w3id.org/oseg/ont/okhmeta#MetaTag</title>
<path fill="none" stroke="black" d="M746.1,-597.43C712.43,-556.01 624.03,-447.25 584.53,-398.66"/>
<polygon fill="black" stroke="black" points="587.21,-396.41 578.19,-390.86 581.78,-400.83 587.21,-396.41"/>
<text text-anchor="middle" x="742.31" y="-501.85" font-family="Times,serif" font-size="14.00">okhmeta:hasMetaTag</text>
</g>
<!-- https://w3id.org/oseg/ont/okhmeta#DataTag&#45;&gt;https://w3id.org/oseg/ont/okhmeta#Tag -->
<g id="edge23" class="edge">
<title>https://w3id.org/oseg/ont/okhmeta#DataTag&#45;&gt;https://w3id.org/oseg/ont/okhmeta#Tag</title>
<path fill="none" stroke="black" d="M750.11,-597.6C723.21,-550.78 645.47,-415.51 612.98,-358.97"/>
<polygon fill="black" stroke="black" points="615.83,-356.9 607.81,-349.97 609.76,-360.39 615.83,-356.9"/>
<text text-anchor="middle" x="677.04" y="-482.08" font-family="Times,serif" font-size="14.00">a</text>
</g>
<!-- https://w3id.org/oseg/ont/okhmeta#PartsTag -->
<g id="node11" class="node">
<title>https://w3id.org/oseg/ont/okhmeta#PartsTag</title>
<ellipse fill="none" stroke="#e377c2" cx="274.69" cy="-408.84" rx="103.48" ry="16.03"/>
<text text-anchor="middle" x="274.69" y="-405.14" font-family="Times,serif" font-size="14.00">okhmeta:PartsTag</text>
</g>
<!-- https://w3id.org/oseg/ont/okhmeta#PartsTag&#45;&gt;https://w3id.org/oseg/ont/okhmeta#MetaTag -->
<g id="edge33" class="edge">
<title>https://w3id.org/oseg/ont/okhmeta#PartsTag&#45;&gt;https://w3id.org/oseg/ont/okhmeta#MetaTag</title>
<path fill="none" stroke="black" d="M357.49,-399.08C393.33,-394.85 435.44,-389.89 472.32,-385.54"/>
<polygon fill="black" stroke="black" points="473.06,-388.98 482.58,-384.33 472.24,-382.03 473.06,-388.98"/>
<text text-anchor="middle" x="337.91" y="-381.11" font-family="Times,serif" font-size="14.00">okhmeta:hasMetaTag</text>
</g>
<!-- https://w3id.org/oseg/ont/okhmeta#PartsTag&#45;&gt;https://w3id.org/oseg/ont/okhmeta#Tag -->
<g id="edge27" class="edge">
<title>https://w3id.org/oseg/ont/okhmeta#PartsTag&#45;&gt;https://w3id.org/oseg/ont/okhmeta#Tag</title>
<path fill="none" stroke="black" d="M332.94,-395.31C390.51,-381.94 478.23,-361.57 536.91,-347.94"/>
<polygon fill="black" stroke="black" points="537.84,-351.32 546.79,-345.65 536.25,-344.5 537.84,-351.32"/>
<text text-anchor="middle" x="430.42" y="-375.42" font-family="Times,serif" font-size="14.00">a</text>
</g>
<!-- https://w3id.org/oseg/ont/okhmeta#ExtendedInfoTag -->
<g id="node12" class="node">
<title>https://w3id.org/oseg/ont/okhmeta#ExtendedInfoTag</title>
<ellipse fill="none" stroke="#e377c2" cx="865.5" cy="-167.6" rx="120.42" ry="16.03"/>
<text text-anchor="middle" x="865.5" y="-163.9" font-family="Times,serif" font-size="14.00">okhmeta:ExtendedI...</text>
</g>
<!-- https://w3id.org/oseg/ont/okhmeta#ExtendedInfoTag&#45;&gt;https://w3id.org/oseg/ont/okhmeta#MetaTag -->
<g id="edge21" class="edge">
<title>https://w3id.org/oseg/ont/okhmeta#ExtendedInfoTag&#45;&gt;https://w3id.org/oseg/ont/okhmeta#MetaTag</title>
<path fill="none" stroke="black" d="M841.92,-183.85C788.24,-220.82 656.93,-311.28 596.43,-352.95"/>
<polygon fill="black" stroke="black" points="594.29,-350.18 588.04,-358.73 598.26,-355.94 594.29,-350.18"/>
<text text-anchor="middle" x="642.18" y="-272.2" font-family="Times,serif" font-size="14.00">okhmeta:hasMetaTag</text>
</g>
<!-- https://w3id.org/oseg/ont/okhmeta#ExtendedInfoTag&#45;&gt;https://w3id.org/oseg/ont/okhmeta#Tag -->
<g id="edge4" class="edge">
<title>https://w3id.org/oseg/ont/okhmeta#ExtendedInfoTag&#45;&gt;https://w3id.org/oseg/ont/okhmeta#Tag</title>
<path fill="none" stroke="black" d="M839.89,-183.53C791.29,-213.74 685.71,-279.39 631.7,-312.96"/>
<polygon fill="black" stroke="black" points="629.83,-310.01 623.18,-318.26 633.52,-315.96 629.83,-310.01"/>
<text text-anchor="middle" x="731.3" y="-252.05" font-family="Times,serif" font-size="14.00">a</text>
</g>
<!-- http://www.w3.org/2004/02/skos/core#member -->
<g id="node13" class="node">
<title>http://www.w3.org/2004/02/skos/core#member</title>
<ellipse fill="none" stroke="#e377c2" cx="340.73" cy="-1189.96" rx="79.39" ry="16.03"/>
<text text-anchor="middle" x="340.73" y="-1186.26" font-family="Times,serif" font-size="14.00">skos:member</text>
</g>
<!-- https://w3id.org/oseg/ont/okhmeta#AcademicTag -->
<g id="node14" class="node">
<title>https://w3id.org/oseg/ont/okhmeta#AcademicTag</title>
<ellipse fill="none" stroke="#e377c2" cx="804.46" cy="-86.26" rx="124.4" ry="16.03"/>
<text text-anchor="middle" x="804.46" y="-82.56" font-family="Times,serif" font-size="14.00">okhmeta:AcademicTag</text>
</g>
<!-- https://w3id.org/oseg/ont/okhmeta#AcademicTag&#45;&gt;https://w3id.org/oseg/ont/okhmeta#MetaTag -->
<g id="edge45" class="edge">
<title>https://w3id.org/oseg/ont/okhmeta#AcademicTag&#45;&gt;https://w3id.org/oseg/ont/okhmeta#MetaTag</title>
<path fill="none" stroke="black" d="M790.9,-102.59C750.72,-150.97 632.19,-293.69 584.85,-350.7"/>
<polygon fill="black" stroke="black" points="582.09,-348.54 578.4,-358.47 587.48,-353.01 582.09,-348.54"/>
<text text-anchor="middle" x="610.87" y="-230.45" font-family="Times,serif" font-size="14.00">okhmeta:hasMetaTag</text>
</g>
<!-- https://w3id.org/oseg/ont/okhmeta#AcademicTag&#45;&gt;https://w3id.org/oseg/ont/okhmeta#Tag -->
<g id="edge7" class="edge">
<title>https://w3id.org/oseg/ont/okhmeta#AcademicTag&#45;&gt;https://w3id.org/oseg/ont/okhmeta#Tag</title>
<path fill="none" stroke="black" d="M790.94,-102.5C755.58,-144.96 660.2,-259.49 618.45,-309.61"/>
<polygon fill="black" stroke="black" points="615.71,-307.44 612,-317.36 621.09,-311.92 615.71,-307.44"/>
<text text-anchor="middle" x="700.2" y="-209.85" font-family="Times,serif" font-size="14.00">a</text>
</g>
<!-- https://w3id.org/oseg/ont/okhmeta#BasicTag -->
<g id="node15" class="node">
<title>https://w3id.org/oseg/ont/okhmeta#BasicTag</title>
<ellipse fill="none" stroke="#e377c2" cx="277.62" cy="-298.17" rx="103.48" ry="16.03"/>
<text text-anchor="middle" x="277.62" y="-294.47" font-family="Times,serif" font-size="14.00">okhmeta:BasicTag</text>
</g>
<!-- https://w3id.org/oseg/ont/okhmeta#BasicTag&#45;&gt;https://w3id.org/oseg/ont/okhmeta#MetaTag -->
<g id="edge32" class="edge">
<title>https://w3id.org/oseg/ont/okhmeta#BasicTag&#45;&gt;https://w3id.org/oseg/ont/okhmeta#MetaTag</title>
<path fill="none" stroke="black" d="M330.33,-312.19C378.89,-325.11 450.99,-344.29 502.45,-357.98"/>
<polygon fill="black" stroke="black" points="501.56,-361.37 512.12,-360.55 503.36,-354.6 501.56,-361.37"/>
<text text-anchor="middle" x="339.39" y="-338.89" font-family="Times,serif" font-size="14.00">okhmeta:hasMetaTag</text>
</g>
<!-- https://w3id.org/oseg/ont/okhmeta#BasicTag&#45;&gt;https://w3id.org/oseg/ont/okhmeta#Tag -->
<g id="edge8" class="edge">
<title>https://w3id.org/oseg/ont/okhmeta#BasicTag&#45;&gt;https://w3id.org/oseg/ont/okhmeta#Tag</title>
<path fill="none" stroke="black" d="M362.33,-307.54C411.38,-312.96 472.67,-319.74 520.52,-325.04"/>
<polygon fill="black" stroke="black" points="520.19,-328.52 530.51,-326.14 520.96,-321.56 520.19,-328.52"/>
<text text-anchor="middle" x="436.92" y="-320.09" font-family="Times,serif" font-size="14.00">a</text>
</g>
<!-- https://w3id.org/oseg/ont/okhmeta#hasMetaTag -->
<g id="node16" class="node">
<title>https://w3id.org/oseg/ont/okhmeta#hasMetaTag</title>
<ellipse fill="none" stroke="#e377c2" cx="379.65" cy="-830.62" rx="120.42" ry="16.03"/>
<text text-anchor="middle" x="379.65" y="-826.92" font-family="Times,serif" font-size="14.00">okhmeta:hasMetaTag</text>
</g>
<!-- https://w3id.org/oseg/ont/okhmeta#hasMetaTag&#45;&gt;http://www.w3.org/2002/07/owl#ObjectProperty -->
<g id="edge18" class="edge">
<title>https://w3id.org/oseg/ont/okhmeta#hasMetaTag&#45;&gt;http://www.w3.org/2002/07/owl#ObjectProperty</title>
<path fill="none" stroke="black" d="M364.75,-846.81C319.67,-895.78 184.58,-1042.56 131.46,-1100.26"/>
<polygon fill="black" stroke="black" points="128.73,-1098.07 124.53,-1107.79 133.88,-1102.81 128.73,-1098.07"/>
<text text-anchor="middle" x="243.61" y="-977.33" font-family="Times,serif" font-size="14.00">a</text>
</g>
<!-- https://w3id.org/oseg/ont/okhmeta#hasMetaTag&#45;&gt;https://w3id.org/oseg/ont/okhmeta#MetaTag -->
<g id="edge13" class="edge">
<title>https://w3id.org/oseg/ont/okhmeta#hasMetaTag&#45;&gt;https://w3id.org/oseg/ont/okhmeta#MetaTag</title>
<path fill="none" stroke="black" d="M389.28,-814.35C422.45,-746.31 529.05,-484.43 557.96,-400.58"/>
<polygon fill="black" stroke="black" points="561.3,-401.64 561.17,-391.05 554.67,-399.41 561.3,-401.64"/>
<text text-anchor="middle" x="553.62" y="-596.27" font-family="Times,serif" font-size="14.00">schema:rangeIncludes</text>
</g>
<!-- https://w3id.org/oseg/ont/okhmeta#hasMetaTag&#45;&gt;https://w3id.org/oseg/ont/okhmeta#MetaTag -->
<g id="edge44" class="edge">
<title>https://w3id.org/oseg/ont/okhmeta#hasMetaTag&#45;&gt;https://w3id.org/oseg/ont/okhmeta#MetaTag</title>
<path fill="none" stroke="black" d="M383.47,-814.19C405.65,-745.78 511.97,-483.54 550.92,-400.19"/>
<polygon fill="black" stroke="black" points="554.09,-401.69 555.23,-391.15 547.77,-398.68 554.09,-401.69"/>
<text text-anchor="middle" x="544.2" y="-610.99" font-family="Times,serif" font-size="14.00">okhmeta:hasMetaTag</text>
</g>
<!-- https://w3id.org/oseg/ont/okhmeta#hasMetaTag&#45;&gt;http://www.w3.org/2004/02/skos/core#Concept -->
<g id="edge29" class="edge">
<title>https://w3id.org/oseg/ont/okhmeta#hasMetaTag&#45;&gt;http://www.w3.org/2004/02/skos/core#Concept</title>
<path fill="none" stroke="black" d="M399.1,-814.34C436.23,-783.27 517.26,-715.44 559.53,-680.07"/>
<polygon fill="black" stroke="black" points="562.02,-682.55 567.44,-673.45 557.53,-677.18 562.02,-682.55"/>
<text text-anchor="middle" x="474.82" y="-751" font-family="Times,serif" font-size="14.00">a</text>
</g>
<!-- https://w3id.org/oseg/ont/okhmeta#hasMetaTag&#45;&gt;http://www.w3.org/2004/02/skos/core#member -->
<g id="edge6" class="edge">
<title>https://w3id.org/oseg/ont/okhmeta#hasMetaTag&#45;&gt;http://www.w3.org/2004/02/skos/core#member</title>
<path fill="none" stroke="black" d="M377.88,-846.99C371.72,-903.82 351.25,-1092.86 343.62,-1163.25"/>
<polygon fill="black" stroke="black" points="340.11,-1163.17 342.51,-1173.49 347.07,-1163.92 340.11,-1163.17"/>
<text text-anchor="middle" x="307.75" y="-1008.92" font-family="Times,serif" font-size="14.00">subPropertyOf</text>
</g>
<!-- https://w3id.org/oseg/ont/okhmeta#QualityTag -->
<g id="node17" class="node">
<title>https://w3id.org/oseg/ont/okhmeta#QualityTag</title>
<ellipse fill="none" stroke="#e377c2" cx="411.75" cy="-612.37" rx="113.27" ry="16.03"/>
<text text-anchor="middle" x="411.75" y="-608.67" font-family="Times,serif" font-size="14.00">okhmeta:QualityTag</text>
</g>
<!-- https://w3id.org/oseg/ont/okhmeta#QualityTag&#45;&gt;https://w3id.org/oseg/ont/okhmeta#MetaTag -->
<g id="edge5" class="edge">
<title>https://w3id.org/oseg/ont/okhmeta#QualityTag&#45;&gt;https://w3id.org/oseg/ont/okhmeta#MetaTag</title>
<path fill="none" stroke="black" d="M422.29,-596.03C448.58,-555.23 517.27,-448.65 548.77,-399.77"/>
<polygon fill="black" stroke="black" points="551.9,-401.37 554.38,-391.07 546.02,-397.58 551.9,-401.37"/>
<text text-anchor="middle" x="408.53" y="-501.7" font-family="Times,serif" font-size="14.00">okhmeta:hasMetaTag</text>
</g>
<!-- https://w3id.org/oseg/ont/okhmeta#QualityTag&#45;&gt;https://w3id.org/oseg/ont/okhmeta#Tag -->
<g id="edge30" class="edge">
<title>https://w3id.org/oseg/ont/okhmeta#QualityTag&#45;&gt;https://w3id.org/oseg/ont/okhmeta#Tag</title>
<path fill="none" stroke="black" d="M422.6,-596.18C453.85,-549.52 544.27,-414.51 581.8,-358.48"/>
<polygon fill="black" stroke="black" points="584.9,-360.14 587.56,-349.89 579.08,-356.25 584.9,-360.14"/>
<text text-anchor="middle" x="497.7" y="-481.13" font-family="Times,serif" font-size="14.00">a</text>
</g>
<!-- https://w3id.org/oseg/ont/okhmeta#IdentificationTag -->
<g id="node19" class="node">
<title>https://w3id.org/oseg/ont/okhmeta#IdentificationTag</title>
<ellipse fill="none" stroke="#e377c2" cx="749.07" cy="-37.3" rx="109.7" ry="16.03"/>
<text text-anchor="middle" x="749.07" y="-33.6" font-family="Times,serif" font-size="14.00">okhmeta:Identific...</text>
</g>
<!-- https://w3id.org/oseg/ont/okhmeta#IdentificationTag&#45;&gt;https://w3id.org/oseg/ont/okhmeta#MetaTag -->
<g id="edge9" class="edge">
<title>https://w3id.org/oseg/ont/okhmeta#IdentificationTag&#45;&gt;https://w3id.org/oseg/ont/okhmeta#MetaTag</title>
<path fill="none" stroke="black" d="M740.19,-53.57C710.55,-107.89 614.86,-283.23 578.85,-349.2"/>
<polygon fill="black" stroke="black" points="575.71,-347.66 573.99,-358.12 581.85,-351.01 575.71,-347.66"/>
<text text-anchor="middle" x="582.52" y="-205.19" font-family="Times,serif" font-size="14.00">okhmeta:hasMetaTag</text>
</g>
<!-- https://w3id.org/oseg/ont/okhmeta#IdentificationTag&#45;&gt;https://w3id.org/oseg/ont/okhmeta#Tag -->
<g id="edge48" class="edge">
<title>https://w3id.org/oseg/ont/okhmeta#IdentificationTag&#45;&gt;https://w3id.org/oseg/ont/okhmeta#Tag</title>
<path fill="none" stroke="black" d="M740.76,-53.66C715.81,-102.74 641.45,-249.02 611.32,-308.29"/>
<polygon fill="black" stroke="black" points="608.13,-306.85 606.72,-317.35 614.37,-310.02 608.13,-306.85"/>
<text text-anchor="middle" x="671.54" y="-184.77" font-family="Times,serif" font-size="14.00">a</text>
</g>
<!-- https://w3id.org/oseg/ont/okhmeta#DevelopmentTag -->
<g id="node21" class="node">
<title>https://w3id.org/oseg/ont/okhmeta#DevelopmentTag</title>
<ellipse fill="none" stroke="#e377c2" cx="913.04" cy="-479.07" rx="124.4" ry="16.03"/>
<text text-anchor="middle" x="913.04" y="-475.37" font-family="Times,serif" font-size="14.00">okhmeta:Developme...</text>
</g>
<!-- https://w3id.org/oseg/ont/okhmeta#DevelopmentTag&#45;&gt;https://w3id.org/oseg/ont/okhmeta#MetaTag -->
<g id="edge2" class="edge">
<title>https://w3id.org/oseg/ont/okhmeta#DevelopmentTag&#45;&gt;https://w3id.org/oseg/ont/okhmeta#MetaTag</title>
<path fill="none" stroke="black" d="M863.17,-464.11C799.57,-445.02 689.8,-412.08 622.66,-391.93"/>
<polygon fill="black" stroke="black" points="623.66,-388.57 613.08,-389.05 621.65,-395.28 623.66,-388.57"/>
<text text-anchor="middle" x="665.92" y="-431.82" font-family="Times,serif" font-size="14.00">okhmeta:hasMetaTag</text>
</g>
<!-- https://w3id.org/oseg/ont/okhmeta#DevelopmentTag&#45;&gt;https://w3id.org/oseg/ont/okhmeta#Tag -->
<g id="edge38" class="edge">
<title>https://w3id.org/oseg/ont/okhmeta#DevelopmentTag&#45;&gt;https://w3id.org/oseg/ont/okhmeta#Tag</title>
<path fill="none" stroke="black" d="M879.07,-463.37C821.04,-436.55 702.98,-381.98 640.08,-352.9"/>
<polygon fill="black" stroke="black" points="641.39,-349.65 630.84,-348.63 638.45,-356.01 641.39,-349.65"/>
<text text-anchor="middle" x="755.07" y="-411.94" font-family="Times,serif" font-size="14.00">a</text>
</g>
<!-- https://w3id.org/oseg/ont/okhmeta#PhysicalTag -->
<g id="node22" class="node">
<title>https://w3id.org/oseg/ont/okhmeta#PhysicalTag</title>
<ellipse fill="none" stroke="#e377c2" cx="311.28" cy="-112.19" rx="118.17" ry="16.03"/>
<text text-anchor="middle" x="311.28" y="-108.49" font-family="Times,serif" font-size="14.00">okhmeta:PhysicalTag</text>
</g>
<!-- https://w3id.org/oseg/ont/okhmeta#PhysicalTag&#45;&gt;https://w3id.org/oseg/ont/okhmeta#MetaTag -->
<g id="edge46" class="edge">
<title>https://w3id.org/oseg/ont/okhmeta#PhysicalTag&#45;&gt;https://w3id.org/oseg/ont/okhmeta#MetaTag</title>
<path fill="none" stroke="black" d="M327.15,-128.6C370.58,-173.52 491.48,-298.59 542.17,-351.02"/>
<polygon fill="black" stroke="black" points="539.65,-353.45 549.12,-358.21 544.68,-348.58 539.65,-353.45"/>
<text text-anchor="middle" x="357.66" y="-243.61" font-family="Times,serif" font-size="14.00">okhmeta:hasMetaTag</text>
</g>
<!-- https://w3id.org/oseg/ont/okhmeta#PhysicalTag&#45;&gt;https://w3id.org/oseg/ont/okhmeta#Tag -->
<g id="edge39" class="edge">
<title>https://w3id.org/oseg/ont/okhmeta#PhysicalTag&#45;&gt;https://w3id.org/oseg/ont/okhmeta#Tag</title>
<path fill="none" stroke="black" d="M332.4,-128.47C383.26,-167.7 512.59,-267.45 570.11,-311.81"/>
<polygon fill="black" stroke="black" points="568,-314.6 578.06,-317.94 572.27,-309.06 568,-314.6"/>
<text text-anchor="middle" x="446.75" y="-223.94" font-family="Times,serif" font-size="14.00">a</text>
</g>
<!-- https://w3id.org/oseg/ont/okhmeta#DocumentationTag -->
<g id="node23" class="node">
<title>https://w3id.org/oseg/ont/okhmeta#DocumentationTag</title>
<ellipse fill="none" stroke="#e377c2" cx="925.04" cy="-260.23" rx="125.32" ry="16.03"/>
<text text-anchor="middle" x="925.04" y="-256.53" font-family="Times,serif" font-size="14.00">okhmeta:Documenta...</text>
</g>
<!-- https://w3id.org/oseg/ont/okhmeta#DocumentationTag&#45;&gt;https://w3id.org/oseg/ont/okhmeta#MetaTag -->
<g id="edge25" class="edge">
<title>https://w3id.org/oseg/ont/okhmeta#DocumentationTag&#45;&gt;https://w3id.org/oseg/ont/okhmeta#MetaTag</title>
<path fill="none" stroke="black" d="M877.59,-275.3C811.21,-296.39 690.85,-334.63 620.42,-357.01"/>
<polygon fill="black" stroke="black" points="619.29,-353.69 610.82,-360.05 621.41,-360.36 619.29,-353.69"/>
<text text-anchor="middle" x="672.01" y="-304.95" font-family="Times,serif" font-size="14.00">okhmeta:hasMetaTag</text>
</g>
<!-- https://w3id.org/oseg/ont/okhmeta#DocumentationTag&#45;&gt;https://w3id.org/oseg/ont/okhmeta#Tag -->
<g id="edge14" class="edge">
<title>https://w3id.org/oseg/ont/okhmeta#DocumentationTag&#45;&gt;https://w3id.org/oseg/ont/okhmeta#Tag</title>
<path fill="none" stroke="black" d="M862.06,-274.39C804.18,-287.4 718.84,-306.58 661.07,-319.57"/>
<polygon fill="black" stroke="black" points="659.96,-316.23 650.97,-321.84 661.5,-323.06 659.96,-316.23"/>
<text text-anchor="middle" x="757.07" y="-300.78" font-family="Times,serif" font-size="14.00">a</text>
</g>
<!-- https://w3id.org/oseg/ont/okhmeta#MakingTag -->
<g id="node24" class="node">
<title>https://w3id.org/oseg/ont/okhmeta#MakingTag</title>
<ellipse fill="none" stroke="#e377c2" cx="907.09" cy="-368.74" rx="113.69" ry="16.03"/>
<text text-anchor="middle" x="907.09" y="-365.04" font-family="Times,serif" font-size="14.00">okhmeta:MakingTag</text>
</g>
<!-- https://w3id.org/oseg/ont/okhmeta#MakingTag&#45;&gt;https://w3id.org/oseg/ont/okhmeta#MetaTag -->
<g id="edge35" class="edge">
<title>https://w3id.org/oseg/ont/okhmeta#MakingTag&#45;&gt;https://w3id.org/oseg/ont/okhmeta#MetaTag</title>
<path fill="none" stroke="black" d="M793.65,-370.69C756.31,-371.33 714.83,-372.04 677.56,-372.68"/>
<polygon fill="black" stroke="black" points="677.11,-369.19 667.17,-372.86 677.23,-376.19 677.11,-369.19"/>
<text text-anchor="middle" x="697.1" y="-360.49" font-family="Times,serif" font-size="14.00">okhmeta:hasMetaTag</text>
</g>
<!-- https://w3id.org/oseg/ont/okhmeta#MakingTag&#45;&gt;https://w3id.org/oseg/ont/okhmeta#Tag -->
<g id="edge15" class="edge">
<title>https://w3id.org/oseg/ont/okhmeta#MakingTag&#45;&gt;https://w3id.org/oseg/ont/okhmeta#Tag</title>
<path fill="none" stroke="black" d="M817.81,-358.59C772.98,-353.5 719.18,-347.38 676.08,-342.48"/>
<polygon fill="black" stroke="black" points="676.26,-338.98 665.93,-341.33 675.47,-345.93 676.26,-338.98"/>
<text text-anchor="middle" x="742.45" y="-339.34" font-family="Times,serif" font-size="14.00">a</text>
</g>
<!-- https://w3id.org/oseg/ont/okhmeta#TransportationTag -->
<g id="node26" class="node">
<title>https://w3id.org/oseg/ont/okhmeta#TransportationTag</title>
<ellipse fill="none" stroke="#e377c2" cx="300.32" cy="-528.77" rx="118.17" ry="16.03"/>
<text text-anchor="middle" x="300.32" y="-525.07" font-family="Times,serif" font-size="14.00">okhmeta:Transport...</text>
</g>
<!-- https://w3id.org/oseg/ont/okhmeta#TransportationTag&#45;&gt;https://w3id.org/oseg/ont/okhmeta#MetaTag -->
<g id="edge24" class="edge">
<title>https://w3id.org/oseg/ont/okhmeta#TransportationTag&#45;&gt;https://w3id.org/oseg/ont/okhmeta#MetaTag</title>
<path fill="none" stroke="black" d="M327.64,-512.86C375.71,-484.86 475.37,-426.81 528.98,-395.59"/>
<polygon fill="black" stroke="black" points="530.92,-398.5 537.8,-390.45 527.4,-392.46 530.92,-398.5"/>
<text text-anchor="middle" x="351.31" y="-458.02" font-family="Times,serif" font-size="14.00">okhmeta:hasMetaTag</text>
</g>
<!-- https://w3id.org/oseg/ont/okhmeta#TransportationTag&#45;&gt;https://w3id.org/oseg/ont/okhmeta#Tag -->
<g id="edge17" class="edge">
<title>https://w3id.org/oseg/ont/okhmeta#TransportationTag&#45;&gt;https://w3id.org/oseg/ont/okhmeta#Tag</title>
<path fill="none" stroke="black" d="M324.71,-512.8C378.15,-477.83 505.56,-394.44 565.8,-355.01"/>
<polygon fill="black" stroke="black" points="568.08,-357.7 574.53,-349.3 564.25,-351.84 568.08,-357.7"/>
<text text-anchor="middle" x="440.76" y="-437.71" font-family="Times,serif" font-size="14.00">a</text>
</g>
<!-- https://w3id.org/oseg/ont/okhmeta#LegalTag -->
<g id="node27" class="node">
<title>https://w3id.org/oseg/ont/okhmeta#LegalTag</title>
<ellipse fill="none" stroke="#e377c2" cx="523.97" cy="-70.41" rx="103.89" ry="16.03"/>
<text text-anchor="middle" x="523.97" y="-66.71" font-family="Times,serif" font-size="14.00">okhmeta:LegalTag</text>
</g>
<!-- https://w3id.org/oseg/ont/okhmeta#LegalTag&#45;&gt;https://w3id.org/oseg/ont/okhmeta#MetaTag -->
<g id="edge28" class="edge">
<title>https://w3id.org/oseg/ont/okhmeta#LegalTag&#45;&gt;https://w3id.org/oseg/ont/okhmeta#MetaTag</title>
<path fill="none" stroke="black" d="M526.18,-86.77C532.9,-136.6 553.15,-286.84 561.41,-348.14"/>
<polygon fill="black" stroke="black" points="557.96,-348.74 562.77,-358.18 564.9,-347.8 557.96,-348.74"/>
<text text-anchor="middle" x="466.8" y="-221.26" font-family="Times,serif" font-size="14.00">okhmeta:hasMetaTag</text>
</g>
<!-- https://w3id.org/oseg/ont/okhmeta#LegalTag&#45;&gt;https://w3id.org/oseg/ont/okhmeta#Tag -->
<g id="edge19" class="edge">
<title>https://w3id.org/oseg/ont/okhmeta#LegalTag&#45;&gt;https://w3id.org/oseg/ont/okhmeta#Tag</title>
<path fill="none" stroke="black" d="M528.63,-86.88C541.17,-131.2 575.7,-253.3 590.99,-307.34"/>
<polygon fill="black" stroke="black" points="587.68,-308.52 593.77,-317.19 594.42,-306.62 587.68,-308.52"/>
<text text-anchor="middle" x="555.31" y="-185.91" font-family="Times,serif" font-size="14.00">a</text>
</g>
<!-- https://w3id.org/oseg/ont/okhmeta#HistoryTag -->
<g id="node28" class="node">
<title>https://w3id.org/oseg/ont/okhmeta#HistoryTag</title>
<ellipse fill="none" stroke="#e377c2" cx="475.31" cy="-16" rx="113.69" ry="16.03"/>
<text text-anchor="middle" x="475.31" y="-12.3" font-family="Times,serif" font-size="14.00">okhmeta:HistoryTag</text>
</g>
<!-- https://w3id.org/oseg/ont/okhmeta#HistoryTag&#45;&gt;https://w3id.org/oseg/ont/okhmeta#MetaTag -->
<g id="edge11" class="edge">
<title>https://w3id.org/oseg/ont/okhmeta#HistoryTag&#45;&gt;https://w3id.org/oseg/ont/okhmeta#MetaTag</title>
<path fill="none" stroke="black" d="M479.39,-32.34C493.6,-89.16 540.95,-278.49 558.43,-348.39"/>
<polygon fill="black" stroke="black" points="555.05,-349.33 560.87,-358.18 561.84,-347.63 555.05,-349.33"/>
<text text-anchor="middle" x="480.41" y="-179.17" font-family="Times,serif" font-size="14.00">okhmeta:hasMetaTag</text>
</g>
<!-- https://w3id.org/oseg/ont/okhmeta#HistoryTag&#45;&gt;https://w3id.org/oseg/ont/okhmeta#Tag -->
<g id="edge20" class="edge">
<title>https://w3id.org/oseg/ont/okhmeta#HistoryTag&#45;&gt;https://w3id.org/oseg/ont/okhmeta#Tag</title>
<path fill="none" stroke="black" d="M481.75,-32.63C501.91,-84.63 563.84,-244.41 588.32,-307.57"/>
<polygon fill="black" stroke="black" points="585.17,-309.13 592.05,-317.19 591.7,-306.6 585.17,-309.13"/>
<text text-anchor="middle" x="530.54" y="-158.9" font-family="Times,serif" font-size="14.00">a</text>
</g>
<!-- https://w3id.org/oseg/ont/okhmeta#DataGatheringTag -->
<g id="node30" class="node">
<title>https://w3id.org/oseg/ont/okhmeta#DataGatheringTag</title>
<ellipse fill="none" stroke="#e377c2" cx="276.25" cy="-193.94" rx="122.16" ry="16.03"/>
<text text-anchor="middle" x="276.25" y="-190.24" font-family="Times,serif" font-size="14.00">okhmeta:DataGathe...</text>
</g>
<!-- https://w3id.org/oseg/ont/okhmeta#DataGatheringTag&#45;&gt;https://w3id.org/oseg/ont/okhmeta#MetaTag -->
<g id="edge31" class="edge">
<title>https://w3id.org/oseg/ont/okhmeta#DataGatheringTag&#45;&gt;https://w3id.org/oseg/ont/okhmeta#MetaTag</title>
<path fill="none" stroke="black" d="M301.88,-209.97C353.99,-242.59 472.35,-316.65 530.89,-353.28"/>
<polygon fill="black" stroke="black" points="529.08,-356.28 539.42,-358.62 532.8,-350.35 529.08,-356.28"/>
<text text-anchor="middle" x="339.38" y="-270.43" font-family="Times,serif" font-size="14.00">okhmeta:hasMetaTag</text>
</g>
<!-- https://w3id.org/oseg/ont/okhmeta#DataGatheringTag&#45;&gt;https://w3id.org/oseg/ont/okhmeta#Tag -->
<g id="edge22" class="edge">
<title>https://w3id.org/oseg/ont/okhmeta#DataGatheringTag&#45;&gt;https://w3id.org/oseg/ont/okhmeta#Tag</title>
<path fill="none" stroke="black" d="M312.27,-209.56C371.94,-235.43 491.03,-287.08 555.16,-314.89"/>
<polygon fill="black" stroke="black" points="554.02,-318.21 564.59,-318.98 556.8,-311.79 554.02,-318.21"/>
<text text-anchor="middle" x="429.22" y="-266.02" font-family="Times,serif" font-size="14.00">a</text>
</g>
</g>
</svg>
