<?xml version="1.0" encoding="UTF-8" standalone="no"?>
<!DOCTYPE svg PUBLIC "-//W3C//DTD SVG 1.1//EN"
 "http://www.w3.org/Graphics/SVG/1.1/DTD/svg11.dtd">
<!-- Generated by graphviz version 2.43.0 (0)
 -->
<!-- Title: G Pages: 1 -->
<svg width="1225pt" height="864pt"
 viewBox="0.00 0.00 1225.00 864.00" xmlns="http://www.w3.org/2000/svg" xmlns:xlink="http://www.w3.org/1999/xlink">
<g id="graph0" class="graph" transform="scale(1 1) rotate(0) translate(4 860)">
<title>G</title>
<polygon fill="white" stroke="transparent" points="-4,4 -4,-860 1221,-860 1221,4 -4,4"/>
<!-- http://w3id.org/oseg/ont/okhmeta#Tag -->
<g id="node1" class="node">
<title>http://w3id.org/oseg/ont/okhmeta#Tag</title>
<ellipse fill="none" stroke="#e377c2" cx="456.21" cy="-348.72" rx="76.24" ry="16.03"/>
<text text-anchor="middle" x="456.21" y="-345.02" font-family="Times,serif" font-size="14.00">okhmeta:Tag</text>
</g>
<!-- http://www.w3.org/2004/02/skos/core#Concept -->
<g id="node2" class="node">
<title>http://www.w3.org/2004/02/skos/core#Concept</title>
<ellipse fill="none" stroke="#1f77b4" cx="694.1" cy="-174.96" rx="78.48" ry="16.03"/>
<text text-anchor="middle" x="694.1" y="-171.26" font-family="Times,serif" font-size="14.00">skos:Concept</text>
</g>
<!-- http://w3id.org/oseg/ont/okhmeta#Tag&#45;&gt;http://www.w3.org/2004/02/skos/core#Concept -->
<g id="edge5" class="edge">
<title>http://w3id.org/oseg/ont/okhmeta#Tag&#45;&gt;http://www.w3.org/2004/02/skos/core#Concept</title>
<path fill="none" stroke="black" d="M477.74,-332.99C520.36,-301.86 615.55,-232.34 664.21,-196.79"/>
<polygon fill="black" stroke="black" points="666.44,-199.5 672.45,-190.77 662.31,-193.84 666.44,-199.5"/>
<text text-anchor="middle" x="566.48" y="-268.69" font-family="Times,serif" font-size="14.00">a</text>
</g>
<!-- http://w3id.org/oseg/ont/okhmeta#MetaTag -->
<g id="node3" class="node">
<title>http://w3id.org/oseg/ont/okhmeta#MetaTag</title>
<ellipse fill="none" stroke="#e377c2" cx="419.89" cy="-295.54" rx="102.56" ry="16.03"/>
<text text-anchor="middle" x="419.89" y="-291.84" font-family="Times,serif" font-size="14.00">okhmeta:MetaTag</text>
</g>
<!-- http://w3id.org/oseg/ont/okhmeta#Tag&#45;&gt;http://w3id.org/oseg/ont/okhmeta#MetaTag -->
<g id="edge2" class="edge">
<title>http://w3id.org/oseg/ont/okhmeta#Tag&#45;&gt;http://w3id.org/oseg/ont/okhmeta#MetaTag</title>
<path fill="none" stroke="black" d="M452.12,-332.24C450.08,-328.39 447.56,-324.21 444.82,-320.1"/>
<polygon fill="black" stroke="black" points="447.63,-318.01 439,-311.88 441.92,-322.06 447.63,-318.01"/>
<text text-anchor="middle" x="525.47" y="-314.97" font-family="Times,serif" font-size="14.00">okhmeta:hasMetaTag</text>
</g>
<!-- http://www.w3.org/2004/02/skos/core#Collection -->
<g id="node5" class="node">
<title>http://www.w3.org/2004/02/skos/core#Collection</title>
<ellipse fill="none" stroke="#e377c2" cx="738.46" cy="-488.45" rx="87.86" ry="16.03"/>
<text text-anchor="middle" x="738.46" y="-484.75" font-family="Times,serif" font-size="14.00">skos:Collection</text>
</g>
<!-- http://w3id.org/oseg/ont/okhmeta#Tag&#45;&gt;http://www.w3.org/2004/02/skos/core#Collection -->
<g id="edge3" class="edge">
<title>http://w3id.org/oseg/ont/okhmeta#Tag&#45;&gt;http://www.w3.org/2004/02/skos/core#Collection</title>
<path fill="none" stroke="black" d="M486.42,-363.67C537.61,-389.02 641.4,-440.4 698.53,-468.68"/>
<polygon fill="black" stroke="black" points="697.1,-471.88 707.62,-473.18 700.21,-465.61 697.1,-471.88"/>
</g>
<!-- http://w3id.org/oseg/ont/okhmeta#MetaTag&#45;&gt;http://w3id.org/oseg/ont/okhmeta#Tag -->
<g id="edge22" class="edge">
<title>http://w3id.org/oseg/ont/okhmeta#MetaTag&#45;&gt;http://w3id.org/oseg/ont/okhmeta#Tag</title>
<path fill="none" stroke="black" d="M423.99,-312.03C426.07,-315.96 428.65,-320.22 431.45,-324.42"/>
<polygon fill="black" stroke="black" points="428.76,-326.67 437.41,-332.78 434.46,-322.61 428.76,-326.67"/>
<text text-anchor="middle" x="423.22" y="-322.02" font-family="Times,serif" font-size="14.00">a</text>
</g>
<!-- http://w3id.org/oseg/ont/okhmeta#MetaTag&#45;&gt;http://w3id.org/oseg/ont/okhmeta#MetaTag -->
<g id="edge20" class="edge">
<title>http://w3id.org/oseg/ont/okhmeta#MetaTag&#45;&gt;http://w3id.org/oseg/ont/okhmeta#MetaTag</title>
<path fill="none" stroke="black" d="M514.88,-301.76C530.04,-300.85 540.42,-298.78 540.42,-295.54 540.42,-293.09 534.46,-291.31 524.98,-290.19"/>
<polygon fill="black" stroke="black" points="525.15,-286.69 514.88,-289.33 524.55,-293.67 525.15,-286.69"/>
<text text-anchor="middle" x="617.42" y="-291.84" font-family="Times,serif" font-size="14.00">okhmeta:hasMetaTag</text>
</g>
<!-- http://spdx.org/rdf/terms#SpdxItem -->
<g id="node4" class="node">
<title>http://spdx.org/rdf/terms#SpdxItem</title>
<ellipse fill="none" stroke="#1f77b4" cx="777.94" cy="-788.76" rx="87.86" ry="16.03"/>
<text text-anchor="middle" x="777.94" y="-785.06" font-family="Times,serif" font-size="14.00">spdx:SpdxItem</text>
</g>
<!-- http://w3id.org/oseg/ont/okhmeta#HistoryTag -->
<g id="node6" class="node">
<title>http://w3id.org/oseg/ont/okhmeta#HistoryTag</title>
<ellipse fill="none" stroke="#e377c2" cx="293.46" cy="-616.1" rx="113.69" ry="16.03"/>
<text text-anchor="middle" x="293.46" y="-612.4" font-family="Times,serif" font-size="14.00">okhmeta:HistoryTag</text>
</g>
<!-- http://w3id.org/oseg/ont/okhmeta#HistoryTag&#45;&gt;http://w3id.org/oseg/ont/okhmeta#Tag -->
<g id="edge1" class="edge">
<title>http://w3id.org/oseg/ont/okhmeta#HistoryTag&#45;&gt;http://w3id.org/oseg/ont/okhmeta#Tag</title>
<path fill="none" stroke="black" d="M303.39,-599.77C330.86,-554.65 407.96,-427.99 440.94,-373.81"/>
<polygon fill="black" stroke="black" points="443.99,-375.53 446.2,-365.17 438.01,-371.89 443.99,-375.53"/>
<text text-anchor="middle" x="367.67" y="-490.59" font-family="Times,serif" font-size="14.00">a</text>
</g>
<!-- http://w3id.org/oseg/ont/okhmeta#HistoryTag&#45;&gt;http://w3id.org/oseg/ont/okhmeta#MetaTag -->
<g id="edge39" class="edge">
<title>http://w3id.org/oseg/ont/okhmeta#HistoryTag&#45;&gt;http://w3id.org/oseg/ont/okhmeta#MetaTag</title>
<path fill="none" stroke="black" d="M299.9,-599.76C320.45,-547.67 384.52,-385.22 409.64,-321.53"/>
<polygon fill="black" stroke="black" points="413.05,-322.43 413.46,-311.85 406.54,-319.87 413.05,-322.43"/>
<text text-anchor="middle" x="431.77" y="-464.44" font-family="Times,serif" font-size="14.00">okhmeta:hasMetaTag</text>
</g>
<!-- http://w3id.org/oseg/ont/okhmeta#ExtendedInfoTag -->
<g id="node7" class="node">
<title>http://w3id.org/oseg/ont/okhmeta#ExtendedInfoTag</title>
<ellipse fill="none" stroke="#e377c2" cx="122.03" cy="-413.78" rx="120.42" ry="16.03"/>
<text text-anchor="middle" x="122.03" y="-410.08" font-family="Times,serif" font-size="14.00">okhmeta:ExtendedI...</text>
</g>
<!-- http://w3id.org/oseg/ont/okhmeta#ExtendedInfoTag&#45;&gt;http://w3id.org/oseg/ont/okhmeta#Tag -->
<g id="edge23" class="edge">
<title>http://w3id.org/oseg/ont/okhmeta#ExtendedInfoTag&#45;&gt;http://w3id.org/oseg/ont/okhmeta#Tag</title>
<path fill="none" stroke="black" d="M190.87,-400.38C249.09,-389.04 331.99,-372.9 389.58,-361.69"/>
<polygon fill="black" stroke="black" points="390.52,-365.08 399.66,-359.73 389.18,-358.21 390.52,-365.08"/>
<text text-anchor="middle" x="285.72" y="-384.84" font-family="Times,serif" font-size="14.00">a</text>
</g>
<!-- http://w3id.org/oseg/ont/okhmeta#ExtendedInfoTag&#45;&gt;http://w3id.org/oseg/ont/okhmeta#MetaTag -->
<g id="edge13" class="edge">
<title>http://w3id.org/oseg/ont/okhmeta#ExtendedInfoTag&#45;&gt;http://w3id.org/oseg/ont/okhmeta#MetaTag</title>
<path fill="none" stroke="black" d="M160.97,-398.32C215.19,-376.8 313.37,-337.83 372,-314.55"/>
<polygon fill="black" stroke="black" points="373.41,-317.76 381.41,-310.82 370.83,-311.25 373.41,-317.76"/>
<text text-anchor="middle" x="189.49" y="-360.24" font-family="Times,serif" font-size="14.00">okhmeta:hasMetaTag</text>
</g>
<!-- http://w3id.org/oseg/ont/okhmeta#hasMetaTag -->
<g id="node8" class="node">
<title>http://w3id.org/oseg/ont/okhmeta#hasMetaTag</title>
<ellipse fill="none" stroke="#e377c2" cx="462.11" cy="-213.18" rx="120.42" ry="16.03"/>
<text text-anchor="middle" x="462.11" y="-209.48" font-family="Times,serif" font-size="14.00">okhmeta:hasMetaTag</text>
</g>
<!-- http://w3id.org/oseg/ont/okhmeta#hasMetaTag&#45;&gt;http://www.w3.org/2004/02/skos/core#Concept -->
<g id="edge6" class="edge">
<title>http://w3id.org/oseg/ont/okhmeta#hasMetaTag&#45;&gt;http://www.w3.org/2004/02/skos/core#Concept</title>
<path fill="none" stroke="black" d="M538.72,-200.56C565.75,-196.1 596.02,-191.12 622.62,-186.73"/>
<polygon fill="black" stroke="black" points="623.32,-190.17 632.61,-185.09 622.18,-183.26 623.32,-190.17"/>
<text text-anchor="middle" x="576.17" y="-182.45" font-family="Times,serif" font-size="14.00">a</text>
</g>
<!-- http://w3id.org/oseg/ont/okhmeta#hasMetaTag&#45;&gt;http://w3id.org/oseg/ont/okhmeta#MetaTag -->
<g id="edge12" class="edge">
<title>http://w3id.org/oseg/ont/okhmeta#hasMetaTag&#45;&gt;http://w3id.org/oseg/ont/okhmeta#MetaTag</title>
<path fill="none" stroke="black" d="M447.16,-229.64C440.01,-241.08 431.96,-256.53 426.29,-269.61"/>
<polygon fill="black" stroke="black" points="422.98,-268.46 422.47,-279.04 429.47,-271.09 422.98,-268.46"/>
<text text-anchor="middle" x="359.72" y="-253.42" font-family="Times,serif" font-size="14.00">okhmeta:hasMetaTag</text>
</g>
<!-- http://w3id.org/oseg/ont/okhmeta#hasMetaTag&#45;&gt;http://w3id.org/oseg/ont/okhmeta#MetaTag -->
<g id="edge36" class="edge">
<title>http://w3id.org/oseg/ont/okhmeta#hasMetaTag&#45;&gt;http://w3id.org/oseg/ont/okhmeta#MetaTag</title>
<path fill="none" stroke="black" d="M459.59,-229.53C455.26,-241.25 447.54,-257.19 439.96,-270.49"/>
<polygon fill="black" stroke="black" points="436.89,-268.81 434.78,-279.19 442.9,-272.39 436.89,-268.81"/>
<text text-anchor="middle" x="529.78" y="-238.81" font-family="Times,serif" font-size="14.00">schema:rangeIncludes</text>
</g>
<!-- http://www.w3.org/2004/02/skos/core#member -->
<g id="node10" class="node">
<title>http://www.w3.org/2004/02/skos/core#member</title>
<ellipse fill="none" stroke="#e377c2" cx="476.83" cy="-171.67" rx="79.39" ry="16.03"/>
<text text-anchor="middle" x="476.83" y="-167.97" font-family="Times,serif" font-size="14.00">skos:member</text>
</g>
<!-- http://w3id.org/oseg/ont/okhmeta#hasMetaTag&#45;&gt;http://www.w3.org/2004/02/skos/core#member -->
<g id="edge26" class="edge">
<title>http://w3id.org/oseg/ont/okhmeta#hasMetaTag&#45;&gt;http://www.w3.org/2004/02/skos/core#member</title>
<path fill="none" stroke="black" d="M467.93,-196.77C467.96,-196.68 467.99,-196.59 468.03,-196.5"/>
<polygon fill="black" stroke="black" points="471.01,-198.55 471.06,-187.95 464.42,-196.21 471.01,-198.55"/>
<text text-anchor="middle" x="414.98" y="-185.44" font-family="Times,serif" font-size="14.00">subPropertyOf</text>
</g>
<!-- http://w3id.org/oseg/ont/okhmeta#DocumentationTag -->
<g id="node9" class="node">
<title>http://w3id.org/oseg/ont/okhmeta#DocumentationTag</title>
<ellipse fill="none" stroke="#e377c2" cx="769.7" cy="-256.48" rx="125.32" ry="16.03"/>
<text text-anchor="middle" x="769.7" y="-252.78" font-family="Times,serif" font-size="14.00">okhmeta:Documenta...</text>
</g>
<!-- http://w3id.org/oseg/ont/okhmeta#DocumentationTag&#45;&gt;http://w3id.org/oseg/ont/okhmeta#Tag -->
<g id="edge25" class="edge">
<title>http://w3id.org/oseg/ont/okhmeta#DocumentationTag&#45;&gt;http://w3id.org/oseg/ont/okhmeta#Tag</title>
<path fill="none" stroke="black" d="M718.99,-271.4C661.98,-288.17 569.75,-315.31 511.09,-332.57"/>
<polygon fill="black" stroke="black" points="509.87,-329.28 501.26,-335.47 511.84,-336 509.87,-329.28"/>
<text text-anchor="middle" x="610.54" y="-305.79" font-family="Times,serif" font-size="14.00">a</text>
</g>
<!-- http://w3id.org/oseg/ont/okhmeta#DocumentationTag&#45;&gt;http://w3id.org/oseg/ont/okhmeta#MetaTag -->
<g id="edge24" class="edge">
<title>http://w3id.org/oseg/ont/okhmeta#DocumentationTag&#45;&gt;http://w3id.org/oseg/ont/okhmeta#MetaTag</title>
<path fill="none" stroke="black" d="M674.58,-267.1C624.7,-272.67 563.81,-279.47 514.08,-285.02"/>
<polygon fill="black" stroke="black" points="513.52,-281.57 503.97,-286.15 514.29,-288.52 513.52,-281.57"/>
<text text-anchor="middle" x="517.33" y="-264.86" font-family="Times,serif" font-size="14.00">okhmeta:hasMetaTag</text>
</g>
<!-- http://w3id.org/oseg/ont/okhmeta#DataTag -->
<g id="node11" class="node">
<title>http://w3id.org/oseg/ont/okhmeta#DataTag</title>
<ellipse fill="none" stroke="#e377c2" cx="464.49" cy="-16.6" rx="100.32" ry="16.03"/>
<text text-anchor="middle" x="464.49" y="-12.9" font-family="Times,serif" font-size="14.00">okhmeta:DataTag</text>
</g>
<!-- http://w3id.org/oseg/ont/okhmeta#DataTag&#45;&gt;http://w3id.org/oseg/ont/okhmeta#Tag -->
<g id="edge27" class="edge">
<title>http://w3id.org/oseg/ont/okhmeta#DataTag&#45;&gt;http://w3id.org/oseg/ont/okhmeta#Tag</title>
<path fill="none" stroke="black" d="M464.08,-33.07C462.74,-86.63 458.52,-256.21 456.88,-322.14"/>
<polygon fill="black" stroke="black" points="453.38,-322.07 456.63,-332.15 460.37,-322.24 453.38,-322.07"/>
<text text-anchor="middle" x="455.98" y="-166.41" font-family="Times,serif" font-size="14.00">a</text>
</g>
<!-- http://w3id.org/oseg/ont/okhmeta#DataTag&#45;&gt;http://w3id.org/oseg/ont/okhmeta#MetaTag -->
<g id="edge18" class="edge">
<title>http://w3id.org/oseg/ont/okhmeta#DataTag&#45;&gt;http://w3id.org/oseg/ont/okhmeta#MetaTag</title>
<path fill="none" stroke="black" d="M461.83,-33.21C454.38,-79.82 433.23,-212.11 424.14,-269"/>
<polygon fill="black" stroke="black" points="420.66,-268.59 422.53,-279.02 427.57,-269.69 420.66,-268.59"/>
<text text-anchor="middle" x="365.98" y="-139.91" font-family="Times,serif" font-size="14.00">okhmeta:hasMetaTag</text>
</g>
<!-- http://w3id.org/oseg/ont/okhmeta#DevelopmentTag -->
<g id="node12" class="node">
<title>http://w3id.org/oseg/ont/okhmeta#DevelopmentTag</title>
<ellipse fill="none" stroke="#e377c2" cx="187.62" cy="-106.22" rx="124.4" ry="16.03"/>
<text text-anchor="middle" x="187.62" y="-102.52" font-family="Times,serif" font-size="14.00">okhmeta:Developme...</text>
</g>
<!-- http://w3id.org/oseg/ont/okhmeta#DevelopmentTag&#45;&gt;http://w3id.org/oseg/ont/okhmeta#Tag -->
<g id="edge8" class="edge">
<title>http://w3id.org/oseg/ont/okhmeta#DevelopmentTag&#45;&gt;http://w3id.org/oseg/ont/okhmeta#Tag</title>
<path fill="none" stroke="black" d="M205.66,-122.51C252.31,-164.63 377.05,-277.25 430.89,-325.86"/>
<polygon fill="black" stroke="black" points="428.83,-328.72 438.6,-332.82 433.53,-323.52 428.83,-328.72"/>
<text text-anchor="middle" x="313.77" y="-227.98" font-family="Times,serif" font-size="14.00">a</text>
</g>
<!-- http://w3id.org/oseg/ont/okhmeta#DevelopmentTag&#45;&gt;http://w3id.org/oseg/ont/okhmeta#MetaTag -->
<g id="edge7" class="edge">
<title>http://w3id.org/oseg/ont/okhmeta#DevelopmentTag&#45;&gt;http://w3id.org/oseg/ont/okhmeta#MetaTag</title>
<path fill="none" stroke="black" d="M207.42,-122.36C248.82,-156.11 344.6,-234.18 392.12,-272.91"/>
<polygon fill="black" stroke="black" points="390.18,-275.84 400.14,-279.44 394.6,-270.41 390.18,-275.84"/>
<text text-anchor="middle" x="261.27" y="-186.44" font-family="Times,serif" font-size="14.00">okhmeta:hasMetaTag</text>
</g>
<!-- http://w3id.org/oseg/ont/oseg&#45;profiles#Iopa -->
<g id="node13" class="node">
<title>http://w3id.org/oseg/ont/oseg&#45;profiles#Iopa</title>
<ellipse fill="none" stroke="#e377c2" cx="1101.94" cy="-568.21" rx="80.72" ry="16.03"/>
<text text-anchor="middle" x="1101.94" y="-564.51" font-family="Times,serif" font-size="14.00">osegprof:Iopa</text>
</g>
<!-- http://w3id.org/oseg/ont/okhmeta#LegalTag -->
<g id="node14" class="node">
<title>http://w3id.org/oseg/ont/okhmeta#LegalTag</title>
<ellipse fill="none" stroke="#e377c2" cx="188.1" cy="-490.72" rx="103.89" ry="16.03"/>
<text text-anchor="middle" x="188.1" y="-487.02" font-family="Times,serif" font-size="14.00">okhmeta:LegalTag</text>
</g>
<!-- http://w3id.org/oseg/ont/okhmeta#LegalTag&#45;&gt;http://w3id.org/oseg/ont/okhmeta#Tag -->
<g id="edge9" class="edge">
<title>http://w3id.org/oseg/ont/okhmeta#LegalTag&#45;&gt;http://w3id.org/oseg/ont/okhmeta#Tag</title>
<path fill="none" stroke="black" d="M217.56,-475.12C266.55,-449.17 364.71,-397.18 418.62,-368.63"/>
<polygon fill="black" stroke="black" points="420.32,-371.69 427.52,-363.92 417.04,-365.51 420.32,-371.69"/>
<text text-anchor="middle" x="313.59" y="-425.67" font-family="Times,serif" font-size="14.00">a</text>
</g>
<!-- http://w3id.org/oseg/ont/okhmeta#LegalTag&#45;&gt;http://w3id.org/oseg/ont/okhmeta#MetaTag -->
<g id="edge40" class="edge">
<title>http://w3id.org/oseg/ont/okhmeta#LegalTag&#45;&gt;http://w3id.org/oseg/ont/okhmeta#MetaTag</title>
<path fill="none" stroke="black" d="M207.46,-474.41C248.81,-439.6 345.8,-357.93 393.06,-318.13"/>
<polygon fill="black" stroke="black" points="395.35,-320.78 400.75,-311.66 390.84,-315.43 395.35,-320.78"/>
<text text-anchor="middle" x="377.26" y="-400.07" font-family="Times,serif" font-size="14.00">okhmeta:hasMetaTag</text>
</g>
<!-- http://w3id.org/oseg/ont/okhmeta#DataGatheringTag -->
<g id="node15" class="node">
<title>http://w3id.org/oseg/ont/okhmeta#DataGatheringTag</title>
<ellipse fill="none" stroke="#e377c2" cx="450.49" cy="-656.89" rx="122.16" ry="16.03"/>
<text text-anchor="middle" x="450.49" y="-653.19" font-family="Times,serif" font-size="14.00">okhmeta:DataGathe...</text>
</g>
<!-- http://w3id.org/oseg/ont/okhmeta#DataGatheringTag&#45;&gt;http://w3id.org/oseg/ont/okhmeta#Tag -->
<g id="edge31" class="edge">
<title>http://w3id.org/oseg/ont/okhmeta#DataGatheringTag&#45;&gt;http://w3id.org/oseg/ont/okhmeta#Tag</title>
<path fill="none" stroke="black" d="M450.79,-640.32C451.73,-589.72 454.57,-436.93 455.72,-375.11"/>
<polygon fill="black" stroke="black" points="459.22,-375.06 455.91,-365 452.23,-374.93 459.22,-375.06"/>
<text text-anchor="middle" x="448.76" y="-511.51" font-family="Times,serif" font-size="14.00">a</text>
</g>
<!-- http://w3id.org/oseg/ont/okhmeta#DataGatheringTag&#45;&gt;http://w3id.org/oseg/ont/okhmeta#MetaTag -->
<g id="edge19" class="edge">
<title>http://w3id.org/oseg/ont/okhmeta#DataGatheringTag&#45;&gt;http://w3id.org/oseg/ont/okhmeta#MetaTag</title>
<path fill="none" stroke="black" d="M449.09,-640.42C444.25,-583.28 428.16,-393.18 422.17,-322.4"/>
<polygon fill="black" stroke="black" points="425.63,-321.77 421.29,-312.11 418.65,-322.37 425.63,-321.77"/>
<text text-anchor="middle" x="512.63" y="-485.21" font-family="Times,serif" font-size="14.00">okhmeta:hasMetaTag</text>
</g>
<!-- http://id.loc.gov/vocabulary/iso639&#45;1/en -->
<g id="node16" class="node">
<title>http://id.loc.gov/vocabulary/iso639&#45;1/en</title>
<ellipse fill="none" stroke="#e377c2" cx="1096.95" cy="-674.13" rx="45.01" ry="16.03"/>
<text text-anchor="middle" x="1096.95" y="-670.43" font-family="Times,serif" font-size="14.00">ns1:en</text>
</g>
<!-- http://w3id.org/oseg/ont/okhmeta#TransportationTag -->
<g id="node17" class="node">
<title>http://w3id.org/oseg/ont/okhmeta#TransportationTag</title>
<ellipse fill="none" stroke="#e377c2" cx="578.2" cy="-613.47" rx="118.17" ry="16.03"/>
<text text-anchor="middle" x="578.2" y="-609.77" font-family="Times,serif" font-size="14.00">okhmeta:Transport...</text>
</g>
<!-- http://w3id.org/oseg/ont/okhmeta#TransportationTag&#45;&gt;http://w3id.org/oseg/ont/okhmeta#Tag -->
<g id="edge10" class="edge">
<title>http://w3id.org/oseg/ont/okhmeta#TransportationTag&#45;&gt;http://w3id.org/oseg/ont/okhmeta#Tag</title>
<path fill="none" stroke="black" d="M570.57,-596.9C549.9,-552.04 492.71,-427.92 467.92,-374.13"/>
<polygon fill="black" stroke="black" points="471.05,-372.56 463.69,-364.94 464.69,-375.48 471.05,-372.56"/>
<text text-anchor="middle" x="514.75" y="-474.32" font-family="Times,serif" font-size="14.00">a</text>
</g>
<!-- http://w3id.org/oseg/ont/okhmeta#TransportationTag&#45;&gt;http://w3id.org/oseg/ont/okhmeta#MetaTag -->
<g id="edge45" class="edge">
<title>http://w3id.org/oseg/ont/okhmeta#TransportationTag&#45;&gt;http://w3id.org/oseg/ont/okhmeta#MetaTag</title>
<path fill="none" stroke="black" d="M569.91,-596.82C543.95,-544.67 464.04,-384.2 432.7,-321.26"/>
<polygon fill="black" stroke="black" points="435.69,-319.42 428.1,-312.02 429.42,-322.54 435.69,-319.42"/>
<text text-anchor="middle" x="462.8" y="-447.84" font-family="Times,serif" font-size="14.00">okhmeta:hasMetaTag</text>
</g>
<!-- http://w3id.org/oseg/ont/oseg&#45;profiles#robinVobruba -->
<g id="node18" class="node">
<title>http://w3id.org/oseg/ont/oseg&#45;profiles#robinVobruba</title>
<ellipse fill="none" stroke="#e377c2" cx="1000.23" cy="-766.8" rx="113.69" ry="16.03"/>
<text text-anchor="middle" x="1000.23" y="-763.1" font-family="Times,serif" font-size="14.00">osegprof:robinVob...</text>
</g>
<!-- http://w3id.org/oseg/ont/okhmeta -->
<g id="node19" class="node">
<title>http://w3id.org/oseg/ont/okhmeta</title>
<ellipse fill="none" stroke="#e377c2" cx="972.41" cy="-723.85" rx="76.24" ry="16.03"/>
<text text-anchor="middle" x="972.41" y="-720.15" font-family="Times,serif" font-size="14.00">ns2:okhmeta</text>
</g>
<!-- http://w3id.org/oseg/ont/okhmeta&#45;&gt;http://spdx.org/rdf/terms#SpdxItem -->
<g id="edge14" class="edge">
<title>http://w3id.org/oseg/ont/okhmeta&#45;&gt;http://spdx.org/rdf/terms#SpdxItem</title>
<path fill="none" stroke="black" d="M931.17,-737.61C901.77,-747.43 862,-760.7 830.35,-771.27"/>
<polygon fill="black" stroke="black" points="829.18,-767.97 820.8,-774.45 831.4,-774.61 829.18,-767.97"/>
<text text-anchor="middle" x="876.26" y="-758.24" font-family="Times,serif" font-size="14.00">a</text>
</g>
<!-- http://w3id.org/oseg/ont/okhmeta&#45;&gt;http://w3id.org/oseg/ont/oseg&#45;profiles#Iopa -->
<g id="edge28" class="edge">
<title>http://w3id.org/oseg/ont/okhmeta&#45;&gt;http://w3id.org/oseg/ont/oseg&#45;profiles#Iopa</title>
<path fill="none" stroke="black" d="M985.79,-707.78C1008.57,-680.4 1055.04,-624.56 1081.78,-592.43"/>
<polygon fill="black" stroke="black" points="1084.74,-594.35 1088.45,-584.42 1079.36,-589.87 1084.74,-594.35"/>
<text text-anchor="middle" x="968.29" y="-653.9" font-family="Times,serif" font-size="14.00">dcterms:publisher</text>
</g>
<!-- http://w3id.org/oseg/ont/okhmeta&#45;&gt;http://id.loc.gov/vocabulary/iso639&#45;1/en -->
<g id="edge32" class="edge">
<title>http://w3id.org/oseg/ont/okhmeta&#45;&gt;http://id.loc.gov/vocabulary/iso639&#45;1/en</title>
<path fill="none" stroke="black" d="M1008.43,-709.47C1023.66,-703.39 1041.46,-696.28 1057.08,-690.05"/>
<polygon fill="black" stroke="black" points="1058.5,-693.25 1066.49,-686.29 1055.9,-686.75 1058.5,-693.25"/>
<text text-anchor="middle" x="1097.26" y="-703.56" font-family="Times,serif" font-size="14.00">dcterms:language</text>
</g>
<!-- http://w3id.org/oseg/ont/okhmeta&#45;&gt;http://w3id.org/oseg/ont/oseg&#45;profiles#robinVobruba -->
<g id="edge34" class="edge">
<title>http://w3id.org/oseg/ont/okhmeta&#45;&gt;http://w3id.org/oseg/ont/oseg&#45;profiles#robinVobruba</title>
<path fill="none" stroke="black" d="M975.64,-740.38C975.91,-740.9 976.19,-741.43 976.48,-741.96"/>
<polygon fill="black" stroke="black" points="973.55,-743.88 981.73,-750.62 979.53,-740.25 973.55,-743.88"/>
<text text-anchor="middle" x="920.56" y="-744.97" font-family="Times,serif" font-size="14.00">schema:creator</text>
</g>
<!-- http://w3id.org/oseg/ont/okhmeta&#45;&gt;http://w3id.org/oseg/ont/oseg&#45;profiles#robinVobruba -->
<g id="edge35" class="edge">
<title>http://w3id.org/oseg/ont/okhmeta&#45;&gt;http://w3id.org/oseg/ont/oseg&#45;profiles#robinVobruba</title>
<path fill="none" stroke="black" d="M990.66,-739.66C991.11,-740.31 991.55,-740.98 991.98,-741.64"/>
<polygon fill="black" stroke="black" points="989.01,-743.5 997.06,-750.39 995.06,-739.99 989.01,-743.5"/>
<text text-anchor="middle" x="1048.82" y="-744.45" font-family="Times,serif" font-size="14.00">dcterms:creator</text>
</g>
<!-- http://w3id.org/oseg/ont/1.1.0/okh&#45;meta -->
<g id="node20" class="node">
<title>http://w3id.org/oseg/ont/1.1.0/okh&#45;meta</title>
<ellipse fill="none" stroke="#e377c2" cx="1137.19" cy="-839.96" rx="79.81" ry="16.03"/>
<text text-anchor="middle" x="1137.19" y="-836.26" font-family="Times,serif" font-size="14.00">ns3:okh&#45;meta</text>
</g>
<!-- http://w3id.org/oseg/ont/okhmeta&#45;&gt;http://w3id.org/oseg/ont/1.1.0/okh&#45;meta -->
<g id="edge38" class="edge">
<title>http://w3id.org/oseg/ont/okhmeta&#45;&gt;http://w3id.org/oseg/ont/1.1.0/okh&#45;meta</title>
<path fill="none" stroke="black" d="M994.64,-739.51C1023.51,-759.85 1074.05,-795.46 1106.55,-818.37"/>
<polygon fill="black" stroke="black" points="1104.61,-821.28 1114.8,-824.18 1108.64,-815.56 1104.61,-821.28"/>
<text text-anchor="middle" x="1102.09" y="-782.74" font-family="Times,serif" font-size="14.00">owl:versionIRI</text>
</g>
<!-- http://spdx.org/licenses/GPL&#45;3.0&#45;or&#45;later -->
<g id="node26" class="node">
<title>http://spdx.org/licenses/GPL&#45;3.0&#45;or&#45;later</title>
<ellipse fill="none" stroke="#e377c2" cx="909.23" cy="-683.18" rx="108.79" ry="16.03"/>
<text text-anchor="middle" x="909.23" y="-679.48" font-family="Times,serif" font-size="14.00">spdxl:GPL&#45;3.0&#45;or&#45;...</text>
</g>
<!-- http://w3id.org/oseg/ont/okhmeta&#45;&gt;http://spdx.org/licenses/GPL&#45;3.0&#45;or&#45;later -->
<g id="edge43" class="edge">
<title>http://w3id.org/oseg/ont/okhmeta&#45;&gt;http://spdx.org/licenses/GPL&#45;3.0&#45;or&#45;later</title>
<path fill="none" stroke="black" d="M948.17,-708.24C946.44,-707.13 944.69,-706 942.93,-704.87"/>
<polygon fill="black" stroke="black" points="944.45,-701.68 934.15,-699.21 940.66,-707.57 944.45,-701.68"/>
<text text-anchor="middle" x="869.55" y="-710.35" font-family="Times,serif" font-size="14.00">spdx:licenseDeclared</text>
</g>
<!-- http://w3id.org/oseg/ont/okhmeta#IdentificationTag -->
<g id="node21" class="node">
<title>http://w3id.org/oseg/ont/okhmeta#IdentificationTag</title>
<ellipse fill="none" stroke="#e377c2" cx="647.3" cy="-544.1" rx="109.7" ry="16.03"/>
<text text-anchor="middle" x="647.3" y="-540.4" font-family="Times,serif" font-size="14.00">okhmeta:Identific...</text>
</g>
<!-- http://w3id.org/oseg/ont/okhmeta#IdentificationTag&#45;&gt;http://w3id.org/oseg/ont/okhmeta#Tag -->
<g id="edge15" class="edge">
<title>http://w3id.org/oseg/ont/okhmeta#IdentificationTag&#45;&gt;http://w3id.org/oseg/ont/okhmeta#Tag</title>
<path fill="none" stroke="black" d="M631.34,-527.78C597.53,-493.21 518.61,-412.52 479.3,-372.33"/>
<polygon fill="black" stroke="black" points="481.49,-369.56 472,-364.86 476.49,-374.46 481.49,-369.56"/>
<text text-anchor="middle" x="550.82" y="-453.85" font-family="Times,serif" font-size="14.00">a</text>
</g>
<!-- http://w3id.org/oseg/ont/okhmeta#IdentificationTag&#45;&gt;http://w3id.org/oseg/ont/okhmeta#MetaTag -->
<g id="edge4" class="edge">
<title>http://w3id.org/oseg/ont/okhmeta#IdentificationTag&#45;&gt;http://w3id.org/oseg/ont/okhmeta#MetaTag</title>
<path fill="none" stroke="black" d="M632.38,-527.79C593.27,-485.04 487.63,-369.58 441.71,-319.39"/>
<polygon fill="black" stroke="black" points="444.2,-316.93 434.87,-311.91 439.04,-321.65 444.2,-316.93"/>
<text text-anchor="middle" x="460.04" y="-427.39" font-family="Times,serif" font-size="14.00">okhmeta:hasMetaTag</text>
</g>
<!-- http://w3id.org/oseg/ont/okhmeta#MakingTag -->
<g id="node22" class="node">
<title>http://w3id.org/oseg/ont/okhmeta#MakingTag</title>
<ellipse fill="none" stroke="#e377c2" cx="152.25" cy="-204.82" rx="113.69" ry="16.03"/>
<text text-anchor="middle" x="152.25" y="-201.12" font-family="Times,serif" font-size="14.00">okhmeta:MakingTag</text>
</g>
<!-- http://w3id.org/oseg/ont/okhmeta#MakingTag&#45;&gt;http://w3id.org/oseg/ont/okhmeta#Tag -->
<g id="edge46" class="edge">
<title>http://w3id.org/oseg/ont/okhmeta#MakingTag&#45;&gt;http://w3id.org/oseg/ont/okhmeta#Tag</title>
<path fill="none" stroke="black" d="M185.36,-220.49C241.3,-246.97 354.36,-300.5 415.22,-329.31"/>
<polygon fill="black" stroke="black" points="413.98,-332.6 424.52,-333.72 416.98,-326.27 413.98,-332.6"/>
<text text-anchor="middle" x="295.79" y="-278.7" font-family="Times,serif" font-size="14.00">a</text>
</g>
<!-- http://w3id.org/oseg/ont/okhmeta#MakingTag&#45;&gt;http://w3id.org/oseg/ont/okhmeta#MetaTag -->
<g id="edge37" class="edge">
<title>http://w3id.org/oseg/ont/okhmeta#MakingTag&#45;&gt;http://w3id.org/oseg/ont/okhmeta#MetaTag</title>
<path fill="none" stroke="black" d="M196.74,-219.9C243.43,-235.73 316.8,-260.6 366.56,-277.46"/>
<polygon fill="black" stroke="black" points="365.58,-280.83 376.18,-280.73 367.83,-274.2 365.58,-280.83"/>
<text text-anchor="middle" x="204.65" y="-252.48" font-family="Times,serif" font-size="14.00">okhmeta:hasMetaTag</text>
</g>
<!-- http://w3id.org/oseg/ont/okhmeta#AcademicTag -->
<g id="node23" class="node">
<title>http://w3id.org/oseg/ont/okhmeta#AcademicTag</title>
<ellipse fill="none" stroke="#e377c2" cx="655.47" cy="-60.03" rx="124.4" ry="16.03"/>
<text text-anchor="middle" x="655.47" y="-56.33" font-family="Times,serif" font-size="14.00">okhmeta:AcademicTag</text>
</g>
<!-- http://w3id.org/oseg/ont/okhmeta#AcademicTag&#45;&gt;http://w3id.org/oseg/ont/okhmeta#Tag -->
<g id="edge17" class="edge">
<title>http://w3id.org/oseg/ont/okhmeta#AcademicTag&#45;&gt;http://w3id.org/oseg/ont/okhmeta#Tag</title>
<path fill="none" stroke="black" d="M644.18,-76.38C610.89,-124.61 512.94,-266.53 473.23,-324.07"/>
<polygon fill="black" stroke="black" points="470.17,-322.33 467.37,-332.55 475.93,-326.31 470.17,-322.33"/>
<text text-anchor="middle" x="563.21" y="-189.02" font-family="Times,serif" font-size="14.00">a</text>
</g>
<!-- http://w3id.org/oseg/ont/okhmeta#AcademicTag&#45;&gt;http://w3id.org/oseg/ont/okhmeta#MetaTag -->
<g id="edge16" class="edge">
<title>http://w3id.org/oseg/ont/okhmeta#AcademicTag&#45;&gt;http://w3id.org/oseg/ont/okhmeta#MetaTag</title>
<path fill="none" stroke="black" d="M639.28,-76.22C598.43,-117.06 491.04,-224.41 443.32,-272.12"/>
<polygon fill="black" stroke="black" points="440.79,-269.7 436.2,-279.24 445.74,-274.65 440.79,-269.7"/>
<text text-anchor="middle" x="579.8" y="-162.97" font-family="Times,serif" font-size="14.00">okhmeta:hasMetaTag</text>
</g>
<!-- http://w3id.org/oseg/ont/okhmeta#PartsTag -->
<g id="node24" class="node">
<title>http://w3id.org/oseg/ont/okhmeta#PartsTag</title>
<ellipse fill="none" stroke="#e377c2" cx="259.59" cy="-555.22" rx="103.48" ry="16.03"/>
<text text-anchor="middle" x="259.59" y="-551.52" font-family="Times,serif" font-size="14.00">okhmeta:PartsTag</text>
</g>
<!-- http://w3id.org/oseg/ont/okhmeta#PartsTag&#45;&gt;http://w3id.org/oseg/ont/okhmeta#Tag -->
<g id="edge41" class="edge">
<title>http://w3id.org/oseg/ont/okhmeta#PartsTag&#45;&gt;http://w3id.org/oseg/ont/okhmeta#Tag</title>
<path fill="none" stroke="black" d="M275.01,-539.01C309.62,-502.67 393.54,-414.55 433.86,-372.2"/>
<polygon fill="black" stroke="black" points="436.5,-374.5 440.86,-364.85 431.43,-369.68 436.5,-374.5"/>
<text text-anchor="middle" x="349.94" y="-459.41" font-family="Times,serif" font-size="14.00">a</text>
</g>
<!-- http://w3id.org/oseg/ont/okhmeta#PartsTag&#45;&gt;http://w3id.org/oseg/ont/okhmeta#MetaTag -->
<g id="edge30" class="edge">
<title>http://w3id.org/oseg/ont/okhmeta#PartsTag&#45;&gt;http://w3id.org/oseg/ont/okhmeta#MetaTag</title>
<path fill="none" stroke="black" d="M269.61,-538.97C296.77,-494.98 371.89,-373.3 404.48,-320.51"/>
<polygon fill="black" stroke="black" points="407.59,-322.13 409.87,-311.78 401.64,-318.45 407.59,-322.13"/>
<text text-anchor="middle" x="260.05" y="-433.54" font-family="Times,serif" font-size="14.00">okhmeta:hasMetaTag</text>
</g>
<!-- http://w3id.org/oseg/ont/okhmeta#PhysicalTag -->
<g id="node25" class="node">
<title>http://w3id.org/oseg/ont/okhmeta#PhysicalTag</title>
<ellipse fill="none" stroke="#e377c2" cx="117.85" cy="-305.34" rx="118.17" ry="16.03"/>
<text text-anchor="middle" x="117.85" y="-301.64" font-family="Times,serif" font-size="14.00">okhmeta:PhysicalTag</text>
</g>
<!-- http://w3id.org/oseg/ont/okhmeta#PhysicalTag&#45;&gt;http://w3id.org/oseg/ont/okhmeta#Tag -->
<g id="edge42" class="edge">
<title>http://w3id.org/oseg/ont/okhmeta#PhysicalTag&#45;&gt;http://w3id.org/oseg/ont/okhmeta#Tag</title>
<path fill="none" stroke="black" d="M204.55,-316.45C258.88,-323.42 328.25,-332.31 380.39,-339"/>
<polygon fill="black" stroke="black" points="380.22,-342.51 390.58,-340.31 381.11,-335.56 380.22,-342.51"/>
<text text-anchor="middle" x="287.97" y="-331.53" font-family="Times,serif" font-size="14.00">a</text>
</g>
<!-- http://w3id.org/oseg/ont/okhmeta#PhysicalTag&#45;&gt;http://w3id.org/oseg/ont/okhmeta#MetaTag -->
<g id="edge29" class="edge">
<title>http://w3id.org/oseg/ont/okhmeta#PhysicalTag&#45;&gt;http://w3id.org/oseg/ont/okhmeta#MetaTag</title>
<path fill="none" stroke="black" d="M232.9,-301.61C257.81,-300.8 284.11,-299.95 308.86,-299.14"/>
<polygon fill="black" stroke="black" points="309.11,-302.64 318.99,-298.82 308.88,-295.64 309.11,-302.64"/>
<text text-anchor="middle" x="347.88" y="-304.18" font-family="Times,serif" font-size="14.00">okhmeta:hasMetaTag</text>
</g>
<!-- http://w3id.org/oseg/ont/okhmeta#BasicTag -->
<g id="node27" class="node">
<title>http://w3id.org/oseg/ont/okhmeta#BasicTag</title>
<ellipse fill="none" stroke="#e377c2" cx="731.69" cy="-368.42" rx="103.48" ry="16.03"/>
<text text-anchor="middle" x="731.69" y="-364.72" font-family="Times,serif" font-size="14.00">okhmeta:BasicTag</text>
</g>
<!-- http://w3id.org/oseg/ont/okhmeta#BasicTag&#45;&gt;http://w3id.org/oseg/ont/okhmeta#Tag -->
<g id="edge44" class="edge">
<title>http://w3id.org/oseg/ont/okhmeta#BasicTag&#45;&gt;http://w3id.org/oseg/ont/okhmeta#Tag</title>
<path fill="none" stroke="black" d="M637.65,-361.69C605.73,-359.41 570.3,-356.88 539.29,-354.66"/>
<polygon fill="black" stroke="black" points="539.18,-351.14 528.96,-353.92 538.68,-358.13 539.18,-351.14"/>
<text text-anchor="middle" x="583.97" y="-361.98" font-family="Times,serif" font-size="14.00">a</text>
</g>
<!-- http://w3id.org/oseg/ont/okhmeta#BasicTag&#45;&gt;http://w3id.org/oseg/ont/okhmeta#MetaTag -->
<g id="edge33" class="edge">
<title>http://w3id.org/oseg/ont/okhmeta#BasicTag&#45;&gt;http://w3id.org/oseg/ont/okhmeta#MetaTag</title>
<path fill="none" stroke="black" d="M673.77,-354.88C620.94,-342.53 542.86,-324.28 487.26,-311.29"/>
<polygon fill="black" stroke="black" points="488.03,-307.88 477.5,-309.01 486.44,-314.69 488.03,-307.88"/>
<text text-anchor="middle" x="657.52" y="-336.89" font-family="Times,serif" font-size="14.00">okhmeta:hasMetaTag</text>
</g>
<!-- http://w3id.org/oseg/ont/okhmeta#QualityTag -->
<g id="node28" class="node">
<title>http://w3id.org/oseg/ont/okhmeta#QualityTag</title>
<ellipse fill="none" stroke="#e377c2" cx="262.81" cy="-58.82" rx="113.27" ry="16.03"/>
<text text-anchor="middle" x="262.81" y="-55.12" font-family="Times,serif" font-size="14.00">okhmeta:QualityTag</text>
</g>
<!-- http://w3id.org/oseg/ont/okhmeta#QualityTag&#45;&gt;http://w3id.org/oseg/ont/okhmeta#Tag -->
<g id="edge21" class="edge">
<title>http://w3id.org/oseg/ont/okhmeta#QualityTag&#45;&gt;http://w3id.org/oseg/ont/okhmeta#Tag</title>
<path fill="none" stroke="black" d="M273.76,-75.24C306.07,-123.67 401.15,-266.19 439.7,-323.97"/>
<polygon fill="black" stroke="black" points="436.92,-326.11 445.38,-332.48 442.74,-322.22 436.92,-326.11"/>
<text text-anchor="middle" x="352.23" y="-188.4" font-family="Times,serif" font-size="14.00">a</text>
</g>
<!-- http://w3id.org/oseg/ont/okhmeta#QualityTag&#45;&gt;http://w3id.org/oseg/ont/okhmeta#MetaTag -->
<g id="edge11" class="edge">
<title>http://w3id.org/oseg/ont/okhmeta#QualityTag&#45;&gt;http://w3id.org/oseg/ont/okhmeta#MetaTag</title>
<path fill="none" stroke="black" d="M273.61,-75.09C300.62,-115.8 371.27,-222.28 403.47,-270.8"/>
<polygon fill="black" stroke="black" points="400.57,-272.76 409.02,-279.16 406.41,-268.89 400.57,-272.76"/>
<text text-anchor="middle" x="261.54" y="-161.75" font-family="Times,serif" font-size="14.00">okhmeta:hasMetaTag</text>
</g>
</g>
</svg>
