<?xml version="1.0" encoding="UTF-8" standalone="no"?>
<!DOCTYPE svg PUBLIC "-//W3C//DTD SVG 1.1//EN"
 "http://www.w3.org/Graphics/SVG/1.1/DTD/svg11.dtd">
<!-- Generated by graphviz version 2.43.0 (0)
 -->
<!-- Title: G Pages: 1 -->
<svg width="2112pt" height="1331pt"
 viewBox="0.00 0.00 2112.00 1331.00" xmlns="http://www.w3.org/2000/svg" xmlns:xlink="http://www.w3.org/1999/xlink">
<g id="graph0" class="graph" transform="scale(1 1) rotate(0) translate(4 1327)">
<title>G</title>
<polygon fill="white" stroke="transparent" points="-4,4 -4,-1327 2108,-1327 2108,4 -4,4"/>
<!-- http://spdx.org/rdf/terms#SpdxItem -->
<g id="node1" class="node">
<title>http://spdx.org/rdf/terms#SpdxItem</title>
<ellipse fill="none" stroke="#1f77b4" cx="1418.03" cy="-1244.52" rx="87.86" ry="16.03"/>
<text text-anchor="middle" x="1418.03" y="-1240.82" font-family="Times,serif" font-size="14.00">spdx:SpdxItem</text>
</g>
<!-- http://w3id.org/oseg/ont/otrl#ODRL -->
<g id="node2" class="node">
<title>http://w3id.org/oseg/ont/otrl#ODRL</title>
<ellipse fill="none" stroke="#e377c2" cx="1287.64" cy="-450.07" rx="62.87" ry="16.03"/>
<text text-anchor="middle" x="1287.64" y="-446.37" font-family="Times,serif" font-size="14.00">otrl:ODRL</text>
</g>
<!-- http://www.w3.org/2002/07/owl#Ontology -->
<g id="node3" class="node">
<title>http://www.w3.org/2002/07/owl#Ontology</title>
<ellipse fill="none" stroke="#1f77b4" cx="1624.77" cy="-1306.72" rx="77.56" ry="16.03"/>
<text text-anchor="middle" x="1624.77" y="-1303.02" font-family="Times,serif" font-size="14.00">owl:Ontology</text>
</g>
<!-- http://w3id.org/oseg/ont/otrl#OTRL -->
<g id="node4" class="node">
<title>http://w3id.org/oseg/ont/otrl#OTRL</title>
<ellipse fill="none" stroke="#e377c2" cx="788.85" cy="-734.66" rx="60.62" ry="16.03"/>
<text text-anchor="middle" x="788.85" y="-730.96" font-family="Times,serif" font-size="14.00">otrl:OTRL</text>
</g>
<!-- http://www.w3.org/2002/07/owl#DatatypeProperty -->
<g id="node5" class="node">
<title>http://www.w3.org/2002/07/owl#DatatypeProperty</title>
<ellipse fill="none" stroke="#1f77b4" cx="996.92" cy="-486.4" rx="123.07" ry="16.03"/>
<text text-anchor="middle" x="996.92" y="-482.7" font-family="Times,serif" font-size="14.00">owl:DatatypeProperty</text>
</g>
<!-- http://w3id.org/oseg/ont/otrl#goal -->
<g id="node6" class="node">
<title>http://w3id.org/oseg/ont/otrl#goal</title>
<ellipse fill="none" stroke="#e377c2" cx="1035.31" cy="-578.47" rx="54.39" ry="16.03"/>
<text text-anchor="middle" x="1035.31" y="-574.77" font-family="Times,serif" font-size="14.00">otrl:goal</text>
</g>
<!-- http://w3id.org/oseg/ont/otrl#goal&#45;&gt;http://w3id.org/oseg/ont/otrl#ODRL -->
<g id="edge23" class="edge">
<title>http://w3id.org/oseg/ont/otrl#goal&#45;&gt;http://w3id.org/oseg/ont/otrl#ODRL</title>
<path fill="none" stroke="black" d="M1063.28,-564.24C1108.7,-541.13 1198.55,-495.4 1249.7,-469.38"/>
<polygon fill="black" stroke="black" points="1251.45,-472.42 1258.77,-464.76 1248.28,-466.18 1251.45,-472.42"/>
<text text-anchor="middle" x="1234.49" y="-520.61" font-family="Times,serif" font-size="14.00">dcam:domainIncludes</text>
</g>
<!-- http://w3id.org/oseg/ont/otrl#goal&#45;&gt;http://w3id.org/oseg/ont/otrl#OTRL -->
<g id="edge18" class="edge">
<title>http://w3id.org/oseg/ont/otrl#goal&#45;&gt;http://w3id.org/oseg/ont/otrl#OTRL</title>
<path fill="none" stroke="black" d="M1011.68,-593.45C967.35,-621.54 871.67,-682.17 821.33,-714.08"/>
<polygon fill="black" stroke="black" points="819.34,-711.19 812.77,-719.5 823.09,-717.11 819.34,-711.19"/>
<text text-anchor="middle" x="838.5" y="-657.56" font-family="Times,serif" font-size="14.00">dcam:domainIncludes</text>
</g>
<!-- http://w3id.org/oseg/ont/otrl#goal&#45;&gt;http://www.w3.org/2002/07/owl#DatatypeProperty -->
<g id="edge1" class="edge">
<title>http://w3id.org/oseg/ont/otrl#goal&#45;&gt;http://www.w3.org/2002/07/owl#DatatypeProperty</title>
<path fill="none" stroke="black" d="M1028.45,-562.01C1022.66,-548.13 1014.28,-528.03 1007.62,-512.05"/>
<polygon fill="black" stroke="black" points="1010.8,-510.6 1003.73,-502.72 1004.34,-513.29 1010.8,-510.6"/>
<text text-anchor="middle" x="1013.53" y="-540.83" font-family="Times,serif" font-size="14.00">a</text>
</g>
<!-- http://www.w3.org/1999/02/22&#45;rdf&#45;syntax&#45;ns#langString -->
<g id="node10" class="node">
<title>http://www.w3.org/1999/02/22&#45;rdf&#45;syntax&#45;ns#langString</title>
<ellipse fill="none" stroke="#e377c2" cx="1155.27" cy="-724.41" rx="83.38" ry="16.03"/>
<text text-anchor="middle" x="1155.27" y="-720.71" font-family="Times,serif" font-size="14.00">rdf:langString</text>
</g>
<!-- http://w3id.org/oseg/ont/otrl#goal&#45;&gt;http://www.w3.org/1999/02/22&#45;rdf&#45;syntax&#45;ns#langString -->
<g id="edge6" class="edge">
<title>http://w3id.org/oseg/ont/otrl#goal&#45;&gt;http://www.w3.org/1999/02/22&#45;rdf&#45;syntax&#45;ns#langString</title>
<path fill="none" stroke="black" d="M1048.38,-594.37C1069.36,-619.89 1110.7,-670.19 1135.37,-700.2"/>
<polygon fill="black" stroke="black" points="1132.8,-702.58 1141.85,-708.09 1138.21,-698.14 1132.8,-702.58"/>
<text text-anchor="middle" x="1070.87" y="-651.08" font-family="Times,serif" font-size="14.00">range</text>
</g>
<!-- http://w3id.org/oseg/ont/otrl#OTRL4 -->
<g id="node7" class="node">
<title>http://w3id.org/oseg/ont/otrl#OTRL4</title>
<ellipse fill="none" stroke="#e377c2" cx="649.09" cy="-941.34" rx="67.35" ry="16.03"/>
<text text-anchor="middle" x="649.09" y="-937.64" font-family="Times,serif" font-size="14.00">otrl:OTRL4</text>
</g>
<!-- http://w3id.org/oseg/ont/otrl#OTRL4&#45;&gt;http://w3id.org/oseg/ont/otrl#OTRL -->
<g id="edge2" class="edge">
<title>http://w3id.org/oseg/ont/otrl#OTRL4&#45;&gt;http://w3id.org/oseg/ont/otrl#OTRL</title>
<path fill="none" stroke="black" d="M660.06,-925.12C684.45,-889.05 743.31,-802.01 772.24,-759.23"/>
<polygon fill="black" stroke="black" points="775.23,-761.05 777.93,-750.8 769.43,-757.13 775.23,-761.05"/>
<text text-anchor="middle" x="711.65" y="-845.98" font-family="Times,serif" font-size="14.00">a</text>
</g>
<!-- http://w3id.org/oseg/ont/otrl#OTRL6 -->
<g id="node8" class="node">
<title>http://w3id.org/oseg/ont/otrl#OTRL6</title>
<ellipse fill="none" stroke="#e377c2" cx="851.56" cy="-1008.35" rx="67.35" ry="16.03"/>
<text text-anchor="middle" x="851.56" y="-1004.65" font-family="Times,serif" font-size="14.00">otrl:OTRL6</text>
</g>
<!-- http://w3id.org/oseg/ont/otrl#OTRL6&#45;&gt;http://w3id.org/oseg/ont/otrl#OTRL -->
<g id="edge3" class="edge">
<title>http://w3id.org/oseg/ont/otrl#OTRL6&#45;&gt;http://w3id.org/oseg/ont/otrl#OTRL</title>
<path fill="none" stroke="black" d="M847.83,-992.05C837.37,-946.42 807.75,-817.14 794.91,-761.1"/>
<polygon fill="black" stroke="black" points="798.29,-760.19 792.64,-751.22 791.46,-761.75 798.29,-760.19"/>
<text text-anchor="middle" x="816.87" y="-880.37" font-family="Times,serif" font-size="14.00">a</text>
</g>
<!-- http://id.loc.gov/vocabulary/iso639&#45;1/en -->
<g id="node9" class="node">
<title>http://id.loc.gov/vocabulary/iso639&#45;1/en</title>
<ellipse fill="none" stroke="#e377c2" cx="1570.63" cy="-947.11" rx="45.01" ry="16.03"/>
<text text-anchor="middle" x="1570.63" y="-943.41" font-family="Times,serif" font-size="14.00">ns1:en</text>
</g>
<!-- http://w3id.org/oseg/ont/oseg&#45;profiles#martinHaeuer -->
<g id="node11" class="node">
<title>http://w3id.org/oseg/ont/oseg&#45;profiles#martinHaeuer</title>
<ellipse fill="none" stroke="#e377c2" cx="1536.11" cy="-1157.4" rx="116.85" ry="16.03"/>
<text text-anchor="middle" x="1536.11" y="-1153.7" font-family="Times,serif" font-size="14.00">osegprof:martinHa...</text>
</g>
<!-- http://w3id.org/oseg/ont/otrl#OTRL1 -->
<g id="node12" class="node">
<title>http://w3id.org/oseg/ont/otrl#OTRL1</title>
<ellipse fill="none" stroke="#e377c2" cx="525.77" cy="-801.46" rx="67.35" ry="16.03"/>
<text text-anchor="middle" x="525.77" y="-797.76" font-family="Times,serif" font-size="14.00">otrl:OTRL1</text>
</g>
<!-- http://w3id.org/oseg/ont/otrl#OTRL1&#45;&gt;http://w3id.org/oseg/ont/otrl#OTRL -->
<g id="edge40" class="edge">
<title>http://w3id.org/oseg/ont/otrl#OTRL1&#45;&gt;http://w3id.org/oseg/ont/otrl#OTRL</title>
<path fill="none" stroke="black" d="M572.2,-789.67C617.64,-778.13 686.84,-760.56 734.75,-748.4"/>
<polygon fill="black" stroke="black" points="735.8,-751.74 744.64,-745.89 734.08,-744.96 735.8,-751.74"/>
<text text-anchor="middle" x="648.97" y="-772.83" font-family="Times,serif" font-size="14.00">a</text>
</g>
<!-- http://w3id.org/oseg/ont/otrl -->
<g id="node13" class="node">
<title>http://w3id.org/oseg/ont/otrl</title>
<ellipse fill="none" stroke="#e377c2" cx="1582.27" cy="-1116.84" rx="50.82" ry="16.03"/>
<text text-anchor="middle" x="1582.27" y="-1113.14" font-family="Times,serif" font-size="14.00">ns2:otrl</text>
</g>
<!-- http://w3id.org/oseg/ont/otrl&#45;&gt;http://spdx.org/rdf/terms#SpdxItem -->
<g id="edge9" class="edge">
<title>http://w3id.org/oseg/ont/otrl&#45;&gt;http://spdx.org/rdf/terms#SpdxItem</title>
<path fill="none" stroke="black" d="M1562.78,-1131.99C1533.96,-1154.4 1479.78,-1196.52 1446.5,-1222.39"/>
<polygon fill="black" stroke="black" points="1444.26,-1219.69 1438.52,-1228.6 1448.56,-1225.22 1444.26,-1219.69"/>
<text text-anchor="middle" x="1500.14" y="-1180.99" font-family="Times,serif" font-size="14.00">a</text>
</g>
<!-- http://w3id.org/oseg/ont/otrl&#45;&gt;http://www.w3.org/2002/07/owl#Ontology -->
<g id="edge29" class="edge">
<title>http://w3id.org/oseg/ont/otrl&#45;&gt;http://www.w3.org/2002/07/owl#Ontology</title>
<path fill="none" stroke="black" d="M1585.97,-1133.36C1593.36,-1166.41 1610.04,-1240.89 1618.93,-1280.61"/>
<polygon fill="black" stroke="black" points="1615.52,-1281.38 1621.12,-1290.38 1622.35,-1279.85 1615.52,-1281.38"/>
<text text-anchor="middle" x="1597.95" y="-1210.79" font-family="Times,serif" font-size="14.00">a</text>
</g>
<!-- http://w3id.org/oseg/ont/otrl&#45;&gt;http://id.loc.gov/vocabulary/iso639&#45;1/en -->
<g id="edge4" class="edge">
<title>http://w3id.org/oseg/ont/otrl&#45;&gt;http://id.loc.gov/vocabulary/iso639&#45;1/en</title>
<path fill="none" stroke="black" d="M1581.15,-1100.57C1579.14,-1071.24 1574.89,-1009.28 1572.45,-973.71"/>
<polygon fill="black" stroke="black" points="1575.94,-973.32 1571.76,-963.59 1568.95,-973.8 1575.94,-973.32"/>
<text text-anchor="middle" x="1641.3" y="-1040.94" font-family="Times,serif" font-size="14.00">dcterms:language</text>
</g>
<!-- http://w3id.org/oseg/ont/otrl&#45;&gt;http://w3id.org/oseg/ont/oseg&#45;profiles#martinHaeuer -->
<g id="edge7" class="edge">
<title>http://w3id.org/oseg/ont/otrl&#45;&gt;http://w3id.org/oseg/ont/oseg&#45;profiles#martinHaeuer</title>
<path fill="none" stroke="black" d="M1556.09,-1130.87C1555.03,-1131.78 1553.98,-1132.71 1552.94,-1133.65"/>
<polygon fill="black" stroke="black" points="1550.2,-1131.43 1545.48,-1140.91 1555.09,-1136.44 1550.2,-1131.43"/>
<text text-anchor="middle" x="1499.02" y="-1121.06" font-family="Times,serif" font-size="14.00">schema:creator</text>
</g>
<!-- http://w3id.org/oseg/ont/otrl&#45;&gt;http://w3id.org/oseg/ont/oseg&#45;profiles#martinHaeuer -->
<g id="edge27" class="edge">
<title>http://w3id.org/oseg/ont/otrl&#45;&gt;http://w3id.org/oseg/ont/oseg&#45;profiles#martinHaeuer</title>
<path fill="none" stroke="black" d="M1573.23,-1132.98C1572.73,-1133.5 1572.23,-1134.03 1571.71,-1134.56"/>
<polygon fill="black" stroke="black" points="1569.28,-1132.04 1564.45,-1141.48 1574.11,-1137.11 1569.28,-1132.04"/>
<text text-anchor="middle" x="1629.97" y="-1137.57" font-family="Times,serif" font-size="14.00">dcterms:creator</text>
</g>
<!-- http://w3id.org/oseg/ont/oseg&#45;profiles#robinVobruba -->
<g id="node14" class="node">
<title>http://w3id.org/oseg/ont/oseg&#45;profiles#robinVobruba</title>
<ellipse fill="none" stroke="#e377c2" cx="1799.93" cy="-1210.03" rx="113.69" ry="16.03"/>
<text text-anchor="middle" x="1799.93" y="-1206.33" font-family="Times,serif" font-size="14.00">osegprof:robinVob...</text>
</g>
<!-- http://w3id.org/oseg/ont/otrl&#45;&gt;http://w3id.org/oseg/ont/oseg&#45;profiles#robinVobruba -->
<g id="edge10" class="edge">
<title>http://w3id.org/oseg/ont/otrl&#45;&gt;http://w3id.org/oseg/ont/oseg&#45;profiles#robinVobruba</title>
<path fill="none" stroke="black" d="M1605.06,-1131.45C1637.22,-1147.84 1696.95,-1173.96 1741.85,-1191.66"/>
<polygon fill="black" stroke="black" points="1740.6,-1194.93 1751.19,-1195.31 1743.15,-1188.41 1740.6,-1194.93"/>
<text text-anchor="middle" x="1730.95" y="-1165.36" font-family="Times,serif" font-size="14.00">dcterms:creator</text>
</g>
<!-- http://w3id.org/oseg/ont/otrl&#45;&gt;http://w3id.org/oseg/ont/oseg&#45;profiles#robinVobruba -->
<g id="edge33" class="edge">
<title>http://w3id.org/oseg/ont/otrl&#45;&gt;http://w3id.org/oseg/ont/oseg&#45;profiles#robinVobruba</title>
<path fill="none" stroke="black" d="M1620.74,-1127.66C1661.78,-1142.97 1726.15,-1170.53 1765.55,-1189.66"/>
<polygon fill="black" stroke="black" points="1764.01,-1192.8 1774.52,-1194.09 1767.1,-1186.52 1764.01,-1192.8"/>
<text text-anchor="middle" x="1748.65" y="-1147.46" font-family="Times,serif" font-size="14.00">schema:creator</text>
</g>
<!-- http://w3id.org/oseg/ont/1.1.0/otrl -->
<g id="node18" class="node">
<title>http://w3id.org/oseg/ont/1.1.0/otrl</title>
<ellipse fill="none" stroke="#e377c2" cx="1419.17" cy="-1046.52" rx="50.82" ry="16.03"/>
<text text-anchor="middle" x="1419.17" y="-1042.82" font-family="Times,serif" font-size="14.00">ns3:otrl</text>
</g>
<!-- http://w3id.org/oseg/ont/otrl&#45;&gt;http://w3id.org/oseg/ont/1.1.0/otrl -->
<g id="edge16" class="edge">
<title>http://w3id.org/oseg/ont/otrl&#45;&gt;http://w3id.org/oseg/ont/1.1.0/otrl</title>
<path fill="none" stroke="black" d="M1551.59,-1103.61C1525.39,-1092.32 1487.53,-1075.99 1459,-1063.69"/>
<polygon fill="black" stroke="black" points="1460.28,-1060.43 1449.71,-1059.69 1457.5,-1066.86 1460.28,-1060.43"/>
<text text-anchor="middle" x="1453.79" y="-1087.45" font-family="Times,serif" font-size="14.00">owl:versionIRI</text>
</g>
<!-- http://w3id.org/oseg/ont/oseg&#45;profiles#Iopa -->
<g id="node22" class="node">
<title>http://w3id.org/oseg/ont/oseg&#45;profiles#Iopa</title>
<ellipse fill="none" stroke="#e377c2" cx="1759.61" cy="-1014.56" rx="80.72" ry="16.03"/>
<text text-anchor="middle" x="1759.61" y="-1010.86" font-family="Times,serif" font-size="14.00">osegprof:Iopa</text>
</g>
<!-- http://w3id.org/oseg/ont/otrl&#45;&gt;http://w3id.org/oseg/ont/oseg&#45;profiles#Iopa -->
<g id="edge25" class="edge">
<title>http://w3id.org/oseg/ont/otrl&#45;&gt;http://w3id.org/oseg/ont/oseg&#45;profiles#Iopa</title>
<path fill="none" stroke="black" d="M1607.3,-1102.4C1637.8,-1084.81 1689.53,-1054.97 1724.13,-1035.02"/>
<polygon fill="black" stroke="black" points="1726.05,-1037.95 1732.97,-1029.92 1722.56,-1031.89 1726.05,-1037.95"/>
<text text-anchor="middle" x="1731.22" y="-1072.51" font-family="Times,serif" font-size="14.00">dcterms:publisher</text>
</g>
<!-- http://spdx.org/licenses/GPL&#45;3.0&#45;or&#45;later -->
<g id="node25" class="node">
<title>http://spdx.org/licenses/GPL&#45;3.0&#45;or&#45;later</title>
<ellipse fill="none" stroke="#e377c2" cx="1594.55" cy="-1069.39" rx="108.79" ry="16.03"/>
<text text-anchor="middle" x="1594.55" y="-1065.69" font-family="Times,serif" font-size="14.00">spdxl:GPL&#45;3.0&#45;or&#45;...</text>
</g>
<!-- http://w3id.org/oseg/ont/otrl&#45;&gt;http://spdx.org/licenses/GPL&#45;3.0&#45;or&#45;later -->
<g id="edge32" class="edge">
<title>http://w3id.org/oseg/ont/otrl&#45;&gt;http://spdx.org/licenses/GPL&#45;3.0&#45;or&#45;later</title>
<path fill="none" stroke="black" d="M1586.5,-1100.51C1586.88,-1099.03 1587.27,-1097.52 1587.67,-1095.98"/>
<polygon fill="black" stroke="black" points="1591.16,-1096.47 1590.28,-1085.91 1584.38,-1094.71 1591.16,-1096.47"/>
<text text-anchor="middle" x="1663.08" y="-1087.05" font-family="Times,serif" font-size="14.00">spdx:licenseDeclared</text>
</g>
<!-- http://w3id.org/oseg/ont/otrl#Odrl4 -->
<g id="node15" class="node">
<title>http://w3id.org/oseg/ont/otrl#Odrl4</title>
<ellipse fill="none" stroke="#e377c2" cx="1217.47" cy="-63.22" rx="61.54" ry="16.03"/>
<text text-anchor="middle" x="1217.47" y="-59.52" font-family="Times,serif" font-size="14.00">otrl:Odrl4</text>
</g>
<!-- http://w3id.org/oseg/ont/otrl#ODRL4 -->
<g id="node20" class="node">
<title>http://w3id.org/oseg/ont/otrl#ODRL4</title>
<ellipse fill="none" stroke="#e377c2" cx="1310.58" cy="-214.25" rx="69.09" ry="16.03"/>
<text text-anchor="middle" x="1310.58" y="-210.55" font-family="Times,serif" font-size="14.00">otrl:ODRL4</text>
</g>
<!-- http://w3id.org/oseg/ont/otrl#Odrl4&#45;&gt;http://w3id.org/oseg/ont/otrl#ODRL4 -->
<g id="edge35" class="edge">
<title>http://w3id.org/oseg/ont/otrl#Odrl4&#45;&gt;http://w3id.org/oseg/ont/otrl#ODRL4</title>
<path fill="none" stroke="black" d="M1227.43,-79.38C1243.66,-105.7 1275.9,-158 1295.12,-189.17"/>
<polygon fill="black" stroke="black" points="1292.18,-191.07 1300.4,-197.74 1298.14,-187.39 1292.18,-191.07"/>
<text text-anchor="middle" x="1181.28" y="-138.08" font-family="Times,serif" font-size="14.00">schema:supersededBy</text>
</g>
<!-- http://w3id.org/oseg/ont/otrl#ODRL3 -->
<g id="node16" class="node">
<title>http://w3id.org/oseg/ont/otrl#ODRL3</title>
<ellipse fill="none" stroke="#e377c2" cx="1485.13" cy="-288.95" rx="69.09" ry="16.03"/>
<text text-anchor="middle" x="1485.13" y="-285.25" font-family="Times,serif" font-size="14.00">otrl:ODRL3</text>
</g>
<!-- http://w3id.org/oseg/ont/otrl#ODRL3&#45;&gt;http://w3id.org/oseg/ont/otrl#ODRL -->
<g id="edge22" class="edge">
<title>http://w3id.org/oseg/ont/otrl#ODRL3&#45;&gt;http://w3id.org/oseg/ont/otrl#ODRL</title>
<path fill="none" stroke="black" d="M1465.83,-304.7C1430.42,-333.59 1354.99,-395.13 1314.56,-428.11"/>
<polygon fill="black" stroke="black" points="1312.26,-425.47 1306.73,-434.5 1316.69,-430.89 1312.26,-425.47"/>
<text text-anchor="middle" x="1385.7" y="-370.2" font-family="Times,serif" font-size="14.00">a</text>
</g>
<!-- http://w3id.org/oseg/ont/otrl#ODRL1 -->
<g id="node17" class="node">
<title>http://w3id.org/oseg/ont/otrl#ODRL1</title>
<ellipse fill="none" stroke="#e377c2" cx="1535.5" cy="-428.25" rx="69.09" ry="16.03"/>
<text text-anchor="middle" x="1535.5" y="-424.55" font-family="Times,serif" font-size="14.00">otrl:ODRL1</text>
</g>
<!-- http://w3id.org/oseg/ont/otrl#ODRL1&#45;&gt;http://w3id.org/oseg/ont/otrl#ODRL -->
<g id="edge15" class="edge">
<title>http://w3id.org/oseg/ont/otrl#ODRL1&#45;&gt;http://w3id.org/oseg/ont/otrl#ODRL</title>
<path fill="none" stroke="black" d="M1470.38,-433.98C1435.65,-437.04 1392.91,-440.8 1357.5,-443.92"/>
<polygon fill="black" stroke="black" points="1356.89,-440.46 1347.24,-444.82 1357.51,-447.43 1356.89,-440.46"/>
<text text-anchor="middle" x="1409.44" y="-442.75" font-family="Times,serif" font-size="14.00">a</text>
</g>
<!-- http://w3id.org/oseg/ont/otrl#ODRL3Star -->
<g id="node19" class="node">
<title>http://w3id.org/oseg/ont/otrl#ODRL3Star</title>
<ellipse fill="none" stroke="#e377c2" cx="1301.04" cy="-408.12" rx="90.52" ry="16.03"/>
<text text-anchor="middle" x="1301.04" y="-404.42" font-family="Times,serif" font-size="14.00">otrl:ODRL3Star</text>
</g>
<!-- http://w3id.org/oseg/ont/otrl#ODRL3Star&#45;&gt;http://w3id.org/oseg/ont/otrl#ODRL -->
<g id="edge17" class="edge">
<title>http://w3id.org/oseg/ont/otrl#ODRL3Star&#45;&gt;http://w3id.org/oseg/ont/otrl#ODRL</title>
<path fill="none" stroke="black" d="M1295.75,-424.7C1295.72,-424.79 1295.69,-424.89 1295.66,-424.98"/>
<polygon fill="black" stroke="black" points="1292.61,-423.02 1292.9,-433.61 1299.28,-425.15 1292.61,-423.02"/>
<text text-anchor="middle" x="1291.2" y="-428.64" font-family="Times,serif" font-size="14.00">a</text>
</g>
<!-- http://w3id.org/oseg/ont/otrl#ODRL4&#45;&gt;http://w3id.org/oseg/ont/otrl#ODRL -->
<g id="edge19" class="edge">
<title>http://w3id.org/oseg/ont/otrl#ODRL4&#45;&gt;http://w3id.org/oseg/ont/otrl#ODRL</title>
<path fill="none" stroke="black" d="M1308.97,-230.83C1305.05,-271.09 1295.02,-374.26 1290.24,-423.35"/>
<polygon fill="black" stroke="black" points="1286.74,-423.22 1289.25,-433.51 1293.71,-423.89 1286.74,-423.22"/>
<text text-anchor="middle" x="1295.1" y="-330.89" font-family="Times,serif" font-size="14.00">a</text>
</g>
<!-- http://w3id.org/oseg/ont/otrl#ODRL2 -->
<g id="node21" class="node">
<title>http://w3id.org/oseg/ont/otrl#ODRL2</title>
<ellipse fill="none" stroke="#e377c2" cx="1502.05" cy="-584.43" rx="69.09" ry="16.03"/>
<text text-anchor="middle" x="1502.05" y="-580.73" font-family="Times,serif" font-size="14.00">otrl:ODRL2</text>
</g>
<!-- http://w3id.org/oseg/ont/otrl#ODRL2&#45;&gt;http://w3id.org/oseg/ont/otrl#ODRL -->
<g id="edge31" class="edge">
<title>http://w3id.org/oseg/ont/otrl#ODRL2&#45;&gt;http://w3id.org/oseg/ont/otrl#ODRL</title>
<path fill="none" stroke="black" d="M1477.45,-569.02C1438.84,-544.82 1363.95,-497.89 1320.68,-470.77"/>
<polygon fill="black" stroke="black" points="1322.28,-467.65 1311.95,-465.3 1318.57,-473.58 1322.28,-467.65"/>
<text text-anchor="middle" x="1394.57" y="-523.69" font-family="Times,serif" font-size="14.00">a</text>
</g>
<!-- http://w3id.org/oseg/ont/otrl#OTRL5 -->
<g id="node23" class="node">
<title>http://w3id.org/oseg/ont/otrl#OTRL5</title>
<ellipse fill="none" stroke="#e377c2" cx="723.34" cy="-797.41" rx="67.35" ry="16.03"/>
<text text-anchor="middle" x="723.34" y="-793.71" font-family="Times,serif" font-size="14.00">otrl:OTRL5</text>
</g>
<!-- http://w3id.org/oseg/ont/otrl#OTRL5&#45;&gt;http://w3id.org/oseg/ont/otrl#OTRL -->
<g id="edge24" class="edge">
<title>http://w3id.org/oseg/ont/otrl#OTRL5&#45;&gt;http://w3id.org/oseg/ont/otrl#OTRL</title>
<path fill="none" stroke="black" d="M739.87,-781.58C747.42,-774.35 756.5,-765.65 764.78,-757.72"/>
<polygon fill="black" stroke="black" points="767.29,-760.15 772.09,-750.71 762.45,-755.1 767.29,-760.15"/>
<text text-anchor="middle" x="747.82" y="-758.45" font-family="Times,serif" font-size="14.00">a</text>
</g>
<!-- http://w3id.org/oseg/ont/otrl#OTRL3 -->
<g id="node24" class="node">
<title>http://w3id.org/oseg/ont/otrl#OTRL3</title>
<ellipse fill="none" stroke="#e377c2" cx="665.22" cy="-530.73" rx="67.35" ry="16.03"/>
<text text-anchor="middle" x="665.22" y="-527.03" font-family="Times,serif" font-size="14.00">otrl:OTRL3</text>
</g>
<!-- http://w3id.org/oseg/ont/otrl#OTRL3&#45;&gt;http://w3id.org/oseg/ont/otrl#OTRL -->
<g id="edge41" class="edge">
<title>http://w3id.org/oseg/ont/otrl#OTRL3&#45;&gt;http://w3id.org/oseg/ont/otrl#OTRL</title>
<path fill="none" stroke="black" d="M675.13,-547.07C696.74,-582.73 748.26,-667.71 773.87,-709.95"/>
<polygon fill="black" stroke="black" points="770.89,-711.79 779.06,-718.52 776.87,-708.16 770.89,-711.79"/>
<text text-anchor="middle" x="720" y="-632.31" font-family="Times,serif" font-size="14.00">a</text>
</g>
<!-- http://w3id.org/oseg/ont/otrl#exitCriteria -->
<g id="node26" class="node">
<title>http://w3id.org/oseg/ont/otrl#exitCriteria</title>
<ellipse fill="none" stroke="#e377c2" cx="1003.33" cy="-531.83" rx="91.43" ry="16.03"/>
<text text-anchor="middle" x="1003.33" y="-528.13" font-family="Times,serif" font-size="14.00">otrl:exitCriteria</text>
</g>
<!-- http://w3id.org/oseg/ont/otrl#exitCriteria&#45;&gt;http://w3id.org/oseg/ont/otrl#ODRL -->
<g id="edge14" class="edge">
<title>http://w3id.org/oseg/ont/otrl#exitCriteria&#45;&gt;http://w3id.org/oseg/ont/otrl#ODRL</title>
<path fill="none" stroke="black" d="M1051.56,-517.96C1102.61,-503.28 1182.92,-480.19 1235.43,-465.09"/>
<polygon fill="black" stroke="black" points="1236.58,-468.4 1245.22,-462.27 1234.64,-461.67 1236.58,-468.4"/>
<text text-anchor="middle" x="1104.5" y="-480.33" font-family="Times,serif" font-size="14.00">dcam:domainIncludes</text>
</g>
<!-- http://w3id.org/oseg/ont/otrl#exitCriteria&#45;&gt;http://w3id.org/oseg/ont/otrl#OTRL -->
<g id="edge20" class="edge">
<title>http://w3id.org/oseg/ont/otrl#exitCriteria&#45;&gt;http://w3id.org/oseg/ont/otrl#OTRL</title>
<path fill="none" stroke="black" d="M986.14,-548.09C948.07,-584.09 856.55,-670.63 812.86,-711.96"/>
<polygon fill="black" stroke="black" points="810.39,-709.48 805.53,-718.89 815.2,-714.56 810.39,-709.48"/>
<text text-anchor="middle" x="821.5" y="-633.82" font-family="Times,serif" font-size="14.00">dcam:domainIncludes</text>
</g>
<!-- http://w3id.org/oseg/ont/otrl#exitCriteria&#45;&gt;http://www.w3.org/2002/07/owl#DatatypeProperty -->
<g id="edge36" class="edge">
<title>http://w3id.org/oseg/ont/otrl#exitCriteria&#45;&gt;http://www.w3.org/2002/07/owl#DatatypeProperty</title>
<path fill="none" stroke="black" d="M1001.02,-515.43C1000.91,-514.67 1000.8,-513.9 1000.69,-513.12"/>
<polygon fill="black" stroke="black" points="1004.12,-512.34 999.26,-502.93 997.19,-513.32 1004.12,-512.34"/>
<text text-anchor="middle" x="996.36" y="-503.07" font-family="Times,serif" font-size="14.00">a</text>
</g>
<!-- http://w3id.org/oseg/ont/otrl#exitCriteria&#45;&gt;http://www.w3.org/1999/02/22&#45;rdf&#45;syntax&#45;ns#langString -->
<g id="edge28" class="edge">
<title>http://w3id.org/oseg/ont/otrl#exitCriteria&#45;&gt;http://www.w3.org/1999/02/22&#45;rdf&#45;syntax&#45;ns#langString</title>
<path fill="none" stroke="black" d="M1016.29,-548.25C1043.15,-582.3 1105.04,-660.74 1136.36,-700.45"/>
<polygon fill="black" stroke="black" points="1133.62,-702.62 1142.56,-708.3 1139.12,-698.28 1133.62,-702.62"/>
<text text-anchor="middle" x="1055.33" y="-628.15" font-family="Times,serif" font-size="14.00">range</text>
</g>
<!-- http://w3id.org/oseg/ont/otrl#OTRL2 -->
<g id="node27" class="node">
<title>http://w3id.org/oseg/ont/otrl#OTRL2</title>
<ellipse fill="none" stroke="#e377c2" cx="553.83" cy="-677.55" rx="67.35" ry="16.03"/>
<text text-anchor="middle" x="553.83" y="-673.85" font-family="Times,serif" font-size="14.00">otrl:OTRL2</text>
</g>
<!-- http://w3id.org/oseg/ont/otrl#OTRL2&#45;&gt;http://w3id.org/oseg/ont/otrl#OTRL -->
<g id="edge39" class="edge">
<title>http://w3id.org/oseg/ont/otrl#OTRL2&#45;&gt;http://w3id.org/oseg/ont/otrl#OTRL</title>
<path fill="none" stroke="black" d="M601.39,-689.11C639.72,-698.42 693.66,-711.53 733.85,-721.3"/>
<polygon fill="black" stroke="black" points="733.21,-724.74 743.75,-723.7 734.86,-717.94 733.21,-724.74"/>
<text text-anchor="middle" x="663.12" y="-709" font-family="Times,serif" font-size="14.00">a</text>
</g>
<!-- http://w3id.org/oseg/ont/otrl#Otrl4 -->
<g id="node28" class="node">
<title>http://w3id.org/oseg/ont/otrl#Otrl4</title>
<ellipse fill="none" stroke="black" cx="448.49" cy="-1256.28" rx="189.51" ry="16.03"/>
<text text-anchor="middle" x="448.49" y="-1252.58" font-family="Times,serif" font-size="14.00">http://w3id.org/oseg/ont/otrl#Otrl4</text>
</g>
<!-- http://w3id.org/oseg/ont/otrl#Otrl4&#45;&gt;http://w3id.org/oseg/ont/otrl#OTRL4 -->
<g id="edge5" class="edge">
<title>http://w3id.org/oseg/ont/otrl#Otrl4&#45;&gt;http://w3id.org/oseg/ont/otrl#OTRL4</title>
<path fill="none" stroke="black" d="M459,-1239.79C491.97,-1188.03 593.57,-1028.51 633.11,-966.43"/>
<polygon fill="black" stroke="black" points="636.27,-967.98 638.69,-957.67 630.37,-964.22 636.27,-967.98"/>
<text text-anchor="middle" x="466.05" y="-1106.91" font-family="Times,serif" font-size="14.00">schema:supersededBy</text>
</g>
<!-- http://w3id.org/oseg/ont/otrl#Otrl1 -->
<g id="node29" class="node">
<title>http://w3id.org/oseg/ont/otrl#Otrl1</title>
<ellipse fill="none" stroke="black" cx="189.03" cy="-915.88" rx="189.51" ry="16.03"/>
<text text-anchor="middle" x="189.03" y="-912.18" font-family="Times,serif" font-size="14.00">http://w3id.org/oseg/ont/otrl#Otrl1</text>
</g>
<!-- http://w3id.org/oseg/ont/otrl#Otrl1&#45;&gt;http://w3id.org/oseg/ont/otrl#OTRL1 -->
<g id="edge8" class="edge">
<title>http://w3id.org/oseg/ont/otrl#Otrl1&#45;&gt;http://w3id.org/oseg/ont/otrl#OTRL1</title>
<path fill="none" stroke="black" d="M235.5,-900.09C299,-878.51 412.35,-839.99 477.02,-818.02"/>
<polygon fill="black" stroke="black" points="478.23,-821.3 486.58,-814.77 475.98,-814.68 478.23,-821.3"/>
<text text-anchor="middle" x="276.26" y="-862.85" font-family="Times,serif" font-size="14.00">schema:supersededBy</text>
</g>
<!-- http://w3id.org/oseg/ont/otrl#Odrl5 -->
<g id="node30" class="node">
<title>http://w3id.org/oseg/ont/otrl#Odrl5</title>
<ellipse fill="none" stroke="black" cx="1201.12" cy="-16.46" rx="191.75" ry="16.03"/>
<text text-anchor="middle" x="1201.12" y="-12.76" font-family="Times,serif" font-size="14.00">http://w3id.org/oseg/ont/otrl#Odrl5</text>
</g>
<!-- http://w3id.org/oseg/ont/otrl#Odrl5&#45;&gt;http://w3id.org/oseg/ont/otrl#Odrl4 -->
<g id="edge11" class="edge">
<title>http://w3id.org/oseg/ont/otrl#Odrl5&#45;&gt;http://w3id.org/oseg/ont/otrl#Odrl4</title>
<path fill="none" stroke="black" d="M1206.84,-32.81C1207.34,-34.23 1207.84,-35.68 1208.36,-37.15"/>
<polygon fill="black" stroke="black" points="1205.12,-38.51 1211.73,-46.79 1211.73,-36.2 1205.12,-38.51"/>
<text text-anchor="middle" x="1127.6" y="-38.78" font-family="Times,serif" font-size="14.00">schema:supersededBy</text>
</g>
<!-- http://w3id.org/oseg/ont/otrl#Odrl -->
<g id="node31" class="node">
<title>http://w3id.org/oseg/ont/otrl#Odrl</title>
<ellipse fill="none" stroke="black" cx="1385.85" cy="-492.41" rx="185.02" ry="16.03"/>
<text text-anchor="middle" x="1385.85" y="-488.71" font-family="Times,serif" font-size="14.00">http://w3id.org/oseg/ont/otrl#Odrl</text>
</g>
<!-- http://w3id.org/oseg/ont/otrl#Odrl&#45;&gt;http://w3id.org/oseg/ont/otrl#ODRL -->
<g id="edge12" class="edge">
<title>http://w3id.org/oseg/ont/otrl#Odrl&#45;&gt;http://w3id.org/oseg/ont/otrl#ODRL</title>
<path fill="none" stroke="black" d="M1348.72,-476.4C1342.44,-473.7 1335.89,-470.87 1329.5,-468.12"/>
<polygon fill="black" stroke="black" points="1330.88,-464.9 1320.31,-464.16 1328.11,-471.33 1330.88,-464.9"/>
<text text-anchor="middle" x="1419.11" y="-461.06" font-family="Times,serif" font-size="14.00">schema:supersededBy</text>
</g>
<!-- http://w3id.org/oseg/ont/otrl#Odrl3 -->
<g id="node32" class="node">
<title>http://w3id.org/oseg/ont/otrl#Odrl3</title>
<ellipse fill="none" stroke="black" cx="1777.95" cy="-61.43" rx="191.75" ry="16.03"/>
<text text-anchor="middle" x="1777.95" y="-57.73" font-family="Times,serif" font-size="14.00">http://w3id.org/oseg/ont/otrl#Odrl3</text>
</g>
<!-- http://w3id.org/oseg/ont/otrl#Odrl3&#45;&gt;http://w3id.org/oseg/ont/otrl#ODRL3 -->
<g id="edge13" class="edge">
<title>http://w3id.org/oseg/ont/otrl#Odrl3&#45;&gt;http://w3id.org/oseg/ont/otrl#ODRL3</title>
<path fill="none" stroke="black" d="M1756.89,-77.79C1705.15,-118 1571.74,-221.66 1513.28,-267.08"/>
<polygon fill="black" stroke="black" points="1510.97,-264.44 1505.22,-273.34 1515.26,-269.97 1510.97,-264.44"/>
<text text-anchor="middle" x="1555.09" y="-176.24" font-family="Times,serif" font-size="14.00">schema:supersededBy</text>
</g>
<!-- http://w3id.org/oseg/ont/otrl#Odrl2 -->
<g id="node33" class="node">
<title>http://w3id.org/oseg/ont/otrl#Odrl2</title>
<ellipse fill="none" stroke="black" cx="1833.42" cy="-760.87" rx="191.75" ry="16.03"/>
<text text-anchor="middle" x="1833.42" y="-757.17" font-family="Times,serif" font-size="14.00">http://w3id.org/oseg/ont/otrl#Odrl2</text>
</g>
<!-- http://w3id.org/oseg/ont/otrl#Odrl2&#45;&gt;http://w3id.org/oseg/ont/otrl#ODRL2 -->
<g id="edge21" class="edge">
<title>http://w3id.org/oseg/ont/otrl#Odrl2&#45;&gt;http://w3id.org/oseg/ont/otrl#ODRL2</title>
<path fill="none" stroke="black" d="M1803.14,-744.74C1742.25,-712.32 1605.2,-639.35 1539.1,-604.16"/>
<polygon fill="black" stroke="black" points="1540.73,-601.06 1530.25,-599.45 1537.44,-607.24 1540.73,-601.06"/>
<text text-anchor="middle" x="1591.12" y="-678.25" font-family="Times,serif" font-size="14.00">schema:supersededBy</text>
</g>
<!-- http://w3id.org/oseg/ont/otrl#Otrl5 -->
<g id="node34" class="node">
<title>http://w3id.org/oseg/ont/otrl#Otrl5</title>
<ellipse fill="none" stroke="black" cx="788.99" cy="-843.59" rx="189.51" ry="16.03"/>
<text text-anchor="middle" x="788.99" y="-839.89" font-family="Times,serif" font-size="14.00">http://w3id.org/oseg/ont/otrl#Otrl5</text>
</g>
<!-- http://w3id.org/oseg/ont/otrl#Otrl5&#45;&gt;http://w3id.org/oseg/ont/otrl#OTRL5 -->
<g id="edge26" class="edge">
<title>http://w3id.org/oseg/ont/otrl#Otrl5&#45;&gt;http://w3id.org/oseg/ont/otrl#OTRL5</title>
<path fill="none" stroke="black" d="M766.03,-827.44C762.08,-824.66 757.92,-821.73 753.8,-818.84"/>
<polygon fill="black" stroke="black" points="755.71,-815.9 745.52,-813.01 751.68,-821.62 755.71,-815.9"/>
<text text-anchor="middle" x="839.92" y="-811.94" font-family="Times,serif" font-size="14.00">schema:supersededBy</text>
</g>
<!-- http://w3id.org/oseg/ont/otrl#Otrl3 -->
<g id="node35" class="node">
<title>http://w3id.org/oseg/ont/otrl#Otrl3</title>
<ellipse fill="none" stroke="black" cx="638.09" cy="-488.37" rx="189.51" ry="16.03"/>
<text text-anchor="middle" x="638.09" y="-484.67" font-family="Times,serif" font-size="14.00">http://w3id.org/oseg/ont/otrl#Otrl3</text>
</g>
<!-- http://w3id.org/oseg/ont/otrl#Otrl3&#45;&gt;http://w3id.org/oseg/ont/otrl#OTRL3 -->
<g id="edge30" class="edge">
<title>http://w3id.org/oseg/ont/otrl#Otrl3&#45;&gt;http://w3id.org/oseg/ont/otrl#OTRL3</title>
<path fill="none" stroke="black" d="M648.5,-504.62C648.76,-505.03 649.03,-505.44 649.29,-505.86"/>
<polygon fill="black" stroke="black" points="646.54,-508.05 654.88,-514.59 652.44,-504.28 646.54,-508.05"/>
<text text-anchor="middle" x="568.9" y="-509.04" font-family="Times,serif" font-size="14.00">schema:supersededBy</text>
</g>
<!-- http://w3id.org/oseg/ont/otrl#Odrl3Star -->
<g id="node36" class="node">
<title>http://w3id.org/oseg/ont/otrl#Odrl3Star</title>
<ellipse fill="none" stroke="black" cx="1239.61" cy="-361.62" rx="213.59" ry="16.03"/>
<text text-anchor="middle" x="1239.61" y="-357.92" font-family="Times,serif" font-size="14.00">http://w3id.org/oseg/ont/otrl#Odrl3Star</text>
</g>
<!-- http://w3id.org/oseg/ont/otrl#Odrl3Star&#45;&gt;http://w3id.org/oseg/ont/otrl#ODRL3Star -->
<g id="edge34" class="edge">
<title>http://w3id.org/oseg/ont/otrl#Odrl3Star&#45;&gt;http://w3id.org/oseg/ont/otrl#ODRL3Star</title>
<path fill="none" stroke="black" d="M1261.1,-377.89C1264.52,-380.48 1268.12,-383.2 1271.69,-385.9"/>
<polygon fill="black" stroke="black" points="1269.79,-388.86 1279.88,-392.1 1274.02,-383.28 1269.79,-388.86"/>
<text text-anchor="middle" x="1186.39" y="-385.69" font-family="Times,serif" font-size="14.00">schema:supersededBy</text>
</g>
<!-- http://w3id.org/oseg/ont/otrl#Otrl -->
<g id="node37" class="node">
<title>http://w3id.org/oseg/ont/otrl#Otrl</title>
<ellipse fill="none" stroke="black" cx="1072.83" cy="-967.01" rx="183.28" ry="16.03"/>
<text text-anchor="middle" x="1072.83" y="-963.31" font-family="Times,serif" font-size="14.00">http://w3id.org/oseg/ont/otrl#Otrl</text>
</g>
<!-- http://w3id.org/oseg/ont/otrl#Otrl&#45;&gt;http://w3id.org/oseg/ont/otrl#OTRL -->
<g id="edge37" class="edge">
<title>http://w3id.org/oseg/ont/otrl#Otrl&#45;&gt;http://w3id.org/oseg/ont/otrl#OTRL</title>
<path fill="none" stroke="black" d="M1052.86,-950.67C1002.92,-909.81 872.57,-803.16 815.86,-756.76"/>
<polygon fill="black" stroke="black" points="818,-753.99 808.04,-750.37 813.57,-759.41 818,-753.99"/>
<text text-anchor="middle" x="1014.36" y="-857.52" font-family="Times,serif" font-size="14.00">schema:supersededBy</text>
</g>
<!-- http://w3id.org/oseg/ont/otrl#Otrl6 -->
<g id="node38" class="node">
<title>http://w3id.org/oseg/ont/otrl#Otrl6</title>
<ellipse fill="none" stroke="black" cx="900.04" cy="-1049.14" rx="189.51" ry="16.03"/>
<text text-anchor="middle" x="900.04" y="-1045.44" font-family="Times,serif" font-size="14.00">http://w3id.org/oseg/ont/otrl#Otrl6</text>
</g>
<!-- http://w3id.org/oseg/ont/otrl#Otrl6&#45;&gt;http://w3id.org/oseg/ont/otrl#OTRL6 -->
<g id="edge38" class="edge">
<title>http://w3id.org/oseg/ont/otrl#Otrl6&#45;&gt;http://w3id.org/oseg/ont/otrl#OTRL6</title>
<path fill="none" stroke="black" d="M880.6,-1032.79C879.76,-1032.08 878.91,-1031.36 878.05,-1030.64"/>
<polygon fill="black" stroke="black" points="880.28,-1027.94 870.37,-1024.18 875.77,-1033.3 880.28,-1027.94"/>
<text text-anchor="middle" x="959.32" y="-1020.51" font-family="Times,serif" font-size="14.00">schema:supersededBy</text>
</g>
<!-- http://w3id.org/oseg/ont/otrl#Odrl1 -->
<g id="node39" class="node">
<title>http://w3id.org/oseg/ont/otrl#Odrl1</title>
<ellipse fill="none" stroke="black" cx="1911.99" cy="-394.65" rx="191.75" ry="16.03"/>
<text text-anchor="middle" x="1911.99" y="-390.95" font-family="Times,serif" font-size="14.00">http://w3id.org/oseg/ont/otrl#Odrl1</text>
</g>
<!-- http://w3id.org/oseg/ont/otrl#Odrl1&#45;&gt;http://w3id.org/oseg/ont/otrl#ODRL1 -->
<g id="edge42" class="edge">
<title>http://w3id.org/oseg/ont/otrl#Odrl1&#45;&gt;http://w3id.org/oseg/ont/otrl#ODRL1</title>
<path fill="none" stroke="black" d="M1779.79,-406.45C1723.01,-411.51 1658.76,-417.25 1610.4,-421.56"/>
<polygon fill="black" stroke="black" points="1609.98,-418.09 1600.33,-422.46 1610.61,-425.06 1609.98,-418.09"/>
<text text-anchor="middle" x="1775.09" y="-417.81" font-family="Times,serif" font-size="14.00">schema:supersededBy</text>
</g>
<!-- http://w3id.org/oseg/ont/otrl#Otrl2 -->
<g id="node40" class="node">
<title>http://w3id.org/oseg/ont/otrl#Otrl2</title>
<ellipse fill="none" stroke="black" cx="191.74" cy="-586.82" rx="189.51" ry="16.03"/>
<text text-anchor="middle" x="191.74" y="-583.12" font-family="Times,serif" font-size="14.00">http://w3id.org/oseg/ont/otrl#Otrl2</text>
</g>
<!-- http://w3id.org/oseg/ont/otrl#Otrl2&#45;&gt;http://w3id.org/oseg/ont/otrl#OTRL2 -->
<g id="edge43" class="edge">
<title>http://w3id.org/oseg/ont/otrl#Otrl2&#45;&gt;http://w3id.org/oseg/ont/otrl#OTRL2</title>
<path fill="none" stroke="black" d="M253.17,-602.21C321.49,-619.33 430.95,-646.76 497.25,-663.37"/>
<polygon fill="black" stroke="black" points="496.55,-666.8 507.11,-665.84 498.26,-660.01 496.55,-666.8"/>
<text text-anchor="middle" x="295.21" y="-636.59" font-family="Times,serif" font-size="14.00">schema:supersededBy</text>
</g>
</g>
</svg>
