<?xml version="1.0" encoding="UTF-8" standalone="no"?>
<!DOCTYPE svg PUBLIC "-//W3C//DTD SVG 1.1//EN"
 "http://www.w3.org/Graphics/SVG/1.1/DTD/svg11.dtd">
<!-- Generated by graphviz version 2.43.0 (0)
 -->
<!-- Title: G Pages: 1 -->
<svg width="1453pt" height="1117pt"
 viewBox="0.00 0.00 1453.00 1117.00" xmlns="http://www.w3.org/2000/svg" xmlns:xlink="http://www.w3.org/1999/xlink">
<g id="graph0" class="graph" transform="scale(1 1) rotate(0) translate(4 1113)">
<title>G</title>
<polygon fill="white" stroke="transparent" points="-4,4 -4,-1113 1449,-1113 1449,4 -4,4"/>
<!-- http://w3id.org/oseg/ont/okhmeta#Tag -->
<g id="node1" class="node">
<title>http://w3id.org/oseg/ont/okhmeta#Tag</title>
<ellipse fill="none" stroke="#e377c2" cx="422.15" cy="-489.43" rx="76.24" ry="16.03"/>
<text text-anchor="middle" x="422.15" y="-485.73" font-family="Times,serif" font-size="14.00">okhmeta:Tag</text>
</g>
<!-- http://www.w3.org/2004/02/skos/core#Concept -->
<g id="node2" class="node">
<title>http://www.w3.org/2004/02/skos/core#Concept</title>
<ellipse fill="none" stroke="#1f77b4" cx="654.84" cy="-318.93" rx="78.48" ry="16.03"/>
<text text-anchor="middle" x="654.84" y="-315.23" font-family="Times,serif" font-size="14.00">skos:Concept</text>
</g>
<!-- http://w3id.org/oseg/ont/okhmeta#Tag&#45;&gt;http://www.w3.org/2004/02/skos/core#Concept -->
<g id="edge12" class="edge">
<title>http://w3id.org/oseg/ont/okhmeta#Tag&#45;&gt;http://www.w3.org/2004/02/skos/core#Concept</title>
<path fill="none" stroke="black" d="M443.63,-473.7C485.36,-443.12 577.48,-375.62 625.07,-340.74"/>
<polygon fill="black" stroke="black" points="627.42,-343.36 633.42,-334.63 623.29,-337.71 627.42,-343.36"/>
<text text-anchor="middle" x="529.85" y="-411.02" font-family="Times,serif" font-size="14.00">a</text>
</g>
<!-- http://www.w3.org/2004/02/skos/core#Collection -->
<g id="node6" class="node">
<title>http://www.w3.org/2004/02/skos/core#Collection</title>
<ellipse fill="none" stroke="#e377c2" cx="296.96" cy="-802.11" rx="87.86" ry="16.03"/>
<text text-anchor="middle" x="296.96" y="-798.41" font-family="Times,serif" font-size="14.00">skos:Collection</text>
</g>
<!-- http://w3id.org/oseg/ont/okhmeta#Tag&#45;&gt;http://www.w3.org/2004/02/skos/core#Collection -->
<g id="edge46" class="edge">
<title>http://w3id.org/oseg/ont/okhmeta#Tag&#45;&gt;http://www.w3.org/2004/02/skos/core#Collection</title>
<path fill="none" stroke="black" d="M415.6,-505.8C395.15,-556.86 332.42,-713.53 307.41,-776"/>
<polygon fill="black" stroke="black" points="304.07,-774.94 303.6,-785.52 310.57,-777.54 304.07,-774.94"/>
</g>
<!-- http://w3id.org/oseg/ont/okhmeta#MetaTag -->
<g id="node7" class="node">
<title>http://w3id.org/oseg/ont/okhmeta#MetaTag</title>
<ellipse fill="none" stroke="#e377c2" cx="427.86" cy="-448.86" rx="102.56" ry="16.03"/>
<text text-anchor="middle" x="427.86" y="-445.16" font-family="Times,serif" font-size="14.00">okhmeta:MetaTag</text>
</g>
<!-- http://w3id.org/oseg/ont/okhmeta#Tag&#45;&gt;http://w3id.org/oseg/ont/okhmeta#MetaTag -->
<g id="edge7" class="edge">
<title>http://w3id.org/oseg/ont/okhmeta#Tag&#45;&gt;http://w3id.org/oseg/ont/okhmeta#MetaTag</title>
<path fill="none" stroke="black" d="M431.23,-472.92C431.26,-472.76 431.29,-472.6 431.32,-472.44"/>
<polygon fill="black" stroke="black" points="434.47,-475.51 432.2,-465.16 427.52,-474.66 434.47,-475.51"/>
<text text-anchor="middle" x="508.28" y="-461.48" font-family="Times,serif" font-size="14.00">okhmeta:hasMetaTag</text>
</g>
<!-- http://www.w3.org/2002/07/owl#ObjectProperty -->
<g id="node3" class="node">
<title>http://www.w3.org/2002/07/owl#ObjectProperty</title>
<ellipse fill="none" stroke="#1f77b4" cx="440.18" cy="-329.65" rx="109.7" ry="16.03"/>
<text text-anchor="middle" x="440.18" y="-325.95" font-family="Times,serif" font-size="14.00">owl:ObjectProperty</text>
</g>
<!-- http://www.w3.org/2002/07/owl#Ontology -->
<g id="node4" class="node">
<title>http://www.w3.org/2002/07/owl#Ontology</title>
<ellipse fill="none" stroke="#1f77b4" cx="1172.03" cy="-1092.25" rx="77.56" ry="16.03"/>
<text text-anchor="middle" x="1172.03" y="-1088.55" font-family="Times,serif" font-size="14.00">owl:Ontology</text>
</g>
<!-- http://spdx.org/rdf/terms#SpdxItem -->
<g id="node5" class="node">
<title>http://spdx.org/rdf/terms#SpdxItem</title>
<ellipse fill="none" stroke="#1f77b4" cx="1168.05" cy="-915.81" rx="87.86" ry="16.03"/>
<text text-anchor="middle" x="1168.05" y="-912.11" font-family="Times,serif" font-size="14.00">spdx:SpdxItem</text>
</g>
<!-- http://w3id.org/oseg/ont/okhmeta#MetaTag&#45;&gt;http://w3id.org/oseg/ont/okhmeta#Tag -->
<g id="edge13" class="edge">
<title>http://w3id.org/oseg/ont/okhmeta#MetaTag&#45;&gt;http://w3id.org/oseg/ont/okhmeta#Tag</title>
<path fill="none" stroke="black" d="M418.78,-465.37C418.75,-465.53 418.72,-465.69 418.7,-465.85"/>
<polygon fill="black" stroke="black" points="415.54,-462.78 417.81,-473.13 422.49,-463.63 415.54,-462.78"/>
<text text-anchor="middle" x="414.24" y="-469.41" font-family="Times,serif" font-size="14.00">a</text>
</g>
<!-- http://w3id.org/oseg/ont/okhmeta#MetaTag&#45;&gt;http://w3id.org/oseg/ont/okhmeta#MetaTag -->
<g id="edge32" class="edge">
<title>http://w3id.org/oseg/ont/okhmeta#MetaTag&#45;&gt;http://w3id.org/oseg/ont/okhmeta#MetaTag</title>
<path fill="none" stroke="black" d="M522.85,-455.08C538.01,-454.17 548.39,-452.1 548.39,-448.86 548.39,-446.41 542.43,-444.63 532.95,-443.51"/>
<polygon fill="black" stroke="black" points="533.12,-440.01 522.85,-442.65 532.52,-446.99 533.12,-440.01"/>
<text text-anchor="middle" x="625.39" y="-445.16" font-family="Times,serif" font-size="14.00">okhmeta:hasMetaTag</text>
</g>
<!-- http://w3id.org/oseg/ont/oseg&#45;profiles#robinVobruba -->
<g id="node8" class="node">
<title>http://w3id.org/oseg/ont/oseg&#45;profiles#robinVobruba</title>
<ellipse fill="none" stroke="#e377c2" cx="971.7" cy="-806.3" rx="113.69" ry="16.03"/>
<text text-anchor="middle" x="971.7" y="-802.6" font-family="Times,serif" font-size="14.00">osegprof:robinVob...</text>
</g>
<!-- http://w3id.org/oseg/ont/okhmeta#AcademicTag -->
<g id="node9" class="node">
<title>http://w3id.org/oseg/ont/okhmeta#AcademicTag</title>
<ellipse fill="none" stroke="#e377c2" cx="232.42" cy="-202.42" rx="124.4" ry="16.03"/>
<text text-anchor="middle" x="232.42" y="-198.72" font-family="Times,serif" font-size="14.00">okhmeta:AcademicTag</text>
</g>
<!-- http://w3id.org/oseg/ont/okhmeta#AcademicTag&#45;&gt;http://w3id.org/oseg/ont/okhmeta#Tag -->
<g id="edge29" class="edge">
<title>http://w3id.org/oseg/ont/okhmeta#AcademicTag&#45;&gt;http://w3id.org/oseg/ont/okhmeta#Tag</title>
<path fill="none" stroke="black" d="M243.16,-218.67C274.79,-266.51 367.7,-407.06 405.68,-464.52"/>
<polygon fill="black" stroke="black" points="402.86,-466.59 411.29,-473 408.7,-462.73 402.86,-466.59"/>
<text text-anchor="middle" x="319.92" y="-330.4" font-family="Times,serif" font-size="14.00">a</text>
</g>
<!-- http://w3id.org/oseg/ont/okhmeta#AcademicTag&#45;&gt;http://w3id.org/oseg/ont/okhmeta#MetaTag -->
<g id="edge42" class="edge">
<title>http://w3id.org/oseg/ont/okhmeta#AcademicTag&#45;&gt;http://w3id.org/oseg/ont/okhmeta#MetaTag</title>
<path fill="none" stroke="black" d="M245.54,-218.97C279.28,-261.52 369.14,-374.82 408.71,-424.71"/>
<polygon fill="black" stroke="black" points="406.09,-427.04 415.05,-432.7 411.58,-422.69 406.09,-427.04"/>
<text text-anchor="middle" x="250.12" y="-325.64" font-family="Times,serif" font-size="14.00">okhmeta:hasMetaTag</text>
</g>
<!-- http://w3id.org/oseg/ont/okhmeta#hasMetaTag -->
<g id="node10" class="node">
<title>http://w3id.org/oseg/ont/okhmeta#hasMetaTag</title>
<ellipse fill="none" stroke="#e377c2" cx="440.96" cy="-370.21" rx="120.42" ry="16.03"/>
<text text-anchor="middle" x="440.96" y="-366.51" font-family="Times,serif" font-size="14.00">okhmeta:hasMetaTag</text>
</g>
<!-- http://w3id.org/oseg/ont/okhmeta#hasMetaTag&#45;&gt;http://www.w3.org/2004/02/skos/core#Concept -->
<g id="edge2" class="edge">
<title>http://w3id.org/oseg/ont/okhmeta#hasMetaTag&#45;&gt;http://www.w3.org/2004/02/skos/core#Concept</title>
<path fill="none" stroke="black" d="M500.25,-356C529.23,-349.05 564.07,-340.69 593.33,-333.68"/>
<polygon fill="black" stroke="black" points="594.53,-336.99 603.43,-331.26 592.89,-330.18 594.53,-336.99"/>
<text text-anchor="middle" x="551.29" y="-333.64" font-family="Times,serif" font-size="14.00">a</text>
</g>
<!-- http://w3id.org/oseg/ont/okhmeta#hasMetaTag&#45;&gt;http://www.w3.org/2002/07/owl#ObjectProperty -->
<g id="edge20" class="edge">
<title>http://w3id.org/oseg/ont/okhmeta#hasMetaTag&#45;&gt;http://www.w3.org/2002/07/owl#ObjectProperty</title>
<path fill="none" stroke="black" d="M440.64,-353.72C440.64,-353.56 440.64,-353.4 440.63,-353.24"/>
<polygon fill="black" stroke="black" points="444.19,-355.94 440.5,-346 437.19,-356.07 444.19,-355.94"/>
<text text-anchor="middle" x="436.14" y="-342.28" font-family="Times,serif" font-size="14.00">a</text>
</g>
<!-- http://w3id.org/oseg/ont/okhmeta#hasMetaTag&#45;&gt;http://w3id.org/oseg/ont/okhmeta#MetaTag -->
<g id="edge1" class="edge">
<title>http://w3id.org/oseg/ont/okhmeta#hasMetaTag&#45;&gt;http://w3id.org/oseg/ont/okhmeta#MetaTag</title>
<path fill="none" stroke="black" d="M432.41,-386.73C429.58,-397.01 427.12,-410.47 425.84,-422.23"/>
<polygon fill="black" stroke="black" points="422.33,-422.17 425.02,-432.42 429.31,-422.73 422.33,-422.17"/>
<text text-anchor="middle" x="352.13" y="-408.28" font-family="Times,serif" font-size="14.00">okhmeta:hasMetaTag</text>
</g>
<!-- http://w3id.org/oseg/ont/okhmeta#hasMetaTag&#45;&gt;http://w3id.org/oseg/ont/okhmeta#MetaTag -->
<g id="edge45" class="edge">
<title>http://w3id.org/oseg/ont/okhmeta#hasMetaTag&#45;&gt;http://w3id.org/oseg/ont/okhmeta#MetaTag</title>
<path fill="none" stroke="black" d="M443.8,-386.66C443.31,-397.11 441.34,-410.86 438.75,-422.78"/>
<polygon fill="black" stroke="black" points="435.31,-422.11 436.33,-432.65 442.11,-423.77 435.31,-422.11"/>
<text text-anchor="middle" x="513.77" y="-393.52" font-family="Times,serif" font-size="14.00">dcam:rangeIncludes</text>
</g>
<!-- http://www.w3.org/2004/02/skos/core#member -->
<g id="node22" class="node">
<title>http://www.w3.org/2004/02/skos/core#member</title>
<ellipse fill="none" stroke="#e377c2" cx="501.11" cy="-16.24" rx="79.39" ry="16.03"/>
<text text-anchor="middle" x="501.11" y="-12.54" font-family="Times,serif" font-size="14.00">skos:member</text>
</g>
<!-- http://w3id.org/oseg/ont/okhmeta#hasMetaTag&#45;&gt;http://www.w3.org/2004/02/skos/core#member -->
<g id="edge14" class="edge">
<title>http://w3id.org/oseg/ont/okhmeta#hasMetaTag&#45;&gt;http://www.w3.org/2004/02/skos/core#member</title>
<path fill="none" stroke="black" d="M443.78,-353.61C453.37,-297.18 484.78,-112.34 496.57,-42.92"/>
<polygon fill="black" stroke="black" points="500.07,-43.25 498.29,-32.8 493.17,-42.07 500.07,-43.25"/>
<text text-anchor="middle" x="417.18" y="-202.07" font-family="Times,serif" font-size="14.00">subPropertyOf</text>
</g>
<!-- http://w3id.org/oseg/ont/okhmeta#PartsTag -->
<g id="node11" class="node">
<title>http://w3id.org/oseg/ont/okhmeta#PartsTag</title>
<ellipse fill="none" stroke="#e377c2" cx="718.96" cy="-493.64" rx="103.48" ry="16.03"/>
<text text-anchor="middle" x="718.96" y="-489.94" font-family="Times,serif" font-size="14.00">okhmeta:PartsTag</text>
</g>
<!-- http://w3id.org/oseg/ont/okhmeta#PartsTag&#45;&gt;http://w3id.org/oseg/ont/okhmeta#Tag -->
<g id="edge30" class="edge">
<title>http://w3id.org/oseg/ont/okhmeta#PartsTag&#45;&gt;http://w3id.org/oseg/ont/okhmeta#Tag</title>
<path fill="none" stroke="black" d="M615.98,-492.18C581.09,-491.68 542.48,-491.14 508.96,-490.66"/>
<polygon fill="black" stroke="black" points="508.78,-487.16 498.74,-490.52 508.69,-494.16 508.78,-487.16"/>
<text text-anchor="middle" x="557.97" y="-495.22" font-family="Times,serif" font-size="14.00">a</text>
</g>
<!-- http://w3id.org/oseg/ont/okhmeta#PartsTag&#45;&gt;http://w3id.org/oseg/ont/okhmeta#MetaTag -->
<g id="edge9" class="edge">
<title>http://w3id.org/oseg/ont/okhmeta#PartsTag&#45;&gt;http://w3id.org/oseg/ont/okhmeta#MetaTag</title>
<path fill="none" stroke="black" d="M644.75,-482.22C604.13,-475.97 553.65,-468.21 511.62,-461.75"/>
<polygon fill="black" stroke="black" points="512.1,-458.28 501.68,-460.22 511.03,-465.2 512.1,-458.28"/>
<text text-anchor="middle" x="655.19" y="-460.78" font-family="Times,serif" font-size="14.00">okhmeta:hasMetaTag</text>
</g>
<!-- http://w3id.org/oseg/ont/okhmeta#HistoryTag -->
<g id="node12" class="node">
<title>http://w3id.org/oseg/ont/okhmeta#HistoryTag</title>
<ellipse fill="none" stroke="#e377c2" cx="164.01" cy="-294.17" rx="113.69" ry="16.03"/>
<text text-anchor="middle" x="164.01" y="-290.47" font-family="Times,serif" font-size="14.00">okhmeta:HistoryTag</text>
</g>
<!-- http://w3id.org/oseg/ont/okhmeta#HistoryTag&#45;&gt;http://w3id.org/oseg/ont/okhmeta#Tag -->
<g id="edge31" class="edge">
<title>http://w3id.org/oseg/ont/okhmeta#HistoryTag&#45;&gt;http://w3id.org/oseg/ont/okhmeta#Tag</title>
<path fill="none" stroke="black" d="M185.58,-310.48C231.84,-345.47 340.63,-427.77 392.99,-467.37"/>
<polygon fill="black" stroke="black" points="391.1,-470.33 401.19,-473.58 395.33,-464.75 391.1,-470.33"/>
<text text-anchor="middle" x="284.79" y="-392.73" font-family="Times,serif" font-size="14.00">a</text>
</g>
<!-- http://w3id.org/oseg/ont/okhmeta#HistoryTag&#45;&gt;http://w3id.org/oseg/ont/okhmeta#MetaTag -->
<g id="edge44" class="edge">
<title>http://w3id.org/oseg/ont/okhmeta#HistoryTag&#45;&gt;http://w3id.org/oseg/ont/okhmeta#MetaTag</title>
<path fill="none" stroke="black" d="M191.26,-310.14C239.18,-338.24 338.52,-396.48 391.97,-427.82"/>
<polygon fill="black" stroke="black" points="390.37,-430.94 400.77,-432.98 393.91,-424.9 390.37,-430.94"/>
<text text-anchor="middle" x="214.61" y="-357.78" font-family="Times,serif" font-size="14.00">okhmeta:hasMetaTag</text>
</g>
<!-- http://w3id.org/oseg/ont/okhmeta#DevelopmentTag -->
<g id="node13" class="node">
<title>http://w3id.org/oseg/ont/okhmeta#DevelopmentTag</title>
<ellipse fill="none" stroke="#e377c2" cx="747.91" cy="-382.71" rx="124.4" ry="16.03"/>
<text text-anchor="middle" x="747.91" y="-379.01" font-family="Times,serif" font-size="14.00">okhmeta:Developme...</text>
</g>
<!-- http://w3id.org/oseg/ont/okhmeta#DevelopmentTag&#45;&gt;http://w3id.org/oseg/ont/okhmeta#Tag -->
<g id="edge4" class="edge">
<title>http://w3id.org/oseg/ont/okhmeta#DevelopmentTag&#45;&gt;http://w3id.org/oseg/ont/okhmeta#Tag</title>
<path fill="none" stroke="black" d="M701.58,-397.88C641.31,-417.63 536.31,-452.03 473.62,-472.57"/>
<polygon fill="black" stroke="black" points="472.34,-469.3 463.93,-475.74 474.52,-475.96 472.34,-469.3"/>
<text text-anchor="middle" x="583.1" y="-424.03" font-family="Times,serif" font-size="14.00">a</text>
</g>
<!-- http://w3id.org/oseg/ont/okhmeta#DevelopmentTag&#45;&gt;http://w3id.org/oseg/ont/okhmeta#MetaTag -->
<g id="edge8" class="edge">
<title>http://w3id.org/oseg/ont/okhmeta#DevelopmentTag&#45;&gt;http://w3id.org/oseg/ont/okhmeta#MetaTag</title>
<path fill="none" stroke="black" d="M681.2,-396.49C628.34,-407.42 554.6,-422.66 500.3,-433.89"/>
<polygon fill="black" stroke="black" points="499.49,-430.48 490.4,-435.94 500.9,-437.34 499.49,-430.48"/>
<text text-anchor="middle" x="667.75" y="-418.99" font-family="Times,serif" font-size="14.00">okhmeta:hasMetaTag</text>
</g>
<!-- http://w3id.org/oseg/ont/okhmeta#TransportationTag -->
<g id="node14" class="node">
<title>http://w3id.org/oseg/ont/okhmeta#TransportationTag</title>
<ellipse fill="none" stroke="#e377c2" cx="600.26" cy="-202.48" rx="118.17" ry="16.03"/>
<text text-anchor="middle" x="600.26" y="-198.78" font-family="Times,serif" font-size="14.00">okhmeta:Transport...</text>
</g>
<!-- http://w3id.org/oseg/ont/okhmeta#TransportationTag&#45;&gt;http://w3id.org/oseg/ont/okhmeta#Tag -->
<g id="edge34" class="edge">
<title>http://w3id.org/oseg/ont/okhmeta#TransportationTag&#45;&gt;http://w3id.org/oseg/ont/okhmeta#Tag</title>
<path fill="none" stroke="black" d="M590.17,-218.73C560.54,-266.46 473.63,-406.5 437.83,-464.17"/>
<polygon fill="black" stroke="black" points="434.65,-462.66 432.35,-473 440.6,-466.35 434.65,-462.66"/>
<text text-anchor="middle" x="509.5" y="-345.25" font-family="Times,serif" font-size="14.00">a</text>
</g>
<!-- http://w3id.org/oseg/ont/okhmeta#TransportationTag&#45;&gt;http://w3id.org/oseg/ont/okhmeta#MetaTag -->
<g id="edge17" class="edge">
<title>http://w3id.org/oseg/ont/okhmeta#TransportationTag&#45;&gt;http://w3id.org/oseg/ont/okhmeta#MetaTag</title>
<path fill="none" stroke="black" d="M588.68,-219.03C559.05,-261.37 480.36,-373.83 445.23,-424.04"/>
<polygon fill="black" stroke="black" points="442.26,-422.19 439.39,-432.39 447.99,-426.2 442.26,-422.19"/>
<text text-anchor="middle" x="516.95" y="-310.33" font-family="Times,serif" font-size="14.00">okhmeta:hasMetaTag</text>
</g>
<!-- http://w3id.org/oseg/ont/okhmeta#BasicTag -->
<g id="node15" class="node">
<title>http://w3id.org/oseg/ont/okhmeta#BasicTag</title>
<ellipse fill="none" stroke="#e377c2" cx="128.64" cy="-497.87" rx="103.48" ry="16.03"/>
<text text-anchor="middle" x="128.64" y="-494.17" font-family="Times,serif" font-size="14.00">okhmeta:BasicTag</text>
</g>
<!-- http://w3id.org/oseg/ont/okhmeta#BasicTag&#45;&gt;http://w3id.org/oseg/ont/okhmeta#Tag -->
<g id="edge35" class="edge">
<title>http://w3id.org/oseg/ont/okhmeta#BasicTag&#45;&gt;http://w3id.org/oseg/ont/okhmeta#Tag</title>
<path fill="none" stroke="black" d="M230.48,-494.94C264.99,-493.95 303.17,-492.85 336.31,-491.9"/>
<polygon fill="black" stroke="black" points="336.53,-495.39 346.42,-491.61 336.32,-488.4 336.53,-495.39"/>
<text text-anchor="middle" x="278.89" y="-497.22" font-family="Times,serif" font-size="14.00">a</text>
</g>
<!-- http://w3id.org/oseg/ont/okhmeta#BasicTag&#45;&gt;http://w3id.org/oseg/ont/okhmeta#MetaTag -->
<g id="edge40" class="edge">
<title>http://w3id.org/oseg/ont/okhmeta#BasicTag&#45;&gt;http://w3id.org/oseg/ont/okhmeta#MetaTag</title>
<path fill="none" stroke="black" d="M200.31,-486.13C244.37,-478.92 300.93,-469.65 346.64,-462.17"/>
<polygon fill="black" stroke="black" points="347.21,-465.62 356.52,-460.55 346.08,-458.71 347.21,-465.62"/>
<text text-anchor="middle" x="196.48" y="-462.95" font-family="Times,serif" font-size="14.00">okhmeta:hasMetaTag</text>
</g>
<!-- http://w3id.org/oseg/ont/okhmeta#ExtendedInfoTag -->
<g id="node16" class="node">
<title>http://w3id.org/oseg/ont/okhmeta#ExtendedInfoTag</title>
<ellipse fill="none" stroke="#e377c2" cx="725.66" cy="-597.59" rx="120.42" ry="16.03"/>
<text text-anchor="middle" x="725.66" y="-593.89" font-family="Times,serif" font-size="14.00">okhmeta:ExtendedI...</text>
</g>
<!-- http://w3id.org/oseg/ont/okhmeta#ExtendedInfoTag&#45;&gt;http://w3id.org/oseg/ont/okhmeta#Tag -->
<g id="edge6" class="edge">
<title>http://w3id.org/oseg/ont/okhmeta#ExtendedInfoTag&#45;&gt;http://w3id.org/oseg/ont/okhmeta#Tag</title>
<path fill="none" stroke="black" d="M682.82,-582.32C627.06,-562.45 529.83,-527.8 471.18,-506.9"/>
<polygon fill="black" stroke="black" points="472,-503.48 461.4,-503.42 469.65,-510.07 472,-503.48"/>
<text text-anchor="middle" x="572.5" y="-548.41" font-family="Times,serif" font-size="14.00">a</text>
</g>
<!-- http://w3id.org/oseg/ont/okhmeta#ExtendedInfoTag&#45;&gt;http://w3id.org/oseg/ont/okhmeta#MetaTag -->
<g id="edge28" class="edge">
<title>http://w3id.org/oseg/ont/okhmeta#ExtendedInfoTag&#45;&gt;http://w3id.org/oseg/ont/okhmeta#MetaTag</title>
<path fill="none" stroke="black" d="M694.07,-581.81C639.65,-554.63 528.29,-499.02 468.3,-469.06"/>
<polygon fill="black" stroke="black" points="469.64,-465.81 459.13,-464.48 466.51,-472.08 469.64,-465.81"/>
<text text-anchor="middle" x="504.18" y="-529.23" font-family="Times,serif" font-size="14.00">okhmeta:hasMetaTag</text>
</g>
<!-- http://w3id.org/oseg/ont/okhmeta#PhysicalTag -->
<g id="node17" class="node">
<title>http://w3id.org/oseg/ont/okhmeta#PhysicalTag</title>
<ellipse fill="none" stroke="#e377c2" cx="665.7" cy="-684.48" rx="118.17" ry="16.03"/>
<text text-anchor="middle" x="665.7" y="-680.78" font-family="Times,serif" font-size="14.00">okhmeta:PhysicalTag</text>
</g>
<!-- http://w3id.org/oseg/ont/okhmeta#PhysicalTag&#45;&gt;http://w3id.org/oseg/ont/okhmeta#Tag -->
<g id="edge36" class="edge">
<title>http://w3id.org/oseg/ont/okhmeta#PhysicalTag&#45;&gt;http://w3id.org/oseg/ont/okhmeta#Tag</title>
<path fill="none" stroke="black" d="M645.36,-668.19C601.8,-633.31 499.49,-551.37 449.97,-511.71"/>
<polygon fill="black" stroke="black" points="451.92,-508.79 441.93,-505.27 447.55,-514.25 451.92,-508.79"/>
<text text-anchor="middle" x="543.16" y="-593.75" font-family="Times,serif" font-size="14.00">a</text>
</g>
<!-- http://w3id.org/oseg/ont/okhmeta#PhysicalTag&#45;&gt;http://w3id.org/oseg/ont/okhmeta#MetaTag -->
<g id="edge18" class="edge">
<title>http://w3id.org/oseg/ont/okhmeta#PhysicalTag&#45;&gt;http://w3id.org/oseg/ont/okhmeta#MetaTag</title>
<path fill="none" stroke="black" d="M649.36,-668.29C608.11,-627.43 499.7,-520.03 451.52,-472.3"/>
<polygon fill="black" stroke="black" points="453.89,-469.72 444.32,-465.17 448.96,-474.7 453.89,-469.72"/>
<text text-anchor="middle" x="473.44" y="-574.09" font-family="Times,serif" font-size="14.00">okhmeta:hasMetaTag</text>
</g>
<!-- http://w3id.org/oseg/ont/okhmeta#IdentificationTag -->
<g id="node18" class="node">
<title>http://w3id.org/oseg/ont/okhmeta#IdentificationTag</title>
<ellipse fill="none" stroke="#e377c2" cx="587.69" cy="-731.73" rx="109.7" ry="16.03"/>
<text text-anchor="middle" x="587.69" y="-728.03" font-family="Times,serif" font-size="14.00">okhmeta:Identific...</text>
</g>
<!-- http://w3id.org/oseg/ont/okhmeta#IdentificationTag&#45;&gt;http://w3id.org/oseg/ont/okhmeta#Tag -->
<g id="edge37" class="edge">
<title>http://w3id.org/oseg/ont/okhmeta#IdentificationTag&#45;&gt;http://w3id.org/oseg/ont/okhmeta#Tag</title>
<path fill="none" stroke="black" d="M576.57,-715.46C548.18,-673.91 472.88,-563.68 439.04,-514.15"/>
<polygon fill="black" stroke="black" points="441.75,-511.92 433.22,-505.63 435.97,-515.87 441.75,-511.92"/>
<text text-anchor="middle" x="503.31" y="-618.6" font-family="Times,serif" font-size="14.00">a</text>
</g>
<!-- http://w3id.org/oseg/ont/okhmeta#IdentificationTag&#45;&gt;http://w3id.org/oseg/ont/okhmeta#MetaTag -->
<g id="edge41" class="edge">
<title>http://w3id.org/oseg/ont/okhmeta#IdentificationTag&#45;&gt;http://w3id.org/oseg/ont/okhmeta#MetaTag</title>
<path fill="none" stroke="black" d="M578.41,-715.3C551.65,-667.94 474.23,-530.93 442.1,-474.06"/>
<polygon fill="black" stroke="black" points="445.14,-472.32 437.17,-465.34 439.04,-475.77 445.14,-472.32"/>
<text text-anchor="middle" x="433.25" y="-598.48" font-family="Times,serif" font-size="14.00">okhmeta:hasMetaTag</text>
</g>
<!-- http://w3id.org/oseg/ont/okhmeta -->
<g id="node19" class="node">
<title>http://w3id.org/oseg/ont/okhmeta</title>
<ellipse fill="none" stroke="#e377c2" cx="1130.81" cy="-866.48" rx="76.24" ry="16.03"/>
<text text-anchor="middle" x="1130.81" y="-862.78" font-family="Times,serif" font-size="14.00">ns1:okhmeta</text>
</g>
<!-- http://w3id.org/oseg/ont/okhmeta&#45;&gt;http://www.w3.org/2002/07/owl#Ontology -->
<g id="edge48" class="edge">
<title>http://w3id.org/oseg/ont/okhmeta&#45;&gt;http://www.w3.org/2002/07/owl#Ontology</title>
<path fill="none" stroke="black" d="M1133.84,-883.08C1140.93,-921.91 1158.64,-1018.92 1167.22,-1065.91"/>
<polygon fill="black" stroke="black" points="1163.81,-1066.72 1169.05,-1075.93 1170.69,-1065.47 1163.81,-1066.72"/>
<text text-anchor="middle" x="1146.03" y="-978.3" font-family="Times,serif" font-size="14.00">a</text>
</g>
<!-- http://w3id.org/oseg/ont/okhmeta&#45;&gt;http://spdx.org/rdf/terms#SpdxItem -->
<g id="edge38" class="edge">
<title>http://w3id.org/oseg/ont/okhmeta&#45;&gt;http://spdx.org/rdf/terms#SpdxItem</title>
<path fill="none" stroke="black" d="M1143,-882.63C1145.1,-885.41 1147.33,-888.36 1149.55,-891.3"/>
<polygon fill="black" stroke="black" points="1146.88,-893.58 1155.7,-899.45 1152.47,-889.36 1146.88,-893.58"/>
<text text-anchor="middle" x="1141.78" y="-890.77" font-family="Times,serif" font-size="14.00">a</text>
</g>
<!-- http://w3id.org/oseg/ont/okhmeta&#45;&gt;http://w3id.org/oseg/ont/oseg&#45;profiles#robinVobruba -->
<g id="edge3" class="edge">
<title>http://w3id.org/oseg/ont/okhmeta&#45;&gt;http://w3id.org/oseg/ont/oseg&#45;profiles#robinVobruba</title>
<path fill="none" stroke="black" d="M1104.96,-851.07C1086.55,-842.74 1060.97,-832.58 1037.13,-823.97"/>
<polygon fill="black" stroke="black" points="1038,-820.56 1027.4,-820.5 1035.65,-827.15 1038,-820.56"/>
<text text-anchor="middle" x="1015.54" y="-826.32" font-family="Times,serif" font-size="14.00">schema:creator</text>
</g>
<!-- http://w3id.org/oseg/ont/okhmeta&#45;&gt;http://w3id.org/oseg/ont/oseg&#45;profiles#robinVobruba -->
<g id="edge27" class="edge">
<title>http://w3id.org/oseg/ont/okhmeta&#45;&gt;http://w3id.org/oseg/ont/oseg&#45;profiles#robinVobruba</title>
<path fill="none" stroke="black" d="M1080.42,-854.11C1056.99,-846.06 1029.65,-835.59 1008.24,-826.41"/>
<polygon fill="black" stroke="black" points="1009.42,-823.1 998.86,-822.29 1006.61,-829.51 1009.42,-823.1"/>
<text text-anchor="middle" x="986.83" y="-844.06" font-family="Times,serif" font-size="14.00">dcterms:creator</text>
</g>
<!-- http://w3id.org/oseg/ont/oseg&#45;profiles#Iopa -->
<g id="node20" class="node">
<title>http://w3id.org/oseg/ont/oseg&#45;profiles#Iopa</title>
<ellipse fill="none" stroke="#e377c2" cx="1364.29" cy="-866.55" rx="80.72" ry="16.03"/>
<text text-anchor="middle" x="1364.29" y="-862.85" font-family="Times,serif" font-size="14.00">osegprof:Iopa</text>
</g>
<!-- http://w3id.org/oseg/ont/okhmeta&#45;&gt;http://w3id.org/oseg/ont/oseg&#45;profiles#Iopa -->
<g id="edge39" class="edge">
<title>http://w3id.org/oseg/ont/okhmeta&#45;&gt;http://w3id.org/oseg/ont/oseg&#45;profiles#Iopa</title>
<path fill="none" stroke="black" d="M1207.26,-866.5C1228.39,-866.51 1251.52,-866.52 1273.38,-866.52"/>
<polygon fill="black" stroke="black" points="1273.65,-870.02 1283.65,-866.53 1273.66,-863.02 1273.65,-870.02"/>
<text text-anchor="middle" x="1273.07" y="-855.31" font-family="Times,serif" font-size="14.00">dcterms:publisher</text>
</g>
<!-- http://id.loc.gov/vocabulary/iso639&#45;1/en -->
<g id="node24" class="node">
<title>http://id.loc.gov/vocabulary/iso639&#45;1/en</title>
<ellipse fill="none" stroke="#e377c2" cx="978.09" cy="-981.98" rx="45.01" ry="16.03"/>
<text text-anchor="middle" x="978.09" y="-978.28" font-family="Times,serif" font-size="14.00">ns2:en</text>
</g>
<!-- http://w3id.org/oseg/ont/okhmeta&#45;&gt;http://id.loc.gov/vocabulary/iso639&#45;1/en -->
<g id="edge16" class="edge">
<title>http://w3id.org/oseg/ont/okhmeta&#45;&gt;http://id.loc.gov/vocabulary/iso639&#45;1/en</title>
<path fill="none" stroke="black" d="M1109.89,-882.29C1082.98,-902.65 1036.12,-938.09 1006.14,-960.77"/>
<polygon fill="black" stroke="black" points="1003.65,-958.26 997.79,-967.08 1007.87,-963.84 1003.65,-958.26"/>
<text text-anchor="middle" x="993.52" y="-925.33" font-family="Times,serif" font-size="14.00">dcterms:language</text>
</g>
<!-- http://spdx.org/licenses/GPL&#45;3.0&#45;or&#45;later -->
<g id="node28" class="node">
<title>http://spdx.org/licenses/GPL&#45;3.0&#45;or&#45;later</title>
<ellipse fill="none" stroke="#e377c2" cx="1015.36" cy="-639.91" rx="108.79" ry="16.03"/>
<text text-anchor="middle" x="1015.36" y="-636.21" font-family="Times,serif" font-size="14.00">spdxl:GPL&#45;3.0&#45;or&#45;...</text>
</g>
<!-- http://w3id.org/oseg/ont/okhmeta&#45;&gt;http://spdx.org/licenses/GPL&#45;3.0&#45;or&#45;later -->
<g id="edge21" class="edge">
<title>http://w3id.org/oseg/ont/okhmeta&#45;&gt;http://spdx.org/licenses/GPL&#45;3.0&#45;or&#45;later</title>
<path fill="none" stroke="black" d="M1122.51,-850.18C1102.62,-811.17 1052.17,-712.16 1028.28,-665.28"/>
<polygon fill="black" stroke="black" points="1031.4,-663.68 1023.74,-656.36 1025.16,-666.86 1031.4,-663.68"/>
<text text-anchor="middle" x="999.39" y="-761.53" font-family="Times,serif" font-size="14.00">spdx:licenseDeclared</text>
</g>
<!-- http://w3id.org/oseg/ont/1.1.0/okh&#45;meta -->
<g id="node30" class="node">
<title>http://w3id.org/oseg/ont/1.1.0/okh&#45;meta</title>
<ellipse fill="none" stroke="#e377c2" cx="1195.24" cy="-824.74" rx="79.81" ry="16.03"/>
<text text-anchor="middle" x="1195.24" y="-821.04" font-family="Times,serif" font-size="14.00">ns3:okh&#45;meta</text>
</g>
<!-- http://w3id.org/oseg/ont/okhmeta&#45;&gt;http://w3id.org/oseg/ont/1.1.0/okh&#45;meta -->
<g id="edge23" class="edge">
<title>http://w3id.org/oseg/ont/okhmeta&#45;&gt;http://w3id.org/oseg/ont/1.1.0/okh&#45;meta</title>
<path fill="none" stroke="black" d="M1154.8,-850.94C1157.28,-849.33 1159.83,-847.67 1162.39,-846.02"/>
<polygon fill="black" stroke="black" points="1164.52,-848.81 1171.01,-840.43 1160.72,-842.93 1164.52,-848.81"/>
<text text-anchor="middle" x="1132.85" y="-837.28" font-family="Times,serif" font-size="14.00">owl:versionIRI</text>
</g>
<!-- http://w3id.org/oseg/ont/okhmeta#DataTag -->
<g id="node21" class="node">
<title>http://w3id.org/oseg/ont/okhmeta#DataTag</title>
<ellipse fill="none" stroke="#e377c2" cx="493.1" cy="-773.62" rx="100.32" ry="16.03"/>
<text text-anchor="middle" x="493.1" y="-769.92" font-family="Times,serif" font-size="14.00">okhmeta:DataTag</text>
</g>
<!-- http://w3id.org/oseg/ont/okhmeta#DataTag&#45;&gt;http://w3id.org/oseg/ont/okhmeta#Tag -->
<g id="edge10" class="edge">
<title>http://w3id.org/oseg/ont/okhmeta#DataTag&#45;&gt;http://w3id.org/oseg/ont/okhmeta#Tag</title>
<path fill="none" stroke="black" d="M488.98,-757.11C477.17,-709.83 443.16,-573.58 428.74,-515.82"/>
<polygon fill="black" stroke="black" points="432.1,-514.84 426.29,-505.98 425.31,-516.53 432.1,-514.84"/>
<text text-anchor="middle" x="454.36" y="-640.27" font-family="Times,serif" font-size="14.00">a</text>
</g>
<!-- http://w3id.org/oseg/ont/okhmeta#DataTag&#45;&gt;http://w3id.org/oseg/ont/okhmeta#MetaTag -->
<g id="edge25" class="edge">
<title>http://w3id.org/oseg/ont/okhmeta#DataTag&#45;&gt;http://w3id.org/oseg/ont/okhmeta#MetaTag</title>
<path fill="none" stroke="black" d="M489.77,-757.07C479.17,-704.3 446.11,-539.71 433.15,-475.19"/>
<polygon fill="black" stroke="black" points="436.58,-474.5 431.18,-465.38 429.72,-475.87 436.58,-474.5"/>
<text text-anchor="middle" x="384.46" y="-619.93" font-family="Times,serif" font-size="14.00">okhmeta:hasMetaTag</text>
</g>
<!-- http://w3id.org/oseg/ont/okhmeta#DocumentationTag -->
<g id="node23" class="node">
<title>http://w3id.org/oseg/ont/okhmeta#DocumentationTag</title>
<ellipse fill="none" stroke="#e377c2" cx="178.83" cy="-692.01" rx="125.32" ry="16.03"/>
<text text-anchor="middle" x="178.83" y="-688.31" font-family="Times,serif" font-size="14.00">okhmeta:Documenta...</text>
</g>
<!-- http://w3id.org/oseg/ont/okhmeta#DocumentationTag&#45;&gt;http://w3id.org/oseg/ont/okhmeta#Tag -->
<g id="edge15" class="edge">
<title>http://w3id.org/oseg/ont/okhmeta#DocumentationTag&#45;&gt;http://w3id.org/oseg/ont/okhmeta#Tag</title>
<path fill="none" stroke="black" d="M198.33,-675.78C241.59,-639.76 345.69,-553.09 395.16,-511.9"/>
<polygon fill="black" stroke="black" points="397.45,-514.55 402.9,-505.46 392.97,-509.17 397.45,-514.55"/>
<text text-anchor="middle" x="292.25" y="-597.64" font-family="Times,serif" font-size="14.00">a</text>
</g>
<!-- http://w3id.org/oseg/ont/okhmeta#DocumentationTag&#45;&gt;http://w3id.org/oseg/ont/okhmeta#MetaTag -->
<g id="edge33" class="edge">
<title>http://w3id.org/oseg/ont/okhmeta#DocumentationTag&#45;&gt;http://w3id.org/oseg/ont/okhmeta#MetaTag</title>
<path fill="none" stroke="black" d="M195.56,-675.68C238.71,-633.55 353.91,-521.07 404.02,-472.14"/>
<polygon fill="black" stroke="black" points="406.5,-474.61 411.21,-465.12 401.61,-469.61 406.5,-474.61"/>
<text text-anchor="middle" x="222.79" y="-562.71" font-family="Times,serif" font-size="14.00">okhmeta:hasMetaTag</text>
</g>
<!-- http://w3id.org/oseg/ont/okhmeta#LegalTag -->
<g id="node25" class="node">
<title>http://w3id.org/oseg/ont/okhmeta#LegalTag</title>
<ellipse fill="none" stroke="#e377c2" cx="132.61" cy="-396.29" rx="103.89" ry="16.03"/>
<text text-anchor="middle" x="132.61" y="-392.59" font-family="Times,serif" font-size="14.00">okhmeta:LegalTag</text>
</g>
<!-- http://w3id.org/oseg/ont/okhmeta#LegalTag&#45;&gt;http://w3id.org/oseg/ont/okhmeta#Tag -->
<g id="edge43" class="edge">
<title>http://w3id.org/oseg/ont/okhmeta#LegalTag&#45;&gt;http://w3id.org/oseg/ont/okhmeta#Tag</title>
<path fill="none" stroke="black" d="M178.17,-410.94C230.19,-427.68 315.15,-455.01 369.84,-472.6"/>
<polygon fill="black" stroke="black" points="369.09,-476.04 379.68,-475.77 371.24,-469.37 369.09,-476.04"/>
<text text-anchor="middle" x="269.5" y="-445.57" font-family="Times,serif" font-size="14.00">a</text>
</g>
<!-- http://w3id.org/oseg/ont/okhmeta#LegalTag&#45;&gt;http://w3id.org/oseg/ont/okhmeta#MetaTag -->
<g id="edge5" class="edge">
<title>http://w3id.org/oseg/ont/okhmeta#LegalTag&#45;&gt;http://w3id.org/oseg/ont/okhmeta#MetaTag</title>
<path fill="none" stroke="black" d="M201.46,-408.55C245.75,-416.43 303.42,-426.7 349.47,-434.9"/>
<polygon fill="black" stroke="black" points="348.95,-438.37 359.41,-436.67 350.18,-431.48 348.95,-438.37"/>
<text text-anchor="middle" x="198.46" y="-425.53" font-family="Times,serif" font-size="14.00">okhmeta:hasMetaTag</text>
</g>
<!-- http://w3id.org/oseg/ont/okhmeta#MakingTag -->
<g id="node26" class="node">
<title>http://w3id.org/oseg/ont/okhmeta#MakingTag</title>
<ellipse fill="none" stroke="#e377c2" cx="304.66" cy="-732.93" rx="113.69" ry="16.03"/>
<text text-anchor="middle" x="304.66" y="-729.23" font-family="Times,serif" font-size="14.00">okhmeta:MakingTag</text>
</g>
<!-- http://w3id.org/oseg/ont/okhmeta#MakingTag&#45;&gt;http://w3id.org/oseg/ont/okhmeta#Tag -->
<g id="edge19" class="edge">
<title>http://w3id.org/oseg/ont/okhmeta#MakingTag&#45;&gt;http://w3id.org/oseg/ont/okhmeta#Tag</title>
<path fill="none" stroke="black" d="M312.56,-716.58C332.62,-674.99 385.71,-564.96 409.87,-514.89"/>
<polygon fill="black" stroke="black" points="413.1,-516.24 414.3,-505.71 406.8,-513.2 413.1,-516.24"/>
<text text-anchor="middle" x="356.71" y="-604.54" font-family="Times,serif" font-size="14.00">a</text>
</g>
<!-- http://w3id.org/oseg/ont/okhmeta#MakingTag&#45;&gt;http://w3id.org/oseg/ont/okhmeta#MetaTag -->
<g id="edge24" class="edge">
<title>http://w3id.org/oseg/ont/okhmeta#MakingTag&#45;&gt;http://w3id.org/oseg/ont/okhmeta#MetaTag</title>
<path fill="none" stroke="black" d="M311.82,-716.43C332.36,-669.07 391.63,-532.41 416.58,-474.88"/>
<polygon fill="black" stroke="black" points="419.92,-475.98 420.69,-465.41 413.5,-473.19 419.92,-475.98"/>
<text text-anchor="middle" x="325.7" y="-584.46" font-family="Times,serif" font-size="14.00">okhmeta:hasMetaTag</text>
</g>
<!-- http://w3id.org/oseg/ont/okhmeta#QualityTag -->
<g id="node27" class="node">
<title>http://w3id.org/oseg/ont/okhmeta#QualityTag</title>
<ellipse fill="none" stroke="#e377c2" cx="385.75" cy="-161.21" rx="113.27" ry="16.03"/>
<text text-anchor="middle" x="385.75" y="-157.51" font-family="Times,serif" font-size="14.00">okhmeta:QualityTag</text>
</g>
<!-- http://w3id.org/oseg/ont/okhmeta#QualityTag&#45;&gt;http://w3id.org/oseg/ont/okhmeta#Tag -->
<g id="edge47" class="edge">
<title>http://w3id.org/oseg/ont/okhmeta#QualityTag&#45;&gt;http://w3id.org/oseg/ont/okhmeta#Tag</title>
<path fill="none" stroke="black" d="M387.56,-177.49C393.42,-230.31 411.94,-397.32 419.19,-462.76"/>
<polygon fill="black" stroke="black" points="415.76,-463.5 420.34,-473.06 422.71,-462.73 415.76,-463.5"/>
<text text-anchor="middle" x="398.88" y="-308.93" font-family="Times,serif" font-size="14.00">a</text>
</g>
<!-- http://w3id.org/oseg/ont/okhmeta#QualityTag&#45;&gt;http://w3id.org/oseg/ont/okhmeta#MetaTag -->
<g id="edge11" class="edge">
<title>http://w3id.org/oseg/ont/okhmeta#QualityTag&#45;&gt;http://w3id.org/oseg/ont/okhmeta#MetaTag</title>
<path fill="none" stroke="black" d="M388.14,-177.5C395.1,-225.05 415.44,-363.99 424,-422.46"/>
<polygon fill="black" stroke="black" points="420.54,-423.01 425.45,-432.4 427.47,-421.99 420.54,-423.01"/>
<text text-anchor="middle" x="483.07" y="-288.78" font-family="Times,serif" font-size="14.00">okhmeta:hasMetaTag</text>
</g>
<!-- http://w3id.org/oseg/ont/okhmeta#DataGatheringTag -->
<g id="node29" class="node">
<title>http://w3id.org/oseg/ont/okhmeta#DataGatheringTag</title>
<ellipse fill="none" stroke="#e377c2" cx="122.73" cy="-599.47" rx="122.16" ry="16.03"/>
<text text-anchor="middle" x="122.73" y="-595.77" font-family="Times,serif" font-size="14.00">okhmeta:DataGathe...</text>
</g>
<!-- http://w3id.org/oseg/ont/okhmeta#DataGatheringTag&#45;&gt;http://w3id.org/oseg/ont/okhmeta#Tag -->
<g id="edge22" class="edge">
<title>http://w3id.org/oseg/ont/okhmeta#DataGatheringTag&#45;&gt;http://w3id.org/oseg/ont/okhmeta#Tag</title>
<path fill="none" stroke="black" d="M164.36,-584.17C219.35,-563.96 315.99,-528.44 374.04,-507.11"/>
<polygon fill="black" stroke="black" points="375.54,-510.29 383.72,-503.56 373.12,-503.72 375.54,-510.29"/>
<text text-anchor="middle" x="264.7" y="-534.44" font-family="Times,serif" font-size="14.00">a</text>
</g>
<!-- http://w3id.org/oseg/ont/okhmeta#DataGatheringTag&#45;&gt;http://w3id.org/oseg/ont/okhmeta#MetaTag -->
<g id="edge26" class="edge">
<title>http://w3id.org/oseg/ont/okhmeta#DataGatheringTag&#45;&gt;http://w3id.org/oseg/ont/okhmeta#MetaTag</title>
<path fill="none" stroke="black" d="M154.81,-583.64C210.69,-556.05 325.8,-499.24 387.2,-468.93"/>
<polygon fill="black" stroke="black" points="388.8,-472.05 396.21,-464.48 385.7,-465.77 388.8,-472.05"/>
<text text-anchor="middle" x="348" y="-530.08" font-family="Times,serif" font-size="14.00">okhmeta:hasMetaTag</text>
</g>
</g>
</svg>
