<?xml version="1.0" encoding="UTF-8" standalone="no"?>
<!DOCTYPE svg PUBLIC "-//W3C//DTD SVG 1.1//EN"
 "http://www.w3.org/Graphics/SVG/1.1/DTD/svg11.dtd">
<!-- Generated by graphviz version 2.43.0 (0)
 -->
<!-- Title: G Pages: 1 -->
<svg width="2495pt" height="1452pt"
 viewBox="0.00 0.00 2495.00 1452.00" xmlns="http://www.w3.org/2000/svg" xmlns:xlink="http://www.w3.org/1999/xlink">
<g id="graph0" class="graph" transform="scale(1 1) rotate(0) translate(4 1448)">
<title>G</title>
<polygon fill="white" stroke="transparent" points="-4,4 -4,-1448 2491,-1448 2491,4 -4,4"/>
<!-- http://schema.org/URL -->
<g id="node1" class="node">
<title>http://schema.org/URL</title>
<ellipse fill="none" stroke="#e377c2" cx="2022.58" cy="-937.51" rx="75.82" ry="16.03"/>
<text text-anchor="middle" x="2022.58" y="-933.81" font-family="Times,serif" font-size="14.00">schema:URL</text>
</g>
<!-- http://w3id.org/oseg/ont/okh#ComponentReference -->
<g id="node2" class="node">
<title>http://w3id.org/oseg/ont/okh#ComponentReference</title>
<ellipse fill="none" stroke="#e377c2" cx="1550.01" cy="-782.97" rx="123.07" ry="16.03"/>
<text text-anchor="middle" x="1550.01" y="-779.27" font-family="Times,serif" font-size="14.00">okh:ComponentRefe...</text>
</g>
<!-- http://w3id.org/oseg/ont/okh#Reference -->
<g id="node4" class="node">
<title>http://w3id.org/oseg/ont/okh#Reference</title>
<ellipse fill="none" stroke="#e377c2" cx="1529.73" cy="-823.65" rx="84.29" ry="16.03"/>
<text text-anchor="middle" x="1529.73" y="-819.95" font-family="Times,serif" font-size="14.00">okh:Reference</text>
</g>
<!-- http://w3id.org/oseg/ont/okh#ComponentReference&#45;&gt;http://w3id.org/oseg/ont/okh#Reference -->
<g id="edge16" class="edge">
<title>http://w3id.org/oseg/ont/okh#ComponentReference&#45;&gt;http://w3id.org/oseg/ont/okh#Reference</title>
<path fill="none" stroke="black" d="M1541.76,-799.52C1541.68,-799.68 1541.6,-799.84 1541.52,-800"/>
<polygon fill="black" stroke="black" points="1539.23,-796.74 1537.9,-807.25 1545.5,-799.86 1539.23,-796.74"/>
</g>
<!-- http://www.w3.org/2004/02/skos/core#Concept -->
<g id="node5" class="node">
<title>http://www.w3.org/2004/02/skos/core#Concept</title>
<ellipse fill="none" stroke="#1f77b4" cx="1332.7" cy="-511.19" rx="78.48" ry="16.03"/>
<text text-anchor="middle" x="1332.7" y="-507.49" font-family="Times,serif" font-size="14.00">skos:Concept</text>
</g>
<!-- http://w3id.org/oseg/ont/okh#ComponentReference&#45;&gt;http://www.w3.org/2004/02/skos/core#Concept -->
<g id="edge44" class="edge">
<title>http://w3id.org/oseg/ont/okh#ComponentReference&#45;&gt;http://www.w3.org/2004/02/skos/core#Concept</title>
<path fill="none" stroke="black" d="M1537.07,-766.79C1500.38,-720.9 1395.55,-589.79 1352.02,-535.35"/>
<polygon fill="black" stroke="black" points="1354.56,-532.92 1345.58,-527.29 1349.09,-537.29 1354.56,-532.92"/>
<text text-anchor="middle" x="1440.04" y="-654.87" font-family="Times,serif" font-size="14.00">a</text>
</g>
<!-- http://w3id.org/oseg/ont/okhmetaPartsTag -->
<g id="node24" class="node">
<title>http://w3id.org/oseg/ont/okhmetaPartsTag</title>
<ellipse fill="none" stroke="#e377c2" cx="1677.24" cy="-1082.26" rx="103.48" ry="16.03"/>
<text text-anchor="middle" x="1677.24" y="-1078.56" font-family="Times,serif" font-size="14.00">okhmeta:PartsTag</text>
</g>
<!-- http://w3id.org/oseg/ont/okh#ComponentReference&#45;&gt;http://w3id.org/oseg/ont/okhmetaPartsTag -->
<g id="edge23" class="edge">
<title>http://w3id.org/oseg/ont/okh#ComponentReference&#45;&gt;http://w3id.org/oseg/ont/okhmetaPartsTag</title>
<path fill="none" stroke="black" d="M1557.03,-799.49C1578.06,-848.96 1640.64,-996.18 1666.19,-1056.28"/>
<polygon fill="black" stroke="black" points="1663.1,-1057.96 1670.24,-1065.8 1669.54,-1055.22 1663.1,-1057.96"/>
<text text-anchor="middle" x="1534.61" y="-931.68" font-family="Times,serif" font-size="14.00">okhmeta:hasMetaTag</text>
</g>
<!-- http://w3id.org/oseg/ont/okh#Mass -->
<g id="node3" class="node">
<title>http://w3id.org/oseg/ont/okh#Mass</title>
<ellipse fill="none" stroke="#e377c2" cx="1010.2" cy="-616.48" rx="59.29" ry="16.03"/>
<text text-anchor="middle" x="1010.2" y="-612.78" font-family="Times,serif" font-size="14.00">okh:Mass</text>
</g>
<!-- http://w3id.org/oseg/ont/okh#Mass&#45;&gt;http://www.w3.org/2004/02/skos/core#Concept -->
<g id="edge10" class="edge">
<title>http://w3id.org/oseg/ont/okh#Mass&#45;&gt;http://www.w3.org/2004/02/skos/core#Concept</title>
<path fill="none" stroke="black" d="M1048.46,-603.99C1106.23,-585.13 1215.85,-549.34 1280.77,-528.14"/>
<polygon fill="black" stroke="black" points="1281.99,-531.43 1290.41,-525 1279.81,-524.77 1281.99,-531.43"/>
<text text-anchor="middle" x="1160.12" y="-569.87" font-family="Times,serif" font-size="14.00">a</text>
</g>
<!-- http://w3id.org/oseg/ont/okhmetaPhysicalTag -->
<g id="node12" class="node">
<title>http://w3id.org/oseg/ont/okhmetaPhysicalTag</title>
<ellipse fill="none" stroke="#e377c2" cx="754.73" cy="-593.05" rx="118.17" ry="16.03"/>
<text text-anchor="middle" x="754.73" y="-589.35" font-family="Times,serif" font-size="14.00">okhmeta:PhysicalTag</text>
</g>
<!-- http://w3id.org/oseg/ont/okh#Mass&#45;&gt;http://w3id.org/oseg/ont/okhmetaPhysicalTag -->
<g id="edge5" class="edge">
<title>http://w3id.org/oseg/ont/okh#Mass&#45;&gt;http://w3id.org/oseg/ont/okhmetaPhysicalTag</title>
<path fill="none" stroke="black" d="M953.82,-611.31C927.17,-608.86 894.42,-605.86 863.23,-603"/>
<polygon fill="black" stroke="black" points="863.45,-599.5 853.17,-602.08 862.81,-606.47 863.45,-599.5"/>
<text text-anchor="middle" x="831.53" y="-610.95" font-family="Times,serif" font-size="14.00">okhmeta:hasMetaTag</text>
</g>
<!-- http://w3id.org/oseg/ont/okhmetaTransportationTag -->
<g id="node34" class="node">
<title>http://w3id.org/oseg/ont/okhmetaTransportationTag</title>
<ellipse fill="none" stroke="#e377c2" cx="974.53" cy="-866.36" rx="118.17" ry="16.03"/>
<text text-anchor="middle" x="974.53" y="-862.66" font-family="Times,serif" font-size="14.00">okhmeta:Transport...</text>
</g>
<!-- http://w3id.org/oseg/ont/okh#Mass&#45;&gt;http://w3id.org/oseg/ont/okhmetaTransportationTag -->
<g id="edge33" class="edge">
<title>http://w3id.org/oseg/ont/okh#Mass&#45;&gt;http://w3id.org/oseg/ont/okhmetaTransportationTag</title>
<path fill="none" stroke="black" d="M1007.86,-632.88C1001.83,-675.14 985.7,-788.12 978.32,-839.84"/>
<polygon fill="black" stroke="black" points="974.83,-839.51 976.88,-849.9 981.76,-840.5 974.83,-839.51"/>
<text text-anchor="middle" x="916.09" y="-740.16" font-family="Times,serif" font-size="14.00">okhmeta:hasMetaTag</text>
</g>
<!-- http://w3id.org/oseg/ont/okh#FileUrl -->
<g id="node6" class="node">
<title>http://w3id.org/oseg/ont/okh#FileUrl</title>
<ellipse fill="none" stroke="#1f77b4" cx="1864.62" cy="-764.35" rx="68.68" ry="16.03"/>
<text text-anchor="middle" x="1864.62" y="-760.65" font-family="Times,serif" font-size="14.00">okh:FileUrl</text>
</g>
<!-- http://w3id.org/oseg/ont/okh#FileUrl&#45;&gt;http://schema.org/URL -->
<g id="edge36" class="edge">
<title>http://w3id.org/oseg/ont/okh#FileUrl&#45;&gt;http://schema.org/URL</title>
<path fill="none" stroke="black" d="M1879.2,-780.33C1907.03,-810.84 1967.89,-877.55 2000.65,-913.47"/>
<polygon fill="black" stroke="black" points="1998.25,-916.03 2007.58,-921.06 2003.43,-911.32 1998.25,-916.03"/>
</g>
<!-- http://w3id.org/oseg/ont/okh#FileUrl&#45;&gt;http://w3id.org/oseg/ont/okh#ComponentReference -->
<g id="edge13" class="edge">
<title>http://w3id.org/oseg/ont/okh#FileUrl&#45;&gt;http://w3id.org/oseg/ont/okh#ComponentReference</title>
<path fill="none" stroke="black" d="M1797.9,-768.3C1761.5,-770.46 1715.28,-773.19 1672.63,-775.72"/>
<polygon fill="black" stroke="black" points="1672.23,-772.23 1662.45,-776.32 1672.64,-779.22 1672.23,-772.23"/>
</g>
<!-- http://w3id.org/oseg/ont/okh#File -->
<g id="node18" class="node">
<title>http://w3id.org/oseg/ont/okh#File</title>
<ellipse fill="none" stroke="#e377c2" cx="1953.51" cy="-561.43" rx="52.15" ry="16.03"/>
<text text-anchor="middle" x="1953.51" y="-557.73" font-family="Times,serif" font-size="14.00">okh:File</text>
</g>
<!-- http://w3id.org/oseg/ont/okh#FileUrl&#45;&gt;http://w3id.org/oseg/ont/okh#File -->
<g id="edge37" class="edge">
<title>http://w3id.org/oseg/ont/okh#FileUrl&#45;&gt;http://w3id.org/oseg/ont/okh#File</title>
<path fill="none" stroke="black" d="M1871.75,-748.09C1887.15,-712.91 1923.68,-629.52 1942.25,-587.13"/>
<polygon fill="black" stroke="black" points="1945.55,-588.34 1946.35,-577.77 1939.14,-585.53 1945.55,-588.34"/>
<text text-anchor="middle" x="1827" y="-671.41" font-family="Times,serif" font-size="14.00">schema:supersededBy</text>
</g>
<!-- http://w3id.org/oseg/ont/okh#license -->
<g id="node7" class="node">
<title>http://w3id.org/oseg/ont/okh#license</title>
<ellipse fill="none" stroke="#e377c2" cx="1800.17" cy="-233.53" rx="67.76" ry="16.03"/>
<text text-anchor="middle" x="1800.17" y="-229.83" font-family="Times,serif" font-size="14.00">okh:license</text>
</g>
<!-- http://schema.org/license -->
<g id="node8" class="node">
<title>http://schema.org/license</title>
<ellipse fill="none" stroke="#e377c2" cx="1587.58" cy="-279.18" rx="88.28" ry="16.03"/>
<text text-anchor="middle" x="1587.58" y="-275.48" font-family="Times,serif" font-size="14.00">schema:license</text>
</g>
<!-- http://w3id.org/oseg/ont/okh#depth -->
<g id="node9" class="node">
<title>http://w3id.org/oseg/ont/okh#depth</title>
<ellipse fill="none" stroke="#e377c2" cx="73.98" cy="-1119.72" rx="62.45" ry="16.03"/>
<text text-anchor="middle" x="73.98" y="-1116.02" font-family="Times,serif" font-size="14.00">okh:depth</text>
</g>
<!-- http://w3id.org/oseg/ont/okh#okhvPresent -->
<g id="node10" class="node">
<title>http://w3id.org/oseg/ont/okh#okhvPresent</title>
<ellipse fill="none" stroke="#e377c2" cx="1175.82" cy="-1120.94" rx="96.33" ry="16.03"/>
<text text-anchor="middle" x="1175.82" y="-1117.24" font-family="Times,serif" font-size="14.00">okh:okhvPresent</text>
</g>
<!-- http://w3id.org/oseg/ont/okh#okhv -->
<g id="node20" class="node">
<title>http://w3id.org/oseg/ont/okh#okhv</title>
<ellipse fill="none" stroke="#e377c2" cx="1202.24" cy="-1165.91" rx="56.64" ry="16.03"/>
<text text-anchor="middle" x="1202.24" y="-1162.21" font-family="Times,serif" font-size="14.00">okh:okhv</text>
</g>
<!-- http://w3id.org/oseg/ont/okh#okhvPresent&#45;&gt;http://w3id.org/oseg/ont/okh#okhv -->
<g id="edge15" class="edge">
<title>http://w3id.org/oseg/ont/okh#okhvPresent&#45;&gt;http://w3id.org/oseg/ont/okh#okhv</title>
<path fill="none" stroke="black" d="M1185.36,-1137.18C1186.12,-1138.47 1186.89,-1139.79 1187.67,-1141.12"/>
<polygon fill="black" stroke="black" points="1184.72,-1143 1192.8,-1149.85 1190.76,-1139.46 1184.72,-1143"/>
<text text-anchor="middle" x="1133.52" y="-1142.95" font-family="Times,serif" font-size="14.00">subPropertyOf</text>
</g>
<!-- http://w3id.org/oseg/ont/okh#okhvOrig -->
<g id="node39" class="node">
<title>http://w3id.org/oseg/ont/okh#okhvOrig</title>
<ellipse fill="none" stroke="#e377c2" cx="1336.89" cy="-976.29" rx="79.39" ry="16.03"/>
<text text-anchor="middle" x="1336.89" y="-972.59" font-family="Times,serif" font-size="14.00">okh:okhvOrig</text>
</g>
<!-- http://w3id.org/oseg/ont/okh#okhvPresent&#45;&gt;http://w3id.org/oseg/ont/okh#okhvOrig -->
<g id="edge41" class="edge">
<title>http://w3id.org/oseg/ont/okh#okhvPresent&#45;&gt;http://w3id.org/oseg/ont/okh#okhvOrig</title>
<path fill="none" stroke="black" d="M1193.67,-1104.91C1222.21,-1079.28 1278.25,-1028.96 1311.13,-999.43"/>
<polygon fill="black" stroke="black" points="1313.86,-1001.68 1318.96,-992.4 1309.18,-996.47 1313.86,-1001.68"/>
<text text-anchor="middle" x="1224.9" y="-1055.97" font-family="Times,serif" font-size="14.00">seeAlso</text>
</g>
<!-- http://w3id.org/oseg/ont/okh#url -->
<g id="node11" class="node">
<title>http://w3id.org/oseg/ont/okh#url</title>
<ellipse fill="none" stroke="#e377c2" cx="2369.53" cy="-401.83" rx="47.25" ry="16.03"/>
<text text-anchor="middle" x="2369.53" y="-398.13" font-family="Times,serif" font-size="14.00">okh:url</text>
</g>
<!-- http://w3id.org/oseg/ont/okh#height -->
<g id="node13" class="node">
<title>http://w3id.org/oseg/ont/okh#height</title>
<ellipse fill="none" stroke="#e377c2" cx="124.99" cy="-1369.1" rx="65.11" ry="16.03"/>
<text text-anchor="middle" x="124.99" y="-1365.4" font-family="Times,serif" font-size="14.00">okh:height</text>
</g>
<!-- http://w3id.org/oseg/ont/okh#Dimensions -->
<g id="node14" class="node">
<title>http://w3id.org/oseg/ont/okh#Dimensions</title>
<ellipse fill="none" stroke="#e377c2" cx="559.24" cy="-973.27" rx="91.85" ry="16.03"/>
<text text-anchor="middle" x="559.24" y="-969.57" font-family="Times,serif" font-size="14.00">okh:Dimensions</text>
</g>
<!-- http://w3id.org/oseg/ont/okh#okhvStored -->
<g id="node15" class="node">
<title>http://w3id.org/oseg/ont/okh#okhvStored</title>
<ellipse fill="none" stroke="#e377c2" cx="1261.04" cy="-1252.08" rx="90.52" ry="16.03"/>
<text text-anchor="middle" x="1261.04" y="-1248.38" font-family="Times,serif" font-size="14.00">okh:okhvStored</text>
</g>
<!-- http://w3id.org/oseg/ont/okh#openScad -->
<g id="node16" class="node">
<title>http://w3id.org/oseg/ont/okh#openScad</title>
<ellipse fill="none" stroke="#e377c2" cx="318.81" cy="-1240.05" rx="82.05" ry="16.03"/>
<text text-anchor="middle" x="318.81" y="-1236.35" font-family="Times,serif" font-size="14.00">okh:openScad</text>
</g>
<!-- http://w3id.org/oseg/ont/okh#openSCAD -->
<g id="node27" class="node">
<title>http://w3id.org/oseg/ont/okh#openSCAD</title>
<ellipse fill="none" stroke="#e377c2" cx="293.96" cy="-1188.84" rx="86.03" ry="16.03"/>
<text text-anchor="middle" x="293.96" y="-1185.14" font-family="Times,serif" font-size="14.00">okh:openSCAD</text>
</g>
<!-- http://w3id.org/oseg/ont/okh#openScad&#45;&gt;http://w3id.org/oseg/ont/okh#openSCAD -->
<g id="edge26" class="edge">
<title>http://w3id.org/oseg/ont/okh#openScad&#45;&gt;http://w3id.org/oseg/ont/okh#openSCAD</title>
<path fill="none" stroke="black" d="M317.6,-1223.68C316.5,-1220.59 315.15,-1217.29 313.64,-1214"/>
<polygon fill="black" stroke="black" points="316.69,-1212.28 309.04,-1204.94 310.44,-1215.44 316.69,-1212.28"/>
<text text-anchor="middle" x="395.62" y="-1207.64" font-family="Times,serif" font-size="14.00">schema:supersededBy</text>
</g>
<!-- http://w3id.org/oseg/ont/okh#openScad&#45;&gt;http://w3id.org/oseg/ont/okh#openSCAD -->
<g id="edge34" class="edge">
<title>http://w3id.org/oseg/ont/okh#openScad&#45;&gt;http://w3id.org/oseg/ont/okh#openSCAD</title>
<path fill="none" stroke="black" d="M303.66,-1223.84C302,-1220.85 300.39,-1217.67 298.94,-1214.49"/>
<polygon fill="black" stroke="black" points="302.14,-1213.07 295.14,-1205.13 295.66,-1215.71 302.14,-1213.07"/>
<text text-anchor="middle" x="258.8" y="-1207.96" font-family="Times,serif" font-size="14.00">owl:sameAs</text>
</g>
<!-- http://w3id.org/oseg/ont/okh#installationGuide -->
<g id="node17" class="node">
<title>http://w3id.org/oseg/ont/okh#installationGuide</title>
<ellipse fill="none" stroke="#e377c2" cx="1141.09" cy="-266.24" rx="106.55" ry="16.03"/>
<text text-anchor="middle" x="1141.09" y="-262.54" font-family="Times,serif" font-size="14.00">okh:installationG...</text>
</g>
<!-- http://w3id.org/oseg/ont/okh#installationGuide&#45;&gt;http://www.w3.org/2004/02/skos/core#Concept -->
<g id="edge11" class="edge">
<title>http://w3id.org/oseg/ont/okh#installationGuide&#45;&gt;http://www.w3.org/2004/02/skos/core#Concept</title>
<path fill="none" stroke="black" d="M1153.96,-282.69C1187.04,-324.97 1275.14,-437.59 1313.92,-487.18"/>
<polygon fill="black" stroke="black" points="1311.22,-489.41 1320.14,-495.13 1316.74,-485.1 1311.22,-489.41"/>
<text text-anchor="middle" x="1229.44" y="-388.74" font-family="Times,serif" font-size="14.00">a</text>
</g>
<!-- http://w3id.org/oseg/ont/okh#Software -->
<g id="node32" class="node">
<title>http://w3id.org/oseg/ont/okh#Software</title>
<ellipse fill="none" stroke="#e377c2" cx="1100.71" cy="-213.36" rx="78.48" ry="16.03"/>
<text text-anchor="middle" x="1100.71" y="-209.66" font-family="Times,serif" font-size="14.00">okh:Software</text>
</g>
<!-- http://w3id.org/oseg/ont/okh#installationGuide&#45;&gt;http://w3id.org/oseg/ont/okh#Software -->
<g id="edge31" class="edge">
<title>http://w3id.org/oseg/ont/okh#installationGuide&#45;&gt;http://w3id.org/oseg/ont/okh#Software</title>
<path fill="none" stroke="black" d="M1128.54,-249.8C1125.62,-245.98 1122.46,-241.84 1119.35,-237.76"/>
<polygon fill="black" stroke="black" points="1121.97,-235.43 1113.12,-229.61 1116.41,-239.68 1121.97,-235.43"/>
<text text-anchor="middle" x="1201.94" y="-232.58" font-family="Times,serif" font-size="14.00">dcam:domainIncludes</text>
</g>
<!-- http://w3id.org/oseg/ont/okhmetaLegalTag -->
<g id="node19" class="node">
<title>http://w3id.org/oseg/ont/okhmetaLegalTag</title>
<ellipse fill="none" stroke="#e377c2" cx="1651.13" cy="-416.49" rx="103.89" ry="16.03"/>
<text text-anchor="middle" x="1651.13" y="-412.79" font-family="Times,serif" font-size="14.00">okhmeta:LegalTag</text>
</g>
<!-- http://w3id.org/oseg/ont/okh#hasMass -->
<g id="node21" class="node">
<title>http://w3id.org/oseg/ont/okh#hasMass</title>
<ellipse fill="none" stroke="#e377c2" cx="655.4" cy="-327.47" rx="77.15" ry="16.03"/>
<text text-anchor="middle" x="655.4" y="-323.77" font-family="Times,serif" font-size="14.00">okh:hasMass</text>
</g>
<!-- http://w3id.org/oseg/ont/okh#okhvOriginal -->
<g id="node22" class="node">
<title>http://w3id.org/oseg/ont/okh#okhvOriginal</title>
<ellipse fill="none" stroke="#e377c2" cx="1231.5" cy="-1206.58" rx="97.66" ry="16.03"/>
<text text-anchor="middle" x="1231.5" y="-1202.88" font-family="Times,serif" font-size="14.00">okh:okhvOriginal</text>
</g>
<!-- http://w3id.org/oseg/ont/okh#okhvOriginal&#45;&gt;http://w3id.org/oseg/ont/okh#okhvStored -->
<g id="edge8" class="edge">
<title>http://w3id.org/oseg/ont/okh#okhvOriginal&#45;&gt;http://w3id.org/oseg/ont/okh#okhvStored</title>
<path fill="none" stroke="black" d="M1242,-1222.75C1242.93,-1224.19 1243.89,-1225.67 1244.86,-1227.16"/>
<polygon fill="black" stroke="black" points="1242,-1229.17 1250.38,-1235.66 1247.87,-1225.36 1242,-1229.17"/>
<text text-anchor="middle" x="1215.93" y="-1228.76" font-family="Times,serif" font-size="14.00">seeAlso</text>
</g>
<!-- http://w3id.org/oseg/ont/okh#okhvOriginal&#45;&gt;http://w3id.org/oseg/ont/okh#okhv -->
<g id="edge19" class="edge">
<title>http://w3id.org/oseg/ont/okh#okhvOriginal&#45;&gt;http://w3id.org/oseg/ont/okh#okhv</title>
<path fill="none" stroke="black" d="M1219.6,-1190.04C1219.48,-1189.88 1219.36,-1189.71 1219.24,-1189.55"/>
<polygon fill="black" stroke="black" points="1222.53,-1188.12 1213.85,-1182.05 1216.85,-1192.21 1222.53,-1188.12"/>
<text text-anchor="middle" x="1272.42" y="-1178.59" font-family="Times,serif" font-size="14.00">subPropertyOf</text>
</g>
<!-- http://w3id.org/oseg/ont/okh#unit -->
<g id="node23" class="node">
<title>http://w3id.org/oseg/ont/okh#unit</title>
<ellipse fill="none" stroke="#e377c2" cx="807.5" cy="-776.28" rx="53.07" ry="16.03"/>
<text text-anchor="middle" x="807.5" y="-772.58" font-family="Times,serif" font-size="14.00">okh:unit</text>
</g>
<!-- http://w3id.org/oseg/ont/okh#unit&#45;&gt;http://w3id.org/oseg/ont/okh#Mass -->
<g id="edge20" class="edge">
<title>http://w3id.org/oseg/ont/okh#unit&#45;&gt;http://w3id.org/oseg/ont/okh#Mass</title>
<path fill="none" stroke="black" d="M826.94,-760.96C863.09,-732.46 940.79,-671.21 982.45,-638.36"/>
<polygon fill="black" stroke="black" points="984.84,-640.93 990.53,-631.99 980.51,-635.43 984.84,-640.93"/>
<text text-anchor="middle" x="826.7" y="-703.46" font-family="Times,serif" font-size="14.00">dcam:domainIncludes</text>
</g>
<!-- http://w3id.org/oseg/ont/okh#unit&#45;&gt;http://w3id.org/oseg/ont/okh#Dimensions -->
<g id="edge25" class="edge">
<title>http://w3id.org/oseg/ont/okh#unit&#45;&gt;http://w3id.org/oseg/ont/okh#Dimensions</title>
<path fill="none" stroke="black" d="M788.02,-791.74C744.28,-826.45 638.11,-910.69 587.27,-951.03"/>
<polygon fill="black" stroke="black" points="584.98,-948.38 579.32,-957.34 589.33,-953.86 584.98,-948.38"/>
<text text-anchor="middle" x="609.65" y="-875.18" font-family="Times,serif" font-size="14.00">dcam:domainIncludes</text>
</g>
<!-- http://w3id.org/oseg/ont/okh#fileUrl -->
<g id="node25" class="node">
<title>http://w3id.org/oseg/ont/okh#fileUrl</title>
<ellipse fill="none" stroke="#e377c2" cx="2202.43" cy="-501.38" rx="65.11" ry="16.03"/>
<text text-anchor="middle" x="2202.43" y="-497.68" font-family="Times,serif" font-size="14.00">okh:fileUrl</text>
</g>
<!-- http://w3id.org/oseg/ont/okh#fileUrl&#45;&gt;http://w3id.org/oseg/ont/okh#url -->
<g id="edge4" class="edge">
<title>http://w3id.org/oseg/ont/okh#fileUrl&#45;&gt;http://w3id.org/oseg/ont/okh#url</title>
<path fill="none" stroke="black" d="M2227.81,-486.26C2256.98,-468.88 2304.92,-440.32 2336.85,-421.3"/>
<polygon fill="black" stroke="black" points="2339.01,-424.09 2345.81,-415.96 2335.42,-418.07 2339.01,-424.09"/>
<text text-anchor="middle" x="2202.33" y="-457.58" font-family="Times,serif" font-size="14.00">schema:supersededBy</text>
</g>
<!-- http://w3id.org/oseg/ont/okh#fileUrl&#45;&gt;http://w3id.org/oseg/ont/okh#File -->
<g id="edge39" class="edge">
<title>http://w3id.org/oseg/ont/okh#fileUrl&#45;&gt;http://w3id.org/oseg/ont/okh#File</title>
<path fill="none" stroke="black" d="M2155.61,-512.67C2112.76,-523.01 2049.46,-538.28 2005.15,-548.97"/>
<polygon fill="black" stroke="black" points="2004.06,-545.64 1995.16,-551.38 2005.7,-552.44 2004.06,-545.64"/>
<text text-anchor="middle" x="2002.38" y="-534.62" font-family="Times,serif" font-size="14.00">dcam:domainIncludes</text>
</g>
<!-- http://schema.org/url -->
<g id="node33" class="node">
<title>http://schema.org/url</title>
<ellipse fill="none" stroke="#e377c2" cx="2419.97" cy="-526.96" rx="67.35" ry="16.03"/>
<text text-anchor="middle" x="2419.97" y="-523.26" font-family="Times,serif" font-size="14.00">schema:url</text>
</g>
<!-- http://w3id.org/oseg/ont/okh#fileUrl&#45;&gt;http://schema.org/url -->
<g id="edge32" class="edge">
<title>http://w3id.org/oseg/ont/okh#fileUrl&#45;&gt;http://schema.org/url</title>
<path fill="none" stroke="black" d="M2261.3,-508.3C2288.42,-511.49 2320.82,-515.3 2349.26,-518.64"/>
<polygon fill="black" stroke="black" points="2349.2,-522.16 2359.54,-519.85 2350.01,-515.21 2349.2,-522.16"/>
<text text-anchor="middle" x="2331.78" y="-502.27" font-family="Times,serif" font-size="14.00">subPropertyOf</text>
</g>
<!-- http://w3id.org/oseg/ont/okh#width -->
<g id="node26" class="node">
<title>http://w3id.org/oseg/ont/okh#width</title>
<ellipse fill="none" stroke="#e377c2" cx="253.47" cy="-1427.56" rx="61.54" ry="16.03"/>
<text text-anchor="middle" x="253.47" y="-1423.86" font-family="Times,serif" font-size="14.00">okh:width</text>
</g>
<!-- http://w3id.org/oseg/ont/okh#openSCAD&#45;&gt;http://w3id.org/oseg/ont/okh#depth -->
<g id="edge3" class="edge">
<title>http://w3id.org/oseg/ont/okh#openSCAD&#45;&gt;http://w3id.org/oseg/ont/okh#depth</title>
<path fill="none" stroke="black" d="M249.44,-1174.85C213.02,-1163.41 161.55,-1147.23 123.77,-1135.36"/>
<polygon fill="black" stroke="black" points="124.58,-1131.95 113.99,-1132.29 122.49,-1138.63 124.58,-1131.95"/>
<text text-anchor="middle" x="106.61" y="-1158.91" font-family="Times,serif" font-size="14.00">schema:supersededBy</text>
</g>
<!-- http://w3id.org/oseg/ont/okh#openSCAD&#45;&gt;http://w3id.org/oseg/ont/okh#height -->
<g id="edge6" class="edge">
<title>http://w3id.org/oseg/ont/okh#openSCAD&#45;&gt;http://w3id.org/oseg/ont/okh#height</title>
<path fill="none" stroke="black" d="M278.66,-1205.15C248.55,-1237.27 181.51,-1308.8 146.78,-1345.85"/>
<polygon fill="black" stroke="black" points="144.17,-1343.52 139.88,-1353.21 149.27,-1348.3 144.17,-1343.52"/>
<text text-anchor="middle" x="132.72" y="-1279.3" font-family="Times,serif" font-size="14.00">schema:supersededBy</text>
</g>
<!-- http://w3id.org/oseg/ont/okh#openSCAD&#45;&gt;http://w3id.org/oseg/ont/okh#Dimensions -->
<g id="edge7" class="edge">
<title>http://w3id.org/oseg/ont/okh#openSCAD&#45;&gt;http://w3id.org/oseg/ont/okh#Dimensions</title>
<path fill="none" stroke="black" d="M313.46,-1172.99C360.01,-1135.16 477.72,-1039.51 531.57,-995.75"/>
<polygon fill="black" stroke="black" points="533.79,-998.46 539.34,-989.44 529.37,-993.03 533.79,-998.46"/>
<text text-anchor="middle" x="344.52" y="-1088.17" font-family="Times,serif" font-size="14.00">dcam:domainIncludes</text>
</g>
<!-- http://w3id.org/oseg/ont/okh#openSCAD&#45;&gt;http://w3id.org/oseg/ont/okh#width -->
<g id="edge24" class="edge">
<title>http://w3id.org/oseg/ont/okh#openSCAD&#45;&gt;http://w3id.org/oseg/ont/okh#width</title>
<path fill="none" stroke="black" d="M291.17,-1205.24C284.28,-1245.87 266.38,-1351.45 257.96,-1401.07"/>
<polygon fill="black" stroke="black" points="254.49,-1400.59 256.27,-1411.04 261.39,-1401.76 254.49,-1400.59"/>
<text text-anchor="middle" x="194.57" y="-1306.96" font-family="Times,serif" font-size="14.00">schema:supersededBy</text>
</g>
<!-- http://www.w3.org/2001/XMLSchema#string -->
<g id="node29" class="node">
<title>http://www.w3.org/2001/XMLSchema#string</title>
<ellipse fill="none" stroke="#e377c2" cx="63.31" cy="-1255.32" rx="62.87" ry="16.03"/>
<text text-anchor="middle" x="63.31" y="-1251.62" font-family="Times,serif" font-size="14.00">xsd:string</text>
</g>
<!-- http://w3id.org/oseg/ont/okh#openSCAD&#45;&gt;http://www.w3.org/2001/XMLSchema#string -->
<g id="edge28" class="edge">
<title>http://w3id.org/oseg/ont/okh#openSCAD&#45;&gt;http://www.w3.org/2001/XMLSchema#string</title>
<path fill="none" stroke="black" d="M246.72,-1202.45C208.45,-1213.48 154.59,-1229.01 115.14,-1240.38"/>
<polygon fill="black" stroke="black" points="114.08,-1237.05 105.44,-1243.18 116.02,-1243.77 114.08,-1237.05"/>
<text text-anchor="middle" x="108.43" y="-1225.22" font-family="Times,serif" font-size="14.00">dcam:rangeIncludes</text>
</g>
<!-- http://w3id.org/oseg/ont/okh#tsdc -->
<g id="node28" class="node">
<title>http://w3id.org/oseg/ont/okh#tsdc</title>
<ellipse fill="none" stroke="#e377c2" cx="1854.61" cy="-1240.33" rx="54.39" ry="16.03"/>
<text text-anchor="middle" x="1854.61" y="-1236.63" font-family="Times,serif" font-size="14.00">okh:tsdc</text>
</g>
<!-- http://w3id.org/oseg/ont/okh#relatedTsdc -->
<g id="node30" class="node">
<title>http://w3id.org/oseg/ont/okh#relatedTsdc</title>
<ellipse fill="none" stroke="#e377c2" cx="2013.66" cy="-1216.56" rx="91.85" ry="16.03"/>
<text text-anchor="middle" x="2013.66" y="-1212.86" font-family="Times,serif" font-size="14.00">okh:relatedTsdc</text>
</g>
<!-- http://w3id.org/oseg/ont/okh#relatedTsdc&#45;&gt;http://w3id.org/oseg/ont/okh#tsdc -->
<g id="edge27" class="edge">
<title>http://w3id.org/oseg/ont/okh#relatedTsdc&#45;&gt;http://w3id.org/oseg/ont/okh#tsdc</title>
<path fill="none" stroke="black" d="M1928.02,-1222.55C1919.36,-1223.88 1910.81,-1225.31 1902.76,-1226.77"/>
<polygon fill="black" stroke="black" points="1902.05,-1223.34 1892.87,-1228.64 1903.35,-1230.22 1902.05,-1223.34"/>
<text text-anchor="middle" x="1872.89" y="-1213.46" font-family="Times,serif" font-size="14.00">owl:sameAs</text>
</g>
<!-- http://w3id.org/oseg/ont/okh#relatedTsdc&#45;&gt;http://w3id.org/oseg/ont/okh#tsdc -->
<g id="edge29" class="edge">
<title>http://w3id.org/oseg/ont/okh#relatedTsdc&#45;&gt;http://w3id.org/oseg/ont/okh#tsdc</title>
<path fill="none" stroke="black" d="M1964.27,-1230.34C1949.99,-1232.91 1934.19,-1235.37 1919.13,-1237.39"/>
<polygon fill="black" stroke="black" points="1918.32,-1233.96 1908.85,-1238.71 1919.21,-1240.91 1918.32,-1233.96"/>
<text text-anchor="middle" x="2021.7" y="-1237.66" font-family="Times,serif" font-size="14.00">schema:supersededBy</text>
</g>
<!-- http://w3id.org/oseg/ont/okh#Module -->
<g id="node31" class="node">
<title>http://w3id.org/oseg/ont/okh#Module</title>
<ellipse fill="none" stroke="#e377c2" cx="1417.85" cy="-339.65" rx="70.92" ry="16.03"/>
<text text-anchor="middle" x="1417.85" y="-335.95" font-family="Times,serif" font-size="14.00">okh:Module</text>
</g>
<!-- http://w3id.org/oseg/ont/okh#value -->
<g id="node35" class="node">
<title>http://w3id.org/oseg/ont/okh#value</title>
<ellipse fill="none" stroke="#e377c2" cx="840.97" cy="-469.92" rx="60.21" ry="16.03"/>
<text text-anchor="middle" x="840.97" y="-466.22" font-family="Times,serif" font-size="14.00">okh:value</text>
</g>
<!-- http://w3id.org/oseg/ont/okh#value&#45;&gt;http://w3id.org/oseg/ont/okh#Mass -->
<g id="edge42" class="edge">
<title>http://w3id.org/oseg/ont/okh#value&#45;&gt;http://w3id.org/oseg/ont/okh#Mass</title>
<path fill="none" stroke="black" d="M859.08,-485.6C889.23,-511.72 949.83,-564.2 984.43,-594.16"/>
<polygon fill="black" stroke="black" points="982.37,-597.01 992.22,-600.91 986.95,-591.72 982.37,-597.01"/>
<text text-anchor="middle" x="843.75" y="-543.68" font-family="Times,serif" font-size="14.00">dcam:domainIncludes</text>
</g>
<!-- http://w3id.org/oseg/ont/okh#value&#45;&gt;http://w3id.org/oseg/ont/okh#hasMass -->
<g id="edge17" class="edge">
<title>http://w3id.org/oseg/ont/okh#value&#45;&gt;http://w3id.org/oseg/ont/okh#hasMass</title>
<path fill="none" stroke="black" d="M820.76,-454.4C787.66,-428.99 721.8,-378.44 683.95,-349.38"/>
<polygon fill="black" stroke="black" points="685.94,-346.49 675.87,-343.18 681.67,-352.04 685.94,-346.49"/>
<text text-anchor="middle" x="672.35" y="-405.69" font-family="Times,serif" font-size="14.00">schema:supersededBy</text>
</g>
<!-- http://w3id.org/oseg/ont/okh#alternativeLicense -->
<g id="node36" class="node">
<title>http://w3id.org/oseg/ont/okh#alternativeLicense</title>
<ellipse fill="none" stroke="#e377c2" cx="1661.37" cy="-461.61" rx="107.46" ry="16.03"/>
<text text-anchor="middle" x="1661.37" y="-457.91" font-family="Times,serif" font-size="14.00">okh:alternativeLi...</text>
</g>
<!-- http://w3id.org/oseg/ont/okh#alternativeLicense&#45;&gt;http://www.w3.org/2004/02/skos/core#Concept -->
<g id="edge38" class="edge">
<title>http://w3id.org/oseg/ont/okh#alternativeLicense&#45;&gt;http://www.w3.org/2004/02/skos/core#Concept</title>
<path fill="none" stroke="black" d="M1585.14,-473.11C1531.34,-481.22 1459.65,-492.04 1406.42,-500.07"/>
<polygon fill="black" stroke="black" points="1405.73,-496.63 1396.37,-501.59 1406.78,-503.55 1405.73,-496.63"/>
<text text-anchor="middle" x="1491.28" y="-490.39" font-family="Times,serif" font-size="14.00">a</text>
</g>
<!-- http://w3id.org/oseg/ont/okh#alternativeLicense&#45;&gt;http://w3id.org/oseg/ont/okh#license -->
<g id="edge9" class="edge">
<title>http://w3id.org/oseg/ont/okh#alternativeLicense&#45;&gt;http://w3id.org/oseg/ont/okh#license</title>
<path fill="none" stroke="black" d="M1671.35,-445.21C1695.36,-405.75 1756.46,-305.36 1785.02,-258.42"/>
<polygon fill="black" stroke="black" points="1788.07,-260.15 1790.28,-249.78 1782.09,-256.51 1788.07,-260.15"/>
<text text-anchor="middle" x="1808.19" y="-355.62" font-family="Times,serif" font-size="14.00">schema:supersededBy</text>
</g>
<!-- http://w3id.org/oseg/ont/okh#alternativeLicense&#45;&gt;http://schema.org/license -->
<g id="edge2" class="edge">
<title>http://w3id.org/oseg/ont/okh#alternativeLicense&#45;&gt;http://schema.org/license</title>
<path fill="none" stroke="black" d="M1654.69,-445.1C1641.8,-413.21 1613.38,-342.97 1597.98,-304.9"/>
<polygon fill="black" stroke="black" points="1601.18,-303.48 1594.19,-295.52 1594.69,-306.1 1601.18,-303.48"/>
<text text-anchor="middle" x="1567.34" y="-378.8" font-family="Times,serif" font-size="14.00">skos:closeMatch</text>
</g>
<!-- http://w3id.org/oseg/ont/okh#alternativeLicense&#45;&gt;http://w3id.org/oseg/ont/okh#File -->
<g id="edge12" class="edge">
<title>http://w3id.org/oseg/ont/okh#alternativeLicense&#45;&gt;http://w3id.org/oseg/ont/okh#File</title>
<path fill="none" stroke="black" d="M1705.11,-476.55C1759.92,-495.28 1853.35,-527.21 1908.67,-546.11"/>
<polygon fill="black" stroke="black" points="1907.61,-549.45 1918.21,-549.37 1909.88,-542.82 1907.61,-549.45"/>
<text text-anchor="middle" x="1734.39" y="-515.13" font-family="Times,serif" font-size="14.00">dcam:rangeIncludes</text>
</g>
<!-- http://w3id.org/oseg/ont/okh#alternativeLicense&#45;&gt;http://w3id.org/oseg/ont/okhmetaLegalTag -->
<g id="edge21" class="edge">
<title>http://w3id.org/oseg/ont/okh#alternativeLicense&#45;&gt;http://w3id.org/oseg/ont/okhmetaLegalTag</title>
<path fill="none" stroke="black" d="M1657.68,-445.32C1657.5,-444.56 1657.33,-443.8 1657.15,-443.02"/>
<polygon fill="black" stroke="black" points="1660.48,-441.89 1654.86,-432.91 1653.66,-443.43 1660.48,-441.89"/>
<text text-anchor="middle" x="1734.41" y="-432.97" font-family="Times,serif" font-size="14.00">okhmeta:hasMetaTag</text>
</g>
<!-- http://w3id.org/oseg/ont/okh#alternativeLicense&#45;&gt;http://w3id.org/oseg/ont/okh#Module -->
<g id="edge30" class="edge">
<title>http://w3id.org/oseg/ont/okh#alternativeLicense&#45;&gt;http://w3id.org/oseg/ont/okh#Module</title>
<path fill="none" stroke="black" d="M1630.03,-445.92C1585.72,-423.72 1504.78,-383.19 1456.7,-359.11"/>
<polygon fill="black" stroke="black" points="1458.06,-355.87 1447.55,-354.52 1454.92,-362.13 1458.06,-355.87"/>
<text text-anchor="middle" x="1465.37" y="-406.31" font-family="Times,serif" font-size="14.00">dcam:domainIncludes</text>
</g>
<!-- http://w3id.org/oseg/ont/okh#permaURL -->
<g id="node37" class="node">
<title>http://w3id.org/oseg/ont/okh#permaURL</title>
<ellipse fill="none" stroke="#e377c2" cx="2165.39" cy="-657.55" rx="87.86" ry="16.03"/>
<text text-anchor="middle" x="2165.39" y="-653.85" font-family="Times,serif" font-size="14.00">okh:permaURL</text>
</g>
<!-- http://w3id.org/oseg/ont/okh#permaURL&#45;&gt;http://w3id.org/oseg/ont/okh#File -->
<g id="edge22" class="edge">
<title>http://w3id.org/oseg/ont/okh#permaURL&#45;&gt;http://w3id.org/oseg/ont/okh#File</title>
<path fill="none" stroke="black" d="M2131.81,-642.32C2093.9,-625.12 2032.29,-597.17 1992.33,-579.04"/>
<polygon fill="black" stroke="black" points="1993.72,-575.83 1983.17,-574.88 1990.83,-582.2 1993.72,-575.83"/>
<text text-anchor="middle" x="1984.07" y="-614.48" font-family="Times,serif" font-size="14.00">dcam:domainIncludes</text>
</g>
<!-- http://w3id.org/oseg/ont/okh#spdxLicense -->
<g id="node38" class="node">
<title>http://w3id.org/oseg/ont/okh#spdxLicense</title>
<ellipse fill="none" stroke="#e377c2" cx="1593.32" cy="-325.53" rx="94.51" ry="16.03"/>
<text text-anchor="middle" x="1593.32" y="-321.83" font-family="Times,serif" font-size="14.00">okh:spdxLicense</text>
</g>
<!-- http://w3id.org/oseg/ont/okh#spdxLicense&#45;&gt;http://www.w3.org/2004/02/skos/core#Concept -->
<g id="edge40" class="edge">
<title>http://w3id.org/oseg/ont/okh#spdxLicense&#45;&gt;http://www.w3.org/2004/02/skos/core#Concept</title>
<path fill="none" stroke="black" d="M1571.1,-341.36C1524.46,-374.59 1416.29,-451.65 1363.2,-489.46"/>
<polygon fill="black" stroke="black" points="1360.98,-486.75 1354.87,-495.4 1365.04,-492.45 1360.98,-486.75"/>
<text text-anchor="middle" x="1462.65" y="-419.21" font-family="Times,serif" font-size="14.00">a</text>
</g>
<!-- http://w3id.org/oseg/ont/okh#spdxLicense&#45;&gt;http://w3id.org/oseg/ont/okh#license -->
<g id="edge1" class="edge">
<title>http://w3id.org/oseg/ont/okh#spdxLicense&#45;&gt;http://w3id.org/oseg/ont/okh#license</title>
<path fill="none" stroke="black" d="M1627.48,-310.34C1663.34,-294.39 1719.76,-269.29 1758.29,-252.16"/>
<polygon fill="black" stroke="black" points="1759.96,-255.25 1767.67,-247.99 1757.11,-248.85 1759.96,-255.25"/>
<text text-anchor="middle" x="1772.88" y="-285.05" font-family="Times,serif" font-size="14.00">schema:supersededBy</text>
</g>
<!-- http://w3id.org/oseg/ont/okh#spdxLicense&#45;&gt;http://schema.org/license -->
<g id="edge18" class="edge">
<title>http://w3id.org/oseg/ont/okh#spdxLicense&#45;&gt;http://schema.org/license</title>
<path fill="none" stroke="black" d="M1591.28,-309.06C1591.14,-307.97 1591,-306.85 1590.86,-305.73"/>
<polygon fill="black" stroke="black" points="1594.31,-305.09 1589.61,-295.6 1587.37,-305.95 1594.31,-305.09"/>
<text text-anchor="middle" x="1532.07" y="-296.19" font-family="Times,serif" font-size="14.00">skos:closeMatch</text>
</g>
<!-- http://w3id.org/oseg/ont/okh#spdxLicense&#45;&gt;http://w3id.org/oseg/ont/okhmetaLegalTag -->
<g id="edge14" class="edge">
<title>http://w3id.org/oseg/ont/okh#spdxLicense&#45;&gt;http://w3id.org/oseg/ont/okhmetaLegalTag</title>
<path fill="none" stroke="black" d="M1603.65,-341.79C1612.4,-355.55 1625.07,-375.49 1635.12,-391.3"/>
<polygon fill="black" stroke="black" points="1632.37,-393.5 1640.69,-400.06 1638.28,-389.75 1632.37,-393.5"/>
<text text-anchor="middle" x="1619.39" y="-355.35" font-family="Times,serif" font-size="14.00">okhmeta:hasMetaTag</text>
</g>
<!-- http://w3id.org/oseg/ont/okh#spdxLicense&#45;&gt;http://w3id.org/oseg/ont/okh#Module -->
<g id="edge35" class="edge">
<title>http://w3id.org/oseg/ont/okh#spdxLicense&#45;&gt;http://w3id.org/oseg/ont/okh#Module</title>
<path fill="none" stroke="black" d="M1507.39,-332.45C1503.21,-332.78 1499.02,-333.12 1494.87,-333.45"/>
<polygon fill="black" stroke="black" points="1494.33,-329.99 1484.64,-334.28 1494.89,-336.96 1494.33,-329.99"/>
<text text-anchor="middle" x="1579.13" y="-336.75" font-family="Times,serif" font-size="14.00">dcam:domainIncludes</text>
</g>
<!-- http://spdx.org/rdf/terms#ListedLicense -->
<g id="node40" class="node">
<title>http://spdx.org/rdf/terms#ListedLicense</title>
<ellipse fill="none" stroke="#e377c2" cx="1646.29" cy="-16.07" rx="108.38" ry="16.03"/>
<text text-anchor="middle" x="1646.29" y="-12.37" font-family="Times,serif" font-size="14.00">spdx:ListedLicense</text>
</g>
<!-- http://w3id.org/oseg/ont/okh#spdxLicense&#45;&gt;http://spdx.org/rdf/terms#ListedLicense -->
<g id="edge43" class="edge">
<title>http://w3id.org/oseg/ont/okh#spdxLicense&#45;&gt;http://spdx.org/rdf/terms#ListedLicense</title>
<path fill="none" stroke="black" d="M1596.17,-308.89C1604.86,-258.08 1631.13,-104.65 1641.75,-42.56"/>
<polygon fill="black" stroke="black" points="1645.25,-42.86 1643.49,-32.41 1638.35,-41.68 1645.25,-42.86"/>
<text text-anchor="middle" x="1546.46" y="-179.53" font-family="Times,serif" font-size="14.00">dcam:rangeIncludes</text>
</g>
</g>
</svg>
