<?xml version="1.0" encoding="UTF-8" standalone="no"?>
<!DOCTYPE svg PUBLIC "-//W3C//DTD SVG 1.1//EN"
 "http://www.w3.org/Graphics/SVG/1.1/DTD/svg11.dtd">
<!-- Generated by graphviz version 2.43.0 (0)
 -->
<!-- Title: G Pages: 1 -->
<svg width="2343pt" height="1878pt"
 viewBox="0.00 0.00 2343.00 1878.00" xmlns="http://www.w3.org/2000/svg" xmlns:xlink="http://www.w3.org/1999/xlink">
<g id="graph0" class="graph" transform="scale(1 1) rotate(0) translate(4 1874)">
<title>G</title>
<polygon fill="white" stroke="transparent" points="-4,4 -4,-1874 2339,-1874 2339,4 -4,4"/>
<!-- http://w3id.org/oseg/ont/otrl#ODRL -->
<g id="node1" class="node">
<title>http://w3id.org/oseg/ont/otrl#ODRL</title>
<ellipse fill="none" stroke="#e377c2" cx="945.59" cy="-916.18" rx="62.87" ry="16.03"/>
<text text-anchor="middle" x="945.59" y="-912.48" font-family="Times,serif" font-size="14.00">otrl:ODRL</text>
</g>
<!-- http://spdx.org/rdf/terms#SpdxItem -->
<g id="node2" class="node">
<title>http://spdx.org/rdf/terms#SpdxItem</title>
<ellipse fill="none" stroke="#1f77b4" cx="1242.49" cy="-613.01" rx="87.86" ry="16.03"/>
<text text-anchor="middle" x="1242.49" y="-609.31" font-family="Times,serif" font-size="14.00">spdx:SpdxItem</text>
</g>
<!-- http://w3id.org/oseg/ont/otrl#OTRL -->
<g id="node3" class="node">
<title>http://w3id.org/oseg/ont/otrl#OTRL</title>
<ellipse fill="none" stroke="#e377c2" cx="1488.58" cy="-1248.11" rx="60.62" ry="16.03"/>
<text text-anchor="middle" x="1488.58" y="-1244.41" font-family="Times,serif" font-size="14.00">otrl:OTRL</text>
</g>
<!-- http://w3id.org/oseg/ont/otrl#ODRL1 -->
<g id="node4" class="node">
<title>http://w3id.org/oseg/ont/otrl#ODRL1</title>
<ellipse fill="none" stroke="#e377c2" cx="740.97" cy="-747.28" rx="69.09" ry="16.03"/>
<text text-anchor="middle" x="740.97" y="-743.58" font-family="Times,serif" font-size="14.00">otrl:ODRL1</text>
</g>
<!-- http://w3id.org/oseg/ont/otrl#ODRL1&#45;&gt;http://w3id.org/oseg/ont/otrl#ODRL -->
<g id="edge31" class="edge">
<title>http://w3id.org/oseg/ont/otrl#ODRL1&#45;&gt;http://w3id.org/oseg/ont/otrl#ODRL</title>
<path fill="none" stroke="black" d="M760.22,-763.17C796.87,-793.43 876.77,-859.38 918.69,-893.98"/>
<polygon fill="black" stroke="black" points="916.6,-896.79 926.54,-900.46 921.06,-891.4 916.6,-896.79"/>
<text text-anchor="middle" x="834.95" y="-832.38" font-family="Times,serif" font-size="14.00">a</text>
</g>
<!-- http://w3id.org/oseg/ont/otrl#OTRL1 -->
<g id="node5" class="node">
<title>http://w3id.org/oseg/ont/otrl#OTRL1</title>
<ellipse fill="none" stroke="#e377c2" cx="1652.37" cy="-1457.05" rx="67.35" ry="16.03"/>
<text text-anchor="middle" x="1652.37" y="-1453.35" font-family="Times,serif" font-size="14.00">otrl:OTRL1</text>
</g>
<!-- http://w3id.org/oseg/ont/otrl#OTRL1&#45;&gt;http://w3id.org/oseg/ont/otrl#OTRL -->
<g id="edge2" class="edge">
<title>http://w3id.org/oseg/ont/otrl#OTRL1&#45;&gt;http://w3id.org/oseg/ont/otrl#OTRL</title>
<path fill="none" stroke="black" d="M1639.79,-1441C1611.2,-1404.54 1541.25,-1315.3 1507.46,-1272.19"/>
<polygon fill="black" stroke="black" points="1510.13,-1269.92 1501.2,-1264.21 1504.62,-1274.24 1510.13,-1269.92"/>
<text text-anchor="middle" x="1569.12" y="-1360.4" font-family="Times,serif" font-size="14.00">a</text>
</g>
<!-- http://w3id.org/oseg/ont/otrl#OTRL6 -->
<g id="node6" class="node">
<title>http://w3id.org/oseg/ont/otrl#OTRL6</title>
<ellipse fill="none" stroke="#e377c2" cx="1335.72" cy="-1479.01" rx="67.35" ry="16.03"/>
<text text-anchor="middle" x="1335.72" y="-1475.31" font-family="Times,serif" font-size="14.00">otrl:OTRL6</text>
</g>
<!-- http://w3id.org/oseg/ont/otrl#OTRL6&#45;&gt;http://w3id.org/oseg/ont/otrl#OTRL -->
<g id="edge3" class="edge">
<title>http://w3id.org/oseg/ont/otrl#OTRL6&#45;&gt;http://w3id.org/oseg/ont/otrl#OTRL</title>
<path fill="none" stroke="black" d="M1346.47,-1462.77C1372.84,-1422.95 1440.85,-1320.21 1472.25,-1272.78"/>
<polygon fill="black" stroke="black" points="1475.24,-1274.6 1477.84,-1264.33 1469.41,-1270.74 1475.24,-1274.6"/>
<text text-anchor="middle" x="1404.86" y="-1371.58" font-family="Times,serif" font-size="14.00">a</text>
</g>
<!-- http://w3id.org/oseg/ont/otrl#OTRL2 -->
<g id="node7" class="node">
<title>http://w3id.org/oseg/ont/otrl#OTRL2</title>
<ellipse fill="none" stroke="#e377c2" cx="1492.56" cy="-1473.89" rx="67.35" ry="16.03"/>
<text text-anchor="middle" x="1492.56" y="-1470.19" font-family="Times,serif" font-size="14.00">otrl:OTRL2</text>
</g>
<!-- http://w3id.org/oseg/ont/otrl#OTRL2&#45;&gt;http://w3id.org/oseg/ont/otrl#OTRL -->
<g id="edge19" class="edge">
<title>http://w3id.org/oseg/ont/otrl#OTRL2&#45;&gt;http://w3id.org/oseg/ont/otrl#OTRL</title>
<path fill="none" stroke="black" d="M1492.26,-1457.29C1491.58,-1418.46 1489.87,-1321.45 1489.05,-1274.45"/>
<polygon fill="black" stroke="black" points="1492.54,-1274.37 1488.87,-1264.43 1485.55,-1274.49 1492.54,-1274.37"/>
<text text-anchor="middle" x="1486.16" y="-1369.67" font-family="Times,serif" font-size="14.00">a</text>
</g>
<!-- http://w3id.org/oseg/ont/otrl#ODRL3Star -->
<g id="node8" class="node">
<title>http://w3id.org/oseg/ont/otrl#ODRL3Star</title>
<ellipse fill="none" stroke="#e377c2" cx="657.26" cy="-884.36" rx="90.52" ry="16.03"/>
<text text-anchor="middle" x="657.26" y="-880.66" font-family="Times,serif" font-size="14.00">otrl:ODRL3Star</text>
</g>
<!-- http://w3id.org/oseg/ont/otrl#ODRL3Star&#45;&gt;http://w3id.org/oseg/ont/otrl#ODRL -->
<g id="edge14" class="edge">
<title>http://w3id.org/oseg/ont/otrl#ODRL3Star&#45;&gt;http://w3id.org/oseg/ont/otrl#ODRL</title>
<path fill="none" stroke="black" d="M734.53,-892.89C779.01,-897.8 834.4,-903.91 877.27,-908.64"/>
<polygon fill="black" stroke="black" points="877.01,-912.14 887.33,-909.75 877.78,-905.18 877.01,-912.14"/>
<text text-anchor="middle" x="801.4" y="-904.57" font-family="Times,serif" font-size="14.00">a</text>
</g>
<!-- http://w3id.org/oseg/ont/otrl#OTRL5 -->
<g id="node9" class="node">
<title>http://w3id.org/oseg/ont/otrl#OTRL5</title>
<ellipse fill="none" stroke="#e377c2" cx="1569.45" cy="-1045.36" rx="67.35" ry="16.03"/>
<text text-anchor="middle" x="1569.45" y="-1041.66" font-family="Times,serif" font-size="14.00">otrl:OTRL5</text>
</g>
<!-- http://w3id.org/oseg/ont/otrl#OTRL5&#45;&gt;http://w3id.org/oseg/ont/otrl#OTRL -->
<g id="edge22" class="edge">
<title>http://w3id.org/oseg/ont/otrl#OTRL5&#45;&gt;http://w3id.org/oseg/ont/otrl#OTRL</title>
<path fill="none" stroke="black" d="M1562.97,-1061.61C1548.95,-1096.76 1515.72,-1180.08 1498.82,-1222.43"/>
<polygon fill="black" stroke="black" points="1495.55,-1221.2 1495.09,-1231.78 1502.05,-1223.79 1495.55,-1221.2"/>
<text text-anchor="middle" x="1526.4" y="-1145.82" font-family="Times,serif" font-size="14.00">a</text>
</g>
<!-- http://w3id.org/oseg/ont/otrl#ODRL3 -->
<g id="node10" class="node">
<title>http://w3id.org/oseg/ont/otrl#ODRL3</title>
<ellipse fill="none" stroke="#e377c2" cx="1116.55" cy="-924.96" rx="69.09" ry="16.03"/>
<text text-anchor="middle" x="1116.55" y="-921.26" font-family="Times,serif" font-size="14.00">otrl:ODRL3</text>
</g>
<!-- http://w3id.org/oseg/ont/otrl#ODRL3&#45;&gt;http://w3id.org/oseg/ont/otrl#ODRL -->
<g id="edge37" class="edge">
<title>http://w3id.org/oseg/ont/otrl#ODRL3&#45;&gt;http://w3id.org/oseg/ont/otrl#ODRL</title>
<path fill="none" stroke="black" d="M1048.49,-921.47C1038.29,-920.94 1027.75,-920.4 1017.48,-919.88"/>
<polygon fill="black" stroke="black" points="1017.49,-916.37 1007.32,-919.35 1017.13,-923.36 1017.49,-916.37"/>
<text text-anchor="middle" x="1028.49" y="-924.47" font-family="Times,serif" font-size="14.00">a</text>
</g>
<!-- http://w3id.org/oseg/ont/oseg&#45;profiles#martinHaeuer -->
<g id="node11" class="node">
<title>http://w3id.org/oseg/ont/oseg&#45;profiles#martinHaeuer</title>
<ellipse fill="none" stroke="#e377c2" cx="1686.64" cy="-707.03" rx="116.85" ry="16.03"/>
<text text-anchor="middle" x="1686.64" y="-703.33" font-family="Times,serif" font-size="14.00">osegprof:martinHa...</text>
</g>
<!-- http://www.w3.org/1999/02/22&#45;rdf&#45;syntax&#45;ns#langString -->
<g id="node12" class="node">
<title>http://www.w3.org/1999/02/22&#45;rdf&#45;syntax&#45;ns#langString</title>
<ellipse fill="none" stroke="#e377c2" cx="1395.08" cy="-897.19" rx="83.38" ry="16.03"/>
<text text-anchor="middle" x="1395.08" y="-893.49" font-family="Times,serif" font-size="14.00">rdf:langString</text>
</g>
<!-- http://w3id.org/oseg/ont/otrl#ODRL4 -->
<g id="node13" class="node">
<title>http://w3id.org/oseg/ont/otrl#ODRL4</title>
<ellipse fill="none" stroke="#e377c2" cx="874.85" cy="-625.28" rx="69.09" ry="16.03"/>
<text text-anchor="middle" x="874.85" y="-621.58" font-family="Times,serif" font-size="14.00">otrl:ODRL4</text>
</g>
<!-- http://w3id.org/oseg/ont/otrl#ODRL4&#45;&gt;http://w3id.org/oseg/ont/otrl#ODRL -->
<g id="edge39" class="edge">
<title>http://w3id.org/oseg/ont/otrl#ODRL4&#45;&gt;http://w3id.org/oseg/ont/otrl#ODRL</title>
<path fill="none" stroke="black" d="M878.85,-641.75C890.58,-689.95 924.88,-831.02 939.2,-889.9"/>
<polygon fill="black" stroke="black" points="935.87,-891 941.63,-899.89 942.67,-889.35 935.87,-891"/>
<text text-anchor="middle" x="904.53" y="-769.62" font-family="Times,serif" font-size="14.00">a</text>
</g>
<!-- http://w3id.org/oseg/ont/oseg&#45;profiles#Iopa -->
<g id="node14" class="node">
<title>http://w3id.org/oseg/ont/oseg&#45;profiles#Iopa</title>
<ellipse fill="none" stroke="#e377c2" cx="1491.02" cy="-560.61" rx="80.72" ry="16.03"/>
<text text-anchor="middle" x="1491.02" y="-556.91" font-family="Times,serif" font-size="14.00">osegprof:Iopa</text>
</g>
<!-- http://w3id.org/oseg/ont/otrl#exitCriteria -->
<g id="node15" class="node">
<title>http://w3id.org/oseg/ont/otrl#exitCriteria</title>
<ellipse fill="none" stroke="#e377c2" cx="1245.76" cy="-1039.31" rx="91.43" ry="16.03"/>
<text text-anchor="middle" x="1245.76" y="-1035.61" font-family="Times,serif" font-size="14.00">otrl:exitCriteria</text>
</g>
<!-- http://w3id.org/oseg/ont/otrl#exitCriteria&#45;&gt;http://w3id.org/oseg/ont/otrl#ODRL -->
<g id="edge33" class="edge">
<title>http://w3id.org/oseg/ont/otrl#exitCriteria&#45;&gt;http://w3id.org/oseg/ont/otrl#ODRL</title>
<path fill="none" stroke="black" d="M1209.25,-1024.33C1153.75,-1001.57 1048.35,-958.33 989,-933.99"/>
<polygon fill="black" stroke="black" points="990.12,-930.67 979.54,-930.11 987.46,-937.14 990.12,-930.67"/>
<text text-anchor="middle" x="1021.13" y="-982.96" font-family="Times,serif" font-size="14.00">dcam:domainIncludes</text>
</g>
<!-- http://w3id.org/oseg/ont/otrl#exitCriteria&#45;&gt;http://w3id.org/oseg/ont/otrl#OTRL -->
<g id="edge10" class="edge">
<title>http://w3id.org/oseg/ont/otrl#exitCriteria&#45;&gt;http://w3id.org/oseg/ont/otrl#OTRL</title>
<path fill="none" stroke="black" d="M1264.41,-1055.35C1307.33,-1092.25 1413.19,-1183.28 1462.51,-1225.69"/>
<polygon fill="black" stroke="black" points="1460.34,-1228.44 1470.2,-1232.3 1464.9,-1223.13 1460.34,-1228.44"/>
<text text-anchor="middle" x="1285.46" y="-1144.32" font-family="Times,serif" font-size="14.00">dcam:domainIncludes</text>
</g>
<!-- http://w3id.org/oseg/ont/otrl#exitCriteria&#45;&gt;http://www.w3.org/1999/02/22&#45;rdf&#45;syntax&#45;ns#langString -->
<g id="edge20" class="edge">
<title>http://w3id.org/oseg/ont/otrl#exitCriteria&#45;&gt;http://www.w3.org/1999/02/22&#45;rdf&#45;syntax&#45;ns#langString</title>
<path fill="none" stroke="black" d="M1262.6,-1023.28C1289.03,-998.12 1340.39,-949.24 1370.81,-920.28"/>
<polygon fill="black" stroke="black" points="1373.24,-922.81 1378.07,-913.38 1368.41,-917.74 1373.24,-922.81"/>
<text text-anchor="middle" x="1295.71" y="-975.58" font-family="Times,serif" font-size="14.00">range</text>
</g>
<!-- http://w3id.org/oseg/ont/1.1.0/otrl -->
<g id="node16" class="node">
<title>http://w3id.org/oseg/ont/1.1.0/otrl</title>
<ellipse fill="none" stroke="#e377c2" cx="1434.22" cy="-774.84" rx="50.82" ry="16.03"/>
<text text-anchor="middle" x="1434.22" y="-771.14" font-family="Times,serif" font-size="14.00">ns1:otrl</text>
</g>
<!-- http://w3id.org/oseg/ont/otrl#OTRL3 -->
<g id="node17" class="node">
<title>http://w3id.org/oseg/ont/otrl#OTRL3</title>
<ellipse fill="none" stroke="#e377c2" cx="1738.71" cy="-1362.43" rx="67.35" ry="16.03"/>
<text text-anchor="middle" x="1738.71" y="-1358.73" font-family="Times,serif" font-size="14.00">otrl:OTRL3</text>
</g>
<!-- http://w3id.org/oseg/ont/otrl#OTRL3&#45;&gt;http://w3id.org/oseg/ont/otrl#OTRL -->
<g id="edge34" class="edge">
<title>http://w3id.org/oseg/ont/otrl#OTRL3&#45;&gt;http://w3id.org/oseg/ont/otrl#OTRL</title>
<path fill="none" stroke="black" d="M1707.03,-1347.95C1661.71,-1327.24 1578.37,-1289.15 1528.76,-1266.48"/>
<polygon fill="black" stroke="black" points="1530.16,-1263.27 1519.61,-1262.29 1527.25,-1269.63 1530.16,-1263.27"/>
<text text-anchor="middle" x="1613.4" y="-1311.01" font-family="Times,serif" font-size="14.00">a</text>
</g>
<!-- http://w3id.org/oseg/ont/otrl#OTRL4 -->
<g id="node18" class="node">
<title>http://w3id.org/oseg/ont/otrl#OTRL4</title>
<ellipse fill="none" stroke="#e377c2" cx="1751.1" cy="-1220.84" rx="67.35" ry="16.03"/>
<text text-anchor="middle" x="1751.1" y="-1217.14" font-family="Times,serif" font-size="14.00">otrl:OTRL4</text>
</g>
<!-- http://w3id.org/oseg/ont/otrl#OTRL4&#45;&gt;http://w3id.org/oseg/ont/otrl#OTRL -->
<g id="edge17" class="edge">
<title>http://w3id.org/oseg/ont/otrl#OTRL4&#45;&gt;http://w3id.org/oseg/ont/otrl#OTRL</title>
<path fill="none" stroke="black" d="M1689.22,-1227.27C1649.12,-1231.44 1596.88,-1236.86 1555.76,-1241.13"/>
<polygon fill="black" stroke="black" points="1555.15,-1237.68 1545.56,-1242.19 1555.87,-1244.64 1555.15,-1237.68"/>
<text text-anchor="middle" x="1617.99" y="-1238" font-family="Times,serif" font-size="14.00">a</text>
</g>
<!-- http://w3id.org/oseg/ont/otrl -->
<g id="node19" class="node">
<title>http://w3id.org/oseg/ont/otrl</title>
<ellipse fill="none" stroke="#e377c2" cx="1469.5" cy="-602.09" rx="50.82" ry="16.03"/>
<text text-anchor="middle" x="1469.5" y="-598.39" font-family="Times,serif" font-size="14.00">ns2:otrl</text>
</g>
<!-- http://w3id.org/oseg/ont/otrl&#45;&gt;http://spdx.org/rdf/terms#SpdxItem -->
<g id="edge18" class="edge">
<title>http://w3id.org/oseg/ont/otrl&#45;&gt;http://spdx.org/rdf/terms#SpdxItem</title>
<path fill="none" stroke="black" d="M1419.12,-604.52C1395.15,-605.67 1365.68,-607.09 1337.73,-608.43"/>
<polygon fill="black" stroke="black" points="1337.33,-604.95 1327.51,-608.92 1337.67,-611.94 1337.33,-604.95"/>
<text text-anchor="middle" x="1373.92" y="-610.27" font-family="Times,serif" font-size="14.00">a</text>
</g>
<!-- http://w3id.org/oseg/ont/otrl&#45;&gt;http://w3id.org/oseg/ont/oseg&#45;profiles#martinHaeuer -->
<g id="edge8" class="edge">
<title>http://w3id.org/oseg/ont/otrl&#45;&gt;http://w3id.org/oseg/ont/oseg&#45;profiles#martinHaeuer</title>
<path fill="none" stroke="black" d="M1490.44,-617.03C1523.22,-635.78 1587.59,-667.43 1633.67,-687.88"/>
<polygon fill="black" stroke="black" points="1632.36,-691.13 1642.92,-691.94 1635.17,-684.72 1632.36,-691.13"/>
<text text-anchor="middle" x="1617.55" y="-656.26" font-family="Times,serif" font-size="14.00">schema:creator</text>
</g>
<!-- http://w3id.org/oseg/ont/otrl&#45;&gt;http://w3id.org/oseg/ont/oseg&#45;profiles#martinHaeuer -->
<g id="edge21" class="edge">
<title>http://w3id.org/oseg/ont/otrl&#45;&gt;http://w3id.org/oseg/ont/oseg&#45;profiles#martinHaeuer</title>
<path fill="none" stroke="black" d="M1505.14,-613.73C1546.86,-631.35 1615.24,-664.4 1655.11,-686.18"/>
<polygon fill="black" stroke="black" points="1653.43,-689.26 1663.88,-691.06 1656.83,-683.14 1653.43,-689.26"/>
<text text-anchor="middle" x="1637.62" y="-638.75" font-family="Times,serif" font-size="14.00">dcterms:creator</text>
</g>
<!-- http://w3id.org/oseg/ont/otrl&#45;&gt;http://w3id.org/oseg/ont/oseg&#45;profiles#Iopa -->
<g id="edge13" class="edge">
<title>http://w3id.org/oseg/ont/otrl&#45;&gt;http://w3id.org/oseg/ont/oseg&#45;profiles#Iopa</title>
<path fill="none" stroke="black" d="M1478,-585.7C1478.05,-585.61 1478.09,-585.52 1478.14,-585.43"/>
<polygon fill="black" stroke="black" points="1481.07,-587.38 1482.57,-576.89 1474.86,-584.15 1481.07,-587.38"/>
<text text-anchor="middle" x="1412.57" y="-574.36" font-family="Times,serif" font-size="14.00">dcterms:publisher</text>
</g>
<!-- http://w3id.org/oseg/ont/otrl&#45;&gt;http://w3id.org/oseg/ont/1.1.0/otrl -->
<g id="edge15" class="edge">
<title>http://w3id.org/oseg/ont/otrl&#45;&gt;http://w3id.org/oseg/ont/1.1.0/otrl</title>
<path fill="none" stroke="black" d="M1466.18,-618.34C1460.06,-648.31 1446.95,-712.51 1439.57,-748.68"/>
<polygon fill="black" stroke="black" points="1436.13,-748.01 1437.56,-758.51 1442.99,-749.41 1436.13,-748.01"/>
<text text-anchor="middle" x="1401.37" y="-687.31" font-family="Times,serif" font-size="14.00">owl:versionIRI</text>
</g>
<!-- http://w3id.org/oseg/ont/oseg&#45;profiles#robinVobruba -->
<g id="node21" class="node">
<title>http://w3id.org/oseg/ont/oseg&#45;profiles#robinVobruba</title>
<ellipse fill="none" stroke="#e377c2" cx="1452.46" cy="-649.13" rx="113.69" ry="16.03"/>
<text text-anchor="middle" x="1452.46" y="-645.43" font-family="Times,serif" font-size="14.00">osegprof:robinVob...</text>
</g>
<!-- http://w3id.org/oseg/ont/otrl&#45;&gt;http://w3id.org/oseg/ont/oseg&#45;profiles#robinVobruba -->
<g id="edge25" class="edge">
<title>http://w3id.org/oseg/ont/otrl&#45;&gt;http://w3id.org/oseg/ont/oseg&#45;profiles#robinVobruba</title>
<path fill="none" stroke="black" d="M1456.77,-617.9C1456.06,-619.54 1455.39,-621.24 1454.77,-622.95"/>
<polygon fill="black" stroke="black" points="1451.36,-622.13 1451.74,-632.72 1458.04,-624.2 1451.36,-622.13"/>
<text text-anchor="middle" x="1511.27" y="-624.23" font-family="Times,serif" font-size="14.00">schema:creator</text>
</g>
<!-- http://w3id.org/oseg/ont/otrl&#45;&gt;http://w3id.org/oseg/ont/oseg&#45;profiles#robinVobruba -->
<g id="edge27" class="edge">
<title>http://w3id.org/oseg/ont/otrl&#45;&gt;http://w3id.org/oseg/ont/oseg&#45;profiles#robinVobruba</title>
<path fill="none" stroke="black" d="M1470.19,-618.6C1469.83,-620.03 1469.42,-621.51 1468.97,-622.99"/>
<polygon fill="black" stroke="black" points="1465.54,-622.17 1465.43,-632.76 1472.13,-624.55 1465.54,-622.17"/>
<text text-anchor="middle" x="1412.08" y="-624.6" font-family="Times,serif" font-size="14.00">dcterms:creator</text>
</g>
<!-- http://spdx.org/licenses/GPL&#45;3.0&#45;or&#45;later -->
<g id="node22" class="node">
<title>http://spdx.org/licenses/GPL&#45;3.0&#45;or&#45;later</title>
<ellipse fill="none" stroke="#e377c2" cx="1295.32" cy="-511.55" rx="108.79" ry="16.03"/>
<text text-anchor="middle" x="1295.32" y="-507.85" font-family="Times,serif" font-size="14.00">spdxl:GPL&#45;3.0&#45;or&#45;...</text>
</g>
<!-- http://w3id.org/oseg/ont/otrl&#45;&gt;http://spdx.org/licenses/GPL&#45;3.0&#45;or&#45;later -->
<g id="edge30" class="edge">
<title>http://w3id.org/oseg/ont/otrl&#45;&gt;http://spdx.org/licenses/GPL&#45;3.0&#45;or&#45;later</title>
<path fill="none" stroke="black" d="M1442.66,-588.14C1413.7,-573.09 1367.31,-548.98 1334.33,-531.83"/>
<polygon fill="black" stroke="black" points="1335.89,-528.7 1325.4,-527.19 1332.66,-534.91 1335.89,-528.7"/>
<text text-anchor="middle" x="1312.49" y="-548.79" font-family="Times,serif" font-size="14.00">spdx:licenseDeclared</text>
</g>
<!-- http://id.loc.gov/vocabulary/iso639&#45;1/en -->
<g id="node23" class="node">
<title>http://id.loc.gov/vocabulary/iso639&#45;1/en</title>
<ellipse fill="none" stroke="#e377c2" cx="1634.76" cy="-548.86" rx="45.01" ry="16.03"/>
<text text-anchor="middle" x="1634.76" y="-545.16" font-family="Times,serif" font-size="14.00">ns3:en</text>
</g>
<!-- http://w3id.org/oseg/ont/otrl&#45;&gt;http://id.loc.gov/vocabulary/iso639&#45;1/en -->
<g id="edge36" class="edge">
<title>http://w3id.org/oseg/ont/otrl&#45;&gt;http://id.loc.gov/vocabulary/iso639&#45;1/en</title>
<path fill="none" stroke="black" d="M1505.35,-590.54C1530.63,-582.4 1564.62,-571.45 1591.42,-562.82"/>
<polygon fill="black" stroke="black" points="1592.5,-566.15 1600.94,-559.75 1590.35,-559.49 1592.5,-566.15"/>
<text text-anchor="middle" x="1612.89" y="-580.48" font-family="Times,serif" font-size="14.00">dcterms:language</text>
</g>
<!-- http://w3id.org/oseg/ont/otrl#ODRL2 -->
<g id="node20" class="node">
<title>http://w3id.org/oseg/ont/otrl#ODRL2</title>
<ellipse fill="none" stroke="#e377c2" cx="829.87" cy="-1096.85" rx="69.09" ry="16.03"/>
<text text-anchor="middle" x="829.87" y="-1093.15" font-family="Times,serif" font-size="14.00">otrl:ODRL2</text>
</g>
<!-- http://w3id.org/oseg/ont/otrl#ODRL2&#45;&gt;http://w3id.org/oseg/ont/otrl#ODRL -->
<g id="edge23" class="edge">
<title>http://w3id.org/oseg/ont/otrl#ODRL2&#45;&gt;http://w3id.org/oseg/ont/otrl#ODRL</title>
<path fill="none" stroke="black" d="M840.35,-1080.5C860.66,-1048.79 905.51,-978.76 929.58,-941.18"/>
<polygon fill="black" stroke="black" points="932.78,-942.68 935.23,-932.37 926.89,-938.9 932.78,-942.68"/>
<text text-anchor="middle" x="880.46" y="-1014.64" font-family="Times,serif" font-size="14.00">a</text>
</g>
<!-- http://w3id.org/oseg/ont/otrl#goal -->
<g id="node24" class="node">
<title>http://w3id.org/oseg/ont/otrl#goal</title>
<ellipse fill="none" stroke="#e377c2" cx="1224.07" cy="-1080.16" rx="54.39" ry="16.03"/>
<text text-anchor="middle" x="1224.07" y="-1076.46" font-family="Times,serif" font-size="14.00">otrl:goal</text>
</g>
<!-- http://w3id.org/oseg/ont/otrl#goal&#45;&gt;http://w3id.org/oseg/ont/otrl#ODRL -->
<g id="edge12" class="edge">
<title>http://w3id.org/oseg/ont/otrl#goal&#45;&gt;http://w3id.org/oseg/ont/otrl#ODRL</title>
<path fill="none" stroke="black" d="M1199.36,-1065.61C1149.45,-1036.22 1036.55,-969.74 979.68,-936.26"/>
<polygon fill="black" stroke="black" points="981.45,-933.23 971.05,-931.18 977.89,-939.27 981.45,-933.23"/>
<text text-anchor="middle" x="1011.52" y="-1004.73" font-family="Times,serif" font-size="14.00">dcam:domainIncludes</text>
</g>
<!-- http://w3id.org/oseg/ont/otrl#goal&#45;&gt;http://w3id.org/oseg/ont/otrl#OTRL -->
<g id="edge35" class="edge">
<title>http://w3id.org/oseg/ont/otrl#goal&#45;&gt;http://w3id.org/oseg/ont/otrl#OTRL</title>
<path fill="none" stroke="black" d="M1247.54,-1095.06C1294.97,-1125.18 1402.29,-1193.32 1456.28,-1227.6"/>
<polygon fill="black" stroke="black" points="1454.46,-1230.59 1464.78,-1233 1458.21,-1224.68 1454.46,-1230.59"/>
<text text-anchor="middle" x="1273.91" y="-1165.13" font-family="Times,serif" font-size="14.00">dcam:domainIncludes</text>
</g>
<!-- http://w3id.org/oseg/ont/otrl#goal&#45;&gt;http://www.w3.org/1999/02/22&#45;rdf&#45;syntax&#45;ns#langString -->
<g id="edge9" class="edge">
<title>http://w3id.org/oseg/ont/otrl#goal&#45;&gt;http://www.w3.org/1999/02/22&#45;rdf&#45;syntax&#45;ns#langString</title>
<path fill="none" stroke="black" d="M1238.95,-1064.24C1269.14,-1031.94 1337.74,-958.54 1373.1,-920.71"/>
<polygon fill="black" stroke="black" points="1375.84,-922.9 1380.11,-913.2 1370.73,-918.12 1375.84,-922.9"/>
<text text-anchor="middle" x="1285.02" y="-996.28" font-family="Times,serif" font-size="14.00">range</text>
</g>
<!-- http://w3id.org/oseg/ont/otrl#Odrl4 -->
<g id="node25" class="node">
<title>http://w3id.org/oseg/ont/otrl#Odrl4</title>
<ellipse fill="none" stroke="#e377c2" cx="802.24" cy="-377.41" rx="61.54" ry="16.03"/>
<text text-anchor="middle" x="802.24" y="-373.71" font-family="Times,serif" font-size="14.00">otrl:Odrl4</text>
</g>
<!-- http://w3id.org/oseg/ont/otrl#Odrl4&#45;&gt;http://w3id.org/oseg/ont/otrl#ODRL4 -->
<g id="edge11" class="edge">
<title>http://w3id.org/oseg/ont/otrl#Odrl4&#45;&gt;http://w3id.org/oseg/ont/otrl#ODRL4</title>
<path fill="none" stroke="black" d="M807,-393.67C819.31,-435.69 852.25,-548.14 867.24,-599.3"/>
<polygon fill="black" stroke="black" points="863.9,-600.34 870.07,-608.96 870.61,-598.37 863.9,-600.34"/>
<text text-anchor="middle" x="757.12" y="-500.29" font-family="Times,serif" font-size="14.00">schema:supersededBy</text>
</g>
<!-- http://w3id.org/oseg/ont/otrl#Odrl1 -->
<g id="node26" class="node">
<title>http://w3id.org/oseg/ont/otrl#Odrl1</title>
<ellipse fill="none" stroke="black" cx="416.88" cy="-521.17" rx="191.75" ry="16.03"/>
<text text-anchor="middle" x="416.88" y="-517.47" font-family="Times,serif" font-size="14.00">http://w3id.org/oseg/ont/otrl#Odrl1</text>
</g>
<!-- http://w3id.org/oseg/ont/otrl#Odrl1&#45;&gt;http://w3id.org/oseg/ont/otrl#ODRL1 -->
<g id="edge1" class="edge">
<title>http://w3id.org/oseg/ont/otrl#Odrl1&#45;&gt;http://w3id.org/oseg/ont/otrl#ODRL1</title>
<path fill="none" stroke="black" d="M440.19,-537.43C497.58,-577.47 645.71,-680.82 710.2,-725.82"/>
<polygon fill="black" stroke="black" points="708.53,-728.92 718.73,-731.77 712.53,-723.18 708.53,-728.92"/>
<text text-anchor="middle" x="495.2" y="-635.43" font-family="Times,serif" font-size="14.00">schema:supersededBy</text>
</g>
<!-- http://w3id.org/oseg/ont/otrl#Odrl3Star -->
<g id="node27" class="node">
<title>http://w3id.org/oseg/ont/otrl#Odrl3Star</title>
<ellipse fill="none" stroke="black" cx="213.7" cy="-877.47" rx="213.59" ry="16.03"/>
<text text-anchor="middle" x="213.7" y="-873.77" font-family="Times,serif" font-size="14.00">http://w3id.org/oseg/ont/otrl#Odrl3Star</text>
</g>
<!-- http://w3id.org/oseg/ont/otrl#Odrl3Star&#45;&gt;http://w3id.org/oseg/ont/otrl#ODRL3Star -->
<g id="edge4" class="edge">
<title>http://w3id.org/oseg/ont/otrl#Odrl3Star&#45;&gt;http://w3id.org/oseg/ont/otrl#ODRL3Star</title>
<path fill="none" stroke="black" d="M423.14,-880.72C469.68,-881.45 516.93,-882.18 556.69,-882.8"/>
<polygon fill="black" stroke="black" points="556.84,-886.3 566.9,-882.96 556.95,-879.3 556.84,-886.3"/>
<text text-anchor="middle" x="489.92" y="-870.56" font-family="Times,serif" font-size="14.00">schema:supersededBy</text>
</g>
<!-- http://w3id.org/oseg/ont/otrl#Otrl2 -->
<g id="node28" class="node">
<title>http://w3id.org/oseg/ont/otrl#Otrl2</title>
<ellipse fill="none" stroke="black" cx="1500.95" cy="-1525.74" rx="189.51" ry="16.03"/>
<text text-anchor="middle" x="1500.95" y="-1522.04" font-family="Times,serif" font-size="14.00">http://w3id.org/oseg/ont/otrl#Otrl2</text>
</g>
<!-- http://w3id.org/oseg/ont/otrl#Otrl2&#45;&gt;http://w3id.org/oseg/ont/otrl#OTRL2 -->
<g id="edge5" class="edge">
<title>http://w3id.org/oseg/ont/otrl#Otrl2&#45;&gt;http://w3id.org/oseg/ont/otrl#OTRL2</title>
<path fill="none" stroke="black" d="M1498.3,-1509.33C1497.84,-1506.5 1497.35,-1503.48 1496.86,-1500.46"/>
<polygon fill="black" stroke="black" points="1500.28,-1499.68 1495.23,-1490.37 1493.37,-1500.8 1500.28,-1499.68"/>
<text text-anchor="middle" x="1577.58" y="-1493.7" font-family="Times,serif" font-size="14.00">schema:supersededBy</text>
</g>
<!-- http://w3id.org/oseg/ont/otrl#Otrl5 -->
<g id="node29" class="node">
<title>http://w3id.org/oseg/ont/otrl#Otrl5</title>
<ellipse fill="none" stroke="black" cx="1619.38" cy="-1002.15" rx="189.51" ry="16.03"/>
<text text-anchor="middle" x="1619.38" y="-998.45" font-family="Times,serif" font-size="14.00">http://w3id.org/oseg/ont/otrl#Otrl5</text>
</g>
<!-- http://w3id.org/oseg/ont/otrl#Otrl5&#45;&gt;http://w3id.org/oseg/ont/otrl#OTRL5 -->
<g id="edge6" class="edge">
<title>http://w3id.org/oseg/ont/otrl#Otrl5&#45;&gt;http://w3id.org/oseg/ont/otrl#OTRL5</title>
<path fill="none" stroke="black" d="M1600.51,-1018.49C1598.8,-1019.96 1597.05,-1021.47 1595.3,-1022.99"/>
<polygon fill="black" stroke="black" points="1592.96,-1020.38 1587.69,-1029.58 1597.54,-1025.68 1592.96,-1020.38"/>
<text text-anchor="middle" x="1677.9" y="-1024.54" font-family="Times,serif" font-size="14.00">schema:supersededBy</text>
</g>
<!-- http://w3id.org/oseg/ont/otrl#Odrl3 -->
<g id="node30" class="node">
<title>http://w3id.org/oseg/ont/otrl#Odrl3</title>
<ellipse fill="none" stroke="black" cx="1105.95" cy="-870.14" rx="191.75" ry="16.03"/>
<text text-anchor="middle" x="1105.95" y="-866.44" font-family="Times,serif" font-size="14.00">http://w3id.org/oseg/ont/otrl#Odrl3</text>
</g>
<!-- http://w3id.org/oseg/ont/otrl#Odrl3&#45;&gt;http://w3id.org/oseg/ont/otrl#ODRL3 -->
<g id="edge7" class="edge">
<title>http://w3id.org/oseg/ont/otrl#Odrl3&#45;&gt;http://w3id.org/oseg/ont/otrl#ODRL3</title>
<path fill="none" stroke="black" d="M1109.13,-886.59C1109.86,-890.38 1110.66,-894.51 1111.45,-898.61"/>
<polygon fill="black" stroke="black" points="1108.04,-899.37 1113.37,-908.53 1114.91,-898.04 1108.04,-899.37"/>
<text text-anchor="middle" x="1190.29" y="-896.4" font-family="Times,serif" font-size="14.00">schema:supersededBy</text>
</g>
<!-- http://w3id.org/oseg/ont/otrl#Otrl3 -->
<g id="node31" class="node">
<title>http://w3id.org/oseg/ont/otrl#Otrl3</title>
<ellipse fill="none" stroke="black" cx="2097.89" cy="-1529.62" rx="189.51" ry="16.03"/>
<text text-anchor="middle" x="2097.89" y="-1525.92" font-family="Times,serif" font-size="14.00">http://w3id.org/oseg/ont/otrl#Otrl3</text>
</g>
<!-- http://w3id.org/oseg/ont/otrl#Otrl3&#45;&gt;http://w3id.org/oseg/ont/otrl#OTRL3 -->
<g id="edge16" class="edge">
<title>http://w3id.org/oseg/ont/otrl#Otrl3&#45;&gt;http://w3id.org/oseg/ont/otrl#OTRL3</title>
<path fill="none" stroke="black" d="M2063.45,-1513.59C1996.74,-1482.54 1850.21,-1414.33 1779.06,-1381.21"/>
<polygon fill="black" stroke="black" points="1780.49,-1378.02 1769.95,-1376.97 1777.54,-1384.36 1780.49,-1378.02"/>
<text text-anchor="middle" x="1841.26" y="-1451.2" font-family="Times,serif" font-size="14.00">schema:supersededBy</text>
</g>
<!-- http://w3id.org/oseg/ont/otrl#Odrl -->
<g id="node32" class="node">
<title>http://w3id.org/oseg/ont/otrl#Odrl</title>
<ellipse fill="none" stroke="black" cx="588.49" cy="-1036.39" rx="185.02" ry="16.03"/>
<text text-anchor="middle" x="588.49" y="-1032.69" font-family="Times,serif" font-size="14.00">http://w3id.org/oseg/ont/otrl#Odrl</text>
</g>
<!-- http://w3id.org/oseg/ont/otrl#Odrl&#45;&gt;http://w3id.org/oseg/ont/otrl#ODRL -->
<g id="edge24" class="edge">
<title>http://w3id.org/oseg/ont/otrl#Odrl&#45;&gt;http://w3id.org/oseg/ont/otrl#ODRL</title>
<path fill="none" stroke="black" d="M635.55,-1020.56C703.6,-997.65 828.84,-955.49 897.48,-932.38"/>
<polygon fill="black" stroke="black" points="898.82,-935.62 907.19,-929.11 896.59,-928.99 898.82,-935.62"/>
<text text-anchor="middle" x="686.51" y="-980.27" font-family="Times,serif" font-size="14.00">schema:supersededBy</text>
</g>
<!-- http://w3id.org/oseg/ont/otrl#Otrl1 -->
<g id="node33" class="node">
<title>http://w3id.org/oseg/ont/otrl#Otrl1</title>
<ellipse fill="none" stroke="black" cx="1898.63" cy="-1765.91" rx="189.51" ry="16.03"/>
<text text-anchor="middle" x="1898.63" y="-1762.21" font-family="Times,serif" font-size="14.00">http://w3id.org/oseg/ont/otrl#Otrl1</text>
</g>
<!-- http://w3id.org/oseg/ont/otrl#Otrl1&#45;&gt;http://w3id.org/oseg/ont/otrl#OTRL1 -->
<g id="edge26" class="edge">
<title>http://w3id.org/oseg/ont/otrl#Otrl1&#45;&gt;http://w3id.org/oseg/ont/otrl#OTRL1</title>
<path fill="none" stroke="black" d="M1885.39,-1749.31C1844.46,-1697.97 1719.81,-1541.63 1671.64,-1481.23"/>
<polygon fill="black" stroke="black" points="1674.34,-1479 1665.37,-1473.36 1668.87,-1483.36 1674.34,-1479"/>
<text text-anchor="middle" x="1698.52" y="-1619.07" font-family="Times,serif" font-size="14.00">schema:supersededBy</text>
</g>
<!-- http://w3id.org/oseg/ont/otrl#Odrl2 -->
<g id="node34" class="node">
<title>http://w3id.org/oseg/ont/otrl#Odrl2</title>
<ellipse fill="none" stroke="black" cx="799" cy="-1137.41" rx="191.75" ry="16.03"/>
<text text-anchor="middle" x="799" y="-1133.71" font-family="Times,serif" font-size="14.00">http://w3id.org/oseg/ont/otrl#Odrl2</text>
</g>
<!-- http://w3id.org/oseg/ont/otrl#Odrl2&#45;&gt;http://w3id.org/oseg/ont/otrl#ODRL2 -->
<g id="edge28" class="edge">
<title>http://w3id.org/oseg/ont/otrl#Odrl2&#45;&gt;http://w3id.org/oseg/ont/otrl#ODRL2</title>
<path fill="none" stroke="black" d="M811.56,-1120.91C811.68,-1120.74 811.81,-1120.58 811.93,-1120.41"/>
<polygon fill="black" stroke="black" points="814.35,-1123.01 817.63,-1112.93 808.78,-1118.77 814.35,-1123.01"/>
<text text-anchor="middle" x="731.74" y="-1109.46" font-family="Times,serif" font-size="14.00">schema:supersededBy</text>
</g>
<!-- http://w3id.org/oseg/ont/otrl#Otrl4 -->
<g id="node35" class="node">
<title>http://w3id.org/oseg/ont/otrl#Otrl4</title>
<ellipse fill="none" stroke="black" cx="2145.08" cy="-1168.02" rx="189.51" ry="16.03"/>
<text text-anchor="middle" x="2145.08" y="-1164.32" font-family="Times,serif" font-size="14.00">http://w3id.org/oseg/ont/otrl#Otrl4</text>
</g>
<!-- http://w3id.org/oseg/ont/otrl#Otrl4&#45;&gt;http://w3id.org/oseg/ont/otrl#OTRL4 -->
<g id="edge29" class="edge">
<title>http://w3id.org/oseg/ont/otrl#Otrl4&#45;&gt;http://w3id.org/oseg/ont/otrl#OTRL4</title>
<path fill="none" stroke="black" d="M2042.85,-1181.73C1972.77,-1191.12 1881.68,-1203.34 1820.07,-1211.6"/>
<polygon fill="black" stroke="black" points="1819.51,-1208.14 1810.06,-1212.94 1820.44,-1215.08 1819.51,-1208.14"/>
<text text-anchor="middle" x="1851.46" y="-1185.46" font-family="Times,serif" font-size="14.00">schema:supersededBy</text>
</g>
<!-- http://w3id.org/oseg/ont/otrl#Otrl -->
<g id="node36" class="node">
<title>http://w3id.org/oseg/ont/otrl#Otrl</title>
<ellipse fill="none" stroke="black" cx="1831.78" cy="-1090.67" rx="183.28" ry="16.03"/>
<text text-anchor="middle" x="1831.78" y="-1086.97" font-family="Times,serif" font-size="14.00">http://w3id.org/oseg/ont/otrl#Otrl</text>
</g>
<!-- http://w3id.org/oseg/ont/otrl#Otrl&#45;&gt;http://w3id.org/oseg/ont/otrl#OTRL -->
<g id="edge32" class="edge">
<title>http://w3id.org/oseg/ont/otrl#Otrl&#45;&gt;http://w3id.org/oseg/ont/otrl#OTRL</title>
<path fill="none" stroke="black" d="M1796.67,-1106.78C1732.51,-1136.21 1596.73,-1198.5 1528.9,-1229.61"/>
<polygon fill="black" stroke="black" points="1527.04,-1226.62 1519.41,-1233.97 1529.95,-1232.98 1527.04,-1226.62"/>
<text text-anchor="middle" x="1582.78" y="-1172" font-family="Times,serif" font-size="14.00">schema:supersededBy</text>
</g>
<!-- http://w3id.org/oseg/ont/otrl#Otrl6 -->
<g id="node37" class="node">
<title>http://w3id.org/oseg/ont/otrl#Otrl6</title>
<ellipse fill="none" stroke="black" cx="1246.61" cy="-1854.23" rx="189.51" ry="16.03"/>
<text text-anchor="middle" x="1246.61" y="-1850.53" font-family="Times,serif" font-size="14.00">http://w3id.org/oseg/ont/otrl#Otrl6</text>
</g>
<!-- http://w3id.org/oseg/ont/otrl#Otrl6&#45;&gt;http://w3id.org/oseg/ont/otrl#OTRL6 -->
<g id="edge38" class="edge">
<title>http://w3id.org/oseg/ont/otrl#Otrl6&#45;&gt;http://w3id.org/oseg/ont/otrl#OTRL6</title>
<path fill="none" stroke="black" d="M1250.55,-1837.63C1264.59,-1778.54 1312.17,-1578.17 1329.42,-1505.56"/>
<polygon fill="black" stroke="black" points="1332.92,-1505.96 1331.82,-1495.42 1326.11,-1504.35 1332.92,-1505.96"/>
<text text-anchor="middle" x="1209.98" y="-1675.39" font-family="Times,serif" font-size="14.00">schema:supersededBy</text>
</g>
<!-- http://w3id.org/oseg/ont/otrl#Odrl5 -->
<g id="node38" class="node">
<title>http://w3id.org/oseg/ont/otrl#Odrl5</title>
<ellipse fill="none" stroke="black" cx="686.66" cy="-16.2" rx="191.75" ry="16.03"/>
<text text-anchor="middle" x="686.66" y="-12.5" font-family="Times,serif" font-size="14.00">http://w3id.org/oseg/ont/otrl#Odrl5</text>
</g>
<!-- http://w3id.org/oseg/ont/otrl#Odrl5&#45;&gt;http://w3id.org/oseg/ont/otrl#Odrl4 -->
<g id="edge40" class="edge">
<title>http://w3id.org/oseg/ont/otrl#Odrl5&#45;&gt;http://w3id.org/oseg/ont/otrl#Odrl4</title>
<path fill="none" stroke="black" d="M691.93,-32.66C710.24,-89.89 771.26,-280.59 793.79,-351"/>
<polygon fill="black" stroke="black" points="790.56,-352.4 796.94,-360.85 797.23,-350.26 790.56,-352.4"/>
<text text-anchor="middle" x="662.86" y="-195.63" font-family="Times,serif" font-size="14.00">schema:supersededBy</text>
</g>
</g>
</svg>
