<?xml version="1.0" encoding="UTF-8" standalone="no"?>
<!DOCTYPE svg PUBLIC "-//W3C//DTD SVG 1.1//EN"
 "http://www.w3.org/Graphics/SVG/1.1/DTD/svg11.dtd">
<!-- Generated by graphviz version 2.43.0 (0)
 -->
<!-- Title: G Pages: 1 -->
<svg width="1374pt" height="1272pt"
 viewBox="0.00 0.00 1374.00 1272.00" xmlns="http://www.w3.org/2000/svg" xmlns:xlink="http://www.w3.org/1999/xlink">
<g id="graph0" class="graph" transform="scale(1 1) rotate(0) translate(4 1268)">
<title>G</title>
<polygon fill="white" stroke="transparent" points="-4,4 -4,-1268 1370,-1268 1370,4 -4,4"/>
<!-- http://www.w3.org/2004/02/skos/core#Concept -->
<g id="node1" class="node">
<title>http://www.w3.org/2004/02/skos/core#Concept</title>
<ellipse fill="none" stroke="#1f77b4" cx="432.01" cy="-640.98" rx="78.48" ry="16.03"/>
<text text-anchor="middle" x="432.01" y="-637.28" font-family="Times,serif" font-size="14.00">skos:Concept</text>
</g>
<!-- http://w3id.org/oseg/ont/okhmeta#Tag -->
<g id="node2" class="node">
<title>http://w3id.org/oseg/ont/okhmeta#Tag</title>
<ellipse fill="none" stroke="#e377c2" cx="453.19" cy="-327.57" rx="76.24" ry="16.03"/>
<text text-anchor="middle" x="453.19" y="-323.87" font-family="Times,serif" font-size="14.00">okhmeta:Tag</text>
</g>
<!-- http://w3id.org/oseg/ont/okhmeta#Tag&#45;&gt;http://www.w3.org/2004/02/skos/core#Concept -->
<g id="edge13" class="edge">
<title>http://w3id.org/oseg/ont/okhmeta#Tag&#45;&gt;http://www.w3.org/2004/02/skos/core#Concept</title>
<path fill="none" stroke="black" d="M452.08,-343.98C448.64,-394.95 438.1,-550.91 433.83,-614.04"/>
<polygon fill="black" stroke="black" points="430.31,-614.15 433.13,-624.36 437.3,-614.62 430.31,-614.15"/>
<text text-anchor="middle" x="438.45" y="-482.81" font-family="Times,serif" font-size="14.00">a</text>
</g>
<!-- http://www.w3.org/2004/02/skos/core#Collection -->
<g id="node5" class="node">
<title>http://www.w3.org/2004/02/skos/core#Collection</title>
<ellipse fill="none" stroke="#e377c2" cx="167.45" cy="-115.92" rx="87.86" ry="16.03"/>
<text text-anchor="middle" x="167.45" y="-112.22" font-family="Times,serif" font-size="14.00">skos:Collection</text>
</g>
<!-- http://w3id.org/oseg/ont/okhmeta#Tag&#45;&gt;http://www.w3.org/2004/02/skos/core#Collection -->
<g id="edge38" class="edge">
<title>http://w3id.org/oseg/ont/okhmeta#Tag&#45;&gt;http://www.w3.org/2004/02/skos/core#Collection</title>
<path fill="none" stroke="black" d="M431.71,-311.66C381.22,-274.26 254.89,-180.69 197.12,-137.9"/>
<polygon fill="black" stroke="black" points="198.91,-134.87 188.79,-131.73 194.74,-140.49 198.91,-134.87"/>
</g>
<!-- http://w3id.org/oseg/ont/okhmeta#MetaTag -->
<g id="node9" class="node">
<title>http://w3id.org/oseg/ont/okhmeta#MetaTag</title>
<ellipse fill="none" stroke="#e377c2" cx="477.79" cy="-376.29" rx="102.56" ry="16.03"/>
<text text-anchor="middle" x="477.79" y="-372.59" font-family="Times,serif" font-size="14.00">okhmeta:MetaTag</text>
</g>
<!-- http://w3id.org/oseg/ont/okhmeta#Tag&#45;&gt;http://w3id.org/oseg/ont/okhmeta#MetaTag -->
<g id="edge23" class="edge">
<title>http://w3id.org/oseg/ont/okhmeta#Tag&#45;&gt;http://w3id.org/oseg/ont/okhmeta#MetaTag</title>
<path fill="none" stroke="black" d="M454.58,-343.9C455.43,-346.19 456.44,-348.59 457.54,-350.99"/>
<polygon fill="black" stroke="black" points="454.55,-352.83 462.23,-360.13 460.78,-349.63 454.55,-352.83"/>
<text text-anchor="middle" x="379.06" y="-351.25" font-family="Times,serif" font-size="14.00">okhmeta:hasMetaTag</text>
</g>
<!-- http://spdx.org/rdf/terms#SpdxItem -->
<g id="node3" class="node">
<title>http://spdx.org/rdf/terms#SpdxItem</title>
<ellipse fill="none" stroke="#1f77b4" cx="839.91" cy="-973.58" rx="87.86" ry="16.03"/>
<text text-anchor="middle" x="839.91" y="-969.88" font-family="Times,serif" font-size="14.00">spdx:SpdxItem</text>
</g>
<!-- http://www.w3.org/2002/07/owl#Ontology -->
<g id="node4" class="node">
<title>http://www.w3.org/2002/07/owl#Ontology</title>
<ellipse fill="none" stroke="#1f77b4" cx="1288.71" cy="-973.71" rx="77.56" ry="16.03"/>
<text text-anchor="middle" x="1288.71" y="-970.01" font-family="Times,serif" font-size="14.00">owl:Ontology</text>
</g>
<!-- http://www.w3.org/2002/07/owl#ObjectProperty -->
<g id="node6" class="node">
<title>http://www.w3.org/2002/07/owl#ObjectProperty</title>
<ellipse fill="none" stroke="#1f77b4" cx="492.21" cy="-1247.46" rx="109.7" ry="16.03"/>
<text text-anchor="middle" x="492.21" y="-1243.76" font-family="Times,serif" font-size="14.00">owl:ObjectProperty</text>
</g>
<!-- http://w3id.org/oseg/ont/okhmeta#hasMetaTag -->
<g id="node7" class="node">
<title>http://w3id.org/oseg/ont/okhmeta#hasMetaTag</title>
<ellipse fill="none" stroke="#e377c2" cx="550.67" cy="-848.71" rx="120.42" ry="16.03"/>
<text text-anchor="middle" x="550.67" y="-845.01" font-family="Times,serif" font-size="14.00">okhmeta:hasMetaTag</text>
</g>
<!-- http://w3id.org/oseg/ont/okhmeta#hasMetaTag&#45;&gt;http://www.w3.org/2004/02/skos/core#Concept -->
<g id="edge20" class="edge">
<title>http://w3id.org/oseg/ont/okhmeta#hasMetaTag&#45;&gt;http://www.w3.org/2004/02/skos/core#Concept</title>
<path fill="none" stroke="black" d="M541.36,-832.41C520.7,-796.23 470.88,-709.03 446.27,-665.94"/>
<polygon fill="black" stroke="black" points="449.28,-664.16 441.28,-657.21 443.2,-667.63 449.28,-664.16"/>
<text text-anchor="middle" x="489.31" y="-752.98" font-family="Times,serif" font-size="14.00">a</text>
</g>
<!-- http://w3id.org/oseg/ont/okhmeta#hasMetaTag&#45;&gt;http://www.w3.org/2002/07/owl#ObjectProperty -->
<g id="edge46" class="edge">
<title>http://w3id.org/oseg/ont/okhmeta#hasMetaTag&#45;&gt;http://www.w3.org/2002/07/owl#ObjectProperty</title>
<path fill="none" stroke="black" d="M548.27,-865.08C539.24,-926.68 507.25,-1144.85 496.09,-1221"/>
<polygon fill="black" stroke="black" points="492.58,-1220.76 494.6,-1231.16 499.51,-1221.78 492.58,-1220.76"/>
<text text-anchor="middle" x="517.68" y="-1046.84" font-family="Times,serif" font-size="14.00">a</text>
</g>
<!-- http://w3id.org/oseg/ont/okhmeta#hasMetaTag&#45;&gt;http://w3id.org/oseg/ont/okhmeta#MetaTag -->
<g id="edge10" class="edge">
<title>http://w3id.org/oseg/ont/okhmeta#hasMetaTag&#45;&gt;http://w3id.org/oseg/ont/okhmeta#MetaTag</title>
<path fill="none" stroke="black" d="M550.83,-832.32C545.33,-762.36 503.31,-488.5 485.18,-402.37"/>
<polygon fill="black" stroke="black" points="488.6,-401.62 483.05,-392.6 481.77,-403.11 488.6,-401.62"/>
<text text-anchor="middle" x="445.51" y="-606.14" font-family="Times,serif" font-size="14.00">dcam:rangeIncludes</text>
</g>
<!-- http://w3id.org/oseg/ont/okhmeta#hasMetaTag&#45;&gt;http://w3id.org/oseg/ont/okhmeta#MetaTag -->
<g id="edge35" class="edge">
<title>http://w3id.org/oseg/ont/okhmeta#hasMetaTag&#45;&gt;http://w3id.org/oseg/ont/okhmeta#MetaTag</title>
<path fill="none" stroke="black" d="M545.4,-832.31C529.39,-762.48 487.09,-489.61 478.56,-402.9"/>
<polygon fill="black" stroke="black" points="482.03,-402.47 477.65,-392.82 475.06,-403.1 482.03,-402.47"/>
<text text-anchor="middle" x="588.98" y="-621.4" font-family="Times,serif" font-size="14.00">okhmeta:hasMetaTag</text>
</g>
<!-- http://www.w3.org/2004/02/skos/core#member -->
<g id="node17" class="node">
<title>http://www.w3.org/2004/02/skos/core#member</title>
<ellipse fill="none" stroke="#e377c2" cx="727.05" cy="-1169.99" rx="79.39" ry="16.03"/>
<text text-anchor="middle" x="727.05" y="-1166.29" font-family="Times,serif" font-size="14.00">skos:member</text>
</g>
<!-- http://w3id.org/oseg/ont/okhmeta#hasMetaTag&#45;&gt;http://www.w3.org/2004/02/skos/core#member -->
<g id="edge33" class="edge">
<title>http://w3id.org/oseg/ont/okhmeta#hasMetaTag&#45;&gt;http://www.w3.org/2004/02/skos/core#member</title>
<path fill="none" stroke="black" d="M559.66,-865.08C588.44,-917.51 678.45,-1081.46 713.18,-1144.73"/>
<polygon fill="black" stroke="black" points="710.2,-1146.56 718.08,-1153.64 716.34,-1143.19 710.2,-1146.56"/>
<text text-anchor="middle" x="583.42" y="-1008.7" font-family="Times,serif" font-size="14.00">subPropertyOf</text>
</g>
<!-- http://w3id.org/oseg/ont/okhmeta#DevelopmentTag -->
<g id="node8" class="node">
<title>http://w3id.org/oseg/ont/okhmeta#DevelopmentTag</title>
<ellipse fill="none" stroke="#e377c2" cx="291.85" cy="-73.33" rx="124.4" ry="16.03"/>
<text text-anchor="middle" x="291.85" y="-69.63" font-family="Times,serif" font-size="14.00">okhmeta:Developme...</text>
</g>
<!-- http://w3id.org/oseg/ont/okhmeta#DevelopmentTag&#45;&gt;http://w3id.org/oseg/ont/okhmeta#Tag -->
<g id="edge21" class="edge">
<title>http://w3id.org/oseg/ont/okhmeta#DevelopmentTag&#45;&gt;http://w3id.org/oseg/ont/okhmeta#Tag</title>
<path fill="none" stroke="black" d="M302.19,-89.62C329.68,-132.94 404.72,-251.19 437.51,-302.86"/>
<polygon fill="black" stroke="black" points="434.62,-304.85 442.94,-311.42 440.53,-301.1 434.62,-304.85"/>
<text text-anchor="middle" x="365.35" y="-200.04" font-family="Times,serif" font-size="14.00">a</text>
</g>
<!-- http://w3id.org/oseg/ont/okhmeta#DevelopmentTag&#45;&gt;http://w3id.org/oseg/ont/okhmeta#MetaTag -->
<g id="edge4" class="edge">
<title>http://w3id.org/oseg/ont/okhmeta#DevelopmentTag&#45;&gt;http://w3id.org/oseg/ont/okhmeta#MetaTag</title>
<path fill="none" stroke="black" d="M301.85,-89.62C332.49,-139.55 425.28,-290.74 462.3,-351.05"/>
<polygon fill="black" stroke="black" points="459.53,-353.23 467.75,-359.92 465.5,-349.57 459.53,-353.23"/>
<text text-anchor="middle" x="459.08" y="-224.13" font-family="Times,serif" font-size="14.00">okhmeta:hasMetaTag</text>
</g>
<!-- http://w3id.org/oseg/ont/okhmeta#MetaTag&#45;&gt;http://w3id.org/oseg/ont/okhmeta#Tag -->
<g id="edge32" class="edge">
<title>http://w3id.org/oseg/ont/okhmeta#MetaTag&#45;&gt;http://w3id.org/oseg/ont/okhmeta#Tag</title>
<path fill="none" stroke="black" d="M476.41,-359.96C475.55,-357.67 474.55,-355.28 473.44,-352.87"/>
<polygon fill="black" stroke="black" points="476.43,-351.04 468.76,-343.73 470.2,-354.23 476.43,-351.04"/>
<text text-anchor="middle" x="470.42" y="-345.22" font-family="Times,serif" font-size="14.00">a</text>
</g>
<!-- http://w3id.org/oseg/ont/okhmeta#MetaTag&#45;&gt;http://w3id.org/oseg/ont/okhmeta#MetaTag -->
<g id="edge16" class="edge">
<title>http://w3id.org/oseg/ont/okhmeta#MetaTag&#45;&gt;http://w3id.org/oseg/ont/okhmeta#MetaTag</title>
<path fill="none" stroke="black" d="M572.79,-382.51C587.95,-381.6 598.32,-379.53 598.32,-376.29 598.32,-373.84 592.36,-372.06 582.88,-370.94"/>
<polygon fill="black" stroke="black" points="583.05,-367.44 572.79,-370.08 582.45,-374.42 583.05,-367.44"/>
<text text-anchor="middle" x="675.32" y="-372.59" font-family="Times,serif" font-size="14.00">okhmeta:hasMetaTag</text>
</g>
<!-- http://w3id.org/oseg/ont/okhmeta#LegalTag -->
<g id="node10" class="node">
<title>http://w3id.org/oseg/ont/okhmeta#LegalTag</title>
<ellipse fill="none" stroke="#e377c2" cx="616.7" cy="-81.08" rx="103.89" ry="16.03"/>
<text text-anchor="middle" x="616.7" y="-77.38" font-family="Times,serif" font-size="14.00">okhmeta:LegalTag</text>
</g>
<!-- http://w3id.org/oseg/ont/okhmeta#LegalTag&#45;&gt;http://w3id.org/oseg/ont/okhmeta#Tag -->
<g id="edge22" class="edge">
<title>http://w3id.org/oseg/ont/okhmeta#LegalTag&#45;&gt;http://w3id.org/oseg/ont/okhmeta#Tag</title>
<path fill="none" stroke="black" d="M605.72,-97.64C577.61,-140.01 502.94,-252.58 469.63,-302.79"/>
<polygon fill="black" stroke="black" points="466.52,-301.14 463.91,-311.41 472.36,-305.01 466.52,-301.14"/>
<text text-anchor="middle" x="533.17" y="-204.01" font-family="Times,serif" font-size="14.00">a</text>
</g>
<!-- http://w3id.org/oseg/ont/okhmeta#LegalTag&#45;&gt;http://w3id.org/oseg/ont/okhmeta#MetaTag -->
<g id="edge5" class="edge">
<title>http://w3id.org/oseg/ont/okhmeta#LegalTag&#45;&gt;http://w3id.org/oseg/ont/okhmeta#MetaTag</title>
<path fill="none" stroke="black" d="M609.03,-97.38C586.08,-146.17 517.75,-291.38 489.85,-350.66"/>
<polygon fill="black" stroke="black" points="486.53,-349.51 485.44,-360.05 492.86,-352.49 486.53,-349.51"/>
<text text-anchor="middle" x="549.44" y="-212.82" font-family="Times,serif" font-size="14.00">okhmeta:hasMetaTag</text>
</g>
<!-- http://w3id.org/oseg/ont/1.1.0/okh&#45;meta -->
<g id="node11" class="node">
<title>http://w3id.org/oseg/ont/1.1.0/okh&#45;meta</title>
<ellipse fill="none" stroke="#e377c2" cx="1104.7" cy="-988.3" rx="79.81" ry="16.03"/>
<text text-anchor="middle" x="1104.7" y="-984.6" font-family="Times,serif" font-size="14.00">ns1:okh&#45;meta</text>
</g>
<!-- http://w3id.org/oseg/ont/okhmeta#IdentificationTag -->
<g id="node12" class="node">
<title>http://w3id.org/oseg/ont/okhmeta#IdentificationTag</title>
<ellipse fill="none" stroke="#e377c2" cx="175.43" cy="-219.52" rx="109.7" ry="16.03"/>
<text text-anchor="middle" x="175.43" y="-215.82" font-family="Times,serif" font-size="14.00">okhmeta:Identific...</text>
</g>
<!-- http://w3id.org/oseg/ont/okhmeta#IdentificationTag&#45;&gt;http://w3id.org/oseg/ont/okhmeta#Tag -->
<g id="edge27" class="edge">
<title>http://w3id.org/oseg/ont/okhmeta#IdentificationTag&#45;&gt;http://w3id.org/oseg/ont/okhmeta#Tag</title>
<path fill="none" stroke="black" d="M214.64,-234.77C265.18,-254.43 352.94,-288.57 406.76,-309.51"/>
<polygon fill="black" stroke="black" points="405.81,-312.89 416.4,-313.26 408.35,-306.37 405.81,-312.89"/>
<text text-anchor="middle" x="306.2" y="-275.94" font-family="Times,serif" font-size="14.00">a</text>
</g>
<!-- http://w3id.org/oseg/ont/okhmeta#IdentificationTag&#45;&gt;http://w3id.org/oseg/ont/okhmeta#MetaTag -->
<g id="edge11" class="edge">
<title>http://w3id.org/oseg/ont/okhmeta#IdentificationTag&#45;&gt;http://w3id.org/oseg/ont/okhmeta#MetaTag</title>
<path fill="none" stroke="black" d="M205.81,-235.27C260.93,-263.85 377.38,-324.23 438.48,-355.91"/>
<polygon fill="black" stroke="black" points="436.95,-359.06 447.44,-360.55 440.17,-352.84 436.95,-359.06"/>
<text text-anchor="middle" x="245.14" y="-299.39" font-family="Times,serif" font-size="14.00">okhmeta:hasMetaTag</text>
</g>
<!-- http://w3id.org/oseg/ont/oseg&#45;profiles#robinVobruba -->
<g id="node13" class="node">
<title>http://w3id.org/oseg/ont/oseg&#45;profiles#robinVobruba</title>
<ellipse fill="none" stroke="#e377c2" cx="983.22" cy="-1072.06" rx="113.69" ry="16.03"/>
<text text-anchor="middle" x="983.22" y="-1068.36" font-family="Times,serif" font-size="14.00">osegprof:robinVob...</text>
</g>
<!-- http://w3id.org/oseg/ont/okhmeta#HistoryTag -->
<g id="node14" class="node">
<title>http://w3id.org/oseg/ont/okhmeta#HistoryTag</title>
<ellipse fill="none" stroke="#e377c2" cx="769.23" cy="-219.38" rx="113.69" ry="16.03"/>
<text text-anchor="middle" x="769.23" y="-215.68" font-family="Times,serif" font-size="14.00">okhmeta:HistoryTag</text>
</g>
<!-- http://w3id.org/oseg/ont/okhmeta#HistoryTag&#45;&gt;http://w3id.org/oseg/ont/okhmeta#Tag -->
<g id="edge3" class="edge">
<title>http://w3id.org/oseg/ont/okhmeta#HistoryTag&#45;&gt;http://w3id.org/oseg/ont/okhmeta#Tag</title>
<path fill="none" stroke="black" d="M725.28,-234.43C667.12,-254.34 564.82,-289.36 503.59,-310.32"/>
<polygon fill="black" stroke="black" points="502.09,-307.13 493.76,-313.68 504.35,-313.76 502.09,-307.13"/>
<text text-anchor="middle" x="609.94" y="-276.17" font-family="Times,serif" font-size="14.00">a</text>
</g>
<!-- http://w3id.org/oseg/ont/okhmeta#HistoryTag&#45;&gt;http://w3id.org/oseg/ont/okhmeta#MetaTag -->
<g id="edge43" class="edge">
<title>http://w3id.org/oseg/ont/okhmeta#HistoryTag&#45;&gt;http://w3id.org/oseg/ont/okhmeta#MetaTag</title>
<path fill="none" stroke="black" d="M739.95,-235.15C686.93,-263.69 575.04,-323.94 516.05,-355.7"/>
<polygon fill="black" stroke="black" points="514.2,-352.72 507.05,-360.54 517.52,-358.88 514.2,-352.72"/>
<text text-anchor="middle" x="551" y="-299.22" font-family="Times,serif" font-size="14.00">okhmeta:hasMetaTag</text>
</g>
<!-- http://spdx.org/licenses/GPL&#45;3.0&#45;or&#45;later -->
<g id="node15" class="node">
<title>http://spdx.org/licenses/GPL&#45;3.0&#45;or&#45;later</title>
<ellipse fill="none" stroke="#e377c2" cx="1251.59" cy="-1124.96" rx="108.79" ry="16.03"/>
<text text-anchor="middle" x="1251.59" y="-1121.26" font-family="Times,serif" font-size="14.00">spdxl:GPL&#45;3.0&#45;or&#45;...</text>
</g>
<!-- http://w3id.org/oseg/ont/okhmeta#QualityTag -->
<g id="node16" class="node">
<title>http://w3id.org/oseg/ont/okhmeta#QualityTag</title>
<ellipse fill="none" stroke="#e377c2" cx="729.63" cy="-545.48" rx="113.27" ry="16.03"/>
<text text-anchor="middle" x="729.63" y="-541.78" font-family="Times,serif" font-size="14.00">okhmeta:QualityTag</text>
</g>
<!-- http://w3id.org/oseg/ont/okhmeta#QualityTag&#45;&gt;http://w3id.org/oseg/ont/okhmeta#Tag -->
<g id="edge31" class="edge">
<title>http://w3id.org/oseg/ont/okhmeta#QualityTag&#45;&gt;http://w3id.org/oseg/ont/okhmeta#Tag</title>
<path fill="none" stroke="black" d="M709.3,-529.46C660.56,-491.03 536.94,-393.59 481.2,-349.65"/>
<polygon fill="black" stroke="black" points="483.19,-346.77 473.17,-343.32 478.86,-352.26 483.19,-346.77"/>
<text text-anchor="middle" x="590.75" y="-443.35" font-family="Times,serif" font-size="14.00">a</text>
</g>
<!-- http://w3id.org/oseg/ont/okhmeta#QualityTag&#45;&gt;http://w3id.org/oseg/ont/okhmeta#MetaTag -->
<g id="edge14" class="edge">
<title>http://w3id.org/oseg/ont/okhmeta#QualityTag&#45;&gt;http://w3id.org/oseg/ont/okhmeta#MetaTag</title>
<path fill="none" stroke="black" d="M705.93,-529.56C660.56,-499.08 561.36,-432.44 510.02,-397.94"/>
<polygon fill="black" stroke="black" points="511.86,-394.96 501.61,-392.29 507.95,-400.77 511.86,-394.96"/>
<text text-anchor="middle" x="684.98" y="-467.55" font-family="Times,serif" font-size="14.00">okhmeta:hasMetaTag</text>
</g>
<!-- http://w3id.org/oseg/ont/oseg&#45;profiles#Iopa -->
<g id="node18" class="node">
<title>http://w3id.org/oseg/ont/oseg&#45;profiles#Iopa</title>
<ellipse fill="none" stroke="#e377c2" cx="1006.99" cy="-1248.22" rx="80.72" ry="16.03"/>
<text text-anchor="middle" x="1006.99" y="-1244.52" font-family="Times,serif" font-size="14.00">osegprof:Iopa</text>
</g>
<!-- http://id.loc.gov/vocabulary/iso639&#45;1/en -->
<g id="node19" class="node">
<title>http://id.loc.gov/vocabulary/iso639&#45;1/en</title>
<ellipse fill="none" stroke="#e377c2" cx="980.71" cy="-861.98" rx="45.01" ry="16.03"/>
<text text-anchor="middle" x="980.71" y="-858.28" font-family="Times,serif" font-size="14.00">ns2:en</text>
</g>
<!-- http://w3id.org/oseg/ont/okhmeta -->
<g id="node20" class="node">
<title>http://w3id.org/oseg/ont/okhmeta</title>
<ellipse fill="none" stroke="#e377c2" cx="1066.56" cy="-1031.16" rx="76.24" ry="16.03"/>
<text text-anchor="middle" x="1066.56" y="-1027.46" font-family="Times,serif" font-size="14.00">ns3:okhmeta</text>
</g>
<!-- http://w3id.org/oseg/ont/okhmeta&#45;&gt;http://spdx.org/rdf/terms#SpdxItem -->
<g id="edge8" class="edge">
<title>http://w3id.org/oseg/ont/okhmeta&#45;&gt;http://spdx.org/rdf/terms#SpdxItem</title>
<path fill="none" stroke="black" d="M1017.38,-1018.67C983.47,-1010.05 938.12,-998.53 901.76,-989.29"/>
<polygon fill="black" stroke="black" points="902.31,-985.82 891.75,-986.75 900.58,-992.61 902.31,-985.82"/>
<text text-anchor="middle" x="955.07" y="-1007.78" font-family="Times,serif" font-size="14.00">a</text>
</g>
<!-- http://w3id.org/oseg/ont/okhmeta&#45;&gt;http://www.w3.org/2002/07/owl#Ontology -->
<g id="edge42" class="edge">
<title>http://w3id.org/oseg/ont/okhmeta&#45;&gt;http://www.w3.org/2002/07/owl#Ontology</title>
<path fill="none" stroke="black" d="M1115.31,-1018.55C1149.05,-1009.83 1194.13,-998.17 1229.87,-988.92"/>
<polygon fill="black" stroke="black" points="1230.88,-992.28 1239.69,-986.38 1229.13,-985.5 1230.88,-992.28"/>
<text text-anchor="middle" x="1168.09" y="-1007.54" font-family="Times,serif" font-size="14.00">a</text>
</g>
<!-- http://w3id.org/oseg/ont/okhmeta&#45;&gt;http://w3id.org/oseg/ont/1.1.0/okh&#45;meta -->
<g id="edge25" class="edge">
<title>http://w3id.org/oseg/ont/okhmeta&#45;&gt;http://w3id.org/oseg/ont/1.1.0/okh&#45;meta</title>
<path fill="none" stroke="black" d="M1081.2,-1014.72C1081.96,-1013.87 1082.72,-1013 1083.49,-1012.14"/>
<polygon fill="black" stroke="black" points="1086.39,-1014.15 1090.42,-1004.35 1081.16,-1009.5 1086.39,-1014.15"/>
<text text-anchor="middle" x="1030.85" y="-1002.23" font-family="Times,serif" font-size="14.00">owl:versionIRI</text>
</g>
<!-- http://w3id.org/oseg/ont/okhmeta&#45;&gt;http://w3id.org/oseg/ont/oseg&#45;profiles#robinVobruba -->
<g id="edge18" class="edge">
<title>http://w3id.org/oseg/ont/okhmeta&#45;&gt;http://w3id.org/oseg/ont/oseg&#45;profiles#robinVobruba</title>
<path fill="none" stroke="black" d="M1023.39,-1044.84C1019.26,-1046.84 1015.15,-1048.93 1011.22,-1051.04"/>
<polygon fill="black" stroke="black" points="1009.48,-1047.99 1002.45,-1055.92 1012.89,-1054.11 1009.48,-1047.99"/>
<text text-anchor="middle" x="961.8" y="-1036.74" font-family="Times,serif" font-size="14.00">schema:creator</text>
</g>
<!-- http://w3id.org/oseg/ont/okhmeta&#45;&gt;http://w3id.org/oseg/ont/oseg&#45;profiles#robinVobruba -->
<g id="edge28" class="edge">
<title>http://w3id.org/oseg/ont/okhmeta&#45;&gt;http://w3id.org/oseg/ont/oseg&#45;profiles#robinVobruba</title>
<path fill="none" stroke="black" d="M1047.74,-1047.07C1044.73,-1048.84 1041.48,-1050.64 1038.11,-1052.43"/>
<polygon fill="black" stroke="black" points="1036.26,-1049.45 1028.97,-1057.13 1039.46,-1055.68 1036.26,-1049.45"/>
<text text-anchor="middle" x="1100.43" y="-1053.55" font-family="Times,serif" font-size="14.00">dcterms:creator</text>
</g>
<!-- http://w3id.org/oseg/ont/okhmeta&#45;&gt;http://spdx.org/licenses/GPL&#45;3.0&#45;or&#45;later -->
<g id="edge30" class="edge">
<title>http://w3id.org/oseg/ont/okhmeta&#45;&gt;http://spdx.org/licenses/GPL&#45;3.0&#45;or&#45;later</title>
<path fill="none" stroke="black" d="M1096.29,-1046.23C1127.48,-1062.04 1176.69,-1086.99 1211.35,-1104.56"/>
<polygon fill="black" stroke="black" points="1210.2,-1107.91 1220.71,-1109.31 1213.37,-1101.66 1210.2,-1107.91"/>
<text text-anchor="middle" x="1229.82" y="-1079.2" font-family="Times,serif" font-size="14.00">spdx:licenseDeclared</text>
</g>
<!-- http://w3id.org/oseg/ont/okhmeta&#45;&gt;http://w3id.org/oseg/ont/oseg&#45;profiles#Iopa -->
<g id="edge6" class="edge">
<title>http://w3id.org/oseg/ont/okhmeta&#45;&gt;http://w3id.org/oseg/ont/oseg&#45;profiles#Iopa</title>
<path fill="none" stroke="black" d="M1062.08,-1047.48C1051.84,-1084.8 1026.63,-1176.65 1014.18,-1222.01"/>
<polygon fill="black" stroke="black" points="1010.79,-1221.14 1011.52,-1231.71 1017.54,-1223 1010.79,-1221.14"/>
<text text-anchor="middle" x="972.63" y="-1138.54" font-family="Times,serif" font-size="14.00">dcterms:publisher</text>
</g>
<!-- http://w3id.org/oseg/ont/okhmeta&#45;&gt;http://id.loc.gov/vocabulary/iso639&#45;1/en -->
<g id="edge7" class="edge">
<title>http://w3id.org/oseg/ont/okhmeta&#45;&gt;http://id.loc.gov/vocabulary/iso639&#45;1/en</title>
<path fill="none" stroke="black" d="M1058.33,-1014.94C1043.33,-985.38 1011.45,-922.56 993.56,-887.31"/>
<polygon fill="black" stroke="black" points="996.56,-885.48 988.92,-878.15 990.32,-888.65 996.56,-885.48"/>
<text text-anchor="middle" x="961.45" y="-939.93" font-family="Times,serif" font-size="14.00">dcterms:language</text>
</g>
<!-- http://w3id.org/oseg/ont/okhmeta#DataTag -->
<g id="node21" class="node">
<title>http://w3id.org/oseg/ont/okhmeta#DataTag</title>
<ellipse fill="none" stroke="#e377c2" cx="634.05" cy="-599.87" rx="100.32" ry="16.03"/>
<text text-anchor="middle" x="634.05" y="-596.17" font-family="Times,serif" font-size="14.00">okhmeta:DataTag</text>
</g>
<!-- http://w3id.org/oseg/ont/okhmeta#DataTag&#45;&gt;http://w3id.org/oseg/ont/okhmeta#Tag -->
<g id="edge9" class="edge">
<title>http://w3id.org/oseg/ont/okhmeta#DataTag&#45;&gt;http://w3id.org/oseg/ont/okhmeta#Tag</title>
<path fill="none" stroke="black" d="M623.28,-583.65C592.81,-537.77 505.86,-406.86 469.49,-352.11"/>
<polygon fill="black" stroke="black" points="472.35,-350.1 463.91,-343.7 466.52,-353.97 472.35,-350.1"/>
<text text-anchor="middle" x="541.89" y="-471.68" font-family="Times,serif" font-size="14.00">a</text>
</g>
<!-- http://w3id.org/oseg/ont/okhmeta#DataTag&#45;&gt;http://w3id.org/oseg/ont/okhmeta#MetaTag -->
<g id="edge2" class="edge">
<title>http://w3id.org/oseg/ont/okhmeta#DataTag&#45;&gt;http://w3id.org/oseg/ont/okhmeta#MetaTag</title>
<path fill="none" stroke="black" d="M622.56,-583.43C595.42,-544.58 527.18,-446.96 495.04,-400.97"/>
<polygon fill="black" stroke="black" points="497.9,-398.95 489.3,-392.76 492.16,-402.96 497.9,-398.95"/>
<text text-anchor="middle" x="635.8" y="-496" font-family="Times,serif" font-size="14.00">okhmeta:hasMetaTag</text>
</g>
<!-- http://w3id.org/oseg/ont/okhmeta#DataGatheringTag -->
<g id="node22" class="node">
<title>http://w3id.org/oseg/ont/okhmeta#DataGatheringTag</title>
<ellipse fill="none" stroke="#e377c2" cx="122.34" cy="-425.73" rx="122.16" ry="16.03"/>
<text text-anchor="middle" x="122.34" y="-422.03" font-family="Times,serif" font-size="14.00">okhmeta:DataGathe...</text>
</g>
<!-- http://w3id.org/oseg/ont/okhmeta#DataGatheringTag&#45;&gt;http://w3id.org/oseg/ont/okhmeta#Tag -->
<g id="edge34" class="edge">
<title>http://w3id.org/oseg/ont/okhmeta#DataGatheringTag&#45;&gt;http://w3id.org/oseg/ont/okhmeta#Tag</title>
<path fill="none" stroke="black" d="M172.59,-410.82C233.59,-392.72 336.07,-362.32 398.86,-343.69"/>
<polygon fill="black" stroke="black" points="399.99,-347.01 408.58,-340.81 398,-340.3 399.99,-347.01"/>
<text text-anchor="middle" x="281.22" y="-381.06" font-family="Times,serif" font-size="14.00">a</text>
</g>
<!-- http://w3id.org/oseg/ont/okhmeta#DataGatheringTag&#45;&gt;http://w3id.org/oseg/ont/okhmeta#MetaTag -->
<g id="edge24" class="edge">
<title>http://w3id.org/oseg/ont/okhmeta#DataGatheringTag&#45;&gt;http://w3id.org/oseg/ont/okhmeta#MetaTag</title>
<path fill="none" stroke="black" d="M207.03,-413.95C262.31,-406.26 334.33,-396.24 390.19,-388.48"/>
<polygon fill="black" stroke="black" points="391,-391.9 400.43,-387.05 390.04,-384.96 391,-391.9"/>
<text text-anchor="middle" x="375.61" y="-405.01" font-family="Times,serif" font-size="14.00">okhmeta:hasMetaTag</text>
</g>
<!-- http://w3id.org/oseg/ont/okhmeta#AcademicTag -->
<g id="node23" class="node">
<title>http://w3id.org/oseg/ont/okhmeta#AcademicTag</title>
<ellipse fill="none" stroke="#e377c2" cx="177.24" cy="-525.33" rx="124.4" ry="16.03"/>
<text text-anchor="middle" x="177.24" y="-521.63" font-family="Times,serif" font-size="14.00">okhmeta:AcademicTag</text>
</g>
<!-- http://w3id.org/oseg/ont/okhmeta#AcademicTag&#45;&gt;http://w3id.org/oseg/ont/okhmeta#Tag -->
<g id="edge36" class="edge">
<title>http://w3id.org/oseg/ont/okhmeta#AcademicTag&#45;&gt;http://w3id.org/oseg/ont/okhmeta#Tag</title>
<path fill="none" stroke="black" d="M199.83,-509.15C249.19,-473.77 366.74,-389.53 422.64,-349.46"/>
<polygon fill="black" stroke="black" points="424.98,-352.1 431.07,-343.43 420.9,-346.41 424.98,-352.1"/>
<text text-anchor="middle" x="306.73" y="-433.11" font-family="Times,serif" font-size="14.00">a</text>
</g>
<!-- http://w3id.org/oseg/ont/okhmeta#AcademicTag&#45;&gt;http://w3id.org/oseg/ont/okhmeta#MetaTag -->
<g id="edge1" class="edge">
<title>http://w3id.org/oseg/ont/okhmeta#AcademicTag&#45;&gt;http://w3id.org/oseg/ont/okhmeta#MetaTag</title>
<path fill="none" stroke="black" d="M209.12,-509.53C264.05,-482.29 376.43,-426.56 436.98,-396.53"/>
<polygon fill="black" stroke="black" points="438.84,-399.52 446.24,-391.94 435.73,-393.25 438.84,-399.52"/>
<text text-anchor="middle" x="246.05" y="-456.83" font-family="Times,serif" font-size="14.00">okhmeta:hasMetaTag</text>
</g>
<!-- http://w3id.org/oseg/ont/okhmeta#TransportationTag -->
<g id="node24" class="node">
<title>http://w3id.org/oseg/ont/okhmeta#TransportationTag</title>
<ellipse fill="none" stroke="#e377c2" cx="791.04" cy="-440.06" rx="118.17" ry="16.03"/>
<text text-anchor="middle" x="791.04" y="-436.36" font-family="Times,serif" font-size="14.00">okhmeta:Transport...</text>
</g>
<!-- http://w3id.org/oseg/ont/okhmeta#TransportationTag&#45;&gt;http://w3id.org/oseg/ont/okhmeta#Tag -->
<g id="edge40" class="edge">
<title>http://w3id.org/oseg/ont/okhmeta#TransportationTag&#45;&gt;http://w3id.org/oseg/ont/okhmeta#Tag</title>
<path fill="none" stroke="black" d="M745.83,-425.01C683.06,-404.11 569.85,-366.41 504.16,-344.54"/>
<polygon fill="black" stroke="black" points="505.02,-341.14 494.43,-341.3 502.81,-347.78 505.02,-341.14"/>
<text text-anchor="middle" x="620.49" y="-388.57" font-family="Times,serif" font-size="14.00">a</text>
</g>
<!-- http://w3id.org/oseg/ont/okhmeta#TransportationTag&#45;&gt;http://w3id.org/oseg/ont/okhmeta#MetaTag -->
<g id="edge26" class="edge">
<title>http://w3id.org/oseg/ont/okhmeta#TransportationTag&#45;&gt;http://w3id.org/oseg/ont/okhmeta#MetaTag</title>
<path fill="none" stroke="black" d="M724.61,-426.54C673.66,-416.17 603.39,-401.86 550.85,-391.16"/>
<polygon fill="black" stroke="black" points="551.42,-387.71 540.92,-389.14 550.03,-394.57 551.42,-387.71"/>
<text text-anchor="middle" x="560.73" y="-412.65" font-family="Times,serif" font-size="14.00">okhmeta:hasMetaTag</text>
</g>
<!-- http://w3id.org/oseg/ont/okhmeta#PhysicalTag -->
<g id="node25" class="node">
<title>http://w3id.org/oseg/ont/okhmeta#PhysicalTag</title>
<ellipse fill="none" stroke="#e377c2" cx="735.01" cy="-124.46" rx="118.17" ry="16.03"/>
<text text-anchor="middle" x="735.01" y="-120.76" font-family="Times,serif" font-size="14.00">okhmeta:PhysicalTag</text>
</g>
<!-- http://w3id.org/oseg/ont/okhmeta#PhysicalTag&#45;&gt;http://w3id.org/oseg/ont/okhmeta#Tag -->
<g id="edge15" class="edge">
<title>http://w3id.org/oseg/ont/okhmeta#PhysicalTag&#45;&gt;http://w3id.org/oseg/ont/okhmeta#Tag</title>
<path fill="none" stroke="black" d="M712.43,-140.74C661.99,-177.09 540.16,-264.89 483.32,-305.85"/>
<polygon fill="black" stroke="black" points="481.17,-303.09 475.1,-311.78 485.26,-308.77 481.17,-303.09"/>
<text text-anchor="middle" x="593.38" y="-227.1" font-family="Times,serif" font-size="14.00">a</text>
</g>
<!-- http://w3id.org/oseg/ont/okhmeta#PhysicalTag&#45;&gt;http://w3id.org/oseg/ont/okhmeta#MetaTag -->
<g id="edge37" class="edge">
<title>http://w3id.org/oseg/ont/okhmeta#PhysicalTag&#45;&gt;http://w3id.org/oseg/ont/okhmeta#MetaTag</title>
<path fill="none" stroke="black" d="M718.53,-140.6C674.45,-183.76 553.66,-302.02 501.88,-352.71"/>
<polygon fill="black" stroke="black" points="499.17,-350.47 494.47,-359.96 504.06,-355.47 499.17,-350.47"/>
<text text-anchor="middle" x="533.21" y="-250.45" font-family="Times,serif" font-size="14.00">okhmeta:hasMetaTag</text>
</g>
<!-- http://w3id.org/oseg/ont/okhmeta#BasicTag -->
<g id="node26" class="node">
<title>http://w3id.org/oseg/ont/okhmeta#BasicTag</title>
<ellipse fill="none" stroke="#e377c2" cx="158.62" cy="-326.28" rx="103.48" ry="16.03"/>
<text text-anchor="middle" x="158.62" y="-322.58" font-family="Times,serif" font-size="14.00">okhmeta:BasicTag</text>
</g>
<!-- http://w3id.org/oseg/ont/okhmeta#BasicTag&#45;&gt;http://w3id.org/oseg/ont/okhmeta#Tag -->
<g id="edge45" class="edge">
<title>http://w3id.org/oseg/ont/okhmeta#BasicTag&#45;&gt;http://w3id.org/oseg/ont/okhmeta#Tag</title>
<path fill="none" stroke="black" d="M262.06,-326.74C296.02,-326.88 333.39,-327.05 366.02,-327.19"/>
<polygon fill="black" stroke="black" points="366.42,-330.69 376.44,-327.24 366.45,-323.69 366.42,-330.69"/>
<text text-anchor="middle" x="309.54" y="-330.76" font-family="Times,serif" font-size="14.00">a</text>
</g>
<!-- http://w3id.org/oseg/ont/okhmeta#BasicTag&#45;&gt;http://w3id.org/oseg/ont/okhmeta#MetaTag -->
<g id="edge39" class="edge">
<title>http://w3id.org/oseg/ont/okhmeta#BasicTag&#45;&gt;http://w3id.org/oseg/ont/okhmeta#MetaTag</title>
<path fill="none" stroke="black" d="M231.84,-337.76C280.41,-345.37 344.26,-355.37 394.73,-363.28"/>
<polygon fill="black" stroke="black" points="394.21,-366.74 404.63,-364.83 395.3,-359.82 394.21,-366.74"/>
<text text-anchor="middle" x="236.29" y="-354.32" font-family="Times,serif" font-size="14.00">okhmeta:hasMetaTag</text>
</g>
<!-- http://w3id.org/oseg/ont/okhmeta#MakingTag -->
<g id="node27" class="node">
<title>http://w3id.org/oseg/ont/okhmeta#MakingTag</title>
<ellipse fill="none" stroke="#e377c2" cx="329.11" cy="-16.13" rx="113.69" ry="16.03"/>
<text text-anchor="middle" x="329.11" y="-12.43" font-family="Times,serif" font-size="14.00">okhmeta:MakingTag</text>
</g>
<!-- http://w3id.org/oseg/ont/okhmeta#MakingTag&#45;&gt;http://w3id.org/oseg/ont/okhmeta#Tag -->
<g id="edge17" class="edge">
<title>http://w3id.org/oseg/ont/okhmeta#MakingTag&#45;&gt;http://w3id.org/oseg/ont/okhmeta#Tag</title>
<path fill="none" stroke="black" d="M335.61,-32.44C355.87,-83.3 418.04,-239.35 442.83,-301.57"/>
<polygon fill="black" stroke="black" points="439.66,-303.06 446.61,-311.05 446.16,-300.47 439.66,-303.06"/>
<text text-anchor="middle" x="384.72" y="-170.8" font-family="Times,serif" font-size="14.00">a</text>
</g>
<!-- http://w3id.org/oseg/ont/okhmeta#MakingTag&#45;&gt;http://w3id.org/oseg/ont/okhmeta#MetaTag -->
<g id="edge41" class="edge">
<title>http://w3id.org/oseg/ont/okhmeta#MakingTag&#45;&gt;http://w3id.org/oseg/ont/okhmeta#MetaTag</title>
<path fill="none" stroke="black" d="M335.89,-32.54C359.5,-89.73 438.26,-280.54 467.1,-350.39"/>
<polygon fill="black" stroke="black" points="463.93,-351.88 470.98,-359.78 470.4,-349.21 463.93,-351.88"/>
<text text-anchor="middle" x="478.49" y="-180.26" font-family="Times,serif" font-size="14.00">okhmeta:hasMetaTag</text>
</g>
<!-- http://w3id.org/oseg/ont/okhmeta#DocumentationTag -->
<g id="node28" class="node">
<title>http://w3id.org/oseg/ont/okhmeta#DocumentationTag</title>
<ellipse fill="none" stroke="#e377c2" cx="220.3" cy="-610.71" rx="125.32" ry="16.03"/>
<text text-anchor="middle" x="220.3" y="-607.01" font-family="Times,serif" font-size="14.00">okhmeta:Documenta...</text>
</g>
<!-- http://w3id.org/oseg/ont/okhmeta#DocumentationTag&#45;&gt;http://w3id.org/oseg/ont/okhmeta#Tag -->
<g id="edge47" class="edge">
<title>http://w3id.org/oseg/ont/okhmeta#DocumentationTag&#45;&gt;http://w3id.org/oseg/ont/okhmeta#Tag</title>
<path fill="none" stroke="black" d="M233.83,-594.26C273.08,-546.55 387.09,-407.93 433.35,-351.7"/>
<polygon fill="black" stroke="black" points="436.27,-353.66 439.91,-343.71 430.86,-349.21 436.27,-353.66"/>
<text text-anchor="middle" x="329.09" y="-476.78" font-family="Times,serif" font-size="14.00">a</text>
</g>
<!-- http://w3id.org/oseg/ont/okhmeta#DocumentationTag&#45;&gt;http://w3id.org/oseg/ont/okhmeta#MetaTag -->
<g id="edge29" class="edge">
<title>http://w3id.org/oseg/ont/okhmeta#DocumentationTag&#45;&gt;http://w3id.org/oseg/ont/okhmeta#MetaTag</title>
<path fill="none" stroke="black" d="M238,-594.59C282.75,-553.86 400.51,-446.65 452.5,-399.32"/>
<polygon fill="black" stroke="black" points="454.93,-401.84 459.97,-392.52 450.22,-396.66 454.93,-401.84"/>
<text text-anchor="middle" x="422.25" y="-500.76" font-family="Times,serif" font-size="14.00">okhmeta:hasMetaTag</text>
</g>
<!-- http://w3id.org/oseg/ont/okhmeta#ExtendedInfoTag -->
<g id="node29" class="node">
<title>http://w3id.org/oseg/ont/okhmeta#ExtendedInfoTag</title>
<ellipse fill="none" stroke="#e377c2" cx="809.73" cy="-324.05" rx="120.42" ry="16.03"/>
<text text-anchor="middle" x="809.73" y="-320.35" font-family="Times,serif" font-size="14.00">okhmeta:ExtendedI...</text>
</g>
<!-- http://w3id.org/oseg/ont/okhmeta#ExtendedInfoTag&#45;&gt;http://w3id.org/oseg/ont/okhmeta#Tag -->
<g id="edge48" class="edge">
<title>http://w3id.org/oseg/ont/okhmeta#ExtendedInfoTag&#45;&gt;http://w3id.org/oseg/ont/okhmeta#Tag</title>
<path fill="none" stroke="black" d="M689.52,-325.24C640.37,-325.72 584.61,-326.27 539.6,-326.72"/>
<polygon fill="black" stroke="black" points="539.55,-323.22 529.58,-326.82 539.62,-330.22 539.55,-323.22"/>
<text text-anchor="middle" x="610.06" y="-329.78" font-family="Times,serif" font-size="14.00">a</text>
</g>
<!-- http://w3id.org/oseg/ont/okhmeta#ExtendedInfoTag&#45;&gt;http://w3id.org/oseg/ont/okhmeta#MetaTag -->
<g id="edge12" class="edge">
<title>http://w3id.org/oseg/ont/okhmeta#ExtendedInfoTag&#45;&gt;http://w3id.org/oseg/ont/okhmeta#MetaTag</title>
<path fill="none" stroke="black" d="M731.06,-336.43C679.73,-344.51 612.83,-355.04 560.67,-363.25"/>
<polygon fill="black" stroke="black" points="560.12,-359.79 550.78,-364.81 561.2,-366.71 560.12,-359.79"/>
<text text-anchor="middle" x="722.87" y="-353.64" font-family="Times,serif" font-size="14.00">okhmeta:hasMetaTag</text>
</g>
<!-- http://w3id.org/oseg/ont/okhmeta#PartsTag -->
<g id="node30" class="node">
<title>http://w3id.org/oseg/ont/okhmeta#PartsTag</title>
<ellipse fill="none" stroke="#e377c2" cx="560.13" cy="-33.14" rx="103.48" ry="16.03"/>
<text text-anchor="middle" x="560.13" y="-29.44" font-family="Times,serif" font-size="14.00">okhmeta:PartsTag</text>
</g>
<!-- http://w3id.org/oseg/ont/okhmeta#PartsTag&#45;&gt;http://w3id.org/oseg/ont/okhmeta#Tag -->
<g id="edge19" class="edge">
<title>http://w3id.org/oseg/ont/okhmeta#PartsTag&#45;&gt;http://w3id.org/oseg/ont/okhmeta#Tag</title>
<path fill="none" stroke="black" d="M554.23,-49.39C536.6,-97.94 484.2,-242.21 462.63,-301.59"/>
<polygon fill="black" stroke="black" points="459.33,-300.42 459.21,-311.01 465.91,-302.81 459.33,-300.42"/>
<text text-anchor="middle" x="503.93" y="-164.29" font-family="Times,serif" font-size="14.00">a</text>
</g>
<!-- http://w3id.org/oseg/ont/okhmeta#PartsTag&#45;&gt;http://w3id.org/oseg/ont/okhmeta#MetaTag -->
<g id="edge44" class="edge">
<title>http://w3id.org/oseg/ont/okhmeta#PartsTag&#45;&gt;http://w3id.org/oseg/ont/okhmeta#MetaTag</title>
<path fill="none" stroke="black" d="M556.16,-49.69C542.93,-104.85 500.25,-282.69 484.08,-350.08"/>
<polygon fill="black" stroke="black" points="480.66,-349.37 481.73,-359.91 487.46,-351 480.66,-349.37"/>
<text text-anchor="middle" x="597.12" y="-188.69" font-family="Times,serif" font-size="14.00">okhmeta:hasMetaTag</text>
</g>
</g>
</svg>
