<?xml version="1.0" encoding="UTF-8" standalone="no"?>
<!DOCTYPE svg PUBLIC "-//W3C//DTD SVG 1.1//EN"
 "http://www.w3.org/Graphics/SVG/1.1/DTD/svg11.dtd">
<!-- Generated by graphviz version 2.43.0 (0)
 -->
<!-- Title: G Pages: 1 -->
<svg width="2595pt" height="1156pt"
 viewBox="0.00 0.00 2595.00 1156.00" xmlns="http://www.w3.org/2000/svg" xmlns:xlink="http://www.w3.org/1999/xlink">
<g id="graph0" class="graph" transform="scale(1 1) rotate(0) translate(4 1152)">
<title>G</title>
<polygon fill="white" stroke="transparent" points="-4,4 -4,-1152 2591,-1152 2591,4 -4,4"/>
<!-- http://www.w3.org/2004/02/skos/core#Concept -->
<g id="node1" class="node">
<title>http://www.w3.org/2004/02/skos/core#Concept</title>
<ellipse fill="none" stroke="#1f77b4" cx="1087.96" cy="-539.28" rx="78.48" ry="16.03"/>
<text text-anchor="middle" x="1087.96" y="-535.58" font-family="Times,serif" font-size="14.00">skos:Concept</text>
</g>
<!-- http://w3id.org/oseg/ont/okh#Mass -->
<g id="node2" class="node">
<title>http://w3id.org/oseg/ont/okh#Mass</title>
<ellipse fill="none" stroke="#e377c2" cx="1394.7" cy="-414.51" rx="59.29" ry="16.03"/>
<text text-anchor="middle" x="1394.7" y="-410.81" font-family="Times,serif" font-size="14.00">okh:Mass</text>
</g>
<!-- http://w3id.org/oseg/ont/okh#Mass&#45;&gt;http://www.w3.org/2004/02/skos/core#Concept -->
<g id="edge22" class="edge">
<title>http://w3id.org/oseg/ont/okh#Mass&#45;&gt;http://www.w3.org/2004/02/skos/core#Concept</title>
<path fill="none" stroke="black" d="M1361.29,-428.1C1306.02,-450.58 1195.49,-495.54 1133.25,-520.86"/>
<polygon fill="black" stroke="black" points="1131.63,-517.74 1123.69,-524.75 1134.27,-524.22 1131.63,-517.74"/>
<text text-anchor="middle" x="1242.77" y="-478.28" font-family="Times,serif" font-size="14.00">a</text>
</g>
<!-- http://w3id.org/oseg/ont/okhmetaTransportationTag -->
<g id="node7" class="node">
<title>http://w3id.org/oseg/ont/okhmetaTransportationTag</title>
<ellipse fill="none" stroke="#e377c2" cx="1363.82" cy="-369.38" rx="118.17" ry="16.03"/>
<text text-anchor="middle" x="1363.82" y="-365.68" font-family="Times,serif" font-size="14.00">okhmeta:Transport...</text>
</g>
<!-- http://w3id.org/oseg/ont/okh#Mass&#45;&gt;http://w3id.org/oseg/ont/okhmetaTransportationTag -->
<g id="edge1" class="edge">
<title>http://w3id.org/oseg/ont/okh#Mass&#45;&gt;http://w3id.org/oseg/ont/okhmetaTransportationTag</title>
<path fill="none" stroke="black" d="M1383.73,-398.47C1382.75,-397.04 1381.75,-395.57 1380.73,-394.1"/>
<polygon fill="black" stroke="black" points="1383.5,-391.95 1374.97,-385.67 1377.73,-395.9 1383.5,-391.95"/>
<text text-anchor="middle" x="1459.23" y="-385.08" font-family="Times,serif" font-size="14.00">okhmeta:hasMetaTag</text>
</g>
<!-- http://w3id.org/oseg/ont/okhmetaPhysicalTag -->
<g id="node24" class="node">
<title>http://w3id.org/oseg/ont/okhmetaPhysicalTag</title>
<ellipse fill="none" stroke="#e377c2" cx="1377.79" cy="-135.42" rx="118.17" ry="16.03"/>
<text text-anchor="middle" x="1377.79" y="-131.72" font-family="Times,serif" font-size="14.00">okhmeta:PhysicalTag</text>
</g>
<!-- http://w3id.org/oseg/ont/okh#Mass&#45;&gt;http://w3id.org/oseg/ont/okhmetaPhysicalTag -->
<g id="edge23" class="edge">
<title>http://w3id.org/oseg/ont/okh#Mass&#45;&gt;http://w3id.org/oseg/ont/okhmetaPhysicalTag</title>
<path fill="none" stroke="black" d="M1393.69,-397.89C1390.87,-351.25 1382.84,-218.89 1379.4,-161.97"/>
<polygon fill="black" stroke="black" points="1382.89,-161.72 1378.79,-151.95 1375.9,-162.15 1382.89,-161.72"/>
<text text-anchor="middle" x="1309.54" y="-283.73" font-family="Times,serif" font-size="14.00">okhmeta:hasMetaTag</text>
</g>
<!-- http://w3id.org/oseg/ont/okh#ComponentReference -->
<g id="node3" class="node">
<title>http://w3id.org/oseg/ont/okh#ComponentReference</title>
<ellipse fill="none" stroke="#e377c2" cx="743.13" cy="-664.64" rx="123.07" ry="16.03"/>
<text text-anchor="middle" x="743.13" y="-660.94" font-family="Times,serif" font-size="14.00">okh:ComponentRefe...</text>
</g>
<!-- http://w3id.org/oseg/ont/okh#ComponentReference&#45;&gt;http://www.w3.org/2004/02/skos/core#Concept -->
<g id="edge20" class="edge">
<title>http://w3id.org/oseg/ont/okh#ComponentReference&#45;&gt;http://www.w3.org/2004/02/skos/core#Concept</title>
<path fill="none" stroke="black" d="M785.41,-649.27C849.69,-625.9 971.67,-581.56 1039.46,-556.92"/>
<polygon fill="black" stroke="black" points="1040.85,-560.13 1049.05,-553.43 1038.46,-553.55 1040.85,-560.13"/>
<text text-anchor="middle" x="907.93" y="-606.89" font-family="Times,serif" font-size="14.00">a</text>
</g>
<!-- http://w3id.org/oseg/ont/okh#Reference -->
<g id="node5" class="node">
<title>http://w3id.org/oseg/ont/okh#Reference</title>
<ellipse fill="none" stroke="#e377c2" cx="665.31" cy="-710.47" rx="84.29" ry="16.03"/>
<text text-anchor="middle" x="665.31" y="-706.77" font-family="Times,serif" font-size="14.00">okh:Reference</text>
</g>
<!-- http://w3id.org/oseg/ont/okh#ComponentReference&#45;&gt;http://w3id.org/oseg/ont/okh#Reference -->
<g id="edge29" class="edge">
<title>http://w3id.org/oseg/ont/okh#ComponentReference&#45;&gt;http://w3id.org/oseg/ont/okh#Reference</title>
<path fill="none" stroke="black" d="M715.91,-680.67C710.86,-683.65 705.51,-686.79 700.27,-689.88"/>
<polygon fill="black" stroke="black" points="698.43,-686.9 691.59,-694.99 701.99,-692.93 698.43,-686.9"/>
</g>
<!-- http://w3id.org/oseg/ont/okhmetaPartsTag -->
<g id="node40" class="node">
<title>http://w3id.org/oseg/ont/okhmetaPartsTag</title>
<ellipse fill="none" stroke="#e377c2" cx="482.09" cy="-458.64" rx="103.48" ry="16.03"/>
<text text-anchor="middle" x="482.09" y="-454.94" font-family="Times,serif" font-size="14.00">okhmeta:PartsTag</text>
</g>
<!-- http://w3id.org/oseg/ont/okh#ComponentReference&#45;&gt;http://w3id.org/oseg/ont/okhmetaPartsTag -->
<g id="edge2" class="edge">
<title>http://w3id.org/oseg/ont/okh#ComponentReference&#45;&gt;http://w3id.org/oseg/ont/okhmetaPartsTag</title>
<path fill="none" stroke="black" d="M722.64,-648.48C676.33,-611.92 563.45,-522.84 510.45,-481.02"/>
<polygon fill="black" stroke="black" points="512.5,-478.18 502.48,-474.73 508.16,-483.67 512.5,-478.18"/>
<text text-anchor="middle" x="539.55" y="-568.55" font-family="Times,serif" font-size="14.00">okhmeta:hasMetaTag</text>
</g>
<!-- http://schema.org/URL -->
<g id="node4" class="node">
<title>http://schema.org/URL</title>
<ellipse fill="none" stroke="#e377c2" cx="428.96" cy="-1131.9" rx="75.82" ry="16.03"/>
<text text-anchor="middle" x="428.96" y="-1128.2" font-family="Times,serif" font-size="14.00">schema:URL</text>
</g>
<!-- http://w3id.org/oseg/ont/okh#FileUrl -->
<g id="node6" class="node">
<title>http://w3id.org/oseg/ont/okh#FileUrl</title>
<ellipse fill="none" stroke="#1f77b4" cx="564.23" cy="-942.15" rx="68.68" ry="16.03"/>
<text text-anchor="middle" x="564.23" y="-938.45" font-family="Times,serif" font-size="14.00">okh:FileUrl</text>
</g>
<!-- http://w3id.org/oseg/ont/okh#FileUrl&#45;&gt;http://w3id.org/oseg/ont/okh#ComponentReference -->
<g id="edge18" class="edge">
<title>http://w3id.org/oseg/ont/okh#FileUrl&#45;&gt;http://w3id.org/oseg/ont/okh#ComponentReference</title>
<path fill="none" stroke="black" d="M574.63,-926.03C604.51,-879.68 690.82,-745.78 726.94,-689.76"/>
<polygon fill="black" stroke="black" points="730.01,-691.45 732.48,-681.15 724.12,-687.66 730.01,-691.45"/>
</g>
<!-- http://w3id.org/oseg/ont/okh#FileUrl&#45;&gt;http://schema.org/URL -->
<g id="edge4" class="edge">
<title>http://w3id.org/oseg/ont/okh#FileUrl&#45;&gt;http://schema.org/URL</title>
<path fill="none" stroke="black" d="M552.7,-958.32C528.94,-991.65 474.42,-1068.14 446.36,-1107.51"/>
<polygon fill="black" stroke="black" points="443.42,-1105.59 440.47,-1115.77 449.12,-1109.65 443.42,-1105.59"/>
</g>
<!-- http://w3id.org/oseg/ont/okh#File -->
<g id="node13" class="node">
<title>http://w3id.org/oseg/ont/okh#File</title>
<ellipse fill="none" stroke="#e377c2" cx="535.21" cy="-799.94" rx="52.15" ry="16.03"/>
<text text-anchor="middle" x="535.21" y="-796.24" font-family="Times,serif" font-size="14.00">okh:File</text>
</g>
<!-- http://w3id.org/oseg/ont/okh#FileUrl&#45;&gt;http://w3id.org/oseg/ont/okh#File -->
<g id="edge44" class="edge">
<title>http://w3id.org/oseg/ont/okh#FileUrl&#45;&gt;http://w3id.org/oseg/ont/okh#File</title>
<path fill="none" stroke="black" d="M560.9,-925.83C555.94,-901.53 546.56,-855.57 540.61,-826.41"/>
<polygon fill="black" stroke="black" points="544.02,-825.6 538.59,-816.5 537.16,-827 544.02,-825.6"/>
<text text-anchor="middle" x="470.76" y="-879.92" font-family="Times,serif" font-size="14.00">schema:supersededBy</text>
</g>
<!-- http://w3id.org/oseg/ont/okh#relatedTsdc -->
<g id="node8" class="node">
<title>http://w3id.org/oseg/ont/okh#relatedTsdc</title>
<ellipse fill="none" stroke="#e377c2" cx="1726.61" cy="-367.33" rx="91.85" ry="16.03"/>
<text text-anchor="middle" x="1726.61" y="-363.63" font-family="Times,serif" font-size="14.00">okh:relatedTsdc</text>
</g>
<!-- http://w3id.org/oseg/ont/okh#tsdc -->
<g id="node29" class="node">
<title>http://w3id.org/oseg/ont/okh#tsdc</title>
<ellipse fill="none" stroke="#e377c2" cx="1885.66" cy="-343.56" rx="54.39" ry="16.03"/>
<text text-anchor="middle" x="1885.66" y="-339.86" font-family="Times,serif" font-size="14.00">okh:tsdc</text>
</g>
<!-- http://w3id.org/oseg/ont/okh#relatedTsdc&#45;&gt;http://w3id.org/oseg/ont/okh#tsdc -->
<g id="edge30" class="edge">
<title>http://w3id.org/oseg/ont/okh#relatedTsdc&#45;&gt;http://w3id.org/oseg/ont/okh#tsdc</title>
<path fill="none" stroke="black" d="M1812.25,-361.34C1820.91,-360.01 1829.46,-358.58 1837.51,-357.12"/>
<polygon fill="black" stroke="black" points="1838.22,-360.54 1847.39,-355.25 1836.92,-353.67 1838.22,-360.54"/>
<text text-anchor="middle" x="1904.88" y="-363.03" font-family="Times,serif" font-size="14.00">schema:supersededBy</text>
</g>
<!-- http://w3id.org/oseg/ont/okh#relatedTsdc&#45;&gt;http://w3id.org/oseg/ont/okh#tsdc -->
<g id="edge31" class="edge">
<title>http://w3id.org/oseg/ont/okh#relatedTsdc&#45;&gt;http://w3id.org/oseg/ont/okh#tsdc</title>
<path fill="none" stroke="black" d="M1776,-353.55C1790.28,-350.98 1806.08,-348.52 1821.14,-346.5"/>
<polygon fill="black" stroke="black" points="1821.95,-349.93 1831.42,-345.18 1821.06,-342.98 1821.95,-349.93"/>
<text text-anchor="middle" x="1756.07" y="-338.83" font-family="Times,serif" font-size="14.00">owl:sameAs</text>
</g>
<!-- http://w3id.org/oseg/ont/okh#alternativeLicense -->
<g id="node9" class="node">
<title>http://w3id.org/oseg/ont/okh#alternativeLicense</title>
<ellipse fill="none" stroke="#e377c2" cx="870.66" cy="-759.29" rx="107.46" ry="16.03"/>
<text text-anchor="middle" x="870.66" y="-755.59" font-family="Times,serif" font-size="14.00">okh:alternativeLi...</text>
</g>
<!-- http://w3id.org/oseg/ont/okh#alternativeLicense&#45;&gt;http://www.w3.org/2004/02/skos/core#Concept -->
<g id="edge3" class="edge">
<title>http://w3id.org/oseg/ont/okh#alternativeLicense&#45;&gt;http://www.w3.org/2004/02/skos/core#Concept</title>
<path fill="none" stroke="black" d="M886.64,-743.12C924.63,-704.65 1020.47,-607.62 1064.8,-562.73"/>
<polygon fill="black" stroke="black" points="1067.42,-565.06 1071.96,-555.48 1062.44,-560.14 1067.42,-565.06"/>
<text text-anchor="middle" x="971.22" y="-656.72" font-family="Times,serif" font-size="14.00">a</text>
</g>
<!-- http://w3id.org/oseg/ont/okh#Module -->
<g id="node12" class="node">
<title>http://w3id.org/oseg/ont/okh#Module</title>
<ellipse fill="none" stroke="#e377c2" cx="1106.22" cy="-906.22" rx="70.92" ry="16.03"/>
<text text-anchor="middle" x="1106.22" y="-902.52" font-family="Times,serif" font-size="14.00">okh:Module</text>
</g>
<!-- http://w3id.org/oseg/ont/okh#alternativeLicense&#45;&gt;http://w3id.org/oseg/ont/okh#Module -->
<g id="edge32" class="edge">
<title>http://w3id.org/oseg/ont/okh#alternativeLicense&#45;&gt;http://w3id.org/oseg/ont/okh#Module</title>
<path fill="none" stroke="black" d="M896.32,-775.3C939.22,-802.06 1025.49,-855.86 1072.98,-885.49"/>
<polygon fill="black" stroke="black" points="1071.32,-888.58 1081.66,-890.9 1075.03,-882.64 1071.32,-888.58"/>
<text text-anchor="middle" x="906.65" y="-834.19" font-family="Times,serif" font-size="14.00">dcam:domainIncludes</text>
</g>
<!-- http://w3id.org/oseg/ont/okh#alternativeLicense&#45;&gt;http://w3id.org/oseg/ont/okh#File -->
<g id="edge14" class="edge">
<title>http://w3id.org/oseg/ont/okh#alternativeLicense&#45;&gt;http://w3id.org/oseg/ont/okh#File</title>
<path fill="none" stroke="black" d="M786.45,-769.5C726.46,-776.77 647.34,-786.35 594.05,-792.81"/>
<polygon fill="black" stroke="black" points="593.59,-789.34 584.08,-794.02 594.43,-796.29 593.59,-789.34"/>
<text text-anchor="middle" x="617.75" y="-769.95" font-family="Times,serif" font-size="14.00">dcam:rangeIncludes</text>
</g>
<!-- http://schema.org/license -->
<g id="node17" class="node">
<title>http://schema.org/license</title>
<ellipse fill="none" stroke="#e377c2" cx="1179.92" cy="-760.89" rx="88.28" ry="16.03"/>
<text text-anchor="middle" x="1179.92" y="-757.19" font-family="Times,serif" font-size="14.00">schema:license</text>
</g>
<!-- http://w3id.org/oseg/ont/okh#alternativeLicense&#45;&gt;http://schema.org/license -->
<g id="edge10" class="edge">
<title>http://w3id.org/oseg/ont/okh#alternativeLicense&#45;&gt;http://schema.org/license</title>
<path fill="none" stroke="black" d="M978.39,-759.85C1011.88,-760.02 1048.62,-760.21 1081.44,-760.38"/>
<polygon fill="black" stroke="black" points="1081.48,-763.88 1091.5,-760.43 1081.51,-756.88 1081.48,-763.88"/>
<text text-anchor="middle" x="1029.92" y="-748.92" font-family="Times,serif" font-size="14.00">skos:closeMatch</text>
</g>
<!-- http://w3id.org/oseg/ont/okh#license -->
<g id="node35" class="node">
<title>http://w3id.org/oseg/ont/okh#license</title>
<ellipse fill="none" stroke="#e377c2" cx="1079.1" cy="-828.01" rx="67.76" ry="16.03"/>
<text text-anchor="middle" x="1079.1" y="-824.31" font-family="Times,serif" font-size="14.00">okh:license</text>
</g>
<!-- http://w3id.org/oseg/ont/okh#alternativeLicense&#45;&gt;http://w3id.org/oseg/ont/okh#license -->
<g id="edge38" class="edge">
<title>http://w3id.org/oseg/ont/okh#alternativeLicense&#45;&gt;http://w3id.org/oseg/ont/okh#license</title>
<path fill="none" stroke="black" d="M915.63,-774.12C949.07,-785.14 994.7,-800.18 1029.25,-811.57"/>
<polygon fill="black" stroke="black" points="1028.55,-815.03 1039.14,-814.83 1030.74,-808.38 1028.55,-815.03"/>
<text text-anchor="middle" x="892.44" y="-796.65" font-family="Times,serif" font-size="14.00">schema:supersededBy</text>
</g>
<!-- http://w3id.org/oseg/ont/okhmetaLegalTag -->
<g id="node36" class="node">
<title>http://w3id.org/oseg/ont/okhmetaLegalTag</title>
<ellipse fill="none" stroke="#e377c2" cx="1110.83" cy="-668.91" rx="103.89" ry="16.03"/>
<text text-anchor="middle" x="1110.83" y="-665.21" font-family="Times,serif" font-size="14.00">okhmeta:LegalTag</text>
</g>
<!-- http://w3id.org/oseg/ont/okh#alternativeLicense&#45;&gt;http://w3id.org/oseg/ont/okhmetaLegalTag -->
<g id="edge39" class="edge">
<title>http://w3id.org/oseg/ont/okh#alternativeLicense&#45;&gt;http://w3id.org/oseg/ont/okhmetaLegalTag</title>
<path fill="none" stroke="black" d="M910.86,-744.16C952.29,-728.57 1016.93,-704.25 1061.44,-687.49"/>
<polygon fill="black" stroke="black" points="1062.77,-690.73 1070.9,-683.94 1060.3,-684.18 1062.77,-690.73"/>
<text text-anchor="middle" x="909.15" y="-719.63" font-family="Times,serif" font-size="14.00">okhmeta:hasMetaTag</text>
</g>
<!-- http://www.w3.org/2001/XMLSchema#string -->
<g id="node10" class="node">
<title>http://www.w3.org/2001/XMLSchema#string</title>
<ellipse fill="none" stroke="#e377c2" cx="2454.16" cy="-908.19" rx="62.87" ry="16.03"/>
<text text-anchor="middle" x="2454.16" y="-904.49" font-family="Times,serif" font-size="14.00">xsd:string</text>
</g>
<!-- http://w3id.org/oseg/ont/okh#installationGuide -->
<g id="node11" class="node">
<title>http://w3id.org/oseg/ont/okh#installationGuide</title>
<ellipse fill="none" stroke="#e377c2" cx="847.91" cy="-404.55" rx="106.55" ry="16.03"/>
<text text-anchor="middle" x="847.91" y="-400.85" font-family="Times,serif" font-size="14.00">okh:installationG...</text>
</g>
<!-- http://w3id.org/oseg/ont/okh#installationGuide&#45;&gt;http://www.w3.org/2004/02/skos/core#Concept -->
<g id="edge16" class="edge">
<title>http://w3id.org/oseg/ont/okh#installationGuide&#45;&gt;http://www.w3.org/2004/02/skos/core#Concept</title>
<path fill="none" stroke="black" d="M875.92,-420.27C919.49,-444.73 1003.49,-491.87 1051.66,-518.91"/>
<polygon fill="black" stroke="black" points="1050.07,-522.03 1060.5,-523.87 1053.49,-515.92 1050.07,-522.03"/>
<text text-anchor="middle" x="959.29" y="-473.39" font-family="Times,serif" font-size="14.00">a</text>
</g>
<!-- http://w3id.org/oseg/ont/okh#Software -->
<g id="node39" class="node">
<title>http://w3id.org/oseg/ont/okh#Software</title>
<ellipse fill="none" stroke="#e377c2" cx="789.68" cy="-352" rx="78.48" ry="16.03"/>
<text text-anchor="middle" x="789.68" y="-348.3" font-family="Times,serif" font-size="14.00">okh:Software</text>
</g>
<!-- http://w3id.org/oseg/ont/okh#installationGuide&#45;&gt;http://w3id.org/oseg/ont/okh#Software -->
<g id="edge41" class="edge">
<title>http://w3id.org/oseg/ont/okh#installationGuide&#45;&gt;http://w3id.org/oseg/ont/okh#Software</title>
<path fill="none" stroke="black" d="M830.12,-388.5C825.38,-384.22 820.17,-379.52 815.1,-374.95"/>
<polygon fill="black" stroke="black" points="817.13,-372.06 807.36,-367.96 812.44,-377.26 817.13,-372.06"/>
<text text-anchor="middle" x="900.61" y="-370.52" font-family="Times,serif" font-size="14.00">dcam:domainIncludes</text>
</g>
<!-- http://w3id.org/oseg/ont/okh#okhvPresent -->
<g id="node14" class="node">
<title>http://w3id.org/oseg/ont/okh#okhvPresent</title>
<ellipse fill="none" stroke="#e377c2" cx="1739.81" cy="-928.96" rx="96.33" ry="16.03"/>
<text text-anchor="middle" x="1739.81" y="-925.26" font-family="Times,serif" font-size="14.00">okh:okhvPresent</text>
</g>
<!-- http://w3id.org/oseg/ont/okh#okhvOrig -->
<g id="node21" class="node">
<title>http://w3id.org/oseg/ont/okh#okhvOrig</title>
<ellipse fill="none" stroke="#e377c2" cx="1714.39" cy="-887.8" rx="79.39" ry="16.03"/>
<text text-anchor="middle" x="1714.39" y="-884.1" font-family="Times,serif" font-size="14.00">okh:okhvOrig</text>
</g>
<!-- http://w3id.org/oseg/ont/okh#okhvPresent&#45;&gt;http://w3id.org/oseg/ont/okh#okhvOrig -->
<g id="edge19" class="edge">
<title>http://w3id.org/oseg/ont/okh#okhvPresent&#45;&gt;http://w3id.org/oseg/ont/okh#okhvOrig</title>
<path fill="none" stroke="black" d="M1729.76,-912.69C1729.71,-912.6 1729.65,-912.51 1729.6,-912.42"/>
<polygon fill="black" stroke="black" points="1732.6,-910.62 1724.36,-903.95 1726.64,-914.3 1732.6,-910.62"/>
<text text-anchor="middle" x="1702.18" y="-901.36" font-family="Times,serif" font-size="14.00">seeAlso</text>
</g>
<!-- http://w3id.org/oseg/ont/okh#okhv -->
<g id="node23" class="node">
<title>http://w3id.org/oseg/ont/okh#okhv</title>
<ellipse fill="none" stroke="#e377c2" cx="1771.67" cy="-969.5" rx="56.64" ry="16.03"/>
<text text-anchor="middle" x="1771.67" y="-965.8" font-family="Times,serif" font-size="14.00">okh:okhv</text>
</g>
<!-- http://w3id.org/oseg/ont/okh#okhvPresent&#45;&gt;http://w3id.org/oseg/ont/okh#okhv -->
<g id="edge21" class="edge">
<title>http://w3id.org/oseg/ont/okh#okhvPresent&#45;&gt;http://w3id.org/oseg/ont/okh#okhv</title>
<path fill="none" stroke="black" d="M1752.77,-945.45C1752.9,-945.61 1753.03,-945.78 1753.16,-945.94"/>
<polygon fill="black" stroke="black" points="1750.1,-947.72 1759.03,-953.42 1755.61,-943.39 1750.1,-947.72"/>
<text text-anchor="middle" x="1699.96" y="-949.49" font-family="Times,serif" font-size="14.00">subPropertyOf</text>
</g>
<!-- http://w3id.org/oseg/ont/okh#spdxLicense -->
<g id="node15" class="node">
<title>http://w3id.org/oseg/ont/okh#spdxLicense</title>
<ellipse fill="none" stroke="#e377c2" cx="1295.67" cy="-717.13" rx="94.51" ry="16.03"/>
<text text-anchor="middle" x="1295.67" y="-713.43" font-family="Times,serif" font-size="14.00">okh:spdxLicense</text>
</g>
<!-- http://w3id.org/oseg/ont/okh#spdxLicense&#45;&gt;http://www.w3.org/2004/02/skos/core#Concept -->
<g id="edge9" class="edge">
<title>http://w3id.org/oseg/ont/okh#spdxLicense&#45;&gt;http://www.w3.org/2004/02/skos/core#Concept</title>
<path fill="none" stroke="black" d="M1276.87,-701.03C1239.72,-669.22 1156.82,-598.24 1114.27,-561.81"/>
<polygon fill="black" stroke="black" points="1116.44,-559.06 1106.57,-555.21 1111.89,-564.38 1116.44,-559.06"/>
<text text-anchor="middle" x="1191.07" y="-635.22" font-family="Times,serif" font-size="14.00">a</text>
</g>
<!-- http://w3id.org/oseg/ont/okh#spdxLicense&#45;&gt;http://w3id.org/oseg/ont/okh#Module -->
<g id="edge7" class="edge">
<title>http://w3id.org/oseg/ont/okh#spdxLicense&#45;&gt;http://w3id.org/oseg/ont/okh#Module</title>
<path fill="none" stroke="black" d="M1279.51,-733.25C1245.96,-766.74 1168.6,-843.96 1129.6,-882.89"/>
<polygon fill="black" stroke="black" points="1126.94,-880.6 1122.33,-890.14 1131.88,-885.55 1126.94,-880.6"/>
<text text-anchor="middle" x="1126.56" y="-796.87" font-family="Times,serif" font-size="14.00">dcam:domainIncludes</text>
</g>
<!-- http://w3id.org/oseg/ont/okh#spdxLicense&#45;&gt;http://schema.org/license -->
<g id="edge11" class="edge">
<title>http://w3id.org/oseg/ont/okh#spdxLicense&#45;&gt;http://schema.org/license</title>
<path fill="none" stroke="black" d="M1256.48,-731.94C1247.43,-735.37 1237.69,-739.05 1228.29,-742.6"/>
<polygon fill="black" stroke="black" points="1226.79,-739.43 1218.67,-746.24 1229.26,-745.98 1226.79,-739.43"/>
<text text-anchor="middle" x="1301.39" y="-741.07" font-family="Times,serif" font-size="14.00">skos:closeMatch</text>
</g>
<!-- http://spdx.org/rdf/terms#ListedLicense -->
<g id="node25" class="node">
<title>http://spdx.org/rdf/terms#ListedLicense</title>
<ellipse fill="none" stroke="#e377c2" cx="1548.22" cy="-654.54" rx="108.38" ry="16.03"/>
<text text-anchor="middle" x="1548.22" y="-650.84" font-family="Times,serif" font-size="14.00">spdx:ListedLicense</text>
</g>
<!-- http://w3id.org/oseg/ont/okh#spdxLicense&#45;&gt;http://spdx.org/rdf/terms#ListedLicense -->
<g id="edge24" class="edge">
<title>http://w3id.org/oseg/ont/okh#spdxLicense&#45;&gt;http://spdx.org/rdf/terms#ListedLicense</title>
<path fill="none" stroke="black" d="M1349.85,-703.7C1388.54,-694.11 1440.82,-681.15 1482,-670.95"/>
<polygon fill="black" stroke="black" points="1483.08,-674.29 1491.94,-668.48 1481.39,-667.49 1483.08,-674.29"/>
<text text-anchor="middle" x="1343.42" y="-676.12" font-family="Times,serif" font-size="14.00">dcam:rangeIncludes</text>
</g>
<!-- http://w3id.org/oseg/ont/okh#spdxLicense&#45;&gt;http://w3id.org/oseg/ont/okh#license -->
<g id="edge43" class="edge">
<title>http://w3id.org/oseg/ont/okh#spdxLicense&#45;&gt;http://w3id.org/oseg/ont/okh#license</title>
<path fill="none" stroke="black" d="M1265.1,-732.78C1226.29,-752.65 1159.34,-786.92 1117.23,-808.48"/>
<polygon fill="black" stroke="black" points="1115.44,-805.47 1108.13,-813.14 1118.63,-811.7 1115.44,-805.47"/>
<text text-anchor="middle" x="1271.17" y="-774.43" font-family="Times,serif" font-size="14.00">schema:supersededBy</text>
</g>
<!-- http://w3id.org/oseg/ont/okh#spdxLicense&#45;&gt;http://w3id.org/oseg/ont/okhmetaLegalTag -->
<g id="edge25" class="edge">
<title>http://w3id.org/oseg/ont/okh#spdxLicense&#45;&gt;http://w3id.org/oseg/ont/okhmetaLegalTag</title>
<path fill="none" stroke="black" d="M1243.19,-703.44C1221.72,-697.84 1196.68,-691.3 1174.19,-685.44"/>
<polygon fill="black" stroke="black" points="1174.95,-682.02 1164.39,-682.88 1173.19,-688.79 1174.95,-682.02"/>
<text text-anchor="middle" x="1131.69" y="-698.24" font-family="Times,serif" font-size="14.00">okhmeta:hasMetaTag</text>
</g>
<!-- http://w3id.org/oseg/ont/okh#okhvOriginal -->
<g id="node16" class="node">
<title>http://w3id.org/oseg/ont/okh#okhvOriginal</title>
<ellipse fill="none" stroke="#e377c2" cx="1960.54" cy="-939.33" rx="97.66" ry="16.03"/>
<text text-anchor="middle" x="1960.54" y="-935.63" font-family="Times,serif" font-size="14.00">okh:okhvOriginal</text>
</g>
<!-- http://w3id.org/oseg/ont/okh#okhvOriginal&#45;&gt;http://w3id.org/oseg/ont/okh#okhv -->
<g id="edge33" class="edge">
<title>http://w3id.org/oseg/ont/okh#okhvOriginal&#45;&gt;http://w3id.org/oseg/ont/okh#okhv</title>
<path fill="none" stroke="black" d="M1889.94,-950.61C1870.67,-953.69 1849.98,-956.99 1831.38,-959.96"/>
<polygon fill="black" stroke="black" points="1830.6,-956.54 1821.28,-961.57 1831.71,-963.45 1830.6,-956.54"/>
<text text-anchor="middle" x="1913.66" y="-959.08" font-family="Times,serif" font-size="14.00">subPropertyOf</text>
</g>
<!-- http://w3id.org/oseg/ont/okh#okhvStored -->
<g id="node27" class="node">
<title>http://w3id.org/oseg/ont/okh#okhvStored</title>
<ellipse fill="none" stroke="#e377c2" cx="1988.47" cy="-898.13" rx="90.52" ry="16.03"/>
<text text-anchor="middle" x="1988.47" y="-894.43" font-family="Times,serif" font-size="14.00">okh:okhvStored</text>
</g>
<!-- http://w3id.org/oseg/ont/okh#okhvOriginal&#45;&gt;http://w3id.org/oseg/ont/okh#okhvStored -->
<g id="edge26" class="edge">
<title>http://w3id.org/oseg/ont/okh#okhvOriginal&#45;&gt;http://w3id.org/oseg/ont/okh#okhvStored</title>
<path fill="none" stroke="black" d="M1971.58,-923.05C1971.64,-922.96 1971.7,-922.87 1971.76,-922.78"/>
<polygon fill="black" stroke="black" points="1974.8,-924.54 1977.51,-914.3 1969.01,-920.61 1974.8,-924.54"/>
<text text-anchor="middle" x="1944.17" y="-911.71" font-family="Times,serif" font-size="14.00">seeAlso</text>
</g>
<!-- http://w3id.org/oseg/ont/okh#openSCAD -->
<g id="node18" class="node">
<title>http://w3id.org/oseg/ont/okh#openSCAD</title>
<ellipse fill="none" stroke="#e377c2" cx="2238.42" cy="-794.57" rx="86.03" ry="16.03"/>
<text text-anchor="middle" x="2238.42" y="-790.87" font-family="Times,serif" font-size="14.00">okh:openSCAD</text>
</g>
<!-- http://w3id.org/oseg/ont/okh#openSCAD&#45;&gt;http://www.w3.org/2001/XMLSchema#string -->
<g id="edge5" class="edge">
<title>http://w3id.org/oseg/ont/okh#openSCAD&#45;&gt;http://www.w3.org/2001/XMLSchema#string</title>
<path fill="none" stroke="black" d="M2267.51,-809.89C2306.3,-830.32 2374.97,-866.49 2417.33,-888.79"/>
<polygon fill="black" stroke="black" points="2415.72,-891.9 2426.2,-893.47 2418.99,-885.71 2415.72,-891.9"/>
<text text-anchor="middle" x="2269.92" y="-853.14" font-family="Times,serif" font-size="14.00">dcam:rangeIncludes</text>
</g>
<!-- http://w3id.org/oseg/ont/okh#width -->
<g id="node19" class="node">
<title>http://w3id.org/oseg/ont/okh#width</title>
<ellipse fill="none" stroke="#e377c2" cx="2381.07" cy="-991.3" rx="61.54" ry="16.03"/>
<text text-anchor="middle" x="2381.07" y="-987.6" font-family="Times,serif" font-size="14.00">okh:width</text>
</g>
<!-- http://w3id.org/oseg/ont/okh#openSCAD&#45;&gt;http://w3id.org/oseg/ont/okh#width -->
<g id="edge13" class="edge">
<title>http://w3id.org/oseg/ont/okh#openSCAD&#45;&gt;http://w3id.org/oseg/ont/okh#width</title>
<path fill="none" stroke="black" d="M2250.34,-811C2275.48,-845.67 2334.05,-926.45 2363.5,-967.06"/>
<polygon fill="black" stroke="black" points="2360.79,-969.28 2369.49,-975.32 2366.45,-965.17 2360.79,-969.28"/>
<text text-anchor="middle" x="2226.92" y="-892.83" font-family="Times,serif" font-size="14.00">schema:supersededBy</text>
</g>
<!-- http://w3id.org/oseg/ont/okh#depth -->
<g id="node20" class="node">
<title>http://w3id.org/oseg/ont/okh#depth</title>
<ellipse fill="none" stroke="#e377c2" cx="2433.1" cy="-670.83" rx="62.45" ry="16.03"/>
<text text-anchor="middle" x="2433.1" y="-667.13" font-family="Times,serif" font-size="14.00">okh:depth</text>
</g>
<!-- http://w3id.org/oseg/ont/okh#openSCAD&#45;&gt;http://w3id.org/oseg/ont/okh#depth -->
<g id="edge17" class="edge">
<title>http://w3id.org/oseg/ont/okh#openSCAD&#45;&gt;http://w3id.org/oseg/ont/okh#depth</title>
<path fill="none" stroke="black" d="M2263.08,-778.9C2297.93,-756.74 2361.68,-716.22 2400.44,-691.59"/>
<polygon fill="black" stroke="black" points="2402.69,-694.3 2409.25,-685.98 2398.94,-688.39 2402.69,-694.3"/>
<text text-anchor="middle" x="2251.76" y="-739.04" font-family="Times,serif" font-size="14.00">schema:supersededBy</text>
</g>
<!-- http://w3id.org/oseg/ont/okh#height -->
<g id="node31" class="node">
<title>http://w3id.org/oseg/ont/okh#height</title>
<ellipse fill="none" stroke="#e377c2" cx="2232.18" cy="-1035.12" rx="65.11" ry="16.03"/>
<text text-anchor="middle" x="2232.18" y="-1031.42" font-family="Times,serif" font-size="14.00">okh:height</text>
</g>
<!-- http://w3id.org/oseg/ont/okh#openSCAD&#45;&gt;http://w3id.org/oseg/ont/okh#height -->
<g id="edge34" class="edge">
<title>http://w3id.org/oseg/ont/okh#openSCAD&#45;&gt;http://w3id.org/oseg/ont/okh#height</title>
<path fill="none" stroke="black" d="M2237.99,-811.1C2236.93,-852.14 2234.16,-958.94 2232.87,-1008.78"/>
<polygon fill="black" stroke="black" points="2229.37,-1008.7 2232.61,-1018.79 2236.36,-1008.88 2229.37,-1008.7"/>
<text text-anchor="middle" x="2155.43" y="-913.74" font-family="Times,serif" font-size="14.00">schema:supersededBy</text>
</g>
<!-- http://w3id.org/oseg/ont/okh#Dimensions -->
<g id="node32" class="node">
<title>http://w3id.org/oseg/ont/okh#Dimensions</title>
<ellipse fill="none" stroke="#e377c2" cx="1932" cy="-635.3" rx="91.85" ry="16.03"/>
<text text-anchor="middle" x="1932" y="-631.6" font-family="Times,serif" font-size="14.00">okh:Dimensions</text>
</g>
<!-- http://w3id.org/oseg/ont/okh#openSCAD&#45;&gt;http://w3id.org/oseg/ont/okh#Dimensions -->
<g id="edge35" class="edge">
<title>http://w3id.org/oseg/ont/okh#openSCAD&#45;&gt;http://w3id.org/oseg/ont/okh#Dimensions</title>
<path fill="none" stroke="black" d="M2208.76,-779.15C2153.05,-750.19 2032.79,-687.68 1970.76,-655.44"/>
<polygon fill="black" stroke="black" points="1972.17,-652.23 1961.68,-650.73 1968.94,-658.44 1972.17,-652.23"/>
<text text-anchor="middle" x="2011.76" y="-721.1" font-family="Times,serif" font-size="14.00">dcam:domainIncludes</text>
</g>
<!-- http://w3id.org/oseg/ont/okh#permaURL -->
<g id="node22" class="node">
<title>http://w3id.org/oseg/ont/okh#permaURL</title>
<ellipse fill="none" stroke="#e377c2" cx="329.74" cy="-713.72" rx="87.86" ry="16.03"/>
<text text-anchor="middle" x="329.74" y="-710.02" font-family="Times,serif" font-size="14.00">okh:permaURL</text>
</g>
<!-- http://w3id.org/oseg/ont/okh#permaURL&#45;&gt;http://w3id.org/oseg/ont/okh#File -->
<g id="edge37" class="edge">
<title>http://w3id.org/oseg/ont/okh#permaURL&#45;&gt;http://w3id.org/oseg/ont/okh#File</title>
<path fill="none" stroke="black" d="M365.53,-728.74C401.42,-743.8 456.6,-766.96 494.23,-782.74"/>
<polygon fill="black" stroke="black" points="493.29,-786.15 503.86,-786.79 496,-779.69 493.29,-786.15"/>
<text text-anchor="middle" x="351.88" y="-759.54" font-family="Times,serif" font-size="14.00">dcam:domainIncludes</text>
</g>
<!-- http://w3id.org/oseg/ont/okh#fileUrl -->
<g id="node26" class="node">
<title>http://w3id.org/oseg/ont/okh#fileUrl</title>
<ellipse fill="none" stroke="#e377c2" cx="300.89" cy="-862.3" rx="65.11" ry="16.03"/>
<text text-anchor="middle" x="300.89" y="-858.6" font-family="Times,serif" font-size="14.00">okh:fileUrl</text>
</g>
<!-- http://w3id.org/oseg/ont/okh#fileUrl&#45;&gt;http://w3id.org/oseg/ont/okh#File -->
<g id="edge8" class="edge">
<title>http://w3id.org/oseg/ont/okh#fileUrl&#45;&gt;http://w3id.org/oseg/ont/okh#File</title>
<path fill="none" stroke="black" d="M345.52,-850.42C385.51,-839.78 444.08,-824.19 485.55,-813.16"/>
<polygon fill="black" stroke="black" points="486.67,-816.48 495.43,-810.53 484.87,-809.72 486.67,-816.48"/>
<text text-anchor="middle" x="337.53" y="-835.59" font-family="Times,serif" font-size="14.00">dcam:domainIncludes</text>
</g>
<!-- http://schema.org/url -->
<g id="node28" class="node">
<title>http://schema.org/url</title>
<ellipse fill="none" stroke="#e377c2" cx="67.05" cy="-843.87" rx="67.35" ry="16.03"/>
<text text-anchor="middle" x="67.05" y="-840.17" font-family="Times,serif" font-size="14.00">schema:url</text>
</g>
<!-- http://w3id.org/oseg/ont/okh#fileUrl&#45;&gt;http://schema.org/url -->
<g id="edge28" class="edge">
<title>http://w3id.org/oseg/ont/okh#fileUrl&#45;&gt;http://schema.org/url</title>
<path fill="none" stroke="black" d="M238.84,-857.41C208.8,-855.04 172.52,-852.18 141.05,-849.7"/>
<polygon fill="black" stroke="black" points="141.26,-846.21 131.02,-848.91 140.71,-853.18 141.26,-846.21"/>
<text text-anchor="middle" x="189.95" y="-842.35" font-family="Times,serif" font-size="14.00">subPropertyOf</text>
</g>
<!-- http://w3id.org/oseg/ont/okh#url -->
<g id="node38" class="node">
<title>http://w3id.org/oseg/ont/okh#url</title>
<ellipse fill="none" stroke="#e377c2" cx="120.57" cy="-970.56" rx="47.25" ry="16.03"/>
<text text-anchor="middle" x="120.57" y="-966.86" font-family="Times,serif" font-size="14.00">okh:url</text>
</g>
<!-- http://w3id.org/oseg/ont/okh#fileUrl&#45;&gt;http://w3id.org/oseg/ont/okh#url -->
<g id="edge40" class="edge">
<title>http://w3id.org/oseg/ont/okh#fileUrl&#45;&gt;http://w3id.org/oseg/ont/okh#url</title>
<path fill="none" stroke="black" d="M275.82,-877.35C243.84,-896.55 188.47,-929.8 153.22,-950.96"/>
<polygon fill="black" stroke="black" points="151.06,-948.18 144.29,-956.33 154.66,-954.18 151.06,-948.18"/>
<text text-anchor="middle" x="134.52" y="-917.96" font-family="Times,serif" font-size="14.00">schema:supersededBy</text>
</g>
<!-- http://w3id.org/oseg/ont/okh#value -->
<g id="node30" class="node">
<title>http://w3id.org/oseg/ont/okh#value</title>
<ellipse fill="none" stroke="#e377c2" cx="1521.83" cy="-211.43" rx="60.21" ry="16.03"/>
<text text-anchor="middle" x="1521.83" y="-207.73" font-family="Times,serif" font-size="14.00">okh:value</text>
</g>
<!-- http://w3id.org/oseg/ont/okh#value&#45;&gt;http://w3id.org/oseg/ont/okh#Mass -->
<g id="edge27" class="edge">
<title>http://w3id.org/oseg/ont/okh#value&#45;&gt;http://w3id.org/oseg/ont/okh#Mass</title>
<path fill="none" stroke="black" d="M1511.64,-227.71C1489.41,-263.22 1436.43,-347.84 1410.1,-389.9"/>
<polygon fill="black" stroke="black" points="1407.1,-388.1 1404.76,-398.44 1413.03,-391.82 1407.1,-388.1"/>
<text text-anchor="middle" x="1382.87" y="-312.61" font-family="Times,serif" font-size="14.00">dcam:domainIncludes</text>
</g>
<!-- http://w3id.org/oseg/ont/okh#hasMass -->
<g id="node33" class="node">
<title>http://w3id.org/oseg/ont/okh#hasMass</title>
<ellipse fill="none" stroke="#e377c2" cx="1627.18" cy="-16.26" rx="77.15" ry="16.03"/>
<text text-anchor="middle" x="1627.18" y="-12.56" font-family="Times,serif" font-size="14.00">okh:hasMass</text>
</g>
<!-- http://w3id.org/oseg/ont/okh#value&#45;&gt;http://w3id.org/oseg/ont/okh#hasMass -->
<g id="edge36" class="edge">
<title>http://w3id.org/oseg/ont/okh#value&#45;&gt;http://w3id.org/oseg/ont/okh#hasMass</title>
<path fill="none" stroke="black" d="M1530.63,-195.13C1548.99,-161.12 1591.48,-82.39 1613.46,-41.67"/>
<polygon fill="black" stroke="black" points="1616.66,-43.11 1618.33,-32.65 1610.5,-39.79 1616.66,-43.11"/>
<text text-anchor="middle" x="1492.04" y="-107.2" font-family="Times,serif" font-size="14.00">schema:supersededBy</text>
</g>
<!-- http://w3id.org/oseg/ont/okh#openScad -->
<g id="node34" class="node">
<title>http://w3id.org/oseg/ont/okh#openScad</title>
<ellipse fill="none" stroke="#e377c2" cx="2504.88" cy="-795.76" rx="82.05" ry="16.03"/>
<text text-anchor="middle" x="2504.88" y="-792.06" font-family="Times,serif" font-size="14.00">okh:openScad</text>
</g>
<!-- http://w3id.org/oseg/ont/okh#openScad&#45;&gt;http://w3id.org/oseg/ont/okh#openSCAD -->
<g id="edge12" class="edge">
<title>http://w3id.org/oseg/ont/okh#openScad&#45;&gt;http://w3id.org/oseg/ont/okh#openSCAD</title>
<path fill="none" stroke="black" d="M2429.62,-789.28C2398.38,-788.45 2361.86,-788.19 2329.16,-788.54"/>
<polygon fill="black" stroke="black" points="2329.1,-785.04 2319.14,-788.67 2329.19,-792.04 2329.1,-785.04"/>
<text text-anchor="middle" x="2339.39" y="-777.71" font-family="Times,serif" font-size="14.00">schema:supersededBy</text>
</g>
<!-- http://w3id.org/oseg/ont/okh#openScad&#45;&gt;http://w3id.org/oseg/ont/okh#openSCAD -->
<g id="edge15" class="edge">
<title>http://w3id.org/oseg/ont/okh#openScad&#45;&gt;http://w3id.org/oseg/ont/okh#openSCAD</title>
<path fill="none" stroke="black" d="M2428.14,-801.6C2396.78,-802.13 2360.3,-802.04 2327.76,-801.38"/>
<polygon fill="black" stroke="black" points="2327.42,-797.87 2317.34,-801.15 2327.26,-804.87 2327.42,-797.87"/>
<text text-anchor="middle" x="2377.95" y="-790.29" font-family="Times,serif" font-size="14.00">owl:sameAs</text>
</g>
<!-- http://w3id.org/oseg/ont/okh#unit -->
<g id="node37" class="node">
<title>http://w3id.org/oseg/ont/okh#unit</title>
<ellipse fill="none" stroke="#e377c2" cx="1658.39" cy="-506.27" rx="53.07" ry="16.03"/>
<text text-anchor="middle" x="1658.39" y="-502.57" font-family="Times,serif" font-size="14.00">okh:unit</text>
</g>
<!-- http://w3id.org/oseg/ont/okh#unit&#45;&gt;http://w3id.org/oseg/ont/okh#Mass -->
<g id="edge6" class="edge">
<title>http://w3id.org/oseg/ont/okh#unit&#45;&gt;http://w3id.org/oseg/ont/okh#Mass</title>
<path fill="none" stroke="black" d="M1623.1,-493.99C1576.16,-477.66 1493.09,-448.75 1441.12,-430.66"/>
<polygon fill="black" stroke="black" points="1442.07,-427.29 1431.47,-427.31 1439.77,-433.9 1442.07,-427.29"/>
<text text-anchor="middle" x="1454.11" y="-466.13" font-family="Times,serif" font-size="14.00">dcam:domainIncludes</text>
</g>
<!-- http://w3id.org/oseg/ont/okh#unit&#45;&gt;http://w3id.org/oseg/ont/okh#Dimensions -->
<g id="edge42" class="edge">
<title>http://w3id.org/oseg/ont/okh#unit&#45;&gt;http://w3id.org/oseg/ont/okh#Dimensions</title>
<path fill="none" stroke="black" d="M1687.41,-519.96C1736.04,-542.89 1834.13,-589.15 1890.2,-615.58"/>
<polygon fill="black" stroke="black" points="1888.95,-618.87 1899.49,-619.97 1891.93,-612.53 1888.95,-618.87"/>
<text text-anchor="middle" x="1710.8" y="-571.57" font-family="Times,serif" font-size="14.00">dcam:domainIncludes</text>
</g>
</g>
</svg>
