<?xml version="1.0" encoding="UTF-8" standalone="no"?>
<!DOCTYPE svg PUBLIC "-//W3C//DTD SVG 1.1//EN"
 "http://www.w3.org/Graphics/SVG/1.1/DTD/svg11.dtd">
<!-- Generated by graphviz version 2.43.0 (0)
 -->
<!-- Title: G Pages: 1 -->
<svg width="2167pt" height="2065pt"
 viewBox="0.00 0.00 2167.00 2065.00" xmlns="http://www.w3.org/2000/svg" xmlns:xlink="http://www.w3.org/1999/xlink">
<g id="graph0" class="graph" transform="scale(1 1) rotate(0) translate(4 2061)">
<title>G</title>
<polygon fill="white" stroke="transparent" points="-4,4 -4,-2061 2163,-2061 2163,4 -4,4"/>
<!-- http://w3id.org/oseg/ont/okh#Mass -->
<g id="node1" class="node">
<title>http://w3id.org/oseg/ont/okh#Mass</title>
<ellipse fill="none" stroke="#e377c2" cx="871.25" cy="-1063.56" rx="59.29" ry="16.03"/>
<text text-anchor="middle" x="871.25" y="-1059.86" font-family="Times,serif" font-size="14.00">okh:Mass</text>
</g>
<!-- http://www.w3.org/2004/02/skos/core#Concept -->
<g id="node5" class="node">
<title>http://www.w3.org/2004/02/skos/core#Concept</title>
<ellipse fill="none" stroke="#1f77b4" cx="1182.83" cy="-1253.85" rx="78.48" ry="16.03"/>
<text text-anchor="middle" x="1182.83" y="-1250.15" font-family="Times,serif" font-size="14.00">skos:Concept</text>
</g>
<!-- http://w3id.org/oseg/ont/okh#Mass&#45;&gt;http://www.w3.org/2004/02/skos/core#Concept -->
<g id="edge37" class="edge">
<title>http://w3id.org/oseg/ont/okh#Mass&#45;&gt;http://www.w3.org/2004/02/skos/core#Concept</title>
<path fill="none" stroke="black" d="M895.7,-1078.49C950.8,-1112.14 1084.83,-1194 1148.35,-1232.79"/>
<polygon fill="black" stroke="black" points="1146.83,-1235.97 1157.19,-1238.19 1150.48,-1229.99 1146.83,-1235.97"/>
<text text-anchor="middle" x="1017.52" y="-1159.44" font-family="Times,serif" font-size="14.00">a</text>
</g>
<!-- http://w3id.org/oseg/ont/okhmetaTransportationTag -->
<g id="node17" class="node">
<title>http://w3id.org/oseg/ont/okhmetaTransportationTag</title>
<ellipse fill="none" stroke="#e377c2" cx="683.08" cy="-1267.56" rx="118.17" ry="16.03"/>
<text text-anchor="middle" x="683.08" y="-1263.86" font-family="Times,serif" font-size="14.00">okhmeta:Transport...</text>
</g>
<!-- http://w3id.org/oseg/ont/okh#Mass&#45;&gt;http://w3id.org/oseg/ont/okhmetaTransportationTag -->
<g id="edge10" class="edge">
<title>http://w3id.org/oseg/ont/okh#Mass&#45;&gt;http://w3id.org/oseg/ont/okhmetaTransportationTag</title>
<path fill="none" stroke="black" d="M856.49,-1079.56C823.52,-1115.3 743.79,-1201.74 705.01,-1243.79"/>
<polygon fill="black" stroke="black" points="702.25,-1241.62 698.04,-1251.34 707.39,-1246.36 702.25,-1241.62"/>
<text text-anchor="middle" x="703.75" y="-1165.48" font-family="Times,serif" font-size="14.00">okhmeta:hasMetaTag</text>
</g>
<!-- http://w3id.org/oseg/ont/okhmetaPhysicalTag -->
<g id="node33" class="node">
<title>http://w3id.org/oseg/ont/okhmetaPhysicalTag</title>
<ellipse fill="none" stroke="#e377c2" cx="606.27" cy="-1143.22" rx="118.17" ry="16.03"/>
<text text-anchor="middle" x="606.27" y="-1139.52" font-family="Times,serif" font-size="14.00">okhmeta:PhysicalTag</text>
</g>
<!-- http://w3id.org/oseg/ont/okh#Mass&#45;&gt;http://w3id.org/oseg/ont/okhmetaPhysicalTag -->
<g id="edge34" class="edge">
<title>http://w3id.org/oseg/ont/okh#Mass&#45;&gt;http://w3id.org/oseg/ont/okhmetaPhysicalTag</title>
<path fill="none" stroke="black" d="M831.01,-1075.66C786.89,-1088.92 715.69,-1110.32 665.27,-1125.48"/>
<polygon fill="black" stroke="black" points="664.04,-1122.2 655.48,-1128.43 666.06,-1128.9 664.04,-1122.2"/>
<text text-anchor="middle" x="671.14" y="-1104.37" font-family="Times,serif" font-size="14.00">okhmeta:hasMetaTag</text>
</g>
<!-- http://w3id.org/oseg/ont/okh#Reference -->
<g id="node2" class="node">
<title>http://w3id.org/oseg/ont/okh#Reference</title>
<ellipse fill="none" stroke="#e377c2" cx="1092" cy="-1612.26" rx="84.29" ry="16.03"/>
<text text-anchor="middle" x="1092" y="-1608.56" font-family="Times,serif" font-size="14.00">okh:Reference</text>
</g>
<!-- http://schema.org/URL -->
<g id="node3" class="node">
<title>http://schema.org/URL</title>
<ellipse fill="none" stroke="#e377c2" cx="1459.63" cy="-2022.98" rx="75.82" ry="16.03"/>
<text text-anchor="middle" x="1459.63" y="-2019.28" font-family="Times,serif" font-size="14.00">schema:URL</text>
</g>
<!-- http://w3id.org/oseg/ont/okh#ComponentReference -->
<g id="node4" class="node">
<title>http://w3id.org/oseg/ont/okh#ComponentReference</title>
<ellipse fill="none" stroke="#e377c2" cx="1153.74" cy="-1565.92" rx="123.07" ry="16.03"/>
<text text-anchor="middle" x="1153.74" y="-1562.22" font-family="Times,serif" font-size="14.00">okh:ComponentRefe...</text>
</g>
<!-- http://w3id.org/oseg/ont/okh#ComponentReference&#45;&gt;http://w3id.org/oseg/ont/okh#Reference -->
<g id="edge8" class="edge">
<title>http://w3id.org/oseg/ont/okh#ComponentReference&#45;&gt;http://w3id.org/oseg/ont/okh#Reference</title>
<path fill="none" stroke="black" d="M1132.14,-1582.13C1128.7,-1584.71 1125.09,-1587.42 1121.5,-1590.12"/>
<polygon fill="black" stroke="black" points="1119.16,-1587.5 1113.27,-1596.3 1123.37,-1593.09 1119.16,-1587.5"/>
</g>
<!-- http://w3id.org/oseg/ont/okh#ComponentReference&#45;&gt;http://www.w3.org/2004/02/skos/core#Concept -->
<g id="edge16" class="edge">
<title>http://w3id.org/oseg/ont/okh#ComponentReference&#45;&gt;http://www.w3.org/2004/02/skos/core#Concept</title>
<path fill="none" stroke="black" d="M1155.26,-1549.58C1159.99,-1498.83 1174.47,-1343.54 1180.33,-1280.68"/>
<polygon fill="black" stroke="black" points="1183.84,-1280.69 1181.28,-1270.4 1176.87,-1280.04 1183.84,-1280.69"/>
<text text-anchor="middle" x="1163.29" y="-1418.93" font-family="Times,serif" font-size="14.00">a</text>
</g>
<!-- http://w3id.org/oseg/ont/okhmetaPartsTag -->
<g id="node34" class="node">
<title>http://w3id.org/oseg/ont/okhmetaPartsTag</title>
<ellipse fill="none" stroke="#e377c2" cx="956.94" cy="-1848.31" rx="103.48" ry="16.03"/>
<text text-anchor="middle" x="956.94" y="-1844.61" font-family="Times,serif" font-size="14.00">okhmeta:PartsTag</text>
</g>
<!-- http://w3id.org/oseg/ont/okh#ComponentReference&#45;&gt;http://w3id.org/oseg/ont/okhmetaPartsTag -->
<g id="edge40" class="edge">
<title>http://w3id.org/oseg/ont/okh#ComponentReference&#45;&gt;http://w3id.org/oseg/ont/okhmetaPartsTag</title>
<path fill="none" stroke="black" d="M1142.31,-1582.33C1109.29,-1629.7 1013.64,-1766.95 974.23,-1823.5"/>
<polygon fill="black" stroke="black" points="971.25,-1821.65 968.41,-1831.86 977,-1825.65 971.25,-1821.65"/>
<text text-anchor="middle" x="981.27" y="-1706.71" font-family="Times,serif" font-size="14.00">okhmeta:hasMetaTag</text>
</g>
<!-- http://w3id.org/oseg/ont/okh#FileUrl -->
<g id="node6" class="node">
<title>http://w3id.org/oseg/ont/okh#FileUrl</title>
<ellipse fill="none" stroke="#1f77b4" cx="1447.99" cy="-1769.6" rx="68.68" ry="16.03"/>
<text text-anchor="middle" x="1447.99" y="-1765.9" font-family="Times,serif" font-size="14.00">okh:FileUrl</text>
</g>
<!-- http://w3id.org/oseg/ont/okh#FileUrl&#45;&gt;http://schema.org/URL -->
<g id="edge28" class="edge">
<title>http://w3id.org/oseg/ont/okh#FileUrl&#45;&gt;http://schema.org/URL</title>
<path fill="none" stroke="black" d="M1448.75,-1786.22C1450.73,-1829.19 1456.01,-1944.2 1458.41,-1996.47"/>
<polygon fill="black" stroke="black" points="1454.92,-1996.8 1458.88,-2006.62 1461.92,-1996.47 1454.92,-1996.8"/>
</g>
<!-- http://w3id.org/oseg/ont/okh#FileUrl&#45;&gt;http://w3id.org/oseg/ont/okh#ComponentReference -->
<g id="edge21" class="edge">
<title>http://w3id.org/oseg/ont/okh#FileUrl&#45;&gt;http://w3id.org/oseg/ont/okh#ComponentReference</title>
<path fill="none" stroke="black" d="M1425.39,-1753.95C1373.31,-1717.91 1244.78,-1628.94 1185.11,-1587.64"/>
<polygon fill="black" stroke="black" points="1187.04,-1584.71 1176.82,-1581.9 1183.05,-1590.47 1187.04,-1584.71"/>
</g>
<!-- http://w3id.org/oseg/ont/okh#File -->
<g id="node14" class="node">
<title>http://w3id.org/oseg/ont/okh#File</title>
<ellipse fill="none" stroke="#e377c2" cx="1686.49" cy="-1667.67" rx="52.15" ry="16.03"/>
<text text-anchor="middle" x="1686.49" y="-1663.97" font-family="Times,serif" font-size="14.00">okh:File</text>
</g>
<!-- http://w3id.org/oseg/ont/okh#FileUrl&#45;&gt;http://w3id.org/oseg/ont/okh#File -->
<g id="edge13" class="edge">
<title>http://w3id.org/oseg/ont/okh#FileUrl&#45;&gt;http://w3id.org/oseg/ont/okh#File</title>
<path fill="none" stroke="black" d="M1481.4,-1755.32C1524.61,-1736.85 1599.8,-1704.72 1646.14,-1684.91"/>
<polygon fill="black" stroke="black" points="1647.75,-1688.03 1655.57,-1680.88 1645,-1681.59 1647.75,-1688.03"/>
<text text-anchor="middle" x="1483.77" y="-1723.91" font-family="Times,serif" font-size="14.00">schema:supersededBy</text>
</g>
<!-- http://w3id.org/oseg/ont/okh#permaURL -->
<g id="node7" class="node">
<title>http://w3id.org/oseg/ont/okh#permaURL</title>
<ellipse fill="none" stroke="#e377c2" cx="1923.48" cy="-1665.76" rx="87.86" ry="16.03"/>
<text text-anchor="middle" x="1923.48" y="-1662.06" font-family="Times,serif" font-size="14.00">okh:permaURL</text>
</g>
<!-- http://w3id.org/oseg/ont/okh#permaURL&#45;&gt;http://w3id.org/oseg/ont/okh#File -->
<g id="edge38" class="edge">
<title>http://w3id.org/oseg/ont/okh#permaURL&#45;&gt;http://w3id.org/oseg/ont/okh#File</title>
<path fill="none" stroke="black" d="M1835.57,-1666.47C1806.84,-1666.7 1775.55,-1666.95 1749.08,-1667.16"/>
<polygon fill="black" stroke="black" points="1748.78,-1663.67 1738.81,-1667.25 1748.84,-1670.67 1748.78,-1663.67"/>
<text text-anchor="middle" x="1753.32" y="-1655.62" font-family="Times,serif" font-size="14.00">dcam:domainIncludes</text>
</g>
<!-- http://w3id.org/oseg/ont/okh#width -->
<g id="node8" class="node">
<title>http://w3id.org/oseg/ont/okh#width</title>
<ellipse fill="none" stroke="#e377c2" cx="433.68" cy="-54.85" rx="61.54" ry="16.03"/>
<text text-anchor="middle" x="433.68" y="-51.15" font-family="Times,serif" font-size="14.00">okh:width</text>
</g>
<!-- http://w3id.org/oseg/ont/okh#openSCAD -->
<g id="node9" class="node">
<title>http://w3id.org/oseg/ont/okh#openSCAD</title>
<ellipse fill="none" stroke="#e377c2" cx="314.16" cy="-269.55" rx="86.03" ry="16.03"/>
<text text-anchor="middle" x="314.16" y="-265.85" font-family="Times,serif" font-size="14.00">okh:openSCAD</text>
</g>
<!-- http://w3id.org/oseg/ont/okh#openSCAD&#45;&gt;http://w3id.org/oseg/ont/okh#width -->
<g id="edge1" class="edge">
<title>http://w3id.org/oseg/ont/okh#openSCAD&#45;&gt;http://w3id.org/oseg/ont/okh#width</title>
<path fill="none" stroke="black" d="M323.34,-253.06C344.12,-215.73 394.86,-124.58 419.63,-80.1"/>
<polygon fill="black" stroke="black" points="422.83,-81.54 424.64,-71.1 416.71,-78.13 422.83,-81.54"/>
<text text-anchor="middle" x="291.48" y="-170.38" font-family="Times,serif" font-size="14.00">schema:supersededBy</text>
</g>
<!-- http://w3id.org/oseg/ont/okh#Dimensions -->
<g id="node10" class="node">
<title>http://w3id.org/oseg/ont/okh#Dimensions</title>
<ellipse fill="none" stroke="#e377c2" cx="529.61" cy="-549.69" rx="91.85" ry="16.03"/>
<text text-anchor="middle" x="529.61" y="-545.99" font-family="Times,serif" font-size="14.00">okh:Dimensions</text>
</g>
<!-- http://w3id.org/oseg/ont/okh#openSCAD&#45;&gt;http://w3id.org/oseg/ont/okh#Dimensions -->
<g id="edge39" class="edge">
<title>http://w3id.org/oseg/ont/okh#openSCAD&#45;&gt;http://w3id.org/oseg/ont/okh#Dimensions</title>
<path fill="none" stroke="black" d="M326.68,-285.82C362.9,-332.92 467.97,-469.54 510.95,-525.43"/>
<polygon fill="black" stroke="black" points="508.19,-527.58 517.06,-533.38 513.74,-523.31 508.19,-527.58"/>
<text text-anchor="middle" x="340.81" y="-409.42" font-family="Times,serif" font-size="14.00">dcam:domainIncludes</text>
</g>
<!-- http://w3id.org/oseg/ont/okh#depth -->
<g id="node18" class="node">
<title>http://w3id.org/oseg/ont/okh#depth</title>
<ellipse fill="none" stroke="#e377c2" cx="298.76" cy="-15.87" rx="62.45" ry="16.03"/>
<text text-anchor="middle" x="298.76" y="-12.17" font-family="Times,serif" font-size="14.00">okh:depth</text>
</g>
<!-- http://w3id.org/oseg/ont/okh#openSCAD&#45;&gt;http://w3id.org/oseg/ont/okh#depth -->
<g id="edge11" class="edge">
<title>http://w3id.org/oseg/ont/okh#openSCAD&#45;&gt;http://w3id.org/oseg/ont/okh#depth</title>
<path fill="none" stroke="black" d="M313.15,-252.9C310.54,-209.89 303.55,-94.74 300.37,-42.41"/>
<polygon fill="black" stroke="black" points="303.85,-42.02 299.75,-32.25 296.87,-42.44 303.85,-42.02"/>
<text text-anchor="middle" x="226.76" y="-136.46" font-family="Times,serif" font-size="14.00">schema:supersededBy</text>
</g>
<!-- http://www.w3.org/2001/XMLSchema#string -->
<g id="node21" class="node">
<title>http://www.w3.org/2001/XMLSchema#string</title>
<ellipse fill="none" stroke="#e377c2" cx="76.53" cy="-168.15" rx="62.87" ry="16.03"/>
<text text-anchor="middle" x="76.53" y="-164.45" font-family="Times,serif" font-size="14.00">xsd:string</text>
</g>
<!-- http://w3id.org/oseg/ont/okh#openSCAD&#45;&gt;http://www.w3.org/2001/XMLSchema#string -->
<g id="edge15" class="edge">
<title>http://w3id.org/oseg/ont/okh#openSCAD&#45;&gt;http://www.w3.org/2001/XMLSchema#string</title>
<path fill="none" stroke="black" d="M279.1,-254.59C236.43,-236.38 164.45,-205.66 118.77,-186.17"/>
<polygon fill="black" stroke="black" points="120.01,-182.9 109.44,-182.19 117.27,-189.34 120.01,-182.9"/>
<text text-anchor="middle" x="126.43" y="-224.18" font-family="Times,serif" font-size="14.00">dcam:rangeIncludes</text>
</g>
<!-- http://w3id.org/oseg/ont/okh#height -->
<g id="node39" class="node">
<title>http://w3id.org/oseg/ont/okh#height</title>
<ellipse fill="none" stroke="#e377c2" cx="64.65" cy="-312.07" rx="65.11" ry="16.03"/>
<text text-anchor="middle" x="64.65" y="-308.37" font-family="Times,serif" font-size="14.00">okh:height</text>
</g>
<!-- http://w3id.org/oseg/ont/okh#openSCAD&#45;&gt;http://w3id.org/oseg/ont/okh#height -->
<g id="edge44" class="edge">
<title>http://w3id.org/oseg/ont/okh#openSCAD&#45;&gt;http://w3id.org/oseg/ont/okh#height</title>
<path fill="none" stroke="black" d="M249.91,-280.5C212.69,-286.84 165.99,-294.8 128.79,-301.14"/>
<polygon fill="black" stroke="black" points="127.83,-297.75 118.56,-302.88 129.01,-304.65 127.83,-297.75"/>
<text text-anchor="middle" x="109.35" y="-279.62" font-family="Times,serif" font-size="14.00">schema:supersededBy</text>
</g>
<!-- http://w3id.org/oseg/ont/okh#tsdc -->
<g id="node11" class="node">
<title>http://w3id.org/oseg/ont/okh#tsdc</title>
<ellipse fill="none" stroke="#e377c2" cx="1638.61" cy="-568.33" rx="54.39" ry="16.03"/>
<text text-anchor="middle" x="1638.61" y="-564.63" font-family="Times,serif" font-size="14.00">okh:tsdc</text>
</g>
<!-- http://w3id.org/oseg/ont/okh#Module -->
<g id="node12" class="node">
<title>http://w3id.org/oseg/ont/okh#Module</title>
<ellipse fill="none" stroke="#e377c2" cx="1728.4" cy="-1236.62" rx="70.92" ry="16.03"/>
<text text-anchor="middle" x="1728.4" y="-1232.92" font-family="Times,serif" font-size="14.00">okh:Module</text>
</g>
<!-- http://schema.org/license -->
<g id="node13" class="node">
<title>http://schema.org/license</title>
<ellipse fill="none" stroke="#e377c2" cx="1274.17" cy="-1186.28" rx="88.28" ry="16.03"/>
<text text-anchor="middle" x="1274.17" y="-1182.58" font-family="Times,serif" font-size="14.00">schema:license</text>
</g>
<!-- http://w3id.org/oseg/ont/okh#openScad -->
<g id="node15" class="node">
<title>http://w3id.org/oseg/ont/okh#openScad</title>
<ellipse fill="none" stroke="#e377c2" cx="126.53" cy="-51.7" rx="82.05" ry="16.03"/>
<text text-anchor="middle" x="126.53" y="-48" font-family="Times,serif" font-size="14.00">okh:openScad</text>
</g>
<!-- http://w3id.org/oseg/ont/okh#openScad&#45;&gt;http://w3id.org/oseg/ont/okh#openSCAD -->
<g id="edge2" class="edge">
<title>http://w3id.org/oseg/ont/okh#openScad&#45;&gt;http://w3id.org/oseg/ont/okh#openSCAD</title>
<path fill="none" stroke="black" d="M135.88,-67.96C163.67,-106.21 245.31,-201.54 287.86,-246.06"/>
<polygon fill="black" stroke="black" points="285.61,-248.77 295.09,-253.51 290.64,-243.89 285.61,-248.77"/>
<text text-anchor="middle" x="291.87" y="-145.81" font-family="Times,serif" font-size="14.00">schema:supersededBy</text>
</g>
<!-- http://w3id.org/oseg/ont/okh#openScad&#45;&gt;http://w3id.org/oseg/ont/okh#openSCAD -->
<g id="edge30" class="edge">
<title>http://w3id.org/oseg/ont/okh#openScad&#45;&gt;http://w3id.org/oseg/ont/okh#openSCAD</title>
<path fill="none" stroke="black" d="M145.54,-67.68C182.82,-105.44 264.34,-199.95 298.64,-245.02"/>
<polygon fill="black" stroke="black" points="295.88,-247.16 304.66,-253.09 301.49,-242.98 295.88,-247.16"/>
<text text-anchor="middle" x="179.59" y="-160.15" font-family="Times,serif" font-size="14.00">owl:sameAs</text>
</g>
<!-- http://w3id.org/oseg/ont/okh#okhvStored -->
<g id="node16" class="node">
<title>http://w3id.org/oseg/ont/okh#okhvStored</title>
<ellipse fill="none" stroke="#e377c2" cx="1146.79" cy="-764.99" rx="90.52" ry="16.03"/>
<text text-anchor="middle" x="1146.79" y="-761.29" font-family="Times,serif" font-size="14.00">okh:okhvStored</text>
</g>
<!-- http://w3id.org/oseg/ont/okh#installationGuide -->
<g id="node19" class="node">
<title>http://w3id.org/oseg/ont/okh#installationGuide</title>
<ellipse fill="none" stroke="#e377c2" cx="1352.11" cy="-1520.42" rx="106.55" ry="16.03"/>
<text text-anchor="middle" x="1352.11" y="-1516.72" font-family="Times,serif" font-size="14.00">okh:installationG...</text>
</g>
<!-- http://w3id.org/oseg/ont/okh#installationGuide&#45;&gt;http://www.w3.org/2004/02/skos/core#Concept -->
<g id="edge12" class="edge">
<title>http://w3id.org/oseg/ont/okh#installationGuide&#45;&gt;http://www.w3.org/2004/02/skos/core#Concept</title>
<path fill="none" stroke="black" d="M1341.78,-1504.15C1313.21,-1459.16 1233.02,-1332.88 1198.72,-1278.87"/>
<polygon fill="black" stroke="black" points="1201.56,-1276.82 1193.24,-1270.25 1195.65,-1280.57 1201.56,-1276.82"/>
<text text-anchor="middle" x="1265.75" y="-1395.31" font-family="Times,serif" font-size="14.00">a</text>
</g>
<!-- http://w3id.org/oseg/ont/okh#Software -->
<g id="node30" class="node">
<title>http://w3id.org/oseg/ont/okh#Software</title>
<ellipse fill="none" stroke="#e377c2" cx="1379.78" cy="-1569.93" rx="78.48" ry="16.03"/>
<text text-anchor="middle" x="1379.78" y="-1566.23" font-family="Times,serif" font-size="14.00">okh:Software</text>
</g>
<!-- http://w3id.org/oseg/ont/okh#installationGuide&#45;&gt;http://w3id.org/oseg/ont/okh#Software -->
<g id="edge27" class="edge">
<title>http://w3id.org/oseg/ont/okh#installationGuide&#45;&gt;http://w3id.org/oseg/ont/okh#Software</title>
<path fill="none" stroke="black" d="M1361.17,-1536.63C1362.59,-1539.17 1364.08,-1541.85 1365.58,-1544.53"/>
<polygon fill="black" stroke="black" points="1362.67,-1546.49 1370.61,-1553.51 1368.78,-1543.08 1362.67,-1546.49"/>
<text text-anchor="middle" x="1441.38" y="-1544.38" font-family="Times,serif" font-size="14.00">dcam:domainIncludes</text>
</g>
<!-- http://w3id.org/oseg/ont/okh#okhv -->
<g id="node20" class="node">
<title>http://w3id.org/oseg/ont/okh#okhv</title>
<ellipse fill="none" stroke="#e377c2" cx="1465.96" cy="-726.19" rx="56.64" ry="16.03"/>
<text text-anchor="middle" x="1465.96" y="-722.49" font-family="Times,serif" font-size="14.00">okh:okhv</text>
</g>
<!-- http://w3id.org/oseg/ont/okh#value -->
<g id="node22" class="node">
<title>http://w3id.org/oseg/ont/okh#value</title>
<ellipse fill="none" stroke="#e377c2" cx="651.07" cy="-1007.17" rx="60.21" ry="16.03"/>
<text text-anchor="middle" x="651.07" y="-1003.47" font-family="Times,serif" font-size="14.00">okh:value</text>
</g>
<!-- http://w3id.org/oseg/ont/okh#value&#45;&gt;http://w3id.org/oseg/ont/okh#Mass -->
<g id="edge17" class="edge">
<title>http://w3id.org/oseg/ont/okh#value&#45;&gt;http://w3id.org/oseg/ont/okh#Mass</title>
<path fill="none" stroke="black" d="M694.83,-1018.37C730.18,-1027.43 780.06,-1040.2 817.77,-1049.86"/>
<polygon fill="black" stroke="black" points="817.01,-1053.28 827.57,-1052.37 818.75,-1046.5 817.01,-1053.28"/>
<text text-anchor="middle" x="678.3" y="-1037.92" font-family="Times,serif" font-size="14.00">dcam:domainIncludes</text>
</g>
<!-- http://w3id.org/oseg/ont/okh#hasMass -->
<g id="node37" class="node">
<title>http://w3id.org/oseg/ont/okh#hasMass</title>
<ellipse fill="none" stroke="#e377c2" cx="399.75" cy="-996.84" rx="77.15" ry="16.03"/>
<text text-anchor="middle" x="399.75" y="-993.14" font-family="Times,serif" font-size="14.00">okh:hasMass</text>
</g>
<!-- http://w3id.org/oseg/ont/okh#value&#45;&gt;http://w3id.org/oseg/ont/okh#hasMass -->
<g id="edge43" class="edge">
<title>http://w3id.org/oseg/ont/okh#value&#45;&gt;http://w3id.org/oseg/ont/okh#hasMass</title>
<path fill="none" stroke="black" d="M591.51,-1004.72C559.93,-1003.42 520.58,-1001.8 485.75,-1000.37"/>
<polygon fill="black" stroke="black" points="485.71,-996.87 475.58,-999.95 485.42,-1003.86 485.71,-996.87"/>
<text text-anchor="middle" x="538.63" y="-991.34" font-family="Times,serif" font-size="14.00">schema:supersededBy</text>
</g>
<!-- http://w3id.org/oseg/ont/okh#alternativeLicense -->
<g id="node23" class="node">
<title>http://w3id.org/oseg/ont/okh#alternativeLicense</title>
<ellipse fill="none" stroke="#e377c2" cx="1504.37" cy="-1367.33" rx="107.46" ry="16.03"/>
<text text-anchor="middle" x="1504.37" y="-1363.63" font-family="Times,serif" font-size="14.00">okh:alternativeLi...</text>
</g>
<!-- http://w3id.org/oseg/ont/okh#alternativeLicense&#45;&gt;http://www.w3.org/2004/02/skos/core#Concept -->
<g id="edge18" class="edge">
<title>http://w3id.org/oseg/ont/okh#alternativeLicense&#45;&gt;http://www.w3.org/2004/02/skos/core#Concept</title>
<path fill="none" stroke="black" d="M1462,-1352.37C1402.76,-1331.47 1295.38,-1293.57 1232.46,-1271.37"/>
<polygon fill="black" stroke="black" points="1233.35,-1267.97 1222.76,-1267.94 1231.02,-1274.57 1233.35,-1267.97"/>
<text text-anchor="middle" x="1342.73" y="-1315.67" font-family="Times,serif" font-size="14.00">a</text>
</g>
<!-- http://w3id.org/oseg/ont/okh#alternativeLicense&#45;&gt;http://w3id.org/oseg/ont/okh#Module -->
<g id="edge19" class="edge">
<title>http://w3id.org/oseg/ont/okh#alternativeLicense&#45;&gt;http://w3id.org/oseg/ont/okh#Module</title>
<path fill="none" stroke="black" d="M1531.39,-1351.56C1572,-1327.87 1648.77,-1283.08 1693.54,-1256.95"/>
<polygon fill="black" stroke="black" points="1695.45,-1259.9 1702.32,-1251.83 1691.92,-1253.85 1695.45,-1259.9"/>
<text text-anchor="middle" x="1534.47" y="-1308.06" font-family="Times,serif" font-size="14.00">dcam:domainIncludes</text>
</g>
<!-- http://w3id.org/oseg/ont/okh#alternativeLicense&#45;&gt;http://schema.org/license -->
<g id="edge6" class="edge">
<title>http://w3id.org/oseg/ont/okh#alternativeLicense&#45;&gt;http://schema.org/license</title>
<path fill="none" stroke="black" d="M1483.94,-1351.26C1442.73,-1318.85 1349.57,-1245.58 1302.51,-1208.57"/>
<polygon fill="black" stroke="black" points="1304.58,-1205.74 1294.55,-1202.31 1300.25,-1211.25 1304.58,-1205.74"/>
<text text-anchor="middle" x="1334.23" y="-1283.71" font-family="Times,serif" font-size="14.00">skos:closeMatch</text>
</g>
<!-- http://w3id.org/oseg/ont/okh#alternativeLicense&#45;&gt;http://w3id.org/oseg/ont/okh#File -->
<g id="edge7" class="edge">
<title>http://w3id.org/oseg/ont/okh#alternativeLicense&#45;&gt;http://w3id.org/oseg/ont/okh#File</title>
<path fill="none" stroke="black" d="M1514.42,-1383.9C1544.72,-1433.86 1635.27,-1583.2 1671.38,-1642.75"/>
<polygon fill="black" stroke="black" points="1668.51,-1644.77 1676.69,-1651.51 1674.5,-1641.14 1668.51,-1644.77"/>
<text text-anchor="middle" x="1665.4" y="-1517.13" font-family="Times,serif" font-size="14.00">dcam:rangeIncludes</text>
</g>
<!-- http://w3id.org/oseg/ont/okhmetaLegalTag -->
<g id="node27" class="node">
<title>http://w3id.org/oseg/ont/okhmetaLegalTag</title>
<ellipse fill="none" stroke="#e377c2" cx="1464.42" cy="-1100.19" rx="103.89" ry="16.03"/>
<text text-anchor="middle" x="1464.42" y="-1096.49" font-family="Times,serif" font-size="14.00">okhmeta:LegalTag</text>
</g>
<!-- http://w3id.org/oseg/ont/okh#alternativeLicense&#45;&gt;http://w3id.org/oseg/ont/okhmetaLegalTag -->
<g id="edge23" class="edge">
<title>http://w3id.org/oseg/ont/okh#alternativeLicense&#45;&gt;http://w3id.org/oseg/ont/okhmetaLegalTag</title>
<path fill="none" stroke="black" d="M1501.93,-1351.02C1495.24,-1306.31 1476.58,-1181.47 1468.37,-1126.62"/>
<polygon fill="black" stroke="black" points="1471.82,-1125.99 1466.88,-1116.62 1464.9,-1127.03 1471.82,-1125.99"/>
<text text-anchor="middle" x="1408.15" y="-1242.62" font-family="Times,serif" font-size="14.00">okhmeta:hasMetaTag</text>
</g>
<!-- http://w3id.org/oseg/ont/okh#license -->
<g id="node28" class="node">
<title>http://w3id.org/oseg/ont/okh#license</title>
<ellipse fill="none" stroke="#e377c2" cx="1696.71" cy="-1151.73" rx="67.76" ry="16.03"/>
<text text-anchor="middle" x="1696.71" y="-1148.03" font-family="Times,serif" font-size="14.00">okh:license</text>
</g>
<!-- http://w3id.org/oseg/ont/okh#alternativeLicense&#45;&gt;http://w3id.org/oseg/ont/okh#license -->
<g id="edge24" class="edge">
<title>http://w3id.org/oseg/ont/okh#alternativeLicense&#45;&gt;http://w3id.org/oseg/ont/okh#license</title>
<path fill="none" stroke="black" d="M1518.83,-1351.12C1552.46,-1313.42 1636.11,-1219.66 1675.52,-1175.48"/>
<polygon fill="black" stroke="black" points="1678.3,-1177.62 1682.34,-1167.83 1673.07,-1172.96 1678.3,-1177.62"/>
<text text-anchor="middle" x="1517.17" y="-1267.1" font-family="Times,serif" font-size="14.00">schema:supersededBy</text>
</g>
<!-- http://w3id.org/oseg/ont/okh#okhvPresent -->
<g id="node24" class="node">
<title>http://w3id.org/oseg/ont/okh#okhvPresent</title>
<ellipse fill="none" stroke="#e377c2" cx="1295.97" cy="-675.97" rx="96.33" ry="16.03"/>
<text text-anchor="middle" x="1295.97" y="-672.27" font-family="Times,serif" font-size="14.00">okh:okhvPresent</text>
</g>
<!-- http://w3id.org/oseg/ont/okh#okhvPresent&#45;&gt;http://w3id.org/oseg/ont/okh#okhv -->
<g id="edge14" class="edge">
<title>http://w3id.org/oseg/ont/okh#okhvPresent&#45;&gt;http://w3id.org/oseg/ont/okh#okhv</title>
<path fill="none" stroke="black" d="M1343.77,-690.09C1366.44,-696.79 1393.5,-704.79 1416.39,-711.55"/>
<polygon fill="black" stroke="black" points="1415.67,-714.99 1426.25,-714.46 1417.65,-708.27 1415.67,-714.99"/>
<text text-anchor="middle" x="1433.08" y="-689.62" font-family="Times,serif" font-size="14.00">subPropertyOf</text>
</g>
<!-- http://w3id.org/oseg/ont/okh#okhvOrig -->
<g id="node29" class="node">
<title>http://w3id.org/oseg/ont/okh#okhvOrig</title>
<ellipse fill="none" stroke="#e377c2" cx="1279.71" cy="-721.18" rx="79.39" ry="16.03"/>
<text text-anchor="middle" x="1279.71" y="-717.48" font-family="Times,serif" font-size="14.00">okh:okhvOrig</text>
</g>
<!-- http://w3id.org/oseg/ont/okh#okhvPresent&#45;&gt;http://w3id.org/oseg/ont/okh#okhvOrig -->
<g id="edge26" class="edge">
<title>http://w3id.org/oseg/ont/okh#okhvPresent&#45;&gt;http://w3id.org/oseg/ont/okh#okhvOrig</title>
<path fill="none" stroke="black" d="M1290.1,-692.29C1289.78,-693.18 1289.45,-694.08 1289.13,-694.98"/>
<polygon fill="black" stroke="black" points="1285.71,-694.14 1285.62,-704.73 1292.3,-696.5 1285.71,-694.14"/>
<text text-anchor="middle" x="1262.11" y="-697.44" font-family="Times,serif" font-size="14.00">seeAlso</text>
</g>
<!-- http://spdx.org/rdf/terms#ListedLicense -->
<g id="node25" class="node">
<title>http://spdx.org/rdf/terms#ListedLicense</title>
<ellipse fill="none" stroke="#e377c2" cx="1638.3" cy="-864.5" rx="108.38" ry="16.03"/>
<text text-anchor="middle" x="1638.3" y="-860.8" font-family="Times,serif" font-size="14.00">spdx:ListedLicense</text>
</g>
<!-- http://w3id.org/oseg/ont/okh#spdxLicense -->
<g id="node26" class="node">
<title>http://w3id.org/oseg/ont/okh#spdxLicense</title>
<ellipse fill="none" stroke="#e377c2" cx="1479.33" cy="-1155.37" rx="94.51" ry="16.03"/>
<text text-anchor="middle" x="1479.33" y="-1151.67" font-family="Times,serif" font-size="14.00">okh:spdxLicense</text>
</g>
<!-- http://w3id.org/oseg/ont/okh#spdxLicense&#45;&gt;http://www.w3.org/2004/02/skos/core#Concept -->
<g id="edge42" class="edge">
<title>http://w3id.org/oseg/ont/okh#spdxLicense&#45;&gt;http://www.w3.org/2004/02/skos/core#Concept</title>
<path fill="none" stroke="black" d="M1435.58,-1169.9C1381.98,-1187.7 1291.29,-1217.82 1234.36,-1236.73"/>
<polygon fill="black" stroke="black" points="1233.22,-1233.42 1224.84,-1239.9 1235.43,-1240.07 1233.22,-1233.42"/>
<text text-anchor="middle" x="1330.47" y="-1207.12" font-family="Times,serif" font-size="14.00">a</text>
</g>
<!-- http://w3id.org/oseg/ont/okh#spdxLicense&#45;&gt;http://w3id.org/oseg/ont/okh#Module -->
<g id="edge5" class="edge">
<title>http://w3id.org/oseg/ont/okh#spdxLicense&#45;&gt;http://w3id.org/oseg/ont/okh#Module</title>
<path fill="none" stroke="black" d="M1523.57,-1169.8C1566.81,-1183.91 1632.56,-1205.35 1677.84,-1220.13"/>
<polygon fill="black" stroke="black" points="1676.87,-1223.49 1687.46,-1223.26 1679.04,-1216.84 1676.87,-1223.49"/>
<text text-anchor="middle" x="1522.7" y="-1198.76" font-family="Times,serif" font-size="14.00">dcam:domainIncludes</text>
</g>
<!-- http://w3id.org/oseg/ont/okh#spdxLicense&#45;&gt;http://schema.org/license -->
<g id="edge22" class="edge">
<title>http://w3id.org/oseg/ont/okh#spdxLicense&#45;&gt;http://schema.org/license</title>
<path fill="none" stroke="black" d="M1407.86,-1166.14C1390.01,-1168.83 1370.76,-1171.73 1352.59,-1174.47"/>
<polygon fill="black" stroke="black" points="1351.99,-1171.02 1342.62,-1175.97 1353.03,-1177.94 1351.99,-1171.02"/>
<text text-anchor="middle" x="1321.23" y="-1159.1" font-family="Times,serif" font-size="14.00">skos:closeMatch</text>
</g>
<!-- http://w3id.org/oseg/ont/okh#spdxLicense&#45;&gt;http://spdx.org/rdf/terms#ListedLicense -->
<g id="edge20" class="edge">
<title>http://w3id.org/oseg/ont/okh#spdxLicense&#45;&gt;http://spdx.org/rdf/terms#ListedLicense</title>
<path fill="none" stroke="black" d="M1488.33,-1138.9C1514.84,-1090.4 1592.72,-947.9 1624.53,-889.7"/>
<polygon fill="black" stroke="black" points="1627.67,-891.25 1629.4,-880.79 1621.53,-887.89 1627.67,-891.25"/>
<text text-anchor="middle" x="1483.93" y="-1018.1" font-family="Times,serif" font-size="14.00">dcam:rangeIncludes</text>
</g>
<!-- http://w3id.org/oseg/ont/okh#spdxLicense&#45;&gt;http://w3id.org/oseg/ont/okhmetaLegalTag -->
<g id="edge36" class="edge">
<title>http://w3id.org/oseg/ont/okh#spdxLicense&#45;&gt;http://w3id.org/oseg/ont/okhmetaLegalTag</title>
<path fill="none" stroke="black" d="M1474.94,-1139.11C1473.85,-1135.11 1472.67,-1130.71 1471.49,-1126.37"/>
<polygon fill="black" stroke="black" points="1474.82,-1125.26 1468.83,-1116.52 1468.06,-1127.09 1474.82,-1125.26"/>
<text text-anchor="middle" x="1396.21" y="-1121.54" font-family="Times,serif" font-size="14.00">okhmeta:hasMetaTag</text>
</g>
<!-- http://w3id.org/oseg/ont/okh#spdxLicense&#45;&gt;http://w3id.org/oseg/ont/okh#license -->
<g id="edge35" class="edge">
<title>http://w3id.org/oseg/ont/okh#spdxLicense&#45;&gt;http://w3id.org/oseg/ont/okh#license</title>
<path fill="none" stroke="black" d="M1573.72,-1153.79C1588.66,-1153.54 1603.96,-1153.29 1618.48,-1153.04"/>
<polygon fill="black" stroke="black" points="1618.95,-1156.53 1628.89,-1152.87 1618.83,-1149.54 1618.95,-1156.53"/>
<text text-anchor="middle" x="1596.1" y="-1142.22" font-family="Times,serif" font-size="14.00">schema:supersededBy</text>
</g>
<!-- http://w3id.org/oseg/ont/okh#fileUrl -->
<g id="node31" class="node">
<title>http://w3id.org/oseg/ont/okh#fileUrl</title>
<ellipse fill="none" stroke="#e377c2" cx="1889.18" cy="-1833.98" rx="65.11" ry="16.03"/>
<text text-anchor="middle" x="1889.18" y="-1830.28" font-family="Times,serif" font-size="14.00">okh:fileUrl</text>
</g>
<!-- http://w3id.org/oseg/ont/okh#fileUrl&#45;&gt;http://w3id.org/oseg/ont/okh#File -->
<g id="edge29" class="edge">
<title>http://w3id.org/oseg/ont/okh#fileUrl&#45;&gt;http://w3id.org/oseg/ont/okh#File</title>
<path fill="none" stroke="black" d="M1870.11,-1818.33C1833.71,-1788.46 1754.26,-1723.28 1712.82,-1689.28"/>
<polygon fill="black" stroke="black" points="1715.01,-1686.55 1705.06,-1682.91 1710.57,-1691.96 1715.01,-1686.55"/>
<text text-anchor="middle" x="1713.47" y="-1757.6" font-family="Times,serif" font-size="14.00">dcam:domainIncludes</text>
</g>
<!-- http://schema.org/url -->
<g id="node32" class="node">
<title>http://schema.org/url</title>
<ellipse fill="none" stroke="#e377c2" cx="2036.7" cy="-2040.71" rx="67.35" ry="16.03"/>
<text text-anchor="middle" x="2036.7" y="-2037.01" font-family="Times,serif" font-size="14.00">schema:url</text>
</g>
<!-- http://w3id.org/oseg/ont/okh#fileUrl&#45;&gt;http://schema.org/url -->
<g id="edge32" class="edge">
<title>http://w3id.org/oseg/ont/okh#fileUrl&#45;&gt;http://schema.org/url</title>
<path fill="none" stroke="black" d="M1900.76,-1850.2C1926.56,-1886.35 1988.89,-1973.71 2019.36,-2016.41"/>
<polygon fill="black" stroke="black" points="2016.52,-2018.46 2025.18,-2024.56 2022.22,-2014.39 2016.52,-2018.46"/>
<text text-anchor="middle" x="1907.06" y="-1937.1" font-family="Times,serif" font-size="14.00">subPropertyOf</text>
</g>
<!-- http://w3id.org/oseg/ont/okh#url -->
<g id="node35" class="node">
<title>http://w3id.org/oseg/ont/okh#url</title>
<ellipse fill="none" stroke="#e377c2" cx="2111.17" cy="-1901.35" rx="47.25" ry="16.03"/>
<text text-anchor="middle" x="2111.17" y="-1897.65" font-family="Times,serif" font-size="14.00">okh:url</text>
</g>
<!-- http://w3id.org/oseg/ont/okh#fileUrl&#45;&gt;http://w3id.org/oseg/ont/okh#url -->
<g id="edge41" class="edge">
<title>http://w3id.org/oseg/ont/okh#fileUrl&#45;&gt;http://w3id.org/oseg/ont/okh#url</title>
<path fill="none" stroke="black" d="M1930.68,-1846.57C1969.09,-1858.23 2026.07,-1875.52 2065.7,-1887.55"/>
<polygon fill="black" stroke="black" points="2064.8,-1890.94 2075.38,-1890.49 2066.83,-1884.24 2064.8,-1890.94"/>
<text text-anchor="middle" x="1918.19" y="-1870.86" font-family="Times,serif" font-size="14.00">schema:supersededBy</text>
</g>
<!-- http://w3id.org/oseg/ont/okh#unit -->
<g id="node36" class="node">
<title>http://w3id.org/oseg/ont/okh#unit</title>
<ellipse fill="none" stroke="#e377c2" cx="727.1" cy="-821.28" rx="53.07" ry="16.03"/>
<text text-anchor="middle" x="727.1" y="-817.58" font-family="Times,serif" font-size="14.00">okh:unit</text>
</g>
<!-- http://w3id.org/oseg/ont/okh#unit&#45;&gt;http://w3id.org/oseg/ont/okh#Mass -->
<g id="edge33" class="edge">
<title>http://w3id.org/oseg/ont/okh#unit&#45;&gt;http://w3id.org/oseg/ont/okh#Mass</title>
<path fill="none" stroke="black" d="M736.78,-837.56C761.45,-879.02 826.81,-988.86 856.36,-1038.53"/>
<polygon fill="black" stroke="black" points="853.49,-1040.55 861.61,-1047.35 859.51,-1036.97 853.49,-1040.55"/>
<text text-anchor="middle" x="718.57" y="-941.85" font-family="Times,serif" font-size="14.00">dcam:domainIncludes</text>
</g>
<!-- http://w3id.org/oseg/ont/okh#unit&#45;&gt;http://w3id.org/oseg/ont/okh#Dimensions -->
<g id="edge4" class="edge">
<title>http://w3id.org/oseg/ont/okh#unit&#45;&gt;http://w3id.org/oseg/ont/okh#Dimensions</title>
<path fill="none" stroke="black" d="M715.34,-805.11C682.08,-759.36 587.18,-628.86 547.45,-574.22"/>
<polygon fill="black" stroke="black" points="550.27,-572.16 541.56,-566.13 544.61,-576.27 550.27,-572.16"/>
<text text-anchor="middle" x="553.39" y="-693.46" font-family="Times,serif" font-size="14.00">dcam:domainIncludes</text>
</g>
<!-- http://w3id.org/oseg/ont/okh#relatedTsdc -->
<g id="node38" class="node">
<title>http://w3id.org/oseg/ont/okh#relatedTsdc</title>
<ellipse fill="none" stroke="#e377c2" cx="1797.66" cy="-544.56" rx="91.85" ry="16.03"/>
<text text-anchor="middle" x="1797.66" y="-540.86" font-family="Times,serif" font-size="14.00">okh:relatedTsdc</text>
</g>
<!-- http://w3id.org/oseg/ont/okh#relatedTsdc&#45;&gt;http://w3id.org/oseg/ont/okh#tsdc -->
<g id="edge3" class="edge">
<title>http://w3id.org/oseg/ont/okh#relatedTsdc&#45;&gt;http://w3id.org/oseg/ont/okh#tsdc</title>
<path fill="none" stroke="black" d="M1712.02,-550.55C1703.36,-551.88 1694.81,-553.31 1686.76,-554.77"/>
<polygon fill="black" stroke="black" points="1686.05,-551.34 1676.87,-556.64 1687.35,-558.22 1686.05,-551.34"/>
<text text-anchor="middle" x="1619.39" y="-541.46" font-family="Times,serif" font-size="14.00">schema:supersededBy</text>
</g>
<!-- http://w3id.org/oseg/ont/okh#relatedTsdc&#45;&gt;http://w3id.org/oseg/ont/okh#tsdc -->
<g id="edge31" class="edge">
<title>http://w3id.org/oseg/ont/okh#relatedTsdc&#45;&gt;http://w3id.org/oseg/ont/okh#tsdc</title>
<path fill="none" stroke="black" d="M1748.27,-558.34C1733.99,-560.91 1718.19,-563.37 1703.13,-565.39"/>
<polygon fill="black" stroke="black" points="1702.32,-561.96 1692.85,-566.71 1703.21,-568.91 1702.32,-561.96"/>
<text text-anchor="middle" x="1768.2" y="-565.66" font-family="Times,serif" font-size="14.00">owl:sameAs</text>
</g>
<!-- http://w3id.org/oseg/ont/okh#okhvOriginal -->
<g id="node40" class="node">
<title>http://w3id.org/oseg/ont/okh#okhvOriginal</title>
<ellipse fill="none" stroke="#e377c2" cx="1383.75" cy="-767.24" rx="97.66" ry="16.03"/>
<text text-anchor="middle" x="1383.75" y="-763.54" font-family="Times,serif" font-size="14.00">okh:okhvOriginal</text>
</g>
<!-- http://w3id.org/oseg/ont/okh#okhvOriginal&#45;&gt;http://w3id.org/oseg/ont/okh#okhvStored -->
<g id="edge9" class="edge">
<title>http://w3id.org/oseg/ont/okh#okhvOriginal&#45;&gt;http://w3id.org/oseg/ont/okh#okhvStored</title>
<path fill="none" stroke="black" d="M1286,-766.31C1273.33,-766.19 1260.32,-766.07 1247.6,-765.95"/>
<polygon fill="black" stroke="black" points="1247.5,-762.45 1237.47,-765.85 1247.43,-769.44 1247.5,-762.45"/>
<text text-anchor="middle" x="1266.8" y="-754.93" font-family="Times,serif" font-size="14.00">seeAlso</text>
</g>
<!-- http://w3id.org/oseg/ont/okh#okhvOriginal&#45;&gt;http://w3id.org/oseg/ont/okh#okhv -->
<g id="edge25" class="edge">
<title>http://w3id.org/oseg/ont/okh#okhvOriginal&#45;&gt;http://w3id.org/oseg/ont/okh#okhv</title>
<path fill="none" stroke="black" d="M1414.83,-751.72C1419.26,-749.51 1423.85,-747.22 1428.38,-744.96"/>
<polygon fill="black" stroke="black" points="1430.16,-747.98 1437.54,-740.38 1427.03,-741.72 1430.16,-747.98"/>
<text text-anchor="middle" x="1368.61" y="-737.14" font-family="Times,serif" font-size="14.00">subPropertyOf</text>
</g>
</g>
</svg>
