<?xml version="1.0" encoding="UTF-8" standalone="no"?>
<!DOCTYPE svg PUBLIC "-//W3C//DTD SVG 1.1//EN"
 "http://www.w3.org/Graphics/SVG/1.1/DTD/svg11.dtd">
<!-- Generated by graphviz version 2.43.0 (0)
 -->
<!-- Title: G Pages: 1 -->
<svg width="1071pt" height="1123pt"
 viewBox="0.00 0.00 1071.00 1123.00" xmlns="http://www.w3.org/2000/svg" xmlns:xlink="http://www.w3.org/1999/xlink">
<g id="graph0" class="graph" transform="scale(1 1) rotate(0) translate(4 1119)">
<title>G</title>
<polygon fill="white" stroke="transparent" points="-4,4 -4,-1119 1067,-1119 1067,4 -4,4"/>
<!-- http://spdx.org/rdf/terms#File -->
<g id="node1" class="node">
<title>http://spdx.org/rdf/terms#File</title>
<ellipse fill="none" stroke="#1f77b4" cx="448.74" cy="-856.12" rx="62.45" ry="16.03"/>
<text text-anchor="middle" x="448.74" y="-852.42" font-family="Times,serif" font-size="14.00">spdxt:File</text>
</g>
<!-- https://w3id.org/oseg/ont/okhmeta#MetaTag -->
<g id="node2" class="node">
<title>https://w3id.org/oseg/ont/okhmeta#MetaTag</title>
<ellipse fill="none" stroke="#e377c2" cx="462.89" cy="-374.33" rx="102.56" ry="16.03"/>
<text text-anchor="middle" x="462.89" y="-370.63" font-family="Times,serif" font-size="14.00">okhmeta:MetaTag</text>
</g>
<!-- https://w3id.org/oseg/ont/okhmeta#MetaTag&#45;&gt;https://w3id.org/oseg/ont/okhmeta#MetaTag -->
<g id="edge41" class="edge">
<title>https://w3id.org/oseg/ont/okhmeta#MetaTag&#45;&gt;https://w3id.org/oseg/ont/okhmeta#MetaTag</title>
<path fill="none" stroke="black" d="M557.88,-380.55C573.05,-379.64 583.42,-377.56 583.42,-374.33 583.42,-371.88 577.46,-370.1 567.98,-368.98"/>
<polygon fill="black" stroke="black" points="568.15,-365.48 557.88,-368.11 567.55,-372.46 568.15,-365.48"/>
<text text-anchor="middle" x="660.42" y="-370.63" font-family="Times,serif" font-size="14.00">okhmeta:hasMetaTag</text>
</g>
<!-- https://w3id.org/oseg/ont/okhmeta#Tag -->
<g id="node3" class="node">
<title>https://w3id.org/oseg/ont/okhmeta#Tag</title>
<ellipse fill="none" stroke="#e377c2" cx="419.82" cy="-333.73" rx="76.24" ry="16.03"/>
<text text-anchor="middle" x="419.82" y="-330.03" font-family="Times,serif" font-size="14.00">okhmeta:Tag</text>
</g>
<!-- https://w3id.org/oseg/ont/okhmeta#MetaTag&#45;&gt;https://w3id.org/oseg/ont/okhmeta#Tag -->
<g id="edge33" class="edge">
<title>https://w3id.org/oseg/ont/okhmeta#MetaTag&#45;&gt;https://w3id.org/oseg/ont/okhmeta#Tag</title>
<path fill="none" stroke="black" d="M454.47,-357.85C454.07,-357.4 453.67,-356.94 453.25,-356.49"/>
<polygon fill="black" stroke="black" points="455.53,-353.82 446.02,-349.15 450.55,-358.73 455.53,-353.82"/>
<text text-anchor="middle" x="449.36" y="-345.97" font-family="Times,serif" font-size="14.00">a</text>
</g>
<!-- https://w3id.org/oseg/ont/okhmeta#Tag&#45;&gt;https://w3id.org/oseg/ont/okhmeta#MetaTag -->
<g id="edge38" class="edge">
<title>https://w3id.org/oseg/ont/okhmeta#Tag&#45;&gt;https://w3id.org/oseg/ont/okhmeta#MetaTag</title>
<path fill="none" stroke="black" d="M428.25,-350.22C428.55,-350.56 428.87,-350.91 429.18,-351.26"/>
<polygon fill="black" stroke="black" points="426.88,-353.91 436.37,-358.61 431.88,-349.01 426.88,-353.91"/>
<text text-anchor="middle" x="351.72" y="-354.54" font-family="Times,serif" font-size="14.00">okhmeta:hasMetaTag</text>
</g>
<!-- http://www.w3.org/2004/02/skos/core#Collection -->
<g id="node4" class="node">
<title>http://www.w3.org/2004/02/skos/core#Collection</title>
<ellipse fill="none" stroke="#e377c2" cx="164.5" cy="-164.29" rx="87.86" ry="16.03"/>
<text text-anchor="middle" x="164.5" y="-160.59" font-family="Times,serif" font-size="14.00">skos:Collection</text>
</g>
<!-- https://w3id.org/oseg/ont/okhmeta#Tag&#45;&gt;http://www.w3.org/2004/02/skos/core#Collection -->
<g id="edge39" class="edge">
<title>https://w3id.org/oseg/ont/okhmeta#Tag&#45;&gt;http://www.w3.org/2004/02/skos/core#Collection</title>
<path fill="none" stroke="black" d="M396.26,-318.09C350.4,-287.66 249.07,-220.41 196.92,-185.8"/>
<polygon fill="black" stroke="black" points="198.65,-182.75 188.38,-180.14 194.78,-188.58 198.65,-182.75"/>
</g>
<!-- http://www.w3.org/2004/02/skos/core#Concept -->
<g id="node5" class="node">
<title>http://www.w3.org/2004/02/skos/core#Concept</title>
<ellipse fill="none" stroke="#1f77b4" cx="517.52" cy="-605.94" rx="78.48" ry="16.03"/>
<text text-anchor="middle" x="517.52" y="-602.24" font-family="Times,serif" font-size="14.00">skos:Concept</text>
</g>
<!-- https://w3id.org/oseg/ont/okhmeta#Tag&#45;&gt;http://www.w3.org/2004/02/skos/core#Concept -->
<g id="edge1" class="edge">
<title>https://w3id.org/oseg/ont/okhmeta#Tag&#45;&gt;http://www.w3.org/2004/02/skos/core#Concept</title>
<path fill="none" stroke="black" d="M425.79,-350.35C442.25,-396.21 488.4,-524.78 508.25,-580.1"/>
<polygon fill="black" stroke="black" points="504.97,-581.31 511.64,-589.54 511.55,-578.95 504.97,-581.31"/>
<text text-anchor="middle" x="462.52" y="-469.03" font-family="Times,serif" font-size="14.00">a</text>
</g>
<!-- https://w3id.org/oseg/ont/okhmeta -->
<g id="node6" class="node">
<title>https://w3id.org/oseg/ont/okhmeta</title>
<ellipse fill="none" stroke="#e377c2" cx="580.05" cy="-985.04" rx="76.24" ry="16.03"/>
<text text-anchor="middle" x="580.05" y="-981.34" font-family="Times,serif" font-size="14.00">ns1:okhmeta</text>
</g>
<!-- https://w3id.org/oseg/ont/okhmeta&#45;&gt;http://spdx.org/rdf/terms#File -->
<g id="edge3" class="edge">
<title>https://w3id.org/oseg/ont/okhmeta&#45;&gt;http://spdx.org/rdf/terms#File</title>
<path fill="none" stroke="black" d="M563.68,-968.98C540.66,-946.37 498.57,-905.04 472.21,-879.16"/>
<polygon fill="black" stroke="black" points="474.49,-876.49 464.9,-871.98 469.58,-881.49 474.49,-876.49"/>
<text text-anchor="middle" x="513.45" y="-912.87" font-family="Times,serif" font-size="14.00">a</text>
</g>
<!-- https://w3id.org/oseg/ont/oseg&#45;profiles#robinVobruba -->
<g id="node8" class="node">
<title>https://w3id.org/oseg/ont/oseg&#45;profiles#robinVobruba</title>
<ellipse fill="none" stroke="#e377c2" cx="678.83" cy="-942.84" rx="113.69" ry="16.03"/>
<text text-anchor="middle" x="678.83" y="-939.14" font-family="Times,serif" font-size="14.00">osegprof:robinVob...</text>
</g>
<!-- https://w3id.org/oseg/ont/okhmeta&#45;&gt;https://w3id.org/oseg/ont/oseg&#45;profiles#robinVobruba -->
<g id="edge10" class="edge">
<title>https://w3id.org/oseg/ont/okhmeta&#45;&gt;https://w3id.org/oseg/ont/oseg&#45;profiles#robinVobruba</title>
<path fill="none" stroke="black" d="M627.17,-972.22C634.01,-969.38 640.92,-966.34 647.35,-963.3"/>
<polygon fill="black" stroke="black" points="648.94,-966.42 656.39,-958.89 645.87,-960.13 648.94,-966.42"/>
<text text-anchor="middle" x="694.76" y="-971.56" font-family="Times,serif" font-size="14.00">dcterms:creator</text>
</g>
<!-- https://w3id.org/oseg/ont/okhmeta&#45;&gt;https://w3id.org/oseg/ont/oseg&#45;profiles#robinVobruba -->
<g id="edge25" class="edge">
<title>https://w3id.org/oseg/ont/okhmeta&#45;&gt;https://w3id.org/oseg/ont/oseg&#45;profiles#robinVobruba</title>
<path fill="none" stroke="black" d="M601.65,-969.42C606.67,-966.85 612.25,-964.19 618.06,-961.57"/>
<polygon fill="black" stroke="black" points="619.56,-964.73 627.31,-957.51 616.75,-958.32 619.56,-964.73"/>
<text text-anchor="middle" x="554.36" y="-954.29" font-family="Times,serif" font-size="14.00">schema:creator</text>
</g>
<!-- https://w3id.org/oseg/ont/oseg&#45;profiles#Iopa -->
<g id="node16" class="node">
<title>https://w3id.org/oseg/ont/oseg&#45;profiles#Iopa</title>
<ellipse fill="none" stroke="#e377c2" cx="566.19" cy="-1025.81" rx="80.72" ry="16.03"/>
<text text-anchor="middle" x="566.19" y="-1022.11" font-family="Times,serif" font-size="14.00">osegprof:Iopa</text>
</g>
<!-- https://w3id.org/oseg/ont/okhmeta&#45;&gt;https://w3id.org/oseg/ont/oseg&#45;profiles#Iopa -->
<g id="edge12" class="edge">
<title>https://w3id.org/oseg/ont/okhmeta&#45;&gt;https://w3id.org/oseg/ont/oseg&#45;profiles#Iopa</title>
<path fill="none" stroke="black" d="M574.41,-1001.62C574.36,-1001.78 574.3,-1001.94 574.25,-1002.1"/>
<polygon fill="black" stroke="black" points="571.68,-998.78 571.78,-1009.37 578.31,-1001.03 571.68,-998.78"/>
<text text-anchor="middle" x="639.83" y="-1005.66" font-family="Times,serif" font-size="14.00">dcterms:publisher</text>
</g>
<!-- https://spdx.org/licenses/GPL&#45;3.0&#45;or&#45;later -->
<g id="node18" class="node">
<title>https://spdx.org/licenses/GPL&#45;3.0&#45;or&#45;later</title>
<ellipse fill="none" stroke="#e377c2" cx="794.17" cy="-1062.97" rx="108.79" ry="16.03"/>
<text text-anchor="middle" x="794.17" y="-1059.27" font-family="Times,serif" font-size="14.00">spdxl:GPL&#45;3.0&#45;or&#45;...</text>
</g>
<!-- https://w3id.org/oseg/ont/okhmeta&#45;&gt;https://spdx.org/licenses/GPL&#45;3.0&#45;or&#45;later -->
<g id="edge35" class="edge">
<title>https://w3id.org/oseg/ont/okhmeta&#45;&gt;https://spdx.org/licenses/GPL&#45;3.0&#45;or&#45;later</title>
<path fill="none" stroke="black" d="M618.82,-999.16C653.71,-1011.85 705.2,-1030.59 743.36,-1044.48"/>
<polygon fill="black" stroke="black" points="742.16,-1047.77 752.76,-1047.9 744.56,-1041.19 742.16,-1047.77"/>
<text text-anchor="middle" x="760.09" y="-1025.62" font-family="Times,serif" font-size="14.00">spdxt:licenseDeclared</text>
</g>
<!-- https://w3id.org/oseg/ont/1.1.0/okh&#45;meta -->
<g id="node23" class="node">
<title>https://w3id.org/oseg/ont/1.1.0/okh&#45;meta</title>
<ellipse fill="none" stroke="#e377c2" cx="416.24" cy="-1099.02" rx="79.81" ry="16.03"/>
<text text-anchor="middle" x="416.24" y="-1095.32" font-family="Times,serif" font-size="14.00">ns2:okh&#45;meta</text>
</g>
<!-- https://w3id.org/oseg/ont/okhmeta&#45;&gt;https://w3id.org/oseg/ont/1.1.0/okh&#45;meta -->
<g id="edge40" class="edge">
<title>https://w3id.org/oseg/ont/okhmeta&#45;&gt;https://w3id.org/oseg/ont/1.1.0/okh&#45;meta</title>
<path fill="none" stroke="black" d="M557.62,-1000.65C529.1,-1020.49 479.73,-1054.84 447.52,-1077.25"/>
<polygon fill="black" stroke="black" points="445.14,-1074.65 438.93,-1083.23 449.14,-1080.39 445.14,-1074.65"/>
<text text-anchor="middle" x="451.07" y="-1042.75" font-family="Times,serif" font-size="14.00">owl:versionIRI</text>
</g>
<!-- http://id.loc.gov/vocabulary/iso639&#45;1/en -->
<g id="node27" class="node">
<title>http://id.loc.gov/vocabulary/iso639&#45;1/en</title>
<ellipse fill="none" stroke="#e377c2" cx="500.47" cy="-942.16" rx="45.01" ry="16.03"/>
<text text-anchor="middle" x="500.47" y="-938.46" font-family="Times,serif" font-size="14.00">ns3:en</text>
</g>
<!-- https://w3id.org/oseg/ont/okhmeta&#45;&gt;http://id.loc.gov/vocabulary/iso639&#45;1/en -->
<g id="edge45" class="edge">
<title>https://w3id.org/oseg/ont/okhmeta&#45;&gt;http://id.loc.gov/vocabulary/iso639&#45;1/en</title>
<path fill="none" stroke="black" d="M551.77,-969.8C546.2,-966.8 540.3,-963.62 534.56,-960.53"/>
<polygon fill="black" stroke="black" points="536.21,-957.44 525.75,-955.78 532.89,-963.6 536.21,-957.44"/>
<text text-anchor="middle" x="478.67" y="-968.97" font-family="Times,serif" font-size="14.00">dcterms:language</text>
</g>
<!-- https://w3id.org/oseg/ont/okhmeta#DataTag -->
<g id="node7" class="node">
<title>https://w3id.org/oseg/ont/okhmeta#DataTag</title>
<ellipse fill="none" stroke="#e377c2" cx="305.98" cy="-609.21" rx="100.32" ry="16.03"/>
<text text-anchor="middle" x="305.98" y="-605.51" font-family="Times,serif" font-size="14.00">okhmeta:DataTag</text>
</g>
<!-- https://w3id.org/oseg/ont/okhmeta#DataTag&#45;&gt;https://w3id.org/oseg/ont/okhmeta#MetaTag -->
<g id="edge16" class="edge">
<title>https://w3id.org/oseg/ont/okhmeta#DataTag&#45;&gt;https://w3id.org/oseg/ont/okhmeta#MetaTag</title>
<path fill="none" stroke="black" d="M317.01,-592.7C344.14,-552.08 414.24,-447.16 446.36,-399.07"/>
<polygon fill="black" stroke="black" points="449.43,-400.78 452.08,-390.52 443.61,-396.89 449.43,-400.78"/>
<text text-anchor="middle" x="304.69" y="-499.68" font-family="Times,serif" font-size="14.00">okhmeta:hasMetaTag</text>
</g>
<!-- https://w3id.org/oseg/ont/okhmeta#DataTag&#45;&gt;https://w3id.org/oseg/ont/okhmeta#Tag -->
<g id="edge22" class="edge">
<title>https://w3id.org/oseg/ont/okhmeta#DataTag&#45;&gt;https://w3id.org/oseg/ont/okhmeta#Tag</title>
<path fill="none" stroke="black" d="M312.76,-592.8C331.82,-546.68 386,-415.58 409.13,-359.6"/>
<polygon fill="black" stroke="black" points="412.49,-360.63 413.08,-350.05 406.02,-357.96 412.49,-360.63"/>
<text text-anchor="middle" x="356.45" y="-480" font-family="Times,serif" font-size="14.00">a</text>
</g>
<!-- https://w3id.org/oseg/ont/okhmeta#PartsTag -->
<g id="node9" class="node">
<title>https://w3id.org/oseg/ont/okhmeta#PartsTag</title>
<ellipse fill="none" stroke="#e377c2" cx="170.57" cy="-463.94" rx="103.48" ry="16.03"/>
<text text-anchor="middle" x="170.57" y="-460.24" font-family="Times,serif" font-size="14.00">okhmeta:PartsTag</text>
</g>
<!-- https://w3id.org/oseg/ont/okhmeta#PartsTag&#45;&gt;https://w3id.org/oseg/ont/okhmeta#MetaTag -->
<g id="edge32" class="edge">
<title>https://w3id.org/oseg/ont/okhmeta#PartsTag&#45;&gt;https://w3id.org/oseg/ont/okhmeta#MetaTag</title>
<path fill="none" stroke="black" d="M217.87,-449.44C269.24,-433.7 351.28,-408.55 406.1,-391.74"/>
<polygon fill="black" stroke="black" points="407.14,-395.08 415.67,-388.81 405.08,-388.39 407.14,-395.08"/>
<text text-anchor="middle" x="234.98" y="-424.39" font-family="Times,serif" font-size="14.00">okhmeta:hasMetaTag</text>
</g>
<!-- https://w3id.org/oseg/ont/okhmeta#PartsTag&#45;&gt;https://w3id.org/oseg/ont/okhmeta#Tag -->
<g id="edge26" class="edge">
<title>https://w3id.org/oseg/ont/okhmeta#PartsTag&#45;&gt;https://w3id.org/oseg/ont/okhmeta#Tag</title>
<path fill="none" stroke="black" d="M200.64,-448.24C246.01,-424.53 331.95,-379.64 381.67,-353.66"/>
<polygon fill="black" stroke="black" points="383.57,-356.62 390.81,-348.89 380.33,-350.42 383.57,-356.62"/>
<text text-anchor="middle" x="286.65" y="-404.75" font-family="Times,serif" font-size="14.00">a</text>
</g>
<!-- https://w3id.org/oseg/ont/okhmeta#ExtendedInfoTag -->
<g id="node10" class="node">
<title>https://w3id.org/oseg/ont/okhmeta#ExtendedInfoTag</title>
<ellipse fill="none" stroke="#e377c2" cx="181.98" cy="-564.07" rx="120.42" ry="16.03"/>
<text text-anchor="middle" x="181.98" y="-560.37" font-family="Times,serif" font-size="14.00">okhmeta:ExtendedI...</text>
</g>
<!-- https://w3id.org/oseg/ont/okhmeta#ExtendedInfoTag&#45;&gt;https://w3id.org/oseg/ont/okhmeta#MetaTag -->
<g id="edge20" class="edge">
<title>https://w3id.org/oseg/ont/okhmeta#ExtendedInfoTag&#45;&gt;https://w3id.org/oseg/ont/okhmeta#MetaTag</title>
<path fill="none" stroke="black" d="M205.93,-547.9C256.43,-513.78 373.86,-434.46 430.8,-396.01"/>
<polygon fill="black" stroke="black" points="433.07,-398.7 439.4,-390.2 429.15,-392.9 433.07,-398.7"/>
<text text-anchor="middle" x="356.86" y="-460.75" font-family="Times,serif" font-size="14.00">okhmeta:hasMetaTag</text>
</g>
<!-- https://w3id.org/oseg/ont/okhmeta#ExtendedInfoTag&#45;&gt;https://w3id.org/oseg/ont/okhmeta#Tag -->
<g id="edge4" class="edge">
<title>https://w3id.org/oseg/ont/okhmeta#ExtendedInfoTag&#45;&gt;https://w3id.org/oseg/ont/okhmeta#Tag</title>
<path fill="none" stroke="black" d="M198.7,-547.88C240.15,-507.73 347.76,-403.52 395.92,-356.88"/>
<polygon fill="black" stroke="black" points="398.37,-359.38 403.12,-349.91 393.5,-354.35 398.37,-359.38"/>
<text text-anchor="middle" x="292.81" y="-441.18" font-family="Times,serif" font-size="14.00">a</text>
</g>
<!-- http://www.w3.org/2004/02/skos/core#member -->
<g id="node11" class="node">
<title>http://www.w3.org/2004/02/skos/core#member</title>
<ellipse fill="none" stroke="#e377c2" cx="984.15" cy="-917.93" rx="79.39" ry="16.03"/>
<text text-anchor="middle" x="984.15" y="-914.23" font-family="Times,serif" font-size="14.00">skos:member</text>
</g>
<!-- https://w3id.org/oseg/ont/okhmeta#AcademicTag -->
<g id="node12" class="node">
<title>https://w3id.org/oseg/ont/okhmeta#AcademicTag</title>
<ellipse fill="none" stroke="#e377c2" cx="596.71" cy="-61.6" rx="124.4" ry="16.03"/>
<text text-anchor="middle" x="596.71" y="-57.9" font-family="Times,serif" font-size="14.00">okhmeta:AcademicTag</text>
</g>
<!-- https://w3id.org/oseg/ont/okhmeta#AcademicTag&#45;&gt;https://w3id.org/oseg/ont/okhmeta#MetaTag -->
<g id="edge43" class="edge">
<title>https://w3id.org/oseg/ont/okhmeta#AcademicTag&#45;&gt;https://w3id.org/oseg/ont/okhmeta#MetaTag</title>
<path fill="none" stroke="black" d="M589.7,-77.98C567.85,-129.05 500.8,-285.74 474.07,-348.22"/>
<polygon fill="black" stroke="black" points="470.71,-347.17 469.99,-357.74 477.14,-349.92 470.71,-347.17"/>
<text text-anchor="middle" x="454.89" y="-216.9" font-family="Times,serif" font-size="14.00">okhmeta:hasMetaTag</text>
</g>
<!-- https://w3id.org/oseg/ont/okhmeta#AcademicTag&#45;&gt;https://w3id.org/oseg/ont/okhmeta#Tag -->
<g id="edge7" class="edge">
<title>https://w3id.org/oseg/ont/okhmeta#AcademicTag&#45;&gt;https://w3id.org/oseg/ont/okhmeta#Tag</title>
<path fill="none" stroke="black" d="M586.17,-77.81C556.37,-123.66 471.33,-254.49 435.77,-309.2"/>
<polygon fill="black" stroke="black" points="432.82,-307.32 430.3,-317.61 438.69,-311.13 432.82,-307.32"/>
<text text-anchor="middle" x="506.47" y="-197.31" font-family="Times,serif" font-size="14.00">a</text>
</g>
<!-- https://w3id.org/oseg/ont/okhmeta#BasicTag -->
<g id="node13" class="node">
<title>https://w3id.org/oseg/ont/okhmeta#BasicTag</title>
<ellipse fill="none" stroke="#e377c2" cx="726.8" cy="-317.91" rx="103.48" ry="16.03"/>
<text text-anchor="middle" x="726.8" y="-314.21" font-family="Times,serif" font-size="14.00">okhmeta:BasicTag</text>
</g>
<!-- https://w3id.org/oseg/ont/okhmeta#BasicTag&#45;&gt;https://w3id.org/oseg/ont/okhmeta#MetaTag -->
<g id="edge31" class="edge">
<title>https://w3id.org/oseg/ont/okhmeta#BasicTag&#45;&gt;https://w3id.org/oseg/ont/okhmeta#MetaTag</title>
<path fill="none" stroke="black" d="M665.26,-331.07C626,-339.46 574.98,-350.37 534,-359.13"/>
<polygon fill="black" stroke="black" points="533.12,-355.74 524.08,-361.25 534.59,-362.58 533.12,-355.74"/>
<text text-anchor="middle" x="676.63" y="-348.9" font-family="Times,serif" font-size="14.00">okhmeta:hasMetaTag</text>
</g>
<!-- https://w3id.org/oseg/ont/okhmeta#BasicTag&#45;&gt;https://w3id.org/oseg/ont/okhmeta#Tag -->
<g id="edge8" class="edge">
<title>https://w3id.org/oseg/ont/okhmeta#BasicTag&#45;&gt;https://w3id.org/oseg/ont/okhmeta#Tag</title>
<path fill="none" stroke="black" d="M628.4,-322.98C588.48,-325.04 542.82,-327.39 504.42,-329.37"/>
<polygon fill="black" stroke="black" points="504.12,-325.88 494.31,-329.89 504.48,-332.87 504.12,-325.88"/>
<text text-anchor="middle" x="561.91" y="-329.98" font-family="Times,serif" font-size="14.00">a</text>
</g>
<!-- https://w3id.org/oseg/ont/okhmeta#hasMetaTag -->
<g id="node14" class="node">
<title>https://w3id.org/oseg/ont/okhmeta#hasMetaTag</title>
<ellipse fill="none" stroke="#e377c2" cx="737.65" cy="-681" rx="120.42" ry="16.03"/>
<text text-anchor="middle" x="737.65" y="-677.3" font-family="Times,serif" font-size="14.00">okhmeta:hasMetaTag</text>
</g>
<!-- https://w3id.org/oseg/ont/okhmeta#hasMetaTag&#45;&gt;https://w3id.org/oseg/ont/okhmeta#MetaTag -->
<g id="edge13" class="edge">
<title>https://w3id.org/oseg/ont/okhmeta#hasMetaTag&#45;&gt;https://w3id.org/oseg/ont/okhmeta#MetaTag</title>
<path fill="none" stroke="black" d="M727.05,-664.57C687.33,-613.36 547.77,-457.15 489.08,-397.62"/>
<polygon fill="black" stroke="black" points="491.55,-395.14 482.01,-390.53 486.59,-400.08 491.55,-395.14"/>
<text text-anchor="middle" x="528.07" y="-519.9" font-family="Times,serif" font-size="14.00">schema:rangeIncludes</text>
</g>
<!-- https://w3id.org/oseg/ont/okhmeta#hasMetaTag&#45;&gt;https://w3id.org/oseg/ont/okhmeta#MetaTag -->
<g id="edge42" class="edge">
<title>https://w3id.org/oseg/ont/okhmeta#hasMetaTag&#45;&gt;https://w3id.org/oseg/ont/okhmeta#MetaTag</title>
<path fill="none" stroke="black" d="M718.31,-664.58C666.91,-613.68 528.19,-458.98 479.75,-398.67"/>
<polygon fill="black" stroke="black" points="482.48,-396.48 473.53,-390.81 476.99,-400.83 482.48,-396.48"/>
<text text-anchor="middle" x="522.03" y="-535.43" font-family="Times,serif" font-size="14.00">okhmeta:hasMetaTag</text>
</g>
<!-- https://w3id.org/oseg/ont/okhmeta#hasMetaTag&#45;&gt;http://www.w3.org/2004/02/skos/core#Concept -->
<g id="edge28" class="edge">
<title>https://w3id.org/oseg/ont/okhmeta#hasMetaTag&#45;&gt;http://www.w3.org/2004/02/skos/core#Concept</title>
<path fill="none" stroke="black" d="M693.1,-665.81C656.89,-653.47 605.81,-636.05 568.07,-623.18"/>
<polygon fill="black" stroke="black" points="568.89,-619.76 558.29,-619.85 566.63,-626.39 568.89,-619.76"/>
<text text-anchor="middle" x="626.09" y="-648.3" font-family="Times,serif" font-size="14.00">a</text>
</g>
<!-- https://w3id.org/oseg/ont/okhmeta#hasMetaTag&#45;&gt;http://www.w3.org/2004/02/skos/core#member -->
<g id="edge6" class="edge">
<title>https://w3id.org/oseg/ont/okhmeta#hasMetaTag&#45;&gt;http://www.w3.org/2004/02/skos/core#member</title>
<path fill="none" stroke="black" d="M754.59,-697.29C797.44,-738.47 910.24,-846.9 959.99,-894.71"/>
<polygon fill="black" stroke="black" points="957.78,-897.44 967.41,-901.85 962.63,-892.4 957.78,-897.44"/>
<text text-anchor="middle" x="804.29" y="-799.8" font-family="Times,serif" font-size="14.00">subPropertyOf</text>
</g>
<!-- https://w3id.org/oseg/ont/okhmeta#QualityTag -->
<g id="node15" class="node">
<title>https://w3id.org/oseg/ont/okhmeta#QualityTag</title>
<ellipse fill="none" stroke="#e377c2" cx="346.31" cy="-56.71" rx="113.27" ry="16.03"/>
<text text-anchor="middle" x="346.31" y="-53.01" font-family="Times,serif" font-size="14.00">okhmeta:QualityTag</text>
</g>
<!-- https://w3id.org/oseg/ont/okhmeta#QualityTag&#45;&gt;https://w3id.org/oseg/ont/okhmeta#MetaTag -->
<g id="edge5" class="edge">
<title>https://w3id.org/oseg/ont/okhmeta#QualityTag&#45;&gt;https://w3id.org/oseg/ont/okhmeta#MetaTag</title>
<path fill="none" stroke="black" d="M352.41,-73.34C371.49,-125.33 430.14,-285.1 453.32,-348.25"/>
<polygon fill="black" stroke="black" points="450.12,-349.68 456.85,-357.87 456.69,-347.27 450.12,-349.68"/>
<text text-anchor="middle" x="325.87" y="-199.59" font-family="Times,serif" font-size="14.00">okhmeta:hasMetaTag</text>
</g>
<!-- https://w3id.org/oseg/ont/okhmeta#QualityTag&#45;&gt;https://w3id.org/oseg/ont/okhmeta#Tag -->
<g id="edge29" class="edge">
<title>https://w3id.org/oseg/ont/okhmeta#QualityTag&#45;&gt;https://w3id.org/oseg/ont/okhmeta#Tag</title>
<path fill="none" stroke="black" d="M350.68,-73.21C362.97,-119.49 397.83,-250.87 412.83,-307.37"/>
<polygon fill="black" stroke="black" points="409.52,-308.55 415.47,-317.32 416.29,-306.75 409.52,-308.55"/>
<text text-anchor="middle" x="377.26" y="-179.09" font-family="Times,serif" font-size="14.00">a</text>
</g>
<!-- https://w3id.org/oseg/ont/okhmeta#IdentificationTag -->
<g id="node17" class="node">
<title>https://w3id.org/oseg/ont/okhmeta#IdentificationTag</title>
<ellipse fill="none" stroke="#e377c2" cx="647.13" cy="-143.95" rx="109.7" ry="16.03"/>
<text text-anchor="middle" x="647.13" y="-140.25" font-family="Times,serif" font-size="14.00">okhmeta:Identific...</text>
</g>
<!-- https://w3id.org/oseg/ont/okhmeta#IdentificationTag&#45;&gt;https://w3id.org/oseg/ont/okhmeta#MetaTag -->
<g id="edge9" class="edge">
<title>https://w3id.org/oseg/ont/okhmeta#IdentificationTag&#45;&gt;https://w3id.org/oseg/ont/okhmeta#MetaTag</title>
<path fill="none" stroke="black" d="M634.17,-160.15C602.26,-200.06 519.74,-303.25 482.11,-350.31"/>
<polygon fill="black" stroke="black" points="479.35,-348.15 475.83,-358.15 484.81,-352.52 479.35,-348.15"/>
<text text-anchor="middle" x="481.14" y="-259.03" font-family="Times,serif" font-size="14.00">okhmeta:hasMetaTag</text>
</g>
<!-- https://w3id.org/oseg/ont/okhmeta#IdentificationTag&#45;&gt;https://w3id.org/oseg/ont/okhmeta#Tag -->
<g id="edge46" class="edge">
<title>https://w3id.org/oseg/ont/okhmeta#IdentificationTag&#45;&gt;https://w3id.org/oseg/ont/okhmeta#Tag</title>
<path fill="none" stroke="black" d="M627.75,-160.13C587.13,-194.04 493.03,-272.61 446.65,-311.33"/>
<polygon fill="black" stroke="black" points="444.27,-308.76 438.83,-317.86 448.75,-314.14 444.27,-308.76"/>
<text text-anchor="middle" x="532.7" y="-239.53" font-family="Times,serif" font-size="14.00">a</text>
</g>
<!-- https://w3id.org/oseg/ont/okhmeta#DevelopmentTag -->
<g id="node19" class="node">
<title>https://w3id.org/oseg/ont/okhmeta#DevelopmentTag</title>
<ellipse fill="none" stroke="#e377c2" cx="490.68" cy="-15.95" rx="124.4" ry="16.03"/>
<text text-anchor="middle" x="490.68" y="-12.25" font-family="Times,serif" font-size="14.00">okhmeta:Developme...</text>
</g>
<!-- https://w3id.org/oseg/ont/okhmeta#DevelopmentTag&#45;&gt;https://w3id.org/oseg/ont/okhmeta#MetaTag -->
<g id="edge2" class="edge">
<title>https://w3id.org/oseg/ont/okhmeta#DevelopmentTag&#45;&gt;https://w3id.org/oseg/ont/okhmeta#MetaTag</title>
<path fill="none" stroke="black" d="M489.42,-32.28C485.02,-88.95 470.4,-277.49 464.96,-347.69"/>
<polygon fill="black" stroke="black" points="461.45,-347.66 464.17,-357.9 468.43,-348.2 461.45,-347.66"/>
<text text-anchor="middle" x="554.19" y="-178.79" font-family="Times,serif" font-size="14.00">okhmeta:hasMetaTag</text>
</g>
<!-- https://w3id.org/oseg/ont/okhmeta#DevelopmentTag&#45;&gt;https://w3id.org/oseg/ont/okhmeta#Tag -->
<g id="edge36" class="edge">
<title>https://w3id.org/oseg/ont/okhmeta#DevelopmentTag&#45;&gt;https://w3id.org/oseg/ont/okhmeta#Tag</title>
<path fill="none" stroke="black" d="M486.97,-32.59C475.4,-84.5 439.88,-243.79 425.73,-307.25"/>
<polygon fill="black" stroke="black" points="422.26,-306.74 423.5,-317.26 429.09,-308.26 422.26,-306.74"/>
<text text-anchor="middle" x="451.85" y="-173.72" font-family="Times,serif" font-size="14.00">a</text>
</g>
<!-- https://w3id.org/oseg/ont/okhmeta#PhysicalTag -->
<g id="node20" class="node">
<title>https://w3id.org/oseg/ont/okhmeta#PhysicalTag</title>
<ellipse fill="none" stroke="#e377c2" cx="656.86" cy="-561.76" rx="118.17" ry="16.03"/>
<text text-anchor="middle" x="656.86" y="-558.06" font-family="Times,serif" font-size="14.00">okhmeta:PhysicalTag</text>
</g>
<!-- https://w3id.org/oseg/ont/okhmeta#PhysicalTag&#45;&gt;https://w3id.org/oseg/ont/okhmeta#MetaTag -->
<g id="edge44" class="edge">
<title>https://w3id.org/oseg/ont/okhmeta#PhysicalTag&#45;&gt;https://w3id.org/oseg/ont/okhmeta#MetaTag</title>
<path fill="none" stroke="black" d="M639.99,-545.46C605.51,-512.14 526.88,-436.16 487.02,-397.64"/>
<polygon fill="black" stroke="black" points="489.21,-394.9 479.59,-390.46 484.35,-399.93 489.21,-394.9"/>
<text text-anchor="middle" x="640.5" y="-475.35" font-family="Times,serif" font-size="14.00">okhmeta:hasMetaTag</text>
</g>
<!-- https://w3id.org/oseg/ont/okhmeta#PhysicalTag&#45;&gt;https://w3id.org/oseg/ont/okhmeta#Tag -->
<g id="edge37" class="edge">
<title>https://w3id.org/oseg/ont/okhmeta#PhysicalTag&#45;&gt;https://w3id.org/oseg/ont/okhmeta#Tag</title>
<path fill="none" stroke="black" d="M639.81,-545.36C598.28,-505.41 491.78,-402.95 443.84,-356.84"/>
<polygon fill="black" stroke="black" points="446.03,-354.09 436.4,-349.68 441.18,-359.13 446.03,-354.09"/>
<text text-anchor="middle" x="537.33" y="-454.9" font-family="Times,serif" font-size="14.00">a</text>
</g>
<!-- https://w3id.org/oseg/ont/okhmeta#DocumentationTag -->
<g id="node21" class="node">
<title>https://w3id.org/oseg/ont/okhmeta#DocumentationTag</title>
<ellipse fill="none" stroke="#e377c2" cx="738.56" cy="-205.73" rx="125.32" ry="16.03"/>
<text text-anchor="middle" x="738.56" y="-202.03" font-family="Times,serif" font-size="14.00">okhmeta:Documenta...</text>
</g>
<!-- https://w3id.org/oseg/ont/okhmeta#DocumentationTag&#45;&gt;https://w3id.org/oseg/ont/okhmeta#MetaTag -->
<g id="edge24" class="edge">
<title>https://w3id.org/oseg/ont/okhmeta#DocumentationTag&#45;&gt;https://w3id.org/oseg/ont/okhmeta#MetaTag</title>
<path fill="none" stroke="black" d="M712.13,-221.9C662.09,-252.5 553.54,-318.89 497.66,-353.06"/>
<polygon fill="black" stroke="black" points="495.55,-350.26 488.84,-358.46 499.2,-356.23 495.55,-350.26"/>
<text text-anchor="middle" x="527.9" y="-291.28" font-family="Times,serif" font-size="14.00">okhmeta:hasMetaTag</text>
</g>
<!-- https://w3id.org/oseg/ont/okhmeta#DocumentationTag&#45;&gt;https://w3id.org/oseg/ont/okhmeta#Tag -->
<g id="edge14" class="edge">
<title>https://w3id.org/oseg/ont/okhmeta#DocumentationTag&#45;&gt;https://w3id.org/oseg/ont/okhmeta#Tag</title>
<path fill="none" stroke="black" d="M699.79,-221.3C640.74,-245.01 528.48,-290.1 465.53,-315.37"/>
<polygon fill="black" stroke="black" points="463.84,-312.28 455.87,-319.26 466.45,-318.78 463.84,-312.28"/>
<text text-anchor="middle" x="578.16" y="-272.14" font-family="Times,serif" font-size="14.00">a</text>
</g>
<!-- https://w3id.org/oseg/ont/okhmeta#MakingTag -->
<g id="node22" class="node">
<title>https://w3id.org/oseg/ont/okhmeta#MakingTag</title>
<ellipse fill="none" stroke="#e377c2" cx="144.99" cy="-268.66" rx="113.69" ry="16.03"/>
<text text-anchor="middle" x="144.99" y="-264.96" font-family="Times,serif" font-size="14.00">okhmeta:MakingTag</text>
</g>
<!-- https://w3id.org/oseg/ont/okhmeta#MakingTag&#45;&gt;https://w3id.org/oseg/ont/okhmeta#MetaTag -->
<g id="edge34" class="edge">
<title>https://w3id.org/oseg/ont/okhmeta#MakingTag&#45;&gt;https://w3id.org/oseg/ont/okhmeta#MetaTag</title>
<path fill="none" stroke="black" d="M190.2,-283.69C247.88,-302.86 347.53,-335.99 409.07,-356.44"/>
<polygon fill="black" stroke="black" points="408.01,-359.78 418.61,-359.61 410.22,-353.13 408.01,-359.78"/>
<text text-anchor="middle" x="222.63" y="-323.87" font-family="Times,serif" font-size="14.00">okhmeta:hasMetaTag</text>
</g>
<!-- https://w3id.org/oseg/ont/okhmeta#MakingTag&#45;&gt;https://w3id.org/oseg/ont/okhmeta#Tag -->
<g id="edge15" class="edge">
<title>https://w3id.org/oseg/ont/okhmeta#MakingTag&#45;&gt;https://w3id.org/oseg/ont/okhmeta#Tag</title>
<path fill="none" stroke="black" d="M203.95,-282.62C249.5,-293.41 312.35,-308.29 358.49,-319.21"/>
<polygon fill="black" stroke="black" points="357.83,-322.65 368.36,-321.55 359.44,-315.84 357.83,-322.65"/>
<text text-anchor="middle" x="276.72" y="-304.72" font-family="Times,serif" font-size="14.00">a</text>
</g>
<!-- https://w3id.org/oseg/ont/okhmeta#TransportationTag -->
<g id="node24" class="node">
<title>https://w3id.org/oseg/ont/okhmeta#TransportationTag</title>
<ellipse fill="none" stroke="#e377c2" cx="117.82" cy="-373.81" rx="118.17" ry="16.03"/>
<text text-anchor="middle" x="117.82" y="-370.11" font-family="Times,serif" font-size="14.00">okhmeta:Transport...</text>
</g>
<!-- https://w3id.org/oseg/ont/okhmeta#TransportationTag&#45;&gt;https://w3id.org/oseg/ont/okhmeta#MetaTag -->
<g id="edge23" class="edge">
<title>https://w3id.org/oseg/ont/okhmeta#TransportationTag&#45;&gt;https://w3id.org/oseg/ont/okhmeta#MetaTag</title>
<path fill="none" stroke="black" d="M236.09,-373.99C273.01,-374.04 313.61,-374.11 350.14,-374.16"/>
<polygon fill="black" stroke="black" points="350.32,-377.66 360.33,-374.18 350.33,-370.66 350.32,-377.66"/>
<text text-anchor="middle" x="254.62" y="-362.87" font-family="Times,serif" font-size="14.00">okhmeta:hasMetaTag</text>
</g>
<!-- https://w3id.org/oseg/ont/okhmeta#TransportationTag&#45;&gt;https://w3id.org/oseg/ont/okhmeta#Tag -->
<g id="edge17" class="edge">
<title>https://w3id.org/oseg/ont/okhmeta#TransportationTag&#45;&gt;https://w3id.org/oseg/ont/okhmeta#Tag</title>
<path fill="none" stroke="black" d="M203.15,-362.49C247.72,-356.57 301.77,-349.4 344.73,-343.7"/>
<polygon fill="black" stroke="black" points="345.39,-347.14 354.84,-342.35 344.47,-340.2 345.39,-347.14"/>
<text text-anchor="middle" x="269.44" y="-341.89" font-family="Times,serif" font-size="14.00">a</text>
</g>
<!-- https://w3id.org/oseg/ont/okhmeta#LegalTag -->
<g id="node25" class="node">
<title>https://w3id.org/oseg/ont/okhmeta#LegalTag</title>
<ellipse fill="none" stroke="#e377c2" cx="403.75" cy="-652.87" rx="103.89" ry="16.03"/>
<text text-anchor="middle" x="403.75" y="-649.17" font-family="Times,serif" font-size="14.00">okhmeta:LegalTag</text>
</g>
<!-- https://w3id.org/oseg/ont/okhmeta#LegalTag&#45;&gt;https://w3id.org/oseg/ont/okhmeta#MetaTag -->
<g id="edge27" class="edge">
<title>https://w3id.org/oseg/ont/okhmeta#LegalTag&#45;&gt;https://w3id.org/oseg/ont/okhmeta#MetaTag</title>
<path fill="none" stroke="black" d="M407.27,-636.28C417.15,-589.74 445.2,-457.64 457.26,-400.84"/>
<polygon fill="black" stroke="black" points="460.74,-401.34 459.39,-390.83 453.89,-399.89 460.74,-401.34"/>
<text text-anchor="middle" x="355.27" y="-522.36" font-family="Times,serif" font-size="14.00">okhmeta:hasMetaTag</text>
</g>
<!-- https://w3id.org/oseg/ont/okhmeta#LegalTag&#45;&gt;https://w3id.org/oseg/ont/okhmeta#Tag -->
<g id="edge18" class="edge">
<title>https://w3id.org/oseg/ont/okhmeta#LegalTag&#45;&gt;https://w3id.org/oseg/ont/okhmeta#Tag</title>
<path fill="none" stroke="black" d="M404.57,-636.61C407.17,-584.98 415.25,-424.42 418.48,-360.44"/>
<polygon fill="black" stroke="black" points="421.98,-360.51 418.99,-350.35 414.99,-360.16 421.98,-360.51"/>
<text text-anchor="middle" x="407.02" y="-502.32" font-family="Times,serif" font-size="14.00">a</text>
</g>
<!-- https://w3id.org/oseg/ont/okhmeta#HistoryTag -->
<g id="node26" class="node">
<title>https://w3id.org/oseg/ont/okhmeta#HistoryTag</title>
<ellipse fill="none" stroke="#e377c2" cx="735.76" cy="-434.93" rx="113.69" ry="16.03"/>
<text text-anchor="middle" x="735.76" y="-431.23" font-family="Times,serif" font-size="14.00">okhmeta:HistoryTag</text>
</g>
<!-- https://w3id.org/oseg/ont/okhmeta#HistoryTag&#45;&gt;https://w3id.org/oseg/ont/okhmeta#MetaTag -->
<g id="edge11" class="edge">
<title>https://w3id.org/oseg/ont/okhmeta#HistoryTag&#45;&gt;https://w3id.org/oseg/ont/okhmeta#MetaTag</title>
<path fill="none" stroke="black" d="M673.84,-421.18C631.83,-411.85 576.22,-399.5 532.64,-389.82"/>
<polygon fill="black" stroke="black" points="533.21,-386.36 522.69,-387.61 531.69,-393.19 533.21,-386.36"/>
<text text-anchor="middle" x="526.24" y="-409.3" font-family="Times,serif" font-size="14.00">okhmeta:hasMetaTag</text>
</g>
<!-- https://w3id.org/oseg/ont/okhmeta#HistoryTag&#45;&gt;https://w3id.org/oseg/ont/okhmeta#Tag -->
<g id="edge19" class="edge">
<title>https://w3id.org/oseg/ont/okhmeta#HistoryTag&#45;&gt;https://w3id.org/oseg/ont/okhmeta#Tag</title>
<path fill="none" stroke="black" d="M689.14,-420C631.26,-401.46 532.79,-369.91 472.31,-350.54"/>
<polygon fill="black" stroke="black" points="473.17,-347.14 462.58,-347.42 471.03,-353.81 473.17,-347.14"/>
<text text-anchor="middle" x="576.23" y="-389.07" font-family="Times,serif" font-size="14.00">a</text>
</g>
<!-- https://w3id.org/oseg/ont/okhmeta#DataGatheringTag -->
<g id="node28" class="node">
<title>https://w3id.org/oseg/ont/okhmeta#DataGatheringTag</title>
<ellipse fill="none" stroke="#e377c2" cx="245.41" cy="-97.87" rx="122.16" ry="16.03"/>
<text text-anchor="middle" x="245.41" y="-94.17" font-family="Times,serif" font-size="14.00">okhmeta:DataGathe...</text>
</g>
<!-- https://w3id.org/oseg/ont/okhmeta#DataGatheringTag&#45;&gt;https://w3id.org/oseg/ont/okhmeta#MetaTag -->
<g id="edge30" class="edge">
<title>https://w3id.org/oseg/ont/okhmeta#DataGatheringTag&#45;&gt;https://w3id.org/oseg/ont/okhmeta#MetaTag</title>
<path fill="none" stroke="black" d="M258.36,-114.34C295.08,-161.01 399.99,-294.38 443.56,-349.76"/>
<polygon fill="black" stroke="black" points="441.07,-352.26 450.01,-357.95 446.58,-347.93 441.07,-352.26"/>
<text text-anchor="middle" x="273.96" y="-235.85" font-family="Times,serif" font-size="14.00">okhmeta:hasMetaTag</text>
</g>
<!-- https://w3id.org/oseg/ont/okhmeta#DataGatheringTag&#45;&gt;https://w3id.org/oseg/ont/okhmeta#Tag -->
<g id="edge21" class="edge">
<title>https://w3id.org/oseg/ont/okhmeta#DataGatheringTag&#45;&gt;https://w3id.org/oseg/ont/okhmeta#Tag</title>
<path fill="none" stroke="black" d="M257.4,-114.09C287.39,-154.65 365.84,-260.73 401.59,-309.08"/>
<polygon fill="black" stroke="black" points="398.99,-311.45 407.75,-317.41 404.62,-307.28 398.99,-311.45"/>
<text text-anchor="middle" x="325" y="-215.38" font-family="Times,serif" font-size="14.00">a</text>
</g>
</g>
</svg>
