<?xml version="1.0" encoding="UTF-8" standalone="no"?>
<!DOCTYPE svg PUBLIC "-//W3C//DTD SVG 1.1//EN"
 "http://www.w3.org/Graphics/SVG/1.1/DTD/svg11.dtd">
<!-- Generated by graphviz version 2.43.0 (0)
 -->
<!-- Title: G Pages: 1 -->
<svg width="1356pt" height="1070pt"
 viewBox="0.00 0.00 1356.00 1070.00" xmlns="http://www.w3.org/2000/svg" xmlns:xlink="http://www.w3.org/1999/xlink">
<g id="graph0" class="graph" transform="scale(1 1) rotate(0) translate(4 1066)">
<title>G</title>
<polygon fill="white" stroke="transparent" points="-4,4 -4,-1066 1352,-1066 1352,4 -4,4"/>
<!-- http://www.w3.org/2004/02/skos/core#Collection -->
<g id="node1" class="node">
<title>http://www.w3.org/2004/02/skos/core#Collection</title>
<ellipse fill="none" stroke="#e377c2" cx="584.16" cy="-16.15" rx="87.86" ry="16.03"/>
<text text-anchor="middle" x="584.16" y="-12.45" font-family="Times,serif" font-size="14.00">skos:Collection</text>
</g>
<!-- http://w3id.org/oseg/ont/okhmeta#Tag -->
<g id="node2" class="node">
<title>http://w3id.org/oseg/ont/okhmeta#Tag</title>
<ellipse fill="none" stroke="#e377c2" cx="455.45" cy="-306.87" rx="76.24" ry="16.03"/>
<text text-anchor="middle" x="455.45" y="-303.17" font-family="Times,serif" font-size="14.00">okhmeta:Tag</text>
</g>
<!-- http://w3id.org/oseg/ont/okhmeta#Tag&#45;&gt;http://www.w3.org/2004/02/skos/core#Collection -->
<g id="edge40" class="edge">
<title>http://w3id.org/oseg/ont/okhmeta#Tag&#45;&gt;http://www.w3.org/2004/02/skos/core#Collection</title>
<path fill="none" stroke="black" d="M462.74,-290.4C484.16,-242.03 547,-100.09 572.85,-41.7"/>
<polygon fill="black" stroke="black" points="576.1,-42.99 576.95,-32.43 569.7,-40.16 576.1,-42.99"/>
</g>
<!-- http://www.w3.org/2004/02/skos/core#Concept -->
<g id="node4" class="node">
<title>http://www.w3.org/2004/02/skos/core#Concept</title>
<ellipse fill="none" stroke="#1f77b4" cx="207.5" cy="-147.55" rx="78.48" ry="16.03"/>
<text text-anchor="middle" x="207.5" y="-143.85" font-family="Times,serif" font-size="14.00">skos:Concept</text>
</g>
<!-- http://w3id.org/oseg/ont/okhmeta#Tag&#45;&gt;http://www.w3.org/2004/02/skos/core#Concept -->
<g id="edge28" class="edge">
<title>http://w3id.org/oseg/ont/okhmeta#Tag&#45;&gt;http://www.w3.org/2004/02/skos/core#Concept</title>
<path fill="none" stroke="black" d="M431.23,-291.3C386.51,-262.57 290.96,-201.18 240.42,-168.71"/>
<polygon fill="black" stroke="black" points="242.13,-165.64 231.82,-163.18 238.34,-171.53 242.13,-165.64"/>
<text text-anchor="middle" x="331.32" y="-233.8" font-family="Times,serif" font-size="14.00">a</text>
</g>
<!-- http://w3id.org/oseg/ont/okhmeta#MetaTag -->
<g id="node12" class="node">
<title>http://w3id.org/oseg/ont/okhmeta#MetaTag</title>
<ellipse fill="none" stroke="#e377c2" cx="466.16" cy="-354.88" rx="102.56" ry="16.03"/>
<text text-anchor="middle" x="466.16" y="-351.18" font-family="Times,serif" font-size="14.00">okhmeta:MetaTag</text>
</g>
<!-- http://w3id.org/oseg/ont/okhmeta#Tag&#45;&gt;http://w3id.org/oseg/ont/okhmeta#MetaTag -->
<g id="edge46" class="edge">
<title>http://w3id.org/oseg/ont/okhmeta#Tag&#45;&gt;http://w3id.org/oseg/ont/okhmeta#MetaTag</title>
<path fill="none" stroke="black" d="M452.63,-323.17C452.84,-324.87 453.1,-326.63 453.42,-328.41"/>
<polygon fill="black" stroke="black" points="450.11,-329.59 455.81,-338.52 456.92,-327.99 450.11,-329.59"/>
<text text-anchor="middle" x="376.03" y="-329.59" font-family="Times,serif" font-size="14.00">okhmeta:hasMetaTag</text>
</g>
<!-- http://spdx.org/rdf/terms#SpdxItem -->
<g id="node3" class="node">
<title>http://spdx.org/rdf/terms#SpdxItem</title>
<ellipse fill="none" stroke="#1f77b4" cx="807.97" cy="-896.18" rx="87.86" ry="16.03"/>
<text text-anchor="middle" x="807.97" y="-892.48" font-family="Times,serif" font-size="14.00">spdx:SpdxItem</text>
</g>
<!-- http://w3id.org/oseg/ont/okhmeta#DataTag -->
<g id="node5" class="node">
<title>http://w3id.org/oseg/ont/okhmeta#DataTag</title>
<ellipse fill="none" stroke="#e377c2" cx="198.77" cy="-425.83" rx="100.32" ry="16.03"/>
<text text-anchor="middle" x="198.77" y="-422.13" font-family="Times,serif" font-size="14.00">okhmeta:DataTag</text>
</g>
<!-- http://w3id.org/oseg/ont/okhmeta#DataTag&#45;&gt;http://w3id.org/oseg/ont/okhmeta#Tag -->
<g id="edge22" class="edge">
<title>http://w3id.org/oseg/ont/okhmeta#DataTag&#45;&gt;http://w3id.org/oseg/ont/okhmeta#Tag</title>
<path fill="none" stroke="black" d="M232.07,-410.4C278.71,-388.78 363.45,-349.51 414.08,-326.04"/>
<polygon fill="black" stroke="black" points="415.83,-329.09 423.43,-321.71 412.89,-322.74 415.83,-329.09"/>
<text text-anchor="middle" x="318.58" y="-372.02" font-family="Times,serif" font-size="14.00">a</text>
</g>
<!-- http://w3id.org/oseg/ont/okhmeta#DataTag&#45;&gt;http://w3id.org/oseg/ont/okhmeta#MetaTag -->
<g id="edge4" class="edge">
<title>http://w3id.org/oseg/ont/okhmeta#DataTag&#45;&gt;http://w3id.org/oseg/ont/okhmeta#MetaTag</title>
<path fill="none" stroke="black" d="M251.28,-411.9C294.92,-400.32 357.14,-383.81 403.4,-371.53"/>
<polygon fill="black" stroke="black" points="404.55,-374.85 413.32,-368.9 402.75,-368.09 404.55,-374.85"/>
<text text-anchor="middle" x="250.34" y="-395.52" font-family="Times,serif" font-size="14.00">okhmeta:hasMetaTag</text>
</g>
<!-- http://w3id.org/oseg/ont/okhmeta#PartsTag -->
<g id="node6" class="node">
<title>http://w3id.org/oseg/ont/okhmeta#PartsTag</title>
<ellipse fill="none" stroke="#e377c2" cx="701.25" cy="-496.98" rx="103.48" ry="16.03"/>
<text text-anchor="middle" x="701.25" y="-493.28" font-family="Times,serif" font-size="14.00">okhmeta:PartsTag</text>
</g>
<!-- http://w3id.org/oseg/ont/okhmeta#PartsTag&#45;&gt;http://w3id.org/oseg/ont/okhmeta#Tag -->
<g id="edge23" class="edge">
<title>http://w3id.org/oseg/ont/okhmeta#PartsTag&#45;&gt;http://w3id.org/oseg/ont/okhmeta#Tag</title>
<path fill="none" stroke="black" d="M680.29,-480.77C636.28,-446.73 534.2,-367.77 484.15,-329.06"/>
<polygon fill="black" stroke="black" points="486.06,-326.12 476.01,-322.77 481.78,-331.65 486.06,-326.12"/>
<text text-anchor="middle" x="577.72" y="-408.72" font-family="Times,serif" font-size="14.00">a</text>
</g>
<!-- http://w3id.org/oseg/ont/okhmeta#PartsTag&#45;&gt;http://w3id.org/oseg/ont/okhmeta#MetaTag -->
<g id="edge12" class="edge">
<title>http://w3id.org/oseg/ont/okhmeta#PartsTag&#45;&gt;http://w3id.org/oseg/ont/okhmeta#MetaTag</title>
<path fill="none" stroke="black" d="M675.19,-481.23C632.74,-455.57 548.62,-404.72 501.06,-375.97"/>
<polygon fill="black" stroke="black" points="502.7,-372.88 492.34,-370.7 499.08,-378.87 502.7,-372.88"/>
<text text-anchor="middle" x="511.12" y="-432.4" font-family="Times,serif" font-size="14.00">okhmeta:hasMetaTag</text>
</g>
<!-- http://w3id.org/oseg/ont/oseg&#45;profiles#robinVobruba -->
<g id="node7" class="node">
<title>http://w3id.org/oseg/ont/oseg&#45;profiles#robinVobruba</title>
<ellipse fill="none" stroke="#e377c2" cx="1064.75" cy="-814.65" rx="113.69" ry="16.03"/>
<text text-anchor="middle" x="1064.75" y="-810.95" font-family="Times,serif" font-size="14.00">osegprof:robinVob...</text>
</g>
<!-- http://w3id.org/oseg/ont/okhmeta#AcademicTag -->
<g id="node8" class="node">
<title>http://w3id.org/oseg/ont/okhmeta#AcademicTag</title>
<ellipse fill="none" stroke="#e377c2" cx="245.39" cy="-586.15" rx="124.4" ry="16.03"/>
<text text-anchor="middle" x="245.39" y="-582.45" font-family="Times,serif" font-size="14.00">okhmeta:AcademicTag</text>
</g>
<!-- http://w3id.org/oseg/ont/okhmeta#AcademicTag&#45;&gt;http://w3id.org/oseg/ont/okhmeta#Tag -->
<g id="edge24" class="edge">
<title>http://w3id.org/oseg/ont/okhmeta#AcademicTag&#45;&gt;http://w3id.org/oseg/ont/okhmeta#Tag</title>
<path fill="none" stroke="black" d="M257.59,-569.92C292.84,-523.07 394.93,-387.33 437,-331.4"/>
<polygon fill="black" stroke="black" points="440,-333.23 443.22,-323.13 434.41,-329.02 440,-333.23"/>
<text text-anchor="middle" x="342.8" y="-454.46" font-family="Times,serif" font-size="14.00">a</text>
</g>
<!-- http://w3id.org/oseg/ont/okhmeta#AcademicTag&#45;&gt;http://w3id.org/oseg/ont/okhmeta#MetaTag -->
<g id="edge1" class="edge">
<title>http://w3id.org/oseg/ont/okhmeta#AcademicTag&#45;&gt;http://w3id.org/oseg/ont/okhmeta#MetaTag</title>
<path fill="none" stroke="black" d="M260.92,-569.88C299.31,-529.66 398.87,-425.38 443.7,-378.42"/>
<polygon fill="black" stroke="black" points="446.28,-380.78 450.66,-371.13 441.22,-375.94 446.28,-380.78"/>
<text text-anchor="middle" x="275.31" y="-477.95" font-family="Times,serif" font-size="14.00">okhmeta:hasMetaTag</text>
</g>
<!-- http://w3id.org/oseg/ont/okhmeta#MakingTag -->
<g id="node9" class="node">
<title>http://w3id.org/oseg/ont/okhmeta#MakingTag</title>
<ellipse fill="none" stroke="#e377c2" cx="774.04" cy="-305.58" rx="113.69" ry="16.03"/>
<text text-anchor="middle" x="774.04" y="-301.88" font-family="Times,serif" font-size="14.00">okhmeta:MakingTag</text>
</g>
<!-- http://w3id.org/oseg/ont/okhmeta#MakingTag&#45;&gt;http://w3id.org/oseg/ont/okhmeta#Tag -->
<g id="edge26" class="edge">
<title>http://w3id.org/oseg/ont/okhmeta#MakingTag&#45;&gt;http://w3id.org/oseg/ont/okhmeta#Tag</title>
<path fill="none" stroke="black" d="M659.93,-306.04C621.08,-306.2 578.33,-306.37 542.01,-306.52"/>
<polygon fill="black" stroke="black" points="541.93,-303.02 531.94,-306.56 541.96,-310.02 541.93,-303.02"/>
<text text-anchor="middle" x="596.47" y="-310.08" font-family="Times,serif" font-size="14.00">a</text>
</g>
<!-- http://w3id.org/oseg/ont/okhmeta#MakingTag&#45;&gt;http://w3id.org/oseg/ont/okhmeta#MetaTag -->
<g id="edge2" class="edge">
<title>http://w3id.org/oseg/ont/okhmeta#MakingTag&#45;&gt;http://w3id.org/oseg/ont/okhmeta#MetaTag</title>
<path fill="none" stroke="black" d="M697.94,-317.77C652.56,-325.04 594.95,-334.26 548.51,-341.7"/>
<polygon fill="black" stroke="black" points="547.8,-338.27 538.48,-343.3 548.91,-345.18 547.8,-338.27"/>
<text text-anchor="middle" x="700.23" y="-333.53" font-family="Times,serif" font-size="14.00">okhmeta:hasMetaTag</text>
</g>
<!-- http://w3id.org/oseg/ont/okhmeta -->
<g id="node10" class="node">
<title>http://w3id.org/oseg/ont/okhmeta</title>
<ellipse fill="none" stroke="#e377c2" cx="1039.27" cy="-863.31" rx="76.24" ry="16.03"/>
<text text-anchor="middle" x="1039.27" y="-859.61" font-family="Times,serif" font-size="14.00">ns1:okhmeta</text>
</g>
<!-- http://w3id.org/oseg/ont/okhmeta&#45;&gt;http://spdx.org/rdf/terms#SpdxItem -->
<g id="edge39" class="edge">
<title>http://w3id.org/oseg/ont/okhmeta&#45;&gt;http://spdx.org/rdf/terms#SpdxItem</title>
<path fill="none" stroke="black" d="M975.45,-872.38C948.3,-876.24 916.34,-880.78 887.66,-884.86"/>
<polygon fill="black" stroke="black" points="887.07,-881.41 877.66,-886.28 888.05,-888.34 887.07,-881.41"/>
<text text-anchor="middle" x="927.05" y="-882.42" font-family="Times,serif" font-size="14.00">a</text>
</g>
<!-- http://w3id.org/oseg/ont/okhmeta&#45;&gt;http://w3id.org/oseg/ont/oseg&#45;profiles#robinVobruba -->
<g id="edge25" class="edge">
<title>http://w3id.org/oseg/ont/okhmeta&#45;&gt;http://w3id.org/oseg/ont/oseg&#45;profiles#robinVobruba</title>
<path fill="none" stroke="black" d="M1055.2,-847.15C1056.48,-844.96 1057.72,-842.68 1058.88,-840.38"/>
<polygon fill="black" stroke="black" points="1062.17,-841.59 1063.08,-831.03 1055.79,-838.72 1062.17,-841.59"/>
<text text-anchor="middle" x="999.54" y="-832.56" font-family="Times,serif" font-size="14.00">dcterms:creator</text>
</g>
<!-- http://w3id.org/oseg/ont/okhmeta&#45;&gt;http://w3id.org/oseg/ont/oseg&#45;profiles#robinVobruba -->
<g id="edge33" class="edge">
<title>http://w3id.org/oseg/ont/okhmeta&#45;&gt;http://w3id.org/oseg/ont/oseg&#45;profiles#robinVobruba</title>
<path fill="none" stroke="black" d="M1040.94,-846.92C1041.82,-844.68 1042.84,-842.34 1043.96,-839.99"/>
<polygon fill="black" stroke="black" points="1047.1,-841.53 1048.67,-831.06 1040.91,-838.27 1047.1,-841.53"/>
<text text-anchor="middle" x="1097.95" y="-832.26" font-family="Times,serif" font-size="14.00">schema:creator</text>
</g>
<!-- http://id.loc.gov/vocabulary/iso639&#45;1/en -->
<g id="node13" class="node">
<title>http://id.loc.gov/vocabulary/iso639&#45;1/en</title>
<ellipse fill="none" stroke="#e377c2" cx="993.5" cy="-1045.64" rx="45.01" ry="16.03"/>
<text text-anchor="middle" x="993.5" y="-1041.94" font-family="Times,serif" font-size="14.00">ns2:en</text>
</g>
<!-- http://w3id.org/oseg/ont/okhmeta&#45;&gt;http://id.loc.gov/vocabulary/iso639&#45;1/en -->
<g id="edge32" class="edge">
<title>http://w3id.org/oseg/ont/okhmeta&#45;&gt;http://id.loc.gov/vocabulary/iso639&#45;1/en</title>
<path fill="none" stroke="black" d="M1035.12,-879.82C1027.16,-911.55 1009.65,-981.29 1000.08,-1019.44"/>
<polygon fill="black" stroke="black" points="996.64,-1018.76 997.6,-1029.31 1003.43,-1020.46 996.64,-1018.76"/>
<text text-anchor="middle" x="953.1" y="-953.43" font-family="Times,serif" font-size="14.00">dcterms:language</text>
</g>
<!-- http://w3id.org/oseg/ont/oseg&#45;profiles#Iopa -->
<g id="node19" class="node">
<title>http://w3id.org/oseg/ont/oseg&#45;profiles#Iopa</title>
<ellipse fill="none" stroke="#e377c2" cx="1267.82" cy="-836.87" rx="80.72" ry="16.03"/>
<text text-anchor="middle" x="1267.82" y="-833.17" font-family="Times,serif" font-size="14.00">osegprof:Iopa</text>
</g>
<!-- http://w3id.org/oseg/ont/okhmeta&#45;&gt;http://w3id.org/oseg/ont/oseg&#45;profiles#Iopa -->
<g id="edge38" class="edge">
<title>http://w3id.org/oseg/ont/okhmeta&#45;&gt;http://w3id.org/oseg/ont/oseg&#45;profiles#Iopa</title>
<path fill="none" stroke="black" d="M1106.6,-855.52C1132.06,-852.58 1161.27,-849.2 1187.78,-846.13"/>
<polygon fill="black" stroke="black" points="1188.26,-849.6 1197.79,-844.97 1187.45,-842.65 1188.26,-849.6"/>
<text text-anchor="middle" x="1212.69" y="-854.63" font-family="Times,serif" font-size="14.00">dcterms:publisher</text>
</g>
<!-- http://spdx.org/licenses/GPL&#45;3.0&#45;or&#45;later -->
<g id="node23" class="node">
<title>http://spdx.org/licenses/GPL&#45;3.0&#45;or&#45;later</title>
<ellipse fill="none" stroke="#e377c2" cx="1088.22" cy="-903.87" rx="108.79" ry="16.03"/>
<text text-anchor="middle" x="1088.22" y="-900.17" font-family="Times,serif" font-size="14.00">spdxl:GPL&#45;3.0&#45;or&#45;...</text>
</g>
<!-- http://w3id.org/oseg/ont/okhmeta&#45;&gt;http://spdx.org/licenses/GPL&#45;3.0&#45;or&#45;later -->
<g id="edge16" class="edge">
<title>http://w3id.org/oseg/ont/okhmeta&#45;&gt;http://spdx.org/licenses/GPL&#45;3.0&#45;or&#45;later</title>
<path fill="none" stroke="black" d="M1058.33,-879.11C1059.19,-879.82 1060.06,-880.54 1060.93,-881.26"/>
<polygon fill="black" stroke="black" points="1058.87,-884.1 1068.8,-887.78 1063.33,-878.71 1058.87,-884.1"/>
<text text-anchor="middle" x="1135.63" y="-868.99" font-family="Times,serif" font-size="14.00">spdx:licenseDeclared</text>
</g>
<!-- http://w3id.org/oseg/ont/1.1.0/okh&#45;meta -->
<g id="node24" class="node">
<title>http://w3id.org/oseg/ont/1.1.0/okh&#45;meta</title>
<ellipse fill="none" stroke="#e377c2" cx="925.38" cy="-664.5" rx="79.81" ry="16.03"/>
<text text-anchor="middle" x="925.38" y="-660.8" font-family="Times,serif" font-size="14.00">ns3:okh&#45;meta</text>
</g>
<!-- http://w3id.org/oseg/ont/okhmeta&#45;&gt;http://w3id.org/oseg/ont/1.1.0/okh&#45;meta -->
<g id="edge42" class="edge">
<title>http://w3id.org/oseg/ont/okhmeta&#45;&gt;http://w3id.org/oseg/ont/1.1.0/okh&#45;meta</title>
<path fill="none" stroke="black" d="M1029.95,-847.04C1010.09,-812.37 963.48,-731 939.77,-689.61"/>
<polygon fill="black" stroke="black" points="942.68,-687.65 934.67,-680.71 936.61,-691.13 942.68,-687.65"/>
<text text-anchor="middle" x="933.36" y="-772.13" font-family="Times,serif" font-size="14.00">owl:versionIRI</text>
</g>
<!-- http://w3id.org/oseg/ont/okhmeta#ExtendedInfoTag -->
<g id="node11" class="node">
<title>http://w3id.org/oseg/ont/okhmeta#ExtendedInfoTag</title>
<ellipse fill="none" stroke="#e377c2" cx="656.29" cy="-586.92" rx="120.42" ry="16.03"/>
<text text-anchor="middle" x="656.29" y="-583.22" font-family="Times,serif" font-size="14.00">okhmeta:ExtendedI...</text>
</g>
<!-- http://w3id.org/oseg/ont/okhmeta#ExtendedInfoTag&#45;&gt;http://w3id.org/oseg/ont/okhmeta#Tag -->
<g id="edge27" class="edge">
<title>http://w3id.org/oseg/ont/okhmeta#ExtendedInfoTag&#45;&gt;http://w3id.org/oseg/ont/okhmeta#Tag</title>
<path fill="none" stroke="black" d="M644.63,-570.65C610.93,-523.67 513.32,-387.56 473.1,-331.47"/>
<polygon fill="black" stroke="black" points="475.82,-329.27 467.15,-323.18 470.14,-333.35 475.82,-329.27"/>
<text text-anchor="middle" x="554.36" y="-454.86" font-family="Times,serif" font-size="14.00">a</text>
</g>
<!-- http://w3id.org/oseg/ont/okhmeta#ExtendedInfoTag&#45;&gt;http://w3id.org/oseg/ont/okhmeta#MetaTag -->
<g id="edge3" class="edge">
<title>http://w3id.org/oseg/ont/okhmeta#ExtendedInfoTag&#45;&gt;http://w3id.org/oseg/ont/okhmeta#MetaTag</title>
<path fill="none" stroke="black" d="M642.92,-570.6C609.99,-530.41 524.83,-426.48 485.99,-379.08"/>
<polygon fill="black" stroke="black" points="488.56,-376.7 479.52,-371.18 483.15,-381.13 488.56,-376.7"/>
<text text-anchor="middle" x="487.46" y="-478.64" font-family="Times,serif" font-size="14.00">okhmeta:hasMetaTag</text>
</g>
<!-- http://w3id.org/oseg/ont/okhmeta#MetaTag&#45;&gt;http://w3id.org/oseg/ont/okhmeta#Tag -->
<g id="edge29" class="edge">
<title>http://w3id.org/oseg/ont/okhmeta#MetaTag&#45;&gt;http://w3id.org/oseg/ont/okhmeta#Tag</title>
<path fill="none" stroke="black" d="M468.98,-338.58C468.78,-336.88 468.51,-335.12 468.19,-333.34"/>
<polygon fill="black" stroke="black" points="471.51,-332.16 465.81,-323.23 464.7,-333.76 471.51,-332.16"/>
<text text-anchor="middle" x="464.09" y="-324.76" font-family="Times,serif" font-size="14.00">a</text>
</g>
<!-- http://w3id.org/oseg/ont/okhmeta#MetaTag&#45;&gt;http://w3id.org/oseg/ont/okhmeta#MetaTag -->
<g id="edge6" class="edge">
<title>http://w3id.org/oseg/ont/okhmeta#MetaTag&#45;&gt;http://w3id.org/oseg/ont/okhmeta#MetaTag</title>
<path fill="none" stroke="black" d="M561.15,-361.1C576.31,-360.19 586.69,-358.12 586.69,-354.88 586.69,-352.43 580.73,-350.65 571.25,-349.53"/>
<polygon fill="black" stroke="black" points="571.42,-346.03 561.15,-348.67 570.82,-353.01 571.42,-346.03"/>
<text text-anchor="middle" x="663.69" y="-351.18" font-family="Times,serif" font-size="14.00">okhmeta:hasMetaTag</text>
</g>
<!-- http://w3id.org/oseg/ont/okhmeta#DataGatheringTag -->
<g id="node14" class="node">
<title>http://w3id.org/oseg/ont/okhmeta#DataGatheringTag</title>
<ellipse fill="none" stroke="#e377c2" cx="703.41" cy="-100.1" rx="122.16" ry="16.03"/>
<text text-anchor="middle" x="703.41" y="-96.4" font-family="Times,serif" font-size="14.00">okhmeta:DataGathe...</text>
</g>
<!-- http://w3id.org/oseg/ont/okhmeta#DataGatheringTag&#45;&gt;http://w3id.org/oseg/ont/okhmeta#Tag -->
<g id="edge5" class="edge">
<title>http://w3id.org/oseg/ont/okhmeta#DataGatheringTag&#45;&gt;http://w3id.org/oseg/ont/okhmeta#Tag</title>
<path fill="none" stroke="black" d="M683.96,-116.32C639.94,-153.03 532.65,-242.5 482.33,-284.45"/>
<polygon fill="black" stroke="black" points="479.92,-281.91 474.48,-291 484.4,-287.29 479.92,-281.91"/>
<text text-anchor="middle" x="578.64" y="-204.19" font-family="Times,serif" font-size="14.00">a</text>
</g>
<!-- http://w3id.org/oseg/ont/okhmeta#DataGatheringTag&#45;&gt;http://w3id.org/oseg/ont/okhmeta#MetaTag -->
<g id="edge10" class="edge">
<title>http://w3id.org/oseg/ont/okhmeta#DataGatheringTag&#45;&gt;http://w3id.org/oseg/ont/okhmeta#MetaTag</title>
<path fill="none" stroke="black" d="M688.21,-116.42C647.54,-160.11 536.06,-279.81 488.33,-331.08"/>
<polygon fill="black" stroke="black" points="485.49,-328.99 481.24,-338.69 490.61,-333.76 485.49,-328.99"/>
<text text-anchor="middle" x="511.27" y="-227.55" font-family="Times,serif" font-size="14.00">okhmeta:hasMetaTag</text>
</g>
<!-- http://w3id.org/oseg/ont/okhmeta#hasMetaTag -->
<g id="node15" class="node">
<title>http://w3id.org/oseg/ont/okhmeta#hasMetaTag</title>
<ellipse fill="none" stroke="#e377c2" cx="452.81" cy="-137.39" rx="120.42" ry="16.03"/>
<text text-anchor="middle" x="452.81" y="-133.69" font-family="Times,serif" font-size="14.00">okhmeta:hasMetaTag</text>
</g>
<!-- http://w3id.org/oseg/ont/okhmeta#hasMetaTag&#45;&gt;http://www.w3.org/2004/02/skos/core#Concept -->
<g id="edge8" class="edge">
<title>http://w3id.org/oseg/ont/okhmeta#hasMetaTag&#45;&gt;http://www.w3.org/2004/02/skos/core#Concept</title>
<path fill="none" stroke="black" d="M337.7,-142.16C323.27,-142.76 308.71,-143.36 294.8,-143.94"/>
<polygon fill="black" stroke="black" points="294.66,-140.44 284.81,-144.35 294.95,-147.43 294.66,-140.44"/>
<text text-anchor="middle" x="311.75" y="-146.85" font-family="Times,serif" font-size="14.00">a</text>
</g>
<!-- http://w3id.org/oseg/ont/okhmeta#hasMetaTag&#45;&gt;http://w3id.org/oseg/ont/okhmeta#MetaTag -->
<g id="edge13" class="edge">
<title>http://w3id.org/oseg/ont/okhmeta#hasMetaTag&#45;&gt;http://w3id.org/oseg/ont/okhmeta#MetaTag</title>
<path fill="none" stroke="black" d="M450.05,-153.97C448.68,-191.51 454.03,-283.26 459.94,-328.61"/>
<polygon fill="black" stroke="black" points="456.48,-329.17 461.36,-338.58 463.41,-328.18 456.48,-329.17"/>
<text text-anchor="middle" x="527.49" y="-245.09" font-family="Times,serif" font-size="14.00">dcam:rangeIncludes</text>
</g>
<!-- http://w3id.org/oseg/ont/okhmeta#hasMetaTag&#45;&gt;http://w3id.org/oseg/ont/okhmeta#MetaTag -->
<g id="edge31" class="edge">
<title>http://w3id.org/oseg/ont/okhmeta#hasMetaTag&#45;&gt;http://w3id.org/oseg/ont/okhmeta#MetaTag</title>
<path fill="none" stroke="black" d="M457.64,-153.86C463.58,-191.22 469.45,-282.67 469.13,-328.21"/>
<polygon fill="black" stroke="black" points="465.62,-328.41 468.92,-338.48 472.62,-328.56 465.62,-328.41"/>
<text text-anchor="middle" x="386.38" y="-244.84" font-family="Times,serif" font-size="14.00">okhmeta:hasMetaTag</text>
</g>
<!-- http://www.w3.org/2004/02/skos/core#member -->
<g id="node22" class="node">
<title>http://www.w3.org/2004/02/skos/core#member</title>
<ellipse fill="none" stroke="#e377c2" cx="467.32" cy="-96.15" rx="79.39" ry="16.03"/>
<text text-anchor="middle" x="467.32" y="-92.45" font-family="Times,serif" font-size="14.00">skos:member</text>
</g>
<!-- http://w3id.org/oseg/ont/okhmeta#hasMetaTag&#45;&gt;http://www.w3.org/2004/02/skos/core#member -->
<g id="edge41" class="edge">
<title>http://w3id.org/oseg/ont/okhmeta#hasMetaTag&#45;&gt;http://www.w3.org/2004/02/skos/core#member</title>
<path fill="none" stroke="black" d="M458.55,-121.09C458.58,-121.01 458.61,-120.92 458.64,-120.83"/>
<polygon fill="black" stroke="black" points="461.52,-123.2 461.54,-112.6 454.91,-120.88 461.52,-123.2"/>
<text text-anchor="middle" x="405.59" y="-109.76" font-family="Times,serif" font-size="14.00">subPropertyOf</text>
</g>
<!-- http://w3id.org/oseg/ont/okhmeta#LegalTag -->
<g id="node16" class="node">
<title>http://w3id.org/oseg/ont/okhmeta#LegalTag</title>
<ellipse fill="none" stroke="#e377c2" cx="383.74" cy="-20.07" rx="103.89" ry="16.03"/>
<text text-anchor="middle" x="383.74" y="-16.37" font-family="Times,serif" font-size="14.00">okhmeta:LegalTag</text>
</g>
<!-- http://w3id.org/oseg/ont/okhmeta#LegalTag&#45;&gt;http://w3id.org/oseg/ont/okhmeta#Tag -->
<g id="edge9" class="edge">
<title>http://w3id.org/oseg/ont/okhmeta#LegalTag&#45;&gt;http://w3id.org/oseg/ont/okhmeta#Tag</title>
<path fill="none" stroke="black" d="M387.9,-36.73C399.87,-84.56 434.38,-222.6 448.9,-280.65"/>
<polygon fill="black" stroke="black" points="445.54,-281.67 451.37,-290.52 452.34,-279.97 445.54,-281.67"/>
<text text-anchor="middle" x="413.9" y="-162.49" font-family="Times,serif" font-size="14.00">a</text>
</g>
<!-- http://w3id.org/oseg/ont/okhmeta#LegalTag&#45;&gt;http://w3id.org/oseg/ont/okhmeta#MetaTag -->
<g id="edge34" class="edge">
<title>http://w3id.org/oseg/ont/okhmeta#LegalTag&#45;&gt;http://w3id.org/oseg/ont/okhmeta#MetaTag</title>
<path fill="none" stroke="black" d="M387.83,-36.68C401.15,-90.8 443.4,-262.42 459.68,-328.55"/>
<polygon fill="black" stroke="black" points="456.36,-329.7 462.15,-338.57 463.16,-328.03 456.36,-329.7"/>
<text text-anchor="middle" x="500.75" y="-186.41" font-family="Times,serif" font-size="14.00">okhmeta:hasMetaTag</text>
</g>
<!-- http://w3id.org/oseg/ont/okhmeta#DocumentationTag -->
<g id="node17" class="node">
<title>http://w3id.org/oseg/ont/okhmeta#DocumentationTag</title>
<ellipse fill="none" stroke="#e377c2" cx="764.8" cy="-195.4" rx="125.32" ry="16.03"/>
<text text-anchor="middle" x="764.8" y="-191.7" font-family="Times,serif" font-size="14.00">okhmeta:Documenta...</text>
</g>
<!-- http://w3id.org/oseg/ont/okhmeta#DocumentationTag&#45;&gt;http://w3id.org/oseg/ont/okhmeta#Tag -->
<g id="edge35" class="edge">
<title>http://w3id.org/oseg/ont/okhmeta#DocumentationTag&#45;&gt;http://w3id.org/oseg/ont/okhmeta#Tag</title>
<path fill="none" stroke="black" d="M722.11,-210.78C665.12,-231.32 564.4,-267.61 504.4,-289.23"/>
<polygon fill="black" stroke="black" points="502.99,-286.02 494.77,-292.7 505.37,-292.6 502.99,-286.02"/>
<text text-anchor="middle" x="608.75" y="-253.81" font-family="Times,serif" font-size="14.00">a</text>
</g>
<!-- http://w3id.org/oseg/ont/okhmeta#DocumentationTag&#45;&gt;http://w3id.org/oseg/ont/okhmeta#MetaTag -->
<g id="edge30" class="edge">
<title>http://w3id.org/oseg/ont/okhmeta#DocumentationTag&#45;&gt;http://w3id.org/oseg/ont/okhmeta#MetaTag</title>
<path fill="none" stroke="black" d="M735.07,-211.27C680.62,-240.35 564.95,-302.12 504.61,-334.35"/>
<polygon fill="black" stroke="black" points="502.94,-331.27 495.77,-339.07 506.24,-337.45 502.94,-331.27"/>
<text text-anchor="middle" x="542.84" y="-276.61" font-family="Times,serif" font-size="14.00">okhmeta:hasMetaTag</text>
</g>
<!-- http://w3id.org/oseg/ont/okhmeta#IdentificationTag -->
<g id="node18" class="node">
<title>http://w3id.org/oseg/ont/okhmeta#IdentificationTag</title>
<ellipse fill="none" stroke="#e377c2" cx="760.26" cy="-411.4" rx="109.7" ry="16.03"/>
<text text-anchor="middle" x="760.26" y="-407.7" font-family="Times,serif" font-size="14.00">okhmeta:Identific...</text>
</g>
<!-- http://w3id.org/oseg/ont/okhmeta#IdentificationTag&#45;&gt;http://w3id.org/oseg/ont/okhmeta#Tag -->
<g id="edge11" class="edge">
<title>http://w3id.org/oseg/ont/okhmeta#IdentificationTag&#45;&gt;http://w3id.org/oseg/ont/okhmeta#Tag</title>
<path fill="none" stroke="black" d="M716.59,-396.42C660.88,-377.32 564.73,-344.34 505.94,-324.18"/>
<polygon fill="black" stroke="black" points="506.72,-320.75 496.12,-320.81 504.45,-327.37 506.72,-320.75"/>
<text text-anchor="middle" x="606.76" y="-364.1" font-family="Times,serif" font-size="14.00">a</text>
</g>
<!-- http://w3id.org/oseg/ont/okhmeta#IdentificationTag&#45;&gt;http://w3id.org/oseg/ont/okhmeta#MetaTag -->
<g id="edge17" class="edge">
<title>http://w3id.org/oseg/ont/okhmeta#IdentificationTag&#45;&gt;http://w3id.org/oseg/ont/okhmeta#MetaTag</title>
<path fill="none" stroke="black" d="M693.16,-398.5C647.99,-389.82 588.35,-378.36 541.55,-369.37"/>
<polygon fill="black" stroke="black" points="541.94,-365.88 531.46,-367.43 540.62,-372.75 541.94,-365.88"/>
<text text-anchor="middle" x="540.35" y="-387.74" font-family="Times,serif" font-size="14.00">okhmeta:hasMetaTag</text>
</g>
<!-- http://w3id.org/oseg/ont/okhmeta#DevelopmentTag -->
<g id="node20" class="node">
<title>http://w3id.org/oseg/ont/okhmeta#DevelopmentTag</title>
<ellipse fill="none" stroke="#e377c2" cx="124.4" cy="-353.28" rx="124.4" ry="16.03"/>
<text text-anchor="middle" x="124.4" y="-349.58" font-family="Times,serif" font-size="14.00">okhmeta:Developme...</text>
</g>
<!-- http://w3id.org/oseg/ont/okhmeta#DevelopmentTag&#45;&gt;http://w3id.org/oseg/ont/okhmeta#Tag -->
<g id="edge14" class="edge">
<title>http://w3id.org/oseg/ont/okhmeta#DevelopmentTag&#45;&gt;http://w3id.org/oseg/ont/okhmeta#Tag</title>
<path fill="none" stroke="black" d="M209.65,-341.33C262.91,-333.86 330.79,-324.35 381.71,-317.21"/>
<polygon fill="black" stroke="black" points="382.25,-320.67 391.66,-315.81 381.28,-313.73 382.25,-320.67"/>
<text text-anchor="middle" x="291.18" y="-333.07" font-family="Times,serif" font-size="14.00">a</text>
</g>
<!-- http://w3id.org/oseg/ont/okhmeta#DevelopmentTag&#45;&gt;http://w3id.org/oseg/ont/okhmeta#MetaTag -->
<g id="edge7" class="edge">
<title>http://w3id.org/oseg/ont/okhmeta#DevelopmentTag&#45;&gt;http://w3id.org/oseg/ont/okhmeta#MetaTag</title>
<path fill="none" stroke="black" d="M249.23,-353.87C283.28,-354.03 319.95,-354.2 353.29,-354.35"/>
<polygon fill="black" stroke="black" points="353.51,-357.85 363.52,-354.4 353.54,-350.85 353.51,-357.85"/>
<text text-anchor="middle" x="301.26" y="-342.91" font-family="Times,serif" font-size="14.00">okhmeta:hasMetaTag</text>
</g>
<!-- http://w3id.org/oseg/ont/okhmeta#HistoryTag -->
<g id="node21" class="node">
<title>http://w3id.org/oseg/ont/okhmeta#HistoryTag</title>
<ellipse fill="none" stroke="#e377c2" cx="353.79" cy="-628.18" rx="113.69" ry="16.03"/>
<text text-anchor="middle" x="353.79" y="-624.48" font-family="Times,serif" font-size="14.00">okhmeta:HistoryTag</text>
</g>
<!-- http://w3id.org/oseg/ont/okhmeta#HistoryTag&#45;&gt;http://w3id.org/oseg/ont/okhmeta#Tag -->
<g id="edge15" class="edge">
<title>http://w3id.org/oseg/ont/okhmeta#HistoryTag&#45;&gt;http://w3id.org/oseg/ont/okhmeta#Tag</title>
<path fill="none" stroke="black" d="M358.97,-611.8C375.49,-559.59 427.01,-396.75 447.21,-332.92"/>
<polygon fill="black" stroke="black" points="450.6,-333.8 450.28,-323.21 443.93,-331.69 450.6,-333.8"/>
<text text-anchor="middle" x="398.59" y="-476.16" font-family="Times,serif" font-size="14.00">a</text>
</g>
<!-- http://w3id.org/oseg/ont/okhmeta#HistoryTag&#45;&gt;http://w3id.org/oseg/ont/okhmeta#MetaTag -->
<g id="edge43" class="edge">
<title>http://w3id.org/oseg/ont/okhmeta#HistoryTag&#45;&gt;http://w3id.org/oseg/ont/okhmeta#MetaTag</title>
<path fill="none" stroke="black" d="M360.48,-611.9C379.25,-566.25 432.52,-436.7 455.45,-380.94"/>
<polygon fill="black" stroke="black" points="458.8,-382 459.36,-371.42 452.32,-379.34 458.8,-382"/>
<text text-anchor="middle" x="484.97" y="-500.22" font-family="Times,serif" font-size="14.00">okhmeta:hasMetaTag</text>
</g>
<!-- http://w3id.org/oseg/ont/okhmeta#PhysicalTag -->
<g id="node25" class="node">
<title>http://w3id.org/oseg/ont/okhmeta#PhysicalTag</title>
<ellipse fill="none" stroke="#e377c2" cx="594.03" cy="-631.6" rx="118.17" ry="16.03"/>
<text text-anchor="middle" x="594.03" y="-627.9" font-family="Times,serif" font-size="14.00">okhmeta:PhysicalTag</text>
</g>
<!-- http://w3id.org/oseg/ont/okhmeta#PhysicalTag&#45;&gt;http://w3id.org/oseg/ont/okhmeta#Tag -->
<g id="edge18" class="edge">
<title>http://w3id.org/oseg/ont/okhmeta#PhysicalTag&#45;&gt;http://w3id.org/oseg/ont/okhmeta#Tag</title>
<path fill="none" stroke="black" d="M586.96,-615.05C564.4,-562.17 493.93,-397.03 466.52,-332.79"/>
<polygon fill="black" stroke="black" points="469.65,-331.21 462.5,-323.38 463.21,-333.96 469.65,-331.21"/>
<text text-anchor="middle" x="522.24" y="-462.72" font-family="Times,serif" font-size="14.00">a</text>
</g>
<!-- http://w3id.org/oseg/ont/okhmeta#PhysicalTag&#45;&gt;http://w3id.org/oseg/ont/okhmeta#MetaTag -->
<g id="edge36" class="edge">
<title>http://w3id.org/oseg/ont/okhmeta#PhysicalTag&#45;&gt;http://w3id.org/oseg/ont/okhmeta#MetaTag</title>
<path fill="none" stroke="black" d="M586.41,-615.12C564.96,-568.69 503.9,-436.56 478.01,-380.51"/>
<polygon fill="black" stroke="black" points="481.11,-378.89 473.74,-371.28 474.76,-381.82 481.11,-378.89"/>
<text text-anchor="middle" x="455.21" y="-486.61" font-family="Times,serif" font-size="14.00">okhmeta:hasMetaTag</text>
</g>
<!-- http://w3id.org/oseg/ont/okhmeta#BasicTag -->
<g id="node26" class="node">
<title>http://w3id.org/oseg/ont/okhmeta#BasicTag</title>
<ellipse fill="none" stroke="#e377c2" cx="271" cy="-84.16" rx="103.48" ry="16.03"/>
<text text-anchor="middle" x="271" y="-80.46" font-family="Times,serif" font-size="14.00">okhmeta:BasicTag</text>
</g>
<!-- http://w3id.org/oseg/ont/okhmeta#BasicTag&#45;&gt;http://w3id.org/oseg/ont/okhmeta#Tag -->
<g id="edge19" class="edge">
<title>http://w3id.org/oseg/ont/okhmeta#BasicTag&#45;&gt;http://w3id.org/oseg/ont/okhmeta#Tag</title>
<path fill="none" stroke="black" d="M284.56,-100.53C316.75,-139.4 397.88,-237.36 435.6,-282.9"/>
<polygon fill="black" stroke="black" points="433.05,-285.3 442.12,-290.77 438.44,-280.83 433.05,-285.3"/>
<text text-anchor="middle" x="355.58" y="-195.52" font-family="Times,serif" font-size="14.00">a</text>
</g>
<!-- http://w3id.org/oseg/ont/okhmeta#BasicTag&#45;&gt;http://w3id.org/oseg/ont/okhmeta#MetaTag -->
<g id="edge45" class="edge">
<title>http://w3id.org/oseg/ont/okhmeta#BasicTag&#45;&gt;http://w3id.org/oseg/ont/okhmeta#MetaTag</title>
<path fill="none" stroke="black" d="M282.91,-100.69C316,-146.58 409.12,-275.76 448.37,-330.2"/>
<polygon fill="black" stroke="black" points="445.72,-332.51 454.4,-338.57 451.39,-328.41 445.72,-332.51"/>
<text text-anchor="middle" x="442.64" y="-204.24" font-family="Times,serif" font-size="14.00">okhmeta:hasMetaTag</text>
</g>
<!-- http://w3id.org/oseg/ont/okhmeta#TransportationTag -->
<g id="node27" class="node">
<title>http://w3id.org/oseg/ont/okhmeta#TransportationTag</title>
<ellipse fill="none" stroke="#e377c2" cx="200.99" cy="-521.17" rx="118.17" ry="16.03"/>
<text text-anchor="middle" x="200.99" y="-517.47" font-family="Times,serif" font-size="14.00">okhmeta:Transport...</text>
</g>
<!-- http://w3id.org/oseg/ont/okhmeta#TransportationTag&#45;&gt;http://w3id.org/oseg/ont/okhmeta#Tag -->
<g id="edge20" class="edge">
<title>http://w3id.org/oseg/ont/okhmeta#TransportationTag&#45;&gt;http://w3id.org/oseg/ont/okhmeta#Tag</title>
<path fill="none" stroke="black" d="M220.11,-505.06C264.99,-467.27 377.12,-372.84 428.71,-329.39"/>
<polygon fill="black" stroke="black" points="431.06,-331.99 436.45,-322.87 426.55,-326.63 431.06,-331.99"/>
<text text-anchor="middle" x="319.91" y="-421.03" font-family="Times,serif" font-size="14.00">a</text>
</g>
<!-- http://w3id.org/oseg/ont/okhmeta#TransportationTag&#45;&gt;http://w3id.org/oseg/ont/okhmeta#MetaTag -->
<g id="edge37" class="edge">
<title>http://w3id.org/oseg/ont/okhmeta#TransportationTag&#45;&gt;http://w3id.org/oseg/ont/okhmeta#MetaTag</title>
<path fill="none" stroke="black" d="M226.41,-505.23C274.43,-475.12 378.44,-409.89 432.3,-376.12"/>
<polygon fill="black" stroke="black" points="434.2,-379.06 440.81,-370.78 430.48,-373.13 434.2,-379.06"/>
<text text-anchor="middle" x="406.36" y="-444.47" font-family="Times,serif" font-size="14.00">okhmeta:hasMetaTag</text>
</g>
<!-- http://w3id.org/oseg/ont/okhmeta#QualityTag -->
<g id="node28" class="node">
<title>http://w3id.org/oseg/ont/okhmeta#QualityTag</title>
<ellipse fill="none" stroke="#e377c2" cx="157.56" cy="-247.19" rx="113.27" ry="16.03"/>
<text text-anchor="middle" x="157.56" y="-243.49" font-family="Times,serif" font-size="14.00">okhmeta:QualityTag</text>
</g>
<!-- http://w3id.org/oseg/ont/okhmeta#QualityTag&#45;&gt;http://w3id.org/oseg/ont/okhmeta#Tag -->
<g id="edge44" class="edge">
<title>http://w3id.org/oseg/ont/okhmeta#QualityTag&#45;&gt;http://w3id.org/oseg/ont/okhmeta#Tag</title>
<path fill="none" stroke="black" d="M223.67,-260.44C273.07,-270.33 340.27,-283.79 389.6,-293.68"/>
<polygon fill="black" stroke="black" points="389.04,-297.13 399.53,-295.67 390.41,-290.27 389.04,-297.13"/>
<text text-anchor="middle" x="302.14" y="-280.86" font-family="Times,serif" font-size="14.00">a</text>
</g>
<!-- http://w3id.org/oseg/ont/okhmeta#QualityTag&#45;&gt;http://w3id.org/oseg/ont/okhmeta#MetaTag -->
<g id="edge21" class="edge">
<title>http://w3id.org/oseg/ont/okhmeta#QualityTag&#45;&gt;http://w3id.org/oseg/ont/okhmeta#MetaTag</title>
<path fill="none" stroke="black" d="M200.8,-262.28C256.74,-281.8 354.11,-315.78 414.06,-336.7"/>
<polygon fill="black" stroke="black" points="413.12,-340.08 423.72,-340.07 415.43,-333.47 413.12,-340.08"/>
<text text-anchor="middle" x="230.43" y="-303.29" font-family="Times,serif" font-size="14.00">okhmeta:hasMetaTag</text>
</g>
</g>
</svg>
