<?xml version="1.0" encoding="UTF-8" standalone="no"?>
<!DOCTYPE svg PUBLIC "-//W3C//DTD SVG 1.1//EN"
 "http://www.w3.org/Graphics/SVG/1.1/DTD/svg11.dtd">
<!-- Generated by graphviz version 2.43.0 (0)
 -->
<!-- Title: G Pages: 1 -->
<svg width="1500pt" height="846pt"
 viewBox="0.00 0.00 1500.00 846.00" xmlns="http://www.w3.org/2000/svg" xmlns:xlink="http://www.w3.org/1999/xlink">
<g id="graph0" class="graph" transform="scale(1 1) rotate(0) translate(4 842)">
<title>G</title>
<polygon fill="white" stroke="transparent" points="-4,4 -4,-842 1496,-842 1496,4 -4,4"/>
<!-- http://w3id.org/oseg/ont/okhmeta#Tag -->
<g id="node1" class="node">
<title>http://w3id.org/oseg/ont/okhmeta#Tag</title>
<ellipse fill="none" stroke="#e377c2" cx="443.88" cy="-328.39" rx="76.24" ry="16.03"/>
<text text-anchor="middle" x="443.88" y="-324.69" font-family="Times,serif" font-size="14.00">okhmeta:Tag</text>
</g>
<!-- http://www.w3.org/2004/02/skos/core#Concept -->
<g id="node2" class="node">
<title>http://www.w3.org/2004/02/skos/core#Concept</title>
<ellipse fill="none" stroke="#1f77b4" cx="707.23" cy="-435.8" rx="78.48" ry="16.03"/>
<text text-anchor="middle" x="707.23" y="-432.1" font-family="Times,serif" font-size="14.00">skos:Concept</text>
</g>
<!-- http://w3id.org/oseg/ont/okhmeta#Tag&#45;&gt;http://www.w3.org/2004/02/skos/core#Concept -->
<g id="edge5" class="edge">
<title>http://w3id.org/oseg/ont/okhmeta#Tag&#45;&gt;http://www.w3.org/2004/02/skos/core#Concept</title>
<path fill="none" stroke="black" d="M479.39,-342.88C526.71,-362.17 610.45,-396.33 662.17,-417.42"/>
<polygon fill="black" stroke="black" points="660.85,-420.66 671.43,-421.2 663.5,-414.18 660.85,-420.66"/>
<text text-anchor="middle" x="566.28" y="-383.95" font-family="Times,serif" font-size="14.00">a</text>
</g>
<!-- http://www.w3.org/2004/02/skos/core#Collection -->
<g id="node4" class="node">
<title>http://www.w3.org/2004/02/skos/core#Collection</title>
<ellipse fill="none" stroke="#e377c2" cx="544.68" cy="-16.17" rx="87.86" ry="16.03"/>
<text text-anchor="middle" x="544.68" y="-12.47" font-family="Times,serif" font-size="14.00">skos:Collection</text>
</g>
<!-- http://w3id.org/oseg/ont/okhmeta#Tag&#45;&gt;http://www.w3.org/2004/02/skos/core#Collection -->
<g id="edge38" class="edge">
<title>http://w3id.org/oseg/ont/okhmeta#Tag&#45;&gt;http://www.w3.org/2004/02/skos/core#Collection</title>
<path fill="none" stroke="black" d="M449.16,-312.04C465.58,-261.16 515.92,-105.26 536.14,-42.63"/>
<polygon fill="black" stroke="black" points="539.59,-43.33 539.33,-32.74 532.93,-41.18 539.59,-43.33"/>
</g>
<!-- http://w3id.org/oseg/ont/okhmeta#MetaTag -->
<g id="node5" class="node">
<title>http://w3id.org/oseg/ont/okhmeta#MetaTag</title>
<ellipse fill="none" stroke="#e377c2" cx="434.8" cy="-369.2" rx="102.56" ry="16.03"/>
<text text-anchor="middle" x="434.8" y="-365.5" font-family="Times,serif" font-size="14.00">okhmeta:MetaTag</text>
</g>
<!-- http://w3id.org/oseg/ont/okhmeta#Tag&#45;&gt;http://w3id.org/oseg/ont/okhmeta#MetaTag -->
<g id="edge30" class="edge">
<title>http://w3id.org/oseg/ont/okhmeta#Tag&#45;&gt;http://w3id.org/oseg/ont/okhmeta#MetaTag</title>
<path fill="none" stroke="black" d="M433.32,-344.95C433.28,-345.12 433.24,-345.28 433.2,-345.44"/>
<polygon fill="black" stroke="black" points="430.22,-342.43 431.74,-352.91 437.09,-343.77 430.22,-342.43"/>
<text text-anchor="middle" x="356.26" y="-349" font-family="Times,serif" font-size="14.00">okhmeta:hasMetaTag</text>
</g>
<!-- http://spdx.org/rdf/terms#SpdxItem -->
<g id="node3" class="node">
<title>http://spdx.org/rdf/terms#SpdxItem</title>
<ellipse fill="none" stroke="#1f77b4" cx="880.07" cy="-694.79" rx="87.86" ry="16.03"/>
<text text-anchor="middle" x="880.07" y="-691.09" font-family="Times,serif" font-size="14.00">spdx:SpdxItem</text>
</g>
<!-- http://w3id.org/oseg/ont/okhmeta#MetaTag&#45;&gt;http://w3id.org/oseg/ont/okhmeta#Tag -->
<g id="edge43" class="edge">
<title>http://w3id.org/oseg/ont/okhmeta#MetaTag&#45;&gt;http://w3id.org/oseg/ont/okhmeta#Tag</title>
<path fill="none" stroke="black" d="M445.36,-352.64C445.4,-352.47 445.44,-352.31 445.48,-352.14"/>
<polygon fill="black" stroke="black" points="448.46,-355.16 446.94,-344.67 441.59,-353.82 448.46,-355.16"/>
<text text-anchor="middle" x="440.92" y="-341.19" font-family="Times,serif" font-size="14.00">a</text>
</g>
<!-- http://w3id.org/oseg/ont/okhmeta#MetaTag&#45;&gt;http://w3id.org/oseg/ont/okhmeta#MetaTag -->
<g id="edge8" class="edge">
<title>http://w3id.org/oseg/ont/okhmeta#MetaTag&#45;&gt;http://w3id.org/oseg/ont/okhmeta#MetaTag</title>
<path fill="none" stroke="black" d="M529.8,-375.41C544.96,-374.5 555.33,-372.43 555.33,-369.2 555.33,-366.75 549.37,-364.96 539.89,-363.85"/>
<polygon fill="black" stroke="black" points="540.06,-360.35 529.8,-362.98 539.46,-367.32 540.06,-360.35"/>
<text text-anchor="middle" x="632.33" y="-365.5" font-family="Times,serif" font-size="14.00">okhmeta:hasMetaTag</text>
</g>
<!-- http://w3id.org/oseg/ont/oseg&#45;profiles#Iopa -->
<g id="node6" class="node">
<title>http://w3id.org/oseg/ont/oseg&#45;profiles#Iopa</title>
<ellipse fill="none" stroke="#e377c2" cx="1154.16" cy="-627.64" rx="80.72" ry="16.03"/>
<text text-anchor="middle" x="1154.16" y="-623.94" font-family="Times,serif" font-size="14.00">osegprof:Iopa</text>
</g>
<!-- http://w3id.org/oseg/ont/okhmeta -->
<g id="node7" class="node">
<title>http://w3id.org/oseg/ont/okhmeta</title>
<ellipse fill="none" stroke="#e377c2" cx="1111.86" cy="-668.36" rx="76.24" ry="16.03"/>
<text text-anchor="middle" x="1111.86" y="-664.66" font-family="Times,serif" font-size="14.00">ns1:okhmeta</text>
</g>
<!-- http://w3id.org/oseg/ont/okhmeta&#45;&gt;http://spdx.org/rdf/terms#SpdxItem -->
<g id="edge22" class="edge">
<title>http://w3id.org/oseg/ont/okhmeta&#45;&gt;http://spdx.org/rdf/terms#SpdxItem</title>
<path fill="none" stroke="black" d="M1044.5,-676.04C1019.72,-678.87 991.33,-682.1 965.19,-685.08"/>
<polygon fill="black" stroke="black" points="964.45,-681.65 954.91,-686.26 965.25,-688.6 964.45,-681.65"/>
<text text-anchor="middle" x="1000.35" y="-684.36" font-family="Times,serif" font-size="14.00">a</text>
</g>
<!-- http://w3id.org/oseg/ont/okhmeta&#45;&gt;http://w3id.org/oseg/ont/oseg&#45;profiles#Iopa -->
<g id="edge20" class="edge">
<title>http://w3id.org/oseg/ont/okhmeta&#45;&gt;http://w3id.org/oseg/ont/oseg&#45;profiles#Iopa</title>
<path fill="none" stroke="black" d="M1128.58,-652.27C1129.13,-651.74 1129.69,-651.2 1130.25,-650.66"/>
<polygon fill="black" stroke="black" points="1132.79,-653.08 1137.56,-643.62 1127.93,-648.03 1132.79,-653.08"/>
<text text-anchor="middle" x="1063.91" y="-640.26" font-family="Times,serif" font-size="14.00">dcterms:publisher</text>
</g>
<!-- http://id.loc.gov/vocabulary/iso639&#45;1/en -->
<g id="node15" class="node">
<title>http://id.loc.gov/vocabulary/iso639&#45;1/en</title>
<ellipse fill="none" stroke="#e377c2" cx="1000.68" cy="-822.18" rx="45.01" ry="16.03"/>
<text text-anchor="middle" x="1000.68" y="-818.48" font-family="Times,serif" font-size="14.00">ns2:en</text>
</g>
<!-- http://w3id.org/oseg/ont/okhmeta&#45;&gt;http://id.loc.gov/vocabulary/iso639&#45;1/en -->
<g id="edge29" class="edge">
<title>http://w3id.org/oseg/ont/okhmeta&#45;&gt;http://id.loc.gov/vocabulary/iso639&#45;1/en</title>
<path fill="none" stroke="black" d="M1100.17,-684.53C1080.6,-711.61 1041.11,-766.25 1018.2,-797.94"/>
<polygon fill="black" stroke="black" points="1015.23,-796.08 1012.21,-806.23 1020.91,-800.18 1015.23,-796.08"/>
<text text-anchor="middle" x="994.69" y="-745.04" font-family="Times,serif" font-size="14.00">dcterms:language</text>
</g>
<!-- http://w3id.org/oseg/ont/oseg&#45;profiles#robinVobruba -->
<g id="node16" class="node">
<title>http://w3id.org/oseg/ont/oseg&#45;profiles#robinVobruba</title>
<ellipse fill="none" stroke="#e377c2" cx="1377.77" cy="-661.45" rx="113.69" ry="16.03"/>
<text text-anchor="middle" x="1377.77" y="-657.75" font-family="Times,serif" font-size="14.00">osegprof:robinVob...</text>
</g>
<!-- http://w3id.org/oseg/ont/okhmeta&#45;&gt;http://w3id.org/oseg/ont/oseg&#45;profiles#robinVobruba -->
<g id="edge14" class="edge">
<title>http://w3id.org/oseg/ont/okhmeta&#45;&gt;http://w3id.org/oseg/ont/oseg&#45;profiles#robinVobruba</title>
<path fill="none" stroke="black" d="M1185.73,-672.56C1212.56,-672.48 1243.42,-671.84 1272.43,-670.81"/>
<polygon fill="black" stroke="black" points="1272.75,-674.3 1282.61,-670.43 1272.49,-667.3 1272.75,-674.3"/>
<text text-anchor="middle" x="1286.58" y="-675.48" font-family="Times,serif" font-size="14.00">dcterms:creator</text>
</g>
<!-- http://w3id.org/oseg/ont/okhmeta&#45;&gt;http://w3id.org/oseg/ont/oseg&#45;profiles#robinVobruba -->
<g id="edge32" class="edge">
<title>http://w3id.org/oseg/ont/okhmeta&#45;&gt;http://w3id.org/oseg/ont/oseg&#45;profiles#robinVobruba</title>
<path fill="none" stroke="black" d="M1179.15,-660.65C1202.73,-659.42 1230,-658.45 1256.63,-657.87"/>
<polygon fill="black" stroke="black" points="1256.87,-661.37 1266.8,-657.66 1256.73,-654.37 1256.87,-661.37"/>
<text text-anchor="middle" x="1217.89" y="-648.06" font-family="Times,serif" font-size="14.00">schema:creator</text>
</g>
<!-- http://spdx.org/licenses/GPL&#45;3.0&#45;or&#45;later -->
<g id="node19" class="node">
<title>http://spdx.org/licenses/GPL&#45;3.0&#45;or&#45;later</title>
<ellipse fill="none" stroke="#e377c2" cx="1171.75" cy="-716.78" rx="108.79" ry="16.03"/>
<text text-anchor="middle" x="1171.75" y="-713.08" font-family="Times,serif" font-size="14.00">spdxl:GPL&#45;3.0&#45;or&#45;...</text>
</g>
<!-- http://w3id.org/oseg/ont/okhmeta&#45;&gt;http://spdx.org/licenses/GPL&#45;3.0&#45;or&#45;later -->
<g id="edge9" class="edge">
<title>http://w3id.org/oseg/ont/okhmeta&#45;&gt;http://spdx.org/licenses/GPL&#45;3.0&#45;or&#45;later</title>
<path fill="none" stroke="black" d="M1131.47,-684.22C1135.46,-687.44 1139.73,-690.89 1143.95,-694.3"/>
<polygon fill="black" stroke="black" points="1141.91,-697.16 1151.89,-700.72 1146.32,-691.72 1141.91,-697.16"/>
<text text-anchor="middle" x="1213.71" y="-693.06" font-family="Times,serif" font-size="14.00">spdx:licenseDeclared</text>
</g>
<!-- http://w3id.org/oseg/ont/1.1.0/okh&#45;meta -->
<g id="node23" class="node">
<title>http://w3id.org/oseg/ont/1.1.0/okh&#45;meta</title>
<ellipse fill="none" stroke="#e377c2" cx="949.71" cy="-520.6" rx="79.81" ry="16.03"/>
<text text-anchor="middle" x="949.71" y="-516.9" font-family="Times,serif" font-size="14.00">ns3:okh&#45;meta</text>
</g>
<!-- http://w3id.org/oseg/ont/okhmeta&#45;&gt;http://w3id.org/oseg/ont/1.1.0/okh&#45;meta -->
<g id="edge40" class="edge">
<title>http://w3id.org/oseg/ont/okhmeta&#45;&gt;http://w3id.org/oseg/ont/1.1.0/okh&#45;meta</title>
<path fill="none" stroke="black" d="M1094.2,-652.27C1065.32,-625.95 1007.91,-573.64 974.81,-543.47"/>
<polygon fill="black" stroke="black" points="977.1,-540.82 967.35,-536.67 972.38,-545.99 977.1,-540.82"/>
<text text-anchor="middle" x="983.01" y="-601.67" font-family="Times,serif" font-size="14.00">owl:versionIRI</text>
</g>
<!-- http://w3id.org/oseg/ont/okhmeta#AcademicTag -->
<g id="node8" class="node">
<title>http://w3id.org/oseg/ont/okhmeta#AcademicTag</title>
<ellipse fill="none" stroke="#e377c2" cx="613.32" cy="-69.89" rx="124.4" ry="16.03"/>
<text text-anchor="middle" x="613.32" y="-66.19" font-family="Times,serif" font-size="14.00">okhmeta:AcademicTag</text>
</g>
<!-- http://w3id.org/oseg/ont/okhmeta#AcademicTag&#45;&gt;http://w3id.org/oseg/ont/okhmeta#Tag -->
<g id="edge23" class="edge">
<title>http://w3id.org/oseg/ont/okhmeta#AcademicTag&#45;&gt;http://w3id.org/oseg/ont/okhmeta#Tag</title>
<path fill="none" stroke="black" d="M602.46,-86.46C573.53,-130.59 494.46,-251.23 460.13,-303.59"/>
<polygon fill="black" stroke="black" points="457.2,-301.68 454.64,-311.96 463.05,-305.52 457.2,-301.68"/>
<text text-anchor="middle" x="526.8" y="-198.82" font-family="Times,serif" font-size="14.00">a</text>
</g>
<!-- http://w3id.org/oseg/ont/okhmeta#AcademicTag&#45;&gt;http://w3id.org/oseg/ont/okhmeta#MetaTag -->
<g id="edge21" class="edge">
<title>http://w3id.org/oseg/ont/okhmeta#AcademicTag&#45;&gt;http://w3id.org/oseg/ont/okhmeta#MetaTag</title>
<path fill="none" stroke="black" d="M603.47,-86.41C573.84,-136.08 485.42,-284.33 449.86,-343.95"/>
<polygon fill="black" stroke="black" points="446.74,-342.35 444.63,-352.73 452.75,-345.93 446.74,-342.35"/>
<text text-anchor="middle" x="449.66" y="-218.98" font-family="Times,serif" font-size="14.00">okhmeta:hasMetaTag</text>
</g>
<!-- http://www.w3.org/2004/02/skos/core#member -->
<g id="node9" class="node">
<title>http://www.w3.org/2004/02/skos/core#member</title>
<ellipse fill="none" stroke="#e377c2" cx="477.97" cy="-470.39" rx="79.39" ry="16.03"/>
<text text-anchor="middle" x="477.97" y="-466.69" font-family="Times,serif" font-size="14.00">skos:member</text>
</g>
<!-- http://w3id.org/oseg/ont/okhmeta#MakingTag -->
<g id="node10" class="node">
<title>http://w3id.org/oseg/ont/okhmeta#MakingTag</title>
<ellipse fill="none" stroke="#e377c2" cx="271.24" cy="-90.38" rx="113.69" ry="16.03"/>
<text text-anchor="middle" x="271.24" y="-86.68" font-family="Times,serif" font-size="14.00">okhmeta:MakingTag</text>
</g>
<!-- http://w3id.org/oseg/ont/okhmeta#MakingTag&#45;&gt;http://w3id.org/oseg/ont/okhmeta#Tag -->
<g id="edge26" class="edge">
<title>http://w3id.org/oseg/ont/okhmeta#MakingTag&#45;&gt;http://w3id.org/oseg/ont/okhmeta#Tag</title>
<path fill="none" stroke="black" d="M283.1,-106.74C312.87,-147.77 390.82,-255.24 426.09,-303.87"/>
<polygon fill="black" stroke="black" points="423.45,-306.19 432.16,-312.23 429.12,-302.08 423.45,-306.19"/>
<text text-anchor="middle" x="350.1" y="-209.1" font-family="Times,serif" font-size="14.00">a</text>
</g>
<!-- http://w3id.org/oseg/ont/okhmeta#MakingTag&#45;&gt;http://w3id.org/oseg/ont/okhmeta#MetaTag -->
<g id="edge3" class="edge">
<title>http://w3id.org/oseg/ont/okhmeta#MakingTag&#45;&gt;http://w3id.org/oseg/ont/okhmeta#MetaTag</title>
<path fill="none" stroke="black" d="M280.98,-106.99C308.48,-153.87 386.85,-287.45 419.86,-343.72"/>
<polygon fill="black" stroke="black" points="417.03,-345.82 425.11,-352.68 423.07,-342.28 417.03,-345.82"/>
<text text-anchor="middle" x="273.42" y="-214.15" font-family="Times,serif" font-size="14.00">okhmeta:hasMetaTag</text>
</g>
<!-- http://w3id.org/oseg/ont/okhmeta#QualityTag -->
<g id="node11" class="node">
<title>http://w3id.org/oseg/ont/okhmeta#QualityTag</title>
<ellipse fill="none" stroke="#e377c2" cx="682.95" cy="-150.06" rx="113.27" ry="16.03"/>
<text text-anchor="middle" x="682.95" y="-146.36" font-family="Times,serif" font-size="14.00">okhmeta:QualityTag</text>
</g>
<!-- http://w3id.org/oseg/ont/okhmeta#QualityTag&#45;&gt;http://w3id.org/oseg/ont/okhmeta#Tag -->
<g id="edge2" class="edge">
<title>http://w3id.org/oseg/ont/okhmeta#QualityTag&#45;&gt;http://w3id.org/oseg/ont/okhmeta#Tag</title>
<path fill="none" stroke="black" d="M661.32,-166.2C618.27,-198.31 521.86,-270.23 473.18,-306.53"/>
<polygon fill="black" stroke="black" points="470.88,-303.89 464.95,-312.67 475.06,-309.5 470.88,-303.89"/>
<text text-anchor="middle" x="562.75" y="-240.17" font-family="Times,serif" font-size="14.00">a</text>
</g>
<!-- http://w3id.org/oseg/ont/okhmeta#QualityTag&#45;&gt;http://w3id.org/oseg/ont/okhmeta#MetaTag -->
<g id="edge13" class="edge">
<title>http://w3id.org/oseg/ont/okhmeta#QualityTag&#45;&gt;http://w3id.org/oseg/ont/okhmeta#MetaTag</title>
<path fill="none" stroke="black" d="M664.71,-166.18C621.15,-204.64 510.98,-301.93 460.63,-346.39"/>
<polygon fill="black" stroke="black" points="458.26,-343.82 453.08,-353.06 462.89,-349.06 458.26,-343.82"/>
<text text-anchor="middle" x="485.67" y="-260.08" font-family="Times,serif" font-size="14.00">okhmeta:hasMetaTag</text>
</g>
<!-- http://w3id.org/oseg/ont/okhmeta#DocumentationTag -->
<g id="node12" class="node">
<title>http://w3id.org/oseg/ont/okhmeta#DocumentationTag</title>
<ellipse fill="none" stroke="#e377c2" cx="126.4" cy="-234.3" rx="125.32" ry="16.03"/>
<text text-anchor="middle" x="126.4" y="-230.6" font-family="Times,serif" font-size="14.00">okhmeta:Documenta...</text>
</g>
<!-- http://w3id.org/oseg/ont/okhmeta#DocumentationTag&#45;&gt;http://w3id.org/oseg/ont/okhmeta#Tag -->
<g id="edge27" class="edge">
<title>http://w3id.org/oseg/ont/okhmeta#DocumentationTag&#45;&gt;http://w3id.org/oseg/ont/okhmeta#Tag</title>
<path fill="none" stroke="black" d="M176.71,-249.21C234.76,-266.42 329.87,-294.6 389.56,-312.29"/>
<polygon fill="black" stroke="black" points="388.61,-315.66 399.19,-315.15 390.6,-308.95 388.61,-315.66"/>
<text text-anchor="middle" x="278.64" y="-284.55" font-family="Times,serif" font-size="14.00">a</text>
</g>
<!-- http://w3id.org/oseg/ont/okhmeta#DocumentationTag&#45;&gt;http://w3id.org/oseg/ont/okhmeta#MetaTag -->
<g id="edge25" class="edge">
<title>http://w3id.org/oseg/ont/okhmeta#DocumentationTag&#45;&gt;http://w3id.org/oseg/ont/okhmeta#MetaTag</title>
<path fill="none" stroke="black" d="M162.08,-249.91C218.52,-274.6 328.3,-322.61 389.98,-349.59"/>
<polygon fill="black" stroke="black" points="388.88,-352.93 399.45,-353.73 391.69,-346.52 388.88,-352.93"/>
<text text-anchor="middle" x="199.03" y="-303.55" font-family="Times,serif" font-size="14.00">okhmeta:hasMetaTag</text>
</g>
<!-- http://w3id.org/oseg/ont/okhmeta#LegalTag -->
<g id="node13" class="node">
<title>http://w3id.org/oseg/ont/okhmeta#LegalTag</title>
<ellipse fill="none" stroke="#e377c2" cx="156.34" cy="-442.64" rx="103.89" ry="16.03"/>
<text text-anchor="middle" x="156.34" y="-438.94" font-family="Times,serif" font-size="14.00">okhmeta:LegalTag</text>
</g>
<!-- http://w3id.org/oseg/ont/okhmeta#LegalTag&#45;&gt;http://w3id.org/oseg/ont/okhmeta#Tag -->
<g id="edge28" class="edge">
<title>http://w3id.org/oseg/ont/okhmeta#LegalTag&#45;&gt;http://w3id.org/oseg/ont/okhmeta#Tag</title>
<path fill="none" stroke="black" d="M194.52,-427.47C247.09,-406.58 341.62,-369.02 397.98,-346.63"/>
<polygon fill="black" stroke="black" points="399.36,-349.85 407.36,-342.9 396.77,-343.34 399.36,-349.85"/>
<text text-anchor="middle" x="291.75" y="-390.85" font-family="Times,serif" font-size="14.00">a</text>
</g>
<!-- http://w3id.org/oseg/ont/okhmeta#LegalTag&#45;&gt;http://w3id.org/oseg/ont/okhmeta#MetaTag -->
<g id="edge37" class="edge">
<title>http://w3id.org/oseg/ont/okhmeta#LegalTag&#45;&gt;http://w3id.org/oseg/ont/okhmeta#MetaTag</title>
<path fill="none" stroke="black" d="M209.37,-428.66C255.58,-416.47 322.67,-398.77 371.64,-385.86"/>
<polygon fill="black" stroke="black" points="372.72,-389.19 381.5,-383.26 370.93,-382.42 372.72,-389.19"/>
<text text-anchor="middle" x="213.51" y="-411.06" font-family="Times,serif" font-size="14.00">okhmeta:hasMetaTag</text>
</g>
<!-- http://w3id.org/oseg/ont/okhmeta#HistoryTag -->
<g id="node14" class="node">
<title>http://w3id.org/oseg/ont/okhmeta#HistoryTag</title>
<ellipse fill="none" stroke="#e377c2" cx="193.11" cy="-152.53" rx="113.69" ry="16.03"/>
<text text-anchor="middle" x="193.11" y="-148.83" font-family="Times,serif" font-size="14.00">okhmeta:HistoryTag</text>
</g>
<!-- http://w3id.org/oseg/ont/okhmeta#HistoryTag&#45;&gt;http://w3id.org/oseg/ont/okhmeta#Tag -->
<g id="edge4" class="edge">
<title>http://w3id.org/oseg/ont/okhmeta#HistoryTag&#45;&gt;http://w3id.org/oseg/ont/okhmeta#Tag</title>
<path fill="none" stroke="black" d="M216.25,-168.76C261.64,-200.59 362.34,-271.21 413.21,-306.88"/>
<polygon fill="black" stroke="black" points="411.32,-309.83 421.51,-312.71 415.34,-304.1 411.32,-309.83"/>
<text text-anchor="middle" x="310.23" y="-241.62" font-family="Times,serif" font-size="14.00">a</text>
</g>
<!-- http://w3id.org/oseg/ont/okhmeta#HistoryTag&#45;&gt;http://w3id.org/oseg/ont/okhmeta#MetaTag -->
<g id="edge12" class="edge">
<title>http://w3id.org/oseg/ont/okhmeta#HistoryTag&#45;&gt;http://w3id.org/oseg/ont/okhmeta#MetaTag</title>
<path fill="none" stroke="black" d="M211.28,-168.82C253.81,-206.95 359.96,-302.11 409.1,-346.16"/>
<polygon fill="black" stroke="black" points="406.97,-348.95 416.76,-353.02 411.65,-343.74 406.97,-348.95"/>
<text text-anchor="middle" x="233.19" y="-261.29" font-family="Times,serif" font-size="14.00">okhmeta:hasMetaTag</text>
</g>
<!-- http://w3id.org/oseg/ont/okhmeta#hasMetaTag -->
<g id="node17" class="node">
<title>http://w3id.org/oseg/ont/okhmeta#hasMetaTag</title>
<ellipse fill="none" stroke="#e377c2" cx="458.38" cy="-424.29" rx="120.42" ry="16.03"/>
<text text-anchor="middle" x="458.38" y="-420.59" font-family="Times,serif" font-size="14.00">okhmeta:hasMetaTag</text>
</g>
<!-- http://w3id.org/oseg/ont/okhmeta#hasMetaTag&#45;&gt;http://www.w3.org/2004/02/skos/core#Concept -->
<g id="edge7" class="edge">
<title>http://w3id.org/oseg/ont/okhmeta#hasMetaTag&#45;&gt;http://www.w3.org/2004/02/skos/core#Concept</title>
<path fill="none" stroke="black" d="M572.24,-429.56C588.41,-430.3 604.82,-431.06 620.36,-431.78"/>
<polygon fill="black" stroke="black" points="620.29,-435.28 630.44,-432.25 620.61,-428.29 620.29,-435.28"/>
<text text-anchor="middle" x="591.8" y="-434.47" font-family="Times,serif" font-size="14.00">a</text>
</g>
<!-- http://w3id.org/oseg/ont/okhmeta#hasMetaTag&#45;&gt;http://w3id.org/oseg/ont/okhmeta#MetaTag -->
<g id="edge34" class="edge">
<title>http://w3id.org/oseg/ont/okhmeta#hasMetaTag&#45;&gt;http://w3id.org/oseg/ont/okhmeta#MetaTag</title>
<path fill="none" stroke="black" d="M457.81,-407.75C456.59,-403.65 454.94,-399.17 453.08,-394.76"/>
<polygon fill="black" stroke="black" points="456.11,-392.97 448.72,-385.38 449.76,-395.92 456.11,-392.97"/>
<text text-anchor="middle" x="382.95" y="-390.05" font-family="Times,serif" font-size="14.00">dcam:rangeIncludes</text>
</g>
<!-- http://w3id.org/oseg/ont/okhmeta#hasMetaTag&#45;&gt;http://w3id.org/oseg/ont/okhmeta#MetaTag -->
<g id="edge35" class="edge">
<title>http://w3id.org/oseg/ont/okhmeta#hasMetaTag&#45;&gt;http://w3id.org/oseg/ont/okhmeta#MetaTag</title>
<path fill="none" stroke="black" d="M444.34,-407.87C442.33,-403.92 440.4,-399.61 438.72,-395.35"/>
<polygon fill="black" stroke="black" points="441.95,-393.96 435.35,-385.67 435.34,-396.27 441.95,-393.96"/>
<text text-anchor="middle" x="518.53" y="-390.41" font-family="Times,serif" font-size="14.00">okhmeta:hasMetaTag</text>
</g>
<!-- http://w3id.org/oseg/ont/okhmeta#hasMetaTag&#45;&gt;http://www.w3.org/2004/02/skos/core#member -->
<g id="edge24" class="edge">
<title>http://w3id.org/oseg/ont/okhmeta#hasMetaTag&#45;&gt;http://www.w3.org/2004/02/skos/core#member</title>
<path fill="none" stroke="black" d="M465.34,-440.68C465.92,-442.04 466.51,-443.43 467.11,-444.83"/>
<polygon fill="black" stroke="black" points="463.9,-446.23 471.03,-454.06 470.34,-443.49 463.9,-446.23"/>
<text text-anchor="middle" x="413.23" y="-446.56" font-family="Times,serif" font-size="14.00">subPropertyOf</text>
</g>
<!-- http://w3id.org/oseg/ont/okhmeta#PhysicalTag -->
<g id="node18" class="node">
<title>http://w3id.org/oseg/ont/okhmeta#PhysicalTag</title>
<ellipse fill="none" stroke="#e377c2" cx="691.15" cy="-556.12" rx="118.17" ry="16.03"/>
<text text-anchor="middle" x="691.15" y="-552.42" font-family="Times,serif" font-size="14.00">okhmeta:PhysicalTag</text>
</g>
<!-- http://w3id.org/oseg/ont/okhmeta#PhysicalTag&#45;&gt;http://w3id.org/oseg/ont/okhmeta#Tag -->
<g id="edge36" class="edge">
<title>http://w3id.org/oseg/ont/okhmeta#PhysicalTag&#45;&gt;http://w3id.org/oseg/ont/okhmeta#Tag</title>
<path fill="none" stroke="black" d="M673.37,-539.75C629.95,-499.76 518.48,-397.1 468.62,-351.18"/>
<polygon fill="black" stroke="black" points="470.9,-348.52 461.17,-344.32 466.16,-353.67 470.9,-348.52"/>
<text text-anchor="middle" x="566.49" y="-449.26" font-family="Times,serif" font-size="14.00">a</text>
</g>
<!-- http://w3id.org/oseg/ont/okhmeta#PhysicalTag&#45;&gt;http://w3id.org/oseg/ont/okhmeta#MetaTag -->
<g id="edge45" class="edge">
<title>http://w3id.org/oseg/ont/okhmeta#PhysicalTag&#45;&gt;http://w3id.org/oseg/ont/okhmeta#MetaTag</title>
<path fill="none" stroke="black" d="M668.85,-539.86C622.81,-506.29 517.2,-429.28 465.06,-391.26"/>
<polygon fill="black" stroke="black" points="467.01,-388.35 456.87,-385.29 462.89,-394.01 467.01,-388.35"/>
<text text-anchor="middle" x="643.95" y="-469.36" font-family="Times,serif" font-size="14.00">okhmeta:hasMetaTag</text>
</g>
<!-- http://w3id.org/oseg/ont/okhmeta#DevelopmentTag -->
<g id="node20" class="node">
<title>http://w3id.org/oseg/ont/okhmeta#DevelopmentTag</title>
<ellipse fill="none" stroke="#e377c2" cx="776.46" cy="-350.81" rx="124.4" ry="16.03"/>
<text text-anchor="middle" x="776.46" y="-347.11" font-family="Times,serif" font-size="14.00">okhmeta:Developme...</text>
</g>
<!-- http://w3id.org/oseg/ont/okhmeta#DevelopmentTag&#45;&gt;http://w3id.org/oseg/ont/okhmeta#Tag -->
<g id="edge10" class="edge">
<title>http://w3id.org/oseg/ont/okhmeta#DevelopmentTag&#45;&gt;http://w3id.org/oseg/ont/okhmeta#Tag</title>
<path fill="none" stroke="black" d="M665.72,-343.34C620.42,-340.29 568.9,-336.82 526.93,-333.99"/>
<polygon fill="black" stroke="black" points="526.96,-330.48 516.75,-333.3 526.49,-337.47 526.96,-330.48"/>
<text text-anchor="middle" x="591.82" y="-342.47" font-family="Times,serif" font-size="14.00">a</text>
</g>
<!-- http://w3id.org/oseg/ont/okhmeta#DevelopmentTag&#45;&gt;http://w3id.org/oseg/ont/okhmeta#MetaTag -->
<g id="edge19" class="edge">
<title>http://w3id.org/oseg/ont/okhmeta#DevelopmentTag&#45;&gt;http://w3id.org/oseg/ont/okhmeta#MetaTag</title>
<path fill="none" stroke="black" d="M661.27,-357.01C622.77,-359.08 580.04,-361.38 542.16,-363.42"/>
<polygon fill="black" stroke="black" points="541.92,-359.93 532.12,-363.96 542.3,-366.92 541.92,-359.93"/>
<text text-anchor="middle" x="563.21" y="-349.01" font-family="Times,serif" font-size="14.00">okhmeta:hasMetaTag</text>
</g>
<!-- http://w3id.org/oseg/ont/okhmeta#BasicTag -->
<g id="node21" class="node">
<title>http://w3id.org/oseg/ont/okhmeta#BasicTag</title>
<ellipse fill="none" stroke="#e377c2" cx="602.86" cy="-611.62" rx="103.48" ry="16.03"/>
<text text-anchor="middle" x="602.86" y="-607.92" font-family="Times,serif" font-size="14.00">okhmeta:BasicTag</text>
</g>
<!-- http://w3id.org/oseg/ont/okhmeta#BasicTag&#45;&gt;http://w3id.org/oseg/ont/okhmeta#Tag -->
<g id="edge11" class="edge">
<title>http://w3id.org/oseg/ont/okhmeta#BasicTag&#45;&gt;http://w3id.org/oseg/ont/okhmeta#Tag</title>
<path fill="none" stroke="black" d="M593.63,-595.17C567.01,-547.75 490,-410.56 458.04,-353.62"/>
<polygon fill="black" stroke="black" points="461.09,-351.89 453.14,-344.89 454.98,-355.32 461.09,-351.89"/>
<text text-anchor="middle" x="521.33" y="-478.2" font-family="Times,serif" font-size="14.00">a</text>
</g>
<!-- http://w3id.org/oseg/ont/okhmeta#BasicTag&#45;&gt;http://w3id.org/oseg/ont/okhmeta#MetaTag -->
<g id="edge18" class="edge">
<title>http://w3id.org/oseg/ont/okhmeta#BasicTag&#45;&gt;http://w3id.org/oseg/ont/okhmeta#MetaTag</title>
<path fill="none" stroke="black" d="M591.57,-595.34C562.75,-553.76 486.3,-443.48 451.95,-393.92"/>
<polygon fill="black" stroke="black" points="454.62,-391.63 446.04,-385.41 448.86,-395.62 454.62,-391.63"/>
<text text-anchor="middle" x="598.76" y="-498.43" font-family="Times,serif" font-size="14.00">okhmeta:hasMetaTag</text>
</g>
<!-- http://w3id.org/oseg/ont/okhmeta#ExtendedInfoTag -->
<g id="node22" class="node">
<title>http://w3id.org/oseg/ont/okhmeta#ExtendedInfoTag</title>
<ellipse fill="none" stroke="#e377c2" cx="314.52" cy="-34.54" rx="120.42" ry="16.03"/>
<text text-anchor="middle" x="314.52" y="-30.84" font-family="Times,serif" font-size="14.00">okhmeta:ExtendedI...</text>
</g>
<!-- http://w3id.org/oseg/ont/okhmeta#ExtendedInfoTag&#45;&gt;http://w3id.org/oseg/ont/okhmeta#Tag -->
<g id="edge46" class="edge">
<title>http://w3id.org/oseg/ont/okhmeta#ExtendedInfoTag&#45;&gt;http://w3id.org/oseg/ont/okhmeta#Tag</title>
<path fill="none" stroke="black" d="M321.84,-51.18C343.37,-100.07 406.53,-243.54 432.51,-302.57"/>
<polygon fill="black" stroke="black" points="429.4,-304.19 436.63,-311.93 435.81,-301.37 429.4,-304.19"/>
<text text-anchor="middle" x="372.68" y="-180.67" font-family="Times,serif" font-size="14.00">a</text>
</g>
<!-- http://w3id.org/oseg/ont/okhmeta#ExtendedInfoTag&#45;&gt;http://w3id.org/oseg/ont/okhmeta#MetaTag -->
<g id="edge6" class="edge">
<title>http://w3id.org/oseg/ont/okhmeta#ExtendedInfoTag&#45;&gt;http://w3id.org/oseg/ont/okhmeta#MetaTag</title>
<path fill="none" stroke="black" d="M320.48,-51.13C339.97,-105.34 401.84,-277.48 425.49,-343.28"/>
<polygon fill="black" stroke="black" points="422.27,-344.67 428.94,-352.9 428.86,-342.3 422.27,-344.67"/>
<text text-anchor="middle" x="295.99" y="-186.01" font-family="Times,serif" font-size="14.00">okhmeta:hasMetaTag</text>
</g>
<!-- http://w3id.org/oseg/ont/okhmeta#IdentificationTag -->
<g id="node24" class="node">
<title>http://w3id.org/oseg/ont/okhmeta#IdentificationTag</title>
<ellipse fill="none" stroke="#e377c2" cx="731.05" cy="-245.28" rx="109.7" ry="16.03"/>
<text text-anchor="middle" x="731.05" y="-241.58" font-family="Times,serif" font-size="14.00">okhmeta:Identific...</text>
</g>
<!-- http://w3id.org/oseg/ont/okhmeta#IdentificationTag&#45;&gt;http://w3id.org/oseg/ont/okhmeta#Tag -->
<g id="edge41" class="edge">
<title>http://w3id.org/oseg/ont/okhmeta#IdentificationTag&#45;&gt;http://w3id.org/oseg/ont/okhmeta#Tag</title>
<path fill="none" stroke="black" d="M681.03,-259.76C630.31,-274.44 551.99,-297.1 499.38,-312.33"/>
<polygon fill="black" stroke="black" points="498.17,-309.03 489.54,-315.18 500.12,-315.76 498.17,-309.03"/>
<text text-anchor="middle" x="585.71" y="-289.84" font-family="Times,serif" font-size="14.00">a</text>
</g>
<!-- http://w3id.org/oseg/ont/okhmeta#IdentificationTag&#45;&gt;http://w3id.org/oseg/ont/okhmeta#MetaTag -->
<g id="edge39" class="edge">
<title>http://w3id.org/oseg/ont/okhmeta#IdentificationTag&#45;&gt;http://w3id.org/oseg/ont/okhmeta#MetaTag</title>
<path fill="none" stroke="black" d="M694.13,-260.73C640.06,-283.34 539.41,-325.44 480.67,-350.01"/>
<polygon fill="black" stroke="black" points="479.13,-346.86 471.26,-353.95 481.84,-353.32 479.13,-346.86"/>
<text text-anchor="middle" x="664.4" y="-309.17" font-family="Times,serif" font-size="14.00">okhmeta:hasMetaTag</text>
</g>
<!-- http://w3id.org/oseg/ont/okhmeta#DataGatheringTag -->
<g id="node25" class="node">
<title>http://w3id.org/oseg/ont/okhmeta#DataGatheringTag</title>
<ellipse fill="none" stroke="#e377c2" cx="216.44" cy="-610.34" rx="122.16" ry="16.03"/>
<text text-anchor="middle" x="216.44" y="-606.64" font-family="Times,serif" font-size="14.00">okhmeta:DataGathe...</text>
</g>
<!-- http://w3id.org/oseg/ont/okhmeta#DataGatheringTag&#45;&gt;http://w3id.org/oseg/ont/okhmeta#Tag -->
<g id="edge42" class="edge">
<title>http://w3id.org/oseg/ont/okhmeta#DataGatheringTag&#45;&gt;http://w3id.org/oseg/ont/okhmeta#Tag</title>
<path fill="none" stroke="black" d="M229.65,-593.96C267.97,-546.45 379.33,-408.41 424.5,-352.41"/>
<polygon fill="black" stroke="black" points="427.36,-354.44 430.91,-344.46 421.91,-350.05 427.36,-354.44"/>
<text text-anchor="middle" x="322.57" y="-476.99" font-family="Times,serif" font-size="14.00">a</text>
</g>
<!-- http://w3id.org/oseg/ont/okhmeta#DataGatheringTag&#45;&gt;http://w3id.org/oseg/ont/okhmeta#MetaTag -->
<g id="edge1" class="edge">
<title>http://w3id.org/oseg/ont/okhmeta#DataGatheringTag&#45;&gt;http://w3id.org/oseg/ont/okhmeta#MetaTag</title>
<path fill="none" stroke="black" d="M231.1,-594.14C268.79,-552.53 369.13,-441.72 413.36,-392.88"/>
<polygon fill="black" stroke="black" points="416.08,-395.08 420.2,-385.32 410.89,-390.39 416.08,-395.08"/>
<text text-anchor="middle" x="245.23" y="-497.31" font-family="Times,serif" font-size="14.00">okhmeta:hasMetaTag</text>
</g>
<!-- http://w3id.org/oseg/ont/okhmeta#PartsTag -->
<g id="node26" class="node">
<title>http://w3id.org/oseg/ont/okhmeta#PartsTag</title>
<ellipse fill="none" stroke="#e377c2" cx="222.29" cy="-529.57" rx="103.48" ry="16.03"/>
<text text-anchor="middle" x="222.29" y="-525.87" font-family="Times,serif" font-size="14.00">okhmeta:PartsTag</text>
</g>
<!-- http://w3id.org/oseg/ont/okhmeta#PartsTag&#45;&gt;http://w3id.org/oseg/ont/okhmeta#Tag -->
<g id="edge16" class="edge">
<title>http://w3id.org/oseg/ont/okhmeta#PartsTag&#45;&gt;http://w3id.org/oseg/ont/okhmeta#Tag</title>
<path fill="none" stroke="black" d="M240.05,-513.45C279.29,-477.83 373.46,-392.32 418.74,-351.21"/>
<polygon fill="black" stroke="black" points="421.29,-353.62 426.34,-344.31 416.59,-348.44 421.29,-353.62"/>
<text text-anchor="middle" x="324.89" y="-436.13" font-family="Times,serif" font-size="14.00">a</text>
</g>
<!-- http://w3id.org/oseg/ont/okhmeta#PartsTag&#45;&gt;http://w3id.org/oseg/ont/okhmeta#MetaTag -->
<g id="edge31" class="edge">
<title>http://w3id.org/oseg/ont/okhmeta#PartsTag&#45;&gt;http://w3id.org/oseg/ont/okhmeta#MetaTag</title>
<path fill="none" stroke="black" d="M243.44,-513.61C281.53,-484.87 361.73,-424.34 405.23,-391.51"/>
<polygon fill="black" stroke="black" points="407.55,-394.15 413.42,-385.33 403.33,-388.56 407.55,-394.15"/>
<text text-anchor="middle" x="247.34" y="-456.36" font-family="Times,serif" font-size="14.00">okhmeta:hasMetaTag</text>
</g>
<!-- http://w3id.org/oseg/ont/okhmeta#TransportationTag -->
<g id="node27" class="node">
<title>http://w3id.org/oseg/ont/okhmeta#TransportationTag</title>
<ellipse fill="none" stroke="#e377c2" cx="118.43" cy="-343.79" rx="118.17" ry="16.03"/>
<text text-anchor="middle" x="118.43" y="-340.09" font-family="Times,serif" font-size="14.00">okhmeta:Transport...</text>
</g>
<!-- http://w3id.org/oseg/ont/okhmeta#TransportationTag&#45;&gt;http://w3id.org/oseg/ont/okhmeta#Tag -->
<g id="edge17" class="edge">
<title>http://w3id.org/oseg/ont/okhmeta#TransportationTag&#45;&gt;http://w3id.org/oseg/ont/okhmeta#Tag</title>
<path fill="none" stroke="black" d="M230.43,-338.49C272.55,-336.5 319.7,-334.27 358.96,-332.41"/>
<polygon fill="black" stroke="black" points="359.2,-335.9 369.02,-331.93 358.87,-328.91 359.2,-335.9"/>
<text text-anchor="middle" x="290.2" y="-324.25" font-family="Times,serif" font-size="14.00">a</text>
</g>
<!-- http://w3id.org/oseg/ont/okhmeta#TransportationTag&#45;&gt;http://w3id.org/oseg/ont/okhmeta#MetaTag -->
<g id="edge33" class="edge">
<title>http://w3id.org/oseg/ont/okhmeta#TransportationTag&#45;&gt;http://w3id.org/oseg/ont/okhmeta#MetaTag</title>
<path fill="none" stroke="black" d="M220.71,-352.01C256.77,-354.9 297.27,-358.15 333.27,-361.04"/>
<polygon fill="black" stroke="black" points="333.04,-364.54 343.29,-361.85 333.6,-357.56 333.04,-364.54"/>
<text text-anchor="middle" x="199.99" y="-360.32" font-family="Times,serif" font-size="14.00">okhmeta:hasMetaTag</text>
</g>
<!-- http://w3id.org/oseg/ont/okhmeta#DataTag -->
<g id="node28" class="node">
<title>http://w3id.org/oseg/ont/okhmeta#DataTag</title>
<ellipse fill="none" stroke="#e377c2" cx="416.86" cy="-655.43" rx="100.32" ry="16.03"/>
<text text-anchor="middle" x="416.86" y="-651.73" font-family="Times,serif" font-size="14.00">okhmeta:DataTag</text>
</g>
<!-- http://w3id.org/oseg/ont/okhmeta#DataTag&#45;&gt;http://w3id.org/oseg/ont/okhmeta#Tag -->
<g id="edge15" class="edge">
<title>http://w3id.org/oseg/ont/okhmeta#DataTag&#45;&gt;http://w3id.org/oseg/ont/okhmeta#Tag</title>
<path fill="none" stroke="black" d="M418.24,-638.77C422.62,-585.73 436.26,-420.56 441.66,-355.31"/>
<polygon fill="black" stroke="black" points="445.17,-355.28 442.5,-345.02 438.19,-354.7 445.17,-355.28"/>
<text text-anchor="middle" x="425.45" y="-500.84" font-family="Times,serif" font-size="14.00">a</text>
</g>
<!-- http://w3id.org/oseg/ont/okhmeta#DataTag&#45;&gt;http://w3id.org/oseg/ont/okhmeta#MetaTag -->
<g id="edge44" class="edge">
<title>http://w3id.org/oseg/ont/okhmeta#DataTag&#45;&gt;http://w3id.org/oseg/ont/okhmeta#MetaTag</title>
<path fill="none" stroke="black" d="M417.91,-638.81C420.89,-591.17 429.5,-453.87 433.14,-395.72"/>
<polygon fill="black" stroke="black" points="436.65,-395.71 433.78,-385.51 429.66,-395.27 436.65,-395.71"/>
<text text-anchor="middle" x="502.52" y="-521.07" font-family="Times,serif" font-size="14.00">okhmeta:hasMetaTag</text>
</g>
</g>
</svg>
