<?xml version="1.0" encoding="UTF-8" standalone="no"?>
<!DOCTYPE svg PUBLIC "-//W3C//DTD SVG 1.1//EN"
 "http://www.w3.org/Graphics/SVG/1.1/DTD/svg11.dtd">
<!-- Generated by graphviz version 2.43.0 (0)
 -->
<!-- Title: G Pages: 1 -->
<svg width="2601pt" height="1614pt"
 viewBox="0.00 0.00 2601.00 1614.00" xmlns="http://www.w3.org/2000/svg" xmlns:xlink="http://www.w3.org/1999/xlink">
<g id="graph0" class="graph" transform="scale(1 1) rotate(0) translate(4 1610)">
<title>G</title>
<polygon fill="white" stroke="transparent" points="-4,4 -4,-1610 2597,-1610 2597,4 -4,4"/>
<!-- http://w3id.org/oseg/ont/otrl#ODRL -->
<g id="node1" class="node">
<title>http://w3id.org/oseg/ont/otrl#ODRL</title>
<ellipse fill="none" stroke="#e377c2" cx="1143.72" cy="-617.06" rx="62.87" ry="16.03"/>
<text text-anchor="middle" x="1143.72" y="-613.36" font-family="Times,serif" font-size="14.00">otrl:ODRL</text>
</g>
<!-- http://spdx.org/rdf/terms#SpdxItem -->
<g id="node2" class="node">
<title>http://spdx.org/rdf/terms#SpdxItem</title>
<ellipse fill="none" stroke="#1f77b4" cx="857.27" cy="-1489.34" rx="87.86" ry="16.03"/>
<text text-anchor="middle" x="857.27" y="-1485.64" font-family="Times,serif" font-size="14.00">spdx:SpdxItem</text>
</g>
<!-- http://www.w3.org/2002/07/owl#Ontology -->
<g id="node3" class="node">
<title>http://www.w3.org/2002/07/owl#Ontology</title>
<ellipse fill="none" stroke="#1f77b4" cx="1245.13" cy="-1507.36" rx="77.56" ry="16.03"/>
<text text-anchor="middle" x="1245.13" y="-1503.66" font-family="Times,serif" font-size="14.00">owl:Ontology</text>
</g>
<!-- http://www.w3.org/2002/07/owl#DatatypeProperty -->
<g id="node4" class="node">
<title>http://www.w3.org/2002/07/owl#DatatypeProperty</title>
<ellipse fill="none" stroke="#1f77b4" cx="1512.53" cy="-670.45" rx="123.07" ry="16.03"/>
<text text-anchor="middle" x="1512.53" y="-666.75" font-family="Times,serif" font-size="14.00">owl:DatatypeProperty</text>
</g>
<!-- http://w3id.org/oseg/ont/otrl#OTRL -->
<g id="node5" class="node">
<title>http://w3id.org/oseg/ont/otrl#OTRL</title>
<ellipse fill="none" stroke="#e377c2" cx="1741.56" cy="-882.02" rx="60.62" ry="16.03"/>
<text text-anchor="middle" x="1741.56" y="-878.32" font-family="Times,serif" font-size="14.00">otrl:OTRL</text>
</g>
<!-- http://w3id.org/oseg/ont/otrl#ODRL3Star -->
<g id="node6" class="node">
<title>http://w3id.org/oseg/ont/otrl#ODRL3Star</title>
<ellipse fill="none" stroke="#e377c2" cx="1071.81" cy="-850.2" rx="90.52" ry="16.03"/>
<text text-anchor="middle" x="1071.81" y="-846.5" font-family="Times,serif" font-size="14.00">otrl:ODRL3Star</text>
</g>
<!-- http://w3id.org/oseg/ont/otrl#ODRL3Star&#45;&gt;http://w3id.org/oseg/ont/otrl#ODRL -->
<g id="edge1" class="edge">
<title>http://w3id.org/oseg/ont/otrl#ODRL3Star&#45;&gt;http://w3id.org/oseg/ont/otrl#ODRL</title>
<path fill="none" stroke="black" d="M1076.86,-833.8C1089.17,-793.92 1120.74,-691.58 1135.67,-643.17"/>
<polygon fill="black" stroke="black" points="1139.07,-644.02 1138.67,-633.43 1132.38,-641.96 1139.07,-644.02"/>
<text text-anchor="middle" x="1101.77" y="-742.29" font-family="Times,serif" font-size="14.00">a</text>
</g>
<!-- http://w3id.org/oseg/ont/otrl#ODRL1 -->
<g id="node7" class="node">
<title>http://w3id.org/oseg/ont/otrl#ODRL1</title>
<ellipse fill="none" stroke="#e377c2" cx="917.24" cy="-474.25" rx="69.09" ry="16.03"/>
<text text-anchor="middle" x="917.24" y="-470.55" font-family="Times,serif" font-size="14.00">otrl:ODRL1</text>
</g>
<!-- http://w3id.org/oseg/ont/otrl#ODRL1&#45;&gt;http://w3id.org/oseg/ont/otrl#ODRL -->
<g id="edge18" class="edge">
<title>http://w3id.org/oseg/ont/otrl#ODRL1&#45;&gt;http://w3id.org/oseg/ont/otrl#ODRL</title>
<path fill="none" stroke="black" d="M941.48,-489.53C982.34,-515.3 1064.99,-567.41 1110.97,-596.41"/>
<polygon fill="black" stroke="black" points="1109.33,-599.51 1119.66,-601.89 1113.07,-593.59 1109.33,-599.51"/>
<text text-anchor="middle" x="1021.73" y="-546.77" font-family="Times,serif" font-size="14.00">a</text>
</g>
<!-- http://w3id.org/oseg/ont/oseg&#45;profiles#robinVobruba -->
<g id="node8" class="node">
<title>http://w3id.org/oseg/ont/oseg&#45;profiles#robinVobruba</title>
<ellipse fill="none" stroke="#e377c2" cx="1241.27" cy="-1376.4" rx="113.69" ry="16.03"/>
<text text-anchor="middle" x="1241.27" y="-1372.7" font-family="Times,serif" font-size="14.00">osegprof:robinVob...</text>
</g>
<!-- http://w3id.org/oseg/ont/otrl#OTRL1 -->
<g id="node9" class="node">
<title>http://w3id.org/oseg/ont/otrl#OTRL1</title>
<ellipse fill="none" stroke="#e377c2" cx="1772.53" cy="-1107.98" rx="67.35" ry="16.03"/>
<text text-anchor="middle" x="1772.53" y="-1104.28" font-family="Times,serif" font-size="14.00">otrl:OTRL1</text>
</g>
<!-- http://w3id.org/oseg/ont/otrl#OTRL1&#45;&gt;http://w3id.org/oseg/ont/otrl#OTRL -->
<g id="edge5" class="edge">
<title>http://w3id.org/oseg/ont/otrl#OTRL1&#45;&gt;http://w3id.org/oseg/ont/otrl#OTRL</title>
<path fill="none" stroke="black" d="M1770.25,-1091.37C1764.92,-1052.5 1751.62,-955.42 1745.17,-908.38"/>
<polygon fill="black" stroke="black" points="1748.62,-907.78 1743.8,-898.35 1741.69,-908.73 1748.62,-907.78"/>
<text text-anchor="middle" x="1753.21" y="-1003.67" font-family="Times,serif" font-size="14.00">a</text>
</g>
<!-- http://w3id.org/oseg/ont/otrl#goal -->
<g id="node10" class="node">
<title>http://w3id.org/oseg/ont/otrl#goal</title>
<ellipse fill="none" stroke="#e377c2" cx="1440.6" cy="-774.85" rx="54.39" ry="16.03"/>
<text text-anchor="middle" x="1440.6" y="-771.15" font-family="Times,serif" font-size="14.00">otrl:goal</text>
</g>
<!-- http://w3id.org/oseg/ont/otrl#goal&#45;&gt;http://w3id.org/oseg/ont/otrl#ODRL -->
<g id="edge31" class="edge">
<title>http://w3id.org/oseg/ont/otrl#goal&#45;&gt;http://w3id.org/oseg/ont/otrl#ODRL</title>
<path fill="none" stroke="black" d="M1413.73,-760.57C1360.37,-732.21 1241,-668.76 1180.45,-636.58"/>
<polygon fill="black" stroke="black" points="1182.08,-633.48 1171.61,-631.88 1178.8,-639.66 1182.08,-633.48"/>
<text text-anchor="middle" x="1219.09" y="-702.37" font-family="Times,serif" font-size="14.00">dcam:domainIncludes</text>
</g>
<!-- http://w3id.org/oseg/ont/otrl#goal&#45;&gt;http://www.w3.org/2002/07/owl#DatatypeProperty -->
<g id="edge6" class="edge">
<title>http://w3id.org/oseg/ont/otrl#goal&#45;&gt;http://www.w3.org/2002/07/owl#DatatypeProperty</title>
<path fill="none" stroke="black" d="M1451.84,-758.54C1463.55,-741.53 1482.06,-714.67 1495.56,-695.07"/>
<polygon fill="black" stroke="black" points="1498.58,-696.87 1501.37,-686.65 1492.81,-692.89 1498.58,-696.87"/>
<text text-anchor="middle" x="1469.2" y="-730.61" font-family="Times,serif" font-size="14.00">a</text>
</g>
<!-- http://w3id.org/oseg/ont/otrl#goal&#45;&gt;http://w3id.org/oseg/ont/otrl#OTRL -->
<g id="edge16" class="edge">
<title>http://w3id.org/oseg/ont/otrl#goal&#45;&gt;http://w3id.org/oseg/ont/otrl#OTRL</title>
<path fill="none" stroke="black" d="M1475.71,-787.35C1530.06,-806.7 1634.57,-843.92 1695.11,-865.48"/>
<polygon fill="black" stroke="black" points="1694.2,-868.87 1704.79,-868.93 1696.55,-862.27 1694.2,-868.87"/>
<text text-anchor="middle" x="1507.41" y="-830.21" font-family="Times,serif" font-size="14.00">dcam:domainIncludes</text>
</g>
<!-- http://www.w3.org/1999/02/22&#45;rdf&#45;syntax&#45;ns#langString -->
<g id="node11" class="node">
<title>http://www.w3.org/1999/02/22&#45;rdf&#45;syntax&#45;ns#langString</title>
<ellipse fill="none" stroke="#e377c2" cx="1359.37" cy="-955.65" rx="83.38" ry="16.03"/>
<text text-anchor="middle" x="1359.37" y="-951.95" font-family="Times,serif" font-size="14.00">rdf:langString</text>
</g>
<!-- http://w3id.org/oseg/ont/otrl#goal&#45;&gt;http://www.w3.org/1999/02/22&#45;rdf&#45;syntax&#45;ns#langString -->
<g id="edge7" class="edge">
<title>http://w3id.org/oseg/ont/otrl#goal&#45;&gt;http://www.w3.org/1999/02/22&#45;rdf&#45;syntax&#45;ns#langString</title>
<path fill="none" stroke="black" d="M1433.24,-791.21C1419.08,-822.73 1387.93,-892.08 1370.95,-929.87"/>
<polygon fill="black" stroke="black" points="1367.67,-928.63 1366.76,-939.19 1374.05,-931.5 1367.67,-928.63"/>
<text text-anchor="middle" x="1381.1" y="-864.34" font-family="Times,serif" font-size="14.00">range</text>
</g>
<!-- http://w3id.org/oseg/ont/otrl#OTRL2 -->
<g id="node12" class="node">
<title>http://w3id.org/oseg/ont/otrl#OTRL2</title>
<ellipse fill="none" stroke="#e377c2" cx="2001.01" cy="-996.04" rx="67.35" ry="16.03"/>
<text text-anchor="middle" x="2001.01" y="-992.34" font-family="Times,serif" font-size="14.00">otrl:OTRL2</text>
</g>
<!-- http://w3id.org/oseg/ont/otrl#OTRL2&#45;&gt;http://w3id.org/oseg/ont/otrl#OTRL -->
<g id="edge8" class="edge">
<title>http://w3id.org/oseg/ont/otrl#OTRL2&#45;&gt;http://w3id.org/oseg/ont/otrl#OTRL</title>
<path fill="none" stroke="black" d="M1968.41,-981.71C1921.26,-960.99 1834.06,-922.67 1782.59,-900.05"/>
<polygon fill="black" stroke="black" points="1783.97,-896.84 1773.41,-896.02 1781.16,-903.24 1783.97,-896.84"/>
<text text-anchor="middle" x="1871" y="-944.68" font-family="Times,serif" font-size="14.00">a</text>
</g>
<!-- http://w3id.org/oseg/ont/otrl#ODRL2 -->
<g id="node13" class="node">
<title>http://w3id.org/oseg/ont/otrl#ODRL2</title>
<ellipse fill="none" stroke="#e377c2" cx="1236.27" cy="-384.26" rx="69.09" ry="16.03"/>
<text text-anchor="middle" x="1236.27" y="-380.56" font-family="Times,serif" font-size="14.00">otrl:ODRL2</text>
</g>
<!-- http://w3id.org/oseg/ont/otrl#ODRL2&#45;&gt;http://w3id.org/oseg/ont/otrl#ODRL -->
<g id="edge19" class="edge">
<title>http://w3id.org/oseg/ont/otrl#ODRL2&#45;&gt;http://w3id.org/oseg/ont/otrl#ODRL</title>
<path fill="none" stroke="black" d="M1229.77,-400.63C1213.9,-440.54 1173.13,-543.08 1153.97,-591.29"/>
<polygon fill="black" stroke="black" points="1150.67,-590.12 1150.22,-600.71 1157.17,-592.71 1150.67,-590.12"/>
<text text-anchor="middle" x="1187.37" y="-499.76" font-family="Times,serif" font-size="14.00">a</text>
</g>
<!-- http://w3id.org/oseg/ont/1.1.0/otrl -->
<g id="node14" class="node">
<title>http://w3id.org/oseg/ont/1.1.0/otrl</title>
<ellipse fill="none" stroke="#e377c2" cx="987.48" cy="-1589.4" rx="50.82" ry="16.03"/>
<text text-anchor="middle" x="987.48" y="-1585.7" font-family="Times,serif" font-size="14.00">ns1:otrl</text>
</g>
<!-- http://id.loc.gov/vocabulary/iso639&#45;1/en -->
<g id="node15" class="node">
<title>http://id.loc.gov/vocabulary/iso639&#45;1/en</title>
<ellipse fill="none" stroke="#e377c2" cx="1124.72" cy="-1584.62" rx="45.01" ry="16.03"/>
<text text-anchor="middle" x="1124.72" y="-1580.92" font-family="Times,serif" font-size="14.00">ns2:en</text>
</g>
<!-- http://w3id.org/oseg/ont/otrl -->
<g id="node16" class="node">
<title>http://w3id.org/oseg/ont/otrl</title>
<ellipse fill="none" stroke="#e377c2" cx="1061.96" cy="-1442.08" rx="50.82" ry="16.03"/>
<text text-anchor="middle" x="1061.96" y="-1438.38" font-family="Times,serif" font-size="14.00">ns3:otrl</text>
</g>
<!-- http://w3id.org/oseg/ont/otrl&#45;&gt;http://spdx.org/rdf/terms#SpdxItem -->
<g id="edge22" class="edge">
<title>http://w3id.org/oseg/ont/otrl&#45;&gt;http://spdx.org/rdf/terms#SpdxItem</title>
<path fill="none" stroke="black" d="M1020.54,-1451.65C992.27,-1458.17 954.26,-1466.95 922.03,-1474.39"/>
<polygon fill="black" stroke="black" points="921.18,-1470.99 912.22,-1476.65 922.76,-1477.81 921.18,-1470.99"/>
<text text-anchor="middle" x="966.78" y="-1466.82" font-family="Times,serif" font-size="14.00">a</text>
</g>
<!-- http://w3id.org/oseg/ont/otrl&#45;&gt;http://www.w3.org/2002/07/owl#Ontology -->
<g id="edge14" class="edge">
<title>http://w3id.org/oseg/ont/otrl&#45;&gt;http://www.w3.org/2002/07/owl#Ontology</title>
<path fill="none" stroke="black" d="M1095.99,-1454.21C1124.11,-1464.23 1164.42,-1478.6 1196.04,-1489.86"/>
<polygon fill="black" stroke="black" points="1194.96,-1493.19 1205.56,-1493.25 1197.31,-1486.6 1194.96,-1493.19"/>
<text text-anchor="middle" x="1141.51" y="-1475.84" font-family="Times,serif" font-size="14.00">a</text>
</g>
<!-- http://w3id.org/oseg/ont/otrl&#45;&gt;http://w3id.org/oseg/ont/oseg&#45;profiles#robinVobruba -->
<g id="edge4" class="edge">
<title>http://w3id.org/oseg/ont/otrl&#45;&gt;http://w3id.org/oseg/ont/oseg&#45;profiles#robinVobruba</title>
<path fill="none" stroke="black" d="M1104.18,-1432.73C1134.42,-1423.1 1174.78,-1408.31 1203.87,-1396.18"/>
<polygon fill="black" stroke="black" points="1205.44,-1399.31 1213.27,-1392.17 1202.7,-1392.87 1205.44,-1399.31"/>
<text text-anchor="middle" x="1209.52" y="-1418.25" font-family="Times,serif" font-size="14.00">schema:creator</text>
</g>
<!-- http://w3id.org/oseg/ont/otrl&#45;&gt;http://w3id.org/oseg/ont/oseg&#45;profiles#robinVobruba -->
<g id="edge33" class="edge">
<title>http://w3id.org/oseg/ont/otrl&#45;&gt;http://w3id.org/oseg/ont/oseg&#45;profiles#robinVobruba</title>
<path fill="none" stroke="black" d="M1086.72,-1427.74C1109.36,-1417.7 1143.88,-1404.51 1174.57,-1393.91"/>
<polygon fill="black" stroke="black" points="1176.04,-1397.1 1184.37,-1390.56 1173.78,-1390.48 1176.04,-1397.1"/>
<text text-anchor="middle" x="1188.14" y="-1399.62" font-family="Times,serif" font-size="14.00">dcterms:creator</text>
</g>
<!-- http://w3id.org/oseg/ont/otrl&#45;&gt;http://w3id.org/oseg/ont/1.1.0/otrl -->
<g id="edge10" class="edge">
<title>http://w3id.org/oseg/ont/otrl&#45;&gt;http://w3id.org/oseg/ont/1.1.0/otrl</title>
<path fill="none" stroke="black" d="M1053.71,-1458.41C1040.79,-1483.96 1015.69,-1533.6 1000.37,-1563.9"/>
<polygon fill="black" stroke="black" points="997.16,-1562.5 995.77,-1573 1003.4,-1565.65 997.16,-1562.5"/>
<text text-anchor="middle" x="975.54" y="-1514.95" font-family="Times,serif" font-size="14.00">owl:versionIRI</text>
</g>
<!-- http://w3id.org/oseg/ont/otrl&#45;&gt;http://id.loc.gov/vocabulary/iso639&#45;1/en -->
<g id="edge11" class="edge">
<title>http://w3id.org/oseg/ont/otrl&#45;&gt;http://id.loc.gov/vocabulary/iso639&#45;1/en</title>
<path fill="none" stroke="black" d="M1069.16,-1458.43C1079.99,-1483.03 1100.57,-1529.77 1113.42,-1558.94"/>
<polygon fill="black" stroke="black" points="1110.38,-1560.72 1117.61,-1568.46 1116.78,-1557.9 1110.38,-1560.72"/>
<text text-anchor="middle" x="1026.79" y="-1497.49" font-family="Times,serif" font-size="14.00">dcterms:language</text>
</g>
<!-- http://w3id.org/oseg/ont/oseg&#45;profiles#martinHaeuer -->
<g id="node21" class="node">
<title>http://w3id.org/oseg/ont/oseg&#45;profiles#martinHaeuer</title>
<ellipse fill="none" stroke="#e377c2" cx="897.86" cy="-1260.76" rx="116.85" ry="16.03"/>
<text text-anchor="middle" x="897.86" y="-1257.06" font-family="Times,serif" font-size="14.00">osegprof:martinHa...</text>
</g>
<!-- http://w3id.org/oseg/ont/otrl&#45;&gt;http://w3id.org/oseg/ont/oseg&#45;profiles#martinHaeuer -->
<g id="edge23" class="edge">
<title>http://w3id.org/oseg/ont/otrl&#45;&gt;http://w3id.org/oseg/ont/oseg&#45;profiles#martinHaeuer</title>
<path fill="none" stroke="black" d="M1052.43,-1425.92C1028.03,-1393.73 963.57,-1321.9 925.98,-1284.41"/>
<polygon fill="black" stroke="black" points="927.97,-1281.47 918.39,-1276.96 923.07,-1286.47 927.97,-1281.47"/>
<text text-anchor="middle" x="931.7" y="-1343.97" font-family="Times,serif" font-size="14.00">dcterms:creator</text>
</g>
<!-- http://w3id.org/oseg/ont/otrl&#45;&gt;http://w3id.org/oseg/ont/oseg&#45;profiles#martinHaeuer -->
<g id="edge36" class="edge">
<title>http://w3id.org/oseg/ont/otrl&#45;&gt;http://w3id.org/oseg/ont/oseg&#45;profiles#martinHaeuer</title>
<path fill="none" stroke="black" d="M1042.48,-1426.88C1009.63,-1395.41 944.26,-1323.33 913.88,-1285.24"/>
<polygon fill="black" stroke="black" points="916.53,-1282.94 907.62,-1277.21 911.01,-1287.25 916.53,-1282.94"/>
<text text-anchor="middle" x="922.68" y="-1359.86" font-family="Times,serif" font-size="14.00">schema:creator</text>
</g>
<!-- http://w3id.org/oseg/ont/oseg&#45;profiles#Iopa -->
<g id="node24" class="node">
<title>http://w3id.org/oseg/ont/oseg&#45;profiles#Iopa</title>
<ellipse fill="none" stroke="#e377c2" cx="1123.12" cy="-1248.33" rx="80.72" ry="16.03"/>
<text text-anchor="middle" x="1123.12" y="-1244.63" font-family="Times,serif" font-size="14.00">osegprof:Iopa</text>
</g>
<!-- http://w3id.org/oseg/ont/otrl&#45;&gt;http://w3id.org/oseg/ont/oseg&#45;profiles#Iopa -->
<g id="edge26" class="edge">
<title>http://w3id.org/oseg/ont/otrl&#45;&gt;http://w3id.org/oseg/ont/oseg&#45;profiles#Iopa</title>
<path fill="none" stroke="black" d="M1067.07,-1425.9C1077.66,-1392.35 1102.09,-1314.97 1114.92,-1274.33"/>
<polygon fill="black" stroke="black" points="1118.31,-1275.19 1117.99,-1264.61 1111.64,-1273.09 1118.31,-1275.19"/>
<text text-anchor="middle" x="1156.49" y="-1338.91" font-family="Times,serif" font-size="14.00">dcterms:publisher</text>
</g>
<!-- http://spdx.org/licenses/GPL&#45;3.0&#45;or&#45;later -->
<g id="node27" class="node">
<title>http://spdx.org/licenses/GPL&#45;3.0&#45;or&#45;later</title>
<ellipse fill="none" stroke="#e377c2" cx="1003.2" cy="-1396.44" rx="108.79" ry="16.03"/>
<text text-anchor="middle" x="1003.2" y="-1392.74" font-family="Times,serif" font-size="14.00">spdxl:GPL&#45;3.0&#45;or&#45;...</text>
</g>
<!-- http://w3id.org/oseg/ont/otrl&#45;&gt;http://spdx.org/licenses/GPL&#45;3.0&#45;or&#45;later -->
<g id="edge38" class="edge">
<title>http://w3id.org/oseg/ont/otrl&#45;&gt;http://spdx.org/licenses/GPL&#45;3.0&#45;or&#45;later</title>
<path fill="none" stroke="black" d="M1042.4,-1426.88C1039.09,-1424.32 1035.6,-1421.6 1032.12,-1418.9"/>
<polygon fill="black" stroke="black" points="1034.14,-1416.04 1024.1,-1412.67 1029.85,-1421.57 1034.14,-1416.04"/>
<text text-anchor="middle" x="961.26" y="-1426.69" font-family="Times,serif" font-size="14.00">spdx:licenseDeclared</text>
</g>
<!-- http://w3id.org/oseg/ont/otrl#ODRL3 -->
<g id="node17" class="node">
<title>http://w3id.org/oseg/ont/otrl#ODRL3</title>
<ellipse fill="none" stroke="#e377c2" cx="1000.53" cy="-378.95" rx="69.09" ry="16.03"/>
<text text-anchor="middle" x="1000.53" y="-375.25" font-family="Times,serif" font-size="14.00">otrl:ODRL3</text>
</g>
<!-- http://w3id.org/oseg/ont/otrl#ODRL3&#45;&gt;http://w3id.org/oseg/ont/otrl#ODRL -->
<g id="edge39" class="edge">
<title>http://w3id.org/oseg/ont/otrl#ODRL3&#45;&gt;http://w3id.org/oseg/ont/otrl#ODRL</title>
<path fill="none" stroke="black" d="M1010.37,-395.31C1035.01,-436.28 1099.45,-543.43 1128.79,-592.22"/>
<polygon fill="black" stroke="black" points="1125.85,-594.13 1134,-600.89 1131.85,-590.52 1125.85,-594.13"/>
<text text-anchor="middle" x="1065.08" y="-497.57" font-family="Times,serif" font-size="14.00">a</text>
</g>
<!-- http://w3id.org/oseg/ont/otrl#OTRL6 -->
<g id="node18" class="node">
<title>http://w3id.org/oseg/ont/otrl#OTRL6</title>
<ellipse fill="none" stroke="#e377c2" cx="1808.8" cy="-681.34" rx="67.35" ry="16.03"/>
<text text-anchor="middle" x="1808.8" y="-677.64" font-family="Times,serif" font-size="14.00">otrl:OTRL6</text>
</g>
<!-- http://w3id.org/oseg/ont/otrl#OTRL6&#45;&gt;http://w3id.org/oseg/ont/otrl#OTRL -->
<g id="edge43" class="edge">
<title>http://w3id.org/oseg/ont/otrl#OTRL6&#45;&gt;http://w3id.org/oseg/ont/otrl#OTRL</title>
<path fill="none" stroke="black" d="M1803.3,-697.77C1791.62,-732.62 1764.28,-814.21 1750.23,-856.14"/>
<polygon fill="black" stroke="black" points="1746.9,-855.06 1747.04,-865.65 1753.54,-857.28 1746.9,-855.06"/>
<text text-anchor="middle" x="1772.26" y="-780.75" font-family="Times,serif" font-size="14.00">a</text>
</g>
<!-- http://w3id.org/oseg/ont/otrl#OTRL3 -->
<g id="node19" class="node">
<title>http://w3id.org/oseg/ont/otrl#OTRL3</title>
<ellipse fill="none" stroke="#e377c2" cx="1927.08" cy="-1107.62" rx="67.35" ry="16.03"/>
<text text-anchor="middle" x="1927.08" y="-1103.92" font-family="Times,serif" font-size="14.00">otrl:OTRL3</text>
</g>
<!-- http://w3id.org/oseg/ont/otrl#OTRL3&#45;&gt;http://w3id.org/oseg/ont/otrl#OTRL -->
<g id="edge28" class="edge">
<title>http://w3id.org/oseg/ont/otrl#OTRL3&#45;&gt;http://w3id.org/oseg/ont/otrl#OTRL</title>
<path fill="none" stroke="black" d="M1913.74,-1091.4C1881.51,-1052.21 1799.3,-952.24 1761.33,-906.06"/>
<polygon fill="black" stroke="black" points="1763.83,-903.6 1754.78,-898.09 1758.43,-908.04 1763.83,-903.6"/>
<text text-anchor="middle" x="1833.04" y="-1002.53" font-family="Times,serif" font-size="14.00">a</text>
</g>
<!-- http://w3id.org/oseg/ont/otrl#OTRL4 -->
<g id="node20" class="node">
<title>http://w3id.org/oseg/ont/otrl#OTRL4</title>
<ellipse fill="none" stroke="#e377c2" cx="2022.29" cy="-862.89" rx="67.35" ry="16.03"/>
<text text-anchor="middle" x="2022.29" y="-859.19" font-family="Times,serif" font-size="14.00">otrl:OTRL4</text>
</g>
<!-- http://w3id.org/oseg/ont/otrl#OTRL4&#45;&gt;http://w3id.org/oseg/ont/otrl#OTRL -->
<g id="edge29" class="edge">
<title>http://w3id.org/oseg/ont/otrl#OTRL4&#45;&gt;http://w3id.org/oseg/ont/otrl#OTRL</title>
<path fill="none" stroke="black" d="M1957.54,-867.3C1913.67,-870.29 1855.76,-874.24 1810.95,-877.29"/>
<polygon fill="black" stroke="black" points="1810.47,-873.81 1800.73,-877.99 1810.94,-880.8 1810.47,-873.81"/>
<text text-anchor="middle" x="1879.74" y="-876.1" font-family="Times,serif" font-size="14.00">a</text>
</g>
<!-- http://w3id.org/oseg/ont/otrl#Odrl4 -->
<g id="node22" class="node">
<title>http://w3id.org/oseg/ont/otrl#Odrl4</title>
<ellipse fill="none" stroke="#e377c2" cx="560.71" cy="-633.69" rx="61.54" ry="16.03"/>
<text text-anchor="middle" x="560.71" y="-629.99" font-family="Times,serif" font-size="14.00">otrl:Odrl4</text>
</g>
<!-- http://w3id.org/oseg/ont/otrl#ODRL4 -->
<g id="node23" class="node">
<title>http://w3id.org/oseg/ont/otrl#ODRL4</title>
<ellipse fill="none" stroke="#e377c2" cx="841.77" cy="-624.26" rx="69.09" ry="16.03"/>
<text text-anchor="middle" x="841.77" y="-620.56" font-family="Times,serif" font-size="14.00">otrl:ODRL4</text>
</g>
<!-- http://w3id.org/oseg/ont/otrl#Odrl4&#45;&gt;http://w3id.org/oseg/ont/otrl#ODRL4 -->
<g id="edge41" class="edge">
<title>http://w3id.org/oseg/ont/otrl#Odrl4&#45;&gt;http://w3id.org/oseg/ont/otrl#ODRL4</title>
<path fill="none" stroke="black" d="M622.04,-631.63C663.4,-630.24 718.35,-628.4 762.95,-626.9"/>
<polygon fill="black" stroke="black" points="763.29,-630.39 773.17,-626.56 763.06,-623.4 763.29,-630.39"/>
<text text-anchor="middle" x="692.5" y="-618.07" font-family="Times,serif" font-size="14.00">schema:supersededBy</text>
</g>
<!-- http://w3id.org/oseg/ont/otrl#ODRL4&#45;&gt;http://w3id.org/oseg/ont/otrl#ODRL -->
<g id="edge25" class="edge">
<title>http://w3id.org/oseg/ont/otrl#ODRL4&#45;&gt;http://w3id.org/oseg/ont/otrl#ODRL</title>
<path fill="none" stroke="black" d="M911.05,-622.61C958.84,-621.47 1022.26,-619.95 1070.81,-618.8"/>
<polygon fill="black" stroke="black" points="1071.02,-622.29 1080.94,-618.56 1070.86,-615.3 1071.02,-622.29"/>
<text text-anchor="middle" x="986.43" y="-624.5" font-family="Times,serif" font-size="14.00">a</text>
</g>
<!-- http://w3id.org/oseg/ont/otrl#OTRL5 -->
<g id="node25" class="node">
<title>http://w3id.org/oseg/ont/otrl#OTRL5</title>
<ellipse fill="none" stroke="#e377c2" cx="1979.07" cy="-730.83" rx="67.35" ry="16.03"/>
<text text-anchor="middle" x="1979.07" y="-727.13" font-family="Times,serif" font-size="14.00">otrl:OTRL5</text>
</g>
<!-- http://w3id.org/oseg/ont/otrl#OTRL5&#45;&gt;http://w3id.org/oseg/ont/otrl#OTRL -->
<g id="edge30" class="edge">
<title>http://w3id.org/oseg/ont/otrl#OTRL5&#45;&gt;http://w3id.org/oseg/ont/otrl#OTRL</title>
<path fill="none" stroke="black" d="M1954.99,-746.16C1912.02,-773.51 1822.14,-830.72 1773.86,-861.46"/>
<polygon fill="black" stroke="black" points="1771.91,-858.55 1765.35,-866.87 1775.66,-864.45 1771.91,-858.55"/>
<text text-anchor="middle" x="1859.92" y="-807.61" font-family="Times,serif" font-size="14.00">a</text>
</g>
<!-- http://w3id.org/oseg/ont/otrl#exitCriteria -->
<g id="node26" class="node">
<title>http://w3id.org/oseg/ont/otrl#exitCriteria</title>
<ellipse fill="none" stroke="#e377c2" cx="1464.98" cy="-713.8" rx="91.43" ry="16.03"/>
<text text-anchor="middle" x="1464.98" y="-710.1" font-family="Times,serif" font-size="14.00">otrl:exitCriteria</text>
</g>
<!-- http://w3id.org/oseg/ont/otrl#exitCriteria&#45;&gt;http://w3id.org/oseg/ont/otrl#ODRL -->
<g id="edge12" class="edge">
<title>http://w3id.org/oseg/ont/otrl#exitCriteria&#45;&gt;http://w3id.org/oseg/ont/otrl#ODRL</title>
<path fill="none" stroke="black" d="M1418.26,-699.74C1358.76,-681.82 1256.27,-650.95 1194.76,-632.43"/>
<polygon fill="black" stroke="black" points="1195.47,-628.99 1184.88,-629.45 1193.45,-635.69 1195.47,-628.99"/>
<text text-anchor="middle" x="1228.51" y="-669.88" font-family="Times,serif" font-size="14.00">dcam:domainIncludes</text>
</g>
<!-- http://w3id.org/oseg/ont/otrl#exitCriteria&#45;&gt;http://www.w3.org/2002/07/owl#DatatypeProperty -->
<g id="edge32" class="edge">
<title>http://w3id.org/oseg/ont/otrl#exitCriteria&#45;&gt;http://www.w3.org/2002/07/owl#DatatypeProperty</title>
<path fill="none" stroke="black" d="M1482.68,-697.66C1484.15,-696.32 1485.65,-694.96 1487.16,-693.58"/>
<polygon fill="black" stroke="black" points="1489.62,-696.07 1494.65,-686.75 1484.9,-690.9 1489.62,-696.07"/>
<text text-anchor="middle" x="1480.42" y="-684.42" font-family="Times,serif" font-size="14.00">a</text>
</g>
<!-- http://w3id.org/oseg/ont/otrl#exitCriteria&#45;&gt;http://w3id.org/oseg/ont/otrl#OTRL -->
<g id="edge2" class="edge">
<title>http://w3id.org/oseg/ont/otrl#exitCriteria&#45;&gt;http://w3id.org/oseg/ont/otrl#OTRL</title>
<path fill="none" stroke="black" d="M1491,-729.63C1541.44,-760.31 1652.46,-827.83 1708.22,-861.74"/>
<polygon fill="black" stroke="black" points="1706.64,-864.88 1717,-867.08 1710.28,-858.9 1706.64,-864.88"/>
<text text-anchor="middle" x="1521.61" y="-799.49" font-family="Times,serif" font-size="14.00">dcam:domainIncludes</text>
</g>
<!-- http://w3id.org/oseg/ont/otrl#exitCriteria&#45;&gt;http://www.w3.org/1999/02/22&#45;rdf&#45;syntax&#45;ns#langString -->
<g id="edge35" class="edge">
<title>http://w3id.org/oseg/ont/otrl#exitCriteria&#45;&gt;http://www.w3.org/1999/02/22&#45;rdf&#45;syntax&#45;ns#langString</title>
<path fill="none" stroke="black" d="M1457.88,-730.05C1439.93,-771.17 1392.55,-879.65 1370.7,-929.69"/>
<polygon fill="black" stroke="black" points="1367.36,-928.59 1366.57,-939.16 1373.78,-931.39 1367.36,-928.59"/>
<text text-anchor="middle" x="1393.29" y="-833.67" font-family="Times,serif" font-size="14.00">range</text>
</g>
<!-- http://w3id.org/oseg/ont/otrl#Odrl1 -->
<g id="node28" class="node">
<title>http://w3id.org/oseg/ont/otrl#Odrl1</title>
<ellipse fill="none" stroke="black" cx="593.27" cy="-246.79" rx="191.75" ry="16.03"/>
<text text-anchor="middle" x="593.27" y="-243.09" font-family="Times,serif" font-size="14.00">http://w3id.org/oseg/ont/otrl#Odrl1</text>
</g>
<!-- http://w3id.org/oseg/ont/otrl#Odrl1&#45;&gt;http://w3id.org/oseg/ont/otrl#ODRL1 -->
<g id="edge3" class="edge">
<title>http://w3id.org/oseg/ont/otrl#Odrl1&#45;&gt;http://w3id.org/oseg/ont/otrl#ODRL1</title>
<path fill="none" stroke="black" d="M616.31,-262.96C673.47,-303.09 821.82,-407.25 886.42,-452.61"/>
<polygon fill="black" stroke="black" points="884.77,-455.73 894.96,-458.61 888.79,-450 884.77,-455.73"/>
<text text-anchor="middle" x="671.36" y="-361.59" font-family="Times,serif" font-size="14.00">schema:supersededBy</text>
</g>
<!-- http://w3id.org/oseg/ont/otrl#Odrl2 -->
<g id="node29" class="node">
<title>http://w3id.org/oseg/ont/otrl#Odrl2</title>
<ellipse fill="none" stroke="black" cx="1275.06" cy="-338.95" rx="191.75" ry="16.03"/>
<text text-anchor="middle" x="1275.06" y="-335.25" font-family="Times,serif" font-size="14.00">http://w3id.org/oseg/ont/otrl#Odrl2</text>
</g>
<!-- http://w3id.org/oseg/ont/otrl#Odrl2&#45;&gt;http://w3id.org/oseg/ont/otrl#ODRL2 -->
<g id="edge9" class="edge">
<title>http://w3id.org/oseg/ont/otrl#Odrl2&#45;&gt;http://w3id.org/oseg/ont/otrl#ODRL2</title>
<path fill="none" stroke="black" d="M1261.05,-355.31C1259.72,-356.87 1258.35,-358.47 1256.97,-360.09"/>
<polygon fill="black" stroke="black" points="1253.97,-358.21 1250.12,-368.08 1259.29,-362.76 1253.97,-358.21"/>
<text text-anchor="middle" x="1339.01" y="-361.5" font-family="Times,serif" font-size="14.00">schema:supersededBy</text>
</g>
<!-- http://w3id.org/oseg/ont/otrl#Odrl3 -->
<g id="node30" class="node">
<title>http://w3id.org/oseg/ont/otrl#Odrl3</title>
<ellipse fill="none" stroke="black" cx="847.27" cy="-16.53" rx="191.75" ry="16.03"/>
<text text-anchor="middle" x="847.27" y="-12.83" font-family="Times,serif" font-size="14.00">http://w3id.org/oseg/ont/otrl#Odrl3</text>
</g>
<!-- http://w3id.org/oseg/ont/otrl#Odrl3&#45;&gt;http://w3id.org/oseg/ont/otrl#ODRL3 -->
<g id="edge13" class="edge">
<title>http://w3id.org/oseg/ont/otrl#Odrl3&#45;&gt;http://w3id.org/oseg/ont/otrl#ODRL3</title>
<path fill="none" stroke="black" d="M854.26,-33.04C878.65,-90.72 960.16,-283.47 989.71,-353.36"/>
<polygon fill="black" stroke="black" points="986.56,-354.9 993.68,-362.75 993.01,-352.18 986.56,-354.9"/>
<text text-anchor="middle" x="841.98" y="-197" font-family="Times,serif" font-size="14.00">schema:supersededBy</text>
</g>
<!-- http://w3id.org/oseg/ont/otrl#Otrl6 -->
<g id="node31" class="node">
<title>http://w3id.org/oseg/ont/otrl#Otrl6</title>
<ellipse fill="none" stroke="black" cx="1842.65" cy="-628.85" rx="189.51" ry="16.03"/>
<text text-anchor="middle" x="1842.65" y="-625.15" font-family="Times,serif" font-size="14.00">http://w3id.org/oseg/ont/otrl#Otrl6</text>
</g>
<!-- http://w3id.org/oseg/ont/otrl#Otrl6&#45;&gt;http://w3id.org/oseg/ont/otrl#OTRL6 -->
<g id="edge15" class="edge">
<title>http://w3id.org/oseg/ont/otrl#Otrl6&#45;&gt;http://w3id.org/oseg/ont/otrl#OTRL6</title>
<path fill="none" stroke="black" d="M1832.13,-645.17C1829.75,-648.86 1827.17,-652.86 1824.63,-656.8"/>
<polygon fill="black" stroke="black" points="1821.68,-654.91 1819.2,-665.21 1827.56,-658.7 1821.68,-654.91"/>
<text text-anchor="middle" x="1748.38" y="-654.79" font-family="Times,serif" font-size="14.00">schema:supersededBy</text>
</g>
<!-- http://w3id.org/oseg/ont/otrl#Otrl3 -->
<g id="node32" class="node">
<title>http://w3id.org/oseg/ont/otrl#Otrl3</title>
<ellipse fill="none" stroke="black" cx="2143.43" cy="-1425.23" rx="189.51" ry="16.03"/>
<text text-anchor="middle" x="2143.43" y="-1421.53" font-family="Times,serif" font-size="14.00">http://w3id.org/oseg/ont/otrl#Otrl3</text>
</g>
<!-- http://w3id.org/oseg/ont/otrl#Otrl3&#45;&gt;http://w3id.org/oseg/ont/otrl#OTRL3 -->
<g id="edge17" class="edge">
<title>http://w3id.org/oseg/ont/otrl#Otrl3&#45;&gt;http://w3id.org/oseg/ont/otrl#OTRL3</title>
<path fill="none" stroke="black" d="M2132.11,-1408.6C2096.39,-1356.17 1986,-1194.12 1943.76,-1132.1"/>
<polygon fill="black" stroke="black" points="1946.56,-1130 1938.04,-1123.71 1940.77,-1133.94 1946.56,-1130"/>
<text text-anchor="middle" x="1957.93" y="-1274.15" font-family="Times,serif" font-size="14.00">schema:supersededBy</text>
</g>
<!-- http://w3id.org/oseg/ont/otrl#Otrl4 -->
<g id="node33" class="node">
<title>http://w3id.org/oseg/ont/otrl#Otrl4</title>
<ellipse fill="none" stroke="black" cx="2403.91" cy="-825.89" rx="189.51" ry="16.03"/>
<text text-anchor="middle" x="2403.91" y="-822.19" font-family="Times,serif" font-size="14.00">http://w3id.org/oseg/ont/otrl#Otrl4</text>
</g>
<!-- http://w3id.org/oseg/ont/otrl#Otrl4&#45;&gt;http://w3id.org/oseg/ont/otrl#OTRL4 -->
<g id="edge20" class="edge">
<title>http://w3id.org/oseg/ont/otrl#Otrl4&#45;&gt;http://w3id.org/oseg/ont/otrl#OTRL4</title>
<path fill="none" stroke="black" d="M2278.16,-838.08C2217.39,-843.98 2146.61,-850.84 2094.92,-855.85"/>
<polygon fill="black" stroke="black" points="2094.46,-852.38 2084.85,-856.83 2095.14,-859.35 2094.46,-852.38"/>
<text text-anchor="middle" x="2106.54" y="-835.77" font-family="Times,serif" font-size="14.00">schema:supersededBy</text>
</g>
<!-- http://w3id.org/oseg/ont/otrl#Odrl -->
<g id="node34" class="node">
<title>http://w3id.org/oseg/ont/otrl#Odrl</title>
<ellipse fill="none" stroke="black" cx="816.07" cy="-804.54" rx="185.02" ry="16.03"/>
<text text-anchor="middle" x="816.07" y="-800.84" font-family="Times,serif" font-size="14.00">http://w3id.org/oseg/ont/otrl#Odrl</text>
</g>
<!-- http://w3id.org/oseg/ont/otrl#Odrl&#45;&gt;http://w3id.org/oseg/ont/otrl#ODRL -->
<g id="edge21" class="edge">
<title>http://w3id.org/oseg/ont/otrl#Odrl&#45;&gt;http://w3id.org/oseg/ont/otrl#ODRL</title>
<path fill="none" stroke="black" d="M844.29,-788.4C904.18,-754.12 1043.86,-674.2 1109.06,-636.9"/>
<polygon fill="black" stroke="black" points="1110.8,-639.93 1117.75,-631.92 1107.33,-633.85 1110.8,-639.93"/>
<text text-anchor="middle" x="896.67" y="-716.45" font-family="Times,serif" font-size="14.00">schema:supersededBy</text>
</g>
<!-- http://w3id.org/oseg/ont/otrl#Odrl5 -->
<g id="node35" class="node">
<title>http://w3id.org/oseg/ont/otrl#Odrl5</title>
<ellipse fill="none" stroke="black" cx="191.71" cy="-644.33" rx="191.75" ry="16.03"/>
<text text-anchor="middle" x="191.71" y="-640.63" font-family="Times,serif" font-size="14.00">http://w3id.org/oseg/ont/otrl#Odrl5</text>
</g>
<!-- http://w3id.org/oseg/ont/otrl#Odrl5&#45;&gt;http://w3id.org/oseg/ont/otrl#Odrl4 -->
<g id="edge24" class="edge">
<title>http://w3id.org/oseg/ont/otrl#Odrl5&#45;&gt;http://w3id.org/oseg/ont/otrl#Odrl4</title>
<path fill="none" stroke="black" d="M373.24,-639.1C414.49,-637.91 455.95,-636.71 489.34,-635.75"/>
<polygon fill="black" stroke="black" points="489.55,-639.25 499.44,-635.46 489.34,-632.25 489.55,-639.25"/>
<text text-anchor="middle" x="431.29" y="-626.22" font-family="Times,serif" font-size="14.00">schema:supersededBy</text>
</g>
<!-- http://w3id.org/oseg/ont/otrl#Otrl1 -->
<g id="node36" class="node">
<title>http://w3id.org/oseg/ont/otrl#Otrl1</title>
<ellipse fill="none" stroke="black" cx="1769.11" cy="-1152.92" rx="189.51" ry="16.03"/>
<text text-anchor="middle" x="1769.11" y="-1149.22" font-family="Times,serif" font-size="14.00">http://w3id.org/oseg/ont/otrl#Otrl1</text>
</g>
<!-- http://w3id.org/oseg/ont/otrl#Otrl1&#45;&gt;http://w3id.org/oseg/ont/otrl#OTRL1 -->
<g id="edge27" class="edge">
<title>http://w3id.org/oseg/ont/otrl#Otrl1&#45;&gt;http://w3id.org/oseg/ont/otrl#OTRL1</title>
<path fill="none" stroke="black" d="M1770.36,-1136.44C1770.41,-1135.83 1770.46,-1135.21 1770.5,-1134.59"/>
<polygon fill="black" stroke="black" points="1774.01,-1134.69 1771.27,-1124.46 1767.03,-1134.16 1774.01,-1134.69"/>
<text text-anchor="middle" x="1690.43" y="-1124.32" font-family="Times,serif" font-size="14.00">schema:supersededBy</text>
</g>
<!-- http://w3id.org/oseg/ont/otrl#Otrl -->
<g id="node37" class="node">
<title>http://w3id.org/oseg/ont/otrl#Otrl</title>
<ellipse fill="none" stroke="black" cx="1677.79" cy="-1267.09" rx="183.28" ry="16.03"/>
<text text-anchor="middle" x="1677.79" y="-1263.39" font-family="Times,serif" font-size="14.00">http://w3id.org/oseg/ont/otrl#Otrl</text>
</g>
<!-- http://w3id.org/oseg/ont/otrl#Otrl&#45;&gt;http://w3id.org/oseg/ont/otrl#OTRL -->
<g id="edge34" class="edge">
<title>http://w3id.org/oseg/ont/otrl#Otrl&#45;&gt;http://w3id.org/oseg/ont/otrl#OTRL</title>
<path fill="none" stroke="black" d="M1680.53,-1250.55C1690.51,-1190.31 1724.94,-982.4 1737.19,-908.41"/>
<polygon fill="black" stroke="black" points="1740.65,-908.94 1738.83,-898.5 1733.74,-907.8 1740.65,-908.94"/>
<text text-anchor="middle" x="1628.86" y="-1068.28" font-family="Times,serif" font-size="14.00">schema:supersededBy</text>
</g>
<!-- http://w3id.org/oseg/ont/otrl#Otrl2 -->
<g id="node38" class="node">
<title>http://w3id.org/oseg/ont/otrl#Otrl2</title>
<ellipse fill="none" stroke="black" cx="2350.99" cy="-1154.08" rx="189.51" ry="16.03"/>
<text text-anchor="middle" x="2350.99" y="-1150.38" font-family="Times,serif" font-size="14.00">http://w3id.org/oseg/ont/otrl#Otrl2</text>
</g>
<!-- http://w3id.org/oseg/ont/otrl#Otrl2&#45;&gt;http://w3id.org/oseg/ont/otrl#OTRL2 -->
<g id="edge37" class="edge">
<title>http://w3id.org/oseg/ont/otrl#Otrl2&#45;&gt;http://w3id.org/oseg/ont/otrl#OTRL2</title>
<path fill="none" stroke="black" d="M2315.5,-1138.06C2250.28,-1108.6 2111.66,-1046.01 2042.32,-1014.7"/>
<polygon fill="black" stroke="black" points="2043.56,-1011.42 2033.01,-1010.49 2040.68,-1017.8 2043.56,-1011.42"/>
<text text-anchor="middle" x="2098.91" y="-1080.18" font-family="Times,serif" font-size="14.00">schema:supersededBy</text>
</g>
<!-- http://w3id.org/oseg/ont/otrl#Otrl5 -->
<g id="node39" class="node">
<title>http://w3id.org/oseg/ont/otrl#Otrl5</title>
<ellipse fill="none" stroke="black" cx="2284.86" cy="-501.44" rx="189.51" ry="16.03"/>
<text text-anchor="middle" x="2284.86" y="-497.74" font-family="Times,serif" font-size="14.00">http://w3id.org/oseg/ont/otrl#Otrl5</text>
</g>
<!-- http://w3id.org/oseg/ont/otrl#Otrl5&#45;&gt;http://w3id.org/oseg/ont/otrl#OTRL5 -->
<g id="edge40" class="edge">
<title>http://w3id.org/oseg/ont/otrl#Otrl5&#45;&gt;http://w3id.org/oseg/ont/otrl#OTRL5</title>
<path fill="none" stroke="black" d="M2262.86,-517.94C2208.72,-558.56 2068.95,-663.41 2008.09,-709.05"/>
<polygon fill="black" stroke="black" points="2005.95,-706.29 2000.05,-715.09 2010.15,-711.89 2005.95,-706.29"/>
<text text-anchor="middle" x="2215.48" y="-617.3" font-family="Times,serif" font-size="14.00">schema:supersededBy</text>
</g>
<!-- http://w3id.org/oseg/ont/otrl#Odrl3Star -->
<g id="node40" class="node">
<title>http://w3id.org/oseg/ont/otrl#Odrl3Star</title>
<ellipse fill="none" stroke="black" cx="1041.7" cy="-898.64" rx="213.59" ry="16.03"/>
<text text-anchor="middle" x="1041.7" y="-894.94" font-family="Times,serif" font-size="14.00">http://w3id.org/oseg/ont/otrl#Odrl3Star</text>
</g>
<!-- http://w3id.org/oseg/ont/otrl#Odrl3Star&#45;&gt;http://w3id.org/oseg/ont/otrl#ODRL3Star -->
<g id="edge42" class="edge">
<title>http://w3id.org/oseg/ont/otrl#Odrl3Star&#45;&gt;http://w3id.org/oseg/ont/otrl#ODRL3Star</title>
<path fill="none" stroke="black" d="M1051.89,-882.24C1053.27,-880.03 1054.7,-877.72 1056.14,-875.4"/>
<polygon fill="black" stroke="black" points="1059.32,-876.92 1061.62,-866.58 1053.37,-873.22 1059.32,-876.92"/>
<text text-anchor="middle" x="974.02" y="-867.62" font-family="Times,serif" font-size="14.00">schema:supersededBy</text>
</g>
</g>
</svg>
