<?xml version="1.0" encoding="UTF-8" standalone="no"?>
<!DOCTYPE svg PUBLIC "-//W3C//DTD SVG 1.1//EN"
 "http://www.w3.org/Graphics/SVG/1.1/DTD/svg11.dtd">
<!-- Generated by graphviz version 2.43.0 (0)
 -->
<!-- Title: G Pages: 1 -->
<svg width="1443pt" height="2385pt"
 viewBox="0.00 0.00 1443.00 2385.00" xmlns="http://www.w3.org/2000/svg" xmlns:xlink="http://www.w3.org/1999/xlink">
<g id="graph0" class="graph" transform="scale(1 1) rotate(0) translate(4 2381)">
<title>G</title>
<polygon fill="white" stroke="transparent" points="-4,4 -4,-2381 1439,-2381 1439,4 -4,4"/>
<!-- http://w3id.org/oseg/ont/ods#Dataset -->
<g id="node1" class="node">
<title>http://w3id.org/oseg/ont/ods#Dataset</title>
<ellipse fill="none" stroke="#1f77b4" cx="515.51" cy="-2309.4" rx="71.34" ry="16.03"/>
<text text-anchor="middle" x="515.51" y="-2305.7" font-family="Times,serif" font-size="14.00">ods:Dataset</text>
</g>
<!-- http://schema.org/DefinedTerm -->
<g id="node2" class="node">
<title>http://schema.org/DefinedTerm</title>
<ellipse fill="none" stroke="#1f77b4" cx="814.17" cy="-492.63" rx="118.17" ry="16.03"/>
<text text-anchor="middle" x="814.17" y="-488.93" font-family="Times,serif" font-size="14.00">schema:DefinedTerm</text>
</g>
<!-- http://spdx.org/rdf/terms#SpdxItem -->
<g id="node3" class="node">
<title>http://spdx.org/rdf/terms#SpdxItem</title>
<ellipse fill="none" stroke="#1f77b4" cx="722.42" cy="-2234.73" rx="87.86" ry="16.03"/>
<text text-anchor="middle" x="722.42" y="-2231.03" font-family="Times,serif" font-size="14.00">spdx:SpdxItem</text>
</g>
<!-- http://schema.org/DefinedTermSet -->
<g id="node4" class="node">
<title>http://schema.org/DefinedTermSet</title>
<ellipse fill="none" stroke="#1f77b4" cx="783.19" cy="-1818.71" rx="116.85" ry="16.03"/>
<text text-anchor="middle" x="783.19" y="-1815.01" font-family="Times,serif" font-size="14.00">schema:DefinedTer...</text>
</g>
<!-- http://w3id.org/oseg/ont/okhimg#tagDiagram -->
<g id="node5" class="node">
<title>http://w3id.org/oseg/ont/okhimg#tagDiagram</title>
<ellipse fill="none" stroke="#e377c2" cx="698.41" cy="-161.71" rx="111.95" ry="16.03"/>
<text text-anchor="middle" x="698.41" y="-158.01" font-family="Times,serif" font-size="14.00">okhimg:tagDiagram</text>
</g>
<!-- http://w3id.org/oseg/ont/okhimg#tagDiagram&#45;&gt;http://schema.org/DefinedTerm -->
<g id="edge1" class="edge">
<title>http://w3id.org/oseg/ont/okhimg#tagDiagram&#45;&gt;http://schema.org/DefinedTerm</title>
<path fill="none" stroke="black" d="M704.15,-178.12C722.86,-231.6 782.17,-401.15 805.05,-466.55"/>
<polygon fill="black" stroke="black" points="801.79,-467.84 808.39,-476.12 808.39,-465.52 801.79,-467.84"/>
<text text-anchor="middle" x="750.1" y="-326.13" font-family="Times,serif" font-size="14.00">a</text>
</g>
<!-- http://w3id.org/oseg/ont/okhimg#slotOrganizationLogoBw -->
<g id="node6" class="node">
<title>http://w3id.org/oseg/ont/okhimg#slotOrganizationLogoBw</title>
<ellipse fill="none" stroke="#e377c2" cx="774.91" cy="-556.75" rx="114.6" ry="16.03"/>
<text text-anchor="middle" x="774.91" y="-553.05" font-family="Times,serif" font-size="14.00">okhimg:slotOrgani...</text>
</g>
<!-- http://w3id.org/oseg/ont/okhimg#slotOrganizationLogoBw&#45;&gt;http://schema.org/DefinedTerm -->
<g id="edge39" class="edge">
<title>http://w3id.org/oseg/ont/okhimg#slotOrganizationLogoBw&#45;&gt;http://schema.org/DefinedTerm</title>
<path fill="none" stroke="black" d="M785.02,-540.24C789.26,-533.3 794.29,-525.09 798.97,-517.45"/>
<polygon fill="black" stroke="black" points="801.99,-519.22 804.23,-508.86 796.02,-515.56 801.99,-519.22"/>
<text text-anchor="middle" x="787.49" y="-517.64" font-family="Times,serif" font-size="14.00">a</text>
</g>
<!-- http://w3id.org/oseg/ont/okhimg#slotOrganizationLogo -->
<g id="node7" class="node">
<title>http://w3id.org/oseg/ont/okhimg#slotOrganizationLogo</title>
<ellipse fill="none" stroke="#e377c2" cx="627.47" cy="-820.04" rx="114.6" ry="16.03"/>
<text text-anchor="middle" x="627.47" y="-816.34" font-family="Times,serif" font-size="14.00">okhimg:slotOrgani...</text>
</g>
<!-- http://w3id.org/oseg/ont/okhimg#slotOrganizationLogoBw&#45;&gt;http://w3id.org/oseg/ont/okhimg#slotOrganizationLogo -->
<g id="edge3" class="edge">
<title>http://w3id.org/oseg/ont/okhimg#slotOrganizationLogoBw&#45;&gt;http://w3id.org/oseg/ont/okhimg#slotOrganizationLogo</title>
<path fill="none" stroke="black" d="M761.61,-573.07C732.14,-617.49 663.09,-740.51 637.2,-794.33"/>
<polygon fill="black" stroke="black" points="633.96,-793 632.89,-803.54 640.3,-795.96 633.96,-793"/>
<text text-anchor="middle" x="671.91" y="-687.5" font-family="Times,serif" font-size="14.00">seeAlso</text>
</g>
<!-- http://w3id.org/oseg/ont/okhimg#slotOrganizationLogo&#45;&gt;http://schema.org/DefinedTerm -->
<g id="edge16" class="edge">
<title>http://w3id.org/oseg/ont/okhimg#slotOrganizationLogo&#45;&gt;http://schema.org/DefinedTerm</title>
<path fill="none" stroke="black" d="M636.73,-803.8C666.97,-750.78 762.95,-582.44 799.68,-518.03"/>
<polygon fill="black" stroke="black" points="802.94,-519.38 804.85,-508.96 796.86,-515.92 802.94,-519.38"/>
<text text-anchor="middle" x="713.71" y="-664.72" font-family="Times,serif" font-size="14.00">a</text>
</g>
<!-- http://w3id.org/oseg/ont/okhimg#slotOrganizationLogo&#45;&gt;http://w3id.org/oseg/ont/okhimg#slotOrganizationLogoBw -->
<g id="edge2" class="edge">
<title>http://w3id.org/oseg/ont/okhimg#slotOrganizationLogo&#45;&gt;http://w3id.org/oseg/ont/okhimg#slotOrganizationLogoBw</title>
<path fill="none" stroke="black" d="M640.78,-803.72C670.24,-759.3 739.29,-636.28 765.18,-582.46"/>
<polygon fill="black" stroke="black" points="768.42,-583.79 769.49,-573.25 762.08,-580.83 768.42,-583.79"/>
<text text-anchor="middle" x="730.48" y="-696.89" font-family="Times,serif" font-size="14.00">seeAlso</text>
</g>
<!-- http://w3id.org/oseg/ont/okhimg#slotModelMain -->
<g id="node8" class="node">
<title>http://w3id.org/oseg/ont/okhimg#slotModelMain</title>
<ellipse fill="none" stroke="#e377c2" cx="908.88" cy="-443.26" rx="127.06" ry="16.03"/>
<text text-anchor="middle" x="908.88" y="-439.56" font-family="Times,serif" font-size="14.00">okhimg:slotModelMain</text>
</g>
<!-- http://w3id.org/oseg/ont/okhimg#slotModelMain&#45;&gt;http://schema.org/DefinedTerm -->
<g id="edge4" class="edge">
<title>http://w3id.org/oseg/ont/okhimg#slotModelMain&#45;&gt;http://schema.org/DefinedTerm</title>
<path fill="none" stroke="black" d="M878.39,-459.15C870.53,-463.25 861.96,-467.71 853.71,-472.01"/>
<polygon fill="black" stroke="black" points="851.85,-469.04 844.6,-476.76 855.08,-475.25 851.85,-469.04"/>
<text text-anchor="middle" x="861.55" y="-469.38" font-family="Times,serif" font-size="14.00">a</text>
</g>
<!-- http://w3id.org/oseg/ont/okhimg#slotIconMain -->
<g id="node9" class="node">
<title>http://w3id.org/oseg/ont/okhimg#slotIconMain</title>
<ellipse fill="none" stroke="#e377c2" cx="779.77" cy="-1111.66" rx="117.26" ry="16.03"/>
<text text-anchor="middle" x="779.77" y="-1107.96" font-family="Times,serif" font-size="14.00">okhimg:slotIconMain</text>
</g>
<!-- http://w3id.org/oseg/ont/okhimg#slotIconMain&#45;&gt;http://schema.org/DefinedTerm -->
<g id="edge45" class="edge">
<title>http://w3id.org/oseg/ont/okhimg#slotIconMain&#45;&gt;http://schema.org/DefinedTerm</title>
<path fill="none" stroke="black" d="M780.69,-1095.11C785.41,-1010.24 806.87,-623.95 812.7,-519.01"/>
<polygon fill="black" stroke="black" points="816.2,-519.13 813.26,-508.95 809.21,-518.74 816.2,-519.13"/>
<text text-anchor="middle" x="792.2" y="-810.86" font-family="Times,serif" font-size="14.00">a</text>
</g>
<!-- http://w3id.org/oseg/ont/okhimg#slotIconMainBw -->
<g id="node30" class="node">
<title>http://w3id.org/oseg/ont/okhimg#slotIconMainBw</title>
<ellipse fill="none" stroke="#e377c2" cx="920.59" cy="-907.07" rx="117.26" ry="16.03"/>
<text text-anchor="middle" x="920.59" y="-903.37" font-family="Times,serif" font-size="14.00">okhimg:slotIconMa...</text>
</g>
<!-- http://w3id.org/oseg/ont/okhimg#slotIconMain&#45;&gt;http://w3id.org/oseg/ont/okhimg#slotIconMainBw -->
<g id="edge49" class="edge">
<title>http://w3id.org/oseg/ont/okhimg#slotIconMain&#45;&gt;http://w3id.org/oseg/ont/okhimg#slotIconMainBw</title>
<path fill="none" stroke="black" d="M795.88,-1095.46C824.57,-1059.84 883.22,-974.83 908.66,-932.22"/>
<polygon fill="black" stroke="black" points="911.69,-933.97 913.69,-923.56 905.64,-930.45 911.69,-933.97"/>
<text text-anchor="middle" x="824.77" y="-1017.64" font-family="Times,serif" font-size="14.00">seeAlso</text>
</g>
<!-- http://w3id.org/oseg/ont/okhimg#slotPhotoThingMain -->
<g id="node10" class="node">
<title>http://w3id.org/oseg/ont/okhimg#slotPhotoThingMain</title>
<ellipse fill="none" stroke="#e377c2" cx="1264.03" cy="-303.14" rx="114.6" ry="16.03"/>
<text text-anchor="middle" x="1264.03" y="-299.44" font-family="Times,serif" font-size="14.00">okhimg:slotPhotoT...</text>
</g>
<!-- http://w3id.org/oseg/ont/okhimg#slotPhotoThingMain&#45;&gt;http://schema.org/DefinedTerm -->
<g id="edge6" class="edge">
<title>http://w3id.org/oseg/ont/okhimg#slotPhotoThingMain&#45;&gt;http://schema.org/DefinedTerm</title>
<path fill="none" stroke="black" d="M1227.21,-318.64C1145.72,-352.97 950.22,-435.32 860.54,-473.09"/>
<polygon fill="black" stroke="black" points="859.03,-469.93 851.17,-477.04 861.75,-476.38 859.03,-469.93"/>
<text text-anchor="middle" x="1039.38" y="-399.67" font-family="Times,serif" font-size="14.00">a</text>
</g>
<!-- http://w3id.org/oseg/ont/okhimg#tagArt -->
<g id="node11" class="node">
<title>http://w3id.org/oseg/ont/okhimg#tagArt</title>
<ellipse fill="none" stroke="#e377c2" cx="643.9" cy="-1064.07" rx="84.29" ry="16.03"/>
<text text-anchor="middle" x="643.9" y="-1060.37" font-family="Times,serif" font-size="14.00">okhimg:tagArt</text>
</g>
<!-- http://w3id.org/oseg/ont/okhimg#tagArt&#45;&gt;http://schema.org/DefinedTerm -->
<g id="edge7" class="edge">
<title>http://w3id.org/oseg/ont/okhimg#tagArt&#45;&gt;http://schema.org/DefinedTerm</title>
<path fill="none" stroke="black" d="M648.81,-1047.58C672.72,-967.33 776.97,-617.45 806.4,-518.68"/>
<polygon fill="black" stroke="black" points="809.81,-519.49 809.32,-508.91 803.11,-517.49 809.81,-519.49"/>
<text text-anchor="middle" x="723.11" y="-786.93" font-family="Times,serif" font-size="14.00">a</text>
</g>
<!-- http://w3id.org/oseg/ont/okhimg#tags -->
<g id="node12" class="node">
<title>http://w3id.org/oseg/ont/okhimg#tags</title>
<ellipse fill="none" stroke="#e377c2" cx="561.86" cy="-1554.24" rx="73.58" ry="16.03"/>
<text text-anchor="middle" x="561.86" y="-1550.54" font-family="Times,serif" font-size="14.00">okhimg:tags</text>
</g>
<!-- http://w3id.org/oseg/ont/okhimg#tags&#45;&gt;http://schema.org/DefinedTermSet -->
<g id="edge8" class="edge">
<title>http://w3id.org/oseg/ont/okhimg#tags&#45;&gt;http://schema.org/DefinedTermSet</title>
<path fill="none" stroke="black" d="M575.37,-1570.39C612.88,-1615.2 718.44,-1741.34 762.97,-1794.55"/>
<polygon fill="black" stroke="black" points="760.47,-1797.01 769.57,-1802.44 765.84,-1792.52 760.47,-1797.01"/>
<text text-anchor="middle" x="664.67" y="-1686.27" font-family="Times,serif" font-size="14.00">a</text>
</g>
<!-- http://w3id.org/oseg/ont/okhimg#tags&#45;&gt;http://w3id.org/oseg/ont/okhimg#tagArt -->
<g id="edge27" class="edge">
<title>http://w3id.org/oseg/ont/okhimg#tags&#45;&gt;http://w3id.org/oseg/ont/okhimg#tagArt</title>
<path fill="none" stroke="black" d="M564.59,-1537.93C576.57,-1466.33 624.59,-1179.46 639.48,-1090.5"/>
<polygon fill="black" stroke="black" points="642.96,-1090.88 641.16,-1080.44 636.06,-1089.72 642.96,-1090.88"/>
<text text-anchor="middle" x="514.53" y="-1318.02" font-family="Times,serif" font-size="14.00">schema:hasDefinedTerm</text>
</g>
<!-- http://w3id.org/oseg/ont/okhimg#slotModelFromLeft -->
<g id="node13" class="node">
<title>http://w3id.org/oseg/ont/okhimg#slotModelFromLeft</title>
<ellipse fill="none" stroke="#e377c2" cx="344.83" cy="-545.05" rx="116.85" ry="16.03"/>
<text text-anchor="middle" x="344.83" y="-541.35" font-family="Times,serif" font-size="14.00">okhimg:slotModelF...</text>
</g>
<!-- http://w3id.org/oseg/ont/okhimg#slotModelFromLeft&#45;&gt;http://schema.org/DefinedTerm -->
<g id="edge9" class="edge">
<title>http://w3id.org/oseg/ont/okhimg#slotModelFromLeft&#45;&gt;http://schema.org/DefinedTerm</title>
<path fill="none" stroke="black" d="M436.16,-534.85C515.39,-526 629.95,-513.2 712.17,-504.02"/>
<polygon fill="black" stroke="black" points="712.73,-507.48 722.28,-502.89 711.95,-500.52 712.73,-507.48"/>
<text text-anchor="middle" x="569.66" y="-523.23" font-family="Times,serif" font-size="14.00">a</text>
</g>
<!-- http://id.loc.gov/vocabulary/iso639&#45;1/en -->
<g id="node14" class="node">
<title>http://id.loc.gov/vocabulary/iso639&#45;1/en</title>
<ellipse fill="none" stroke="#e377c2" cx="580.51" cy="-2203.74" rx="45.01" ry="16.03"/>
<text text-anchor="middle" x="580.51" y="-2200.04" font-family="Times,serif" font-size="14.00">ns1:en</text>
</g>
<!-- http://w3id.org/oseg/ont/okhimg#slotModelFromAbove -->
<g id="node15" class="node">
<title>http://w3id.org/oseg/ont/okhimg#slotModelFromAbove</title>
<ellipse fill="none" stroke="#e377c2" cx="1247.08" cy="-189.78" rx="116.85" ry="16.03"/>
<text text-anchor="middle" x="1247.08" y="-186.08" font-family="Times,serif" font-size="14.00">okhimg:slotModelF...</text>
</g>
<!-- http://w3id.org/oseg/ont/okhimg#slotModelFromAbove&#45;&gt;http://schema.org/DefinedTerm -->
<g id="edge11" class="edge">
<title>http://w3id.org/oseg/ont/okhimg#slotModelFromAbove&#45;&gt;http://schema.org/DefinedTerm</title>
<path fill="none" stroke="black" d="M1224.11,-205.85C1151.69,-256.52 928.01,-412.99 845.32,-470.84"/>
<polygon fill="black" stroke="black" points="843.27,-468 837.08,-476.6 847.28,-473.73 843.27,-468"/>
<text text-anchor="middle" x="1030.22" y="-342.14" font-family="Times,serif" font-size="14.00">a</text>
</g>
<!-- http://w3id.org/oseg/ont/okhimg#slots -->
<g id="node16" class="node">
<title>http://w3id.org/oseg/ont/okhimg#slots</title>
<ellipse fill="none" stroke="#e377c2" cx="648.86" cy="-1602.14" rx="75.82" ry="16.03"/>
<text text-anchor="middle" x="648.86" y="-1598.44" font-family="Times,serif" font-size="14.00">okhimg:slots</text>
</g>
<!-- http://w3id.org/oseg/ont/okhimg#slots&#45;&gt;http://schema.org/DefinedTermSet -->
<g id="edge12" class="edge">
<title>http://w3id.org/oseg/ont/okhimg#slots&#45;&gt;http://schema.org/DefinedTermSet</title>
<path fill="none" stroke="black" d="M658.95,-1618.41C682.24,-1655.96 739.85,-1748.85 767.67,-1793.69"/>
<polygon fill="black" stroke="black" points="764.73,-1795.59 772.97,-1802.24 770.68,-1791.9 764.73,-1795.59"/>
<text text-anchor="middle" x="708.81" y="-1709.85" font-family="Times,serif" font-size="14.00">a</text>
</g>
<!-- http://w3id.org/oseg/ont/okhimg#slots&#45;&gt;http://w3id.org/oseg/ont/okhimg#slotIconMain -->
<g id="edge5" class="edge">
<title>http://w3id.org/oseg/ont/okhimg#slots&#45;&gt;http://w3id.org/oseg/ont/okhimg#slotIconMain</title>
<path fill="none" stroke="black" d="M653.21,-1585.82C672.36,-1514.1 749.11,-1226.54 772.78,-1137.85"/>
<polygon fill="black" stroke="black" points="776.2,-1138.61 775.4,-1128.04 769.44,-1136.8 776.2,-1138.61"/>
<text text-anchor="middle" x="625.5" y="-1365.63" font-family="Times,serif" font-size="14.00">schema:hasDefinedTerm</text>
</g>
<!-- http://w3id.org/oseg/ont/okhimg#tagScreenshot -->
<g id="node17" class="node">
<title>http://w3id.org/oseg/ont/okhimg#tagScreenshot</title>
<ellipse fill="none" stroke="#e377c2" cx="1309.98" cy="-610.9" rx="125.32" ry="16.03"/>
<text text-anchor="middle" x="1309.98" y="-607.2" font-family="Times,serif" font-size="14.00">okhimg:tagScreenshot</text>
</g>
<!-- http://w3id.org/oseg/ont/okhimg#tagScreenshot&#45;&gt;http://schema.org/DefinedTerm -->
<g id="edge13" class="edge">
<title>http://w3id.org/oseg/ont/okhimg#tagScreenshot&#45;&gt;http://schema.org/DefinedTerm</title>
<path fill="none" stroke="black" d="M1249.68,-596.52C1157.11,-574.44 980.5,-532.31 883.03,-509.06"/>
<polygon fill="black" stroke="black" points="883.82,-505.65 873.28,-506.73 882.19,-512.45 883.82,-505.65"/>
<text text-anchor="middle" x="1061.86" y="-556.59" font-family="Times,serif" font-size="14.00">a</text>
</g>
<!-- http://w3id.org/oseg/ont/okhimg#slotModel3D -->
<g id="node18" class="node">
<title>http://w3id.org/oseg/ont/okhimg#slotModel3D</title>
<ellipse fill="none" stroke="#e377c2" cx="1307.45" cy="-495.93" rx="115.93" ry="16.03"/>
<text text-anchor="middle" x="1307.45" y="-492.23" font-family="Times,serif" font-size="14.00">okhimg:slotModel3D</text>
</g>
<!-- http://w3id.org/oseg/ont/okhimg#slotModel3D&#45;&gt;http://schema.org/DefinedTerm -->
<g id="edge14" class="edge">
<title>http://w3id.org/oseg/ont/okhimg#slotModel3D&#45;&gt;http://schema.org/DefinedTerm</title>
<path fill="none" stroke="black" d="M1191.49,-495.15C1116.8,-494.65 1019.65,-494 942.62,-493.49"/>
<polygon fill="black" stroke="black" points="942.4,-489.99 932.38,-493.42 942.35,-496.99 942.4,-489.99"/>
<text text-anchor="middle" x="1062.56" y="-498.12" font-family="Times,serif" font-size="14.00">a</text>
</g>
<!-- http://w3id.org/oseg/ont/oseg&#45;profiles#robinVobruba -->
<g id="node19" class="node">
<title>http://w3id.org/oseg/ont/oseg&#45;profiles#robinVobruba</title>
<ellipse fill="none" stroke="#e377c2" cx="369.52" cy="-2361.06" rx="113.69" ry="16.03"/>
<text text-anchor="middle" x="369.52" y="-2357.36" font-family="Times,serif" font-size="14.00">osegprof:robinVob...</text>
</g>
<!-- http://w3id.org/oseg/ont/okhimg#tagBw -->
<g id="node20" class="node">
<title>http://w3id.org/oseg/ont/okhimg#tagBw</title>
<ellipse fill="none" stroke="#e377c2" cx="490.59" cy="-366.07" rx="84.29" ry="16.03"/>
<text text-anchor="middle" x="490.59" y="-362.37" font-family="Times,serif" font-size="14.00">okhimg:tagBw</text>
</g>
<!-- http://w3id.org/oseg/ont/okhimg#tagBw&#45;&gt;http://schema.org/DefinedTerm -->
<g id="edge17" class="edge">
<title>http://w3id.org/oseg/ont/okhimg#tagBw&#45;&gt;http://schema.org/DefinedTerm</title>
<path fill="none" stroke="black" d="M528.02,-380.71C586.65,-403.64 700.13,-448.03 765.18,-473.47"/>
<polygon fill="black" stroke="black" points="764.22,-476.85 774.8,-477.23 766.77,-470.33 764.22,-476.85"/>
<text text-anchor="middle" x="642.1" y="-430.89" font-family="Times,serif" font-size="14.00">a</text>
</g>
<!-- http://w3id.org/oseg/ont/0.1.0/okhimg -->
<g id="node21" class="node">
<title>http://w3id.org/oseg/ont/0.1.0/okhimg</title>
<ellipse fill="none" stroke="#e377c2" cx="314.17" cy="-2233.68" rx="70.01" ry="16.03"/>
<text text-anchor="middle" x="314.17" y="-2229.98" font-family="Times,serif" font-size="14.00">ns2:okhimg</text>
</g>
<!-- http://w3id.org/oseg/ont/okhimg#slotPhotoPackaging -->
<g id="node22" class="node">
<title>http://w3id.org/oseg/ont/okhimg#slotPhotoPackaging</title>
<ellipse fill="none" stroke="#e377c2" cx="1084.17" cy="-241.71" rx="113.69" ry="16.03"/>
<text text-anchor="middle" x="1084.17" y="-238.01" font-family="Times,serif" font-size="14.00">okhimg:slotPhotoP...</text>
</g>
<!-- http://w3id.org/oseg/ont/okhimg#slotPhotoPackaging&#45;&gt;http://schema.org/DefinedTerm -->
<g id="edge20" class="edge">
<title>http://w3id.org/oseg/ont/okhimg#slotPhotoPackaging&#45;&gt;http://schema.org/DefinedTerm</title>
<path fill="none" stroke="black" d="M1066.87,-257.79C1020.49,-300.88 893.28,-419.11 839.12,-469.44"/>
<polygon fill="black" stroke="black" points="836.61,-466.99 831.67,-476.36 841.38,-472.12 836.61,-466.99"/>
<text text-anchor="middle" x="948.49" y="-367.42" font-family="Times,serif" font-size="14.00">a</text>
</g>
<!-- http://w3id.org/oseg/ont/okhimg#slotLogo -->
<g id="node23" class="node">
<title>http://w3id.org/oseg/ont/okhimg#slotLogo</title>
<ellipse fill="none" stroke="#e377c2" cx="537.12" cy="-116.84" rx="94.51" ry="16.03"/>
<text text-anchor="middle" x="537.12" y="-113.14" font-family="Times,serif" font-size="14.00">okhimg:slotLogo</text>
</g>
<!-- http://w3id.org/oseg/ont/okhimg#slotLogo&#45;&gt;http://schema.org/DefinedTerm -->
<g id="edge22" class="edge">
<title>http://w3id.org/oseg/ont/okhimg#slotLogo&#45;&gt;http://schema.org/DefinedTerm</title>
<path fill="none" stroke="black" d="M549.03,-132.98C592.53,-191.99 743.1,-396.23 795.79,-467.7"/>
<polygon fill="black" stroke="black" points="793.24,-470.15 801.99,-476.12 798.88,-465.99 793.24,-470.15"/>
<text text-anchor="middle" x="667.91" y="-304.14" font-family="Times,serif" font-size="14.00">a</text>
</g>
<!-- http://w3id.org/oseg/ont/okhimg#slotLogoBw -->
<g id="node35" class="node">
<title>http://w3id.org/oseg/ont/okhimg#slotLogoBw</title>
<ellipse fill="none" stroke="#e377c2" cx="732.7" cy="-59.74" rx="111.03" ry="16.03"/>
<text text-anchor="middle" x="732.7" y="-56.04" font-family="Times,serif" font-size="14.00">okhimg:slotLogoBw</text>
</g>
<!-- http://w3id.org/oseg/ont/okhimg#slotLogo&#45;&gt;http://w3id.org/oseg/ont/okhimg#slotLogoBw -->
<g id="edge38" class="edge">
<title>http://w3id.org/oseg/ont/okhimg#slotLogo&#45;&gt;http://w3id.org/oseg/ont/okhimg#slotLogoBw</title>
<path fill="none" stroke="black" d="M601.05,-104.77C629.91,-97.07 663.25,-87.15 689.17,-78.48"/>
<polygon fill="black" stroke="black" points="690.38,-81.77 698.71,-75.23 688.12,-75.14 690.38,-81.77"/>
<text text-anchor="middle" x="672.61" y="-95.43" font-family="Times,serif" font-size="14.00">seeAlso</text>
</g>
<!-- http://w3id.org/oseg/ont/okhimg#tagDrawing -->
<g id="node24" class="node">
<title>http://w3id.org/oseg/ont/okhimg#tagDrawing</title>
<ellipse fill="none" stroke="#e377c2" cx="1251.76" cy="-409.04" rx="111.95" ry="16.03"/>
<text text-anchor="middle" x="1251.76" y="-405.34" font-family="Times,serif" font-size="14.00">okhimg:tagDrawing</text>
</g>
<!-- http://w3id.org/oseg/ont/okhimg#tagDrawing&#45;&gt;http://schema.org/DefinedTerm -->
<g id="edge21" class="edge">
<title>http://w3id.org/oseg/ont/okhimg#tagDrawing&#45;&gt;http://schema.org/DefinedTerm</title>
<path fill="none" stroke="black" d="M1183.87,-422.01C1105.32,-437.01 976.18,-461.68 893.19,-477.53"/>
<polygon fill="black" stroke="black" points="892.47,-474.11 883.3,-479.42 893.78,-480.98 892.47,-474.11"/>
<text text-anchor="middle" x="1043.03" y="-453.57" font-family="Times,serif" font-size="14.00">a</text>
</g>
<!-- http://w3id.org/oseg/ont/okhimg#slotSymbol -->
<g id="node25" class="node">
<title>http://w3id.org/oseg/ont/okhimg#slotSymbol</title>
<ellipse fill="none" stroke="#e377c2" cx="399.98" cy="-277.69" rx="108.38" ry="16.03"/>
<text text-anchor="middle" x="399.98" y="-273.99" font-family="Times,serif" font-size="14.00">okhimg:slotSymbol</text>
</g>
<!-- http://w3id.org/oseg/ont/okhimg#slotSymbol&#45;&gt;http://schema.org/DefinedTerm -->
<g id="edge23" class="edge">
<title>http://w3id.org/oseg/ont/okhimg#slotSymbol&#45;&gt;http://schema.org/DefinedTerm</title>
<path fill="none" stroke="black" d="M430.1,-293.32C503.59,-331.46 692.09,-429.28 774.55,-472.07"/>
<polygon fill="black" stroke="black" points="773.11,-475.27 783.6,-476.77 776.33,-469.05 773.11,-475.27"/>
<text text-anchor="middle" x="597.83" y="-386.5" font-family="Times,serif" font-size="14.00">a</text>
</g>
<!-- http://w3id.org/oseg/ont/okhimg#tagPhoto -->
<g id="node26" class="node">
<title>http://w3id.org/oseg/ont/okhimg#tagPhoto</title>
<ellipse fill="none" stroke="#e377c2" cx="443.58" cy="-630.76" rx="97.66" ry="16.03"/>
<text text-anchor="middle" x="443.58" y="-627.06" font-family="Times,serif" font-size="14.00">okhimg:tagPhoto</text>
</g>
<!-- http://w3id.org/oseg/ont/okhimg#tagPhoto&#45;&gt;http://schema.org/DefinedTerm -->
<g id="edge24" class="edge">
<title>http://w3id.org/oseg/ont/okhimg#tagPhoto&#45;&gt;http://schema.org/DefinedTerm</title>
<path fill="none" stroke="black" d="M483.59,-615.84C551.47,-590.54 689.08,-539.25 763.56,-511.49"/>
<polygon fill="black" stroke="black" points="765.05,-514.67 773.19,-507.9 762.6,-508.11 765.05,-514.67"/>
<text text-anchor="middle" x="619.07" y="-567.47" font-family="Times,serif" font-size="14.00">a</text>
</g>
<!-- http://w3id.org/oseg/ont/okhimg -->
<g id="node27" class="node">
<title>http://w3id.org/oseg/ont/okhimg</title>
<ellipse fill="none" stroke="#e377c2" cx="478.18" cy="-1981.36" rx="70.01" ry="16.03"/>
<text text-anchor="middle" x="478.18" y="-1977.66" font-family="Times,serif" font-size="14.00">ns3:okhimg</text>
</g>
<!-- http://w3id.org/oseg/ont/okhimg&#45;&gt;http://w3id.org/oseg/ont/ods#Dataset -->
<g id="edge28" class="edge">
<title>http://w3id.org/oseg/ont/okhimg&#45;&gt;http://w3id.org/oseg/ont/ods#Dataset</title>
<path fill="none" stroke="black" d="M480.03,-1997.63C486.04,-2050.42 505.03,-2217.34 512.48,-2282.75"/>
<polygon fill="black" stroke="black" points="509.04,-2283.5 513.65,-2293.04 516,-2282.7 509.04,-2283.5"/>
<text text-anchor="middle" x="491.75" y="-2143.99" font-family="Times,serif" font-size="14.00">a</text>
</g>
<!-- http://w3id.org/oseg/ont/okhimg&#45;&gt;http://spdx.org/rdf/terms#SpdxItem -->
<g id="edge35" class="edge">
<title>http://w3id.org/oseg/ont/okhimg&#45;&gt;http://spdx.org/rdf/terms#SpdxItem</title>
<path fill="none" stroke="black" d="M493.83,-1997.6C535.79,-2041.13 650.93,-2160.57 699.9,-2211.37"/>
<polygon fill="black" stroke="black" points="697.44,-2213.86 706.9,-2218.63 702.48,-2209.01 697.44,-2213.86"/>
<text text-anchor="middle" x="592.36" y="-2108.28" font-family="Times,serif" font-size="14.00">a</text>
</g>
<!-- http://w3id.org/oseg/ont/okhimg&#45;&gt;http://w3id.org/oseg/ont/okhimg#tags -->
<g id="edge25" class="edge">
<title>http://w3id.org/oseg/ont/okhimg&#45;&gt;http://w3id.org/oseg/ont/okhimg#tags</title>
<path fill="none" stroke="black" d="M481.41,-1964.88C494.14,-1899.88 540.95,-1660.96 556.67,-1580.72"/>
<polygon fill="black" stroke="black" points="560.11,-1581.39 558.59,-1570.91 553.24,-1580.05 560.11,-1581.39"/>
<text text-anchor="middle" x="454.04" y="-1776.6" font-family="Times,serif" font-size="14.00">void:rootResource</text>
</g>
<!-- http://w3id.org/oseg/ont/okhimg&#45;&gt;http://id.loc.gov/vocabulary/iso639&#45;1/en -->
<g id="edge10" class="edge">
<title>http://w3id.org/oseg/ont/okhimg&#45;&gt;http://id.loc.gov/vocabulary/iso639&#45;1/en</title>
<path fill="none" stroke="black" d="M485.7,-1997.71C503.38,-2036.12 547.64,-2132.31 568.84,-2178.38"/>
<polygon fill="black" stroke="black" points="565.76,-2180.04 573.12,-2187.66 572.12,-2177.12 565.76,-2180.04"/>
<text text-anchor="middle" x="462.77" y="-2091.85" font-family="Times,serif" font-size="14.00">dcterms:language</text>
</g>
<!-- http://w3id.org/oseg/ont/okhimg&#45;&gt;http://w3id.org/oseg/ont/okhimg#slots -->
<g id="edge42" class="edge">
<title>http://w3id.org/oseg/ont/okhimg&#45;&gt;http://w3id.org/oseg/ont/okhimg#slots</title>
<path fill="none" stroke="black" d="M485.51,-1965.07C512.26,-1905.63 604.74,-1700.15 637.36,-1627.68"/>
<polygon fill="black" stroke="black" points="640.64,-1628.93 641.55,-1618.37 634.25,-1626.05 640.64,-1628.93"/>
<text text-anchor="middle" x="496.43" y="-1800.18" font-family="Times,serif" font-size="14.00">void:rootResource</text>
</g>
<!-- http://w3id.org/oseg/ont/okhimg&#45;&gt;http://w3id.org/oseg/ont/oseg&#45;profiles#robinVobruba -->
<g id="edge15" class="edge">
<title>http://w3id.org/oseg/ont/okhimg&#45;&gt;http://w3id.org/oseg/ont/oseg&#45;profiles#robinVobruba</title>
<path fill="none" stroke="black" d="M470.31,-1997.83C448.32,-2057.36 389.67,-2261.62 373.32,-2334.76"/>
<polygon fill="black" stroke="black" points="369.89,-2334.06 371.22,-2344.57 376.73,-2335.52 369.89,-2334.06"/>
<text text-anchor="middle" x="364.31" y="-2170.1" font-family="Times,serif" font-size="14.00">dcterms:creator</text>
</g>
<!-- http://w3id.org/oseg/ont/okhimg&#45;&gt;http://w3id.org/oseg/ont/oseg&#45;profiles#robinVobruba -->
<g id="edge18" class="edge">
<title>http://w3id.org/oseg/ont/okhimg&#45;&gt;http://w3id.org/oseg/ont/oseg&#45;profiles#robinVobruba</title>
<path fill="none" stroke="black" d="M476.45,-1998C464.37,-2057.79 406.2,-2262.01 380.84,-2334.93"/>
<polygon fill="black" stroke="black" points="377.41,-2334.11 377.34,-2344.71 384.01,-2336.47 377.41,-2334.11"/>
<text text-anchor="middle" x="484.14" y="-2170.26" font-family="Times,serif" font-size="14.00">schema:creator</text>
</g>
<!-- http://w3id.org/oseg/ont/okhimg&#45;&gt;http://w3id.org/oseg/ont/0.1.0/okhimg -->
<g id="edge19" class="edge">
<title>http://w3id.org/oseg/ont/okhimg&#45;&gt;http://w3id.org/oseg/ont/0.1.0/okhimg</title>
<path fill="none" stroke="black" d="M467.67,-1997.53C439.79,-2040.42 363.8,-2157.31 330.35,-2208.78"/>
<polygon fill="black" stroke="black" points="327.31,-2207.02 324.8,-2217.32 333.18,-2210.84 327.31,-2207.02"/>
<text text-anchor="middle" x="347.51" y="-2106.96" font-family="Times,serif" font-size="14.00">owl:versionIRI</text>
</g>
<!-- http://w3id.org/oseg/ont/oseg&#45;profiles#Iopa -->
<g id="node34" class="node">
<title>http://w3id.org/oseg/ont/oseg&#45;profiles#Iopa</title>
<ellipse fill="none" stroke="#e377c2" cx="202.8" cy="-2163.28" rx="80.72" ry="16.03"/>
<text text-anchor="middle" x="202.8" y="-2159.58" font-family="Times,serif" font-size="14.00">osegprof:Iopa</text>
</g>
<!-- http://w3id.org/oseg/ont/okhimg&#45;&gt;http://w3id.org/oseg/ont/oseg&#45;profiles#Iopa -->
<g id="edge37" class="edge">
<title>http://w3id.org/oseg/ont/okhimg&#45;&gt;http://w3id.org/oseg/ont/oseg&#45;profiles#Iopa</title>
<path fill="none" stroke="black" d="M454.7,-1996.87C405.44,-2029.41 291.22,-2104.87 235.1,-2141.94"/>
<polygon fill="black" stroke="black" points="233.02,-2139.12 226.61,-2147.55 236.88,-2144.96 233.02,-2139.12"/>
<text text-anchor="middle" x="279.4" y="-2073.21" font-family="Times,serif" font-size="14.00">dcterms:publisher</text>
</g>
<!-- http://spdx.org/licenses/AGPL&#45;3.0&#45;or&#45;later -->
<g id="node39" class="node">
<title>http://spdx.org/licenses/AGPL&#45;3.0&#45;or&#45;later</title>
<ellipse fill="none" stroke="#e377c2" cx="111.77" cy="-2048.44" rx="111.95" ry="16.03"/>
<text text-anchor="middle" x="111.77" y="-2044.74" font-family="Times,serif" font-size="14.00">spdxl:AGPL&#45;3.0&#45;or...</text>
</g>
<!-- http://w3id.org/oseg/ont/okhimg&#45;&gt;http://spdx.org/licenses/AGPL&#45;3.0&#45;or&#45;later -->
<g id="edge44" class="edge">
<title>http://w3id.org/oseg/ont/okhimg&#45;&gt;http://spdx.org/licenses/AGPL&#45;3.0&#45;or&#45;later</title>
<path fill="none" stroke="black" d="M422.93,-1991.48C361.47,-2002.73 261.66,-2021 191.69,-2033.81"/>
<polygon fill="black" stroke="black" points="190.8,-2030.41 181.6,-2035.66 192.06,-2037.3 190.8,-2030.41"/>
<text text-anchor="middle" x="231.31" y="-2016.44" font-family="Times,serif" font-size="14.00">spdx:licenseDeclared</text>
</g>
<!-- http://w3id.org/oseg/ont/okhimg#slotModelFromRight -->
<g id="node28" class="node">
<title>http://w3id.org/oseg/ont/okhimg#slotModelFromRight</title>
<ellipse fill="none" stroke="#e377c2" cx="341.36" cy="-410.14" rx="116.85" ry="16.03"/>
<text text-anchor="middle" x="341.36" y="-406.44" font-family="Times,serif" font-size="14.00">okhimg:slotModelF...</text>
</g>
<!-- http://w3id.org/oseg/ont/okhimg#slotModelFromRight&#45;&gt;http://schema.org/DefinedTerm -->
<g id="edge29" class="edge">
<title>http://w3id.org/oseg/ont/okhimg#slotModelFromRight&#45;&gt;http://schema.org/DefinedTerm</title>
<path fill="none" stroke="black" d="M414.2,-422.85C499.71,-437.77 641.23,-462.46 730.98,-478.12"/>
<polygon fill="black" stroke="black" points="730.4,-481.57 740.85,-479.84 731.6,-474.67 730.4,-481.57"/>
<text text-anchor="middle" x="568.09" y="-454.28" font-family="Times,serif" font-size="14.00">a</text>
</g>
<!-- http://w3id.org/oseg/ont/okhimg#tagColor -->
<g id="node29" class="node">
<title>http://w3id.org/oseg/ont/okhimg#tagColor</title>
<ellipse fill="none" stroke="#e377c2" cx="1003.3" cy="-63.65" rx="95.42" ry="16.03"/>
<text text-anchor="middle" x="1003.3" y="-59.95" font-family="Times,serif" font-size="14.00">okhimg:tagColor</text>
</g>
<!-- http://w3id.org/oseg/ont/okhimg#tagColor&#45;&gt;http://schema.org/DefinedTerm -->
<g id="edge30" class="edge">
<title>http://w3id.org/oseg/ont/okhimg#tagColor&#45;&gt;http://schema.org/DefinedTerm</title>
<path fill="none" stroke="black" d="M996.11,-79.95C967.38,-145.11 860.61,-387.3 825.46,-467.01"/>
<polygon fill="black" stroke="black" points="822.19,-465.76 821.36,-476.32 828.59,-468.58 822.19,-465.76"/>
<text text-anchor="middle" x="906.29" y="-277.28" font-family="Times,serif" font-size="14.00">a</text>
</g>
<!-- http://w3id.org/oseg/ont/okhimg#slotIconMainBw&#45;&gt;http://schema.org/DefinedTerm -->
<g id="edge31" class="edge">
<title>http://w3id.org/oseg/ont/okhimg#slotIconMainBw&#45;&gt;http://schema.org/DefinedTerm</title>
<path fill="none" stroke="black" d="M916.35,-890.57C900.03,-827.02 841.16,-597.74 821,-519.22"/>
<polygon fill="black" stroke="black" points="824.29,-517.99 818.42,-509.18 817.51,-519.73 824.29,-517.99"/>
<text text-anchor="middle" x="864.17" y="-708.7" font-family="Times,serif" font-size="14.00">a</text>
</g>
<!-- http://w3id.org/oseg/ont/okhimg#slotIconMainBw&#45;&gt;http://w3id.org/oseg/ont/okhimg#slotIconMain -->
<g id="edge26" class="edge">
<title>http://w3id.org/oseg/ont/okhimg#slotIconMainBw&#45;&gt;http://w3id.org/oseg/ont/okhimg#slotIconMain</title>
<path fill="none" stroke="black" d="M904.48,-923.28C875.79,-958.9 817.14,-1043.91 791.7,-1086.51"/>
<polygon fill="black" stroke="black" points="788.67,-1084.77 786.67,-1095.17 794.72,-1088.29 788.67,-1084.77"/>
<text text-anchor="middle" x="820.59" y="-993.69" font-family="Times,serif" font-size="14.00">seeAlso</text>
</g>
<!-- http://w3id.org/oseg/ont/okhimg#slotModelFromFront -->
<g id="node31" class="node">
<title>http://w3id.org/oseg/ont/okhimg#slotModelFromFront</title>
<ellipse fill="none" stroke="#e377c2" cx="458.14" cy="-762.52" rx="116.85" ry="16.03"/>
<text text-anchor="middle" x="458.14" y="-758.82" font-family="Times,serif" font-size="14.00">okhimg:slotModelF...</text>
</g>
<!-- http://w3id.org/oseg/ont/okhimg#slotModelFromFront&#45;&gt;http://schema.org/DefinedTerm -->
<g id="edge32" class="edge">
<title>http://w3id.org/oseg/ont/okhimg#slotModelFromFront&#45;&gt;http://schema.org/DefinedTerm</title>
<path fill="none" stroke="black" d="M479.34,-746.45C540.05,-700.43 714.63,-568.09 784.62,-515.03"/>
<polygon fill="black" stroke="black" points="786.77,-517.79 792.62,-508.96 782.54,-512.21 786.77,-517.79"/>
<text text-anchor="middle" x="627.48" y="-634.54" font-family="Times,serif" font-size="14.00">a</text>
</g>
<!-- http://w3id.org/oseg/ont/okhimg#slotSocial -->
<g id="node32" class="node">
<title>http://w3id.org/oseg/ont/okhimg#slotSocial</title>
<ellipse fill="none" stroke="#e377c2" cx="1163.17" cy="-777.98" rx="101.23" ry="16.03"/>
<text text-anchor="middle" x="1163.17" y="-774.28" font-family="Times,serif" font-size="14.00">okhimg:slotSocial</text>
</g>
<!-- http://w3id.org/oseg/ont/okhimg#slotSocial&#45;&gt;http://schema.org/DefinedTerm -->
<g id="edge33" class="edge">
<title>http://w3id.org/oseg/ont/okhimg#slotSocial&#45;&gt;http://schema.org/DefinedTerm</title>
<path fill="none" stroke="black" d="M1143.4,-761.82C1084.51,-713.67 910.09,-571.06 841.92,-515.32"/>
<polygon fill="black" stroke="black" points="844.1,-512.58 834.15,-508.96 839.67,-518 844.1,-512.58"/>
<text text-anchor="middle" x="988.16" y="-642.37" font-family="Times,serif" font-size="14.00">a</text>
</g>
<!-- http://w3id.org/oseg/ont/okhimg#tagModel -->
<g id="node33" class="node">
<title>http://w3id.org/oseg/ont/okhimg#tagModel</title>
<ellipse fill="none" stroke="#e377c2" cx="1109.92" cy="-115.16" rx="99.9" ry="16.03"/>
<text text-anchor="middle" x="1109.92" y="-111.46" font-family="Times,serif" font-size="14.00">okhimg:tagModel</text>
</g>
<!-- http://w3id.org/oseg/ont/okhimg#tagModel&#45;&gt;http://schema.org/DefinedTerm -->
<g id="edge36" class="edge">
<title>http://w3id.org/oseg/ont/okhimg#tagModel&#45;&gt;http://schema.org/DefinedTerm</title>
<path fill="none" stroke="black" d="M1097.21,-131.38C1050.68,-190.77 889.38,-396.64 833.44,-468.02"/>
<polygon fill="black" stroke="black" points="830.57,-466.01 827.16,-476.04 836.08,-470.33 830.57,-466.01"/>
<text text-anchor="middle" x="960.83" y="-303.5" font-family="Times,serif" font-size="14.00">a</text>
</g>
<!-- http://w3id.org/oseg/ont/okhimg#slotLogoBw&#45;&gt;http://schema.org/DefinedTerm -->
<g id="edge46" class="edge">
<title>http://w3id.org/oseg/ont/okhimg#slotLogoBw&#45;&gt;http://schema.org/DefinedTerm</title>
<path fill="none" stroke="black" d="M735.8,-76.18C748.15,-141.8 793.98,-385.34 809.21,-466.28"/>
<polygon fill="black" stroke="black" points="805.78,-466.99 811.07,-476.17 812.66,-465.7 805.78,-466.99"/>
<text text-anchor="middle" x="768" y="-275.03" font-family="Times,serif" font-size="14.00">a</text>
</g>
<!-- http://w3id.org/oseg/ont/okhimg#slotLogoBw&#45;&gt;http://w3id.org/oseg/ont/okhimg#slotLogo -->
<g id="edge34" class="edge">
<title>http://w3id.org/oseg/ont/okhimg#slotLogoBw&#45;&gt;http://w3id.org/oseg/ont/okhimg#slotLogo</title>
<path fill="none" stroke="black" d="M665.24,-72.75C636.95,-80.38 604.91,-89.96 579.94,-98.33"/>
<polygon fill="black" stroke="black" points="578.73,-95.05 570.4,-101.6 580.99,-101.67 578.73,-95.05"/>
<text text-anchor="middle" x="595.09" y="-89.34" font-family="Times,serif" font-size="14.00">seeAlso</text>
</g>
<!-- http://w3id.org/oseg/ont/okhimg#tagGray -->
<g id="node36" class="node">
<title>http://w3id.org/oseg/ont/okhimg#tagGray</title>
<ellipse fill="none" stroke="#e377c2" cx="1028.18" cy="-818.52" rx="92.76" ry="16.03"/>
<text text-anchor="middle" x="1028.18" y="-814.82" font-family="Times,serif" font-size="14.00">okhimg:tagGray</text>
</g>
<!-- http://w3id.org/oseg/ont/okhimg#tagGray&#45;&gt;http://schema.org/DefinedTerm -->
<g id="edge40" class="edge">
<title>http://w3id.org/oseg/ont/okhimg#tagGray&#45;&gt;http://schema.org/DefinedTerm</title>
<path fill="none" stroke="black" d="M1017.57,-802.36C982.84,-749.48 872.42,-581.34 830.51,-517.52"/>
<polygon fill="black" stroke="black" points="833.26,-515.32 824.84,-508.89 827.41,-519.17 833.26,-515.32"/>
<text text-anchor="middle" x="919.54" y="-663.74" font-family="Times,serif" font-size="14.00">a</text>
</g>
<!-- http://w3id.org/oseg/ont/okhimg#slotModelFromBack -->
<g id="node37" class="node">
<title>http://w3id.org/oseg/ont/okhimg#slotModelFromBack</title>
<ellipse fill="none" stroke="#e377c2" cx="1232.7" cy="-689.26" rx="116.85" ry="16.03"/>
<text text-anchor="middle" x="1232.7" y="-685.56" font-family="Times,serif" font-size="14.00">okhimg:slotModelF...</text>
</g>
<!-- http://w3id.org/oseg/ont/okhimg#slotModelFromBack&#45;&gt;http://schema.org/DefinedTerm -->
<g id="edge41" class="edge">
<title>http://w3id.org/oseg/ont/okhimg#slotModelFromBack&#45;&gt;http://schema.org/DefinedTerm</title>
<path fill="none" stroke="black" d="M1199.51,-673.66C1124.2,-638.28 940.47,-551.97 856.86,-512.69"/>
<polygon fill="black" stroke="black" points="858.19,-509.44 847.65,-508.36 855.21,-515.78 858.19,-509.44"/>
<text text-anchor="middle" x="1023.68" y="-596.98" font-family="Times,serif" font-size="14.00">a</text>
</g>
<!-- http://w3id.org/oseg/ont/okhimg#tagLogo -->
<g id="node38" class="node">
<title>http://w3id.org/oseg/ont/okhimg#tagLogo</title>
<ellipse fill="none" stroke="#e377c2" cx="888.13" cy="-116.04" rx="92.76" ry="16.03"/>
<text text-anchor="middle" x="888.13" y="-112.34" font-family="Times,serif" font-size="14.00">okhimg:tagLogo</text>
</g>
<!-- http://w3id.org/oseg/ont/okhimg#tagLogo&#45;&gt;http://schema.org/DefinedTerm -->
<g id="edge43" class="edge">
<title>http://w3id.org/oseg/ont/okhimg#tagLogo&#45;&gt;http://schema.org/DefinedTerm</title>
<path fill="none" stroke="black" d="M884.86,-132.71C873.21,-192.01 833.71,-393.11 819.4,-465.98"/>
<polygon fill="black" stroke="black" points="815.9,-465.67 817.4,-476.15 822.76,-467.02 815.9,-465.67"/>
<text text-anchor="middle" x="847.63" y="-303.14" font-family="Times,serif" font-size="14.00">a</text>
</g>
<!-- http://w3id.org/oseg/ont/okhimg#tagIcon -->
<g id="node40" class="node">
<title>http://w3id.org/oseg/ont/okhimg#tagIcon</title>
<ellipse fill="none" stroke="#e377c2" cx="826.45" cy="-15.85" rx="89.61" ry="16.03"/>
<text text-anchor="middle" x="826.45" y="-12.15" font-family="Times,serif" font-size="14.00">okhimg:tagIcon</text>
</g>
<!-- http://w3id.org/oseg/ont/okhimg#tagIcon&#45;&gt;http://schema.org/DefinedTerm -->
<g id="edge47" class="edge">
<title>http://w3id.org/oseg/ont/okhimg#tagIcon&#45;&gt;http://schema.org/DefinedTerm</title>
<path fill="none" stroke="black" d="M826.03,-32.26C824.21,-102.61 817.09,-379.05 814.85,-466.18"/>
<polygon fill="black" stroke="black" points="811.35,-466.2 814.59,-476.29 818.34,-466.38 811.35,-466.2"/>
<text text-anchor="middle" x="815.94" y="-253.02" font-family="Times,serif" font-size="14.00">a</text>
</g>
<!-- http://w3id.org/oseg/ont/okhimg#slotModelFromBelow -->
<g id="node41" class="node">
<title>http://w3id.org/oseg/ont/okhimg#slotModelFromBelow</title>
<ellipse fill="none" stroke="#e377c2" cx="442.01" cy="-165.72" rx="116.85" ry="16.03"/>
<text text-anchor="middle" x="442.01" y="-162.02" font-family="Times,serif" font-size="14.00">okhimg:slotModelF...</text>
</g>
<!-- http://w3id.org/oseg/ont/okhimg#slotModelFromBelow&#45;&gt;http://schema.org/DefinedTerm -->
<g id="edge48" class="edge">
<title>http://w3id.org/oseg/ont/okhimg#slotModelFromBelow&#45;&gt;http://schema.org/DefinedTerm</title>
<path fill="none" stroke="black" d="M460.47,-181.93C521.48,-235.52 716.82,-407.11 787.94,-469.59"/>
<polygon fill="black" stroke="black" points="785.78,-472.35 795.6,-476.32 790.4,-467.09 785.78,-472.35"/>
<text text-anchor="middle" x="619.71" y="-329.56" font-family="Times,serif" font-size="14.00">a</text>
</g>
</g>
</svg>
