<?xml version="1.0" encoding="UTF-8" standalone="no"?>
<!DOCTYPE svg PUBLIC "-//W3C//DTD SVG 1.1//EN"
 "http://www.w3.org/Graphics/SVG/1.1/DTD/svg11.dtd">
<!-- Generated by graphviz version 2.43.0 (0)
 -->
<!-- Title: G Pages: 1 -->
<svg width="1456pt" height="2257pt"
 viewBox="0.00 0.00 1456.00 2257.00" xmlns="http://www.w3.org/2000/svg" xmlns:xlink="http://www.w3.org/1999/xlink">
<g id="graph0" class="graph" transform="scale(1 1) rotate(0) translate(4 2253)">
<title>G</title>
<polygon fill="white" stroke="transparent" points="-4,4 -4,-2253 1452,-2253 1452,4 -4,4"/>
<!-- http://w3id.org/oseg/ont/okh#Reference -->
<g id="node1" class="node">
<title>http://w3id.org/oseg/ont/okh#Reference</title>
<ellipse fill="none" stroke="#e377c2" cx="1085.58" cy="-1228.44" rx="84.29" ry="16.03"/>
<text text-anchor="middle" x="1085.58" y="-1224.74" font-family="Times,serif" font-size="14.00">okh:Reference</text>
</g>
<!-- http://schema.org/URL -->
<g id="node2" class="node">
<title>http://schema.org/URL</title>
<ellipse fill="none" stroke="#e377c2" cx="1124" cy="-1760.06" rx="75.82" ry="16.03"/>
<text text-anchor="middle" x="1124" y="-1756.36" font-family="Times,serif" font-size="14.00">schema:URL</text>
</g>
<!-- http://www.w3.org/2002/07/owl#DatatypeProperty -->
<g id="node3" class="node">
<title>http://www.w3.org/2002/07/owl#DatatypeProperty</title>
<ellipse fill="none" stroke="#1f77b4" cx="813.89" cy="-531.94" rx="123.07" ry="16.03"/>
<text text-anchor="middle" x="813.89" y="-528.24" font-family="Times,serif" font-size="14.00">owl:DatatypeProperty</text>
</g>
<!-- http://www.w3.org/2002/07/owl#ObjectProperty -->
<g id="node4" class="node">
<title>http://www.w3.org/2002/07/owl#ObjectProperty</title>
<ellipse fill="none" stroke="#1f77b4" cx="548.71" cy="-1617.07" rx="109.7" ry="16.03"/>
<text text-anchor="middle" x="548.71" y="-1613.37" font-family="Times,serif" font-size="14.00">owl:ObjectProperty</text>
</g>
<!-- http://w3id.org/oseg/ont/okh#ComponentReference -->
<g id="node5" class="node">
<title>http://w3id.org/oseg/ont/okh#ComponentReference</title>
<ellipse fill="none" stroke="#e377c2" cx="1017.89" cy="-1270.68" rx="123.07" ry="16.03"/>
<text text-anchor="middle" x="1017.89" y="-1266.98" font-family="Times,serif" font-size="14.00">okh:ComponentRefe...</text>
</g>
<!-- http://w3id.org/oseg/ont/okh#ComponentReference&#45;&gt;http://w3id.org/oseg/ont/okh#Reference -->
<g id="edge21" class="edge">
<title>http://w3id.org/oseg/ont/okh#ComponentReference&#45;&gt;http://w3id.org/oseg/ont/okh#Reference</title>
<path fill="none" stroke="black" d="M1043.48,-1254.71C1046.16,-1253.03 1048.92,-1251.31 1051.68,-1249.59"/>
<polygon fill="black" stroke="black" points="1053.77,-1252.41 1060.4,-1244.15 1050.07,-1246.47 1053.77,-1252.41"/>
</g>
<!-- http://www.w3.org/2004/02/skos/core#Concept -->
<g id="node8" class="node">
<title>http://www.w3.org/2004/02/skos/core#Concept</title>
<ellipse fill="none" stroke="#1f77b4" cx="711.38" cy="-1102.84" rx="78.48" ry="16.03"/>
<text text-anchor="middle" x="711.38" y="-1099.14" font-family="Times,serif" font-size="14.00">skos:Concept</text>
</g>
<!-- http://w3id.org/oseg/ont/okh#ComponentReference&#45;&gt;http://www.w3.org/2004/02/skos/core#Concept -->
<g id="edge48" class="edge">
<title>http://w3id.org/oseg/ont/okh#ComponentReference&#45;&gt;http://www.w3.org/2004/02/skos/core#Concept</title>
<path fill="none" stroke="black" d="M988.77,-1254.74C932.77,-1224.07 810.14,-1156.92 748.42,-1123.12"/>
<polygon fill="black" stroke="black" points="749.86,-1119.92 739.41,-1118.19 746.5,-1126.06 749.86,-1119.92"/>
<text text-anchor="middle" x="864.09" y="-1192.73" font-family="Times,serif" font-size="14.00">a</text>
</g>
<!-- http://w3id.org/oseg/ont/okhmetaPartsTag -->
<g id="node23" class="node">
<title>http://w3id.org/oseg/ont/okhmetaPartsTag</title>
<ellipse fill="none" stroke="#e377c2" cx="1345.15" cy="-1404.3" rx="103.48" ry="16.03"/>
<text text-anchor="middle" x="1345.15" y="-1400.6" font-family="Times,serif" font-size="14.00">okhmeta:PartsTag</text>
</g>
<!-- http://w3id.org/oseg/ont/okh#ComponentReference&#45;&gt;http://w3id.org/oseg/ont/okhmetaPartsTag -->
<g id="edge14" class="edge">
<title>http://w3id.org/oseg/ont/okh#ComponentReference&#45;&gt;http://w3id.org/oseg/ont/okhmetaPartsTag</title>
<path fill="none" stroke="black" d="M1056.07,-1286.27C1116.29,-1310.86 1233.17,-1358.58 1298.35,-1385.19"/>
<polygon fill="black" stroke="black" points="1297.38,-1388.58 1307.97,-1389.12 1300.03,-1382.1 1297.38,-1388.58"/>
<text text-anchor="middle" x="1100.21" y="-1339.53" font-family="Times,serif" font-size="14.00">okhmeta:hasMetaTag</text>
</g>
<!-- http://w3id.org/oseg/ont/okh#FileUrl -->
<g id="node6" class="node">
<title>http://w3id.org/oseg/ont/okh#FileUrl</title>
<ellipse fill="none" stroke="#1f77b4" cx="960.91" cy="-1574.17" rx="68.68" ry="16.03"/>
<text text-anchor="middle" x="960.91" y="-1570.47" font-family="Times,serif" font-size="14.00">okh:FileUrl</text>
</g>
<!-- http://w3id.org/oseg/ont/okh#FileUrl&#45;&gt;http://schema.org/URL -->
<g id="edge30" class="edge">
<title>http://w3id.org/oseg/ont/okh#FileUrl&#45;&gt;http://schema.org/URL</title>
<path fill="none" stroke="black" d="M975.1,-1590.34C1003.97,-1623.24 1069.65,-1698.1 1103.29,-1736.45"/>
<polygon fill="black" stroke="black" points="1100.73,-1738.85 1109.96,-1744.05 1106,-1734.23 1100.73,-1738.85"/>
</g>
<!-- http://w3id.org/oseg/ont/okh#FileUrl&#45;&gt;http://w3id.org/oseg/ont/okh#ComponentReference -->
<g id="edge36" class="edge">
<title>http://w3id.org/oseg/ont/okh#FileUrl&#45;&gt;http://w3id.org/oseg/ont/okh#ComponentReference</title>
<path fill="none" stroke="black" d="M963.97,-1557.85C973.31,-1508.14 1001.45,-1358.25 1012.93,-1297.09"/>
<polygon fill="black" stroke="black" points="1016.4,-1297.55 1014.81,-1287.08 1009.52,-1296.26 1016.4,-1297.55"/>
</g>
<!-- http://w3id.org/oseg/ont/okh#File -->
<g id="node13" class="node">
<title>http://w3id.org/oseg/ont/okh#File</title>
<ellipse fill="none" stroke="#e377c2" cx="728.6" cy="-1574.83" rx="52.15" ry="16.03"/>
<text text-anchor="middle" x="728.6" y="-1571.13" font-family="Times,serif" font-size="14.00">okh:File</text>
</g>
<!-- http://w3id.org/oseg/ont/okh#FileUrl&#45;&gt;http://w3id.org/oseg/ont/okh#File -->
<g id="edge51" class="edge">
<title>http://w3id.org/oseg/ont/okh#FileUrl&#45;&gt;http://w3id.org/oseg/ont/okh#File</title>
<path fill="none" stroke="black" d="M892.15,-1574.37C860.18,-1574.46 822.42,-1574.57 791.25,-1574.66"/>
<polygon fill="black" stroke="black" points="790.93,-1571.16 780.94,-1574.68 790.95,-1578.16 790.93,-1571.16"/>
<text text-anchor="middle" x="841.7" y="-1563.31" font-family="Times,serif" font-size="14.00">schema:supersededBy</text>
</g>
<!-- http://w3id.org/oseg/ont/okh#Mass -->
<g id="node7" class="node">
<title>http://w3id.org/oseg/ont/okh#Mass</title>
<ellipse fill="none" stroke="#e377c2" cx="877.42" cy="-843.11" rx="59.29" ry="16.03"/>
<text text-anchor="middle" x="877.42" y="-839.41" font-family="Times,serif" font-size="14.00">okh:Mass</text>
</g>
<!-- http://w3id.org/oseg/ont/okh#Mass&#45;&gt;http://www.w3.org/2004/02/skos/core#Concept -->
<g id="edge23" class="edge">
<title>http://w3id.org/oseg/ont/okh#Mass&#45;&gt;http://www.w3.org/2004/02/skos/core#Concept</title>
<path fill="none" stroke="black" d="M867.03,-859.36C838.9,-903.36 761.1,-1025.07 727.35,-1077.87"/>
<polygon fill="black" stroke="black" points="724.2,-1076.29 721.76,-1086.6 730.1,-1080.06 724.2,-1076.29"/>
<text text-anchor="middle" x="792.69" y="-972.41" font-family="Times,serif" font-size="14.00">a</text>
</g>
<!-- http://w3id.org/oseg/ont/okhmetaTransportationTag -->
<g id="node16" class="node">
<title>http://w3id.org/oseg/ont/okhmetaTransportationTag</title>
<ellipse fill="none" stroke="#e377c2" cx="1153.35" cy="-814.45" rx="118.17" ry="16.03"/>
<text text-anchor="middle" x="1153.35" y="-810.75" font-family="Times,serif" font-size="14.00">okhmeta:Transport...</text>
</g>
<!-- http://w3id.org/oseg/ont/okh#Mass&#45;&gt;http://w3id.org/oseg/ont/okhmetaTransportationTag -->
<g id="edge8" class="edge">
<title>http://w3id.org/oseg/ont/okh#Mass&#45;&gt;http://w3id.org/oseg/ont/okhmetaTransportationTag</title>
<path fill="none" stroke="black" d="M933.26,-837.31C966.43,-833.87 1009.57,-829.39 1048.85,-825.31"/>
<polygon fill="black" stroke="black" points="1049.43,-828.77 1059.01,-824.25 1048.7,-821.8 1049.43,-828.77"/>
<text text-anchor="middle" x="1068.05" y="-835.11" font-family="Times,serif" font-size="14.00">okhmeta:hasMetaTag</text>
</g>
<!-- http://w3id.org/oseg/ont/okhmetaPhysicalTag -->
<g id="node38" class="node">
<title>http://w3id.org/oseg/ont/okhmetaPhysicalTag</title>
<ellipse fill="none" stroke="#e377c2" cx="1128.4" cy="-941.47" rx="118.17" ry="16.03"/>
<text text-anchor="middle" x="1128.4" y="-937.77" font-family="Times,serif" font-size="14.00">okhmeta:PhysicalTag</text>
</g>
<!-- http://w3id.org/oseg/ont/okh#Mass&#45;&gt;http://w3id.org/oseg/ont/okhmetaPhysicalTag -->
<g id="edge46" class="edge">
<title>http://w3id.org/oseg/ont/okh#Mass&#45;&gt;http://w3id.org/oseg/ont/okhmetaPhysicalTag</title>
<path fill="none" stroke="black" d="M911.53,-856.48C954.88,-873.47 1030.01,-902.91 1079.46,-922.29"/>
<polygon fill="black" stroke="black" points="1078.41,-925.64 1088.99,-926.03 1080.96,-919.12 1078.41,-925.64"/>
<text text-anchor="middle" x="918.49" y="-893.19" font-family="Times,serif" font-size="14.00">okhmeta:hasMetaTag</text>
</g>
<!-- http://w3id.org/oseg/ont/okh#okhvOriginal -->
<g id="node9" class="node">
<title>http://w3id.org/oseg/ont/okh#okhvOriginal</title>
<ellipse fill="none" stroke="#e377c2" cx="802.79" cy="-479.97" rx="97.66" ry="16.03"/>
<text text-anchor="middle" x="802.79" y="-476.27" font-family="Times,serif" font-size="14.00">okh:okhvOriginal</text>
</g>
<!-- http://w3id.org/oseg/ont/okh#okhvOriginal&#45;&gt;http://www.w3.org/2002/07/owl#DatatypeProperty -->
<g id="edge1" class="edge">
<title>http://w3id.org/oseg/ont/okh#okhvOriginal&#45;&gt;http://www.w3.org/2002/07/owl#DatatypeProperty</title>
<path fill="none" stroke="black" d="M806.3,-496.42C806.93,-499.35 807.6,-502.48 808.27,-505.62"/>
<polygon fill="black" stroke="black" points="804.85,-506.38 810.36,-515.43 811.7,-504.92 804.85,-506.38"/>
<text text-anchor="middle" x="802.78" y="-504.82" font-family="Times,serif" font-size="14.00">a</text>
</g>
<!-- http://w3id.org/oseg/ont/okh#okhvStored -->
<g id="node27" class="node">
<title>http://w3id.org/oseg/ont/okh#okhvStored</title>
<ellipse fill="none" stroke="#e377c2" cx="682.62" cy="-206.01" rx="90.52" ry="16.03"/>
<text text-anchor="middle" x="682.62" y="-202.31" font-family="Times,serif" font-size="14.00">okh:okhvStored</text>
</g>
<!-- http://w3id.org/oseg/ont/okh#okhvOriginal&#45;&gt;http://w3id.org/oseg/ont/okh#okhvStored -->
<g id="edge19" class="edge">
<title>http://w3id.org/oseg/ont/okh#okhvOriginal&#45;&gt;http://w3id.org/oseg/ont/okh#okhvStored</title>
<path fill="none" stroke="black" d="M795.63,-463.66C775.51,-417.78 718.33,-287.41 693.9,-231.73"/>
<polygon fill="black" stroke="black" points="696.96,-229.99 689.74,-222.24 690.55,-232.8 696.96,-229.99"/>
<text text-anchor="middle" x="717.27" y="-351.49" font-family="Times,serif" font-size="14.00">seeAlso</text>
</g>
<!-- http://w3id.org/oseg/ont/okh#okhv -->
<g id="node37" class="node">
<title>http://w3id.org/oseg/ont/okh#okhv</title>
<ellipse fill="none" stroke="#e377c2" cx="766.95" cy="-257.05" rx="56.64" ry="16.03"/>
<text text-anchor="middle" x="766.95" y="-253.35" font-family="Times,serif" font-size="14.00">okh:okhv</text>
</g>
<!-- http://w3id.org/oseg/ont/okh#okhvOriginal&#45;&gt;http://w3id.org/oseg/ont/okh#okhv -->
<g id="edge52" class="edge">
<title>http://w3id.org/oseg/ont/okh#okhvOriginal&#45;&gt;http://w3id.org/oseg/ont/okh#okhv</title>
<path fill="none" stroke="black" d="M800.15,-463.58C794,-425.34 778.66,-329.93 771.18,-283.4"/>
<polygon fill="black" stroke="black" points="774.63,-282.79 769.59,-273.47 767.72,-283.9 774.63,-282.79"/>
<text text-anchor="middle" x="732.67" y="-377.29" font-family="Times,serif" font-size="14.00">subPropertyOf</text>
</g>
<!-- http://w3id.org/oseg/ont/okh#installationGuide -->
<g id="node10" class="node">
<title>http://w3id.org/oseg/ont/okh#installationGuide</title>
<ellipse fill="none" stroke="#e377c2" cx="584.8" cy="-814.95" rx="106.55" ry="16.03"/>
<text text-anchor="middle" x="584.8" y="-811.25" font-family="Times,serif" font-size="14.00">okh:installationG...</text>
</g>
<!-- http://w3id.org/oseg/ont/okh#installationGuide&#45;&gt;http://www.w3.org/2002/07/owl#DatatypeProperty -->
<g id="edge55" class="edge">
<title>http://w3id.org/oseg/ont/okh#installationGuide&#45;&gt;http://www.w3.org/2002/07/owl#DatatypeProperty</title>
<path fill="none" stroke="black" d="M598.11,-798.51C636.62,-750.93 748.35,-612.91 794.05,-556.45"/>
<polygon fill="black" stroke="black" points="796.98,-558.4 800.55,-548.43 791.54,-554 796.98,-558.4"/>
<text text-anchor="middle" x="691.58" y="-681.28" font-family="Times,serif" font-size="14.00">a</text>
</g>
<!-- http://w3id.org/oseg/ont/okh#installationGuide&#45;&gt;http://www.w3.org/2004/02/skos/core#Concept -->
<g id="edge2" class="edge">
<title>http://w3id.org/oseg/ont/okh#installationGuide&#45;&gt;http://www.w3.org/2004/02/skos/core#Concept</title>
<path fill="none" stroke="black" d="M591.97,-831.25C612.98,-879.04 674.54,-1019.05 700.08,-1077.13"/>
<polygon fill="black" stroke="black" points="696.91,-1078.61 704.13,-1086.36 703.31,-1075.8 696.91,-1078.61"/>
<text text-anchor="middle" x="641.52" y="-957.99" font-family="Times,serif" font-size="14.00">a</text>
</g>
<!-- http://w3id.org/oseg/ont/okh#Software -->
<g id="node34" class="node">
<title>http://w3id.org/oseg/ont/okh#Software</title>
<ellipse fill="none" stroke="#e377c2" cx="311.24" cy="-720.57" rx="78.48" ry="16.03"/>
<text text-anchor="middle" x="311.24" y="-716.87" font-family="Times,serif" font-size="14.00">okh:Software</text>
</g>
<!-- http://w3id.org/oseg/ont/okh#installationGuide&#45;&gt;http://w3id.org/oseg/ont/okh#Software -->
<g id="edge35" class="edge">
<title>http://w3id.org/oseg/ont/okh#installationGuide&#45;&gt;http://w3id.org/oseg/ont/okh#Software</title>
<path fill="none" stroke="black" d="M541.46,-799.99C492.48,-783.1 412.9,-755.65 361.32,-737.85"/>
<polygon fill="black" stroke="black" points="362.3,-734.49 351.71,-734.53 360.02,-741.1 362.3,-734.49"/>
<text text-anchor="middle" x="373.39" y="-772.72" font-family="Times,serif" font-size="14.00">dcam:domainIncludes</text>
</g>
<!-- http://w3id.org/oseg/ont/okh#alternativeLicense -->
<g id="node11" class="node">
<title>http://w3id.org/oseg/ont/okh#alternativeLicense</title>
<ellipse fill="none" stroke="#e377c2" cx="490.12" cy="-1369.48" rx="107.46" ry="16.03"/>
<text text-anchor="middle" x="490.12" y="-1365.78" font-family="Times,serif" font-size="14.00">okh:alternativeLi...</text>
</g>
<!-- http://w3id.org/oseg/ont/okh#alternativeLicense&#45;&gt;http://www.w3.org/2002/07/owl#ObjectProperty -->
<g id="edge3" class="edge">
<title>http://w3id.org/oseg/ont/okh#alternativeLicense&#45;&gt;http://www.w3.org/2002/07/owl#ObjectProperty</title>
<path fill="none" stroke="black" d="M494.05,-1386.11C504.02,-1428.22 530.31,-1539.34 542.43,-1590.54"/>
<polygon fill="black" stroke="black" points="539.08,-1591.59 544.79,-1600.52 545.9,-1589.98 539.08,-1591.59"/>
<text text-anchor="middle" x="513.74" y="-1492.13" font-family="Times,serif" font-size="14.00">a</text>
</g>
<!-- http://w3id.org/oseg/ont/okh#alternativeLicense&#45;&gt;http://www.w3.org/2004/02/skos/core#Concept -->
<g id="edge25" class="edge">
<title>http://w3id.org/oseg/ont/okh#alternativeLicense&#45;&gt;http://www.w3.org/2004/02/skos/core#Concept</title>
<path fill="none" stroke="black" d="M503.62,-1353.2C541.21,-1307.91 647.15,-1180.24 691.48,-1126.82"/>
<polygon fill="black" stroke="black" points="694.36,-1128.83 698.05,-1118.9 688.97,-1124.36 694.36,-1128.83"/>
<text text-anchor="middle" x="593.05" y="-1243.81" font-family="Times,serif" font-size="14.00">a</text>
</g>
<!-- http://w3id.org/oseg/ont/okh#alternativeLicense&#45;&gt;http://w3id.org/oseg/ont/okh#File -->
<g id="edge54" class="edge">
<title>http://w3id.org/oseg/ont/okh#alternativeLicense&#45;&gt;http://w3id.org/oseg/ont/okh#File</title>
<path fill="none" stroke="black" d="M508.83,-1385.59C551.18,-1422.06 654.44,-1510.97 702.81,-1552.62"/>
<polygon fill="black" stroke="black" points="700.77,-1555.48 710.63,-1559.36 705.34,-1550.18 700.77,-1555.48"/>
<text text-anchor="middle" x="533.32" y="-1472.91" font-family="Times,serif" font-size="14.00">dcam:rangeIncludes</text>
</g>
<!-- http://schema.org/license -->
<g id="node19" class="node">
<title>http://schema.org/license</title>
<ellipse fill="none" stroke="#e377c2" cx="207.75" cy="-1421.03" rx="88.28" ry="16.03"/>
<text text-anchor="middle" x="207.75" y="-1417.33" font-family="Times,serif" font-size="14.00">schema:license</text>
</g>
<!-- http://w3id.org/oseg/ont/okh#alternativeLicense&#45;&gt;http://schema.org/license -->
<g id="edge12" class="edge">
<title>http://w3id.org/oseg/ont/okh#alternativeLicense&#45;&gt;http://schema.org/license</title>
<path fill="none" stroke="black" d="M421.4,-1382.02C378.85,-1389.79 324.24,-1399.76 280.88,-1407.68"/>
<polygon fill="black" stroke="black" points="280.18,-1404.25 270.97,-1409.49 281.43,-1411.13 280.18,-1404.25"/>
<text text-anchor="middle" x="292.14" y="-1383.65" font-family="Times,serif" font-size="14.00">skos:closeMatch</text>
</g>
<!-- http://w3id.org/oseg/ont/okh#license -->
<g id="node20" class="node">
<title>http://w3id.org/oseg/ont/okh#license</title>
<ellipse fill="none" stroke="#e377c2" cx="684.9" cy="-1381.45" rx="67.76" ry="16.03"/>
<text text-anchor="middle" x="684.9" y="-1377.75" font-family="Times,serif" font-size="14.00">okh:license</text>
</g>
<!-- http://w3id.org/oseg/ont/okh#alternativeLicense&#45;&gt;http://w3id.org/oseg/ont/okh#license -->
<g id="edge13" class="edge">
<title>http://w3id.org/oseg/ont/okh#alternativeLicense&#45;&gt;http://w3id.org/oseg/ont/okh#license</title>
<path fill="none" stroke="black" d="M589.79,-1375.61C596.15,-1376 602.49,-1376.39 608.71,-1376.77"/>
<polygon fill="black" stroke="black" points="608.85,-1380.28 619.05,-1377.4 609.28,-1373.3 608.85,-1380.28"/>
<text text-anchor="middle" x="519.25" y="-1379.99" font-family="Times,serif" font-size="14.00">schema:supersededBy</text>
</g>
<!-- http://w3id.org/oseg/ont/okh#Module -->
<g id="node26" class="node">
<title>http://w3id.org/oseg/ont/okh#Module</title>
<ellipse fill="none" stroke="#e377c2" cx="240.9" cy="-1260.34" rx="70.92" ry="16.03"/>
<text text-anchor="middle" x="240.9" y="-1256.64" font-family="Times,serif" font-size="14.00">okh:Module</text>
</g>
<!-- http://w3id.org/oseg/ont/okh#alternativeLicense&#45;&gt;http://w3id.org/oseg/ont/okh#Module -->
<g id="edge32" class="edge">
<title>http://w3id.org/oseg/ont/okh#alternativeLicense&#45;&gt;http://w3id.org/oseg/ont/okh#Module</title>
<path fill="none" stroke="black" d="M454.94,-1354.07C409.78,-1334.3 331.5,-1300.02 283.16,-1278.85"/>
<polygon fill="black" stroke="black" points="284.47,-1275.61 273.91,-1274.8 281.67,-1282.02 284.47,-1275.61"/>
<text text-anchor="middle" x="291.05" y="-1320.26" font-family="Times,serif" font-size="14.00">dcam:domainIncludes</text>
</g>
<!-- http://w3id.org/oseg/ont/okhmetaLegalTag -->
<g id="node28" class="node">
<title>http://w3id.org/oseg/ont/okhmetaLegalTag</title>
<ellipse fill="none" stroke="#e377c2" cx="241.05" cy="-1527.45" rx="103.89" ry="16.03"/>
<text text-anchor="middle" x="241.05" y="-1523.75" font-family="Times,serif" font-size="14.00">okhmeta:LegalTag</text>
</g>
<!-- http://w3id.org/oseg/ont/okh#alternativeLicense&#45;&gt;http://w3id.org/oseg/ont/okhmetaLegalTag -->
<g id="edge34" class="edge">
<title>http://w3id.org/oseg/ont/okh#alternativeLicense&#45;&gt;http://w3id.org/oseg/ont/okhmetaLegalTag</title>
<path fill="none" stroke="black" d="M464.86,-1385.5C419.71,-1414.13 325.15,-1474.11 274.6,-1506.17"/>
<polygon fill="black" stroke="black" points="272.57,-1503.32 266,-1511.63 276.31,-1509.23 272.57,-1503.32"/>
<text text-anchor="middle" x="292.73" y="-1449.63" font-family="Times,serif" font-size="14.00">okhmeta:hasMetaTag</text>
</g>
<!-- http://spdx.org/rdf/terms#ListedLicense -->
<g id="node12" class="node">
<title>http://spdx.org/rdf/terms#ListedLicense</title>
<ellipse fill="none" stroke="#e377c2" cx="108.37" cy="-1302.16" rx="108.38" ry="16.03"/>
<text text-anchor="middle" x="108.37" y="-1298.46" font-family="Times,serif" font-size="14.00">spdx:ListedLicense</text>
</g>
<!-- http://w3id.org/oseg/ont/okh#spdxLicense -->
<g id="node14" class="node">
<title>http://w3id.org/oseg/ont/okh#spdxLicense</title>
<ellipse fill="none" stroke="#e377c2" cx="432.84" cy="-1313.4" rx="94.51" ry="16.03"/>
<text text-anchor="middle" x="432.84" y="-1309.7" font-family="Times,serif" font-size="14.00">okh:spdxLicense</text>
</g>
<!-- http://w3id.org/oseg/ont/okh#spdxLicense&#45;&gt;http://www.w3.org/2002/07/owl#ObjectProperty -->
<g id="edge31" class="edge">
<title>http://w3id.org/oseg/ont/okh#spdxLicense&#45;&gt;http://www.w3.org/2002/07/owl#ObjectProperty</title>
<path fill="none" stroke="black" d="M439.07,-1329.73C458.09,-1379.57 515.51,-1530.07 538.77,-1591.02"/>
<polygon fill="black" stroke="black" points="535.61,-1592.57 542.45,-1600.67 542.15,-1590.07 535.61,-1592.57"/>
<text text-anchor="middle" x="484.42" y="-1449.18" font-family="Times,serif" font-size="14.00">a</text>
</g>
<!-- http://w3id.org/oseg/ont/okh#spdxLicense&#45;&gt;http://www.w3.org/2004/02/skos/core#Concept -->
<g id="edge6" class="edge">
<title>http://w3id.org/oseg/ont/okh#spdxLicense&#45;&gt;http://www.w3.org/2004/02/skos/core#Concept</title>
<path fill="none" stroke="black" d="M454.23,-1297.23C503.67,-1259.86 625.9,-1167.46 682.17,-1124.92"/>
<polygon fill="black" stroke="black" points="684.43,-1127.6 690.29,-1118.78 680.21,-1122.02 684.43,-1127.6"/>
<text text-anchor="middle" x="563.7" y="-1214.88" font-family="Times,serif" font-size="14.00">a</text>
</g>
<!-- http://w3id.org/oseg/ont/okh#spdxLicense&#45;&gt;http://spdx.org/rdf/terms#ListedLicense -->
<g id="edge4" class="edge">
<title>http://w3id.org/oseg/ont/okh#spdxLicense&#45;&gt;http://spdx.org/rdf/terms#ListedLicense</title>
<path fill="none" stroke="black" d="M339.86,-1310.18C303.76,-1308.93 262.03,-1307.49 224.02,-1306.17"/>
<polygon fill="black" stroke="black" points="224.04,-1302.67 213.93,-1305.82 223.8,-1309.66 224.04,-1302.67"/>
<text text-anchor="middle" x="281.94" y="-1296.98" font-family="Times,serif" font-size="14.00">dcam:rangeIncludes</text>
</g>
<!-- http://w3id.org/oseg/ont/okh#spdxLicense&#45;&gt;http://schema.org/license -->
<g id="edge43" class="edge">
<title>http://w3id.org/oseg/ont/okh#spdxLicense&#45;&gt;http://schema.org/license</title>
<path fill="none" stroke="black" d="M400.59,-1328.82C360.61,-1347.94 292.43,-1380.54 248.77,-1401.41"/>
<polygon fill="black" stroke="black" points="247.09,-1398.34 239.58,-1405.81 250.11,-1404.65 247.09,-1398.34"/>
<text text-anchor="middle" x="265.68" y="-1353.92" font-family="Times,serif" font-size="14.00">skos:closeMatch</text>
</g>
<!-- http://w3id.org/oseg/ont/okh#spdxLicense&#45;&gt;http://w3id.org/oseg/ont/okh#license -->
<g id="edge44" class="edge">
<title>http://w3id.org/oseg/ont/okh#spdxLicense&#45;&gt;http://w3id.org/oseg/ont/okh#license</title>
<path fill="none" stroke="black" d="M483.85,-1327.17C526.15,-1338.59 586.19,-1354.8 629.64,-1366.53"/>
<polygon fill="black" stroke="black" points="628.9,-1369.96 639.47,-1369.19 630.73,-1363.2 628.9,-1369.96"/>
<text text-anchor="middle" x="476.74" y="-1335.65" font-family="Times,serif" font-size="14.00">schema:supersededBy</text>
</g>
<!-- http://w3id.org/oseg/ont/okh#spdxLicense&#45;&gt;http://w3id.org/oseg/ont/okh#Module -->
<g id="edge18" class="edge">
<title>http://w3id.org/oseg/ont/okh#spdxLicense&#45;&gt;http://w3id.org/oseg/ont/okh#Module</title>
<path fill="none" stroke="black" d="M382.41,-1299.46C355.9,-1292.13 323.35,-1283.14 296.16,-1275.62"/>
<polygon fill="black" stroke="black" points="296.97,-1272.21 286.4,-1272.92 295.11,-1278.96 296.97,-1272.21"/>
<text text-anchor="middle" x="417.28" y="-1276.34" font-family="Times,serif" font-size="14.00">dcam:domainIncludes</text>
</g>
<!-- http://w3id.org/oseg/ont/okh#spdxLicense&#45;&gt;http://w3id.org/oseg/ont/okhmetaLegalTag -->
<g id="edge22" class="edge">
<title>http://w3id.org/oseg/ont/okh#spdxLicense&#45;&gt;http://w3id.org/oseg/ont/okhmetaLegalTag</title>
<path fill="none" stroke="black" d="M418.42,-1329.49C384.96,-1366.84 301.88,-1459.56 262.46,-1503.56"/>
<polygon fill="black" stroke="black" points="259.69,-1501.4 255.63,-1511.18 264.91,-1506.07 259.69,-1501.4"/>
<text text-anchor="middle" x="417.44" y="-1420.32" font-family="Times,serif" font-size="14.00">okhmeta:hasMetaTag</text>
</g>
<!-- http://w3id.org/oseg/ont/okh#unit -->
<g id="node15" class="node">
<title>http://w3id.org/oseg/ont/okh#unit</title>
<ellipse fill="none" stroke="#e377c2" cx="1024.18" cy="-678.69" rx="53.07" ry="16.03"/>
<text text-anchor="middle" x="1024.18" y="-674.99" font-family="Times,serif" font-size="14.00">okh:unit</text>
</g>
<!-- http://w3id.org/oseg/ont/okh#unit&#45;&gt;http://www.w3.org/2002/07/owl#DatatypeProperty -->
<g id="edge7" class="edge">
<title>http://w3id.org/oseg/ont/okh#unit&#45;&gt;http://www.w3.org/2002/07/owl#DatatypeProperty</title>
<path fill="none" stroke="black" d="M1002.47,-663.54C965.16,-637.5 888.75,-584.18 845.52,-554.01"/>
<polygon fill="black" stroke="black" points="847.28,-550.98 837.08,-548.12 843.28,-556.72 847.28,-550.98"/>
<text text-anchor="middle" x="919.49" y="-612.58" font-family="Times,serif" font-size="14.00">a</text>
</g>
<!-- http://w3id.org/oseg/ont/okh#unit&#45;&gt;http://w3id.org/oseg/ont/okh#Mass -->
<g id="edge38" class="edge">
<title>http://w3id.org/oseg/ont/okh#unit&#45;&gt;http://w3id.org/oseg/ont/okh#Mass</title>
<path fill="none" stroke="black" d="M1010.11,-694.46C984.21,-723.48 928.85,-785.49 898.46,-819.54"/>
<polygon fill="black" stroke="black" points="895.71,-817.36 891.66,-827.15 900.93,-822.02 895.71,-817.36"/>
<text text-anchor="middle" x="876.29" y="-760.8" font-family="Times,serif" font-size="14.00">dcam:domainIncludes</text>
</g>
<!-- http://w3id.org/oseg/ont/okh#Dimensions -->
<g id="node17" class="node">
<title>http://w3id.org/oseg/ont/okh#Dimensions</title>
<ellipse fill="none" stroke="#e377c2" cx="1205.93" cy="-508.57" rx="91.85" ry="16.03"/>
<text text-anchor="middle" x="1205.93" y="-504.87" font-family="Times,serif" font-size="14.00">okh:Dimensions</text>
</g>
<!-- http://w3id.org/oseg/ont/okh#unit&#45;&gt;http://w3id.org/oseg/ont/okh#Dimensions -->
<g id="edge9" class="edge">
<title>http://w3id.org/oseg/ont/okh#unit&#45;&gt;http://w3id.org/oseg/ont/okh#Dimensions</title>
<path fill="none" stroke="black" d="M1040.96,-662.99C1073.12,-632.89 1143.59,-566.92 1181.17,-531.74"/>
<polygon fill="black" stroke="black" points="1183.76,-534.11 1188.67,-524.73 1178.97,-529 1183.76,-534.11"/>
<text text-anchor="middle" x="1033.06" y="-601.17" font-family="Times,serif" font-size="14.00">dcam:domainIncludes</text>
</g>
<!-- http://w3id.org/oseg/ont/okh#value -->
<g id="node18" class="node">
<title>http://w3id.org/oseg/ont/okh#value</title>
<ellipse fill="none" stroke="#e377c2" cx="802.5" cy="-587.27" rx="60.21" ry="16.03"/>
<text text-anchor="middle" x="802.5" y="-583.57" font-family="Times,serif" font-size="14.00">okh:value</text>
</g>
<!-- http://w3id.org/oseg/ont/okh#value&#45;&gt;http://www.w3.org/2002/07/owl#DatatypeProperty -->
<g id="edge10" class="edge">
<title>http://w3id.org/oseg/ont/okh#value&#45;&gt;http://www.w3.org/2002/07/owl#DatatypeProperty</title>
<path fill="none" stroke="black" d="M805.86,-570.97C806.69,-566.96 807.59,-562.55 808.49,-558.2"/>
<polygon fill="black" stroke="black" points="811.93,-558.82 810.52,-548.32 805.08,-557.41 811.93,-558.82"/>
<text text-anchor="middle" x="802.67" y="-553.38" font-family="Times,serif" font-size="14.00">a</text>
</g>
<!-- http://w3id.org/oseg/ont/okh#value&#45;&gt;http://w3id.org/oseg/ont/okh#Mass -->
<g id="edge28" class="edge">
<title>http://w3id.org/oseg/ont/okh#value&#45;&gt;http://w3id.org/oseg/ont/okh#Mass</title>
<path fill="none" stroke="black" d="M807.3,-603.67C819.96,-646.9 854.34,-764.29 869.75,-816.94"/>
<polygon fill="black" stroke="black" points="866.49,-818.24 872.66,-826.85 873.21,-816.27 866.49,-818.24"/>
<text text-anchor="middle" x="760.53" y="-714.1" font-family="Times,serif" font-size="14.00">dcam:domainIncludes</text>
</g>
<!-- http://w3id.org/oseg/ont/okh#hasMass -->
<g id="node41" class="node">
<title>http://w3id.org/oseg/ont/okh#hasMass</title>
<ellipse fill="none" stroke="#e377c2" cx="588.61" cy="-481.25" rx="77.15" ry="16.03"/>
<text text-anchor="middle" x="588.61" y="-477.55" font-family="Times,serif" font-size="14.00">okh:hasMass</text>
</g>
<!-- http://w3id.org/oseg/ont/okh#value&#45;&gt;http://w3id.org/oseg/ont/okh#hasMass -->
<g id="edge53" class="edge">
<title>http://w3id.org/oseg/ont/okh#value&#45;&gt;http://w3id.org/oseg/ont/okh#hasMass</title>
<path fill="none" stroke="black" d="M773.66,-572.97C736.13,-554.37 670.39,-521.78 628.21,-500.88"/>
<polygon fill="black" stroke="black" points="629.59,-497.65 619.07,-496.34 626.48,-503.92 629.59,-497.65"/>
<text text-anchor="middle" x="620.94" y="-540.73" font-family="Times,serif" font-size="14.00">schema:supersededBy</text>
</g>
<!-- http://www.w3.org/2001/XMLSchema#string -->
<g id="node21" class="node">
<title>http://www.w3.org/2001/XMLSchema#string</title>
<ellipse fill="none" stroke="#e377c2" cx="1124.33" cy="-21.23" rx="62.87" ry="16.03"/>
<text text-anchor="middle" x="1124.33" y="-17.53" font-family="Times,serif" font-size="14.00">xsd:string</text>
</g>
<!-- http://w3id.org/oseg/ont/okh#openScad -->
<g id="node22" class="node">
<title>http://w3id.org/oseg/ont/okh#openScad</title>
<ellipse fill="none" stroke="#e377c2" cx="917.87" cy="-224.24" rx="82.05" ry="16.03"/>
<text text-anchor="middle" x="917.87" y="-220.54" font-family="Times,serif" font-size="14.00">okh:openScad</text>
</g>
<!-- http://w3id.org/oseg/ont/okh#openScad&#45;&gt;http://www.w3.org/2002/07/owl#DatatypeProperty -->
<g id="edge15" class="edge">
<title>http://w3id.org/oseg/ont/okh#openScad&#45;&gt;http://www.w3.org/2002/07/owl#DatatypeProperty</title>
<path fill="none" stroke="black" d="M912.28,-240.78C895.17,-291.4 843.44,-444.5 822.67,-505.98"/>
<polygon fill="black" stroke="black" points="819.27,-505.1 819.38,-515.69 825.9,-507.34 819.27,-505.1"/>
<text text-anchor="middle" x="862.97" y="-377.18" font-family="Times,serif" font-size="14.00">a</text>
</g>
<!-- http://w3id.org/oseg/ont/okh#openSCAD -->
<g id="node24" class="node">
<title>http://w3id.org/oseg/ont/okh#openSCAD</title>
<ellipse fill="none" stroke="#e377c2" cx="1077.17" cy="-283.55" rx="86.03" ry="16.03"/>
<text text-anchor="middle" x="1077.17" y="-279.85" font-family="Times,serif" font-size="14.00">okh:openSCAD</text>
</g>
<!-- http://w3id.org/oseg/ont/okh#openScad&#45;&gt;http://w3id.org/oseg/ont/okh#openSCAD -->
<g id="edge16" class="edge">
<title>http://w3id.org/oseg/ont/okh#openScad&#45;&gt;http://w3id.org/oseg/ont/okh#openSCAD</title>
<path fill="none" stroke="black" d="M944.13,-239.66C963.31,-248.21 990.12,-258.64 1014.65,-267.28"/>
<polygon fill="black" stroke="black" points="1013.68,-270.65 1024.28,-270.62 1015.97,-264.04 1013.68,-270.65"/>
<text text-anchor="middle" x="899.39" y="-257.27" font-family="Times,serif" font-size="14.00">schema:supersededBy</text>
</g>
<!-- http://w3id.org/oseg/ont/okh#openScad&#45;&gt;http://w3id.org/oseg/ont/okh#openSCAD -->
<g id="edge20" class="edge">
<title>http://w3id.org/oseg/ont/okh#openScad&#45;&gt;http://w3id.org/oseg/ont/okh#openSCAD</title>
<path fill="none" stroke="black" d="M970.04,-236.92C993.39,-244.86 1020.33,-255.06 1041.35,-263.98"/>
<polygon fill="black" stroke="black" points="1040,-267.21 1050.57,-267.98 1042.79,-260.79 1040,-267.21"/>
<text text-anchor="middle" x="1048.2" y="-254.25" font-family="Times,serif" font-size="14.00">owl:sameAs</text>
</g>
<!-- http://w3id.org/oseg/ont/okh#openSCAD&#45;&gt;http://www.w3.org/2002/07/owl#DatatypeProperty -->
<g id="edge45" class="edge">
<title>http://w3id.org/oseg/ont/okh#openSCAD&#45;&gt;http://www.w3.org/2002/07/owl#DatatypeProperty</title>
<path fill="none" stroke="black" d="M1059.89,-299.85C1014.52,-342.66 891.81,-458.43 838.82,-508.42"/>
<polygon fill="black" stroke="black" points="836.1,-506.18 831.23,-515.58 840.91,-511.27 836.1,-506.18"/>
<text text-anchor="middle" x="944.86" y="-407.94" font-family="Times,serif" font-size="14.00">a</text>
</g>
<!-- http://w3id.org/oseg/ont/okh#openSCAD&#45;&gt;http://w3id.org/oseg/ont/okh#Dimensions -->
<g id="edge49" class="edge">
<title>http://w3id.org/oseg/ont/okh#openSCAD&#45;&gt;http://w3id.org/oseg/ont/okh#Dimensions</title>
<path fill="none" stroke="black" d="M1086.43,-299.73C1108.6,-338.48 1164.87,-436.81 1191.51,-483.38"/>
<polygon fill="black" stroke="black" points="1188.57,-485.29 1196.58,-492.23 1194.65,-481.81 1188.57,-485.29"/>
<text text-anchor="middle" x="1060.97" y="-395.36" font-family="Times,serif" font-size="14.00">dcam:domainIncludes</text>
</g>
<!-- http://w3id.org/oseg/ont/okh#openSCAD&#45;&gt;http://www.w3.org/2001/XMLSchema#string -->
<g id="edge11" class="edge">
<title>http://w3id.org/oseg/ont/okh#openSCAD&#45;&gt;http://www.w3.org/2001/XMLSchema#string</title>
<path fill="none" stroke="black" d="M1080.12,-267.14C1088.04,-223.07 1109.84,-101.81 1119.55,-47.79"/>
<polygon fill="black" stroke="black" points="1123.05,-48.09 1121.38,-37.63 1116.16,-46.85 1123.05,-48.09"/>
<text text-anchor="middle" x="1027.33" y="-161.27" font-family="Times,serif" font-size="14.00">dcam:rangeIncludes</text>
</g>
<!-- http://w3id.org/oseg/ont/okh#height -->
<g id="node29" class="node">
<title>http://w3id.org/oseg/ont/okh#height</title>
<ellipse fill="none" stroke="#e377c2" cx="1239.93" cy="-69.08" rx="65.11" ry="16.03"/>
<text text-anchor="middle" x="1239.93" y="-65.38" font-family="Times,serif" font-size="14.00">okh:height</text>
</g>
<!-- http://w3id.org/oseg/ont/okh#openSCAD&#45;&gt;http://w3id.org/oseg/ont/okh#height -->
<g id="edge24" class="edge">
<title>http://w3id.org/oseg/ont/okh#openSCAD&#45;&gt;http://w3id.org/oseg/ont/okh#height</title>
<path fill="none" stroke="black" d="M1089.4,-267.43C1117.75,-230.08 1188.06,-137.43 1221.58,-93.25"/>
<polygon fill="black" stroke="black" points="1224.52,-95.17 1227.77,-85.09 1218.94,-90.94 1224.52,-95.17"/>
<text text-anchor="middle" x="1075.49" y="-184.14" font-family="Times,serif" font-size="14.00">schema:supersededBy</text>
</g>
<!-- http://w3id.org/oseg/ont/okh#depth -->
<g id="node30" class="node">
<title>http://w3id.org/oseg/ont/okh#depth</title>
<ellipse fill="none" stroke="#e377c2" cx="1315.19" cy="-170.88" rx="62.45" ry="16.03"/>
<text text-anchor="middle" x="1315.19" y="-167.18" font-family="Times,serif" font-size="14.00">okh:depth</text>
</g>
<!-- http://w3id.org/oseg/ont/okh#openSCAD&#45;&gt;http://w3id.org/oseg/ont/okh#depth -->
<g id="edge26" class="edge">
<title>http://w3id.org/oseg/ont/okh#openSCAD&#45;&gt;http://w3id.org/oseg/ont/okh#depth</title>
<path fill="none" stroke="black" d="M1109.27,-268.36C1152.48,-247.9 1229.3,-211.53 1275.91,-189.47"/>
<polygon fill="black" stroke="black" points="1277.55,-192.56 1285.09,-185.12 1274.56,-186.24 1277.55,-192.56"/>
<text text-anchor="middle" x="1272.59" y="-232.71" font-family="Times,serif" font-size="14.00">schema:supersededBy</text>
</g>
<!-- http://w3id.org/oseg/ont/okh#width -->
<g id="node33" class="node">
<title>http://w3id.org/oseg/ont/okh#width</title>
<ellipse fill="none" stroke="#e377c2" cx="1135.07" cy="-222.94" rx="61.54" ry="16.03"/>
<text text-anchor="middle" x="1135.07" y="-219.24" font-family="Times,serif" font-size="14.00">okh:width</text>
</g>
<!-- http://w3id.org/oseg/ont/okh#openSCAD&#45;&gt;http://w3id.org/oseg/ont/okh#width -->
<g id="edge33" class="edge">
<title>http://w3id.org/oseg/ont/okh#openSCAD&#45;&gt;http://w3id.org/oseg/ont/okh#width</title>
<path fill="none" stroke="black" d="M1092.68,-267.31C1098.88,-260.82 1106.14,-253.23 1112.87,-246.17"/>
<polygon fill="black" stroke="black" points="1115.53,-248.46 1119.91,-238.81 1110.47,-243.62 1115.53,-248.46"/>
<text text-anchor="middle" x="1182.78" y="-245.54" font-family="Times,serif" font-size="14.00">schema:supersededBy</text>
</g>
<!-- http://w3id.org/oseg/ont/okh#okhvOrig -->
<g id="node25" class="node">
<title>http://w3id.org/oseg/ont/okh#okhvOrig</title>
<ellipse fill="none" stroke="#e377c2" cx="391.35" cy="-16.42" rx="79.39" ry="16.03"/>
<text text-anchor="middle" x="391.35" y="-12.72" font-family="Times,serif" font-size="14.00">okh:okhvOrig</text>
</g>
<!-- http://w3id.org/oseg/ont/okh#fileUrl -->
<g id="node31" class="node">
<title>http://w3id.org/oseg/ont/okh#fileUrl</title>
<ellipse fill="none" stroke="#e377c2" cx="536.09" cy="-1688.11" rx="65.11" ry="16.03"/>
<text text-anchor="middle" x="536.09" y="-1684.41" font-family="Times,serif" font-size="14.00">okh:fileUrl</text>
</g>
<!-- http://w3id.org/oseg/ont/okh#fileUrl&#45;&gt;http://www.w3.org/2002/07/owl#ObjectProperty -->
<g id="edge27" class="edge">
<title>http://w3id.org/oseg/ont/okh#fileUrl&#45;&gt;http://www.w3.org/2002/07/owl#ObjectProperty</title>
<path fill="none" stroke="black" d="M539.02,-1671.63C540.5,-1663.29 542.33,-1652.97 544.01,-1643.55"/>
<polygon fill="black" stroke="black" points="547.5,-1643.92 545.8,-1633.46 540.6,-1642.69 547.5,-1643.92"/>
<text text-anchor="middle" x="537.01" y="-1646.39" font-family="Times,serif" font-size="14.00">a</text>
</g>
<!-- http://w3id.org/oseg/ont/okh#fileUrl&#45;&gt;http://w3id.org/oseg/ont/okh#File -->
<g id="edge42" class="edge">
<title>http://w3id.org/oseg/ont/okh#fileUrl&#45;&gt;http://w3id.org/oseg/ont/okh#File</title>
<path fill="none" stroke="black" d="M561.66,-1673.07C596.12,-1652.79 657.54,-1616.65 695.5,-1594.31"/>
<polygon fill="black" stroke="black" points="697.31,-1597.31 704.15,-1589.22 693.76,-1591.28 697.31,-1597.31"/>
<text text-anchor="middle" x="706.58" y="-1637.49" font-family="Times,serif" font-size="14.00">dcam:domainIncludes</text>
</g>
<!-- http://schema.org/url -->
<g id="node32" class="node">
<title>http://schema.org/url</title>
<ellipse fill="none" stroke="#e377c2" cx="362.87" cy="-1844.62" rx="67.35" ry="16.03"/>
<text text-anchor="middle" x="362.87" y="-1840.92" font-family="Times,serif" font-size="14.00">schema:url</text>
</g>
<!-- http://w3id.org/oseg/ont/okh#fileUrl&#45;&gt;http://schema.org/url -->
<g id="edge29" class="edge">
<title>http://w3id.org/oseg/ont/okh#fileUrl&#45;&gt;http://schema.org/url</title>
<path fill="none" stroke="black" d="M518.53,-1703.98C487.66,-1731.87 423.59,-1789.75 388.03,-1821.89"/>
<polygon fill="black" stroke="black" points="385.55,-1819.41 380.48,-1828.71 390.24,-1824.6 385.55,-1819.41"/>
<text text-anchor="middle" x="400.28" y="-1766.73" font-family="Times,serif" font-size="14.00">subPropertyOf</text>
</g>
<!-- http://w3id.org/oseg/ont/okh#url -->
<g id="node42" class="node">
<title>http://w3id.org/oseg/ont/okh#url</title>
<ellipse fill="none" stroke="#e377c2" cx="521.38" cy="-1886.37" rx="47.25" ry="16.03"/>
<text text-anchor="middle" x="521.38" y="-1882.67" font-family="Times,serif" font-size="14.00">okh:url</text>
</g>
<!-- http://w3id.org/oseg/ont/okh#fileUrl&#45;&gt;http://w3id.org/oseg/ont/okh#url -->
<g id="edge56" class="edge">
<title>http://w3id.org/oseg/ont/okh#fileUrl&#45;&gt;http://w3id.org/oseg/ont/okh#url</title>
<path fill="none" stroke="black" d="M534.86,-1704.67C532.31,-1739.01 526.44,-1818.24 523.35,-1859.81"/>
<polygon fill="black" stroke="black" points="519.85,-1859.76 522.6,-1869.99 526.83,-1860.28 519.85,-1859.76"/>
<text text-anchor="middle" x="449.11" y="-1786.04" font-family="Times,serif" font-size="14.00">schema:supersededBy</text>
</g>
<!-- http://w3id.org/oseg/ont/okh#tsdc -->
<g id="node35" class="node">
<title>http://w3id.org/oseg/ont/okh#tsdc</title>
<ellipse fill="none" stroke="#e377c2" cx="445.91" cy="-2232.24" rx="54.39" ry="16.03"/>
<text text-anchor="middle" x="445.91" y="-2228.54" font-family="Times,serif" font-size="14.00">okh:tsdc</text>
</g>
<!-- http://w3id.org/oseg/ont/okh#relatedTsdc -->
<g id="node36" class="node">
<title>http://w3id.org/oseg/ont/okh#relatedTsdc</title>
<ellipse fill="none" stroke="#e377c2" cx="493.65" cy="-1972.72" rx="91.85" ry="16.03"/>
<text text-anchor="middle" x="493.65" y="-1969.02" font-family="Times,serif" font-size="14.00">okh:relatedTsdc</text>
</g>
<!-- http://w3id.org/oseg/ont/okh#relatedTsdc&#45;&gt;http://www.w3.org/2002/07/owl#ObjectProperty -->
<g id="edge39" class="edge">
<title>http://w3id.org/oseg/ont/okh#relatedTsdc&#45;&gt;http://www.w3.org/2002/07/owl#ObjectProperty</title>
<path fill="none" stroke="black" d="M496.23,-1956.05C505.01,-1899.34 533.76,-1713.63 544.56,-1643.88"/>
<polygon fill="black" stroke="black" points="548.06,-1644.13 546.13,-1633.71 541.15,-1643.06 548.06,-1644.13"/>
<text text-anchor="middle" x="515.9" y="-1803.76" font-family="Times,serif" font-size="14.00">a</text>
</g>
<!-- http://w3id.org/oseg/ont/okh#relatedTsdc&#45;&gt;http://w3id.org/oseg/ont/okh#tsdc -->
<g id="edge37" class="edge">
<title>http://w3id.org/oseg/ont/okh#relatedTsdc&#45;&gt;http://w3id.org/oseg/ont/okh#tsdc</title>
<path fill="none" stroke="black" d="M487.02,-1989.11C474.9,-2032.8 452.68,-2152.34 446.47,-2205.8"/>
<polygon fill="black" stroke="black" points="442.98,-2205.55 445.42,-2215.86 449.94,-2206.28 442.98,-2205.55"/>
<text text-anchor="middle" x="386.74" y="-2101.25" font-family="Times,serif" font-size="14.00">schema:supersededBy</text>
</g>
<!-- http://w3id.org/oseg/ont/okh#relatedTsdc&#45;&gt;http://w3id.org/oseg/ont/okh#tsdc -->
<g id="edge40" class="edge">
<title>http://w3id.org/oseg/ont/okh#relatedTsdc&#45;&gt;http://w3id.org/oseg/ont/okh#tsdc</title>
<path fill="none" stroke="black" d="M494.13,-1989.19C490.22,-2033.06 468.45,-2152.97 455.08,-2206.2"/>
<polygon fill="black" stroke="black" points="451.69,-2205.35 452.53,-2215.91 458.46,-2207.13 451.69,-2205.35"/>
<text text-anchor="middle" x="517.11" y="-2101.49" font-family="Times,serif" font-size="14.00">owl:sameAs</text>
</g>
<!-- http://w3id.org/oseg/ont/okh#permaURL -->
<g id="node39" class="node">
<title>http://w3id.org/oseg/ont/okh#permaURL</title>
<ellipse fill="none" stroke="#e377c2" cx="762.74" cy="-1807.26" rx="87.86" ry="16.03"/>
<text text-anchor="middle" x="762.74" y="-1803.56" font-family="Times,serif" font-size="14.00">okh:permaURL</text>
</g>
<!-- http://w3id.org/oseg/ont/okh#permaURL&#45;&gt;http://www.w3.org/2002/07/owl#ObjectProperty -->
<g id="edge47" class="edge">
<title>http://w3id.org/oseg/ont/okh#permaURL&#45;&gt;http://www.w3.org/2002/07/owl#ObjectProperty</title>
<path fill="none" stroke="black" d="M744.49,-1791.04C706.42,-1757.22 618.45,-1679.04 574.57,-1640.05"/>
<polygon fill="black" stroke="black" points="576.71,-1637.27 566.91,-1633.25 572.06,-1642.51 576.71,-1637.27"/>
<text text-anchor="middle" x="655.03" y="-1719.35" font-family="Times,serif" font-size="14.00">a</text>
</g>
<!-- http://w3id.org/oseg/ont/okh#permaURL&#45;&gt;http://w3id.org/oseg/ont/okh#File -->
<g id="edge5" class="edge">
<title>http://w3id.org/oseg/ont/okh#permaURL&#45;&gt;http://w3id.org/oseg/ont/okh#File</title>
<path fill="none" stroke="black" d="M760.34,-1790.92C754.51,-1751.24 739.58,-1649.55 732.47,-1601.17"/>
<polygon fill="black" stroke="black" points="735.92,-1600.55 731,-1591.16 728.99,-1601.56 735.92,-1600.55"/>
<text text-anchor="middle" x="824.4" y="-1699.84" font-family="Times,serif" font-size="14.00">dcam:domainIncludes</text>
</g>
<!-- http://w3id.org/oseg/ont/okh#okhvPresent -->
<g id="node40" class="node">
<title>http://w3id.org/oseg/ont/okh#okhvPresent</title>
<ellipse fill="none" stroke="#e377c2" cx="556.75" cy="-257.66" rx="96.33" ry="16.03"/>
<text text-anchor="middle" x="556.75" y="-253.96" font-family="Times,serif" font-size="14.00">okh:okhvPresent</text>
</g>
<!-- http://w3id.org/oseg/ont/okh#okhvPresent&#45;&gt;http://www.w3.org/2002/07/owl#DatatypeProperty -->
<g id="edge50" class="edge">
<title>http://w3id.org/oseg/ont/okh#okhvPresent&#45;&gt;http://www.w3.org/2002/07/owl#DatatypeProperty</title>
<path fill="none" stroke="black" d="M572.07,-274C615.66,-320.5 740.55,-453.71 791.67,-508.24"/>
<polygon fill="black" stroke="black" points="789.26,-510.79 798.66,-515.69 794.37,-506 789.26,-510.79"/>
<text text-anchor="middle" x="677.37" y="-394.92" font-family="Times,serif" font-size="14.00">a</text>
</g>
<!-- http://w3id.org/oseg/ont/okh#okhvPresent&#45;&gt;http://w3id.org/oseg/ont/okh#okhvOrig -->
<g id="edge17" class="edge">
<title>http://w3id.org/oseg/ont/okh#okhvPresent&#45;&gt;http://w3id.org/oseg/ont/okh#okhvOrig</title>
<path fill="none" stroke="black" d="M545.64,-241.46C517.28,-200.09 442.03,-90.34 408.22,-41.02"/>
<polygon fill="black" stroke="black" points="410.95,-38.82 402.41,-32.55 405.18,-42.78 410.95,-38.82"/>
<text text-anchor="middle" x="449.43" y="-145.04" font-family="Times,serif" font-size="14.00">seeAlso</text>
</g>
<!-- http://w3id.org/oseg/ont/okh#okhvPresent&#45;&gt;http://w3id.org/oseg/ont/okh#okhv -->
<g id="edge41" class="edge">
<title>http://w3id.org/oseg/ont/okh#okhvPresent&#45;&gt;http://w3id.org/oseg/ont/okh#okhv</title>
<path fill="none" stroke="black" d="M652.93,-257.38C668.83,-257.34 685,-257.29 699.98,-257.25"/>
<polygon fill="black" stroke="black" points="700.15,-260.75 710.14,-257.22 700.13,-253.75 700.15,-260.75"/>
<text text-anchor="middle" x="649.95" y="-246.12" font-family="Times,serif" font-size="14.00">subPropertyOf</text>
</g>
</g>
</svg>
