<?xml version="1.0" encoding="UTF-8" standalone="no"?>
<!DOCTYPE svg PUBLIC "-//W3C//DTD SVG 1.1//EN"
 "http://www.w3.org/Graphics/SVG/1.1/DTD/svg11.dtd">
<!-- Generated by graphviz version 2.43.0 (0)
 -->
<!-- Title: G Pages: 1 -->
<svg width="2436pt" height="1448pt"
 viewBox="0.00 0.00 2436.00 1448.00" xmlns="http://www.w3.org/2000/svg" xmlns:xlink="http://www.w3.org/1999/xlink">
<g id="graph0" class="graph" transform="scale(1 1) rotate(0) translate(4 1444)">
<title>G</title>
<polygon fill="white" stroke="transparent" points="-4,4 -4,-1444 2432,-1444 2432,4 -4,4"/>
<!-- http://w3id.org/oseg/ont/otrl#ODRL -->
<g id="node1" class="node">
<title>http://w3id.org/oseg/ont/otrl#ODRL</title>
<ellipse fill="none" stroke="#e377c2" cx="1019.37" cy="-656.2" rx="62.87" ry="16.03"/>
<text text-anchor="middle" x="1019.37" y="-652.5" font-family="Times,serif" font-size="14.00">otrl:ODRL</text>
</g>
<!-- http://spdx.org/rdf/terms#SpdxItem -->
<g id="node2" class="node">
<title>http://spdx.org/rdf/terms#SpdxItem</title>
<ellipse fill="none" stroke="#1f77b4" cx="1558.17" cy="-1274.41" rx="87.86" ry="16.03"/>
<text text-anchor="middle" x="1558.17" y="-1270.71" font-family="Times,serif" font-size="14.00">spdx:SpdxItem</text>
</g>
<!-- http://w3id.org/oseg/ont/otrl#OTRL -->
<g id="node3" class="node">
<title>http://w3id.org/oseg/ont/otrl#OTRL</title>
<ellipse fill="none" stroke="#e377c2" cx="1590.02" cy="-514.31" rx="60.62" ry="16.03"/>
<text text-anchor="middle" x="1590.02" y="-510.61" font-family="Times,serif" font-size="14.00">otrl:OTRL</text>
</g>
<!-- http://spdx.org/licenses/GPL&#45;3.0&#45;or&#45;later -->
<g id="node4" class="node">
<title>http://spdx.org/licenses/GPL&#45;3.0&#45;or&#45;later</title>
<ellipse fill="none" stroke="#e377c2" cx="1796.19" cy="-1306.66" rx="108.79" ry="16.03"/>
<text text-anchor="middle" x="1796.19" y="-1302.96" font-family="Times,serif" font-size="14.00">spdxl:GPL&#45;3.0&#45;or&#45;...</text>
</g>
<!-- http://w3id.org/oseg/ont/otrl#OTRL6 -->
<g id="node5" class="node">
<title>http://w3id.org/oseg/ont/otrl#OTRL6</title>
<ellipse fill="none" stroke="#e377c2" cx="1789.86" cy="-311.67" rx="67.35" ry="16.03"/>
<text text-anchor="middle" x="1789.86" y="-307.97" font-family="Times,serif" font-size="14.00">otrl:OTRL6</text>
</g>
<!-- http://w3id.org/oseg/ont/otrl#OTRL6&#45;&gt;http://w3id.org/oseg/ont/otrl#OTRL -->
<g id="edge3" class="edge">
<title>http://w3id.org/oseg/ont/otrl#OTRL6&#45;&gt;http://w3id.org/oseg/ont/otrl#OTRL</title>
<path fill="none" stroke="black" d="M1774.18,-327.57C1739.01,-363.23 1653.72,-449.71 1612.74,-491.27"/>
<polygon fill="black" stroke="black" points="1610.16,-488.9 1605.63,-498.48 1615.14,-493.82 1610.16,-488.9"/>
<text text-anchor="middle" x="1688.96" y="-413.22" font-family="Times,serif" font-size="14.00">a</text>
</g>
<!-- http://w3id.org/oseg/ont/otrl#exitCriteria -->
<g id="node6" class="node">
<title>http://w3id.org/oseg/ont/otrl#exitCriteria</title>
<ellipse fill="none" stroke="#e377c2" cx="1292.63" cy="-521.8" rx="91.43" ry="16.03"/>
<text text-anchor="middle" x="1292.63" y="-518.1" font-family="Times,serif" font-size="14.00">otrl:exitCriteria</text>
</g>
<!-- http://w3id.org/oseg/ont/otrl#exitCriteria&#45;&gt;http://w3id.org/oseg/ont/otrl#ODRL -->
<g id="edge21" class="edge">
<title>http://w3id.org/oseg/ont/otrl#exitCriteria&#45;&gt;http://w3id.org/oseg/ont/otrl#ODRL</title>
<path fill="none" stroke="black" d="M1261.28,-537.22C1210.92,-561.99 1112.15,-610.57 1057.69,-637.35"/>
<polygon fill="black" stroke="black" points="1056.13,-634.22 1048.7,-641.78 1059.22,-640.5 1056.13,-634.22"/>
<text text-anchor="middle" x="1081.48" y="-591.09" font-family="Times,serif" font-size="14.00">dcam:domainIncludes</text>
</g>
<!-- http://w3id.org/oseg/ont/otrl#exitCriteria&#45;&gt;http://w3id.org/oseg/ont/otrl#OTRL -->
<g id="edge30" class="edge">
<title>http://w3id.org/oseg/ont/otrl#exitCriteria&#45;&gt;http://w3id.org/oseg/ont/otrl#OTRL</title>
<path fill="none" stroke="black" d="M1383.07,-519.52C1426.7,-518.42 1478.29,-517.12 1519.05,-516.1"/>
<polygon fill="black" stroke="black" points="1519.25,-519.59 1529.16,-515.84 1519.08,-512.59 1519.25,-519.59"/>
<text text-anchor="middle" x="1451.06" y="-506.61" font-family="Times,serif" font-size="14.00">dcam:domainIncludes</text>
</g>
<!-- http://www.w3.org/1999/02/22&#45;rdf&#45;syntax&#45;ns#langString -->
<g id="node7" class="node">
<title>http://www.w3.org/1999/02/22&#45;rdf&#45;syntax&#45;ns#langString</title>
<ellipse fill="none" stroke="#e377c2" cx="1442.87" cy="-661.27" rx="83.38" ry="16.03"/>
<text text-anchor="middle" x="1442.87" y="-657.57" font-family="Times,serif" font-size="14.00">rdf:langString</text>
</g>
<!-- http://w3id.org/oseg/ont/otrl#exitCriteria&#45;&gt;http://www.w3.org/1999/02/22&#45;rdf&#45;syntax&#45;ns#langString -->
<g id="edge12" class="edge">
<title>http://w3id.org/oseg/ont/otrl#exitCriteria&#45;&gt;http://www.w3.org/1999/02/22&#45;rdf&#45;syntax&#45;ns#langString</title>
<path fill="none" stroke="black" d="M1309.86,-537.8C1336.32,-562.37 1387.1,-609.5 1417.69,-637.9"/>
<polygon fill="black" stroke="black" points="1415.66,-640.79 1425.37,-645.03 1420.42,-635.66 1415.66,-640.79"/>
<text text-anchor="middle" x="1384.77" y="-591.65" font-family="Times,serif" font-size="14.00">range</text>
</g>
<!-- http://w3id.org/oseg/ont/otrl#OTRL2 -->
<g id="node8" class="node">
<title>http://w3id.org/oseg/ont/otrl#OTRL2</title>
<ellipse fill="none" stroke="#e377c2" cx="1490.38" cy="-747.3" rx="67.35" ry="16.03"/>
<text text-anchor="middle" x="1490.38" y="-743.6" font-family="Times,serif" font-size="14.00">otrl:OTRL2</text>
</g>
<!-- http://w3id.org/oseg/ont/otrl#OTRL2&#45;&gt;http://w3id.org/oseg/ont/otrl#OTRL -->
<g id="edge5" class="edge">
<title>http://w3id.org/oseg/ont/otrl#OTRL2&#45;&gt;http://w3id.org/oseg/ont/otrl#OTRL</title>
<path fill="none" stroke="black" d="M1497.38,-730.92C1514.46,-690.98 1558.35,-588.35 1578.99,-540.1"/>
<polygon fill="black" stroke="black" points="1582.31,-541.24 1583.02,-530.67 1575.87,-538.49 1582.31,-541.24"/>
<text text-anchor="middle" x="1533.68" y="-639.31" font-family="Times,serif" font-size="14.00">a</text>
</g>
<!-- http://w3id.org/oseg/ont/oseg&#45;profiles#martinHaeuer -->
<g id="node9" class="node">
<title>http://w3id.org/oseg/ont/oseg&#45;profiles#martinHaeuer</title>
<ellipse fill="none" stroke="#e377c2" cx="1760.06" cy="-1223.06" rx="116.85" ry="16.03"/>
<text text-anchor="middle" x="1760.06" y="-1219.36" font-family="Times,serif" font-size="14.00">osegprof:martinHa...</text>
</g>
<!-- http://w3id.org/oseg/ont/otrl#ODRL3 -->
<g id="node10" class="node">
<title>http://w3id.org/oseg/ont/otrl#ODRL3</title>
<ellipse fill="none" stroke="#e377c2" cx="815.57" cy="-839.34" rx="69.09" ry="16.03"/>
<text text-anchor="middle" x="815.57" y="-835.64" font-family="Times,serif" font-size="14.00">otrl:ODRL3</text>
</g>
<!-- http://w3id.org/oseg/ont/otrl#ODRL3&#45;&gt;http://w3id.org/oseg/ont/otrl#ODRL -->
<g id="edge35" class="edge">
<title>http://w3id.org/oseg/ont/otrl#ODRL3&#45;&gt;http://w3id.org/oseg/ont/otrl#ODRL</title>
<path fill="none" stroke="black" d="M833.3,-823.41C869.6,-790.79 952.48,-716.31 994.28,-678.75"/>
<polygon fill="black" stroke="black" points="996.73,-681.25 1001.83,-671.96 992.05,-676.04 996.73,-681.25"/>
<text text-anchor="middle" x="909.29" y="-754.88" font-family="Times,serif" font-size="14.00">a</text>
</g>
<!-- http://id.loc.gov/vocabulary/iso639&#45;1/en -->
<g id="node11" class="node">
<title>http://id.loc.gov/vocabulary/iso639&#45;1/en</title>
<ellipse fill="none" stroke="#e377c2" cx="1909.06" cy="-1355.15" rx="45.01" ry="16.03"/>
<text text-anchor="middle" x="1909.06" y="-1351.45" font-family="Times,serif" font-size="14.00">ns1:en</text>
</g>
<!-- http://w3id.org/oseg/ont/otrl#ODRL2 -->
<g id="node12" class="node">
<title>http://w3id.org/oseg/ont/otrl#ODRL2</title>
<ellipse fill="none" stroke="#e377c2" cx="740.42" cy="-700.32" rx="69.09" ry="16.03"/>
<text text-anchor="middle" x="740.42" y="-696.62" font-family="Times,serif" font-size="14.00">otrl:ODRL2</text>
</g>
<!-- http://w3id.org/oseg/ont/otrl#ODRL2&#45;&gt;http://w3id.org/oseg/ont/otrl#ODRL -->
<g id="edge38" class="edge">
<title>http://w3id.org/oseg/ont/otrl#ODRL2&#45;&gt;http://w3id.org/oseg/ont/otrl#ODRL</title>
<path fill="none" stroke="black" d="M798.22,-691.17C844.01,-683.93 907.94,-673.82 955.29,-666.33"/>
<polygon fill="black" stroke="black" points="956.1,-669.75 965.43,-664.73 955.01,-662.83 956.1,-669.75"/>
<text text-anchor="middle" x="872.25" y="-667.55" font-family="Times,serif" font-size="14.00">a</text>
</g>
<!-- http://w3id.org/oseg/ont/otrl#Odrl4 -->
<g id="node13" class="node">
<title>http://w3id.org/oseg/ont/otrl#Odrl4</title>
<ellipse fill="none" stroke="#e377c2" cx="526.45" cy="-399.23" rx="61.54" ry="16.03"/>
<text text-anchor="middle" x="526.45" y="-395.53" font-family="Times,serif" font-size="14.00">otrl:Odrl4</text>
</g>
<!-- http://w3id.org/oseg/ont/otrl#ODRL4 -->
<g id="node17" class="node">
<title>http://w3id.org/oseg/ont/otrl#ODRL4</title>
<ellipse fill="none" stroke="#e377c2" cx="753.61" cy="-516.54" rx="69.09" ry="16.03"/>
<text text-anchor="middle" x="753.61" y="-512.84" font-family="Times,serif" font-size="14.00">otrl:ODRL4</text>
</g>
<!-- http://w3id.org/oseg/ont/otrl#Odrl4&#45;&gt;http://w3id.org/oseg/ont/otrl#ODRL4 -->
<g id="edge25" class="edge">
<title>http://w3id.org/oseg/ont/otrl#Odrl4&#45;&gt;http://w3id.org/oseg/ont/otrl#ODRL4</title>
<path fill="none" stroke="black" d="M554.76,-413.85C595.38,-434.82 670.27,-473.5 715.65,-496.93"/>
<polygon fill="black" stroke="black" points="714.09,-500.07 724.58,-501.55 717.3,-493.85 714.09,-500.07"/>
<text text-anchor="middle" x="555.2" y="-459.19" font-family="Times,serif" font-size="14.00">schema:supersededBy</text>
</g>
<!-- http://w3id.org/oseg/ont/otrl -->
<g id="node14" class="node">
<title>http://w3id.org/oseg/ont/otrl</title>
<ellipse fill="none" stroke="#e377c2" cx="1767.82" cy="-1266.09" rx="50.82" ry="16.03"/>
<text text-anchor="middle" x="1767.82" y="-1262.39" font-family="Times,serif" font-size="14.00">ns2:otrl</text>
</g>
<!-- http://w3id.org/oseg/ont/otrl&#45;&gt;http://spdx.org/rdf/terms#SpdxItem -->
<g id="edge14" class="edge">
<title>http://w3id.org/oseg/ont/otrl&#45;&gt;http://spdx.org/rdf/terms#SpdxItem</title>
<path fill="none" stroke="black" d="M1717.07,-1268.1C1698.13,-1268.85 1675.95,-1269.73 1654.28,-1270.59"/>
<polygon fill="black" stroke="black" points="1653.88,-1267.11 1644.03,-1271 1654.16,-1274.1 1653.88,-1267.11"/>
<text text-anchor="middle" x="1681.17" y="-1273.15" font-family="Times,serif" font-size="14.00">a</text>
</g>
<!-- http://w3id.org/oseg/ont/otrl&#45;&gt;http://spdx.org/licenses/GPL&#45;3.0&#45;or&#45;later -->
<g id="edge1" class="edge">
<title>http://w3id.org/oseg/ont/otrl&#45;&gt;http://spdx.org/licenses/GPL&#45;3.0&#45;or&#45;later</title>
<path fill="none" stroke="black" d="M1779.03,-1282.12C1779.09,-1282.21 1779.15,-1282.29 1779.21,-1282.38"/>
<polygon fill="black" stroke="black" points="1776.27,-1284.28 1784.87,-1290.47 1782.01,-1280.27 1776.27,-1284.28"/>
<text text-anchor="middle" x="1855.12" y="-1271.05" font-family="Times,serif" font-size="14.00">spdx:licenseDeclared</text>
</g>
<!-- http://w3id.org/oseg/ont/otrl&#45;&gt;http://w3id.org/oseg/ont/oseg&#45;profiles#martinHaeuer -->
<g id="edge6" class="edge">
<title>http://w3id.org/oseg/ont/otrl&#45;&gt;http://w3id.org/oseg/ont/oseg&#45;profiles#martinHaeuer</title>
<path fill="none" stroke="black" d="M1771.43,-1249.4C1771.42,-1249.29 1771.41,-1249.19 1771.4,-1249.09"/>
<polygon fill="black" stroke="black" points="1774.86,-1248.56 1769.73,-1239.29 1767.96,-1249.73 1774.86,-1248.56"/>
<text text-anchor="middle" x="1826.91" y="-1238.04" font-family="Times,serif" font-size="14.00">schema:creator</text>
</g>
<!-- http://w3id.org/oseg/ont/otrl&#45;&gt;http://w3id.org/oseg/ont/oseg&#45;profiles#martinHaeuer -->
<g id="edge29" class="edge">
<title>http://w3id.org/oseg/ont/otrl&#45;&gt;http://w3id.org/oseg/ont/oseg&#45;profiles#martinHaeuer</title>
<path fill="none" stroke="black" d="M1758.12,-1249.77C1758.1,-1249.66 1758.07,-1249.55 1758.05,-1249.45"/>
<polygon fill="black" stroke="black" points="1761.47,-1248.66 1756.41,-1239.35 1754.56,-1249.78 1761.47,-1248.66"/>
<text text-anchor="middle" x="1700.59" y="-1238.41" font-family="Times,serif" font-size="14.00">dcterms:creator</text>
</g>
<!-- http://w3id.org/oseg/ont/otrl&#45;&gt;http://id.loc.gov/vocabulary/iso639&#45;1/en -->
<g id="edge8" class="edge">
<title>http://w3id.org/oseg/ont/otrl&#45;&gt;http://id.loc.gov/vocabulary/iso639&#45;1/en</title>
<path fill="none" stroke="black" d="M1791.14,-1280.79C1814.83,-1295.73 1851.66,-1318.96 1877.85,-1335.47"/>
<polygon fill="black" stroke="black" points="1876.31,-1338.64 1886.63,-1341.01 1880.04,-1332.71 1876.31,-1338.64"/>
<text text-anchor="middle" x="1899" y="-1311.93" font-family="Times,serif" font-size="14.00">dcterms:language</text>
</g>
<!-- http://w3id.org/oseg/ont/1.1.0/otrl -->
<g id="node16" class="node">
<title>http://w3id.org/oseg/ont/1.1.0/otrl</title>
<ellipse fill="none" stroke="#e377c2" cx="1701.96" cy="-1424.01" rx="50.82" ry="16.03"/>
<text text-anchor="middle" x="1701.96" y="-1420.31" font-family="Times,serif" font-size="14.00">ns3:otrl</text>
</g>
<!-- http://w3id.org/oseg/ont/otrl&#45;&gt;http://w3id.org/oseg/ont/1.1.0/otrl -->
<g id="edge16" class="edge">
<title>http://w3id.org/oseg/ont/otrl&#45;&gt;http://w3id.org/oseg/ont/1.1.0/otrl</title>
<path fill="none" stroke="black" d="M1761.02,-1282.39C1749.58,-1309.82 1726.41,-1365.39 1712.74,-1398.17"/>
<polygon fill="black" stroke="black" points="1709.44,-1396.98 1708.82,-1407.56 1715.9,-1399.68 1709.44,-1396.98"/>
<text text-anchor="middle" x="1685.38" y="-1344.08" font-family="Times,serif" font-size="14.00">owl:versionIRI</text>
</g>
<!-- http://w3id.org/oseg/ont/oseg&#45;profiles#robinVobruba -->
<g id="node19" class="node">
<title>http://w3id.org/oseg/ont/oseg&#45;profiles#robinVobruba</title>
<ellipse fill="none" stroke="#e377c2" cx="1677.67" cy="-1045.17" rx="113.69" ry="16.03"/>
<text text-anchor="middle" x="1677.67" y="-1041.47" font-family="Times,serif" font-size="14.00">osegprof:robinVob...</text>
</g>
<!-- http://w3id.org/oseg/ont/otrl&#45;&gt;http://w3id.org/oseg/ont/oseg&#45;profiles#robinVobruba -->
<g id="edge20" class="edge">
<title>http://w3id.org/oseg/ont/otrl&#45;&gt;http://w3id.org/oseg/ont/oseg&#45;profiles#robinVobruba</title>
<path fill="none" stroke="black" d="M1764.99,-1249.53C1753.45,-1211.23 1715.13,-1116.43 1693.07,-1070.66"/>
<polygon fill="black" stroke="black" points="1696.07,-1068.83 1688.49,-1061.42 1689.8,-1071.94 1696.07,-1068.83"/>
<text text-anchor="middle" x="1671.53" y="-1148.9" font-family="Times,serif" font-size="14.00">dcterms:creator</text>
</g>
<!-- http://w3id.org/oseg/ont/otrl&#45;&gt;http://w3id.org/oseg/ont/oseg&#45;profiles#robinVobruba -->
<g id="edge40" class="edge">
<title>http://w3id.org/oseg/ont/otrl&#45;&gt;http://w3id.org/oseg/ont/oseg&#45;profiles#robinVobruba</title>
<path fill="none" stroke="black" d="M1757.01,-1249.85C1737.6,-1211.91 1698.81,-1117.35 1683.53,-1071.24"/>
<polygon fill="black" stroke="black" points="1686.85,-1070.13 1680.49,-1061.66 1680.18,-1072.25 1686.85,-1070.13"/>
<text text-anchor="middle" x="1664.77" y="-1164.34" font-family="Times,serif" font-size="14.00">schema:creator</text>
</g>
<!-- http://w3id.org/oseg/ont/oseg&#45;profiles#Iopa -->
<g id="node21" class="node">
<title>http://w3id.org/oseg/ont/oseg&#45;profiles#Iopa</title>
<ellipse fill="none" stroke="#e377c2" cx="1926.05" cy="-1138.51" rx="80.72" ry="16.03"/>
<text text-anchor="middle" x="1926.05" y="-1134.81" font-family="Times,serif" font-size="14.00">osegprof:Iopa</text>
</g>
<!-- http://w3id.org/oseg/ont/otrl&#45;&gt;http://w3id.org/oseg/ont/oseg&#45;profiles#Iopa -->
<g id="edge27" class="edge">
<title>http://w3id.org/oseg/ont/otrl&#45;&gt;http://w3id.org/oseg/ont/oseg&#45;profiles#Iopa</title>
<path fill="none" stroke="black" d="M1786.59,-1250.95C1814.25,-1228.65 1866.12,-1186.83 1898.21,-1160.95"/>
<polygon fill="black" stroke="black" points="1900.72,-1163.43 1906.31,-1154.42 1896.33,-1157.98 1900.72,-1163.43"/>
<text text-anchor="middle" x="1776.9" y="-1194.75" font-family="Times,serif" font-size="14.00">dcterms:publisher</text>
</g>
<!-- http://w3id.org/oseg/ont/otrl#OTRL3 -->
<g id="node15" class="node">
<title>http://w3id.org/oseg/ont/otrl#OTRL3</title>
<ellipse fill="none" stroke="#e377c2" cx="1866.23" cy="-444.94" rx="67.35" ry="16.03"/>
<text text-anchor="middle" x="1866.23" y="-441.24" font-family="Times,serif" font-size="14.00">otrl:OTRL3</text>
</g>
<!-- http://w3id.org/oseg/ont/otrl#OTRL3&#45;&gt;http://w3id.org/oseg/ont/otrl#OTRL -->
<g id="edge15" class="edge">
<title>http://w3id.org/oseg/ont/otrl#OTRL3&#45;&gt;http://w3id.org/oseg/ont/otrl#OTRL</title>
<path fill="none" stroke="black" d="M1819.37,-456.71C1770.89,-468.89 1695.25,-487.88 1644.22,-500.7"/>
<polygon fill="black" stroke="black" points="1643.2,-497.34 1634.36,-503.17 1644.91,-504.13 1643.2,-497.34"/>
<text text-anchor="middle" x="1727.3" y="-482.5" font-family="Times,serif" font-size="14.00">a</text>
</g>
<!-- http://w3id.org/oseg/ont/otrl#ODRL4&#45;&gt;http://w3id.org/oseg/ont/otrl#ODRL -->
<g id="edge18" class="edge">
<title>http://w3id.org/oseg/ont/otrl#ODRL4&#45;&gt;http://w3id.org/oseg/ont/otrl#ODRL</title>
<path fill="none" stroke="black" d="M782.05,-531.49C830.43,-556.91 928.71,-608.56 982.37,-636.75"/>
<polygon fill="black" stroke="black" points="981.06,-640.02 991.54,-641.57 984.31,-633.82 981.06,-640.02"/>
<text text-anchor="middle" x="877.71" y="-587.92" font-family="Times,serif" font-size="14.00">a</text>
</g>
<!-- http://w3id.org/oseg/ont/otrl#ODRL3Star -->
<g id="node18" class="node">
<title>http://w3id.org/oseg/ont/otrl#ODRL3Star</title>
<ellipse fill="none" stroke="#e377c2" cx="944.24" cy="-941.22" rx="90.52" ry="16.03"/>
<text text-anchor="middle" x="944.24" y="-937.52" font-family="Times,serif" font-size="14.00">otrl:ODRL3Star</text>
</g>
<!-- http://w3id.org/oseg/ont/otrl#ODRL3Star&#45;&gt;http://w3id.org/oseg/ont/otrl#ODRL -->
<g id="edge19" class="edge">
<title>http://w3id.org/oseg/ont/otrl#ODRL3Star&#45;&gt;http://w3id.org/oseg/ont/otrl#ODRL</title>
<path fill="none" stroke="black" d="M948.6,-924.66C961.13,-877.13 997.3,-739.95 1012.51,-682.25"/>
<polygon fill="black" stroke="black" points="1015.93,-683.01 1015.09,-672.44 1009.16,-681.22 1015.93,-683.01"/>
<text text-anchor="middle" x="976.05" y="-807.26" font-family="Times,serif" font-size="14.00">a</text>
</g>
<!-- http://w3id.org/oseg/ont/otrl#OTRL5 -->
<g id="node20" class="node">
<title>http://w3id.org/oseg/ont/otrl#OTRL5</title>
<ellipse fill="none" stroke="#e377c2" cx="1869.84" cy="-599.23" rx="67.35" ry="16.03"/>
<text text-anchor="middle" x="1869.84" y="-595.53" font-family="Times,serif" font-size="14.00">otrl:OTRL5</text>
</g>
<!-- http://w3id.org/oseg/ont/otrl#OTRL5&#45;&gt;http://w3id.org/oseg/ont/otrl#OTRL -->
<g id="edge23" class="edge">
<title>http://w3id.org/oseg/ont/otrl#OTRL5&#45;&gt;http://w3id.org/oseg/ont/otrl#OTRL</title>
<path fill="none" stroke="black" d="M1827.95,-586.52C1777.71,-571.27 1693.6,-545.74 1640.01,-529.48"/>
<polygon fill="black" stroke="black" points="1640.96,-526.11 1630.38,-526.56 1638.93,-532.81 1640.96,-526.11"/>
<text text-anchor="middle" x="1729.48" y="-561.8" font-family="Times,serif" font-size="14.00">a</text>
</g>
<!-- http://w3id.org/oseg/ont/otrl#OTRL1 -->
<g id="node22" class="node">
<title>http://w3id.org/oseg/ont/otrl#OTRL1</title>
<ellipse fill="none" stroke="#e377c2" cx="1620.15" cy="-299.26" rx="67.35" ry="16.03"/>
<text text-anchor="middle" x="1620.15" y="-295.56" font-family="Times,serif" font-size="14.00">otrl:OTRL1</text>
</g>
<!-- http://w3id.org/oseg/ont/otrl#OTRL1&#45;&gt;http://w3id.org/oseg/ont/otrl#OTRL -->
<g id="edge31" class="edge">
<title>http://w3id.org/oseg/ont/otrl#OTRL1&#45;&gt;http://w3id.org/oseg/ont/otrl#OTRL</title>
<path fill="none" stroke="black" d="M1617.84,-315.78C1612.64,-352.85 1600.02,-442.93 1593.72,-487.88"/>
<polygon fill="black" stroke="black" points="1590.22,-487.64 1592.3,-498.03 1597.15,-488.61 1590.22,-487.64"/>
<text text-anchor="middle" x="1601.28" y="-405.63" font-family="Times,serif" font-size="14.00">a</text>
</g>
<!-- http://w3id.org/oseg/ont/otrl#OTRL4 -->
<g id="node23" class="node">
<title>http://w3id.org/oseg/ont/otrl#OTRL4</title>
<ellipse fill="none" stroke="#e377c2" cx="1718.28" cy="-727.01" rx="67.35" ry="16.03"/>
<text text-anchor="middle" x="1718.28" y="-723.31" font-family="Times,serif" font-size="14.00">otrl:OTRL4</text>
</g>
<!-- http://w3id.org/oseg/ont/otrl#OTRL4&#45;&gt;http://w3id.org/oseg/ont/otrl#OTRL -->
<g id="edge33" class="edge">
<title>http://w3id.org/oseg/ont/otrl#OTRL4&#45;&gt;http://w3id.org/oseg/ont/otrl#OTRL</title>
<path fill="none" stroke="black" d="M1708.42,-710.67C1686.08,-673.62 1631.45,-583.01 1604.94,-539.05"/>
<polygon fill="black" stroke="black" points="1607.89,-537.17 1599.73,-530.41 1601.89,-540.78 1607.89,-537.17"/>
<text text-anchor="middle" x="1652.18" y="-628.66" font-family="Times,serif" font-size="14.00">a</text>
</g>
<!-- http://w3id.org/oseg/ont/otrl#ODRL1 -->
<g id="node24" class="node">
<title>http://w3id.org/oseg/ont/otrl#ODRL1</title>
<ellipse fill="none" stroke="#e377c2" cx="1004.37" cy="-356.97" rx="69.09" ry="16.03"/>
<text text-anchor="middle" x="1004.37" y="-353.27" font-family="Times,serif" font-size="14.00">otrl:ODRL1</text>
</g>
<!-- http://w3id.org/oseg/ont/otrl#ODRL1&#45;&gt;http://w3id.org/oseg/ont/otrl#ODRL -->
<g id="edge36" class="edge">
<title>http://w3id.org/oseg/ont/otrl#ODRL1&#45;&gt;http://w3id.org/oseg/ont/otrl#ODRL</title>
<path fill="none" stroke="black" d="M1005.2,-373.49C1007.67,-422.74 1015,-568.92 1018.03,-629.47"/>
<polygon fill="black" stroke="black" points="1014.55,-629.92 1018.55,-639.73 1021.54,-629.57 1014.55,-629.92"/>
<text text-anchor="middle" x="1007.12" y="-505.28" font-family="Times,serif" font-size="14.00">a</text>
</g>
<!-- http://w3id.org/oseg/ont/otrl#goal -->
<g id="node25" class="node">
<title>http://w3id.org/oseg/ont/otrl#goal</title>
<ellipse fill="none" stroke="#e377c2" cx="1308.64" cy="-594.4" rx="54.39" ry="16.03"/>
<text text-anchor="middle" x="1308.64" y="-590.7" font-family="Times,serif" font-size="14.00">otrl:goal</text>
</g>
<!-- http://w3id.org/oseg/ont/otrl#goal&#45;&gt;http://w3id.org/oseg/ont/otrl#ODRL -->
<g id="edge11" class="edge">
<title>http://w3id.org/oseg/ont/otrl#goal&#45;&gt;http://w3id.org/oseg/ont/otrl#ODRL</title>
<path fill="none" stroke="black" d="M1264.08,-603.92C1214.25,-614.57 1133.33,-631.85 1078.3,-643.61"/>
<polygon fill="black" stroke="black" points="1077.39,-640.22 1068.34,-645.74 1078.85,-647.07 1077.39,-640.22"/>
<text text-anchor="middle" x="1093.19" y="-627.57" font-family="Times,serif" font-size="14.00">dcam:domainIncludes</text>
</g>
<!-- http://w3id.org/oseg/ont/otrl#goal&#45;&gt;http://w3id.org/oseg/ont/otrl#OTRL -->
<g id="edge22" class="edge">
<title>http://w3id.org/oseg/ont/otrl#goal&#45;&gt;http://w3id.org/oseg/ont/otrl#OTRL</title>
<path fill="none" stroke="black" d="M1348.06,-583.18C1397.75,-569.04 1483.3,-544.68 1538.23,-529.05"/>
<polygon fill="black" stroke="black" points="1539.45,-532.34 1548.11,-526.24 1537.54,-525.61 1539.45,-532.34"/>
<text text-anchor="middle" x="1365.15" y="-559.91" font-family="Times,serif" font-size="14.00">dcam:domainIncludes</text>
</g>
<!-- http://w3id.org/oseg/ont/otrl#goal&#45;&gt;http://www.w3.org/1999/02/22&#45;rdf&#45;syntax&#45;ns#langString -->
<g id="edge4" class="edge">
<title>http://w3id.org/oseg/ont/otrl#goal&#45;&gt;http://www.w3.org/1999/02/22&#45;rdf&#45;syntax&#45;ns#langString</title>
<path fill="none" stroke="black" d="M1336.78,-608.42C1356.07,-618.03 1381.92,-630.91 1403.28,-641.55"/>
<polygon fill="black" stroke="black" points="1401.92,-644.78 1412.43,-646.11 1405.04,-638.52 1401.92,-644.78"/>
<text text-anchor="middle" x="1349.03" y="-628.79" font-family="Times,serif" font-size="14.00">range</text>
</g>
<!-- http://w3id.org/oseg/ont/otrl#Odrl -->
<g id="node26" class="node">
<title>http://w3id.org/oseg/ont/otrl#Odrl</title>
<ellipse fill="none" stroke="black" cx="1051.79" cy="-699.51" rx="185.02" ry="16.03"/>
<text text-anchor="middle" x="1051.79" y="-695.81" font-family="Times,serif" font-size="14.00">http://w3id.org/oseg/ont/otrl#Odrl</text>
</g>
<!-- http://w3id.org/oseg/ont/otrl#Odrl&#45;&gt;http://w3id.org/oseg/ont/otrl#ODRL -->
<g id="edge2" class="edge">
<title>http://w3id.org/oseg/ont/otrl#Odrl&#45;&gt;http://w3id.org/oseg/ont/otrl#ODRL</title>
<path fill="none" stroke="black" d="M1039.35,-682.89C1038.78,-682.14 1038.22,-681.38 1037.64,-680.61"/>
<polygon fill="black" stroke="black" points="1040.31,-678.33 1031.51,-672.42 1034.7,-682.52 1040.31,-678.33"/>
<text text-anchor="middle" x="1118.5" y="-670.55" font-family="Times,serif" font-size="14.00">schema:supersededBy</text>
</g>
<!-- http://w3id.org/oseg/ont/otrl#Odrl3 -->
<g id="node27" class="node">
<title>http://w3id.org/oseg/ont/otrl#Odrl3</title>
<ellipse fill="none" stroke="black" cx="530.26" cy="-1102.41" rx="191.75" ry="16.03"/>
<text text-anchor="middle" x="530.26" y="-1098.71" font-family="Times,serif" font-size="14.00">http://w3id.org/oseg/ont/otrl#Odrl3</text>
</g>
<!-- http://w3id.org/oseg/ont/otrl#Odrl3&#45;&gt;http://w3id.org/oseg/ont/otrl#ODRL3 -->
<g id="edge7" class="edge">
<title>http://w3id.org/oseg/ont/otrl#Odrl3&#45;&gt;http://w3id.org/oseg/ont/otrl#ODRL3</title>
<path fill="none" stroke="black" d="M548.1,-1085.95C597.27,-1040.62 734.77,-913.84 791.07,-861.94"/>
<polygon fill="black" stroke="black" points="793.47,-864.48 798.45,-855.13 788.73,-859.33 793.47,-864.48"/>
<text text-anchor="middle" x="589.58" y="-977.74" font-family="Times,serif" font-size="14.00">schema:supersededBy</text>
</g>
<!-- http://w3id.org/oseg/ont/otrl#Odrl2 -->
<g id="node28" class="node">
<title>http://w3id.org/oseg/ont/otrl#Odrl2</title>
<ellipse fill="none" stroke="black" cx="367.29" cy="-775.7" rx="191.75" ry="16.03"/>
<text text-anchor="middle" x="367.29" y="-772" font-family="Times,serif" font-size="14.00">http://w3id.org/oseg/ont/otrl#Odrl2</text>
</g>
<!-- http://w3id.org/oseg/ont/otrl#Odrl2&#45;&gt;http://w3id.org/oseg/ont/otrl#ODRL2 -->
<g id="edge9" class="edge">
<title>http://w3id.org/oseg/ont/otrl#Odrl2&#45;&gt;http://w3id.org/oseg/ont/otrl#ODRL2</title>
<path fill="none" stroke="black" d="M441.9,-760.63C511.04,-746.66 612.74,-726.11 677.77,-712.97"/>
<polygon fill="black" stroke="black" points="678.77,-716.34 687.88,-710.93 677.38,-709.48 678.77,-716.34"/>
<text text-anchor="middle" x="479.84" y="-740.6" font-family="Times,serif" font-size="14.00">schema:supersededBy</text>
</g>
<!-- http://w3id.org/oseg/ont/otrl#Odrl5 -->
<g id="node29" class="node">
<title>http://w3id.org/oseg/ont/otrl#Odrl5</title>
<ellipse fill="none" stroke="black" cx="191.19" cy="-236.04" rx="191.75" ry="16.03"/>
<text text-anchor="middle" x="191.19" y="-232.34" font-family="Times,serif" font-size="14.00">http://w3id.org/oseg/ont/otrl#Odrl5</text>
</g>
<!-- http://w3id.org/oseg/ont/otrl#Odrl5&#45;&gt;http://w3id.org/oseg/ont/otrl#Odrl4 -->
<g id="edge10" class="edge">
<title>http://w3id.org/oseg/ont/otrl#Odrl5&#45;&gt;http://w3id.org/oseg/ont/otrl#Odrl4</title>
<path fill="none" stroke="black" d="M224.25,-252.13C286.61,-282.48 421.25,-348.02 487.72,-380.38"/>
<polygon fill="black" stroke="black" points="486.5,-383.67 497.02,-384.9 489.56,-377.38 486.5,-383.67"/>
<text text-anchor="middle" x="275.99" y="-320.06" font-family="Times,serif" font-size="14.00">schema:supersededBy</text>
</g>
<!-- http://w3id.org/oseg/ont/otrl#Otrl -->
<g id="node30" class="node">
<title>http://w3id.org/oseg/ont/otrl#Otrl</title>
<ellipse fill="none" stroke="black" cx="1574.22" cy="-473.32" rx="183.28" ry="16.03"/>
<text text-anchor="middle" x="1574.22" y="-469.62" font-family="Times,serif" font-size="14.00">http://w3id.org/oseg/ont/otrl#Otrl</text>
</g>
<!-- http://w3id.org/oseg/ont/otrl#Otrl&#45;&gt;http://w3id.org/oseg/ont/otrl#OTRL -->
<g id="edge13" class="edge">
<title>http://w3id.org/oseg/ont/otrl#Otrl&#45;&gt;http://w3id.org/oseg/ont/otrl#OTRL</title>
<path fill="none" stroke="black" d="M1580.64,-489.99C1580.68,-490.07 1580.71,-490.15 1580.74,-490.24"/>
<polygon fill="black" stroke="black" points="1576.89,-489.98 1583.75,-498.05 1583.42,-487.46 1576.89,-489.98"/>
<text text-anchor="middle" x="1500.69" y="-493.91" font-family="Times,serif" font-size="14.00">schema:supersededBy</text>
</g>
<!-- http://w3id.org/oseg/ont/otrl#Otrl2 -->
<g id="node31" class="node">
<title>http://w3id.org/oseg/ont/otrl#Otrl2</title>
<ellipse fill="none" stroke="black" cx="1441.91" cy="-792.61" rx="189.51" ry="16.03"/>
<text text-anchor="middle" x="1441.91" y="-788.91" font-family="Times,serif" font-size="14.00">http://w3id.org/oseg/ont/otrl#Otrl2</text>
</g>
<!-- http://w3id.org/oseg/ont/otrl#Otrl2&#45;&gt;http://w3id.org/oseg/ont/otrl#OTRL2 -->
<g id="edge17" class="edge">
<title>http://w3id.org/oseg/ont/otrl#Otrl2&#45;&gt;http://w3id.org/oseg/ont/otrl#OTRL2</title>
<path fill="none" stroke="black" d="M1459.41,-776.25C1461.54,-774.26 1463.75,-772.19 1465.97,-770.12"/>
<polygon fill="black" stroke="black" points="1468.48,-772.57 1473.39,-763.18 1463.7,-767.45 1468.48,-772.57"/>
<text text-anchor="middle" x="1382.69" y="-761.99" font-family="Times,serif" font-size="14.00">schema:supersededBy</text>
</g>
<!-- http://w3id.org/oseg/ont/otrl#Otrl6 -->
<g id="node32" class="node">
<title>http://w3id.org/oseg/ont/otrl#Otrl6</title>
<ellipse fill="none" stroke="black" cx="2036.17" cy="-16.43" rx="189.51" ry="16.03"/>
<text text-anchor="middle" x="2036.17" y="-12.73" font-family="Times,serif" font-size="14.00">http://w3id.org/oseg/ont/otrl#Otrl6</text>
</g>
<!-- http://w3id.org/oseg/ont/otrl#Otrl6&#45;&gt;http://w3id.org/oseg/ont/otrl#OTRL6 -->
<g id="edge24" class="edge">
<title>http://w3id.org/oseg/ont/otrl#Otrl6&#45;&gt;http://w3id.org/oseg/ont/otrl#OTRL6</title>
<path fill="none" stroke="black" d="M2022.58,-32.72C1981.53,-81.92 1858.7,-229.16 1810.03,-287.49"/>
<polygon fill="black" stroke="black" points="1807.13,-285.51 1803.41,-295.43 1812.5,-289.99 1807.13,-285.51"/>
<text text-anchor="middle" x="1836.31" y="-163.91" font-family="Times,serif" font-size="14.00">schema:supersededBy</text>
</g>
<!-- http://w3id.org/oseg/ont/otrl#Odrl3Star -->
<g id="node33" class="node">
<title>http://w3id.org/oseg/ont/otrl#Odrl3Star</title>
<ellipse fill="none" stroke="black" cx="818.29" cy="-1359.7" rx="213.59" ry="16.03"/>
<text text-anchor="middle" x="818.29" y="-1356" font-family="Times,serif" font-size="14.00">http://w3id.org/oseg/ont/otrl#Odrl3Star</text>
</g>
<!-- http://w3id.org/oseg/ont/otrl#Odrl3Star&#45;&gt;http://w3id.org/oseg/ont/otrl#ODRL3Star -->
<g id="edge26" class="edge">
<title>http://w3id.org/oseg/ont/otrl#Odrl3Star&#45;&gt;http://w3id.org/oseg/ont/otrl#ODRL3Star</title>
<path fill="none" stroke="black" d="M823.23,-1343.29C842.51,-1279.23 912.83,-1045.57 936.45,-967.11"/>
<polygon fill="black" stroke="black" points="939.81,-968.1 939.34,-957.51 933.1,-966.08 939.81,-968.1"/>
<text text-anchor="middle" x="799.84" y="-1159" font-family="Times,serif" font-size="14.00">schema:supersededBy</text>
</g>
<!-- http://w3id.org/oseg/ont/otrl#Otrl1 -->
<g id="node34" class="node">
<title>http://w3id.org/oseg/ont/otrl#Otrl1</title>
<ellipse fill="none" stroke="black" cx="1631.14" cy="-254.49" rx="189.51" ry="16.03"/>
<text text-anchor="middle" x="1631.14" y="-250.79" font-family="Times,serif" font-size="14.00">http://w3id.org/oseg/ont/otrl#Otrl1</text>
</g>
<!-- http://w3id.org/oseg/ont/otrl#Otrl1&#45;&gt;http://w3id.org/oseg/ont/otrl#OTRL1 -->
<g id="edge28" class="edge">
<title>http://w3id.org/oseg/ont/otrl#Otrl1&#45;&gt;http://w3id.org/oseg/ont/otrl#OTRL1</title>
<path fill="none" stroke="black" d="M1627.11,-270.91C1626.93,-271.64 1626.75,-272.37 1626.57,-273.12"/>
<polygon fill="black" stroke="black" points="1623.17,-272.3 1624.18,-282.84 1629.96,-273.97 1623.17,-272.3"/>
<text text-anchor="middle" x="1706.84" y="-275.81" font-family="Times,serif" font-size="14.00">schema:supersededBy</text>
</g>
<!-- http://w3id.org/oseg/ont/otrl#Otrl4 -->
<g id="node35" class="node">
<title>http://w3id.org/oseg/ont/otrl#Otrl4</title>
<ellipse fill="none" stroke="black" cx="1833.8" cy="-778.64" rx="189.51" ry="16.03"/>
<text text-anchor="middle" x="1833.8" y="-774.94" font-family="Times,serif" font-size="14.00">http://w3id.org/oseg/ont/otrl#Otrl4</text>
</g>
<!-- http://w3id.org/oseg/ont/otrl#Otrl4&#45;&gt;http://w3id.org/oseg/ont/otrl#OTRL4 -->
<g id="edge32" class="edge">
<title>http://w3id.org/oseg/ont/otrl#Otrl4&#45;&gt;http://w3id.org/oseg/ont/otrl#OTRL4</title>
<path fill="none" stroke="black" d="M1797.88,-762.58C1785.85,-757.21 1772.33,-751.17 1759.9,-745.61"/>
<polygon fill="black" stroke="black" points="1761.2,-742.36 1750.64,-741.47 1758.35,-748.75 1761.2,-742.36"/>
<text text-anchor="middle" x="1858.89" y="-742.9" font-family="Times,serif" font-size="14.00">schema:supersededBy</text>
</g>
<!-- http://w3id.org/oseg/ont/otrl#Otrl5 -->
<g id="node36" class="node">
<title>http://w3id.org/oseg/ont/otrl#Otrl5</title>
<ellipse fill="none" stroke="black" cx="2225.27" cy="-729.73" rx="189.51" ry="16.03"/>
<text text-anchor="middle" x="2225.27" y="-726.03" font-family="Times,serif" font-size="14.00">http://w3id.org/oseg/ont/otrl#Otrl5</text>
</g>
<!-- http://w3id.org/oseg/ont/otrl#Otrl5&#45;&gt;http://w3id.org/oseg/ont/otrl#OTRL5 -->
<g id="edge34" class="edge">
<title>http://w3id.org/oseg/ont/otrl#Otrl5&#45;&gt;http://w3id.org/oseg/ont/otrl#OTRL5</title>
<path fill="none" stroke="black" d="M2182.04,-713.86C2114.86,-689.19 1985.92,-641.85 1916.63,-616.41"/>
<polygon fill="black" stroke="black" points="1917.45,-612.98 1906.85,-612.82 1915.03,-619.55 1917.45,-612.98"/>
<text text-anchor="middle" x="1969.34" y="-668.93" font-family="Times,serif" font-size="14.00">schema:supersededBy</text>
</g>
<!-- http://w3id.org/oseg/ont/otrl#Odrl1 -->
<g id="node37" class="node">
<title>http://w3id.org/oseg/ont/otrl#Odrl1</title>
<ellipse fill="none" stroke="black" cx="1006.71" cy="-314.34" rx="191.75" ry="16.03"/>
<text text-anchor="middle" x="1006.71" y="-310.64" font-family="Times,serif" font-size="14.00">http://w3id.org/oseg/ont/otrl#Odrl1</text>
</g>
<!-- http://w3id.org/oseg/ont/otrl#Odrl1&#45;&gt;http://w3id.org/oseg/ont/otrl#ODRL1 -->
<g id="edge37" class="edge">
<title>http://w3id.org/oseg/ont/otrl#Odrl1&#45;&gt;http://w3id.org/oseg/ont/otrl#ODRL1</title>
<path fill="none" stroke="black" d="M1005.81,-330.7C1005.8,-330.8 1005.8,-330.9 1005.79,-331"/>
<polygon fill="black" stroke="black" points="1002.33,-330.27 1005.28,-340.44 1009.32,-330.65 1002.33,-330.27"/>
<text text-anchor="middle" x="1085.8" y="-334.65" font-family="Times,serif" font-size="14.00">schema:supersededBy</text>
</g>
<!-- http://w3id.org/oseg/ont/otrl#Otrl3 -->
<g id="node38" class="node">
<title>http://w3id.org/oseg/ont/otrl#Otrl3</title>
<ellipse fill="none" stroke="black" cx="2238.47" cy="-348.46" rx="189.51" ry="16.03"/>
<text text-anchor="middle" x="2238.47" y="-344.76" font-family="Times,serif" font-size="14.00">http://w3id.org/oseg/ont/otrl#Otrl3</text>
</g>
<!-- http://w3id.org/oseg/ont/otrl#Otrl3&#45;&gt;http://w3id.org/oseg/ont/otrl#OTRL3 -->
<g id="edge39" class="edge">
<title>http://w3id.org/oseg/ont/otrl#Otrl3&#45;&gt;http://w3id.org/oseg/ont/otrl#OTRL3</title>
<path fill="none" stroke="black" d="M2178.66,-363.96C2107.85,-382.31 1990.85,-412.64 1921.9,-430.51"/>
<polygon fill="black" stroke="black" points="1920.89,-427.16 1912.08,-433.06 1922.64,-433.94 1920.89,-427.16"/>
<text text-anchor="middle" x="1970.28" y="-401.04" font-family="Times,serif" font-size="14.00">schema:supersededBy</text>
</g>
</g>
</svg>
