<?xml version="1.0" encoding="UTF-8" standalone="no"?>
<!DOCTYPE svg PUBLIC "-//W3C//DTD SVG 1.1//EN"
 "http://www.w3.org/Graphics/SVG/1.1/DTD/svg11.dtd">
<!-- Generated by graphviz version 2.43.0 (0)
 -->
<!-- Title: G Pages: 1 -->
<svg width="1764pt" height="1244pt"
 viewBox="0.00 0.00 1764.00 1244.00" xmlns="http://www.w3.org/2000/svg" xmlns:xlink="http://www.w3.org/1999/xlink">
<g id="graph0" class="graph" transform="scale(1 1) rotate(0) translate(4 1240)">
<title>G</title>
<polygon fill="white" stroke="transparent" points="-4,4 -4,-1240 1760,-1240 1760,4 -4,4"/>
<!-- http://w3id.org/oseg/ont/okhmeta#Tag -->
<g id="node1" class="node">
<title>http://w3id.org/oseg/ont/okhmeta#Tag</title>
<ellipse fill="none" stroke="#e377c2" cx="1008.13" cy="-407.59" rx="76.24" ry="16.03"/>
<text text-anchor="middle" x="1008.13" y="-403.89" font-family="Times,serif" font-size="14.00">okhmeta:Tag</text>
</g>
<!-- http://www.w3.org/2004/02/skos/core#Concept -->
<g id="node2" class="node">
<title>http://www.w3.org/2004/02/skos/core#Concept</title>
<ellipse fill="none" stroke="#1f77b4" cx="724.22" cy="-193.2" rx="78.48" ry="16.03"/>
<text text-anchor="middle" x="724.22" y="-189.5" font-family="Times,serif" font-size="14.00">skos:Concept</text>
</g>
<!-- http://w3id.org/oseg/ont/okhmeta#Tag&#45;&gt;http://www.w3.org/2004/02/skos/core#Concept -->
<g id="edge41" class="edge">
<title>http://w3id.org/oseg/ont/okhmeta#Tag&#45;&gt;http://www.w3.org/2004/02/skos/core#Concept</title>
<path fill="none" stroke="black" d="M987.25,-391.83C937.31,-354.11 810.85,-258.61 753.41,-215.24"/>
<polygon fill="black" stroke="black" points="755.21,-212.22 745.12,-208.98 751,-217.8 755.21,-212.22"/>
<text text-anchor="middle" x="865.83" y="-307.33" font-family="Times,serif" font-size="14.00">a</text>
</g>
<!-- http://www.w3.org/2004/02/skos/core#Collection -->
<g id="node3" class="node">
<title>http://www.w3.org/2004/02/skos/core#Collection</title>
<ellipse fill="none" stroke="#e377c2" cx="987.43" cy="-16.55" rx="87.86" ry="16.03"/>
<text text-anchor="middle" x="987.43" y="-12.85" font-family="Times,serif" font-size="14.00">skos:Collection</text>
</g>
<!-- http://w3id.org/oseg/ont/okhmeta#Tag&#45;&gt;http://www.w3.org/2004/02/skos/core#Collection -->
<g id="edge14" class="edge">
<title>http://w3id.org/oseg/ont/okhmeta#Tag&#45;&gt;http://www.w3.org/2004/02/skos/core#Collection</title>
<path fill="none" stroke="black" d="M1007.26,-391.29C1004.06,-330.67 992.8,-117.94 988.83,-42.95"/>
<polygon fill="black" stroke="black" points="992.32,-42.73 988.3,-32.92 985.33,-43.1 992.32,-42.73"/>
</g>
<!-- http://w3id.org/oseg/ont/okhmeta#MetaTag -->
<g id="node5" class="node">
<title>http://w3id.org/oseg/ont/okhmeta#MetaTag</title>
<ellipse fill="none" stroke="#e377c2" cx="911.06" cy="-450.79" rx="102.56" ry="16.03"/>
<text text-anchor="middle" x="911.06" y="-447.09" font-family="Times,serif" font-size="14.00">okhmeta:MetaTag</text>
</g>
<!-- http://w3id.org/oseg/ont/okhmeta#Tag&#45;&gt;http://w3id.org/oseg/ont/okhmeta#MetaTag -->
<g id="edge16" class="edge">
<title>http://w3id.org/oseg/ont/okhmeta#Tag&#45;&gt;http://w3id.org/oseg/ont/okhmeta#MetaTag</title>
<path fill="none" stroke="black" d="M962.26,-420.66C955.28,-423.66 948.22,-426.9 941.68,-430.11"/>
<polygon fill="black" stroke="black" points="939.83,-427.12 932.51,-434.78 943.01,-433.36 939.83,-427.12"/>
<text text-anchor="middle" x="874.97" y="-414.19" font-family="Times,serif" font-size="14.00">okhmeta:hasMetaTag</text>
</g>
<!-- http://spdx.org/rdf/terms#SpdxItem -->
<g id="node4" class="node">
<title>http://spdx.org/rdf/terms#SpdxItem</title>
<ellipse fill="none" stroke="#1f77b4" cx="1283.45" cy="-1040.71" rx="87.86" ry="16.03"/>
<text text-anchor="middle" x="1283.45" y="-1037.01" font-family="Times,serif" font-size="14.00">spdx:SpdxItem</text>
</g>
<!-- http://w3id.org/oseg/ont/okhmeta#MetaTag&#45;&gt;http://w3id.org/oseg/ont/okhmeta#Tag -->
<g id="edge7" class="edge">
<title>http://w3id.org/oseg/ont/okhmeta#MetaTag&#45;&gt;http://w3id.org/oseg/ont/okhmeta#Tag</title>
<path fill="none" stroke="black" d="M960.06,-436.36C966.21,-433.67 972.34,-430.82 978.07,-427.99"/>
<polygon fill="black" stroke="black" points="979.97,-430.95 987.27,-423.28 976.78,-424.72 979.97,-430.95"/>
<text text-anchor="middle" x="964.57" y="-420.98" font-family="Times,serif" font-size="14.00">a</text>
</g>
<!-- http://w3id.org/oseg/ont/okhmeta#MetaTag&#45;&gt;http://w3id.org/oseg/ont/okhmeta#MetaTag -->
<g id="edge20" class="edge">
<title>http://w3id.org/oseg/ont/okhmeta#MetaTag&#45;&gt;http://w3id.org/oseg/ont/okhmeta#MetaTag</title>
<path fill="none" stroke="black" d="M1006.05,-457.01C1021.21,-456.1 1031.59,-454.03 1031.59,-450.79 1031.59,-448.34 1025.63,-446.56 1016.14,-445.44"/>
<polygon fill="black" stroke="black" points="1016.31,-441.94 1006.05,-444.58 1015.71,-448.92 1016.31,-441.94"/>
<text text-anchor="middle" x="1108.59" y="-447.09" font-family="Times,serif" font-size="14.00">okhmeta:hasMetaTag</text>
</g>
<!-- http://w3id.org/oseg/ont/okhmeta#MakingTag -->
<g id="node6" class="node">
<title>http://w3id.org/oseg/ont/okhmeta#MakingTag</title>
<ellipse fill="none" stroke="#e377c2" cx="1077.65" cy="-98.9" rx="113.69" ry="16.03"/>
<text text-anchor="middle" x="1077.65" y="-95.2" font-family="Times,serif" font-size="14.00">okhmeta:MakingTag</text>
</g>
<!-- http://w3id.org/oseg/ont/okhmeta#MakingTag&#45;&gt;http://w3id.org/oseg/ont/okhmeta#Tag -->
<g id="edge2" class="edge">
<title>http://w3id.org/oseg/ont/okhmeta#MakingTag&#45;&gt;http://w3id.org/oseg/ont/okhmeta#Tag</title>
<path fill="none" stroke="black" d="M1073.91,-115.49C1062.5,-166.18 1028.03,-319.23 1014.08,-381.16"/>
<polygon fill="black" stroke="black" points="1010.58,-380.76 1011.8,-391.29 1017.41,-382.3 1010.58,-380.76"/>
<text text-anchor="middle" x="1039.49" y="-252.13" font-family="Times,serif" font-size="14.00">a</text>
</g>
<!-- http://w3id.org/oseg/ont/okhmeta#MakingTag&#45;&gt;http://w3id.org/oseg/ont/okhmeta#MetaTag -->
<g id="edge1" class="edge">
<title>http://w3id.org/oseg/ont/okhmeta#MakingTag&#45;&gt;http://w3id.org/oseg/ont/okhmeta#MetaTag</title>
<path fill="none" stroke="black" d="M1069.84,-115.4C1043.16,-171.74 955.57,-356.76 923.21,-425.12"/>
<polygon fill="black" stroke="black" points="919.97,-423.79 918.85,-434.33 926.29,-426.79 919.97,-423.79"/>
<text text-anchor="middle" x="919.52" y="-259.06" font-family="Times,serif" font-size="14.00">okhmeta:hasMetaTag</text>
</g>
<!-- http://w3id.org/oseg/ont/oseg&#45;profiles#robinVobruba -->
<g id="node7" class="node">
<title>http://w3id.org/oseg/ont/oseg&#45;profiles#robinVobruba</title>
<ellipse fill="none" stroke="#e377c2" cx="1542.76" cy="-985.08" rx="113.69" ry="16.03"/>
<text text-anchor="middle" x="1542.76" y="-981.38" font-family="Times,serif" font-size="14.00">osegprof:robinVob...</text>
</g>
<!-- http://w3id.org/oseg/ont/okhmeta#hasMetaTag -->
<g id="node8" class="node">
<title>http://w3id.org/oseg/ont/okhmeta#hasMetaTag</title>
<ellipse fill="none" stroke="#e377c2" cx="455.07" cy="-248.75" rx="120.42" ry="16.03"/>
<text text-anchor="middle" x="455.07" y="-245.05" font-family="Times,serif" font-size="14.00">okhmeta:hasMetaTag</text>
</g>
<!-- http://w3id.org/oseg/ont/okhmeta#hasMetaTag&#45;&gt;http://www.w3.org/2004/02/skos/core#Concept -->
<g id="edge13" class="edge">
<title>http://w3id.org/oseg/ont/okhmeta#hasMetaTag&#45;&gt;http://www.w3.org/2004/02/skos/core#Concept</title>
<path fill="none" stroke="black" d="M521.26,-235.09C562.96,-226.48 616.59,-215.41 658.25,-206.81"/>
<polygon fill="black" stroke="black" points="659.21,-210.19 668.29,-204.74 657.79,-203.33 659.21,-210.19"/>
<text text-anchor="middle" x="585.25" y="-224.75" font-family="Times,serif" font-size="14.00">a</text>
</g>
<!-- http://w3id.org/oseg/ont/okhmeta#hasMetaTag&#45;&gt;http://w3id.org/oseg/ont/okhmeta#MetaTag -->
<g id="edge35" class="edge">
<title>http://w3id.org/oseg/ont/okhmeta#hasMetaTag&#45;&gt;http://w3id.org/oseg/ont/okhmeta#MetaTag</title>
<path fill="none" stroke="black" d="M482.52,-264.74C556.5,-301.88 760.88,-392.79 858.22,-432.25"/>
<polygon fill="black" stroke="black" points="856.99,-435.53 867.58,-436.01 859.61,-429.03 856.99,-435.53"/>
<text text-anchor="middle" x="747.37" y="-352.29" font-family="Times,serif" font-size="14.00">okhmeta:hasMetaTag</text>
</g>
<!-- http://w3id.org/oseg/ont/okhmeta#hasMetaTag&#45;&gt;http://w3id.org/oseg/ont/okhmeta#MetaTag -->
<g id="edge42" class="edge">
<title>http://w3id.org/oseg/ont/okhmeta#hasMetaTag&#45;&gt;http://w3id.org/oseg/ont/okhmeta#MetaTag</title>
<path fill="none" stroke="black" d="M499.65,-263.96C589.89,-300.07 792.55,-389.95 875.08,-430.56"/>
<polygon fill="black" stroke="black" points="873.56,-433.71 884.07,-435.03 876.67,-427.44 873.56,-433.71"/>
<text text-anchor="middle" x="759.86" y="-336.06" font-family="Times,serif" font-size="14.00">dcam:rangeIncludes</text>
</g>
<!-- http://www.w3.org/2004/02/skos/core#member -->
<g id="node16" class="node">
<title>http://www.w3.org/2004/02/skos/core#member</title>
<ellipse fill="none" stroke="#e377c2" cx="79.48" cy="-108.78" rx="79.39" ry="16.03"/>
<text text-anchor="middle" x="79.48" y="-105.08" font-family="Times,serif" font-size="14.00">skos:member</text>
</g>
<!-- http://w3id.org/oseg/ont/okhmeta#hasMetaTag&#45;&gt;http://www.w3.org/2004/02/skos/core#member -->
<g id="edge31" class="edge">
<title>http://w3id.org/oseg/ont/okhmeta#hasMetaTag&#45;&gt;http://www.w3.org/2004/02/skos/core#member</title>
<path fill="none" stroke="black" d="M413.8,-233.37C343.68,-207.23 201.66,-154.31 127.32,-126.6"/>
<polygon fill="black" stroke="black" points="128.32,-123.24 117.72,-123.03 125.87,-129.8 128.32,-123.24"/>
<text text-anchor="middle" x="217.56" y="-183.78" font-family="Times,serif" font-size="14.00">subPropertyOf</text>
</g>
<!-- http://w3id.org/oseg/ont/okhmeta -->
<g id="node9" class="node">
<title>http://w3id.org/oseg/ont/okhmeta</title>
<ellipse fill="none" stroke="#e377c2" cx="1516.31" cy="-1029.97" rx="76.24" ry="16.03"/>
<text text-anchor="middle" x="1516.31" y="-1026.27" font-family="Times,serif" font-size="14.00">ns1:okhmeta</text>
</g>
<!-- http://w3id.org/oseg/ont/okhmeta&#45;&gt;http://spdx.org/rdf/terms#SpdxItem -->
<g id="edge45" class="edge">
<title>http://w3id.org/oseg/ont/okhmeta&#45;&gt;http://spdx.org/rdf/terms#SpdxItem</title>
<path fill="none" stroke="black" d="M1441.67,-1033.42C1421.66,-1034.34 1399.76,-1035.35 1378.8,-1036.31"/>
<polygon fill="black" stroke="black" points="1378.42,-1032.83 1368.59,-1036.78 1378.75,-1039.82 1378.42,-1032.83"/>
<text text-anchor="middle" x="1405.73" y="-1038.66" font-family="Times,serif" font-size="14.00">a</text>
</g>
<!-- http://w3id.org/oseg/ont/okhmeta&#45;&gt;http://w3id.org/oseg/ont/oseg&#45;profiles#robinVobruba -->
<g id="edge3" class="edge">
<title>http://w3id.org/oseg/ont/okhmeta&#45;&gt;http://w3id.org/oseg/ont/oseg&#45;profiles#robinVobruba</title>
<path fill="none" stroke="black" d="M1533.44,-1014.07C1534.18,-1012.92 1534.89,-1011.74 1535.59,-1010.55"/>
<polygon fill="black" stroke="black" points="1538.82,-1011.92 1540.34,-1001.43 1532.61,-1008.68 1538.82,-1011.92"/>
<text text-anchor="middle" x="1479.02" y="-1001.11" font-family="Times,serif" font-size="14.00">schema:creator</text>
</g>
<!-- http://w3id.org/oseg/ont/okhmeta&#45;&gt;http://w3id.org/oseg/ont/oseg&#45;profiles#robinVobruba -->
<g id="edge11" class="edge">
<title>http://w3id.org/oseg/ont/okhmeta&#45;&gt;http://w3id.org/oseg/ont/oseg&#45;profiles#robinVobruba</title>
<path fill="none" stroke="black" d="M1518.75,-1013.59C1519.25,-1012.48 1519.8,-1011.35 1520.38,-1010.2"/>
<polygon fill="black" stroke="black" points="1523.44,-1011.89 1525.32,-1001.47 1517.35,-1008.45 1523.44,-1011.89"/>
<text text-anchor="middle" x="1577.06" y="-1000.7" font-family="Times,serif" font-size="14.00">dcterms:creator</text>
</g>
<!-- http://w3id.org/oseg/ont/1.1.0/okh&#45;meta -->
<g id="node11" class="node">
<title>http://w3id.org/oseg/ont/1.1.0/okh&#45;meta</title>
<ellipse fill="none" stroke="#e377c2" cx="1400.13" cy="-1220.21" rx="79.81" ry="16.03"/>
<text text-anchor="middle" x="1400.13" y="-1216.51" font-family="Times,serif" font-size="14.00">ns2:okh&#45;meta</text>
</g>
<!-- http://w3id.org/oseg/ont/okhmeta&#45;&gt;http://w3id.org/oseg/ont/1.1.0/okh&#45;meta -->
<g id="edge5" class="edge">
<title>http://w3id.org/oseg/ont/okhmeta&#45;&gt;http://w3id.org/oseg/ont/1.1.0/okh&#45;meta</title>
<path fill="none" stroke="black" d="M1506.41,-1046.19C1486.09,-1079.47 1439.57,-1155.64 1415.38,-1195.25"/>
<polygon fill="black" stroke="black" points="1412.24,-1193.67 1410.01,-1204.03 1418.21,-1197.32 1412.24,-1193.67"/>
<text text-anchor="middle" x="1409.39" y="-1124.52" font-family="Times,serif" font-size="14.00">owl:versionIRI</text>
</g>
<!-- http://id.loc.gov/vocabulary/iso639&#45;1/en -->
<g id="node21" class="node">
<title>http://id.loc.gov/vocabulary/iso639&#45;1/en</title>
<ellipse fill="none" stroke="#e377c2" cx="1710.66" cy="-1011.11" rx="45.01" ry="16.03"/>
<text text-anchor="middle" x="1710.66" y="-1007.41" font-family="Times,serif" font-size="14.00">ns3:en</text>
</g>
<!-- http://w3id.org/oseg/ont/okhmeta&#45;&gt;http://id.loc.gov/vocabulary/iso639&#45;1/en -->
<g id="edge12" class="edge">
<title>http://w3id.org/oseg/ont/okhmeta&#45;&gt;http://id.loc.gov/vocabulary/iso639&#45;1/en</title>
<path fill="none" stroke="black" d="M1585.93,-1023.22C1609.25,-1020.95 1634.87,-1018.47 1656.8,-1016.34"/>
<polygon fill="black" stroke="black" points="1657.3,-1019.81 1666.92,-1015.36 1656.63,-1012.84 1657.3,-1019.81"/>
<text text-anchor="middle" x="1685.86" y="-1023.58" font-family="Times,serif" font-size="14.00">dcterms:language</text>
</g>
<!-- http://spdx.org/licenses/GPL&#45;3.0&#45;or&#45;later -->
<g id="node23" class="node">
<title>http://spdx.org/licenses/GPL&#45;3.0&#45;or&#45;later</title>
<ellipse fill="none" stroke="#e377c2" cx="1561.5" cy="-1070.62" rx="108.79" ry="16.03"/>
<text text-anchor="middle" x="1561.5" y="-1066.92" font-family="Times,serif" font-size="14.00">spdxl:GPL&#45;3.0&#45;or&#45;...</text>
</g>
<!-- http://w3id.org/oseg/ont/okhmeta&#45;&gt;http://spdx.org/licenses/GPL&#45;3.0&#45;or&#45;later -->
<g id="edge38" class="edge">
<title>http://w3id.org/oseg/ont/okhmeta&#45;&gt;http://spdx.org/licenses/GPL&#45;3.0&#45;or&#45;later</title>
<path fill="none" stroke="black" d="M1533.91,-1045.8C1534.6,-1046.43 1535.3,-1047.06 1536.01,-1047.69"/>
<polygon fill="black" stroke="black" points="1533.8,-1050.41 1543.57,-1054.5 1538.48,-1045.21 1533.8,-1050.41"/>
<text text-anchor="middle" x="1610.96" y="-1050.55" font-family="Times,serif" font-size="14.00">spdx:licenseDeclared</text>
</g>
<!-- http://w3id.org/oseg/ont/oseg&#45;profiles#Iopa -->
<g id="node26" class="node">
<title>http://w3id.org/oseg/ont/oseg&#45;profiles#Iopa</title>
<ellipse fill="none" stroke="#e377c2" cx="1382.05" cy="-844.01" rx="80.72" ry="16.03"/>
<text text-anchor="middle" x="1382.05" y="-840.31" font-family="Times,serif" font-size="14.00">osegprof:Iopa</text>
</g>
<!-- http://w3id.org/oseg/ont/okhmeta&#45;&gt;http://w3id.org/oseg/ont/oseg&#45;profiles#Iopa -->
<g id="edge19" class="edge">
<title>http://w3id.org/oseg/ont/okhmeta&#45;&gt;http://w3id.org/oseg/ont/oseg&#45;profiles#Iopa</title>
<path fill="none" stroke="black" d="M1504.63,-1013.8C1481.02,-981.1 1427.52,-906.99 1399.66,-868.4"/>
<polygon fill="black" stroke="black" points="1402.49,-866.35 1393.8,-860.29 1396.82,-870.44 1402.49,-866.35"/>
<text text-anchor="middle" x="1386.64" y="-944.9" font-family="Times,serif" font-size="14.00">dcterms:publisher</text>
</g>
<!-- http://w3id.org/oseg/ont/okhmeta#PhysicalTag -->
<g id="node10" class="node">
<title>http://w3id.org/oseg/ont/okhmeta#PhysicalTag</title>
<ellipse fill="none" stroke="#e377c2" cx="617.19" cy="-521.58" rx="118.17" ry="16.03"/>
<text text-anchor="middle" x="617.19" y="-517.88" font-family="Times,serif" font-size="14.00">okhmeta:PhysicalTag</text>
</g>
<!-- http://w3id.org/oseg/ont/okhmeta#PhysicalTag&#45;&gt;http://w3id.org/oseg/ont/okhmeta#Tag -->
<g id="edge4" class="edge">
<title>http://w3id.org/oseg/ont/okhmeta#PhysicalTag&#45;&gt;http://w3id.org/oseg/ont/okhmeta#Tag</title>
<path fill="none" stroke="black" d="M667.9,-506.79C741.45,-485.35 877.22,-445.76 953.11,-423.63"/>
<polygon fill="black" stroke="black" points="954.34,-426.92 962.96,-420.76 952.38,-420.2 954.34,-426.92"/>
<text text-anchor="middle" x="806.01" y="-469.01" font-family="Times,serif" font-size="14.00">a</text>
</g>
<!-- http://w3id.org/oseg/ont/okhmeta#PhysicalTag&#45;&gt;http://w3id.org/oseg/ont/okhmeta#MetaTag -->
<g id="edge15" class="edge">
<title>http://w3id.org/oseg/ont/okhmeta#PhysicalTag&#45;&gt;http://w3id.org/oseg/ont/okhmeta#MetaTag</title>
<path fill="none" stroke="black" d="M675.95,-507.42C724.63,-495.7 793.8,-479.04 844.51,-466.82"/>
<polygon fill="black" stroke="black" points="845.49,-470.19 854.39,-464.44 843.85,-463.38 845.49,-470.19"/>
<text text-anchor="middle" x="683.23" y="-490.92" font-family="Times,serif" font-size="14.00">okhmeta:hasMetaTag</text>
</g>
<!-- http://w3id.org/oseg/ont/okhmeta#ExtendedInfoTag -->
<g id="node12" class="node">
<title>http://w3id.org/oseg/ont/okhmeta#ExtendedInfoTag</title>
<ellipse fill="none" stroke="#e377c2" cx="1202.06" cy="-141.83" rx="120.42" ry="16.03"/>
<text text-anchor="middle" x="1202.06" y="-138.13" font-family="Times,serif" font-size="14.00">okhmeta:ExtendedI...</text>
</g>
<!-- http://w3id.org/oseg/ont/okhmeta#ExtendedInfoTag&#45;&gt;http://w3id.org/oseg/ont/okhmeta#Tag -->
<g id="edge25" class="edge">
<title>http://w3id.org/oseg/ont/okhmeta#ExtendedInfoTag&#45;&gt;http://w3id.org/oseg/ont/okhmeta#Tag</title>
<path fill="none" stroke="black" d="M1190.22,-158.06C1157.42,-203 1065.24,-329.32 1026.09,-382.98"/>
<polygon fill="black" stroke="black" points="1023.13,-381.1 1020.06,-391.24 1028.78,-385.23 1023.13,-381.1"/>
<text text-anchor="middle" x="1103.65" y="-274.32" font-family="Times,serif" font-size="14.00">a</text>
</g>
<!-- http://w3id.org/oseg/ont/okhmeta#ExtendedInfoTag&#45;&gt;http://w3id.org/oseg/ont/okhmeta#MetaTag -->
<g id="edge24" class="edge">
<title>http://w3id.org/oseg/ont/okhmeta#ExtendedInfoTag&#45;&gt;http://w3id.org/oseg/ont/okhmeta#MetaTag</title>
<path fill="none" stroke="black" d="M1186.82,-158.01C1138.81,-208.98 990.47,-366.47 933.58,-426.87"/>
<polygon fill="black" stroke="black" points="930.8,-424.72 926.49,-434.4 935.9,-429.52 930.8,-424.72"/>
<text text-anchor="middle" x="983.2" y="-296.24" font-family="Times,serif" font-size="14.00">okhmeta:hasMetaTag</text>
</g>
<!-- http://w3id.org/oseg/ont/okhmeta#QualityTag -->
<g id="node13" class="node">
<title>http://w3id.org/oseg/ont/okhmeta#QualityTag</title>
<ellipse fill="none" stroke="#e377c2" cx="632.45" cy="-346.44" rx="113.27" ry="16.03"/>
<text text-anchor="middle" x="632.45" y="-342.74" font-family="Times,serif" font-size="14.00">okhmeta:QualityTag</text>
</g>
<!-- http://w3id.org/oseg/ont/okhmeta#QualityTag&#45;&gt;http://w3id.org/oseg/ont/okhmeta#Tag -->
<g id="edge26" class="edge">
<title>http://w3id.org/oseg/ont/okhmeta#QualityTag&#45;&gt;http://w3id.org/oseg/ont/okhmeta#Tag</title>
<path fill="none" stroke="black" d="M707.57,-358.67C774.44,-369.55 871.56,-385.36 937.14,-396.04"/>
<polygon fill="black" stroke="black" points="936.95,-399.55 947.39,-397.7 938.08,-392.64 936.95,-399.55"/>
<text text-anchor="middle" x="817.86" y="-381.15" font-family="Times,serif" font-size="14.00">a</text>
</g>
<!-- http://w3id.org/oseg/ont/okhmeta#QualityTag&#45;&gt;http://w3id.org/oseg/ont/okhmeta#MetaTag -->
<g id="edge43" class="edge">
<title>http://w3id.org/oseg/ont/okhmeta#QualityTag&#45;&gt;http://w3id.org/oseg/ont/okhmeta#MetaTag</title>
<path fill="none" stroke="black" d="M673.26,-361.72C723.2,-380.43 807.73,-412.09 861.39,-432.19"/>
<polygon fill="black" stroke="black" points="860.45,-435.57 871.04,-435.8 862.9,-429.02 860.45,-435.57"/>
<text text-anchor="middle" x="690.33" y="-400.76" font-family="Times,serif" font-size="14.00">okhmeta:hasMetaTag</text>
</g>
<!-- http://w3id.org/oseg/ont/okhmeta#IdentificationTag -->
<g id="node14" class="node">
<title>http://w3id.org/oseg/ont/okhmeta#IdentificationTag</title>
<ellipse fill="none" stroke="#e377c2" cx="1310.23" cy="-369.77" rx="109.7" ry="16.03"/>
<text text-anchor="middle" x="1310.23" y="-366.07" font-family="Times,serif" font-size="14.00">okhmeta:Identific...</text>
</g>
<!-- http://w3id.org/oseg/ont/okhmeta#IdentificationTag&#45;&gt;http://w3id.org/oseg/ont/okhmeta#Tag -->
<g id="edge6" class="edge">
<title>http://w3id.org/oseg/ont/okhmeta#IdentificationTag&#45;&gt;http://w3id.org/oseg/ont/okhmeta#Tag</title>
<path fill="none" stroke="black" d="M1226.08,-380.3C1181.63,-385.87 1127.5,-392.65 1084.3,-398.05"/>
<polygon fill="black" stroke="black" points="1083.62,-394.61 1074.13,-399.33 1084.49,-401.56 1083.62,-394.61"/>
<text text-anchor="middle" x="1150.69" y="-392.98" font-family="Times,serif" font-size="14.00">a</text>
</g>
<!-- http://w3id.org/oseg/ont/okhmeta#IdentificationTag&#45;&gt;http://w3id.org/oseg/ont/okhmeta#MetaTag -->
<g id="edge17" class="edge">
<title>http://w3id.org/oseg/ont/okhmeta#IdentificationTag&#45;&gt;http://w3id.org/oseg/ont/okhmeta#MetaTag</title>
<path fill="none" stroke="black" d="M1245.21,-382.96C1173.64,-397.49 1058.86,-420.79 984.21,-435.94"/>
<polygon fill="black" stroke="black" points="983.51,-432.51 974.4,-437.93 984.9,-439.37 983.51,-432.51"/>
<text text-anchor="middle" x="1191.71" y="-413.25" font-family="Times,serif" font-size="14.00">okhmeta:hasMetaTag</text>
</g>
<!-- http://w3id.org/oseg/ont/okhmeta#PartsTag -->
<g id="node15" class="node">
<title>http://w3id.org/oseg/ont/okhmeta#PartsTag</title>
<ellipse fill="none" stroke="#e377c2" cx="845.96" cy="-104.98" rx="103.48" ry="16.03"/>
<text text-anchor="middle" x="845.96" y="-101.28" font-family="Times,serif" font-size="14.00">okhmeta:PartsTag</text>
</g>
<!-- http://w3id.org/oseg/ont/okhmeta#PartsTag&#45;&gt;http://w3id.org/oseg/ont/okhmeta#Tag -->
<g id="edge28" class="edge">
<title>http://w3id.org/oseg/ont/okhmeta#PartsTag&#45;&gt;http://w3id.org/oseg/ont/okhmeta#Tag</title>
<path fill="none" stroke="black" d="M854.68,-121.25C881.41,-171.13 962.33,-322.14 994.62,-382.38"/>
<polygon fill="black" stroke="black" points="991.56,-384.08 999.37,-391.24 997.73,-380.77 991.56,-384.08"/>
<text text-anchor="middle" x="920.15" y="-240.62" font-family="Times,serif" font-size="14.00">a</text>
</g>
<!-- http://w3id.org/oseg/ont/okhmeta#PartsTag&#45;&gt;http://w3id.org/oseg/ont/okhmeta#MetaTag -->
<g id="edge27" class="edge">
<title>http://w3id.org/oseg/ont/okhmeta#PartsTag&#45;&gt;http://w3id.org/oseg/ont/okhmeta#MetaTag</title>
<path fill="none" stroke="black" d="M849.1,-121.66C859.56,-177.24 893.3,-356.46 906.08,-424.37"/>
<polygon fill="black" stroke="black" points="902.66,-425.1 907.95,-434.28 909.54,-423.8 902.66,-425.1"/>
<text text-anchor="middle" x="800.59" y="-276.82" font-family="Times,serif" font-size="14.00">okhmeta:hasMetaTag</text>
</g>
<!-- http://w3id.org/oseg/ont/okhmeta#DataGatheringTag -->
<g id="node17" class="node">
<title>http://w3id.org/oseg/ont/okhmeta#DataGatheringTag</title>
<ellipse fill="none" stroke="#e377c2" cx="1297.71" cy="-627.69" rx="122.16" ry="16.03"/>
<text text-anchor="middle" x="1297.71" y="-623.99" font-family="Times,serif" font-size="14.00">okhmeta:DataGathe...</text>
</g>
<!-- http://w3id.org/oseg/ont/okhmeta#DataGatheringTag&#45;&gt;http://w3id.org/oseg/ont/okhmeta#Tag -->
<g id="edge32" class="edge">
<title>http://w3id.org/oseg/ont/okhmeta#DataGatheringTag&#45;&gt;http://w3id.org/oseg/ont/okhmeta#Tag</title>
<path fill="none" stroke="black" d="M1276.42,-611.5C1225.25,-572.61 1095.33,-473.87 1037.11,-429.62"/>
<polygon fill="black" stroke="black" points="1039.14,-426.77 1029.06,-423.5 1034.91,-432.34 1039.14,-426.77"/>
<text text-anchor="middle" x="1152.27" y="-524.36" font-family="Times,serif" font-size="14.00">a</text>
</g>
<!-- http://w3id.org/oseg/ont/okhmeta#DataGatheringTag&#45;&gt;http://w3id.org/oseg/ont/okhmeta#MetaTag -->
<g id="edge30" class="edge">
<title>http://w3id.org/oseg/ont/okhmeta#DataGatheringTag&#45;&gt;http://w3id.org/oseg/ont/okhmeta#MetaTag</title>
<path fill="none" stroke="black" d="M1263.4,-611.99C1192.86,-579.72 1031.69,-505.98 954.21,-470.53"/>
<polygon fill="black" stroke="black" points="955.29,-467.18 944.74,-466.2 952.38,-473.55 955.29,-467.18"/>
<text text-anchor="middle" x="1185.8" y="-545.06" font-family="Times,serif" font-size="14.00">okhmeta:hasMetaTag</text>
</g>
<!-- http://w3id.org/oseg/ont/okhmeta#BasicTag -->
<g id="node18" class="node">
<title>http://w3id.org/oseg/ont/okhmeta#BasicTag</title>
<ellipse fill="none" stroke="#e377c2" cx="1187.66" cy="-678.7" rx="103.48" ry="16.03"/>
<text text-anchor="middle" x="1187.66" y="-675" font-family="Times,serif" font-size="14.00">okhmeta:BasicTag</text>
</g>
<!-- http://w3id.org/oseg/ont/okhmeta#BasicTag&#45;&gt;http://w3id.org/oseg/ont/okhmeta#Tag -->
<g id="edge8" class="edge">
<title>http://w3id.org/oseg/ont/okhmeta#BasicTag&#45;&gt;http://w3id.org/oseg/ont/okhmeta#Tag</title>
<path fill="none" stroke="black" d="M1176.7,-662.15C1146.26,-616.19 1060.6,-486.83 1024.49,-432.31"/>
<polygon fill="black" stroke="black" points="1027.38,-430.33 1018.94,-423.93 1021.55,-434.2 1027.38,-430.33"/>
<text text-anchor="middle" x="1096.1" y="-551.03" font-family="Times,serif" font-size="14.00">a</text>
</g>
<!-- http://w3id.org/oseg/ont/okhmeta#BasicTag&#45;&gt;http://w3id.org/oseg/ont/okhmeta#MetaTag -->
<g id="edge23" class="edge">
<title>http://w3id.org/oseg/ont/okhmeta#BasicTag&#45;&gt;http://w3id.org/oseg/ont/okhmeta#MetaTag</title>
<path fill="none" stroke="black" d="M1168.21,-662.67C1119.9,-622.87 994.34,-519.42 938.51,-473.41"/>
<polygon fill="black" stroke="black" points="940.43,-470.46 930.48,-466.8 935.98,-475.86 940.43,-470.46"/>
<text text-anchor="middle" x="976.36" y="-571.84" font-family="Times,serif" font-size="14.00">okhmeta:hasMetaTag</text>
</g>
<!-- http://w3id.org/oseg/ont/okhmeta#TransportationTag -->
<g id="node19" class="node">
<title>http://w3id.org/oseg/ont/okhmeta#TransportationTag</title>
<ellipse fill="none" stroke="#e377c2" cx="910.33" cy="-512.1" rx="118.17" ry="16.03"/>
<text text-anchor="middle" x="910.33" y="-508.4" font-family="Times,serif" font-size="14.00">okhmeta:Transport...</text>
</g>
<!-- http://w3id.org/oseg/ont/okhmeta#TransportationTag&#45;&gt;http://w3id.org/oseg/ont/okhmeta#Tag -->
<g id="edge10" class="edge">
<title>http://w3id.org/oseg/ont/okhmeta#TransportationTag&#45;&gt;http://w3id.org/oseg/ont/okhmeta#Tag</title>
<path fill="none" stroke="black" d="M925.61,-495.77C941.83,-478.44 967.61,-450.89 986.04,-431.19"/>
<polygon fill="black" stroke="black" points="988.68,-433.5 992.95,-423.81 983.57,-428.72 988.68,-433.5"/>
<text text-anchor="middle" x="951.33" y="-467.28" font-family="Times,serif" font-size="14.00">a</text>
</g>
<!-- http://w3id.org/oseg/ont/okhmeta#TransportationTag&#45;&gt;http://w3id.org/oseg/ont/okhmeta#MetaTag -->
<g id="edge9" class="edge">
<title>http://w3id.org/oseg/ont/okhmeta#TransportationTag&#45;&gt;http://w3id.org/oseg/ont/okhmeta#MetaTag</title>
<path fill="none" stroke="black" d="M910.52,-495.67C910.59,-490.04 910.67,-483.58 910.74,-477.35"/>
<polygon fill="black" stroke="black" points="914.24,-477.31 910.86,-467.27 907.24,-477.22 914.24,-477.31"/>
<text text-anchor="middle" x="987.63" y="-475.31" font-family="Times,serif" font-size="14.00">okhmeta:hasMetaTag</text>
</g>
<!-- http://w3id.org/oseg/ont/okhmeta#DataTag -->
<g id="node20" class="node">
<title>http://w3id.org/oseg/ont/okhmeta#DataTag</title>
<ellipse fill="none" stroke="#e377c2" cx="1133.7" cy="-745.58" rx="100.32" ry="16.03"/>
<text text-anchor="middle" x="1133.7" y="-741.88" font-family="Times,serif" font-size="14.00">okhmeta:DataTag</text>
</g>
<!-- http://w3id.org/oseg/ont/okhmeta#DataTag&#45;&gt;http://w3id.org/oseg/ont/okhmeta#Tag -->
<g id="edge34" class="edge">
<title>http://w3id.org/oseg/ont/okhmeta#DataTag&#45;&gt;http://w3id.org/oseg/ont/okhmeta#Tag</title>
<path fill="none" stroke="black" d="M1127.65,-729.28C1107.51,-675.08 1042.68,-500.6 1017.89,-433.87"/>
<polygon fill="black" stroke="black" points="1021.03,-432.28 1014.27,-424.13 1014.47,-434.72 1021.03,-432.28"/>
<text text-anchor="middle" x="1068.27" y="-585.38" font-family="Times,serif" font-size="14.00">a</text>
</g>
<!-- http://w3id.org/oseg/ont/okhmeta#DataTag&#45;&gt;http://w3id.org/oseg/ont/okhmeta#MetaTag -->
<g id="edge46" class="edge">
<title>http://w3id.org/oseg/ont/okhmeta#DataTag&#45;&gt;http://w3id.org/oseg/ont/okhmeta#MetaTag</title>
<path fill="none" stroke="black" d="M1121.42,-729.31C1084.39,-680.29 973.73,-533.78 929.56,-475.3"/>
<polygon fill="black" stroke="black" points="932.13,-472.88 923.31,-467.01 926.54,-477.1 932.13,-472.88"/>
<text text-anchor="middle" x="948.49" y="-591.1" font-family="Times,serif" font-size="14.00">okhmeta:hasMetaTag</text>
</g>
<!-- http://w3id.org/oseg/ont/okhmeta#DocumentationTag -->
<g id="node22" class="node">
<title>http://w3id.org/oseg/ont/okhmeta#DocumentationTag</title>
<ellipse fill="none" stroke="#e377c2" cx="1297.45" cy="-239.2" rx="125.32" ry="16.03"/>
<text text-anchor="middle" x="1297.45" y="-235.5" font-family="Times,serif" font-size="14.00">okhmeta:Documenta...</text>
</g>
<!-- http://w3id.org/oseg/ont/okhmeta#DocumentationTag&#45;&gt;http://w3id.org/oseg/ont/okhmeta#Tag -->
<g id="edge37" class="edge">
<title>http://w3id.org/oseg/ont/okhmeta#DocumentationTag&#45;&gt;http://w3id.org/oseg/ont/okhmeta#Tag</title>
<path fill="none" stroke="black" d="M1269.97,-255.19C1217.22,-285.9 1101.82,-353.06 1043.45,-387.03"/>
<polygon fill="black" stroke="black" points="1041.47,-384.14 1034.59,-392.19 1044.99,-390.19 1041.47,-384.14"/>
<text text-anchor="middle" x="1152.21" y="-324.91" font-family="Times,serif" font-size="14.00">a</text>
</g>
<!-- http://w3id.org/oseg/ont/okhmeta#DocumentationTag&#45;&gt;http://w3id.org/oseg/ont/okhmeta#MetaTag -->
<g id="edge36" class="edge">
<title>http://w3id.org/oseg/ont/okhmeta#DocumentationTag&#45;&gt;http://w3id.org/oseg/ont/okhmeta#MetaTag</title>
<path fill="none" stroke="black" d="M1268.41,-255.1C1199.35,-292.92 1025.36,-388.2 948.52,-430.28"/>
<polygon fill="black" stroke="black" points="946.74,-427.26 939.65,-435.14 950.1,-433.4 946.74,-427.26"/>
<text text-anchor="middle" x="1031.47" y="-346.49" font-family="Times,serif" font-size="14.00">okhmeta:hasMetaTag</text>
</g>
<!-- http://w3id.org/oseg/ont/okhmeta#LegalTag -->
<g id="node24" class="node">
<title>http://w3id.org/oseg/ont/okhmeta#LegalTag</title>
<ellipse fill="none" stroke="#e377c2" cx="944.64" cy="-788.15" rx="103.89" ry="16.03"/>
<text text-anchor="middle" x="944.64" y="-784.45" font-family="Times,serif" font-size="14.00">okhmeta:LegalTag</text>
</g>
<!-- http://w3id.org/oseg/ont/okhmeta#LegalTag&#45;&gt;http://w3id.org/oseg/ont/okhmeta#Tag -->
<g id="edge40" class="edge">
<title>http://w3id.org/oseg/ont/okhmeta#LegalTag&#45;&gt;http://w3id.org/oseg/ont/okhmeta#Tag</title>
<path fill="none" stroke="black" d="M947.37,-771.8C957.28,-712.39 991.44,-507.64 1003.7,-434.13"/>
<polygon fill="black" stroke="black" points="1007.22,-434.32 1005.41,-423.88 1000.31,-433.17 1007.22,-434.32"/>
<text text-anchor="middle" x="971.03" y="-606.76" font-family="Times,serif" font-size="14.00">a</text>
</g>
<!-- http://w3id.org/oseg/ont/okhmeta#LegalTag&#45;&gt;http://w3id.org/oseg/ont/okhmeta#MetaTag -->
<g id="edge39" class="edge">
<title>http://w3id.org/oseg/ont/okhmeta#LegalTag&#45;&gt;http://w3id.org/oseg/ont/okhmeta#MetaTag</title>
<path fill="none" stroke="black" d="M943.02,-771.88C937.64,-717.89 920.37,-544.34 913.71,-477.44"/>
<polygon fill="black" stroke="black" points="917.17,-476.9 912.7,-467.29 910.21,-477.59 917.17,-476.9"/>
<text text-anchor="middle" x="851.36" y="-628.46" font-family="Times,serif" font-size="14.00">okhmeta:hasMetaTag</text>
</g>
<!-- http://w3id.org/oseg/ont/okhmeta#HistoryTag -->
<g id="node25" class="node">
<title>http://w3id.org/oseg/ont/okhmeta#HistoryTag</title>
<ellipse fill="none" stroke="#e377c2" cx="1320.8" cy="-497.18" rx="113.69" ry="16.03"/>
<text text-anchor="middle" x="1320.8" y="-493.48" font-family="Times,serif" font-size="14.00">okhmeta:HistoryTag</text>
</g>
<!-- http://w3id.org/oseg/ont/okhmeta#HistoryTag&#45;&gt;http://w3id.org/oseg/ont/okhmeta#Tag -->
<g id="edge18" class="edge">
<title>http://w3id.org/oseg/ont/okhmeta#HistoryTag&#45;&gt;http://w3id.org/oseg/ont/okhmeta#Tag</title>
<path fill="none" stroke="black" d="M1269.87,-482.58C1213.27,-466.37 1122.17,-440.27 1063.75,-423.53"/>
<polygon fill="black" stroke="black" points="1064.52,-420.11 1053.95,-420.72 1062.6,-426.84 1064.52,-420.11"/>
<text text-anchor="middle" x="1162.31" y="-456.85" font-family="Times,serif" font-size="14.00">a</text>
</g>
<!-- http://w3id.org/oseg/ont/okhmeta#HistoryTag&#45;&gt;http://w3id.org/oseg/ont/okhmeta#MetaTag -->
<g id="edge44" class="edge">
<title>http://w3id.org/oseg/ont/okhmeta#HistoryTag&#45;&gt;http://w3id.org/oseg/ont/okhmeta#MetaTag</title>
<path fill="none" stroke="black" d="M1231.39,-487.05C1164.42,-479.47 1073.01,-469.13 1004.98,-461.42"/>
<polygon fill="black" stroke="black" points="1005.02,-457.91 994.69,-460.26 1004.23,-464.86 1005.02,-457.91"/>
<text text-anchor="middle" x="1195.18" y="-463.04" font-family="Times,serif" font-size="14.00">okhmeta:hasMetaTag</text>
</g>
<!-- http://w3id.org/oseg/ont/okhmeta#AcademicTag -->
<g id="node27" class="node">
<title>http://w3id.org/oseg/ont/okhmeta#AcademicTag</title>
<ellipse fill="none" stroke="#e377c2" cx="744.75" cy="-745.51" rx="124.4" ry="16.03"/>
<text text-anchor="middle" x="744.75" y="-741.81" font-family="Times,serif" font-size="14.00">okhmeta:AcademicTag</text>
</g>
<!-- http://w3id.org/oseg/ont/okhmeta#AcademicTag&#45;&gt;http://w3id.org/oseg/ont/okhmeta#Tag -->
<g id="edge21" class="edge">
<title>http://w3id.org/oseg/ont/okhmeta#AcademicTag&#45;&gt;http://w3id.org/oseg/ont/okhmeta#Tag</title>
<path fill="none" stroke="black" d="M757.45,-729.21C800.13,-674.46 938.54,-496.88 989.27,-431.79"/>
<polygon fill="black" stroke="black" points="992.17,-433.77 995.55,-423.73 986.64,-429.46 992.17,-433.77"/>
<text text-anchor="middle" x="868.86" y="-569.3" font-family="Times,serif" font-size="14.00">a</text>
</g>
<!-- http://w3id.org/oseg/ont/okhmeta#AcademicTag&#45;&gt;http://w3id.org/oseg/ont/okhmeta#MetaTag -->
<g id="edge33" class="edge">
<title>http://w3id.org/oseg/ont/okhmeta#AcademicTag&#45;&gt;http://w3id.org/oseg/ont/okhmeta#MetaTag</title>
<path fill="none" stroke="black" d="M753.93,-729.25C781.47,-680.44 863.56,-534.96 896.82,-476.01"/>
<polygon fill="black" stroke="black" points="900.04,-477.44 901.91,-467.01 893.94,-474 900.04,-477.44"/>
<text text-anchor="middle" x="748.38" y="-606.43" font-family="Times,serif" font-size="14.00">okhmeta:hasMetaTag</text>
</g>
<!-- http://w3id.org/oseg/ont/okhmeta#DevelopmentTag -->
<g id="node28" class="node">
<title>http://w3id.org/oseg/ont/okhmeta#DevelopmentTag</title>
<ellipse fill="none" stroke="#e377c2" cx="672.87" cy="-661.05" rx="124.4" ry="16.03"/>
<text text-anchor="middle" x="672.87" y="-657.35" font-family="Times,serif" font-size="14.00">okhmeta:Developme...</text>
</g>
<!-- http://w3id.org/oseg/ont/okhmeta#DevelopmentTag&#45;&gt;http://w3id.org/oseg/ont/okhmeta#Tag -->
<g id="edge22" class="edge">
<title>http://w3id.org/oseg/ont/okhmeta#DevelopmentTag&#45;&gt;http://w3id.org/oseg/ont/okhmeta#Tag</title>
<path fill="none" stroke="black" d="M694.1,-645C751.95,-601.26 912.51,-479.88 978.86,-429.72"/>
<polygon fill="black" stroke="black" points="981.34,-432.23 987.21,-423.41 977.12,-426.64 981.34,-432.23"/>
<text text-anchor="middle" x="831.98" y="-541.16" font-family="Times,serif" font-size="14.00">a</text>
</g>
<!-- http://w3id.org/oseg/ont/okhmeta#DevelopmentTag&#45;&gt;http://w3id.org/oseg/ont/okhmeta#MetaTag -->
<g id="edge29" class="edge">
<title>http://w3id.org/oseg/ont/okhmeta#DevelopmentTag&#45;&gt;http://w3id.org/oseg/ont/okhmeta#MetaTag</title>
<path fill="none" stroke="black" d="M691.17,-644.9C733.16,-607.83 836.59,-516.52 885.12,-473.68"/>
<polygon fill="black" stroke="black" points="887.52,-476.24 892.7,-467 882.89,-470.99 887.52,-476.24"/>
<text text-anchor="middle" x="711.15" y="-563.09" font-family="Times,serif" font-size="14.00">okhmeta:hasMetaTag</text>
</g>
</g>
</svg>
