<?xml version="1.0" encoding="UTF-8" standalone="no"?>
<!DOCTYPE svg PUBLIC "-//W3C//DTD SVG 1.1//EN"
 "http://www.w3.org/Graphics/SVG/1.1/DTD/svg11.dtd">
<!-- Generated by graphviz version 2.43.0 (0)
 -->
<!-- Title: G Pages: 1 -->
<svg width="1277pt" height="1236pt"
 viewBox="0.00 0.00 1277.00 1236.00" xmlns="http://www.w3.org/2000/svg" xmlns:xlink="http://www.w3.org/1999/xlink">
<g id="graph0" class="graph" transform="scale(1 1) rotate(0) translate(4 1232)">
<title>G</title>
<polygon fill="white" stroke="transparent" points="-4,4 -4,-1232 1273,-1232 1273,4 -4,4"/>
<!-- http://w3id.org/oseg/ont/okhmeta#Tag -->
<g id="node1" class="node">
<title>http://w3id.org/oseg/ont/okhmeta#Tag</title>
<ellipse fill="none" stroke="#e377c2" cx="449.9" cy="-341.85" rx="76.24" ry="16.03"/>
<text text-anchor="middle" x="449.9" y="-338.15" font-family="Times,serif" font-size="14.00">okhmeta:Tag</text>
</g>
<!-- http://www.w3.org/2004/02/skos/core#Concept -->
<g id="node2" class="node">
<title>http://www.w3.org/2004/02/skos/core#Concept</title>
<ellipse fill="none" stroke="#1f77b4" cx="469.33" cy="-652.31" rx="78.48" ry="16.03"/>
<text text-anchor="middle" x="469.33" y="-648.61" font-family="Times,serif" font-size="14.00">skos:Concept</text>
</g>
<!-- http://w3id.org/oseg/ont/okhmeta#Tag&#45;&gt;http://www.w3.org/2004/02/skos/core#Concept -->
<g id="edge42" class="edge">
<title>http://w3id.org/oseg/ont/okhmeta#Tag&#45;&gt;http://www.w3.org/2004/02/skos/core#Concept</title>
<path fill="none" stroke="black" d="M450.94,-358.54C454.13,-409.51 463.77,-563.45 467.66,-625.72"/>
<polygon fill="black" stroke="black" points="464.18,-626.15 468.3,-635.91 471.17,-625.71 464.18,-626.15"/>
<text text-anchor="middle" x="454.8" y="-495.93" font-family="Times,serif" font-size="14.00">a</text>
</g>
<!-- http://www.w3.org/2004/02/skos/core#Collection -->
<g id="node4" class="node">
<title>http://www.w3.org/2004/02/skos/core#Collection</title>
<ellipse fill="none" stroke="#e377c2" cx="211.91" cy="-50.66" rx="87.86" ry="16.03"/>
<text text-anchor="middle" x="211.91" y="-46.96" font-family="Times,serif" font-size="14.00">skos:Collection</text>
</g>
<!-- http://w3id.org/oseg/ont/okhmeta#Tag&#45;&gt;http://www.w3.org/2004/02/skos/core#Collection -->
<g id="edge17" class="edge">
<title>http://w3id.org/oseg/ont/okhmeta#Tag&#45;&gt;http://www.w3.org/2004/02/skos/core#Collection</title>
<path fill="none" stroke="black" d="M436.76,-325.78C397.2,-277.37 278.98,-132.72 231.73,-74.92"/>
<polygon fill="black" stroke="black" points="234.34,-72.57 225.3,-67.04 228.92,-77 234.34,-72.57"/>
</g>
<!-- http://w3id.org/oseg/ont/okhmeta#MetaTag -->
<g id="node7" class="node">
<title>http://w3id.org/oseg/ont/okhmeta#MetaTag</title>
<ellipse fill="none" stroke="#e377c2" cx="462.74" cy="-382.96" rx="102.56" ry="16.03"/>
<text text-anchor="middle" x="462.74" y="-379.26" font-family="Times,serif" font-size="14.00">okhmeta:MetaTag</text>
</g>
<!-- http://w3id.org/oseg/ont/okhmeta#Tag&#45;&gt;http://w3id.org/oseg/ont/okhmeta#MetaTag -->
<g id="edge46" class="edge">
<title>http://w3id.org/oseg/ont/okhmeta#Tag&#45;&gt;http://w3id.org/oseg/ont/okhmeta#MetaTag</title>
<path fill="none" stroke="black" d="M448.21,-358.16C448.23,-358.24 448.25,-358.33 448.27,-358.42"/>
<polygon fill="black" stroke="black" points="444.48,-357.88 450.58,-366.55 451.21,-355.97 444.48,-357.88"/>
<text text-anchor="middle" x="371.24" y="-362.09" font-family="Times,serif" font-size="14.00">okhmeta:hasMetaTag</text>
</g>
<!-- http://spdx.org/rdf/terms#SpdxItem -->
<g id="node3" class="node">
<title>http://spdx.org/rdf/terms#SpdxItem</title>
<ellipse fill="none" stroke="#1f77b4" cx="853.17" cy="-1208.86" rx="87.86" ry="16.03"/>
<text text-anchor="middle" x="853.17" y="-1205.16" font-family="Times,serif" font-size="14.00">spdx:SpdxItem</text>
</g>
<!-- http://w3id.org/oseg/ont/okhmeta#DataTag -->
<g id="node5" class="node">
<title>http://w3id.org/oseg/ont/okhmeta#DataTag</title>
<ellipse fill="none" stroke="#e377c2" cx="281.72" cy="-623.09" rx="100.32" ry="16.03"/>
<text text-anchor="middle" x="281.72" y="-619.39" font-family="Times,serif" font-size="14.00">okhmeta:DataTag</text>
</g>
<!-- http://w3id.org/oseg/ont/okhmeta#DataTag&#45;&gt;http://w3id.org/oseg/ont/okhmeta#Tag -->
<g id="edge1" class="edge">
<title>http://w3id.org/oseg/ont/okhmeta#DataTag&#45;&gt;http://w3id.org/oseg/ont/okhmeta#Tag</title>
<path fill="none" stroke="black" d="M291.49,-606.75C319.64,-559.67 401.11,-423.44 434.92,-366.91"/>
<polygon fill="black" stroke="black" points="437.97,-368.61 440.1,-358.23 431.97,-365.02 437.97,-368.61"/>
<text text-anchor="middle" x="358.7" y="-490.63" font-family="Times,serif" font-size="14.00">a</text>
</g>
<!-- http://w3id.org/oseg/ont/okhmeta#DataTag&#45;&gt;http://w3id.org/oseg/ont/okhmeta#MetaTag -->
<g id="edge22" class="edge">
<title>http://w3id.org/oseg/ont/okhmeta#DataTag&#45;&gt;http://w3id.org/oseg/ont/okhmeta#MetaTag</title>
<path fill="none" stroke="black" d="M294.16,-606.58C325.43,-565.1 407.45,-456.31 444.32,-407.4"/>
<polygon fill="black" stroke="black" points="447.23,-409.35 450.45,-399.26 441.64,-405.14 447.23,-409.35"/>
<text text-anchor="middle" x="292.24" y="-510.79" font-family="Times,serif" font-size="14.00">okhmeta:hasMetaTag</text>
</g>
<!-- http://w3id.org/oseg/ont/okhmeta#HistoryTag -->
<g id="node6" class="node">
<title>http://w3id.org/oseg/ont/okhmeta#HistoryTag</title>
<ellipse fill="none" stroke="#e377c2" cx="754.45" cy="-225.14" rx="113.69" ry="16.03"/>
<text text-anchor="middle" x="754.45" y="-221.44" font-family="Times,serif" font-size="14.00">okhmeta:HistoryTag</text>
</g>
<!-- http://w3id.org/oseg/ont/okhmeta#HistoryTag&#45;&gt;http://w3id.org/oseg/ont/okhmeta#Tag -->
<g id="edge2" class="edge">
<title>http://w3id.org/oseg/ont/okhmeta#HistoryTag&#45;&gt;http://w3id.org/oseg/ont/okhmeta#Tag</title>
<path fill="none" stroke="black" d="M714.64,-240.4C658.58,-261.88 556.6,-300.96 496.9,-323.84"/>
<polygon fill="black" stroke="black" points="495.42,-320.66 487.33,-327.51 497.92,-327.2 495.42,-320.66"/>
<text text-anchor="middle" x="601.27" y="-285.92" font-family="Times,serif" font-size="14.00">a</text>
</g>
<!-- http://w3id.org/oseg/ont/okhmeta#HistoryTag&#45;&gt;http://w3id.org/oseg/ont/okhmeta#MetaTag -->
<g id="edge13" class="edge">
<title>http://w3id.org/oseg/ont/okhmeta#HistoryTag&#45;&gt;http://w3id.org/oseg/ont/okhmeta#MetaTag</title>
<path fill="none" stroke="black" d="M725.15,-241C671.94,-269.78 559.5,-330.61 500.58,-362.49"/>
<polygon fill="black" stroke="black" points="498.73,-359.51 491.6,-367.35 502.06,-365.67 498.73,-359.51"/>
<text text-anchor="middle" x="535.86" y="-305.54" font-family="Times,serif" font-size="14.00">okhmeta:hasMetaTag</text>
</g>
<!-- http://w3id.org/oseg/ont/okhmeta#MetaTag&#45;&gt;http://w3id.org/oseg/ont/okhmeta#Tag -->
<g id="edge14" class="edge">
<title>http://w3id.org/oseg/ont/okhmeta#MetaTag&#45;&gt;http://w3id.org/oseg/ont/okhmeta#Tag</title>
<path fill="none" stroke="black" d="M464.43,-366.65C464.41,-366.56 464.39,-366.47 464.37,-366.38"/>
<polygon fill="black" stroke="black" points="468.08,-366.63 461.96,-357.98 461.35,-368.55 468.08,-366.63"/>
<text text-anchor="middle" x="459.9" y="-355.32" font-family="Times,serif" font-size="14.00">a</text>
</g>
<!-- http://w3id.org/oseg/ont/okhmeta#MetaTag&#45;&gt;http://w3id.org/oseg/ont/okhmeta#MetaTag -->
<g id="edge8" class="edge">
<title>http://w3id.org/oseg/ont/okhmeta#MetaTag&#45;&gt;http://w3id.org/oseg/ont/okhmeta#MetaTag</title>
<path fill="none" stroke="black" d="M557.73,-389.17C572.9,-388.26 583.27,-386.19 583.27,-382.96 583.27,-380.51 577.31,-378.72 567.83,-377.61"/>
<polygon fill="black" stroke="black" points="568,-374.11 557.73,-376.74 567.4,-381.08 568,-374.11"/>
<text text-anchor="middle" x="660.27" y="-379.26" font-family="Times,serif" font-size="14.00">okhmeta:hasMetaTag</text>
</g>
<!-- http://w3id.org/oseg/ont/okhmeta#TransportationTag -->
<g id="node8" class="node">
<title>http://w3id.org/oseg/ont/okhmeta#TransportationTag</title>
<ellipse fill="none" stroke="#e377c2" cx="127.09" cy="-473.81" rx="118.17" ry="16.03"/>
<text text-anchor="middle" x="127.09" y="-470.11" font-family="Times,serif" font-size="14.00">okhmeta:Transport...</text>
</g>
<!-- http://w3id.org/oseg/ont/okhmeta#TransportationTag&#45;&gt;http://w3id.org/oseg/ont/okhmeta#Tag -->
<g id="edge5" class="edge">
<title>http://w3id.org/oseg/ont/okhmeta#TransportationTag&#45;&gt;http://w3id.org/oseg/ont/okhmeta#Tag</title>
<path fill="none" stroke="black" d="M165.07,-458.28C224.99,-433.79 341.21,-386.28 405.11,-360.16"/>
<polygon fill="black" stroke="black" points="406.59,-363.33 414.53,-356.31 403.95,-356.86 406.59,-363.33"/>
<text text-anchor="middle" x="280.59" y="-413.02" font-family="Times,serif" font-size="14.00">a</text>
</g>
<!-- http://w3id.org/oseg/ont/okhmeta#TransportationTag&#45;&gt;http://w3id.org/oseg/ont/okhmeta#MetaTag -->
<g id="edge26" class="edge">
<title>http://w3id.org/oseg/ont/okhmeta#TransportationTag&#45;&gt;http://w3id.org/oseg/ont/okhmeta#MetaTag</title>
<path fill="none" stroke="black" d="M180.64,-459.31C240.64,-443.07 337.74,-416.79 400.92,-399.69"/>
<polygon fill="black" stroke="black" points="402.02,-403.02 410.76,-397.03 400.19,-396.26 402.02,-403.02"/>
<text text-anchor="middle" x="213.78" y="-433.3" font-family="Times,serif" font-size="14.00">okhmeta:hasMetaTag</text>
</g>
<!-- http://w3id.org/oseg/ont/okhmeta#DevelopmentTag -->
<g id="node9" class="node">
<title>http://w3id.org/oseg/ont/okhmeta#DevelopmentTag</title>
<ellipse fill="none" stroke="#e377c2" cx="660.43" cy="-51.19" rx="124.4" ry="16.03"/>
<text text-anchor="middle" x="660.43" y="-47.49" font-family="Times,serif" font-size="14.00">okhmeta:Developme...</text>
</g>
<!-- http://w3id.org/oseg/ont/okhmeta#DevelopmentTag&#45;&gt;http://w3id.org/oseg/ont/okhmeta#Tag -->
<g id="edge6" class="edge">
<title>http://w3id.org/oseg/ont/okhmeta#DevelopmentTag&#45;&gt;http://w3id.org/oseg/ont/okhmeta#Tag</title>
<path fill="none" stroke="black" d="M648.5,-67.65C613.26,-116.31 509.41,-259.69 467.62,-317.39"/>
<polygon fill="black" stroke="black" points="464.72,-315.42 461.69,-325.57 470.39,-319.53 464.72,-315.42"/>
<text text-anchor="middle" x="553.56" y="-196.32" font-family="Times,serif" font-size="14.00">a</text>
</g>
<!-- http://w3id.org/oseg/ont/okhmeta#DevelopmentTag&#45;&gt;http://w3id.org/oseg/ont/okhmeta#MetaTag -->
<g id="edge27" class="edge">
<title>http://w3id.org/oseg/ont/okhmeta#DevelopmentTag&#45;&gt;http://w3id.org/oseg/ont/okhmeta#MetaTag</title>
<path fill="none" stroke="black" d="M650.62,-67.64C618.54,-121.47 516.55,-292.65 477.84,-357.62"/>
<polygon fill="black" stroke="black" points="474.72,-356.02 472.6,-366.4 480.73,-359.61 474.72,-356.02"/>
<text text-anchor="middle" x="487.23" y="-216.43" font-family="Times,serif" font-size="14.00">okhmeta:hasMetaTag</text>
</g>
<!-- http://w3id.org/oseg/ont/okhmeta#MakingTag -->
<g id="node10" class="node">
<title>http://w3id.org/oseg/ont/okhmeta#MakingTag</title>
<ellipse fill="none" stroke="#e377c2" cx="208.78" cy="-155" rx="113.69" ry="16.03"/>
<text text-anchor="middle" x="208.78" y="-151.3" font-family="Times,serif" font-size="14.00">okhmeta:MakingTag</text>
</g>
<!-- http://w3id.org/oseg/ont/okhmeta#MakingTag&#45;&gt;http://w3id.org/oseg/ont/okhmeta#Tag -->
<g id="edge7" class="edge">
<title>http://w3id.org/oseg/ont/okhmeta#MakingTag&#45;&gt;http://w3id.org/oseg/ont/okhmeta#Tag</title>
<path fill="none" stroke="black" d="M229.76,-171.26C273.08,-204.83 372.48,-281.86 421.5,-319.85"/>
<polygon fill="black" stroke="black" points="419.44,-322.67 429.48,-326.03 423.72,-317.14 419.44,-322.67"/>
<text text-anchor="middle" x="321.13" y="-249.35" font-family="Times,serif" font-size="14.00">a</text>
</g>
<!-- http://w3id.org/oseg/ont/okhmeta#MakingTag&#45;&gt;http://w3id.org/oseg/ont/okhmeta#MetaTag -->
<g id="edge16" class="edge">
<title>http://w3id.org/oseg/ont/okhmeta#MakingTag&#45;&gt;http://w3id.org/oseg/ont/okhmeta#MetaTag</title>
<path fill="none" stroke="black" d="M227.05,-171.4C271.52,-211.32 385.57,-313.68 436.95,-359.81"/>
<polygon fill="black" stroke="black" points="434.86,-362.64 444.64,-366.71 439.54,-357.43 434.86,-362.64"/>
<text text-anchor="middle" x="255" y="-269.4" font-family="Times,serif" font-size="14.00">okhmeta:hasMetaTag</text>
</g>
<!-- http://w3id.org/oseg/ont/okhmeta#IdentificationTag -->
<g id="node11" class="node">
<title>http://w3id.org/oseg/ont/okhmeta#IdentificationTag</title>
<ellipse fill="none" stroke="#e377c2" cx="417.23" cy="-88" rx="109.7" ry="16.03"/>
<text text-anchor="middle" x="417.23" y="-84.3" font-family="Times,serif" font-size="14.00">okhmeta:Identific...</text>
</g>
<!-- http://w3id.org/oseg/ont/okhmeta#IdentificationTag&#45;&gt;http://w3id.org/oseg/ont/okhmeta#Tag -->
<g id="edge28" class="edge">
<title>http://w3id.org/oseg/ont/okhmeta#IdentificationTag&#45;&gt;http://w3id.org/oseg/ont/okhmeta#Tag</title>
<path fill="none" stroke="black" d="M419.32,-104.26C424.82,-146.97 439.7,-262.6 446.47,-315.18"/>
<polygon fill="black" stroke="black" points="443.03,-315.92 447.78,-325.39 449.98,-315.03 443.03,-315.92"/>
<text text-anchor="middle" x="428.4" y="-198.52" font-family="Times,serif" font-size="14.00">a</text>
</g>
<!-- http://w3id.org/oseg/ont/okhmeta#IdentificationTag&#45;&gt;http://w3id.org/oseg/ont/okhmeta#MetaTag -->
<g id="edge3" class="edge">
<title>http://w3id.org/oseg/ont/okhmeta#IdentificationTag&#45;&gt;http://w3id.org/oseg/ont/okhmeta#MetaTag</title>
<path fill="none" stroke="black" d="M419.74,-104.27C427.22,-152.71 449.36,-296.25 458.61,-356.19"/>
<polygon fill="black" stroke="black" points="455.2,-357.02 460.18,-366.36 462.12,-355.95 455.2,-357.02"/>
<text text-anchor="middle" x="362.18" y="-234.03" font-family="Times,serif" font-size="14.00">okhmeta:hasMetaTag</text>
</g>
<!-- http://id.loc.gov/vocabulary/iso639&#45;1/en -->
<g id="node12" class="node">
<title>http://id.loc.gov/vocabulary/iso639&#45;1/en</title>
<ellipse fill="none" stroke="#e377c2" cx="1163.76" cy="-1138.57" rx="45.01" ry="16.03"/>
<text text-anchor="middle" x="1163.76" y="-1134.87" font-family="Times,serif" font-size="14.00">ns1:en</text>
</g>
<!-- http://w3id.org/oseg/ont/okhmeta#PartsTag -->
<g id="node13" class="node">
<title>http://w3id.org/oseg/ont/okhmeta#PartsTag</title>
<ellipse fill="none" stroke="#e377c2" cx="420.93" cy="-16.28" rx="103.48" ry="16.03"/>
<text text-anchor="middle" x="420.93" y="-12.58" font-family="Times,serif" font-size="14.00">okhmeta:PartsTag</text>
</g>
<!-- http://w3id.org/oseg/ont/okhmeta#PartsTag&#45;&gt;http://w3id.org/oseg/ont/okhmeta#Tag -->
<g id="edge31" class="edge">
<title>http://w3id.org/oseg/ont/okhmeta#PartsTag&#45;&gt;http://w3id.org/oseg/ont/okhmeta#Tag</title>
<path fill="none" stroke="black" d="M422.41,-32.87C427.1,-85.66 441.73,-250.09 447.51,-315.06"/>
<polygon fill="black" stroke="black" points="444.05,-315.64 448.42,-325.29 451.02,-315.02 444.05,-315.64"/>
<text text-anchor="middle" x="430.46" y="-177.76" font-family="Times,serif" font-size="14.00">a</text>
</g>
<!-- http://w3id.org/oseg/ont/okhmeta#PartsTag&#45;&gt;http://w3id.org/oseg/ont/okhmeta#MetaTag -->
<g id="edge4" class="edge">
<title>http://w3id.org/oseg/ont/okhmeta#PartsTag&#45;&gt;http://w3id.org/oseg/ont/okhmeta#MetaTag</title>
<path fill="none" stroke="black" d="M422.83,-32.98C429.47,-91.22 451.64,-285.56 459.74,-356.63"/>
<polygon fill="black" stroke="black" points="456.26,-357.03 460.87,-366.57 463.22,-356.24 456.26,-357.03"/>
<text text-anchor="middle" x="518.29" y="-183.61" font-family="Times,serif" font-size="14.00">okhmeta:hasMetaTag</text>
</g>
<!-- http://w3id.org/oseg/ont/1.1.0/okh&#45;meta -->
<g id="node14" class="node">
<title>http://w3id.org/oseg/ont/1.1.0/okh&#45;meta</title>
<ellipse fill="none" stroke="#e377c2" cx="946.73" cy="-986.03" rx="79.81" ry="16.03"/>
<text text-anchor="middle" x="946.73" y="-982.33" font-family="Times,serif" font-size="14.00">ns2:okh&#45;meta</text>
</g>
<!-- http://www.w3.org/2004/02/skos/core#member -->
<g id="node15" class="node">
<title>http://www.w3.org/2004/02/skos/core#member</title>
<ellipse fill="none" stroke="#e377c2" cx="515.45" cy="-1211.99" rx="79.39" ry="16.03"/>
<text text-anchor="middle" x="515.45" y="-1208.29" font-family="Times,serif" font-size="14.00">skos:member</text>
</g>
<!-- http://w3id.org/oseg/ont/okhmeta#LegalTag -->
<g id="node16" class="node">
<title>http://w3id.org/oseg/ont/okhmeta#LegalTag</title>
<ellipse fill="none" stroke="#e377c2" cx="757.29" cy="-430.84" rx="103.89" ry="16.03"/>
<text text-anchor="middle" x="757.29" y="-427.14" font-family="Times,serif" font-size="14.00">okhmeta:LegalTag</text>
</g>
<!-- http://w3id.org/oseg/ont/okhmeta#LegalTag&#45;&gt;http://w3id.org/oseg/ont/okhmeta#Tag -->
<g id="edge11" class="edge">
<title>http://w3id.org/oseg/ont/okhmeta#LegalTag&#45;&gt;http://w3id.org/oseg/ont/okhmeta#Tag</title>
<path fill="none" stroke="black" d="M707.56,-416.44C652.14,-400.4 562.78,-374.53 505.2,-357.86"/>
<polygon fill="black" stroke="black" points="506.12,-354.48 495.54,-355.07 504.17,-361.21 506.12,-354.48"/>
<text text-anchor="middle" x="601.88" y="-390.95" font-family="Times,serif" font-size="14.00">a</text>
</g>
<!-- http://w3id.org/oseg/ont/okhmeta#LegalTag&#45;&gt;http://w3id.org/oseg/ont/okhmeta#MetaTag -->
<g id="edge29" class="edge">
<title>http://w3id.org/oseg/ont/okhmeta#LegalTag&#45;&gt;http://w3id.org/oseg/ont/okhmeta#MetaTag</title>
<path fill="none" stroke="black" d="M684.86,-419.06C642.35,-412.15 588.51,-403.4 544.48,-396.24"/>
<polygon fill="black" stroke="black" points="544.82,-392.75 534.38,-394.6 543.69,-399.66 544.82,-392.75"/>
<text text-anchor="middle" x="537.67" y="-411.45" font-family="Times,serif" font-size="14.00">okhmeta:hasMetaTag</text>
</g>
<!-- http://w3id.org/oseg/ont/oseg&#45;profiles#robinVobruba -->
<g id="node17" class="node">
<title>http://w3id.org/oseg/ont/oseg&#45;profiles#robinVobruba</title>
<ellipse fill="none" stroke="#e377c2" cx="999.43" cy="-1068.73" rx="113.69" ry="16.03"/>
<text text-anchor="middle" x="999.43" y="-1065.03" font-family="Times,serif" font-size="14.00">osegprof:robinVob...</text>
</g>
<!-- http://w3id.org/oseg/ont/okhmeta#QualityTag -->
<g id="node18" class="node">
<title>http://w3id.org/oseg/ont/okhmeta#QualityTag</title>
<ellipse fill="none" stroke="#e377c2" cx="728.4" cy="-539.65" rx="113.27" ry="16.03"/>
<text text-anchor="middle" x="728.4" y="-535.95" font-family="Times,serif" font-size="14.00">okhmeta:QualityTag</text>
</g>
<!-- http://w3id.org/oseg/ont/okhmeta#QualityTag&#45;&gt;http://w3id.org/oseg/ont/okhmeta#Tag -->
<g id="edge36" class="edge">
<title>http://w3id.org/oseg/ont/okhmeta#QualityTag&#45;&gt;http://w3id.org/oseg/ont/okhmeta#Tag</title>
<path fill="none" stroke="black" d="M705.61,-523.46C655.66,-487.99 536.56,-403.4 480.31,-363.45"/>
<polygon fill="black" stroke="black" points="482.02,-360.37 471.84,-357.44 477.97,-366.08 482.02,-360.37"/>
<text text-anchor="middle" x="588.46" y="-447.26" font-family="Times,serif" font-size="14.00">a</text>
</g>
<!-- http://w3id.org/oseg/ont/okhmeta#QualityTag&#45;&gt;http://w3id.org/oseg/ont/okhmeta#MetaTag -->
<g id="edge10" class="edge">
<title>http://w3id.org/oseg/ont/okhmeta#QualityTag&#45;&gt;http://w3id.org/oseg/ont/okhmeta#MetaTag</title>
<path fill="none" stroke="black" d="M701.46,-523.76C653.33,-495.37 552.56,-435.93 498.62,-404.12"/>
<polygon fill="black" stroke="black" points="500.14,-400.95 489.75,-398.89 496.58,-406.98 500.14,-400.95"/>
<text text-anchor="middle" x="523.04" y="-467.74" font-family="Times,serif" font-size="14.00">okhmeta:hasMetaTag</text>
</g>
<!-- http://w3id.org/oseg/ont/oseg&#45;profiles#Iopa -->
<g id="node19" class="node">
<title>http://w3id.org/oseg/ont/oseg&#45;profiles#Iopa</title>
<ellipse fill="none" stroke="#e377c2" cx="1188.09" cy="-894.45" rx="80.72" ry="16.03"/>
<text text-anchor="middle" x="1188.09" y="-890.75" font-family="Times,serif" font-size="14.00">osegprof:Iopa</text>
</g>
<!-- http://w3id.org/oseg/ont/okhmeta#PhysicalTag -->
<g id="node20" class="node">
<title>http://w3id.org/oseg/ont/okhmeta#PhysicalTag</title>
<ellipse fill="none" stroke="#e377c2" cx="188.09" cy="-579.24" rx="118.17" ry="16.03"/>
<text text-anchor="middle" x="188.09" y="-575.54" font-family="Times,serif" font-size="14.00">okhmeta:PhysicalTag</text>
</g>
<!-- http://w3id.org/oseg/ont/okhmeta#PhysicalTag&#45;&gt;http://w3id.org/oseg/ont/okhmeta#Tag -->
<g id="edge15" class="edge">
<title>http://w3id.org/oseg/ont/okhmeta#PhysicalTag&#45;&gt;http://w3id.org/oseg/ont/okhmeta#Tag</title>
<path fill="none" stroke="black" d="M206.08,-562.92C251.69,-521.57 371.89,-412.58 424.56,-364.82"/>
<polygon fill="black" stroke="black" points="427.07,-367.28 432.12,-357.97 422.36,-362.09 427.07,-367.28"/>
<text text-anchor="middle" x="310.82" y="-467.67" font-family="Times,serif" font-size="14.00">a</text>
</g>
<!-- http://w3id.org/oseg/ont/okhmeta#PhysicalTag&#45;&gt;http://w3id.org/oseg/ont/okhmeta#MetaTag -->
<g id="edge35" class="edge">
<title>http://w3id.org/oseg/ont/okhmeta#PhysicalTag&#45;&gt;http://w3id.org/oseg/ont/okhmeta#MetaTag</title>
<path fill="none" stroke="black" d="M210.56,-563.17C259.57,-528.15 376.12,-444.86 431.93,-404.98"/>
<polygon fill="black" stroke="black" points="434.24,-407.63 440.34,-398.97 430.17,-401.93 434.24,-407.63"/>
<text text-anchor="middle" x="359.75" y="-472.88" font-family="Times,serif" font-size="14.00">okhmeta:hasMetaTag</text>
</g>
<!-- http://w3id.org/oseg/ont/okhmeta -->
<g id="node21" class="node">
<title>http://w3id.org/oseg/ont/okhmeta</title>
<ellipse fill="none" stroke="#e377c2" cx="1007.04" cy="-1026.67" rx="76.24" ry="16.03"/>
<text text-anchor="middle" x="1007.04" y="-1022.97" font-family="Times,serif" font-size="14.00">ns3:okhmeta</text>
</g>
<!-- http://w3id.org/oseg/ont/okhmeta&#45;&gt;http://spdx.org/rdf/terms#SpdxItem -->
<g id="edge39" class="edge">
<title>http://w3id.org/oseg/ont/okhmeta&#45;&gt;http://spdx.org/rdf/terms#SpdxItem</title>
<path fill="none" stroke="black" d="M993.39,-1042.84C966.24,-1074.98 905.37,-1147.05 873.5,-1184.79"/>
<polygon fill="black" stroke="black" points="870.57,-1182.83 866.79,-1192.73 875.92,-1187.34 870.57,-1182.83"/>
<text text-anchor="middle" x="928.94" y="-1117.61" font-family="Times,serif" font-size="14.00">a</text>
</g>
<!-- http://w3id.org/oseg/ont/okhmeta&#45;&gt;http://id.loc.gov/vocabulary/iso639&#45;1/en -->
<g id="edge30" class="edge">
<title>http://w3id.org/oseg/ont/okhmeta&#45;&gt;http://id.loc.gov/vocabulary/iso639&#45;1/en</title>
<path fill="none" stroke="black" d="M1029.16,-1042.46C1056.81,-1062.2 1104.19,-1096.04 1134.73,-1117.84"/>
<polygon fill="black" stroke="black" points="1133.08,-1120.96 1143.25,-1123.92 1137.14,-1115.26 1133.08,-1120.96"/>
<text text-anchor="middle" x="1146.45" y="-1083.95" font-family="Times,serif" font-size="14.00">dcterms:language</text>
</g>
<!-- http://w3id.org/oseg/ont/okhmeta&#45;&gt;http://w3id.org/oseg/ont/1.1.0/okh&#45;meta -->
<g id="edge32" class="edge">
<title>http://w3id.org/oseg/ont/okhmeta&#45;&gt;http://w3id.org/oseg/ont/1.1.0/okh&#45;meta</title>
<path fill="none" stroke="black" d="M983.89,-1011.07C982.2,-1009.93 980.48,-1008.77 978.74,-1007.6"/>
<polygon fill="black" stroke="black" points="980.36,-1004.47 970.11,-1001.78 976.45,-1010.27 980.36,-1004.47"/>
<text text-anchor="middle" x="1032.82" y="-998.14" font-family="Times,serif" font-size="14.00">owl:versionIRI</text>
</g>
<!-- http://w3id.org/oseg/ont/okhmeta&#45;&gt;http://w3id.org/oseg/ont/oseg&#45;profiles#robinVobruba -->
<g id="edge12" class="edge">
<title>http://w3id.org/oseg/ont/okhmeta&#45;&gt;http://w3id.org/oseg/ont/oseg&#45;profiles#robinVobruba</title>
<path fill="none" stroke="black" d="M997.29,-1043.08C997.27,-1043.17 997.25,-1043.27 997.23,-1043.36"/>
<polygon fill="black" stroke="black" points="993.92,-1041.89 995.78,-1052.32 1000.83,-1043.01 993.92,-1041.89"/>
<text text-anchor="middle" x="941.76" y="-1047.02" font-family="Times,serif" font-size="14.00">schema:creator</text>
</g>
<!-- http://w3id.org/oseg/ont/okhmeta&#45;&gt;http://w3id.org/oseg/ont/oseg&#45;profiles#robinVobruba -->
<g id="edge24" class="edge">
<title>http://w3id.org/oseg/ont/okhmeta&#45;&gt;http://w3id.org/oseg/ont/oseg&#45;profiles#robinVobruba</title>
<path fill="none" stroke="black" d="M1010.7,-1043.02C1010.69,-1043.11 1010.68,-1043.21 1010.67,-1043.3"/>
<polygon fill="black" stroke="black" points="1007.36,-1041.89 1009.18,-1052.33 1014.27,-1043.03 1007.36,-1041.89"/>
<text text-anchor="middle" x="1068.19" y="-1046.96" font-family="Times,serif" font-size="14.00">dcterms:creator</text>
</g>
<!-- http://w3id.org/oseg/ont/okhmeta&#45;&gt;http://w3id.org/oseg/ont/oseg&#45;profiles#Iopa -->
<g id="edge37" class="edge">
<title>http://w3id.org/oseg/ont/okhmeta&#45;&gt;http://w3id.org/oseg/ont/oseg&#45;profiles#Iopa</title>
<path fill="none" stroke="black" d="M1028.52,-1010.98C1060.69,-987.49 1121.51,-943.07 1158.06,-916.38"/>
<polygon fill="black" stroke="black" points="1160.34,-919.05 1166.35,-910.32 1156.21,-913.39 1160.34,-919.05"/>
<text text-anchor="middle" x="1027.79" y="-952.48" font-family="Times,serif" font-size="14.00">dcterms:publisher</text>
</g>
<!-- http://spdx.org/licenses/GPL&#45;3.0&#45;or&#45;later -->
<g id="node22" class="node">
<title>http://spdx.org/licenses/GPL&#45;3.0&#45;or&#45;later</title>
<ellipse fill="none" stroke="#e377c2" cx="837.24" cy="-834.89" rx="108.79" ry="16.03"/>
<text text-anchor="middle" x="837.24" y="-831.19" font-family="Times,serif" font-size="14.00">spdxl:GPL&#45;3.0&#45;or&#45;...</text>
</g>
<!-- http://w3id.org/oseg/ont/okhmeta&#45;&gt;http://spdx.org/licenses/GPL&#45;3.0&#45;or&#45;later -->
<g id="edge18" class="edge">
<title>http://w3id.org/oseg/ont/okhmeta&#45;&gt;http://spdx.org/licenses/GPL&#45;3.0&#45;or&#45;later</title>
<path fill="none" stroke="black" d="M992.86,-1010.65C963.03,-976.96 893.67,-898.62 858.5,-858.9"/>
<polygon fill="black" stroke="black" points="860.99,-856.44 851.75,-851.27 855.75,-861.08 860.99,-856.44"/>
<text text-anchor="middle" x="849.68" y="-938.57" font-family="Times,serif" font-size="14.00">spdx:licenseDeclared</text>
</g>
<!-- http://w3id.org/oseg/ont/okhmeta#AcademicTag -->
<g id="node23" class="node">
<title>http://w3id.org/oseg/ont/okhmeta#AcademicTag</title>
<ellipse fill="none" stroke="#e377c2" cx="680.28" cy="-635.33" rx="124.4" ry="16.03"/>
<text text-anchor="middle" x="680.28" y="-631.63" font-family="Times,serif" font-size="14.00">okhmeta:AcademicTag</text>
</g>
<!-- http://w3id.org/oseg/ont/okhmeta#AcademicTag&#45;&gt;http://w3id.org/oseg/ont/okhmeta#Tag -->
<g id="edge19" class="edge">
<title>http://w3id.org/oseg/ont/okhmeta#AcademicTag&#45;&gt;http://w3id.org/oseg/ont/okhmeta#Tag</title>
<path fill="none" stroke="black" d="M667.57,-619.13C629.18,-570.23 514.28,-423.87 468.77,-365.89"/>
<polygon fill="black" stroke="black" points="471.5,-363.7 462.57,-358 466,-368.03 471.5,-363.7"/>
<text text-anchor="middle" x="563.67" y="-496.31" font-family="Times,serif" font-size="14.00">a</text>
</g>
<!-- http://w3id.org/oseg/ont/okhmeta#AcademicTag&#45;&gt;http://w3id.org/oseg/ont/okhmeta#MetaTag -->
<g id="edge40" class="edge">
<title>http://w3id.org/oseg/ont/okhmeta#AcademicTag&#45;&gt;http://w3id.org/oseg/ont/okhmeta#MetaTag</title>
<path fill="none" stroke="black" d="M666.35,-619.16C629.14,-575.99 527.33,-457.88 483.38,-406.9"/>
<polygon fill="black" stroke="black" points="486.03,-404.61 476.85,-399.32 480.72,-409.18 486.03,-404.61"/>
<text text-anchor="middle" x="497.86" y="-516.83" font-family="Times,serif" font-size="14.00">okhmeta:hasMetaTag</text>
</g>
<!-- http://w3id.org/oseg/ont/okhmeta#DocumentationTag -->
<g id="node24" class="node">
<title>http://w3id.org/oseg/ont/okhmeta#DocumentationTag</title>
<ellipse fill="none" stroke="#e377c2" cx="710.93" cy="-125.64" rx="125.32" ry="16.03"/>
<text text-anchor="middle" x="710.93" y="-121.94" font-family="Times,serif" font-size="14.00">okhmeta:Documenta...</text>
</g>
<!-- http://w3id.org/oseg/ont/okhmeta#DocumentationTag&#45;&gt;http://w3id.org/oseg/ont/okhmeta#Tag -->
<g id="edge20" class="edge">
<title>http://w3id.org/oseg/ont/okhmeta#DocumentationTag&#45;&gt;http://w3id.org/oseg/ont/okhmeta#Tag</title>
<path fill="none" stroke="black" d="M691.31,-141.9C645.17,-180.12 529.69,-275.76 476.94,-319.45"/>
<polygon fill="black" stroke="black" points="474.51,-316.93 469.04,-326 478.97,-322.32 474.51,-316.93"/>
<text text-anchor="middle" x="579.63" y="-234.47" font-family="Times,serif" font-size="14.00">a</text>
</g>
<!-- http://w3id.org/oseg/ont/okhmeta#DocumentationTag&#45;&gt;http://w3id.org/oseg/ont/okhmeta#MetaTag -->
<g id="edge41" class="edge">
<title>http://w3id.org/oseg/ont/okhmeta#DocumentationTag&#45;&gt;http://w3id.org/oseg/ont/okhmeta#MetaTag</title>
<path fill="none" stroke="black" d="M695.03,-142.13C652.39,-186.34 535.39,-307.64 485.63,-359.23"/>
<polygon fill="black" stroke="black" points="482.94,-356.98 478.51,-366.61 487.97,-361.84 482.94,-356.98"/>
<text text-anchor="middle" x="513.33" y="-254.48" font-family="Times,serif" font-size="14.00">okhmeta:hasMetaTag</text>
</g>
<!-- http://w3id.org/oseg/ont/okhmeta#hasMetaTag -->
<g id="node25" class="node">
<title>http://w3id.org/oseg/ont/okhmeta#hasMetaTag</title>
<ellipse fill="none" stroke="#e377c2" cx="491.55" cy="-852.47" rx="120.42" ry="16.03"/>
<text text-anchor="middle" x="491.55" y="-848.77" font-family="Times,serif" font-size="14.00">okhmeta:hasMetaTag</text>
</g>
<!-- http://w3id.org/oseg/ont/okhmeta#hasMetaTag&#45;&gt;http://www.w3.org/2004/02/skos/core#Concept -->
<g id="edge25" class="edge">
<title>http://w3id.org/oseg/ont/okhmeta#hasMetaTag&#45;&gt;http://www.w3.org/2004/02/skos/core#Concept</title>
<path fill="none" stroke="black" d="M489.74,-836.09C485.89,-801.47 476.91,-720.63 472.25,-678.65"/>
<polygon fill="black" stroke="black" points="475.72,-678.18 471.14,-668.63 468.77,-678.96 475.72,-678.18"/>
<text text-anchor="middle" x="476.49" y="-761.17" font-family="Times,serif" font-size="14.00">a</text>
</g>
<!-- http://w3id.org/oseg/ont/okhmeta#hasMetaTag&#45;&gt;http://w3id.org/oseg/ont/okhmeta#MetaTag -->
<g id="edge33" class="edge">
<title>http://w3id.org/oseg/ont/okhmeta#hasMetaTag&#45;&gt;http://w3id.org/oseg/ont/okhmeta#MetaTag</title>
<path fill="none" stroke="black" d="M493.23,-836.14C494.18,-766.7 477.77,-495.53 467.71,-409.38"/>
<polygon fill="black" stroke="black" points="471.17,-408.86 466.46,-399.37 464.23,-409.73 471.17,-408.86"/>
<text text-anchor="middle" x="480.47" y="-611.56" font-family="Times,serif" font-size="14.00">okhmeta:hasMetaTag</text>
</g>
<!-- http://w3id.org/oseg/ont/okhmeta#hasMetaTag&#45;&gt;http://w3id.org/oseg/ont/okhmeta#MetaTag -->
<g id="edge38" class="edge">
<title>http://w3id.org/oseg/ont/okhmeta#hasMetaTag&#45;&gt;http://w3id.org/oseg/ont/okhmeta#MetaTag</title>
<path fill="none" stroke="black" d="M487.86,-836.2C478.41,-766.94 461.59,-496.29 461.04,-409.73"/>
<polygon fill="black" stroke="black" points="464.54,-409.67 461.06,-399.67 457.54,-409.66 464.54,-409.67"/>
<text text-anchor="middle" x="401.95" y="-626.77" font-family="Times,serif" font-size="14.00">dcam:rangeIncludes</text>
</g>
<!-- http://w3id.org/oseg/ont/okhmeta#hasMetaTag&#45;&gt;http://www.w3.org/2004/02/skos/core#member -->
<g id="edge34" class="edge">
<title>http://w3id.org/oseg/ont/okhmeta#hasMetaTag&#45;&gt;http://www.w3.org/2004/02/skos/core#member</title>
<path fill="none" stroke="black" d="M492.64,-868.85C496.42,-925.7 508.99,-1114.85 513.67,-1185.27"/>
<polygon fill="black" stroke="black" points="510.2,-1185.77 514.36,-1195.51 517.18,-1185.3 510.2,-1185.77"/>
<text text-anchor="middle" x="450.16" y="-1030.86" font-family="Times,serif" font-size="14.00">subPropertyOf</text>
</g>
<!-- http://w3id.org/oseg/ont/okhmeta#ExtendedInfoTag -->
<g id="node26" class="node">
<title>http://w3id.org/oseg/ont/okhmeta#ExtendedInfoTag</title>
<ellipse fill="none" stroke="#e377c2" cx="120.14" cy="-245.7" rx="120.42" ry="16.03"/>
<text text-anchor="middle" x="120.14" y="-242" font-family="Times,serif" font-size="14.00">okhmeta:ExtendedI...</text>
</g>
<!-- http://w3id.org/oseg/ont/okhmeta#ExtendedInfoTag&#45;&gt;http://w3id.org/oseg/ont/okhmeta#Tag -->
<g id="edge45" class="edge">
<title>http://w3id.org/oseg/ont/okhmeta#ExtendedInfoTag&#45;&gt;http://w3id.org/oseg/ont/okhmeta#Tag</title>
<path fill="none" stroke="black" d="M170.94,-260.52C231.56,-278.19 332.54,-307.63 394.94,-325.83"/>
<polygon fill="black" stroke="black" points="394.03,-329.21 404.61,-328.65 395.99,-322.49 394.03,-329.21"/>
<text text-anchor="middle" x="278.44" y="-296.97" font-family="Times,serif" font-size="14.00">a</text>
</g>
<!-- http://w3id.org/oseg/ont/okhmeta#ExtendedInfoTag&#45;&gt;http://w3id.org/oseg/ont/okhmeta#MetaTag -->
<g id="edge9" class="edge">
<title>http://w3id.org/oseg/ont/okhmeta#ExtendedInfoTag&#45;&gt;http://w3id.org/oseg/ont/okhmeta#MetaTag</title>
<path fill="none" stroke="black" d="M158.77,-261.18C221.82,-286.44 346.65,-336.45 415.1,-363.87"/>
<polygon fill="black" stroke="black" points="414.19,-367.28 424.77,-367.74 416.79,-360.78 414.19,-367.28"/>
<text text-anchor="middle" x="209.93" y="-316.33" font-family="Times,serif" font-size="14.00">okhmeta:hasMetaTag</text>
</g>
<!-- http://w3id.org/oseg/ont/okhmeta#DataGatheringTag -->
<g id="node27" class="node">
<title>http://w3id.org/oseg/ont/okhmeta#DataGatheringTag</title>
<ellipse fill="none" stroke="#e377c2" cx="808.03" cy="-328.48" rx="122.16" ry="16.03"/>
<text text-anchor="middle" x="808.03" y="-324.78" font-family="Times,serif" font-size="14.00">okhmeta:DataGathe...</text>
</g>
<!-- http://w3id.org/oseg/ont/okhmeta#DataGatheringTag&#45;&gt;http://w3id.org/oseg/ont/okhmeta#Tag -->
<g id="edge21" class="edge">
<title>http://w3id.org/oseg/ont/okhmeta#DataGatheringTag&#45;&gt;http://w3id.org/oseg/ont/okhmeta#Tag</title>
<path fill="none" stroke="black" d="M689.77,-332.9C639.38,-334.78 581.71,-336.93 535.55,-338.65"/>
<polygon fill="black" stroke="black" points="535.14,-335.17 525.28,-339.04 535.4,-342.16 535.14,-335.17"/>
<text text-anchor="middle" x="608.16" y="-339.58" font-family="Times,serif" font-size="14.00">a</text>
</g>
<!-- http://w3id.org/oseg/ont/okhmeta#DataGatheringTag&#45;&gt;http://w3id.org/oseg/ont/okhmeta#MetaTag -->
<g id="edge43" class="edge">
<title>http://w3id.org/oseg/ont/okhmeta#DataGatheringTag&#45;&gt;http://w3id.org/oseg/ont/okhmeta#MetaTag</title>
<path fill="none" stroke="black" d="M728.81,-340.98C674.08,-349.61 601.42,-361.08 545.86,-369.84"/>
<polygon fill="black" stroke="black" points="545.03,-366.43 535.7,-371.45 546.12,-373.35 545.03,-366.43"/>
<text text-anchor="middle" x="714.34" y="-359.21" font-family="Times,serif" font-size="14.00">okhmeta:hasMetaTag</text>
</g>
<!-- http://w3id.org/oseg/ont/okhmeta#BasicTag -->
<g id="node28" class="node">
<title>http://w3id.org/oseg/ont/okhmeta#BasicTag</title>
<ellipse fill="none" stroke="#e377c2" cx="142.12" cy="-360.01" rx="103.48" ry="16.03"/>
<text text-anchor="middle" x="142.12" y="-356.31" font-family="Times,serif" font-size="14.00">okhmeta:BasicTag</text>
</g>
<!-- http://w3id.org/oseg/ont/okhmeta#BasicTag&#45;&gt;http://w3id.org/oseg/ont/okhmeta#Tag -->
<g id="edge23" class="edge">
<title>http://w3id.org/oseg/ont/okhmeta#BasicTag&#45;&gt;http://w3id.org/oseg/ont/okhmeta#Tag</title>
<path fill="none" stroke="black" d="M239.08,-354.29C279.77,-351.89 326.63,-349.13 365.83,-346.81"/>
<polygon fill="black" stroke="black" points="366.1,-350.3 375.88,-346.22 365.69,-343.32 366.1,-350.3"/>
<text text-anchor="middle" x="297.96" y="-339.35" font-family="Times,serif" font-size="14.00">a</text>
</g>
<!-- http://w3id.org/oseg/ont/okhmeta#BasicTag&#45;&gt;http://w3id.org/oseg/ont/okhmeta#MetaTag -->
<g id="edge44" class="edge">
<title>http://w3id.org/oseg/ont/okhmeta#BasicTag&#45;&gt;http://w3id.org/oseg/ont/okhmeta#MetaTag</title>
<path fill="none" stroke="black" d="M236.15,-366.74C274.74,-369.5 319.54,-372.71 359.07,-375.54"/>
<polygon fill="black" stroke="black" points="359.04,-379.05 369.27,-376.27 359.54,-372.06 359.04,-379.05"/>
<text text-anchor="middle" x="220.61" y="-374.94" font-family="Times,serif" font-size="14.00">okhmeta:hasMetaTag</text>
</g>
</g>
</svg>
