<?xml version="1.0" encoding="UTF-8" standalone="no"?>
<!DOCTYPE svg PUBLIC "-//W3C//DTD SVG 1.1//EN"
 "http://www.w3.org/Graphics/SVG/1.1/DTD/svg11.dtd">
<!-- Generated by graphviz version 2.43.0 (0)
 -->
<!-- Title: G Pages: 1 -->
<svg width="1459pt" height="1064pt"
 viewBox="0.00 0.00 1459.00 1064.00" xmlns="http://www.w3.org/2000/svg" xmlns:xlink="http://www.w3.org/1999/xlink">
<g id="graph0" class="graph" transform="scale(1 1) rotate(0) translate(4 1060)">
<title>G</title>
<polygon fill="white" stroke="transparent" points="-4,4 -4,-1060 1455,-1060 1455,4 -4,4"/>
<!-- http://spdx.org/rdf/terms#SpdxItem -->
<g id="node1" class="node">
<title>http://spdx.org/rdf/terms#SpdxItem</title>
<ellipse fill="none" stroke="#1f77b4" cx="1312.76" cy="-147.6" rx="87.86" ry="16.03"/>
<text text-anchor="middle" x="1312.76" y="-143.9" font-family="Times,serif" font-size="14.00">spdx:SpdxItem</text>
</g>
<!-- http://w3id.org/oseg/ont/ods#Dataset -->
<g id="node2" class="node">
<title>http://w3id.org/oseg/ont/ods#Dataset</title>
<ellipse fill="none" stroke="#1f77b4" cx="1286.29" cy="-257.76" rx="71.34" ry="16.03"/>
<text text-anchor="middle" x="1286.29" y="-254.06" font-family="Times,serif" font-size="14.00">ods:Dataset</text>
</g>
<!-- http://schema.org/DefinedTerm -->
<g id="node3" class="node">
<title>http://schema.org/DefinedTerm</title>
<ellipse fill="none" stroke="#1f77b4" cx="619.17" cy="-787.27" rx="118.17" ry="16.03"/>
<text text-anchor="middle" x="619.17" y="-783.57" font-family="Times,serif" font-size="14.00">schema:DefinedTerm</text>
</g>
<!-- http://schema.org/DefinedTermSet -->
<g id="node4" class="node">
<title>http://schema.org/DefinedTermSet</title>
<ellipse fill="none" stroke="#1f77b4" cx="1218.92" cy="-385.83" rx="116.85" ry="16.03"/>
<text text-anchor="middle" x="1218.92" y="-382.13" font-family="Times,serif" font-size="14.00">schema:DefinedTer...</text>
</g>
<!-- http://w3id.org/oseg/ont/okhimg#slotOrganizationLogoBw -->
<g id="node5" class="node">
<title>http://w3id.org/oseg/ont/okhimg#slotOrganizationLogoBw</title>
<ellipse fill="none" stroke="#e377c2" cx="846.79" cy="-703.57" rx="114.6" ry="16.03"/>
<text text-anchor="middle" x="846.79" y="-699.87" font-family="Times,serif" font-size="14.00">okhimg:slotOrgani...</text>
</g>
<!-- http://w3id.org/oseg/ont/okhimg#slotOrganizationLogoBw&#45;&gt;http://schema.org/DefinedTerm -->
<g id="edge1" class="edge">
<title>http://w3id.org/oseg/ont/okhimg#slotOrganizationLogoBw&#45;&gt;http://schema.org/DefinedTerm</title>
<path fill="none" stroke="black" d="M805.3,-718.82C767.32,-732.79 710.97,-753.51 670.23,-768.49"/>
<polygon fill="black" stroke="black" points="668.93,-765.24 660.75,-771.98 671.35,-771.81 668.93,-765.24"/>
<text text-anchor="middle" x="733.27" y="-732.46" font-family="Times,serif" font-size="14.00">a</text>
</g>
<!-- http://w3id.org/oseg/ont/okhimg#slotOrganizationLogo -->
<g id="node18" class="node">
<title>http://w3id.org/oseg/ont/okhimg#slotOrganizationLogo</title>
<ellipse fill="none" stroke="#e377c2" cx="832.98" cy="-745.68" rx="114.6" ry="16.03"/>
<text text-anchor="middle" x="832.98" y="-741.98" font-family="Times,serif" font-size="14.00">okhimg:slotOrgani...</text>
</g>
<!-- http://w3id.org/oseg/ont/okhimg#slotOrganizationLogoBw&#45;&gt;http://w3id.org/oseg/ont/okhimg#slotOrganizationLogo -->
<g id="edge16" class="edge">
<title>http://w3id.org/oseg/ont/okhimg#slotOrganizationLogoBw&#45;&gt;http://w3id.org/oseg/ont/okhimg#slotOrganizationLogo</title>
<path fill="none" stroke="black" d="M834.32,-720.07C834.28,-720.17 834.25,-720.26 834.21,-720.36"/>
<polygon fill="black" stroke="black" points="831.03,-718.78 831.56,-729.36 837.74,-720.75 831.03,-718.78"/>
<text text-anchor="middle" x="806.76" y="-724.02" font-family="Times,serif" font-size="14.00">seeAlso</text>
</g>
<!-- http://w3id.org/oseg/ont/okhimg#slotIconMain -->
<g id="node6" class="node">
<title>http://w3id.org/oseg/ont/okhimg#slotIconMain</title>
<ellipse fill="none" stroke="#e377c2" cx="932.42" cy="-578.53" rx="117.26" ry="16.03"/>
<text text-anchor="middle" x="932.42" y="-574.83" font-family="Times,serif" font-size="14.00">okhimg:slotIconMain</text>
</g>
<!-- http://w3id.org/oseg/ont/okhimg#slotIconMain&#45;&gt;http://schema.org/DefinedTerm -->
<g id="edge2" class="edge">
<title>http://w3id.org/oseg/ont/okhimg#slotIconMain&#45;&gt;http://schema.org/DefinedTerm</title>
<path fill="none" stroke="black" d="M908.36,-594.56C852.67,-631.67 714.85,-723.51 651.71,-765.58"/>
<polygon fill="black" stroke="black" points="649.69,-762.72 643.31,-771.18 653.58,-768.55 649.69,-762.72"/>
<text text-anchor="middle" x="775.54" y="-668.87" font-family="Times,serif" font-size="14.00">a</text>
</g>
<!-- http://w3id.org/oseg/ont/okhimg#slotIconMainBw -->
<g id="node36" class="node">
<title>http://w3id.org/oseg/ont/okhimg#slotIconMainBw</title>
<ellipse fill="none" stroke="#e377c2" cx="743.08" cy="-619.1" rx="117.26" ry="16.03"/>
<text text-anchor="middle" x="743.08" y="-615.4" font-family="Times,serif" font-size="14.00">okhimg:slotIconMa...</text>
</g>
<!-- http://w3id.org/oseg/ont/okhimg#slotIconMain&#45;&gt;http://w3id.org/oseg/ont/okhimg#slotIconMainBw -->
<g id="edge40" class="edge">
<title>http://w3id.org/oseg/ont/okhimg#slotIconMain&#45;&gt;http://w3id.org/oseg/ont/okhimg#slotIconMainBw</title>
<path fill="none" stroke="black" d="M847.69,-589.82C830.08,-593.46 812.01,-597.52 795.94,-601.46"/>
<polygon fill="black" stroke="black" points="795.07,-598.07 786.22,-603.9 796.77,-604.86 795.07,-598.07"/>
<text text-anchor="middle" x="794.32" y="-584.44" font-family="Times,serif" font-size="14.00">seeAlso</text>
</g>
<!-- http://w3id.org/oseg/ont/okhimg#slotLogo -->
<g id="node7" class="node">
<title>http://w3id.org/oseg/ont/okhimg#slotLogo</title>
<ellipse fill="none" stroke="#e377c2" cx="718.15" cy="-854.27" rx="94.51" ry="16.03"/>
<text text-anchor="middle" x="718.15" y="-850.57" font-family="Times,serif" font-size="14.00">okhimg:slotLogo</text>
</g>
<!-- http://w3id.org/oseg/ont/okhimg#slotLogo&#45;&gt;http://schema.org/DefinedTerm -->
<g id="edge28" class="edge">
<title>http://w3id.org/oseg/ont/okhimg#slotLogo&#45;&gt;http://schema.org/DefinedTerm</title>
<path fill="none" stroke="black" d="M694.69,-838.39C681.72,-829.61 665.41,-818.57 651.27,-809"/>
<polygon fill="black" stroke="black" points="653.04,-805.97 642.8,-803.27 649.12,-811.77 653.04,-805.97"/>
<text text-anchor="middle" x="668.48" y="-827.5" font-family="Times,serif" font-size="14.00">a</text>
</g>
<!-- http://w3id.org/oseg/ont/okhimg#slotLogoBw -->
<g id="node9" class="node">
<title>http://w3id.org/oseg/ont/okhimg#slotLogoBw</title>
<ellipse fill="none" stroke="#e377c2" cx="611.11" cy="-704.63" rx="111.03" ry="16.03"/>
<text text-anchor="middle" x="611.11" y="-700.93" font-family="Times,serif" font-size="14.00">okhimg:slotLogoBw</text>
</g>
<!-- http://w3id.org/oseg/ont/okhimg#slotLogo&#45;&gt;http://w3id.org/oseg/ont/okhimg#slotLogoBw -->
<g id="edge5" class="edge">
<title>http://w3id.org/oseg/ont/okhimg#slotLogo&#45;&gt;http://w3id.org/oseg/ont/okhimg#slotLogoBw</title>
<path fill="none" stroke="black" d="M711.45,-837.78C696.2,-811.29 659.57,-759.39 634.94,-728.75"/>
<polygon fill="black" stroke="black" points="637.39,-726.22 628.34,-720.71 631.98,-730.66 637.39,-726.22"/>
<text text-anchor="middle" x="645.69" y="-772.07" font-family="Times,serif" font-size="14.00">seeAlso</text>
</g>
<!-- http://w3id.org/oseg/ont/okhimg#slotPhotoPackaging -->
<g id="node8" class="node">
<title>http://w3id.org/oseg/ont/okhimg#slotPhotoPackaging</title>
<ellipse fill="none" stroke="#e377c2" cx="532.13" cy="-1039.31" rx="113.69" ry="16.03"/>
<text text-anchor="middle" x="532.13" y="-1035.61" font-family="Times,serif" font-size="14.00">okhimg:slotPhotoP...</text>
</g>
<!-- http://w3id.org/oseg/ont/okhimg#slotPhotoPackaging&#45;&gt;http://schema.org/DefinedTerm -->
<g id="edge4" class="edge">
<title>http://w3id.org/oseg/ont/okhimg#slotPhotoPackaging&#45;&gt;http://schema.org/DefinedTerm</title>
<path fill="none" stroke="black" d="M537.84,-1022.78C552.63,-979.95 592.27,-865.15 610.18,-813.31"/>
<polygon fill="black" stroke="black" points="613.6,-814.13 613.55,-803.54 606.98,-811.85 613.6,-814.13"/>
<text text-anchor="middle" x="569.51" y="-921.85" font-family="Times,serif" font-size="14.00">a</text>
</g>
<!-- http://w3id.org/oseg/ont/okhimg#slotLogoBw&#45;&gt;http://schema.org/DefinedTerm -->
<g id="edge34" class="edge">
<title>http://w3id.org/oseg/ont/okhimg#slotLogoBw&#45;&gt;http://schema.org/DefinedTerm</title>
<path fill="none" stroke="black" d="M612.7,-720.95C613.8,-732.27 615.3,-747.6 616.58,-760.67"/>
<polygon fill="black" stroke="black" points="613.13,-761.36 617.58,-770.97 620.09,-760.68 613.13,-761.36"/>
<text text-anchor="middle" x="610.14" y="-744.61" font-family="Times,serif" font-size="14.00">a</text>
</g>
<!-- http://w3id.org/oseg/ont/okhimg#slotLogoBw&#45;&gt;http://w3id.org/oseg/ont/okhimg#slotLogo -->
<g id="edge3" class="edge">
<title>http://w3id.org/oseg/ont/okhimg#slotLogoBw&#45;&gt;http://w3id.org/oseg/ont/okhimg#slotLogo</title>
<path fill="none" stroke="black" d="M617.8,-721.12C633.05,-747.61 669.69,-799.51 694.31,-830.15"/>
<polygon fill="black" stroke="black" points="691.86,-832.68 700.91,-838.19 697.27,-828.24 691.86,-832.68"/>
<text text-anchor="middle" x="683.56" y="-764.43" font-family="Times,serif" font-size="14.00">seeAlso</text>
</g>
<!-- http://w3id.org/oseg/ont/okhimg#slotPhotoThingMain -->
<g id="node10" class="node">
<title>http://w3id.org/oseg/ont/okhimg#slotPhotoThingMain</title>
<ellipse fill="none" stroke="#e377c2" cx="377.33" cy="-737.1" rx="114.6" ry="16.03"/>
<text text-anchor="middle" x="377.33" y="-733.4" font-family="Times,serif" font-size="14.00">okhimg:slotPhotoT...</text>
</g>
<!-- http://w3id.org/oseg/ont/okhimg#slotPhotoThingMain&#45;&gt;http://schema.org/DefinedTerm -->
<g id="edge6" class="edge">
<title>http://w3id.org/oseg/ont/okhimg#slotPhotoThingMain&#45;&gt;http://schema.org/DefinedTerm</title>
<path fill="none" stroke="black" d="M442.14,-750.54C473.46,-757.04 511.23,-764.88 543.83,-771.64"/>
<polygon fill="black" stroke="black" points="543.26,-775.1 553.76,-773.7 544.68,-768.24 543.26,-775.1"/>
<text text-anchor="middle" x="488.48" y="-764.89" font-family="Times,serif" font-size="14.00">a</text>
</g>
<!-- http://w3id.org/oseg/ont/0.1.0/okhimg -->
<g id="node11" class="node">
<title>http://w3id.org/oseg/ont/0.1.0/okhimg</title>
<ellipse fill="none" stroke="#e377c2" cx="1245.29" cy="-107.05" rx="70.01" ry="16.03"/>
<text text-anchor="middle" x="1245.29" y="-103.35" font-family="Times,serif" font-size="14.00">ns1:okhimg</text>
</g>
<!-- http://w3id.org/oseg/ont/okhimg#tagDrawing -->
<g id="node12" class="node">
<title>http://w3id.org/oseg/ont/okhimg#tagDrawing</title>
<ellipse fill="none" stroke="#e377c2" cx="272.27" cy="-849.54" rx="111.95" ry="16.03"/>
<text text-anchor="middle" x="272.27" y="-845.84" font-family="Times,serif" font-size="14.00">okhimg:tagDrawing</text>
</g>
<!-- http://w3id.org/oseg/ont/okhimg#tagDrawing&#45;&gt;http://schema.org/DefinedTerm -->
<g id="edge7" class="edge">
<title>http://w3id.org/oseg/ont/okhimg#tagDrawing&#45;&gt;http://schema.org/DefinedTerm</title>
<path fill="none" stroke="black" d="M342.89,-836.86C399.16,-826.76 478.04,-812.6 537.12,-802"/>
<polygon fill="black" stroke="black" points="537.94,-805.41 547.16,-800.19 536.7,-798.52 537.94,-805.41"/>
<text text-anchor="middle" x="435.5" y="-823.23" font-family="Times,serif" font-size="14.00">a</text>
</g>
<!-- http://w3id.org/oseg/ont/okhimg#tagArt -->
<g id="node13" class="node">
<title>http://w3id.org/oseg/ont/okhimg#tagArt</title>
<ellipse fill="none" stroke="#e377c2" cx="869.26" cy="-537.97" rx="84.29" ry="16.03"/>
<text text-anchor="middle" x="869.26" y="-534.27" font-family="Times,serif" font-size="14.00">okhimg:tagArt</text>
</g>
<!-- http://w3id.org/oseg/ont/okhimg#tagArt&#45;&gt;http://schema.org/DefinedTerm -->
<g id="edge10" class="edge">
<title>http://w3id.org/oseg/ont/okhimg#tagArt&#45;&gt;http://schema.org/DefinedTerm</title>
<path fill="none" stroke="black" d="M853.23,-553.94C810.37,-596.67 692.93,-713.74 642.59,-763.92"/>
<polygon fill="black" stroke="black" points="640,-761.57 635.39,-771.1 644.94,-766.52 640,-761.57"/>
<text text-anchor="middle" x="743.41" y="-662.73" font-family="Times,serif" font-size="14.00">a</text>
</g>
<!-- http://w3id.org/oseg/ont/okhimg#slotModelMain -->
<g id="node14" class="node">
<title>http://w3id.org/oseg/ont/okhimg#slotModelMain</title>
<ellipse fill="none" stroke="#e377c2" cx="126.88" cy="-768.44" rx="127.06" ry="16.03"/>
<text text-anchor="middle" x="126.88" y="-764.74" font-family="Times,serif" font-size="14.00">okhimg:slotModelMain</text>
</g>
<!-- http://w3id.org/oseg/ont/okhimg#slotModelMain&#45;&gt;http://schema.org/DefinedTerm -->
<g id="edge11" class="edge">
<title>http://w3id.org/oseg/ont/okhimg#slotModelMain&#45;&gt;http://schema.org/DefinedTerm</title>
<path fill="none" stroke="black" d="M248.88,-773.11C323.96,-775.98 419.91,-779.65 495.33,-782.53"/>
<polygon fill="black" stroke="black" points="495.23,-786.03 505.36,-782.92 495.5,-779.04 495.23,-786.03"/>
<text text-anchor="middle" x="367.6" y="-781.62" font-family="Times,serif" font-size="14.00">a</text>
</g>
<!-- http://w3id.org/oseg/ont/okhimg#slotModelFromBelow -->
<g id="node15" class="node">
<title>http://w3id.org/oseg/ont/okhimg#slotModelFromBelow</title>
<ellipse fill="none" stroke="#e377c2" cx="910.68" cy="-813.72" rx="116.85" ry="16.03"/>
<text text-anchor="middle" x="910.68" y="-810.02" font-family="Times,serif" font-size="14.00">okhimg:slotModelF...</text>
</g>
<!-- http://w3id.org/oseg/ont/okhimg#slotModelFromBelow&#45;&gt;http://schema.org/DefinedTerm -->
<g id="edge13" class="edge">
<title>http://w3id.org/oseg/ont/okhimg#slotModelFromBelow&#45;&gt;http://schema.org/DefinedTerm</title>
<path fill="none" stroke="black" d="M812.8,-804.84C785.55,-802.37 755.79,-799.67 727.95,-797.14"/>
<polygon fill="black" stroke="black" points="728.06,-793.64 717.79,-796.22 727.43,-800.61 728.06,-793.64"/>
<text text-anchor="middle" x="765.88" y="-804.79" font-family="Times,serif" font-size="14.00">a</text>
</g>
<!-- http://w3id.org/oseg/ont/okhimg#slots -->
<g id="node16" class="node">
<title>http://w3id.org/oseg/ont/okhimg#slots</title>
<ellipse fill="none" stroke="#e377c2" cx="1018.43" cy="-404.02" rx="75.82" ry="16.03"/>
<text text-anchor="middle" x="1018.43" y="-400.32" font-family="Times,serif" font-size="14.00">okhimg:slots</text>
</g>
<!-- http://w3id.org/oseg/ont/okhimg#slots&#45;&gt;http://schema.org/DefinedTermSet -->
<g id="edge14" class="edge">
<title>http://w3id.org/oseg/ont/okhimg#slots&#45;&gt;http://schema.org/DefinedTermSet</title>
<path fill="none" stroke="black" d="M1088.27,-397.68C1095.66,-397.01 1103.29,-396.32 1110.98,-395.62"/>
<polygon fill="black" stroke="black" points="1111.47,-399.09 1121.11,-394.7 1110.83,-392.12 1111.47,-399.09"/>
<text text-anchor="middle" x="1097.38" y="-385.45" font-family="Times,serif" font-size="14.00">a</text>
</g>
<!-- http://w3id.org/oseg/ont/okhimg#slots&#45;&gt;http://w3id.org/oseg/ont/okhimg#slotIconMain -->
<g id="edge17" class="edge">
<title>http://w3id.org/oseg/ont/okhimg#slots&#45;&gt;http://w3id.org/oseg/ont/okhimg#slotIconMain</title>
<path fill="none" stroke="black" d="M1010.34,-420.44C995.25,-451.05 962.74,-517.01 944.85,-553.31"/>
<polygon fill="black" stroke="black" points="941.71,-551.77 940.43,-562.28 947.99,-554.86 941.71,-551.77"/>
<text text-anchor="middle" x="890.1" y="-490.67" font-family="Times,serif" font-size="14.00">schema:hasDefinedTerm</text>
</g>
<!-- http://w3id.org/oseg/ont/okhimg#tags -->
<g id="node17" class="node">
<title>http://w3id.org/oseg/ont/okhimg#tags</title>
<ellipse fill="none" stroke="#e377c2" cx="941.28" cy="-363.04" rx="73.58" ry="16.03"/>
<text text-anchor="middle" x="941.28" y="-359.34" font-family="Times,serif" font-size="14.00">okhimg:tags</text>
</g>
<!-- http://w3id.org/oseg/ont/okhimg#tags&#45;&gt;http://schema.org/DefinedTermSet -->
<g id="edge15" class="edge">
<title>http://w3id.org/oseg/ont/okhimg#tags&#45;&gt;http://schema.org/DefinedTermSet</title>
<path fill="none" stroke="black" d="M1010.26,-368.7C1039.81,-371.13 1075.06,-374.02 1108.11,-376.73"/>
<polygon fill="black" stroke="black" points="1108.03,-380.24 1118.28,-377.57 1108.6,-373.26 1108.03,-380.24"/>
<text text-anchor="middle" x="1054.69" y="-376.52" font-family="Times,serif" font-size="14.00">a</text>
</g>
<!-- http://w3id.org/oseg/ont/okhimg#tags&#45;&gt;http://w3id.org/oseg/ont/okhimg#tagArt -->
<g id="edge9" class="edge">
<title>http://w3id.org/oseg/ont/okhimg#tags&#45;&gt;http://w3id.org/oseg/ont/okhimg#tagArt</title>
<path fill="none" stroke="black" d="M934.5,-379.5C921.92,-410.05 894.88,-475.74 879.86,-512.22"/>
<polygon fill="black" stroke="black" points="876.53,-511.1 875.96,-521.68 883.01,-513.77 876.53,-511.1"/>
<text text-anchor="middle" x="819.68" y="-449.66" font-family="Times,serif" font-size="14.00">schema:hasDefinedTerm</text>
</g>
<!-- http://w3id.org/oseg/ont/okhimg#slotOrganizationLogo&#45;&gt;http://schema.org/DefinedTerm -->
<g id="edge42" class="edge">
<title>http://w3id.org/oseg/ont/okhimg#slotOrganizationLogo&#45;&gt;http://schema.org/DefinedTerm</title>
<path fill="none" stroke="black" d="M765.33,-758.84C743.79,-763.03 719.79,-767.7 697.56,-772.02"/>
<polygon fill="black" stroke="black" points="696.63,-768.64 687.48,-773.98 697.97,-775.51 696.63,-768.64"/>
<text text-anchor="middle" x="735.94" y="-769.23" font-family="Times,serif" font-size="14.00">a</text>
</g>
<!-- http://w3id.org/oseg/ont/okhimg#slotOrganizationLogo&#45;&gt;http://w3id.org/oseg/ont/okhimg#slotOrganizationLogoBw -->
<g id="edge26" class="edge">
<title>http://w3id.org/oseg/ont/okhimg#slotOrganizationLogo&#45;&gt;http://w3id.org/oseg/ont/okhimg#slotOrganizationLogoBw</title>
<path fill="none" stroke="black" d="M845.45,-729.18C845.49,-729.08 845.52,-728.99 845.55,-728.89"/>
<polygon fill="black" stroke="black" points="848.74,-730.47 848.21,-719.89 842.02,-728.5 848.74,-730.47"/>
<text text-anchor="middle" x="873" y="-717.83" font-family="Times,serif" font-size="14.00">seeAlso</text>
</g>
<!-- http://w3id.org/oseg/ont/okhimg#tagScreenshot -->
<g id="node19" class="node">
<title>http://w3id.org/oseg/ont/okhimg#tagScreenshot</title>
<ellipse fill="none" stroke="#e377c2" cx="366.65" cy="-994.54" rx="125.32" ry="16.03"/>
<text text-anchor="middle" x="366.65" y="-990.84" font-family="Times,serif" font-size="14.00">okhimg:tagScreenshot</text>
</g>
<!-- http://w3id.org/oseg/ont/okhimg#tagScreenshot&#45;&gt;http://schema.org/DefinedTerm -->
<g id="edge18" class="edge">
<title>http://w3id.org/oseg/ont/okhimg#tagScreenshot&#45;&gt;http://schema.org/DefinedTerm</title>
<path fill="none" stroke="black" d="M386.46,-978.28C431.18,-941.58 540.02,-852.24 591.42,-810.05"/>
<polygon fill="black" stroke="black" points="593.94,-812.51 599.45,-803.46 589.5,-807.1 593.94,-812.51"/>
<text text-anchor="middle" x="484.44" y="-897.96" font-family="Times,serif" font-size="14.00">a</text>
</g>
<!-- http://w3id.org/oseg/ont/oseg&#45;profiles#Iopa -->
<g id="node20" class="node">
<title>http://w3id.org/oseg/ont/oseg&#45;profiles#Iopa</title>
<ellipse fill="none" stroke="#e377c2" cx="1022.28" cy="-56.4" rx="80.72" ry="16.03"/>
<text text-anchor="middle" x="1022.28" y="-52.7" font-family="Times,serif" font-size="14.00">osegprof:Iopa</text>
</g>
<!-- http://id.loc.gov/vocabulary/iso639&#45;1/en -->
<g id="node21" class="node">
<title>http://id.loc.gov/vocabulary/iso639&#45;1/en</title>
<ellipse fill="none" stroke="#e377c2" cx="1118.43" cy="-96.94" rx="45.01" ry="16.03"/>
<text text-anchor="middle" x="1118.43" y="-93.24" font-family="Times,serif" font-size="14.00">ns2:en</text>
</g>
<!-- http://w3id.org/oseg/ont/okhimg#tagAssembly -->
<g id="node22" class="node">
<title>http://w3id.org/oseg/ont/okhimg#tagAssembly</title>
<ellipse fill="none" stroke="#e377c2" cx="525.23" cy="-534.36" rx="116.85" ry="16.03"/>
<text text-anchor="middle" x="525.23" y="-530.66" font-family="Times,serif" font-size="14.00">okhimg:tagAssembly</text>
</g>
<!-- http://w3id.org/oseg/ont/okhimg#tagAssembly&#45;&gt;http://schema.org/DefinedTerm -->
<g id="edge22" class="edge">
<title>http://w3id.org/oseg/ont/okhimg#tagAssembly&#45;&gt;http://schema.org/DefinedTerm</title>
<path fill="none" stroke="black" d="M531.4,-550.96C547.39,-594.02 590.32,-709.6 609.58,-761.46"/>
<polygon fill="black" stroke="black" points="606.34,-762.79 613.11,-770.94 612.91,-760.35 606.34,-762.79"/>
<text text-anchor="middle" x="565.99" y="-660.01" font-family="Times,serif" font-size="14.00">a</text>
</g>
<!-- http://w3id.org/oseg/ont/okhimg -->
<g id="node23" class="node">
<title>http://w3id.org/oseg/ont/okhimg</title>
<ellipse fill="none" stroke="#e377c2" cx="1136.18" cy="-223.46" rx="70.01" ry="16.03"/>
<text text-anchor="middle" x="1136.18" y="-219.76" font-family="Times,serif" font-size="14.00">ns3:okhimg</text>
</g>
<!-- http://w3id.org/oseg/ont/okhimg&#45;&gt;http://spdx.org/rdf/terms#SpdxItem -->
<g id="edge24" class="edge">
<title>http://w3id.org/oseg/ont/okhimg&#45;&gt;http://spdx.org/rdf/terms#SpdxItem</title>
<path fill="none" stroke="black" d="M1169.81,-209.02C1197.71,-197.03 1237.62,-179.88 1268.18,-166.75"/>
<polygon fill="black" stroke="black" points="1269.94,-169.8 1277.75,-162.64 1267.18,-163.37 1269.94,-169.8"/>
<text text-anchor="middle" x="1214.49" y="-191.68" font-family="Times,serif" font-size="14.00">a</text>
</g>
<!-- http://w3id.org/oseg/ont/okhimg&#45;&gt;http://w3id.org/oseg/ont/ods#Dataset -->
<g id="edge47" class="edge">
<title>http://w3id.org/oseg/ont/okhimg&#45;&gt;http://w3id.org/oseg/ont/ods#Dataset</title>
<path fill="none" stroke="black" d="M1186.16,-234.88C1198.87,-237.79 1212.67,-240.94 1225.84,-243.95"/>
<polygon fill="black" stroke="black" points="1225.23,-247.4 1235.76,-246.22 1226.79,-240.58 1225.23,-247.4"/>
<text text-anchor="middle" x="1201.5" y="-243.22" font-family="Times,serif" font-size="14.00">a</text>
</g>
<!-- http://w3id.org/oseg/ont/okhimg&#45;&gt;http://w3id.org/oseg/ont/0.1.0/okhimg -->
<g id="edge8" class="edge">
<title>http://w3id.org/oseg/ont/okhimg&#45;&gt;http://w3id.org/oseg/ont/0.1.0/okhimg</title>
<path fill="none" stroke="black" d="M1151.35,-207.28C1170,-187.38 1201.79,-153.46 1223.16,-130.66"/>
<polygon fill="black" stroke="black" points="1225.97,-132.79 1230.25,-123.1 1220.86,-128 1225.97,-132.79"/>
<text text-anchor="middle" x="1135.76" y="-172.77" font-family="Times,serif" font-size="14.00">owl:versionIRI</text>
</g>
<!-- http://w3id.org/oseg/ont/okhimg&#45;&gt;http://w3id.org/oseg/ont/okhimg#slots -->
<g id="edge46" class="edge">
<title>http://w3id.org/oseg/ont/okhimg&#45;&gt;http://w3id.org/oseg/ont/okhimg#slots</title>
<path fill="none" stroke="black" d="M1125.52,-239.81C1104.86,-271.5 1059.22,-341.48 1034.72,-379.04"/>
<polygon fill="black" stroke="black" points="1031.51,-377.56 1028.98,-387.84 1037.38,-381.38 1031.51,-377.56"/>
<text text-anchor="middle" x="1015.12" y="-313.22" font-family="Times,serif" font-size="14.00">void:rootResource</text>
</g>
<!-- http://w3id.org/oseg/ont/okhimg&#45;&gt;http://w3id.org/oseg/ont/okhimg#tags -->
<g id="edge23" class="edge">
<title>http://w3id.org/oseg/ont/okhimg&#45;&gt;http://w3id.org/oseg/ont/okhimg#tags</title>
<path fill="none" stroke="black" d="M1114.58,-238.93C1079.75,-263.88 1011.09,-313.05 971.44,-341.44"/>
<polygon fill="black" stroke="black" points="969.07,-338.83 962.97,-347.5 973.14,-344.53 969.07,-338.83"/>
<text text-anchor="middle" x="978.01" y="-293.99" font-family="Times,serif" font-size="14.00">void:rootResource</text>
</g>
<!-- http://w3id.org/oseg/ont/okhimg&#45;&gt;http://w3id.org/oseg/ont/oseg&#45;profiles#Iopa -->
<g id="edge20" class="edge">
<title>http://w3id.org/oseg/ont/okhimg&#45;&gt;http://w3id.org/oseg/ont/oseg&#45;profiles#Iopa</title>
<path fill="none" stroke="black" d="M1125.05,-207.14C1105.01,-177.75 1062.75,-115.76 1039.14,-81.12"/>
<polygon fill="black" stroke="black" points="1041.81,-78.83 1033.29,-72.54 1036.03,-82.77 1041.81,-78.83"/>
<text text-anchor="middle" x="1016.59" y="-147.93" font-family="Times,serif" font-size="14.00">dcterms:publisher</text>
</g>
<!-- http://w3id.org/oseg/ont/okhimg&#45;&gt;http://id.loc.gov/vocabulary/iso639&#45;1/en -->
<g id="edge21" class="edge">
<title>http://w3id.org/oseg/ont/okhimg&#45;&gt;http://id.loc.gov/vocabulary/iso639&#45;1/en</title>
<path fill="none" stroke="black" d="M1133.89,-207.18C1130.93,-186.04 1125.71,-148.87 1122.16,-123.59"/>
<polygon fill="black" stroke="black" points="1125.61,-122.98 1120.76,-113.56 1118.68,-123.95 1125.61,-122.98"/>
<text text-anchor="middle" x="1160.28" y="-154.18" font-family="Times,serif" font-size="14.00">dcterms:language</text>
</g>
<!-- http://spdx.org/licenses/AGPL&#45;3.0&#45;or&#45;later -->
<g id="node27" class="node">
<title>http://spdx.org/licenses/AGPL&#45;3.0&#45;or&#45;later</title>
<ellipse fill="none" stroke="#e377c2" cx="1339.2" cy="-200.48" rx="111.95" ry="16.03"/>
<text text-anchor="middle" x="1339.2" y="-196.78" font-family="Times,serif" font-size="14.00">spdxl:AGPL&#45;3.0&#45;or...</text>
</g>
<!-- http://w3id.org/oseg/ont/okhimg&#45;&gt;http://spdx.org/licenses/AGPL&#45;3.0&#45;or&#45;later -->
<g id="edge30" class="edge">
<title>http://w3id.org/oseg/ont/okhimg&#45;&gt;http://spdx.org/licenses/AGPL&#45;3.0&#45;or&#45;later</title>
<path fill="none" stroke="black" d="M1199.3,-216.32C1212.42,-214.83 1226.53,-213.23 1240.58,-211.64"/>
<polygon fill="black" stroke="black" points="1241.23,-215.09 1250.77,-210.49 1240.44,-208.14 1241.23,-215.09"/>
<text text-anchor="middle" x="1295.94" y="-217.78" font-family="Times,serif" font-size="14.00">spdx:licenseDeclared</text>
</g>
<!-- http://w3id.org/oseg/ont/oseg&#45;profiles#robinVobruba -->
<g id="node33" class="node">
<title>http://w3id.org/oseg/ont/oseg&#45;profiles#robinVobruba</title>
<ellipse fill="none" stroke="#e377c2" cx="1178.73" cy="-15.83" rx="113.69" ry="16.03"/>
<text text-anchor="middle" x="1178.73" y="-12.13" font-family="Times,serif" font-size="14.00">osegprof:robinVob...</text>
</g>
<!-- http://w3id.org/oseg/ont/okhimg&#45;&gt;http://w3id.org/oseg/ont/oseg&#45;profiles#robinVobruba -->
<g id="edge37" class="edge">
<title>http://w3id.org/oseg/ont/okhimg&#45;&gt;http://w3id.org/oseg/ont/oseg&#45;profiles#robinVobruba</title>
<path fill="none" stroke="black" d="M1143.49,-207.26C1154.42,-171.54 1172.23,-85.8 1178.03,-42.21"/>
<polygon fill="black" stroke="black" points="1181.53,-42.44 1179.24,-32.1 1174.58,-41.61 1181.53,-42.44"/>
<text text-anchor="middle" x="1103.26" y="-128.53" font-family="Times,serif" font-size="14.00">dcterms:creator</text>
</g>
<!-- http://w3id.org/oseg/ont/okhimg&#45;&gt;http://w3id.org/oseg/ont/oseg&#45;profiles#robinVobruba -->
<g id="edge45" class="edge">
<title>http://w3id.org/oseg/ont/okhimg&#45;&gt;http://w3id.org/oseg/ont/oseg&#45;profiles#robinVobruba</title>
<path fill="none" stroke="black" d="M1135.68,-207.1C1139.33,-171.26 1156.56,-85.61 1168.5,-42.12"/>
<polygon fill="black" stroke="black" points="1171.93,-42.85 1171.34,-32.28 1165.21,-40.92 1171.93,-42.85"/>
<text text-anchor="middle" x="1096.59" y="-113.41" font-family="Times,serif" font-size="14.00">schema:creator</text>
</g>
<!-- http://w3id.org/oseg/ont/okhimg#slotModelFromRight -->
<g id="node24" class="node">
<title>http://w3id.org/oseg/ont/okhimg#slotModelFromRight</title>
<ellipse fill="none" stroke="#e377c2" cx="220.14" cy="-696.56" rx="116.85" ry="16.03"/>
<text text-anchor="middle" x="220.14" y="-692.86" font-family="Times,serif" font-size="14.00">okhimg:slotModelF...</text>
</g>
<!-- http://w3id.org/oseg/ont/okhimg#slotModelFromRight&#45;&gt;http://schema.org/DefinedTerm -->
<g id="edge25" class="edge">
<title>http://w3id.org/oseg/ont/okhimg#slotModelFromRight&#45;&gt;http://schema.org/DefinedTerm</title>
<path fill="none" stroke="black" d="M281.18,-710.44C352.95,-726.75 471.89,-753.79 547.85,-771.06"/>
<polygon fill="black" stroke="black" points="547.28,-774.52 557.81,-773.32 548.84,-767.69 547.28,-774.52"/>
<text text-anchor="middle" x="410.01" y="-744.55" font-family="Times,serif" font-size="14.00">a</text>
</g>
<!-- http://w3id.org/oseg/ont/okhimg#slotSocial -->
<g id="node25" class="node">
<title>http://w3id.org/oseg/ont/okhimg#slotSocial</title>
<ellipse fill="none" stroke="#e377c2" cx="374.96" cy="-656.01" rx="101.23" ry="16.03"/>
<text text-anchor="middle" x="374.96" y="-652.31" font-family="Times,serif" font-size="14.00">okhimg:slotSocial</text>
</g>
<!-- http://w3id.org/oseg/ont/okhimg#slotSocial&#45;&gt;http://schema.org/DefinedTerm -->
<g id="edge27" class="edge">
<title>http://w3id.org/oseg/ont/okhimg#slotSocial&#45;&gt;http://schema.org/DefinedTerm</title>
<path fill="none" stroke="black" d="M404.41,-671.84C448.51,-695.54 531.72,-740.26 580.6,-766.54"/>
<polygon fill="black" stroke="black" points="579.14,-769.73 589.61,-771.38 582.46,-763.56 579.14,-769.73"/>
<text text-anchor="middle" x="488.01" y="-707.99" font-family="Times,serif" font-size="14.00">a</text>
</g>
<!-- http://w3id.org/oseg/ont/okhimg#tagIcon -->
<g id="node26" class="node">
<title>http://w3id.org/oseg/ont/okhimg#tagIcon</title>
<ellipse fill="none" stroke="#e377c2" cx="595.48" cy="-994.29" rx="89.61" ry="16.03"/>
<text text-anchor="middle" x="595.48" y="-990.59" font-family="Times,serif" font-size="14.00">okhimg:tagIcon</text>
</g>
<!-- http://w3id.org/oseg/ont/okhimg#tagIcon&#45;&gt;http://schema.org/DefinedTerm -->
<g id="edge29" class="edge">
<title>http://w3id.org/oseg/ont/okhimg#tagIcon&#45;&gt;http://schema.org/DefinedTerm</title>
<path fill="none" stroke="black" d="M597.38,-977.7C601.48,-941.88 611.19,-857.04 616.14,-813.72"/>
<polygon fill="black" stroke="black" points="619.64,-813.98 617.3,-803.65 612.68,-813.19 619.64,-813.98"/>
<text text-anchor="middle" x="602.26" y="-884.51" font-family="Times,serif" font-size="14.00">a</text>
</g>
<!-- http://w3id.org/oseg/ont/okhimg#slotModelFromLeft -->
<g id="node28" class="node">
<title>http://w3id.org/oseg/ont/okhimg#slotModelFromLeft</title>
<ellipse fill="none" stroke="#e377c2" cx="358.25" cy="-890.07" rx="116.85" ry="16.03"/>
<text text-anchor="middle" x="358.25" y="-886.37" font-family="Times,serif" font-size="14.00">okhimg:slotModelF...</text>
</g>
<!-- http://w3id.org/oseg/ont/okhimg#slotModelFromLeft&#45;&gt;http://schema.org/DefinedTerm -->
<g id="edge31" class="edge">
<title>http://w3id.org/oseg/ont/okhimg#slotModelFromLeft&#45;&gt;http://schema.org/DefinedTerm</title>
<path fill="none" stroke="black" d="M397.31,-874.68C443.52,-856.47 520.48,-826.15 570.52,-806.44"/>
<polygon fill="black" stroke="black" points="571.82,-809.69 579.84,-802.76 569.25,-803.17 571.82,-809.69"/>
<text text-anchor="middle" x="479.41" y="-844.36" font-family="Times,serif" font-size="14.00">a</text>
</g>
<!-- http://w3id.org/oseg/ont/okhimg#tagColor -->
<g id="node29" class="node">
<title>http://w3id.org/oseg/ont/okhimg#tagColor</title>
<ellipse fill="none" stroke="#e377c2" cx="451.34" cy="-953.73" rx="95.42" ry="16.03"/>
<text text-anchor="middle" x="451.34" y="-950.03" font-family="Times,serif" font-size="14.00">okhimg:tagColor</text>
</g>
<!-- http://w3id.org/oseg/ont/okhimg#tagColor&#45;&gt;http://schema.org/DefinedTerm -->
<g id="edge32" class="edge">
<title>http://w3id.org/oseg/ont/okhimg#tagColor&#45;&gt;http://schema.org/DefinedTerm</title>
<path fill="none" stroke="black" d="M467.74,-937.47C497.49,-907.96 560.49,-845.48 595.11,-811.13"/>
<polygon fill="black" stroke="black" points="597.82,-813.37 602.46,-803.84 592.89,-808.4 597.82,-813.37"/>
<text text-anchor="middle" x="526.93" y="-878.1" font-family="Times,serif" font-size="14.00">a</text>
</g>
<!-- http://w3id.org/oseg/ont/okhimg#tagBw -->
<g id="node30" class="node">
<title>http://w3id.org/oseg/ont/okhimg#tagBw</title>
<ellipse fill="none" stroke="#e377c2" cx="639.1" cy="-913.39" rx="84.29" ry="16.03"/>
<text text-anchor="middle" x="639.1" y="-909.69" font-family="Times,serif" font-size="14.00">okhimg:tagBw</text>
</g>
<!-- http://w3id.org/oseg/ont/okhimg#tagBw&#45;&gt;http://schema.org/DefinedTerm -->
<g id="edge33" class="edge">
<title>http://w3id.org/oseg/ont/okhimg#tagBw&#45;&gt;http://schema.org/DefinedTerm</title>
<path fill="none" stroke="black" d="M636.49,-896.9C633.15,-875.75 627.32,-838.81 623.35,-813.71"/>
<polygon fill="black" stroke="black" points="626.8,-813.09 621.78,-803.76 619.88,-814.18 626.8,-813.09"/>
<text text-anchor="middle" x="625.42" y="-859.1" font-family="Times,serif" font-size="14.00">a</text>
</g>
<!-- http://w3id.org/oseg/ont/okhimg#slotModelFromBack -->
<g id="node31" class="node">
<title>http://w3id.org/oseg/ont/okhimg#slotModelFromBack</title>
<ellipse fill="none" stroke="#e377c2" cx="920.1" cy="-935.84" rx="116.85" ry="16.03"/>
<text text-anchor="middle" x="920.1" y="-932.14" font-family="Times,serif" font-size="14.00">okhimg:slotModelF...</text>
</g>
<!-- http://w3id.org/oseg/ont/okhimg#slotModelFromBack&#45;&gt;http://schema.org/DefinedTerm -->
<g id="edge35" class="edge">
<title>http://w3id.org/oseg/ont/okhimg#slotModelFromBack&#45;&gt;http://schema.org/DefinedTerm</title>
<path fill="none" stroke="black" d="M888.18,-920.08C833.33,-893 721.25,-837.66 660.51,-807.68"/>
<polygon fill="black" stroke="black" points="661.73,-804.38 651.22,-803.09 658.63,-810.65 661.73,-804.38"/>
<text text-anchor="middle" x="769.84" y="-867.68" font-family="Times,serif" font-size="14.00">a</text>
</g>
<!-- http://w3id.org/oseg/ont/okhimg#tagLogo -->
<g id="node32" class="node">
<title>http://w3id.org/oseg/ont/okhimg#tagLogo</title>
<ellipse fill="none" stroke="#e377c2" cx="524.97" cy="-615.47" rx="92.76" ry="16.03"/>
<text text-anchor="middle" x="524.97" y="-611.77" font-family="Times,serif" font-size="14.00">okhimg:tagLogo</text>
</g>
<!-- http://w3id.org/oseg/ont/okhimg#tagLogo&#45;&gt;http://schema.org/DefinedTerm -->
<g id="edge36" class="edge">
<title>http://w3id.org/oseg/ont/okhimg#tagLogo&#45;&gt;http://schema.org/DefinedTerm</title>
<path fill="none" stroke="black" d="M534,-631.95C550.53,-662.09 585.74,-726.3 605.32,-762"/>
<polygon fill="black" stroke="black" points="602.29,-763.76 610.17,-770.85 608.43,-760.39 602.29,-763.76"/>
<text text-anchor="middle" x="565.16" y="-685.77" font-family="Times,serif" font-size="14.00">a</text>
</g>
<!-- http://w3id.org/oseg/ont/okhimg#slotModelFromFront -->
<g id="node34" class="node">
<title>http://w3id.org/oseg/ont/okhimg#slotModelFromFront</title>
<ellipse fill="none" stroke="#e377c2" cx="230.97" cy="-930.63" rx="116.85" ry="16.03"/>
<text text-anchor="middle" x="230.97" y="-926.93" font-family="Times,serif" font-size="14.00">okhimg:slotModelF...</text>
</g>
<!-- http://w3id.org/oseg/ont/okhimg#slotModelFromFront&#45;&gt;http://schema.org/DefinedTerm -->
<g id="edge38" class="edge">
<title>http://w3id.org/oseg/ont/okhimg#slotModelFromFront&#45;&gt;http://schema.org/DefinedTerm</title>
<path fill="none" stroke="black" d="M272.51,-915.28C344.07,-888.86 490.36,-834.83 568.05,-806.15"/>
<polygon fill="black" stroke="black" points="569.46,-809.35 577.63,-802.61 567.04,-802.79 569.46,-809.35"/>
<text text-anchor="middle" x="415.78" y="-849.51" font-family="Times,serif" font-size="14.00">a</text>
</g>
<!-- http://w3id.org/oseg/ont/okhimg#tagPhoto -->
<g id="node35" class="node">
<title>http://w3id.org/oseg/ont/okhimg#tagPhoto</title>
<ellipse fill="none" stroke="#e377c2" cx="791.04" cy="-987.12" rx="97.66" ry="16.03"/>
<text text-anchor="middle" x="791.04" y="-983.42" font-family="Times,serif" font-size="14.00">okhimg:tagPhoto</text>
</g>
<!-- http://w3id.org/oseg/ont/okhimg#tagPhoto&#45;&gt;http://schema.org/DefinedTerm -->
<g id="edge39" class="edge">
<title>http://w3id.org/oseg/ont/okhimg#tagPhoto&#45;&gt;http://schema.org/DefinedTerm</title>
<path fill="none" stroke="black" d="M776.97,-970.76C746.68,-935.54 675.17,-852.38 639.77,-811.22"/>
<polygon fill="black" stroke="black" points="642.36,-808.87 633.19,-803.57 637.06,-813.43 642.36,-808.87"/>
<text text-anchor="middle" x="703.87" y="-879.79" font-family="Times,serif" font-size="14.00">a</text>
</g>
<!-- http://w3id.org/oseg/ont/okhimg#slotIconMainBw&#45;&gt;http://schema.org/DefinedTerm -->
<g id="edge41" class="edge">
<title>http://w3id.org/oseg/ont/okhimg#slotIconMainBw&#45;&gt;http://schema.org/DefinedTerm</title>
<path fill="none" stroke="black" d="M730.98,-635.53C709.08,-665.24 662.8,-728.05 637.19,-762.82"/>
<polygon fill="black" stroke="black" points="634.26,-760.89 631.14,-771.02 639.89,-765.04 634.26,-760.89"/>
<text text-anchor="middle" x="679.58" y="-687.97" font-family="Times,serif" font-size="14.00">a</text>
</g>
<!-- http://w3id.org/oseg/ont/okhimg#slotIconMainBw&#45;&gt;http://w3id.org/oseg/ont/okhimg#slotIconMain -->
<g id="edge12" class="edge">
<title>http://w3id.org/oseg/ont/okhimg#slotIconMainBw&#45;&gt;http://w3id.org/oseg/ont/okhimg#slotIconMain</title>
<path fill="none" stroke="black" d="M827.81,-607.8C845.42,-604.17 863.49,-600.11 879.56,-596.16"/>
<polygon fill="black" stroke="black" points="880.43,-599.55 889.28,-593.72 878.73,-592.76 880.43,-599.55"/>
<text text-anchor="middle" x="881.18" y="-605.78" font-family="Times,serif" font-size="14.00">seeAlso</text>
</g>
<!-- http://w3id.org/oseg/ont/okhimg#tagDiagram -->
<g id="node37" class="node">
<title>http://w3id.org/oseg/ont/okhimg#tagDiagram</title>
<ellipse fill="none" stroke="#e377c2" cx="843.48" cy="-894.82" rx="111.95" ry="16.03"/>
<text text-anchor="middle" x="843.48" y="-891.12" font-family="Times,serif" font-size="14.00">okhimg:tagDiagram</text>
</g>
<!-- http://w3id.org/oseg/ont/okhimg#tagDiagram&#45;&gt;http://schema.org/DefinedTerm -->
<g id="edge44" class="edge">
<title>http://w3id.org/oseg/ont/okhimg#tagDiagram&#45;&gt;http://schema.org/DefinedTerm</title>
<path fill="none" stroke="black" d="M810.86,-879.18C771.24,-860.18 704.34,-828.1 660.97,-807.31"/>
<polygon fill="black" stroke="black" points="662.36,-804.09 651.83,-802.93 659.33,-810.4 662.36,-804.09"/>
<text text-anchor="middle" x="731.42" y="-832.04" font-family="Times,serif" font-size="14.00">a</text>
</g>
<!-- http://w3id.org/oseg/ont/okhimg#tagGray -->
<g id="node38" class="node">
<title>http://w3id.org/oseg/ont/okhimg#tagGray</title>
<ellipse fill="none" stroke="#e377c2" cx="621.11" cy="-574.93" rx="92.76" ry="16.03"/>
<text text-anchor="middle" x="621.11" y="-571.23" font-family="Times,serif" font-size="14.00">okhimg:tagGray</text>
</g>
<!-- http://w3id.org/oseg/ont/okhimg#tagGray&#45;&gt;http://schema.org/DefinedTerm -->
<g id="edge43" class="edge">
<title>http://w3id.org/oseg/ont/okhimg#tagGray&#45;&gt;http://schema.org/DefinedTerm</title>
<path fill="none" stroke="black" d="M620.96,-591.24C620.63,-627.75 619.82,-716.36 619.41,-760.85"/>
<polygon fill="black" stroke="black" points="615.91,-760.87 619.32,-770.9 622.91,-760.94 615.91,-760.87"/>
<text text-anchor="middle" x="615.69" y="-664.84" font-family="Times,serif" font-size="14.00">a</text>
</g>
<!-- http://w3id.org/oseg/ont/okhimg#slotModel3D -->
<g id="node39" class="node">
<title>http://w3id.org/oseg/ont/okhimg#slotModel3D</title>
<ellipse fill="none" stroke="#e377c2" cx="306.39" cy="-615.47" rx="115.93" ry="16.03"/>
<text text-anchor="middle" x="306.39" y="-611.77" font-family="Times,serif" font-size="14.00">okhimg:slotModel3D</text>
</g>
<!-- http://w3id.org/oseg/ont/okhimg#slotModel3D&#45;&gt;http://schema.org/DefinedTerm -->
<g id="edge48" class="edge">
<title>http://w3id.org/oseg/ont/okhimg#slotModel3D&#45;&gt;http://schema.org/DefinedTerm</title>
<path fill="none" stroke="black" d="M335.25,-631.32C392.04,-662.52 518.27,-731.85 581.52,-766.59"/>
<polygon fill="black" stroke="black" points="579.93,-769.71 590.38,-771.45 583.3,-763.57 579.93,-769.71"/>
<text text-anchor="middle" x="453.88" y="-702.76" font-family="Times,serif" font-size="14.00">a</text>
</g>
<!-- http://w3id.org/oseg/ont/okhimg#slotSymbol -->
<g id="node40" class="node">
<title>http://w3id.org/oseg/ont/okhimg#slotSymbol</title>
<ellipse fill="none" stroke="#e377c2" cx="403.89" cy="-574.91" rx="108.38" ry="16.03"/>
<text text-anchor="middle" x="403.89" y="-571.21" font-family="Times,serif" font-size="14.00">okhimg:slotSymbol</text>
</g>
<!-- http://w3id.org/oseg/ont/okhimg#slotSymbol&#45;&gt;http://schema.org/DefinedTerm -->
<g id="edge49" class="edge">
<title>http://w3id.org/oseg/ont/okhimg#slotSymbol&#45;&gt;http://schema.org/DefinedTerm</title>
<path fill="none" stroke="black" d="M420.43,-591.22C458.23,-628.51 551.1,-720.12 595.19,-763.61"/>
<polygon fill="black" stroke="black" points="593,-766.37 602.58,-770.9 597.92,-761.39 593,-766.37"/>
<text text-anchor="middle" x="503.31" y="-666.21" font-family="Times,serif" font-size="14.00">a</text>
</g>
<!-- http://w3id.org/oseg/ont/okhimg#tagModel -->
<g id="node41" class="node">
<title>http://w3id.org/oseg/ont/okhimg#tagModel</title>
<ellipse fill="none" stroke="#e377c2" cx="760.27" cy="-1034.86" rx="99.9" ry="16.03"/>
<text text-anchor="middle" x="760.27" y="-1031.16" font-family="Times,serif" font-size="14.00">okhimg:tagModel</text>
</g>
<!-- http://w3id.org/oseg/ont/okhimg#tagModel&#45;&gt;http://schema.org/DefinedTerm -->
<g id="edge50" class="edge">
<title>http://w3id.org/oseg/ont/okhimg#tagModel&#45;&gt;http://schema.org/DefinedTerm</title>
<path fill="none" stroke="black" d="M751.01,-1018.61C726.94,-976.38 662.28,-862.91 633.42,-812.27"/>
<polygon fill="black" stroke="black" points="636.46,-810.53 628.46,-803.57 630.37,-813.99 636.46,-810.53"/>
<text text-anchor="middle" x="687.71" y="-919.24" font-family="Times,serif" font-size="14.00">a</text>
</g>
<!-- http://w3id.org/oseg/ont/okhimg#slotModelFromAbove -->
<g id="node42" class="node">
<title>http://w3id.org/oseg/ont/okhimg#slotModelFromAbove</title>
<ellipse fill="none" stroke="#e377c2" cx="237.15" cy="-809.01" rx="116.85" ry="16.03"/>
<text text-anchor="middle" x="237.15" y="-805.31" font-family="Times,serif" font-size="14.00">okhimg:slotModelF...</text>
</g>
<!-- http://w3id.org/oseg/ont/okhimg#slotModelFromAbove&#45;&gt;http://schema.org/DefinedTerm -->
<g id="edge19" class="edge">
<title>http://w3id.org/oseg/ont/okhimg#slotModelFromAbove&#45;&gt;http://schema.org/DefinedTerm</title>
<path fill="none" stroke="black" d="M345.34,-802.85C393.54,-800.11 450.45,-796.87 499.88,-794.06"/>
<polygon fill="black" stroke="black" points="500.19,-797.54 509.98,-793.48 499.8,-790.56 500.19,-797.54"/>
<text text-anchor="middle" x="418.11" y="-802.25" font-family="Times,serif" font-size="14.00">a</text>
</g>
</g>
</svg>
