<?xml version="1.0" encoding="UTF-8" standalone="no"?>
<!DOCTYPE svg PUBLIC "-//W3C//DTD SVG 1.1//EN"
 "http://www.w3.org/Graphics/SVG/1.1/DTD/svg11.dtd">
<!-- Generated by graphviz version 2.43.0 (0)
 -->
<!-- Title: G Pages: 1 -->
<svg width="1053pt" height="498pt"
 viewBox="0.00 0.00 1053.00 498.00" xmlns="http://www.w3.org/2000/svg" xmlns:xlink="http://www.w3.org/1999/xlink">
<g id="graph0" class="graph" transform="scale(1 1) rotate(0) translate(4 494)">
<title>G</title>
<polygon fill="white" stroke="transparent" points="-4,4 -4,-494 1049,-494 1049,4 -4,4"/>
<!-- http://www.w3.org/2002/07/owl#DatatypeProperty -->
<g id="node1" class="node">
<title>http://www.w3.org/2002/07/owl#DatatypeProperty</title>
<ellipse fill="none" stroke="#1f77b4" cx="296" cy="-269.53" rx="123.07" ry="16.03"/>
<text text-anchor="middle" x="296" y="-265.83" font-family="Times,serif" font-size="14.00">owl:DatatypeProperty</text>
</g>
<!-- http://www.w3.org/2002/07/owl#Ontology -->
<g id="node2" class="node">
<title>http://www.w3.org/2002/07/owl#Ontology</title>
<ellipse fill="none" stroke="#1f77b4" cx="367.53" cy="-66.52" rx="77.56" ry="16.03"/>
<text text-anchor="middle" x="367.53" y="-62.82" font-family="Times,serif" font-size="14.00">owl:Ontology</text>
</g>
<!-- http://www.w3.org/2004/02/skos/core#Concept -->
<g id="node3" class="node">
<title>http://www.w3.org/2004/02/skos/core#Concept</title>
<ellipse fill="none" stroke="#1f77b4" cx="620.34" cy="-277.17" rx="78.48" ry="16.03"/>
<text text-anchor="middle" x="620.34" y="-273.47" font-family="Times,serif" font-size="14.00">skos:Concept</text>
</g>
<!-- http://www.w3.org/2002/07/owl#ObjectProperty -->
<g id="node4" class="node">
<title>http://www.w3.org/2002/07/owl#ObjectProperty</title>
<ellipse fill="none" stroke="#1f77b4" cx="935.54" cy="-473.9" rx="109.7" ry="16.03"/>
<text text-anchor="middle" x="935.54" y="-470.2" font-family="Times,serif" font-size="14.00">owl:ObjectProperty</text>
</g>
<!-- http://w3id.org/oseg/ont/okh#Module -->
<g id="node5" class="node">
<title>http://w3id.org/oseg/ont/okh#Module</title>
<ellipse fill="none" stroke="#e377c2" cx="456.84" cy="-452.84" rx="70.92" ry="16.03"/>
<text text-anchor="middle" x="456.84" y="-449.14" font-family="Times,serif" font-size="14.00">okh:Module</text>
</g>
<!-- http://w3id.org/oseg/ont/okhmeta#DevelopmentTag -->
<g id="node6" class="node">
<title>http://w3id.org/oseg/ont/okhmeta#DevelopmentTag</title>
<ellipse fill="none" stroke="#e377c2" cx="707.91" cy="-359.1" rx="124.4" ry="16.03"/>
<text text-anchor="middle" x="707.91" y="-355.4" font-family="Times,serif" font-size="14.00">okhmeta:Developme...</text>
</g>
<!-- http://w3id.org/oseg/ont/okh#contributorCount -->
<g id="node7" class="node">
<title>http://w3id.org/oseg/ont/okh#contributorCount</title>
<ellipse fill="none" stroke="#e377c2" cx="613.43" cy="-236.3" rx="120.42" ry="16.03"/>
<text text-anchor="middle" x="613.43" y="-232.6" font-family="Times,serif" font-size="14.00">okh:contributorCount</text>
</g>
<!-- http://w3id.org/oseg/ont/okh#contributorCount&#45;&gt;http://www.w3.org/2002/07/owl#DatatypeProperty -->
<g id="edge2" class="edge">
<title>http://w3id.org/oseg/ont/okh#contributorCount&#45;&gt;http://www.w3.org/2002/07/owl#DatatypeProperty</title>
<path fill="none" stroke="black" d="M518.19,-246.27C481.88,-250.07 440.27,-254.43 402.95,-258.33"/>
<polygon fill="black" stroke="black" points="402.12,-254.9 392.54,-259.42 402.85,-261.86 402.12,-254.9"/>
<text text-anchor="middle" x="456.07" y="-256.1" font-family="Times,serif" font-size="14.00">a</text>
</g>
<!-- http://w3id.org/oseg/ont/okh#contributorCount&#45;&gt;http://www.w3.org/2004/02/skos/core#Concept -->
<g id="edge3" class="edge">
<title>http://w3id.org/oseg/ont/okh#contributorCount&#45;&gt;http://www.w3.org/2004/02/skos/core#Concept</title>
<path fill="none" stroke="black" d="M616.24,-252.92C616.27,-253.08 616.3,-253.24 616.32,-253.41"/>
<polygon fill="black" stroke="black" points="612.44,-251.42 617.55,-260.69 619.34,-250.25 612.44,-251.42"/>
<text text-anchor="middle" x="611.78" y="-256.96" font-family="Times,serif" font-size="14.00">a</text>
</g>
<!-- http://w3id.org/oseg/ont/okh#contributorCount&#45;&gt;http://w3id.org/oseg/ont/okh#Module -->
<g id="edge6" class="edge">
<title>http://w3id.org/oseg/ont/okh#contributorCount&#45;&gt;http://w3id.org/oseg/ont/okh#Module</title>
<path fill="none" stroke="black" d="M601.66,-252.58C574.39,-290.29 506.74,-383.83 474.49,-428.43"/>
<polygon fill="black" stroke="black" points="471.56,-426.51 468.53,-436.67 477.23,-430.61 471.56,-426.51"/>
<text text-anchor="middle" x="460.08" y="-344.3" font-family="Times,serif" font-size="14.00">dcam:domainIncludes</text>
</g>
<!-- http://www.w3.org/2001/XMLSchema#int -->
<g id="node14" class="node">
<title>http://www.w3.org/2001/XMLSchema#int</title>
<ellipse fill="none" stroke="#e377c2" cx="768.02" cy="-16.15" rx="45.92" ry="16.03"/>
<text text-anchor="middle" x="768.02" y="-12.45" font-family="Times,serif" font-size="14.00">xsd:int</text>
</g>
<!-- http://w3id.org/oseg/ont/okh#contributorCount&#45;&gt;http://www.w3.org/2001/XMLSchema#int -->
<g id="edge15" class="edge">
<title>http://w3id.org/oseg/ont/okh#contributorCount&#45;&gt;http://www.w3.org/2001/XMLSchema#int</title>
<path fill="none" stroke="black" d="M625.05,-219.75C652.11,-181.22 719.41,-85.37 751.06,-40.3"/>
<polygon fill="black" stroke="black" points="754.01,-42.19 756.9,-32 748.29,-38.17 754.01,-42.19"/>
<text text-anchor="middle" x="615.56" y="-133.83" font-family="Times,serif" font-size="14.00">dcam:rangeIncludes</text>
</g>
<!-- http://w3id.org/oseg/ont/okh#repoSnapshot -->
<g id="node8" class="node">
<title>http://w3id.org/oseg/ont/okh#repoSnapshot</title>
<ellipse fill="none" stroke="#e377c2" cx="346.3" cy="-228.99" rx="103.48" ry="16.03"/>
<text text-anchor="middle" x="346.3" y="-225.29" font-family="Times,serif" font-size="14.00">okh:repoSnapshot</text>
</g>
<!-- http://w3id.org/oseg/ont/okh#repoSnapshot&#45;&gt;http://www.w3.org/2002/07/owl#DatatypeProperty -->
<g id="edge9" class="edge">
<title>http://w3id.org/oseg/ont/okh#repoSnapshot&#45;&gt;http://www.w3.org/2002/07/owl#DatatypeProperty</title>
<path fill="none" stroke="black" d="M326.42,-245.02C325.67,-245.62 324.92,-246.22 324.17,-246.83"/>
<polygon fill="black" stroke="black" points="321.65,-244.36 316.06,-253.36 326.05,-249.81 321.65,-244.36"/>
<text text-anchor="middle" x="320.79" y="-249.72" font-family="Times,serif" font-size="14.00">a</text>
</g>
<!-- http://w3id.org/oseg/ont/okh#repoSnapshot&#45;&gt;http://www.w3.org/2004/02/skos/core#Concept -->
<g id="edge8" class="edge">
<title>http://w3id.org/oseg/ont/okh#repoSnapshot&#45;&gt;http://www.w3.org/2004/02/skos/core#Concept</title>
<path fill="none" stroke="black" d="M415.45,-241.15C456.61,-248.39 508.7,-257.54 550.06,-264.81"/>
<polygon fill="black" stroke="black" points="549.61,-268.29 560.06,-266.57 550.82,-261.39 549.61,-268.29"/>
<text text-anchor="middle" x="478.26" y="-256.78" font-family="Times,serif" font-size="14.00">a</text>
</g>
<!-- http://w3id.org/oseg/ont/okh#repoSnapshot&#45;&gt;http://w3id.org/oseg/ont/okh#Module -->
<g id="edge11" class="edge">
<title>http://w3id.org/oseg/ont/okh#repoSnapshot&#45;&gt;http://w3id.org/oseg/ont/okh#Module</title>
<path fill="none" stroke="black" d="M354.43,-245.45C373.56,-284.19 421.53,-381.34 444.38,-427.6"/>
<polygon fill="black" stroke="black" points="441.28,-429.24 448.85,-436.65 447.56,-426.14 441.28,-429.24"/>
<text text-anchor="middle" x="321.4" y="-325.33" font-family="Times,serif" font-size="14.00">dcam:domainIncludes</text>
</g>
<!-- http://w3id.org/oseg/ont/ods#FetchUrl -->
<g id="node11" class="node">
<title>http://w3id.org/oseg/ont/ods#FetchUrl</title>
<ellipse fill="none" stroke="#e377c2" cx="77.34" cy="-134.74" rx="77.15" ry="16.03"/>
<text text-anchor="middle" x="77.34" y="-131.04" font-family="Times,serif" font-size="14.00">ods:FetchUrl</text>
</g>
<!-- http://w3id.org/oseg/ont/okh#repoSnapshot&#45;&gt;http://w3id.org/oseg/ont/ods#FetchUrl -->
<g id="edge5" class="edge">
<title>http://w3id.org/oseg/ont/okh#repoSnapshot&#45;&gt;http://w3id.org/oseg/ont/ods#FetchUrl</title>
<path fill="none" stroke="black" d="M303.68,-214.06C255.53,-197.19 177.29,-169.77 126.58,-152"/>
<polygon fill="black" stroke="black" points="127.72,-148.69 117.13,-148.69 125.41,-155.3 127.72,-148.69"/>
<text text-anchor="middle" x="142.63" y="-171.83" font-family="Times,serif" font-size="14.00">dcam:rangeIncludes</text>
</g>
<!-- http://w3id.org/oseg/ont/okhmeta#HistoryTag -->
<g id="node13" class="node">
<title>http://w3id.org/oseg/ont/okhmeta#HistoryTag</title>
<ellipse fill="none" stroke="#e377c2" cx="323.77" cy="-188.45" rx="113.69" ry="16.03"/>
<text text-anchor="middle" x="323.77" y="-184.75" font-family="Times,serif" font-size="14.00">okhmeta:HistoryTag</text>
</g>
<!-- http://w3id.org/oseg/ont/okh#repoSnapshot&#45;&gt;http://w3id.org/oseg/ont/okhmeta#HistoryTag -->
<g id="edge13" class="edge">
<title>http://w3id.org/oseg/ont/okh#repoSnapshot&#45;&gt;http://w3id.org/oseg/ont/okhmeta#HistoryTag</title>
<path fill="none" stroke="black" d="M337.13,-212.5C337.05,-212.34 336.96,-212.18 336.87,-212.02"/>
<polygon fill="black" stroke="black" points="340.77,-211.83 332.85,-204.79 334.65,-215.23 340.77,-211.83"/>
<text text-anchor="middle" x="414" y="-201.06" font-family="Times,serif" font-size="14.00">okhmeta:hasMetaTag</text>
</g>
<!-- http://w3id.org/oseg/ont/okh#hasCertificate -->
<g id="node9" class="node">
<title>http://w3id.org/oseg/ont/okh#hasCertificate</title>
<ellipse fill="none" stroke="#e377c2" cx="655.83" cy="-318.53" rx="103.48" ry="16.03"/>
<text text-anchor="middle" x="655.83" y="-314.83" font-family="Times,serif" font-size="14.00">okh:hasCertificate</text>
</g>
<!-- http://w3id.org/oseg/ont/okh#hasCertificate&#45;&gt;http://www.w3.org/2004/02/skos/core#Concept -->
<g id="edge10" class="edge">
<title>http://w3id.org/oseg/ont/okh#hasCertificate&#45;&gt;http://www.w3.org/2004/02/skos/core#Concept</title>
<path fill="none" stroke="black" d="M641.8,-302.19C641.49,-301.82 641.18,-301.46 640.87,-301.1"/>
<polygon fill="black" stroke="black" points="643.43,-298.71 634.26,-293.4 638.12,-303.27 643.43,-298.71"/>
<text text-anchor="middle" x="636.84" y="-290.44" font-family="Times,serif" font-size="14.00">a</text>
</g>
<!-- http://w3id.org/oseg/ont/okh#hasCertificate&#45;&gt;http://www.w3.org/2002/07/owl#ObjectProperty -->
<g id="edge14" class="edge">
<title>http://w3id.org/oseg/ont/okh#hasCertificate&#45;&gt;http://www.w3.org/2002/07/owl#ObjectProperty</title>
<path fill="none" stroke="black" d="M684.19,-334.29C734.97,-362.5 841.42,-421.62 898.12,-453.12"/>
<polygon fill="black" stroke="black" points="896.67,-456.31 907.11,-458.11 900.07,-450.19 896.67,-456.31"/>
<text text-anchor="middle" x="786.65" y="-397.5" font-family="Times,serif" font-size="14.00">a</text>
</g>
<!-- http://w3id.org/oseg/ont/okh#hasCertificate&#45;&gt;http://w3id.org/oseg/ont/okh#Module -->
<g id="edge1" class="edge">
<title>http://w3id.org/oseg/ont/okh#hasCertificate&#45;&gt;http://w3id.org/oseg/ont/okh#Module</title>
<path fill="none" stroke="black" d="M632.22,-334.47C596.35,-358.68 528.08,-404.76 488.12,-431.73"/>
<polygon fill="black" stroke="black" points="486.13,-428.84 479.8,-437.34 490.05,-434.64 486.13,-428.84"/>
<text text-anchor="middle" x="482.17" y="-386.9" font-family="Times,serif" font-size="14.00">dcam:domainIncludes</text>
</g>
<!-- http://w3id.org/oseg/ont/okh#hasCertificate&#45;&gt;http://w3id.org/oseg/ont/okhmeta#DevelopmentTag -->
<g id="edge7" class="edge">
<title>http://w3id.org/oseg/ont/okh#hasCertificate&#45;&gt;http://w3id.org/oseg/ont/okhmeta#DevelopmentTag</title>
<path fill="none" stroke="black" d="M676.41,-334.57C677.3,-335.25 678.19,-335.95 679.08,-336.64"/>
<polygon fill="black" stroke="black" points="677.1,-339.53 687.14,-342.92 681.4,-334.01 677.1,-339.53"/>
<text text-anchor="middle" x="600.75" y="-339.4" font-family="Times,serif" font-size="14.00">okhmeta:hasMetaTag</text>
</g>
<!-- http://spdx.org/licenses/GPL&#45;3.0&#45;or&#45;later -->
<g id="node10" class="node">
<title>http://spdx.org/licenses/GPL&#45;3.0&#45;or&#45;later</title>
<ellipse fill="none" stroke="#e377c2" cx="563.07" cy="-58.85" rx="108.79" ry="16.03"/>
<text text-anchor="middle" x="563.07" y="-55.15" font-family="Times,serif" font-size="14.00">spdxl:GPL&#45;3.0&#45;or&#45;...</text>
</g>
<!-- http://w3id.org/oseg/ont/okh -->
<g id="node12" class="node">
<title>http://w3id.org/oseg/ont/okh</title>
<ellipse fill="none" stroke="#e377c2" cx="507.49" cy="-16.43" rx="50.82" ry="16.03"/>
<text text-anchor="middle" x="507.49" y="-12.73" font-family="Times,serif" font-size="14.00">ns1:okh</text>
</g>
<!-- http://w3id.org/oseg/ont/okh&#45;&gt;http://www.w3.org/2002/07/owl#Ontology -->
<g id="edge12" class="edge">
<title>http://w3id.org/oseg/ont/okh&#45;&gt;http://www.w3.org/2002/07/owl#Ontology</title>
<path fill="none" stroke="black" d="M473.25,-28.68C456.16,-34.8 435.18,-42.31 416.43,-49.02"/>
<polygon fill="black" stroke="black" points="415.09,-45.78 406.86,-52.45 417.45,-52.37 415.09,-45.78"/>
<text text-anchor="middle" x="440.34" y="-27.65" font-family="Times,serif" font-size="14.00">a</text>
</g>
<!-- http://w3id.org/oseg/ont/okh&#45;&gt;http://spdx.org/licenses/GPL&#45;3.0&#45;or&#45;later -->
<g id="edge4" class="edge">
<title>http://w3id.org/oseg/ont/okh&#45;&gt;http://spdx.org/licenses/GPL&#45;3.0&#45;or&#45;later</title>
<path fill="none" stroke="black" d="M527.24,-31.5C529.32,-33.09 531.46,-34.72 533.61,-36.36"/>
<polygon fill="black" stroke="black" points="531.8,-39.39 541.87,-42.67 536.05,-33.82 531.8,-39.39"/>
<text text-anchor="middle" x="606.43" y="-22.73" font-family="Times,serif" font-size="14.00">spdx:licenseDeclared</text>
</g>
</g>
</svg>
