<?xml version="1.0" encoding="UTF-8" standalone="no"?>
<!DOCTYPE svg PUBLIC "-//W3C//DTD SVG 1.1//EN"
 "http://www.w3.org/Graphics/SVG/1.1/DTD/svg11.dtd">
<!-- Generated by graphviz version 2.43.0 (0)
 -->
<!-- Title: G Pages: 1 -->
<svg width="2377pt" height="1803pt"
 viewBox="0.00 0.00 2377.04 1803.00" xmlns="http://www.w3.org/2000/svg" xmlns:xlink="http://www.w3.org/1999/xlink">
<g id="graph0" class="graph" transform="scale(1 1) rotate(0) translate(13.04 1799)">
<title>G</title>
<polygon fill="white" stroke="transparent" points="-13.04,4 -13.04,-1799 2364,-1799 2364,4 -13.04,4"/>
<!-- http://www.w3.org/2002/07/owl#ObjectProperty -->
<g id="node1" class="node">
<title>http://www.w3.org/2002/07/owl#ObjectProperty</title>
<ellipse fill="none" stroke="#1f77b4" cx="510.67" cy="-1226.69" rx="109.7" ry="16.03"/>
<text text-anchor="middle" x="510.67" y="-1222.99" font-family="Times,serif" font-size="14.00">owl:ObjectProperty</text>
</g>
<!-- http://w3id.org/oseg/ont/okh#Mass -->
<g id="node2" class="node">
<title>http://w3id.org/oseg/ont/okh#Mass</title>
<ellipse fill="none" stroke="#e377c2" cx="1289.81" cy="-720.96" rx="59.29" ry="16.03"/>
<text text-anchor="middle" x="1289.81" y="-717.26" font-family="Times,serif" font-size="14.00">okh:Mass</text>
</g>
<!-- http://www.w3.org/2004/02/skos/core#Concept -->
<g id="node8" class="node">
<title>http://www.w3.org/2004/02/skos/core#Concept</title>
<ellipse fill="none" stroke="#1f77b4" cx="980.18" cy="-756.27" rx="78.48" ry="16.03"/>
<text text-anchor="middle" x="980.18" y="-752.57" font-family="Times,serif" font-size="14.00">skos:Concept</text>
</g>
<!-- http://w3id.org/oseg/ont/okh#Mass&#45;&gt;http://www.w3.org/2004/02/skos/core#Concept -->
<g id="edge26" class="edge">
<title>http://w3id.org/oseg/ont/okh#Mass&#45;&gt;http://www.w3.org/2004/02/skos/core#Concept</title>
<path fill="none" stroke="black" d="M1234.81,-727.23C1185.98,-732.8 1114.04,-741 1059.08,-747.27"/>
<polygon fill="black" stroke="black" points="1058.56,-743.8 1049.02,-748.41 1059.35,-750.76 1058.56,-743.8"/>
<text text-anchor="middle" x="1142.44" y="-741.05" font-family="Times,serif" font-size="14.00">a</text>
</g>
<!-- http://w3id.org/oseg/ont/okhmetaPhysicalTag -->
<g id="node18" class="node">
<title>http://w3id.org/oseg/ont/okhmetaPhysicalTag</title>
<ellipse fill="none" stroke="#e377c2" cx="1322.66" cy="-762.06" rx="118.17" ry="16.03"/>
<text text-anchor="middle" x="1322.66" y="-758.36" font-family="Times,serif" font-size="14.00">okhmeta:PhysicalTag</text>
</g>
<!-- http://w3id.org/oseg/ont/okh#Mass&#45;&gt;http://w3id.org/oseg/ont/okhmetaPhysicalTag -->
<g id="edge13" class="edge">
<title>http://w3id.org/oseg/ont/okh#Mass&#45;&gt;http://w3id.org/oseg/ont/okhmetaPhysicalTag</title>
<path fill="none" stroke="black" d="M1302.79,-737.2C1302.93,-737.38 1303.07,-737.55 1303.21,-737.72"/>
<polygon fill="black" stroke="black" points="1300.58,-740.04 1309.56,-745.66 1306.05,-735.67 1300.58,-740.04"/>
<text text-anchor="middle" x="1380" y="-726.26" font-family="Times,serif" font-size="14.00">okhmeta:hasMetaTag</text>
</g>
<!-- http://w3id.org/oseg/ont/okhmetaTransportationTag -->
<g id="node38" class="node">
<title>http://w3id.org/oseg/ont/okhmetaTransportationTag</title>
<ellipse fill="none" stroke="#e377c2" cx="1443.23" cy="-949.39" rx="118.17" ry="16.03"/>
<text text-anchor="middle" x="1443.23" y="-945.69" font-family="Times,serif" font-size="14.00">okhmeta:Transport...</text>
</g>
<!-- http://w3id.org/oseg/ont/okh#Mass&#45;&gt;http://w3id.org/oseg/ont/okhmetaTransportationTag -->
<g id="edge43" class="edge">
<title>http://w3id.org/oseg/ont/okh#Mass&#45;&gt;http://w3id.org/oseg/ont/okhmetaTransportationTag</title>
<path fill="none" stroke="black" d="M1300.6,-737.02C1327,-776.33 1395,-877.57 1426.61,-924.65"/>
<polygon fill="black" stroke="black" points="1423.77,-926.69 1432.25,-933.04 1429.58,-922.79 1423.77,-926.69"/>
<text text-anchor="middle" x="1286.61" y="-834.63" font-family="Times,serif" font-size="14.00">okhmeta:hasMetaTag</text>
</g>
<!-- http://w3id.org/oseg/ont/okh#FileUrl -->
<g id="node3" class="node">
<title>http://w3id.org/oseg/ont/okh#FileUrl</title>
<ellipse fill="none" stroke="#1f77b4" cx="380.09" cy="-751.2" rx="68.68" ry="16.03"/>
<text text-anchor="middle" x="380.09" y="-747.5" font-family="Times,serif" font-size="14.00">okh:FileUrl</text>
</g>
<!-- http://schema.org/URL -->
<g id="node6" class="node">
<title>http://schema.org/URL</title>
<ellipse fill="none" stroke="#e377c2" cx="161.47" cy="-663.62" rx="75.82" ry="16.03"/>
<text text-anchor="middle" x="161.47" y="-659.92" font-family="Times,serif" font-size="14.00">schema:URL</text>
</g>
<!-- http://w3id.org/oseg/ont/okh#FileUrl&#45;&gt;http://schema.org/URL -->
<g id="edge9" class="edge">
<title>http://w3id.org/oseg/ont/okh#FileUrl&#45;&gt;http://schema.org/URL</title>
<path fill="none" stroke="black" d="M344.97,-737.12C307.53,-722.13 248.12,-698.33 207.09,-681.89"/>
<polygon fill="black" stroke="black" points="208.18,-678.56 197.6,-678.09 205.58,-685.06 208.18,-678.56"/>
</g>
<!-- http://w3id.org/oseg/ont/okh#ComponentReference -->
<g id="node7" class="node">
<title>http://w3id.org/oseg/ont/okh#ComponentReference</title>
<ellipse fill="none" stroke="#e377c2" cx="650.64" cy="-589.13" rx="123.07" ry="16.03"/>
<text text-anchor="middle" x="650.64" y="-585.43" font-family="Times,serif" font-size="14.00">okh:ComponentRefe...</text>
</g>
<!-- http://w3id.org/oseg/ont/okh#FileUrl&#45;&gt;http://w3id.org/oseg/ont/okh#ComponentReference -->
<g id="edge52" class="edge">
<title>http://w3id.org/oseg/ont/okh#FileUrl&#45;&gt;http://w3id.org/oseg/ont/okh#ComponentReference</title>
<path fill="none" stroke="black" d="M405.54,-735.95C454.01,-706.91 559.67,-643.62 615.09,-610.42"/>
<polygon fill="black" stroke="black" points="617.08,-613.31 623.86,-605.17 613.48,-607.3 617.08,-613.31"/>
</g>
<!-- http://w3id.org/oseg/ont/okh#File -->
<g id="node25" class="node">
<title>http://w3id.org/oseg/ont/okh#File</title>
<ellipse fill="none" stroke="#e377c2" cx="407.33" cy="-987.34" rx="52.15" ry="16.03"/>
<text text-anchor="middle" x="407.33" y="-983.64" font-family="Times,serif" font-size="14.00">okh:File</text>
</g>
<!-- http://w3id.org/oseg/ont/okh#FileUrl&#45;&gt;http://w3id.org/oseg/ont/okh#File -->
<g id="edge50" class="edge">
<title>http://w3id.org/oseg/ont/okh#FileUrl&#45;&gt;http://w3id.org/oseg/ont/okh#File</title>
<path fill="none" stroke="black" d="M382.01,-767.8C386.67,-808.21 398.63,-911.93 404.29,-960.94"/>
<polygon fill="black" stroke="black" points="400.83,-961.53 405.46,-971.07 407.79,-960.73 400.83,-961.53"/>
<text text-anchor="middle" x="313.15" y="-868.17" font-family="Times,serif" font-size="14.00">schema:supersededBy</text>
</g>
<!-- http://www.w3.org/2002/07/owl#DatatypeProperty -->
<g id="node4" class="node">
<title>http://www.w3.org/2002/07/owl#DatatypeProperty</title>
<ellipse fill="none" stroke="#1f77b4" cx="1648.44" cy="-389.64" rx="123.07" ry="16.03"/>
<text text-anchor="middle" x="1648.44" y="-385.94" font-family="Times,serif" font-size="14.00">owl:DatatypeProperty</text>
</g>
<!-- http://w3id.org/oseg/ont/okh#Reference -->
<g id="node5" class="node">
<title>http://w3id.org/oseg/ont/okh#Reference</title>
<ellipse fill="none" stroke="#e377c2" cx="627.35" cy="-536.94" rx="84.29" ry="16.03"/>
<text text-anchor="middle" x="627.35" y="-533.24" font-family="Times,serif" font-size="14.00">okh:Reference</text>
</g>
<!-- http://w3id.org/oseg/ont/okh#ComponentReference&#45;&gt;http://w3id.org/oseg/ont/okh#Reference -->
<g id="edge44" class="edge">
<title>http://w3id.org/oseg/ont/okh#ComponentReference&#45;&gt;http://w3id.org/oseg/ont/okh#Reference</title>
<path fill="none" stroke="black" d="M643.27,-572.61C641.84,-569.41 640.31,-565.98 638.79,-562.57"/>
<polygon fill="black" stroke="black" points="641.86,-560.87 634.59,-553.16 635.47,-563.72 641.86,-560.87"/>
</g>
<!-- http://w3id.org/oseg/ont/okh#ComponentReference&#45;&gt;http://www.w3.org/2004/02/skos/core#Concept -->
<g id="edge8" class="edge">
<title>http://w3id.org/oseg/ont/okh#ComponentReference&#45;&gt;http://www.w3.org/2004/02/skos/core#Concept</title>
<path fill="none" stroke="black" d="M681.93,-605C742.27,-635.6 874.54,-702.69 940.77,-736.28"/>
<polygon fill="black" stroke="black" points="939.54,-739.58 950.04,-740.98 942.71,-733.34 939.54,-739.58"/>
<text text-anchor="middle" x="806.85" y="-674.44" font-family="Times,serif" font-size="14.00">a</text>
</g>
<!-- http://w3id.org/oseg/ont/okhmetaPartsTag -->
<g id="node41" class="node">
<title>http://w3id.org/oseg/ont/okhmetaPartsTag</title>
<ellipse fill="none" stroke="#e377c2" cx="437.81" cy="-333.46" rx="103.48" ry="16.03"/>
<text text-anchor="middle" x="437.81" y="-329.76" font-family="Times,serif" font-size="14.00">okhmeta:PartsTag</text>
</g>
<!-- http://w3id.org/oseg/ont/okh#ComponentReference&#45;&gt;http://w3id.org/oseg/ont/okhmetaPartsTag -->
<g id="edge48" class="edge">
<title>http://w3id.org/oseg/ont/okh#ComponentReference&#45;&gt;http://w3id.org/oseg/ont/okhmetaPartsTag</title>
<path fill="none" stroke="black" d="M637,-572.74C600.58,-529 500.93,-409.28 457.96,-357.66"/>
<polygon fill="black" stroke="black" points="460.42,-355.15 451.33,-349.7 455.04,-359.63 460.42,-355.15"/>
<text text-anchor="middle" x="470.48" y="-469" font-family="Times,serif" font-size="14.00">okhmeta:hasMetaTag</text>
</g>
<!-- http://w3id.org/oseg/ont/okh#Module -->
<g id="node9" class="node">
<title>http://w3id.org/oseg/ont/okh#Module</title>
<ellipse fill="none" stroke="#e377c2" cx="893.13" cy="-1161.61" rx="70.92" ry="16.03"/>
<text text-anchor="middle" x="893.13" y="-1157.91" font-family="Times,serif" font-size="14.00">okh:Module</text>
</g>
<!-- http://w3id.org/oseg/ont/okh#Software -->
<g id="node10" class="node">
<title>http://w3id.org/oseg/ont/okh#Software</title>
<ellipse fill="none" stroke="#e377c2" cx="1117.76" cy="-281.65" rx="78.48" ry="16.03"/>
<text text-anchor="middle" x="1117.76" y="-277.95" font-family="Times,serif" font-size="14.00">okh:Software</text>
</g>
<!-- http://w3id.org/oseg/ont/okh#okhvPresent -->
<g id="node11" class="node">
<title>http://w3id.org/oseg/ont/okh#okhvPresent</title>
<ellipse fill="none" stroke="#e377c2" cx="2015.94" cy="-376.95" rx="96.33" ry="16.03"/>
<text text-anchor="middle" x="2015.94" y="-373.25" font-family="Times,serif" font-size="14.00">okh:okhvPresent</text>
</g>
<!-- http://w3id.org/oseg/ont/okh#okhvPresent&#45;&gt;http://www.w3.org/2002/07/owl#DatatypeProperty -->
<g id="edge3" class="edge">
<title>http://w3id.org/oseg/ont/okh#okhvPresent&#45;&gt;http://www.w3.org/2002/07/owl#DatatypeProperty</title>
<path fill="none" stroke="black" d="M1921.3,-380.22C1877.62,-381.73 1825.07,-383.54 1777.81,-385.18"/>
<polygon fill="black" stroke="black" points="1777.68,-381.68 1767.8,-385.52 1777.92,-388.67 1777.68,-381.68"/>
<text text-anchor="middle" x="1845.05" y="-386.5" font-family="Times,serif" font-size="14.00">a</text>
</g>
<!-- http://w3id.org/oseg/ont/okh#okhv -->
<g id="node14" class="node">
<title>http://w3id.org/oseg/ont/okh#okhv</title>
<ellipse fill="none" stroke="#e377c2" cx="2203.77" cy="-246.16" rx="56.64" ry="16.03"/>
<text text-anchor="middle" x="2203.77" y="-242.46" font-family="Times,serif" font-size="14.00">okh:okhv</text>
</g>
<!-- http://w3id.org/oseg/ont/okh#okhvPresent&#45;&gt;http://w3id.org/oseg/ont/okh#okhv -->
<g id="edge37" class="edge">
<title>http://w3id.org/oseg/ont/okh#okhvPresent&#45;&gt;http://w3id.org/oseg/ont/okh#okhv</title>
<path fill="none" stroke="black" d="M2038.97,-360.91C2072.8,-337.36 2135.96,-293.38 2173.5,-267.24"/>
<polygon fill="black" stroke="black" points="2175.8,-269.9 2182,-261.31 2171.8,-264.16 2175.8,-269.9"/>
<text text-anchor="middle" x="2053.23" y="-317.87" font-family="Times,serif" font-size="14.00">subPropertyOf</text>
</g>
<!-- http://w3id.org/oseg/ont/okh#okhvOrig -->
<g id="node36" class="node">
<title>http://w3id.org/oseg/ont/okh#okhvOrig</title>
<ellipse fill="none" stroke="#e377c2" cx="2280.7" cy="-416.18" rx="79.39" ry="16.03"/>
<text text-anchor="middle" x="2280.7" y="-412.48" font-family="Times,serif" font-size="14.00">okh:okhvOrig</text>
</g>
<!-- http://w3id.org/oseg/ont/okh#okhvPresent&#45;&gt;http://w3id.org/oseg/ont/okh#okhvOrig -->
<g id="edge41" class="edge">
<title>http://w3id.org/oseg/ont/okh#okhvPresent&#45;&gt;http://w3id.org/oseg/ont/okh#okhvOrig</title>
<path fill="none" stroke="black" d="M2088.29,-387.67C2124.81,-393.08 2169.08,-399.64 2205.94,-405.1"/>
<polygon fill="black" stroke="black" points="2205.72,-408.61 2216.13,-406.61 2206.75,-401.68 2205.72,-408.61"/>
<text text-anchor="middle" x="2119.61" y="-400.19" font-family="Times,serif" font-size="14.00">seeAlso</text>
</g>
<!-- http://w3id.org/oseg/ont/okh#openSCAD -->
<g id="node12" class="node">
<title>http://w3id.org/oseg/ont/okh#openSCAD</title>
<ellipse fill="none" stroke="#e377c2" cx="1655.45" cy="-272.07" rx="86.03" ry="16.03"/>
<text text-anchor="middle" x="1655.45" y="-268.37" font-family="Times,serif" font-size="14.00">okh:openSCAD</text>
</g>
<!-- http://w3id.org/oseg/ont/okh#openSCAD&#45;&gt;http://www.w3.org/2002/07/owl#DatatypeProperty -->
<g id="edge24" class="edge">
<title>http://w3id.org/oseg/ont/okh#openSCAD&#45;&gt;http://www.w3.org/2002/07/owl#DatatypeProperty</title>
<path fill="none" stroke="black" d="M1654.48,-288.42C1653.33,-307.7 1651.4,-340.03 1650.03,-362.96"/>
<polygon fill="black" stroke="black" points="1646.53,-362.87 1649.43,-373.06 1653.52,-363.28 1646.53,-362.87"/>
<text text-anchor="middle" x="1647.76" y="-329.49" font-family="Times,serif" font-size="14.00">a</text>
</g>
<!-- http://w3id.org/oseg/ont/okh#width -->
<g id="node15" class="node">
<title>http://w3id.org/oseg/ont/okh#width</title>
<ellipse fill="none" stroke="#e377c2" cx="1644.1" cy="-17.99" rx="61.54" ry="16.03"/>
<text text-anchor="middle" x="1644.1" y="-14.29" font-family="Times,serif" font-size="14.00">okh:width</text>
</g>
<!-- http://w3id.org/oseg/ont/okh#openSCAD&#45;&gt;http://w3id.org/oseg/ont/okh#width -->
<g id="edge7" class="edge">
<title>http://w3id.org/oseg/ont/okh#openSCAD&#45;&gt;http://w3id.org/oseg/ont/okh#width</title>
<path fill="none" stroke="black" d="M1654.73,-255.79C1652.82,-213.05 1647.64,-97.32 1645.29,-44.69"/>
<polygon fill="black" stroke="black" points="1648.78,-44.3 1644.83,-34.47 1641.78,-44.61 1648.78,-44.3"/>
<text text-anchor="middle" x="1570.01" y="-154.04" font-family="Times,serif" font-size="14.00">schema:supersededBy</text>
</g>
<!-- http://w3id.org/oseg/ont/okh#depth -->
<g id="node16" class="node">
<title>http://w3id.org/oseg/ont/okh#depth</title>
<ellipse fill="none" stroke="#e377c2" cx="1523.83" cy="-64.18" rx="62.45" ry="16.03"/>
<text text-anchor="middle" x="1523.83" y="-60.48" font-family="Times,serif" font-size="14.00">okh:depth</text>
</g>
<!-- http://w3id.org/oseg/ont/okh#openSCAD&#45;&gt;http://w3id.org/oseg/ont/okh#depth -->
<g id="edge10" class="edge">
<title>http://w3id.org/oseg/ont/okh#openSCAD&#45;&gt;http://w3id.org/oseg/ont/okh#depth</title>
<path fill="none" stroke="black" d="M1645.13,-255.76C1622.16,-219.48 1566.72,-131.92 1539.48,-88.89"/>
<polygon fill="black" stroke="black" points="1542.42,-86.99 1534.11,-80.42 1536.51,-90.74 1542.42,-86.99"/>
<text text-anchor="middle" x="1512.3" y="-176.13" font-family="Times,serif" font-size="14.00">schema:supersededBy</text>
</g>
<!-- http://w3id.org/oseg/ont/okh#height -->
<g id="node19" class="node">
<title>http://w3id.org/oseg/ont/okh#height</title>
<ellipse fill="none" stroke="#e377c2" cx="1615.04" cy="-221.63" rx="65.11" ry="16.03"/>
<text text-anchor="middle" x="1615.04" y="-217.93" font-family="Times,serif" font-size="14.00">okh:height</text>
</g>
<!-- http://w3id.org/oseg/ont/okh#openSCAD&#45;&gt;http://w3id.org/oseg/ont/okh#height -->
<g id="edge14" class="edge">
<title>http://w3id.org/oseg/ont/okh#openSCAD&#45;&gt;http://w3id.org/oseg/ont/okh#height</title>
<path fill="none" stroke="black" d="M1642.45,-255.84C1639.85,-252.6 1637.07,-249.13 1634.32,-245.69"/>
<polygon fill="black" stroke="black" points="1637.01,-243.46 1628.03,-237.84 1631.55,-247.83 1637.01,-243.46"/>
<text text-anchor="middle" x="1718.38" y="-239.56" font-family="Times,serif" font-size="14.00">schema:supersededBy</text>
</g>
<!-- http://w3id.org/oseg/ont/okh#Dimensions -->
<g id="node24" class="node">
<title>http://w3id.org/oseg/ont/okh#Dimensions</title>
<ellipse fill="none" stroke="#e377c2" cx="1425.99" cy="-327.47" rx="91.85" ry="16.03"/>
<text text-anchor="middle" x="1425.99" y="-323.77" font-family="Times,serif" font-size="14.00">okh:Dimensions</text>
</g>
<!-- http://w3id.org/oseg/ont/okh#openSCAD&#45;&gt;http://w3id.org/oseg/ont/okh#Dimensions -->
<g id="edge54" class="edge">
<title>http://w3id.org/oseg/ont/okh#openSCAD&#45;&gt;http://w3id.org/oseg/ont/okh#Dimensions</title>
<path fill="none" stroke="black" d="M1602.23,-284.92C1568.83,-292.99 1525.56,-303.44 1490.25,-311.96"/>
<polygon fill="black" stroke="black" points="1489.42,-308.56 1480.52,-314.31 1491.06,-315.36 1489.42,-308.56"/>
<text text-anchor="middle" x="1468.24" y="-287.24" font-family="Times,serif" font-size="14.00">dcam:domainIncludes</text>
</g>
<!-- http://www.w3.org/2001/XMLSchema#string -->
<g id="node26" class="node">
<title>http://www.w3.org/2001/XMLSchema#string</title>
<ellipse fill="none" stroke="#e377c2" cx="1780.67" cy="-57.86" rx="62.87" ry="16.03"/>
<text text-anchor="middle" x="1780.67" y="-54.16" font-family="Times,serif" font-size="14.00">xsd:string</text>
</g>
<!-- http://w3id.org/oseg/ont/okh#openSCAD&#45;&gt;http://www.w3.org/2001/XMLSchema#string -->
<g id="edge21" class="edge">
<title>http://w3id.org/oseg/ont/okh#openSCAD&#45;&gt;http://www.w3.org/2001/XMLSchema#string</title>
<path fill="none" stroke="black" d="M1665.07,-255.62C1686.88,-218.3 1740.22,-127.06 1766.1,-82.78"/>
<polygon fill="black" stroke="black" points="1769.16,-84.48 1771.19,-74.08 1763.12,-80.95 1769.16,-84.48"/>
<text text-anchor="middle" x="1643.09" y="-173" font-family="Times,serif" font-size="14.00">dcam:rangeIncludes</text>
</g>
<!-- http://schema.org/url -->
<g id="node13" class="node">
<title>http://schema.org/url</title>
<ellipse fill="none" stroke="#e377c2" cx="82.52" cy="-1328.95" rx="67.35" ry="16.03"/>
<text text-anchor="middle" x="82.52" y="-1325.25" font-family="Times,serif" font-size="14.00">schema:url</text>
</g>
<!-- http://w3id.org/oseg/ont/okh#okhvOriginal -->
<g id="node17" class="node">
<title>http://w3id.org/oseg/ont/okh#okhvOriginal</title>
<ellipse fill="none" stroke="#e377c2" cx="1982.1" cy="-213.89" rx="97.66" ry="16.03"/>
<text text-anchor="middle" x="1982.1" y="-210.19" font-family="Times,serif" font-size="14.00">okh:okhvOriginal</text>
</g>
<!-- http://w3id.org/oseg/ont/okh#okhvOriginal&#45;&gt;http://www.w3.org/2002/07/owl#DatatypeProperty -->
<g id="edge12" class="edge">
<title>http://w3id.org/oseg/ont/okh#okhvOriginal&#45;&gt;http://www.w3.org/2002/07/owl#DatatypeProperty</title>
<path fill="none" stroke="black" d="M1952.49,-229.48C1892.17,-261.26 1755.05,-333.48 1687.52,-369.06"/>
<polygon fill="black" stroke="black" points="1685.68,-366.07 1678.46,-373.83 1688.94,-372.27 1685.68,-366.07"/>
<text text-anchor="middle" x="1815.5" y="-303.07" font-family="Times,serif" font-size="14.00">a</text>
</g>
<!-- http://w3id.org/oseg/ont/okh#okhvOriginal&#45;&gt;http://w3id.org/oseg/ont/okh#okhv -->
<g id="edge6" class="edge">
<title>http://w3id.org/oseg/ont/okh#okhvOriginal&#45;&gt;http://w3id.org/oseg/ont/okh#okhv</title>
<path fill="none" stroke="black" d="M2055.6,-224.59C2083.99,-228.72 2116.07,-233.39 2143.1,-237.33"/>
<polygon fill="black" stroke="black" points="2142.8,-240.82 2153.2,-238.8 2143.81,-233.89 2142.8,-240.82"/>
<text text-anchor="middle" x="2046.35" y="-234.76" font-family="Times,serif" font-size="14.00">subPropertyOf</text>
</g>
<!-- http://w3id.org/oseg/ont/okh#okhvStored -->
<g id="node29" class="node">
<title>http://w3id.org/oseg/ont/okh#okhvStored</title>
<ellipse fill="none" stroke="#e377c2" cx="2202.36" cy="-16.52" rx="90.52" ry="16.03"/>
<text text-anchor="middle" x="2202.36" y="-12.82" font-family="Times,serif" font-size="14.00">okh:okhvStored</text>
</g>
<!-- http://w3id.org/oseg/ont/okh#okhvOriginal&#45;&gt;http://w3id.org/oseg/ont/okh#okhvStored -->
<g id="edge27" class="edge">
<title>http://w3id.org/oseg/ont/okh#okhvOriginal&#45;&gt;http://w3id.org/oseg/ont/okh#okhvStored</title>
<path fill="none" stroke="black" d="M2000.12,-197.73C2039.18,-162.73 2131.74,-79.8 2176.81,-39.41"/>
<polygon fill="black" stroke="black" points="2179.28,-41.9 2184.39,-32.62 2174.61,-36.68 2179.28,-41.9"/>
<text text-anchor="middle" x="2060.96" y="-122.37" font-family="Times,serif" font-size="14.00">seeAlso</text>
</g>
<!-- http://w3id.org/oseg/ont/okh#tsdc -->
<g id="node20" class="node">
<title>http://w3id.org/oseg/ont/okh#tsdc</title>
<ellipse fill="none" stroke="#e377c2" cx="364.92" cy="-1778.44" rx="54.39" ry="16.03"/>
<text text-anchor="middle" x="364.92" y="-1774.74" font-family="Times,serif" font-size="14.00">okh:tsdc</text>
</g>
<!-- http://w3id.org/oseg/ont/okh#permaURL -->
<g id="node21" class="node">
<title>http://w3id.org/oseg/ont/okh#permaURL</title>
<ellipse fill="none" stroke="#e377c2" cx="260.87" cy="-1104.82" rx="87.86" ry="16.03"/>
<text text-anchor="middle" x="260.87" y="-1101.12" font-family="Times,serif" font-size="14.00">okh:permaURL</text>
</g>
<!-- http://w3id.org/oseg/ont/okh#permaURL&#45;&gt;http://www.w3.org/2002/07/owl#ObjectProperty -->
<g id="edge16" class="edge">
<title>http://w3id.org/oseg/ont/okh#permaURL&#45;&gt;http://www.w3.org/2002/07/owl#ObjectProperty</title>
<path fill="none" stroke="black" d="M292.25,-1120.13C337.06,-1142 419.45,-1182.19 469.23,-1206.47"/>
<polygon fill="black" stroke="black" points="467.91,-1209.72 478.43,-1210.96 470.98,-1203.43 467.91,-1209.72"/>
<text text-anchor="middle" x="376.24" y="-1167.1" font-family="Times,serif" font-size="14.00">a</text>
</g>
<!-- http://w3id.org/oseg/ont/okh#permaURL&#45;&gt;http://w3id.org/oseg/ont/okh#File -->
<g id="edge20" class="edge">
<title>http://w3id.org/oseg/ont/okh#permaURL&#45;&gt;http://w3id.org/oseg/ont/okh#File</title>
<path fill="none" stroke="black" d="M280.92,-1088.73C306.59,-1068.14 351.18,-1032.38 379.96,-1009.3"/>
<polygon fill="black" stroke="black" points="382.37,-1011.85 387.98,-1002.86 377.99,-1006.39 382.37,-1011.85"/>
<text text-anchor="middle" x="252.44" y="-1052.82" font-family="Times,serif" font-size="14.00">dcam:domainIncludes</text>
</g>
<!-- http://spdx.org/rdf/terms#ListedLicense -->
<g id="node22" class="node">
<title>http://spdx.org/rdf/terms#ListedLicense</title>
<ellipse fill="none" stroke="#e377c2" cx="971.13" cy="-1275.91" rx="108.38" ry="16.03"/>
<text text-anchor="middle" x="971.13" y="-1272.21" font-family="Times,serif" font-size="14.00">spdx:ListedLicense</text>
</g>
<!-- http://w3id.org/oseg/ont/okh#spdxLicense -->
<g id="node23" class="node">
<title>http://w3id.org/oseg/ont/okh#spdxLicense</title>
<ellipse fill="none" stroke="#e377c2" cx="788.93" cy="-1023.64" rx="94.51" ry="16.03"/>
<text text-anchor="middle" x="788.93" y="-1019.94" font-family="Times,serif" font-size="14.00">okh:spdxLicense</text>
</g>
<!-- http://w3id.org/oseg/ont/okh#spdxLicense&#45;&gt;http://www.w3.org/2002/07/owl#ObjectProperty -->
<g id="edge23" class="edge">
<title>http://w3id.org/oseg/ont/okh#spdxLicense&#45;&gt;http://www.w3.org/2002/07/owl#ObjectProperty</title>
<path fill="none" stroke="black" d="M767.09,-1039.57C717.74,-1075.59 597.49,-1163.33 540.97,-1204.58"/>
<polygon fill="black" stroke="black" points="538.8,-1201.83 532.79,-1210.55 542.93,-1207.48 538.8,-1201.83"/>
<text text-anchor="middle" x="649.53" y="-1125.88" font-family="Times,serif" font-size="14.00">a</text>
</g>
<!-- http://w3id.org/oseg/ont/okh#spdxLicense&#45;&gt;http://www.w3.org/2004/02/skos/core#Concept -->
<g id="edge18" class="edge">
<title>http://w3id.org/oseg/ont/okh#spdxLicense&#45;&gt;http://www.w3.org/2004/02/skos/core#Concept</title>
<path fill="none" stroke="black" d="M800.6,-1007.32C833.02,-961.99 924.28,-834.41 962.74,-780.64"/>
<polygon fill="black" stroke="black" points="965.69,-782.54 968.66,-772.37 959.99,-778.47 965.69,-782.54"/>
<text text-anchor="middle" x="877.17" y="-897.78" font-family="Times,serif" font-size="14.00">a</text>
</g>
<!-- http://w3id.org/oseg/ont/okh#spdxLicense&#45;&gt;http://w3id.org/oseg/ont/okh#Module -->
<g id="edge1" class="edge">
<title>http://w3id.org/oseg/ont/okh#spdxLicense&#45;&gt;http://w3id.org/oseg/ont/okh#Module</title>
<path fill="none" stroke="black" d="M801.29,-1040.01C819.47,-1064.07 853.52,-1109.17 874.67,-1137.17"/>
<polygon fill="black" stroke="black" points="871.97,-1139.4 880.78,-1145.27 877.55,-1135.18 871.97,-1139.4"/>
<text text-anchor="middle" x="759.98" y="-1077.39" font-family="Times,serif" font-size="14.00">dcam:domainIncludes</text>
</g>
<!-- http://w3id.org/oseg/ont/okh#spdxLicense&#45;&gt;http://spdx.org/rdf/terms#ListedLicense -->
<g id="edge17" class="edge">
<title>http://w3id.org/oseg/ont/okh#spdxLicense&#45;&gt;http://spdx.org/rdf/terms#ListedLicense</title>
<path fill="none" stroke="black" d="M800.6,-1039.8C831.64,-1082.77 916.34,-1200.04 953.39,-1251.34"/>
<polygon fill="black" stroke="black" points="950.63,-1253.49 959.32,-1259.55 956.3,-1249.4 950.63,-1253.49"/>
<text text-anchor="middle" x="804.5" y="-1134.37" font-family="Times,serif" font-size="14.00">dcam:rangeIncludes</text>
</g>
<!-- http://w3id.org/oseg/ont/okh#license -->
<g id="node27" class="node">
<title>http://w3id.org/oseg/ont/okh#license</title>
<ellipse fill="none" stroke="#e377c2" cx="702.32" cy="-1215.83" rx="67.76" ry="16.03"/>
<text text-anchor="middle" x="702.32" y="-1212.13" font-family="Times,serif" font-size="14.00">okh:license</text>
</g>
<!-- http://w3id.org/oseg/ont/okh#spdxLicense&#45;&gt;http://w3id.org/oseg/ont/okh#license -->
<g id="edge22" class="edge">
<title>http://w3id.org/oseg/ont/okh#spdxLicense&#45;&gt;http://w3id.org/oseg/ont/okh#license</title>
<path fill="none" stroke="black" d="M781.55,-1040.02C766.43,-1073.57 731.86,-1150.27 713.8,-1190.36"/>
<polygon fill="black" stroke="black" points="710.6,-1188.93 709.68,-1199.48 716.98,-1191.81 710.6,-1188.93"/>
<text text-anchor="middle" x="667.67" y="-1103.99" font-family="Times,serif" font-size="14.00">schema:supersededBy</text>
</g>
<!-- http://schema.org/license -->
<g id="node30" class="node">
<title>http://schema.org/license</title>
<ellipse fill="none" stroke="#e377c2" cx="522.41" cy="-939.4" rx="88.28" ry="16.03"/>
<text text-anchor="middle" x="522.41" y="-935.7" font-family="Times,serif" font-size="14.00">schema:license</text>
</g>
<!-- http://w3id.org/oseg/ont/okh#spdxLicense&#45;&gt;http://schema.org/license -->
<g id="edge30" class="edge">
<title>http://w3id.org/oseg/ont/okh#spdxLicense&#45;&gt;http://schema.org/license</title>
<path fill="none" stroke="black" d="M743.42,-1009.25C697.37,-994.7 626.18,-972.2 577.1,-956.69"/>
<polygon fill="black" stroke="black" points="577.88,-953.26 567.29,-953.58 575.77,-959.93 577.88,-953.26"/>
<text text-anchor="middle" x="601.26" y="-986.77" font-family="Times,serif" font-size="14.00">skos:closeMatch</text>
</g>
<!-- http://w3id.org/oseg/ont/okhmetaLegalTag -->
<g id="node34" class="node">
<title>http://w3id.org/oseg/ont/okhmetaLegalTag</title>
<ellipse fill="none" stroke="#e377c2" cx="741.67" cy="-1283.36" rx="103.89" ry="16.03"/>
<text text-anchor="middle" x="741.67" y="-1279.66" font-family="Times,serif" font-size="14.00">okhmeta:LegalTag</text>
</g>
<!-- http://w3id.org/oseg/ont/okh#spdxLicense&#45;&gt;http://w3id.org/oseg/ont/okhmetaLegalTag -->
<g id="edge53" class="edge">
<title>http://w3id.org/oseg/ont/okh#spdxLicense&#45;&gt;http://w3id.org/oseg/ont/okhmetaLegalTag</title>
<path fill="none" stroke="black" d="M785.9,-1040.28C777.92,-1084.17 756.23,-1203.34 746.51,-1256.79"/>
<polygon fill="black" stroke="black" points="743.02,-1256.39 744.68,-1266.85 749.91,-1257.64 743.02,-1256.39"/>
<text text-anchor="middle" x="689.21" y="-1152.33" font-family="Times,serif" font-size="14.00">okhmeta:hasMetaTag</text>
</g>
<!-- http://w3id.org/oseg/ont/okh#fileUrl -->
<g id="node28" class="node">
<title>http://w3id.org/oseg/ont/okh#fileUrl</title>
<ellipse fill="none" stroke="#e377c2" cx="254.68" cy="-1169.08" rx="65.11" ry="16.03"/>
<text text-anchor="middle" x="254.68" y="-1165.38" font-family="Times,serif" font-size="14.00">okh:fileUrl</text>
</g>
<!-- http://w3id.org/oseg/ont/okh#fileUrl&#45;&gt;http://www.w3.org/2002/07/owl#ObjectProperty -->
<g id="edge25" class="edge">
<title>http://w3id.org/oseg/ont/okh#fileUrl&#45;&gt;http://www.w3.org/2002/07/owl#ObjectProperty</title>
<path fill="none" stroke="black" d="M303.13,-1179.98C341.86,-1188.7 396.69,-1201.04 440.26,-1210.85"/>
<polygon fill="black" stroke="black" points="439.7,-1214.31 450.23,-1213.09 441.24,-1207.48 439.7,-1214.31"/>
<text text-anchor="middle" x="367.2" y="-1199.22" font-family="Times,serif" font-size="14.00">a</text>
</g>
<!-- http://w3id.org/oseg/ont/okh#fileUrl&#45;&gt;http://schema.org/url -->
<g id="edge5" class="edge">
<title>http://w3id.org/oseg/ont/okh#fileUrl&#45;&gt;http://schema.org/url</title>
<path fill="none" stroke="black" d="M237.54,-1184.99C206.87,-1213.48 142.47,-1273.29 107.09,-1306.14"/>
<polygon fill="black" stroke="black" points="104.54,-1303.74 99.59,-1313.1 109.3,-1308.86 104.54,-1303.74"/>
<text text-anchor="middle" x="119.32" y="-1249.37" font-family="Times,serif" font-size="14.00">subPropertyOf</text>
</g>
<!-- http://w3id.org/oseg/ont/okh#fileUrl&#45;&gt;http://w3id.org/oseg/ont/okh#File -->
<g id="edge55" class="edge">
<title>http://w3id.org/oseg/ont/okh#fileUrl&#45;&gt;http://w3id.org/oseg/ont/okh#File</title>
<path fill="none" stroke="black" d="M268.23,-1152.95C295.23,-1120.81 355.85,-1048.63 387.4,-1011.07"/>
<polygon fill="black" stroke="black" points="390.28,-1013.08 394.03,-1003.17 384.92,-1008.58 390.28,-1013.08"/>
<text text-anchor="middle" x="249.82" y="-1070.81" font-family="Times,serif" font-size="14.00">dcam:domainIncludes</text>
</g>
<!-- http://w3id.org/oseg/ont/okh#url -->
<g id="node32" class="node">
<title>http://w3id.org/oseg/ont/okh#url</title>
<ellipse fill="none" stroke="#e377c2" cx="47.11" cy="-1210.44" rx="47.25" ry="16.03"/>
<text text-anchor="middle" x="47.11" y="-1206.74" font-family="Times,serif" font-size="14.00">okh:url</text>
</g>
<!-- http://w3id.org/oseg/ont/okh#fileUrl&#45;&gt;http://w3id.org/oseg/ont/okh#url -->
<g id="edge35" class="edge">
<title>http://w3id.org/oseg/ont/okh#fileUrl&#45;&gt;http://w3id.org/oseg/ont/okh#url</title>
<path fill="none" stroke="black" d="M203.64,-1179.25C171.57,-1185.64 130.37,-1193.85 98.28,-1200.24"/>
<polygon fill="black" stroke="black" points="97.33,-1196.86 88.21,-1202.25 98.7,-1203.73 97.33,-1196.86"/>
<text text-anchor="middle" x="70.96" y="-1178.55" font-family="Times,serif" font-size="14.00">schema:supersededBy</text>
</g>
<!-- http://w3id.org/oseg/ont/okh#openScad -->
<g id="node31" class="node">
<title>http://w3id.org/oseg/ont/okh#openScad</title>
<ellipse fill="none" stroke="#e377c2" cx="1841.39" cy="-167.82" rx="82.05" ry="16.03"/>
<text text-anchor="middle" x="1841.39" y="-164.12" font-family="Times,serif" font-size="14.00">okh:openScad</text>
</g>
<!-- http://w3id.org/oseg/ont/okh#openScad&#45;&gt;http://www.w3.org/2002/07/owl#DatatypeProperty -->
<g id="edge34" class="edge">
<title>http://w3id.org/oseg/ont/okh#openScad&#45;&gt;http://www.w3.org/2002/07/owl#DatatypeProperty</title>
<path fill="none" stroke="black" d="M1827.21,-184.13C1793.54,-222.83 1708.73,-320.34 1669.25,-365.72"/>
<polygon fill="black" stroke="black" points="1666.57,-363.47 1662.65,-373.31 1671.85,-368.06 1666.57,-363.47"/>
<text text-anchor="middle" x="1752.73" y="-278.73" font-family="Times,serif" font-size="14.00">a</text>
</g>
<!-- http://w3id.org/oseg/ont/okh#openScad&#45;&gt;http://w3id.org/oseg/ont/okh#openSCAD -->
<g id="edge4" class="edge">
<title>http://w3id.org/oseg/ont/okh#openScad&#45;&gt;http://w3id.org/oseg/ont/okh#openSCAD</title>
<path fill="none" stroke="black" d="M1804.22,-182.49C1768.45,-200.37 1715.22,-230.31 1683.06,-250.72"/>
<polygon fill="black" stroke="black" points="1681.07,-247.83 1674.57,-256.2 1684.87,-253.71 1681.07,-247.83"/>
<text text-anchor="middle" x="1783.64" y="-205.4" font-family="Times,serif" font-size="14.00">schema:supersededBy</text>
</g>
<!-- http://w3id.org/oseg/ont/okh#openScad&#45;&gt;http://w3id.org/oseg/ont/okh#openSCAD -->
<g id="edge11" class="edge">
<title>http://w3id.org/oseg/ont/okh#openScad&#45;&gt;http://w3id.org/oseg/ont/okh#openSCAD</title>
<path fill="none" stroke="black" d="M1822.26,-183.7C1794.06,-202.35 1740.61,-232.82 1701.77,-252.77"/>
<polygon fill="black" stroke="black" points="1700.07,-249.71 1692.74,-257.36 1703.24,-255.95 1700.07,-249.71"/>
<text text-anchor="middle" x="1804.52" y="-222.04" font-family="Times,serif" font-size="14.00">owl:sameAs</text>
</g>
<!-- http://w3id.org/oseg/ont/okh#installationGuide -->
<g id="node33" class="node">
<title>http://w3id.org/oseg/ont/okh#installationGuide</title>
<ellipse fill="none" stroke="#e377c2" cx="1256.84" cy="-520.47" rx="106.55" ry="16.03"/>
<text text-anchor="middle" x="1256.84" y="-516.77" font-family="Times,serif" font-size="14.00">okh:installationG...</text>
</g>
<!-- http://w3id.org/oseg/ont/okh#installationGuide&#45;&gt;http://www.w3.org/2002/07/owl#DatatypeProperty -->
<g id="edge36" class="edge">
<title>http://w3id.org/oseg/ont/okh#installationGuide&#45;&gt;http://www.w3.org/2002/07/owl#DatatypeProperty</title>
<path fill="none" stroke="black" d="M1301.38,-505.59C1373.38,-481.54 1515.13,-434.18 1593.36,-408.05"/>
<polygon fill="black" stroke="black" points="1594.66,-411.3 1603.04,-404.81 1592.44,-404.66 1594.66,-411.3"/>
<text text-anchor="middle" x="1442.87" y="-460.62" font-family="Times,serif" font-size="14.00">a</text>
</g>
<!-- http://w3id.org/oseg/ont/okh#installationGuide&#45;&gt;http://www.w3.org/2004/02/skos/core#Concept -->
<g id="edge38" class="edge">
<title>http://w3id.org/oseg/ont/okh#installationGuide&#45;&gt;http://www.w3.org/2004/02/skos/core#Concept</title>
<path fill="none" stroke="black" d="M1237.83,-536.68C1189.54,-577.83 1062.09,-686.46 1006.61,-733.74"/>
<polygon fill="black" stroke="black" points="1004.3,-731.11 998.96,-740.26 1008.84,-736.43 1004.3,-731.11"/>
<text text-anchor="middle" x="1117.72" y="-639.01" font-family="Times,serif" font-size="14.00">a</text>
</g>
<!-- http://w3id.org/oseg/ont/okh#installationGuide&#45;&gt;http://w3id.org/oseg/ont/okh#Software -->
<g id="edge2" class="edge">
<title>http://w3id.org/oseg/ont/okh#installationGuide&#45;&gt;http://w3id.org/oseg/ont/okh#Software</title>
<path fill="none" stroke="black" d="M1247.28,-504.05C1223.35,-462.97 1160.76,-355.5 1132.26,-306.56"/>
<polygon fill="black" stroke="black" points="1135.26,-304.75 1127.2,-297.87 1129.21,-308.27 1135.26,-304.75"/>
<text text-anchor="middle" x="1111.77" y="-409.11" font-family="Times,serif" font-size="14.00">dcam:domainIncludes</text>
</g>
<!-- http://w3id.org/oseg/ont/okh#relatedTsdc -->
<g id="node35" class="node">
<title>http://w3id.org/oseg/ont/okh#relatedTsdc</title>
<ellipse fill="none" stroke="#e377c2" cx="425.32" cy="-1542.09" rx="91.85" ry="16.03"/>
<text text-anchor="middle" x="425.32" y="-1538.39" font-family="Times,serif" font-size="14.00">okh:relatedTsdc</text>
</g>
<!-- http://w3id.org/oseg/ont/okh#relatedTsdc&#45;&gt;http://www.w3.org/2002/07/owl#ObjectProperty -->
<g id="edge40" class="edge">
<title>http://w3id.org/oseg/ont/okh#relatedTsdc&#45;&gt;http://www.w3.org/2002/07/owl#ObjectProperty</title>
<path fill="none" stroke="black" d="M429.78,-1525.58C443.73,-1474.06 486.52,-1315.95 503.56,-1252.98"/>
<polygon fill="black" stroke="black" points="507.01,-1253.61 506.25,-1243.04 500.26,-1251.78 507.01,-1253.61"/>
<text text-anchor="middle" x="462.17" y="-1393.08" font-family="Times,serif" font-size="14.00">a</text>
</g>
<!-- http://w3id.org/oseg/ont/okh#relatedTsdc&#45;&gt;http://w3id.org/oseg/ont/okh#tsdc -->
<g id="edge15" class="edge">
<title>http://w3id.org/oseg/ont/okh#relatedTsdc&#45;&gt;http://w3id.org/oseg/ont/okh#tsdc</title>
<path fill="none" stroke="black" d="M417.25,-1558.54C403.02,-1598.92 376.18,-1703.1 367.13,-1752.16"/>
<polygon fill="black" stroke="black" points="363.68,-1751.58 365.44,-1762.02 370.58,-1752.76 363.68,-1751.58"/>
<text text-anchor="middle" x="312.19" y="-1659.15" font-family="Times,serif" font-size="14.00">schema:supersededBy</text>
</g>
<!-- http://w3id.org/oseg/ont/okh#relatedTsdc&#45;&gt;http://w3id.org/oseg/ont/okh#tsdc -->
<g id="edge28" class="edge">
<title>http://w3id.org/oseg/ont/okh#relatedTsdc&#45;&gt;http://w3id.org/oseg/ont/okh#tsdc</title>
<path fill="none" stroke="black" d="M424.8,-1558.48C418.51,-1598.95 392.03,-1703.81 376.12,-1752.68"/>
<polygon fill="black" stroke="black" points="372.79,-1751.62 372.9,-1762.22 379.42,-1753.86 372.79,-1751.62"/>
<text text-anchor="middle" x="442.96" y="-1659.38" font-family="Times,serif" font-size="14.00">owl:sameAs</text>
</g>
<!-- http://w3id.org/oseg/ont/okh#hasMass -->
<g id="node37" class="node">
<title>http://w3id.org/oseg/ont/okh#hasMass</title>
<ellipse fill="none" stroke="#e377c2" cx="1717.54" cy="-779.16" rx="77.15" ry="16.03"/>
<text text-anchor="middle" x="1717.54" y="-775.46" font-family="Times,serif" font-size="14.00">okh:hasMass</text>
</g>
<!-- http://w3id.org/oseg/ont/okh#alternativeLicense -->
<g id="node39" class="node">
<title>http://w3id.org/oseg/ont/okh#alternativeLicense</title>
<ellipse fill="none" stroke="#e377c2" cx="716.9" cy="-980.69" rx="107.46" ry="16.03"/>
<text text-anchor="middle" x="716.9" y="-976.99" font-family="Times,serif" font-size="14.00">okh:alternativeLi...</text>
</g>
<!-- http://w3id.org/oseg/ont/okh#alternativeLicense&#45;&gt;http://www.w3.org/2002/07/owl#ObjectProperty -->
<g id="edge51" class="edge">
<title>http://w3id.org/oseg/ont/okh#alternativeLicense&#45;&gt;http://www.w3.org/2002/07/owl#ObjectProperty</title>
<path fill="none" stroke="black" d="M703.37,-996.83C667.97,-1039.05 572.5,-1152.94 530.71,-1202.79"/>
<polygon fill="black" stroke="black" points="528,-1200.58 524.25,-1210.49 533.36,-1205.08 528,-1200.58"/>
<text text-anchor="middle" x="612.54" y="-1088.61" font-family="Times,serif" font-size="14.00">a</text>
</g>
<!-- http://w3id.org/oseg/ont/okh#alternativeLicense&#45;&gt;http://www.w3.org/2004/02/skos/core#Concept -->
<g id="edge45" class="edge">
<title>http://w3id.org/oseg/ont/okh#alternativeLicense&#45;&gt;http://www.w3.org/2004/02/skos/core#Concept</title>
<path fill="none" stroke="black" d="M735.84,-964.55C782.04,-925.16 900.66,-824.05 953.77,-778.77"/>
<polygon fill="black" stroke="black" points="956.08,-781.41 961.42,-772.26 951.54,-776.08 956.08,-781.41"/>
<text text-anchor="middle" x="840.3" y="-875.46" font-family="Times,serif" font-size="14.00">a</text>
</g>
<!-- http://w3id.org/oseg/ont/okh#alternativeLicense&#45;&gt;http://w3id.org/oseg/ont/okh#Module -->
<g id="edge33" class="edge">
<title>http://w3id.org/oseg/ont/okh#alternativeLicense&#45;&gt;http://w3id.org/oseg/ont/okh#Module</title>
<path fill="none" stroke="black" d="M732.85,-997.06C764.26,-1029.3 834.18,-1101.1 870.4,-1138.28"/>
<polygon fill="black" stroke="black" points="868.11,-1140.94 877.6,-1145.67 873.13,-1136.06 868.11,-1140.94"/>
<text text-anchor="middle" x="723.63" y="-1056.47" font-family="Times,serif" font-size="14.00">dcam:domainIncludes</text>
</g>
<!-- http://w3id.org/oseg/ont/okh#alternativeLicense&#45;&gt;http://w3id.org/oseg/ont/okh#File -->
<g id="edge29" class="edge">
<title>http://w3id.org/oseg/ont/okh#alternativeLicense&#45;&gt;http://w3id.org/oseg/ont/okh#File</title>
<path fill="none" stroke="black" d="M610.37,-982.98C563.55,-983.98 510.18,-985.13 469.92,-986"/>
<polygon fill="black" stroke="black" points="469.64,-982.5 459.71,-986.21 469.79,-989.5 469.64,-982.5"/>
<text text-anchor="middle" x="540.14" y="-973.29" font-family="Times,serif" font-size="14.00">dcam:rangeIncludes</text>
</g>
<!-- http://w3id.org/oseg/ont/okh#alternativeLicense&#45;&gt;http://w3id.org/oseg/ont/okh#license -->
<g id="edge32" class="edge">
<title>http://w3id.org/oseg/ont/okh#alternativeLicense&#45;&gt;http://w3id.org/oseg/ont/okh#license</title>
<path fill="none" stroke="black" d="M715.88,-997.22C713.39,-1037.36 707.01,-1140.24 703.97,-1189.18"/>
<polygon fill="black" stroke="black" points="700.47,-1189.11 703.34,-1199.31 707.46,-1189.55 700.47,-1189.11"/>
<text text-anchor="middle" x="789.92" y="-1097" font-family="Times,serif" font-size="14.00">schema:supersededBy</text>
</g>
<!-- http://w3id.org/oseg/ont/okh#alternativeLicense&#45;&gt;http://schema.org/license -->
<g id="edge56" class="edge">
<title>http://w3id.org/oseg/ont/okh#alternativeLicense&#45;&gt;http://schema.org/license</title>
<path fill="none" stroke="black" d="M654.29,-967.39C633.96,-963.08 611.31,-958.27 590.6,-953.87"/>
<polygon fill="black" stroke="black" points="591.12,-950.41 580.61,-951.75 589.66,-957.25 591.12,-950.41"/>
<text text-anchor="middle" x="681.45" y="-949.43" font-family="Times,serif" font-size="14.00">skos:closeMatch</text>
</g>
<!-- http://w3id.org/oseg/ont/okh#alternativeLicense&#45;&gt;http://w3id.org/oseg/ont/okhmetaLegalTag -->
<g id="edge39" class="edge">
<title>http://w3id.org/oseg/ont/okh#alternativeLicense&#45;&gt;http://w3id.org/oseg/ont/okhmetaLegalTag</title>
<path fill="none" stroke="black" d="M718.23,-996.96C722.29,-1046.54 734.53,-1196.02 739.52,-1257.01"/>
<polygon fill="black" stroke="black" points="736.03,-1257.32 740.34,-1267 743.01,-1256.75 736.03,-1257.32"/>
<text text-anchor="middle" x="805.88" y="-1115.79" font-family="Times,serif" font-size="14.00">okhmeta:hasMetaTag</text>
</g>
<!-- http://w3id.org/oseg/ont/okh#unit -->
<g id="node40" class="node">
<title>http://w3id.org/oseg/ont/okh#unit</title>
<ellipse fill="none" stroke="#e377c2" cx="1430.04" cy="-543.71" rx="53.07" ry="16.03"/>
<text text-anchor="middle" x="1430.04" y="-540.01" font-family="Times,serif" font-size="14.00">okh:unit</text>
</g>
<!-- http://w3id.org/oseg/ont/okh#unit&#45;&gt;http://w3id.org/oseg/ont/okh#Mass -->
<g id="edge46" class="edge">
<title>http://w3id.org/oseg/ont/okh#unit&#45;&gt;http://w3id.org/oseg/ont/okh#Mass</title>
<path fill="none" stroke="black" d="M1417.35,-559.75C1392.69,-590.92 1338.2,-659.8 1309.06,-696.62"/>
<polygon fill="black" stroke="black" points="1306.03,-694.81 1302.57,-704.82 1311.52,-699.15 1306.03,-694.81"/>
<text text-anchor="middle" x="1285.2" y="-631.99" font-family="Times,serif" font-size="14.00">dcam:domainIncludes</text>
</g>
<!-- http://w3id.org/oseg/ont/okh#unit&#45;&gt;http://www.w3.org/2002/07/owl#DatatypeProperty -->
<g id="edge47" class="edge">
<title>http://w3id.org/oseg/ont/okh#unit&#45;&gt;http://www.w3.org/2002/07/owl#DatatypeProperty</title>
<path fill="none" stroke="black" d="M1451.38,-528.66C1490.2,-501.27 1572.51,-443.21 1617.5,-411.47"/>
<polygon fill="black" stroke="black" points="1619.56,-414.3 1625.71,-405.68 1615.52,-408.58 1619.56,-414.3"/>
<text text-anchor="middle" x="1529.94" y="-473.87" font-family="Times,serif" font-size="14.00">a</text>
</g>
<!-- http://w3id.org/oseg/ont/okh#unit&#45;&gt;http://w3id.org/oseg/ont/okh#Dimensions -->
<g id="edge19" class="edge">
<title>http://w3id.org/oseg/ont/okh#unit&#45;&gt;http://w3id.org/oseg/ont/okh#Dimensions</title>
<path fill="none" stroke="black" d="M1429.73,-527.1C1429.03,-489.83 1427.34,-399.24 1426.49,-354.04"/>
<polygon fill="black" stroke="black" points="1429.99,-353.78 1426.3,-343.84 1422.99,-353.91 1429.99,-353.78"/>
<text text-anchor="middle" x="1350.11" y="-444.37" font-family="Times,serif" font-size="14.00">dcam:domainIncludes</text>
</g>
<!-- http://w3id.org/oseg/ont/okh#value -->
<g id="node42" class="node">
<title>http://w3id.org/oseg/ont/okh#value</title>
<ellipse fill="none" stroke="#e377c2" cx="1530.07" cy="-656.7" rx="60.21" ry="16.03"/>
<text text-anchor="middle" x="1530.07" y="-653" font-family="Times,serif" font-size="14.00">okh:value</text>
</g>
<!-- http://w3id.org/oseg/ont/okh#value&#45;&gt;http://w3id.org/oseg/ont/okh#Mass -->
<g id="edge31" class="edge">
<title>http://w3id.org/oseg/ont/okh#value&#45;&gt;http://w3id.org/oseg/ont/okh#Mass</title>
<path fill="none" stroke="black" d="M1487.12,-668.19C1446.55,-679.04 1385.61,-695.34 1342.2,-706.95"/>
<polygon fill="black" stroke="black" points="1341.15,-703.6 1332.39,-709.57 1342.96,-710.37 1341.15,-703.6"/>
<text text-anchor="middle" x="1336.66" y="-691.37" font-family="Times,serif" font-size="14.00">dcam:domainIncludes</text>
</g>
<!-- http://w3id.org/oseg/ont/okh#value&#45;&gt;http://www.w3.org/2002/07/owl#DatatypeProperty -->
<g id="edge49" class="edge">
<title>http://w3id.org/oseg/ont/okh#value&#45;&gt;http://www.w3.org/2002/07/owl#DatatypeProperty</title>
<path fill="none" stroke="black" d="M1537.3,-640.4C1557.19,-595.51 1612.88,-469.86 1637.03,-415.38"/>
<polygon fill="black" stroke="black" points="1640.31,-416.63 1641.16,-406.07 1633.91,-413.8 1640.31,-416.63"/>
<text text-anchor="middle" x="1582.67" y="-531.69" font-family="Times,serif" font-size="14.00">a</text>
</g>
<!-- http://w3id.org/oseg/ont/okh#value&#45;&gt;http://w3id.org/oseg/ont/okh#hasMass -->
<g id="edge42" class="edge">
<title>http://w3id.org/oseg/ont/okh#value&#45;&gt;http://w3id.org/oseg/ont/okh#hasMass</title>
<path fill="none" stroke="black" d="M1553.44,-671.96C1586.6,-693.63 1647.47,-733.39 1685.03,-757.92"/>
<polygon fill="black" stroke="black" points="1683.3,-760.97 1693.59,-763.51 1687.13,-755.11 1683.3,-760.97"/>
<text text-anchor="middle" x="1539.23" y="-718.74" font-family="Times,serif" font-size="14.00">schema:supersededBy</text>
</g>
</g>
</svg>
