<?xml version="1.0" encoding="UTF-8" standalone="no"?>
<!DOCTYPE svg PUBLIC "-//W3C//DTD SVG 1.1//EN"
 "http://www.w3.org/Graphics/SVG/1.1/DTD/svg11.dtd">
<!-- Generated by graphviz version 2.43.0 (0)
 -->
<!-- Title: G Pages: 1 -->
<svg width="1650pt" height="1784pt"
 viewBox="0.00 0.00 1650.00 1784.00" xmlns="http://www.w3.org/2000/svg" xmlns:xlink="http://www.w3.org/1999/xlink">
<g id="graph0" class="graph" transform="scale(1 1) rotate(0) translate(4 1780)">
<title>G</title>
<polygon fill="white" stroke="transparent" points="-4,4 -4,-1780 1646,-1780 1646,4 -4,4"/>
<!-- https://w3id.org/oseg/ont/otrl#OTRL -->
<g id="node1" class="node">
<title>https://w3id.org/oseg/ont/otrl#OTRL</title>
<ellipse fill="none" stroke="#e377c2" cx="790.45" cy="-1176.05" rx="60.62" ry="16.03"/>
<text text-anchor="middle" x="790.45" y="-1172.35" font-family="Times,serif" font-size="14.00">otrl:OTRL</text>
</g>
<!-- http://spdx.org/rdf/terms#File -->
<g id="node2" class="node">
<title>http://spdx.org/rdf/terms#File</title>
<ellipse fill="none" stroke="#1f77b4" cx="1303.06" cy="-870.96" rx="62.45" ry="16.03"/>
<text text-anchor="middle" x="1303.06" y="-867.26" font-family="Times,serif" font-size="14.00">spdxt:File</text>
</g>
<!-- https://w3id.org/oseg/ont/otrl#OTRL2 -->
<g id="node3" class="node">
<title>https://w3id.org/oseg/ont/otrl#OTRL2</title>
<ellipse fill="none" stroke="#e377c2" cx="547.11" cy="-1205.24" rx="67.35" ry="16.03"/>
<text text-anchor="middle" x="547.11" y="-1201.54" font-family="Times,serif" font-size="14.00">otrl:OTRL2</text>
</g>
<!-- https://w3id.org/oseg/ont/otrl#OTRL2&#45;&gt;https://w3id.org/oseg/ont/otrl#OTRL -->
<g id="edge11" class="edge">
<title>https://w3id.org/oseg/ont/otrl#OTRL2&#45;&gt;https://w3id.org/oseg/ont/otrl#OTRL</title>
<path fill="none" stroke="black" d="M607.57,-1197.99C643.21,-1193.71 688.33,-1188.3 724.83,-1183.92"/>
<polygon fill="black" stroke="black" points="725.37,-1187.38 734.88,-1182.72 724.54,-1180.43 725.37,-1187.38"/>
</g>
<!-- https://w3id.org/oseg/ont/otrl#ODRL -->
<g id="node4" class="node">
<title>https://w3id.org/oseg/ont/otrl#ODRL</title>
<ellipse fill="none" stroke="#e377c2" cx="765.09" cy="-616.26" rx="62.87" ry="16.03"/>
<text text-anchor="middle" x="765.09" y="-612.56" font-family="Times,serif" font-size="14.00">otrl:ODRL</text>
</g>
<!-- https://w3id.org/oseg/ont/otrl#ODRL3 -->
<g id="node5" class="node">
<title>https://w3id.org/oseg/ont/otrl#ODRL3</title>
<ellipse fill="none" stroke="#e377c2" cx="564.33" cy="-462.12" rx="69.09" ry="16.03"/>
<text text-anchor="middle" x="564.33" y="-458.42" font-family="Times,serif" font-size="14.00">otrl:ODRL3</text>
</g>
<!-- https://w3id.org/oseg/ont/otrl#ODRL3&#45;&gt;https://w3id.org/oseg/ont/otrl#ODRL -->
<g id="edge14" class="edge">
<title>https://w3id.org/oseg/ont/otrl#ODRL3&#45;&gt;https://w3id.org/oseg/ont/otrl#ODRL</title>
<path fill="none" stroke="black" d="M584.69,-477.74C620.78,-505.46 696.04,-563.24 737.03,-594.71"/>
<polygon fill="black" stroke="black" points="734.92,-597.51 744.98,-600.82 739.18,-591.96 734.92,-597.51"/>
</g>
<!-- https://w3id.org/oseg/ont/otrl#OTRL5 -->
<g id="node6" class="node">
<title>https://w3id.org/oseg/ont/otrl#OTRL5</title>
<ellipse fill="none" stroke="#e377c2" cx="871.67" cy="-1401.13" rx="67.35" ry="16.03"/>
<text text-anchor="middle" x="871.67" y="-1397.43" font-family="Times,serif" font-size="14.00">otrl:OTRL5</text>
</g>
<!-- https://w3id.org/oseg/ont/otrl#OTRL5&#45;&gt;https://w3id.org/oseg/ont/otrl#OTRL -->
<g id="edge13" class="edge">
<title>https://w3id.org/oseg/ont/otrl#OTRL5&#45;&gt;https://w3id.org/oseg/ont/otrl#OTRL</title>
<path fill="none" stroke="black" d="M865.69,-1384.58C851.7,-1345.79 816.69,-1248.76 799.82,-1202.02"/>
<polygon fill="black" stroke="black" points="803.01,-1200.54 796.32,-1192.32 796.42,-1202.92 803.01,-1200.54"/>
</g>
<!-- https://w3id.org/oseg/ont/otrl#OTRL3 -->
<g id="node7" class="node">
<title>https://w3id.org/oseg/ont/otrl#OTRL3</title>
<ellipse fill="none" stroke="#e377c2" cx="974.86" cy="-1334.18" rx="67.35" ry="16.03"/>
<text text-anchor="middle" x="974.86" y="-1330.48" font-family="Times,serif" font-size="14.00">otrl:OTRL3</text>
</g>
<!-- https://w3id.org/oseg/ont/otrl#OTRL3&#45;&gt;https://w3id.org/oseg/ont/otrl#OTRL -->
<g id="edge22" class="edge">
<title>https://w3id.org/oseg/ont/otrl#OTRL3&#45;&gt;https://w3id.org/oseg/ont/otrl#OTRL</title>
<path fill="none" stroke="black" d="M956.51,-1318.44C923.64,-1290.26 854.66,-1231.11 816.77,-1198.62"/>
<polygon fill="black" stroke="black" points="818.6,-1195.58 808.73,-1191.73 814.05,-1200.89 818.6,-1195.58"/>
</g>
<!-- https://w3id.org/oseg/ont/otrl#ODRL2 -->
<g id="node8" class="node">
<title>https://w3id.org/oseg/ont/otrl#ODRL2</title>
<ellipse fill="none" stroke="#e377c2" cx="666.71" cy="-380.32" rx="69.09" ry="16.03"/>
<text text-anchor="middle" x="666.71" y="-376.62" font-family="Times,serif" font-size="14.00">otrl:ODRL2</text>
</g>
<!-- https://w3id.org/oseg/ont/otrl#ODRL2&#45;&gt;https://w3id.org/oseg/ont/otrl#ODRL -->
<g id="edge5" class="edge">
<title>https://w3id.org/oseg/ont/otrl#ODRL2&#45;&gt;https://w3id.org/oseg/ont/otrl#ODRL</title>
<path fill="none" stroke="black" d="M673.47,-396.54C690.29,-436.86 734.09,-541.92 754.43,-590.69"/>
<polygon fill="black" stroke="black" points="751.21,-592.05 758.28,-599.93 757.67,-589.36 751.21,-592.05"/>
</g>
<!-- https://w3id.org/oseg/ont/otrl#OTRL6 -->
<g id="node9" class="node">
<title>https://w3id.org/oseg/ont/otrl#OTRL6</title>
<ellipse fill="none" stroke="#e377c2" cx="1027.35" cy="-1224.34" rx="67.35" ry="16.03"/>
<text text-anchor="middle" x="1027.35" y="-1220.64" font-family="Times,serif" font-size="14.00">otrl:OTRL6</text>
</g>
<!-- https://w3id.org/oseg/ont/otrl#OTRL6&#45;&gt;https://w3id.org/oseg/ont/otrl#OTRL -->
<g id="edge50" class="edge">
<title>https://w3id.org/oseg/ont/otrl#OTRL6&#45;&gt;https://w3id.org/oseg/ont/otrl#OTRL</title>
<path fill="none" stroke="black" d="M975.94,-1213.86C938.59,-1206.25 887.98,-1195.93 849.06,-1188"/>
<polygon fill="black" stroke="black" points="849.42,-1184.5 838.92,-1185.93 848.02,-1191.36 849.42,-1184.5"/>
</g>
<!-- https://w3id.org/oseg/ont/otrl#ODRL4 -->
<g id="node10" class="node">
<title>https://w3id.org/oseg/ont/otrl#ODRL4</title>
<ellipse fill="none" stroke="#e377c2" cx="972.22" cy="-747.84" rx="69.09" ry="16.03"/>
<text text-anchor="middle" x="972.22" y="-744.14" font-family="Times,serif" font-size="14.00">otrl:ODRL4</text>
</g>
<!-- https://w3id.org/oseg/ont/otrl#ODRL4&#45;&gt;https://w3id.org/oseg/ont/otrl#ODRL -->
<g id="edge35" class="edge">
<title>https://w3id.org/oseg/ont/otrl#ODRL4&#45;&gt;https://w3id.org/oseg/ont/otrl#ODRL</title>
<path fill="none" stroke="black" d="M948.05,-732.49C910.87,-708.87 839.56,-663.57 797.8,-637.04"/>
<polygon fill="black" stroke="black" points="799.42,-633.93 789.11,-631.52 795.67,-639.83 799.42,-633.93"/>
</g>
<!-- https://w3id.org/oseg/ont/otrl#ODRL1 -->
<g id="node11" class="node">
<title>https://w3id.org/oseg/ont/otrl#ODRL1</title>
<ellipse fill="none" stroke="#e377c2" cx="813.18" cy="-339.6" rx="69.09" ry="16.03"/>
<text text-anchor="middle" x="813.18" y="-335.9" font-family="Times,serif" font-size="14.00">otrl:ODRL1</text>
</g>
<!-- https://w3id.org/oseg/ont/otrl#ODRL1&#45;&gt;https://w3id.org/oseg/ont/otrl#ODRL -->
<g id="edge24" class="edge">
<title>https://w3id.org/oseg/ont/otrl#ODRL1&#45;&gt;https://w3id.org/oseg/ont/otrl#ODRL</title>
<path fill="none" stroke="black" d="M810.31,-356.07C802.28,-402.3 779.48,-533.51 769.67,-589.94"/>
<polygon fill="black" stroke="black" points="766.21,-589.42 767.94,-599.87 773.1,-590.62 766.21,-589.42"/>
</g>
<!-- https://w3id.org/oseg/ont/otrl#ODRL3Star -->
<g id="node12" class="node">
<title>https://w3id.org/oseg/ont/otrl#ODRL3Star</title>
<ellipse fill="none" stroke="#e377c2" cx="925.95" cy="-441.76" rx="90.52" ry="16.03"/>
<text text-anchor="middle" x="925.95" y="-438.06" font-family="Times,serif" font-size="14.00">otrl:ODRL3Star</text>
</g>
<!-- https://w3id.org/oseg/ont/otrl#ODRL3Star&#45;&gt;https://w3id.org/oseg/ont/otrl#ODRL -->
<g id="edge2" class="edge">
<title>https://w3id.org/oseg/ont/otrl#ODRL3Star&#45;&gt;https://w3id.org/oseg/ont/otrl#ODRL</title>
<path fill="none" stroke="black" d="M911.11,-457.87C882.62,-488.77 820.16,-556.53 786.92,-592.59"/>
<polygon fill="black" stroke="black" points="784.11,-590.47 779.9,-600.2 789.25,-595.22 784.11,-590.47"/>
</g>
<!-- https://w3id.org/oseg/ont/otrl#OTRL1 -->
<g id="node13" class="node">
<title>https://w3id.org/oseg/ont/otrl#OTRL1</title>
<ellipse fill="none" stroke="#e377c2" cx="705.95" cy="-1401.3" rx="67.35" ry="16.03"/>
<text text-anchor="middle" x="705.95" y="-1397.6" font-family="Times,serif" font-size="14.00">otrl:OTRL1</text>
</g>
<!-- https://w3id.org/oseg/ont/otrl#OTRL1&#45;&gt;https://w3id.org/oseg/ont/otrl#OTRL -->
<g id="edge34" class="edge">
<title>https://w3id.org/oseg/ont/otrl#OTRL1&#45;&gt;https://w3id.org/oseg/ont/otrl#OTRL</title>
<path fill="none" stroke="black" d="M712.03,-1385.1C726.52,-1346.48 763.2,-1248.7 780.77,-1201.85"/>
<polygon fill="black" stroke="black" points="784.08,-1203 784.32,-1192.41 777.53,-1200.54 784.08,-1203"/>
</g>
<!-- https://w3id.org/oseg/ont/otrl#OTRL4 -->
<g id="node14" class="node">
<title>https://w3id.org/oseg/ont/otrl#OTRL4</title>
<ellipse fill="none" stroke="#e377c2" cx="598.11" cy="-1328.39" rx="67.35" ry="16.03"/>
<text text-anchor="middle" x="598.11" y="-1324.69" font-family="Times,serif" font-size="14.00">otrl:OTRL4</text>
</g>
<!-- https://w3id.org/oseg/ont/otrl#OTRL4&#45;&gt;https://w3id.org/oseg/ont/otrl#OTRL -->
<g id="edge43" class="edge">
<title>https://w3id.org/oseg/ont/otrl#OTRL4&#45;&gt;https://w3id.org/oseg/ont/otrl#OTRL</title>
<path fill="none" stroke="black" d="M617.97,-1312.66C652.56,-1285.26 723.91,-1228.76 763.13,-1197.69"/>
<polygon fill="black" stroke="black" points="765.32,-1200.42 770.99,-1191.47 760.97,-1194.93 765.32,-1200.42"/>
</g>
<!-- https://w3id.org/oseg/ont/otrl#goal -->
<g id="node15" class="node">
<title>https://w3id.org/oseg/ont/otrl#goal</title>
<ellipse fill="none" stroke="#e377c2" cx="734.53" cy="-894.53" rx="54.39" ry="16.03"/>
<text text-anchor="middle" x="734.53" y="-890.83" font-family="Times,serif" font-size="14.00">otrl:goal</text>
</g>
<!-- https://w3id.org/oseg/ont/otrl#goal&#45;&gt;https://w3id.org/oseg/ont/otrl#OTRL -->
<g id="edge7" class="edge">
<title>https://w3id.org/oseg/ont/otrl#goal&#45;&gt;https://w3id.org/oseg/ont/otrl#OTRL</title>
<path fill="none" stroke="black" d="M737.78,-910.89C747.06,-957.63 773.78,-1092.14 785.19,-1149.56"/>
<polygon fill="black" stroke="black" points="781.81,-1150.53 787.19,-1159.65 788.68,-1149.16 781.81,-1150.53"/>
<text text-anchor="middle" x="675.48" y="-1034.02" font-family="Times,serif" font-size="14.00">schema:domainIncludes</text>
</g>
<!-- https://w3id.org/oseg/ont/otrl#goal&#45;&gt;https://w3id.org/oseg/ont/otrl#ODRL -->
<g id="edge12" class="edge">
<title>https://w3id.org/oseg/ont/otrl#goal&#45;&gt;https://w3id.org/oseg/ont/otrl#ODRL</title>
<path fill="none" stroke="black" d="M736.35,-877.96C741.46,-831.46 755.95,-699.5 762.19,-642.74"/>
<polygon fill="black" stroke="black" points="765.67,-643.07 763.28,-632.75 758.71,-642.31 765.67,-643.07"/>
<text text-anchor="middle" x="663.27" y="-764.15" font-family="Times,serif" font-size="14.00">schema:domainIncludes</text>
</g>
<!-- http://schema.org/Text -->
<g id="node16" class="node">
<title>http://schema.org/Text</title>
<ellipse fill="none" stroke="#e377c2" cx="663" cy="-852.99" rx="74.91" ry="16.03"/>
<text text-anchor="middle" x="663" y="-849.29" font-family="Times,serif" font-size="14.00">schema:Text</text>
</g>
<!-- https://w3id.org/oseg/ont/otrl#goal&#45;&gt;http://schema.org/Text -->
<g id="edge8" class="edge">
<title>https://w3id.org/oseg/ont/otrl#goal&#45;&gt;http://schema.org/Text</title>
<path fill="none" stroke="black" d="M709.51,-880C705.89,-877.9 702.1,-875.7 698.32,-873.5"/>
<polygon fill="black" stroke="black" points="699.99,-870.42 689.59,-868.43 696.47,-876.48 699.99,-870.42"/>
<text text-anchor="middle" x="724.91" y="-865.55" font-family="Times,serif" font-size="14.00">range</text>
</g>
<!-- https://w3id.org/oseg/ont/otrl#Odrl4 -->
<g id="node17" class="node">
<title>https://w3id.org/oseg/ont/otrl#Odrl4</title>
<ellipse fill="none" stroke="#e377c2" cx="1091.93" cy="-954.93" rx="61.54" ry="16.03"/>
<text text-anchor="middle" x="1091.93" y="-951.23" font-family="Times,serif" font-size="14.00">otrl:Odrl4</text>
</g>
<!-- https://w3id.org/oseg/ont/otrl#Odrl4&#45;&gt;https://w3id.org/oseg/ont/otrl#ODRL4 -->
<g id="edge10" class="edge">
<title>https://w3id.org/oseg/ont/otrl#Odrl4&#45;&gt;https://w3id.org/oseg/ont/otrl#ODRL4</title>
<path fill="none" stroke="black" d="M1086.69,-938.53C1069.99,-902.2 1020,-815.03 991.78,-772.26"/>
<polygon fill="black" stroke="black" points="994.6,-770.18 986.11,-763.84 988.79,-774.09 994.6,-770.18"/>
<text text-anchor="middle" x="996.74" y="-844.2" font-family="Times,serif" font-size="14.00">owl:sameAs</text>
</g>
<!-- https://w3id.org/oseg/ont/otrl#Odrl4&#45;&gt;https://w3id.org/oseg/ont/otrl#ODRL4 -->
<g id="edge32" class="edge">
<title>https://w3id.org/oseg/ont/otrl#Odrl4&#45;&gt;https://w3id.org/oseg/ont/otrl#ODRL4</title>
<path fill="none" stroke="black" d="M1078.04,-938.92C1053.33,-903.15 1003.2,-816.72 981.85,-773.41"/>
<polygon fill="black" stroke="black" points="984.88,-771.63 977.41,-764.11 978.56,-774.65 984.88,-771.63"/>
<text text-anchor="middle" x="1109.95" y="-859.96" font-family="Times,serif" font-size="14.00">schema:supersededBy</text>
</g>
<!-- https://w3id.org/oseg/ont/oseg&#45;profiles#robinVobruba -->
<g id="node18" class="node">
<title>https://w3id.org/oseg/ont/oseg&#45;profiles#robinVobruba</title>
<ellipse fill="none" stroke="#e377c2" cx="1328.05" cy="-741.76" rx="113.69" ry="16.03"/>
<text text-anchor="middle" x="1328.05" y="-738.06" font-family="Times,serif" font-size="14.00">osegprof:robinVob...</text>
</g>
<!-- https://w3id.org/oseg/ont/oseg&#45;profiles#martinHaeuer -->
<g id="node19" class="node">
<title>https://w3id.org/oseg/ont/oseg&#45;profiles#martinHaeuer</title>
<ellipse fill="none" stroke="#e377c2" cx="1284.22" cy="-650.07" rx="116.85" ry="16.03"/>
<text text-anchor="middle" x="1284.22" y="-646.37" font-family="Times,serif" font-size="14.00">osegprof:martinHa...</text>
</g>
<!-- https://w3id.org/oseg/ont/otrl -->
<g id="node20" class="node">
<title>https://w3id.org/oseg/ont/otrl</title>
<ellipse fill="none" stroke="#e377c2" cx="1297.6" cy="-700.16" rx="50.82" ry="16.03"/>
<text text-anchor="middle" x="1297.6" y="-696.46" font-family="Times,serif" font-size="14.00">ns1:otrl</text>
</g>
<!-- https://w3id.org/oseg/ont/otrl&#45;&gt;http://spdx.org/rdf/terms#File -->
<g id="edge21" class="edge">
<title>https://w3id.org/oseg/ont/otrl&#45;&gt;http://spdx.org/rdf/terms#File</title>
<path fill="none" stroke="black" d="M1298.12,-716.54C1299.07,-746.12 1301.07,-808.72 1302.21,-844.46"/>
<polygon fill="black" stroke="black" points="1298.72,-844.75 1302.54,-854.63 1305.72,-844.52 1298.72,-844.75"/>
<text text-anchor="middle" x="1295.67" y="-784.3" font-family="Times,serif" font-size="14.00">a</text>
</g>
<!-- https://w3id.org/oseg/ont/otrl&#45;&gt;https://w3id.org/oseg/ont/oseg&#45;profiles#robinVobruba -->
<g id="edge19" class="edge">
<title>https://w3id.org/oseg/ont/otrl&#45;&gt;https://w3id.org/oseg/ont/oseg&#45;profiles#robinVobruba</title>
<path fill="none" stroke="black" d="M1301.84,-716.57C1301.95,-716.76 1302.06,-716.95 1302.17,-717.13"/>
<polygon fill="black" stroke="black" points="1299.38,-719.26 1307.86,-725.6 1305.19,-715.35 1299.38,-719.26"/>
<text text-anchor="middle" x="1246.51" y="-720.65" font-family="Times,serif" font-size="14.00">schema:creator</text>
</g>
<!-- https://w3id.org/oseg/ont/otrl&#45;&gt;https://w3id.org/oseg/ont/oseg&#45;profiles#robinVobruba -->
<g id="edge46" class="edge">
<title>https://w3id.org/oseg/ont/otrl&#45;&gt;https://w3id.org/oseg/ont/oseg&#45;profiles#robinVobruba</title>
<path fill="none" stroke="black" d="M1317.19,-715.52C1317.49,-715.92 1317.79,-716.32 1318.09,-716.72"/>
<polygon fill="black" stroke="black" points="1315.33,-718.9 1323.78,-725.29 1321.16,-715.03 1315.33,-718.9"/>
<text text-anchor="middle" x="1375.14" y="-704.92" font-family="Times,serif" font-size="14.00">dcterms:creator</text>
</g>
<!-- https://w3id.org/oseg/ont/otrl&#45;&gt;https://w3id.org/oseg/ont/oseg&#45;profiles#martinHaeuer -->
<g id="edge20" class="edge">
<title>https://w3id.org/oseg/ont/otrl&#45;&gt;https://w3id.org/oseg/ont/oseg&#45;profiles#martinHaeuer</title>
<path fill="none" stroke="black" d="M1299.66,-683.8C1299.28,-681.36 1298.77,-678.79 1298.15,-676.21"/>
<polygon fill="black" stroke="black" points="1301.46,-675.05 1295.32,-666.41 1294.73,-676.99 1301.46,-675.05"/>
<text text-anchor="middle" x="1356.41" y="-668.8" font-family="Times,serif" font-size="14.00">dcterms:creator</text>
</g>
<!-- https://w3id.org/oseg/ont/otrl&#45;&gt;https://w3id.org/oseg/ont/oseg&#45;profiles#martinHaeuer -->
<g id="edge44" class="edge">
<title>https://w3id.org/oseg/ont/otrl&#45;&gt;https://w3id.org/oseg/ont/oseg&#45;profiles#martinHaeuer</title>
<path fill="none" stroke="black" d="M1286.57,-684.03C1285.73,-681.57 1284.94,-678.98 1284.26,-676.36"/>
<polygon fill="black" stroke="black" points="1287.65,-675.5 1282.16,-666.44 1280.81,-676.95 1287.65,-675.5"/>
<text text-anchor="middle" x="1229.92" y="-669" font-family="Times,serif" font-size="14.00">schema:creator</text>
</g>
<!-- https://spdx.org/licenses/GPL&#45;3.0&#45;or&#45;later -->
<g id="node21" class="node">
<title>https://spdx.org/licenses/GPL&#45;3.0&#45;or&#45;later</title>
<ellipse fill="none" stroke="#e377c2" cx="1532.89" cy="-696.49" rx="108.79" ry="16.03"/>
<text text-anchor="middle" x="1532.89" y="-692.79" font-family="Times,serif" font-size="14.00">spdxl:GPL&#45;3.0&#45;or&#45;...</text>
</g>
<!-- https://w3id.org/oseg/ont/otrl&#45;&gt;https://spdx.org/licenses/GPL&#45;3.0&#45;or&#45;later -->
<g id="edge27" class="edge">
<title>https://w3id.org/oseg/ont/otrl&#45;&gt;https://spdx.org/licenses/GPL&#45;3.0&#45;or&#45;later</title>
<path fill="none" stroke="black" d="M1348.65,-699.36C1368.08,-699.06 1391.12,-698.7 1414.21,-698.34"/>
<polygon fill="black" stroke="black" points="1414.51,-701.84 1424.46,-698.18 1414.4,-694.84 1414.51,-701.84"/>
<text text-anchor="middle" x="1381.43" y="-687.65" font-family="Times,serif" font-size="14.00">spdxt:licenseDeclared</text>
</g>
<!-- http://id.loc.gov/vocabulary/iso639&#45;1/en -->
<g id="node22" class="node">
<title>http://id.loc.gov/vocabulary/iso639&#45;1/en</title>
<ellipse fill="none" stroke="#e377c2" cx="1143.11" cy="-729.46" rx="45.01" ry="16.03"/>
<text text-anchor="middle" x="1143.11" y="-725.76" font-family="Times,serif" font-size="14.00">ns2:en</text>
</g>
<!-- https://w3id.org/oseg/ont/otrl&#45;&gt;http://id.loc.gov/vocabulary/iso639&#45;1/en -->
<g id="edge38" class="edge">
<title>https://w3id.org/oseg/ont/otrl&#45;&gt;http://id.loc.gov/vocabulary/iso639&#45;1/en</title>
<path fill="none" stroke="black" d="M1253.74,-708.48C1234.9,-712.05 1212.78,-716.25 1193.29,-719.95"/>
<polygon fill="black" stroke="black" points="1192.54,-716.53 1183.37,-721.83 1193.85,-723.4 1192.54,-716.53"/>
<text text-anchor="middle" x="1159.02" y="-703.01" font-family="Times,serif" font-size="14.00">dcterms:language</text>
</g>
<!-- https://w3id.org/oseg/ont/oseg&#45;profiles#Iopa -->
<g id="node24" class="node">
<title>https://w3id.org/oseg/ont/oseg&#45;profiles#Iopa</title>
<ellipse fill="none" stroke="#e377c2" cx="1160.34" cy="-564.5" rx="80.72" ry="16.03"/>
<text text-anchor="middle" x="1160.34" y="-560.8" font-family="Times,serif" font-size="14.00">osegprof:Iopa</text>
</g>
<!-- https://w3id.org/oseg/ont/otrl&#45;&gt;https://w3id.org/oseg/ont/oseg&#45;profiles#Iopa -->
<g id="edge40" class="edge">
<title>https://w3id.org/oseg/ont/otrl&#45;&gt;https://w3id.org/oseg/ont/oseg&#45;profiles#Iopa</title>
<path fill="none" stroke="black" d="M1281.85,-684.6C1257.91,-660.93 1212.18,-615.73 1184.16,-588.03"/>
<polygon fill="black" stroke="black" points="1186.33,-585.26 1176.76,-580.72 1181.41,-590.24 1186.33,-585.26"/>
<text text-anchor="middle" x="1167.51" y="-625.12" font-family="Times,serif" font-size="14.00">dcterms:publisher</text>
</g>
<!-- https://w3id.org/oseg/ont/1.1.0/otrl -->
<g id="node25" class="node">
<title>https://w3id.org/oseg/ont/1.1.0/otrl</title>
<ellipse fill="none" stroke="#e377c2" cx="1385.36" cy="-556.08" rx="50.82" ry="16.03"/>
<text text-anchor="middle" x="1385.36" y="-552.38" font-family="Times,serif" font-size="14.00">ns3:otrl</text>
</g>
<!-- https://w3id.org/oseg/ont/otrl&#45;&gt;https://w3id.org/oseg/ont/1.1.0/otrl -->
<g id="edge47" class="edge">
<title>https://w3id.org/oseg/ont/otrl&#45;&gt;https://w3id.org/oseg/ont/1.1.0/otrl</title>
<path fill="none" stroke="black" d="M1307.33,-684.19C1322.55,-659.2 1352.12,-610.65 1370.17,-581.02"/>
<polygon fill="black" stroke="black" points="1373.38,-582.49 1375.59,-572.12 1367.4,-578.84 1373.38,-582.49"/>
<text text-anchor="middle" x="1287.25" y="-621.41" font-family="Times,serif" font-size="14.00">owl:versionIRI</text>
</g>
<!-- https://w3id.org/oseg/ont/otrl#exitCriteria -->
<g id="node23" class="node">
<title>https://w3id.org/oseg/ont/otrl#exitCriteria</title>
<ellipse fill="none" stroke="#e377c2" cx="895.74" cy="-886.69" rx="91.43" ry="16.03"/>
<text text-anchor="middle" x="895.74" y="-882.99" font-family="Times,serif" font-size="14.00">otrl:exitCriteria</text>
</g>
<!-- https://w3id.org/oseg/ont/otrl#exitCriteria&#45;&gt;https://w3id.org/oseg/ont/otrl#OTRL -->
<g id="edge23" class="edge">
<title>https://w3id.org/oseg/ont/otrl#exitCriteria&#45;&gt;https://w3id.org/oseg/ont/otrl#OTRL</title>
<path fill="none" stroke="black" d="M889.78,-903.07C872.3,-951.12 821.07,-1091.92 799.83,-1150.26"/>
<polygon fill="black" stroke="black" points="796.48,-1149.25 796.35,-1159.84 803.06,-1151.64 796.48,-1149.25"/>
<text text-anchor="middle" x="758.81" y="-1015.47" font-family="Times,serif" font-size="14.00">schema:domainIncludes</text>
</g>
<!-- https://w3id.org/oseg/ont/otrl#exitCriteria&#45;&gt;https://w3id.org/oseg/ont/otrl#ODRL -->
<g id="edge26" class="edge">
<title>https://w3id.org/oseg/ont/otrl#exitCriteria&#45;&gt;https://w3id.org/oseg/ont/otrl#ODRL</title>
<path fill="none" stroke="black" d="M887.77,-870.18C865.71,-824.53 803.79,-696.36 777.33,-641.59"/>
<polygon fill="black" stroke="black" points="780.47,-640.04 772.97,-632.56 774.16,-643.08 780.47,-640.04"/>
<text text-anchor="middle" x="746.55" y="-744.69" font-family="Times,serif" font-size="14.00">schema:domainIncludes</text>
</g>
<!-- https://w3id.org/oseg/ont/otrl#exitCriteria&#45;&gt;http://schema.org/Text -->
<g id="edge54" class="edge">
<title>https://w3id.org/oseg/ont/otrl#exitCriteria&#45;&gt;http://schema.org/Text</title>
<path fill="none" stroke="black" d="M824.65,-876.39C796.43,-872.31 764.01,-867.61 735.64,-863.5"/>
<polygon fill="black" stroke="black" points="735.79,-859.99 725.39,-862.02 734.78,-866.92 735.79,-859.99"/>
<text text-anchor="middle" x="801.14" y="-858.75" font-family="Times,serif" font-size="14.00">range</text>
</g>
<!-- https://w3id.org/oseg/ont/otrl#Odrl -->
<g id="node26" class="node">
<title>https://w3id.org/oseg/ont/otrl#Odrl</title>
<ellipse fill="none" stroke="black" cx="417.24" cy="-514.86" rx="190.42" ry="16.03"/>
<text text-anchor="middle" x="417.24" y="-511.16" font-family="Times,serif" font-size="14.00">https://w3id.org/oseg/ont/otrl#Odrl</text>
</g>
<!-- https://w3id.org/oseg/ont/otrl#Odrl&#45;&gt;https://w3id.org/oseg/ont/otrl#ODRL -->
<g id="edge1" class="edge">
<title>https://w3id.org/oseg/ont/otrl#Odrl&#45;&gt;https://w3id.org/oseg/ont/otrl#ODRL</title>
<path fill="none" stroke="black" d="M455.89,-530.81C516.14,-551.23 632.93,-585.53 704.46,-604.03"/>
<polygon fill="black" stroke="black" points="703.69,-607.44 714.25,-606.53 705.43,-600.66 703.69,-607.44"/>
<text text-anchor="middle" x="500.18" y="-571.22" font-family="Times,serif" font-size="14.00">schema:supersededBy</text>
</g>
<!-- https://w3id.org/oseg/ont/otrl#Odrl&#45;&gt;https://w3id.org/oseg/ont/otrl#ODRL -->
<g id="edge45" class="edge">
<title>https://w3id.org/oseg/ont/otrl#Odrl&#45;&gt;https://w3id.org/oseg/ont/otrl#ODRL</title>
<path fill="none" stroke="black" d="M488.77,-529.95C559.24,-548.54 664.56,-579.55 722.71,-599.06"/>
<polygon fill="black" stroke="black" points="721.72,-602.42 732.31,-602.32 723.97,-595.79 721.72,-602.42"/>
<text text-anchor="middle" x="563.24" y="-553.3" font-family="Times,serif" font-size="14.00">owl:sameAs</text>
</g>
<!-- https://w3id.org/oseg/ont/otrl#Otrl4 -->
<g id="node27" class="node">
<title>https://w3id.org/oseg/ont/otrl#Otrl4</title>
<ellipse fill="none" stroke="black" cx="331" cy="-1581.03" rx="194.41" ry="16.03"/>
<text text-anchor="middle" x="331" y="-1577.33" font-family="Times,serif" font-size="14.00">https://w3id.org/oseg/ont/otrl#Otrl4</text>
</g>
<!-- https://w3id.org/oseg/ont/otrl#Otrl4&#45;&gt;https://w3id.org/oseg/ont/otrl#OTRL4 -->
<g id="edge3" class="edge">
<title>https://w3id.org/oseg/ont/otrl#Otrl4&#45;&gt;https://w3id.org/oseg/ont/otrl#OTRL4</title>
<path fill="none" stroke="black" d="M353.67,-1564.79C405.31,-1521.34 530.53,-1402.97 578.8,-1352.06"/>
<polygon fill="black" stroke="black" points="581.6,-1354.19 585.86,-1344.49 576.48,-1349.42 581.6,-1354.19"/>
<text text-anchor="middle" x="386.23" y="-1462.22" font-family="Times,serif" font-size="14.00">schema:supersededBy</text>
</g>
<!-- https://w3id.org/oseg/ont/otrl#Otrl4&#45;&gt;https://w3id.org/oseg/ont/otrl#OTRL4 -->
<g id="edge48" class="edge">
<title>https://w3id.org/oseg/ont/otrl#Otrl4&#45;&gt;https://w3id.org/oseg/ont/otrl#OTRL4</title>
<path fill="none" stroke="black" d="M343.47,-1564.69C383.79,-1520.69 510.54,-1400.38 568.62,-1350.44"/>
<polygon fill="black" stroke="black" points="570.99,-1353.02 576.35,-1343.88 566.46,-1347.69 570.99,-1353.02"/>
<text text-anchor="middle" x="413.55" y="-1446.37" font-family="Times,serif" font-size="14.00">owl:sameAs</text>
</g>
<!-- https://w3id.org/oseg/ont/otrl#Odrl2 -->
<g id="node28" class="node">
<title>https://w3id.org/oseg/ont/otrl#Odrl2</title>
<ellipse fill="none" stroke="black" cx="576.86" cy="-15.79" rx="196.65" ry="16.03"/>
<text text-anchor="middle" x="576.86" y="-12.09" font-family="Times,serif" font-size="14.00">https://w3id.org/oseg/ont/otrl#Odrl2</text>
</g>
<!-- https://w3id.org/oseg/ont/otrl#Odrl2&#45;&gt;https://w3id.org/oseg/ont/otrl#ODRL2 -->
<g id="edge4" class="edge">
<title>https://w3id.org/oseg/ont/otrl#Odrl2&#45;&gt;https://w3id.org/oseg/ont/otrl#ODRL2</title>
<path fill="none" stroke="black" d="M577.85,-32.16C587.12,-89.69 634.44,-282.84 656.3,-353.85"/>
<polygon fill="black" stroke="black" points="653.09,-355.31 659.46,-363.78 659.76,-353.19 653.09,-355.31"/>
<text text-anchor="middle" x="574.58" y="-196.8" font-family="Times,serif" font-size="14.00">owl:sameAs</text>
</g>
<!-- https://w3id.org/oseg/ont/otrl#Odrl2&#45;&gt;https://w3id.org/oseg/ont/otrl#ODRL2 -->
<g id="edge25" class="edge">
<title>https://w3id.org/oseg/ont/otrl#Odrl2&#45;&gt;https://w3id.org/oseg/ont/otrl#ODRL2</title>
<path fill="none" stroke="black" d="M584.06,-32.15C603.07,-89.67 650.9,-282.87 663.96,-353.87"/>
<polygon fill="black" stroke="black" points="660.53,-354.55 665.69,-363.8 667.43,-353.35 660.53,-354.55"/>
<text text-anchor="middle" x="704.01" y="-196.81" font-family="Times,serif" font-size="14.00">schema:supersededBy</text>
</g>
<!-- https://w3id.org/oseg/ont/otrl#Odrl3 -->
<g id="node29" class="node">
<title>https://w3id.org/oseg/ont/otrl#Odrl3</title>
<ellipse fill="none" stroke="black" cx="285.58" cy="-216.58" rx="196.65" ry="16.03"/>
<text text-anchor="middle" x="285.58" y="-212.88" font-family="Times,serif" font-size="14.00">https://w3id.org/oseg/ont/otrl#Odrl3</text>
</g>
<!-- https://w3id.org/oseg/ont/otrl#Odrl3&#45;&gt;https://w3id.org/oseg/ont/otrl#ODRL3 -->
<g id="edge6" class="edge">
<title>https://w3id.org/oseg/ont/otrl#Odrl3&#45;&gt;https://w3id.org/oseg/ont/otrl#ODRL3</title>
<path fill="none" stroke="black" d="M299.16,-232.99C341.7,-276.07 472.47,-391.68 533.04,-440.27"/>
<polygon fill="black" stroke="black" points="531.09,-443.19 541.1,-446.66 535.44,-437.71 531.09,-443.19"/>
<text text-anchor="middle" x="336.1" y="-340.43" font-family="Times,serif" font-size="14.00">schema:supersededBy</text>
</g>
<!-- https://w3id.org/oseg/ont/otrl#Odrl3&#45;&gt;https://w3id.org/oseg/ont/otrl#ODRL3 -->
<g id="edge49" class="edge">
<title>https://w3id.org/oseg/ont/otrl#Odrl3&#45;&gt;https://w3id.org/oseg/ont/otrl#ODRL3</title>
<path fill="none" stroke="black" d="M309.99,-232.97C364.19,-275.58 493.38,-389.34 543.79,-438.77"/>
<polygon fill="black" stroke="black" points="541.62,-441.56 551.18,-446.14 546.56,-436.6 541.62,-441.56"/>
<text text-anchor="middle" x="384.39" y="-324.67" font-family="Times,serif" font-size="14.00">owl:sameAs</text>
</g>
<!-- https://w3id.org/oseg/ont/otrl#Otrl1 -->
<g id="node30" class="node">
<title>https://w3id.org/oseg/ont/otrl#Otrl1</title>
<ellipse fill="none" stroke="black" cx="602.86" cy="-1760.19" rx="194.41" ry="16.03"/>
<text text-anchor="middle" x="602.86" y="-1756.49" font-family="Times,serif" font-size="14.00">https://w3id.org/oseg/ont/otrl#Otrl1</text>
</g>
<!-- https://w3id.org/oseg/ont/otrl#Otrl1&#45;&gt;https://w3id.org/oseg/ont/otrl#OTRL1 -->
<g id="edge9" class="edge">
<title>https://w3id.org/oseg/ont/otrl#Otrl1&#45;&gt;https://w3id.org/oseg/ont/otrl#OTRL1</title>
<path fill="none" stroke="black" d="M610.82,-1743.74C632.01,-1686.81 686.46,-1497.96 702.17,-1427.82"/>
<polygon fill="black" stroke="black" points="705.68,-1428.13 704.35,-1417.62 698.84,-1426.67 705.68,-1428.13"/>
<text text-anchor="middle" x="736.49" y="-1589.58" font-family="Times,serif" font-size="14.00">schema:supersededBy</text>
</g>
<!-- https://w3id.org/oseg/ont/otrl#Otrl1&#45;&gt;https://w3id.org/oseg/ont/otrl#OTRL1 -->
<g id="edge39" class="edge">
<title>https://w3id.org/oseg/ont/otrl#Otrl1&#45;&gt;https://w3id.org/oseg/ont/otrl#OTRL1</title>
<path fill="none" stroke="black" d="M604.54,-1743.48C616.09,-1686.17 670.03,-1497.43 694.46,-1427.58"/>
<polygon fill="black" stroke="black" points="697.89,-1428.39 697.98,-1417.8 691.3,-1426.02 697.89,-1428.39"/>
<text text-anchor="middle" x="607" y="-1589.33" font-family="Times,serif" font-size="14.00">owl:sameAs</text>
</g>
<!-- https://w3id.org/oseg/ont/otrl#Odrl5 -->
<g id="node31" class="node">
<title>https://w3id.org/oseg/ont/otrl#Odrl5</title>
<ellipse fill="none" stroke="black" cx="1111.14" cy="-999.88" rx="196.65" ry="16.03"/>
<text text-anchor="middle" x="1111.14" y="-996.18" font-family="Times,serif" font-size="14.00">https://w3id.org/oseg/ont/otrl#Odrl5</text>
</g>
<!-- https://w3id.org/oseg/ont/otrl#Odrl5&#45;&gt;https://w3id.org/oseg/ont/otrl#Odrl4 -->
<g id="edge15" class="edge">
<title>https://w3id.org/oseg/ont/otrl#Odrl5&#45;&gt;https://w3id.org/oseg/ont/otrl#Odrl4</title>
<path fill="none" stroke="black" d="M1110.96,-983.43C1110.64,-982.41 1110.3,-981.37 1109.92,-980.32"/>
<polygon fill="black" stroke="black" points="1113.08,-978.79 1106,-970.91 1106.62,-981.49 1113.08,-978.79"/>
<text text-anchor="middle" x="1152.94" y="-970.68" font-family="Times,serif" font-size="14.00">owl:sameAs</text>
</g>
<!-- https://w3id.org/oseg/ont/otrl#Odrl5&#45;&gt;https://w3id.org/oseg/ont/otrl#Odrl4 -->
<g id="edge33" class="edge">
<title>https://w3id.org/oseg/ont/otrl#Odrl5&#45;&gt;https://w3id.org/oseg/ont/otrl#Odrl4</title>
<path fill="none" stroke="black" d="M1096.85,-983.44C1096.44,-982.58 1096.04,-981.7 1095.66,-980.82"/>
<polygon fill="black" stroke="black" points="1098.88,-979.45 1092.09,-971.31 1092.33,-981.91 1098.88,-979.45"/>
<text text-anchor="middle" x="1016.25" y="-970.93" font-family="Times,serif" font-size="14.00">schema:supersededBy</text>
</g>
<!-- https://w3id.org/oseg/ont/otrl#Otrl5 -->
<g id="node32" class="node">
<title>https://w3id.org/oseg/ont/otrl#Otrl5</title>
<ellipse fill="none" stroke="black" cx="1003.73" cy="-1750.98" rx="194.41" ry="16.03"/>
<text text-anchor="middle" x="1003.73" y="-1747.28" font-family="Times,serif" font-size="14.00">https://w3id.org/oseg/ont/otrl#Otrl5</text>
</g>
<!-- https://w3id.org/oseg/ont/otrl#Otrl5&#45;&gt;https://w3id.org/oseg/ont/otrl#OTRL5 -->
<g id="edge16" class="edge">
<title>https://w3id.org/oseg/ont/otrl#Otrl5&#45;&gt;https://w3id.org/oseg/ont/otrl#OTRL5</title>
<path fill="none" stroke="black" d="M1000.68,-1734.44C984.5,-1678.2 915.36,-1494.26 885.29,-1426.48"/>
<polygon fill="black" stroke="black" points="888.47,-1425.02 881.15,-1417.36 882.1,-1427.91 888.47,-1425.02"/>
<text text-anchor="middle" x="862.99" y="-1569.26" font-family="Times,serif" font-size="14.00">schema:supersededBy</text>
</g>
<!-- https://w3id.org/oseg/ont/otrl#Otrl5&#45;&gt;https://w3id.org/oseg/ont/otrl#OTRL5 -->
<g id="edge51" class="edge">
<title>https://w3id.org/oseg/ont/otrl#Otrl5&#45;&gt;https://w3id.org/oseg/ont/otrl#OTRL5</title>
<path fill="none" stroke="black" d="M994.02,-1734.28C967.93,-1678.14 899.03,-1496.09 877.68,-1427.55"/>
<polygon fill="black" stroke="black" points="880.91,-1426.12 874.68,-1417.56 874.21,-1428.14 880.91,-1426.12"/>
<text text-anchor="middle" x="893.35" y="-1584.71" font-family="Times,serif" font-size="14.00">owl:sameAs</text>
</g>
<!-- https://w3id.org/oseg/ont/otrl#Otrl -->
<g id="node33" class="node">
<title>https://w3id.org/oseg/ont/otrl#Otrl</title>
<ellipse fill="none" stroke="black" cx="780.33" cy="-1533.61" rx="188.18" ry="16.03"/>
<text text-anchor="middle" x="780.33" y="-1529.91" font-family="Times,serif" font-size="14.00">https://w3id.org/oseg/ont/otrl#Otrl</text>
</g>
<!-- https://w3id.org/oseg/ont/otrl#Otrl&#45;&gt;https://w3id.org/oseg/ont/otrl#OTRL -->
<g id="edge17" class="edge">
<title>https://w3id.org/oseg/ont/otrl#Otrl&#45;&gt;https://w3id.org/oseg/ont/otrl#OTRL</title>
<path fill="none" stroke="black" d="M783.87,-1516.93C790.15,-1459.92 795.69,-1272.5 793.45,-1202.62"/>
<polygon fill="black" stroke="black" points="796.94,-1202.3 793.02,-1192.46 789.95,-1202.59 796.94,-1202.3"/>
<text text-anchor="middle" x="708.66" y="-1348.58" font-family="Times,serif" font-size="14.00">schema:supersededBy</text>
</g>
<!-- https://w3id.org/oseg/ont/otrl#Otrl&#45;&gt;https://w3id.org/oseg/ont/otrl#OTRL -->
<g id="edge18" class="edge">
<title>https://w3id.org/oseg/ont/otrl#Otrl&#45;&gt;https://w3id.org/oseg/ont/otrl#OTRL</title>
<path fill="none" stroke="black" d="M777.76,-1517.23C774.66,-1460.56 779.74,-1272.44 785.94,-1202.52"/>
<polygon fill="black" stroke="black" points="789.45,-1202.65 786.95,-1192.35 782.48,-1201.96 789.45,-1202.65"/>
<text text-anchor="middle" x="739.35" y="-1363.68" font-family="Times,serif" font-size="14.00">owl:sameAs</text>
</g>
<!-- https://w3id.org/oseg/ont/otrl#Otrl2 -->
<g id="node34" class="node">
<title>https://w3id.org/oseg/ont/otrl#Otrl2</title>
<ellipse fill="none" stroke="black" cx="193.96" cy="-1291.69" rx="194.41" ry="16.03"/>
<text text-anchor="middle" x="193.96" y="-1287.99" font-family="Times,serif" font-size="14.00">https://w3id.org/oseg/ont/otrl#Otrl2</text>
</g>
<!-- https://w3id.org/oseg/ont/otrl#Otrl2&#45;&gt;https://w3id.org/oseg/ont/otrl#OTRL2 -->
<g id="edge28" class="edge">
<title>https://w3id.org/oseg/ont/otrl#Otrl2&#45;&gt;https://w3id.org/oseg/ont/otrl#OTRL2</title>
<path fill="none" stroke="black" d="M278.59,-1276.98C348.01,-1261.53 443.72,-1237.75 500.14,-1221.69"/>
<polygon fill="black" stroke="black" points="501.23,-1225.02 509.87,-1218.88 499.29,-1218.29 501.23,-1225.02"/>
<text text-anchor="middle" x="309.37" y="-1253.13" font-family="Times,serif" font-size="14.00">schema:supersededBy</text>
</g>
<!-- https://w3id.org/oseg/ont/otrl#Otrl2&#45;&gt;https://w3id.org/oseg/ont/otrl#OTRL2 -->
<g id="edge29" class="edge">
<title>https://w3id.org/oseg/ont/otrl#Otrl2&#45;&gt;https://w3id.org/oseg/ont/otrl#OTRL2</title>
<path fill="none" stroke="black" d="M239.01,-1275.8C299.99,-1258.35 409.3,-1231.36 479.98,-1216.12"/>
<polygon fill="black" stroke="black" points="481.07,-1219.47 490.12,-1213.96 479.61,-1212.62 481.07,-1219.47"/>
<text text-anchor="middle" x="316.99" y="-1234.76" font-family="Times,serif" font-size="14.00">owl:sameAs</text>
</g>
<!-- https://w3id.org/oseg/ont/otrl#Otrl6 -->
<g id="node35" class="node">
<title>https://w3id.org/oseg/ont/otrl#Otrl6</title>
<ellipse fill="none" stroke="black" cx="1391.33" cy="-1305.66" rx="194.41" ry="16.03"/>
<text text-anchor="middle" x="1391.33" y="-1301.96" font-family="Times,serif" font-size="14.00">https://w3id.org/oseg/ont/otrl#Otrl6</text>
</g>
<!-- https://w3id.org/oseg/ont/otrl#Otrl6&#45;&gt;https://w3id.org/oseg/ont/otrl#OTRL6 -->
<g id="edge30" class="edge">
<title>https://w3id.org/oseg/ont/otrl#Otrl6&#45;&gt;https://w3id.org/oseg/ont/otrl#OTRL6</title>
<path fill="none" stroke="black" d="M1342.53,-1289.83C1279.08,-1273.22 1167.9,-1248.18 1095.97,-1234.16"/>
<polygon fill="black" stroke="black" points="1096.57,-1230.71 1086.09,-1232.25 1095.25,-1237.58 1096.57,-1230.71"/>
<text text-anchor="middle" x="1139.25" y="-1250.79" font-family="Times,serif" font-size="14.00">schema:supersededBy</text>
</g>
<!-- https://w3id.org/oseg/ont/otrl#Otrl6&#45;&gt;https://w3id.org/oseg/ont/otrl#OTRL6 -->
<g id="edge31" class="edge">
<title>https://w3id.org/oseg/ont/otrl#Otrl6&#45;&gt;https://w3id.org/oseg/ont/otrl#OTRL6</title>
<path fill="none" stroke="black" d="M1299.6,-1291.24C1228.78,-1276.84 1133.56,-1255.19 1076.53,-1240.28"/>
<polygon fill="black" stroke="black" points="1077.25,-1236.85 1066.69,-1237.67 1075.45,-1243.62 1077.25,-1236.85"/>
<text text-anchor="middle" x="1145.56" y="-1269.56" font-family="Times,serif" font-size="14.00">owl:sameAs</text>
</g>
<!-- https://w3id.org/oseg/ont/otrl#Odrl3Star -->
<g id="node36" class="node">
<title>https://w3id.org/oseg/ont/otrl#Odrl3Star</title>
<ellipse fill="none" stroke="black" cx="970.33" cy="-395.62" rx="218.49" ry="16.03"/>
<text text-anchor="middle" x="970.33" y="-391.92" font-family="Times,serif" font-size="14.00">https://w3id.org/oseg/ont/otrl#Odrl3Star</text>
</g>
<!-- https://w3id.org/oseg/ont/otrl#Odrl3Star&#45;&gt;https://w3id.org/oseg/ont/otrl#ODRL3Star -->
<g id="edge36" class="edge">
<title>https://w3id.org/oseg/ont/otrl#Odrl3Star&#45;&gt;https://w3id.org/oseg/ont/otrl#ODRL3Star</title>
<path fill="none" stroke="black" d="M945.37,-411.87C943.45,-413.8 941.56,-415.79 939.75,-417.8"/>
<polygon fill="black" stroke="black" points="937.06,-415.55 933.28,-425.45 942.41,-420.07 937.06,-415.55"/>
<text text-anchor="middle" x="1022.56" y="-418.63" font-family="Times,serif" font-size="14.00">schema:supersededBy</text>
</g>
<!-- https://w3id.org/oseg/ont/otrl#Odrl3Star&#45;&gt;https://w3id.org/oseg/ont/otrl#ODRL3Star -->
<g id="edge37" class="edge">
<title>https://w3id.org/oseg/ont/otrl#Odrl3Star&#45;&gt;https://w3id.org/oseg/ont/otrl#ODRL3Star</title>
<path fill="none" stroke="black" d="M963.01,-411.92C961.34,-414.07 959.47,-416.29 957.49,-418.52"/>
<polygon fill="black" stroke="black" points="954.76,-416.31 950.44,-425.99 959.85,-421.12 954.76,-416.31"/>
<text text-anchor="middle" x="917.75" y="-419.02" font-family="Times,serif" font-size="14.00">owl:sameAs</text>
</g>
<!-- https://w3id.org/oseg/ont/otrl#Odrl1 -->
<g id="node37" class="node">
<title>https://w3id.org/oseg/ont/otrl#Odrl1</title>
<ellipse fill="none" stroke="black" cx="805.52" cy="-297.77" rx="196.65" ry="16.03"/>
<text text-anchor="middle" x="805.52" y="-294.07" font-family="Times,serif" font-size="14.00">https://w3id.org/oseg/ont/otrl#Odrl1</text>
</g>
<!-- https://w3id.org/oseg/ont/otrl#Odrl1&#45;&gt;https://w3id.org/oseg/ont/otrl#ODRL1 -->
<g id="edge41" class="edge">
<title>https://w3id.org/oseg/ont/otrl#Odrl1&#45;&gt;https://w3id.org/oseg/ont/otrl#ODRL1</title>
<path fill="none" stroke="black" d="M801.88,-314.04C801.89,-314.14 801.9,-314.23 801.91,-314.33"/>
<polygon fill="black" stroke="black" points="798.31,-314.02 803.41,-323.3 805.21,-312.86 798.31,-314.02"/>
<text text-anchor="middle" x="721.89" y="-317.98" font-family="Times,serif" font-size="14.00">schema:supersededBy</text>
</g>
<!-- https://w3id.org/oseg/ont/otrl#Odrl1&#45;&gt;https://w3id.org/oseg/ont/otrl#ODRL1 -->
<g id="edge42" class="edge">
<title>https://w3id.org/oseg/ont/otrl#Odrl1&#45;&gt;https://w3id.org/oseg/ont/otrl#ODRL1</title>
<path fill="none" stroke="black" d="M815.28,-314.06C815.31,-314.16 815.33,-314.25 815.35,-314.35"/>
<polygon fill="black" stroke="black" points="811.74,-313.96 816.81,-323.26 818.64,-312.82 811.74,-313.96"/>
<text text-anchor="middle" x="857.82" y="-318.01" font-family="Times,serif" font-size="14.00">owl:sameAs</text>
</g>
<!-- https://w3id.org/oseg/ont/otrl#Otrl3 -->
<g id="node38" class="node">
<title>https://w3id.org/oseg/ont/otrl#Otrl3</title>
<ellipse fill="none" stroke="black" cx="1258.33" cy="-1576.59" rx="194.41" ry="16.03"/>
<text text-anchor="middle" x="1258.33" y="-1572.89" font-family="Times,serif" font-size="14.00">https://w3id.org/oseg/ont/otrl#Otrl3</text>
</g>
<!-- https://w3id.org/oseg/ont/otrl#Otrl3&#45;&gt;https://w3id.org/oseg/ont/otrl#OTRL3 -->
<g id="edge52" class="edge">
<title>https://w3id.org/oseg/ont/otrl#Otrl3&#45;&gt;https://w3id.org/oseg/ont/otrl#OTRL3</title>
<path fill="none" stroke="black" d="M1244.44,-1560.32C1201.2,-1517.82 1068.75,-1404.12 1007.04,-1356.02"/>
<polygon fill="black" stroke="black" points="1008.87,-1353.01 998.82,-1349.68 1004.6,-1358.56 1008.87,-1353.01"/>
<text text-anchor="middle" x="1045.74" y="-1446.97" font-family="Times,serif" font-size="14.00">schema:supersededBy</text>
</g>
<!-- https://w3id.org/oseg/ont/otrl#Otrl3&#45;&gt;https://w3id.org/oseg/ont/otrl#OTRL3 -->
<g id="edge53" class="edge">
<title>https://w3id.org/oseg/ont/otrl#Otrl3&#45;&gt;https://w3id.org/oseg/ont/otrl#OTRL3</title>
<path fill="none" stroke="black" d="M1233.34,-1560.3C1178.16,-1518.15 1047.1,-1406.1 995.84,-1357.29"/>
<polygon fill="black" stroke="black" points="998.22,-1354.73 988.6,-1350.3 993.36,-1359.76 998.22,-1354.73"/>
<text text-anchor="middle" x="1072.09" y="-1462.6" font-family="Times,serif" font-size="14.00">owl:sameAs</text>
</g>
</g>
</svg>
