<?xml version="1.0" encoding="UTF-8" standalone="no"?>
<!DOCTYPE svg PUBLIC "-//W3C//DTD SVG 1.1//EN"
 "http://www.w3.org/Graphics/SVG/1.1/DTD/svg11.dtd">
<!-- Generated by graphviz version 2.43.0 (0)
 -->
<!-- Title: G Pages: 1 -->
<svg width="2064pt" height="1582pt"
 viewBox="0.00 0.00 2064.00 1582.00" xmlns="http://www.w3.org/2000/svg" xmlns:xlink="http://www.w3.org/1999/xlink">
<g id="graph0" class="graph" transform="scale(1 1) rotate(0) translate(4 1578)">
<title>G</title>
<polygon fill="white" stroke="transparent" points="-4,4 -4,-1578 2060,-1578 2060,4 -4,4"/>
<!-- http://w3id.org/oseg/ont/otrl#ODRL -->
<g id="node1" class="node">
<title>http://w3id.org/oseg/ont/otrl#ODRL</title>
<ellipse fill="none" stroke="#e377c2" cx="880.77" cy="-683.37" rx="62.87" ry="16.03"/>
<text text-anchor="middle" x="880.77" y="-679.67" font-family="Times,serif" font-size="14.00">otrl:ODRL</text>
</g>
<!-- http://spdx.org/rdf/terms#SpdxItem -->
<g id="node2" class="node">
<title>http://spdx.org/rdf/terms#SpdxItem</title>
<ellipse fill="none" stroke="#1f77b4" cx="1622.76" cy="-653.22" rx="87.86" ry="16.03"/>
<text text-anchor="middle" x="1622.76" y="-649.52" font-family="Times,serif" font-size="14.00">spdx:SpdxItem</text>
</g>
<!-- http://www.w3.org/2002/07/owl#Ontology -->
<g id="node3" class="node">
<title>http://www.w3.org/2002/07/owl#Ontology</title>
<ellipse fill="none" stroke="#1f77b4" cx="1635.03" cy="-805.32" rx="77.56" ry="16.03"/>
<text text-anchor="middle" x="1635.03" y="-801.62" font-family="Times,serif" font-size="14.00">owl:Ontology</text>
</g>
<!-- http://w3id.org/oseg/ont/otrl#OTRL -->
<g id="node4" class="node">
<title>http://w3id.org/oseg/ont/otrl#OTRL</title>
<ellipse fill="none" stroke="#e377c2" cx="1210.12" cy="-1129.2" rx="60.62" ry="16.03"/>
<text text-anchor="middle" x="1210.12" y="-1125.5" font-family="Times,serif" font-size="14.00">otrl:OTRL</text>
</g>
<!-- http://www.w3.org/2002/07/owl#DatatypeProperty -->
<g id="node5" class="node">
<title>http://www.w3.org/2002/07/owl#DatatypeProperty</title>
<ellipse fill="none" stroke="#1f77b4" cx="1156.72" cy="-834.05" rx="123.07" ry="16.03"/>
<text text-anchor="middle" x="1156.72" y="-830.35" font-family="Times,serif" font-size="14.00">owl:DatatypeProperty</text>
</g>
<!-- http://spdx.org/licenses/GPL&#45;3.0&#45;or&#45;later -->
<g id="node6" class="node">
<title>http://spdx.org/licenses/GPL&#45;3.0&#45;or&#45;later</title>
<ellipse fill="none" stroke="#e377c2" cx="1615.97" cy="-562.16" rx="108.79" ry="16.03"/>
<text text-anchor="middle" x="1615.97" y="-558.46" font-family="Times,serif" font-size="14.00">spdxl:GPL&#45;3.0&#45;or&#45;...</text>
</g>
<!-- http://w3id.org/oseg/ont/otrl -->
<g id="node7" class="node">
<title>http://w3id.org/oseg/ont/otrl</title>
<ellipse fill="none" stroke="#e377c2" cx="1667.25" cy="-612.33" rx="50.82" ry="16.03"/>
<text text-anchor="middle" x="1667.25" y="-608.63" font-family="Times,serif" font-size="14.00">ns1:otrl</text>
</g>
<!-- http://w3id.org/oseg/ont/otrl&#45;&gt;http://spdx.org/rdf/terms#SpdxItem -->
<g id="edge20" class="edge">
<title>http://w3id.org/oseg/ont/otrl&#45;&gt;http://spdx.org/rdf/terms#SpdxItem</title>
<path fill="none" stroke="black" d="M1650.43,-627.79C1649.49,-628.65 1648.54,-629.53 1647.58,-630.42"/>
<polygon fill="black" stroke="black" points="1645.2,-627.85 1640.2,-637.19 1649.93,-633 1645.2,-627.85"/>
<text text-anchor="middle" x="1644.51" y="-632.9" font-family="Times,serif" font-size="14.00">a</text>
</g>
<!-- http://w3id.org/oseg/ont/otrl&#45;&gt;http://www.w3.org/2002/07/owl#Ontology -->
<g id="edge2" class="edge">
<title>http://w3id.org/oseg/ont/otrl&#45;&gt;http://www.w3.org/2002/07/owl#Ontology</title>
<path fill="none" stroke="black" d="M1664.51,-628.79C1658.92,-662.26 1646.18,-738.51 1639.43,-778.97"/>
<polygon fill="black" stroke="black" points="1635.96,-778.47 1637.77,-788.91 1642.87,-779.62 1635.96,-778.47"/>
<text text-anchor="middle" x="1647.47" y="-707.68" font-family="Times,serif" font-size="14.00">a</text>
</g>
<!-- http://w3id.org/oseg/ont/otrl&#45;&gt;http://spdx.org/licenses/GPL&#45;3.0&#45;or&#45;later -->
<g id="edge1" class="edge">
<title>http://w3id.org/oseg/ont/otrl&#45;&gt;http://spdx.org/licenses/GPL&#45;3.0&#45;or&#45;later</title>
<path fill="none" stroke="black" d="M1651.31,-596.73C1647.65,-593.16 1643.69,-589.28 1639.78,-585.46"/>
<polygon fill="black" stroke="black" points="1642.03,-582.76 1632.44,-578.27 1637.14,-587.76 1642.03,-582.76"/>
<text text-anchor="middle" x="1683.55" y="-579.89" font-family="Times,serif" font-size="14.00">spdx:licenseDeclared</text>
</g>
<!-- http://w3id.org/oseg/ont/oseg&#45;profiles#martinHaeuer -->
<g id="node11" class="node">
<title>http://w3id.org/oseg/ont/oseg&#45;profiles#martinHaeuer</title>
<ellipse fill="none" stroke="#e377c2" cx="1862.24" cy="-735.78" rx="116.85" ry="16.03"/>
<text text-anchor="middle" x="1862.24" y="-732.08" font-family="Times,serif" font-size="14.00">osegprof:martinHa...</text>
</g>
<!-- http://w3id.org/oseg/ont/otrl&#45;&gt;http://w3id.org/oseg/ont/oseg&#45;profiles#martinHaeuer -->
<g id="edge6" class="edge">
<title>http://w3id.org/oseg/ont/otrl&#45;&gt;http://w3id.org/oseg/ont/oseg&#45;profiles#martinHaeuer</title>
<path fill="none" stroke="black" d="M1684.05,-627.95C1713.84,-650.18 1776.6,-690.45 1819.13,-715.09"/>
<polygon fill="black" stroke="black" points="1817.46,-718.16 1827.87,-720.09 1820.93,-712.09 1817.46,-718.16"/>
<text text-anchor="middle" x="1694.09" y="-675.32" font-family="Times,serif" font-size="14.00">dcterms:creator</text>
</g>
<!-- http://w3id.org/oseg/ont/otrl&#45;&gt;http://w3id.org/oseg/ont/oseg&#45;profiles#martinHaeuer -->
<g id="edge13" class="edge">
<title>http://w3id.org/oseg/ont/otrl&#45;&gt;http://w3id.org/oseg/ont/oseg&#45;profiles#martinHaeuer</title>
<path fill="none" stroke="black" d="M1697.38,-625.64C1735.38,-646.77 1800,-687.65 1836.05,-713.32"/>
<polygon fill="black" stroke="black" points="1834.41,-716.46 1844.56,-719.5 1838.52,-710.8 1834.41,-716.46"/>
<text text-anchor="middle" x="1822.21" y="-673.28" font-family="Times,serif" font-size="14.00">schema:creator</text>
</g>
<!-- http://w3id.org/oseg/ont/oseg&#45;profiles#robinVobruba -->
<g id="node18" class="node">
<title>http://w3id.org/oseg/ont/oseg&#45;profiles#robinVobruba</title>
<ellipse fill="none" stroke="#e377c2" cx="1900.92" cy="-595.28" rx="113.69" ry="16.03"/>
<text text-anchor="middle" x="1900.92" y="-591.58" font-family="Times,serif" font-size="14.00">osegprof:robinVob...</text>
</g>
<!-- http://w3id.org/oseg/ont/otrl&#45;&gt;http://w3id.org/oseg/ont/oseg&#45;profiles#robinVobruba -->
<g id="edge15" class="edge">
<title>http://w3id.org/oseg/ont/otrl&#45;&gt;http://w3id.org/oseg/ont/oseg&#45;profiles#robinVobruba</title>
<path fill="none" stroke="black" d="M1717.79,-614.32C1745.7,-613.31 1781.15,-611.03 1813.41,-608.25"/>
<polygon fill="black" stroke="black" points="1814.1,-611.7 1823.76,-607.33 1813.48,-604.73 1814.1,-611.7"/>
<text text-anchor="middle" x="1823.1" y="-615.08" font-family="Times,serif" font-size="14.00">dcterms:creator</text>
</g>
<!-- http://w3id.org/oseg/ont/otrl&#45;&gt;http://w3id.org/oseg/ont/oseg&#45;profiles#robinVobruba -->
<g id="edge24" class="edge">
<title>http://w3id.org/oseg/ont/otrl&#45;&gt;http://w3id.org/oseg/ont/oseg&#45;profiles#robinVobruba</title>
<path fill="none" stroke="black" d="M1710.54,-603.76C1729.66,-601.54 1753.22,-599.37 1777.17,-597.55"/>
<polygon fill="black" stroke="black" points="1777.73,-601.02 1787.45,-596.8 1777.22,-594.04 1777.73,-601.02"/>
<text text-anchor="middle" x="1743.85" y="-589.46" font-family="Times,serif" font-size="14.00">schema:creator</text>
</g>
<!-- http://w3id.org/oseg/ont/1.1.0/otrl -->
<g id="node20" class="node">
<title>http://w3id.org/oseg/ont/1.1.0/otrl</title>
<ellipse fill="none" stroke="#e377c2" cx="1490.9" cy="-611.79" rx="50.82" ry="16.03"/>
<text text-anchor="middle" x="1490.9" y="-608.09" font-family="Times,serif" font-size="14.00">ns2:otrl</text>
</g>
<!-- http://w3id.org/oseg/ont/otrl&#45;&gt;http://w3id.org/oseg/ont/1.1.0/otrl -->
<g id="edge19" class="edge">
<title>http://w3id.org/oseg/ont/otrl&#45;&gt;http://w3id.org/oseg/ont/1.1.0/otrl</title>
<path fill="none" stroke="black" d="M1616.25,-612.18C1596.23,-612.11 1573.08,-612.04 1552.16,-611.98"/>
<polygon fill="black" stroke="black" points="1552.11,-608.48 1542.1,-611.95 1552.09,-615.48 1552.11,-608.48"/>
<text text-anchor="middle" x="1558.45" y="-600.88" font-family="Times,serif" font-size="14.00">owl:versionIRI</text>
</g>
<!-- http://w3id.org/oseg/ont/oseg&#45;profiles#Iopa -->
<g id="node21" class="node">
<title>http://w3id.org/oseg/ont/oseg&#45;profiles#Iopa</title>
<ellipse fill="none" stroke="#e377c2" cx="1811.97" cy="-475.13" rx="80.72" ry="16.03"/>
<text text-anchor="middle" x="1811.97" y="-471.43" font-family="Times,serif" font-size="14.00">osegprof:Iopa</text>
</g>
<!-- http://w3id.org/oseg/ont/otrl&#45;&gt;http://w3id.org/oseg/ont/oseg&#45;profiles#Iopa -->
<g id="edge22" class="edge">
<title>http://w3id.org/oseg/ont/otrl&#45;&gt;http://w3id.org/oseg/ont/oseg&#45;profiles#Iopa</title>
<path fill="none" stroke="black" d="M1683.57,-596.86C1708.95,-572.8 1758.02,-526.27 1787.6,-498.22"/>
<polygon fill="black" stroke="black" points="1790.19,-500.6 1795.04,-491.18 1785.37,-495.52 1790.19,-500.6"/>
<text text-anchor="middle" x="1801.09" y="-551.34" font-family="Times,serif" font-size="14.00">dcterms:publisher</text>
</g>
<!-- http://id.loc.gov/vocabulary/iso639&#45;1/en -->
<g id="node23" class="node">
<title>http://id.loc.gov/vocabulary/iso639&#45;1/en</title>
<ellipse fill="none" stroke="#e377c2" cx="1618.79" cy="-447.96" rx="45.01" ry="16.03"/>
<text text-anchor="middle" x="1618.79" y="-444.26" font-family="Times,serif" font-size="14.00">ns3:en</text>
</g>
<!-- http://w3id.org/oseg/ont/otrl&#45;&gt;http://id.loc.gov/vocabulary/iso639&#45;1/en -->
<g id="edge26" class="edge">
<title>http://w3id.org/oseg/ont/otrl&#45;&gt;http://id.loc.gov/vocabulary/iso639&#45;1/en</title>
<path fill="none" stroke="black" d="M1662.43,-595.97C1654.01,-567.42 1636.57,-508.28 1626.47,-474.03"/>
<polygon fill="black" stroke="black" points="1629.78,-472.86 1623.59,-464.26 1623.06,-474.84 1629.78,-472.86"/>
<text text-anchor="middle" x="1579.95" y="-523.8" font-family="Times,serif" font-size="14.00">dcterms:language</text>
</g>
<!-- http://w3id.org/oseg/ont/otrl#OTRL1 -->
<g id="node8" class="node">
<title>http://w3id.org/oseg/ont/otrl#OTRL1</title>
<ellipse fill="none" stroke="#e377c2" cx="943.91" cy="-1222.86" rx="67.35" ry="16.03"/>
<text text-anchor="middle" x="943.91" y="-1219.16" font-family="Times,serif" font-size="14.00">otrl:OTRL1</text>
</g>
<!-- http://w3id.org/oseg/ont/otrl#OTRL1&#45;&gt;http://w3id.org/oseg/ont/otrl#OTRL -->
<g id="edge3" class="edge">
<title>http://w3id.org/oseg/ont/otrl#OTRL1&#45;&gt;http://w3id.org/oseg/ont/otrl#OTRL</title>
<path fill="none" stroke="black" d="M982.06,-1209.44C1029.87,-1192.61 1111.79,-1163.79 1163.34,-1145.66"/>
<polygon fill="black" stroke="black" points="1164.64,-1148.91 1172.91,-1142.29 1162.31,-1142.31 1164.64,-1148.91"/>
<text text-anchor="middle" x="1068.2" y="-1181.35" font-family="Times,serif" font-size="14.00">a</text>
</g>
<!-- http://w3id.org/oseg/ont/otrl#Odrl4 -->
<g id="node9" class="node">
<title>http://w3id.org/oseg/ont/otrl#Odrl4</title>
<ellipse fill="none" stroke="#e377c2" cx="560.49" cy="-287.53" rx="61.54" ry="16.03"/>
<text text-anchor="middle" x="560.49" y="-283.83" font-family="Times,serif" font-size="14.00">otrl:Odrl4</text>
</g>
<!-- http://w3id.org/oseg/ont/otrl#ODRL4 -->
<g id="node12" class="node">
<title>http://w3id.org/oseg/ont/otrl#ODRL4</title>
<ellipse fill="none" stroke="#e377c2" cx="721.19" cy="-488.08" rx="69.09" ry="16.03"/>
<text text-anchor="middle" x="721.19" y="-484.38" font-family="Times,serif" font-size="14.00">otrl:ODRL4</text>
</g>
<!-- http://w3id.org/oseg/ont/otrl#Odrl4&#45;&gt;http://w3id.org/oseg/ont/otrl#ODRL4 -->
<g id="edge7" class="edge">
<title>http://w3id.org/oseg/ont/otrl#Odrl4&#45;&gt;http://w3id.org/oseg/ont/otrl#ODRL4</title>
<path fill="none" stroke="black" d="M573.37,-303.6C601.52,-338.74 668.66,-422.53 701.89,-464"/>
<polygon fill="black" stroke="black" points="699.26,-466.32 708.25,-471.93 704.73,-461.94 699.26,-466.32"/>
<text text-anchor="middle" x="557.63" y="-387.6" font-family="Times,serif" font-size="14.00">schema:supersededBy</text>
</g>
<!-- http://w3id.org/oseg/ont/otrl#ODRL3 -->
<g id="node10" class="node">
<title>http://w3id.org/oseg/ont/otrl#ODRL3</title>
<ellipse fill="none" stroke="#e377c2" cx="652.38" cy="-618.5" rx="69.09" ry="16.03"/>
<text text-anchor="middle" x="652.38" y="-614.8" font-family="Times,serif" font-size="14.00">otrl:ODRL3</text>
</g>
<!-- http://w3id.org/oseg/ont/otrl#ODRL3&#45;&gt;http://w3id.org/oseg/ont/otrl#ODRL -->
<g id="edge5" class="edge">
<title>http://w3id.org/oseg/ont/otrl#ODRL3&#45;&gt;http://w3id.org/oseg/ont/otrl#ODRL</title>
<path fill="none" stroke="black" d="M696.68,-631.09C734.36,-641.79 788.51,-657.17 828.34,-668.48"/>
<polygon fill="black" stroke="black" points="827.56,-671.9 838.13,-671.26 829.47,-665.16 827.56,-671.9"/>
<text text-anchor="middle" x="758.01" y="-653.58" font-family="Times,serif" font-size="14.00">a</text>
</g>
<!-- http://w3id.org/oseg/ont/otrl#ODRL4&#45;&gt;http://w3id.org/oseg/ont/otrl#ODRL -->
<g id="edge17" class="edge">
<title>http://w3id.org/oseg/ont/otrl#ODRL4&#45;&gt;http://w3id.org/oseg/ont/otrl#ODRL</title>
<path fill="none" stroke="black" d="M734.25,-504.06C762.26,-538.34 828.22,-619.06 861.24,-659.47"/>
<polygon fill="black" stroke="black" points="858.72,-661.91 867.75,-667.44 864.14,-657.49 858.72,-661.91"/>
<text text-anchor="middle" x="793.24" y="-585.57" font-family="Times,serif" font-size="14.00">a</text>
</g>
<!-- http://w3id.org/oseg/ont/otrl#OTRL5 -->
<g id="node13" class="node">
<title>http://w3id.org/oseg/ont/otrl#OTRL5</title>
<ellipse fill="none" stroke="#e377c2" cx="1425.01" cy="-1297.87" rx="67.35" ry="16.03"/>
<text text-anchor="middle" x="1425.01" y="-1294.17" font-family="Times,serif" font-size="14.00">otrl:OTRL5</text>
</g>
<!-- http://w3id.org/oseg/ont/otrl#OTRL5&#45;&gt;http://w3id.org/oseg/ont/otrl#OTRL -->
<g id="edge8" class="edge">
<title>http://w3id.org/oseg/ont/otrl#OTRL5&#45;&gt;http://w3id.org/oseg/ont/otrl#OTRL</title>
<path fill="none" stroke="black" d="M1405.17,-1282.31C1366.72,-1252.12 1281.92,-1185.56 1237.89,-1150.99"/>
<polygon fill="black" stroke="black" points="1239.93,-1148.15 1229.9,-1144.72 1235.61,-1153.65 1239.93,-1148.15"/>
<text text-anchor="middle" x="1317.03" y="-1220.45" font-family="Times,serif" font-size="14.00">a</text>
</g>
<!-- http://w3id.org/oseg/ont/otrl#ODRL2 -->
<g id="node14" class="node">
<title>http://w3id.org/oseg/ont/otrl#ODRL2</title>
<ellipse fill="none" stroke="#e377c2" cx="868.79" cy="-443.03" rx="69.09" ry="16.03"/>
<text text-anchor="middle" x="868.79" y="-439.33" font-family="Times,serif" font-size="14.00">otrl:ODRL2</text>
</g>
<!-- http://w3id.org/oseg/ont/otrl#ODRL2&#45;&gt;http://w3id.org/oseg/ont/otrl#ODRL -->
<g id="edge9" class="edge">
<title>http://w3id.org/oseg/ont/otrl#ODRL2&#45;&gt;http://w3id.org/oseg/ont/otrl#ODRL</title>
<path fill="none" stroke="black" d="M869.62,-459.55C871.66,-500.56 876.98,-607.26 879.46,-657.06"/>
<polygon fill="black" stroke="black" points="875.96,-657.24 879.96,-667.05 882.96,-656.89 875.96,-657.24"/>
<text text-anchor="middle" x="870.04" y="-562.11" font-family="Times,serif" font-size="14.00">a</text>
</g>
<!-- http://w3id.org/oseg/ont/otrl#OTRL4 -->
<g id="node15" class="node">
<title>http://w3id.org/oseg/ont/otrl#OTRL4</title>
<ellipse fill="none" stroke="#e377c2" cx="1300.56" cy="-1344.59" rx="67.35" ry="16.03"/>
<text text-anchor="middle" x="1300.56" y="-1340.89" font-family="Times,serif" font-size="14.00">otrl:OTRL4</text>
</g>
<!-- http://w3id.org/oseg/ont/otrl#OTRL4&#45;&gt;http://w3id.org/oseg/ont/otrl#OTRL -->
<g id="edge11" class="edge">
<title>http://w3id.org/oseg/ont/otrl#OTRL4&#45;&gt;http://w3id.org/oseg/ont/otrl#OTRL</title>
<path fill="none" stroke="black" d="M1293.77,-1328.4C1278.18,-1291.29 1239.78,-1199.83 1220.92,-1154.92"/>
<polygon fill="black" stroke="black" points="1224.1,-1153.44 1217,-1145.57 1217.64,-1156.15 1224.1,-1153.44"/>
<text text-anchor="middle" x="1252.84" y="-1230.46" font-family="Times,serif" font-size="14.00">a</text>
</g>
<!-- http://w3id.org/oseg/ont/otrl#OTRL3 -->
<g id="node16" class="node">
<title>http://w3id.org/oseg/ont/otrl#OTRL3</title>
<ellipse fill="none" stroke="#e377c2" cx="1514.68" cy="-1138.15" rx="67.35" ry="16.03"/>
<text text-anchor="middle" x="1514.68" y="-1134.45" font-family="Times,serif" font-size="14.00">otrl:OTRL3</text>
</g>
<!-- http://w3id.org/oseg/ont/otrl#OTRL3&#45;&gt;http://w3id.org/oseg/ont/otrl#OTRL -->
<g id="edge12" class="edge">
<title>http://w3id.org/oseg/ont/otrl#OTRL3&#45;&gt;http://w3id.org/oseg/ont/otrl#OTRL</title>
<path fill="none" stroke="black" d="M1447.84,-1136.19C1398.37,-1134.73 1331.11,-1132.75 1280.76,-1131.27"/>
<polygon fill="black" stroke="black" points="1280.7,-1127.77 1270.6,-1130.97 1280.49,-1134.77 1280.7,-1127.77"/>
<text text-anchor="middle" x="1359.8" y="-1137.53" font-family="Times,serif" font-size="14.00">a</text>
</g>
<!-- http://w3id.org/oseg/ont/otrl#OTRL6 -->
<g id="node17" class="node">
<title>http://w3id.org/oseg/ont/otrl#OTRL6</title>
<ellipse fill="none" stroke="#e377c2" cx="1099.32" cy="-1225.78" rx="67.35" ry="16.03"/>
<text text-anchor="middle" x="1099.32" y="-1222.08" font-family="Times,serif" font-size="14.00">otrl:OTRL6</text>
</g>
<!-- http://w3id.org/oseg/ont/otrl#OTRL6&#45;&gt;http://w3id.org/oseg/ont/otrl#OTRL -->
<g id="edge35" class="edge">
<title>http://w3id.org/oseg/ont/otrl#OTRL6&#45;&gt;http://w3id.org/oseg/ont/otrl#OTRL</title>
<path fill="none" stroke="black" d="M1117.61,-1209.83C1135.85,-1193.94 1164,-1169.4 1184.46,-1151.56"/>
<polygon fill="black" stroke="black" points="1186.93,-1154.06 1192.16,-1144.85 1182.33,-1148.78 1186.93,-1154.06"/>
<text text-anchor="middle" x="1146.54" y="-1184.5" font-family="Times,serif" font-size="14.00">a</text>
</g>
<!-- http://w3id.org/oseg/ont/otrl#OTRL2 -->
<g id="node19" class="node">
<title>http://w3id.org/oseg/ont/otrl#OTRL2</title>
<ellipse fill="none" stroke="#e377c2" cx="1349.76" cy="-1116.12" rx="67.35" ry="16.03"/>
<text text-anchor="middle" x="1349.76" y="-1112.42" font-family="Times,serif" font-size="14.00">otrl:OTRL2</text>
</g>
<!-- http://w3id.org/oseg/ont/otrl#OTRL2&#45;&gt;http://w3id.org/oseg/ont/otrl#OTRL -->
<g id="edge39" class="edge">
<title>http://w3id.org/oseg/ont/otrl#OTRL2&#45;&gt;http://w3id.org/oseg/ont/otrl#OTRL</title>
<path fill="none" stroke="black" d="M1286.88,-1122.01C1283.9,-1122.29 1280.89,-1122.57 1277.9,-1122.85"/>
<polygon fill="black" stroke="black" points="1277.38,-1119.38 1267.75,-1123.8 1278.04,-1126.35 1277.38,-1119.38"/>
<text text-anchor="middle" x="1277.89" y="-1126.23" font-family="Times,serif" font-size="14.00">a</text>
</g>
<!-- http://w3id.org/oseg/ont/otrl#goal -->
<g id="node22" class="node">
<title>http://w3id.org/oseg/ont/otrl#goal</title>
<ellipse fill="none" stroke="#e377c2" cx="1040.85" cy="-926.15" rx="54.39" ry="16.03"/>
<text text-anchor="middle" x="1040.85" y="-922.45" font-family="Times,serif" font-size="14.00">otrl:goal</text>
</g>
<!-- http://w3id.org/oseg/ont/otrl#goal&#45;&gt;http://w3id.org/oseg/ont/otrl#ODRL -->
<g id="edge40" class="edge">
<title>http://w3id.org/oseg/ont/otrl#goal&#45;&gt;http://w3id.org/oseg/ont/otrl#ODRL</title>
<path fill="none" stroke="black" d="M1030.1,-909.84C1002.64,-868.21 929.82,-757.77 897.1,-708.14"/>
<polygon fill="black" stroke="black" points="899.9,-706.03 891.48,-699.61 894.06,-709.88 899.9,-706.03"/>
<text text-anchor="middle" x="885.6" y="-812.79" font-family="Times,serif" font-size="14.00">dcam:domainIncludes</text>
</g>
<!-- http://w3id.org/oseg/ont/otrl#goal&#45;&gt;http://w3id.org/oseg/ont/otrl#OTRL -->
<g id="edge21" class="edge">
<title>http://w3id.org/oseg/ont/otrl#goal&#45;&gt;http://w3id.org/oseg/ont/otrl#OTRL</title>
<path fill="none" stroke="black" d="M1054.13,-942.08C1083.72,-977.58 1155.21,-1063.33 1190.18,-1105.28"/>
<polygon fill="black" stroke="black" points="1187.57,-1107.62 1196.67,-1113.06 1192.95,-1103.13 1187.57,-1107.62"/>
<text text-anchor="middle" x="1044.16" y="-1027.48" font-family="Times,serif" font-size="14.00">dcam:domainIncludes</text>
</g>
<!-- http://w3id.org/oseg/ont/otrl#goal&#45;&gt;http://www.w3.org/2002/07/owl#DatatypeProperty -->
<g id="edge23" class="edge">
<title>http://w3id.org/oseg/ont/otrl#goal&#45;&gt;http://www.w3.org/2002/07/owl#DatatypeProperty</title>
<path fill="none" stroke="black" d="M1060.24,-910.73C1078.9,-895.91 1107.31,-873.33 1128.48,-856.5"/>
<polygon fill="black" stroke="black" points="1130.83,-859.1 1136.48,-850.14 1126.48,-853.62 1130.83,-859.1"/>
<text text-anchor="middle" x="1089.86" y="-887.42" font-family="Times,serif" font-size="14.00">a</text>
</g>
<!-- http://www.w3.org/1999/02/22&#45;rdf&#45;syntax&#45;ns#langString -->
<g id="node24" class="node">
<title>http://www.w3.org/1999/02/22&#45;rdf&#45;syntax&#45;ns#langString</title>
<ellipse fill="none" stroke="#e377c2" cx="855.27" cy="-972.46" rx="83.38" ry="16.03"/>
<text text-anchor="middle" x="855.27" y="-968.76" font-family="Times,serif" font-size="14.00">rdf:langString</text>
</g>
<!-- http://w3id.org/oseg/ont/otrl#goal&#45;&gt;http://www.w3.org/1999/02/22&#45;rdf&#45;syntax&#45;ns#langString -->
<g id="edge27" class="edge">
<title>http://w3id.org/oseg/ont/otrl#goal&#45;&gt;http://www.w3.org/1999/02/22&#45;rdf&#45;syntax&#45;ns#langString</title>
<path fill="none" stroke="black" d="M998.74,-936.66C974.45,-942.72 943.48,-950.45 916.54,-957.17"/>
<polygon fill="black" stroke="black" points="915.67,-953.78 906.81,-959.6 917.36,-960.58 915.67,-953.78"/>
<text text-anchor="middle" x="936.64" y="-935.72" font-family="Times,serif" font-size="14.00">range</text>
</g>
<!-- http://w3id.org/oseg/ont/otrl#exitCriteria -->
<g id="node25" class="node">
<title>http://w3id.org/oseg/ont/otrl#exitCriteria</title>
<ellipse fill="none" stroke="#e377c2" cx="1086.2" cy="-880.97" rx="91.43" ry="16.03"/>
<text text-anchor="middle" x="1086.2" y="-877.27" font-family="Times,serif" font-size="14.00">otrl:exitCriteria</text>
</g>
<!-- http://w3id.org/oseg/ont/otrl#exitCriteria&#45;&gt;http://w3id.org/oseg/ont/otrl#ODRL -->
<g id="edge14" class="edge">
<title>http://w3id.org/oseg/ont/otrl#exitCriteria&#45;&gt;http://w3id.org/oseg/ont/otrl#ODRL</title>
<path fill="none" stroke="black" d="M1069.39,-864.8C1032.95,-829.74 946.57,-746.66 904.55,-706.24"/>
<polygon fill="black" stroke="black" points="906.87,-703.62 897.24,-699.21 902.02,-708.67 906.87,-703.62"/>
<text text-anchor="middle" x="908.97" y="-789.32" font-family="Times,serif" font-size="14.00">dcam:domainIncludes</text>
</g>
<!-- http://w3id.org/oseg/ont/otrl#exitCriteria&#45;&gt;http://w3id.org/oseg/ont/otrl#OTRL -->
<g id="edge38" class="edge">
<title>http://w3id.org/oseg/ont/otrl#exitCriteria&#45;&gt;http://w3id.org/oseg/ont/otrl#OTRL</title>
<path fill="none" stroke="black" d="M1094.33,-897.25C1115.43,-939.51 1172.03,-1052.89 1197.45,-1103.82"/>
<polygon fill="black" stroke="black" points="1194.36,-1105.47 1201.96,-1112.85 1200.63,-1102.34 1194.36,-1105.47"/>
<text text-anchor="middle" x="1067.89" y="-1004.34" font-family="Times,serif" font-size="14.00">dcam:domainIncludes</text>
</g>
<!-- http://w3id.org/oseg/ont/otrl#exitCriteria&#45;&gt;http://www.w3.org/2002/07/owl#DatatypeProperty -->
<g id="edge28" class="edge">
<title>http://w3id.org/oseg/ont/otrl#exitCriteria&#45;&gt;http://www.w3.org/2002/07/owl#DatatypeProperty</title>
<path fill="none" stroke="black" d="M1110.08,-865.09C1114.57,-862.09 1119.34,-858.92 1124.05,-855.79"/>
<polygon fill="black" stroke="black" points="1126,-858.69 1132.39,-850.24 1122.13,-852.87 1126,-858.69"/>
<text text-anchor="middle" x="1112.57" y="-849.24" font-family="Times,serif" font-size="14.00">a</text>
</g>
<!-- http://w3id.org/oseg/ont/otrl#exitCriteria&#45;&gt;http://www.w3.org/1999/02/22&#45;rdf&#45;syntax&#45;ns#langString -->
<g id="edge42" class="edge">
<title>http://w3id.org/oseg/ont/otrl#exitCriteria&#45;&gt;http://www.w3.org/1999/02/22&#45;rdf&#45;syntax&#45;ns#langString</title>
<path fill="none" stroke="black" d="M1048.59,-895.87C1008.42,-911.78 944.74,-937.01 901.54,-954.13"/>
<polygon fill="black" stroke="black" points="900.12,-950.93 892.11,-957.87 902.69,-957.44 900.12,-950.93"/>
<text text-anchor="middle" x="954.06" y="-913.8" font-family="Times,serif" font-size="14.00">range</text>
</g>
<!-- http://w3id.org/oseg/ont/otrl#ODRL1 -->
<g id="node26" class="node">
<title>http://w3id.org/oseg/ont/otrl#ODRL1</title>
<ellipse fill="none" stroke="#e377c2" cx="1057.69" cy="-566.05" rx="69.09" ry="16.03"/>
<text text-anchor="middle" x="1057.69" y="-562.35" font-family="Times,serif" font-size="14.00">otrl:ODRL1</text>
</g>
<!-- http://w3id.org/oseg/ont/otrl#ODRL1&#45;&gt;http://w3id.org/oseg/ont/otrl#ODRL -->
<g id="edge30" class="edge">
<title>http://w3id.org/oseg/ont/otrl#ODRL1&#45;&gt;http://w3id.org/oseg/ont/otrl#ODRL</title>
<path fill="none" stroke="black" d="M1034.56,-581.39C1003.22,-602.18 947.15,-639.36 912.07,-662.62"/>
<polygon fill="black" stroke="black" points="910.03,-659.77 903.63,-668.22 913.89,-665.61 910.03,-659.77"/>
<text text-anchor="middle" x="968.81" y="-625.81" font-family="Times,serif" font-size="14.00">a</text>
</g>
<!-- http://w3id.org/oseg/ont/otrl#ODRL3Star -->
<g id="node27" class="node">
<title>http://w3id.org/oseg/ont/otrl#ODRL3Star</title>
<ellipse fill="none" stroke="#e377c2" cx="621.17" cy="-753.64" rx="90.52" ry="16.03"/>
<text text-anchor="middle" x="621.17" y="-749.94" font-family="Times,serif" font-size="14.00">otrl:ODRL3Star</text>
</g>
<!-- http://w3id.org/oseg/ont/otrl#ODRL3Star&#45;&gt;http://w3id.org/oseg/ont/otrl#ODRL -->
<g id="edge32" class="edge">
<title>http://w3id.org/oseg/ont/otrl#ODRL3Star&#45;&gt;http://w3id.org/oseg/ont/otrl#ODRL</title>
<path fill="none" stroke="black" d="M671.53,-740C716.31,-727.88 781.59,-710.22 827.29,-697.85"/>
<polygon fill="black" stroke="black" points="828.28,-701.2 837.02,-695.21 826.46,-694.45 828.28,-701.2"/>
<text text-anchor="middle" x="744.91" y="-722.73" font-family="Times,serif" font-size="14.00">a</text>
</g>
<!-- http://w3id.org/oseg/ont/otrl#Odrl5 -->
<g id="node28" class="node">
<title>http://w3id.org/oseg/ont/otrl#Odrl5</title>
<ellipse fill="none" stroke="black" cx="342.54" cy="-16.32" rx="191.75" ry="16.03"/>
<text text-anchor="middle" x="342.54" y="-12.62" font-family="Times,serif" font-size="14.00">http://w3id.org/oseg/ont/otrl#Odrl5</text>
</g>
<!-- http://w3id.org/oseg/ont/otrl#Odrl5&#45;&gt;http://w3id.org/oseg/ont/otrl#Odrl4 -->
<g id="edge4" class="edge">
<title>http://w3id.org/oseg/ont/otrl#Odrl5&#45;&gt;http://w3id.org/oseg/ont/otrl#Odrl4</title>
<path fill="none" stroke="black" d="M355.84,-32.88C392.95,-79.05 497.72,-209.42 541.2,-263.53"/>
<polygon fill="black" stroke="black" points="538.64,-265.93 547.63,-271.53 544.1,-261.54 538.64,-265.93"/>
<text text-anchor="middle" x="368.52" y="-152" font-family="Times,serif" font-size="14.00">schema:supersededBy</text>
</g>
<!-- http://w3id.org/oseg/ont/otrl#Otrl6 -->
<g id="node29" class="node">
<title>http://w3id.org/oseg/ont/otrl#Otrl6</title>
<ellipse fill="none" stroke="black" cx="1111.69" cy="-1268.12" rx="189.51" ry="16.03"/>
<text text-anchor="middle" x="1111.69" y="-1264.42" font-family="Times,serif" font-size="14.00">http://w3id.org/oseg/ont/otrl#Otrl6</text>
</g>
<!-- http://w3id.org/oseg/ont/otrl#Otrl6&#45;&gt;http://w3id.org/oseg/ont/otrl#OTRL6 -->
<g id="edge10" class="edge">
<title>http://w3id.org/oseg/ont/otrl#Otrl6&#45;&gt;http://w3id.org/oseg/ont/otrl#OTRL6</title>
<path fill="none" stroke="black" d="M1106.8,-1251.38C1106.77,-1251.29 1106.74,-1251.19 1106.71,-1251.1"/>
<polygon fill="black" stroke="black" points="1110.25,-1250.73 1104.09,-1242.11 1103.53,-1252.69 1110.25,-1250.73"/>
<text text-anchor="middle" x="1186.75" y="-1240.04" font-family="Times,serif" font-size="14.00">schema:supersededBy</text>
</g>
<!-- http://w3id.org/oseg/ont/otrl#Otrl2 -->
<g id="node30" class="node">
<title>http://w3id.org/oseg/ont/otrl#Otrl2</title>
<ellipse fill="none" stroke="black" cx="1427.04" cy="-1065.19" rx="189.51" ry="16.03"/>
<text text-anchor="middle" x="1427.04" y="-1061.49" font-family="Times,serif" font-size="14.00">http://w3id.org/oseg/ont/otrl#Otrl2</text>
</g>
<!-- http://w3id.org/oseg/ont/otrl#Otrl2&#45;&gt;http://w3id.org/oseg/ont/otrl#OTRL2 -->
<g id="edge16" class="edge">
<title>http://w3id.org/oseg/ont/otrl#Otrl2&#45;&gt;http://w3id.org/oseg/ont/otrl#OTRL2</title>
<path fill="none" stroke="black" d="M1402.16,-1081.58C1395.58,-1085.92 1388.39,-1090.66 1381.51,-1095.19"/>
<polygon fill="black" stroke="black" points="1379.44,-1092.37 1373.01,-1100.79 1383.29,-1098.21 1379.44,-1092.37"/>
<text text-anchor="middle" x="1471.83" y="-1092.19" font-family="Times,serif" font-size="14.00">schema:supersededBy</text>
</g>
<!-- http://w3id.org/oseg/ont/otrl#Otrl1 -->
<g id="node31" class="node">
<title>http://w3id.org/oseg/ont/otrl#Otrl1</title>
<ellipse fill="none" stroke="black" cx="717.14" cy="-1503.52" rx="189.51" ry="16.03"/>
<text text-anchor="middle" x="717.14" y="-1499.82" font-family="Times,serif" font-size="14.00">http://w3id.org/oseg/ont/otrl#Otrl1</text>
</g>
<!-- http://w3id.org/oseg/ont/otrl#Otrl1&#45;&gt;http://w3id.org/oseg/ont/otrl#OTRL1 -->
<g id="edge18" class="edge">
<title>http://w3id.org/oseg/ont/otrl#Otrl1&#45;&gt;http://w3id.org/oseg/ont/otrl#OTRL1</title>
<path fill="none" stroke="black" d="M730.31,-1487.21C768.53,-1439.92 879.55,-1302.51 924.59,-1246.77"/>
<polygon fill="black" stroke="black" points="927.43,-1248.83 930.99,-1238.85 921.98,-1244.43 927.43,-1248.83"/>
<text text-anchor="middle" x="747.45" y="-1370.79" font-family="Times,serif" font-size="14.00">schema:supersededBy</text>
</g>
<!-- http://w3id.org/oseg/ont/otrl#Otrl3 -->
<g id="node32" class="node">
<title>http://w3id.org/oseg/ont/otrl#Otrl3</title>
<ellipse fill="none" stroke="black" cx="1866.27" cy="-1171.25" rx="189.51" ry="16.03"/>
<text text-anchor="middle" x="1866.27" y="-1167.55" font-family="Times,serif" font-size="14.00">http://w3id.org/oseg/ont/otrl#Otrl3</text>
</g>
<!-- http://w3id.org/oseg/ont/otrl#Otrl3&#45;&gt;http://w3id.org/oseg/ont/otrl#OTRL3 -->
<g id="edge25" class="edge">
<title>http://w3id.org/oseg/ont/otrl#Otrl3&#45;&gt;http://w3id.org/oseg/ont/otrl#OTRL3</title>
<path fill="none" stroke="black" d="M1738.35,-1159.2C1687.63,-1154.43 1631.16,-1149.11 1587.65,-1145.02"/>
<polygon fill="black" stroke="black" points="1587.73,-1141.51 1577.45,-1144.06 1587.08,-1148.48 1587.73,-1141.51"/>
<text text-anchor="middle" x="1743" y="-1140.91" font-family="Times,serif" font-size="14.00">schema:supersededBy</text>
</g>
<!-- http://w3id.org/oseg/ont/otrl#Otrl5 -->
<g id="node33" class="node">
<title>http://w3id.org/oseg/ont/otrl#Otrl5</title>
<ellipse fill="none" stroke="black" cx="1694.53" cy="-1557.67" rx="189.51" ry="16.03"/>
<text text-anchor="middle" x="1694.53" y="-1553.97" font-family="Times,serif" font-size="14.00">http://w3id.org/oseg/ont/otrl#Otrl5</text>
</g>
<!-- http://w3id.org/oseg/ont/otrl#Otrl5&#45;&gt;http://w3id.org/oseg/ont/otrl#OTRL5 -->
<g id="edge29" class="edge">
<title>http://w3id.org/oseg/ont/otrl#Otrl5&#45;&gt;http://w3id.org/oseg/ont/otrl#OTRL5</title>
<path fill="none" stroke="black" d="M1677.67,-1541.42C1631.43,-1496.84 1502.48,-1372.55 1448.86,-1320.87"/>
<polygon fill="black" stroke="black" points="1451.14,-1318.21 1441.52,-1313.79 1446.29,-1323.25 1451.14,-1318.21"/>
<text text-anchor="middle" x="1483.27" y="-1434.94" font-family="Times,serif" font-size="14.00">schema:supersededBy</text>
</g>
<!-- http://w3id.org/oseg/ont/otrl#Odrl3Star -->
<g id="node34" class="node">
<title>http://w3id.org/oseg/ont/otrl#Odrl3Star</title>
<ellipse fill="none" stroke="black" cx="213.43" cy="-842.36" rx="213.59" ry="16.03"/>
<text text-anchor="middle" x="213.43" y="-838.66" font-family="Times,serif" font-size="14.00">http://w3id.org/oseg/ont/otrl#Odrl3Star</text>
</g>
<!-- http://w3id.org/oseg/ont/otrl#Odrl3Star&#45;&gt;http://w3id.org/oseg/ont/otrl#ODRL3Star -->
<g id="edge31" class="edge">
<title>http://w3id.org/oseg/ont/otrl#Odrl3Star&#45;&gt;http://w3id.org/oseg/ont/otrl#ODRL3Star</title>
<path fill="none" stroke="black" d="M283.98,-827C359.52,-810.57 478.54,-784.67 553.11,-768.44"/>
<polygon fill="black" stroke="black" points="554.3,-771.77 563.32,-766.22 552.81,-764.93 554.3,-771.77"/>
<text text-anchor="middle" x="338.55" y="-801.52" font-family="Times,serif" font-size="14.00">schema:supersededBy</text>
</g>
<!-- http://w3id.org/oseg/ont/otrl#Odrl1 -->
<g id="node35" class="node">
<title>http://w3id.org/oseg/ont/otrl#Odrl1</title>
<ellipse fill="none" stroke="black" cx="1117.09" cy="-525.19" rx="191.75" ry="16.03"/>
<text text-anchor="middle" x="1117.09" y="-521.49" font-family="Times,serif" font-size="14.00">http://w3id.org/oseg/ont/otrl#Odrl1</text>
</g>
<!-- http://w3id.org/oseg/ont/otrl#Odrl1&#45;&gt;http://w3id.org/oseg/ont/otrl#ODRL1 -->
<g id="edge33" class="edge">
<title>http://w3id.org/oseg/ont/otrl#Odrl1&#45;&gt;http://w3id.org/oseg/ont/otrl#ODRL1</title>
<path fill="none" stroke="black" d="M1093.62,-541.34C1091.96,-542.48 1090.28,-543.63 1088.6,-544.79"/>
<polygon fill="black" stroke="black" points="1086.48,-542 1080.22,-550.55 1090.45,-547.77 1086.48,-542"/>
<text text-anchor="middle" x="1171.11" y="-546.87" font-family="Times,serif" font-size="14.00">schema:supersededBy</text>
</g>
<!-- http://w3id.org/oseg/ont/otrl#Odrl2 -->
<g id="node36" class="node">
<title>http://w3id.org/oseg/ont/otrl#Odrl2</title>
<ellipse fill="none" stroke="black" cx="875.14" cy="-65.86" rx="191.75" ry="16.03"/>
<text text-anchor="middle" x="875.14" y="-62.16" font-family="Times,serif" font-size="14.00">http://w3id.org/oseg/ont/otrl#Odrl2</text>
</g>
<!-- http://w3id.org/oseg/ont/otrl#Odrl2&#45;&gt;http://w3id.org/oseg/ont/otrl#ODRL2 -->
<g id="edge34" class="edge">
<title>http://w3id.org/oseg/ont/otrl#Odrl2&#45;&gt;http://w3id.org/oseg/ont/otrl#ODRL2</title>
<path fill="none" stroke="black" d="M874.86,-82.55C873.86,-141.95 870.47,-343.36 869.24,-416.34"/>
<polygon fill="black" stroke="black" points="865.74,-416.48 869.07,-426.53 872.74,-416.59 865.74,-416.48"/>
<text text-anchor="middle" x="792.05" y="-253.25" font-family="Times,serif" font-size="14.00">schema:supersededBy</text>
</g>
<!-- http://w3id.org/oseg/ont/otrl#Otrl -->
<g id="node37" class="node">
<title>http://w3id.org/oseg/ont/otrl#Otrl</title>
<ellipse fill="none" stroke="black" cx="1291.48" cy="-1180.72" rx="183.28" ry="16.03"/>
<text text-anchor="middle" x="1291.48" y="-1177.02" font-family="Times,serif" font-size="14.00">http://w3id.org/oseg/ont/otrl#Otrl</text>
</g>
<!-- http://w3id.org/oseg/ont/otrl#Otrl&#45;&gt;http://w3id.org/oseg/ont/otrl#OTRL -->
<g id="edge36" class="edge">
<title>http://w3id.org/oseg/ont/otrl#Otrl&#45;&gt;http://w3id.org/oseg/ont/otrl#OTRL</title>
<path fill="none" stroke="black" d="M1265.74,-1164.42C1258.44,-1159.8 1250.41,-1154.71 1242.76,-1149.87"/>
<polygon fill="black" stroke="black" points="1244.36,-1146.74 1234.04,-1144.34 1240.61,-1152.65 1244.36,-1146.74"/>
<text text-anchor="middle" x="1334.25" y="-1145.94" font-family="Times,serif" font-size="14.00">schema:supersededBy</text>
</g>
<!-- http://w3id.org/oseg/ont/otrl#Odrl3 -->
<g id="node38" class="node">
<title>http://w3id.org/oseg/ont/otrl#Odrl3</title>
<ellipse fill="none" stroke="black" cx="294.46" cy="-513.07" rx="191.75" ry="16.03"/>
<text text-anchor="middle" x="294.46" y="-509.37" font-family="Times,serif" font-size="14.00">http://w3id.org/oseg/ont/otrl#Odrl3</text>
</g>
<!-- http://w3id.org/oseg/ont/otrl#Odrl3&#45;&gt;http://w3id.org/oseg/ont/otrl#ODRL3 -->
<g id="edge37" class="edge">
<title>http://w3id.org/oseg/ont/otrl#Odrl3&#45;&gt;http://w3id.org/oseg/ont/otrl#ODRL3</title>
<path fill="none" stroke="black" d="M347.66,-528.74C415.4,-548.7 531.77,-582.98 599.41,-602.9"/>
<polygon fill="black" stroke="black" points="598.44,-606.26 609.02,-605.73 600.42,-599.55 598.44,-606.26"/>
<text text-anchor="middle" x="393.53" y="-569.62" font-family="Times,serif" font-size="14.00">schema:supersededBy</text>
</g>
<!-- http://w3id.org/oseg/ont/otrl#Odrl -->
<g id="node39" class="node">
<title>http://w3id.org/oseg/ont/otrl#Odrl</title>
<ellipse fill="none" stroke="black" cx="981.29" cy="-340.63" rx="185.02" ry="16.03"/>
<text text-anchor="middle" x="981.29" y="-336.93" font-family="Times,serif" font-size="14.00">http://w3id.org/oseg/ont/otrl#Odrl</text>
</g>
<!-- http://w3id.org/oseg/ont/otrl#Odrl&#45;&gt;http://w3id.org/oseg/ont/otrl#ODRL -->
<g id="edge41" class="edge">
<title>http://w3id.org/oseg/ont/otrl#Odrl&#45;&gt;http://w3id.org/oseg/ont/otrl#ODRL</title>
<path fill="none" stroke="black" d="M976.44,-357.16C960.29,-412.25 908.19,-589.88 888.45,-657.19"/>
<polygon fill="black" stroke="black" points="885.03,-656.43 885.57,-667.01 891.74,-658.4 885.03,-656.43"/>
<text text-anchor="middle" x="1012.45" y="-495.98" font-family="Times,serif" font-size="14.00">schema:supersededBy</text>
</g>
<!-- http://w3id.org/oseg/ont/otrl#Otrl4 -->
<g id="node40" class="node">
<title>http://w3id.org/oseg/ont/otrl#Otrl4</title>
<ellipse fill="none" stroke="black" cx="1329.25" cy="-1401.36" rx="189.51" ry="16.03"/>
<text text-anchor="middle" x="1329.25" y="-1397.66" font-family="Times,serif" font-size="14.00">http://w3id.org/oseg/ont/otrl#Otrl4</text>
</g>
<!-- http://w3id.org/oseg/ont/otrl#Otrl4&#45;&gt;http://w3id.org/oseg/ont/otrl#OTRL4 -->
<g id="edge43" class="edge">
<title>http://w3id.org/oseg/ont/otrl#Otrl4&#45;&gt;http://w3id.org/oseg/ont/otrl#OTRL4</title>
<path fill="none" stroke="black" d="M1320.95,-1384.94C1318.55,-1380.19 1315.88,-1374.9 1313.27,-1369.75"/>
<polygon fill="black" stroke="black" points="1316.38,-1368.13 1308.74,-1360.78 1310.13,-1371.28 1316.38,-1368.13"/>
<text text-anchor="middle" x="1237.11" y="-1366.14" font-family="Times,serif" font-size="14.00">schema:supersededBy</text>
</g>
</g>
</svg>
