<?xml version="1.0" encoding="UTF-8" standalone="no"?>
<!DOCTYPE svg PUBLIC "-//W3C//DTD SVG 1.1//EN"
 "http://www.w3.org/Graphics/SVG/1.1/DTD/svg11.dtd">
<!-- Generated by graphviz version 2.43.0 (0)
 -->
<!-- Title: G Pages: 1 -->
<svg width="2019pt" height="2108pt"
 viewBox="0.00 0.00 2019.00 2108.00" xmlns="http://www.w3.org/2000/svg" xmlns:xlink="http://www.w3.org/1999/xlink">
<g id="graph0" class="graph" transform="scale(1 1) rotate(0) translate(4 2104)">
<title>G</title>
<polygon fill="white" stroke="transparent" points="-4,4 -4,-2104 2015,-2104 2015,4 -4,4"/>
<!-- http://www.w3.org/2002/07/owl#Ontology -->
<g id="node1" class="node">
<title>http://www.w3.org/2002/07/owl#Ontology</title>
<ellipse fill="none" stroke="#1f77b4" cx="1681.86" cy="-853.09" rx="77.56" ry="16.03"/>
<text text-anchor="middle" x="1681.86" y="-849.39" font-family="Times,serif" font-size="14.00">owl:Ontology</text>
</g>
<!-- http://w3id.org/oseg/ont/otrl#OTRL -->
<g id="node2" class="node">
<title>http://w3id.org/oseg/ont/otrl#OTRL</title>
<ellipse fill="none" stroke="#e377c2" cx="836.52" cy="-607.89" rx="60.62" ry="16.03"/>
<text text-anchor="middle" x="836.52" y="-604.19" font-family="Times,serif" font-size="14.00">otrl:OTRL</text>
</g>
<!-- http://spdx.org/rdf/terms#SpdxItem -->
<g id="node3" class="node">
<title>http://spdx.org/rdf/terms#SpdxItem</title>
<ellipse fill="none" stroke="#1f77b4" cx="1874" cy="-882.79" rx="87.86" ry="16.03"/>
<text text-anchor="middle" x="1874" y="-879.09" font-family="Times,serif" font-size="14.00">spdx:SpdxItem</text>
</g>
<!-- http://w3id.org/oseg/ont/otrl#ODRL -->
<g id="node4" class="node">
<title>http://w3id.org/oseg/ont/otrl#ODRL</title>
<ellipse fill="none" stroke="#e377c2" cx="1088.29" cy="-1172.07" rx="62.87" ry="16.03"/>
<text text-anchor="middle" x="1088.29" y="-1168.37" font-family="Times,serif" font-size="14.00">otrl:ODRL</text>
</g>
<!-- http://www.w3.org/2002/07/owl#DatatypeProperty -->
<g id="node5" class="node">
<title>http://www.w3.org/2002/07/owl#DatatypeProperty</title>
<ellipse fill="none" stroke="#1f77b4" cx="1224.82" cy="-823.19" rx="123.07" ry="16.03"/>
<text text-anchor="middle" x="1224.82" y="-819.49" font-family="Times,serif" font-size="14.00">owl:DatatypeProperty</text>
</g>
<!-- http://www.w3.org/1999/02/22&#45;rdf&#45;syntax&#45;ns#langString -->
<g id="node6" class="node">
<title>http://www.w3.org/1999/02/22&#45;rdf&#45;syntax&#45;ns#langString</title>
<ellipse fill="none" stroke="#e377c2" cx="745.25" cy="-945.2" rx="83.38" ry="16.03"/>
<text text-anchor="middle" x="745.25" y="-941.5" font-family="Times,serif" font-size="14.00">rdf:langString</text>
</g>
<!-- http://w3id.org/oseg/ont/oseg&#45;profiles#martinHaeuer -->
<g id="node7" class="node">
<title>http://w3id.org/oseg/ont/oseg&#45;profiles#martinHaeuer</title>
<ellipse fill="none" stroke="#e377c2" cx="1796.36" cy="-644.76" rx="116.85" ry="16.03"/>
<text text-anchor="middle" x="1796.36" y="-641.06" font-family="Times,serif" font-size="14.00">osegprof:martinHa...</text>
</g>
<!-- http://w3id.org/oseg/ont/otrl#Odrl4 -->
<g id="node8" class="node">
<title>http://w3id.org/oseg/ont/otrl#Odrl4</title>
<ellipse fill="none" stroke="#e377c2" cx="1154.91" cy="-1723.58" rx="61.54" ry="16.03"/>
<text text-anchor="middle" x="1154.91" y="-1719.88" font-family="Times,serif" font-size="14.00">otrl:Odrl4</text>
</g>
<!-- http://w3id.org/oseg/ont/otrl#ODRL4 -->
<g id="node15" class="node">
<title>http://w3id.org/oseg/ont/otrl#ODRL4</title>
<ellipse fill="none" stroke="#e377c2" cx="1121.89" cy="-1447.51" rx="69.09" ry="16.03"/>
<text text-anchor="middle" x="1121.89" y="-1443.81" font-family="Times,serif" font-size="14.00">otrl:ODRL4</text>
</g>
<!-- http://w3id.org/oseg/ont/otrl#Odrl4&#45;&gt;http://w3id.org/oseg/ont/otrl#ODRL4 -->
<g id="edge13" class="edge">
<title>http://w3id.org/oseg/ont/otrl#Odrl4&#45;&gt;http://w3id.org/oseg/ont/otrl#ODRL4</title>
<path fill="none" stroke="black" d="M1152.95,-1707.14C1147.44,-1661.11 1131.83,-1530.63 1125.08,-1474.13"/>
<polygon fill="black" stroke="black" points="1128.51,-1473.38 1123.85,-1463.86 1121.56,-1474.21 1128.51,-1473.38"/>
<text text-anchor="middle" x="1059.01" y="-1594.43" font-family="Times,serif" font-size="14.00">schema:supersededBy</text>
</g>
<!-- http://w3id.org/oseg/ont/otrl#ODRL3Star -->
<g id="node9" class="node">
<title>http://w3id.org/oseg/ont/otrl#ODRL3Star</title>
<ellipse fill="none" stroke="#e377c2" cx="853.53" cy="-1230.94" rx="90.52" ry="16.03"/>
<text text-anchor="middle" x="853.53" y="-1227.24" font-family="Times,serif" font-size="14.00">otrl:ODRL3Star</text>
</g>
<!-- http://w3id.org/oseg/ont/otrl#ODRL3Star&#45;&gt;http://w3id.org/oseg/ont/otrl#ODRL -->
<g id="edge8" class="edge">
<title>http://w3id.org/oseg/ont/otrl#ODRL3Star&#45;&gt;http://w3id.org/oseg/ont/otrl#ODRL</title>
<path fill="none" stroke="black" d="M906.51,-1217.65C944.25,-1208.19 994.85,-1195.5 1033.08,-1185.92"/>
<polygon fill="black" stroke="black" points="1034.17,-1189.25 1043.02,-1183.43 1032.46,-1182.46 1034.17,-1189.25"/>
<text text-anchor="middle" x="965.29" y="-1205.59" font-family="Times,serif" font-size="14.00">a</text>
</g>
<!-- http://w3id.org/oseg/ont/otrl#OTRL3 -->
<g id="node10" class="node">
<title>http://w3id.org/oseg/ont/otrl#OTRL3</title>
<ellipse fill="none" stroke="#e377c2" cx="616.67" cy="-487.31" rx="67.35" ry="16.03"/>
<text text-anchor="middle" x="616.67" y="-483.61" font-family="Times,serif" font-size="14.00">otrl:OTRL3</text>
</g>
<!-- http://w3id.org/oseg/ont/otrl#OTRL3&#45;&gt;http://w3id.org/oseg/ont/otrl#OTRL -->
<g id="edge27" class="edge">
<title>http://w3id.org/oseg/ont/otrl#OTRL3&#45;&gt;http://w3id.org/oseg/ont/otrl#OTRL</title>
<path fill="none" stroke="black" d="M644.07,-502.33C683.73,-524.08 757.15,-564.35 800.94,-588.37"/>
<polygon fill="black" stroke="black" points="799.36,-591.5 809.81,-593.24 802.73,-585.36 799.36,-591.5"/>
<text text-anchor="middle" x="718.01" y="-549.15" font-family="Times,serif" font-size="14.00">a</text>
</g>
<!-- http://w3id.org/oseg/ont/otrl#OTRL6 -->
<g id="node11" class="node">
<title>http://w3id.org/oseg/ont/otrl#OTRL6</title>
<ellipse fill="none" stroke="#e377c2" cx="840.87" cy="-365.02" rx="67.35" ry="16.03"/>
<text text-anchor="middle" x="840.87" y="-361.32" font-family="Times,serif" font-size="14.00">otrl:OTRL6</text>
</g>
<!-- http://w3id.org/oseg/ont/otrl#OTRL6&#45;&gt;http://w3id.org/oseg/ont/otrl#OTRL -->
<g id="edge7" class="edge">
<title>http://w3id.org/oseg/ont/otrl#OTRL6&#45;&gt;http://w3id.org/oseg/ont/otrl#OTRL</title>
<path fill="none" stroke="black" d="M840.58,-381.33C839.84,-422.45 837.91,-530.66 837,-581.18"/>
<polygon fill="black" stroke="black" points="833.5,-581.26 836.82,-591.33 840.5,-581.39 833.5,-581.26"/>
<text text-anchor="middle" x="834.29" y="-485.06" font-family="Times,serif" font-size="14.00">a</text>
</g>
<!-- http://spdx.org/licenses/GPL&#45;3.0&#45;or&#45;later -->
<g id="node12" class="node">
<title>http://spdx.org/licenses/GPL&#45;3.0&#45;or&#45;later</title>
<ellipse fill="none" stroke="#e377c2" cx="1705.02" cy="-729.24" rx="108.79" ry="16.03"/>
<text text-anchor="middle" x="1705.02" y="-725.54" font-family="Times,serif" font-size="14.00">spdxl:GPL&#45;3.0&#45;or&#45;...</text>
</g>
<!-- http://w3id.org/oseg/ont/otrl -->
<g id="node13" class="node">
<title>http://w3id.org/oseg/ont/otrl</title>
<ellipse fill="none" stroke="#e377c2" cx="1797.68" cy="-685.52" rx="50.82" ry="16.03"/>
<text text-anchor="middle" x="1797.68" y="-681.82" font-family="Times,serif" font-size="14.00">ns1:otrl</text>
</g>
<!-- http://w3id.org/oseg/ont/otrl&#45;&gt;http://www.w3.org/2002/07/owl#Ontology -->
<g id="edge25" class="edge">
<title>http://w3id.org/oseg/ont/otrl&#45;&gt;http://www.w3.org/2002/07/owl#Ontology</title>
<path fill="none" stroke="black" d="M1786.58,-701.58C1766.31,-730.91 1723.18,-793.3 1699.08,-828.18"/>
<polygon fill="black" stroke="black" points="1695.91,-826.61 1693.1,-836.83 1701.67,-830.59 1695.91,-826.61"/>
<text text-anchor="middle" x="1738.33" y="-768.68" font-family="Times,serif" font-size="14.00">a</text>
</g>
<!-- http://w3id.org/oseg/ont/otrl&#45;&gt;http://spdx.org/rdf/terms#SpdxItem -->
<g id="edge11" class="edge">
<title>http://w3id.org/oseg/ont/otrl&#45;&gt;http://spdx.org/rdf/terms#SpdxItem</title>
<path fill="none" stroke="black" d="M1803.93,-701.66C1817.15,-735.83 1848.05,-815.73 1864.03,-857.04"/>
<polygon fill="black" stroke="black" points="1860.79,-858.36 1867.66,-866.42 1867.32,-855.83 1860.79,-858.36"/>
<text text-anchor="middle" x="1829.48" y="-783.15" font-family="Times,serif" font-size="14.00">a</text>
</g>
<!-- http://w3id.org/oseg/ont/otrl&#45;&gt;http://w3id.org/oseg/ont/oseg&#45;profiles#martinHaeuer -->
<g id="edge3" class="edge">
<title>http://w3id.org/oseg/ont/otrl&#45;&gt;http://w3id.org/oseg/ont/oseg&#45;profiles#martinHaeuer</title>
<path fill="none" stroke="black" d="M1803.77,-669.2C1803.78,-669.11 1803.78,-669.03 1803.78,-668.94"/>
<polygon fill="black" stroke="black" points="1807.35,-670.96 1803.54,-661.07 1800.35,-671.18 1807.35,-670.96"/>
<text text-anchor="middle" x="1859.28" y="-672.87" font-family="Times,serif" font-size="14.00">schema:creator</text>
</g>
<!-- http://w3id.org/oseg/ont/otrl&#45;&gt;http://w3id.org/oseg/ont/oseg&#45;profiles#martinHaeuer -->
<g id="edge32" class="edge">
<title>http://w3id.org/oseg/ont/otrl&#45;&gt;http://w3id.org/oseg/ont/oseg&#45;profiles#martinHaeuer</title>
<path fill="none" stroke="black" d="M1790.51,-669.15C1790.49,-668.99 1790.48,-668.82 1790.46,-668.66"/>
<polygon fill="black" stroke="black" points="1794.03,-671.05 1790.27,-661.14 1787.03,-671.23 1794.03,-671.05"/>
<text text-anchor="middle" x="1732.98" y="-672.71" font-family="Times,serif" font-size="14.00">dcterms:creator</text>
</g>
<!-- http://w3id.org/oseg/ont/otrl&#45;&gt;http://spdx.org/licenses/GPL&#45;3.0&#45;or&#45;later -->
<g id="edge10" class="edge">
<title>http://w3id.org/oseg/ont/otrl&#45;&gt;http://spdx.org/licenses/GPL&#45;3.0&#45;or&#45;later</title>
<path fill="none" stroke="black" d="M1769.12,-698.99C1762.24,-702.24 1754.75,-705.77 1747.39,-709.25"/>
<polygon fill="black" stroke="black" points="1745.74,-706.15 1738.19,-713.59 1748.73,-712.48 1745.74,-706.15"/>
<text text-anchor="middle" x="1682.25" y="-692.92" font-family="Times,serif" font-size="14.00">spdx:licenseDeclared</text>
</g>
<!-- http://w3id.org/oseg/ont/1.1.0/otrl -->
<g id="node18" class="node">
<title>http://w3id.org/oseg/ont/1.1.0/otrl</title>
<ellipse fill="none" stroke="#e377c2" cx="1959.95" cy="-731.35" rx="50.82" ry="16.03"/>
<text text-anchor="middle" x="1959.95" y="-727.65" font-family="Times,serif" font-size="14.00">ns2:otrl</text>
</g>
<!-- http://w3id.org/oseg/ont/otrl&#45;&gt;http://w3id.org/oseg/ont/1.1.0/otrl -->
<g id="edge18" class="edge">
<title>http://w3id.org/oseg/ont/otrl&#45;&gt;http://w3id.org/oseg/ont/1.1.0/otrl</title>
<path fill="none" stroke="black" d="M1836.14,-696.38C1858.87,-702.8 1887.86,-710.99 1912.07,-717.83"/>
<polygon fill="black" stroke="black" points="1911.2,-721.22 1921.77,-720.57 1913.1,-714.48 1911.2,-721.22"/>
<text text-anchor="middle" x="1925.6" y="-695.9" font-family="Times,serif" font-size="14.00">owl:versionIRI</text>
</g>
<!-- http://w3id.org/oseg/ont/oseg&#45;profiles#robinVobruba -->
<g id="node21" class="node">
<title>http://w3id.org/oseg/ont/oseg&#45;profiles#robinVobruba</title>
<ellipse fill="none" stroke="#e377c2" cx="1553.79" cy="-645.11" rx="113.69" ry="16.03"/>
<text text-anchor="middle" x="1553.79" y="-641.41" font-family="Times,serif" font-size="14.00">osegprof:robinVob...</text>
</g>
<!-- http://w3id.org/oseg/ont/otrl&#45;&gt;http://w3id.org/oseg/ont/oseg&#45;profiles#robinVobruba -->
<g id="edge23" class="edge">
<title>http://w3id.org/oseg/ont/otrl&#45;&gt;http://w3id.org/oseg/ont/oseg&#45;profiles#robinVobruba</title>
<path fill="none" stroke="black" d="M1760.67,-674.27C1733.49,-668.39 1695.15,-661.48 1658.84,-655.74"/>
<polygon fill="black" stroke="black" points="1659.08,-652.24 1648.66,-654.15 1658,-659.15 1659.08,-652.24"/>
<text text-anchor="middle" x="1652.25" y="-668.8" font-family="Times,serif" font-size="14.00">dcterms:creator</text>
</g>
<!-- http://w3id.org/oseg/ont/otrl&#45;&gt;http://w3id.org/oseg/ont/oseg&#45;profiles#robinVobruba -->
<g id="edge41" class="edge">
<title>http://w3id.org/oseg/ont/otrl&#45;&gt;http://w3id.org/oseg/ont/oseg&#45;profiles#robinVobruba</title>
<path fill="none" stroke="black" d="M1747.42,-682.81C1709.38,-677.96 1656.92,-669.43 1616.19,-661.54"/>
<polygon fill="black" stroke="black" points="1616.86,-658.1 1606.37,-659.6 1615.51,-664.97 1616.86,-658.1"/>
<text text-anchor="middle" x="1626.31" y="-675.98" font-family="Times,serif" font-size="14.00">schema:creator</text>
</g>
<!-- http://id.loc.gov/vocabulary/iso639&#45;1/en -->
<g id="node23" class="node">
<title>http://id.loc.gov/vocabulary/iso639&#45;1/en</title>
<ellipse fill="none" stroke="#e377c2" cx="1917.3" cy="-577.24" rx="45.01" ry="16.03"/>
<text text-anchor="middle" x="1917.3" y="-573.54" font-family="Times,serif" font-size="14.00">ns3:en</text>
</g>
<!-- http://w3id.org/oseg/ont/otrl&#45;&gt;http://id.loc.gov/vocabulary/iso639&#45;1/en -->
<g id="edge28" class="edge">
<title>http://w3id.org/oseg/ont/otrl&#45;&gt;http://id.loc.gov/vocabulary/iso639&#45;1/en</title>
<path fill="none" stroke="black" d="M1814.82,-670C1835.28,-651.49 1869.63,-620.39 1892.86,-599.36"/>
<polygon fill="black" stroke="black" points="1895.51,-601.68 1900.58,-592.37 1890.82,-596.49 1895.51,-601.68"/>
<text text-anchor="middle" x="1918.34" y="-623.48" font-family="Times,serif" font-size="14.00">dcterms:language</text>
</g>
<!-- http://w3id.org/oseg/ont/oseg&#45;profiles#Iopa -->
<g id="node26" class="node">
<title>http://w3id.org/oseg/ont/oseg&#45;profiles#Iopa</title>
<ellipse fill="none" stroke="#e377c2" cx="1733.1" cy="-496.5" rx="80.72" ry="16.03"/>
<text text-anchor="middle" x="1733.1" y="-492.8" font-family="Times,serif" font-size="14.00">osegprof:Iopa</text>
</g>
<!-- http://w3id.org/oseg/ont/otrl&#45;&gt;http://w3id.org/oseg/ont/oseg&#45;profiles#Iopa -->
<g id="edge36" class="edge">
<title>http://w3id.org/oseg/ont/otrl&#45;&gt;http://w3id.org/oseg/ont/oseg&#45;profiles#Iopa</title>
<path fill="none" stroke="black" d="M1792.06,-669.07C1780.8,-636.11 1755.38,-561.71 1741.89,-522.23"/>
<polygon fill="black" stroke="black" points="1745.2,-521.1 1738.66,-512.77 1738.58,-523.36 1745.2,-521.1"/>
<text text-anchor="middle" x="1701.48" y="-599.45" font-family="Times,serif" font-size="14.00">dcterms:publisher</text>
</g>
<!-- http://w3id.org/oseg/ont/otrl#OTRL5 -->
<g id="node14" class="node">
<title>http://w3id.org/oseg/ont/otrl#OTRL5</title>
<ellipse fill="none" stroke="#e377c2" cx="663.06" cy="-412.81" rx="67.35" ry="16.03"/>
<text text-anchor="middle" x="663.06" y="-409.11" font-family="Times,serif" font-size="14.00">otrl:OTRL5</text>
</g>
<!-- http://w3id.org/oseg/ont/otrl#OTRL5&#45;&gt;http://w3id.org/oseg/ont/otrl#OTRL -->
<g id="edge14" class="edge">
<title>http://w3id.org/oseg/ont/otrl#OTRL5&#45;&gt;http://w3id.org/oseg/ont/otrl#OTRL</title>
<path fill="none" stroke="black" d="M677.26,-428.77C707.76,-463.08 779.7,-543.99 815.52,-584.26"/>
<polygon fill="black" stroke="black" points="813.12,-586.83 822.38,-591.98 818.35,-582.18 813.12,-586.83"/>
<text text-anchor="middle" x="741.89" y="-510.32" font-family="Times,serif" font-size="14.00">a</text>
</g>
<!-- http://w3id.org/oseg/ont/otrl#ODRL4&#45;&gt;http://w3id.org/oseg/ont/otrl#ODRL -->
<g id="edge21" class="edge">
<title>http://w3id.org/oseg/ont/otrl#ODRL4&#45;&gt;http://w3id.org/oseg/ont/otrl#ODRL</title>
<path fill="none" stroke="black" d="M1119.89,-1431.1C1114.29,-1385.18 1098.41,-1255 1091.53,-1198.63"/>
<polygon fill="black" stroke="black" points="1094.96,-1197.9 1090.28,-1188.39 1088.02,-1198.74 1094.96,-1197.9"/>
<text text-anchor="middle" x="1101.21" y="-1318.67" font-family="Times,serif" font-size="14.00">a</text>
</g>
<!-- http://w3id.org/oseg/ont/otrl#ODRL3 -->
<g id="node16" class="node">
<title>http://w3id.org/oseg/ont/otrl#ODRL3</title>
<ellipse fill="none" stroke="#e377c2" cx="966.43" cy="-1407.33" rx="69.09" ry="16.03"/>
<text text-anchor="middle" x="966.43" y="-1403.63" font-family="Times,serif" font-size="14.00">otrl:ODRL3</text>
</g>
<!-- http://w3id.org/oseg/ont/otrl#ODRL3&#45;&gt;http://w3id.org/oseg/ont/otrl#ODRL -->
<g id="edge34" class="edge">
<title>http://w3id.org/oseg/ont/otrl#ODRL3&#45;&gt;http://w3id.org/oseg/ont/otrl#ODRL</title>
<path fill="none" stroke="black" d="M974.8,-1391.16C995.67,-1350.87 1050.12,-1245.77 1075.24,-1197.27"/>
<polygon fill="black" stroke="black" points="1078.36,-1198.85 1079.85,-1188.36 1072.15,-1195.63 1078.36,-1198.85"/>
<text text-anchor="middle" x="1020.52" y="-1298.02" font-family="Times,serif" font-size="14.00">a</text>
</g>
<!-- http://w3id.org/oseg/ont/otrl#OTRL2 -->
<g id="node17" class="node">
<title>http://w3id.org/oseg/ont/otrl#OTRL2</title>
<ellipse fill="none" stroke="#e377c2" cx="588.76" cy="-659.56" rx="67.35" ry="16.03"/>
<text text-anchor="middle" x="588.76" y="-655.86" font-family="Times,serif" font-size="14.00">otrl:OTRL2</text>
</g>
<!-- http://w3id.org/oseg/ont/otrl#OTRL2&#45;&gt;http://w3id.org/oseg/ont/otrl#OTRL -->
<g id="edge16" class="edge">
<title>http://w3id.org/oseg/ont/otrl#OTRL2&#45;&gt;http://w3id.org/oseg/ont/otrl#OTRL</title>
<path fill="none" stroke="black" d="M639.79,-648.92C680.19,-640.49 736.61,-628.73 778.67,-619.95"/>
<polygon fill="black" stroke="black" points="779.42,-623.37 788.5,-617.9 777.99,-616.52 779.42,-623.37"/>
<text text-anchor="middle" x="704.73" y="-638.24" font-family="Times,serif" font-size="14.00">a</text>
</g>
<!-- http://w3id.org/oseg/ont/otrl#OTRL4 -->
<g id="node19" class="node">
<title>http://w3id.org/oseg/ont/otrl#OTRL4</title>
<ellipse fill="none" stroke="#e377c2" cx="1083.83" cy="-478.43" rx="67.35" ry="16.03"/>
<text text-anchor="middle" x="1083.83" y="-474.73" font-family="Times,serif" font-size="14.00">otrl:OTRL4</text>
</g>
<!-- http://w3id.org/oseg/ont/otrl#OTRL4&#45;&gt;http://w3id.org/oseg/ont/otrl#OTRL -->
<g id="edge42" class="edge">
<title>http://w3id.org/oseg/ont/otrl#OTRL4&#45;&gt;http://w3id.org/oseg/ont/otrl#OTRL</title>
<path fill="none" stroke="black" d="M1055.46,-493.28C1010.64,-516.74 923.46,-562.38 873.7,-588.43"/>
<polygon fill="black" stroke="black" points="871.8,-585.47 864.56,-593.21 875.05,-591.67 871.8,-585.47"/>
<text text-anchor="middle" x="960.08" y="-544.66" font-family="Times,serif" font-size="14.00">a</text>
</g>
<!-- http://w3id.org/oseg/ont/otrl#OTRL1 -->
<g id="node20" class="node">
<title>http://w3id.org/oseg/ont/otrl#OTRL1</title>
<ellipse fill="none" stroke="#e377c2" cx="996.97" cy="-378.3" rx="67.35" ry="16.03"/>
<text text-anchor="middle" x="996.97" y="-374.6" font-family="Times,serif" font-size="14.00">otrl:OTRL1</text>
</g>
<!-- http://w3id.org/oseg/ont/otrl#OTRL1&#45;&gt;http://w3id.org/oseg/ont/otrl#OTRL -->
<g id="edge39" class="edge">
<title>http://w3id.org/oseg/ont/otrl#OTRL1&#45;&gt;http://w3id.org/oseg/ont/otrl#OTRL</title>
<path fill="none" stroke="black" d="M985.68,-394.45C958.01,-434.05 886.62,-536.2 853.67,-583.36"/>
<polygon fill="black" stroke="black" points="850.65,-581.56 847.79,-591.76 856.39,-585.57 850.65,-581.56"/>
<text text-anchor="middle" x="915.17" y="-492.7" font-family="Times,serif" font-size="14.00">a</text>
</g>
<!-- http://w3id.org/oseg/ont/otrl#goal -->
<g id="node22" class="node">
<title>http://w3id.org/oseg/ont/otrl#goal</title>
<ellipse fill="none" stroke="#e377c2" cx="985.5" cy="-876.94" rx="54.39" ry="16.03"/>
<text text-anchor="middle" x="985.5" y="-873.24" font-family="Times,serif" font-size="14.00">otrl:goal</text>
</g>
<!-- http://w3id.org/oseg/ont/otrl#goal&#45;&gt;http://w3id.org/oseg/ont/otrl#OTRL -->
<g id="edge9" class="edge">
<title>http://w3id.org/oseg/ont/otrl#goal&#45;&gt;http://w3id.org/oseg/ont/otrl#OTRL</title>
<path fill="none" stroke="black" d="M976.4,-860.52C951.25,-815.1 880.65,-687.58 850.48,-633.09"/>
<polygon fill="black" stroke="black" points="853.41,-631.15 845.5,-624.1 847.28,-634.54 853.41,-631.15"/>
<text text-anchor="middle" x="835.44" y="-750.6" font-family="Times,serif" font-size="14.00">dcam:domainIncludes</text>
</g>
<!-- http://w3id.org/oseg/ont/otrl#goal&#45;&gt;http://w3id.org/oseg/ont/otrl#ODRL -->
<g id="edge17" class="edge">
<title>http://w3id.org/oseg/ont/otrl#goal&#45;&gt;http://w3id.org/oseg/ont/otrl#ODRL</title>
<path fill="none" stroke="black" d="M991.17,-893.23C1008.12,-941.91 1058.51,-1086.59 1079.23,-1146.08"/>
<polygon fill="black" stroke="black" points="1076.04,-1147.54 1082.63,-1155.84 1082.65,-1145.24 1076.04,-1147.54"/>
<text text-anchor="middle" x="957.2" y="-1023.46" font-family="Times,serif" font-size="14.00">dcam:domainIncludes</text>
</g>
<!-- http://w3id.org/oseg/ont/otrl#goal&#45;&gt;http://www.w3.org/2002/07/owl#DatatypeProperty -->
<g id="edge26" class="edge">
<title>http://w3id.org/oseg/ont/otrl#goal&#45;&gt;http://www.w3.org/2002/07/owl#DatatypeProperty</title>
<path fill="none" stroke="black" d="M1029.12,-867.15C1063.49,-859.43 1112.16,-848.49 1152.37,-839.46"/>
<polygon fill="black" stroke="black" points="1153.14,-842.88 1162.13,-837.27 1151.6,-836.05 1153.14,-842.88"/>
<text text-anchor="middle" x="1086.24" y="-857.11" font-family="Times,serif" font-size="14.00">a</text>
</g>
<!-- http://w3id.org/oseg/ont/otrl#goal&#45;&gt;http://www.w3.org/1999/02/22&#45;rdf&#45;syntax&#45;ns#langString -->
<g id="edge1" class="edge">
<title>http://w3id.org/oseg/ont/otrl#goal&#45;&gt;http://www.w3.org/1999/02/22&#45;rdf&#45;syntax&#45;ns#langString</title>
<path fill="none" stroke="black" d="M945.83,-888.22C906.8,-899.3 846.8,-916.35 802.58,-928.91"/>
<polygon fill="black" stroke="black" points="801.5,-925.58 792.84,-931.68 803.42,-932.32 801.5,-925.58"/>
<text text-anchor="middle" x="853.21" y="-897.36" font-family="Times,serif" font-size="14.00">range</text>
</g>
<!-- http://w3id.org/oseg/ont/otrl#ODRL2 -->
<g id="node24" class="node">
<title>http://w3id.org/oseg/ont/otrl#ODRL2</title>
<ellipse fill="none" stroke="#e377c2" cx="1349.43" cy="-1163.87" rx="69.09" ry="16.03"/>
<text text-anchor="middle" x="1349.43" y="-1160.17" font-family="Times,serif" font-size="14.00">otrl:ODRL2</text>
</g>
<!-- http://w3id.org/oseg/ont/otrl#ODRL2&#45;&gt;http://w3id.org/oseg/ont/otrl#ODRL -->
<g id="edge43" class="edge">
<title>http://w3id.org/oseg/ont/otrl#ODRL2&#45;&gt;http://w3id.org/oseg/ont/otrl#ODRL</title>
<path fill="none" stroke="black" d="M1280.47,-1166.04C1243.73,-1167.19 1198.55,-1168.61 1161.22,-1169.78"/>
<polygon fill="black" stroke="black" points="1160.8,-1166.29 1150.92,-1170.11 1161.02,-1173.29 1160.8,-1166.29"/>
<text text-anchor="middle" x="1216.35" y="-1171.71" font-family="Times,serif" font-size="14.00">a</text>
</g>
<!-- http://w3id.org/oseg/ont/otrl#ODRL1 -->
<g id="node25" class="node">
<title>http://w3id.org/oseg/ont/otrl#ODRL1</title>
<ellipse fill="none" stroke="#e377c2" cx="1257.72" cy="-1362.68" rx="69.09" ry="16.03"/>
<text text-anchor="middle" x="1257.72" y="-1358.98" font-family="Times,serif" font-size="14.00">otrl:ODRL1</text>
</g>
<!-- http://w3id.org/oseg/ont/otrl#ODRL1&#45;&gt;http://w3id.org/oseg/ont/otrl#ODRL -->
<g id="edge37" class="edge">
<title>http://w3id.org/oseg/ont/otrl#ODRL1&#45;&gt;http://w3id.org/oseg/ont/otrl#ODRL</title>
<path fill="none" stroke="black" d="M1243.56,-1346.76C1213.79,-1313.26 1144.54,-1235.36 1109.46,-1195.89"/>
<polygon fill="black" stroke="black" points="1111.78,-1193.23 1102.52,-1188.09 1106.55,-1197.89 1111.78,-1193.23"/>
<text text-anchor="middle" x="1172.01" y="-1275.13" font-family="Times,serif" font-size="14.00">a</text>
</g>
<!-- http://w3id.org/oseg/ont/otrl#exitCriteria -->
<g id="node27" class="node">
<title>http://w3id.org/oseg/ont/otrl#exitCriteria</title>
<ellipse fill="none" stroke="#e377c2" cx="929.13" cy="-917.75" rx="91.43" ry="16.03"/>
<text text-anchor="middle" x="929.13" y="-914.05" font-family="Times,serif" font-size="14.00">otrl:exitCriteria</text>
</g>
<!-- http://w3id.org/oseg/ont/otrl#exitCriteria&#45;&gt;http://w3id.org/oseg/ont/otrl#OTRL -->
<g id="edge33" class="edge">
<title>http://w3id.org/oseg/ont/otrl#exitCriteria&#45;&gt;http://w3id.org/oseg/ont/otrl#OTRL</title>
<path fill="none" stroke="black" d="M924.15,-901.09C908.91,-850.11 862.84,-695.94 844.34,-634.03"/>
<polygon fill="black" stroke="black" points="847.63,-632.83 841.42,-624.25 840.93,-634.84 847.63,-632.83"/>
<text text-anchor="middle" x="806.24" y="-771.36" font-family="Times,serif" font-size="14.00">dcam:domainIncludes</text>
</g>
<!-- http://w3id.org/oseg/ont/otrl#exitCriteria&#45;&gt;http://w3id.org/oseg/ont/otrl#ODRL -->
<g id="edge38" class="edge">
<title>http://w3id.org/oseg/ont/otrl#exitCriteria&#45;&gt;http://w3id.org/oseg/ont/otrl#ODRL</title>
<path fill="none" stroke="black" d="M939.32,-934.05C966.44,-977.38 1040.47,-1095.67 1072.82,-1147.36"/>
<polygon fill="black" stroke="black" points="1069.9,-1149.29 1078.17,-1155.91 1075.84,-1145.58 1069.9,-1149.29"/>
<text text-anchor="middle" x="928.07" y="-1044.5" font-family="Times,serif" font-size="14.00">dcam:domainIncludes</text>
</g>
<!-- http://w3id.org/oseg/ont/otrl#exitCriteria&#45;&gt;http://www.w3.org/2002/07/owl#DatatypeProperty -->
<g id="edge30" class="edge">
<title>http://w3id.org/oseg/ont/otrl#exitCriteria&#45;&gt;http://www.w3.org/2002/07/owl#DatatypeProperty</title>
<path fill="none" stroke="black" d="M973.71,-903.49C1025.46,-886.94 1110.92,-859.61 1167.54,-841.51"/>
<polygon fill="black" stroke="black" points="1168.96,-844.73 1177.42,-838.35 1166.82,-838.06 1168.96,-844.73"/>
<text text-anchor="middle" x="1066.13" y="-876.3" font-family="Times,serif" font-size="14.00">a</text>
</g>
<!-- http://w3id.org/oseg/ont/otrl#exitCriteria&#45;&gt;http://www.w3.org/1999/02/22&#45;rdf&#45;syntax&#45;ns#langString -->
<g id="edge29" class="edge">
<title>http://w3id.org/oseg/ont/otrl#exitCriteria&#45;&gt;http://www.w3.org/1999/02/22&#45;rdf&#45;syntax&#45;ns#langString</title>
<path fill="none" stroke="black" d="M859.09,-928.21C846.96,-930.02 834.28,-931.91 821.99,-933.75"/>
<polygon fill="black" stroke="black" points="821.14,-930.33 811.76,-935.27 822.17,-937.26 821.14,-930.33"/>
<text text-anchor="middle" x="819.54" y="-919.78" font-family="Times,serif" font-size="14.00">range</text>
</g>
<!-- http://w3id.org/oseg/ont/otrl#Odrl5 -->
<g id="node28" class="node">
<title>http://w3id.org/oseg/ont/otrl#Odrl5</title>
<ellipse fill="none" stroke="black" cx="1199.31" cy="-2083.38" rx="191.75" ry="16.03"/>
<text text-anchor="middle" x="1199.31" y="-2079.68" font-family="Times,serif" font-size="14.00">http://w3id.org/oseg/ont/otrl#Odrl5</text>
</g>
<!-- http://w3id.org/oseg/ont/otrl#Odrl5&#45;&gt;http://w3id.org/oseg/ont/otrl#Odrl4 -->
<g id="edge2" class="edge">
<title>http://w3id.org/oseg/ont/otrl#Odrl5&#45;&gt;http://w3id.org/oseg/ont/otrl#Odrl4</title>
<path fill="none" stroke="black" d="M1197.29,-2066.99C1190.27,-2010.09 1166.91,-1820.8 1158.21,-1750.33"/>
<polygon fill="black" stroke="black" points="1161.65,-1749.57 1156.95,-1740.07 1154.7,-1750.43 1161.65,-1749.57"/>
<text text-anchor="middle" x="1097.75" y="-1912.46" font-family="Times,serif" font-size="14.00">schema:supersededBy</text>
</g>
<!-- http://w3id.org/oseg/ont/otrl#Odrl3Star -->
<g id="node29" class="node">
<title>http://w3id.org/oseg/ont/otrl#Odrl3Star</title>
<ellipse fill="none" stroke="black" cx="747.96" cy="-1274.08" rx="213.59" ry="16.03"/>
<text text-anchor="middle" x="747.96" y="-1270.38" font-family="Times,serif" font-size="14.00">http://w3id.org/oseg/ont/otrl#Odrl3Star</text>
</g>
<!-- http://w3id.org/oseg/ont/otrl#Odrl3Star&#45;&gt;http://w3id.org/oseg/ont/otrl#ODRL3Star -->
<g id="edge4" class="edge">
<title>http://w3id.org/oseg/ont/otrl#Odrl3Star&#45;&gt;http://w3id.org/oseg/ont/otrl#ODRL3Star</title>
<path fill="none" stroke="black" d="M787.27,-1258.01C793.81,-1255.34 800.64,-1252.55 807.33,-1249.82"/>
<polygon fill="black" stroke="black" points="809.05,-1252.9 816.98,-1245.87 806.4,-1246.42 809.05,-1252.9"/>
<text text-anchor="middle" x="717.3" y="-1242.71" font-family="Times,serif" font-size="14.00">schema:supersededBy</text>
</g>
<!-- http://w3id.org/oseg/ont/otrl#Otrl3 -->
<g id="node30" class="node">
<title>http://w3id.org/oseg/ont/otrl#Otrl3</title>
<ellipse fill="none" stroke="black" cx="332.67" cy="-203.13" rx="189.51" ry="16.03"/>
<text text-anchor="middle" x="332.67" y="-199.43" font-family="Times,serif" font-size="14.00">http://w3id.org/oseg/ont/otrl#Otrl3</text>
</g>
<!-- http://w3id.org/oseg/ont/otrl#Otrl3&#45;&gt;http://w3id.org/oseg/ont/otrl#OTRL3 -->
<g id="edge5" class="edge">
<title>http://w3id.org/oseg/ont/otrl#Otrl3&#45;&gt;http://w3id.org/oseg/ont/otrl#OTRL3</title>
<path fill="none" stroke="black" d="M349.17,-219.64C397.33,-267.83 537.87,-408.46 593.56,-464.18"/>
<polygon fill="black" stroke="black" points="591.29,-466.86 600.84,-471.46 596.24,-461.91 591.29,-466.86"/>
<text text-anchor="middle" x="391.36" y="-330.71" font-family="Times,serif" font-size="14.00">schema:supersededBy</text>
</g>
<!-- http://w3id.org/oseg/ont/otrl#Otrl6 -->
<g id="node31" class="node">
<title>http://w3id.org/oseg/ont/otrl#Otrl6</title>
<ellipse fill="none" stroke="black" cx="866.72" cy="-323.14" rx="189.51" ry="16.03"/>
<text text-anchor="middle" x="866.72" y="-319.44" font-family="Times,serif" font-size="14.00">http://w3id.org/oseg/ont/otrl#Otrl6</text>
</g>
<!-- http://w3id.org/oseg/ont/otrl#Otrl6&#45;&gt;http://w3id.org/oseg/ont/otrl#OTRL6 -->
<g id="edge6" class="edge">
<title>http://w3id.org/oseg/ont/otrl#Otrl6&#45;&gt;http://w3id.org/oseg/ont/otrl#OTRL6</title>
<path fill="none" stroke="black" d="M856.5,-339.69C856.39,-339.88 856.27,-340.07 856.15,-340.26"/>
<polygon fill="black" stroke="black" points="853.12,-338.51 850.84,-348.86 859.07,-342.19 853.12,-338.51"/>
<text text-anchor="middle" x="936.33" y="-343.78" font-family="Times,serif" font-size="14.00">schema:supersededBy</text>
</g>
<!-- http://w3id.org/oseg/ont/otrl#Otrl5 -->
<g id="node32" class="node">
<title>http://w3id.org/oseg/ont/otrl#Otrl5</title>
<ellipse fill="none" stroke="black" cx="565.12" cy="-364.98" rx="189.51" ry="16.03"/>
<text text-anchor="middle" x="565.12" y="-361.28" font-family="Times,serif" font-size="14.00">http://w3id.org/oseg/ont/otrl#Otrl5</text>
</g>
<!-- http://w3id.org/oseg/ont/otrl#Otrl5&#45;&gt;http://w3id.org/oseg/ont/otrl#OTRL5 -->
<g id="edge12" class="edge">
<title>http://w3id.org/oseg/ont/otrl#Otrl5&#45;&gt;http://w3id.org/oseg/ont/otrl#OTRL5</title>
<path fill="none" stroke="black" d="M598,-381.04C606.33,-385.1 615.35,-389.51 623.95,-393.71"/>
<polygon fill="black" stroke="black" points="622.54,-396.92 633.07,-398.16 625.62,-390.63 622.54,-396.92"/>
<text text-anchor="middle" x="530.98" y="-391.18" font-family="Times,serif" font-size="14.00">schema:supersededBy</text>
</g>
<!-- http://w3id.org/oseg/ont/otrl#Odrl3 -->
<g id="node33" class="node">
<title>http://w3id.org/oseg/ont/otrl#Odrl3</title>
<ellipse fill="none" stroke="black" cx="774.73" cy="-1748.6" rx="191.75" ry="16.03"/>
<text text-anchor="middle" x="774.73" y="-1744.9" font-family="Times,serif" font-size="14.00">http://w3id.org/oseg/ont/otrl#Odrl3</text>
</g>
<!-- http://w3id.org/oseg/ont/otrl#Odrl3&#45;&gt;http://w3id.org/oseg/ont/otrl#ODRL3 -->
<g id="edge15" class="edge">
<title>http://w3id.org/oseg/ont/otrl#Odrl3&#45;&gt;http://w3id.org/oseg/ont/otrl#ODRL3</title>
<path fill="none" stroke="black" d="M783.97,-1732.14C814.91,-1677.07 914.95,-1498.97 952.24,-1432.59"/>
<polygon fill="black" stroke="black" points="955.43,-1434.06 957.27,-1423.63 949.32,-1430.63 955.43,-1434.06"/>
<text text-anchor="middle" x="788.11" y="-1586.16" font-family="Times,serif" font-size="14.00">schema:supersededBy</text>
</g>
<!-- http://w3id.org/oseg/ont/otrl#Otrl4 -->
<g id="node34" class="node">
<title>http://w3id.org/oseg/ont/otrl#Otrl4</title>
<ellipse fill="none" stroke="black" cx="1374.33" cy="-240.94" rx="189.51" ry="16.03"/>
<text text-anchor="middle" x="1374.33" y="-237.24" font-family="Times,serif" font-size="14.00">http://w3id.org/oseg/ont/otrl#Otrl4</text>
</g>
<!-- http://w3id.org/oseg/ont/otrl#Otrl4&#45;&gt;http://w3id.org/oseg/ont/otrl#OTRL4 -->
<g id="edge19" class="edge">
<title>http://w3id.org/oseg/ont/otrl#Otrl4&#45;&gt;http://w3id.org/oseg/ont/otrl#OTRL4</title>
<path fill="none" stroke="black" d="M1354.37,-257.26C1303.54,-298.82 1169.19,-408.65 1111.16,-456.09"/>
<polygon fill="black" stroke="black" points="1108.7,-453.58 1103.17,-462.62 1113.13,-459 1108.7,-453.58"/>
<text text-anchor="middle" x="1152.76" y="-360.48" font-family="Times,serif" font-size="14.00">schema:supersededBy</text>
</g>
<!-- http://w3id.org/oseg/ont/otrl#Otrl1 -->
<g id="node35" class="node">
<title>http://w3id.org/oseg/ont/otrl#Otrl1</title>
<ellipse fill="none" stroke="black" cx="1108.81" cy="-16.42" rx="189.51" ry="16.03"/>
<text text-anchor="middle" x="1108.81" y="-12.72" font-family="Times,serif" font-size="14.00">http://w3id.org/oseg/ont/otrl#Otrl1</text>
</g>
<!-- http://w3id.org/oseg/ont/otrl#Otrl1&#45;&gt;http://w3id.org/oseg/ont/otrl#OTRL1 -->
<g id="edge20" class="edge">
<title>http://w3id.org/oseg/ont/otrl#Otrl1&#45;&gt;http://w3id.org/oseg/ont/otrl#OTRL1</title>
<path fill="none" stroke="black" d="M1103.71,-32.91C1085.99,-90.25 1026.94,-281.3 1005.14,-351.84"/>
<polygon fill="black" stroke="black" points="1001.7,-351.13 1002.09,-361.72 1008.39,-353.19 1001.7,-351.13"/>
<text text-anchor="middle" x="974.43" y="-196.18" font-family="Times,serif" font-size="14.00">schema:supersededBy</text>
</g>
<!-- http://w3id.org/oseg/ont/otrl#Odrl -->
<g id="node36" class="node">
<title>http://w3id.org/oseg/ont/otrl#Odrl</title>
<ellipse fill="none" stroke="black" cx="1434.02" cy="-1308.87" rx="185.02" ry="16.03"/>
<text text-anchor="middle" x="1434.02" y="-1305.17" font-family="Times,serif" font-size="14.00">http://w3id.org/oseg/ont/otrl#Odrl</text>
</g>
<!-- http://w3id.org/oseg/ont/otrl#Odrl&#45;&gt;http://w3id.org/oseg/ont/otrl#ODRL -->
<g id="edge22" class="edge">
<title>http://w3id.org/oseg/ont/otrl#Odrl&#45;&gt;http://w3id.org/oseg/ont/otrl#ODRL</title>
<path fill="none" stroke="black" d="M1393.69,-1292.91C1328.49,-1267.12 1200.45,-1216.45 1132.72,-1189.66"/>
<polygon fill="black" stroke="black" points="1133.77,-1186.31 1123.18,-1185.88 1131.19,-1192.81 1133.77,-1186.31"/>
<text text-anchor="middle" x="1183.2" y="-1245.08" font-family="Times,serif" font-size="14.00">schema:supersededBy</text>
</g>
<!-- http://w3id.org/oseg/ont/otrl#Otrl2 -->
<g id="node37" class="node">
<title>http://w3id.org/oseg/ont/otrl#Otrl2</title>
<ellipse fill="none" stroke="black" cx="189.17" cy="-654.14" rx="189.51" ry="16.03"/>
<text text-anchor="middle" x="189.17" y="-650.44" font-family="Times,serif" font-size="14.00">http://w3id.org/oseg/ont/otrl#Otrl2</text>
</g>
<!-- http://w3id.org/oseg/ont/otrl#Otrl2&#45;&gt;http://w3id.org/oseg/ont/otrl#OTRL2 -->
<g id="edge24" class="edge">
<title>http://w3id.org/oseg/ont/otrl#Otrl2&#45;&gt;http://w3id.org/oseg/ont/otrl#OTRL2</title>
<path fill="none" stroke="black" d="M376.38,-656.68C424.08,-657.33 472.73,-657.99 511.41,-658.51"/>
<polygon fill="black" stroke="black" points="511.49,-662.02 521.54,-658.65 511.59,-655.02 511.49,-662.02"/>
<text text-anchor="middle" x="443.9" y="-646.4" font-family="Times,serif" font-size="14.00">schema:supersededBy</text>
</g>
<!-- http://w3id.org/oseg/ont/otrl#Odrl2 -->
<g id="node38" class="node">
<title>http://w3id.org/oseg/ont/otrl#Odrl2</title>
<ellipse fill="none" stroke="black" cx="1738.88" cy="-1208.24" rx="191.75" ry="16.03"/>
<text text-anchor="middle" x="1738.88" y="-1204.54" font-family="Times,serif" font-size="14.00">http://w3id.org/oseg/ont/otrl#Odrl2</text>
</g>
<!-- http://w3id.org/oseg/ont/otrl#Odrl2&#45;&gt;http://w3id.org/oseg/ont/otrl#ODRL2 -->
<g id="edge31" class="edge">
<title>http://w3id.org/oseg/ont/otrl#Odrl2&#45;&gt;http://w3id.org/oseg/ont/otrl#ODRL2</title>
<path fill="none" stroke="black" d="M1624.4,-1195.2C1558.88,-1187.73 1478.67,-1178.59 1421.83,-1172.12"/>
<polygon fill="black" stroke="black" points="1422.18,-1168.64 1411.85,-1170.98 1421.39,-1175.59 1422.18,-1168.64"/>
<text text-anchor="middle" x="1443.11" y="-1187.46" font-family="Times,serif" font-size="14.00">schema:supersededBy</text>
</g>
<!-- http://w3id.org/oseg/ont/otrl#Odrl1 -->
<g id="node39" class="node">
<title>http://w3id.org/oseg/ont/otrl#Odrl1</title>
<ellipse fill="none" stroke="black" cx="1513.19" cy="-1664.18" rx="191.75" ry="16.03"/>
<text text-anchor="middle" x="1513.19" y="-1660.48" font-family="Times,serif" font-size="14.00">http://w3id.org/oseg/ont/otrl#Odrl1</text>
</g>
<!-- http://w3id.org/oseg/ont/otrl#Odrl1&#45;&gt;http://w3id.org/oseg/ont/otrl#ODRL1 -->
<g id="edge35" class="edge">
<title>http://w3id.org/oseg/ont/otrl#Odrl1&#45;&gt;http://w3id.org/oseg/ont/otrl#ODRL1</title>
<path fill="none" stroke="black" d="M1499.09,-1647.54C1456.33,-1597.07 1327.99,-1445.62 1277.98,-1386.59"/>
<polygon fill="black" stroke="black" points="1280.59,-1384.27 1271.46,-1378.9 1275.25,-1388.79 1280.59,-1384.27"/>
<text text-anchor="middle" x="1308.53" y="-1520.87" font-family="Times,serif" font-size="14.00">schema:supersededBy</text>
</g>
<!-- http://w3id.org/oseg/ont/otrl#Otrl -->
<g id="node40" class="node">
<title>http://w3id.org/oseg/ont/otrl#Otrl</title>
<ellipse fill="none" stroke="black" cx="464.05" cy="-607.16" rx="183.28" ry="16.03"/>
<text text-anchor="middle" x="464.05" y="-603.46" font-family="Times,serif" font-size="14.00">http://w3id.org/oseg/ont/otrl#Otrl</text>
</g>
<!-- http://w3id.org/oseg/ont/otrl#Otrl&#45;&gt;http://w3id.org/oseg/ont/otrl#OTRL -->
<g id="edge40" class="edge">
<title>http://w3id.org/oseg/ont/otrl#Otrl&#45;&gt;http://w3id.org/oseg/ont/otrl#OTRL</title>
<path fill="none" stroke="black" d="M647.29,-607.52C689.26,-607.6 731.44,-607.68 765.29,-607.75"/>
<polygon fill="black" stroke="black" points="765.51,-611.25 775.52,-607.77 765.53,-604.25 765.51,-611.25"/>
<text text-anchor="middle" x="706.29" y="-596.43" font-family="Times,serif" font-size="14.00">schema:supersededBy</text>
</g>
</g>
</svg>
