<?xml version="1.0" encoding="UTF-8" standalone="no"?>
<!DOCTYPE svg PUBLIC "-//W3C//DTD SVG 1.1//EN"
 "http://www.w3.org/Graphics/SVG/1.1/DTD/svg11.dtd">
<!-- Generated by graphviz version 2.43.0 (0)
 -->
<!-- Title: G Pages: 1 -->
<svg width="1326pt" height="2196pt"
 viewBox="0.00 0.00 1326.00 2196.00" xmlns="http://www.w3.org/2000/svg" xmlns:xlink="http://www.w3.org/1999/xlink">
<g id="graph0" class="graph" transform="scale(1 1) rotate(0) translate(4 2192)">
<title>G</title>
<polygon fill="white" stroke="transparent" points="-4,4 -4,-2192 1322,-2192 1322,4 -4,4"/>
<!-- http://w3id.org/oseg/ont/okh#FileUrl -->
<g id="node1" class="node">
<title>http://w3id.org/oseg/ont/okh#FileUrl</title>
<ellipse fill="none" stroke="#1f77b4" cx="296.04" cy="-226.18" rx="68.68" ry="16.03"/>
<text text-anchor="middle" x="296.04" y="-222.48" font-family="Times,serif" font-size="14.00">okh:FileUrl</text>
</g>
<!-- http://w3id.org/oseg/ont/okh#ComponentReference -->
<g id="node6" class="node">
<title>http://w3id.org/oseg/ont/okh#ComponentReference</title>
<ellipse fill="none" stroke="#e377c2" cx="439.76" cy="-506.85" rx="123.07" ry="16.03"/>
<text text-anchor="middle" x="439.76" y="-503.15" font-family="Times,serif" font-size="14.00">okh:ComponentRefe...</text>
</g>
<!-- http://w3id.org/oseg/ont/okh#FileUrl&#45;&gt;http://w3id.org/oseg/ont/okh#ComponentReference -->
<g id="edge38" class="edge">
<title>http://w3id.org/oseg/ont/okh#FileUrl&#45;&gt;http://w3id.org/oseg/ont/okh#ComponentReference</title>
<path fill="none" stroke="black" d="M304.39,-242.49C328.4,-289.38 397.78,-424.87 426.78,-481.5"/>
<polygon fill="black" stroke="black" points="423.72,-483.2 431.39,-490.5 429.95,-480.01 423.72,-483.2"/>
</g>
<!-- http://schema.org/URL -->
<g id="node7" class="node">
<title>http://schema.org/URL</title>
<ellipse fill="none" stroke="#e377c2" cx="144.41" cy="-15.83" rx="75.82" ry="16.03"/>
<text text-anchor="middle" x="144.41" y="-12.13" font-family="Times,serif" font-size="14.00">schema:URL</text>
</g>
<!-- http://w3id.org/oseg/ont/okh#FileUrl&#45;&gt;http://schema.org/URL -->
<g id="edge50" class="edge">
<title>http://w3id.org/oseg/ont/okh#FileUrl&#45;&gt;http://schema.org/URL</title>
<path fill="none" stroke="black" d="M284.39,-210.03C257.99,-173.39 193.43,-83.84 162.08,-40.34"/>
<polygon fill="black" stroke="black" points="164.78,-38.1 156.09,-32.04 159.1,-42.2 164.78,-38.1"/>
</g>
<!-- http://w3id.org/oseg/ont/okh#File -->
<g id="node26" class="node">
<title>http://w3id.org/oseg/ont/okh#File</title>
<ellipse fill="none" stroke="#e377c2" cx="511.15" cy="-306" rx="52.15" ry="16.03"/>
<text text-anchor="middle" x="511.15" y="-302.3" font-family="Times,serif" font-size="14.00">okh:File</text>
</g>
<!-- http://w3id.org/oseg/ont/okh#FileUrl&#45;&gt;http://w3id.org/oseg/ont/okh#File -->
<g id="edge45" class="edge">
<title>http://w3id.org/oseg/ont/okh#FileUrl&#45;&gt;http://w3id.org/oseg/ont/okh#File</title>
<path fill="none" stroke="black" d="M333.02,-239.91C370.45,-253.79 428.29,-275.26 467.84,-289.93"/>
<polygon fill="black" stroke="black" points="466.88,-293.31 477.48,-293.51 469.32,-286.75 466.88,-293.31"/>
<text text-anchor="middle" x="480.43" y="-253.72" font-family="Times,serif" font-size="14.00">schema:supersededBy</text>
</g>
<!-- http://w3id.org/oseg/ont/okh#Mass -->
<g id="node2" class="node">
<title>http://w3id.org/oseg/ont/okh#Mass</title>
<ellipse fill="none" stroke="#e377c2" cx="647.08" cy="-1109.09" rx="59.29" ry="16.03"/>
<text text-anchor="middle" x="647.08" y="-1105.39" font-family="Times,serif" font-size="14.00">okh:Mass</text>
</g>
<!-- http://www.w3.org/2004/02/skos/core#Concept -->
<g id="node3" class="node">
<title>http://www.w3.org/2004/02/skos/core#Concept</title>
<ellipse fill="none" stroke="#1f77b4" cx="630.11" cy="-829.28" rx="78.48" ry="16.03"/>
<text text-anchor="middle" x="630.11" y="-825.58" font-family="Times,serif" font-size="14.00">skos:Concept</text>
</g>
<!-- http://w3id.org/oseg/ont/okh#Mass&#45;&gt;http://www.w3.org/2004/02/skos/core#Concept -->
<g id="edge37" class="edge">
<title>http://w3id.org/oseg/ont/okh#Mass&#45;&gt;http://www.w3.org/2004/02/skos/core#Concept</title>
<path fill="none" stroke="black" d="M646.07,-1092.42C643.23,-1045.67 635.19,-912.97 631.73,-855.9"/>
<polygon fill="black" stroke="black" points="635.22,-855.62 631.12,-845.85 628.23,-856.05 635.22,-855.62"/>
<text text-anchor="middle" x="634.4" y="-977.96" font-family="Times,serif" font-size="14.00">a</text>
</g>
<!-- http://w3id.org/oseg/ont/okhmetaTransportationTag -->
<g id="node9" class="node">
<title>http://w3id.org/oseg/ont/okhmetaTransportationTag</title>
<ellipse fill="none" stroke="#e377c2" cx="914.27" cy="-1127.47" rx="118.17" ry="16.03"/>
<text text-anchor="middle" x="914.27" y="-1123.77" font-family="Times,serif" font-size="14.00">okhmeta:Transport...</text>
</g>
<!-- http://w3id.org/oseg/ont/okh#Mass&#45;&gt;http://w3id.org/oseg/ont/okhmetaTransportationTag -->
<g id="edge1" class="edge">
<title>http://w3id.org/oseg/ont/okh#Mass&#45;&gt;http://w3id.org/oseg/ont/okhmetaTransportationTag</title>
<path fill="none" stroke="black" d="M704.73,-1113.05C732.19,-1114.94 766.05,-1117.27 798.49,-1119.51"/>
<polygon fill="black" stroke="black" points="798.29,-1123 808.51,-1120.2 798.77,-1116.02 798.29,-1123"/>
<text text-anchor="middle" x="790.11" y="-1105.08" font-family="Times,serif" font-size="14.00">okhmeta:hasMetaTag</text>
</g>
<!-- http://w3id.org/oseg/ont/okhmetaPhysicalTag -->
<g id="node17" class="node">
<title>http://w3id.org/oseg/ont/okhmetaPhysicalTag</title>
<ellipse fill="none" stroke="#e377c2" cx="387.35" cy="-1092.3" rx="118.17" ry="16.03"/>
<text text-anchor="middle" x="387.35" y="-1088.6" font-family="Times,serif" font-size="14.00">okhmeta:PhysicalTag</text>
</g>
<!-- http://w3id.org/oseg/ont/okh#Mass&#45;&gt;http://w3id.org/oseg/ont/okhmetaPhysicalTag -->
<g id="edge12" class="edge">
<title>http://w3id.org/oseg/ont/okh#Mass&#45;&gt;http://w3id.org/oseg/ont/okhmetaPhysicalTag</title>
<path fill="none" stroke="black" d="M589.11,-1105.34C564.17,-1103.73 534.06,-1101.78 504.8,-1099.89"/>
<polygon fill="black" stroke="black" points="504.7,-1096.38 494.5,-1099.23 504.25,-1103.37 504.7,-1096.38"/>
<text text-anchor="middle" x="469.96" y="-1106.42" font-family="Times,serif" font-size="14.00">okhmeta:hasMetaTag</text>
</g>
<!-- http://w3id.org/oseg/ont/okh#Reference -->
<g id="node4" class="node">
<title>http://w3id.org/oseg/ont/okh#Reference</title>
<ellipse fill="none" stroke="#e377c2" cx="464.51" cy="-192.97" rx="84.29" ry="16.03"/>
<text text-anchor="middle" x="464.51" y="-189.27" font-family="Times,serif" font-size="14.00">okh:Reference</text>
</g>
<!-- http://www.w3.org/2002/07/owl#ObjectProperty -->
<g id="node5" class="node">
<title>http://www.w3.org/2002/07/owl#ObjectProperty</title>
<ellipse fill="none" stroke="#1f77b4" cx="657.38" cy="-446.08" rx="109.7" ry="16.03"/>
<text text-anchor="middle" x="657.38" y="-442.38" font-family="Times,serif" font-size="14.00">owl:ObjectProperty</text>
</g>
<!-- http://w3id.org/oseg/ont/okh#ComponentReference&#45;&gt;http://www.w3.org/2004/02/skos/core#Concept -->
<g id="edge34" class="edge">
<title>http://w3id.org/oseg/ont/okh#ComponentReference&#45;&gt;http://www.w3.org/2004/02/skos/core#Concept</title>
<path fill="none" stroke="black" d="M449.46,-523.29C480.52,-575.89 577.66,-740.43 615.14,-803.93"/>
<polygon fill="black" stroke="black" points="612.33,-806.05 620.43,-812.88 618.36,-802.49 612.33,-806.05"/>
<text text-anchor="middle" x="527.8" y="-667.41" font-family="Times,serif" font-size="14.00">a</text>
</g>
<!-- http://w3id.org/oseg/ont/okh#ComponentReference&#45;&gt;http://w3id.org/oseg/ont/okh#Reference -->
<g id="edge32" class="edge">
<title>http://w3id.org/oseg/ont/okh#ComponentReference&#45;&gt;http://w3id.org/oseg/ont/okh#Reference</title>
<path fill="none" stroke="black" d="M441.06,-490.42C445.09,-439.25 457.46,-282.45 462.42,-219.52"/>
<polygon fill="black" stroke="black" points="465.93,-219.48 463.23,-209.24 458.95,-218.93 465.93,-219.48"/>
</g>
<!-- http://w3id.org/oseg/ont/okhmetaPartsTag -->
<g id="node36" class="node">
<title>http://w3id.org/oseg/ont/okhmetaPartsTag</title>
<ellipse fill="none" stroke="#e377c2" cx="131.36" cy="-523.8" rx="103.48" ry="16.03"/>
<text text-anchor="middle" x="131.36" y="-520.1" font-family="Times,serif" font-size="14.00">okhmeta:PartsTag</text>
</g>
<!-- http://w3id.org/oseg/ont/okh#ComponentReference&#45;&gt;http://w3id.org/oseg/ont/okhmetaPartsTag -->
<g id="edge40" class="edge">
<title>http://w3id.org/oseg/ont/okh#ComponentReference&#45;&gt;http://w3id.org/oseg/ont/okhmetaPartsTag</title>
<path fill="none" stroke="black" d="M325.8,-513.11C297.53,-514.67 267.32,-516.33 239.34,-517.86"/>
<polygon fill="black" stroke="black" points="238.94,-514.38 229.15,-518.42 239.32,-521.37 238.94,-514.38"/>
<text text-anchor="middle" x="205.57" y="-504.29" font-family="Times,serif" font-size="14.00">okhmeta:hasMetaTag</text>
</g>
<!-- http://www.w3.org/2002/07/owl#DatatypeProperty -->
<g id="node8" class="node">
<title>http://www.w3.org/2002/07/owl#DatatypeProperty</title>
<ellipse fill="none" stroke="#1f77b4" cx="591.21" cy="-1565.84" rx="123.07" ry="16.03"/>
<text text-anchor="middle" x="591.21" y="-1562.14" font-family="Times,serif" font-size="14.00">owl:DatatypeProperty</text>
</g>
<!-- http://w3id.org/oseg/ont/okhmetaLegalTag -->
<g id="node10" class="node">
<title>http://w3id.org/oseg/ont/okhmetaLegalTag</title>
<ellipse fill="none" stroke="#e377c2" cx="966.59" cy="-342.95" rx="103.89" ry="16.03"/>
<text text-anchor="middle" x="966.59" y="-339.25" font-family="Times,serif" font-size="14.00">okhmeta:LegalTag</text>
</g>
<!-- http://w3id.org/oseg/ont/okh#okhvPresent -->
<g id="node11" class="node">
<title>http://w3id.org/oseg/ont/okh#okhvPresent</title>
<ellipse fill="none" stroke="#e377c2" cx="708.82" cy="-1911.48" rx="96.33" ry="16.03"/>
<text text-anchor="middle" x="708.82" y="-1907.78" font-family="Times,serif" font-size="14.00">okh:okhvPresent</text>
</g>
<!-- http://w3id.org/oseg/ont/okh#okhvPresent&#45;&gt;http://www.w3.org/2002/07/owl#DatatypeProperty -->
<g id="edge3" class="edge">
<title>http://w3id.org/oseg/ont/okh#okhvPresent&#45;&gt;http://www.w3.org/2002/07/owl#DatatypeProperty</title>
<path fill="none" stroke="black" d="M703.15,-1894.81C684.21,-1839.14 623.04,-1659.38 600.05,-1591.82"/>
<polygon fill="black" stroke="black" points="603.36,-1590.68 596.82,-1582.34 596.73,-1592.93 603.36,-1590.68"/>
<text text-anchor="middle" x="647.1" y="-1747.12" font-family="Times,serif" font-size="14.00">a</text>
</g>
<!-- http://w3id.org/oseg/ont/okh#okhv -->
<g id="node15" class="node">
<title>http://w3id.org/oseg/ont/okh#okhv</title>
<ellipse fill="none" stroke="#e377c2" cx="902.77" cy="-2013.71" rx="56.64" ry="16.03"/>
<text text-anchor="middle" x="902.77" y="-2010.01" font-family="Times,serif" font-size="14.00">okh:okhv</text>
</g>
<!-- http://w3id.org/oseg/ont/okh#okhvPresent&#45;&gt;http://w3id.org/oseg/ont/okh#okhv -->
<g id="edge10" class="edge">
<title>http://w3id.org/oseg/ont/okh#okhvPresent&#45;&gt;http://w3id.org/oseg/ont/okh#okhv</title>
<path fill="none" stroke="black" d="M738.28,-1927.01C772.67,-1945.13 829.54,-1975.11 866.59,-1994.64"/>
<polygon fill="black" stroke="black" points="865.07,-1997.79 875.55,-1999.36 868.34,-1991.6 865.07,-1997.79"/>
<text text-anchor="middle" x="749.43" y="-1964.62" font-family="Times,serif" font-size="14.00">subPropertyOf</text>
</g>
<!-- http://w3id.org/oseg/ont/okh#okhvOrig -->
<g id="node16" class="node">
<title>http://w3id.org/oseg/ont/okh#okhvOrig</title>
<ellipse fill="none" stroke="#e377c2" cx="751.05" cy="-2172.02" rx="79.39" ry="16.03"/>
<text text-anchor="middle" x="751.05" y="-2168.32" font-family="Times,serif" font-size="14.00">okh:okhvOrig</text>
</g>
<!-- http://w3id.org/oseg/ont/okh#okhvPresent&#45;&gt;http://w3id.org/oseg/ont/okh#okhvOrig -->
<g id="edge11" class="edge">
<title>http://w3id.org/oseg/ont/okh#okhvPresent&#45;&gt;http://w3id.org/oseg/ont/okh#okhvOrig</title>
<path fill="none" stroke="black" d="M711.46,-1927.78C718.56,-1971.55 738.08,-2091.99 746.77,-2145.64"/>
<polygon fill="black" stroke="black" points="743.35,-2146.42 748.41,-2155.73 750.26,-2145.3 743.35,-2146.42"/>
<text text-anchor="middle" x="701.62" y="-2040.51" font-family="Times,serif" font-size="14.00">seeAlso</text>
</g>
<!-- http://www.w3.org/2001/XMLSchema#string -->
<g id="node12" class="node">
<title>http://www.w3.org/2001/XMLSchema#string</title>
<ellipse fill="none" stroke="#e377c2" cx="63.26" cy="-1781.28" rx="62.87" ry="16.03"/>
<text text-anchor="middle" x="63.26" y="-1777.58" font-family="Times,serif" font-size="14.00">xsd:string</text>
</g>
<!-- http://w3id.org/oseg/ont/okh#Dimensions -->
<g id="node13" class="node">
<title>http://w3id.org/oseg/ont/okh#Dimensions</title>
<ellipse fill="none" stroke="#e377c2" cx="355.53" cy="-1496.64" rx="91.85" ry="16.03"/>
<text text-anchor="middle" x="355.53" y="-1492.94" font-family="Times,serif" font-size="14.00">okh:Dimensions</text>
</g>
<!-- http://w3id.org/oseg/ont/okh#Module -->
<g id="node14" class="node">
<title>http://w3id.org/oseg/ont/okh#Module</title>
<ellipse fill="none" stroke="#e377c2" cx="643.69" cy="-542.1" rx="70.92" ry="16.03"/>
<text text-anchor="middle" x="643.69" y="-538.4" font-family="Times,serif" font-size="14.00">okh:Module</text>
</g>
<!-- http://w3id.org/oseg/ont/okh#value -->
<g id="node18" class="node">
<title>http://w3id.org/oseg/ont/okh#value</title>
<ellipse fill="none" stroke="#e377c2" cx="752.97" cy="-1332.88" rx="60.21" ry="16.03"/>
<text text-anchor="middle" x="752.97" y="-1329.18" font-family="Times,serif" font-size="14.00">okh:value</text>
</g>
<!-- http://w3id.org/oseg/ont/okh#value&#45;&gt;http://w3id.org/oseg/ont/okh#Mass -->
<g id="edge6" class="edge">
<title>http://w3id.org/oseg/ont/okh#value&#45;&gt;http://w3id.org/oseg/ont/okh#Mass</title>
<path fill="none" stroke="black" d="M745.18,-1316.42C726.86,-1277.69 680.9,-1180.56 659.02,-1134.32"/>
<polygon fill="black" stroke="black" points="662.18,-1132.81 654.73,-1125.27 655.85,-1135.8 662.18,-1132.81"/>
<text text-anchor="middle" x="624.1" y="-1229.17" font-family="Times,serif" font-size="14.00">dcam:domainIncludes</text>
</g>
<!-- http://w3id.org/oseg/ont/okh#value&#45;&gt;http://www.w3.org/2002/07/owl#DatatypeProperty -->
<g id="edge13" class="edge">
<title>http://w3id.org/oseg/ont/okh#value&#45;&gt;http://www.w3.org/2002/07/owl#DatatypeProperty</title>
<path fill="none" stroke="black" d="M741.85,-1348.89C714.1,-1388.86 641.63,-1493.23 608.36,-1541.14"/>
<polygon fill="black" stroke="black" points="605.45,-1539.19 602.62,-1549.4 611.2,-1543.18 605.45,-1539.19"/>
<text text-anchor="middle" x="670.6" y="-1448.81" font-family="Times,serif" font-size="14.00">a</text>
</g>
<!-- http://w3id.org/oseg/ont/okh#hasMass -->
<g id="node38" class="node">
<title>http://w3id.org/oseg/ont/okh#hasMass</title>
<ellipse fill="none" stroke="#e377c2" cx="966.04" cy="-1404.59" rx="77.15" ry="16.03"/>
<text text-anchor="middle" x="966.04" y="-1400.89" font-family="Times,serif" font-size="14.00">okh:hasMass</text>
</g>
<!-- http://w3id.org/oseg/ont/okh#value&#45;&gt;http://w3id.org/oseg/ont/okh#hasMass -->
<g id="edge43" class="edge">
<title>http://w3id.org/oseg/ont/okh#value&#45;&gt;http://w3id.org/oseg/ont/okh#hasMass</title>
<path fill="none" stroke="black" d="M791.06,-1345.7C825.68,-1357.35 877,-1374.62 915.13,-1387.45"/>
<polygon fill="black" stroke="black" points="914.41,-1390.9 925.01,-1390.78 916.65,-1384.27 914.41,-1390.9"/>
<text text-anchor="middle" x="773.09" y="-1370.37" font-family="Times,serif" font-size="14.00">schema:supersededBy</text>
</g>
<!-- http://w3id.org/oseg/ont/okh#openSCAD -->
<g id="node19" class="node">
<title>http://w3id.org/oseg/ont/okh#openSCAD</title>
<ellipse fill="none" stroke="#e377c2" cx="298.73" cy="-1766.19" rx="86.03" ry="16.03"/>
<text text-anchor="middle" x="298.73" y="-1762.49" font-family="Times,serif" font-size="14.00">okh:openSCAD</text>
</g>
<!-- http://w3id.org/oseg/ont/okh#openSCAD&#45;&gt;http://www.w3.org/2002/07/owl#DatatypeProperty -->
<g id="edge16" class="edge">
<title>http://w3id.org/oseg/ont/okh#openSCAD&#45;&gt;http://www.w3.org/2002/07/owl#DatatypeProperty</title>
<path fill="none" stroke="black" d="M321.68,-1750.47C373.53,-1714.95 499.84,-1628.42 559.28,-1587.7"/>
<polygon fill="black" stroke="black" points="561.28,-1590.58 567.55,-1582.04 557.32,-1584.8 561.28,-1590.58"/>
<text text-anchor="middle" x="435.98" y="-1672.89" font-family="Times,serif" font-size="14.00">a</text>
</g>
<!-- http://w3id.org/oseg/ont/okh#openSCAD&#45;&gt;http://www.w3.org/2001/XMLSchema#string -->
<g id="edge5" class="edge">
<title>http://w3id.org/oseg/ont/okh#openSCAD&#45;&gt;http://www.w3.org/2001/XMLSchema#string</title>
<path fill="none" stroke="black" d="M217.03,-1771.43C190.18,-1773.15 160.56,-1775.05 134.54,-1776.72"/>
<polygon fill="black" stroke="black" points="134.14,-1773.23 124.39,-1777.37 134.59,-1780.22 134.14,-1773.23"/>
<text text-anchor="middle" x="139.54" y="-1762.87" font-family="Times,serif" font-size="14.00">dcam:rangeIncludes</text>
</g>
<!-- http://w3id.org/oseg/ont/okh#openSCAD&#45;&gt;http://w3id.org/oseg/ont/okh#Dimensions -->
<g id="edge7" class="edge">
<title>http://w3id.org/oseg/ont/okh#openSCAD&#45;&gt;http://w3id.org/oseg/ont/okh#Dimensions</title>
<path fill="none" stroke="black" d="M302.19,-1749.74C311.7,-1704.62 338.24,-1578.66 349.91,-1523.31"/>
<polygon fill="black" stroke="black" points="353.4,-1523.73 352.03,-1513.23 346.55,-1522.29 353.4,-1523.73"/>
<text text-anchor="middle" x="248.05" y="-1640.32" font-family="Times,serif" font-size="14.00">dcam:domainIncludes</text>
</g>
<!-- http://w3id.org/oseg/ont/okh#height -->
<g id="node21" class="node">
<title>http://w3id.org/oseg/ont/okh#height</title>
<ellipse fill="none" stroke="#e377c2" cx="262.81" cy="-2001.72" rx="65.11" ry="16.03"/>
<text text-anchor="middle" x="262.81" y="-1998.02" font-family="Times,serif" font-size="14.00">okh:height</text>
</g>
<!-- http://w3id.org/oseg/ont/okh#openSCAD&#45;&gt;http://w3id.org/oseg/ont/okh#height -->
<g id="edge17" class="edge">
<title>http://w3id.org/oseg/ont/okh#openSCAD&#45;&gt;http://w3id.org/oseg/ont/okh#height</title>
<path fill="none" stroke="black" d="M296.2,-1782.76C290.07,-1822.96 274.36,-1926.01 266.88,-1975.03"/>
<polygon fill="black" stroke="black" points="263.38,-1974.77 265.34,-1985.18 270.3,-1975.82 263.38,-1974.77"/>
<text text-anchor="middle" x="361.54" y="-1882.7" font-family="Times,serif" font-size="14.00">schema:supersededBy</text>
</g>
<!-- http://w3id.org/oseg/ont/okh#depth -->
<g id="node22" class="node">
<title>http://w3id.org/oseg/ont/okh#depth</title>
<ellipse fill="none" stroke="#e377c2" cx="93.45" cy="-1885.21" rx="62.45" ry="16.03"/>
<text text-anchor="middle" x="93.45" y="-1881.51" font-family="Times,serif" font-size="14.00">okh:depth</text>
</g>
<!-- http://w3id.org/oseg/ont/okh#openSCAD&#45;&gt;http://w3id.org/oseg/ont/okh#depth -->
<g id="edge18" class="edge">
<title>http://w3id.org/oseg/ont/okh#openSCAD&#45;&gt;http://w3id.org/oseg/ont/okh#depth</title>
<path fill="none" stroke="black" d="M271.89,-1781.75C235.01,-1803.13 168.64,-1841.62 128.06,-1865.14"/>
<polygon fill="black" stroke="black" points="126.22,-1862.17 119.33,-1870.21 129.73,-1868.22 126.22,-1862.17"/>
<text text-anchor="middle" x="119.98" y="-1827.25" font-family="Times,serif" font-size="14.00">schema:supersededBy</text>
</g>
<!-- http://w3id.org/oseg/ont/okh#width -->
<g id="node29" class="node">
<title>http://w3id.org/oseg/ont/okh#width</title>
<ellipse fill="none" stroke="#e377c2" cx="162.72" cy="-1958.91" rx="61.54" ry="16.03"/>
<text text-anchor="middle" x="162.72" y="-1955.21" font-family="Times,serif" font-size="14.00">okh:width</text>
</g>
<!-- http://w3id.org/oseg/ont/okh#openSCAD&#45;&gt;http://w3id.org/oseg/ont/okh#width -->
<g id="edge27" class="edge">
<title>http://w3id.org/oseg/ont/okh#openSCAD&#45;&gt;http://w3id.org/oseg/ont/okh#width</title>
<path fill="none" stroke="black" d="M287.13,-1782.63C263.18,-1816.56 208.15,-1894.54 180,-1934.43"/>
<polygon fill="black" stroke="black" points="177,-1932.6 174.1,-1942.79 182.72,-1936.64 177,-1932.6"/>
<text text-anchor="middle" x="153.56" y="-1847.33" font-family="Times,serif" font-size="14.00">schema:supersededBy</text>
</g>
<!-- http://w3id.org/oseg/ont/okh#license -->
<g id="node20" class="node">
<title>http://w3id.org/oseg/ont/okh#license</title>
<ellipse fill="none" stroke="#e377c2" cx="749.19" cy="-340.56" rx="67.76" ry="16.03"/>
<text text-anchor="middle" x="749.19" y="-336.86" font-family="Times,serif" font-size="14.00">okh:license</text>
</g>
<!-- http://w3id.org/oseg/ont/okh#tsdc -->
<g id="node23" class="node">
<title>http://w3id.org/oseg/ont/okh#tsdc</title>
<ellipse fill="none" stroke="#e377c2" cx="1263.91" cy="-430.37" rx="54.39" ry="16.03"/>
<text text-anchor="middle" x="1263.91" y="-426.67" font-family="Times,serif" font-size="14.00">okh:tsdc</text>
</g>
<!-- http://schema.org/license -->
<g id="node24" class="node">
<title>http://schema.org/license</title>
<ellipse fill="none" stroke="#e377c2" cx="874.06" cy="-291.05" rx="88.28" ry="16.03"/>
<text text-anchor="middle" x="874.06" y="-287.35" font-family="Times,serif" font-size="14.00">schema:license</text>
</g>
<!-- http://w3id.org/oseg/ont/okh#permaURL -->
<g id="node25" class="node">
<title>http://w3id.org/oseg/ont/okh#permaURL</title>
<ellipse fill="none" stroke="#e377c2" cx="368.71" cy="-408.96" rx="87.86" ry="16.03"/>
<text text-anchor="middle" x="368.71" y="-405.26" font-family="Times,serif" font-size="14.00">okh:permaURL</text>
</g>
<!-- http://w3id.org/oseg/ont/okh#permaURL&#45;&gt;http://www.w3.org/2002/07/owl#ObjectProperty -->
<g id="edge22" class="edge">
<title>http://w3id.org/oseg/ont/okh#permaURL&#45;&gt;http://www.w3.org/2002/07/owl#ObjectProperty</title>
<path fill="none" stroke="black" d="M440.81,-418.23C478.22,-423.04 524.35,-428.98 564.41,-434.13"/>
<polygon fill="black" stroke="black" points="564.09,-437.61 574.46,-435.42 564.99,-430.67 564.09,-437.61"/>
<text text-anchor="middle" x="498.11" y="-429.98" font-family="Times,serif" font-size="14.00">a</text>
</g>
<!-- http://w3id.org/oseg/ont/okh#permaURL&#45;&gt;http://w3id.org/oseg/ont/okh#File -->
<g id="edge23" class="edge">
<title>http://w3id.org/oseg/ont/okh#permaURL&#45;&gt;http://w3id.org/oseg/ont/okh#File</title>
<path fill="none" stroke="black" d="M390.66,-393.1C415.16,-375.39 454.93,-346.64 482.02,-327.05"/>
<polygon fill="black" stroke="black" points="484.28,-329.74 490.34,-321.04 480.18,-324.06 484.28,-329.74"/>
<text text-anchor="middle" x="358.34" y="-363.88" font-family="Times,serif" font-size="14.00">dcam:domainIncludes</text>
</g>
<!-- http://w3id.org/oseg/ont/okh#fileUrl -->
<g id="node27" class="node">
<title>http://w3id.org/oseg/ont/okh#fileUrl</title>
<ellipse fill="none" stroke="#e377c2" cx="365.82" cy="-267.82" rx="65.11" ry="16.03"/>
<text text-anchor="middle" x="365.82" y="-264.12" font-family="Times,serif" font-size="14.00">okh:fileUrl</text>
</g>
<!-- http://w3id.org/oseg/ont/okh#fileUrl&#45;&gt;http://www.w3.org/2002/07/owl#ObjectProperty -->
<g id="edge25" class="edge">
<title>http://w3id.org/oseg/ont/okh#fileUrl&#45;&gt;http://www.w3.org/2002/07/owl#ObjectProperty</title>
<path fill="none" stroke="black" d="M390.68,-283.02C442.68,-314.81 563.05,-388.41 622.65,-424.85"/>
<polygon fill="black" stroke="black" points="620.97,-427.93 631.33,-430.16 624.63,-421.95 620.97,-427.93"/>
<text text-anchor="middle" x="502.16" y="-357.73" font-family="Times,serif" font-size="14.00">a</text>
</g>
<!-- http://w3id.org/oseg/ont/okh#fileUrl&#45;&gt;http://w3id.org/oseg/ont/okh#File -->
<g id="edge24" class="edge">
<title>http://w3id.org/oseg/ont/okh#fileUrl&#45;&gt;http://w3id.org/oseg/ont/okh#File</title>
<path fill="none" stroke="black" d="M411,-279.69C426.87,-283.86 444.79,-288.57 461.04,-292.84"/>
<polygon fill="black" stroke="black" points="460.35,-296.28 470.91,-295.43 462.13,-289.5 460.35,-296.28"/>
<text text-anchor="middle" x="358.02" y="-290.06" font-family="Times,serif" font-size="14.00">dcam:domainIncludes</text>
</g>
<!-- http://schema.org/url -->
<g id="node34" class="node">
<title>http://schema.org/url</title>
<ellipse fill="none" stroke="#e377c2" cx="132.84" cy="-189.63" rx="67.35" ry="16.03"/>
<text text-anchor="middle" x="132.84" y="-185.93" font-family="Times,serif" font-size="14.00">schema:url</text>
</g>
<!-- http://w3id.org/oseg/ont/okh#fileUrl&#45;&gt;http://schema.org/url -->
<g id="edge35" class="edge">
<title>http://w3id.org/oseg/ont/okh#fileUrl&#45;&gt;http://schema.org/url</title>
<path fill="none" stroke="black" d="M326.82,-254.73C287.04,-241.38 225.2,-220.63 182.07,-206.15"/>
<polygon fill="black" stroke="black" points="182.94,-202.75 172.35,-202.89 180.72,-209.39 182.94,-202.75"/>
<text text-anchor="middle" x="201.44" y="-234.24" font-family="Times,serif" font-size="14.00">subPropertyOf</text>
</g>
<!-- http://w3id.org/oseg/ont/okh#url -->
<g id="node39" class="node">
<title>http://w3id.org/oseg/ont/okh#url</title>
<ellipse fill="none" stroke="#e377c2" cx="276.16" cy="-85.28" rx="47.25" ry="16.03"/>
<text text-anchor="middle" x="276.16" y="-81.58" font-family="Times,serif" font-size="14.00">okh:url</text>
</g>
<!-- http://w3id.org/oseg/ont/okh#fileUrl&#45;&gt;http://w3id.org/oseg/ont/okh#url -->
<g id="edge46" class="edge">
<title>http://w3id.org/oseg/ont/okh#fileUrl&#45;&gt;http://w3id.org/oseg/ont/okh#url</title>
<path fill="none" stroke="black" d="M357.86,-251.62C342.24,-219.82 307.47,-149.02 288.72,-110.85"/>
<polygon fill="black" stroke="black" points="291.65,-108.88 284.1,-101.45 285.37,-111.96 291.65,-108.88"/>
<text text-anchor="middle" x="283.29" y="-170.03" font-family="Times,serif" font-size="14.00">schema:supersededBy</text>
</g>
<!-- http://w3id.org/oseg/ont/okh#openScad -->
<g id="node28" class="node">
<title>http://w3id.org/oseg/ont/okh#openScad</title>
<ellipse fill="none" stroke="#e377c2" cx="539.53" cy="-1612.83" rx="82.05" ry="16.03"/>
<text text-anchor="middle" x="539.53" y="-1609.13" font-family="Times,serif" font-size="14.00">okh:openScad</text>
</g>
<!-- http://w3id.org/oseg/ont/okh#openScad&#45;&gt;http://www.w3.org/2002/07/owl#DatatypeProperty -->
<g id="edge26" class="edge">
<title>http://w3id.org/oseg/ont/okh#openScad&#45;&gt;http://www.w3.org/2002/07/owl#DatatypeProperty</title>
<path fill="none" stroke="black" d="M557.02,-1596.92C559.91,-1594.3 562.94,-1591.54 565.97,-1588.79"/>
<polygon fill="black" stroke="black" points="568.33,-1591.37 573.38,-1582.05 563.62,-1586.19 568.33,-1591.37"/>
<text text-anchor="middle" x="557" y="-1581.65" font-family="Times,serif" font-size="14.00">a</text>
</g>
<!-- http://w3id.org/oseg/ont/okh#openScad&#45;&gt;http://w3id.org/oseg/ont/okh#openSCAD -->
<g id="edge14" class="edge">
<title>http://w3id.org/oseg/ont/okh#openScad&#45;&gt;http://w3id.org/oseg/ont/okh#openSCAD</title>
<path fill="none" stroke="black" d="M507.27,-1627.89C459.02,-1655.23 369.11,-1712.53 324.77,-1744.22"/>
<polygon fill="black" stroke="black" points="322.57,-1741.49 316.53,-1750.2 326.68,-1747.15 322.57,-1741.49"/>
<text text-anchor="middle" x="336.02" y="-1689.85" font-family="Times,serif" font-size="14.00">schema:supersededBy</text>
</g>
<!-- http://w3id.org/oseg/ont/okh#openScad&#45;&gt;http://w3id.org/oseg/ont/okh#openSCAD -->
<g id="edge55" class="edge">
<title>http://w3id.org/oseg/ont/okh#openScad&#45;&gt;http://w3id.org/oseg/ont/okh#openSCAD</title>
<path fill="none" stroke="black" d="M521.53,-1628.97C483.24,-1657.28 393.07,-1715.16 339.9,-1746.02"/>
<polygon fill="black" stroke="black" points="337.99,-1743.08 331.06,-1751.1 341.47,-1749.15 337.99,-1743.08"/>
<text text-anchor="middle" x="473.21" y="-1691.3" font-family="Times,serif" font-size="14.00">owl:sameAs</text>
</g>
<!-- http://spdx.org/rdf/terms#ListedLicense -->
<g id="node30" class="node">
<title>http://spdx.org/rdf/terms#ListedLicense</title>
<ellipse fill="none" stroke="#e377c2" cx="1071.71" cy="-395.3" rx="108.38" ry="16.03"/>
<text text-anchor="middle" x="1071.71" y="-391.6" font-family="Times,serif" font-size="14.00">spdx:ListedLicense</text>
</g>
<!-- http://w3id.org/oseg/ont/okh#okhvOriginal -->
<g id="node31" class="node">
<title>http://w3id.org/oseg/ont/okh#okhvOriginal</title>
<ellipse fill="none" stroke="#e377c2" cx="864.87" cy="-1794.74" rx="97.66" ry="16.03"/>
<text text-anchor="middle" x="864.87" y="-1791.04" font-family="Times,serif" font-size="14.00">okh:okhvOriginal</text>
</g>
<!-- http://w3id.org/oseg/ont/okh#okhvOriginal&#45;&gt;http://www.w3.org/2002/07/owl#DatatypeProperty -->
<g id="edge30" class="edge">
<title>http://w3id.org/oseg/ont/okh#okhvOriginal&#45;&gt;http://www.w3.org/2002/07/owl#DatatypeProperty</title>
<path fill="none" stroke="black" d="M845.63,-1778.64C797.84,-1738.66 673.61,-1634.76 618.37,-1588.56"/>
<polygon fill="black" stroke="black" points="620.35,-1585.64 610.43,-1581.91 615.86,-1591.01 620.35,-1585.64"/>
<text text-anchor="middle" x="727.5" y="-1687.4" font-family="Times,serif" font-size="14.00">a</text>
</g>
<!-- http://w3id.org/oseg/ont/okh#okhvOriginal&#45;&gt;http://w3id.org/oseg/ont/okh#okhv -->
<g id="edge52" class="edge">
<title>http://w3id.org/oseg/ont/okh#okhvOriginal&#45;&gt;http://w3id.org/oseg/ont/okh#okhv</title>
<path fill="none" stroke="black" d="M867.72,-1811.2C874.24,-1848.86 890.29,-1941.57 898.21,-1987.32"/>
<polygon fill="black" stroke="black" points="894.79,-1988.1 899.94,-1997.36 901.69,-1986.91 894.79,-1988.1"/>
<text text-anchor="middle" x="935.96" y="-1903.06" font-family="Times,serif" font-size="14.00">subPropertyOf</text>
</g>
<!-- http://w3id.org/oseg/ont/okh#okhvStored -->
<g id="node41" class="node">
<title>http://w3id.org/oseg/ont/okh#okhvStored</title>
<ellipse fill="none" stroke="#e377c2" cx="1128.79" cy="-1893.62" rx="90.52" ry="16.03"/>
<text text-anchor="middle" x="1128.79" y="-1889.92" font-family="Times,serif" font-size="14.00">okh:okhvStored</text>
</g>
<!-- http://w3id.org/oseg/ont/okh#okhvOriginal&#45;&gt;http://w3id.org/oseg/ont/okh#okhvStored -->
<g id="edge48" class="edge">
<title>http://w3id.org/oseg/ont/okh#okhvOriginal&#45;&gt;http://w3id.org/oseg/ont/okh#okhvStored</title>
<path fill="none" stroke="black" d="M904.67,-1809.65C951.61,-1827.24 1029.64,-1856.47 1080.13,-1875.39"/>
<polygon fill="black" stroke="black" points="1078.94,-1878.68 1089.54,-1878.91 1081.4,-1872.12 1078.94,-1878.68"/>
<text text-anchor="middle" x="964.9" y="-1846.32" font-family="Times,serif" font-size="14.00">seeAlso</text>
</g>
<!-- http://w3id.org/oseg/ont/okh#installationGuide -->
<g id="node32" class="node">
<title>http://w3id.org/oseg/ont/okh#installationGuide</title>
<ellipse fill="none" stroke="#e377c2" cx="578.95" cy="-1167.69" rx="106.55" ry="16.03"/>
<text text-anchor="middle" x="578.95" y="-1163.99" font-family="Times,serif" font-size="14.00">okh:installationG...</text>
</g>
<!-- http://w3id.org/oseg/ont/okh#installationGuide&#45;&gt;http://www.w3.org/2004/02/skos/core#Concept -->
<g id="edge9" class="edge">
<title>http://w3id.org/oseg/ont/okh#installationGuide&#45;&gt;http://www.w3.org/2004/02/skos/core#Concept</title>
<path fill="none" stroke="black" d="M581.42,-1151.36C589.6,-1097.21 615.92,-923.12 626.07,-856.01"/>
<polygon fill="black" stroke="black" points="629.57,-856.24 627.61,-845.83 622.65,-855.2 629.57,-856.24"/>
<text text-anchor="middle" x="599.24" y="-1007.48" font-family="Times,serif" font-size="14.00">a</text>
</g>
<!-- http://w3id.org/oseg/ont/okh#installationGuide&#45;&gt;http://www.w3.org/2002/07/owl#DatatypeProperty -->
<g id="edge31" class="edge">
<title>http://w3id.org/oseg/ont/okh#installationGuide&#45;&gt;http://www.w3.org/2002/07/owl#DatatypeProperty</title>
<path fill="none" stroke="black" d="M579.45,-1184.04C581.35,-1245.54 588.05,-1463.38 590.39,-1539.41"/>
<polygon fill="black" stroke="black" points="586.9,-1539.68 590.71,-1549.57 593.9,-1539.47 586.9,-1539.68"/>
<text text-anchor="middle" x="580.42" y="-1365.53" font-family="Times,serif" font-size="14.00">a</text>
</g>
<!-- http://w3id.org/oseg/ont/okh#Software -->
<g id="node42" class="node">
<title>http://w3id.org/oseg/ont/okh#Software</title>
<ellipse fill="none" stroke="#e377c2" cx="628.4" cy="-1408.96" rx="78.48" ry="16.03"/>
<text text-anchor="middle" x="628.4" y="-1405.26" font-family="Times,serif" font-size="14.00">okh:Software</text>
</g>
<!-- http://w3id.org/oseg/ont/okh#installationGuide&#45;&gt;http://w3id.org/oseg/ont/okh#Software -->
<g id="edge51" class="edge">
<title>http://w3id.org/oseg/ont/okh#installationGuide&#45;&gt;http://w3id.org/oseg/ont/okh#Software</title>
<path fill="none" stroke="black" d="M582.35,-1184.27C590.78,-1225.43 612.74,-1332.56 622.98,-1382.55"/>
<polygon fill="black" stroke="black" points="619.6,-1383.49 625.04,-1392.58 626.46,-1382.08 619.6,-1383.49"/>
<text text-anchor="middle" x="524.67" y="-1287.21" font-family="Times,serif" font-size="14.00">dcam:domainIncludes</text>
</g>
<!-- http://w3id.org/oseg/ont/okh#spdxLicense -->
<g id="node33" class="node">
<title>http://w3id.org/oseg/ont/okh#spdxLicense</title>
<ellipse fill="none" stroke="#e377c2" cx="829.19" cy="-568.04" rx="94.51" ry="16.03"/>
<text text-anchor="middle" x="829.19" y="-564.34" font-family="Times,serif" font-size="14.00">okh:spdxLicense</text>
</g>
<!-- http://w3id.org/oseg/ont/okh#spdxLicense&#45;&gt;http://www.w3.org/2004/02/skos/core#Concept -->
<g id="edge56" class="edge">
<title>http://w3id.org/oseg/ont/okh#spdxLicense&#45;&gt;http://www.w3.org/2004/02/skos/core#Concept</title>
<path fill="none" stroke="black" d="M816.74,-584.38C782.87,-628.82 688.95,-752.07 648.75,-804.81"/>
<polygon fill="black" stroke="black" points="645.84,-802.87 642.56,-812.94 651.4,-807.11 645.84,-802.87"/>
<text text-anchor="middle" x="728.24" y="-698.4" font-family="Times,serif" font-size="14.00">a</text>
</g>
<!-- http://w3id.org/oseg/ont/okh#spdxLicense&#45;&gt;http://www.w3.org/2002/07/owl#ObjectProperty -->
<g id="edge33" class="edge">
<title>http://w3id.org/oseg/ont/okh#spdxLicense&#45;&gt;http://www.w3.org/2002/07/owl#ObjectProperty</title>
<path fill="none" stroke="black" d="M806.73,-552.09C776.37,-530.55 722.14,-492.05 688.05,-467.85"/>
<polygon fill="black" stroke="black" points="690.02,-464.96 679.84,-462.03 685.97,-470.67 690.02,-464.96"/>
<text text-anchor="middle" x="742.89" y="-513.77" font-family="Times,serif" font-size="14.00">a</text>
</g>
<!-- http://w3id.org/oseg/ont/okh#spdxLicense&#45;&gt;http://w3id.org/oseg/ont/okhmetaLegalTag -->
<g id="edge2" class="edge">
<title>http://w3id.org/oseg/ont/okh#spdxLicense&#45;&gt;http://w3id.org/oseg/ont/okhmetaLegalTag</title>
<path fill="none" stroke="black" d="M839.07,-551.85C862.78,-513.01 923.03,-414.32 951.39,-367.86"/>
<polygon fill="black" stroke="black" points="954.39,-369.66 956.61,-359.3 948.42,-366.01 954.39,-369.66"/>
<text text-anchor="middle" x="818.23" y="-463.65" font-family="Times,serif" font-size="14.00">okhmeta:hasMetaTag</text>
</g>
<!-- http://w3id.org/oseg/ont/okh#spdxLicense&#45;&gt;http://w3id.org/oseg/ont/okh#Module -->
<g id="edge8" class="edge">
<title>http://w3id.org/oseg/ont/okh#spdxLicense&#45;&gt;http://w3id.org/oseg/ont/okh#Module</title>
<path fill="none" stroke="black" d="M755.61,-557.75C742.07,-555.86 727.95,-553.88 714.5,-552"/>
<polygon fill="black" stroke="black" points="714.74,-548.5 704.35,-550.58 713.77,-555.43 714.74,-548.5"/>
<text text-anchor="middle" x="813.05" y="-543.67" font-family="Times,serif" font-size="14.00">dcam:domainIncludes</text>
</g>
<!-- http://w3id.org/oseg/ont/okh#spdxLicense&#45;&gt;http://w3id.org/oseg/ont/okh#license -->
<g id="edge15" class="edge">
<title>http://w3id.org/oseg/ont/okh#spdxLicense&#45;&gt;http://w3id.org/oseg/ont/okh#license</title>
<path fill="none" stroke="black" d="M823.44,-551.68C809.68,-512.57 774.82,-413.45 758.23,-366.27"/>
<polygon fill="black" stroke="black" points="761.51,-365.04 754.89,-356.77 754.9,-367.37 761.51,-365.04"/>
<text text-anchor="middle" x="830.83" y="-447.77" font-family="Times,serif" font-size="14.00">schema:supersededBy</text>
</g>
<!-- http://w3id.org/oseg/ont/okh#spdxLicense&#45;&gt;http://schema.org/license -->
<g id="edge21" class="edge">
<title>http://w3id.org/oseg/ont/okh#spdxLicense&#45;&gt;http://schema.org/license</title>
<path fill="none" stroke="black" d="M831.86,-551.54C839.36,-505.26 860.64,-373.9 869.79,-317.41"/>
<polygon fill="black" stroke="black" points="873.26,-317.89 871.4,-307.46 866.35,-316.77 873.26,-317.89"/>
<text text-anchor="middle" x="821.33" y="-423.27" font-family="Times,serif" font-size="14.00">skos:closeMatch</text>
</g>
<!-- http://w3id.org/oseg/ont/okh#spdxLicense&#45;&gt;http://spdx.org/rdf/terms#ListedLicense -->
<g id="edge29" class="edge">
<title>http://w3id.org/oseg/ont/okh#spdxLicense&#45;&gt;http://spdx.org/rdf/terms#ListedLicense</title>
<path fill="none" stroke="black" d="M851.57,-552.1C895.04,-521.13 990.98,-452.8 1040.61,-417.45"/>
<polygon fill="black" stroke="black" points="1042.91,-420.1 1049.03,-411.45 1038.85,-414.4 1042.91,-420.1"/>
<text text-anchor="middle" x="1018.59" y="-488.57" font-family="Times,serif" font-size="14.00">dcam:rangeIncludes</text>
</g>
<!-- http://w3id.org/oseg/ont/okh#unit -->
<g id="node35" class="node">
<title>http://w3id.org/oseg/ont/okh#unit</title>
<ellipse fill="none" stroke="#e377c2" cx="518.61" cy="-1320.12" rx="53.07" ry="16.03"/>
<text text-anchor="middle" x="518.61" y="-1316.42" font-family="Times,serif" font-size="14.00">okh:unit</text>
</g>
<!-- http://w3id.org/oseg/ont/okh#unit&#45;&gt;http://w3id.org/oseg/ont/okh#Mass -->
<g id="edge41" class="edge">
<title>http://w3id.org/oseg/ont/okh#unit&#45;&gt;http://w3id.org/oseg/ont/okh#Mass</title>
<path fill="none" stroke="black" d="M528.47,-1303.91C550.8,-1267.24 605.31,-1177.7 631.94,-1133.95"/>
<polygon fill="black" stroke="black" points="634.97,-1135.71 637.18,-1125.35 628.99,-1132.07 634.97,-1135.71"/>
<text text-anchor="middle" x="502.21" y="-1207.73" font-family="Times,serif" font-size="14.00">dcam:domainIncludes</text>
</g>
<!-- http://w3id.org/oseg/ont/okh#unit&#45;&gt;http://www.w3.org/2002/07/owl#DatatypeProperty -->
<g id="edge36" class="edge">
<title>http://w3id.org/oseg/ont/okh#unit&#45;&gt;http://www.w3.org/2002/07/owl#DatatypeProperty</title>
<path fill="none" stroke="black" d="M523.48,-1336.62C535.83,-1378.41 568.41,-1488.69 583.43,-1539.51"/>
<polygon fill="black" stroke="black" points="580.16,-1540.8 586.35,-1549.4 586.88,-1538.82 580.16,-1540.8"/>
<text text-anchor="middle" x="548.96" y="-1441.86" font-family="Times,serif" font-size="14.00">a</text>
</g>
<!-- http://w3id.org/oseg/ont/okh#unit&#45;&gt;http://w3id.org/oseg/ont/okh#Dimensions -->
<g id="edge44" class="edge">
<title>http://w3id.org/oseg/ont/okh#unit&#45;&gt;http://w3id.org/oseg/ont/okh#Dimensions</title>
<path fill="none" stroke="black" d="M504.13,-1335.78C475.51,-1366.77 411.5,-1436.06 377.59,-1472.76"/>
<polygon fill="black" stroke="black" points="374.65,-1470.78 370.44,-1480.5 379.8,-1475.53 374.65,-1470.78"/>
<text text-anchor="middle" x="362.86" y="-1408.07" font-family="Times,serif" font-size="14.00">dcam:domainIncludes</text>
</g>
<!-- http://w3id.org/oseg/ont/okh#alternativeLicense -->
<g id="node37" class="node">
<title>http://w3id.org/oseg/ont/okh#alternativeLicense</title>
<ellipse fill="none" stroke="#e377c2" cx="703.21" cy="-489.91" rx="107.46" ry="16.03"/>
<text text-anchor="middle" x="703.21" y="-486.21" font-family="Times,serif" font-size="14.00">okh:alternativeLi...</text>
</g>
<!-- http://w3id.org/oseg/ont/okh#alternativeLicense&#45;&gt;http://www.w3.org/2004/02/skos/core#Concept -->
<g id="edge49" class="edge">
<title>http://w3id.org/oseg/ont/okh#alternativeLicense&#45;&gt;http://www.w3.org/2004/02/skos/core#Concept</title>
<path fill="none" stroke="black" d="M699.68,-506.28C687.96,-560.69 650.23,-735.89 635.8,-802.89"/>
<polygon fill="black" stroke="black" points="632.37,-802.16 633.69,-812.67 639.21,-803.64 632.37,-802.16"/>
<text text-anchor="middle" x="663.24" y="-658.38" font-family="Times,serif" font-size="14.00">a</text>
</g>
<!-- http://w3id.org/oseg/ont/okh#alternativeLicense&#45;&gt;http://www.w3.org/2002/07/owl#ObjectProperty -->
<g id="edge42" class="edge">
<title>http://w3id.org/oseg/ont/okh#alternativeLicense&#45;&gt;http://www.w3.org/2002/07/owl#ObjectProperty</title>
<path fill="none" stroke="black" d="M686.4,-473.84C684.95,-472.44 683.46,-471.02 681.95,-469.58"/>
<polygon fill="black" stroke="black" points="684.14,-466.82 674.49,-462.44 679.3,-471.88 684.14,-466.82"/>
<text text-anchor="middle" x="679.68" y="-460.51" font-family="Times,serif" font-size="14.00">a</text>
</g>
<!-- http://w3id.org/oseg/ont/okh#alternativeLicense&#45;&gt;http://w3id.org/oseg/ont/okhmetaLegalTag -->
<g id="edge4" class="edge">
<title>http://w3id.org/oseg/ont/okh#alternativeLicense&#45;&gt;http://w3id.org/oseg/ont/okhmetaLegalTag</title>
<path fill="none" stroke="black" d="M731.4,-474.18C779.19,-447.51 876.13,-393.43 929.42,-363.7"/>
<polygon fill="black" stroke="black" points="931.18,-366.72 938.21,-358.79 927.77,-360.61 931.18,-366.72"/>
<text text-anchor="middle" x="753.41" y="-407.74" font-family="Times,serif" font-size="14.00">okhmeta:hasMetaTag</text>
</g>
<!-- http://w3id.org/oseg/ont/okh#alternativeLicense&#45;&gt;http://w3id.org/oseg/ont/okh#Module -->
<g id="edge54" class="edge">
<title>http://w3id.org/oseg/ont/okh#alternativeLicense&#45;&gt;http://w3id.org/oseg/ont/okh#Module</title>
<path fill="none" stroke="black" d="M684.7,-506.14C679.96,-510.3 674.76,-514.86 669.71,-519.28"/>
<polygon fill="black" stroke="black" points="667.19,-516.84 661.98,-526.06 671.81,-522.1 667.19,-516.84"/>
<text text-anchor="middle" x="755.21" y="-516.51" font-family="Times,serif" font-size="14.00">dcam:domainIncludes</text>
</g>
<!-- http://w3id.org/oseg/ont/okh#alternativeLicense&#45;&gt;http://w3id.org/oseg/ont/okh#license -->
<g id="edge20" class="edge">
<title>http://w3id.org/oseg/ont/okh#alternativeLicense&#45;&gt;http://w3id.org/oseg/ont/okh#license</title>
<path fill="none" stroke="black" d="M708.22,-473.64C716.16,-447.83 731.73,-397.27 741.22,-366.44"/>
<polygon fill="black" stroke="black" points="744.59,-367.39 744.18,-356.81 737.9,-365.33 744.59,-367.39"/>
<text text-anchor="middle" x="644.72" y="-408.84" font-family="Times,serif" font-size="14.00">schema:supersededBy</text>
</g>
<!-- http://w3id.org/oseg/ont/okh#alternativeLicense&#45;&gt;http://schema.org/license -->
<g id="edge53" class="edge">
<title>http://w3id.org/oseg/ont/okh#alternativeLicense&#45;&gt;http://schema.org/license</title>
<path fill="none" stroke="black" d="M717.19,-473.63C747.3,-438.59 818.39,-355.84 853.59,-314.88"/>
<polygon fill="black" stroke="black" points="856.26,-317.13 860.12,-307.27 850.95,-312.57 856.26,-317.13"/>
<text text-anchor="middle" x="726.39" y="-383.06" font-family="Times,serif" font-size="14.00">skos:closeMatch</text>
</g>
<!-- http://w3id.org/oseg/ont/okh#alternativeLicense&#45;&gt;http://w3id.org/oseg/ont/okh#File -->
<g id="edge39" class="edge">
<title>http://w3id.org/oseg/ont/okh#alternativeLicense&#45;&gt;http://w3id.org/oseg/ont/okh#File</title>
<path fill="none" stroke="black" d="M686.17,-473.59C651.74,-440.62 573.85,-366.05 534.64,-328.5"/>
<polygon fill="black" stroke="black" points="536.98,-325.89 527.33,-321.5 532.14,-330.95 536.98,-325.89"/>
<text text-anchor="middle" x="537.9" y="-389.84" font-family="Times,serif" font-size="14.00">dcam:rangeIncludes</text>
</g>
<!-- http://w3id.org/oseg/ont/okh#relatedTsdc -->
<g id="node40" class="node">
<title>http://w3id.org/oseg/ont/okh#relatedTsdc</title>
<ellipse fill="none" stroke="#e377c2" cx="993.75" cy="-446.62" rx="91.85" ry="16.03"/>
<text text-anchor="middle" x="993.75" y="-442.92" font-family="Times,serif" font-size="14.00">okh:relatedTsdc</text>
</g>
<!-- http://w3id.org/oseg/ont/okh#relatedTsdc&#45;&gt;http://www.w3.org/2002/07/owl#ObjectProperty -->
<g id="edge47" class="edge">
<title>http://w3id.org/oseg/ont/okh#relatedTsdc&#45;&gt;http://www.w3.org/2002/07/owl#ObjectProperty</title>
<path fill="none" stroke="black" d="M901.39,-446.48C863.03,-446.41 818.01,-446.34 777.16,-446.27"/>
<polygon fill="black" stroke="black" points="777.15,-442.77 767.15,-446.26 777.14,-449.77 777.15,-442.77"/>
<text text-anchor="middle" x="834.77" y="-435.17" font-family="Times,serif" font-size="14.00">a</text>
</g>
<!-- http://w3id.org/oseg/ont/okh#relatedTsdc&#45;&gt;http://w3id.org/oseg/ont/okh#tsdc -->
<g id="edge19" class="edge">
<title>http://w3id.org/oseg/ont/okh#relatedTsdc&#45;&gt;http://w3id.org/oseg/ont/okh#tsdc</title>
<path fill="none" stroke="black" d="M1085.6,-447.54C1125.62,-445.74 1171.31,-442.74 1206.41,-439.5"/>
<polygon fill="black" stroke="black" points="1206.87,-442.97 1216.49,-438.53 1206.2,-436 1206.87,-442.97"/>
<text text-anchor="middle" x="1226.01" y="-447.32" font-family="Times,serif" font-size="14.00">schema:supersededBy</text>
</g>
<!-- http://w3id.org/oseg/ont/okh#relatedTsdc&#45;&gt;http://w3id.org/oseg/ont/okh#tsdc -->
<g id="edge28" class="edge">
<title>http://w3id.org/oseg/ont/okh#relatedTsdc&#45;&gt;http://w3id.org/oseg/ont/okh#tsdc</title>
<path fill="none" stroke="black" d="M1065.08,-436.28C1106.95,-432.75 1159.43,-429.66 1199.96,-428.38"/>
<polygon fill="black" stroke="black" points="1200.1,-431.88 1210,-428.1 1199.9,-424.88 1200.1,-431.88"/>
<text text-anchor="middle" x="1153.77" y="-421.13" font-family="Times,serif" font-size="14.00">owl:sameAs</text>
</g>
</g>
</svg>
