<?xml version="1.0" encoding="UTF-8" standalone="no"?>
<!DOCTYPE svg PUBLIC "-//W3C//DTD SVG 1.1//EN"
 "http://www.w3.org/Graphics/SVG/1.1/DTD/svg11.dtd">
<!-- Generated by graphviz version 2.43.0 (0)
 -->
<!-- Title: G Pages: 1 -->
<svg width="2751pt" height="1160pt"
 viewBox="0.00 0.00 2751.00 1160.00" xmlns="http://www.w3.org/2000/svg" xmlns:xlink="http://www.w3.org/1999/xlink">
<g id="graph0" class="graph" transform="scale(1 1) rotate(0) translate(4 1156)">
<title>G</title>
<polygon fill="white" stroke="transparent" points="-4,4 -4,-1156 2747,-1156 2747,4 -4,4"/>
<!-- http://www.w3.org/2002/07/owl#DatatypeProperty -->
<g id="node1" class="node">
<title>http://www.w3.org/2002/07/owl#DatatypeProperty</title>
<ellipse fill="none" stroke="#1f77b4" cx="721.48" cy="-426.32" rx="123.07" ry="16.03"/>
<text text-anchor="middle" x="721.48" y="-422.62" font-family="Times,serif" font-size="14.00">owl:DatatypeProperty</text>
</g>
<!-- http://schema.org/URL -->
<g id="node2" class="node">
<title>http://schema.org/URL</title>
<ellipse fill="none" stroke="#e377c2" cx="2044.05" cy="-884.32" rx="75.82" ry="16.03"/>
<text text-anchor="middle" x="2044.05" y="-880.62" font-family="Times,serif" font-size="14.00">schema:URL</text>
</g>
<!-- http://w3id.org/oseg/ont/okh#ComponentReference -->
<g id="node3" class="node">
<title>http://w3id.org/oseg/ont/okh#ComponentReference</title>
<ellipse fill="none" stroke="#e377c2" cx="1734.65" cy="-384.03" rx="123.07" ry="16.03"/>
<text text-anchor="middle" x="1734.65" y="-380.33" font-family="Times,serif" font-size="14.00">okh:ComponentRefe...</text>
</g>
<!-- http://www.w3.org/2004/02/skos/core#Concept -->
<g id="node5" class="node">
<title>http://www.w3.org/2004/02/skos/core#Concept</title>
<ellipse fill="none" stroke="#1f77b4" cx="1472.1" cy="-512.93" rx="78.48" ry="16.03"/>
<text text-anchor="middle" x="1472.1" y="-509.23" font-family="Times,serif" font-size="14.00">skos:Concept</text>
</g>
<!-- http://w3id.org/oseg/ont/okh#ComponentReference&#45;&gt;http://www.w3.org/2004/02/skos/core#Concept -->
<g id="edge4" class="edge">
<title>http://w3id.org/oseg/ont/okh#ComponentReference&#45;&gt;http://www.w3.org/2004/02/skos/core#Concept</title>
<path fill="none" stroke="black" d="M1702.45,-399.83C1654.5,-423.37 1564.38,-467.62 1512.21,-493.23"/>
<polygon fill="black" stroke="black" points="1510.36,-490.24 1502.93,-497.79 1513.44,-496.53 1510.36,-490.24"/>
<text text-anchor="middle" x="1602.83" y="-450.33" font-family="Times,serif" font-size="14.00">a</text>
</g>
<!-- http://w3id.org/oseg/ont/okh#Reference -->
<g id="node6" class="node">
<title>http://w3id.org/oseg/ont/okh#Reference</title>
<ellipse fill="none" stroke="#e377c2" cx="1657.94" cy="-338.07" rx="84.29" ry="16.03"/>
<text text-anchor="middle" x="1657.94" y="-334.37" font-family="Times,serif" font-size="14.00">okh:Reference</text>
</g>
<!-- http://w3id.org/oseg/ont/okh#ComponentReference&#45;&gt;http://w3id.org/oseg/ont/okh#Reference -->
<g id="edge14" class="edge">
<title>http://w3id.org/oseg/ont/okh#ComponentReference&#45;&gt;http://w3id.org/oseg/ont/okh#Reference</title>
<path fill="none" stroke="black" d="M1707.82,-367.95C1702.96,-365.04 1697.82,-361.97 1692.77,-358.94"/>
<polygon fill="black" stroke="black" points="1694.23,-355.73 1683.85,-353.59 1690.63,-361.74 1694.23,-355.73"/>
</g>
<!-- http://w3id.org/oseg/ont/okhmetaPartsTag -->
<g id="node33" class="node">
<title>http://w3id.org/oseg/ont/okhmetaPartsTag</title>
<ellipse fill="none" stroke="#e377c2" cx="1740.6" cy="-16.19" rx="103.48" ry="16.03"/>
<text text-anchor="middle" x="1740.6" y="-12.49" font-family="Times,serif" font-size="14.00">okhmeta:PartsTag</text>
</g>
<!-- http://w3id.org/oseg/ont/okh#ComponentReference&#45;&gt;http://w3id.org/oseg/ont/okhmetaPartsTag -->
<g id="edge19" class="edge">
<title>http://w3id.org/oseg/ont/okh#ComponentReference&#45;&gt;http://w3id.org/oseg/ont/okhmetaPartsTag</title>
<path fill="none" stroke="black" d="M1734.91,-367.75C1735.85,-309.95 1739.01,-114.29 1740.17,-42.71"/>
<polygon fill="black" stroke="black" points="1743.67,-42.76 1740.33,-32.7 1736.67,-42.64 1743.67,-42.76"/>
<text text-anchor="middle" x="1660.54" y="-209.03" font-family="Times,serif" font-size="14.00">okhmeta:hasMetaTag</text>
</g>
<!-- http://w3id.org/oseg/ont/okh#FileUrl -->
<g id="node4" class="node">
<title>http://w3id.org/oseg/ont/okh#FileUrl</title>
<ellipse fill="none" stroke="#1f77b4" cx="1972.45" cy="-637.29" rx="68.68" ry="16.03"/>
<text text-anchor="middle" x="1972.45" y="-633.59" font-family="Times,serif" font-size="14.00">okh:FileUrl</text>
</g>
<!-- http://w3id.org/oseg/ont/okh#FileUrl&#45;&gt;http://schema.org/URL -->
<g id="edge9" class="edge">
<title>http://w3id.org/oseg/ont/okh#FileUrl&#45;&gt;http://schema.org/URL</title>
<path fill="none" stroke="black" d="M1977.26,-653.89C1989.46,-695.99 2021.7,-807.23 2036.47,-858.17"/>
<polygon fill="black" stroke="black" points="2033.11,-859.17 2039.26,-867.8 2039.84,-857.22 2033.11,-859.17"/>
</g>
<!-- http://w3id.org/oseg/ont/okh#FileUrl&#45;&gt;http://w3id.org/oseg/ont/okh#ComponentReference -->
<g id="edge1" class="edge">
<title>http://w3id.org/oseg/ont/okh#FileUrl&#45;&gt;http://w3id.org/oseg/ont/okh#ComponentReference</title>
<path fill="none" stroke="black" d="M1957.21,-621.07C1916.46,-577.66 1804.79,-458.73 1756.92,-407.74"/>
<polygon fill="black" stroke="black" points="1759.46,-405.34 1750.07,-400.45 1754.36,-410.13 1759.46,-405.34"/>
</g>
<!-- http://w3id.org/oseg/ont/okh#File -->
<g id="node14" class="node">
<title>http://w3id.org/oseg/ont/okh#File</title>
<ellipse fill="none" stroke="#e377c2" cx="2198.85" cy="-565.76" rx="52.15" ry="16.03"/>
<text text-anchor="middle" x="2198.85" y="-562.06" font-family="Times,serif" font-size="14.00">okh:File</text>
</g>
<!-- http://w3id.org/oseg/ont/okh#FileUrl&#45;&gt;http://w3id.org/oseg/ont/okh#File -->
<g id="edge10" class="edge">
<title>http://w3id.org/oseg/ont/okh#FileUrl&#45;&gt;http://w3id.org/oseg/ont/okh#File</title>
<path fill="none" stroke="black" d="M2013.71,-624.26C2052.83,-611.9 2111.52,-593.36 2152.29,-580.47"/>
<polygon fill="black" stroke="black" points="2153.51,-583.76 2161.99,-577.41 2151.4,-577.08 2153.51,-583.76"/>
<text text-anchor="middle" x="2163" y="-606.17" font-family="Times,serif" font-size="14.00">schema:supersededBy</text>
</g>
<!-- http://w3id.org/oseg/ont/okh#Mass -->
<g id="node7" class="node">
<title>http://w3id.org/oseg/ont/okh#Mass</title>
<ellipse fill="none" stroke="#e377c2" cx="1139.39" cy="-600.07" rx="59.29" ry="16.03"/>
<text text-anchor="middle" x="1139.39" y="-596.37" font-family="Times,serif" font-size="14.00">okh:Mass</text>
</g>
<!-- http://w3id.org/oseg/ont/okh#Mass&#45;&gt;http://www.w3.org/2004/02/skos/core#Concept -->
<g id="edge40" class="edge">
<title>http://w3id.org/oseg/ont/okh#Mass&#45;&gt;http://www.w3.org/2004/02/skos/core#Concept</title>
<path fill="none" stroke="black" d="M1182.54,-588.77C1241.5,-573.33 1347.41,-545.58 1413.5,-528.27"/>
<polygon fill="black" stroke="black" points="1414.56,-531.61 1423.35,-525.69 1412.79,-524.84 1414.56,-531.61"/>
<text text-anchor="middle" x="1293.52" y="-562.32" font-family="Times,serif" font-size="14.00">a</text>
</g>
<!-- http://w3id.org/oseg/ont/okhmetaTransportationTag -->
<g id="node30" class="node">
<title>http://w3id.org/oseg/ont/okhmetaTransportationTag</title>
<ellipse fill="none" stroke="#e377c2" cx="1084.8" cy="-899.58" rx="118.17" ry="16.03"/>
<text text-anchor="middle" x="1084.8" y="-895.88" font-family="Times,serif" font-size="14.00">okhmeta:Transport...</text>
</g>
<!-- http://w3id.org/oseg/ont/okh#Mass&#45;&gt;http://w3id.org/oseg/ont/okhmetaTransportationTag -->
<g id="edge42" class="edge">
<title>http://w3id.org/oseg/ont/okh#Mass&#45;&gt;http://w3id.org/oseg/ont/okhmetaTransportationTag</title>
<path fill="none" stroke="black" d="M1136.38,-616.6C1127.37,-666 1100.61,-812.83 1089.6,-873.2"/>
<polygon fill="black" stroke="black" points="1086.15,-872.64 1087.8,-883.1 1093.04,-873.89 1086.15,-872.64"/>
<text text-anchor="middle" x="1035.99" y="-748.7" font-family="Times,serif" font-size="14.00">okhmeta:hasMetaTag</text>
</g>
<!-- http://w3id.org/oseg/ont/okhmetaPhysicalTag -->
<g id="node37" class="node">
<title>http://w3id.org/oseg/ont/okhmetaPhysicalTag</title>
<ellipse fill="none" stroke="#e377c2" cx="1140.89" cy="-644.46" rx="118.17" ry="16.03"/>
<text text-anchor="middle" x="1140.89" y="-640.76" font-family="Times,serif" font-size="14.00">okhmeta:PhysicalTag</text>
</g>
<!-- http://w3id.org/oseg/ont/okh#Mass&#45;&gt;http://w3id.org/oseg/ont/okhmetaPhysicalTag -->
<g id="edge50" class="edge">
<title>http://w3id.org/oseg/ont/okh#Mass&#45;&gt;http://w3id.org/oseg/ont/okhmetaPhysicalTag</title>
<path fill="none" stroke="black" d="M1139.94,-616.35C1139.96,-616.95 1139.98,-617.56 1140,-618.17"/>
<polygon fill="black" stroke="black" points="1136.51,-618.31 1140.34,-628.18 1143.5,-618.07 1136.51,-618.31"/>
<text text-anchor="middle" x="1062.97" y="-621.06" font-family="Times,serif" font-size="14.00">okhmeta:hasMetaTag</text>
</g>
<!-- http://www.w3.org/2002/07/owl#ObjectProperty -->
<g id="node8" class="node">
<title>http://www.w3.org/2002/07/owl#ObjectProperty</title>
<ellipse fill="none" stroke="#1f77b4" cx="2165.65" cy="-683.4" rx="109.7" ry="16.03"/>
<text text-anchor="middle" x="2165.65" y="-679.7" font-family="Times,serif" font-size="14.00">owl:ObjectProperty</text>
</g>
<!-- http://w3id.org/oseg/ont/okh#value -->
<g id="node9" class="node">
<title>http://w3id.org/oseg/ont/okh#value</title>
<ellipse fill="none" stroke="#e377c2" cx="888.45" cy="-686.37" rx="60.21" ry="16.03"/>
<text text-anchor="middle" x="888.45" y="-682.67" font-family="Times,serif" font-size="14.00">okh:value</text>
</g>
<!-- http://w3id.org/oseg/ont/okh#value&#45;&gt;http://www.w3.org/2002/07/owl#DatatypeProperty -->
<g id="edge25" class="edge">
<title>http://w3id.org/oseg/ont/okh#value&#45;&gt;http://www.w3.org/2002/07/owl#DatatypeProperty</title>
<path fill="none" stroke="black" d="M878,-670.11C849.66,-625.96 771.15,-503.69 737.32,-451"/>
<polygon fill="black" stroke="black" points="740.27,-449.11 731.92,-442.58 734.38,-452.89 740.27,-449.11"/>
<text text-anchor="middle" x="803.16" y="-564.35" font-family="Times,serif" font-size="14.00">a</text>
</g>
<!-- http://w3id.org/oseg/ont/okh#value&#45;&gt;http://w3id.org/oseg/ont/okh#Mass -->
<g id="edge36" class="edge">
<title>http://w3id.org/oseg/ont/okh#value&#45;&gt;http://w3id.org/oseg/ont/okh#Mass</title>
<path fill="none" stroke="black" d="M925.75,-673.55C970.2,-658.26 1044.5,-632.71 1092.72,-616.12"/>
<polygon fill="black" stroke="black" points="1093.98,-619.39 1102.3,-612.83 1091.7,-612.77 1093.98,-619.39"/>
<text text-anchor="middle" x="931.23" y="-648.63" font-family="Times,serif" font-size="14.00">dcam:domainIncludes</text>
</g>
<!-- http://w3id.org/oseg/ont/okh#hasMass -->
<g id="node18" class="node">
<title>http://w3id.org/oseg/ont/okh#hasMass</title>
<ellipse fill="none" stroke="#e377c2" cx="739.93" cy="-878.22" rx="77.15" ry="16.03"/>
<text text-anchor="middle" x="739.93" y="-874.52" font-family="Times,serif" font-size="14.00">okh:hasMass</text>
</g>
<!-- http://w3id.org/oseg/ont/okh#value&#45;&gt;http://w3id.org/oseg/ont/okh#hasMass -->
<g id="edge32" class="edge">
<title>http://w3id.org/oseg/ont/okh#value&#45;&gt;http://w3id.org/oseg/ont/okh#hasMass</title>
<path fill="none" stroke="black" d="M876.04,-702.4C850,-736.05 789.49,-814.2 758.68,-854"/>
<polygon fill="black" stroke="black" points="755.76,-852.06 752.4,-862.11 761.29,-856.34 755.76,-852.06"/>
<text text-anchor="middle" x="737.36" y="-782" font-family="Times,serif" font-size="14.00">schema:supersededBy</text>
</g>
<!-- http://schema.org/license -->
<g id="node10" class="node">
<title>http://schema.org/license</title>
<ellipse fill="none" stroke="#e377c2" cx="2060.61" cy="-437.4" rx="88.28" ry="16.03"/>
<text text-anchor="middle" x="2060.61" y="-433.7" font-family="Times,serif" font-size="14.00">schema:license</text>
</g>
<!-- http://w3id.org/oseg/ont/okh#Module -->
<g id="node11" class="node">
<title>http://w3id.org/oseg/ont/okh#Module</title>
<ellipse fill="none" stroke="#e377c2" cx="1743.71" cy="-274.72" rx="70.92" ry="16.03"/>
<text text-anchor="middle" x="1743.71" y="-271.02" font-family="Times,serif" font-size="14.00">okh:Module</text>
</g>
<!-- http://w3id.org/oseg/ont/okh#openSCAD -->
<g id="node12" class="node">
<title>http://w3id.org/oseg/ont/okh#openSCAD</title>
<ellipse fill="none" stroke="#e377c2" cx="324.82" cy="-345.83" rx="86.03" ry="16.03"/>
<text text-anchor="middle" x="324.82" y="-342.13" font-family="Times,serif" font-size="14.00">okh:openSCAD</text>
</g>
<!-- http://w3id.org/oseg/ont/okh#openSCAD&#45;&gt;http://www.w3.org/2002/07/owl#DatatypeProperty -->
<g id="edge23" class="edge">
<title>http://w3id.org/oseg/ont/okh#openSCAD&#45;&gt;http://www.w3.org/2002/07/owl#DatatypeProperty</title>
<path fill="none" stroke="black" d="M383.78,-357.79C452.97,-371.83 567.92,-395.16 644.19,-410.64"/>
<polygon fill="black" stroke="black" points="643.73,-414.12 654.23,-412.68 645.12,-407.26 643.73,-414.12"/>
<text text-anchor="middle" x="509.49" y="-388.02" font-family="Times,serif" font-size="14.00">a</text>
</g>
<!-- http://w3id.org/oseg/ont/okh#Dimensions -->
<g id="node15" class="node">
<title>http://w3id.org/oseg/ont/okh#Dimensions</title>
<ellipse fill="none" stroke="#e377c2" cx="606.65" cy="-476.13" rx="91.85" ry="16.03"/>
<text text-anchor="middle" x="606.65" y="-472.43" font-family="Times,serif" font-size="14.00">okh:Dimensions</text>
</g>
<!-- http://w3id.org/oseg/ont/okh#openSCAD&#45;&gt;http://w3id.org/oseg/ont/okh#Dimensions -->
<g id="edge31" class="edge">
<title>http://w3id.org/oseg/ont/okh#openSCAD&#45;&gt;http://w3id.org/oseg/ont/okh#Dimensions</title>
<path fill="none" stroke="black" d="M357.43,-360.9C408.52,-384.52 507.43,-430.26 564.08,-456.45"/>
<polygon fill="black" stroke="black" points="562.92,-459.77 573.46,-460.79 565.86,-453.41 562.92,-459.77"/>
<text text-anchor="middle" x="382.75" y="-412.47" font-family="Times,serif" font-size="14.00">dcam:domainIncludes</text>
</g>
<!-- http://w3id.org/oseg/ont/okh#width -->
<g id="node21" class="node">
<title>http://w3id.org/oseg/ont/okh#width</title>
<ellipse fill="none" stroke="#e377c2" cx="106.57" cy="-217.59" rx="61.54" ry="16.03"/>
<text text-anchor="middle" x="106.57" y="-213.89" font-family="Times,serif" font-size="14.00">okh:width</text>
</g>
<!-- http://w3id.org/oseg/ont/okh#openSCAD&#45;&gt;http://w3id.org/oseg/ont/okh#width -->
<g id="edge8" class="edge">
<title>http://w3id.org/oseg/ont/okh#openSCAD&#45;&gt;http://w3id.org/oseg/ont/okh#width</title>
<path fill="none" stroke="black" d="M298.06,-330.1C258.42,-306.81 184.12,-263.16 140.65,-237.61"/>
<polygon fill="black" stroke="black" points="142.26,-234.5 131.86,-232.45 138.71,-240.53 142.26,-234.5"/>
<text text-anchor="middle" x="139.35" y="-287.66" font-family="Times,serif" font-size="14.00">schema:supersededBy</text>
</g>
<!-- http://www.w3.org/2001/XMLSchema#string -->
<g id="node26" class="node">
<title>http://www.w3.org/2001/XMLSchema#string</title>
<ellipse fill="none" stroke="#e377c2" cx="102.75" cy="-475.6" rx="62.87" ry="16.03"/>
<text text-anchor="middle" x="102.75" y="-471.9" font-family="Times,serif" font-size="14.00">xsd:string</text>
</g>
<!-- http://w3id.org/oseg/ont/okh#openSCAD&#45;&gt;http://www.w3.org/2001/XMLSchema#string -->
<g id="edge38" class="edge">
<title>http://w3id.org/oseg/ont/okh#openSCAD&#45;&gt;http://www.w3.org/2001/XMLSchema#string</title>
<path fill="none" stroke="black" d="M298.04,-361.48C257.67,-385.07 181.27,-429.71 136.94,-455.62"/>
<polygon fill="black" stroke="black" points="135.13,-452.63 128.26,-460.69 138.66,-458.67 135.13,-452.63"/>
<text text-anchor="middle" x="144.99" y="-412.35" font-family="Times,serif" font-size="14.00">dcam:rangeIncludes</text>
</g>
<!-- http://w3id.org/oseg/ont/okh#height -->
<g id="node27" class="node">
<title>http://w3id.org/oseg/ont/okh#height</title>
<ellipse fill="none" stroke="#e377c2" cx="64.74" cy="-342.17" rx="65.11" ry="16.03"/>
<text text-anchor="middle" x="64.74" y="-338.47" font-family="Times,serif" font-size="14.00">okh:height</text>
</g>
<!-- http://w3id.org/oseg/ont/okh#openSCAD&#45;&gt;http://w3id.org/oseg/ont/okh#height -->
<g id="edge39" class="edge">
<title>http://w3id.org/oseg/ont/okh#openSCAD&#45;&gt;http://w3id.org/oseg/ont/okh#height</title>
<path fill="none" stroke="black" d="M238.58,-344.62C206.7,-344.17 170.84,-343.66 140,-343.23"/>
<polygon fill="black" stroke="black" points="139.8,-339.73 129.75,-343.09 139.7,-346.73 139.8,-339.73"/>
<text text-anchor="middle" x="189.29" y="-332.72" font-family="Times,serif" font-size="14.00">schema:supersededBy</text>
</g>
<!-- http://w3id.org/oseg/ont/okh#depth -->
<g id="node28" class="node">
<title>http://w3id.org/oseg/ont/okh#depth</title>
<ellipse fill="none" stroke="#e377c2" cx="209.47" cy="-123.63" rx="62.45" ry="16.03"/>
<text text-anchor="middle" x="209.47" y="-119.93" font-family="Times,serif" font-size="14.00">okh:depth</text>
</g>
<!-- http://w3id.org/oseg/ont/okh#openSCAD&#45;&gt;http://w3id.org/oseg/ont/okh#depth -->
<g id="edge13" class="edge">
<title>http://w3id.org/oseg/ont/okh#openSCAD&#45;&gt;http://w3id.org/oseg/ont/okh#depth</title>
<path fill="none" stroke="black" d="M316.34,-329.49C296.43,-291.13 246.56,-195.07 222.65,-149.02"/>
<polygon fill="black" stroke="black" points="225.68,-147.25 217.97,-139.99 219.47,-150.48 225.68,-147.25"/>
<text text-anchor="middle" x="189.5" y="-243.05" font-family="Times,serif" font-size="14.00">schema:supersededBy</text>
</g>
<!-- http://w3id.org/oseg/ont/okh#url -->
<g id="node13" class="node">
<title>http://w3id.org/oseg/ont/okh#url</title>
<ellipse fill="none" stroke="#e377c2" cx="2681.77" cy="-579.06" rx="47.25" ry="16.03"/>
<text text-anchor="middle" x="2681.77" y="-575.36" font-family="Times,serif" font-size="14.00">okh:url</text>
</g>
<!-- http://w3id.org/oseg/ont/okh#fileUrl -->
<g id="node16" class="node">
<title>http://w3id.org/oseg/ont/okh#fileUrl</title>
<ellipse fill="none" stroke="#e377c2" cx="2442.09" cy="-551.85" rx="65.11" ry="16.03"/>
<text text-anchor="middle" x="2442.09" y="-548.15" font-family="Times,serif" font-size="14.00">okh:fileUrl</text>
</g>
<!-- http://w3id.org/oseg/ont/okh#fileUrl&#45;&gt;http://www.w3.org/2002/07/owl#ObjectProperty -->
<g id="edge30" class="edge">
<title>http://w3id.org/oseg/ont/okh#fileUrl&#45;&gt;http://www.w3.org/2002/07/owl#ObjectProperty</title>
<path fill="none" stroke="black" d="M2411.72,-566.31C2362.26,-589.84 2264.22,-636.49 2207.97,-663.26"/>
<polygon fill="black" stroke="black" points="2206.17,-660.24 2198.64,-667.7 2209.18,-666.56 2206.17,-660.24"/>
<text text-anchor="middle" x="2305.34" y="-603.58" font-family="Times,serif" font-size="14.00">a</text>
</g>
<!-- http://w3id.org/oseg/ont/okh#fileUrl&#45;&gt;http://w3id.org/oseg/ont/okh#url -->
<g id="edge28" class="edge">
<title>http://w3id.org/oseg/ont/okh#fileUrl&#45;&gt;http://w3id.org/oseg/ont/okh#url</title>
<path fill="none" stroke="black" d="M2501.34,-558.58C2539.6,-562.92 2589.06,-568.54 2626.51,-572.79"/>
<polygon fill="black" stroke="black" points="2626.4,-576.3 2636.74,-573.95 2627.19,-569.35 2626.4,-576.3"/>
<text text-anchor="middle" x="2603.92" y="-554.48" font-family="Times,serif" font-size="14.00">schema:supersededBy</text>
</g>
<!-- http://w3id.org/oseg/ont/okh#fileUrl&#45;&gt;http://w3id.org/oseg/ont/okh#File -->
<g id="edge49" class="edge">
<title>http://w3id.org/oseg/ont/okh#fileUrl&#45;&gt;http://w3id.org/oseg/ont/okh#File</title>
<path fill="none" stroke="black" d="M2378.5,-555.49C2342.24,-557.56 2297,-560.15 2260.99,-562.21"/>
<polygon fill="black" stroke="black" points="2260.39,-558.74 2250.61,-562.8 2260.79,-565.73 2260.39,-558.74"/>
<text text-anchor="middle" x="2280.74" y="-547.65" font-family="Times,serif" font-size="14.00">dcam:domainIncludes</text>
</g>
<!-- http://schema.org/url -->
<g id="node35" class="node">
<title>http://schema.org/url</title>
<ellipse fill="none" stroke="#e377c2" cx="2675.73" cy="-428.78" rx="67.35" ry="16.03"/>
<text text-anchor="middle" x="2675.73" y="-425.08" font-family="Times,serif" font-size="14.00">schema:url</text>
</g>
<!-- http://w3id.org/oseg/ont/okh#fileUrl&#45;&gt;http://schema.org/url -->
<g id="edge22" class="edge">
<title>http://w3id.org/oseg/ont/okh#fileUrl&#45;&gt;http://schema.org/url</title>
<path fill="none" stroke="black" d="M2470.27,-537.01C2512.37,-514.83 2591.73,-473.02 2638.54,-448.37"/>
<polygon fill="black" stroke="black" points="2640.23,-451.43 2647.45,-443.67 2636.97,-445.24 2640.23,-451.43"/>
<text text-anchor="middle" x="2501.41" y="-496.49" font-family="Times,serif" font-size="14.00">subPropertyOf</text>
</g>
<!-- http://w3id.org/oseg/ont/okh#alternativeLicense -->
<g id="node17" class="node">
<title>http://w3id.org/oseg/ont/okh#alternativeLicense</title>
<ellipse fill="none" stroke="#e377c2" cx="1869.9" cy="-501.69" rx="107.46" ry="16.03"/>
<text text-anchor="middle" x="1869.9" y="-497.99" font-family="Times,serif" font-size="14.00">okh:alternativeLi...</text>
</g>
<!-- http://w3id.org/oseg/ont/okh#alternativeLicense&#45;&gt;http://www.w3.org/2004/02/skos/core#Concept -->
<g id="edge43" class="edge">
<title>http://w3id.org/oseg/ont/okh#alternativeLicense&#45;&gt;http://www.w3.org/2004/02/skos/core#Concept</title>
<path fill="none" stroke="black" d="M1764.08,-504.68C1700.44,-506.47 1620.38,-508.74 1560.2,-510.44"/>
<polygon fill="black" stroke="black" points="1559.86,-506.94 1549.96,-510.73 1560.05,-513.94 1559.86,-506.94"/>
<text text-anchor="middle" x="1657.64" y="-511.36" font-family="Times,serif" font-size="14.00">a</text>
</g>
<!-- http://w3id.org/oseg/ont/okh#alternativeLicense&#45;&gt;http://www.w3.org/2002/07/owl#ObjectProperty -->
<g id="edge5" class="edge">
<title>http://w3id.org/oseg/ont/okh#alternativeLicense&#45;&gt;http://www.w3.org/2002/07/owl#ObjectProperty</title>
<path fill="none" stroke="black" d="M1895.63,-517.5C1948.83,-550.18 2070.98,-625.23 2131.03,-662.13"/>
<polygon fill="black" stroke="black" points="2129.42,-665.25 2139.77,-667.5 2133.08,-659.28 2129.42,-665.25"/>
<text text-anchor="middle" x="2008.83" y="-593.61" font-family="Times,serif" font-size="14.00">a</text>
</g>
<!-- http://w3id.org/oseg/ont/okh#alternativeLicense&#45;&gt;http://schema.org/license -->
<g id="edge21" class="edge">
<title>http://w3id.org/oseg/ont/okh#alternativeLicense&#45;&gt;http://schema.org/license</title>
<path fill="none" stroke="black" d="M1914.14,-486.78C1942.31,-477.28 1978.94,-464.93 2008.52,-454.96"/>
<polygon fill="black" stroke="black" points="2009.9,-458.19 2018.26,-451.68 2007.67,-451.55 2009.9,-458.19"/>
<text text-anchor="middle" x="1902.33" y="-474.67" font-family="Times,serif" font-size="14.00">skos:closeMatch</text>
</g>
<!-- http://w3id.org/oseg/ont/okh#alternativeLicense&#45;&gt;http://w3id.org/oseg/ont/okh#Module -->
<g id="edge2" class="edge">
<title>http://w3id.org/oseg/ont/okh#alternativeLicense&#45;&gt;http://w3id.org/oseg/ont/okh#Module</title>
<path fill="none" stroke="black" d="M1860.83,-485.36C1839.05,-446.19 1783.68,-346.62 1757.64,-299.79"/>
<polygon fill="black" stroke="black" points="1760.62,-297.94 1752.7,-290.9 1754.5,-301.34 1760.62,-297.94"/>
<text text-anchor="middle" x="1887.24" y="-396.38" font-family="Times,serif" font-size="14.00">dcam:domainIncludes</text>
</g>
<!-- http://w3id.org/oseg/ont/okh#alternativeLicense&#45;&gt;http://w3id.org/oseg/ont/okh#File -->
<g id="edge3" class="edge">
<title>http://w3id.org/oseg/ont/okh#alternativeLicense&#45;&gt;http://w3id.org/oseg/ont/okh#File</title>
<path fill="none" stroke="black" d="M1936.08,-514.58C1997.31,-526.51 2087.27,-544.03 2144.44,-555.16"/>
<polygon fill="black" stroke="black" points="2143.88,-558.62 2154.37,-557.1 2145.22,-551.75 2143.88,-558.62"/>
<text text-anchor="middle" x="1967.76" y="-538.67" font-family="Times,serif" font-size="14.00">dcam:rangeIncludes</text>
</g>
<!-- http://w3id.org/oseg/ont/okhmetaLegalTag -->
<g id="node22" class="node">
<title>http://w3id.org/oseg/ont/okhmetaLegalTag</title>
<ellipse fill="none" stroke="#e377c2" cx="2055.35" cy="-323.13" rx="103.89" ry="16.03"/>
<text text-anchor="middle" x="2055.35" y="-319.43" font-family="Times,serif" font-size="14.00">okhmeta:LegalTag</text>
</g>
<!-- http://w3id.org/oseg/ont/okh#alternativeLicense&#45;&gt;http://w3id.org/oseg/ont/okhmetaLegalTag -->
<g id="edge11" class="edge">
<title>http://w3id.org/oseg/ont/okh#alternativeLicense&#45;&gt;http://w3id.org/oseg/ont/okhmetaLegalTag</title>
<path fill="none" stroke="black" d="M1886.69,-485.53C1919.57,-453.87 1992.58,-383.57 2030.86,-346.71"/>
<polygon fill="black" stroke="black" points="2033.7,-348.84 2038.47,-339.38 2028.84,-343.79 2033.7,-348.84"/>
<text text-anchor="middle" x="1881.77" y="-419.92" font-family="Times,serif" font-size="14.00">okhmeta:hasMetaTag</text>
</g>
<!-- http://w3id.org/oseg/ont/okh#license -->
<g id="node25" class="node">
<title>http://w3id.org/oseg/ont/okh#license</title>
<ellipse fill="none" stroke="#e377c2" cx="1904.51" cy="-268.95" rx="67.76" ry="16.03"/>
<text text-anchor="middle" x="1904.51" y="-265.25" font-family="Times,serif" font-size="14.00">okh:license</text>
</g>
<!-- http://w3id.org/oseg/ont/okh#alternativeLicense&#45;&gt;http://w3id.org/oseg/ont/okh#license -->
<g id="edge45" class="edge">
<title>http://w3id.org/oseg/ont/okh#alternativeLicense&#45;&gt;http://w3id.org/oseg/ont/okh#license</title>
<path fill="none" stroke="black" d="M1872.34,-485.32C1878.24,-445.59 1893.38,-343.76 1900.59,-295.32"/>
<polygon fill="black" stroke="black" points="1904.07,-295.7 1902.08,-285.29 1897.14,-294.67 1904.07,-295.7"/>
<text text-anchor="middle" x="1966.46" y="-379.12" font-family="Times,serif" font-size="14.00">schema:supersededBy</text>
</g>
<!-- http://w3id.org/oseg/ont/okh#installationGuide -->
<g id="node19" class="node">
<title>http://w3id.org/oseg/ont/okh#installationGuide</title>
<ellipse fill="none" stroke="#e377c2" cx="1120.96" cy="-369.55" rx="106.55" ry="16.03"/>
<text text-anchor="middle" x="1120.96" y="-365.85" font-family="Times,serif" font-size="14.00">okh:installationG...</text>
</g>
<!-- http://w3id.org/oseg/ont/okh#installationGuide&#45;&gt;http://www.w3.org/2002/07/owl#DatatypeProperty -->
<g id="edge34" class="edge">
<title>http://w3id.org/oseg/ont/okh#installationGuide&#45;&gt;http://www.w3.org/2002/07/owl#DatatypeProperty</title>
<path fill="none" stroke="black" d="M1042.51,-380.7C977.43,-389.95 884.7,-403.13 815.62,-412.94"/>
<polygon fill="black" stroke="black" points="815.02,-409.49 805.61,-414.37 816,-416.43 815.02,-409.49"/>
<text text-anchor="middle" x="924.57" y="-400.62" font-family="Times,serif" font-size="14.00">a</text>
</g>
<!-- http://w3id.org/oseg/ont/okh#installationGuide&#45;&gt;http://www.w3.org/2004/02/skos/core#Concept -->
<g id="edge47" class="edge">
<title>http://w3id.org/oseg/ont/okh#installationGuide&#45;&gt;http://www.w3.org/2004/02/skos/core#Concept</title>
<path fill="none" stroke="black" d="M1158.54,-384.89C1223.6,-411.46 1356.94,-465.9 1426.93,-494.48"/>
<polygon fill="black" stroke="black" points="1425.79,-497.79 1436.37,-498.33 1428.43,-491.31 1425.79,-497.79"/>
<text text-anchor="middle" x="1288.23" y="-443.49" font-family="Times,serif" font-size="14.00">a</text>
</g>
<!-- http://w3id.org/oseg/ont/okh#Software -->
<g id="node32" class="node">
<title>http://w3id.org/oseg/ont/okh#Software</title>
<ellipse fill="none" stroke="#e377c2" cx="1020.25" cy="-98.11" rx="78.48" ry="16.03"/>
<text text-anchor="middle" x="1020.25" y="-94.41" font-family="Times,serif" font-size="14.00">okh:Software</text>
</g>
<!-- http://w3id.org/oseg/ont/okh#installationGuide&#45;&gt;http://w3id.org/oseg/ont/okh#Software -->
<g id="edge44" class="edge">
<title>http://w3id.org/oseg/ont/okh#installationGuide&#45;&gt;http://w3id.org/oseg/ont/okh#Software</title>
<path fill="none" stroke="black" d="M1114.82,-352.98C1097.85,-307.25 1050.28,-179.04 1029.81,-123.88"/>
<polygon fill="black" stroke="black" points="1033.08,-122.62 1026.32,-114.47 1026.52,-125.06 1033.08,-122.62"/>
<text text-anchor="middle" x="994.31" y="-242.23" font-family="Times,serif" font-size="14.00">dcam:domainIncludes</text>
</g>
<!-- http://w3id.org/oseg/ont/okh#spdxLicense -->
<g id="node20" class="node">
<title>http://w3id.org/oseg/ont/okh#spdxLicense</title>
<ellipse fill="none" stroke="#e377c2" cx="1796.88" cy="-542.35" rx="94.51" ry="16.03"/>
<text text-anchor="middle" x="1796.88" y="-538.65" font-family="Times,serif" font-size="14.00">okh:spdxLicense</text>
</g>
<!-- http://w3id.org/oseg/ont/okh#spdxLicense&#45;&gt;http://www.w3.org/2004/02/skos/core#Concept -->
<g id="edge46" class="edge">
<title>http://w3id.org/oseg/ont/okh#spdxLicense&#45;&gt;http://www.w3.org/2004/02/skos/core#Concept</title>
<path fill="none" stroke="black" d="M1712.82,-534.73C1664.04,-530.31 1602.86,-524.77 1554.38,-520.38"/>
<polygon fill="black" stroke="black" points="1554.52,-516.88 1544.24,-519.46 1553.88,-523.85 1554.52,-516.88"/>
<text text-anchor="middle" x="1629.1" y="-531.36" font-family="Times,serif" font-size="14.00">a</text>
</g>
<!-- http://w3id.org/oseg/ont/okh#spdxLicense&#45;&gt;http://www.w3.org/2002/07/owl#ObjectProperty -->
<g id="edge7" class="edge">
<title>http://w3id.org/oseg/ont/okh#spdxLicense&#45;&gt;http://www.w3.org/2002/07/owl#ObjectProperty</title>
<path fill="none" stroke="black" d="M1836,-557.31C1903.59,-583.16 2042.1,-636.14 2116.24,-664.5"/>
<polygon fill="black" stroke="black" points="2115.23,-667.86 2125.82,-668.17 2117.73,-661.32 2115.23,-667.86"/>
<text text-anchor="middle" x="1971.62" y="-599.7" font-family="Times,serif" font-size="14.00">a</text>
</g>
<!-- http://w3id.org/oseg/ont/okh#spdxLicense&#45;&gt;http://schema.org/license -->
<g id="edge26" class="edge">
<title>http://w3id.org/oseg/ont/okh#spdxLicense&#45;&gt;http://schema.org/license</title>
<path fill="none" stroke="black" d="M1834.67,-527.31C1881.9,-508.52 1962.74,-476.35 2013.83,-456.02"/>
<polygon fill="black" stroke="black" points="2015.33,-459.19 2023.32,-452.24 2012.74,-452.68 2015.33,-459.19"/>
<text text-anchor="middle" x="1983.25" y="-480.46" font-family="Times,serif" font-size="14.00">skos:closeMatch</text>
</g>
<!-- http://w3id.org/oseg/ont/okh#spdxLicense&#45;&gt;http://w3id.org/oseg/ont/okh#Module -->
<g id="edge18" class="edge">
<title>http://w3id.org/oseg/ont/okh#spdxLicense&#45;&gt;http://w3id.org/oseg/ont/okh#Module</title>
<path fill="none" stroke="black" d="M1793.63,-526.01C1784.73,-481.22 1759.89,-356.16 1748.97,-301.2"/>
<polygon fill="black" stroke="black" points="1752.36,-300.31 1746.98,-291.19 1745.49,-301.68 1752.36,-300.31"/>
<text text-anchor="middle" x="1693.3" y="-417.4" font-family="Times,serif" font-size="14.00">dcam:domainIncludes</text>
</g>
<!-- http://w3id.org/oseg/ont/okh#spdxLicense&#45;&gt;http://w3id.org/oseg/ont/okhmetaLegalTag -->
<g id="edge15" class="edge">
<title>http://w3id.org/oseg/ont/okh#spdxLicense&#45;&gt;http://w3id.org/oseg/ont/okhmetaLegalTag</title>
<path fill="none" stroke="black" d="M1815.89,-526.23C1861.26,-487.75 1976.01,-390.42 2028.46,-345.94"/>
<polygon fill="black" stroke="black" points="2030.96,-348.41 2036.32,-339.27 2026.43,-343.07 2030.96,-348.41"/>
<text text-anchor="middle" x="1845.17" y="-439.88" font-family="Times,serif" font-size="14.00">okhmeta:hasMetaTag</text>
</g>
<!-- http://w3id.org/oseg/ont/okh#spdxLicense&#45;&gt;http://w3id.org/oseg/ont/okh#license -->
<g id="edge12" class="edge">
<title>http://w3id.org/oseg/ont/okh#spdxLicense&#45;&gt;http://w3id.org/oseg/ont/okh#license</title>
<path fill="none" stroke="black" d="M1803.29,-526.06C1821.31,-480.29 1872.53,-350.18 1894.4,-294.62"/>
<polygon fill="black" stroke="black" points="1897.72,-295.73 1898.13,-285.14 1891.21,-293.17 1897.72,-295.73"/>
<text text-anchor="middle" x="1928.85" y="-414.14" font-family="Times,serif" font-size="14.00">schema:supersededBy</text>
</g>
<!-- http://spdx.org/rdf/terms#ListedLicense -->
<g id="node31" class="node">
<title>http://spdx.org/rdf/terms#ListedLicense</title>
<ellipse fill="none" stroke="#e377c2" cx="1750.09" cy="-866.88" rx="108.38" ry="16.03"/>
<text text-anchor="middle" x="1750.09" y="-863.18" font-family="Times,serif" font-size="14.00">spdx:ListedLicense</text>
</g>
<!-- http://w3id.org/oseg/ont/okh#spdxLicense&#45;&gt;http://spdx.org/rdf/terms#ListedLicense -->
<g id="edge41" class="edge">
<title>http://w3id.org/oseg/ont/okh#spdxLicense&#45;&gt;http://spdx.org/rdf/terms#ListedLicense</title>
<path fill="none" stroke="black" d="M1794.5,-558.89C1786.91,-611.52 1763.28,-775.42 1753.94,-840.18"/>
<polygon fill="black" stroke="black" points="1750.43,-839.98 1752.47,-850.38 1757.36,-840.98 1750.43,-839.98"/>
<text text-anchor="middle" x="1701.72" y="-703.33" font-family="Times,serif" font-size="14.00">dcam:rangeIncludes</text>
</g>
<!-- http://w3id.org/oseg/ont/okh#permaURL -->
<g id="node23" class="node">
<title>http://w3id.org/oseg/ont/okh#permaURL</title>
<ellipse fill="none" stroke="#e377c2" cx="2402.24" cy="-685.23" rx="87.86" ry="16.03"/>
<text text-anchor="middle" x="2402.24" y="-681.53" font-family="Times,serif" font-size="14.00">okh:permaURL</text>
</g>
<!-- http://w3id.org/oseg/ont/okh#permaURL&#45;&gt;http://www.w3.org/2002/07/owl#ObjectProperty -->
<g id="edge35" class="edge">
<title>http://w3id.org/oseg/ont/okh#permaURL&#45;&gt;http://www.w3.org/2002/07/owl#ObjectProperty</title>
<path fill="none" stroke="black" d="M2314.48,-684.55C2305.01,-684.48 2295.26,-684.4 2285.5,-684.33"/>
<polygon fill="black" stroke="black" points="2285.36,-680.83 2275.33,-684.25 2285.31,-687.83 2285.36,-680.83"/>
<text text-anchor="middle" x="2295.49" y="-688.24" font-family="Times,serif" font-size="14.00">a</text>
</g>
<!-- http://w3id.org/oseg/ont/okh#permaURL&#45;&gt;http://w3id.org/oseg/ont/okh#File -->
<g id="edge6" class="edge">
<title>http://w3id.org/oseg/ont/okh#permaURL&#45;&gt;http://w3id.org/oseg/ont/okh#File</title>
<path fill="none" stroke="black" d="M2375.65,-669.61C2338.89,-648.02 2272.54,-609.05 2232.41,-585.48"/>
<polygon fill="black" stroke="black" points="2233.93,-582.31 2223.54,-580.26 2230.39,-588.35 2233.93,-582.31"/>
<text text-anchor="middle" x="2226.03" y="-631.35" font-family="Times,serif" font-size="14.00">dcam:domainIncludes</text>
</g>
<!-- http://w3id.org/oseg/ont/okh#tsdc -->
<g id="node24" class="node">
<title>http://w3id.org/oseg/ont/okh#tsdc</title>
<ellipse fill="none" stroke="#e377c2" cx="2605.78" cy="-1135.47" rx="54.39" ry="16.03"/>
<text text-anchor="middle" x="2605.78" y="-1131.77" font-family="Times,serif" font-size="14.00">okh:tsdc</text>
</g>
<!-- http://w3id.org/oseg/ont/okh#relatedTsdc -->
<g id="node29" class="node">
<title>http://w3id.org/oseg/ont/okh#relatedTsdc</title>
<ellipse fill="none" stroke="#e377c2" cx="2408.45" cy="-945.77" rx="91.85" ry="16.03"/>
<text text-anchor="middle" x="2408.45" y="-942.07" font-family="Times,serif" font-size="14.00">okh:relatedTsdc</text>
</g>
<!-- http://w3id.org/oseg/ont/okh#relatedTsdc&#45;&gt;http://www.w3.org/2002/07/owl#ObjectProperty -->
<g id="edge16" class="edge">
<title>http://w3id.org/oseg/ont/okh#relatedTsdc&#45;&gt;http://www.w3.org/2002/07/owl#ObjectProperty</title>
<path fill="none" stroke="black" d="M2393.26,-929.36C2351.79,-884.54 2236.46,-759.92 2187.78,-707.32"/>
<polygon fill="black" stroke="black" points="2190.19,-704.77 2180.83,-699.81 2185.05,-709.52 2190.19,-704.77"/>
<text text-anchor="middle" x="2286.02" y="-822.14" font-family="Times,serif" font-size="14.00">a</text>
</g>
<!-- http://w3id.org/oseg/ont/okh#relatedTsdc&#45;&gt;http://w3id.org/oseg/ont/okh#tsdc -->
<g id="edge17" class="edge">
<title>http://w3id.org/oseg/ont/okh#relatedTsdc&#45;&gt;http://w3id.org/oseg/ont/okh#tsdc</title>
<path fill="none" stroke="black" d="M2420.07,-962.08C2450.39,-996.32 2531.88,-1075.14 2576.21,-1113.65"/>
<polygon fill="black" stroke="black" points="2574.17,-1116.51 2584.04,-1120.35 2578.72,-1111.19 2574.17,-1116.51"/>
<text text-anchor="middle" x="2455.64" y="-1041.67" font-family="Times,serif" font-size="14.00">owl:sameAs</text>
</g>
<!-- http://w3id.org/oseg/ont/okh#relatedTsdc&#45;&gt;http://w3id.org/oseg/ont/okh#tsdc -->
<g id="edge37" class="edge">
<title>http://w3id.org/oseg/ont/okh#relatedTsdc&#45;&gt;http://w3id.org/oseg/ont/okh#tsdc</title>
<path fill="none" stroke="black" d="M2431.03,-961.6C2470.54,-995.01 2551.1,-1072.38 2587.43,-1111.73"/>
<polygon fill="black" stroke="black" points="2585.18,-1114.46 2594.48,-1119.52 2590.37,-1109.76 2585.18,-1114.46"/>
<text text-anchor="middle" x="2429.23" y="-1025.46" font-family="Times,serif" font-size="14.00">schema:supersededBy</text>
</g>
<!-- http://w3id.org/oseg/ont/okh#unit -->
<g id="node34" class="node">
<title>http://w3id.org/oseg/ont/okh#unit</title>
<ellipse fill="none" stroke="#e377c2" cx="877.08" cy="-542.07" rx="53.07" ry="16.03"/>
<text text-anchor="middle" x="877.08" y="-538.37" font-family="Times,serif" font-size="14.00">okh:unit</text>
</g>
<!-- http://w3id.org/oseg/ont/okh#unit&#45;&gt;http://www.w3.org/2002/07/owl#DatatypeProperty -->
<g id="edge20" class="edge">
<title>http://w3id.org/oseg/ont/okh#unit&#45;&gt;http://www.w3.org/2002/07/owl#DatatypeProperty</title>
<path fill="none" stroke="black" d="M856.74,-526.94C829.86,-506.94 782.3,-471.56 751.34,-448.53"/>
<polygon fill="black" stroke="black" points="753.19,-445.55 743.07,-442.39 749.01,-451.17 753.19,-445.55"/>
<text text-anchor="middle" x="799.54" y="-491.54" font-family="Times,serif" font-size="14.00">a</text>
</g>
<!-- http://w3id.org/oseg/ont/okh#unit&#45;&gt;http://w3id.org/oseg/ont/okh#Mass -->
<g id="edge48" class="edge">
<title>http://w3id.org/oseg/ont/okh#unit&#45;&gt;http://w3id.org/oseg/ont/okh#Mass</title>
<path fill="none" stroke="black" d="M920.1,-551.58C964.57,-561.42 1034.18,-576.81 1083.02,-587.61"/>
<polygon fill="black" stroke="black" points="1082.29,-591.03 1092.8,-589.77 1083.8,-584.19 1082.29,-591.03"/>
<text text-anchor="middle" x="923.56" y="-573.4" font-family="Times,serif" font-size="14.00">dcam:domainIncludes</text>
</g>
<!-- http://w3id.org/oseg/ont/okh#unit&#45;&gt;http://w3id.org/oseg/ont/okh#Dimensions -->
<g id="edge29" class="edge">
<title>http://w3id.org/oseg/ont/okh#unit&#45;&gt;http://w3id.org/oseg/ont/okh#Dimensions</title>
<path fill="none" stroke="black" d="M835.42,-531.91C791.52,-521.21 721.83,-504.22 670.9,-491.8"/>
<polygon fill="black" stroke="black" points="671.51,-488.34 660.97,-489.38 669.86,-495.14 671.51,-488.34"/>
<text text-anchor="middle" x="675.16" y="-515.65" font-family="Times,serif" font-size="14.00">dcam:domainIncludes</text>
</g>
<!-- http://w3id.org/oseg/ont/okh#openScad -->
<g id="node36" class="node">
<title>http://w3id.org/oseg/ont/okh#openScad</title>
<ellipse fill="none" stroke="#e377c2" cx="431.31" cy="-542.06" rx="82.05" ry="16.03"/>
<text text-anchor="middle" x="431.31" y="-538.36" font-family="Times,serif" font-size="14.00">okh:openScad</text>
</g>
<!-- http://w3id.org/oseg/ont/okh#openScad&#45;&gt;http://www.w3.org/2002/07/owl#DatatypeProperty -->
<g id="edge24" class="edge">
<title>http://w3id.org/oseg/ont/okh#openScad&#45;&gt;http://www.w3.org/2002/07/owl#DatatypeProperty</title>
<path fill="none" stroke="black" d="M468.06,-527.4C520.1,-506.64 615.35,-468.65 673.09,-445.62"/>
<polygon fill="black" stroke="black" points="674.73,-448.74 682.72,-441.78 672.13,-442.24 674.73,-448.74"/>
<text text-anchor="middle" x="566.07" y="-490.31" font-family="Times,serif" font-size="14.00">a</text>
</g>
<!-- http://w3id.org/oseg/ont/okh#openScad&#45;&gt;http://w3id.org/oseg/ont/okh#openSCAD -->
<g id="edge27" class="edge">
<title>http://w3id.org/oseg/ont/okh#openScad&#45;&gt;http://w3id.org/oseg/ont/okh#openSCAD</title>
<path fill="none" stroke="black" d="M426.62,-525.51C411.96,-490.99 369.15,-411.36 343.81,-370.67"/>
<polygon fill="black" stroke="black" points="346.7,-368.7 338.38,-362.15 340.8,-372.46 346.7,-368.7"/>
<text text-anchor="middle" x="342.71" y="-436.89" font-family="Times,serif" font-size="14.00">owl:sameAs</text>
</g>
<!-- http://w3id.org/oseg/ont/okh#openScad&#45;&gt;http://w3id.org/oseg/ont/okh#openSCAD -->
<g id="edge33" class="edge">
<title>http://w3id.org/oseg/ont/okh#openScad&#45;&gt;http://w3id.org/oseg/ont/okh#openSCAD</title>
<path fill="none" stroke="black" d="M417.86,-525.91C395.56,-491.84 352.37,-412.57 333.55,-371.48"/>
<polygon fill="black" stroke="black" points="336.66,-369.87 329.41,-362.14 330.26,-372.71 336.66,-369.87"/>
<text text-anchor="middle" x="295.7" y="-452.5" font-family="Times,serif" font-size="14.00">schema:supersededBy</text>
</g>
</g>
</svg>
