<?xml version="1.0" encoding="UTF-8" standalone="no"?>
<!DOCTYPE svg PUBLIC "-//W3C//DTD SVG 1.1//EN"
 "http://www.w3.org/Graphics/SVG/1.1/DTD/svg11.dtd">
<!-- Generated by graphviz version 2.43.0 (0)
 -->
<!-- Title: G Pages: 1 -->
<svg width="2065pt" height="2246pt"
 viewBox="0.00 0.00 2065.00 2246.00" xmlns="http://www.w3.org/2000/svg" xmlns:xlink="http://www.w3.org/1999/xlink">
<g id="graph0" class="graph" transform="scale(1 1) rotate(0) translate(4 2242)">
<title>G</title>
<polygon fill="white" stroke="transparent" points="-4,4 -4,-2242 2061,-2242 2061,4 -4,4"/>
<!-- http://schema.org/DefinedTerm -->
<g id="node1" class="node">
<title>http://schema.org/DefinedTerm</title>
<ellipse fill="none" stroke="#1f77b4" cx="636.27" cy="-511.17" rx="118.17" ry="16.03"/>
<text text-anchor="middle" x="636.27" y="-507.47" font-family="Times,serif" font-size="14.00">schema:DefinedTerm</text>
</g>
<!-- http://schema.org/DefinedTermSet -->
<g id="node2" class="node">
<title>http://schema.org/DefinedTermSet</title>
<ellipse fill="none" stroke="#1f77b4" cx="1272.68" cy="-1757.56" rx="116.85" ry="16.03"/>
<text text-anchor="middle" x="1272.68" y="-1753.86" font-family="Times,serif" font-size="14.00">schema:DefinedTer...</text>
</g>
<!-- http://w3id.org/oseg/ont/ods#Dataset -->
<g id="node3" class="node">
<title>http://w3id.org/oseg/ont/ods#Dataset</title>
<ellipse fill="none" stroke="#1f77b4" cx="1836.64" cy="-2005.53" rx="71.34" ry="16.03"/>
<text text-anchor="middle" x="1836.64" y="-2001.83" font-family="Times,serif" font-size="14.00">ods:Dataset</text>
</g>
<!-- http://spdx.org/rdf/terms#SpdxItem -->
<g id="node4" class="node">
<title>http://spdx.org/rdf/terms#SpdxItem</title>
<ellipse fill="none" stroke="#1f77b4" cx="1912.95" cy="-1908.79" rx="87.86" ry="16.03"/>
<text text-anchor="middle" x="1912.95" y="-1905.09" font-family="Times,serif" font-size="14.00">spdx:SpdxItem</text>
</g>
<!-- http://w3id.org/oseg/ont/okhimg#slotOrganizationLogoBw -->
<g id="node5" class="node">
<title>http://w3id.org/oseg/ont/okhimg#slotOrganizationLogoBw</title>
<ellipse fill="none" stroke="#e377c2" cx="1058.69" cy="-618.61" rx="114.6" ry="16.03"/>
<text text-anchor="middle" x="1058.69" y="-614.91" font-family="Times,serif" font-size="14.00">okhimg:slotOrgani...</text>
</g>
<!-- http://w3id.org/oseg/ont/okhimg#slotOrganizationLogoBw&#45;&gt;http://schema.org/DefinedTerm -->
<g id="edge1" class="edge">
<title>http://w3id.org/oseg/ont/okhimg#slotOrganizationLogoBw&#45;&gt;http://schema.org/DefinedTerm</title>
<path fill="none" stroke="black" d="M1002.59,-604.35C924.96,-584.6 785,-549 702.38,-527.99"/>
<polygon fill="black" stroke="black" points="703.15,-524.57 692.6,-525.5 701.43,-531.36 703.15,-524.57"/>
<text text-anchor="middle" x="847.99" y="-569.97" font-family="Times,serif" font-size="14.00">a</text>
</g>
<!-- http://w3id.org/oseg/ont/okhimg#slotOrganizationLogo -->
<g id="node36" class="node">
<title>http://w3id.org/oseg/ont/okhimg#slotOrganizationLogo</title>
<ellipse fill="none" stroke="#e377c2" cx="1064.23" cy="-578.04" rx="114.6" ry="16.03"/>
<text text-anchor="middle" x="1064.23" y="-574.34" font-family="Times,serif" font-size="14.00">okhimg:slotOrgani...</text>
</g>
<!-- http://w3id.org/oseg/ont/okhimg#slotOrganizationLogoBw&#45;&gt;http://w3id.org/oseg/ont/okhimg#slotOrganizationLogo -->
<g id="edge48" class="edge">
<title>http://w3id.org/oseg/ont/okhimg#slotOrganizationLogoBw&#45;&gt;http://w3id.org/oseg/ont/okhimg#slotOrganizationLogo</title>
<path fill="none" stroke="black" d="M1067.7,-602.08C1067.73,-601.92 1067.76,-601.75 1067.79,-601.59"/>
<polygon fill="black" stroke="black" points="1070.95,-604.65 1068.64,-594.31 1064,-603.83 1070.95,-604.65"/>
<text text-anchor="middle" x="1040.24" y="-590.63" font-family="Times,serif" font-size="14.00">seeAlso</text>
</g>
<!-- http://w3id.org/oseg/ont/okhimg#slotIconMain -->
<g id="node6" class="node">
<title>http://w3id.org/oseg/ont/okhimg#slotIconMain</title>
<ellipse fill="none" stroke="#e377c2" cx="1056.66" cy="-999.55" rx="117.26" ry="16.03"/>
<text text-anchor="middle" x="1056.66" y="-995.85" font-family="Times,serif" font-size="14.00">okhimg:slotIconMain</text>
</g>
<!-- http://w3id.org/oseg/ont/okhimg#slotIconMain&#45;&gt;http://schema.org/DefinedTerm -->
<g id="edge43" class="edge">
<title>http://w3id.org/oseg/ont/okhimg#slotIconMain&#45;&gt;http://schema.org/DefinedTerm</title>
<path fill="none" stroke="black" d="M1042.68,-983.3C980.71,-911.31 730.71,-620.89 656.89,-535.13"/>
<polygon fill="black" stroke="black" points="659.49,-532.78 650.31,-527.48 654.18,-537.34 659.49,-532.78"/>
<text text-anchor="middle" x="845.28" y="-763.02" font-family="Times,serif" font-size="14.00">a</text>
</g>
<!-- http://w3id.org/oseg/ont/okhimg#slotIconMainBw -->
<g id="node22" class="node">
<title>http://w3id.org/oseg/ont/okhimg#slotIconMainBw</title>
<ellipse fill="none" stroke="#e377c2" cx="791.4" cy="-889.81" rx="117.26" ry="16.03"/>
<text text-anchor="middle" x="791.4" y="-886.11" font-family="Times,serif" font-size="14.00">okhimg:slotIconMa...</text>
</g>
<!-- http://w3id.org/oseg/ont/okhimg#slotIconMain&#45;&gt;http://w3id.org/oseg/ont/okhimg#slotIconMainBw -->
<g id="edge18" class="edge">
<title>http://w3id.org/oseg/ont/okhimg#slotIconMain&#45;&gt;http://w3id.org/oseg/ont/okhimg#slotIconMainBw</title>
<path fill="none" stroke="black" d="M1029.45,-983.53C987.56,-963.35 906.31,-929.28 850.47,-908.13"/>
<polygon fill="black" stroke="black" points="851.64,-904.83 841.05,-904.59 849.18,-911.38 851.64,-904.83"/>
<text text-anchor="middle" x="912.46" y="-949.63" font-family="Times,serif" font-size="14.00">seeAlso</text>
</g>
<!-- http://w3id.org/oseg/ont/okhimg#tagLogo -->
<g id="node7" class="node">
<title>http://w3id.org/oseg/ont/okhimg#tagLogo</title>
<ellipse fill="none" stroke="#e377c2" cx="414.12" cy="-755.06" rx="92.76" ry="16.03"/>
<text text-anchor="middle" x="414.12" y="-751.36" font-family="Times,serif" font-size="14.00">okhimg:tagLogo</text>
</g>
<!-- http://w3id.org/oseg/ont/okhimg#tagLogo&#45;&gt;http://schema.org/DefinedTerm -->
<g id="edge3" class="edge">
<title>http://w3id.org/oseg/ont/okhimg#tagLogo&#45;&gt;http://schema.org/DefinedTerm</title>
<path fill="none" stroke="black" d="M429.04,-738.67C467.37,-696.59 569.46,-584.52 614.45,-535.13"/>
<polygon fill="black" stroke="black" points="617.27,-537.23 621.42,-527.48 612.09,-532.52 617.27,-537.23"/>
<text text-anchor="middle" x="517.24" y="-640.7" font-family="Times,serif" font-size="14.00">a</text>
</g>
<!-- http://w3id.org/oseg/ont/okhimg -->
<g id="node8" class="node">
<title>http://w3id.org/oseg/ont/okhimg</title>
<ellipse fill="none" stroke="#e377c2" cx="1571.04" cy="-1820.13" rx="70.01" ry="16.03"/>
<text text-anchor="middle" x="1571.04" y="-1816.43" font-family="Times,serif" font-size="14.00">ns1:okhimg</text>
</g>
<!-- http://w3id.org/oseg/ont/okhimg&#45;&gt;http://w3id.org/oseg/ont/ods#Dataset -->
<g id="edge19" class="edge">
<title>http://w3id.org/oseg/ont/okhimg&#45;&gt;http://w3id.org/oseg/ont/ods#Dataset</title>
<path fill="none" stroke="black" d="M1593.23,-1835.62C1640.59,-1868.68 1751.65,-1946.2 1805.83,-1984.02"/>
<polygon fill="black" stroke="black" points="1804.13,-1987.1 1814.33,-1989.95 1808.13,-1981.36 1804.13,-1987.1"/>
<text text-anchor="middle" x="1695.03" y="-1913.62" font-family="Times,serif" font-size="14.00">a</text>
</g>
<!-- http://w3id.org/oseg/ont/okhimg&#45;&gt;http://spdx.org/rdf/terms#SpdxItem -->
<g id="edge4" class="edge">
<title>http://w3id.org/oseg/ont/okhimg&#45;&gt;http://spdx.org/rdf/terms#SpdxItem</title>
<path fill="none" stroke="black" d="M1617.87,-1832.27C1678.58,-1848.01 1784.61,-1875.51 1851.67,-1892.9"/>
<polygon fill="black" stroke="black" points="1851.12,-1896.37 1861.68,-1895.49 1852.87,-1889.6 1851.12,-1896.37"/>
<text text-anchor="middle" x="1730.27" y="-1866.39" font-family="Times,serif" font-size="14.00">a</text>
</g>
<!-- http://w3id.org/oseg/ont/oseg&#45;profiles#robinVobruba -->
<g id="node17" class="node">
<title>http://w3id.org/oseg/ont/oseg&#45;profiles#robinVobruba</title>
<ellipse fill="none" stroke="#e377c2" cx="1942.97" cy="-1765.63" rx="113.69" ry="16.03"/>
<text text-anchor="middle" x="1942.97" y="-1761.93" font-family="Times,serif" font-size="14.00">osegprof:robinVob...</text>
</g>
<!-- http://w3id.org/oseg/ont/okhimg&#45;&gt;http://w3id.org/oseg/ont/oseg&#45;profiles#robinVobruba -->
<g id="edge13" class="edge">
<title>http://w3id.org/oseg/ont/okhimg&#45;&gt;http://w3id.org/oseg/ont/oseg&#45;profiles#robinVobruba</title>
<path fill="none" stroke="black" d="M1638.74,-1815.59C1705.25,-1807.73 1806.26,-1792.96 1873.41,-1781.3"/>
<polygon fill="black" stroke="black" points="1874.23,-1784.71 1883.47,-1779.53 1873.02,-1777.82 1874.23,-1784.71"/>
<text text-anchor="middle" x="1700.57" y="-1802.25" font-family="Times,serif" font-size="14.00">schema:creator</text>
</g>
<!-- http://w3id.org/oseg/ont/okhimg&#45;&gt;http://w3id.org/oseg/ont/oseg&#45;profiles#robinVobruba -->
<g id="edge41" class="edge">
<title>http://w3id.org/oseg/ont/okhimg&#45;&gt;http://w3id.org/oseg/ont/oseg&#45;profiles#robinVobruba</title>
<path fill="none" stroke="black" d="M1619.36,-1808.25C1673.7,-1798.22 1763.65,-1784.55 1834.94,-1775.21"/>
<polygon fill="black" stroke="black" points="1835.41,-1778.68 1844.87,-1773.92 1834.51,-1771.74 1835.41,-1778.68"/>
<text text-anchor="middle" x="1669.65" y="-1780.53" font-family="Times,serif" font-size="14.00">dcterms:creator</text>
</g>
<!-- http://w3id.org/oseg/ont/okhimg#tags -->
<g id="node18" class="node">
<title>http://w3id.org/oseg/ont/okhimg#tags</title>
<ellipse fill="none" stroke="#e377c2" cx="1229.4" cy="-1479.82" rx="73.58" ry="16.03"/>
<text text-anchor="middle" x="1229.4" y="-1476.12" font-family="Times,serif" font-size="14.00">okhimg:tags</text>
</g>
<!-- http://w3id.org/oseg/ont/okhimg&#45;&gt;http://w3id.org/oseg/ont/okhimg#tags -->
<g id="edge45" class="edge">
<title>http://w3id.org/oseg/ont/okhimg&#45;&gt;http://w3id.org/oseg/ont/okhimg#tags</title>
<path fill="none" stroke="black" d="M1555.02,-1804.17C1499.88,-1749.24 1317.74,-1567.81 1252.72,-1503.05"/>
<polygon fill="black" stroke="black" points="1254.94,-1500.32 1245.39,-1495.74 1250,-1505.28 1254.94,-1500.32"/>
<text text-anchor="middle" x="1338.87" y="-1657.41" font-family="Times,serif" font-size="14.00">void:rootResource</text>
</g>
<!-- http://w3id.org/oseg/ont/okhimg#slots -->
<g id="node23" class="node">
<title>http://w3id.org/oseg/ont/okhimg#slots</title>
<ellipse fill="none" stroke="#e377c2" cx="1370.3" cy="-1439.27" rx="75.82" ry="16.03"/>
<text text-anchor="middle" x="1370.3" y="-1435.57" font-family="Times,serif" font-size="14.00">okhimg:slots</text>
</g>
<!-- http://w3id.org/oseg/ont/okhimg&#45;&gt;http://w3id.org/oseg/ont/okhimg#slots -->
<g id="edge27" class="edge">
<title>http://w3id.org/oseg/ont/okhimg&#45;&gt;http://w3id.org/oseg/ont/okhimg#slots</title>
<path fill="none" stroke="black" d="M1562.42,-1803.76C1530.89,-1743.95 1421.74,-1536.87 1383.59,-1464.48"/>
<polygon fill="black" stroke="black" points="1386.66,-1462.79 1378.9,-1455.57 1380.46,-1466.05 1386.66,-1462.79"/>
<text text-anchor="middle" x="1408.01" y="-1637.92" font-family="Times,serif" font-size="14.00">void:rootResource</text>
</g>
<!-- http://spdx.org/licenses/AGPL&#45;3.0&#45;or&#45;later -->
<g id="node31" class="node">
<title>http://spdx.org/licenses/AGPL&#45;3.0&#45;or&#45;later</title>
<ellipse fill="none" stroke="#e377c2" cx="1623.79" cy="-2221.68" rx="111.95" ry="16.03"/>
<text text-anchor="middle" x="1623.79" y="-2217.98" font-family="Times,serif" font-size="14.00">spdxl:AGPL&#45;3.0&#45;or...</text>
</g>
<!-- http://w3id.org/oseg/ont/okhimg&#45;&gt;http://spdx.org/licenses/AGPL&#45;3.0&#45;or&#45;later -->
<g id="edge32" class="edge">
<title>http://w3id.org/oseg/ont/okhimg&#45;&gt;http://spdx.org/licenses/AGPL&#45;3.0&#45;or&#45;later</title>
<path fill="none" stroke="black" d="M1573.21,-1836.62C1581.36,-1898.65 1610.21,-2118.35 1620.29,-2195.03"/>
<polygon fill="black" stroke="black" points="1616.86,-2195.81 1621.63,-2205.27 1623.8,-2194.9 1616.86,-2195.81"/>
<text text-anchor="middle" x="1520.75" y="-2019.62" font-family="Times,serif" font-size="14.00">spdx:licenseDeclared</text>
</g>
<!-- http://w3id.org/oseg/ont/oseg&#45;profiles#Iopa -->
<g id="node33" class="node">
<title>http://w3id.org/oseg/ont/oseg&#45;profiles#Iopa</title>
<ellipse fill="none" stroke="#e377c2" cx="1773.52" cy="-2116.72" rx="80.72" ry="16.03"/>
<text text-anchor="middle" x="1773.52" y="-2113.02" font-family="Times,serif" font-size="14.00">osegprof:Iopa</text>
</g>
<!-- http://w3id.org/oseg/ont/okhimg&#45;&gt;http://w3id.org/oseg/ont/oseg&#45;profiles#Iopa -->
<g id="edge35" class="edge">
<title>http://w3id.org/oseg/ont/okhimg&#45;&gt;http://w3id.org/oseg/ont/oseg&#45;profiles#Iopa</title>
<path fill="none" stroke="black" d="M1582.22,-1836.5C1615.89,-1885.82 1716.52,-2033.23 1756.69,-2092.07"/>
<polygon fill="black" stroke="black" points="1753.85,-2094.12 1762.38,-2100.4 1759.63,-2090.17 1753.85,-2094.12"/>
<text text-anchor="middle" x="1603.95" y="-1968.08" font-family="Times,serif" font-size="14.00">dcterms:publisher</text>
</g>
<!-- http://id.loc.gov/vocabulary/iso639&#45;1/en -->
<g id="node38" class="node">
<title>http://id.loc.gov/vocabulary/iso639&#45;1/en</title>
<ellipse fill="none" stroke="#e377c2" cx="1622.28" cy="-2072.82" rx="45.01" ry="16.03"/>
<text text-anchor="middle" x="1622.28" y="-2069.12" font-family="Times,serif" font-size="14.00">ns2:en</text>
</g>
<!-- http://w3id.org/oseg/ont/okhimg&#45;&gt;http://id.loc.gov/vocabulary/iso639&#45;1/en -->
<g id="edge40" class="edge">
<title>http://w3id.org/oseg/ont/okhimg&#45;&gt;http://id.loc.gov/vocabulary/iso639&#45;1/en</title>
<path fill="none" stroke="black" d="M1574.41,-1836.71C1583.09,-1879.56 1606.35,-1994.25 1616.92,-2046.38"/>
<polygon fill="black" stroke="black" points="1613.56,-2047.4 1618.97,-2056.51 1620.42,-2046.01 1613.56,-2047.4"/>
<text text-anchor="middle" x="1531.16" y="-1945.34" font-family="Times,serif" font-size="14.00">dcterms:language</text>
</g>
<!-- http://w3id.org/oseg/ont/0.1.0/okhimg -->
<g id="node40" class="node">
<title>http://w3id.org/oseg/ont/0.1.0/okhimg</title>
<ellipse fill="none" stroke="#e377c2" cx="1449.49" cy="-2116.39" rx="70.01" ry="16.03"/>
<text text-anchor="middle" x="1449.49" y="-2112.69" font-family="Times,serif" font-size="14.00">ns3:okhimg</text>
</g>
<!-- http://w3id.org/oseg/ont/okhimg&#45;&gt;http://w3id.org/oseg/ont/0.1.0/okhimg -->
<g id="edge46" class="edge">
<title>http://w3id.org/oseg/ont/okhimg&#45;&gt;http://w3id.org/oseg/ont/0.1.0/okhimg</title>
<path fill="none" stroke="black" d="M1564.34,-1836.48C1544.25,-1885.44 1484.45,-2031.18 1460.04,-2090.67"/>
<polygon fill="black" stroke="black" points="1456.73,-2089.51 1456.17,-2100.09 1463.21,-2092.17 1456.73,-2089.51"/>
<text text-anchor="middle" x="1460.69" y="-1967.37" font-family="Times,serif" font-size="14.00">owl:versionIRI</text>
</g>
<!-- http://w3id.org/oseg/ont/okhimg#slotSocial -->
<g id="node9" class="node">
<title>http://w3id.org/oseg/ont/okhimg#slotSocial</title>
<ellipse fill="none" stroke="#e377c2" cx="804.47" cy="-117.93" rx="101.23" ry="16.03"/>
<text text-anchor="middle" x="804.47" y="-114.23" font-family="Times,serif" font-size="14.00">okhimg:slotSocial</text>
</g>
<!-- http://w3id.org/oseg/ont/okhimg#slotSocial&#45;&gt;http://schema.org/DefinedTerm -->
<g id="edge5" class="edge">
<title>http://w3id.org/oseg/ont/okhimg#slotSocial&#45;&gt;http://schema.org/DefinedTerm</title>
<path fill="none" stroke="black" d="M797.45,-134.33C771.33,-195.42 679.51,-410.09 647.43,-485.08"/>
<polygon fill="black" stroke="black" points="644.03,-484.14 643.31,-494.71 650.46,-486.89 644.03,-484.14"/>
<text text-anchor="middle" x="717.94" y="-313.51" font-family="Times,serif" font-size="14.00">a</text>
</g>
<!-- http://w3id.org/oseg/ont/okhimg#slotModelFromBack -->
<g id="node10" class="node">
<title>http://w3id.org/oseg/ont/okhimg#slotModelFromBack</title>
<ellipse fill="none" stroke="#e377c2" cx="1010.96" cy="-200.68" rx="116.85" ry="16.03"/>
<text text-anchor="middle" x="1010.96" y="-196.98" font-family="Times,serif" font-size="14.00">okhimg:slotModelF...</text>
</g>
<!-- http://w3id.org/oseg/ont/okhimg#slotModelFromBack&#45;&gt;http://schema.org/DefinedTerm -->
<g id="edge6" class="edge">
<title>http://w3id.org/oseg/ont/okhimg#slotModelFromBack&#45;&gt;http://schema.org/DefinedTerm</title>
<path fill="none" stroke="black" d="M991.6,-216.72C929.55,-268.14 735.49,-428.95 663.5,-488.61"/>
<polygon fill="black" stroke="black" points="661.2,-485.97 655.74,-495.04 665.67,-491.36 661.2,-485.97"/>
<text text-anchor="middle" x="823.05" y="-356.47" font-family="Times,serif" font-size="14.00">a</text>
</g>
<!-- http://w3id.org/oseg/ont/okhimg#tagArt -->
<g id="node11" class="node">
<title>http://w3id.org/oseg/ont/okhimg#tagArt</title>
<ellipse fill="none" stroke="#e377c2" cx="942.01" cy="-1051.25" rx="84.29" ry="16.03"/>
<text text-anchor="middle" x="942.01" y="-1047.55" font-family="Times,serif" font-size="14.00">okhimg:tagArt</text>
</g>
<!-- http://w3id.org/oseg/ont/okhimg#tagArt&#45;&gt;http://schema.org/DefinedTerm -->
<g id="edge7" class="edge">
<title>http://w3id.org/oseg/ont/okhimg#tagArt&#45;&gt;http://schema.org/DefinedTerm</title>
<path fill="none" stroke="black" d="M932.69,-1034.79C888.91,-957.45 703.54,-630 650.5,-536.31"/>
<polygon fill="black" stroke="black" points="653.49,-534.48 645.52,-527.5 647.4,-537.93 653.49,-534.48"/>
<text text-anchor="middle" x="787.09" y="-789.35" font-family="Times,serif" font-size="14.00">a</text>
</g>
<!-- http://w3id.org/oseg/ont/okhimg#slotModel3D -->
<g id="node12" class="node">
<title>http://w3id.org/oseg/ont/okhimg#slotModel3D</title>
<ellipse fill="none" stroke="#e377c2" cx="252.51" cy="-217" rx="115.93" ry="16.03"/>
<text text-anchor="middle" x="252.51" y="-213.3" font-family="Times,serif" font-size="14.00">okhimg:slotModel3D</text>
</g>
<!-- http://w3id.org/oseg/ont/okhimg#slotModel3D&#45;&gt;http://schema.org/DefinedTerm -->
<g id="edge8" class="edge">
<title>http://w3id.org/oseg/ont/okhimg#slotModel3D&#45;&gt;http://schema.org/DefinedTerm</title>
<path fill="none" stroke="black" d="M273.41,-233.03C337.72,-282.32 532.74,-431.81 607.07,-488.79"/>
<polygon fill="black" stroke="black" points="605.05,-491.65 615.11,-494.95 609.3,-486.09 605.05,-491.65"/>
<text text-anchor="middle" x="435.74" y="-364.71" font-family="Times,serif" font-size="14.00">a</text>
</g>
<!-- http://w3id.org/oseg/ont/okhimg#tagDiagram -->
<g id="node13" class="node">
<title>http://w3id.org/oseg/ont/okhimg#tagDiagram</title>
<ellipse fill="none" stroke="#e377c2" cx="708.08" cy="-57.25" rx="111.95" ry="16.03"/>
<text text-anchor="middle" x="708.08" y="-53.55" font-family="Times,serif" font-size="14.00">okhimg:tagDiagram</text>
</g>
<!-- http://w3id.org/oseg/ont/okhimg#tagDiagram&#45;&gt;http://schema.org/DefinedTerm -->
<g id="edge9" class="edge">
<title>http://w3id.org/oseg/ont/okhimg#tagDiagram&#45;&gt;http://schema.org/DefinedTerm</title>
<path fill="none" stroke="black" d="M705.48,-73.68C694.74,-141.59 653.73,-400.83 640.45,-484.77"/>
<polygon fill="black" stroke="black" points="636.97,-484.35 638.87,-494.77 643.89,-485.44 636.97,-484.35"/>
<text text-anchor="middle" x="668.46" y="-283.03" font-family="Times,serif" font-size="14.00">a</text>
</g>
<!-- http://w3id.org/oseg/ont/okhimg#slotModelFromLeft -->
<g id="node14" class="node">
<title>http://w3id.org/oseg/ont/okhimg#slotModelFromLeft</title>
<ellipse fill="none" stroke="#e377c2" cx="167.14" cy="-318.01" rx="116.85" ry="16.03"/>
<text text-anchor="middle" x="167.14" y="-314.31" font-family="Times,serif" font-size="14.00">okhimg:slotModelF...</text>
</g>
<!-- http://w3id.org/oseg/ont/okhimg#slotModelFromLeft&#45;&gt;http://schema.org/DefinedTerm -->
<g id="edge10" class="edge">
<title>http://w3id.org/oseg/ont/okhimg#slotModelFromLeft&#45;&gt;http://schema.org/DefinedTerm</title>
<path fill="none" stroke="black" d="M204.74,-333.49C289.57,-368.42 495.73,-453.31 589.02,-491.72"/>
<polygon fill="black" stroke="black" points="587.91,-495.05 598.49,-495.62 590.58,-488.57 587.91,-495.05"/>
<text text-anchor="middle" x="392.38" y="-416.4" font-family="Times,serif" font-size="14.00">a</text>
</g>
<!-- http://w3id.org/oseg/ont/okhimg#tagAssembly -->
<g id="node15" class="node">
<title>http://w3id.org/oseg/ont/okhimg#tagAssembly</title>
<ellipse fill="none" stroke="#e377c2" cx="944.5" cy="-72.8" rx="116.85" ry="16.03"/>
<text text-anchor="middle" x="944.5" y="-69.1" font-family="Times,serif" font-size="14.00">okhimg:tagAssembly</text>
</g>
<!-- http://w3id.org/oseg/ont/okhimg#tagAssembly&#45;&gt;http://schema.org/DefinedTerm -->
<g id="edge11" class="edge">
<title>http://w3id.org/oseg/ont/okhimg#tagAssembly&#45;&gt;http://schema.org/DefinedTerm</title>
<path fill="none" stroke="black" d="M932.98,-89.18C886.15,-155.79 709.89,-406.46 653.64,-486.47"/>
<polygon fill="black" stroke="black" points="650.57,-484.74 647.69,-494.94 656.3,-488.77 650.57,-484.74"/>
<text text-anchor="middle" x="788.81" y="-291.63" font-family="Times,serif" font-size="14.00">a</text>
</g>
<!-- http://w3id.org/oseg/ont/okhimg#slotPhotoThingMain -->
<g id="node16" class="node">
<title>http://w3id.org/oseg/ont/okhimg#slotPhotoThingMain</title>
<ellipse fill="none" stroke="#e377c2" cx="1043.17" cy="-323" rx="114.6" ry="16.03"/>
<text text-anchor="middle" x="1043.17" y="-319.3" font-family="Times,serif" font-size="14.00">okhimg:slotPhotoT...</text>
</g>
<!-- http://w3id.org/oseg/ont/okhimg#slotPhotoThingMain&#45;&gt;http://schema.org/DefinedTerm -->
<g id="edge12" class="edge">
<title>http://w3id.org/oseg/ont/okhimg#slotPhotoThingMain&#45;&gt;http://schema.org/DefinedTerm</title>
<path fill="none" stroke="black" d="M1009.53,-338.56C936.07,-372.54 761.37,-453.32 679.72,-491.08"/>
<polygon fill="black" stroke="black" points="677.85,-488.09 670.24,-495.46 680.79,-494.44 677.85,-488.09"/>
<text text-anchor="middle" x="840.13" y="-418.62" font-family="Times,serif" font-size="14.00">a</text>
</g>
<!-- http://w3id.org/oseg/ont/okhimg#tags&#45;&gt;http://schema.org/DefinedTermSet -->
<g id="edge14" class="edge">
<title>http://w3id.org/oseg/ont/okhimg#tags&#45;&gt;http://schema.org/DefinedTermSet</title>
<path fill="none" stroke="black" d="M1231.98,-1496.36C1239.21,-1542.77 1259.74,-1674.49 1268.56,-1731.13"/>
<polygon fill="black" stroke="black" points="1265.12,-1731.76 1270.11,-1741.1 1272.03,-1730.68 1265.12,-1731.76"/>
<text text-anchor="middle" x="1245.77" y="-1617.55" font-family="Times,serif" font-size="14.00">a</text>
</g>
<!-- http://w3id.org/oseg/ont/okhimg#tags&#45;&gt;http://w3id.org/oseg/ont/okhimg#tagArt -->
<g id="edge49" class="edge">
<title>http://w3id.org/oseg/ont/okhimg#tags&#45;&gt;http://w3id.org/oseg/ont/okhimg#tagArt</title>
<path fill="none" stroke="black" d="M1218.49,-1463.54C1174.65,-1398.18 1011.25,-1154.51 958.52,-1075.88"/>
<polygon fill="black" stroke="black" points="961.41,-1073.9 952.93,-1067.54 955.59,-1077.8 961.41,-1073.9"/>
<text text-anchor="middle" x="1001.01" y="-1273.51" font-family="Times,serif" font-size="14.00">schema:hasDefinedTerm</text>
</g>
<!-- http://w3id.org/oseg/ont/okhimg#tagPhoto -->
<g id="node19" class="node">
<title>http://w3id.org/oseg/ont/okhimg#tagPhoto</title>
<ellipse fill="none" stroke="#e377c2" cx="884.84" cy="-245.37" rx="97.66" ry="16.03"/>
<text text-anchor="middle" x="884.84" y="-241.67" font-family="Times,serif" font-size="14.00">okhimg:tagPhoto</text>
</g>
<!-- http://w3id.org/oseg/ont/okhimg#tagPhoto&#45;&gt;http://schema.org/DefinedTerm -->
<g id="edge15" class="edge">
<title>http://w3id.org/oseg/ont/okhimg#tagPhoto&#45;&gt;http://schema.org/DefinedTerm</title>
<path fill="none" stroke="black" d="M869.67,-261.6C827.46,-306.73 708.5,-433.93 658.67,-487.22"/>
<polygon fill="black" stroke="black" points="655.84,-485.13 651.56,-494.82 660.95,-489.91 655.84,-485.13"/>
<text text-anchor="middle" x="759.67" y="-378.21" font-family="Times,serif" font-size="14.00">a</text>
</g>
<!-- http://w3id.org/oseg/ont/okhimg#slotLogo -->
<g id="node20" class="node">
<title>http://w3id.org/oseg/ont/okhimg#slotLogo</title>
<ellipse fill="none" stroke="#e377c2" cx="486.71" cy="-78.44" rx="94.51" ry="16.03"/>
<text text-anchor="middle" x="486.71" y="-74.74" font-family="Times,serif" font-size="14.00">okhimg:slotLogo</text>
</g>
<!-- http://w3id.org/oseg/ont/okhimg#slotLogo&#45;&gt;http://schema.org/DefinedTerm -->
<g id="edge31" class="edge">
<title>http://w3id.org/oseg/ont/okhimg#slotLogo&#45;&gt;http://schema.org/DefinedTerm</title>
<path fill="none" stroke="black" d="M492.39,-94.87C515.06,-160.47 599.2,-403.92 627.17,-484.84"/>
<polygon fill="black" stroke="black" points="624.01,-486.41 630.59,-494.72 630.63,-484.13 624.01,-486.41"/>
<text text-anchor="middle" x="555.28" y="-293.65" font-family="Times,serif" font-size="14.00">a</text>
</g>
<!-- http://w3id.org/oseg/ont/okhimg#slotLogoBw -->
<g id="node35" class="node">
<title>http://w3id.org/oseg/ont/okhimg#slotLogoBw</title>
<ellipse fill="none" stroke="#e377c2" cx="518.26" cy="-119.33" rx="111.03" ry="16.03"/>
<text text-anchor="middle" x="518.26" y="-115.63" font-family="Times,serif" font-size="14.00">okhimg:slotLogoBw</text>
</g>
<!-- http://w3id.org/oseg/ont/okhimg#slotLogo&#45;&gt;http://w3id.org/oseg/ont/okhimg#slotLogoBw -->
<g id="edge37" class="edge">
<title>http://w3id.org/oseg/ont/okhimg#slotLogo&#45;&gt;http://w3id.org/oseg/ont/okhimg#slotLogoBw</title>
<path fill="none" stroke="black" d="M491.38,-94.76C491.43,-94.85 491.49,-94.94 491.55,-95.03"/>
<polygon fill="black" stroke="black" points="488.79,-97.19 497.41,-103.35 494.51,-93.16 488.79,-97.19"/>
<text text-anchor="middle" x="463.96" y="-98.7" font-family="Times,serif" font-size="14.00">seeAlso</text>
</g>
<!-- http://w3id.org/oseg/ont/okhimg#tagModel -->
<g id="node21" class="node">
<title>http://w3id.org/oseg/ont/okhimg#tagModel</title>
<ellipse fill="none" stroke="#e377c2" cx="624.29" cy="-942.81" rx="99.9" ry="16.03"/>
<text text-anchor="middle" x="624.29" y="-939.11" font-family="Times,serif" font-size="14.00">okhimg:tagModel</text>
</g>
<!-- http://w3id.org/oseg/ont/okhimg#tagModel&#45;&gt;http://schema.org/DefinedTerm -->
<g id="edge17" class="edge">
<title>http://w3id.org/oseg/ont/okhimg#tagModel&#45;&gt;http://schema.org/DefinedTerm</title>
<path fill="none" stroke="black" d="M624.74,-926.42C626.56,-861.12 633.27,-619.14 635.53,-537.94"/>
<polygon fill="black" stroke="black" points="639.04,-537.68 635.82,-527.58 632.04,-537.48 639.04,-537.68"/>
<text text-anchor="middle" x="625.64" y="-735.98" font-family="Times,serif" font-size="14.00">a</text>
</g>
<!-- http://w3id.org/oseg/ont/okhimg#slotIconMainBw&#45;&gt;http://schema.org/DefinedTerm -->
<g id="edge24" class="edge">
<title>http://w3id.org/oseg/ont/okhimg#slotIconMainBw&#45;&gt;http://schema.org/DefinedTerm</title>
<path fill="none" stroke="black" d="M784.73,-873.54C760.47,-814.32 676.75,-609.97 646.93,-537.18"/>
<polygon fill="black" stroke="black" points="650.12,-535.73 643.09,-527.81 643.64,-538.39 650.12,-535.73"/>
<text text-anchor="middle" x="711.33" y="-709.16" font-family="Times,serif" font-size="14.00">a</text>
</g>
<!-- http://w3id.org/oseg/ont/okhimg#slotIconMainBw&#45;&gt;http://w3id.org/oseg/ont/okhimg#slotIconMain -->
<g id="edge33" class="edge">
<title>http://w3id.org/oseg/ont/okhimg#slotIconMainBw&#45;&gt;http://w3id.org/oseg/ont/okhimg#slotIconMain</title>
<path fill="none" stroke="black" d="M818.61,-905.83C860.51,-926.01 941.75,-960.08 997.59,-981.23"/>
<polygon fill="black" stroke="black" points="996.42,-984.53 1007.01,-984.77 998.88,-977.98 996.42,-984.53"/>
<text text-anchor="middle" x="880.6" y="-932.33" font-family="Times,serif" font-size="14.00">seeAlso</text>
</g>
<!-- http://w3id.org/oseg/ont/okhimg#slots&#45;&gt;http://schema.org/DefinedTermSet -->
<g id="edge20" class="edge">
<title>http://w3id.org/oseg/ont/okhimg#slots&#45;&gt;http://schema.org/DefinedTermSet</title>
<path fill="none" stroke="black" d="M1365.19,-1455.93C1349.21,-1508.04 1300.11,-1668.14 1280.69,-1731.42"/>
<polygon fill="black" stroke="black" points="1277.33,-1730.47 1277.74,-1741.06 1284.02,-1732.52 1277.33,-1730.47"/>
<text text-anchor="middle" x="1318.44" y="-1597.48" font-family="Times,serif" font-size="14.00">a</text>
</g>
<!-- http://w3id.org/oseg/ont/okhimg#slots&#45;&gt;http://w3id.org/oseg/ont/okhimg#slotIconMain -->
<g id="edge2" class="edge">
<title>http://w3id.org/oseg/ont/okhimg#slots&#45;&gt;http://w3id.org/oseg/ont/okhimg#slotIconMain</title>
<path fill="none" stroke="black" d="M1358.77,-1423.1C1311.41,-1356.71 1131.73,-1104.8 1074.37,-1024.38"/>
<polygon fill="black" stroke="black" points="1076.96,-1021.98 1068.3,-1015.87 1071.26,-1026.04 1076.96,-1021.98"/>
<text text-anchor="middle" x="1129.07" y="-1227.54" font-family="Times,serif" font-size="14.00">schema:hasDefinedTerm</text>
</g>
<!-- http://w3id.org/oseg/ont/okhimg#tagScreenshot -->
<g id="node24" class="node">
<title>http://w3id.org/oseg/ont/okhimg#tagScreenshot</title>
<ellipse fill="none" stroke="#e377c2" cx="125.52" cy="-460.63" rx="125.32" ry="16.03"/>
<text text-anchor="middle" x="125.52" y="-456.93" font-family="Times,serif" font-size="14.00">okhimg:tagScreenshot</text>
</g>
<!-- http://w3id.org/oseg/ont/okhimg#tagScreenshot&#45;&gt;http://schema.org/DefinedTerm -->
<g id="edge21" class="edge">
<title>http://w3id.org/oseg/ont/okhimg#tagScreenshot&#45;&gt;http://schema.org/DefinedTerm</title>
<path fill="none" stroke="black" d="M225.21,-470.49C312.99,-479.18 440.44,-491.79 530.1,-500.67"/>
<polygon fill="black" stroke="black" points="530,-504.17 540.29,-501.67 530.69,-497.21 530,-504.17"/>
<text text-anchor="middle" x="373.16" y="-489.38" font-family="Times,serif" font-size="14.00">a</text>
</g>
<!-- http://w3id.org/oseg/ont/okhimg#tagBw -->
<g id="node25" class="node">
<title>http://w3id.org/oseg/ont/okhimg#tagBw</title>
<ellipse fill="none" stroke="#e377c2" cx="541.43" cy="-858.19" rx="84.29" ry="16.03"/>
<text text-anchor="middle" x="541.43" y="-854.49" font-family="Times,serif" font-size="14.00">okhimg:tagBw</text>
</g>
<!-- http://w3id.org/oseg/ont/okhimg#tagBw&#45;&gt;http://schema.org/DefinedTerm -->
<g id="edge22" class="edge">
<title>http://w3id.org/oseg/ont/okhimg#tagBw&#45;&gt;http://schema.org/DefinedTerm</title>
<path fill="none" stroke="black" d="M545.87,-841.92C560.96,-786.71 610.29,-606.22 628.99,-537.8"/>
<polygon fill="black" stroke="black" points="632.46,-538.38 631.72,-527.81 625.71,-536.54 632.46,-538.38"/>
<text text-anchor="middle" x="582.93" y="-693.66" font-family="Times,serif" font-size="14.00">a</text>
</g>
<!-- http://w3id.org/oseg/ont/okhimg#slotModelFromAbove -->
<g id="node26" class="node">
<title>http://w3id.org/oseg/ont/okhimg#slotModelFromAbove</title>
<ellipse fill="none" stroke="#e377c2" cx="263.92" cy="-358.88" rx="116.85" ry="16.03"/>
<text text-anchor="middle" x="263.92" y="-355.18" font-family="Times,serif" font-size="14.00">okhimg:slotModelF...</text>
</g>
<!-- http://w3id.org/oseg/ont/okhimg#slotModelFromAbove&#45;&gt;http://schema.org/DefinedTerm -->
<g id="edge23" class="edge">
<title>http://w3id.org/oseg/ont/okhimg#slotModelFromAbove&#45;&gt;http://schema.org/DefinedTerm</title>
<path fill="none" stroke="black" d="M301.67,-374.32C369.97,-402.26 513.9,-461.12 588.77,-491.74"/>
<polygon fill="black" stroke="black" points="587.84,-495.15 598.42,-495.69 590.49,-488.67 587.84,-495.15"/>
<text text-anchor="middle" x="440.72" y="-436.83" font-family="Times,serif" font-size="14.00">a</text>
</g>
<!-- http://w3id.org/oseg/ont/okhimg#tagIcon -->
<g id="node27" class="node">
<title>http://w3id.org/oseg/ont/okhimg#tagIcon</title>
<ellipse fill="none" stroke="#e377c2" cx="918.64" cy="-727.56" rx="89.61" ry="16.03"/>
<text text-anchor="middle" x="918.64" y="-723.86" font-family="Times,serif" font-size="14.00">okhimg:tagIcon</text>
</g>
<!-- http://w3id.org/oseg/ont/okhimg#tagIcon&#45;&gt;http://schema.org/DefinedTerm -->
<g id="edge25" class="edge">
<title>http://w3id.org/oseg/ont/okhimg#tagIcon&#45;&gt;http://schema.org/DefinedTerm</title>
<path fill="none" stroke="black" d="M897.88,-711.65C848.33,-673.68 723.04,-577.67 665.72,-533.74"/>
<polygon fill="black" stroke="black" points="667.52,-530.71 657.45,-527.4 663.26,-536.26 667.52,-530.71"/>
<text text-anchor="middle" x="777.3" y="-626.49" font-family="Times,serif" font-size="14.00">a</text>
</g>
<!-- http://w3id.org/oseg/ont/okhimg#slotSymbol -->
<g id="node28" class="node">
<title>http://w3id.org/oseg/ont/okhimg#slotSymbol</title>
<ellipse fill="none" stroke="#e377c2" cx="611.22" cy="-16.68" rx="108.38" ry="16.03"/>
<text text-anchor="middle" x="611.22" y="-12.98" font-family="Times,serif" font-size="14.00">okhimg:slotSymbol</text>
</g>
<!-- http://w3id.org/oseg/ont/okhimg#slotSymbol&#45;&gt;http://schema.org/DefinedTerm -->
<g id="edge26" class="edge">
<title>http://w3id.org/oseg/ont/okhimg#slotSymbol&#45;&gt;http://schema.org/DefinedTerm</title>
<path fill="none" stroke="black" d="M612.05,-33.13C615.72,-105.44 630.41,-395.41 634.94,-484.8"/>
<polygon fill="black" stroke="black" points="631.45,-485.1 635.45,-494.91 638.44,-484.74 631.45,-485.1"/>
<text text-anchor="middle" x="618.99" y="-262.77" font-family="Times,serif" font-size="14.00">a</text>
</g>
<!-- http://w3id.org/oseg/ont/okhimg#slotModelFromRight -->
<g id="node29" class="node">
<title>http://w3id.org/oseg/ont/okhimg#slotModelFromRight</title>
<ellipse fill="none" stroke="#e377c2" cx="154.9" cy="-617.3" rx="116.85" ry="16.03"/>
<text text-anchor="middle" x="154.9" y="-613.6" font-family="Times,serif" font-size="14.00">okhimg:slotModelF...</text>
</g>
<!-- http://w3id.org/oseg/ont/okhimg#slotModelFromRight&#45;&gt;http://schema.org/DefinedTerm -->
<g id="edge28" class="edge">
<title>http://w3id.org/oseg/ont/okhimg#slotModelFromRight&#45;&gt;http://schema.org/DefinedTerm</title>
<path fill="none" stroke="black" d="M217.33,-603.54C306.31,-583.92 469.22,-548 563.53,-527.21"/>
<polygon fill="black" stroke="black" points="564.55,-530.57 573.56,-525 563.04,-523.73 564.55,-530.57"/>
<text text-anchor="middle" x="385.93" y="-569.17" font-family="Times,serif" font-size="14.00">a</text>
</g>
<!-- http://w3id.org/oseg/ont/okhimg#slotModelMain -->
<g id="node30" class="node">
<title>http://w3id.org/oseg/ont/okhimg#slotModelMain</title>
<ellipse fill="none" stroke="#e377c2" cx="1115.96" cy="-416.9" rx="127.06" ry="16.03"/>
<text text-anchor="middle" x="1115.96" y="-413.2" font-family="Times,serif" font-size="14.00">okhimg:slotModelMain</text>
</g>
<!-- http://w3id.org/oseg/ont/okhimg#slotModelMain&#45;&gt;http://schema.org/DefinedTerm -->
<g id="edge29" class="edge">
<title>http://w3id.org/oseg/ont/okhimg#slotModelMain&#45;&gt;http://schema.org/DefinedTerm</title>
<path fill="none" stroke="black" d="M1046.47,-430.56C958.16,-447.91 806.17,-477.78 714.07,-495.88"/>
<polygon fill="black" stroke="black" points="713.38,-492.45 704.25,-497.81 714.73,-499.32 713.38,-492.45"/>
<text text-anchor="middle" x="875.77" y="-467.02" font-family="Times,serif" font-size="14.00">a</text>
</g>
<!-- http://w3id.org/oseg/ont/okhimg#tagGray -->
<g id="node32" class="node">
<title>http://w3id.org/oseg/ont/okhimg#tagGray</title>
<ellipse fill="none" stroke="#e377c2" cx="469.13" cy="-229.17" rx="92.76" ry="16.03"/>
<text text-anchor="middle" x="469.13" y="-225.47" font-family="Times,serif" font-size="14.00">okhimg:tagGray</text>
</g>
<!-- http://w3id.org/oseg/ont/okhimg#tagGray&#45;&gt;http://schema.org/DefinedTerm -->
<g id="edge34" class="edge">
<title>http://w3id.org/oseg/ont/okhimg#tagGray&#45;&gt;http://schema.org/DefinedTerm</title>
<path fill="none" stroke="black" d="M478.84,-245.55C506.82,-292.76 587.78,-429.36 621.38,-486.05"/>
<polygon fill="black" stroke="black" points="618.43,-487.93 626.54,-494.75 624.45,-484.36 618.43,-487.93"/>
<text text-anchor="middle" x="545.61" y="-369.6" font-family="Times,serif" font-size="14.00">a</text>
</g>
<!-- http://w3id.org/oseg/ont/okhimg#tagDrawing -->
<g id="node34" class="node">
<title>http://w3id.org/oseg/ont/okhimg#tagDrawing</title>
<ellipse fill="none" stroke="#e377c2" cx="237.07" cy="-535.72" rx="111.95" ry="16.03"/>
<text text-anchor="middle" x="237.07" y="-532.02" font-family="Times,serif" font-size="14.00">okhimg:tagDrawing</text>
</g>
<!-- http://w3id.org/oseg/ont/okhimg#tagDrawing&#45;&gt;http://schema.org/DefinedTerm -->
<g id="edge36" class="edge">
<title>http://w3id.org/oseg/ont/okhimg#tagDrawing&#45;&gt;http://schema.org/DefinedTerm</title>
<path fill="none" stroke="black" d="M340.13,-529.38C394.62,-526.03 461.74,-521.9 518.3,-518.43"/>
<polygon fill="black" stroke="black" points="518.6,-521.91 528.37,-517.81 518.17,-514.93 518.6,-521.91"/>
<text text-anchor="middle" x="424.72" y="-527.7" font-family="Times,serif" font-size="14.00">a</text>
</g>
<!-- http://w3id.org/oseg/ont/okhimg#slotLogoBw&#45;&gt;http://schema.org/DefinedTerm -->
<g id="edge42" class="edge">
<title>http://w3id.org/oseg/ont/okhimg#slotLogoBw&#45;&gt;http://schema.org/DefinedTerm</title>
<path fill="none" stroke="black" d="M523.18,-135.67C541.51,-196.54 605.94,-410.45 628.44,-485.17"/>
<polygon fill="black" stroke="black" points="625.09,-486.2 631.33,-494.76 631.8,-484.18 625.09,-486.2"/>
<text text-anchor="middle" x="571.31" y="-314.22" font-family="Times,serif" font-size="14.00">a</text>
</g>
<!-- http://w3id.org/oseg/ont/okhimg#slotLogoBw&#45;&gt;http://w3id.org/oseg/ont/okhimg#slotLogo -->
<g id="edge16" class="edge">
<title>http://w3id.org/oseg/ont/okhimg#slotLogoBw&#45;&gt;http://w3id.org/oseg/ont/okhimg#slotLogo</title>
<path fill="none" stroke="black" d="M513.59,-103.01C513.53,-102.92 513.48,-102.83 513.42,-102.74"/>
<polygon fill="black" stroke="black" points="516.18,-100.58 507.56,-94.42 510.46,-104.61 516.18,-100.58"/>
<text text-anchor="middle" x="541.01" y="-91.67" font-family="Times,serif" font-size="14.00">seeAlso</text>
</g>
<!-- http://w3id.org/oseg/ont/okhimg#slotOrganizationLogo&#45;&gt;http://schema.org/DefinedTerm -->
<g id="edge38" class="edge">
<title>http://w3id.org/oseg/ont/okhimg#slotOrganizationLogo&#45;&gt;http://schema.org/DefinedTerm</title>
<path fill="none" stroke="black" d="M986.73,-565.93C912.97,-554.4 802.06,-537.08 724.83,-525.01"/>
<polygon fill="black" stroke="black" points="725.06,-521.5 714.64,-523.42 723.98,-528.42 725.06,-521.5"/>
<text text-anchor="middle" x="851.28" y="-549.27" font-family="Times,serif" font-size="14.00">a</text>
</g>
<!-- http://w3id.org/oseg/ont/okhimg#slotOrganizationLogo&#45;&gt;http://w3id.org/oseg/ont/okhimg#slotOrganizationLogoBw -->
<g id="edge30" class="edge">
<title>http://w3id.org/oseg/ont/okhimg#slotOrganizationLogo&#45;&gt;http://w3id.org/oseg/ont/okhimg#slotOrganizationLogoBw</title>
<path fill="none" stroke="black" d="M1055.22,-594.57C1055.19,-594.73 1055.16,-594.89 1055.14,-595.06"/>
<polygon fill="black" stroke="black" points="1051.97,-592 1054.28,-602.34 1058.92,-592.82 1051.97,-592"/>
<text text-anchor="middle" x="1027.68" y="-598.61" font-family="Times,serif" font-size="14.00">seeAlso</text>
</g>
<!-- http://w3id.org/oseg/ont/okhimg#slotPhotoPackaging -->
<g id="node37" class="node">
<title>http://w3id.org/oseg/ont/okhimg#slotPhotoPackaging</title>
<ellipse fill="none" stroke="#e377c2" cx="278.57" cy="-832.3" rx="113.69" ry="16.03"/>
<text text-anchor="middle" x="278.57" y="-828.6" font-family="Times,serif" font-size="14.00">okhimg:slotPhotoP...</text>
</g>
<!-- http://w3id.org/oseg/ont/okhimg#slotPhotoPackaging&#45;&gt;http://schema.org/DefinedTerm -->
<g id="edge39" class="edge">
<title>http://w3id.org/oseg/ont/okhimg#slotPhotoPackaging&#45;&gt;http://schema.org/DefinedTerm</title>
<path fill="none" stroke="black" d="M296.8,-815.93C355.76,-763 541.46,-596.28 610.28,-534.5"/>
<polygon fill="black" stroke="black" points="612.97,-536.79 618.08,-527.51 608.3,-531.58 612.97,-536.79"/>
<text text-anchor="middle" x="449.04" y="-679.02" font-family="Times,serif" font-size="14.00">a</text>
</g>
<!-- http://w3id.org/oseg/ont/okhimg#slotModelFromFront -->
<g id="node39" class="node">
<title>http://w3id.org/oseg/ont/okhimg#slotModelFromFront</title>
<ellipse fill="none" stroke="#e377c2" cx="196.04" cy="-724.34" rx="116.85" ry="16.03"/>
<text text-anchor="middle" x="196.04" y="-720.64" font-family="Times,serif" font-size="14.00">okhimg:slotModelF...</text>
</g>
<!-- http://w3id.org/oseg/ont/okhimg#slotModelFromFront&#45;&gt;http://schema.org/DefinedTerm -->
<g id="edge44" class="edge">
<title>http://w3id.org/oseg/ont/okhimg#slotModelFromFront&#45;&gt;http://schema.org/DefinedTerm</title>
<path fill="none" stroke="black" d="M228.41,-708.66C306.96,-670.63 507.61,-573.47 594.79,-531.26"/>
<polygon fill="black" stroke="black" points="596.38,-534.38 603.85,-526.87 593.33,-528.08 596.38,-534.38"/>
<text text-anchor="middle" x="407.1" y="-623.76" font-family="Times,serif" font-size="14.00">a</text>
</g>
<!-- http://w3id.org/oseg/ont/okhimg#slotModelFromBelow -->
<g id="node41" class="node">
<title>http://w3id.org/oseg/ont/okhimg#slotModelFromBelow</title>
<ellipse fill="none" stroke="#e377c2" cx="282.5" cy="-121.14" rx="116.85" ry="16.03"/>
<text text-anchor="middle" x="282.5" y="-117.44" font-family="Times,serif" font-size="14.00">okhimg:slotModelF...</text>
</g>
<!-- http://w3id.org/oseg/ont/okhimg#slotModelFromBelow&#45;&gt;http://schema.org/DefinedTerm -->
<g id="edge47" class="edge">
<title>http://w3id.org/oseg/ont/okhimg#slotModelFromBelow&#45;&gt;http://schema.org/DefinedTerm</title>
<path fill="none" stroke="black" d="M297.25,-137.4C352.65,-198.49 548.5,-414.41 614.43,-487.09"/>
<polygon fill="black" stroke="black" points="612.15,-489.78 621.46,-494.84 617.33,-485.08 612.15,-489.78"/>
<text text-anchor="middle" x="451.34" y="-316.05" font-family="Times,serif" font-size="14.00">a</text>
</g>
<!-- http://w3id.org/oseg/ont/okhimg#tagColor -->
<g id="node42" class="node">
<title>http://w3id.org/oseg/ont/okhimg#tagColor</title>
<ellipse fill="none" stroke="#e377c2" cx="412.76" cy="-902.56" rx="95.42" ry="16.03"/>
<text text-anchor="middle" x="412.76" y="-898.86" font-family="Times,serif" font-size="14.00">okhimg:tagColor</text>
</g>
<!-- http://w3id.org/oseg/ont/okhimg#tagColor&#45;&gt;http://schema.org/DefinedTerm -->
<g id="edge50" class="edge">
<title>http://w3id.org/oseg/ont/okhimg#tagColor&#45;&gt;http://schema.org/DefinedTerm</title>
<path fill="none" stroke="black" d="M422.08,-886.24C456.87,-825.32 579.32,-610.9 621.7,-536.68"/>
<polygon fill="black" stroke="black" points="624.99,-537.98 626.91,-527.56 618.91,-534.51 624.99,-537.98"/>
<text text-anchor="middle" x="517.39" y="-715.26" font-family="Times,serif" font-size="14.00">a</text>
</g>
</g>
</svg>
