<?xml version="1.0" encoding="UTF-8" standalone="no"?>
<!DOCTYPE svg PUBLIC "-//W3C//DTD SVG 1.1//EN"
 "http://www.w3.org/Graphics/SVG/1.1/DTD/svg11.dtd">
<!-- Generated by graphviz version 2.43.0 (0)
 -->
<!-- Title: G Pages: 1 -->
<svg width="2097pt" height="1920pt"
 viewBox="0.00 0.00 2097.00 1920.00" xmlns="http://www.w3.org/2000/svg" xmlns:xlink="http://www.w3.org/1999/xlink">
<g id="graph0" class="graph" transform="scale(1 1) rotate(0) translate(4 1916)">
<title>G</title>
<polygon fill="white" stroke="transparent" points="-4,4 -4,-1916 2093,-1916 2093,4 -4,4"/>
<!-- http://www.w3.org/2002/07/owl#Ontology -->
<g id="node1" class="node">
<title>http://www.w3.org/2002/07/owl#Ontology</title>
<ellipse fill="none" stroke="#1f77b4" cx="1867.85" cy="-683.96" rx="77.56" ry="16.03"/>
<text text-anchor="middle" x="1867.85" y="-680.26" font-family="Times,serif" font-size="14.00">owl:Ontology</text>
</g>
<!-- http://www.w3.org/2002/07/owl#DatatypeProperty -->
<g id="node2" class="node">
<title>http://www.w3.org/2002/07/owl#DatatypeProperty</title>
<ellipse fill="none" stroke="#1f77b4" cx="752.82" cy="-949.98" rx="123.07" ry="16.03"/>
<text text-anchor="middle" x="752.82" y="-946.28" font-family="Times,serif" font-size="14.00">owl:DatatypeProperty</text>
</g>
<!-- http://w3id.org/oseg/ont/otrl#OTRL -->
<g id="node3" class="node">
<title>http://w3id.org/oseg/ont/otrl#OTRL</title>
<ellipse fill="none" stroke="#e377c2" cx="790.24" cy="-600.41" rx="60.62" ry="16.03"/>
<text text-anchor="middle" x="790.24" y="-596.71" font-family="Times,serif" font-size="14.00">otrl:OTRL</text>
</g>
<!-- http://spdx.org/rdf/terms#SpdxItem -->
<g id="node4" class="node">
<title>http://spdx.org/rdf/terms#SpdxItem</title>
<ellipse fill="none" stroke="#1f77b4" cx="2001.54" cy="-351.03" rx="87.86" ry="16.03"/>
<text text-anchor="middle" x="2001.54" y="-347.33" font-family="Times,serif" font-size="14.00">spdx:SpdxItem</text>
</g>
<!-- http://w3id.org/oseg/ont/otrl#ODRL -->
<g id="node5" class="node">
<title>http://w3id.org/oseg/ont/otrl#ODRL</title>
<ellipse fill="none" stroke="#e377c2" cx="1138.05" cy="-1042.8" rx="62.87" ry="16.03"/>
<text text-anchor="middle" x="1138.05" y="-1039.1" font-family="Times,serif" font-size="14.00">otrl:ODRL</text>
</g>
<!-- http://w3id.org/oseg/ont/otrl -->
<g id="node6" class="node">
<title>http://w3id.org/oseg/ont/otrl</title>
<ellipse fill="none" stroke="#e377c2" cx="1840.06" cy="-484.45" rx="50.82" ry="16.03"/>
<text text-anchor="middle" x="1840.06" y="-480.75" font-family="Times,serif" font-size="14.00">ns1:otrl</text>
</g>
<!-- http://w3id.org/oseg/ont/otrl&#45;&gt;http://www.w3.org/2002/07/owl#Ontology -->
<g id="edge4" class="edge">
<title>http://w3id.org/oseg/ont/otrl&#45;&gt;http://www.w3.org/2002/07/owl#Ontology</title>
<path fill="none" stroke="black" d="M1842.33,-500.77C1847.14,-535.27 1858.36,-615.85 1864.19,-657.69"/>
<polygon fill="black" stroke="black" points="1860.73,-658.26 1865.58,-667.68 1867.67,-657.3 1860.73,-658.26"/>
<text text-anchor="middle" x="1848.76" y="-583.03" font-family="Times,serif" font-size="14.00">a</text>
</g>
<!-- http://w3id.org/oseg/ont/otrl&#45;&gt;http://spdx.org/rdf/terms#SpdxItem -->
<g id="edge1" class="edge">
<title>http://w3id.org/oseg/ont/otrl&#45;&gt;http://spdx.org/rdf/terms#SpdxItem</title>
<path fill="none" stroke="black" d="M1858.58,-469.14C1886.99,-445.67 1941.48,-400.65 1974.36,-373.48"/>
<polygon fill="black" stroke="black" points="1976.75,-376.05 1982.23,-366.98 1972.29,-370.65 1976.75,-376.05"/>
<text text-anchor="middle" x="1911.97" y="-410.11" font-family="Times,serif" font-size="14.00">a</text>
</g>
<!-- http://w3id.org/oseg/ont/oseg&#45;profiles#martinHaeuer -->
<g id="node10" class="node">
<title>http://w3id.org/oseg/ont/oseg&#45;profiles#martinHaeuer</title>
<ellipse fill="none" stroke="#e377c2" cx="1646.34" cy="-630.6" rx="116.85" ry="16.03"/>
<text text-anchor="middle" x="1646.34" y="-626.9" font-family="Times,serif" font-size="14.00">osegprof:martinHa...</text>
</g>
<!-- http://w3id.org/oseg/ont/otrl&#45;&gt;http://w3id.org/oseg/ont/oseg&#45;profiles#martinHaeuer -->
<g id="edge8" class="edge">
<title>http://w3id.org/oseg/ont/otrl&#45;&gt;http://w3id.org/oseg/ont/oseg&#45;profiles#martinHaeuer</title>
<path fill="none" stroke="black" d="M1813.93,-498.42C1775.55,-523.82 1704.74,-577.18 1668.65,-607.86"/>
<polygon fill="black" stroke="black" points="1666.36,-605.21 1661.09,-614.41 1670.94,-610.51 1666.36,-605.21"/>
<text text-anchor="middle" x="1685.79" y="-556.94" font-family="Times,serif" font-size="14.00">schema:creator</text>
</g>
<!-- http://w3id.org/oseg/ont/otrl&#45;&gt;http://w3id.org/oseg/ont/oseg&#45;profiles#martinHaeuer -->
<g id="edge19" class="edge">
<title>http://w3id.org/oseg/ont/otrl&#45;&gt;http://w3id.org/oseg/ont/oseg&#45;profiles#martinHaeuer</title>
<path fill="none" stroke="black" d="M1825.94,-500.08C1796.29,-526.44 1727.07,-579.22 1683.71,-609.04"/>
<polygon fill="black" stroke="black" points="1681.71,-606.16 1675.4,-614.68 1685.64,-611.96 1681.71,-606.16"/>
<text text-anchor="middle" x="1812.33" y="-558.36" font-family="Times,serif" font-size="14.00">dcterms:creator</text>
</g>
<!-- http://id.loc.gov/vocabulary/iso639&#45;1/en -->
<g id="node12" class="node">
<title>http://id.loc.gov/vocabulary/iso639&#45;1/en</title>
<ellipse fill="none" stroke="#e377c2" cx="1989.61" cy="-552.96" rx="45.01" ry="16.03"/>
<text text-anchor="middle" x="1989.61" y="-549.26" font-family="Times,serif" font-size="14.00">ns2:en</text>
</g>
<!-- http://w3id.org/oseg/ont/otrl&#45;&gt;http://id.loc.gov/vocabulary/iso639&#45;1/en -->
<g id="edge10" class="edge">
<title>http://w3id.org/oseg/ont/otrl&#45;&gt;http://id.loc.gov/vocabulary/iso639&#45;1/en</title>
<path fill="none" stroke="black" d="M1869.25,-497.82C1892.92,-508.66 1926.44,-524.02 1952.09,-535.77"/>
<polygon fill="black" stroke="black" points="1950.96,-539.1 1961.51,-540.08 1953.87,-532.74 1950.96,-539.1"/>
<text text-anchor="middle" x="1975.17" y="-505.6" font-family="Times,serif" font-size="14.00">dcterms:language</text>
</g>
<!-- http://w3id.org/oseg/ont/oseg&#45;profiles#robinVobruba -->
<g id="node17" class="node">
<title>http://w3id.org/oseg/ont/oseg&#45;profiles#robinVobruba</title>
<ellipse fill="none" stroke="#e377c2" cx="1818.5" cy="-530.04" rx="113.69" ry="16.03"/>
<text text-anchor="middle" x="1818.5" y="-526.34" font-family="Times,serif" font-size="14.00">osegprof:robinVob...</text>
</g>
<!-- http://w3id.org/oseg/ont/otrl&#45;&gt;http://w3id.org/oseg/ont/oseg&#45;profiles#robinVobruba -->
<g id="edge16" class="edge">
<title>http://w3id.org/oseg/ont/otrl&#45;&gt;http://w3id.org/oseg/ont/oseg&#45;profiles#robinVobruba</title>
<path fill="none" stroke="black" d="M1825.28,-500.15C1824.56,-501.51 1823.87,-502.9 1823.2,-504.31"/>
<polygon fill="black" stroke="black" points="1819.95,-503.02 1819.36,-513.6 1826.41,-505.7 1819.95,-503.02"/>
<text text-anchor="middle" x="1768.74" y="-506.03" font-family="Times,serif" font-size="14.00">schema:creator</text>
</g>
<!-- http://w3id.org/oseg/ont/otrl&#45;&gt;http://w3id.org/oseg/ont/oseg&#45;profiles#robinVobruba -->
<g id="edge26" class="edge">
<title>http://w3id.org/oseg/ont/otrl&#45;&gt;http://w3id.org/oseg/ont/oseg&#45;profiles#robinVobruba</title>
<path fill="none" stroke="black" d="M1839.24,-500.8C1838.82,-501.97 1838.37,-503.18 1837.89,-504.39"/>
<polygon fill="black" stroke="black" points="1834.62,-503.12 1833.63,-513.66 1840.98,-506.04 1834.62,-503.12"/>
<text text-anchor="middle" x="1781.06" y="-491.39" font-family="Times,serif" font-size="14.00">dcterms:creator</text>
</g>
<!-- http://w3id.org/oseg/ont/1.1.0/otrl -->
<g id="node21" class="node">
<title>http://w3id.org/oseg/ont/1.1.0/otrl</title>
<ellipse fill="none" stroke="#e377c2" cx="1795.85" cy="-321.95" rx="50.82" ry="16.03"/>
<text text-anchor="middle" x="1795.85" y="-318.25" font-family="Times,serif" font-size="14.00">ns3:otrl</text>
</g>
<!-- http://w3id.org/oseg/ont/otrl&#45;&gt;http://w3id.org/oseg/ont/1.1.0/otrl -->
<g id="edge22" class="edge">
<title>http://w3id.org/oseg/ont/otrl&#45;&gt;http://w3id.org/oseg/ont/1.1.0/otrl</title>
<path fill="none" stroke="black" d="M1835.58,-467.97C1827.9,-439.74 1812.17,-381.93 1802.97,-348.13"/>
<polygon fill="black" stroke="black" points="1806.34,-347.2 1800.34,-338.47 1799.59,-349.04 1806.34,-347.2"/>
<text text-anchor="middle" x="1845.02" y="-396.85" font-family="Times,serif" font-size="14.00">owl:versionIRI</text>
</g>
<!-- http://spdx.org/licenses/GPL&#45;3.0&#45;or&#45;later -->
<g id="node24" class="node">
<title>http://spdx.org/licenses/GPL&#45;3.0&#45;or&#45;later</title>
<ellipse fill="none" stroke="#e377c2" cx="1884.68" cy="-443.91" rx="108.79" ry="16.03"/>
<text text-anchor="middle" x="1884.68" y="-440.21" font-family="Times,serif" font-size="14.00">spdxl:GPL&#45;3.0&#45;or&#45;...</text>
</g>
<!-- http://w3id.org/oseg/ont/otrl&#45;&gt;http://spdx.org/licenses/GPL&#45;3.0&#45;or&#45;later -->
<g id="edge30" class="edge">
<title>http://w3id.org/oseg/ont/otrl&#45;&gt;http://spdx.org/licenses/GPL&#45;3.0&#45;or&#45;later</title>
<path fill="none" stroke="black" d="M1857.19,-468.89C1857.87,-468.27 1858.57,-467.63 1859.27,-467"/>
<polygon fill="black" stroke="black" points="1861.74,-469.48 1866.79,-460.17 1857.04,-464.3 1861.74,-469.48"/>
<text text-anchor="middle" x="1934.23" y="-471.74" font-family="Times,serif" font-size="14.00">spdx:licenseDeclared</text>
</g>
<!-- http://w3id.org/oseg/ont/oseg&#45;profiles#Iopa -->
<g id="node26" class="node">
<title>http://w3id.org/oseg/ont/oseg&#45;profiles#Iopa</title>
<ellipse fill="none" stroke="#e377c2" cx="1650.42" cy="-415.39" rx="80.72" ry="16.03"/>
<text text-anchor="middle" x="1650.42" y="-411.69" font-family="Times,serif" font-size="14.00">osegprof:Iopa</text>
</g>
<!-- http://w3id.org/oseg/ont/otrl&#45;&gt;http://w3id.org/oseg/ont/oseg&#45;profiles#Iopa -->
<g id="edge38" class="edge">
<title>http://w3id.org/oseg/ont/otrl&#45;&gt;http://w3id.org/oseg/ont/oseg&#45;profiles#Iopa</title>
<path fill="none" stroke="black" d="M1806.16,-472.1C1776.39,-461.26 1732.73,-445.36 1699.2,-433.16"/>
<polygon fill="black" stroke="black" points="1700.19,-429.79 1689.6,-429.66 1697.79,-436.37 1700.19,-429.79"/>
<text text-anchor="middle" x="1687.18" y="-456.43" font-family="Times,serif" font-size="14.00">dcterms:publisher</text>
</g>
<!-- http://w3id.org/oseg/ont/otrl#ODRL3 -->
<g id="node7" class="node">
<title>http://w3id.org/oseg/ont/otrl#ODRL3</title>
<ellipse fill="none" stroke="#e377c2" cx="954.92" cy="-1148.22" rx="69.09" ry="16.03"/>
<text text-anchor="middle" x="954.92" y="-1144.52" font-family="Times,serif" font-size="14.00">otrl:ODRL3</text>
</g>
<!-- http://w3id.org/oseg/ont/otrl#ODRL3&#45;&gt;http://w3id.org/oseg/ont/otrl#ODRL -->
<g id="edge2" class="edge">
<title>http://w3id.org/oseg/ont/otrl#ODRL3&#45;&gt;http://w3id.org/oseg/ont/otrl#ODRL</title>
<path fill="none" stroke="black" d="M981.15,-1133.12C1013.2,-1114.67 1067.53,-1083.39 1103.1,-1062.92"/>
<polygon fill="black" stroke="black" points="1105.24,-1065.73 1112.16,-1057.71 1101.74,-1059.66 1105.24,-1065.73"/>
<text text-anchor="middle" x="1037.63" y="-1101.82" font-family="Times,serif" font-size="14.00">a</text>
</g>
<!-- http://w3id.org/oseg/ont/otrl#OTRL1 -->
<g id="node8" class="node">
<title>http://w3id.org/oseg/ont/otrl#OTRL1</title>
<ellipse fill="none" stroke="#e377c2" cx="682.99" cy="-362.43" rx="67.35" ry="16.03"/>
<text text-anchor="middle" x="682.99" y="-358.73" font-family="Times,serif" font-size="14.00">otrl:OTRL1</text>
</g>
<!-- http://w3id.org/oseg/ont/otrl#OTRL1&#45;&gt;http://w3id.org/oseg/ont/otrl#OTRL -->
<g id="edge42" class="edge">
<title>http://w3id.org/oseg/ont/otrl#OTRL1&#45;&gt;http://w3id.org/oseg/ont/otrl#OTRL</title>
<path fill="none" stroke="black" d="M690.36,-378.79C708.74,-419.56 756.68,-525.93 778.78,-574.97"/>
<polygon fill="black" stroke="black" points="775.66,-576.57 782.96,-584.25 782.04,-573.7 775.66,-576.57"/>
<text text-anchor="middle" x="730.07" y="-480.68" font-family="Times,serif" font-size="14.00">a</text>
</g>
<!-- http://w3id.org/oseg/ont/otrl#OTRL2 -->
<g id="node9" class="node">
<title>http://w3id.org/oseg/ont/otrl#OTRL2</title>
<ellipse fill="none" stroke="#e377c2" cx="569.34" cy="-496.73" rx="67.35" ry="16.03"/>
<text text-anchor="middle" x="569.34" y="-493.03" font-family="Times,serif" font-size="14.00">otrl:OTRL2</text>
</g>
<!-- http://w3id.org/oseg/ont/otrl#OTRL2&#45;&gt;http://w3id.org/oseg/ont/otrl#OTRL -->
<g id="edge23" class="edge">
<title>http://w3id.org/oseg/ont/otrl#OTRL2&#45;&gt;http://w3id.org/oseg/ont/otrl#OTRL</title>
<path fill="none" stroke="black" d="M600.52,-511.36C639.89,-529.84 707.63,-561.64 750.62,-581.82"/>
<polygon fill="black" stroke="black" points="749.39,-585.1 759.93,-586.18 752.36,-578.77 749.39,-585.1"/>
<text text-anchor="middle" x="671.07" y="-550.39" font-family="Times,serif" font-size="14.00">a</text>
</g>
<!-- http://w3id.org/oseg/ont/otrl#OTRL3 -->
<g id="node11" class="node">
<title>http://w3id.org/oseg/ont/otrl#OTRL3</title>
<ellipse fill="none" stroke="#e377c2" cx="1003.44" cy="-464.79" rx="67.35" ry="16.03"/>
<text text-anchor="middle" x="1003.44" y="-461.09" font-family="Times,serif" font-size="14.00">otrl:OTRL3</text>
</g>
<!-- http://w3id.org/oseg/ont/otrl#OTRL3&#45;&gt;http://w3id.org/oseg/ont/otrl#OTRL -->
<g id="edge43" class="edge">
<title>http://w3id.org/oseg/ont/otrl#OTRL3&#45;&gt;http://w3id.org/oseg/ont/otrl#OTRL</title>
<path fill="none" stroke="black" d="M979.4,-480.09C940.97,-504.53 865.65,-552.44 822.55,-579.86"/>
<polygon fill="black" stroke="black" points="820.43,-577.06 813.87,-585.38 824.19,-582.97 820.43,-577.06"/>
<text text-anchor="middle" x="896.48" y="-533.77" font-family="Times,serif" font-size="14.00">a</text>
</g>
<!-- http://w3id.org/oseg/ont/otrl#OTRL6 -->
<g id="node13" class="node">
<title>http://w3id.org/oseg/ont/otrl#OTRL6</title>
<ellipse fill="none" stroke="#e377c2" cx="836.93" cy="-471.04" rx="67.35" ry="16.03"/>
<text text-anchor="middle" x="836.93" y="-467.34" font-family="Times,serif" font-size="14.00">otrl:OTRL6</text>
</g>
<!-- http://w3id.org/oseg/ont/otrl#OTRL6&#45;&gt;http://w3id.org/oseg/ont/otrl#OTRL -->
<g id="edge31" class="edge">
<title>http://w3id.org/oseg/ont/otrl#OTRL6&#45;&gt;http://w3id.org/oseg/ont/otrl#OTRL</title>
<path fill="none" stroke="black" d="M831.01,-487.42C823.09,-509.39 808.93,-548.63 799.56,-574.59"/>
<polygon fill="black" stroke="black" points="796.21,-573.56 796.11,-584.16 802.79,-575.94 796.21,-573.56"/>
<text text-anchor="middle" x="810.79" y="-534.81" font-family="Times,serif" font-size="14.00">a</text>
</g>
<!-- http://w3id.org/oseg/ont/otrl#OTRL5 -->
<g id="node14" class="node">
<title>http://w3id.org/oseg/ont/otrl#OTRL5</title>
<ellipse fill="none" stroke="#e377c2" cx="560.63" cy="-666.17" rx="67.35" ry="16.03"/>
<text text-anchor="middle" x="560.63" y="-662.47" font-family="Times,serif" font-size="14.00">otrl:OTRL5</text>
</g>
<!-- http://w3id.org/oseg/ont/otrl#OTRL5&#45;&gt;http://w3id.org/oseg/ont/otrl#OTRL -->
<g id="edge12" class="edge">
<title>http://w3id.org/oseg/ont/otrl#OTRL5&#45;&gt;http://w3id.org/oseg/ont/otrl#OTRL</title>
<path fill="none" stroke="black" d="M604.08,-653.73C642.4,-642.75 698.28,-626.75 738.81,-615.14"/>
<polygon fill="black" stroke="black" points="739.86,-618.48 748.51,-612.36 737.93,-611.75 739.86,-618.48"/>
<text text-anchor="middle" x="666.95" y="-638.23" font-family="Times,serif" font-size="14.00">a</text>
</g>
<!-- http://www.w3.org/1999/02/22&#45;rdf&#45;syntax&#45;ns#langString -->
<g id="node15" class="node">
<title>http://www.w3.org/1999/02/22&#45;rdf&#45;syntax&#45;ns#langString</title>
<ellipse fill="none" stroke="#e377c2" cx="1178.58" cy="-759.23" rx="83.38" ry="16.03"/>
<text text-anchor="middle" x="1178.58" y="-755.53" font-family="Times,serif" font-size="14.00">rdf:langString</text>
</g>
<!-- http://w3id.org/oseg/ont/otrl#OTRL4 -->
<g id="node16" class="node">
<title>http://w3id.org/oseg/ont/otrl#OTRL4</title>
<ellipse fill="none" stroke="#e377c2" cx="907.87" cy="-423.53" rx="67.35" ry="16.03"/>
<text text-anchor="middle" x="907.87" y="-419.83" font-family="Times,serif" font-size="14.00">otrl:OTRL4</text>
</g>
<!-- http://w3id.org/oseg/ont/otrl#OTRL4&#45;&gt;http://w3id.org/oseg/ont/otrl#OTRL -->
<g id="edge28" class="edge">
<title>http://w3id.org/oseg/ont/otrl#OTRL4&#45;&gt;http://w3id.org/oseg/ont/otrl#OTRL</title>
<path fill="none" stroke="black" d="M897.01,-439.85C876.3,-471 831.04,-539.05 806.63,-575.77"/>
<polygon fill="black" stroke="black" points="803.52,-574.12 800.9,-584.38 809.35,-577.99 803.52,-574.12"/>
<text text-anchor="middle" x="847.32" y="-511.61" font-family="Times,serif" font-size="14.00">a</text>
</g>
<!-- http://w3id.org/oseg/ont/otrl#ODRL4 -->
<g id="node18" class="node">
<title>http://w3id.org/oseg/ont/otrl#ODRL4</title>
<ellipse fill="none" stroke="#e377c2" cx="1092.3" cy="-1312.14" rx="69.09" ry="16.03"/>
<text text-anchor="middle" x="1092.3" y="-1308.44" font-family="Times,serif" font-size="14.00">otrl:ODRL4</text>
</g>
<!-- http://w3id.org/oseg/ont/otrl#ODRL4&#45;&gt;http://w3id.org/oseg/ont/otrl#ODRL -->
<g id="edge17" class="edge">
<title>http://w3id.org/oseg/ont/otrl#ODRL4&#45;&gt;http://w3id.org/oseg/ont/otrl#ODRL</title>
<path fill="none" stroke="black" d="M1095.09,-1295.7C1102.75,-1250.62 1124.13,-1124.76 1133.52,-1069.45"/>
<polygon fill="black" stroke="black" points="1137.01,-1069.81 1135.24,-1059.37 1130.11,-1068.64 1137.01,-1069.81"/>
<text text-anchor="middle" x="1109.81" y="-1186.37" font-family="Times,serif" font-size="14.00">a</text>
</g>
<!-- http://w3id.org/oseg/ont/otrl#ODRL1 -->
<g id="node19" class="node">
<title>http://w3id.org/oseg/ont/otrl#ODRL1</title>
<ellipse fill="none" stroke="#e377c2" cx="1390.39" cy="-1002.77" rx="69.09" ry="16.03"/>
<text text-anchor="middle" x="1390.39" y="-999.07" font-family="Times,serif" font-size="14.00">otrl:ODRL1</text>
</g>
<!-- http://w3id.org/oseg/ont/otrl#ODRL1&#45;&gt;http://w3id.org/oseg/ont/otrl#ODRL -->
<g id="edge34" class="edge">
<title>http://w3id.org/oseg/ont/otrl#ODRL1&#45;&gt;http://w3id.org/oseg/ont/otrl#ODRL</title>
<path fill="none" stroke="black" d="M1332.82,-1011.9C1293.8,-1018.09 1242.2,-1026.28 1201.91,-1032.67"/>
<polygon fill="black" stroke="black" points="1201.26,-1029.23 1191.93,-1034.25 1202.35,-1036.14 1201.26,-1029.23"/>
<text text-anchor="middle" x="1262.86" y="-1026.08" font-family="Times,serif" font-size="14.00">a</text>
</g>
<!-- http://w3id.org/oseg/ont/otrl#ODRL2 -->
<g id="node20" class="node">
<title>http://w3id.org/oseg/ont/otrl#ODRL2</title>
<ellipse fill="none" stroke="#e377c2" cx="1246.32" cy="-1274.06" rx="69.09" ry="16.03"/>
<text text-anchor="middle" x="1246.32" y="-1270.36" font-family="Times,serif" font-size="14.00">otrl:ODRL2</text>
</g>
<!-- http://w3id.org/oseg/ont/otrl#ODRL2&#45;&gt;http://w3id.org/oseg/ont/otrl#ODRL -->
<g id="edge20" class="edge">
<title>http://w3id.org/oseg/ont/otrl#ODRL2&#45;&gt;http://w3id.org/oseg/ont/otrl#ODRL</title>
<path fill="none" stroke="black" d="M1238.71,-1257.8C1220.11,-1218.07 1172.26,-1115.86 1149.9,-1068.1"/>
<polygon fill="black" stroke="black" points="1153.07,-1066.62 1145.66,-1059.04 1146.73,-1069.58 1153.07,-1066.62"/>
<text text-anchor="middle" x="1189.8" y="-1166.75" font-family="Times,serif" font-size="14.00">a</text>
</g>
<!-- http://w3id.org/oseg/ont/otrl#goal -->
<g id="node22" class="node">
<title>http://w3id.org/oseg/ont/otrl#goal</title>
<ellipse fill="none" stroke="#e377c2" cx="958.26" cy="-833.91" rx="54.39" ry="16.03"/>
<text text-anchor="middle" x="958.26" y="-830.21" font-family="Times,serif" font-size="14.00">otrl:goal</text>
</g>
<!-- http://w3id.org/oseg/ont/otrl#goal&#45;&gt;http://www.w3.org/2002/07/owl#DatatypeProperty -->
<g id="edge25" class="edge">
<title>http://w3id.org/oseg/ont/otrl#goal&#45;&gt;http://www.w3.org/2002/07/owl#DatatypeProperty</title>
<path fill="none" stroke="black" d="M932.66,-848.37C896.76,-868.66 831.24,-905.67 789.98,-928.98"/>
<polygon fill="black" stroke="black" points="788.04,-926.06 781.05,-934.03 791.48,-932.15 788.04,-926.06"/>
<text text-anchor="middle" x="856.82" y="-892.48" font-family="Times,serif" font-size="14.00">a</text>
</g>
<!-- http://w3id.org/oseg/ont/otrl#goal&#45;&gt;http://w3id.org/oseg/ont/otrl#OTRL -->
<g id="edge27" class="edge">
<title>http://w3id.org/oseg/ont/otrl#goal&#45;&gt;http://w3id.org/oseg/ont/otrl#OTRL</title>
<path fill="none" stroke="black" d="M946.71,-817.86C917.82,-777.7 842.25,-672.68 807.8,-624.82"/>
<polygon fill="black" stroke="black" points="810.55,-622.64 801.87,-616.57 804.87,-626.73 810.55,-622.64"/>
<text text-anchor="middle" x="791.26" y="-725.14" font-family="Times,serif" font-size="14.00">schema:domainIncludes</text>
</g>
<!-- http://w3id.org/oseg/ont/otrl#goal&#45;&gt;http://w3id.org/oseg/ont/otrl#ODRL -->
<g id="edge5" class="edge">
<title>http://w3id.org/oseg/ont/otrl#goal&#45;&gt;http://w3id.org/oseg/ont/otrl#ODRL</title>
<path fill="none" stroke="black" d="M972.07,-849.95C1003.51,-886.48 1080.56,-976 1117.56,-1018.99"/>
<polygon fill="black" stroke="black" points="1115.02,-1021.4 1124.19,-1026.7 1120.32,-1016.84 1115.02,-1021.4"/>
<text text-anchor="middle" x="1130.82" y="-938.27" font-family="Times,serif" font-size="14.00">schema:domainIncludes</text>
</g>
<!-- http://w3id.org/oseg/ont/otrl#goal&#45;&gt;http://www.w3.org/1999/02/22&#45;rdf&#45;syntax&#45;ns#langString -->
<g id="edge32" class="edge">
<title>http://w3id.org/oseg/ont/otrl#goal&#45;&gt;http://www.w3.org/1999/02/22&#45;rdf&#45;syntax&#45;ns#langString</title>
<path fill="none" stroke="black" d="M994.64,-821.57C1030.78,-809.33 1086.5,-790.44 1127.15,-776.66"/>
<polygon fill="black" stroke="black" points="1128.53,-779.89 1136.88,-773.36 1126.29,-773.26 1128.53,-779.89"/>
<text text-anchor="middle" x="1081.9" y="-802.92" font-family="Times,serif" font-size="14.00">range</text>
</g>
<!-- http://w3id.org/oseg/ont/otrl#ODRL3Star -->
<g id="node23" class="node">
<title>http://w3id.org/oseg/ont/otrl#ODRL3Star</title>
<ellipse fill="none" stroke="#e377c2" cx="1368.25" cy="-1206.74" rx="90.52" ry="16.03"/>
<text text-anchor="middle" x="1368.25" y="-1203.04" font-family="Times,serif" font-size="14.00">otrl:ODRL3Star</text>
</g>
<!-- http://w3id.org/oseg/ont/otrl#ODRL3Star&#45;&gt;http://w3id.org/oseg/ont/otrl#ODRL -->
<g id="edge37" class="edge">
<title>http://w3id.org/oseg/ont/otrl#ODRL3Star&#45;&gt;http://w3id.org/oseg/ont/otrl#ODRL</title>
<path fill="none" stroke="black" d="M1345.76,-1190.72C1304.01,-1160.99 1214.54,-1097.27 1167.83,-1064"/>
<polygon fill="black" stroke="black" points="1169.8,-1061.11 1159.62,-1058.16 1165.74,-1066.81 1169.8,-1061.11"/>
<text text-anchor="middle" x="1252.29" y="-1131.16" font-family="Times,serif" font-size="14.00">a</text>
</g>
<!-- http://w3id.org/oseg/ont/otrl#exitCriteria -->
<g id="node25" class="node">
<title>http://w3id.org/oseg/ont/otrl#exitCriteria</title>
<ellipse fill="none" stroke="#e377c2" cx="993.92" cy="-784.17" rx="91.43" ry="16.03"/>
<text text-anchor="middle" x="993.92" y="-780.47" font-family="Times,serif" font-size="14.00">otrl:exitCriteria</text>
</g>
<!-- http://w3id.org/oseg/ont/otrl#exitCriteria&#45;&gt;http://www.w3.org/2002/07/owl#DatatypeProperty -->
<g id="edge35" class="edge">
<title>http://w3id.org/oseg/ont/otrl#exitCriteria&#45;&gt;http://www.w3.org/2002/07/owl#DatatypeProperty</title>
<path fill="none" stroke="black" d="M970.8,-800.07C927.44,-829.89 833.84,-894.26 784.59,-928.13"/>
<polygon fill="black" stroke="black" points="782.48,-925.33 776.22,-933.88 786.44,-931.1 782.48,-925.33"/>
<text text-anchor="middle" x="873.2" y="-867.9" font-family="Times,serif" font-size="14.00">a</text>
</g>
<!-- http://w3id.org/oseg/ont/otrl#exitCriteria&#45;&gt;http://w3id.org/oseg/ont/otrl#OTRL -->
<g id="edge3" class="edge">
<title>http://w3id.org/oseg/ont/otrl#exitCriteria&#45;&gt;http://w3id.org/oseg/ont/otrl#OTRL</title>
<path fill="none" stroke="black" d="M976.2,-768.18C939.92,-735.45 857.09,-660.72 815.32,-623.03"/>
<polygon fill="black" stroke="black" points="817.54,-620.33 807.78,-616.23 812.86,-625.53 817.54,-620.33"/>
<text text-anchor="middle" x="809.76" y="-699.41" font-family="Times,serif" font-size="14.00">schema:domainIncludes</text>
</g>
<!-- http://w3id.org/oseg/ont/otrl#exitCriteria&#45;&gt;http://w3id.org/oseg/ont/otrl#ODRL -->
<g id="edge24" class="edge">
<title>http://w3id.org/oseg/ont/otrl#exitCriteria&#45;&gt;http://w3id.org/oseg/ont/otrl#ODRL</title>
<path fill="none" stroke="black" d="M1003.16,-800.74C1027.72,-844.82 1094.79,-965.18 1124.07,-1017.71"/>
<polygon fill="black" stroke="black" points="1121.15,-1019.67 1129.08,-1026.7 1127.27,-1016.26 1121.15,-1019.67"/>
<text text-anchor="middle" x="977.61" y="-913.02" font-family="Times,serif" font-size="14.00">schema:domainIncludes</text>
</g>
<!-- http://w3id.org/oseg/ont/otrl#exitCriteria&#45;&gt;http://www.w3.org/1999/02/22&#45;rdf&#45;syntax&#45;ns#langString -->
<g id="edge13" class="edge">
<title>http://w3id.org/oseg/ont/otrl#exitCriteria&#45;&gt;http://www.w3.org/1999/02/22&#45;rdf&#45;syntax&#45;ns#langString</title>
<path fill="none" stroke="black" d="M1066.64,-774.34C1077.53,-772.87 1088.81,-771.35 1099.83,-769.86"/>
<polygon fill="black" stroke="black" points="1100.41,-773.32 1109.85,-768.51 1099.47,-766.38 1100.41,-773.32"/>
<text text-anchor="middle" x="1072.73" y="-760.9" font-family="Times,serif" font-size="14.00">range</text>
</g>
<!-- http://w3id.org/oseg/ont/otrl#Odrl4 -->
<g id="node27" class="node">
<title>http://w3id.org/oseg/ont/otrl#Odrl4</title>
<ellipse fill="none" stroke="#e377c2" cx="1043.42" cy="-1544.58" rx="61.54" ry="16.03"/>
<text text-anchor="middle" x="1043.42" y="-1540.88" font-family="Times,serif" font-size="14.00">otrl:Odrl4</text>
</g>
<!-- http://w3id.org/oseg/ont/otrl#Odrl4&#45;&gt;http://w3id.org/oseg/ont/otrl#ODRL4 -->
<g id="edge36" class="edge">
<title>http://w3id.org/oseg/ont/otrl#Odrl4&#45;&gt;http://w3id.org/oseg/ont/otrl#ODRL4</title>
<path fill="none" stroke="black" d="M1046.86,-1528.24C1055.2,-1488.56 1076.58,-1386.86 1086.76,-1338.48"/>
<polygon fill="black" stroke="black" points="1090.23,-1338.97 1088.86,-1328.47 1083.38,-1337.53 1090.23,-1338.97"/>
<text text-anchor="middle" x="986.81" y="-1437.16" font-family="Times,serif" font-size="14.00">schema:supersededBy</text>
</g>
<!-- http://w3id.org/oseg/ont/otrl#Otrl1 -->
<g id="node28" class="node">
<title>http://w3id.org/oseg/ont/otrl#Otrl1</title>
<ellipse fill="none" stroke="black" cx="567.55" cy="-16.61" rx="189.51" ry="16.03"/>
<text text-anchor="middle" x="567.55" y="-12.91" font-family="Times,serif" font-size="14.00">http://w3id.org/oseg/ont/otrl#Otrl1</text>
</g>
<!-- http://w3id.org/oseg/ont/otrl#Otrl1&#45;&gt;http://w3id.org/oseg/ont/otrl#OTRL1 -->
<g id="edge6" class="edge">
<title>http://w3id.org/oseg/ont/otrl#Otrl1&#45;&gt;http://w3id.org/oseg/ont/otrl#OTRL1</title>
<path fill="none" stroke="black" d="M573.12,-33.29C591.71,-88.98 651.75,-268.83 674.31,-336.43"/>
<polygon fill="black" stroke="black" points="670.99,-337.54 677.48,-345.92 677.63,-335.32 670.99,-337.54"/>
<text text-anchor="middle" x="543.71" y="-188.66" font-family="Times,serif" font-size="14.00">schema:supersededBy</text>
</g>
<!-- http://w3id.org/oseg/ont/otrl#Otrl2 -->
<g id="node29" class="node">
<title>http://w3id.org/oseg/ont/otrl#Otrl2</title>
<ellipse fill="none" stroke="black" cx="249.39" cy="-302.95" rx="189.51" ry="16.03"/>
<text text-anchor="middle" x="249.39" y="-299.25" font-family="Times,serif" font-size="14.00">http://w3id.org/oseg/ont/otrl#Otrl2</text>
</g>
<!-- http://w3id.org/oseg/ont/otrl#Otrl2&#45;&gt;http://w3id.org/oseg/ont/otrl#OTRL2 -->
<g id="edge7" class="edge">
<title>http://w3id.org/oseg/ont/otrl#Otrl2&#45;&gt;http://w3id.org/oseg/ont/otrl#OTRL2</title>
<path fill="none" stroke="black" d="M276.12,-319.13C334.1,-354.25 471.33,-437.36 535.35,-476.14"/>
<polygon fill="black" stroke="black" points="533.88,-479.34 544.25,-481.53 537.51,-473.35 533.88,-479.34"/>
<text text-anchor="middle" x="325.73" y="-401.44" font-family="Times,serif" font-size="14.00">schema:supersededBy</text>
</g>
<!-- http://w3id.org/oseg/ont/otrl#Otrl3 -->
<g id="node30" class="node">
<title>http://w3id.org/oseg/ont/otrl#Otrl3</title>
<ellipse fill="none" stroke="black" cx="1228.99" cy="-175.02" rx="189.51" ry="16.03"/>
<text text-anchor="middle" x="1228.99" y="-171.32" font-family="Times,serif" font-size="14.00">http://w3id.org/oseg/ont/otrl#Otrl3</text>
</g>
<!-- http://w3id.org/oseg/ont/otrl#Otrl3&#45;&gt;http://w3id.org/oseg/ont/otrl#OTRL3 -->
<g id="edge9" class="edge">
<title>http://w3id.org/oseg/ont/otrl#Otrl3&#45;&gt;http://w3id.org/oseg/ont/otrl#OTRL3</title>
<path fill="none" stroke="black" d="M1216.22,-191.43C1178.46,-239.94 1067.2,-382.88 1022.42,-440.4"/>
<polygon fill="black" stroke="black" points="1019.45,-438.52 1016.07,-448.56 1024.98,-442.82 1019.45,-438.52"/>
<text text-anchor="middle" x="1039.32" y="-319.71" font-family="Times,serif" font-size="14.00">schema:supersededBy</text>
</g>
<!-- http://w3id.org/oseg/ont/otrl#Otrl6 -->
<g id="node31" class="node">
<title>http://w3id.org/oseg/ont/otrl#Otrl6</title>
<ellipse fill="none" stroke="black" cx="628.94" cy="-422.77" rx="189.51" ry="16.03"/>
<text text-anchor="middle" x="628.94" y="-419.07" font-family="Times,serif" font-size="14.00">http://w3id.org/oseg/ont/otrl#Otrl6</text>
</g>
<!-- http://w3id.org/oseg/ont/otrl#Otrl6&#45;&gt;http://w3id.org/oseg/ont/otrl#OTRL6 -->
<g id="edge11" class="edge">
<title>http://w3id.org/oseg/ont/otrl#Otrl6&#45;&gt;http://w3id.org/oseg/ont/otrl#OTRL6</title>
<path fill="none" stroke="black" d="M694.75,-438.04C721.66,-444.29 752.53,-451.45 778.61,-457.5"/>
<polygon fill="black" stroke="black" points="777.83,-460.91 788.36,-459.77 779.41,-454.1 777.83,-460.91"/>
<text text-anchor="middle" x="656.68" y="-451.57" font-family="Times,serif" font-size="14.00">schema:supersededBy</text>
</g>
<!-- http://w3id.org/oseg/ont/otrl#Otrl4 -->
<g id="node32" class="node">
<title>http://w3id.org/oseg/ont/otrl#Otrl4</title>
<ellipse fill="none" stroke="black" cx="954.69" cy="-376.11" rx="189.51" ry="16.03"/>
<text text-anchor="middle" x="954.69" y="-372.41" font-family="Times,serif" font-size="14.00">http://w3id.org/oseg/ont/otrl#Otrl4</text>
</g>
<!-- http://w3id.org/oseg/ont/otrl#Otrl4&#45;&gt;http://w3id.org/oseg/ont/otrl#OTRL4 -->
<g id="edge14" class="edge">
<title>http://w3id.org/oseg/ont/otrl#Otrl4&#45;&gt;http://w3id.org/oseg/ont/otrl#OTRL4</title>
<path fill="none" stroke="black" d="M938.58,-392.43C935.99,-395.05 933.27,-397.8 930.57,-400.54"/>
<polygon fill="black" stroke="black" points="928.07,-398.09 923.54,-407.66 933.05,-403 928.07,-398.09"/>
<text text-anchor="middle" x="1014.57" y="-400.28" font-family="Times,serif" font-size="14.00">schema:supersededBy</text>
</g>
<!-- http://w3id.org/oseg/ont/otrl#Odrl3 -->
<g id="node33" class="node">
<title>http://w3id.org/oseg/ont/otrl#Odrl3</title>
<ellipse fill="none" stroke="black" cx="885.15" cy="-1189.33" rx="191.75" ry="16.03"/>
<text text-anchor="middle" x="885.15" y="-1185.63" font-family="Times,serif" font-size="14.00">http://w3id.org/oseg/ont/otrl#Odrl3</text>
</g>
<!-- http://w3id.org/oseg/ont/otrl#Odrl3&#45;&gt;http://w3id.org/oseg/ont/otrl#ODRL3 -->
<g id="edge15" class="edge">
<title>http://w3id.org/oseg/ont/otrl#Odrl3&#45;&gt;http://w3id.org/oseg/ont/otrl#ODRL3</title>
<path fill="none" stroke="black" d="M912.73,-1173.08C915.14,-1171.66 917.61,-1170.21 920.07,-1168.75"/>
<polygon fill="black" stroke="black" points="922.07,-1171.64 928.91,-1163.55 918.52,-1165.61 922.07,-1171.64"/>
<text text-anchor="middle" x="836.4" y="-1159.72" font-family="Times,serif" font-size="14.00">schema:supersededBy</text>
</g>
<!-- http://w3id.org/oseg/ont/otrl#Odrl1 -->
<g id="node34" class="node">
<title>http://w3id.org/oseg/ont/otrl#Odrl1</title>
<ellipse fill="none" stroke="black" cx="1750.31" cy="-969.54" rx="191.75" ry="16.03"/>
<text text-anchor="middle" x="1750.31" y="-965.84" font-family="Times,serif" font-size="14.00">http://w3id.org/oseg/ont/otrl#Odrl1</text>
</g>
<!-- http://w3id.org/oseg/ont/otrl#Odrl1&#45;&gt;http://w3id.org/oseg/ont/otrl#ODRL1 -->
<g id="edge18" class="edge">
<title>http://w3id.org/oseg/ont/otrl#Odrl1&#45;&gt;http://w3id.org/oseg/ont/otrl#ODRL1</title>
<path fill="none" stroke="black" d="M1620.63,-981.51C1568.49,-986.32 1510.22,-991.7 1465.35,-995.84"/>
<polygon fill="black" stroke="black" points="1464.76,-992.39 1455.12,-996.79 1465.4,-999.36 1464.76,-992.39"/>
<text text-anchor="middle" x="1622.99" y="-992.48" font-family="Times,serif" font-size="14.00">schema:supersededBy</text>
</g>
<!-- http://w3id.org/oseg/ont/otrl#Odrl -->
<g id="node35" class="node">
<title>http://w3id.org/oseg/ont/otrl#Odrl</title>
<ellipse fill="none" stroke="black" cx="1493.49" cy="-1116.05" rx="185.02" ry="16.03"/>
<text text-anchor="middle" x="1493.49" y="-1112.35" font-family="Times,serif" font-size="14.00">http://w3id.org/oseg/ont/otrl#Odrl</text>
</g>
<!-- http://w3id.org/oseg/ont/otrl#Odrl&#45;&gt;http://w3id.org/oseg/ont/otrl#ODRL -->
<g id="edge21" class="edge">
<title>http://w3id.org/oseg/ont/otrl#Odrl&#45;&gt;http://w3id.org/oseg/ont/otrl#ODRL</title>
<path fill="none" stroke="black" d="M1420.71,-1101.05C1354.72,-1087.45 1258.65,-1067.65 1197.26,-1055"/>
<polygon fill="black" stroke="black" points="1197.84,-1051.55 1187.34,-1052.96 1196.43,-1058.4 1197.84,-1051.55"/>
<text text-anchor="middle" x="1228.98" y="-1081.82" font-family="Times,serif" font-size="14.00">schema:supersededBy</text>
</g>
<!-- http://w3id.org/oseg/ont/otrl#Odrl3Star -->
<g id="node36" class="node">
<title>http://w3id.org/oseg/ont/otrl#Odrl3Star</title>
<ellipse fill="none" stroke="black" cx="1705.71" cy="-1436.78" rx="213.59" ry="16.03"/>
<text text-anchor="middle" x="1705.71" y="-1433.08" font-family="Times,serif" font-size="14.00">http://w3id.org/oseg/ont/otrl#Odrl3Star</text>
</g>
<!-- http://w3id.org/oseg/ont/otrl#Odrl3Star&#45;&gt;http://w3id.org/oseg/ont/otrl#ODRL3Star -->
<g id="edge29" class="edge">
<title>http://w3id.org/oseg/ont/otrl#Odrl3Star&#45;&gt;http://w3id.org/oseg/ont/otrl#ODRL3Star</title>
<path fill="none" stroke="black" d="M1681.98,-1420.61C1622.54,-1380.08 1467.22,-1274.21 1400.01,-1228.39"/>
<polygon fill="black" stroke="black" points="1401.74,-1225.33 1391.5,-1222.59 1397.8,-1231.12 1401.74,-1225.33"/>
<text text-anchor="middle" x="1460.99" y="-1328.3" font-family="Times,serif" font-size="14.00">schema:supersededBy</text>
</g>
<!-- http://w3id.org/oseg/ont/otrl#Otrl -->
<g id="node37" class="node">
<title>http://w3id.org/oseg/ont/otrl#Otrl</title>
<ellipse fill="none" stroke="black" cx="439.86" cy="-565.19" rx="183.28" ry="16.03"/>
<text text-anchor="middle" x="439.86" y="-561.49" font-family="Times,serif" font-size="14.00">http://w3id.org/oseg/ont/otrl#Otrl</text>
</g>
<!-- http://w3id.org/oseg/ont/otrl#Otrl&#45;&gt;http://w3id.org/oseg/ont/otrl#OTRL -->
<g id="edge33" class="edge">
<title>http://w3id.org/oseg/ont/otrl#Otrl&#45;&gt;http://w3id.org/oseg/ont/otrl#OTRL</title>
<path fill="none" stroke="black" d="M561.42,-577.41C615.63,-582.86 677.42,-589.07 723.12,-593.66"/>
<polygon fill="black" stroke="black" points="722.9,-597.16 733.2,-594.68 723.6,-590.19 722.9,-597.16"/>
<text text-anchor="middle" x="562.27" y="-589.34" font-family="Times,serif" font-size="14.00">schema:supersededBy</text>
</g>
<!-- http://w3id.org/oseg/ont/otrl#Odrl2 -->
<g id="node38" class="node">
<title>http://w3id.org/oseg/ont/otrl#Odrl2</title>
<ellipse fill="none" stroke="black" cx="1398.89" cy="-1600.92" rx="191.75" ry="16.03"/>
<text text-anchor="middle" x="1398.89" y="-1597.22" font-family="Times,serif" font-size="14.00">http://w3id.org/oseg/ont/otrl#Odrl2</text>
</g>
<!-- http://w3id.org/oseg/ont/otrl#Odrl2&#45;&gt;http://w3id.org/oseg/ont/otrl#ODRL2 -->
<g id="edge39" class="edge">
<title>http://w3id.org/oseg/ont/otrl#Odrl2&#45;&gt;http://w3id.org/oseg/ont/otrl#ODRL2</title>
<path fill="none" stroke="black" d="M1391.11,-1584.26C1366.21,-1530.91 1288.32,-1364.04 1258.29,-1299.71"/>
<polygon fill="black" stroke="black" points="1261.3,-1297.88 1253.9,-1290.3 1254.96,-1300.84 1261.3,-1297.88"/>
<text text-anchor="middle" x="1244.7" y="-1445.78" font-family="Times,serif" font-size="14.00">schema:supersededBy</text>
</g>
<!-- http://w3id.org/oseg/ont/otrl#Odrl5 -->
<g id="node39" class="node">
<title>http://w3id.org/oseg/ont/otrl#Odrl5</title>
<ellipse fill="none" stroke="black" cx="965.63" cy="-1895.57" rx="191.75" ry="16.03"/>
<text text-anchor="middle" x="965.63" y="-1891.87" font-family="Times,serif" font-size="14.00">http://w3id.org/oseg/ont/otrl#Odrl5</text>
</g>
<!-- http://w3id.org/oseg/ont/otrl#Odrl5&#45;&gt;http://w3id.org/oseg/ont/otrl#Odrl4 -->
<g id="edge40" class="edge">
<title>http://w3id.org/oseg/ont/otrl#Odrl5&#45;&gt;http://w3id.org/oseg/ont/otrl#Odrl4</title>
<path fill="none" stroke="black" d="M969.28,-1879.11C981.68,-1823.15 1022.3,-1639.88 1037.56,-1571.04"/>
<polygon fill="black" stroke="black" points="1041.03,-1571.53 1039.78,-1561.01 1034.2,-1570.01 1041.03,-1571.53"/>
<text text-anchor="middle" x="923.42" y="-1728.87" font-family="Times,serif" font-size="14.00">schema:supersededBy</text>
</g>
<!-- http://w3id.org/oseg/ont/otrl#Otrl5 -->
<g id="node40" class="node">
<title>http://w3id.org/oseg/ont/otrl#Otrl5</title>
<ellipse fill="none" stroke="black" cx="189.72" cy="-703.81" rx="189.51" ry="16.03"/>
<text text-anchor="middle" x="189.72" y="-700.11" font-family="Times,serif" font-size="14.00">http://w3id.org/oseg/ont/otrl#Otrl5</text>
</g>
<!-- http://w3id.org/oseg/ont/otrl#Otrl5&#45;&gt;http://w3id.org/oseg/ont/otrl#OTRL5 -->
<g id="edge41" class="edge">
<title>http://w3id.org/oseg/ont/otrl#Otrl5&#45;&gt;http://w3id.org/oseg/ont/otrl#OTRL5</title>
<path fill="none" stroke="black" d="M312.2,-691.38C370.63,-685.45 438.53,-678.56 488.56,-673.49"/>
<polygon fill="black" stroke="black" points="489.04,-676.96 498.64,-672.46 488.33,-669.99 489.04,-676.96"/>
<text text-anchor="middle" x="320.38" y="-671.23" font-family="Times,serif" font-size="14.00">schema:supersededBy</text>
</g>
</g>
</svg>
