<?xml version="1.0" encoding="UTF-8" standalone="no"?>
<!DOCTYPE svg PUBLIC "-//W3C//DTD SVG 1.1//EN"
 "http://www.w3.org/Graphics/SVG/1.1/DTD/svg11.dtd">
<!-- Generated by graphviz version 2.43.0 (0)
 -->
<!-- Title: G Pages: 1 -->
<svg width="1731pt" height="2288pt"
 viewBox="0.00 0.00 1731.00 2288.00" xmlns="http://www.w3.org/2000/svg" xmlns:xlink="http://www.w3.org/1999/xlink">
<g id="graph0" class="graph" transform="scale(1 1) rotate(0) translate(4 2284)">
<title>G</title>
<polygon fill="white" stroke="transparent" points="-4,4 -4,-2284 1727,-2284 1727,4 -4,4"/>
<!-- http://w3id.org/oseg/ont/ods#Dataset -->
<g id="node1" class="node">
<title>http://w3id.org/oseg/ont/ods#Dataset</title>
<ellipse fill="none" stroke="#1f77b4" cx="147.19" cy="-325.77" rx="71.34" ry="16.03"/>
<text text-anchor="middle" x="147.19" y="-322.07" font-family="Times,serif" font-size="14.00">ods:Dataset</text>
</g>
<!-- http://schema.org/DefinedTermSet -->
<g id="node2" class="node">
<title>http://schema.org/DefinedTermSet</title>
<ellipse fill="none" stroke="#1f77b4" cx="365.86" cy="-630.48" rx="116.85" ry="16.03"/>
<text text-anchor="middle" x="365.86" y="-626.78" font-family="Times,serif" font-size="14.00">schema:DefinedTer...</text>
</g>
<!-- http://spdx.org/rdf/terms#SpdxItem -->
<g id="node3" class="node">
<title>http://spdx.org/rdf/terms#SpdxItem</title>
<ellipse fill="none" stroke="#1f77b4" cx="421.13" cy="-16.18" rx="87.86" ry="16.03"/>
<text text-anchor="middle" x="421.13" y="-12.48" font-family="Times,serif" font-size="14.00">spdx:SpdxItem</text>
</g>
<!-- http://schema.org/DefinedTerm -->
<g id="node4" class="node">
<title>http://schema.org/DefinedTerm</title>
<ellipse fill="none" stroke="#1f77b4" cx="1116.36" cy="-1726.69" rx="118.17" ry="16.03"/>
<text text-anchor="middle" x="1116.36" y="-1722.99" font-family="Times,serif" font-size="14.00">schema:DefinedTerm</text>
</g>
<!-- http://spdx.org/licenses/AGPL&#45;3.0&#45;or&#45;later -->
<g id="node5" class="node">
<title>http://spdx.org/licenses/AGPL&#45;3.0&#45;or&#45;later</title>
<ellipse fill="none" stroke="#e377c2" cx="212.28" cy="-45.13" rx="111.95" ry="16.03"/>
<text text-anchor="middle" x="212.28" y="-41.43" font-family="Times,serif" font-size="14.00">spdxl:AGPL&#45;3.0&#45;or...</text>
</g>
<!-- http://w3id.org/oseg/ont/okhimg#slotLogo -->
<g id="node6" class="node">
<title>http://w3id.org/oseg/ont/okhimg#slotLogo</title>
<ellipse fill="none" stroke="#e377c2" cx="1135.22" cy="-2074.52" rx="94.51" ry="16.03"/>
<text text-anchor="middle" x="1135.22" y="-2070.82" font-family="Times,serif" font-size="14.00">okhimg:slotLogo</text>
</g>
<!-- http://w3id.org/oseg/ont/okhimg#slotLogo&#45;&gt;http://schema.org/DefinedTerm -->
<g id="edge2" class="edge">
<title>http://w3id.org/oseg/ont/okhimg#slotLogo&#45;&gt;http://schema.org/DefinedTerm</title>
<path fill="none" stroke="black" d="M1134.34,-2058.21C1131.34,-2002.87 1121.52,-1821.87 1117.8,-1753.32"/>
<polygon fill="black" stroke="black" points="1121.28,-1752.76 1117.24,-1742.96 1114.29,-1753.14 1121.28,-1752.76"/>
<text text-anchor="middle" x="1121.57" y="-1909.57" font-family="Times,serif" font-size="14.00">a</text>
</g>
<!-- http://w3id.org/oseg/ont/okhimg#slotLogoBw -->
<g id="node18" class="node">
<title>http://w3id.org/oseg/ont/okhimg#slotLogoBw</title>
<ellipse fill="none" stroke="#e377c2" cx="1123.26" cy="-1778.97" rx="111.03" ry="16.03"/>
<text text-anchor="middle" x="1123.26" y="-1775.27" font-family="Times,serif" font-size="14.00">okhimg:slotLogoBw</text>
</g>
<!-- http://w3id.org/oseg/ont/okhimg#slotLogo&#45;&gt;http://w3id.org/oseg/ont/okhimg#slotLogoBw -->
<g id="edge15" class="edge">
<title>http://w3id.org/oseg/ont/okhimg#slotLogo&#45;&gt;http://w3id.org/oseg/ont/okhimg#slotLogoBw</title>
<path fill="none" stroke="black" d="M1137.86,-2058.08C1140.21,-2009.37 1134.65,-1865.53 1128.42,-1805.63"/>
<polygon fill="black" stroke="black" points="1131.87,-1804.99 1127.26,-1795.46 1124.92,-1805.79 1131.87,-1804.99"/>
<text text-anchor="middle" x="1105.64" y="-1935.65" font-family="Times,serif" font-size="14.00">seeAlso</text>
</g>
<!-- http://w3id.org/oseg/ont/okhimg -->
<g id="node7" class="node">
<title>http://w3id.org/oseg/ont/okhimg</title>
<ellipse fill="none" stroke="#e377c2" cx="455.09" cy="-352.36" rx="70.01" ry="16.03"/>
<text text-anchor="middle" x="455.09" y="-348.66" font-family="Times,serif" font-size="14.00">ns1:okhimg</text>
</g>
<!-- http://w3id.org/oseg/ont/okhimg&#45;&gt;http://w3id.org/oseg/ont/ods#Dataset -->
<g id="edge49" class="edge">
<title>http://w3id.org/oseg/ont/okhimg&#45;&gt;http://w3id.org/oseg/ont/ods#Dataset</title>
<path fill="none" stroke="black" d="M389.42,-346.69C340.98,-342.51 274.95,-336.81 224.06,-332.41"/>
<polygon fill="black" stroke="black" points="224.36,-328.92 214.09,-331.55 223.75,-335.9 224.36,-328.92"/>
<text text-anchor="middle" x="302.24" y="-343.35" font-family="Times,serif" font-size="14.00">a</text>
</g>
<!-- http://w3id.org/oseg/ont/okhimg&#45;&gt;http://spdx.org/rdf/terms#SpdxItem -->
<g id="edge3" class="edge">
<title>http://w3id.org/oseg/ont/okhimg&#45;&gt;http://spdx.org/rdf/terms#SpdxItem</title>
<path fill="none" stroke="black" d="M453.41,-335.69C447.92,-281.35 430.51,-109.03 423.8,-42.63"/>
<polygon fill="black" stroke="black" points="427.27,-42.16 422.79,-32.56 420.31,-42.86 427.27,-42.16"/>
<text text-anchor="middle" x="434.11" y="-192.96" font-family="Times,serif" font-size="14.00">a</text>
</g>
<!-- http://w3id.org/oseg/ont/okhimg&#45;&gt;http://spdx.org/licenses/AGPL&#45;3.0&#45;or&#45;later -->
<g id="edge1" class="edge">
<title>http://w3id.org/oseg/ont/okhimg&#45;&gt;http://spdx.org/licenses/AGPL&#45;3.0&#45;or&#45;later</title>
<path fill="none" stroke="black" d="M442.38,-336.28C402.4,-285.69 279.05,-129.62 231.37,-69.29"/>
<polygon fill="black" stroke="black" points="234.11,-67.1 225.16,-61.43 228.62,-71.44 234.11,-67.1"/>
<text text-anchor="middle" x="260.87" y="-206.58" font-family="Times,serif" font-size="14.00">spdx:licenseDeclared</text>
</g>
<!-- http://w3id.org/oseg/ont/okhimg#slots -->
<g id="node20" class="node">
<title>http://w3id.org/oseg/ont/okhimg#slots</title>
<ellipse fill="none" stroke="#e377c2" cx="542.2" cy="-773.36" rx="75.82" ry="16.03"/>
<text text-anchor="middle" x="542.2" y="-769.66" font-family="Times,serif" font-size="14.00">okhimg:slots</text>
</g>
<!-- http://w3id.org/oseg/ont/okhimg&#45;&gt;http://w3id.org/oseg/ont/okhimg#slots -->
<g id="edge18" class="edge">
<title>http://w3id.org/oseg/ont/okhimg&#45;&gt;http://w3id.org/oseg/ont/okhimg#slots</title>
<path fill="none" stroke="black" d="M458.45,-368.61C471.68,-432.54 520.23,-667.21 536.7,-746.77"/>
<polygon fill="black" stroke="black" points="533.35,-747.85 538.8,-756.94 540.2,-746.43 533.35,-747.85"/>
<text text-anchor="middle" x="432.57" y="-561.49" font-family="Times,serif" font-size="14.00">void:rootResource</text>
</g>
<!-- http://w3id.org/oseg/ont/okhimg#tags -->
<g id="node23" class="node">
<title>http://w3id.org/oseg/ont/okhimg#tags</title>
<ellipse fill="none" stroke="#e377c2" cx="693.59" cy="-732.27" rx="73.58" ry="16.03"/>
<text text-anchor="middle" x="693.59" y="-728.57" font-family="Times,serif" font-size="14.00">okhimg:tags</text>
</g>
<!-- http://w3id.org/oseg/ont/okhimg&#45;&gt;http://w3id.org/oseg/ont/okhimg#tags -->
<g id="edge21" class="edge">
<title>http://w3id.org/oseg/ont/okhimg&#45;&gt;http://w3id.org/oseg/ont/okhimg#tags</title>
<path fill="none" stroke="black" d="M465.34,-368.69C502.8,-428.36 632.48,-634.92 677.8,-707.12"/>
<polygon fill="black" stroke="black" points="675.1,-709.4 683.38,-716.01 681.03,-705.68 675.1,-709.4"/>
<text text-anchor="middle" x="506.57" y="-541.7" font-family="Times,serif" font-size="14.00">void:rootResource</text>
</g>
<!-- http://id.loc.gov/vocabulary/iso639&#45;1/en -->
<g id="node28" class="node">
<title>http://id.loc.gov/vocabulary/iso639&#45;1/en</title>
<ellipse fill="none" stroke="#e377c2" cx="339.22" cy="-128.4" rx="45.01" ry="16.03"/>
<text text-anchor="middle" x="339.22" y="-124.7" font-family="Times,serif" font-size="14.00">ns2:en</text>
</g>
<!-- http://w3id.org/oseg/ont/okhimg&#45;&gt;http://id.loc.gov/vocabulary/iso639&#45;1/en -->
<g id="edge26" class="edge">
<title>http://w3id.org/oseg/ont/okhimg&#45;&gt;http://id.loc.gov/vocabulary/iso639&#45;1/en</title>
<path fill="none" stroke="black" d="M446.57,-335.89C426.52,-297.13 376.23,-199.93 352.29,-153.65"/>
<polygon fill="black" stroke="black" points="355.3,-151.87 347.6,-144.59 349.09,-155.08 355.3,-151.87"/>
<text text-anchor="middle" x="334.93" y="-248.57" font-family="Times,serif" font-size="14.00">dcterms:language</text>
</g>
<!-- http://w3id.org/oseg/ont/0.1.0/okhimg -->
<g id="node29" class="node">
<title>http://w3id.org/oseg/ont/0.1.0/okhimg</title>
<ellipse fill="none" stroke="#e377c2" cx="677.93" cy="-149.14" rx="70.01" ry="16.03"/>
<text text-anchor="middle" x="677.93" y="-145.44" font-family="Times,serif" font-size="14.00">ns3:okhimg</text>
</g>
<!-- http://w3id.org/oseg/ont/okhimg&#45;&gt;http://w3id.org/oseg/ont/0.1.0/okhimg -->
<g id="edge27" class="edge">
<title>http://w3id.org/oseg/ont/okhimg&#45;&gt;http://w3id.org/oseg/ont/0.1.0/okhimg</title>
<path fill="none" stroke="black" d="M472.58,-336.42C511.87,-300.58 607.29,-213.56 652.88,-171.99"/>
<polygon fill="black" stroke="black" points="655.49,-174.34 660.52,-165.01 650.78,-169.16 655.49,-174.34"/>
<text text-anchor="middle" x="511.23" y="-258" font-family="Times,serif" font-size="14.00">owl:versionIRI</text>
</g>
<!-- http://w3id.org/oseg/ont/oseg&#45;profiles#robinVobruba -->
<g id="node37" class="node">
<title>http://w3id.org/oseg/ont/oseg&#45;profiles#robinVobruba</title>
<ellipse fill="none" stroke="#e377c2" cx="113.64" cy="-170.8" rx="113.69" ry="16.03"/>
<text text-anchor="middle" x="113.64" y="-167.1" font-family="Times,serif" font-size="14.00">osegprof:robinVob...</text>
</g>
<!-- http://w3id.org/oseg/ont/okhimg&#45;&gt;http://w3id.org/oseg/ont/oseg&#45;profiles#robinVobruba -->
<g id="edge40" class="edge">
<title>http://w3id.org/oseg/ont/okhimg&#45;&gt;http://w3id.org/oseg/ont/oseg&#45;profiles#robinVobruba</title>
<path fill="none" stroke="black" d="M433.59,-336.84C379.36,-303.74 236.19,-227.19 161.1,-190.65"/>
<polygon fill="black" stroke="black" points="162.38,-187.39 151.85,-186.19 159.34,-193.69 162.38,-187.39"/>
<text text-anchor="middle" x="354.84" y="-267.55" font-family="Times,serif" font-size="14.00">dcterms:creator</text>
</g>
<!-- http://w3id.org/oseg/ont/okhimg&#45;&gt;http://w3id.org/oseg/ont/oseg&#45;profiles#robinVobruba -->
<g id="edge44" class="edge">
<title>http://w3id.org/oseg/ont/okhimg&#45;&gt;http://w3id.org/oseg/ont/oseg&#45;profiles#robinVobruba</title>
<path fill="none" stroke="black" d="M419.43,-338.19C352.26,-306.3 208.14,-229.65 144.68,-192.06"/>
<polygon fill="black" stroke="black" points="146.3,-188.95 135.92,-186.8 142.7,-194.95 146.3,-188.95"/>
<text text-anchor="middle" x="226.56" y="-268.92" font-family="Times,serif" font-size="14.00">schema:creator</text>
</g>
<!-- http://w3id.org/oseg/ont/oseg&#45;profiles#Iopa -->
<g id="node41" class="node">
<title>http://w3id.org/oseg/ont/oseg&#45;profiles#Iopa</title>
<ellipse fill="none" stroke="#e377c2" cx="616.38" cy="-61.52" rx="80.72" ry="16.03"/>
<text text-anchor="middle" x="616.38" y="-57.82" font-family="Times,serif" font-size="14.00">osegprof:Iopa</text>
</g>
<!-- http://w3id.org/oseg/ont/okhimg&#45;&gt;http://w3id.org/oseg/ont/oseg&#45;profiles#Iopa -->
<g id="edge46" class="edge">
<title>http://w3id.org/oseg/ont/okhimg&#45;&gt;http://w3id.org/oseg/ont/oseg&#45;profiles#Iopa</title>
<path fill="none" stroke="black" d="M464.22,-335.89C491.12,-287.4 570.14,-144.91 602.41,-86.71"/>
<polygon fill="black" stroke="black" points="605.56,-88.25 607.35,-77.81 599.44,-84.86 605.56,-88.25"/>
<text text-anchor="middle" x="467.82" y="-215.1" font-family="Times,serif" font-size="14.00">dcterms:publisher</text>
</g>
<!-- http://w3id.org/oseg/ont/okhimg#slotSymbol -->
<g id="node8" class="node">
<title>http://w3id.org/oseg/ont/okhimg#slotSymbol</title>
<ellipse fill="none" stroke="#e377c2" cx="838.08" cy="-1465.16" rx="108.38" ry="16.03"/>
<text text-anchor="middle" x="838.08" y="-1461.46" font-family="Times,serif" font-size="14.00">okhimg:slotSymbol</text>
</g>
<!-- http://w3id.org/oseg/ont/okhimg#slotSymbol&#45;&gt;http://schema.org/DefinedTerm -->
<g id="edge4" class="edge">
<title>http://w3id.org/oseg/ont/okhimg#slotSymbol&#45;&gt;http://schema.org/DefinedTerm</title>
<path fill="none" stroke="black" d="M855.49,-1481.52C903.12,-1526.28 1035.74,-1650.92 1091.33,-1703.17"/>
<polygon fill="black" stroke="black" points="1089.27,-1706.03 1098.96,-1710.33 1094.07,-1700.93 1089.27,-1706.03"/>
<text text-anchor="middle" x="968.91" y="-1596.14" font-family="Times,serif" font-size="14.00">a</text>
</g>
<!-- http://w3id.org/oseg/ont/okhimg#slotIconMain -->
<g id="node9" class="node">
<title>http://w3id.org/oseg/ont/okhimg#slotIconMain</title>
<ellipse fill="none" stroke="#e377c2" cx="773.2" cy="-1237.39" rx="117.26" ry="16.03"/>
<text text-anchor="middle" x="773.2" y="-1233.69" font-family="Times,serif" font-size="14.00">okhimg:slotIconMain</text>
</g>
<!-- http://w3id.org/oseg/ont/okhimg#slotIconMain&#45;&gt;http://schema.org/DefinedTerm -->
<g id="edge5" class="edge">
<title>http://w3id.org/oseg/ont/okhimg#slotIconMain&#45;&gt;http://schema.org/DefinedTerm</title>
<path fill="none" stroke="black" d="M784.62,-1253.67C835.05,-1325.58 1038.03,-1615.01 1098.97,-1701.9"/>
<polygon fill="black" stroke="black" points="1096.29,-1704.17 1104.9,-1710.35 1102.02,-1700.15 1096.29,-1704.17"/>
<text text-anchor="middle" x="946.29" y="-1481.59" font-family="Times,serif" font-size="14.00">a</text>
</g>
<!-- http://w3id.org/oseg/ont/okhimg#slotIconMainBw -->
<g id="node27" class="node">
<title>http://w3id.org/oseg/ont/okhimg#slotIconMainBw</title>
<ellipse fill="none" stroke="#e377c2" cx="706.64" cy="-1543.79" rx="117.26" ry="16.03"/>
<text text-anchor="middle" x="706.64" y="-1540.09" font-family="Times,serif" font-size="14.00">okhimg:slotIconMa...</text>
</g>
<!-- http://w3id.org/oseg/ont/okhimg#slotIconMain&#45;&gt;http://w3id.org/oseg/ont/okhimg#slotIconMainBw -->
<g id="edge25" class="edge">
<title>http://w3id.org/oseg/ont/okhimg#slotIconMain&#45;&gt;http://w3id.org/oseg/ont/okhimg#slotIconMainBw</title>
<path fill="none" stroke="black" d="M766.17,-1254.04C750.77,-1304.47 717.69,-1455.84 708.35,-1517.36"/>
<polygon fill="black" stroke="black" points="704.86,-1517.04 706.93,-1527.43 711.79,-1518.02 704.86,-1517.04"/>
<text text-anchor="middle" x="709.76" y="-1389.5" font-family="Times,serif" font-size="14.00">seeAlso</text>
</g>
<!-- http://w3id.org/oseg/ont/okhimg#slotOrganizationLogoBw -->
<g id="node10" class="node">
<title>http://w3id.org/oseg/ont/okhimg#slotOrganizationLogoBw</title>
<ellipse fill="none" stroke="#e377c2" cx="1523.07" cy="-1719.02" rx="114.6" ry="16.03"/>
<text text-anchor="middle" x="1523.07" y="-1715.32" font-family="Times,serif" font-size="14.00">okhimg:slotOrgani...</text>
</g>
<!-- http://w3id.org/oseg/ont/okhimg#slotOrganizationLogoBw&#45;&gt;http://schema.org/DefinedTerm -->
<g id="edge6" class="edge">
<title>http://w3id.org/oseg/ont/okhimg#slotOrganizationLogoBw&#45;&gt;http://schema.org/DefinedTerm</title>
<path fill="none" stroke="black" d="M1409.5,-1721.16C1357.95,-1722.13 1296.76,-1723.28 1243.66,-1724.29"/>
<polygon fill="black" stroke="black" points="1243.43,-1720.79 1233.49,-1724.48 1243.56,-1727.79 1243.43,-1720.79"/>
<text text-anchor="middle" x="1322.08" y="-1726.52" font-family="Times,serif" font-size="14.00">a</text>
</g>
<!-- http://w3id.org/oseg/ont/okhimg#slotOrganizationLogo -->
<g id="node21" class="node">
<title>http://w3id.org/oseg/ont/okhimg#slotOrganizationLogo</title>
<ellipse fill="none" stroke="#e377c2" cx="1587.91" cy="-1777.55" rx="114.6" ry="16.03"/>
<text text-anchor="middle" x="1587.91" y="-1773.85" font-family="Times,serif" font-size="14.00">okhimg:slotOrgani...</text>
</g>
<!-- http://w3id.org/oseg/ont/okhimg#slotOrganizationLogoBw&#45;&gt;http://w3id.org/oseg/ont/okhimg#slotOrganizationLogo -->
<g id="edge19" class="edge">
<title>http://w3id.org/oseg/ont/okhimg#slotOrganizationLogoBw&#45;&gt;http://w3id.org/oseg/ont/okhimg#slotOrganizationLogo</title>
<path fill="none" stroke="black" d="M1532.75,-1735.3C1538.24,-1741.38 1545.39,-1748.35 1552.73,-1754.88"/>
<polygon fill="black" stroke="black" points="1550.83,-1757.86 1560.7,-1761.72 1555.39,-1752.55 1550.83,-1757.86"/>
<text text-anchor="middle" x="1515.24" y="-1748.89" font-family="Times,serif" font-size="14.00">seeAlso</text>
</g>
<!-- http://w3id.org/oseg/ont/okhimg#slotModelFromRight -->
<g id="node11" class="node">
<title>http://w3id.org/oseg/ont/okhimg#slotModelFromRight</title>
<ellipse fill="none" stroke="#e377c2" cx="1333.61" cy="-1455.7" rx="116.85" ry="16.03"/>
<text text-anchor="middle" x="1333.61" y="-1452" font-family="Times,serif" font-size="14.00">okhimg:slotModelF...</text>
</g>
<!-- http://w3id.org/oseg/ont/okhimg#slotModelFromRight&#45;&gt;http://schema.org/DefinedTerm -->
<g id="edge7" class="edge">
<title>http://w3id.org/oseg/ont/okhimg#slotModelFromRight&#45;&gt;http://schema.org/DefinedTerm</title>
<path fill="none" stroke="black" d="M1320.34,-1472.24C1283.44,-1518.27 1179.42,-1648.02 1135.89,-1702.32"/>
<polygon fill="black" stroke="black" points="1132.97,-1700.37 1129.45,-1710.36 1138.43,-1704.75 1132.97,-1700.37"/>
<text text-anchor="middle" x="1223.62" y="-1591.08" font-family="Times,serif" font-size="14.00">a</text>
</g>
<!-- http://w3id.org/oseg/ont/okhimg#tagGray -->
<g id="node12" class="node">
<title>http://w3id.org/oseg/ont/okhimg#tagGray</title>
<ellipse fill="none" stroke="#e377c2" cx="1320.32" cy="-1358.12" rx="92.76" ry="16.03"/>
<text text-anchor="middle" x="1320.32" y="-1354.42" font-family="Times,serif" font-size="14.00">okhimg:tagGray</text>
</g>
<!-- http://w3id.org/oseg/ont/okhimg#tagGray&#45;&gt;http://schema.org/DefinedTerm -->
<g id="edge8" class="edge">
<title>http://w3id.org/oseg/ont/okhimg#tagGray&#45;&gt;http://schema.org/DefinedTerm</title>
<path fill="none" stroke="black" d="M1311.29,-1374.43C1279.11,-1432.57 1169.86,-1630 1130.57,-1700.99"/>
<polygon fill="black" stroke="black" points="1127.29,-1699.7 1125.51,-1710.14 1133.42,-1703.09 1127.29,-1699.7"/>
<text text-anchor="middle" x="1216.43" y="-1541.51" font-family="Times,serif" font-size="14.00">a</text>
</g>
<!-- http://w3id.org/oseg/ont/okhimg#slotPhotoThingMain -->
<g id="node13" class="node">
<title>http://w3id.org/oseg/ont/okhimg#slotPhotoThingMain</title>
<ellipse fill="none" stroke="#e377c2" cx="1598.17" cy="-1899.25" rx="114.6" ry="16.03"/>
<text text-anchor="middle" x="1598.17" y="-1895.55" font-family="Times,serif" font-size="14.00">okhimg:slotPhotoT...</text>
</g>
<!-- http://w3id.org/oseg/ont/okhimg#slotPhotoThingMain&#45;&gt;http://schema.org/DefinedTerm -->
<g id="edge9" class="edge">
<title>http://w3id.org/oseg/ont/okhimg#slotPhotoThingMain&#45;&gt;http://schema.org/DefinedTerm</title>
<path fill="none" stroke="black" d="M1555.84,-1884.09C1467.59,-1852.48 1264.22,-1779.64 1168.27,-1745.28"/>
<polygon fill="black" stroke="black" points="1169.36,-1741.95 1158.77,-1741.88 1167,-1748.54 1169.36,-1741.95"/>
<text text-anchor="middle" x="1357.55" y="-1818.48" font-family="Times,serif" font-size="14.00">a</text>
</g>
<!-- http://w3id.org/oseg/ont/okhimg#tagBw -->
<g id="node14" class="node">
<title>http://w3id.org/oseg/ont/okhimg#tagBw</title>
<ellipse fill="none" stroke="#e377c2" cx="935.83" cy="-2085.19" rx="84.29" ry="16.03"/>
<text text-anchor="middle" x="935.83" y="-2081.49" font-family="Times,serif" font-size="14.00">okhimg:tagBw</text>
</g>
<!-- http://w3id.org/oseg/ont/okhimg#tagBw&#45;&gt;http://schema.org/DefinedTerm -->
<g id="edge10" class="edge">
<title>http://w3id.org/oseg/ont/okhimg#tagBw&#45;&gt;http://schema.org/DefinedTerm</title>
<path fill="none" stroke="black" d="M944.06,-2068.85C972.72,-2011.93 1068.36,-1822 1103.37,-1752.47"/>
<polygon fill="black" stroke="black" points="1106.71,-1753.62 1108.08,-1743.12 1100.46,-1750.47 1106.71,-1753.62"/>
<text text-anchor="middle" x="1019.21" y="-1914.46" font-family="Times,serif" font-size="14.00">a</text>
</g>
<!-- http://w3id.org/oseg/ont/okhimg#tagPhoto -->
<g id="node15" class="node">
<title>http://w3id.org/oseg/ont/okhimg#tagPhoto</title>
<ellipse fill="none" stroke="#e377c2" cx="1336.03" cy="-2096.71" rx="97.66" ry="16.03"/>
<text text-anchor="middle" x="1336.03" y="-2093.01" font-family="Times,serif" font-size="14.00">okhimg:tagPhoto</text>
</g>
<!-- http://w3id.org/oseg/ont/okhimg#tagPhoto&#45;&gt;http://schema.org/DefinedTerm -->
<g id="edge11" class="edge">
<title>http://w3id.org/oseg/ont/okhimg#tagPhoto&#45;&gt;http://schema.org/DefinedTerm</title>
<path fill="none" stroke="black" d="M1326.31,-2080.33C1291.58,-2021.83 1173.5,-1822.94 1131.41,-1752.04"/>
<polygon fill="black" stroke="black" points="1134.33,-1750.11 1126.22,-1743.29 1128.31,-1753.68 1134.33,-1750.11"/>
<text text-anchor="middle" x="1224.36" y="-1919.99" font-family="Times,serif" font-size="14.00">a</text>
</g>
<!-- http://w3id.org/oseg/ont/okhimg#slotModelFromBelow -->
<g id="node16" class="node">
<title>http://w3id.org/oseg/ont/okhimg#slotModelFromBelow</title>
<ellipse fill="none" stroke="#e377c2" cx="1206.69" cy="-1292.96" rx="116.85" ry="16.03"/>
<text text-anchor="middle" x="1206.69" y="-1289.26" font-family="Times,serif" font-size="14.00">okhimg:slotModelF...</text>
</g>
<!-- http://w3id.org/oseg/ont/okhimg#slotModelFromBelow&#45;&gt;http://schema.org/DefinedTerm -->
<g id="edge12" class="edge">
<title>http://w3id.org/oseg/ont/okhimg#slotModelFromBelow&#45;&gt;http://schema.org/DefinedTerm</title>
<path fill="none" stroke="black" d="M1203.26,-1309.44C1189.57,-1375.19 1138.75,-1619.19 1121.85,-1700.29"/>
<polygon fill="black" stroke="black" points="1118.4,-1699.69 1119.79,-1710.2 1125.26,-1701.12 1118.4,-1699.69"/>
<text text-anchor="middle" x="1158.06" y="-1508.66" font-family="Times,serif" font-size="14.00">a</text>
</g>
<!-- http://w3id.org/oseg/ont/okhimg#slotModelFromBack -->
<g id="node17" class="node">
<title>http://w3id.org/oseg/ont/okhimg#slotModelFromBack</title>
<ellipse fill="none" stroke="#e377c2" cx="1606.36" cy="-1621.33" rx="116.85" ry="16.03"/>
<text text-anchor="middle" x="1606.36" y="-1617.63" font-family="Times,serif" font-size="14.00">okhimg:slotModelF...</text>
</g>
<!-- http://w3id.org/oseg/ont/okhimg#slotModelFromBack&#45;&gt;http://schema.org/DefinedTerm -->
<g id="edge13" class="edge">
<title>http://w3id.org/oseg/ont/okhimg#slotModelFromBack&#45;&gt;http://schema.org/DefinedTerm</title>
<path fill="none" stroke="black" d="M1542.8,-1634.99C1452.14,-1654.49 1286.07,-1690.19 1190.11,-1710.83"/>
<polygon fill="black" stroke="black" points="1189.23,-1707.44 1180.19,-1712.96 1190.7,-1714.28 1189.23,-1707.44"/>
<text text-anchor="middle" x="1361.95" y="-1676.71" font-family="Times,serif" font-size="14.00">a</text>
</g>
<!-- http://w3id.org/oseg/ont/okhimg#slotLogoBw&#45;&gt;http://schema.org/DefinedTerm -->
<g id="edge14" class="edge">
<title>http://w3id.org/oseg/ont/okhimg#slotLogoBw&#45;&gt;http://schema.org/DefinedTerm</title>
<path fill="none" stroke="black" d="M1121.07,-1762.43C1120.7,-1759.56 1120.29,-1756.53 1119.89,-1753.48"/>
<polygon fill="black" stroke="black" points="1123.33,-1752.76 1118.55,-1743.3 1116.39,-1753.67 1123.33,-1752.76"/>
<text text-anchor="middle" x="1115.98" y="-1746.75" font-family="Times,serif" font-size="14.00">a</text>
</g>
<!-- http://w3id.org/oseg/ont/okhimg#slotLogoBw&#45;&gt;http://w3id.org/oseg/ont/okhimg#slotLogo -->
<g id="edge35" class="edge">
<title>http://w3id.org/oseg/ont/okhimg#slotLogoBw&#45;&gt;http://w3id.org/oseg/ont/okhimg#slotLogo</title>
<path fill="none" stroke="black" d="M1120.62,-1795.41C1118.27,-1844.12 1123.83,-1987.96 1130.06,-2047.87"/>
<polygon fill="black" stroke="black" points="1126.61,-2048.5 1131.23,-2058.03 1133.56,-2047.7 1126.61,-2048.5"/>
<text text-anchor="middle" x="1152.84" y="-1910.44" font-family="Times,serif" font-size="14.00">seeAlso</text>
</g>
<!-- http://w3id.org/oseg/ont/okhimg#slotModelFromAbove -->
<g id="node19" class="node">
<title>http://w3id.org/oseg/ont/okhimg#slotModelFromAbove</title>
<ellipse fill="none" stroke="#e377c2" cx="657.12" cy="-1870.32" rx="116.85" ry="16.03"/>
<text text-anchor="middle" x="657.12" y="-1866.62" font-family="Times,serif" font-size="14.00">okhimg:slotModelF...</text>
</g>
<!-- http://w3id.org/oseg/ont/okhimg#slotModelFromAbove&#45;&gt;http://schema.org/DefinedTerm -->
<g id="edge16" class="edge">
<title>http://w3id.org/oseg/ont/okhimg#slotModelFromAbove&#45;&gt;http://schema.org/DefinedTerm</title>
<path fill="none" stroke="black" d="M704.97,-1855.36C790.08,-1828.74 967.44,-1773.26 1058.96,-1744.64"/>
<polygon fill="black" stroke="black" points="1060.12,-1747.94 1068.62,-1741.62 1058.03,-1741.26 1060.12,-1747.94"/>
<text text-anchor="middle" x="877.47" y="-1803.8" font-family="Times,serif" font-size="14.00">a</text>
</g>
<!-- http://w3id.org/oseg/ont/okhimg#slots&#45;&gt;http://schema.org/DefinedTermSet -->
<g id="edge17" class="edge">
<title>http://w3id.org/oseg/ont/okhimg#slots&#45;&gt;http://schema.org/DefinedTermSet</title>
<path fill="none" stroke="black" d="M522.65,-757.52C491.36,-732.16 429.87,-682.34 393.89,-653.19"/>
<polygon fill="black" stroke="black" points="395.74,-650.18 385.76,-646.61 391.33,-655.62 395.74,-650.18"/>
<text text-anchor="middle" x="453.77" y="-709.16" font-family="Times,serif" font-size="14.00">a</text>
</g>
<!-- http://w3id.org/oseg/ont/okhimg#slots&#45;&gt;http://w3id.org/oseg/ont/okhimg#slotIconMain -->
<g id="edge36" class="edge">
<title>http://w3id.org/oseg/ont/okhimg#slots&#45;&gt;http://w3id.org/oseg/ont/okhimg#slotIconMain</title>
<path fill="none" stroke="black" d="M550.28,-789.6C584.62,-858.58 718.5,-1127.51 760.51,-1211.91"/>
<polygon fill="black" stroke="black" points="757.47,-1213.65 765.06,-1221.04 763.73,-1210.53 757.47,-1213.65"/>
<text text-anchor="middle" x="567.9" y="-1004.56" font-family="Times,serif" font-size="14.00">schema:hasDefinedTerm</text>
</g>
<!-- http://w3id.org/oseg/ont/okhimg#slotOrganizationLogo&#45;&gt;http://schema.org/DefinedTerm -->
<g id="edge29" class="edge">
<title>http://w3id.org/oseg/ont/okhimg#slotOrganizationLogo&#45;&gt;http://schema.org/DefinedTerm</title>
<path fill="none" stroke="black" d="M1496.43,-1767.68C1417.11,-1759.13 1302.39,-1746.75 1219.76,-1737.84"/>
<polygon fill="black" stroke="black" points="1219.91,-1734.34 1209.6,-1736.74 1219.16,-1741.3 1219.91,-1734.34"/>
<text text-anchor="middle" x="1353.6" y="-1756.56" font-family="Times,serif" font-size="14.00">a</text>
</g>
<!-- http://w3id.org/oseg/ont/okhimg#slotOrganizationLogo&#45;&gt;http://w3id.org/oseg/ont/okhimg#slotOrganizationLogoBw -->
<g id="edge31" class="edge">
<title>http://w3id.org/oseg/ont/okhimg#slotOrganizationLogo&#45;&gt;http://w3id.org/oseg/ont/okhimg#slotOrganizationLogoBw</title>
<path fill="none" stroke="black" d="M1578.22,-1761.27C1572.74,-1755.19 1565.58,-1748.22 1558.25,-1741.69"/>
<polygon fill="black" stroke="black" points="1560.15,-1738.71 1550.28,-1734.85 1555.58,-1744.02 1560.15,-1738.71"/>
<text text-anchor="middle" x="1595.73" y="-1740.28" font-family="Times,serif" font-size="14.00">seeAlso</text>
</g>
<!-- http://w3id.org/oseg/ont/okhimg#tagLogo -->
<g id="node22" class="node">
<title>http://w3id.org/oseg/ont/okhimg#tagLogo</title>
<ellipse fill="none" stroke="#e377c2" cx="763.69" cy="-1699.97" rx="92.76" ry="16.03"/>
<text text-anchor="middle" x="763.69" y="-1696.27" font-family="Times,serif" font-size="14.00">okhimg:tagLogo</text>
</g>
<!-- http://w3id.org/oseg/ont/okhimg#tagLogo&#45;&gt;http://schema.org/DefinedTerm -->
<g id="edge20" class="edge">
<title>http://w3id.org/oseg/ont/okhimg#tagLogo&#45;&gt;http://schema.org/DefinedTerm</title>
<path fill="none" stroke="black" d="M849.06,-1706.44C895.12,-1709.93 952.58,-1714.28 1002.41,-1718.05"/>
<polygon fill="black" stroke="black" points="1002.35,-1721.56 1012.59,-1718.83 1002.88,-1714.58 1002.35,-1721.56"/>
<text text-anchor="middle" x="921.23" y="-1716.05" font-family="Times,serif" font-size="14.00">a</text>
</g>
<!-- http://w3id.org/oseg/ont/okhimg#tags&#45;&gt;http://schema.org/DefinedTermSet -->
<g id="edge34" class="edge">
<title>http://w3id.org/oseg/ont/okhimg#tags&#45;&gt;http://schema.org/DefinedTermSet</title>
<path fill="none" stroke="black" d="M650.75,-718.96C592.57,-700.89 488.42,-668.54 423.45,-648.37"/>
<polygon fill="black" stroke="black" points="424.36,-644.98 413.77,-645.36 422.28,-651.67 424.36,-644.98"/>
<text text-anchor="middle" x="532.6" y="-687.46" font-family="Times,serif" font-size="14.00">a</text>
</g>
<!-- http://w3id.org/oseg/ont/okhimg#tagArt -->
<g id="node25" class="node">
<title>http://w3id.org/oseg/ont/okhimg#tagArt</title>
<ellipse fill="none" stroke="#e377c2" cx="908.43" cy="-1180.78" rx="84.29" ry="16.03"/>
<text text-anchor="middle" x="908.43" y="-1177.08" font-family="Times,serif" font-size="14.00">okhimg:tagArt</text>
</g>
<!-- http://w3id.org/oseg/ont/okhimg#tags&#45;&gt;http://w3id.org/oseg/ont/okhimg#tagArt -->
<g id="edge48" class="edge">
<title>http://w3id.org/oseg/ont/okhimg#tags&#45;&gt;http://w3id.org/oseg/ont/okhimg#tagArt</title>
<path fill="none" stroke="black" d="M701.37,-748.5C733.61,-815.8 856.96,-1073.32 896.3,-1155.45"/>
<polygon fill="black" stroke="black" points="893.19,-1157.07 900.67,-1164.57 899.5,-1154.04 893.19,-1157.07"/>
<text text-anchor="middle" x="711.33" y="-955.77" font-family="Times,serif" font-size="14.00">schema:hasDefinedTerm</text>
</g>
<!-- http://w3id.org/oseg/ont/okhimg#tagColor -->
<g id="node24" class="node">
<title>http://w3id.org/oseg/ont/okhimg#tagColor</title>
<ellipse fill="none" stroke="#e377c2" cx="1055.92" cy="-1372.73" rx="95.42" ry="16.03"/>
<text text-anchor="middle" x="1055.92" y="-1369.03" font-family="Times,serif" font-size="14.00">okhimg:tagColor</text>
</g>
<!-- http://w3id.org/oseg/ont/okhimg#tagColor&#45;&gt;http://schema.org/DefinedTerm -->
<g id="edge22" class="edge">
<title>http://w3id.org/oseg/ont/okhimg#tagColor&#45;&gt;http://schema.org/DefinedTerm</title>
<path fill="none" stroke="black" d="M1058.76,-1389.33C1068.39,-1445.76 1099.95,-1630.59 1111.8,-1700.01"/>
<polygon fill="black" stroke="black" points="1108.4,-1700.86 1113.53,-1710.12 1115.3,-1699.68 1108.4,-1700.86"/>
<text text-anchor="middle" x="1080.78" y="-1548.47" font-family="Times,serif" font-size="14.00">a</text>
</g>
<!-- http://w3id.org/oseg/ont/okhimg#tagArt&#45;&gt;http://schema.org/DefinedTerm -->
<g id="edge23" class="edge">
<title>http://w3id.org/oseg/ont/okhimg#tagArt&#45;&gt;http://schema.org/DefinedTerm</title>
<path fill="none" stroke="black" d="M914.65,-1197.12C944.18,-1274.66 1070.28,-1605.73 1106.56,-1700.96"/>
<polygon fill="black" stroke="black" points="1103.33,-1702.31 1110.16,-1710.41 1109.87,-1699.82 1103.33,-1702.31"/>
<text text-anchor="middle" x="1006.11" y="-1452.84" font-family="Times,serif" font-size="14.00">a</text>
</g>
<!-- http://w3id.org/oseg/ont/okhimg#tagDiagram -->
<g id="node26" class="node">
<title>http://w3id.org/oseg/ont/okhimg#tagDiagram</title>
<ellipse fill="none" stroke="#e377c2" cx="811.17" cy="-2132.48" rx="111.95" ry="16.03"/>
<text text-anchor="middle" x="811.17" y="-2128.78" font-family="Times,serif" font-size="14.00">okhimg:tagDiagram</text>
</g>
<!-- http://w3id.org/oseg/ont/okhimg#tagDiagram&#45;&gt;http://schema.org/DefinedTerm -->
<g id="edge24" class="edge">
<title>http://w3id.org/oseg/ont/okhimg#tagDiagram&#45;&gt;http://schema.org/DefinedTerm</title>
<path fill="none" stroke="black" d="M823.52,-2116.07C870.87,-2053.1 1041.11,-1826.75 1097.82,-1751.33"/>
<polygon fill="black" stroke="black" points="1100.65,-1753.4 1103.86,-1743.3 1095.05,-1749.19 1100.65,-1753.4"/>
<text text-anchor="middle" x="956.17" y="-1937.5" font-family="Times,serif" font-size="14.00">a</text>
</g>
<!-- http://w3id.org/oseg/ont/okhimg#slotIconMainBw&#45;&gt;http://schema.org/DefinedTerm -->
<g id="edge47" class="edge">
<title>http://w3id.org/oseg/ont/okhimg#slotIconMainBw&#45;&gt;http://schema.org/DefinedTerm</title>
<path fill="none" stroke="black" d="M741.58,-1559.38C815.96,-1592.59 989.88,-1670.23 1071.97,-1706.87"/>
<polygon fill="black" stroke="black" points="1070.95,-1710.25 1081.51,-1711.13 1073.81,-1703.86 1070.95,-1710.25"/>
<text text-anchor="middle" x="902.27" y="-1636.93" font-family="Times,serif" font-size="14.00">a</text>
</g>
<!-- http://w3id.org/oseg/ont/okhimg#slotIconMainBw&#45;&gt;http://w3id.org/oseg/ont/okhimg#slotIconMain -->
<g id="edge41" class="edge">
<title>http://w3id.org/oseg/ont/okhimg#slotIconMainBw&#45;&gt;http://w3id.org/oseg/ont/okhimg#slotIconMain</title>
<path fill="none" stroke="black" d="M713.68,-1527.14C729.07,-1476.71 762.15,-1325.34 771.5,-1263.82"/>
<polygon fill="black" stroke="black" points="774.98,-1264.14 772.91,-1253.75 768.05,-1263.16 774.98,-1264.14"/>
<text text-anchor="middle" x="770.09" y="-1399.28" font-family="Times,serif" font-size="14.00">seeAlso</text>
</g>
<!-- http://w3id.org/oseg/ont/okhimg#slotSocial -->
<g id="node30" class="node">
<title>http://w3id.org/oseg/ont/okhimg#slotSocial</title>
<ellipse fill="none" stroke="#e377c2" cx="1242.02" cy="-2192.01" rx="101.23" ry="16.03"/>
<text text-anchor="middle" x="1242.02" y="-2188.31" font-family="Times,serif" font-size="14.00">okhimg:slotSocial</text>
</g>
<!-- http://w3id.org/oseg/ont/okhimg#slotSocial&#45;&gt;http://schema.org/DefinedTerm -->
<g id="edge28" class="edge">
<title>http://w3id.org/oseg/ont/okhimg#slotSocial&#45;&gt;http://schema.org/DefinedTerm</title>
<path fill="none" stroke="black" d="M1237.62,-2175.72C1218.98,-2106.7 1146.41,-1837.97 1123.4,-1752.76"/>
<polygon fill="black" stroke="black" points="1126.77,-1751.82 1120.78,-1743.08 1120.01,-1753.65 1126.77,-1751.82"/>
<text text-anchor="middle" x="1176.01" y="-1968.04" font-family="Times,serif" font-size="14.00">a</text>
</g>
<!-- http://w3id.org/oseg/ont/okhimg#tagScreenshot -->
<g id="node31" class="node">
<title>http://w3id.org/oseg/ont/okhimg#tagScreenshot</title>
<ellipse fill="none" stroke="#e377c2" cx="1115.68" cy="-2263.77" rx="125.32" ry="16.03"/>
<text text-anchor="middle" x="1115.68" y="-2260.07" font-family="Times,serif" font-size="14.00">okhimg:tagScreenshot</text>
</g>
<!-- http://w3id.org/oseg/ont/okhimg#tagScreenshot&#45;&gt;http://schema.org/DefinedTerm -->
<g id="edge30" class="edge">
<title>http://w3id.org/oseg/ont/okhimg#tagScreenshot&#45;&gt;http://schema.org/DefinedTerm</title>
<path fill="none" stroke="black" d="M1115.7,-2247.4C1115.8,-2170.96 1116.2,-1848.85 1116.32,-1753.43"/>
<polygon fill="black" stroke="black" points="1119.82,-1753.19 1116.34,-1743.19 1112.82,-1753.18 1119.82,-1753.19"/>
<text text-anchor="middle" x="1111.51" y="-2004.21" font-family="Times,serif" font-size="14.00">a</text>
</g>
<!-- http://w3id.org/oseg/ont/okhimg#slotModelMain -->
<g id="node32" class="node">
<title>http://w3id.org/oseg/ont/okhimg#slotModelMain</title>
<ellipse fill="none" stroke="#e377c2" cx="623.25" cy="-1742.55" rx="127.06" ry="16.03"/>
<text text-anchor="middle" x="623.25" y="-1738.85" font-family="Times,serif" font-size="14.00">okhimg:slotModelMain</text>
</g>
<!-- http://w3id.org/oseg/ont/okhimg#slotModelMain&#45;&gt;http://schema.org/DefinedTerm -->
<g id="edge32" class="edge">
<title>http://w3id.org/oseg/ont/okhimg#slotModelMain&#45;&gt;http://schema.org/DefinedTerm</title>
<path fill="none" stroke="black" d="M746.73,-1738.58C821.25,-1736.18 915.94,-1733.13 990.82,-1730.73"/>
<polygon fill="black" stroke="black" points="991.37,-1734.21 1001.25,-1730.39 991.15,-1727.21 991.37,-1734.21"/>
<text text-anchor="middle" x="864.27" y="-1738.45" font-family="Times,serif" font-size="14.00">a</text>
</g>
<!-- http://w3id.org/oseg/ont/okhimg#slotPhotoPackaging -->
<g id="node33" class="node">
<title>http://w3id.org/oseg/ont/okhimg#slotPhotoPackaging</title>
<ellipse fill="none" stroke="#e377c2" cx="1520.1" cy="-1535.97" rx="113.69" ry="16.03"/>
<text text-anchor="middle" x="1520.1" y="-1532.27" font-family="Times,serif" font-size="14.00">okhimg:slotPhotoP...</text>
</g>
<!-- http://w3id.org/oseg/ont/okhimg#slotPhotoPackaging&#45;&gt;http://schema.org/DefinedTerm -->
<g id="edge33" class="edge">
<title>http://w3id.org/oseg/ont/okhimg#slotPhotoPackaging&#45;&gt;http://schema.org/DefinedTerm</title>
<path fill="none" stroke="black" d="M1487.06,-1551.58C1414.21,-1585.99 1239.88,-1668.34 1158.96,-1706.56"/>
<polygon fill="black" stroke="black" points="1157.12,-1703.56 1149.57,-1711 1160.11,-1709.89 1157.12,-1703.56"/>
<text text-anchor="middle" x="1318.51" y="-1632.87" font-family="Times,serif" font-size="14.00">a</text>
</g>
<!-- http://w3id.org/oseg/ont/okhimg#slotModelFromLeft -->
<g id="node34" class="node">
<title>http://w3id.org/oseg/ont/okhimg#slotModelFromLeft</title>
<ellipse fill="none" stroke="#e377c2" cx="1435.27" cy="-2148.41" rx="116.85" ry="16.03"/>
<text text-anchor="middle" x="1435.27" y="-2144.71" font-family="Times,serif" font-size="14.00">okhimg:slotModelF...</text>
</g>
<!-- http://w3id.org/oseg/ont/okhimg#slotModelFromLeft&#45;&gt;http://schema.org/DefinedTerm -->
<g id="edge37" class="edge">
<title>http://w3id.org/oseg/ont/okhimg#slotModelFromLeft&#45;&gt;http://schema.org/DefinedTerm</title>
<path fill="none" stroke="black" d="M1422.97,-2132.14C1374.14,-2067.57 1193.85,-1829.16 1135.04,-1751.4"/>
<polygon fill="black" stroke="black" points="1137.62,-1749 1128.8,-1743.14 1132.04,-1753.23 1137.62,-1749"/>
<text text-anchor="middle" x="1274.5" y="-1945.57" font-family="Times,serif" font-size="14.00">a</text>
</g>
<!-- http://w3id.org/oseg/ont/okhimg#tagAssembly -->
<g id="node35" class="node">
<title>http://w3id.org/oseg/ont/okhimg#tagAssembly</title>
<ellipse fill="none" stroke="#e377c2" cx="1444.98" cy="-1944.94" rx="116.85" ry="16.03"/>
<text text-anchor="middle" x="1444.98" y="-1941.24" font-family="Times,serif" font-size="14.00">okhimg:tagAssembly</text>
</g>
<!-- http://w3id.org/oseg/ont/okhimg#tagAssembly&#45;&gt;http://schema.org/DefinedTerm -->
<g id="edge38" class="edge">
<title>http://w3id.org/oseg/ont/okhimg#tagAssembly&#45;&gt;http://schema.org/DefinedTerm</title>
<path fill="none" stroke="black" d="M1420.82,-1928.89C1362.66,-1890.27 1214.82,-1792.08 1148.92,-1748.31"/>
<polygon fill="black" stroke="black" points="1150.82,-1745.38 1140.56,-1742.76 1146.95,-1751.21 1150.82,-1745.38"/>
<text text-anchor="middle" x="1280.37" y="-1842.4" font-family="Times,serif" font-size="14.00">a</text>
</g>
<!-- http://w3id.org/oseg/ont/okhimg#tagIcon -->
<g id="node36" class="node">
<title>http://w3id.org/oseg/ont/okhimg#tagIcon</title>
<ellipse fill="none" stroke="#e377c2" cx="1001.59" cy="-2179.44" rx="89.61" ry="16.03"/>
<text text-anchor="middle" x="1001.59" y="-2175.74" font-family="Times,serif" font-size="14.00">okhimg:tagIcon</text>
</g>
<!-- http://w3id.org/oseg/ont/okhimg#tagIcon&#45;&gt;http://schema.org/DefinedTerm -->
<g id="edge39" class="edge">
<title>http://w3id.org/oseg/ont/okhimg#tagIcon&#45;&gt;http://schema.org/DefinedTerm</title>
<path fill="none" stroke="black" d="M1005.75,-2163.06C1022.93,-2095.25 1088.59,-1836.22 1109.75,-1752.76"/>
<polygon fill="black" stroke="black" points="1113.15,-1753.6 1112.21,-1743.05 1106.36,-1751.88 1113.15,-1753.6"/>
<text text-anchor="middle" x="1053.25" y="-1961.71" font-family="Times,serif" font-size="14.00">a</text>
</g>
<!-- http://w3id.org/oseg/ont/okhimg#slotModel3D -->
<g id="node38" class="node">
<title>http://w3id.org/oseg/ont/okhimg#slotModel3D</title>
<ellipse fill="none" stroke="#e377c2" cx="733.99" cy="-1940.61" rx="115.93" ry="16.03"/>
<text text-anchor="middle" x="733.99" y="-1936.91" font-family="Times,serif" font-size="14.00">okhimg:slotModel3D</text>
</g>
<!-- http://w3id.org/oseg/ont/okhimg#slotModel3D&#45;&gt;http://schema.org/DefinedTerm -->
<g id="edge42" class="edge">
<title>http://w3id.org/oseg/ont/okhimg#slotModel3D&#45;&gt;http://schema.org/DefinedTerm</title>
<path fill="none" stroke="black" d="M762.42,-1924.71C830.53,-1886.6 1003.01,-1790.1 1079.2,-1747.47"/>
<polygon fill="black" stroke="black" points="1080.98,-1750.49 1088,-1742.55 1077.57,-1744.38 1080.98,-1750.49"/>
<text text-anchor="middle" x="916.31" y="-1839.89" font-family="Times,serif" font-size="14.00">a</text>
</g>
<!-- http://w3id.org/oseg/ont/okhimg#tagModel -->
<g id="node39" class="node">
<title>http://w3id.org/oseg/ont/okhimg#tagModel</title>
<ellipse fill="none" stroke="#e377c2" cx="1497.11" cy="-2034.68" rx="99.9" ry="16.03"/>
<text text-anchor="middle" x="1497.11" y="-2030.98" font-family="Times,serif" font-size="14.00">okhimg:tagModel</text>
</g>
<!-- http://w3id.org/oseg/ont/okhimg#tagModel&#45;&gt;http://schema.org/DefinedTerm -->
<g id="edge43" class="edge">
<title>http://w3id.org/oseg/ont/okhimg#tagModel&#45;&gt;http://schema.org/DefinedTerm</title>
<path fill="none" stroke="black" d="M1477.18,-2018.55C1413.97,-1967.43 1217.89,-1808.81 1144.48,-1749.43"/>
<polygon fill="black" stroke="black" points="1146.53,-1746.59 1136.55,-1743.02 1142.13,-1752.03 1146.53,-1746.59"/>
<text text-anchor="middle" x="1306.33" y="-1887.79" font-family="Times,serif" font-size="14.00">a</text>
</g>
<!-- http://w3id.org/oseg/ont/okhimg#slotModelFromFront -->
<g id="node40" class="node">
<title>http://w3id.org/oseg/ont/okhimg#slotModelFromFront</title>
<ellipse fill="none" stroke="#e377c2" cx="1525.17" cy="-1414.55" rx="116.85" ry="16.03"/>
<text text-anchor="middle" x="1525.17" y="-1410.85" font-family="Times,serif" font-size="14.00">okhimg:slotModelF...</text>
</g>
<!-- http://w3id.org/oseg/ont/okhimg#slotModelFromFront&#45;&gt;http://schema.org/DefinedTerm -->
<g id="edge45" class="edge">
<title>http://w3id.org/oseg/ont/okhimg#slotModelFromFront&#45;&gt;http://schema.org/DefinedTerm</title>
<path fill="none" stroke="black" d="M1504.05,-1430.67C1436.22,-1482.47 1223.75,-1644.69 1145.59,-1704.37"/>
<polygon fill="black" stroke="black" points="1143.42,-1701.62 1137.59,-1710.47 1147.67,-1707.18 1143.42,-1701.62"/>
<text text-anchor="middle" x="1320.32" y="-1571.32" font-family="Times,serif" font-size="14.00">a</text>
</g>
<!-- http://w3id.org/oseg/ont/okhimg#tagDrawing -->
<g id="node42" class="node">
<title>http://w3id.org/oseg/ont/okhimg#tagDrawing</title>
<ellipse fill="none" stroke="#e377c2" cx="743.98" cy="-2032" rx="111.95" ry="16.03"/>
<text text-anchor="middle" x="743.98" y="-2028.3" font-family="Times,serif" font-size="14.00">okhimg:tagDrawing</text>
</g>
<!-- http://w3id.org/oseg/ont/okhimg#tagDrawing&#45;&gt;http://schema.org/DefinedTerm -->
<g id="edge50" class="edge">
<title>http://w3id.org/oseg/ont/okhimg#tagDrawing&#45;&gt;http://schema.org/DefinedTerm</title>
<path fill="none" stroke="black" d="M763.74,-2015.8C825.85,-1964.87 1017.26,-1807.93 1088.91,-1749.19"/>
<polygon fill="black" stroke="black" points="1091.13,-1751.89 1096.65,-1742.85 1086.69,-1746.48 1091.13,-1751.89"/>
<text text-anchor="middle" x="921.82" y="-1886.29" font-family="Times,serif" font-size="14.00">a</text>
</g>
</g>
</svg>
