<?xml version="1.0" encoding="UTF-8" standalone="no"?>
<!DOCTYPE svg PUBLIC "-//W3C//DTD SVG 1.1//EN"
 "http://www.w3.org/Graphics/SVG/1.1/DTD/svg11.dtd">
<!-- Generated by graphviz version 2.43.0 (0)
 -->
<!-- Title: G Pages: 1 -->
<svg width="2360pt" height="1482pt"
 viewBox="0.00 0.00 2360.00 1482.00" xmlns="http://www.w3.org/2000/svg" xmlns:xlink="http://www.w3.org/1999/xlink">
<g id="graph0" class="graph" transform="scale(1 1) rotate(0) translate(4 1478)">
<title>G</title>
<polygon fill="white" stroke="transparent" points="-4,4 -4,-1478 2356,-1478 2356,4 -4,4"/>
<!-- https://w3id.org/oseg/ont/otrl#OTRL2 -->
<g id="node1" class="node">
<title>https://w3id.org/oseg/ont/otrl#OTRL2</title>
<ellipse fill="none" stroke="#e377c2" cx="639.7" cy="-1078.37" rx="67.35" ry="16.03"/>
<text text-anchor="middle" x="639.7" y="-1074.67" font-family="Times,serif" font-size="14.00">otrl:OTRL2</text>
</g>
<!-- https://w3id.org/oseg/ont/otrl#OTRL -->
<g id="node6" class="node">
<title>https://w3id.org/oseg/ont/otrl#OTRL</title>
<ellipse fill="none" stroke="#e377c2" cx="841.14" cy="-871.15" rx="60.62" ry="16.03"/>
<text text-anchor="middle" x="841.14" y="-867.45" font-family="Times,serif" font-size="14.00">otrl:OTRL</text>
</g>
<!-- https://w3id.org/oseg/ont/otrl#OTRL2&#45;&gt;https://w3id.org/oseg/ont/otrl#OTRL -->
<g id="edge44" class="edge">
<title>https://w3id.org/oseg/ont/otrl#OTRL2&#45;&gt;https://w3id.org/oseg/ont/otrl#OTRL</title>
<path fill="none" stroke="black" d="M655.17,-1062.46C690.47,-1026.14 777.09,-937.04 818.44,-894.5"/>
<polygon fill="black" stroke="black" points="821.16,-896.73 825.62,-887.12 816.14,-891.85 821.16,-896.73"/>
</g>
<!-- https://w3id.org/oseg/ont/otrl#ODRL4 -->
<g id="node2" class="node">
<title>https://w3id.org/oseg/ont/otrl#ODRL4</title>
<ellipse fill="none" stroke="#e377c2" cx="1282.28" cy="-345.72" rx="69.09" ry="16.03"/>
<text text-anchor="middle" x="1282.28" y="-342.02" font-family="Times,serif" font-size="14.00">otrl:ODRL4</text>
</g>
<!-- https://w3id.org/oseg/ont/otrl#ODRL -->
<g id="node15" class="node">
<title>https://w3id.org/oseg/ont/otrl#ODRL</title>
<ellipse fill="none" stroke="#e377c2" cx="1391.32" cy="-540.77" rx="62.87" ry="16.03"/>
<text text-anchor="middle" x="1391.32" y="-537.07" font-family="Times,serif" font-size="14.00">otrl:ODRL</text>
</g>
<!-- https://w3id.org/oseg/ont/otrl#ODRL4&#45;&gt;https://w3id.org/oseg/ont/otrl#ODRL -->
<g id="edge40" class="edge">
<title>https://w3id.org/oseg/ont/otrl#ODRL4&#45;&gt;https://w3id.org/oseg/ont/otrl#ODRL</title>
<path fill="none" stroke="black" d="M1291.39,-362.01C1310.44,-396.09 1354.6,-475.07 1377.29,-515.67"/>
<polygon fill="black" stroke="black" points="1374.38,-517.64 1382.31,-524.66 1380.49,-514.22 1374.38,-517.64"/>
</g>
<!-- http://spdx.org/rdf/terms#File -->
<g id="node3" class="node">
<title>http://spdx.org/rdf/terms#File</title>
<ellipse fill="none" stroke="#1f77b4" cx="1647.24" cy="-1229.67" rx="62.45" ry="16.03"/>
<text text-anchor="middle" x="1647.24" y="-1225.97" font-family="Times,serif" font-size="14.00">spdxt:File</text>
</g>
<!-- https://w3id.org/oseg/ont/otrl#OTRL5 -->
<g id="node4" class="node">
<title>https://w3id.org/oseg/ont/otrl#OTRL5</title>
<ellipse fill="none" stroke="#e377c2" cx="691.67" cy="-682.2" rx="67.35" ry="16.03"/>
<text text-anchor="middle" x="691.67" y="-678.5" font-family="Times,serif" font-size="14.00">otrl:OTRL5</text>
</g>
<!-- https://w3id.org/oseg/ont/otrl#OTRL5&#45;&gt;https://w3id.org/oseg/ont/otrl#OTRL -->
<g id="edge52" class="edge">
<title>https://w3id.org/oseg/ont/otrl#OTRL5&#45;&gt;https://w3id.org/oseg/ont/otrl#OTRL</title>
<path fill="none" stroke="black" d="M704.42,-698.31C730.67,-731.49 790.92,-807.65 821.93,-846.85"/>
<polygon fill="black" stroke="black" points="819.48,-849.41 828.43,-855.08 824.97,-845.07 819.48,-849.41"/>
</g>
<!-- https://w3id.org/oseg/ont/otrl#OTRL1 -->
<g id="node5" class="node">
<title>https://w3id.org/oseg/ont/otrl#OTRL1</title>
<ellipse fill="none" stroke="#e377c2" cx="833.66" cy="-1077.64" rx="67.35" ry="16.03"/>
<text text-anchor="middle" x="833.66" y="-1073.94" font-family="Times,serif" font-size="14.00">otrl:OTRL1</text>
</g>
<!-- https://w3id.org/oseg/ont/otrl#OTRL1&#45;&gt;https://w3id.org/oseg/ont/otrl#OTRL -->
<g id="edge14" class="edge">
<title>https://w3id.org/oseg/ont/otrl#OTRL1&#45;&gt;https://w3id.org/oseg/ont/otrl#OTRL</title>
<path fill="none" stroke="black" d="M834.26,-1061.09C835.56,-1025.36 838.62,-940.74 840.19,-897.53"/>
<polygon fill="black" stroke="black" points="843.69,-897.61 840.55,-887.49 836.69,-897.36 843.69,-897.61"/>
</g>
<!-- https://w3id.org/oseg/ont/otrl#ODRL1 -->
<g id="node7" class="node">
<title>https://w3id.org/oseg/ont/otrl#ODRL1</title>
<ellipse fill="none" stroke="#e377c2" cx="1553.73" cy="-676.67" rx="69.09" ry="16.03"/>
<text text-anchor="middle" x="1553.73" y="-672.97" font-family="Times,serif" font-size="14.00">otrl:ODRL1</text>
</g>
<!-- https://w3id.org/oseg/ont/otrl#ODRL1&#45;&gt;https://w3id.org/oseg/ont/otrl#ODRL -->
<g id="edge16" class="edge">
<title>https://w3id.org/oseg/ont/otrl#ODRL1&#45;&gt;https://w3id.org/oseg/ont/otrl#ODRL</title>
<path fill="none" stroke="black" d="M1534.78,-660.81C1505.85,-636.61 1450.59,-590.36 1417.74,-562.87"/>
<polygon fill="black" stroke="black" points="1419.81,-560.05 1409.9,-556.31 1415.32,-565.41 1419.81,-560.05"/>
</g>
<!-- https://w3id.org/oseg/ont/otrl#ODRL3Star -->
<g id="node8" class="node">
<title>https://w3id.org/oseg/ont/otrl#ODRL3Star</title>
<ellipse fill="none" stroke="#e377c2" cx="1699.81" cy="-596.49" rx="90.52" ry="16.03"/>
<text text-anchor="middle" x="1699.81" y="-592.79" font-family="Times,serif" font-size="14.00">otrl:ODRL3Star</text>
</g>
<!-- https://w3id.org/oseg/ont/otrl#ODRL3Star&#45;&gt;https://w3id.org/oseg/ont/otrl#ODRL -->
<g id="edge22" class="edge">
<title>https://w3id.org/oseg/ont/otrl#ODRL3Star&#45;&gt;https://w3id.org/oseg/ont/otrl#ODRL</title>
<path fill="none" stroke="black" d="M1635.89,-584.95C1582.17,-575.24 1505.89,-561.46 1452.85,-551.88"/>
<polygon fill="black" stroke="black" points="1453.36,-548.42 1442.9,-550.09 1452.12,-555.31 1453.36,-548.42"/>
</g>
<!-- https://w3id.org/oseg/ont/otrl#ODRL3 -->
<g id="node9" class="node">
<title>https://w3id.org/oseg/ont/otrl#ODRL3</title>
<ellipse fill="none" stroke="#e377c2" cx="1660.26" cy="-451.73" rx="69.09" ry="16.03"/>
<text text-anchor="middle" x="1660.26" y="-448.03" font-family="Times,serif" font-size="14.00">otrl:ODRL3</text>
</g>
<!-- https://w3id.org/oseg/ont/otrl#ODRL3&#45;&gt;https://w3id.org/oseg/ont/otrl#ODRL -->
<g id="edge27" class="edge">
<title>https://w3id.org/oseg/ont/otrl#ODRL3&#45;&gt;https://w3id.org/oseg/ont/otrl#ODRL</title>
<path fill="none" stroke="black" d="M1620,-465.06C1571.82,-481.01 1491.21,-507.7 1439.69,-524.75"/>
<polygon fill="black" stroke="black" points="1438.5,-521.46 1430.11,-527.93 1440.7,-528.11 1438.5,-521.46"/>
</g>
<!-- https://w3id.org/oseg/ont/otrl#OTRL4 -->
<g id="node10" class="node">
<title>https://w3id.org/oseg/ont/otrl#OTRL4</title>
<ellipse fill="none" stroke="#e377c2" cx="575.04" cy="-797.54" rx="67.35" ry="16.03"/>
<text text-anchor="middle" x="575.04" y="-793.84" font-family="Times,serif" font-size="14.00">otrl:OTRL4</text>
</g>
<!-- https://w3id.org/oseg/ont/otrl#OTRL4&#45;&gt;https://w3id.org/oseg/ont/otrl#OTRL -->
<g id="edge49" class="edge">
<title>https://w3id.org/oseg/ont/otrl#OTRL4&#45;&gt;https://w3id.org/oseg/ont/otrl#OTRL</title>
<path fill="none" stroke="black" d="M619.58,-809.86C666.23,-822.76 739.44,-843.02 788.81,-856.67"/>
<polygon fill="black" stroke="black" points="788.09,-860.11 798.66,-859.4 789.96,-853.36 788.09,-860.11"/>
</g>
<!-- http://www.w3.org/2002/07/owl#Ontology -->
<g id="node11" class="node">
<title>http://www.w3.org/2002/07/owl#Ontology</title>
<ellipse fill="none" stroke="#1f77b4" cx="1812.69" cy="-925.4" rx="77.56" ry="16.03"/>
<text text-anchor="middle" x="1812.69" y="-921.7" font-family="Times,serif" font-size="14.00">owl:Ontology</text>
</g>
<!-- http://www.w3.org/2002/07/owl#DatatypeProperty -->
<g id="node12" class="node">
<title>http://www.w3.org/2002/07/owl#DatatypeProperty</title>
<ellipse fill="none" stroke="#1f77b4" cx="986.03" cy="-478.41" rx="123.07" ry="16.03"/>
<text text-anchor="middle" x="986.03" y="-474.71" font-family="Times,serif" font-size="14.00">owl:DatatypeProperty</text>
</g>
<!-- https://w3id.org/oseg/ont/otrl#ODRL2 -->
<g id="node13" class="node">
<title>https://w3id.org/oseg/ont/otrl#ODRL2</title>
<ellipse fill="none" stroke="#e377c2" cx="1587.13" cy="-333.7" rx="69.09" ry="16.03"/>
<text text-anchor="middle" x="1587.13" y="-330" font-family="Times,serif" font-size="14.00">otrl:ODRL2</text>
</g>
<!-- https://w3id.org/oseg/ont/otrl#ODRL2&#45;&gt;https://w3id.org/oseg/ont/otrl#ODRL -->
<g id="edge36" class="edge">
<title>https://w3id.org/oseg/ont/otrl#ODRL2&#45;&gt;https://w3id.org/oseg/ont/otrl#ODRL</title>
<path fill="none" stroke="black" d="M1572.09,-349.6C1537.78,-385.89 1453.58,-474.92 1413.38,-517.44"/>
<polygon fill="black" stroke="black" points="1410.74,-515.14 1406.41,-524.81 1415.82,-519.95 1410.74,-515.14"/>
</g>
<!-- https://w3id.org/oseg/ont/otrl#OTRL6 -->
<g id="node14" class="node">
<title>https://w3id.org/oseg/ont/otrl#OTRL6</title>
<ellipse fill="none" stroke="#e377c2" cx="590" cy="-981.67" rx="67.35" ry="16.03"/>
<text text-anchor="middle" x="590" y="-977.97" font-family="Times,serif" font-size="14.00">otrl:OTRL6</text>
</g>
<!-- https://w3id.org/oseg/ont/otrl#OTRL6&#45;&gt;https://w3id.org/oseg/ont/otrl#OTRL -->
<g id="edge5" class="edge">
<title>https://w3id.org/oseg/ont/otrl#OTRL6&#45;&gt;https://w3id.org/oseg/ont/otrl#OTRL</title>
<path fill="none" stroke="black" d="M622.58,-967.34C668.09,-947.31 750.67,-910.96 800.26,-889.14"/>
<polygon fill="black" stroke="black" points="801.68,-892.34 809.42,-885.11 798.86,-885.94 801.68,-892.34"/>
</g>
<!-- https://w3id.org/oseg/ont/otrl#OTRL3 -->
<g id="node16" class="node">
<title>https://w3id.org/oseg/ont/otrl#OTRL3</title>
<ellipse fill="none" stroke="#e377c2" cx="1036.19" cy="-1077.94" rx="67.35" ry="16.03"/>
<text text-anchor="middle" x="1036.19" y="-1074.24" font-family="Times,serif" font-size="14.00">otrl:OTRL3</text>
</g>
<!-- https://w3id.org/oseg/ont/otrl#OTRL3&#45;&gt;https://w3id.org/oseg/ont/otrl#OTRL -->
<g id="edge25" class="edge">
<title>https://w3id.org/oseg/ont/otrl#OTRL3&#45;&gt;https://w3id.org/oseg/ont/otrl#OTRL</title>
<path fill="none" stroke="black" d="M1021.21,-1062.05C987.03,-1025.82 903.17,-936.91 863.12,-894.45"/>
<polygon fill="black" stroke="black" points="865.58,-891.96 856.18,-887.09 860.49,-896.76 865.58,-891.96"/>
</g>
<!-- https://w3id.org/oseg/ont/otrl -->
<g id="node17" class="node">
<title>https://w3id.org/oseg/ont/otrl</title>
<ellipse fill="none" stroke="#e377c2" cx="1649.61" cy="-1042.69" rx="50.82" ry="16.03"/>
<text text-anchor="middle" x="1649.61" y="-1038.99" font-family="Times,serif" font-size="14.00">ns1:otrl</text>
</g>
<!-- https://w3id.org/oseg/ont/otrl&#45;&gt;http://spdx.org/rdf/terms#File -->
<g id="edge43" class="edge">
<title>https://w3id.org/oseg/ont/otrl&#45;&gt;http://spdx.org/rdf/terms#File</title>
<path fill="none" stroke="black" d="M1649.41,-1058.96C1649,-1091.28 1648.08,-1163.86 1647.58,-1203.16"/>
<polygon fill="black" stroke="black" points="1644.08,-1203.26 1647.45,-1213.31 1651.08,-1203.35 1644.08,-1203.26"/>
<text text-anchor="middle" x="1643.99" y="-1134.86" font-family="Times,serif" font-size="14.00">a</text>
</g>
<!-- https://w3id.org/oseg/ont/otrl&#45;&gt;http://www.w3.org/2002/07/owl#Ontology -->
<g id="edge1" class="edge">
<title>https://w3id.org/oseg/ont/otrl&#45;&gt;http://www.w3.org/2002/07/owl#Ontology</title>
<path fill="none" stroke="black" d="M1670.6,-1027.6C1699.03,-1007.15 1749.95,-970.53 1782.49,-947.12"/>
<polygon fill="black" stroke="black" points="1784.67,-949.87 1790.74,-941.19 1780.58,-944.18 1784.67,-949.87"/>
<text text-anchor="middle" x="1722.04" y="-976.16" font-family="Times,serif" font-size="14.00">a</text>
</g>
<!-- https://w3id.org/oseg/ont/oseg&#45;profiles#robinVobruba -->
<g id="node18" class="node">
<title>https://w3id.org/oseg/ont/oseg&#45;profiles#robinVobruba</title>
<ellipse fill="none" stroke="#e377c2" cx="1445.75" cy="-1170.87" rx="113.69" ry="16.03"/>
<text text-anchor="middle" x="1445.75" y="-1167.17" font-family="Times,serif" font-size="14.00">osegprof:robinVob...</text>
</g>
<!-- https://w3id.org/oseg/ont/otrl&#45;&gt;https://w3id.org/oseg/ont/oseg&#45;profiles#robinVobruba -->
<g id="edge4" class="edge">
<title>https://w3id.org/oseg/ont/otrl&#45;&gt;https://w3id.org/oseg/ont/oseg&#45;profiles#robinVobruba</title>
<path fill="none" stroke="black" d="M1619.57,-1055.93C1579.66,-1077.97 1509.9,-1121.8 1472,-1148.61"/>
<polygon fill="black" stroke="black" points="1469.6,-1146.03 1463.53,-1154.71 1473.69,-1151.71 1469.6,-1146.03"/>
<text text-anchor="middle" x="1490.28" y="-1106.07" font-family="Times,serif" font-size="14.00">schema:creator</text>
</g>
<!-- https://w3id.org/oseg/ont/otrl&#45;&gt;https://w3id.org/oseg/ont/oseg&#45;profiles#robinVobruba -->
<g id="edge35" class="edge">
<title>https://w3id.org/oseg/ont/otrl&#45;&gt;https://w3id.org/oseg/ont/oseg&#45;profiles#robinVobruba</title>
<path fill="none" stroke="black" d="M1632.64,-1058.26C1601.29,-1081.45 1533.61,-1124.54 1488.86,-1150.26"/>
<polygon fill="black" stroke="black" points="1486.92,-1147.34 1479.96,-1155.32 1490.38,-1153.42 1486.92,-1147.34"/>
<text text-anchor="middle" x="1618.25" y="-1108.06" font-family="Times,serif" font-size="14.00">dcterms:creator</text>
</g>
<!-- https://w3id.org/oseg/ont/1.1.0/otrl -->
<g id="node19" class="node">
<title>https://w3id.org/oseg/ont/1.1.0/otrl</title>
<ellipse fill="none" stroke="#e377c2" cx="1796.23" cy="-1135.6" rx="50.82" ry="16.03"/>
<text text-anchor="middle" x="1796.23" y="-1131.9" font-family="Times,serif" font-size="14.00">ns2:otrl</text>
</g>
<!-- https://w3id.org/oseg/ont/otrl&#45;&gt;https://w3id.org/oseg/ont/1.1.0/otrl -->
<g id="edge6" class="edge">
<title>https://w3id.org/oseg/ont/otrl&#45;&gt;https://w3id.org/oseg/ont/1.1.0/otrl</title>
<path fill="none" stroke="black" d="M1672.85,-1057.42C1697.62,-1073.11 1737.01,-1098.07 1764.6,-1115.56"/>
<polygon fill="black" stroke="black" points="1762.79,-1118.55 1773.11,-1120.95 1766.54,-1112.64 1762.79,-1118.55"/>
<text text-anchor="middle" x="1770.22" y="-1090.29" font-family="Times,serif" font-size="14.00">owl:versionIRI</text>
</g>
<!-- http://id.loc.gov/vocabulary/iso639&#45;1/en -->
<g id="node21" class="node">
<title>http://id.loc.gov/vocabulary/iso639&#45;1/en</title>
<ellipse fill="none" stroke="#e377c2" cx="1645.46" cy="-1084.97" rx="45.01" ry="16.03"/>
<text text-anchor="middle" x="1645.46" y="-1081.27" font-family="Times,serif" font-size="14.00">ns3:en</text>
</g>
<!-- https://w3id.org/oseg/ont/otrl&#45;&gt;http://id.loc.gov/vocabulary/iso639&#45;1/en -->
<g id="edge11" class="edge">
<title>https://w3id.org/oseg/ont/otrl&#45;&gt;http://id.loc.gov/vocabulary/iso639&#45;1/en</title>
<path fill="none" stroke="black" d="M1647.97,-1059.4C1647.96,-1059.5 1647.95,-1059.6 1647.94,-1059.69"/>
<polygon fill="black" stroke="black" points="1644.56,-1058.37 1647.06,-1068.66 1651.52,-1059.05 1644.56,-1058.37"/>
<text text-anchor="middle" x="1712.46" y="-1063.35" font-family="Times,serif" font-size="14.00">dcterms:language</text>
</g>
<!-- https://w3id.org/oseg/ont/oseg&#45;profiles#martinHaeuer -->
<g id="node22" class="node">
<title>https://w3id.org/oseg/ont/oseg&#45;profiles#martinHaeuer</title>
<ellipse fill="none" stroke="#e377c2" cx="1498.65" cy="-1000.78" rx="116.85" ry="16.03"/>
<text text-anchor="middle" x="1498.65" y="-997.08" font-family="Times,serif" font-size="14.00">osegprof:martinHa...</text>
</g>
<!-- https://w3id.org/oseg/ont/otrl&#45;&gt;https://w3id.org/oseg/ont/oseg&#45;profiles#martinHaeuer -->
<g id="edge24" class="edge">
<title>https://w3id.org/oseg/ont/otrl&#45;&gt;https://w3id.org/oseg/ont/oseg&#45;profiles#martinHaeuer</title>
<path fill="none" stroke="black" d="M1621.26,-1029.11C1609.34,-1025.01 1594.81,-1020.55 1579.97,-1016.36"/>
<polygon fill="black" stroke="black" points="1580.78,-1012.96 1570.21,-1013.66 1578.91,-1019.7 1580.78,-1012.96"/>
<text text-anchor="middle" x="1545.12" y="-1026.54" font-family="Times,serif" font-size="14.00">schema:creator</text>
</g>
<!-- https://w3id.org/oseg/ont/otrl&#45;&gt;https://w3id.org/oseg/ont/oseg&#45;profiles#martinHaeuer -->
<g id="edge54" class="edge">
<title>https://w3id.org/oseg/ont/otrl&#45;&gt;https://w3id.org/oseg/ont/oseg&#45;profiles#martinHaeuer</title>
<path fill="none" stroke="black" d="M1602.65,-1036.14C1583.62,-1031.54 1561.77,-1025.49 1543.02,-1019.61"/>
<polygon fill="black" stroke="black" points="1543.83,-1016.19 1533.24,-1016.47 1541.69,-1022.86 1543.83,-1016.19"/>
<text text-anchor="middle" x="1630.33" y="-1016.67" font-family="Times,serif" font-size="14.00">dcterms:creator</text>
</g>
<!-- https://spdx.org/licenses/GPL&#45;3.0&#45;or&#45;later -->
<g id="node24" class="node">
<title>https://spdx.org/licenses/GPL&#45;3.0&#45;or&#45;later</title>
<ellipse fill="none" stroke="#e377c2" cx="1749.44" cy="-1002.14" rx="108.79" ry="16.03"/>
<text text-anchor="middle" x="1749.44" y="-998.44" font-family="Times,serif" font-size="14.00">spdxl:GPL&#45;3.0&#45;or&#45;...</text>
</g>
<!-- https://w3id.org/oseg/ont/otrl&#45;&gt;https://spdx.org/licenses/GPL&#45;3.0&#45;or&#45;later -->
<g id="edge31" class="edge">
<title>https://w3id.org/oseg/ont/otrl&#45;&gt;https://spdx.org/licenses/GPL&#45;3.0&#45;or&#45;later</title>
<path fill="none" stroke="black" d="M1681.2,-1029.86C1687.87,-1027.15 1695.06,-1024.23 1702.17,-1021.34"/>
<polygon fill="black" stroke="black" points="1703.82,-1024.45 1711.77,-1017.45 1701.19,-1017.97 1703.82,-1024.45"/>
<text text-anchor="middle" x="1770.68" y="-1029.4" font-family="Times,serif" font-size="14.00">spdxt:licenseDeclared</text>
</g>
<!-- https://w3id.org/oseg/ont/oseg&#45;profiles#Iopa -->
<g id="node27" class="node">
<title>https://w3id.org/oseg/ont/oseg&#45;profiles#Iopa</title>
<ellipse fill="none" stroke="#e377c2" cx="1501.98" cy="-903.82" rx="80.72" ry="16.03"/>
<text text-anchor="middle" x="1501.98" y="-900.12" font-family="Times,serif" font-size="14.00">osegprof:Iopa</text>
</g>
<!-- https://w3id.org/oseg/ont/otrl&#45;&gt;https://w3id.org/oseg/ont/oseg&#45;profiles#Iopa -->
<g id="edge55" class="edge">
<title>https://w3id.org/oseg/ont/otrl&#45;&gt;https://w3id.org/oseg/ont/oseg&#45;profiles#Iopa</title>
<path fill="none" stroke="black" d="M1632.96,-1027.03C1607.07,-1002.68 1557.01,-955.59 1526.83,-927.2"/>
<polygon fill="black" stroke="black" points="1528.93,-924.37 1519.25,-920.07 1524.14,-929.47 1528.93,-924.37"/>
<text text-anchor="middle" x="1514.4" y="-965.92" font-family="Times,serif" font-size="14.00">dcterms:publisher</text>
</g>
<!-- http://schema.org/Text -->
<g id="node20" class="node">
<title>http://schema.org/Text</title>
<ellipse fill="none" stroke="#e377c2" cx="1250.73" cy="-886.57" rx="74.91" ry="16.03"/>
<text text-anchor="middle" x="1250.73" y="-882.87" font-family="Times,serif" font-size="14.00">schema:Text</text>
</g>
<!-- https://w3id.org/oseg/ont/otrl#Odrl4 -->
<g id="node23" class="node">
<title>https://w3id.org/oseg/ont/otrl#Odrl4</title>
<ellipse fill="none" stroke="#e377c2" cx="1432.31" cy="-274.34" rx="61.54" ry="16.03"/>
<text text-anchor="middle" x="1432.31" y="-270.64" font-family="Times,serif" font-size="14.00">otrl:Odrl4</text>
</g>
<!-- https://w3id.org/oseg/ont/otrl#Odrl4&#45;&gt;https://w3id.org/oseg/ont/otrl#ODRL4 -->
<g id="edge34" class="edge">
<title>https://w3id.org/oseg/ont/otrl#Odrl4&#45;&gt;https://w3id.org/oseg/ont/otrl#ODRL4</title>
<path fill="none" stroke="black" d="M1392.29,-286.81C1367.23,-297.44 1335.46,-312.65 1312.51,-325.04"/>
<polygon fill="black" stroke="black" points="1310.62,-322.09 1303.56,-329.99 1314,-328.22 1310.62,-322.09"/>
<text text-anchor="middle" x="1309.9" y="-309.73" font-family="Times,serif" font-size="14.00">owl:sameAs</text>
</g>
<!-- https://w3id.org/oseg/ont/otrl#Odrl4&#45;&gt;https://w3id.org/oseg/ont/otrl#ODRL4 -->
<g id="edge57" class="edge">
<title>https://w3id.org/oseg/ont/otrl#Odrl4&#45;&gt;https://w3id.org/oseg/ont/otrl#ODRL4</title>
<path fill="none" stroke="black" d="M1411.68,-289.71C1391.52,-301.2 1360.07,-316.65 1333.22,-328.52"/>
<polygon fill="black" stroke="black" points="1331.72,-325.35 1323.94,-332.55 1334.51,-331.77 1331.72,-325.35"/>
<text text-anchor="middle" x="1452.45" y="-297.91" font-family="Times,serif" font-size="14.00">schema:supersededBy</text>
</g>
<!-- https://w3id.org/oseg/ont/otrl#goal -->
<g id="node25" class="node">
<title>https://w3id.org/oseg/ont/otrl#goal</title>
<ellipse fill="none" stroke="#e377c2" cx="1129.43" cy="-726.33" rx="54.39" ry="16.03"/>
<text text-anchor="middle" x="1129.43" y="-722.63" font-family="Times,serif" font-size="14.00">otrl:goal</text>
</g>
<!-- https://w3id.org/oseg/ont/otrl#goal&#45;&gt;https://w3id.org/oseg/ont/otrl#OTRL -->
<g id="edge18" class="edge">
<title>https://w3id.org/oseg/ont/otrl#goal&#45;&gt;https://w3id.org/oseg/ont/otrl#OTRL</title>
<path fill="none" stroke="black" d="M1101.53,-740.34C1049.48,-766.49 937.58,-822.7 878.87,-852.2"/>
<polygon fill="black" stroke="black" points="877.28,-849.08 869.92,-856.7 880.42,-855.33 877.28,-849.08"/>
<text text-anchor="middle" x="904.2" y="-800.07" font-family="Times,serif" font-size="14.00">schema:domainIncludes</text>
</g>
<!-- https://w3id.org/oseg/ont/otrl#goal&#45;&gt;http://www.w3.org/2002/07/owl#DatatypeProperty -->
<g id="edge38" class="edge">
<title>https://w3id.org/oseg/ont/otrl#goal&#45;&gt;http://www.w3.org/2002/07/owl#DatatypeProperty</title>
<path fill="none" stroke="black" d="M1120.02,-710.06C1095.56,-667.77 1029.84,-554.15 1000.51,-503.44"/>
<polygon fill="black" stroke="black" points="1003.51,-501.64 995.47,-494.73 997.45,-505.14 1003.51,-501.64"/>
<text text-anchor="middle" x="1055.76" y="-610.55" font-family="Times,serif" font-size="14.00">a</text>
</g>
<!-- https://w3id.org/oseg/ont/otrl#goal&#45;&gt;https://w3id.org/oseg/ont/otrl#ODRL -->
<g id="edge56" class="edge">
<title>https://w3id.org/oseg/ont/otrl#goal&#45;&gt;https://w3id.org/oseg/ont/otrl#ODRL</title>
<path fill="none" stroke="black" d="M1150.86,-711.14C1197.38,-678.18 1307.72,-600 1361.21,-562.1"/>
<polygon fill="black" stroke="black" points="1363.46,-564.8 1369.59,-556.16 1359.41,-559.09 1363.46,-564.8"/>
<text text-anchor="middle" x="1170.03" y="-640.42" font-family="Times,serif" font-size="14.00">schema:domainIncludes</text>
</g>
<!-- https://w3id.org/oseg/ont/otrl#goal&#45;&gt;http://schema.org/Text -->
<g id="edge9" class="edge">
<title>https://w3id.org/oseg/ont/otrl#goal&#45;&gt;http://schema.org/Text</title>
<path fill="none" stroke="black" d="M1141.5,-742.28C1162.74,-770.33 1206.9,-828.66 1232.08,-861.93"/>
<polygon fill="black" stroke="black" points="1229.52,-864.34 1238.35,-870.21 1235.1,-860.12 1229.52,-864.34"/>
<text text-anchor="middle" x="1165.79" y="-805.9" font-family="Times,serif" font-size="14.00">range</text>
</g>
<!-- https://w3id.org/oseg/ont/otrl#exitCriteria -->
<g id="node26" class="node">
<title>https://w3id.org/oseg/ont/otrl#exitCriteria</title>
<ellipse fill="none" stroke="#e377c2" cx="1103.69" cy="-685.78" rx="91.43" ry="16.03"/>
<text text-anchor="middle" x="1103.69" y="-682.08" font-family="Times,serif" font-size="14.00">otrl:exitCriteria</text>
</g>
<!-- https://w3id.org/oseg/ont/otrl#exitCriteria&#45;&gt;https://w3id.org/oseg/ont/otrl#OTRL -->
<g id="edge8" class="edge">
<title>https://w3id.org/oseg/ont/otrl#exitCriteria&#45;&gt;https://w3id.org/oseg/ont/otrl#OTRL</title>
<path fill="none" stroke="black" d="M1081.31,-701.59C1034.09,-734.93 924.26,-812.47 871.07,-850.02"/>
<polygon fill="black" stroke="black" points="868.88,-847.28 862.73,-855.91 872.92,-853 868.88,-847.28"/>
<text text-anchor="middle" x="890.19" y="-779.6" font-family="Times,serif" font-size="14.00">schema:domainIncludes</text>
</g>
<!-- https://w3id.org/oseg/ont/otrl#exitCriteria&#45;&gt;http://www.w3.org/2002/07/owl#DatatypeProperty -->
<g id="edge41" class="edge">
<title>https://w3id.org/oseg/ont/otrl#exitCriteria&#45;&gt;http://www.w3.org/2002/07/owl#DatatypeProperty</title>
<path fill="none" stroke="black" d="M1094.46,-669.51C1074.02,-633.48 1024.82,-546.77 1000.35,-503.64"/>
<polygon fill="black" stroke="black" points="1003.36,-501.86 995.38,-494.89 997.27,-505.31 1003.36,-501.86"/>
<text text-anchor="middle" x="1042.9" y="-590.38" font-family="Times,serif" font-size="14.00">a</text>
</g>
<!-- https://w3id.org/oseg/ont/otrl#exitCriteria&#45;&gt;https://w3id.org/oseg/ont/otrl#ODRL -->
<g id="edge46" class="edge">
<title>https://w3id.org/oseg/ont/otrl#exitCriteria&#45;&gt;https://w3id.org/oseg/ont/otrl#ODRL</title>
<path fill="none" stroke="black" d="M1134.2,-670.4C1187.07,-643.75 1295.56,-589.05 1353.26,-559.96"/>
<polygon fill="black" stroke="black" points="1355.06,-562.97 1362.41,-555.34 1351.9,-556.72 1355.06,-562.97"/>
<text text-anchor="middle" x="1157.73" y="-618.98" font-family="Times,serif" font-size="14.00">schema:domainIncludes</text>
</g>
<!-- https://w3id.org/oseg/ont/otrl#exitCriteria&#45;&gt;http://schema.org/Text -->
<g id="edge12" class="edge">
<title>https://w3id.org/oseg/ont/otrl#exitCriteria&#45;&gt;http://schema.org/Text</title>
<path fill="none" stroke="black" d="M1115.73,-702.21C1141.6,-737.54 1202.62,-820.86 1232.96,-862.3"/>
<polygon fill="black" stroke="black" points="1230.21,-864.47 1238.95,-870.47 1235.86,-860.34 1230.21,-864.47"/>
<text text-anchor="middle" x="1153.34" y="-786.06" font-family="Times,serif" font-size="14.00">range</text>
</g>
<!-- https://w3id.org/oseg/ont/otrl#Otrl4 -->
<g id="node28" class="node">
<title>https://w3id.org/oseg/ont/otrl#Otrl4</title>
<ellipse fill="none" stroke="black" cx="194.52" cy="-684.75" rx="194.41" ry="16.03"/>
<text text-anchor="middle" x="194.52" y="-681.05" font-family="Times,serif" font-size="14.00">https://w3id.org/oseg/ont/otrl#Otrl4</text>
</g>
<!-- https://w3id.org/oseg/ont/otrl#Otrl4&#45;&gt;https://w3id.org/oseg/ont/otrl#OTRL4 -->
<g id="edge2" class="edge">
<title>https://w3id.org/oseg/ont/otrl#Otrl4&#45;&gt;https://w3id.org/oseg/ont/otrl#OTRL4</title>
<path fill="none" stroke="black" d="M233.29,-700.77C299.34,-723.41 434.16,-763.64 513.3,-784.55"/>
<polygon fill="black" stroke="black" points="512.57,-787.98 523.14,-787.12 514.35,-781.2 512.57,-787.98"/>
<text text-anchor="middle" x="293.29" y="-746.46" font-family="Times,serif" font-size="14.00">schema:supersededBy</text>
</g>
<!-- https://w3id.org/oseg/ont/otrl#Otrl4&#45;&gt;https://w3id.org/oseg/ont/otrl#OTRL4 -->
<g id="edge47" class="edge">
<title>https://w3id.org/oseg/ont/otrl#Otrl4&#45;&gt;https://w3id.org/oseg/ont/otrl#OTRL4</title>
<path fill="none" stroke="black" d="M264.5,-699.94C342.65,-720.88 466.68,-757.92 531.83,-780.01"/>
<polygon fill="black" stroke="black" points="530.79,-783.35 541.39,-783.29 533.06,-776.73 530.79,-783.35"/>
<text text-anchor="middle" x="355.67" y="-728.77" font-family="Times,serif" font-size="14.00">owl:sameAs</text>
</g>
<!-- https://w3id.org/oseg/ont/otrl#Otrl6 -->
<g id="node29" class="node">
<title>https://w3id.org/oseg/ont/otrl#Otrl6</title>
<ellipse fill="none" stroke="black" cx="228.06" cy="-1146.48" rx="194.41" ry="16.03"/>
<text text-anchor="middle" x="228.06" y="-1142.78" font-family="Times,serif" font-size="14.00">https://w3id.org/oseg/ont/otrl#Otrl6</text>
</g>
<!-- https://w3id.org/oseg/ont/otrl#Otrl6&#45;&gt;https://w3id.org/oseg/ont/otrl#OTRL6 -->
<g id="edge3" class="edge">
<title>https://w3id.org/oseg/ont/otrl#Otrl6&#45;&gt;https://w3id.org/oseg/ont/otrl#OTRL6</title>
<path fill="none" stroke="black" d="M273.99,-1130.62C347.77,-1100.31 490.97,-1034.97 556.19,-1001.7"/>
<polygon fill="black" stroke="black" points="557.95,-1004.73 565.23,-997.04 554.74,-998.51 557.95,-1004.73"/>
<text text-anchor="middle" x="335.09" y="-1069.96" font-family="Times,serif" font-size="14.00">schema:supersededBy</text>
</g>
<!-- https://w3id.org/oseg/ont/otrl#Otrl6&#45;&gt;https://w3id.org/oseg/ont/otrl#OTRL6 -->
<g id="edge20" class="edge">
<title>https://w3id.org/oseg/ont/otrl#Otrl6&#45;&gt;https://w3id.org/oseg/ont/otrl#OTRL6</title>
<path fill="none" stroke="black" d="M254.29,-1130.35C314.47,-1099 463.19,-1030.95 540.92,-998.83"/>
<polygon fill="black" stroke="black" points="542.56,-1001.94 550.49,-994.91 539.91,-995.46 542.56,-1001.94"/>
<text text-anchor="middle" x="355.1" y="-1053.39" font-family="Times,serif" font-size="14.00">owl:sameAs</text>
</g>
<!-- https://w3id.org/oseg/ont/otrl#Otrl -->
<g id="node30" class="node">
<title>https://w3id.org/oseg/ont/otrl#Otrl</title>
<ellipse fill="none" stroke="black" cx="453.01" cy="-909.06" rx="188.18" ry="16.03"/>
<text text-anchor="middle" x="453.01" y="-905.36" font-family="Times,serif" font-size="14.00">https://w3id.org/oseg/ont/otrl#Otrl</text>
</g>
<!-- https://w3id.org/oseg/ont/otrl#Otrl&#45;&gt;https://w3id.org/oseg/ont/otrl#OTRL -->
<g id="edge7" class="edge">
<title>https://w3id.org/oseg/ont/otrl#Otrl&#45;&gt;https://w3id.org/oseg/ont/otrl#OTRL</title>
<path fill="none" stroke="black" d="M611.52,-900.25C671.65,-894.73 736.5,-887.86 781.9,-881.99"/>
<polygon fill="black" stroke="black" points="782.39,-885.46 791.85,-880.68 781.48,-878.52 782.39,-885.46"/>
<text text-anchor="middle" x="739.21" y="-894.92" font-family="Times,serif" font-size="14.00">owl:sameAs</text>
</g>
<!-- https://w3id.org/oseg/ont/otrl#Otrl&#45;&gt;https://w3id.org/oseg/ont/otrl#OTRL -->
<g id="edge33" class="edge">
<title>https://w3id.org/oseg/ont/otrl#Otrl&#45;&gt;https://w3id.org/oseg/ont/otrl#OTRL</title>
<path fill="none" stroke="black" d="M541,-894.66C610.31,-886.45 705.67,-877.28 770.16,-872.71"/>
<polygon fill="black" stroke="black" points="770.5,-876.2 780.24,-872.02 770.02,-869.21 770.5,-876.2"/>
<text text-anchor="middle" x="575.58" y="-872.49" font-family="Times,serif" font-size="14.00">schema:supersededBy</text>
</g>
<!-- https://w3id.org/oseg/ont/otrl#Odrl -->
<g id="node31" class="node">
<title>https://w3id.org/oseg/ont/otrl#Odrl</title>
<ellipse fill="none" stroke="black" cx="1295.58" cy="-153.21" rx="190.42" ry="16.03"/>
<text text-anchor="middle" x="1295.58" y="-149.51" font-family="Times,serif" font-size="14.00">https://w3id.org/oseg/ont/otrl#Odrl</text>
</g>
<!-- https://w3id.org/oseg/ont/otrl#Odrl&#45;&gt;https://w3id.org/oseg/ont/otrl#ODRL -->
<g id="edge10" class="edge">
<title>https://w3id.org/oseg/ont/otrl#Odrl&#45;&gt;https://w3id.org/oseg/ont/otrl#ODRL</title>
<path fill="none" stroke="black" d="M1296.67,-169.58C1306.52,-229.87 1358.13,-439.88 1381.01,-514.34"/>
<polygon fill="black" stroke="black" points="1377.81,-515.84 1384.17,-524.31 1384.49,-513.72 1377.81,-515.84"/>
<text text-anchor="middle" x="1418.84" y="-330.76" font-family="Times,serif" font-size="14.00">schema:supersededBy</text>
</g>
<!-- https://w3id.org/oseg/ont/otrl#Odrl&#45;&gt;https://w3id.org/oseg/ont/otrl#ODRL -->
<g id="edge32" class="edge">
<title>https://w3id.org/oseg/ont/otrl#Odrl&#45;&gt;https://w3id.org/oseg/ont/otrl#ODRL</title>
<path fill="none" stroke="black" d="M1302.73,-169.65C1322.61,-230.07 1374.7,-440.14 1388.49,-514.46"/>
<polygon fill="black" stroke="black" points="1385.06,-515.17 1390.24,-524.41 1391.96,-513.96 1385.06,-515.17"/>
<text text-anchor="middle" x="1388.11" y="-345.86" font-family="Times,serif" font-size="14.00">owl:sameAs</text>
</g>
<!-- https://w3id.org/oseg/ont/otrl#Otrl2 -->
<g id="node32" class="node">
<title>https://w3id.org/oseg/ont/otrl#Otrl2</title>
<ellipse fill="none" stroke="black" cx="424.21" cy="-1409.05" rx="194.41" ry="16.03"/>
<text text-anchor="middle" x="424.21" y="-1405.35" font-family="Times,serif" font-size="14.00">https://w3id.org/oseg/ont/otrl#Otrl2</text>
</g>
<!-- https://w3id.org/oseg/ont/otrl#Otrl2&#45;&gt;https://w3id.org/oseg/ont/otrl#OTRL2 -->
<g id="edge13" class="edge">
<title>https://w3id.org/oseg/ont/otrl#Otrl2&#45;&gt;https://w3id.org/oseg/ont/otrl#OTRL2</title>
<path fill="none" stroke="black" d="M438.87,-1392.61C479.29,-1338.78 590.65,-1168.1 627.71,-1103.46"/>
<polygon fill="black" stroke="black" points="630.78,-1105.15 632.63,-1094.72 624.68,-1101.72 630.78,-1105.15"/>
<text text-anchor="middle" x="490.79" y="-1251.83" font-family="Times,serif" font-size="14.00">owl:sameAs</text>
</g>
<!-- https://w3id.org/oseg/ont/otrl#Otrl2&#45;&gt;https://w3id.org/oseg/ont/otrl#OTRL2 -->
<g id="edge39" class="edge">
<title>https://w3id.org/oseg/ont/otrl#Otrl2&#45;&gt;https://w3id.org/oseg/ont/otrl#OTRL2</title>
<path fill="none" stroke="black" d="M431.24,-1392.78C460.68,-1339.01 572.28,-1167.2 619.06,-1102.91"/>
<polygon fill="black" stroke="black" points="622.09,-1104.7 625.22,-1094.58 616.46,-1100.54 622.09,-1104.7"/>
<text text-anchor="middle" x="445.15" y="-1236.65" font-family="Times,serif" font-size="14.00">schema:supersededBy</text>
</g>
<!-- https://w3id.org/oseg/ont/otrl#Odrl3 -->
<g id="node33" class="node">
<title>https://w3id.org/oseg/ont/otrl#Odrl3</title>
<ellipse fill="none" stroke="black" cx="2036.31" cy="-317.53" rx="196.65" ry="16.03"/>
<text text-anchor="middle" x="2036.31" y="-313.83" font-family="Times,serif" font-size="14.00">https://w3id.org/oseg/ont/otrl#Odrl3</text>
</g>
<!-- https://w3id.org/oseg/ont/otrl#Odrl3&#45;&gt;https://w3id.org/oseg/ont/otrl#ODRL3 -->
<g id="edge15" class="edge">
<title>https://w3id.org/oseg/ont/otrl#Odrl3&#45;&gt;https://w3id.org/oseg/ont/otrl#ODRL3</title>
<path fill="none" stroke="black" d="M1977.93,-333.06C1900.41,-358.04 1765.65,-406.35 1699.36,-433.12"/>
<polygon fill="black" stroke="black" points="1698.02,-429.89 1690.09,-436.91 1700.67,-436.37 1698.02,-429.89"/>
<text text-anchor="middle" x="1796.14" y="-386.89" font-family="Times,serif" font-size="14.00">owl:sameAs</text>
</g>
<!-- https://w3id.org/oseg/ont/otrl#Odrl3&#45;&gt;https://w3id.org/oseg/ont/otrl#ODRL3 -->
<g id="edge29" class="edge">
<title>https://w3id.org/oseg/ont/otrl#Odrl3&#45;&gt;https://w3id.org/oseg/ont/otrl#ODRL3</title>
<path fill="none" stroke="black" d="M2003.32,-333.65C1939.2,-359.96 1797.12,-410.97 1717.38,-436.61"/>
<polygon fill="black" stroke="black" points="1715.97,-433.38 1707.5,-439.75 1718.09,-440.05 1715.97,-433.38"/>
<text text-anchor="middle" x="1940.35" y="-388.93" font-family="Times,serif" font-size="14.00">schema:supersededBy</text>
</g>
<!-- https://w3id.org/oseg/ont/otrl#Odrl1 -->
<g id="node34" class="node">
<title>https://w3id.org/oseg/ont/otrl#Odrl1</title>
<ellipse fill="none" stroke="black" cx="1596.5" cy="-717.25" rx="196.65" ry="16.03"/>
<text text-anchor="middle" x="1596.5" y="-713.55" font-family="Times,serif" font-size="14.00">https://w3id.org/oseg/ont/otrl#Odrl1</text>
</g>
<!-- https://w3id.org/oseg/ont/otrl#Odrl1&#45;&gt;https://w3id.org/oseg/ont/otrl#ODRL1 -->
<g id="edge17" class="edge">
<title>https://w3id.org/oseg/ont/otrl#Odrl1&#45;&gt;https://w3id.org/oseg/ont/otrl#ODRL1</title>
<path fill="none" stroke="black" d="M1588.18,-700.78C1587.69,-700.22 1587.19,-699.66 1586.67,-699.1"/>
<polygon fill="black" stroke="black" points="1588.98,-696.45 1579.47,-691.79 1583.99,-701.37 1588.98,-696.45"/>
<text text-anchor="middle" x="1667.42" y="-688.74" font-family="Times,serif" font-size="14.00">schema:supersededBy</text>
</g>
<!-- https://w3id.org/oseg/ont/otrl#Odrl1&#45;&gt;https://w3id.org/oseg/ont/otrl#ODRL1 -->
<g id="edge51" class="edge">
<title>https://w3id.org/oseg/ont/otrl#Odrl1&#45;&gt;https://w3id.org/oseg/ont/otrl#ODRL1</title>
<path fill="none" stroke="black" d="M1569.47,-700.9C1569.3,-700.73 1569.13,-700.57 1568.96,-700.4"/>
<polygon fill="black" stroke="black" points="1571.27,-697.76 1561.85,-692.91 1566.19,-702.57 1571.27,-697.76"/>
<text text-anchor="middle" x="1526.72" y="-689.45" font-family="Times,serif" font-size="14.00">owl:sameAs</text>
</g>
<!-- https://w3id.org/oseg/ont/otrl#Otrl5 -->
<g id="node35" class="node">
<title>https://w3id.org/oseg/ont/otrl#Otrl5</title>
<ellipse fill="none" stroke="black" cx="655.74" cy="-640.68" rx="194.41" ry="16.03"/>
<text text-anchor="middle" x="655.74" y="-636.98" font-family="Times,serif" font-size="14.00">https://w3id.org/oseg/ont/otrl#Otrl5</text>
</g>
<!-- https://w3id.org/oseg/ont/otrl#Otrl5&#45;&gt;https://w3id.org/oseg/ont/otrl#OTRL5 -->
<g id="edge19" class="edge">
<title>https://w3id.org/oseg/ont/otrl#Otrl5&#45;&gt;https://w3id.org/oseg/ont/otrl#OTRL5</title>
<path fill="none" stroke="black" d="M661.62,-656.98C662.05,-657.58 662.49,-658.19 662.94,-658.8"/>
<polygon fill="black" stroke="black" points="660.37,-661.19 669.39,-666.76 665.81,-656.78 660.37,-661.19"/>
<text text-anchor="middle" x="582.28" y="-661.69" font-family="Times,serif" font-size="14.00">schema:supersededBy</text>
</g>
<!-- https://w3id.org/oseg/ont/otrl#Otrl5&#45;&gt;https://w3id.org/oseg/ont/otrl#OTRL5 -->
<g id="edge53" class="edge">
<title>https://w3id.org/oseg/ont/otrl#Otrl5&#45;&gt;https://w3id.org/oseg/ont/otrl#OTRL5</title>
<path fill="none" stroke="black" d="M678.81,-657.02C679.04,-657.29 679.28,-657.57 679.51,-657.84"/>
<polygon fill="black" stroke="black" points="676.88,-660.16 685.78,-665.9 682.4,-655.86 676.88,-660.16"/>
<text text-anchor="middle" x="721.66" y="-661.23" font-family="Times,serif" font-size="14.00">owl:sameAs</text>
</g>
<!-- https://w3id.org/oseg/ont/otrl#Odrl3Star -->
<g id="node36" class="node">
<title>https://w3id.org/oseg/ont/otrl#Odrl3Star</title>
<ellipse fill="none" stroke="black" cx="2133.67" cy="-691.84" rx="218.49" ry="16.03"/>
<text text-anchor="middle" x="2133.67" y="-688.14" font-family="Times,serif" font-size="14.00">https://w3id.org/oseg/ont/otrl#Odrl3Star</text>
</g>
<!-- https://w3id.org/oseg/ont/otrl#Odrl3Star&#45;&gt;https://w3id.org/oseg/ont/otrl#ODRL3Star -->
<g id="edge21" class="edge">
<title>https://w3id.org/oseg/ont/otrl#Odrl3Star&#45;&gt;https://w3id.org/oseg/ont/otrl#ODRL3Star</title>
<path fill="none" stroke="black" d="M2082.75,-675.97C2008.27,-656.93 1868.89,-626.03 1780.4,-608.72"/>
<polygon fill="black" stroke="black" points="1780.89,-605.25 1770.4,-606.78 1779.56,-612.12 1780.89,-605.25"/>
<text text-anchor="middle" x="1889.07" y="-631.14" font-family="Times,serif" font-size="14.00">owl:sameAs</text>
</g>
<!-- https://w3id.org/oseg/ont/otrl#Odrl3Star&#45;&gt;https://w3id.org/oseg/ont/otrl#ODRL3Star -->
<g id="edge45" class="edge">
<title>https://w3id.org/oseg/ont/otrl#Odrl3Star&#45;&gt;https://w3id.org/oseg/ont/otrl#ODRL3Star</title>
<path fill="none" stroke="black" d="M2040.45,-677.12C1953.12,-659.73 1825.63,-631.39 1753.95,-613.18"/>
<polygon fill="black" stroke="black" points="1754.77,-609.78 1744.21,-610.68 1753.03,-616.56 1754.77,-609.78"/>
<text text-anchor="middle" x="1817.2" y="-648.95" font-family="Times,serif" font-size="14.00">schema:supersededBy</text>
</g>
<!-- https://w3id.org/oseg/ont/otrl#Otrl3 -->
<g id="node37" class="node">
<title>https://w3id.org/oseg/ont/otrl#Otrl3</title>
<ellipse fill="none" stroke="black" cx="1134.14" cy="-1457.81" rx="194.41" ry="16.03"/>
<text text-anchor="middle" x="1134.14" y="-1454.11" font-family="Times,serif" font-size="14.00">https://w3id.org/oseg/ont/otrl#Otrl3</text>
</g>
<!-- https://w3id.org/oseg/ont/otrl#Otrl3&#45;&gt;https://w3id.org/oseg/ont/otrl#OTRL3 -->
<g id="edge23" class="edge">
<title>https://w3id.org/oseg/ont/otrl#Otrl3&#45;&gt;https://w3id.org/oseg/ont/otrl#OTRL3</title>
<path fill="none" stroke="black" d="M1132.88,-1441.25C1122.48,-1381.55 1070.07,-1177.24 1046.77,-1104.17"/>
<polygon fill="black" stroke="black" points="1049.99,-1102.78 1043.55,-1094.38 1043.34,-1104.97 1049.99,-1102.78"/>
<text text-anchor="middle" x="1047.32" y="-1261.51" font-family="Times,serif" font-size="14.00">owl:sameAs</text>
</g>
<!-- https://w3id.org/oseg/ont/otrl#Otrl3&#45;&gt;https://w3id.org/oseg/ont/otrl#OTRL3 -->
<g id="edge48" class="edge">
<title>https://w3id.org/oseg/ont/otrl#Otrl3&#45;&gt;https://w3id.org/oseg/ont/otrl#OTRL3</title>
<path fill="none" stroke="black" d="M1126.74,-1441.26C1106.47,-1381.7 1053.76,-1178.06 1039.34,-1104.61"/>
<polygon fill="black" stroke="black" points="1042.7,-1103.55 1037.43,-1094.36 1035.82,-1104.84 1042.7,-1103.55"/>
<text text-anchor="middle" x="1003.04" y="-1276.73" font-family="Times,serif" font-size="14.00">schema:supersededBy</text>
</g>
<!-- https://w3id.org/oseg/ont/otrl#Odrl5 -->
<g id="node38" class="node">
<title>https://w3id.org/oseg/ont/otrl#Odrl5</title>
<ellipse fill="none" stroke="black" cx="1446.59" cy="-233.78" rx="196.65" ry="16.03"/>
<text text-anchor="middle" x="1446.59" y="-230.08" font-family="Times,serif" font-size="14.00">https://w3id.org/oseg/ont/otrl#Odrl5</text>
</g>
<!-- https://w3id.org/oseg/ont/otrl#Odrl5&#45;&gt;https://w3id.org/oseg/ont/otrl#Odrl4 -->
<g id="edge26" class="edge">
<title>https://w3id.org/oseg/ont/otrl#Odrl5&#45;&gt;https://w3id.org/oseg/ont/otrl#Odrl4</title>
<path fill="none" stroke="black" d="M1433.6,-250.4C1433.54,-250.55 1433.49,-250.71 1433.43,-250.86"/>
<polygon fill="black" stroke="black" points="1430.88,-247.28 1431.24,-257.87 1437.56,-249.37 1430.88,-247.28"/>
<text text-anchor="middle" x="1476.02" y="-254.43" font-family="Times,serif" font-size="14.00">owl:sameAs</text>
</g>
<!-- https://w3id.org/oseg/ont/otrl#Odrl5&#45;&gt;https://w3id.org/oseg/ont/otrl#Odrl4 -->
<g id="edge37" class="edge">
<title>https://w3id.org/oseg/ont/otrl#Odrl5&#45;&gt;https://w3id.org/oseg/ont/otrl#Odrl4</title>
<path fill="none" stroke="black" d="M1447.7,-250.11C1447.68,-250.2 1447.66,-250.28 1447.64,-250.37"/>
<polygon fill="black" stroke="black" points="1444.79,-247.81 1445.05,-258.4 1451.45,-249.96 1444.79,-247.81"/>
<text text-anchor="middle" x="1367.67" y="-254.04" font-family="Times,serif" font-size="14.00">schema:supersededBy</text>
</g>
<!-- https://w3id.org/oseg/ont/otrl#Odrl2 -->
<g id="node39" class="node">
<title>https://w3id.org/oseg/ont/otrl#Odrl2</title>
<ellipse fill="none" stroke="black" cx="1831.94" cy="-16.43" rx="196.65" ry="16.03"/>
<text text-anchor="middle" x="1831.94" y="-12.73" font-family="Times,serif" font-size="14.00">https://w3id.org/oseg/ont/otrl#Odrl2</text>
</g>
<!-- https://w3id.org/oseg/ont/otrl#Odrl2&#45;&gt;https://w3id.org/oseg/ont/otrl#ODRL2 -->
<g id="edge28" class="edge">
<title>https://w3id.org/oseg/ont/otrl#Odrl2&#45;&gt;https://w3id.org/oseg/ont/otrl#ODRL2</title>
<path fill="none" stroke="black" d="M1815.04,-32.8C1769.25,-84.94 1644.18,-246.87 1601.48,-309.08"/>
<polygon fill="black" stroke="black" points="1598.49,-307.26 1595.8,-317.51 1604.29,-311.18 1598.49,-307.26"/>
<text text-anchor="middle" x="1665.76" y="-174.74" font-family="Times,serif" font-size="14.00">owl:sameAs</text>
</g>
<!-- https://w3id.org/oseg/ont/otrl#Odrl2&#45;&gt;https://w3id.org/oseg/ont/otrl#ODRL2 -->
<g id="edge50" class="edge">
<title>https://w3id.org/oseg/ont/otrl#Odrl2&#45;&gt;https://w3id.org/oseg/ont/otrl#ODRL2</title>
<path fill="none" stroke="black" d="M1823.18,-32.74C1788.63,-85.12 1662.81,-248.66 1610.27,-310.11"/>
<polygon fill="black" stroke="black" points="1607.55,-307.9 1603.65,-317.75 1612.84,-312.49 1607.55,-307.9"/>
<text text-anchor="middle" x="1796.73" y="-175.23" font-family="Times,serif" font-size="14.00">schema:supersededBy</text>
</g>
<!-- https://w3id.org/oseg/ont/otrl#Otrl1 -->
<g id="node40" class="node">
<title>https://w3id.org/oseg/ont/otrl#Otrl1</title>
<ellipse fill="none" stroke="black" cx="834.07" cy="-1119.08" rx="194.41" ry="16.03"/>
<text text-anchor="middle" x="834.07" y="-1115.38" font-family="Times,serif" font-size="14.00">https://w3id.org/oseg/ont/otrl#Otrl1</text>
</g>
<!-- https://w3id.org/oseg/ont/otrl#Otrl1&#45;&gt;https://w3id.org/oseg/ont/otrl#OTRL1 -->
<g id="edge30" class="edge">
<title>https://w3id.org/oseg/ont/otrl#Otrl1&#45;&gt;https://w3id.org/oseg/ont/otrl#OTRL1</title>
<path fill="none" stroke="black" d="M840.52,-1102.64C840.53,-1102.55 840.53,-1102.46 840.54,-1102.37"/>
<polygon fill="black" stroke="black" points="844.06,-1103.79 840.43,-1093.83 837.06,-1103.88 844.06,-1103.79"/>
<text text-anchor="middle" x="883.03" y="-1091.3" font-family="Times,serif" font-size="14.00">owl:sameAs</text>
</g>
<!-- https://w3id.org/oseg/ont/otrl#Otrl1&#45;&gt;https://w3id.org/oseg/ont/otrl#OTRL1 -->
<g id="edge42" class="edge">
<title>https://w3id.org/oseg/ont/otrl#Otrl1&#45;&gt;https://w3id.org/oseg/ont/otrl#OTRL1</title>
<path fill="none" stroke="black" d="M827.29,-1102.77C827.28,-1102.68 827.28,-1102.59 827.27,-1102.5"/>
<polygon fill="black" stroke="black" points="830.78,-1103.94 827.21,-1093.96 823.78,-1103.99 830.78,-1103.94"/>
<text text-anchor="middle" x="747.28" y="-1091.43" font-family="Times,serif" font-size="14.00">schema:supersededBy</text>
</g>
</g>
</svg>
