<?xml version="1.0" encoding="UTF-8" standalone="no"?>
<!DOCTYPE svg PUBLIC "-//W3C//DTD SVG 1.1//EN"
 "http://www.w3.org/Graphics/SVG/1.1/DTD/svg11.dtd">
<!-- Generated by graphviz version 2.43.0 (0)
 -->
<!-- Title: G Pages: 1 -->
<svg width="2193pt" height="1527pt"
 viewBox="0.00 0.00 2193.00 1527.00" xmlns="http://www.w3.org/2000/svg" xmlns:xlink="http://www.w3.org/1999/xlink">
<g id="graph0" class="graph" transform="scale(1 1) rotate(0) translate(4 1523)">
<title>G</title>
<polygon fill="white" stroke="transparent" points="-4,4 -4,-1523 2189,-1523 2189,4 -4,4"/>
<!-- http://www.w3.org/2004/02/skos/core#Concept -->
<g id="node1" class="node">
<title>http://www.w3.org/2004/02/skos/core#Concept</title>
<ellipse fill="none" stroke="#1f77b4" cx="1365.7" cy="-716.49" rx="78.48" ry="16.03"/>
<text text-anchor="middle" x="1365.7" y="-712.79" font-family="Times,serif" font-size="14.00">skos:Concept</text>
</g>
<!-- http://w3id.org/oseg/ont/okh#FileUrl -->
<g id="node2" class="node">
<title>http://w3id.org/oseg/ont/okh#FileUrl</title>
<ellipse fill="none" stroke="#1f77b4" cx="1801.57" cy="-320.54" rx="68.68" ry="16.03"/>
<text text-anchor="middle" x="1801.57" y="-316.84" font-family="Times,serif" font-size="14.00">okh:FileUrl</text>
</g>
<!-- http://w3id.org/oseg/ont/okh#ComponentReference -->
<g id="node4" class="node">
<title>http://w3id.org/oseg/ont/okh#ComponentReference</title>
<ellipse fill="none" stroke="#e377c2" cx="1508.51" cy="-392.17" rx="123.07" ry="16.03"/>
<text text-anchor="middle" x="1508.51" y="-388.47" font-family="Times,serif" font-size="14.00">okh:ComponentRefe...</text>
</g>
<!-- http://w3id.org/oseg/ont/okh#FileUrl&#45;&gt;http://w3id.org/oseg/ont/okh#ComponentReference -->
<g id="edge16" class="edge">
<title>http://w3id.org/oseg/ont/okh#FileUrl&#45;&gt;http://w3id.org/oseg/ont/okh#ComponentReference</title>
<path fill="none" stroke="black" d="M1753.51,-332.29C1705.5,-344.02 1631.26,-362.16 1577.08,-375.41"/>
<polygon fill="black" stroke="black" points="1576.09,-372.04 1567.21,-377.82 1577.76,-378.84 1576.09,-372.04"/>
</g>
<!-- http://schema.org/URL -->
<g id="node5" class="node">
<title>http://schema.org/URL</title>
<ellipse fill="none" stroke="#e377c2" cx="2036.3" cy="-221.7" rx="75.82" ry="16.03"/>
<text text-anchor="middle" x="2036.3" y="-218" font-family="Times,serif" font-size="14.00">schema:URL</text>
</g>
<!-- http://w3id.org/oseg/ont/okh#FileUrl&#45;&gt;http://schema.org/URL -->
<g id="edge5" class="edge">
<title>http://w3id.org/oseg/ont/okh#FileUrl&#45;&gt;http://schema.org/URL</title>
<path fill="none" stroke="black" d="M1835.45,-306.27C1876.82,-288.85 1946.87,-259.36 1992.35,-240.21"/>
<polygon fill="black" stroke="black" points="1993.8,-243.39 2001.66,-236.29 1991.09,-236.94 1993.8,-243.39"/>
</g>
<!-- http://w3id.org/oseg/ont/okh#File -->
<g id="node12" class="node">
<title>http://w3id.org/oseg/ont/okh#File</title>
<ellipse fill="none" stroke="#e377c2" cx="1865.75" cy="-491.05" rx="52.15" ry="16.03"/>
<text text-anchor="middle" x="1865.75" y="-487.35" font-family="Times,serif" font-size="14.00">okh:File</text>
</g>
<!-- http://w3id.org/oseg/ont/okh#FileUrl&#45;&gt;http://w3id.org/oseg/ont/okh#File -->
<g id="edge29" class="edge">
<title>http://w3id.org/oseg/ont/okh#FileUrl&#45;&gt;http://w3id.org/oseg/ont/okh#File</title>
<path fill="none" stroke="black" d="M1807.72,-336.89C1818.89,-366.55 1842.57,-429.45 1855.97,-465.06"/>
<polygon fill="black" stroke="black" points="1852.82,-466.62 1859.61,-474.75 1859.37,-464.16 1852.82,-466.62"/>
<text text-anchor="middle" x="1751.85" y="-404.77" font-family="Times,serif" font-size="14.00">schema:supersededBy</text>
</g>
<!-- http://w3id.org/oseg/ont/okh#Reference -->
<g id="node3" class="node">
<title>http://w3id.org/oseg/ont/okh#Reference</title>
<ellipse fill="none" stroke="#e377c2" cx="1533.73" cy="-98.43" rx="84.29" ry="16.03"/>
<text text-anchor="middle" x="1533.73" y="-94.73" font-family="Times,serif" font-size="14.00">okh:Reference</text>
</g>
<!-- http://w3id.org/oseg/ont/okh#ComponentReference&#45;&gt;http://www.w3.org/2004/02/skos/core#Concept -->
<g id="edge28" class="edge">
<title>http://w3id.org/oseg/ont/okh#ComponentReference&#45;&gt;http://www.w3.org/2004/02/skos/core#Concept</title>
<path fill="none" stroke="black" d="M1501.23,-408.7C1477.98,-461.51 1405.35,-626.44 1377.1,-690.6"/>
<polygon fill="black" stroke="black" points="1373.79,-689.43 1372.96,-700 1380.2,-692.25 1373.79,-689.43"/>
<text text-anchor="middle" x="1434.67" y="-553.45" font-family="Times,serif" font-size="14.00">a</text>
</g>
<!-- http://w3id.org/oseg/ont/okh#ComponentReference&#45;&gt;http://w3id.org/oseg/ont/okh#Reference -->
<g id="edge38" class="edge">
<title>http://w3id.org/oseg/ont/okh#ComponentReference&#45;&gt;http://w3id.org/oseg/ont/okh#Reference</title>
<path fill="none" stroke="black" d="M1509.93,-375.53C1514.11,-326.86 1526.34,-184.42 1531.45,-124.97"/>
<polygon fill="black" stroke="black" points="1534.95,-125.14 1532.32,-114.88 1527.97,-124.54 1534.95,-125.14"/>
</g>
<!-- http://w3id.org/oseg/ont/okhmetaPartsTag -->
<g id="node11" class="node">
<title>http://w3id.org/oseg/ont/okhmetaPartsTag</title>
<ellipse fill="none" stroke="#e377c2" cx="1332.1" cy="-125.19" rx="103.48" ry="16.03"/>
<text text-anchor="middle" x="1332.1" y="-121.49" font-family="Times,serif" font-size="14.00">okhmeta:PartsTag</text>
</g>
<!-- http://w3id.org/oseg/ont/okh#ComponentReference&#45;&gt;http://w3id.org/oseg/ont/okhmetaPartsTag -->
<g id="edge6" class="edge">
<title>http://w3id.org/oseg/ont/okh#ComponentReference&#45;&gt;http://w3id.org/oseg/ont/okhmetaPartsTag</title>
<path fill="none" stroke="black" d="M1497.74,-375.87C1467.97,-330.81 1384.4,-204.34 1348.66,-150.25"/>
<polygon fill="black" stroke="black" points="1351.38,-148.03 1342.95,-141.61 1345.54,-151.89 1351.38,-148.03"/>
<text text-anchor="middle" x="1346.2" y="-266.86" font-family="Times,serif" font-size="14.00">okhmeta:hasMetaTag</text>
</g>
<!-- http://w3id.org/oseg/ont/okh#Mass -->
<g id="node6" class="node">
<title>http://w3id.org/oseg/ont/okh#Mass</title>
<ellipse fill="none" stroke="#e377c2" cx="1025.25" cy="-716.09" rx="59.29" ry="16.03"/>
<text text-anchor="middle" x="1025.25" y="-712.39" font-family="Times,serif" font-size="14.00">okh:Mass</text>
</g>
<!-- http://w3id.org/oseg/ont/okh#Mass&#45;&gt;http://www.w3.org/2004/02/skos/core#Concept -->
<g id="edge37" class="edge">
<title>http://w3id.org/oseg/ont/okh#Mass&#45;&gt;http://www.w3.org/2004/02/skos/core#Concept</title>
<path fill="none" stroke="black" d="M1084.94,-716.16C1138.03,-716.22 1216.39,-716.31 1276.85,-716.39"/>
<polygon fill="black" stroke="black" points="1277.15,-719.89 1287.15,-716.4 1277.16,-712.89 1277.15,-719.89"/>
<text text-anchor="middle" x="1176.4" y="-720.07" font-family="Times,serif" font-size="14.00">a</text>
</g>
<!-- http://w3id.org/oseg/ont/okhmetaTransportationTag -->
<g id="node9" class="node">
<title>http://w3id.org/oseg/ont/okhmetaTransportationTag</title>
<ellipse fill="none" stroke="#e377c2" cx="986.13" cy="-674.15" rx="118.17" ry="16.03"/>
<text text-anchor="middle" x="986.13" y="-670.45" font-family="Times,serif" font-size="14.00">okhmeta:Transport...</text>
</g>
<!-- http://w3id.org/oseg/ont/okh#Mass&#45;&gt;http://w3id.org/oseg/ont/okhmetaTransportationTag -->
<g id="edge4" class="edge">
<title>http://w3id.org/oseg/ont/okh#Mass&#45;&gt;http://w3id.org/oseg/ont/okhmetaTransportationTag</title>
<path fill="none" stroke="black" d="M1010.24,-699.99C1009.59,-699.31 1008.95,-698.61 1008.29,-697.91"/>
<polygon fill="black" stroke="black" points="1010.68,-695.33 1001.3,-690.41 1005.56,-700.11 1010.68,-695.33"/>
<text text-anchor="middle" x="932.27" y="-702.75" font-family="Times,serif" font-size="14.00">okhmeta:hasMetaTag</text>
</g>
<!-- http://w3id.org/oseg/ont/okhmetaPhysicalTag -->
<g id="node32" class="node">
<title>http://w3id.org/oseg/ont/okhmetaPhysicalTag</title>
<ellipse fill="none" stroke="#e377c2" cx="875.56" cy="-484.85" rx="118.17" ry="16.03"/>
<text text-anchor="middle" x="875.56" y="-481.15" font-family="Times,serif" font-size="14.00">okhmeta:PhysicalTag</text>
</g>
<!-- http://w3id.org/oseg/ont/okh#Mass&#45;&gt;http://w3id.org/oseg/ont/okhmetaPhysicalTag -->
<g id="edge26" class="edge">
<title>http://w3id.org/oseg/ont/okh#Mass&#45;&gt;http://w3id.org/oseg/ont/okhmetaPhysicalTag</title>
<path fill="none" stroke="black" d="M1014.72,-699.83C988.9,-659.94 922.3,-557.06 891.55,-509.56"/>
<polygon fill="black" stroke="black" points="894.45,-507.59 886.07,-501.09 888.57,-511.39 894.45,-507.59"/>
<text text-anchor="middle" x="876.14" y="-608.49" font-family="Times,serif" font-size="14.00">okhmeta:hasMetaTag</text>
</g>
<!-- http://w3id.org/oseg/ont/okh#height -->
<g id="node7" class="node">
<title>http://w3id.org/oseg/ont/okh#height</title>
<ellipse fill="none" stroke="#e377c2" cx="92.47" cy="-1333.24" rx="65.11" ry="16.03"/>
<text text-anchor="middle" x="92.47" y="-1329.54" font-family="Times,serif" font-size="14.00">okh:height</text>
</g>
<!-- http://schema.org/license -->
<g id="node8" class="node">
<title>http://schema.org/license</title>
<ellipse fill="none" stroke="#e377c2" cx="1898.64" cy="-995.01" rx="88.28" ry="16.03"/>
<text text-anchor="middle" x="1898.64" y="-991.31" font-family="Times,serif" font-size="14.00">schema:license</text>
</g>
<!-- http://w3id.org/oseg/ont/okh#alternativeLicense -->
<g id="node10" class="node">
<title>http://w3id.org/oseg/ont/okh#alternativeLicense</title>
<ellipse fill="none" stroke="#e377c2" cx="1718.66" cy="-780.56" rx="107.46" ry="16.03"/>
<text text-anchor="middle" x="1718.66" y="-776.86" font-family="Times,serif" font-size="14.00">okh:alternativeLi...</text>
</g>
<!-- http://w3id.org/oseg/ont/okh#alternativeLicense&#45;&gt;http://www.w3.org/2004/02/skos/core#Concept -->
<g id="edge39" class="edge">
<title>http://w3id.org/oseg/ont/okh#alternativeLicense&#45;&gt;http://www.w3.org/2004/02/skos/core#Concept</title>
<path fill="none" stroke="black" d="M1649.77,-768.05C1587.72,-756.79 1496.98,-740.32 1434.85,-729.04"/>
<polygon fill="black" stroke="black" points="1435.21,-725.55 1424.75,-727.21 1433.96,-732.44 1435.21,-725.55"/>
<text text-anchor="middle" x="1537.81" y="-752.35" font-family="Times,serif" font-size="14.00">a</text>
</g>
<!-- http://w3id.org/oseg/ont/okh#alternativeLicense&#45;&gt;http://schema.org/license -->
<g id="edge3" class="edge">
<title>http://w3id.org/oseg/ont/okh#alternativeLicense&#45;&gt;http://schema.org/license</title>
<path fill="none" stroke="black" d="M1732.48,-797.03C1764.03,-834.62 1841.47,-926.89 1878.4,-970.9"/>
<polygon fill="black" stroke="black" points="1875.91,-973.37 1885.02,-978.78 1881.27,-968.87 1875.91,-973.37"/>
<text text-anchor="middle" x="1834.94" y="-872.76" font-family="Times,serif" font-size="14.00">skos:closeMatch</text>
</g>
<!-- http://w3id.org/oseg/ont/okh#alternativeLicense&#45;&gt;http://w3id.org/oseg/ont/okh#File -->
<g id="edge33" class="edge">
<title>http://w3id.org/oseg/ont/okh#alternativeLicense&#45;&gt;http://w3id.org/oseg/ont/okh#File</title>
<path fill="none" stroke="black" d="M1726.99,-764.16C1751.46,-715.99 1823.28,-574.64 1852.82,-516.49"/>
<polygon fill="black" stroke="black" points="1856.1,-517.76 1857.51,-507.26 1849.86,-514.59 1856.1,-517.76"/>
<text text-anchor="middle" x="1717.41" y="-644.12" font-family="Times,serif" font-size="14.00">dcam:rangeIncludes</text>
</g>
<!-- http://w3id.org/oseg/ont/okh#license -->
<g id="node25" class="node">
<title>http://w3id.org/oseg/ont/okh#license</title>
<ellipse fill="none" stroke="#e377c2" cx="1914.42" cy="-893.18" rx="67.76" ry="16.03"/>
<text text-anchor="middle" x="1914.42" y="-889.48" font-family="Times,serif" font-size="14.00">okh:license</text>
</g>
<!-- http://w3id.org/oseg/ont/okh#alternativeLicense&#45;&gt;http://w3id.org/oseg/ont/okh#license -->
<g id="edge17" class="edge">
<title>http://w3id.org/oseg/ont/okh#alternativeLicense&#45;&gt;http://w3id.org/oseg/ont/okh#license</title>
<path fill="none" stroke="black" d="M1746.29,-796.45C1781.22,-816.55 1841.38,-851.16 1879.47,-873.07"/>
<polygon fill="black" stroke="black" points="1877.77,-876.13 1888.18,-878.09 1881.26,-870.07 1877.77,-876.13"/>
<text text-anchor="middle" x="1892.88" y="-838.56" font-family="Times,serif" font-size="14.00">schema:supersededBy</text>
</g>
<!-- http://w3id.org/oseg/ont/okhmetaLegalTag -->
<g id="node26" class="node">
<title>http://w3id.org/oseg/ont/okhmetaLegalTag</title>
<ellipse fill="none" stroke="#e377c2" cx="1744.75" cy="-830.89" rx="103.89" ry="16.03"/>
<text text-anchor="middle" x="1744.75" y="-827.19" font-family="Times,serif" font-size="14.00">okhmeta:LegalTag</text>
</g>
<!-- http://w3id.org/oseg/ont/okh#alternativeLicense&#45;&gt;http://w3id.org/oseg/ont/okhmetaLegalTag -->
<g id="edge18" class="edge">
<title>http://w3id.org/oseg/ont/okh#alternativeLicense&#45;&gt;http://w3id.org/oseg/ont/okhmetaLegalTag</title>
<path fill="none" stroke="black" d="M1727.2,-797.04C1728.61,-799.76 1730.1,-802.64 1731.6,-805.52"/>
<polygon fill="black" stroke="black" points="1728.57,-807.28 1736.28,-814.55 1734.78,-804.06 1728.57,-807.28"/>
<text text-anchor="middle" x="1652.4" y="-805.08" font-family="Times,serif" font-size="14.00">okhmeta:hasMetaTag</text>
</g>
<!-- http://w3id.org/oseg/ont/okh#Module -->
<g id="node28" class="node">
<title>http://w3id.org/oseg/ont/okh#Module</title>
<ellipse fill="none" stroke="#e377c2" cx="1784.26" cy="-1044.86" rx="70.92" ry="16.03"/>
<text text-anchor="middle" x="1784.26" y="-1041.16" font-family="Times,serif" font-size="14.00">okh:Module</text>
</g>
<!-- http://w3id.org/oseg/ont/okh#alternativeLicense&#45;&gt;http://w3id.org/oseg/ont/okh#Module -->
<g id="edge21" class="edge">
<title>http://w3id.org/oseg/ont/okh#alternativeLicense&#45;&gt;http://w3id.org/oseg/ont/okh#Module</title>
<path fill="none" stroke="black" d="M1722.76,-797.09C1733.81,-841.59 1764.23,-964.18 1777.7,-1018.43"/>
<polygon fill="black" stroke="black" points="1774.35,-1019.47 1780.16,-1028.33 1781.14,-1017.78 1774.35,-1019.47"/>
<text text-anchor="middle" x="1672.23" y="-911.56" font-family="Times,serif" font-size="14.00">dcam:domainIncludes</text>
</g>
<!-- http://w3id.org/oseg/ont/okh#permaURL -->
<g id="node13" class="node">
<title>http://w3id.org/oseg/ont/okh#permaURL</title>
<ellipse fill="none" stroke="#e377c2" cx="2096.88" cy="-486.25" rx="87.86" ry="16.03"/>
<text text-anchor="middle" x="2096.88" y="-482.55" font-family="Times,serif" font-size="14.00">okh:permaURL</text>
</g>
<!-- http://w3id.org/oseg/ont/okh#permaURL&#45;&gt;http://w3id.org/oseg/ont/okh#File -->
<g id="edge42" class="edge">
<title>http://w3id.org/oseg/ont/okh#permaURL&#45;&gt;http://w3id.org/oseg/ont/okh#File</title>
<path fill="none" stroke="black" d="M2009.5,-488.07C1982.42,-488.63 1953.14,-489.23 1928.12,-489.75"/>
<polygon fill="black" stroke="black" points="1927.96,-486.26 1918.04,-489.96 1928.11,-493.25 1927.96,-486.26"/>
<text text-anchor="middle" x="1929.81" y="-477.71" font-family="Times,serif" font-size="14.00">dcam:domainIncludes</text>
</g>
<!-- http://www.w3.org/2001/XMLSchema#string -->
<g id="node14" class="node">
<title>http://www.w3.org/2001/XMLSchema#string</title>
<ellipse fill="none" stroke="#e377c2" cx="144.92" cy="-1436.54" rx="62.87" ry="16.03"/>
<text text-anchor="middle" x="144.92" y="-1432.84" font-family="Times,serif" font-size="14.00">xsd:string</text>
</g>
<!-- http://w3id.org/oseg/ont/okh#spdxLicense -->
<g id="node15" class="node">
<title>http://w3id.org/oseg/ont/okh#spdxLicense</title>
<ellipse fill="none" stroke="#e377c2" cx="1667.92" cy="-872.87" rx="94.51" ry="16.03"/>
<text text-anchor="middle" x="1667.92" y="-869.17" font-family="Times,serif" font-size="14.00">okh:spdxLicense</text>
</g>
<!-- http://w3id.org/oseg/ont/okh#spdxLicense&#45;&gt;http://www.w3.org/2004/02/skos/core#Concept -->
<g id="edge9" class="edge">
<title>http://w3id.org/oseg/ont/okh#spdxLicense&#45;&gt;http://www.w3.org/2004/02/skos/core#Concept</title>
<path fill="none" stroke="black" d="M1637.83,-857.31C1582.59,-828.72 1465.07,-767.91 1404.14,-736.38"/>
<polygon fill="black" stroke="black" points="1405.71,-733.25 1395.22,-731.76 1402.49,-739.47 1405.71,-733.25"/>
<text text-anchor="middle" x="1516.48" y="-800.64" font-family="Times,serif" font-size="14.00">a</text>
</g>
<!-- http://w3id.org/oseg/ont/okh#spdxLicense&#45;&gt;http://schema.org/license -->
<g id="edge40" class="edge">
<title>http://w3id.org/oseg/ont/okh#spdxLicense&#45;&gt;http://schema.org/license</title>
<path fill="none" stroke="black" d="M1697.61,-888.59C1739.17,-910.59 1814.72,-950.58 1860.43,-974.78"/>
<polygon fill="black" stroke="black" points="1858.95,-977.96 1869.43,-979.55 1862.23,-971.77 1858.95,-977.96"/>
<text text-anchor="middle" x="1720.02" y="-935.49" font-family="Times,serif" font-size="14.00">skos:closeMatch</text>
</g>
<!-- http://w3id.org/oseg/ont/okh#spdxLicense&#45;&gt;http://w3id.org/oseg/ont/okh#license -->
<g id="edge31" class="edge">
<title>http://w3id.org/oseg/ont/okh#spdxLicense&#45;&gt;http://w3id.org/oseg/ont/okh#license</title>
<path fill="none" stroke="black" d="M1753.44,-879.92C1781.55,-882.24 1812.56,-884.79 1839.8,-887.03"/>
<polygon fill="black" stroke="black" points="1839.79,-890.55 1850.04,-887.88 1840.36,-883.57 1839.79,-890.55"/>
<text text-anchor="middle" x="1716.62" y="-887.28" font-family="Times,serif" font-size="14.00">schema:supersededBy</text>
</g>
<!-- http://w3id.org/oseg/ont/okh#spdxLicense&#45;&gt;http://w3id.org/oseg/ont/okhmetaLegalTag -->
<g id="edge32" class="edge">
<title>http://w3id.org/oseg/ont/okh#spdxLicense&#45;&gt;http://w3id.org/oseg/ont/okhmetaLegalTag</title>
<path fill="none" stroke="black" d="M1696.53,-857.24C1700.03,-855.33 1703.64,-853.35 1707.25,-851.38"/>
<polygon fill="black" stroke="black" points="1709.02,-854.4 1716.12,-846.54 1705.66,-848.26 1709.02,-854.4"/>
<text text-anchor="middle" x="1624.89" y="-843.11" font-family="Times,serif" font-size="14.00">okhmeta:hasMetaTag</text>
</g>
<!-- http://w3id.org/oseg/ont/okh#spdxLicense&#45;&gt;http://w3id.org/oseg/ont/okh#Module -->
<g id="edge20" class="edge">
<title>http://w3id.org/oseg/ont/okh#spdxLicense&#45;&gt;http://w3id.org/oseg/ont/okh#Module</title>
<path fill="none" stroke="black" d="M1678.86,-889.05C1699.3,-919.27 1743.39,-984.45 1767.57,-1020.18"/>
<polygon fill="black" stroke="black" points="1764.76,-1022.27 1773.26,-1028.59 1770.55,-1018.35 1764.76,-1022.27"/>
<text text-anchor="middle" x="1645.21" y="-958.42" font-family="Times,serif" font-size="14.00">dcam:domainIncludes</text>
</g>
<!-- http://spdx.org/rdf/terms#ListedLicense -->
<g id="node39" class="node">
<title>http://spdx.org/rdf/terms#ListedLicense</title>
<ellipse fill="none" stroke="#e377c2" cx="1700.21" cy="-1175.68" rx="108.38" ry="16.03"/>
<text text-anchor="middle" x="1700.21" y="-1171.98" font-family="Times,serif" font-size="14.00">spdx:ListedLicense</text>
</g>
<!-- http://w3id.org/oseg/ont/okh#spdxLicense&#45;&gt;http://spdx.org/rdf/terms#ListedLicense -->
<g id="edge41" class="edge">
<title>http://w3id.org/oseg/ont/okh#spdxLicense&#45;&gt;http://spdx.org/rdf/terms#ListedLicense</title>
<path fill="none" stroke="black" d="M1669.65,-889.15C1674.94,-938.75 1690.89,-1088.31 1697.4,-1149.33"/>
<polygon fill="black" stroke="black" points="1693.93,-1149.75 1698.47,-1159.32 1700.89,-1149.01 1693.93,-1149.75"/>
<text text-anchor="middle" x="1611.03" y="-1023.04" font-family="Times,serif" font-size="14.00">dcam:rangeIncludes</text>
</g>
<!-- http://w3id.org/oseg/ont/okh#okhvPresent -->
<g id="node16" class="node">
<title>http://w3id.org/oseg/ont/okh#okhvPresent</title>
<ellipse fill="none" stroke="#e377c2" cx="1246.66" cy="-1092.59" rx="96.33" ry="16.03"/>
<text text-anchor="middle" x="1246.66" y="-1088.89" font-family="Times,serif" font-size="14.00">okh:okhvPresent</text>
</g>
<!-- http://w3id.org/oseg/ont/okh#okhv -->
<g id="node17" class="node">
<title>http://w3id.org/oseg/ont/okh#okhv</title>
<ellipse fill="none" stroke="#e377c2" cx="1406.88" cy="-1151.08" rx="56.64" ry="16.03"/>
<text text-anchor="middle" x="1406.88" y="-1147.38" font-family="Times,serif" font-size="14.00">okh:okhv</text>
</g>
<!-- http://w3id.org/oseg/ont/okh#okhvPresent&#45;&gt;http://w3id.org/oseg/ont/okh#okhv -->
<g id="edge34" class="edge">
<title>http://w3id.org/oseg/ont/okh#okhvPresent&#45;&gt;http://w3id.org/oseg/ont/okh#okhv</title>
<path fill="none" stroke="black" d="M1287.09,-1107.35C1309.98,-1115.71 1338.66,-1126.18 1362.22,-1134.78"/>
<polygon fill="black" stroke="black" points="1361.04,-1138.08 1371.64,-1138.22 1363.44,-1131.5 1361.04,-1138.08"/>
<text text-anchor="middle" x="1271.65" y="-1124.87" font-family="Times,serif" font-size="14.00">subPropertyOf</text>
</g>
<!-- http://w3id.org/oseg/ont/okh#okhvOrig -->
<g id="node23" class="node">
<title>http://w3id.org/oseg/ont/okh#okhvOrig</title>
<ellipse fill="none" stroke="#e377c2" cx="1279.07" cy="-1051.71" rx="79.39" ry="16.03"/>
<text text-anchor="middle" x="1279.07" y="-1048.01" font-family="Times,serif" font-size="14.00">okh:okhvOrig</text>
</g>
<!-- http://w3id.org/oseg/ont/okh#okhvPresent&#45;&gt;http://w3id.org/oseg/ont/okh#okhvOrig -->
<g id="edge14" class="edge">
<title>http://w3id.org/oseg/ont/okh#okhvPresent&#45;&gt;http://w3id.org/oseg/ont/okh#okhvOrig</title>
<path fill="none" stroke="black" d="M1259.47,-1076.43C1259.61,-1076.26 1259.74,-1076.09 1259.88,-1075.91"/>
<polygon fill="black" stroke="black" points="1262.67,-1078.03 1266.14,-1068.02 1257.19,-1073.68 1262.67,-1078.03"/>
<text text-anchor="middle" x="1232.17" y="-1064.97" font-family="Times,serif" font-size="14.00">seeAlso</text>
</g>
<!-- http://w3id.org/oseg/ont/okh#depth -->
<g id="node18" class="node">
<title>http://w3id.org/oseg/ont/okh#depth</title>
<ellipse fill="none" stroke="#e377c2" cx="239.52" cy="-1500.55" rx="62.45" ry="16.03"/>
<text text-anchor="middle" x="239.52" y="-1496.85" font-family="Times,serif" font-size="14.00">okh:depth</text>
</g>
<!-- http://w3id.org/oseg/ont/okh#Dimensions -->
<g id="node19" class="node">
<title>http://w3id.org/oseg/ont/okh#Dimensions</title>
<ellipse fill="none" stroke="#e377c2" cx="581.35" cy="-1067.11" rx="91.85" ry="16.03"/>
<text text-anchor="middle" x="581.35" y="-1063.41" font-family="Times,serif" font-size="14.00">okh:Dimensions</text>
</g>
<!-- http://w3id.org/oseg/ont/okh#hasMass -->
<g id="node20" class="node">
<title>http://w3id.org/oseg/ont/okh#hasMass</title>
<ellipse fill="none" stroke="#e377c2" cx="601.05" cy="-542.17" rx="77.15" ry="16.03"/>
<text text-anchor="middle" x="601.05" y="-538.47" font-family="Times,serif" font-size="14.00">okh:hasMass</text>
</g>
<!-- http://w3id.org/oseg/ont/okh#fileUrl -->
<g id="node21" class="node">
<title>http://w3id.org/oseg/ont/okh#fileUrl</title>
<ellipse fill="none" stroke="#e377c2" cx="1870.86" cy="-245.62" rx="65.11" ry="16.03"/>
<text text-anchor="middle" x="1870.86" y="-241.92" font-family="Times,serif" font-size="14.00">okh:fileUrl</text>
</g>
<!-- http://w3id.org/oseg/ont/okh#fileUrl&#45;&gt;http://w3id.org/oseg/ont/okh#File -->
<g id="edge7" class="edge">
<title>http://w3id.org/oseg/ont/okh#fileUrl&#45;&gt;http://w3id.org/oseg/ont/okh#File</title>
<path fill="none" stroke="black" d="M1870.52,-262.11C1869.65,-303.76 1867.36,-413.53 1866.3,-464.43"/>
<polygon fill="black" stroke="black" points="1862.8,-464.56 1866.09,-474.63 1869.8,-464.71 1862.8,-464.56"/>
<text text-anchor="middle" x="1790.41" y="-367.07" font-family="Times,serif" font-size="14.00">dcam:domainIncludes</text>
</g>
<!-- http://w3id.org/oseg/ont/okh#url -->
<g id="node30" class="node">
<title>http://w3id.org/oseg/ont/okh#url</title>
<ellipse fill="none" stroke="#e377c2" cx="2004.63" cy="-77.29" rx="47.25" ry="16.03"/>
<text text-anchor="middle" x="2004.63" y="-73.59" font-family="Times,serif" font-size="14.00">okh:url</text>
</g>
<!-- http://w3id.org/oseg/ont/okh#fileUrl&#45;&gt;http://w3id.org/oseg/ont/okh#url -->
<g id="edge23" class="edge">
<title>http://w3id.org/oseg/ont/okh#fileUrl&#45;&gt;http://w3id.org/oseg/ont/okh#url</title>
<path fill="none" stroke="black" d="M1883.69,-229.48C1907.32,-199.74 1957.84,-136.17 1985.52,-101.33"/>
<polygon fill="black" stroke="black" points="1988.55,-103.14 1992.03,-93.13 1983.07,-98.79 1988.55,-103.14"/>
<text text-anchor="middle" x="1854.6" y="-169.21" font-family="Times,serif" font-size="14.00">schema:supersededBy</text>
</g>
<!-- http://schema.org/url -->
<g id="node37" class="node">
<title>http://schema.org/url</title>
<ellipse fill="none" stroke="#e377c2" cx="1887.26" cy="-16.52" rx="67.35" ry="16.03"/>
<text text-anchor="middle" x="1887.26" y="-12.82" font-family="Times,serif" font-size="14.00">schema:url</text>
</g>
<!-- http://w3id.org/oseg/ont/okh#fileUrl&#45;&gt;http://schema.org/url -->
<g id="edge35" class="edge">
<title>http://w3id.org/oseg/ont/okh#fileUrl&#45;&gt;http://schema.org/url</title>
<path fill="none" stroke="black" d="M1872.04,-229.15C1874.85,-189.93 1881.94,-90.76 1885.36,-43.01"/>
<polygon fill="black" stroke="black" points="1888.87,-43.07 1886.09,-32.84 1881.88,-42.57 1888.87,-43.07"/>
<text text-anchor="middle" x="1825.7" y="-139.88" font-family="Times,serif" font-size="14.00">subPropertyOf</text>
</g>
<!-- http://w3id.org/oseg/ont/okh#installationGuide -->
<g id="node22" class="node">
<title>http://w3id.org/oseg/ont/okh#installationGuide</title>
<ellipse fill="none" stroke="#e377c2" cx="1284.25" cy="-809.53" rx="106.55" ry="16.03"/>
<text text-anchor="middle" x="1284.25" y="-805.83" font-family="Times,serif" font-size="14.00">okh:installationG...</text>
</g>
<!-- http://w3id.org/oseg/ont/okh#installationGuide&#45;&gt;http://www.w3.org/2004/02/skos/core#Concept -->
<g id="edge25" class="edge">
<title>http://w3id.org/oseg/ont/okh#installationGuide&#45;&gt;http://www.w3.org/2004/02/skos/core#Concept</title>
<path fill="none" stroke="black" d="M1298.44,-793.33C1311.28,-778.65 1330.37,-756.85 1344.94,-740.21"/>
<polygon fill="black" stroke="black" points="1347.72,-742.34 1351.68,-732.51 1342.46,-737.73 1347.72,-742.34"/>
<text text-anchor="middle" x="1317.19" y="-770.57" font-family="Times,serif" font-size="14.00">a</text>
</g>
<!-- http://w3id.org/oseg/ont/okh#Software -->
<g id="node31" class="node">
<title>http://w3id.org/oseg/ont/okh#Software</title>
<ellipse fill="none" stroke="#e377c2" cx="1245.68" cy="-854.24" rx="78.48" ry="16.03"/>
<text text-anchor="middle" x="1245.68" y="-850.54" font-family="Times,serif" font-size="14.00">okh:Software</text>
</g>
<!-- http://w3id.org/oseg/ont/okh#installationGuide&#45;&gt;http://w3id.org/oseg/ont/okh#Software -->
<g id="edge24" class="edge">
<title>http://w3id.org/oseg/ont/okh#installationGuide&#45;&gt;http://w3id.org/oseg/ont/okh#Software</title>
<path fill="none" stroke="black" d="M1270.33,-825.67C1269.03,-827.17 1267.7,-828.71 1266.36,-830.27"/>
<polygon fill="black" stroke="black" points="1263.6,-828.11 1259.71,-837.97 1268.9,-832.69 1263.6,-828.11"/>
<text text-anchor="middle" x="1346.34" y="-831.77" font-family="Times,serif" font-size="14.00">dcam:domainIncludes</text>
</g>
<!-- http://w3id.org/oseg/ont/okh#tsdc -->
<g id="node24" class="node">
<title>http://w3id.org/oseg/ont/okh#tsdc</title>
<ellipse fill="none" stroke="#e377c2" cx="859.61" cy="-1305.33" rx="54.39" ry="16.03"/>
<text text-anchor="middle" x="859.61" y="-1301.63" font-family="Times,serif" font-size="14.00">okh:tsdc</text>
</g>
<!-- http://w3id.org/oseg/ont/okh#openSCAD -->
<g id="node27" class="node">
<title>http://w3id.org/oseg/ont/okh#openSCAD</title>
<ellipse fill="none" stroke="#e377c2" cx="330.56" cy="-1274.19" rx="86.03" ry="16.03"/>
<text text-anchor="middle" x="330.56" y="-1270.49" font-family="Times,serif" font-size="14.00">okh:openSCAD</text>
</g>
<!-- http://w3id.org/oseg/ont/okh#openSCAD&#45;&gt;http://w3id.org/oseg/ont/okh#height -->
<g id="edge2" class="edge">
<title>http://w3id.org/oseg/ont/okh#openSCAD&#45;&gt;http://w3id.org/oseg/ont/okh#height</title>
<path fill="none" stroke="black" d="M278.31,-1287.15C240.03,-1296.65 188.13,-1309.52 148.9,-1319.25"/>
<polygon fill="black" stroke="black" points="147.83,-1315.91 138.96,-1321.71 149.51,-1322.7 147.83,-1315.91"/>
<text text-anchor="middle" x="133.61" y="-1292" font-family="Times,serif" font-size="14.00">schema:supersededBy</text>
</g>
<!-- http://w3id.org/oseg/ont/okh#openSCAD&#45;&gt;http://www.w3.org/2001/XMLSchema#string -->
<g id="edge8" class="edge">
<title>http://w3id.org/oseg/ont/okh#openSCAD&#45;&gt;http://www.w3.org/2001/XMLSchema#string</title>
<path fill="none" stroke="black" d="M312.08,-1290.35C278.69,-1319.55 208.25,-1381.15 170.35,-1414.3"/>
<polygon fill="black" stroke="black" points="168,-1411.7 162.78,-1420.92 172.61,-1416.97 168,-1411.7"/>
<text text-anchor="middle" x="168.71" y="-1356.13" font-family="Times,serif" font-size="14.00">dcam:rangeIncludes</text>
</g>
<!-- http://w3id.org/oseg/ont/okh#openSCAD&#45;&gt;http://w3id.org/oseg/ont/okh#depth -->
<g id="edge11" class="edge">
<title>http://w3id.org/oseg/ont/okh#openSCAD&#45;&gt;http://w3id.org/oseg/ont/okh#depth</title>
<path fill="none" stroke="black" d="M324.01,-1290.47C308.4,-1329.29 268.88,-1427.54 249.95,-1474.62"/>
<polygon fill="black" stroke="black" points="246.61,-1473.53 246.13,-1484.11 253.11,-1476.14 246.61,-1473.53"/>
<text text-anchor="middle" x="206.98" y="-1386.35" font-family="Times,serif" font-size="14.00">schema:supersededBy</text>
</g>
<!-- http://w3id.org/oseg/ont/okh#openSCAD&#45;&gt;http://w3id.org/oseg/ont/okh#Dimensions -->
<g id="edge12" class="edge">
<title>http://w3id.org/oseg/ont/okh#openSCAD&#45;&gt;http://w3id.org/oseg/ont/okh#Dimensions</title>
<path fill="none" stroke="black" d="M349.82,-1258.29C394.05,-1221.77 502.95,-1131.85 554.05,-1089.66"/>
<polygon fill="black" stroke="black" points="556.54,-1092.14 562.03,-1083.07 552.09,-1086.74 556.54,-1092.14"/>
<text text-anchor="middle" x="373.94" y="-1177.77" font-family="Times,serif" font-size="14.00">dcam:domainIncludes</text>
</g>
<!-- http://w3id.org/oseg/ont/okh#width -->
<g id="node29" class="node">
<title>http://w3id.org/oseg/ont/okh#width</title>
<ellipse fill="none" stroke="#e377c2" cx="377.39" cy="-1502.39" rx="61.54" ry="16.03"/>
<text text-anchor="middle" x="377.39" y="-1498.69" font-family="Times,serif" font-size="14.00">okh:width</text>
</g>
<!-- http://w3id.org/oseg/ont/okh#openSCAD&#45;&gt;http://w3id.org/oseg/ont/okh#width -->
<g id="edge22" class="edge">
<title>http://w3id.org/oseg/ont/okh#openSCAD&#45;&gt;http://w3id.org/oseg/ont/okh#width</title>
<path fill="none" stroke="black" d="M333.93,-1290.6C341.96,-1329.75 362.3,-1428.85 372.04,-1476.3"/>
<polygon fill="black" stroke="black" points="368.62,-1477.03 374.05,-1486.13 375.47,-1475.63 368.62,-1477.03"/>
<text text-anchor="middle" x="432.98" y="-1387.25" font-family="Times,serif" font-size="14.00">schema:supersededBy</text>
</g>
<!-- http://w3id.org/oseg/ont/okh#okhvStored -->
<g id="node33" class="node">
<title>http://w3id.org/oseg/ont/okh#okhvStored</title>
<ellipse fill="none" stroke="#e377c2" cx="1323.95" cy="-1233.08" rx="90.52" ry="16.03"/>
<text text-anchor="middle" x="1323.95" y="-1229.38" font-family="Times,serif" font-size="14.00">okh:okhvStored</text>
</g>
<!-- http://w3id.org/oseg/ont/okh#relatedTsdc -->
<g id="node34" class="node">
<title>http://w3id.org/oseg/ont/okh#relatedTsdc</title>
<ellipse fill="none" stroke="#e377c2" cx="1018.66" cy="-1281.56" rx="91.85" ry="16.03"/>
<text text-anchor="middle" x="1018.66" y="-1277.86" font-family="Times,serif" font-size="14.00">okh:relatedTsdc</text>
</g>
<!-- http://w3id.org/oseg/ont/okh#relatedTsdc&#45;&gt;http://w3id.org/oseg/ont/okh#tsdc -->
<g id="edge15" class="edge">
<title>http://w3id.org/oseg/ont/okh#relatedTsdc&#45;&gt;http://w3id.org/oseg/ont/okh#tsdc</title>
<path fill="none" stroke="black" d="M933.02,-1287.55C924.36,-1288.88 915.81,-1290.31 907.76,-1291.77"/>
<polygon fill="black" stroke="black" points="907.05,-1288.34 897.87,-1293.64 908.35,-1295.22 907.05,-1288.34"/>
<text text-anchor="middle" x="877.89" y="-1278.46" font-family="Times,serif" font-size="14.00">owl:sameAs</text>
</g>
<!-- http://w3id.org/oseg/ont/okh#relatedTsdc&#45;&gt;http://w3id.org/oseg/ont/okh#tsdc -->
<g id="edge43" class="edge">
<title>http://w3id.org/oseg/ont/okh#relatedTsdc&#45;&gt;http://w3id.org/oseg/ont/okh#tsdc</title>
<path fill="none" stroke="black" d="M969.27,-1295.34C954.99,-1297.91 939.19,-1300.37 924.13,-1302.39"/>
<polygon fill="black" stroke="black" points="923.32,-1298.96 913.85,-1303.71 924.21,-1305.91 923.32,-1298.96"/>
<text text-anchor="middle" x="1026.7" y="-1302.66" font-family="Times,serif" font-size="14.00">schema:supersededBy</text>
</g>
<!-- http://w3id.org/oseg/ont/okh#okhvOriginal -->
<g id="node35" class="node">
<title>http://w3id.org/oseg/ont/okh#okhvOriginal</title>
<ellipse fill="none" stroke="#e377c2" cx="1366.85" cy="-1192.45" rx="97.66" ry="16.03"/>
<text text-anchor="middle" x="1366.85" y="-1188.75" font-family="Times,serif" font-size="14.00">okh:okhvOriginal</text>
</g>
<!-- http://w3id.org/oseg/ont/okh#okhvOriginal&#45;&gt;http://w3id.org/oseg/ont/okh#okhv -->
<g id="edge10" class="edge">
<title>http://w3id.org/oseg/ont/okh#okhvOriginal&#45;&gt;http://w3id.org/oseg/ont/okh#okhv</title>
<path fill="none" stroke="black" d="M1382.67,-1176.1C1383.32,-1175.43 1383.98,-1174.75 1384.64,-1174.07"/>
<polygon fill="black" stroke="black" points="1387.26,-1176.4 1391.7,-1166.78 1382.23,-1171.53 1387.26,-1176.4"/>
<text text-anchor="middle" x="1330.65" y="-1163.89" font-family="Times,serif" font-size="14.00">subPropertyOf</text>
</g>
<!-- http://w3id.org/oseg/ont/okh#okhvOriginal&#45;&gt;http://w3id.org/oseg/ont/okh#okhvStored -->
<g id="edge27" class="edge">
<title>http://w3id.org/oseg/ont/okh#okhvOriginal&#45;&gt;http://w3id.org/oseg/ont/okh#okhvStored</title>
<path fill="none" stroke="black" d="M1349.89,-1208.51C1349.44,-1208.94 1348.98,-1209.37 1348.53,-1209.81"/>
<polygon fill="black" stroke="black" points="1345.92,-1207.46 1341.06,-1216.88 1350.73,-1212.54 1345.92,-1207.46"/>
<text text-anchor="middle" x="1321.71" y="-1212.96" font-family="Times,serif" font-size="14.00">seeAlso</text>
</g>
<!-- http://w3id.org/oseg/ont/okh#value -->
<g id="node36" class="node">
<title>http://w3id.org/oseg/ont/okh#value</title>
<ellipse fill="none" stroke="#e377c2" cx="796.95" cy="-639.45" rx="60.21" ry="16.03"/>
<text text-anchor="middle" x="796.95" y="-635.75" font-family="Times,serif" font-size="14.00">okh:value</text>
</g>
<!-- http://w3id.org/oseg/ont/okh#value&#45;&gt;http://w3id.org/oseg/ont/okh#Mass -->
<g id="edge30" class="edge">
<title>http://w3id.org/oseg/ont/okh#value&#45;&gt;http://w3id.org/oseg/ont/okh#Mass</title>
<path fill="none" stroke="black" d="M834.9,-652.19C874.19,-665.38 935.64,-686.01 978.04,-700.24"/>
<polygon fill="black" stroke="black" points="976.99,-703.58 987.58,-703.44 979.22,-696.94 976.99,-703.58"/>
<text text-anchor="middle" x="828.47" y="-680.01" font-family="Times,serif" font-size="14.00">dcam:domainIncludes</text>
</g>
<!-- http://w3id.org/oseg/ont/okh#value&#45;&gt;http://w3id.org/oseg/ont/okh#hasMass -->
<g id="edge13" class="edge">
<title>http://w3id.org/oseg/ont/okh#value&#45;&gt;http://w3id.org/oseg/ont/okh#hasMass</title>
<path fill="none" stroke="black" d="M768.04,-625.09C734.29,-608.33 678.28,-580.53 640.54,-561.78"/>
<polygon fill="black" stroke="black" points="641.87,-558.54 631.36,-557.23 638.76,-564.81 641.87,-558.54"/>
<text text-anchor="middle" x="624.29" y="-597.24" font-family="Times,serif" font-size="14.00">schema:supersededBy</text>
</g>
<!-- http://w3id.org/oseg/ont/okh#unit -->
<g id="node38" class="node">
<title>http://w3id.org/oseg/ont/okh#unit</title>
<ellipse fill="none" stroke="#e377c2" cx="817.69" cy="-875.39" rx="53.07" ry="16.03"/>
<text text-anchor="middle" x="817.69" y="-871.69" font-family="Times,serif" font-size="14.00">okh:unit</text>
</g>
<!-- http://w3id.org/oseg/ont/okh#unit&#45;&gt;http://w3id.org/oseg/ont/okh#Mass -->
<g id="edge1" class="edge">
<title>http://w3id.org/oseg/ont/okh#unit&#45;&gt;http://w3id.org/oseg/ont/okh#Mass</title>
<path fill="none" stroke="black" d="M837.59,-860.12C874.69,-831.64 954.5,-770.39 997.1,-737.69"/>
<polygon fill="black" stroke="black" points="999.3,-740.42 1005.1,-731.55 995.04,-734.86 999.3,-740.42"/>
<text text-anchor="middle" x="839.35" y="-802.7" font-family="Times,serif" font-size="14.00">dcam:domainIncludes</text>
</g>
<!-- http://w3id.org/oseg/ont/okh#unit&#45;&gt;http://w3id.org/oseg/ont/okh#Dimensions -->
<g id="edge44" class="edge">
<title>http://w3id.org/oseg/ont/okh#unit&#45;&gt;http://w3id.org/oseg/ont/okh#Dimensions</title>
<path fill="none" stroke="black" d="M798.75,-890.76C757.12,-924.53 657.53,-1005.32 608.95,-1044.73"/>
<polygon fill="black" stroke="black" points="606.61,-1042.12 601.05,-1051.14 611.02,-1047.55 606.61,-1042.12"/>
<text text-anchor="middle" x="625.85" y="-971.54" font-family="Times,serif" font-size="14.00">dcam:domainIncludes</text>
</g>
<!-- http://w3id.org/oseg/ont/okh#openScad -->
<g id="node40" class="node">
<title>http://w3id.org/oseg/ont/okh#openScad</title>
<ellipse fill="none" stroke="#e377c2" cx="82.06" cy="-1203.24" rx="82.05" ry="16.03"/>
<text text-anchor="middle" x="82.06" y="-1199.54" font-family="Times,serif" font-size="14.00">okh:openScad</text>
</g>
<!-- http://w3id.org/oseg/ont/okh#openScad&#45;&gt;http://w3id.org/oseg/ont/okh#openSCAD -->
<g id="edge19" class="edge">
<title>http://w3id.org/oseg/ont/okh#openScad&#45;&gt;http://w3id.org/oseg/ont/okh#openSCAD</title>
<path fill="none" stroke="black" d="M116.32,-1218.12C153,-1230.61 212.23,-1247.95 259.13,-1260.18"/>
<polygon fill="black" stroke="black" points="258.38,-1263.6 268.94,-1262.71 260.13,-1256.82 258.38,-1263.6"/>
<text text-anchor="middle" x="107.72" y="-1242.95" font-family="Times,serif" font-size="14.00">schema:supersededBy</text>
</g>
<!-- http://w3id.org/oseg/ont/okh#openScad&#45;&gt;http://w3id.org/oseg/ont/okh#openSCAD -->
<g id="edge36" class="edge">
<title>http://w3id.org/oseg/ont/okh#openScad&#45;&gt;http://w3id.org/oseg/ont/okh#openSCAD</title>
<path fill="none" stroke="black" d="M142.24,-1214.36C186.75,-1225.65 246.38,-1242.83 286.51,-1256.04"/>
<polygon fill="black" stroke="black" points="285.43,-1259.37 296.02,-1259.22 287.65,-1252.73 285.43,-1259.37"/>
<text text-anchor="middle" x="171.87" y="-1224" font-family="Times,serif" font-size="14.00">owl:sameAs</text>
</g>
</g>
</svg>
