<?xml version="1.0" encoding="UTF-8" standalone="no"?>
<!DOCTYPE svg PUBLIC "-//W3C//DTD SVG 1.1//EN"
 "http://www.w3.org/Graphics/SVG/1.1/DTD/svg11.dtd">
<!-- Generated by graphviz version 2.43.0 (0)
 -->
<!-- Title: G Pages: 1 -->
<svg width="1467pt" height="1314pt"
 viewBox="0.00 0.00 1467.00 1314.00" xmlns="http://www.w3.org/2000/svg" xmlns:xlink="http://www.w3.org/1999/xlink">
<g id="graph0" class="graph" transform="scale(1 1) rotate(0) translate(4 1310)">
<title>G</title>
<polygon fill="white" stroke="transparent" points="-4,4 -4,-1310 1463,-1310 1463,4 -4,4"/>
<!-- http://www.w3.org/2004/02/skos/core#Collection -->
<g id="node1" class="node">
<title>http://www.w3.org/2004/02/skos/core#Collection</title>
<ellipse fill="none" stroke="#e377c2" cx="172.94" cy="-1204.06" rx="87.86" ry="16.03"/>
<text text-anchor="middle" x="172.94" y="-1200.36" font-family="Times,serif" font-size="14.00">skos:Collection</text>
</g>
<!-- http://w3id.org/oseg/ont/okhmeta#Tag -->
<g id="node2" class="node">
<title>http://w3id.org/oseg/ont/okhmeta#Tag</title>
<ellipse fill="none" stroke="#e377c2" cx="488.59" cy="-951.42" rx="76.24" ry="16.03"/>
<text text-anchor="middle" x="488.59" y="-947.72" font-family="Times,serif" font-size="14.00">okhmeta:Tag</text>
</g>
<!-- http://w3id.org/oseg/ont/okhmeta#Tag&#45;&gt;http://www.w3.org/2004/02/skos/core#Collection -->
<g id="edge28" class="edge">
<title>http://w3id.org/oseg/ont/okhmeta#Tag&#45;&gt;http://www.w3.org/2004/02/skos/core#Collection</title>
<path fill="none" stroke="black" d="M468.84,-967.22C414.72,-1010.54 263.87,-1131.28 201,-1181.6"/>
<polygon fill="black" stroke="black" points="198.7,-1178.96 193.08,-1187.94 203.08,-1184.42 198.7,-1178.96"/>
</g>
<!-- http://www.w3.org/2004/02/skos/core#Concept -->
<g id="node4" class="node">
<title>http://www.w3.org/2004/02/skos/core#Concept</title>
<ellipse fill="none" stroke="#1f77b4" cx="426.68" cy="-595.49" rx="78.48" ry="16.03"/>
<text text-anchor="middle" x="426.68" y="-591.79" font-family="Times,serif" font-size="14.00">skos:Concept</text>
</g>
<!-- http://w3id.org/oseg/ont/okhmeta#Tag&#45;&gt;http://www.w3.org/2004/02/skos/core#Concept -->
<g id="edge23" class="edge">
<title>http://w3id.org/oseg/ont/okhmeta#Tag&#45;&gt;http://www.w3.org/2004/02/skos/core#Concept</title>
<path fill="none" stroke="black" d="M485.68,-934.73C475.81,-877.98 443.49,-692.13 431.35,-622.31"/>
<polygon fill="black" stroke="black" points="434.74,-621.4 429.58,-612.14 427.84,-622.6 434.74,-621.4"/>
<text text-anchor="middle" x="454.01" y="-782.32" font-family="Times,serif" font-size="14.00">a</text>
</g>
<!-- http://w3id.org/oseg/ont/okhmeta#MetaTag -->
<g id="node6" class="node">
<title>http://w3id.org/oseg/ont/okhmeta#MetaTag</title>
<ellipse fill="none" stroke="#e377c2" cx="513.29" cy="-904.88" rx="102.56" ry="16.03"/>
<text text-anchor="middle" x="513.29" y="-901.18" font-family="Times,serif" font-size="14.00">okhmeta:MetaTag</text>
</g>
<!-- http://w3id.org/oseg/ont/okhmeta#Tag&#45;&gt;http://w3id.org/oseg/ont/okhmeta#MetaTag -->
<g id="edge8" class="edge">
<title>http://w3id.org/oseg/ont/okhmeta#Tag&#45;&gt;http://w3id.org/oseg/ont/okhmeta#MetaTag</title>
<path fill="none" stroke="black" d="M504.66,-935.34C505.56,-933.79 506.44,-932.2 507.28,-930.59"/>
<polygon fill="black" stroke="black" points="510.51,-931.95 511.55,-921.4 504.16,-929 510.51,-931.95"/>
<text text-anchor="middle" x="428.97" y="-921.76" font-family="Times,serif" font-size="14.00">okhmeta:hasMetaTag</text>
</g>
<!-- http://spdx.org/rdf/terms#SpdxItem -->
<g id="node3" class="node">
<title>http://spdx.org/rdf/terms#SpdxItem</title>
<ellipse fill="none" stroke="#1f77b4" cx="847.92" cy="-530.51" rx="87.86" ry="16.03"/>
<text text-anchor="middle" x="847.92" y="-526.81" font-family="Times,serif" font-size="14.00">spdx:SpdxItem</text>
</g>
<!-- http://w3id.org/oseg/ont/okhmeta#PhysicalTag -->
<g id="node5" class="node">
<title>http://w3id.org/oseg/ont/okhmeta#PhysicalTag</title>
<ellipse fill="none" stroke="#e377c2" cx="871.62" cy="-1034.72" rx="118.17" ry="16.03"/>
<text text-anchor="middle" x="871.62" y="-1031.02" font-family="Times,serif" font-size="14.00">okhmeta:PhysicalTag</text>
</g>
<!-- http://w3id.org/oseg/ont/okhmeta#PhysicalTag&#45;&gt;http://w3id.org/oseg/ont/okhmeta#Tag -->
<g id="edge1" class="edge">
<title>http://w3id.org/oseg/ont/okhmeta#PhysicalTag&#45;&gt;http://w3id.org/oseg/ont/okhmeta#Tag</title>
<path fill="none" stroke="black" d="M808.37,-1020.97C737.49,-1005.55 623.22,-980.7 552.19,-965.25"/>
<polygon fill="black" stroke="black" points="552.55,-961.75 542.03,-963.04 551.06,-968.59 552.55,-961.75"/>
<text text-anchor="middle" x="675.78" y="-996.91" font-family="Times,serif" font-size="14.00">a</text>
</g>
<!-- http://w3id.org/oseg/ont/okhmeta#PhysicalTag&#45;&gt;http://w3id.org/oseg/ont/okhmeta#MetaTag -->
<g id="edge24" class="edge">
<title>http://w3id.org/oseg/ont/okhmeta#PhysicalTag&#45;&gt;http://w3id.org/oseg/ont/okhmeta#MetaTag</title>
<path fill="none" stroke="black" d="M829.46,-1019.45C763.29,-995.47 635.27,-949.08 564.11,-923.29"/>
<polygon fill="black" stroke="black" points="565.06,-919.91 554.46,-919.8 562.67,-926.49 565.06,-919.91"/>
<text text-anchor="middle" x="619.79" y="-975.17" font-family="Times,serif" font-size="14.00">okhmeta:hasMetaTag</text>
</g>
<!-- http://w3id.org/oseg/ont/okhmeta#MetaTag&#45;&gt;http://w3id.org/oseg/ont/okhmeta#Tag -->
<g id="edge44" class="edge">
<title>http://w3id.org/oseg/ont/okhmeta#MetaTag&#45;&gt;http://w3id.org/oseg/ont/okhmeta#Tag</title>
<path fill="none" stroke="black" d="M497.22,-920.96C496.32,-922.51 495.43,-924.1 494.59,-925.71"/>
<polygon fill="black" stroke="black" points="491.37,-924.35 490.33,-934.9 497.72,-927.3 491.37,-924.35"/>
<text text-anchor="middle" x="491.41" y="-927.13" font-family="Times,serif" font-size="14.00">a</text>
</g>
<!-- http://w3id.org/oseg/ont/okhmeta#MetaTag&#45;&gt;http://w3id.org/oseg/ont/okhmeta#MetaTag -->
<g id="edge37" class="edge">
<title>http://w3id.org/oseg/ont/okhmeta#MetaTag&#45;&gt;http://w3id.org/oseg/ont/okhmeta#MetaTag</title>
<path fill="none" stroke="black" d="M608.28,-911.1C623.45,-910.19 633.82,-908.11 633.82,-904.88 633.82,-902.43 627.86,-900.64 618.38,-899.53"/>
<polygon fill="black" stroke="black" points="618.55,-896.03 608.28,-898.66 617.95,-903 618.55,-896.03"/>
<text text-anchor="middle" x="710.82" y="-901.18" font-family="Times,serif" font-size="14.00">okhmeta:hasMetaTag</text>
</g>
<!-- http://w3id.org/oseg/ont/okhmeta#DataTag -->
<g id="node7" class="node">
<title>http://w3id.org/oseg/ont/okhmeta#DataTag</title>
<ellipse fill="none" stroke="#e377c2" cx="195.78" cy="-864.19" rx="100.32" ry="16.03"/>
<text text-anchor="middle" x="195.78" y="-860.49" font-family="Times,serif" font-size="14.00">okhmeta:DataTag</text>
</g>
<!-- http://w3id.org/oseg/ont/okhmeta#DataTag&#45;&gt;http://w3id.org/oseg/ont/okhmeta#Tag -->
<g id="edge25" class="edge">
<title>http://w3id.org/oseg/ont/okhmeta#DataTag&#45;&gt;http://w3id.org/oseg/ont/okhmeta#Tag</title>
<path fill="none" stroke="black" d="M243.8,-878.49C296.04,-894.05 379.37,-918.88 434.04,-935.17"/>
<polygon fill="black" stroke="black" points="433.32,-938.61 443.9,-938.11 435.31,-931.9 433.32,-938.61"/>
<text text-anchor="middle" x="334.42" y="-910.63" font-family="Times,serif" font-size="14.00">a</text>
</g>
<!-- http://w3id.org/oseg/ont/okhmeta#DataTag&#45;&gt;http://w3id.org/oseg/ont/okhmeta#MetaTag -->
<g id="edge2" class="edge">
<title>http://w3id.org/oseg/ont/okhmeta#DataTag&#45;&gt;http://w3id.org/oseg/ont/okhmeta#MetaTag</title>
<path fill="none" stroke="black" d="M274.67,-874.3C319.76,-880.08 376.47,-887.34 423.29,-893.34"/>
<polygon fill="black" stroke="black" points="423.06,-896.84 433.43,-894.64 423.95,-889.9 423.06,-896.84"/>
<text text-anchor="middle" x="271.98" y="-887.62" font-family="Times,serif" font-size="14.00">okhmeta:hasMetaTag</text>
</g>
<!-- http://w3id.org/oseg/ont/okhmeta#DevelopmentTag -->
<g id="node8" class="node">
<title>http://w3id.org/oseg/ont/okhmeta#DevelopmentTag</title>
<ellipse fill="none" stroke="#e377c2" cx="124.74" cy="-964.32" rx="124.4" ry="16.03"/>
<text text-anchor="middle" x="124.74" y="-960.62" font-family="Times,serif" font-size="14.00">okhmeta:Developme...</text>
</g>
<!-- http://w3id.org/oseg/ont/okhmeta#DevelopmentTag&#45;&gt;http://w3id.org/oseg/ont/okhmeta#Tag -->
<g id="edge3" class="edge">
<title>http://w3id.org/oseg/ont/okhmeta#DevelopmentTag&#45;&gt;http://w3id.org/oseg/ont/okhmeta#Tag</title>
<path fill="none" stroke="black" d="M244.88,-960.06C296.56,-958.23 355.8,-956.13 402.92,-954.46"/>
<polygon fill="black" stroke="black" points="403.22,-957.95 413.09,-954.1 402.97,-950.95 403.22,-957.95"/>
<text text-anchor="middle" x="319.4" y="-961.06" font-family="Times,serif" font-size="14.00">a</text>
</g>
<!-- http://w3id.org/oseg/ont/okhmeta#DevelopmentTag&#45;&gt;http://w3id.org/oseg/ont/okhmeta#MetaTag -->
<g id="edge41" class="edge">
<title>http://w3id.org/oseg/ont/okhmeta#DevelopmentTag&#45;&gt;http://w3id.org/oseg/ont/okhmeta#MetaTag</title>
<path fill="none" stroke="black" d="M205.72,-951.93C271.19,-941.91 363.06,-927.86 429.32,-917.72"/>
<polygon fill="black" stroke="black" points="429.96,-921.17 439.32,-916.2 428.9,-914.25 429.96,-921.17"/>
<text text-anchor="middle" x="240.52" y="-923.63" font-family="Times,serif" font-size="14.00">okhmeta:hasMetaTag</text>
</g>
<!-- http://w3id.org/oseg/ont/okhmeta#IdentificationTag -->
<g id="node9" class="node">
<title>http://w3id.org/oseg/ont/okhmeta#IdentificationTag</title>
<ellipse fill="none" stroke="#e377c2" cx="443.53" cy="-1289.4" rx="109.7" ry="16.03"/>
<text text-anchor="middle" x="443.53" y="-1285.7" font-family="Times,serif" font-size="14.00">okhmeta:Identific...</text>
</g>
<!-- http://w3id.org/oseg/ont/okhmeta#IdentificationTag&#45;&gt;http://w3id.org/oseg/ont/okhmeta#Tag -->
<g id="edge26" class="edge">
<title>http://w3id.org/oseg/ont/okhmeta#IdentificationTag&#45;&gt;http://w3id.org/oseg/ont/okhmeta#Tag</title>
<path fill="none" stroke="black" d="M445.7,-1273.1C452.91,-1219.02 476.09,-1045.14 485.03,-978.12"/>
<polygon fill="black" stroke="black" points="488.53,-978.33 486.38,-967.95 481.59,-977.4 488.53,-978.33"/>
<text text-anchor="middle" x="460.86" y="-1129.41" font-family="Times,serif" font-size="14.00">a</text>
</g>
<!-- http://w3id.org/oseg/ont/okhmeta#IdentificationTag&#45;&gt;http://w3id.org/oseg/ont/okhmeta#MetaTag -->
<g id="edge4" class="edge">
<title>http://w3id.org/oseg/ont/okhmeta#IdentificationTag&#45;&gt;http://w3id.org/oseg/ont/okhmeta#MetaTag</title>
<path fill="none" stroke="black" d="M446.53,-1272.88C457.44,-1212.73 495.11,-1005.12 508.51,-931.24"/>
<polygon fill="black" stroke="black" points="511.96,-931.8 510.31,-921.34 505.08,-930.55 511.96,-931.8"/>
<text text-anchor="middle" x="400.52" y="-1090.86" font-family="Times,serif" font-size="14.00">okhmeta:hasMetaTag</text>
</g>
<!-- http://w3id.org/oseg/ont/okhmeta#TransportationTag -->
<g id="node10" class="node">
<title>http://w3id.org/oseg/ont/okhmeta#TransportationTag</title>
<ellipse fill="none" stroke="#e377c2" cx="194.46" cy="-740.48" rx="118.17" ry="16.03"/>
<text text-anchor="middle" x="194.46" y="-736.78" font-family="Times,serif" font-size="14.00">okhmeta:Transport...</text>
</g>
<!-- http://w3id.org/oseg/ont/okhmeta#TransportationTag&#45;&gt;http://w3id.org/oseg/ont/okhmeta#Tag -->
<g id="edge27" class="edge">
<title>http://w3id.org/oseg/ont/okhmeta#TransportationTag&#45;&gt;http://w3id.org/oseg/ont/okhmeta#Tag</title>
<path fill="none" stroke="black" d="M217.05,-756.68C269.49,-794.29 399.48,-887.52 458.54,-929.87"/>
<polygon fill="black" stroke="black" points="456.55,-932.75 466.72,-935.74 460.63,-927.07 456.55,-932.75"/>
<text text-anchor="middle" x="333.29" y="-847.08" font-family="Times,serif" font-size="14.00">a</text>
</g>
<!-- http://w3id.org/oseg/ont/okhmeta#TransportationTag&#45;&gt;http://w3id.org/oseg/ont/okhmeta#MetaTag -->
<g id="edge40" class="edge">
<title>http://w3id.org/oseg/ont/okhmeta#TransportationTag&#45;&gt;http://w3id.org/oseg/ont/okhmeta#MetaTag</title>
<path fill="none" stroke="black" d="M225.03,-756.24C283.11,-786.19 409.36,-851.29 473.77,-884.5"/>
<polygon fill="black" stroke="black" points="472.32,-887.69 482.81,-889.16 475.53,-881.47 472.32,-887.69"/>
<text text-anchor="middle" x="272.4" y="-824.17" font-family="Times,serif" font-size="14.00">okhmeta:hasMetaTag</text>
</g>
<!-- http://www.w3.org/2004/02/skos/core#member -->
<g id="node11" class="node">
<title>http://www.w3.org/2004/02/skos/core#member</title>
<ellipse fill="none" stroke="#e377c2" cx="668.78" cy="-15.88" rx="79.39" ry="16.03"/>
<text text-anchor="middle" x="668.78" y="-12.18" font-family="Times,serif" font-size="14.00">skos:member</text>
</g>
<!-- http://w3id.org/oseg/ont/okhmeta#PartsTag -->
<g id="node12" class="node">
<title>http://w3id.org/oseg/ont/okhmeta#PartsTag</title>
<ellipse fill="none" stroke="#e377c2" cx="620.47" cy="-630.22" rx="103.48" ry="16.03"/>
<text text-anchor="middle" x="620.47" y="-626.52" font-family="Times,serif" font-size="14.00">okhmeta:PartsTag</text>
</g>
<!-- http://w3id.org/oseg/ont/okhmeta#PartsTag&#45;&gt;http://w3id.org/oseg/ont/okhmeta#Tag -->
<g id="edge29" class="edge">
<title>http://w3id.org/oseg/ont/okhmeta#PartsTag&#45;&gt;http://w3id.org/oseg/ont/okhmeta#Tag</title>
<path fill="none" stroke="black" d="M613.75,-646.59C592.27,-698.89 525.2,-862.24 499.12,-925.77"/>
<polygon fill="black" stroke="black" points="495.85,-924.5 495.29,-935.08 502.33,-927.16 495.85,-924.5"/>
<text text-anchor="middle" x="551.93" y="-789.98" font-family="Times,serif" font-size="14.00">a</text>
</g>
<!-- http://w3id.org/oseg/ont/okhmeta#PartsTag&#45;&gt;http://w3id.org/oseg/ont/okhmeta#MetaTag -->
<g id="edge16" class="edge">
<title>http://w3id.org/oseg/ont/okhmeta#PartsTag&#45;&gt;http://w3id.org/oseg/ont/okhmeta#MetaTag</title>
<path fill="none" stroke="black" d="M614.09,-646.58C596.14,-692.57 545.14,-823.27 523.36,-879.09"/>
<polygon fill="black" stroke="black" points="520.02,-878.02 519.64,-888.61 526.54,-880.56 520.02,-878.02"/>
<text text-anchor="middle" x="491.72" y="-766.64" font-family="Times,serif" font-size="14.00">okhmeta:hasMetaTag</text>
</g>
<!-- http://spdx.org/licenses/GPL&#45;3.0&#45;or&#45;later -->
<g id="node13" class="node">
<title>http://spdx.org/licenses/GPL&#45;3.0&#45;or&#45;later</title>
<ellipse fill="none" stroke="#e377c2" cx="1092.6" cy="-432.43" rx="108.79" ry="16.03"/>
<text text-anchor="middle" x="1092.6" y="-428.73" font-family="Times,serif" font-size="14.00">spdxl:GPL&#45;3.0&#45;or&#45;...</text>
</g>
<!-- http://w3id.org/oseg/ont/okhmeta#hasMetaTag -->
<g id="node14" class="node">
<title>http://w3id.org/oseg/ont/okhmeta#hasMetaTag</title>
<ellipse fill="none" stroke="#e377c2" cx="597.96" cy="-409.66" rx="120.42" ry="16.03"/>
<text text-anchor="middle" x="597.96" y="-405.96" font-family="Times,serif" font-size="14.00">okhmeta:hasMetaTag</text>
</g>
<!-- http://w3id.org/oseg/ont/okhmeta#hasMetaTag&#45;&gt;http://www.w3.org/2004/02/skos/core#Concept -->
<g id="edge17" class="edge">
<title>http://w3id.org/oseg/ont/okhmeta#hasMetaTag&#45;&gt;http://www.w3.org/2004/02/skos/core#Concept</title>
<path fill="none" stroke="black" d="M583.06,-425.82C552.74,-458.72 483.76,-533.56 448.43,-571.89"/>
<polygon fill="black" stroke="black" points="445.63,-569.77 441.42,-579.49 450.77,-574.51 445.63,-569.77"/>
<text text-anchor="middle" x="511.24" y="-502.66" font-family="Times,serif" font-size="14.00">a</text>
</g>
<!-- http://w3id.org/oseg/ont/okhmeta#hasMetaTag&#45;&gt;http://w3id.org/oseg/ont/okhmeta#MetaTag -->
<g id="edge21" class="edge">
<title>http://w3id.org/oseg/ont/okhmeta#hasMetaTag&#45;&gt;http://w3id.org/oseg/ont/okhmeta#MetaTag</title>
<path fill="none" stroke="black" d="M592.48,-425.97C574.81,-498.07 524.97,-788.46 514.56,-878.28"/>
<polygon fill="black" stroke="black" points="511.06,-878.12 513.47,-888.44 518.02,-878.87 511.06,-878.12"/>
<text text-anchor="middle" x="476.52" y="-655.92" font-family="Times,serif" font-size="14.00">okhmeta:hasMetaTag</text>
</g>
<!-- http://w3id.org/oseg/ont/okhmeta#hasMetaTag&#45;&gt;http://w3id.org/oseg/ont/okhmeta#MetaTag -->
<g id="edge32" class="edge">
<title>http://w3id.org/oseg/ont/okhmeta#hasMetaTag&#45;&gt;http://w3id.org/oseg/ont/okhmeta#MetaTag</title>
<path fill="none" stroke="black" d="M597.79,-426.01C590.83,-498.18 541.43,-788.49 521.18,-878.28"/>
<polygon fill="black" stroke="black" points="517.73,-877.68 518.86,-888.21 524.54,-879.27 517.73,-877.68"/>
<text text-anchor="middle" x="486.98" y="-640.95" font-family="Times,serif" font-size="14.00">dcam:rangeIncludes</text>
</g>
<!-- http://w3id.org/oseg/ont/okhmeta#hasMetaTag&#45;&gt;http://www.w3.org/2004/02/skos/core#member -->
<g id="edge5" class="edge">
<title>http://w3id.org/oseg/ont/okhmeta#hasMetaTag&#45;&gt;http://www.w3.org/2004/02/skos/core#member</title>
<path fill="none" stroke="black" d="M600.91,-393.24C611.89,-332.2 650.42,-117.98 664,-42.47"/>
<polygon fill="black" stroke="black" points="667.49,-42.83 665.81,-32.37 660.6,-41.59 667.49,-42.83"/>
<text text-anchor="middle" x="579.45" y="-221.65" font-family="Times,serif" font-size="14.00">subPropertyOf</text>
</g>
<!-- http://w3id.org/oseg/ont/okhmeta#QualityTag -->
<g id="node15" class="node">
<title>http://w3id.org/oseg/ont/okhmeta#QualityTag</title>
<ellipse fill="none" stroke="#e377c2" cx="796.76" cy="-1129.73" rx="113.27" ry="16.03"/>
<text text-anchor="middle" x="796.76" y="-1126.03" font-family="Times,serif" font-size="14.00">okhmeta:QualityTag</text>
</g>
<!-- http://w3id.org/oseg/ont/okhmeta#QualityTag&#45;&gt;http://w3id.org/oseg/ont/okhmeta#Tag -->
<g id="edge31" class="edge">
<title>http://w3id.org/oseg/ont/okhmeta#QualityTag&#45;&gt;http://w3id.org/oseg/ont/okhmeta#Tag</title>
<path fill="none" stroke="black" d="M769.41,-1113.9C713.51,-1081.56 586.18,-1007.89 524.03,-971.93"/>
<polygon fill="black" stroke="black" points="525.4,-968.68 515,-966.7 521.9,-974.74 525.4,-968.68"/>
<text text-anchor="middle" x="642.22" y="-1046.72" font-family="Times,serif" font-size="14.00">a</text>
</g>
<!-- http://w3id.org/oseg/ont/okhmeta#QualityTag&#45;&gt;http://w3id.org/oseg/ont/okhmeta#MetaTag -->
<g id="edge7" class="edge">
<title>http://w3id.org/oseg/ont/okhmeta#QualityTag&#45;&gt;http://w3id.org/oseg/ont/okhmeta#MetaTag</title>
<path fill="none" stroke="black" d="M776.38,-1113.56C726.53,-1074.01 598.39,-972.37 541.37,-927.15"/>
<polygon fill="black" stroke="black" points="543.5,-924.38 533.49,-920.9 539.15,-929.86 543.5,-924.38"/>
<text text-anchor="middle" x="581.87" y="-1024.15" font-family="Times,serif" font-size="14.00">okhmeta:hasMetaTag</text>
</g>
<!-- http://w3id.org/oseg/ont/okhmeta#AcademicTag -->
<g id="node16" class="node">
<title>http://w3id.org/oseg/ont/okhmeta#AcademicTag</title>
<ellipse fill="none" stroke="#e377c2" cx="744.3" cy="-1227.85" rx="124.4" ry="16.03"/>
<text text-anchor="middle" x="744.3" y="-1224.15" font-family="Times,serif" font-size="14.00">okhmeta:AcademicTag</text>
</g>
<!-- http://w3id.org/oseg/ont/okhmeta#AcademicTag&#45;&gt;http://w3id.org/oseg/ont/okhmeta#Tag -->
<g id="edge9" class="edge">
<title>http://w3id.org/oseg/ont/okhmeta#AcademicTag&#45;&gt;http://w3id.org/oseg/ont/okhmeta#Tag</title>
<path fill="none" stroke="black" d="M729.07,-1211.39C685.62,-1164.42 560.94,-1029.63 510.33,-974.92"/>
<polygon fill="black" stroke="black" points="512.78,-972.42 503.42,-967.45 507.64,-977.17 512.78,-972.42"/>
<text text-anchor="middle" x="615.2" y="-1096.96" font-family="Times,serif" font-size="14.00">a</text>
</g>
<!-- http://w3id.org/oseg/ont/okhmeta#AcademicTag&#45;&gt;http://w3id.org/oseg/ont/okhmeta#MetaTag -->
<g id="edge42" class="edge">
<title>http://w3id.org/oseg/ont/okhmeta#AcademicTag&#45;&gt;http://w3id.org/oseg/ont/okhmeta#MetaTag</title>
<path fill="none" stroke="black" d="M732.53,-1211.39C694.68,-1158.48 575.98,-992.52 530.9,-929.49"/>
<polygon fill="black" stroke="black" points="533.71,-927.4 525.04,-921.31 528.01,-931.48 533.71,-927.4"/>
<text text-anchor="middle" x="554.71" y="-1074.24" font-family="Times,serif" font-size="14.00">okhmeta:hasMetaTag</text>
</g>
<!-- http://w3id.org/oseg/ont/okhmeta -->
<g id="node17" class="node">
<title>http://w3id.org/oseg/ont/okhmeta</title>
<ellipse fill="none" stroke="#e377c2" cx="1076.44" cy="-481.51" rx="76.24" ry="16.03"/>
<text text-anchor="middle" x="1076.44" y="-477.81" font-family="Times,serif" font-size="14.00">ns1:okhmeta</text>
</g>
<!-- http://w3id.org/oseg/ont/okhmeta&#45;&gt;http://spdx.org/rdf/terms#SpdxItem -->
<g id="edge13" class="edge">
<title>http://w3id.org/oseg/ont/okhmeta&#45;&gt;http://spdx.org/rdf/terms#SpdxItem</title>
<path fill="none" stroke="black" d="M1022.57,-493.06C990.51,-499.94 949.53,-508.72 915.33,-516.05"/>
<polygon fill="black" stroke="black" points="914.46,-512.66 905.42,-518.18 915.93,-519.51 914.46,-512.66"/>
<text text-anchor="middle" x="964.45" y="-493.36" font-family="Times,serif" font-size="14.00">a</text>
</g>
<!-- http://w3id.org/oseg/ont/okhmeta&#45;&gt;http://spdx.org/licenses/GPL&#45;3.0&#45;or&#45;later -->
<g id="edge30" class="edge">
<title>http://w3id.org/oseg/ont/okhmeta&#45;&gt;http://spdx.org/licenses/GPL&#45;3.0&#45;or&#45;later</title>
<path fill="none" stroke="black" d="M1081.82,-465.17C1082.52,-463.04 1083.26,-460.82 1083.99,-458.57"/>
<polygon fill="black" stroke="black" points="1087.39,-459.46 1087.19,-448.87 1080.74,-457.27 1087.39,-459.46"/>
<text text-anchor="middle" x="1006.91" y="-450.67" font-family="Times,serif" font-size="14.00">spdx:licenseDeclared</text>
</g>
<!-- http://w3id.org/oseg/ont/oseg&#45;profiles#Iopa -->
<g id="node19" class="node">
<title>http://w3id.org/oseg/ont/oseg&#45;profiles#Iopa</title>
<ellipse fill="none" stroke="#e377c2" cx="1036.95" cy="-522.22" rx="80.72" ry="16.03"/>
<text text-anchor="middle" x="1036.95" y="-518.52" font-family="Times,serif" font-size="14.00">osegprof:Iopa</text>
</g>
<!-- http://w3id.org/oseg/ont/okhmeta&#45;&gt;http://w3id.org/oseg/ont/oseg&#45;profiles#Iopa -->
<g id="edge46" class="edge">
<title>http://w3id.org/oseg/ont/okhmeta&#45;&gt;http://w3id.org/oseg/ont/oseg&#45;profiles#Iopa</title>
<path fill="none" stroke="black" d="M1060.83,-497.6C1060.4,-498.04 1059.97,-498.49 1059.53,-498.94"/>
<polygon fill="black" stroke="black" points="1056.89,-496.63 1052.44,-506.25 1061.92,-501.51 1056.89,-496.63"/>
<text text-anchor="middle" x="1125.68" y="-502.07" font-family="Times,serif" font-size="14.00">dcterms:publisher</text>
</g>
<!-- http://w3id.org/oseg/ont/oseg&#45;profiles#robinVobruba -->
<g id="node23" class="node">
<title>http://w3id.org/oseg/ont/oseg&#45;profiles#robinVobruba</title>
<ellipse fill="none" stroke="#e377c2" cx="1345.64" cy="-470.87" rx="113.69" ry="16.03"/>
<text text-anchor="middle" x="1345.64" y="-467.17" font-family="Times,serif" font-size="14.00">osegprof:robinVob...</text>
</g>
<!-- http://w3id.org/oseg/ont/okhmeta&#45;&gt;http://w3id.org/oseg/ont/oseg&#45;profiles#robinVobruba -->
<g id="edge15" class="edge">
<title>http://w3id.org/oseg/ont/okhmeta&#45;&gt;http://w3id.org/oseg/ont/oseg&#45;profiles#robinVobruba</title>
<path fill="none" stroke="black" d="M1151.67,-484.66C1180.76,-484.17 1214.47,-482.98 1245.54,-481.38"/>
<polygon fill="black" stroke="black" points="1245.73,-484.88 1255.53,-480.85 1245.36,-477.89 1245.73,-484.88"/>
<text text-anchor="middle" x="1254.11" y="-486.82" font-family="Times,serif" font-size="14.00">schema:creator</text>
</g>
<!-- http://w3id.org/oseg/ont/okhmeta&#45;&gt;http://w3id.org/oseg/ont/oseg&#45;profiles#robinVobruba -->
<g id="edge39" class="edge">
<title>http://w3id.org/oseg/ont/okhmeta&#45;&gt;http://w3id.org/oseg/ont/oseg&#45;profiles#robinVobruba</title>
<path fill="none" stroke="black" d="M1141.72,-473.04C1166.09,-471.41 1194.63,-470 1222.5,-469.01"/>
<polygon fill="black" stroke="black" points="1222.86,-472.5 1232.74,-468.66 1222.62,-465.5 1222.86,-472.5"/>
<text text-anchor="middle" x="1182.11" y="-459.82" font-family="Times,serif" font-size="14.00">dcterms:creator</text>
</g>
<!-- http://w3id.org/oseg/ont/1.1.0/okh&#45;meta -->
<g id="node27" class="node">
<title>http://w3id.org/oseg/ont/1.1.0/okh&#45;meta</title>
<ellipse fill="none" stroke="#e377c2" cx="1222.35" cy="-545.6" rx="79.81" ry="16.03"/>
<text text-anchor="middle" x="1222.35" y="-541.9" font-family="Times,serif" font-size="14.00">ns2:okh&#45;meta</text>
</g>
<!-- http://w3id.org/oseg/ont/okhmeta&#45;&gt;http://w3id.org/oseg/ont/1.1.0/okh&#45;meta -->
<g id="edge20" class="edge">
<title>http://w3id.org/oseg/ont/okhmeta&#45;&gt;http://w3id.org/oseg/ont/1.1.0/okh&#45;meta</title>
<path fill="none" stroke="black" d="M1109.91,-496.21C1130.53,-505.27 1157.16,-516.97 1179.33,-526.7"/>
<polygon fill="black" stroke="black" points="1177.96,-529.93 1188.52,-530.74 1180.77,-523.52 1177.96,-529.93"/>
<text text-anchor="middle" x="1196.12" y="-515.26" font-family="Times,serif" font-size="14.00">owl:versionIRI</text>
</g>
<!-- http://id.loc.gov/vocabulary/iso639&#45;1/en -->
<g id="node28" class="node">
<title>http://id.loc.gov/vocabulary/iso639&#45;1/en</title>
<ellipse fill="none" stroke="#e377c2" cx="1002.28" cy="-301.22" rx="45.01" ry="16.03"/>
<text text-anchor="middle" x="1002.28" y="-297.52" font-family="Times,serif" font-size="14.00">ns3:en</text>
</g>
<!-- http://w3id.org/oseg/ont/okhmeta&#45;&gt;http://id.loc.gov/vocabulary/iso639&#45;1/en -->
<g id="edge45" class="edge">
<title>http://w3id.org/oseg/ont/okhmeta&#45;&gt;http://id.loc.gov/vocabulary/iso639&#45;1/en</title>
<path fill="none" stroke="black" d="M1069.73,-465.19C1056.77,-433.68 1028.21,-364.26 1012.74,-326.65"/>
<polygon fill="black" stroke="black" points="1015.97,-325.29 1008.92,-317.38 1009.49,-327.95 1015.97,-325.29"/>
<text text-anchor="middle" x="976.73" y="-399.72" font-family="Times,serif" font-size="14.00">dcterms:language</text>
</g>
<!-- http://w3id.org/oseg/ont/okhmeta#DocumentationTag -->
<g id="node18" class="node">
<title>http://w3id.org/oseg/ont/okhmeta#DocumentationTag</title>
<ellipse fill="none" stroke="#e377c2" cx="775.49" cy="-672.76" rx="125.32" ry="16.03"/>
<text text-anchor="middle" x="775.49" y="-669.06" font-family="Times,serif" font-size="14.00">okhmeta:Documenta...</text>
</g>
<!-- http://w3id.org/oseg/ont/okhmeta#DocumentationTag&#45;&gt;http://w3id.org/oseg/ont/okhmeta#Tag -->
<g id="edge33" class="edge">
<title>http://w3id.org/oseg/ont/okhmeta#DocumentationTag&#45;&gt;http://w3id.org/oseg/ont/okhmeta#Tag</title>
<path fill="none" stroke="black" d="M758.82,-688.94C710.39,-735.98 569.52,-872.81 512.73,-927.97"/>
<polygon fill="black" stroke="black" points="510.03,-925.71 505.3,-935.19 514.91,-930.73 510.03,-925.71"/>
<text text-anchor="middle" x="631.28" y="-812.25" font-family="Times,serif" font-size="14.00">a</text>
</g>
<!-- http://w3id.org/oseg/ont/okhmeta#DocumentationTag&#45;&gt;http://w3id.org/oseg/ont/okhmeta#MetaTag -->
<g id="edge11" class="edge">
<title>http://w3id.org/oseg/ont/okhmeta#DocumentationTag&#45;&gt;http://w3id.org/oseg/ont/okhmeta#MetaTag</title>
<path fill="none" stroke="black" d="M757.05,-689.08C711.26,-729.62 592.24,-834.99 539.32,-881.84"/>
<polygon fill="black" stroke="black" points="536.88,-879.33 531.71,-888.57 541.52,-884.57 536.88,-879.33"/>
<text text-anchor="middle" x="571.19" y="-789.26" font-family="Times,serif" font-size="14.00">okhmeta:hasMetaTag</text>
</g>
<!-- http://w3id.org/oseg/ont/okhmeta#HistoryTag -->
<g id="node20" class="node">
<title>http://w3id.org/oseg/ont/okhmeta#HistoryTag</title>
<ellipse fill="none" stroke="#e377c2" cx="677.72" cy="-1272.92" rx="113.69" ry="16.03"/>
<text text-anchor="middle" x="677.72" y="-1269.22" font-family="Times,serif" font-size="14.00">okhmeta:HistoryTag</text>
</g>
<!-- http://w3id.org/oseg/ont/okhmeta#HistoryTag&#45;&gt;http://w3id.org/oseg/ont/okhmeta#Tag -->
<g id="edge34" class="edge">
<title>http://w3id.org/oseg/ont/okhmeta#HistoryTag&#45;&gt;http://w3id.org/oseg/ont/okhmeta#Tag</title>
<path fill="none" stroke="black" d="M668.08,-1256.54C637.22,-1204.08 540.7,-1040.01 503.46,-976.7"/>
<polygon fill="black" stroke="black" points="506.29,-974.62 498.21,-967.77 500.26,-978.17 506.29,-974.62"/>
<text text-anchor="middle" x="581.27" y="-1120.42" font-family="Times,serif" font-size="14.00">a</text>
</g>
<!-- http://w3id.org/oseg/ont/okhmeta#HistoryTag&#45;&gt;http://w3id.org/oseg/ont/okhmeta#MetaTag -->
<g id="edge22" class="edge">
<title>http://w3id.org/oseg/ont/okhmeta#HistoryTag&#45;&gt;http://w3id.org/oseg/ont/okhmeta#MetaTag</title>
<path fill="none" stroke="black" d="M670.44,-1256.63C644.5,-1198.57 556.43,-1001.43 524.75,-930.54"/>
<polygon fill="black" stroke="black" points="527.95,-929.1 520.67,-921.4 521.56,-931.96 527.95,-929.1"/>
<text text-anchor="middle" x="674.6" y="-1097.38" font-family="Times,serif" font-size="14.00">okhmeta:hasMetaTag</text>
</g>
<!-- http://w3id.org/oseg/ont/okhmeta#LegalTag -->
<g id="node21" class="node">
<title>http://w3id.org/oseg/ont/okhmeta#LegalTag</title>
<ellipse fill="none" stroke="#e377c2" cx="811.27" cy="-794.05" rx="103.89" ry="16.03"/>
<text text-anchor="middle" x="811.27" y="-790.35" font-family="Times,serif" font-size="14.00">okhmeta:LegalTag</text>
</g>
<!-- http://w3id.org/oseg/ont/okhmeta#LegalTag&#45;&gt;http://w3id.org/oseg/ont/okhmeta#Tag -->
<g id="edge35" class="edge">
<title>http://w3id.org/oseg/ont/okhmeta#LegalTag&#45;&gt;http://w3id.org/oseg/ont/okhmeta#Tag</title>
<path fill="none" stroke="black" d="M779.45,-809.57C720.19,-838.47 593.1,-900.45 528.32,-932.04"/>
<polygon fill="black" stroke="black" points="526.68,-928.95 519.23,-936.48 529.75,-935.24 526.68,-928.95"/>
<text text-anchor="middle" x="649.38" y="-874.61" font-family="Times,serif" font-size="14.00">a</text>
</g>
<!-- http://w3id.org/oseg/ont/okhmeta#LegalTag&#45;&gt;http://w3id.org/oseg/ont/okhmeta#MetaTag -->
<g id="edge38" class="edge">
<title>http://w3id.org/oseg/ont/okhmeta#LegalTag&#45;&gt;http://w3id.org/oseg/ont/okhmeta#MetaTag</title>
<path fill="none" stroke="black" d="M770.77,-809.11C716.81,-829.18 621.37,-864.68 563.08,-886.36"/>
<polygon fill="black" stroke="black" points="561.85,-883.08 553.7,-889.85 564.29,-889.64 561.85,-883.08"/>
<text text-anchor="middle" x="589.93" y="-851.54" font-family="Times,serif" font-size="14.00">okhmeta:hasMetaTag</text>
</g>
<!-- http://w3id.org/oseg/ont/okhmeta#DataGatheringTag -->
<g id="node22" class="node">
<title>http://w3id.org/oseg/ont/okhmeta#DataGatheringTag</title>
<ellipse fill="none" stroke="#e377c2" cx="186.89" cy="-1086.84" rx="122.16" ry="16.03"/>
<text text-anchor="middle" x="186.89" y="-1083.14" font-family="Times,serif" font-size="14.00">okhmeta:DataGathe...</text>
</g>
<!-- http://w3id.org/oseg/ont/okhmeta#DataGatheringTag&#45;&gt;http://w3id.org/oseg/ont/okhmeta#Tag -->
<g id="edge14" class="edge">
<title>http://w3id.org/oseg/ont/okhmeta#DataGatheringTag&#45;&gt;http://w3id.org/oseg/ont/okhmeta#Tag</title>
<path fill="none" stroke="black" d="M221.79,-1071.17C277.59,-1046.13 386.7,-997.15 446.65,-970.24"/>
<polygon fill="black" stroke="black" points="448.14,-973.41 455.83,-966.12 445.27,-967.02 448.14,-973.41"/>
<text text-anchor="middle" x="329.72" y="-1024.51" font-family="Times,serif" font-size="14.00">a</text>
</g>
<!-- http://w3id.org/oseg/ont/okhmeta#DataGatheringTag&#45;&gt;http://w3id.org/oseg/ont/okhmeta#MetaTag -->
<g id="edge6" class="edge">
<title>http://w3id.org/oseg/ont/okhmeta#DataGatheringTag&#45;&gt;http://w3id.org/oseg/ont/okhmeta#MetaTag</title>
<path fill="none" stroke="black" d="M215.29,-1071.01C274.39,-1038.06 410.6,-962.13 476.39,-925.45"/>
<polygon fill="black" stroke="black" points="478.17,-928.47 485.2,-920.54 474.76,-922.35 478.17,-928.47"/>
<text text-anchor="middle" x="268.84" y="-1002.03" font-family="Times,serif" font-size="14.00">okhmeta:hasMetaTag</text>
</g>
<!-- http://w3id.org/oseg/ont/okhmeta#BasicTag -->
<g id="node24" class="node">
<title>http://w3id.org/oseg/ont/okhmeta#BasicTag</title>
<ellipse fill="none" stroke="#e377c2" cx="847.59" cy="-913.3" rx="103.48" ry="16.03"/>
<text text-anchor="middle" x="847.59" y="-909.6" font-family="Times,serif" font-size="14.00">okhmeta:BasicTag</text>
</g>
<!-- http://w3id.org/oseg/ont/okhmeta#BasicTag&#45;&gt;http://w3id.org/oseg/ont/okhmeta#Tag -->
<g id="edge18" class="edge">
<title>http://w3id.org/oseg/ont/okhmeta#BasicTag&#45;&gt;http://w3id.org/oseg/ont/okhmeta#Tag</title>
<path fill="none" stroke="black" d="M761.6,-922.43C702.5,-928.7 624.64,-936.97 567.2,-943.07"/>
<polygon fill="black" stroke="black" points="566.65,-939.61 557.08,-944.15 567.39,-946.57 566.65,-939.61"/>
<text text-anchor="middle" x="659.9" y="-936.55" font-family="Times,serif" font-size="14.00">a</text>
</g>
<!-- http://w3id.org/oseg/ont/okhmeta#BasicTag&#45;&gt;http://w3id.org/oseg/ont/okhmeta#MetaTag -->
<g id="edge10" class="edge">
<title>http://w3id.org/oseg/ont/okhmeta#BasicTag&#45;&gt;http://w3id.org/oseg/ont/okhmeta#MetaTag</title>
<path fill="none" stroke="black" d="M745.47,-910.73C707.4,-909.77 663.99,-908.67 625.1,-907.69"/>
<polygon fill="black" stroke="black" points="624.87,-904.19 614.78,-907.44 624.69,-911.19 624.87,-904.19"/>
<text text-anchor="middle" x="608.29" y="-913.01" font-family="Times,serif" font-size="14.00">okhmeta:hasMetaTag</text>
</g>
<!-- http://w3id.org/oseg/ont/okhmeta#MakingTag -->
<g id="node25" class="node">
<title>http://w3id.org/oseg/ont/okhmeta#MakingTag</title>
<ellipse fill="none" stroke="#e377c2" cx="342.39" cy="-1247.5" rx="113.69" ry="16.03"/>
<text text-anchor="middle" x="342.39" y="-1243.8" font-family="Times,serif" font-size="14.00">okhmeta:MakingTag</text>
</g>
<!-- http://w3id.org/oseg/ont/okhmeta#MakingTag&#45;&gt;http://w3id.org/oseg/ont/okhmeta#Tag -->
<g id="edge19" class="edge">
<title>http://w3id.org/oseg/ont/okhmeta#MakingTag&#45;&gt;http://w3id.org/oseg/ont/okhmeta#Tag</title>
<path fill="none" stroke="black" d="M350.46,-1231.16C374.67,-1182.12 446.83,-1035.98 476.07,-976.76"/>
<polygon fill="black" stroke="black" points="479.25,-978.23 480.54,-967.71 472.98,-975.13 479.25,-978.23"/>
<text text-anchor="middle" x="408.77" y="-1107.76" font-family="Times,serif" font-size="14.00">a</text>
</g>
<!-- http://w3id.org/oseg/ont/okhmeta#MakingTag&#45;&gt;http://w3id.org/oseg/ont/okhmeta#MetaTag -->
<g id="edge12" class="edge">
<title>http://w3id.org/oseg/ont/okhmeta#MakingTag&#45;&gt;http://w3id.org/oseg/ont/okhmeta#MetaTag</title>
<path fill="none" stroke="black" d="M350.63,-1230.97C378.22,-1175.68 467.4,-996.88 500.65,-930.23"/>
<polygon fill="black" stroke="black" points="503.8,-931.75 505.13,-921.24 497.54,-928.62 503.8,-931.75"/>
<text text-anchor="middle" x="387.14" y="-1069.4" font-family="Times,serif" font-size="14.00">okhmeta:hasMetaTag</text>
</g>
<!-- http://w3id.org/oseg/ont/okhmeta#ExtendedInfoTag -->
<g id="node26" class="node">
<title>http://w3id.org/oseg/ont/okhmeta#ExtendedInfoTag</title>
<ellipse fill="none" stroke="#e377c2" cx="284.09" cy="-643.67" rx="120.42" ry="16.03"/>
<text text-anchor="middle" x="284.09" y="-639.97" font-family="Times,serif" font-size="14.00">okhmeta:ExtendedI...</text>
</g>
<!-- http://w3id.org/oseg/ont/okhmeta#ExtendedInfoTag&#45;&gt;http://w3id.org/oseg/ont/okhmeta#Tag -->
<g id="edge43" class="edge">
<title>http://w3id.org/oseg/ont/okhmeta#ExtendedInfoTag&#45;&gt;http://w3id.org/oseg/ont/okhmeta#Tag</title>
<path fill="none" stroke="black" d="M295.08,-660.22C328.94,-711.16 431.74,-865.87 472.08,-926.58"/>
<polygon fill="black" stroke="black" points="469.33,-928.77 477.78,-935.17 475.17,-924.9 469.33,-928.77"/>
<text text-anchor="middle" x="379.08" y="-797.2" font-family="Times,serif" font-size="14.00">a</text>
</g>
<!-- http://w3id.org/oseg/ont/okhmeta#ExtendedInfoTag&#45;&gt;http://w3id.org/oseg/ont/okhmeta#MetaTag -->
<g id="edge36" class="edge">
<title>http://w3id.org/oseg/ont/okhmeta#ExtendedInfoTag&#45;&gt;http://w3id.org/oseg/ont/okhmeta#MetaTag</title>
<path fill="none" stroke="black" d="M298.43,-660.01C337.5,-704.54 446,-828.19 492.11,-880.74"/>
<polygon fill="black" stroke="black" points="489.73,-883.34 498.96,-888.55 495,-878.72 489.73,-883.34"/>
<text text-anchor="middle" x="318.27" y="-774.18" font-family="Times,serif" font-size="14.00">okhmeta:hasMetaTag</text>
</g>
</g>
</svg>
