<?xml version="1.0" encoding="UTF-8" standalone="no"?>
<!DOCTYPE svg PUBLIC "-//W3C//DTD SVG 1.1//EN"
 "http://www.w3.org/Graphics/SVG/1.1/DTD/svg11.dtd">
<!-- Generated by graphviz version 2.43.0 (0)
 -->
<!-- Title: G Pages: 1 -->
<svg width="1347pt" height="1309pt"
 viewBox="0.00 0.00 1347.00 1309.00" xmlns="http://www.w3.org/2000/svg" xmlns:xlink="http://www.w3.org/1999/xlink">
<g id="graph0" class="graph" transform="scale(1 1) rotate(0) translate(4 1305)">
<title>G</title>
<polygon fill="white" stroke="transparent" points="-4,4 -4,-1305 1343,-1305 1343,4 -4,4"/>
<!-- http://w3id.org/oseg/ont/okhmeta#Tag -->
<g id="node1" class="node">
<title>http://w3id.org/oseg/ont/okhmeta#Tag</title>
<ellipse fill="none" stroke="#e377c2" cx="440.69" cy="-370.9" rx="76.24" ry="16.03"/>
<text text-anchor="middle" x="440.69" y="-367.2" font-family="Times,serif" font-size="14.00">okhmeta:Tag</text>
</g>
<!-- http://www.w3.org/2004/02/skos/core#Concept -->
<g id="node3" class="node">
<title>http://www.w3.org/2004/02/skos/core#Concept</title>
<ellipse fill="none" stroke="#1f77b4" cx="495.99" cy="-675.99" rx="78.48" ry="16.03"/>
<text text-anchor="middle" x="495.99" y="-672.29" font-family="Times,serif" font-size="14.00">skos:Concept</text>
</g>
<!-- http://w3id.org/oseg/ont/okhmeta#Tag&#45;&gt;http://www.w3.org/2004/02/skos/core#Concept -->
<g id="edge30" class="edge">
<title>http://w3id.org/oseg/ont/okhmeta#Tag&#45;&gt;http://www.w3.org/2004/02/skos/core#Concept</title>
<path fill="none" stroke="black" d="M443.66,-387.3C452.72,-437.28 480.03,-587.96 491.18,-649.44"/>
<polygon fill="black" stroke="black" points="487.77,-650.29 493,-659.51 494.66,-649.05 487.77,-650.29"/>
<text text-anchor="middle" x="462.92" y="-522.17" font-family="Times,serif" font-size="14.00">a</text>
</g>
<!-- http://www.w3.org/2004/02/skos/core#Collection -->
<g id="node4" class="node">
<title>http://www.w3.org/2004/02/skos/core#Collection</title>
<ellipse fill="none" stroke="#e377c2" cx="457.43" cy="-16.12" rx="87.86" ry="16.03"/>
<text text-anchor="middle" x="457.43" y="-12.42" font-family="Times,serif" font-size="14.00">skos:Collection</text>
</g>
<!-- http://w3id.org/oseg/ont/okhmeta#Tag&#45;&gt;http://www.w3.org/2004/02/skos/core#Collection -->
<g id="edge4" class="edge">
<title>http://w3id.org/oseg/ont/okhmeta#Tag&#45;&gt;http://www.w3.org/2004/02/skos/core#Collection</title>
<path fill="none" stroke="black" d="M441.47,-354.26C444.14,-297.7 452.88,-112.44 456.16,-42.86"/>
<polygon fill="black" stroke="black" points="459.67,-42.87 456.64,-32.72 452.68,-42.54 459.67,-42.87"/>
</g>
<!-- http://w3id.org/oseg/ont/okhmeta#MetaTag -->
<g id="node8" class="node">
<title>http://w3id.org/oseg/ont/okhmeta#MetaTag</title>
<ellipse fill="none" stroke="#e377c2" cx="442.51" cy="-418.62" rx="102.56" ry="16.03"/>
<text text-anchor="middle" x="442.51" y="-414.92" font-family="Times,serif" font-size="14.00">okhmeta:MetaTag</text>
</g>
<!-- http://w3id.org/oseg/ont/okhmeta#Tag&#45;&gt;http://w3id.org/oseg/ont/okhmeta#MetaTag -->
<g id="edge24" class="edge">
<title>http://w3id.org/oseg/ont/okhmeta#Tag&#45;&gt;http://w3id.org/oseg/ont/okhmeta#MetaTag</title>
<path fill="none" stroke="black" d="M434.88,-387.3C434.81,-388.79 434.78,-390.33 434.78,-391.88"/>
<polygon fill="black" stroke="black" points="431.3,-392.3 435.39,-402.07 438.29,-391.88 431.3,-392.3"/>
<text text-anchor="middle" x="357.83" y="-393.39" font-family="Times,serif" font-size="14.00">okhmeta:hasMetaTag</text>
</g>
<!-- http://www.w3.org/2002/07/owl#Ontology -->
<g id="node2" class="node">
<title>http://www.w3.org/2002/07/owl#Ontology</title>
<ellipse fill="none" stroke="#1f77b4" cx="822.01" cy="-879.42" rx="77.56" ry="16.03"/>
<text text-anchor="middle" x="822.01" y="-875.72" font-family="Times,serif" font-size="14.00">owl:Ontology</text>
</g>
<!-- http://www.w3.org/2002/07/owl#ObjectProperty -->
<g id="node5" class="node">
<title>http://www.w3.org/2002/07/owl#ObjectProperty</title>
<ellipse fill="none" stroke="#1f77b4" cx="347.48" cy="-1284.87" rx="109.7" ry="16.03"/>
<text text-anchor="middle" x="347.48" y="-1281.17" font-family="Times,serif" font-size="14.00">owl:ObjectProperty</text>
</g>
<!-- http://spdx.org/rdf/terms#SpdxItem -->
<g id="node6" class="node">
<title>http://spdx.org/rdf/terms#SpdxItem</title>
<ellipse fill="none" stroke="#1f77b4" cx="1251.68" cy="-760.71" rx="87.86" ry="16.03"/>
<text text-anchor="middle" x="1251.68" y="-757.01" font-family="Times,serif" font-size="14.00">spdx:SpdxItem</text>
</g>
<!-- http://w3id.org/oseg/ont/okhmeta#hasMetaTag -->
<g id="node7" class="node">
<title>http://w3id.org/oseg/ont/okhmeta#hasMetaTag</title>
<ellipse fill="none" stroke="#e377c2" cx="460.13" cy="-913.56" rx="120.42" ry="16.03"/>
<text text-anchor="middle" x="460.13" y="-909.86" font-family="Times,serif" font-size="14.00">okhmeta:hasMetaTag</text>
</g>
<!-- http://w3id.org/oseg/ont/okhmeta#hasMetaTag&#45;&gt;http://www.w3.org/2004/02/skos/core#Concept -->
<g id="edge43" class="edge">
<title>http://w3id.org/oseg/ont/okhmeta#hasMetaTag&#45;&gt;http://www.w3.org/2004/02/skos/core#Concept</title>
<path fill="none" stroke="black" d="M462.59,-897.23C468.7,-856.8 484.56,-751.73 492.01,-702.36"/>
<polygon fill="black" stroke="black" points="495.48,-702.85 493.51,-692.44 488.55,-701.8 495.48,-702.85"/>
<text text-anchor="middle" x="472.8" y="-803.59" font-family="Times,serif" font-size="14.00">a</text>
</g>
<!-- http://w3id.org/oseg/ont/okhmeta#hasMetaTag&#45;&gt;http://www.w3.org/2002/07/owl#ObjectProperty -->
<g id="edge19" class="edge">
<title>http://w3id.org/oseg/ont/okhmeta#hasMetaTag&#45;&gt;http://www.w3.org/2002/07/owl#ObjectProperty</title>
<path fill="none" stroke="black" d="M455.14,-929.99C437.41,-988.45 377.28,-1186.65 355.46,-1258.54"/>
<polygon fill="black" stroke="black" points="352.09,-1257.62 352.53,-1268.2 358.79,-1259.65 352.09,-1257.62"/>
<text text-anchor="middle" x="400.8" y="-1098.07" font-family="Times,serif" font-size="14.00">a</text>
</g>
<!-- http://w3id.org/oseg/ont/okhmeta#hasMetaTag&#45;&gt;http://w3id.org/oseg/ont/okhmeta#MetaTag -->
<g id="edge26" class="edge">
<title>http://w3id.org/oseg/ont/okhmeta#hasMetaTag&#45;&gt;http://w3id.org/oseg/ont/okhmeta#MetaTag</title>
<path fill="none" stroke="black" d="M462.16,-897.28C464.89,-825.28 454.78,-535.08 446.73,-445.25"/>
<polygon fill="black" stroke="black" points="450.19,-444.7 445.73,-435.09 443.22,-445.38 450.19,-444.7"/>
<text text-anchor="middle" x="531.44" y="-660.06" font-family="Times,serif" font-size="14.00">okhmeta:hasMetaTag</text>
</g>
<!-- http://w3id.org/oseg/ont/okhmeta#hasMetaTag&#45;&gt;http://w3id.org/oseg/ont/okhmeta#MetaTag -->
<g id="edge33" class="edge">
<title>http://w3id.org/oseg/ont/okhmeta#hasMetaTag&#45;&gt;http://w3id.org/oseg/ont/okhmeta#MetaTag</title>
<path fill="none" stroke="black" d="M456.91,-897.18C449.06,-824.99 438.52,-534.77 440.2,-445.13"/>
<polygon fill="black" stroke="black" points="443.7,-445.08 440.47,-434.99 436.7,-444.89 443.7,-445.08"/>
<text text-anchor="middle" x="376.05" y="-659.96" font-family="Times,serif" font-size="14.00">dcam:rangeIncludes</text>
</g>
<!-- http://www.w3.org/2004/02/skos/core#member -->
<g id="node17" class="node">
<title>http://www.w3.org/2004/02/skos/core#member</title>
<ellipse fill="none" stroke="#e377c2" cx="579.65" cy="-1242.67" rx="79.39" ry="16.03"/>
<text text-anchor="middle" x="579.65" y="-1238.97" font-family="Times,serif" font-size="14.00">skos:member</text>
</g>
<!-- http://w3id.org/oseg/ont/okhmeta#hasMetaTag&#45;&gt;http://www.w3.org/2004/02/skos/core#member -->
<g id="edge6" class="edge">
<title>http://w3id.org/oseg/ont/okhmeta#hasMetaTag&#45;&gt;http://www.w3.org/2004/02/skos/core#member</title>
<path fill="none" stroke="black" d="M466.05,-929.88C485.37,-983.06 546.61,-1151.7 570.23,-1216.74"/>
<polygon fill="black" stroke="black" points="566.98,-1218.05 573.69,-1226.25 573.56,-1215.66 566.98,-1218.05"/>
<text text-anchor="middle" x="465.14" y="-1077.11" font-family="Times,serif" font-size="14.00">subPropertyOf</text>
</g>
<!-- http://w3id.org/oseg/ont/okhmeta#MetaTag&#45;&gt;http://w3id.org/oseg/ont/okhmeta#Tag -->
<g id="edge25" class="edge">
<title>http://w3id.org/oseg/ont/okhmeta#MetaTag&#45;&gt;http://w3id.org/oseg/ont/okhmeta#Tag</title>
<path fill="none" stroke="black" d="M448.31,-402.22C448.39,-400.69 448.42,-399.12 448.41,-397.53"/>
<polygon fill="black" stroke="black" points="451.88,-396.88 447.76,-387.12 444.89,-397.31 451.88,-396.88"/>
<text text-anchor="middle" x="443.86" y="-388.68" font-family="Times,serif" font-size="14.00">a</text>
</g>
<!-- http://w3id.org/oseg/ont/okhmeta#MetaTag&#45;&gt;http://w3id.org/oseg/ont/okhmeta#MetaTag -->
<g id="edge10" class="edge">
<title>http://w3id.org/oseg/ont/okhmeta#MetaTag&#45;&gt;http://w3id.org/oseg/ont/okhmeta#MetaTag</title>
<path fill="none" stroke="black" d="M537.5,-424.83C552.66,-423.92 563.04,-421.85 563.04,-418.62 563.04,-416.17 557.08,-414.38 547.59,-413.27"/>
<polygon fill="black" stroke="black" points="547.76,-409.77 537.5,-412.4 547.16,-416.74 547.76,-409.77"/>
<text text-anchor="middle" x="640.04" y="-414.92" font-family="Times,serif" font-size="14.00">okhmeta:hasMetaTag</text>
</g>
<!-- http://spdx.org/licenses/GPL&#45;3.0&#45;or&#45;later -->
<g id="node9" class="node">
<title>http://spdx.org/licenses/GPL&#45;3.0&#45;or&#45;later</title>
<ellipse fill="none" stroke="#e377c2" cx="1104.07" cy="-842.04" rx="108.79" ry="16.03"/>
<text text-anchor="middle" x="1104.07" y="-838.34" font-family="Times,serif" font-size="14.00">spdxl:GPL&#45;3.0&#45;or&#45;...</text>
</g>
<!-- http://w3id.org/oseg/ont/okhmeta#QualityTag -->
<g id="node10" class="node">
<title>http://w3id.org/oseg/ont/okhmeta#QualityTag</title>
<ellipse fill="none" stroke="#e377c2" cx="123.22" cy="-306.96" rx="113.27" ry="16.03"/>
<text text-anchor="middle" x="123.22" y="-303.26" font-family="Times,serif" font-size="14.00">okhmeta:QualityTag</text>
</g>
<!-- http://w3id.org/oseg/ont/okhmeta#QualityTag&#45;&gt;http://w3id.org/oseg/ont/okhmeta#Tag -->
<g id="edge23" class="edge">
<title>http://w3id.org/oseg/ont/okhmeta#QualityTag&#45;&gt;http://w3id.org/oseg/ont/okhmeta#Tag</title>
<path fill="none" stroke="black" d="M189,-320.21C243.54,-331.19 320.69,-346.73 375.16,-357.7"/>
<polygon fill="black" stroke="black" points="374.56,-361.15 385.06,-359.69 375.95,-354.29 374.56,-361.15"/>
<text text-anchor="middle" x="277.58" y="-342.76" font-family="Times,serif" font-size="14.00">a</text>
</g>
<!-- http://w3id.org/oseg/ont/okhmeta#QualityTag&#45;&gt;http://w3id.org/oseg/ont/okhmeta#MetaTag -->
<g id="edge42" class="edge">
<title>http://w3id.org/oseg/ont/okhmeta#QualityTag&#45;&gt;http://w3id.org/oseg/ont/okhmeta#MetaTag</title>
<path fill="none" stroke="black" d="M166.28,-322.02C224.45,-342.36 328.02,-378.58 390.47,-400.42"/>
<polygon fill="black" stroke="black" points="389.53,-403.8 400.13,-403.8 391.85,-397.19 389.53,-403.8"/>
<text text-anchor="middle" x="201.38" y="-365.02" font-family="Times,serif" font-size="14.00">okhmeta:hasMetaTag</text>
</g>
<!-- http://w3id.org/oseg/ont/okhmeta#DocumentationTag -->
<g id="node11" class="node">
<title>http://w3id.org/oseg/ont/okhmeta#DocumentationTag</title>
<ellipse fill="none" stroke="#e377c2" cx="796.16" cy="-434.23" rx="125.32" ry="16.03"/>
<text text-anchor="middle" x="796.16" y="-430.53" font-family="Times,serif" font-size="14.00">okhmeta:Documenta...</text>
</g>
<!-- http://w3id.org/oseg/ont/okhmeta#DocumentationTag&#45;&gt;http://w3id.org/oseg/ont/okhmeta#Tag -->
<g id="edge27" class="edge">
<title>http://w3id.org/oseg/ont/okhmeta#DocumentationTag&#45;&gt;http://w3id.org/oseg/ont/okhmeta#Tag</title>
<path fill="none" stroke="black" d="M722.07,-421.03C659.43,-409.87 570.39,-394.01 509.34,-383.13"/>
<polygon fill="black" stroke="black" points="509.87,-379.67 499.41,-381.36 508.64,-386.56 509.87,-379.67"/>
<text text-anchor="middle" x="611.2" y="-390.88" font-family="Times,serif" font-size="14.00">a</text>
</g>
<!-- http://w3id.org/oseg/ont/okhmeta#DocumentationTag&#45;&gt;http://w3id.org/oseg/ont/okhmeta#MetaTag -->
<g id="edge31" class="edge">
<title>http://w3id.org/oseg/ont/okhmeta#DocumentationTag&#45;&gt;http://w3id.org/oseg/ont/okhmeta#MetaTag</title>
<path fill="none" stroke="black" d="M677.41,-428.99C636.72,-427.19 591.4,-425.19 551.51,-423.43"/>
<polygon fill="black" stroke="black" points="551.64,-419.93 541.5,-422.99 551.33,-426.93 551.64,-419.93"/>
<text text-anchor="middle" x="537.46" y="-430.01" font-family="Times,serif" font-size="14.00">okhmeta:hasMetaTag</text>
</g>
<!-- http://w3id.org/oseg/ont/okhmeta#MakingTag -->
<g id="node12" class="node">
<title>http://w3id.org/oseg/ont/okhmeta#MakingTag</title>
<ellipse fill="none" stroke="#e377c2" cx="215.5" cy="-132.94" rx="113.69" ry="16.03"/>
<text text-anchor="middle" x="215.5" y="-129.24" font-family="Times,serif" font-size="14.00">okhmeta:MakingTag</text>
</g>
<!-- http://w3id.org/oseg/ont/okhmeta#MakingTag&#45;&gt;http://w3id.org/oseg/ont/okhmeta#Tag -->
<g id="edge28" class="edge">
<title>http://w3id.org/oseg/ont/okhmeta#MakingTag&#45;&gt;http://w3id.org/oseg/ont/okhmeta#Tag</title>
<path fill="none" stroke="black" d="M230.98,-149.29C270.04,-190.57 372.75,-299.1 418.34,-347.28"/>
<polygon fill="black" stroke="black" points="415.98,-349.89 425.4,-354.74 421.07,-345.07 415.98,-349.89"/>
<text text-anchor="middle" x="320.16" y="-252.09" font-family="Times,serif" font-size="14.00">a</text>
</g>
<!-- http://w3id.org/oseg/ont/okhmeta#MakingTag&#45;&gt;http://w3id.org/oseg/ont/okhmeta#MetaTag -->
<g id="edge15" class="edge">
<title>http://w3id.org/oseg/ont/okhmeta#MakingTag&#45;&gt;http://w3id.org/oseg/ont/okhmeta#MetaTag</title>
<path fill="none" stroke="black" d="M228.35,-149.12C266.27,-196.83 377.81,-337.2 423.08,-394.17"/>
<polygon fill="black" stroke="black" points="420.55,-396.61 429.51,-402.26 426.03,-392.26 420.55,-396.61"/>
<text text-anchor="middle" x="248.72" y="-275.44" font-family="Times,serif" font-size="14.00">okhmeta:hasMetaTag</text>
</g>
<!-- http://w3id.org/oseg/ont/okhmeta#HistoryTag -->
<g id="node13" class="node">
<title>http://w3id.org/oseg/ont/okhmeta#HistoryTag</title>
<ellipse fill="none" stroke="#e377c2" cx="171.38" cy="-213.5" rx="113.69" ry="16.03"/>
<text text-anchor="middle" x="171.38" y="-209.8" font-family="Times,serif" font-size="14.00">okhmeta:HistoryTag</text>
</g>
<!-- http://w3id.org/oseg/ont/okhmeta#HistoryTag&#45;&gt;http://w3id.org/oseg/ont/okhmeta#Tag -->
<g id="edge35" class="edge">
<title>http://w3id.org/oseg/ont/okhmeta#HistoryTag&#45;&gt;http://w3id.org/oseg/ont/okhmeta#Tag</title>
<path fill="none" stroke="black" d="M198.44,-229.31C247.48,-257.98 351.04,-318.5 405.51,-350.34"/>
<polygon fill="black" stroke="black" points="404.05,-353.54 414.45,-355.56 407.58,-347.49 404.05,-353.54"/>
<text text-anchor="middle" x="297.47" y="-293.62" font-family="Times,serif" font-size="14.00">a</text>
</g>
<!-- http://w3id.org/oseg/ont/okhmeta#HistoryTag&#45;&gt;http://w3id.org/oseg/ont/okhmeta#MetaTag -->
<g id="edge20" class="edge">
<title>http://w3id.org/oseg/ont/okhmeta#HistoryTag&#45;&gt;http://w3id.org/oseg/ont/okhmeta#MetaTag</title>
<path fill="none" stroke="black" d="M192.66,-229.59C240.76,-265.99 358.01,-354.69 413.05,-396.33"/>
<polygon fill="black" stroke="black" points="411.24,-399.36 421.33,-402.6 415.47,-393.77 411.24,-399.36"/>
<text text-anchor="middle" x="379.85" y="-316.76" font-family="Times,serif" font-size="14.00">okhmeta:hasMetaTag</text>
</g>
<!-- http://w3id.org/oseg/ont/oseg&#45;profiles#Iopa -->
<g id="node14" class="node">
<title>http://w3id.org/oseg/ont/oseg&#45;profiles#Iopa</title>
<ellipse fill="none" stroke="#e377c2" cx="1246.15" cy="-998.1" rx="80.72" ry="16.03"/>
<text text-anchor="middle" x="1246.15" y="-994.4" font-family="Times,serif" font-size="14.00">osegprof:Iopa</text>
</g>
<!-- http://w3id.org/oseg/ont/okhmeta#LegalTag -->
<g id="node15" class="node">
<title>http://w3id.org/oseg/ont/okhmeta#LegalTag</title>
<ellipse fill="none" stroke="#e377c2" cx="583.34" cy="-95.19" rx="103.89" ry="16.03"/>
<text text-anchor="middle" x="583.34" y="-91.49" font-family="Times,serif" font-size="14.00">okhmeta:LegalTag</text>
</g>
<!-- http://w3id.org/oseg/ont/okhmeta#LegalTag&#45;&gt;http://w3id.org/oseg/ont/okhmeta#Tag -->
<g id="edge36" class="edge">
<title>http://w3id.org/oseg/ont/okhmeta#LegalTag&#45;&gt;http://w3id.org/oseg/ont/okhmeta#Tag</title>
<path fill="none" stroke="black" d="M574.85,-111.61C550.91,-157.87 482.79,-289.52 453.9,-345.36"/>
<polygon fill="black" stroke="black" points="450.63,-344.07 449.14,-354.56 456.84,-347.29 450.63,-344.07"/>
<text text-anchor="middle" x="509.88" y="-232.28" font-family="Times,serif" font-size="14.00">a</text>
</g>
<!-- http://w3id.org/oseg/ont/okhmeta#LegalTag&#45;&gt;http://w3id.org/oseg/ont/okhmeta#MetaTag -->
<g id="edge22" class="edge">
<title>http://w3id.org/oseg/ont/okhmeta#LegalTag&#45;&gt;http://w3id.org/oseg/ont/okhmeta#MetaTag</title>
<path fill="none" stroke="black" d="M576.17,-111.67C553.23,-164.34 481.61,-328.82 453.75,-392.8"/>
<polygon fill="black" stroke="black" points="450.45,-391.6 449.67,-402.17 456.87,-394.4 450.45,-391.6"/>
<text text-anchor="middle" x="437.96" y="-256.03" font-family="Times,serif" font-size="14.00">okhmeta:hasMetaTag</text>
</g>
<!-- http://w3id.org/oseg/ont/okhmeta#TransportationTag -->
<g id="node16" class="node">
<title>http://w3id.org/oseg/ont/okhmeta#TransportationTag</title>
<ellipse fill="none" stroke="#e377c2" cx="688.1" cy="-631.63" rx="118.17" ry="16.03"/>
<text text-anchor="middle" x="688.1" y="-627.93" font-family="Times,serif" font-size="14.00">okhmeta:Transport...</text>
</g>
<!-- http://w3id.org/oseg/ont/okhmeta#TransportationTag&#45;&gt;http://w3id.org/oseg/ont/okhmeta#Tag -->
<g id="edge5" class="edge">
<title>http://w3id.org/oseg/ont/okhmeta#TransportationTag&#45;&gt;http://w3id.org/oseg/ont/okhmeta#Tag</title>
<path fill="none" stroke="black" d="M672.62,-615.32C630.26,-570.67 512.29,-446.35 462.89,-394.29"/>
<polygon fill="black" stroke="black" points="465.27,-391.71 455.84,-386.87 460.19,-396.53 465.27,-391.71"/>
<text text-anchor="middle" x="563.26" y="-508.61" font-family="Times,serif" font-size="14.00">a</text>
</g>
<!-- http://w3id.org/oseg/ont/okhmeta#TransportationTag&#45;&gt;http://w3id.org/oseg/ont/okhmeta#MetaTag -->
<g id="edge1" class="edge">
<title>http://w3id.org/oseg/ont/okhmeta#TransportationTag&#45;&gt;http://w3id.org/oseg/ont/okhmeta#MetaTag</title>
<path fill="none" stroke="black" d="M669.24,-615.27C625.82,-577.62 518.76,-484.76 468.88,-441.49"/>
<polygon fill="black" stroke="black" points="470.95,-438.65 461.1,-434.74 466.36,-443.94 470.95,-438.65"/>
<text text-anchor="middle" x="646.06" y="-517.18" font-family="Times,serif" font-size="14.00">okhmeta:hasMetaTag</text>
</g>
<!-- http://w3id.org/oseg/ont/okhmeta#AcademicTag -->
<g id="node18" class="node">
<title>http://w3id.org/oseg/ont/okhmeta#AcademicTag</title>
<ellipse fill="none" stroke="#e377c2" cx="754.3" cy="-546.06" rx="124.4" ry="16.03"/>
<text text-anchor="middle" x="754.3" y="-542.36" font-family="Times,serif" font-size="14.00">okhmeta:AcademicTag</text>
</g>
<!-- http://w3id.org/oseg/ont/okhmeta#AcademicTag&#45;&gt;http://w3id.org/oseg/ont/okhmeta#Tag -->
<g id="edge37" class="edge">
<title>http://w3id.org/oseg/ont/okhmeta#AcademicTag&#45;&gt;http://w3id.org/oseg/ont/okhmeta#Tag</title>
<path fill="none" stroke="black" d="M725.91,-530.2C668.86,-498.34 540.35,-426.56 477.17,-391.27"/>
<polygon fill="black" stroke="black" points="478.77,-388.16 468.33,-386.34 475.36,-394.27 478.77,-388.16"/>
<text text-anchor="middle" x="597.04" y="-464.54" font-family="Times,serif" font-size="14.00">a</text>
</g>
<!-- http://w3id.org/oseg/ont/okhmeta#AcademicTag&#45;&gt;http://w3id.org/oseg/ont/okhmeta#MetaTag -->
<g id="edge29" class="edge">
<title>http://w3id.org/oseg/ont/okhmeta#AcademicTag&#45;&gt;http://w3id.org/oseg/ont/okhmeta#MetaTag</title>
<path fill="none" stroke="black" d="M716.38,-530.56C659.23,-507.2 551.13,-463.01 489.21,-437.71"/>
<polygon fill="black" stroke="black" points="490.26,-434.36 479.68,-433.81 487.61,-440.83 490.26,-434.36"/>
<text text-anchor="middle" x="525.79" y="-487.93" font-family="Times,serif" font-size="14.00">okhmeta:hasMetaTag</text>
</g>
<!-- http://w3id.org/oseg/ont/okhmeta#PartsTag -->
<g id="node19" class="node">
<title>http://w3id.org/oseg/ont/okhmeta#PartsTag</title>
<ellipse fill="none" stroke="#e377c2" cx="144.03" cy="-411.63" rx="103.48" ry="16.03"/>
<text text-anchor="middle" x="144.03" y="-407.93" font-family="Times,serif" font-size="14.00">okhmeta:PartsTag</text>
</g>
<!-- http://w3id.org/oseg/ont/okhmeta#PartsTag&#45;&gt;http://w3id.org/oseg/ont/okhmeta#Tag -->
<g id="edge7" class="edge">
<title>http://w3id.org/oseg/ont/okhmeta#PartsTag&#45;&gt;http://w3id.org/oseg/ont/okhmeta#Tag</title>
<path fill="none" stroke="black" d="M221.97,-400.93C266.56,-394.81 322.21,-387.17 366.21,-381.12"/>
<polygon fill="black" stroke="black" points="366.84,-384.57 376.27,-379.74 365.89,-377.64 366.84,-384.57"/>
<text text-anchor="middle" x="289.59" y="-379.83" font-family="Times,serif" font-size="14.00">a</text>
</g>
<!-- http://w3id.org/oseg/ont/okhmeta#PartsTag&#45;&gt;http://w3id.org/oseg/ont/okhmeta#MetaTag -->
<g id="edge2" class="edge">
<title>http://w3id.org/oseg/ont/okhmeta#PartsTag&#45;&gt;http://w3id.org/oseg/ont/okhmeta#MetaTag</title>
<path fill="none" stroke="black" d="M246.33,-414.03C273.53,-414.66 303.05,-415.35 330.74,-416"/>
<polygon fill="black" stroke="black" points="330.76,-419.5 340.84,-416.24 330.93,-412.51 330.76,-419.5"/>
<text text-anchor="middle" x="288.53" y="-403.81" font-family="Times,serif" font-size="14.00">okhmeta:hasMetaTag</text>
</g>
<!-- http://id.loc.gov/vocabulary/iso639&#45;1/en -->
<g id="node20" class="node">
<title>http://id.loc.gov/vocabulary/iso639&#45;1/en</title>
<ellipse fill="none" stroke="#e377c2" cx="1024.89" cy="-1073.67" rx="45.01" ry="16.03"/>
<text text-anchor="middle" x="1024.89" y="-1069.97" font-family="Times,serif" font-size="14.00">ns1:en</text>
</g>
<!-- http://w3id.org/oseg/ont/okhmeta#PhysicalTag -->
<g id="node21" class="node">
<title>http://w3id.org/oseg/ont/okhmeta#PhysicalTag</title>
<ellipse fill="none" stroke="#e377c2" cx="775.49" cy="-320.48" rx="118.17" ry="16.03"/>
<text text-anchor="middle" x="775.49" y="-316.78" font-family="Times,serif" font-size="14.00">okhmeta:PhysicalTag</text>
</g>
<!-- http://w3id.org/oseg/ont/okhmeta#PhysicalTag&#45;&gt;http://w3id.org/oseg/ont/okhmeta#Tag -->
<g id="edge40" class="edge">
<title>http://w3id.org/oseg/ont/okhmeta#PhysicalTag&#45;&gt;http://w3id.org/oseg/ont/okhmeta#Tag</title>
<path fill="none" stroke="black" d="M695.72,-332.49C640.3,-340.84 567.04,-351.87 513.26,-359.97"/>
<polygon fill="black" stroke="black" points="512.48,-356.55 503.11,-361.5 513.52,-363.47 512.48,-356.55"/>
<text text-anchor="middle" x="599.99" y="-350.03" font-family="Times,serif" font-size="14.00">a</text>
</g>
<!-- http://w3id.org/oseg/ont/okhmeta#PhysicalTag&#45;&gt;http://w3id.org/oseg/ont/okhmeta#MetaTag -->
<g id="edge32" class="edge">
<title>http://w3id.org/oseg/ont/okhmeta#PhysicalTag&#45;&gt;http://w3id.org/oseg/ont/okhmeta#MetaTag</title>
<path fill="none" stroke="black" d="M725.28,-335.28C665.18,-352.99 564.7,-382.61 501.1,-401.35"/>
<polygon fill="black" stroke="black" points="499.83,-398.08 491.23,-404.26 501.81,-404.79 499.83,-398.08"/>
<text text-anchor="middle" x="690.19" y="-372.11" font-family="Times,serif" font-size="14.00">okhmeta:hasMetaTag</text>
</g>
<!-- http://w3id.org/oseg/ont/okhmeta#BasicTag -->
<g id="node22" class="node">
<title>http://w3id.org/oseg/ont/okhmeta#BasicTag</title>
<ellipse fill="none" stroke="#e377c2" cx="651.33" cy="-158.54" rx="103.48" ry="16.03"/>
<text text-anchor="middle" x="651.33" y="-154.84" font-family="Times,serif" font-size="14.00">okhmeta:BasicTag</text>
</g>
<!-- http://w3id.org/oseg/ont/okhmeta#BasicTag&#45;&gt;http://w3id.org/oseg/ont/okhmeta#Tag -->
<g id="edge9" class="edge">
<title>http://w3id.org/oseg/ont/okhmeta#BasicTag&#45;&gt;http://w3id.org/oseg/ont/okhmeta#Tag</title>
<path fill="none" stroke="black" d="M635.16,-174.85C598.08,-212.23 506.85,-304.2 463.84,-347.56"/>
<polygon fill="black" stroke="black" points="461.19,-345.26 456.63,-354.82 466.16,-350.19 461.19,-345.26"/>
<text text-anchor="middle" x="545" y="-265.01" font-family="Times,serif" font-size="14.00">a</text>
</g>
<!-- http://w3id.org/oseg/ont/okhmeta#BasicTag&#45;&gt;http://w3id.org/oseg/ont/okhmeta#MetaTag -->
<g id="edge45" class="edge">
<title>http://w3id.org/oseg/ont/okhmeta#BasicTag&#45;&gt;http://w3id.org/oseg/ont/okhmeta#MetaTag</title>
<path fill="none" stroke="black" d="M638.27,-174.81C602.75,-219.05 504.23,-341.75 462.06,-394.26"/>
<polygon fill="black" stroke="black" points="459.1,-392.37 455.57,-402.36 464.56,-396.75 459.1,-392.37"/>
<text text-anchor="middle" x="473.17" y="-288.34" font-family="Times,serif" font-size="14.00">okhmeta:hasMetaTag</text>
</g>
<!-- http://w3id.org/oseg/ont/okhmeta#IdentificationTag -->
<g id="node23" class="node">
<title>http://w3id.org/oseg/ont/okhmeta#IdentificationTag</title>
<ellipse fill="none" stroke="#e377c2" cx="292.93" cy="-677.23" rx="109.7" ry="16.03"/>
<text text-anchor="middle" x="292.93" y="-673.53" font-family="Times,serif" font-size="14.00">okhmeta:Identific...</text>
</g>
<!-- http://w3id.org/oseg/ont/okhmeta#IdentificationTag&#45;&gt;http://w3id.org/oseg/ont/okhmeta#Tag -->
<g id="edge41" class="edge">
<title>http://w3id.org/oseg/ont/okhmeta#IdentificationTag&#45;&gt;http://w3id.org/oseg/ont/okhmeta#Tag</title>
<path fill="none" stroke="black" d="M300.88,-660.76C325.24,-610.25 399,-457.32 428.4,-396.37"/>
<polygon fill="black" stroke="black" points="431.69,-397.61 432.88,-387.08 425.39,-394.56 431.69,-397.61"/>
<text text-anchor="middle" x="360.14" y="-532.36" font-family="Times,serif" font-size="14.00">a</text>
</g>
<!-- http://w3id.org/oseg/ont/okhmeta#IdentificationTag&#45;&gt;http://w3id.org/oseg/ont/okhmeta#MetaTag -->
<g id="edge34" class="edge">
<title>http://w3id.org/oseg/ont/okhmeta#IdentificationTag&#45;&gt;http://w3id.org/oseg/ont/okhmeta#MetaTag</title>
<path fill="none" stroke="black" d="M302.52,-660.65C328,-616.59 397.57,-496.31 427.97,-443.75"/>
<polygon fill="black" stroke="black" points="431.03,-445.46 433,-435.05 424.97,-441.95 431.03,-445.46"/>
<text text-anchor="middle" x="288.24" y="-556" font-family="Times,serif" font-size="14.00">okhmeta:hasMetaTag</text>
</g>
<!-- http://w3id.org/oseg/ont/oseg&#45;profiles#robinVobruba -->
<g id="node24" class="node">
<title>http://w3id.org/oseg/ont/oseg&#45;profiles#robinVobruba</title>
<ellipse fill="none" stroke="#e377c2" cx="988.51" cy="-926.33" rx="113.69" ry="16.03"/>
<text text-anchor="middle" x="988.51" y="-922.63" font-family="Times,serif" font-size="14.00">osegprof:robinVob...</text>
</g>
<!-- http://w3id.org/oseg/ont/okhmeta#ExtendedInfoTag -->
<g id="node25" class="node">
<title>http://w3id.org/oseg/ont/okhmeta#ExtendedInfoTag</title>
<ellipse fill="none" stroke="#e377c2" cx="197.97" cy="-616.93" rx="120.42" ry="16.03"/>
<text text-anchor="middle" x="197.97" y="-613.23" font-family="Times,serif" font-size="14.00">okhmeta:ExtendedI...</text>
</g>
<!-- http://w3id.org/oseg/ont/okhmeta#ExtendedInfoTag&#45;&gt;http://w3id.org/oseg/ont/okhmeta#Tag -->
<g id="edge12" class="edge">
<title>http://w3id.org/oseg/ont/okhmeta#ExtendedInfoTag&#45;&gt;http://w3id.org/oseg/ont/okhmeta#Tag</title>
<path fill="none" stroke="black" d="M213.89,-600.79C255.64,-558.47 368.39,-444.19 417.4,-394.5"/>
<polygon fill="black" stroke="black" points="420.17,-396.68 424.7,-387.1 415.19,-391.76 420.17,-396.68"/>
<text text-anchor="middle" x="311.15" y="-501.44" font-family="Times,serif" font-size="14.00">a</text>
</g>
<!-- http://w3id.org/oseg/ont/okhmeta#ExtendedInfoTag&#45;&gt;http://w3id.org/oseg/ont/okhmeta#MetaTag -->
<g id="edge18" class="edge">
<title>http://w3id.org/oseg/ont/okhmeta#ExtendedInfoTag&#45;&gt;http://w3id.org/oseg/ont/okhmeta#MetaTag</title>
<path fill="none" stroke="black" d="M217.98,-600.7C261.52,-565.39 364.95,-481.51 414.76,-441.12"/>
<polygon fill="black" stroke="black" points="417,-443.81 422.56,-434.79 412.59,-438.37 417,-443.81"/>
<text text-anchor="middle" x="393.37" y="-509.71" font-family="Times,serif" font-size="14.00">okhmeta:hasMetaTag</text>
</g>
<!-- http://w3id.org/oseg/ont/1.1.0/okh&#45;meta -->
<g id="node26" class="node">
<title>http://w3id.org/oseg/ont/1.1.0/okh&#45;meta</title>
<ellipse fill="none" stroke="#e377c2" cx="902.47" cy="-773.35" rx="79.81" ry="16.03"/>
<text text-anchor="middle" x="902.47" y="-769.65" font-family="Times,serif" font-size="14.00">ns2:okh&#45;meta</text>
</g>
<!-- http://w3id.org/oseg/ont/okhmeta#DataGatheringTag -->
<g id="node27" class="node">
<title>http://w3id.org/oseg/ont/okhmeta#DataGatheringTag</title>
<ellipse fill="none" stroke="#e377c2" cx="121.9" cy="-519.15" rx="122.16" ry="16.03"/>
<text text-anchor="middle" x="121.9" y="-515.45" font-family="Times,serif" font-size="14.00">okhmeta:DataGathe...</text>
</g>
<!-- http://w3id.org/oseg/ont/okhmeta#DataGatheringTag&#45;&gt;http://w3id.org/oseg/ont/okhmeta#Tag -->
<g id="edge13" class="edge">
<title>http://w3id.org/oseg/ont/okhmeta#DataGatheringTag&#45;&gt;http://w3id.org/oseg/ont/okhmeta#Tag</title>
<path fill="none" stroke="black" d="M155.71,-503.43C214.55,-476.07 335.54,-419.8 399.3,-390.15"/>
<polygon fill="black" stroke="black" points="401.05,-393.19 408.64,-385.8 398.1,-386.84 401.05,-393.19"/>
<text text-anchor="middle" x="273" y="-450.59" font-family="Times,serif" font-size="14.00">a</text>
</g>
<!-- http://w3id.org/oseg/ont/okhmeta#DataGatheringTag&#45;&gt;http://w3id.org/oseg/ont/okhmeta#MetaTag -->
<g id="edge48" class="edge">
<title>http://w3id.org/oseg/ont/okhmeta#DataGatheringTag&#45;&gt;http://w3id.org/oseg/ont/okhmeta#MetaTag</title>
<path fill="none" stroke="black" d="M169.9,-504.1C227.73,-485.97 324.75,-455.54 386.1,-436.3"/>
<polygon fill="black" stroke="black" points="387.51,-439.53 396.01,-433.2 385.42,-432.85 387.51,-439.53"/>
<text text-anchor="middle" x="201" y="-474" font-family="Times,serif" font-size="14.00">okhmeta:hasMetaTag</text>
</g>
<!-- http://w3id.org/oseg/ont/okhmeta#DevelopmentTag -->
<g id="node28" class="node">
<title>http://w3id.org/oseg/ont/okhmeta#DevelopmentTag</title>
<ellipse fill="none" stroke="#e377c2" cx="751.11" cy="-204.89" rx="124.4" ry="16.03"/>
<text text-anchor="middle" x="751.11" y="-201.19" font-family="Times,serif" font-size="14.00">okhmeta:Developme...</text>
</g>
<!-- http://w3id.org/oseg/ont/okhmeta#DevelopmentTag&#45;&gt;http://w3id.org/oseg/ont/okhmeta#Tag -->
<g id="edge46" class="edge">
<title>http://w3id.org/oseg/ont/okhmeta#DevelopmentTag&#45;&gt;http://w3id.org/oseg/ont/okhmeta#Tag</title>
<path fill="none" stroke="black" d="M721.35,-220.8C664.48,-251.22 540.49,-317.52 478.11,-350.88"/>
<polygon fill="black" stroke="black" points="476.18,-347.95 469.01,-355.75 479.48,-354.12 476.18,-347.95"/>
<text text-anchor="middle" x="595.23" y="-289.64" font-family="Times,serif" font-size="14.00">a</text>
</g>
<!-- http://w3id.org/oseg/ont/okhmeta#DevelopmentTag&#45;&gt;http://w3id.org/oseg/ont/okhmeta#MetaTag -->
<g id="edge38" class="edge">
<title>http://w3id.org/oseg/ont/okhmeta#DevelopmentTag&#45;&gt;http://w3id.org/oseg/ont/okhmeta#MetaTag</title>
<path fill="none" stroke="black" d="M727.92,-220.95C673.16,-258.87 535.82,-353.99 473.79,-396.95"/>
<polygon fill="black" stroke="black" points="471.78,-394.09 465.55,-402.66 475.76,-399.84 471.78,-394.09"/>
<text text-anchor="middle" x="523.85" y="-312.75" font-family="Times,serif" font-size="14.00">okhmeta:hasMetaTag</text>
</g>
<!-- http://w3id.org/oseg/ont/okhmeta -->
<g id="node29" class="node">
<title>http://w3id.org/oseg/ont/okhmeta</title>
<ellipse fill="none" stroke="#e377c2" cx="1055.77" cy="-882.97" rx="76.24" ry="16.03"/>
<text text-anchor="middle" x="1055.77" y="-879.27" font-family="Times,serif" font-size="14.00">ns3:okhmeta</text>
</g>
<!-- http://w3id.org/oseg/ont/okhmeta&#45;&gt;http://www.w3.org/2002/07/owl#Ontology -->
<g id="edge14" class="edge">
<title>http://w3id.org/oseg/ont/okhmeta&#45;&gt;http://www.w3.org/2002/07/owl#Ontology</title>
<path fill="none" stroke="black" d="M979.55,-881.81C957.27,-881.47 932.74,-881.1 909.8,-880.75"/>
<polygon fill="black" stroke="black" points="909.78,-877.25 899.73,-880.6 909.68,-884.25 909.78,-877.25"/>
<text text-anchor="middle" x="940.18" y="-885.08" font-family="Times,serif" font-size="14.00">a</text>
</g>
<!-- http://w3id.org/oseg/ont/okhmeta&#45;&gt;http://spdx.org/rdf/terms#SpdxItem -->
<g id="edge16" class="edge">
<title>http://w3id.org/oseg/ont/okhmeta&#45;&gt;http://spdx.org/rdf/terms#SpdxItem</title>
<path fill="none" stroke="black" d="M1080.58,-867.48C1115.28,-845.83 1178.42,-806.43 1217.53,-782.02"/>
<polygon fill="black" stroke="black" points="1219.82,-784.72 1226.45,-776.46 1216.11,-778.78 1219.82,-784.72"/>
<text text-anchor="middle" x="1144.56" y="-813.55" font-family="Times,serif" font-size="14.00">a</text>
</g>
<!-- http://w3id.org/oseg/ont/okhmeta&#45;&gt;http://spdx.org/licenses/GPL&#45;3.0&#45;or&#45;later -->
<g id="edge21" class="edge">
<title>http://w3id.org/oseg/ont/okhmeta&#45;&gt;http://spdx.org/licenses/GPL&#45;3.0&#45;or&#45;later</title>
<path fill="none" stroke="black" d="M1074.58,-867.02C1075.43,-866.31 1076.29,-865.58 1077.15,-864.85"/>
<polygon fill="black" stroke="black" points="1079.55,-867.41 1084.91,-858.27 1075.02,-862.07 1079.55,-867.41"/>
<text text-anchor="middle" x="999.87" y="-854.74" font-family="Times,serif" font-size="14.00">spdx:licenseDeclared</text>
</g>
<!-- http://w3id.org/oseg/ont/okhmeta&#45;&gt;http://w3id.org/oseg/ont/oseg&#45;profiles#Iopa -->
<g id="edge3" class="edge">
<title>http://w3id.org/oseg/ont/okhmeta&#45;&gt;http://w3id.org/oseg/ont/oseg&#45;profiles#Iopa</title>
<path fill="none" stroke="black" d="M1081.45,-898.49C1115.18,-918.89 1174.52,-954.78 1212.01,-977.45"/>
<polygon fill="black" stroke="black" points="1210.21,-980.46 1220.58,-982.64 1213.83,-974.47 1210.21,-980.46"/>
<text text-anchor="middle" x="1212.23" y="-941.77" font-family="Times,serif" font-size="14.00">dcterms:publisher</text>
</g>
<!-- http://w3id.org/oseg/ont/okhmeta&#45;&gt;http://id.loc.gov/vocabulary/iso639&#45;1/en -->
<g id="edge8" class="edge">
<title>http://w3id.org/oseg/ont/okhmeta&#45;&gt;http://id.loc.gov/vocabulary/iso639&#45;1/en</title>
<path fill="none" stroke="black" d="M1053.14,-899.22C1047.81,-932.15 1035.69,-1006.96 1029.19,-1047.08"/>
<polygon fill="black" stroke="black" points="1025.7,-1046.75 1027.56,-1057.18 1032.61,-1047.87 1025.7,-1046.75"/>
<text text-anchor="middle" x="976.67" y="-976.95" font-family="Times,serif" font-size="14.00">dcterms:language</text>
</g>
<!-- http://w3id.org/oseg/ont/okhmeta&#45;&gt;http://w3id.org/oseg/ont/oseg&#45;profiles#robinVobruba -->
<g id="edge11" class="edge">
<title>http://w3id.org/oseg/ont/okhmeta&#45;&gt;http://w3id.org/oseg/ont/oseg&#45;profiles#robinVobruba</title>
<path fill="none" stroke="black" d="M1020.86,-897.46C1017.41,-899.63 1013.98,-901.91 1010.71,-904.19"/>
<polygon fill="black" stroke="black" points="1008.52,-901.45 1002.52,-910.18 1012.66,-907.1 1008.52,-901.45"/>
<text text-anchor="middle" x="1071.28" y="-904.63" font-family="Times,serif" font-size="14.00">schema:creator</text>
</g>
<!-- http://w3id.org/oseg/ont/okhmeta&#45;&gt;http://w3id.org/oseg/ont/oseg&#45;profiles#robinVobruba -->
<g id="edge17" class="edge">
<title>http://w3id.org/oseg/ont/okhmeta&#45;&gt;http://w3id.org/oseg/ont/oseg&#45;profiles#robinVobruba</title>
<path fill="none" stroke="black" d="M1041.7,-899.17C1039.16,-901.13 1036.39,-903.15 1033.5,-905.16"/>
<polygon fill="black" stroke="black" points="1031.48,-902.3 1025.11,-910.76 1035.37,-908.12 1031.48,-902.3"/>
<text text-anchor="middle" x="980.1" y="-905.96" font-family="Times,serif" font-size="14.00">dcterms:creator</text>
</g>
<!-- http://w3id.org/oseg/ont/okhmeta&#45;&gt;http://w3id.org/oseg/ont/1.1.0/okh&#45;meta -->
<g id="edge44" class="edge">
<title>http://w3id.org/oseg/ont/okhmeta&#45;&gt;http://w3id.org/oseg/ont/1.1.0/okh&#45;meta</title>
<path fill="none" stroke="black" d="M1033.81,-867.26C1007.28,-848.3 962.53,-816.29 932.74,-795"/>
<polygon fill="black" stroke="black" points="934.56,-792 924.39,-789.03 930.49,-797.69 934.56,-792"/>
<text text-anchor="middle" x="931.78" y="-834.93" font-family="Times,serif" font-size="14.00">owl:versionIRI</text>
</g>
<!-- http://w3id.org/oseg/ont/okhmeta#DataTag -->
<g id="node30" class="node">
<title>http://w3id.org/oseg/ont/okhmeta#DataTag</title>
<ellipse fill="none" stroke="#e377c2" cx="363.16" cy="-92.09" rx="100.32" ry="16.03"/>
<text text-anchor="middle" x="363.16" y="-88.39" font-family="Times,serif" font-size="14.00">okhmeta:DataTag</text>
</g>
<!-- http://w3id.org/oseg/ont/okhmeta#DataTag&#45;&gt;http://w3id.org/oseg/ont/okhmeta#Tag -->
<g id="edge47" class="edge">
<title>http://w3id.org/oseg/ont/okhmeta#DataTag&#45;&gt;http://w3id.org/oseg/ont/okhmeta#Tag</title>
<path fill="none" stroke="black" d="M367.78,-108.69C380.76,-155.38 417.65,-288.06 433.41,-344.72"/>
<polygon fill="black" stroke="black" points="430.04,-345.68 436.09,-354.38 436.79,-343.81 430.04,-345.68"/>
<text text-anchor="middle" x="396.09" y="-230.51" font-family="Times,serif" font-size="14.00">a</text>
</g>
<!-- http://w3id.org/oseg/ont/okhmeta#DataTag&#45;&gt;http://w3id.org/oseg/ont/okhmeta#MetaTag -->
<g id="edge39" class="edge">
<title>http://w3id.org/oseg/ont/okhmeta#DataTag&#45;&gt;http://w3id.org/oseg/ont/okhmeta#MetaTag</title>
<path fill="none" stroke="black" d="M367.2,-108.73C380.1,-161.79 420.31,-327.27 436.07,-392.15"/>
<polygon fill="black" stroke="black" points="432.71,-393.12 438.47,-402.01 439.51,-391.47 432.71,-393.12"/>
<text text-anchor="middle" x="401.64" y="-239.24" font-family="Times,serif" font-size="14.00">okhmeta:hasMetaTag</text>
</g>
</g>
</svg>
