<?xml version="1.0" encoding="UTF-8" standalone="no"?>
<!DOCTYPE svg PUBLIC "-//W3C//DTD SVG 1.1//EN"
 "http://www.w3.org/Graphics/SVG/1.1/DTD/svg11.dtd">
<!-- Generated by graphviz version 2.43.0 (0)
 -->
<!-- Title: G Pages: 1 -->
<svg width="2739pt" height="1804pt"
 viewBox="0.00 0.00 2739.00 1804.00" xmlns="http://www.w3.org/2000/svg" xmlns:xlink="http://www.w3.org/1999/xlink">
<g id="graph0" class="graph" transform="scale(1 1) rotate(0) translate(4 1800)">
<title>G</title>
<polygon fill="white" stroke="transparent" points="-4,4 -4,-1800 2735,-1800 2735,4 -4,4"/>
<!-- http://www.w3.org/2004/02/skos/core#Concept -->
<g id="node1" class="node">
<title>http://www.w3.org/2004/02/skos/core#Concept</title>
<ellipse fill="none" stroke="#1f77b4" cx="1287.41" cy="-1028.3" rx="78.48" ry="16.03"/>
<text text-anchor="middle" x="1287.41" y="-1024.6" font-family="Times,serif" font-size="14.00">skos:Concept</text>
</g>
<!-- http://w3id.org/oseg/ont/okh#Reference -->
<g id="node2" class="node">
<title>http://w3id.org/oseg/ont/okh#Reference</title>
<ellipse fill="none" stroke="#e377c2" cx="986.91" cy="-1618.82" rx="84.29" ry="16.03"/>
<text text-anchor="middle" x="986.91" y="-1615.12" font-family="Times,serif" font-size="14.00">okh:Reference</text>
</g>
<!-- http://schema.org/URL -->
<g id="node3" class="node">
<title>http://schema.org/URL</title>
<ellipse fill="none" stroke="#e377c2" cx="542.16" cy="-909.67" rx="75.82" ry="16.03"/>
<text text-anchor="middle" x="542.16" y="-905.97" font-family="Times,serif" font-size="14.00">schema:URL</text>
</g>
<!-- http://www.w3.org/2002/07/owl#ObjectProperty -->
<g id="node4" class="node">
<title>http://www.w3.org/2002/07/owl#ObjectProperty</title>
<ellipse fill="none" stroke="#1f77b4" cx="618.15" cy="-1304.3" rx="109.7" ry="16.03"/>
<text text-anchor="middle" x="618.15" y="-1300.6" font-family="Times,serif" font-size="14.00">owl:ObjectProperty</text>
</g>
<!-- http://w3id.org/oseg/ont/okh#ComponentReference -->
<g id="node5" class="node">
<title>http://w3id.org/oseg/ont/okh#ComponentReference</title>
<ellipse fill="none" stroke="#e377c2" cx="1020.51" cy="-1280.32" rx="123.07" ry="16.03"/>
<text text-anchor="middle" x="1020.51" y="-1276.62" font-family="Times,serif" font-size="14.00">okh:ComponentRefe...</text>
</g>
<!-- http://w3id.org/oseg/ont/okh#ComponentReference&#45;&gt;http://www.w3.org/2004/02/skos/core#Concept -->
<g id="edge25" class="edge">
<title>http://w3id.org/oseg/ont/okh#ComponentReference&#45;&gt;http://www.w3.org/2004/02/skos/core#Concept</title>
<path fill="none" stroke="black" d="M1037.61,-1264.17C1083.56,-1220.79 1209.81,-1101.58 1263.13,-1051.22"/>
<polygon fill="black" stroke="black" points="1265.59,-1053.72 1270.45,-1044.31 1260.78,-1048.63 1265.59,-1053.72"/>
<text text-anchor="middle" x="1145.87" y="-1161.5" font-family="Times,serif" font-size="14.00">a</text>
</g>
<!-- http://w3id.org/oseg/ont/okh#ComponentReference&#45;&gt;http://w3id.org/oseg/ont/okh#Reference -->
<g id="edge2" class="edge">
<title>http://w3id.org/oseg/ont/okh#ComponentReference&#45;&gt;http://w3id.org/oseg/ont/okh#Reference</title>
<path fill="none" stroke="black" d="M1018.89,-1296.65C1013.51,-1350.82 996.22,-1524.96 989.56,-1592.09"/>
<polygon fill="black" stroke="black" points="986.05,-1591.97 988.55,-1602.26 993.02,-1592.66 986.05,-1591.97"/>
</g>
<!-- http://w3id.org/oseg/ont/okhmetaPartsTag -->
<g id="node38" class="node">
<title>http://w3id.org/oseg/ont/okhmetaPartsTag</title>
<ellipse fill="none" stroke="#e377c2" cx="1185.42" cy="-1601.39" rx="103.48" ry="16.03"/>
<text text-anchor="middle" x="1185.42" y="-1597.69" font-family="Times,serif" font-size="14.00">okhmeta:PartsTag</text>
</g>
<!-- http://w3id.org/oseg/ont/okh#ComponentReference&#45;&gt;http://w3id.org/oseg/ont/okhmetaPartsTag -->
<g id="edge46" class="edge">
<title>http://w3id.org/oseg/ont/okh#ComponentReference&#45;&gt;http://w3id.org/oseg/ont/okhmetaPartsTag</title>
<path fill="none" stroke="black" d="M1028.92,-1296.69C1055.82,-1349.07 1139.98,-1512.92 1172.45,-1576.15"/>
<polygon fill="black" stroke="black" points="1169.35,-1577.77 1177.03,-1585.06 1175.57,-1574.57 1169.35,-1577.77"/>
<text text-anchor="middle" x="1023.68" y="-1440.22" font-family="Times,serif" font-size="14.00">okhmeta:hasMetaTag</text>
</g>
<!-- http://w3id.org/oseg/ont/okh#FileUrl -->
<g id="node6" class="node">
<title>http://w3id.org/oseg/ont/okh#FileUrl</title>
<ellipse fill="none" stroke="#1f77b4" cx="735.96" cy="-1099.54" rx="68.68" ry="16.03"/>
<text text-anchor="middle" x="735.96" y="-1095.84" font-family="Times,serif" font-size="14.00">okh:FileUrl</text>
</g>
<!-- http://w3id.org/oseg/ont/okh#FileUrl&#45;&gt;http://schema.org/URL -->
<g id="edge45" class="edge">
<title>http://w3id.org/oseg/ont/okh#FileUrl&#45;&gt;http://schema.org/URL</title>
<path fill="none" stroke="black" d="M719.77,-1083.68C685.57,-1050.17 605.83,-972.06 565.87,-932.91"/>
<polygon fill="black" stroke="black" points="568.03,-930.12 558.44,-925.62 563.13,-935.12 568.03,-930.12"/>
</g>
<!-- http://w3id.org/oseg/ont/okh#FileUrl&#45;&gt;http://w3id.org/oseg/ont/okh#ComponentReference -->
<g id="edge20" class="edge">
<title>http://w3id.org/oseg/ont/okh#FileUrl&#45;&gt;http://w3id.org/oseg/ont/okh#ComponentReference</title>
<path fill="none" stroke="black" d="M760.22,-1114.95C810.97,-1147.2 928.45,-1221.83 986.62,-1258.79"/>
<polygon fill="black" stroke="black" points="984.77,-1261.76 995.09,-1264.17 988.53,-1255.86 984.77,-1261.76"/>
</g>
<!-- http://w3id.org/oseg/ont/okh#File -->
<g id="node29" class="node">
<title>http://w3id.org/oseg/ont/okh#File</title>
<ellipse fill="none" stroke="#e377c2" cx="559.67" cy="-1180.06" rx="52.15" ry="16.03"/>
<text text-anchor="middle" x="559.67" y="-1176.36" font-family="Times,serif" font-size="14.00">okh:File</text>
</g>
<!-- http://w3id.org/oseg/ont/okh#FileUrl&#45;&gt;http://w3id.org/oseg/ont/okh#File -->
<g id="edge31" class="edge">
<title>http://w3id.org/oseg/ont/okh#FileUrl&#45;&gt;http://w3id.org/oseg/ont/okh#File</title>
<path fill="none" stroke="black" d="M704.03,-1114.12C674.45,-1127.63 630.37,-1147.77 598.7,-1162.23"/>
<polygon fill="black" stroke="black" points="596.95,-1159.19 589.3,-1166.53 599.85,-1165.55 596.95,-1159.19"/>
<text text-anchor="middle" x="571.37" y="-1141.98" font-family="Times,serif" font-size="14.00">schema:supersededBy</text>
</g>
<!-- http://www.w3.org/2002/07/owl#DatatypeProperty -->
<g id="node7" class="node">
<title>http://www.w3.org/2002/07/owl#DatatypeProperty</title>
<ellipse fill="none" stroke="#1f77b4" cx="2000.48" cy="-641.97" rx="123.07" ry="16.03"/>
<text text-anchor="middle" x="2000.48" y="-638.27" font-family="Times,serif" font-size="14.00">owl:DatatypeProperty</text>
</g>
<!-- http://w3id.org/oseg/ont/okh#Mass -->
<g id="node8" class="node">
<title>http://w3id.org/oseg/ont/okh#Mass</title>
<ellipse fill="none" stroke="#e377c2" cx="1598.83" cy="-986.85" rx="59.29" ry="16.03"/>
<text text-anchor="middle" x="1598.83" y="-983.15" font-family="Times,serif" font-size="14.00">okh:Mass</text>
</g>
<!-- http://w3id.org/oseg/ont/okh#Mass&#45;&gt;http://www.w3.org/2004/02/skos/core#Concept -->
<g id="edge17" class="edge">
<title>http://w3id.org/oseg/ont/okh#Mass&#45;&gt;http://www.w3.org/2004/02/skos/core#Concept</title>
<path fill="none" stroke="black" d="M1545.29,-993.97C1495.18,-1000.64 1419.77,-1010.68 1363.43,-1018.18"/>
<polygon fill="black" stroke="black" points="1362.95,-1014.71 1353.5,-1019.5 1363.87,-1021.65 1362.95,-1014.71"/>
<text text-anchor="middle" x="1449.86" y="-1009.88" font-family="Times,serif" font-size="14.00">a</text>
</g>
<!-- http://w3id.org/oseg/ont/okhmetaPhysicalTag -->
<g id="node28" class="node">
<title>http://w3id.org/oseg/ont/okhmetaPhysicalTag</title>
<ellipse fill="none" stroke="#e377c2" cx="1803.49" cy="-1189.75" rx="118.17" ry="16.03"/>
<text text-anchor="middle" x="1803.49" y="-1186.05" font-family="Times,serif" font-size="14.00">okhmeta:PhysicalTag</text>
</g>
<!-- http://w3id.org/oseg/ont/okh#Mass&#45;&gt;http://w3id.org/oseg/ont/okhmetaPhysicalTag -->
<g id="edge29" class="edge">
<title>http://w3id.org/oseg/ont/okh#Mass&#45;&gt;http://w3id.org/oseg/ont/okhmetaPhysicalTag</title>
<path fill="none" stroke="black" d="M1614.89,-1002.77C1650.81,-1038.39 1737.82,-1124.64 1779.91,-1166.37"/>
<polygon fill="black" stroke="black" points="1777.65,-1169.07 1787.22,-1173.62 1782.58,-1164.1 1777.65,-1169.07"/>
<text text-anchor="middle" x="1620.4" y="-1088.37" font-family="Times,serif" font-size="14.00">okhmeta:hasMetaTag</text>
</g>
<!-- http://w3id.org/oseg/ont/okhmetaTransportationTag -->
<g id="node40" class="node">
<title>http://w3id.org/oseg/ont/okhmetaTransportationTag</title>
<ellipse fill="none" stroke="#e377c2" cx="1680.25" cy="-1255.75" rx="118.17" ry="16.03"/>
<text text-anchor="middle" x="1680.25" y="-1252.05" font-family="Times,serif" font-size="14.00">okhmeta:Transport...</text>
</g>
<!-- http://w3id.org/oseg/ont/okh#Mass&#45;&gt;http://w3id.org/oseg/ont/okhmetaTransportationTag -->
<g id="edge50" class="edge">
<title>http://w3id.org/oseg/ont/okh#Mass&#45;&gt;http://w3id.org/oseg/ont/okhmetaTransportationTag</title>
<path fill="none" stroke="black" d="M1603.8,-1003.26C1617.45,-1048.36 1655.63,-1174.45 1672.3,-1229.49"/>
<polygon fill="black" stroke="black" points="1668.99,-1230.65 1675.24,-1239.2 1675.69,-1228.62 1668.99,-1230.65"/>
<text text-anchor="middle" x="1561.05" y="-1120.18" font-family="Times,serif" font-size="14.00">okhmeta:hasMetaTag</text>
</g>
<!-- http://spdx.org/rdf/terms#ListedLicense -->
<g id="node9" class="node">
<title>http://spdx.org/rdf/terms#ListedLicense</title>
<ellipse fill="none" stroke="#e377c2" cx="788.06" cy="-920.97" rx="108.38" ry="16.03"/>
<text text-anchor="middle" x="788.06" y="-917.27" font-family="Times,serif" font-size="14.00">spdx:ListedLicense</text>
</g>
<!-- http://w3id.org/oseg/ont/okh#tsdc -->
<g id="node10" class="node">
<title>http://w3id.org/oseg/ont/okh#tsdc</title>
<ellipse fill="none" stroke="#e377c2" cx="219.98" cy="-1779.31" rx="54.39" ry="16.03"/>
<text text-anchor="middle" x="219.98" y="-1775.61" font-family="Times,serif" font-size="14.00">okh:tsdc</text>
</g>
<!-- http://w3id.org/oseg/ont/okh#okhvPresent -->
<g id="node11" class="node">
<title>http://w3id.org/oseg/ont/okh#okhvPresent</title>
<ellipse fill="none" stroke="#e377c2" cx="2372.75" cy="-719.55" rx="96.33" ry="16.03"/>
<text text-anchor="middle" x="2372.75" y="-715.85" font-family="Times,serif" font-size="14.00">okh:okhvPresent</text>
</g>
<!-- http://w3id.org/oseg/ont/okh#okhvPresent&#45;&gt;http://www.w3.org/2002/07/owl#DatatypeProperty -->
<g id="edge4" class="edge">
<title>http://w3id.org/oseg/ont/okh#okhvPresent&#45;&gt;http://www.w3.org/2002/07/owl#DatatypeProperty</title>
<path fill="none" stroke="black" d="M2312.11,-706.92C2247.8,-693.51 2146.08,-672.32 2076.46,-657.81"/>
<polygon fill="black" stroke="black" points="2076.93,-654.33 2066.43,-655.72 2075.51,-661.18 2076.93,-654.33"/>
<text text-anchor="middle" x="2189.79" y="-686.16" font-family="Times,serif" font-size="14.00">a</text>
</g>
<!-- http://w3id.org/oseg/ont/okh#okhv -->
<g id="node13" class="node">
<title>http://w3id.org/oseg/ont/okh#okhv</title>
<ellipse fill="none" stroke="#e377c2" cx="2590.9" cy="-621.77" rx="56.64" ry="16.03"/>
<text text-anchor="middle" x="2590.9" y="-618.07" font-family="Times,serif" font-size="14.00">okh:okhv</text>
</g>
<!-- http://w3id.org/oseg/ont/okh#okhvPresent&#45;&gt;http://w3id.org/oseg/ont/okh#okhv -->
<g id="edge52" class="edge">
<title>http://w3id.org/oseg/ont/okh#okhvPresent&#45;&gt;http://w3id.org/oseg/ont/okh#okhv</title>
<path fill="none" stroke="black" d="M2406.84,-704.27C2445.86,-686.78 2509.7,-658.17 2551,-639.65"/>
<polygon fill="black" stroke="black" points="2552.53,-642.8 2560.22,-635.52 2549.66,-636.41 2552.53,-642.8"/>
<text text-anchor="middle" x="2425.92" y="-675.76" font-family="Times,serif" font-size="14.00">subPropertyOf</text>
</g>
<!-- http://w3id.org/oseg/ont/okh#okhvOrig -->
<g id="node24" class="node">
<title>http://w3id.org/oseg/ont/okh#okhvOrig</title>
<ellipse fill="none" stroke="#e377c2" cx="2651.42" cy="-825.88" rx="79.39" ry="16.03"/>
<text text-anchor="middle" x="2651.42" y="-822.18" font-family="Times,serif" font-size="14.00">okh:okhvOrig</text>
</g>
<!-- http://w3id.org/oseg/ont/okh#okhvPresent&#45;&gt;http://w3id.org/oseg/ont/okh#okhvOrig -->
<g id="edge21" class="edge">
<title>http://w3id.org/oseg/ont/okh#okhvPresent&#45;&gt;http://w3id.org/oseg/ont/okh#okhvOrig</title>
<path fill="none" stroke="black" d="M2411.79,-734.45C2462.24,-753.7 2550,-787.18 2604.16,-807.85"/>
<polygon fill="black" stroke="black" points="2602.94,-811.13 2613.53,-811.42 2605.44,-804.59 2602.94,-811.13"/>
<text text-anchor="middle" x="2480.47" y="-774.95" font-family="Times,serif" font-size="14.00">seeAlso</text>
</g>
<!-- http://schema.org/url -->
<g id="node12" class="node">
<title>http://schema.org/url</title>
<ellipse fill="none" stroke="#e377c2" cx="67.34" cy="-1216.63" rx="67.35" ry="16.03"/>
<text text-anchor="middle" x="67.34" y="-1212.93" font-family="Times,serif" font-size="14.00">schema:url</text>
</g>
<!-- http://w3id.org/oseg/ont/okhmetaLegalTag -->
<g id="node14" class="node">
<title>http://w3id.org/oseg/ont/okhmetaLegalTag</title>
<ellipse fill="none" stroke="#e377c2" cx="750.59" cy="-1379.37" rx="103.89" ry="16.03"/>
<text text-anchor="middle" x="750.59" y="-1375.67" font-family="Times,serif" font-size="14.00">okhmeta:LegalTag</text>
</g>
<!-- http://w3id.org/oseg/ont/okh#Dimensions -->
<g id="node15" class="node">
<title>http://w3id.org/oseg/ont/okh#Dimensions</title>
<ellipse fill="none" stroke="#e377c2" cx="1848.58" cy="-511.07" rx="91.85" ry="16.03"/>
<text text-anchor="middle" x="1848.58" y="-507.37" font-family="Times,serif" font-size="14.00">okh:Dimensions</text>
</g>
<!-- http://w3id.org/oseg/ont/okh#installationGuide -->
<g id="node16" class="node">
<title>http://w3id.org/oseg/ont/okh#installationGuide</title>
<ellipse fill="none" stroke="#e377c2" cx="1567.24" cy="-779.18" rx="106.55" ry="16.03"/>
<text text-anchor="middle" x="1567.24" y="-775.48" font-family="Times,serif" font-size="14.00">okh:installationG...</text>
</g>
<!-- http://w3id.org/oseg/ont/okh#installationGuide&#45;&gt;http://www.w3.org/2004/02/skos/core#Concept -->
<g id="edge10" class="edge">
<title>http://w3id.org/oseg/ont/okh#installationGuide&#45;&gt;http://www.w3.org/2004/02/skos/core#Concept</title>
<path fill="none" stroke="black" d="M1548.88,-795.53C1500.44,-838.65 1369.07,-955.61 1313.16,-1005.38"/>
<polygon fill="black" stroke="black" points="1310.62,-1002.95 1305.48,-1012.22 1315.27,-1008.18 1310.62,-1002.95"/>
<text text-anchor="middle" x="1426.52" y="-904.25" font-family="Times,serif" font-size="14.00">a</text>
</g>
<!-- http://w3id.org/oseg/ont/okh#installationGuide&#45;&gt;http://www.w3.org/2002/07/owl#DatatypeProperty -->
<g id="edge28" class="edge">
<title>http://w3id.org/oseg/ont/okh#installationGuide&#45;&gt;http://www.w3.org/2002/07/owl#DatatypeProperty</title>
<path fill="none" stroke="black" d="M1613.6,-764.5C1693.37,-739.24 1856.34,-687.62 1943.12,-660.14"/>
<polygon fill="black" stroke="black" points="1944.33,-663.43 1952.81,-657.07 1942.22,-656.76 1944.33,-663.43"/>
<text text-anchor="middle" x="1773.86" y="-716.12" font-family="Times,serif" font-size="14.00">a</text>
</g>
<!-- http://w3id.org/oseg/ont/okh#Software -->
<g id="node23" class="node">
<title>http://w3id.org/oseg/ont/okh#Software</title>
<ellipse fill="none" stroke="#e377c2" cx="1450.47" cy="-505.13" rx="78.48" ry="16.03"/>
<text text-anchor="middle" x="1450.47" y="-501.43" font-family="Times,serif" font-size="14.00">okh:Software</text>
</g>
<!-- http://w3id.org/oseg/ont/okh#installationGuide&#45;&gt;http://w3id.org/oseg/ont/okh#Software -->
<g id="edge18" class="edge">
<title>http://w3id.org/oseg/ont/okh#installationGuide&#45;&gt;http://w3id.org/oseg/ont/okh#Software</title>
<path fill="none" stroke="black" d="M1560.28,-762.86C1540.73,-716.97 1485.17,-586.56 1461.44,-530.86"/>
<polygon fill="black" stroke="black" points="1464.53,-529.2 1457.39,-521.37 1458.09,-531.94 1464.53,-529.2"/>
<text text-anchor="middle" x="1432.86" y="-650.66" font-family="Times,serif" font-size="14.00">dcam:domainIncludes</text>
</g>
<!-- http://w3id.org/oseg/ont/okh#okhvOriginal -->
<g id="node17" class="node">
<title>http://w3id.org/oseg/ont/okh#okhvOriginal</title>
<ellipse fill="none" stroke="#e377c2" cx="2352.34" cy="-565.68" rx="97.66" ry="16.03"/>
<text text-anchor="middle" x="2352.34" y="-561.98" font-family="Times,serif" font-size="14.00">okh:okhvOriginal</text>
</g>
<!-- http://w3id.org/oseg/ont/okh#okhvOriginal&#45;&gt;http://www.w3.org/2002/07/owl#DatatypeProperty -->
<g id="edge11" class="edge">
<title>http://w3id.org/oseg/ont/okh#okhvOriginal&#45;&gt;http://www.w3.org/2002/07/owl#DatatypeProperty</title>
<path fill="none" stroke="black" d="M2292.65,-578.62C2232.54,-591.66 2139.65,-611.8 2074.8,-625.86"/>
<polygon fill="black" stroke="black" points="2073.67,-622.52 2064.64,-628.06 2075.15,-629.37 2073.67,-622.52"/>
<text text-anchor="middle" x="2179.22" y="-606.04" font-family="Times,serif" font-size="14.00">a</text>
</g>
<!-- http://w3id.org/oseg/ont/okh#okhvOriginal&#45;&gt;http://w3id.org/oseg/ont/okh#okhv -->
<g id="edge6" class="edge">
<title>http://w3id.org/oseg/ont/okh#okhvOriginal&#45;&gt;http://w3id.org/oseg/ont/okh#okhv</title>
<path fill="none" stroke="black" d="M2408.88,-578.97C2447.7,-588.1 2498.93,-600.15 2537.15,-609.13"/>
<polygon fill="black" stroke="black" points="2536.53,-612.58 2547.07,-611.46 2538.13,-605.77 2536.53,-612.58"/>
<text text-anchor="middle" x="2420.01" y="-597.85" font-family="Times,serif" font-size="14.00">subPropertyOf</text>
</g>
<!-- http://w3id.org/oseg/ont/okh#okhvStored -->
<g id="node22" class="node">
<title>http://w3id.org/oseg/ont/okh#okhvStored</title>
<ellipse fill="none" stroke="#e377c2" cx="2503.38" cy="-483.01" rx="90.52" ry="16.03"/>
<text text-anchor="middle" x="2503.38" y="-479.31" font-family="Times,serif" font-size="14.00">okh:okhvStored</text>
</g>
<!-- http://w3id.org/oseg/ont/okh#okhvOriginal&#45;&gt;http://w3id.org/oseg/ont/okh#okhvStored -->
<g id="edge16" class="edge">
<title>http://w3id.org/oseg/ont/okh#okhvOriginal&#45;&gt;http://w3id.org/oseg/ont/okh#okhvStored</title>
<path fill="none" stroke="black" d="M2381.11,-549.94C2405.22,-536.74 2439.83,-517.8 2466.07,-503.43"/>
<polygon fill="black" stroke="black" points="2467.89,-506.43 2474.98,-498.56 2464.52,-500.29 2467.89,-506.43"/>
<text text-anchor="middle" x="2396.09" y="-530.48" font-family="Times,serif" font-size="14.00">seeAlso</text>
</g>
<!-- http://schema.org/license -->
<g id="node18" class="node">
<title>http://schema.org/license</title>
<ellipse fill="none" stroke="#e377c2" cx="1015.9" cy="-911.35" rx="88.28" ry="16.03"/>
<text text-anchor="middle" x="1015.9" y="-907.65" font-family="Times,serif" font-size="14.00">schema:license</text>
</g>
<!-- http://w3id.org/oseg/ont/okh#openSCAD -->
<g id="node19" class="node">
<title>http://w3id.org/oseg/ont/okh#openSCAD</title>
<ellipse fill="none" stroke="#e377c2" cx="2055.91" cy="-279.52" rx="86.03" ry="16.03"/>
<text text-anchor="middle" x="2055.91" y="-275.82" font-family="Times,serif" font-size="14.00">okh:openSCAD</text>
</g>
<!-- http://w3id.org/oseg/ont/okh#openSCAD&#45;&gt;http://www.w3.org/2002/07/owl#DatatypeProperty -->
<g id="edge55" class="edge">
<title>http://w3id.org/oseg/ont/okh#openSCAD&#45;&gt;http://www.w3.org/2002/07/owl#DatatypeProperty</title>
<path fill="none" stroke="black" d="M2053.39,-296.04C2044.6,-353.47 2015.34,-544.82 2004.54,-615.47"/>
<polygon fill="black" stroke="black" points="2001.07,-614.95 2003.02,-625.36 2007.99,-616.01 2001.07,-614.95"/>
<text text-anchor="middle" x="2024.46" y="-459.55" font-family="Times,serif" font-size="14.00">a</text>
</g>
<!-- http://w3id.org/oseg/ont/okh#openSCAD&#45;&gt;http://w3id.org/oseg/ont/okh#Dimensions -->
<g id="edge56" class="edge">
<title>http://w3id.org/oseg/ont/okh#openSCAD&#45;&gt;http://w3id.org/oseg/ont/okh#Dimensions</title>
<path fill="none" stroke="black" d="M2041.33,-295.8C2005.35,-335.99 1912.17,-440.06 1869.94,-487.22"/>
<polygon fill="black" stroke="black" points="1867.21,-485.02 1863.15,-494.8 1872.42,-489.69 1867.21,-485.02"/>
<text text-anchor="middle" x="1877.64" y="-395.31" font-family="Times,serif" font-size="14.00">dcam:domainIncludes</text>
</g>
<!-- http://www.w3.org/2001/XMLSchema#string -->
<g id="node26" class="node">
<title>http://www.w3.org/2001/XMLSchema#string</title>
<ellipse fill="none" stroke="#e377c2" cx="2273.64" cy="-149.21" rx="62.87" ry="16.03"/>
<text text-anchor="middle" x="2273.64" y="-145.51" font-family="Times,serif" font-size="14.00">xsd:string</text>
</g>
<!-- http://w3id.org/oseg/ont/okh#openSCAD&#45;&gt;http://www.w3.org/2001/XMLSchema#string -->
<g id="edge26" class="edge">
<title>http://w3id.org/oseg/ont/okh#openSCAD&#45;&gt;http://www.w3.org/2001/XMLSchema#string</title>
<path fill="none" stroke="black" d="M2082.18,-263.8C2121.67,-240.17 2196.34,-195.48 2239.85,-169.44"/>
<polygon fill="black" stroke="black" points="2241.85,-172.32 2248.63,-164.18 2238.25,-166.31 2241.85,-172.32"/>
<text text-anchor="middle" x="2088.51" y="-220.42" font-family="Times,serif" font-size="14.00">dcam:rangeIncludes</text>
</g>
<!-- http://w3id.org/oseg/ont/okh#depth -->
<g id="node33" class="node">
<title>http://w3id.org/oseg/ont/okh#depth</title>
<ellipse fill="none" stroke="#e377c2" cx="1931.27" cy="-54.34" rx="62.45" ry="16.03"/>
<text text-anchor="middle" x="1931.27" y="-50.64" font-family="Times,serif" font-size="14.00">okh:depth</text>
</g>
<!-- http://w3id.org/oseg/ont/okh#openSCAD&#45;&gt;http://w3id.org/oseg/ont/okh#depth -->
<g id="edge38" class="edge">
<title>http://w3id.org/oseg/ont/okh#openSCAD&#45;&gt;http://w3id.org/oseg/ont/okh#depth</title>
<path fill="none" stroke="black" d="M2046.95,-263.33C2025.49,-224.55 1971.02,-126.15 1945.22,-79.55"/>
<polygon fill="black" stroke="black" points="1948.22,-77.74 1940.32,-70.69 1942.1,-81.13 1948.22,-77.74"/>
<text text-anchor="middle" x="1916.09" y="-175.24" font-family="Times,serif" font-size="14.00">schema:supersededBy</text>
</g>
<!-- http://w3id.org/oseg/ont/okh#width -->
<g id="node35" class="node">
<title>http://w3id.org/oseg/ont/okh#width</title>
<ellipse fill="none" stroke="#e377c2" cx="2077.17" cy="-16.06" rx="61.54" ry="16.03"/>
<text text-anchor="middle" x="2077.17" y="-12.36" font-family="Times,serif" font-size="14.00">okh:width</text>
</g>
<!-- http://w3id.org/oseg/ont/okh#openSCAD&#45;&gt;http://w3id.org/oseg/ont/okh#width -->
<g id="edge42" class="edge">
<title>http://w3id.org/oseg/ont/okh#openSCAD&#45;&gt;http://w3id.org/oseg/ont/okh#width</title>
<path fill="none" stroke="black" d="M2057.24,-263.04C2060.81,-218.78 2070.64,-96.99 2075.02,-42.74"/>
<polygon fill="black" stroke="black" points="2078.53,-42.79 2075.84,-32.54 2071.55,-42.22 2078.53,-42.79"/>
<text text-anchor="middle" x="1986.13" y="-156.69" font-family="Times,serif" font-size="14.00">schema:supersededBy</text>
</g>
<!-- http://w3id.org/oseg/ont/okh#height -->
<g id="node39" class="node">
<title>http://w3id.org/oseg/ont/okh#height</title>
<ellipse fill="none" stroke="#e377c2" cx="2204.63" cy="-67.65" rx="65.11" ry="16.03"/>
<text text-anchor="middle" x="2204.63" y="-63.95" font-family="Times,serif" font-size="14.00">okh:height</text>
</g>
<!-- http://w3id.org/oseg/ont/okh#openSCAD&#45;&gt;http://w3id.org/oseg/ont/okh#height -->
<g id="edge48" class="edge">
<title>http://w3id.org/oseg/ont/okh#openSCAD&#45;&gt;http://w3id.org/oseg/ont/okh#height</title>
<path fill="none" stroke="black" d="M2067.33,-263.25C2093.3,-226.26 2156.86,-135.71 2187.53,-92.02"/>
<polygon fill="black" stroke="black" points="2190.49,-93.88 2193.37,-83.69 2184.76,-89.86 2190.49,-93.88"/>
<text text-anchor="middle" x="2207.43" y="-181.43" font-family="Times,serif" font-size="14.00">schema:supersededBy</text>
</g>
<!-- http://w3id.org/oseg/ont/okh#license -->
<g id="node20" class="node">
<title>http://w3id.org/oseg/ont/okh#license</title>
<ellipse fill="none" stroke="#e377c2" cx="1068.24" cy="-1368.42" rx="67.76" ry="16.03"/>
<text text-anchor="middle" x="1068.24" y="-1364.72" font-family="Times,serif" font-size="14.00">okh:license</text>
</g>
<!-- http://w3id.org/oseg/ont/okh#openScad -->
<g id="node21" class="node">
<title>http://w3id.org/oseg/ont/okh#openScad</title>
<ellipse fill="none" stroke="#e377c2" cx="2022.53" cy="-573.71" rx="82.05" ry="16.03"/>
<text text-anchor="middle" x="2022.53" y="-570.01" font-family="Times,serif" font-size="14.00">okh:openScad</text>
</g>
<!-- http://w3id.org/oseg/ont/okh#openScad&#45;&gt;http://www.w3.org/2002/07/owl#DatatypeProperty -->
<g id="edge15" class="edge">
<title>http://w3id.org/oseg/ont/okh#openScad&#45;&gt;http://www.w3.org/2002/07/owl#DatatypeProperty</title>
<path fill="none" stroke="black" d="M2017.19,-590.23C2014.7,-597.95 2011.68,-607.31 2008.89,-615.95"/>
<polygon fill="black" stroke="black" points="2005.51,-615.01 2005.77,-625.6 2012.17,-617.16 2005.51,-615.01"/>
<text text-anchor="middle" x="2008.54" y="-606.89" font-family="Times,serif" font-size="14.00">a</text>
</g>
<!-- http://w3id.org/oseg/ont/okh#openScad&#45;&gt;http://w3id.org/oseg/ont/okh#openSCAD -->
<g id="edge13" class="edge">
<title>http://w3id.org/oseg/ont/okh#openScad&#45;&gt;http://w3id.org/oseg/ont/okh#openSCAD</title>
<path fill="none" stroke="black" d="M2027.74,-557.42C2037.55,-509.05 2054.04,-365.87 2056.97,-306.15"/>
<polygon fill="black" stroke="black" points="2060.47,-306.14 2057.35,-296.01 2053.48,-305.87 2060.47,-306.14"/>
<text text-anchor="middle" x="1962.35" y="-435.59" font-family="Times,serif" font-size="14.00">schema:supersededBy</text>
</g>
<!-- http://w3id.org/oseg/ont/okh#openScad&#45;&gt;http://w3id.org/oseg/ont/okh#openSCAD -->
<g id="edge22" class="edge">
<title>http://w3id.org/oseg/ont/okh#openScad&#45;&gt;http://w3id.org/oseg/ont/okh#openSCAD</title>
<path fill="none" stroke="black" d="M2021.09,-557.1C2022.28,-508.42 2038.19,-365.79 2048.75,-306.18"/>
<polygon fill="black" stroke="black" points="2052.24,-306.53 2050.65,-296.06 2045.36,-305.24 2052.24,-306.53"/>
<text text-anchor="middle" x="1992.42" y="-420.44" font-family="Times,serif" font-size="14.00">owl:sameAs</text>
</g>
<!-- http://w3id.org/oseg/ont/okh#hasMass -->
<g id="node25" class="node">
<title>http://w3id.org/oseg/ont/okh#hasMass</title>
<ellipse fill="none" stroke="#e377c2" cx="2051.87" cy="-1062.78" rx="77.15" ry="16.03"/>
<text text-anchor="middle" x="2051.87" y="-1059.08" font-family="Times,serif" font-size="14.00">okh:hasMass</text>
</g>
<!-- http://w3id.org/oseg/ont/okh#Module -->
<g id="node27" class="node">
<title>http://w3id.org/oseg/ont/okh#Module</title>
<ellipse fill="none" stroke="#e377c2" cx="951.9" cy="-1416.26" rx="70.92" ry="16.03"/>
<text text-anchor="middle" x="951.9" y="-1412.56" font-family="Times,serif" font-size="14.00">okh:Module</text>
</g>
<!-- http://w3id.org/oseg/ont/okh#fileUrl -->
<g id="node30" class="node">
<title>http://w3id.org/oseg/ont/okh#fileUrl</title>
<ellipse fill="none" stroke="#e377c2" cx="324.6" cy="-1262.22" rx="65.11" ry="16.03"/>
<text text-anchor="middle" x="324.6" y="-1258.52" font-family="Times,serif" font-size="14.00">okh:fileUrl</text>
</g>
<!-- http://w3id.org/oseg/ont/okh#fileUrl&#45;&gt;http://www.w3.org/2002/07/owl#ObjectProperty -->
<g id="edge33" class="edge">
<title>http://w3id.org/oseg/ont/okh#fileUrl&#45;&gt;http://www.w3.org/2002/07/owl#ObjectProperty</title>
<path fill="none" stroke="black" d="M381.2,-1270.33C423.12,-1276.34 481.06,-1284.65 529.15,-1291.54"/>
<polygon fill="black" stroke="black" points="528.86,-1295.03 539.26,-1292.99 529.85,-1288.11 528.86,-1295.03"/>
<text text-anchor="middle" x="450.68" y="-1284.74" font-family="Times,serif" font-size="14.00">a</text>
</g>
<!-- http://w3id.org/oseg/ont/okh#fileUrl&#45;&gt;http://schema.org/url -->
<g id="edge5" class="edge">
<title>http://w3id.org/oseg/ont/okh#fileUrl&#45;&gt;http://schema.org/url</title>
<path fill="none" stroke="black" d="M271.3,-1252.77C230.83,-1245.6 175,-1235.71 131.99,-1228.09"/>
<polygon fill="black" stroke="black" points="132.36,-1224.6 121.9,-1226.3 131.14,-1231.49 132.36,-1224.6"/>
<text text-anchor="middle" x="148.64" y="-1244.23" font-family="Times,serif" font-size="14.00">subPropertyOf</text>
</g>
<!-- http://w3id.org/oseg/ont/okh#fileUrl&#45;&gt;http://w3id.org/oseg/ont/okh#File -->
<g id="edge32" class="edge">
<title>http://w3id.org/oseg/ont/okh#fileUrl&#45;&gt;http://w3id.org/oseg/ont/okh#File</title>
<path fill="none" stroke="black" d="M362.63,-1248.93C404.31,-1234.36 471.1,-1211.02 515.18,-1195.61"/>
<polygon fill="black" stroke="black" points="516.48,-1198.86 524.77,-1192.26 514.17,-1192.26 516.48,-1198.86"/>
<text text-anchor="middle" x="360.9" y="-1226.07" font-family="Times,serif" font-size="14.00">dcam:domainIncludes</text>
</g>
<!-- http://w3id.org/oseg/ont/okh#url -->
<g id="node41" class="node">
<title>http://w3id.org/oseg/ont/okh#url</title>
<ellipse fill="none" stroke="#e377c2" cx="104.92" cy="-1350.8" rx="47.25" ry="16.03"/>
<text text-anchor="middle" x="104.92" y="-1347.1" font-family="Times,serif" font-size="14.00">okh:url</text>
</g>
<!-- http://w3id.org/oseg/ont/okh#fileUrl&#45;&gt;http://w3id.org/oseg/ont/okh#url -->
<g id="edge51" class="edge">
<title>http://w3id.org/oseg/ont/okh#fileUrl&#45;&gt;http://w3id.org/oseg/ont/okh#url</title>
<path fill="none" stroke="black" d="M290.28,-1276.06C250.98,-1291.91 186.69,-1317.83 145.09,-1334.6"/>
<polygon fill="black" stroke="black" points="143.77,-1331.36 135.81,-1338.34 146.39,-1337.85 143.77,-1331.36"/>
<text text-anchor="middle" x="137.69" y="-1309.13" font-family="Times,serif" font-size="14.00">schema:supersededBy</text>
</g>
<!-- http://w3id.org/oseg/ont/okh#alternativeLicense -->
<g id="node31" class="node">
<title>http://w3id.org/oseg/ont/okh#alternativeLicense</title>
<ellipse fill="none" stroke="#e377c2" cx="875.48" cy="-1140.99" rx="107.46" ry="16.03"/>
<text text-anchor="middle" x="875.48" y="-1137.29" font-family="Times,serif" font-size="14.00">okh:alternativeLi...</text>
</g>
<!-- http://w3id.org/oseg/ont/okh#alternativeLicense&#45;&gt;http://www.w3.org/2004/02/skos/core#Concept -->
<g id="edge37" class="edge">
<title>http://w3id.org/oseg/ont/okh#alternativeLicense&#45;&gt;http://www.w3.org/2004/02/skos/core#Concept</title>
<path fill="none" stroke="black" d="M927.65,-1126.71C1004.99,-1105.56 1149.53,-1066.02 1229.86,-1044.04"/>
<polygon fill="black" stroke="black" points="1231.08,-1047.34 1239.81,-1041.32 1229.24,-1040.58 1231.08,-1047.34"/>
<text text-anchor="middle" x="1074.26" y="-1089.18" font-family="Times,serif" font-size="14.00">a</text>
</g>
<!-- http://w3id.org/oseg/ont/okh#alternativeLicense&#45;&gt;http://www.w3.org/2002/07/owl#ObjectProperty -->
<g id="edge35" class="edge">
<title>http://w3id.org/oseg/ont/okh#alternativeLicense&#45;&gt;http://www.w3.org/2002/07/owl#ObjectProperty</title>
<path fill="none" stroke="black" d="M850.33,-1156.94C803.83,-1186.46 704.36,-1249.59 651.99,-1282.82"/>
<polygon fill="black" stroke="black" points="649.96,-1279.96 643.4,-1288.28 653.71,-1285.87 649.96,-1279.96"/>
<text text-anchor="middle" x="746.66" y="-1223.68" font-family="Times,serif" font-size="14.00">a</text>
</g>
<!-- http://w3id.org/oseg/ont/okh#alternativeLicense&#45;&gt;http://w3id.org/oseg/ont/okhmetaLegalTag -->
<g id="edge41" class="edge">
<title>http://w3id.org/oseg/ont/okh#alternativeLicense&#45;&gt;http://w3id.org/oseg/ont/okhmetaLegalTag</title>
<path fill="none" stroke="black" d="M866.89,-1157.37C845.5,-1198.2 789.71,-1304.7 763.97,-1353.84"/>
<polygon fill="black" stroke="black" points="760.78,-1352.39 759.24,-1362.87 766.98,-1355.63 760.78,-1352.39"/>
<text text-anchor="middle" x="738.43" y="-1259.41" font-family="Times,serif" font-size="14.00">okhmeta:hasMetaTag</text>
</g>
<!-- http://w3id.org/oseg/ont/okh#alternativeLicense&#45;&gt;http://schema.org/license -->
<g id="edge12" class="edge">
<title>http://w3id.org/oseg/ont/okh#alternativeLicense&#45;&gt;http://schema.org/license</title>
<path fill="none" stroke="black" d="M885.58,-1124.47C909.87,-1084.75 971.68,-983.67 1000.57,-936.42"/>
<polygon fill="black" stroke="black" points="1003.66,-938.08 1005.89,-927.72 997.69,-934.43 1003.66,-938.08"/>
<text text-anchor="middle" x="884.07" y="-1034.25" font-family="Times,serif" font-size="14.00">skos:closeMatch</text>
</g>
<!-- http://w3id.org/oseg/ont/okh#alternativeLicense&#45;&gt;http://w3id.org/oseg/ont/okh#license -->
<g id="edge24" class="edge">
<title>http://w3id.org/oseg/ont/okh#alternativeLicense&#45;&gt;http://w3id.org/oseg/ont/okh#license</title>
<path fill="none" stroke="black" d="M889.34,-1157.34C922.89,-1196.93 1008.6,-1298.04 1047.94,-1344.46"/>
<polygon fill="black" stroke="black" points="1045.37,-1346.84 1054.5,-1352.21 1050.71,-1342.32 1045.37,-1346.84"/>
<text text-anchor="middle" x="1048.64" y="-1239.7" font-family="Times,serif" font-size="14.00">schema:supersededBy</text>
</g>
<!-- http://w3id.org/oseg/ont/okh#alternativeLicense&#45;&gt;http://w3id.org/oseg/ont/okh#Module -->
<g id="edge27" class="edge">
<title>http://w3id.org/oseg/ont/okh#alternativeLicense&#45;&gt;http://w3id.org/oseg/ont/okh#Module</title>
<path fill="none" stroke="black" d="M880.03,-1157.38C892.8,-1203.38 929.04,-1333.93 944.63,-1390.07"/>
<polygon fill="black" stroke="black" points="941.32,-1391.25 947.37,-1399.95 948.07,-1389.38 941.32,-1391.25"/>
<text text-anchor="middle" x="834.33" y="-1277.53" font-family="Times,serif" font-size="14.00">dcam:domainIncludes</text>
</g>
<!-- http://w3id.org/oseg/ont/okh#alternativeLicense&#45;&gt;http://w3id.org/oseg/ont/okh#File -->
<g id="edge49" class="edge">
<title>http://w3id.org/oseg/ont/okh#alternativeLicense&#45;&gt;http://w3id.org/oseg/ont/okh#File</title>
<path fill="none" stroke="black" d="M792.09,-1151.3C737.5,-1158.06 667.48,-1166.72 618.63,-1172.77"/>
<polygon fill="black" stroke="black" points="618.03,-1169.31 608.54,-1174.01 618.89,-1176.26 618.03,-1169.31"/>
<text text-anchor="middle" x="777.86" y="-1165.84" font-family="Times,serif" font-size="14.00">dcam:rangeIncludes</text>
</g>
<!-- http://w3id.org/oseg/ont/okh#value -->
<g id="node32" class="node">
<title>http://w3id.org/oseg/ont/okh#value</title>
<ellipse fill="none" stroke="#e377c2" cx="1863.78" cy="-917.65" rx="60.21" ry="16.03"/>
<text text-anchor="middle" x="1863.78" y="-913.95" font-family="Times,serif" font-size="14.00">okh:value</text>
</g>
<!-- http://w3id.org/oseg/ont/okh#value&#45;&gt;http://www.w3.org/2002/07/owl#DatatypeProperty -->
<g id="edge36" class="edge">
<title>http://w3id.org/oseg/ont/okh#value&#45;&gt;http://www.w3.org/2002/07/owl#DatatypeProperty</title>
<path fill="none" stroke="black" d="M1871.92,-901.23C1894.86,-854.98 1960.13,-723.34 1987.82,-667.51"/>
<polygon fill="black" stroke="black" points="1991.08,-668.82 1992.38,-658.31 1984.8,-665.71 1991.08,-668.82"/>
<text text-anchor="middle" x="1925.37" y="-788.17" font-family="Times,serif" font-size="14.00">a</text>
</g>
<!-- http://w3id.org/oseg/ont/okh#value&#45;&gt;http://w3id.org/oseg/ont/okh#Mass -->
<g id="edge7" class="edge">
<title>http://w3id.org/oseg/ont/okh#value&#45;&gt;http://w3id.org/oseg/ont/okh#Mass</title>
<path fill="none" stroke="black" d="M1820.32,-929C1774.18,-941.05 1701.2,-960.11 1651.74,-973.03"/>
<polygon fill="black" stroke="black" points="1650.66,-969.69 1641.87,-975.61 1652.43,-976.47 1650.66,-969.69"/>
<text text-anchor="middle" x="1658.03" y="-954.82" font-family="Times,serif" font-size="14.00">dcam:domainIncludes</text>
</g>
<!-- http://w3id.org/oseg/ont/okh#value&#45;&gt;http://w3id.org/oseg/ont/okh#hasMass -->
<g id="edge23" class="edge">
<title>http://w3id.org/oseg/ont/okh#value&#45;&gt;http://w3id.org/oseg/ont/okh#hasMass</title>
<path fill="none" stroke="black" d="M1883.91,-933.18C1917.39,-959.02 1984.63,-1010.9 2023.11,-1040.59"/>
<polygon fill="black" stroke="black" points="2021.26,-1043.58 2031.32,-1046.92 2025.54,-1038.04 2021.26,-1043.58"/>
<text text-anchor="middle" x="1873.51" y="-990.69" font-family="Times,serif" font-size="14.00">schema:supersededBy</text>
</g>
<!-- http://w3id.org/oseg/ont/okh#permaURL -->
<g id="node34" class="node">
<title>http://w3id.org/oseg/ont/okh#permaURL</title>
<ellipse fill="none" stroke="#e377c2" cx="358.47" cy="-1152.47" rx="87.86" ry="16.03"/>
<text text-anchor="middle" x="358.47" y="-1148.77" font-family="Times,serif" font-size="14.00">okh:permaURL</text>
</g>
<!-- http://w3id.org/oseg/ont/okh#permaURL&#45;&gt;http://www.w3.org/2002/07/owl#ObjectProperty -->
<g id="edge39" class="edge">
<title>http://w3id.org/oseg/ont/okh#permaURL&#45;&gt;http://www.w3.org/2002/07/owl#ObjectProperty</title>
<path fill="none" stroke="black" d="M385.28,-1168.14C432.32,-1195.65 529.71,-1252.59 582.42,-1283.4"/>
<polygon fill="black" stroke="black" points="580.7,-1286.45 591.1,-1288.48 584.23,-1280.41 580.7,-1286.45"/>
<text text-anchor="middle" x="479.35" y="-1229.57" font-family="Times,serif" font-size="14.00">a</text>
</g>
<!-- http://w3id.org/oseg/ont/okh#permaURL&#45;&gt;http://w3id.org/oseg/ont/okh#File -->
<g id="edge40" class="edge">
<title>http://w3id.org/oseg/ont/okh#permaURL&#45;&gt;http://w3id.org/oseg/ont/okh#File</title>
<path fill="none" stroke="black" d="M429.12,-1162.16C452.79,-1165.4 478.88,-1168.98 501.48,-1172.08"/>
<polygon fill="black" stroke="black" points="501.22,-1175.58 511.6,-1173.47 502.17,-1168.64 501.22,-1175.58"/>
<text text-anchor="middle" x="387.3" y="-1170.92" font-family="Times,serif" font-size="14.00">dcam:domainIncludes</text>
</g>
<!-- http://w3id.org/oseg/ont/okh#unit -->
<g id="node36" class="node">
<title>http://w3id.org/oseg/ont/okh#unit</title>
<ellipse fill="none" stroke="#e377c2" cx="1756.28" cy="-755.26" rx="53.07" ry="16.03"/>
<text text-anchor="middle" x="1756.28" y="-751.56" font-family="Times,serif" font-size="14.00">okh:unit</text>
</g>
<!-- http://w3id.org/oseg/ont/okh#unit&#45;&gt;http://www.w3.org/2002/07/owl#DatatypeProperty -->
<g id="edge43" class="edge">
<title>http://w3id.org/oseg/ont/okh#unit&#45;&gt;http://www.w3.org/2002/07/owl#DatatypeProperty</title>
<path fill="none" stroke="black" d="M1785.73,-741.6C1828.52,-721.75 1908.12,-684.82 1957.47,-661.93"/>
<polygon fill="black" stroke="black" points="1959.01,-665.07 1966.61,-657.69 1956.07,-658.72 1959.01,-665.07"/>
<text text-anchor="middle" x="1867.1" y="-705.56" font-family="Times,serif" font-size="14.00">a</text>
</g>
<!-- http://w3id.org/oseg/ont/okh#unit&#45;&gt;http://w3id.org/oseg/ont/okh#Mass -->
<g id="edge30" class="edge">
<title>http://w3id.org/oseg/ont/okh#unit&#45;&gt;http://w3id.org/oseg/ont/okh#Mass</title>
<path fill="none" stroke="black" d="M1745.2,-771.55C1718.05,-811.49 1647.99,-914.53 1615.65,-962.11"/>
<polygon fill="black" stroke="black" points="1612.61,-960.34 1609.89,-970.58 1618.4,-964.28 1612.61,-960.34"/>
<text text-anchor="middle" x="1602.43" y="-870.63" font-family="Times,serif" font-size="14.00">dcam:domainIncludes</text>
</g>
<!-- http://w3id.org/oseg/ont/okh#unit&#45;&gt;http://w3id.org/oseg/ont/okh#Dimensions -->
<g id="edge9" class="edge">
<title>http://w3id.org/oseg/ont/okh#unit&#45;&gt;http://w3id.org/oseg/ont/okh#Dimensions</title>
<path fill="none" stroke="black" d="M1762.48,-738.86C1778.21,-697.24 1819.78,-587.28 1838.81,-536.92"/>
<polygon fill="black" stroke="black" points="1842.15,-537.99 1842.41,-527.4 1835.6,-535.52 1842.15,-537.99"/>
<text text-anchor="middle" x="1722.64" y="-641.69" font-family="Times,serif" font-size="14.00">dcam:domainIncludes</text>
</g>
<!-- http://w3id.org/oseg/ont/okh#spdxLicense -->
<g id="node37" class="node">
<title>http://w3id.org/oseg/ont/okh#spdxLicense</title>
<ellipse fill="none" stroke="#e377c2" cx="1006.02" cy="-1192.03" rx="94.51" ry="16.03"/>
<text text-anchor="middle" x="1006.02" y="-1188.33" font-family="Times,serif" font-size="14.00">okh:spdxLicense</text>
</g>
<!-- http://w3id.org/oseg/ont/okh#spdxLicense&#45;&gt;http://www.w3.org/2004/02/skos/core#Concept -->
<g id="edge53" class="edge">
<title>http://w3id.org/oseg/ont/okh#spdxLicense&#45;&gt;http://www.w3.org/2004/02/skos/core#Concept</title>
<path fill="none" stroke="black" d="M1033,-1176.33C1084.19,-1146.55 1195.35,-1081.87 1252.27,-1048.75"/>
<polygon fill="black" stroke="black" points="1254.04,-1051.76 1260.93,-1043.71 1250.52,-1045.71 1254.04,-1051.76"/>
<text text-anchor="middle" x="1138.14" y="-1116.34" font-family="Times,serif" font-size="14.00">a</text>
</g>
<!-- http://w3id.org/oseg/ont/okh#spdxLicense&#45;&gt;http://www.w3.org/2002/07/owl#ObjectProperty -->
<g id="edge44" class="edge">
<title>http://w3id.org/oseg/ont/okh#spdxLicense&#45;&gt;http://www.w3.org/2002/07/owl#ObjectProperty</title>
<path fill="none" stroke="black" d="M957.68,-1206.02C886.94,-1226.5 755.28,-1264.6 678.35,-1286.87"/>
<polygon fill="black" stroke="black" points="676.96,-1283.63 668.33,-1289.77 678.91,-1290.35 676.96,-1283.63"/>
<text text-anchor="middle" x="813.52" y="-1235.25" font-family="Times,serif" font-size="14.00">a</text>
</g>
<!-- http://w3id.org/oseg/ont/okh#spdxLicense&#45;&gt;http://spdx.org/rdf/terms#ListedLicense -->
<g id="edge1" class="edge">
<title>http://w3id.org/oseg/ont/okh#spdxLicense&#45;&gt;http://spdx.org/rdf/terms#ListedLicense</title>
<path fill="none" stroke="black" d="M993.04,-1175.88C956.33,-1130.23 851.59,-999.98 807.74,-945.45"/>
<polygon fill="black" stroke="black" points="810.24,-942.97 801.25,-937.37 804.79,-947.36 810.24,-942.97"/>
<text text-anchor="middle" x="827.89" y="-1064.47" font-family="Times,serif" font-size="14.00">dcam:rangeIncludes</text>
</g>
<!-- http://w3id.org/oseg/ont/okh#spdxLicense&#45;&gt;http://w3id.org/oseg/ont/okhmetaLegalTag -->
<g id="edge8" class="edge">
<title>http://w3id.org/oseg/ont/okh#spdxLicense&#45;&gt;http://w3id.org/oseg/ont/okhmetaLegalTag</title>
<path fill="none" stroke="black" d="M984.25,-1208C938.53,-1241.53 832.51,-1319.28 780.48,-1357.44"/>
<polygon fill="black" stroke="black" points="778.31,-1354.7 772.32,-1363.43 782.45,-1360.34 778.31,-1354.7"/>
<text text-anchor="middle" x="805.36" y="-1286.52" font-family="Times,serif" font-size="14.00">okhmeta:hasMetaTag</text>
</g>
<!-- http://w3id.org/oseg/ont/okh#spdxLicense&#45;&gt;http://schema.org/license -->
<g id="edge19" class="edge">
<title>http://w3id.org/oseg/ont/okh#spdxLicense&#45;&gt;http://schema.org/license</title>
<path fill="none" stroke="black" d="M1006.6,-1175.72C1008.24,-1129.12 1012.96,-995.02 1014.97,-937.77"/>
<polygon fill="black" stroke="black" points="1018.47,-937.82 1015.32,-927.7 1011.48,-937.57 1018.47,-937.82"/>
<text text-anchor="middle" x="1069.78" y="-1060.55" font-family="Times,serif" font-size="14.00">skos:closeMatch</text>
</g>
<!-- http://w3id.org/oseg/ont/okh#spdxLicense&#45;&gt;http://w3id.org/oseg/ont/okh#license -->
<g id="edge14" class="edge">
<title>http://w3id.org/oseg/ont/okh#spdxLicense&#45;&gt;http://w3id.org/oseg/ont/okh#license</title>
<path fill="none" stroke="black" d="M1011.77,-1208.3C1022.6,-1239.02 1046.14,-1305.74 1059.14,-1342.62"/>
<polygon fill="black" stroke="black" points="1055.89,-1343.91 1062.51,-1352.18 1062.49,-1341.58 1055.89,-1343.91"/>
<text text-anchor="middle" x="1115.45" y="-1264.26" font-family="Times,serif" font-size="14.00">schema:supersededBy</text>
</g>
<!-- http://w3id.org/oseg/ont/okh#spdxLicense&#45;&gt;http://w3id.org/oseg/ont/okh#Module -->
<g id="edge34" class="edge">
<title>http://w3id.org/oseg/ont/okh#spdxLicense&#45;&gt;http://w3id.org/oseg/ont/okh#Module</title>
<path fill="none" stroke="black" d="M1002.04,-1208.52C992.76,-1246.99 969.59,-1342.96 958.3,-1389.76"/>
<polygon fill="black" stroke="black" points="954.83,-1389.21 955.88,-1399.75 961.63,-1390.85 954.83,-1389.21"/>
<text text-anchor="middle" x="902.17" y="-1302.94" font-family="Times,serif" font-size="14.00">dcam:domainIncludes</text>
</g>
<!-- http://w3id.org/oseg/ont/okh#relatedTsdc -->
<g id="node42" class="node">
<title>http://w3id.org/oseg/ont/okh#relatedTsdc</title>
<ellipse fill="none" stroke="#e377c2" cx="381.39" cy="-1589.93" rx="91.85" ry="16.03"/>
<text text-anchor="middle" x="381.39" y="-1586.23" font-family="Times,serif" font-size="14.00">okh:relatedTsdc</text>
</g>
<!-- http://w3id.org/oseg/ont/okh#relatedTsdc&#45;&gt;http://www.w3.org/2002/07/owl#ObjectProperty -->
<g id="edge54" class="edge">
<title>http://w3id.org/oseg/ont/okh#relatedTsdc&#45;&gt;http://www.w3.org/2002/07/owl#ObjectProperty</title>
<path fill="none" stroke="black" d="M394.79,-1573.75C434.42,-1525.95 551.15,-1385.12 598.18,-1328.39"/>
<polygon fill="black" stroke="black" points="600.91,-1330.58 604.6,-1320.65 595.52,-1326.11 600.91,-1330.58"/>
<text text-anchor="middle" x="491.99" y="-1454.87" font-family="Times,serif" font-size="14.00">a</text>
</g>
<!-- http://w3id.org/oseg/ont/okh#relatedTsdc&#45;&gt;http://w3id.org/oseg/ont/okh#tsdc -->
<g id="edge3" class="edge">
<title>http://w3id.org/oseg/ont/okh#relatedTsdc&#45;&gt;http://w3id.org/oseg/ont/okh#tsdc</title>
<path fill="none" stroke="black" d="M362.09,-1606.03C329.44,-1639.31 264.42,-1715.47 234.93,-1754.85"/>
<polygon fill="black" stroke="black" points="231.96,-1752.99 228.88,-1763.12 237.61,-1757.12 231.96,-1752.99"/>
<text text-anchor="middle" x="218.51" y="-1684.24" font-family="Times,serif" font-size="14.00">schema:supersededBy</text>
</g>
<!-- http://w3id.org/oseg/ont/okh#relatedTsdc&#45;&gt;http://w3id.org/oseg/ont/okh#tsdc -->
<g id="edge47" class="edge">
<title>http://w3id.org/oseg/ont/okh#relatedTsdc&#45;&gt;http://w3id.org/oseg/ont/okh#tsdc</title>
<path fill="none" stroke="black" d="M372.36,-1606.28C348.26,-1640.12 282.79,-1717.5 245.91,-1756.32"/>
<polygon fill="black" stroke="black" points="242.93,-1754.37 238.5,-1763.99 247.97,-1759.23 242.93,-1754.37"/>
<text text-anchor="middle" x="351.64" y="-1685.1" font-family="Times,serif" font-size="14.00">owl:sameAs</text>
</g>
</g>
</svg>
