<?xml version="1.0" encoding="UTF-8" standalone="no"?>
<!DOCTYPE svg PUBLIC "-//W3C//DTD SVG 1.1//EN"
 "http://www.w3.org/Graphics/SVG/1.1/DTD/svg11.dtd">
<!-- Generated by graphviz version 2.43.0 (0)
 -->
<!-- Title: G Pages: 1 -->
<svg width="1154pt" height="614pt"
 viewBox="0.00 0.00 1154.00 614.00" xmlns="http://www.w3.org/2000/svg" xmlns:xlink="http://www.w3.org/1999/xlink">
<g id="graph0" class="graph" transform="scale(1 1) rotate(0) translate(4 610)">
<title>G</title>
<polygon fill="white" stroke="transparent" points="-4,4 -4,-610 1150,-610 1150,4 -4,4"/>
<!-- http://www.w3.org/2002/07/owl#DatatypeProperty -->
<g id="node1" class="node">
<title>http://www.w3.org/2002/07/owl#DatatypeProperty</title>
<ellipse fill="none" stroke="#1f77b4" cx="122.99" cy="-201.28" rx="123.07" ry="16.03"/>
<text text-anchor="middle" x="122.99" y="-197.58" font-family="Times,serif" font-size="14.00">owl:DatatypeProperty</text>
</g>
<!-- http://w3id.org/oseg/ont/otrl#ODRL -->
<g id="node2" class="node">
<title>http://w3id.org/oseg/ont/otrl#ODRL</title>
<ellipse fill="none" stroke="#e377c2" cx="349.31" cy="-339.44" rx="62.87" ry="16.03"/>
<text text-anchor="middle" x="349.31" y="-335.74" font-family="Times,serif" font-size="14.00">otrl:ODRL</text>
</g>
<!-- http://www.w3.org/2002/07/owl#Ontology -->
<g id="node3" class="node">
<title>http://www.w3.org/2002/07/owl#Ontology</title>
<ellipse fill="none" stroke="#1f77b4" cx="710.55" cy="-556.89" rx="77.56" ry="16.03"/>
<text text-anchor="middle" x="710.55" y="-553.19" font-family="Times,serif" font-size="14.00">owl:Ontology</text>
</g>
<!-- http://spdx.org/rdf/terms#SpdxItem -->
<g id="node4" class="node">
<title>http://spdx.org/rdf/terms#SpdxItem</title>
<ellipse fill="none" stroke="#1f77b4" cx="1058.27" cy="-507.57" rx="87.86" ry="16.03"/>
<text text-anchor="middle" x="1058.27" y="-503.87" font-family="Times,serif" font-size="14.00">spdx:SpdxItem</text>
</g>
<!-- http://w3id.org/oseg/ont/otrl#OTRL -->
<g id="node5" class="node">
<title>http://w3id.org/oseg/ont/otrl#OTRL</title>
<ellipse fill="none" stroke="#e377c2" cx="391.23" cy="-217.53" rx="60.62" ry="16.03"/>
<text text-anchor="middle" x="391.23" y="-213.83" font-family="Times,serif" font-size="14.00">otrl:OTRL</text>
</g>
<!-- http://w3id.org/oseg/ont/otrl#ODRL1 -->
<g id="node6" class="node">
<title>http://w3id.org/oseg/ont/otrl#ODRL1</title>
<ellipse fill="none" stroke="#e377c2" cx="207.02" cy="-480.38" rx="69.09" ry="16.03"/>
<text text-anchor="middle" x="207.02" y="-476.68" font-family="Times,serif" font-size="14.00">otrl:ODRL1</text>
</g>
<!-- http://w3id.org/oseg/ont/otrl#ODRL1&#45;&gt;http://w3id.org/oseg/ont/otrl#ODRL -->
<g id="edge1" class="edge">
<title>http://w3id.org/oseg/ont/otrl#ODRL1&#45;&gt;http://w3id.org/oseg/ont/otrl#ODRL</title>
<path fill="none" stroke="black" d="M223.06,-464.49C248.15,-439.64 296.79,-391.46 325.82,-362.71"/>
<polygon fill="black" stroke="black" points="328.47,-365.02 333.11,-355.49 323.54,-360.04 328.47,-365.02"/>
<text text-anchor="middle" x="269.94" y="-417.4" font-family="Times,serif" font-size="14.00">a</text>
</g>
<!-- http://w3id.org/oseg/ont/otrl#ODRL4 -->
<g id="node7" class="node">
<title>http://w3id.org/oseg/ont/otrl#ODRL4</title>
<ellipse fill="none" stroke="#e377c2" cx="302.71" cy="-534.49" rx="69.09" ry="16.03"/>
<text text-anchor="middle" x="302.71" y="-530.79" font-family="Times,serif" font-size="14.00">otrl:ODRL4</text>
</g>
<!-- http://w3id.org/oseg/ont/otrl#ODRL4&#45;&gt;http://w3id.org/oseg/ont/otrl#ODRL -->
<g id="edge17" class="edge">
<title>http://w3id.org/oseg/ont/otrl#ODRL4&#45;&gt;http://w3id.org/oseg/ont/otrl#ODRL</title>
<path fill="none" stroke="black" d="M306.6,-518.2C314.67,-484.42 333.29,-406.52 343.06,-365.61"/>
<polygon fill="black" stroke="black" points="346.48,-366.36 345.4,-355.83 339.67,-364.74 346.48,-366.36"/>
<text text-anchor="middle" x="320.33" y="-445.7" font-family="Times,serif" font-size="14.00">a</text>
</g>
<!-- http://w3id.org/oseg/ont/otrl#goal -->
<g id="node8" class="node">
<title>http://w3id.org/oseg/ont/otrl#goal</title>
<ellipse fill="none" stroke="#e377c2" cx="212.88" cy="-242.14" rx="54.39" ry="16.03"/>
<text text-anchor="middle" x="212.88" y="-238.44" font-family="Times,serif" font-size="14.00">otrl:goal</text>
</g>
<!-- http://w3id.org/oseg/ont/otrl#goal&#45;&gt;http://www.w3.org/2002/07/owl#DatatypeProperty -->
<g id="edge2" class="edge">
<title>http://w3id.org/oseg/ont/otrl#goal&#45;&gt;http://www.w3.org/2002/07/owl#DatatypeProperty</title>
<path fill="none" stroke="black" d="M182.95,-228.54C177.71,-226.16 172.17,-223.64 166.66,-221.13"/>
<polygon fill="black" stroke="black" points="168.01,-217.9 157.46,-216.95 165.11,-224.27 168.01,-217.9"/>
<text text-anchor="middle" x="170.3" y="-213.63" font-family="Times,serif" font-size="14.00">a</text>
</g>
<!-- http://w3id.org/oseg/ont/otrl#goal&#45;&gt;http://w3id.org/oseg/ont/otrl#ODRL -->
<g id="edge12" class="edge">
<title>http://w3id.org/oseg/ont/otrl#goal&#45;&gt;http://w3id.org/oseg/ont/otrl#ODRL</title>
<path fill="none" stroke="black" d="M234.2,-257.34C257.09,-273.67 293.64,-299.74 319.41,-318.11"/>
<polygon fill="black" stroke="black" points="317.52,-321.07 327.7,-324.02 321.59,-315.37 317.52,-321.07"/>
<text text-anchor="middle" x="198.8" y="-276.53" font-family="Times,serif" font-size="14.00">dcam:domainIncludes</text>
</g>
<!-- http://w3id.org/oseg/ont/otrl#goal&#45;&gt;http://w3id.org/oseg/ont/otrl#OTRL -->
<g id="edge10" class="edge">
<title>http://w3id.org/oseg/ont/otrl#goal&#45;&gt;http://w3id.org/oseg/ont/otrl#OTRL</title>
<path fill="none" stroke="black" d="M262.56,-235.28C282.58,-232.52 305.93,-229.3 327.2,-226.36"/>
<polygon fill="black" stroke="black" points="327.7,-229.83 337.12,-224.99 326.74,-222.89 327.7,-229.83"/>
<text text-anchor="middle" x="372.88" y="-234.62" font-family="Times,serif" font-size="14.00">dcam:domainIncludes</text>
</g>
<!-- http://www.w3.org/1999/02/22&#45;rdf&#45;syntax&#45;ns#langString -->
<g id="node17" class="node">
<title>http://www.w3.org/1999/02/22&#45;rdf&#45;syntax&#45;ns#langString</title>
<ellipse fill="none" stroke="#e377c2" cx="121.51" cy="-297.51" rx="83.38" ry="16.03"/>
<text text-anchor="middle" x="121.51" y="-293.81" font-family="Times,serif" font-size="14.00">rdf:langString</text>
</g>
<!-- http://w3id.org/oseg/ont/otrl#goal&#45;&gt;http://www.w3.org/1999/02/22&#45;rdf&#45;syntax&#45;ns#langString -->
<g id="edge8" class="edge">
<title>http://w3id.org/oseg/ont/otrl#goal&#45;&gt;http://www.w3.org/1999/02/22&#45;rdf&#45;syntax&#45;ns#langString</title>
<path fill="none" stroke="black" d="M188.39,-256.98C178.48,-262.99 166.86,-270.03 156.11,-276.55"/>
<polygon fill="black" stroke="black" points="154.08,-273.68 147.34,-281.86 157.71,-279.67 154.08,-273.68"/>
<text text-anchor="middle" x="151.25" y="-255.56" font-family="Times,serif" font-size="14.00">range</text>
</g>
<!-- http://w3id.org/oseg/ont/otrl#OTRL4 -->
<g id="node9" class="node">
<title>http://w3id.org/oseg/ont/otrl#OTRL4</title>
<ellipse fill="none" stroke="#e377c2" cx="409.93" cy="-169.65" rx="67.35" ry="16.03"/>
<text text-anchor="middle" x="409.93" y="-165.95" font-family="Times,serif" font-size="14.00">otrl:OTRL4</text>
</g>
<!-- http://w3id.org/oseg/ont/otrl#OTRL4&#45;&gt;http://w3id.org/oseg/ont/otrl#OTRL -->
<g id="edge3" class="edge">
<title>http://w3id.org/oseg/ont/otrl#OTRL4&#45;&gt;http://w3id.org/oseg/ont/otrl#OTRL</title>
<path fill="none" stroke="black" d="M403.6,-185.86C402.87,-187.73 402.11,-189.67 401.34,-191.63"/>
<polygon fill="black" stroke="black" points="397.93,-190.75 397.55,-201.33 404.45,-193.29 397.93,-190.75"/>
<text text-anchor="middle" x="397.97" y="-192.55" font-family="Times,serif" font-size="14.00">a</text>
</g>
<!-- http://w3id.org/oseg/ont/oseg&#45;profiles#robinVobruba -->
<g id="node10" class="node">
<title>http://w3id.org/oseg/ont/oseg&#45;profiles#robinVobruba</title>
<ellipse fill="none" stroke="#e377c2" cx="943.29" cy="-386.5" rx="113.69" ry="16.03"/>
<text text-anchor="middle" x="943.29" y="-382.8" font-family="Times,serif" font-size="14.00">osegprof:robinVob...</text>
</g>
<!-- http://w3id.org/oseg/ont/otrl#ODRL2 -->
<g id="node11" class="node">
<title>http://w3id.org/oseg/ont/otrl#ODRL2</title>
<ellipse fill="none" stroke="#e377c2" cx="450.88" cy="-513.21" rx="69.09" ry="16.03"/>
<text text-anchor="middle" x="450.88" y="-509.51" font-family="Times,serif" font-size="14.00">otrl:ODRL2</text>
</g>
<!-- http://w3id.org/oseg/ont/otrl#ODRL2&#45;&gt;http://w3id.org/oseg/ont/otrl#ODRL -->
<g id="edge18" class="edge">
<title>http://w3id.org/oseg/ont/otrl#ODRL2&#45;&gt;http://w3id.org/oseg/ont/otrl#ODRL</title>
<path fill="none" stroke="black" d="M441.32,-496.86C423.56,-466.46 385.31,-401.03 364.15,-364.83"/>
<polygon fill="black" stroke="black" points="366.99,-362.74 358.92,-355.87 360.94,-366.27 366.99,-362.74"/>
<text text-anchor="middle" x="398.24" y="-434.65" font-family="Times,serif" font-size="14.00">a</text>
</g>
<!-- http://id.loc.gov/vocabulary/iso639&#45;1/en -->
<g id="node12" class="node">
<title>http://id.loc.gov/vocabulary/iso639&#45;1/en</title>
<ellipse fill="none" stroke="#e377c2" cx="894.71" cy="-589.99" rx="45.01" ry="16.03"/>
<text text-anchor="middle" x="894.71" y="-586.29" font-family="Times,serif" font-size="14.00">ns1:en</text>
</g>
<!-- http://w3id.org/oseg/ont/otrl#OTRL3 -->
<g id="node13" class="node">
<title>http://w3id.org/oseg/ont/otrl#OTRL3</title>
<ellipse fill="none" stroke="#e377c2" cx="273.89" cy="-57.46" rx="67.35" ry="16.03"/>
<text text-anchor="middle" x="273.89" y="-53.76" font-family="Times,serif" font-size="14.00">otrl:OTRL3</text>
</g>
<!-- http://w3id.org/oseg/ont/otrl#OTRL3&#45;&gt;http://w3id.org/oseg/ont/otrl#OTRL -->
<g id="edge5" class="edge">
<title>http://w3id.org/oseg/ont/otrl#OTRL3&#45;&gt;http://w3id.org/oseg/ont/otrl#OTRL</title>
<path fill="none" stroke="black" d="M285.79,-73.69C306.43,-101.85 349,-159.92 373.26,-193.02"/>
<polygon fill="black" stroke="black" points="370.56,-195.26 379.3,-201.26 376.21,-191.12 370.56,-195.26"/>
<text text-anchor="middle" x="325.03" y="-137.15" font-family="Times,serif" font-size="14.00">a</text>
</g>
<!-- http://w3id.org/oseg/ont/otrl#exitCriteria -->
<g id="node14" class="node">
<title>http://w3id.org/oseg/ont/otrl#exitCriteria</title>
<ellipse fill="none" stroke="#e377c2" cx="353.64" cy="-297.15" rx="91.43" ry="16.03"/>
<text text-anchor="middle" x="353.64" y="-293.45" font-family="Times,serif" font-size="14.00">otrl:exitCriteria</text>
</g>
<!-- http://w3id.org/oseg/ont/otrl#exitCriteria&#45;&gt;http://www.w3.org/2002/07/owl#DatatypeProperty -->
<g id="edge21" class="edge">
<title>http://w3id.org/oseg/ont/otrl#exitCriteria&#45;&gt;http://www.w3.org/2002/07/owl#DatatypeProperty</title>
<path fill="none" stroke="black" d="M317.6,-282.17C277.7,-265.59 213.27,-238.81 169.57,-220.64"/>
<polygon fill="black" stroke="black" points="170.89,-217.4 160.31,-216.79 168.2,-223.86 170.89,-217.4"/>
<text text-anchor="middle" x="239.09" y="-255.21" font-family="Times,serif" font-size="14.00">a</text>
</g>
<!-- http://w3id.org/oseg/ont/otrl#exitCriteria&#45;&gt;http://w3id.org/oseg/ont/otrl#ODRL -->
<g id="edge22" class="edge">
<title>http://w3id.org/oseg/ont/otrl#exitCriteria&#45;&gt;http://w3id.org/oseg/ont/otrl#ODRL</title>
<path fill="none" stroke="black" d="M351.93,-313.87C351.92,-313.96 351.91,-314.06 351.9,-314.15"/>
<polygon fill="black" stroke="black" points="348.52,-312.82 350.98,-323.12 355.48,-313.53 348.52,-312.82"/>
<text text-anchor="middle" x="429.91" y="-317.81" font-family="Times,serif" font-size="14.00">dcam:domainIncludes</text>
</g>
<!-- http://w3id.org/oseg/ont/otrl#exitCriteria&#45;&gt;http://w3id.org/oseg/ont/otrl#OTRL -->
<g id="edge20" class="edge">
<title>http://w3id.org/oseg/ont/otrl#exitCriteria&#45;&gt;http://w3id.org/oseg/ont/otrl#OTRL</title>
<path fill="none" stroke="black" d="M361.43,-280.65C366.55,-269.8 373.36,-255.37 379.18,-243.05"/>
<polygon fill="black" stroke="black" points="382.47,-244.27 383.58,-233.73 376.14,-241.28 382.47,-244.27"/>
<text text-anchor="middle" x="448.3" y="-265.65" font-family="Times,serif" font-size="14.00">dcam:domainIncludes</text>
</g>
<!-- http://w3id.org/oseg/ont/otrl#exitCriteria&#45;&gt;http://www.w3.org/1999/02/22&#45;rdf&#45;syntax&#45;ns#langString -->
<g id="edge28" class="edge">
<title>http://w3id.org/oseg/ont/otrl#exitCriteria&#45;&gt;http://www.w3.org/1999/02/22&#45;rdf&#45;syntax&#45;ns#langString</title>
<path fill="none" stroke="black" d="M262.23,-297.3C246.83,-297.32 230.81,-297.34 215.35,-297.37"/>
<polygon fill="black" stroke="black" points="215.27,-293.87 205.28,-297.38 215.29,-300.87 215.27,-293.87"/>
<text text-anchor="middle" x="217.79" y="-301.13" font-family="Times,serif" font-size="14.00">range</text>
</g>
<!-- http://w3id.org/oseg/ont/oseg&#45;profiles#martinHaeuer -->
<g id="node15" class="node">
<title>http://w3id.org/oseg/ont/oseg&#45;profiles#martinHaeuer</title>
<ellipse fill="none" stroke="#e377c2" cx="845.75" cy="-470.48" rx="116.85" ry="16.03"/>
<text text-anchor="middle" x="845.75" y="-466.78" font-family="Times,serif" font-size="14.00">osegprof:martinHa...</text>
</g>
<!-- http://w3id.org/oseg/ont/otrl#OTRL1 -->
<g id="node16" class="node">
<title>http://w3id.org/oseg/ont/otrl#OTRL1</title>
<ellipse fill="none" stroke="#e377c2" cx="363.63" cy="-16.31" rx="67.35" ry="16.03"/>
<text text-anchor="middle" x="363.63" y="-12.61" font-family="Times,serif" font-size="14.00">otrl:OTRL1</text>
</g>
<!-- http://w3id.org/oseg/ont/otrl#OTRL1&#45;&gt;http://w3id.org/oseg/ont/otrl#OTRL -->
<g id="edge7" class="edge">
<title>http://w3id.org/oseg/ont/otrl#OTRL1&#45;&gt;http://w3id.org/oseg/ont/otrl#OTRL</title>
<path fill="none" stroke="black" d="M365.89,-32.78C370.66,-67.57 381.81,-148.84 387.59,-191.04"/>
<polygon fill="black" stroke="black" points="384.15,-191.68 388.98,-201.12 391.09,-190.73 384.15,-191.68"/>
<text text-anchor="middle" x="372.24" y="-115.71" font-family="Times,serif" font-size="14.00">a</text>
</g>
<!-- http://w3id.org/oseg/ont/otrl -->
<g id="node18" class="node">
<title>http://w3id.org/oseg/ont/otrl</title>
<ellipse fill="none" stroke="#e377c2" cx="861.76" cy="-429.89" rx="50.82" ry="16.03"/>
<text text-anchor="middle" x="861.76" y="-426.19" font-family="Times,serif" font-size="14.00">ns2:otrl</text>
</g>
<!-- http://w3id.org/oseg/ont/otrl&#45;&gt;http://www.w3.org/2002/07/owl#Ontology -->
<g id="edge23" class="edge">
<title>http://w3id.org/oseg/ont/otrl&#45;&gt;http://www.w3.org/2002/07/owl#Ontology</title>
<path fill="none" stroke="black" d="M843.52,-445.21C817.13,-467.37 768.12,-508.54 737.54,-534.23"/>
<polygon fill="black" stroke="black" points="735.21,-531.61 729.81,-540.72 739.72,-536.97 735.21,-531.61"/>
<text text-anchor="middle" x="786.03" y="-493.52" font-family="Times,serif" font-size="14.00">a</text>
</g>
<!-- http://w3id.org/oseg/ont/otrl&#45;&gt;http://spdx.org/rdf/terms#SpdxItem -->
<g id="edge9" class="edge">
<title>http://w3id.org/oseg/ont/otrl&#45;&gt;http://spdx.org/rdf/terms#SpdxItem</title>
<path fill="none" stroke="black" d="M893.77,-442.54C925.71,-455.17 975.15,-474.71 1011.49,-489.08"/>
<polygon fill="black" stroke="black" points="1010.31,-492.37 1020.9,-492.8 1012.89,-485.86 1010.31,-492.37"/>
<text text-anchor="middle" x="948.13" y="-454.61" font-family="Times,serif" font-size="14.00">a</text>
</g>
<!-- http://w3id.org/oseg/ont/otrl&#45;&gt;http://w3id.org/oseg/ont/oseg&#45;profiles#robinVobruba -->
<g id="edge4" class="edge">
<title>http://w3id.org/oseg/ont/otrl&#45;&gt;http://w3id.org/oseg/ont/oseg&#45;profiles#robinVobruba</title>
<path fill="none" stroke="black" d="M898.04,-418.11C904.25,-415 910.61,-411.57 916.52,-408.15"/>
<polygon fill="black" stroke="black" points="918.61,-410.97 925.36,-402.8 914.99,-404.98 918.61,-410.97"/>
<text text-anchor="middle" x="962.78" y="-416.93" font-family="Times,serif" font-size="14.00">schema:creator</text>
</g>
<!-- http://w3id.org/oseg/ont/otrl&#45;&gt;http://w3id.org/oseg/ont/oseg&#45;profiles#robinVobruba -->
<g id="edge25" class="edge">
<title>http://w3id.org/oseg/ont/otrl&#45;&gt;http://w3id.org/oseg/ont/oseg&#45;profiles#robinVobruba</title>
<path fill="none" stroke="black" d="M878.34,-414.45C882.29,-411.91 886.7,-409.26 891.33,-406.64"/>
<polygon fill="black" stroke="black" points="893.32,-409.54 900.41,-401.68 889.96,-403.4 893.32,-409.54"/>
<text text-anchor="middle" x="827.33" y="-399.35" font-family="Times,serif" font-size="14.00">dcterms:creator</text>
</g>
<!-- http://w3id.org/oseg/ont/otrl&#45;&gt;http://id.loc.gov/vocabulary/iso639&#45;1/en -->
<g id="edge19" class="edge">
<title>http://w3id.org/oseg/ont/otrl&#45;&gt;http://id.loc.gov/vocabulary/iso639&#45;1/en</title>
<path fill="none" stroke="black" d="M865.1,-446.12C870.8,-473.81 882.45,-530.41 889.31,-563.77"/>
<polygon fill="black" stroke="black" points="885.92,-564.63 891.36,-573.72 892.77,-563.22 885.92,-564.63"/>
<text text-anchor="middle" x="812.71" y="-508.74" font-family="Times,serif" font-size="14.00">dcterms:language</text>
</g>
<!-- http://w3id.org/oseg/ont/otrl&#45;&gt;http://w3id.org/oseg/ont/oseg&#45;profiles#martinHaeuer -->
<g id="edge6" class="edge">
<title>http://w3id.org/oseg/ont/otrl&#45;&gt;http://w3id.org/oseg/ont/oseg&#45;profiles#martinHaeuer</title>
<path fill="none" stroke="black" d="M848.25,-445.82C848.21,-445.9 848.18,-445.99 848.14,-446.07"/>
<polygon fill="black" stroke="black" points="845.41,-443.32 845.33,-453.91 852,-445.68 845.41,-443.32"/>
<text text-anchor="middle" x="792.69" y="-434.74" font-family="Times,serif" font-size="14.00">schema:creator</text>
</g>
<!-- http://w3id.org/oseg/ont/otrl&#45;&gt;http://w3id.org/oseg/ont/oseg&#45;profiles#martinHaeuer -->
<g id="edge27" class="edge">
<title>http://w3id.org/oseg/ont/otrl&#45;&gt;http://w3id.org/oseg/ont/oseg&#45;profiles#martinHaeuer</title>
<path fill="none" stroke="black" d="M862.18,-446.46C862.13,-446.62 862.08,-446.78 862.03,-446.94"/>
<polygon fill="black" stroke="black" points="859.52,-443.6 859.41,-454.2 866.1,-445.98 859.52,-443.6"/>
<text text-anchor="middle" x="919.61" y="-435.5" font-family="Times,serif" font-size="14.00">dcterms:creator</text>
</g>
<!-- http://w3id.org/oseg/ont/oseg&#45;profiles#Iopa -->
<g id="node19" class="node">
<title>http://w3id.org/oseg/ont/oseg&#45;profiles#Iopa</title>
<ellipse fill="none" stroke="#e377c2" cx="670.51" cy="-368.49" rx="80.72" ry="16.03"/>
<text text-anchor="middle" x="670.51" y="-364.79" font-family="Times,serif" font-size="14.00">osegprof:Iopa</text>
</g>
<!-- http://w3id.org/oseg/ont/otrl&#45;&gt;http://w3id.org/oseg/ont/oseg&#45;profiles#Iopa -->
<g id="edge24" class="edge">
<title>http://w3id.org/oseg/ont/otrl&#45;&gt;http://w3id.org/oseg/ont/oseg&#45;profiles#Iopa</title>
<path fill="none" stroke="black" d="M825.78,-418.34C796.95,-409.09 756.08,-395.96 723.5,-385.51"/>
<polygon fill="black" stroke="black" points="724.28,-382.08 713.68,-382.36 722.14,-388.74 724.28,-382.08"/>
<text text-anchor="middle" x="709.14" y="-390.72" font-family="Times,serif" font-size="14.00">dcterms:publisher</text>
</g>
<!-- http://spdx.org/licenses/GPL&#45;3.0&#45;or&#45;later -->
<g id="node24" class="node">
<title>http://spdx.org/licenses/GPL&#45;3.0&#45;or&#45;later</title>
<ellipse fill="none" stroke="#e377c2" cx="1017.39" cy="-252.34" rx="108.79" ry="16.03"/>
<text text-anchor="middle" x="1017.39" y="-248.64" font-family="Times,serif" font-size="14.00">spdxl:GPL&#45;3.0&#45;or&#45;...</text>
</g>
<!-- http://w3id.org/oseg/ont/otrl&#45;&gt;http://spdx.org/licenses/GPL&#45;3.0&#45;or&#45;later -->
<g id="edge15" class="edge">
<title>http://w3id.org/oseg/ont/otrl&#45;&gt;http://spdx.org/licenses/GPL&#45;3.0&#45;or&#45;later</title>
<path fill="none" stroke="black" d="M875.57,-414.13C902.89,-382.97 963.98,-313.28 996.34,-276.36"/>
<polygon fill="black" stroke="black" points="999.2,-278.4 1003.16,-268.58 993.94,-273.79 999.2,-278.4"/>
<text text-anchor="middle" x="859.95" y="-334.05" font-family="Times,serif" font-size="14.00">spdx:licenseDeclared</text>
</g>
<!-- http://w3id.org/oseg/ont/1.1.0/otrl -->
<g id="node25" class="node">
<title>http://w3id.org/oseg/ont/1.1.0/otrl</title>
<ellipse fill="none" stroke="#e377c2" cx="808.18" cy="-268.62" rx="50.82" ry="16.03"/>
<text text-anchor="middle" x="808.18" y="-264.92" font-family="Times,serif" font-size="14.00">ns3:otrl</text>
</g>
<!-- http://w3id.org/oseg/ont/otrl&#45;&gt;http://w3id.org/oseg/ont/1.1.0/otrl -->
<g id="edge16" class="edge">
<title>http://w3id.org/oseg/ont/otrl&#45;&gt;http://w3id.org/oseg/ont/1.1.0/otrl</title>
<path fill="none" stroke="black" d="M856.33,-413.54C847.02,-385.53 827.96,-328.15 816.81,-294.6"/>
<polygon fill="black" stroke="black" points="820.1,-293.4 813.63,-285.02 813.46,-295.61 820.1,-293.4"/>
<text text-anchor="middle" x="888.07" y="-357.87" font-family="Times,serif" font-size="14.00">owl:versionIRI</text>
</g>
<!-- http://w3id.org/oseg/ont/otrl#OTRL2 -->
<g id="node20" class="node">
<title>http://w3id.org/oseg/ont/otrl#OTRL2</title>
<ellipse fill="none" stroke="#e377c2" cx="569.46" cy="-124.05" rx="67.35" ry="16.03"/>
<text text-anchor="middle" x="569.46" y="-120.35" font-family="Times,serif" font-size="14.00">otrl:OTRL2</text>
</g>
<!-- http://w3id.org/oseg/ont/otrl#OTRL2&#45;&gt;http://w3id.org/oseg/ont/otrl#OTRL -->
<g id="edge11" class="edge">
<title>http://w3id.org/oseg/ont/otrl#OTRL2&#45;&gt;http://w3id.org/oseg/ont/otrl#OTRL</title>
<path fill="none" stroke="black" d="M541.22,-138.86C510.62,-154.91 461.69,-180.57 428.09,-198.2"/>
<polygon fill="black" stroke="black" points="426.27,-195.19 419.04,-202.94 429.52,-201.39 426.27,-195.19"/>
<text text-anchor="middle" x="489.15" y="-172.33" font-family="Times,serif" font-size="14.00">a</text>
</g>
<!-- http://w3id.org/oseg/ont/otrl#OTRL6 -->
<g id="node21" class="node">
<title>http://w3id.org/oseg/ont/otrl#OTRL6</title>
<ellipse fill="none" stroke="#e377c2" cx="589.6" cy="-230.58" rx="67.35" ry="16.03"/>
<text text-anchor="middle" x="589.6" y="-226.88" font-family="Times,serif" font-size="14.00">otrl:OTRL6</text>
</g>
<!-- http://w3id.org/oseg/ont/otrl#OTRL6&#45;&gt;http://w3id.org/oseg/ont/otrl#OTRL -->
<g id="edge26" class="edge">
<title>http://w3id.org/oseg/ont/otrl#OTRL6&#45;&gt;http://w3id.org/oseg/ont/otrl#OTRL</title>
<path fill="none" stroke="black" d="M524.64,-226.31C504.06,-224.95 481.23,-223.45 460.36,-222.08"/>
<polygon fill="black" stroke="black" points="460.5,-218.58 450.29,-221.42 460.04,-225.56 460.5,-218.58"/>
<text text-anchor="middle" x="488" y="-227.99" font-family="Times,serif" font-size="14.00">a</text>
</g>
<!-- http://w3id.org/oseg/ont/otrl#ODRL3Star -->
<g id="node22" class="node">
<title>http://w3id.org/oseg/ont/otrl#ODRL3Star</title>
<ellipse fill="none" stroke="#e377c2" cx="367.36" cy="-380.05" rx="90.52" ry="16.03"/>
<text text-anchor="middle" x="367.36" y="-376.35" font-family="Times,serif" font-size="14.00">otrl:ODRL3Star</text>
</g>
<!-- http://w3id.org/oseg/ont/otrl#ODRL3Star&#45;&gt;http://w3id.org/oseg/ont/otrl#ODRL -->
<g id="edge13" class="edge">
<title>http://w3id.org/oseg/ont/otrl#ODRL3Star&#45;&gt;http://w3id.org/oseg/ont/otrl#ODRL</title>
<path fill="none" stroke="black" d="M360.02,-363.54C359.95,-363.38 359.88,-363.22 359.81,-363.06"/>
<polygon fill="black" stroke="black" points="363.85,-363.53 356.59,-355.81 357.45,-366.37 363.85,-363.53"/>
<text text-anchor="middle" x="355.41" y="-352.1" font-family="Times,serif" font-size="14.00">a</text>
</g>
<!-- http://w3id.org/oseg/ont/otrl#OTRL5 -->
<g id="node23" class="node">
<title>http://w3id.org/oseg/ont/otrl#OTRL5</title>
<ellipse fill="none" stroke="#e377c2" cx="510.14" cy="-53.3" rx="67.35" ry="16.03"/>
<text text-anchor="middle" x="510.14" y="-49.6" font-family="Times,serif" font-size="14.00">otrl:OTRL5</text>
</g>
<!-- http://w3id.org/oseg/ont/otrl#OTRL5&#45;&gt;http://w3id.org/oseg/ont/otrl#OTRL -->
<g id="edge14" class="edge">
<title>http://w3id.org/oseg/ont/otrl#OTRL5&#45;&gt;http://w3id.org/oseg/ont/otrl#OTRL</title>
<path fill="none" stroke="black" d="M498.52,-69.34C477.71,-98.09 433.93,-158.55 409.21,-192.69"/>
<polygon fill="black" stroke="black" points="406.1,-191.02 403.07,-201.17 411.77,-195.13 406.1,-191.02"/>
<text text-anchor="middle" x="449.36" y="-134.82" font-family="Times,serif" font-size="14.00">a</text>
</g>
<!-- http://w3id.org/oseg/ont/otrl#ODRL3 -->
<g id="node26" class="node">
<title>http://w3id.org/oseg/ont/otrl#ODRL3</title>
<ellipse fill="none" stroke="#e377c2" cx="524.62" cy="-437.6" rx="69.09" ry="16.03"/>
<text text-anchor="middle" x="524.62" y="-433.9" font-family="Times,serif" font-size="14.00">otrl:ODRL3</text>
</g>
<!-- http://w3id.org/oseg/ont/otrl#ODRL3&#45;&gt;http://w3id.org/oseg/ont/otrl#ODRL -->
<g id="edge29" class="edge">
<title>http://w3id.org/oseg/ont/otrl#ODRL3&#45;&gt;http://w3id.org/oseg/ont/otrl#ODRL</title>
<path fill="none" stroke="black" d="M497.62,-422.48C467.33,-405.52 418.09,-377.95 384.74,-359.27"/>
<polygon fill="black" stroke="black" points="386.21,-356.09 375.78,-354.26 382.79,-362.2 386.21,-356.09"/>
<text text-anchor="middle" x="436.68" y="-394.67" font-family="Times,serif" font-size="14.00">a</text>
</g>
</g>
</svg>
