<?xml version="1.0" encoding="UTF-8" standalone="no"?>
<!DOCTYPE svg PUBLIC "-//W3C//DTD SVG 1.1//EN"
 "http://www.w3.org/Graphics/SVG/1.1/DTD/svg11.dtd">
<!-- Generated by graphviz version 2.43.0 (0)
 -->
<!-- Title: G Pages: 1 -->
<svg width="2067pt" height="1934pt"
 viewBox="0.00 0.00 2067.00 1934.00" xmlns="http://www.w3.org/2000/svg" xmlns:xlink="http://www.w3.org/1999/xlink">
<g id="graph0" class="graph" transform="scale(1 1) rotate(0) translate(4 1930)">
<title>G</title>
<polygon fill="white" stroke="transparent" points="-4,4 -4,-1930 2063,-1930 2063,4 -4,4"/>
<!-- http://w3id.org/oseg/ont/otrl#ODRL -->
<g id="node1" class="node">
<title>http://w3id.org/oseg/ont/otrl#ODRL</title>
<ellipse fill="none" stroke="#e377c2" cx="892.93" cy="-876.17" rx="62.87" ry="16.03"/>
<text text-anchor="middle" x="892.93" y="-872.47" font-family="Times,serif" font-size="14.00">otrl:ODRL</text>
</g>
<!-- http://w3id.org/oseg/ont/otrl#OTRL -->
<g id="node2" class="node">
<title>http://w3id.org/oseg/ont/otrl#OTRL</title>
<ellipse fill="none" stroke="#e377c2" cx="1060.52" cy="-1385.78" rx="60.62" ry="16.03"/>
<text text-anchor="middle" x="1060.52" y="-1382.08" font-family="Times,serif" font-size="14.00">otrl:OTRL</text>
</g>
<!-- http://spdx.org/rdf/terms#SpdxItem -->
<g id="node3" class="node">
<title>http://spdx.org/rdf/terms#SpdxItem</title>
<ellipse fill="none" stroke="#1f77b4" cx="1597.55" cy="-1002.64" rx="87.86" ry="16.03"/>
<text text-anchor="middle" x="1597.55" y="-998.94" font-family="Times,serif" font-size="14.00">spdx:SpdxItem</text>
</g>
<!-- http://w3id.org/oseg/ont/1.1.0/otrl -->
<g id="node4" class="node">
<title>http://w3id.org/oseg/ont/1.1.0/otrl</title>
<ellipse fill="none" stroke="#e377c2" cx="1956.3" cy="-916.82" rx="50.82" ry="16.03"/>
<text text-anchor="middle" x="1956.3" y="-913.12" font-family="Times,serif" font-size="14.00">ns1:otrl</text>
</g>
<!-- http://w3id.org/oseg/ont/otrl#ODRL1 -->
<g id="node5" class="node">
<title>http://w3id.org/oseg/ont/otrl#ODRL1</title>
<ellipse fill="none" stroke="#e377c2" cx="725.52" cy="-706.01" rx="69.09" ry="16.03"/>
<text text-anchor="middle" x="725.52" y="-702.31" font-family="Times,serif" font-size="14.00">otrl:ODRL1</text>
</g>
<!-- http://w3id.org/oseg/ont/otrl#ODRL1&#45;&gt;http://w3id.org/oseg/ont/otrl#ODRL -->
<g id="edge3" class="edge">
<title>http://w3id.org/oseg/ont/otrl#ODRL1&#45;&gt;http://w3id.org/oseg/ont/otrl#ODRL</title>
<path fill="none" stroke="black" d="M741.27,-722.02C770.94,-752.17 835.21,-817.5 869.79,-852.65"/>
<polygon fill="black" stroke="black" points="867.59,-855.41 877.1,-860.08 872.58,-850.5 867.59,-855.41"/>
<text text-anchor="middle" x="801.03" y="-791.13" font-family="Times,serif" font-size="14.00">a</text>
</g>
<!-- http://spdx.org/licenses/GPL&#45;3.0&#45;or&#45;later -->
<g id="node6" class="node">
<title>http://spdx.org/licenses/GPL&#45;3.0&#45;or&#45;later</title>
<ellipse fill="none" stroke="#e377c2" cx="1789.32" cy="-958.64" rx="108.79" ry="16.03"/>
<text text-anchor="middle" x="1789.32" y="-954.94" font-family="Times,serif" font-size="14.00">spdxl:GPL&#45;3.0&#45;or&#45;...</text>
</g>
<!-- http://w3id.org/oseg/ont/otrl#OTRL1 -->
<g id="node7" class="node">
<title>http://w3id.org/oseg/ont/otrl#OTRL1</title>
<ellipse fill="none" stroke="#e377c2" cx="890.81" cy="-1575.15" rx="67.35" ry="16.03"/>
<text text-anchor="middle" x="890.81" y="-1571.45" font-family="Times,serif" font-size="14.00">otrl:OTRL1</text>
</g>
<!-- http://w3id.org/oseg/ont/otrl#OTRL1&#45;&gt;http://w3id.org/oseg/ont/otrl#OTRL -->
<g id="edge22" class="edge">
<title>http://w3id.org/oseg/ont/otrl#OTRL1&#45;&gt;http://w3id.org/oseg/ont/otrl#OTRL</title>
<path fill="none" stroke="black" d="M905.28,-1559C935.29,-1525.52 1004.41,-1448.39 1039.4,-1409.34"/>
<polygon fill="black" stroke="black" points="1042.26,-1411.4 1046.32,-1401.61 1037.04,-1406.73 1042.26,-1411.4"/>
<text text-anchor="middle" x="967.84" y="-1487.97" font-family="Times,serif" font-size="14.00">a</text>
</g>
<!-- http://w3id.org/oseg/ont/otrl#OTRL6 -->
<g id="node8" class="node">
<title>http://w3id.org/oseg/ont/otrl#OTRL6</title>
<ellipse fill="none" stroke="#e377c2" cx="1051.07" cy="-1589.31" rx="67.35" ry="16.03"/>
<text text-anchor="middle" x="1051.07" y="-1585.61" font-family="Times,serif" font-size="14.00">otrl:OTRL6</text>
</g>
<!-- http://w3id.org/oseg/ont/otrl#OTRL6&#45;&gt;http://w3id.org/oseg/ont/otrl#OTRL -->
<g id="edge36" class="edge">
<title>http://w3id.org/oseg/ont/otrl#OTRL6&#45;&gt;http://w3id.org/oseg/ont/otrl#OTRL</title>
<path fill="none" stroke="black" d="M1051.83,-1573C1053.46,-1537.94 1057.3,-1455.13 1059.28,-1412.37"/>
<polygon fill="black" stroke="black" points="1062.79,-1412.32 1059.76,-1402.17 1055.8,-1411.99 1062.79,-1412.32"/>
<text text-anchor="middle" x="1051.06" y="-1496.48" font-family="Times,serif" font-size="14.00">a</text>
</g>
<!-- http://w3id.org/oseg/ont/oseg&#45;profiles#Iopa -->
<g id="node9" class="node">
<title>http://w3id.org/oseg/ont/oseg&#45;profiles#Iopa</title>
<ellipse fill="none" stroke="#e377c2" cx="1978.68" cy="-1112.04" rx="80.72" ry="16.03"/>
<text text-anchor="middle" x="1978.68" y="-1108.34" font-family="Times,serif" font-size="14.00">osegprof:Iopa</text>
</g>
<!-- http://id.loc.gov/vocabulary/iso639&#45;1/en -->
<g id="node10" class="node">
<title>http://id.loc.gov/vocabulary/iso639&#45;1/en</title>
<ellipse fill="none" stroke="#e377c2" cx="1790.42" cy="-1167.43" rx="45.01" ry="16.03"/>
<text text-anchor="middle" x="1790.42" y="-1163.73" font-family="Times,serif" font-size="14.00">ns2:en</text>
</g>
<!-- http://w3id.org/oseg/ont/oseg&#45;profiles#martinHaeuer -->
<g id="node11" class="node">
<title>http://w3id.org/oseg/ont/oseg&#45;profiles#martinHaeuer</title>
<ellipse fill="none" stroke="#e377c2" cx="1765.66" cy="-1044.06" rx="116.85" ry="16.03"/>
<text text-anchor="middle" x="1765.66" y="-1040.36" font-family="Times,serif" font-size="14.00">osegprof:martinHa...</text>
</g>
<!-- http://w3id.org/oseg/ont/otrl#OTRL3 -->
<g id="node12" class="node">
<title>http://w3id.org/oseg/ont/otrl#OTRL3</title>
<ellipse fill="none" stroke="#e377c2" cx="1292.18" cy="-1364.95" rx="67.35" ry="16.03"/>
<text text-anchor="middle" x="1292.18" y="-1361.25" font-family="Times,serif" font-size="14.00">otrl:OTRL3</text>
</g>
<!-- http://w3id.org/oseg/ont/otrl#OTRL3&#45;&gt;http://w3id.org/oseg/ont/otrl#OTRL -->
<g id="edge11" class="edge">
<title>http://w3id.org/oseg/ont/otrl#OTRL3&#45;&gt;http://w3id.org/oseg/ont/otrl#OTRL</title>
<path fill="none" stroke="black" d="M1229.18,-1370.61C1197.99,-1373.42 1160.29,-1376.81 1128.45,-1379.67"/>
<polygon fill="black" stroke="black" points="1127.99,-1376.2 1118.34,-1380.58 1128.61,-1383.17 1127.99,-1376.2"/>
<text text-anchor="middle" x="1174.32" y="-1378.94" font-family="Times,serif" font-size="14.00">a</text>
</g>
<!-- http://w3id.org/oseg/ont/otrl#exitCriteria -->
<g id="node13" class="node">
<title>http://w3id.org/oseg/ont/otrl#exitCriteria</title>
<ellipse fill="none" stroke="#e377c2" cx="875.09" cy="-1157.71" rx="91.43" ry="16.03"/>
<text text-anchor="middle" x="875.09" y="-1154.01" font-family="Times,serif" font-size="14.00">otrl:exitCriteria</text>
</g>
<!-- http://w3id.org/oseg/ont/otrl#exitCriteria&#45;&gt;http://w3id.org/oseg/ont/otrl#ODRL -->
<g id="edge7" class="edge">
<title>http://w3id.org/oseg/ont/otrl#exitCriteria&#45;&gt;http://w3id.org/oseg/ont/otrl#ODRL</title>
<path fill="none" stroke="black" d="M876.13,-1141.35C879.09,-1094.61 887.61,-960.09 891.25,-902.67"/>
<polygon fill="black" stroke="black" points="894.75,-902.77 891.89,-892.57 887.77,-902.33 894.75,-902.77"/>
<text text-anchor="middle" x="805.69" y="-1025.81" font-family="Times,serif" font-size="14.00">dcam:domainIncludes</text>
</g>
<!-- http://w3id.org/oseg/ont/otrl#exitCriteria&#45;&gt;http://w3id.org/oseg/ont/otrl#OTRL -->
<g id="edge39" class="edge">
<title>http://w3id.org/oseg/ont/otrl#exitCriteria&#45;&gt;http://w3id.org/oseg/ont/otrl#OTRL</title>
<path fill="none" stroke="black" d="M888.43,-1174.11C920.71,-1213.82 1003.2,-1315.28 1041.03,-1361.81"/>
<polygon fill="black" stroke="black" points="1038.53,-1364.28 1047.55,-1369.83 1043.96,-1359.86 1038.53,-1364.28"/>
<text text-anchor="middle" x="886.73" y="-1271.76" font-family="Times,serif" font-size="14.00">dcam:domainIncludes</text>
</g>
<!-- http://www.w3.org/1999/02/22&#45;rdf&#45;syntax&#45;ns#langString -->
<g id="node23" class="node">
<title>http://www.w3.org/1999/02/22&#45;rdf&#45;syntax&#45;ns#langString</title>
<ellipse fill="none" stroke="#e377c2" cx="1109.73" cy="-1059.52" rx="83.38" ry="16.03"/>
<text text-anchor="middle" x="1109.73" y="-1055.82" font-family="Times,serif" font-size="14.00">rdf:langString</text>
</g>
<!-- http://w3id.org/oseg/ont/otrl#exitCriteria&#45;&gt;http://www.w3.org/1999/02/22&#45;rdf&#45;syntax&#45;ns#langString -->
<g id="edge35" class="edge">
<title>http://w3id.org/oseg/ont/otrl#exitCriteria&#45;&gt;http://www.w3.org/1999/02/22&#45;rdf&#45;syntax&#45;ns#langString</title>
<path fill="none" stroke="black" d="M910.98,-1142.69C952.24,-1125.42 1020.02,-1097.05 1064.77,-1078.33"/>
<polygon fill="black" stroke="black" points="1066.35,-1081.46 1074.22,-1074.37 1063.65,-1075 1066.35,-1081.46"/>
<text text-anchor="middle" x="966.87" y="-1099.31" font-family="Times,serif" font-size="14.00">range</text>
</g>
<!-- http://w3id.org/oseg/ont/otrl#ODRL3 -->
<g id="node14" class="node">
<title>http://w3id.org/oseg/ont/otrl#ODRL3</title>
<ellipse fill="none" stroke="#e377c2" cx="1008.41" cy="-657.56" rx="69.09" ry="16.03"/>
<text text-anchor="middle" x="1008.41" y="-653.86" font-family="Times,serif" font-size="14.00">otrl:ODRL3</text>
</g>
<!-- http://w3id.org/oseg/ont/otrl#ODRL3&#45;&gt;http://w3id.org/oseg/ont/otrl#ODRL -->
<g id="edge26" class="edge">
<title>http://w3id.org/oseg/ont/otrl#ODRL3&#45;&gt;http://w3id.org/oseg/ont/otrl#ODRL</title>
<path fill="none" stroke="black" d="M999.73,-673.99C979.7,-711.91 930.15,-805.72 906.25,-850.97"/>
<polygon fill="black" stroke="black" points="903.13,-849.37 901.56,-859.85 909.32,-852.64 903.13,-849.37"/>
<text text-anchor="middle" x="948.49" y="-766.28" font-family="Times,serif" font-size="14.00">a</text>
</g>
<!-- http://w3id.org/oseg/ont/otrl#OTRL5 -->
<g id="node15" class="node">
<title>http://w3id.org/oseg/ont/otrl#OTRL5</title>
<ellipse fill="none" stroke="#e377c2" cx="824.87" cy="-1470.06" rx="67.35" ry="16.03"/>
<text text-anchor="middle" x="824.87" y="-1466.36" font-family="Times,serif" font-size="14.00">otrl:OTRL5</text>
</g>
<!-- http://w3id.org/oseg/ont/otrl#OTRL5&#45;&gt;http://w3id.org/oseg/ont/otrl#OTRL -->
<g id="edge15" class="edge">
<title>http://w3id.org/oseg/ont/otrl#OTRL5&#45;&gt;http://w3id.org/oseg/ont/otrl#OTRL</title>
<path fill="none" stroke="black" d="M862.73,-1456.52C903.97,-1441.77 969.97,-1418.16 1014.26,-1402.32"/>
<polygon fill="black" stroke="black" points="1015.68,-1405.53 1023.91,-1398.87 1013.32,-1398.94 1015.68,-1405.53"/>
<text text-anchor="middle" x="933.99" y="-1433.22" font-family="Times,serif" font-size="14.00">a</text>
</g>
<!-- http://w3id.org/oseg/ont/otrl#OTRL4 -->
<g id="node16" class="node">
<title>http://w3id.org/oseg/ont/otrl#OTRL4</title>
<ellipse fill="none" stroke="#e377c2" cx="1209.46" cy="-1588.56" rx="67.35" ry="16.03"/>
<text text-anchor="middle" x="1209.46" y="-1584.86" font-family="Times,serif" font-size="14.00">otrl:OTRL4</text>
</g>
<!-- http://w3id.org/oseg/ont/otrl#OTRL4&#45;&gt;http://w3id.org/oseg/ont/otrl#OTRL -->
<g id="edge24" class="edge">
<title>http://w3id.org/oseg/ont/otrl#OTRL4&#45;&gt;http://w3id.org/oseg/ont/otrl#OTRL</title>
<path fill="none" stroke="black" d="M1197.52,-1572.31C1171.42,-1536.77 1109.15,-1451.99 1078.37,-1410.08"/>
<polygon fill="black" stroke="black" points="1081.04,-1407.81 1072.3,-1401.82 1075.4,-1411.96 1081.04,-1407.81"/>
<text text-anchor="middle" x="1133.45" y="-1494.99" font-family="Times,serif" font-size="14.00">a</text>
</g>
<!-- http://w3id.org/oseg/ont/otrl#OTRL2 -->
<g id="node17" class="node">
<title>http://w3id.org/oseg/ont/otrl#OTRL2</title>
<ellipse fill="none" stroke="#e377c2" cx="1234.53" cy="-1508.5" rx="67.35" ry="16.03"/>
<text text-anchor="middle" x="1234.53" y="-1504.8" font-family="Times,serif" font-size="14.00">otrl:OTRL2</text>
</g>
<!-- http://w3id.org/oseg/ont/otrl#OTRL2&#45;&gt;http://w3id.org/oseg/ont/otrl#OTRL -->
<g id="edge37" class="edge">
<title>http://w3id.org/oseg/ont/otrl#OTRL2&#45;&gt;http://w3id.org/oseg/ont/otrl#OTRL</title>
<path fill="none" stroke="black" d="M1212.49,-1492.96C1181.55,-1471.14 1125.14,-1431.35 1090.43,-1406.87"/>
<polygon fill="black" stroke="black" points="1092.29,-1403.9 1082.1,-1401 1088.26,-1409.63 1092.29,-1403.9"/>
<text text-anchor="middle" x="1146.96" y="-1453.72" font-family="Times,serif" font-size="14.00">a</text>
</g>
<!-- http://w3id.org/oseg/ont/otrl#ODRL3Star -->
<g id="node18" class="node">
<title>http://w3id.org/oseg/ont/otrl#ODRL3Star</title>
<ellipse fill="none" stroke="#e377c2" cx="618.75" cy="-888.72" rx="90.52" ry="16.03"/>
<text text-anchor="middle" x="618.75" y="-885.02" font-family="Times,serif" font-size="14.00">otrl:ODRL3Star</text>
</g>
<!-- http://w3id.org/oseg/ont/otrl#ODRL3Star&#45;&gt;http://w3id.org/oseg/ont/otrl#ODRL -->
<g id="edge21" class="edge">
<title>http://w3id.org/oseg/ont/otrl#ODRL3Star&#45;&gt;http://w3id.org/oseg/ont/otrl#ODRL</title>
<path fill="none" stroke="black" d="M706.63,-884.69C743.41,-883.01 785.64,-881.08 820.59,-879.48"/>
<polygon fill="black" stroke="black" points="820.88,-882.97 830.71,-879.02 820.56,-875.98 820.88,-882.97"/>
<text text-anchor="middle" x="759.11" y="-885.89" font-family="Times,serif" font-size="14.00">a</text>
</g>
<!-- http://w3id.org/oseg/ont/otrl#goal -->
<g id="node19" class="node">
<title>http://w3id.org/oseg/ont/otrl#goal</title>
<ellipse fill="none" stroke="#e377c2" cx="1020.35" cy="-1114.2" rx="54.39" ry="16.03"/>
<text text-anchor="middle" x="1020.35" y="-1110.5" font-family="Times,serif" font-size="14.00">otrl:goal</text>
</g>
<!-- http://w3id.org/oseg/ont/otrl#goal&#45;&gt;http://w3id.org/oseg/ont/otrl#ODRL -->
<g id="edge13" class="edge">
<title>http://w3id.org/oseg/ont/otrl#goal&#45;&gt;http://w3id.org/oseg/ont/otrl#ODRL</title>
<path fill="none" stroke="black" d="M1011.59,-1097.84C989.72,-1056.97 932.57,-950.22 906.39,-901.31"/>
<polygon fill="black" stroke="black" points="909.39,-899.5 901.58,-892.33 903.22,-902.8 909.39,-899.5"/>
<text text-anchor="middle" x="880.99" y="-1003.37" font-family="Times,serif" font-size="14.00">dcam:domainIncludes</text>
</g>
<!-- http://w3id.org/oseg/ont/otrl#goal&#45;&gt;http://w3id.org/oseg/ont/otrl#OTRL -->
<g id="edge17" class="edge">
<title>http://w3id.org/oseg/ont/otrl#goal&#45;&gt;http://w3id.org/oseg/ont/otrl#OTRL</title>
<path fill="none" stroke="black" d="M1022.8,-1130.78C1029.54,-1176.34 1048.38,-1303.74 1056.6,-1359.31"/>
<polygon fill="black" stroke="black" points="1053.17,-1360.03 1058.1,-1369.41 1060.1,-1359.01 1053.17,-1360.03"/>
<text text-anchor="middle" x="961.7" y="-1248.84" font-family="Times,serif" font-size="14.00">dcam:domainIncludes</text>
</g>
<!-- http://w3id.org/oseg/ont/otrl#goal&#45;&gt;http://www.w3.org/1999/02/22&#45;rdf&#45;syntax&#45;ns#langString -->
<g id="edge30" class="edge">
<title>http://w3id.org/oseg/ont/otrl#goal&#45;&gt;http://www.w3.org/1999/02/22&#45;rdf&#45;syntax&#45;ns#langString</title>
<path fill="none" stroke="black" d="M1044.3,-1099.55C1053.82,-1093.72 1064.95,-1086.91 1075.3,-1080.58"/>
<polygon fill="black" stroke="black" points="1077.44,-1083.37 1084.14,-1075.17 1073.79,-1077.4 1077.44,-1083.37"/>
<text text-anchor="middle" x="1038.8" y="-1078.86" font-family="Times,serif" font-size="14.00">range</text>
</g>
<!-- http://w3id.org/oseg/ont/otrl#ODRL2 -->
<g id="node20" class="node">
<title>http://w3id.org/oseg/ont/otrl#ODRL2</title>
<ellipse fill="none" stroke="#e377c2" cx="1097.31" cy="-745.14" rx="69.09" ry="16.03"/>
<text text-anchor="middle" x="1097.31" y="-741.44" font-family="Times,serif" font-size="14.00">otrl:ODRL2</text>
</g>
<!-- http://w3id.org/oseg/ont/otrl#ODRL2&#45;&gt;http://w3id.org/oseg/ont/otrl#ODRL -->
<g id="edge25" class="edge">
<title>http://w3id.org/oseg/ont/otrl#ODRL2&#45;&gt;http://w3id.org/oseg/ont/otrl#ODRL</title>
<path fill="none" stroke="black" d="M1073.46,-760.43C1036.77,-783.95 966.41,-829.06 925.2,-855.48"/>
<polygon fill="black" stroke="black" points="923.15,-852.64 916.62,-860.98 926.93,-858.53 923.15,-852.64"/>
<text text-anchor="middle" x="994.83" y="-811.76" font-family="Times,serif" font-size="14.00">a</text>
</g>
<!-- http://w3id.org/oseg/ont/oseg&#45;profiles#robinVobruba -->
<g id="node21" class="node">
<title>http://w3id.org/oseg/ont/oseg&#45;profiles#robinVobruba</title>
<ellipse fill="none" stroke="#e377c2" cx="1748.96" cy="-771.51" rx="113.69" ry="16.03"/>
<text text-anchor="middle" x="1748.96" y="-767.81" font-family="Times,serif" font-size="14.00">osegprof:robinVob...</text>
</g>
<!-- http://w3id.org/oseg/ont/otrl#ODRL4 -->
<g id="node22" class="node">
<title>http://w3id.org/oseg/ont/otrl#ODRL4</title>
<ellipse fill="none" stroke="#e377c2" cx="845.46" cy="-613.42" rx="69.09" ry="16.03"/>
<text text-anchor="middle" x="845.46" y="-609.72" font-family="Times,serif" font-size="14.00">otrl:ODRL4</text>
</g>
<!-- http://w3id.org/oseg/ont/otrl#ODRL4&#45;&gt;http://w3id.org/oseg/ont/otrl#ODRL -->
<g id="edge31" class="edge">
<title>http://w3id.org/oseg/ont/otrl#ODRL4&#45;&gt;http://w3id.org/oseg/ont/otrl#ODRL</title>
<path fill="none" stroke="black" d="M848.43,-629.85C856.41,-674 878.35,-795.46 888.13,-849.56"/>
<polygon fill="black" stroke="black" points="884.74,-850.52 889.96,-859.74 891.63,-849.28 884.74,-850.52"/>
<text text-anchor="middle" x="863.78" y="-743.51" font-family="Times,serif" font-size="14.00">a</text>
</g>
<!-- http://w3id.org/oseg/ont/otrl -->
<g id="node24" class="node">
<title>http://w3id.org/oseg/ont/otrl</title>
<ellipse fill="none" stroke="#e377c2" cx="1808.88" cy="-1003.53" rx="50.82" ry="16.03"/>
<text text-anchor="middle" x="1808.88" y="-999.83" font-family="Times,serif" font-size="14.00">ns3:otrl</text>
</g>
<!-- http://w3id.org/oseg/ont/otrl&#45;&gt;http://spdx.org/rdf/terms#SpdxItem -->
<g id="edge40" class="edge">
<title>http://w3id.org/oseg/ont/otrl&#45;&gt;http://spdx.org/rdf/terms#SpdxItem</title>
<path fill="none" stroke="black" d="M1757.72,-1003.31C1738.95,-1003.23 1717.02,-1003.14 1695.52,-1003.05"/>
<polygon fill="black" stroke="black" points="1695.36,-999.55 1685.35,-1003.01 1695.33,-1006.55 1695.36,-999.55"/>
<text text-anchor="middle" x="1722.12" y="-1006.98" font-family="Times,serif" font-size="14.00">a</text>
</g>
<!-- http://w3id.org/oseg/ont/otrl&#45;&gt;http://w3id.org/oseg/ont/1.1.0/otrl -->
<g id="edge2" class="edge">
<title>http://w3id.org/oseg/ont/otrl&#45;&gt;http://w3id.org/oseg/ont/1.1.0/otrl</title>
<path fill="none" stroke="black" d="M1833.22,-989.21C1857.76,-974.78 1895.81,-952.4 1923.11,-936.34"/>
<polygon fill="black" stroke="black" points="1925.07,-939.25 1931.92,-931.16 1921.53,-933.21 1925.07,-939.25"/>
<text text-anchor="middle" x="1929.67" y="-966.58" font-family="Times,serif" font-size="14.00">owl:versionIRI</text>
</g>
<!-- http://w3id.org/oseg/ont/otrl&#45;&gt;http://spdx.org/licenses/GPL&#45;3.0&#45;or&#45;later -->
<g id="edge4" class="edge">
<title>http://w3id.org/oseg/ont/otrl&#45;&gt;http://spdx.org/licenses/GPL&#45;3.0&#45;or&#45;later</title>
<path fill="none" stroke="black" d="M1801.82,-987.32C1801.38,-986.32 1800.93,-985.3 1800.49,-984.26"/>
<polygon fill="black" stroke="black" points="1803.64,-982.74 1796.44,-974.97 1797.22,-985.54 1803.64,-982.74"/>
<text text-anchor="middle" x="1725.15" y="-974.59" font-family="Times,serif" font-size="14.00">spdx:licenseDeclared</text>
</g>
<!-- http://w3id.org/oseg/ont/otrl&#45;&gt;http://w3id.org/oseg/ont/oseg&#45;profiles#Iopa -->
<g id="edge8" class="edge">
<title>http://w3id.org/oseg/ont/otrl&#45;&gt;http://w3id.org/oseg/ont/oseg&#45;profiles#Iopa</title>
<path fill="none" stroke="black" d="M1831.78,-1018.16C1861.11,-1036.91 1912.16,-1069.53 1945.68,-1090.96"/>
<polygon fill="black" stroke="black" points="1943.91,-1093.98 1954.22,-1096.41 1947.68,-1088.08 1943.91,-1093.98"/>
<text text-anchor="middle" x="1954.23" y="-1058.36" font-family="Times,serif" font-size="14.00">dcterms:publisher</text>
</g>
<!-- http://w3id.org/oseg/ont/otrl&#45;&gt;http://id.loc.gov/vocabulary/iso639&#45;1/en -->
<g id="edge9" class="edge">
<title>http://w3id.org/oseg/ont/otrl&#45;&gt;http://id.loc.gov/vocabulary/iso639&#45;1/en</title>
<path fill="none" stroke="black" d="M1807.04,-1019.84C1803.86,-1048.04 1797.32,-1106.18 1793.45,-1140.47"/>
<polygon fill="black" stroke="black" points="1789.94,-1140.37 1792.3,-1150.7 1796.9,-1141.15 1789.94,-1140.37"/>
<text text-anchor="middle" x="1735.75" y="-1083.96" font-family="Times,serif" font-size="14.00">dcterms:language</text>
</g>
<!-- http://w3id.org/oseg/ont/otrl&#45;&gt;http://w3id.org/oseg/ont/oseg&#45;profiles#martinHaeuer -->
<g id="edge10" class="edge">
<title>http://w3id.org/oseg/ont/otrl&#45;&gt;http://w3id.org/oseg/ont/oseg&#45;profiles#martinHaeuer</title>
<path fill="none" stroke="black" d="M1783.67,-1017.92C1782.94,-1018.6 1782.22,-1019.28 1781.5,-1019.96"/>
<polygon fill="black" stroke="black" points="1778.75,-1017.77 1774.32,-1027.39 1783.79,-1022.63 1778.75,-1017.77"/>
<text text-anchor="middle" x="1725.09" y="-1007.74" font-family="Times,serif" font-size="14.00">dcterms:creator</text>
</g>
<!-- http://w3id.org/oseg/ont/otrl&#45;&gt;http://w3id.org/oseg/ont/oseg&#45;profiles#martinHaeuer -->
<g id="edge16" class="edge">
<title>http://w3id.org/oseg/ont/otrl&#45;&gt;http://w3id.org/oseg/ont/oseg&#45;profiles#martinHaeuer</title>
<path fill="none" stroke="black" d="M1800.4,-1020C1800.18,-1020.25 1799.95,-1020.5 1799.73,-1020.75"/>
<polygon fill="black" stroke="black" points="1797.06,-1018.48 1792.57,-1028.08 1802.06,-1023.37 1797.06,-1018.48"/>
<text text-anchor="middle" x="1855.56" y="-1024.18" font-family="Times,serif" font-size="14.00">schema:creator</text>
</g>
<!-- http://w3id.org/oseg/ont/otrl&#45;&gt;http://w3id.org/oseg/ont/oseg&#45;profiles#robinVobruba -->
<g id="edge27" class="edge">
<title>http://w3id.org/oseg/ont/otrl&#45;&gt;http://w3id.org/oseg/ont/oseg&#45;profiles#robinVobruba</title>
<path fill="none" stroke="black" d="M1808.33,-987.04C1802.05,-947.27 1776.18,-845.83 1760.4,-797.66"/>
<polygon fill="black" stroke="black" points="1763.64,-796.3 1757.1,-787.96 1757.01,-798.55 1763.64,-796.3"/>
<text text-anchor="middle" x="1728.87" y="-881.15" font-family="Times,serif" font-size="14.00">schema:creator</text>
</g>
<!-- http://w3id.org/oseg/ont/otrl&#45;&gt;http://w3id.org/oseg/ont/oseg&#45;profiles#robinVobruba -->
<g id="edge34" class="edge">
<title>http://w3id.org/oseg/ont/otrl&#45;&gt;http://w3id.org/oseg/ont/oseg&#45;profiles#robinVobruba</title>
<path fill="none" stroke="black" d="M1800.85,-987.4C1786.77,-947.97 1760.32,-846.44 1751.25,-797.99"/>
<polygon fill="black" stroke="black" points="1754.66,-797.21 1749.5,-787.96 1747.77,-798.41 1754.66,-797.21"/>
<text text-anchor="middle" x="1718.55" y="-896.5" font-family="Times,serif" font-size="14.00">dcterms:creator</text>
</g>
<!-- http://w3id.org/oseg/ont/otrl#Odrl4 -->
<g id="node25" class="node">
<title>http://w3id.org/oseg/ont/otrl#Odrl4</title>
<ellipse fill="none" stroke="#e377c2" cx="830.71" cy="-374.77" rx="61.54" ry="16.03"/>
<text text-anchor="middle" x="830.71" y="-371.07" font-family="Times,serif" font-size="14.00">otrl:Odrl4</text>
</g>
<!-- http://w3id.org/oseg/ont/otrl#Odrl4&#45;&gt;http://w3id.org/oseg/ont/otrl#ODRL4 -->
<g id="edge29" class="edge">
<title>http://w3id.org/oseg/ont/otrl#Odrl4&#45;&gt;http://w3id.org/oseg/ont/otrl#ODRL4</title>
<path fill="none" stroke="black" d="M831.73,-391.18C834.23,-431.71 840.73,-536.89 843.81,-586.62"/>
<polygon fill="black" stroke="black" points="840.33,-587.13 844.44,-596.9 847.32,-586.7 840.33,-587.13"/>
<text text-anchor="middle" x="757.77" y="-492.7" font-family="Times,serif" font-size="14.00">schema:supersededBy</text>
</g>
<!-- http://w3id.org/oseg/ont/otrl#Odrl -->
<g id="node26" class="node">
<title>http://w3id.org/oseg/ont/otrl#Odrl</title>
<ellipse fill="none" stroke="black" cx="551.64" cy="-751.95" rx="185.02" ry="16.03"/>
<text text-anchor="middle" x="551.64" y="-748.25" font-family="Times,serif" font-size="14.00">http://w3id.org/oseg/ont/otrl#Odrl</text>
</g>
<!-- http://w3id.org/oseg/ont/otrl#Odrl&#45;&gt;http://w3id.org/oseg/ont/otrl#ODRL -->
<g id="edge1" class="edge">
<title>http://w3id.org/oseg/ont/otrl#Odrl&#45;&gt;http://w3id.org/oseg/ont/otrl#ODRL</title>
<path fill="none" stroke="black" d="M595.21,-767.81C659.82,-791.32 780.5,-835.25 846.65,-859.32"/>
<polygon fill="black" stroke="black" points="845.79,-862.74 856.39,-862.87 848.19,-856.16 845.79,-862.74"/>
<text text-anchor="middle" x="640.93" y="-817.37" font-family="Times,serif" font-size="14.00">schema:supersededBy</text>
</g>
<!-- http://w3id.org/oseg/ont/otrl#Otrl1 -->
<g id="node27" class="node">
<title>http://w3id.org/oseg/ont/otrl#Otrl1</title>
<ellipse fill="none" stroke="black" cx="698.26" cy="-1876.42" rx="189.51" ry="16.03"/>
<text text-anchor="middle" x="698.26" y="-1872.72" font-family="Times,serif" font-size="14.00">http://w3id.org/oseg/ont/otrl#Otrl1</text>
</g>
<!-- http://w3id.org/oseg/ont/otrl#Otrl1&#45;&gt;http://w3id.org/oseg/ont/otrl#OTRL1 -->
<g id="edge5" class="edge">
<title>http://w3id.org/oseg/ont/otrl#Otrl1&#45;&gt;http://w3id.org/oseg/ont/otrl#OTRL1</title>
<path fill="none" stroke="black" d="M708.88,-1859.79C740.91,-1809.68 836.66,-1659.88 874.84,-1600.14"/>
<polygon fill="black" stroke="black" points="878.02,-1601.67 880.45,-1591.36 872.12,-1597.9 878.02,-1601.67"/>
<text text-anchor="middle" x="711.86" y="-1733.77" font-family="Times,serif" font-size="14.00">schema:supersededBy</text>
</g>
<!-- http://w3id.org/oseg/ont/otrl#Otrl6 -->
<g id="node28" class="node">
<title>http://w3id.org/oseg/ont/otrl#Otrl6</title>
<ellipse fill="none" stroke="black" cx="990.34" cy="-1640.82" rx="189.51" ry="16.03"/>
<text text-anchor="middle" x="990.34" y="-1637.12" font-family="Times,serif" font-size="14.00">http://w3id.org/oseg/ont/otrl#Otrl6</text>
</g>
<!-- http://w3id.org/oseg/ont/otrl#Otrl6&#45;&gt;http://w3id.org/oseg/ont/otrl#OTRL6 -->
<g id="edge6" class="edge">
<title>http://w3id.org/oseg/ont/otrl#Otrl6&#45;&gt;http://w3id.org/oseg/ont/otrl#OTRL6</title>
<path fill="none" stroke="black" d="M1009.55,-1624.53C1014.39,-1620.43 1019.66,-1615.95 1024.78,-1611.61"/>
<polygon fill="black" stroke="black" points="1027.24,-1614.12 1032.6,-1604.98 1022.71,-1608.78 1027.24,-1614.12"/>
<text text-anchor="middle" x="937.16" y="-1606.87" font-family="Times,serif" font-size="14.00">schema:supersededBy</text>
</g>
<!-- http://w3id.org/oseg/ont/otrl#Odrl3 -->
<g id="node29" class="node">
<title>http://w3id.org/oseg/ont/otrl#Odrl3</title>
<ellipse fill="none" stroke="black" cx="1160.95" cy="-327.91" rx="191.75" ry="16.03"/>
<text text-anchor="middle" x="1160.95" y="-324.21" font-family="Times,serif" font-size="14.00">http://w3id.org/oseg/ont/otrl#Odrl3</text>
</g>
<!-- http://w3id.org/oseg/ont/otrl#Odrl3&#45;&gt;http://w3id.org/oseg/ont/otrl#ODRL3 -->
<g id="edge12" class="edge">
<title>http://w3id.org/oseg/ont/otrl#Odrl3&#45;&gt;http://w3id.org/oseg/ont/otrl#ODRL3</title>
<path fill="none" stroke="black" d="M1153.39,-344.26C1128.69,-397.64 1050.25,-567.13 1020.24,-631.98"/>
<polygon fill="black" stroke="black" points="1017.04,-630.57 1016.02,-641.11 1023.39,-633.51 1017.04,-630.57"/>
<text text-anchor="middle" x="1006.82" y="-491.92" font-family="Times,serif" font-size="14.00">schema:supersededBy</text>
</g>
<!-- http://w3id.org/oseg/ont/otrl#Otrl5 -->
<g id="node30" class="node">
<title>http://w3id.org/oseg/ont/otrl#Otrl5</title>
<ellipse fill="none" stroke="black" cx="515.62" cy="-1643.46" rx="189.51" ry="16.03"/>
<text text-anchor="middle" x="515.62" y="-1639.76" font-family="Times,serif" font-size="14.00">http://w3id.org/oseg/ont/otrl#Otrl5</text>
</g>
<!-- http://w3id.org/oseg/ont/otrl#Otrl5&#45;&gt;http://w3id.org/oseg/ont/otrl#OTRL5 -->
<g id="edge14" class="edge">
<title>http://w3id.org/oseg/ont/otrl#Otrl5&#45;&gt;http://w3id.org/oseg/ont/otrl#OTRL5</title>
<path fill="none" stroke="black" d="M544.43,-1627.3C601.2,-1595.47 727.33,-1524.75 789.22,-1490.05"/>
<polygon fill="black" stroke="black" points="791.22,-1492.94 798.23,-1485 787.79,-1486.84 791.22,-1492.94"/>
<text text-anchor="middle" x="586.83" y="-1562.47" font-family="Times,serif" font-size="14.00">schema:supersededBy</text>
</g>
<!-- http://w3id.org/oseg/ont/otrl#Otrl4 -->
<g id="node31" class="node">
<title>http://w3id.org/oseg/ont/otrl#Otrl4</title>
<ellipse fill="none" stroke="black" cx="1393.12" cy="-1909.92" rx="189.51" ry="16.03"/>
<text text-anchor="middle" x="1393.12" y="-1906.22" font-family="Times,serif" font-size="14.00">http://w3id.org/oseg/ont/otrl#Otrl4</text>
</g>
<!-- http://w3id.org/oseg/ont/otrl#Otrl4&#45;&gt;http://w3id.org/oseg/ont/otrl#OTRL4 -->
<g id="edge18" class="edge">
<title>http://w3id.org/oseg/ont/otrl#Otrl4&#45;&gt;http://w3id.org/oseg/ont/otrl#OTRL4</title>
<path fill="none" stroke="black" d="M1383.76,-1893.54C1353.79,-1841.11 1260.07,-1677.11 1223.9,-1613.82"/>
<polygon fill="black" stroke="black" points="1226.8,-1611.85 1218.8,-1604.9 1220.72,-1615.32 1226.8,-1611.85"/>
<text text-anchor="middle" x="1223.83" y="-1757.48" font-family="Times,serif" font-size="14.00">schema:supersededBy</text>
</g>
<!-- http://w3id.org/oseg/ont/otrl#Otrl -->
<g id="node32" class="node">
<title>http://w3id.org/oseg/ont/otrl#Otrl</title>
<ellipse fill="none" stroke="black" cx="1407.39" cy="-1463.9" rx="183.28" ry="16.03"/>
<text text-anchor="middle" x="1407.39" y="-1460.2" font-family="Times,serif" font-size="14.00">http://w3id.org/oseg/ont/otrl#Otrl</text>
</g>
<!-- http://w3id.org/oseg/ont/otrl#Otrl&#45;&gt;http://w3id.org/oseg/ont/otrl#OTRL -->
<g id="edge19" class="edge">
<title>http://w3id.org/oseg/ont/otrl#Otrl&#45;&gt;http://w3id.org/oseg/ont/otrl#OTRL</title>
<path fill="none" stroke="black" d="M1340.09,-1448.75C1275.15,-1434.12 1177.94,-1412.22 1116.93,-1398.48"/>
<polygon fill="black" stroke="black" points="1117.62,-1395.05 1107.09,-1396.27 1116.08,-1401.88 1117.62,-1395.05"/>
<text text-anchor="middle" x="1148.51" y="-1427.42" font-family="Times,serif" font-size="14.00">schema:supersededBy</text>
</g>
<!-- http://w3id.org/oseg/ont/otrl#Otrl2 -->
<g id="node33" class="node">
<title>http://w3id.org/oseg/ont/otrl#Otrl2</title>
<ellipse fill="none" stroke="black" cx="1562.63" cy="-1657.66" rx="189.51" ry="16.03"/>
<text text-anchor="middle" x="1562.63" y="-1653.96" font-family="Times,serif" font-size="14.00">http://w3id.org/oseg/ont/otrl#Otrl2</text>
</g>
<!-- http://w3id.org/oseg/ont/otrl#Otrl2&#45;&gt;http://w3id.org/oseg/ont/otrl#OTRL2 -->
<g id="edge20" class="edge">
<title>http://w3id.org/oseg/ont/otrl#Otrl2&#45;&gt;http://w3id.org/oseg/ont/otrl#OTRL2</title>
<path fill="none" stroke="black" d="M1527.21,-1641.56C1465.93,-1613.7 1340.48,-1556.67 1275.53,-1527.14"/>
<polygon fill="black" stroke="black" points="1276.95,-1523.94 1266.4,-1522.99 1274.06,-1530.32 1276.95,-1523.94"/>
<text text-anchor="middle" x="1481.37" y="-1588.15" font-family="Times,serif" font-size="14.00">schema:supersededBy</text>
</g>
<!-- http://w3id.org/oseg/ont/otrl#Odrl1 -->
<g id="node34" class="node">
<title>http://w3id.org/oseg/ont/otrl#Odrl1</title>
<ellipse fill="none" stroke="black" cx="442.6" cy="-462.57" rx="191.75" ry="16.03"/>
<text text-anchor="middle" x="442.6" y="-458.87" font-family="Times,serif" font-size="14.00">http://w3id.org/oseg/ont/otrl#Odrl1</text>
</g>
<!-- http://w3id.org/oseg/ont/otrl#Odrl1&#45;&gt;http://w3id.org/oseg/ont/otrl#ODRL1 -->
<g id="edge23" class="edge">
<title>http://w3id.org/oseg/ont/otrl#Odrl1&#45;&gt;http://w3id.org/oseg/ont/otrl#ODRL1</title>
<path fill="none" stroke="black" d="M461.61,-478.92C510.85,-521.29 642.68,-634.72 699.2,-683.36"/>
<polygon fill="black" stroke="black" points="697.11,-686.18 706.97,-690.05 701.67,-680.87 697.11,-686.18"/>
<text text-anchor="middle" x="500.4" y="-584.94" font-family="Times,serif" font-size="14.00">schema:supersededBy</text>
</g>
<!-- http://w3id.org/oseg/ont/otrl#Odrl2 -->
<g id="node35" class="node">
<title>http://w3id.org/oseg/ont/otrl#Odrl2</title>
<ellipse fill="none" stroke="black" cx="1398.17" cy="-540.35" rx="191.75" ry="16.03"/>
<text text-anchor="middle" x="1398.17" y="-536.65" font-family="Times,serif" font-size="14.00">http://w3id.org/oseg/ont/otrl#Odrl2</text>
</g>
<!-- http://w3id.org/oseg/ont/otrl#Odrl2&#45;&gt;http://w3id.org/oseg/ont/otrl#ODRL2 -->
<g id="edge28" class="edge">
<title>http://w3id.org/oseg/ont/otrl#Odrl2&#45;&gt;http://w3id.org/oseg/ont/otrl#ODRL2</title>
<path fill="none" stroke="black" d="M1374.31,-556.59C1320.26,-593.38 1188.52,-683.06 1128.28,-724.06"/>
<polygon fill="black" stroke="black" points="1126.23,-721.22 1119.93,-729.74 1130.17,-727.01 1126.23,-721.22"/>
<text text-anchor="middle" x="1171.29" y="-644.13" font-family="Times,serif" font-size="14.00">schema:supersededBy</text>
</g>
<!-- http://w3id.org/oseg/ont/otrl#Odrl3Star -->
<g id="node36" class="node">
<title>http://w3id.org/oseg/ont/otrl#Odrl3Star</title>
<ellipse fill="none" stroke="black" cx="213.33" cy="-866.78" rx="213.59" ry="16.03"/>
<text text-anchor="middle" x="213.33" y="-863.08" font-family="Times,serif" font-size="14.00">http://w3id.org/oseg/ont/otrl#Odrl3Star</text>
</g>
<!-- http://w3id.org/oseg/ont/otrl#Odrl3Star&#45;&gt;http://w3id.org/oseg/ont/otrl#ODRL3Star -->
<g id="edge32" class="edge">
<title>http://w3id.org/oseg/ont/otrl#Odrl3Star&#45;&gt;http://w3id.org/oseg/ont/otrl#ODRL3Star</title>
<path fill="none" stroke="black" d="M387.61,-876.21C433.61,-878.7 481.61,-881.3 521.86,-883.47"/>
<polygon fill="black" stroke="black" points="521.75,-886.97 531.92,-884.02 522.13,-879.98 521.75,-886.97"/>
<text text-anchor="middle" x="374.74" y="-883.64" font-family="Times,serif" font-size="14.00">schema:supersededBy</text>
</g>
<!-- http://w3id.org/oseg/ont/otrl#Odrl5 -->
<g id="node37" class="node">
<title>http://w3id.org/oseg/ont/otrl#Odrl5</title>
<ellipse fill="none" stroke="black" cx="825.93" cy="-16.35" rx="191.75" ry="16.03"/>
<text text-anchor="middle" x="825.93" y="-12.65" font-family="Times,serif" font-size="14.00">http://w3id.org/oseg/ont/otrl#Odrl5</text>
</g>
<!-- http://w3id.org/oseg/ont/otrl#Odrl5&#45;&gt;http://w3id.org/oseg/ont/otrl#Odrl4 -->
<g id="edge33" class="edge">
<title>http://w3id.org/oseg/ont/otrl#Odrl5&#45;&gt;http://w3id.org/oseg/ont/otrl#Odrl4</title>
<path fill="none" stroke="black" d="M826.14,-32.68C826.9,-89.36 829.42,-277.93 830.36,-348.13"/>
<polygon fill="black" stroke="black" points="826.86,-348.39 830.49,-358.35 833.86,-348.3 826.86,-348.39"/>
<text text-anchor="middle" x="748.25" y="-194.21" font-family="Times,serif" font-size="14.00">schema:supersededBy</text>
</g>
<!-- http://w3id.org/oseg/ont/otrl#Otrl3 -->
<g id="node38" class="node">
<title>http://w3id.org/oseg/ont/otrl#Otrl3</title>
<ellipse fill="none" stroke="black" cx="1661.71" cy="-1398" rx="189.51" ry="16.03"/>
<text text-anchor="middle" x="1661.71" y="-1394.3" font-family="Times,serif" font-size="14.00">http://w3id.org/oseg/ont/otrl#Otrl3</text>
</g>
<!-- http://w3id.org/oseg/ont/otrl#Otrl3&#45;&gt;http://w3id.org/oseg/ont/otrl#OTRL3 -->
<g id="edge38" class="edge">
<title>http://w3id.org/oseg/ont/otrl#Otrl3&#45;&gt;http://w3id.org/oseg/ont/otrl#OTRL3</title>
<path fill="none" stroke="black" d="M1530.38,-1386.26C1474.92,-1381.3 1412.42,-1375.71 1365.36,-1371.5"/>
<polygon fill="black" stroke="black" points="1365.53,-1368 1355.26,-1370.59 1364.91,-1374.97 1365.53,-1368"/>
<text text-anchor="middle" x="1527.87" y="-1367.68" font-family="Times,serif" font-size="14.00">schema:supersededBy</text>
</g>
</g>
</svg>
